<?xml version="1.0" ?>
<svg xmlns="http://www.w3.org/2000/svg" version="1.1" width="512" height="470">
  <defs/>
  <g>
    <path d="M 328.3021240234375 479.9754638671875 C 315.3924560546875 475.0830078125 320.0624084472656 474.61846923828125 316.8941345214844 485.6946105957031 C 293.0592956542969 482.9300842285156 287.0333251953125 481.9094543457031 309.45013427734375 498.0960388183594 C 356.0413513183594 453.3389587402344 263.604736328125 499.88037109375 115.0561294555664 439.82281494140625 C 383.40008544921875 430.8890380859375 389.0716247558594 438.6862487792969 328.3021240234375 479.9754638671875" stroke-width="0.0" fill="rgb(211, 234, 250)" opacity="0.6234706" stroke="rgb(236, 226, 118)" stroke-opacity="0.8446396" stroke-linecap="round" stroke-linejoin="round"/>
    <path d="M 458.03900146484375 -12.394222259521484 C 458.0389404296875 40.189571380615234 458.07489013671875 41.93484878540039 458.5905456542969 76.44775390625 C 357.75 73.17465209960938 332.9378356933594 69.57653045654297 343.7434997558594 2.1851284503936768 C 394.02606201171875 -20.132761001586914 404.0174865722656 -6.220731735229492 414.7857360839844 -8.905601501464844 C 445.8409729003906 -8.542219161987305 446.58245849609375 -8.577502250671387 458.03900146484375 -12.394222259521484" stroke-width="0.0" fill="rgb(249, 249, 255)" opacity="0.9883" stroke="rgb(195, 47, 201)" stroke-opacity="0.4667232" stroke-linecap="round" stroke-linejoin="round"/>
    <path d="M 239.49725341796875 54.751914978027344 C 108.00065612792969 130.7774658203125 84.4615707397461 162.89260864257812 13.498265266418457 76.72461700439453 C 14.250936508178711 57.60100173950195 14.064075469970703 94.1073226928711 13.974653244018555 -0.12355056405067444 C 25.54019546508789 -12.502409934997559 38.15095138549805 -11.41198444366455 88.35928344726562 -13.24691390991211 C 163.88418579101562 -31.43204116821289 220.43045043945312 -79.03286743164062 239.49725341796875 54.751914978027344" stroke-width="0.0" fill="rgb(243, 248, 255)" opacity="0.979444" stroke="rgb(251, 240, 146)" stroke-opacity="0.8482647" stroke-linecap="round" stroke-linejoin="round"/>
    <path d="M 492.5120849609375 457.7206115722656 C 403.67242431640625 457.4091491699219 378.55938720703125 458.3172302246094 404.8753967285156 456.33892822265625 C 402.5130615234375 456.91595458984375 395.2946472167969 457.05194091796875 348.6846618652344 456.6529235839844 C 377.4543151855469 438.329345703125 350.22613525390625 436.67071533203125 392.2584228515625 439.2038879394531 C 483.26080322265625 439.7438659667969 460.29302978515625 431.1975402832031 492.5120849609375 457.7206115722656" stroke-width="0.0" fill="rgb(231, 244, 255)" opacity="0.7995809" stroke="rgb(250, 173, 65)" stroke-opacity="0.2355924" stroke-linecap="round" stroke-linejoin="round"/>
    <path d="M 449.6101989746094 423.3639221191406 C 445.9522705078125 462.5151062011719 467.7437744140625 444.3403625488281 391.8014831542969 449.5312805175781 C 376.6208190917969 424.76361083984375 455.0403137207031 446.69287109375 389.82281494140625 430.5718994140625 C 401.6841735839844 374.0185241699219 395.1535339355469 357.8609924316406 413.5399475097656 374.534912109375 C 434.7994689941406 365.8341979980469 435.771728515625 354.873291015625 449.6101989746094 423.3639221191406" stroke-width="0.0" fill="rgb(26, 66, 189)" opacity="1.0" stroke="rgb(155, 254, 168)" stroke-opacity="0.09986947" stroke-linecap="round" stroke-linejoin="round"/>
    <path d="M 353.0036315917969 378.83245849609375 C 353.1867370605469 408.5651550292969 327.1542053222656 419.0069885253906 317.9560241699219 418.9071044921875 C 302.3935546875 422.5115661621094 273.3510437011719 408.92108154296875 276.32745361328125 386.8458251953125 C 277.000244140625 369.3213195800781 305.3651428222656 349.40325927734375 288.5785827636719 369.5771789550781 C 279.0672302246094 412.5642395019531 336.8823547363281 414.88531494140625 353.0036315917969 378.83245849609375" stroke-width="0.0" fill="rgb(227, 0, 17)" opacity="0.98411536" stroke="rgb(85, 114, 119)" stroke-opacity="0.49815932" stroke-linecap="round" stroke-linejoin="round"/>
    <path d="M 257.3633728027344 401.31158447265625 C 376.9719543457031 471.2291259765625 417.2160949707031 434.85260009765625 169.3906707763672 445.8382263183594 C 171.65139770507812 397.8274230957031 250.38775634765625 411.9126892089844 217.27020263671875 387.1344299316406 C 201.1027069091797 366.6995544433594 222.1082763671875 333.44830322265625 244.3856201171875 345.167724609375 C 252.80072021484375 352.402099609375 298.6147766113281 359.37969970703125 257.3633728027344 401.31158447265625" stroke-width="0.0" fill="rgb(217, 71, 106)" opacity="0.42412516" stroke="rgb(129, 240, 202)" stroke-opacity="0.33732677" stroke-linecap="round" stroke-linejoin="round"/>
    <path d="M 483.7421875 110.69973754882812 C 488.8399353027344 130.64308166503906 480.6009216308594 126.64016723632812 417.84735107421875 122.94776916503906 C 376.26007080078125 107.51542663574219 371.8483581542969 119.57825469970703 373.1860046386719 81.87809753417969 C 408.6695251464844 57.3675537109375 360.4142761230469 5.4864912033081055 407.05572509765625 16.48900032043457 C 456.0926208496094 62.3935546875 459.9095153808594 60.869407653808594 483.7421875 110.69973754882812" stroke-width="0.0" fill="rgb(248, 250, 255)" opacity="0.95956284" stroke="rgb(212, 219, 83)" stroke-opacity="0.29260895" stroke-linecap="round" stroke-linejoin="round"/>
    <path d="M 357.1136169433594 10.637441635131836 C 383.00665283203125 87.32437896728516 372.46942138671875 66.1888427734375 278.97479248046875 41.28187942504883 C 246.34901428222656 44.907936096191406 240.65509033203125 34.057464599609375 240.15151977539062 28.90083885192871 C 241.03785705566406 -6.250910758972168 241.0062255859375 -9.597047805786133 271.8647766113281 -12.26599407196045 C 309.9689636230469 -13.158598899841309 328.8543395996094 -30.018281936645508 357.1136169433594 10.637441635131836" stroke-width="0.0" fill="rgb(249, 251, 254)" opacity="0.9806432" stroke="rgb(9, 103, 185)" stroke-opacity="0.2589618" stroke-linecap="round" stroke-linejoin="round"/>
    <path d="M 168.79791259765625 164.74534606933594 C 166.96231079101562 230.8373260498047 188.17784118652344 210.94419860839844 126.11031341552734 202.707275390625 C 70.80994415283203 211.51161193847656 55.75248718261719 221.57034301757812 -4.324365615844727 250.9433135986328 C -20.28140640258789 3.305908679962158 -12.95778751373291 7.416374683380127 74.71475982666016 89.56917572021484 C 198.455810546875 109.02570343017578 157.8715362548828 95.21503448486328 168.79791259765625 164.74534606933594" stroke-width="0.0" fill="rgb(239, 243, 250)" opacity="0.99700165" stroke="rgb(209, 229, 128)" stroke-opacity="0.5479656" stroke-linecap="round" stroke-linejoin="round"/>
    <path d="M 262.0137939453125 16.914485931396484 C 270.255615234375 41.96652603149414 265.6308288574219 37.47508239746094 240.45249938964844 54.58819580078125 C 189.2472381591797 80.12173461914062 193.15126037597656 57.66065979003906 225.65821838378906 26.02838897705078 C 218.9805908203125 -9.389506340026855 213.4490966796875 -11.62547779083252 253.01080322265625 -9.850394248962402 C 263.1407470703125 -5.972162246704102 258.1581726074219 -4.463326930999756 262.0137939453125 16.914485931396484" stroke-width="0.0" fill="rgb(247, 250, 254)" opacity="0.9910354" stroke="rgb(82, 52, 224)" stroke-opacity="0.7213857" stroke-linecap="round" stroke-linejoin="round"/>
    <path d="M 522.8540649414062 75.47099304199219 C 523.6849975585938 124.6818618774414 520.6972045898438 128.15304565429688 466.87689208984375 119.64881896972656 C 445.7630615234375 96.37772369384766 444.23809814453125 94.21420288085938 449.6997985839844 61.969730377197266 C 446.8371276855469 31.837562561035156 441.8230285644531 23.992380142211914 494.1363525390625 27.05254364013672 C 514.4168090820312 31.0718994140625 521.958984375 27.163599014282227 522.8540649414062 75.47099304199219" stroke-width="0.0" fill="rgb(249, 250, 254)" opacity="0.9989091" stroke="rgb(49, 191, 37)" stroke-opacity="0.6289252" stroke-linecap="round" stroke-linejoin="round"/>
    <path d="M 521.472900390625 2.8843228816986084 C 525.649658203125 44.42680358886719 521.1482543945312 45.81332015991211 506.38775634765625 47.06440353393555 C 445.076904296875 48.752601623535156 446.67889404296875 44.148536682128906 447.6180114746094 18.253921508789062 C 454.04815673828125 -15.944055557250977 463.47271728515625 -9.111174583435059 483.3529052734375 -10.262548446655273 C 489.61865234375 -4.427894592285156 502.7775573730469 -13.0834379196167 521.472900390625 2.8843228816986084" stroke-width="0.0" fill="rgb(248, 248, 253)" opacity="1.0" stroke="rgb(213, 178, 165)" stroke-opacity="0.053507727" stroke-linecap="round" stroke-linejoin="round"/>
    <path d="M 536.9022216796875 157.46609497070312 C 541.3306274414062 257.7447204589844 482.7284240722656 290.7590637207031 485.2850341796875 227.23678588867188 C 395.807861328125 220.1500701904297 410.6665344238281 225.5980224609375 432.1353759765625 174.27267456054688 C 436.1107177734375 153.79010009765625 442.7743835449219 145.16697692871094 449.0315246582031 116.68032836914062 C 512.7344360351562 108.7525405883789 521.114013671875 101.10128021240234 536.9022216796875 157.46609497070312" stroke-width="0.0" fill="rgb(255, 255, 253)" opacity="0.810888" stroke="rgb(155, 55, 242)" stroke-opacity="0.031224595" stroke-linecap="round" stroke-linejoin="round"/>
    <path d="M 456.4692077636719 155.8041229248047 C 438.0226135253906 191.47036743164062 448.64947509765625 236.27679443359375 391.2451477050781 224.97776794433594 C 372.5826110839844 224.13922119140625 382.97174072265625 231.59027099609375 377.34942626953125 173.3773193359375 C 377.5018005371094 86.75398254394531 358.2377624511719 89.20360565185547 430.9661865234375 105.53314208984375 C 473.7241516113281 111.98471069335938 473.1318664550781 116.7133560180664 456.4692077636719 155.8041229248047" stroke-width="0.0" fill="rgb(251, 255, 255)" opacity="0.8753107" stroke="rgb(31, 66, 253)" stroke-opacity="0.3908971" stroke-linecap="round" stroke-linejoin="round"/>
    <path d="M 263.0591125488281 348.8043518066406 C 229.0644073486328 412.25970458984375 228.3578338623047 408.82098388671875 245.55758666992188 398.6640319824219 C 150.8192901611328 472.1794738769531 286.77459716796875 319.5929260253906 211.50155639648438 376.78619384765625 C 208.64744567871094 356.3563537597656 223.05715942382812 342.9721374511719 236.47317504882812 341.0236511230469 C 252.1516876220703 338.987548828125 259.9830322265625 346.5683288574219 263.0591125488281 348.8043518066406" stroke-width="0.0" fill="rgb(221, 0, 19)" opacity="0.98392946" stroke="rgb(167, 4, 173)" stroke-opacity="0.6049448" stroke-linecap="round" stroke-linejoin="round"/>
    <path d="M 215.931884765625 344.2234191894531 C 190.5882110595703 388.37591552734375 188.52655029296875 394.3574523925781 175.1119842529297 419.8021545410156 C 153.1678009033203 420.43707275390625 156.3129425048828 425.52899169921875 172.374755859375 392.57891845703125 C 182.35357666015625 375.4877014160156 181.55685424804688 364.5433654785156 198.59901428222656 377.3576354980469 C 171.0538330078125 332.0502014160156 171.72276306152344 354.0047302246094 215.931884765625 344.2234191894531" stroke-width="0.0" fill="rgb(218, 0, 22)" opacity="0.9552301" stroke="rgb(164, 53, 220)" stroke-opacity="0.34054628" stroke-linecap="round" stroke-linejoin="round"/>
    <path d="M 511.73089599609375 470.71038818359375 C 374.390625 393.3745422363281 543.2299194335938 313.6071472167969 356.9095764160156 342.6576232910156 C 353.6872253417969 403.2621154785156 272.3750915527344 355.6777648925781 190.86634826660156 273.6169128417969 C 364.20587158203125 299.1036071777344 422.9100341796875 227.92527770996094 392.9950866699219 284.7342529296875 C 547.0108642578125 287.8348388671875 551.3002319335938 245.1355438232422 511.73089599609375 470.71038818359375" stroke-width="0.0" fill="rgb(67, 91, 59)" opacity="0.5613346" stroke="rgb(252, 144, 132)" stroke-opacity="0.724188" stroke-linecap="round" stroke-linejoin="round"/>
    <path d="M 16.25322723388672 36.090152740478516 C 25.371400833129883 44.834922790527344 29.09607696533203 50.534637451171875 13.149087905883789 56.717166900634766 C -10.3992919921875 52.14702606201172 -9.010087013244629 44.38663864135742 -8.422669410705566 18.514528274536133 C -9.744073867797852 11.162198066711426 -9.763673782348633 9.018320083618164 3.8759262561798096 6.6399993896484375 C 20.597713470458984 11.730783462524414 18.357498168945312 15.158360481262207 16.25322723388672 36.090152740478516" stroke-width="0.0" fill="rgb(235, 243, 252)" opacity="1.0" stroke="rgb(202, 237, 20)" stroke-opacity="0.9856614" stroke-linecap="round" stroke-linejoin="round"/>
    <path d="M 160.9689483642578 311.8088684082031 C 135.5323944091797 353.546630859375 167.46926879882812 361.2000427246094 113.59486389160156 373.5702209472656 C 76.56378936767578 375.05755615234375 58.61514663696289 381.0370178222656 47.622589111328125 361.5380859375 C 87.82927703857422 404.98345947265625 52.60314178466797 278.7164001464844 121.53363037109375 311.177490234375 C 187.68646240234375 370.632080078125 87.34881591796875 363.04425048828125 160.9689483642578 311.8088684082031" stroke-width="0.0" fill="rgb(241, 71, 0)" opacity="0.7483742" stroke="rgb(87, 152, 20)" stroke-opacity="0.28985882" stroke-linecap="round" stroke-linejoin="round"/>
    <path d="M 221.25015258789062 221.94766235351562 C 212.35797119140625 214.22610473632812 227.35594177246094 181.7598419189453 217.6797332763672 207.52325439453125 C 216.9126739501953 164.08578491210938 215.51048278808594 157.38079833984375 216.86550903320312 191.4486846923828 C 221.4128875732422 210.3487091064453 208.24085998535156 97.07720184326172 217.8742218017578 118.71923065185547 C 220.84300231933594 203.10809326171875 224.70286560058594 225.85670471191406 221.25015258789062 221.94766235351562" stroke-width="0.0" fill="rgb(110, 141, 174)" opacity="1.0" stroke="rgb(14, 249, 45)" stroke-opacity="0.8244234" stroke-linecap="round" stroke-linejoin="round"/>
    <path d="M 364.9214782714844 445.2297668457031 C 291.07000732421875 446.0687255859375 284.3979797363281 444.914794921875 273.5777587890625 445.6070556640625 C 291.0833435058594 444.08447265625 284.5840759277344 445.4390869140625 260.306884765625 444.9809265136719 C 274.311767578125 430.67431640625 257.9823913574219 422.54364013671875 268.796142578125 426.6820068359375 C 347.23614501953125 420.37847900390625 354.5667724609375 416.28668212890625 364.9214782714844 445.2297668457031" stroke-width="0.0" fill="rgb(34, 64, 162)" opacity="1.0" stroke="rgb(124, 79, 5)" stroke-opacity="0.034773465" stroke-linecap="round" stroke-linejoin="round"/>
    <path d="M 268.2696838378906 427.736083984375 C 314.63226318359375 449.8531799316406 348.7742919921875 444.4428405761719 215.2541046142578 445.8806457519531 C 155.21084594726562 445.5169982910156 163.27206420898438 452.3048095703125 177.0387725830078 423.8761291503906 C 235.75637817382812 414.0887145996094 203.24610900878906 434.2454528808594 290.9117736816406 421.3570861816406 C 222.348388671875 421.48455810546875 234.03636169433594 423.1272277832031 268.2696838378906 427.736083984375" stroke-width="0.0" fill="rgb(15, 52, 153)" opacity="0.9469818" stroke="rgb(46, 74, 79)" stroke-opacity="0.3333518" stroke-linecap="round" stroke-linejoin="round"/>
    <path d="M 350.1665954589844 418.34185791015625 C 362.3612365722656 440.9544677734375 368.7549133300781 424.0441589355469 265.9068603515625 432.192626953125 C 270.91925048828125 417.6438903808594 263.4596252441406 437.5221862792969 175.55899047851562 425.3022155761719 C 251.76766967773438 417.17755126953125 296.625244140625 427.72967529296875 293.1612854003906 417.5205993652344 C 292.8472900390625 422.16241455078125 329.4402160644531 428.2727355957031 350.1665954589844 418.34185791015625" stroke-width="0.0" fill="rgb(1, 30, 138)" opacity="0.97567576" stroke="rgb(87, 17, 236)" stroke-opacity="0.7071696" stroke-linecap="round" stroke-linejoin="round"/>
    <path d="M 154.67596435546875 404.65362548828125 C 155.46786499023438 430.4178161621094 163.24400329589844 436.0992126464844 154.81649780273438 415.3302917480469 C 123.44447326660156 440.8696594238281 61.546142578125 453.71917724609375 97.28423309326172 374.68524169921875 C 107.93782043457031 367.9422912597656 107.77357482910156 409.5382385253906 124.26757049560547 362.72576904296875 C 152.10011291503906 433.45306396484375 126.23439025878906 364.5823974609375 154.67596435546875 404.65362548828125" stroke-width="0.0" fill="rgb(249, 0, 60)" opacity="0.7203851" stroke="rgb(124, 189, 41)" stroke-opacity="0.25497976" stroke-linecap="round" stroke-linejoin="round"/>
    <path d="M 128.73806762695312 447.7597351074219 C 197.7672882080078 457.20074462890625 195.17340087890625 455.7126159667969 111.9924545288086 458.64739990234375 C 52.546775817871094 458.4801330566406 36.629676818847656 459.1712646484375 34.9631462097168 458.1792907714844 C 64.0427474975586 439.70745849609375 63.10527801513672 439.9893493652344 98.8294448852539 440.88238525390625 C 90.27800750732422 448.8955993652344 73.70665740966797 453.479736328125 128.73806762695312 447.7597351074219" stroke-width="0.0" fill="rgb(240, 246, 255)" opacity="0.74190134" stroke="rgb(21, 134, 43)" stroke-opacity="0.035028435" stroke-linecap="round" stroke-linejoin="round"/>
    <path d="M 23.084300994873047 272.33099365234375 C 24.910165786743164 294.0826721191406 25.9302978515625 282.067138671875 12.475563049316406 284.75250244140625 C -9.684313774108887 285.38934326171875 5.6827073097229 302.7797546386719 -6.7534050941467285 283.0148010253906 C -5.763882160186768 257.7072448730469 -3.2714967727661133 258.3771057128906 12.41118049621582 259.4576416015625 C 26.20987319946289 249.9842529296875 22.310916900634766 258.8561096191406 23.084300994873047 272.33099365234375" stroke-width="0.0" fill="rgb(255, 253, 239)" opacity="0.8549251" stroke="rgb(228, 188, 214)" stroke-opacity="0.8008674" stroke-linecap="round" stroke-linejoin="round"/>
    <path d="M 23.301271438598633 256.4429626464844 C 23.626375198364258 266.60723876953125 26.177507400512695 296.26300048828125 24.097496032714844 291.5180969238281 C 15.793081283569336 263.915283203125 -4.695997714996338 277.88916015625 -9.812389373779297 229.97291564941406 C 5.321521282196045 207.10797119140625 20.06475067138672 206.6251983642578 13.102801322937012 248.7797088623047 C 19.499675750732422 261.62554931640625 24.58974266052246 252.55087280273438 23.301271438598633 256.4429626464844" stroke-width="0.0" fill="rgb(232, 234, 236)" opacity="0.94294065" stroke="rgb(226, 180, 101)" stroke-opacity="0.09418481" stroke-linecap="round" stroke-linejoin="round"/>
    <path d="M 152.10325622558594 442.6806640625 C 110.14727783203125 418.6663818359375 141.68618774414062 452.4219970703125 117.3596420288086 450.1024475097656 C 131.28054809570312 408.9678039550781 74.51826477050781 435.16925048828125 -31.093820571899414 497.71435546875 C -52.53880310058594 247.7596435546875 79.18293762207031 259.24737548828125 81.98624420166016 365.1284484863281 C 71.24198913574219 487.93060302734375 150.3678741455078 399.6985168457031 152.10325622558594 442.6806640625" stroke-width="0.0" fill="rgb(74, 99, 39)" opacity="0.5834483" stroke="rgb(213, 184, 35)" stroke-opacity="0.31632715" stroke-linecap="round" stroke-linejoin="round"/>
    <path d="M 51.5289192199707 4.74463415145874 C 40.519222259521484 38.285118103027344 27.693161010742188 33.032535552978516 4.591363906860352 28.42367172241211 C -4.840921401977539 24.683979034423828 -10.21563720703125 21.477970123291016 -8.716331481933594 13.776599884033203 C -7.254298210144043 -3.968411445617676 -6.325819969177246 -6.439413547515869 1.0258691310882568 -10.387958526611328 C 23.880456924438477 -11.214427947998047 31.235422134399414 -12.834203720092773 51.5289192199707 4.74463415145874" stroke-width="0.0" fill="rgb(249, 250, 254)" opacity="1.0" stroke="rgb(147, 5, 78)" stroke-opacity="0.7620718" stroke-linecap="round" stroke-linejoin="round"/>
    <path d="M 463.10986328125 326.7181396484375 C 476.0519104003906 359.10540771484375 440.95941162109375 367.38690185546875 405.7257995605469 368.79583740234375 C 371.21734619140625 368.52392578125 376.5025329589844 373.7122497558594 347.19244384765625 316.71856689453125 C 421.14990234375 356.7863464355469 396.3144226074219 342.60736083984375 410.5469665527344 304.1120910644531 C 431.1625671386719 347.9074401855469 456.4984130859375 367.8388977050781 463.10986328125 326.7181396484375" stroke-width="0.0" fill="rgb(255, 81, 8)" opacity="0.6837975" stroke="rgb(228, 63, 123)" stroke-opacity="0.04659683" stroke-linecap="round" stroke-linejoin="round"/>
    <path d="M 258.7358093261719 166.53955078125 C 256.05401611328125 159.9229278564453 255.83082580566406 158.98602294921875 258.19573974609375 165.3580780029297 C 253.39862060546875 161.1045684814453 245.30662536621094 154.91441345214844 247.58692932128906 165.31593322753906 C 249.26544189453125 77.13819885253906 244.71592712402344 94.98810577392578 255.84629821777344 87.24979400634766 C 258.0116271972656 125.37564086914062 259.66033935546875 146.54457092285156 258.7358093261719 166.53955078125" stroke-width="0.0" fill="rgb(255, 255, 242)" opacity="0.4013433" stroke="rgb(122, 183, 153)" stroke-opacity="0.042420857" stroke-linecap="round" stroke-linejoin="round"/>
    <path d="M 260.3894348144531 171.5668487548828 C 259.61114501953125 168.86302185058594 259.42950439453125 169.56491088867188 250.66400146484375 171.85960388183594 C 248.34002685546875 169.51284790039062 250.1546630859375 163.0006866455078 250.0490264892578 162.07000732421875 C 249.07313537597656 150.90513610839844 247.90975952148438 137.7729949951172 248.4321746826172 122.0983657836914 C 255.56332397460938 121.1109848022461 259.20184326171875 132.9857635498047 260.3894348144531 171.5668487548828" stroke-width="0.0" fill="rgb(216, 211, 208)" opacity="0.3814136" stroke="rgb(53, 192, 21)" stroke-opacity="0.77161944" stroke-linecap="round" stroke-linejoin="round"/>
    <path d="M 135.51589965820312 435.3193359375 C 109.51962280273438 484.1454162597656 118.8338623046875 387.7215270996094 110.39427947998047 448.426513671875 C 67.41106414794922 455.07110595703125 112.24073028564453 436.15362548828125 77.29351043701172 418.03173828125 C 66.72325897216797 412.8560791015625 76.79847717285156 377.37811279296875 91.50733947753906 398.8711853027344 C 60.90961837768555 461.022705078125 181.1683349609375 406.0891418457031 135.51589965820312 435.3193359375" stroke-width="0.0" fill="rgb(255, 102, 26)" opacity="0.859839" stroke="rgb(64, 242, 53)" stroke-opacity="0.58539826" stroke-linecap="round" stroke-linejoin="round"/>
    <path d="M 287.1761169433594 149.968994140625 C 281.9316711425781 214.1729278564453 290.65289306640625 191.1448211669922 285.7817687988281 209.01492309570312 C 257.03387451171875 209.10841369628906 267.7785339355469 218.55801391601562 268.57843017578125 184.3226318359375 C 269.9065856933594 172.7475128173828 265.4081726074219 169.87399291992188 278.05426025390625 165.11131286621094 C 292.18121337890625 181.098388671875 288.6361999511719 184.5290985107422 287.1761169433594 149.968994140625" stroke-width="0.0" fill="rgb(227, 221, 192)" opacity="0.5553955" stroke="rgb(134, 179, 17)" stroke-opacity="0.1138637" stroke-linecap="round" stroke-linejoin="round"/>
    <path d="M 235.51783752441406 220.3282928466797 C 228.68934631347656 220.85818481445312 233.63143920898438 230.85946655273438 230.18856811523438 187.575927734375 C 225.95216369628906 218.33453369140625 224.85166931152344 214.01486206054688 227.9617462158203 192.1710662841797 C 228.81402587890625 221.59068298339844 222.24989318847656 207.67141723632812 228.4907684326172 195.24612426757812 C 234.48550415039062 181.49957275390625 235.84158325195312 185.79551696777344 235.51783752441406 220.3282928466797" stroke-width="0.0" fill="rgb(103, 136, 166)" opacity="0.96499944" stroke="rgb(182, 54, 0)" stroke-opacity="0.5915251" stroke-linecap="round" stroke-linejoin="round"/>
    <path d="M 260.2828674316406 168.95773315429688 C 261.6848449707031 200.22682189941406 262.4450988769531 212.40647888183594 261.49041748046875 210.9736785888672 C 244.38563537597656 208.87109375 251.74659729003906 221.4864959716797 248.94186401367188 175.85879516601562 C 249.11192321777344 168.16085815429688 249.88204956054688 162.65057373046875 257.7872314453125 163.5011444091797 C 259.22320556640625 169.05587768554688 258.2982177734375 170.65902709960938 260.2828674316406 168.95773315429688" stroke-width="0.0" fill="rgb(232, 230, 214)" opacity="0.5367436" stroke="rgb(68, 53, 164)" stroke-opacity="0.62375474" stroke-linecap="round" stroke-linejoin="round"/>
    <path d="M 225.86117553710938 134.3995361328125 C 229.03945922851562 103.64779663085938 226.91140747070312 173.67324829101562 224.8031005859375 173.1659698486328 C 217.6181640625 153.55264282226562 220.79150390625 125.29412078857422 220.1009979248047 139.3995819091797 C 220.33351135253906 126.76078033447266 216.38955688476562 111.27613067626953 220.56729125976562 62.24923324584961 C 218.29087829589844 108.43348693847656 229.15834045410156 91.18279266357422 225.86117553710938 134.3995361328125" stroke-width="0.0" fill="rgb(196, 193, 186)" opacity="0.77808934" stroke="rgb(231, 184, 214)" stroke-opacity="0.34909877" stroke-linecap="round" stroke-linejoin="round"/>
    <path d="M 300.29449462890625 125.05667877197266 C 299.33612060546875 137.34872436523438 300.82769775390625 134.6762237548828 294.5106201171875 143.43406677246094 C 294.6364440917969 146.7269744873047 293.3638000488281 139.42689514160156 293.0901184082031 136.7427520751953 C 293.1226501464844 131.9759063720703 286.733154296875 124.5804443359375 297.98126220703125 120.70757293701172 C 304.2798767089844 123.42627716064453 303.2641296386719 125.02107238769531 300.29449462890625 125.05667877197266" stroke-width="0.0" fill="rgb(155, 158, 150)" opacity="0.73668736" stroke="rgb(13, 168, 88)" stroke-opacity="0.22378653" stroke-linecap="round" stroke-linejoin="round"/>
    <path d="M 285.7435302734375 176.6763916015625 C 273.1148376464844 176.51365661621094 273.18963623046875 178.04710388183594 274.3208923339844 182.8821258544922 C 266.6601257324219 183.88406372070312 266.61505126953125 179.19357299804688 267.8726501464844 176.0782470703125 C 266.936279296875 169.805419921875 269.39801025390625 166.30198669433594 288.1625061035156 140.83840942382812 C 283.5800476074219 125.11346435546875 285.0121154785156 139.7914581298828 285.7435302734375 176.6763916015625" stroke-width="0.0" fill="rgb(171, 173, 181)" opacity="0.99778706" stroke="rgb(160, 150, 243)" stroke-opacity="0.60936856" stroke-linecap="round" stroke-linejoin="round"/>
    <path d="M 266.242919921875 208.59397888183594 C 265.0872802734375 122.55216979980469 299.7471618652344 195.41354370117188 262.64093017578125 203.76112365722656 C 258.8346252441406 129.59886169433594 258.4720458984375 119.21444702148438 258.9698791503906 118.6469955444336 C 261.1412048339844 156.40386962890625 254.60707092285156 100.58931732177734 261.9281921386719 115.23560333251953 C 260.80352783203125 93.9079360961914 264.4151306152344 129.43630981445312 266.242919921875 208.59397888183594" stroke-width="0.0" fill="rgb(84, 122, 172)" opacity="1.0" stroke="rgb(67, 180, 1)" stroke-opacity="0.15995747" stroke-linecap="round" stroke-linejoin="round"/>
    <path d="M 299.018310546875 131.77651977539062 C 300.1455993652344 134.65591430664062 300.5438537597656 137.39340209960938 294.1773681640625 133.5291748046875 C 292.95855712890625 134.8662567138672 291.4628601074219 137.15115356445312 289.9482727050781 137.12095642089844 C 290.3159484863281 106.33953857421875 285.7543029785156 103.06187438964844 294.5597229003906 107.5890121459961 C 301.7200622558594 119.84990692138672 297.79443359375 125.66630554199219 299.018310546875 131.77651977539062" stroke-width="0.0" fill="rgb(213, 208, 201)" opacity="0.3624861" stroke="rgb(84, 88, 223)" stroke-opacity="0.17178299" stroke-linecap="round" stroke-linejoin="round"/>
    <path d="M 243.6492156982422 190.18975830078125 C 243.36033630371094 232.63975524902344 249.015625 229.3352508544922 237.09315490722656 229.8778533935547 C 237.34170532226562 215.1833953857422 234.61697387695312 195.88751220703125 236.35446166992188 182.6473846435547 C 237.00125122070312 189.47341918945312 234.88365173339844 176.12269592285156 235.29164123535156 162.1892852783203 C 246.5288848876953 168.1803436279297 242.37301635742188 180.65127563476562 243.6492156982422 190.18975830078125" stroke-width="0.0" fill="rgb(255, 255, 238)" opacity="0.38985962" stroke="rgb(18, 190, 70)" stroke-opacity="0.53791106" stroke-linecap="round" stroke-linejoin="round"/>
    <path d="M 256.7849426269531 179.2617645263672 C 257.839111328125 170.79042053222656 261.91656494140625 168.03378295898438 258.6054382324219 210.13107299804688 C 242.1548614501953 156.7107391357422 253.9563446044922 162.91644287109375 244.23280334472656 227.21548461914062 C 252.54566955566406 153.71875 245.60939025878906 157.2067108154297 252.67955017089844 151.9790802001953 C 260.8089294433594 161.6952667236328 260.8384704589844 166.8172607421875 256.7849426269531 179.2617645263672" stroke-width="0.0" fill="rgb(203, 202, 199)" opacity="1.0" stroke="rgb(211, 200, 140)" stroke-opacity="0.631539" stroke-linecap="round" stroke-linejoin="round"/>
    <path d="M 304.0342712402344 135.20120239257812 C 311.0120544433594 124.4526596069336 313.03448486328125 134.60438537597656 291.58404541015625 137.32777404785156 C 290.4494323730469 127.49376678466797 289.97686767578125 117.12600708007812 290.0127258300781 112.33710479736328 C 273.91510009765625 110.5041732788086 290.768310546875 111.53101348876953 288.9562683105469 81.79365539550781 C 306.13818359375 47.864532470703125 303.5134582519531 86.4719467163086 304.0342712402344 135.20120239257812" stroke-width="0.0" fill="rgb(255, 255, 248)" opacity="0.31668156" stroke="rgb(111, 221, 53)" stroke-opacity="0.39794284" stroke-linecap="round" stroke-linejoin="round"/>
    <path d="M 186.92381286621094 217.14166259765625 C 182.03822326660156 225.03341674804688 176.14752197265625 216.14585876464844 195.91152954101562 223.311279296875 C 176.9046630859375 220.54953002929688 178.76119995117188 206.233154296875 178.67013549804688 230.60545349121094 C 181.4375762939453 206.4091796875 177.8516387939453 184.12637329101562 174.75064086914062 120.56098937988281 C 185.70565795898438 127.66224670410156 182.58726501464844 193.4505615234375 186.92381286621094 217.14166259765625" stroke-width="0.0" fill="rgb(255, 255, 250)" opacity="0.4168616" stroke="rgb(187, 230, 221)" stroke-opacity="0.25853866" stroke-linecap="round" stroke-linejoin="round"/>
    <path d="M 230.33096313476562 199.40126037597656 C 228.5445556640625 246.6814727783203 233.54238891601562 255.06809997558594 222.96820068359375 250.642333984375 C 223.59439086914062 200.15028381347656 222.3815155029297 199.5831298828125 222.00242614746094 201.23573303222656 C 224.97166442871094 197.12460327148438 220.96324157714844 184.13165283203125 222.43370056152344 170.8068084716797 C 232.5756072998047 174.7504425048828 227.38507080078125 180.55799865722656 230.33096313476562 199.40126037597656" stroke-width="0.0" fill="rgb(255, 255, 235)" opacity="0.38558072" stroke="rgb(30, 102, 60)" stroke-opacity="0.5989949" stroke-linecap="round" stroke-linejoin="round"/>
    <path d="M 302.6368103027344 130.44830322265625 C 305.9103088378906 136.98487854003906 305.4052429199219 137.83126831054688 298.0413818359375 135.8824462890625 C 288.95733642578125 128.9045867919922 291.88702392578125 123.32759857177734 296.5126037597656 121.77801513671875 C 294.75433349609375 118.22056579589844 298.3258972167969 112.1172866821289 295.47320556640625 108.47784423828125 C 307.1651306152344 106.8835220336914 301.34326171875 108.2834701538086 302.6368103027344 130.44830322265625" stroke-width="0.0" fill="rgb(202, 199, 191)" opacity="0.7516269" stroke="rgb(75, 198, 119)" stroke-opacity="0.9519937" stroke-linecap="round" stroke-linejoin="round"/>
    <path d="M 281.9419250488281 111.20938110351562 C 276.8047180175781 121.83930206298828 275.25018310546875 123.86544799804688 269.50347900390625 127.7551040649414 C 269.353515625 111.8891372680664 270.4105224609375 108.4660873413086 253.3274688720703 117.88533782958984 C 253.7165069580078 101.14603424072266 256.79443359375 99.1158447265625 271.2565612792969 102.15484619140625 C 287.8681335449219 104.3450698852539 285.01153564453125 104.8913345336914 281.9419250488281 111.20938110351562" stroke-width="0.0" fill="rgb(197, 193, 188)" opacity="0.78672045" stroke="rgb(168, 241, 115)" stroke-opacity="0.8565368" stroke-linecap="round" stroke-linejoin="round"/>
    <path d="M 305.388916015625 91.5890121459961 C 304.6414794921875 148.20755004882812 308.08221435546875 178.33798217773438 308.9288024902344 209.7669219970703 C 283.4273376464844 215.87005615234375 298.25836181640625 215.19078063964844 288.900146484375 134.69842529296875 C 289.7781677246094 143.673095703125 292.133056640625 130.20973205566406 296.8160705566406 134.46177673339844 C 311.9520263671875 142.73056030273438 301.2309875488281 124.88251495361328 305.388916015625 91.5890121459961" stroke-width="0.0" fill="rgb(197, 193, 187)" opacity="1.0" stroke="rgb(128, 195, 196)" stroke-opacity="0.63209933" stroke-linecap="round" stroke-linejoin="round"/>
    <path d="M 225.67831420898438 153.66036987304688 C 228.13485717773438 149.71163940429688 231.72816467285156 171.7709503173828 221.93988037109375 176.2913818359375 C 219.01519775390625 156.36331176757812 219.57777404785156 134.00039672851562 220.6447296142578 142.6461181640625 C 217.43528747558594 139.82046508789062 220.71658325195312 117.4619369506836 214.56324768066406 109.19287872314453 C 226.94004821777344 101.86119842529297 222.4204559326172 118.83602142333984 225.67831420898438 153.66036987304688" stroke-width="0.0" fill="rgb(231, 232, 231)" opacity="0.3526807" stroke="rgb(148, 166, 235)" stroke-opacity="0.30970454" stroke-linecap="round" stroke-linejoin="round"/>
    <path d="M 240.89552307128906 96.07545471191406 C 243.26959228515625 174.36502075195312 236.48797607421875 149.2717742919922 253.45101928710938 150.56472778320312 C 222.6640167236328 157.09559631347656 236.3668670654297 151.1759033203125 231.56787109375 128.38934326171875 C 232.9163360595703 93.85852813720703 229.62139892578125 84.00191497802734 239.5541229248047 104.7463607788086 C 240.4044189453125 148.0373077392578 239.3639678955078 169.1732635498047 240.89552307128906 96.07545471191406" stroke-width="0.0" fill="rgb(198, 198, 192)" opacity="0.8751381" stroke="rgb(85, 201, 4)" stroke-opacity="0.1980248" stroke-linecap="round" stroke-linejoin="round"/>
    <path d="M 283.8603515625 132.9234619140625 C 285.86834716796875 153.12875366210938 283.896728515625 155.63980102539062 281.31719970703125 154.09474182128906 C 265.3218688964844 159.7826690673828 266.8035888671875 153.87557983398438 279.3970642089844 148.97479248046875 C 277.5227966308594 138.55908203125 276.6589660644531 133.3670196533203 276.8207092285156 128.9278564453125 C 284.10162353515625 135.7961883544922 282.6575622558594 134.19509887695312 283.8603515625 132.9234619140625" stroke-width="0.0" fill="rgb(187, 194, 236)" opacity="1.0" stroke="rgb(18, 46, 160)" stroke-opacity="0.44695896" stroke-linecap="round" stroke-linejoin="round"/>
    <path d="M 289.6937561035156 112.14747619628906 C 282.1992492675781 110.8052978515625 276.0699462890625 110.94345092773438 272.0169982910156 112.13568878173828 C 270.3609619140625 110.17793273925781 271.5497741699219 109.58464813232422 249.9703369140625 118.70779418945312 C 264.632568359375 99.98848724365234 274.2271728515625 95.65238189697266 270.3437805175781 101.82589721679688 C 291.0338134765625 103.20319366455078 285.42730712890625 98.06141662597656 289.6937561035156 112.14747619628906" stroke-width="0.0" fill="rgb(247, 245, 235)" opacity="0.22534472" stroke="rgb(11, 253, 81)" stroke-opacity="0.86006427" stroke-linecap="round" stroke-linejoin="round"/>
    <path d="M 282.3623352050781 165.64987182617188 C 281.1575622558594 176.34524536132812 280.4928894042969 178.38783264160156 269.97515869140625 186.31434631347656 C 265.4780578613281 194.5012969970703 267.176513671875 194.724365234375 266.0824890136719 175.80380249023438 C 264.7759094238281 147.7351531982422 264.2965393066406 137.27410888671875 265.9544372558594 139.22509765625 C 287.3927307128906 147.6209259033203 286.7418518066406 153.82254028320312 282.3623352050781 165.64987182617188" stroke-width="0.0" fill="rgb(234, 239, 247)" opacity="0.589932" stroke="rgb(211, 162, 188)" stroke-opacity="0.6791553" stroke-linecap="round" stroke-linejoin="round"/>
    <path d="M 284.181884765625 147.3651885986328 C 288.644775390625 162.07540893554688 283.58111572265625 175.04359436035156 276.7027893066406 170.88299560546875 C 270.8945617675781 163.6373291015625 274.92041015625 156.75323486328125 271.803466796875 151.19631958007812 C 264.7660217285156 145.3287811279297 264.6372375488281 140.67852783203125 274.72088623046875 132.6051483154297 C 285.9113464355469 137.60264587402344 288.52923583984375 137.97454833984375 284.181884765625 147.3651885986328" stroke-width="0.0" fill="rgb(188, 185, 175)" opacity="0.8058327" stroke="rgb(61, 74, 70)" stroke-opacity="0.050320268" stroke-linecap="round" stroke-linejoin="round"/>
    <path d="M 299.1959228515625 115.65336608886719 C 278.2940368652344 106.12293243408203 295.9695739746094 117.93751525878906 291.6719055175781 203.1665802001953 C 269.3376159667969 193.6006622314453 283.4027404785156 136.23251342773438 268.8173828125 113.8006591796875 C 288.1018371582031 109.91941833496094 300.8566589355469 114.98069763183594 298.976318359375 116.44969177246094 C 302.0872802734375 103.05479431152344 302.4123840332031 100.57467651367188 299.1959228515625 115.65336608886719" stroke-width="0.0" fill="rgb(30, 90, 170)" opacity="0.6962948" stroke="rgb(244, 231, 193)" stroke-opacity="0.7434501" stroke-linecap="round" stroke-linejoin="round"/>
    <path d="M 283.48046875 126.85723114013672 C 284.3831481933594 132.52940368652344 283.9648742675781 159.47727966308594 265.9830017089844 159.7152862548828 C 267.0262756347656 151.95748901367188 264.7615966796875 140.4967498779297 263.6343994140625 125.20271301269531 C 266.23748779296875 106.3674087524414 255.06394958496094 113.61304473876953 282.75140380859375 110.5577163696289 C 282.4779968261719 103.26254272460938 282.9504699707031 113.18999481201172 283.48046875 126.85723114013672" stroke-width="0.0" fill="rgb(208, 204, 196)" opacity="0.9684392" stroke="rgb(53, 218, 232)" stroke-opacity="0.30969724" stroke-linecap="round" stroke-linejoin="round"/>
    <path d="M 242.328369140625 168.7901153564453 C 233.44833374023438 168.19662475585938 248.85546875 186.89036560058594 234.70132446289062 189.25653076171875 C 234.63929748535156 169.96434020996094 234.57957458496094 144.9788055419922 233.72445678710938 188.54336547851562 C 233.2587890625 159.48133850097656 233.97605895996094 142.72479248046875 234.84927368164062 124.39530944824219 C 242.3657989501953 167.08282470703125 242.9049072265625 142.59486389160156 242.328369140625 168.7901153564453" stroke-width="0.0" fill="rgb(205, 203, 198)" opacity="0.81728804" stroke="rgb(248, 62, 195)" stroke-opacity="0.38028064" stroke-linecap="round" stroke-linejoin="round"/>
    <path d="M 230.4060821533203 176.3878936767578 C 223.95123291015625 175.24945068359375 228.0041961669922 181.9663543701172 226.7061004638672 194.9196014404297 C 229.1139373779297 188.15623474121094 229.2415008544922 217.59410095214844 222.29452514648438 200.2918701171875 C 220.4510955810547 156.0012664794922 217.90440368652344 160.3126220703125 226.60699462890625 163.9330596923828 C 231.1931915283203 172.87437438964844 230.13699340820312 206.3583221435547 230.4060821533203 176.3878936767578" stroke-width="0.0" fill="rgb(208, 208, 202)" opacity="0.6492914" stroke="rgb(184, 158, 39)" stroke-opacity="0.80197775" stroke-linecap="round" stroke-linejoin="round"/>
    <path d="M 475.2359619140625 337.7012634277344 C 437.4792785644531 332.07257080078125 434.3570861816406 293.37738037109375 417.9509582519531 337.49554443359375 C 369.3922119140625 295.4808349609375 402.19384765625 357.8193054199219 367.0341796875 334.54766845703125 C 388.8936767578125 297.4551696777344 398.69268798828125 295.6287536621094 441.12628173828125 298.3211364746094 C 400.1047058105469 291.68768310546875 501.3799133300781 307.067138671875 475.2359619140625 337.7012634277344" stroke-width="0.0" fill="rgb(238, 80, 14)" opacity="0.98839164" stroke="rgb(163, 203, 130)" stroke-opacity="0.7504934" stroke-linecap="round" stroke-linejoin="round"/>
    <path d="M 278.9046936035156 120.82151794433594 C 277.9624328613281 123.29462432861328 277.7073059082031 130.89720153808594 268.2336120605469 146.66729736328125 C 262.76165771484375 152.11537170410156 265.13568115234375 140.12977600097656 262.98175048828125 114.84479522705078 C 262.9111633300781 106.84903717041016 265.47283935546875 112.28024291992188 283.6455993652344 104.10188293457031 C 288.61810302734375 103.32202911376953 279.0776062011719 113.53052520751953 278.9046936035156 120.82151794433594" stroke-width="0.0" fill="rgb(204, 203, 204)" opacity="0.42309996" stroke="rgb(53, 251, 252)" stroke-opacity="0.39264244" stroke-linecap="round" stroke-linejoin="round"/>
    <path d="M 286.12713623046875 184.84820556640625 C 287.7893371582031 211.77101135253906 287.82635498046875 198.86793518066406 268.42156982421875 204.01953125 C 265.7876281738281 202.7698211669922 267.8121337890625 185.88848876953125 267.0251770019531 152.3231658935547 C 278.65185546875 171.2164764404297 270.7391357421875 170.014404296875 281.9327087402344 161.56112670898438 C 286.5430603027344 169.64242553710938 285.4600524902344 174.91146850585938 286.12713623046875 184.84820556640625" stroke-width="0.0" fill="rgb(208, 204, 197)" opacity="0.99505806" stroke="rgb(88, 117, 92)" stroke-opacity="0.26454076" stroke-linecap="round" stroke-linejoin="round"/>
    <path d="M 87.57905578613281 356.0389709472656 C 79.94257354736328 379.8133239746094 88.80357360839844 375.235107421875 81.10216522216797 380.1192932128906 C 92.0748062133789 369.4668273925781 67.39031982421875 370.4635009765625 64.92097473144531 359.7196960449219 C 61.91208267211914 354.244140625 50.56964874267578 331.5182189941406 97.76029205322266 337.75677490234375 C 108.62892150878906 368.011962890625 68.66751861572266 340.76019287109375 87.57905578613281 356.0389709472656" stroke-width="0.0" fill="rgb(140, 123, 161)" opacity="1.0" stroke="rgb(174, 92, 50)" stroke-opacity="0.586909" stroke-linecap="round" stroke-linejoin="round"/>
    <path d="M 218.42977905273438 108.82765197753906 C 217.4326171875 86.94100189208984 224.13670349121094 110.66024017333984 212.03488159179688 109.20133972167969 C 210.0463409423828 120.44204711914062 212.791748046875 68.52510833740234 210.48191833496094 105.00108337402344 C 210.94496154785156 82.53787994384766 208.2149200439453 93.31970977783203 218.32533264160156 85.18816375732422 C 217.33474731445312 77.81299591064453 217.17979431152344 101.13188934326172 218.42977905273438 108.82765197753906" stroke-width="0.0" fill="rgb(83, 138, 202)" opacity="1.0" stroke="rgb(113, 93, 94)" stroke-opacity="0.6900816" stroke-linecap="round" stroke-linejoin="round"/>
    <path d="M 351.1341857910156 364.9895935058594 C 308.1000671386719 358.2756652832031 306.4442443847656 350.6007080078125 301.755615234375 352.38238525390625 C 266.61431884765625 353.2409973144531 261.799560546875 350.1631774902344 273.5738525390625 315.1805725097656 C 255.67408752441406 317.8089294433594 247.95263671875 326.6854248046875 280.03314208984375 322.6458740234375 C 348.223876953125 305.9562072753906 367.2543029785156 322.8992004394531 351.1341857910156 364.9895935058594" stroke-width="0.0" fill="rgb(255, 247, 81)" opacity="0.41973048" stroke="rgb(16, 49, 75)" stroke-opacity="0.69608885" stroke-linecap="round" stroke-linejoin="round"/>
    <path d="M 328.55975341796875 93.23645782470703 C 327.3560485839844 94.66962432861328 331.6926574707031 91.82217407226562 326.7213134765625 93.56525421142578 C 317.20709228515625 90.92438507080078 320.36151123046875 94.43536376953125 318.233154296875 66.56270599365234 C 319.2967834472656 110.36346435546875 320.3238525390625 90.02245330810547 319.2812805175781 70.63751220703125 C 329.4445495605469 73.0143814086914 328.44512939453125 69.55514526367188 328.55975341796875 93.23645782470703" stroke-width="0.0" fill="rgb(104, 231, 255)" opacity="1.0" stroke="rgb(203, 190, 230)" stroke-opacity="0.94274634" stroke-linecap="round" stroke-linejoin="round"/>
    <path d="M 443.3507080078125 270.21295166015625 C 436.7410583496094 279.6410217285156 461.2544250488281 265.6138916015625 452.11566162109375 297.8592224121094 C 419.3043212890625 309.57916259765625 450.0873718261719 296.1640930175781 450.42974853515625 277.5739440917969 C 434.9862976074219 268.59881591796875 442.4874267578125 255.4392852783203 440.1487731933594 251.61270141601562 C 441.0653991699219 253.011962890625 443.0277099609375 265.0042724609375 443.3507080078125 270.21295166015625" stroke-width="0.0" fill="rgb(218, 221, 231)" opacity="0.9807718" stroke="rgb(115, 4, 74)" stroke-opacity="0.57548684" stroke-linecap="round" stroke-linejoin="round"/>
    <path d="M 308.8086853027344 80.14015197753906 C 311.8451843261719 81.88481903076172 312.13311767578125 88.11846923828125 309.9563293457031 88.276611328125 C 294.7530517578125 91.18851470947266 303.5352783203125 85.30021667480469 305.53216552734375 80.15579223632812 C 302.71124267578125 77.51838684082031 302.6602783203125 64.43179321289062 308.96868896484375 67.81576538085938 C 309.0912780761719 75.25601959228516 308.9908752441406 80.69674682617188 308.8086853027344 80.14015197753906" stroke-width="0.0" fill="rgb(86, 147, 197)" opacity="0.59075135" stroke="rgb(186, 238, 55)" stroke-opacity="0.8307402" stroke-linecap="round" stroke-linejoin="round"/>
    <path d="M 274.0199279785156 376.1555480957031 C 274.4757080078125 372.25390625 272.165283203125 383.6600341796875 266.5572509765625 390.7816467285156 C 245.07456970214844 385.4248352050781 249.625732421875 385.1281433105469 256.0928955078125 372.735595703125 C 258.45184326171875 367.862548828125 262.3447265625 361.038330078125 266.64697265625 352.9072570800781 C 271.4755859375 358.5732727050781 272.8807373046875 365.5027160644531 274.0199279785156 376.1555480957031" stroke-width="0.0" fill="rgb(191, 0, 10)" opacity="0.91705245" stroke="rgb(246, 197, 204)" stroke-opacity="0.5232933" stroke-linecap="round" stroke-linejoin="round"/>
    <path d="M 334.7200927734375 361.2724914550781 C 339.6670227050781 375.18603515625 347.8332824707031 382.09600830078125 331.5028076171875 385.460693359375 C 332.9710998535156 370.4656677246094 325.4786682128906 358.76348876953125 309.67974853515625 359.7461242675781 C 284.4168701171875 365.4874572753906 288.66064453125 350.6090393066406 334.9016418457031 355.8436279296875 C 332.4441833496094 361.3155822753906 333.29498291015625 362.5622253417969 334.7200927734375 361.2724914550781" stroke-width="0.0" fill="rgb(189, 179, 178)" opacity="1.0" stroke="rgb(234, 37, 138)" stroke-opacity="0.6251342" stroke-linecap="round" stroke-linejoin="round"/>
    <path d="M 462.9880676269531 400.9522705078125 C 463.05682373046875 412.77252197265625 458.81146240234375 411.0465087890625 454.3965148925781 415.27947998046875 C 446.4674377441406 416.1315612792969 448.82232666015625 411.5428161621094 446.4107971191406 406.3429870605469 C 449.0584411621094 402.3878173828125 438.2267150878906 393.6124267578125 450.1695251464844 384.0611877441406 C 458.43951416015625 396.40655517578125 462.1642150878906 397.4833984375 462.9880676269531 400.9522705078125" stroke-width="0.0" fill="rgb(222, 81, 42)" opacity="1.0" stroke="rgb(33, 252, 25)" stroke-opacity="0.16970268" stroke-linecap="round" stroke-linejoin="round"/>
    <path d="M 397.5761413574219 397.10076904296875 C 396.1473388671875 402.6348876953125 392.1779479980469 408.2648010253906 392.50238037109375 414.2450256347656 C 382.8115234375 411.3711853027344 377.3792724609375 408.5970764160156 380.49920654296875 397.8001403808594 C 383.4015808105469 392.90667724609375 386.5921325683594 388.3080139160156 386.4150085449219 385.4377136230469 C 401.3489685058594 393.8161315917969 394.0223693847656 387.6488342285156 397.5761413574219 397.10076904296875" stroke-width="0.0" fill="rgb(255, 102, 0)" opacity="0.6382747" stroke="rgb(155, 63, 249)" stroke-opacity="0.29974735" stroke-linecap="round" stroke-linejoin="round"/>
    <path d="M 448.59564208984375 438.82110595703125 C 429.5373840332031 430.5210876464844 427.7323303222656 454.2193908691406 416.32220458984375 447.1775817871094 C 419.17938232421875 455.587646484375 412.5113830566406 434.4598693847656 394.190673828125 437.6507263183594 C 387.08447265625 424.5391540527344 412.4967346191406 443.48516845703125 421.3268127441406 429.1851501464844 C 411.9156188964844 443.8706359863281 476.2332763671875 426.8657531738281 448.59564208984375 438.82110595703125" stroke-width="0.0" fill="rgb(214, 150, 90)" opacity="1.0" stroke="rgb(239, 123, 65)" stroke-opacity="0.8442678" stroke-linecap="round" stroke-linejoin="round"/>
    <path d="M 323.9647521972656 199.64080810546875 C 322.0511169433594 199.72264099121094 343.5967102050781 191.7163848876953 324.84381103515625 199.55789184570312 C 317.7145080566406 203.52740478515625 317.0162353515625 199.0609893798828 316.1726989746094 199.7399444580078 C 313.9788513183594 189.54595947265625 313.2537536621094 125.07763671875 311.6155700683594 136.48658752441406 C 320.1535339355469 121.13241577148438 325.8146667480469 136.35362243652344 323.9647521972656 199.64080810546875" stroke-width="0.0" fill="rgb(231, 225, 213)" opacity="0.52682775" stroke="rgb(73, 50, 97)" stroke-opacity="0.6706339" stroke-linecap="round" stroke-linejoin="round"/>
    <path d="M 214.0221405029297 162.76458740234375 C 211.93519592285156 164.3888702392578 215.8939971923828 184.7881317138672 209.9041748046875 181.11676025390625 C 208.4967041015625 168.1763916015625 207.79025268554688 160.24246215820312 207.7570343017578 177.11363220214844 C 207.23403930664062 121.68031311035156 201.3000946044922 114.32839965820312 210.7261505126953 116.2968521118164 C 215.60655212402344 131.0814666748047 212.89727783203125 154.4114532470703 214.0221405029297 162.76458740234375" stroke-width="0.0" fill="rgb(252, 255, 251)" opacity="0.39930862" stroke="rgb(240, 210, 162)" stroke-opacity="0.32672653" stroke-linecap="round" stroke-linejoin="round"/>
    <path d="M 67.59442901611328 346.75250244140625 C 62.46344757080078 350.85333251953125 66.47405242919922 355.84466552734375 72.60606384277344 355.3377380371094 C 67.5826644897461 356.7135009765625 55.584625244140625 352.7171936035156 53.013919830322266 344.75164794921875 C 60.05057144165039 336.9161682128906 88.95013427734375 342.4562072753906 83.54983520507812 348.8026428222656 C 77.75089263916016 352.0093688964844 66.80567169189453 343.2790222167969 67.59442901611328 346.75250244140625" stroke-width="0.0" fill="rgb(218, 22, 29)" opacity="0.9602118" stroke="rgb(73, 34, 240)" stroke-opacity="0.09032282" stroke-linecap="round" stroke-linejoin="round"/>
    <path d="M 215.33575439453125 177.23361206054688 C 217.5401153564453 216.60696411132812 219.02264404296875 231.5071258544922 211.46115112304688 227.1810302734375 C 208.86131286621094 194.85662841796875 208.80404663085938 188.0644989013672 209.8955078125 188.34747314453125 C 205.57765197753906 198.19473266601562 208.6987762451172 221.2170867919922 208.10748291015625 204.2880859375 C 209.341064453125 178.82354736328125 207.58120727539062 167.41690063476562 215.33575439453125 177.23361206054688" stroke-width="0.0" fill="rgb(255, 255, 245)" opacity="0.43390578" stroke="rgb(241, 190, 235)" stroke-opacity="0.15469867" stroke-linecap="round" stroke-linejoin="round"/>
    <path d="M 203.77984619140625 177.9659423828125 C 200.22537231445312 187.22447204589844 211.97096252441406 234.23373413085938 199.17681884765625 235.61984252929688 C 196.04083251953125 177.4369659423828 195.0252685546875 157.08767700195312 195.40301513671875 158.51455688476562 C 193.87631225585938 167.12490844726562 195.4019012451172 164.9604949951172 195.0572967529297 99.61366271972656 C 204.4127197265625 136.21315002441406 199.7533416748047 161.89532470703125 203.77984619140625 177.9659423828125" stroke-width="0.0" fill="rgb(255, 255, 248)" opacity="0.38909948" stroke="rgb(248, 134, 16)" stroke-opacity="0.9850819" stroke-linecap="round" stroke-linejoin="round"/>
    <path d="M 151.55746459960938 399.44244384765625 C 158.21014404296875 407.8960876464844 154.33010864257812 417.8866882324219 143.42848205566406 419.1687927246094 C 142.40834045410156 403.7983703613281 135.21629333496094 407.25701904296875 136.8472900390625 393.7940673828125 C 135.97447204589844 396.22906494140625 140.65687561035156 391.2402648925781 142.8826446533203 386.9626159667969 C 145.56494140625 391.1441650390625 146.68661499023438 394.8882141113281 151.55746459960938 399.44244384765625" stroke-width="0.0" fill="rgb(242, 124, 0)" opacity="0.80803573" stroke="rgb(236, 11, 23)" stroke-opacity="0.2690992" stroke-linecap="round" stroke-linejoin="round"/>
    <path d="M 311.8815612792969 324.92327880859375 C 321.63641357421875 349.1158447265625 279.58624267578125 339.14874267578125 263.2135009765625 342.12908935546875 C 265.9332580566406 336.7274475097656 249.53030395507812 334.0712890625 237.85028076171875 336.87774658203125 C 261.1249694824219 315.9647521972656 225.9983367919922 320.78082275390625 257.30303955078125 320.2626037597656 C 317.3193664550781 321.0416564941406 285.531494140625 314.8211669921875 311.8815612792969 324.92327880859375" stroke-width="0.0" fill="rgb(173, 176, 52)" opacity="0.92460245" stroke="rgb(87, 8, 100)" stroke-opacity="0.035595164" stroke-linecap="round" stroke-linejoin="round"/>
    <path d="M 534.5122680664062 388.1787414550781 C 558.63330078125 414.1683044433594 617.644287109375 453.5199890136719 479.8939514160156 449.4138488769531 C 430.51654052734375 325.1527099609375 433.4031982421875 364.44140625 478.3206787109375 339.0685119628906 C 460.4158020019531 288.8231506347656 472.5626220703125 310.42529296875 468.8355407714844 320.0404052734375 C 504.1090393066406 308.5133972167969 516.2886962890625 330.02655029296875 534.5122680664062 388.1787414550781" stroke-width="0.0" fill="rgb(125, 160, 0)" opacity="0.4778409" stroke="rgb(153, 120, 6)" stroke-opacity="0.0018295923" stroke-linecap="round" stroke-linejoin="round"/>
    <path d="M 232.05776977539062 96.31263732910156 C 231.8560333251953 91.14633178710938 234.04916381835938 102.2936019897461 231.9348602294922 100.36331176757812 C 219.2497100830078 101.63916778564453 226.86973571777344 115.0625 223.06663513183594 83.32601928710938 C 219.58486938476562 83.54261016845703 230.93026733398438 78.74510955810547 231.42247009277344 77.64137268066406 C 232.05430603027344 76.5147476196289 231.94737243652344 81.78857421875 232.05776977539062 96.31263732910156" stroke-width="0.0" fill="rgb(6, 52, 116)" opacity="0.7268604" stroke="rgb(183, 157, 157)" stroke-opacity="0.1307594" stroke-linecap="round" stroke-linejoin="round"/>
    <path d="M 231.11962890625 96.73348999023438 C 231.07022094726562 106.97431182861328 230.3323516845703 98.52912139892578 225.55990600585938 103.62120819091797 C 225.53025817871094 105.63225555419922 224.5650634765625 88.46351623535156 224.7286834716797 95.29754638671875 C 225.39273071289062 89.79985046386719 223.06057739257812 82.35408020019531 227.2535858154297 82.49735260009766 C 231.1620330810547 79.24591064453125 230.1830596923828 79.08473205566406 231.11962890625 96.73348999023438" stroke-width="0.0" fill="rgb(107, 181, 246)" opacity="0.7368139" stroke="rgb(4, 101, 45)" stroke-opacity="0.03313614" stroke-linecap="round" stroke-linejoin="round"/>
    <path d="M 245.7546844482422 69.79203033447266 C 246.60369873046875 100.41515350341797 249.46783447265625 89.78126525878906 238.3941192626953 96.78202819824219 C 238.27342224121094 101.77569580078125 238.87118530273438 75.24604797363281 237.37648010253906 73.0484390258789 C 237.11611938476562 116.3221664428711 237.6617889404297 64.66734313964844 239.44485473632812 73.81853485107422 C 251.2783203125 67.48143005371094 240.39093017578125 72.59605407714844 245.7546844482422 69.79203033447266" stroke-width="0.0" fill="rgb(76, 140, 204)" opacity="1.0" stroke="rgb(15, 95, 194)" stroke-opacity="0.5478867" stroke-linecap="round" stroke-linejoin="round"/>
    <path d="M 351.0115051269531 76.67154693603516 C 309.8184814453125 64.99951934814453 343.26715087890625 76.19270324707031 344.0678405761719 80.3283920288086 C 332.7719421386719 105.06198120117188 337.5217590332031 97.98709106445312 335.93963623046875 76.62115478515625 C 313.2921142578125 53.8274040222168 310.555419921875 46.7869987487793 369.7154846191406 68.59687042236328 C 391.29052734375 65.18782806396484 366.9870910644531 99.68408966064453 351.0115051269531 76.67154693603516" stroke-width="0.0" fill="rgb(30, 19, 77)" opacity="0.5518036" stroke="rgb(157, 82, 177)" stroke-opacity="0.08393169" stroke-linecap="round" stroke-linejoin="round"/>
    <path d="M 320.3243103027344 57.93214797973633 C 333.96875 69.52383422851562 326.5282897949219 88.69998168945312 329.94952392578125 94.2763671875 C 313.1829528808594 88.03282928466797 321.7760925292969 101.38578033447266 317.1094665527344 67.28408813476562 C 281.99462890625 56.95280456542969 246.50927734375 68.77609252929688 275.505126953125 39.60896682739258 C 343.8373107910156 63.60253143310547 338.634521484375 50.983436584472656 320.3243103027344 57.93214797973633" stroke-width="0.0" fill="rgb(2, 0, 73)" opacity="0.4475888" stroke="rgb(251, 96, 52)" stroke-opacity="0.5185631" stroke-linecap="round" stroke-linejoin="round"/>
    <path d="M 338.5042419433594 90.69412231445312 C 347.7710266113281 99.43084716796875 345.7012939453125 105.27933502197266 345.327392578125 79.36836242675781 C 338.396484375 100.10594940185547 337.7685852050781 95.41130065917969 336.3222961425781 95.8857192993164 C 335.9537048339844 85.87871551513672 334.2548828125 77.6294937133789 335.57562255859375 73.90127563476562 C 343.1689147949219 77.18216705322266 351.57989501953125 72.18124389648438 338.5042419433594 90.69412231445312" stroke-width="0.0" fill="rgb(0, 55, 148)" opacity="0.63006204" stroke="rgb(22, 199, 18)" stroke-opacity="0.6079953" stroke-linecap="round" stroke-linejoin="round"/>
    <path d="M 311.1214294433594 65.73178100585938 C 311.5796203613281 97.91822814941406 312.9812316894531 88.79862976074219 309.25439453125 89.08773040771484 C 301.18194580078125 86.50154876708984 300.6324157714844 90.53389739990234 300.67120361328125 84.93112182617188 C 299.6464538574219 61.85139846801758 301.6826477050781 69.74494934082031 298.6665954589844 64.36821746826172 C 317.6841735839844 68.4523696899414 309.89697265625 68.40206146240234 311.1214294433594 65.73178100585938" stroke-width="0.0" fill="rgb(0, 53, 137)" opacity="0.7522499" stroke="rgb(66, 21, 18)" stroke-opacity="0.5134856" stroke-linecap="round" stroke-linejoin="round"/>
    <path d="M 299.389404296875 353.6847229003906 C 274.8913269042969 367.8288269042969 275.051513671875 376.6204833984375 271.41558837890625 379.8717956542969 C 267.59307861328125 376.4059753417969 267.2332458496094 372.643310546875 265.2994079589844 361.6939392089844 C 265.5048522949219 366.60382080078125 266.9479675292969 384.6366882324219 275.4816589355469 362.108642578125 C 286.5030212402344 339.8041687011719 303.7534484863281 339.5997314453125 299.389404296875 353.6847229003906" stroke-width="0.0" fill="rgb(206, 0, 17)" opacity="0.94909966" stroke="rgb(71, 243, 153)" stroke-opacity="0.47513613" stroke-linecap="round" stroke-linejoin="round"/>
    <path d="M 271.8717956542969 376.2084655761719 C 273.585693359375 380.3748779296875 269.3946228027344 389.02716064453125 263.4782409667969 394.88519287109375 C 246.12637329101562 389.32489013671875 244.70425415039062 393.74517822265625 252.6181182861328 378.97113037109375 C 257.04241943359375 370.40472412109375 258.3335266113281 367.11505126953125 261.5914611816406 365.6423645019531 C 268.4651184082031 356.3357849121094 274.1675720214844 369.7557678222656 271.8717956542969 376.2084655761719" stroke-width="0.0" fill="rgb(199, 0, 7)" opacity="0.53794384" stroke="rgb(87, 155, 113)" stroke-opacity="0.6920121" stroke-linecap="round" stroke-linejoin="round"/>
    <path d="M 269.489990234375 383.6910400390625 C 265.8378601074219 390.9229736328125 265.453125 398.98382568359375 240.23802185058594 404.9956970214844 C 231.63189697265625 415.79901123046875 234.1337127685547 413.3373718261719 244.8961181640625 393.364990234375 C 251.89804077148438 379.92779541015625 255.8236846923828 376.7951354980469 261.5436706542969 375.3762512207031 C 267.85064697265625 376.06195068359375 273.9242248535156 376.7344665527344 269.489990234375 383.6910400390625" stroke-width="0.0" fill="rgb(233, 0, 19)" opacity="0.99194884" stroke="rgb(4, 131, 236)" stroke-opacity="0.75252825" stroke-linecap="round" stroke-linejoin="round"/>
    <path d="M 285.5337829589844 417.7413024902344 C 284.3243103027344 418.0232849121094 271.6178894042969 417.64752197265625 268.97210693359375 418.0406494140625 C 244.17105102539062 418.0888366699219 232.6533660888672 418.88153076171875 211.4429168701172 418.4334716796875 C 226.1107940673828 374.4853515625 234.60064697265625 402.18792724609375 239.85325622558594 408.775390625 C 260.1081848144531 400.2027587890625 272.3719177246094 403.1402893066406 285.5337829589844 417.7413024902344" stroke-width="0.0" fill="rgb(239, 0, 15)" opacity="0.979685" stroke="rgb(1, 26, 2)" stroke-opacity="0.99989504" stroke-linecap="round" stroke-linejoin="round"/>
    <path d="M 288.249755859375 418.00494384765625 C 290.8077697753906 417.9314880371094 279.803955078125 418.3365478515625 268.24237060546875 414.6150817871094 C 268.01226806640625 408.31842041015625 241.55162048339844 431.46844482421875 234.9024200439453 403.1498718261719 C 240.78932189941406 402.69140625 243.15843200683594 403.4239501953125 271.12353515625 402.7628479003906 C 275.2341003417969 401.1626281738281 272.3819885253906 406.13580322265625 288.249755859375 418.00494384765625" stroke-width="0.0" fill="rgb(243, 0, 16)" opacity="0.9712021" stroke="rgb(211, 40, 187)" stroke-opacity="0.402038" stroke-linecap="round" stroke-linejoin="round"/>
    <path d="M 445.62506103515625 341.7138366699219 C 450.322265625 354.25933837890625 496.2471618652344 327.2953796386719 445.08404541015625 363.6076354980469 C 348.7304382324219 376.6880798339844 368.4717712402344 357.5369567871094 430.01422119140625 335.84222412109375 C 424.6981201171875 332.83905029296875 453.1231689453125 344.3197326660156 438.33306884765625 310.027587890625 C 484.7945556640625 329.6527099609375 440.8783264160156 319.3375244140625 445.62506103515625 341.7138366699219" stroke-width="0.0" fill="rgb(242, 94, 6)" opacity="0.8698137" stroke="rgb(211, 215, 6)" stroke-opacity="0.56576085" stroke-linecap="round" stroke-linejoin="round"/>
    <path d="M 464.36517333984375 400.401611328125 C 463.619384765625 408.0570068359375 467.3396301269531 407.6740417480469 449.4525451660156 414.326171875 C 451.5301818847656 409.4188537597656 437.61114501953125 395.255615234375 444.075439453125 393.8764343261719 C 442.43524169921875 385.369140625 445.0190124511719 391.37310791015625 451.1138610839844 381.5208740234375 C 456.6680603027344 392.4842224121094 462.25823974609375 396.6560974121094 464.36517333984375 400.401611328125" stroke-width="0.0" fill="rgb(255, 109, 0)" opacity="0.6403302" stroke="rgb(72, 142, 227)" stroke-opacity="0.58427787" stroke-linecap="round" stroke-linejoin="round"/>
    <path d="M 466.8999938964844 297.23394775390625 C 452.77252197265625 313.4481506347656 469.88623046875 302.990966796875 454.5323791503906 313.5841979980469 C 444.9188537597656 305.1773986816406 434.6897277832031 301.8591003417969 434.7903747558594 299.4588928222656 C 444.8582458496094 309.9671936035156 452.1422424316406 265.8182373046875 469.7784729003906 284.18658447265625 C 451.4886779785156 304.456787109375 447.1123046875 296.8786315917969 466.8999938964844 297.23394775390625" stroke-width="0.0" fill="rgb(62, 47, 118)" opacity="1.0" stroke="rgb(78, 75, 88)" stroke-opacity="0.17300095" stroke-linecap="round" stroke-linejoin="round"/>
    <path d="M 433.8695983886719 284.3088684082031 C 407.419921875 306.3797912597656 435.125732421875 290.4906005859375 396.3774108886719 300.21343994140625 C 400.1492004394531 295.8583679199219 382.2320556640625 299.25103759765625 381.6659851074219 294.3448486328125 C 379.7434387207031 294.6659240722656 387.3575439453125 295.1289978027344 403.1019287109375 280.506591796875 C 410.64739990234375 281.4368591308594 421.7657165527344 283.85357666015625 433.8695983886719 284.3088684082031" stroke-width="0.0" fill="rgb(0, 33, 157)" opacity="0.9657313" stroke="rgb(102, 99, 197)" stroke-opacity="0.15345138" stroke-linecap="round" stroke-linejoin="round"/>
    <path d="M 331.8008117675781 359.2662048339844 C 334.32342529296875 372.96429443359375 333.2919006347656 356.1101989746094 312.76995849609375 354.4352111816406 C 286.0324401855469 354.1442565917969 280.731689453125 372.6224060058594 275.4494323730469 364.6466979980469 C 283.95660400390625 345.9259338378906 300.9711608886719 338.1283264160156 310.3373718261719 339.55841064453125 C 320.07769775390625 338.4106140136719 324.8306884765625 341.6763000488281 331.8008117675781 359.2662048339844" stroke-width="0.0" fill="rgb(214, 0, 21)" opacity="0.95085585" stroke="rgb(16, 107, 57)" stroke-opacity="0.7642743" stroke-linecap="round" stroke-linejoin="round"/>
    <path d="M 348.793212890625 366.4388732910156 C 349.38848876953125 383.0267333984375 336.8792724609375 395.12738037109375 327.0653381347656 399.61883544921875 C 357.26116943359375 372.46490478515625 312.5805358886719 347.3040771484375 310.88409423828125 334.2105712890625 C 308.44512939453125 335.4496154785156 309.0701599121094 340.3443908691406 321.1391906738281 335.9363708496094 C 334.6714172363281 344.1572265625 347.5216369628906 351.537841796875 348.793212890625 366.4388732910156" stroke-width="0.0" fill="rgb(205, 0, 16)" opacity="0.98454446" stroke="rgb(186, 61, 140)" stroke-opacity="0.56001043" stroke-linecap="round" stroke-linejoin="round"/>
    <path d="M 393.87664794921875 402.5155029296875 C 392.0921936035156 410.3360900878906 390.5904846191406 415.55841064453125 390.2522277832031 414.40771484375 C 381.5918273925781 413.99420166015625 378.9800720214844 409.64813232421875 379.0544738769531 399.891357421875 C 379.0408935546875 400.90057373046875 381.7091979980469 391.9675598144531 386.88763427734375 388.216064453125 C 382.62744140625 385.6700744628906 400.8279724121094 388.1153869628906 393.87664794921875 402.5155029296875" stroke-width="0.0" fill="rgb(252, 98, 0)" opacity="0.68818605" stroke="rgb(208, 138, 25)" stroke-opacity="0.039537806" stroke-linecap="round" stroke-linejoin="round"/>
    <path d="M 148.237060546875 305.5701904296875 C 121.49625396728516 329.64849853515625 150.3789520263672 307.8135070800781 141.9916534423828 322.5439453125 C 117.39737701416016 328.97998046875 138.30540466308594 307.3473815917969 125.77422332763672 305.7962646484375 C 113.89016723632812 316.5377197265625 108.29940032958984 305.8550720214844 161.33773803710938 277.8789978027344 C 178.12734985351562 346.37945556640625 136.69845581054688 274.8233642578125 148.237060546875 305.5701904296875" stroke-width="0.0" fill="rgb(29, 54, 82)" opacity="0.8153773" stroke="rgb(80, 67, 126)" stroke-opacity="0.35250923" stroke-linecap="round" stroke-linejoin="round"/>
    <path d="M 121.55146789550781 295.9192810058594 C 116.03141784667969 310.1842956542969 106.70370483398438 300.4464416503906 101.54206085205078 311.0437927246094 C 88.05087280273438 305.34405517578125 84.93350219726562 316.93841552734375 60.438507080078125 312.6648864746094 C 84.54981231689453 314.4284362792969 101.47219848632812 287.51617431640625 95.19367980957031 296.38336181640625 C 107.47135162353516 297.73553466796875 123.41817474365234 300.2217102050781 121.55146789550781 295.9192810058594" stroke-width="0.0" fill="rgb(0, 26, 150)" opacity="0.8946743" stroke="rgb(146, 163, 190)" stroke-opacity="0.7392638" stroke-linecap="round" stroke-linejoin="round"/>
    <path d="M 244.62669372558594 65.3387222290039 C 244.7981719970703 103.44451141357422 247.46682739257812 102.18463134765625 245.3927459716797 64.91226196289062 C 244.7461395263672 70.3178482055664 233.85890197753906 73.85643005371094 199.72900390625 93.85214233398438 C 155.01368713378906 122.63358306884766 131.32850646972656 111.77957153320312 223.5105438232422 65.82382202148438 C 297.682861328125 8.728287696838379 271.0268249511719 81.38031005859375 244.62669372558594 65.3387222290039" stroke-width="0.0" fill="rgb(55, 47, 90)" opacity="0.6828395" stroke="rgb(120, 223, 111)" stroke-opacity="0.8220568" stroke-linecap="round" stroke-linejoin="round"/>
    <path d="M 292.2728271484375 336.9329528808594 C 288.2978210449219 344.9580383300781 280.0609436035156 344.2509460449219 276.9203796386719 353.67913818359375 C 266.98382568359375 348.0099182128906 267.01409912109375 339.0502624511719 245.71827697753906 335.6496887207031 C 230.50990295410156 338.69525146484375 244.81150817871094 322.5653076171875 280.2463073730469 338.584716796875 C 313.5614013671875 329.9552307128906 320.5371398925781 328.5711975097656 292.2728271484375 336.9329528808594" stroke-width="0.0" fill="rgb(127, 165, 0)" opacity="0.6427148" stroke="rgb(28, 125, 197)" stroke-opacity="0.5464176" stroke-linecap="round" stroke-linejoin="round"/>
    <path d="M 126.99999237060547 245.87229919433594 C 125.7910385131836 248.4424285888672 129.76136779785156 245.81906127929688 119.11753845214844 247.67330932617188 C 117.57943725585938 249.20016479492188 120.10050201416016 234.92149353027344 117.61309051513672 236.76156616210938 C 120.09706115722656 240.81430053710938 119.87860107421875 237.76698303222656 117.6057357788086 236.61767578125 C 129.41220092773438 236.2715606689453 125.94617462158203 230.64752197265625 126.99999237060547 245.87229919433594" stroke-width="0.0" fill="rgb(0, 98, 204)" opacity="0.5967201" stroke="rgb(244, 23, 7)" stroke-opacity="0.08555853" stroke-linecap="round" stroke-linejoin="round"/>
    <path d="M 263.3385314941406 282.9884948730469 C 248.9480438232422 289.1233825683594 276.1461181640625 274.86285400390625 303.7810974121094 279.8294372558594 C 242.5612030029297 283.9525451660156 249.4484100341797 283.29046630859375 250.5737762451172 282.2377014160156 C 248.40704345703125 279.17333984375 249.33184814453125 259.0047607421875 249.01043701171875 244.25772094726562 C 268.2523498535156 238.35458374023438 257.86102294921875 255.47750854492188 263.3385314941406 282.9884948730469" stroke-width="0.0" fill="rgb(235, 233, 216)" opacity="0.61251676" stroke="rgb(60, 68, 50)" stroke-opacity="0.7127839" stroke-linecap="round" stroke-linejoin="round"/>
    <path d="M 440.5347900390625 311.16131591796875 C 435.0361328125 306.9455261230469 420.30877685546875 310.8866882324219 426.5658874511719 315.172119140625 C 430.0759582519531 313.9461669921875 429.30322265625 313.9330749511719 426.6801452636719 314.6873474121094 C 427.080078125 314.0318908691406 429.0766906738281 313.1698303222656 434.7936706542969 313.0161437988281 C 420.88372802734375 313.83355712890625 429.34588623046875 315.8825378417969 440.5347900390625 311.16131591796875" stroke-width="0.0" fill="rgb(255, 6, 112)" opacity="1.0" stroke="rgb(120, 41, 7)" stroke-opacity="0.18702355" stroke-linecap="round" stroke-linejoin="round"/>
    <path d="M 445.9147033691406 252.71560668945312 C 444.1961364746094 265.87628173828125 449.4640197753906 301.7052307128906 446.5304870605469 281.7632751464844 C 435.78472900390625 281.3081970214844 441.3994140625 287.1319885253906 438.0697021484375 253.4248504638672 C 450.278076171875 253.85626220703125 442.901611328125 252.5120086669922 446.7667541503906 255.50299072265625 C 444.4210510253906 251.66055297851562 441.9134216308594 258.4569396972656 445.9147033691406 252.71560668945312" stroke-width="0.0" fill="rgb(40, 101, 173)" opacity="0.7897039" stroke="rgb(140, 28, 195)" stroke-opacity="0.9440074" stroke-linecap="round" stroke-linejoin="round"/>
    <path d="M 248.93125915527344 278.35992431640625 C 261.7911071777344 357.32342529296875 229.16676330566406 294.9151306152344 210.0802459716797 335.9587097167969 C 182.51898193359375 357.221435546875 198.2982635498047 328.7537536621094 183.83546447753906 337.6048278808594 C 186.47174072265625 318.1827697753906 180.4424285888672 328.2168273925781 150.05104064941406 279.5604248046875 C 179.9903106689453 286.67706298828125 257.2727966308594 263.78387451171875 248.93125915527344 278.35992431640625" stroke-width="0.0" fill="rgb(36, 111, 0)" opacity="0.55504364" stroke="rgb(16, 35, 94)" stroke-opacity="0.9325822" stroke-linecap="round" stroke-linejoin="round"/>
    <path d="M 150.58309936523438 401.54937744140625 C 157.76986694335938 403.5668640136719 153.5285186767578 422.6198425292969 141.61512756347656 419.38568115234375 C 144.88198852539062 419.43511962890625 134.01808166503906 405.0382080078125 139.41786193847656 392.77801513671875 C 140.816162109375 398.3089294433594 136.59568786621094 393.90863037109375 138.95956420898438 402.03387451171875 C 143.95472717285156 397.23382568359375 145.9297332763672 398.9973449707031 150.58309936523438 401.54937744140625" stroke-width="0.0" fill="rgb(254, 95, 11)" opacity="0.55820423" stroke="rgb(151, 21, 198)" stroke-opacity="0.2466425" stroke-linecap="round" stroke-linejoin="round"/>
    <path d="M 441.570068359375 312.3747253417969 C 437.6214294433594 312.5604553222656 426.34722900390625 316.9339904785156 431.05712890625 313.6036071777344 C 428.7499084472656 317.82684326171875 422.9796447753906 316.1951599121094 424.1981201171875 311.63446044921875 C 426.81060791015625 306.65875244140625 432.4836730957031 310.2395935058594 431.440185546875 310.0532531738281 C 429.8916931152344 311.2327575683594 435.51190185546875 303.01873779296875 441.570068359375 312.3747253417969" stroke-width="0.0" fill="rgb(201, 0, 15)" opacity="0.83272266" stroke="rgb(94, 111, 45)" stroke-opacity="0.08541822" stroke-linecap="round" stroke-linejoin="round"/>
    <path d="M 213.09359741210938 283.0174560546875 C 161.0487518310547 322.2005615234375 204.77952575683594 345.3308410644531 161.36868286132812 406.30291748046875 C 119.1136474609375 335.1616516113281 174.42568969726562 400.1297302246094 146.93612670898438 277.75921630859375 C 193.48565673828125 283.3699951171875 191.870361328125 267.8550109863281 211.04852294921875 276.575927734375 C 186.4923095703125 289.8894958496094 211.97645568847656 282.9114990234375 213.09359741210938 283.0174560546875" stroke-width="0.0" fill="rgb(120, 146, 0)" opacity="0.56872416" stroke="rgb(67, 166, 151)" stroke-opacity="0.45014334" stroke-linecap="round" stroke-linejoin="round"/>
    <path d="M 120.83745574951172 245.39512634277344 C 119.77153015136719 247.84243774414062 118.83905792236328 244.90077209472656 125.41582489013672 236.74293518066406 C 117.38374328613281 239.16067504882812 120.96723175048828 233.3777618408203 120.0843505859375 246.36282348632812 C 123.40043640136719 234.85324096679688 133.9137420654297 235.2601776123047 117.31689453125 236.8061981201172 C 120.14936065673828 239.69766235351562 117.4485092163086 252.50962829589844 120.83745574951172 245.39512634277344" stroke-width="0.0" fill="rgb(46, 37, 58)" opacity="0.6580622" stroke="rgb(226, 162, 175)" stroke-opacity="0.23346405" stroke-linecap="round" stroke-linejoin="round"/>
    <path d="M 345.1739807128906 89.57911682128906 C 343.26556396484375 68.84202575683594 344.8127136230469 93.48716735839844 344.5077209472656 97.6968002319336 C 336.0357971191406 95.4008560180664 337.6105041503906 99.14738464355469 337.1889343261719 86.70560455322266 C 336.9809265136719 74.53466033935547 333.8763427734375 74.6428451538086 343.59002685546875 77.68865966796875 C 342.8720703125 72.93140411376953 344.72308349609375 82.88029479980469 345.1739807128906 89.57911682128906" stroke-width="0.0" fill="rgb(67, 136, 211)" opacity="1.0" stroke="rgb(116, 156, 77)" stroke-opacity="0.24585551" stroke-linecap="round" stroke-linejoin="round"/>
    <path d="M 522.9722900390625 322.1899108886719 C 510.50201416015625 324.4704284667969 497.7579040527344 317.6052551269531 470.7148742675781 319.5914001464844 C 461.2301330566406 323.8214111328125 478.14544677734375 296.7301330566406 475.1994323730469 323.0263977050781 C 482.895263671875 310.49261474609375 468.7502746582031 311.9872131347656 486.1109924316406 311.1800231933594 C 520.8794555664062 311.2491760253906 522.5751953125 305.9176940917969 522.9722900390625 322.1899108886719" stroke-width="0.0" fill="rgb(183, 196, 204)" opacity="0.81264937" stroke="rgb(91, 83, 53)" stroke-opacity="0.65892285" stroke-linecap="round" stroke-linejoin="round"/>
    <path d="M 214.9246368408203 181.9942169189453 C 217.1820068359375 182.3712921142578 218.05990600585938 182.28652954101562 210.8358917236328 181.6326904296875 C 204.39292907714844 189.26014709472656 214.55331420898438 173.3594512939453 206.821044921875 181.37855529785156 C 207.83399963378906 177.96742248535156 207.30552673339844 165.60496520996094 207.85398864746094 163.35519409179688 C 217.89695739746094 162.93600463867188 215.30496215820312 154.32992553710938 214.9246368408203 181.9942169189453" stroke-width="0.0" fill="rgb(200, 201, 196)" opacity="0.61414206" stroke="rgb(174, 70, 161)" stroke-opacity="0.62654215" stroke-linecap="round" stroke-linejoin="round"/>
    <path d="M 86.38240814208984 356.462890625 C 77.05303955078125 411.7318115234375 70.25824737548828 412.0816345214844 69.37464141845703 418.099609375 C -2.94569730758667 432.9830627441406 -10.333561897277832 433.17724609375 -10.89004898071289 433.05078125 C -15.601600646972656 317.63580322265625 -27.85401153564453 328.5505676269531 58.81231689453125 327.1612548828125 C 84.23854064941406 352.5926513671875 14.514750480651855 335.3816223144531 86.38240814208984 356.462890625" stroke-width="0.0" fill="rgb(204, 205, 11)" opacity="0.3683405" stroke="rgb(169, 67, 207)" stroke-opacity="0.33816618" stroke-linecap="round" stroke-linejoin="round"/>
    <path d="M 220.9274444580078 383.8456115722656 C 220.53176879882812 385.29058837890625 219.82028198242188 385.4434509277344 217.59243774414062 390.1826477050781 C 214.7345733642578 386.7391662597656 208.275390625 376.0356750488281 213.30137634277344 366.6701965332031 C 217.08978271484375 374.0654296875 206.7283935546875 351.6834716796875 235.30027770996094 360.4327697753906 C 230.70640563964844 363.8734130859375 227.4551544189453 372.399169921875 220.9274444580078 383.8456115722656" stroke-width="0.0" fill="rgb(220, 0, 25)" opacity="0.9824024" stroke="rgb(41, 174, 22)" stroke-opacity="0.3459402" stroke-linecap="round" stroke-linejoin="round"/>
    <path d="M 143.31951904296875 341.0322570800781 C 92.56143951416016 295.9892272949219 31.11384391784668 398.5323791503906 113.95777893066406 351.3365173339844 C 90.83325958251953 401.33453369140625 58.66550064086914 353.33294677734375 62.573974609375 355.8145751953125 C 69.22598266601562 345.2248840332031 70.9900131225586 325.63916015625 88.4737548828125 318.2122802734375 C 88.60601043701172 296.6563720703125 153.9263916015625 317.9696350097656 143.31951904296875 341.0322570800781" stroke-width="0.0" fill="rgb(241, 76, 13)" opacity="0.9620345" stroke="rgb(42, 46, 213)" stroke-opacity="0.62830615" stroke-linecap="round" stroke-linejoin="round"/>
    <path d="M 306.18731689453125 326.718505859375 C 301.4405822753906 326.7825927734375 292.95733642578125 329.2264709472656 272.1851806640625 328.56414794921875 C 263.51776123046875 332.1302490234375 249.6110382080078 318.5276794433594 273.599365234375 309.18603515625 C 273.9318542480469 313.2257385253906 270.2443542480469 336.2193298339844 259.55828857421875 321.1873779296875 C 291.17474365234375 319.72576904296875 241.16050720214844 325.5666809082031 306.18731689453125 326.718505859375" stroke-width="0.0" fill="rgb(214, 203, 229)" opacity="0.3534182" stroke="rgb(178, 117, 74)" stroke-opacity="0.30317414" stroke-linecap="round" stroke-linejoin="round"/>
    <path d="M 82.96221160888672 277.549072265625 C 79.70790100097656 276.29058837890625 86.36517333984375 277.2794494628906 79.31553649902344 278.0401916503906 C 71.6778793334961 277.4234924316406 76.40519714355469 283.73577880859375 73.11421203613281 264.8877868652344 C 71.349365234375 272.7462158203125 67.67139434814453 261.9903869628906 81.28704833984375 264.892333984375 C 82.16268157958984 264.3873596191406 82.80339813232422 275.10968017578125 82.96221160888672 277.549072265625" stroke-width="0.0" fill="rgb(7, 63, 122)" opacity="0.59265685" stroke="rgb(246, 0, 203)" stroke-opacity="0.6677373" stroke-linecap="round" stroke-linejoin="round"/>
    <path d="M 310.0310363769531 72.43108367919922 C 310.90557861328125 80.93923950195312 310.68707275390625 92.19464874267578 310.39404296875 89.99986267089844 C 300.8013916015625 86.05388641357422 303.57830810546875 94.3687744140625 301.94970703125 67.11450958251953 C 303.3143310546875 65.52879333496094 301.597900390625 67.28201293945312 298.7444763183594 66.00894165039062 C 311.3244323730469 68.5313949584961 309.55767822265625 68.13856506347656 310.0310363769531 72.43108367919922" stroke-width="0.0" fill="rgb(66, 145, 227)" opacity="0.8457388" stroke="rgb(181, 81, 184)" stroke-opacity="0.64950204" stroke-linecap="round" stroke-linejoin="round"/>
    <path d="M 273.52813720703125 366.0903015136719 C 279.33966064453125 368.8567810058594 273.57647705078125 372.36260986328125 269.57366943359375 383.7926025390625 C 267.6864013671875 392.4283142089844 264.39990234375 384.0656433105469 253.19168090820312 379.7117004394531 C 252.4952392578125 381.86346435546875 260.25592041015625 366.9745178222656 266.8550720214844 354.7550048828125 C 272.56842041015625 369.61224365234375 274.5052185058594 372.98663330078125 273.52813720703125 366.0903015136719" stroke-width="0.0" fill="rgb(231, 0, 21)" opacity="0.8156313" stroke="rgb(187, 238, 158)" stroke-opacity="0.24369352" stroke-linecap="round" stroke-linejoin="round"/>
    <path d="M 287.6291198730469 213.5078125 C 293.7406311035156 231.36843872070312 294.788818359375 239.305419921875 281.5492858886719 237.62777709960938 C 271.02886962890625 243.28627014160156 276.7168273925781 230.1562042236328 273.7872314453125 220.00303649902344 C 291.97625732421875 218.05038452148438 269.5371398925781 223.9364776611328 272.3417053222656 210.6405487060547 C 295.3998718261719 208.73060607910156 286.37799072265625 208.91615295410156 287.6291198730469 213.5078125" stroke-width="0.0" fill="rgb(255, 255, 218)" opacity="0.36240622" stroke="rgb(103, 29, 32)" stroke-opacity="0.7554383" stroke-linecap="round" stroke-linejoin="round"/>
    <path d="M 138.59596252441406 449.4268493652344 C 141.9966278076172 448.9715881347656 128.65866088867188 450.72882080078125 139.9886932373047 449.59039306640625 C 114.89286041259766 450.54400634765625 115.32563018798828 448.1746520996094 117.14006042480469 450.2825622558594 C 116.86853790283203 432.3459777832031 117.20410919189453 447.0583801269531 119.26497650146484 444.1053771972656 C 131.60739135742188 434.4098815917969 140.68325805664062 438.92144775390625 138.59596252441406 449.4268493652344" stroke-width="0.0" fill="rgb(240, 85, 135)" opacity="0.9786292" stroke="rgb(18, 37, 109)" stroke-opacity="0.09615031" stroke-linecap="round" stroke-linejoin="round"/>
    <path d="M 520.7740478515625 338.4478759765625 C 521.2733154296875 348.3631286621094 520.95263671875 351.8083190917969 512.9146118164062 356.1896057128906 C 418.8199462890625 358.7087707519531 480.6282958984375 362.848388671875 462.06500244140625 325.21771240234375 C 474.2158508300781 313.60394287109375 460.79486083984375 321.0300598144531 515.905029296875 320.824462890625 C 520.1592407226562 317.37890625 521.4085083007812 317.0784912109375 520.7740478515625 338.4478759765625" stroke-width="0.0" fill="rgb(143, 162, 38)" opacity="0.98891246" stroke="rgb(151, 198, 194)" stroke-opacity="0.031807963" stroke-linecap="round" stroke-linejoin="round"/>
  </g>
</svg>
