<?xml version="1.0" ?>
<svg xmlns="http://www.w3.org/2000/svg" version="1.1" width="512" height="470">
  <defs/>
  <g>
    <path d="M 328.3106384277344 479.9871520996094 C 315.3924560546875 475.0830078125 320.0624084472656 474.61846923828125 316.8941345214844 485.6946105957031 C 293.0592956542969 482.9300842285156 287.0333251953125 481.9094543457031 309.4494934082031 498.1293640136719 C 355.90771484375 453.5317077636719 263.5059509277344 500.1534729003906 115.1738052368164 439.8204040527344 C 383.3989562988281 430.9201965332031 389.0968017578125 438.7384033203125 328.3106384277344 479.9871520996094" stroke-width="0.0" fill="rgb(209, 235, 254)" opacity="0.6304866" stroke="rgb(236, 226, 118)" stroke-opacity="0.8446396" stroke-linecap="round" stroke-linejoin="round"/>
    <path d="M 458.03900146484375 -12.394222259521484 C 458.0389404296875 40.189571380615234 458.07489013671875 41.93484878540039 458.58038330078125 76.89864349365234 C 359.3511047363281 74.18512725830078 334.8409118652344 68.82671356201172 344.4353332519531 1.7250057458877563 C 394.3874816894531 -18.79373550415039 404.0334167480469 -6.1750407218933105 414.7857360839844 -8.905467987060547 C 445.8409729003906 -8.542219161987305 446.58245849609375 -8.577502250671387 458.03900146484375 -12.394222259521484" stroke-width="0.0" fill="rgb(249, 250, 255)" opacity="0.9883746" stroke="rgb(195, 47, 201)" stroke-opacity="0.4667232" stroke-linecap="round" stroke-linejoin="round"/>
    <path d="M 239.51658630371094 54.803829193115234 C 107.9151382446289 130.69908142089844 85.06014251708984 163.32708740234375 13.53365421295166 76.76215362548828 C 14.24424934387207 57.60100173950195 14.060672760009766 94.1073226928711 13.97382926940918 -0.12345278263092041 C 25.54019546508789 -12.502409934997559 38.15095138549805 -11.41198444366455 88.35928344726562 -13.24691390991211 C 163.88418579101562 -31.43204116821289 220.4297332763672 -79.03280639648438 239.51658630371094 54.803829193115234" stroke-width="0.0" fill="rgb(242, 247, 255)" opacity="0.978933" stroke="rgb(251, 240, 146)" stroke-opacity="0.8482647" stroke-linecap="round" stroke-linejoin="round"/>
    <path d="M 492.5451965332031 457.74896240234375 C 404.4267578125 457.4382019042969 378.4939880371094 458.26922607421875 404.2276916503906 456.439453125 C 400.52313232421875 456.96014404296875 395.1962890625 457.0914306640625 347.9964294433594 456.64385986328125 C 378.0128479003906 438.4690246582031 349.2254638671875 436.5581970214844 392.4800109863281 439.2471923828125 C 485.46026611328125 439.89569091796875 457.9734802246094 430.74920654296875 492.5451965332031 457.74896240234375" stroke-width="0.0" fill="rgb(229, 244, 255)" opacity="0.8219358" stroke="rgb(250, 173, 65)" stroke-opacity="0.2355924" stroke-linecap="round" stroke-linejoin="round"/>
    <path d="M 449.6592102050781 422.62261962890625 C 446.0386047363281 462.6521301269531 466.9901123046875 444.53082275390625 392.0724182128906 449.3446350097656 C 375.28668212890625 426.4480285644531 452.5050964355469 447.1319274902344 389.5718688964844 430.358642578125 C 402.9851379394531 374.5960693359375 393.8775939941406 358.8990783691406 412.5179443359375 373.18670654296875 C 437.2792053222656 364.4757995605469 434.7845458984375 356.94720458984375 449.6592102050781 422.62261962890625" stroke-width="0.0" fill="rgb(36, 72, 189)" opacity="0.98611" stroke="rgb(155, 254, 168)" stroke-opacity="0.09986947" stroke-linecap="round" stroke-linejoin="round"/>
    <path d="M 353.01715087890625 378.8191223144531 C 353.1190185546875 408.5368347167969 327.10821533203125 418.9728088378906 317.81109619140625 418.8603820800781 C 302.68402099609375 422.44720458984375 273.3247985839844 409.1139831542969 276.3460998535156 386.7227783203125 C 277.24346923828125 369.3544921875 305.7040100097656 348.82159423828125 288.33428955078125 369.85748291015625 C 279.7129211425781 413.2062072753906 337.3840026855469 414.35601806640625 353.01715087890625 378.8191223144531" stroke-width="0.0" fill="rgb(228, 0, 17)" opacity="0.98380697" stroke="rgb(85, 114, 119)" stroke-opacity="0.49815932" stroke-linecap="round" stroke-linejoin="round"/>
    <path d="M 258.3896484375 398.8954772949219 C 379.7463684082031 467.84991455078125 417.7958984375 437.7654724121094 168.8704071044922 445.9321594238281 C 172.0052947998047 401.3087463378906 247.9592742919922 411.10858154296875 216.48329162597656 388.6830139160156 C 200.7618865966797 366.44110107421875 221.9593048095703 333.68243408203125 247.4816436767578 342.50152587890625 C 255.06344604492188 346.43646240234375 300.2859191894531 363.3559265136719 258.3896484375 398.8954772949219" stroke-width="0.0" fill="rgb(230, 36, 72)" opacity="0.55399597" stroke="rgb(129, 240, 202)" stroke-opacity="0.33732677" stroke-linecap="round" stroke-linejoin="round"/>
    <path d="M 483.7421875 110.70724487304688 C 488.8399353027344 130.64308166503906 480.6009216308594 126.64016723632812 416.46875 123.24629211425781 C 379.97088623046875 112.56024169921875 371.40777587890625 119.73783874511719 373.1575622558594 81.95262908935547 C 410.3481140136719 52.889015197753906 377.8659362792969 12.952776908874512 422.6529235839844 24.630708694458008 C 455.1574401855469 63.65968322753906 459.7968444824219 61.06819534301758 483.7421875 110.70724487304688" stroke-width="0.0" fill="rgb(248, 250, 255)" opacity="0.9635012" stroke="rgb(212, 219, 83)" stroke-opacity="0.29260895" stroke-linecap="round" stroke-linejoin="round"/>
    <path d="M 356.9236145019531 9.773162841796875 C 382.51483154296875 86.17896270751953 370.8153076171875 64.65602111816406 278.17584228515625 41.27719497680664 C 246.78811645507812 45.053504943847656 241.93312072753906 34.188209533691406 240.20591735839844 28.264904022216797 C 241.03785705566406 -6.250910758972168 241.0062255859375 -9.597047805786133 271.828857421875 -12.263871192932129 C 309.5260925292969 -12.982701301574707 326.52703857421875 -27.925230026245117 356.9236145019531 9.773162841796875" stroke-width="0.0" fill="rgb(249, 251, 255)" opacity="0.9694818" stroke="rgb(9, 103, 185)" stroke-opacity="0.2589618" stroke-linecap="round" stroke-linejoin="round"/>
    <path d="M 168.7754669189453 163.04684448242188 C 166.9403076171875 231.54823303222656 188.15774536132812 210.76776123046875 126.22713470458984 202.76248168945312 C 74.99860382080078 210.50404357910156 53.22273254394531 221.7757568359375 -4.3940839767456055 251.21237182617188 C -20.313629150390625 3.4043147563934326 -13.482860565185547 7.7479166984558105 70.63591766357422 89.94507598876953 C 198.87899780273438 108.09396362304688 157.9461669921875 97.29441833496094 168.7754669189453 163.04684448242188" stroke-width="0.0" fill="rgb(240, 243, 250)" opacity="0.97910804" stroke="rgb(209, 229, 128)" stroke-opacity="0.5479656" stroke-linecap="round" stroke-linejoin="round"/>
    <path d="M 261.73046875 16.18749237060547 C 270.0926818847656 42.761905670166016 265.5655822753906 37.92503356933594 240.20205688476562 54.308349609375 C 189.99024963378906 74.25904083251953 197.40548706054688 54.78651809692383 222.11972045898438 24.29703140258789 C 216.5299072265625 -8.86363697052002 212.8892364501953 -11.585465431213379 252.9671173095703 -9.849470138549805 C 263.1407470703125 -5.972162246704102 258.1581726074219 -4.463326930999756 261.73046875 16.18749237060547" stroke-width="0.0" fill="rgb(246, 249, 253)" opacity="0.9816721" stroke="rgb(82, 52, 224)" stroke-opacity="0.7213857" stroke-linecap="round" stroke-linejoin="round"/>
    <path d="M 522.8540649414062 75.47099304199219 C 523.6849975585938 124.6818618774414 520.6972045898438 128.15304565429688 466.92877197265625 119.64881896972656 C 446.1678466796875 96.39452362060547 445.0400695800781 94.32921600341797 449.9017639160156 62.18118667602539 C 446.72943115234375 31.82715606689453 441.7496337890625 23.9905948638916 494.1282653808594 27.05254364013672 C 514.4168090820312 31.0718994140625 521.958984375 27.163599014282227 522.8540649414062 75.47099304199219" stroke-width="0.0" fill="rgb(249, 250, 254)" opacity="0.99898624" stroke="rgb(49, 191, 37)" stroke-opacity="0.6289252" stroke-linecap="round" stroke-linejoin="round"/>
    <path d="M 521.472900390625 2.8843228816986084 C 525.649658203125 44.42680358886719 521.1482543945312 45.81332015991211 506.4208679199219 47.05025100708008 C 445.181884765625 48.65090560913086 446.7413330078125 44.01175308227539 447.629638671875 18.16239356994629 C 454.0728759765625 -15.92032527923584 463.4868469238281 -9.106328964233398 483.3529052734375 -10.262470245361328 C 489.61865234375 -4.427894592285156 502.7775573730469 -13.0834379196167 521.472900390625 2.8843228816986084" stroke-width="0.0" fill="rgb(248, 248, 253)" opacity="1.0" stroke="rgb(213, 178, 165)" stroke-opacity="0.053507727" stroke-linecap="round" stroke-linejoin="round"/>
    <path d="M 534.55078125 155.7622528076172 C 542.349609375 260.3819580078125 481.6227722167969 289.4803161621094 485.39459228515625 227.19046020507812 C 397.2291259765625 220.11964416503906 411.40924072265625 226.56173706054688 432.190185546875 173.48587036132812 C 436.1107177734375 153.79010009765625 442.7743835449219 145.16697692871094 449.0315246582031 116.68032836914062 C 512.7344360351562 108.7525405883789 521.114013671875 101.10128021240234 534.55078125 155.7622528076172" stroke-width="0.0" fill="rgb(255, 255, 255)" opacity="0.817038" stroke="rgb(155, 55, 242)" stroke-opacity="0.031224595" stroke-linecap="round" stroke-linejoin="round"/>
    <path d="M 456.5031433105469 156.38755798339844 C 439.5446472167969 191.19383239746094 448.24505615234375 236.6742401123047 390.5753173828125 225.00006103515625 C 372.9455871582031 225.34005737304688 382.8586120605469 228.203369140625 377.3603820800781 173.48123168945312 C 377.35699462890625 86.62342071533203 358.3163757324219 89.55511474609375 430.95220947265625 105.51609802246094 C 473.7241516113281 111.98471069335938 473.1318664550781 116.7133560180664 456.5031433105469 156.38755798339844" stroke-width="0.0" fill="rgb(250, 254, 255)" opacity="0.8892629" stroke="rgb(31, 66, 253)" stroke-opacity="0.3908971" stroke-linecap="round" stroke-linejoin="round"/>
    <path d="M 262.6657409667969 348.238037109375 C 252.16246032714844 375.0184631347656 230.04698181152344 392.84002685546875 238.46719360351562 413.4972229003906 C 167.51760864257812 448.204345703125 284.6908264160156 310.4146728515625 214.3182830810547 385.5586242675781 C 203.23748779296875 358.1089172363281 224.72134399414062 343.49127197265625 234.17022705078125 341.6780700683594 C 250.93646240234375 338.1416320800781 259.5040283203125 346.4876403808594 262.6657409667969 348.238037109375" stroke-width="0.0" fill="rgb(225, 0, 20)" opacity="0.9665521" stroke="rgb(167, 4, 173)" stroke-opacity="0.6049448" stroke-linecap="round" stroke-linejoin="round"/>
    <path d="M 215.9759521484375 344.4334716796875 C 190.89532470703125 387.9765625 188.17137145996094 394.9935302734375 175.04205322265625 419.7652893066406 C 153.24722290039062 420.3824768066406 156.4866485595703 425.1998596191406 172.2295684814453 393.0154113769531 C 183.19232177734375 373.3437805175781 181.5587921142578 365.67669677734375 198.65203857421875 377.1856994628906 C 169.75350952148438 334.3953857421875 171.6237030029297 353.05206298828125 215.9759521484375 344.4334716796875" stroke-width="0.0" fill="rgb(219, 0, 22)" opacity="0.9472553" stroke="rgb(164, 53, 220)" stroke-opacity="0.34054628" stroke-linecap="round" stroke-linejoin="round"/>
    <path d="M 511.6450500488281 470.84454345703125 C 408.35430908203125 420.716064453125 496.9345397949219 309.543212890625 353.9118957519531 343.95880126953125 C 370.08819580078125 383.432861328125 260.7817077636719 382.5284118652344 215.66871643066406 283.2052917480469 C 382.3814392089844 282.25079345703125 404.9256591796875 243.80023193359375 396.27923583984375 281.2459411621094 C 538.0319213867188 290.28558349609375 545.1725463867188 245.54852294921875 511.6450500488281 470.84454345703125" stroke-width="0.0" fill="rgb(80, 91, 18)" opacity="0.49418396" stroke="rgb(252, 144, 132)" stroke-opacity="0.724188" stroke-linecap="round" stroke-linejoin="round"/>
    <path d="M 20.158061981201172 33.557708740234375 C 23.381866455078125 43.90046310424805 25.70832061767578 48.928497314453125 10.532608985900879 54.38283920288086 C -9.508170127868652 50.113765716552734 -8.878663063049316 43.79278564453125 -8.419986724853516 18.456737518310547 C -9.744073867797852 11.162198066711426 -9.763673782348633 9.018320083618164 3.8784408569335938 6.6399993896484375 C 20.71388816833496 11.73398208618164 20.322254180908203 15.256375312805176 20.158061981201172 33.557708740234375" stroke-width="0.0" fill="rgb(237, 243, 252)" opacity="1.0" stroke="rgb(202, 237, 20)" stroke-opacity="0.9856614" stroke-linecap="round" stroke-linejoin="round"/>
    <path d="M 153.78724670410156 314.4881286621094 C 148.76913452148438 376.7964172363281 139.52359008789062 363.822265625 114.05192565917969 373.7273864746094 C 80.14124298095703 373.88519287109375 59.1442985534668 382.5069274902344 49.74697494506836 359.7798767089844 C 85.97689819335938 401.9988098144531 42.60564041137695 299.6432189941406 121.39881134033203 306.89947509765625 C 179.45616149902344 368.2275085449219 108.31300354003906 361.7068176269531 153.78724670410156 314.4881286621094" stroke-width="0.0" fill="rgb(246, 62, 8)" opacity="0.74385405" stroke="rgb(87, 152, 20)" stroke-opacity="0.28985882" stroke-linecap="round" stroke-linejoin="round"/>
    <path d="M 221.99774169921875 223.24099731445312 C 210.82469177246094 206.42262268066406 229.67752075195312 196.0548553466797 217.47117614746094 207.22994995117188 C 217.7899169921875 170.08421325683594 215.07452392578125 167.3558807373047 217.04141235351562 190.645263671875 C 221.65467834472656 213.92160034179688 208.449462890625 103.47759246826172 217.7377471923828 117.49640655517578 C 220.99302673339844 198.9580841064453 223.8742218017578 218.93154907226562 221.99774169921875 223.24099731445312" stroke-width="0.0" fill="rgb(103, 140, 177)" opacity="0.89017475" stroke="rgb(14, 249, 45)" stroke-opacity="0.8244234" stroke-linecap="round" stroke-linejoin="round"/>
    <path d="M 365.8272705078125 445.29180908203125 C 289.0671081542969 445.9350280761719 287.22235107421875 445.07537841796875 279.33990478515625 445.92626953125 C 293.2825927734375 444.0019226074219 287.4920349121094 446.12469482421875 260.69158935546875 445.4327087402344 C 272.4421081542969 429.0906677246094 269.25079345703125 422.5614929199219 281.1058654785156 423.2584228515625 C 362.170654296875 423.9881286621094 347.6642150878906 412.5973205566406 365.8272705078125 445.29180908203125" stroke-width="0.0" fill="rgb(31, 62, 159)" opacity="1.0" stroke="rgb(124, 79, 5)" stroke-opacity="0.034773465" stroke-linecap="round" stroke-linejoin="round"/>
    <path d="M 277.43353271484375 425.83917236328125 C 287.26385498046875 450.0569763183594 304.4534912109375 444.54144287109375 211.9823455810547 445.92681884765625 C 156.04913330078125 445.473876953125 162.95115661621094 452.74066162109375 177.58169555664062 422.9685363769531 C 227.16781616210938 416.1331787109375 264.121826171875 432.2753601074219 290.7308349609375 421.249267578125 C 217.8018341064453 421.69256591796875 224.89923095703125 420.77154541015625 277.43353271484375 425.83917236328125" stroke-width="0.0" fill="rgb(13, 53, 154)" opacity="0.94563866" stroke="rgb(46, 74, 79)" stroke-opacity="0.3333518" stroke-linecap="round" stroke-linejoin="round"/>
    <path d="M 349.8025207519531 418.67034912109375 C 369.0723571777344 440.5856628417969 321.9791564941406 422.2541198730469 270.0943908691406 434.5023498535156 C 295.7456970214844 420.8965148925781 280.7870788574219 436.21575927734375 210.446044921875 422.9978942871094 C 265.66571044921875 419.8126525878906 295.2803955078125 425.9636535644531 292.77484130859375 417.90509033203125 C 292.1543884277344 419.34234619140625 319.3037109375 430.3441467285156 349.8025207519531 418.67034912109375" stroke-width="0.0" fill="rgb(1, 30, 138)" opacity="0.9552692" stroke="rgb(87, 17, 236)" stroke-opacity="0.7071696" stroke-linecap="round" stroke-linejoin="round"/>
    <path d="M 154.49961853027344 404.7579345703125 C 156.33811950683594 433.987060546875 163.1437225341797 433.47186279296875 154.25917053222656 414.22265625 C 105.68501281738281 462.0167541503906 64.05443572998047 458.376953125 97.19760131835938 372.9848937988281 C 102.1943588256836 360.23297119140625 111.02095031738281 415.6499938964844 123.72059631347656 359.8480529785156 C 149.35012817382812 432.0455017089844 128.39691162109375 361.3418273925781 154.49961853027344 404.7579345703125" stroke-width="0.0" fill="rgb(255, 44, 41)" opacity="0.68905175" stroke="rgb(124, 189, 41)" stroke-opacity="0.25497976" stroke-linecap="round" stroke-linejoin="round"/>
    <path d="M 123.72756958007812 448.2205505371094 C 188.0681915283203 452.83392333984375 184.8158721923828 456.6120300292969 134.66773986816406 458.7197265625 C 57.383323669433594 458.2817687988281 38.86521911621094 458.7867126464844 37.18785095214844 458.8602294921875 C 62.10098648071289 441.2900695800781 66.94512939453125 439.6494445800781 90.7353286743164 440.6470947265625 C 94.04957580566406 447.9432373046875 74.31905364990234 453.5335693359375 123.72756958007812 448.2205505371094" stroke-width="0.0" fill="rgb(237, 245, 255)" opacity="0.75945824" stroke="rgb(21, 134, 43)" stroke-opacity="0.035028435" stroke-linecap="round" stroke-linejoin="round"/>
    <path d="M 23.925188064575195 273.7013244628906 C 23.190624237060547 292.0787048339844 27.42140007019043 284.3602294921875 17.069814682006836 284.5503234863281 C -9.716591835021973 283.9457702636719 1.365113377571106 302.9245300292969 -6.91120719909668 281.2864685058594 C -5.7850470542907715 257.38861083984375 -3.370382785797119 257.1488952636719 10.1200532913208 258.0193176269531 C 20.91839599609375 252.4701385498047 22.1633243560791 263.73291015625 23.925188064575195 273.7013244628906" stroke-width="0.0" fill="rgb(255, 255, 243)" opacity="0.8446532" stroke="rgb(228, 188, 214)" stroke-opacity="0.8008674" stroke-linecap="round" stroke-linejoin="round"/>
    <path d="M 23.397497177124023 257.34539794921875 C 23.91000747680664 266.6929626464844 25.78186798095703 294.7425231933594 24.26152229309082 291.4728088378906 C 14.37774658203125 264.370849609375 -4.287595272064209 277.90545654296875 -9.743886947631836 239.22535705566406 C -1.8514188528060913 219.00811767578125 19.721391677856445 216.6565704345703 12.994034767150879 248.76585388183594 C 19.72446060180664 262.1945495605469 24.62944984436035 251.11865234375 23.397497177124023 257.34539794921875" stroke-width="0.0" fill="rgb(233, 235, 237)" opacity="0.9539024" stroke="rgb(226, 180, 101)" stroke-opacity="0.09418481" stroke-linecap="round" stroke-linejoin="round"/>
    <path d="M 149.69073486328125 435.8669738769531 C 108.894775390625 425.2555847167969 167.9326629638672 456.0736083984375 116.99571990966797 449.7162170410156 C 118.47936248779297 400.84954833984375 100.83929443359375 440.61822509765625 -27.361568450927734 482.0268249511719 C -31.898908615112305 250.34487915039062 68.36723327636719 252.75404357910156 80.7861328125 373.97467041015625 C 92.1924819946289 460.0705871582031 148.57559204101562 408.19671630859375 149.69073486328125 435.8669738769531" stroke-width="0.0" fill="rgb(127, 85, 2)" opacity="0.45993713" stroke="rgb(213, 184, 35)" stroke-opacity="0.31632715" stroke-linecap="round" stroke-linejoin="round"/>
    <path d="M 41.30971145629883 6.624902725219727 C 33.65510559082031 31.649328231811523 26.200334548950195 28.026689529418945 6.941775321960449 25.47015380859375 C -4.83522367477417 24.667037963867188 -10.215397834777832 21.476852416992188 -8.716331481933594 13.776548385620117 C -7.254298210144043 -3.968411445617676 -6.325819969177246 -6.439413547515869 1.0127404928207397 -10.385438919067383 C 23.5700740814209 -10.954497337341309 29.269968032836914 -9.937124252319336 41.30971145629883 6.624902725219727" stroke-width="0.0" fill="rgb(249, 250, 254)" opacity="1.0" stroke="rgb(147, 5, 78)" stroke-opacity="0.7620718" stroke-linecap="round" stroke-linejoin="round"/>
    <path d="M 472.8147277832031 338.4861755371094 C 458.1802978515625 363.219482421875 439.17364501953125 366.43426513671875 405.9978332519531 368.6341552734375 C 376.6485595703125 367.4159240722656 358.99560546875 371.4091491699219 365.9298095703125 307.79107666015625 C 400.56292724609375 364.6437072753906 402.84478759765625 337.0393371582031 414.7365417480469 314.09027099609375 C 425.5665283203125 336.30120849609375 463.26092529296875 345.6895751953125 472.8147277832031 338.4861755371094" stroke-width="0.0" fill="rgb(253, 84, 0)" opacity="0.84295005" stroke="rgb(228, 63, 123)" stroke-opacity="0.04659683" stroke-linecap="round" stroke-linejoin="round"/>
  </g>
</svg>
