<?xml version="1.0" ?>
<svg xmlns="http://www.w3.org/2000/svg" version="1.1" width="512" height="470">
  <defs/>
  <g>
    <path d="M 328.2889099121094 481.4318542480469 C 315.3924560546875 475.0830078125 320.0624084472656 474.61846923828125 316.8941345214844 485.6946105957031 C 293.0592956542969 482.9300842285156 287.0333251953125 481.9094543457031 309.45343017578125 498.10418701171875 C 356.1692199707031 453.2434997558594 266.5021057128906 498.5757751464844 114.7148208618164 439.4770812988281 C 381.82830810546875 431.6372375488281 388.1146545410156 439.8774719238281 328.2889099121094 481.4318542480469" stroke-width="0.0" fill="rgb(189, 237, 255)" opacity="0.60142934" stroke="rgb(236, 226, 118)" stroke-opacity="0.8446396" stroke-linecap="round" stroke-linejoin="round"/>
    <path d="M 458.03900146484375 -12.394222259521484 C 458.0389404296875 40.189571380615234 458.07489013671875 41.93484878540039 458.5412902832031 77.63163757324219 C 362.08050537109375 76.29228210449219 338.0081787109375 67.7557144165039 345.43243408203125 -0.08958132565021515 C 394.5606994628906 -18.087751388549805 404.037353515625 -6.16163444519043 414.7857360839844 -8.905460357666016 C 445.8409729003906 -8.542219161987305 446.58245849609375 -8.577502250671387 458.03900146484375 -12.394222259521484" stroke-width="0.0" fill="rgb(249, 250, 255)" opacity="0.98745716" stroke="rgb(195, 47, 201)" stroke-opacity="0.4667232" stroke-linecap="round" stroke-linejoin="round"/>
    <path d="M 239.43251037597656 54.833892822265625 C 107.52820587158203 130.37864685058594 86.54058074951172 164.36199951171875 13.616783142089844 76.87005615234375 C 14.141865730285645 57.601173400878906 13.992913246154785 94.10944366455078 14.01039981842041 -0.11669402569532394 C 25.54019546508789 -12.502409934997559 38.15095138549805 -11.41198444366455 88.35928344726562 -13.24691390991211 C 163.88418579101562 -31.43204116821289 220.42567443847656 -79.03144836425781 239.43251037597656 54.833892822265625" stroke-width="0.0" fill="rgb(240, 246, 255)" opacity="0.97452104" stroke="rgb(251, 240, 146)" stroke-opacity="0.8482647" stroke-linecap="round" stroke-linejoin="round"/>
    <path d="M 491.9091491699219 457.7520446777344 C 405.72711181640625 457.5221252441406 379.0527038574219 458.052001953125 403.9555969238281 456.8775634765625 C 398.4991455078125 456.7877197265625 395.31878662109375 457.13616943359375 347.2041931152344 456.60345458984375 C 379.11639404296875 438.1974792480469 350.318115234375 436.63702392578125 393.78204345703125 439.2942810058594 C 484.2366027832031 441.35125732421875 456.0742492675781 428.6587219238281 491.9091491699219 457.7520446777344" stroke-width="0.0" fill="rgb(227, 245, 255)" opacity="0.7958257" stroke="rgb(250, 173, 65)" stroke-opacity="0.2355924" stroke-linecap="round" stroke-linejoin="round"/>
    <path d="M 449.5525817871094 420.2413635253906 C 446.44879150390625 463.6476745605469 466.2541809082031 444.29754638671875 391.2261657714844 449.3899230957031 C 378.1039733886719 426.38665771484375 448.14862060546875 445.0640563964844 389.4317321777344 430.6031494140625 C 403.01605224609375 373.67034912109375 393.6297607421875 359.9695739746094 412.79827880859375 373.20648193359375 C 438.43798828125 363.1963806152344 434.3096923828125 360.0932922363281 449.5525817871094 420.2413635253906" stroke-width="0.0" fill="rgb(32, 69, 187)" opacity="0.95724404" stroke="rgb(155, 254, 168)" stroke-opacity="0.09986947" stroke-linecap="round" stroke-linejoin="round"/>
    <path d="M 352.9679870605469 378.6750793457031 C 353.3482666015625 408.4293518066406 327.0301513671875 418.7973937988281 318.4107360839844 418.771728515625 C 303.4819030761719 422.729248046875 273.1327209472656 409.4432067871094 276.4106140136719 386.4981994628906 C 277.05499267578125 369.8748474121094 305.5382080078125 348.6108703613281 288.14300537109375 370.3127136230469 C 280.3843994140625 414.1531982421875 338.3397521972656 413.32879638671875 352.9679870605469 378.6750793457031" stroke-width="0.0" fill="rgb(227, 0, 17)" opacity="0.98352563" stroke="rgb(85, 114, 119)" stroke-opacity="0.49815932" stroke-linecap="round" stroke-linejoin="round"/>
    <path d="M 254.0894775390625 401.4744567871094 C 383.3056945800781 457.9517822265625 417.2056884765625 442.3003234863281 167.3597869873047 446.46826171875 C 170.97354125976562 405.7939453125 241.98390197753906 410.1665954589844 214.7223358154297 385.7179870605469 C 202.7200164794922 364.63818359375 221.25125122070312 334.12872314453125 250.66531372070312 341.9264831542969 C 255.08920288085938 340.8692626953125 298.9626770019531 371.377197265625 254.0894775390625 401.4744567871094" stroke-width="0.0" fill="rgb(75, 0, 84)" opacity="0.71918553" stroke="rgb(129, 240, 202)" stroke-opacity="0.33732677" stroke-linecap="round" stroke-linejoin="round"/>
    <path d="M 483.7421875 110.71073150634766 C 488.8399353027344 130.64308166503906 480.6009216308594 126.64016723632812 413.72540283203125 123.59993743896484 C 383.8993225097656 119.37710571289062 370.9335632324219 119.06340026855469 373.17584228515625 82.06385803222656 C 410.42822265625 48.27838897705078 399.9364929199219 29.1809024810791 440.04083251953125 34.45955276489258 C 454.2649230957031 64.64192962646484 459.7243347167969 61.17859649658203 483.7421875 110.71073150634766" stroke-width="0.0" fill="rgb(248, 250, 255)" opacity="0.96045977" stroke="rgb(212, 219, 83)" stroke-opacity="0.29260895" stroke-linecap="round" stroke-linejoin="round"/>
    <path d="M 356.9915771484375 10.837876319885254 C 383.2127380371094 86.8073959350586 368.0008239746094 63.74313735961914 278.2025146484375 41.292945861816406 C 244.55636596679688 44.013221740722656 242.46151733398438 37.61616134643555 240.2368621826172 28.396041870117188 C 241.03651428222656 -6.250960826873779 241.00608825683594 -9.598417282104492 271.7715759277344 -12.257935523986816 C 308.90045166015625 -12.702346801757812 323.59991455078125 -24.908994674682617 356.9915771484375 10.837876319885254" stroke-width="0.0" fill="rgb(248, 250, 255)" opacity="0.9654928" stroke="rgb(9, 103, 185)" stroke-opacity="0.2589618" stroke-linecap="round" stroke-linejoin="round"/>
    <path d="M 168.8760986328125 165.72061157226562 C 166.9963836669922 230.69302368164062 188.3038330078125 210.7771453857422 126.08891296386719 202.52569580078125 C 79.5535888671875 210.2766876220703 47.953582763671875 220.3902587890625 -3.4722554683685303 254.21006774902344 C -20.463417053222656 10.249788284301758 -14.947162628173828 14.0587158203125 66.67650604248047 91.71605682373047 C 199.91424560546875 106.28118133544922 157.7591094970703 97.47282409667969 168.8760986328125 165.72061157226562" stroke-width="0.0" fill="rgb(242, 245, 251)" opacity="0.95129174" stroke="rgb(209, 229, 128)" stroke-opacity="0.5479656" stroke-linecap="round" stroke-linejoin="round"/>
    <path d="M 261.3352966308594 15.037891387939453 C 269.2200012207031 43.44023513793945 265.0570068359375 38.458065032958984 240.07350158691406 54.17527389526367 C 196.9198760986328 67.39323425292969 205.22694396972656 50.612403869628906 218.81680297851562 23.629274368286133 C 214.29864501953125 -8.450221061706543 212.4994659423828 -11.556780815124512 252.9467010498047 -9.849508285522461 C 263.1407470703125 -5.972162246704102 258.1581726074219 -4.463326930999756 261.3352966308594 15.037891387939453" stroke-width="0.0" fill="rgb(245, 248, 253)" opacity="0.98537505" stroke="rgb(82, 52, 224)" stroke-opacity="0.7213857" stroke-linecap="round" stroke-linejoin="round"/>
    <path d="M 522.8539428710938 75.47103881835938 C 523.6849975585938 124.6818618774414 520.6972045898438 128.15304565429688 467.0008544921875 119.64881896972656 C 446.6758728027344 96.40702819824219 445.93902587890625 94.41297149658203 450.1070556640625 62.31502914428711 C 446.6130676269531 31.815900802612305 441.6690979003906 23.9893798828125 494.11822509765625 27.053115844726562 C 514.4172973632812 31.06786346435547 521.9598388671875 27.16356086730957 522.8539428710938 75.47103881835938" stroke-width="0.0" fill="rgb(249, 250, 254)" opacity="0.99901664" stroke="rgb(49, 191, 37)" stroke-opacity="0.6289252" stroke-linecap="round" stroke-linejoin="round"/>
    <path d="M 521.472900390625 2.8843777179718018 C 525.649658203125 44.42680358886719 521.1482543945312 45.81332015991211 506.4599304199219 47.034332275390625 C 445.3004455566406 48.53620529174805 446.8113098144531 43.857322692871094 447.6426086425781 18.05938720703125 C 454.1001892089844 -15.893254280090332 463.5043640136719 -9.100815773010254 483.352294921875 -10.26209545135498 C 489.61895751953125 -4.428211688995361 502.7775573730469 -13.083541870117188 521.472900390625 2.8843777179718018" stroke-width="0.0" fill="rgb(248, 248, 253)" opacity="1.0" stroke="rgb(213, 178, 165)" stroke-opacity="0.053507727" stroke-linecap="round" stroke-linejoin="round"/>
    <path d="M 531.21630859375 152.14886474609375 C 541.2611083984375 264.8851623535156 483.62347412109375 287.0541687011719 485.0244445800781 227.20037841796875 C 400.47283935546875 220.40846252441406 413.1818542480469 226.92901611328125 432.33258056640625 171.8253173828125 C 436.1107177734375 153.79010009765625 442.7743835449219 145.16697692871094 449.0315246582031 116.6803970336914 C 512.7344360351562 108.7524642944336 521.1141357421875 101.10125732421875 531.21630859375 152.14886474609375" stroke-width="0.0" fill="rgb(255, 255, 255)" opacity="0.8088703" stroke="rgb(155, 55, 242)" stroke-opacity="0.031224595" stroke-linecap="round" stroke-linejoin="round"/>
    <path d="M 456.6705017089844 158.42835998535156 C 445.15509033203125 192.18899536132812 452.53924560546875 234.38705444335938 389.2748718261719 225.195556640625 C 373.35693359375 225.67539978027344 382.661376953125 225.48240661621094 377.3538513183594 172.93194580078125 C 377.47418212890625 87.05303192138672 358.19085693359375 90.3973388671875 430.7395935058594 105.54046630859375 C 473.7241516113281 111.98471069335938 473.1318664550781 116.7133560180664 456.6705017089844 158.42835998535156" stroke-width="0.0" fill="rgb(248, 254, 255)" opacity="0.8788827" stroke="rgb(31, 66, 253)" stroke-opacity="0.3908971" stroke-linecap="round" stroke-linejoin="round"/>
  </g>
</svg>
