<?xml version="1.0" ?>
<svg xmlns="http://www.w3.org/2000/svg" version="1.1" width="512" height="470">
  <defs/>
  <g>
    <path d="M 327.24652099609375 473.8805847167969 C 315.3924560546875 475.0830078125 320.0624084472656 474.61846923828125 316.8941345214844 485.6946105957031 C 293.0592956542969 482.9300842285156 287.0333251953125 481.9094543457031 309.4678649902344 497.9996643066406 C 356.8282470703125 452.3855895996094 274.47943115234375 494.61431884765625 131.3212890625 442.326904296875 C 393.6471862792969 434.7298583984375 387.94354248046875 433.9602966308594 327.24652099609375 473.8805847167969" stroke-width="0.0" fill="rgb(109, 144, 153)" opacity="0.41585267" stroke="rgb(236, 226, 118)" stroke-opacity="0.8446396" stroke-linecap="round" stroke-linejoin="round"/>
    <path d="M 457.8933410644531 -8.811450958251953 C 457.9646911621094 42.310760498046875 458.117919921875 40.9915657043457 458.02142333984375 77.93028259277344 C 362.04443359375 78.5936279296875 363.2657165527344 78.633544921875 367.3968811035156 -1.0208820104599 C 394.57659912109375 -18.0212345123291 404.037353515625 -6.16128396987915 414.7857360839844 -8.905471801757812 C 445.8409729003906 -8.542183876037598 446.58245849609375 -8.577349662780762 457.8933410644531 -8.811450958251953" stroke-width="0.0" fill="rgb(255, 255, 255)" opacity="0.7048593" stroke="rgb(195, 47, 201)" stroke-opacity="0.4667232" stroke-linecap="round" stroke-linejoin="round"/>
    <path d="M 225.52786254882812 62.77037811279297 C 136.40475463867188 126.06087493896484 86.15070343017578 119.9144515991211 42.26823806762695 56.3057861328125 C 9.643359184265137 49.450416564941406 14.372655868530273 73.59101104736328 14.092803001403809 -0.3339969515800476 C 25.614036560058594 -12.43982982635498 38.15315246582031 -11.410642623901367 87.79769134521484 -13.182161331176758 C 157.61614990234375 -28.539966583251953 199.7016143798828 -63.21830368041992 225.52786254882812 62.77037811279297" stroke-width="0.0" fill="rgb(255, 255, 255)" opacity="0.59165186" stroke="rgb(251, 240, 146)" stroke-opacity="0.8482647" stroke-linecap="round" stroke-linejoin="round"/>
  </g>
</svg>
