<?xml version="1.0" ?>
<svg xmlns="http://www.w3.org/2000/svg" version="1.1" width="512" height="512">
  <defs/>
  <g>
    <path d="M 0.0 0.0 L 512.0 0.0 L 512.0 512.0 L 0.0 512.0 L 0.0 0.0" stroke-width="0.0" fill="rgb(255, 255, 255)" opacity="1.0" stroke="rgb(0, 0, 0)" stroke-opacity="0.0" stroke-linecap="round" stroke-linejoin="round"/>
    <path d="M 397.0 79.0 L 213.0 78.0 C 208.04953002929688 83.02522277832031 228.24549865722656 90.27812194824219 225.0 99.0 C 195.0 100.1032943725586 165.0 98.1593246459961 135.0 102.0 C 137.04617309570312 112.14408874511719 124.46925354003906 107.2806396484375 119.0 110.0 L 1.0 110.0 L 0.0 276.0 C 12.448159217834473 279.22210693359375 28.915851593017578 274.0146484375 43.0 274.0 C 97.33333587646484 266.91668701171875 151.6666717529297 245.55746459960938 206.0 253.0 C 205.77871704101562 258.1379089355469 179.32252502441406 252.36856079101562 190.0 260.0 C 221.3333282470703 270.9805603027344 252.6666717529297 256.83251953125 284.0 254.0 C 286.374267578125 236.3333282470703 282.019775390625 218.6666717529297 302.0 201.0 C 317.0 195.3217315673828 332.0 202.82461547851562 347.0 200.0 C 350.3246154785156 191.3331756591797 342.7015686035156 178.0844268798828 357.0 174.0 C 357.1568908691406 167.02835083007812 354.3922119140625 153.60906982421875 366.0 154.0 C 373.94775390625 140.61068725585938 358.4289245605469 119.00770568847656 377.0 112.0 C 378.8585205078125 101.96648406982422 390.4046936035156 94.59327697753906 399.0 90.0 C 394.996826171875 86.66666412353516 392.8823547363281 83.33333587646484 397.0 79.0" stroke-width="2.0" fill="rgb(38, 133, 190)" opacity="1.0" stroke="rgb(0, 0, 0)" stroke-opacity="0.0" stroke-linecap="round" stroke-linejoin="round"/>
    <path d="M 0.0 0.0 L 0.0 41.0 L 22.0 41.0 C 40.841697692871094 63.13386535644531 61.753780364990234 45.725955963134766 82.0 50.0 C 123.0 58.155216217041016 164.0 66.66219329833984 205.0 76.0 C 307.0 76.2756118774414 409.0 75.31103515625 511.0 75.0 L 511.0 0.0 L 0.0 0.0" stroke-width="2.0" fill="rgb(247, 233, 206)" opacity="1.0" stroke="rgb(0, 0, 0)" stroke-opacity="0.0" stroke-linecap="round" stroke-linejoin="round"/>
    <path d="M 216.0 267.0 C 194.0 263.72821044921875 172.0 255.31246948242188 150.0 256.0 C 100.33333587646484 266.06890869140625 50.66666793823242 274.8877258300781 1.0 281.0 L 0.0 511.0 L 13.0 511.0 C 34.04021453857422 496.158447265625 57.612220764160156 489.32525634765625 77.0 474.0 C 74.72354125976562 458.09906005859375 84.47119903564453 443.24468994140625 103.0 432.0 C 94.72509765625 427.3139953613281 71.67422485351562 425.8046569824219 86.0 413.0 C 77.55638885498047 410.96533203125 57.280311584472656 415.91668701171875 57.0 402.0 C 53.66666793823242 401.03411865234375 50.33333206176758 400.2462158203125 47.0 396.0 C 54.83821105957031 383.7293395996094 52.982017517089844 365.51507568359375 71.0 358.0 C 79.6666030883789 354.4951477050781 88.14141845703125 365.8619689941406 89.0 374.0 C 105.14891815185547 370.89886474609375 98.17102813720703 393.27532958984375 112.0 391.0 C 114.00553131103516 369.6666564941406 110.0759506225586 348.3333435058594 122.0 327.0 C 137.38766479492188 314.43475341796875 143.30836486816406 334.17999267578125 150.0 344.0 C 151.2802276611328 353.06622314453125 148.02066040039062 367.2434997558594 153.0 373.0 C 154.7016143798828 358.6666564941406 154.51840209960938 344.3333435058594 155.0 330.0 C 171.1444549560547 311.0489196777344 200.0212860107422 294.4682312011719 204.0 274.0 C 208.0 269.1995849609375 212.0 269.848876953125 216.0 267.0" stroke-width="2.0" fill="rgb(38, 106, 169)" opacity="1.0" stroke="rgb(0, 0, 0)" stroke-opacity="0.0" stroke-linecap="round" stroke-linejoin="round"/>
    <path d="M 511.0 304.0 C 481.6449890136719 314.9865417480469 463.12664794921875 347.28448486328125 455.0 372.0 C 436.1726379394531 405.66156005859375 406.6929626464844 406.2900390625 382.0 424.0 C 368.3114318847656 453.0 346.3264465332031 482.0 327.0 511.0 L 511.0 511.0 L 511.0 304.0" stroke-width="2.0" fill="rgb(81, 84, 97)" opacity="1.0" stroke="rgb(0, 0, 0)" stroke-opacity="0.0" stroke-linecap="round" stroke-linejoin="round"/>
    <path d="M 511.0 358.0 C 483.071044921875 359.4919738769531 461.1552734375 394.6349792480469 454.0 418.0 C 425.6235046386719 417.93206787109375 384.6931457519531 443.6669921875 376.0 478.0 C 374.0680236816406 489.0 368.0230712890625 500.0 368.0 511.0 L 511.0 511.0 L 511.0 358.0" stroke-width="2.0" fill="rgb(36, 70, 97)" opacity="1.0" stroke="rgb(0, 0, 0)" stroke-opacity="0.0" stroke-linecap="round" stroke-linejoin="round"/>
    <path d="M 423.0 325.0 C 401.284423828125 335.7064208984375 374.3993835449219 339.5989990234375 356.0 360.0 C 349.1759948730469 383.6666564941406 359.9425048828125 407.3333435058594 333.0 431.0 C 298.560791015625 451.6116943359375 261.2304382324219 479.4981384277344 230.0 511.0 L 325.0 511.0 C 374.3381652832031 449.3333435058594 392.8382873535156 387.6666564941406 423.0 325.0" stroke-width="2.0" fill="rgb(37, 71, 97)" opacity="1.0" stroke="rgb(0, 0, 0)" stroke-opacity="0.0" stroke-linecap="round" stroke-linejoin="round"/>
    <path d="M 0.0 44.0 L 1.0 107.0 L 133.0 107.0 C 132.0043182373047 101.12631225585938 133.76882934570312 98.38884735107422 140.0 98.0 L 224.0 98.0 C 222.33145141601562 88.37948608398438 206.92547607421875 76.60659790039062 199.0 76.0 C 144.6666717529297 68.19066619873047 90.33333587646484 43.790584564208984 36.0 56.0 C 24.959880828857422 42.41889953613281 13.237394332885742 40.577919006347656 0.0 44.0" stroke-width="2.0" fill="rgb(91, 111, 148)" opacity="1.0" stroke="rgb(0, 0, 0)" stroke-opacity="0.0" stroke-linecap="round" stroke-linejoin="round"/>
    <path d="M 269.0 457.0 C 260.2204895019531 456.945068359375 258.5069885253906 450.1274719238281 253.0 446.0 C 246.6666717529297 443.7220153808594 240.3333282470703 446.9480285644531 234.0 448.0 C 223.0 445.2920227050781 212.0 440.1207580566406 201.0 439.0 C 154.3330841064453 460.8616943359375 105.00032806396484 485.17657470703125 60.0 511.0 L 200.0 511.0 C 223.0 492.89532470703125 246.0 474.51104736328125 269.0 457.0" stroke-width="2.0" fill="rgb(246, 196, 159)" opacity="1.0" stroke="rgb(0, 0, 0)" stroke-opacity="0.0" stroke-linecap="round" stroke-linejoin="round"/>
    <path d="M 149.0 388.0 L 149.0 398.0 C 166.0 403.8165588378906 183.0 407.7676696777344 200.0 411.0 C 200.4775848388672 385.8868103027344 229.62417602539062 351.4358825683594 256.0 363.0 C 284.2986755371094 373.0926208496094 294.0491943359375 405.2029724121094 294.0 426.0 C 311.927734375 417.24627685546875 339.9826354980469 404.22796630859375 335.0 383.0 C 322.66827392578125 348.0657043457031 284.63037109375 338.8257141113281 260.0 354.0 C 256.5586242675781 348.3333435058594 262.03717041015625 342.6666564941406 257.0 337.0 C 241.6666717529297 335.0452575683594 226.3333282470703 325.62408447265625 211.0 335.0 C 207.33883666992188 344.0 214.3107147216797 353.0 205.0 362.0 C 186.6666717529297 369.169677734375 168.3333282470703 378.0711669921875 149.0 388.0" stroke-width="2.0" fill="rgb(124, 188, 205)" opacity="1.0" stroke="rgb(0, 0, 0)" stroke-opacity="0.0" stroke-linecap="round" stroke-linejoin="round"/>
    <path d="M 413.0 78.0 C 410.4608154296875 81.21434020996094 412.48291015625 87.41824340820312 408.0 91.0 C 423.1963806152344 91.64830017089844 430.0882873535156 109.12035369873047 440.0 118.0 L 441.0 156.0 C 459.6497497558594 155.40402221679688 442.46990966796875 178.37265014648438 459.0 181.0 L 460.0 196.0 C 463.6666564941406 195.50050354003906 467.3333435058594 192.7535858154297 471.0 190.0 L 473.0 134.0 C 485.6666564941406 124.57496643066406 498.3333435058594 118.91486358642578 511.0 113.0 L 511.0 79.0 L 413.0 78.0" stroke-width="2.0" fill="rgb(39, 133, 189)" opacity="1.0" stroke="rgb(0, 0, 0)" stroke-opacity="0.0" stroke-linecap="round" stroke-linejoin="round"/>
    <path d="M 232.0 364.0 C 201.44046020507812 378.8492431640625 200.62545776367188 411.2714538574219 208.0 434.0 C 219.6666717529297 441.661376953125 231.3333282470703 450.2183837890625 243.0 441.0 C 245.4564971923828 426.3333435058594 237.30654907226562 411.6666564941406 249.0 397.0 C 254.3932647705078 394.73565673828125 259.4660949707031 402.44940185546875 260.0 407.0 L 260.0 451.0 C 275.484619140625 460.5576171875 281.2359924316406 434.4911193847656 293.0 426.0 C 297.3956604003906 398.38836669921875 265.87432861328125 351.31072998046875 232.0 364.0" stroke-width="2.0" fill="rgb(245, 228, 202)" opacity="1.0" stroke="rgb(0, 0, 0)" stroke-opacity="0.0" stroke-linecap="round" stroke-linejoin="round"/>
    <path d="M 511.0 115.0 C 498.9585876464844 121.07148742675781 484.389404296875 126.13294982910156 474.0 136.0 C 472.6712646484375 155.0 477.00732421875 174.0 471.0 193.0 C 454.429443359375 196.37789916992188 459.6324157714844 211.54978942871094 461.0 222.0 C 477.6666564941406 220.9342041015625 494.3333435058594 231.88955688476562 511.0 211.0 L 511.0 115.0" stroke-width="2.0" fill="rgb(246, 223, 195)" opacity="1.0" stroke="rgb(0, 0, 0)" stroke-opacity="0.0" stroke-linecap="round" stroke-linejoin="round"/>
    <path d="M 297.0 289.0 C 299.5235595703125 303.66845703125 321.3826904296875 300.5674743652344 332.0 304.0 C 351.3333435058594 304.5022277832031 370.6666564941406 304.423095703125 390.0 295.0 C 385.2874755859375 254.81057739257812 330.9533996582031 234.78794860839844 305.0 271.0 L 297.0 289.0" stroke-width="2.0" fill="rgb(40, 126, 183)" opacity="1.0" stroke="rgb(0, 0, 0)" stroke-opacity="0.0" stroke-linecap="round" stroke-linejoin="round"/>
    <path d="M 74.0 359.0 C 56.20771026611328 364.3932800292969 56.69038009643555 383.2483215332031 49.0 396.0 C 54.54479217529297 400.73138427734375 64.60381317138672 396.72467041015625 58.0 406.0 C 68.00485229492188 413.8601989746094 80.66018676757812 404.9557189941406 89.0 414.0 C 71.92185974121094 426.20703125 98.51191711425781 424.3583984375 106.0 432.0 C 87.36762237548828 442.3684997558594 73.3228530883789 460.321044921875 80.0 475.0 L 112.0 458.0 L 113.0 394.0 C 96.40982055664062 396.457275390625 104.2250747680664 372.6278076171875 88.0 376.0 C 84.2568359375 370.3818359375 83.9281997680664 360.03314208984375 74.0 359.0" stroke-width="2.0" fill="rgb(48, 69, 91)" opacity="1.0" stroke="rgb(0, 0, 0)" stroke-opacity="0.0" stroke-linecap="round" stroke-linejoin="round"/>
    <path d="M 105.0 58.0 C 111.29962158203125 72.24282836914062 118.31721496582031 87.81769561767578 133.0 98.0 L 224.0 97.0 C 221.3098907470703 90.18111419677734 213.38772583007812 83.19509887695312 206.0 78.0 L 105.0 58.0" stroke-width="2.0" fill="rgb(158, 114, 120)" opacity="1.0" stroke="rgb(0, 0, 0)" stroke-opacity="0.0" stroke-linecap="round" stroke-linejoin="round"/>
    <path d="M 390.0 171.0 C 367.99981689453125 189.50082397460938 381.5408020019531 216.2108612060547 378.0 238.0 L 419.0 242.0 C 418.1078796386719 218.55914306640625 432.02191162109375 190.1467742919922 406.0 170.0 C 401.0 168.0566864013672 396.0 169.15065002441406 390.0 171.0" stroke-width="2.0" fill="rgb(137, 150, 161)" opacity="1.0" stroke="rgb(0, 0, 0)" stroke-opacity="0.0" stroke-linecap="round" stroke-linejoin="round"/>
    <path d="M 214.0 289.0 L 203.0 285.0 C 189.62625122070312 300.9727783203125 173.31605529785156 314.1628723144531 157.0 330.0 L 157.0 372.0 C 170.41116333007812 363.0633239746094 199.88763427734375 362.32904052734375 198.0 343.0 C 191.42677307128906 342.8931884765625 188.82638549804688 338.9143371582031 191.0 333.0 C 196.57461547851562 318.6666564941406 216.36264038085938 304.3333435058594 214.0 289.0" stroke-width="2.0" fill="rgb(211, 128, 102)" opacity="1.0" stroke="rgb(0, 0, 0)" stroke-opacity="0.0" stroke-linecap="round" stroke-linejoin="round"/>
    <path d="M 285.0 257.0 C 259.0 256.48626708984375 233.0 269.2200927734375 207.0 273.0 C 195.94778442382812 285.8512268066406 216.20999145507812 283.67938232421875 217.0 295.0 C 210.7334747314453 310.3333435058594 191.19271850585938 325.6666564941406 191.0 341.0 C 199.65354919433594 343.58721923828125 196.87184143066406 335.383544921875 202.0 330.0 L 222.0 321.0 C 224.9150390625 309.0 219.89813232421875 297.0 232.0 285.0 C 249.6666717529297 278.8113708496094 267.3333435058594 275.0389404296875 285.0 270.0 L 285.0 257.0" stroke-width="2.0" fill="rgb(243, 195, 160)" opacity="1.0" stroke="rgb(0, 0, 0)" stroke-opacity="0.0" stroke-linecap="round" stroke-linejoin="round"/>
    <path d="M 239.0 283.0 C 221.4857940673828 290.51507568359375 225.2196044921875 308.7293395996094 225.0 321.0 C 235.3571319580078 333.3033142089844 248.18539428710938 330.0705871582031 260.0 336.0 C 274.891357421875 329.0735168457031 266.0333557128906 311.65753173828125 267.0 300.0 C 263.4527893066406 288.8127746582031 249.3946075439453 278.287109375 239.0 283.0" stroke-width="2.0" fill="rgb(240, 231, 206)" opacity="1.0" stroke="rgb(0, 0, 0)" stroke-opacity="0.0" stroke-linecap="round" stroke-linejoin="round"/>
    <path d="M 399.0 170.0 C 377.5349426269531 186.69216918945312 388.8630676269531 207.64773559570312 386.0 226.0 L 420.0 229.0 C 417.4693298339844 210.67811584472656 429.93377685546875 175.5310821533203 399.0 170.0" stroke-width="2.0" fill="rgb(82, 135, 171)" opacity="1.0" stroke="rgb(0, 0, 0)" stroke-opacity="0.0" stroke-linecap="round" stroke-linejoin="round"/>
    <path d="M 304.0 268.0 C 286.3333435058594 269.13494873046875 268.6666564941406 277.28277587890625 251.0 281.0 C 272.8008728027344 290.90985107421875 268.33905029296875 314.78875732421875 270.0 331.0 C 275.3333435058594 330.58551025390625 280.6666564941406 327.9828796386719 286.0 325.0 C 288.6400146484375 313.5075988769531 278.6021423339844 293.8045959472656 296.0 290.0 C 296.9986572265625 283.0 301.85467529296875 276.0 304.0 268.0" stroke-width="2.0" fill="rgb(125, 187, 204)" opacity="1.0" stroke="rgb(0, 0, 0)" stroke-opacity="0.0" stroke-linecap="round" stroke-linejoin="round"/>
    <path d="M 386.0 275.0 C 390.1675720214844 284.492919921875 389.3254089355469 293.8150939941406 401.0 297.0 L 401.0 319.0 C 421.41748046875 318.8085021972656 429.7525634765625 297.7085266113281 435.0 281.0 L 386.0 275.0" stroke-width="2.0" fill="rgb(235, 199, 168)" opacity="1.0" stroke="rgb(0, 0, 0)" stroke-opacity="0.0" stroke-linecap="round" stroke-linejoin="round"/>
    <path d="M 451.0 180.0 L 450.0 243.0 C 461.7114562988281 252.4472198486328 480.29864501953125 239.9438018798828 492.0 226.0 L 458.0 223.0 L 458.0 184.0 C 456.818115234375 181.38478088378906 454.4652404785156 179.6985626220703 451.0 180.0" stroke-width="2.0" fill="rgb(126, 187, 203)" opacity="1.0" stroke="rgb(0, 0, 0)" stroke-opacity="0.0" stroke-linecap="round" stroke-linejoin="round"/>
    <path d="M 511.0 200.0 C 494.0 197.82386779785156 477.0 196.36138916015625 460.0 210.0 C 453.43243408203125 231.07708740234375 483.361572265625 220.3236846923828 495.0 224.0 C 503.8373107910156 217.66165161132812 514.8618774414062 210.02439880371094 511.0 200.0" stroke-width="2.0" fill="rgb(244, 196, 160)" opacity="1.0" stroke="rgb(0, 0, 0)" stroke-opacity="0.0" stroke-linecap="round" stroke-linejoin="round"/>
    <path d="M 398.0 104.0 C 382.43768310546875 117.10997009277344 393.2036437988281 138.58555603027344 390.0 155.0 L 410.0 156.0 C 405.9891052246094 139.61520385742188 419.84283447265625 112.3391342163086 398.0 104.0" stroke-width="2.0" fill="rgb(130, 143, 159)" opacity="1.0" stroke="rgb(0, 0, 0)" stroke-opacity="0.0" stroke-linecap="round" stroke-linejoin="round"/>
    <path d="M 243.0 397.0 C 231.39447021484375 410.7023010253906 239.37213134765625 428.6402282714844 237.0 444.0 C 243.6666717529297 441.0763244628906 250.3333282470703 442.8961486816406 257.0 445.0 C 258.25396728515625 432.2529296875 267.7567443847656 397.1151428222656 243.0 397.0" stroke-width="2.0" fill="rgb(109, 141, 165)" opacity="1.0" stroke="rgb(0, 0, 0)" stroke-opacity="0.0" stroke-linecap="round" stroke-linejoin="round"/>
    <path d="M 137.0 328.0 C 126.79812622070312 349.6666564941406 136.2456817626953 371.3333435058594 132.0 393.0 C 135.28659057617188 397.0276794433594 142.12646484375 396.8288269042969 147.0 398.0 C 145.6559295654297 374.46258544921875 154.55198669433594 348.6492614746094 137.0 328.0" stroke-width="2.0" fill="rgb(235, 156, 127)" opacity="1.0" stroke="rgb(0, 0, 0)" stroke-opacity="0.0" stroke-linecap="round" stroke-linejoin="round"/>
    <path d="M 112.0 430.0 C 92.24390411376953 437.5927734375 74.24227142333984 456.80523681640625 78.0 475.0 C 89.66666412353516 470.72149658203125 101.33333587646484 464.7994384765625 113.0 457.0 L 112.0 430.0" stroke-width="2.0" fill="rgb(37, 65, 87)" opacity="1.0" stroke="rgb(0, 0, 0)" stroke-opacity="0.0" stroke-linecap="round" stroke-linejoin="round"/>
    <path d="M 249.0 398.0 C 240.7083740234375 412.3333435058594 245.54002380371094 426.6666564941406 244.0 441.0 L 258.0 445.0 C 259.3726501464844 430.3333435058594 260.3892822265625 415.6666564941406 257.0 401.0 C 254.6666717529297 397.662353515625 252.3333282470703 397.7209777832031 249.0 398.0" stroke-width="2.0" fill="rgb(49, 132, 183)" opacity="1.0" stroke="rgb(0, 0, 0)" stroke-opacity="0.0" stroke-linecap="round" stroke-linejoin="round"/>
    <path d="M 399.0 298.0 C 390.6666564941406 299.5498352050781 382.3333435058594 304.34423828125 374.0 307.0 L 374.0 332.0 L 399.0 321.0 L 399.0 298.0" stroke-width="2.0" fill="rgb(126, 187, 202)" opacity="1.0" stroke="rgb(0, 0, 0)" stroke-opacity="0.0" stroke-linecap="round" stroke-linejoin="round"/>
    <path d="M 470.0 328.0 C 445.8399353027344 327.19891357421875 440.6424560546875 356.6337585449219 452.0 372.0 L 473.0 331.0 L 470.0 328.0" stroke-width="2.0" fill="rgb(177, 154, 86)" opacity="1.0" stroke="rgb(0, 0, 0)" stroke-opacity="0.0" stroke-linecap="round" stroke-linejoin="round"/>
    <path d="M 387.0 188.0 C 388.5000305175781 196.26187133789062 401.4643859863281 191.6057586669922 404.0 187.0 C 405.8595275878906 196.10296630859375 413.96490478515625 192.23651123046875 420.0 193.0 C 423.76898193359375 170.92108154296875 388.0690612792969 161.1202850341797 387.0 188.0" stroke-width="2.0" fill="rgb(49, 133, 183)" opacity="1.0" stroke="rgb(0, 0, 0)" stroke-opacity="0.0" stroke-linecap="round" stroke-linejoin="round"/>
    <path d="M 405.0 106.0 C 393.1283874511719 120.6983413696289 400.9610900878906 139.64317321777344 399.0 156.0 L 410.0 156.0 C 407.8727722167969 139.6666717529297 414.5758972167969 123.33333587646484 405.0 106.0" stroke-width="2.0" fill="rgb(51, 133, 183)" opacity="1.0" stroke="rgb(0, 0, 0)" stroke-opacity="0.0" stroke-linecap="round" stroke-linejoin="round"/>
    <path d="M 93.0 74.0 C 97.77869415283203 86.32987976074219 97.92320251464844 113.31005096435547 117.0 108.0 C 116.18414306640625 96.04740905761719 111.74462127685547 71.17282104492188 93.0 74.0" stroke-width="2.0" fill="rgb(148, 114, 127)" opacity="1.0" stroke="rgb(0, 0, 0)" stroke-opacity="0.0" stroke-linecap="round" stroke-linejoin="round"/>
    <path d="M 87.0 54.0 C 80.66666412353516 50.289207458496094 74.33333587646484 52.67825698852539 68.0 52.0 C 63.300559997558594 61.33333206176758 56.8085823059082 70.66666412353516 55.0 80.0 C 67.89971923828125 82.37940216064453 79.91606903076172 67.4059066772461 87.0 54.0" stroke-width="2.0" fill="rgb(152, 113, 125)" opacity="1.0" stroke="rgb(0, 0, 0)" stroke-opacity="0.0" stroke-linecap="round" stroke-linejoin="round"/>
    <path d="M 292.0 228.0 L 293.0 232.0 C 311.3333435058594 232.70896911621094 329.6666564941406 236.33277893066406 348.0 236.0 L 347.0 228.0 C 329.3316955566406 228.96897888183594 309.002197265625 220.39772033691406 292.0 228.0" stroke-width="2.0" fill="rgb(243, 201, 165)" opacity="1.0" stroke="rgb(0, 0, 0)" stroke-opacity="0.0" stroke-linecap="round" stroke-linejoin="round"/>
    <path d="M 411.0 95.0 C 423.98291015625 103.6490707397461 419.9627990722656 116.4482421875 432.0 118.0 L 432.0 157.0 L 439.0 157.0 L 439.0 119.0 C 429.6771240234375 116.72962188720703 427.15191650390625 92.91072845458984 411.0 95.0" stroke-width="2.0" fill="rgb(122, 186, 207)" opacity="1.0" stroke="rgb(0, 0, 0)" stroke-opacity="0.0" stroke-linecap="round" stroke-linejoin="round"/>
    <path d="M 379.0 238.0 C 392.6666564941406 240.37985229492188 406.3333435058594 241.77798461914062 420.0 242.0 L 420.0 230.0 L 386.0 227.0 L 379.0 238.0" stroke-width="2.0" fill="rgb(242, 196, 162)" opacity="1.0" stroke="rgb(0, 0, 0)" stroke-opacity="0.0" stroke-linecap="round" stroke-linejoin="round"/>
    <path d="M 402.0 104.0 C 396.8321228027344 102.18661499023438 391.5174255371094 107.66657257080078 390.0 113.0 C 391.29949951171875 127.03125762939453 387.37896728515625 143.62445068359375 392.0 156.0 L 398.0 155.0 C 399.97369384765625 138.3333282470703 393.27392578125 121.66666412353516 402.0 104.0" stroke-width="2.0" fill="rgb(227, 156, 130)" opacity="1.0" stroke="rgb(0, 0, 0)" stroke-opacity="0.0" stroke-linecap="round" stroke-linejoin="round"/>
    <path d="M 386.0 194.0 C 388.6957092285156 199.16964721679688 395.6449890136719 192.62142944335938 400.0 199.0 C 396.6832275390625 204.50076293945312 393.0687561035156 212.10247802734375 397.0 216.0 C 402.0 214.9202880859375 407.0 218.31532287597656 412.0 214.0 C 407.6884460449219 209.0 410.86859130859375 204.0 406.0 199.0 C 409.47088623046875 193.4977569580078 423.891357421875 201.5170135498047 418.0 194.0 C 409.09991455078125 200.02369689941406 402.5082702636719 181.7071990966797 400.0 193.0 L 386.0 194.0" stroke-width="2.0" fill="rgb(185, 141, 132)" opacity="1.0" stroke="rgb(0, 0, 0)" stroke-opacity="0.0" stroke-linecap="round" stroke-linejoin="round"/>
    <path d="M 66.0 238.0 C 81.33549499511719 242.4751434326172 99.3304443359375 238.38262939453125 113.0 229.0 C 104.66666412353516 228.1352081298828 96.33333587646484 232.65646362304688 88.0 233.0 C 82.06644439697266 226.9876708984375 83.446044921875 218.3498077392578 79.0 214.0 C 76.7613296508789 223.0808563232422 76.924560546875 236.25242614746094 66.0 238.0" stroke-width="2.0" fill="rgb(209, 221, 216)" opacity="1.0" stroke="rgb(0, 0, 0)" stroke-opacity="0.0" stroke-linecap="round" stroke-linejoin="round"/>
    <path d="M 249.0 396.0 C 243.47959899902344 393.9818115234375 237.46661376953125 400.5718078613281 237.0 406.0 L 237.0 445.0 C 253.067138671875 435.1189880371094 234.53453063964844 410.1707458496094 249.0 396.0" stroke-width="2.0" fill="rgb(226, 158, 130)" opacity="1.0" stroke="rgb(0, 0, 0)" stroke-opacity="0.0" stroke-linecap="round" stroke-linejoin="round"/>
    <path d="M 314.0 317.0 C 309.672607421875 324.7983093261719 306.0265197753906 346.5550231933594 321.0 343.0 C 319.3364562988281 335.11810302734375 326.1339416503906 318.4300537109375 314.0 317.0" stroke-width="2.0" fill="rgb(47, 126, 177)" opacity="1.0" stroke="rgb(0, 0, 0)" stroke-opacity="0.0" stroke-linecap="round" stroke-linejoin="round"/>
    <path d="M 49.0 392.0 C 50.4300422668457 405.7420959472656 67.11809539794922 393.509033203125 75.0 398.0 C 74.53756713867188 387.91802978515625 58.14947509765625 382.21343994140625 49.0 392.0" stroke-width="2.0" fill="rgb(130, 100, 111)" opacity="1.0" stroke="rgb(0, 0, 0)" stroke-opacity="0.0" stroke-linecap="round" stroke-linejoin="round"/>
    <path d="M 179.0 229.0 C 200.0011749267578 231.54258728027344 223.6650848388672 229.126220703125 243.0 226.0 C 222.0 225.7013397216797 201.0 223.93356323242188 179.0 229.0" stroke-width="2.0" fill="rgb(34, 120, 181)" opacity="1.0" stroke="rgb(0, 0, 0)" stroke-opacity="0.0" stroke-linecap="round" stroke-linejoin="round"/>
    <path d="M 357.0 319.0 C 345.92095947265625 318.15771484375 345.7663879394531 353.3559265136719 360.0 338.0 C 359.5888366699219 332.3197021484375 361.26873779296875 324.01824951171875 357.0 319.0" stroke-width="2.0" fill="rgb(136, 189, 200)" opacity="1.0" stroke="rgb(0, 0, 0)" stroke-opacity="0.0" stroke-linecap="round" stroke-linejoin="round"/>
    <path d="M 401.0 320.0 C 407.77398681640625 316.736328125 419.5202941894531 314.86322021484375 423.0 308.0 C 415.6666564941406 306.6180725097656 408.3333435058594 307.7052001953125 401.0 305.0 L 401.0 320.0" stroke-width="2.0" fill="rgb(192, 211, 207)" opacity="1.0" stroke="rgb(0, 0, 0)" stroke-opacity="0.0" stroke-linecap="round" stroke-linejoin="round"/>
    <path d="M 442.0 158.0 C 441.4632568359375 164.8772430419922 436.5588684082031 180.94677734375 448.0 180.0 C 448.39300537109375 173.1039581298828 453.34039306640625 158.61245727539062 442.0 158.0" stroke-width="2.0" fill="rgb(124, 185, 205)" opacity="1.0" stroke="rgb(0, 0, 0)" stroke-opacity="0.0" stroke-linecap="round" stroke-linejoin="round"/>
    <path d="M 69.0 362.0 C 57.98245620727539 363.2564697265625 49.291019439697266 388.2226257324219 66.0 381.0 C 68.4087905883789 375.0 67.58401489257812 369.0 69.0 362.0" stroke-width="2.0" fill="rgb(113, 97, 111)" opacity="1.0" stroke="rgb(0, 0, 0)" stroke-opacity="0.0" stroke-linecap="round" stroke-linejoin="round"/>
    <path d="M 402.0 77.0 C 402.1883850097656 83.8904037475586 394.1547546386719 79.85609436035156 396.0 86.0 C 401.54547119140625 86.1507797241211 404.54547119140625 99.74919891357422 405.0 88.0 C 415.7852783203125 84.75758361816406 405.3712463378906 80.2657470703125 402.0 77.0" stroke-width="2.0" fill="rgb(214, 225, 217)" opacity="1.0" stroke="rgb(0, 0, 0)" stroke-opacity="0.0" stroke-linecap="round" stroke-linejoin="round"/>
    <path d="M 244.0 300.0 C 242.92665100097656 304.8497314453125 240.06321716308594 316.3028259277344 248.0 315.0 C 248.93466186523438 310.123046875 251.82432556152344 300.2729797363281 244.0 300.0" stroke-width="2.0" fill="rgb(152, 195, 201)" opacity="1.0" stroke="rgb(0, 0, 0)" stroke-opacity="0.0" stroke-linecap="round" stroke-linejoin="round"/>
    <path d="M 20.0 45.0 L 2.0 46.0 L 3.0 64.0 C 1.7793424129486084 54.005428314208984 6.848099231719971 54.283695220947266 3.0 49.0 C 9.0 44.843711853027344 15.0 47.973480224609375 20.0 45.0" stroke-width="2.0" fill="rgb(39, 110, 169)" opacity="1.0" stroke="rgb(0, 0, 0)" stroke-opacity="0.0" stroke-linecap="round" stroke-linejoin="round"/>
    <path d="M 511.0 253.0 C 504.2444152832031 252.4187774658203 504.9405517578125 267.48126220703125 500.0 261.0 C 497.0 262.4427490234375 494.0 265.0267639160156 491.0 264.0 L 504.0 264.0 C 506.4942321777344 254.32379150390625 513.3306884765625 262.2924499511719 511.0 253.0" stroke-width="2.0" fill="rgb(176, 158, 85)" opacity="1.0" stroke="rgb(0, 0, 0)" stroke-opacity="0.0" stroke-linecap="round" stroke-linejoin="round"/>
    <path d="M 292.0 194.0 C 284.2021789550781 202.89462280273438 303.168212890625 198.71156311035156 292.0 194.0" stroke-width="2.0" fill="rgb(44, 131, 181)" opacity="1.0" stroke="rgb(0, 0, 0)" stroke-opacity="0.0" stroke-linecap="round" stroke-linejoin="round"/>
  </g>
</svg>
