<?xml version="1.0" ?>
<svg xmlns="http://www.w3.org/2000/svg" version="1.1" width="512" height="512">
  <defs/>
  <g>
    <path d="M 487.6322326660156 147.0755615234375 C 541.172119140625 308.8128356933594 494.22125244140625 356.9578552246094 427.6671447753906 449.3297424316406 C 254.14773559570312 492.02227783203125 248.7106475830078 465.69744873046875 333.2562255859375 344.4063415527344 C 387.9285583496094 274.3077087402344 391.80303955078125 191.98135375976562 261.0531005859375 122.40352630615234 C 431.7296447753906 87.40467071533203 464.3681945800781 85.60773468017578 487.6322326660156 147.0755615234375" stroke-width="0.0" fill="rgb(233, 148, 0)" opacity="0.75682354" stroke="rgb(72, 32, 3)" stroke-opacity="0.76703906" stroke-linecap="round" stroke-linejoin="round"/>
    <path d="M 461.0 456.0 C 460.33013916015625 458.5 458.5 460.33013916015625 456.0 461.0 C 453.5 460.33013916015625 451.66986083984375 458.5 451.0 456.0 C 451.66986083984375 453.5 453.5 451.66986083984375 456.0 451.0 C 458.5 451.66986083984375 460.33013916015625 453.5 461.0 456.0" stroke-width="0.0" fill="rgb(255, 255, 255)" opacity="1.0" stroke="rgb(216, 65, 51)" stroke-opacity="0.10078566" stroke-linecap="round" stroke-linejoin="round"/>
    <path d="M 60.0 456.0 C 59.33012771606445 458.5 57.5 460.33013916015625 55.0 461.0 C 52.5 460.33013916015625 50.66987228393555 458.5 50.0 456.0 C 50.66987228393555 453.5 52.5 451.66986083984375 55.0 451.0 C 57.5 451.66986083984375 59.33012771606445 453.5 60.0 456.0" stroke-width="0.0" fill="rgb(255, 255, 255)" opacity="1.0" stroke="rgb(2, 190, 32)" stroke-opacity="0.7705097" stroke-linecap="round" stroke-linejoin="round"/>
  </g>
</svg>
