<?xml version="1.0" ?>
<svg xmlns="http://www.w3.org/2000/svg" version="1.1" width="512" height="512">
  <defs/>
  <g>
    <path d="M 489.3615417480469 149.90350341796875 C 540.8817138671875 266.1020202636719 501.04974365234375 397.04571533203125 401.5780334472656 466.3820495605469 C 242.66510009765625 509.1925354003906 217.51133728027344 461.8448791503906 322.3553771972656 347.7416687011719 C 388.96136474609375 305.9888610839844 406.1351013183594 145.0576934814453 211.8369598388672 129.1197052001953 C 432.0904541015625 60.27467346191406 443.93780517578125 59.59104537963867 489.3615417480469 149.90350341796875" stroke-width="0.0" fill="rgb(215, 128, 0)" opacity="0.8617494" stroke="rgb(72, 32, 3)" stroke-opacity="0.76703906" stroke-linecap="round" stroke-linejoin="round"/>
    <path d="M 506.8854064941406 484.83941650390625 C 500.6046142578125 502.4689636230469 498.7586669921875 506.17022705078125 468.5336608886719 506.0106506347656 C 394.50152587890625 505.0208740234375 409.12249755859375 513.7598266601562 406.88494873046875 462.56494140625 C 434.71099853515625 440.92047119140625 445.8135681152344 428.3014221191406 459.6707458496094 410.8291015625 C 513.5579833984375 412.8110046386719 509.1273193359375 397.7835693359375 506.8854064941406 484.83941650390625" stroke-width="0.0" fill="rgb(255, 255, 255)" opacity="0.61759394" stroke="rgb(216, 65, 51)" stroke-opacity="0.10078566" stroke-linecap="round" stroke-linejoin="round"/>
    <path d="M 117.35307312011719 470.36383056640625 C 95.3309555053711 495.7682189941406 90.64249420166016 499.5857849121094 33.89276123046875 495.80291748046875 C 5.743709087371826 499.26397705078125 3.8357224464416504 501.7573547363281 7.137538909912109 432.746337890625 C 14.2005033493042 406.64849853515625 7.09681510925293 414.7861328125 54.90306091308594 412.76251220703125 C 76.61607360839844 439.319580078125 88.48347473144531 449.907958984375 117.35307312011719 470.36383056640625" stroke-width="0.0" fill="rgb(255, 255, 255)" opacity="0.7636983" stroke="rgb(2, 190, 32)" stroke-opacity="0.7705097" stroke-linecap="round" stroke-linejoin="round"/>
    <path d="M 143.0 327.0 C 142.3301239013672 329.5 140.5 331.33013916015625 138.0 332.0 C 135.5 331.33013916015625 133.6698760986328 329.5 133.0 327.0 C 133.6698760986328 324.5 135.5 322.66986083984375 138.0 322.0 C 140.5 322.66986083984375 142.3301239013672 324.5 143.0 327.0" stroke-width="0.0" fill="rgb(76, 183, 73)" opacity="1.0" stroke="rgb(249, 243, 97)" stroke-opacity="0.17435369" stroke-linecap="round" stroke-linejoin="round"/>
    <path d="M 132.0 140.0 C 131.3301239013672 142.5 129.5 144.3301239013672 127.0 145.0 C 124.5 144.3301239013672 122.66987609863281 142.5 122.0 140.0 C 122.66987609863281 137.5 124.5 135.6698760986328 127.0 135.0 C 129.5 135.6698760986328 131.3301239013672 137.5 132.0 140.0" stroke-width="0.0" fill="rgb(223, 34, 39)" opacity="1.0" stroke="rgb(47, 240, 182)" stroke-opacity="0.8138323" stroke-linecap="round" stroke-linejoin="round"/>
    <path d="M 111.0 192.0 C 110.33012390136719 194.5 108.5 196.3301239013672 106.0 197.0 C 103.5 196.3301239013672 101.66987609863281 194.5 101.0 192.0 C 101.66987609863281 189.5 103.5 187.6698760986328 106.0 187.0 C 108.5 187.6698760986328 110.33012390136719 189.5 111.0 192.0" stroke-width="0.0" fill="rgb(206, 31, 36)" opacity="1.0" stroke="rgb(139, 86, 167)" stroke-opacity="0.49756658" stroke-linecap="round" stroke-linejoin="round"/>
    <path d="M 427.0 122.0 C 426.33013916015625 124.5 424.5 126.33012390136719 422.0 127.0 C 419.5 126.33012390136719 417.66986083984375 124.5 417.0 122.0 C 417.66986083984375 119.5 419.5 117.66987609863281 422.0 117.0 C 424.5 117.66987609863281 426.33013916015625 119.5 427.0 122.0" stroke-width="0.0" fill="rgb(223, 34, 39)" opacity="1.0" stroke="rgb(87, 182, 58)" stroke-opacity="0.76451063" stroke-linecap="round" stroke-linejoin="round"/>
  </g>
</svg>
