<?xml version="1.0" ?>
<svg xmlns="http://www.w3.org/2000/svg" version="1.1" width="512" height="512">
  <defs/>
  <g>
    <path d="M 338.37384033203125 230.94540405273438 C 330.40069580078125 219.20059204101562 341.10693359375 234.84315490722656 381.7293395996094 297.0345764160156 C 350.601806640625 290.482666015625 236.2827911376953 353.88067626953125 123.44020080566406 283.5329284667969 C 210.41432189941406 160.30160522460938 229.02362060546875 77.11321258544922 256.6306457519531 106.1707763671875 C 321.2397766113281 204.80419921875 327.5227355957031 214.6934356689453 338.37384033203125 230.94540405273438" stroke-width="0.0" fill="rgb(192, 8, 0)" opacity="0.90562534" stroke="rgb(98, 245, 139)" stroke-opacity="0.18110318" stroke-linecap="round" stroke-linejoin="round"/>
    <path d="M 398.4169921875 322.2221984863281 C 389.6227111816406 346.6419982910156 372.4721984863281 353.8961181640625 347.0615539550781 358.6737976074219 C 303.79852294921875 365.6435241699219 278.4034423828125 369.1777038574219 276.6338806152344 349.9502868652344 C 326.08642578125 344.8180236816406 331.4092102050781 336.4253845214844 347.2159729003906 334.05999755859375 C 393.4452819824219 323.5404357910156 403.9053039550781 320.8802490234375 398.4169921875 322.2221984863281" stroke-width="0.0" fill="rgb(0, 83, 41)" opacity="0.93430924" stroke="rgb(164, 185, 230)" stroke-opacity="0.7763985" stroke-linecap="round" stroke-linejoin="round"/>
    <path d="M 307.0122375488281 364.2216491699219 C 274.15411376953125 367.2192077636719 246.38363647460938 365.5332336425781 226.8788299560547 362.8788146972656 C 227.55662536621094 362.28076171875 166.00372314453125 358.67340087890625 121.03971099853516 317.9443054199219 C 96.98394012451172 292.2823791503906 133.0476837158203 340.468994140625 227.88677978515625 349.42071533203125 C 298.6841125488281 355.1164855957031 305.59088134765625 335.55999755859375 307.0122375488281 364.2216491699219" stroke-width="0.0" fill="rgb(5, 82, 45)" opacity="0.9149594" stroke="rgb(20, 58, 80)" stroke-opacity="0.79533815" stroke-linecap="round" stroke-linejoin="round"/>
    <path d="M 128.79583740234375 280.4852294921875 C 139.73098754882812 283.681640625 112.00751495361328 273.3977355957031 145.6233673095703 295.3873596191406 C 12.646512985229492 375.0574645996094 -20.82504653930664 381.60723876953125 -6.8061628341674805 88.03563690185547 C 228.81021118164062 97.44157409667969 263.9114990234375 55.54585647583008 194.14344787597656 171.22760009765625 C 156.2980194091797 234.53457641601562 150.6430206298828 244.5122528076172 128.79583740234375 280.4852294921875" stroke-width="0.0" fill="rgb(252, 253, 226)" opacity="0.86530286" stroke="rgb(249, 18, 65)" stroke-opacity="0.5894086" stroke-linecap="round" stroke-linejoin="round"/>
    <path d="M 177.39077758789062 238.27037048339844 C 164.1866455078125 266.7649230957031 162.56971740722656 268.8509521484375 161.30575561523438 282.56268310546875 C 151.17437744140625 286.8007507324219 146.7433624267578 273.92999267578125 152.0292205810547 258.0236511230469 C 152.1033172607422 258.3055114746094 154.24615478515625 243.36907958984375 180.24363708496094 213.93894958496094 C 191.4305419921875 213.5182647705078 185.3845672607422 220.0244903564453 177.39077758789062 238.27037048339844" stroke-width="0.0" fill="rgb(216, 57, 45)" opacity="0.97575545" stroke="rgb(219, 253, 40)" stroke-opacity="0.5790939" stroke-linecap="round" stroke-linejoin="round"/>
    <path d="M 353.6974182128906 543.1988525390625 C 458.2562561035156 445.9979248046875 431.2457275390625 418.2882080078125 425.19903564453125 468.54547119140625 C 401.2000427246094 432.30908203125 399.2037658691406 426.35845947265625 436.3230285644531 487.9881896972656 C 537.8983764648438 489.5723876953125 566.46484375 365.7806701660156 459.96417236328125 174.29969787597656 C 257.5433654785156 304.85040283203125 225.38880920410156 457.73126220703125 353.6974182128906 543.1988525390625" stroke-width="0.0" fill="rgb(83, 127, 108)" opacity="0.08386093" stroke="rgb(152, 6, 77)" stroke-opacity="0.57394874" stroke-linecap="round" stroke-linejoin="round"/>
    <path d="M 291.0479431152344 9.735554695129395 C 324.4733581542969 123.60820770263672 333.7215270996094 108.67170715332031 139.8140106201172 106.27599334716797 C 138.57763671875 81.21512603759766 140.86956787109375 135.39691162109375 14.160325050354004 105.28221893310547 C 2.7376480102539062 -31.049591064453125 74.51626586914062 -22.146427154541016 143.96212768554688 -16.67035675048828 C 181.81785583496094 -2.821160078048706 213.58938598632812 -51.224117279052734 291.0479431152344 9.735554695129395" stroke-width="0.0" fill="rgb(208, 216, 191)" opacity="0.99025244" stroke="rgb(110, 210, 110)" stroke-opacity="0.15317614" stroke-linecap="round" stroke-linejoin="round"/>
    <path d="M 250.48638916015625 532.9397583007812 C 110.59652709960938 521.3815307617188 115.94734191894531 519.8766479492188 57.971744537353516 538.3023681640625 C -13.49675178527832 522.53271484375 -7.495316505432129 502.33404541015625 -13.888941764831543 438.826416015625 C -31.771217346191406 319.92047119140625 5.821327209472656 284.7745361328125 137.4530487060547 326.92083740234375 C 219.99072265625 367.7412109375 272.5259704589844 374.29571533203125 250.48638916015625 532.9397583007812" stroke-width="0.0" fill="rgb(185, 203, 183)" opacity="0.40844524" stroke="rgb(18, 237, 63)" stroke-opacity="0.7584656" stroke-linecap="round" stroke-linejoin="round"/>
    <path d="M 387.0973815917969 395.58868408203125 C 381.04248046875 398.1015625 371.56390380859375 399.5782165527344 338.0131530761719 401.82427978515625 C 230.8842010498047 406.49432373046875 172.26727294921875 405.8014221191406 177.90170288085938 385.28021240234375 C 348.703857421875 382.41400146484375 377.7103576660156 391.4230041503906 380.563720703125 391.3984069824219 C 382.1994934082031 391.5807189941406 390.87042236328125 393.561767578125 387.0973815917969 395.58868408203125" stroke-width="0.0" fill="rgb(79, 93, 85)" opacity="0.27317992" stroke="rgb(45, 225, 82)" stroke-opacity="0.9978161" stroke-linecap="round" stroke-linejoin="round"/>
    <path d="M 124.58617401123047 124.11251068115234 C 65.06095123291016 192.62655639648438 59.295082092285156 183.1656494140625 31.59775733947754 186.7029571533203 C 11.804390907287598 164.5790557861328 10.146031379699707 173.37786865234375 -53.84363555908203 123.61027526855469 C -31.169553756713867 87.07127380371094 -37.03922653198242 83.08616638183594 9.899412155151367 39.31664276123047 C 77.57331848144531 91.39787292480469 84.68943786621094 81.90215301513672 124.58617401123047 124.11251068115234" stroke-width="0.0" fill="rgb(205, 214, 190)" opacity="0.8609579" stroke="rgb(205, 176, 25)" stroke-opacity="0.48749694" stroke-linecap="round" stroke-linejoin="round"/>
    <path d="M 396.6710510253906 -15.191580772399902 C 405.5420227050781 20.02507972717285 537.2631225585938 -55.58509826660156 539.5698852539062 184.90139770507812 C 250.63632202148438 203.06027221679688 255.84451293945312 163.07266235351562 281.71539306640625 -2.6634066104888916 C 383.28363037109375 -2.449608087539673 395.04229736328125 -17.646013259887695 471.2533874511719 8.245447158813477 C 548.18505859375 60.18669509887695 528.7412109375 -35.872520446777344 396.6710510253906 -15.191580772399902" stroke-width="0.0" fill="rgb(137, 167, 156)" opacity="0.13930137" stroke="rgb(87, 50, 172)" stroke-opacity="0.25061688" stroke-linecap="round" stroke-linejoin="round"/>
    <path d="M 407.25311279296875 259.57568359375 C 411.11865234375 262.7686767578125 411.5828857421875 263.1934814453125 407.1798400878906 262.0625915527344 C 411.52655029296875 259.12164306640625 416.1732482910156 256.4863586425781 409.4739685058594 261.0938720703125 C 407.712158203125 264.38555908203125 409.1132507324219 261.7517395019531 408.5237731933594 266.89349365234375 C 411.36090087890625 261.81707763671875 407.5032958984375 263.7626037597656 407.25311279296875 259.57568359375" stroke-width="0.0" fill="rgb(238, 241, 228)" opacity="0.22508128" stroke="rgb(114, 26, 213)" stroke-opacity="0.41011745" stroke-linecap="round" stroke-linejoin="round"/>
    <path d="M 251.77786254882812 146.50851440429688 C 235.11778259277344 302.02587890625 130.94467163085938 388.7184143066406 211.46890258789062 212.3393096923828 C 153.8065948486328 222.56130981445312 161.33642578125 229.1894073486328 184.11195373535156 183.61280822753906 C 205.70835876464844 149.06100463867188 223.43359375 110.16867065429688 213.5729522705078 171.72085571289062 C 242.7644500732422 183.2571563720703 188.82565307617188 76.25923156738281 251.77786254882812 146.50851440429688" stroke-width="0.0" fill="rgb(231, 33, 15)" opacity="0.42726886" stroke="rgb(40, 117, 120)" stroke-opacity="0.49623147" stroke-linecap="round" stroke-linejoin="round"/>
    <path d="M 215.55580139160156 135.5355224609375 C 184.20545959472656 186.48739624023438 182.82106018066406 191.73304748535156 134.4934844970703 270.0781555175781 C 79.80406951904297 265.0810241699219 83.63652038574219 235.68907165527344 54.482757568359375 137.39173889160156 C 94.94947814941406 85.72030639648438 108.55464172363281 94.90766906738281 226.56678771972656 77.99434661865234 C 238.51992797851562 107.27064514160156 232.6763153076172 104.1966781616211 215.55580139160156 135.5355224609375" stroke-width="0.0" fill="rgb(207, 215, 190)" opacity="0.9997838" stroke="rgb(34, 119, 36)" stroke-opacity="0.045022145" stroke-linecap="round" stroke-linejoin="round"/>
    <path d="M 143.375 256.7554016113281 C 104.56168365478516 309.2583312988281 125.48560333251953 343.48187255859375 9.254234313964844 370.50970458984375 C -53.16807174682617 246.7744140625 -21.14378547668457 235.14315795898438 -19.531038284301758 194.41456604003906 C -0.2546427547931671 171.97589111328125 -6.093151092529297 169.28811645507812 13.93256950378418 137.31362915039062 C 40.626930236816406 173.25303649902344 64.33589935302734 151.6825408935547 143.375 256.7554016113281" stroke-width="0.0" fill="rgb(206, 214, 190)" opacity="0.9897471" stroke="rgb(56, 178, 162)" stroke-opacity="0.2849591" stroke-linecap="round" stroke-linejoin="round"/>
    <path d="M 65.52639770507812 410.943359375 C 64.85652160644531 413.443359375 63.02639389038086 415.27349853515625 60.52639389038086 415.943359375 C 58.02639389038086 415.27349853515625 56.196266174316406 413.443359375 55.52639389038086 410.943359375 C 56.196266174316406 408.443359375 58.02639389038086 406.61322021484375 60.52639389038086 405.943359375 C 63.02639389038086 406.61322021484375 64.85652160644531 408.443359375 65.52639770507812 410.943359375" stroke-width="0.0" fill="rgb(207, 215, 191)" opacity="1.0" stroke="rgb(12, 214, 44)" stroke-opacity="0.17388116" stroke-linecap="round" stroke-linejoin="round"/>
    <path d="M 116.8582534790039 181.57421875 C 116.1883773803711 184.07421875 114.3582534790039 185.9043426513672 111.8582534790039 186.57421875 C 109.3582534790039 185.9043426513672 107.52812957763672 184.07421875 106.8582534790039 181.57421875 C 107.52812957763672 179.07421875 109.3582534790039 177.2440948486328 111.8582534790039 176.57421875 C 114.3582534790039 177.2440948486328 116.1883773803711 179.07421875 116.8582534790039 181.57421875" stroke-width="0.0" fill="rgb(207, 215, 191)" opacity="1.0" stroke="rgb(189, 230, 61)" stroke-opacity="0.51981175" stroke-linecap="round" stroke-linejoin="round"/>
    <path d="M 258.9605712890625 96.09001159667969 C 258.2906799316406 98.59001159667969 256.4605712890625 100.42013549804688 253.96055603027344 101.09001159667969 C 251.46055603027344 100.42013549804688 249.63043212890625 98.59001159667969 248.96055603027344 96.09001159667969 C 249.63043212890625 93.59001159667969 251.46055603027344 91.7598876953125 253.96055603027344 91.09001159667969 C 256.4605712890625 91.7598876953125 258.2906799316406 93.59001159667969 258.9605712890625 96.09001159667969" stroke-width="0.0" fill="rgb(207, 215, 191)" opacity="1.0" stroke="rgb(50, 155, 111)" stroke-opacity="0.75992763" stroke-linecap="round" stroke-linejoin="round"/>
    <path d="M 141.5010986328125 301.28448486328125 C 140.8312225341797 303.78448486328125 139.0010986328125 305.6146240234375 136.5010986328125 306.28448486328125 C 134.0010986328125 305.6146240234375 132.1709747314453 303.78448486328125 131.5010986328125 301.28448486328125 C 132.1709747314453 298.78448486328125 134.0010986328125 296.954345703125 136.5010986328125 296.28448486328125 C 139.0010986328125 296.954345703125 140.8312225341797 298.78448486328125 141.5010986328125 301.28448486328125" stroke-width="0.0" fill="rgb(251, 247, 217)" opacity="1.0" stroke="rgb(156, 102, 135)" stroke-opacity="0.27190968" stroke-linecap="round" stroke-linejoin="round"/>
    <path d="M 315.68804931640625 392.478759765625 C 315.0181884765625 394.978759765625 313.18804931640625 396.80889892578125 310.68804931640625 397.478759765625 C 308.18804931640625 396.80889892578125 306.35791015625 394.978759765625 305.68804931640625 392.478759765625 C 306.35791015625 389.978759765625 308.18804931640625 388.14862060546875 310.68804931640625 387.478759765625 C 313.18804931640625 388.14862060546875 315.0181884765625 389.978759765625 315.68804931640625 392.478759765625" stroke-width="0.0" fill="rgb(176, 184, 163)" opacity="1.0" stroke="rgb(115, 4, 24)" stroke-opacity="0.92386824" stroke-linecap="round" stroke-linejoin="round"/>
    <path d="M 12.608682632446289 235.310791015625 C 11.938810348510742 237.810791015625 10.108682632446289 239.6409149169922 7.608683109283447 240.310791015625 C 5.108683109283447 239.6409149169922 3.2785561084747314 237.810791015625 2.6086831092834473 235.310791015625 C 3.2785561084747314 232.810791015625 5.108683109283447 230.9806671142578 7.608683109283447 230.310791015625 C 10.108682632446289 230.9806671142578 11.938810348510742 232.810791015625 12.608682632446289 235.310791015625" stroke-width="0.0" fill="rgb(207, 215, 191)" opacity="1.0" stroke="rgb(59, 228, 47)" stroke-opacity="0.23255199" stroke-linecap="round" stroke-linejoin="round"/>
    <path d="M 42.31721496582031 478.24932861328125 C 41.647342681884766 480.74932861328125 39.81721496582031 482.5794677734375 37.31721496582031 483.24932861328125 C 34.81721496582031 482.5794677734375 32.98708724975586 480.74932861328125 32.31721496582031 478.24932861328125 C 32.98708724975586 475.74932861328125 34.81721496582031 473.919189453125 37.31721496582031 473.24932861328125 C 39.81721496582031 473.919189453125 41.647342681884766 475.74932861328125 42.31721496582031 478.24932861328125" stroke-width="0.0" fill="rgb(207, 215, 191)" opacity="1.0" stroke="rgb(5, 101, 62)" stroke-opacity="0.95050204" stroke-linecap="round" stroke-linejoin="round"/>
  </g>
</svg>
