<?xml version="1.0" ?>
<svg xmlns="http://www.w3.org/2000/svg" version="1.1" width="512" height="512">
  <defs/>
  <g>
    <path d="M -0.4057033061981201 -0.14367090165615082 L 511.99212646484375 -0.26727381348609924 L 511.9712219238281 511.97039794921875 L -0.1720546931028366 512.000732421875 L -0.4057033061981201 -0.14367090165615082" stroke-width="0.0" fill="rgb(271, 248, 247)" opacity="0.9832533" stroke="rgb(0, 0, 0)" stroke-opacity="0.0" stroke-linecap="round" stroke-linejoin="round"/>
    <path d="M -0.8490464687347412 -0.13509295880794525 C 0.7083927989006042 170.3343048095703 -3.427330732345581 340.7001953125 -0.08174266666173935 512.140380859375 L 512.781982421875 512.1224365234375 L 512.7597045898438 -0.2960526645183563 L -0.8490464687347412 -0.13509295880794525" stroke-width="2.0" fill="rgb(250, 241, 208)" opacity="1.0358896" stroke="rgb(0, 0, 0)" stroke-opacity="0.0" stroke-linecap="round" stroke-linejoin="round"/>
    <path d="M 285.9835510253906 40.99263000488281 C 273.00408935546875 34.37831497192383 256.7102355957031 50.92295455932617 259.92181396484375 64.0308837890625 C 263.05511474609375 70.41341400146484 267.7159729003906 71.23877716064453 272.9994812011719 76.99947357177734 C 269.2690734863281 84.02061462402344 276.9424133300781 92.16031646728516 264.8236083984375 93.89289093017578 L 264.17742919921875 120.28559112548828 C 258.99432373046875 123.74080657958984 253.84536743164062 118.79904174804688 248.7735595703125 125.763916015625 C 247.2723388671875 129.67922973632812 251.45855712890625 133.30775451660156 249.869873046875 137.6090545654297 C 223.76589965820312 131.98724365234375 189.4925079345703 163.73133850097656 194.3812255859375 191.24407958984375 C 190.1950225830078 195.8425750732422 184.75033569335938 190.33851623535156 182.59759521484375 195.0638427734375 C 181.46176147460938 209.57546997070312 196.516357421875 200.83583068847656 205.75482177734375 206.5287628173828 C 204.578369140625 218.6042022705078 210.92677307128906 235.09910583496094 228.2928466796875 236.11865234375 C 229.2976837158203 245.7545166015625 244.42881774902344 254.38218688964844 233.2117462158203 261.44573974609375 C 214.90432739257812 248.3495330810547 200.21221923828125 244.16583251953125 184.55459594726562 244.50279235839844 C 179.2928924560547 248.309814453125 183.04690551757812 252.80276489257812 184.56890869140625 257.10589599609375 C 177.11187744140625 265.3016357421875 173.3352508544922 273.8865966796875 164.2877655029297 284.4883117675781 C 162.97042846679688 276.8904724121094 168.09262084960938 271.37066650390625 169.01829528808594 266.002685546875 C 169.08848571777344 253.9998779296875 170.8609161376953 241.99856567382812 161.11895751953125 229.88902282714844 C 143.3600616455078 226.8123779296875 140.8209991455078 252.25865173339844 141.27928161621094 264.4059753417969 C 143.30345153808594 272.9091796875 144.22958374023438 277.6088562011719 152.82861328125 284.493896484375 C 138.79225158691406 289.9742126464844 139.28431701660156 303.36614990234375 131.4635772705078 311.99041748046875 C 128.89756774902344 317.4603576660156 128.44595336914062 325.2862854003906 137.60011291503906 328.7893981933594 L 137.29925537109375 343.69219970703125 C 125.9406509399414 339.72943115234375 115.96832275390625 354.673095703125 130.22520446777344 356.9624328613281 L 172.44808959960938 356.5889587402344 C 179.13975524902344 357.72247314453125 173.02911376953125 363.7048645019531 169.63430786132812 367.62738037109375 C 148.80923461914062 353.8730163574219 118.5513687133789 360.8388671875 106.37462615966797 386.458740234375 C 97.39093780517578 406.6565856933594 105.40589141845703 435.9049987792969 130.53785705566406 446.8655700683594 C 152.62240600585938 454.19805908203125 183.6521453857422 441.4311218261719 188.53562927246094 415.1875 C 190.3389129638672 404.550537109375 188.8152313232422 394.98870849609375 185.9898223876953 385.58380126953125 C 176.37693786621094 377.245849609375 175.71437072753906 369.98956298828125 187.34963989257812 360.51153564453125 C 198.2199249267578 365.3941345214844 184.71607971191406 385.79693603515625 194.54962158203125 390.8424987792969 L 300.6728820800781 390.5848083496094 C 299.1670227050781 407.3535461425781 298.065673828125 428.4074401855469 318.5469055175781 442.673583984375 C 340.515625 452.5682373046875 366.05950927734375 450.3564147949219 381.6313781738281 425.24945068359375 C 385.3694763183594 411.6267395019531 387.7200927734375 399.2679748535156 382.6903381347656 387.0427551269531 C 389.81842041015625 382.38372802734375 397.9953918457031 390.4504699707031 406.1930236816406 383.4288330078125 L 406.2180480957031 341.8664855957031 C 393.1105651855469 334.88232421875 402.9523620605469 324.45318603515625 398.3638916015625 316.0310974121094 C 389.1435546875 301.38519287109375 376.4685363769531 306.1917419433594 367.8710021972656 305.05426025390625 C 364.4958801269531 258.1273193359375 370.92926025390625 210.88522338867188 364.4019470214844 165.71804809570312 C 352.8269348144531 139.851806640625 326.3280029296875 133.44187927246094 308.4022216796875 137.2225799560547 C 309.5660705566406 129.0888214111328 306.2879638671875 118.52597045898438 296.3014221191406 122.31553649902344 C 285.33203125 113.24528503417969 301.5886535644531 95.17919921875 284.5398254394531 89.71112060546875 C 286.60223388671875 82.87724304199219 282.60394287109375 73.19169616699219 294.026611328125 69.00321960449219 C 298.3302917480469 59.44846725463867 297.6732177734375 50.3399658203125 285.9835510253906 40.99263000488281" stroke-width="2.0" fill="rgb(239, 135, -13)" opacity="0.91256493" stroke="rgb(0, 0, 0)" stroke-opacity="0.0" stroke-linecap="round" stroke-linejoin="round"/>
    <path d="M 298.2981872558594 171.13624572753906 C 286.8986511230469 163.98574829101562 273.92022705078125 162.55413818359375 264.56634521484375 175.85501098632812 C 256.0947265625 176.30751037597656 248.05154418945312 177.69815063476562 238.998779296875 184.29254150390625 C 230.1752471923828 182.3666534423828 220.6814727783203 180.04493713378906 209.68551635742188 192.8157196044922 C 204.06039428710938 204.79270935058594 201.761474609375 218.5698699951172 217.00486755371094 232.48106384277344 C 225.4217071533203 231.43972778320312 230.5372314453125 237.28001403808594 230.493408203125 246.7605438232422 C 234.4803924560547 251.99537658691406 244.70957946777344 249.0699005126953 238.90106201171875 256.3901062011719 C 229.40966796875 263.97900390625 212.9691162109375 262.85577392578125 219.9795684814453 278.3912658691406 C 227.94686889648438 278.53546142578125 235.95538330078125 279.6556396484375 243.63783264160156 274.5368347167969 L 306.5218505859375 274.18182373046875 C 314.765869140625 269.7644958496094 308.9007873535156 261.5860595703125 309.3844299316406 257.29412841796875 C 322.0849609375 244.77439880371094 327.8535461425781 232.45069885253906 327.9436340332031 220.61607360839844 C 316.5483093261719 214.0758819580078 315.47027587890625 228.65797424316406 306.7580871582031 230.46592712402344 C 307.5848693847656 220.42515563964844 298.5853271484375 212.80711364746094 308.45953369140625 205.48049926757812 C 312.6918640136719 193.4239959716797 311.9430236816406 182.05145263671875 298.2981872558594 171.13624572753906" stroke-width="2.0" fill="rgb(57, 44, 28)" opacity="1.0949813" stroke="rgb(0, 0, 0)" stroke-opacity="0.0" stroke-linecap="round" stroke-linejoin="round"/>
    <path d="M 62.911956787109375 441.2823181152344 C 71.13550567626953 452.7745056152344 87.16938781738281 449.4078674316406 97.46028900146484 453.85211181640625 C 204.1134033203125 463.9217834472656 311.9405822753906 464.62518310546875 418.76177978515625 453.0235595703125 C 427.4708557128906 449.0838317871094 436.6239013671875 451.6699523925781 447.0606689453125 443.83746337890625 C 445.76959228515625 435.5248718261719 433.97601318359375 436.8092956542969 428.8698425292969 434.18878173828125 L 380.256591796875 427.4642028808594 C 353.8476867675781 456.91436767578125 322.79534912109375 454.1891784667969 301.6494445800781 423.70806884765625 L 186.2414093017578 423.32965087890625 C 176.94215393066406 436.1751403808594 160.4928436279297 448.03680419921875 147.24508666992188 447.162109375 C 135.64718627929688 447.74554443359375 123.07816314697266 444.6438293457031 110.98418426513672 430.0702209472656 C 94.87904357910156 432.5078125 79.9739761352539 432.703369140625 62.911956787109375 441.2823181152344" stroke-width="2.0" fill="rgb(215, 195, 104)" opacity="0.99182016" stroke="rgb(0, 0, 0)" stroke-opacity="0.0" stroke-linecap="round" stroke-linejoin="round"/>
    <path d="M 406.10235595703125 383.5465087890625 L 406.1678161621094 340.7602844238281 C 404.3207702636719 337.405517578125 402.6131591796875 338.26507568359375 399.6507873535156 338.2463073730469 C 366.66192626953125 335.7501525878906 333.8797912597656 337.2034912109375 300.34466552734375 341.6360778808594 C 285.2823486328125 348.1136779785156 292.711669921875 364.4471435546875 283.7923278808594 375.6806945800781 L 209.1175079345703 376.0898742675781 C 200.0901336669922 364.6413269042969 210.87120056152344 351.5860900878906 202.34622192382812 342.4929504394531 L 125.24923706054688 342.46990966796875 C 121.29942321777344 347.1751708984375 122.22674560546875 352.0297546386719 124.91012573242188 357.3722229003906 L 175.14401245117188 357.4704284667969 C 178.25518798828125 362.2503356933594 181.653076171875 355.4463806152344 184.9188232421875 360.96533203125 L 188.28819274902344 358.26806640625 C 196.01858520507812 368.834716796875 184.87208557128906 386.1236877441406 195.73291015625 390.879150390625 L 367.504150390625 391.219970703125 C 379.5877990722656 382.54779052734375 391.9864501953125 389.7842712402344 406.10235595703125 383.5465087890625" stroke-width="2.0" fill="rgb(59, 128, 95)" opacity="0.97014934" stroke="rgb(0, 0, 0)" stroke-opacity="0.0" stroke-linecap="round" stroke-linejoin="round"/>
    <path d="M 142.4330291748047 361.261962890625 C 118.07034301757812 361.0464782714844 97.51782989501953 390.3099670410156 103.62567901611328 411.55877685546875 C 107.36724853515625 442.2468566894531 142.987548828125 457.10711669921875 168.3046417236328 442.73822021484375 C 195.93560791015625 424.209228515625 197.51197814941406 392.4945983886719 174.0374755859375 369.2320556640625 C 162.93856811523438 363.3162536621094 153.15695190429688 359.2369079589844 142.4330291748047 361.261962890625" stroke-width="2.0" fill="rgb(54, 41, 24)" opacity="1.0329809" stroke="rgb(0, 0, 0)" stroke-opacity="0.0" stroke-linecap="round" stroke-linejoin="round"/>
    <path d="M 406.2203063964844 340.7586975097656 C 403.4347839355469 335.9615478515625 398.63958740234375 336.30560302734375 394.9491271972656 336.2167663574219 C 363.2156677246094 336.98040771484375 331.7317810058594 339.2430419921875 300.0258483886719 342.9495544433594 C 286.5870666503906 354.3225402832031 287.3062438964844 370.9071350097656 286.6557922363281 384.9615173339844 C 294.6623840332031 391.1756286621094 302.282958984375 387.17584228515625 309.8150939941406 391.8918762207031 L 361.3785705566406 391.778076171875 C 374.42572021484375 384.1716613769531 387.7005615234375 384.7010498046875 402.4560852050781 386.7174377441406 L 406.2564697265625 383.163818359375 L 406.2203063964844 340.7586975097656" stroke-width="2.0" fill="rgb(70, 139, 105)" opacity="0.9074901" stroke="rgb(0, 0, 0)" stroke-opacity="0.0" stroke-linecap="round" stroke-linejoin="round"/>
    <path d="M 383.57989501953125 388.1203308105469 C 375.62646484375 382.2578430175781 367.7184753417969 392.2189636230469 359.80859375 391.4739990234375 L 302.4991455078125 390.3062744140625 C 287.7857360839844 417.9382019042969 319.2289733886719 454.8171691894531 348.75213623046875 447.3158264160156 C 365.0390319824219 447.7890625 384.31170654296875 429.587890625 385.3228454589844 412.5400695800781 C 386.0457458496094 404.51055908203125 386.9101867675781 396.9364318847656 383.57989501953125 388.1203308105469" stroke-width="2.0" fill="rgb(51, 42, 21)" opacity="1.053305" stroke="rgb(0, 0, 0)" stroke-opacity="0.0" stroke-linecap="round" stroke-linejoin="round"/>
    <path d="M 179.56787109375 372.57733154296875 C 180.29649353027344 376.77923583984375 184.58961486816406 381.25592041015625 189.2967987060547 385.990234375 C 190.55673217773438 398.25543212890625 193.27621459960938 410.4557189941406 186.3607940673828 424.17974853515625 L 301.83331298828125 422.9599914550781 C 297.2039794921875 411.46771240234375 298.2005920410156 401.26531982421875 298.60064697265625 391.6132507324219 L 192.88735961914062 391.8057556152344 C 184.3418426513672 379.7723693847656 189.28492736816406 371.09552001953125 191.0071563720703 358.5909118652344 C 185.19561767578125 359.2747497558594 182.973876953125 367.69989013671875 179.56787109375 372.57733154296875" stroke-width="2.0" fill="rgb(249, 242, 202)" opacity="0.9515874" stroke="rgb(0, 0, 0)" stroke-opacity="0.0" stroke-linecap="round" stroke-linejoin="round"/>
    <path d="M 271.36328125 40.59469985961914 C 256.4560852050781 48.58567428588867 253.24118041992188 67.79047393798828 270.33404541015625 76.08818817138672 C 269.0944519042969 82.7437973022461 274.9090881347656 92.33015441894531 263.7628173828125 93.78779602050781 L 263.6544189453125 121.69113159179688 C 255.07489013671875 119.39787292480469 239.2462615966797 128.44009399414062 252.83738708496094 138.61148071289062 L 304.1128845214844 138.64288330078125 C 317.27020263671875 128.2646484375 301.9221496582031 118.81623077392578 294.3673095703125 121.18431854248047 C 291.88690185546875 110.25951385498047 300.495849609375 95.55235290527344 287.0638122558594 89.89784240722656 C 282.58575439453125 79.70621490478516 292.6507873535156 74.24223327636719 298.876220703125 65.14237976074219 C 302.4692077636719 51.829471588134766 284.5795593261719 33.34309768676758 271.36328125 40.59469985961914" stroke-width="2.0" fill="rgb(185, 145, 98)" opacity="0.79068786" stroke="rgb(0, 0, 0)" stroke-opacity="0.0" stroke-linecap="round" stroke-linejoin="round"/>
    <path d="M 208.77601623535156 302.88983154296875 C 211.06906127929688 312.1679992675781 203.75433349609375 322.4683837890625 215.2914581298828 333.3846130371094 L 288.4525146484375 333.35101318359375 C 296.9520263671875 322.89276123046875 296.9056701660156 304.1758728027344 288.2709045410156 294.3624267578125 C 262.3072814941406 295.2848205566406 237.45816040039062 293.23638916015625 213.9711151123047 295.27850341796875 L 208.77601623535156 302.88983154296875" stroke-width="2.0" fill="rgb(218, 214, 145)" opacity="1.06748" stroke="rgb(0, 0, 0)" stroke-opacity="0.0" stroke-linecap="round" stroke-linejoin="round"/>
    <path d="M 337.1271667480469 192.1422119140625 C 315.3340759277344 201.50961303710938 333.4384460449219 222.0003204345703 325.7027587890625 236.01039123535156 C 328.13250732421875 249.53207397460938 321.6036376953125 264.33685302734375 327.8623046875 275.4176025390625 L 358.9222717285156 274.5052490234375 C 360.8397521972656 248.98890686035156 360.24346923828125 223.8722381591797 359.87054443359375 200.45159912109375 C 352.5123596191406 190.55459594726562 343.99310302734375 191.46817016601562 337.1271667480469 192.1422119140625" stroke-width="2.0" fill="rgb(250, 214, 96)" opacity="1.1706177" stroke="rgb(0, 0, 0)" stroke-opacity="0.0" stroke-linecap="round" stroke-linejoin="round"/>
    <path d="M 326.1181640625 218.50946044921875 C 313.17730712890625 216.20291137695312 313.9234313964844 229.55836486816406 303.0812683105469 235.65408325195312 C 282.7775573730469 238.24322509765625 262.7451477050781 246.493408203125 243.31629943847656 249.0830841064453 C 238.7423095703125 250.5394287109375 243.7300567626953 253.6547393798828 236.9080047607422 256.7921142578125 C 229.7246551513672 263.83184814453125 217.18055725097656 264.7156066894531 217.0934600830078 276.0022277832031 C 232.18031311035156 282.7749328613281 246.0214080810547 271.5726623535156 259.6654357910156 273.6891784667969 C 259.35302734375 268.3499450683594 251.81256103515625 264.74847412109375 257.8577575683594 261.1584167480469 C 260.54632568359375 258.69927978515625 261.86444091796875 262.08563232421875 263.6442565917969 262.64410400390625 C 274.8948059082031 258.6475830078125 286.32891845703125 262.1469421386719 295.69940185546875 251.59735107421875 C 302.4296875 255.84750366210938 300.02496337890625 265.4588623046875 296.8432922363281 273.3002624511719 C 309.71453857421875 278.1882629394531 312.11041259765625 264.82537841796875 309.5449523925781 256.11029052734375 C 321.5700988769531 245.44635009765625 328.6459045410156 232.33799743652344 326.1181640625 218.50946044921875" stroke-width="2.0" fill="rgb(40, 36, 22)" opacity="0.8967356" stroke="rgb(0, 0, 0)" stroke-opacity="0.0" stroke-linecap="round" stroke-linejoin="round"/>
    <path d="M 265.9375915527344 91.88345336914062 C 261.3324279785156 101.24668884277344 265.00189208984375 110.72496032714844 263.79925537109375 121.67696380615234 C 254.91098022460938 119.06907653808594 239.08152770996094 128.33758544921875 252.7541046142578 137.02586364746094 L 306.8210754394531 135.88223266601562 C 316.86517333984375 124.99857330322266 301.4436950683594 120.26549530029297 294.4445495605469 121.4500503540039 L 293.7234802246094 93.00035095214844 C 283.7591247558594 90.32931518554688 275.3268127441406 90.83259582519531 265.9375915527344 91.88345336914062" stroke-width="2.0" fill="rgb(165, 39, 18)" opacity="0.96990025" stroke="rgb(0, 0, 0)" stroke-opacity="0.0" stroke-linecap="round" stroke-linejoin="round"/>
    <path d="M 297.7544860839844 222.2649688720703 C 284.4681396484375 205.25267028808594 258.86114501953125 208.0035400390625 242.7118377685547 225.0284423828125 C 238.35296630859375 233.71310424804688 236.6203155517578 240.15420532226562 245.84732055664062 248.27590942382812 C 261.7156677246094 243.86134338378906 279.38690185546875 239.72166442871094 298.107421875 234.48118591308594 L 297.7544860839844 222.2649688720703" stroke-width="2.0" fill="rgb(239, 238, 225)" opacity="1.0239067" stroke="rgb(0, 0, 0)" stroke-opacity="0.0" stroke-linecap="round" stroke-linejoin="round"/>
    <path d="M 304.7799377441406 333.8395690917969 L 325.04986572265625 334.7179870605469 C 331.69122314453125 331.2789611816406 338.1295471191406 321.8828125 345.28729248046875 322.95135498046875 L 400.49560546875 323.2194519042969 C 400.7742919921875 313.0552978515625 389.9576721191406 305.2467041015625 382.98516845703125 305.0911865234375 C 361.9112243652344 306.65374755859375 340.8118591308594 299.69757080078125 320.4492492675781 314.2003479003906 C 314.2213134765625 319.7590637207031 308.7416076660156 325.40869140625 304.7799377441406 333.8395690917969" stroke-width="2.0" fill="rgb(188, 35, 15)" opacity="0.929257" stroke="rgb(0, 0, 0)" stroke-opacity="0.0" stroke-linecap="round" stroke-linejoin="round"/>
    <path d="M 138.34466552734375 384.3330383300781 C 110.010498046875 397.74041748046875 130.72340393066406 435.1471862792969 154.8455352783203 424.52288818359375 C 182.62973022460938 411.4424743652344 162.56277465820312 374.05157470703125 138.34466552734375 384.3330383300781" stroke-width="2.0" fill="rgb(102, 153, 121)" opacity="0.9832738" stroke="rgb(0, 0, 0)" stroke-opacity="0.0" stroke-linecap="round" stroke-linejoin="round"/>
    <path d="M 274.63397216796875 39.43772888183594 C 256.888427734375 45.18218231201172 252.06105041503906 68.50457000732422 270.27288818359375 77.05818176269531 L 269.9100646972656 90.84390258789062 L 287.77850341796875 90.54412841796875 C 287.9222412109375 83.54210662841797 285.5311584472656 75.22792053222656 294.9166564941406 71.95004272460938 C 307.10174560546875 58.43342590332031 291.17010498046875 34.81300735473633 274.63397216796875 39.43772888183594" stroke-width="2.0" fill="rgb(192, 184, 148)" opacity="0.9689494" stroke="rgb(0, 0, 0)" stroke-opacity="0.0" stroke-linecap="round" stroke-linejoin="round"/>
    <path d="M 152.83349609375 227.56866455078125 C 137.0859375 240.41650390625 136.70675659179688 268.749267578125 152.18373107910156 284.19677734375 C 161.62181091308594 286.7217102050781 167.9407958984375 276.3599853515625 170.0869140625 269.53692626953125 C 171.4865264892578 256.4189453125 175.14990234375 241.97080993652344 160.62635803222656 228.64773559570312 L 152.83349609375 227.56866455078125" stroke-width="2.0" fill="rgb(182, 43, 19)" opacity="0.97211456" stroke="rgb(0, 0, 0)" stroke-opacity="0.0" stroke-linecap="round" stroke-linejoin="round"/>
    <path d="M 324.8169250488281 391.7313537597656 C 312.5205383300781 411.1314697265625 332.03436279296875 432.7296447753906 351.04071044921875 424.4898986816406 C 365.6289978027344 417.9805908203125 368.23052978515625 402.343505859375 359.7206115722656 390.8076477050781 C 347.1950988769531 391.9721374511719 334.8138732910156 386.73834228515625 324.8169250488281 391.7313537597656" stroke-width="2.0" fill="rgb(95, 147, 114)" opacity="1.0209959" stroke="rgb(0, 0, 0)" stroke-opacity="0.0" stroke-linecap="round" stroke-linejoin="round"/>
    <path d="M 300.4849853515625 342.8460998535156 C 334.7952880859375 337.6514587402344 366.64544677734375 335.59100341796875 400.8363952636719 337.60345458984375 L 400.3682556152344 322.332275390625 L 345.8676452636719 322.42578125 C 338.1590270996094 321.7856140136719 331.7936706542969 331.7873840332031 325.3102111816406 333.7253723144531 C 316.6240234375 335.8009948730469 302.62237548828125 328.9485778808594 300.4849853515625 342.8460998535156" stroke-width="2.0" fill="rgb(249, 244, 174)" opacity="0.97335434" stroke="rgb(0, 0, 0)" stroke-opacity="0.0" stroke-linecap="round" stroke-linejoin="round"/>
    <path d="M 319.58038330078125 256.90087890625 C 318.0129089355469 249.91700744628906 315.38494873046875 248.5886993408203 309.1304931640625 256.7278747558594 C 308.78082275390625 262.1039123535156 314.3822326660156 268.2381591796875 307.57470703125 273.7146911621094 C 283.1130065917969 276.1158142089844 258.83514404296875 268.6634521484375 233.55735778808594 278.450439453125 L 239.18931579589844 285.884765625 L 310.421142578125 285.8172912597656 C 323.3460388183594 281.9420166015625 323.633544921875 267.65191650390625 319.58038330078125 256.90087890625" stroke-width="2.0" fill="rgb(69, 138, 104)" opacity="0.9847259" stroke="rgb(0, 0, 0)" stroke-opacity="0.0" stroke-linecap="round" stroke-linejoin="round"/>
    <path d="M 338.0356750488281 199.08395385742188 C 334.5948791503906 200.01568603515625 334.0749816894531 202.41175842285156 332.31549072265625 205.11013793945312 C 334.4400329589844 220.3881378173828 330.2652587890625 236.14231872558594 334.4842834472656 252.31016540527344 C 341.39306640625 255.13522338867188 349.341064453125 255.99215698242188 353.6777648925781 249.2838134765625 L 353.869873046875 206.19911193847656 C 353.3005065917969 198.3929901123047 344.7557067871094 197.325927734375 338.0356750488281 199.08395385742188" stroke-width="2.0" fill="rgb(192, 41, 13)" opacity="0.99621576" stroke="rgb(0, 0, 0)" stroke-opacity="0.0" stroke-linecap="round" stroke-linejoin="round"/>
    <path d="M 247.75083923339844 124.94004821777344 C 247.7746124267578 129.08432006835938 246.05323791503906 134.81170654296875 251.8356475830078 138.62417602539062 L 304.9978332519531 138.58082580566406 C 312.20648193359375 135.783447265625 312.2942810058594 123.71947479248047 304.81256103515625 120.6319808959961 L 252.675048828125 120.75703430175781 L 247.75083923339844 124.94004821777344" stroke-width="2.0" fill="rgb(194, 40, 14)" opacity="0.89316934" stroke="rgb(0, 0, 0)" stroke-opacity="0.0" stroke-linecap="round" stroke-linejoin="round"/>
    <path d="M 231.0169219970703 182.03793334960938 C 210.00863647460938 179.7281951904297 200.14707946777344 207.24449157714844 208.1497802734375 222.4974822998047 C 211.77401733398438 230.30087280273438 219.42247009277344 236.6353759765625 227.9150390625 235.8909454345703 C 222.76980590820312 218.0895538330078 220.58029174804688 202.60594177246094 237.21156311035156 186.6896514892578 C 237.3350372314453 183.41270446777344 234.0625762939453 182.22674560546875 231.0169219970703 182.03793334960938" stroke-width="2.0" fill="rgb(26, 22, 12)" opacity="0.7872602" stroke="rgb(0, 0, 0)" stroke-opacity="0.0" stroke-linecap="round" stroke-linejoin="round"/>
    <path d="M 257.7987060546875 57.82722473144531 C 257.55914306640625 65.47308349609375 262.40142822265625 73.17396545410156 270.5321960449219 77.12890625 L 270.7262268066406 90.81661224365234 L 287.56256103515625 90.52418518066406 C 287.3726806640625 83.27499389648438 284.4490051269531 74.80299377441406 294.9934387207031 72.45577239990234 L 300.7358703613281 57.76565170288086 L 257.7987060546875 57.82722473144531" stroke-width="2.0" fill="rgb(130, 114, 81)" opacity="0.94906193" stroke="rgb(0, 0, 0)" stroke-opacity="0.0" stroke-linecap="round" stroke-linejoin="round"/>
    <path d="M 263.64251708984375 93.8659439086914 L 263.49334716796875 119.77549743652344 L 294.2405090332031 119.8132553100586 L 293.7331848144531 93.35100555419922 C 282.97918701171875 90.5387954711914 273.9376525878906 91.53914642333984 263.64251708984375 93.8659439086914" stroke-width="2.0" fill="rgb(163, 40, 12)" opacity="0.8836467" stroke="rgb(0, 0, 0)" stroke-opacity="0.0" stroke-linecap="round" stroke-linejoin="round"/>
    <path d="M 268.8800354003906 172.0945281982422 L 265.40423583984375 175.99407958984375 C 280.7473449707031 175.27066040039062 300.7250671386719 195.19602966308594 304.0456237792969 212.12054443359375 C 326.4261779785156 192.275390625 291.1362609863281 151.41775512695312 268.8800354003906 172.0945281982422" stroke-width="2.0" fill="rgb(28, 23, 11)" opacity="0.7776786" stroke="rgb(0, 0, 0)" stroke-opacity="0.0" stroke-linecap="round" stroke-linejoin="round"/>
    <path d="M 153.6053924560547 235.12010192871094 C 144.478515625 246.05665588378906 142.7312774658203 268.4700012207031 155.87921142578125 279.2466735839844 C 170.22769165039062 269.18060302734375 166.6469268798828 250.9652099609375 162.65187072753906 239.40951538085938 C 159.8529815673828 236.0364990234375 157.61480712890625 234.4987335205078 153.6053924560547 235.12010192871094" stroke-width="2.0" fill="rgb(191, 180, 147)" opacity="1.0014768" stroke="rgb(0, 0, 0)" stroke-opacity="0.0" stroke-linecap="round" stroke-linejoin="round"/>
    <path d="M 325.5466613769531 249.28012084960938 C 325.1165771484375 258.91552734375 321.99041748046875 267.1451416015625 326.14642333984375 276.58514404296875 C 338.2982177734375 274.8848876953125 349.9134826660156 278.6516418457031 362.6031494140625 274.76300048828125 L 361.5955810546875 250.3352813720703 C 351.71929931640625 264.54498291015625 333.8061828613281 266.3254089355469 325.5466613769531 249.28012084960938" stroke-width="2.0" fill="rgb(190, 34, 8)" opacity="0.9526477" stroke="rgb(0, 0, 0)" stroke-opacity="0.0" stroke-linecap="round" stroke-linejoin="round"/>
    <path d="M 181.60182189941406 245.85516357421875 L 182.4735565185547 256.4164733886719 C 198.74688720703125 254.4143829345703 214.67588806152344 272.2516174316406 231.49267578125 263.00616455078125 C 224.7359161376953 252.15032958984375 211.1337432861328 249.5871124267578 202.89158630371094 246.19656372070312 C 196.47605895996094 246.14381408691406 189.48460388183594 242.26492309570312 181.60182189941406 245.85516357421875" stroke-width="2.0" fill="rgb(58, 137, 109)" opacity="0.9045223" stroke="rgb(0, 0, 0)" stroke-opacity="0.0" stroke-linecap="round" stroke-linejoin="round"/>
    <path d="M 205.35704040527344 353.7164611816406 C 206.23068237304688 361.6601867675781 202.9199981689453 368.4239807128906 208.0377197265625 376.2256774902344 L 285.6850280761719 376.4364929199219 L 285.90771484375 370.2759094238281 L 214.43820190429688 370.34686279296875 C 206.9698028564453 366.5039978027344 215.47711181640625 356.53021240234375 205.35704040527344 353.7164611816406" stroke-width="2.0" fill="rgb(180, 44, 16)" opacity="0.94592774" stroke="rgb(0, 0, 0)" stroke-opacity="0.0" stroke-linecap="round" stroke-linejoin="round"/>
    <path d="M 298.10595703125 258.51959228515625 C 290.2323303222656 253.3653106689453 275.4598388671875 263.4686279296875 260.78863525390625 263.8158264160156 C 259.7514953613281 266.9802551269531 258.7265930175781 269.1518859863281 261.3595275878906 274.2961120605469 C 272.6531066894531 271.9837646484375 289.616455078125 278.3748779296875 298.7364807128906 269.7508239746094 L 298.10595703125 258.51959228515625" stroke-width="2.0" fill="rgb(228, 227, 215)" opacity="1.1109788" stroke="rgb(0, 0, 0)" stroke-opacity="0.0" stroke-linecap="round" stroke-linejoin="round"/>
    <path d="M 373.2042236328125 386.71173095703125 C 370.660888671875 395.0806884765625 374.4526062011719 407.28009033203125 373.0816650390625 417.133544921875 C 379.3599548339844 421.60809326171875 384.62158203125 420.0578918457031 386.1866149902344 411.70849609375 C 386.2904357910156 403.93780517578125 389.30718994140625 384.53021240234375 373.2042236328125 386.71173095703125" stroke-width="2.0" fill="rgb(55, 47, 33)" opacity="0.92422634" stroke="rgb(0, 0, 0)" stroke-opacity="0.0" stroke-linecap="round" stroke-linejoin="round"/>
    <path d="M 246.51119995117188 344.3518981933594 C 242.4171600341797 350.6177978515625 245.5922088623047 357.315673828125 244.3853302001953 363.90936279296875 C 249.34756469726562 368.1693115234375 254.7124481201172 365.7455139160156 261.1553649902344 366.5173645019531 L 261.16339111328125 344.3191223144531 L 246.51119995117188 344.3518981933594" stroke-width="2.0" fill="rgb(251, 238, 157)" opacity="1.0220597" stroke="rgb(0, 0, 0)" stroke-opacity="0.0" stroke-linecap="round" stroke-linejoin="round"/>
    <path d="M 219.19537353515625 322.011474609375 C 219.33663940429688 324.324951171875 218.0233612060547 325.8800048828125 220.94850158691406 327.0963439941406 L 283.3951721191406 327.07696533203125 L 283.38421630859375 321.9990539550781 L 219.19537353515625 322.011474609375" stroke-width="2.0" fill="rgb(184, 182, 144)" opacity="0.98945606" stroke="rgb(0, 0, 0)" stroke-opacity="0.0" stroke-linecap="round" stroke-linejoin="round"/>
    <path d="M 220.69808959960938 344.8211975097656 L 220.65948486328125 364.01611328125 C 225.51467895507812 367.89312744140625 230.27191162109375 365.7105407714844 236.5373077392578 366.5716247558594 C 238.2382049560547 359.3539733886719 236.30511474609375 352.0574951171875 236.82154846191406 343.7694396972656 L 220.69808959960938 344.8211975097656" stroke-width="2.0" fill="rgb(252, 238, 159)" opacity="1.019692" stroke="rgb(0, 0, 0)" stroke-opacity="0.0" stroke-linecap="round" stroke-linejoin="round"/>
    <path d="M 218.7724609375 306.4570617675781 L 279.2738952636719 306.5783996582031 L 280.13232421875 301.28155517578125 L 219.38819885253906 301.2976989746094 L 218.7724609375 306.4570617675781" stroke-width="2.0" fill="rgb(232, 104, 51)" opacity="1.0239506" stroke="rgb(0, 0, 0)" stroke-opacity="0.0" stroke-linecap="round" stroke-linejoin="round"/>
    <path d="M 219.54074096679688 315.0032958984375 C 219.14889526367188 317.3980407714844 217.60916137695312 319.20623779296875 220.56954956054688 320.5411682128906 L 283.935302734375 320.4316711425781 L 283.66925048828125 314.9956970214844 L 219.54074096679688 315.0032958984375" stroke-width="2.0" fill="rgb(75, 134, 98)" opacity="0.99504226" stroke="rgb(0, 0, 0)" stroke-opacity="0.0" stroke-linecap="round" stroke-linejoin="round"/>
    <path d="M 182.96511840820312 193.20909118652344 C 176.55027770996094 211.7522735595703 195.1939239501953 204.68055725097656 205.35374450683594 205.93511962890625 L 209.1396484375 192.36148071289062 L 182.96511840820312 193.20909118652344" stroke-width="2.0" fill="rgb(70, 137, 103)" opacity="0.9653725" stroke="rgb(0, 0, 0)" stroke-opacity="0.0" stroke-linecap="round" stroke-linejoin="round"/>
    <path d="M 134.76475524902344 303.947265625 C 123.48298645019531 312.16278076171875 131.63064575195312 339.8108215332031 143.46763610839844 323.231201171875 C 144.33877563476562 315.5643005371094 144.84368896484375 302.8782043457031 134.76475524902344 303.947265625" stroke-width="2.0" fill="rgb(69, 138, 104)" opacity="0.9607903" stroke="rgb(0, 0, 0)" stroke-opacity="0.0" stroke-linecap="round" stroke-linejoin="round"/>
    <path d="M 327.4214782714844 279.5139465332031 C 327.6053771972656 282.6748352050781 325.205322265625 285.77655029296875 328.9092102050781 287.48956298828125 L 359.525146484375 287.3265686035156 L 359.28790283203125 279.5405578613281 L 327.4214782714844 279.5139465332031" stroke-width="2.0" fill="rgb(191, 43, 9)" opacity="1.0071377" stroke="rgb(0, 0, 0)" stroke-opacity="0.0" stroke-linecap="round" stroke-linejoin="round"/>
    <path d="M 383.03094482421875 354.4739990234375 C 362.5434265136719 345.24224853515625 364.39154052734375 377.77032470703125 383.9613952636719 365.570556640625 L 383.03094482421875 354.4739990234375" stroke-width="2.0" fill="rgb(86, 34, 15)" opacity="1.0016723" stroke="rgb(0, 0, 0)" stroke-opacity="0.0" stroke-linecap="round" stroke-linejoin="round"/>
    <path d="M 286.64862060546875 341.1795654296875 C 277.20416259765625 344.67840576171875 277.0423278808594 359.3724670410156 274.6842346191406 368.7117614746094 C 285.8616943359375 369.0066223144531 287.2638854980469 348.6059875488281 286.64862060546875 341.1795654296875" stroke-width="2.0" fill="rgb(193, 46, 11)" opacity="1.0062438" stroke="rgb(0, 0, 0)" stroke-opacity="0.0" stroke-linecap="round" stroke-linejoin="round"/>
    <path d="M 321.2247619628906 354.1269836425781 C 309.3326721191406 373.9709167480469 346.7806091308594 371.8745422363281 330.6313171386719 352.8584289550781 L 321.2247619628906 354.1269836425781" stroke-width="2.0" fill="rgb(86, 33, 16)" opacity="1.0017421" stroke="rgb(0, 0, 0)" stroke-opacity="0.0" stroke-linecap="round" stroke-linejoin="round"/>
    <path d="M 142.05087280273438 398.950439453125 C 130.94163513183594 411.6080017089844 157.00559997558594 417.677734375 153.02880859375 401.55413818359375 C 150.08338928222656 396.8519287109375 146.09764099121094 396.4229431152344 142.05087280273438 398.950439453125" stroke-width="2.0" fill="rgb(181, 186, 154)" opacity="1.0209801" stroke="rgb(0, 0, 0)" stroke-opacity="0.0" stroke-linecap="round" stroke-linejoin="round"/>
    <path d="M 339.7632751464844 397.73486328125 C 325.1184387207031 410.5631103515625 353.1861267089844 418.74822998046875 349.3860778808594 401.72186279296875 C 347.1645202636719 397.06976318359375 343.0322265625 397.03448486328125 339.7632751464844 397.73486328125" stroke-width="2.0" fill="rgb(181, 185, 156)" opacity="1.0169494" stroke="rgb(0, 0, 0)" stroke-opacity="0.0" stroke-linecap="round" stroke-linejoin="round"/>
    <path d="M 188.21505737304688 359.0998840332031 C 178.70486450195312 351.1167907714844 162.1184844970703 369.6676025390625 178.57334899902344 373.20947265625 L 188.21505737304688 359.0998840332031" stroke-width="2.0" fill="rgb(45, 79, 55)" opacity="0.9395167" stroke="rgb(0, 0, 0)" stroke-opacity="0.0" stroke-linecap="round" stroke-linejoin="round"/>
    <path d="M 273.1453552246094 246.6639404296875 C 264.3324279785156 255.5596466064453 283.1502685546875 259.95751953125 279.3443298339844 248.96994018554688 C 277.10345458984375 246.0929412841797 275.5572814941406 246.5907440185547 273.1453552246094 246.6639404296875" stroke-width="2.0" fill="rgb(120, 103, 71)" opacity="1.0296408" stroke="rgb(0, 0, 0)" stroke-opacity="0.0" stroke-linecap="round" stroke-linejoin="round"/>
    <path d="M 295.98895263671875 251.27369689941406 C 281.6221618652344 258.23944091796875 306.38775634765625 263.388916015625 295.98895263671875 251.27369689941406" stroke-width="2.0" fill="rgb(204, 194, 123)" opacity="1.0627528" stroke="rgb(0, 0, 0)" stroke-opacity="0.0" stroke-linecap="round" stroke-linejoin="round"/>
    <path d="M 258.0968933105469 260.7992858886719 C 250.40142822265625 268.8598327636719 264.21331787109375 272.63458251953125 262.35467529296875 262.5662841796875 L 258.0968933105469 260.7992858886719" stroke-width="2.0" fill="rgb(211, 200, 119)" opacity="1.0312238" stroke="rgb(0, 0, 0)" stroke-opacity="0.0" stroke-linecap="round" stroke-linejoin="round"/>
    <path d="M 278.2154541015625 258.4925537109375 C 277.88421630859375 263.76861572265625 278.8329162597656 271.5559387207031 281.8482971191406 274.228515625 L 278.2154541015625 258.4925537109375" stroke-width="2.0" fill="rgb(82, 80, 68)" opacity="1.1739584" stroke="rgb(0, 0, 0)" stroke-opacity="0.0" stroke-linecap="round" stroke-linejoin="round"/>
    <path d="M 255.34274291992188 226.98898315429688 C 250.65028381347656 240.58729553222656 268.3861389160156 232.32215881347656 255.34274291992188 226.98898315429688" stroke-width="2.0" fill="rgb(44, 41, 29)" opacity="1.021432" stroke="rgb(0, 0, 0)" stroke-opacity="0.0" stroke-linecap="round" stroke-linejoin="round"/>
    <path d="M 239.74118041992188 201.87680053710938 C 232.3804931640625 208.10012817382812 246.99746704101562 208.16079711914062 239.74118041992188 201.87680053710938" stroke-width="2.0" fill="rgb(174, 106, 93)" opacity="1.1040285" stroke="rgb(0, 0, 0)" stroke-opacity="0.0" stroke-linecap="round" stroke-linejoin="round"/>
  </g>
</svg>
