<?xml version="1.0" ?>
<svg xmlns="http://www.w3.org/2000/svg" version="1.1" width="512" height="512">
  <defs/>
  <g>
    <path d="M -0.7033144235610962 -0.7144564986228943 L 512.0000610351562 -0.7215766310691833 L 512.0 512.0 L -0.7228692770004272 512.0000610351562 L -0.7033144235610962 -0.7144564986228943" stroke-width="0.0" fill="rgb(250, 249, 245)" opacity="2.3029637" stroke="rgb(0, 0, 0)" stroke-opacity="0.0" stroke-linecap="round" stroke-linejoin="round"/>
    <path d="M 477.3518981933594 52.36908721923828 L 470.4557189941406 53.79330825805664 C 464.1373291015625 93.31068420410156 451.022216796875 132.97811889648438 446.732177734375 173.2573699951172 C 454.3962707519531 177.2980194091797 445.92877197265625 188.32627868652344 446.5642395019531 194.248046875 C 436.2954406738281 196.5369110107422 426.9338073730469 193.47564697265625 415.4602966308594 195.47305297851562 C 410.1650085449219 202.51951599121094 415.4817810058594 210.18060302734375 404.518798828125 212.86456298828125 C 392.7265319824219 210.08363342285156 403.5519714355469 198.1104736328125 395.2007751464844 187.3170928955078 L 344.013427734375 187.45826721191406 C 331.8402404785156 230.6351318359375 328.366943359375 273.3208923339844 319.1473693847656 316.00323486328125 C 321.2487487792969 366.33673095703125 315.0381164550781 416.6834411621094 319.5307922363281 469.8905944824219 C 334.1647644042969 468.2236328125 347.9236145019531 473.041259765625 360.93585205078125 477.75506591796875 C 386.9541931152344 476.0599670410156 412.66314697265625 483.3868103027344 439.0490417480469 494.5926513671875 C 456.599365234375 497.0471496582031 472.9028015136719 491.0679016113281 487.555908203125 491.9523620605469 C 488.8238830566406 495.1063232421875 498.8769226074219 500.439453125 495.9937438964844 491.99456787109375 C 502.95263671875 495.6564025878906 502.4860534667969 494.4812316894531 499.00445556640625 489.009765625 L 506.6840515136719 490.30426025390625 C 506.5533447265625 344.18646240234375 506.5644836425781 197.37823486328125 506.5672912597656 51.62792205810547 L 477.3518981933594 52.36908721923828" stroke-width="2.0" fill="rgb(151, 129, 110)" opacity="1.0777675" stroke="rgb(0, 0, 0)" stroke-opacity="0.0" stroke-linecap="round" stroke-linejoin="round"/>
    <path d="M 6.854496479034424 59.30866622924805 C 6.556816101074219 204.9566650390625 6.980264186859131 349.5483093261719 6.6862263679504395 495.03033447265625 C 36.991050720214844 498.3825988769531 68.65206909179688 498.8243103027344 89.71172332763672 481.59661865234375 C 100.29876708984375 481.31488037109375 109.27655029296875 485.50787353515625 111.0860824584961 479.3610534667969 C 126.14046478271484 480.9367370605469 140.47537231445312 468.3310241699219 157.0078125 472.9100646972656 C 165.30775451660156 468.70843505859375 173.61407470703125 471.2845764160156 181.94000244140625 465.3219299316406 C 184.18104553222656 426.7937316894531 178.08328247070312 389.3153076171875 184.88351440429688 351.4600830078125 L 173.76724243164062 276.7813415527344 C 163.0209503173828 276.10980224609375 152.88009643554688 282.53948974609375 145.25624084472656 276.6203918457031 C 141.44078063964844 245.80300903320312 136.42051696777344 218.4115753173828 134.16049194335938 191.49020385742188 C 121.85192108154297 186.50906372070312 110.7172622680664 191.26560974121094 101.10675048828125 189.54051208496094 C 94.03724670410156 145.32156372070312 88.41252899169922 102.9407958984375 83.34944915771484 59.8149528503418 C 57.659088134765625 59.40555191040039 34.32240676879883 59.7882194519043 6.854496479034424 59.30866622924805" stroke-width="2.0" fill="rgb(135, 113, 96)" opacity="1.0604789" stroke="rgb(0, 0, 0)" stroke-opacity="0.0" stroke-linecap="round" stroke-linejoin="round"/>
    <path d="M 6.723189353942871 9.97893238067627 L 6.828216075897217 60.746219635009766 C 33.88405990600586 63.686302185058594 58.56125259399414 57.28581237792969 82.89037322998047 65.145751953125 C 86.42686462402344 84.75477600097656 88.5461654663086 107.48138427734375 93.0909652709961 136.1509246826172 C 131.7554168701172 138.38638305664062 169.05999755859375 138.0168914794922 209.2987823486328 136.62197875976562 C 208.98446655273438 123.43283081054688 207.64100646972656 114.53841400146484 221.59237670898438 115.57042694091797 C 216.4681396484375 102.29882049560547 233.01617431640625 91.69389343261719 242.63803100585938 80.83809661865234 C 244.99520874023438 63.94997787475586 240.46038818359375 49.18734359741211 244.88189697265625 32.81827163696289 C 246.2748565673828 33.5293083190918 247.40414428710938 34.76860427856445 247.69146728515625 37.612548828125 L 248.68223571777344 80.70438385009766 C 258.54681396484375 92.05333709716797 273.649169921875 100.9442138671875 269.6343994140625 117.50514221191406 C 282.97027587890625 113.18872833251953 283.4962158203125 127.53329467773438 285.536865234375 139.23065185546875 L 452.7221374511719 138.65476989746094 C 460.206298828125 106.63922882080078 465.0760803222656 80.78868865966797 471.9967041015625 56.08233642578125 C 481.13482666015625 46.86219787597656 495.6105041503906 56.50154495239258 506.5543212890625 51.88145065307617 L 506.50689697265625 6.5424299240112305 L 11.291889190673828 6.523921489715576 C 9.164687156677246 6.870185852050781 6.62558650970459 4.9044294357299805 6.723189353942871 9.97893238067627" stroke-width="2.0" fill="rgb(178, 179, 161)" opacity="0.9339136" stroke="rgb(0, 0, 0)" stroke-opacity="0.0" stroke-linecap="round" stroke-linejoin="round"/>
    <path d="M 75.77870178222656 62.39223098754883 C 56.5903434753418 58.683860778808594 31.89388084411621 56.27336502075195 15.485886573791504 60.50796890258789 C 20.9654541015625 205.25819396972656 19.109760284423828 347.7131652832031 25.02031135559082 490.85986328125 C 33.660221099853516 494.2004699707031 57.21395492553711 494.537353515625 79.70584106445312 487.105712890625 C 77.29208374023438 464.1510009765625 97.01017761230469 475.7392883300781 112.15151977539062 462.875732421875 C 101.69684600830078 392.8041687011719 117.16279602050781 309.6706848144531 101.86723327636719 242.37672424316406 C 92.7994384765625 183.0552215576172 82.14205169677734 125.41873168945312 75.77870178222656 62.39223098754883" stroke-width="2.0" fill="rgb(193, 180, 156)" opacity="1.1081685" stroke="rgb(0, 0, 0)" stroke-opacity="0.0" stroke-linecap="round" stroke-linejoin="round"/>
    <path d="M 247.79217529296875 34.775962829589844 C 239.50173950195312 58.1613655090332 256.0450744628906 82.22838592529297 223.4062957763672 101.40991973876953 C 222.42422485351562 111.45499420166016 217.811767578125 115.66606903076172 207.84194946289062 118.35231018066406 L 208.98464965820312 281.8607482910156 C 201.61489868164062 293.77880859375 188.2184600830078 306.05322265625 181.61190795898438 315.56390380859375 C 184.27293395996094 334.2861328125 188.85922241210938 352.40277099609375 187.53619384765625 370.0428161621094 C 191.2637176513672 396.3387756347656 184.69842529296875 422.6004638671875 190.29197692871094 447.85791015625 C 213.27452087402344 452.20245361328125 240.52561950683594 449.192138671875 265.83575439453125 448.9250183105469 C 263.3885192871094 415.5310363769531 268.7093505859375 386.3922424316406 266.2989807128906 358.0579833984375 C 274.21270751953125 346.7255554199219 281.19781494140625 333.5546569824219 282.9256286621094 320.6671447753906 L 284.28369140625 119.88384246826172 C 277.68756103515625 112.70296478271484 272.9681701660156 119.73841857910156 269.963623046875 115.25122833251953 C 275.29144287109375 101.20288848876953 258.8843688964844 90.35955047607422 246.60928344726562 79.22312927246094 L 247.79217529296875 34.775962829589844" stroke-width="2.0" fill="rgb(207, 186, 146)" opacity="0.75124025" stroke="rgb(0, 0, 0)" stroke-opacity="0.0" stroke-linecap="round" stroke-linejoin="round"/>
    <path d="M 500.6971130371094 51.671573638916016 C 493.51275634765625 52.733299255371094 480.2571716308594 46.21662139892578 471.21795654296875 55.48778533935547 C 464.2367248535156 93.7507095336914 454.4391784667969 131.29827880859375 444.9009704589844 168.65557861328125 C 445.3997497558594 171.43699645996094 445.2479553222656 174.0474853515625 448.4737854003906 176.92373657226562 L 447.2095031738281 493.5281982421875 C 454.9527587890625 493.8813781738281 453.0500793457031 488.82135009765625 457.0072326660156 485.41375732421875 C 463.13726806640625 485.9903259277344 478.8377685546875 491.7816467285156 473.4548034667969 479.785888671875 C 481.46075439453125 477.5917663574219 470.724609375 472.8518371582031 477.8881530761719 469.5913391113281 C 472.5477600097656 460.9889831542969 483.46380615234375 463.9120178222656 482.67669677734375 453.3165588378906 C 490.9300842285156 456.1363525390625 485.6864013671875 466.5382080078125 488.4795837402344 471.0700378417969 L 499.66845703125 472.22698974609375 L 500.6971130371094 51.671573638916016" stroke-width="2.0" fill="rgb(213, 183, 147)" opacity="1.0298029" stroke="rgb(0, 0, 0)" stroke-opacity="0.0" stroke-linecap="round" stroke-linejoin="round"/>
    <path d="M 341.640380859375 187.56820678710938 C 334.24853515625 227.9254913330078 326.4711608886719 267.4800720214844 317.0765380859375 307.28857421875 C 316.896728515625 353.9187316894531 319.9967956542969 401.33612060546875 316.6405944824219 445.33294677734375 C 317.59375 452.562255859375 314.11651611328125 459.4858093261719 317.7064208984375 459.482666015625 C 329.8109436035156 457.05926513671875 344.3050231933594 453.2373352050781 358.019775390625 456.79315185546875 C 364.9184875488281 462.185791015625 373.1127624511719 471.1898193359375 380.9247131347656 474.55047607421875 L 372.3251953125 291.9949645996094 C 388.1852722167969 282.2122497558594 400.9630126953125 278.10687255859375 411.09716796875 267.9718017578125 C 404.6772155761719 254.39527893066406 414.983154296875 237.9782257080078 404.65863037109375 228.9037322998047 C 404.91143798828125 221.9097442626953 413.4788818359375 210.81199645996094 400.1829833984375 211.2092742919922 L 400.1959533691406 186.82882690429688 L 341.640380859375 187.56820678710938" stroke-width="2.0" fill="rgb(217, 207, 187)" opacity="1.2170928" stroke="rgb(0, 0, 0)" stroke-opacity="0.0" stroke-linecap="round" stroke-linejoin="round"/>
    <path d="M 111.95014953613281 188.99571228027344 L 93.874755859375 192.46133422851562 C 116.73825073242188 286.5911865234375 109.2815170288086 377.07293701171875 107.76908874511719 477.30157470703125 C 115.99607849121094 478.1865234375 128.28988647460938 482.8211364746094 132.12498474121094 474.2465515136719 C 145.7899169921875 472.4482421875 162.74266052246094 473.51739501953125 181.4208984375 464.63958740234375 C 185.00680541992188 427.3043518066406 173.40753173828125 389.43719482421875 186.11837768554688 352.821044921875 C 181.38531494140625 325.4908142089844 177.4629364013672 300.1239929199219 172.69027709960938 276.3367919921875 C 161.96812438964844 277.4027099609375 151.8614959716797 281.7088317871094 144.31942749023438 276.55609130859375 C 141.1277618408203 245.6336212158203 134.83334350585938 218.84400939941406 133.87010192871094 189.4644012451172 C 126.67255401611328 188.4928741455078 119.66526794433594 192.7299346923828 111.95014953613281 188.99571228027344" stroke-width="2.0" fill="rgb(29, 42, 46)" opacity="0.8991916" stroke="rgb(0, 0, 0)" stroke-opacity="0.0" stroke-linecap="round" stroke-linejoin="round"/>
    <path d="M 448.4232177734375 252.98211669921875 C 427.67022705078125 264.1307373046875 407.1895751953125 279.76641845703125 386.4458312988281 291.9717712402344 C 380.5993957519531 295.01904296875 386.5723876953125 299.92669677734375 382.63995361328125 305.85205078125 L 382.6772155761719 470.1211242675781 C 405.0380859375 478.7469482421875 424.14111328125 484.9298095703125 443.5142822265625 491.4728088378906 C 446.3024597167969 490.9217834472656 445.5028076171875 489.9439392089844 448.0455017089844 487.86383056640625 L 448.4232177734375 252.98211669921875" stroke-width="2.0" fill="rgb(222, 210, 187)" opacity="1.1897684" stroke="rgb(0, 0, 0)" stroke-opacity="0.0" stroke-linecap="round" stroke-linejoin="round"/>
    <path d="M 94.5745620727539 133.59898376464844 C 93.4815673828125 150.56155395507812 99.27052307128906 168.53318786621094 102.01496887207031 187.43174743652344 C 114.39095306396484 191.49476623535156 124.8282241821289 184.79470825195312 135.2908172607422 190.0883026123047 C 135.7641143798828 216.9690704345703 143.98593139648438 243.53163146972656 145.22003173828125 272.60565185546875 C 155.61557006835938 279.5475158691406 167.54974365234375 269.5994873046875 175.2787628173828 279.4926452636719 C 177.64059448242188 286.4995422363281 174.82859802246094 305.61248779296875 185.10263061523438 309.9152526855469 L 209.1294403076172 281.4989929199219 L 207.9226531982422 133.473388671875 L 94.5745620727539 133.59898376464844" stroke-width="2.0" fill="rgb(230, 219, 187)" opacity="0.85682535" stroke="rgb(0, 0, 0)" stroke-opacity="0.0" stroke-linecap="round" stroke-linejoin="round"/>
    <path d="M 283.388671875 245.4796905517578 L 329.2516174316406 245.5939483642578 C 336.07489013671875 225.6374969482422 335.5126953125 206.0641632080078 343.30035400390625 186.71890258789062 L 400.391845703125 186.57354736328125 C 400.2710876464844 171.9385528564453 402.9309387207031 156.53553771972656 412.80975341796875 145.49037170410156 C 429.7841796875 143.0711669921875 423.763671875 170.08441162109375 426.5245666503906 185.85169982910156 L 449.06585693359375 185.48919677734375 C 443.4071960449219 168.1105194091797 450.2234191894531 151.39010620117188 452.83795166015625 133.5751190185547 L 282.1319274902344 133.5611572265625 L 283.388671875 245.4796905517578" stroke-width="2.0" fill="rgb(228, 219, 190)" opacity="0.8843639" stroke="rgb(0, 0, 0)" stroke-opacity="0.0" stroke-linecap="round" stroke-linejoin="round"/>
    <path d="M 126.86360168457031 189.1175537109375 L 100.93008422851562 189.31422424316406 C 105.56237030029297 211.8524169921875 105.72911834716797 235.23141479492188 114.68064880371094 259.4652099609375 C 112.80715942382812 328.7842712402344 113.2228012084961 401.19390869140625 113.311767578125 468.4459228515625 C 109.943359375 467.7147521972656 118.65167236328125 457.5127258300781 121.7554931640625 465.3096923828125 C 125.60882568359375 458.54193115234375 137.728515625 466.90869140625 146.3043975830078 461.57659912109375 C 148.93496704101562 409.6061706542969 147.96487426757812 354.1528015136719 143.4107666015625 302.64935302734375 L 126.86360168457031 189.1175537109375" stroke-width="2.0" fill="rgb(132, 135, 126)" opacity="0.9847495" stroke="rgb(0, 0, 0)" stroke-opacity="0.0" stroke-linecap="round" stroke-linejoin="round"/>
    <path d="M 7.598140716552734 60.7877311706543 L 8.082372665405273 211.34950256347656 C 10.426464080810547 210.7716827392578 15.590084075927734 207.6011199951172 16.74102783203125 213.6363525390625 C 27.153820037841797 210.27438354492188 44.24336624145508 219.50259399414062 49.76455307006836 207.72328186035156 C 58.57951354980469 164.3333740234375 70.5430908203125 118.36796569824219 79.79362487792969 80.49472045898438 C 80.119873046875 80.70111846923828 74.21166229248047 89.78580474853516 85.52046203613281 90.90814208984375 C 84.0775375366211 69.05551147460938 84.06121826171875 68.86978912353516 82.93508911132812 60.661407470703125 L 7.598140716552734 60.7877311706543" stroke-width="2.0" fill="rgb(22, 40, 46)" opacity="0.7308399" stroke="rgb(0, 0, 0)" stroke-opacity="0.0" stroke-linecap="round" stroke-linejoin="round"/>
    <path d="M 145.54351806640625 274.6191101074219 C 141.68582153320312 287.063232421875 154.84481811523438 302.7681884765625 144.38385009765625 311.72515869140625 L 145.8318634033203 464.0500793457031 C 155.7484588623047 469.5411682128906 169.6259765625 467.7059020996094 182.4293670654297 463.83544921875 L 183.13475036621094 359.46417236328125 L 187.0161590576172 359.2762451171875 C 184.14231872558594 328.6898498535156 176.9846649169922 302.2447509765625 173.36282348632812 275.6363830566406 L 145.54351806640625 274.6191101074219" stroke-width="2.0" fill="rgb(182, 141, 109)" opacity="0.8604281" stroke="rgb(0, 0, 0)" stroke-opacity="0.0" stroke-linecap="round" stroke-linejoin="round"/>
    <path d="M 290.0931396484375 318.80194091796875 C 277.484130859375 335.475341796875 266.2126770019531 356.5976257324219 268.6504211425781 375.21026611328125 L 268.4560241699219 450.8224792480469 C 285.2488098144531 459.7785339355469 299.9692077636719 462.4104309082031 319.4842834472656 458.8545227050781 C 318.31341552734375 408.6095275878906 321.22369384765625 362.50042724609375 315.9958801269531 318.1322021484375 L 290.0931396484375 318.80194091796875" stroke-width="2.0" fill="rgb(171, 124, 75)" opacity="0.7630867" stroke="rgb(0, 0, 0)" stroke-opacity="0.0" stroke-linecap="round" stroke-linejoin="round"/>
    <path d="M 68.93447875976562 60.551841735839844 L 6.888060092926025 59.68587875366211 L 6.732641696929932 205.7097930908203 L 31.967735290527344 205.7321014404297 C 43.85122299194336 158.45303344726562 56.54706573486328 107.71415710449219 68.93447875976562 60.551841735839844" stroke-width="2.0" fill="rgb(177, 115, 73)" opacity="0.8150996" stroke="rgb(0, 0, 0)" stroke-opacity="0.0" stroke-linecap="round" stroke-linejoin="round"/>
    <path d="M 341.62774658203125 187.4963836669922 C 339.5358581542969 206.3387451171875 334.8882751464844 224.7504119873047 329.92034912109375 250.21347045898438 C 339.5165100097656 249.88101196289062 337.8156433105469 230.6342010498047 338.4631042480469 233.047607421875 C 341.1078186035156 224.3600616455078 342.5240173339844 214.97230529785156 344.154052734375 207.80921936035156 C 351.4811706542969 239.63632202148438 356.6072082519531 267.6140441894531 363.9119873046875 299.23199462890625 C 369.2660217285156 302.9729309082031 386.89501953125 302.8078918457031 383.6432800292969 295.6092224121094 C 394.2946472167969 285.203369140625 408.83538818359375 282.3134765625 415.5223693847656 270.3890380859375 C 405.251708984375 252.92608642578125 413.5155029296875 237.13897705078125 404.67889404296875 228.9914093017578 C 406.5876770019531 219.58026123046875 413.1508483886719 211.6063995361328 398.8736877441406 211.72718811035156 L 398.4583435058594 187.5186767578125 L 341.62774658203125 187.4963836669922" stroke-width="2.0" fill="rgb(-10, 19, 34)" opacity="0.54946184" stroke="rgb(0, 0, 0)" stroke-opacity="0.0" stroke-linecap="round" stroke-linejoin="round"/>
    <path d="M 139.7748565673828 506.204345703125 L 347.9925231933594 504.87353515625 C 321.5382080078125 485.77301025390625 293.12042236328125 479.501953125 265.84576416015625 462.62774658203125 C 249.82298278808594 462.47369384765625 235.01759338378906 459.2113952636719 216.34388732910156 458.220458984375 C 217.24462890625 465.1279296875 210.1720733642578 467.69720458984375 205.3541717529297 473.0670166015625 C 186.9193115234375 482.4405517578125 165.84129333496094 486.88153076171875 139.7748565673828 506.204345703125" stroke-width="2.0" fill="rgb(107, 109, 106)" opacity="1.141521" stroke="rgb(0, 0, 0)" stroke-opacity="0.0" stroke-linecap="round" stroke-linejoin="round"/>
    <path d="M 263.86724853515625 457.1282653808594 C 266.5835266113281 464.2427673339844 270.1009216308594 465.3999328613281 270.4759521484375 468.42291259765625 L 352.7843017578125 507.0191345214844 C 390.3291320800781 504.7173156738281 426.64361572265625 507.9877014160156 463.0074462890625 501.70269775390625 L 462.8773498535156 494.8030090332031 C 415.6588439941406 481.0094909667969 368.868408203125 468.2759704589844 322.00830078125 459.56146240234375 C 317.1413269042969 465.48736572265625 320.33917236328125 462.49310302734375 317.7287902832031 455.7024230957031 C 299.706787109375 458.1693115234375 284.3823547363281 456.5603332519531 263.86724853515625 457.1282653808594" stroke-width="2.0" fill="rgb(145, 153, 137)" opacity="0.5858473" stroke="rgb(0, 0, 0)" stroke-opacity="0.0" stroke-linecap="round" stroke-linejoin="round"/>
    <path d="M 208.976806640625 284.75738525390625 L 180.50537109375 315.9864807128906 C 183.21365356445312 329.9556884765625 185.91419982910156 344.2002868652344 188.10183715820312 358.0367431640625 L 181.6367950439453 359.8420104980469 L 182.6133575439453 451.1604919433594 C 189.12588500976562 454.7667541503906 199.95042419433594 451.3069763183594 209.78265380859375 454.2427673339844 L 208.976806640625 284.75738525390625" stroke-width="2.0" fill="rgb(217, 208, 184)" opacity="0.71977776" stroke="rgb(0, 0, 0)" stroke-opacity="0.0" stroke-linecap="round" stroke-linejoin="round"/>
    <path d="M 223.8712921142578 460.1407775878906 C 208.44253540039062 456.202880859375 185.76693725585938 455.72711181640625 177.30422973632812 460.15374755859375 C 164.03697204589844 472.37896728515625 147.6123504638672 472.5852966308594 129.4405975341797 471.1521911621094 C 129.64808654785156 487.09991455078125 108.84500885009766 470.0771179199219 107.63029479980469 482.5933532714844 C 72.99637603759766 487.7748718261719 40.07299041748047 494.30316162109375 6.665743827819824 495.16241455078125 L 6.773755073547363 506.25616455078125 C 45.390567779541016 506.32470703125 83.41130828857422 506.3819274902344 123.30655670166016 506.2427978515625 C 152.56558227539062 489.3537902832031 185.29148864746094 481.5764465332031 223.8712921142578 460.1407775878906" stroke-width="2.0" fill="rgb(197, 183, 158)" opacity="0.97451526" stroke="rgb(0, 0, 0)" stroke-opacity="0.0" stroke-linecap="round" stroke-linejoin="round"/>
    <path d="M 243.59815979003906 33.803733825683594 L 243.73455810546875 81.15409851074219 C 232.48379516601562 92.54210662841797 217.7432861328125 104.0772476196289 224.17355346679688 117.07888793945312 L 209.7748565673828 117.78124237060547 L 211.09559631347656 165.22991943359375 L 246.17510986328125 122.12284088134766 C 253.8299102783203 133.11581420898438 270.2606201171875 149.6938018798828 282.9051208496094 168.54287719726562 L 281.9308776855469 117.11920928955078 C 265.2378845214844 121.911865234375 269.4805603027344 112.04839324951172 269.36346435546875 100.14764404296875 L 247.96681213378906 79.95532989501953 C 245.10562133789062 63.99892807006836 250.7543182373047 45.71751403808594 243.59815979003906 33.803733825683594" stroke-width="2.0" fill="rgb(-4, 2, 4)" opacity="0.8500509" stroke="rgb(0, 0, 0)" stroke-opacity="0.0" stroke-linecap="round" stroke-linejoin="round"/>
    <path d="M 418.07720947265625 146.5645751953125 C 406.3475341796875 142.80514526367188 413.36981201171875 153.77940368652344 399.4892272949219 164.04042053222656 L 409.1141662597656 158.96392822265625 C 406.59283447265625 185.36073303222656 414.0794372558594 207.41534423828125 404.4983825683594 229.60577392578125 C 413.6960754394531 234.23895263671875 404.7820129394531 250.9054718017578 408.5660400390625 261.7942810058594 C 422.4681396484375 255.05076599121094 437.2024841308594 243.9934844970703 448.5536804199219 233.85891723632812 L 448.33624267578125 186.81622314453125 C 438.56353759765625 184.98110961914062 430.6789245605469 191.81539916992188 423.0667724609375 185.62013244628906 C 424.551025390625 171.49533081054688 422.91815185546875 159.33766174316406 418.07720947265625 146.5645751953125" stroke-width="2.0" fill="rgb(92, 102, 108)" opacity="0.9677943" stroke="rgb(0, 0, 0)" stroke-opacity="0.0" stroke-linecap="round" stroke-linejoin="round"/>
    <path d="M 365.4293212890625 300.2115173339844 L 365.04376220703125 474.4635925292969 C 367.1498107910156 478.55511474609375 375.0294189453125 476.9805908203125 382.7633056640625 477.9023742675781 L 382.7370300292969 301.004150390625 C 377.1850280761719 298.7815246582031 372.04547119140625 302.34356689453125 365.4293212890625 300.2115173339844" stroke-width="2.0" fill="rgb(127, 129, 121)" opacity="1.0071341" stroke="rgb(0, 0, 0)" stroke-opacity="0.0" stroke-linecap="round" stroke-linejoin="round"/>
    <path d="M 317.3795166015625 468.9883117675781 L 317.9527893066406 479.6210021972656 C 340.3110046386719 489.84564208984375 361.2291259765625 495.0528259277344 384.12750244140625 505.76947021484375 L 507.73089599609375 505.7019348144531 C 496.09442138671875 492.7899169921875 476.74615478515625 498.7158508300781 463.1524658203125 495.36492919921875 C 415.1446838378906 485.14404296875 367.1736145019531 476.26129150390625 317.3795166015625 468.9883117675781" stroke-width="2.0" fill="rgb(240, 232, 209)" opacity="0.99384093" stroke="rgb(0, 0, 0)" stroke-opacity="0.0" stroke-linecap="round" stroke-linejoin="round"/>
    <path d="M 282.809814453125 247.2887420654297 L 282.5832214355469 317.6510925292969 L 319.8985595703125 320.8974914550781 C 325.52459716796875 296.85333251953125 329.755126953125 274.6465148925781 335.11273193359375 247.4883575439453 L 282.809814453125 247.2887420654297" stroke-width="2.0" fill="rgb(19, 40, 45)" opacity="0.9624019" stroke="rgb(0, 0, 0)" stroke-opacity="0.0" stroke-linecap="round" stroke-linejoin="round"/>
    <path d="M 243.53904724121094 457.64801025390625 L 244.61215209960938 504.8713073730469 L 350.0520324707031 506.6629333496094 C 322.362548828125 484.67181396484375 285.80413818359375 483.4305725097656 263.7039794921875 457.4402770996094 L 243.53904724121094 457.64801025390625" stroke-width="2.0" fill="rgb(206, 198, 180)" opacity="0.98142165" stroke="rgb(0, 0, 0)" stroke-opacity="0.0" stroke-linecap="round" stroke-linejoin="round"/>
    <path d="M 506.509521484375 51.31148910522461 L 472.0863037109375 51.69149398803711 C 463.8506774902344 92.8564224243164 454.366943359375 131.629150390625 444.7581787109375 174.55506896972656 C 443.4165954589844 177.30970764160156 452.13641357421875 177.29922485351562 451.4063415527344 173.1111297607422 C 459.6138000488281 137.37648010253906 466.1946105957031 105.66511535644531 475.0294189453125 67.73844909667969 C 482.0284423828125 92.14559936523438 488.6864013671875 113.43157958984375 495.9564208984375 137.76904296875 C 497.3577575683594 137.4093780517578 501.5604553222656 136.52978515625 506.546142578125 138.2650146484375 L 506.509521484375 51.31148910522461" stroke-width="2.0" fill="rgb(32, 41, 43)" opacity="0.9899926" stroke="rgb(0, 0, 0)" stroke-opacity="0.0" stroke-linecap="round" stroke-linejoin="round"/>
    <path d="M 243.6737060546875 457.4134216308594 C 235.65005493164062 459.09967041015625 212.58018493652344 454.8316650390625 217.18966674804688 462.807373046875 C 193.9429931640625 476.9300842285156 172.98248291015625 488.2248840332031 149.93002319335938 506.22125244140625 L 244.68138122558594 506.28485107421875 L 243.6737060546875 457.4134216308594" stroke-width="2.0" fill="rgb(146, 148, 139)" opacity="0.988012" stroke="rgb(0, 0, 0)" stroke-opacity="0.0" stroke-linecap="round" stroke-linejoin="round"/>
    <path d="M 448.3268127441406 195.91064453125 L 414.44757080078125 194.15179443359375 C 412.4662780761719 206.31692504882812 406.9800720214844 218.50057983398438 402.9920654296875 230.4798126220703 C 406.4296569824219 232.3575897216797 408.4668884277344 229.39805603027344 409.6315612792969 231.26324462890625 L 408.77734375 265.29229736328125 C 422.8472595214844 256.54876708984375 435.2229919433594 245.5247344970703 448.33306884765625 235.44241333007812 L 448.3268127441406 195.91064453125" stroke-width="2.0" fill="rgb(45, 55, 56)" opacity="1.0356933" stroke="rgb(0, 0, 0)" stroke-opacity="0.0" stroke-linecap="round" stroke-linejoin="round"/>
    <path d="M 243.58946228027344 79.56917572021484 L 220.60086059570312 102.51944732666016 L 221.4185791015625 145.7323760986328 C 229.90310668945312 136.7559051513672 239.48377990722656 123.32368469238281 246.43753051757812 116.30967712402344 L 269.44427490234375 144.5030975341797 L 270.3662414550781 100.94512176513672 C 261.4443054199219 94.05606842041016 253.5380859375 80.71894073486328 243.58946228027344 79.56917572021484" stroke-width="2.0" fill="rgb(138, 143, 135)" opacity="0.9318272" stroke="rgb(0, 0, 0)" stroke-opacity="0.0" stroke-linecap="round" stroke-linejoin="round"/>
    <path d="M 83.03001403808594 466.1859436035156 L 6.633579730987549 469.0825500488281 L 6.686176300048828 497.7547912597656 C 32.87512969970703 496.0802917480469 56.61528015136719 496.6363830566406 80.30911254882812 489.2113952636719 C 84.78604125976562 482.19561767578125 81.49053192138672 474.9412841796875 83.03001403808594 466.1859436035156" stroke-width="2.0" fill="rgb(90, 99, 97)" opacity="0.715442" stroke="rgb(0, 0, 0)" stroke-opacity="0.0" stroke-linecap="round" stroke-linejoin="round"/>
    <path d="M 143.71646118164062 275.9665222167969 L 146.9147491455078 347.4479675292969 L 157.43409729003906 347.1349792480469 C 163.59373474121094 328.60394287109375 164.85169982910156 309.56658935546875 170.41983032226562 292.4414367675781 C 173.83401489257812 314.4009704589844 177.83078002929688 334.77783203125 180.71888732910156 355.2688293457031 C 181.2620086669922 356.3804931640625 180.16793823242188 360.6910095214844 187.02500915527344 359.44366455078125 C 183.05723571777344 329.4110107421875 176.70204162597656 302.2596130371094 173.20419311523438 274.5543212890625 L 143.71646118164062 275.9665222167969" stroke-width="2.0" fill="rgb(-19, 45, 79)" opacity="0.4165708" stroke="rgb(0, 0, 0)" stroke-opacity="0.0" stroke-linecap="round" stroke-linejoin="round"/>
    <path d="M 330.8687438964844 247.53590393066406 L 299.4029541015625 247.56314086914062 L 300.4190979003906 316.1597900390625 C 305.9472961425781 314.335205078125 311.20367431640625 318.9143371582031 316.5699462890625 317.74981689453125 L 330.8687438964844 247.53590393066406" stroke-width="2.0" fill="rgb(88, 101, 102)" opacity="1.3530159" stroke="rgb(0, 0, 0)" stroke-opacity="0.0" stroke-linecap="round" stroke-linejoin="round"/>
    <path d="M 239.98187255859375 397.42578125 C 220.3059539794922 410.9771728515625 231.02699279785156 429.0860290527344 227.12437438964844 450.0744323730469 L 266.81170654296875 449.9319763183594 C 265.33245849609375 427.72613525390625 271.6947937011719 390.0399169921875 239.98187255859375 397.42578125" stroke-width="2.0" fill="rgb(133, 101, 79)" opacity="0.6094277" stroke="rgb(0, 0, 0)" stroke-opacity="0.0" stroke-linecap="round" stroke-linejoin="round"/>
    <path d="M 209.48507690429688 337.7591552734375 L 209.24192810058594 452.21661376953125 C 212.4857177734375 456.6865234375 222.0572967529297 453.97723388671875 221.5729217529297 446.790771484375 L 221.58839416503906 339.9811096191406 C 219.13999938964844 335.74676513671875 214.39682006835938 338.649169921875 209.48507690429688 337.7591552734375" stroke-width="2.0" fill="rgb(156, 115, 81)" opacity="0.53260475" stroke="rgb(0, 0, 0)" stroke-opacity="0.0" stroke-linecap="round" stroke-linejoin="round"/>
    <path d="M 421.6275634765625 145.46368408203125 C 404.9339904785156 141.46302795410156 412.1159362792969 152.5579376220703 401.0916748046875 161.16526794433594 C 403.9115905761719 178.16506958007812 395.0618591308594 196.45712280273438 402.8210754394531 210.8014678955078 C 412.5809631347656 211.28878784179688 410.526123046875 198.71353149414062 415.5198669433594 192.1834259033203 C 423.66290283203125 191.0517578125 450.8794250488281 201.51707458496094 444.13092041015625 186.3365478515625 C 437.399169921875 185.72821044921875 430.880859375 188.49896240234375 425.2739562988281 185.2192840576172 C 425.9184875488281 171.0004425048828 426.17437744140625 157.39004516601562 421.6275634765625 145.46368408203125" stroke-width="2.0" fill="rgb(166, 147, 70)" opacity="0.35776436" stroke="rgb(0, 0, 0)" stroke-opacity="0.0" stroke-linecap="round" stroke-linejoin="round"/>
    <path d="M 82.15216064453125 391.9110412597656 L 81.98621368408203 478.3707580566406 C 86.84329223632812 479.5201110839844 93.16316223144531 479.4815368652344 99.12686157226562 477.31536865234375 L 97.18560028076172 396.2687072753906 C 92.26786804199219 394.8299865722656 88.78706359863281 393.511474609375 82.15216064453125 391.9110412597656" stroke-width="2.0" fill="rgb(21, 35, 39)" opacity="0.8562743" stroke="rgb(0, 0, 0)" stroke-opacity="0.0" stroke-linecap="round" stroke-linejoin="round"/>
    <path d="M 299.7911071777344 247.6073760986328 L 282.04888916015625 247.36338806152344 L 282.4146423339844 323.33624267578125 C 289.20947265625 315.5862731933594 294.1603698730469 315.1294860839844 300.676513671875 315.668212890625 L 299.7911071777344 247.6073760986328" stroke-width="2.0" fill="rgb(44, 50, 48)" opacity="0.75307316" stroke="rgb(0, 0, 0)" stroke-opacity="0.0" stroke-linecap="round" stroke-linejoin="round"/>
    <path d="M 232.85511779785156 179.1318359375 C 228.03245544433594 193.67288208007812 234.015869140625 206.99465942382812 229.70204162597656 224.0067901611328 L 259.6048583984375 223.99705505371094 L 260.5296630859375 182.20004272460938 C 252.8366241455078 178.08413696289062 250.41012573242188 190.37942504882812 246.01499938964844 180.52490234375 C 242.314208984375 180.9495391845703 239.4092559814453 185.2600860595703 232.85511779785156 179.1318359375" stroke-width="2.0" fill="rgb(193, 185, 161)" opacity="0.6992552" stroke="rgb(0, 0, 0)" stroke-opacity="0.0" stroke-linecap="round" stroke-linejoin="round"/>
    <path d="M 284.46063232421875 317.2559509277344 C 279.2401123046875 333.1820373535156 273.9136657714844 345.1100158691406 266.193115234375 361.2742919921875 L 269.5203552246094 362.1285095214844 C 278.5015869140625 347.0867919921875 282.9543762207031 332.8460693359375 289.1107177734375 319.5295715332031 C 299.16815185546875 335.6165466308594 303.5238952636719 368.11810302734375 318.0554504394531 366.01556396484375 C 319.6484375 345.41864013671875 317.5866394042969 329.08428955078125 320.23638916015625 315.6187438964844 C 305.9112243652344 318.7132263183594 295.8269958496094 312.48480224609375 284.46063232421875 317.2559509277344" stroke-width="2.0" fill="rgb(52, 61, 60)" opacity="1.0192999" stroke="rgb(0, 0, 0)" stroke-opacity="0.0" stroke-linecap="round" stroke-linejoin="round"/>
    <path d="M 326.045654296875 458.2869567871094 L 273.4022521972656 449.5613098144531 C 263.35528564453125 443.1661071777344 242.76124572753906 454.2220458984375 223.41030883789062 444.94403076171875 C 214.46495056152344 455.2935485839844 198.55352783203125 446.2767639160156 182.65696716308594 450.5720520019531 L 182.4596710205078 460.22760009765625 C 227.40170288085938 459.28985595703125 273.54998779296875 462.1467590332031 326.045654296875 458.2869567871094" stroke-width="2.0" fill="rgb(-165, -155, -147)" opacity="0.25836113" stroke="rgb(0, 0, 0)" stroke-opacity="0.0" stroke-linecap="round" stroke-linejoin="round"/>
    <path d="M 7.282923698425293 467.65777587890625 L 7.669327735900879 496.62213134765625 L 44.04463195800781 495.2374267578125 L 43.609989166259766 467.34832763671875 L 7.282923698425293 467.65777587890625" stroke-width="2.0" fill="rgb(32, 44, 48)" opacity="1.079709" stroke="rgb(0, 0, 0)" stroke-opacity="0.0" stroke-linecap="round" stroke-linejoin="round"/>
    <path d="M 308.4742431640625 361.8305358886719 L 308.0860900878906 458.910888671875 C 314.9967346191406 460.10040283203125 321.5502014160156 461.9571838378906 318.2628173828125 456.404296875 L 318.205078125 361.9844665527344 L 308.4742431640625 361.8305358886719" stroke-width="2.0" fill="rgb(115, 70, 43)" opacity="0.7226712" stroke="rgb(0, 0, 0)" stroke-opacity="0.0" stroke-linecap="round" stroke-linejoin="round"/>
    <path d="M 396.4840087890625 464.16046142578125 L 398.84454345703125 481.8888854980469 C 414.20684814453125 484.0827331542969 430.3794860839844 489.5404357910156 449.4898986816406 492.9695129394531 L 448.1495666503906 469.5632629394531 L 396.4840087890625 464.16046142578125" stroke-width="2.0" fill="rgb(152, 115, 84)" opacity="1.0364076" stroke="rgb(0, 0, 0)" stroke-opacity="0.0" stroke-linecap="round" stroke-linejoin="round"/>
    <path d="M 81.89543914794922 466.8861389160156 L 43.685646057128906 467.9359130859375 L 43.63776779174805 494.88616943359375 L 82.8179931640625 490.4866027832031 L 81.89543914794922 466.8861389160156" stroke-width="2.0" fill="rgb(62, 76, 77)" opacity="0.8858723" stroke="rgb(0, 0, 0)" stroke-opacity="0.0" stroke-linecap="round" stroke-linejoin="round"/>
    <path d="M 260.8178405761719 462.29443359375 C 307.5289611816406 479.95184326171875 349.1631774902344 515.4609985351562 380.0519714355469 504.44970703125 C 343.3381652832031 492.98175048828125 303.3981628417969 472.1471252441406 260.8178405761719 462.29443359375" stroke-width="2.0" fill="rgb(45, 55, 57)" opacity="0.95291895" stroke="rgb(0, 0, 0)" stroke-opacity="0.0" stroke-linecap="round" stroke-linejoin="round"/>
    <path d="M 57.22480010986328 382.38580322265625 L 57.17220687866211 449.2172546386719 L 70.33183288574219 449.2159729003906 L 69.18181610107422 385.6946105957031 C 65.19673919677734 385.0768737792969 62.70604705810547 383.5555725097656 57.22480010986328 382.38580322265625" stroke-width="2.0" fill="rgb(51, 57, 52)" opacity="1.117189" stroke="rgb(0, 0, 0)" stroke-opacity="0.0" stroke-linecap="round" stroke-linejoin="round"/>
    <path d="M 448.2602233886719 253.07742309570312 C 427.8489685058594 264.6734619140625 403.7591857910156 281.4123229980469 383.21490478515625 293.99530029296875 L 383.6930847167969 304.627197265625 C 404.24127197265625 292.11480712890625 427.1869812011719 276.9374694824219 448.4751281738281 264.5876770019531 L 448.2602233886719 253.07742309570312" stroke-width="2.0" fill="rgb(159, 111, 74)" opacity="0.79610336" stroke="rgb(0, 0, 0)" stroke-opacity="0.0" stroke-linecap="round" stroke-linejoin="round"/>
    <path d="M 242.50021362304688 406.9043884277344 C 229.49864196777344 413.2383117675781 238.29405212402344 430.4615783691406 234.46005249023438 445.4976806640625 L 257.77984619140625 445.5771789550781 C 254.72463989257812 430.4461364746094 265.0250244140625 403.0233459472656 242.50021362304688 406.9043884277344" stroke-width="2.0" fill="rgb(35, 45, 46)" opacity="0.9971438" stroke="rgb(0, 0, 0)" stroke-opacity="0.0" stroke-linecap="round" stroke-linejoin="round"/>
    <path d="M 225.2573699951172 463.4539794921875 C 189.2356414794922 475.7376708984375 154.53675842285156 491.1735534667969 122.94512176513672 505.42010498046875 C 152.699951171875 512.2423706054688 186.4596405029297 484.79656982421875 225.2573699951172 463.4539794921875" stroke-width="2.0" fill="rgb(21, 31, 32)" opacity="0.82681143" stroke="rgb(0, 0, 0)" stroke-opacity="0.0" stroke-linecap="round" stroke-linejoin="round"/>
    <path d="M 56.685401916503906 262.20941162109375 L 56.415748596191406 334.56719970703125 C 56.812156677246094 336.02191162109375 62.26117706298828 337.2595520019531 66.572509765625 340.8742980957031 L 66.45878601074219 271.09954833984375 L 56.685401916503906 262.20941162109375" stroke-width="2.0" fill="rgb(87, 90, 82)" opacity="1.0214707" stroke="rgb(0, 0, 0)" stroke-opacity="0.0" stroke-linecap="round" stroke-linejoin="round"/>
    <path d="M 476.3562316894531 393.0990905761719 L 476.41082763671875 399.6312561035156 L 476.3279113769531 489.13470458984375 L 488.7220764160156 490.6195373535156 L 488.42071533203125 390.5926513671875 L 476.3562316894531 393.0990905761719" stroke-width="2.0" fill="rgb(25, 26, 27)" opacity="0.7777293" stroke="rgb(0, 0, 0)" stroke-opacity="0.0" stroke-linecap="round" stroke-linejoin="round"/>
    <path d="M 80.60443878173828 176.4472198486328 L 79.36287689208984 229.00772094726562 C 82.8951187133789 235.35366821289062 80.3651351928711 228.75440979003906 85.44514465332031 222.055908203125 C 88.72602844238281 231.95033264160156 82.46540069580078 239.5906524658203 93.80475616455078 245.3690185546875 L 91.99082946777344 190.0373077392578 C 85.52627563476562 186.15554809570312 84.40470886230469 188.85284423828125 80.60443878173828 176.4472198486328" stroke-width="2.0" fill="rgb(139, 129, 112)" opacity="1.0122825" stroke="rgb(0, 0, 0)" stroke-opacity="0.0" stroke-linecap="round" stroke-linejoin="round"/>
    <path d="M 398.08953857421875 402.9364318847656 L 389.2933654785156 405.32379150390625 C 390.0491943359375 429.84552001953125 387.76934814453125 456.4820251464844 392.9015808105469 479.07666015625 L 398.3442687988281 479.334228515625 L 398.08953857421875 402.9364318847656" stroke-width="2.0" fill="rgb(23, 26, 25)" opacity="0.8644146" stroke="rgb(0, 0, 0)" stroke-opacity="0.0" stroke-linecap="round" stroke-linejoin="round"/>
    <path d="M 76.05493927001953 279.22015380859375 L 75.98291015625 345.4997863769531 L 84.65614318847656 349.91473388671875 L 84.56908416748047 286.0063781738281 L 76.05493927001953 279.22015380859375" stroke-width="2.0" fill="rgb(91, 93, 87)" opacity="1.0105441" stroke="rgb(0, 0, 0)" stroke-opacity="0.0" stroke-linecap="round" stroke-linejoin="round"/>
    <path d="M 488.1668701171875 270.14105224609375 C 484.0827941894531 273.1282043457031 477.5522766113281 276.1357116699219 478.49371337890625 277.2798767089844 L 478.16986083984375 338.21142578125 L 488.5020446777344 334.2443542480469 L 488.1668701171875 270.14105224609375" stroke-width="2.0" fill="rgb(80, 65, 55)" opacity="1.0044161" stroke="rgb(0, 0, 0)" stroke-opacity="0.0" stroke-linecap="round" stroke-linejoin="round"/>
    <path d="M 424.31805419921875 156.45753479003906 L 407.71112060546875 155.72097778320312 C 411.2118225097656 172.69296264648438 406.98150634765625 189.32089233398438 409.5722961425781 206.69895935058594 C 410.6634521484375 201.4700164794922 412.8404235839844 188.04232788085938 424.7347717285156 192.19508361816406 C 423.99114990234375 180.9140167236328 425.1304016113281 163.295166015625 424.31805419921875 156.45753479003906" stroke-width="2.0" fill="rgb(97, 106, 102)" opacity="0.9879955" stroke="rgb(0, 0, 0)" stroke-opacity="0.0" stroke-linecap="round" stroke-linejoin="round"/>
    <path d="M 488.206298828125 152.02987670898438 L 478.4173583984375 162.23623657226562 L 478.18438720703125 222.1930694580078 L 488.416259765625 214.04954528808594 L 488.206298828125 152.02987670898438" stroke-width="2.0" fill="rgb(75, 62, 50)" opacity="1.0003413" stroke="rgb(0, 0, 0)" stroke-opacity="0.0" stroke-linecap="round" stroke-linejoin="round"/>
    <path d="M 467.8469543457031 282.83203125 L 459.5254821777344 288.39935302734375 C 458.163818359375 308.1101379394531 461.8896789550781 327.5823059082031 456.17486572265625 347.5945739746094 L 468.2288818359375 342.4897766113281 L 467.8469543457031 282.83203125" stroke-width="2.0" fill="rgb(83, 68, 57)" opacity="0.99768764" stroke="rgb(0, 0, 0)" stroke-opacity="0.0" stroke-linecap="round" stroke-linejoin="round"/>
    <path d="M 448.33599853515625 390.6151123046875 C 444.2022705078125 391.70965576171875 441.5181579589844 393.08062744140625 437.90380859375 393.2446594238281 L 437.5890197753906 449.00048828125 L 447.0309143066406 447.280517578125 L 448.33599853515625 390.6151123046875" stroke-width="2.0" fill="rgb(148, 123, 98)" opacity="0.93680274" stroke="rgb(0, 0, 0)" stroke-opacity="0.0" stroke-linecap="round" stroke-linejoin="round"/>
    <path d="M 506.3008728027344 356.0386047363281 C 487.9027099609375 361.941650390625 468.31103515625 368.5701599121094 450.0149841308594 374.623291015625 C 446.76251220703125 374.74365234375 448.9559020996094 377.537109375 448.1936340332031 382.89385986328125 C 466.10888671875 377.7851257324219 488.2101135253906 369.4593200683594 506.5711364746094 367.14593505859375 L 506.3008728027344 356.0386047363281" stroke-width="2.0" fill="rgb(30, 39, 40)" opacity="0.9862053" stroke="rgb(0, 0, 0)" stroke-opacity="0.0" stroke-linecap="round" stroke-linejoin="round"/>
    <path d="M 468.0101013183594 170.91766357421875 C 462.55230712890625 176.9724578857422 457.1139831542969 179.970703125 458.6501159667969 182.4514617919922 C 457.7077941894531 200.9285888671875 460.2712707519531 218.3868865966797 456.83074951171875 237.2359619140625 C 461.14483642578125 236.3439178466797 464.53167724609375 231.01556396484375 468.1119079589844 229.582763671875 L 468.0101013183594 170.91766357421875" stroke-width="2.0" fill="rgb(83, 68, 54)" opacity="0.99373055" stroke="rgb(0, 0, 0)" stroke-opacity="0.0" stroke-linecap="round" stroke-linejoin="round"/>
    <path d="M 447.9196472167969 284.25653076171875 L 437.69769287109375 290.327880859375 L 437.743896484375 345.4602355957031 C 440.4186706542969 345.0762634277344 443.8340759277344 344.6135559082031 447.2845764160156 341.4258117675781 L 447.9196472167969 284.25653076171875" stroke-width="2.0" fill="rgb(155, 128, 100)" opacity="0.93696195" stroke="rgb(0, 0, 0)" stroke-opacity="0.0" stroke-linecap="round" stroke-linejoin="round"/>
    <path d="M 92.97391510009766 292.9787902832031 L 93.0079574584961 352.9508972167969 C 93.43035888671875 354.6446838378906 98.51614379882812 355.88128662109375 101.81523132324219 358.47039794921875 L 100.16737365722656 298.81390380859375 L 92.97391510009766 292.9787902832031" stroke-width="2.0" fill="rgb(94, 96, 90)" opacity="1.0066868" stroke="rgb(0, 0, 0)" stroke-opacity="0.0" stroke-linecap="round" stroke-linejoin="round"/>
    <path d="M 467.6094665527344 395.3482666015625 L 458.41436767578125 397.4615478515625 L 458.305908203125 451.2227478027344 L 467.53790283203125 451.1346435546875 L 467.6094665527344 395.3482666015625" stroke-width="2.0" fill="rgb(76, 65, 56)" opacity="1.0151447" stroke="rgb(0, 0, 0)" stroke-opacity="0.0" stroke-linecap="round" stroke-linejoin="round"/>
    <path d="M 221.5443878173828 116.51268768310547 L 209.17320251464844 116.4982681274414 L 209.19187927246094 171.59764099121094 C 223.37351989746094 149.77264404296875 222.4747772216797 131.42942810058594 221.5443878173828 116.51268768310547" stroke-width="2.0" fill="rgb(80, 91, 88)" opacity="0.9390668" stroke="rgb(0, 0, 0)" stroke-opacity="0.0" stroke-linecap="round" stroke-linejoin="round"/>
    <path d="M 448.3240966796875 469.57891845703125 C 448.0050048828125 477.0562438964844 445.52874755859375 501.8727722167969 455.8938293457031 490.2266845703125 C 462.2506408691406 486.4337158203125 473.5399475097656 492.513916015625 480.752685546875 484.6372985839844 C 476.887451171875 479.3686218261719 481.02655029296875 476.4927673339844 478.6487731933594 471.86492919921875 L 448.3240966796875 469.57891845703125" stroke-width="2.0" fill="rgb(82, 92, 94)" opacity="0.874376" stroke="rgb(0, 0, 0)" stroke-opacity="0.0" stroke-linecap="round" stroke-linejoin="round"/>
    <path d="M 270.0313720703125 116.83700561523438 C 271.49774169921875 131.83135986328125 263.5030517578125 148.3841552734375 282.726806640625 159.83926391601562 L 283.2482604980469 116.76519012451172 L 270.0313720703125 116.83700561523438" stroke-width="2.0" fill="rgb(56, 70, 72)" opacity="0.8084929" stroke="rgb(0, 0, 0)" stroke-opacity="0.0" stroke-linecap="round" stroke-linejoin="round"/>
    <path d="M 146.00787353515625 456.1849365234375 L 144.2099609375 473.2864074707031 C 159.56417846679688 473.7624816894531 171.09291076660156 470.1993408203125 181.87745666503906 467.3282165527344 L 182.60467529296875 456.6824645996094 L 146.00787353515625 456.1849365234375" stroke-width="2.0" fill="rgb(35, 44, 46)" opacity="0.97609466" stroke="rgb(0, 0, 0)" stroke-opacity="0.0" stroke-linecap="round" stroke-linejoin="round"/>
    <path d="M 65.08354187011719 155.034912109375 L 63.580970764160156 214.53390502929688 L 74.41321563720703 225.5038299560547 C 66.07440185546875 198.36129760742188 78.96096801757812 172.16085815429688 65.08354187011719 155.034912109375" stroke-width="2.0" fill="rgb(97, 96, 87)" opacity="1.0134684" stroke="rgb(0, 0, 0)" stroke-opacity="0.0" stroke-linecap="round" stroke-linejoin="round"/>
    <path d="M 240.8040313720703 248.3948516845703 C 220.8655242919922 261.4576110839844 247.32135009765625 286.3415222167969 257.7637939453125 264.6026611328125 C 261.2024230957031 252.97280883789062 252.20892333984375 245.2227783203125 240.8040313720703 248.3948516845703" stroke-width="2.0" fill="rgb(140, 143, 137)" opacity="0.98951226" stroke="rgb(0, 0, 0)" stroke-opacity="0.0" stroke-linecap="round" stroke-linejoin="round"/>
    <path d="M 9.499678611755371 258.3570556640625 L 7.374852180480957 325.9407653808594 L 21.2405948638916 330.7828063964844 C 22.15786361694336 306.4159851074219 20.785856246948242 288.7060546875 25.57946014404297 266.0364074707031 C 18.761171340942383 260.62237548828125 15.625860214233398 257.63555908203125 9.499678611755371 258.3570556640625" stroke-width="2.0" fill="rgb(136, 100, 71)" opacity="0.5525437" stroke="rgb(0, 0, 0)" stroke-opacity="0.0" stroke-linecap="round" stroke-linejoin="round"/>
    <path d="M 448.2794189453125 362.533447265625 C 426.8518371582031 368.44085693359375 405.7686462402344 376.70050048828125 385.3139953613281 383.79852294921875 C 382.03173828125 384.7004089355469 382.4727478027344 386.1390686035156 382.9029541015625 390.2992858886719 C 403.64190673828125 384.3158264160156 425.5981140136719 375.50286865234375 448.5216979980469 370.1740417480469 L 448.2794189453125 362.533447265625" stroke-width="2.0" fill="rgb(177, 142, 108)" opacity="0.98418427" stroke="rgb(0, 0, 0)" stroke-opacity="0.0" stroke-linecap="round" stroke-linejoin="round"/>
    <path d="M 397.9547424316406 312.41510009765625 C 391.8125915527344 316.0954284667969 389.4556579589844 316.2516784667969 390.56219482421875 319.4086608886719 L 390.13421630859375 366.99652099609375 L 398.0276184082031 363.7576599121094 L 397.9547424316406 312.41510009765625" stroke-width="2.0" fill="rgb(108, 91, 77)" opacity="1.0217048" stroke="rgb(0, 0, 0)" stroke-opacity="0.0" stroke-linecap="round" stroke-linejoin="round"/>
    <path d="M 68.92147064208984 386.8940734863281 L 62.32078170776367 391.7162780761719 L 62.213661193847656 444.49072265625 L 70.27257537841797 444.59967041015625 L 68.92147064208984 386.8940734863281" stroke-width="2.0" fill="rgb(151, 146, 130)" opacity="0.978207" stroke="rgb(0, 0, 0)" stroke-opacity="0.0" stroke-linecap="round" stroke-linejoin="round"/>
    <path d="M 491.328369140625 473.7713623046875 C 488.4427490234375 487.936767578125 481.7747802734375 500.71905517578125 506.6791076660156 500.6492614746094 L 506.5918884277344 471.421875 L 491.328369140625 473.7713623046875" stroke-width="2.0" fill="rgb(86, 95, 96)" opacity="1.0250903" stroke="rgb(0, 0, 0)" stroke-opacity="0.0" stroke-linecap="round" stroke-linejoin="round"/>
    <path d="M 428.9952697753906 295.3858337402344 C 426.1773986816406 295.89410400390625 423.9271240234375 299.13934326171875 421.2393798828125 299.1337585449219 L 421.1802673339844 354.7071838378906 L 429.40142822265625 350.88958740234375 L 428.9952697753906 295.3858337402344" stroke-width="2.0" fill="rgb(114, 100, 84)" opacity="0.9918476" stroke="rgb(0, 0, 0)" stroke-opacity="0.0" stroke-linecap="round" stroke-linejoin="round"/>
    <path d="M 288.07977294921875 496.6346130371094 L 287.7755432128906 503.89898681640625 C 302.3659362792969 502.8334655761719 316.97314453125 503.9996643066406 335.7430419921875 503.5471496582031 C 331.3880615234375 490.2072448730469 307.7850341796875 505.5285339355469 311.8126220703125 490.15625 C 302.6645812988281 491.45770263671875 294.5364074707031 486.2207336425781 297.8882751464844 496.79034423828125 L 288.07977294921875 496.6346130371094" stroke-width="2.0" fill="rgb(162, 150, 131)" opacity="1.0047361" stroke="rgb(0, 0, 0)" stroke-opacity="0.0" stroke-linecap="round" stroke-linejoin="round"/>
    <path d="M 421.6767272949219 397.0224304199219 L 420.60040283203125 448.7760009765625 L 429.3718566894531 449.0940856933594 L 429.1446533203125 395.2830810546875 L 421.6767272949219 397.0224304199219" stroke-width="2.0" fill="rgb(121, 105, 87)" opacity="0.9911182" stroke="rgb(0, 0, 0)" stroke-opacity="0.0" stroke-linecap="round" stroke-linejoin="round"/>
    <path d="M 413.05230712890625 303.5364074707031 C 409.5112609863281 306.23968505859375 405.7867126464844 307.95196533203125 405.79388427734375 308.23443603515625 C 404.786376953125 326.8620910644531 406.4521179199219 343.9727783203125 404.8884582519531 360.8125915527344 L 413.3800354003906 357.178955078125 L 413.05230712890625 303.5364074707031" stroke-width="2.0" fill="rgb(117, 100, 84)" opacity="0.9893733" stroke="rgb(0, 0, 0)" stroke-opacity="0.0" stroke-linecap="round" stroke-linejoin="round"/>
    <path d="M 340.0378723144531 397.183349609375 C 331.6007995605469 414.3916931152344 340.8796691894531 437.3999938964844 333.9996032714844 460.8653564453125 L 343.0632629394531 461.6568603515625 C 340.308349609375 440.4154357910156 345.4158630371094 413.6858215332031 340.0378723144531 397.183349609375" stroke-width="2.0" fill="rgb(67, 73, 69)" opacity="1.059621" stroke="rgb(0, 0, 0)" stroke-opacity="0.0" stroke-linecap="round" stroke-linejoin="round"/>
    <path d="M 406.43963623046875 400.961669921875 C 404.0168762207031 412.9487609863281 407.28033447265625 431.68072509765625 404.83502197265625 448.6171875 L 413.326171875 448.59320068359375 L 413.1889343261719 398.8573303222656 L 406.43963623046875 400.961669921875" stroke-width="2.0" fill="rgb(147, 120, 100)" opacity="0.9534872" stroke="rgb(0, 0, 0)" stroke-opacity="0.0" stroke-linecap="round" stroke-linejoin="round"/>
    <path d="M 363.350341796875 456.4940185546875 L 365.29443359375 477.3262023925781 L 384.40264892578125 477.6529846191406 L 382.9623107910156 456.1305847167969 L 363.350341796875 456.4940185546875" stroke-width="2.0" fill="rgb(-20, -3, 1)" opacity="0.6566782" stroke="rgb(0, 0, 0)" stroke-opacity="0.0" stroke-linecap="round" stroke-linejoin="round"/>
    <path d="M 184.28392028808594 336.3506164550781 L 184.7281951904297 338.33148193359375 L 279.7487487792969 337.5738525390625 C 247.5942840576172 332.11871337890625 214.07484436035156 335.315185546875 184.28392028808594 336.3506164550781" stroke-width="2.0" fill="rgb(141, 127, 109)" opacity="1.377129" stroke="rgb(0, 0, 0)" stroke-opacity="0.0" stroke-linecap="round" stroke-linejoin="round"/>
    <path d="M 218.3875274658203 451.9395446777344 C 231.92816162109375 457.4972839355469 253.8899383544922 451.41790771484375 272.7095642089844 455.4762878417969 C 271.2010498046875 438.870849609375 260.7531433105469 445.98541259765625 255.6695098876953 447.8983154296875 C 244.3928985595703 448.493896484375 233.3104248046875 445.9669494628906 218.3875274658203 451.9395446777344" stroke-width="2.0" fill="rgb(87, 85, 74)" opacity="0.6307099" stroke="rgb(0, 0, 0)" stroke-opacity="0.0" stroke-linecap="round" stroke-linejoin="round"/>
    <path d="M 208.5190887451172 233.46109008789062 L 208.74244689941406 237.17446899414062 L 283.2621765136719 237.29714965820312 L 283.52691650390625 233.47007751464844 L 208.5190887451172 233.46109008789062" stroke-width="2.0" fill="rgb(54, 53, 45)" opacity="1.0320383" stroke="rgb(0, 0, 0)" stroke-opacity="0.0" stroke-linecap="round" stroke-linejoin="round"/>
    <path d="M 79.21247100830078 177.28038024902344 L 79.0875015258789 230.66761779785156 L 82.59379577636719 234.9367218017578 C 85.63221740722656 214.94924926757812 91.60897827148438 196.59852600097656 79.21247100830078 177.28038024902344" stroke-width="2.0" fill="rgb(156, 145, 124)" opacity="1.2732916" stroke="rgb(0, 0, 0)" stroke-opacity="0.0" stroke-linecap="round" stroke-linejoin="round"/>
    <path d="M 6.53318452835083 207.7115020751953 L 8.187498092651367 214.15196228027344 C 20.839447021484375 215.40928649902344 37.22746276855469 216.86166381835938 48.301673889160156 213.21495056152344 L 49.782405853271484 207.4979705810547 L 6.53318452835083 207.7115020751953" stroke-width="2.0" fill="rgb(14, 23, 25)" opacity="0.6868076" stroke="rgb(0, 0, 0)" stroke-opacity="0.0" stroke-linecap="round" stroke-linejoin="round"/>
    <path d="M 248.5908660888672 179.2855682373047 C 236.8505096435547 183.23837280273438 246.26296997070312 206.69680786132812 241.4165802001953 222.76451110839844 L 248.57191467285156 221.12147521972656 L 248.5908660888672 179.2855682373047" stroke-width="2.0" fill="rgb(-5, 6, 14)" opacity="0.80934405" stroke="rgb(0, 0, 0)" stroke-opacity="0.0" stroke-linecap="round" stroke-linejoin="round"/>
    <path d="M 232.36932373046875 183.9725341796875 L 232.14723205566406 221.6387939453125 L 238.3290252685547 221.46109008789062 L 238.55955505371094 184.2910614013672 C 236.5396728515625 180.7650604248047 235.14447021484375 180.15609741210938 232.36932373046875 183.9725341796875" stroke-width="2.0" fill="rgb(36, 41, 38)" opacity="1.0096291" stroke="rgb(0, 0, 0)" stroke-opacity="0.0" stroke-linecap="round" stroke-linejoin="round"/>
    <path d="M 256.9540710449219 179.02947998046875 C 249.3488006591797 187.89649963378906 255.88975524902344 204.202392578125 252.41917419433594 221.47413635253906 L 259.9515075683594 221.53211975097656 C 258.0795593261719 206.3806915283203 262.1293029785156 188.37228393554688 256.9540710449219 179.02947998046875" stroke-width="2.0" fill="rgb(11, 19, 20)" opacity="0.8783126" stroke="rgb(0, 0, 0)" stroke-opacity="0.0" stroke-linecap="round" stroke-linejoin="round"/>
    <path d="M 346.2630920410156 256.6772766113281 C 342.1419677734375 261.672607421875 345.0129699707031 284.0411682128906 340.57232666015625 263.0186767578125 C 332.4822692871094 261.1240539550781 339.81903076171875 278.6844177246094 336.5989685058594 289.47723388671875 C 346.1683349609375 288.68560791015625 337.9331970214844 273.5158996582031 345.9306640625 283.36083984375 C 351.7525634765625 278.6125793457031 344.1656188964844 267.0542297363281 346.2630920410156 256.6772766113281" stroke-width="2.0" fill="rgb(120, 112, 97)" opacity="1.005867" stroke="rgb(0, 0, 0)" stroke-opacity="0.0" stroke-linecap="round" stroke-linejoin="round"/>
    <path d="M 207.27870178222656 333.9601745605469 L 282.4206848144531 337.3529052734375 C 257.01513671875 329.02166748046875 230.2382354736328 342.6047668457031 207.27870178222656 333.9601745605469" stroke-width="2.0" fill="rgb(16, 13, 7)" opacity="0.7446374" stroke="rgb(0, 0, 0)" stroke-opacity="0.0" stroke-linecap="round" stroke-linejoin="round"/>
    <path d="M 356.2222595214844 313.9140930175781 L 351.451171875 316.7592468261719 L 351.9601135253906 360.0704345703125 L 356.4823303222656 359.3332214355469 L 356.2222595214844 313.9140930175781" stroke-width="2.0" fill="rgb(58, 65, 62)" opacity="1.0528785" stroke="rgb(0, 0, 0)" stroke-opacity="0.0" stroke-linecap="round" stroke-linejoin="round"/>
    <path d="M 343.12322998046875 323.0579528808594 L 339.1139831542969 325.1462097167969 L 339.1808166503906 367.5584411621094 C 339.2649841308594 366.1264343261719 341.7669982910156 366.4710388183594 343.3415222167969 365.14801025390625 L 343.12322998046875 323.0579528808594" stroke-width="2.0" fill="rgb(74, 77, 68)" opacity="1.0918001" stroke="rgb(0, 0, 0)" stroke-opacity="0.0" stroke-linecap="round" stroke-linejoin="round"/>
    <path d="M 289.1784973144531 427.36981201171875 C 275.29351806640625 426.12823486328125 282.83905029296875 444.1422424316406 280.7535400390625 454.5510559082031 C 293.7919921875 462.7528991699219 289.60174560546875 434.6210632324219 289.1784973144531 427.36981201171875" stroke-width="2.0" fill="rgb(38, 47, 45)" opacity="0.96945053" stroke="rgb(0, 0, 0)" stroke-opacity="0.0" stroke-linecap="round" stroke-linejoin="round"/>
    <path d="M 454.3021240234375 487.815185546875 C 457.8300476074219 497.92449951171875 477.77056884765625 496.8278503417969 492.16339111328125 499.1849670410156 L 487.8619079589844 491.0474548339844 C 476.9935302734375 490.1784973144531 466.3147277832031 487.1935729980469 454.3021240234375 487.815185546875" stroke-width="2.0" fill="rgb(199, 188, 171)" opacity="1.2414594" stroke="rgb(0, 0, 0)" stroke-opacity="0.0" stroke-linecap="round" stroke-linejoin="round"/>
    <path d="M 245.19735717773438 350.22613525390625 C 239.95745849609375 357.88519287109375 244.0802459716797 369.3892822265625 242.11610412597656 381.45916748046875 C 255.62249755859375 387.88739013671875 247.397216796875 363.4486389160156 250.43006896972656 354.042724609375 L 245.19735717773438 350.22613525390625" stroke-width="2.0" fill="rgb(53, 62, 61)" opacity="1.0227448" stroke="rgb(0, 0, 0)" stroke-opacity="0.0" stroke-linecap="round" stroke-linejoin="round"/>
    <path d="M 244.96165466308594 284.3808288574219 C 240.06439208984375 291.59173583984375 243.6750030517578 303.4266662597656 242.10813903808594 315.4091491699219 C 253.8870849609375 321.8058776855469 247.62811279296875 298.3462829589844 249.9683380126953 288.01019287109375 L 244.96165466308594 284.3808288574219" stroke-width="2.0" fill="rgb(52, 61, 60)" opacity="1.0330513" stroke="rgb(0, 0, 0)" stroke-opacity="0.0" stroke-linecap="round" stroke-linejoin="round"/>
    <path d="M 330.8160095214844 330.2777099609375 C 321.01123046875 335.9569091796875 332.9938049316406 357.63861083984375 323.73968505859375 373.1599426269531 L 330.92169189453125 370.3259582519531 L 330.8160095214844 330.2777099609375" stroke-width="2.0" fill="rgb(72, 76, 71)" opacity="1.0963731" stroke="rgb(0, 0, 0)" stroke-opacity="0.0" stroke-linecap="round" stroke-linejoin="round"/>
    <path d="M 82.70854949951172 479.6529846191406 C 77.38593292236328 498.3246154785156 96.17257690429688 488.4256896972656 109.51434326171875 485.44476318359375 C 100.01416015625 477.64935302734375 90.35564422607422 476.9810791015625 82.70854949951172 479.6529846191406" stroke-width="2.0" fill="rgb(148, 136, 120)" opacity="0.7011601" stroke="rgb(0, 0, 0)" stroke-opacity="0.0" stroke-linecap="round" stroke-linejoin="round"/>
    <path d="M 356.190185546875 396.56243896484375 L 351.6435546875 398.0472717285156 C 351.11505126953125 411.87725830078125 355.1221008300781 426.7557678222656 349.2959289550781 437.3265075683594 L 356.6170349121094 437.410400390625 L 356.190185546875 396.56243896484375" stroke-width="2.0" fill="rgb(58, 60, 55)" opacity="1.0415924" stroke="rgb(0, 0, 0)" stroke-opacity="0.0" stroke-linecap="round" stroke-linejoin="round"/>
    <path d="M 369.4507751464844 374.7960510253906 C 363.7253723144531 367.742431640625 354.8442687988281 376.794189453125 348.59375 376.5617370605469 C 339.12823486328125 382.0457458496094 324.36669921875 383.09674072265625 317.17962646484375 391.4783020019531 C 335.2860412597656 386.3683776855469 349.9383544921875 379.5741882324219 369.4507751464844 374.7960510253906" stroke-width="2.0" fill="rgb(129, 119, 101)" opacity="0.93563265" stroke="rgb(0, 0, 0)" stroke-opacity="0.0" stroke-linecap="round" stroke-linejoin="round"/>
    <path d="M 245.46876525878906 31.36223793029785 L 247.6139678955078 82.47880554199219 C 246.83836364746094 65.70606994628906 248.8067626953125 44.510013580322266 245.46876525878906 31.36223793029785" stroke-width="2.0" fill="rgb(65, 73, 70)" opacity="1.1171597" stroke="rgb(0, 0, 0)" stroke-opacity="0.0" stroke-linecap="round" stroke-linejoin="round"/>
    <path d="M 479.34246826171875 106.09848022460938 C 466.0080261230469 110.78284454345703 474.2519836425781 123.2755355834961 470.3060302734375 136.05023193359375 C 484.573974609375 131.0825653076172 476.8048400878906 117.94552612304688 479.34246826171875 106.09848022460938" stroke-width="2.0" fill="rgb(74, 63, 53)" opacity="1.0082898" stroke="rgb(0, 0, 0)" stroke-opacity="0.0" stroke-linecap="round" stroke-linejoin="round"/>
    <path d="M 330.4757385253906 402.5606994628906 C 320.09991455078125 404.5445556640625 331.6234436035156 425.9321594238281 323.4259338378906 437.4375915527344 L 330.7181396484375 437.63458251953125 L 330.4757385253906 402.5606994628906" stroke-width="2.0" fill="rgb(74, 78, 73)" opacity="1.0346515" stroke="rgb(0, 0, 0)" stroke-opacity="0.0" stroke-linecap="round" stroke-linejoin="round"/>
    <path d="M 189.22381591796875 369.7220153808594 C 188.60414123535156 376.1398010253906 185.3095245361328 396.0195617675781 195.8212890625 389.1748352050781 C 194.16261291503906 380.762939453125 199.30178833007812 365.779052734375 189.22381591796875 369.7220153808594" stroke-width="2.0" fill="rgb(48, 57, 53)" opacity="1.0328808" stroke="rgb(0, 0, 0)" stroke-opacity="0.0" stroke-linecap="round" stroke-linejoin="round"/>
    <path d="M 408.5075378417969 145.29969787597656 C 402.36370849609375 159.92369079589844 426.7656555175781 160.1369171142578 419.5824890136719 145.49667358398438 L 408.5075378417969 145.29969787597656" stroke-width="2.0" fill="rgb(152, 103, 77)" opacity="0.9399886" stroke="rgb(0, 0, 0)" stroke-opacity="0.0" stroke-linecap="round" stroke-linejoin="round"/>
    <path d="M 392.3846130371094 437.25738525390625 L 382.0256652832031 476.55499267578125 C 399.17462158203125 478.5140686035156 390.2546691894531 458.43951416015625 392.9747619628906 450.1446228027344 L 392.3846130371094 437.25738525390625" stroke-width="2.0" fill="rgb(151, 114, 89)" opacity="0.77183414" stroke="rgb(0, 0, 0)" stroke-opacity="0.0" stroke-linecap="round" stroke-linejoin="round"/>
    <path d="M 417.67364501953125 203.58154296875 C 416.5961608886719 209.22314453125 412.6484680175781 218.19293212890625 410.9523010253906 225.96568298339844 C 422.1136779785156 217.006103515625 426.5010070800781 216.5002899169922 417.67364501953125 203.58154296875" stroke-width="2.0" fill="rgb(172, 168, 156)" opacity="1.0456748" stroke="rgb(0, 0, 0)" stroke-opacity="0.0" stroke-linecap="round" stroke-linejoin="round"/>
    <path d="M 422.5351257324219 221.95175170898438 C 417.863037109375 225.2587127685547 420.6647033691406 242.84593200683594 420.4755859375 256.10345458984375 C 424.9658203125 251.48985290527344 421.93359375 235.0546875 422.5351257324219 221.95175170898438" stroke-width="2.0" fill="rgb(205, 213, 208)" opacity="1.1390312" stroke="rgb(0, 0, 0)" stroke-opacity="0.0" stroke-linecap="round" stroke-linejoin="round"/>
    <path d="M 126.36856079101562 474.6647033691406 C 121.11537170410156 482.55133056640625 156.8415985107422 476.04638671875 142.7140350341797 473.30908203125 L 126.36856079101562 474.6647033691406" stroke-width="2.0" fill="rgb(74, 44, 21)" opacity="0.3481725" stroke="rgb(0, 0, 0)" stroke-opacity="0.0" stroke-linecap="round" stroke-linejoin="round"/>
    <path d="M 12.177230834960938 216.45765686035156 C 1.7264623641967773 238.919189453125 28.23043441772461 258.2515563964844 27.75164222717285 228.49124145507812 L 12.177230834960938 216.45765686035156" stroke-width="2.0" fill="rgb(114, 93, 75)" opacity="0.72003883" stroke="rgb(0, 0, 0)" stroke-opacity="0.0" stroke-linecap="round" stroke-linejoin="round"/>
    <path d="M 325.3424072265625 469.1147155761719 C 341.80194091796875 476.6290588378906 346.9596862792969 455.6114807128906 324.198486328125 453.1642150878906 C 321.3193359375 458.69427490234375 323.5684814453125 463.0387878417969 325.3424072265625 469.1147155761719" stroke-width="2.0" fill="rgb(128, 135, 130)" opacity="0.916747" stroke="rgb(0, 0, 0)" stroke-opacity="0.0" stroke-linecap="round" stroke-linejoin="round"/>
    <path d="M 373.28399658203125 242.49713134765625 C 367.70098876953125 254.17532348632812 390.2320861816406 252.87762451171875 383.61798095703125 242.14859008789062 L 373.28399658203125 242.49713134765625" stroke-width="2.0" fill="rgb(33, 47, 49)" opacity="1.01004" stroke="rgb(0, 0, 0)" stroke-opacity="0.0" stroke-linecap="round" stroke-linejoin="round"/>
    <path d="M 275.82958984375 367.1896057128906 C 277.9544982910156 372.33709716796875 271.8250427246094 384.0138244628906 280.73968505859375 381.2601623535156 C 280.60345458984375 375.20574951171875 284.2789306640625 362.4124450683594 275.82958984375 367.1896057128906" stroke-width="2.0" fill="rgb(78, 72, 60)" opacity="1.0350858" stroke="rgb(0, 0, 0)" stroke-opacity="0.0" stroke-linecap="round" stroke-linejoin="round"/>
    <path d="M 347.8681335449219 256.9713134765625 C 341.5492858886719 260.6678466796875 349.33001708984375 273.79913330078125 343.6861267089844 284.3046569824219 C 349.7027282714844 279.4550476074219 347.059814453125 266.2663879394531 347.8681335449219 256.9713134765625" stroke-width="2.0" fill="rgb(74, 72, 58)" opacity="1.157393" stroke="rgb(0, 0, 0)" stroke-opacity="0.0" stroke-linecap="round" stroke-linejoin="round"/>
    <path d="M 296.1193542480469 396.3811340332031 C 297.7090148925781 400.9093322753906 293.2867431640625 414.0427551269531 300.93438720703125 411.28570556640625 C 300.37847900390625 404.7401123046875 304.34796142578125 391.9273681640625 296.1193542480469 396.3811340332031" stroke-width="2.0" fill="rgb(47, 51, 43)" opacity="1.050054" stroke="rgb(0, 0, 0)" stroke-opacity="0.0" stroke-linecap="round" stroke-linejoin="round"/>
    <path d="M 275.2433776855469 396.806640625 C 277.36993408203125 402.45489501953125 271.5998229980469 414.92742919921875 280.86212158203125 411.056884765625 C 279.3910217285156 404.4300842285156 284.3824157714844 391.7865295410156 275.2433776855469 396.806640625" stroke-width="2.0" fill="rgb(50, 53, 51)" opacity="1.0333669" stroke="rgb(0, 0, 0)" stroke-opacity="0.0" stroke-linecap="round" stroke-linejoin="round"/>
    <path d="M 447.4776916503906 285.9698181152344 C 434.0397644042969 289.53033447265625 438.3747863769531 293.4410095214844 447.19854736328125 302.9536437988281 L 447.4776916503906 285.9698181152344" stroke-width="2.0" fill="rgb(25, 37, 34)" opacity="0.95052403" stroke="rgb(0, 0, 0)" stroke-opacity="0.0" stroke-linecap="round" stroke-linejoin="round"/>
    <path d="M 296.2755126953125 367.0330810546875 C 297.5306396484375 371.39208984375 293.3676452636719 384.1826477050781 300.6054992675781 381.3466796875 C 301.0587463378906 378.45794677734375 304.1307067871094 362.72406005859375 296.2755126953125 367.0330810546875" stroke-width="2.0" fill="rgb(44, 45, 37)" opacity="1.0493459" stroke="rgb(0, 0, 0)" stroke-opacity="0.0" stroke-linecap="round" stroke-linejoin="round"/>
    <path d="M 439.8583984375 393.9173889160156 C 434.8072814941406 394.9306945800781 443.5105895996094 400.2602233886719 447.46502685546875 408.07366943359375 C 446.7759704589844 396.8665466308594 450.33917236328125 387.18328857421875 439.8583984375 393.9173889160156" stroke-width="2.0" fill="rgb(30, 38, 36)" opacity="0.9842262" stroke="rgb(0, 0, 0)" stroke-opacity="0.0" stroke-linecap="round" stroke-linejoin="round"/>
    <path d="M 165.52207946777344 324.66253662109375 C 166.20843505859375 333.413330078125 161.7990264892578 345.2941589355469 167.70587158203125 348.72808837890625 C 167.8971710205078 340.06378173828125 170.85147094726562 327.3577575683594 165.52207946777344 324.66253662109375" stroke-width="2.0" fill="rgb(31, 23, 19)" opacity="1.0331587" stroke="rgb(0, 0, 0)" stroke-opacity="0.0" stroke-linecap="round" stroke-linejoin="round"/>
    <path d="M 295.9774475097656 426.9287414550781 C 297.5776062011719 431.71966552734375 291.9761657714844 443.1355285644531 301.4275817871094 439.0957336425781 C 299.9909362792969 433.157958984375 304.4661560058594 423.149169921875 295.9774475097656 426.9287414550781" stroke-width="2.0" fill="rgb(54, 52, 43)" opacity="1.040746" stroke="rgb(0, 0, 0)" stroke-opacity="0.0" stroke-linecap="round" stroke-linejoin="round"/>
    <path d="M 203.4753875732422 291.09283447265625 C 218.91665649414062 296.644287109375 232.50779724121094 274.91094970703125 211.45147705078125 278.4543762207031 L 203.4753875732422 291.09283447265625" stroke-width="2.0" fill="rgb(160, 133, 105)" opacity="0.79142374" stroke="rgb(0, 0, 0)" stroke-opacity="0.0" stroke-linecap="round" stroke-linejoin="round"/>
    <path d="M 209.90994262695312 264.4471130371094 C 204.79803466796875 276.8857421875 227.21603393554688 277.3375549316406 221.15818786621094 264.3967590332031 L 209.90994262695312 264.4471130371094" stroke-width="2.0" fill="rgb(179, 153, 124)" opacity="0.98690873" stroke="rgb(0, 0, 0)" stroke-opacity="0.0" stroke-linecap="round" stroke-linejoin="round"/>
    <path d="M 248.40516662597656 145.7918243408203 C 240.00009155273438 143.6642608642578 240.95022583007812 166.82260131835938 248.67727661132812 159.37416076660156 L 248.40516662597656 145.7918243408203" stroke-width="2.0" fill="rgb(44, 45, 38)" opacity="1.0260551" stroke="rgb(0, 0, 0)" stroke-opacity="0.0" stroke-linecap="round" stroke-linejoin="round"/>
    <path d="M 270.8783264160156 206.19146728515625 C 265.7602233886719 216.74537658691406 287.8575439453125 215.87356567382812 282.36932373046875 206.10745239257812 L 270.8783264160156 206.19146728515625" stroke-width="2.0" fill="rgb(171, 140, 112)" opacity="0.9947641" stroke="rgb(0, 0, 0)" stroke-opacity="0.0" stroke-linecap="round" stroke-linejoin="round"/>
    <path d="M 210.04910278320312 394.5829772949219 C 205.2943572998047 403.31744384765625 225.67393493652344 403.44818115234375 221.0567626953125 394.21337890625 L 210.04910278320312 394.5829772949219" stroke-width="2.0" fill="rgb(177, 151, 121)" opacity="0.98702765" stroke="rgb(0, 0, 0)" stroke-opacity="0.0" stroke-linecap="round" stroke-linejoin="round"/>
    <path d="M 209.91659545898438 193.39337158203125 C 204.915771484375 206.2952423095703 225.55772399902344 205.65045166015625 221.1630401611328 193.41236877441406 L 209.91659545898438 193.39337158203125" stroke-width="2.0" fill="rgb(175, 148, 119)" opacity="0.985913" stroke="rgb(0, 0, 0)" stroke-opacity="0.0" stroke-linecap="round" stroke-linejoin="round"/>
    <path d="M 270.9359436035156 193.50636291503906 C 265.91937255859375 204.5611114501953 286.9650573730469 204.6979217529297 282.2856750488281 193.4640350341797 L 270.9359436035156 193.50636291503906" stroke-width="2.0" fill="rgb(175, 145, 115)" opacity="0.99216956" stroke="rgb(0, 0, 0)" stroke-opacity="0.0" stroke-linecap="round" stroke-linejoin="round"/>
    <path d="M 277.5333251953125 366.421630859375 C 277.0452880859375 370.7748718261719 273.9790954589844 381.27410888671875 279.7344970703125 381.5818786621094 C 279.77294921875 376.0776062011719 282.1065368652344 365.66021728515625 277.5333251953125 366.421630859375" stroke-width="2.0" fill="rgb(37, 42, 39)" opacity="1.018754" stroke="rgb(0, 0, 0)" stroke-opacity="0.0" stroke-linecap="round" stroke-linejoin="round"/>
    <path d="M 209.71897888183594 315.2508850097656 C 205.0769805908203 325.2619934082031 226.931396484375 325.0224914550781 221.2140655517578 315.2803649902344 L 209.71897888183594 315.2508850097656" stroke-width="2.0" fill="rgb(174, 144, 111)" opacity="0.98783684" stroke="rgb(0, 0, 0)" stroke-opacity="0.0" stroke-linecap="round" stroke-linejoin="round"/>
    <path d="M 125.56106567382812 264.5888366699219 C 122.75567626953125 269.6142272949219 121.95816802978516 278.9773864746094 123.73400115966797 287.6709899902344 C 127.6968765258789 281.3847961425781 124.2628402709961 272.0606384277344 125.56106567382812 264.5888366699219" stroke-width="2.0" fill="rgb(73, 70, 61)" opacity="1.0334245" stroke="rgb(0, 0, 0)" stroke-opacity="0.0" stroke-linecap="round" stroke-linejoin="round"/>
    <path d="M 282.4519958496094 279.3865661621094 C 266.4645690917969 274.3153381347656 264.12567138671875 290.1855163574219 281.7307434082031 287.1029052734375 L 282.4519958496094 279.3865661621094" stroke-width="2.0" fill="rgb(179, 148, 119)" opacity="0.96970314" stroke="rgb(0, 0, 0)" stroke-opacity="0.0" stroke-linecap="round" stroke-linejoin="round"/>
    <path d="M 209.860595703125 218.46417236328125 C 205.26780700683594 229.58534240722656 226.31008911132812 229.9809112548828 221.2572021484375 218.28302001953125 L 209.860595703125 218.46417236328125" stroke-width="2.0" fill="rgb(174, 145, 118)" opacity="0.9825733" stroke="rgb(0, 0, 0)" stroke-opacity="0.0" stroke-linecap="round" stroke-linejoin="round"/>
    <path d="M 209.61859130859375 206.13233947753906 C 206.06033325195312 216.19540405273438 224.9641571044922 216.5765838623047 221.254638671875 206.28260803222656 L 209.61859130859375 206.13233947753906" stroke-width="2.0" fill="rgb(170, 142, 113)" opacity="0.9890358" stroke="rgb(0, 0, 0)" stroke-opacity="0.0" stroke-linecap="round" stroke-linejoin="round"/>
    <path d="M 270.644775390625 218.4139404296875 C 265.72509765625 232.55291748046875 286.545166015625 232.39878845214844 282.69366455078125 218.5244140625 L 270.644775390625 218.4139404296875" stroke-width="2.0" fill="rgb(176, 145, 115)" opacity="0.97377497" stroke="rgb(0, 0, 0)" stroke-opacity="0.0" stroke-linecap="round" stroke-linejoin="round"/>
    <path d="M 269.5867919921875 303.986083984375 C 272.5191345214844 321.59173583984375 296.4008483886719 299.7555847167969 269.5867919921875 303.986083984375" stroke-width="2.0" fill="rgb(178, 147, 118)" opacity="0.989044" stroke="rgb(0, 0, 0)" stroke-opacity="0.0" stroke-linecap="round" stroke-linejoin="round"/>
    <path d="M 269.9892883300781 292.2648010253906 C 267.3515319824219 303.6293640136719 290.0792541503906 297.48223876953125 279.90325927734375 291.32452392578125 L 269.9892883300781 292.2648010253906" stroke-width="2.0" fill="rgb(174, 141, 112)" opacity="0.9272569" stroke="rgb(0, 0, 0)" stroke-opacity="0.0" stroke-linecap="round" stroke-linejoin="round"/>
    <path d="M 208.7550048828125 303.5656433105469 C 205.31723022460938 313.1859130859375 223.96934509277344 313.3459167480469 221.78543090820312 303.4781799316406 L 208.7550048828125 303.5656433105469" stroke-width="2.0" fill="rgb(176, 147, 119)" opacity="0.9919357" stroke="rgb(0, 0, 0)" stroke-opacity="0.0" stroke-linecap="round" stroke-linejoin="round"/>
    <path d="M 436.868408203125 444.493408203125 C 432.4808349609375 449.49688720703125 454.183349609375 452.18829345703125 447.1859130859375 443.7986755371094 L 436.868408203125 444.493408203125" stroke-width="2.0" fill="rgb(-57, -41, -29)" opacity="0.57891196" stroke="rgb(0, 0, 0)" stroke-opacity="0.0" stroke-linecap="round" stroke-linejoin="round"/>
    <path d="M 311.78277587890625 247.6025390625 C 314.8855285644531 253.08668518066406 328.3369140625 247.60939025878906 329.2644348144531 255.39697265625 C 332.64599609375 239.65591430664062 317.543701171875 250.02682495117188 311.78277587890625 247.6025390625" stroke-width="2.0" fill="rgb(122, 132, 116)" opacity="0.4613616" stroke="rgb(0, 0, 0)" stroke-opacity="0.0" stroke-linecap="round" stroke-linejoin="round"/>
    <path d="M 447.67291259765625 338.57952880859375 C 444.3375549316406 340.26336669921875 434.2202453613281 341.93853759765625 436.1741027832031 347.79052734375 C 440.9237060546875 345.07763671875 451.5745849609375 345.3557434082031 447.67291259765625 338.57952880859375" stroke-width="2.0" fill="rgb(29, 29, 27)" opacity="0.8878495" stroke="rgb(0, 0, 0)" stroke-opacity="0.0" stroke-linecap="round" stroke-linejoin="round"/>
    <path d="M 209.3222198486328 410.1595764160156 C 216.1995391845703 420.2290954589844 226.9155731201172 405.1332092285156 209.3222198486328 410.1595764160156" stroke-width="2.0" fill="rgb(178, 148, 118)" opacity="1.0014555" stroke="rgb(0, 0, 0)" stroke-opacity="0.0" stroke-linecap="round" stroke-linejoin="round"/>
    <path d="M 288.05743408203125 343.2524108886719 C 281.16552734375 362.8729248046875 299.5578308105469 352.4393005371094 288.05743408203125 343.2524108886719" stroke-width="2.0" fill="rgb(56, 51, 43)" opacity="1.0408579" stroke="rgb(0, 0, 0)" stroke-opacity="0.0" stroke-linecap="round" stroke-linejoin="round"/>
    <path d="M 405.5616455078125 401.7851257324219 C 411.25030517578125 413.2951354980469 415.0923156738281 413.0392761230469 412.3590087890625 399.4194641113281 L 405.5616455078125 401.7851257324219" stroke-width="2.0" fill="rgb(24, 35, 38)" opacity="0.91110295" stroke="rgb(0, 0, 0)" stroke-opacity="0.0" stroke-linecap="round" stroke-linejoin="round"/>
    <path d="M 329.65386962890625 462.156982421875 C 326.85491943359375 467.1509094238281 344.26263427734375 465.440185546875 340.9832458496094 462.5466003417969 L 329.65386962890625 462.156982421875" stroke-width="2.0" fill="rgb(60, 68, 65)" opacity="1.1566767" stroke="rgb(0, 0, 0)" stroke-opacity="0.0" stroke-linecap="round" stroke-linejoin="round"/>
    <path d="M 490.51043701171875 475.6231384277344 C 482.2344055175781 485.4131774902344 501.2757873535156 491.152587890625 489.0906982421875 483.2572021484375 L 490.51043701171875 475.6231384277344" stroke-width="2.0" fill="rgb(68, 105, 115)" opacity="0.58183193" stroke="rgb(0, 0, 0)" stroke-opacity="0.0" stroke-linecap="round" stroke-linejoin="round"/>
    <path d="M 404.4913024902344 444.7830505371094 C 408.4530944824219 455.1207275390625 423.1036071777344 441.1258544921875 404.4913024902344 444.7830505371094" stroke-width="2.0" fill="rgb(14, 19, 13)" opacity="0.8777948" stroke="rgb(0, 0, 0)" stroke-opacity="0.0" stroke-linecap="round" stroke-linejoin="round"/>
    <path d="M 414.0165100097656 353.7861328125 C 396.06494140625 356.2368469238281 405.3094787597656 366.578857421875 414.0165100097656 353.7861328125" stroke-width="2.0" fill="rgb(20, 31, 23)" opacity="0.9015712" stroke="rgb(0, 0, 0)" stroke-opacity="0.0" stroke-linecap="round" stroke-linejoin="round"/>
    <path d="M 296.11309814453125 249.44615173339844 C 300.4651794433594 254.89434814453125 297.1612548828125 257.89404296875 299.8419494628906 249.6324462890625 L 309.97357177734375 250.12571716308594 L 296.11309814453125 249.44615173339844" stroke-width="2.0" fill="rgb(50, 59, 70)" opacity="0.864406" stroke="rgb(0, 0, 0)" stroke-opacity="0.0" stroke-linecap="round" stroke-linejoin="round"/>
    <path d="M 358.81396484375 356.595458984375 C 345.9710998535156 354.07659912109375 345.7061767578125 368.97381591796875 358.81396484375 356.595458984375" stroke-width="2.0" fill="rgb(42, 41, 33)" opacity="0.9173551" stroke="rgb(0, 0, 0)" stroke-opacity="0.0" stroke-linecap="round" stroke-linejoin="round"/>
    <path d="M 85.60957336425781 84.91036987304688 C 77.5994873046875 95.21867370605469 78.55863952636719 109.5228042602539 89.7707290649414 118.60773468017578 L 85.60957336425781 84.91036987304688" stroke-width="2.0" fill="rgb(2, 25, 33)" opacity="0.776642" stroke="rgb(0, 0, 0)" stroke-opacity="0.0" stroke-linecap="round" stroke-linejoin="round"/>
    <path d="M 280.7513732910156 427.8269348144531 C 274.68719482421875 427.8958740234375 276.03240966796875 435.3095397949219 279.76434326171875 439.32586669921875 L 280.7513732910156 427.8269348144531" stroke-width="2.0" fill="rgb(183, 155, 126)" opacity="1.0285809" stroke="rgb(0, 0, 0)" stroke-opacity="0.0" stroke-linecap="round" stroke-linejoin="round"/>
    <path d="M 97.06167602539062 466.3863830566406 C 105.29945373535156 478.1452331542969 114.68449401855469 460.7177429199219 97.06167602539062 466.3863830566406" stroke-width="2.0" fill="rgb(63, 79, 80)" opacity="0.92487437" stroke="rgb(0, 0, 0)" stroke-opacity="0.0" stroke-linecap="round" stroke-linejoin="round"/>
  </g>
</svg>
