<?xml version="1.0" ?>
<svg xmlns="http://www.w3.org/2000/svg" version="1.1" width="512" height="512">
  <defs/>
  <g>
    <path d="M 0.0 0.0 L 512.0 0.0 L 512.0 512.0 L 0.0 512.0 L 0.0 0.0" stroke-width="0.0" fill="rgb(255, 255, 255)" opacity="1.0" stroke="rgb(0, 0, 0)" stroke-opacity="0.0" stroke-linecap="round" stroke-linejoin="round"/>
    <path d="M 477.0 52.0 L 472.0 54.0 C 465.2518005371094 93.66666412353516 451.7559814453125 133.3333282470703 447.0 173.0 C 453.8494873046875 176.82061767578125 445.77001953125 187.98204040527344 448.0 195.0 C 436.3275146484375 196.22030639648438 426.9378662109375 192.7478790283203 416.0 195.0 C 410.12420654296875 202.0 413.9447021484375 209.0 406.0 216.0 C 392.5252685546875 210.00015258789062 403.2691345214844 198.1554718017578 395.0 188.0 L 344.0 188.0 C 331.99462890625 230.6666717529297 328.4308776855469 273.3333435058594 319.0 316.0 C 321.05780029296875 366.3333435058594 315.0627746582031 416.6666564941406 322.0 467.0 C 335.3333435058594 464.4980163574219 348.6666564941406 472.23419189453125 362.0 475.0 C 387.6666564941406 474.8776550292969 413.3333435058594 482.8779602050781 439.0 489.0 C 455.6666564941406 490.3685302734375 472.3333435058594 485.6169738769531 489.0 488.0 C 489.4026184082031 494.9299621582031 498.9461669921875 500.4268493652344 496.0 492.0 C 502.94970703125 495.6558532714844 502.4801025390625 494.48211669921875 499.0 489.0 L 502.0 489.0 C 505.4996643066406 343.3333435058594 505.5721740722656 197.6666717529297 503.0 52.0 L 477.0 52.0" stroke-width="2.0" fill="rgb(158, 147, 129)" opacity="1.0" stroke="rgb(0, 0, 0)" stroke-opacity="0.0" stroke-linecap="round" stroke-linejoin="round"/>
    <path d="M 10.0 61.0 C 5.176214218139648 205.3333282470703 8.86235523223877 349.6666564941406 8.0 494.0 C 35.62043762207031 494.25006103515625 67.6045913696289 494.9117431640625 92.0 482.0 C 98.01763916015625 483.1818542480469 105.86327362060547 482.8341064453125 109.0 475.0 C 125.59134674072266 478.626953125 139.90545654296875 466.4145812988281 157.0 471.0 C 165.0 468.2003173828125 173.0 470.0100402832031 181.0 464.0 C 183.56907653808594 426.6666564941406 178.37200927734375 389.3333435058594 185.0 352.0 L 172.0 277.0 C 162.6666717529297 273.4220886230469 153.3333282470703 279.21783447265625 144.0 274.0 C 140.3849639892578 246.6666717529297 134.88491821289062 219.3333282470703 133.0 192.0 C 122.0 185.4817352294922 111.0 190.95249938964844 100.0 189.0 C 92.3465347290039 146.6666717529297 87.87814331054688 104.33333587646484 81.0 62.0 C 57.66666793823242 60.22520446777344 34.33333206176758 60.65016174316406 10.0 61.0" stroke-width="2.0" fill="rgb(140, 129, 111)" opacity="1.0" stroke="rgb(0, 0, 0)" stroke-opacity="0.0" stroke-linecap="round" stroke-linejoin="round"/>
    <path d="M 8.0 11.0 L 9.0 57.0 C 34.0 61.21269607543945 59.0 53.48869705200195 84.0 61.0 C 88.7514419555664 84.0 89.27275848388672 107.0 95.0 130.0 C 132.0 132.55224609375 169.0 132.6547088623047 206.0 131.0 C 206.7730255126953 122.59440612792969 205.98855590820312 112.55917358398438 218.0 112.0 C 214.12710571289062 101.0 231.15220642089844 90.0 241.0 79.0 C 242.9984893798828 64.0 236.98377990722656 49.0 244.0 34.0 C 246.31898498535156 33.40154266357422 247.8393096923828 34.40154266357422 249.0 37.0 L 249.0 77.0 C 260.5085754394531 90.27045440673828 275.5226745605469 99.88934326171875 273.0 114.0 C 284.9036865234375 110.9253158569336 286.5644226074219 125.89720153808594 289.0 132.0 L 451.0 131.0 C 457.97918701171875 105.33333587646484 463.3822021484375 79.66666412353516 469.0 54.0 C 480.71026611328125 44.67685317993164 494.94097900390625 53.51818084716797 505.0 47.0 L 504.0 8.0 L 12.0 7.0 C 10.273504257202148 9.047008514404297 8.162393569946289 6.991453170776367 8.0 11.0" stroke-width="2.0" fill="rgb(188, 189, 172)" opacity="1.0" stroke="rgb(0, 0, 0)" stroke-opacity="0.0" stroke-linecap="round" stroke-linejoin="round"/>
    <path d="M 80.0 61.0 C 56.0 61.56280517578125 32.0 57.105438232421875 8.0 62.0 C 8.966447830200195 206.3333282470703 4.801548004150391 350.6666564941406 10.0 495.0 C 33.33333206176758 492.8932800292969 56.66666793823242 492.89697265625 80.0 487.0 C 79.09896850585938 468.8649597167969 101.95350646972656 485.18914794921875 107.0 475.0 C 108.68341064453125 395.3333435058594 108.83890533447266 315.6666564941406 106.0 236.0 C 98.9239501953125 178.0 89.46839904785156 120.0 80.0 61.0" stroke-width="2.0" fill="rgb(152, 137, 117)" opacity="1.0" stroke="rgb(0, 0, 0)" stroke-opacity="0.0" stroke-linecap="round" stroke-linejoin="round"/>
    <path d="M 246.0 38.0 C 240.0531768798828 58.1203498840332 253.7965850830078 81.6067886352539 222.0 101.0 C 222.8097686767578 111.92892456054688 218.4764404296875 116.54287719726562 209.0 119.0 L 209.0 282.0 C 202.3590850830078 294.36761474609375 187.9571990966797 305.7254943847656 182.0 317.0 C 183.49195861816406 334.6666564941406 190.66860961914062 352.3333435058594 184.0 370.0 C 186.985595703125 396.3333435058594 180.2875518798828 422.6666564941406 186.0 449.0 C 213.0 452.1455993652344 240.0 446.5890808105469 267.0 445.0 C 266.32470703125 415.6666564941406 270.3216552734375 386.3333435058594 266.0 357.0 C 270.8238220214844 344.3333435058594 278.43328857421875 331.6666564941406 282.0 319.0 L 282.0 120.0 C 277.6666564941406 113.45085144042969 273.3333435058594 120.20181274414062 269.0 115.0 C 273.8443298339844 101.71619415283203 258.50567626953125 90.46170806884766 246.0 78.0 L 246.0 38.0" stroke-width="2.0" fill="rgb(184, 174, 155)" opacity="1.0" stroke="rgb(0, 0, 0)" stroke-opacity="0.0" stroke-linecap="round" stroke-linejoin="round"/>
    <path d="M 504.0 52.0 C 493.2821044921875 54.094459533691406 480.0694580078125 47.46853256225586 471.0 56.0 C 463.8226013183594 93.66666412353516 454.3814697265625 131.3333282470703 446.0 169.0 C 445.7209777832031 171.3333282470703 445.662353515625 173.6666717529297 449.0 176.0 L 449.0 490.0 C 453.6531982421875 491.1844482421875 452.3468017578125 487.6659240722656 457.0 485.0 C 463.281005859375 485.163330078125 479.20733642578125 491.1826171875 475.0 480.0 C 482.177734375 477.57440185546875 470.81414794921875 472.5898742675781 478.0 469.0 C 472.46160888671875 461.24951171875 483.67724609375 463.8410339355469 483.0 455.0 C 489.6671142578125 456.8937683105469 485.2868347167969 466.8345947265625 488.0 472.0 L 504.0 470.0 L 504.0 52.0" stroke-width="2.0" fill="rgb(160, 137, 112)" opacity="1.0" stroke="rgb(0, 0, 0)" stroke-opacity="0.0" stroke-linecap="round" stroke-linejoin="round"/>
    <path d="M 342.0 188.0 C 334.04559326171875 228.3333282470703 327.483154296875 268.6666564941406 319.0 309.0 C 317.7733154296875 354.1000061035156 319.9815979003906 401.5298156738281 317.0 445.0 C 321.3597412109375 452.0 317.27313232421875 459.0 322.0 466.0 C 330.3916320800781 464.15997314453125 340.1109924316406 462.2898254394531 347.0 471.0 C 358.6666564941406 473.0478515625 370.3333435058594 476.9619445800781 382.0 475.0 L 382.0 292.0 C 387.8025207519531 281.2452697753906 400.1042785644531 276.8182373046875 409.0 267.0 C 404.2004699707031 254.52383422851562 414.65765380859375 238.33116149902344 402.0 229.0 C 402.3476867675781 221.63047790527344 411.2930908203125 211.82992553710938 399.0 210.0 L 398.0 188.0 L 342.0 188.0" stroke-width="2.0" fill="rgb(152, 154, 143)" opacity="1.0" stroke="rgb(0, 0, 0)" stroke-opacity="0.0" stroke-linecap="round" stroke-linejoin="round"/>
    <path d="M 112.0 189.0 L 102.0 191.0 C 113.70182037353516 285.3333435058594 110.14266204833984 379.6666564941406 108.0 474.0 C 115.08309173583984 476.01300048828125 124.93492126464844 478.8853759765625 129.0 470.0 C 146.0 470.2347412109375 163.0 472.6572570800781 180.0 465.0 C 184.71351623535156 427.3333435058594 175.35960388183594 389.6666564941406 185.0 352.0 C 179.60214233398438 326.3333435058594 177.4012451171875 300.6666564941406 171.0 275.0 C 161.6666717529297 273.7469787597656 152.3333282470703 277.5574951171875 143.0 273.0 C 139.8869171142578 246.0 134.455322265625 219.0 133.0 192.0 C 126.33333587646484 186.88534545898438 119.66666412353516 192.4996337890625 112.0 189.0" stroke-width="2.0" fill="rgb(113, 108, 98)" opacity="1.0" stroke="rgb(0, 0, 0)" stroke-opacity="0.0" stroke-linecap="round" stroke-linejoin="round"/>
    <path d="M 446.0 251.0 C 426.0 262.19158935546875 406.0 278.37359619140625 386.0 291.0 C 381.1505126953125 295.3333435058594 386.3018493652344 299.6666564941406 383.0 304.0 L 384.0 475.0 C 404.0 481.3338928222656 424.0 485.3273010253906 444.0 490.0 C 446.2026062011719 490.4313659667969 445.4248352050781 489.76470947265625 447.0 488.0 L 446.0 251.0" stroke-width="2.0" fill="rgb(188, 173, 151)" opacity="1.0" stroke="rgb(0, 0, 0)" stroke-opacity="0.0" stroke-linecap="round" stroke-linejoin="round"/>
    <path d="M 97.0 133.0 C 93.56895446777344 150.6666717529297 99.7522201538086 168.3333282470703 104.0 186.0 C 114.33333587646484 190.0999298095703 124.66666412353516 182.6494140625 135.0 190.0 C 137.0777587890625 216.6666717529297 144.68548583984375 243.3333282470703 146.0 270.0 C 155.7277069091797 276.1484680175781 167.91708374023438 265.9641418457031 176.0 277.0 C 177.3359375 286.4642639160156 174.94837951660156 305.0159912109375 186.0 308.0 L 207.0 282.0 L 207.0 134.0 L 97.0 133.0" stroke-width="2.0" fill="rgb(235, 226, 202)" opacity="1.0" stroke="rgb(0, 0, 0)" stroke-opacity="0.0" stroke-linecap="round" stroke-linejoin="round"/>
    <path d="M 284.0 245.0 L 328.0 245.0 C 334.9829406738281 225.3333282470703 333.9371032714844 205.6666717529297 342.0 186.0 L 398.0 185.0 C 398.2441101074219 171.3006591796875 400.0787353515625 155.0441436767578 410.0 143.0 C 430.5207824707031 142.714599609375 424.0613098144531 169.89877319335938 427.0 184.0 L 445.0 185.0 C 441.4660949707031 168.0 448.616943359375 151.0 450.0 134.0 L 284.0 134.0 L 284.0 245.0" stroke-width="2.0" fill="rgb(232, 225, 201)" opacity="1.0" stroke="rgb(0, 0, 0)" stroke-opacity="0.0" stroke-linecap="round" stroke-linejoin="round"/>
    <path d="M 132.0 190.0 L 102.0 190.0 C 103.93257904052734 212.0 107.74214935302734 234.0 111.0 256.0 C 105.50284576416016 328.6666564941406 111.91339111328125 401.3333435058594 109.0 474.0 C 115.63605499267578 474.8857421875 121.93819427490234 463.5622253417969 126.0 473.0 C 128.97381591796875 458.6737060546875 137.97616577148438 470.31622314453125 144.0 465.0 C 144.8065643310547 409.6666564941406 141.322021484375 354.3333435058594 147.0 299.0 L 132.0 190.0" stroke-width="2.0" fill="rgb(104, 109, 103)" opacity="1.0" stroke="rgb(0, 0, 0)" stroke-opacity="0.0" stroke-linecap="round" stroke-linejoin="round"/>
    <path d="M 8.0 61.0 L 8.0 211.0 C 10.375205993652344 210.45440673828125 15.658797264099121 207.29559326171875 17.0 211.0 C 27.206911087036133 207.89427185058594 43.577232360839844 217.2383270263672 49.0 205.0 C 57.87492370605469 163.36111450195312 67.5157241821289 117.42144012451172 81.0 79.0 C 85.2087173461914 78.83574676513672 81.15879821777344 85.16425323486328 84.0 85.0 C 81.00019073486328 69.75950622558594 83.9598159790039 69.78045654296875 80.0 61.0 L 8.0 61.0" stroke-width="2.0" fill="rgb(129, 98, 73)" opacity="1.0" stroke="rgb(0, 0, 0)" stroke-opacity="0.0" stroke-linecap="round" stroke-linejoin="round"/>
    <path d="M 147.0 275.0 C 142.06332397460938 286.6703186035156 154.44288635253906 300.9951477050781 146.0 311.0 L 146.0 465.0 C 155.72889709472656 469.59393310546875 169.6207275390625 467.696533203125 181.0 464.0 L 181.0 359.0 L 185.0 357.0 C 182.31570434570312 330.0 175.51870727539062 303.0 172.0 276.0 L 147.0 275.0" stroke-width="2.0" fill="rgb(128, 109, 91)" opacity="1.0" stroke="rgb(0, 0, 0)" stroke-opacity="0.0" stroke-linecap="round" stroke-linejoin="round"/>
    <path d="M 289.0 317.0 C 276.64263916015625 334.7879943847656 265.14031982421875 356.5778503417969 271.0 376.0 L 270.0 451.0 C 285.6666564941406 455.5157165527344 301.3333435058594 455.0838317871094 317.0 454.0 C 315.72015380859375 408.3333435058594 319.5942687988281 362.6666564941406 315.0 317.0 L 289.0 317.0" stroke-width="2.0" fill="rgb(152, 131, 109)" opacity="1.0" stroke="rgb(0, 0, 0)" stroke-opacity="0.0" stroke-linecap="round" stroke-linejoin="round"/>
    <path d="M 65.0 61.0 L 8.0 61.0 L 8.0 206.0 L 31.0 205.0 C 41.75419616699219 157.6664276123047 56.88199234008789 107.66698455810547 65.0 61.0" stroke-width="2.0" fill="rgb(157, 107, 72)" opacity="1.0" stroke="rgb(0, 0, 0)" stroke-opacity="0.0" stroke-linecap="round" stroke-linejoin="round"/>
    <path d="M 343.0 188.0 C 339.3450927734375 206.3333282470703 334.9070739746094 224.6666717529297 333.0 243.0 C 336.8923645019531 244.4968719482422 333.4240417480469 228.32923889160156 338.0 233.0 C 340.15289306640625 224.40838623046875 336.2686462402344 213.03343200683594 345.0 211.0 C 352.0036926269531 239.3333282470703 356.4228210449219 267.6666564941406 364.0 296.0 C 369.5289306640625 299.4431457519531 385.2998352050781 300.6973571777344 379.0 291.0 C 388.9193420410156 279.1378479003906 402.3893127441406 275.5605163574219 408.0 264.0 C 404.68414306640625 253.0627899169922 412.262451171875 237.70803833007812 402.0 230.0 C 403.67401123046875 220.88880920410156 408.9698486328125 213.31117248535156 398.0 209.0 L 398.0 188.0 L 343.0 188.0" stroke-width="2.0" fill="rgb(99, 112, 111)" opacity="1.0" stroke="rgb(0, 0, 0)" stroke-opacity="0.0" stroke-linecap="round" stroke-linejoin="round"/>
    <path d="M 152.0 504.0 L 345.0 504.0 C 320.3205261230469 487.1163330078125 291.3428649902344 481.7547302246094 265.0 462.0 C 250.0 460.94549560546875 235.0 459.2802734375 220.0 461.0 C 220.032958984375 467.6827392578125 212.43016052246094 470.07586669921875 207.0 475.0 C 189.0 485.1551513671875 171.0 493.0085144042969 152.0 504.0" stroke-width="2.0" fill="rgb(172, 169, 155)" opacity="1.0" stroke="rgb(0, 0, 0)" stroke-opacity="0.0" stroke-linecap="round" stroke-linejoin="round"/>
    <path d="M 269.0 462.0 C 268.1623840332031 463.6666564941406 270.27349853515625 465.3333435058594 272.0 467.0 L 354.0 505.0 C 390.3333435058594 503.6925354003906 426.6666564941406 508.0173645019531 463.0 502.0 L 462.0 496.0 C 414.3333435058594 484.3543395996094 366.6666564941406 474.8150329589844 319.0 469.0 C 316.7850341796875 466.0 319.1905822753906 463.0 315.0 460.0 C 300.0 459.95068359375 285.0 459.73248291015625 269.0 462.0" stroke-width="2.0" fill="rgb(202, 198, 181)" opacity="1.0" stroke="rgb(0, 0, 0)" stroke-opacity="0.0" stroke-linecap="round" stroke-linejoin="round"/>
    <path d="M 207.0 286.0 L 181.0 316.0 C 183.0528564453125 330.0 186.7355499267578 344.0 187.0 358.0 L 183.0 361.0 L 183.0 449.0 C 189.4492645263672 453.8336486816406 199.91497802734375 449.5664367675781 208.0 451.0 L 207.0 286.0" stroke-width="2.0" fill="rgb(213, 204, 182)" opacity="1.0" stroke="rgb(0, 0, 0)" stroke-opacity="0.0" stroke-linecap="round" stroke-linejoin="round"/>
    <path d="M 215.0 464.0 C 204.52757263183594 460.15557861328125 187.66189575195312 456.45269775390625 182.0 467.0 C 165.0 472.9265441894531 148.0 473.527587890625 131.0 472.0 C 126.28107452392578 485.4236145019531 109.31707000732422 470.3504638671875 106.0 484.0 C 74.37244415283203 491.6559753417969 40.98857879638672 496.6693115234375 8.0 497.0 L 8.0 503.0 C 45.66666793823242 507.6595153808594 83.33333587646484 503.6719970703125 121.0 505.0 C 152.0 489.28533935546875 183.0 478.6554870605469 215.0 464.0" stroke-width="2.0" fill="rgb(197, 183, 160)" opacity="1.0" stroke="rgb(0, 0, 0)" stroke-opacity="0.0" stroke-linecap="round" stroke-linejoin="round"/>
    <path d="M 244.0 37.0 L 244.0 80.0 C 230.76089477539062 91.20307922363281 215.60755920410156 103.23692321777344 221.0 116.0 L 209.0 118.0 L 210.0 162.0 L 245.0 117.0 C 257.5157775878906 129.9583740234375 270.12640380859375 149.66265869140625 282.0 162.0 L 282.0 118.0 C 267.415283203125 120.01972198486328 268.9217224121094 110.20881652832031 268.0 99.0 L 246.0 78.0 C 245.10386657714844 64.6638412475586 247.65606689453125 48.67043685913086 244.0 37.0" stroke-width="2.0" fill="rgb(104, 111, 106)" opacity="1.0" stroke="rgb(0, 0, 0)" stroke-opacity="0.0" stroke-linecap="round" stroke-linejoin="round"/>
    <path d="M 418.0 146.0 C 404.8356018066406 142.2223358154297 411.3653564453125 153.950439453125 402.0 162.0 L 408.0 163.0 C 407.19061279296875 185.0 413.4602355957031 207.0 404.0 229.0 C 414.7398376464844 234.2376708984375 405.8374328613281 250.92034912109375 410.0 261.0 C 422.0414123535156 254.56515502929688 436.610595703125 243.33920288085938 447.0 233.0 L 446.0 188.0 C 438.3333435058594 184.2418212890625 430.6666564941406 192.29563903808594 423.0 185.0 C 423.8285827636719 171.6087646484375 423.01910400390625 159.31907653808594 418.0 146.0" stroke-width="2.0" fill="rgb(73, 80, 78)" opacity="1.0" stroke="rgb(0, 0, 0)" stroke-opacity="0.0" stroke-linecap="round" stroke-linejoin="round"/>
    <path d="M 366.0 299.0 L 364.0 473.0 C 367.89752197265625 477.0502014160156 375.4992370605469 475.6278381347656 381.0 476.0 L 382.0 301.0 C 377.0 297.562744140625 372.0 299.81793212890625 366.0 299.0" stroke-width="2.0" fill="rgb(115, 119, 111)" opacity="1.0" stroke="rgb(0, 0, 0)" stroke-opacity="0.0" stroke-linecap="round" stroke-linejoin="round"/>
    <path d="M 319.0 471.0 L 320.0 479.0 C 341.0 488.49542236328125 362.0 493.3326721191406 383.0 505.0 L 505.0 504.0 C 494.954345703125 494.66693115234375 476.3671569824219 499.51953125 463.0 496.0 C 415.3333435058594 484.5751037597656 367.6666564941406 474.867431640625 319.0 471.0" stroke-width="2.0" fill="rgb(239, 231, 208)" opacity="1.0" stroke="rgb(0, 0, 0)" stroke-opacity="0.0" stroke-linecap="round" stroke-linejoin="round"/>
    <path d="M 284.0 248.0 L 284.0 316.0 L 314.0 316.0 C 321.45050048828125 293.3333435058594 324.48358154296875 270.6666564941406 328.0 248.0 L 284.0 248.0" stroke-width="2.0" fill="rgb(79, 90, 89)" opacity="1.0" stroke="rgb(0, 0, 0)" stroke-opacity="0.0" stroke-linecap="round" stroke-linejoin="round"/>
    <path d="M 245.0 461.0 L 244.0 504.0 L 345.0 504.0 C 319.95196533203125 487.6157531738281 288.0645751953125 480.414794921875 263.0 461.0 L 245.0 461.0" stroke-width="2.0" fill="rgb(197, 188, 170)" opacity="1.0" stroke="rgb(0, 0, 0)" stroke-opacity="0.0" stroke-linecap="round" stroke-linejoin="round"/>
    <path d="M 505.0 52.0 L 473.0 52.0 C 461.9590148925781 92.0 455.1759948730469 132.0 445.0 172.0 C 445.3200988769531 177.00656127929688 450.7099609375 174.7311553955078 451.0 170.0 C 459.2519836425781 136.6666717529297 462.9019470214844 103.33333587646484 475.0 70.0 C 482.99871826171875 91.66666412353516 488.95361328125 113.33333587646484 495.0 135.0 C 498.3333435058594 136.8544921875 501.6666564941406 135.97569274902344 505.0 136.0 L 505.0 52.0" stroke-width="2.0" fill="rgb(35, 43, 44)" opacity="1.0" stroke="rgb(0, 0, 0)" stroke-opacity="0.0" stroke-linecap="round" stroke-linejoin="round"/>
    <path d="M 243.0 461.0 C 236.17274475097656 460.85052490234375 215.76687622070312 455.30242919921875 220.0 466.0 C 197.6666717529297 481.4967041015625 175.3333282470703 491.2528381347656 153.0 504.0 L 242.0 504.0 L 243.0 461.0" stroke-width="2.0" fill="rgb(145, 147, 138)" opacity="1.0" stroke="rgb(0, 0, 0)" stroke-opacity="0.0" stroke-linecap="round" stroke-linejoin="round"/>
    <path d="M 446.0 196.0 L 415.0 194.0 C 412.1398620605469 206.0 406.0859680175781 218.0 404.0 230.0 C 406.0 231.05430603027344 408.0 227.582763671875 410.0 231.0 L 410.0 261.0 C 422.0 255.42149353027344 434.0 244.26034545898438 446.0 235.0 L 446.0 196.0" stroke-width="2.0" fill="rgb(58, 67, 67)" opacity="1.0" stroke="rgb(0, 0, 0)" stroke-opacity="0.0" stroke-linecap="round" stroke-linejoin="round"/>
    <path d="M 244.0 80.0 L 221.0 102.0 L 222.0 141.0 C 230.69790649414062 136.88450622558594 237.82870483398438 121.75543212890625 246.0 116.0 L 268.0 142.0 L 269.0 101.0 C 261.0 94.64010620117188 253.0 81.49876403808594 244.0 80.0" stroke-width="2.0" fill="rgb(130, 136, 128)" opacity="1.0" stroke="rgb(0, 0, 0)" stroke-opacity="0.0" stroke-linecap="round" stroke-linejoin="round"/>
    <path d="M 81.0 467.0 L 8.0 468.0 L 8.0 495.0 C 31.66666603088379 495.21160888671875 55.33333206176758 491.7251281738281 79.0 489.0 C 83.47835540771484 482.0 79.80424499511719 475.0 81.0 467.0" stroke-width="2.0" fill="rgb(47, 60, 62)" opacity="1.0" stroke="rgb(0, 0, 0)" stroke-opacity="0.0" stroke-linecap="round" stroke-linejoin="round"/>
    <path d="M 147.0 275.0 L 147.0 345.0 L 156.0 345.0 C 163.46963500976562 327.99822998046875 161.90353393554688 308.335693359375 170.0 293.0 C 175.70889282226562 313.6666564941406 179.04632568359375 334.3333435058594 180.0 355.0 C 183.08106994628906 355.4037170410156 181.21893310546875 359.5796203613281 185.0 358.0 C 181.8851318359375 330.3333435058594 176.746337890625 302.6666564941406 171.0 275.0 L 147.0 275.0" stroke-width="2.0" fill="rgb(88, 96, 95)" opacity="1.0" stroke="rgb(0, 0, 0)" stroke-opacity="0.0" stroke-linecap="round" stroke-linejoin="round"/>
    <path d="M 328.0 248.0 L 300.0 248.0 L 301.0 315.0 C 306.0 313.5201416015625 311.0 317.9095458984375 316.0 314.0 L 328.0 248.0" stroke-width="2.0" fill="rgb(107, 118, 116)" opacity="1.0" stroke="rgb(0, 0, 0)" stroke-opacity="0.0" stroke-linecap="round" stroke-linejoin="round"/>
    <path d="M 240.0 400.0 C 222.66966247558594 413.199462890625 231.41098022460938 430.1884765625 229.0 445.0 L 264.0 445.0 C 264.917236328125 430.1234130859375 268.0036315917969 393.6368103027344 240.0 400.0" stroke-width="2.0" fill="rgb(102, 95, 85)" opacity="1.0" stroke="rgb(0, 0, 0)" stroke-opacity="0.0" stroke-linecap="round" stroke-linejoin="round"/>
    <path d="M 210.0 338.0 L 209.0 449.0 C 212.10304260253906 453.43017578125 220.37258911132812 450.9557189941406 221.0 445.0 L 221.0 340.0 C 219.1074981689453 335.9456481933594 214.39523315429688 338.89862060546875 210.0 338.0" stroke-width="2.0" fill="rgb(192, 168, 140)" opacity="1.0" stroke="rgb(0, 0, 0)" stroke-opacity="0.0" stroke-linecap="round" stroke-linejoin="round"/>
    <path d="M 419.0 145.0 C 404.55474853515625 140.8914794921875 411.3070983886719 152.3083953857422 401.0 162.0 C 403.1484069824219 178.0244140625 395.5450439453125 196.6337432861328 403.0 211.0 C 412.4656982421875 211.6781463623047 409.8600158691406 198.59910583496094 415.0 193.0 C 423.6795959472656 191.0034942626953 450.9720764160156 201.07627868652344 444.0 187.0 C 437.3333435058594 185.88995361328125 430.6666564941406 188.99005126953125 424.0 186.0 C 425.08087158203125 172.0012664794922 423.5789794921875 158.87571716308594 419.0 145.0" stroke-width="2.0" fill="rgb(146, 145, 134)" opacity="1.0" stroke="rgb(0, 0, 0)" stroke-opacity="0.0" stroke-linecap="round" stroke-linejoin="round"/>
    <path d="M 83.0 393.0 L 82.0 476.0 C 87.33333587646484 477.49102783203125 92.66666412353516 478.2795715332031 98.0 475.0 L 97.0 398.0 C 92.66666412353516 393.5254821777344 88.33333587646484 395.12579345703125 83.0 393.0" stroke-width="2.0" fill="rgb(49, 58, 58)" opacity="1.0" stroke="rgb(0, 0, 0)" stroke-opacity="0.0" stroke-linecap="round" stroke-linejoin="round"/>
    <path d="M 299.0 248.0 L 283.0 248.0 L 283.0 322.0 C 288.3333435058594 314.55535888671875 293.6666564941406 314.24139404296875 299.0 315.0 L 299.0 248.0" stroke-width="2.0" fill="rgb(42, 52, 52)" opacity="1.0" stroke="rgb(0, 0, 0)" stroke-opacity="0.0" stroke-linecap="round" stroke-linejoin="round"/>
    <path d="M 234.0 181.0 C 228.8184814453125 194.0 234.5537109375 207.0 231.0 220.0 L 258.0 221.0 L 258.0 182.0 C 253.33877563476562 178.3809814453125 250.1136016845703 190.02658081054688 247.0 181.0 C 243.0 181.74221801757812 239.0 184.78346252441406 234.0 181.0" stroke-width="2.0" fill="rgb(97, 97, 88)" opacity="1.0" stroke="rgb(0, 0, 0)" stroke-opacity="0.0" stroke-linecap="round" stroke-linejoin="round"/>
    <path d="M 286.0 319.0 C 277.5741271972656 332.3333435058594 274.41119384765625 345.6666564941406 267.0 359.0 L 270.0 359.0 C 277.5280456542969 346.3302307128906 280.63946533203125 331.004150390625 289.0 320.0 C 300.50860595703125 332.397705078125 297.9134826660156 363.25445556640625 317.0 360.0 C 316.0103454589844 345.6666564941406 319.18939208984375 331.3333435058594 315.0 317.0 C 305.6666564941406 317.1043701171875 296.3333435058594 312.8223571777344 286.0 319.0" stroke-width="2.0" fill="rgb(48, 58, 57)" opacity="1.0" stroke="rgb(0, 0, 0)" stroke-opacity="0.0" stroke-linecap="round" stroke-linejoin="round"/>
    <path d="M 316.0 456.0 L 273.0 455.0 C 263.6546325683594 439.4278259277344 242.41416931152344 451.25128173828125 227.0 448.0 C 215.56761169433594 459.7007141113281 198.44056701660156 449.7861328125 184.0 454.0 L 183.0 458.0 C 227.3333282470703 459.8687744140625 271.6666564941406 459.6830139160156 316.0 456.0" stroke-width="2.0" fill="rgb(142, 142, 135)" opacity="1.0" stroke="rgb(0, 0, 0)" stroke-opacity="0.0" stroke-linecap="round" stroke-linejoin="round"/>
    <path d="M 8.0 468.0 L 8.0 495.0 L 42.0 494.0 L 42.0 468.0 L 8.0 468.0" stroke-width="2.0" fill="rgb(26, 39, 43)" opacity="1.0" stroke="rgb(0, 0, 0)" stroke-opacity="0.0" stroke-linecap="round" stroke-linejoin="round"/>
    <path d="M 309.0 362.0 L 309.0 455.0 C 311.880615234375 455.0403747558594 315.5462341308594 455.5815734863281 317.0 452.0 L 317.0 362.0 L 309.0 362.0" stroke-width="2.0" fill="rgb(149, 108, 79)" opacity="1.0" stroke="rgb(0, 0, 0)" stroke-opacity="0.0" stroke-linecap="round" stroke-linejoin="round"/>
    <path d="M 399.0 465.0 L 399.0 480.0 C 415.0 483.09808349609375 431.0 488.6783447265625 447.0 490.0 L 447.0 470.0 L 399.0 465.0" stroke-width="2.0" fill="rgb(149, 111, 79)" opacity="1.0" stroke="rgb(0, 0, 0)" stroke-opacity="0.0" stroke-linecap="round" stroke-linejoin="round"/>
    <path d="M 81.0 468.0 L 44.0 468.0 L 44.0 493.0 L 80.0 489.0 L 81.0 468.0" stroke-width="2.0" fill="rgb(68, 81, 82)" opacity="1.0" stroke="rgb(0, 0, 0)" stroke-opacity="0.0" stroke-linecap="round" stroke-linejoin="round"/>
    <path d="M 268.0 464.0 C 303.3338623046875 479.83343505859375 342.9996032714844 509.4545593261719 380.0 505.0 C 344.9994812011719 491.0547180175781 305.66705322265625 473.1102294921875 268.0 464.0" stroke-width="2.0" fill="rgb(72, 81, 80)" opacity="1.0" stroke="rgb(0, 0, 0)" stroke-opacity="0.0" stroke-linecap="round" stroke-linejoin="round"/>
    <path d="M 58.0 383.0 L 57.0 448.0 L 69.0 448.0 L 69.0 387.0 C 65.66666412353516 383.3865966796875 62.33333206176758 384.71319580078125 58.0 383.0" stroke-width="2.0" fill="rgb(94, 96, 86)" opacity="1.0" stroke="rgb(0, 0, 0)" stroke-opacity="0.0" stroke-linecap="round" stroke-linejoin="round"/>
    <path d="M 447.0 253.0 C 425.9853515625 262.4216613769531 402.3530578613281 279.7596435546875 383.0 295.0 L 383.0 302.0 C 404.3333435058594 292.25714111328125 425.6666564941406 275.07098388671875 447.0 264.0 L 447.0 253.0" stroke-width="2.0" fill="rgb(164, 128, 96)" opacity="1.0" stroke="rgb(0, 0, 0)" stroke-opacity="0.0" stroke-linecap="round" stroke-linejoin="round"/>
    <path d="M 242.0 407.0 C 228.79800415039062 417.389404296875 237.71780395507812 431.9585876464844 236.0 444.0 L 256.0 444.0 C 253.674560546875 432.2798767089844 263.8143310546875 406.28533935546875 242.0 407.0" stroke-width="2.0" fill="rgb(36, 45, 46)" opacity="1.0" stroke="rgb(0, 0, 0)" stroke-opacity="0.0" stroke-linecap="round" stroke-linejoin="round"/>
    <path d="M 219.0 465.0 C 187.99945068359375 475.7811279296875 154.33407592773438 489.703857421875 125.0 505.0 C 156.0 509.1342468261719 187.0 483.2220458984375 219.0 465.0" stroke-width="2.0" fill="rgb(69, 76, 74)" opacity="1.0" stroke="rgb(0, 0, 0)" stroke-opacity="0.0" stroke-linecap="round" stroke-linejoin="round"/>
    <path d="M 57.0 264.0 L 56.0 332.0 C 58.146934509277344 335.865966796875 63.32521438598633 335.94427490234375 67.0 339.0 L 67.0 272.0 L 57.0 264.0" stroke-width="2.0" fill="rgb(94, 96, 86)" opacity="1.0" stroke="rgb(0, 0, 0)" stroke-opacity="0.0" stroke-linecap="round" stroke-linejoin="round"/>
    <path d="M 477.0 394.0 L 482.0 399.0 L 480.0 488.0 L 487.0 489.0 L 487.0 392.0 L 477.0 394.0" stroke-width="2.0" fill="rgb(39, 44, 43)" opacity="1.0" stroke="rgb(0, 0, 0)" stroke-opacity="0.0" stroke-linecap="round" stroke-linejoin="round"/>
    <path d="M 80.0 178.0 L 79.0 229.0 C 83.16342163085938 235.4622802734375 81.88848876953125 229.63607788085938 85.0 226.0 C 87.27407836914062 231.45147705078125 84.5070571899414 238.0221710205078 92.0 242.0 L 92.0 192.0 C 86.12479400634766 185.43792724609375 84.18842315673828 187.57308959960938 80.0 178.0" stroke-width="2.0" fill="rgb(152, 142, 122)" opacity="1.0" stroke="rgb(0, 0, 0)" stroke-opacity="0.0" stroke-linecap="round" stroke-linejoin="round"/>
    <path d="M 396.0 403.0 L 389.0 406.0 C 389.8231201171875 429.6783447265625 386.7436828613281 455.9842834472656 393.0 478.0 L 397.0 478.0 L 396.0 403.0" stroke-width="2.0" fill="rgb(68, 64, 56)" opacity="1.0" stroke="rgb(0, 0, 0)" stroke-opacity="0.0" stroke-linecap="round" stroke-linejoin="round"/>
    <path d="M 77.0 281.0 L 76.0 344.0 L 85.0 348.0 L 85.0 287.0 L 77.0 281.0" stroke-width="2.0" fill="rgb(100, 101, 93)" opacity="1.0" stroke="rgb(0, 0, 0)" stroke-opacity="0.0" stroke-linecap="round" stroke-linejoin="round"/>
    <path d="M 487.0 272.0 C 483.40814208984375 272.1141662597656 478.85687255859375 275.309326171875 478.0 279.0 L 478.0 336.0 L 488.0 332.0 L 487.0 272.0" stroke-width="2.0" fill="rgb(84, 68, 56)" opacity="1.0" stroke="rgb(0, 0, 0)" stroke-opacity="0.0" stroke-linecap="round" stroke-linejoin="round"/>
    <path d="M 420.0 156.0 L 407.0 157.0 C 411.5702819824219 173.3333282470703 407.7375183105469 189.6666717529297 409.0 206.0 C 411.6064758300781 201.83514404296875 413.4400939941406 188.1313934326172 423.0 192.0 C 422.07586669921875 180.95277404785156 425.3561096191406 164.7305450439453 420.0 156.0" stroke-width="2.0" fill="rgb(98, 107, 102)" opacity="1.0" stroke="rgb(0, 0, 0)" stroke-opacity="0.0" stroke-linecap="round" stroke-linejoin="round"/>
    <path d="M 487.0 154.0 L 478.0 163.0 L 477.0 220.0 L 488.0 212.0 L 487.0 154.0" stroke-width="2.0" fill="rgb(79, 65, 52)" opacity="1.0" stroke="rgb(0, 0, 0)" stroke-opacity="0.0" stroke-linecap="round" stroke-linejoin="round"/>
    <path d="M 466.0 284.0 L 459.0 289.0 C 458.339111328125 307.6666564941406 459.7499694824219 326.3333435058594 457.0 345.0 L 467.0 341.0 L 466.0 284.0" stroke-width="2.0" fill="rgb(88, 72, 60)" opacity="1.0" stroke="rgb(0, 0, 0)" stroke-opacity="0.0" stroke-linecap="round" stroke-linejoin="round"/>
    <path d="M 447.0 392.0 C 444.0 391.8402404785156 441.0 391.9646301269531 438.0 394.0 L 438.0 448.0 L 447.0 447.0 L 447.0 392.0" stroke-width="2.0" fill="rgb(125, 108, 88)" opacity="1.0" stroke="rgb(0, 0, 0)" stroke-opacity="0.0" stroke-linecap="round" stroke-linejoin="round"/>
    <path d="M 505.0 357.0 C 486.6666564941406 360.4224853515625 468.3333435058594 368.7455139160156 450.0 374.0 C 446.9921569824219 376.0 448.2279357910156 378.0 448.0 380.0 C 467.0 379.2032470703125 486.0 366.8044738769531 505.0 367.0 L 505.0 357.0" stroke-width="2.0" fill="rgb(41, 48, 46)" opacity="1.0" stroke="rgb(0, 0, 0)" stroke-opacity="0.0" stroke-linecap="round" stroke-linejoin="round"/>
    <path d="M 467.0 173.0 C 461.8389587402344 175.7352294921875 458.80950927734375 179.60791015625 458.0 184.0 C 458.87030029296875 200.6666717529297 460.8129577636719 217.3333282470703 457.0 234.0 C 460.3333435058594 234.28005981445312 463.6666564941406 229.62013244628906 467.0 228.0 L 467.0 173.0" stroke-width="2.0" fill="rgb(84, 69, 55)" opacity="1.0" stroke="rgb(0, 0, 0)" stroke-opacity="0.0" stroke-linecap="round" stroke-linejoin="round"/>
    <path d="M 446.0 286.0 L 438.0 290.0 L 437.0 345.0 C 440.3333435058594 344.8227844238281 443.6666564941406 344.2975158691406 447.0 341.0 L 446.0 286.0" stroke-width="2.0" fill="rgb(130, 111, 90)" opacity="1.0" stroke="rgb(0, 0, 0)" stroke-opacity="0.0" stroke-linecap="round" stroke-linejoin="round"/>
    <path d="M 94.0 294.0 L 93.0 351.0 C 94.65886688232422 353.89178466796875 98.87098693847656 355.5584411621094 102.0 356.0 L 100.0 299.0 L 94.0 294.0" stroke-width="2.0" fill="rgb(101, 102, 95)" opacity="1.0" stroke="rgb(0, 0, 0)" stroke-opacity="0.0" stroke-linecap="round" stroke-linejoin="round"/>
    <path d="M 466.0 396.0 L 459.0 397.0 L 458.0 449.0 L 466.0 449.0 L 466.0 396.0" stroke-width="2.0" fill="rgb(82, 69, 59)" opacity="1.0" stroke="rgb(0, 0, 0)" stroke-opacity="0.0" stroke-linecap="round" stroke-linejoin="round"/>
    <path d="M 221.0 117.0 L 209.0 117.0 L 209.0 161.0 C 224.43807983398438 150.33404541015625 220.789794921875 131.90545654296875 221.0 117.0" stroke-width="2.0" fill="rgb(82, 94, 91)" opacity="1.0" stroke="rgb(0, 0, 0)" stroke-opacity="0.0" stroke-linecap="round" stroke-linejoin="round"/>
    <path d="M 448.0 471.0 C 448.02691650390625 476.0897521972656 445.8382873535156 499.0477600097656 455.0 486.0 C 462.17181396484375 485.0226745605469 472.9618835449219 490.581787109375 477.0 483.0 C 474.3141174316406 479.49298095703125 478.38494873046875 476.4908752441406 476.0 472.0 L 448.0 471.0" stroke-width="2.0" fill="rgb(96, 102, 100)" opacity="1.0" stroke="rgb(0, 0, 0)" stroke-opacity="0.0" stroke-linecap="round" stroke-linejoin="round"/>
    <path d="M 270.0 117.0 C 271.5452880859375 131.72695922851562 263.44769287109375 148.36851501464844 281.0 159.0 L 282.0 118.0 L 270.0 117.0" stroke-width="2.0" fill="rgb(55, 67, 67)" opacity="1.0" stroke="rgb(0, 0, 0)" stroke-opacity="0.0" stroke-linecap="round" stroke-linejoin="round"/>
    <path d="M 146.0 457.0 L 147.0 471.0 C 158.3333282470703 471.8209533691406 169.6666717529297 468.479736328125 181.0 466.0 L 181.0 457.0 L 146.0 457.0" stroke-width="2.0" fill="rgb(37, 46, 47)" opacity="1.0" stroke="rgb(0, 0, 0)" stroke-opacity="0.0" stroke-linecap="round" stroke-linejoin="round"/>
    <path d="M 66.0 158.0 L 64.0 213.0 L 72.0 221.0 C 69.77316284179688 200.58558654785156 77.05001068115234 177.77728271484375 66.0 158.0" stroke-width="2.0" fill="rgb(105, 102, 91)" opacity="1.0" stroke="rgb(0, 0, 0)" stroke-opacity="0.0" stroke-linecap="round" stroke-linejoin="round"/>
    <path d="M 241.0 248.0 C 220.4982452392578 258.9388427734375 248.6056671142578 284.6499938964844 257.0 263.0 C 260.1148986816406 254.81759643554688 250.07582092285156 244.9743194580078 241.0 248.0" stroke-width="2.0" fill="rgb(142, 144, 137)" opacity="1.0" stroke="rgb(0, 0, 0)" stroke-opacity="0.0" stroke-linecap="round" stroke-linejoin="round"/>
    <path d="M 7.0 263.0 L 7.0 322.0 L 12.0 323.0 C 16.63604736328125 305.0 12.689412117004395 287.0 14.0 269.0 C 13.030029296875 266.3485107421875 11.236148834228516 263.11181640625 7.0 263.0" stroke-width="2.0" fill="rgb(102, 75, 57)" opacity="1.0" stroke="rgb(0, 0, 0)" stroke-opacity="0.0" stroke-linecap="round" stroke-linejoin="round"/>
    <path d="M 447.0 363.0 C 426.3333435058594 367.5343322753906 405.6666564941406 376.5999755859375 385.0 383.0 C 382.4957275390625 384.6666564941406 382.940185546875 386.3333435058594 383.0 388.0 C 404.0 384.8516845703125 425.0 374.0076599121094 446.0 370.0 L 447.0 363.0" stroke-width="2.0" fill="rgb(183, 150, 116)" opacity="1.0" stroke="rgb(0, 0, 0)" stroke-opacity="0.0" stroke-linecap="round" stroke-linejoin="round"/>
    <path d="M 396.0 313.0 C 391.8736572265625 314.6170654296875 389.7760009765625 317.1827087402344 389.0 321.0 L 389.0 365.0 L 397.0 362.0 L 396.0 313.0" stroke-width="2.0" fill="rgb(123, 106, 90)" opacity="1.0" stroke="rgb(0, 0, 0)" stroke-opacity="0.0" stroke-linecap="round" stroke-linejoin="round"/>
    <path d="M 68.0 388.0 L 62.0 392.0 L 63.0 444.0 L 69.0 444.0 L 68.0 388.0" stroke-width="2.0" fill="rgb(145, 140, 125)" opacity="1.0" stroke="rgb(0, 0, 0)" stroke-opacity="0.0" stroke-linecap="round" stroke-linejoin="round"/>
    <path d="M 489.0 472.0 C 488.41009521484375 484.0342712402344 486.35125732421875 501.7982177734375 504.0 498.0 L 505.0 473.0 L 489.0 472.0" stroke-width="2.0" fill="rgb(83, 93, 94)" opacity="1.0" stroke="rgb(0, 0, 0)" stroke-opacity="0.0" stroke-linecap="round" stroke-linejoin="round"/>
    <path d="M 428.0 297.0 C 425.6666564941406 296.1275634765625 423.3333435058594 298.5390930175781 421.0 300.0 L 420.0 352.0 L 428.0 350.0 L 428.0 297.0" stroke-width="2.0" fill="rgb(118, 103, 87)" opacity="1.0" stroke="rgb(0, 0, 0)" stroke-opacity="0.0" stroke-linecap="round" stroke-linejoin="round"/>
    <path d="M 288.0 497.0 L 288.0 503.0 C 302.3333435058594 501.4217224121094 316.6666564941406 505.84222412109375 331.0 502.0 C 330.4842834472656 490.862548828125 308.5547180175781 503.9936828613281 311.0 490.0 C 303.228759765625 490.8487854003906 295.0552062988281 486.45452880859375 295.0 497.0 L 288.0 497.0" stroke-width="2.0" fill="rgb(166, 154, 135)" opacity="1.0" stroke="rgb(0, 0, 0)" stroke-opacity="0.0" stroke-linecap="round" stroke-linejoin="round"/>
    <path d="M 421.0 398.0 L 420.0 447.0 L 428.0 448.0 L 428.0 396.0 L 421.0 398.0" stroke-width="2.0" fill="rgb(124, 109, 90)" opacity="1.0" stroke="rgb(0, 0, 0)" stroke-opacity="0.0" stroke-linecap="round" stroke-linejoin="round"/>
    <path d="M 412.0 305.0 C 409.3436279296875 305.913818359375 406.2888488769531 306.85906982421875 405.0 310.0 C 404.5384826660156 326.3333435058594 406.1421203613281 342.6666564941406 404.0 359.0 L 412.0 356.0 L 412.0 305.0" stroke-width="2.0" fill="rgb(119, 103, 87)" opacity="1.0" stroke="rgb(0, 0, 0)" stroke-opacity="0.0" stroke-linecap="round" stroke-linejoin="round"/>
    <path d="M 338.0 400.0 C 333.55792236328125 419.6666564941406 337.1698913574219 439.3333435058594 336.0 459.0 L 340.0 460.0 C 341.4947204589844 440.3320007324219 345.1571960449219 418.0018005371094 338.0 400.0" stroke-width="2.0" fill="rgb(76, 81, 77)" opacity="1.0" stroke="rgb(0, 0, 0)" stroke-opacity="0.0" stroke-linecap="round" stroke-linejoin="round"/>
    <path d="M 408.0 400.0 C 401.2228698730469 413.7023010253906 406.8373718261719 431.6402282714844 405.0 447.0 L 412.0 447.0 L 412.0 400.0 L 408.0 400.0" stroke-width="2.0" fill="rgb(134, 115, 98)" opacity="1.0" stroke="rgb(0, 0, 0)" stroke-opacity="0.0" stroke-linecap="round" stroke-linejoin="round"/>
    <path d="M 365.0 456.0 L 365.0 475.0 L 382.0 476.0 L 381.0 456.0 L 365.0 456.0" stroke-width="2.0" fill="rgb(29, 41, 41)" opacity="1.0" stroke="rgb(0, 0, 0)" stroke-opacity="0.0" stroke-linecap="round" stroke-linejoin="round"/>
    <path d="M 184.0 335.0 L 185.0 338.0 L 275.0 336.0 C 246.9991912841797 331.07196044921875 214.66726684570312 335.4460754394531 184.0 335.0" stroke-width="2.0" fill="rgb(111, 100, 84)" opacity="1.0" stroke="rgb(0, 0, 0)" stroke-opacity="0.0" stroke-linecap="round" stroke-linejoin="round"/>
    <path d="M 222.0 450.0 C 233.7036895751953 456.1443176269531 253.9725341796875 452.4556579589844 269.0 452.0 C 268.9368591308594 443.3400573730469 259.6225280761719 449.1968078613281 255.0 446.0 C 244.3333282470703 446.8717956542969 233.6666717529297 447.0454406738281 222.0 450.0" stroke-width="2.0" fill="rgb(133, 130, 122)" opacity="1.0" stroke="rgb(0, 0, 0)" stroke-opacity="0.0" stroke-linecap="round" stroke-linejoin="round"/>
    <path d="M 209.0 233.0 L 209.0 236.0 L 282.0 236.0 L 282.0 233.0 L 209.0 233.0" stroke-width="2.0" fill="rgb(66, 64, 56)" opacity="1.0" stroke="rgb(0, 0, 0)" stroke-opacity="0.0" stroke-linecap="round" stroke-linejoin="round"/>
    <path d="M 80.0 178.0 L 79.0 230.0 L 82.0 233.0 C 82.56659698486328 215.0 87.81280517578125 197.0 80.0 178.0" stroke-width="2.0" fill="rgb(157, 147, 124)" opacity="1.0" stroke="rgb(0, 0, 0)" stroke-opacity="0.0" stroke-linecap="round" stroke-linejoin="round"/>
    <path d="M 7.0 208.0 L 8.0 213.0 C 21.035804748535156 211.42868041992188 36.618263244628906 216.3942413330078 48.0 210.0 L 48.0 207.0 L 7.0 208.0" stroke-width="2.0" fill="rgb(36, 43, 42)" opacity="1.0" stroke="rgb(0, 0, 0)" stroke-opacity="0.0" stroke-linecap="round" stroke-linejoin="round"/>
    <path d="M 246.0 181.0 C 238.669189453125 192.03794860839844 241.54649353027344 209.9509735107422 244.0 221.0 L 248.0 220.0 L 246.0 181.0" stroke-width="2.0" fill="rgb(58, 63, 61)" opacity="1.0" stroke="rgb(0, 0, 0)" stroke-opacity="0.0" stroke-linecap="round" stroke-linejoin="round"/>
    <path d="M 233.0 182.0 L 232.0 220.0 L 237.0 220.0 L 238.0 184.0 C 236.73077392578125 181.4957275390625 236.23077392578125 181.94017028808594 233.0 182.0" stroke-width="2.0" fill="rgb(51, 55, 51)" opacity="1.0" stroke="rgb(0, 0, 0)" stroke-opacity="0.0" stroke-linecap="round" stroke-linejoin="round"/>
    <path d="M 119.0 319.0 L 118.0 363.0 L 123.0 365.0 C 121.10847473144531 349.6666564941406 126.85258483886719 334.3333435058594 119.0 319.0" stroke-width="2.0" fill="rgb(59, 67, 69)" opacity="1.0" stroke="rgb(0, 0, 0)" stroke-opacity="0.0" stroke-linecap="round" stroke-linejoin="round"/>
    <path d="M 256.0 181.0 C 249.34396362304688 193.6666717529297 254.7509765625 206.3333282470703 253.0 219.0 L 259.0 220.0 C 257.8648681640625 207.66339111328125 261.39208984375 192.67103576660156 256.0 181.0" stroke-width="2.0" fill="rgb(52, 56, 51)" opacity="1.0" stroke="rgb(0, 0, 0)" stroke-opacity="0.0" stroke-linecap="round" stroke-linejoin="round"/>
    <path d="M 347.0 258.0 C 340.568603515625 260.2479553222656 342.72027587890625 278.83050537109375 341.0 263.0 C 330.2577819824219 264.1266784667969 339.2782897949219 279.53948974609375 337.0 287.0 C 343.1604919433594 287.06170654296875 339.44036865234375 277.09515380859375 345.0 282.0 C 350.5491638183594 276.1984558105469 345.154541015625 266.43206787109375 347.0 258.0" stroke-width="2.0" fill="rgb(124, 118, 103)" opacity="1.0" stroke="rgb(0, 0, 0)" stroke-opacity="0.0" stroke-linecap="round" stroke-linejoin="round"/>
    <path d="M 208.0 335.0 L 275.0 336.0 C 254.99851989746094 331.4932556152344 230.66778564453125 335.2167053222656 208.0 335.0" stroke-width="2.0" fill="rgb(91, 85, 73)" opacity="1.0" stroke="rgb(0, 0, 0)" stroke-opacity="0.0" stroke-linecap="round" stroke-linejoin="round"/>
    <path d="M 355.0 315.0 L 351.0 317.0 L 350.0 360.0 L 356.0 358.0 L 355.0 315.0" stroke-width="2.0" fill="rgb(82, 87, 81)" opacity="1.0" stroke="rgb(0, 0, 0)" stroke-opacity="0.0" stroke-linecap="round" stroke-linejoin="round"/>
    <path d="M 119.0 400.0 L 119.0 443.0 L 123.0 443.0 C 121.11798095703125 428.96875 126.83952331542969 412.37554931640625 119.0 400.0" stroke-width="2.0" fill="rgb(58, 67, 71)" opacity="1.0" stroke="rgb(0, 0, 0)" stroke-opacity="0.0" stroke-linecap="round" stroke-linejoin="round"/>
    <path d="M 342.0 324.0 L 338.0 325.0 L 337.0 365.0 C 339.0 364.7720642089844 341.0 366.0078430175781 343.0 363.0 L 342.0 324.0" stroke-width="2.0" fill="rgb(105, 107, 97)" opacity="1.0" stroke="rgb(0, 0, 0)" stroke-opacity="0.0" stroke-linecap="round" stroke-linejoin="round"/>
    <path d="M 286.0 427.0 C 275.76580810546875 432.5755615234375 283.3175048828125 446.15777587890625 281.0 455.0 C 294.1900939941406 457.5640869140625 289.1316833496094 434.6048889160156 286.0 427.0" stroke-width="2.0" fill="rgb(48, 54, 50)" opacity="1.0" stroke="rgb(0, 0, 0)" stroke-opacity="0.0" stroke-linecap="round" stroke-linejoin="round"/>
    <path d="M 455.0 488.0 C 458.5203552246094 498.69537353515625 477.9560241699219 494.70977783203125 488.0 496.0 L 487.0 490.0 C 476.6666564941406 490.167724609375 466.3333435058594 486.92059326171875 455.0 488.0" stroke-width="2.0" fill="rgb(186, 171, 150)" opacity="1.0" stroke="rgb(0, 0, 0)" stroke-opacity="0.0" stroke-linecap="round" stroke-linejoin="round"/>
    <path d="M 245.0 351.0 C 238.56155395507812 360.6666564941406 243.59854125976562 370.3333435058594 242.0 380.0 C 255.6787109375 383.08648681640625 246.21458435058594 361.01800537109375 249.0 353.0 L 245.0 351.0" stroke-width="2.0" fill="rgb(63, 71, 69)" opacity="1.0" stroke="rgb(0, 0, 0)" stroke-opacity="0.0" stroke-linecap="round" stroke-linejoin="round"/>
    <path d="M 245.0 285.0 C 238.35202026367188 294.6666564941406 243.74412536621094 304.3333435058594 242.0 314.0 C 255.28076171875 317.3184509277344 246.455810546875 295.7531433105469 249.0 288.0 L 245.0 285.0" stroke-width="2.0" fill="rgb(65, 72, 70)" opacity="1.0" stroke="rgb(0, 0, 0)" stroke-opacity="0.0" stroke-linecap="round" stroke-linejoin="round"/>
    <path d="M 329.0 331.0 C 321.8275451660156 342.3817443847656 328.76507568359375 357.9642028808594 325.0 371.0 L 331.0 368.0 L 329.0 331.0" stroke-width="2.0" fill="rgb(112, 115, 108)" opacity="1.0" stroke="rgb(0, 0, 0)" stroke-opacity="0.0" stroke-linecap="round" stroke-linejoin="round"/>
    <path d="M 137.0 408.0 C 139.3391876220703 420.0406494140625 132.11705017089844 437.2784118652344 141.0 446.0 L 142.0 409.0 L 137.0 408.0" stroke-width="2.0" fill="rgb(65, 74, 77)" opacity="1.0" stroke="rgb(0, 0, 0)" stroke-opacity="0.0" stroke-linecap="round" stroke-linejoin="round"/>
    <path d="M 82.0 479.0 C 77.37350463867188 495.4886169433594 96.40910339355469 486.396240234375 106.0 484.0 C 100.32184600830078 477.1790771484375 90.34192657470703 476.8148193359375 82.0 479.0" stroke-width="2.0" fill="rgb(156, 145, 130)" opacity="1.0" stroke="rgb(0, 0, 0)" stroke-opacity="0.0" stroke-linecap="round" stroke-linejoin="round"/>
    <path d="M 355.0 397.0 L 351.0 399.0 C 351.8856201171875 411.3333435058594 353.6969299316406 423.6666564941406 350.0 436.0 L 356.0 436.0 L 355.0 397.0" stroke-width="2.0" fill="rgb(78, 79, 72)" opacity="1.0" stroke="rgb(0, 0, 0)" stroke-opacity="0.0" stroke-linecap="round" stroke-linejoin="round"/>
    <path d="M 365.0 373.0 C 361.10247802734375 369.2721252441406 353.5007629394531 376.0772705078125 348.0 376.0 C 339.2628479003906 381.67333984375 325.4289855957031 381.7433166503906 320.0 389.0 C 335.0 385.40081787109375 350.0 379.9124755859375 365.0 373.0" stroke-width="2.0" fill="rgb(151, 141, 123)" opacity="1.0" stroke="rgb(0, 0, 0)" stroke-opacity="0.0" stroke-linecap="round" stroke-linejoin="round"/>
    <path d="M 418.0 193.0 C 431.0697326660156 191.85597229003906 446.6670227050781 200.89906311035156 447.0 188.0 C 436.88861083984375 186.41836547851562 426.4736022949219 184.48272705078125 418.0 193.0" stroke-width="2.0" fill="rgb(93, 104, 103)" opacity="1.0" stroke="rgb(0, 0, 0)" stroke-opacity="0.0" stroke-linecap="round" stroke-linejoin="round"/>
    <path d="M 129.0 329.0 L 129.0 368.0 L 133.0 370.0 C 131.1287841796875 356.6324768066406 136.82464599609375 340.7128601074219 129.0 329.0" stroke-width="2.0" fill="rgb(47, 57, 63)" opacity="1.0" stroke="rgb(0, 0, 0)" stroke-opacity="0.0" stroke-linecap="round" stroke-linejoin="round"/>
    <path d="M 129.0 404.0 L 129.0 444.0 L 133.0 444.0 C 131.13475036621094 430.9642028808594 136.81642150878906 415.3817443847656 129.0 404.0" stroke-width="2.0" fill="rgb(55, 66, 66)" opacity="1.0" stroke="rgb(0, 0, 0)" stroke-opacity="0.0" stroke-linecap="round" stroke-linejoin="round"/>
    <path d="M 244.0 36.0 L 246.0 80.0 C 247.02911376953125 65.6642074584961 248.95877075195312 48.669952392578125 244.0 36.0" stroke-width="2.0" fill="rgb(81, 88, 85)" opacity="1.0" stroke="rgb(0, 0, 0)" stroke-opacity="0.0" stroke-linecap="round" stroke-linejoin="round"/>
    <path d="M 478.0 107.0 C 465.9622497558594 112.16372680664062 472.7698669433594 124.64749145507812 471.0 133.0 C 483.0377502441406 129.51837158203125 476.2301330566406 116.11812591552734 478.0 107.0" stroke-width="2.0" fill="rgb(80, 68, 56)" opacity="1.0" stroke="rgb(0, 0, 0)" stroke-opacity="0.0" stroke-linecap="round" stroke-linejoin="round"/>
    <path d="M 329.0 403.0 C 320.8138427734375 410.18194580078125 330.272705078125 425.5340881347656 324.0 436.0 L 330.0 436.0 L 329.0 403.0" stroke-width="2.0" fill="rgb(89, 93, 86)" opacity="1.0" stroke="rgb(0, 0, 0)" stroke-opacity="0.0" stroke-linecap="round" stroke-linejoin="round"/>
    <path d="M 130.0 261.0 C 129.65451049804688 272.0040588378906 125.30070495605469 285.6612548828125 133.0 295.0 C 131.71920776367188 283.9515380859375 135.59555053710938 270.3990173339844 130.0 261.0" stroke-width="2.0" fill="rgb(52, 60, 60)" opacity="1.0" stroke="rgb(0, 0, 0)" stroke-opacity="0.0" stroke-linecap="round" stroke-linejoin="round"/>
    <path d="M 190.0 369.0 C 187.4147186279297 376.2124938964844 184.02024841308594 392.1009826660156 195.0 389.0 C 193.26577758789062 382.873779296875 199.01148986816406 371.8392028808594 190.0 369.0" stroke-width="2.0" fill="rgb(62, 69, 65)" opacity="1.0" stroke="rgb(0, 0, 0)" stroke-opacity="0.0" stroke-linecap="round" stroke-linejoin="round"/>
    <path d="M 409.0 145.0 C 400.1415100097656 159.75709533691406 427.8395690917969 159.75709533691406 419.0 145.0 L 409.0 145.0" stroke-width="2.0" fill="rgb(149, 110, 85)" opacity="1.0" stroke="rgb(0, 0, 0)" stroke-opacity="0.0" stroke-linecap="round" stroke-linejoin="round"/>
    <path d="M 389.0 440.0 L 388.0 475.0 C 396.9646911621094 476.18060302734375 387.9818115234375 457.9214172363281 392.0 451.0 L 389.0 440.0" stroke-width="2.0" fill="rgb(140, 111, 88)" opacity="1.0" stroke="rgb(0, 0, 0)" stroke-opacity="0.0" stroke-linecap="round" stroke-linejoin="round"/>
    <path d="M 418.0 204.0 C 415.5333251953125 208.68162536621094 411.80377197265625 217.6554718017578 411.0 224.0 C 420.6131286621094 221.2762451171875 424.6855773925781 211.77993774414062 418.0 204.0" stroke-width="2.0" fill="rgb(157, 154, 143)" opacity="1.0" stroke="rgb(0, 0, 0)" stroke-opacity="0.0" stroke-linecap="round" stroke-linejoin="round"/>
    <path d="M 169.0 418.0 C 168.40237426757812 426.080322265625 165.03602600097656 439.22418212890625 171.0 444.0 C 172.20301818847656 435.65985107421875 173.71292114257812 424.6757507324219 169.0 418.0" stroke-width="2.0" fill="rgb(57, 50, 42)" opacity="1.0" stroke="rgb(0, 0, 0)" stroke-opacity="0.0" stroke-linecap="round" stroke-linejoin="round"/>
    <path d="M 169.0 370.0 C 168.48326110839844 378.34014892578125 164.9892578125 389.3242492675781 171.0 396.0 C 172.07693481445312 387.65985107421875 173.88980102539062 376.6757507324219 169.0 370.0" stroke-width="2.0" fill="rgb(66, 57, 47)" opacity="1.0" stroke="rgb(0, 0, 0)" stroke-opacity="0.0" stroke-linecap="round" stroke-linejoin="round"/>
    <path d="M 422.0 223.0 C 415.68389892578125 231.33981323242188 419.83905029296875 243.99514770507812 420.0 254.0 C 424.57684326171875 245.9930877685547 420.7328796386719 233.67184448242188 422.0 223.0" stroke-width="2.0" fill="rgb(170, 178, 173)" opacity="1.0" stroke="rgb(0, 0, 0)" stroke-opacity="0.0" stroke-linecap="round" stroke-linejoin="round"/>
    <path d="M 128.0 472.0 C 123.18527221679688 482.4515075683594 155.29652404785156 476.08831787109375 140.0 471.0 L 128.0 472.0" stroke-width="2.0" fill="rgb(155, 140, 121)" opacity="1.0" stroke="rgb(0, 0, 0)" stroke-opacity="0.0" stroke-linecap="round" stroke-linejoin="round"/>
    <path d="M 8.0 226.0 C 7.189665794372559 232.33782958984375 28.81690788269043 251.07237243652344 20.0 234.0 L 8.0 226.0" stroke-width="2.0" fill="rgb(88, 75, 63)" opacity="1.0" stroke="rgb(0, 0, 0)" stroke-opacity="0.0" stroke-linecap="round" stroke-linejoin="round"/>
    <path d="M 178.0 421.0 C 172.42318725585938 425.125732421875 174.70753479003906 437.5743103027344 177.0 445.0 C 180.06192016601562 437.3333435058594 179.563720703125 429.6666564941406 178.0 421.0" stroke-width="2.0" fill="rgb(59, 49, 40)" opacity="1.0" stroke="rgb(0, 0, 0)" stroke-opacity="0.0" stroke-linecap="round" stroke-linejoin="round"/>
    <path d="M 176.0 374.0 C 178.32444763183594 381.752685546875 171.22703552246094 394.5496520996094 178.0 399.0 C 179.08883666992188 390.6666564941406 180.87246704101562 382.3333435058594 176.0 374.0" stroke-width="2.0" fill="rgb(61, 50, 43)" opacity="1.0" stroke="rgb(0, 0, 0)" stroke-opacity="0.0" stroke-linecap="round" stroke-linejoin="round"/>
    <path d="M 328.0 468.0 C 339.658203125 474.55596923828125 345.4476318359375 456.46405029296875 331.0 461.0 C 328.3623352050781 462.181884765625 328.4209899902344 464.5347595214844 328.0 468.0" stroke-width="2.0" fill="rgb(106, 109, 100)" opacity="1.0" stroke="rgb(0, 0, 0)" stroke-opacity="0.0" stroke-linecap="round" stroke-linejoin="round"/>
    <path d="M 372.0 243.0 C 368.1820373535156 252.27989196777344 389.63214111328125 251.40020751953125 383.0 242.0 L 372.0 243.0" stroke-width="2.0" fill="rgb(38, 52, 53)" opacity="1.0" stroke="rgb(0, 0, 0)" stroke-opacity="0.0" stroke-linecap="round" stroke-linejoin="round"/>
    <path d="M 276.0 366.0 C 276.04327392578125 370.535888671875 271.6210021972656 379.7207946777344 279.0 381.0 C 281.9609375 376.40606689453125 283.0994873046875 365.8356628417969 276.0 366.0" stroke-width="2.0" fill="rgb(82, 78, 68)" opacity="1.0" stroke="rgb(0, 0, 0)" stroke-opacity="0.0" stroke-linecap="round" stroke-linejoin="round"/>
    <path d="M 347.0 258.0 C 340.681396484375 262.125732421875 345.5160217285156 274.5743103027344 344.0 282.0 C 350.537109375 277.99530029296875 345.3345947265625 266.24310302734375 347.0 258.0" stroke-width="2.0" fill="rgb(104, 101, 87)" opacity="1.0" stroke="rgb(0, 0, 0)" stroke-opacity="0.0" stroke-linecap="round" stroke-linejoin="round"/>
    <path d="M 297.0 395.0 C 296.093017578125 399.8492736816406 293.4871826171875 409.41552734375 299.0 411.0 C 302.00946044921875 406.1507263183594 303.0135803222656 396.58447265625 297.0 395.0" stroke-width="2.0" fill="rgb(70, 71, 60)" opacity="1.0" stroke="rgb(0, 0, 0)" stroke-opacity="0.0" stroke-linecap="round" stroke-linejoin="round"/>
    <path d="M 275.0 396.0 C 276.3783874511719 400.59393310546875 271.524169921875 411.1643371582031 279.0 411.0 C 279.83148193359375 406.1502685546875 282.9831237792969 394.6971740722656 275.0 396.0" stroke-width="2.0" fill="rgb(65, 65, 59)" opacity="1.0" stroke="rgb(0, 0, 0)" stroke-opacity="0.0" stroke-linecap="round" stroke-linejoin="round"/>
    <path d="M 445.0 286.0 C 435.8087463378906 287.5508117675781 438.1660461425781 296.24407958984375 446.0 300.0 L 445.0 286.0" stroke-width="2.0" fill="rgb(43, 50, 45)" opacity="1.0" stroke="rgb(0, 0, 0)" stroke-opacity="0.0" stroke-linecap="round" stroke-linejoin="round"/>
    <path d="M 297.0 366.0 C 296.03533935546875 370.535888671875 293.5733947753906 379.7207946777344 299.0 381.0 C 302.00946044921875 378.2532043457031 303.0135803222656 367.0852355957031 297.0 366.0" stroke-width="2.0" fill="rgb(66, 63, 52)" opacity="1.0" stroke="rgb(0, 0, 0)" stroke-opacity="0.0" stroke-linecap="round" stroke-linejoin="round"/>
    <path d="M 439.0 393.0 C 435.29644775390625 396.6666564941406 443.6625671386719 400.3333435058594 446.0 404.0 C 448.0188293457031 398.28717041015625 448.6941833496094 387.9997863769531 439.0 393.0" stroke-width="2.0" fill="rgb(46, 51, 47)" opacity="1.0" stroke="rgb(0, 0, 0)" stroke-opacity="0.0" stroke-linecap="round" stroke-linejoin="round"/>
    <path d="M 165.0 326.0 C 166.43211364746094 332.6768798828125 162.1212158203125 341.9863586425781 167.0 347.0 C 167.9673309326172 340.3231201171875 169.94346618652344 331.0136413574219 165.0 326.0" stroke-width="2.0" fill="rgb(49, 38, 29)" opacity="1.0" stroke="rgb(0, 0, 0)" stroke-opacity="0.0" stroke-linecap="round" stroke-linejoin="round"/>
    <path d="M 296.0 426.0 C 296.9662170410156 430.4073486328125 292.4145202636719 440.6257019042969 300.0 439.0 C 301.47662353515625 434.9432067871094 302.90631103515625 425.3594665527344 296.0 426.0" stroke-width="2.0" fill="rgb(73, 68, 56)" opacity="1.0" stroke="rgb(0, 0, 0)" stroke-opacity="0.0" stroke-linecap="round" stroke-linejoin="round"/>
    <path d="M 209.0 282.0 C 216.36190795898438 292.91790771484375 228.4837646484375 274.51123046875 211.0 279.0 L 209.0 282.0" stroke-width="2.0" fill="rgb(177, 148, 118)" opacity="1.0" stroke="rgb(0, 0, 0)" stroke-opacity="0.0" stroke-linecap="round" stroke-linejoin="round"/>
    <path d="M 210.0 265.0 C 204.9418182373047 273.7303161621094 225.57470703125 273.7303161621094 220.0 265.0 L 210.0 265.0" stroke-width="2.0" fill="rgb(177, 152, 123)" opacity="1.0" stroke="rgb(0, 0, 0)" stroke-opacity="0.0" stroke-linecap="round" stroke-linejoin="round"/>
    <path d="M 246.0 146.0 C 241.00128173828125 148.01974487304688 240.8685760498047 163.080322265625 248.0 159.0 L 246.0 146.0" stroke-width="2.0" fill="rgb(54, 54, 46)" opacity="1.0" stroke="rgb(0, 0, 0)" stroke-opacity="0.0" stroke-linecap="round" stroke-linejoin="round"/>
    <path d="M 271.0 207.0 C 266.9980163574219 214.87510681152344 286.49212646484375 214.2571563720703 281.0 206.0 L 271.0 207.0" stroke-width="2.0" fill="rgb(171, 141, 113)" opacity="1.0" stroke="rgb(0, 0, 0)" stroke-opacity="0.0" stroke-linecap="round" stroke-linejoin="round"/>
    <path d="M 210.0 394.0 C 205.2252197265625 402.7303161621094 225.17672729492188 402.7303161621094 220.0 394.0 L 210.0 394.0" stroke-width="2.0" fill="rgb(179, 153, 124)" opacity="1.0" stroke="rgb(0, 0, 0)" stroke-opacity="0.0" stroke-linecap="round" stroke-linejoin="round"/>
    <path d="M 210.0 194.0 C 205.23788452148438 203.48345947265625 223.7429656982422 202.55885314941406 220.0 194.0 L 210.0 194.0" stroke-width="2.0" fill="rgb(172, 147, 118)" opacity="1.0" stroke="rgb(0, 0, 0)" stroke-opacity="0.0" stroke-linecap="round" stroke-linejoin="round"/>
    <path d="M 271.0 194.0 C 266.9028625488281 202.73031616210938 285.0971374511719 202.73031616210938 281.0 194.0 L 271.0 194.0" stroke-width="2.0" fill="rgb(174, 145, 115)" opacity="1.0" stroke="rgb(0, 0, 0)" stroke-opacity="0.0" stroke-linecap="round" stroke-linejoin="round"/>
    <path d="M 277.0 366.0 C 276.03533935546875 370.535888671875 273.5733947753906 379.7207946777344 279.0 381.0 C 280.1798400878906 376.464111328125 281.7377624511719 367.2792053222656 277.0 366.0" stroke-width="2.0" fill="rgb(56, 55, 48)" opacity="1.0" stroke="rgb(0, 0, 0)" stroke-opacity="0.0" stroke-linecap="round" stroke-linejoin="round"/>
    <path d="M 209.0 316.0 C 205.91249084472656 322.37054443359375 226.02456665039062 322.3861389160156 220.0 315.0 L 209.0 316.0" stroke-width="2.0" fill="rgb(174, 146, 114)" opacity="1.0" stroke="rgb(0, 0, 0)" stroke-opacity="0.0" stroke-linecap="round" stroke-linejoin="round"/>
    <path d="M 125.0 265.0 C 121.47640228271484 269.681640625 121.10730743408203 278.6554870605469 123.0 285.0 C 127.46031188964844 280.6501770019531 123.81721496582031 272.0123291015625 125.0 265.0" stroke-width="2.0" fill="rgb(94, 91, 82)" opacity="1.0" stroke="rgb(0, 0, 0)" stroke-opacity="0.0" stroke-linecap="round" stroke-linejoin="round"/>
    <path d="M 281.0 280.0 C 269.36444091796875 275.4503173828125 267.1201477050781 288.62811279296875 280.0 285.0 L 281.0 280.0" stroke-width="2.0" fill="rgb(177, 147, 119)" opacity="1.0" stroke="rgb(0, 0, 0)" stroke-opacity="0.0" stroke-linecap="round" stroke-linejoin="round"/>
    <path d="M 210.0 219.0 C 205.86021423339844 226.4375457763672 224.40478515625 226.4375457763672 220.0 219.0 L 210.0 219.0" stroke-width="2.0" fill="rgb(171, 143, 116)" opacity="1.0" stroke="rgb(0, 0, 0)" stroke-opacity="0.0" stroke-linecap="round" stroke-linejoin="round"/>
    <path d="M 210.0 207.0 C 207.1457977294922 214.2445831298828 222.8542022705078 214.2445831298828 220.0 207.0 L 210.0 207.0" stroke-width="2.0" fill="rgb(171, 143, 115)" opacity="1.0" stroke="rgb(0, 0, 0)" stroke-opacity="0.0" stroke-linecap="round" stroke-linejoin="round"/>
    <path d="M 271.0 219.0 C 267.1931457519531 226.4375457763672 284.9343566894531 226.4375457763672 281.0 219.0 L 271.0 219.0" stroke-width="2.0" fill="rgb(171, 140, 111)" opacity="1.0" stroke="rgb(0, 0, 0)" stroke-opacity="0.0" stroke-linecap="round" stroke-linejoin="round"/>
    <path d="M 271.0 304.0 C 271.16571044921875 317.7040710449219 290.8968200683594 300.3406066894531 271.0 304.0" stroke-width="2.0" fill="rgb(179, 148, 119)" opacity="1.0" stroke="rgb(0, 0, 0)" stroke-opacity="0.0" stroke-linecap="round" stroke-linejoin="round"/>
    <path d="M 270.0 293.0 C 267.8797912597656 301.3828125 288.6077575683594 295.7772521972656 278.0 292.0 L 270.0 293.0" stroke-width="2.0" fill="rgb(179, 148, 120)" opacity="1.0" stroke="rgb(0, 0, 0)" stroke-opacity="0.0" stroke-linecap="round" stroke-linejoin="round"/>
    <path d="M 209.0 304.0 C 206.23878479003906 310.1525573730469 222.3907470703125 310.1525573730469 221.0 304.0 L 209.0 304.0" stroke-width="2.0" fill="rgb(173, 145, 118)" opacity="1.0" stroke="rgb(0, 0, 0)" stroke-opacity="0.0" stroke-linecap="round" stroke-linejoin="round"/>
    <path d="M 437.0 444.0 C 433.8023986816406 450.3944091796875 452.05517578125 450.106201171875 446.0 443.0 L 437.0 444.0" stroke-width="2.0" fill="rgb(62, 61, 55)" opacity="1.0" stroke="rgb(0, 0, 0)" stroke-opacity="0.0" stroke-linecap="round" stroke-linejoin="round"/>
    <path d="M 312.0 249.0 C 314.89874267578125 252.89573669433594 328.5912780761719 247.4092254638672 327.0 256.0 C 330.4272766113281 240.5585479736328 317.3348388671875 251.27325439453125 312.0 249.0" stroke-width="2.0" fill="rgb(113, 124, 119)" opacity="1.0" stroke="rgb(0, 0, 0)" stroke-opacity="0.0" stroke-linecap="round" stroke-linejoin="round"/>
    <path d="M 447.0 339.0 C 443.6736145019531 339.1990966796875 436.12188720703125 340.8849182128906 436.0 346.0 C 439.3263854980469 345.6999816894531 446.87811279296875 344.52410888671875 447.0 339.0" stroke-width="2.0" fill="rgb(60, 57, 51)" opacity="1.0" stroke="rgb(0, 0, 0)" stroke-opacity="0.0" stroke-linecap="round" stroke-linejoin="round"/>
    <path d="M 209.0 410.0 C 215.74188232421875 419.47930908203125 226.2150421142578 405.1642150878906 209.0 410.0" stroke-width="2.0" fill="rgb(179, 152, 123)" opacity="1.0" stroke="rgb(0, 0, 0)" stroke-opacity="0.0" stroke-linecap="round" stroke-linejoin="round"/>
    <path d="M 287.0 344.0 C 280.98065185546875 358.35302734375 298.750244140625 350.3544921875 287.0 344.0" stroke-width="2.0" fill="rgb(76, 68, 56)" opacity="1.0" stroke="rgb(0, 0, 0)" stroke-opacity="0.0" stroke-linecap="round" stroke-linejoin="round"/>
    <path d="M 406.0 401.0 C 407.5347900390625 411.0074462890625 415.10516357421875 408.650146484375 412.0 400.0 L 406.0 401.0" stroke-width="2.0" fill="rgb(47, 52, 51)" opacity="1.0" stroke="rgb(0, 0, 0)" stroke-opacity="0.0" stroke-linecap="round" stroke-linejoin="round"/>
    <path d="M 329.0 462.0 C 326.5946960449219 467.50933837890625 343.06622314453125 465.2445068359375 339.0 461.0 L 329.0 462.0" stroke-width="2.0" fill="rgb(81, 88, 85)" opacity="1.0" stroke="rgb(0, 0, 0)" stroke-opacity="0.0" stroke-linecap="round" stroke-linejoin="round"/>
    <path d="M 489.0 476.0 C 480.9509582519531 485.76702880859375 501.34320068359375 491.46539306640625 490.0 482.0 L 489.0 476.0" stroke-width="2.0" fill="rgb(86, 99, 99)" opacity="1.0" stroke="rgb(0, 0, 0)" stroke-opacity="0.0" stroke-linecap="round" stroke-linejoin="round"/>
    <path d="M 405.0 444.0 C 406.258544921875 455.0458068847656 419.3515625 439.73175048828125 405.0 444.0" stroke-width="2.0" fill="rgb(72, 69, 58)" opacity="1.0" stroke="rgb(0, 0, 0)" stroke-opacity="0.0" stroke-linecap="round" stroke-linejoin="round"/>
    <path d="M 399.0 469.0 C 397.8384704589844 474.16595458984375 398.665283203125 481.3136291503906 406.0 480.0 C 398.0400695800781 476.6666564941406 404.65960693359375 473.3333435058594 399.0 469.0" stroke-width="2.0" fill="rgb(153, 114, 82)" opacity="1.0" stroke="rgb(0, 0, 0)" stroke-opacity="0.0" stroke-linecap="round" stroke-linejoin="round"/>
    <path d="M 412.0 353.0 C 399.0448303222656 354.2739562988281 407.0909118652344 364.23675537109375 412.0 353.0" stroke-width="2.0" fill="rgb(52, 57, 46)" opacity="1.0" stroke="rgb(0, 0, 0)" stroke-opacity="0.0" stroke-linecap="round" stroke-linejoin="round"/>
    <path d="M 296.0 249.0 C 300.35870361328125 254.94586181640625 297.18890380859375 257.9281005859375 300.0 250.0 L 310.0 250.0 L 296.0 249.0" stroke-width="2.0" fill="rgb(84, 93, 97)" opacity="1.0" stroke="rgb(0, 0, 0)" stroke-opacity="0.0" stroke-linecap="round" stroke-linejoin="round"/>
    <path d="M 357.0 356.0 C 348.1580505371094 353.31134033203125 348.1580505371094 365.2738952636719 357.0 356.0" stroke-width="2.0" fill="rgb(60, 58, 51)" opacity="1.0" stroke="rgb(0, 0, 0)" stroke-opacity="0.0" stroke-linecap="round" stroke-linejoin="round"/>
    <path d="M 86.0 93.0 C 84.39368438720703 98.33333587646484 85.20782470703125 103.66666412353516 87.0 109.0 L 86.0 93.0" stroke-width="2.0" fill="rgb(28, 42, 41)" opacity="1.0" stroke="rgb(0, 0, 0)" stroke-opacity="0.0" stroke-linecap="round" stroke-linejoin="round"/>
    <path d="M 279.0 428.0 C 275.1837158203125 427.8584899902344 277.10540771484375 434.9584655761719 278.0 438.0 L 279.0 428.0" stroke-width="2.0" fill="rgb(188, 157, 125)" opacity="1.0" stroke="rgb(0, 0, 0)" stroke-opacity="0.0" stroke-linecap="round" stroke-linejoin="round"/>
    <path d="M 99.0 467.0 C 103.3104476928711 471.8333435058594 109.37870788574219 464.1770935058594 99.0 467.0" stroke-width="2.0" fill="rgb(77, 87, 84)" opacity="1.0" stroke="rgb(0, 0, 0)" stroke-opacity="0.0" stroke-linecap="round" stroke-linejoin="round"/>
  </g>
</svg>
