<?xml version="1.0" ?>
<svg xmlns="http://www.w3.org/2000/svg" version="1.1" width="512" height="352">
  <defs/>
  <g>
    <path d="M 146.99392700195312 235.26022338867188 C 147.09310913085938 250.06942749023438 149.99021911621094 251.5424041748047 94.63448333740234 252.07742309570312 C 68.8912124633789 245.3378448486328 70.84025573730469 245.47412109375 56.74789047241211 234.2636260986328 C 52.938018798828125 192.0309600830078 50.497806549072266 186.1276092529297 99.77020263671875 176.05166625976562 C 127.37239074707031 141.5271453857422 149.56834411621094 168.7422637939453 146.99392700195312 235.26022338867188" stroke-width="0.0" fill="rgb(212, 188, 156)" opacity="0.9915714" stroke="rgb(240, 19, 91)" stroke-opacity="0.9183631" stroke-linecap="round" stroke-linejoin="round"/>
    <path d="M 230.08851623535156 209.7262420654297 C 210.55101013183594 234.2831573486328 203.50193786621094 252.84596252441406 192.68125915527344 259.9241638183594 C 187.3875274658203 226.48451232910156 182.801513671875 243.29830932617188 175.3153839111328 193.7540283203125 C 176.27456665039062 178.88058471679688 180.789794921875 204.01377868652344 184.60791015625 167.0763702392578 C 271.98858642578125 181.60858154296875 245.58189392089844 154.06301879882812 230.08851623535156 209.7262420654297" stroke-width="0.0" fill="rgb(33, 63, 36)" opacity="0.68881404" stroke="rgb(47, 123, 20)" stroke-opacity="0.8642723" stroke-linecap="round" stroke-linejoin="round"/>
    <path d="M 256.52923583984375 294.04205322265625 C 258.48150634765625 131.00375366210938 247.89830017089844 179.91171264648438 214.5750274658203 221.41729736328125 C 181.77919006347656 218.4564971923828 215.20205688476562 160.17147827148438 154.80117797851562 177.262939453125 C 188.22909545898438 165.81468200683594 155.2913818359375 177.2696533203125 207.3454132080078 133.93572998046875 C 234.2157440185547 139.77894592285156 290.6830749511719 185.4723663330078 256.52923583984375 294.04205322265625" stroke-width="0.0" fill="rgb(81, 103, 83)" opacity="1.0" stroke="rgb(243, 175, 213)" stroke-opacity="0.34748945" stroke-linecap="round" stroke-linejoin="round"/>
    <path d="M 356.61224365234375 46.43904113769531 C 334.5369567871094 50.34218978881836 347.4546203613281 61.42897415161133 331.8451843261719 74.67581176757812 C 336.6021728515625 62.10686111450195 300.0818786621094 72.31422424316406 310.1829833984375 56.03424835205078 C 315.110107421875 36.34291458129883 317.8061218261719 17.920177459716797 331.34368896484375 38.12287902832031 C 336.552490234375 61.4400520324707 318.6573791503906 35.94141387939453 356.61224365234375 46.43904113769531" stroke-width="0.0" fill="rgb(175, 89, 57)" opacity="1.0" stroke="rgb(147, 79, 204)" stroke-opacity="0.04106817" stroke-linecap="round" stroke-linejoin="round"/>
    <path d="M 300.8630676269531 77.88549041748047 C 275.3827209472656 116.07121276855469 329.0672302246094 99.15534973144531 249.79261779785156 125.4427490234375 C 288.5166931152344 125.15068054199219 254.653076171875 9.149985313415527 237.03187561035156 126.91316223144531 C 241.65896606445312 72.81922149658203 269.9386901855469 26.64742088317871 291.01641845703125 67.27349090576172 C 303.8970947265625 56.6005973815918 305.7755126953125 52.01286697387695 300.8630676269531 77.88549041748047" stroke-width="0.0" fill="rgb(31, 26, 0)" opacity="0.6023313" stroke="rgb(205, 224, 14)" stroke-opacity="0.17639852" stroke-linecap="round" stroke-linejoin="round"/>
    <path d="M 320.00732421875 224.18312072753906 C 334.3951721191406 251.5289764404297 335.7142639160156 244.66729736328125 273.64337158203125 228.53892517089844 C 264.70428466796875 233.647216796875 271.2697448730469 232.38079833984375 259.28814697265625 220.36903381347656 C 262.21209716796875 172.35987854003906 276.3821105957031 210.61166381835938 278.1690979003906 192.95286560058594 C 288.41619873046875 166.27061462402344 317.5656433105469 191.4282684326172 320.00732421875 224.18312072753906" stroke-width="0.0" fill="rgb(97, 126, 124)" opacity="1.0" stroke="rgb(11, 65, 154)" stroke-opacity="0.102119565" stroke-linecap="round" stroke-linejoin="round"/>
    <path d="M 331.42071533203125 69.29924011230469 C 328.18414306640625 66.76359558105469 320.3545227050781 71.30232238769531 291.3529052734375 102.92073059082031 C 256.5528869628906 118.81507873535156 265.46441650390625 26.135963439941406 299.6105041503906 55.36009979248047 C 297.1727294921875 51.86953353881836 301.13427734375 47.63094711303711 300.86126708984375 33.18519592285156 C 313.7413635253906 38.41950607299805 309.3367919921875 51.04280471801758 331.42071533203125 69.29924011230469" stroke-width="0.0" fill="rgb(154, 84, 54)" opacity="0.98608124" stroke="rgb(124, 242, 187)" stroke-opacity="0.12589808" stroke-linecap="round" stroke-linejoin="round"/>
    <path d="M 415.7704162597656 218.00465393066406 C 406.3653259277344 274.085205078125 432.54681396484375 248.714599609375 440.8821716308594 280.9626159667969 C 410.5753173828125 283.17779541015625 331.1918029785156 288.2043762207031 316.3154602050781 262.68865966796875 C 380.92230224609375 259.08013916015625 321.8536682128906 204.3045196533203 364.61041259765625 192.8236846923828 C 473.7742614746094 233.04360961914062 459.5003967285156 228.80128479003906 415.7704162597656 218.00465393066406" stroke-width="0.0" fill="rgb(89, 83, 87)" opacity="0.49395746" stroke="rgb(245, 193, 68)" stroke-opacity="0.3925021" stroke-linecap="round" stroke-linejoin="round"/>
    <path d="M 440.9090270996094 274.93328857421875 C 448.76605224609375 280.365234375 431.66790771484375 284.18218994140625 381.75244140625 286.16546630859375 C 393.957275390625 284.15118408203125 375.1291809082031 285.4533386230469 376.9530334472656 283.15179443359375 C 438.2129211425781 285.2584228515625 463.330078125 272.6759948730469 416.6820373535156 276.1279602050781 C 363.4082336425781 275.0137939453125 421.2924499511719 263.6845397949219 440.9090270996094 274.93328857421875" stroke-width="0.0" fill="rgb(51, 48, 49)" opacity="0.719003" stroke="rgb(209, 155, 209)" stroke-opacity="0.25415927" stroke-linecap="round" stroke-linejoin="round"/>
    <path d="M 393.11749267578125 152.37123107910156 C 385.16204833984375 178.81236267089844 375.62982177734375 173.68360900878906 363.5543518066406 233.8526153564453 C 320.5068664550781 213.8954315185547 362.79498291015625 178.51841735839844 342.7419738769531 163.1800994873047 C 317.7825622558594 107.26213073730469 311.6059875488281 154.66085815429688 348.0330810546875 163.33668518066406 C 378.5211486816406 167.59486389160156 368.2688293457031 142.26730346679688 393.11749267578125 152.37123107910156" stroke-width="0.0" fill="rgb(174, 174, 173)" opacity="1.0" stroke="rgb(136, 89, 133)" stroke-opacity="0.57007104" stroke-linecap="round" stroke-linejoin="round"/>
    <path d="M 305.02716064453125 85.9226303100586 C 295.44219970703125 93.65877532958984 307.7102355957031 90.58023834228516 279.10455322265625 82.64689636230469 C 263.9106750488281 88.47663879394531 253.55908203125 80.79409790039062 260.6698303222656 77.56886291503906 C 271.11224365234375 73.80494689941406 264.2475280761719 75.40576934814453 276.19525146484375 74.84394073486328 C 273.2900085449219 76.44656372070312 280.38677978515625 70.24957275390625 305.02716064453125 85.9226303100586" stroke-width="0.0" fill="rgb(205, 101, 68)" opacity="1.0" stroke="rgb(72, 158, 185)" stroke-opacity="0.72836524" stroke-linecap="round" stroke-linejoin="round"/>
    <path d="M 392.8167419433594 165.8646697998047 C 388.3659973144531 179.0983428955078 440.392822265625 159.60740661621094 453.6548156738281 224.45094299316406 C 343.7028503417969 217.25637817382812 358.8793640136719 236.00936889648438 375.2384033203125 182.72274780273438 C 406.87451171875 142.58038330078125 378.6013488769531 132.01007080078125 390.1886901855469 127.13249206542969 C 399.92193603515625 140.60731506347656 391.09649658203125 152.98133850097656 392.8167419433594 165.8646697998047" stroke-width="0.0" fill="rgb(147, 148, 147)" opacity="1.0" stroke="rgb(87, 150, 143)" stroke-opacity="0.1977869" stroke-linecap="round" stroke-linejoin="round"/>
    <path d="M 469.7327880859375 186.7283477783203 C 501.90570068359375 273.908447265625 427.1605224609375 268.2459716796875 439.5174560546875 275.9112854003906 C 396.01519775390625 277.14544677734375 396.1402282714844 267.2219543457031 403.53045654296875 257.359130859375 C 404.1014099121094 254.00572204589844 410.7681884765625 269.78778076171875 416.0982971191406 223.6463165283203 C 457.4618225097656 213.82249450683594 462.5780334472656 261.919677734375 469.7327880859375 186.7283477783203" stroke-width="0.0" fill="rgb(154, 153, 154)" opacity="0.7783669" stroke="rgb(12, 227, 159)" stroke-opacity="0.9107071" stroke-linecap="round" stroke-linejoin="round"/>
    <path d="M 391.8776550292969 119.02345275878906 C 398.12353515625 171.91481018066406 397.21759033203125 140.37478637695312 360.1447448730469 154.14837646484375 C 338.6967468261719 140.34323120117188 331.0671691894531 147.7642822265625 327.85089111328125 131.79342651367188 C 360.2024841308594 96.73770904541016 341.1617126464844 126.87954711914062 383.2563781738281 95.26087951660156 C 361.7589111328125 142.3148956298828 421.1797180175781 85.27699279785156 391.8776550292969 119.02345275878906" stroke-width="0.0" fill="rgb(119, 100, 112)" opacity="0.34035316" stroke="rgb(75, 223, 197)" stroke-opacity="0.11202632" stroke-linecap="round" stroke-linejoin="round"/>
    <path d="M 357.4436340332031 141.61654663085938 C 378.97711181640625 150.49575805664062 369.9928894042969 145.91639709472656 328.0693359375 128.592041015625 C 329.8303527832031 149.3736572265625 305.827392578125 130.94851684570312 336.5946044921875 125.78311920166016 C 316.72674560546875 132.24142456054688 360.6676330566406 138.0733184814453 346.4196472167969 123.75069427490234 C 348.77593994140625 122.11722564697266 352.517333984375 130.64892578125 357.4436340332031 141.61654663085938" stroke-width="0.0" fill="rgb(91, 91, 90)" opacity="0.9905285" stroke="rgb(195, 1, 150)" stroke-opacity="0.3160099" stroke-linecap="round" stroke-linejoin="round"/>
    <path d="M 228.666015625 149.3185577392578 C 235.14320373535156 161.2498779296875 234.1345977783203 156.51171875 203.6886444091797 157.92318725585938 C 175.94049072265625 163.35292053222656 187.57391357421875 174.8110809326172 170.13282775878906 157.3762969970703 C 208.96400451660156 146.4361572265625 156.20635986328125 148.14068603515625 207.0166015625 139.3910675048828 C 199.4391326904297 130.75999450683594 228.1458282470703 141.5054473876953 228.666015625 149.3185577392578" stroke-width="0.0" fill="rgb(117, 143, 123)" opacity="1.0" stroke="rgb(171, 190, 221)" stroke-opacity="0.49972332" stroke-linecap="round" stroke-linejoin="round"/>
    <path d="M 260.65777587890625 167.11245727539062 C 247.6226043701172 166.94229125976562 261.21990966796875 175.99302673339844 250.93316650390625 169.88043212890625 C 223.25259399414062 200.8876495361328 225.25439453125 161.4616241455078 240.88331604003906 154.97581481933594 C 231.99851989746094 146.6905059814453 241.79830932617188 147.42282104492188 250.9296875 156.35955810546875 C 261.3049011230469 142.38499450683594 262.2048645019531 147.384765625 260.65777587890625 167.11245727539062" stroke-width="0.0" fill="rgb(110, 137, 117)" opacity="0.95393884" stroke="rgb(214, 159, 140)" stroke-opacity="0.815357" stroke-linecap="round" stroke-linejoin="round"/>
    <path d="M 294.9317932128906 107.03211212158203 C 286.8655700683594 112.13819885253906 281.8114929199219 112.14149475097656 272.9603576660156 115.26641082763672 C 263.7460021972656 125.65233612060547 262.8407287597656 123.16128540039062 264.1628723144531 121.08687591552734 C 268.4987487792969 98.70032501220703 274.79498291015625 104.93830108642578 290.2665100097656 101.55370330810547 C 294.9277648925781 99.84502410888672 289.5787048339844 103.6072769165039 294.9317932128906 107.03211212158203" stroke-width="0.0" fill="rgb(195, 94, 61)" opacity="1.0" stroke="rgb(201, 226, 38)" stroke-opacity="0.046436273" stroke-linecap="round" stroke-linejoin="round"/>
    <path d="M 90.64010620117188 203.09446716308594 C 84.46957397460938 205.0021514892578 61.060611724853516 215.54591369628906 54.82136917114258 197.93826293945312 C 70.12678527832031 197.26187133789062 46.371463775634766 183.64093017578125 37.991676330566406 248.5556640625 C 37.378639221191406 180.80935668945312 96.41969299316406 172.65760803222656 78.86088562011719 185.63250732421875 C 41.15781021118164 187.19839477539062 79.90911102294922 206.54827880859375 90.64010620117188 203.09446716308594" stroke-width="0.0" fill="rgb(153, 103, 92)" opacity="1.0" stroke="rgb(148, 243, 141)" stroke-opacity="0.8771365" stroke-linecap="round" stroke-linejoin="round"/>
    <path d="M 115.65123748779297 269.30047607421875 C 127.57376861572266 229.8614501953125 114.919921875 232.04486083984375 115.82606506347656 235.81695556640625 C 88.55697631835938 243.6822967529297 112.4208984375 240.80018615722656 109.69808959960938 224.70228576660156 C 92.00421142578125 209.25396728515625 59.438941955566406 229.78997802734375 81.40217590332031 218.43777465820312 C 112.93173217773438 210.876708984375 136.78399658203125 240.73365783691406 115.65123748779297 269.30047607421875" stroke-width="0.0" fill="rgb(99, 58, 58)" opacity="0.7960819" stroke="rgb(30, 121, 213)" stroke-opacity="0.51690656" stroke-linecap="round" stroke-linejoin="round"/>
    <path d="M 471.2395935058594 192.79676818847656 C 440.4632263183594 185.5555419921875 462.513427734375 142.93356323242188 467.47857666015625 231.85745239257812 C 462.637939453125 178.5054168701172 439.8660583496094 193.3465118408203 440.7552490234375 147.8107452392578 C 456.47021484375 165.20657348632812 430.34869384765625 179.86572265625 455.0720520019531 142.94552612304688 C 449.99822998046875 162.30941772460938 456.33282470703125 170.67791748046875 471.2395935058594 192.79676818847656" stroke-width="0.0" fill="rgb(33, 22, 28)" opacity="0.47900465" stroke="rgb(242, 146, 86)" stroke-opacity="0.9857213" stroke-linecap="round" stroke-linejoin="round"/>
    <path d="M 248.87342834472656 150.73594665527344 C 236.49082946777344 149.89157104492188 236.29017639160156 154.18959045410156 227.82693481445312 162.44190979003906 C 234.5333709716797 157.57904052734375 231.07708740234375 152.55165100097656 229.8623046875 148.17063903808594 C 226.74729919433594 141.93356323242188 223.2402801513672 140.47930908203125 224.1857452392578 141.8422393798828 C 246.15745544433594 142.55406188964844 245.88214111328125 139.5769500732422 248.87342834472656 150.73594665527344" stroke-width="0.0" fill="rgb(202, 217, 214)" opacity="1.0" stroke="rgb(124, 47, 187)" stroke-opacity="0.96133107" stroke-linecap="round" stroke-linejoin="round"/>
    <path d="M 251.17532348632812 155.1538543701172 C 253.00616455078125 150.41781616210938 262.5156555175781 151.84100341796875 244.25059509277344 158.5202178955078 C 243.33106994628906 153.6465301513672 241.17848205566406 141.40704345703125 240.0825958251953 136.5375213623047 C 236.91427612304688 120.29590606689453 235.5469970703125 111.92164611816406 241.42724609375 108.44361114501953 C 243.3175048828125 124.73095703125 247.19186401367188 137.31764221191406 251.17532348632812 155.1538543701172" stroke-width="0.0" fill="rgb(32, 45, 21)" opacity="0.9302506" stroke="rgb(11, 161, 160)" stroke-opacity="0.5718392" stroke-linecap="round" stroke-linejoin="round"/>
    <path d="M 262.75909423828125 281.4580993652344 C 252.1761932373047 304.2486267089844 256.56158447265625 283.60528564453125 254.17848205566406 284.44244384765625 C 185.2369842529297 287.5225524902344 234.39297485351562 278.5982360839844 171.49822998046875 274.9996643066406 C 186.57797241210938 260.2049560546875 194.35218811035156 282.61614990234375 246.70614624023438 271.448486328125 C 270.0407409667969 256.2960510253906 295.0839538574219 292.0480651855469 262.75909423828125 281.4580993652344" stroke-width="0.0" fill="rgb(129, 154, 158)" opacity="0.91289103" stroke="rgb(192, 217, 130)" stroke-opacity="0.73019075" stroke-linecap="round" stroke-linejoin="round"/>
    <path d="M 155.64837646484375 131.0544891357422 C 128.62387084960938 127.55176544189453 110.59109497070312 137.881103515625 116.80038452148438 135.22874450683594 C 87.97269439697266 159.6793975830078 101.33392333984375 172.75270080566406 95.27583312988281 154.37448120117188 C 95.81380462646484 127.30416107177734 115.83516693115234 117.9659652709961 129.8684539794922 121.55728149414062 C 140.5849151611328 122.23101806640625 151.35122680664062 130.75411987304688 155.64837646484375 131.0544891357422" stroke-width="0.0" fill="rgb(138, 42, 11)" opacity="0.52207386" stroke="rgb(75, 182, 212)" stroke-opacity="0.4453568" stroke-linecap="round" stroke-linejoin="round"/>
    <path d="M 379.2188720703125 115.5511703491211 C 385.30828857421875 120.8341293334961 371.0553894042969 114.25862121582031 349.1293640136719 115.40986633300781 C 372.7900085449219 115.19255828857422 361.1086730957031 105.78002166748047 342.2160339355469 117.33692932128906 C 350.9822692871094 107.13130187988281 371.4842529296875 109.62468719482422 373.6250305175781 111.96190643310547 C 368.7690124511719 110.4558334350586 373.01605224609375 110.8798599243164 379.2188720703125 115.5511703491211" stroke-width="0.0" fill="rgb(102, 101, 101)" opacity="0.91467965" stroke="rgb(113, 250, 76)" stroke-opacity="0.820842" stroke-linecap="round" stroke-linejoin="round"/>
    <path d="M 283.08013916015625 232.05787658691406 C 344.42462158203125 245.09896850585938 340.11651611328125 307.5489807128906 279.2281799316406 293.21875 C 248.5690460205078 264.5209045410156 221.9496307373047 260.377197265625 251.7332000732422 239.06834411621094 C 260.16558837890625 267.53912353515625 252.01763916015625 273.4176330566406 262.27423095703125 264.3909606933594 C 272.298583984375 265.525634765625 253.7593994140625 248.62342834472656 283.08013916015625 232.05787658691406" stroke-width="0.0" fill="rgb(182, 197, 195)" opacity="0.6678509" stroke="rgb(132, 190, 77)" stroke-opacity="0.75132936" stroke-linecap="round" stroke-linejoin="round"/>
    <path d="M 253.01846313476562 263.9988708496094 C 279.93145751953125 281.67510986328125 259.312255859375 196.3289794921875 257.35858154296875 223.7172393798828 C 260.0401306152344 215.1523895263672 257.5028076171875 216.58425903320312 253.7012176513672 248.36131286621094 C 261.2833251953125 185.00970458984375 268.20953369140625 215.216064453125 254.26004028320312 166.91188049316406 C 239.08505249023438 176.86546325683594 264.9733581542969 193.4695587158203 253.01846313476562 263.9988708496094" stroke-width="0.0" fill="rgb(40, 52, 29)" opacity="0.9397136" stroke="rgb(100, 250, 78)" stroke-opacity="0.99327743" stroke-linecap="round" stroke-linejoin="round"/>
    <path d="M 443.8077392578125 160.45066833496094 C 462.4564208984375 159.326904296875 450.87603759765625 181.4354248046875 444.1589050292969 168.81820678710938 C 448.11907958984375 144.76397705078125 443.3563537597656 160.58462524414062 441.4208679199219 147.34524536132812 C 448.2215576171875 129.22779846191406 447.0172424316406 133.4402313232422 458.19281005859375 141.54302978515625 C 456.126708984375 136.5679931640625 457.29693603515625 144.0421905517578 443.8077392578125 160.45066833496094" stroke-width="0.0" fill="rgb(171, 171, 171)" opacity="1.0" stroke="rgb(167, 80, 190)" stroke-opacity="0.97048825" stroke-linecap="round" stroke-linejoin="round"/>
    <path d="M 245.55967712402344 85.53247833251953 C 233.03233337402344 126.92298889160156 255.3555908203125 138.519287109375 237.33270263671875 121.96018981933594 C 234.490966796875 106.05866241455078 237.80056762695312 99.92402648925781 236.346435546875 101.89543914794922 C 241.19863891601562 115.67317962646484 240.64138793945312 113.9649887084961 236.78857421875 102.93357849121094 C 238.22628784179688 73.04156494140625 276.41998291015625 53.6505012512207 245.55967712402344 85.53247833251953" stroke-width="0.0" fill="rgb(41, 54, 31)" opacity="0.98621243" stroke="rgb(164, 149, 152)" stroke-opacity="0.47961885" stroke-linecap="round" stroke-linejoin="round"/>
    <path d="M 119.68914794921875 258.0718994140625 C 106.839599609375 270.4798583984375 163.6566162109375 297.85675048828125 77.24869537353516 288.0978698730469 C 15.692140579223633 287.98468017578125 29.169294357299805 190.61160278320312 69.93350982666016 273.5778503417969 C 108.076171875 240.5939483642578 115.28373718261719 249.6977996826172 124.55884552001953 239.62220764160156 C 130.88385009765625 225.84494018554688 119.77377319335938 228.851806640625 119.68914794921875 258.0718994140625" stroke-width="0.0" fill="rgb(148, 53, 0)" opacity="0.29681683" stroke="rgb(62, 154, 197)" stroke-opacity="0.7362807" stroke-linecap="round" stroke-linejoin="round"/>
  </g>
</svg>
