<?xml version="1.0" ?>
<svg xmlns="http://www.w3.org/2000/svg" version="1.1" width="512" height="352">
  <defs/>
  <g>
    <path d="M 146.9468536376953 233.9270782470703 C 147.29446411132812 249.78155517578125 149.3226776123047 252.45066833496094 99.65980529785156 251.35231018066406 C 72.53271484375 241.5743408203125 74.1839599609375 241.11904907226562 57.53245544433594 234.0647430419922 C 50.601348876953125 189.36431884765625 54.386104583740234 186.4744415283203 101.87777709960938 175.1013641357422 C 141.3481903076172 153.97900390625 149.97935485839844 170.2674102783203 146.9468536376953 233.9270782470703" stroke-width="0.0" fill="rgb(214, 181, 147)" opacity="0.8548284" stroke="rgb(240, 19, 91)" stroke-opacity="0.9183631" stroke-linecap="round" stroke-linejoin="round"/>
    <path d="M 229.5045623779297 210.45631408691406 C 217.5821075439453 224.47225952148438 212.20687866210938 237.91847229003906 193.10379028320312 261.18719482421875 C 189.41213989257812 232.31419372558594 181.8872528076172 238.45054626464844 176.09469604492188 197.4815216064453 C 172.90419006347656 182.80613708496094 184.94647216796875 198.3182830810547 183.83412170410156 165.6901397705078 C 276.5199890136719 180.2496795654297 244.55911254882812 156.29676818847656 229.5045623779297 210.45631408691406" stroke-width="0.0" fill="rgb(61, 88, 63)" opacity="0.801389" stroke="rgb(47, 123, 20)" stroke-opacity="0.8642723" stroke-linecap="round" stroke-linejoin="round"/>
    <path d="M 256.41387939453125 283.8197021484375 C 256.70281982421875 135.68846130371094 249.02061462402344 181.9192657470703 207.95303344726562 218.72677612304688 C 196.37953186035156 225.05177307128906 213.8938751220703 169.0614013671875 166.33767700195312 174.51174926757812 C 180.51953125 167.28076171875 170.93661499023438 155.38771057128906 209.12960815429688 133.95668029785156 C 232.60800170898438 141.95155334472656 296.74530029296875 186.40274047851562 256.41387939453125 283.8197021484375" stroke-width="0.0" fill="rgb(82, 101, 83)" opacity="0.9199724" stroke="rgb(243, 175, 213)" stroke-opacity="0.34748945" stroke-linecap="round" stroke-linejoin="round"/>
  </g>
</svg>
