<?xml version="1.0" ?>
<svg xmlns="http://www.w3.org/2000/svg" version="1.1" width="384" height="512">
  <defs/>
  <g>
    <path d="M 125.39790344238281 134.9535675048828 C 173.12840270996094 155.77792358398438 159.7853546142578 167.7632598876953 128.10861206054688 162.8723602294922 C 130.1885528564453 174.0102081298828 131.67074584960938 160.37290954589844 99.95515441894531 117.87981414794922 C 109.0727767944336 110.5481948852539 116.93672180175781 113.07161712646484 123.24546813964844 123.21405792236328 C 149.61410522460938 93.55668640136719 212.0599365234375 148.82949829101562 125.39790344238281 134.9535675048828" stroke-width="0.0" fill="rgb(38, 73, 111)" opacity="0.5423804" stroke="rgb(71, 146, 93)" stroke-opacity="0.5771828" stroke-linecap="round" stroke-linejoin="round"/>
    <path d="M 77.0 343.0 C 76.33012390136719 345.5 74.5 347.33013916015625 72.0 348.0 C 69.5 347.33013916015625 67.66987609863281 345.5 67.0 343.0 C 67.66987609863281 340.5 69.5 338.66986083984375 72.0 338.0 C 74.5 338.66986083984375 76.33012390136719 340.5 77.0 343.0" stroke-width="0.0" fill="rgb(243, 223, 173)" opacity="1.0" stroke="rgb(63, 195, 97)" stroke-opacity="0.42143154" stroke-linecap="round" stroke-linejoin="round"/>
    <path d="M 137.0 143.0 C 136.3301239013672 145.5 134.5 147.3301239013672 132.0 148.0 C 129.5 147.3301239013672 127.66987609863281 145.5 127.0 143.0 C 127.66987609863281 140.5 129.5 138.6698760986328 132.0 138.0 C 134.5 138.6698760986328 136.3301239013672 140.5 137.0 143.0" stroke-width="0.0" fill="rgb(175, 174, 174)" opacity="1.0" stroke="rgb(201, 150, 183)" stroke-opacity="0.45119232" stroke-linecap="round" stroke-linejoin="round"/>
  </g>
</svg>
