<?xml version="1.0" ?>
<svg xmlns="http://www.w3.org/2000/svg" version="1.1" width="384" height="512">
  <defs/>
  <g>
    <path d="M 142.55792236328125 134.25091552734375 C 162.36141967773438 156.3893585205078 160.19857788085938 176.08004760742188 118.85240173339844 153.9493408203125 C 119.90570068359375 193.79600524902344 120.23896789550781 125.88591003417969 101.17478942871094 122.3819808959961 C 102.93449401855469 108.40693664550781 114.75098419189453 114.705078125 123.06416320800781 123.86406707763672 C 147.3690185546875 95.14142608642578 202.28529357910156 146.69976806640625 142.55792236328125 134.25091552734375" stroke-width="0.0" fill="rgb(5, 49, 92)" opacity="0.6491051" stroke="rgb(71, 146, 93)" stroke-opacity="0.5771828" stroke-linecap="round" stroke-linejoin="round"/>
    <path d="M 84.42028045654297 332.7628173828125 C 90.52996826171875 347.7903747558594 77.25666046142578 405.7101745605469 65.46112060546875 400.1717224121094 C 62.61204528808594 358.230712890625 63.137691497802734 342.0326843261719 65.330810546875 250.8615264892578 C 64.9752197265625 240.3276824951172 78.6025390625 235.53294372558594 77.36033630371094 292.912109375 C 77.965087890625 346.9482727050781 75.0287857055664 330.1871337890625 84.42028045654297 332.7628173828125" stroke-width="0.0" fill="rgb(248, 227, 175)" opacity="0.81001025" stroke="rgb(63, 195, 97)" stroke-opacity="0.42143154" stroke-linecap="round" stroke-linejoin="round"/>
    <path d="M 150.9200439453125 148.31637573242188 C 142.37954711914062 141.8921356201172 150.33743286132812 163.50399780273438 144.7423858642578 163.85385131835938 C 109.68817138671875 156.44210815429688 119.10493469238281 171.79705810546875 117.9317626953125 155.45628356933594 C 122.21717834472656 128.74026489257812 111.19671630859375 138.4281005859375 127.98065948486328 135.53329467773438 C 158.5513916015625 136.99359130859375 147.0076141357422 130.51028442382812 150.9200439453125 148.31637573242188" stroke-width="0.0" fill="rgb(169, 167, 169)" opacity="1.0" stroke="rgb(201, 150, 183)" stroke-opacity="0.45119232" stroke-linecap="round" stroke-linejoin="round"/>
    <path d="M 393.2507629394531 138.73681640625 C 393.83599853515625 157.31837463378906 392.82537841796875 146.48455810546875 368.72509765625 145.4440155029297 C 356.74884033203125 140.38800048828125 340.8452453613281 141.62632751464844 268.32958984375 118.53013610839844 C 300.1302490234375 86.82384490966797 312.8700866699219 83.27787780761719 329.9738464355469 80.24195861816406 C 405.3538513183594 106.46761322021484 397.0539855957031 114.68094635009766 393.2507629394531 138.73681640625" stroke-width="0.0" fill="rgb(255, 178, 91)" opacity="0.71363205" stroke="rgb(142, 16, 166)" stroke-opacity="0.4215746" stroke-linecap="round" stroke-linejoin="round"/>
    <path d="M 383.989990234375 411.34637451171875 C 344.3664855957031 430.68768310546875 351.69549560546875 412.52496337890625 270.56170654296875 345.96160888671875 C 260.1845703125 173.70965576171875 319.59857177734375 263.4288330078125 294.5922546386719 215.8619384765625 C 292.74395751953125 209.946044921875 294.2479248046875 190.67137145996094 310.7368469238281 226.7687225341797 C 401.2792663574219 231.3408966064453 400.9912414550781 176.22682189941406 383.989990234375 411.34637451171875" stroke-width="0.0" fill="rgb(95, 64, 0)" opacity="0.62275857" stroke="rgb(103, 99, 143)" stroke-opacity="0.5971091" stroke-linecap="round" stroke-linejoin="round"/>
    <path d="M 391.592041015625 47.70568084716797 C 398.74920654296875 135.32025146484375 362.7606201171875 139.33677673339844 265.3497009277344 122.218017578125 C 177.83905029296875 153.33901977539062 246.84585571289062 118.818603515625 189.00718688964844 74.39202880859375 C 189.4552459716797 14.385786056518555 215.9229278564453 20.289640426635742 315.63494873046875 5.586640357971191 C 338.833251953125 -4.390036582946777 329.0091552734375 -0.6066004633903503 391.592041015625 47.70568084716797" stroke-width="0.0" fill="rgb(255, 222, 182)" opacity="0.3663372" stroke="rgb(10, 111, 55)" stroke-opacity="0.30950674" stroke-linecap="round" stroke-linejoin="round"/>
    <path d="M 399.79107666015625 470.6542053222656 C 355.5412292480469 614.4937744140625 294.0087890625 529.1302490234375 254.18603515625 520.7163696289062 C 206.8192138671875 529.0455322265625 176.04202270507812 562.877197265625 154.44024658203125 511.64190673828125 C 228.22149658203125 392.37139892578125 217.810546875 482.9225769042969 162.8759002685547 327.7820739746094 C 347.77618408203125 360.7955017089844 316.00250244140625 485.3341979980469 399.79107666015625 470.6542053222656" stroke-width="0.0" fill="rgb(29, 60, 112)" opacity="0.37719664" stroke="rgb(201, 245, 232)" stroke-opacity="0.9338618" stroke-linecap="round" stroke-linejoin="round"/>
    <path d="M 346.6705322265625 213.16566467285156 C 364.0531921386719 241.90542602539062 357.45098876953125 257.03515625 323.64862060546875 255.6406707763672 C 320.3988342285156 250.24522399902344 317.04156494140625 240.83670043945312 306.0377197265625 221.36427307128906 C 301.0374450683594 237.56744384765625 296.0623474121094 164.99432373046875 305.1998291015625 189.171630859375 C 382.8783264160156 193.34564208984375 369.4413757324219 192.57958984375 346.6705322265625 213.16566467285156" stroke-width="0.0" fill="rgb(75, 110, 171)" opacity="0.7580376" stroke="rgb(205, 178, 231)" stroke-opacity="0.057520628" stroke-linecap="round" stroke-linejoin="round"/>
    <path d="M 204.7283935546875 136.47781372070312 C 202.7810516357422 187.9595947265625 209.42909240722656 192.59974670410156 200.3022003173828 190.70504760742188 C 200.51161193847656 175.7803955078125 199.68017578125 147.10983276367188 200.77490234375 146.94473266601562 C 203.11558532714844 146.1012420654297 181.29144287109375 147.5955810546875 206.523193359375 147.6420135498047 C 205.2806854248047 174.21990966796875 205.8227996826172 125.17510223388672 204.7283935546875 136.47781372070312" stroke-width="0.0" fill="rgb(252, 235, 180)" opacity="0.888763" stroke="rgb(66, 150, 39)" stroke-opacity="0.47470483" stroke-linecap="round" stroke-linejoin="round"/>
    <path d="M 87.31058502197266 20.532045364379883 C 38.654239654541016 118.6719741821289 49.73064422607422 113.69743347167969 21.450199127197266 16.974201202392578 C -3.551800012588501 9.633538246154785 21.30397605895996 7.812413215637207 -2.6142032146453857 3.9304141998291016 C -4.804506301879883 -10.535782814025879 1.1239465475082397 -9.75493049621582 17.707847595214844 -13.001884460449219 C 47.591827392578125 -20.562360763549805 56.173851013183594 -32.28548049926758 87.31058502197266 20.532045364379883" stroke-width="0.0" fill="rgb(37, 106, 167)" opacity="0.37774014" stroke="rgb(236, 141, 50)" stroke-opacity="0.7282711" stroke-linecap="round" stroke-linejoin="round"/>
    <path d="M 395.3275451660156 277.018798828125 C 388.6691589355469 300.6806640625 371.6900329589844 294.0057067871094 340.89361572265625 331.05413818359375 C 338.1446838378906 251.8724822998047 346.2664489746094 276.3951416015625 358.0752258300781 273.5386962890625 C 309.29083251953125 255.9558563232422 317.114501953125 260.11767578125 383.5204162597656 244.81410217285156 C 396.9249572753906 245.2255401611328 396.2739562988281 251.21327209472656 395.3275451660156 277.018798828125" stroke-width="0.0" fill="rgb(45, 38, 70)" opacity="0.620798" stroke="rgb(91, 159, 12)" stroke-opacity="0.8467285" stroke-linecap="round" stroke-linejoin="round"/>
    <path d="M 383.0147399902344 220.3763427734375 C 380.03533935546875 261.96148681640625 382.1384582519531 266.4297790527344 365.0472717285156 281.01544189453125 C 328.0124206542969 257.20751953125 318.85589599609375 244.8739776611328 302.7157897949219 212.5836944580078 C 317.6611022949219 212.30078125 324.3902893066406 205.82244873046875 327.5360412597656 205.20726013183594 C 351.5018615722656 221.61886596679688 365.72314453125 210.97528076171875 383.0147399902344 220.3763427734375" stroke-width="0.0" fill="rgb(71, 110, 170)" opacity="0.57394487" stroke="rgb(226, 1, 69)" stroke-opacity="0.34889534" stroke-linecap="round" stroke-linejoin="round"/>
    <path d="M 303.746337890625 171.23130798339844 C 289.57012939453125 227.9381561279297 323.7655029296875 231.5706329345703 308.3453369140625 224.7597198486328 C 321.7733154296875 219.37075805664062 290.2120361328125 229.35714721679688 303.3525390625 212.73309326171875 C 211.57484436035156 138.22964477539062 220.4944305419922 196.000732421875 221.84957885742188 134.00083923339844 C 430.0801696777344 164.34857177734375 432.8995361328125 170.7182159423828 303.746337890625 171.23130798339844" stroke-width="0.0" fill="rgb(63, 66, 144)" opacity="0.35285082" stroke="rgb(232, 126, 45)" stroke-opacity="0.6007244" stroke-linecap="round" stroke-linejoin="round"/>
    <path d="M 404.47119140625 191.23133850097656 C 388.0293273925781 227.98165893554688 390.061767578125 231.0304718017578 382.7106628417969 245.70387268066406 C 372.5888977050781 220.17660522460938 364.9712219238281 222.08966064453125 356.0849304199219 198.41571044921875 C 287.62530517578125 225.8317413330078 270.0483703613281 150.7817840576172 326.2041015625 176.9828338623047 C 427.7497863769531 177.3687286376953 414.1665344238281 174.59071350097656 404.47119140625 191.23133850097656" stroke-width="0.0" fill="rgb(146, 148, 196)" opacity="0.51652837" stroke="rgb(89, 146, 170)" stroke-opacity="0.45369476" stroke-linecap="round" stroke-linejoin="round"/>
    <path d="M 393.7594299316406 241.4256591796875 C 396.19140625 254.674560546875 399.83184814453125 262.2062683105469 379.7281188964844 263.7646789550781 C 345.14306640625 252.8356475830078 343.37103271484375 250.19110107421875 348.5171203613281 236.35964965820312 C 358.21343994140625 205.49749755859375 363.8076477050781 207.03567504882812 356.135498046875 200.82130432128906 C 387.44952392578125 193.11663818359375 385.2428283691406 210.64878845214844 393.7594299316406 241.4256591796875" stroke-width="0.0" fill="rgb(76, 110, 165)" opacity="0.83520496" stroke="rgb(175, 122, 134)" stroke-opacity="0.5951132" stroke-linecap="round" stroke-linejoin="round"/>
    <path d="M 98.9737548828125 198.9254150390625 C 98.96981811523438 194.18655395507812 100.46134185791016 191.87371826171875 95.2412338256836 201.69073486328125 C 69.40803527832031 202.19158935546875 63.704437255859375 201.56874084472656 50.20030212402344 201.517578125 C 48.03650665283203 202.45339965820312 45.47716522216797 173.67762756347656 78.43750762939453 167.7142791748047 C 85.60953521728516 190.08787536621094 87.4361343383789 166.06558227539062 98.9737548828125 198.9254150390625" stroke-width="0.0" fill="rgb(0, 68, 161)" opacity="0.654888" stroke="rgb(138, 236, 192)" stroke-opacity="0.5156503" stroke-linecap="round" stroke-linejoin="round"/>
    <path d="M 386.71807861328125 326.90875244140625 C 385.8341064453125 301.70367431640625 358.90069580078125 302.1529541015625 376.410888671875 330.34820556640625 C 352.8978271484375 299.31011962890625 370.4068908691406 342.2216796875 348.084228515625 306.4035949707031 C 390.38116455078125 290.6896667480469 382.8343505859375 300.2935485839844 372.6696472167969 283.18768310546875 C 378.2035217285156 292.73236083984375 383.52044677734375 290.9906005859375 386.71807861328125 326.90875244140625" stroke-width="0.0" fill="rgb(0, 45, 111)" opacity="0.8146156" stroke="rgb(220, 51, 188)" stroke-opacity="0.2128271" stroke-linecap="round" stroke-linejoin="round"/>
    <path d="M 401.73004150390625 322.6492004394531 C 372.22271728515625 297.5314025878906 384.8208923339844 311.9533386230469 357.0314636230469 328.6680908203125 C 372.0728454589844 269.40521240234375 358.84735107421875 315.5383605957031 356.8092346191406 279.03363037109375 C 350.99151611328125 272.2640686035156 358.01513671875 275.2846374511719 363.3699645996094 268.28741455078125 C 371.96685791015625 275.3236083984375 372.51898193359375 276.65924072265625 401.73004150390625 322.6492004394531" stroke-width="0.0" fill="rgb(83, 216, 243)" opacity="0.21859075" stroke="rgb(250, 95, 171)" stroke-opacity="0.28296232" stroke-linecap="round" stroke-linejoin="round"/>
    <path d="M 387.08099365234375 -7.9714226722717285 C 402.8314514160156 76.43278503417969 391.64080810546875 63.33264923095703 350.993896484375 40.552391052246094 C 303.2989196777344 3.680276393890381 299.0491638183594 17.04705810546875 293.7073974609375 17.08688735961914 C 299.45379638671875 -7.185386657714844 302.49981689453125 -7.8099212646484375 310.2015075683594 -12.086228370666504 C 325.5340881347656 -7.343939781188965 335.2917175292969 -19.38715362548828 387.08099365234375 -7.9714226722717285" stroke-width="0.0" fill="rgb(151, 161, 182)" opacity="1.0" stroke="rgb(68, 130, 38)" stroke-opacity="0.5984814" stroke-linecap="round" stroke-linejoin="round"/>
    <path d="M 228.29119873046875 226.47116088867188 C 223.95082092285156 209.53126525878906 226.03321838378906 255.19070434570312 220.00059509277344 208.57688903808594 C 223.84877014160156 261.9463195800781 210.18569946289062 242.69740295410156 216.02117919921875 218.17298889160156 C 202.3187255859375 214.1006622314453 217.40016174316406 203.33831787109375 219.12486267089844 175.0589599609375 C 227.98504638671875 203.76914978027344 228.6735076904297 198.53294372558594 228.29119873046875 226.47116088867188" stroke-width="0.0" fill="rgb(255, 241, 189)" opacity="0.7258136" stroke="rgb(182, 14, 202)" stroke-opacity="0.79021806" stroke-linecap="round" stroke-linejoin="round"/>
    <path d="M 53.52284622192383 63.98194885253906 C 58.68894577026367 74.90653228759766 69.36360931396484 59.29269790649414 71.85147094726562 68.6890640258789 C 45.21653366088867 73.91690063476562 27.912534713745117 56.48488235473633 28.90577507019043 60.02214050292969 C 25.309391021728516 11.819684028625488 28.832685470581055 47.414859771728516 52.08150100708008 51.672035217285156 C 49.659393310546875 73.61797332763672 66.6949462890625 68.69762420654297 53.52284622192383 63.98194885253906" stroke-width="0.0" fill="rgb(81, 69, 3)" opacity="0.84355956" stroke="rgb(83, 187, 230)" stroke-opacity="0.42011294" stroke-linecap="round" stroke-linejoin="round"/>
    <path d="M 53.94501495361328 182.78500366210938 C 39.85873794555664 202.0155792236328 59.213722229003906 202.50608825683594 41.946773529052734 199.94378662109375 C 50.436588287353516 255.35000610351562 6.330200672149658 283.716796875 21.753507614135742 218.3695526123047 C 23.149246215820312 167.2926483154297 63.72148513793945 198.18080139160156 82.65272521972656 163.40150451660156 C 79.06405639648438 174.67762756347656 62.983428955078125 181.51535034179688 53.94501495361328 182.78500366210938" stroke-width="0.0" fill="rgb(60, 65, 74)" opacity="0.6462908" stroke="rgb(161, 51, 98)" stroke-opacity="0.9689124" stroke-linecap="round" stroke-linejoin="round"/>
    <path d="M 163.31150817871094 226.61605834960938 C 110.36997985839844 221.0323486328125 180.25228881835938 240.70269775390625 141.0347137451172 242.25306701660156 C 131.79312133789062 212.7815704345703 124.18584442138672 260.16326904296875 125.167724609375 195.36280822753906 C 126.97269439697266 203.06732177734375 111.2695083618164 198.1759033203125 119.3529281616211 189.6149139404297 C 172.2191619873047 214.05606079101562 139.60043334960938 188.95440673828125 163.31150817871094 226.61605834960938" stroke-width="0.0" fill="rgb(99, 85, 0)" opacity="0.7054981" stroke="rgb(39, 114, 58)" stroke-opacity="0.3492402" stroke-linecap="round" stroke-linejoin="round"/>
    <path d="M 394.0546569824219 269.5898132324219 C 393.1372985839844 289.7059020996094 390.83074951171875 290.615478515625 384.91436767578125 289.87261962890625 C 364.09307861328125 286.1703796386719 364.91876220703125 279.9634094238281 355.72760009765625 271.1473693847656 C 324.1828308105469 254.35833740234375 333.1553649902344 247.5660400390625 380.8936767578125 248.6566619873047 C 393.0633239746094 251.0128173828125 393.92901611328125 254.6483612060547 394.0546569824219 269.5898132324219" stroke-width="0.0" fill="rgb(64, 103, 157)" opacity="1.0" stroke="rgb(71, 233, 17)" stroke-opacity="0.042658582" stroke-linecap="round" stroke-linejoin="round"/>
    <path d="M 328.8974914550781 43.265438079833984 C 240.93959045410156 45.17296600341797 318.4114685058594 51.43315887451172 286.9684753417969 92.70021057128906 C 237.15159606933594 -29.15673065185547 202.18238830566406 38.24862289428711 94.3822250366211 28.560543060302734 C 175.99485778808594 -107.27823638916016 251.51455688476562 -23.94465446472168 266.1939697265625 6.9765143394470215 C 282.21319580078125 22.80101776123047 293.339111328125 -5.820197582244873 328.8974914550781 43.265438079833984" stroke-width="0.0" fill="rgb(92, 157, 255)" opacity="0.27550617" stroke="rgb(82, 128, 124)" stroke-opacity="0.67871743" stroke-linecap="round" stroke-linejoin="round"/>
    <path d="M 294.96868896484375 8.966010093688965 C 288.8164978027344 19.471515655517578 286.8106689453125 20.7193603515625 274.3924255371094 22.634349822998047 C 274.67803955078125 -2.1247947216033936 237.76841735839844 33.15677261352539 229.35354614257812 3.025556802749634 C 256.0050354003906 -6.779806613922119 263.0051574707031 -7.040761470794678 274.496826171875 -8.042099952697754 C 292.8457336425781 -1.876057744026184 292.15814208984375 0.8563593626022339 294.96868896484375 8.966010093688965" stroke-width="0.0" fill="rgb(125, 159, 207)" opacity="0.6612996" stroke="rgb(170, 18, 239)" stroke-opacity="0.9504423" stroke-linecap="round" stroke-linejoin="round"/>
    <path d="M 396.81048583984375 313.74774169921875 C 393.7924499511719 322.95758056640625 383.0218811035156 304.282958984375 376.7201843261719 320.2886657714844 C 375.9505920410156 291.80450439453125 382.5428161621094 327.3966979980469 357.9256896972656 285.47265625 C 352.86083984375 268.2469177246094 354.8778381347656 274.8711853027344 363.7348327636719 275.5630187988281 C 387.2528076171875 283.97625732421875 389.36712646484375 285.5993957519531 396.81048583984375 313.74774169921875" stroke-width="0.0" fill="rgb(0, 80, 154)" opacity="0.71809644" stroke="rgb(60, 95, 218)" stroke-opacity="0.5753762" stroke-linecap="round" stroke-linejoin="round"/>
    <path d="M 303.3186950683594 20.516578674316406 C 327.2926330566406 16.601375579833984 331.6007080078125 22.387165069580078 333.2255554199219 39.83913803100586 C 276.9909362792969 18.300188064575195 283.97039794921875 22.080595016479492 275.5412292480469 -1.5910563468933105 C 273.6160888671875 -1.7539222240447998 271.61572265625 -3.4837605953216553 281.14447021484375 -8.10839557647705 C 299.63433837890625 -3.1724538803100586 304.65740966796875 -8.005884170532227 303.3186950683594 20.516578674316406" stroke-width="0.0" fill="rgb(139, 171, 215)" opacity="0.41285226" stroke="rgb(134, 104, 79)" stroke-opacity="0.639188" stroke-linecap="round" stroke-linejoin="round"/>
    <path d="M 392.3873596191406 282.29486083984375 C 390.89019775390625 298.5357666015625 389.8354797363281 300.891357421875 384.8343200683594 303.9546813964844 C 379.92718505859375 294.139892578125 374.9820556640625 295.6064758300781 365.7210693359375 278.5029296875 C 365.3807678222656 275.9785461425781 366.8085632324219 273.783447265625 371.4668273925781 272.329833984375 C 398.3788146972656 271.98590087890625 398.4318542480469 273.9603271484375 392.3873596191406 282.29486083984375" stroke-width="0.0" fill="rgb(18, 90, 158)" opacity="0.99410385" stroke="rgb(54, 121, 150)" stroke-opacity="0.40968692" stroke-linecap="round" stroke-linejoin="round"/>
    <path d="M 383.09759521484375 291.1615295410156 C 381.7460632324219 295.94134521484375 379.92218017578125 297.783447265625 378.4592590332031 298.23651123046875 C 383.2433776855469 264.66876220703125 356.7674560546875 297.4336242675781 354.8467712402344 268.1006774902344 C 362.1737365722656 274.2863464355469 322.9881286621094 263.8732604980469 350.6235656738281 264.0417785644531 C 377.810302734375 268.7531433105469 380.81256103515625 268.7370910644531 383.09759521484375 291.1615295410156" stroke-width="0.0" fill="rgb(42, 93, 152)" opacity="0.83502156" stroke="rgb(216, 147, 240)" stroke-opacity="0.10783585" stroke-linecap="round" stroke-linejoin="round"/>
    <path d="M 393.16729736328125 90.76627349853516 C 332.5258483886719 95.49220275878906 309.0072326660156 38.39131164550781 313.10589599609375 14.883635520935059 C 285.2011413574219 17.34668731689453 293.25244140625 32.431522369384766 284.12799072265625 30.875221252441406 C 283.9842834472656 -5.341124057769775 287.8838195800781 -5.514435768127441 298.1629943847656 -7.181714057922363 C 313.0590515136719 8.144525527954102 370.51641845703125 -18.03396224975586 393.16729736328125 90.76627349853516" stroke-width="0.0" fill="rgb(99, 152, 249)" opacity="0.18790473" stroke="rgb(140, 253, 38)" stroke-opacity="0.68943435" stroke-linecap="round" stroke-linejoin="round"/>
    <path d="M 25.0 427.0 C 24.330127716064453 429.5 22.5 431.33013916015625 20.0 432.0 C 17.5 431.33013916015625 15.669873237609863 429.5 15.0 427.0 C 15.669873237609863 424.5 17.5 422.66986083984375 20.0 422.0 C 22.5 422.66986083984375 24.330127716064453 424.5 25.0 427.0" stroke-width="0.0" fill="rgb(95, 80, 71)" opacity="1.0" stroke="rgb(170, 15, 156)" stroke-opacity="0.6425721" stroke-linecap="round" stroke-linejoin="round"/>
    <path d="M 332.0 314.0 C 331.33013916015625 316.5 329.5 318.33013916015625 327.0 319.0 C 324.5 318.33013916015625 322.66986083984375 316.5 322.0 314.0 C 322.66986083984375 311.5 324.5 309.66986083984375 327.0 309.0 C 329.5 309.66986083984375 331.33013916015625 311.5 332.0 314.0" stroke-width="0.0" fill="rgb(54, 55, 82)" opacity="1.0" stroke="rgb(166, 234, 232)" stroke-opacity="0.70708424" stroke-linecap="round" stroke-linejoin="round"/>
    <path d="M 30.0 162.0 C 29.330127716064453 164.5 27.5 166.3301239013672 25.0 167.0 C 22.5 166.3301239013672 20.669872283935547 164.5 20.0 162.0 C 20.669872283935547 159.5 22.5 157.6698760986328 25.0 157.0 C 27.5 157.6698760986328 29.330127716064453 159.5 30.0 162.0" stroke-width="0.0" fill="rgb(239, 214, 169)" opacity="1.0" stroke="rgb(88, 107, 160)" stroke-opacity="0.48421228" stroke-linecap="round" stroke-linejoin="round"/>
    <path d="M 291.0 212.0 C 290.33013916015625 214.5 288.5 216.3301239013672 286.0 217.0 C 283.5 216.3301239013672 281.66986083984375 214.5 281.0 212.0 C 281.66986083984375 209.5 283.5 207.6698760986328 286.0 207.0 C 288.5 207.6698760986328 290.33013916015625 209.5 291.0 212.0" stroke-width="0.0" fill="rgb(246, 225, 153)" opacity="1.0" stroke="rgb(222, 73, 175)" stroke-opacity="0.20948713" stroke-linecap="round" stroke-linejoin="round"/>
    <path d="M 61.0 171.0 C 60.33012771606445 173.5 58.5 175.3301239013672 56.0 176.0 C 53.5 175.3301239013672 51.66987228393555 173.5 51.0 171.0 C 51.66987228393555 168.5 53.5 166.6698760986328 56.0 166.0 C 58.5 166.6698760986328 60.33012771606445 168.5 61.0 171.0" stroke-width="0.0" fill="rgb(249, 228, 177)" opacity="1.0" stroke="rgb(71, 246, 81)" stroke-opacity="0.26193237" stroke-linecap="round" stroke-linejoin="round"/>
    <path d="M 146.0 255.0 C 145.3301239013672 257.5 143.5 259.33013916015625 141.0 260.0 C 138.5 259.33013916015625 136.6698760986328 257.5 136.0 255.0 C 136.6698760986328 252.5 138.5 250.6698760986328 141.0 250.0 C 143.5 250.6698760986328 145.3301239013672 252.5 146.0 255.0" stroke-width="0.0" fill="rgb(255, 238, 188)" opacity="1.0" stroke="rgb(0, 210, 186)" stroke-opacity="0.8582172" stroke-linecap="round" stroke-linejoin="round"/>
    <path d="M 19.0 77.0 C 18.330127716064453 79.5 16.5 81.33012390136719 14.0 82.0 C 11.5 81.33012390136719 9.669873237609863 79.5 9.0 77.0 C 9.669873237609863 74.5 11.5 72.66987609863281 14.0 72.0 C 16.5 72.66987609863281 18.330127716064453 74.5 19.0 77.0" stroke-width="0.0" fill="rgb(240, 204, 151)" opacity="1.0" stroke="rgb(210, 7, 0)" stroke-opacity="0.33129582" stroke-linecap="round" stroke-linejoin="round"/>
    <path d="M 11.0 133.0 C 10.330126762390137 135.5 8.5 137.3301239013672 6.0 138.0 C 3.5 137.3301239013672 1.6698729991912842 135.5 1.0 133.0 C 1.6698729991912842 130.5 3.5 128.6698760986328 6.0 128.0 C 8.5 128.6698760986328 10.330126762390137 130.5 11.0 133.0" stroke-width="0.0" fill="rgb(235, 210, 173)" opacity="1.0" stroke="rgb(103, 22, 213)" stroke-opacity="0.09330544" stroke-linecap="round" stroke-linejoin="round"/>
    <path d="M 15.0 379.0 C 14.330126762390137 381.5 12.5 383.33013916015625 10.0 384.0 C 7.5 383.33013916015625 5.669872760772705 381.5 5.0 379.0 C 5.669872760772705 376.5 7.5 374.66986083984375 10.0 374.0 C 12.5 374.66986083984375 14.330126762390137 376.5 15.0 379.0" stroke-width="0.0" fill="rgb(100, 120, 131)" opacity="1.0" stroke="rgb(32, 228, 185)" stroke-opacity="0.7203462" stroke-linecap="round" stroke-linejoin="round"/>
    <path d="M 58.0 397.0 C 57.33012771606445 399.5 55.5 401.33013916015625 53.0 402.0 C 50.5 401.33013916015625 48.66987228393555 399.5 48.0 397.0 C 48.66987228393555 394.5 50.5 392.66986083984375 53.0 392.0 C 55.5 392.66986083984375 57.33012771606445 394.5 58.0 397.0" stroke-width="0.0" fill="rgb(100, 111, 127)" opacity="1.0" stroke="rgb(118, 161, 150)" stroke-opacity="0.7642137" stroke-linecap="round" stroke-linejoin="round"/>
    <path d="M 37.0 229.0 C 36.33012771606445 231.5 34.5 233.3301239013672 32.0 234.0 C 29.5 233.3301239013672 27.669872283935547 231.5 27.0 229.0 C 27.669872283935547 226.5 29.5 224.6698760986328 32.0 224.0 C 34.5 224.6698760986328 36.33012771606445 226.5 37.0 229.0" stroke-width="0.0" fill="rgb(20, 59, 125)" opacity="1.0" stroke="rgb(223, 158, 155)" stroke-opacity="0.90095145" stroke-linecap="round" stroke-linejoin="round"/>
    <path d="M 326.0 501.0 C 325.33013916015625 503.5 323.5 505.33013916015625 321.0 506.0 C 318.5 505.33013916015625 316.66986083984375 503.5 316.0 501.0 C 316.66986083984375 498.5 318.5 496.66986083984375 321.0 496.0 C 323.5 496.66986083984375 325.33013916015625 498.5 326.0 501.0" stroke-width="0.0" fill="rgb(73, 73, 75)" opacity="1.0" stroke="rgb(125, 238, 172)" stroke-opacity="0.14811848" stroke-linecap="round" stroke-linejoin="round"/>
    <path d="M 98.0 132.0 C 97.33012390136719 134.5 95.5 136.3301239013672 93.0 137.0 C 90.5 136.3301239013672 88.66987609863281 134.5 88.0 132.0 C 88.66987609863281 129.5 90.5 127.66987609863281 93.0 127.0 C 95.5 127.66987609863281 97.33012390136719 129.5 98.0 132.0" stroke-width="0.0" fill="rgb(187, 98, 89)" opacity="1.0" stroke="rgb(167, 111, 54)" stroke-opacity="0.22755346" stroke-linecap="round" stroke-linejoin="round"/>
    <path d="M 14.0 236.0 C 13.330126762390137 238.5 11.5 240.3301239013672 9.0 241.0 C 6.5 240.3301239013672 4.669872760772705 238.5 4.0 236.0 C 4.669872760772705 233.5 6.5 231.6698760986328 9.0 231.0 C 11.5 231.6698760986328 13.330126762390137 233.5 14.0 236.0" stroke-width="0.0" fill="rgb(247, 211, 132)" opacity="1.0" stroke="rgb(253, 183, 182)" stroke-opacity="0.60289335" stroke-linecap="round" stroke-linejoin="round"/>
    <path d="M 109.0 99.0 C 108.33012390136719 101.5 106.5 103.33012390136719 104.0 104.0 C 101.5 103.33012390136719 99.66987609863281 101.5 99.0 99.0 C 99.66987609863281 96.5 101.5 94.66987609863281 104.0 94.0 C 106.5 94.66987609863281 108.33012390136719 96.5 109.0 99.0" stroke-width="0.0" fill="rgb(249, 215, 158)" opacity="1.0" stroke="rgb(51, 164, 233)" stroke-opacity="0.46935672" stroke-linecap="round" stroke-linejoin="round"/>
    <path d="M 103.0 432.0 C 102.33012390136719 434.5 100.5 436.33013916015625 98.0 437.0 C 95.5 436.33013916015625 93.66987609863281 434.5 93.0 432.0 C 93.66987609863281 429.5 95.5 427.66986083984375 98.0 427.0 C 100.5 427.66986083984375 102.33012390136719 429.5 103.0 432.0" stroke-width="0.0" fill="rgb(243, 227, 175)" opacity="1.0" stroke="rgb(72, 108, 13)" stroke-opacity="0.623157" stroke-linecap="round" stroke-linejoin="round"/>
    <path d="M 45.0 140.0 C 44.33012771606445 142.5 42.5 144.3301239013672 40.0 145.0 C 37.5 144.3301239013672 35.66987228393555 142.5 35.0 140.0 C 35.66987228393555 137.5 37.5 135.6698760986328 40.0 135.0 C 42.5 135.6698760986328 44.33012771606445 137.5 45.0 140.0" stroke-width="0.0" fill="rgb(246, 222, 180)" opacity="1.0" stroke="rgb(67, 194, 119)" stroke-opacity="0.36193365" stroke-linecap="round" stroke-linejoin="round"/>
    <path d="M 127.0 227.0 C 126.33012390136719 229.5 124.5 231.3301239013672 122.0 232.0 C 119.5 231.3301239013672 117.66987609863281 229.5 117.0 227.0 C 117.66987609863281 224.5 119.5 222.6698760986328 122.0 222.0 C 124.5 222.6698760986328 126.33012390136719 224.5 127.0 227.0" stroke-width="0.0" fill="rgb(247, 227, 180)" opacity="1.0" stroke="rgb(177, 67, 100)" stroke-opacity="0.81950176" stroke-linecap="round" stroke-linejoin="round"/>
    <path d="M 311.0 494.0 C 310.33013916015625 496.5 308.5 498.33013916015625 306.0 499.0 C 303.5 498.33013916015625 301.66986083984375 496.5 301.0 494.0 C 301.66986083984375 491.5 303.5 489.66986083984375 306.0 489.0 C 308.5 489.66986083984375 310.33013916015625 491.5 311.0 494.0" stroke-width="0.0" fill="rgb(83, 65, 56)" opacity="1.0" stroke="rgb(187, 121, 122)" stroke-opacity="0.11273725" stroke-linecap="round" stroke-linejoin="round"/>
    <path d="M 101.0 334.0 C 100.33012390136719 336.5 98.5 338.33013916015625 96.0 339.0 C 93.5 338.33013916015625 91.66987609863281 336.5 91.0 334.0 C 91.66987609863281 331.5 93.5 329.66986083984375 96.0 329.0 C 98.5 329.66986083984375 100.33012390136719 331.5 101.0 334.0" stroke-width="0.0" fill="rgb(248, 233, 179)" opacity="1.0" stroke="rgb(210, 206, 250)" stroke-opacity="0.4063214" stroke-linecap="round" stroke-linejoin="round"/>
    <path d="M 166.0 245.0 C 165.3301239013672 247.5 163.5 249.3301239013672 161.0 250.0 C 158.5 249.3301239013672 156.6698760986328 247.5 156.0 245.0 C 156.6698760986328 242.5 158.5 240.6698760986328 161.0 240.0 C 163.5 240.6698760986328 165.3301239013672 242.5 166.0 245.0" stroke-width="0.0" fill="rgb(248, 233, 184)" opacity="1.0" stroke="rgb(237, 138, 16)" stroke-opacity="0.8681137" stroke-linecap="round" stroke-linejoin="round"/>
    <path d="M 44.0 398.0 C 43.33012771606445 400.5 41.5 402.33013916015625 39.0 403.0 C 36.5 402.33013916015625 34.66987228393555 400.5 34.0 398.0 C 34.66987228393555 395.5 36.5 393.66986083984375 39.0 393.0 C 41.5 393.66986083984375 43.33012771606445 395.5 44.0 398.0" stroke-width="0.0" fill="rgb(88, 95, 114)" opacity="1.0" stroke="rgb(104, 162, 12)" stroke-opacity="0.06342413" stroke-linecap="round" stroke-linejoin="round"/>
    <path d="M 113.0 230.0 C 112.33012390136719 232.5 110.5 234.3301239013672 108.0 235.0 C 105.5 234.3301239013672 103.66987609863281 232.5 103.0 230.0 C 103.66987609863281 227.5 105.5 225.6698760986328 108.0 225.0 C 110.5 225.6698760986328 112.33012390136719 227.5 113.0 230.0" stroke-width="0.0" fill="rgb(251, 236, 187)" opacity="1.0" stroke="rgb(130, 179, 188)" stroke-opacity="0.16989303" stroke-linecap="round" stroke-linejoin="round"/>
    <path d="M 258.0 307.0 C 257.33013916015625 309.5 255.5 311.33013916015625 253.0 312.0 C 250.5 311.33013916015625 248.6698760986328 309.5 248.0 307.0 C 248.6698760986328 304.5 250.5 302.66986083984375 253.0 302.0 C 255.5 302.66986083984375 257.33013916015625 304.5 258.0 307.0" stroke-width="0.0" fill="rgb(250, 240, 199)" opacity="1.0" stroke="rgb(51, 242, 127)" stroke-opacity="0.27949384" stroke-linecap="round" stroke-linejoin="round"/>
    <path d="M 372.0 443.0 C 371.33013916015625 445.5 369.5 447.33013916015625 367.0 448.0 C 364.5 447.33013916015625 362.66986083984375 445.5 362.0 443.0 C 362.66986083984375 440.5 364.5 438.66986083984375 367.0 438.0 C 369.5 438.66986083984375 371.33013916015625 440.5 372.0 443.0" stroke-width="0.0" fill="rgb(252, 241, 201)" opacity="1.0" stroke="rgb(3, 253, 92)" stroke-opacity="0.024945514" stroke-linecap="round" stroke-linejoin="round"/>
    <path d="M 129.0 220.0 C 128.3301239013672 222.5 126.5 224.3301239013672 124.0 225.0 C 121.5 224.3301239013672 119.66987609863281 222.5 119.0 220.0 C 119.66987609863281 217.5 121.5 215.6698760986328 124.0 215.0 C 126.5 215.6698760986328 128.3301239013672 217.5 129.0 220.0" stroke-width="0.0" fill="rgb(255, 245, 200)" opacity="1.0" stroke="rgb(216, 35, 100)" stroke-opacity="0.22976454" stroke-linecap="round" stroke-linejoin="round"/>
    <path d="M 316.0 462.0 C 315.33013916015625 464.5 313.5 466.33013916015625 311.0 467.0 C 308.5 466.33013916015625 306.66986083984375 464.5 306.0 462.0 C 306.66986083984375 459.5 308.5 457.66986083984375 311.0 457.0 C 313.5 457.66986083984375 315.33013916015625 459.5 316.0 462.0" stroke-width="0.0" fill="rgb(113, 57, 27)" opacity="1.0" stroke="rgb(190, 61, 49)" stroke-opacity="0.5467367" stroke-linecap="round" stroke-linejoin="round"/>
    <path d="M 43.0 404.0 C 42.33012771606445 406.5 40.5 408.33013916015625 38.0 409.0 C 35.5 408.33013916015625 33.66987228393555 406.5 33.0 404.0 C 33.66987228393555 401.5 35.5 399.66986083984375 38.0 399.0 C 40.5 399.66986083984375 42.33012771606445 401.5 43.0 404.0" stroke-width="0.0" fill="rgb(95, 77, 68)" opacity="1.0" stroke="rgb(153, 77, 89)" stroke-opacity="0.5689412" stroke-linecap="round" stroke-linejoin="round"/>
    <path d="M 254.0 306.0 C 253.3301239013672 308.5 251.5 310.33013916015625 249.0 311.0 C 246.5 310.33013916015625 244.6698760986328 308.5 244.0 306.0 C 244.6698760986328 303.5 246.5 301.66986083984375 249.0 301.0 C 251.5 301.66986083984375 253.3301239013672 303.5 254.0 306.0" stroke-width="0.0" fill="rgb(255, 255, 227)" opacity="1.0" stroke="rgb(141, 185, 196)" stroke-opacity="0.6759267" stroke-linecap="round" stroke-linejoin="round"/>
    <path d="M 297.0 465.0 C 296.33013916015625 467.5 294.5 469.33013916015625 292.0 470.0 C 289.5 469.33013916015625 287.66986083984375 467.5 287.0 465.0 C 287.66986083984375 462.5 289.5 460.66986083984375 292.0 460.0 C 294.5 460.66986083984375 296.33013916015625 462.5 297.0 465.0" stroke-width="0.0" fill="rgb(109, 47, 11)" opacity="1.0" stroke="rgb(72, 138, 35)" stroke-opacity="0.20152597" stroke-linecap="round" stroke-linejoin="round"/>
    <path d="M 16.0 420.0 C 15.330126762390137 422.5 13.5 424.33013916015625 11.0 425.0 C 8.5 424.33013916015625 6.669872760772705 422.5 6.0 420.0 C 6.669872760772705 417.5 8.5 415.66986083984375 11.0 415.0 C 13.5 415.66986083984375 15.330126762390137 417.5 16.0 420.0" stroke-width="0.0" fill="rgb(81, 71, 67)" opacity="1.0" stroke="rgb(92, 89, 207)" stroke-opacity="0.6125847" stroke-linecap="round" stroke-linejoin="round"/>
    <path d="M 7.0 55.0 C 6.330127239227295 57.5 4.5 59.33012771606445 2.0 60.0 C -0.5 59.33012771606445 -2.330127000808716 57.5 -3.0 55.0 C -2.330127000808716 52.5 -0.5 50.66987228393555 2.0 50.0 C 4.5 50.66987228393555 6.330127239227295 52.5 7.0 55.0" stroke-width="0.0" fill="rgb(120, 111, 10)" opacity="1.0" stroke="rgb(34, 168, 44)" stroke-opacity="0.08210622" stroke-linecap="round" stroke-linejoin="round"/>
  </g>
</svg>
