<?xml version="1.0" ?>
<svg xmlns="http://www.w3.org/2000/svg" version="1.1" width="384" height="512">
  <defs/>
  <g>
    <path d="M 136.6956329345703 133.90670776367188 C 165.49427795410156 154.95346069335938 159.7646942138672 175.32598876953125 118.6113510131836 155.2547607421875 C 119.5819091796875 193.6229705810547 121.13870239257812 127.41756439208984 101.15567779541016 122.19977569580078 C 103.70979309082031 108.2672119140625 114.00435638427734 115.07257843017578 123.15222930908203 123.87688446044922 C 146.6588897705078 95.41525268554688 205.2464141845703 147.31890869140625 136.6956329345703 133.90670776367188" stroke-width="0.0" fill="rgb(9, 51, 92)" opacity="0.63621867" stroke="rgb(71, 146, 93)" stroke-opacity="0.5771828" stroke-linecap="round" stroke-linejoin="round"/>
    <path d="M 84.40986633300781 333.0735168457031 C 90.58613586425781 347.7185974121094 77.67037963867188 405.5320739746094 65.2822265625 400.2288513183594 C 62.8125114440918 356.6834716796875 62.93459701538086 343.37823486328125 65.24357604980469 254.83395385742188 C 64.71395111083984 237.5576934814453 78.92601776123047 235.98904418945312 77.28539276123047 294.2970886230469 C 78.00719451904297 348.00140380859375 75.2114028930664 329.3076477050781 84.40986633300781 333.0735168457031" stroke-width="0.0" fill="rgb(255, 233, 176)" opacity="0.7779398" stroke="rgb(63, 195, 97)" stroke-opacity="0.42143154" stroke-linecap="round" stroke-linejoin="round"/>
    <path d="M 148.3984832763672 148.44851684570312 C 144.22271728515625 142.02708435058594 149.1182403564453 164.5765380859375 145.05335998535156 163.8997039794922 C 110.74108123779297 156.83433532714844 119.08563995361328 170.978271484375 117.92225646972656 155.6026153564453 C 122.10594940185547 128.68325805664062 111.47557067871094 138.486328125 127.4991683959961 135.60780334472656 C 151.78546142578125 136.5823516845703 146.8742218017578 131.22349548339844 148.3984832763672 148.44851684570312" stroke-width="0.0" fill="rgb(169, 167, 169)" opacity="1.0" stroke="rgb(201, 150, 183)" stroke-opacity="0.45119232" stroke-linecap="round" stroke-linejoin="round"/>
    <path d="M 393.2269592285156 138.82044982910156 C 394.1033630371094 155.23281860351562 393.89788818359375 146.9905242919922 368.939208984375 145.41812133789062 C 354.53521728515625 140.08546447753906 338.7240905761719 140.66116333007812 276.6369323730469 121.22938537597656 C 298.06634521484375 82.0663833618164 310.5379943847656 81.73433685302734 335.32586669921875 76.25484466552734 C 402.09368896484375 110.63797760009766 395.5753173828125 117.66271209716797 393.2269592285156 138.82044982910156" stroke-width="0.0" fill="rgb(255, 181, 96)" opacity="0.77451193" stroke="rgb(142, 16, 166)" stroke-opacity="0.4215746" stroke-linecap="round" stroke-linejoin="round"/>
    <path d="M 386.2166748046875 409.8987731933594 C 343.9114074707031 434.7183532714844 341.2233581542969 400.6625671386719 270.6388244628906 346.22344970703125 C 256.5311279296875 188.89678955078125 323.76953125 253.9773712158203 294.2182922363281 215.66209411621094 C 294.4044494628906 204.29689025878906 289.8553466796875 189.04592895507812 312.6856384277344 230.21505737304688 C 397.944091796875 236.2114715576172 400.0927429199219 180.50619506835938 386.2166748046875 409.8987731933594" stroke-width="0.0" fill="rgb(79, 55, 25)" opacity="0.5789222" stroke="rgb(103, 99, 143)" stroke-opacity="0.5971091" stroke-linecap="round" stroke-linejoin="round"/>
    <path d="M 394.2650451660156 36.35416793823242 C 399.0671691894531 141.07278442382812 366.1011657714844 136.5508575439453 261.97747802734375 122.90071868896484 C 191.47152709960938 151.61973571777344 242.3509063720703 133.3833770751953 183.18222045898438 65.8934097290039 C 175.21682739257812 1.8712677955627441 204.58482360839844 7.2865309715271 309.78814697265625 -3.6107003688812256 C 345.2547607421875 -8.65771484375 346.53118896484375 -9.819724082946777 394.2650451660156 36.35416793823242" stroke-width="0.0" fill="rgb(254, 242, 240)" opacity="0.18819611" stroke="rgb(10, 111, 55)" stroke-opacity="0.30950674" stroke-linecap="round" stroke-linejoin="round"/>
    <path d="M 395.328857421875 504.1083679199219 C 305.7977600097656 556.1427612304688 282.9666748046875 524.0680541992188 252.78207397460938 520.6580810546875 C 206.83460998535156 529.057373046875 176.62892150878906 562.0230102539062 150.98190307617188 510.79986572265625 C 219.17239379882812 432.1924743652344 208.82215881347656 430.2513122558594 187.03598022460938 342.1657409667969 C 332.5426940917969 389.0887451171875 339.31597900390625 449.8614196777344 395.328857421875 504.1083679199219" stroke-width="0.0" fill="rgb(63, 82, 116)" opacity="0.3665302" stroke="rgb(201, 245, 232)" stroke-opacity="0.9338618" stroke-linecap="round" stroke-linejoin="round"/>
    <path d="M 335.0 225.0 C 334.33013916015625 227.5 332.5 229.3301239013672 330.0 230.0 C 327.5 229.3301239013672 325.66986083984375 227.5 325.0 225.0 C 325.66986083984375 222.5 327.5 220.6698760986328 330.0 220.0 C 332.5 220.6698760986328 334.33013916015625 222.5 335.0 225.0" stroke-width="0.0" fill="rgb(84, 116, 165)" opacity="1.0" stroke="rgb(205, 178, 231)" stroke-opacity="0.057520628" stroke-linecap="round" stroke-linejoin="round"/>
    <path d="M 206.0 160.0 C 205.3301239013672 162.5 203.5 164.3301239013672 201.0 165.0 C 198.5 164.3301239013672 196.6698760986328 162.5 196.0 160.0 C 196.6698760986328 157.5 198.5 155.6698760986328 201.0 155.0 C 203.5 155.6698760986328 205.3301239013672 157.5 206.0 160.0" stroke-width="0.0" fill="rgb(250, 235, 180)" opacity="1.0" stroke="rgb(66, 150, 39)" stroke-opacity="0.47470483" stroke-linecap="round" stroke-linejoin="round"/>
    <path d="M 22.0 5.0 C 21.330127716064453 7.5 19.5 9.330126762390137 17.0 10.0 C 14.5 9.330126762390137 12.669873237609863 7.5 12.0 5.0 C 12.669873237609863 2.5 14.5 0.6698729991912842 17.0 0.0 C 19.5 0.6698729991912842 21.330127716064453 2.5 22.0 5.0" stroke-width="0.0" fill="rgb(55, 119, 177)" opacity="1.0" stroke="rgb(236, 141, 50)" stroke-opacity="0.7282711" stroke-linecap="round" stroke-linejoin="round"/>
    <path d="M 371.0 281.0 C 370.33013916015625 283.5 368.5 285.33013916015625 366.0 286.0 C 363.5 285.33013916015625 361.66986083984375 283.5 361.0 281.0 C 361.66986083984375 278.5 363.5 276.66986083984375 366.0 276.0 C 368.5 276.66986083984375 370.33013916015625 278.5 371.0 281.0" stroke-width="0.0" fill="rgb(24, 89, 155)" opacity="1.0" stroke="rgb(91, 159, 12)" stroke-opacity="0.8467285" stroke-linecap="round" stroke-linejoin="round"/>
    <path d="M 349.0 228.0 C 348.33013916015625 230.5 346.5 232.3301239013672 344.0 233.0 C 341.5 232.3301239013672 339.66986083984375 230.5 339.0 228.0 C 339.66986083984375 225.5 341.5 223.6698760986328 344.0 223.0 C 346.5 223.6698760986328 348.33013916015625 225.5 349.0 228.0" stroke-width="0.0" fill="rgb(84, 111, 159)" opacity="1.0" stroke="rgb(226, 1, 69)" stroke-opacity="0.34889534" stroke-linecap="round" stroke-linejoin="round"/>
    <path d="M 311.0 216.0 C 310.33013916015625 218.5 308.5 220.3301239013672 306.0 221.0 C 303.5 220.3301239013672 301.66986083984375 218.5 301.0 216.0 C 301.66986083984375 213.5 303.5 211.6698760986328 306.0 211.0 C 308.5 211.6698760986328 310.33013916015625 213.5 311.0 216.0" stroke-width="0.0" fill="rgb(84, 114, 170)" opacity="1.0" stroke="rgb(232, 126, 45)" stroke-opacity="0.6007244" stroke-linecap="round" stroke-linejoin="round"/>
    <path d="M 385.0 215.0 C 384.33013916015625 217.5 382.5 219.3301239013672 380.0 220.0 C 377.5 219.3301239013672 375.66986083984375 217.5 375.0 215.0 C 375.66986083984375 212.5 377.5 210.6698760986328 380.0 210.0 C 382.5 210.6698760986328 384.33013916015625 212.5 385.0 215.0" stroke-width="0.0" fill="rgb(82, 111, 160)" opacity="1.0" stroke="rgb(89, 146, 170)" stroke-opacity="0.45369476" stroke-linecap="round" stroke-linejoin="round"/>
    <path d="M 377.0 223.0 C 376.33013916015625 225.5 374.5 227.3301239013672 372.0 228.0 C 369.5 227.3301239013672 367.66986083984375 225.5 367.0 223.0 C 367.66986083984375 220.5 369.5 218.6698760986328 372.0 218.0 C 374.5 218.6698760986328 376.33013916015625 220.5 377.0 223.0" stroke-width="0.0" fill="rgb(81, 111, 164)" opacity="1.0" stroke="rgb(175, 122, 134)" stroke-opacity="0.5951132" stroke-linecap="round" stroke-linejoin="round"/>
  </g>
</svg>
