<?xml version="1.0" ?>
<svg xmlns="http://www.w3.org/2000/svg" version="1.1" width="512" height="359">
  <defs/>
  <g>
    <path d="M 0.0 0.0 L 512.0 0.0 L 512.0 359.0 L 0.0 359.0 L 0.0 0.0" stroke-width="0.0" fill="rgb(255, 255, 255)" opacity="1.0" stroke="rgb(0, 0, 0)" stroke-opacity="0.0" stroke-linecap="round" stroke-linejoin="round"/>
    <path d="M 0.0 1.0 L 0.0 358.0 L 511.0 358.0 L 510.0 1.0 L 0.0 1.0" stroke-width="2.0" fill="rgb(255, 255, 255)" opacity="1.0" stroke="rgb(0, 0, 0)" stroke-opacity="0.0" stroke-linecap="round" stroke-linejoin="round"/>
    <path d="M 420.0 55.0 C 416.3333435058594 50.39723205566406 412.6666564941406 50.867794036865234 409.0 49.0 L 273.0 49.0 C 266.7123107910156 38.282108306884766 275.8562316894531 25.0694580078125 268.0 16.0 L 74.0 53.0 L 73.0 308.0 C 138.6666717529297 323.2949523925781 204.3333282470703 335.2026672363281 270.0 345.0 C 270.3525085449219 334.6666564941406 269.38372802734375 324.3333435058594 272.0 314.0 C 320.3333435058594 310.7090759277344 368.6666564941406 316.93182373046875 417.0 310.0 C 422.10845947265625 306.0 420.71575927734375 302.0 423.0 298.0 C 420.1341857910156 217.3333282470703 426.9639587402344 136.6666717529297 420.0 55.0" stroke-width="2.0" fill="rgb(82, 142, 111)" opacity="1.0" stroke="rgb(0, 0, 0)" stroke-opacity="0.0" stroke-linecap="round" stroke-linejoin="round"/>
    <path d="M 269.0 17.0 C 204.0 28.528226852416992 139.0 39.39293670654297 74.0 54.0 C 74.73380279541016 139.3333282470703 72.44270324707031 224.6666717529297 75.0 310.0 L 269.0 346.0 C 272.37835693359375 323.6666564941406 268.93231201171875 301.3333435058594 271.0 279.0 C 286.6666564941406 275.5414123535156 302.3333435058594 280.8898620605469 318.0 276.0 L 318.0 252.0 C 303.70379638671875 247.8964385986328 261.2153015136719 263.68182373046875 273.0 236.0 C 292.48834228515625 234.18406677246094 327.55780029296875 243.75833129882812 318.0 212.0 C 303.5083312988281 208.34425354003906 263.3323669433594 222.8829803466797 272.0 195.0 L 317.0 194.0 C 316.12725830078125 186.3333282470703 317.7329406738281 178.6666717529297 314.0 171.0 C 300.24542236328125 169.21092224121094 257.7790222167969 177.583984375 274.0 152.0 C 292.5823974609375 153.28421020507812 331.10638427734375 159.6774444580078 315.0 128.0 C 301.7637023925781 122.5838394165039 261.6213073730469 137.48175048828125 273.0 111.0 L 317.0 111.0 L 318.0 86.0 C 302.3333435058594 82.03233337402344 286.6666564941406 87.10675048828125 271.0 83.0 L 269.0 17.0" stroke-width="2.0" fill="rgb(50, 123, 86)" opacity="1.0" stroke="rgb(0, 0, 0)" stroke-opacity="0.0" stroke-linecap="round" stroke-linejoin="round"/>
    <path d="M 274.0 62.0 C 260.6081848144531 94.8757553100586 301.8851318359375 77.84233856201172 319.0 85.0 C 318.7741394042969 94.15125274658203 325.1108703613281 109.66075897216797 314.0 114.0 C 301.13653564453125 116.71662139892578 272.1536865234375 104.90601348876953 272.0 123.0 C 291.89508056640625 128.62998962402344 329.5514221191406 113.74317169189453 320.0 149.0 C 313.0122375488281 167.1798858642578 269.67974853515625 140.35874938964844 272.0 166.0 L 317.0 167.0 C 321.27459716796875 177.0 321.1791076660156 187.0 318.0 197.0 C 303.87652587890625 201.107421875 271.8569030761719 187.33543395996094 272.0 207.0 C 287.3333435058594 211.82264709472656 302.6666564941406 206.91549682617188 318.0 209.0 C 322.3916931152344 218.3333282470703 318.86541748046875 227.6666717529297 320.0 237.0 C 305.4067077636719 245.90171813964844 273.76165771484375 228.1328887939453 272.0 248.0 C 287.2072448730469 253.46328735351562 309.71697998046875 241.5687255859375 320.0 255.0 C 318.9235534667969 263.08502197265625 322.7887878417969 273.55072021484375 316.0 280.0 C 299.2172546386719 282.55560302734375 264.2317810058594 269.9593811035156 272.0 299.0 C 317.0 303.66162109375 362.0 299.6704406738281 407.0 301.0 C 413.1591491699219 221.6666717529297 407.84661865234375 142.3333282470703 409.0 63.0 L 274.0 62.0" stroke-width="2.0" fill="rgb(177, 204, 190)" opacity="1.0" stroke="rgb(0, 0, 0)" stroke-opacity="0.0" stroke-linecap="round" stroke-linejoin="round"/>
    <path d="M 208.0 120.0 L 184.0 122.0 L 165.0 163.0 C 155.3765869140625 143.00059509277344 151.0873565673828 114.94287872314453 125.0 126.0 C 130.7124481201172 144.3333282470703 145.162353515625 162.6666717529297 149.0 181.0 C 140.4630889892578 198.0 129.2849884033203 215.0 123.0 232.0 L 146.0 233.0 C 151.44296264648438 220.66339111328125 157.36888122558594 205.67103576660156 164.0 195.0 L 183.0 236.0 L 209.0 238.0 C 201.127685546875 218.6666717529297 189.26499938964844 199.3333282470703 179.0 180.0 C 186.0575714111328 160.3333282470703 200.2886199951172 140.6666717529297 208.0 120.0" stroke-width="2.0" fill="rgb(242, 247, 245)" opacity="1.0" stroke="rgb(0, 0, 0)" stroke-opacity="0.0" stroke-linecap="round" stroke-linejoin="round"/>
    <path d="M 184.0 122.0 C 159.18685913085938 159.7085418701172 158.3201446533203 199.94326782226562 184.0 236.0 C 191.14002990722656 234.80023193359375 207.71803283691406 242.2695770263672 207.0 232.0 C 197.41659545898438 215.15359497070312 187.71067810058594 196.249267578125 179.0 178.0 L 208.0 121.0 L 184.0 122.0" stroke-width="2.0" fill="rgb(244, 248, 246)" opacity="1.0" stroke="rgb(0, 0, 0)" stroke-opacity="0.0" stroke-linecap="round" stroke-linejoin="round"/>
    <path d="M 125.0 126.0 C 130.9676971435547 144.3333282470703 144.75491333007812 162.6666717529297 149.0 181.0 L 123.0 231.0 C 147.83447265625 243.66941833496094 154.1756134033203 213.96456909179688 163.0 195.0 C 168.16177368164062 171.6666717529297 159.88182067871094 148.3333282470703 148.0 125.0 L 125.0 126.0" stroke-width="2.0" fill="rgb(244, 248, 246)" opacity="1.0" stroke="rgb(0, 0, 0)" stroke-opacity="0.0" stroke-linecap="round" stroke-linejoin="round"/>
    <path d="M 333.0 127.0 L 334.0 154.0 C 351.3543701171875 152.6894073486328 371.30499267578125 156.63604736328125 387.0 152.0 C 385.7469787597656 143.2593536376953 389.5574951171875 132.1007080078125 385.0 125.0 L 333.0 127.0" stroke-width="2.0" fill="rgb(33, 107, 69)" opacity="1.0" stroke="rgb(0, 0, 0)" stroke-opacity="0.0" stroke-linecap="round" stroke-linejoin="round"/>
    <path d="M 333.0 252.0 L 334.0 279.0 C 351.3543701171875 277.6894226074219 371.30499267578125 281.63604736328125 387.0 277.0 C 385.752685546875 268.0 389.5496520996094 259.0 385.0 250.0 L 333.0 252.0" stroke-width="2.0" fill="rgb(33, 107, 68)" opacity="1.0" stroke="rgb(0, 0, 0)" stroke-opacity="0.0" stroke-linecap="round" stroke-linejoin="round"/>
    <path d="M 333.0 86.0 C 334.247314453125 95.0 330.4503479003906 104.0 335.0 113.0 L 387.0 111.0 L 386.0 84.0 L 333.0 86.0" stroke-width="2.0" fill="rgb(32, 108, 69)" opacity="1.0" stroke="rgb(0, 0, 0)" stroke-opacity="0.0" stroke-linecap="round" stroke-linejoin="round"/>
    <path d="M 333.0 170.0 L 334.0 196.0 L 387.0 195.0 L 386.0 168.0 L 333.0 170.0" stroke-width="2.0" fill="rgb(32, 108, 69)" opacity="1.0" stroke="rgb(0, 0, 0)" stroke-opacity="0.0" stroke-linecap="round" stroke-linejoin="round"/>
    <path d="M 334.0 210.0 L 334.0 238.0 L 386.0 238.0 L 386.0 210.0 L 334.0 210.0" stroke-width="2.0" fill="rgb(32, 107, 67)" opacity="1.0" stroke="rgb(0, 0, 0)" stroke-opacity="0.0" stroke-linecap="round" stroke-linejoin="round"/>
    <path d="M 272.0 251.0 C 271.22357177734375 260.3333435058594 269.23834228515625 269.6666564941406 273.0 279.0 C 288.3333435058594 277.6977233886719 303.6666564941406 281.6247863769531 319.0 277.0 L 318.0 251.0 L 272.0 251.0" stroke-width="2.0" fill="rgb(32, 109, 68)" opacity="1.0" stroke="rgb(0, 0, 0)" stroke-opacity="0.0" stroke-linecap="round" stroke-linejoin="round"/>
    <path d="M 271.0 85.0 C 269.9088134765625 94.0 266.12274169921875 103.0 272.0 112.0 L 318.0 111.0 C 319.3750305175781 102.0 319.81744384765625 93.0 317.0 84.0 L 271.0 85.0" stroke-width="2.0" fill="rgb(33, 109, 69)" opacity="1.0" stroke="rgb(0, 0, 0)" stroke-opacity="0.0" stroke-linecap="round" stroke-linejoin="round"/>
    <path d="M 272.0 168.0 L 272.0 196.0 L 319.0 195.0 C 317.752685546875 186.0 321.5496520996094 177.0 317.0 168.0 L 272.0 168.0" stroke-width="2.0" fill="rgb(32, 109, 69)" opacity="1.0" stroke="rgb(0, 0, 0)" stroke-opacity="0.0" stroke-linecap="round" stroke-linejoin="round"/>
    <path d="M 272.0 210.0 L 272.0 237.0 C 287.6666564941406 237.88494873046875 303.3333435058594 240.0349578857422 319.0 236.0 L 318.0 210.0 L 272.0 210.0" stroke-width="2.0" fill="rgb(33, 108, 68)" opacity="1.0" stroke="rgb(0, 0, 0)" stroke-opacity="0.0" stroke-linecap="round" stroke-linejoin="round"/>
    <path d="M 272.0 126.0 L 272.0 153.0 L 318.0 153.0 C 319.10418701171875 144.0 320.78533935546875 135.0 317.0 126.0 L 272.0 126.0" stroke-width="2.0" fill="rgb(32, 109, 69)" opacity="1.0" stroke="rgb(0, 0, 0)" stroke-opacity="0.0" stroke-linecap="round" stroke-linejoin="round"/>
  </g>
</svg>
