<?xml version="1.0" ?>
<svg xmlns="http://www.w3.org/2000/svg" version="1.1" width="512" height="499">
  <defs/>
  <g>
    <path d="M 471.1778564453125 373.20233154296875 C 476.922119140625 375.1423645019531 363.01934814453125 566.1126098632812 143.35414123535156 469.6497497558594 C 161.02450561523438 336.1457214355469 307.9143371582031 512.8937377929688 340.0262756347656 339.4099426269531 C 545.6837768554688 308.1246032714844 291.5075988769531 111.26063537597656 448.4455261230469 97.12688446044922 C 553.644287109375 230.04005432128906 479.2518005371094 368.3851623535156 471.1778564453125 373.20233154296875" stroke-width="0.0" fill="rgb(8, 75, 139)" opacity="0.7223529" stroke="rgb(233, 205, 142)" stroke-opacity="0.3702734" stroke-linecap="round" stroke-linejoin="round"/>
    <path d="M 102.33658599853516 291.6950988769531 C 188.40330505371094 343.0798034667969 228.33035278320312 436.7194519042969 139.32833862304688 465.337158203125 C -20.644487380981445 369.2531433105469 24.275888442993164 193.83314514160156 15.991226196289062 242.2422637939453 C 21.68259620666504 307.8692932128906 -19.928768157958984 80.7559585571289 204.6148223876953 13.821220397949219 C 253.40614318847656 37.842369079589844 162.5580291748047 110.62625885009766 102.33658599853516 291.6950988769531" stroke-width="0.0" fill="rgb(53, 106, 156)" opacity="0.86091775" stroke="rgb(167, 41, 208)" stroke-opacity="0.44744408" stroke-linecap="round" stroke-linejoin="round"/>
    <path d="M 335.0886535644531 167.11659240722656 C 340.1982727050781 264.6712646484375 308.7786865234375 239.84713745117188 168.38157653808594 245.3734588623047 C 156.2650146484375 342.7012939453125 146.7414093017578 371.08770751953125 78.12867736816406 289.998779296875 C 93.16924285888672 157.9195556640625 116.37104797363281 168.39480590820312 182.85635375976562 167.52586364746094 C 258.4922790527344 167.85276794433594 269.8807678222656 166.60220336914062 335.0886535644531 167.11659240722656" stroke-width="0.0" fill="rgb(248, 250, 251)" opacity="1.0" stroke="rgb(28, 5, 178)" stroke-opacity="0.9073118" stroke-linecap="round" stroke-linejoin="round"/>
  </g>
</svg>
