<?xml version="1.0" ?>
<svg xmlns="http://www.w3.org/2000/svg" version="1.1" width="512" height="341">
  <defs/>
  <g>
    <path d="M 0.0 0.0 L 512.0 0.0 L 512.0 341.0 L 0.0 341.0 L 0.0 0.0" stroke-width="0.0" fill="rgb(255, 255, 255)" opacity="1.0" stroke="rgb(0, 0, 0)" stroke-opacity="0.0" stroke-linecap="round" stroke-linejoin="round"/>
    <path d="M 511.0 2.0 L 0.0 2.0 L 0.0 340.0 L 511.0 340.0 L 511.0 2.0" stroke-width="2.0" fill="rgb(255, 255, 255)" opacity="1.0" stroke="rgb(0, 0, 0)" stroke-opacity="0.0" stroke-linecap="round" stroke-linejoin="round"/>
    <path d="M 0.0 289.0 L 0.0 340.0 L 511.0 340.0 L 511.0 288.0 L 141.0 288.0 C 139.3411407470703 293.16302490234375 135.12901306152344 290.63775634765625 132.0 288.0 L 4.0 289.0 C 1.6939448118209839 285.8031005859375 2.889066696166992 285.8031005859375 0.0 289.0" stroke-width="2.0" fill="rgb(174, 210, 180)" opacity="1.0" stroke="rgb(0, 0, 0)" stroke-opacity="0.0" stroke-linecap="round" stroke-linejoin="round"/>
    <path d="M 362.0 240.0 L 362.0 286.0 L 439.0 286.0 L 440.0 241.0 C 427.62445068359375 230.90975952148438 411.03125 217.50848388671875 397.0 214.0 L 362.0 240.0" stroke-width="2.0" fill="rgb(217, 200, 173)" opacity="1.0" stroke="rgb(0, 0, 0)" stroke-opacity="0.0" stroke-linecap="round" stroke-linejoin="round"/>
    <path d="M 177.0 245.0 L 177.0 286.0 L 244.0 286.0 L 244.0 245.0 C 230.6666717529297 238.70452880859375 217.3333282470703 223.38546752929688 204.0 224.0 L 177.0 245.0" stroke-width="2.0" fill="rgb(199, 141, 118)" opacity="1.0" stroke="rgb(0, 0, 0)" stroke-opacity="0.0" stroke-linecap="round" stroke-linejoin="round"/>
    <path d="M 286.0 244.0 L 287.0 287.0 L 347.0 286.0 L 346.0 244.0 C 335.3333435058594 238.12115478515625 324.6666564941406 228.70269775390625 314.0 224.0 L 286.0 244.0" stroke-width="2.0" fill="rgb(104, 57, 73)" opacity="1.0" stroke="rgb(0, 0, 0)" stroke-opacity="0.0" stroke-linecap="round" stroke-linejoin="round"/>
    <path d="M 31.0 242.0 L 31.0 287.0 L 87.0 286.0 L 87.0 249.0 L 54.0 226.0 C 46.66666793823242 227.9915771484375 39.33333206176758 237.7396240234375 31.0 242.0" stroke-width="2.0" fill="rgb(64, 34, 61)" opacity="1.0" stroke="rgb(0, 0, 0)" stroke-opacity="0.0" stroke-linecap="round" stroke-linejoin="round"/>
    <path d="M 96.0 158.0 C 71.65715026855469 159.67852783203125 59.909446716308594 192.9263458251953 83.0 208.0 C 88.33333587646484 211.9517822265625 93.66666412353516 209.1116943359375 99.0 213.0 L 98.0 286.0 C 108.92159271240234 291.3412780761719 108.7347640991211 279.57745361328125 100.0 273.0 L 100.0 212.0 C 134.92037963867188 211.03146362304688 130.95928955078125 155.89939880371094 96.0 158.0" stroke-width="2.0" fill="rgb(171, 183, 163)" opacity="1.0" stroke="rgb(0, 0, 0)" stroke-opacity="0.0" stroke-linecap="round" stroke-linejoin="round"/>
    <path d="M 464.0 158.0 C 430.4325256347656 163.81924438476562 438.2521057128906 216.1388702392578 470.0 213.0 C 473.5079040527344 203.66114807128906 467.8272705078125 191.67404174804688 473.0 184.0 C 478.5000915527344 193.06622314453125 471.13873291015625 207.24351501464844 477.0 213.0 C 504.82659912109375 204.4544219970703 503.5406799316406 164.95582580566406 475.0 158.0 L 464.0 158.0" stroke-width="2.0" fill="rgb(186, 204, 180)" opacity="1.0" stroke="rgb(0, 0, 0)" stroke-opacity="0.0" stroke-linecap="round" stroke-linejoin="round"/>
    <path d="M 148.0 186.0 C 123.26045227050781 180.4174041748047 113.17759704589844 223.97023010253906 141.0 227.0 C 139.38694763183594 247.6666717529297 136.45880126953125 268.3333435058594 137.0 289.0 C 140.0946807861328 270.6649475097656 140.53866577148438 248.0012969970703 142.0 228.0 C 164.8815155029297 230.43568420410156 175.46507263183594 192.54994201660156 148.0 186.0" stroke-width="2.0" fill="rgb(167, 191, 170)" opacity="1.0" stroke="rgb(0, 0, 0)" stroke-opacity="0.0" stroke-linecap="round" stroke-linejoin="round"/>
    <path d="M 263.0 200.0 C 230.31634521484375 212.3387451171875 270.1543884277344 257.76214599609375 286.0 224.0 C 290.5948791503906 212.7996063232422 276.54547119140625 195.2633056640625 263.0 200.0" stroke-width="2.0" fill="rgb(182, 209, 186)" opacity="1.0" stroke="rgb(0, 0, 0)" stroke-opacity="0.0" stroke-linecap="round" stroke-linejoin="round"/>
    <path d="M 322.0 246.0 L 322.0 287.0 L 346.0 287.0 L 346.0 246.0 L 322.0 246.0" stroke-width="2.0" fill="rgb(209, 148, 125)" opacity="1.0" stroke="rgb(0, 0, 0)" stroke-opacity="0.0" stroke-linecap="round" stroke-linejoin="round"/>
    <path d="M 124.0 203.0 L 125.0 206.0 L 165.0 209.0 C 169.16464233398438 185.80108642578125 129.254638671875 175.33306884765625 124.0 203.0" stroke-width="2.0" fill="rgb(184, 210, 184)" opacity="1.0" stroke="rgb(0, 0, 0)" stroke-opacity="0.0" stroke-linecap="round" stroke-linejoin="round"/>
    <path d="M 5.0 234.0 L 0.0 236.0 L 0.0 283.0 L 14.0 283.0 C 10.147736549377441 267.3963928222656 23.246183395385742 241.66966247558594 5.0 234.0" stroke-width="2.0" fill="rgb(174, 210, 180)" opacity="1.0" stroke="rgb(0, 0, 0)" stroke-opacity="0.0" stroke-linecap="round" stroke-linejoin="round"/>
    <path d="M 471.0 182.0 C 463.17083740234375 184.29782104492188 460.9433288574219 196.58555603027344 471.0 199.0 C 472.04742431640625 224.0 469.3105163574219 249.0 469.0 274.0 C 457.9980773925781 282.398193359375 473.46337890625 292.4560241699219 477.0 282.0 C 475.98138427734375 278.0 475.062744140625 274.0 471.0 270.0 C 472.8343505859375 246.6666717529297 473.9398498535156 223.3333282470703 474.0 200.0 C 482.4291687011719 194.6600341796875 480.610107421875 182.0987091064453 471.0 182.0" stroke-width="2.0" fill="rgb(104, 86, 89)" opacity="1.0" stroke="rgb(0, 0, 0)" stroke-opacity="0.0" stroke-linecap="round" stroke-linejoin="round"/>
    <path d="M 18.0 239.0 L 17.0 285.0 C 20.66666603088379 289.0543518066406 24.33333396911621 286.10137939453125 28.0 287.0 L 29.0 241.0 L 18.0 239.0" stroke-width="2.0" fill="rgb(110, 169, 146)" opacity="1.0" stroke="rgb(0, 0, 0)" stroke-opacity="0.0" stroke-linecap="round" stroke-linejoin="round"/>
    <path d="M 380.0 244.0 L 380.0 277.0 L 395.0 277.0 L 396.0 244.0 L 380.0 244.0" stroke-width="2.0" fill="rgb(138, 126, 118)" opacity="1.0" stroke="rgb(0, 0, 0)" stroke-opacity="0.0" stroke-linecap="round" stroke-linejoin="round"/>
    <path d="M 96.0 182.0 C 86.39491271972656 187.3792724609375 88.75838470458984 198.91702270507812 99.0 203.0 L 98.0 286.0 C 107.36590576171875 291.1599426269531 110.63636016845703 280.4975891113281 100.0 274.0 L 100.0 202.0 C 113.68401336669922 199.73243713378906 109.8630599975586 178.77940368652344 96.0 182.0" stroke-width="2.0" fill="rgb(123, 90, 82)" opacity="1.0" stroke="rgb(0, 0, 0)" stroke-opacity="0.0" stroke-linecap="round" stroke-linejoin="round"/>
    <path d="M 189.0 247.0 L 188.0 277.0 L 203.0 277.0 L 203.0 248.0 L 189.0 247.0" stroke-width="2.0" fill="rgb(154, 187, 162)" opacity="1.0" stroke="rgb(0, 0, 0)" stroke-opacity="0.0" stroke-linecap="round" stroke-linejoin="round"/>
    <path d="M 42.0 246.0 L 42.0 274.0 L 56.0 274.0 L 57.0 246.0 L 42.0 246.0" stroke-width="2.0" fill="rgb(94, 78, 97)" opacity="1.0" stroke="rgb(0, 0, 0)" stroke-opacity="0.0" stroke-linecap="round" stroke-linejoin="round"/>
    <path d="M 362.0 283.0 L 362.0 287.0 L 439.0 287.0 C 440.83111572265625 280.5356140136719 434.6321105957031 284.6563415527344 431.0 282.0 L 362.0 283.0" stroke-width="2.0" fill="rgb(67, 32, 59)" opacity="1.0" stroke="rgb(0, 0, 0)" stroke-opacity="0.0" stroke-linecap="round" stroke-linejoin="round"/>
    <path d="M 69.0 254.0 L 69.0 286.0 C 77.89440155029297 288.9704895019531 90.06096649169922 288.1959228515625 86.0 276.0 C 67.02674102783203 281.4717102050781 86.44152069091797 249.79811096191406 69.0 254.0" stroke-width="2.0" fill="rgb(138, 115, 110)" opacity="1.0" stroke="rgb(0, 0, 0)" stroke-opacity="0.0" stroke-linecap="round" stroke-linejoin="round"/>
    <path d="M 234.0 116.0 C 209.37811279296875 119.68973541259766 224.9193115234375 159.9893035888672 244.0 144.0 C 229.703125 145.57290649414062 222.85577392578125 121.6793441772461 240.0 119.0 C 240.1685333251953 115.44523620605469 236.45309448242188 118.3964614868164 234.0 116.0" stroke-width="2.0" fill="rgb(213, 218, 184)" opacity="1.0" stroke="rgb(0, 0, 0)" stroke-opacity="0.0" stroke-linecap="round" stroke-linejoin="round"/>
    <path d="M 473.0 185.0 C 471.3338928222656 218.6666717529297 471.1897888183594 252.3333282470703 467.0 286.0 C 476.6670227050781 289.4733581542969 479.65142822265625 278.2113342285156 471.0 271.0 C 472.009765625 242.6666717529297 474.3155822753906 214.3333282470703 473.0 185.0" stroke-width="2.0" fill="rgb(48, 40, 60)" opacity="1.0" stroke="rgb(0, 0, 0)" stroke-opacity="0.0" stroke-linecap="round" stroke-linejoin="round"/>
    <path d="M 444.0 24.0 C 425.2841796875 22.01051902770996 429.2984619140625 55.69977569580078 447.0 46.0 C 447.1228942871094 39.323123931884766 446.87939453125 30.013647079467773 444.0 24.0" stroke-width="2.0" fill="rgb(133, 184, 161)" opacity="1.0" stroke="rgb(0, 0, 0)" stroke-opacity="0.0" stroke-linecap="round" stroke-linejoin="round"/>
    <path d="M 225.0 247.0 L 225.0 268.0 L 238.0 268.0 C 240.7777862548828 257.2856750488281 241.1658477783203 242.03018188476562 225.0 247.0" stroke-width="2.0" fill="rgb(141, 122, 119)" opacity="1.0" stroke="rgb(0, 0, 0)" stroke-opacity="0.0" stroke-linecap="round" stroke-linejoin="round"/>
    <path d="M 144.0 227.0 C 152.458251953125 228.65951538085938 164.5668182373047 219.41403198242188 164.0 210.0 L 145.0 209.0 L 144.0 227.0" stroke-width="2.0" fill="rgb(183, 207, 182)" opacity="1.0" stroke="rgb(0, 0, 0)" stroke-opacity="0.0" stroke-linecap="round" stroke-linejoin="round"/>
    <path d="M 96.0 182.0 C 86.70780181884766 186.073486328125 88.32608032226562 200.0497283935547 98.0 201.0 L 99.0 189.0 C 102.2721176147461 194.87013244628906 99.59034729003906 207.31997680664062 108.0 196.0 C 112.1954574584961 189.20660400390625 104.57438659667969 179.900146484375 96.0 182.0" stroke-width="2.0" fill="rgb(201, 137, 115)" opacity="1.0" stroke="rgb(0, 0, 0)" stroke-opacity="0.0" stroke-linecap="round" stroke-linejoin="round"/>
    <path d="M 124.0 207.0 C 122.31486511230469 214.19662475585938 130.41021728515625 225.54269409179688 139.0 227.0 L 141.0 208.0 L 124.0 207.0" stroke-width="2.0" fill="rgb(185, 210, 186)" opacity="1.0" stroke="rgb(0, 0, 0)" stroke-opacity="0.0" stroke-linecap="round" stroke-linejoin="round"/>
    <path d="M 59.0 123.0 C 61.22548294067383 128.11050415039062 68.34835052490234 134.56143188476562 64.0 142.0 C 51.543575286865234 152.360107421875 72.0726318359375 148.0283966064453 73.0 140.0 C 75.5058822631836 133.1009063720703 69.49791717529297 120.08570098876953 59.0 123.0" stroke-width="2.0" fill="rgb(172, 205, 181)" opacity="1.0" stroke="rgb(0, 0, 0)" stroke-opacity="0.0" stroke-linecap="round" stroke-linejoin="round"/>
    <path d="M 144.0 208.0 C 138.19808959960938 233.00099182128906 138.61068725585938 262.33258056640625 136.0 289.0 C 140.20872497558594 289.9471130371094 136.15879821777344 285.0614318847656 139.0 283.0 C 139.03135681152344 258.3333435058594 142.60675048828125 233.6666717529297 144.0 208.0" stroke-width="2.0" fill="rgb(67, 83, 89)" opacity="1.0" stroke="rgb(0, 0, 0)" stroke-opacity="0.0" stroke-linecap="round" stroke-linejoin="round"/>
    <path d="M 469.0 182.0 C 460.8427429199219 186.13002014160156 462.23382568359375 199.3562774658203 471.0 199.0 C 472.0797119140625 194.64498901367188 468.6846618652344 187.69570922851562 473.0 185.0 C 476.5568542480469 188.8984375 469.75714111328125 204.09173583984375 479.0 196.0 C 482.74298095703125 190.67202758789062 477.3899230957031 180.18402099609375 469.0 182.0" stroke-width="2.0" fill="rgb(195, 138, 116)" opacity="1.0" stroke="rgb(0, 0, 0)" stroke-opacity="0.0" stroke-linecap="round" stroke-linejoin="round"/>
    <path d="M 69.0 254.0 C 70.7325210571289 261.5901184082031 63.67207336425781 278.89166259765625 77.0 276.0 C 74.92345428466797 268.4098815917969 82.55833435058594 251.10833740234375 69.0 254.0" stroke-width="2.0" fill="rgb(119, 105, 104)" opacity="1.0" stroke="rgb(0, 0, 0)" stroke-opacity="0.0" stroke-linecap="round" stroke-linejoin="round"/>
    <path d="M 86.0 276.0 C 78.301025390625 276.40625 65.98023223876953 274.5396423339844 69.0 286.0 C 77.12513732910156 288.4941711425781 89.91687774658203 288.86920166015625 86.0 276.0" stroke-width="2.0" fill="rgb(158, 126, 117)" opacity="1.0" stroke="rgb(0, 0, 0)" stroke-opacity="0.0" stroke-linecap="round" stroke-linejoin="round"/>
    <path d="M 332.0 252.0 C 332.7870788574219 259.6412048339844 327.9769592285156 274.7107238769531 341.0 271.0 C 339.6412048339844 263.3587951660156 345.7107238769531 248.2892608642578 332.0 252.0" stroke-width="2.0" fill="rgb(210, 191, 163)" opacity="1.0" stroke="rgb(0, 0, 0)" stroke-opacity="0.0" stroke-linecap="round" stroke-linejoin="round"/>
    <path d="M 301.0 247.0 C 300.0345458984375 254.21250915527344 295.9491271972656 270.1009826660156 308.0 267.0 C 306.0694885253906 260.26385498046875 312.9997253417969 244.6669464111328 301.0 247.0" stroke-width="2.0" fill="rgb(116, 99, 103)" opacity="1.0" stroke="rgb(0, 0, 0)" stroke-opacity="0.0" stroke-linecap="round" stroke-linejoin="round"/>
    <path d="M 443.0 27.0 C 438.6004638671875 37.67380905151367 429.6346435546875 23.57082176208496 432.0 36.0 C 437.9800720214844 48.29077911376953 450.1221008300781 35.61234664916992 443.0 27.0" stroke-width="2.0" fill="rgb(164, 202, 182)" opacity="1.0" stroke="rgb(0, 0, 0)" stroke-opacity="0.0" stroke-linecap="round" stroke-linejoin="round"/>
    <path d="M 470.0 272.0 C 464.2364807128906 279.1382751464844 464.4758605957031 289.3276062011719 475.0 286.0 C 477.11907958984375 281.6449890136719 476.3951416015625 274.6957092285156 470.0 272.0" stroke-width="2.0" fill="rgb(33, 17, 52)" opacity="1.0" stroke="rgb(0, 0, 0)" stroke-opacity="0.0" stroke-linecap="round" stroke-linejoin="round"/>
    <path d="M 100.0 276.0 C 91.78653717041016 285.2241516113281 108.0780258178711 293.1083984375 107.0 281.0 C 103.9442367553711 279.1100769042969 103.35575866699219 274.9732360839844 100.0 276.0" stroke-width="2.0" fill="rgb(33, 28, 51)" opacity="1.0" stroke="rgb(0, 0, 0)" stroke-opacity="0.0" stroke-linecap="round" stroke-linejoin="round"/>
    <path d="M 429.0 246.0 C 428.1873474121094 251.16246032714844 425.34759521484375 262.64007568359375 431.0 263.0 C 432.16229248046875 257.6514892578125 433.7640075683594 249.6869659423828 429.0 246.0" stroke-width="2.0" fill="rgb(168, 193, 170)" opacity="1.0" stroke="rgb(0, 0, 0)" stroke-opacity="0.0" stroke-linecap="round" stroke-linejoin="round"/>
    <path d="M 44.0 256.0 C 43.260101318359375 261.0897216796875 39.877349853515625 273.1103210449219 47.0 272.0 C 45.84926223754883 267.1507263183594 49.4155158996582 257.58447265625 44.0 256.0" stroke-width="2.0" fill="rgb(45, 26, 53)" opacity="1.0" stroke="rgb(0, 0, 0)" stroke-opacity="0.0" stroke-linecap="round" stroke-linejoin="round"/>
    <path d="M 197.0 263.0 C 195.57557678222656 267.4073486328125 193.6394500732422 277.6257019042969 201.0 276.0 C 199.7234649658203 271.9432067871094 203.97386169433594 262.3594665527344 197.0 263.0" stroke-width="2.0" fill="rgb(113, 170, 139)" opacity="1.0" stroke="rgb(0, 0, 0)" stroke-opacity="0.0" stroke-linecap="round" stroke-linejoin="round"/>
    <path d="M 390.0 266.0 C 386.5303649902344 279.5020446777344 398.2889099121094 279.5020446777344 396.0 266.0 L 390.0 266.0" stroke-width="2.0" fill="rgb(126, 109, 103)" opacity="1.0" stroke="rgb(0, 0, 0)" stroke-opacity="0.0" stroke-linecap="round" stroke-linejoin="round"/>
    <path d="M 196.0 249.0 C 192.79046630859375 262.5020446777344 204.20953369140625 262.5020446777344 201.0 249.0 L 196.0 249.0" stroke-width="2.0" fill="rgb(112, 168, 140)" opacity="1.0" stroke="rgb(0, 0, 0)" stroke-opacity="0.0" stroke-linecap="round" stroke-linejoin="round"/>
    <path d="M 380.0 255.0 C 375.666259765625 272.01611328125 396.9844055175781 255.5666046142578 380.0 255.0" stroke-width="2.0" fill="rgb(122, 104, 100)" opacity="1.0" stroke="rgb(0, 0, 0)" stroke-opacity="0.0" stroke-linecap="round" stroke-linejoin="round"/>
    <path d="M 390.0 255.0 C 386.47735595703125 265.4358825683594 399.52264404296875 265.7156066894531 396.0 255.0 L 390.0 255.0" stroke-width="2.0" fill="rgb(106, 100, 94)" opacity="1.0" stroke="rgb(0, 0, 0)" stroke-opacity="0.0" stroke-linecap="round" stroke-linejoin="round"/>
    <path d="M 479.0 291.0 C 474.3142395019531 291.416015625 467.0256042480469 288.73626708984375 464.0 293.0 C 468.535888671875 294.1798400878906 477.7207946777344 295.7377624511719 479.0 291.0" stroke-width="2.0" fill="rgb(175, 210, 180)" opacity="1.0" stroke="rgb(0, 0, 0)" stroke-opacity="0.0" stroke-linecap="round" stroke-linejoin="round"/>
    <path d="M 390.0 244.0 C 386.47735595703125 254.4658660888672 399.52264404296875 254.4658660888672 396.0 244.0 L 390.0 244.0" stroke-width="2.0" fill="rgb(108, 102, 91)" opacity="1.0" stroke="rgb(0, 0, 0)" stroke-opacity="0.0" stroke-linecap="round" stroke-linejoin="round"/>
    <path d="M 227.0 258.0 C 222.38882446289062 268.6900329589844 233.4190673828125 268.6900329589844 230.0 258.0 L 227.0 258.0" stroke-width="2.0" fill="rgb(75, 51, 47)" opacity="1.0" stroke="rgb(0, 0, 0)" stroke-opacity="0.0" stroke-linecap="round" stroke-linejoin="round"/>
    <path d="M 226.0 248.0 C 222.93296813964844 261.3037414550781 236.291015625 250.32748413085938 226.0 248.0" stroke-width="2.0" fill="rgb(82, 72, 68)" opacity="1.0" stroke="rgb(0, 0, 0)" stroke-opacity="0.0" stroke-linecap="round" stroke-linejoin="round"/>
    <path d="M 43.0 248.0 C 40.551727294921875 258.5974426269531 52.896549224853516 248.63818359375 43.0 248.0" stroke-width="2.0" fill="rgb(41, 26, 43)" opacity="1.0" stroke="rgb(0, 0, 0)" stroke-opacity="0.0" stroke-linecap="round" stroke-linejoin="round"/>
  </g>
</svg>
