<?xml version="1.0" ?>
<svg xmlns="http://www.w3.org/2000/svg" version="1.1" width="473" height="512">
  <defs/>
  <g>
    <path d="M 351.1310729980469 147.76876831054688 C 299.01788330078125 198.7333221435547 352.65765380859375 165.11183166503906 435.0946044921875 225.26329040527344 C 46.42580795288086 194.90789794921875 202.51039123535156 247.93276977539062 122.6317367553711 146.41390991210938 C 166.550537109375 124.97769165039062 210.50086975097656 112.65257263183594 239.90321350097656 78.77937316894531 C 253.44346618652344 105.48270416259766 255.73455810546875 100.42310333251953 351.1310729980469 147.76876831054688" stroke-width="0.0" fill="rgb(0, 90, 121)" opacity="0.86808795" stroke="rgb(51, 80, 92)" stroke-opacity="0.50924313" stroke-linecap="round" stroke-linejoin="round"/>
    <path d="M 409.3567199707031 168.1354217529297 C 272.5670166015625 116.34306335449219 213.11639404296875 93.58528900146484 248.2218780517578 37.35699462890625 C 226.80331420898438 26.840078353881836 221.07081604003906 26.97252082824707 201.40805053710938 26.938505172729492 C 194.1553192138672 -14.027388572692871 199.719970703125 -10.708166122436523 244.4005584716797 -11.480422973632812 C 327.0770568847656 -31.33250617980957 390.1910705566406 -90.9603500366211 409.3567199707031 168.1354217529297" stroke-width="0.0" fill="rgb(251, 222, 215)" opacity="0.7431865" stroke="rgb(46, 211, 43)" stroke-opacity="0.4120359" stroke-linecap="round" stroke-linejoin="round"/>
    <path d="M 264.3016357421875 36.96240234375 C 225.38034057617188 87.11978912353516 239.10008239746094 98.64981079101562 132.33941650390625 141.57501220703125 C 30.768909454345703 236.328369140625 -19.40249252319336 214.8943328857422 -3.1546905040740967 0.7030930519104004 C 111.82112121582031 -24.770647048950195 130.51483154296875 -9.55023193359375 161.45062255859375 -15.061138153076172 C 224.64076232910156 -4.13379430770874 236.83206176757812 -2.526121139526367 264.3016357421875 36.96240234375" stroke-width="0.0" fill="rgb(238, 194, 214)" opacity="0.6724651" stroke="rgb(10, 220, 9)" stroke-opacity="0.15610082" stroke-linecap="round" stroke-linejoin="round"/>
    <path d="M 250.1837615966797 282.3048095703125 C 242.92611694335938 282.38592529296875 228.672119140625 282.9295349121094 200.00914001464844 282.4465637207031 C 135.01773071289062 283.7740478515625 125.19645690917969 284.715576171875 76.9525146484375 288.987060546875 C 83.1231460571289 186.40805053710938 54.902992248535156 207.89205932617188 120.62825775146484 185.9483642578125 C 201.7951202392578 219.48033142089844 212.32359313964844 214.92872619628906 250.1837615966797 282.3048095703125" stroke-width="0.0" fill="rgb(0, 106, 142)" opacity="0.8462281" stroke="rgb(128, 176, 252)" stroke-opacity="0.90633744" stroke-linecap="round" stroke-linejoin="round"/>
    <path d="M 333.18011474609375 415.0091857910156 C 385.9281005859375 452.9876708984375 427.51287841796875 525.2386474609375 369.5551452636719 537.6498413085938 C 71.08087158203125 546.4544067382812 32.05146026611328 592.72509765625 32.81378173828125 425.4307556152344 C 211.8479766845703 408.452392578125 185.6111297607422 432.1370849609375 217.97125244140625 420.9960632324219 C 297.0390625 417.3424987792969 255.40988159179688 432.1191101074219 333.18011474609375 415.0091857910156" stroke-width="0.0" fill="rgb(255, 255, 237)" opacity="0.5618777" stroke="rgb(129, 175, 85)" stroke-opacity="0.656567" stroke-linecap="round" stroke-linejoin="round"/>
    <path d="M 331.9501647949219 472.7030944824219 C 237.39044189453125 398.5248107910156 248.84115600585938 440.94952392578125 244.51988220214844 490.2708435058594 C 224.00193786621094 464.34881591796875 216.51773071289062 455.31231689453125 192.34927368164062 430.88177490234375 C 149.59217834472656 418.7314453125 143.45433044433594 424.2204284667969 343.0851745605469 422.1990661621094 C 300.35955810546875 394.8714904785156 426.46319580078125 382.30322265625 331.9501647949219 472.7030944824219" stroke-width="0.0" fill="rgb(0, 140, 199)" opacity="0.4657568" stroke="rgb(49, 59, 170)" stroke-opacity="0.043169513" stroke-linecap="round" stroke-linejoin="round"/>
    <path d="M 392.66339111328125 290.9412841796875 C 219.70115661621094 271.7006530761719 224.55137634277344 298.8207092285156 234.07730102539062 254.56834411621094 C 148.77938842773438 245.59219360351562 147.19944763183594 246.9407196044922 91.49624633789062 266.1544189453125 C 83.55175018310547 171.3584442138672 137.56423950195312 176.8541259765625 224.40870666503906 173.69937133789062 C 357.5771789550781 161.3143768310547 409.80767822265625 269.29766845703125 392.66339111328125 290.9412841796875" stroke-width="0.0" fill="rgb(19, 106, 132)" opacity="0.93414617" stroke="rgb(203, 119, 190)" stroke-opacity="0.94077104" stroke-linecap="round" stroke-linejoin="round"/>
    <path d="M 431.3796081542969 483.99603271484375 C 445.0704650878906 487.8062438964844 473.83367919921875 501.3377990722656 460.62860107421875 519.9924926757812 C 381.1099548339844 525.2852172851562 380.58258056640625 515.5419921875 362.9651794433594 486.5819396972656 C 387.7872009277344 463.3056335449219 407.00762939453125 473.8654479980469 421.1273498535156 466.638427734375 C 436.65118408203125 462.5924377441406 432.3111572265625 474.52777099609375 431.3796081542969 483.99603271484375" stroke-width="0.0" fill="rgb(250, 241, 225)" opacity="0.8216676" stroke="rgb(139, 148, 139)" stroke-opacity="0.31916812" stroke-linecap="round" stroke-linejoin="round"/>
    <path d="M 488.58343505859375 476.45111083984375 C 477.11065673828125 510.0243835449219 472.53802490234375 511.1015319824219 448.79510498046875 493.27886962890625 C 426.1998596191406 488.2647399902344 421.2391052246094 483.9559020996094 417.9638366699219 476.329833984375 C 418.3893737792969 448.7432556152344 414.0345764160156 442.753173828125 451.0051574707031 453.8926086425781 C 461.7728576660156 446.8038024902344 471.6664123535156 419.91180419921875 488.58343505859375 476.45111083984375" stroke-width="0.0" fill="rgb(255, 255, 247)" opacity="0.7370718" stroke="rgb(40, 212, 35)" stroke-opacity="0.31381083" stroke-linecap="round" stroke-linejoin="round"/>
    <path d="M 92.31388854980469 422.0116271972656 C 85.28654479980469 483.12274169921875 62.88389587402344 469.13934326171875 17.18116569519043 462.38531494140625 C 10.700224876403809 463.23345947265625 12.141495704650879 452.2082214355469 0.606256365776062 453.84515380859375 C -8.999038696289062 437.1128845214844 -10.029047966003418 419.3056640625 11.01406478881836 425.6820068359375 C 35.40823745727539 423.3983459472656 48.62217330932617 427.92730712890625 92.31388854980469 422.0116271972656" stroke-width="0.0" fill="rgb(255, 246, 232)" opacity="0.52303976" stroke="rgb(221, 89, 88)" stroke-opacity="0.26428735" stroke-linecap="round" stroke-linejoin="round"/>
    <path d="M 46.03754425048828 468.0736389160156 C 41.086952209472656 480.552490234375 54.540775299072266 478.8099365234375 4.876749515533447 479.0108642578125 C -4.438454627990723 478.61529541015625 8.19161605834961 482.8782043457031 -7.810704708099365 448.8707580566406 C 0.23548758029937744 434.2303466796875 9.566387176513672 440.3055419921875 29.192184448242188 454.05255126953125 C 36.81901168823242 463.3301696777344 38.89657974243164 462.47369384765625 46.03754425048828 468.0736389160156" stroke-width="0.0" fill="rgb(248, 243, 227)" opacity="0.806727" stroke="rgb(202, 184, 236)" stroke-opacity="0.9912843" stroke-linecap="round" stroke-linejoin="round"/>
    <path d="M 461.6692810058594 451.4342346191406 C 433.219482421875 462.2314453125 432.75579833984375 467.017578125 418.14007568359375 477.47418212890625 C 398.5274963378906 475.3385009765625 402.73101806640625 479.3922424316406 401.8745422363281 457.60943603515625 C 408.282958984375 443.34771728515625 418.3976135253906 439.55963134765625 429.0930480957031 437.5920715332031 C 435.9891357421875 436.9510803222656 448.4544982910156 436.13134765625 461.6692810058594 451.4342346191406" stroke-width="0.0" fill="rgb(255, 255, 246)" opacity="0.7386257" stroke="rgb(181, 48, 120)" stroke-opacity="0.67400265" stroke-linecap="round" stroke-linejoin="round"/>
    <path d="M 482.0111999511719 508.9909973144531 C 461.3887023925781 508.8524475097656 452.5817565917969 509.12396240234375 424.5721130371094 508.7884826660156 C 417.6976623535156 507.7802429199219 414.8004150390625 510.0546569824219 424.2503356933594 496.6260986328125 C 425.9784851074219 484.27935791015625 420.2840270996094 481.25909423828125 439.75103759765625 475.0777587890625 C 458.4009094238281 473.884033203125 468.86724853515625 472.0959167480469 482.0111999511719 508.9909973144531" stroke-width="0.0" fill="rgb(254, 247, 234)" opacity="0.84759456" stroke="rgb(190, 8, 19)" stroke-opacity="0.007831093" stroke-linecap="round" stroke-linejoin="round"/>
    <path d="M 277.218505859375 319.233642578125 C 271.6962585449219 339.04815673828125 300.29095458984375 332.90655517578125 201.63441467285156 334.111572265625 C 217.36300659179688 295.5450134277344 104.18470764160156 347.7642822265625 43.23756790161133 292.89593505859375 C 162.45372009277344 279.09954833984375 252.0381622314453 278.8381652832031 395.0294494628906 289.8442077636719 C 400.7986755371094 332.99969482421875 395.6459655761719 316.0261535644531 277.218505859375 319.233642578125" stroke-width="0.0" fill="rgb(255, 90, 110)" opacity="0.7417949" stroke="rgb(120, 132, 37)" stroke-opacity="0.20599057" stroke-linecap="round" stroke-linejoin="round"/>
    <path d="M 186.034912109375 259.4617614746094 C 123.4599380493164 263.77899169921875 101.07318878173828 261.7831115722656 109.27632141113281 267.7096252441406 C 41.231788635253906 266.3744812011719 37.4785270690918 262.780029296875 43.78120803833008 254.5398712158203 C 62.524871826171875 249.02398681640625 98.24596405029297 235.37062072753906 77.39675903320312 248.7197723388672 C 395.1092529296875 231.26437377929688 353.2976379394531 262.3067321777344 186.034912109375 259.4617614746094" stroke-width="0.0" fill="rgb(17, 86, 110)" opacity="0.97816545" stroke="rgb(201, 23, 79)" stroke-opacity="0.015528644" stroke-linecap="round" stroke-linejoin="round"/>
    <path d="M 72.26065063476562 399.00457763671875 C 72.19940185546875 428.31158447265625 62.443843841552734 420.2334899902344 50.954315185546875 426.0166015625 C 40.20961380004883 410.8542175292969 30.080739974975586 427.0458984375 38.21657180786133 393.14111328125 C 22.642913818359375 409.21575927734375 47.413639068603516 399.65911865234375 69.46522521972656 403.5411376953125 C 66.40023803710938 391.1531982421875 74.88713836669922 394.29595947265625 72.26065063476562 399.00457763671875" stroke-width="0.0" fill="rgb(6, 97, 123)" opacity="0.9020083" stroke="rgb(71, 200, 9)" stroke-opacity="0.8736102" stroke-linecap="round" stroke-linejoin="round"/>
    <path d="M 255.78147888183594 312.6086120605469 C 256.7770690917969 334.41204833984375 256.2337646484375 331.8092346191406 218.8830108642578 332.3636169433594 C 214.9655303955078 331.6947326660156 214.5260772705078 331.57330322265625 217.07196044921875 332.0389709472656 C 226.06942749023438 308.5502624511719 228.49771118164062 307.46539306640625 257.2012939453125 309.8214111328125 C 258.6068420410156 301.08599853515625 257.9896545410156 300.9856262207031 255.78147888183594 312.6086120605469" stroke-width="0.0" fill="rgb(193, 43, 64)" opacity="0.99835485" stroke="rgb(223, 69, 55)" stroke-opacity="0.58817524" stroke-linecap="round" stroke-linejoin="round"/>
    <path d="M 431.2406921386719 258.70989990234375 C 429.2693176269531 264.6147155761719 429.72857666015625 262.29681396484375 394.197265625 267.5429992675781 C 368.74951171875 259.98333740234375 360.1404113769531 275.1964416503906 376.3417053222656 241.1732177734375 C 376.7087707519531 237.2071533203125 382.5154113769531 240.52371215820312 404.87139892578125 246.9187469482422 C 429.0159606933594 255.17181396484375 430.4690246582031 253.5547637939453 431.2406921386719 258.70989990234375" stroke-width="0.0" fill="rgb(18, 92, 117)" opacity="0.9832609" stroke="rgb(221, 85, 39)" stroke-opacity="0.16478842" stroke-linecap="round" stroke-linejoin="round"/>
    <path d="M 355.0773620605469 449.9884033203125 C 341.8779602050781 461.8803405761719 337.5853576660156 468.3887939453125 332.6850280761719 471.3342590332031 C 255.76194763183594 507.5574951171875 215.1993408203125 442.3975830078125 297.1163330078125 443.4703063964844 C 327.9416198730469 478.2355651855469 322.4815368652344 448.295654296875 340.8150329589844 454.3745422363281 C 352.0278625488281 447.19305419921875 350.9326171875 444.8362731933594 355.0773620605469 449.9884033203125" stroke-width="0.0" fill="rgb(226, 219, 200)" opacity="1.0" stroke="rgb(92, 96, 118)" stroke-opacity="0.39338472" stroke-linecap="round" stroke-linejoin="round"/>
    <path d="M 369.8833923339844 446.7770080566406 C 371.3580627441406 467.11529541015625 386.4097900390625 450.50311279296875 339.615966796875 455.8960266113281 C 334.3759765625 463.26861572265625 335.1971740722656 462.2309875488281 339.3503112792969 456.7056884765625 C 333.7245178222656 444.8907775878906 343.13323974609375 436.68194580078125 353.287109375 435.3779296875 C 369.34466552734375 433.6721496582031 370.8970642089844 433.5700988769531 369.8833923339844 446.7770080566406" stroke-width="0.0" fill="rgb(233, 225, 207)" opacity="1.0" stroke="rgb(166, 97, 84)" stroke-opacity="0.59038854" stroke-linecap="round" stroke-linejoin="round"/>
    <path d="M 78.14950561523438 267.05291748046875 C 76.15583801269531 315.23431396484375 77.58792877197266 323.0058288574219 78.35127258300781 319.123291015625 C -8.604660987854004 314.8324279785156 -12.548498153686523 339.4932556152344 -15.329379081726074 241.73777770996094 C 20.00998306274414 196.432861328125 65.43169403076172 208.18905639648438 40.03116226196289 262.21124267578125 C 90.3425521850586 268.65899658203125 75.24958038330078 267.2332763671875 78.14950561523438 267.05291748046875" stroke-width="0.0" fill="rgb(171, 200, 220)" opacity="0.8150214" stroke="rgb(9, 64, 124)" stroke-opacity="0.6768269" stroke-linecap="round" stroke-linejoin="round"/>
    <path d="M 383.45147705078125 200.35546875 C 285.00531005859375 191.57135009765625 208.28939819335938 195.1241912841797 235.70306396484375 194.91397094726562 C 189.5966339111328 192.9548797607422 101.17540740966797 200.1957244873047 88.63445281982422 200.20401000976562 C 210.4844970703125 186.1229705810547 258.2539367675781 192.43011474609375 295.37451171875 190.04156494140625 C 217.2720489501953 193.0749969482422 304.8514099121094 186.17068481445312 383.45147705078125 200.35546875" stroke-width="0.0" fill="rgb(211, 60, 81)" opacity="0.9600263" stroke="rgb(10, 27, 145)" stroke-opacity="0.86535424" stroke-linecap="round" stroke-linejoin="round"/>
    <path d="M 438.4494934082031 226.8552703857422 C 435.3057556152344 224.5983428955078 427.8683776855469 224.25086975097656 397.3333435058594 225.0358123779297 C 357.80682373046875 215.48226928710938 376.4352111816406 227.3688201904297 380.8949279785156 212.881591796875 C 399.51824951171875 206.1928253173828 393.1739501953125 203.31838989257812 394.0877380371094 199.9058380126953 C 402.7601013183594 205.206787109375 412.7528381347656 209.15634155273438 438.4494934082031 226.8552703857422" stroke-width="0.0" fill="rgb(255, 241, 242)" opacity="0.8302586" stroke="rgb(165, 53, 36)" stroke-opacity="0.36781555" stroke-linecap="round" stroke-linejoin="round"/>
    <path d="M 260.0946960449219 304.7740478515625 C 245.6876983642578 323.07086181640625 250.50184631347656 333.71923828125 217.42742919921875 330.6927185058594 C 216.80303955078125 335.0715637207031 216.9840545654297 330.5295715332031 217.0756072998047 306.11737060546875 C 216.90284729003906 302.3554992675781 225.2459716796875 298.0479431152344 241.35655212402344 298.0450744628906 C 251.71266174316406 299.0559387207031 258.14605712890625 300.9102478027344 260.0946960449219 304.7740478515625" stroke-width="0.0" fill="rgb(202, 50, 71)" opacity="1.0" stroke="rgb(124, 26, 171)" stroke-opacity="0.15267944" stroke-linecap="round" stroke-linejoin="round"/>
    <path d="M 100.58969116210938 229.19586181640625 C 93.3842544555664 227.4219512939453 100.8638916015625 238.00559997558594 93.99410247802734 238.68275451660156 C 62.68031311035156 247.42227172851562 62.010398864746094 253.015625 56.38825988769531 237.73797607421875 C 64.4998779296875 209.46646118164062 57.497886657714844 203.09512329101562 76.52236938476562 203.87249755859375 C 100.94171905517578 220.61062622070312 103.17713928222656 222.69911193847656 100.58969116210938 229.19586181640625" stroke-width="0.0" fill="rgb(206, 204, 215)" opacity="0.9472312" stroke="rgb(227, 218, 218)" stroke-opacity="0.041114908" stroke-linecap="round" stroke-linejoin="round"/>
    <path d="M 371.3583984375 394.8495788574219 C 370.396484375 428.2786560058594 368.4114685058594 407.3674621582031 363.859130859375 427.9387512207031 C 345.5223083496094 416.4151611328125 336.73260498046875 441.739990234375 332.5413818359375 394.995849609375 C 365.2650146484375 400.40142822265625 363.1322326660156 401.0962219238281 344.03985595703125 400.8620910644531 C 359.2861328125 404.7679138183594 352.9471740722656 399.02911376953125 371.3583984375 394.8495788574219" stroke-width="0.0" fill="rgb(24, 104, 128)" opacity="0.97362196" stroke="rgb(208, 226, 106)" stroke-opacity="0.38247868" stroke-linecap="round" stroke-linejoin="round"/>
    <path d="M 234.50714111328125 475.5666809082031 C 225.672607421875 465.1875915527344 217.16256713867188 466.1746520996094 212.19305419921875 472.8901672363281 C 211.51611328125 469.9405517578125 211.34913635253906 462.1100769042969 200.7323455810547 455.2783203125 C 200.86392211914062 454.6919860839844 205.9596710205078 443.8971252441406 193.38888549804688 430.68572998046875 C 236.7954559326172 435.61358642578125 233.40951538085938 447.5539245605469 234.50714111328125 475.5666809082031" stroke-width="0.0" fill="rgb(125, 192, 217)" opacity="1.0" stroke="rgb(172, 152, 198)" stroke-opacity="0.95052874" stroke-linecap="round" stroke-linejoin="round"/>
    <path d="M 260.8019714355469 315.12103271484375 C 260.4468078613281 336.76129150390625 261.43133544921875 331.7554626464844 258.31866455078125 332.4454040527344 C 235.19752502441406 332.2362365722656 231.24057006835938 332.568115234375 235.86476135253906 332.2461853027344 C 237.04220581054688 304.0015563964844 237.29307556152344 298.8730163574219 249.9642791748047 301.3750305175781 C 263.483642578125 300.0368957519531 259.9673767089844 306.8996887207031 260.8019714355469 315.12103271484375" stroke-width="0.0" fill="rgb(200, 49, 71)" opacity="1.0" stroke="rgb(89, 60, 95)" stroke-opacity="0.17864475" stroke-linecap="round" stroke-linejoin="round"/>
    <path d="M 261.7130432128906 450.8994445800781 C 259.9247131347656 453.83575439453125 256.59979248046875 459.2159423828125 258.3067626953125 457.8026428222656 C 239.47035217285156 460.16485595703125 251.69082641601562 480.9513244628906 228.7468719482422 469.5440368652344 C 193.4384002685547 417.6162414550781 218.2576446533203 413.5746154785156 291.7093505859375 440.9755859375 C 290.8874816894531 444.3599548339844 275.42742919921875 437.1174011230469 261.7130432128906 450.8994445800781" stroke-width="0.0" fill="rgb(127, 193, 215)" opacity="1.0" stroke="rgb(226, 94, 58)" stroke-opacity="0.7833107" stroke-linecap="round" stroke-linejoin="round"/>
    <path d="M 421.0968017578125 252.99815368652344 C 287.4754943847656 243.47105407714844 239.5217742919922 243.7403106689453 158.26942443847656 246.46524047851562 C 266.6450500488281 241.1934356689453 149.45896911621094 246.4894256591797 55.15898513793945 252.45814514160156 C 164.65101623535156 236.89682006835938 288.2909851074219 242.02598571777344 316.24951171875 242.88131713867188 C 223.77377319335938 242.07601928710938 339.1662292480469 240.1241912841797 421.0968017578125 252.99815368652344" stroke-width="0.0" fill="rgb(218, 60, 78)" opacity="0.9378077" stroke="rgb(91, 161, 145)" stroke-opacity="0.27573445" stroke-linecap="round" stroke-linejoin="round"/>
    <path d="M 368.1961669921875 403.3802490234375 C 350.7362976074219 401.7681884765625 343.8994445800781 403.4753723144531 361.47705078125 402.63848876953125 C 355.2870178222656 402.4313049316406 351.57208251953125 402.1155090332031 336.1914367675781 403.31512451171875 C 337.2599182128906 392.5746765136719 332.9140319824219 397.190673828125 345.3769226074219 396.128173828125 C 374.7001953125 397.81597900390625 366.6129150390625 392.07525634765625 368.1961669921875 403.3802490234375" stroke-width="0.0" fill="rgb(227, 200, 165)" opacity="0.93253833" stroke="rgb(67, 234, 44)" stroke-opacity="0.8427694" stroke-linecap="round" stroke-linejoin="round"/>
  </g>
</svg>
