<?xml version="1.0" ?>
<svg xmlns="http://www.w3.org/2000/svg" version="1.1" width="473" height="512">
  <defs/>
  <g>
    <path d="M 351.1112365722656 147.7277374267578 C 299.849609375 197.9639434814453 350.2105407714844 165.54580688476562 433.91253662109375 224.11781311035156 C 47.18373489379883 193.74147033691406 199.39735412597656 249.1250762939453 122.94969940185547 146.2264404296875 C 166.5075225830078 125.19519805908203 210.34750366210938 112.55821228027344 239.9768524169922 78.91753387451172 C 253.1506805419922 105.19390869140625 256.1949768066406 100.82842254638672 351.1112365722656 147.7277374267578" stroke-width="0.0" fill="rgb(0, 89, 120)" opacity="0.8302693" stroke="rgb(51, 80, 92)" stroke-opacity="0.50924313" stroke-linecap="round" stroke-linejoin="round"/>
    <path d="M 409.3652038574219 167.21505737304688 C 272.3985290527344 117.45269775390625 214.61572265625 93.63655090332031 248.53416442871094 35.90927505493164 C 226.80331420898438 26.840078353881836 221.07081604003906 26.97252082824707 201.40805053710938 26.938505172729492 C 194.1553192138672 -14.027388572692871 199.719970703125 -10.708166122436523 244.39175415039062 -11.480145454406738 C 326.9530944824219 -31.309436798095703 389.81292724609375 -90.78842163085938 409.3652038574219 167.21505737304688" stroke-width="0.0" fill="rgb(255, 227, 219)" opacity="0.7178816" stroke="rgb(46, 211, 43)" stroke-opacity="0.4120359" stroke-linecap="round" stroke-linejoin="round"/>
    <path d="M 261.0414733886719 35.96510696411133 C 223.59938049316406 87.38630676269531 239.048095703125 98.83064270019531 132.67361450195312 141.33224487304688 C 28.019142150878906 233.3512725830078 -18.93260383605957 214.24452209472656 -2.9651710987091064 0.6599676609039307 C 111.8243179321289 -24.75503921508789 130.51483154296875 -9.550048828125 161.44212341308594 -15.059595108032227 C 224.40512084960938 -4.032761573791504 235.21942138671875 -1.1358773708343506 261.0414733886719 35.96510696411133" stroke-width="0.0" fill="rgb(246, 201, 222)" opacity="0.6097244" stroke="rgb(10, 220, 9)" stroke-opacity="0.15610082" stroke-linecap="round" stroke-linejoin="round"/>
    <path d="M 250.50318908691406 281.9850158691406 C 242.9365234375 283.00396728515625 228.6878204345703 282.330322265625 200.08648681640625 282.9056396484375 C 134.8155517578125 283.48968505859375 125.2384262084961 284.9789123535156 76.62200927734375 288.98956298828125 C 89.03713989257812 183.79693603515625 65.72527313232422 192.48793029785156 136.6809539794922 191.2171630859375 C 201.66171264648438 219.5728759765625 212.5794219970703 214.83169555664062 250.50318908691406 281.9850158691406" stroke-width="0.0" fill="rgb(4, 112, 148)" opacity="0.8209055" stroke="rgb(128, 176, 252)" stroke-opacity="0.90633744" stroke-linecap="round" stroke-linejoin="round"/>
    <path d="M 334.4654846191406 415.0813293457031 C 385.6990661621094 449.6611022949219 426.1651611328125 527.8470458984375 368.5862121582031 538.0084228515625 C 71.22941589355469 546.4088134765625 32.136383056640625 592.48486328125 32.855587005615234 426.6313781738281 C 207.28570556640625 407.2032165527344 187.0258026123047 432.4327087402344 218.18414306640625 421.0057678222656 C 294.39227294921875 417.38360595703125 254.3650665283203 431.56890869140625 334.4654846191406 415.0813293457031" stroke-width="0.0" fill="rgb(255, 255, 237)" opacity="0.63064224" stroke="rgb(129, 175, 85)" stroke-opacity="0.656567" stroke-linecap="round" stroke-linejoin="round"/>
    <path d="M 336.66778564453125 467.5261535644531 C 232.9903106689453 415.7200927734375 260.04534912109375 456.737548828125 245.99549865722656 484.48419189453125 C 219.60496520996094 471.6860046386719 217.56436157226562 462.4134521484375 199.61814880371094 433.142578125 C 147.68470764160156 417.06207275390625 139.73248291015625 425.0212097167969 339.1587219238281 422.05859375 C 307.8239440917969 395.3941345214844 425.8095397949219 371.44775390625 336.66778564453125 467.5261535644531" stroke-width="0.0" fill="rgb(0, 121, 165)" opacity="0.4883642" stroke="rgb(49, 59, 170)" stroke-opacity="0.043169513" stroke-linecap="round" stroke-linejoin="round"/>
    <path d="M 393.8498229980469 290.21392822265625 C 217.94970703125 273.9724426269531 227.9400634765625 295.3155212402344 237.0297393798828 254.20040893554688 C 148.77647399902344 245.5968780517578 147.2259979248047 246.9693603515625 95.25992584228516 263.72235107421875 C 85.84478759765625 164.6257781982422 127.132080078125 180.09848022460938 207.48199462890625 191.25514221191406 C 366.7115478515625 175.4635772705078 418.95703125 255.19125366210938 393.8498229980469 290.21392822265625" stroke-width="0.0" fill="rgb(71, 101, 126)" opacity="1.0" stroke="rgb(203, 119, 190)" stroke-opacity="0.94077104" stroke-linecap="round" stroke-linejoin="round"/>
    <path d="M 431.3509826660156 484.01727294921875 C 444.9204406738281 488.39666748046875 473.90972900390625 501.8311767578125 460.5032958984375 519.7435302734375 C 382.1322937011719 525.064697265625 384.7585144042969 513.564208984375 370.1337890625 485.86077880859375 C 386.04974365234375 462.6689147949219 405.1937255859375 474.3268737792969 421.0793151855469 466.7886962890625 C 436.65118408203125 462.5924377441406 432.3111572265625 474.52777099609375 431.3509826660156 484.01727294921875" stroke-width="0.0" fill="rgb(250, 242, 225)" opacity="0.8809602" stroke="rgb(139, 148, 139)" stroke-opacity="0.31916812" stroke-linecap="round" stroke-linejoin="round"/>
    <path d="M 489.74688720703125 474.7962646484375 C 477.07135009765625 510.0923767089844 472.3658142089844 511.49237060546875 448.57354736328125 493.4825439453125 C 426.1998596191406 488.2647399902344 421.2391052246094 483.9559020996094 417.9672546386719 476.3811950683594 C 418.4681091308594 449.0297546386719 414.1421203613281 443.070068359375 439.67498779296875 448.98675537109375 C 468.5209655761719 447.3245544433594 481.840576171875 422.0589904785156 489.74688720703125 474.7962646484375" stroke-width="0.0" fill="rgb(255, 255, 244)" opacity="0.7012186" stroke="rgb(40, 212, 35)" stroke-opacity="0.31381083" stroke-linecap="round" stroke-linejoin="round"/>
    <path d="M 90.78543090820312 426.3370666503906 C 69.0157699584961 476.3050231933594 51.94664764404297 466.8965759277344 16.587892532348633 461.85693359375 C 10.700224876403809 463.23345947265625 12.141495704650879 452.2082214355469 0.6511436700820923 453.9009094238281 C -8.553691864013672 437.014404296875 -9.935249328613281 420.0504150390625 10.17581844329834 425.3907775878906 C 39.82387161254883 424.3704528808594 50.354408264160156 425.5721130371094 90.78543090820312 426.3370666503906" stroke-width="0.0" fill="rgb(255, 248, 234)" opacity="0.561728" stroke="rgb(221, 89, 88)" stroke-opacity="0.26428735" stroke-linecap="round" stroke-linejoin="round"/>
    <path d="M 45.18101501464844 465.22174072265625 C 38.952980041503906 481.639892578125 49.85246658325195 478.585205078125 4.991621017456055 479.0376892089844 C -4.489530563354492 478.3394775390625 8.135254859924316 484.1249084472656 -7.397458076477051 448.4960021972656 C 0.23548758029937744 434.2303466796875 9.566387176513672 440.3055419921875 29.239246368408203 454.0401916503906 C 37.27674102783203 463.24200439453125 39.60060501098633 462.0881652832031 45.18101501464844 465.22174072265625" stroke-width="0.0" fill="rgb(250, 246, 230)" opacity="0.7920814" stroke="rgb(202, 184, 236)" stroke-opacity="0.9912843" stroke-linecap="round" stroke-linejoin="round"/>
    <path d="M 459.4190979003906 450.98419189453125 C 433.0690612792969 461.8341064453125 432.74755859375 466.99591064453125 418.4078369140625 477.6834411621094 C 399.7733459472656 475.61334228515625 402.5842590332031 478.4371337890625 401.9280090332031 457.3364562988281 C 408.7286071777344 443.5094909667969 417.8758544921875 440.3080139160156 425.8746337890625 438.05865478515625 C 438.2051086425781 438.2763671875 447.7946472167969 434.9640808105469 459.4190979003906 450.98419189453125" stroke-width="0.0" fill="rgb(255, 255, 245)" opacity="0.80844235" stroke="rgb(181, 48, 120)" stroke-opacity="0.67400265" stroke-linecap="round" stroke-linejoin="round"/>
    <path d="M 481.8487854003906 509.03204345703125 C 461.0153503417969 508.91046142578125 452.39337158203125 509.1837158203125 424.54083251953125 508.808837890625 C 417.7065734863281 507.7308349609375 414.8162536621094 510.0804748535156 424.25390625 496.6135559082031 C 425.94970703125 484.2698059082031 420.2763977050781 481.23358154296875 439.7626037597656 475.09051513671875 C 458.3995056152344 473.8658447265625 468.8724060058594 472.0928649902344 481.8487854003906 509.03204345703125" stroke-width="0.0" fill="rgb(255, 249, 235)" opacity="0.82874435" stroke="rgb(190, 8, 19)" stroke-opacity="0.007831093" stroke-linecap="round" stroke-linejoin="round"/>
    <path d="M 277.1480407714844 319.2324523925781 C 272.5277404785156 338.98095703125 298.37017822265625 332.7941589355469 199.39840698242188 334.07012939453125 C 223.52032470703125 285.8937683105469 140.2279510498047 354.9230041503906 65.35212707519531 290.6410217285156 C 176.68919372558594 279.5763244628906 234.3066864013672 278.54730224609375 394.2713928222656 289.9894714355469 C 403.11627197265625 333.5572204589844 384.7908020019531 315.7723388671875 277.1480407714844 319.2324523925781" stroke-width="0.0" fill="rgb(255, 84, 105)" opacity="0.71088034" stroke="rgb(120, 132, 37)" stroke-opacity="0.20599057" stroke-linecap="round" stroke-linejoin="round"/>
    <path d="M 169.8053436279297 260.22869873046875 C 128.1449737548828 264.61962890625 99.92208099365234 260.6166687011719 109.41727447509766 269.53497314453125 C 39.331668853759766 263.68487548828125 37.90980529785156 263.74029541015625 43.85177993774414 254.25474548339844 C 62.884647369384766 249.94390869140625 98.37713623046875 232.2562713623047 93.8471450805664 250.7199249267578 C 355.5223083496094 232.6148223876953 316.8364562988281 263.5952453613281 169.8053436279297 260.22869873046875" stroke-width="0.0" fill="rgb(16, 85, 109)" opacity="0.93256193" stroke="rgb(201, 23, 79)" stroke-opacity="0.015528644" stroke-linecap="round" stroke-linejoin="round"/>
  </g>
</svg>
