<?xml version="1.0" ?>
<svg xmlns="http://www.w3.org/2000/svg" version="1.1" width="473" height="512">
  <defs/>
  <g>
    <path d="M 351.3993835449219 146.9654083251953 C 304.9929504394531 196.37628173828125 341.7584228515625 167.74107360839844 422.0113220214844 215.3201904296875 C 53.43246841430664 180.98687744140625 171.466796875 247.21621704101562 124.47564697265625 146.2619171142578 C 166.15264892578125 124.00224304199219 211.24472045898438 114.22624969482422 239.79539489746094 76.56159210205078 C 249.89105224609375 101.43209075927734 257.5414123535156 104.59507751464844 351.3993835449219 146.9654083251953" stroke-width="0.0" fill="rgb(10, 78, 108)" opacity="0.80212134" stroke="rgb(51, 80, 92)" stroke-opacity="0.50924313" stroke-linecap="round" stroke-linejoin="round"/>
    <path d="M 397.71734619140625 149.65988159179688 C 269.37603759765625 135.36013793945312 241.00265502929688 87.06344604492188 256.2871398925781 28.141162872314453 C 226.93446350097656 26.784717559814453 221.07398986816406 26.968341827392578 201.40805053710938 26.938398361206055 C 194.1553192138672 -14.027388572692871 199.719970703125 -10.708166122436523 242.9987335205078 -11.324095726013184 C 318.583740234375 -27.77390480041504 375.9151916503906 -79.64820098876953 397.71734619140625 149.65988159179688" stroke-width="0.0" fill="rgb(255, 255, 217)" opacity="0.18656562" stroke="rgb(46, 211, 43)" stroke-opacity="0.4120359" stroke-linecap="round" stroke-linejoin="round"/>
    <path d="M 271.06451416015625 47.649662017822266 C 223.92579650878906 88.42255401611328 232.4681396484375 100.98019409179688 134.41500854492188 140.77294921875 C 19.156404495239258 195.6665496826172 -10.467300415039062 192.6377410888672 0.9879475831985474 -1.7853351831436157 C 111.8601303100586 -24.57948875427246 130.51487731933594 -9.548788070678711 161.40951538085938 -15.052176475524902 C 223.8308868408203 -3.7534282207489014 233.13397216796875 0.8976173996925354 271.06451416015625 47.649662017822266" stroke-width="0.0" fill="rgb(251, 131, 189)" opacity="0.19401932" stroke="rgb(10, 220, 9)" stroke-opacity="0.15610082" stroke-linecap="round" stroke-linejoin="round"/>
  </g>
</svg>
