<?xml version="1.0" ?>
<svg xmlns="http://www.w3.org/2000/svg" version="1.1" width="508" height="512">
  <defs/>
  <g>
    <path d="M 393.08038330078125 7.935862064361572 C 181.6627655029297 77.26014709472656 298.5350036621094 10.882862091064453 236.7924346923828 179.1856231689453 C 56.6931266784668 294.84112548828125 217.09226989746094 262.69354248046875 5.644659996032715 169.34388732910156 C 5.322632312774658 -60.86268997192383 5.763533115386963 27.29966926574707 5.430854797363281 7.944167613983154 C 166.15872192382812 7.9464569091796875 178.8041534423828 7.959072113037109 393.08038330078125 7.935862064361572" stroke-width="0.0" fill="rgb(35, 99, 111)" opacity="0.45178774" stroke="rgb(67, 120, 236)" stroke-opacity="0.18485513" stroke-linecap="round" stroke-linejoin="round"/>
    <path d="M 500.25579833984375 163.96923828125 C 504.1064758300781 343.3594665527344 546.3399658203125 346.1764221191406 93.93783569335938 328.4541015625 C 148.7222137451172 31.534353256225586 321.8459777832031 124.77346801757812 306.7574768066406 66.27388763427734 C 309.6582946777344 33.18315887451172 248.87159729003906 47.318180084228516 299.0752868652344 38.189449310302734 C 336.9293518066406 153.34646606445312 449.9942321777344 19.22526741027832 500.25579833984375 163.96923828125" stroke-width="0.0" fill="rgb(82, 106, 114)" opacity="0.49301997" stroke="rgb(115, 233, 49)" stroke-opacity="0.20424166" stroke-linecap="round" stroke-linejoin="round"/>
    <path d="M 502.2614440917969 164.77703857421875 C 363.16107177734375 33.11265563964844 410.29864501953125 52.556461334228516 358.5804748535156 85.75651550292969 C 334.5073547363281 106.46390533447266 317.16522216796875 67.6129150390625 266.6026611328125 9.968523979187012 C 299.89178466796875 6.584517955780029 305.34552001953125 8.699380874633789 502.3913269042969 7.959550380706787 C 502.1954650878906 14.383528709411621 502.35858154296875 -32.49241256713867 502.2614440917969 164.77703857421875" stroke-width="0.0" fill="rgb(129, 165, 168)" opacity="0.8862397" stroke="rgb(40, 207, 78)" stroke-opacity="0.51973474" stroke-linecap="round" stroke-linejoin="round"/>
    <path d="M 371.3447570800781 276.2408752441406 C 303.56158447265625 280.7803039550781 315.4743347167969 286.41912841796875 371.0980224609375 283.26806640625 C 239.1409149169922 347.7435607910156 337.8227844238281 304.1653747558594 305.0011901855469 276.56787109375 C 273.2055969238281 129.68539428710938 322.00335693359375 329.8164978027344 314.13470458984375 228.81617736816406 C 355.101806640625 223.65199279785156 294.90130615234375 264.856689453125 371.3447570800781 276.2408752441406" stroke-width="0.0" fill="rgb(255, 248, 230)" opacity="0.8591114" stroke="rgb(227, 81, 56)" stroke-opacity="0.9346501" stroke-linecap="round" stroke-linejoin="round"/>
    <path d="M 376.7236328125 249.85867309570312 C 340.40032958984375 209.5344696044922 367.1905822753906 245.4480438232422 345.06658935546875 247.99307250976562 C 329.79351806640625 271.83258056640625 346.2261962890625 224.26283264160156 331.3875732421875 232.19979858398438 C 230.71017456054688 232.93264770507812 231.02316284179688 236.41746520996094 333.6551208496094 199.77487182617188 C 377.5919189453125 230.13653564453125 378.6478576660156 183.63050842285156 376.7236328125 249.85867309570312" stroke-width="0.0" fill="rgb(255, 248, 231)" opacity="0.91839737" stroke="rgb(225, 186, 61)" stroke-opacity="0.9791398" stroke-linecap="round" stroke-linejoin="round"/>
    <path d="M 169.2357635498047 294.0886535644531 C 74.12933349609375 284.53436279296875 188.49029541015625 291.0853576660156 159.39608764648438 267.4435729980469 C 99.27137756347656 245.3137969970703 172.1149444580078 333.605224609375 94.45850372314453 291.9923095703125 C 139.31039428710938 234.42982482910156 94.96570587158203 259.41741943359375 189.90304565429688 249.5300750732422 C 159.43569946289062 254.06825256347656 171.54852294921875 238.60696411132812 169.2357635498047 294.0886535644531" stroke-width="0.0" fill="rgb(255, 248, 231)" opacity="0.9486429" stroke="rgb(59, 48, 99)" stroke-opacity="0.08912784" stroke-linecap="round" stroke-linejoin="round"/>
    <path d="M 374.27301025390625 369.40838623046875 C 366.18804931640625 369.3409118652344 351.1901550292969 369.3918151855469 303.6031188964844 369.4203796386719 C 293.8207702636719 399.8162536621094 331.05902099609375 303.7962341308594 289.0475158691406 237.08999633789062 C 301.1201171875 387.0168762207031 256.90655517578125 344.31268310546875 364.567138671875 351.085205078125 C 363.2373352050781 270.7241516113281 374.5377197265625 229.22679138183594 374.27301025390625 369.40838623046875" stroke-width="0.0" fill="rgb(54, 61, 80)" opacity="1.0" stroke="rgb(66, 126, 60)" stroke-opacity="0.07902328" stroke-linecap="round" stroke-linejoin="round"/>
    <path d="M 116.17500305175781 294.3232421875 C 59.34345245361328 306.67535400390625 25.452411651611328 300.06158447265625 36.55939865112305 307.4411315917969 C -4.065789222717285 312.06158447265625 7.469240188598633 325.7430419921875 5.324599742889404 253.12486267089844 C 4.295465469360352 260.2875671386719 1.832651972770691 258.0858154296875 68.76683807373047 258.3607177734375 C 78.14083862304688 258.5118103027344 69.31529998779297 252.02210998535156 116.17500305175781 294.3232421875" stroke-width="0.0" fill="rgb(199, 64, 6)" opacity="0.30387" stroke="rgb(92, 59, 212)" stroke-opacity="0.50154555" stroke-linecap="round" stroke-linejoin="round"/>
    <path d="M 127.77571868896484 157.9897003173828 C 124.23104858398438 288.4766845703125 138.3646697998047 262.12939453125 98.85663604736328 245.53392028808594 C 49.58124923706055 221.65786743164062 43.093929290771484 216.8173828125 34.19644546508789 202.9227752685547 C 7.609774589538574 161.87353515625 -19.956424713134766 161.6791534423828 51.33690643310547 164.00613403320312 C 113.52635192871094 161.25161743164062 124.78585815429688 162.63450622558594 127.77571868896484 157.9897003173828" stroke-width="0.0" fill="rgb(248, 244, 229)" opacity="1.0" stroke="rgb(41, 34, 15)" stroke-opacity="0.6276863" stroke-linecap="round" stroke-linejoin="round"/>
    <path d="M 250.6658172607422 353.30352783203125 C 234.50424194335938 430.0940856933594 282.9730529785156 471.5382385253906 236.63522338867188 417.9934387207031 C 179.01165771484375 426.7314453125 170.07176208496094 426.1820373535156 3.9676458835601807 422.8452453613281 C 49.53046417236328 306.60394287109375 85.28447723388672 418.8940124511719 201.60589599609375 398.81219482421875 C 166.5735626220703 252.39886474609375 326.04229736328125 343.8043212890625 250.6658172607422 353.30352783203125" stroke-width="0.0" fill="rgb(114, 143, 145)" opacity="0.593791" stroke="rgb(151, 227, 226)" stroke-opacity="0.9581098" stroke-linecap="round" stroke-linejoin="round"/>
    <path d="M 98.30813598632812 277.2344970703125 C 57.86353302001953 250.92913818359375 47.81239700317383 204.09478759765625 26.338653564453125 249.38519287109375 C 2.5151586532592773 257.8585205078125 5.7008490562438965 276.7373046875 5.495028018951416 214.7021026611328 C 6.371577739715576 145.38926696777344 0.5935838222503662 181.74160766601562 24.23155403137207 173.72227478027344 C 106.02296447753906 173.64718627929688 98.40637969970703 147.35008239746094 98.30813598632812 277.2344970703125" stroke-width="0.0" fill="rgb(203, 65, 6)" opacity="0.3008112" stroke="rgb(251, 142, 112)" stroke-opacity="0.8719731" stroke-linecap="round" stroke-linejoin="round"/>
    <path d="M 24.21132469177246 307.99981689453125 C 39.02422332763672 311.923095703125 34.504966735839844 295.0113525390625 35.588348388671875 342.3636779785156 C -5.288411617279053 339.9774475097656 7.880029678344727 352.7837829589844 5.181090354919434 308.51422119140625 C 40.147491455078125 312.24627685546875 17.773181915283203 272.66827392578125 21.785316467285156 276.8338623046875 C 19.693965911865234 289.43243408203125 20.726686477661133 274.1151428222656 24.21132469177246 307.99981689453125" stroke-width="0.0" fill="rgb(11, 103, 147)" opacity="0.62649316" stroke="rgb(1, 151, 248)" stroke-opacity="0.16250825" stroke-linecap="round" stroke-linejoin="round"/>
    <path d="M 503.26483154296875 504.4143371582031 C 386.260986328125 503.8038635253906 428.0264587402344 505.87530517578125 120.1375961303711 504.676513671875 C 89.3495864868164 501.7136535644531 66.20553588867188 524.44287109375 79.52320098876953 421.568115234375 C 222.3447723388672 452.27850341796875 215.65809631347656 383.4538269042969 291.22174072265625 388.0768127441406 C 552.8843383789062 355.93951416015625 494.2867431640625 230.4412078857422 503.26483154296875 504.4143371582031" stroke-width="0.0" fill="rgb(117, 138, 145)" opacity="0.7743465" stroke="rgb(32, 195, 144)" stroke-opacity="0.993289" stroke-linecap="round" stroke-linejoin="round"/>
    <path d="M 135.05807495117188 165.3129119873047 C 39.14412307739258 219.35794067382812 34.8433952331543 216.6175079345703 11.283116340637207 241.3557891845703 C 3.3010942935943604 235.7845001220703 8.554155349731445 237.74021911621094 5.93680477142334 173.36917114257812 C 9.304412841796875 159.6783447265625 -11.501538276672363 164.083251953125 69.40487670898438 162.90940856933594 C 112.05078887939453 160.17776489257812 83.1173095703125 169.34364318847656 135.05807495117188 165.3129119873047" stroke-width="0.0" fill="rgb(212, 182, 164)" opacity="0.7835969" stroke="rgb(131, 64, 184)" stroke-opacity="0.11268463" stroke-linecap="round" stroke-linejoin="round"/>
    <path d="M 144.05975341796875 385.47808837890625 C 69.19456481933594 437.3780517578125 90.97510528564453 384.8471984863281 86.72132110595703 303.20697021484375 C 25.59609031677246 302.558349609375 75.13578796386719 308.099853515625 47.405921936035156 274.83770751953125 C 24.123075485229492 277.2636413574219 32.13145065307617 284.05023193359375 41.28266143798828 262.9548034667969 C 22.729440689086914 276.1879577636719 159.62042236328125 257.29046630859375 144.05975341796875 385.47808837890625" stroke-width="0.0" fill="rgb(80, 153, 182)" opacity="0.71936965" stroke="rgb(172, 178, 102)" stroke-opacity="0.085812464" stroke-linecap="round" stroke-linejoin="round"/>
    <path d="M 502.9922790527344 430.6800231933594 C 463.46099853515625 431.7734680175781 452.90496826171875 430.7978820800781 439.9862060546875 431.245361328125 C 416.5246887207031 430.5776672363281 405.58251953125 431.8864440917969 235.25350952148438 430.7347412109375 C 235.4755096435547 414.7049560546875 238.4730682373047 421.0106201171875 417.40716552734375 419.5322570800781 C 523.8756713867188 421.1775207519531 498.7289733886719 414.37646484375 502.9922790527344 430.6800231933594" stroke-width="0.0" fill="rgb(26, 23, 44)" opacity="0.8719835" stroke="rgb(178, 101, 231)" stroke-opacity="0.2893465" stroke-linecap="round" stroke-linejoin="round"/>
    <path d="M 153.72491455078125 204.50843811035156 C 153.93026733398438 233.60008239746094 153.58334350585938 241.85354614257812 153.85903930664062 251.9019775390625 C 116.07083129882812 250.3279571533203 130.31588745117188 254.2157440185547 127.3338394165039 250.8833770751953 C 129.2115478515625 193.75401306152344 125.62014770507812 157.47105407714844 128.52133178710938 51.63331985473633 C 156.00860595703125 134.31068420410156 155.34852600097656 199.4475555419922 153.72491455078125 204.50843811035156" stroke-width="0.0" fill="rgb(4, 0, 28)" opacity="0.6106116" stroke="rgb(220, 112, 1)" stroke-opacity="0.3278554" stroke-linecap="round" stroke-linejoin="round"/>
    <path d="M 119.7829360961914 420.51617431640625 C 51.21494674682617 419.1644287109375 122.08375549316406 423.19085693359375 62.160762786865234 423.2894592285156 C 70.37847137451172 421.2992248535156 40.94005584716797 382.9052429199219 35.80731964111328 450.9584655761719 C -13.079876899719238 380.35321044921875 -15.007699966430664 406.4688720703125 106.95654296875 400.13262939453125 C 126.27054595947266 405.59246826171875 131.0124053955078 378.5665588378906 119.7829360961914 420.51617431640625" stroke-width="0.0" fill="rgb(43, 42, 61)" opacity="1.0" stroke="rgb(1, 218, 39)" stroke-opacity="0.3746213" stroke-linecap="round" stroke-linejoin="round"/>
    <path d="M 289.73974609375 255.07627868652344 C 290.481689453125 301.4064636230469 281.545166015625 289.50506591796875 285.48046875 267.8115234375 C 261.49639892578125 273.41949462890625 262.9646301269531 271.2602233886719 262.53802490234375 254.8587188720703 C 270.8304443359375 212.37060546875 251.39678955078125 203.18348693847656 286.5540466308594 215.95416259765625 C 272.1314392089844 243.88104248046875 280.3282775878906 270.9973449707031 289.73974609375 255.07627868652344" stroke-width="0.0" fill="rgb(255, 255, 239)" opacity="0.94556445" stroke="rgb(93, 102, 171)" stroke-opacity="0.032208826" stroke-linecap="round" stroke-linejoin="round"/>
    <path d="M 405.4674377441406 431.7416076660156 C 405.22283935546875 443.47344970703125 410.5209655761719 438.0136413574219 355.3326721191406 440.4143981933594 C 313.0923156738281 439.0702819824219 318.5765686035156 443.9925842285156 317.0269775390625 431.9508972167969 C 329.7402038574219 431.1579284667969 349.7734375 432.6324157714844 333.6509704589844 431.7464904785156 C 353.47772216796875 431.883544921875 375.54217529296875 431.4329833984375 405.4674377441406 431.7416076660156" stroke-width="0.0" fill="rgb(251, 242, 224)" opacity="0.96874136" stroke="rgb(63, 120, 87)" stroke-opacity="0.47868872" stroke-linecap="round" stroke-linejoin="round"/>
    <path d="M 458.2440185546875 238.12278747558594 C 525.2080078125 260.36602783203125 512.7479858398438 327.8939208984375 371.5818786621094 291.224365234375 C 374.4099426269531 278.0004577636719 387.2244873046875 227.21435546875 363.21954345703125 130.0403289794922 C 408.897216796875 145.20721435546875 390.4603576660156 190.22283935546875 395.6055908203125 213.00746154785156 C 479.2934265136719 219.7307891845703 451.734375 198.3257293701172 458.2440185546875 238.12278747558594" stroke-width="0.0" fill="rgb(53, 62, 81)" opacity="0.9491951" stroke="rgb(150, 10, 177)" stroke-opacity="0.2360537" stroke-linecap="round" stroke-linejoin="round"/>
    <path d="M 279.8697814941406 153.7361602783203 C 281.6157531738281 284.0508728027344 273.0804443359375 243.48008728027344 151.6873321533203 253.974365234375 C 155.93309020996094 258.9466247558594 151.7788848876953 248.3482666015625 153.84922790527344 156.7774200439453 C 157.2421112060547 182.49183654785156 133.20272827148438 143.79615783691406 245.63880920410156 154.08897399902344 C 238.6514892578125 155.46568298339844 240.36500549316406 176.13629150390625 279.8697814941406 153.7361602783203" stroke-width="0.0" fill="rgb(255, 213, 185)" opacity="0.6345383" stroke="rgb(54, 212, 35)" stroke-opacity="0.65173703" stroke-linecap="round" stroke-linejoin="round"/>
    <path d="M 455.1127624511719 295.421630859375 C 441.20269775390625 240.69039916992188 492.8592224121094 306.1994934082031 423.4560241699219 291.78643798828125 C 433.3355407714844 296.2809753417969 430.5462951660156 313.9790954589844 370.279296875 302.7679443359375 C 415.9306945800781 272.99652099609375 450.052490234375 279.81964111328125 545.8088989257812 243.33706665039062 C 413.1113586425781 183.65109252929688 475.00433349609375 238.12503051757812 455.1127624511719 295.421630859375" stroke-width="0.0" fill="rgb(255, 221, 195)" opacity="0.7748134" stroke="rgb(63, 96, 150)" stroke-opacity="0.023848712" stroke-linecap="round" stroke-linejoin="round"/>
    <path d="M 307.93023681640625 383.1934814453125 C 309.6073913574219 430.0731201171875 303.8550109863281 385.0265197753906 301.44219970703125 413.6906433105469 C 420.05352783203125 405.5467224121094 447.88763427734375 424.424072265625 295.87744140625 418.57672119140625 C 296.3121337890625 384.44659423828125 295.74114990234375 379.1600036621094 295.72705078125 381.89910888671875 C 350.7749938964844 383.281494140625 341.83038330078125 384.315673828125 307.93023681640625 383.1934814453125" stroke-width="0.0" fill="rgb(248, 214, 197)" opacity="1.0" stroke="rgb(105, 40, 21)" stroke-opacity="0.72319067" stroke-linecap="round" stroke-linejoin="round"/>
    <path d="M 193.32090759277344 411.897705078125 C 207.55615234375 422.5089111328125 219.9840850830078 420.18304443359375 155.485107421875 420.5935363769531 C 99.05087280273438 419.08355712890625 119.61931610107422 429.60638427734375 115.95489501953125 383.5757751464844 C 135.21804809570312 374.7690734863281 119.65132141113281 407.6322937011719 125.68350219726562 400.4693298339844 C 181.26512145996094 404.23712158203125 166.90577697753906 393.24005126953125 193.32090759277344 411.897705078125" stroke-width="0.0" fill="rgb(38, 40, 60)" opacity="0.98204505" stroke="rgb(199, 17, 34)" stroke-opacity="0.058350466" stroke-linecap="round" stroke-linejoin="round"/>
    <path d="M 282.65057373046875 263.6679382324219 C 275.51934814453125 279.40869140625 292.1921081542969 275.8169250488281 291.5908203125 286.68597412109375 C 248.85890197753906 290.5479431152344 281.8816833496094 279.22564697265625 258.806396484375 281.8668518066406 C 260.38641357421875 248.61398315429688 259.8728332519531 246.09132385253906 261.8838806152344 251.1063232421875 C 290.8394470214844 260.191650390625 295.60845947265625 249.20237731933594 282.65057373046875 263.6679382324219" stroke-width="0.0" fill="rgb(250, 241, 222)" opacity="0.97725135" stroke="rgb(28, 151, 205)" stroke-opacity="0.20668499" stroke-linecap="round" stroke-linejoin="round"/>
    <path d="M 141.91709899902344 504.9925231933594 C 90.51361846923828 505.0081787109375 89.36115264892578 504.84619140625 83.89933013916016 504.9331970214844 C 5.334303379058838 504.8298645019531 3.152050256729126 505.155029296875 5.581567764282227 504.801025390625 C 5.536814212799072 407.3140869140625 5.670094966888428 396.94677734375 22.259990692138672 423.4111328125 C 54.43850326538086 418.9465637207031 108.68984985351562 434.6517639160156 141.91709899902344 504.9925231933594" stroke-width="0.0" fill="rgb(107, 142, 155)" opacity="1.0" stroke="rgb(126, 74, 150)" stroke-opacity="0.4311886" stroke-linecap="round" stroke-linejoin="round"/>
    <path d="M 247.7168426513672 412.5000915527344 C 213.6856231689453 411.9769287109375 269.4302062988281 425.55633544921875 190.6619415283203 418.9052429199219 C 176.7910919189453 413.1884765625 172.12489318847656 427.5982666015625 171.67747497558594 402.59515380859375 C 169.47482299804688 400.1846923828125 174.488525390625 401.7532958984375 240.37213134765625 400.657958984375 C 242.00938415527344 247.55030822753906 253.7390899658203 371.10089111328125 247.7168426513672 412.5000915527344" stroke-width="0.0" fill="rgb(41, 38, 56)" opacity="0.9343025" stroke="rgb(64, 99, 80)" stroke-opacity="0.8672947" stroke-linecap="round" stroke-linejoin="round"/>
    <path d="M 372.5931701660156 395.8550109863281 C 371.744140625 418.134521484375 378.0221252441406 410.2015380859375 357.06524658203125 411.63653564453125 C 356.0675048828125 410.747802734375 356.202392578125 416.3652038574219 356.3637390136719 391.3305358886719 C 356.13409423828125 388.3750305175781 357.81561279296875 381.0299987792969 364.8923645019531 380.00640869140625 C 371.05999755859375 381.2914733886719 372.8277893066406 385.8824768066406 372.5931701660156 395.8550109863281" stroke-width="0.0" fill="rgb(42, 40, 59)" opacity="0.9591615" stroke="rgb(249, 44, 209)" stroke-opacity="0.74371547" stroke-linecap="round" stroke-linejoin="round"/>
    <path d="M 114.24348449707031 292.589599609375 C 120.16583251953125 307.5503234863281 117.64865112304688 302.40032958984375 111.0279541015625 303.53802490234375 C 79.95866394042969 302.40704345703125 92.48173522949219 308.47393798828125 88.55628967285156 287.8699645996094 C 88.97928619384766 277.287841796875 80.50650024414062 274.4241943359375 89.58849334716797 276.1421203613281 C 102.06591796875 277.88275146484375 108.6073226928711 283.2288818359375 114.24348449707031 292.589599609375" stroke-width="0.0" fill="rgb(33, 32, 53)" opacity="0.913394" stroke="rgb(237, 226, 199)" stroke-opacity="0.4126483" stroke-linecap="round" stroke-linejoin="round"/>
    <path d="M 240.38211059570312 356.046142578125 C 231.01300048828125 327.5480651855469 271.0075378417969 435.3291015625 193.9754638671875 396.99517822265625 C 225.80987548828125 327.9129638671875 209.59410095214844 368.1781921386719 196.30294799804688 388.3006591796875 C 217.94300842285156 249.01016235351562 93.2657241821289 257.66400146484375 255.56552124023438 252.1567840576172 C 282.61871337890625 397.0181579589844 269.6473693847656 334.8259582519531 240.38211059570312 356.046142578125" stroke-width="0.0" fill="rgb(27, 111, 160)" opacity="0.48153973" stroke="rgb(117, 12, 158)" stroke-opacity="0.15597242" stroke-linecap="round" stroke-linejoin="round"/>
  </g>
</svg>
