<?xml version="1.0" ?>
<svg xmlns="http://www.w3.org/2000/svg" version="1.1" width="508" height="512">
  <defs/>
  <g>
    <path d="M 392.939697265625 7.932260513305664 C 180.40504455566406 77.20915222167969 298.49102783203125 12.597966194152832 237.29165649414062 179.1708221435547 C 56.76630783081055 294.90069580078125 217.0662841796875 262.7781066894531 5.638493061065674 169.2578125 C 5.327889442443848 -60.86369705200195 5.768073558807373 27.29787826538086 5.420028209686279 7.935464859008789 C 166.15872192382812 7.93248176574707 178.8041534423828 7.947576522827148 392.939697265625 7.932260513305664" stroke-width="0.0" fill="rgb(32, 98, 111)" opacity="0.46078724" stroke="rgb(67, 120, 236)" stroke-opacity="0.18485513" stroke-linecap="round" stroke-linejoin="round"/>
    <path d="M 500.2989196777344 167.4953155517578 C 505.8380126953125 345.9928894042969 551.7105102539062 348.1504211425781 92.30679321289062 332.59942626953125 C 150.7561492919922 30.251506805419922 321.196044921875 122.37529754638672 306.811767578125 67.13246154785156 C 309.85125732421875 33.16558074951172 248.95184326171875 46.89736557006836 299.0351257324219 38.408512115478516 C 337.6199035644531 153.75489807128906 451.5109558105469 17.424463272094727 500.2989196777344 167.4953155517578" stroke-width="0.0" fill="rgb(89, 117, 124)" opacity="0.5130933" stroke="rgb(115, 233, 49)" stroke-opacity="0.20424166" stroke-linecap="round" stroke-linejoin="round"/>
    <path d="M 502.26190185546875 164.96055603027344 C 363.00146484375 32.69630813598633 409.97845458984375 52.881317138671875 358.7667236328125 85.6706771850586 C 334.3228454589844 106.14004516601562 317.5436096191406 67.29954528808594 265.704833984375 9.721689224243164 C 299.7965087890625 6.790985107421875 305.3213806152344 8.570626258850098 502.3699645996094 7.9352617263793945 C 502.2114562988281 14.383238792419434 502.3831787109375 -32.49613952636719 502.26190185546875 164.96055603027344" stroke-width="0.0" fill="rgb(129, 166, 169)" opacity="0.8892125" stroke="rgb(40, 207, 78)" stroke-opacity="0.51973474" stroke-linecap="round" stroke-linejoin="round"/>
    <path d="M 371.26336669921875 276.23455810546875 C 301.9910888671875 280.4658203125 317.5213928222656 286.7388000488281 369.8319091796875 283.24395751953125 C 238.0694122314453 348.5828552246094 338.1839599609375 304.9358215332031 305.0320129394531 276.4570617675781 C 270.77630615234375 120.95738220214844 331.17864990234375 319.66815185546875 310.7871398925781 223.71359252929688 C 356.5159912109375 228.5375518798828 295.00341796875 264.718017578125 371.26336669921875 276.23455810546875" stroke-width="0.0" fill="rgb(255, 248, 230)" opacity="0.8842737" stroke="rgb(227, 81, 56)" stroke-opacity="0.9346501" stroke-linecap="round" stroke-linejoin="round"/>
    <path d="M 376.6403503417969 249.7810516357422 C 340.6792297363281 209.78965759277344 367.0624084472656 244.98887634277344 345.05279541015625 248.0652313232422 C 329.8294677734375 271.988525390625 347.1932373046875 217.61695861816406 328.9019470214844 234.44317626953125 C 233.25086975097656 230.48443603515625 232.65208435058594 231.55563354492188 334.15704345703125 200.72593688964844 C 376.3441162109375 229.99876403808594 379.1814880371094 183.0259552001953 376.6403503417969 249.7810516357422" stroke-width="0.0" fill="rgb(255, 248, 231)" opacity="0.9326493" stroke="rgb(225, 186, 61)" stroke-opacity="0.9791398" stroke-linecap="round" stroke-linejoin="round"/>
    <path d="M 168.7900848388672 294.0282897949219 C 74.57755279541016 284.26727294921875 187.95176696777344 292.2897033691406 159.51947021484375 267.56573486328125 C 98.4861831665039 246.12295532226562 173.770263671875 330.4358825683594 92.82037353515625 294.07232666015625 C 139.7054443359375 234.61805725097656 96.10734558105469 259.03070068359375 188.6150665283203 249.68284606933594 C 157.5989532470703 254.69723510742188 173.3643341064453 238.07008361816406 168.7900848388672 294.0282897949219" stroke-width="0.0" fill="rgb(255, 248, 231)" opacity="0.9550151" stroke="rgb(59, 48, 99)" stroke-opacity="0.08912784" stroke-linecap="round" stroke-linejoin="round"/>
    <path d="M 374.23797607421875 369.35906982421875 C 366.22552490234375 369.37640380859375 351.1856384277344 369.3730773925781 303.5874938964844 369.4320373535156 C 293.9439697265625 399.6142578125 331.07537841796875 303.1371765136719 289.06298828125 237.01217651367188 C 301.09381103515625 386.91278076171875 257.0267333984375 344.3622741699219 364.5774841308594 351.0453186035156 C 363.1568908691406 270.38079833984375 374.6793518066406 229.13494873046875 374.23797607421875 369.35906982421875" stroke-width="0.0" fill="rgb(54, 61, 81)" opacity="1.0" stroke="rgb(66, 126, 60)" stroke-opacity="0.07902328" stroke-linecap="round" stroke-linejoin="round"/>
    <path d="M 115.86463928222656 294.5805969238281 C 55.899620056152344 307.969970703125 26.91185188293457 299.08587646484375 36.458168029785156 307.59466552734375 C -4.007445335388184 311.21734619140625 7.507360935211182 327.0491027832031 5.359468936920166 252.50039672851562 C 4.296574592590332 260.73284912109375 1.2724990844726562 257.95526123046875 75.7363052368164 258.3505554199219 C 77.1282730102539 258.49603271484375 67.26753997802734 253.01724243164062 115.86463928222656 294.5805969238281" stroke-width="0.0" fill="rgb(204, 88, 35)" opacity="0.34737217" stroke="rgb(92, 59, 212)" stroke-opacity="0.50154555" stroke-linecap="round" stroke-linejoin="round"/>
    <path d="M 127.71102142333984 157.80027770996094 C 124.47300720214844 291.721923828125 137.65380859375 264.8201904296875 100.61445617675781 243.90914916992188 C 49.71999740600586 221.3840789794922 43.08670425415039 216.8274688720703 33.66363525390625 202.9411163330078 C 6.813344955444336 160.53900146484375 -21.027297973632812 161.69984436035156 57.02210235595703 164.11561584472656 C 117.73200225830078 160.64320373535156 123.6461410522461 162.69651794433594 127.71102142333984 157.80027770996094" stroke-width="0.0" fill="rgb(248, 244, 229)" opacity="1.0" stroke="rgb(41, 34, 15)" stroke-opacity="0.6276863" stroke-linecap="round" stroke-linejoin="round"/>
    <path d="M 250.49954223632812 352.67926025390625 C 234.8789825439453 430.8178405761719 282.1217956542969 471.0257873535156 243.25897216796875 413.1622314453125 C 180.38999938964844 427.7900390625 172.16758728027344 423.4812927246094 4.81043004989624 424.5298156738281 C 48.323272705078125 302.8134460449219 82.27139282226562 419.2464904785156 200.86264038085938 398.73883056640625 C 168.9644775390625 251.3968963623047 326.4172058105469 348.6372375488281 250.49954223632812 352.67926025390625" stroke-width="0.0" fill="rgb(95, 124, 128)" opacity="0.5366665" stroke="rgb(151, 227, 226)" stroke-opacity="0.9581098" stroke-linecap="round" stroke-linejoin="round"/>
    <path d="M 98.3542709350586 278.6446228027344 C 58.256221771240234 250.0276336669922 47.29676818847656 204.25619506835938 26.392297744750977 249.58053588867188 C 3.528646469116211 256.25921630859375 5.420963764190674 279.4997863769531 5.537319183349609 213.03834533691406 C 6.009982109069824 141.7047882080078 1.7344861030578613 183.7806854248047 21.508544921875 173.78945922851562 C 108.84095001220703 173.90103149414062 97.8220443725586 147.06854248046875 98.3542709350586 278.6446228027344" stroke-width="0.0" fill="rgb(199, 59, 0)" opacity="0.29585537" stroke="rgb(251, 142, 112)" stroke-opacity="0.8719731" stroke-linecap="round" stroke-linejoin="round"/>
    <path d="M 24.497669219970703 307.9800109863281 C 39.132694244384766 312.28729248046875 34.64954376220703 294.8106994628906 35.546600341796875 342.47900390625 C -5.139857769012451 340.0582275390625 7.956902027130127 352.8638000488281 5.246379852294922 308.4834899902344 C 39.495018005371094 312.355712890625 16.20767593383789 273.89349365234375 20.083148956298828 277.79534912109375 C 22.864545822143555 291.94281005859375 23.500507354736328 278.9479064941406 24.497669219970703 307.9800109863281" stroke-width="0.0" fill="rgb(0, 96, 142)" opacity="0.59882635" stroke="rgb(1, 151, 248)" stroke-opacity="0.16250825" stroke-linecap="round" stroke-linejoin="round"/>
    <path d="M 503.0555419921875 504.6942443847656 C 387.770263671875 502.8551025390625 431.36688232421875 505.8710632324219 120.0234603881836 504.8558349609375 C 89.38764953613281 502.1615295410156 66.24251556396484 523.9878540039062 79.54161071777344 420.3622131347656 C 208.46376037597656 452.9991455078125 214.54266357421875 381.89617919921875 292.3069152832031 388.37554931640625 C 545.757568359375 352.8302917480469 496.26904296875 222.68994140625 503.0555419921875 504.6942443847656" stroke-width="0.0" fill="rgb(131, 157, 161)" opacity="0.7293173" stroke="rgb(32, 195, 144)" stroke-opacity="0.993289" stroke-linecap="round" stroke-linejoin="round"/>
    <path d="M 136.802734375 165.5045623779297 C 34.69417190551758 212.34771728515625 34.865211486816406 216.3860626220703 11.274139404296875 241.36351013183594 C 2.9524433612823486 235.52137756347656 8.78551959991455 238.2002716064453 5.796517372131348 168.5047149658203 C 8.961939811706543 161.52737426757812 -11.93834114074707 163.4923553466797 87.10982513427734 162.97386169433594 C 117.45880126953125 160.08168029785156 66.92516326904297 168.83755493164062 136.802734375 165.5045623779297" stroke-width="0.0" fill="rgb(212, 183, 164)" opacity="0.7978316" stroke="rgb(131, 64, 184)" stroke-opacity="0.11268463" stroke-linecap="round" stroke-linejoin="round"/>
    <path d="M 143.92933654785156 385.3341369628906 C 69.6080093383789 437.01251220703125 90.77288818359375 387.58648681640625 86.79695129394531 303.27001953125 C 25.935895919799805 302.39617919921875 73.691650390625 310.2510681152344 50.87124252319336 265.34967041015625 C 24.611106872558594 271.2333679199219 28.939613342285156 278.4892578125 45.49423599243164 258.2298889160156 C 20.600269317626953 273.0599670410156 161.68687438964844 260.1502990722656 143.92933654785156 385.3341369628906" stroke-width="0.0" fill="rgb(81, 154, 184)" opacity="0.7261327" stroke="rgb(172, 178, 102)" stroke-opacity="0.085812464" stroke-linecap="round" stroke-linejoin="round"/>
    <path d="M 502.8916931152344 431.3031005859375 C 464.8138122558594 431.436767578125 452.6756591796875 431.1573486328125 427.6256103515625 431.4925842285156 C 409.3216552734375 430.7925109863281 402.6261901855469 431.9234924316406 233.48899841308594 431.0433349609375 C 243.5288543701172 414.8891296386719 214.71994018554688 420.87127685546875 397.8963928222656 419.37457275390625 C 526.6954345703125 420.9599609375 498.4422302246094 414.2657470703125 502.8916931152344 431.3031005859375" stroke-width="0.0" fill="rgb(23, 20, 42)" opacity="0.87111044" stroke="rgb(178, 101, 231)" stroke-opacity="0.2893465" stroke-linecap="round" stroke-linejoin="round"/>
    <path d="M 152.38624572753906 139.06976318359375 C 154.3948516845703 233.42872619628906 154.2519989013672 241.24537658691406 153.90664672851562 251.96144104003906 C 117.56510925292969 250.41815185546875 131.24749755859375 253.57582092285156 127.3458023071289 251.44650268554688 C 129.11517333984375 191.8705596923828 125.57769775390625 127.60398864746094 128.706298828125 50.39314651489258 C 152.1959228515625 128.493408203125 158.24761962890625 209.45530700683594 152.38624572753906 139.06976318359375" stroke-width="0.0" fill="rgb(4, 0, 28)" opacity="0.62003416" stroke="rgb(220, 112, 1)" stroke-opacity="0.3278554" stroke-linecap="round" stroke-linejoin="round"/>
    <path d="M 119.85939025878906 420.6124572753906 C 51.77610397338867 419.07269287109375 120.7766342163086 423.24188232421875 62.416385650634766 423.3111877441406 C 69.46553039550781 419.6117858886719 39.067901611328125 382.6538391113281 35.44940185546875 455.6272277832031 C -11.257113456726074 378.7528076171875 -17.71573829650879 407.0367126464844 106.9009017944336 400.0768737792969 C 124.67742156982422 405.659423828125 131.47564697265625 377.94866943359375 119.85939025878906 420.6124572753906" stroke-width="0.0" fill="rgb(43, 42, 61)" opacity="0.9990932" stroke="rgb(1, 218, 39)" stroke-opacity="0.3746213" stroke-linecap="round" stroke-linejoin="round"/>
    <path d="M 289.71636962890625 254.89556884765625 C 290.084228515625 300.1678771972656 283.75982666015625 289.4148254394531 285.2762145996094 268.2704772949219 C 262.8061828613281 264.4161071777344 264.78887939453125 269.05670166015625 264.2261047363281 257.7990417480469 C 265.435791015625 201.31324768066406 259.18072509765625 203.2078399658203 293.30230712890625 209.86859130859375 C 269.5096740722656 227.37928771972656 279.90936279296875 282.88018798828125 289.71636962890625 254.89556884765625" stroke-width="0.0" fill="rgb(253, 255, 243)" opacity="0.98530346" stroke="rgb(93, 102, 171)" stroke-opacity="0.032208826" stroke-linecap="round" stroke-linejoin="round"/>
    <path d="M 404.5439147949219 432.4110107421875 C 403.34844970703125 441.749267578125 414.7698059082031 438.8934326171875 354.6148986816406 439.871826171875 C 312.0187683105469 438.9506530761719 319.12725830078125 443.0880126953125 317.0662536621094 432.0519714355469 C 329.1947937011719 431.07977294921875 351.2490234375 432.86273193359375 334.34857177734375 431.4396057128906 C 352.8943786621094 432.2638854980469 376.7655944824219 431.2411804199219 404.5439147949219 432.4110107421875" stroke-width="0.0" fill="rgb(255, 244, 225)" opacity="0.95550334" stroke="rgb(63, 120, 87)" stroke-opacity="0.47868872" stroke-linecap="round" stroke-linejoin="round"/>
    <path d="M 458.4664306640625 222.37591552734375 C 521.862548828125 264.0840759277344 514.8275756835938 332.1220397949219 371.0095520019531 288.4875793457031 C 375.872802734375 281.9905700683594 388.069091796875 223.92269897460938 359.20220947265625 128.96124267578125 C 407.2176208496094 142.59898376464844 391.71746826171875 180.75599670410156 395.1542053222656 213.2128448486328 C 482.756591796875 218.77139282226562 450.40545654296875 203.6140594482422 458.4664306640625 222.37591552734375" stroke-width="0.0" fill="rgb(48, 54, 73)" opacity="0.9827055" stroke="rgb(150, 10, 177)" stroke-opacity="0.2360537" stroke-linecap="round" stroke-linejoin="round"/>
    <path d="M 280.1755065917969 153.29733276367188 C 280.8024597167969 287.2373962402344 279.8982238769531 243.9536895751953 152.554931640625 252.94546508789062 C 154.69442749023438 255.23919677734375 152.0612030029297 246.67942810058594 154.1051483154297 161.34060668945312 C 161.451904296875 180.60287475585938 132.01922607421875 142.05337524414062 248.0792236328125 155.10023498535156 C 235.00717163085938 154.47515869140625 243.7161102294922 177.13140869140625 280.1755065917969 153.29733276367188" stroke-width="0.0" fill="rgb(255, 212, 183)" opacity="0.6189419" stroke="rgb(54, 212, 35)" stroke-opacity="0.65173703" stroke-linecap="round" stroke-linejoin="round"/>
    <path d="M 458.7171630859375 284.0556640625 C 444.7289123535156 267.1658020019531 490.0596923828125 315.699462890625 427.3882141113281 293.1676025390625 C 437.8837890625 305.9921875 439.2195739746094 305.35699462890625 374.1904296875 305.68719482421875 C 463.1639099121094 256.0762634277344 461.68194580078125 271.3495788574219 582.80126953125 253.97511291503906 C 440.0579528808594 150.1871337890625 456.666015625 203.60763549804688 458.7171630859375 284.0556640625" stroke-width="0.0" fill="rgb(248, 217, 195)" opacity="0.8674537" stroke="rgb(63, 96, 150)" stroke-opacity="0.023848712" stroke-linecap="round" stroke-linejoin="round"/>
    <path d="M 307.9658508300781 383.3985290527344 C 309.02471923828125 430.26153564453125 305.27935791015625 385.3951416015625 301.1623840332031 413.0451354980469 C 469.85009765625 408.5561218261719 508.58941650390625 423.4316101074219 295.4216003417969 418.6607971191406 C 296.7454528808594 394.1656799316406 295.3252868652344 380.5281982421875 296.3560791015625 381.8138427734375 C 355.71405029296875 383.4253845214844 346.3408508300781 384.0727844238281 307.9658508300781 383.3985290527344" stroke-width="0.0" fill="rgb(248, 208, 191)" opacity="1.0" stroke="rgb(105, 40, 21)" stroke-opacity="0.72319067" stroke-linecap="round" stroke-linejoin="round"/>
    <path d="M 188.06475830078125 411.8404235839844 C 221.4971466064453 423.7020263671875 257.1477966308594 419.8819885253906 157.05604553222656 420.56689453125 C 99.84857177734375 418.59295654296875 119.30430603027344 429.93231201171875 116.07601165771484 383.7236022949219 C 134.5405731201172 375.3657531738281 120.1743392944336 404.7850341796875 125.8127212524414 400.43939208984375 C 201.2701416015625 404.3161315917969 149.4908905029297 391.921875 188.06475830078125 411.8404235839844" stroke-width="0.0" fill="rgb(39, 41, 60)" opacity="0.9902762" stroke="rgb(199, 17, 34)" stroke-opacity="0.058350466" stroke-linecap="round" stroke-linejoin="round"/>
    <path d="M 284.1947326660156 265.41729736328125 C 274.638916015625 277.90765380859375 288.26007080078125 271.4360046386719 291.7708435058594 286.5964050292969 C 246.9429473876953 290.6127624511719 283.6376037597656 279.04351806640625 258.407958984375 282.2031555175781 C 260.14630126953125 249.38232421875 260.8346862792969 249.39801025390625 260.3360595703125 250.5528564453125 C 291.28521728515625 261.1463623046875 294.2951965332031 247.26365661621094 284.1947326660156 265.41729736328125" stroke-width="0.0" fill="rgb(253, 243, 223)" opacity="0.96049523" stroke="rgb(28, 151, 205)" stroke-opacity="0.20668499" stroke-linecap="round" stroke-linejoin="round"/>
    <path d="M 147.783447265625 496.77166748046875 C 90.83802032470703 507.16253662109375 89.6610336303711 504.598388671875 84.21344757080078 504.9322814941406 C 5.810333728790283 504.6805725097656 4.060666084289551 505.39984130859375 5.459214687347412 503.9731140136719 C 6.255109786987305 413.5289611816406 1.97123122215271 393.7944641113281 22.509380340576172 423.63433837890625 C 60.5816650390625 420.691650390625 112.1131362915039 428.6760559082031 147.783447265625 496.77166748046875" stroke-width="0.0" fill="rgb(139, 170, 176)" opacity="1.0" stroke="rgb(126, 74, 150)" stroke-opacity="0.4311886" stroke-linecap="round" stroke-linejoin="round"/>
    <path d="M 248.30224609375 412.5823974609375 C 214.7740936279297 410.6603698730469 265.7187194824219 428.0968933105469 196.94345092773438 416.9848937988281 C 177.6693572998047 411.5377197265625 173.81214904785156 425.2734680175781 172.27114868164062 400.6641845703125 C 168.5943603515625 401.36407470703125 169.52142333984375 401.3871765136719 240.39410400390625 400.66180419921875 C 241.49258422851562 253.5945587158203 253.01101684570312 350.26129150390625 248.30224609375 412.5823974609375" stroke-width="0.0" fill="rgb(39, 35, 54)" opacity="0.91711885" stroke="rgb(64, 99, 80)" stroke-opacity="0.8672947" stroke-linecap="round" stroke-linejoin="round"/>
    <path d="M 372.63677978515625 395.9707946777344 C 371.82025146484375 418.09490966796875 378.00799560546875 409.8937683105469 356.0442199707031 411.8096923828125 C 356.7059631347656 411.59521484375 356.0936279296875 419.1139831542969 356.3140563964844 390.0650939941406 C 356.0442199707031 388.52716064453125 358.0702209472656 379.88330078125 365.350830078125 380.11407470703125 C 372.2361755371094 381.53192138671875 372.8358459472656 386.7883605957031 372.63677978515625 395.9707946777344" stroke-width="0.0" fill="rgb(33, 29, 49)" opacity="0.89224005" stroke="rgb(249, 44, 209)" stroke-opacity="0.74371547" stroke-linecap="round" stroke-linejoin="round"/>
    <path d="M 114.19947052001953 292.6484069824219 C 120.05952453613281 307.9441223144531 117.4734115600586 302.3614196777344 110.6947250366211 303.58233642578125 C 80.38765716552734 302.4422912597656 92.5723648071289 308.5769958496094 88.41193389892578 287.9946594238281 C 88.8088150024414 275.4532775878906 80.72501373291016 274.7987976074219 89.38997650146484 276.1982727050781 C 101.91460418701172 277.6686096191406 108.30015563964844 283.28289794921875 114.19947052001953 292.6484069824219" stroke-width="0.0" fill="rgb(35, 33, 54)" opacity="0.9218231" stroke="rgb(237, 226, 199)" stroke-opacity="0.4126483" stroke-linecap="round" stroke-linejoin="round"/>
    <path d="M 240.6231689453125 355.3531799316406 C 232.46987915039062 325.5438537597656 268.4519348144531 436.3587951660156 195.4911346435547 398.1417541503906 C 226.41265869140625 329.23681640625 208.7689208984375 370.9988098144531 195.53851318359375 397.2072448730469 C 217.0835723876953 269.3908386230469 88.07160949707031 258.9672546386719 256.7666320800781 251.31285095214844 C 281.78973388671875 396.8621826171875 270.4825439453125 335.8661193847656 240.6231689453125 355.3531799316406" stroke-width="0.0" fill="rgb(0, 107, 169)" opacity="0.37699044" stroke="rgb(117, 12, 158)" stroke-opacity="0.15597242" stroke-linecap="round" stroke-linejoin="round"/>
    <path d="M 471.6163024902344 419.79266357421875 C 475.0923156738281 414.35736083984375 390.21630859375 433.94671630859375 469.0556640625 388.7381591796875 C 395.3288269042969 381.6632385253906 397.9467468261719 457.8310546875 404.45550537109375 294.6597595214844 C 443.9887390136719 391.84295654296875 437.02069091796875 373.9479675292969 440.0920715332031 341.114501953125 C 467.90631103515625 330.6440124511719 428.63623046875 354.50048828125 471.6163024902344 419.79266357421875" stroke-width="0.0" fill="rgb(241, 216, 196)" opacity="1.0" stroke="rgb(83, 220, 53)" stroke-opacity="0.9435705" stroke-linecap="round" stroke-linejoin="round"/>
    <path d="M 502.3192138671875 472.56182861328125 C 499.9696350097656 497.8795166015625 510.53466796875 515.0693359375 484.15386962890625 499.2864074707031 C 451.1299133300781 499.3935241699219 449.6787414550781 497.1847839355469 441.831787109375 483.06744384765625 C 439.75531005859375 471.88665771484375 442.1573181152344 473.66815185546875 449.0136413574219 470.398681640625 C 498.1421813964844 470.9787902832031 502.81097412109375 469.7378845214844 502.3192138671875 472.56182861328125" stroke-width="0.0" fill="rgb(40, 89, 120)" opacity="0.7521787" stroke="rgb(234, 152, 48)" stroke-opacity="0.84356755" stroke-linecap="round" stroke-linejoin="round"/>
    <path d="M 505.0505065917969 321.7078552246094 C 485.7242736816406 323.5853271484375 469.40618896484375 327.2350158691406 474.41827392578125 313.016845703125 C 456.863525390625 298.3921203613281 480.5604553222656 363.0343933105469 450.8674621582031 314.1035461425781 C 453.90704345703125 292.9945068359375 452.70123291015625 295.9333190917969 480.9975280761719 295.60626220703125 C 510.4674072265625 300.16400146484375 504.0372619628906 285.8641052246094 505.0505065917969 321.7078552246094" stroke-width="0.0" fill="rgb(240, 233, 219)" opacity="1.0" stroke="rgb(39, 36, 139)" stroke-opacity="0.14792854" stroke-linecap="round" stroke-linejoin="round"/>
    <path d="M 279.7757263183594 360.8853759765625 C 278.9634704589844 381.6761474609375 282.0229797363281 375.14337158203125 273.3912658691406 376.64752197265625 C 273.3900146484375 379.50103759765625 273.31158447265625 369.2679748535156 273.4256286621094 361.0779724121094 C 273.0099792480469 367.6474609375 273.7772521972656 360.1692810058594 273.50054931640625 361.88836669921875 C 283.70916748046875 361.2372131347656 278.6443786621094 362.67156982421875 279.7757263183594 360.8853759765625" stroke-width="0.0" fill="rgb(25, 29, 53)" opacity="0.9337827" stroke="rgb(132, 94, 207)" stroke-opacity="0.30620262" stroke-linecap="round" stroke-linejoin="round"/>
    <path d="M 209.8052215576172 304.4117126464844 C 209.21971130371094 307.6510314941406 212.4691162109375 306.25677490234375 191.30923461914062 306.67132568359375 C 189.89761352539062 310.9822998046875 191.76670837402344 312.7051086425781 193.53623962402344 276.6524353027344 C 193.3717498779297 282.5838623046875 190.3221435546875 280.5633544921875 207.43907165527344 276.3888854980469 C 205.77175903320312 275.7125244140625 210.082763671875 288.87103271484375 209.8052215576172 304.4117126464844" stroke-width="0.0" fill="rgb(36, 36, 59)" opacity="0.9731871" stroke="rgb(161, 81, 167)" stroke-opacity="0.95367825" stroke-linecap="round" stroke-linejoin="round"/>
    <path d="M 464.8973083496094 331.868408203125 C 464.3578186035156 358.0594177246094 465.1451416015625 389.4517517089844 464.2800598144531 414.95538330078125 C 454.2652282714844 372.0667724609375 434.523193359375 363.9870910644531 456.2490234375 366.0438232421875 C 460.6114196777344 347.9503479003906 445.5793151855469 335.15692138671875 466.2179260253906 318.1499328613281 C 466.0977478027344 338.4362487792969 463.94769287109375 342.7740173339844 464.8973083496094 331.868408203125" stroke-width="0.0" fill="rgb(251, 245, 228)" opacity="1.0" stroke="rgb(179, 200, 71)" stroke-opacity="0.29763386" stroke-linecap="round" stroke-linejoin="round"/>
    <path d="M 257.08087158203125 503.4196472167969 C 245.18968200683594 504.15655517578125 229.1184539794922 504.8600158691406 211.27796936035156 504.513671875 C 193.73963928222656 503.836181640625 181.40623474121094 508.3583984375 162.6455535888672 490.82318115234375 C 133.02674865722656 476.9022521972656 128.89071655273438 477.8480529785156 147.29368591308594 471.57672119140625 C 243.31788635253906 470.3946533203125 250.69393920898438 467.1607971191406 257.08087158203125 503.4196472167969" stroke-width="0.0" fill="rgb(62, 105, 129)" opacity="0.93480307" stroke="rgb(117, 138, 215)" stroke-opacity="0.39457825" stroke-linecap="round" stroke-linejoin="round"/>
    <path d="M 380.7124328613281 504.2088928222656 C 352.760986328125 504.9833679199219 335.1231689453125 504.5753479003906 305.67462158203125 504.52630615234375 C 298.8693542480469 503.2437744140625 291.078125 506.4478454589844 283.4796142578125 501.225341796875 C 281.22601318359375 461.27716064453125 281.7088928222656 475.12286376953125 333.3618469238281 471.6244201660156 C 371.3580627441406 471.6465759277344 377.7139587402344 463.90576171875 380.7124328613281 504.2088928222656" stroke-width="0.0" fill="rgb(52, 93, 117)" opacity="0.942334" stroke="rgb(249, 65, 181)" stroke-opacity="0.24769036" stroke-linecap="round" stroke-linejoin="round"/>
    <path d="M 192.77601623535156 309.3345947265625 C 198.18341064453125 326.55712890625 192.12330627441406 319.2408142089844 168.31869506835938 321.2652587890625 C 154.47769165039062 375.7331848144531 163.41810607910156 267.8210754394531 144.40603637695312 355.52325439453125 C 143.54075622558594 296.19366455078125 145.8365478515625 308.3760986328125 142.11302185058594 307.09759521484375 C 184.55165100097656 307.54400634765625 188.40228271484375 306.4647521972656 192.77601623535156 309.3345947265625" stroke-width="0.0" fill="rgb(255, 255, 238)" opacity="0.9128327" stroke="rgb(14, 87, 135)" stroke-opacity="0.23992845" stroke-linecap="round" stroke-linejoin="round"/>
    <path d="M 425.7831726074219 377.742919921875 C 424.6655578613281 429.29254150390625 427.547119140625 404.6388244628906 415.3598937988281 412.76629638671875 C 398.2242126464844 407.3058776855469 404.4867248535156 421.9098815917969 401.534423828125 392.834228515625 C 391.2110595703125 379.8580322265625 396.3681945800781 367.2090148925781 404.3377685546875 389.1381530761719 C 437.37567138671875 399.6883850097656 418.5020751953125 374.12451171875 425.7831726074219 377.742919921875" stroke-width="0.0" fill="rgb(51, 50, 67)" opacity="0.9902687" stroke="rgb(166, 237, 115)" stroke-opacity="0.6434418" stroke-linecap="round" stroke-linejoin="round"/>
    <path d="M 316.0553283691406 471.7760009765625 C 287.031494140625 500.6692810058594 276.89215087890625 498.6441650390625 237.65316772460938 499.1405944824219 C 238.47732543945312 503.08099365234375 237.21109008789062 503.9682312011719 223.9736328125 471.2239685058594 C 232.48252868652344 470.5907287597656 241.8201141357422 472.30706787109375 297.52996826171875 470.0904541015625 C 274.8998107910156 465.5813903808594 283.5069885253906 470.6591796875 316.0553283691406 471.7760009765625" stroke-width="0.0" fill="rgb(89, 128, 151)" opacity="0.7900614" stroke="rgb(116, 179, 37)" stroke-opacity="0.6535675" stroke-linecap="round" stroke-linejoin="round"/>
    <path d="M 127.00285339355469 64.2937240600586 C 127.32225799560547 95.13528442382812 127.49520874023438 87.88243865966797 124.77811431884766 89.3940200805664 C 107.9336166381836 88.90963745117188 112.0999755859375 92.49454498291016 111.28565216064453 83.0932846069336 C 114.74700164794922 76.04754638671875 111.50711822509766 67.14741516113281 125.04917907714844 63.68453598022461 C 129.4930419921875 64.79036712646484 124.6585464477539 67.2067642211914 127.00285339355469 64.2937240600586" stroke-width="0.0" fill="rgb(255, 247, 225)" opacity="0.96769005" stroke="rgb(128, 148, 34)" stroke-opacity="0.114848986" stroke-linecap="round" stroke-linejoin="round"/>
    <path d="M 198.48272705078125 493.0587463378906 C 196.29428100585938 508.2188720703125 190.79470825195312 503.0539855957031 172.02757263183594 504.5963439941406 C 138.5904541015625 504.5649719238281 122.12178039550781 504.8545837402344 8.551180839538574 504.3585510253906 C -18.958953857421875 431.9744873046875 126.3910140991211 495.1830139160156 139.25350952148438 489.378662109375 C 167.38153076171875 490.8451843261719 182.28135681152344 487.6059265136719 198.48272705078125 493.0587463378906" stroke-width="0.0" fill="rgb(67, 107, 130)" opacity="0.99862623" stroke="rgb(253, 63, 197)" stroke-opacity="0.45392868" stroke-linecap="round" stroke-linejoin="round"/>
    <path d="M 334.2806701660156 501.7330017089844 C 301.3768615722656 503.29901123046875 275.4869079589844 502.16259765625 310.417724609375 504.4367370605469 C 268.9981384277344 504.59295654296875 249.39698791503906 504.8017272949219 231.8760223388672 504.42352294921875 C 244.3782958984375 476.11102294921875 251.9421844482422 480.025146484375 258.32476806640625 478.6249694824219 C 317.4732971191406 485.5308837890625 351.565673828125 496.3233947753906 334.2806701660156 501.7330017089844" stroke-width="0.0" fill="rgb(62, 101, 124)" opacity="0.970851" stroke="rgb(125, 169, 166)" stroke-opacity="0.4618401" stroke-linecap="round" stroke-linejoin="round"/>
    <path d="M 287.2180480957031 467.763427734375 C 304.41656494140625 504.4612731933594 294.93035888671875 498.5830993652344 293.9583740234375 501.8584899902344 C 313.84014892578125 486.4921875 246.30287170410156 501.90087890625 250.5282440185547 466.38531494140625 C 291.7352600097656 448.9892578125 277.1080017089844 496.92523193359375 455.71173095703125 469.0859069824219 C 316.550048828125 443.7327880859375 253.02406311035156 448.1634521484375 287.2180480957031 467.763427734375" stroke-width="0.0" fill="rgb(35, 132, 163)" opacity="0.25734636" stroke="rgb(249, 242, 184)" stroke-opacity="0.4718356" stroke-linecap="round" stroke-linejoin="round"/>
    <path d="M 484.8137512207031 499.37445068359375 C 473.40399169921875 499.6940002441406 462.1537170410156 499.60430908203125 474.53521728515625 499.581787109375 C 424.7097473144531 499.4523620605469 419.1089782714844 499.51812744140625 421.4411926269531 498.94378662109375 C 425.4234313964844 474.65478515625 433.5648498535156 476.6058044433594 437.876220703125 475.9167175292969 C 456.8374328613281 480.8198547363281 470.68243408203125 486.6281433105469 484.8137512207031 499.37445068359375" stroke-width="0.0" fill="rgb(59, 96, 120)" opacity="1.0" stroke="rgb(215, 94, 93)" stroke-opacity="0.04304218" stroke-linecap="round" stroke-linejoin="round"/>
    <path d="M 196.97064208984375 326.06048583984375 C 201.22584533691406 351.37200927734375 181.54788208007812 356.87359619140625 189.6537322998047 310.63720703125 C 171.29444885253906 326.9969177246094 193.06509399414062 345.2814025878906 172.43589782714844 336.8352966308594 C 177.01356506347656 305.8330993652344 155.4947509765625 307.6788330078125 190.0712890625 307.14794921875 C 199.8199920654297 308.5272521972656 195.79541015625 300.9656677246094 196.97064208984375 326.06048583984375" stroke-width="0.0" fill="rgb(255, 250, 234)" opacity="0.939495" stroke="rgb(57, 147, 167)" stroke-opacity="0.7173483" stroke-linecap="round" stroke-linejoin="round"/>
    <path d="M 201.13510131835938 483.9657287597656 C 197.19659423828125 495.8254699707031 190.9630126953125 489.08001708984375 135.79397583007812 488.4742736816406 C 129.92103576660156 488.0178527832031 131.26483154296875 490.35345458984375 126.26737213134766 480.46868896484375 C 146.3669891357422 480.7264099121094 162.6600341796875 480.3616638183594 156.93666076660156 480.5323791503906 C 166.77980041503906 481.0774841308594 187.30116271972656 480.5977478027344 201.13510131835938 483.9657287597656" stroke-width="0.0" fill="rgb(245, 238, 221)" opacity="0.9606696" stroke="rgb(206, 112, 52)" stroke-opacity="0.39184135" stroke-linecap="round" stroke-linejoin="round"/>
    <path d="M 206.62533569335938 286.51763916015625 C 200.7230224609375 296.6649475097656 205.94642639160156 296.3376770019531 195.9151611328125 298.5400695800781 C 192.17893981933594 299.7730712890625 194.8575897216797 293.8727111816406 191.6597442626953 306.08282470703125 C 193.70791625976562 243.30734252929688 189.82237243652344 250.8824462890625 195.11618041992188 252.96865844726562 C 198.62811279296875 263.4185485839844 211.48338317871094 272.4972229003906 206.62533569335938 286.51763916015625" stroke-width="0.0" fill="rgb(46, 48, 69)" opacity="1.0" stroke="rgb(157, 219, 1)" stroke-opacity="0.46749595" stroke-linecap="round" stroke-linejoin="round"/>
    <path d="M 348.8624572753906 393.96514892578125 C 348.03192138671875 417.2942199707031 354.1435546875 410.52044677734375 338.4676208496094 411.6628723144531 C 331.14569091796875 410.60028076171875 333.0130920410156 417.3864440917969 332.30755615234375 394.3765869140625 C 332.1063537597656 384.4593811035156 334.4678039550781 382.4600830078125 339.7411193847656 379.5742492675781 C 347.73193359375 380.9017639160156 349.174560546875 386.42938232421875 348.8624572753906 393.96514892578125" stroke-width="0.0" fill="rgb(30, 26, 47)" opacity="0.8865364" stroke="rgb(101, 204, 225)" stroke-opacity="0.927375" stroke-linecap="round" stroke-linejoin="round"/>
    <path d="M 425.0503845214844 395.00384521484375 C 403.06524658203125 371.42462158203125 429.61407470703125 387.73291015625 398.30450439453125 393.32586669921875 C 400.4488220214844 381.52325439453125 375.8379821777344 361.7996826171875 381.7879333496094 419.2987365722656 C 374.0329895019531 366.8039245605469 387.6167297363281 368.718994140625 370.9482727050781 369.0064697265625 C 441.9149169921875 371.5384826660156 423.4862060546875 358.09613037109375 425.0503845214844 395.00384521484375" stroke-width="0.0" fill="rgb(20, 19, 40)" opacity="0.84833217" stroke="rgb(109, 122, 16)" stroke-opacity="0.81986135" stroke-linecap="round" stroke-linejoin="round"/>
    <path d="M 293.7528991699219 161.1484832763672 C 293.4224853515625 203.34938049316406 298.67755126953125 227.13507080078125 284.94342041015625 210.43670654296875 C 272.7652282714844 217.37278747558594 281.50921630859375 229.24789428710938 280.28277587890625 188.71688842773438 C 280.0415954589844 148.86065673828125 281.2275695800781 131.7352752685547 278.6549072265625 125.94813537597656 C 298.21466064453125 135.38839721679688 280.7303466796875 169.33596801757812 293.7528991699219 161.1484832763672" stroke-width="0.0" fill="rgb(39, 39, 59)" opacity="0.93629724" stroke="rgb(249, 56, 148)" stroke-opacity="0.8360293" stroke-linecap="round" stroke-linejoin="round"/>
    <path d="M 459.5386657714844 330.6713562011719 C 459.35601806640625 329.9249267578125 467.5462341308594 330.95306396484375 427.12109375 329.9200134277344 C 427.0976257324219 329.38043212890625 427.4955749511719 336.0997009277344 427.20147705078125 293.1828308105469 C 428.4337158203125 293.6073303222656 420.0196228027344 293.0881652832031 461.0927429199219 293.84588623046875 C 458.81842041015625 294.1575622558594 459.3169860839844 290.21502685546875 459.5386657714844 330.6713562011719" stroke-width="0.0" fill="rgb(45, 49, 69)" opacity="0.9987125" stroke="rgb(237, 20, 64)" stroke-opacity="0.08388959" stroke-linecap="round" stroke-linejoin="round"/>
    <path d="M 314.49664306640625 252.0954132080078 C 314.3860168457031 257.96063232421875 316.1815185546875 255.616943359375 306.94866943359375 255.50169372558594 C 307.4694519042969 242.11293029785156 307.099853515625 233.5577850341797 307.6950378417969 234.95204162597656 C 308.0750427246094 242.83065795898438 305.3367004394531 232.39111328125 310.4051513671875 231.42745971679688 C 316.7856750488281 232.23782348632812 313.4722595214844 238.98846435546875 314.49664306640625 252.0954132080078" stroke-width="0.0" fill="rgb(18, 21, 45)" opacity="0.88873476" stroke="rgb(170, 11, 39)" stroke-opacity="0.5570488" stroke-linecap="round" stroke-linejoin="round"/>
    <path d="M 496.8998718261719 262.49853515625 C 493.09613037109375 310.05450439453125 509.9459228515625 291.3683166503906 458.537109375 295.6182556152344 C 458.5065612792969 276.9624938964844 460.1254577636719 271.9676818847656 462.1893615722656 269.8329772949219 C 459.2241516113281 268.2909240722656 466.595458984375 276.87921142578125 446.477783203125 262.7087097167969 C 461.3756408691406 262.36871337890625 483.8063049316406 262.6600341796875 496.8998718261719 262.49853515625" stroke-width="0.0" fill="rgb(45, 47, 66)" opacity="0.99988455" stroke="rgb(144, 61, 167)" stroke-opacity="0.3331863" stroke-linecap="round" stroke-linejoin="round"/>
    <path d="M 345.5497741699219 239.41558837890625 C 340.2643737792969 138.38645935058594 339.1404113769531 204.86752319335938 324.2362976074219 220.924072265625 C 337.8379211425781 171.22726440429688 310.0877380371094 178.0096893310547 325.90997314453125 218.90309143066406 C 306.1948547363281 217.54632568359375 319.609130859375 168.29257202148438 311.52435302734375 179.17919921875 C 344.8695983886719 169.52740478515625 361.46209716796875 150.46226501464844 345.5497741699219 239.41558837890625" stroke-width="0.0" fill="rgb(254, 248, 231)" opacity="0.9808196" stroke="rgb(145, 150, 196)" stroke-opacity="0.9454577" stroke-linecap="round" stroke-linejoin="round"/>
    <path d="M 250.41004943847656 466.4560852050781 C 250.11175537109375 503.24884033203125 248.47146606445312 500.75299072265625 249.399169921875 497.6065979003906 C 230.47091674804688 434.2206726074219 128.6751708984375 508.656005859375 55.9822998046875 472.5125427246094 C 89.98787689208984 445.2931823730469 264.0312194824219 449.61834716796875 213.45767211914062 462.0264587402344 C 267.3647766113281 466.3170471191406 263.8795166015625 458.9147033691406 250.41004943847656 466.4560852050781" stroke-width="0.0" fill="rgb(38, 108, 142)" opacity="0.34258527" stroke="rgb(15, 133, 111)" stroke-opacity="0.19678429" stroke-linecap="round" stroke-linejoin="round"/>
    <path d="M 83.40943145751953 276.188232421875 C 71.66629028320312 276.7142639160156 61.95298767089844 283.7727966308594 57.311622619628906 294.06103515625 C 44.407955169677734 293.1021728515625 40.773433685302734 297.3804931640625 22.505342483520508 286.7798156738281 C 22.418384552001953 249.01312255859375 27.40071678161621 261.8005065917969 74.91023254394531 259.0478515625 C 77.49195098876953 274.5732116699219 77.44426727294922 258.8987121582031 83.40943145751953 276.188232421875" stroke-width="0.0" fill="rgb(229, 185, 162)" opacity="0.9807757" stroke="rgb(22, 139, 49)" stroke-opacity="0.7285795" stroke-linecap="round" stroke-linejoin="round"/>
    <path d="M 458.0828552246094 261.81488037109375 C 463.6425476074219 294.32183837890625 422.99090576171875 256.46112060546875 420.6481628417969 291.4002685546875 C 402.45050048828125 237.8389892578125 415.4967956542969 332.00152587890625 401.39117431640625 290.6832275390625 C 401.59014892578125 255.4987335205078 399.4167785644531 263.8363037109375 407.90240478515625 262.66571044921875 C 454.4378356933594 262.5321960449219 462.8525390625 262.785400390625 458.0828552246094 261.81488037109375" stroke-width="0.0" fill="rgb(246, 240, 225)" opacity="1.0" stroke="rgb(198, 185, 115)" stroke-opacity="0.64309084" stroke-linecap="round" stroke-linejoin="round"/>
    <path d="M 454.6357421875 490.3251037597656 C 439.55291748046875 493.0328369140625 437.5726318359375 490.5203552246094 438.37493896484375 489.5613098144531 C 398.9693298339844 505.46429443359375 376.6654968261719 514.8650512695312 351.88232421875 471.01531982421875 C 395.4198913574219 472.3912353515625 403.9855041503906 470.42266845703125 453.71136474609375 470.5545959472656 C 453.5018310546875 462.2380676269531 454.4464111328125 449.68096923828125 454.6357421875 490.3251037597656" stroke-width="0.0" fill="rgb(80, 122, 144)" opacity="0.933315" stroke="rgb(249, 147, 161)" stroke-opacity="0.8721345" stroke-linecap="round" stroke-linejoin="round"/>
    <path d="M 374.6881408691406 164.93077087402344 C 374.5357360839844 201.85992431640625 376.66070556640625 208.80311584472656 371.7315368652344 179.6881561279297 C 350.0430603027344 177.47117614746094 338.6916198730469 178.3987579345703 315.3487548828125 178.4508514404297 C 316.69696044921875 126.35550689697266 340.8793029785156 151.0044403076172 363.8836669921875 106.25904846191406 C 348.13836669921875 147.01194763183594 369.0331726074219 115.99905395507812 374.6881408691406 164.93077087402344" stroke-width="0.0" fill="rgb(94, 152, 174)" opacity="0.93409896" stroke="rgb(100, 115, 252)" stroke-opacity="0.46929348" stroke-linecap="round" stroke-linejoin="round"/>
    <path d="M 428.4975891113281 500.4279479980469 C 424.563232421875 506.3863830566406 439.7063903808594 504.40087890625 406.771240234375 504.7723693847656 C 383.79852294921875 504.4858703613281 372.3753356933594 504.95916748046875 354.619140625 504.2372741699219 C 356.38275146484375 466.8616638183594 364.4632873535156 480.95965576171875 379.4262390136719 494.5326843261719 C 434.89239501953125 481.3335876464844 441.0393371582031 478.89532470703125 428.4975891113281 500.4279479980469" stroke-width="0.0" fill="rgb(54, 91, 115)" opacity="0.9561205" stroke="rgb(53, 164, 171)" stroke-opacity="0.093350664" stroke-linecap="round" stroke-linejoin="round"/>
  </g>
</svg>
