<?xml version="1.0" ?>
<svg xmlns="http://www.w3.org/2000/svg" version="1.1" width="508" height="512">
  <defs/>
  <g>
    <path d="M 393.5545959472656 8.025035858154297 C 192.82237243652344 85.23251342773438 287.8796691894531 -10.653924942016602 241.6480712890625 183.47731018066406 C 95.58519744873047 279.68109130859375 191.4956817626953 242.2740478515625 5.808703422546387 158.95223999023438 C 5.705866813659668 -60.8343505859375 5.752472400665283 27.34105682373047 5.658497333526611 8.129433631896973 C 166.15118408203125 8.100421905517578 178.79742431640625 8.213056564331055 393.5545959472656 8.025035858154297" stroke-width="0.0" fill="rgb(41, 94, 105)" opacity="0.5018009" stroke="rgb(67, 120, 236)" stroke-opacity="0.18485513" stroke-linecap="round" stroke-linejoin="round"/>
    <path d="M 490.0851745605469 165.21786499023438 C 528.7242431640625 330.10247802734375 550.4757080078125 331.1315002441406 130.03799438476562 315.0841369628906 C 165.3189697265625 -2.082953929901123 284.7622985839844 133.5952911376953 306.8043212890625 77.05585479736328 C 317.4322509765625 33.57047653198242 253.2827911376953 44.39338684082031 308.18768310546875 40.6632194519043 C 337.299072265625 152.35926818847656 432.87664794921875 19.326683044433594 490.0851745605469 165.21786499023438" stroke-width="0.0" fill="rgb(174, 177, 172)" opacity="0.9410849" stroke="rgb(115, 233, 49)" stroke-opacity="0.20424166" stroke-linecap="round" stroke-linejoin="round"/>
    <path d="M 502.0928955078125 170.93682861328125 C 367.09906005859375 35.70717239379883 412.0352478027344 49.63320541381836 357.9112548828125 85.740234375 C 332.8350524902344 111.79618835449219 313.3752136230469 70.78022766113281 278.8663330078125 12.283101081848145 C 301.3907470703125 7.946868896484375 305.73004150390625 8.328374862670898 499.4271545410156 8.05492115020752 C 503.2303466796875 14.993058204650879 502.05572509765625 -32.51150131225586 502.0928955078125 170.93682861328125" stroke-width="0.0" fill="rgb(129, 167, 170)" opacity="0.84057957" stroke="rgb(40, 207, 78)" stroke-opacity="0.51973474" stroke-linecap="round" stroke-linejoin="round"/>
  </g>
</svg>
