<?xml version="1.0" ?>
<svg xmlns="http://www.w3.org/2000/svg" version="1.1" width="511" height="512">
  <defs/>
  <g>
    <path d="M 522.1395874023438 165.20413208007812 C 520.324951171875 176.29428100585938 518.308349609375 176.54135131835938 446.0234069824219 184.29139709472656 C 429.459716796875 194.18661499023438 416.15643310546875 203.18634033203125 422.4976806640625 84.95278930664062 C 446.6654357910156 92.05437469482422 447.972900390625 87.42623138427734 517.0482788085938 92.2718505859375 C 523.2100219726562 125.45967864990234 522.2627563476562 131.36256408691406 522.1395874023438 165.20413208007812" stroke-width="0.0" fill="rgb(13, 143, 224)" opacity="0.26870733" stroke="rgb(43, 26, 224)" stroke-opacity="0.52777123" stroke-linecap="round" stroke-linejoin="round"/>
    <path d="M 279.21875 193.70614624023438 C 276.69000244140625 406.1636047363281 316.874267578125 377.6280517578125 17.874969482421875 381.87701416015625 C 5.69569730758667 353.0200500488281 90.1319580078125 368.40850830078125 224.57542419433594 367.5333557128906 C 210.11080932617188 357.6015319824219 197.5926513671875 345.6771545410156 191.1913299560547 340.1209716796875 C 281.5869140625 418.76580810546875 189.5523681640625 335.7744445800781 279.21875 193.70614624023438" stroke-width="0.0" fill="rgb(13, 34, 59)" opacity="0.45255825" stroke="rgb(78, 188, 231)" stroke-opacity="0.19148955" stroke-linecap="round" stroke-linejoin="round"/>
    <path d="M 89.02960968017578 229.0211181640625 C 57.08382034301758 207.0054168701172 62.7181396484375 222.63697814941406 22.780860900878906 208.8622283935547 C -15.690763473510742 207.85081481933594 -9.106011390686035 216.8413543701172 -6.619616508483887 162.65066528320312 C -6.075682163238525 132.63047790527344 -29.34410858154297 124.91389465332031 75.19733428955078 142.45059204101562 C 157.42550659179688 135.45306396484375 137.3081817626953 129.42010498046875 89.02960968017578 229.0211181640625" stroke-width="0.0" fill="rgb(255, 244, 242)" opacity="0.43388808" stroke="rgb(163, 80, 79)" stroke-opacity="0.7642911" stroke-linecap="round" stroke-linejoin="round"/>
    <path d="M 243.6214599609375 236.52984619140625 C 147.131591796875 296.8337097167969 250.75914001464844 235.88446044921875 225.566162109375 296.8802795410156 C 174.3646697998047 289.4000549316406 151.17681884765625 276.09490966796875 124.90219116210938 258.2105407714844 C 156.63551330566406 176.86740112304688 79.62809753417969 236.6170654296875 141.03341674804688 142.50003051757812 C 200.57615661621094 240.52114868164062 218.71743774414062 168.5513458251953 243.6214599609375 236.52984619140625" stroke-width="0.0" fill="rgb(0, 58, 112)" opacity="0.42993608" stroke="rgb(12, 118, 82)" stroke-opacity="0.39722192" stroke-linecap="round" stroke-linejoin="round"/>
    <path d="M 233.9242401123047 328.1331481933594 C 234.79437255859375 393.989990234375 242.2827911376953 345.30523681640625 138.16856384277344 362.585693359375 C 104.89527893066406 352.6742248535156 10.014626502990723 375.9591064453125 -25.073509216308594 327.37939453125 C 116.98583984375 258.66522216796875 49.0504264831543 312.7590637207031 156.44573974609375 301.9566650390625 C 182.80372619628906 281.6233215332031 248.52639770507812 293.1619873046875 233.9242401123047 328.1331481933594" stroke-width="0.0" fill="rgb(255, 227, 220)" opacity="0.26855707" stroke="rgb(152, 162, 196)" stroke-opacity="0.795363" stroke-linecap="round" stroke-linejoin="round"/>
    <path d="M 259.9850158691406 440.86993408203125 C 200.59115600585938 385.2377014160156 264.42108154296875 205.02536010742188 249.25811767578125 229.97708129882812 C 215.67919921875 241.30191040039062 227.01425170898438 208.77793884277344 185.04983520507812 167.27345275878906 C 221.563232421875 191.35389709472656 202.35708618164062 232.85667419433594 261.75689697265625 228.50584411621094 C 312.0567932128906 92.6021728515625 389.20867919921875 162.2633819580078 259.9850158691406 440.86993408203125" stroke-width="0.0" fill="rgb(43, 40, 40)" opacity="0.88910353" stroke="rgb(131, 209, 164)" stroke-opacity="0.7299145" stroke-linecap="round" stroke-linejoin="round"/>
    <path d="M 519.4873657226562 2.1943461894989014 C 415.8833312988281 2.1229469776153564 412.95721435546875 2.2561614513397217 429.9715576171875 2.1341211795806885 C 422.4597473144531 2.289184808731079 418.5055847167969 2.019449234008789 181.4022674560547 2.2970941066741943 C 338.1470947265625 -147.41172790527344 391.5857238769531 -28.90263557434082 429.00396728515625 -0.3885667324066162 C 441.466796875 -25.681631088256836 465.13519287109375 -72.58494567871094 519.4873657226562 2.1943461894989014" stroke-width="0.0" fill="rgb(0, 0, 7)" opacity="0.9365249" stroke="rgb(167, 20, 136)" stroke-opacity="0.41720742" stroke-linecap="round" stroke-linejoin="round"/>
    <path d="M 438.9621887207031 100.720458984375 C 359.6937255859375 110.02056121826172 376.337646484375 162.64895629882812 382.29010009765625 174.0133514404297 C 351.09814453125 104.59893035888672 363.6845703125 161.62130737304688 332.84173583984375 109.2704849243164 C 308.8275146484375 168.16661071777344 316.1246643066406 47.97209930419922 388.77874755859375 79.97042846679688 C 414.3214111328125 97.58006286621094 424.00640869140625 87.7664566040039 438.9621887207031 100.720458984375" stroke-width="0.0" fill="rgb(14, 7, 4)" opacity="0.9424539" stroke="rgb(187, 78, 78)" stroke-opacity="0.8644204" stroke-linecap="round" stroke-linejoin="round"/>
    <path d="M 306.42901611328125 378.1710205078125 C 303.0336608886719 395.5651550292969 291.8116760253906 383.30401611328125 282.4429626464844 460.7350158691406 C 256.9253845214844 458.2801818847656 261.16680908203125 415.3460693359375 252.08358764648438 377.7519226074219 C 260.2569885253906 353.1123046875 267.8708801269531 363.62353515625 276.05584716796875 333.1167907714844 C 301.5314636230469 337.3813781738281 308.3708190917969 331.4374084472656 306.42901611328125 378.1710205078125" stroke-width="0.0" fill="rgb(232, 225, 213)" opacity="0.87881196" stroke="rgb(55, 144, 154)" stroke-opacity="0.22603998" stroke-linecap="round" stroke-linejoin="round"/>
    <path d="M 313.8678283691406 314.28045654296875 C 315.3092956542969 362.6283874511719 303.69244384765625 363.8212890625 294.6178894042969 368.5802307128906 C 267.25634765625 410.1668701171875 233.518310546875 392.7496337890625 274.54730224609375 344.8841857910156 C 277.54595947265625 335.4328308105469 269.1170654296875 307.1933898925781 292.9707336425781 266.28515625 C 321.07904052734375 287.5451354980469 327.885986328125 303.909912109375 313.8678283691406 314.28045654296875" stroke-width="0.0" fill="rgb(233, 227, 215)" opacity="0.9921926" stroke="rgb(138, 128, 238)" stroke-opacity="0.4535837" stroke-linecap="round" stroke-linejoin="round"/>
    <path d="M 430.021484375 334.4461975097656 C 431.13702392578125 356.54913330078125 416.1127014160156 378.9714660644531 405.9231872558594 367.8670654296875 C 409.8934326171875 323.3719787597656 380.2812805175781 306.19561767578125 391.0698547363281 314.2184143066406 C 396.9103698730469 295.1068115234375 399.59881591796875 265.7298583984375 398.8352966308594 246.8497772216797 C 405.5558776855469 256.2714538574219 431.5135498046875 288.0030212402344 430.021484375 334.4461975097656" stroke-width="0.0" fill="rgb(25, 24, 15)" opacity="0.8249617" stroke="rgb(67, 94, 119)" stroke-opacity="0.3995831" stroke-linecap="round" stroke-linejoin="round"/>
    <path d="M 517.2918090820312 247.98252868652344 C 514.4998779296875 276.4008483886719 523.8114013671875 289.1808776855469 481.6020812988281 303.5296936035156 C 473.5298767089844 284.90008544921875 478.69036865234375 272.4737548828125 459.6542053222656 224.51629638671875 C 435.5558166503906 184.20115661621094 419.7492980957031 193.1390380859375 510.54766845703125 181.03768920898438 C 544.6990356445312 203.24005126953125 523.570556640625 227.81964111328125 517.2918090820312 247.98252868652344" stroke-width="0.0" fill="rgb(255, 249, 253)" opacity="0.24311584" stroke="rgb(61, 247, 70)" stroke-opacity="0.83066064" stroke-linecap="round" stroke-linejoin="round"/>
    <path d="M 521.1248779296875 279.3736267089844 C 486.7231750488281 321.9244689941406 488.16827392578125 268.3714294433594 540.8275756835938 358.1572265625 C 408.4913330078125 396.92279052734375 403.107666015625 329.2554626464844 474.02691650390625 303.18194580078125 C 488.2391357421875 256.7769775390625 465.6300354003906 249.3658905029297 509.2549743652344 246.11546325683594 C 517.9615478515625 250.9384002685547 519.5469360351562 254.4505157470703 521.1248779296875 279.3736267089844" stroke-width="0.0" fill="rgb(255, 231, 220)" opacity="0.29790422" stroke="rgb(172, 134, 57)" stroke-opacity="0.07404385" stroke-linecap="round" stroke-linejoin="round"/>
    <path d="M 191.27490234375 2.1587729454040527 C 86.66148376464844 2.4205307960510254 86.33556365966797 1.9915791749954224 115.39389038085938 2.4909191131591797 C 103.83829498291016 2.220555067062378 100.75817108154297 2.1598260402679443 -7.6947550773620605 2.1726808547973633 C 45.39396286010742 -72.53778839111328 72.21122741699219 -25.266284942626953 102.88196563720703 -1.4370951652526855 C 120.68403625488281 -26.348968505859375 147.72190856933594 -63.12343978881836 191.27490234375 2.1587729454040527" stroke-width="0.0" fill="rgb(0, 0, 7)" opacity="0.94159085" stroke="rgb(210, 137, 249)" stroke-opacity="0.6354131" stroke-linecap="round" stroke-linejoin="round"/>
    <path d="M 485.894775390625 268.62432861328125 C 449.1072998046875 289.8090515136719 460.72265625 282.03961181640625 459.7202453613281 341.41778564453125 C 416.04425048828125 324.2969055175781 472.77960205078125 269.8257141113281 424.24407958984375 290.2032165527344 C 378.0774230957031 201.1849822998047 379.7104187011719 199.19647216796875 440.26324462890625 194.62673950195312 C 483.5369567871094 245.6029052734375 480.73016357421875 255.19102478027344 485.894775390625 268.62432861328125" stroke-width="0.0" fill="rgb(255, 236, 234)" opacity="0.37570238" stroke="rgb(29, 214, 162)" stroke-opacity="0.832391" stroke-linecap="round" stroke-linejoin="round"/>
    <path d="M 355.2762451171875 169.92025756835938 C 335.7160949707031 175.3679656982422 339.5855712890625 191.95272827148438 316.6575927734375 213.9481964111328 C 290.1072692871094 221.98597717285156 256.2803955078125 218.5323028564453 291.55084228515625 165.69676208496094 C 331.8623962402344 147.7963409423828 313.93438720703125 59.453617095947266 327.8139343261719 149.71484375 C 351.1432189941406 155.22169494628906 352.1278076171875 154.3030548095703 355.2762451171875 169.92025756835938" stroke-width="0.0" fill="rgb(50, 50, 52)" opacity="0.8271729" stroke="rgb(17, 38, 206)" stroke-opacity="0.8557473" stroke-linecap="round" stroke-linejoin="round"/>
    <path d="M 260.2666320800781 229.3383331298828 C 241.7130126953125 262.4498291015625 245.0115966796875 301.22833251953125 237.11534118652344 238.67291259765625 C 160.77015686035156 255.95297241210938 133.4509735107422 328.08453369140625 130.96563720703125 147.69447326660156 C 204.73500061035156 237.3957061767578 239.76519775390625 212.1948699951172 243.8611297607422 187.23851013183594 C 278.2895202636719 190.9753875732422 233.25514221191406 221.97723388671875 260.2666320800781 229.3383331298828" stroke-width="0.0" fill="rgb(45, 91, 133)" opacity="0.5658375" stroke="rgb(170, 160, 84)" stroke-opacity="0.36452854" stroke-linecap="round" stroke-linejoin="round"/>
    <path d="M 390.7511901855469 190.9737091064453 C 404.6316223144531 225.52243041992188 400.29559326171875 256.0531005859375 380.76904296875 251.70443725585938 C 362.6678161621094 243.33802795410156 371.2716979980469 220.6913604736328 363.3582458496094 197.00340270996094 C 374.3063049316406 184.16297912597656 373.017822265625 175.97467041015625 378.36187744140625 135.77896118164062 C 379.0580749511719 157.54443359375 386.41278076171875 156.1893768310547 390.7511901855469 190.9737091064453" stroke-width="0.0" fill="rgb(76, 90, 78)" opacity="0.72386503" stroke="rgb(29, 212, 250)" stroke-opacity="0.34448746" stroke-linecap="round" stroke-linejoin="round"/>
    <path d="M 342.8241882324219 454.0130920410156 C 330.39453125 428.8312072753906 331.1565246582031 440.99456787109375 295.0673828125 445.309814453125 C 276.0607604980469 464.6985778808594 225.57057189941406 474.2501220703125 358.1593933105469 470.28472900390625 C 275.1949768066406 448.6769104003906 297.3724365234375 486.3125 293.0647888183594 415.2547912597656 C 338.0372009277344 422.81292724609375 361.2029113769531 418.9492492675781 342.8241882324219 454.0130920410156" stroke-width="0.0" fill="rgb(25, 23, 23)" opacity="0.7542445" stroke="rgb(183, 41, 32)" stroke-opacity="0.12644099" stroke-linecap="round" stroke-linejoin="round"/>
    <path d="M 362.6697998046875 203.36631774902344 C 354.4509582519531 219.40869140625 350.0746765136719 221.20840454101562 343.5447692871094 222.17788696289062 C 331.76080322265625 227.00521850585938 323.0086364746094 209.2373046875 329.65716552734375 203.90261840820312 C 328.83123779296875 201.22372436523438 330.5824890136719 196.39891052246094 334.976806640625 184.73245239257812 C 354.591796875 189.9998016357422 359.0025634765625 190.00437927246094 362.6697998046875 203.36631774902344" stroke-width="0.0" fill="rgb(244, 220, 132)" opacity="0.6521891" stroke="rgb(151, 40, 185)" stroke-opacity="0.7400418" stroke-linecap="round" stroke-linejoin="round"/>
    <path d="M 366.1509094238281 231.40679931640625 C 358.4624328613281 241.0703125 368.4360046386719 244.2195587158203 358.4186096191406 262.70654296875 C 333.183837890625 238.1881866455078 330.1329345703125 242.00389099121094 323.33514404296875 221.66078186035156 C 328.30230712890625 209.68702697753906 330.3445129394531 202.54336547851562 334.88055419921875 193.99180603027344 C 355.2399597167969 204.44813537597656 363.4762878417969 204.0156707763672 366.1509094238281 231.40679931640625" stroke-width="0.0" fill="rgb(237, 221, 186)" opacity="0.6767381" stroke="rgb(74, 116, 158)" stroke-opacity="0.8384637" stroke-linecap="round" stroke-linejoin="round"/>
    <path d="M 351.9180908203125 238.7344970703125 C 350.5888977050781 254.3061981201172 356.6319580078125 261.43206787109375 351.7481384277344 258.32159423828125 C 329.5696105957031 239.670166015625 322.3108215332031 231.63050842285156 323.41094970703125 219.9618682861328 C 325.64154052734375 218.6716766357422 322.5302429199219 212.3875732421875 332.3457946777344 211.7098388671875 C 331.0087890625 218.51089477539062 343.83154296875 217.89218139648438 351.9180908203125 238.7344970703125" stroke-width="0.0" fill="rgb(254, 243, 213)" opacity="0.567648" stroke="rgb(230, 24, 77)" stroke-opacity="0.44041938" stroke-linecap="round" stroke-linejoin="round"/>
    <path d="M 376.3522644042969 162.15744018554688 C 371.9398498535156 179.130859375 372.5865173339844 186.77735900878906 347.8580627441406 190.48489379882812 C 337.2099609375 188.794189453125 334.35595703125 186.489501953125 345.12420654296875 183.8492889404297 C 350.6083984375 130.16339111328125 355.2773742675781 173.0863494873047 366.7516174316406 140.27218627929688 C 373.3866271972656 147.3289794921875 372.2222595214844 153.81231689453125 376.3522644042969 162.15744018554688" stroke-width="0.0" fill="rgb(162, 131, 0)" opacity="0.73762715" stroke="rgb(189, 109, 27)" stroke-opacity="0.03504381" stroke-linecap="round" stroke-linejoin="round"/>
    <path d="M 376.340087890625 142.19834899902344 C 378.04278564453125 173.72659301757812 359.1999206542969 170.0624237060547 350.2156982421875 189.4818572998047 C 345.647705078125 181.0174102783203 350.3802795410156 177.9271240234375 348.651123046875 156.96041870117188 C 340.4060974121094 141.5088348388672 365.14276123046875 165.7135467529297 358.63067626953125 136.33230590820312 C 377.5649719238281 142.59889221191406 377.6418762207031 137.27639770507812 376.340087890625 142.19834899902344" stroke-width="0.0" fill="rgb(255, 210, 46)" opacity="0.37984622" stroke="rgb(153, 105, 143)" stroke-opacity="0.013657097" stroke-linecap="round" stroke-linejoin="round"/>
    <path d="M 350.4908447265625 114.58920288085938 C 347.5196838378906 137.72213745117188 361.418212890625 123.62828826904297 359.5525207519531 151.81259155273438 C 334.7232666015625 153.5661163330078 324.3792724609375 135.8212890625 326.83599853515625 118.33477020263672 C 331.73187255859375 111.28971099853516 335.4169616699219 103.28047180175781 345.28131103515625 102.40925598144531 C 348.1661071777344 102.16108703613281 353.9201354980469 103.62833404541016 350.4908447265625 114.58920288085938" stroke-width="0.0" fill="rgb(255, 236, 104)" opacity="0.7557214" stroke="rgb(182, 129, 55)" stroke-opacity="0.77583176" stroke-linecap="round" stroke-linejoin="round"/>
    <path d="M 357.560302734375 335.7720947265625 C 356.6412353515625 356.0179138183594 346.3117980957031 369.9501037597656 342.2403564453125 366.5857849121094 C 338.0137939453125 367.9688720703125 341.2789306640625 344.3188171386719 326.5650634765625 308.79443359375 C 302.7041320800781 253.3399200439453 249.78598022460938 245.8135528564453 326.6943664550781 237.04013061523438 C 355.09686279296875 273.63897705078125 359.1178894042969 320.17742919921875 357.560302734375 335.7720947265625" stroke-width="0.0" fill="rgb(43, 40, 38)" opacity="0.98065233" stroke="rgb(215, 184, 236)" stroke-opacity="0.5524316" stroke-linecap="round" stroke-linejoin="round"/>
    <path d="M 380.36041259765625 395.0856628417969 C 359.5721130371094 491.5661315917969 363.4689025878906 452.9615783691406 316.09613037109375 440.41064453125 C 348.6129150390625 428.1023864746094 275.6435852050781 455.728271484375 281.322021484375 460.11767578125 C 281.2702941894531 378.0255126953125 289.6042175292969 367.54278564453125 350.0558776855469 370.2723083496094 C 364.39202880859375 298.6028747558594 383.55865478515625 273.6167907714844 380.36041259765625 395.0856628417969" stroke-width="0.0" fill="rgb(148, 142, 123)" opacity="0.4840922" stroke="rgb(141, 85, 109)" stroke-opacity="0.18250512" stroke-linecap="round" stroke-linejoin="round"/>
    <path d="M 405.835693359375 282.64764404296875 C 340.3135070800781 275.0992431640625 346.8001403808594 220.4139404296875 350.373779296875 201.848388671875 C 336.7918395996094 176.1044158935547 330.26312255859375 197.21368408203125 332.27764892578125 190.5465850830078 C 339.0712890625 186.71481323242188 333.17694091796875 178.51760864257812 345.41302490234375 169.4078369140625 C 372.904296875 155.67401123046875 381.045166015625 157.54090881347656 405.835693359375 282.64764404296875" stroke-width="0.0" fill="rgb(137, 142, 135)" opacity="0.3944325" stroke="rgb(53, 147, 115)" stroke-opacity="0.36046144" stroke-linecap="round" stroke-linejoin="round"/>
    <path d="M 522.1698608398438 468.6126708984375 C 488.73870849609375 471.25018310546875 472.6274719238281 471.4267272949219 471.3028259277344 471.1051940917969 C 465.0609436035156 471.26861572265625 455.0523681640625 471.0744934082031 390.104248046875 471.68084716796875 C 408.9904479980469 446.2759094238281 430.4307556152344 467.97564697265625 417.5186767578125 463.8853759765625 C 516.372314453125 463.13690185546875 523.0706787109375 464.4363098144531 522.1698608398438 468.6126708984375" stroke-width="0.0" fill="rgb(0, 52, 94)" opacity="0.6959918" stroke="rgb(232, 12, 78)" stroke-opacity="0.4271774" stroke-linecap="round" stroke-linejoin="round"/>
    <path d="M 438.4840087890625 102.27387237548828 C 449.6009826660156 109.8361587524414 414.1856384277344 102.10847473144531 401.6662292480469 103.93311309814453 C 387.4264831542969 103.7485122680664 384.7815856933594 103.23938751220703 386.8891906738281 103.4151840209961 C 392.8877868652344 96.7334976196289 411.4034423828125 97.677734375 397.3755187988281 97.88955688476562 C 421.4116516113281 97.2436752319336 410.4817810058594 97.605712890625 438.4840087890625 102.27387237548828" stroke-width="0.0" fill="rgb(183, 89, 35)" opacity="1.0" stroke="rgb(129, 64, 78)" stroke-opacity="0.8964428" stroke-linecap="round" stroke-linejoin="round"/>
    <path d="M 376.76312255859375 456.5365295410156 C 433.12103271484375 455.8148193359375 443.0113830566406 474.13336181640625 379.50042724609375 470.3684997558594 C 353.026611328125 468.6477355957031 353.6986389160156 478.8059997558594 339.1951904296875 436.3553771972656 C 334.2831726074219 423.1464538574219 334.9671630859375 423.7630310058594 359.9654846191406 440.0120544433594 C 388.5997619628906 437.2475891113281 364.86846923828125 446.3364562988281 376.76312255859375 456.5365295410156" stroke-width="0.0" fill="rgb(24, 25, 30)" opacity="0.9407773" stroke="rgb(81, 27, 185)" stroke-opacity="0.3599734" stroke-linecap="round" stroke-linejoin="round"/>
  </g>
</svg>
