<?xml version="1.0" ?>
<svg xmlns="http://www.w3.org/2000/svg" version="1.1" width="511" height="512">
  <defs/>
  <g>
    <path d="M 522.1297607421875 165.9808807373047 C 520.4091796875 177.44480895996094 518.4158325195312 176.73829650878906 449.3158264160156 184.0878143310547 C 430.813232421875 194.5646514892578 416.499267578125 202.74734497070312 422.3027648925781 87.23570251464844 C 446.5443420410156 92.52066040039062 447.9494323730469 87.46942901611328 517.0479125976562 92.2729721069336 C 523.2100219726562 125.45967864990234 522.2627563476562 131.36256408691406 522.1297607421875 165.9808807373047" stroke-width="0.0" fill="rgb(21, 149, 225)" opacity="0.29808587" stroke="rgb(43, 26, 224)" stroke-opacity="0.52777123" stroke-linecap="round" stroke-linejoin="round"/>
    <path d="M 248.65811157226562 246.50204467773438 C 305.1495056152344 304.40380859375 312.9971618652344 419.4418640136719 34.853431701660156 372.0503234863281 C 50.973907470703125 356.23492431640625 131.36734008789062 372.0989074707031 220.81068420410156 366.7782897949219 C 210.0591278076172 355.6113586425781 197.30194091796875 345.98846435546875 190.98126220703125 340.58905029296875 C 256.3135986328125 393.2330322265625 216.69363403320312 390.7399597167969 248.65811157226562 246.50204467773438" stroke-width="0.0" fill="rgb(24, 35, 44)" opacity="0.57372034" stroke="rgb(78, 188, 231)" stroke-opacity="0.19148955" stroke-linecap="round" stroke-linejoin="round"/>
    <path d="M 87.64395904541016 229.5692901611328 C 59.54640579223633 208.61842346191406 53.14527893066406 219.90354919433594 13.454339981079102 206.99728393554688 C -8.669136047363281 205.96287536621094 -7.875546455383301 215.41146850585938 -6.901316165924072 161.4290313720703 C -11.296360969543457 141.34889221191406 -23.55051612854004 119.96929931640625 74.96854400634766 143.20370483398438 C 155.88961791992188 130.8750762939453 138.94219970703125 134.0575714111328 87.64395904541016 229.5692901611328" stroke-width="0.0" fill="rgb(255, 251, 251)" opacity="0.4227536" stroke="rgb(163, 80, 79)" stroke-opacity="0.7642911" stroke-linecap="round" stroke-linejoin="round"/>
  </g>
</svg>
