<?xml version="1.0" ?>
<svg xmlns="http://www.w3.org/2000/svg" version="1.1" width="259" height="512">
  <defs/>
  <g>
    <path d="M 266.2726745605469 100.64553833007812 C 257.70220947265625 119.23050689697266 250.6236572265625 118.2099838256836 210.21377563476562 130.49530029296875 C 194.10987854003906 129.03187561035156 201.93775939941406 138.28260803222656 200.14923095703125 150.2551727294922 C 200.9117889404297 68.15147399902344 149.7553253173828 73.11288452148438 234.98138427734375 74.29705047607422 C 285.61224365234375 69.59808349609375 269.1613464355469 86.91604614257812 266.2726745605469 100.64553833007812" stroke-width="0.0" fill="rgb(255, 255, 231)" opacity="0.39826885" stroke="rgb(27, 50, 63)" stroke-opacity="0.509647" stroke-linecap="round" stroke-linejoin="round"/>
    <path d="M 88.0 95.0 C 87.33012390136719 97.5 85.5 99.33012390136719 83.0 100.0 C 80.5 99.33012390136719 78.66987609863281 97.5 78.0 95.0 C 78.66987609863281 92.5 80.5 90.66987609863281 83.0 90.0 C 85.5 90.66987609863281 87.33012390136719 92.5 88.0 95.0" stroke-width="0.0" fill="rgb(251, 246, 215)" opacity="1.0" stroke="rgb(163, 32, 111)" stroke-opacity="0.9928088" stroke-linecap="round" stroke-linejoin="round"/>
    <path d="M 32.0 92.0 C 31.330127716064453 94.5 29.5 96.33012390136719 27.0 97.0 C 24.5 96.33012390136719 22.669872283935547 94.5 22.0 92.0 C 22.669872283935547 89.5 24.5 87.66987609863281 27.0 87.0 C 29.5 87.66987609863281 31.330127716064453 89.5 32.0 92.0" stroke-width="0.0" fill="rgb(250, 245, 216)" opacity="1.0" stroke="rgb(34, 43, 39)" stroke-opacity="0.7535108" stroke-linecap="round" stroke-linejoin="round"/>
  </g>
</svg>
