<?xml version="1.0" ?>
<svg xmlns="http://www.w3.org/2000/svg" version="1.1" width="259" height="512">
  <defs/>
  <g>
    <path d="M 265.22216796875 79.327392578125 C 250.1822967529297 108.63592529296875 235.7512664794922 108.11238861083984 207.5091552734375 120.97015380859375 C 196.28977966308594 123.5351333618164 206.86383056640625 151.6329345703125 202.21937561035156 156.17543029785156 C 210.41571044921875 53.223846435546875 151.4168243408203 104.58528137207031 172.73837280273438 75.04693603515625 C 292.85748291015625 75.44378662109375 270.4978942871094 73.83342742919922 265.22216796875 79.327392578125" stroke-width="0.0" fill="rgb(255, 248, 219)" opacity="0.7486668" stroke="rgb(27, 50, 63)" stroke-opacity="0.509647" stroke-linecap="round" stroke-linejoin="round"/>
    <path d="M 106.26563262939453 67.45953369140625 C 130.80751037597656 123.06021881103516 121.89498138427734 107.9801025390625 82.38063049316406 111.5562744140625 C 65.3985366821289 103.873291015625 56.16570281982422 116.69619750976562 48.354209899902344 87.93321990966797 C 41.52155303955078 38.04883575439453 50.838279724121094 38.7540397644043 102.54437255859375 55.07439422607422 C 105.03719329833984 89.54802703857422 103.08134460449219 60.1773796081543 106.26563262939453 67.45953369140625" stroke-width="0.0" fill="rgb(255, 253, 225)" opacity="0.6370162" stroke="rgb(163, 32, 111)" stroke-opacity="0.9928088" stroke-linecap="round" stroke-linejoin="round"/>
    <path d="M 53.2823371887207 113.21247863769531 C 112.58476257324219 132.78025817871094 36.70444107055664 166.56820678710938 22.108354568481445 111.76419830322266 C 7.461455345153809 110.87808227539062 6.099111557006836 138.09580993652344 -15.899456024169922 103.0728759765625 C -21.408409118652344 67.1603775024414 -17.25848388671875 73.81236267089844 33.42769241333008 72.55870056152344 C 54.09104919433594 67.21574401855469 32.73501205444336 75.5320816040039 53.2823371887207 113.21247863769531" stroke-width="0.0" fill="rgb(244, 238, 211)" opacity="0.74946606" stroke="rgb(34, 43, 39)" stroke-opacity="0.7535108" stroke-linecap="round" stroke-linejoin="round"/>
    <path d="M 140.48318481445312 -7.103762149810791 C 131.43028259277344 31.9427547454834 100.04320526123047 36.65732955932617 59.63356399536133 41.43513107299805 C 1.5734896659851074 40.2053337097168 -9.171492576599121 66.32408142089844 -10.948366165161133 -8.962352752685547 C -3.077033758163452 -12.881708145141602 0.8733694553375244 -13.008183479309082 66.61402893066406 -12.234685897827148 C 82.00637817382812 -12.41232967376709 87.93211364746094 -14.597524642944336 140.48318481445312 -7.103762149810791" stroke-width="0.0" fill="rgb(107, 89, 55)" opacity="0.34120488" stroke="rgb(126, 107, 114)" stroke-opacity="0.43315104" stroke-linecap="round" stroke-linejoin="round"/>
    <path d="M 179.73638916015625 102.68252563476562 C 187.8363800048828 105.11331939697266 190.4136962890625 112.62886047363281 160.1142120361328 133.85670471191406 C 112.60688018798828 132.7791290283203 143.63099670410156 139.25340270996094 139.94960021972656 114.97151947021484 C 144.5523681640625 69.82923126220703 153.91775512695312 83.83885955810547 147.0116424560547 61.45477294921875 C 156.2828826904297 81.855224609375 163.5308074951172 93.47173309326172 179.73638916015625 102.68252563476562" stroke-width="0.0" fill="rgb(252, 245, 216)" opacity="0.6873145" stroke="rgb(25, 184, 196)" stroke-opacity="0.43588758" stroke-linecap="round" stroke-linejoin="round"/>
    <path d="M 203.275634765625 176.2466278076172 C 146.0045166015625 404.4300231933594 158.0242156982422 392.5625305175781 56.74399185180664 403.8086242675781 C 36.621192932128906 190.87742614746094 28.218753814697266 267.20172119140625 10.003875732421875 264.47711181640625 C -33.4858512878418 244.1845703125 -0.040691208094358444 184.12200927734375 49.36756896972656 184.48582458496094 C 74.41825103759766 268.42266845703125 96.6053237915039 78.88198852539062 203.275634765625 176.2466278076172" stroke-width="0.0" fill="rgb(138, 76, 20)" opacity="0.2667557" stroke="rgb(157, 22, 160)" stroke-opacity="0.10584493" stroke-linecap="round" stroke-linejoin="round"/>
    <path d="M 271.09906005859375 11.95065689086914 C 271.0135498046875 56.67766189575195 276.9596862792969 73.85841369628906 217.4761199951172 67.13236999511719 C 149.74148559570312 25.89398765563965 274.336669921875 8.604966163635254 135.49559020996094 33.517452239990234 C 145.77894592285156 -79.16716766357422 192.93499755859375 -20.568151473999023 229.3411102294922 -10.1267671585083 C 254.61672973632812 -11.953408241271973 268.14056396484375 -21.313308715820312 271.09906005859375 11.95065689086914" stroke-width="0.0" fill="rgb(53, 87, 33)" opacity="0.27724603" stroke="rgb(192, 203, 125)" stroke-opacity="0.22016044" stroke-linecap="round" stroke-linejoin="round"/>
    <path d="M 178.8106231689453 31.25674819946289 C 45.50596618652344 20.465686798095703 108.42864990234375 45.140438079833984 16.70894432067871 38.3088493347168 C 13.233942031860352 37.274566650390625 7.65116024017334 38.381778717041016 -5.504140853881836 26.674240112304688 C -1.5695029497146606 -2.424360990524292 -4.204111099243164 -5.618959903717041 22.086772918701172 -12.150152206420898 C 99.94651794433594 -18.845516204833984 198.7671356201172 -118.81160736083984 178.8106231689453 31.25674819946289" stroke-width="0.0" fill="rgb(93, 83, 52)" opacity="0.31709972" stroke="rgb(205, 30, 212)" stroke-opacity="0.58194727" stroke-linecap="round" stroke-linejoin="round"/>
    <path d="M 181.5737762451172 35.10914611816406 C 185.58245849609375 66.30745697021484 181.95578002929688 73.46780395507812 151.9091033935547 64.60492706298828 C 136.8238525390625 40.16069412231445 128.8936767578125 41.40290832519531 137.77330017089844 33.5687255859375 C 136.65272521972656 14.647574424743652 136.8990478515625 30.513525009155273 136.019287109375 36.395965576171875 C 163.283447265625 35.64808654785156 174.69972229003906 37.36976623535156 181.5737762451172 35.10914611816406" stroke-width="0.0" fill="rgb(255, 255, 225)" opacity="0.51542556" stroke="rgb(122, 150, 124)" stroke-opacity="0.5250862" stroke-linecap="round" stroke-linejoin="round"/>
    <path d="M 266.7157897949219 284.6007080078125 C 283.5497131347656 346.5835266113281 297.273681640625 378.0559387207031 251.3462677001953 463.8744812011719 C 138.65357971191406 476.7756652832031 141.48016357421875 469.5451965332031 155.87315368652344 325.74639892578125 C 195.02088928222656 262.8509521484375 221.0768280029297 268.9224853515625 257.697509765625 277.033203125 C 258.6263732910156 288.0718994140625 255.86851501464844 279.583984375 266.7157897949219 284.6007080078125" stroke-width="0.0" fill="rgb(255, 244, 204)" opacity="0.3530298" stroke="rgb(142, 138, 61)" stroke-opacity="0.67454237" stroke-linecap="round" stroke-linejoin="round"/>
    <path d="M 38.73918151855469 3.1849851608276367 C 23.726709365844727 42.60075759887695 25.149864196777344 37.10605239868164 8.595438957214355 39.60185623168945 C -6.159133434295654 33.475772857666016 -5.840706825256348 27.555866241455078 -9.331707954406738 23.748287200927734 C -10.111477851867676 1.392059326171875 -9.499834060668945 -1.6051381826400757 2.727830410003662 -10.32406234741211 C 32.78391647338867 -10.664060592651367 31.203115463256836 -7.88754415512085 38.73918151855469 3.1849851608276367" stroke-width="0.0" fill="rgb(16, 20, 12)" opacity="0.354271" stroke="rgb(101, 219, 107)" stroke-opacity="0.1156532" stroke-linecap="round" stroke-linejoin="round"/>
    <path d="M 40.14875030517578 48.242061614990234 C 51.8280029296875 47.5837516784668 44.579959869384766 48.1214714050293 43.304561614990234 72.37467193603516 C -6.8625874519348145 73.84227752685547 -9.0078763961792 77.59236145019531 -8.470333099365234 54.278560638427734 C 12.834163665771484 51.10821533203125 18.305906295776367 56.804420471191406 24.358150482177734 47.8794059753418 C 23.533565521240234 48.41844177246094 23.323774337768555 48.06000518798828 40.14875030517578 48.242061614990234" stroke-width="0.0" fill="rgb(255, 247, 215)" opacity="0.66455126" stroke="rgb(0, 19, 118)" stroke-opacity="0.65882415" stroke-linecap="round" stroke-linejoin="round"/>
    <path d="M 222.20753479003906 79.39491271972656 C 273.6961975097656 94.43046569824219 204.79591369628906 108.54157257080078 173.51991271972656 90.1507568359375 C 162.53848266601562 80.39969635009766 162.81466674804688 78.59614562988281 159.655517578125 76.38923645019531 C 152.68927001953125 64.46121978759766 148.26353454589844 65.4732437133789 158.05393981933594 59.046714782714844 C 163.9833526611328 69.22872924804688 167.76174926757812 84.60498046875 222.20753479003906 79.39491271972656" stroke-width="0.0" fill="rgb(252, 249, 224)" opacity="0.77054316" stroke="rgb(38, 221, 220)" stroke-opacity="0.14518489" stroke-linecap="round" stroke-linejoin="round"/>
    <path d="M 266.484130859375 252.64703369140625 C 275.0464172363281 265.9149475097656 256.0024108886719 249.66587829589844 189.83554077148438 267.9239807128906 C 196.6015625 228.46864318847656 152.5315704345703 226.09002685546875 73.14673614501953 109.75687408447266 C 207.5562286376953 154.29421997070312 173.0441131591797 235.012939453125 203.97303771972656 180.3625030517578 C 262.31597900390625 165.9652862548828 253.72213745117188 160.88795471191406 266.484130859375 252.64703369140625" stroke-width="0.0" fill="rgb(42, 0, 0)" opacity="0.24625282" stroke="rgb(26, 76, 69)" stroke-opacity="0.9923415" stroke-linecap="round" stroke-linejoin="round"/>
    <path d="M 271.12750244140625 18.03177833557129 C 273.9988098144531 57.4539909362793 262.0820617675781 67.51307678222656 227.93824768066406 64.2200698852539 C 234.14724731445312 63.08080291748047 216.5688934326172 63.84201431274414 231.75228881835938 48.24885940551758 C 225.38543701171875 28.277034759521484 191.78016662597656 81.4124984741211 227.46771240234375 -6.016794204711914 C 287.129150390625 -6.901386737823486 275.9002685546875 2.094784736633301 271.12750244140625 18.03177833557129" stroke-width="0.0" fill="rgb(84, 87, 52)" opacity="0.4837074" stroke="rgb(133, 195, 191)" stroke-opacity="0.86540526" stroke-linecap="round" stroke-linejoin="round"/>
    <path d="M 135.7061309814453 343.12841796875 C 136.98046875 394.8177490234375 133.25265502929688 359.31927490234375 128.725341796875 392.078369140625 C 127.7943115234375 376.1081237792969 124.3042221069336 369.75885009765625 125.55967712402344 362.1062927246094 C 121.04579162597656 341.9001159667969 123.77447509765625 346.626708984375 133.0044708251953 342.9809265136719 C 134.0858612060547 355.1966552734375 133.54774475097656 346.7099914550781 135.7061309814453 343.12841796875" stroke-width="0.0" fill="rgb(255, 254, 220)" opacity="0.4206678" stroke="rgb(155, 215, 154)" stroke-opacity="0.6041766" stroke-linecap="round" stroke-linejoin="round"/>
    <path d="M 101.91484069824219 128.28713989257812 C 102.030029296875 170.02182006835938 89.18416595458984 182.1688690185547 -23.72854995727539 179.75099182128906 C 14.41878604888916 47.97246170043945 28.870384216308594 159.90325927734375 46.63786697387695 107.46161651611328 C 63.62724685668945 118.92082977294922 81.36470794677734 121.77567291259766 70.65910339355469 119.03781127929688 C 72.59097290039062 120.78764343261719 80.29957580566406 118.22200775146484 101.91484069824219 128.28713989257812" stroke-width="0.0" fill="rgb(243, 225, 187)" opacity="0.44997913" stroke="rgb(27, 232, 183)" stroke-opacity="0.12738565" stroke-linecap="round" stroke-linejoin="round"/>
    <path d="M 129.82821655273438 167.12432861328125 C 136.5564422607422 162.44422912597656 122.51177978515625 148.5985107421875 113.95626831054688 158.0243377685547 C 114.51652526855469 190.6577606201172 110.96724700927734 147.13275146484375 89.8027572631836 138.61334228515625 C 70.27603912353516 118.99005126953125 70.87138366699219 116.74728393554688 97.23485565185547 125.85830688476562 C 121.45448303222656 132.76275634765625 124.54508209228516 140.72665405273438 129.82821655273438 167.12432861328125" stroke-width="0.0" fill="rgb(255, 241, 193)" opacity="0.5329094" stroke="rgb(42, 221, 180)" stroke-opacity="0.743389" stroke-linecap="round" stroke-linejoin="round"/>
    <path d="M 73.46041870117188 15.429574012756348 C 80.58673858642578 24.541635513305664 77.0430908203125 26.500133514404297 57.99132537841797 33.57735061645508 C 33.30186080932617 27.112720489501953 47.2216911315918 13.35008430480957 33.813621520996094 3.1146538257598877 C 46.6259880065918 1.8197442293167114 47.74369812011719 -0.7905871272087097 63.60968780517578 -11.8036527633667 C 67.91276550292969 -14.120219230651855 70.01349639892578 -13.78046989440918 73.46041870117188 15.429574012756348" stroke-width="0.0" fill="rgb(24, 17, 0)" opacity="1.0" stroke="rgb(43, 54, 66)" stroke-opacity="0.37901357" stroke-linecap="round" stroke-linejoin="round"/>
    <path d="M 125.60041809082031 151.0463409423828 C 140.00259399414062 178.67129516601562 100.98596954345703 192.48861694335938 124.91436767578125 155.3332061767578 C 118.83441162109375 146.51107788085938 118.80523681640625 153.02490234375 126.79621124267578 148.6339874267578 C 135.0315399169922 152.79022216796875 122.27571105957031 173.8584747314453 123.01939392089844 143.49176025390625 C 122.41466522216797 140.6914520263672 129.0695343017578 139.184326171875 125.60041809082031 151.0463409423828" stroke-width="0.0" fill="rgb(205, 194, 176)" opacity="0.95683444" stroke="rgb(88, 182, 145)" stroke-opacity="0.60783786" stroke-linecap="round" stroke-linejoin="round"/>
    <path d="M 98.99523162841797 354.8514709472656 C 96.22901916503906 360.3184509277344 85.61918640136719 367.67987060546875 90.47127532958984 416.9166564941406 C 83.241455078125 444.16192626953125 84.89964294433594 417.2910461425781 79.26641082763672 376.4591064453125 C 100.00093841552734 334.7570495605469 75.29840850830078 343.90155029296875 102.12207794189453 344.3907470703125 C 105.1645278930664 339.80474853515625 106.22913360595703 342.7986755371094 98.99523162841797 354.8514709472656" stroke-width="0.0" fill="rgb(140, 68, 0)" opacity="0.53189456" stroke="rgb(193, 222, 243)" stroke-opacity="0.4070272" stroke-linecap="round" stroke-linejoin="round"/>
    <path d="M 112.57115173339844 24.23700523376465 C 80.7729263305664 4.808051586151123 91.5843505859375 18.802154541015625 66.30513000488281 34.53976821899414 C 37.05253982543945 38.87540817260742 45.98604965209961 28.599590301513672 50.628360748291016 19.935688018798828 C 51.47426986694336 -11.266469955444336 54.3542366027832 -10.865799903869629 66.63642120361328 -10.436989784240723 C 98.5106430053711 -17.0462646484375 111.4576187133789 -26.67137908935547 112.57115173339844 24.23700523376465" stroke-width="0.0" fill="rgb(71, 73, 45)" opacity="0.675496" stroke="rgb(180, 48, 121)" stroke-opacity="0.36138603" stroke-linecap="round" stroke-linejoin="round"/>
    <path d="M 150.97998046875 165.34425354003906 C 129.2996826171875 179.90151977539062 117.60490417480469 122.10570526123047 80.20938873291016 121.6543960571289 C 76.80963134765625 116.11870574951172 47.56869125366211 126.54515838623047 44.187095642089844 87.6029052734375 C 45.11301803588867 24.165294647216797 39.15796661376953 124.75975036621094 77.5195083618164 108.49613952636719 C 71.70918273925781 110.19732666015625 142.8568572998047 115.61760711669922 150.97998046875 165.34425354003906" stroke-width="0.0" fill="rgb(0, 6, 22)" opacity="0.5527893" stroke="rgb(151, 35, 79)" stroke-opacity="0.77062166" stroke-linecap="round" stroke-linejoin="round"/>
    <path d="M 166.14805603027344 274.5613098144531 C 164.19410705566406 290.48333740234375 155.9750518798828 297.98687744140625 161.14122009277344 304.44647216796875 C 130.00828552246094 303.05108642578125 127.30501556396484 302.1055908203125 84.78692626953125 248.15684509277344 C 89.73210144042969 235.58367919921875 113.64457702636719 260.36376953125 143.46688842773438 230.75453186035156 C 195.76547241210938 228.1221923828125 191.03387451171875 224.54737854003906 166.14805603027344 274.5613098144531" stroke-width="0.0" fill="rgb(161, 118, 76)" opacity="0.8185393" stroke="rgb(237, 66, 192)" stroke-opacity="0.42110828" stroke-linecap="round" stroke-linejoin="round"/>
    <path d="M 127.68131256103516 310.0019836425781 C 127.86804962158203 327.8055725097656 120.68810272216797 346.3607482910156 101.73331451416016 333.1268005371094 C 23.356027603149414 333.9140319824219 131.1207275390625 306.05438232421875 42.18374252319336 294.211181640625 C 31.009166717529297 223.2900848388672 50.8255500793457 220.93301391601562 186.23451232910156 183.3094940185547 C 91.68734741210938 285.62939453125 111.48275756835938 256.3158264160156 127.68131256103516 310.0019836425781" stroke-width="0.0" fill="rgb(136, 84, 43)" opacity="0.45119506" stroke="rgb(124, 58, 73)" stroke-opacity="0.7690662" stroke-linecap="round" stroke-linejoin="round"/>
    <path d="M 125.4599838256836 139.96099853515625 C 144.62574768066406 164.77586364746094 145.62744140625 165.7344512939453 135.46771240234375 168.2155303955078 C 117.35172271728516 137.98207092285156 106.94036865234375 142.7111053466797 101.4874496459961 134.1820068359375 C 92.27974700927734 120.42568969726562 88.90616607666016 122.89690399169922 106.86048126220703 129.26002502441406 C 119.65840911865234 137.28436279296875 123.42964935302734 140.23329162597656 125.4599838256836 139.96099853515625" stroke-width="0.0" fill="rgb(222, 204, 169)" opacity="0.89218503" stroke="rgb(185, 234, 243)" stroke-opacity="0.97760254" stroke-linecap="round" stroke-linejoin="round"/>
    <path d="M 52.707305908203125 -2.134903907775879 C 43.56673049926758 12.068963050842285 46.573612213134766 16.288490295410156 46.5694580078125 34.4346809387207 C 14.97861099243164 30.4907283782959 11.516093254089355 44.42621994018555 -8.591988563537598 18.312116622924805 C 4.039005279541016 -30.563716888427734 14.736166000366211 -20.509906768798828 32.00043487548828 -7.876804828643799 C 45.84414291381836 -7.345786094665527 47.92715835571289 -6.201304912567139 52.707305908203125 -2.134903907775879" stroke-width="0.0" fill="rgb(0, 36, 10)" opacity="0.46051127" stroke="rgb(102, 161, 7)" stroke-opacity="0.95247304" stroke-linecap="round" stroke-linejoin="round"/>
    <path d="M 66.17784881591797 11.696452140808105 C 57.51445388793945 13.686296463012695 55.78903579711914 16.123931884765625 47.847591400146484 21.242679595947266 C 37.70014572143555 14.147452354431152 35.607635498046875 12.4724760055542 34.52960205078125 9.318445205688477 C 37.269630432128906 -2.881824016571045 39.071285247802734 -4.795130252838135 41.097347259521484 -5.362724304199219 C 55.084049224853516 -6.383789539337158 49.68427276611328 -5.749596118927002 66.17784881591797 11.696452140808105" stroke-width="0.0" fill="rgb(30, 63, 40)" opacity="0.9919465" stroke="rgb(126, 67, 22)" stroke-opacity="0.033328045" stroke-linecap="round" stroke-linejoin="round"/>
    <path d="M 101.3239974975586 11.775958061218262 C 65.8006591796875 36.26899719238281 80.11902618408203 38.046146392822266 35.795223236083984 37.19214630126953 C 22.719642639160156 33.21094512939453 29.29853630065918 44.338253021240234 8.194355964660645 40.96501159667969 C 47.85237503051758 10.782454490661621 40.92826843261719 -1.4471031427383423 22.056333541870117 13.170233726501465 C 46.42082214355469 7.307167053222656 47.99626541137695 24.565143585205078 101.3239974975586 11.775958061218262" stroke-width="0.0" fill="rgb(107, 112, 76)" opacity="0.58116376" stroke="rgb(86, 65, 123)" stroke-opacity="0.4307638" stroke-linecap="round" stroke-linejoin="round"/>
    <path d="M 158.66627502441406 322.9089660644531 C 148.9079132080078 310.6734313964844 157.45721435546875 309.1543273925781 147.2280731201172 322.68646240234375 C 112.52368927001953 320.7630310058594 108.04180145263672 336.1334228515625 113.50469207763672 302.89410400390625 C 116.38038635253906 275.7877502441406 114.53942108154297 272.790771484375 170.36212158203125 261.0350646972656 C 158.46670532226562 290.47918701171875 176.86337280273438 302.91650390625 158.66627502441406 322.9089660644531" stroke-width="0.0" fill="rgb(192, 86, 0)" opacity="0.47085303" stroke="rgb(17, 226, 15)" stroke-opacity="0.23443542" stroke-linecap="round" stroke-linejoin="round"/>
    <path d="M 232.74208068847656 6.7482404708862305 C 122.03765869140625 11.111612319946289 195.6851043701172 38.62645721435547 130.34927368164062 21.85525894165039 C 109.87369537353516 9.855891227722168 114.51656341552734 33.66075897216797 98.3730697631836 26.050777435302734 C 77.85838317871094 -14.34668254852295 107.19426727294922 -10.079360008239746 125.76688385009766 -8.817291259765625 C 146.4676971435547 -9.298433303833008 168.09130859375 -46.89714813232422 232.74208068847656 6.7482404708862305" stroke-width="0.0" fill="rgb(63, 87, 35)" opacity="0.4457818" stroke="rgb(56, 158, 189)" stroke-opacity="0.15728869" stroke-linecap="round" stroke-linejoin="round"/>
    <path d="M 79.0 4.0 C 78.33012390136719 6.5 76.5 8.330126762390137 74.0 9.0 C 71.5 8.330126762390137 69.66987609863281 6.5 69.0 4.0 C 69.66987609863281 1.5 71.5 -0.3301270306110382 74.0 -1.0 C 76.5 -0.3301270306110382 78.33012390136719 1.5 79.0 4.0" stroke-width="0.0" fill="rgb(31, 46, 20)" opacity="1.0" stroke="rgb(188, 78, 147)" stroke-opacity="0.93407524" stroke-linecap="round" stroke-linejoin="round"/>
    <path d="M 151.0 383.0 C 150.3301239013672 385.5 148.5 387.33013916015625 146.0 388.0 C 143.5 387.33013916015625 141.6698760986328 385.5 141.0 383.0 C 141.6698760986328 380.5 143.5 378.66986083984375 146.0 378.0 C 148.5 378.66986083984375 150.3301239013672 380.5 151.0 383.0" stroke-width="0.0" fill="rgb(189, 122, 51)" opacity="1.0" stroke="rgb(79, 10, 107)" stroke-opacity="0.099282175" stroke-linecap="round" stroke-linejoin="round"/>
    <path d="M 156.0 68.0 C 155.3301239013672 70.5 153.5 72.33012390136719 151.0 73.0 C 148.5 72.33012390136719 146.6698760986328 70.5 146.0 68.0 C 146.6698760986328 65.5 148.5 63.66987228393555 151.0 63.0 C 153.5 63.66987228393555 155.3301239013672 65.5 156.0 68.0" stroke-width="0.0" fill="rgb(45, 48, 41)" opacity="1.0" stroke="rgb(58, 44, 59)" stroke-opacity="0.8271818" stroke-linecap="round" stroke-linejoin="round"/>
    <path d="M 162.0 150.0 C 161.3301239013672 152.5 159.5 154.3301239013672 157.0 155.0 C 154.5 154.3301239013672 152.6698760986328 152.5 152.0 150.0 C 152.6698760986328 147.5 154.5 145.6698760986328 157.0 145.0 C 159.5 145.6698760986328 161.3301239013672 147.5 162.0 150.0" stroke-width="0.0" fill="rgb(227, 205, 168)" opacity="1.0" stroke="rgb(184, 190, 35)" stroke-opacity="0.59480524" stroke-linecap="round" stroke-linejoin="round"/>
    <path d="M 125.0 386.0 C 124.33012390136719 388.5 122.5 390.33013916015625 120.0 391.0 C 117.5 390.33013916015625 115.66987609863281 388.5 115.0 386.0 C 115.66987609863281 383.5 117.5 381.66986083984375 120.0 381.0 C 122.5 381.66986083984375 124.33012390136719 383.5 125.0 386.0" stroke-width="0.0" fill="rgb(158, 102, 43)" opacity="1.0" stroke="rgb(9, 248, 62)" stroke-opacity="0.42058578" stroke-linecap="round" stroke-linejoin="round"/>
    <path d="M 135.0 2.0 C 134.3301239013672 4.5 132.5 6.330127239227295 130.0 7.0 C 127.5 6.330127239227295 125.66987609863281 4.5 125.0 2.0 C 125.66987609863281 -0.5 127.5 -2.330127000808716 130.0 -3.0 C 132.5 -2.330127000808716 134.3301239013672 -0.5 135.0 2.0" stroke-width="0.0" fill="rgb(39, 44, 24)" opacity="1.0" stroke="rgb(73, 31, 153)" stroke-opacity="0.5338279" stroke-linecap="round" stroke-linejoin="round"/>
    <path d="M 150.0 406.0 C 149.3301239013672 408.5 147.5 410.33013916015625 145.0 411.0 C 142.5 410.33013916015625 140.6698760986328 408.5 140.0 406.0 C 140.6698760986328 403.5 142.5 401.66986083984375 145.0 401.0 C 147.5 401.66986083984375 149.3301239013672 403.5 150.0 406.0" stroke-width="0.0" fill="rgb(184, 115, 45)" opacity="1.0" stroke="rgb(128, 213, 37)" stroke-opacity="0.0027137636" stroke-linecap="round" stroke-linejoin="round"/>
    <path d="M 28.0 221.0 C 27.330127716064453 223.5 25.5 225.3301239013672 23.0 226.0 C 20.5 225.3301239013672 18.669872283935547 223.5 18.0 221.0 C 18.669872283935547 218.5 20.5 216.6698760986328 23.0 216.0 C 25.5 216.6698760986328 27.330127716064453 218.5 28.0 221.0" stroke-width="0.0" fill="rgb(119, 109, 82)" opacity="1.0" stroke="rgb(167, 119, 125)" stroke-opacity="0.56445" stroke-linecap="round" stroke-linejoin="round"/>
    <path d="M 129.0 436.0 C 128.3301239013672 438.5 126.5 440.33013916015625 124.0 441.0 C 121.5 440.33013916015625 119.66987609863281 438.5 119.0 436.0 C 119.66987609863281 433.5 121.5 431.66986083984375 124.0 431.0 C 126.5 431.66986083984375 128.3301239013672 433.5 129.0 436.0" stroke-width="0.0" fill="rgb(199, 138, 76)" opacity="1.0" stroke="rgb(195, 189, 223)" stroke-opacity="0.559672" stroke-linecap="round" stroke-linejoin="round"/>
  </g>
</svg>
