<?xml version="1.0" ?>
<svg xmlns="http://www.w3.org/2000/svg" version="1.1" width="259" height="512">
  <defs/>
  <g>
    <path d="M 265.216064453125 79.57017517089844 C 250.1822967529297 108.63593292236328 235.76422119140625 108.1213607788086 207.54122924804688 120.92749786376953 C 196.30213928222656 123.64854431152344 206.82122802734375 150.9770050048828 202.18115234375 155.4610137939453 C 210.9630584716797 54.309391021728516 150.41744995117188 103.83358764648438 173.27381896972656 75.06661987304688 C 292.6866455078125 75.46772003173828 270.4144592285156 73.77003479003906 265.216064453125 79.57017517089844" stroke-width="0.0" fill="rgb(255, 251, 221)" opacity="0.76234066" stroke="rgb(27, 50, 63)" stroke-opacity="0.509647" stroke-linecap="round" stroke-linejoin="round"/>
    <path d="M 106.49744415283203 66.30558013916016 C 130.6302490234375 122.64468383789062 121.23107147216797 108.33897399902344 83.4395523071289 111.43933868408203 C 66.82182312011719 104.18374633789062 57.93537139892578 116.96759796142578 48.41088104248047 87.69276428222656 C 41.24879455566406 38.175926208496094 51.247005462646484 38.51324462890625 102.43894958496094 55.344234466552734 C 105.20279693603516 88.32994842529297 102.81912231445312 59.19040298461914 106.49744415283203 66.30558013916016" stroke-width="0.0" fill="rgb(255, 252, 224)" opacity="0.6555928" stroke="rgb(163, 32, 111)" stroke-opacity="0.9928088" stroke-linecap="round" stroke-linejoin="round"/>
    <path d="M 52.965816497802734 112.72978973388672 C 112.488037109375 132.90235900878906 35.820369720458984 167.39422607421875 15.88833236694336 116.71490478515625 C 11.835289001464844 114.82571411132812 7.501246452331543 139.65638732910156 -15.843341827392578 103.49976348876953 C -21.388830184936523 66.93953704833984 -17.183475494384766 73.3924789428711 33.067134857177734 72.550048828125 C 54.59349822998047 67.84392547607422 32.50070571899414 75.80614471435547 52.965816497802734 112.72978973388672" stroke-width="0.0" fill="rgb(245, 236, 207)" opacity="0.75054616" stroke="rgb(34, 43, 39)" stroke-opacity="0.7535108" stroke-linecap="round" stroke-linejoin="round"/>
    <path d="M 140.4239044189453 -6.40986967086792 C 131.8367462158203 29.63177490234375 99.16228485107422 35.16376876831055 64.33169555664062 40.436405181884766 C 2.6251060962677 39.25202560424805 -8.994268417358398 64.74810028076172 -10.92662239074707 -9.852630615234375 C -3.077033758163452 -12.881708145141602 0.8733694553375244 -13.008183479309082 66.61402893066406 -12.234685897827148 C 82.00637817382812 -12.41232967376709 87.93211364746094 -14.597524642944336 140.4239044189453 -6.40986967086792" stroke-width="0.0" fill="rgb(105, 87, 51)" opacity="0.38444668" stroke="rgb(126, 107, 114)" stroke-opacity="0.43315104" stroke-linecap="round" stroke-linejoin="round"/>
    <path d="M 179.67691040039062 102.69219207763672 C 187.8385772705078 105.06295776367188 190.0496063232422 112.16388702392578 161.36160278320312 133.8094940185547 C 110.19929504394531 133.62669372558594 142.86166381835938 137.9967041015625 140.0398406982422 104.64632415771484 C 141.02005004882812 68.4122314453125 153.46043395996094 89.35558319091797 147.80392456054688 63.76325607299805 C 157.00331115722656 81.9958267211914 162.31451416015625 92.32178497314453 179.67691040039062 102.69219207763672" stroke-width="0.0" fill="rgb(255, 248, 219)" opacity="0.65266526" stroke="rgb(25, 184, 196)" stroke-opacity="0.43588758" stroke-linecap="round" stroke-linejoin="round"/>
    <path d="M 205.5125274658203 180.57176208496094 C 148.6138916015625 398.20068359375 124.09434509277344 387.512451171875 57.28699493408203 410.2376403808594 C 38.95235061645508 194.16580200195312 22.776052474975586 265.93597412109375 3.2109780311584473 261.4309997558594 C -21.93488121032715 234.15887451171875 -0.3724697530269623 189.8089599609375 48.980812072753906 187.24398803710938 C 73.90009307861328 266.2833557128906 101.9822998046875 73.75877380371094 205.5125274658203 180.57176208496094" stroke-width="0.0" fill="rgb(145, 67, 0)" opacity="0.2531282" stroke="rgb(157, 22, 160)" stroke-opacity="0.10584493" stroke-linecap="round" stroke-linejoin="round"/>
    <path d="M 271.0886535644531 10.539416313171387 C 270.7268981933594 53.567359924316406 275.2294006347656 71.48367309570312 226.2736053466797 66.93478393554688 C 149.7755126953125 24.72747039794922 271.3244934082031 13.697437286376953 132.44342041015625 33.47993469238281 C 146.2725372314453 -78.89098358154297 193.3166046142578 -20.467296600341797 229.40919494628906 -10.124680519104004 C 254.61672973632812 -11.953408241271973 268.14056396484375 -21.313308715820312 271.0886535644531 10.539416313171387" stroke-width="0.0" fill="rgb(57, 79, 30)" opacity="0.3084415" stroke="rgb(192, 203, 125)" stroke-opacity="0.22016044" stroke-linecap="round" stroke-linejoin="round"/>
    <path d="M 183.48187255859375 24.71776580810547 C 50.48357391357422 22.461307525634766 84.18754577636719 47.62242889404297 4.830865383148193 34.731353759765625 C 11.471404075622559 35.864784240722656 7.320424556732178 34.932456970214844 -2.9116084575653076 29.59798812866211 C 8.803670883178711 6.320229530334473 8.678010940551758 3.140868902206421 35.0660285949707 -11.004902839660645 C 90.15540313720703 -18.565126419067383 175.9270782470703 -114.9740219116211 183.48187255859375 24.71776580810547" stroke-width="0.0" fill="rgb(72, 80, 40)" opacity="0.4348807" stroke="rgb(205, 30, 212)" stroke-opacity="0.58194727" stroke-linecap="round" stroke-linejoin="round"/>
    <path d="M 181.3159637451172 34.32369613647461 C 186.47976684570312 65.66602325439453 179.4962158203125 73.85062408447266 151.78924560546875 64.25947570800781 C 136.5518035888672 40.125328063964844 129.45928955078125 40.949180603027344 136.91641235351562 33.82334518432617 C 139.1699981689453 19.438934326171875 135.6013946533203 31.978864669799805 137.22232055664062 36.02212905883789 C 148.7875213623047 37.63901138305664 167.80934143066406 33.451866149902344 181.3159637451172 34.32369613647461" stroke-width="0.0" fill="rgb(255, 255, 224)" opacity="0.5278426" stroke="rgb(122, 150, 124)" stroke-opacity="0.5250862" stroke-linecap="round" stroke-linejoin="round"/>
    <path d="M 266.7532653808594 284.667724609375 C 283.3418884277344 346.4002685546875 294.95709228515625 376.73907470703125 243.78741455078125 449.7042541503906 C 142.35789489746094 462.5692138671875 138.8196563720703 459.0000915527344 156.13388061523438 328.47637939453125 C 194.62173461914062 259.1010437011719 214.4884033203125 272.0721740722656 257.798828125 274.9416198730469 C 258.6542663574219 288.21649169921875 255.31886291503906 280.0146789550781 266.7532653808594 284.667724609375" stroke-width="0.0" fill="rgb(255, 249, 202)" opacity="0.3407628" stroke="rgb(142, 138, 61)" stroke-opacity="0.67454237" stroke-linecap="round" stroke-linejoin="round"/>
    <path d="M 28.16913604736328 -1.6120491027832031 C 24.936622619628906 42.292057037353516 26.91937255859375 40.219200134277344 10.25529956817627 39.53219223022461 C -5.354026794433594 32.28749465942383 -6.897909641265869 28.68151092529297 -9.477341651916504 25.84842300415039 C -10.111477851867676 1.392059326171875 -9.499834060668945 -1.6051381826400757 2.727830410003662 -10.32406234741211 C 32.78391647338867 -10.664060592651367 31.20289421081543 -7.8875041007995605 28.16913604736328 -1.6120491027832031" stroke-width="0.0" fill="rgb(16, 35, 21)" opacity="0.36764097" stroke="rgb(101, 219, 107)" stroke-opacity="0.1156532" stroke-linecap="round" stroke-linejoin="round"/>
    <path d="M 40.001075744628906 48.240623474121094 C 51.061275482177734 47.85343933105469 45.2275276184082 45.31340408325195 42.82142639160156 71.99225616455078 C -4.793548107147217 73.91124725341797 -8.132489204406738 77.76342010498047 -7.772989273071289 54.204132080078125 C 9.530166625976562 51.016754150390625 13.729201316833496 57.05014419555664 25.22277069091797 47.63322830200195 C 26.52935218811035 49.35466384887695 25.669498443603516 47.68277359008789 40.001075744628906 48.240623474121094" stroke-width="0.0" fill="rgb(255, 249, 216)" opacity="0.6758936" stroke="rgb(0, 19, 118)" stroke-opacity="0.65882415" stroke-linecap="round" stroke-linejoin="round"/>
    <path d="M 213.9619140625 79.20111083984375 C 262.5047302246094 96.59735870361328 204.328857421875 107.39199829101562 173.6519775390625 90.45396423339844 C 162.2579345703125 80.67940521240234 162.69189453125 78.30984497070312 160.0337677001953 76.23802947998047 C 152.0062713623047 64.6898193359375 147.12045288085938 59.519508361816406 159.70242309570312 56.05417251586914 C 163.8706817626953 67.93888854980469 168.60743713378906 83.21569061279297 213.9619140625 79.20111083984375" stroke-width="0.0" fill="rgb(251, 248, 225)" opacity="0.75357145" stroke="rgb(38, 221, 220)" stroke-opacity="0.14518489" stroke-linecap="round" stroke-linejoin="round"/>
    <path d="M 267.1327819824219 251.2836456298828 C 273.662109375 259.3665771484375 267.4388427734375 253.2161102294922 195.5952911376953 265.3708190917969 C 165.44277954101562 257.6090393066406 169.54173278808594 210.87051391601562 79.2018051147461 107.21800231933594 C 221.0573272705078 160.11276245117188 144.77267456054688 229.8773956298828 230.350341796875 171.5793914794922 C 255.94155883789062 171.0609588623047 258.3643493652344 179.9125518798828 267.1327819824219 251.2836456298828" stroke-width="0.0" fill="rgb(94, 73, 64)" opacity="0.3842874" stroke="rgb(26, 76, 69)" stroke-opacity="0.9923415" stroke-linecap="round" stroke-linejoin="round"/>
    <path d="M 270.71051025390625 16.836917877197266 C 271.9078674316406 57.20915222167969 261.0211486816406 66.45648193359375 230.07574462890625 64.44667053222656 C 233.5270538330078 62.37250518798828 218.36355590820312 64.2384033203125 232.99095153808594 47.43414306640625 C 218.00082397460938 25.98980712890625 202.4905548095703 82.28885650634766 223.6600341796875 -6.66807222366333 C 287.129150390625 -6.901386737823486 275.9002685546875 2.094784736633301 270.71051025390625 16.836917877197266" stroke-width="0.0" fill="rgb(93, 92, 61)" opacity="0.5123229" stroke="rgb(133, 195, 191)" stroke-opacity="0.86540526" stroke-linecap="round" stroke-linejoin="round"/>
    <path d="M 133.0 351.0 C 132.3301239013672 353.5 130.5 355.33013916015625 128.0 356.0 C 125.5 355.33013916015625 123.66987609863281 353.5 123.0 351.0 C 123.66987609863281 348.5 125.5 346.66986083984375 128.0 346.0 C 130.5 346.66986083984375 132.3301239013672 348.5 133.0 351.0" stroke-width="0.0" fill="rgb(214, 200, 165)" opacity="1.0" stroke="rgb(155, 215, 154)" stroke-opacity="0.6041766" stroke-linecap="round" stroke-linejoin="round"/>
    <path d="M 79.0 123.0 C 78.33012390136719 125.5 76.5 127.33012390136719 74.0 128.0 C 71.5 127.33012390136719 69.66987609863281 125.5 69.0 123.0 C 69.66987609863281 120.5 71.5 118.66987609863281 74.0 118.0 C 76.5 118.66987609863281 78.33012390136719 120.5 79.0 123.0" stroke-width="0.0" fill="rgb(242, 226, 192)" opacity="1.0" stroke="rgb(27, 232, 183)" stroke-opacity="0.12738565" stroke-linecap="round" stroke-linejoin="round"/>
    <path d="M 118.0 144.0 C 117.33012390136719 146.5 115.5 148.3301239013672 113.0 149.0 C 110.5 148.3301239013672 108.66987609863281 146.5 108.0 144.0 C 108.66987609863281 141.5 110.5 139.6698760986328 113.0 139.0 C 115.5 139.6698760986328 117.33012390136719 141.5 118.0 144.0" stroke-width="0.0" fill="rgb(211, 191, 154)" opacity="1.0" stroke="rgb(42, 221, 180)" stroke-opacity="0.743389" stroke-linecap="round" stroke-linejoin="round"/>
    <path d="M 55.0 3.0 C 54.33012771606445 5.5 52.5 7.330127239227295 50.0 8.0 C 47.5 7.330127239227295 45.66987228393555 5.5 45.0 3.0 C 45.66987228393555 0.5 47.5 -1.3301270008087158 50.0 -2.0 C 52.5 -1.3301270008087158 54.33012771606445 0.5 55.0 3.0" stroke-width="0.0" fill="rgb(47, 79, 32)" opacity="1.0" stroke="rgb(43, 54, 66)" stroke-opacity="0.37901357" stroke-linecap="round" stroke-linejoin="round"/>
    <path d="M 124.0 149.0 C 123.33012390136719 151.5 121.5 153.3301239013672 119.0 154.0 C 116.5 153.3301239013672 114.66987609863281 151.5 114.0 149.0 C 114.66987609863281 146.5 116.5 144.6698760986328 119.0 144.0 C 121.5 144.6698760986328 123.33012390136719 146.5 124.0 149.0" stroke-width="0.0" fill="rgb(220, 198, 158)" opacity="1.0" stroke="rgb(88, 182, 145)" stroke-opacity="0.60783786" stroke-linecap="round" stroke-linejoin="round"/>
    <path d="M 98.0 358.0 C 97.33012390136719 360.5 95.5 362.33013916015625 93.0 363.0 C 90.5 362.33013916015625 88.66987609863281 360.5 88.0 358.0 C 88.66987609863281 355.5 90.5 353.66986083984375 93.0 353.0 C 95.5 353.66986083984375 97.33012390136719 355.5 98.0 358.0" stroke-width="0.0" fill="rgb(141, 82, 30)" opacity="1.0" stroke="rgb(193, 222, 243)" stroke-opacity="0.4070272" stroke-linecap="round" stroke-linejoin="round"/>
    <path d="M 76.0 4.0 C 75.33012390136719 6.5 73.5 8.330126762390137 71.0 9.0 C 68.5 8.330126762390137 66.66987609863281 6.5 66.0 4.0 C 66.66987609863281 1.5 68.5 -0.3301270306110382 71.0 -1.0 C 73.5 -0.3301270306110382 75.33012390136719 1.5 76.0 4.0" stroke-width="0.0" fill="rgb(30, 45, 20)" opacity="1.0" stroke="rgb(180, 48, 121)" stroke-opacity="0.36138603" stroke-linecap="round" stroke-linejoin="round"/>
    <path d="M 85.0 118.0 C 84.33012390136719 120.5 82.5 122.33012390136719 80.0 123.0 C 77.5 122.33012390136719 75.66987609863281 120.5 75.0 118.0 C 75.66987609863281 115.5 77.5 113.66987609863281 80.0 113.0 C 82.5 113.66987609863281 84.33012390136719 115.5 85.0 118.0" stroke-width="0.0" fill="rgb(31, 21, 16)" opacity="1.0" stroke="rgb(151, 35, 79)" stroke-opacity="0.77062166" stroke-linecap="round" stroke-linejoin="round"/>
    <path d="M 163.0 274.0 C 162.3301239013672 276.5 160.5 278.33013916015625 158.0 279.0 C 155.5 278.33013916015625 153.6698760986328 276.5 153.0 274.0 C 153.6698760986328 271.5 155.5 269.66986083984375 158.0 269.0 C 160.5 269.66986083984375 162.3301239013672 271.5 163.0 274.0" stroke-width="0.0" fill="rgb(175, 106, 39)" opacity="1.0" stroke="rgb(237, 66, 192)" stroke-opacity="0.42110828" stroke-linecap="round" stroke-linejoin="round"/>
    <path d="M 119.0 315.0 C 118.33012390136719 317.5 116.5 319.33013916015625 114.0 320.0 C 111.5 319.33013916015625 109.66987609863281 317.5 109.0 315.0 C 109.66987609863281 312.5 111.5 310.66986083984375 114.0 310.0 C 116.5 310.66986083984375 118.33012390136719 312.5 119.0 315.0" stroke-width="0.0" fill="rgb(154, 99, 45)" opacity="1.0" stroke="rgb(124, 58, 73)" stroke-opacity="0.7690662" stroke-linecap="round" stroke-linejoin="round"/>
    <path d="M 120.0 143.0 C 119.33012390136719 145.5 117.5 147.3301239013672 115.0 148.0 C 112.5 147.3301239013672 110.66987609863281 145.5 110.0 143.0 C 110.66987609863281 140.5 112.5 138.6698760986328 115.0 138.0 C 117.5 138.6698760986328 119.33012390136719 140.5 120.0 143.0" stroke-width="0.0" fill="rgb(214, 192, 153)" opacity="1.0" stroke="rgb(185, 234, 243)" stroke-opacity="0.97760254" stroke-linecap="round" stroke-linejoin="round"/>
    <path d="M 44.0 1.0 C 43.33012771606445 3.5 41.5 5.330127239227295 39.0 6.0 C 36.5 5.330127239227295 34.66987228393555 3.5 34.0 1.0 C 34.66987228393555 -1.5 36.5 -3.330127000808716 39.0 -4.0 C 41.5 -3.330127000808716 43.33012771606445 -1.5 44.0 1.0" stroke-width="0.0" fill="rgb(46, 86, 34)" opacity="1.0" stroke="rgb(102, 161, 7)" stroke-opacity="0.95247304" stroke-linecap="round" stroke-linejoin="round"/>
    <path d="M 51.0 4.0 C 50.33012771606445 6.5 48.5 8.330126762390137 46.0 9.0 C 43.5 8.330126762390137 41.66987228393555 6.5 41.0 4.0 C 41.66987228393555 1.5 43.5 -0.3301270306110382 46.0 -1.0 C 48.5 -0.3301270306110382 50.33012771606445 1.5 51.0 4.0" stroke-width="0.0" fill="rgb(43, 80, 32)" opacity="1.0" stroke="rgb(126, 67, 22)" stroke-opacity="0.033328045" stroke-linecap="round" stroke-linejoin="round"/>
    <path d="M 51.0 9.0 C 50.33012771606445 11.5 48.5 13.330126762390137 46.0 14.0 C 43.5 13.330126762390137 41.66987228393555 11.5 41.0 9.0 C 41.66987228393555 6.5 43.5 4.669872760772705 46.0 4.0 C 48.5 4.669872760772705 50.33012771606445 6.5 51.0 9.0" stroke-width="0.0" fill="rgb(43, 71, 31)" opacity="1.0" stroke="rgb(86, 65, 123)" stroke-opacity="0.4307638" stroke-linecap="round" stroke-linejoin="round"/>
    <path d="M 150.0 310.0 C 149.3301239013672 312.5 147.5 314.33013916015625 145.0 315.0 C 142.5 314.33013916015625 140.6698760986328 312.5 140.0 310.0 C 140.6698760986328 307.5 142.5 305.66986083984375 145.0 305.0 C 147.5 305.66986083984375 149.3301239013672 307.5 150.0 310.0" stroke-width="0.0" fill="rgb(149, 87, 28)" opacity="1.0" stroke="rgb(17, 226, 15)" stroke-opacity="0.23443542" stroke-linecap="round" stroke-linejoin="round"/>
    <path d="M 136.0 5.0 C 135.3301239013672 7.5 133.5 9.330126762390137 131.0 10.0 C 128.5 9.330126762390137 126.66987609863281 7.5 126.0 5.0 C 126.66987609863281 2.5 128.5 0.6698729991912842 131.0 0.0 C 133.5 0.6698729991912842 135.3301239013672 2.5 136.0 5.0" stroke-width="0.0" fill="rgb(45, 44, 26)" opacity="1.0" stroke="rgb(56, 158, 189)" stroke-opacity="0.15728869" stroke-linecap="round" stroke-linejoin="round"/>
  </g>
</svg>
