<?xml version="1.0" ?>
<svg xmlns="http://www.w3.org/2000/svg" version="1.1" width="512" height="488">
  <defs/>
  <g>
    <path d="M 272.26031494140625 186.64154052734375 C 275.0830078125 179.2818145751953 262.9303894042969 184.2762451171875 211.150390625 204.1636505126953 C 160.13575744628906 227.3836212158203 113.31674194335938 256.87109375 96.8062515258789 10.196171760559082 C 239.72567749023438 64.97523498535156 220.08348083496094 72.00614929199219 381.30609130859375 75.74954986572266 C 267.1716613769531 137.5320281982422 276.3000183105469 153.3063201904297 272.26031494140625 186.64154052734375" stroke-width="0.0" fill="rgb(107, 79, 139)" opacity="0.28150958" stroke="rgb(3, 253, 250)" stroke-opacity="0.63250923" stroke-linecap="round" stroke-linejoin="round"/>
    <path d="M 376.69677734375 241.1045379638672 C 343.760009765625 250.472412109375 350.0662536621094 188.66946411132812 273.7247314453125 187.2683563232422 C 314.90582275390625 190.7522430419922 297.81109619140625 191.1998291015625 269.3675231933594 182.57960510253906 C 268.73834228515625 197.09225463867188 272.0311584472656 135.99534606933594 307.7021789550781 118.58921813964844 C 310.42864990234375 111.4870376586914 336.4542541503906 125.36390686035156 376.69677734375 241.1045379638672" stroke-width="0.0" fill="rgb(255, 255, 255)" opacity="0.88887274" stroke="rgb(109, 133, 113)" stroke-opacity="0.019620199" stroke-linecap="round" stroke-linejoin="round"/>
    <path d="M 236.25108337402344 400.6325988769531 C 277.1485290527344 413.7720031738281 262.5814514160156 399.35791015625 201.44122314453125 424.45416259765625 C 242.40054321289062 391.68798828125 228.7451934814453 412.11846923828125 231.6070098876953 406.7880859375 C 231.51658630371094 398.7358093261719 226.28367614746094 375.77349853515625 218.52052307128906 338.97918701171875 C 235.12245178222656 345.8151550292969 225.07545471191406 324.8411865234375 236.25108337402344 400.6325988769531" stroke-width="0.0" fill="rgb(227, 150, 0)" opacity="0.94102746" stroke="rgb(28, 13, 13)" stroke-opacity="0.5615886" stroke-linecap="round" stroke-linejoin="round"/>
  </g>
</svg>
