<?xml version="1.0" ?>
<svg xmlns="http://www.w3.org/2000/svg" version="1.1" width="365" height="512">
  <defs/>
  <g>
    <path d="M 371.7773742675781 161.96922302246094 C 373.352294921875 224.8159637451172 374.20556640625 232.10060119628906 295.50311279296875 240.39724731445312 C 257.7918395996094 226.53871154785156 255.18482971191406 226.28823852539062 247.36431884765625 141.5915985107422 C 265.7961730957031 110.77771759033203 273.0845031738281 111.49856567382812 348.9092712402344 110.99679565429688 C 370.99884033203125 121.8162612915039 368.5697326660156 125.31961059570312 371.7773742675781 161.96922302246094" stroke-width="0.0" fill="rgb(239, 247, 253)" opacity="0.9037668" stroke="rgb(131, 138, 141)" stroke-opacity="0.2067859" stroke-linecap="round" stroke-linejoin="round"/>
    <path d="M 54.380279541015625 445.66326904296875 C 51.920528411865234 529.1952514648438 76.07386779785156 538.4666748046875 33.442832946777344 516.3529052734375 C -11.070786476135254 515.4503173828125 -12.299116134643555 510.7860412597656 -15.674616813659668 503.45440673828125 C -10.917084693908691 488.33111572265625 -13.00384521484375 487.9896240234375 -18.356220245361328 468.096435546875 C -23.699071884155273 425.7362060546875 -35.122398376464844 439.9942932128906 54.380279541015625 445.66326904296875" stroke-width="0.0" fill="rgb(70, 66, 50)" opacity="0.6979042" stroke="rgb(210, 60, 68)" stroke-opacity="0.49564388" stroke-linecap="round" stroke-linejoin="round"/>
    <path d="M 152.6500244140625 235.28700256347656 C 126.15130615234375 447.051025390625 257.8058776855469 502.4375 59.63016128540039 492.5556335449219 C 65.3795166015625 189.97354125976562 65.6080093383789 244.4634246826172 162.70501708984375 337.87310791015625 C 107.57698059082031 259.078369140625 126.53688049316406 213.26254272460938 132.96151733398438 145.18307495117188 C 201.6267547607422 223.52012634277344 173.58984375 283.599609375 152.6500244140625 235.28700256347656" stroke-width="0.0" fill="rgb(100, 73, 44)" opacity="0.27499247" stroke="rgb(217, 245, 102)" stroke-opacity="0.11137297" stroke-linecap="round" stroke-linejoin="round"/>
    <path d="M 155.11627197265625 94.02751922607422 C 160.8282012939453 145.07814025878906 138.2078857421875 234.2080535888672 135.32284545898438 161.7158966064453 C 92.03807067871094 108.31522369384766 76.36241912841797 117.18770599365234 -9.68192195892334 45.98162078857422 C -18.535614013671875 -3.540496349334717 -22.027585983276367 -11.016127586364746 123.60171508789062 -10.059585571289062 C 174.9644775390625 -12.02544116973877 178.98272705078125 3.839902400970459 155.11627197265625 94.02751922607422" stroke-width="0.0" fill="rgb(175, 218, 255)" opacity="0.64284706" stroke="rgb(138, 98, 94)" stroke-opacity="0.7314384" stroke-linecap="round" stroke-linejoin="round"/>
    <path d="M 346.94342041015625 291.60137939453125 C 124.36216735839844 365.00128173828125 227.88572692871094 329.5890197753906 189.51101684570312 218.67166137695312 C 188.26324462890625 104.03760528564453 175.83937072753906 161.7954559326172 165.95692443847656 41.65705490112305 C 166.66665649414062 -12.520198822021484 150.93838500976562 -12.811677932739258 370.314697265625 -4.344310283660889 C 391.5210266113281 53.46432113647461 402.98199462890625 128.86996459960938 346.94342041015625 291.60137939453125" stroke-width="0.0" fill="rgb(31, 52, 91)" opacity="0.4607707" stroke="rgb(244, 25, 250)" stroke-opacity="0.86883444" stroke-linecap="round" stroke-linejoin="round"/>
    <path d="M 134.8473358154297 137.88401794433594 C 102.07211303710938 296.55023193359375 127.45643615722656 354.40570068359375 -5.904876232147217 363.7715759277344 C -16.9710636138916 193.3175811767578 -13.72191333770752 185.103271484375 -11.907594680786133 88.77327728271484 C -1.5871962308883667 33.51865768432617 14.2618408203125 46.57907485961914 44.594451904296875 57.95556640625 C 120.3897933959961 68.78736114501953 187.77818298339844 86.83815002441406 134.8473358154297 137.88401794433594" stroke-width="0.0" fill="rgb(114, 188, 255)" opacity="0.60754544" stroke="rgb(248, 143, 190)" stroke-opacity="0.29664516" stroke-linecap="round" stroke-linejoin="round"/>
    <path d="M 197.36134338378906 79.3759765625 C 158.2576141357422 90.43832397460938 207.17576599121094 116.26725006103516 166.3585968017578 196.33740234375 C 178.5309295654297 46.53573226928711 141.57530212402344 106.95870208740234 166.8683624267578 75.0942611694336 C 166.34974670410156 14.658308982849121 162.61904907226562 58.05891418457031 170.86849975585938 48.30398941040039 C 171.46890258789062 75.30172729492188 174.3091278076172 80.88871002197266 197.36134338378906 79.3759765625" stroke-width="0.0" fill="rgb(14, 31, 42)" opacity="0.64779186" stroke="rgb(157, 50, 167)" stroke-opacity="0.2508463" stroke-linecap="round" stroke-linejoin="round"/>
    <path d="M 371.5238342285156 460.481201171875 C 381.13629150390625 483.1319274902344 376.0495910644531 499.1410217285156 364.2809753417969 490.75048828125 C 215.11932373046875 503.3377685546875 196.15426635742188 476.7580871582031 284.9913024902344 489.1263122558594 C 291.5690612792969 419.9216003417969 292.9720458984375 413.54901123046875 339.48712158203125 406.92132568359375 C 358.81842041015625 417.2627258300781 352.7497863769531 425.6933898925781 371.5238342285156 460.481201171875" stroke-width="0.0" fill="rgb(126, 85, 49)" opacity="0.6999201" stroke="rgb(155, 17, 219)" stroke-opacity="0.49399325" stroke-linecap="round" stroke-linejoin="round"/>
    <path d="M 58.47903060913086 376.48382568359375 C 53.39698028564453 462.2308044433594 55.921234130859375 444.6263427734375 53.49028396606445 445.6634826660156 C -30.616573333740234 436.2170104980469 -21.788272857666016 448.2677307128906 -11.203323364257812 366.542724609375 C 3.0581657886505127 317.8226623535156 -5.561834335327148 323.20111083984375 54.9773063659668 334.6246032714844 C 59.002647399902344 358.54266357421875 55.1415901184082 363.5376892089844 58.47903060913086 376.48382568359375" stroke-width="0.0" fill="rgb(201, 234, 255)" opacity="0.8331811" stroke="rgb(204, 215, 76)" stroke-opacity="0.088627934" stroke-linecap="round" stroke-linejoin="round"/>
    <path d="M 316.7987976074219 461.4732666015625 C 312.2029724121094 490.56561279296875 311.6938781738281 502.43756103515625 295.0643005371094 479.8663024902344 C 280.6055603027344 479.3134765625 281.80902099609375 504.3990173339844 276.9153747558594 429.2887268066406 C 276.8335876464844 402.71429443359375 268.6580505371094 403.314453125 324.52630615234375 403.02008056640625 C 324.4949035644531 408.3031311035156 321.49310302734375 412.561767578125 316.7987976074219 461.4732666015625" stroke-width="0.0" fill="rgb(69, 56, 40)" opacity="0.85163826" stroke="rgb(74, 27, 148)" stroke-opacity="0.54781187" stroke-linecap="round" stroke-linejoin="round"/>
    <path d="M 339.4186096191406 406.7118835449219 C 340.3904724121094 431.3713073730469 340.4532775878906 431.77825927734375 282.6865234375 428.23651123046875 C 274.4103698730469 415.26983642578125 277.43408203125 405.12945556640625 274.338623046875 368.5563659667969 C 296.3136901855469 323.0523681640625 225.86534118652344 292.46405029296875 292.8779296875 322.54083251953125 C 313.7361755371094 366.3483581542969 308.2257385253906 377.51031494140625 339.4186096191406 406.7118835449219" stroke-width="0.0" fill="rgb(77, 65, 49)" opacity="0.8502094" stroke="rgb(238, 94, 23)" stroke-opacity="0.28804696" stroke-linecap="round" stroke-linejoin="round"/>
    <path d="M 377.70611572265625 289.41943359375 C 348.29901123046875 374.5323791503906 332.2356262207031 344.9175109863281 295.26495361328125 348.938232421875 C 266.7025451660156 340.7271728515625 291.1905822753906 330.9634704589844 273.68914794921875 301.68426513671875 C 235.74514770507812 383.91217041015625 189.27769470214844 168.81088256835938 177.8228759765625 72.66832733154297 C 450.369140625 132.942138671875 394.5654602050781 198.481689453125 377.70611572265625 289.41943359375" stroke-width="0.0" fill="rgb(139, 175, 216)" opacity="1.0" stroke="rgb(61, 99, 225)" stroke-opacity="0.31686097" stroke-linecap="round" stroke-linejoin="round"/>
    <path d="M 380.1575927734375 411.26263427734375 C 373.8465576171875 427.6545715332031 383.3148193359375 454.8257751464844 360.6733703613281 447.6383361816406 C 360.8426818847656 413.9213562011719 321.7503356933594 423.3631591796875 332.69561767578125 408.3778076171875 C 329.1893310546875 368.3071594238281 320.42352294921875 373.7047119140625 347.57427978515625 369.77447509765625 C 381.7746276855469 373.3447265625 376.8303527832031 384.1559753417969 380.1575927734375 411.26263427734375" stroke-width="0.0" fill="rgb(224, 240, 249)" opacity="0.95159507" stroke="rgb(92, 33, 165)" stroke-opacity="0.39420578" stroke-linecap="round" stroke-linejoin="round"/>
    <path d="M 363.854736328125 445.1594543457031 C 351.68878173828125 431.9947814941406 359.9859924316406 446.28839111328125 350.0209045410156 444.62994384765625 C 347.04730224609375 444.036376953125 331.05889892578125 435.88604736328125 334.0522766113281 429.6911315917969 C 331.4722900390625 408.7347717285156 334.9725646972656 415.0693664550781 360.86798095703125 421.9410400390625 C 367.277587890625 431.0755615234375 370.9253845214844 436.2210388183594 363.854736328125 445.1594543457031" stroke-width="0.0" fill="rgb(215, 228, 234)" opacity="1.0" stroke="rgb(217, 216, 81)" stroke-opacity="0.4297402" stroke-linecap="round" stroke-linejoin="round"/>
    <path d="M 377.61181640625 349.8966064453125 C 374.12762451171875 396.78887939453125 368.1378479003906 393.52886962890625 327.88458251953125 397.4710388183594 C 317.1527404785156 383.1902160644531 318.08111572265625 378.31201171875 304.23052978515625 362.0755920410156 C 309.7262268066406 340.2203369140625 293.7186584472656 352.27001953125 335.3510437011719 335.78851318359375 C 357.73895263671875 318.26959228515625 375.2048034667969 308.9260559082031 377.61181640625 349.8966064453125" stroke-width="0.0" fill="rgb(216, 235, 250)" opacity="0.92910796" stroke="rgb(215, 220, 94)" stroke-opacity="0.78157437" stroke-linecap="round" stroke-linejoin="round"/>
    <path d="M 336.74969482421875 7.796657085418701 C 324.0931701660156 40.59744644165039 323.0513610839844 43.14114761352539 297.4452819824219 54.86249542236328 C 286.1469421386719 53.51680374145508 286.0453796386719 50.114105224609375 288.1103515625 36.782291412353516 C 291.1473693847656 6.833731651306152 288.2317199707031 -2.450742721557617 334.45526123046875 -8.937390327453613 C 344.21954345703125 -7.340549468994141 344.1510009765625 -3.7690811157226562 336.74969482421875 7.796657085418701" stroke-width="0.0" fill="rgb(166, 181, 208)" opacity="0.78833556" stroke="rgb(111, 101, 88)" stroke-opacity="0.11458441" stroke-linecap="round" stroke-linejoin="round"/>
    <path d="M 306.8616943359375 44.28579330444336 C 306.8459167480469 59.37495040893555 304.1593017578125 59.962650299072266 286.9188232421875 63.66035079956055 C 255.3958282470703 69.40253448486328 252.5794219970703 69.33788299560547 252.38009643554688 63.63612365722656 C 253.03842163085938 12.581130027770996 254.05780029296875 9.764604568481445 258.24395751953125 5.32937479019165 C 299.34844970703125 14.308911323547363 301.25115966796875 20.56732749938965 306.8616943359375 44.28579330444336" stroke-width="0.0" fill="rgb(155, 177, 207)" opacity="0.81538707" stroke="rgb(48, 120, 252)" stroke-opacity="0.7325859" stroke-linecap="round" stroke-linejoin="round"/>
    <path d="M 350.7342834472656 3.024362325668335 C 338.3023986816406 47.54347229003906 337.312255859375 51.896202087402344 315.3482360839844 59.62895584106445 C 300.4060974121094 58.69024658203125 297.89154052734375 56.846378326416016 299.17132568359375 51.35929870605469 C 307.59619140625 18.888832092285156 307.38916015625 14.612405776977539 344.65130615234375 -8.16296672821045 C 361.01263427734375 -9.200803756713867 360.0162658691406 -4.429890155792236 350.7342834472656 3.024362325668335" stroke-width="0.0" fill="rgb(172, 187, 213)" opacity="0.87272066" stroke="rgb(73, 165, 53)" stroke-opacity="0.12264703" stroke-linecap="round" stroke-linejoin="round"/>
    <path d="M 193.7364959716797 29.820158004760742 C 192.3489227294922 47.87300109863281 191.1895751953125 50.62125778198242 180.52503967285156 50.77364730834961 C 155.49447631835938 28.12761878967285 179.05577087402344 3.2556393146514893 142.6488800048828 149.22732543945312 C 54.043827056884766 7.70205020904541 112.00044250488281 -11.72653865814209 191.65199279785156 -10.987215995788574 C 203.21775817871094 6.888849258422852 196.8735809326172 16.152841567993164 193.7364959716797 29.820158004760742" stroke-width="0.0" fill="rgb(152, 176, 210)" opacity="0.85314554" stroke="rgb(123, 72, 228)" stroke-opacity="0.7886628" stroke-linecap="round" stroke-linejoin="round"/>
    <path d="M 376.4636535644531 19.932628631591797 C 376.6759033203125 66.51177215576172 375.37322998046875 69.11161804199219 370.0304260253906 70.4461441040039 C 330.273681640625 59.072105407714844 331.963623046875 51.04891586303711 327.0199279785156 20.801116943359375 C 323.2705383300781 12.239263534545898 318.2882995605469 0.19856515526771545 365.9054870605469 -9.448687553405762 C 377.6512451171875 -0.7521133422851562 376.4674377441406 4.915831089019775 376.4636535644531 19.932628631591797" stroke-width="0.0" fill="rgb(174, 186, 217)" opacity="0.80927074" stroke="rgb(244, 67, 199)" stroke-opacity="0.46008587" stroke-linecap="round" stroke-linejoin="round"/>
    <path d="M 228.93475341796875 1.9382941722869873 C 227.51010131835938 65.2383041381836 224.87179565429688 65.28334045410156 218.29901123046875 70.54174041748047 C 190.21542358398438 27.237119674682617 185.0401611328125 42.018798828125 174.50965881347656 25.410547256469727 C 177.4835205078125 18.929515838623047 172.35580444335938 9.14499568939209 198.31106567382812 -10.357586860656738 C 228.1459503173828 -8.342711448669434 228.4162139892578 -4.053717613220215 228.93475341796875 1.9382941722869873" stroke-width="0.0" fill="rgb(181, 197, 218)" opacity="0.83234394" stroke="rgb(221, 79, 192)" stroke-opacity="0.28303635" stroke-linecap="round" stroke-linejoin="round"/>
    <path d="M 368.0359191894531 70.21088409423828 C 378.922119140625 116.43499755859375 381.4175720214844 125.74225616455078 362.5893249511719 152.37828063964844 C 260.66650390625 143.1254119873047 285.2927551269531 119.53279876708984 291.56878662109375 87.87117767333984 C 291.4729919433594 42.60028076171875 291.4904479980469 38.53902053833008 294.0719909667969 35.37253952026367 C 334.4249572753906 37.64767074584961 335.60638427734375 40.18267822265625 368.0359191894531 70.21088409423828" stroke-width="0.0" fill="rgb(146, 175, 213)" opacity="0.987117" stroke="rgb(8, 114, 97)" stroke-opacity="0.42803198" stroke-linecap="round" stroke-linejoin="round"/>
    <path d="M 319.86614990234375 -1.1142328977584839 C 309.77880859375 38.6295280456543 309.5579833984375 41.21582794189453 296.38555908203125 43.73529815673828 C 272.57861328125 38.59252166748047 262.7367858886719 40.56465148925781 253.70787048339844 -2.7405505180358887 C 259.29681396484375 -10.13093376159668 262.9230651855469 -10.263895034790039 308.0140075683594 -10.03842544555664 C 321.4485168457031 -9.947229385375977 324.86419677734375 -7.965023517608643 319.86614990234375 -1.1142328977584839" stroke-width="0.0" fill="rgb(166, 186, 213)" opacity="0.85153115" stroke="rgb(69, 26, 167)" stroke-opacity="0.9621008" stroke-linecap="round" stroke-linejoin="round"/>
    <path d="M 273.38116455078125 69.335693359375 C 273.2141418457031 75.81920623779297 271.750244140625 76.2076187133789 228.48516845703125 71.18718719482422 C 212.64060974121094 62.58448028564453 207.35275268554688 64.69435119628906 205.64657592773438 12.76584243774414 C 208.63331604003906 6.313964366912842 211.27621459960938 4.741063117980957 215.62216186523438 5.962449550628662 C 249.21481323242188 29.008630752563477 247.07733154296875 34.477210998535156 273.38116455078125 69.335693359375" stroke-width="0.0" fill="rgb(140, 169, 207)" opacity="0.797047" stroke="rgb(188, 20, 132)" stroke-opacity="0.196375" stroke-linecap="round" stroke-linejoin="round"/>
    <path d="M 268.6636962890625 101.6634750366211 C 267.28790283203125 108.92162322998047 262.6198425292969 108.40696716308594 228.55821228027344 112.46810150146484 C 197.9684600830078 103.51876068115234 202.2041015625 91.15663146972656 191.80279541015625 55.697959899902344 C 193.38967895507812 41.78012466430664 195.8338165283203 38.597923278808594 221.88351440429688 38.472923278808594 C 254.4646759033203 42.68217086791992 264.0346984863281 40.90752410888672 268.6636962890625 101.6634750366211" stroke-width="0.0" fill="rgb(129, 165, 202)" opacity="0.8588766" stroke="rgb(138, 53, 254)" stroke-opacity="0.15647613" stroke-linecap="round" stroke-linejoin="round"/>
    <path d="M 378.0845947265625 87.33599090576172 C 375.1725769042969 95.92438507080078 366.4468078613281 98.43727111816406 332.5568542480469 85.8669662475586 C 315.0645751953125 65.46939086914062 314.2420959472656 62.030399322509766 316.88848876953125 49.2061767578125 C 322.1678466796875 26.627370834350586 323.0121154785156 23.893901824951172 326.1174621582031 20.68794822692871 C 351.8887634277344 21.480751037597656 353.6182556152344 24.731300354003906 378.0845947265625 87.33599090576172" stroke-width="0.0" fill="rgb(140, 168, 203)" opacity="0.88432914" stroke="rgb(39, 104, 244)" stroke-opacity="0.27042997" stroke-linecap="round" stroke-linejoin="round"/>
    <path d="M 253.58450317382812 145.8622589111328 C 224.0150146484375 139.937255859375 216.18174743652344 137.00767517089844 199.80775451660156 123.68379211425781 C 189.15948486328125 109.46684265136719 183.97097778320312 108.11516571044922 178.2474365234375 76.239013671875 C 178.35427856445312 60.440731048583984 183.21034240722656 58.57958221435547 194.99847412109375 56.6905517578125 C 231.70700073242188 65.10343933105469 245.3737335205078 65.24174499511719 253.58450317382812 145.8622589111328" stroke-width="0.0" fill="rgb(143, 172, 210)" opacity="0.72069526" stroke="rgb(74, 33, 38)" stroke-opacity="0.023474576" stroke-linecap="round" stroke-linejoin="round"/>
    <path d="M 210.9311065673828 72.03386688232422 C 207.21278381347656 81.07996368408203 205.45660400390625 82.53659057617188 180.0756378173828 82.35446166992188 C 175.039306640625 91.2228775024414 176.8345489501953 81.8864974975586 170.1395263671875 53.75379943847656 C 176.0875701904297 52.764984130859375 157.7365264892578 49.934417724609375 177.34420776367188 8.737606048583984 C 196.48924255371094 40.797706604003906 206.01348876953125 38.87263488769531 210.9311065673828 72.03386688232422" stroke-width="0.0" fill="rgb(159, 183, 209)" opacity="0.9158405" stroke="rgb(172, 186, 177)" stroke-opacity="0.41933772" stroke-linecap="round" stroke-linejoin="round"/>
    <path d="M 275.4413146972656 17.218904495239258 C 274.266357421875 58.500648498535156 272.5938720703125 61.15675354003906 266.6440734863281 66.4208984375 C 243.38047790527344 38.510009765625 238.96168518066406 41.01145553588867 202.5964813232422 -7.811357498168945 C 207.00816345214844 -10.663244247436523 210.07522583007812 -11.835084915161133 265.12493896484375 -11.291203498840332 C 278.05108642578125 -2.0474910736083984 277.000244140625 2.4679126739501953 275.4413146972656 17.218904495239258" stroke-width="0.0" fill="rgb(173, 188, 212)" opacity="0.83566624" stroke="rgb(128, 102, 153)" stroke-opacity="0.44530898" stroke-linecap="round" stroke-linejoin="round"/>
    <path d="M 312.3846435546875 45.26626205444336 C 311.9898681640625 81.22457122802734 315.2486877441406 86.36328125 313.4292907714844 131.6796417236328 C 235.06039428710938 140.50254821777344 238.2002716064453 134.1873016357422 240.2615509033203 121.26142883300781 C 249.6009063720703 35.56773376464844 261.54425048828125 38.854312896728516 281.7900390625 37.36391830444336 C 313.3799743652344 35.25068283081055 313.92962646484375 37.819026947021484 312.3846435546875 45.26626205444336" stroke-width="0.0" fill="rgb(139, 170, 209)" opacity="0.9180897" stroke="rgb(106, 127, 103)" stroke-opacity="0.8992365" stroke-linecap="round" stroke-linejoin="round"/>
    <path d="M 221.38600158691406 57.974971771240234 C 218.42013549804688 67.95905303955078 216.4179229736328 70.02893829345703 187.3971710205078 71.4775619506836 C 169.251953125 73.41580200195312 176.2366485595703 67.15606689453125 170.62985229492188 41.58013153076172 C 176.31211853027344 29.567323684692383 179.81787109375 28.29935646057129 192.49391174316406 14.920491218566895 C 196.0056610107422 42.271610260009766 213.45245361328125 24.99924087524414 221.38600158691406 57.974971771240234" stroke-width="0.0" fill="rgb(153, 180, 212)" opacity="0.8563673" stroke="rgb(151, 172, 99)" stroke-opacity="0.5552627" stroke-linecap="round" stroke-linejoin="round"/>
    <path d="M 237.08872985839844 419.55224609375 C 240.76788330078125 445.06463623046875 237.54425048828125 456.5408935546875 222.59588623046875 453.7615661621094 C 202.17538452148438 446.05072021484375 203.0547332763672 442.86871337890625 197.08908081054688 417.6913757324219 C 188.9602508544922 414.1787414550781 191.8558807373047 383.3475646972656 195.06640625 361.5176696777344 C 264.9883728027344 360.7389831542969 267.8634033203125 392.6935729980469 237.08872985839844 419.55224609375" stroke-width="0.0" fill="rgb(80, 59, 37)" opacity="0.83910805" stroke="rgb(228, 249, 131)" stroke-opacity="0.3891784" stroke-linecap="round" stroke-linejoin="round"/>
    <path d="M 375.820556640625 344.1993713378906 C 374.5760803222656 358.4894714355469 369.51312255859375 345.56304931640625 337.95721435546875 352.56195068359375 C 346.390380859375 351.5632019042969 341.8527526855469 350.87872314453125 322.128173828125 351.8679504394531 C 308.5357360839844 321.3384704589844 344.8362121582031 335.1443786621094 366.29034423828125 331.44244384765625 C 371.923828125 326.96783447265625 374.5862121582031 325.9690856933594 375.820556640625 344.1993713378906" stroke-width="0.0" fill="rgb(153, 188, 225)" opacity="0.86079687" stroke="rgb(166, 241, 102)" stroke-opacity="0.96940726" stroke-linecap="round" stroke-linejoin="round"/>
    <path d="M 375.8852233886719 325.7281494140625 C 362.85137939453125 345.2234191894531 350.71148681640625 352.5699768066406 344.5154724121094 352.2269287109375 C 338.72308349609375 331.3561096191406 263.3040466308594 379.8189392089844 285.7459411621094 277.568115234375 C 318.0444030761719 267.8909606933594 321.8033142089844 265.44610595703125 374.3438720703125 277.36865234375 C 375.29693603515625 315.3188781738281 375.1811218261719 319.867431640625 375.8852233886719 325.7281494140625" stroke-width="0.0" fill="rgb(151, 194, 235)" opacity="0.65745133" stroke="rgb(220, 247, 42)" stroke-opacity="0.71472114" stroke-linecap="round" stroke-linejoin="round"/>
    <path d="M 336.3677978515625 457.4340515136719 C 365.1947326660156 508.5132141113281 354.2566833496094 465.78851318359375 317.0491638183594 493.6120910644531 C 321.6022033691406 488.8099365234375 315.7211608886719 480.5334167480469 317.6117248535156 439.00311279296875 C 311.0193786621094 424.3145751953125 328.01812744140625 446.0718078613281 330.5971374511719 398.9093017578125 C 335.1548767089844 469.3807678222656 338.0009460449219 409.2675476074219 336.3677978515625 457.4340515136719" stroke-width="0.0" fill="rgb(32, 33, 24)" opacity="0.8017821" stroke="rgb(29, 222, 249)" stroke-opacity="0.21104231" stroke-linecap="round" stroke-linejoin="round"/>
    <path d="M 211.85081481933594 280.4754943847656 C 228.5030059814453 299.9024658203125 227.91302490234375 303.7467956542969 200.2054443359375 298.50225830078125 C 196.63629150390625 294.5773620605469 195.59393310546875 299.640869140625 194.30645751953125 229.36892700195312 C 184.95680236816406 224.35301208496094 189.3608856201172 257.5040588378906 185.24212646484375 142.9351348876953 C 229.5166778564453 198.89524841308594 212.46083068847656 275.31121826171875 211.85081481933594 280.4754943847656" stroke-width="0.0" fill="rgb(81, 70, 55)" opacity="0.91822827" stroke="rgb(136, 217, 166)" stroke-opacity="0.68365955" stroke-linecap="round" stroke-linejoin="round"/>
    <path d="M 228.86346435546875 461.3128662109375 C 226.8856658935547 472.7376403808594 224.35496520996094 473.47589111328125 193.27098083496094 472.6516418457031 C 190.09864807128906 476.9425048828125 192.6468505859375 465.7099914550781 190.5301971435547 457.3056945800781 C 190.3632354736328 419.2680358886719 188.06903076171875 417.099609375 191.08837890625 423.5850830078125 C 220.5594940185547 421.6983947753906 225.12306213378906 432.1438903808594 228.86346435546875 461.3128662109375" stroke-width="0.0" fill="rgb(74, 38, 13)" opacity="0.73613536" stroke="rgb(77, 162, 215)" stroke-opacity="0.48295102" stroke-linecap="round" stroke-linejoin="round"/>
    <path d="M 269.6073303222656 480.4596252441406 C 264.3044128417969 481.6718444824219 251.27708435058594 481.4036865234375 225.25750732421875 482.51373291015625 C 226.83152770996094 471.0889892578125 218.17291259765625 481.49578857421875 216.435546875 483.6829528808594 C 223.9197998046875 473.3787536621094 232.62193298339844 476.8381652832031 225.48684692382812 463.2726135253906 C 251.31893920898438 456.6827087402344 270.2955017089844 452.7509460449219 269.6073303222656 480.4596252441406" stroke-width="0.0" fill="rgb(12, 8, 10)" opacity="1.0" stroke="rgb(116, 195, 38)" stroke-opacity="0.294083" stroke-linecap="round" stroke-linejoin="round"/>
    <path d="M 242.2900848388672 337.1403503417969 C 241.8045654296875 366.3441467285156 216.31756591796875 379.91693115234375 193.8992156982422 383.4095458984375 C 193.5506591796875 360.7274475097656 191.93614196777344 347.4208679199219 193.0658721923828 297.8319396972656 C 180.28512573242188 269.71173095703125 198.15420532226562 319.3865051269531 212.3379364013672 258.6294860839844 C 241.04151916503906 255.95501708984375 242.7416534423828 271.0329284667969 242.2900848388672 337.1403503417969" stroke-width="0.0" fill="rgb(96, 75, 52)" opacity="0.88502586" stroke="rgb(126, 28, 22)" stroke-opacity="0.21095188" stroke-linecap="round" stroke-linejoin="round"/>
    <path d="M 387.55181884765625 475.7132568359375 C 387.9683837890625 474.36004638671875 359.16107177734375 497.6836853027344 333.27178955078125 493.6302795410156 C 328.15057373046875 488.0256042480469 366.4947204589844 483.5097351074219 318.4534912109375 482.37213134765625 C 320.6922302246094 457.8238830566406 314.3443908691406 463.16583251953125 329.7930908203125 463.41143798828125 C 374.5279235839844 463.93426513671875 378.2505798339844 458.53619384765625 387.55181884765625 475.7132568359375" stroke-width="0.0" fill="rgb(0, 4, 0)" opacity="0.64205074" stroke="rgb(2, 194, 225)" stroke-opacity="0.70846915" stroke-linecap="round" stroke-linejoin="round"/>
    <path d="M 384.1617431640625 356.8409729003906 C 368.34716796875 351.34527587890625 366.72015380859375 354.2891845703125 318.2840881347656 353.4703063964844 C 322.8042907714844 339.60247802734375 279.25555419921875 362.0285339355469 280.35272216796875 328.8208923339844 C 301.2313232421875 294.50091552734375 320.6006164550781 318.3412780761719 328.3223571777344 320.91912841796875 C 358.1523742675781 339.1934814453125 361.0924072265625 339.3570556640625 384.1617431640625 356.8409729003906" stroke-width="0.0" fill="rgb(145, 200, 243)" opacity="0.5298669" stroke="rgb(202, 232, 222)" stroke-opacity="0.41960514" stroke-linecap="round" stroke-linejoin="round"/>
    <path d="M 79.3094711303711 470.97552490234375 C 85.59207916259766 472.2768859863281 70.21887969970703 471.9226379394531 57.91394805908203 471.9746398925781 C 64.58332824707031 471.4096984863281 60.35053253173828 475.25018310546875 62.4091682434082 458.7508850097656 C 55.88676452636719 450.6813049316406 108.53971862792969 462.69921875 61.271244049072266 463.7318420410156 C 95.07219696044922 467.02874755859375 73.81938934326172 463.7168273925781 79.3094711303711 470.97552490234375" stroke-width="0.0" fill="rgb(109, 76, 48)" opacity="1.0" stroke="rgb(229, 88, 253)" stroke-opacity="0.53302217" stroke-linecap="round" stroke-linejoin="round"/>
    <path d="M 171.4739990234375 420.0283203125 C 154.17904663085938 443.0614013671875 149.2764129638672 442.75811767578125 153.80886840820312 450.2436218261719 C 119.6092758178711 452.8116455078125 114.96984100341797 450.9382629394531 121.038330078125 435.0273132324219 C 121.15242004394531 422.08154296875 116.9926528930664 400.7168884277344 152.4916229248047 393.52532958984375 C 155.164794921875 395.5462341308594 161.5200958251953 402.16278076171875 171.4739990234375 420.0283203125" stroke-width="0.0" fill="rgb(57, 26, 7)" opacity="0.5802639" stroke="rgb(181, 115, 10)" stroke-opacity="0.51271784" stroke-linecap="round" stroke-linejoin="round"/>
    <path d="M 40.060646057128906 449.3429870605469 C 39.8355598449707 480.4991149902344 40.334251403808594 457.11846923828125 38.36055374145508 491.8133544921875 C 23.06206512451172 485.0544128417969 3.9019081592559814 500.9633483886719 13.434581756591797 477.34259033203125 C 10.99809455871582 447.13763427734375 27.97519302368164 472.1856384277344 -19.61037254333496 442.59942626953125 C 96.1207046508789 440.23651123046875 44.85433578491211 463.6977233886719 40.060646057128906 449.3429870605469" stroke-width="0.0" fill="rgb(10, 5, 0)" opacity="0.64221334" stroke="rgb(8, 218, 61)" stroke-opacity="0.8818105" stroke-linecap="round" stroke-linejoin="round"/>
    <path d="M 315.5440979003906 481.6045227050781 C 314.9847717285156 487.4176025390625 318.04937744140625 483.5146484375 302.23779296875 488.0731201171875 C 297.6861572265625 492.985595703125 302.4632568359375 480.0802307128906 305.1534118652344 482.23443603515625 C 281.8313293457031 465.9546203613281 301.77008056640625 480.3135986328125 308.75634765625 471.53570556640625 C 303.6938781738281 472.73626708984375 317.0132141113281 455.7490234375 315.5440979003906 481.6045227050781" stroke-width="0.0" fill="rgb(20, 20, 12)" opacity="1.0" stroke="rgb(88, 119, 232)" stroke-opacity="0.92554986" stroke-linecap="round" stroke-linejoin="round"/>
    <path d="M 151.17327880859375 469.35162353515625 C 157.40884399414062 473.2042541503906 160.85418701171875 474.8229064941406 143.908935546875 474.8547058105469 C 111.11654663085938 474.7656555175781 131.00389099121094 474.94659423828125 116.86553192138672 478.48046875 C 113.80870819091797 452.3390197753906 151.20907592773438 447.48236083984375 150.40496826171875 434.25628662109375 C 149.37681579589844 442.234375 149.84295654296875 445.433837890625 151.17327880859375 469.35162353515625" stroke-width="0.0" fill="rgb(64, 48, 32)" opacity="1.0" stroke="rgb(238, 37, 237)" stroke-opacity="0.5864289" stroke-linecap="round" stroke-linejoin="round"/>
    <path d="M 137.86114501953125 455.2603759765625 C 121.94902801513672 463.3232116699219 130.0901336669922 480.8135681152344 124.71666717529297 477.522216796875 C 118.81856536865234 478.2579040527344 114.66251373291016 478.4801025390625 116.3791275024414 462.4272155761719 C 113.96390533447266 415.42633056640625 121.61483764648438 431.01080322265625 106.1471176147461 425.7725524902344 C 130.4286346435547 419.864990234375 128.7421417236328 449.1239929199219 137.86114501953125 455.2603759765625" stroke-width="0.0" fill="rgb(52, 27, 8)" opacity="0.60046965" stroke="rgb(76, 213, 104)" stroke-opacity="0.9322047" stroke-linecap="round" stroke-linejoin="round"/>
    <path d="M 216.09193420410156 288.349609375 C 227.13909912109375 287.6098327636719 203.38699340820312 285.4563293457031 203.2639923095703 302.67279052734375 C 194.9221954345703 289.60772705078125 196.21926879882812 305.1954345703125 196.08233642578125 266.1741638183594 C 196.46475219726562 234.37545776367188 215.33114624023438 296.08062744140625 203.85879516601562 232.79298400878906 C 228.34117126464844 279.33868408203125 185.13734436035156 257.7405090332031 216.09193420410156 288.349609375" stroke-width="0.0" fill="rgb(38, 25, 9)" opacity="0.5012697" stroke="rgb(54, 158, 111)" stroke-opacity="0.023830056" stroke-linecap="round" stroke-linejoin="round"/>
    <path d="M 202.112060546875 168.74703979492188 C 207.45626831054688 163.9073486328125 202.0381622314453 165.16336059570312 201.2320556640625 174.763427734375 C 189.87118530273438 169.07513427734375 198.73216247558594 184.83323669433594 188.86216735839844 151.6874237060547 C 186.2707977294922 138.7666015625 189.13328552246094 125.48681640625 194.59698486328125 139.45184326171875 C 197.1158447265625 142.2923583984375 185.85951232910156 145.2972869873047 202.112060546875 168.74703979492188" stroke-width="0.0" fill="rgb(146, 183, 215)" opacity="0.9306098" stroke="rgb(196, 224, 155)" stroke-opacity="0.5633921" stroke-linecap="round" stroke-linejoin="round"/>
    <path d="M 356.0977783203125 132.29800415039062 C 232.635009765625 205.7379150390625 234.0579833984375 181.0594482421875 193.1367645263672 168.39822387695312 C 187.34390258789062 146.80751037597656 185.31918334960938 149.00173950195312 189.56478881835938 146.95079040527344 C 183.96202087402344 134.3090362548828 185.3544158935547 133.4499969482422 190.0059051513672 125.37134552001953 C 210.74510192871094 124.37203979492188 207.4039764404297 152.75367736816406 356.0977783203125 132.29800415039062" stroke-width="0.0" fill="rgb(148, 177, 215)" opacity="0.58773977" stroke="rgb(189, 196, 201)" stroke-opacity="0.45727605" stroke-linecap="round" stroke-linejoin="round"/>
    <path d="M 203.82603454589844 138.3029022216797 C 192.70761108398438 134.69400024414062 195.47482299804688 140.3988037109375 187.67433166503906 144.98934936523438 C 184.5098876953125 145.41004943847656 189.5934600830078 143.71507263183594 182.47511291503906 117.246826171875 C 179.1598358154297 89.15597534179688 176.6254425048828 69.69801330566406 187.4599609375 78.1852035522461 C 180.25279235839844 130.31069946289062 210.9818878173828 101.0388412475586 203.82603454589844 138.3029022216797" stroke-width="0.0" fill="rgb(147, 178, 214)" opacity="0.9026411" stroke="rgb(21, 19, 133)" stroke-opacity="0.037032824" stroke-linecap="round" stroke-linejoin="round"/>
    <path d="M 194.0170440673828 138.9872283935547 C 182.97657775878906 121.94622802734375 200.74729919433594 135.96607971191406 188.42860412597656 131.1959686279297 C 187.5145263671875 152.01303100585938 187.0755157470703 142.65658569335938 183.1686248779297 123.8956527709961 C 175.1607208251953 85.34718322753906 183.44883728027344 116.48418426513672 181.25115966796875 87.8001480102539 C 184.69558715820312 91.9511947631836 174.00811767578125 100.47075653076172 194.0170440673828 138.9872283935547" stroke-width="0.0" fill="rgb(159, 186, 217)" opacity="0.72224545" stroke="rgb(118, 63, 169)" stroke-opacity="0.120282836" stroke-linecap="round" stroke-linejoin="round"/>
    <path d="M 271.6015625 298.14630126953125 C 248.09173583984375 318.08514404296875 263.16900634765625 328.45550537109375 246.3639678955078 315.8646545410156 C 232.43536376953125 307.6489562988281 238.39614868164062 308.01220703125 236.62644958496094 312.9447021484375 C 236.9476318359375 286.0966491699219 233.79066467285156 275.4541931152344 235.915771484375 263.8719787597656 C 173.34091186523438 224.81556701660156 269.6478271484375 153.26950073242188 271.6015625 298.14630126953125" stroke-width="0.0" fill="rgb(151, 186, 223)" opacity="0.96767634" stroke="rgb(14, 179, 168)" stroke-opacity="0.9013522" stroke-linecap="round" stroke-linejoin="round"/>
    <path d="M 263.6647033691406 329.44293212890625 C 256.7016906738281 322.82537841796875 251.9227752685547 323.7060546875 251.26744079589844 314.7331848144531 C 242.54486083984375 313.9992980957031 236.69972229003906 309.1651611328125 238.82000732421875 304.04595947265625 C 238.0247344970703 299.1883544921875 238.0679931640625 299.80328369140625 238.4340362548828 283.437255859375 C 291.094970703125 282.82879638671875 255.7993621826172 292.7403564453125 263.6647033691406 329.44293212890625" stroke-width="0.0" fill="rgb(118, 177, 232)" opacity="0.81959325" stroke="rgb(6, 106, 182)" stroke-opacity="0.5417154" stroke-linecap="round" stroke-linejoin="round"/>
    <path d="M 268.0032043457031 437.2798767089844 C 277.78558349609375 485.38311767578125 260.2833251953125 493.5228271484375 257.220703125 475.51727294921875 C 223.45730590820312 475.3173828125 223.08740234375 480.9324035644531 224.3037872314453 463.28314208984375 C 252.41444396972656 439.26263427734375 259.3888244628906 434.9008483886719 227.06642150878906 395.52398681640625 C 284.2657470703125 414.9578857421875 263.62530517578125 403.4796142578125 268.0032043457031 437.2798767089844" stroke-width="0.0" fill="rgb(133, 101, 69)" opacity="0.9817642" stroke="rgb(185, 85, 230)" stroke-opacity="0.6600386" stroke-linecap="round" stroke-linejoin="round"/>
    <path d="M 272.5991516113281 461.07745361328125 C 248.03945922851562 468.19549560546875 238.4982452392578 468.70306396484375 238.34536743164062 464.0155334472656 C 221.71522521972656 456.9828796386719 207.09466552734375 471.03558349609375 206.81910705566406 452.27099609375 C 207.38047790527344 433.95452880859375 209.4456024169922 433.50421142578125 228.08636474609375 446.6889953613281 C 238.2237091064453 441.560546875 244.2368621826172 435.0499267578125 272.5991516113281 461.07745361328125" stroke-width="0.0" fill="rgb(171, 144, 111)" opacity="0.80412894" stroke="rgb(129, 32, 147)" stroke-opacity="0.11561122" stroke-linecap="round" stroke-linejoin="round"/>
    <path d="M 236.2919158935547 422.9016418457031 C 238.75564575195312 456.7370910644531 220.25218200683594 440.1723327636719 220.29759216308594 465.9134216308594 C 192.58038330078125 434.4793701171875 194.06405639648438 460.1845397949219 193.5028839111328 424.7695007324219 C 175.4025115966797 419.6700744628906 191.09054565429688 434.64520263671875 195.97210693359375 395.1983642578125 C 221.35153198242188 418.2223205566406 222.64710998535156 417.762451171875 236.2919158935547 422.9016418457031" stroke-width="0.0" fill="rgb(48, 32, 21)" opacity="0.4663019" stroke="rgb(121, 227, 11)" stroke-opacity="0.94225234" stroke-linecap="round" stroke-linejoin="round"/>
    <path d="M 231.0037841796875 491.7919006347656 C 240.42291259765625 484.2548828125 233.7470703125 493.1217041015625 191.26588439941406 494.00555419921875 C 188.47230529785156 494.60528564453125 176.77471923828125 477.5556335449219 191.57801818847656 481.1122131347656 C 196.64698791503906 451.236083984375 194.26602172851562 447.7632141113281 193.8057098388672 447.8973388671875 C 224.36660766601562 455.98046875 217.76634216308594 468.78228759765625 231.0037841796875 491.7919006347656" stroke-width="0.0" fill="rgb(71, 50, 33)" opacity="0.7199562" stroke="rgb(189, 169, 49)" stroke-opacity="0.1686997" stroke-linecap="round" stroke-linejoin="round"/>
    <path d="M 264.5957336425781 485.7711181640625 C 263.7385559082031 497.48272705078125 253.74571228027344 493.1993103027344 230.9875946044922 494.073974609375 C 185.83387756347656 498.7236328125 207.0552215576172 476.7966003417969 227.15878295898438 468.07891845703125 C 200.82582092285156 448.278076171875 199.30886840820312 444.63665771484375 219.94219970703125 446.63116455078125 C 224.4468536376953 463.0901794433594 222.67501831054688 466.86248779296875 264.5957336425781 485.7711181640625" stroke-width="0.0" fill="rgb(74, 43, 8)" opacity="0.40731317" stroke="rgb(98, 81, 81)" stroke-opacity="0.25951836" stroke-linecap="round" stroke-linejoin="round"/>
    <path d="M 61.82240295410156 520.2243041992188 C 60.90372085571289 492.7763977050781 64.38796997070312 510.5945739746094 -2.2861266136169434 504.02960205078125 C 1.0583999156951904 499.7331848144531 -7.858300685882568 519.404541015625 -11.288138389587402 494.9267578125 C 6.251990795135498 486.4513244628906 18.899208068847656 495.7673645019531 47.878021240234375 492.383056640625 C 64.88841247558594 491.02825927734375 64.05220794677734 486.84466552734375 61.82240295410156 520.2243041992188" stroke-width="0.0" fill="rgb(210, 175, 133)" opacity="1.0" stroke="rgb(239, 69, 84)" stroke-opacity="0.93480587" stroke-linecap="round" stroke-linejoin="round"/>
    <path d="M 173.17877197265625 431.02032470703125 C 174.69952392578125 466.4574279785156 172.94290161132812 474.8343200683594 174.3981170654297 474.111328125 C 142.33526611328125 475.2778625488281 143.5215606689453 474.36090087890625 147.3943634033203 467.482177734375 C 146.54856872558594 431.2951354980469 144.97491455078125 426.7320251464844 144.26011657714844 430.724853515625 C 182.48617553710938 431.2157897949219 171.20367431640625 429.468017578125 173.17877197265625 431.02032470703125" stroke-width="0.0" fill="rgb(38, 4, 3)" opacity="0.99918383" stroke="rgb(242, 144, 30)" stroke-opacity="0.7719434" stroke-linecap="round" stroke-linejoin="round"/>
    <path d="M 163.1346893310547 436.1717529296875 C 162.4186248779297 469.0526428222656 163.32691955566406 471.8166198730469 169.38748168945312 473.8838195800781 C 152.6754608154297 452.1430969238281 146.630615234375 454.79949951171875 133.71121215820312 437.2492980957031 C 130.95880126953125 434.5433349609375 131.17361450195312 430.7579040527344 154.14219665527344 431.5202331542969 C 176.25904846191406 430.019287109375 180.1476287841797 430.4774169921875 163.1346893310547 436.1717529296875" stroke-width="0.0" fill="rgb(5, 3, 3)" opacity="0.79066217" stroke="rgb(156, 213, 37)" stroke-opacity="0.46265432" stroke-linecap="round" stroke-linejoin="round"/>
    <path d="M 173.60906982421875 470.6499328613281 C 173.09466552734375 473.13031005859375 171.1600799560547 474.41094970703125 163.03399658203125 474.5205993652344 C 127.3944320678711 473.3572998046875 144.1868133544922 478.5820007324219 139.50405883789062 458.68365478515625 C 135.67433166503906 445.301513671875 136.1202850341797 443.0659484863281 138.2354736328125 441.8872375488281 C 140.49729919433594 482.0236511230469 156.62860107421875 456.0249328613281 173.60906982421875 470.6499328613281" stroke-width="0.0" fill="rgb(14, 1, 1)" opacity="0.96665126" stroke="rgb(224, 11, 40)" stroke-opacity="0.53664666" stroke-linecap="round" stroke-linejoin="round"/>
    <path d="M 273.3761291503906 454.01715087890625 C 263.0232238769531 460.43597412109375 262.9515380859375 457.2077941894531 254.37965393066406 458.6452941894531 C 226.1993865966797 458.3601379394531 218.27308654785156 463.6554260253906 214.33724975585938 455.3433532714844 C 235.2100830078125 452.37969970703125 245.61952209472656 452.88970947265625 232.22613525390625 452.5270690917969 C 237.22584533691406 453.8533935546875 256.5453796386719 452.4268493652344 273.3761291503906 454.01715087890625" stroke-width="0.0" fill="rgb(100, 69, 45)" opacity="0.8225481" stroke="rgb(181, 229, 127)" stroke-opacity="0.4201556" stroke-linecap="round" stroke-linejoin="round"/>
    <path d="M 87.18379974365234 434.806884765625 C 86.50786590576172 453.96771240234375 88.4991226196289 452.01251220703125 82.32537841796875 450.710693359375 C 78.04353332519531 453.0056457519531 79.36222839355469 451.3121337890625 80.04421997070312 430.5106506347656 C 77.99761199951172 429.78656005859375 75.97540283203125 425.0682067871094 80.70663452148438 432.11700439453125 C 84.38773345947266 423.9928894042969 86.94776153564453 431.6427917480469 87.18379974365234 434.806884765625" stroke-width="0.0" fill="rgb(14, 12, 8)" opacity="0.9979159" stroke="rgb(154, 23, 206)" stroke-opacity="0.6537378" stroke-linecap="round" stroke-linejoin="round"/>
    <path d="M 145.7864990234375 194.47523498535156 C 142.2787322998047 208.68714904785156 145.5578155517578 208.72499084472656 133.03671264648438 215.96224975585938 C 130.00047302246094 216.14892578125 131.9185333251953 219.17709350585938 131.20359802246094 192.7322540283203 C 114.46647644042969 199.69781494140625 119.86935424804688 185.77745056152344 142.13668823242188 193.0676727294922 C 166.1317596435547 179.923583984375 162.24021911621094 192.72210693359375 145.7864990234375 194.47523498535156" stroke-width="0.0" fill="rgb(90, 70, 45)" opacity="0.99920416" stroke="rgb(122, 216, 185)" stroke-opacity="0.3228474" stroke-linecap="round" stroke-linejoin="round"/>
    <path d="M 304.5893859863281 423.1224365234375 C 320.9620361328125 406.4642639160156 306.8301086425781 483.4864807128906 307.263671875 460.9878234863281 C 284.2845153808594 439.0216369628906 295.5476379394531 439.2548522949219 293.0560607910156 411.2039489746094 C 299.0901184082031 413.0557861328125 292.78741455078125 408.0802307128906 301.49041748046875 390.44915771484375 C 308.89349365234375 368.3959655761719 310.2825927734375 406.6693420410156 304.5893859863281 423.1224365234375" stroke-width="0.0" fill="rgb(17, 14, 10)" opacity="0.41095334" stroke="rgb(46, 109, 0)" stroke-opacity="0.79926246" stroke-linecap="round" stroke-linejoin="round"/>
    <path d="M 177.8518829345703 425.8060607910156 C 183.48233032226562 440.027099609375 174.95724487304688 434.2501525878906 173.67935180664062 436.498291015625 C 174.40899658203125 427.4023132324219 172.16827392578125 431.0502624511719 173.52365112304688 428.6920471191406 C 172.31320190429688 418.0268249511719 166.603515625 421.3520812988281 187.82423400878906 421.49700927734375 C 183.59591674804688 423.7850036621094 176.6042022705078 420.0970153808594 177.8518829345703 425.8060607910156" stroke-width="0.0" fill="rgb(255, 233, 177)" opacity="0.79742336" stroke="rgb(155, 109, 70)" stroke-opacity="0.69267565" stroke-linecap="round" stroke-linejoin="round"/>
    <path d="M 76.88587951660156 448.0743103027344 C 79.81620788574219 452.0037841796875 75.24516296386719 454.64385986328125 62.094722747802734 453.5872497558594 C 63.33149719238281 453.0102233886719 60.63814163208008 457.1787109375 62.12771987915039 441.29833984375 C 64.85111999511719 432.0610656738281 66.48947143554688 427.25445556640625 65.00833129882812 433.23345947265625 C 74.25813293457031 427.3867492675781 77.92476654052734 435.6369323730469 76.88587951660156 448.0743103027344" stroke-width="0.0" fill="rgb(108, 72, 46)" opacity="0.9216988" stroke="rgb(180, 101, 144)" stroke-opacity="0.11136714" stroke-linecap="round" stroke-linejoin="round"/>
    <path d="M 301.5149230957031 454.21429443359375 C 294.82562255859375 444.6713562011719 294.765625 448.64556884765625 310.699462890625 461.01507568359375 C 285.6050109863281 455.68499755859375 295.44647216796875 442.87567138671875 295.6065673828125 436.5586242675781 C 294.5856018066406 447.1919250488281 292.5517272949219 437.82501220703125 293.3426208496094 426.0281066894531 C 298.37176513671875 444.06146240234375 290.3515930175781 446.22650146484375 301.5149230957031 454.21429443359375" stroke-width="0.0" fill="rgb(14, 1, 2)" opacity="0.9593456" stroke="rgb(117, 100, 135)" stroke-opacity="0.013997825" stroke-linecap="round" stroke-linejoin="round"/>
    <path d="M 128.0841522216797 327.74383544921875 C 133.22032165527344 336.0074462890625 141.17807006835938 342.7356262207031 144.8060302734375 340.4876403808594 C 123.74873352050781 364.98284912109375 124.97615051269531 338.4668884277344 123.8282241821289 315.851806640625 C 126.4228515625 317.4915466308594 116.18802642822266 311.8111572265625 133.8345489501953 310.1286926269531 C 133.23233032226562 314.0684509277344 129.141845703125 340.084228515625 128.0841522216797 327.74383544921875" stroke-width="0.0" fill="rgb(112, 89, 65)" opacity="0.8948323" stroke="rgb(16, 159, 171)" stroke-opacity="0.16371359" stroke-linecap="round" stroke-linejoin="round"/>
    <path d="M 287.4646301269531 460.8433532714844 C 245.99761962890625 460.98193359375 254.16297912597656 478.86602783203125 226.1817169189453 476.0068359375 C 217.00743103027344 476.864990234375 205.01220703125 480.8243713378906 223.7418975830078 469.1612548828125 C 219.46548461914062 457.32781982421875 234.14273071289062 462.0253601074219 276.7256164550781 460.13299560546875 C 257.7841796875 461.9326477050781 255.6773681640625 458.39190673828125 287.4646301269531 460.8433532714844" stroke-width="0.0" fill="rgb(103, 74, 50)" opacity="1.0" stroke="rgb(13, 124, 118)" stroke-opacity="0.7412439" stroke-linecap="round" stroke-linejoin="round"/>
    <path d="M 155.94898986816406 305.7175598144531 C 152.80950927734375 307.5863037109375 127.05668640136719 309.9194641113281 128.96221923828125 311.6546325683594 C 137.39923095703125 309.7082824707031 138.23220825195312 310.9507751464844 129.4861602783203 312.1492919921875 C 132.11537170410156 310.0538330078125 136.66172790527344 299.7258605957031 136.14108276367188 303.0435791015625 C 151.81483459472656 292.1880798339844 158.777099609375 286.3019104003906 155.94898986816406 305.7175598144531" stroke-width="0.0" fill="rgb(255, 255, 229)" opacity="0.6581459" stroke="rgb(170, 160, 83)" stroke-opacity="0.7698391" stroke-linecap="round" stroke-linejoin="round"/>
    <path d="M 161.67572021484375 335.8940734863281 C 130.27235412597656 355.7761535644531 135.49925231933594 358.37908935546875 125.69501495361328 359.76812744140625 C 124.89412689208984 358.71502685546875 124.16180419921875 352.5995788574219 123.76880645751953 342.6145324707031 C 123.14888763427734 339.6440124511719 136.45327758789062 335.6942138671875 140.87472534179688 362.5830078125 C 157.53871154785156 357.10577392578125 125.41223907470703 336.44317626953125 161.67572021484375 335.8940734863281" stroke-width="0.0" fill="rgb(112, 97, 74)" opacity="0.66177005" stroke="rgb(3, 135, 111)" stroke-opacity="0.90467983" stroke-linecap="round" stroke-linejoin="round"/>
    <path d="M 231.77288818359375 394.08050537109375 C 222.51626586914062 397.9192810058594 243.51666259765625 396.12493896484375 225.74740600585938 398.2860107421875 C 224.99444580078125 397.1229553222656 225.14462280273438 378.8225402832031 225.1805877685547 382.9473571777344 C 227.22137451171875 387.2461242675781 224.53213500976562 380.7944641113281 228.83050537109375 377.48687744140625 C 231.20455932617188 378.2344665527344 231.23013305664062 376.8977966308594 231.77288818359375 394.08050537109375" stroke-width="0.0" fill="rgb(26, 23, 8)" opacity="0.9411933" stroke="rgb(51, 173, 237)" stroke-opacity="0.30407336" stroke-linecap="round" stroke-linejoin="round"/>
    <path d="M 160.18115234375 507.7510681152344 C 149.21939086914062 505.9161682128906 145.15328979492188 508.0600280761719 134.34915161132812 525.6580810546875 C 109.06138610839844 526.2930908203125 102.43122863769531 531.7867431640625 97.03536987304688 509.7257080078125 C 138.0314483642578 502.7862854003906 131.4562530517578 506.150146484375 111.8182601928711 509.9169006347656 C 105.81771850585938 502.82373046875 144.73165893554688 508.4618835449219 160.18115234375 507.7510681152344" stroke-width="0.0" fill="rgb(22, 37, 58)" opacity="0.55307704" stroke="rgb(194, 240, 170)" stroke-opacity="0.35979772" stroke-linecap="round" stroke-linejoin="round"/>
    <path d="M 178.87887573242188 375.8806457519531 C 184.56744384765625 382.5200500488281 173.35845947265625 375.70111083984375 174.3748321533203 379.6633605957031 C 166.4044952392578 381.3038024902344 155.93373107910156 379.49493408203125 164.74667358398438 368.74658203125 C 176.66775512695312 372.0113220214844 170.93121337890625 378.07708740234375 170.15818786621094 363.4706726074219 C 175.87338256835938 356.78448486328125 177.82298278808594 363.4455261230469 178.87887573242188 375.8806457519531" stroke-width="0.0" fill="rgb(88, 50, 11)" opacity="0.44498974" stroke="rgb(87, 41, 195)" stroke-opacity="0.39352375" stroke-linecap="round" stroke-linejoin="round"/>
    <path d="M 228.0906219482422 510.1098937988281 C 212.3461456298828 546.408935546875 200.9125213623047 532.9069213867188 184.70298767089844 534.205322265625 C 162.60467529296875 521.0503540039062 153.2637481689453 529.5223388671875 143.09068298339844 511.4432373046875 C 157.6106719970703 503.6515808105469 199.05963134765625 509.8470458984375 170.5164337158203 506.3104248046875 C 188.38377380371094 507.7381286621094 190.81295776367188 504.1407470703125 228.0906219482422 510.1098937988281" stroke-width="0.0" fill="rgb(2, 32, 60)" opacity="0.45557535" stroke="rgb(86, 231, 209)" stroke-opacity="0.29086646" stroke-linecap="round" stroke-linejoin="round"/>
    <path d="M 246.3116455078125 379.1491394042969 C 246.63018798828125 409.4778747558594 249.56163024902344 394.11627197265625 230.00360107421875 401.8507995605469 C 236.987060546875 396.7124328613281 230.87673950195312 394.458251953125 232.79757690429688 376.9021301269531 C 235.8947296142578 371.86279296875 228.9616241455078 375.5758972167969 236.16677856445312 375.8503112792969 C 249.3228759765625 376.9901428222656 242.68606567382812 388.16326904296875 246.3116455078125 379.1491394042969" stroke-width="0.0" fill="rgb(210, 170, 122)" opacity="0.89541286" stroke="rgb(97, 75, 12)" stroke-opacity="0.09606857" stroke-linecap="round" stroke-linejoin="round"/>
    <path d="M 122.4035873413086 504.3926696777344 C 123.4405517578125 540.2823486328125 115.20364379882812 533.7108154296875 85.02928924560547 519.6909790039062 C 51.96522521972656 542.64306640625 43.774784088134766 551.5721435546875 33.521175384521484 509.4759826660156 C 67.80133819580078 501.6891784667969 65.02510833740234 504.2078552246094 96.96219635009766 503.4206237792969 C 106.35296630859375 503.3328857421875 113.6749038696289 503.2386169433594 122.4035873413086 504.3926696777344" stroke-width="0.0" fill="rgb(80, 69, 60)" opacity="0.68108684" stroke="rgb(79, 182, 211)" stroke-opacity="0.5604178" stroke-linecap="round" stroke-linejoin="round"/>
    <path d="M 134.15414428710938 359.7862854003906 C 122.22774505615234 363.0971984863281 131.79071044921875 368.3807373046875 119.89944458007812 431.556884765625 C 117.2092056274414 369.90765380859375 122.85494995117188 404.439453125 121.79732513427734 372.6770324707031 C 120.09661102294922 367.22198486328125 128.24412536621094 371.60345458984375 135.4055633544922 348.4241027832031 C 134.72300720214844 357.3963928222656 141.86000061035156 369.5484313964844 134.15414428710938 359.7862854003906" stroke-width="0.0" fill="rgb(102, 76, 51)" opacity="0.91989696" stroke="rgb(119, 75, 204)" stroke-opacity="0.9148447" stroke-linecap="round" stroke-linejoin="round"/>
    <path d="M 111.06561279296875 409.31640625 C 125.27027893066406 415.8043518066406 125.47611236572266 410.35546875 73.52088928222656 414.33441162109375 C 92.12602233886719 399.46697998046875 88.37855529785156 412.10784912109375 103.52198791503906 405.6189880371094 C 106.99390411376953 374.24627685546875 86.86264038085938 389.0543212890625 115.8151626586914 381.83624267578125 C 97.81411743164062 399.8644104003906 115.19172668457031 377.491455078125 111.06561279296875 409.31640625" stroke-width="0.0" fill="rgb(255, 222, 168)" opacity="0.6770691" stroke="rgb(216, 253, 221)" stroke-opacity="0.95888776" stroke-linecap="round" stroke-linejoin="round"/>
    <path d="M 132.0912628173828 381.8003845214844 C 136.1173858642578 384.064697265625 131.06463623046875 382.08868408203125 123.43449401855469 383.8021240234375 C 122.32109832763672 369.4569396972656 121.3447265625 374.6581726074219 121.90263366699219 335.41949462890625 C 125.51374053955078 350.45037841796875 122.9126968383789 347.41363525390625 123.81806182861328 351.292236328125 C 130.8339385986328 352.87353515625 136.42581176757812 357.268798828125 132.0912628173828 381.8003845214844" stroke-width="0.0" fill="rgb(94, 56, 25)" opacity="0.7205425" stroke="rgb(248, 200, 223)" stroke-opacity="0.27930787" stroke-linecap="round" stroke-linejoin="round"/>
    <path d="M 178.06488037109375 302.2498474121094 C 170.8610382080078 305.1825256347656 163.34249877929688 304.896240234375 158.53309631347656 306.333740234375 C 146.49172973632812 304.1502990722656 143.2906494140625 312.5078430175781 134.08389282226562 304.93487548828125 C 153.17230224609375 301.27294921875 170.9240264892578 297.3434143066406 179.7881317138672 298.52880859375 C 166.59039306640625 301.481689453125 172.05258178710938 297.5381164550781 178.06488037109375 302.2498474121094" stroke-width="0.0" fill="rgb(255, 239, 200)" opacity="0.7006984" stroke="rgb(97, 215, 44)" stroke-opacity="0.702219" stroke-linecap="round" stroke-linejoin="round"/>
    <path d="M 256.195556640625 382.8901672363281 C 243.2473907470703 366.646240234375 246.78245544433594 371.4880065917969 243.72073364257812 385.8628845214844 C 243.33726501464844 372.8977355957031 237.77932739257812 378.43109130859375 231.04566955566406 379.4296569824219 C 225.654296875 362.90826416015625 232.41281127929688 367.1387939453125 265.0395202636719 363.8224792480469 C 266.11016845703125 375.52630615234375 243.21722412109375 357.4732666015625 256.195556640625 382.8901672363281" stroke-width="0.0" fill="rgb(123, 92, 57)" opacity="1.0" stroke="rgb(142, 147, 142)" stroke-opacity="0.8432154" stroke-linecap="round" stroke-linejoin="round"/>
    <path d="M 145.44895935058594 339.0977478027344 C 131.91966247558594 354.71087646484375 136.37353515625 358.58160400390625 123.93376922607422 367.6358642578125 C 125.44278717041016 363.9234313964844 124.58902740478516 362.64556884765625 124.75749969482422 357.92230224609375 C 123.89484405517578 346.3283386230469 129.26040649414062 353.2181396484375 136.92547607421875 347.1929931640625 C 127.05386352539062 342.0682373046875 148.43563842773438 342.7509460449219 145.44895935058594 339.0977478027344" stroke-width="0.0" fill="rgb(98, 54, 6)" opacity="0.99855083" stroke="rgb(18, 28, 123)" stroke-opacity="0.27678505" stroke-linecap="round" stroke-linejoin="round"/>
    <path d="M 186.270751953125 166.61264038085938 C 187.14028930664062 167.30416870117188 187.55819702148438 182.98068237304688 177.0422821044922 181.46978759765625 C 171.78160095214844 188.5426025390625 173.64385986328125 181.64901733398438 178.60914611816406 164.37408447265625 C 184.72137451171875 149.26791381835938 183.11622619628906 157.45188903808594 180.0955047607422 166.9279327392578 C 185.14329528808594 166.60154724121094 199.21913146972656 178.31222534179688 186.270751953125 166.61264038085938" stroke-width="0.0" fill="rgb(177, 176, 160)" opacity="0.5860679" stroke="rgb(166, 123, 208)" stroke-opacity="0.30369788" stroke-linecap="round" stroke-linejoin="round"/>
    <path d="M 306.5832214355469 468.05157470703125 C 314.84112548828125 446.3219909667969 311.26593017578125 439.7573547363281 311.608154296875 448.8382873535156 C 315.8072814941406 461.0609130859375 310.9313049316406 459.9205017089844 292.1770324707031 458.0730895996094 C 290.6814880371094 432.03570556640625 291.3351135253906 431.03717041015625 295.74285888671875 445.3734130859375 C 293.9655456542969 454.4884338378906 308.4241638183594 444.3454895019531 306.5832214355469 468.05157470703125" stroke-width="0.0" fill="rgb(0, 1, 0)" opacity="0.38998893" stroke="rgb(245, 115, 19)" stroke-opacity="0.06325971" stroke-linecap="round" stroke-linejoin="round"/>
    <path d="M 77.49702453613281 410.9030456542969 C 87.79519653320312 407.7722473144531 83.14302825927734 406.456787109375 66.62285614013672 424.1891784667969 C 64.33647155761719 421.6418151855469 56.13933563232422 414.3973083496094 68.1662826538086 404.5697937011719 C 70.15449523925781 387.06024169921875 42.491355895996094 383.4374084472656 80.00115966796875 390.498291015625 C 76.34683227539062 389.2726745605469 78.745361328125 411.3506164550781 77.49702453613281 410.9030456542969" stroke-width="0.0" fill="rgb(83, 53, 30)" opacity="0.52734864" stroke="rgb(191, 141, 14)" stroke-opacity="0.3724075" stroke-linecap="round" stroke-linejoin="round"/>
    <path d="M 302.95751953125 376.6798095703125 C 304.62725830078125 382.5597839355469 300.09124755859375 407.3049621582031 292.4989013671875 418.8253173828125 C 286.70880126953125 401.0955505371094 291.8833312988281 386.27008056640625 286.7878723144531 375.21539306640625 C 279.7357482910156 366.6405029296875 302.7206115722656 374.2845458984375 277.5025634765625 339.0079345703125 C 319.1732177734375 361.1889343261719 307.0181579589844 383.3463439941406 302.95751953125 376.6798095703125" stroke-width="0.0" fill="rgb(42, 37, 29)" opacity="0.9038843" stroke="rgb(240, 86, 108)" stroke-opacity="0.8973433" stroke-linecap="round" stroke-linejoin="round"/>
    <path d="M 252.67579650878906 365.2516174316406 C 240.9656219482422 392.3206787109375 236.48300170898438 393.9068908691406 261.93170166015625 403.1539306640625 C 228.6425323486328 404.4891662597656 257.3370666503906 397.8304138183594 238.18495178222656 395.5798645019531 C 230.49420166015625 379.9017028808594 225.3199005126953 365.4843444824219 253.19091796875 369.5397033691406 C 243.8566436767578 376.5800476074219 240.72206115722656 385.81439208984375 252.67579650878906 365.2516174316406" stroke-width="0.0" fill="rgb(239, 198, 147)" opacity="0.54515725" stroke="rgb(126, 79, 185)" stroke-opacity="0.61431736" stroke-linecap="round" stroke-linejoin="round"/>
    <path d="M 288.6534423828125 411.3052673339844 C 297.59942626953125 412.0664367675781 284.1028137207031 420.33251953125 283.8912048339844 414.1317443847656 C 281.776123046875 423.43157958984375 281.7685546875 403.1662902832031 283.20404052734375 409.9643859863281 C 285.21044921875 406.1507263183594 284.90142822265625 406.8733215332031 290.1546936035156 409.799560546875 C 282.0397644042969 403.8388977050781 286.8672790527344 398.61309814453125 288.6534423828125 411.3052673339844" stroke-width="0.0" fill="rgb(126, 106, 85)" opacity="0.9493866" stroke="rgb(66, 111, 199)" stroke-opacity="0.86211807" stroke-linecap="round" stroke-linejoin="round"/>
    <path d="M 296.2362976074219 444.90924072265625 C 294.4842834472656 424.5141296386719 297.0867919921875 451.07574462890625 294.8895263671875 459.14508056640625 C 291.3846435546875 433.7857666015625 294.17901611328125 423.38275146484375 291.632080078125 441.7676086425781 C 291.3110046386719 435.150390625 291.0514221191406 416.78717041015625 293.1083068847656 393.60009765625 C 295.98809814453125 429.6953125 294.5898132324219 436.74749755859375 296.2362976074219 444.90924072265625" stroke-width="0.0" fill="rgb(3, 0, 0)" opacity="0.65134615" stroke="rgb(176, 206, 221)" stroke-opacity="0.0272829" stroke-linecap="round" stroke-linejoin="round"/>
    <path d="M 157.5012969970703 324.6485595703125 C 127.8427963256836 336.19012451171875 141.6427459716797 360.4442443847656 133.21597290039062 359.5568542480469 C 118.65829467773438 376.459228515625 127.85165405273438 348.7795715332031 122.00492095947266 337.3968505859375 C 124.76483154296875 342.73846435546875 125.3336410522461 340.1557922363281 131.74143981933594 340.4401550292969 C 138.0798797607422 331.2670593261719 154.7910614013672 317.6558532714844 157.5012969970703 324.6485595703125" stroke-width="0.0" fill="rgb(96, 67, 39)" opacity="1.0" stroke="rgb(251, 97, 175)" stroke-opacity="0.7176214" stroke-linecap="round" stroke-linejoin="round"/>
    <path d="M 292.0831604003906 388.50885009765625 C 290.47271728515625 416.3531494140625 294.3375244140625 408.2862548828125 295.10101318359375 433.19805908203125 C 288.2825622558594 422.8739929199219 298.2495422363281 378.7737121582031 289.361328125 361.7460632324219 C 293.51806640625 430.27838134765625 290.403076171875 425.32196044921875 290.08056640625 410.83087158203125 C 291.7799072265625 424.2583312988281 291.11102294921875 428.69512939453125 292.0831604003906 388.50885009765625" stroke-width="0.0" fill="rgb(5, 0, 0)" opacity="0.834966" stroke="rgb(31, 216, 44)" stroke-opacity="0.4458068" stroke-linecap="round" stroke-linejoin="round"/>
    <path d="M 255.5022735595703 396.3586730957031 C 254.3252716064453 385.2304992675781 260.67523193359375 405.3316650390625 246.3991241455078 403.5152587890625 C 232.98715209960938 404.0453796386719 212.00587463378906 408.8843078613281 223.34210205078125 402.4783020019531 C 222.3863067626953 393.3465881347656 245.33493041992188 405.1211242675781 244.55145263671875 395.1436767578125 C 244.61996459960938 392.1788330078125 237.3031768798828 397.486083984375 255.5022735595703 396.3586730957031" stroke-width="0.0" fill="rgb(168, 147, 114)" opacity="0.7759616" stroke="rgb(87, 23, 191)" stroke-opacity="0.75576085" stroke-linecap="round" stroke-linejoin="round"/>
    <path d="M 152.27786254882812 208.00404357910156 C 150.49273681640625 210.3916778564453 139.2152099609375 209.67385864257812 151.92666625976562 210.85020446777344 C 128.12542724609375 218.87710571289062 128.40380859375 213.01551818847656 135.8441619873047 214.1261749267578 C 140.00706481933594 192.48692321777344 146.95860290527344 186.739501953125 145.3076629638672 202.8618621826172 C 146.957275390625 198.4874267578125 150.26759338378906 202.67857360839844 152.27786254882812 208.00404357910156" stroke-width="0.0" fill="rgb(94, 82, 62)" opacity="1.0" stroke="rgb(206, 186, 183)" stroke-opacity="0.77734077" stroke-linecap="round" stroke-linejoin="round"/>
    <path d="M 314.0408630371094 461.58697509765625 C 309.5417175292969 484.52923583984375 271.1567077636719 457.0156555175781 308.5406799316406 461.2985534667969 C 297.5137634277344 453.83502197265625 284.47601318359375 461.2354431152344 301.2300720214844 458.4229431152344 C 289.6780090332031 455.8673400878906 289.6800537109375 442.72589111328125 304.9706726074219 456.5655212402344 C 304.88409423828125 442.73358154296875 298.86419677734375 458.6418151855469 314.0408630371094 461.58697509765625" stroke-width="0.0" fill="rgb(0, 9, 0)" opacity="0.46558607" stroke="rgb(238, 144, 22)" stroke-opacity="0.046420623" stroke-linecap="round" stroke-linejoin="round"/>
    <path d="M 75.15547943115234 388.7830505371094 C 60.979434967041016 397.84747314453125 80.17916870117188 418.8766784667969 62.45902633666992 419.671142578125 C 63.70222854614258 410.5364685058594 62.09626007080078 407.120849609375 63.194889068603516 391.8414001464844 C 68.59414672851562 380.4315185546875 52.18306350708008 381.4437561035156 109.36395263671875 377.5538330078125 C 113.02401733398438 387.7615051269531 60.881553649902344 380.6209411621094 75.15547943115234 388.7830505371094" stroke-width="0.0" fill="rgb(87, 42, 5)" opacity="0.4913064" stroke="rgb(149, 85, 247)" stroke-opacity="0.6894054" stroke-linecap="round" stroke-linejoin="round"/>
    <path d="M 174.78981018066406 82.28330993652344 C 179.82943725585938 100.66232299804688 173.09820556640625 79.6462173461914 172.4074249267578 98.42755126953125 C 163.2422637939453 99.10128784179688 171.360595703125 76.50506591796875 168.18296813964844 68.5935287475586 C 170.24960327148438 86.78852081298828 162.34323120117188 84.91930389404297 172.27049255371094 79.97721862792969 C 175.49098205566406 87.01226806640625 173.47567749023438 88.02310180664062 174.78981018066406 82.28330993652344" stroke-width="0.0" fill="rgb(7, 8, 1)" opacity="0.64528733" stroke="rgb(125, 124, 185)" stroke-opacity="0.2234407" stroke-linecap="round" stroke-linejoin="round"/>
    <path d="M 75.08081817626953 438.6690368652344 C 63.240257263183594 426.1895751953125 69.6690444946289 425.6692810058594 66.9996566772461 451.9803466796875 C 61.677650451660156 450.1820068359375 61.77669906616211 450.435546875 61.66093444824219 428.224853515625 C 61.31061553955078 426.6118469238281 57.23396301269531 427.0559387207031 61.22182083129883 424.81268310546875 C 75.7221908569336 437.2297668457031 79.92774963378906 439.9467468261719 75.08081817626953 438.6690368652344" stroke-width="0.0" fill="rgb(100, 63, 33)" opacity="1.0" stroke="rgb(132, 62, 144)" stroke-opacity="0.38969335" stroke-linecap="round" stroke-linejoin="round"/>
    <path d="M 86.21762084960938 433.0406188964844 C 77.84587097167969 422.7994689941406 83.1751937866211 445.3187561035156 72.6383285522461 447.21795654296875 C 72.10216522216797 436.82293701171875 77.11489868164062 427.3552551269531 57.35942459106445 427.1407775878906 C 54.98891830444336 422.7243347167969 64.11211395263672 425.82403564453125 72.83177185058594 431.37738037109375 C 83.29421997070312 427.0846862792969 81.28163146972656 418.7634582519531 86.21762084960938 433.0406188964844" stroke-width="0.0" fill="rgb(102, 73, 40)" opacity="0.72152674" stroke="rgb(31, 53, 208)" stroke-opacity="0.73109895" stroke-linecap="round" stroke-linejoin="round"/>
    <path d="M 176.44064331054688 92.18902587890625 C 176.86737060546875 84.43446350097656 181.3865203857422 83.48074340820312 180.5120086669922 95.3411865234375 C 170.2275848388672 89.29181671142578 152.4897003173828 103.17539978027344 155.09823608398438 89.7049789428711 C 166.83644104003906 101.67683410644531 181.82118225097656 70.27710723876953 168.9805145263672 86.0874252319336 C 175.27293395996094 90.7590103149414 174.11856079101562 94.80125427246094 176.44064331054688 92.18902587890625" stroke-width="0.0" fill="rgb(3, 13, 6)" opacity="0.7107237" stroke="rgb(242, 244, 132)" stroke-opacity="0.972452" stroke-linecap="round" stroke-linejoin="round"/>
    <path d="M 185.9144744873047 170.28778076171875 C 179.95050048828125 160.36753845214844 184.7313690185547 181.38694763183594 183.09735107421875 235.39004516601562 C 180.1792449951172 156.07518005371094 191.2987823486328 175.4763641357422 173.23587036132812 183.7039794921875 C 179.3400421142578 161.39004516601562 180.89991760253906 147.11898803710938 183.13365173339844 144.87420654296875 C 182.61013793945312 161.1697235107422 182.76492309570312 192.4387664794922 185.9144744873047 170.28778076171875" stroke-width="0.0" fill="rgb(231, 220, 193)" opacity="1.0" stroke="rgb(72, 108, 149)" stroke-opacity="0.21494953" stroke-linecap="round" stroke-linejoin="round"/>
    <path d="M 256.0600891113281 426.4855651855469 C 255.86517333984375 441.46844482421875 259.3900451660156 450.5827941894531 250.57460021972656 442.4002380371094 C 245.9720458984375 445.79644775390625 249.9333953857422 433.493408203125 249.45205688476562 424.3096618652344 C 247.6139678955078 448.222412109375 247.1338348388672 439.14373779296875 249.05496215820312 414.2149658203125 C 246.6231689453125 415.5055847167969 256.6626892089844 420.2188415527344 256.0600891113281 426.4855651855469" stroke-width="0.0" fill="rgb(24, 19, 9)" opacity="0.86357456" stroke="rgb(66, 187, 137)" stroke-opacity="0.38109636" stroke-linecap="round" stroke-linejoin="round"/>
    <path d="M 131.50543212890625 175.31622314453125 C 137.11514282226562 184.59754943847656 137.7139129638672 183.977783203125 134.03309631347656 177.13177490234375 C 136.0642547607422 167.1100616455078 137.02108764648438 163.0463104248047 132.58128356933594 168.8541259765625 C 130.21214294433594 176.34495544433594 143.32666015625 166.79148864746094 128.58554077148438 157.61900329589844 C 137.68743896484375 155.662841796875 136.86997985839844 157.5114288330078 131.50543212890625 175.31622314453125" stroke-width="0.0" fill="rgb(51, 68, 70)" opacity="0.9614674" stroke="rgb(176, 147, 204)" stroke-opacity="0.8437555" stroke-linecap="round" stroke-linejoin="round"/>
    <path d="M 90.83356475830078 419.1366882324219 C 56.316383361816406 421.78143310546875 89.19620513916016 429.14337158203125 63.993690490722656 433.5527648925781 C 62.21223449707031 413.9543762207031 66.47998809814453 411.9396667480469 63.71335983276367 430.6385498046875 C 60.3951301574707 435.2704772949219 65.11224365234375 412.326416015625 62.5324592590332 386.5289611816406 C 79.99449920654297 425.2737731933594 46.60799026489258 419.212890625 90.83356475830078 419.1366882324219" stroke-width="0.0" fill="rgb(90, 57, 34)" opacity="0.8123428" stroke="rgb(243, 66, 129)" stroke-opacity="0.78393835" stroke-linecap="round" stroke-linejoin="round"/>
    <path d="M 370.82501220703125 497.4302062988281 C 371.421142578125 518.0577392578125 369.1600646972656 519.4569091796875 351.57769775390625 521.4682006835938 C 342.9895324707031 525.4384155273438 337.3067321777344 527.8842163085938 336.66070556640625 522.1945190429688 C 360.17559814453125 512.139892578125 339.4064636230469 496.6470947265625 361.83367919921875 495.02093505859375 C 379.82330322265625 493.3674621582031 376.4021911621094 492.8389892578125 370.82501220703125 497.4302062988281" stroke-width="0.0" fill="rgb(103, 128, 1)" opacity="0.48162457" stroke="rgb(111, 206, 38)" stroke-opacity="0.67454433" stroke-linecap="round" stroke-linejoin="round"/>
    <path d="M 180.69711303710938 303.30682373046875 C 176.29855346679688 303.46630859375 173.00039672851562 306.0565185546875 156.55787658691406 303.13970947265625 C 167.51380920410156 307.7451171875 167.4199981689453 303.67291259765625 155.4599151611328 301.709716796875 C 168.6840362548828 298.1484375 175.2620086669922 298.74725341796875 166.67872619628906 299.3056945800781 C 185.1067352294922 297.28106689453125 185.87570190429688 291.1311950683594 180.69711303710938 303.30682373046875" stroke-width="0.0" fill="rgb(255, 255, 223)" opacity="0.5402654" stroke="rgb(233, 55, 78)" stroke-opacity="0.2913229" stroke-linecap="round" stroke-linejoin="round"/>
    <path d="M 227.6212921142578 253.6555938720703 C 222.64637756347656 264.31707763671875 230.60855102539062 309.607177734375 225.892578125 303.05279541015625 C 222.79574584960938 259.23345947265625 221.8932647705078 245.769287109375 222.4750518798828 261.2724304199219 C 219.6329345703125 246.90528869628906 220.44554138183594 255.566162109375 222.8370819091797 247.69261169433594 C 226.1077423095703 262.3258056640625 223.64903259277344 247.9268341064453 227.6212921142578 253.6555938720703" stroke-width="0.0" fill="rgb(172, 147, 118)" opacity="1.0" stroke="rgb(61, 6, 170)" stroke-opacity="0.1573728" stroke-linecap="round" stroke-linejoin="round"/>
    <path d="M 270.7915954589844 457.6729736328125 C 272.091064453125 468.95794677734375 262.64068603515625 457.75469970703125 248.87974548339844 464.9989013671875 C 269.9634704589844 477.21051025390625 196.1204071044922 467.7572937011719 223.07553100585938 477.04534912109375 C 292.5392761230469 465.5392150878906 265.1319580078125 478.3992614746094 271.6029357910156 456.511474609375 C 273.2911376953125 422.6802673339844 246.50131225585938 463.3602294921875 270.7915954589844 457.6729736328125" stroke-width="0.0" fill="rgb(128, 92, 63)" opacity="0.8826743" stroke="rgb(80, 30, 116)" stroke-opacity="0.44717172" stroke-linecap="round" stroke-linejoin="round"/>
    <path d="M 286.0778503417969 489.5955810546875 C 286.67449951171875 483.8553466796875 282.6521301269531 488.68963623046875 271.51507568359375 487.9424743652344 C 272.68994140625 490.6786193847656 262.3628234863281 486.2396240234375 267.5425109863281 491.0672912597656 C 261.1085510253906 483.37860107421875 273.3265075683594 481.1715087890625 270.27642822265625 480.8932189941406 C 276.7900390625 482.68536376953125 283.1087341308594 476.87640380859375 286.0778503417969 489.5955810546875" stroke-width="0.0" fill="rgb(255, 255, 217)" opacity="0.71124715" stroke="rgb(109, 221, 85)" stroke-opacity="0.41742444" stroke-linecap="round" stroke-linejoin="round"/>
    <path d="M 172.2337188720703 368.9161682128906 C 176.65145874023438 373.735107421875 173.48219299316406 388.07940673828125 178.88043212890625 408.432861328125 C 163.05203247070312 385.8028869628906 157.4265899658203 380.9455261230469 152.13833618164062 368.1336364746094 C 138.9652862548828 376.0868225097656 167.51454162597656 369.0122375488281 167.12051391601562 370.2613220214844 C 174.15969848632812 375.1445617675781 182.3387908935547 364.2344055175781 172.2337188720703 368.9161682128906" stroke-width="0.0" fill="rgb(34, 25, 19)" opacity="0.3538232" stroke="rgb(138, 123, 15)" stroke-opacity="0.08391335" stroke-linecap="round" stroke-linejoin="round"/>
    <path d="M 80.12232971191406 451.4136047363281 C 80.26307678222656 453.97296142578125 80.81195068359375 449.0390930175781 80.67353057861328 453.229736328125 C 56.11844253540039 454.9573974609375 58.06678771972656 452.9853210449219 70.92766571044922 452.7261962890625 C 77.89729309082031 442.45263671875 62.119930267333984 416.009521484375 76.97579193115234 421.2025146484375 C 77.24076843261719 443.9948425292969 80.91221618652344 422.271484375 80.12232971191406 451.4136047363281" stroke-width="0.0" fill="rgb(119, 90, 59)" opacity="0.76339996" stroke="rgb(246, 72, 16)" stroke-opacity="0.56412977" stroke-linecap="round" stroke-linejoin="round"/>
    <path d="M 131.3509063720703 187.7848663330078 C 130.10487365722656 190.73892211914062 133.87466430664062 190.8968505859375 122.90096282958984 192.76007080078125 C 116.4087142944336 201.02841186523438 118.38220977783203 203.86363220214844 122.37397003173828 185.50181579589844 C 123.87651062011719 181.56451416015625 126.28363800048828 166.9538116455078 131.33432006835938 158.26885986328125 C 132.36485290527344 165.68711853027344 130.24331665039062 179.52601623535156 131.3509063720703 187.7848663330078" stroke-width="0.0" fill="rgb(236, 228, 203)" opacity="0.79905367" stroke="rgb(78, 249, 34)" stroke-opacity="0.7716877" stroke-linecap="round" stroke-linejoin="round"/>
    <path d="M 143.9054718017578 347.23577880859375 C 132.3102264404297 350.93951416015625 138.3682861328125 366.5791931152344 135.50262451171875 379.5863952636719 C 123.96662902832031 337.4505310058594 133.5482635498047 330.753662109375 129.69761657714844 355.38897705078125 C 135.44284057617188 353.6822509765625 126.7995376586914 355.901611328125 137.59954833984375 338.2267761230469 C 144.2247314453125 330.2449035644531 137.1282958984375 334.5090637207031 143.9054718017578 347.23577880859375" stroke-width="0.0" fill="rgb(133, 106, 74)" opacity="0.6244205" stroke="rgb(194, 6, 200)" stroke-opacity="0.8496866" stroke-linecap="round" stroke-linejoin="round"/>
    <path d="M 131.3771514892578 326.083984375 C 125.3631591796875 338.1660461425781 127.43860626220703 386.4888000488281 124.27438354492188 367.37603759765625 C 123.17676544189453 351.05572509765625 123.29931640625 351.83892822265625 121.16142272949219 331.9794616699219 C 124.89081573486328 341.6505432128906 128.75985717773438 336.90936279296875 129.53353881835938 334.52252197265625 C 127.79524993896484 327.379638671875 132.63778686523438 333.4533386230469 131.3771514892578 326.083984375" stroke-width="0.0" fill="rgb(73, 49, 31)" opacity="0.5965077" stroke="rgb(212, 232, 114)" stroke-opacity="0.9809517" stroke-linecap="round" stroke-linejoin="round"/>
    <path d="M 162.0017547607422 342.2494812011719 C 179.98715209960938 353.7815856933594 176.1753387451172 361.09002685546875 173.47073364257812 335.0587463378906 C 173.85195922851562 348.4660949707031 174.8570556640625 347.7485656738281 170.18133544921875 340.3877258300781 C 164.0911865234375 338.6031188964844 173.34669494628906 353.8763122558594 170.11940002441406 345.7347106933594 C 169.60000610351562 350.2164611816406 176.1764373779297 352.732177734375 162.0017547607422 342.2494812011719" stroke-width="0.0" fill="rgb(255, 255, 190)" opacity="0.5863578" stroke="rgb(31, 177, 118)" stroke-opacity="0.19382611" stroke-linecap="round" stroke-linejoin="round"/>
    <path d="M 150.1658172607422 310.3134460449219 C 121.51622772216797 313.8782958984375 142.14109802246094 325.5202941894531 129.62820434570312 336.0505676269531 C 122.32603454589844 347.955810546875 123.68032836914062 347.04058837890625 123.04739379882812 311.5320739746094 C 131.6978302001953 299.1604919433594 115.05943298339844 313.3111267089844 133.96701049804688 309.3336486816406 C 220.72378540039062 296.7308654785156 228.1615447998047 304.3807678222656 150.1658172607422 310.3134460449219" stroke-width="0.0" fill="rgb(65, 43, 18)" opacity="0.4594375" stroke="rgb(134, 71, 101)" stroke-opacity="0.7773557" stroke-linecap="round" stroke-linejoin="round"/>
    <path d="M 171.48487854003906 271.2078857421875 C 171.5034942626953 309.3248291015625 168.83071899414062 302.45654296875 179.44752502441406 303.04644775390625 C 186.31167602539062 293.79827880859375 176.47117614746094 297.55816650390625 154.68466186523438 299.3303527832031 C 151.41392517089844 297.31146240234375 166.12635803222656 294.0508117675781 172.35659790039062 283.583251953125 C 171.8667449951172 302.1817932128906 172.92214965820312 307.4963073730469 171.48487854003906 271.2078857421875" stroke-width="0.0" fill="rgb(255, 255, 227)" opacity="0.69053924" stroke="rgb(146, 187, 113)" stroke-opacity="0.31124428" stroke-linecap="round" stroke-linejoin="round"/>
    <path d="M 174.47471618652344 189.30819702148438 C 142.83670043945312 212.4861297607422 175.4374237060547 209.52867126464844 151.26966857910156 212.61544799804688 C 153.58251953125 200.30677795410156 141.67710876464844 199.3773193359375 153.13671875 199.39605712890625 C 157.4737091064453 204.27366638183594 155.6141815185547 206.32786560058594 152.0752716064453 196.18765258789062 C 154.1382598876953 186.14208984375 159.8340301513672 186.7789764404297 174.47471618652344 189.30819702148438" stroke-width="0.0" fill="rgb(243, 203, 154)" opacity="0.6877359" stroke="rgb(169, 172, 64)" stroke-opacity="0.43411812" stroke-linecap="round" stroke-linejoin="round"/>
    <path d="M 141.10137939453125 377.41766357421875 C 102.31498718261719 398.9736022949219 154.6369171142578 361.5604553222656 115.07278442382812 423.8360290527344 C 121.47300720214844 438.6433410644531 119.06718444824219 396.8906555175781 119.33414459228516 384.5777893066406 C 133.43531799316406 388.5365295410156 125.46588134765625 391.68780517578125 126.36103820800781 354.94219970703125 C 139.35691833496094 364.6772155761719 143.9214324951172 363.5330810546875 141.10137939453125 377.41766357421875" stroke-width="0.0" fill="rgb(93, 71, 51)" opacity="0.53140634" stroke="rgb(245, 7, 27)" stroke-opacity="0.47478822" stroke-linecap="round" stroke-linejoin="round"/>
    <path d="M 360.1665344238281 507.8881530761719 C 343.0980529785156 515.4813842773438 286.26202392578125 508.4459533691406 243.30532836914062 513.0999145507812 C 298.6479187011719 517.8632202148438 285.360595703125 534.668701171875 264.1995544433594 507.7770690917969 C 308.5341491699219 507.9496765136719 319.47705078125 508.1485900878906 304.8918762207031 507.5544738769531 C 312.5205078125 508.0190124511719 333.766357421875 507.05828857421875 360.1665344238281 507.8881530761719" stroke-width="0.0" fill="rgb(29, 9, 0)" opacity="0.43545103" stroke="rgb(133, 66, 149)" stroke-opacity="0.7089271" stroke-linecap="round" stroke-linejoin="round"/>
    <path d="M 238.24766540527344 461.4031677246094 C 158.52862548828125 462.8334045410156 181.40098571777344 465.5193786621094 193.25650024414062 459.9478759765625 C 210.63235473632812 458.4024963378906 202.61766052246094 460.91094970703125 209.7144317626953 459.61138916015625 C 209.37008666992188 462.6058654785156 211.13206481933594 441.74176025390625 210.04461669921875 457.8859558105469 C 206.7166748046875 463.3002014160156 221.50408935546875 457.0320129394531 238.24766540527344 461.4031677246094" stroke-width="0.0" fill="rgb(146, 124, 105)" opacity="0.5669048" stroke="rgb(109, 91, 173)" stroke-opacity="0.3186637" stroke-linecap="round" stroke-linejoin="round"/>
    <path d="M 128.3596649169922 342.31646728515625 C 128.46908569335938 328.3846435546875 134.27392578125 334.91485595703125 127.53791046142578 343.4150390625 C 120.8582992553711 344.6693115234375 124.98070526123047 342.25286865234375 124.83708190917969 323.4255676269531 C 122.11958312988281 332.1027526855469 123.81331634521484 319.8793029785156 122.78047180175781 312.2720031738281 C 135.57562255859375 306.3629455566406 118.677001953125 324.38885498046875 128.3596649169922 342.31646728515625" stroke-width="0.0" fill="rgb(77, 55, 31)" opacity="0.88229" stroke="rgb(106, 95, 131)" stroke-opacity="0.6704411" stroke-linecap="round" stroke-linejoin="round"/>
    <path d="M 100.43673706054688 271.44677734375 C 93.5032730102539 302.91229248046875 108.23686218261719 355.41717529296875 97.80108642578125 305.5933532714844 C 100.61385345458984 325.49639892578125 97.71366882324219 350.0064392089844 99.6624755859375 371.5528259277344 C 101.62086486816406 375.4783020019531 100.29729461669922 355.970947265625 101.73843383789062 312.8058776855469 C 83.0958480834961 316.24029541015625 126.1958999633789 295.2725830078125 100.43673706054688 271.44677734375" stroke-width="0.0" fill="rgb(126, 74, 25)" opacity="0.6901101" stroke="rgb(151, 109, 0)" stroke-opacity="0.9166525" stroke-linecap="round" stroke-linejoin="round"/>
    <path d="M 141.9630126953125 187.2183074951172 C 141.03355407714844 203.3634796142578 139.43423461914062 197.6503448486328 141.7556610107422 193.1819610595703 C 129.2957763671875 195.3710174560547 134.04330444335938 184.5267333984375 130.37008666992188 196.33380126953125 C 133.1014404296875 181.42019653320312 131.52279663085938 156.94039916992188 132.7690887451172 153.6185302734375 C 138.25279235839844 172.1827392578125 139.94973754882812 185.4556884765625 141.9630126953125 187.2183074951172" stroke-width="0.0" fill="rgb(77, 78, 72)" opacity="1.0" stroke="rgb(11, 246, 125)" stroke-opacity="0.53431827" stroke-linecap="round" stroke-linejoin="round"/>
  </g>
</svg>
