<?xml version="1.0" ?>
<svg xmlns="http://www.w3.org/2000/svg" version="1.1" width="365" height="512">
  <defs/>
  <g>
    <path d="M 371.7708435058594 162.04042053222656 C 373.352294921875 224.8159637451172 374.20556640625 232.10060119628906 295.5097961425781 240.39559936523438 C 257.79473876953125 226.5353240966797 255.18641662597656 226.28598022460938 247.39892578125 141.97186279296875 C 266.1872863769531 111.8762435913086 273.671630859375 112.818603515625 347.76873779296875 112.0723876953125 C 370.4354553222656 122.16849517822266 368.42059326171875 125.49060821533203 371.7708435058594 162.04042053222656" stroke-width="0.0" fill="rgb(240, 252, 255)" opacity="0.9104961" stroke="rgb(131, 138, 141)" stroke-opacity="0.2067859" stroke-linecap="round" stroke-linejoin="round"/>
    <path d="M 54.68876647949219 445.7686767578125 C 48.522239685058594 541.4052734375 67.21613311767578 544.0352172851562 25.333316802978516 516.5797729492188 C -11.070786476135254 515.4503173828125 -12.299116134643555 510.7860412597656 -15.674616813659668 503.45440673828125 C -10.917084693908691 488.33111572265625 -13.00384521484375 487.9896240234375 -18.558250427246094 468.4014587402344 C -24.57244110107422 427.18048095703125 -35.083221435546875 439.5502624511719 54.68876647949219 445.7686767578125" stroke-width="0.0" fill="rgb(48, 39, 31)" opacity="0.8292242" stroke="rgb(210, 60, 68)" stroke-opacity="0.49564388" stroke-linecap="round" stroke-linejoin="round"/>
    <path d="M 151.56227111816406 235.01187133789062 C 130.4041748046875 447.0656433105469 263.9845275878906 504.64117431640625 66.95225524902344 491.4488220214844 C 84.0300521850586 207.75929260253906 74.76104736328125 257.80291748046875 165.1327667236328 337.8982849121094 C 109.91294860839844 261.02191162109375 124.22628784179688 214.16436767578125 134.98011779785156 147.58053588867188 C 198.94638061523438 225.7339630126953 175.10679626464844 279.14630126953125 151.56227111816406 235.01187133789062" stroke-width="0.0" fill="rgb(92, 61, 29)" opacity="0.3410925" stroke="rgb(217, 245, 102)" stroke-opacity="0.11137297" stroke-linecap="round" stroke-linejoin="round"/>
    <path d="M 155.43284606933594 87.21712493896484 C 157.5780487060547 170.52694702148438 140.12796020507812 219.48045349121094 136.06590270996094 159.06764221191406 C 88.23377990722656 111.5533218383789 76.52229309082031 117.02363586425781 -9.680459976196289 45.976226806640625 C -18.535614013671875 -3.540496349334717 -22.027585983276367 -11.016127586364746 123.85564422607422 -9.902316093444824 C 180.89962768554688 -8.976558685302734 179.15428161621094 3.4764859676361084 155.43284606933594 87.21712493896484" stroke-width="0.0" fill="rgb(159, 207, 255)" opacity="0.64296305" stroke="rgb(138, 98, 94)" stroke-opacity="0.7314384" stroke-linecap="round" stroke-linejoin="round"/>
    <path d="M 346.822998046875 283.8392333984375 C 139.54432678222656 358.958984375 216.19720458984375 330.1300048828125 187.59765625 221.75877380371094 C 185.40354919433594 126.06172180175781 183.75650024414062 135.730712890625 163.1079864501953 27.436384201049805 C 164.58941650390625 -12.712664604187012 149.7582244873047 -12.826333045959473 370.28948974609375 -4.344176769256592 C 391.507568359375 53.45154571533203 402.8914794921875 128.7297821044922 346.822998046875 283.8392333984375" stroke-width="0.0" fill="rgb(4, 71, 158)" opacity="0.3929661" stroke="rgb(244, 25, 250)" stroke-opacity="0.86883444" stroke-linecap="round" stroke-linejoin="round"/>
    <path d="M 133.111328125 139.04336547851562 C 103.95806121826172 285.8705749511719 129.32952880859375 354.892822265625 -6.57926082611084 367.9064636230469 C -16.9710636138916 193.3175811767578 -13.72191333770752 185.103271484375 -11.907594680786133 88.77327728271484 C -1.5871962308883667 33.51865768432617 14.2618408203125 46.57907485961914 43.67683029174805 58.31435775756836 C 110.98828125 77.0684814453125 180.67193603515625 99.46192932128906 133.111328125 139.04336547851562" stroke-width="0.0" fill="rgb(108, 179, 255)" opacity="0.5056543" stroke="rgb(248, 143, 190)" stroke-opacity="0.29664516" stroke-linecap="round" stroke-linejoin="round"/>
    <path d="M 194.4086151123047 81.93582916259766 C 161.88626098632812 57.9221076965332 203.22616577148438 104.05867767333984 165.46717834472656 207.7456817626953 C 180.8114776611328 48.12026596069336 140.8149871826172 105.89910125732422 166.8197479248047 75.56884765625 C 166.66790771484375 14.139623641967773 162.89642333984375 53.10383987426758 170.19815063476562 49.64016342163086 C 172.15379333496094 75.63491821289062 176.25746154785156 89.31913757324219 194.4086151123047 81.93582916259766" stroke-width="0.0" fill="rgb(25, 39, 49)" opacity="0.66861725" stroke="rgb(157, 50, 167)" stroke-opacity="0.2508463" stroke-linecap="round" stroke-linejoin="round"/>
    <path d="M 367.78851318359375 464.49267578125 C 381.13629150390625 483.1357727050781 375.9580383300781 499.3202819824219 364.616455078125 492.32843017578125 C 245.3785858154297 498.9769287109375 221.1094512939453 484.8858947753906 285.3454895019531 489.1661682128906 C 292.9701843261719 419.89007568359375 291.74298095703125 413.9091796875 340.19671630859375 407.49969482421875 C 359.850830078125 417.13763427734375 350.75555419921875 427.8452453613281 367.78851318359375 464.49267578125" stroke-width="0.0" fill="rgb(109, 75, 35)" opacity="0.83416057" stroke="rgb(155, 17, 219)" stroke-opacity="0.49399325" stroke-linecap="round" stroke-linejoin="round"/>
    <path d="M 58.58116912841797 377.8054504394531 C 52.02499008178711 455.80413818359375 60.47815704345703 445.2953186035156 47.119056701660156 444.93646240234375 C -25.614219665527344 436.75347900390625 -20.18285369873047 449.1080017089844 -11.449299812316895 361.2095947265625 C -2.7516629695892334 316.6868896484375 -4.5223870277404785 316.76971435546875 55.335609436035156 329.89208984375 C 58.809288024902344 355.101318359375 55.05952835083008 363.0887451171875 58.58116912841797 377.8054504394531" stroke-width="0.0" fill="rgb(194, 231, 255)" opacity="0.8060639" stroke="rgb(204, 215, 76)" stroke-opacity="0.088627934" stroke-linecap="round" stroke-linejoin="round"/>
    <path d="M 317.6844482421875 461.6966247558594 C 316.2170715332031 487.7042236328125 314.14093017578125 496.6375732421875 296.0577392578125 485.98431396484375 C 278.1983947753906 484.08160400390625 281.4898986816406 489.269287109375 276.871337890625 428.32562255859375 C 277.40423583984375 406.67864990234375 266.898681640625 404.3324890136719 323.8364562988281 404.22564697265625 C 325.47259521484375 408.6923828125 322.08154296875 412.8055419921875 317.6844482421875 461.6966247558594" stroke-width="0.0" fill="rgb(92, 70, 47)" opacity="1.0" stroke="rgb(74, 27, 148)" stroke-opacity="0.54781187" stroke-linecap="round" stroke-linejoin="round"/>
    <path d="M 338.9714050292969 407.3065185546875 C 339.60089111328125 428.7994689941406 338.99066162109375 429.5259704589844 279.11737060546875 427.8835144042969 C 275.942626953125 415.5765686035156 277.0093688964844 405.8619079589844 274.45501708984375 369.3169250488281 C 294.741943359375 319.513916015625 233.37281799316406 298.5083312988281 291.8157653808594 325.5604553222656 C 313.2044677734375 366.53216552734375 309.83563232421875 376.057373046875 338.9714050292969 407.3065185546875" stroke-width="0.0" fill="rgb(82, 66, 45)" opacity="0.8878525" stroke="rgb(238, 94, 23)" stroke-opacity="0.28804696" stroke-linecap="round" stroke-linejoin="round"/>
    <path d="M 377.01727294921875 292.13262939453125 C 347.08843994140625 372.6866149902344 332.2687072753906 345.63397216796875 295.184814453125 348.8703918457031 C 271.82318115234375 337.5587463378906 283.6804504394531 341.8138732910156 279.89886474609375 312.5923156738281 C 225.235107421875 335.45538330078125 206.5288848876953 150.1024932861328 179.60336303710938 86.78726959228516 C 432.2938537597656 153.3486785888672 390.3049621582031 210.76025390625 377.01727294921875 292.13262939453125" stroke-width="0.0" fill="rgb(141, 177, 216)" opacity="0.97596234" stroke="rgb(61, 99, 225)" stroke-opacity="0.31686097" stroke-linecap="round" stroke-linejoin="round"/>
    <path d="M 380.1230163574219 411.21331787109375 C 373.30908203125 426.3815612792969 377.4649963378906 435.1317443847656 364.6042785644531 449.1236877441406 C 346.0970764160156 418.0580139160156 328.87091064453125 428.2898254394531 332.1907653808594 411.95184326171875 C 332.25091552734375 368.3814697265625 319.2196044921875 374.0630187988281 347.44989013671875 369.7752990722656 C 381.7746276855469 373.3447265625 376.8303527832031 384.1559753417969 380.1230163574219 411.21331787109375" stroke-width="0.0" fill="rgb(225, 242, 255)" opacity="0.84336036" stroke="rgb(92, 33, 165)" stroke-opacity="0.39420578" stroke-linecap="round" stroke-linejoin="round"/>
    <path d="M 362.9357604980469 438.1067810058594 C 351.6107482910156 438.5335693359375 358.2237243652344 445.708740234375 350.5844421386719 444.6607666015625 C 342.8586730957031 442.90936279296875 331.2229309082031 446.0440979003906 335.06683349609375 425.8309020996094 C 326.7672424316406 414.8463134765625 338.0701904296875 416.98553466796875 361.42657470703125 422.0941467285156 C 367.0772705078125 430.971923828125 368.90032958984375 434.03875732421875 362.9357604980469 438.1067810058594" stroke-width="0.0" fill="rgb(218, 227, 232)" opacity="0.9568958" stroke="rgb(217, 216, 81)" stroke-opacity="0.4297402" stroke-linecap="round" stroke-linejoin="round"/>
    <path d="M 377.6025390625 350.4448547363281 C 374.1332092285156 396.9045104980469 367.99658203125 392.73779296875 327.63189697265625 397.4957580566406 C 318.5091857910156 382.4659729003906 314.9623718261719 381.6131896972656 304.5069580078125 361.1737060546875 C 308.62640380859375 339.38507080078125 300.6339416503906 354.13226318359375 333.7184753417969 335.48724365234375 C 356.9041748046875 318.59893798828125 375.0299072265625 309.8096008300781 377.6025390625 350.4448547363281" stroke-width="0.0" fill="rgb(220, 239, 255)" opacity="0.8835939" stroke="rgb(215, 220, 94)" stroke-opacity="0.78157437" stroke-linecap="round" stroke-linejoin="round"/>
  </g>
</svg>
