<?xml version="1.0" ?>
<svg xmlns="http://www.w3.org/2000/svg" version="1.1" width="508" height="512">
  <defs/>
  <g>
    <path d="M -8.443460464477539 -8.497261047363281 L 514.3245239257812 -8.475740432739258 L 514.5291748046875 519.1671142578125 L -8.546828269958496 519.1234741210938 L -8.443460464477539 -8.497261047363281" stroke-width="0.0" fill="rgb(247, 243, 234)" opacity="1.5397" stroke="rgb(0, 0, 0)" stroke-opacity="0.0" stroke-linecap="round" stroke-linejoin="round"/>
    <path d="M 5.452382564544678 6.291189193725586 C 5.4605278968811035 61.51770782470703 5.367577075958252 115.13064575195312 5.4702534675598145 171.12962341308594 L 100.45413208007812 172.2721405029297 C 98.71255493164062 151.96278381347656 111.28070831298828 142.1259307861328 111.18895721435547 131.12918090820312 C 129.0846710205078 110.15096282958984 103.80510711669922 84.85950469970703 124.6807861328125 67.57938385009766 C 121.53254699707031 61.73080062866211 123.79802703857422 61.10219192504883 120.68373107910156 59.27251052856445 C 123.68218994140625 59.870243072509766 121.09526062011719 65.18777465820312 131.51220703125 73.68057250976562 C 137.98768615722656 87.03327941894531 134.2961883544922 101.57574462890625 134.32614135742188 120.59087371826172 C 155.111572265625 124.2408676147461 138.88180541992188 141.57298278808594 149.09864807128906 153.06187438964844 L 151.31753540039062 168.94520568847656 L 267.7799072265625 166.3642578125 C 272.5995788574219 151.5918731689453 270.40435791015625 140.002685546875 280.7053527832031 131.538330078125 C 290.9903869628906 135.38868713378906 278.0007629394531 152.43458557128906 288.3863830566406 167.3136444091797 L 316.6795959472656 165.77621459960938 C 322.2574462890625 149.58450317382812 338.06573486328125 131.765625 357.8008728027344 130.84140014648438 C 355.8840026855469 121.59337615966797 356.9730529785156 107.87356567382812 357.01397705078125 120.61582946777344 C 351.1849670410156 137.21640014648438 371.9082336425781 133.9967803955078 379.6630859375 151.4397735595703 L 390.23321533203125 171.7946014404297 L 502.5507507324219 170.51492309570312 L 502.62530517578125 7.987580299377441 L 499.7747802734375 7.829690456390381 L 5.183766841888428 7.968443393707275 L 5.452382564544678 6.291189193725586" stroke-width="2.0" fill="rgb(142, 174, 176)" opacity="1.0086771" stroke="rgb(0, 0, 0)" stroke-opacity="0.0" stroke-linecap="round" stroke-linejoin="round"/>
    <path d="M 6.452517032623291 422.86376953125 C 4.955019950866699 448.6451416015625 5.629913330078125 477.4242248535156 5.257109642028809 504.7505187988281 L 428.6853332519531 504.89044189453125 C 431.23736572265625 503.8827819824219 431.51080322265625 502.19219970703125 434.315185546875 504.4417419433594 L 480.71978759765625 505.0145568847656 C 487.01873779296875 503.9462585449219 496.85003662109375 505.66064453125 502.7008056640625 504.777587890625 L 502.1954345703125 425.68914794921875 L 235.9306640625 426.2478332519531 C 228.2606658935547 430.119384765625 230.06271362304688 426.6506652832031 231.68148803710938 426.1206359863281 L 133.2493438720703 418.01434326171875 C 132.88796997070312 432.20050048828125 168.20870971679688 415.2734375 162.2541046142578 429.7257385253906 C 144.2169189453125 429.8329772949219 129.51559448242188 429.7335205078125 115.50526428222656 430.6178283691406 C 125.04486083984375 410.51116943359375 98.50486755371094 418.5351867675781 89.57626342773438 421.2516784667969 C 82.08116149902344 439.1148986816406 63.676910400390625 425.9329528808594 46.87385177612305 426.76318359375 C 44.58363342285156 424.3310852050781 47.72541809082031 422.148193359375 47.3555908203125 417.3369445800781 C 32.73235321044922 419.29156494140625 22.668054580688477 418.50042724609375 6.452517032623291 422.86376953125" stroke-width="2.0" fill="rgb(96, 131, 150)" opacity="1.0749302" stroke="rgb(0, 0, 0)" stroke-opacity="0.0" stroke-linecap="round" stroke-linejoin="round"/>
    <path d="M 99.18839263916016 163.47547912597656 L 5.541208267211914 163.47967529296875 C 5.30979061126709 211.8941192626953 5.5935492515563965 259.3090515136719 5.328697204589844 314.8451232910156 C 25.22706413269043 316.696044921875 35.44652557373047 298.41571044921875 55.080509185791016 303.7203674316406 C 62.928348541259766 287.5904235839844 81.79376983642578 274.9657287597656 98.2302474975586 278.81622314453125 L 99.18839263916016 163.47547912597656" stroke-width="2.0" fill="rgb(228, 191, 170)" opacity="1.0746425" stroke="rgb(0, 0, 0)" stroke-opacity="0.0" stroke-linecap="round" stroke-linejoin="round"/>
    <path d="M 122.5410385131836 62.514122009277344 C 123.56764221191406 62.55192947387695 119.98280334472656 68.66972351074219 117.78264617919922 75.01197052001953 C 111.70556640625 88.43102264404297 110.55126953125 104.43534088134766 110.60093688964844 122.8898696899414 C 91.86580657958984 115.46466064453125 115.15568542480469 145.01087951660156 97.0792007446289 147.354248046875 L 99.35843658447266 258.5039367675781 C 131.20921325683594 266.46844482421875 126.02839660644531 293.3342590332031 116.12208557128906 283.7855529785156 C 126.99102783203125 264.9195861816406 154.53720092773438 278.49273681640625 154.85720825195312 276.33880615234375 L 151.62954711914062 261.5032958984375 L 160.27923583984375 250.3472900390625 L 151.1797332763672 159.51666259765625 C 135.246826171875 143.1747589111328 150.94287109375 125.58866882324219 135.55303955078125 121.8291015625 C 131.57139587402344 100.13837432861328 144.03260803222656 77.14263153076172 122.28404235839844 68.6796875 L 122.5410385131836 62.514122009277344" stroke-width="2.0" fill="rgb(257, 249, 228)" opacity="0.6896354" stroke="rgb(0, 0, 0)" stroke-opacity="0.0" stroke-linecap="round" stroke-linejoin="round"/>
    <path d="M 150.3533477783203 162.6747283935547 C 147.14480590820312 192.63587951660156 145.59776306152344 221.4489288330078 148.5332489013672 252.45855712890625 C 191.65646362304688 251.1334228515625 227.43856811523438 256.9697265625 264.6254577636719 255.3882293701172 C 264.2898864746094 220.38136291503906 266.11920166015625 191.7303466796875 264.7843933105469 162.53598022460938 L 150.3533477783203 162.6747283935547" stroke-width="2.0" fill="rgb(228, 192, 170)" opacity="1.0283996" stroke="rgb(0, 0, 0)" stroke-opacity="0.0" stroke-linecap="round" stroke-linejoin="round"/>
    <path d="M 131.35740661621094 67.79082489013672 C 126.7416763305664 66.82486724853516 119.49662780761719 70.96651458740234 115.89750671386719 75.42810821533203 L 114.49776458740234 128.0188446044922 C 93.52120208740234 125.98797607421875 109.62718200683594 141.24932861328125 115.64909362792969 152.27890014648438 C 142.70260620117188 187.19082641601562 136.92483520507812 230.2389373779297 115.6050796508789 263.7649230957031 C 103.1058349609375 264.67633056640625 109.47967529296875 272.89483642578125 107.55570983886719 270.39508056640625 C 107.35850524902344 273.79412841796875 108.45010375976562 265.70123291015625 111.55937194824219 258.5650634765625 C 106.94125366210938 254.56092834472656 121.56184387207031 254.05661010742188 127.47244262695312 243.35699462890625 L 149.86654663085938 249.16317749023438 L 150.86691284179688 155.208740234375 C 137.67193603515625 142.58070373535156 154.360595703125 124.22791290283203 139.15802001953125 119.86386108398438 C 132.3639373779297 100.84333801269531 145.37876892089844 77.63886260986328 131.35740661621094 67.79082489013672" stroke-width="2.0" fill="rgb(136, 166, 182)" opacity="0.3541615" stroke="rgb(0, 0, 0)" stroke-opacity="0.0" stroke-linecap="round" stroke-linejoin="round"/>
    <path d="M 259.3749084472656 252.38284301757812 L 211.13397216796875 252.4755401611328 C 210.4813690185547 271.7665710449219 214.13699340820312 289.9466247558594 209.07855224609375 302.0660705566406 L 196.52304077148438 301.6886901855469 L 196.43174743652344 403.14111328125 C 211.38638305664062 401.1185607910156 226.43955993652344 406.5746765136719 247.98538208007812 403.99835205078125 L 248.01243591308594 330.8595275878906 C 250.242919921875 327.1281433105469 268.8373718261719 337.5485534667969 269.5223083496094 318.33782958984375 C 267.28253173828125 301.9801940917969 270.98565673828125 280.5294494628906 259.241455078125 281.4181213378906 L 259.3749084472656 252.38284301757812" stroke-width="2.0" fill="rgb(98, 155, 179)" opacity="0.9674386" stroke="rgb(0, 0, 0)" stroke-opacity="0.0" stroke-linecap="round" stroke-linejoin="round"/>
    <path d="M 394.63983154296875 162.6536407470703 C 394.0991516113281 180.1313018798828 388.5581359863281 196.2249755859375 392.8244323730469 218.274658203125 C 419.11761474609375 219.59576416015625 437.86761474609375 221.27479553222656 447.66461181640625 220.80429077148438 C 456.8095397949219 228.03451538085938 443.2962341308594 247.38742065429688 456.1813049316406 264.47900390625 L 502.5263977050781 300.64630126953125 C 502.4398193359375 228.8607635498047 502.6753845214844 195.76873779296875 502.3937072753906 162.6312255859375 L 394.63983154296875 162.6536407470703" stroke-width="2.0" fill="rgb(228, 192, 170)" opacity="1.0237676" stroke="rgb(0, 0, 0)" stroke-opacity="0.0" stroke-linecap="round" stroke-linejoin="round"/>
    <path d="M 143.1778106689453 303.11260986328125 C 138.56895446777344 323.5468444824219 143.0829315185547 340.3372802734375 141.81832885742188 354.2664489746094 L 127.66598510742188 358.0965576171875 L 128.38250732421875 398.1438903808594 C 144.01547241210938 400.53363037109375 138.44134521484375 382.237548828125 140.5958709716797 375.5733947753906 C 135.65721130371094 380.47064208984375 145.6248779296875 369.746337890625 143.82569885253906 371.5997619628906 C 145.52223205566406 371.76068115234375 155.31915283203125 373.3507080078125 146.79901123046875 374.6185607910156 L 139.1953582763672 402.1489562988281 C 154.25132751464844 401.60101318359375 167.4001007080078 408.29266357421875 169.2757568359375 392.6701965332031 C 173.45509338378906 408.6800842285156 186.76974487304688 401.7467041015625 197.4096221923828 403.4942932128906 L 197.53041076660156 307.965087890625 C 179.3649444580078 301.7508850097656 163.1440887451172 303.60791015625 143.1778106689453 303.11260986328125" stroke-width="2.0" fill="rgb(249, 246, 228)" opacity="0.59506047" stroke="rgb(0, 0, 0)" stroke-opacity="0.0" stroke-linecap="round" stroke-linejoin="round"/>
    <path d="M 214.59927368164062 411.7540283203125 L 203.65301513671875 469.35540771484375 L 501.67547607421875 469.92694091796875 L 502.8377990722656 428.60382080078125 C 408.6984558105469 431.17822265625 320.4701843261719 428.958251953125 231.4174346923828 417.8582763671875 L 214.59927368164062 411.7540283203125" stroke-width="2.0" fill="rgb(155, 187, 188)" opacity="0.8182812" stroke="rgb(0, 0, 0)" stroke-opacity="0.0" stroke-linecap="round" stroke-linejoin="round"/>
    <path d="M 87.37267303466797 303.46649169921875 L 87.2787094116211 406.12982177734375 L 105.3479995727539 405.87615966796875 C 107.5637435913086 387.8149719238281 104.55616760253906 376.19482421875 106.4752197265625 372.3066101074219 C 109.03216552734375 378.53558349609375 105.01607513427734 388.16943359375 106.64754486083984 406.7208557128906 L 132.59837341308594 405.88629150390625 L 132.60537719726562 358.8254699707031 C 133.39320373535156 358.2174987792969 144.08670043945312 358.95526123046875 144.41314697265625 358.3556213378906 L 144.14146423339844 304.5098571777344 L 149.48297119140625 302.5728759765625 L 87.37267303466797 303.46649169921875" stroke-width="2.0" fill="rgb(116, 167, 189)" opacity="1.0493376" stroke="rgb(0, 0, 0)" stroke-opacity="0.0" stroke-linecap="round" stroke-linejoin="round"/>
    <path d="M 332.33660888671875 138.69146728515625 C 316.514404296875 150.7965087890625 317.1094970703125 164.47470092773438 314.16119384765625 169.81460571289062 C 328.2785339355469 171.33644104003906 341.2655029296875 169.7868194580078 351.1943359375 173.7364959716797 L 351.3783264160156 217.49456787109375 C 367.490478515625 196.89266967773438 358.2836608886719 229.1234130859375 370.2315673828125 209.23818969726562 C 378.5011291503906 216.56983947753906 383.9789733886719 215.54098510742188 390.8338928222656 212.60006713867188 C 388.9919738769531 183.3278045654297 408.77239990234375 155.4893035888672 373.4761657714844 135.68223571777344 C 360.8213806152344 125.68293762207031 348.4157409667969 126.3998031616211 332.33660888671875 138.69146728515625" stroke-width="2.0" fill="rgb(115, 155, 168)" opacity="0.78329885" stroke="rgb(0, 0, 0)" stroke-opacity="0.0" stroke-linecap="round" stroke-linejoin="round"/>
    <path d="M 5.440791606903076 400.6470642089844 C 4.217358589172363 425.7552795410156 11.263121604919434 417.1216125488281 20.121225357055664 423.68212890625 C 38.75946044921875 421.06439208984375 46.410621643066406 426.917724609375 54.79194641113281 417.7044677734375 C 51.02813720703125 412.76788330078125 57.19136047363281 420.7611389160156 59.700260162353516 424.85223388671875 C 119.72615814208984 419.3162536621094 177.5975341796875 421.0065002441406 235.72833251953125 420.6802062988281 C 232.12319946289062 407.55780029296875 250.3250732421875 417.6917724609375 247.7245635986328 400.639892578125 L 5.440791606903076 400.6470642089844" stroke-width="2.0" fill="rgb(46, 47, 64)" opacity="1.0108835" stroke="rgb(0, 0, 0)" stroke-opacity="0.0" stroke-linecap="round" stroke-linejoin="round"/>
    <path d="M 457.3117980957031 210.6572723388672 C 435.4468078613281 224.76199340820312 444.70947265625 203.39805603027344 435.1520080566406 215.01698303222656 C 416.65228271484375 211.7344207763672 393.14532470703125 215.76637268066406 376.99517822265625 211.1837158203125 C 377.7549133300781 230.2294921875 376.3641052246094 252.10385131835938 378.766845703125 264.68328857421875 C 383.6672058105469 260.73175048828125 381.6331787109375 259.8958740234375 364.53533935546875 250.57461547851562 C 366.4275207519531 270.0230712890625 364.7796936035156 277.9834899902344 365.7327880859375 331.0912780761719 C 383.36297607421875 285.8735046386719 364.2328186035156 294.11944580078125 400.1107177734375 294.3120422363281 C 409.86279296875 277.9590148925781 404.28851318359375 273.71612548828125 410.53106689453125 265.9535827636719 L 457.3581848144531 262.22601318359375 L 457.3117980957031 210.6572723388672" stroke-width="2.0" fill="rgb(40, 45, 65)" opacity="0.9696564" stroke="rgb(0, 0, 0)" stroke-opacity="0.0" stroke-linecap="round" stroke-linejoin="round"/>
    <path d="M 375.0943908691406 292.3917236328125 L 352.5655822753906 369.2587890625 L 426.56182861328125 371.80706787109375 C 424.360107421875 342.8447570800781 430.0029296875 318.3719787597656 429.1510009765625 293.7113952636719 L 375.0943908691406 292.3917236328125" stroke-width="2.0" fill="rgb(243, 202, 176)" opacity="0.8539341" stroke="rgb(0, 0, 0)" stroke-opacity="0.0" stroke-linecap="round" stroke-linejoin="round"/>
    <path d="M 209.94483947753906 254.02659606933594 L 209.56057739257812 304.7336730957031 C 221.32510375976562 308.37091064453125 243.5378875732422 302.095703125 237.85043334960938 325.7547912597656 C 242.4193115234375 321.47674560546875 259.1241455078125 322.2409362792969 255.9224090576172 323.93426513671875 C 264.0668029785156 325.4966125488281 263.0408935546875 321.8432312011719 269.9912109375 325.0237121582031 C 269.3312683105469 305.8790283203125 275.47161865234375 274.03790283203125 259.8432922363281 282.42962646484375 L 258.9853210449219 254.3016815185547 C 243.28921508789062 252.6554718017578 227.79904174804688 255.6306915283203 209.94483947753906 254.02659606933594" stroke-width="2.0" fill="rgb(110, 169, 195)" opacity="0.81260926" stroke="rgb(0, 0, 0)" stroke-opacity="0.0" stroke-linecap="round" stroke-linejoin="round"/>
    <path d="M 231.8076629638672 433.2668151855469 L 232.8854522705078 431.3930358886719 L 502.5185852050781 431.2835388183594 L 502.41741943359375 419.4156494140625 L 246.30706787109375 419.5113525390625 C 234.52047729492188 420.7164306640625 240.2612762451172 421.2275390625 231.8076629638672 433.2668151855469" stroke-width="2.0" fill="rgb(44, 42, 59)" opacity="1.0089833" stroke="rgb(0, 0, 0)" stroke-opacity="0.0" stroke-linecap="round" stroke-linejoin="round"/>
    <path d="M 427.68988037109375 333.8357849121094 C 424.7557373046875 356.87689208984375 428.13494873046875 383.24493408203125 431.0895690917969 410.9136962890625 C 434.8332824707031 415.5013427734375 431.4736633300781 402.77435302734375 438.4517822265625 399.1033020019531 C 436.3565673828125 401.6697998046875 432.11260986328125 406.52667236328125 437.9713134765625 418.7221374511719 L 464.00311279296875 419.5497741699219 L 461.91259765625 331.6380615234375 C 453.01715087890625 329.082763671875 441.6588439941406 337.34173583984375 427.68988037109375 333.8357849121094" stroke-width="2.0" fill="rgb(252, 236, 215)" opacity="0.69797325" stroke="rgb(0, 0, 0)" stroke-opacity="0.0" stroke-linecap="round" stroke-linejoin="round"/>
    <path d="M 464.8442687988281 330.8065185546875 L 464.8617248535156 412.381591796875 L 499.7179260253906 412.3260498046875 L 502.2845153808594 330.5697326660156 L 464.8442687988281 330.8065185546875" stroke-width="2.0" fill="rgb(85, 145, 174)" opacity="0.9442515" stroke="rgb(0, 0, 0)" stroke-opacity="0.0" stroke-linecap="round" stroke-linejoin="round"/>
    <path d="M 371.8659973144531 138.69216918945312 C 347.5592041015625 113.80083465576172 311.99298095703125 158.72622680664062 314.68218994140625 178.3328857421875 L 374.57647705078125 178.51834106445312 C 377.29718017578125 164.07752990722656 377.5814208984375 150.96566772460938 371.8659973144531 138.69216918945312" stroke-width="2.0" fill="rgb(90, 153, 177)" opacity="0.8741004" stroke="rgb(0, 0, 0)" stroke-opacity="0.0" stroke-linecap="round" stroke-linejoin="round"/>
    <path d="M 276.1699523925781 43.69636917114258 C 244.03057861328125 53.36669158935547 253.445068359375 95.68243408203125 285.90765380859375 93.2848129272461 C 321.4092102050781 84.9443359375 310.2989807128906 38.15324401855469 276.1699523925781 43.69636917114258" stroke-width="2.0" fill="rgb(252, 245, 227)" opacity="1.000497" stroke="rgb(0, 0, 0)" stroke-opacity="0.0" stroke-linecap="round" stroke-linejoin="round"/>
    <path d="M 127.52043914794922 166.58291625976562 L 127.58292388916016 251.93397521972656 L 153.47789001464844 251.59849548339844 L 153.50772094726562 166.230712890625 L 127.52043914794922 166.58291625976562" stroke-width="2.0" fill="rgb(44, 44, 62)" opacity="0.97648484" stroke="rgb(0, 0, 0)" stroke-opacity="0.0" stroke-linecap="round" stroke-linejoin="round"/>
    <path d="M 169.2488250732422 252.32318115234375 L 169.6980438232422 306.3851013183594 L 210.8386993408203 307.82806396484375 C 208.9392547607422 286.0478820800781 210.3983612060547 268.2687072753906 200.2418670654297 251.48562622070312 C 187.91207885742188 253.6797637939453 180.3807373046875 252.28089904785156 169.2488250732422 252.32318115234375" stroke-width="2.0" fill="rgb(95, 132, 150)" opacity="1.0196762" stroke="rgb(0, 0, 0)" stroke-opacity="0.0" stroke-linecap="round" stroke-linejoin="round"/>
    <path d="M 334.64276123046875 307.904541015625 L 300.8224182128906 369.4224853515625 L 374.34625244140625 369.7236328125 L 373.89263916015625 307.3746032714844 L 334.64276123046875 307.904541015625" stroke-width="2.0" fill="rgb(-27, 24, 62)" opacity="0.64366746" stroke="rgb(0, 0, 0)" stroke-opacity="0.0" stroke-linecap="round" stroke-linejoin="round"/>
    <path d="M 379.2380065917969 369.1158447265625 L 379.3543701171875 411.6413879394531 L 425.5118408203125 410.86669921875 L 425.63250732421875 369.15338134765625 L 379.2380065917969 369.1158447265625" stroke-width="2.0" fill="rgb(68, 68, 80)" opacity="1.1028118" stroke="rgb(0, 0, 0)" stroke-opacity="0.0" stroke-linecap="round" stroke-linejoin="round"/>
    <path d="M 278.73370361328125 124.33700561523438 C 269.9478454589844 131.31138610839844 275.90093994140625 138.50286865234375 274.81719970703125 145.04832458496094 L 265.0348815917969 191.29501342773438 L 278.8392028808594 191.04824829101562 C 286.13433837890625 197.1157989501953 274.1716613769531 220.72557067871094 285.63116455078125 208.32965087890625 C 289.91949462890625 214.08847045898438 293.8164367675781 215.96109008789062 295.24029541015625 211.34451293945312 L 294.5660095214844 164.0602264404297 C 279.4494934082031 160.60821533203125 296.3519592285156 139.74057006835938 278.73370361328125 124.33700561523438" stroke-width="2.0" fill="rgb(107, 111, 120)" opacity="0.96413755" stroke="rgb(0, 0, 0)" stroke-opacity="0.0" stroke-linecap="round" stroke-linejoin="round"/>
    <path d="M 401.3610534667969 262.62310791015625 L 401.5234375 298.0602111816406 C 423.4222412109375 280.1197509765625 437.0469055175781 280.1470031738281 449.49005126953125 294.6018981933594 L 448.2198486328125 262.44708251953125 L 401.3610534667969 262.62310791015625" stroke-width="2.0" fill="rgb(220, 217, 207)" opacity="1.1645479" stroke="rgb(0, 0, 0)" stroke-opacity="0.0" stroke-linecap="round" stroke-linejoin="round"/>
    <path d="M 357.6764221191406 129.7687225341797 C 382.636962890625 145.96917724609375 371.20257568359375 185.7397918701172 375.8946533203125 214.3154754638672 L 395.7723693847656 223.16061401367188 C 391.5190124511719 180.41140747070312 403.3078918457031 156.82794189453125 377.3505554199219 137.04449462890625 C 372.68206787109375 133.6544189453125 365.13897705078125 129.91893005371094 357.6764221191406 129.7687225341797" stroke-width="2.0" fill="rgb(39, 41, 60)" opacity="0.953358" stroke="rgb(0, 0, 0)" stroke-opacity="0.0" stroke-linecap="round" stroke-linejoin="round"/>
    <path d="M 455.3289489746094 296.22430419921875 C 454.86297607421875 307.9193115234375 455.358642578125 318.8536682128906 459.0868225097656 325.4471740722656 L 501.0645751953125 325.995361328125 C 499.4237060546875 317.93206787109375 502.22589111328125 306.7567443847656 502.976318359375 289.8843078613281 L 455.3289489746094 296.22430419921875" stroke-width="2.0" fill="rgb(241, 230, 198)" opacity="0.34861806" stroke="rgb(0, 0, 0)" stroke-opacity="0.0" stroke-linecap="round" stroke-linejoin="round"/>
    <path d="M 55.17535400390625 302.7839050292969 C 73.94695281982422 302.4022216796875 96.78671264648438 303.76483154296875 118.11160278320312 303.5083923339844 C 111.4107437133789 268.4188537597656 65.4890365600586 264.957275390625 55.17535400390625 302.7839050292969" stroke-width="2.0" fill="rgb(77, 100, 120)" opacity="0.8758581" stroke="rgb(0, 0, 0)" stroke-opacity="0.0" stroke-linecap="round" stroke-linejoin="round"/>
    <path d="M 353.63372802734375 90.35493469238281 C 377.7179260253906 90.12133026123047 405.9728088378906 90.14608001708984 433.24078369140625 90.46142578125 C 415.0502014160156 77.79132843017578 396.27911376953125 84.143798828125 406.81756591796875 70.9205551147461 C 397.9132995605469 53.97001647949219 372.52056884765625 63.762733459472656 374.78338623046875 81.79299926757812 C 366.4379577636719 79.17875671386719 362.18511962890625 80.99816131591797 353.63372802734375 90.35493469238281" stroke-width="2.0" fill="rgb(243, 241, 225)" opacity="1.0132228" stroke="rgb(0, 0, 0)" stroke-opacity="0.0" stroke-linecap="round" stroke-linejoin="round"/>
    <path d="M 169.89071655273438 251.3844451904297 L 168.8922576904297 307.01776123046875 C 176.29454040527344 308.0859375 184.9936065673828 307.4549865722656 190.9559326171875 307.3721008300781 L 192.06039428710938 251.55162048339844 L 169.89071655273438 251.3844451904297" stroke-width="2.0" fill="rgb(111, 186, 216)" opacity="0.60534835" stroke="rgb(0, 0, 0)" stroke-opacity="0.0" stroke-linecap="round" stroke-linejoin="round"/>
    <path d="M 269.4242858886719 324.4045104980469 L 241.12771606445312 324.56024169921875 C 239.91603088378906 353.20294189453125 241.5474395751953 386.3060302734375 239.7198486328125 413.2638244628906 L 249.30804443359375 413.1355285644531 L 249.39364624023438 351.2471618652344 L 269.85784912109375 351.4625549316406 L 269.4242858886719 324.4045104980469" stroke-width="2.0" fill="rgb(47, 48, 69)" opacity="0.97586834" stroke="rgb(0, 0, 0)" stroke-opacity="0.0" stroke-linecap="round" stroke-linejoin="round"/>
    <path d="M 427.14068603515625 293.2536926269531 L 427.10394287109375 330.40374755859375 L 459.476806640625 330.5114440917969 L 459.5166320800781 293.62677001953125 L 427.14068603515625 293.2536926269531" stroke-width="2.0" fill="rgb(48, 52, 70)" opacity="1.0105791" stroke="rgb(0, 0, 0)" stroke-opacity="0.0" stroke-linecap="round" stroke-linejoin="round"/>
    <path d="M 458.59381103515625 262.45050048828125 C 458.3899841308594 274.6687316894531 458.7888488769531 292.64410400390625 458.3334045410156 295.573486328125 L 496.7419128417969 295.84942626953125 L 496.6686096191406 262.5780029296875 L 458.59381103515625 262.45050048828125" stroke-width="2.0" fill="rgb(43, 45, 64)" opacity="0.9939363" stroke="rgb(0, 0, 0)" stroke-opacity="0.0" stroke-linecap="round" stroke-linejoin="round"/>
    <path d="M 127.3976058959961 63.23362731933594 L 127.36817169189453 146.35238647460938 L 148.8683319091797 146.7659912109375 C 146.39723205566406 129.59056091308594 153.92935180664062 117.76077270507812 140.48367309570312 122.82920837402344 C 136.51095581054688 98.30968475341797 148.79339599609375 71.54273223876953 127.3976058959961 63.23362731933594" stroke-width="2.0" fill="rgb(56, 61, 78)" opacity="1.065749" stroke="rgb(0, 0, 0)" stroke-opacity="0.0" stroke-linecap="round" stroke-linejoin="round"/>
    <path d="M 335.7052307128906 260.7729797363281 L 334.2942199707031 269.4354553222656 L 389.1878662109375 269.4869079589844 C 385.35009765625 241.31396484375 350.5910949707031 231.97996520996094 335.7052307128906 260.7729797363281" stroke-width="2.0" fill="rgb(93, 159, 183)" opacity="0.91211885" stroke="rgb(0, 0, 0)" stroke-opacity="0.0" stroke-linecap="round" stroke-linejoin="round"/>
    <path d="M 76.2006607055664 258.3271484375 C 67.06040954589844 242.67405700683594 56.45311737060547 256.03228759765625 60.536033630371094 242.24386596679688 C 50.709232330322266 220.36436462402344 25.341529846191406 234.18081665039062 29.05250358581543 250.6313934326172 C 23.864408493041992 250.8227996826172 19.760475158691406 248.45193481445312 11.866186141967773 258.4896545410156 L 76.2006607055664 258.3271484375" stroke-width="2.0" fill="rgb(253, 242, 221)" opacity="0.99920386" stroke="rgb(0, 0, 0)" stroke-opacity="0.0" stroke-linecap="round" stroke-linejoin="round"/>
    <path d="M 268.540283203125 286.42022705078125 L 271.6097717285156 344.57159423828125 L 290.5964050292969 340.5165100097656 L 292.4541320800781 285.7073974609375 L 268.540283203125 286.42022705078125" stroke-width="2.0" fill="rgb(225, 227, 217)" opacity="0.8707634" stroke="rgb(0, 0, 0)" stroke-opacity="0.0" stroke-linecap="round" stroke-linejoin="round"/>
    <path d="M 280.4581298828125 127.50537872314453 L 279.5889892578125 215.91790771484375 C 287.22503662109375 201.93638610839844 288.5847473144531 224.5476837158203 294.12017822265625 212.0742950439453 L 293.49542236328125 161.28147888183594 C 281.31854248046875 170.24281311035156 297.00384521484375 135.88259887695312 280.4581298828125 127.50537872314453" stroke-width="2.0" fill="rgb(36, 36, 54)" opacity="0.8839694" stroke="rgb(0, 0, 0)" stroke-opacity="0.0" stroke-linecap="round" stroke-linejoin="round"/>
    <path d="M 35.50388717651367 308.2897644042969 L 5.3988165855407715 308.8883361816406 L 5.437621116638184 342.37152099609375 L 35.59720230102539 342.3255615234375 L 35.50388717651367 308.2897644042969" stroke-width="2.0" fill="rgb(106, 156, 176)" opacity="1.0406388" stroke="rgb(0, 0, 0)" stroke-opacity="0.0" stroke-linecap="round" stroke-linejoin="round"/>
    <path d="M 309.43487548828125 297.8472900390625 L 286.6596984863281 298.4067687988281 C 293.902099609375 299.0868835449219 289.0130615234375 331.6918640136719 290.64239501953125 349.84478759765625 L 309.4649658203125 354.0041198730469 L 309.43487548828125 297.8472900390625" stroke-width="2.0" fill="rgb(55, 57, 74)" opacity="1.022468" stroke="rgb(0, 0, 0)" stroke-opacity="0.0" stroke-linecap="round" stroke-linejoin="round"/>
    <path d="M 278.9632263183594 240.52261352539062 C 279.6554260253906 248.0272216796875 284.8271179199219 252.74050903320312 291.6683654785156 256.9797058105469 C 290.5744934082031 268.4416198730469 292.3860778808594 281.2608642578125 291.3651428222656 298.7706298828125 C 307.8869934082031 297.76483154296875 315.14630126953125 304.68218994140625 309.6397399902344 285.7361755371094 C 290.191650390625 282.1737060546875 313.37847900390625 251.3800811767578 298.2131042480469 261.7237548828125 C 303.1216125488281 247.29281616210938 295.6524353027344 236.87637329101562 278.9632263183594 240.52261352539062" stroke-width="2.0" fill="rgb(19, 106, 144)" opacity="0.7404375" stroke="rgb(0, 0, 0)" stroke-opacity="0.0" stroke-linecap="round" stroke-linejoin="round"/>
    <path d="M 317.3951110839844 431.82489013671875 C 317.10284423828125 435.2628479003906 317.3199157714844 440.7373046875 320.1470947265625 439.8987731933594 C 348.73590087890625 439.61895751953125 376.913818359375 439.7816162109375 404.3590087890625 439.3585510253906 C 404.99676513671875 429.07476806640625 404.452392578125 433.5429992675781 400.6498107910156 431.68377685546875 L 317.3951110839844 431.82489013671875" stroke-width="2.0" fill="rgb(251, 243, 227)" opacity="0.96684957" stroke="rgb(0, 0, 0)" stroke-opacity="0.0" stroke-linecap="round" stroke-linejoin="round"/>
    <path d="M 315.1950378417969 162.4322509765625 L 294.67315673828125 163.81350708007812 C 294.2305908203125 178.5406951904297 294.8269348144531 200.9347686767578 294.82867431640625 211.06646728515625 L 316.4967346191406 214.96473693847656 C 313.8865661621094 194.68939208984375 316.1134033203125 179.51568603515625 315.1950378417969 162.4322509765625" stroke-width="2.0" fill="rgb(227, 193, 174)" opacity="1.02085" stroke="rgb(0, 0, 0)" stroke-opacity="0.0" stroke-linecap="round" stroke-linejoin="round"/>
    <path d="M 192.5891571044922 251.0438690185547 L 191.99241638183594 306.61871337890625 L 210.3271026611328 306.5335693359375 C 208.19093322753906 286.41876220703125 209.90127563476562 265.9079284667969 192.5891571044922 251.0438690185547" stroke-width="2.0" fill="rgb(38, 40, 62)" opacity="0.93434054" stroke="rgb(0, 0, 0)" stroke-opacity="0.0" stroke-linecap="round" stroke-linejoin="round"/>
    <path d="M 219.19618225097656 435.3228759765625 L 218.69656372070312 441.32647705078125 C 242.39431762695312 442.2098388671875 264.71014404296875 435.73394775390625 284.31256103515625 446.81146240234375 C 282.62054443359375 435.8158874511719 276.1894836425781 435.0093688964844 273.028076171875 431.6455078125 L 219.0536651611328 431.5813903808594 L 219.19618225097656 435.3228759765625" stroke-width="2.0" fill="rgb(241, 237, 220)" opacity="0.99265283" stroke="rgb(0, 0, 0)" stroke-opacity="0.0" stroke-linecap="round" stroke-linejoin="round"/>
    <path d="M 85.24654388427734 275.4866638183594 C 72.29519653320312 275.46990966796875 56.0108642578125 286.25311279296875 54.350582122802734 303.5452880859375 L 88.42979431152344 303.50592041015625 C 89.0914306640625 294.0633239746094 88.2991714477539 285.3301696777344 85.24654388427734 275.4866638183594" stroke-width="2.0" fill="rgb(120, 189, 206)" opacity="0.7388536" stroke="rgb(0, 0, 0)" stroke-opacity="0.0" stroke-linecap="round" stroke-linejoin="round"/>
    <path d="M 290.2446594238281 240.70068359375 C 291.7286682128906 258.3779602050781 289.3753967285156 275.86224365234375 292.61163330078125 294.78131103515625 C 301.65447998046875 293.8170166015625 313.1982421875 296.8981628417969 308.80145263671875 289.35247802734375 C 297.3209228515625 287.4627685546875 308.8191223144531 255.79652404785156 299.4951171875 260.0293884277344 C 300.00079345703125 251.36878967285156 300.44378662109375 246.52255249023438 290.2446594238281 240.70068359375" stroke-width="2.0" fill="rgb(31, 24, 43)" opacity="0.74002254" stroke="rgb(0, 0, 0)" stroke-opacity="0.0" stroke-linecap="round" stroke-linejoin="round"/>
    <path d="M 280.0328369140625 142.2859344482422 C 259.4710998535156 137.68002319335938 277.0998840332031 161.9488983154297 263.9460754394531 162.79275512695312 L 266.5726318359375 191.9930419921875 L 280.2488098144531 193.6025390625 L 280.0328369140625 142.2859344482422" stroke-width="2.0" fill="rgb(236, 237, 222)" opacity="0.79087883" stroke="rgb(0, 0, 0)" stroke-opacity="0.0" stroke-linecap="round" stroke-linejoin="round"/>
    <path d="M 126.14115905761719 480.6277770996094 C 127.658447265625 486.60235595703125 129.58480834960938 488.7564392089844 133.22201538085938 488.714599609375 L 188.43331909179688 488.8965759277344 C 192.76390075683594 488.9244079589844 198.4170379638672 481.1076965332031 190.9136199951172 480.5844421386719 L 126.14115905761719 480.6277770996094" stroke-width="2.0" fill="rgb(229, 230, 218)" opacity="1.0464892" stroke="rgb(0, 0, 0)" stroke-opacity="0.0" stroke-linecap="round" stroke-linejoin="round"/>
    <path d="M 421.1019592285156 376.6310729980469 C 397.17120361328125 378.87255859375 401.2598876953125 398.5767822265625 400.47125244140625 411.7626037597656 L 425.1069641113281 411.5164489746094 C 419.9834289550781 396.3365783691406 423.2393798828125 386.0264892578125 421.1019592285156 376.6310729980469" stroke-width="2.0" fill="rgb(51, 54, 72)" opacity="0.94639075" stroke="rgb(0, 0, 0)" stroke-opacity="0.0" stroke-linecap="round" stroke-linejoin="round"/>
    <path d="M 376.3960876464844 73.86404418945312 C 372.34918212890625 88.8097915649414 391.47271728515625 81.85454559326172 400.01361083984375 84.4249038696289 C 421.9255676269531 79.39604949951172 396.858642578125 53.52799606323242 385.03729248046875 68.57315826416016 C 380.6147766113281 67.08870697021484 375.6809997558594 68.9132308959961 376.3960876464844 73.86404418945312" stroke-width="2.0" fill="rgb(252, 243, 223)" opacity="0.9476145" stroke="rgb(0, 0, 0)" stroke-opacity="0.0" stroke-linecap="round" stroke-linejoin="round"/>
    <path d="M 86.30612182617188 276.5421142578125 C 89.854248046875 285.1067199707031 89.3707046508789 294.2292175292969 89.5881118774414 303.4459533691406 C 102.9322738647461 301.55413818359375 123.32366180419922 307.1921691894531 116.01219177246094 297.7695617675781 C 108.5049819946289 280.17523193359375 97.26449584960938 277.10333251953125 86.30612182617188 276.5421142578125" stroke-width="2.0" fill="rgb(38, 40, 58)" opacity="0.9604765" stroke="rgb(0, 0, 0)" stroke-opacity="0.0" stroke-linecap="round" stroke-linejoin="round"/>
    <path d="M 33.543785095214844 383.58990478515625 C 61.561676025390625 377.58770751953125 73.61919403076172 395.0949401855469 86.37439727783203 369.61767578125 C 54.884368896484375 373.9896545410156 44.76113510131836 360.7217102050781 33.543785095214844 383.58990478515625" stroke-width="2.0" fill="rgb(113, 182, 198)" opacity="0.97318894" stroke="rgb(0, 0, 0)" stroke-opacity="0.0" stroke-linecap="round" stroke-linejoin="round"/>
    <path d="M 388.5440673828125 459.8193664550781 C 423.30303955078125 463.8709411621094 443.0281677246094 462.01763916015625 461.25830078125 460.89935302734375 C 458.627685546875 458.1166687011719 456.6238098144531 457.0708312988281 461.9302673339844 463.2129211425781 C 446.1852111816406 458.1915588378906 425.60809326171875 454.1232604980469 398.1510925292969 460.64453125 L 388.5440673828125 459.8193664550781" stroke-width="2.0" fill="rgb(212, 214, 211)" opacity="1.0405562" stroke="rgb(0, 0, 0)" stroke-opacity="0.0" stroke-linecap="round" stroke-linejoin="round"/>
    <path d="M 393.5482482910156 381.5558166503906 C 378.8149108886719 376.0175476074219 381.59771728515625 398.4244079589844 381.4792785644531 410.6072998046875 C 415.61572265625 430.12969970703125 399.5863342285156 388.71966552734375 393.5482482910156 381.5558166503906" stroke-width="2.0" fill="rgb(156, 194, 203)" opacity="0.8870765" stroke="rgb(0, 0, 0)" stroke-opacity="0.0" stroke-linecap="round" stroke-linejoin="round"/>
    <path d="M 364.21612548828125 379.57159423828125 C 352.72412109375 382.72540283203125 356.63336181640625 396.8695373535156 355.7110900878906 411.6439514160156 L 373.21337890625 412.5446472167969 C 370.7929382324219 396.0694885253906 377.40228271484375 381.362548828125 364.21612548828125 379.57159423828125" stroke-width="2.0" fill="rgb(54, 53, 68)" opacity="1.0149652" stroke="rgb(0, 0, 0)" stroke-opacity="0.0" stroke-linecap="round" stroke-linejoin="round"/>
    <path d="M 340.7499694824219 379.6612854003906 C 328.45635986328125 382.3665466308594 333.2620849609375 395.3750915527344 332.3536376953125 412.36199951171875 L 349.7794494628906 412.4273986816406 C 347.6959228515625 395.2499694824219 352.8793029785156 381.30670166015625 340.7499694824219 379.6612854003906" stroke-width="2.0" fill="rgb(51, 49, 65)" opacity="0.9998399" stroke="rgb(0, 0, 0)" stroke-opacity="0.0" stroke-linecap="round" stroke-linejoin="round"/>
    <path d="M 290.3779296875 250.0483856201172 L 289.3919372558594 281.0328063964844 C 306.632080078125 292.6553039550781 304.0004577636719 268.7540588378906 299.0984802246094 258.1752014160156 C 297.2728271484375 254.0816650390625 295.16943359375 249.43215942382812 290.3779296875 250.0483856201172" stroke-width="2.0" fill="rgb(38, 38, 57)" opacity="0.8863344" stroke="rgb(0, 0, 0)" stroke-opacity="0.0" stroke-linecap="round" stroke-linejoin="round"/>
    <path d="M 201.99420166015625 471.3458557128906 C 238.28524780273438 471.39501953125 261.4407653808594 471.9227600097656 294.02490234375 471.65960693359375 C 292.2760009765625 458.0645446777344 295.47686767578125 453.99603271484375 285.1856689453125 442.7623291015625 L 197.4085693359375 438.6195068359375 L 201.99420166015625 471.3458557128906" stroke-width="2.0" fill="rgb(129, 171, 180)" opacity="0.6690867" stroke="rgb(0, 0, 0)" stroke-opacity="0.0" stroke-linecap="round" stroke-linejoin="round"/>
    <path d="M 5.730453014373779 373.9820861816406 L 5.291560649871826 401.0881042480469 L 25.951295852661133 400.72540283203125 C 20.69754409790039 386.7354431152344 25.380704879760742 366.8673400878906 5.730453014373779 373.9820861816406" stroke-width="2.0" fill="rgb(245, 190, 156)" opacity="0.704255" stroke="rgb(0, 0, 0)" stroke-opacity="0.0" stroke-linecap="round" stroke-linejoin="round"/>
    <path d="M 316.47332763671875 379.51025390625 C 304.26153564453125 382.2895202636719 309.80853271484375 396.9842529296875 308.41351318359375 409.8243408203125 C 325.4520568847656 421.81280517578125 315.1475830078125 393.74395751953125 314.006103515625 405.3924865722656 C 320.4371032714844 409.2024230957031 312.7910461425781 412.4097595214844 325.6778564453125 411.4094543457031 C 324.2220764160156 395.1354064941406 328.95880126953125 381.8614196777344 316.47332763671875 379.51025390625" stroke-width="2.0" fill="rgb(49, 47, 62)" opacity="1.0016425" stroke="rgb(0, 0, 0)" stroke-opacity="0.0" stroke-linecap="round" stroke-linejoin="round"/>
    <path d="M 110.7707748413086 120.4432144165039 L 99.72078704833984 161.638916015625 L 127.03348541259766 161.59999084472656 L 127.23257446289062 120.35255432128906 L 110.7707748413086 120.4432144165039" stroke-width="2.0" fill="rgb(227, 217, 204)" opacity="1.5895927" stroke="rgb(0, 0, 0)" stroke-opacity="0.0" stroke-linecap="round" stroke-linejoin="round"/>
    <path d="M 497.61724853515625 330.53668212890625 L 497.8133850097656 411.0794372558594 L 502.51409912109375 411.7743835449219 L 502.54681396484375 330.10321044921875 C 503.21368408203125 330.6700744628906 501.4331359863281 330.7687683105469 497.61724853515625 330.53668212890625" stroke-width="2.0" fill="rgb(32, 42, 61)" opacity="1.0036533" stroke="rgb(0, 0, 0)" stroke-opacity="0.0" stroke-linecap="round" stroke-linejoin="round"/>
    <path d="M 29.978776931762695 425.293701171875 C 1.836187481880188 464.3664245605469 77.58319091796875 474.9434814453125 68.00804138183594 437.7010498046875 C 57.308048248291016 412.2173767089844 58.3845100402832 417.79827880859375 29.978776931762695 425.293701171875" stroke-width="2.0" fill="rgb(155, 189, 190)" opacity="0.9210117" stroke="rgb(0, 0, 0)" stroke-opacity="0.0" stroke-linecap="round" stroke-linejoin="round"/>
    <path d="M 126.55375671386719 64.13887023925781 C 113.01730346679688 62.97052764892578 111.36235046386719 80.33807373046875 111.27473449707031 93.04285430908203 L 127.58770751953125 89.46343994140625 L 126.55375671386719 64.13887023925781" stroke-width="2.0" fill="rgb(251, 245, 227)" opacity="0.9506833" stroke="rgb(0, 0, 0)" stroke-opacity="0.0" stroke-linecap="round" stroke-linejoin="round"/>
    <path d="M 87.40882873535156 419.6200866699219 L 89.88945007324219 469.6198425292969 C 146.96661376953125 473.06268310546875 159.17312622070312 473.3521423339844 187.62539672851562 458.9385070800781 L 192.73187255859375 420.8323669433594 L 87.40882873535156 419.6200866699219" stroke-width="2.0" fill="rgb(180, 213, 209)" opacity="0.5550941" stroke="rgb(0, 0, 0)" stroke-opacity="0.0" stroke-linecap="round" stroke-linejoin="round"/>
    <path d="M 428.4782409667969 499.7325744628906 L 428.6336364746094 504.7499084472656 L 487.7568054199219 505.1205139160156 L 486.5045471191406 499.9193420410156 L 428.4782409667969 499.7325744628906" stroke-width="2.0" fill="rgb(232, 229, 212)" opacity="0.9816504" stroke="rgb(0, 0, 0)" stroke-opacity="0.0" stroke-linecap="round" stroke-linejoin="round"/>
    <path d="M 133.5964813232422 292.0798034667969 C 123.1613540649414 312.3105773925781 151.7822723388672 305.9785461425781 175.594482421875 307.42218017578125 C 175.07144165039062 285.92724609375 149.30984497070312 294.2598876953125 133.5964813232422 292.0798034667969" stroke-width="2.0" fill="rgb(125, 174, 189)" opacity="0.9738168" stroke="rgb(0, 0, 0)" stroke-opacity="0.0" stroke-linecap="round" stroke-linejoin="round"/>
    <path d="M 278.30804443359375 458.0845642089844 L 220.5062255859375 458.8148498535156 L 220.38552856445312 462.6332092285156 C 237.63441467285156 462.5698547363281 257.2520446777344 462.0863342285156 278.0551452636719 462.3446044921875 L 278.30804443359375 458.0845642089844" stroke-width="2.0" fill="rgb(226, 233, 226)" opacity="1.0172986" stroke="rgb(0, 0, 0)" stroke-opacity="0.0" stroke-linecap="round" stroke-linejoin="round"/>
    <path d="M 27.94974136352539 454.5956726074219 C 24.794416427612305 459.22900390625 27.915035247802734 457.4244079589844 32.355674743652344 459.82769775390625 L 82.84558868408203 459.15216064453125 L 83.04236602783203 453.4814453125 C 64.28884887695312 456.09942626953125 45.23008346557617 452.8688049316406 27.94974136352539 454.5956726074219" stroke-width="2.0" fill="rgb(32, 55, 83)" opacity="0.78034943" stroke="rgb(0, 0, 0)" stroke-opacity="0.0" stroke-linecap="round" stroke-linejoin="round"/>
    <path d="M 264.6099853515625 361.7749328613281 C 257.09765625 364.81671142578125 270.5455322265625 399.4748229980469 257.50927734375 387.832275390625 C 258.5215759277344 414.62689208984375 253.37628173828125 411.6148681640625 265.5780334472656 412.8707275390625 C 264.5452575683594 390.90740966796875 267.6824951171875 378.6207580566406 261.7686767578125 364.1024169921875 L 264.6099853515625 361.7749328613281" stroke-width="2.0" fill="rgb(59, 61, 73)" opacity="1.013145" stroke="rgb(0, 0, 0)" stroke-opacity="0.0" stroke-linecap="round" stroke-linejoin="round"/>
    <path d="M 11.367650985717773 421.30670166015625 C 3.6445248126983643 412.1976318359375 5.707372188568115 427.9959411621094 5.307791233062744 453.9428405761719 C 53.965946197509766 460.0169372558594 51.21133804321289 423.3868408203125 11.367650985717773 421.30670166015625" stroke-width="2.0" fill="rgb(155, 186, 188)" opacity="0.95076615" stroke="rgb(0, 0, 0)" stroke-opacity="0.0" stroke-linecap="round" stroke-linejoin="round"/>
    <path d="M 300.4744873046875 281.6968078613281 C 294.92767333984375 291.1930847167969 315.9863586425781 306.903076171875 310.7049560546875 281.4906005859375 L 300.4744873046875 281.6968078613281" stroke-width="2.0" fill="rgb(48, 63, 85)" opacity="1.059721" stroke="rgb(0, 0, 0)" stroke-opacity="0.0" stroke-linecap="round" stroke-linejoin="round"/>
    <path d="M 194.8956298828125 251.68470764160156 C 199.34913635253906 265.0417785644531 213.3568878173828 274.6562194824219 210.4512481689453 288.6142272949219 L 211.0918731689453 251.66531372070312 L 194.8956298828125 251.68470764160156" stroke-width="2.0" fill="rgb(197, 226, 231)" opacity="0.7956286" stroke="rgb(0, 0, 0)" stroke-opacity="0.0" stroke-linecap="round" stroke-linejoin="round"/>
    <path d="M 42.602474212646484 417.9810485839844 C 39.3611946105957 426.8635559082031 55.16170883178711 417.2059631347656 63.04943084716797 424.7240295410156 C 65.92398834228516 415.23602294921875 50.95954513549805 402.80987548828125 42.602474212646484 417.9810485839844" stroke-width="2.0" fill="rgb(179, 193, 191)" opacity="1.0540639" stroke="rgb(0, 0, 0)" stroke-opacity="0.0" stroke-linecap="round" stroke-linejoin="round"/>
    <path d="M 22.384326934814453 356.37274169921875 C 17.897127151489258 368.4189453125 31.483633041381836 374.27764892578125 17.596111297607422 376.0898132324219 C 28.392038345336914 363.3978576660156 20.546932220458984 393.3078308105469 24.984512329101562 408.0340576171875 C 29.677621841430664 372.28863525390625 19.928203582763672 372.0614318847656 36.27788543701172 377.00347900390625 C 14.845135688781738 364.4044189453125 28.269216537475586 361.0601501464844 22.384326934814453 356.37274169921875" stroke-width="2.0" fill="rgb(45, 43, 42)" opacity="0.8599918" stroke="rgb(0, 0, 0)" stroke-opacity="0.0" stroke-linecap="round" stroke-linejoin="round"/>
    <path d="M 393.1328430175781 232.05210876464844 C 387.2827453613281 236.3295135498047 388.7714538574219 252.3776092529297 394.2323913574219 252.04278564453125 C 395.0082092285156 247.66925048828125 400.0256652832031 234.89886474609375 393.1328430175781 232.05210876464844" stroke-width="2.0" fill="rgb(66, 70, 91)" opacity="1.0072302" stroke="rgb(0, 0, 0)" stroke-opacity="0.0" stroke-linecap="round" stroke-linejoin="round"/>
    <path d="M 419.0777587890625 232.09716796875 C 408.3138732910156 228.48085021972656 413.0638427734375 262.4300537109375 419.4123840332031 249.34579467773438 L 419.0777587890625 232.09716796875" stroke-width="2.0" fill="rgb(60, 62, 81)" opacity="0.9967932" stroke="rgb(0, 0, 0)" stroke-opacity="0.0" stroke-linecap="round" stroke-linejoin="round"/>
    <path d="M 105.62181854248047 369.736083984375 C 105.1225814819336 376.93927001953125 102.09262084960938 376.1304931640625 105.2979965209961 374.42047119140625 C 106.0572509765625 385.03314208984375 103.92365264892578 400.79730224609375 107.24162292480469 406.6419372558594 C 108.64376831054688 392.4562683105469 106.98052978515625 377.4631042480469 107.90970611572266 373.65338134765625 C 106.58023834228516 378.6759338378906 108.38784790039062 368.9581604003906 105.62181854248047 369.736083984375" stroke-width="2.0" fill="rgb(36, 59, 78)" opacity="1.1028078" stroke="rgb(0, 0, 0)" stroke-opacity="0.0" stroke-linecap="round" stroke-linejoin="round"/>
    <path d="M 438.96307373046875 232.0028839111328 C 434.8296203613281 237.8573455810547 434.2282409667969 254.84097290039062 442.4463806152344 252.24317932128906 C 441.91693115234375 247.2020721435547 446.4546813964844 234.1492462158203 438.96307373046875 232.0028839111328" stroke-width="2.0" fill="rgb(68, 79, 104)" opacity="1.0306876" stroke="rgb(0, 0, 0)" stroke-opacity="0.0" stroke-linecap="round" stroke-linejoin="round"/>
    <path d="M 329.72442626953125 234.03305053710938 C 332.24798583984375 250.68807983398438 325.63958740234375 259.7876281738281 337.55126953125 255.4623565673828 C 337.1134338378906 244.5212860107422 340.3826599121094 224.3900909423828 329.72442626953125 234.03305053710938" stroke-width="2.0" fill="rgb(48, 50, 66)" opacity="1.0173441" stroke="rgb(0, 0, 0)" stroke-opacity="0.0" stroke-linecap="round" stroke-linejoin="round"/>
    <path d="M 416.4451599121094 378.1575622558594 C 416.0907287597656 385.21331787109375 406.35308837890625 392.2289733886719 414.5074462890625 390.803466796875 L 413.6067810058594 414.30560302734375 C 422.8208923339844 416.1969299316406 409.5369567871094 390.97564697265625 421.04034423828125 389.6637878417969 C 420.9486083984375 388.7674865722656 414.0986022949219 385.19964599609375 416.4451599121094 378.1575622558594" stroke-width="2.0" fill="rgb(72, 80, 100)" opacity="0.9654554" stroke="rgb(0, 0, 0)" stroke-opacity="0.0" stroke-linecap="round" stroke-linejoin="round"/>
    <path d="M 306.984619140625 234.01193237304688 C 308.9402160644531 254.27456665039062 302.1267395019531 257.8752746582031 314.734619140625 255.3427734375 C 313.57940673828125 244.47291564941406 317.3731689453125 224.17945861816406 306.984619140625 234.01193237304688" stroke-width="2.0" fill="rgb(48, 50, 66)" opacity="1.0119147" stroke="rgb(0, 0, 0)" stroke-opacity="0.0" stroke-linecap="round" stroke-linejoin="round"/>
    <path d="M 144.909423828125 366.24261474609375 C 142.64491271972656 371.5880432128906 126.63095092773438 380.0005187988281 141.9608154296875 373.1529846191406 L 141.65846252441406 412.4604187011719 C 148.86021423339844 394.12420654296875 138.83004760742188 364.8424987792969 149.7416229248047 375.8884582519531 C 156.80166625976562 370.212890625 141.6806182861328 376.33001708984375 144.909423828125 366.24261474609375" stroke-width="2.0" fill="rgb(44, 48, 53)" opacity="0.92343104" stroke="rgb(0, 0, 0)" stroke-opacity="0.0" stroke-linecap="round" stroke-linejoin="round"/>
    <path d="M 116.20974731445312 383.20098876953125 C 117.4142837524414 393.62139892578125 112.64173889160156 410.39617919921875 126.8169937133789 407.2145690917969 C 121.92330932617188 387.2900390625 132.0765380859375 379.4771423339844 116.20974731445312 383.20098876953125" stroke-width="2.0" fill="rgb(40, 46, 68)" opacity="1.0854757" stroke="rgb(0, 0, 0)" stroke-opacity="0.0" stroke-linecap="round" stroke-linejoin="round"/>
    <path d="M 54.9278450012207 423.3640441894531 C 50.61766815185547 461.5598449707031 83.45362091064453 460.041259765625 115.83203887939453 443.7404479980469 C 97.36043548583984 413.45623779296875 74.16678619384766 425.5987854003906 54.9278450012207 423.3640441894531" stroke-width="2.0" fill="rgb(165, 193, 191)" opacity="0.7689467" stroke="rgb(0, 0, 0)" stroke-opacity="0.0" stroke-linecap="round" stroke-linejoin="round"/>
    <path d="M 434.8681640625 380.565673828125 C 433.4051208496094 389.3396911621094 433.1944580078125 401.3521423339844 433.2831115722656 412.3274841308594 C 441.3157958984375 419.7463073730469 434.1396789550781 392.2860107421875 439.0777893066406 388.71893310546875 C 433.87762451171875 388.6772155761719 438.6727600097656 377.87042236328125 434.8681640625 380.565673828125" stroke-width="2.0" fill="rgb(86, 82, 85)" opacity="1.1411773" stroke="rgb(0, 0, 0)" stroke-opacity="0.0" stroke-linecap="round" stroke-linejoin="round"/>
    <path d="M 272.5226135253906 389.5598449707031 C 275.3935852050781 409.4342346191406 267.5572814941406 414.2558898925781 280.275146484375 412.1631774902344 C 278.9641418457031 387.9278869628906 283.8551940917969 386.7629089355469 272.5226135253906 389.5598449707031" stroke-width="2.0" fill="rgb(50, 50, 67)" opacity="1.0077851" stroke="rgb(0, 0, 0)" stroke-opacity="0.0" stroke-linecap="round" stroke-linejoin="round"/>
    <path d="M 477.44903564453125 381.0000915527344 C 479.51629638671875 392.162841796875 469.50396728515625 391.8406982421875 477.3210144042969 388.2448425292969 C 478.6271057128906 402.6763610839844 475.2817077636719 418.7378845214844 479.7966613769531 413.4990234375 C 479.8688659667969 405.46368408203125 478.831787109375 391.2254333496094 481.1440734863281 388.7471923828125 C 477.628173828125 387.5437927246094 482.34912109375 378.0494384765625 477.44903564453125 381.0000915527344" stroke-width="2.0" fill="rgb(24, 40, 65)" opacity="0.98436797" stroke="rgb(0, 0, 0)" stroke-opacity="0.0" stroke-linecap="round" stroke-linejoin="round"/>
    <path d="M 288.2051696777344 389.4112243652344 C 289.9013671875 411.04608154296875 284.184326171875 414.3193664550781 296.1076965332031 412.2195129394531 C 293.8997802734375 389.5422058105469 299.2484436035156 386.7338562011719 288.2051696777344 389.4112243652344" stroke-width="2.0" fill="rgb(54, 51, 65)" opacity="1.0232745" stroke="rgb(0, 0, 0)" stroke-opacity="0.0" stroke-linecap="round" stroke-linejoin="round"/>
    <path d="M 64.94092559814453 371.4458923339844 C 62.56427764892578 368.5341491699219 55.13490676879883 375.1838684082031 47.621307373046875 383.7880554199219 C 58.19929885864258 380.1770935058594 61.54654312133789 380.5353088378906 64.94092559814453 371.4458923339844" stroke-width="2.0" fill="rgb(81, 174, 194)" opacity="1.1239873" stroke="rgb(0, 0, 0)" stroke-opacity="0.0" stroke-linecap="round" stroke-linejoin="round"/>
    <path d="M 290.44903564453125 240.67523193359375 C 280.269775390625 239.19248962402344 270.8482971191406 261.01708984375 289.20465087890625 254.44447326660156 L 290.44903564453125 240.67523193359375" stroke-width="2.0" fill="rgb(107, 185, 203)" opacity="1.038065" stroke="rgb(0, 0, 0)" stroke-opacity="0.0" stroke-linecap="round" stroke-linejoin="round"/>
    <path d="M 170.6693572998047 371.4105224609375 C 169.4769287109375 379.28228759765625 157.77761840820312 384.77783203125 169.21351623535156 375.0613708496094 L 168.47567749023438 410.49420166015625 C 174.9542999267578 400.97088623046875 168.1785430908203 368.4970397949219 175.22067260742188 378.3177185058594 L 170.6693572998047 371.4105224609375" stroke-width="2.0" fill="rgb(48, 48, 54)" opacity="0.97049266" stroke="rgb(0, 0, 0)" stroke-opacity="0.0" stroke-linecap="round" stroke-linejoin="round"/>
    <path d="M 50.64789962768555 383.82415771484375 C 35.30985641479492 370.5563659667969 44.55949783325195 416.0367431640625 50.42008590698242 410.54547119140625 L 50.64789962768555 383.82415771484375" stroke-width="2.0" fill="rgb(44, 45, 60)" opacity="1.0019401" stroke="rgb(0, 0, 0)" stroke-opacity="0.0" stroke-linecap="round" stroke-linejoin="round"/>
    <path d="M 165.45550537109375 447.4112854003906 C 184.74708557128906 460.63671875 220.0244598388672 467.5791015625 220.88800048828125 421.85260009765625 C 186.42066955566406 420.5069580078125 172.87310791015625 415.3185729980469 165.45550537109375 447.4112854003906" stroke-width="2.0" fill="rgb(160, 192, 192)" opacity="0.9810196" stroke="rgb(0, 0, 0)" stroke-opacity="0.0" stroke-linecap="round" stroke-linejoin="round"/>
    <path d="M 78.70260620117188 382.8641662597656 C 61.06669998168945 374.7252502441406 72.73135375976562 409.143798828125 77.04854583740234 416.85467529296875 L 78.70260620117188 382.8641662597656" stroke-width="2.0" fill="rgb(55, 51, 63)" opacity="1.0535673" stroke="rgb(0, 0, 0)" stroke-opacity="0.0" stroke-linecap="round" stroke-linejoin="round"/>
    <path d="M 99.12000274658203 166.3143768310547 C 91.39652252197266 174.39047241210938 114.11449432373047 170.43714904785156 126.13568878173828 171.4734344482422 C 134.4134979248047 163.5529022216797 110.74356842041016 167.56744384765625 99.12000274658203 166.3143768310547" stroke-width="2.0" fill="rgb(66, 128, 153)" opacity="0.84580106" stroke="rgb(0, 0, 0)" stroke-opacity="0.0" stroke-linecap="round" stroke-linejoin="round"/>
    <path d="M 4.9804534912109375 412.9371337890625 C 2.1357789039611816 422.4762878417969 30.531652450561523 428.9682312011719 15.670618057250977 413.8357238769531 C 11.676068305969238 411.18768310546875 7.504724025726318 410.3309020996094 4.9804534912109375 412.9371337890625" stroke-width="2.0" fill="rgb(230, 209, 196)" opacity="1.0001793" stroke="rgb(0, 0, 0)" stroke-opacity="0.0" stroke-linecap="round" stroke-linejoin="round"/>
    <path d="M 107.97840118408203 89.41082763671875 C 102.56671905517578 100.400146484375 134.51051330566406 103.15863800048828 126.39122772216797 89.5928726196289 L 107.97840118408203 89.41082763671875" stroke-width="2.0" fill="rgb(117, 179, 191)" opacity="1.0917026" stroke="rgb(0, 0, 0)" stroke-opacity="0.0" stroke-linecap="round" stroke-linejoin="round"/>
    <path d="M 278.6679992675781 124.88458251953125 C 267.10906982421875 130.2311553955078 263.3080139160156 146.46676635742188 280.6103515625 142.400390625 L 278.6679992675781 124.88458251953125" stroke-width="2.0" fill="rgb(123, 176, 190)" opacity="0.95532304" stroke="rgb(0, 0, 0)" stroke-opacity="0.0" stroke-linecap="round" stroke-linejoin="round"/>
    <path d="M 397.4564514160156 306.63043212890625 C 398.91278076171875 316.3863220214844 394.0759582519531 325.7560729980469 403.8207702636719 321.91510009765625 C 402.2007751464844 314.798095703125 406.3709411621094 298.0965270996094 397.4564514160156 306.63043212890625" stroke-width="2.0" fill="rgb(53, 53, 67)" opacity="1.05902" stroke="rgb(0, 0, 0)" stroke-opacity="0.0" stroke-linecap="round" stroke-linejoin="round"/>
    <path d="M 438.68377685546875 349.6783447265625 C 431.1960754394531 339.62109375 429.51470947265625 373.7397766113281 438.34197998046875 364.0135498046875 L 438.68377685546875 349.6783447265625" stroke-width="2.0" fill="rgb(54, 56, 71)" opacity="1.0597454" stroke="rgb(0, 0, 0)" stroke-opacity="0.0" stroke-linecap="round" stroke-linejoin="round"/>
    <path d="M 450.446533203125 348.8512878417969 C 451.5096435546875 361.37030029296875 447.6345520019531 368.45819091796875 456.5210876464844 364.5683898925781 C 455.5008544921875 352.7604675292969 459.30706787109375 344.63250732421875 450.446533203125 348.8512878417969" stroke-width="2.0" fill="rgb(52, 53, 63)" opacity="1.0520147" stroke="rgb(0, 0, 0)" stroke-opacity="0.0" stroke-linecap="round" stroke-linejoin="round"/>
    <path d="M 114.5599136352539 499.71820068359375 C 57.59420394897461 481.0139465332031 25.458919525146484 473.7853698730469 5.139939785003662 504.7276611328125 C 57.10200500488281 501.0037841796875 85.09080505371094 509.42303466796875 114.5599136352539 499.71820068359375" stroke-width="2.0" fill="rgb(60, 95, 119)" opacity="0.7897816" stroke="rgb(0, 0, 0)" stroke-opacity="0.0" stroke-linecap="round" stroke-linejoin="round"/>
    <path d="M 288.5023498535156 361.83770751953125 C 290.0638427734375 370.24847412109375 285.38665771484375 382.6102294921875 295.18536376953125 373.4366760253906 C 291.9610290527344 363.81597900390625 301.64739990234375 360.3406982421875 288.5023498535156 361.83770751953125" stroke-width="2.0" fill="rgb(96, 101, 110)" opacity="0.8975985" stroke="rgb(0, 0, 0)" stroke-opacity="0.0" stroke-linecap="round" stroke-linejoin="round"/>
    <path d="M 413.1608581542969 306.96820068359375 C 414.84637451171875 315.7503967285156 409.5135803222656 326.2013244628906 419.6178894042969 321.8356628417969 C 418.7367858886719 315.44036865234375 421.9078369140625 297.8114929199219 413.1608581542969 306.96820068359375" stroke-width="2.0" fill="rgb(53, 52, 63)" opacity="1.0276477" stroke="rgb(0, 0, 0)" stroke-opacity="0.0" stroke-linecap="round" stroke-linejoin="round"/>
    <path d="M 381.7107238769531 306.98858642578125 C 383.6391906738281 316.7879638671875 378.8893737792969 325.01763916015625 387.92828369140625 322.4051513671875 C 386.6982116699219 314.5301208496094 390.9386901855469 300.1792297363281 381.7107238769531 306.98858642578125" stroke-width="2.0" fill="rgb(48, 49, 62)" opacity="1.0418534" stroke="rgb(0, 0, 0)" stroke-opacity="0.0" stroke-linecap="round" stroke-linejoin="round"/>
    <path d="M 218.77249145507812 322.0731506347656 C 216.98516845703125 317.1352233886719 213.80645751953125 341.2922668457031 220.78009033203125 336.05462646484375 C 222.47499084472656 340.5789794921875 225.44175720214844 316.224609375 218.77249145507812 322.0731506347656" stroke-width="2.0" fill="rgb(37, 55, 81)" opacity="1.015783" stroke="rgb(0, 0, 0)" stroke-opacity="0.0" stroke-linecap="round" stroke-linejoin="round"/>
    <path d="M 336.5000915527344 189.5146484375 C 337.85028076171875 195.49899291992188 332.8595275878906 206.9093475341797 341.94146728515625 202.78781127929688 C 342.7295837402344 195.802001953125 344.3075866699219 180.7469024658203 336.5000915527344 189.5146484375" stroke-width="2.0" fill="rgb(58, 58, 66)" opacity="1.0445466" stroke="rgb(0, 0, 0)" stroke-opacity="0.0" stroke-linecap="round" stroke-linejoin="round"/>
    <path d="M 220.2130126953125 377.371826171875 C 216.993408203125 381.28839111328125 217.7955780029297 393.4606018066406 222.43014526367188 402.352783203125 C 222.22952270507812 395.90087890625 219.72232055664062 384.2532043457031 220.2130126953125 377.371826171875" stroke-width="2.0" fill="rgb(92, 140, 165)" opacity="0.8878469" stroke="rgb(0, 0, 0)" stroke-opacity="0.0" stroke-linecap="round" stroke-linejoin="round"/>
    <path d="M 272.9443359375 362.691162109375 C 274.5245361328125 377.2334899902344 270.1197814941406 377.1866760253906 279.6183166503906 376.34765625 C 278.5917053222656 361.3170471191406 283.0662841796875 360.8750915527344 272.9443359375 362.691162109375" stroke-width="2.0" fill="rgb(54, 53, 67)" opacity="1.0330739" stroke="rgb(0, 0, 0)" stroke-opacity="0.0" stroke-linecap="round" stroke-linejoin="round"/>
    <path d="M 155.4086151123047 266.9631652832031 C 156.7180938720703 274.7247009277344 153.48483276367188 286.8561096191406 160.93019104003906 282.3170471191406 C 159.5689697265625 270.5002136230469 163.46453857421875 264.30963134765625 155.4086151123047 266.9631652832031" stroke-width="2.0" fill="rgb(62, 67, 80)" opacity="1.057259" stroke="rgb(0, 0, 0)" stroke-opacity="0.0" stroke-linecap="round" stroke-linejoin="round"/>
    <path d="M 217.4138641357422 351.8348083496094 C 212.81373596191406 370.731201171875 225.56495666503906 372.7253723144531 222.19369506835938 351.6367492675781 L 217.4138641357422 351.8348083496094" stroke-width="2.0" fill="rgb(37, 52, 76)" opacity="1.0230752" stroke="rgb(0, 0, 0)" stroke-opacity="0.0" stroke-linecap="round" stroke-linejoin="round"/>
    <path d="M 359.7920227050781 188.74378967285156 C 360.5228576660156 194.0514373779297 356.48651123046875 207.2161865234375 365.86578369140625 202.41615295410156 C 365.2449951171875 195.88497924804688 368.48095703125 180.95176696777344 359.7920227050781 188.74378967285156" stroke-width="2.0" fill="rgb(32, 39, 51)" opacity="1.0070399" stroke="rgb(0, 0, 0)" stroke-opacity="0.0" stroke-linecap="round" stroke-linejoin="round"/>
    <path d="M 133.99322509765625 266.92926025390625 C 135.572021484375 278.42620849609375 131.11032104492188 284.91259765625 139.61495971679688 282.1023254394531 C 138.2217254638672 271.2001647949219 142.17506408691406 263.201904296875 133.99322509765625 266.92926025390625" stroke-width="2.0" fill="rgb(56, 58, 69)" opacity="1.038168" stroke="rgb(0, 0, 0)" stroke-opacity="0.0" stroke-linecap="round" stroke-linejoin="round"/>
    <path d="M 176.58804321289062 267.7530212402344 C 177.7085723876953 272.8706970214844 174.2455291748047 286.2739562988281 182.68421936035156 281.12542724609375 C 181.3602752685547 273.88250732421875 186.0392608642578 262.59222412109375 176.58804321289062 267.7530212402344" stroke-width="2.0" fill="rgb(29, 49, 74)" opacity="1.0258079" stroke="rgb(0, 0, 0)" stroke-opacity="0.0" stroke-linecap="round" stroke-linejoin="round"/>
    <path d="M 482.279052734375 311.90325927734375 C 483.2944641113281 324.7659606933594 477.4908752441406 325.0222473144531 488.1863098144531 324.1907958984375 C 487.70697021484375 313.1419677734375 492.05841064453125 309.79083251953125 482.279052734375 311.90325927734375" stroke-width="2.0" fill="rgb(53, 51, 66)" opacity="1.0409826" stroke="rgb(0, 0, 0)" stroke-opacity="0.0" stroke-linecap="round" stroke-linejoin="round"/>
    <path d="M 487.462646484375 349.7782897949219 C 488.4425354003906 356.4446716308594 484.58819580078125 369.4219970703125 493.0284423828125 364.2369079589844 C 491.32965087890625 356.9770812988281 495.9398498535156 344.6964416503906 487.462646484375 349.7782897949219" stroke-width="2.0" fill="rgb(25, 43, 70)" opacity="1.0285347" stroke="rgb(0, 0, 0)" stroke-opacity="0.0" stroke-linecap="round" stroke-linejoin="round"/>
    <path d="M 321.22186279296875 188.79925537109375 C 322.94134521484375 198.5557861328125 317.5583801269531 206.54498291015625 327.12445068359375 202.63726806640625 C 327.206787109375 194.14544677734375 329.13531494140625 181.10411071777344 321.22186279296875 188.79925537109375" stroke-width="2.0" fill="rgb(58, 57, 63)" opacity="1.0232496" stroke="rgb(0, 0, 0)" stroke-opacity="0.0" stroke-linecap="round" stroke-linejoin="round"/>
    <path d="M 119.44401550292969 317.00384521484375 C 121.12008666992188 323.4472351074219 116.0484390258789 334.8639831542969 125.5089340209961 330.08917236328125 C 123.9568862915039 322.86175537109375 128.78773498535156 311.6125793457031 119.44401550292969 317.00384521484375" stroke-width="2.0" fill="rgb(33, 48, 75)" opacity="1.0287057" stroke="rgb(0, 0, 0)" stroke-opacity="0.0" stroke-linecap="round" stroke-linejoin="round"/>
    <path d="M 415.9640808105469 379.8182678222656 C 418.46630859375 384.0245666503906 411.7274475097656 387.976806640625 409.27386474609375 390.94635009765625 C 412.5892028808594 391.6208190917969 417.4563903808594 392.02154541015625 421.8248291015625 391.38983154296875 C 418.9620361328125 387.3668518066406 413.5636901855469 384.5807800292969 415.9640808105469 379.8182678222656" stroke-width="2.0" fill="rgb(135, 184, 198)" opacity="1.051856" stroke="rgb(0, 0, 0)" stroke-opacity="0.0" stroke-linecap="round" stroke-linejoin="round"/>
    <path d="M 72.04692840576172 316.780029296875 C 73.43960571289062 325.442138671875 68.91327667236328 333.87872314453125 77.91167449951172 330.0527038574219 C 76.29096221923828 322.40777587890625 80.16159057617188 311.1963806152344 72.04692840576172 316.780029296875" stroke-width="2.0" fill="rgb(56, 56, 60)" opacity="1.0318654" stroke="rgb(0, 0, 0)" stroke-opacity="0.0" stroke-linecap="round" stroke-linejoin="round"/>
    <path d="M 353.8475036621094 113.95391845703125 C 350.58782958984375 113.55786895751953 356.4075012207031 129.4986572265625 357.7602844238281 136.50453186035156 C 354.8721008300781 118.8088607788086 367.7543640136719 113.53870391845703 353.8475036621094 113.95391845703125" stroke-width="2.0" fill="rgb(79, 98, 112)" opacity="1.279042" stroke="rgb(0, 0, 0)" stroke-opacity="0.0" stroke-linecap="round" stroke-linejoin="round"/>
    <path d="M 228.37686157226562 322.2590026855469 C 229.42286682128906 328.8561706542969 224.88766479492188 340.2670593261719 234.01138305664062 335.6625061035156 C 232.96975708007812 328.1795349121094 237.70616149902344 318.4389953613281 228.37686157226562 322.2590026855469" stroke-width="2.0" fill="rgb(33, 50, 74)" opacity="1.0147969" stroke="rgb(0, 0, 0)" stroke-opacity="0.0" stroke-linecap="round" stroke-linejoin="round"/>
    <path d="M 167.21432495117188 322.4142761230469 C 168.24917602539062 332.9036560058594 164.89776611328125 338.3804931640625 172.66993713378906 336.15386962890625 C 171.9402313232422 326.185302734375 175.2301483154297 318.01177978515625 167.21432495117188 322.4142761230469" stroke-width="2.0" fill="rgb(48, 53, 69)" opacity="1.0570152" stroke="rgb(0, 0, 0)" stroke-opacity="0.0" stroke-linecap="round" stroke-linejoin="round"/>
    <path d="M 358.2408752441406 230.38636779785156 C 344.76715087890625 252.73178100585938 373.43572998046875 245.85203552246094 358.2408752441406 230.38636779785156" stroke-width="2.0" fill="rgb(74, 77, 84)" opacity="1.1020504" stroke="rgb(0, 0, 0)" stroke-opacity="0.0" stroke-linecap="round" stroke-linejoin="round"/>
    <path d="M 181.5408935546875 322.95745849609375 C 184.35580444335938 328.0546569824219 177.96575927734375 340.40167236328125 187.67201232910156 335.479736328125 C 186.68052673339844 326.578369140625 190.3394775390625 317.7005310058594 181.5408935546875 322.95745849609375" stroke-width="2.0" fill="rgb(53, 55, 67)" opacity="1.0480546" stroke="rgb(0, 0, 0)" stroke-opacity="0.0" stroke-linecap="round" stroke-linejoin="round"/>
    <path d="M 219.1749267578125 268.1651611328125 C 221.5877685546875 267.7652282714844 215.39169311523438 286.4415283203125 225.39962768554688 280.5193176269531 C 224.1405792236328 279.54083251953125 228.69696044921875 260.810791015625 219.1749267578125 268.1651611328125" stroke-width="2.0" fill="rgb(35, 53, 73)" opacity="1.0260055" stroke="rgb(0, 0, 0)" stroke-opacity="0.0" stroke-linecap="round" stroke-linejoin="round"/>
    <path d="M 425.87786865234375 276.6826477050781 C 429.12432861328125 283.2309265136719 421.33990478515625 292.4261474609375 432.57110595703125 289.1280822753906 C 430.81829833984375 279.5003967285156 435.5172424316406 273.1162109375 425.87786865234375 276.6826477050781" stroke-width="2.0" fill="rgb(38, 39, 52)" opacity="0.98319566" stroke="rgb(0, 0, 0)" stroke-opacity="0.0" stroke-linecap="round" stroke-linejoin="round"/>
    <path d="M 119.48455810546875 347.0514831542969 C 120.27349853515625 352.0502624511719 115.85710906982422 364.7048034667969 125.04146575927734 359.5276184082031 C 123.85814666748047 354.697265625 128.92660522460938 343.42364501953125 119.48455810546875 347.0514831542969" stroke-width="2.0" fill="rgb(37, 49, 72)" opacity="1.018828" stroke="rgb(0, 0, 0)" stroke-opacity="0.0" stroke-linecap="round" stroke-linejoin="round"/>
    <path d="M 58.26109313964844 317.03631591796875 C 59.54286193847656 327.3796081542969 55.56327819824219 332.9443664550781 63.66658020019531 330.053466796875 C 62.49671173095703 321.1947021484375 66.2222671508789 312.11322021484375 58.26109313964844 317.03631591796875" stroke-width="2.0" fill="rgb(53, 55, 65)" opacity="1.0469524" stroke="rgb(0, 0, 0)" stroke-opacity="0.0" stroke-linecap="round" stroke-linejoin="round"/>
    <path d="M 413.28021240234375 336.1212463378906 C 414.3482971191406 345.17926025390625 410.0690002441406 353.9990539550781 419.1856994628906 349.7420654296875 C 418.397216796875 342.00848388671875 421.8456115722656 331.95550537109375 413.28021240234375 336.1212463378906" stroke-width="2.0" fill="rgb(59, 52, 61)" opacity="1.0224879" stroke="rgb(0, 0, 0)" stroke-opacity="0.0" stroke-linecap="round" stroke-linejoin="round"/>
    <path d="M 203.8785858154297 322.4926452636719 C 206.11148071289062 326.4375 200.30831909179688 341.0728759765625 209.75003051757812 335.36187744140625 C 208.4710693359375 328.07794189453125 212.86647033691406 317.65753173828125 203.8785858154297 322.4926452636719" stroke-width="2.0" fill="rgb(25, 43, 66)" opacity="1.025897" stroke="rgb(0, 0, 0)" stroke-opacity="0.0" stroke-linecap="round" stroke-linejoin="round"/>
    <path d="M 43.53068923950195 316.9261169433594 C 45.29508590698242 327.4895324707031 40.37758255004883 333.3038330078125 49.26730728149414 330.1241149902344 C 48.7506217956543 323.4737243652344 52.246971130371094 311.3182067871094 43.53068923950195 316.9261169433594" stroke-width="2.0" fill="rgb(49, 49, 60)" opacity="1.0328857" stroke="rgb(0, 0, 0)" stroke-opacity="0.0" stroke-linecap="round" stroke-linejoin="round"/>
    <path d="M 288.7132873535156 362.8859558105469 C 291.3163757324219 369.4140319824219 284.9669494628906 378.1154479980469 295.4800720214844 376.0372314453125 C 294.6593017578125 369.0508117675781 298.3516845703125 358.6233215332031 288.7132873535156 362.8859558105469" stroke-width="2.0" fill="rgb(20, 19, 37)" opacity="0.79850566" stroke="rgb(0, 0, 0)" stroke-opacity="0.0" stroke-linecap="round" stroke-linejoin="round"/>
    <path d="M 257.58819580078125 362.691650390625 C 258.7041320800781 369.56103515625 254.54661560058594 380.46514892578125 263.74041748046875 375.19671630859375 C 262.4710388183594 366.8373107910156 267.8409118652344 358.75726318359375 257.58819580078125 362.691650390625" stroke-width="2.0" fill="rgb(40, 40, 53)" opacity="0.9726442" stroke="rgb(0, 0, 0)" stroke-opacity="0.0" stroke-linecap="round" stroke-linejoin="round"/>
    <path d="M 397.28912353515625 336.84783935546875 C 398.18780517578125 346.9989929199219 394.5323181152344 352.4361877441406 403.55560302734375 349.7789001464844 C 402.6851806640625 342.5384216308594 405.724609375 331.43994140625 397.28912353515625 336.84783935546875" stroke-width="2.0" fill="rgb(60, 51, 60)" opacity="1.0282526" stroke="rgb(0, 0, 0)" stroke-opacity="0.0" stroke-linecap="round" stroke-linejoin="round"/>
    <path d="M 107.2912368774414 317.18560791015625 C 108.62397766113281 323.3877258300781 103.65727996826172 335.32666015625 113.39265441894531 329.98101806640625 C 111.89578247070312 324.3291320800781 115.96441650390625 310.97198486328125 107.2912368774414 317.18560791015625" stroke-width="2.0" fill="rgb(31, 45, 68)" opacity="1.0008087" stroke="rgb(0, 0, 0)" stroke-opacity="0.0" stroke-linecap="round" stroke-linejoin="round"/>
    <path d="M 95.59518432617188 347.04608154296875 C 96.69835662841797 352.2453918457031 91.2488784790039 364.48046875 101.47065734863281 359.75775146484375 C 100.51812744140625 354.6158142089844 104.12918853759766 343.1423034667969 95.59518432617188 347.04608154296875" stroke-width="2.0" fill="rgb(31, 44, 64)" opacity="1.0155873" stroke="rgb(0, 0, 0)" stroke-opacity="0.0" stroke-linecap="round" stroke-linejoin="round"/>
    <path d="M 228.04025268554688 352.8575439453125 C 229.8153076171875 360.0778503417969 224.67312622070312 369.6839599609375 234.2115020751953 365.2344970703125 C 231.98951721191406 358.87408447265625 238.158935546875 348.48919677734375 228.04025268554688 352.8575439453125" stroke-width="2.0" fill="rgb(30, 48, 75)" opacity="1.0134795" stroke="rgb(0, 0, 0)" stroke-opacity="0.0" stroke-linecap="round" stroke-linejoin="round"/>
    <path d="M 144.58912658691406 267.270751953125 C 146.86285400390625 277.8771667480469 141.75474548339844 285.6106262207031 150.11158752441406 281.89227294921875 C 148.3308563232422 271.3514709472656 152.4916534423828 261.4812316894531 144.58912658691406 267.270751953125" stroke-width="2.0" fill="rgb(58, 61, 72)" opacity="1.0296584" stroke="rgb(0, 0, 0)" stroke-opacity="0.0" stroke-linecap="round" stroke-linejoin="round"/>
    <path d="M 167.55897521972656 352.92626953125 C 168.193603515625 363.94091796875 164.49465942382812 367.9296875 172.70083618164062 365.8996276855469 C 171.76377868652344 356.3186950683594 175.59829711914062 348.8375244140625 167.55897521972656 352.92626953125" stroke-width="2.0" fill="rgb(49, 53, 68)" opacity="1.0483297" stroke="rgb(0, 0, 0)" stroke-opacity="0.0" stroke-linecap="round" stroke-linejoin="round"/>
    <path d="M 72.2964859008789 346.7674255371094 C 73.34285736083984 356.31182861328125 69.12981414794922 361.8432312011719 78.09606170654297 359.9169006347656 C 76.60236358642578 353.4852600097656 80.26689147949219 341.3722229003906 72.2964859008789 346.7674255371094" stroke-width="2.0" fill="rgb(57, 54, 67)" opacity="1.0216825" stroke="rgb(0, 0, 0)" stroke-opacity="0.0" stroke-linecap="round" stroke-linejoin="round"/>
    <path d="M 203.71800231933594 352.7024841308594 C 206.05796813964844 358.7425231933594 200.51304626464844 370.1146545410156 209.534912109375 365.01373291015625 C 208.28395080566406 357.862548828125 213.37376403808594 348.1700134277344 203.71800231933594 352.7024841308594" stroke-width="2.0" fill="rgb(32, 46, 69)" opacity="1.0206276" stroke="rgb(0, 0, 0)" stroke-opacity="0.0" stroke-linecap="round" stroke-linejoin="round"/>
    <path d="M 246.2615203857422 293.6658935546875 C 247.18516540527344 300.0036926269531 242.18309020996094 310.177001953125 251.86753845214844 306.7712707519531 C 250.89346313476562 299.71380615234375 253.23593139648438 288.9278259277344 246.2615203857422 293.6658935546875" stroke-width="2.0" fill="rgb(22, 34, 59)" opacity="1.0197622" stroke="rgb(0, 0, 0)" stroke-opacity="0.0" stroke-linecap="round" stroke-linejoin="round"/>
    <path d="M 245.9965057373047 267.5157165527344 C 247.72828674316406 268.34490966796875 241.8796844482422 286.2538757324219 251.4514923095703 280.6148376464844 C 250.25320434570312 273.1022033691406 254.0924530029297 263.1608581542969 245.9965057373047 267.5157165527344" stroke-width="2.0" fill="rgb(28, 49, 74)" opacity="1.0293119" stroke="rgb(0, 0, 0)" stroke-opacity="0.0" stroke-linecap="round" stroke-linejoin="round"/>
    <path d="M 450.56597900390625 387.6585998535156 C 446.77923583984375 404.5334167480469 459.6436462402344 404.1522521972656 455.8880615234375 388.4801025390625 L 450.56597900390625 387.6585998535156" stroke-width="2.0" fill="rgb(60, 63, 66)" opacity="1.0476736" stroke="rgb(0, 0, 0)" stroke-opacity="0.0" stroke-linecap="round" stroke-linejoin="round"/>
    <path d="M 287.4087829589844 234.58570861816406 C 278.85516357421875 223.18670654296875 274.8291931152344 252.43997192382812 288.22857666015625 239.36964416503906 L 287.4087829589844 234.58570861816406" stroke-width="2.0" fill="rgb(39, 46, 69)" opacity="1.0048891" stroke="rgb(0, 0, 0)" stroke-opacity="0.0" stroke-linecap="round" stroke-linejoin="round"/>
    <path d="M 152.20269775390625 352.716796875 C 154.0130157470703 362.8218078613281 149.2809295654297 368.7797546386719 158.3748321533203 365.3756408691406 C 156.66928100585938 357.9102478027344 161.56732177734375 348.4165344238281 152.20269775390625 352.716796875" stroke-width="2.0" fill="rgb(51, 55, 71)" opacity="1.0437611" stroke="rgb(0, 0, 0)" stroke-opacity="0.0" stroke-linecap="round" stroke-linejoin="round"/>
    <path d="M 107.12144470214844 346.75146484375 C 107.6972427368164 353.3509216308594 103.13795471191406 364.3851318359375 113.37323760986328 359.416748046875 C 112.19483184814453 353.2440490722656 116.1261215209961 342.5440979003906 107.12144470214844 346.75146484375" stroke-width="2.0" fill="rgb(27, 35, 57)" opacity="0.99891835" stroke="rgb(0, 0, 0)" stroke-opacity="0.0" stroke-linecap="round" stroke-linejoin="round"/>
    <path d="M 181.8011016845703 352.86956787109375 C 184.07229614257812 363.7373962402344 178.73062133789062 369.2528076171875 187.7547607421875 365.3575744628906 C 186.71646118164062 355.2171630859375 190.12423706054688 348.6993103027344 181.8011016845703 352.86956787109375" stroke-width="2.0" fill="rgb(50, 51, 64)" opacity="1.0369055" stroke="rgb(0, 0, 0)" stroke-opacity="0.0" stroke-linecap="round" stroke-linejoin="round"/>
    <path d="M 152.48248291015625 322.3710632324219 C 153.90786743164062 329.8831787109375 149.2711944580078 339.3993835449219 158.3915252685547 335.83404541015625 C 157.125244140625 327.42449951171875 161.4371795654297 317.9610290527344 152.48248291015625 322.3710632324219" stroke-width="2.0" fill="rgb(48, 50, 62)" opacity="1.0364343" stroke="rgb(0, 0, 0)" stroke-opacity="0.0" stroke-linecap="round" stroke-linejoin="round"/>
    <path d="M 58.321197509765625 347.1868896484375 C 58.74737548828125 353.2388000488281 53.946739196777344 363.1922607421875 63.38450241088867 359.6229248046875 C 62.529693603515625 351.1087646484375 65.69049835205078 342.4431457519531 58.321197509765625 347.1868896484375" stroke-width="2.0" fill="rgb(57, 61, 73)" opacity="1.0304695" stroke="rgb(0, 0, 0)" stroke-opacity="0.0" stroke-linecap="round" stroke-linejoin="round"/>
    <path d="M 220.74679565429688 293.3682861328125 C 215.6490478515625 308.5478210449219 229.78118896484375 311.0926513671875 224.29837036132812 292.7124938964844 L 220.74679565429688 293.3682861328125" stroke-width="2.0" fill="rgb(29, 46, 63)" opacity="1.0414157" stroke="rgb(0, 0, 0)" stroke-opacity="0.0" stroke-linecap="round" stroke-linejoin="round"/>
    <path d="M 383.1347351074219 336.0479736328125 C 377.6199951171875 356.4327087402344 388.79974365234375 349.7527770996094 387.5562744140625 348.4630126953125 C 387.2778625488281 339.039794921875 388.01214599609375 334.6043395996094 383.1347351074219 336.0479736328125" stroke-width="2.0" fill="rgb(68, 55, 64)" opacity="1.0199935" stroke="rgb(0, 0, 0)" stroke-opacity="0.0" stroke-linecap="round" stroke-linejoin="round"/>
    <path d="M 110.552734375 208.4891815185547 C 111.23820495605469 213.4642333984375 108.0655746459961 223.7648468017578 115.48551177978516 219.47116088867188 C 114.50090789794922 214.58485412597656 118.27748107910156 203.81105041503906 110.552734375 208.4891815185547" stroke-width="2.0" fill="rgb(64, 69, 79)" opacity="1.0767473" stroke="rgb(0, 0, 0)" stroke-opacity="0.0" stroke-linecap="round" stroke-linejoin="round"/>
    <path d="M 327.5245056152344 322.9007263183594 C 328.7875061035156 328.13836669921875 324.4218444824219 337.8714294433594 332.1713562011719 333.7967224121094 C 331.4022521972656 329.0060119628906 334.81610107421875 319.28863525390625 327.5245056152344 322.9007263183594" stroke-width="2.0" fill="rgb(32, 45, 69)" opacity="1.0568663" stroke="rgb(0, 0, 0)" stroke-opacity="0.0" stroke-linecap="round" stroke-linejoin="round"/>
    <path d="M 351.9619445800781 323.7598876953125 C 354.35595703125 328.5289306640625 348.47967529296875 337.1324768066406 356.95013427734375 334.1473083496094 C 356.1820983886719 329.07696533203125 360.199462890625 319.2153625488281 351.9619445800781 323.7598876953125" stroke-width="2.0" fill="rgb(34, 51, 73)" opacity="1.0458007" stroke="rgb(0, 0, 0)" stroke-opacity="0.0" stroke-linecap="round" stroke-linejoin="round"/>
    <path d="M 67.3102798461914 384.0054931640625 C 56.52009201049805 373.03106689453125 54.332008361816406 403.96539306640625 67.01032257080078 387.5351867675781 L 67.3102798461914 384.0054931640625" stroke-width="2.0" fill="rgb(61, 59, 66)" opacity="0.9956291" stroke="rgb(0, 0, 0)" stroke-opacity="0.0" stroke-linecap="round" stroke-linejoin="round"/>
    <path d="M 473.36419677734375 312.69085693359375 C 465.57891845703125 304.70831298828125 465.0310363769531 331.2303466796875 473.53729248046875 323.9021911621094 L 473.36419677734375 312.69085693359375" stroke-width="2.0" fill="rgb(54, 50, 61)" opacity="1.0401168" stroke="rgb(0, 0, 0)" stroke-opacity="0.0" stroke-linecap="round" stroke-linejoin="round"/>
    <path d="M 234.26409912109375 292.8305358886719 C 229.69515991210938 309.3296203613281 240.9990997314453 310.1571350097656 238.38490295410156 299.9814758300781 C 238.54759216308594 290.9299621582031 238.40306091308594 292.877197265625 234.26409912109375 292.8305358886719" stroke-width="2.0" fill="rgb(28, 48, 78)" opacity="1.022475" stroke="rgb(0, 0, 0)" stroke-opacity="0.0" stroke-linecap="round" stroke-linejoin="round"/>
    <path d="M 233.2052764892578 267.6982727050781 C 234.30514526367188 274.14691162109375 228.29359436035156 284.7007751464844 238.2355194091797 280.9959716796875 C 237.47705078125 274.2300720214844 240.82244873046875 263.1562194824219 233.2052764892578 267.6982727050781" stroke-width="2.0" fill="rgb(29, 48, 78)" opacity="1.0025332" stroke="rgb(0, 0, 0)" stroke-opacity="0.0" stroke-linecap="round" stroke-linejoin="round"/>
    <path d="M 220.2787322998047 377.89532470703125 C 220.18670654296875 385.8383483886719 217.5731964111328 395.3682861328125 219.6670379638672 406.31756591796875 C 222.3257598876953 397.74749755859375 219.33123779296875 386.7854919433594 220.2787322998047 377.89532470703125" stroke-width="2.0" fill="rgb(15, 52, 76)" opacity="0.8835349" stroke="rgb(0, 0, 0)" stroke-opacity="0.0" stroke-linecap="round" stroke-linejoin="round"/>
    <path d="M 353.4248962402344 294.578857421875 C 347.732421875 324.3196716308594 366.0721435546875 299.0370178222656 353.4248962402344 294.578857421875" stroke-width="2.0" fill="rgb(70, 75, 84)" opacity="1.0453832" stroke="rgb(0, 0, 0)" stroke-opacity="0.0" stroke-linecap="round" stroke-linejoin="round"/>
    <path d="M 43.692195892333984 346.43609619140625 C 45.05117416381836 354.6351013183594 40.34469985961914 363.64111328125 49.60519027709961 359.4744873046875 C 48.32847595214844 352.3526916503906 52.5851936340332 343.45477294921875 43.692195892333984 346.43609619140625" stroke-width="2.0" fill="rgb(42, 44, 55)" opacity="1.0022244" stroke="rgb(0, 0, 0)" stroke-opacity="0.0" stroke-linecap="round" stroke-linejoin="round"/>
    <path d="M 7.383415699005127 357.47784423828125 C 5.070897102355957 386.1140441894531 20.486881256103516 355.260986328125 7.383415699005127 357.47784423828125" stroke-width="2.0" fill="rgb(65, 64, 73)" opacity="1.0607958" stroke="rgb(0, 0, 0)" stroke-opacity="0.0" stroke-linecap="round" stroke-linejoin="round"/>
    <path d="M 331.92620849609375 296.6484069824219 C 326.1835021972656 284.64471435546875 322.5823059082031 332.26031494140625 333.6763610839844 321.09307861328125 L 331.92620849609375 296.6484069824219" stroke-width="2.0" fill="rgb(120, 148, 160)" opacity="1.1836622" stroke="rgb(0, 0, 0)" stroke-opacity="0.0" stroke-linecap="round" stroke-linejoin="round"/>
    <path d="M 341.73504638671875 322.8788757324219 C 335.37060546875 340.8650207519531 349.7870178222656 335.87677001953125 341.73504638671875 322.8788757324219" stroke-width="2.0" fill="rgb(54, 77, 101)" opacity="1.0399009" stroke="rgb(0, 0, 0)" stroke-opacity="0.0" stroke-linecap="round" stroke-linejoin="round"/>
    <path d="M 434.609619140625 379.60858154296875 C 436.31866455078125 388.87261962890625 421.80450439453125 393.4439697265625 442.06884765625 390.85540771484375 C 439.3957824707031 386.78594970703125 429.9009704589844 391.1400146484375 434.609619140625 379.60858154296875" stroke-width="2.0" fill="rgb(146, 179, 181)" opacity="0.88716495" stroke="rgb(0, 0, 0)" stroke-opacity="0.0" stroke-linecap="round" stroke-linejoin="round"/>
    <path d="M 319.28997802734375 403.98974609375 C 310.7681884765625 417.49468994140625 318.7919921875 418.2103271484375 318.6097717285156 407.23919677734375 L 319.28997802734375 403.98974609375" stroke-width="2.0" fill="rgb(149, 104, 108)" opacity="0.84952" stroke="rgb(0, 0, 0)" stroke-opacity="0.0" stroke-linecap="round" stroke-linejoin="round"/>
    <path d="M 26.70876693725586 357.85552978515625 C 20.68450927734375 353.25103759765625 19.765064239501953 370.37396240234375 26.91214370727539 366.0067138671875 L 26.70876693725586 357.85552978515625" stroke-width="2.0" fill="rgb(45, 47, 60)" opacity="1.0176445" stroke="rgb(0, 0, 0)" stroke-opacity="0.0" stroke-linecap="round" stroke-linejoin="round"/>
    <path d="M 340.22747802734375 296.1363830566406 C 336.11865234375 314.2010498046875 347.2025146484375 313.9704284667969 343.8305969238281 296.4638366699219 L 340.22747802734375 296.1363830566406" stroke-width="2.0" fill="rgb(78, 80, 93)" opacity="1.1182854" stroke="rgb(0, 0, 0)" stroke-opacity="0.0" stroke-linecap="round" stroke-linejoin="round"/>
    <path d="M 272.175537109375 194.8020477294922 C 264.809814453125 214.4271240234375 281.6795959472656 206.1223907470703 272.175537109375 194.8020477294922" stroke-width="2.0" fill="rgb(77, 79, 85)" opacity="1.0459857" stroke="rgb(0, 0, 0)" stroke-opacity="0.0" stroke-linecap="round" stroke-linejoin="round"/>
    <path d="M 144.90980529785156 145.9413604736328 C 142.16563415527344 178.6051025390625 163.6034698486328 170.13525390625 144.90980529785156 145.9413604736328" stroke-width="2.0" fill="rgb(64, 113, 136)" opacity="0.9221098" stroke="rgb(0, 0, 0)" stroke-opacity="0.0" stroke-linecap="round" stroke-linejoin="round"/>
    <path d="M 111.5191650390625 253.92918395996094 C 110.09933471679688 278.8137512207031 123.11680603027344 250.8109893798828 111.5191650390625 253.92918395996094" stroke-width="2.0" fill="rgb(46, 53, 67)" opacity="1.0328499" stroke="rgb(0, 0, 0)" stroke-opacity="0.0" stroke-linecap="round" stroke-linejoin="round"/>
    <path d="M 278.5297546386719 309.69708251953125 C 275.772216796875 334.1015625 289.1202087402344 308.3534851074219 278.5297546386719 309.69708251953125" stroke-width="2.0" fill="rgb(54, 52, 60)" opacity="1.0810915" stroke="rgb(0, 0, 0)" stroke-opacity="0.0" stroke-linecap="round" stroke-linejoin="round"/>
    <path d="M 304.5428466796875 403.4556884765625 C 293.6285400390625 414.35455322265625 317.7701721191406 419.3596496582031 304.5428466796875 403.4556884765625" stroke-width="2.0" fill="rgb(81, 75, 77)" opacity="1.0823938" stroke="rgb(0, 0, 0)" stroke-opacity="0.0" stroke-linecap="round" stroke-linejoin="round"/>
    <path d="M 391.74456787109375 404.68255615234375 C 386.0626525878906 420.7462463378906 401.6221008300781 412.3758544921875 391.74456787109375 404.68255615234375" stroke-width="2.0" fill="rgb(38, 46, 51)" opacity="1.02802" stroke="rgb(0, 0, 0)" stroke-opacity="0.0" stroke-linecap="round" stroke-linejoin="round"/>
    <path d="M 131.4513397216797 139.29443359375 C 109.2085189819336 191.66270446777344 179.98928833007812 166.57476806640625 131.4513397216797 139.29443359375" stroke-width="2.0" fill="rgb(-4, 49, 92)" opacity="0.64848566" stroke="rgb(0, 0, 0)" stroke-opacity="0.0" stroke-linecap="round" stroke-linejoin="round"/>
    <path d="M 103.77993774414062 151.8004608154297 C 99.26212310791016 145.54049682617188 99.65888214111328 167.28753662109375 103.57784271240234 160.1736297607422 L 103.77993774414062 151.8004608154297" stroke-width="2.0" fill="rgb(54, 64, 66)" opacity="1.0637203" stroke="rgb(0, 0, 0)" stroke-opacity="0.0" stroke-linecap="round" stroke-linejoin="round"/>
    <path d="M 122.61498260498047 150.82456970214844 C 115.35282897949219 161.26719665527344 126.00695037841797 168.63250732421875 122.61498260498047 150.82456970214844" stroke-width="2.0" fill="rgb(59, 73, 86)" opacity="1.0624667" stroke="rgb(0, 0, 0)" stroke-opacity="0.0" stroke-linecap="round" stroke-linejoin="round"/>
    <path d="M 153.1087188720703 148.59432983398438 C 140.76473999023438 162.86395263671875 159.45591735839844 172.34303283691406 153.1087188720703 148.59432983398438" stroke-width="2.0" fill="rgb(76, 110, 128)" opacity="1.5855734" stroke="rgb(0, 0, 0)" stroke-opacity="0.0" stroke-linecap="round" stroke-linejoin="round"/>
    <path d="M 342.12188720703125 277.7037048339844 C 332.3858947753906 286.7249755859375 351.533203125 287.57708740234375 342.12188720703125 277.7037048339844" stroke-width="2.0" fill="rgb(75, 87, 98)" opacity="1.0597312" stroke="rgb(0, 0, 0)" stroke-opacity="0.0" stroke-linecap="round" stroke-linejoin="round"/>
    <path d="M 352.8634948730469 277.47216796875 C 347.7347717285156 289.0179443359375 365.86102294921875 283.5336608886719 352.8634948730469 277.47216796875" stroke-width="2.0" fill="rgb(86, 95, 106)" opacity="1.0488319" stroke="rgb(0, 0, 0)" stroke-opacity="0.0" stroke-linecap="round" stroke-linejoin="round"/>
    <path d="M 329.4070739746094 277.4585266113281 C 321.2724609375 288.4889221191406 341.362060546875 283.7206115722656 329.4070739746094 277.4585266113281" stroke-width="2.0" fill="rgb(96, 109, 129)" opacity="1.0568726" stroke="rgb(0, 0, 0)" stroke-opacity="0.0" stroke-linecap="round" stroke-linejoin="round"/>
    <path d="M 108.27447509765625 374.271728515625 C 103.77314758300781 383.3894958496094 122.7587890625 376.3878173828125 108.27447509765625 374.271728515625" stroke-width="2.0" fill="rgb(225, 242, 248)" opacity="0.9669097" stroke="rgb(0, 0, 0)" stroke-opacity="0.0" stroke-linecap="round" stroke-linejoin="round"/>
    <path d="M 112.4887466430664 181.7529296875 C 106.38462829589844 193.00015258789062 122.80804443359375 188.23562622070312 112.4887466430664 181.7529296875" stroke-width="2.0" fill="rgb(48, 50, 73)" opacity="1.063099" stroke="rgb(0, 0, 0)" stroke-opacity="0.0" stroke-linecap="round" stroke-linejoin="round"/>
    <path d="M 480.6377868652344 386.6976623535156 C 475.8291931152344 393.9346923828125 491.7991638183594 391.19305419921875 480.6377868652344 386.6976623535156" stroke-width="2.0" fill="rgb(209, 226, 241)" opacity="1.0040802" stroke="rgb(0, 0, 0)" stroke-opacity="0.0" stroke-linecap="round" stroke-linejoin="round"/>
    <path d="M 121.0647201538086 150.65370178222656 C 117.14989471435547 159.72125244140625 126.9696044921875 162.71078491210938 121.0647201538086 150.65370178222656" stroke-width="2.0" fill="rgb(35, 43, 58)" opacity="0.95177394" stroke="rgb(0, 0, 0)" stroke-opacity="0.0" stroke-linecap="round" stroke-linejoin="round"/>
    <path d="M 477.20587158203125 386.90679931640625 C 463.9637145996094 388.9167785644531 480.4947204589844 395.6185607910156 477.20587158203125 386.90679931640625" stroke-width="2.0" fill="rgb(199, 232, 241)" opacity="1.0554669" stroke="rgb(0, 0, 0)" stroke-opacity="0.0" stroke-linecap="round" stroke-linejoin="round"/>
    <path d="M 282.5728759765625 267.62762451171875 C 277.58331298828125 279.2683410644531 290.43402099609375 274.3851013183594 282.5728759765625 267.62762451171875" stroke-width="2.0" fill="rgb(81, 80, 73)" opacity="1.0977598" stroke="rgb(0, 0, 0)" stroke-opacity="0.0" stroke-linecap="round" stroke-linejoin="round"/>
    <path d="M 101.56655883789062 372.0684814453125 C 95.9996337890625 381.133056640625 112.46471405029297 373.55340576171875 101.56655883789062 372.0684814453125" stroke-width="2.0" fill="rgb(203, 236, 242)" opacity="1.0416096" stroke="rgb(0, 0, 0)" stroke-opacity="0.0" stroke-linecap="round" stroke-linejoin="round"/>
    <path d="M 122.13232421875 104.98274230957031 C 119.00556945800781 121.88567352294922 127.2008056640625 112.2009048461914 122.13232421875 104.98274230957031" stroke-width="2.0" fill="rgb(61, 59, 59)" opacity="1.0989305" stroke="rgb(0, 0, 0)" stroke-opacity="0.0" stroke-linecap="round" stroke-linejoin="round"/>
    <path d="M 271.5880432128906 286.50604248046875 C 270.0509338378906 303.39642333984375 277.7568359375 288.6214599609375 271.5880432128906 286.50604248046875" stroke-width="2.0" fill="rgb(84, 97, 95)" opacity="1.0857371" stroke="rgb(0, 0, 0)" stroke-opacity="0.0" stroke-linecap="round" stroke-linejoin="round"/>
  </g>
</svg>
