<?xml version="1.0" ?>
<svg xmlns="http://www.w3.org/2000/svg" version="1.1" width="512" height="352">
  <defs/>
  <g>
    <path d="M 149.00241088867188 216.20037841796875 C 144.14974975585938 260.98907470703125 150.88475036621094 248.94862365722656 137.5946502685547 254.53439331054688 C 73.17188262939453 262.5600891113281 69.40184020996094 254.67266845703125 40.102684020996094 241.87918090820312 C 46.16189956665039 197.31661987304688 57.10177993774414 181.59359741210938 103.80594635009766 175.83749389648438 C 156.73541259765625 176.89585876464844 148.2766571044922 168.1684112548828 149.00241088867188 216.20037841796875" stroke-width="0.0" fill="rgb(207, 180, 150)" opacity="1.0" stroke="rgb(145, 168, 160)" stroke-opacity="0.9252577" stroke-linecap="round" stroke-linejoin="round"/>
    <path d="M 253.04725646972656 167.05491638183594 C 231.99859619140625 202.8792266845703 222.943359375 223.8183135986328 192.89024353027344 261.6470031738281 C 187.99305725097656 227.37783813476562 182.53704833984375 242.9889373779297 175.1868133544922 193.04122924804688 C 202.42654418945312 155.28961181640625 148.57302856445312 192.89202880859375 181.5023956298828 157.8936767578125 C 211.3981475830078 95.7027359008789 286.39215087890625 174.59788513183594 253.04725646972656 167.05491638183594" stroke-width="0.0" fill="rgb(34, 65, 37)" opacity="0.5930735" stroke="rgb(77, 212, 95)" stroke-opacity="0.06367725" stroke-linecap="round" stroke-linejoin="round"/>
    <path d="M 320.1039123535156 224.45718383789062 C 337.95556640625 256.032470703125 328.4892272949219 239.17176818847656 266.1181335449219 227.59368896484375 C 273.5309143066406 269.1441345214844 245.04779052734375 297.1732482910156 257.76947021484375 219.6132049560547 C 222.87136840820312 62.78958511352539 234.54147338867188 86.07972717285156 262.0472412109375 195.47784423828125 C 281.17620849609375 200.75985717773438 316.21173095703125 179.74542236328125 320.1039123535156 224.45718383789062" stroke-width="0.0" fill="rgb(46, 62, 41)" opacity="0.9272167" stroke="rgb(243, 246, 138)" stroke-opacity="0.6706982" stroke-linecap="round" stroke-linejoin="round"/>
    <path d="M 445.4901428222656 197.45721435546875 C 472.1393737792969 276.2249755859375 459.88323974609375 282.8658142089844 392.0569763183594 286.0277404785156 C 376.4430236816406 284.36322021484375 387.9579772949219 287.3581237792969 321.3430480957031 272.7872314453125 C 391.494140625 193.0269317626953 334.3450622558594 134.35488891601562 435.6509704589844 184.6984100341797 C 468.2455139160156 239.4790802001953 431.0269775390625 217.9966278076172 445.4901428222656 197.45721435546875" stroke-width="0.0" fill="rgb(104, 95, 102)" opacity="0.3916332" stroke="rgb(76, 195, 232)" stroke-opacity="0.18533936" stroke-linecap="round" stroke-linejoin="round"/>
    <path d="M 277.3871765136719 199.10614013671875 C 292.8807678222656 232.80357360839844 312.4876708984375 237.96749877929688 281.71685791015625 229.1974334716797 C 275.8538818359375 230.08950805664062 256.937744140625 235.11985778808594 260.4878845214844 206.52674865722656 C 289.0771484375 193.1048126220703 276.5644836425781 169.5083770751953 307.1849060058594 189.3991241455078 C 340.4173278808594 268.4176025390625 300.7176818847656 238.29225158691406 277.3871765136719 199.10614013671875" stroke-width="0.0" fill="rgb(104, 136, 137)" opacity="0.984743" stroke="rgb(230, 240, 212)" stroke-opacity="0.19447899" stroke-linecap="round" stroke-linejoin="round"/>
    <path d="M 348.0008239746094 43.7480354309082 C 322.35107421875 109.70238494873047 348.3956604003906 26.993972778320312 289.418212890625 110.66136169433594 C 259.9388122558594 130.4118194580078 262.567138671875 110.11572265625 258.6103515625 52.16820526123047 C 316.87054443359375 55.440303802490234 319.3732604980469 24.991870880126953 321.3531494140625 28.193950653076172 C 346.7829895019531 46.669410705566406 314.9843444824219 44.820369720458984 348.0008239746094 43.7480354309082" stroke-width="0.0" fill="rgb(142, 57, 20)" opacity="0.6909098" stroke="rgb(109, 13, 46)" stroke-opacity="0.17681399" stroke-linecap="round" stroke-linejoin="round"/>
    <path d="M 240.66160583496094 140.51840209960938 C 244.93104553222656 159.4962615966797 243.22177124023438 144.06243896484375 232.08070373535156 158.1215057373047 C 230.3155517578125 157.39669799804688 235.60951232910156 143.822509765625 214.18185424804688 135.92393493652344 C 202.73098754882812 132.6785125732422 211.43380737304688 134.59681701660156 246.8551788330078 133.822509765625 C 236.19039916992188 134.4473114013672 239.85560607910156 132.12225341796875 240.66160583496094 140.51840209960938" stroke-width="0.0" fill="rgb(205, 219, 217)" opacity="0.9716422" stroke="rgb(149, 151, 118)" stroke-opacity="0.26673454" stroke-linecap="round" stroke-linejoin="round"/>
  </g>
</svg>
