<?xml version="1.0" ?>
<svg xmlns="http://www.w3.org/2000/svg" version="1.1" width="512" height="352">
  <defs/>
  <g>
    <path d="M 148.03343200683594 212.97865295410156 C 144.26300048828125 259.4399719238281 153.09066772460938 250.7617950439453 135.10130310058594 254.16470336914062 C 72.10115051269531 265.9322204589844 69.7305908203125 258.01214599609375 38.87553024291992 244.36668395996094 C 45.39175033569336 197.0238037109375 56.99807357788086 181.8207244873047 103.92182922363281 175.8221435546875 C 155.9729461669922 177.67588806152344 149.80426025390625 170.12924194335938 148.03343200683594 212.97865295410156" stroke-width="0.0" fill="rgb(219, 195, 161)" opacity="0.9504562" stroke="rgb(145, 168, 160)" stroke-opacity="0.9252577" stroke-linecap="round" stroke-linejoin="round"/>
    <path d="M 244.19869995117188 165.56430053710938 C 234.19850158691406 211.45050048828125 224.9236297607422 214.6950225830078 193.3845672607422 262.93121337890625 C 186.6459197998047 223.90406799316406 183.04367065429688 244.71414184570312 175.01083374023438 192.49374389648438 C 203.1503448486328 158.32962036132812 149.0311279296875 189.7981719970703 182.56942749023438 158.4041748046875 C 199.90293884277344 91.1034164428711 289.458740234375 185.44287109375 244.19869995117188 165.56430053710938" stroke-width="0.0" fill="rgb(24, 58, 27)" opacity="0.5788151" stroke="rgb(77, 212, 95)" stroke-opacity="0.06367725" stroke-linecap="round" stroke-linejoin="round"/>
    <path d="M 319.54559326171875 223.35256958007812 C 338.3965148925781 256.98333740234375 328.767822265625 239.0206756591797 266.66778564453125 227.85801696777344 C 270.9848937988281 279.7212219238281 246.0162353515625 314.4977111816406 257.5088195800781 218.09375 C 223.3333282470703 61.83051300048828 233.25218200683594 86.67928314208984 262.32061767578125 195.64462280273438 C 292.49114990234375 199.470947265625 319.0511474609375 188.886962890625 319.54559326171875 223.35256958007812" stroke-width="0.0" fill="rgb(30, 44, 19)" opacity="0.871699" stroke="rgb(243, 246, 138)" stroke-opacity="0.6706982" stroke-linecap="round" stroke-linejoin="round"/>
    <path d="M 441.5937194824219 195.8825225830078 C 481.6871643066406 274.1473388671875 460.6688537597656 282.8172607421875 384.0502624511719 286.1321105957031 C 382.5162658691406 275.5127258300781 368.8409118652344 288.45257568359375 322.25299072265625 271.95172119140625 C 382.6231689453125 188.6156768798828 349.9962158203125 146.9329376220703 432.1390686035156 182.1162109375 C 485.94781494140625 266.9642639160156 427.5280456542969 243.4904327392578 441.5937194824219 195.8825225830078" stroke-width="0.0" fill="rgb(85, 68, 74)" opacity="0.38677806" stroke="rgb(76, 195, 232)" stroke-opacity="0.18533936" stroke-linecap="round" stroke-linejoin="round"/>
    <path d="M 281.62176513671875 203.10931396484375 C 283.90606689453125 224.4549102783203 319.33746337890625 239.7962188720703 281.68450927734375 229.32408142089844 C 275.0494384765625 230.54356384277344 256.2738342285156 234.00938415527344 260.66351318359375 205.9936065673828 C 289.1859436035156 195.6226348876953 274.4739074707031 168.80368041992188 307.0521545410156 189.14353942871094 C 336.5311584472656 254.2872314453125 302.8475036621094 247.25686645507812 281.62176513671875 203.10931396484375" stroke-width="0.0" fill="rgb(104, 136, 138)" opacity="1.0" stroke="rgb(230, 240, 212)" stroke-opacity="0.19447899" stroke-linecap="round" stroke-linejoin="round"/>
    <path d="M 348.5291442871094 43.81963348388672 C 317.9800720214844 114.84832763671875 353.2421875 21.128938674926758 287.4515075683594 113.088623046875 C 244.9203338623047 121.65150451660156 275.9402160644531 149.6829071044922 261.033935546875 52.810874938964844 C 334.54644775390625 51.845741271972656 301.7585144042969 50.175724029541016 321.0823669433594 28.07438087463379 C 347.507568359375 47.01961135864258 314.36572265625 44.94944763183594 348.5291442871094 43.81963348388672" stroke-width="0.0" fill="rgb(151, 41, 1)" opacity="0.70583385" stroke="rgb(109, 13, 46)" stroke-opacity="0.17681399" stroke-linecap="round" stroke-linejoin="round"/>
    <path d="M 240.44264221191406 139.04623413085938 C 244.6256866455078 160.40533447265625 243.54148864746094 143.61495971679688 232.2195587158203 158.1896514892578 C 230.21328735351562 156.82608032226562 235.50631713867188 143.00570678710938 212.4390869140625 135.33493041992188 C 205.28756713867188 133.27548217773438 205.22666931152344 134.31582641601562 246.89907836914062 133.93898010253906 C 235.687255859375 134.7845458984375 240.24127197265625 132.685302734375 240.44264221191406 139.04623413085938" stroke-width="0.0" fill="rgb(202, 217, 214)" opacity="1.0" stroke="rgb(149, 151, 118)" stroke-opacity="0.26673454" stroke-linecap="round" stroke-linejoin="round"/>
    <path d="M 347.8304443359375 247.13052368164062 C 346.3487243652344 253.99530029296875 342.83624267578125 259.47369384765625 343.5098876953125 258.03961181640625 C 330.2613525390625 255.03126525878906 322.6695556640625 270.85382080078125 335.1665344238281 253.1346893310547 C 334.02337646484375 251.5833282470703 337.1591796875 250.17747497558594 345.7523498535156 232.25677490234375 C 348.294189453125 228.164794921875 350.2099609375 226.78526306152344 347.8304443359375 247.13052368164062" stroke-width="0.0" fill="rgb(232, 255, 255)" opacity="0.5507569" stroke="rgb(10, 22, 47)" stroke-opacity="0.9079891" stroke-linecap="round" stroke-linejoin="round"/>
    <path d="M 115.15589904785156 288.01708984375 C 72.4675064086914 307.528076171875 -18.85918617248535 230.6757049560547 81.1399917602539 261.1177062988281 C 157.07044982910156 244.88192749023438 105.77254486083984 262.5047302246094 103.24067687988281 251.64413452148438 C 93.19157409667969 244.89683532714844 117.66683197021484 257.45147705078125 99.61489868164062 229.4936981201172 C 53.15818405151367 207.80540466308594 147.57894897460938 205.21339416503906 115.15589904785156 288.01708984375" stroke-width="0.0" fill="rgb(193, 163, 132)" opacity="0.768123" stroke="rgb(97, 139, 102)" stroke-opacity="0.5537696" stroke-linecap="round" stroke-linejoin="round"/>
    <path d="M 91.71409606933594 203.33270263671875 C 84.907958984375 203.94435119628906 63.87907791137695 216.4891815185547 54.03270721435547 198.58071899414062 C 67.27713012695312 207.80850219726562 49.17369842529297 176.25010681152344 37.61640548706055 248.41697692871094 C 39.3554801940918 169.4859161376953 109.96306610107422 176.46536254882812 71.27701568603516 185.40675354003906 C 47.066925048828125 192.48858642578125 83.24884033203125 206.04525756835938 91.71409606933594 203.33270263671875" stroke-width="0.0" fill="rgb(150, 101, 90)" opacity="1.0" stroke="rgb(23, 35, 180)" stroke-opacity="0.4552347" stroke-linecap="round" stroke-linejoin="round"/>
    <path d="M 311.3513488769531 43.82810974121094 C 319.1902770996094 69.2305679321289 322.59967041015625 91.372314453125 305.2416076660156 59.208168029785156 C 295.0934753417969 45.21208953857422 300.79083251953125 57.0972900390625 300.8455505371094 33.4822998046875 C 303.7618408203125 57.4554328918457 300.303955078125 33.45979690551758 301.1941833496094 33.248130798339844 C 304.5158386230469 34.44044494628906 308.2163391113281 37.885986328125 311.3513488769531 43.82810974121094" stroke-width="0.0" fill="rgb(199, 96, 62)" opacity="1.0" stroke="rgb(159, 81, 247)" stroke-opacity="0.13474946" stroke-linecap="round" stroke-linejoin="round"/>
    <path d="M 327.0242614746094 130.45361328125 C 334.9853210449219 137.02203369140625 301.539794921875 139.11746215820312 355.5022888183594 168.6911163330078 C 320.1390075683594 154.59451293945312 323.5443115234375 142.538818359375 321.27484130859375 137.13565063476562 C 320.5232849121094 128.0959930419922 323.7113037109375 131.03981018066406 334.15283203125 125.48271179199219 C 360.87579345703125 97.84294128417969 337.9700622558594 127.79346466064453 327.0242614746094 130.45361328125" stroke-width="0.0" fill="rgb(8, 0, 0)" opacity="0.57152563" stroke="rgb(110, 111, 208)" stroke-opacity="0.44544014" stroke-linecap="round" stroke-linejoin="round"/>
    <path d="M 243.41847229003906 94.27156066894531 C 241.2321014404297 107.23918914794922 239.0623016357422 105.630859375 249.43959045410156 147.64630126953125 C 239.09799194335938 150.81588745117188 234.24034118652344 107.11669921875 237.0028076171875 100.81363677978516 C 236.90528869628906 97.88426208496094 242.46939086914062 69.37800598144531 268.1275329589844 64.273681640625 C 276.05743408203125 69.55977630615234 252.78359985351562 64.14134979248047 243.41847229003906 94.27156066894531" stroke-width="0.0" fill="rgb(41, 55, 31)" opacity="0.9895669" stroke="rgb(210, 144, 80)" stroke-opacity="0.9214174" stroke-linecap="round" stroke-linejoin="round"/>
    <path d="M 260.5906677246094 167.33876037597656 C 248.6683349609375 163.1676025390625 247.3793182373047 179.94381713867188 249.4951629638672 180.11477661132812 C 228.17221069335938 187.44363403320312 246.263671875 203.8284454345703 235.7849578857422 157.85476684570312 C 246.7064208984375 149.7357940673828 239.7314453125 159.32974243164062 248.72915649414062 157.50303649902344 C 262.2158508300781 143.68385314941406 262.0628356933594 144.88792419433594 260.5906677246094 167.33876037597656" stroke-width="0.0" fill="rgb(110, 135, 116)" opacity="1.0" stroke="rgb(44, 42, 115)" stroke-opacity="0.12036103" stroke-linecap="round" stroke-linejoin="round"/>
    <path d="M 440.0270080566406 266.6177673339844 C 429.137451171875 279.34747314453125 400.77783203125 273.0371398925781 390.6188049316406 273.883544921875 C 410.76983642578125 273.969970703125 414.4903564453125 276.16644287109375 409.034423828125 274.6014099121094 C 422.2607116699219 272.3722839355469 365.7655029296875 285.38983154296875 376.6285705566406 225.37786865234375 C 358.104248046875 294.4823913574219 444.8514099121094 276.63153076171875 440.0270080566406 266.6177673339844" stroke-width="0.0" fill="rgb(78, 79, 77)" opacity="0.90032077" stroke="rgb(123, 125, 14)" stroke-opacity="0.8611816" stroke-linecap="round" stroke-linejoin="round"/>
    <path d="M 460.09832763671875 250.23617553710938 C 467.96337890625 214.92189025878906 465.5859680175781 246.4547882080078 451.75555419921875 253.35401916503906 C 446.0941467285156 257.3846740722656 454.2923583984375 249.0161590576172 452.68609619140625 241.4833221435547 C 451.8771057128906 251.0264129638672 455.9942321777344 237.19883728027344 453.25390625 221.99606323242188 C 467.9897766113281 221.57113647460938 466.9853820800781 228.2077178955078 460.09832763671875 250.23617553710938" stroke-width="0.0" fill="rgb(202, 217, 214)" opacity="0.99968946" stroke="rgb(219, 56, 101)" stroke-opacity="0.54295164" stroke-linecap="round" stroke-linejoin="round"/>
    <path d="M 94.47457885742188 193.51296997070312 C 108.19432830810547 199.20269775390625 99.3896255493164 195.8323516845703 84.18077850341797 196.16200256347656 C 88.32405853271484 197.02976989746094 68.8317642211914 193.51060485839844 70.03278350830078 185.43829345703125 C 72.62454223632812 183.95387268066406 86.5605697631836 178.87489318847656 81.57502746582031 181.94992065429688 C 81.78376007080078 188.120849609375 88.17222595214844 190.3334197998047 94.47457885742188 193.51296997070312" stroke-width="0.0" fill="rgb(182, 130, 115)" opacity="1.0" stroke="rgb(154, 10, 46)" stroke-opacity="0.8493712" stroke-linecap="round" stroke-linejoin="round"/>
    <path d="M 316.7570495605469 274.9583740234375 C 323.5706481933594 278.6744079589844 309.8607177734375 287.60760498046875 245.08468627929688 280.97613525390625 C 244.96319580078125 277.4744873046875 246.66444396972656 289.7894592285156 241.8601531982422 273.9193115234375 C 249.64419555664062 276.0458984375 249.65476989746094 280.6595458984375 282.4653015136719 274.7740783691406 C 298.27447509765625 265.896728515625 258.7982482910156 263.44915771484375 316.7570495605469 274.9583740234375" stroke-width="0.0" fill="rgb(0, 57, 74)" opacity="0.36362126" stroke="rgb(117, 218, 80)" stroke-opacity="0.9692899" stroke-linecap="round" stroke-linejoin="round"/>
    <path d="M 146.37864685058594 132.11891174316406 C 130.23829650878906 112.10734558105469 103.74089050292969 167.7076873779297 125.68507385253906 128.51339721679688 C 89.39816284179688 150.25794982910156 105.65397644042969 180.2659454345703 96.02164459228516 157.90689086914062 C 92.4476547241211 129.57666015625 116.12688446044922 119.94844055175781 121.7123031616211 121.23499298095703 C 135.1210479736328 119.37663269042969 158.4064483642578 131.2960662841797 146.37864685058594 132.11891174316406" stroke-width="0.0" fill="rgb(118, 21, 2)" opacity="0.630525" stroke="rgb(17, 186, 153)" stroke-opacity="0.9278801" stroke-linecap="round" stroke-linejoin="round"/>
    <path d="M 156.22792053222656 303.2112731933594 C 174.67478942871094 312.489990234375 171.80828857421875 315.09844970703125 94.88801574707031 309.6517028808594 C 4.101416110992432 304.76727294921875 50.9216423034668 235.45919799804688 65.85145568847656 292.0444030761719 C 127.31207275390625 304.49591064453125 103.41717529296875 296.7851867675781 77.65703582763672 296.4790344238281 C 151.35264587402344 299.714599609375 141.52162170410156 299.5712585449219 156.22792053222656 303.2112731933594" stroke-width="0.0" fill="rgb(144, 113, 101)" opacity="1.0" stroke="rgb(201, 231, 112)" stroke-opacity="0.5699111" stroke-linecap="round" stroke-linejoin="round"/>
    <path d="M 350.0601806640625 126.12615203857422 C 349.8222351074219 130.51573181152344 348.22821044921875 134.35467529296875 343.0903625488281 133.96974182128906 C 343.5794372558594 130.749267578125 346.57281494140625 119.70057678222656 347.3404235839844 121.64427947998047 C 341.4453430175781 125.19400787353516 350.7909240722656 134.647216796875 347.2283630371094 127.32633209228516 C 347.4405517578125 117.27880859375 346.6151428222656 124.9361572265625 350.0601806640625 126.12615203857422" stroke-width="0.0" fill="rgb(10, 7, 6)" opacity="0.890382" stroke="rgb(10, 173, 189)" stroke-opacity="0.93524915" stroke-linecap="round" stroke-linejoin="round"/>
    <path d="M 103.13367462158203 196.56787109375 C 93.1073226928711 197.11947631835938 82.36837005615234 197.83087158203125 76.51329803466797 193.2655792236328 C 89.11634826660156 190.75241088867188 85.62460327148438 191.55523681640625 78.8614273071289 192.8092498779297 C 75.46144104003906 193.9299774169922 84.76171112060547 188.3701934814453 84.66377258300781 188.06106567382812 C 87.82968139648438 190.72946166992188 95.17133331298828 194.07325744628906 103.13367462158203 196.56787109375" stroke-width="0.0" fill="rgb(153, 80, 60)" opacity="0.6526129" stroke="rgb(212, 140, 69)" stroke-opacity="0.20359582" stroke-linecap="round" stroke-linejoin="round"/>
    <path d="M 269.1817626953125 276.9593200683594 C 250.1177978515625 273.5901184082031 267.6553955078125 288.220947265625 243.4141845703125 283.54852294921875 C 222.31398010253906 284.1436767578125 195.99032592773438 283.0361022949219 220.1952362060547 279.6456298828125 C 179.41436767578125 273.8897399902344 196.36111450195312 271.9914245605469 237.47682189941406 273.3534851074219 C 273.59033203125 266.86767578125 268.5949401855469 250.85800170898438 269.1817626953125 276.9593200683594" stroke-width="0.0" fill="rgb(182, 182, 182)" opacity="1.0" stroke="rgb(40, 98, 27)" stroke-opacity="0.32844654" stroke-linecap="round" stroke-linejoin="round"/>
    <path d="M 398.7887268066406 108.68040466308594 C 382.7373962402344 183.86558532714844 409.76300048828125 269.9906005859375 335.4440612792969 216.3328857421875 C 380.3779296875 132.4105682373047 290.1444091796875 167.51560974121094 339.9254455566406 121.34386444091797 C 346.04376220703125 144.50042724609375 355.7982177734375 134.45973205566406 345.2408752441406 114.92024230957031 C 395.3949890136719 101.4004898071289 356.0577697753906 92.88131713867188 398.7887268066406 108.68040466308594" stroke-width="0.0" fill="rgb(177, 177, 177)" opacity="0.90163296" stroke="rgb(137, 143, 33)" stroke-opacity="0.0026657581" stroke-linecap="round" stroke-linejoin="round"/>
    <path d="M 120.848388671875 255.36671447753906 C 118.26424407958984 233.6077423095703 129.41770935058594 246.82110595703125 102.71795654296875 249.92660522460938 C 111.51761627197266 258.6513366699219 134.93634033203125 243.76100158691406 106.7814712524414 277.3346862792969 C 132.86798095703125 260.8443298339844 131.0641632080078 214.93746948242188 84.11088562011719 216.98619079589844 C 139.5486602783203 222.16653442382812 113.60733032226562 260.4482727050781 120.848388671875 255.36671447753906" stroke-width="0.0" fill="rgb(120, 81, 76)" opacity="1.0" stroke="rgb(49, 155, 115)" stroke-opacity="0.8921503" stroke-linecap="round" stroke-linejoin="round"/>
    <path d="M 62.82358932495117 280.08184814453125 C 71.73905181884766 278.68475341796875 80.86030578613281 284.871337890625 99.73583984375 279.0577087402344 C 84.25294494628906 283.51800537109375 70.74656677246094 278.7154235839844 63.86653518676758 280.5441589355469 C 85.67237854003906 284.0064697265625 105.67974853515625 283.9259033203125 112.79199981689453 270.4071350097656 C 87.69557189941406 296.46868896484375 39.75774383544922 266.8491516113281 62.82358932495117 280.08184814453125" stroke-width="0.0" fill="rgb(66, 41, 52)" opacity="0.8786155" stroke="rgb(101, 248, 187)" stroke-opacity="0.11472666" stroke-linecap="round" stroke-linejoin="round"/>
    <path d="M 203.9209442138672 135.90896606445312 C 204.34913635253906 142.34854125976562 204.52891540527344 141.28912353515625 191.6378936767578 142.13938903808594 C 189.40565490722656 141.9595489501953 170.17190551757812 156.7340545654297 195.85267639160156 136.7322235107422 C 209.2147674560547 128.2989044189453 200.33200073242188 133.07249450683594 206.36338806152344 133.61376953125 C 203.57803344726562 134.45411682128906 200.9178466796875 131.322265625 203.9209442138672 135.90896606445312" stroke-width="0.0" fill="rgb(219, 232, 232)" opacity="0.85967344" stroke="rgb(33, 49, 94)" stroke-opacity="0.65153176" stroke-linecap="round" stroke-linejoin="round"/>
    <path d="M 295.512939453125 51.95569610595703 C 261.14324951171875 47.14716339111328 271.05328369140625 70.3231201171875 269.3006286621094 64.9604721069336 C 258.4742736816406 61.81082534790039 264.75665283203125 66.58811950683594 248.4169464111328 64.62370300292969 C 252.3939971923828 65.03076171875 253.89683532714844 65.41378021240234 246.32913208007812 64.86604309082031 C 254.26560974121094 66.04583740234375 282.6789245605469 43.59044647216797 295.512939453125 51.95569610595703" stroke-width="0.0" fill="rgb(45, 55, 31)" opacity="0.95935565" stroke="rgb(208, 44, 0)" stroke-opacity="0.05788712" stroke-linecap="round" stroke-linejoin="round"/>
    <path d="M 392.18878173828125 239.65963745117188 C 389.1889953613281 244.45596313476562 379.27294921875 249.57334899902344 375.6097412109375 246.87132263183594 C 372.0978088378906 256.9229736328125 369.00909423828125 223.7169189453125 397.1502990722656 212.78529357910156 C 369.5699157714844 220.04330444335938 374.9402160644531 244.18106079101562 373.16729736328125 238.90672302246094 C 384.96185302734375 243.2156982421875 387.2391052246094 240.36293029785156 392.18878173828125 239.65963745117188" stroke-width="0.0" fill="rgb(82, 81, 80)" opacity="0.82102627" stroke="rgb(56, 32, 192)" stroke-opacity="0.27719164" stroke-linecap="round" stroke-linejoin="round"/>
    <path d="M 327.2130432128906 239.79815673828125 C 324.9699401855469 231.4837646484375 332.83367919921875 248.24937438964844 322.2765808105469 241.1034698486328 C 292.8891906738281 232.7704620361328 295.1612854003906 214.24710083007812 328.3631591796875 244.5601348876953 C 293.51519775390625 209.8279266357422 301.2688903808594 186.8849334716797 320.0567932128906 227.96072387695312 C 323.7626953125 231.77359008789062 324.52191162109375 234.90586853027344 327.2130432128906 239.79815673828125" stroke-width="0.0" fill="rgb(104, 141, 146)" opacity="0.9071649" stroke="rgb(120, 8, 36)" stroke-opacity="0.090497494" stroke-linecap="round" stroke-linejoin="round"/>
    <path d="M 256.1145324707031 285.16796875 C 247.88320922851562 285.8531799316406 232.83987426757812 283.8436584472656 225.42111206054688 284.6474914550781 C 191.12583923339844 283.82049560546875 234.6651153564453 278.23760986328125 199.70127868652344 275.1568908691406 C 194.43563842773438 263.0977478027344 132.87974548339844 278.1904602050781 216.8990020751953 277.4424133300781 C 251.36102294921875 278.5700988769531 265.367919921875 267.8214111328125 256.1145324707031 285.16796875" stroke-width="0.0" fill="rgb(20, 92, 105)" opacity="0.45365858" stroke="rgb(48, 148, 62)" stroke-opacity="0.59337866" stroke-linecap="round" stroke-linejoin="round"/>
    <path d="M 120.88705444335938 236.4895477294922 C 115.97994995117188 230.7667999267578 120.1710205078125 235.40545654296875 106.01554870605469 238.85214233398438 C 95.64894104003906 241.76824951171875 105.55171203613281 239.78744506835938 108.14891815185547 234.5006103515625 C 108.9581298828125 232.84439086914062 112.74651336669922 225.56517028808594 107.54280090332031 221.7672882080078 C 113.12451934814453 225.36138916015625 118.65862274169922 228.8691864013672 120.88705444335938 236.4895477294922" stroke-width="0.0" fill="rgb(78, 1, 9)" opacity="0.48083416" stroke="rgb(37, 116, 252)" stroke-opacity="0.59026015" stroke-linecap="round" stroke-linejoin="round"/>
    <path d="M 465.28570556640625 184.03607177734375 C 487.1478271484375 215.57525634765625 479.41595458984375 254.33834838867188 455.8381652832031 262.6511535644531 C 483.97637939453125 198.54200744628906 442.62054443359375 188.1814727783203 446.5486755371094 172.35165405273438 C 447.16827392578125 170.9293212890625 459.2135314941406 176.0347137451172 451.49102783203125 158.7228240966797 C 455.58660888671875 157.49569702148438 451.04180908203125 166.26388549804688 465.28570556640625 184.03607177734375" stroke-width="0.0" fill="rgb(161, 161, 161)" opacity="1.0" stroke="rgb(98, 167, 85)" stroke-opacity="0.47978967" stroke-linecap="round" stroke-linejoin="round"/>
    <path d="M 104.67218017578125 146.9947967529297 C 177.78253173828125 92.3725814819336 189.9169464111328 178.31536865234375 110.796630859375 195.1055908203125 C 97.18931579589844 155.2388458251953 95.27188110351562 156.5970916748047 98.12063598632812 144.75897216796875 C 97.8076400756836 146.75584411621094 95.77556610107422 141.6578826904297 110.92186737060547 129.5713653564453 C 126.02452850341797 123.43875885009766 107.19517517089844 130.12173461914062 104.67218017578125 146.9947967529297" stroke-width="0.0" fill="rgb(213, 190, 158)" opacity="0.951857" stroke="rgb(177, 19, 150)" stroke-opacity="0.9923777" stroke-linecap="round" stroke-linejoin="round"/>
    <path d="M 147.65455627441406 176.79177856445312 C 162.27613830566406 151.5678253173828 166.73770141601562 146.7791748046875 159.033935546875 167.70034790039062 C 167.2550506591797 158.75753784179688 165.66598510742188 145.43896484375 165.9796600341797 160.27989196777344 C 167.54393005371094 154.40206909179688 157.0694580078125 139.13699340820312 165.32005310058594 147.55410766601562 C 168.11895751953125 143.46633911132812 173.9647979736328 165.31698608398438 147.65455627441406 176.79177856445312" stroke-width="0.0" fill="rgb(114, 89, 82)" opacity="0.8593232" stroke="rgb(111, 153, 11)" stroke-opacity="0.7688756" stroke-linecap="round" stroke-linejoin="round"/>
    <path d="M 391.32623291015625 232.13119506835938 C 404.49713134765625 232.79745483398438 380.0573425292969 233.3334197998047 390.1180114746094 233.58767700195312 C 389.5638732910156 234.50534057617188 376.9785461425781 229.78231811523438 378.6868896484375 228.0660858154297 C 372.1452941894531 234.26611328125 379.9395446777344 221.98385620117188 382.7783203125 220.1915283203125 C 384.5350341796875 229.29150390625 386.21502685546875 228.53457641601562 391.32623291015625 232.13119506835938" stroke-width="0.0" fill="rgb(84, 84, 82)" opacity="0.85187066" stroke="rgb(241, 11, 80)" stroke-opacity="0.14287819" stroke-linecap="round" stroke-linejoin="round"/>
    <path d="M 149.9928436279297 214.72402954101562 C 138.97467041015625 251.70352172851562 151.5737762451172 267.59136962890625 144.13682556152344 237.7235870361328 C 133.974609375 238.7635040283203 128.9127655029297 246.20619201660156 135.288818359375 237.58758544921875 C 137.897705078125 235.0391845703125 141.5935821533203 232.27847290039062 144.47132873535156 230.89503479003906 C 151.19117736816406 206.7099609375 150.6128387451172 165.68673706054688 149.9928436279297 214.72402954101562" stroke-width="0.0" fill="rgb(82, 13, 13)" opacity="0.5848101" stroke="rgb(34, 74, 85)" stroke-opacity="0.098832004" stroke-linecap="round" stroke-linejoin="round"/>
    <path d="M 477.09771728515625 209.6772003173828 C 485.54827880859375 274.1139221191406 430.55108642578125 272.3619079589844 440.64404296875 264.6072082519531 C 439.364990234375 270.35577392578125 444.8443603515625 260.9242858886719 444.31866455078125 259.9739685058594 C 440.87896728515625 231.4815673828125 450.8823547363281 268.4369201660156 435.5374450683594 265.7786560058594 C 446.8524169921875 267.84130859375 479.5197448730469 267.7320556640625 477.09771728515625 209.6772003173828" stroke-width="0.0" fill="rgb(64, 64, 62)" opacity="0.8357068" stroke="rgb(66, 131, 33)" stroke-opacity="0.1357411" stroke-linecap="round" stroke-linejoin="round"/>
    <path d="M 288.8244934082031 84.9251937866211 C 301.3447570800781 94.58053588867188 310.3667907714844 85.40148162841797 298.17242431640625 82.13029479980469 C 276.083251953125 67.401123046875 247.42393493652344 78.28797149658203 262.68121337890625 83.82279968261719 C 281.82421875 83.82918548583984 278.87322998046875 84.39299774169922 285.0567932128906 83.29930114746094 C 268.1658020019531 82.97331237792969 272.1213073730469 82.3869857788086 288.8244934082031 84.9251937866211" stroke-width="0.0" fill="rgb(205, 102, 68)" opacity="1.0" stroke="rgb(154, 210, 104)" stroke-opacity="0.6143485" stroke-linecap="round" stroke-linejoin="round"/>
    <path d="M 65.71107482910156 217.04876708984375 C 59.019020080566406 221.54576110839844 50.43646240234375 221.959228515625 49.99405288696289 221.02308654785156 C 50.7603874206543 220.38134765625 42.837284088134766 221.32994079589844 46.04935073852539 213.77105712890625 C 49.48604965209961 205.58053588867188 46.0863037109375 209.98495483398438 51.61663818359375 213.6033172607422 C 49.725006103515625 213.13504028320312 58.09267044067383 217.7582244873047 65.71107482910156 217.04876708984375" stroke-width="0.0" fill="rgb(163, 98, 85)" opacity="0.82768315" stroke="rgb(3, 126, 77)" stroke-opacity="0.903165" stroke-linecap="round" stroke-linejoin="round"/>
    <path d="M 273.17706298828125 88.1708755493164 C 265.83746337890625 92.25379943847656 249.62765502929688 92.88227844238281 267.0233154296875 95.26492309570312 C 261.91046142578125 94.05011749267578 256.4748840332031 88.8584213256836 264.87518310546875 101.21215057373047 C 264.9231872558594 83.907958984375 265.8795166015625 84.40064239501953 262.2577209472656 84.09065246582031 C 264.4794616699219 85.2337646484375 270.82452392578125 87.58905792236328 273.17706298828125 88.1708755493164" stroke-width="0.0" fill="rgb(193, 218, 216)" opacity="1.0" stroke="rgb(9, 237, 25)" stroke-opacity="0.48737273" stroke-linecap="round" stroke-linejoin="round"/>
    <path d="M 199.5306854248047 148.8135223388672 C 194.80325317382812 154.3915252685547 196.7095947265625 153.28738403320312 184.80105590820312 166.01393127441406 C 202.26007080078125 152.34432983398438 235.7978515625 160.6355438232422 230.29736328125 158.79299926757812 C 182.2235870361328 160.5347442626953 209.0206298828125 160.62400817871094 164.82069396972656 174.03573608398438 C 179.60536193847656 178.57144165039062 198.20016479492188 149.54637145996094 199.5306854248047 148.8135223388672" stroke-width="0.0" fill="rgb(41, 47, 28)" opacity="0.8201275" stroke="rgb(86, 75, 240)" stroke-opacity="0.2454683" stroke-linecap="round" stroke-linejoin="round"/>
    <path d="M 51.80662536621094 277.9342956542969 C 52.381080627441406 296.8748779296875 50.463844299316406 299.12506103515625 40.9019889831543 282.4009094238281 C 41.790767669677734 271.8796081542969 36.99387741088867 278.06109619140625 43.12726974487305 286.0283508300781 C 42.61496353149414 279.31396484375 43.49856185913086 280.8447265625 42.34940719604492 283.2110290527344 C 44.42081069946289 258.9829406738281 58.68309783935547 275.3685607910156 51.80662536621094 277.9342956542969" stroke-width="0.0" fill="rgb(250, 233, 190)" opacity="0.66092473" stroke="rgb(102, 186, 244)" stroke-opacity="0.8147794" stroke-linecap="round" stroke-linejoin="round"/>
    <path d="M 461.3858642578125 262.4696044921875 C 456.0719299316406 271.74285888671875 454.4963684082031 273.8708190917969 437.28521728515625 281.2048645019531 C 443.93463134765625 279.6676940917969 446.5878601074219 274.924560546875 434.7810363769531 272.635986328125 C 442.75537109375 266.59722900390625 438.17669677734375 268.3189392089844 440.14788818359375 268.5128173828125 C 440.05767822265625 266.6771240234375 450.0693664550781 270.3108825683594 461.3858642578125 262.4696044921875" stroke-width="0.0" fill="rgb(235, 255, 253)" opacity="0.5714018" stroke="rgb(157, 18, 90)" stroke-opacity="0.8622161" stroke-linecap="round" stroke-linejoin="round"/>
    <path d="M 104.96208190917969 299.4424743652344 C 102.2882308959961 300.82861328125 100.54150390625 309.23809814453125 101.92694854736328 307.7501220703125 C 80.65241241455078 310.1022644042969 67.95304107666016 294.5337829589844 71.20500946044922 295.074951171875 C 92.90324401855469 300.9533386230469 96.67224884033203 296.2798767089844 88.94840240478516 299.00299072265625 C 85.66423797607422 299.9439392089844 89.47828674316406 298.1783447265625 104.96208190917969 299.4424743652344" stroke-width="0.0" fill="rgb(210, 190, 159)" opacity="0.9374617" stroke="rgb(62, 53, 87)" stroke-opacity="0.10356268" stroke-linecap="round" stroke-linejoin="round"/>
    <path d="M 453.964111328125 148.8739776611328 C 446.5196228027344 167.99533081054688 490.36639404296875 214.7634735107422 455.963623046875 176.84042358398438 C 444.7165222167969 186.19357299804688 439.8193664550781 164.11605834960938 440.9763488769531 151.31602478027344 C 441.243896484375 150.18954467773438 440.29351806640625 151.5752716064453 443.3177185058594 142.02590942382812 C 444.8129577636719 132.36569213867188 462.68963623046875 134.4662322998047 453.964111328125 148.8739776611328" stroke-width="0.0" fill="rgb(7, 0, 0)" opacity="0.19845296" stroke="rgb(189, 244, 179)" stroke-opacity="0.029199498" stroke-linecap="round" stroke-linejoin="round"/>
    <path d="M 145.66519165039062 249.0599822998047 C 159.71835327148438 279.7524108886719 145.07925415039062 253.96482849121094 144.8902587890625 247.6340789794922 C 138.87379455566406 246.16098022460938 129.2168731689453 252.39671325683594 138.24899291992188 245.57958984375 C 137.8095245361328 245.8629150390625 144.21754455566406 242.3656463623047 143.7707977294922 244.3031005859375 C 146.9410858154297 208.6171112060547 147.22145080566406 212.10025024414062 145.66519165039062 249.0599822998047" stroke-width="0.0" fill="rgb(53, 4, 18)" opacity="0.490372" stroke="rgb(214, 123, 5)" stroke-opacity="0.08567878" stroke-linecap="round" stroke-linejoin="round"/>
    <path d="M 393.5736999511719 215.03480529785156 C 377.5437927246094 223.3814697265625 390.7643737792969 214.1460723876953 396.99951171875 212.24888610839844 C 413.401123046875 211.5056915283203 411.69586181640625 213.10263061523438 406.4258117675781 213.23521423339844 C 406.68048095703125 212.42152404785156 410.50262451171875 214.94451904296875 414.1623840332031 213.62889099121094 C 393.5226745605469 211.77432250976562 393.11328125 217.00445556640625 393.5736999511719 215.03480529785156" stroke-width="0.0" fill="rgb(86, 87, 86)" opacity="0.79435396" stroke="rgb(107, 216, 152)" stroke-opacity="0.5667627" stroke-linecap="round" stroke-linejoin="round"/>
    <path d="M 185.87606811523438 152.72735595703125 C 146.5035400390625 206.78868103027344 129.26194763183594 180.16473388671875 172.51722717285156 171.43280029296875 C 184.5400848388672 162.2244873046875 165.296630859375 160.03404235839844 172.4813690185547 156.83238220214844 C 173.10633850097656 157.56817626953125 173.85702514648438 155.33226013183594 170.02584838867188 158.56100463867188 C 179.50634765625 151.57098388671875 180.2828369140625 155.47268676757812 185.87606811523438 152.72735595703125" stroke-width="0.0" fill="rgb(55, 24, 0)" opacity="0.4919652" stroke="rgb(198, 170, 205)" stroke-opacity="0.82492363" stroke-linecap="round" stroke-linejoin="round"/>
    <path d="M 267.5104675292969 57.773681640625 C 276.1145935058594 54.275516510009766 269.6109924316406 54.47098159790039 280.1255187988281 56.82001876831055 C 268.6269836425781 53.737823486328125 259.25555419921875 51.960384368896484 257.1587219238281 47.84612274169922 C 262.79217529296875 62.394710540771484 278.5174255371094 56.07173156738281 268.74554443359375 54.0142707824707 C 261.0601501464844 53.7081413269043 264.9454345703125 54.69901657104492 267.5104675292969 57.773681640625" stroke-width="0.0" fill="rgb(27, 63, 40)" opacity="0.85333276" stroke="rgb(236, 236, 156)" stroke-opacity="0.8634385" stroke-linecap="round" stroke-linejoin="round"/>
    <path d="M 72.50190734863281 285.16937255859375 C 48.806663513183594 288.25335693359375 53.41953659057617 270.5021667480469 59.69703674316406 279.1056823730469 C 47.332908630371094 279.78564453125 51.775146484375 299.125 56.32744598388672 295.5568542480469 C 48.25179672241211 278.6070251464844 61.62931442260742 291.7223205566406 53.303829193115234 282.076416015625 C 50.15519332885742 291.2991027832031 64.86453247070312 281.2618408203125 72.50190734863281 285.16937255859375" stroke-width="0.0" fill="rgb(186, 178, 159)" opacity="1.0" stroke="rgb(180, 16, 138)" stroke-opacity="0.91440475" stroke-linecap="round" stroke-linejoin="round"/>
    <path d="M 452.8183898925781 238.80899047851562 C 454.5367736816406 188.7478790283203 412.14599609375 175.7039794921875 428.48333740234375 181.46185302734375 C 464.59527587890625 207.6666259765625 450.83001708984375 256.1492919921875 453.7019348144531 236.0970458984375 C 451.6962890625 245.49000549316406 451.78167724609375 252.80738830566406 453.5030822753906 240.02947998046875 C 454.22265625 239.35035705566406 454.7936096191406 238.65667724609375 452.8183898925781 238.80899047851562" stroke-width="0.0" fill="rgb(47, 44, 44)" opacity="0.72850025" stroke="rgb(104, 211, 117)" stroke-opacity="0.73319536" stroke-linecap="round" stroke-linejoin="round"/>
    <path d="M 288.4740905761719 69.33683776855469 C 314.9833984375 84.43631744384766 321.27032470703125 93.47906494140625 285.4067077636719 68.30673217773438 C 270.04888916015625 62.80849838256836 272.4753112792969 57.01957321166992 267.2979431152344 57.745330810546875 C 250.21153259277344 45.591087341308594 262.73699951171875 54.834014892578125 277.10931396484375 52.70941925048828 C 278.6083679199219 52.42848587036133 278.946044921875 63.28190231323242 288.4740905761719 69.33683776855469" stroke-width="0.0" fill="rgb(36, 54, 31)" opacity="0.96303517" stroke="rgb(75, 157, 48)" stroke-opacity="0.87144226" stroke-linecap="round" stroke-linejoin="round"/>
    <path d="M 395.2147216796875 140.8538818359375 C 381.83099365234375 119.4058609008789 396.3816833496094 147.0037841796875 391.848388671875 130.9725799560547 C 392.6451110839844 134.61146545410156 385.77947998046875 130.36485290527344 377.99755859375 134.74021911621094 C 402.6264953613281 125.66497802734375 398.6816101074219 97.16050720214844 398.92340087890625 115.46640014648438 C 388.8419494628906 138.20863342285156 388.4850158691406 115.92906188964844 395.2147216796875 140.8538818359375" stroke-width="0.0" fill="rgb(80, 77, 78)" opacity="0.8606421" stroke="rgb(136, 2, 31)" stroke-opacity="0.8804207" stroke-linecap="round" stroke-linejoin="round"/>
    <path d="M 461.4684753417969 280.6195373535156 C 465.978515625 298.82879638671875 393.9423828125 295.133544921875 403.41064453125 284.30853271484375 C 450.13372802734375 276.72564697265625 448.8953552246094 273.5088195800781 446.0948181152344 275.42437744140625 C 432.325927734375 279.75177001953125 434.57861328125 277.96917724609375 429.8227844238281 275.223388671875 C 435.1413269042969 269.31427001953125 459.13885498046875 268.212890625 461.4684753417969 280.6195373535156" stroke-width="0.0" fill="rgb(38, 89, 81)" opacity="0.10263654" stroke="rgb(122, 214, 148)" stroke-opacity="0.2179993" stroke-linecap="round" stroke-linejoin="round"/>
    <path d="M 317.7711181640625 235.49566650390625 C 315.6492614746094 221.58299255371094 314.6549072265625 237.32968139648438 323.19091796875 233.1719970703125 C 316.5644226074219 236.9535675048828 313.13128662109375 225.32351684570312 293.6622314453125 207.60890197753906 C 258.8000793457031 190.27999877929688 296.0940246582031 207.7258758544922 301.6046142578125 218.2913818359375 C 312.2829284667969 230.13790893554688 316.29974365234375 233.9152374267578 317.7711181640625 235.49566650390625" stroke-width="0.0" fill="rgb(43, 56, 34)" opacity="0.9993039" stroke="rgb(213, 244, 192)" stroke-opacity="0.517511" stroke-linecap="round" stroke-linejoin="round"/>
    <path d="M 441.2730712890625 278.11083984375 C 415.3603210449219 284.5789489746094 401.8445129394531 282.0670166015625 393.4258728027344 284.2799987792969 C 402.38311767578125 282.67596435546875 411.2725830078125 280.31610107421875 419.1595764160156 283.9846496582031 C 405.0771179199219 277.50726318359375 392.5480651855469 289.82928466796875 376.6298828125 280.24609375 C 366.9259033203125 291.78582763671875 452.5183410644531 281.4822692871094 441.2730712890625 278.11083984375" stroke-width="0.0" fill="rgb(40, 34, 34)" opacity="0.5620577" stroke="rgb(150, 153, 43)" stroke-opacity="0.5845976" stroke-linecap="round" stroke-linejoin="round"/>
    <path d="M 385.0865478515625 116.07903289794922 C 368.889404296875 120.3229751586914 384.9989929199219 115.60359954833984 356.1047668457031 115.6865463256836 C 351.0830078125 115.02491760253906 377.27032470703125 111.2523422241211 353.7337646484375 112.05549621582031 C 334.67816162109375 120.41307830810547 356.4463806152344 103.35347747802734 375.7864990234375 112.72977447509766 C 373.65411376953125 108.00945281982422 375.85986328125 117.93136596679688 385.0865478515625 116.07903289794922" stroke-width="0.0" fill="rgb(106, 105, 105)" opacity="0.959524" stroke="rgb(202, 10, 5)" stroke-opacity="0.09760793" stroke-linecap="round" stroke-linejoin="round"/>
    <path d="M 69.6941146850586 292.9923095703125 C 48.94709014892578 281.992431640625 48.26266098022461 287.9107360839844 80.83663940429688 298.7974548339844 C 90.72105407714844 311.5199279785156 42.151023864746094 295.9725036621094 47.45319747924805 285.7620849609375 C 66.11601257324219 288.71881103515625 58.031063079833984 288.890869140625 54.25834655761719 283.4033508300781 C 72.42652893066406 289.67718505859375 80.40152740478516 282.7400817871094 69.6941146850586 292.9923095703125" stroke-width="0.0" fill="rgb(182, 197, 192)" opacity="1.0" stroke="rgb(84, 86, 60)" stroke-opacity="0.06604163" stroke-linecap="round" stroke-linejoin="round"/>
    <path d="M 390.8743896484375 173.30001831054688 C 388.3951110839844 126.110107421875 396.6723327636719 142.05618286132812 392.481689453125 144.51385498046875 C 393.192626953125 135.27426147460938 387.08935546875 137.96437072753906 383.7601623535156 138.83367919921875 C 396.1698913574219 140.70057678222656 394.9532775878906 144.24514770507812 389.8351135253906 136.92332458496094 C 396.35986328125 136.0801239013672 396.68798828125 133.24441528320312 390.8743896484375 173.30001831054688" stroke-width="0.0" fill="rgb(85, 83, 82)" opacity="0.665184" stroke="rgb(227, 52, 95)" stroke-opacity="0.58814985" stroke-linecap="round" stroke-linejoin="round"/>
    <path d="M 88.45919799804688 301.6348876953125 C 102.80891418457031 302.353515625 88.69667053222656 308.9995422363281 81.91586303710938 306.14581298828125 C 56.18988800048828 302.86419677734375 36.566349029541016 288.7404479980469 51.360477447509766 283.9835510253906 C 70.71855163574219 304.0556335449219 108.3575668334961 294.2236633300781 101.01115417480469 305.3168029785156 C 80.07038116455078 298.8891296386719 83.40612030029297 298.919921875 88.45919799804688 301.6348876953125" stroke-width="0.0" fill="rgb(223, 196, 159)" opacity="0.8207576" stroke="rgb(253, 90, 84)" stroke-opacity="0.21375257" stroke-linecap="round" stroke-linejoin="round"/>
    <path d="M 444.7276306152344 163.4129638671875 C 440.3707275390625 155.96070861816406 457.1142272949219 167.13128662109375 452.6883544921875 153.16693115234375 C 451.4415283203125 157.18392944335938 424.78826904296875 144.9767608642578 464.1848449707031 202.6337432861328 C 433.39178466796875 169.52613830566406 435.071533203125 137.64822387695312 457.0055236816406 127.35951232910156 C 434.70947265625 140.9439239501953 444.9170837402344 164.89810180664062 444.7276306152344 163.4129638671875" stroke-width="0.0" fill="rgb(42, 36, 38)" opacity="0.5565346" stroke="rgb(172, 135, 230)" stroke-opacity="0.10466042" stroke-linecap="round" stroke-linejoin="round"/>
    <path d="M 319.8458557128906 75.93573760986328 C 321.187255859375 58.37999725341797 305.29547119140625 44.95467758178711 319.2774658203125 31.745426177978516 C 317.6970520019531 33.28704071044922 311.0837707519531 43.636375427246094 316.0138244628906 56.0211181640625 C 313.4870910644531 44.481407165527344 316.3302307128906 46.07144546508789 312.9750061035156 46.44773864746094 C 304.17803955078125 32.62886428833008 310.93505859375 38.018123626708984 319.8458557128906 75.93573760986328" stroke-width="0.0" fill="rgb(4, 48, 28)" opacity="0.74138546" stroke="rgb(196, 198, 66)" stroke-opacity="0.09255308" stroke-linecap="round" stroke-linejoin="round"/>
    <path d="M 295.45733642578125 98.46096801757812 C 258.4985656738281 95.75228118896484 269.3314208984375 106.79332733154297 258.57843017578125 94.10206604003906 C 256.98834228515625 92.91189575195312 264.73468017578125 91.34661865234375 267.92840576171875 91.89301300048828 C 259.54058837890625 96.072998046875 268.7090759277344 90.62071228027344 263.4725341796875 93.78741455078125 C 264.00469970703125 95.8094711303711 283.8803405761719 77.09123229980469 295.45733642578125 98.46096801757812" stroke-width="0.0" fill="rgb(203, 99, 66)" opacity="1.0" stroke="rgb(8, 173, 80)" stroke-opacity="0.62809455" stroke-linecap="round" stroke-linejoin="round"/>
  </g>
</svg>
