<?xml version="1.0" ?>
<svg xmlns="http://www.w3.org/2000/svg" version="1.1" width="512" height="352">
  <defs/>
  <g>
    <path d="M 149.02162170410156 215.43186950683594 C 144.1942138671875 261.1619567871094 151.14801025390625 249.46116638183594 135.38037109375 253.87515258789062 C 73.39370727539062 266.8142395019531 69.85269165039062 257.4640197753906 38.527099609375 244.37667846679688 C 46.250083923339844 197.3424072265625 57.21010208129883 181.80076599121094 104.02835845947266 175.7816619873047 C 157.66017150878906 177.04742431640625 148.46633911132812 168.0592803955078 149.02162170410156 215.43186950683594" stroke-width="0.0" fill="rgb(215, 190, 158)" opacity="0.9616752" stroke="rgb(145, 168, 160)" stroke-opacity="0.9252577" stroke-linecap="round" stroke-linejoin="round"/>
    <path d="M 244.05514526367188 166.5576934814453 C 234.5181884765625 209.76942443847656 224.72164916992188 215.82090759277344 193.286865234375 262.69915771484375 C 187.0150146484375 224.8625946044922 183.09095764160156 244.50051879882812 175.09193420410156 193.0533905029297 C 202.55345153808594 156.15145874023438 149.4271240234375 191.63133239746094 180.5185546875 159.3289337158203 C 203.61996459960938 90.64705657958984 286.9916076660156 184.27857971191406 244.05514526367188 166.5576934814453" stroke-width="0.0" fill="rgb(25, 57, 27)" opacity="0.59265447" stroke="rgb(77, 212, 95)" stroke-opacity="0.06367725" stroke-linecap="round" stroke-linejoin="round"/>
    <path d="M 319.50775146484375 223.32888793945312 C 338.3294677734375 257.05084228515625 328.8392333984375 238.9410400390625 266.3658447265625 227.7754364013672 C 272.09002685546875 275.92962646484375 245.51808166503906 308.8787536621094 257.6534729003906 218.88009643554688 C 223.2161865234375 61.48176956176758 233.5361785888672 86.09395599365234 262.2879333496094 195.6334228515625 C 290.44921875 199.50436401367188 319.1988525390625 188.23069763183594 319.50775146484375 223.32888793945312" stroke-width="0.0" fill="rgb(30, 44, 20)" opacity="0.8742476" stroke="rgb(243, 246, 138)" stroke-opacity="0.6706982" stroke-linecap="round" stroke-linejoin="round"/>
    <path d="M 442.7805480957031 194.58831787109375 C 480.4517822265625 272.42645263671875 458.1762390136719 285.71234130859375 383.8675537109375 286.08355712890625 C 386.53179931640625 283.856201171875 377.9010009765625 286.4552307128906 321.78204345703125 272.78857421875 C 385.3204040527344 185.5321807861328 349.86328125 146.18002319335938 435.86175537109375 183.90061950683594 C 478.76806640625 269.243896484375 425.37939453125 240.86434936523438 442.7805480957031 194.58831787109375" stroke-width="0.0" fill="rgb(76, 63, 69)" opacity="0.38966835" stroke="rgb(76, 195, 232)" stroke-opacity="0.18533936" stroke-linecap="round" stroke-linejoin="round"/>
    <path d="M 280.7310791015625 200.74049377441406 C 285.4477233886719 227.5725860595703 318.5320739746094 238.97525024414062 281.6527404785156 229.3687286376953 C 275.0570068359375 230.38998413085938 256.28509521484375 234.080078125 260.55267333984375 205.94879150390625 C 289.25604248046875 195.493408203125 274.6451110839844 168.77589416503906 307.09014892578125 189.19949340820312 C 337.67669677734375 256.7978210449219 299.4844970703125 245.16152954101562 280.7310791015625 200.74049377441406" stroke-width="0.0" fill="rgb(102, 135, 136)" opacity="0.9797759" stroke="rgb(230, 240, 212)" stroke-opacity="0.19447899" stroke-linecap="round" stroke-linejoin="round"/>
    <path d="M 348.5333251953125 43.8467903137207 C 317.7774963378906 115.14570617675781 353.8665771484375 20.781631469726562 287.0531005859375 113.25812530517578 C 248.18878173828125 119.74213409423828 274.03143310546875 151.38003540039062 259.988525390625 51.798343658447266 C 333.5480651855469 55.87999725341797 302.4210205078125 45.35752487182617 321.4454345703125 28.23110008239746 C 347.2389221191406 47.3513298034668 314.6274108886719 44.72846984863281 348.5333251953125 43.8467903137207" stroke-width="0.0" fill="rgb(138, 40, 1)" opacity="0.687398" stroke="rgb(109, 13, 46)" stroke-opacity="0.17681399" stroke-linecap="round" stroke-linejoin="round"/>
    <path d="M 240.42425537109375 139.27560424804688 C 244.63729858398438 160.28509521484375 243.60415649414062 143.56784057617188 232.17169189453125 158.16592407226562 C 230.2085418701172 156.95892333984375 235.54510498046875 143.09739685058594 212.6193389892578 135.38258361816406 C 205.0162353515625 133.19821166992188 205.69374084472656 134.39764404296875 246.77133178710938 133.89297485351562 C 235.9429168701172 134.67483520507812 240.22903442382812 132.57066345214844 240.42425537109375 139.27560424804688" stroke-width="0.0" fill="rgb(202, 217, 214)" opacity="1.0" stroke="rgb(149, 151, 118)" stroke-opacity="0.26673454" stroke-linecap="round" stroke-linejoin="round"/>
    <path d="M 347.8304443359375 247.0100555419922 C 346.44610595703125 253.6070098876953 343.2530212402344 259.8846435546875 343.18511962890625 258.0782165527344 C 331.23052978515625 255.13201904296875 323.44927978515625 270.05377197265625 335.02215576171875 253.1564178466797 C 333.84979248046875 252.01084899902344 337.10107421875 250.14427185058594 346.13873291015625 232.6127471923828 C 348.1233215332031 227.3647918701172 350.2637634277344 225.89891052246094 347.8304443359375 247.0100555419922" stroke-width="0.0" fill="rgb(234, 255, 255)" opacity="0.5696859" stroke="rgb(10, 22, 47)" stroke-opacity="0.9079891" stroke-linecap="round" stroke-linejoin="round"/>
    <path d="M 113.95316314697266 284.7087707519531 C 72.33180236816406 317.4091796875 -14.914166450500488 228.661376953125 80.59049224853516 262.8284606933594 C 152.3999786376953 242.22496032714844 113.47852325439453 263.81365966796875 104.68352508544922 251.33953857421875 C 87.56672668457031 248.3654327392578 120.82757568359375 250.8812713623047 107.00912475585938 239.55990600585938 C 55.26227569580078 197.3668975830078 149.05630493164062 213.1287384033203 113.95316314697266 284.7087707519531" stroke-width="0.0" fill="rgb(181, 133, 94)" opacity="0.48884177" stroke="rgb(97, 139, 102)" stroke-opacity="0.5537696" stroke-linecap="round" stroke-linejoin="round"/>
    <path d="M 90.40906524658203 203.2416229248047 C 88.09294128417969 203.47267150878906 62.226463317871094 216.2772979736328 55.101558685302734 199.01364135742188 C 63.69037628173828 206.43899536132812 51.294593811035156 178.3984832763672 37.5784797668457 245.615478515625 C 41.306854248046875 169.2282257080078 109.81604766845703 176.58871459960938 70.8106689453125 185.5835723876953 C 47.239158630371094 192.75845336914062 83.8432388305664 205.98239135742188 90.40906524658203 203.2416229248047" stroke-width="0.0" fill="rgb(151, 102, 91)" opacity="1.0" stroke="rgb(23, 35, 180)" stroke-opacity="0.4552347" stroke-linecap="round" stroke-linejoin="round"/>
    <path d="M 311.32391357421875 43.92351150512695 C 317.9347229003906 70.39205169677734 324.737060546875 88.76480102539062 304.8634948730469 62.1907844543457 C 295.31512451171875 44.869873046875 300.7679138183594 56.412925720214844 300.87664794921875 33.537452697753906 C 303.18353271484375 53.26136016845703 300.0354309082031 32.26182174682617 301.17340087890625 33.33966064453125 C 304.31365966796875 34.521507263183594 308.39617919921875 37.930904388427734 311.32391357421875 43.92351150512695" stroke-width="0.0" fill="rgb(195, 95, 62)" opacity="1.0" stroke="rgb(159, 81, 247)" stroke-opacity="0.13474946" stroke-linecap="round" stroke-linejoin="round"/>
    <path d="M 327.0069580078125 130.7693328857422 C 335.4087219238281 137.55555725097656 302.4919738769531 138.96615600585938 354.2178955078125 168.1745147705078 C 319.0295104980469 153.90721130371094 323.5361633300781 141.4453125 321.0993347167969 136.3896484375 C 321.1488037109375 128.22364807128906 323.3138427734375 131.037353515625 333.9810485839844 125.61026763916016 C 361.8348388671875 97.23177337646484 340.06585693359375 125.71685791015625 327.0069580078125 130.7693328857422" stroke-width="0.0" fill="rgb(14, 5, 8)" opacity="0.5760407" stroke="rgb(110, 111, 208)" stroke-opacity="0.44544014" stroke-linecap="round" stroke-linejoin="round"/>
    <path d="M 243.5208740234375 93.8367919921875 C 242.35333251953125 102.6224365234375 237.9056854248047 102.8961410522461 248.3249053955078 142.72796630859375 C 237.88168334960938 147.01263427734375 234.5363006591797 105.9406967163086 237.2371368408203 99.3609390258789 C 237.16554260253906 97.80570220947266 242.3748016357422 69.29142761230469 268.5687255859375 64.17807006835938 C 275.1712951660156 69.81228637695312 253.11131286621094 64.40595245361328 243.5208740234375 93.8367919921875" stroke-width="0.0" fill="rgb(41, 55, 31)" opacity="0.99038386" stroke="rgb(210, 144, 80)" stroke-opacity="0.9214174" stroke-linecap="round" stroke-linejoin="round"/>
    <path d="M 260.728759765625 167.12855529785156 C 248.5494842529297 163.75450134277344 247.49876403808594 179.5319061279297 249.2930908203125 179.97320556640625 C 227.7651824951172 188.40866088867188 246.95159912109375 201.84373474121094 234.9896240234375 158.78855895996094 C 240.22348022460938 155.27969360351562 235.8614044189453 153.96536254882812 248.7727813720703 157.64291381835938 C 261.9584045410156 143.29466247558594 261.8602600097656 145.42642211914062 260.728759765625 167.12855529785156" stroke-width="0.0" fill="rgb(110, 135, 115)" opacity="1.0" stroke="rgb(44, 42, 115)" stroke-opacity="0.12036103" stroke-linecap="round" stroke-linejoin="round"/>
    <path d="M 440.9741516113281 265.62506103515625 C 430.972900390625 279.4419250488281 401.7081298828125 273.4822082519531 390.5522155761719 273.48846435546875 C 410.8524475097656 274.898193359375 415.52105712890625 274.71148681640625 410.73150634765625 274.54608154296875 C 422.76580810546875 272.96221923828125 365.6324462890625 285.16693115234375 376.4357604980469 225.73379516601562 C 358.2675476074219 290.9482116699219 440.0609436035156 279.5088195800781 440.9741516113281 265.62506103515625" stroke-width="0.0" fill="rgb(79, 80, 78)" opacity="0.9222753" stroke="rgb(123, 125, 14)" stroke-opacity="0.8611816" stroke-linecap="round" stroke-linejoin="round"/>
    <path d="M 460.57086181640625 247.50291442871094 C 467.3294677734375 217.29641723632812 467.4650573730469 245.2563018798828 451.0614013671875 253.4086151123047 C 446.1308288574219 257.0983581542969 455.4054260253906 247.4578399658203 452.9120788574219 238.80787658691406 C 454.45123291015625 247.86854553222656 453.2412414550781 243.8804931640625 453.96673583984375 222.19369506835938 C 467.5205383300781 219.89071655273438 468.9064025878906 230.45033264160156 460.57086181640625 247.50291442871094" stroke-width="0.0" fill="rgb(197, 212, 209)" opacity="1.0" stroke="rgb(219, 56, 101)" stroke-opacity="0.54295164" stroke-linecap="round" stroke-linejoin="round"/>
    <path d="M 91.79601287841797 193.30104064941406 C 101.64012145996094 196.37657165527344 95.37631225585938 196.56964111328125 84.20083618164062 196.28086853027344 C 87.92969512939453 196.13568115234375 69.534423828125 194.1466522216797 69.83038330078125 185.37074279785156 C 72.43960571289062 183.9510498046875 86.18154907226562 178.92384338378906 81.6919174194336 181.8113250732422 C 80.6104736328125 186.53761291503906 87.55565643310547 191.3828125 91.79601287841797 193.30104064941406" stroke-width="0.0" fill="rgb(182, 130, 115)" opacity="1.0" stroke="rgb(154, 10, 46)" stroke-opacity="0.8493712" stroke-linecap="round" stroke-linejoin="round"/>
    <path d="M 316.66156005859375 275.020263671875 C 324.1790771484375 278.8663635253906 308.49029541015625 287.5911560058594 245.75625610351562 280.9691467285156 C 244.9636993408203 277.4744873046875 246.66444396972656 289.7894592285156 241.85601806640625 273.3138427734375 C 249.6112823486328 271.5140380859375 254.53330993652344 279.55792236328125 282.0324401855469 275.2113037109375 C 298.60211181640625 265.8554382324219 260.0887451171875 263.8511962890625 316.66156005859375 275.020263671875" stroke-width="0.0" fill="rgb(9, 67, 85)" opacity="0.3761576" stroke="rgb(117, 218, 80)" stroke-opacity="0.9692899" stroke-linecap="round" stroke-linejoin="round"/>
    <path d="M 145.76754760742188 132.22137451171875 C 130.53890991210938 112.40643310546875 105.69798278808594 167.24916076660156 125.10172271728516 128.7540283203125 C 86.2403793334961 157.33340454101562 101.8330078125 172.66448974609375 95.46402740478516 155.47459411621094 C 94.81632232666016 125.7161865234375 118.87077331542969 119.35442352294922 123.92955780029297 121.22057342529297 C 129.95574951171875 119.07933044433594 161.2618408203125 130.60781860351562 145.76754760742188 132.22137451171875" stroke-width="0.0" fill="rgb(132, 31, 2)" opacity="0.52513903" stroke="rgb(17, 186, 153)" stroke-opacity="0.9278801" stroke-linecap="round" stroke-linejoin="round"/>
    <path d="M 154.6082305908203 302.8243713378906 C 175.3249969482422 312.50775146484375 174.36688232421875 315.14599609375 97.04167938232422 309.5743103027344 C 10.514159202575684 307.0462341308594 43.8974494934082 240.2678985595703 64.17303466796875 291.2543640136719 C 134.14688110351562 307.45489501953125 113.75566864013672 297.9985046386719 80.36236572265625 296.6954345703125 C 155.26739501953125 299.49169921875 145.67367553710938 301.1872863769531 154.6082305908203 302.8243713378906" stroke-width="0.0" fill="rgb(173, 146, 126)" opacity="1.0" stroke="rgb(201, 231, 112)" stroke-opacity="0.5699111" stroke-linecap="round" stroke-linejoin="round"/>
    <path d="M 349.72998046875 126.24382019042969 C 350.3875427246094 130.1326904296875 347.27813720703125 135.09031677246094 344.00506591796875 133.21461486816406 C 343.29388427734375 130.03602600097656 346.7171936035156 121.34276580810547 347.6903991699219 122.80064392089844 C 341.7419128417969 124.89054870605469 351.03546142578125 134.77818298339844 347.18017578125 127.10205078125 C 347.4756164550781 117.8237075805664 346.9593505859375 123.8114013671875 349.72998046875 126.24382019042969" stroke-width="0.0" fill="rgb(23, 21, 20)" opacity="0.9474209" stroke="rgb(10, 173, 189)" stroke-opacity="0.93524915" stroke-linecap="round" stroke-linejoin="round"/>
    <path d="M 102.82508850097656 196.8089599609375 C 93.64592742919922 196.9472198486328 82.13442993164062 197.85398864746094 76.62128448486328 193.2674560546875 C 89.25556945800781 190.98439025878906 85.78201293945312 191.51748657226562 79.51221466064453 192.61244201660156 C 75.3243408203125 193.82400512695312 84.62571716308594 188.8144989013672 84.55638122558594 187.99147033691406 C 87.74578094482422 190.92051696777344 95.26093292236328 193.80905151367188 102.82508850097656 196.8089599609375" stroke-width="0.0" fill="rgb(161, 94, 75)" opacity="0.90982693" stroke="rgb(212, 140, 69)" stroke-opacity="0.20359582" stroke-linecap="round" stroke-linejoin="round"/>
    <path d="M 263.3002624511719 277.451171875 C 251.43382263183594 285.42333984375 259.24566650390625 286.0266418457031 242.09124755859375 283.3027648925781 C 223.29917907714844 284.6651306152344 196.80938720703125 282.07415771484375 218.45018005371094 280.45196533203125 C 192.74166870117188 270.9877624511719 211.72528076171875 272.98101806640625 239.53265380859375 273.1925964355469 C 270.6957702636719 266.0589599609375 275.4734802246094 250.87379455566406 263.3002624511719 277.451171875" stroke-width="0.0" fill="rgb(179, 181, 180)" opacity="1.0" stroke="rgb(40, 98, 27)" stroke-opacity="0.32844654" stroke-linecap="round" stroke-linejoin="round"/>
    <path d="M 398.89398193359375 109.51553344726562 C 380.60406494140625 208.02000427246094 413.4053649902344 254.68922424316406 334.72662353515625 219.71746826171875 C 377.4382019042969 138.82350158691406 303.62933349609375 163.47955322265625 337.48291015625 123.54273986816406 C 348.92095947265625 141.87103271484375 354.16082763671875 138.37977600097656 346.4772644042969 113.82160949707031 C 400.3785400390625 99.5879135131836 352.4422912597656 93.5308609008789 398.89398193359375 109.51553344726562" stroke-width="0.0" fill="rgb(173, 174, 174)" opacity="0.9842768" stroke="rgb(137, 143, 33)" stroke-opacity="0.0026657581" stroke-linecap="round" stroke-linejoin="round"/>
    <path d="M 120.82157135009766 256.0893249511719 C 118.68488311767578 233.58290100097656 128.00140380859375 247.35842895507812 102.98555755615234 249.93287658691406 C 106.22245788574219 257.32025146484375 139.00169372558594 244.21749877929688 103.96891021728516 278.88458251953125 C 128.18386840820312 266.9539489746094 135.33860778808594 224.161865234375 94.33936309814453 217.0340118408203 C 138.36746215820312 233.98646545410156 113.07688903808594 258.32574462890625 120.82157135009766 256.0893249511719" stroke-width="0.0" fill="rgb(118, 79, 75)" opacity="1.0" stroke="rgb(49, 155, 115)" stroke-opacity="0.8921503" stroke-linecap="round" stroke-linejoin="round"/>
    <path d="M 64.16849517822266 280.65802001953125 C 69.16134643554688 277.8023986816406 81.69480895996094 283.50140380859375 101.72759246826172 279.2458190917969 C 81.12187957763672 283.756591796875 70.58971405029297 278.71240234375 63.992862701416016 280.65374755859375 C 84.90296936035156 283.87835693359375 104.08567810058594 283.1895751953125 108.18423461914062 274.3505554199219 C 85.00996398925781 292.0939025878906 37.465370178222656 268.0365295410156 64.16849517822266 280.65802001953125" stroke-width="0.0" fill="rgb(78, 55, 62)" opacity="0.9579152" stroke="rgb(101, 248, 187)" stroke-opacity="0.11472666" stroke-linecap="round" stroke-linejoin="round"/>
    <path d="M 203.71975708007812 136.41404724121094 C 204.73048400878906 141.0872344970703 203.35125732421875 140.6279754638672 200.62710571289062 141.93910217285156 C 190.94989013671875 140.80242919921875 181.7408905029297 147.79751586914062 198.1641082763672 135.90350341796875 C 206.95851135253906 132.89154052734375 202.58229064941406 132.68270874023438 205.0192108154297 131.49624633789062 C 203.2119903564453 139.20213317871094 200.96621704101562 127.5650634765625 203.71975708007812 136.41404724121094" stroke-width="0.0" fill="rgb(243, 255, 255)" opacity="0.71641725" stroke="rgb(33, 49, 94)" stroke-opacity="0.65153176" stroke-linecap="round" stroke-linejoin="round"/>
    <path d="M 294.6441955566406 49.94260025024414 C 263.33135986328125 53.08063507080078 270.2673034667969 71.84078216552734 265.9938049316406 64.04647064208984 C 256.9094543457031 63.34629440307617 265.9172668457031 66.27796173095703 246.97584533691406 64.83879089355469 C 252.35162353515625 66.11417388916016 254.9601287841797 65.8448715209961 243.93612670898438 64.36370849609375 C 256.937255859375 66.75585174560547 267.4920654296875 49.01678466796875 294.6441955566406 49.94260025024414" stroke-width="0.0" fill="rgb(50, 56, 32)" opacity="0.8965297" stroke="rgb(208, 44, 0)" stroke-opacity="0.05788712" stroke-linecap="round" stroke-linejoin="round"/>
    <path d="M 392.2255554199219 239.7650146484375 C 389.1462097167969 244.57643127441406 381.1889953613281 247.32716369628906 380.1753845214844 247.84475708007812 C 369.17864990234375 246.6802978515625 369.075439453125 239.2780303955078 396.6112365722656 212.70729064941406 C 370.9884338378906 220.5992889404297 373.8692321777344 241.27447509765625 374.54107666015625 239.11521911621094 C 382.54425048828125 243.26637268066406 390.24420166015625 239.67298889160156 392.2255554199219 239.7650146484375" stroke-width="0.0" fill="rgb(83, 82, 81)" opacity="0.6974784" stroke="rgb(56, 32, 192)" stroke-opacity="0.27719164" stroke-linecap="round" stroke-linejoin="round"/>
    <path d="M 327.2379455566406 239.58306884765625 C 325.3616638183594 233.03817749023438 332.7633972167969 248.23558044433594 321.3918762207031 240.72584533691406 C 300.7618103027344 236.03872680664062 301.70343017578125 219.94932556152344 328.1221618652344 244.2043914794922 C 300.885986328125 217.90203857421875 308.2459716796875 202.22610473632812 320.0703125 227.91354370117188 C 323.68701171875 231.83741760253906 324.6767578125 235.35450744628906 327.2379455566406 239.58306884765625" stroke-width="0.0" fill="rgb(103, 138, 144)" opacity="0.92579967" stroke="rgb(120, 8, 36)" stroke-opacity="0.090497494" stroke-linecap="round" stroke-linejoin="round"/>
    <path d="M 256.0362548828125 285.2010498046875 C 246.9527587890625 285.2729187011719 229.26124572753906 284.2525329589844 233.50071716308594 284.642822265625 C 194.06263732910156 284.42626953125 225.92288208007812 282.7673645019531 205.07394409179688 274.1651916503906 C 173.553955078125 263.904296875 148.01007080078125 279.4490966796875 217.1811981201172 277.3095397949219 C 244.4047393798828 278.80706787109375 271.9126892089844 267.79034423828125 256.0362548828125 285.2010498046875" stroke-width="0.0" fill="rgb(25, 94, 108)" opacity="0.44639128" stroke="rgb(48, 148, 62)" stroke-opacity="0.59337866" stroke-linecap="round" stroke-linejoin="round"/>
  </g>
</svg>
