<?xml version="1.0" ?>
<svg xmlns="http://www.w3.org/2000/svg" version="1.1" width="512" height="352">
  <defs/>
  <g>
    <path d="M 148.95211791992188 217.75506591796875 C 144.14547729492188 260.9776306152344 150.7993927001953 248.8647003173828 137.08213806152344 254.51011657714844 C 73.31620025634766 262.8664245605469 69.39268493652344 254.5866241455078 43.12295150756836 241.12449645996094 C 45.87070083618164 196.75289916992188 55.71467971801758 183.62245178222656 101.12440490722656 175.6716766357422 C 153.1016082763672 177.7750244140625 147.48440551757812 165.92715454101562 148.95211791992188 217.75506591796875" stroke-width="0.0" fill="rgb(210, 177, 144)" opacity="0.8715371" stroke="rgb(145, 168, 160)" stroke-opacity="0.9252577" stroke-linecap="round" stroke-linejoin="round"/>
    <path d="M 255.55581665039062 168.68199157714844 C 227.2815399169922 208.432861328125 218.59396362304688 231.09152221679688 192.6898651123047 261.48583984375 C 190.16384887695312 233.4398193359375 180.99630737304688 238.20291137695312 175.24044799804688 192.95652770996094 C 197.03419494628906 156.5893096923828 165.39852905273438 193.39060974121094 172.791259765625 157.93150329589844 C 217.0290985107422 111.63760375976562 280.5282287597656 156.6708526611328 255.55581665039062 168.68199157714844" stroke-width="0.0" fill="rgb(53, 81, 55)" opacity="0.59914404" stroke="rgb(77, 212, 95)" stroke-opacity="0.06367725" stroke-linecap="round" stroke-linejoin="round"/>
    <path d="M 320.5230407714844 225.1526336669922 C 336.9818115234375 255.16534423828125 329.8190002441406 240.35414123535156 266.20941162109375 227.44171142578125 C 273.6003723144531 275.24822998046875 244.17544555664062 289.0885314941406 257.5283508300781 227.5079345703125 C 240.83816528320312 119.87657928466797 244.75985717773438 132.225341796875 262.7165832519531 196.38308715820312 C 290.92913818359375 196.81732177734375 310.87890625 169.84658813476562 320.5230407714844 225.1526336669922" stroke-width="0.0" fill="rgb(40, 65, 51)" opacity="0.7565047" stroke="rgb(243, 246, 138)" stroke-opacity="0.6706982" stroke-linecap="round" stroke-linejoin="round"/>
  </g>
</svg>
