<?xml version="1.0" ?>
<svg xmlns="http://www.w3.org/2000/svg" version="1.1" width="365" height="512">
  <defs/>
  <g>
    <path d="M -10.0 -10.0 C -9.0 -10.0 365.0 0.0 366.0 0.0 C 367.0 0.0 365.0 512.0 366.0 512.0 C 366.0 513.0 0.0 512.0 0.0 513.0 C 0.0 512.0 0.0 513.0 -10.0 -10.0 L -10.0 -10.0" stroke-width="2.0" fill="rgb(236, 213, 169)" opacity="0.8783059"/>
    <path d="M 376.8470153808594 217.50103759765625 C 376.19525146484375 247.16050720214844 380.4145202636719 254.38673400878906 366.9888610839844 291.72210693359375 C 327.40533447265625 267.3514404296875 313.36749267578125 278.9708557128906 295.23699951171875 279.81494140625 C 302.6977844238281 176.4527130126953 297.513671875 184.40435791015625 350.73626708984375 185.8206024169922 C 388.1643981933594 167.2344207763672 382.0007019042969 187.6062774658203 373.9073791503906 198.83436584472656 L 376.8470153808594 217.50103759765625" stroke-width="2.0" fill="rgb(47, 138, 251)" opacity="0.5605215"/>
    <path d="M 244.47244262695312 44.15866470336914 C 245.15675354003906 43.70618438720703 245.53233337402344 43.28120422363281 244.5711669921875 44.11213684082031 C 244.61439514160156 43.620121002197266 244.60739135742188 42.9166259765625 244.55630493164062 41.20991134643555 C 244.6734161376953 43.6450080871582 244.55384826660156 41.71552658081055 244.56654357910156 44.121219635009766 C 246.43284606933594 42.40862274169922 244.8070068359375 44.06626892089844 244.58128356933594 44.06146240234375 L 244.47244262695312 44.15866470336914" stroke-width="2.0" fill="rgb(185, 101, 49)" opacity="0.2344839"/>
    <path d="M 157.88479614257812 325.6087341308594 C 143.83767700195312 326.6861267089844 128.976318359375 350.91290283203125 124.0508041381836 387.5282897949219 C 112.02923583984375 307.7306823730469 152.7218475341797 315.26910400390625 70.79663848876953 350.6502990722656 C 95.1485824584961 324.21539306640625 99.13919830322266 293.5101318359375 89.6819839477539 259.6419982910156 C 151.07720947265625 305.423095703125 38.28374099731445 324.53009033203125 160.89024353027344 305.619140625 L 157.88479614257812 325.6087341308594" stroke-width="2.0" fill="rgb(85, 41, 8)" opacity="0.52929014"/>
    <path d="M 6.32485294342041 249.27133178710938 C 4.5648908615112305 249.75205993652344 5.094996452331543 248.52877807617188 4.847604751586914 248.37612915039062 C 6.36947774887085 248.0113983154297 8.170207977294922 248.29632568359375 5.286944389343262 250.65042114257812 C 5.165196418762207 249.8328857421875 4.866027355194092 247.5883331298828 4.647557735443115 249.2353057861328 C 6.6477155685424805 248.99952697753906 7.783201694488525 249.43170166015625 5.777557849884033 250.18748474121094 L 6.32485294342041 249.27133178710938" stroke-width="2.0" fill="rgb(216, 52, 185)" opacity="0.08810243"/>
    <path d="M 201.9305877685547 39.577152252197266 C 216.07589721679688 47.15395736694336 220.22039794921875 41.37986373901367 222.12594604492188 40.66422653198242 C 202.63021850585938 54.57118606567383 189.4680938720703 10.303638458251953 160.6031494140625 54.70347213745117 C 223.28231811523438 51.54807662963867 232.83616638183594 52.69731521606445 361.06402587890625 64.5963363647461 C 255.99606323242188 -13.34379768371582 243.7158203125 37.38182830810547 220.12380981445312 39.473297119140625 L 201.9305877685547 39.577152252197266" stroke-width="2.0" fill="rgb(141, 160, 170)" opacity="0.22208811"/>
    <path d="M 211.41458129882812 228.59237670898438 C 198.804443359375 229.5959014892578 217.1101837158203 167.88600158691406 168.7023468017578 185.44921875 C 185.89932250976562 190.78924560546875 154.30630493164062 188.28480529785156 157.1918182373047 164.53848266601562 C 202.77902221679688 125.49836730957031 189.5011444091797 159.385498046875 182.55421447753906 143.60752868652344 C 169.78817749023438 209.7732696533203 165.73106384277344 174.5421905517578 205.0803680419922 174.76014709472656 L 211.41458129882812 228.59237670898438" stroke-width="2.0" fill="rgb(45, 50, 49)" opacity="0.83017635"/>
    <path d="M 26.12607192993164 272.5478210449219 C 14.648591995239258 232.14096069335938 -18.59530258178711 254.67788696289062 1.7164783477783203 349.9914855957031 C 88.97618865966797 286.1613464355469 91.3495864868164 266.0982360839844 25.007892608642578 261.0485534667969 C 6.088536739349365 223.26756286621094 -4.372494220733643 252.13331604003906 2.3749985694885254 262.70965576171875 C 2.474256753921509 259.2130432128906 -4.271415710449219 262.2763671875 -16.29485321044922 279.19793701171875 L 26.12607192993164 272.5478210449219" stroke-width="2.0" fill="rgb(93, 165, 255)" opacity="0.65247023"/>
    <path d="M 20.049680709838867 300.33184814453125 C 20.9722843170166 300.8922119140625 19.993694305419922 300.963623046875 20.27605438232422 300.3485412597656 C 21.494661331176758 300.3577575683594 20.952096939086914 300.9666748046875 21.397520065307617 300.2601318359375 C 20.722370147705078 299.67510986328125 21.81148910522461 300.8510437011719 20.581117630004883 300.8791809082031 C 19.98246955871582 298.5228576660156 19.98855972290039 299.5746154785156 19.994909286499023 300.86517333984375 L 20.049680709838867 300.33184814453125" stroke-width="2.0" fill="rgb(62, 176, 78)" opacity="0.31930155"/>
    <path d="M 315.83612060546875 493.4642333984375 C 314.6051330566406 446.36419677734375 295.21685791015625 493.2862854003906 299.1519470214844 493.4404296875 C 240.29502868652344 494.2891540527344 281.1966857910156 493.6290588378906 211.13702392578125 493.76123046875 C 252.12054443359375 491.3018493652344 211.3798828125 487.2422180175781 269.5423889160156 488.9939880371094 C 300.8362731933594 485.505859375 255.09510803222656 484.9143981933594 305.1144104003906 494.2817077636719 L 315.83612060546875 493.4642333984375" stroke-width="2.0" fill="rgb(109, 73, 8)" opacity="0.70136607"/>
    <path d="M 293.7887268066406 88.50286102294922 C 293.9579162597656 86.91532135009766 294.541259765625 89.96375274658203 290.4549255371094 88.57645416259766 C 289.7065734863281 86.20951843261719 294.00482177734375 87.65470886230469 294.1250915527344 89.17794036865234 C 295.4476013183594 96.1048812866211 292.8204650878906 93.85001373291016 294.6247863769531 94.67139434814453 C 294.7309875488281 95.13977813720703 295.9718017578125 97.15318298339844 292.54241943359375 97.88433837890625 L 293.7887268066406 88.50286102294922" stroke-width="2.0" fill="rgb(74, 144, 152)" opacity="0.024411265"/>
    <path d="M 65.69877624511719 195.44503784179688 C 18.23535919189453 191.41348266601562 45.88297653198242 209.01239013671875 39.89200973510742 243.95559692382812 C -22.31460952758789 250.2252960205078 -16.811853408813477 238.20529174804688 -14.154279708862305 210.88148498535156 C -12.080730438232422 173.1998748779297 -12.741059303283691 168.1851043701172 0.9618053436279297 103.87261199951172 C 92.81621551513672 114.82577514648438 87.30673217773438 126.55067443847656 82.44332885742188 147.68771362304688 L 65.69877624511719 195.44503784179688" stroke-width="2.0" fill="rgb(72, 152, 254)" opacity="0.57794386"/>
    <path d="M 267.8618469238281 239.4000701904297 C 274.6178894042969 231.66712951660156 285.5499267578125 239.65719604492188 282.3495788574219 236.58135986328125 C 281.7323303222656 238.537353515625 283.607177734375 235.2296905517578 269.0640869140625 239.03822326660156 C 230.60617065429688 232.84375 228.4568634033203 261.3432922363281 296.1131591796875 293.61151123046875 C 298.3564147949219 228.67247009277344 304.62969970703125 215.57235717773438 293.8494873046875 221.66127014160156 L 267.8618469238281 239.4000701904297" stroke-width="2.0" fill="rgb(166, 198, 247)" opacity="0.98444146"/>
    <path d="M 296.07989501953125 150.33270263671875 C 296.3634948730469 150.28192138671875 296.0417785644531 150.3934326171875 296.3199462890625 149.28805541992188 C 298.3291320800781 150.85958862304688 298.2123107910156 150.4430694580078 299.49676513671875 150.36474609375 C 297.8457946777344 152.0450439453125 298.2656555175781 151.95693969726562 298.98065185546875 153.13189697265625 C 297.1771240234375 151.25978088378906 297.1595458984375 151.4720001220703 296.65179443359375 152.30361938476562 L 296.07989501953125 150.33270263671875" stroke-width="2.0" fill="rgb(47, 66, 130)" opacity="0.0"/>
    <path d="M 235.32273864746094 442.5959167480469 C 218.08267211914062 452.0081481933594 197.3150634765625 406.85760498046875 193.10321044921875 460.5437316894531 C 177.7017364501953 450.69561767578125 180.76194763183594 466.9959411621094 180.79100036621094 431.9468688964844 C 175.40139770507812 401.8509826660156 194.71083068847656 447.2416687011719 191.87246704101562 389.301025390625 C 196.63890075683594 369.9864501953125 155.60202026367188 384.1558837890625 231.0776824951172 375.34503173828125 L 235.32273864746094 442.5959167480469" stroke-width="2.0" fill="rgb(118, 84, 55)" opacity="0.7738844"/>
    <path d="M 141.65042114257812 364.9369201660156 C 129.4998016357422 294.65521240234375 138.29425048828125 410.9124450683594 120.97806549072266 407.9919128417969 C 118.8878173828125 457.5062561035156 117.13368225097656 354.9725646972656 122.0390625 393.2758483886719 C 120.08759307861328 289.38739013671875 127.762939453125 317.2267150878906 119.45369720458984 299.29852294921875 C 148.99703979492188 292.8219909667969 115.9217529296875 359.9140930175781 153.4008026123047 334.7190246582031 L 141.65042114257812 364.9369201660156" stroke-width="2.0" fill="rgb(0, 0, 1)" opacity="0.41520417"/>
    <path d="M 96.02438354492188 425.2207946777344 C 78.8853988647461 460.3415222167969 81.7457046508789 406.1488037109375 76.05802917480469 501.6182556152344 C -64.89036560058594 518.60693359375 29.534215927124023 479.083740234375 -0.8224713802337646 437.7900390625 C -13.497140884399414 378.66290283203125 -12.990955352783203 377.5190124511719 13.80388069152832 375.775634765625 C 147.71160888671875 368.060546875 -32.23137664794922 394.6966857910156 171.1869354248047 423.93798828125 L 96.02438354492188 425.2207946777344" stroke-width="2.0" fill="rgb(255, 255, 226)" opacity="1.0"/>
    <path d="M 142.69952392578125 23.662635803222656 C 143.8948211669922 24.153614044189453 143.5256805419922 24.009363174438477 144.37107849121094 19.778064727783203 C 145.89755249023438 22.903743743896484 145.0203399658203 22.69794464111328 150.7570343017578 24.854747772216797 C 147.1461639404297 26.35478973388672 147.6461181640625 25.280345916748047 149.41783142089844 27.014068603515625 C 144.41160583496094 23.769763946533203 144.26242065429688 23.89457893371582 144.16119384765625 24.74256134033203 L 142.69952392578125 23.662635803222656" stroke-width="2.0" fill="rgb(51, 106, 239)" opacity="0.0"/>
    <path d="M 387.86785888671875 353.4593200683594 C 336.0786437988281 346.9746398925781 310.3228454589844 345.8907775878906 319.3612976074219 352.7999572753906 C 320.96295166015625 360.8368225097656 340.43377685546875 347.4462890625 329.1936340332031 354.0316467285156 C 321.294921875 355.2345275878906 347.4537658691406 353.7808532714844 379.2917785644531 355.2203674316406 C 326.9984130859375 355.3047180175781 338.6688232421875 355.8351745605469 313.2027587890625 353.83880615234375 L 387.86785888671875 353.4593200683594" stroke-width="2.0" fill="rgb(43, 118, 189)" opacity="0.8199556"/>
    <path d="M 83.3456802368164 182.84841918945312 C -27.47831916809082 197.79989624023438 -20.519702911376953 159.18502807617188 -9.570823669433594 276.7599792480469 C 60.977142333984375 275.61627197265625 19.832691192626953 261.7115783691406 19.267333984375 220.4557342529297 C 20.362754821777344 240.5113525390625 26.67418098449707 247.8064422607422 18.014020919799805 232.55978393554688 C 40.94581604003906 274.5338134765625 27.126440048217773 288.1954345703125 88.79000854492188 277.91864013671875 L 83.3456802368164 182.84841918945312" stroke-width="2.0" fill="rgb(125, 171, 222)" opacity="0.94427395"/>
    <path d="M 250.14276123046875 457.6816101074219 C 158.94329833984375 395.5304870605469 181.5754852294922 444.1778564453125 184.5318603515625 408.580078125 C 163.88514709472656 451.9408264160156 206.18141174316406 512.2667846679688 133.1806640625 399.8255615234375 C 131.7515411376953 376.65667724609375 208.72479248046875 336.8596496582031 194.55807495117188 404.0721740722656 C 178.78562927246094 434.9664001464844 144.1353759765625 436.29376220703125 167.221923828125 465.9927673339844 L 250.14276123046875 457.6816101074219" stroke-width="2.0" fill="rgb(213, 171, 119)" opacity="0.62382597"/>
    <path d="M -5.535730838775635 296.1690979003906 C 86.60601043701172 312.70086669921875 56.47426223754883 291.1698913574219 81.58805847167969 247.2017059326172 C 112.44746398925781 256.1032409667969 76.22438049316406 274.7516784667969 96.89691162109375 259.4580078125 C 93.76470947265625 348.4823303222656 104.96089172363281 306.0526428222656 76.99162292480469 343.9154968261719 C -13.811171531677246 339.11236572265625 121.21916961669922 379.6185607910156 -0.5161418914794922 376.25701904296875 L -5.535730838775635 296.1690979003906" stroke-width="2.0" fill="rgb(137, 188, 236)" opacity="0.98309106"/>
    <path d="M 279.25738525390625 330.9536437988281 C 262.9571228027344 212.1085205078125 244.01174926757812 371.3412170410156 224.95697021484375 237.89483642578125 C 300.9796142578125 266.9909973144531 295.39923095703125 279.4495544433594 285.5943298339844 284.0832214355469 C 283.60107421875 278.0385437011719 286.68109130859375 279.7934265136719 283.65789794921875 280.8394470214844 C 294.0119323730469 277.7548828125 290.1015319824219 266.5614013671875 303.8616943359375 304.03277587890625 L 279.25738525390625 330.9536437988281" stroke-width="2.0" fill="rgb(172, 208, 255)" opacity="1.0"/>
    <path d="M 306.7715759277344 35.92936325073242 C 307.4353942871094 36.255210876464844 306.8268127441406 36.39072036743164 307.208984375 39.794559478759766 C 307.29425048828125 37.16435623168945 306.2013854980469 35.439605712890625 308.7483215332031 34.54412078857422 C 304.5877380371094 36.758514404296875 306.69525146484375 35.611480712890625 307.4923400878906 35.28664016723633 C 307.56011962890625 34.850101470947266 306.9891357421875 37.02163314819336 306.66815185546875 35.552894592285156 L 306.7715759277344 35.92936325073242" stroke-width="2.0" fill="rgb(130, 61, 254)" opacity="0.043402977"/>
    <path d="M 333.42425537109375 61.86882019042969 C 287.1170959472656 58.82472229003906 266.6296691894531 52.32463455200195 250.61061096191406 57.21558380126953 C 272.66534423828125 66.35103607177734 278.6619873046875 104.1546859741211 278.5029296875 104.19487762451172 C 276.6545715332031 93.12345886230469 275.59112548828125 87.66985321044922 285.47528076171875 137.7449951171875 C 309.52783203125 114.112548828125 294.0838317871094 107.38304901123047 343.65765380859375 123.05245971679688 L 333.42425537109375 61.86882019042969" stroke-width="2.0" fill="rgb(0, 100, 249)" opacity="0.38702983"/>
    <path d="M 309.17437744140625 209.33348083496094 C 295.7926025390625 162.97337341308594 259.93658447265625 128.44903564453125 229.38795471191406 224.06060791015625 C 301.39898681640625 228.0930938720703 300.46484375 199.62265014648438 291.07745361328125 206.81028747558594 C 285.9571838378906 208.4552764892578 292.83966064453125 201.02072143554688 296.2812805175781 211.80300903320312 C 271.4800720214844 221.72311401367188 266.3544006347656 222.13336181640625 310.72930908203125 223.0391082763672 L 309.17437744140625 209.33348083496094" stroke-width="2.0" fill="rgb(108, 195, 255)" opacity="0.6439343"/>
    <path d="M 180.80450439453125 372.8331604003906 C 155.8731231689453 395.3954772949219 191.36521911621094 368.63201904296875 171.5487823486328 397.9423522949219 C 134.95413208007812 320.612060546875 154.24525451660156 408.8099670410156 135.8514862060547 356.0555419921875 C 125.67350006103516 248.7654571533203 112.38866424560547 386.1934509277344 116.99028778076172 297.8011474609375 C 124.74957275390625 325.3341979980469 122.5538330078125 344.8797302246094 159.3870391845703 334.7627258300781 L 180.80450439453125 372.8331604003906" stroke-width="2.0" fill="rgb(99, 79, 51)" opacity="0.5021463"/>
    <path d="M 152.29464721679688 448.4001770019531 C 197.51405334472656 460.7192687988281 176.7073516845703 511.9640808105469 174.97161865234375 461.2992858886719 C 167.75421142578125 482.7224426269531 98.12705993652344 469.6066589355469 116.5278549194336 487.4939270019531 C 110.2520980834961 430.6737976074219 125.72977447509766 377.656494140625 123.38162231445312 414.67327880859375 C 154.599853515625 391.9658203125 147.53843688964844 379.5593566894531 171.63467407226562 419.826171875 L 152.29464721679688 448.4001770019531" stroke-width="2.0" fill="rgb(45, 13, 0)" opacity="0.58548576"/>
    <path d="M 227.07093811035156 292.8667907714844 C 268.18438720703125 281.5473937988281 262.03173828125 284.3175964355469 267.54815673828125 314.32379150390625 C 260.71942138671875 296.7456970214844 273.52276611328125 278.1109313964844 232.47137451171875 290.5631103515625 C 239.7619171142578 316.6386413574219 221.93121337890625 301.9493103027344 262.9811096191406 329.4809875488281 C 258.0437316894531 301.3880310058594 256.91497802734375 349.0368347167969 270.7940673828125 279.4494934082031 L 227.07093811035156 292.8667907714844" stroke-width="2.0" fill="rgb(154, 202, 255)" opacity="1.0"/>
    <path d="M 57.76169204711914 163.90658569335938 C 30.33934211730957 160.69422912597656 13.14648151397705 161.18682861328125 38.81268310546875 83.94105529785156 C 83.34734344482422 144.24917602539062 63.245758056640625 159.80462646484375 60.56541442871094 156.9862060546875 C 58.550601959228516 156.7141876220703 59.960166931152344 155.61956787109375 67.23673248291016 160.43775939941406 C 60.71906280517578 159.73536682128906 55.92469024658203 156.51959228515625 53.19853210449219 169.20689392089844 L 57.76169204711914 163.90658569335938" stroke-width="2.0" fill="rgb(131, 170, 213)" opacity="0.626058"/>
    <path d="M 176.97689819335938 208.989501953125 C 125.91632080078125 216.18263244628906 145.83970642089844 217.47540283203125 167.2980194091797 210.73721313476562 C 183.076171875 210.58636474609375 173.7972869873047 204.61785888671875 176.78839111328125 203.22579956054688 C 174.98191833496094 207.43353271484375 175.5850372314453 202.61090087890625 175.18666076660156 203.12228393554688 C 176.34075927734375 205.2501678466797 173.9340057373047 197.4309539794922 176.7069091796875 196.89991760253906 L 176.97689819335938 208.989501953125" stroke-width="2.0" fill="rgb(98, 80, 33)" opacity="0.79740006"/>
    <path d="M 49.588096618652344 281.27099609375 C 37.29475402832031 249.9903564453125 42.42665481567383 249.63372802734375 74.70502471923828 237.2212677001953 C 116.46377563476562 291.87481689453125 111.85530090332031 300.1280212402344 119.83024597167969 213.5948486328125 C 41.13100051879883 204.19737243652344 71.83333587646484 244.74542236328125 113.29866027832031 282.9407653808594 C 108.6257553100586 273.3558654785156 73.54924011230469 253.3423309326172 89.53202819824219 295.5784912109375 L 49.588096618652344 281.27099609375" stroke-width="2.0" fill="rgb(131, 181, 233)" opacity="0.8138982"/>
    <path d="M 327.1783752441406 396.5915832519531 C 346.75244140625 405.14385986328125 310.848388671875 404.2029113769531 328.34521484375 405.1913757324219 C 264.1936340332031 407.0600280761719 278.537109375 433.73077392578125 275.9510803222656 394.6895446777344 C 271.32220458984375 316.8375549316406 282.820068359375 415.20098876953125 276.4383239746094 307.48480224609375 C 298.92462158203125 372.8516845703125 302.6968078613281 345.8936462402344 302.7812805175781 356.9499206542969 L 327.1783752441406 396.5915832519531" stroke-width="2.0" fill="rgb(40, 29, 19)" opacity="0.72961825"/>
    <path d="M 28.515010833740234 49.822654724121094 C 28.7047176361084 53.294490814208984 37.14628601074219 62.47890090942383 42.49099349975586 105.02921295166016 C 8.532221794128418 116.6935043334961 56.661529541015625 119.70184326171875 -9.657163619995117 119.62174987792969 C -16.034772872924805 52.59385299682617 -18.300546646118164 28.468812942504883 1.4404585361480713 18.67494773864746 C 35.15857696533203 54.33340835571289 27.192909240722656 54.6037712097168 29.001523971557617 53.61537170410156 L 28.515010833740234 49.822654724121094" stroke-width="2.0" fill="rgb(149, 179, 221)" opacity="0.90157604"/>
    <path d="M 369.418212890625 162.7828369140625 C 368.9205017089844 170.25035095214844 364.815185546875 171.23080444335938 371.1270751953125 167.0000762939453 C 366.1332092285156 154.86117553710938 371.1223449707031 155.2244415283203 400.5791015625 157.42263793945312 C 343.8021545410156 138.30908203125 332.6499328613281 157.13238525390625 333.4309997558594 62.141624450683594 C 474.645263671875 65.96842956542969 404.1884460449219 82.08686065673828 372.4693908691406 135.6322479248047 L 369.418212890625 162.7828369140625" stroke-width="2.0" fill="rgb(146, 173, 209)" opacity="0.97310865"/>
    <path d="M 74.31897735595703 433.9903564453125 C 79.55465698242188 420.8400573730469 91.18399810791016 422.73248291015625 86.21842956542969 454.1236877441406 C 65.75366973876953 451.6234130859375 59.94400405883789 457.0991516113281 61.74174880981445 450.2445068359375 C 60.05607604980469 384.3219909667969 62.88924789428711 469.13372802734375 62.789817810058594 388.7113037109375 C 69.3416519165039 365.2594299316406 102.51921844482422 433.88482666015625 78.18875122070312 391.7444152832031 L 74.31897735595703 433.9903564453125" stroke-width="2.0" fill="rgb(0, 0, 1)" opacity="0.91240495"/>
    <path d="M 51.015113830566406 110.30701446533203 C 129.466796875 83.7984619140625 130.87002563476562 112.77405548095703 156.19003295898438 95.27111053466797 C 138.5816650390625 226.25674438476562 143.57492065429688 169.260986328125 130.37277221679688 158.457275390625 C 122.59117126464844 178.33753967285156 126.24335479736328 174.87509155273438 121.4625244140625 190.3060760498047 C 110.47566986083984 213.86082458496094 140.6622314453125 218.42396545410156 76.79458618164062 211.70103454589844 L 51.015113830566406 110.30701446533203" stroke-width="2.0" fill="rgb(131, 169, 220)" opacity="0.8686072"/>
    <path d="M 264.79547119140625 135.71649169921875 C 297.82025146484375 141.38705444335938 300.0972900390625 135.17819213867188 299.1938171386719 133.39085388183594 C 303.4925537109375 133.25975036621094 301.4891357421875 133.5893096923828 301.09930419921875 131.80630493164062 C 300.44012451171875 134.32664489746094 300.5987854003906 134.2718048095703 299.007568359375 131.6666259765625 C 309.69989013671875 131.25254821777344 332.6571960449219 126.12163543701172 302.8642272949219 107.04591369628906 L 264.79547119140625 135.71649169921875" stroke-width="2.0" fill="rgb(120, 75, 0)" opacity="0.567195"/>
    <path d="M 360.89556884765625 341.67742919921875 C 353.0946044921875 339.43890380859375 352.4207763671875 339.3464050292969 360.78753662109375 339.40423583984375 C 360.42535400390625 340.7919006347656 357.8286437988281 340.2736511230469 358.2210998535156 342.1058654785156 C 354.4308776855469 336.55670166015625 351.20831298828125 339.968017578125 316.875732421875 351.11083984375 C 369.73529052734375 355.4167785644531 351.5812683105469 349.1593017578125 353.5094299316406 344.6373291015625 L 360.89556884765625 341.67742919921875" stroke-width="2.0" fill="rgb(0, 84, 168)" opacity="1.0"/>
    <path d="M -14.065483093261719 349.4528503417969 C 8.678720474243164 354.6153564453125 -8.39841079711914 353.2944030761719 -7.844568252563477 323.2349548339844 C 50.4916877746582 324.276611328125 53.69841384887695 337.52728271484375 56.17124938964844 325.9013366699219 C 57.935081481933594 401.2609558105469 53.91081619262695 402.9754943847656 54.39448547363281 451.52667236328125 C -23.884653091430664 453.72528076171875 -6.0104475021362305 451.7703552246094 -13.569075584411621 445.08404541015625 L -14.065483093261719 349.4528503417969" stroke-width="2.0" fill="rgb(218, 234, 255)" opacity="0.6119782"/>
    <path d="M 214.6829071044922 368.3828125 C 260.14837646484375 366.2247619628906 220.50633239746094 359.169677734375 225.4389190673828 396.2108459472656 C 160.0702362060547 359.1158752441406 175.26812744140625 363.4715270996094 160.8495635986328 335.5999450683594 C 101.10677337646484 341.6953125 158.29393005371094 322.2212829589844 137.47793579101562 313.0030212402344 C 194.7441864013672 297.721435546875 186.55894470214844 301.63311767578125 208.80718994140625 308.1579895019531 L 214.6829071044922 368.3828125" stroke-width="2.0" fill="rgb(204, 167, 119)" opacity="0.92538786"/>
    <path d="M 57.92341232299805 266.58831787109375 C 85.82307434082031 252.6536865234375 106.76637268066406 190.19908142089844 97.22183990478516 335.9999694824219 C 90.5423812866211 233.29129028320312 68.04200744628906 276.24530029296875 62.88285446166992 260.7824401855469 C 58.60617446899414 255.34420776367188 58.22488784790039 255.9013671875 62.094581604003906 256.32049560546875 C 55.15044403076172 256.3479919433594 57.082393646240234 259.466552734375 70.76067352294922 256.3665466308594 L 57.92341232299805 266.58831787109375" stroke-width="2.0" fill="rgb(172, 196, 222)" opacity="0.37795296"/>
    <path d="M 225.73779296875 75.94282531738281 C 226.0255126953125 75.26443481445312 225.7466583251953 75.09380340576172 225.47427368164062 75.91788482666016 C 226.2210235595703 75.56806945800781 225.9464874267578 75.19866180419922 225.77183532714844 74.39762115478516 C 225.4739990234375 74.28850555419922 225.6500701904297 73.18072509765625 225.59027099609375 74.42538452148438 C 226.50344848632812 74.23523712158203 225.455322265625 75.667724609375 225.84222412109375 76.77958679199219 L 225.73779296875 75.94282531738281" stroke-width="2.0" fill="rgb(235, 111, 80)" opacity="0.06863315"/>
    <path d="M 217.19021606445312 430.3103332519531 C 223.85885620117188 448.2959899902344 213.058349609375 447.22430419921875 204.1465301513672 409.960693359375 C 192.7957000732422 402.8444519042969 162.5092315673828 414.7743225097656 184.7427520751953 398.79290771484375 C 166.92337036132812 366.62054443359375 193.16688537597656 449.2171325683594 160.03958129882812 369.397705078125 C 256.56292724609375 389.905517578125 158.8723602294922 379.2169494628906 241.37045288085938 347.8330383300781 L 217.19021606445312 430.3103332519531" stroke-width="2.0" fill="rgb(25, 0, 0)" opacity="0.17073794"/>
    <path d="M 234.00437927246094 354.5733947753906 C 253.2216796875 342.2746276855469 229.93331909179688 347.02056884765625 195.80152893066406 379.3695983886719 C 189.5119171142578 366.6130676269531 196.5357208251953 329.70758056640625 192.3020782470703 305.9040832519531 C 189.762939453125 290.5995178222656 216.69308471679688 316.8966979980469 194.9709930419922 293.68603515625 C 199.6727294921875 276.4915771484375 186.2184295654297 250.51611328125 207.08473205566406 236.32447814941406 L 234.00437927246094 354.5733947753906" stroke-width="2.0" fill="rgb(53, 53, 50)" opacity="0.3252749"/>
    <path d="M 274.4593505859375 461.64404296875 C 266.99542236328125 472.8607482910156 274.7279968261719 495.3940124511719 258.89410400390625 476.294189453125 C 261.8638000488281 484.5208740234375 243.6617889404297 480.33697509765625 193.19580078125 483.9266662597656 C 195.22381591796875 387.894287109375 188.33323669433594 444.9746398925781 231.00901794433594 406.49981689453125 C 254.554931640625 391.8633117675781 313.978271484375 434.6075744628906 274.3668212890625 429.3912353515625 L 274.4593505859375 461.64404296875" stroke-width="2.0" fill="rgb(108, 68, 35)" opacity="0.63775057"/>
    <path d="M 146.52952575683594 476.3134765625 C 168.50802612304688 491.62744140625 122.97647857666016 496.513427734375 176.9832000732422 491.5838928222656 C 136.85525512695312 495.61761474609375 108.79402923583984 492.67364501953125 101.317626953125 492.3822326660156 C 76.65438842773438 479.4075622558594 124.23666381835938 427.92327880859375 127.2503890991211 432.28338623046875 C 180.65054321289062 433.6814270019531 173.18548583984375 416.14361572265625 173.3002166748047 474.2639465332031 L 146.52952575683594 476.3134765625" stroke-width="2.0" fill="rgb(0, 0, 1)" opacity="0.6047278"/>
    <path d="M 169.29193115234375 36.2324104309082 C 161.3756866455078 38.51353454589844 170.89146423339844 32.444339752197266 164.6890869140625 31.17289161682129 C 163.54603576660156 38.072689056396484 165.2558135986328 37.609344482421875 157.30581665039062 49.38237380981445 C 173.8845977783203 21.667634963989258 162.70986938476562 37.74595260620117 181.4173126220703 101.2299575805664 C 159.80445861816406 105.09976959228516 169.7327117919922 65.94408416748047 164.7592315673828 29.442184448242188 L 169.29193115234375 36.2324104309082" stroke-width="2.0" fill="rgb(90, 44, 0)" opacity="1.0"/>
    <path d="M 256.5241394042969 383.63104248046875 C 253.0093994140625 372.1103210449219 257.6717224121094 399.5738525390625 257.06231689453125 445.7024230957031 C 228.60757446289062 445.3169860839844 282.238525390625 416.74053955078125 193.95875549316406 379.7542419433594 C 190.35824584960938 278.2044372558594 195.39736938476562 367.36907958984375 193.11085510253906 297.27557373046875 C 265.5355224609375 348.29608154296875 238.79296875 315.8738098144531 242.4744110107422 347.4143981933594 L 256.5241394042969 383.63104248046875" stroke-width="2.0" fill="rgb(25, 0, 0)" opacity="0.36116305"/>
    <path d="M 63.927452087402344 327.168212890625 C 75.8674087524414 322.9984130859375 52.25638198852539 336.66253662109375 68.55717468261719 353.6407165527344 C 61.10337448120117 378.16229248046875 88.1046371459961 383.8072814941406 75.10816192626953 332.2204895019531 C 67.12681579589844 340.8330383300781 65.92509460449219 284.0274963378906 68.23905181884766 348.3760070800781 C 61.62455368041992 346.8045959472656 70.66803741455078 336.6529541015625 61.55808639526367 331.74066162109375 L 63.927452087402344 327.168212890625" stroke-width="2.0" fill="rgb(0, 1, 0)" opacity="0.671626"/>
    <path d="M 296.56793212890625 282.6497497558594 C 319.9294738769531 298.9403991699219 305.1421203613281 316.2580261230469 302.85009765625 349.8945617675781 C 230.14918518066406 306.00750732421875 243.4615936279297 314.5552062988281 227.35769653320312 294.9629211425781 C 226.12777709960938 224.12332153320312 218.48814392089844 218.7371368408203 229.3715057373047 197.06625366210938 C 295.6043395996094 189.15194702148438 311.3246154785156 196.57859802246094 301.6383056640625 209.96844482421875 L 296.56793212890625 282.6497497558594" stroke-width="2.0" fill="rgb(62, 127, 170)" opacity="0.33943287"/>
    <path d="M 332.9029846191406 240.52220153808594 C 334.11993408203125 241.6118621826172 333.8244323730469 238.47158813476562 334.780517578125 241.14529418945312 C 332.5360412597656 239.29763793945312 334.1669006347656 236.66978454589844 334.77490234375 241.08973693847656 C 336.10626220703125 239.80856323242188 337.5235595703125 236.3120574951172 331.4783935546875 238.96604919433594 C 333.66339111328125 238.7954864501953 333.1673278808594 239.87120056152344 332.5123291015625 239.55303955078125 L 332.9029846191406 240.52220153808594" stroke-width="2.0" fill="rgb(82, 143, 204)" opacity="0.10039642"/>
    <path d="M 86.85807037353516 4.0823259353637695 C 86.18223571777344 2.388500928878784 86.48262023925781 1.4668453931808472 84.35546112060547 2.2501261234283447 C 87.58037567138672 3.337733268737793 86.69960021972656 2.9443359375 86.76814270019531 2.168802499771118 C 86.15098571777344 2.3418490886688232 86.28195190429688 2.7245993614196777 86.70720672607422 1.9554954767227173 C 85.05094146728516 2.2898826599121094 85.38206481933594 2.772477865219116 83.74996948242188 3.8209099769592285 L 86.85807037353516 4.0823259353637695" stroke-width="2.0" fill="rgb(157, 241, 57)" opacity="0.15692434"/>
    <path d="M 315.3078308105469 273.0860900878906 C 314.70806884765625 272.71746826171875 314.3294372558594 272.4912414550781 315.6479187011719 273.2926025390625 C 315.5908508300781 273.5867919921875 315.5784606933594 272.7980651855469 316.4539489746094 272.8492126464844 C 315.4668273925781 273.16912841796875 317.5068664550781 271.8285217285156 315.5766296386719 273.25518798828125 C 314.24462890625 272.5556640625 315.84954833984375 272.88275146484375 314.9212951660156 273.6025390625 L 315.3078308105469 273.0860900878906" stroke-width="2.0" fill="rgb(148, 178, 121)" opacity="0.024609964"/>
    <path d="M 328.1636657714844 342.4882507324219 C 327.361328125 331.9914245605469 286.7647399902344 351.9593505859375 309.4534912109375 367.73663330078125 C 334.3485412597656 335.2339172363281 318.51409912109375 345.2919006347656 377.4620666503906 350.4783020019531 C 382.7809753417969 478.7315368652344 397.8977966308594 431.7470703125 327.9672546386719 449.1661071777344 C 340.18658447265625 399.3275146484375 332.0373229980469 406.34368896484375 309.5683898925781 367.4379577636719 L 328.1636657714844 342.4882507324219" stroke-width="2.0" fill="rgb(212, 235, 255)" opacity="0.80263364"/>
    <path d="M 352.7212219238281 278.7228698730469 C 352.4210205078125 277.2621765136719 352.7567443847656 277.5149841308594 351.4679870605469 278.4132080078125 C 356.0982666015625 278.4337158203125 357.9286804199219 280.8534851074219 355.5785217285156 273.6322021484375 C 354.0660095214844 280.5735168457031 368.5147705078125 283.11773681640625 359.8824462890625 273.48419189453125 C 350.5927429199219 271.1346130371094 351.66558837890625 274.0815734863281 349.7028503417969 275.7352600097656 L 352.7212219238281 278.7228698730469" stroke-width="2.0" fill="rgb(4, 138, 236)" opacity="0.1124062"/>
    <path d="M 104.27758026123047 528.7901611328125 C 107.51905059814453 526.3389892578125 104.19992065429688 525.666748046875 97.50506591796875 526.23193359375 C 19.626937866210938 527.1390991210938 4.836788177490234 533.9301147460938 -20.190597534179688 482.5990905761719 C 29.134418487548828 473.97772216796875 26.424571990966797 495.3512268066406 24.360265731811523 457.4783630371094 C 94.7954330444336 453.3484191894531 78.07772827148438 454.16644287109375 78.49566650390625 473.5888366699219 L 104.27758026123047 528.7901611328125" stroke-width="2.0" fill="rgb(147, 80, 22)" opacity="0.4477575"/>
    <path d="M 236.6839141845703 443.3343505859375 C 229.2953643798828 446.2876892089844 239.83636474609375 436.18438720703125 222.00221252441406 452.6903076171875 C 214.64120483398438 446.0587158203125 203.37762451171875 426.0908508300781 202.17495727539062 423.65167236328125 C 194.46246337890625 437.7845764160156 186.57650756835938 365.8349304199219 196.9663848876953 382.4222717285156 C 218.55502319335938 467.0921325683594 216.27975463867188 445.555419921875 237.73692321777344 405.01104736328125 L 236.6839141845703 443.3343505859375" stroke-width="2.0" fill="rgb(9, 0, 0)" opacity="0.34313104"/>
    <path d="M 36.27161407470703 346.459228515625 C 36.636817932128906 345.0777282714844 35.83281326293945 346.7574462890625 36.559017181396484 345.6099548339844 C 36.649715423583984 345.140625 36.06336975097656 345.3635559082031 37.37651062011719 346.2719421386719 C 36.67341995239258 345.82611083984375 37.71629333496094 346.5101013183594 36.521705627441406 345.5962829589844 C 36.24028778076172 345.7762451171875 37.86766052246094 347.0405578613281 36.405120849609375 345.7109375 L 36.27161407470703 346.459228515625" stroke-width="2.0" fill="rgb(195, 254, 94)" opacity="0.15929143"/>
    <path d="M 175.10775756835938 265.119140625 C 209.49661254882812 297.9521789550781 191.68777465820312 316.7775573730469 186.38125610351562 275.08551025390625 C 190.95120239257812 310.6654357910156 96.58961486816406 301.77471923828125 172.22828674316406 298.49822998046875 C 166.7559356689453 262.02130126953125 175.806884765625 262.2018127441406 169.21755981445312 251.37648010253906 C 185.5454559326172 269.3453674316406 168.505126953125 265.6134033203125 207.86199951171875 258.5472106933594 L 175.10775756835938 265.119140625" stroke-width="2.0" fill="rgb(185, 100, 31)" opacity="0.2534832"/>
    <path d="M 155.33067321777344 529.4955444335938 C 155.6895294189453 523.1351928710938 153.78155517578125 522.7889404296875 146.5527801513672 525.0006713867188 C 95.1538314819336 524.5887451171875 95.9571762084961 525.0394287109375 100.42109680175781 518.9898071289062 C 72.96979522705078 475.53851318359375 82.03369903564453 455.31170654296875 101.41633605957031 458.28021240234375 C 111.54891204833984 480.48480224609375 133.26161193847656 473.9234619140625 160.8096923828125 477.2151794433594 L 155.33067321777344 529.4955444335938" stroke-width="2.0" fill="rgb(175, 125, 77)" opacity="0.47274208"/>
    <path d="M 381.2807922363281 490.4384460449219 C 262.17730712890625 539.308349609375 189.9857635498047 490.4336242675781 201.41934204101562 514.2285766601562 C 122.41751098632812 510.55963134765625 180.92474365234375 491.7882080078125 149.65496826171875 493.7586364746094 C 147.265380859375 429.18719482421875 155.9180908203125 414.95928955078125 177.25648498535156 461.9640197753906 C 273.73724365234375 460.85650634765625 191.97894287109375 470.8735656738281 191.58389282226562 486.6417236328125 L 381.2807922363281 490.4384460449219" stroke-width="2.0" fill="rgb(112, 54, 12)" opacity="0.33893585"/>
    <path d="M 244.7615203857422 512.4110107421875 C 224.11976623535156 527.0263061523438 214.14137268066406 520.8624877929688 206.59873962402344 520.4701538085938 C 164.52589416503906 524.1347045898438 40.37896728515625 618.45068359375 -16.14250373840332 505.8249206542969 C 259.71881103515625 501.7961120605469 49.69377899169922 506.9873962402344 116.29547119140625 506.14044189453125 C 183.86192321777344 509.1123962402344 169.7310028076172 506.45697021484375 208.66407775878906 507.72772216796875 L 244.7615203857422 512.4110107421875" stroke-width="2.0" fill="rgb(0, 16, 36)" opacity="0.5087703"/>
    <path d="M 132.18907165527344 365.8415222167969 C 131.4229278564453 344.719482421875 142.13783264160156 334.24334716796875 135.67007446289062 357.9674377441406 C 134.05482482910156 354.91650390625 156.47869873046875 388.3702697753906 126.73332977294922 382.67681884765625 C 119.01457214355469 470.06622314453125 108.0428237915039 324.84259033203125 157.51101684570312 322.6222229003906 C 97.39421081542969 374.8674621582031 129.59107971191406 320.0788269042969 130.34429931640625 335.8496398925781 L 132.18907165527344 365.8415222167969" stroke-width="2.0" fill="rgb(24, 5, 0)" opacity="0.53525645"/>
    <path d="M 35.82054901123047 30.108745574951172 C 35.55458450317383 29.821815490722656 36.26629638671875 29.36729621887207 34.98206329345703 29.499691009521484 C 37.67356491088867 30.044477462768555 37.74982452392578 29.110252380371094 37.372676849365234 29.20310401916504 C 36.69612503051758 29.396684646606445 37.29636764526367 29.651046752929688 35.736412048339844 29.639610290527344 C 35.27146530151367 29.9766902923584 35.89376449584961 29.428348541259766 34.2310905456543 29.968032836914062 L 35.82054901123047 30.108745574951172" stroke-width="2.0" fill="rgb(199, 157, 140)" opacity="0.3319336"/>
    <path d="M 338.96435546875 368.1971435546875 C 343.8851013183594 367.9228820800781 345.2057189941406 369.8085021972656 336.90484619140625 374.5174560546875 C 312.0921325683594 366.78759765625 314.5129089355469 366.2655334472656 329.0130615234375 363.59405517578125 C 339.71990966796875 369.220703125 338.9150085449219 365.1917419433594 338.8685302734375 368.4430236816406 C 339.6993408203125 366.2039489746094 339.9930419921875 366.3734436035156 342.0569152832031 367.14898681640625 L 338.96435546875 368.1971435546875" stroke-width="2.0" fill="rgb(200, 224, 254)" opacity="0.3350654"/>
    <path d="M 196.35438537597656 475.5232238769531 C 227.64218139648438 469.6135559082031 209.8590545654297 491.5773010253906 221.38734436035156 474.8896789550781 C 202.4112548828125 471.5813293457031 218.39175415039062 480.3576354980469 226.01881408691406 476.8215026855469 C 204.6766357421875 466.406005859375 175.3919677734375 485.6212463378906 179.1920928955078 473.34405517578125 C 267.8061828613281 473.790771484375 261.3975830078125 466.4847412109375 262.0762634277344 475.47283935546875 L 196.35438537597656 475.5232238769531" stroke-width="2.0" fill="rgb(236, 207, 168)" opacity="1.0"/>
    <path d="M 53.7864990234375 445.0869140625 C 44.26434326171875 500.1130065917969 44.208526611328125 424.9268493652344 42.740989685058594 472.01324462890625 C 64.80815124511719 472.40948486328125 42.50563049316406 471.1409606933594 61.33412170410156 471.81182861328125 C 65.54544830322266 453.2579040527344 47.68224334716797 451.7411804199219 98.55564880371094 462.0224914550781 C 35.91202926635742 458.8227233886719 118.7406005859375 475.5046691894531 53.45952224731445 471.3795166015625 L 53.7864990234375 445.0869140625" stroke-width="2.0" fill="rgb(39, 12, 0)" opacity="0.6545864"/>
    <path d="M 72.23260498046875 148.83920288085938 C 106.85771942138672 115.50811767578125 120.4942855834961 135.261474609375 129.35646057128906 133.3743438720703 C 123.64054107666016 140.2926025390625 122.6960678100586 137.4393310546875 125.52698516845703 138.39718627929688 C 121.66532897949219 140.4323272705078 123.68182373046875 141.3424530029297 125.48194885253906 138.57644653320312 C 125.0421142578125 136.43455505371094 135.73403930664062 139.9806671142578 116.28631591796875 197.8450469970703 L 72.23260498046875 148.83920288085938" stroke-width="2.0" fill="rgb(99, 154, 238)" opacity="0.28921068"/>
    <path d="M 91.87437438964844 147.35037231445312 C 89.05265808105469 146.03707885742188 89.07453155517578 145.4564208984375 89.78324127197266 145.52545166015625 C 91.02239227294922 147.2264404296875 90.29780578613281 145.26661682128906 91.02892303466797 145.12997436523438 C 89.26256561279297 146.56407165527344 91.08330535888672 145.84793090820312 91.01425170898438 147.7646484375 C 90.6819839477539 145.87860107421875 91.69397735595703 146.9590606689453 90.28519439697266 147.7100067138672 L 91.87437438964844 147.35037231445312" stroke-width="2.0" fill="rgb(224, 240, 73)" opacity="0.0"/>
    <path d="M 352.81854248046875 558.026123046875 C 177.51158142089844 466.2859802246094 309.9339599609375 537.4832153320312 371.9963684082031 489.4317321777344 C 281.8804016113281 502.82061767578125 339.0809631347656 480.8962707519531 310.9112854003906 466.0926513671875 C 298.5716857910156 472.709716796875 324.3514404296875 485.3960876464844 331.1861572265625 431.7392578125 C 356.38323974609375 448.75372314453125 303.0869445800781 468.92022705078125 377.7195739746094 461.988525390625 L 352.81854248046875 558.026123046875" stroke-width="2.0" fill="rgb(117, 105, 55)" opacity="0.8174657"/>
    <path d="M 235.8727569580078 422.1108093261719 C 240.8610382080078 415.72100830078125 240.57302856445312 477.4661560058594 201.70606994628906 426.8138122558594 C 167.48321533203125 458.59356689453125 228.86758422851562 369.1654052734375 183.72535705566406 406.1441650390625 C 183.682861328125 316.86981201171875 197.40655517578125 473.8844909667969 193.3188934326172 383.4079895019531 C 192.56446838378906 344.4190673828125 208.34048461914062 343.73486328125 229.6139678955078 356.7724609375 L 235.8727569580078 422.1108093261719" stroke-width="2.0" fill="rgb(70, 56, 35)" opacity="0.39982837"/>
    <path d="M 240.57470703125 357.835693359375 C 218.19178771972656 358.96954345703125 252.15985107421875 358.7018127441406 221.87159729003906 364.4824523925781 C 239.0035858154297 361.1606140136719 289.22705078125 348.08465576171875 277.9486083984375 363.4609680175781 C 235.97955322265625 363.88427734375 247.87425231933594 368.87908935546875 238.4303741455078 358.4716491699219 C 222.95298767089844 370.9510192871094 244.32931518554688 363.8250427246094 242.00682067871094 364.896484375 L 240.57470703125 357.835693359375" stroke-width="2.0" fill="rgb(255, 255, 201)" opacity="0.91083807"/>
    <path d="M 231.791015625 119.7750015258789 C 310.09625244140625 125.56597900390625 273.6823425292969 120.2823715209961 283.4915466308594 106.58637237548828 C 379.1993713378906 109.96287536621094 310.3233337402344 126.88719177246094 371.7845764160156 144.38966369628906 C 377.5115661621094 208.78736877441406 359.7994079589844 189.46937561035156 342.5699768066406 211.67486572265625 C 320.0712585449219 223.8416748046875 347.6109924316406 232.03897094726562 221.94154357910156 247.53314208984375 L 231.791015625 119.7750015258789" stroke-width="2.0" fill="rgb(139, 173, 216)" opacity="0.9525915"/>
    <path d="M 135.6887969970703 436.240966796875 C 151.46522521972656 423.7310485839844 140.41163635253906 423.63702392578125 144.98170471191406 429.4979553222656 C 137.98007202148438 400.8091735839844 119.78202056884766 409.515380859375 73.81542205810547 406.7845153808594 C 54.50504684448242 340.4071960449219 58.8472900390625 435.04864501953125 56.949119567871094 340.5463562011719 C 147.16737365722656 329.6852111816406 146.42117309570312 321.51324462890625 132.3668670654297 381.15618896484375 L 135.6887969970703 436.240966796875" stroke-width="2.0" fill="rgb(134, 90, 49)" opacity="0.5288732"/>
    <path d="M 69.77774047851562 58.443504333496094 C 35.171573638916016 69.09383392333984 23.168344497680664 42.5725212097168 46.78889465332031 98.71514892578125 C 74.00907897949219 93.19669342041016 66.30545806884766 61.391441345214844 73.83368682861328 58.83982467651367 C 57.94612121582031 105.01850128173828 56.152915954589844 115.10906982421875 108.00440979003906 96.56999969482422 C 98.66612243652344 51.539974212646484 62.35523986816406 69.72513580322266 70.02948760986328 70.83069610595703 L 69.77774047851562 58.443504333496094" stroke-width="2.0" fill="rgb(135, 176, 255)" opacity="0.37215814"/>
    <path d="M 114.18541717529297 478.62957763671875 C 95.20111846923828 481.39117431640625 149.1470184326172 481.145263671875 78.0491943359375 475.3725280761719 C 82.72489166259766 485.41693115234375 136.27252197265625 486.55706787109375 73.00679779052734 488.28863525390625 C 97.15097045898438 479.00927734375 67.21015167236328 426.97906494140625 79.5822525024414 450.14752197265625 C 161.00775146484375 479.67730712890625 47.84452819824219 403.7368469238281 143.9890899658203 434.5006408691406 L 114.18541717529297 478.62957763671875" stroke-width="2.0" fill="rgb(255, 255, 204)" opacity="0.9560071"/>
    <path d="M 77.15966796875 417.2889099121094 C 79.24842834472656 454.8412780761719 89.70149993896484 454.65380859375 53.535953521728516 454.273193359375 C 60.792911529541016 373.93017578125 52.93614959716797 384.3033447265625 57.51845169067383 395.0111389160156 C 56.515838623046875 378.2660827636719 60.67811965942383 393.6128845214844 64.7876968383789 381.402099609375 C 131.6823272705078 371.8149719238281 111.54552459716797 385.0885925292969 88.01972198486328 384.1100158691406 L 77.15966796875 417.2889099121094" stroke-width="2.0" fill="rgb(148, 104, 63)" opacity="0.66592705"/>
    <path d="M 335.6181945800781 458.9327697753906 C 394.4656066894531 475.0142822265625 410.01593017578125 481.36492919921875 297.8936767578125 486.50775146484375 C 286.5218811035156 453.9944152832031 296.26959228515625 411.0562744140625 285.22491455078125 431.5892028808594 C 276.5954895019531 425.86334228515625 294.45489501953125 454.27862548828125 293.2682800292969 365.3289794921875 C 282.3039245605469 404.38885498046875 297.88751220703125 423.04327392578125 331.589599609375 395.8990783691406 L 335.6181945800781 458.9327697753906" stroke-width="2.0" fill="rgb(0, 0, 14)" opacity="0.47726592"/>
    <path d="M 167.3798370361328 48.74965286254883 C 168.61068725585938 52.20751953125 186.38815307617188 55.799217224121094 210.07443237304688 54.634124755859375 C 242.51834106445312 55.708404541015625 269.2523193359375 42.016971588134766 282.3921813964844 121.9260025024414 C 215.58804321289062 122.79804229736328 237.00189208984375 109.67657470703125 229.49844360351562 141.61082458496094 C 154.3987274169922 147.90699768066406 146.17347717285156 141.0758056640625 167.0579071044922 145.92434692382812 L 167.3798370361328 48.74965286254883" stroke-width="2.0" fill="rgb(0, 103, 252)" opacity="0.39520785"/>
    <path d="M 210.64076232910156 212.96981811523438 C 202.03741455078125 210.80099487304688 217.61911010742188 202.90570068359375 214.18911743164062 213.51744079589844 C 195.4595489501953 180.40310668945312 199.09371948242188 175.52932739257812 176.38143920898438 182.6286163330078 C 180.05567932128906 170.67666625976562 193.44720458984375 215.3826446533203 180.0323944091797 103.26007080078125 C 191.304443359375 183.6641082763672 199.9869842529297 175.56224060058594 201.93707275390625 172.58563232421875 L 210.64076232910156 212.96981811523438" stroke-width="2.0" fill="rgb(30, 41, 50)" opacity="0.67154443"/>
    <path d="M 169.99339294433594 240.03854370117188 C 126.19145202636719 215.8115234375 168.41098022460938 300.9169006347656 137.0755615234375 298.3271179199219 C 144.19189453125 174.82994079589844 117.37410736083984 314.72430419921875 127.0845947265625 182.612060546875 C 129.08840942382812 267.98236083984375 130.97645568847656 275.1770935058594 131.54827880859375 148.60049438476562 C 142.9272918701172 198.1828155517578 170.292724609375 141.0700225830078 145.48605346679688 217.7864532470703 L 169.99339294433594 240.03854370117188" stroke-width="2.0" fill="rgb(37, 47, 49)" opacity="0.78141034"/>
    <path d="M 377.4148254394531 358.52264404296875 C 377.8109130859375 363.9774475097656 378.8109436035156 367.2840881347656 392.04217529296875 352.62884521484375 C 266.557373046875 343.59381103515625 306.9216003417969 358.47393798828125 280.5425720214844 340.2000427246094 C 277.0929260253906 293.7187194824219 303.70208740234375 345.4054870605469 295.0711975097656 277.9009704589844 C 369.9952697753906 269.7567443847656 358.8249206542969 293.4146728515625 377.3450622558594 297.0806579589844 L 377.4148254394531 358.52264404296875" stroke-width="2.0" fill="rgb(145, 193, 239)" opacity="0.9376476"/>
    <path d="M 187.90467834472656 148.9073486328125 C 190.33358764648438 138.86837768554688 167.16346740722656 145.54421997070312 221.34458923339844 142.322509765625 C 232.64279174804688 144.25241088867188 228.24154663085938 132.4864044189453 230.18038940429688 163.3246612548828 C 233.73194885253906 180.08897399902344 232.35971069335938 186.25656127929688 221.0567169189453 248.3320770263672 C 204.14588928222656 246.84686279296875 201.5807647705078 127.7859115600586 199.4303436279297 190.68162536621094 L 187.90467834472656 148.9073486328125" stroke-width="2.0" fill="rgb(131, 172, 220)" opacity="0.8687417"/>
    <path d="M 363.8052062988281 278.84576416015625 C 320.4637145996094 280.8501892089844 333.1563415527344 275.60052490234375 347.63055419921875 287.53338623046875 C 346.0719299316406 290.837890625 348.0546875 287.080078125 324.07171630859375 302.0538330078125 C 343.9228515625 306.5389099121094 354.0294189453125 298.5286865234375 326.4822692871094 306.3592529296875 C 286.9425964355469 306.98101806640625 276.4569396972656 334.87274169921875 365.38134765625 307.9101257324219 L 363.8052062988281 278.84576416015625" stroke-width="2.0" fill="rgb(104, 160, 223)" opacity="0.4007025"/>
    <path d="M 39.613861083984375 175.86329650878906 C 9.619630813598633 183.01734924316406 17.461036682128906 183.83970642089844 27.4520320892334 196.873046875 C 37.68204116821289 191.1199951171875 29.392118453979492 168.85177612304688 113.93699645996094 163.0729217529297 C 97.08242797851562 254.3434600830078 102.10865020751953 265.5545349121094 92.90396118164062 253.84121704101562 C -31.485429763793945 253.99574279785156 -47.796085357666016 203.02239990234375 38.32006072998047 208.86761474609375 L 39.613861083984375 175.86329650878906" stroke-width="2.0" fill="rgb(120, 172, 229)" opacity="0.49606553"/>
    <path d="M 319.9157409667969 404.41082763671875 C 336.05126953125 389.9516296386719 262.9690856933594 425.9403381347656 313.6549072265625 463.6159973144531 C 252.23895263671875 437.1142578125 275.7046203613281 446.0115966796875 294.4181823730469 455.5658874511719 C 276.7472839355469 303.6773986816406 306.62957763671875 393.25164794921875 277.1482849121094 338.2043151855469 C 312.80364990234375 367.5047302246094 303.4226989746094 319.87274169921875 306.1381530761719 380.9083557128906 L 319.9157409667969 404.41082763671875" stroke-width="2.0" fill="rgb(16, 12, 9)" opacity="0.53912956"/>
    <path d="M 405.74395751953125 63.07467269897461 C 296.7799377441406 66.17977142333984 278.0247497558594 49.94049072265625 250.45591735839844 57.58865737915039 C 232.63714599609375 47.91006088256836 191.64517211914062 63.83653259277344 164.48179626464844 47.32163619995117 C 181.6257781982422 -59.004512786865234 183.27212524414062 -40.28425216674805 214.00064086914062 -12.843427658081055 C 260.5185546875 -10.033409118652344 260.5544738769531 -9.456501960754395 327.89569091796875 -57.895633697509766 L 405.74395751953125 63.07467269897461" stroke-width="2.0" fill="rgb(129, 166, 222)" opacity="0.6735523"/>
    <path d="M 36.94630813598633 495.1602478027344 C 37.89960479736328 479.75262451171875 1.1310794353485107 480.9670715332031 22.985960006713867 489.68206787109375 C 16.71215057373047 492.6418151855469 -35.4714241027832 491.1224670410156 1.4200334548950195 487.218017578125 C 12.058171272277832 458.7612609863281 10.980696678161621 535.8191528320312 13.836338996887207 448.3688049316406 C 74.93318939208984 433.9747009277344 52.2314453125 464.96038818359375 40.617820739746094 449.7635192871094 L 36.94630813598633 495.1602478027344" stroke-width="2.0" fill="rgb(35, 55, 0)" opacity="0.73008376"/>
    <path d="M 237.5662384033203 308.9432067871094 C 238.87957763671875 317.19012451171875 251.72666931152344 302.8851013183594 233.38400268554688 343.95831298828125 C 186.27186584472656 348.8777770996094 194.02774047851562 355.6861572265625 192.19610595703125 333.1278381347656 C 193.4892120361328 264.4781494140625 198.68258666992188 275.8445739746094 195.2554931640625 257.7900695800781 C 231.02333068847656 258.12310791015625 240.11756896972656 261.7077941894531 234.75196838378906 270.3966979980469 L 237.5662384033203 308.9432067871094" stroke-width="2.0" fill="rgb(65, 46, 27)" opacity="0.4119195"/>
    <path d="M 151.32472229003906 370.4259033203125 C 159.33570861816406 380.3368225097656 128.24632263183594 408.5356140136719 150.78575134277344 392.6937561035156 C 173.77200317382812 412.87200927734375 164.72604370117188 425.7263488769531 116.46528625488281 432.6847839355469 C 140.09544372558594 352.5624694824219 139.09518432617188 351.3454284667969 122.87445068359375 412.5741882324219 C 165.7294464111328 347.4417419433594 142.4987335205078 354.8512268066406 180.14877319335938 410.1960754394531 L 151.32472229003906 370.4259033203125" stroke-width="2.0" fill="rgb(78, 53, 30)" opacity="0.6735751"/>
    <path d="M 364.3082275390625 293.4646301269531 C 330.6801452636719 266.96673583984375 305.1105651855469 264.1401672363281 283.2525939941406 281.4136962890625 C 351.24444580078125 341.9316101074219 412.0210876464844 254.1267547607422 312.3746337890625 270.2023010253906 C 319.1446533203125 269.2977600097656 362.71075439453125 279.19097900390625 361.88134765625 304.2030944824219 C 311.6372375488281 322.5265197753906 317.45074462890625 346.81292724609375 365.8671569824219 334.1987609863281 L 364.3082275390625 293.4646301269531" stroke-width="2.0" fill="rgb(173, 200, 228)" opacity="0.39272332"/>
    <path d="M 265.6671447753906 488.2964172363281 C 244.79798889160156 498.62200927734375 280.7056579589844 482.4801330566406 213.58853149414062 493.60760498046875 C 196.3611602783203 491.14202880859375 180.30194091796875 503.1237487792969 186.95785522460938 473.3904113769531 C 195.6116180419922 522.2979736328125 190.0304412841797 450.9203796386719 189.77027893066406 422.14971923828125 C 219.6361541748047 427.3646240234375 206.8442840576172 467.1062927246094 258.40887451171875 460.76959228515625 L 265.6671447753906 488.2964172363281" stroke-width="2.0" fill="rgb(57, 36, 21)" opacity="0.6117065"/>
    <path d="M 54.97712707519531 461.32720947265625 C 41.05556869506836 482.8642883300781 74.34169006347656 490.7836608886719 40.19834518432617 493.3139953613281 C -6.004076957702637 492.4236145019531 15.553461074829102 494.9335632324219 17.399883270263672 448.13043212890625 C -21.48642921447754 483.3084411621094 -30.839632034301758 431.1377258300781 11.253600120544434 441.2247314453125 C 27.753704071044922 456.3572998046875 21.163833618164062 448.6868896484375 53.98051071166992 445.140380859375 L 54.97712707519531 461.32720947265625" stroke-width="2.0" fill="rgb(0, 18, 0)" opacity="0.32492116"/>
    <path d="M 242.0690460205078 348.976318359375 C 224.4537353515625 373.7547302246094 332.18133544921875 359.3389892578125 193.9883270263672 375.35565185546875 C 183.89544677734375 311.66351318359375 259.019287109375 326.3060302734375 133.72271728515625 309.3386535644531 C 215.76589965820312 297.4324645996094 157.41441345214844 309.9938049316406 196.69595336914062 287.1177673339844 C 188.10060119628906 264.9600524902344 240.68606567382812 264.71002197265625 216.76348876953125 272.109375 L 242.0690460205078 348.976318359375" stroke-width="2.0" fill="rgb(88, 61, 32)" opacity="0.34800446"/>
    <path d="M 56.425537109375 458.8997497558594 C 30.996089935302734 451.13836669921875 43.38723373413086 439.02618408203125 38.66545486450195 486.8755798339844 C 8.190102577209473 482.5030212402344 4.095672607421875 491.6925048828125 19.64112091064453 469.9748840332031 C 17.01609992980957 449.19915771484375 -19.686513900756836 462.6266784667969 -5.365204811096191 439.361572265625 C 74.68463134765625 451.76422119140625 56.7022590637207 437.5074462890625 42.77003479003906 460.72845458984375 L 56.425537109375 458.8997497558594" stroke-width="2.0" fill="rgb(36, 37, 28)" opacity="0.75122905"/>
    <path d="M 215.36758422851562 212.3780517578125 C 210.56976318359375 233.49041748046875 228.67494201660156 243.37818908691406 198.06552124023438 281.989013671875 C 190.42391967773438 265.1504211425781 200.6632537841797 218.55441284179688 187.85336303710938 230.9368133544922 C 186.1187286376953 200.2146453857422 188.3427276611328 231.15737915039062 186.06588745117188 177.41868591308594 C 186.46823120117188 175.50686645507812 203.8353729248047 183.80517578125 204.41433715820312 201.30165100097656 L 215.36758422851562 212.3780517578125" stroke-width="2.0" fill="rgb(61, 51, 38)" opacity="0.8743728"/>
    <path d="M 232.22952270507812 170.7648468017578 C 234.23358154296875 168.3956756591797 229.97445678710938 176.7700958251953 214.22171020507812 163.3214569091797 C 195.91366577148438 113.48713684082031 244.0968475341797 133.38636779785156 245.3070526123047 165.7983856201172 C 244.03121948242188 214.52027893066406 219.72267150878906 192.2589874267578 212.69142150878906 166.27285766601562 C 228.41229248046875 171.18832397460938 232.21250915527344 173.28009033203125 232.7353973388672 169.31573486328125 L 232.22952270507812 170.7648468017578" stroke-width="2.0" fill="rgb(129, 138, 178)" opacity="0.48159847"/>
    <path d="M 38.73921203613281 486.1339111328125 C 89.72576904296875 454.63531494140625 91.82470703125 494.30084228515625 91.67657470703125 494.06951904296875 C -10.030258178710938 490.04449462890625 -9.862071990966797 490.6574401855469 -12.61555290222168 495.29437255859375 C -13.302876472473145 442.2649841308594 -13.548458099365234 433.0001220703125 -11.2525053024292 441.18023681640625 C 76.38153076171875 439.6756896972656 57.6673698425293 463.12042236328125 40.6022834777832 450.2127685546875 L 38.73921203613281 486.1339111328125" stroke-width="2.0" fill="rgb(22, 0, 0)" opacity="0.40694767"/>
    <path d="M 176.42398071289062 87.9729232788086 C 240.00335693359375 65.05683135986328 231.3603973388672 66.05574035644531 223.31605529785156 57.403751373291016 C 223.5261993408203 57.73936462402344 222.34613037109375 57.08479690551758 222.80882263183594 57.657161712646484 C 224.6144256591797 54.59540939331055 222.42515563964844 77.48391723632812 303.0845031738281 62.952274322509766 C 272.6592712402344 29.969045639038086 225.91172790527344 55.532928466796875 170.01463317871094 45.203372955322266 L 176.42398071289062 87.9729232788086" stroke-width="2.0" fill="rgb(154, 178, 209)" opacity="0.7211657"/>
    <path d="M 128.95472717285156 491.24505615234375 C 114.32147216796875 455.5697937011719 117.14735412597656 383.1576232910156 108.7725601196289 461.9837646484375 C 56.83607482910156 394.8701477050781 94.40689086914062 463.52069091796875 77.35360717773438 452.9107666015625 C 92.24085998535156 438.2720947265625 61.67399215698242 447.8611755371094 82.25244140625 401.8587951660156 C 131.13836669921875 433.02520751953125 101.99334716796875 380.6279602050781 115.37064361572266 385.009521484375 L 128.95472717285156 491.24505615234375" stroke-width="2.0" fill="rgb(116, 61, 11)" opacity="0.44377112"/>
    <path d="M 76.93069458007812 302.2078857421875 C 40.8365478515625 356.39306640625 63.824859619140625 324.05780029296875 57.192352294921875 371.7381896972656 C -31.35962677001953 350.5711975097656 -37.179351806640625 356.5669860839844 -14.605900764465332 331.83807373046875 C -11.268808364868164 277.8929138183594 -11.924408912658691 275.3926696777344 -0.381773978471756 243.12118530273438 C 45.29855728149414 245.97610473632812 45.783531188964844 248.62216186523438 43.76652145385742 268.50518798828125 L 76.93069458007812 302.2078857421875" stroke-width="2.0" fill="rgb(126, 188, 242)" opacity="0.49132574"/>
    <path d="M 329.2068176269531 493.4029846191406 C 284.52606201171875 494.87030029296875 350.13446044921875 483.6860656738281 284.6004638671875 493.649169921875 C 286.1925354003906 468.3559875488281 274.33843994140625 489.3513488769531 191.5938720703125 478.9260559082031 C 323.76934814453125 467.23529052734375 269.9449462890625 491.0701904296875 276.84796142578125 450.38983154296875 C 275.6338806152344 428.03192138671875 263.9717712402344 424.9974060058594 323.2393798828125 431.40191650390625 L 329.2068176269531 493.4029846191406" stroke-width="2.0" fill="rgb(6, 0, 0)" opacity="0.31287426"/>
    <path d="M 204.67967224121094 179.2200469970703 C 204.83123779296875 172.6839599609375 206.8299102783203 187.2621307373047 216.3944091796875 215.599365234375 C 181.45619201660156 179.1240234375 179.46859741210938 178.833251953125 191.871826171875 176.60101318359375 C 200.3193817138672 165.7585906982422 204.02548217773438 186.33615112304688 201.06430053710938 172.1942596435547 C 206.29351806640625 170.2897186279297 198.04759216308594 168.1387939453125 206.20140075683594 175.87278747558594 L 204.67967224121094 179.2200469970703" stroke-width="2.0" fill="rgb(68, 65, 55)" opacity="0.7862917"/>
    <path d="M 180.2503204345703 112.8043212890625 C 197.1234588623047 167.14842224121094 154.6669921875 149.61216735839844 160.91537475585938 160.31857299804688 C 168.58682250976562 109.87638092041016 164.8761749267578 115.81536102294922 165.16415405273438 98.81414794921875 C 160.45291137695312 99.84955596923828 171.78440856933594 98.66398620605469 165.9391632080078 94.6948471069336 C 151.39752197265625 112.55646514892578 143.45765686035156 67.1746826171875 180.22496032714844 85.94090270996094 L 180.2503204345703 112.8043212890625" stroke-width="2.0" fill="rgb(33, 32, 21)" opacity="0.7595222"/>
    <path d="M 11.366762161254883 68.16681671142578 C 10.309659004211426 67.55699157714844 10.532743453979492 67.47901916503906 11.580289840698242 67.3089599609375 C 11.492803573608398 68.61995697021484 10.720975875854492 67.95832824707031 11.200284957885742 69.11165618896484 C 10.486129760742188 69.17420196533203 11.600132942199707 68.9953842163086 12.49077320098877 69.55348205566406 C 12.098846435546875 67.90911865234375 12.975634574890137 68.90287017822266 11.476323127746582 68.1495132446289 L 11.366762161254883 68.16681671142578" stroke-width="2.0" fill="rgb(119, 228, 55)" opacity="0.0"/>
    <path d="M 68.5762939453125 318.792724609375 C 58.33082580566406 314.06390380859375 74.06843566894531 312.7209777832031 68.24418640136719 339.6900634765625 C 46.456459045410156 340.1509094238281 63.79081726074219 341.36651611328125 64.71698760986328 317.073486328125 C 70.6161117553711 324.150390625 65.07196807861328 325.4414367675781 72.53536224365234 332.1787109375 C 69.23758697509766 325.7662048339844 65.04328918457031 313.2575378417969 64.73085021972656 314.54534912109375 L 68.5762939453125 318.792724609375" stroke-width="2.0" fill="rgb(249, 170, 82)" opacity="0.37494543"/>
    <path d="M 283.4117736816406 336.0031433105469 C 273.5163269042969 313.36810302734375 285.3321838378906 357.2325744628906 277.88525390625 363.6709899902344 C 282.1473693847656 435.31982421875 271.4018249511719 400.62799072265625 245.87689208984375 395.6536560058594 C 252.70693969726562 338.2098083496094 214.0198974609375 291.366943359375 261.18658447265625 325.97393798828125 C 274.6257629394531 266.3581237792969 277.7248229980469 319.8830261230469 281.16546630859375 331.1735534667969 L 283.4117736816406 336.0031433105469" stroke-width="2.0" fill="rgb(101, 39, 0)" opacity="0.37093621"/>
    <path d="M 236.56590270996094 308.9412841796875 C 255.45199584960938 322.9713439941406 255.8623046875 316.8851623535156 236.0550079345703 326.1189880371094 C 195.42495727539062 296.1469421386719 207.66665649414062 309.4427185058594 205.30934143066406 326.0010681152344 C 191.87509155273438 283.7976379394531 196.60879516601562 280.0045166015625 193.84664916992188 235.28173828125 C 254.09999084472656 260.6628112792969 211.13133239746094 254.18507385253906 235.25140380859375 265.2840576171875 L 236.56590270996094 308.9412841796875" stroke-width="2.0" fill="rgb(58, 43, 29)" opacity="0.5013229"/>
    <path d="M 51.09149169921875 257.1507873535156 C 49.0154914855957 256.24755859375 49.28565216064453 255.81602478027344 49.53958511352539 256.6465148925781 C 51.33955764770508 257.3381652832031 51.19092559814453 255.64683532714844 52.8505973815918 256.12640380859375 C 51.2728157043457 256.1668395996094 51.89702224731445 254.91729736328125 51.42607498168945 256.8644104003906 C 51.46248245239258 256.2879333496094 51.91761016845703 257.0892333984375 50.381099700927734 256.40228271484375 L 51.09149169921875 257.1507873535156" stroke-width="2.0" fill="rgb(96, 185, 112)" opacity="0.0"/>
    <path d="M 149.2761993408203 124.88195037841797 C 97.86638641357422 101.5769271850586 82.83641815185547 105.49241638183594 48.45194625854492 117.68161010742188 C 16.784801483154297 120.71839904785156 17.558910369873047 115.436279296875 41.35203552246094 103.62741088867188 C 34.011741638183594 28.895740509033203 7.749755859375 42.71257019042969 -13.758304595947266 -3.252446174621582 C 97.9036865234375 -4.490803241729736 103.40254974365234 -5.112104892730713 173.70321655273438 -4.607819080352783 L 149.2761993408203 124.88195037841797" stroke-width="2.0" fill="rgb(152, 179, 217)" opacity="0.89419115"/>
    <path d="M 130.90948486328125 158.75474548339844 C 131.96905517578125 171.8319854736328 112.72872924804688 182.68072509765625 125.01618957519531 201.44656372070312 C 128.64776611328125 174.09332275390625 122.66427612304688 212.3087615966797 63.03535461425781 201.5273895263672 C 43.086910247802734 100.42174530029297 32.41273498535156 88.75898742675781 84.01856231689453 87.7384033203125 C 206.6363067626953 10.703376770019531 157.9291229248047 58.301334381103516 155.08998107910156 115.68827056884766 L 130.90948486328125 158.75474548339844" stroke-width="2.0" fill="rgb(139, 171, 209)" opacity="0.5038501"/>
    <path d="M 122.21778869628906 194.57150268554688 C 81.16919708251953 167.12652587890625 72.60613250732422 171.12611389160156 117.60330963134766 193.4909210205078 C 116.17144775390625 203.88653564453125 97.29595947265625 208.6551971435547 56.13837432861328 247.6884765625 C 131.6942596435547 251.46994018554688 118.10481262207031 268.11376953125 120.58820343017578 188.224853515625 C 42.73006820678711 165.00814819335938 34.4521598815918 172.9930419921875 59.777706146240234 242.06639099121094 L 122.21778869628906 194.57150268554688" stroke-width="2.0" fill="rgb(127, 172, 221)" opacity="0.6504989"/>
    <path d="M 2.5221614837646484 31.622234344482422 C -6.67275333404541 21.961490631103516 -4.8128533363342285 16.157136917114258 -4.980350971221924 16.971128463745117 C 0.7580119967460632 17.427349090576172 -9.003082275390625 25.95313262939453 -2.6179091930389404 17.387962341308594 C 0.6852194666862488 8.595916748046875 7.54105281829834 7.024143695831299 9.18483829498291 17.996929168701172 C 8.478899002075195 14.694574356079102 16.75897979736328 7.769826889038086 29.575605392456055 36.324371337890625 L 2.5221614837646484 31.622234344482422" stroke-width="2.0" fill="rgb(160, 184, 215)" opacity="0.8998739"/>
    <path d="M 233.48011779785156 356.10797119140625 C 229.24826049804688 331.0189208984375 233.6680908203125 355.5740661621094 234.72828674316406 355.1236267089844 C 237.72433471679688 330.51275634765625 231.07794189453125 337.75823974609375 230.58436584472656 336.619873046875 C 242.90609741210938 330.2820129394531 239.5625762939453 359.80303955078125 235.00624084472656 353.686279296875 C 229.8560791015625 294.1264953613281 285.20086669921875 359.55572509765625 238.694091796875 326.7328186035156 L 233.48011779785156 356.10797119140625" stroke-width="2.0" fill="rgb(253, 204, 147)" opacity="0.3877515"/>
    <path d="M 159.31214904785156 478.2642517089844 C 116.04662322998047 474.4776611328125 231.42349243164062 494.8372497558594 107.51384735107422 492.6693115234375 C 94.99883270263672 455.5409240722656 155.44252014160156 495.28570556640625 124.18111419677734 474.3843688964844 C 130.1990509033203 464.1526184082031 182.0669708251953 481.477783203125 152.62738037109375 482.729248046875 C 150.3736114501953 470.1292419433594 181.8639373779297 491.6549072265625 173.18673706054688 474.8288269042969 L 159.31214904785156 478.2642517089844" stroke-width="2.0" fill="rgb(206, 173, 125)" opacity="0.74178696"/>
    <path d="M 121.51470184326172 99.18390655517578 C 121.52812194824219 99.3260269165039 121.41083526611328 99.25988006591797 120.8692855834961 99.00872802734375 C 122.4380874633789 100.56009674072266 121.875244140625 99.2347412109375 123.38837432861328 100.67251586914062 C 122.42742156982422 99.92141723632812 122.99402618408203 98.9939956665039 122.88568115234375 100.04240417480469 C 122.27533721923828 99.3768310546875 122.38300323486328 99.88719177246094 122.95511627197266 99.80846405029297 L 121.51470184326172 99.18390655517578" stroke-width="2.0" fill="rgb(220, 120, 148)" opacity="0.011905563"/>
    <path d="M 196.18394470214844 230.63058471679688 C 161.20570373535156 233.8441925048828 165.39480590820312 241.03762817382812 199.11119079589844 230.29673767089844 C 136.6658172607422 217.5504608154297 156.55337524414062 227.7144317626953 120.24832916259766 212.71852111816406 C 151.73480224609375 133.17263793945312 127.57293701171875 176.6947021484375 136.1217041015625 194.53028869628906 C 177.54005432128906 105.33221435546875 131.9026641845703 202.71646118164062 195.31411743164062 178.92312622070312 L 196.18394470214844 230.63058471679688" stroke-width="2.0" fill="rgb(129, 92, 53)" opacity="0.4321388"/>
    <path d="M 291.1600341796875 228.60693359375 C 253.2744903564453 271.3710021972656 240.4791717529297 283.8061828613281 231.14813232421875 257.76934814453125 C 207.7470245361328 255.8458709716797 220.52792358398438 264.93902587890625 216.28823852539062 257.50030517578125 C 210.41102600097656 186.94039916992188 225.8872833251953 236.65284729003906 206.94056701660156 127.0050277709961 C 266.98126220703125 146.76885986328125 236.49615478515625 176.53855895996094 243.71185302734375 209.2314910888672 L 291.1600341796875 228.60693359375" stroke-width="2.0" fill="rgb(147, 184, 225)" opacity="0.69905704"/>
    <path d="M 161.273193359375 219.20150756835938 C 118.44080352783203 245.03382873535156 153.861083984375 239.03717041015625 117.06888580322266 244.63124084472656 C 131.52261352539062 226.61672973632812 137.32669067382812 257.4830322265625 133.78892517089844 213.82461547851562 C 130.9430694580078 255.2853546142578 140.9541015625 235.14544677734375 137.9013214111328 221.56422424316406 C 122.58535766601562 227.2620849609375 146.67242431640625 202.2928466796875 139.1576385498047 230.819091796875 L 161.273193359375 219.20150756835938" stroke-width="2.0" fill="rgb(255, 255, 237)" opacity="1.0"/>
    <path d="M 174.01412963867188 473.8130798339844 C 138.1632843017578 474.3746337890625 126.52985382080078 475.7022399902344 154.10992431640625 474.389892578125 C 94.1419677734375 474.1155700683594 140.91171264648438 477.4368591308594 116.40777587890625 477.81658935546875 C 114.45564270019531 423.2457275390625 116.96154022216797 408.6209411621094 116.46327209472656 430.49737548828125 C 198.74542236328125 430.9081115722656 150.793212890625 430.52947998046875 173.5203094482422 430.3270263671875 L 174.01412963867188 473.8130798339844" stroke-width="2.0" fill="rgb(20, 0, 0)" opacity="0.8434012"/>
    <path d="M 168.8096923828125 170.40234375 C 161.12620544433594 165.45858764648438 179.2587127685547 183.7718505859375 157.3828582763672 173.1062469482422 C 162.4402313232422 160.37013244628906 153.1831817626953 139.86305236816406 143.41952514648438 194.81668090820312 C 119.6788558959961 101.2416763305664 154.46340942382812 248.56008911132812 156.33995056152344 99.11627197265625 C 172.4075164794922 87.08129119873047 166.12509155273438 108.62715148925781 168.3921356201172 123.53790283203125 L 168.8096923828125 170.40234375" stroke-width="2.0" fill="rgb(192, 191, 178)" opacity="1.0"/>
    <path d="M 204.71104431152344 90.29014587402344 C 205.0519256591797 90.36727142333984 204.7635498046875 90.8423080444336 204.5525360107422 89.69200134277344 C 204.48731994628906 90.61580657958984 204.03652954101562 90.3646240234375 204.7635955810547 89.97982025146484 C 203.84820556640625 90.31346130371094 204.19505310058594 89.84513854980469 204.5426025390625 90.57916259765625 C 204.20970153808594 89.8206787109375 204.54086303710938 90.02735137939453 204.0414276123047 91.09107208251953 L 204.71104431152344 90.29014587402344" stroke-width="2.0" fill="rgb(101, 214, 145)" opacity="0.0"/>
    <path d="M 192.4580078125 293.70928955078125 C 163.40670776367188 295.92071533203125 172.56399536132812 321.44000244140625 169.28125 217.3132781982422 C 159.68972778320312 335.8934631347656 196.15757751464844 260.0570068359375 96.09815979003906 323.884033203125 C 137.77565002441406 205.1199493408203 104.66481018066406 209.8667755126953 159.40423583984375 218.80767822265625 C 214.11639404296875 199.55368041992188 157.05767822265625 227.99560546875 204.44866943359375 231.56051635742188 L 192.4580078125 293.70928955078125" stroke-width="2.0" fill="rgb(143, 107, 71)" opacity="0.48702532"/>
    <path d="M 78.53289031982422 71.0497055053711 C 77.87354278564453 67.81745147705078 78.30931854248047 67.97030639648438 77.79582977294922 69.49241638183594 C 77.30218505859375 68.55200958251953 76.59977722167969 65.52021789550781 76.71988677978516 68.27870178222656 C 75.0316390991211 72.60627746582031 76.47872161865234 67.94390106201172 78.33924102783203 67.27159881591797 C 78.7231674194336 68.80191040039062 79.08110809326172 69.50621795654297 77.09325408935547 67.98175048828125 L 78.53289031982422 71.0497055053711" stroke-width="2.0" fill="rgb(191, 235, 150)" opacity="0.10469055"/>
    <path d="M 275.6910095214844 205.16993713378906 C 290.8110046386719 176.82017517089844 308.55169677734375 195.50547790527344 312.8424072265625 186.65615844726562 C 317.69775390625 190.52549743652344 316.1134033203125 190.06227111816406 313.3772888183594 186.55711364746094 C 317.9327087402344 188.28216552734375 327.13909912109375 192.54229736328125 324.28375244140625 196.57962036132812 C 306.571533203125 198.4204864501953 309.45526123046875 193.85812377929688 318.3629455566406 196.3124237060547 L 275.6910095214844 205.16993713378906" stroke-width="2.0" fill="rgb(174, 202, 226)" opacity="0.10940295"/>
    <path d="M 345.6773986816406 294.8122863769531 C 344.4380187988281 290.9962463378906 343.80743408203125 291.98321533203125 345.5322570800781 291.69757080078125 C 345.0577392578125 291.10748291015625 343.95953369140625 291.0040588378906 344.90753173828125 292.88641357421875 C 346.83905029296875 297.6139831542969 346.9002990722656 296.3036804199219 346.4823303222656 301.25555419921875 C 344.07916259765625 298.02972412109375 346.7570495605469 296.80975341796875 345.77593994140625 297.48199462890625 L 345.6773986816406 294.8122863769531" stroke-width="2.0" fill="rgb(40, 152, 121)" opacity="0.08239319"/>
    <path d="M 360.81146240234375 448.2070007324219 C 373.3784484863281 449.95208740234375 358.0799865722656 442.7769470214844 359.63360595703125 440.79217529296875 C 352.12310791015625 433.2445983886719 360.7110900878906 456.9027099609375 335.4980163574219 435.1844787597656 C 332.221923828125 470.41400146484375 325.1787414550781 451.2967224121094 382.4347839355469 474.1654968261719 C 361.5809020996094 436.20550537109375 361.2587890625 445.86785888671875 360.6054382324219 443.227294921875 L 360.81146240234375 448.2070007324219" stroke-width="2.0" fill="rgb(108, 0, 0)" opacity="0.5337509"/>
    <path d="M 355.97076416015625 463.0502624511719 C 451.7676086425781 462.6036071777344 326.768310546875 508.28729248046875 333.1273193359375 489.72515869140625 C 372.5730895996094 480.5240783691406 278.874267578125 479.0967102050781 281.9893798828125 483.79345703125 C 273.432861328125 428.3661804199219 281.37060546875 404.6503601074219 271.7789611816406 416.4682922363281 C 346.6090087890625 393.73016357421875 327.85186767578125 403.8580627441406 337.9010009765625 464.2013854980469 L 355.97076416015625 463.0502624511719" stroke-width="2.0" fill="rgb(23, 15, 5)" opacity="0.58696246"/>
    <path d="M 103.25116729736328 478.4353942871094 C 109.22150421142578 467.5479736328125 83.93904876708984 483.46514892578125 71.4129867553711 465.39068603515625 C 50.957359313964844 462.08319091796875 75.60125732421875 477.3025207519531 50.618629455566406 464.36090087890625 C 91.71751403808594 474.925537109375 73.84012603759766 358.7763671875 82.63370513916016 482.8105163574219 C 76.65419006347656 397.3787536621094 158.837158203125 416.2943420410156 137.755615234375 470.3763122558594 L 103.25116729736328 478.4353942871094" stroke-width="2.0" fill="rgb(129, 88, 54)" opacity="0.52088666"/>
    <path d="M -11.406326293945312 84.18306732177734 C 187.651611328125 66.31695556640625 148.85325622558594 110.49215698242188 51.52688980102539 200.7265625 C 94.34273529052734 166.87078857421875 102.39998626708984 177.1345672607422 94.90601348876953 133.70669555664062 C 46.52705383300781 134.03822326660156 71.02590942382812 147.59388732910156 101.35749053955078 161.88182067871094 C 65.91172790527344 165.90328979492188 78.52204132080078 209.43101501464844 20.88382911682129 194.95069885253906 L -11.406326293945312 84.18306732177734" stroke-width="2.0" fill="rgb(140, 174, 218)" opacity="0.43152475"/>
  </g>
</svg>
