<?xml version="1.0" ?>
<svg xmlns="http://www.w3.org/2000/svg" version="1.1" width="512" height="512">
  <defs/>
  <g>
    <path d="M 356.77813720703125 322.8731994628906 C 286.41180419921875 185.26991271972656 338.33795166015625 193.39346313476562 286.79248046875 204.2950439453125 C 219.41297912597656 179.54672241210938 290.19500732421875 261.3160400390625 248.4594268798828 241.07826232910156 C 190.95652770996094 96.64244842529297 235.249755859375 60.43244171142578 230.87135314941406 150.2814483642578 C 322.1402282714844 195.58448791503906 303.4309997558594 100.43772888183594 356.77813720703125 322.8731994628906" stroke-width="0.0" fill="rgb(11, 30, 67)" opacity="0.71830046" stroke="rgb(34, 42, 116)" stroke-opacity="0.19390114" stroke-linecap="round" stroke-linejoin="round"/>
    <path d="M 409.4298400878906 416.4150390625 C 480.98565673828125 368.1499328613281 406.42852783203125 509.3713684082031 338.2508850097656 387.8168029785156 C 299.36846923828125 422.7373962402344 339.86505126953125 380.5255126953125 338.95684814453125 377.61456298828125 C 345.2720031738281 403.0035400390625 319.7629699707031 326.96356201171875 383.04461669921875 308.30523681640625 C 374.6255187988281 305.0077209472656 306.53448486328125 410.7618408203125 409.4298400878906 416.4150390625" stroke-width="0.0" fill="rgb(0, 1, 48)" opacity="0.94072884" stroke="rgb(51, 137, 136)" stroke-opacity="0.66872674" stroke-linecap="round" stroke-linejoin="round"/>
    <path d="M 208.39749145507812 287.50140380859375 C 56.14761734008789 291.3956604003906 34.466773986816406 284.3669738769531 166.59756469726562 285.6488342285156 C 111.29117584228516 275.8740539550781 86.50437927246094 294.3405456542969 83.74798583984375 271.00799560546875 C 245.30780029296875 275.208740234375 111.3232421875 269.8770751953125 57.970401763916016 250.15335083007812 C 272.0861511230469 281.6275939941406 206.76441955566406 200.6697998046875 208.39749145507812 287.50140380859375" stroke-width="0.0" fill="rgb(0, 2, 49)" opacity="0.96582586" stroke="rgb(173, 73, 89)" stroke-opacity="0.3500372" stroke-linecap="round" stroke-linejoin="round"/>
    <path d="M 187.8672332763672 401.51531982421875 C 164.71340942382812 450.783447265625 48.30387496948242 421.42041015625 464.85968017578125 434.36309814453125 C 119.51618957519531 445.8746643066406 76.78540802001953 437.0865478515625 76.54817199707031 380.5516357421875 C 123.69373321533203 440.52899169921875 163.87759399414062 412.3214111328125 153.5618133544922 398.1631164550781 C 344.43634033203125 394.2647705078125 317.2330322265625 401.2412109375 187.8672332763672 401.51531982421875" stroke-width="0.0" fill="rgb(0, 7, 53)" opacity="1.0" stroke="rgb(143, 70, 168)" stroke-opacity="0.12141308" stroke-linecap="round" stroke-linejoin="round"/>
    <path d="M 461.6015930175781 345.17803955078125 C 478.7393798828125 393.1145324707031 428.9346618652344 442.0821533203125 415.47357177734375 419.55963134765625 C 472.7357482910156 385.2098693847656 449.4817199707031 323.9727478027344 409.8648681640625 317.89483642578125 C 366.9722900390625 311.3048400878906 394.02288818359375 346.41143798828125 373.3374938964844 304.6524963378906 C 423.9286193847656 272.74481201171875 459.6061706542969 335.5463562011719 461.6015930175781 345.17803955078125" stroke-width="0.0" fill="rgb(0, 0, 48)" opacity="0.98570555" stroke="rgb(19, 117, 73)" stroke-opacity="0.25890884" stroke-linecap="round" stroke-linejoin="round"/>
    <path d="M 185.61436462402344 374.655029296875 C 166.95367431640625 270.31671142578125 58.49913787841797 322.8345031738281 89.38088989257812 390.8440246582031 C 70.83060455322266 373.94390869140625 63.79695129394531 397.7626037597656 72.0531005859375 334.5007019042969 C 81.69632720947266 324.3844909667969 95.38072204589844 289.6392822265625 147.5210418701172 297.7231750488281 C 120.80184936523438 275.5497131347656 219.43885803222656 352.76617431640625 185.61436462402344 374.655029296875" stroke-width="0.0" fill="rgb(2, 0, 47)" opacity="0.9438737" stroke="rgb(187, 62, 106)" stroke-opacity="0.37895897" stroke-linecap="round" stroke-linejoin="round"/>
    <path d="M 124.7452621459961 176.13421630859375 C 123.24056243896484 190.87326049804688 138.10743713378906 218.6549530029297 116.64500427246094 198.04257202148438 C -31.50578498840332 196.29061889648438 119.5934066772461 209.6435546875 93.75615692138672 164.70953369140625 C 85.99995422363281 125.87869262695312 153.03024291992188 135.28868103027344 150.6811065673828 98.70159912109375 C 155.97645568847656 164.74298095703125 129.35122680664062 129.08685302734375 124.7452621459961 176.13421630859375" stroke-width="0.0" fill="rgb(8, 7, 52)" opacity="0.90504944" stroke="rgb(68, 17, 6)" stroke-opacity="0.15010023" stroke-linecap="round" stroke-linejoin="round"/>
    <path d="M 251.2851104736328 276.98431396484375 C 212.14996337890625 374.5508728027344 258.8115539550781 296.06988525390625 241.7514190673828 345.32525634765625 C 241.05361938476562 327.94317626953125 210.95977783203125 329.072265625 220.9547119140625 313.76177978515625 C 226.1988983154297 276.2135925292969 226.27354431152344 280.4159240722656 235.1826171875 204.8707733154297 C 226.5979461669922 344.80267333984375 259.9223937988281 226.73965454101562 251.2851104736328 276.98431396484375" stroke-width="0.0" fill="rgb(3, 10, 55)" opacity="1.0" stroke="rgb(86, 145, 185)" stroke-opacity="0.920501" stroke-linecap="round" stroke-linejoin="round"/>
    <path d="M 225.12294006347656 209.6797332763672 C 237.77789306640625 196.6184844970703 211.00296020507812 248.94088745117188 208.64166259765625 209.61569213867188 C 173.91091918945312 182.18701171875 178.78060913085938 222.29986572265625 145.22544860839844 132.5509033203125 C 182.42713928222656 195.3644561767578 163.3238067626953 192.18994140625 175.6068572998047 158.6236572265625 C 189.43453979492188 193.5780029296875 200.9604949951172 157.5203399658203 225.12294006347656 209.6797332763672" stroke-width="0.0" fill="rgb(0, 3, 49)" opacity="0.96222657" stroke="rgb(162, 161, 9)" stroke-opacity="0.019255312" stroke-linecap="round" stroke-linejoin="round"/>
    <path d="M 232.04766845703125 230.17515563964844 C 246.05654907226562 267.0799865722656 239.7310028076172 221.1625518798828 162.306640625 230.39222717285156 C 145.88230895996094 230.36839294433594 170.51966857910156 241.7865753173828 145.805908203125 189.08070373535156 C 119.76124572753906 146.4955596923828 131.1382598876953 159.0523681640625 165.82192993164062 206.35206604003906 C 244.34133911132812 225.8262481689453 181.6189727783203 206.86941528320312 232.04766845703125 230.17515563964844" stroke-width="0.0" fill="rgb(4, 22, 63)" opacity="1.0" stroke="rgb(150, 46, 161)" stroke-opacity="0.8311544" stroke-linecap="round" stroke-linejoin="round"/>
    <path d="M 210.72445678710938 289.0515441894531 C 207.1750946044922 364.6060485839844 203.87289428710938 333.67694091796875 198.9125213623047 311.9853210449219 C 144.07688903808594 308.849609375 188.2097625732422 323.5483093261719 162.83682250976562 328.59039306640625 C 169.8927001953125 262.2275390625 153.12562561035156 265.85382080078125 172.2671356201172 296.3121032714844 C 235.12232971191406 310.62744140625 176.62925720214844 275.8227233886719 210.72445678710938 289.0515441894531" stroke-width="0.0" fill="rgb(0, 3, 50)" opacity="0.95029545" stroke="rgb(153, 68, 36)" stroke-opacity="0.9692915" stroke-linecap="round" stroke-linejoin="round"/>
    <path d="M 416.65484619140625 371.4935302734375 C 415.8995056152344 377.6891174316406 407.8346252441406 388.7138366699219 392.76788330078125 383.164794921875 C 384.49066162109375 376.7183837890625 378.9068298339844 373.14947509765625 387.0069274902344 350.40338134765625 C 394.9420166015625 391.10595703125 423.4812316894531 373.2943420410156 390.9662170410156 349.9612731933594 C 394.9176025390625 348.00738525390625 420.7471923828125 351.73529052734375 416.65484619140625 371.4935302734375" stroke-width="0.0" fill="rgb(1, 2, 50)" opacity="0.9831852" stroke="rgb(43, 60, 123)" stroke-opacity="0.038282134" stroke-linecap="round" stroke-linejoin="round"/>
    <path d="M 129.9230499267578 232.6717987060547 C 205.87841796875 213.0614013671875 108.53076171875 233.9861602783203 138.05264282226562 257.5682373046875 C 100.69407653808594 267.560791015625 116.18907165527344 268.464599609375 117.61768341064453 224.5004119873047 C 105.12831115722656 238.641357421875 15.729662895202637 211.1873779296875 124.35111999511719 218.0716094970703 C 210.14553833007812 183.12460327148438 132.02783203125 211.24061584472656 129.9230499267578 232.6717987060547" stroke-width="0.0" fill="rgb(2, 18, 61)" opacity="0.9868026" stroke="rgb(143, 140, 235)" stroke-opacity="0.097790845" stroke-linecap="round" stroke-linejoin="round"/>
    <path d="M 155.56137084960938 373.6524963378906 C 285.7208251953125 386.24359130859375 224.44810485839844 403.575439453125 37.448360443115234 378.6800537109375 C 176.73214721679688 375.7422790527344 86.75037384033203 386.398193359375 129.5331268310547 349.8265075683594 C 130.68336486816406 373.69793701171875 172.9038848876953 233.748291015625 133.4448699951172 370.6864013671875 C 131.76101684570312 363.2085876464844 123.8163070678711 380.5328063964844 155.56137084960938 373.6524963378906" stroke-width="0.0" fill="rgb(4, 10, 55)" opacity="1.0" stroke="rgb(196, 14, 146)" stroke-opacity="0.053473044" stroke-linecap="round" stroke-linejoin="round"/>
    <path d="M 280.3988952636719 341.1448669433594 C 294.2424011230469 380.7682189941406 314.16436767578125 394.7549133300781 232.88238525390625 394.81298828125 C 150.63601684570312 397.190673828125 243.82369995117188 365.727783203125 187.20420837402344 371.25433349609375 C 205.7811737060547 342.96783447265625 241.08628845214844 389.9894714355469 274.424560546875 374.940185546875 C 324.25152587890625 331.6542663574219 140.79531860351562 349.4327087402344 280.3988952636719 341.1448669433594" stroke-width="0.0" fill="rgb(0, 3, 49)" opacity="0.8911459" stroke="rgb(56, 176, 169)" stroke-opacity="0.58041" stroke-linecap="round" stroke-linejoin="round"/>
    <path d="M 321.4643249511719 293.14984130859375 C 318.5379333496094 327.736572265625 270.2505798339844 317.42974853515625 292.51727294921875 341.3388977050781 C 250.73223876953125 346.3154602050781 258.58349609375 319.8785705566406 289.53729248046875 308.6915588378906 C 303.2101135253906 300.51324462890625 300.494384765625 301.78387451171875 325.65228271484375 248.63685607910156 C 342.6805419921875 293.44427490234375 340.0286560058594 280.7818908691406 321.4643249511719 293.14984130859375" stroke-width="0.0" fill="rgb(247, 255, 239)" opacity="0.96859616" stroke="rgb(10, 47, 22)" stroke-opacity="0.88446265" stroke-linecap="round" stroke-linejoin="round"/>
    <path d="M 307.3406066894531 175.9261932373047 C 332.3460998535156 193.47007751464844 282.2928466796875 207.6735076904297 268.3250427246094 192.45516967773438 C 247.08201599121094 178.0511016845703 231.04490661621094 200.98251342773438 227.09466552734375 154.91488647460938 C 284.9597473144531 104.10807037353516 213.9943084716797 -19.76917266845703 434.53741455078125 72.00377655029297 C 231.71408081054688 134.31365966796875 298.2208251953125 213.466552734375 307.3406066894531 175.9261932373047" stroke-width="0.0" fill="rgb(30, 201, 199)" opacity="0.9992268" stroke="rgb(192, 245, 56)" stroke-opacity="0.33026332" stroke-linecap="round" stroke-linejoin="round"/>
    <path d="M 250.360595703125 344.0076904296875 C 211.67669677734375 335.0897521972656 229.55215454101562 370.80133056640625 217.4693603515625 364.9939880371094 C 176.77584838867188 365.13153076171875 197.82589721679688 365.1059265136719 195.92698669433594 362.73077392578125 C 197.1195068359375 275.9211120605469 189.77908325195312 359.8185729980469 214.53013610839844 341.55224609375 C 177.83555603027344 328.6659240722656 251.1028289794922 343.25189208984375 250.360595703125 344.0076904296875" stroke-width="0.0" fill="rgb(7, 115, 129)" opacity="1.0" stroke="rgb(106, 26, 129)" stroke-opacity="0.6857172" stroke-linecap="round" stroke-linejoin="round"/>
    <path d="M 331.7638854980469 315.7560729980469 C 323.7250671386719 339.795654296875 319.6836853027344 357.3751220703125 305.9658508300781 369.8350524902344 C 270.7693786621094 306.3381652832031 288.3088684082031 356.54718017578125 314.4386901855469 332.1472473144531 C 314.892822265625 332.2976989746094 322.53411865234375 316.728271484375 307.4642333984375 316.1623840332031 C 338.3492431640625 280.93310546875 345.8619384765625 273.94989013671875 331.7638854980469 315.7560729980469" stroke-width="0.0" fill="rgb(182, 246, 227)" opacity="1.0" stroke="rgb(101, 153, 107)" stroke-opacity="0.79549325" stroke-linecap="round" stroke-linejoin="round"/>
    <path d="M 63.69296646118164 218.56077575683594 C 49.405029296875 223.14752197265625 118.87505340576172 217.25437927246094 132.2396697998047 222.69801330566406 C 59.42375946044922 222.39401245117188 28.259498596191406 224.46885681152344 80.53165435791016 217.61209106445312 C 135.87338256835938 218.90476989746094 160.7827911376953 214.31253051757812 51.99593734741211 215.59490966796875 C 54.16084671020508 221.9281005859375 104.75872039794922 213.90748596191406 63.69296646118164 218.56077575683594" stroke-width="0.0" fill="rgb(255, 248, 248)" opacity="0.9470717" stroke="rgb(165, 159, 212)" stroke-opacity="0.533319" stroke-linecap="round" stroke-linejoin="round"/>
    <path d="M 131.96115112304688 286.0306701660156 C 116.30500793457031 284.17041015625 128.01077270507812 285.5234375 163.2755584716797 285.2297058105469 C 172.86061096191406 281.2079772949219 148.04212951660156 283.5112609863281 99.70248413085938 282.626220703125 C 129.96543884277344 285.9306945800781 132.6272430419922 284.8359375 89.19346618652344 285.3133544921875 C 79.0848388671875 278.7486267089844 129.92733764648438 286.3787841796875 131.96115112304688 286.0306701660156" stroke-width="0.0" fill="rgb(248, 249, 246)" opacity="1.0" stroke="rgb(228, 6, 103)" stroke-opacity="0.2954415" stroke-linecap="round" stroke-linejoin="round"/>
    <path d="M 130.69622802734375 223.18109130859375 C 149.298828125 216.7168426513672 29.046533584594727 216.5819854736328 110.517822265625 219.93753051757812 C 86.0361099243164 223.24940490722656 46.173370361328125 208.1798553466797 53.88703536987305 228.3951873779297 C 147.3145294189453 221.6324920654297 141.18997192382812 219.21383666992188 50.240596771240234 219.92376708984375 C 47.71632766723633 223.7904052734375 63.23482894897461 223.12709045410156 130.69622802734375 223.18109130859375" stroke-width="0.0" fill="rgb(3, 4, 47)" opacity="0.9786613" stroke="rgb(239, 216, 207)" stroke-opacity="0.5098404" stroke-linecap="round" stroke-linejoin="round"/>
    <path d="M 285.5524597167969 248.79212951660156 C 295.4772033691406 262.284423828125 285.37353515625 275.7287292480469 281.9979248046875 252.60923767089844 C 260.4062805175781 238.17591857910156 228.5529327392578 258.0608825683594 235.3446807861328 241.96112060546875 C 259.7621154785156 240.6096649169922 260.32904052734375 241.54296875 291.8169250488281 242.0380096435547 C 251.64552307128906 243.2635955810547 278.347412109375 238.98838806152344 285.5524597167969 248.79212951660156" stroke-width="0.0" fill="rgb(255, 255, 250)" opacity="0.96704644" stroke="rgb(46, 52, 41)" stroke-opacity="0.34614968" stroke-linecap="round" stroke-linejoin="round"/>
    <path d="M 199.04148864746094 385.4302978515625 C 224.5146026611328 396.47137451171875 219.10232543945312 393.2646179199219 134.3776397705078 393.98052978515625 C 111.73152160644531 383.9973449707031 103.18679809570312 383.2514343261719 129.0029754638672 382.05609130859375 C 157.0056915283203 382.3756408691406 159.86766052246094 381.55218505859375 170.68360900878906 383.7599792480469 C 150.6173553466797 385.2159729003906 152.04652404785156 382.181396484375 199.04148864746094 385.4302978515625" stroke-width="0.0" fill="rgb(208, 251, 236)" opacity="1.0" stroke="rgb(177, 176, 206)" stroke-opacity="0.15541956" stroke-linecap="round" stroke-linejoin="round"/>
    <path d="M 263.2897644042969 194.4334716796875 C 252.10867309570312 200.9441375732422 256.796142578125 203.2274932861328 255.25994873046875 197.16847229003906 C 241.26768493652344 199.5226593017578 245.63270568847656 215.56626892089844 244.2179718017578 202.908935546875 C 246.8662109375 191.10398864746094 250.4491424560547 189.5927734375 250.4370574951172 189.9993896484375 C 257.44110107421875 192.28065490722656 263.3475341796875 194.71148681640625 263.2897644042969 194.4334716796875" stroke-width="0.0" fill="rgb(236, 255, 248)" opacity="0.9810528" stroke="rgb(114, 179, 150)" stroke-opacity="0.8571167" stroke-linecap="round" stroke-linejoin="round"/>
    <path d="M 198.57469177246094 374.124267578125 C 179.24778747558594 381.9273986816406 147.6219482421875 373.5534973144531 184.5355987548828 376.9372863769531 C 147.181884765625 372.03045654296875 176.4591064453125 380.31866455078125 196.78756713867188 374.955078125 C 202.4880828857422 374.32965087890625 226.85787963867188 369.1045837402344 167.25755310058594 371.0933837890625 C 164.6217498779297 375.3364562988281 169.43603515625 373.539306640625 198.57469177246094 374.124267578125" stroke-width="0.0" fill="rgb(233, 255, 252)" opacity="0.9866533" stroke="rgb(67, 192, 175)" stroke-opacity="0.056458704" stroke-linecap="round" stroke-linejoin="round"/>
    <path d="M 229.55926513671875 187.1053924560547 C 234.3170928955078 236.3177947998047 248.85134887695312 216.05921936035156 227.065185546875 213.25424194335938 C 211.93951416015625 209.6691131591797 201.19720458984375 190.48497009277344 197.08975219726562 177.65719604492188 C 203.3057403564453 169.65554809570312 153.966064453125 139.92156982421875 202.82733154296875 147.13827514648438 C 230.42733764648438 181.43594360351562 201.36842346191406 179.8146514892578 229.55926513671875 187.1053924560547" stroke-width="0.0" fill="rgb(19, 214, 205)" opacity="0.69657135" stroke="rgb(127, 195, 45)" stroke-opacity="0.5705324" stroke-linecap="round" stroke-linejoin="round"/>
    <path d="M 352.98822021484375 199.52989196777344 C 356.4847106933594 214.03916931152344 356.5025634765625 186.85154724121094 356.69354248046875 239.38551330566406 C 358.4565124511719 215.5118408203125 356.8524475097656 206.3466339111328 358.1597900390625 203.0249481201172 C 359.8088684082031 248.9672393798828 354.9288024902344 241.2014617919922 360.7234802246094 210.46435546875 C 351.7718505859375 238.60336303710938 352.1832275390625 253.0605010986328 352.98822021484375 199.52989196777344" stroke-width="0.0" fill="rgb(193, 178, 193)" opacity="1.0" stroke="rgb(203, 163, 47)" stroke-opacity="0.11696786" stroke-linecap="round" stroke-linejoin="round"/>
    <path d="M 172.24029541015625 383.8486633300781 C 134.79684448242188 396.376953125 136.25877380371094 393.3951110839844 108.70997619628906 393.8282165527344 C 71.82030487060547 393.0418701171875 81.60449981689453 400.83538818359375 65.59893798828125 381.87445068359375 C 104.25415802001953 382.3358154296875 132.3722686767578 381.85711669921875 142.72430419921875 382.3872985839844 C 120.99449157714844 382.7433166503906 149.9129638671875 380.8122253417969 172.24029541015625 383.8486633300781" stroke-width="0.0" fill="rgb(225, 255, 241)" opacity="0.95654386" stroke="rgb(13, 146, 95)" stroke-opacity="0.037673783" stroke-linecap="round" stroke-linejoin="round"/>
    <path d="M 419.27593994140625 298.94244384765625 C 408.8372497558594 296.9255065917969 401.3785705566406 297.16827392578125 391.0630187988281 298.80926513671875 C 420.8583068847656 293.6170654296875 368.7669982910156 301.4510498046875 379.0147399902344 305.91339111328125 C 416.17132568359375 290.7825622558594 431.1344909667969 314.22100830078125 446.5964660644531 301.6368408203125 C 418.1803283691406 304.1650695800781 409.8955383300781 291.19830322265625 419.27593994140625 298.94244384765625" stroke-width="0.0" fill="rgb(251, 251, 248)" opacity="0.9864103" stroke="rgb(244, 81, 20)" stroke-opacity="0.38367066" stroke-linecap="round" stroke-linejoin="round"/>
    <path d="M 174.52243041992188 435.5340881347656 C 208.8911590576172 439.2101745605469 227.67105102539062 438.18670654296875 70.0088882446289 438.24298095703125 C 65.44253540039062 434.116455078125 52.03234100341797 438.0793151855469 54.893550872802734 433.8483581542969 C 84.31409454345703 431.2829895019531 53.88180923461914 430.8840026855469 116.99999237060547 431.4031982421875 C 80.17247009277344 416.18438720703125 92.19796752929688 415.0478820800781 174.52243041992188 435.5340881347656" stroke-width="0.0" fill="rgb(0, 2, 49)" opacity="0.9954473" stroke="rgb(119, 211, 50)" stroke-opacity="0.0059019304" stroke-linecap="round" stroke-linejoin="round"/>
    <path d="M 285.37200927734375 308.6308288574219 C 318.2603759765625 273.1994934082031 306.5430908203125 308.1263427734375 263.37701416015625 321.0167236328125 C 258.7686767578125 384.6954345703125 246.56356811523438 362.8143005371094 252.667236328125 338.93572998046875 C 272.0052185058594 291.23211669921875 299.37939453125 261.78778076171875 284.7459716796875 243.39402770996094 C 310.6173400878906 261.2379150390625 268.58258056640625 285.3673095703125 285.37200927734375 308.6308288574219" stroke-width="0.0" fill="rgb(2, 17, 59)" opacity="1.0" stroke="rgb(174, 23, 138)" stroke-opacity="0.12298806" stroke-linecap="round" stroke-linejoin="round"/>
    <path d="M 321.5765686035156 403.6830139160156 C 321.2909851074219 341.7198486328125 329.66326904296875 382.794677734375 302.7059326171875 384.39324951171875 C 270.6296081542969 418.6991882324219 307.3219909667969 388.4563903808594 296.05242919921875 349.1465759277344 C 307.4203186035156 379.9963684082031 310.1805725097656 380.2423400878906 323.69525146484375 357.1673278808594 C 360.4442138671875 249.48281860351562 356.3367919921875 253.83401489257812 321.5765686035156 403.6830139160156" stroke-width="0.0" fill="rgb(0, 13, 56)" opacity="0.9148907" stroke="rgb(22, 97, 29)" stroke-opacity="0.85174716" stroke-linecap="round" stroke-linejoin="round"/>
    <path d="M 316.44927978515625 321.5054626464844 C 316.6755676269531 336.56146240234375 309.832275390625 345.6806640625 287.6187438964844 336.2531433105469 C 285.6350402832031 318.1711120605469 289.3344421386719 341.88623046875 304.7594909667969 336.2714538574219 C 270.8543395996094 330.2230224609375 331.67816162109375 320.9962158203125 306.3717956542969 319.75616455078125 C 259.2940673828125 349.6286926269531 310.6529846191406 302.596435546875 316.44927978515625 321.5054626464844" stroke-width="0.0" fill="rgb(3, 0, 47)" opacity="0.98584795" stroke="rgb(81, 73, 31)" stroke-opacity="0.3236033" stroke-linecap="round" stroke-linejoin="round"/>
    <path d="M 330.3992614746094 217.1078338623047 C 359.8975830078125 269.0480651855469 334.5513610839844 219.48753356933594 316.9378662109375 245.94435119628906 C 303.0189208984375 216.2860870361328 319.559326171875 241.6527099609375 282.91876220703125 212.1370086669922 C 338.3834533691406 234.95098876953125 270.2555847167969 201.51849365234375 310.72735595703125 214.54226684570312 C 327.87646484375 193.58294677734375 299.1143493652344 223.45314025878906 330.3992614746094 217.1078338623047" stroke-width="0.0" fill="rgb(1, 0, 47)" opacity="0.9386066" stroke="rgb(177, 164, 22)" stroke-opacity="0.20401824" stroke-linecap="round" stroke-linejoin="round"/>
    <path d="M 207.08648681640625 365.9881286621094 C 146.8229217529297 380.9677429199219 159.34515380859375 352.7685852050781 154.13990783691406 382.58221435546875 C 152.70394897460938 359.3118591308594 142.09292602539062 375.126953125 140.9204559326172 367.29193115234375 C 150.52560424804688 345.76275634765625 158.20526123046875 318.2640075683594 168.08822631835938 296.7284851074219 C 157.8931427001953 359.2750244140625 120.94588470458984 368.6646728515625 207.08648681640625 365.9881286621094" stroke-width="0.0" fill="rgb(1, 2, 48)" opacity="0.9714718" stroke="rgb(147, 74, 238)" stroke-opacity="0.011367226" stroke-linecap="round" stroke-linejoin="round"/>
    <path d="M 260.8721008300781 101.73477172851562 C 240.35865783691406 113.949462890625 250.19398498535156 97.23112487792969 247.01205444335938 128.98504638671875 C 242.33334350585938 77.35987854003906 221.48532104492188 130.87232971191406 224.2947998046875 129.84817504882812 C 214.0165252685547 91.3744888305664 254.73194885253906 103.11087036132812 256.8642272949219 98.919921875 C 201.83375549316406 61.627685546875 242.7436981201172 65.89347839355469 260.8721008300781 101.73477172851562" stroke-width="0.0" fill="rgb(5, 0, 46)" opacity="0.9254134" stroke="rgb(252, 85, 68)" stroke-opacity="0.6225942" stroke-linecap="round" stroke-linejoin="round"/>
    <path d="M 360.609375 203.7245330810547 C 319.44940185546875 228.286865234375 389.9724426269531 305.6720275878906 373.3641052246094 304.924560546875 C 328.9520263671875 206.82484436035156 314.0233459472656 191.01670837402344 321.2803649902344 261.885498046875 C 301.0345458984375 230.7158966064453 342.0830078125 231.85513305664062 343.31280517578125 231.52401733398438 C 349.330322265625 198.4002227783203 335.404296875 194.30653381347656 360.609375 203.7245330810547" stroke-width="0.0" fill="rgb(0, 0, 44)" opacity="0.893158" stroke="rgb(7, 177, 23)" stroke-opacity="0.39646515" stroke-linecap="round" stroke-linejoin="round"/>
    <path d="M 352.5228271484375 273.7984313964844 C 337.8691101074219 278.8115234375 347.98858642578125 322.5207214355469 344.0210876464844 314.1446228027344 C 346.80230712890625 287.09326171875 334.68255615234375 259.85162353515625 334.33349609375 259.8466491699219 C 329.7231140136719 245.029296875 325.4814758300781 251.4824676513672 334.9627990722656 238.44281005859375 C 338.814697265625 244.19842529296875 344.5006408691406 257.1029968261719 352.5228271484375 273.7984313964844" stroke-width="0.0" fill="rgb(0, 211, 198)" opacity="0.6392411" stroke="rgb(13, 207, 218)" stroke-opacity="0.8139712" stroke-linecap="round" stroke-linejoin="round"/>
    <path d="M 86.95451354980469 270.9746398925781 C 82.91644287109375 263.39862060546875 81.38327026367188 255.65383911132812 89.65460205078125 256.48529052734375 C 97.0225601196289 263.0719299316406 63.544410705566406 251.68295288085938 78.98524475097656 268.3438415527344 C 122.16630554199219 259.00103759765625 132.20811462402344 259.14776611328125 89.5196304321289 257.1843566894531 C 80.53478240966797 255.14376831054688 83.92001342773438 265.004150390625 86.95451354980469 270.9746398925781" stroke-width="0.0" fill="rgb(239, 244, 242)" opacity="1.0" stroke="rgb(70, 27, 19)" stroke-opacity="0.15013948" stroke-linecap="round" stroke-linejoin="round"/>
    <path d="M 58.06512451171875 326.557373046875 C 38.511451721191406 337.20294189453125 65.27267456054688 361.5021057128906 39.3884391784668 359.1323547363281 C 68.2987060546875 323.4634094238281 30.432523727416992 329.0067443847656 51.215843200683594 317.25018310546875 C 49.96773147583008 308.48785400390625 54.80177307128906 300.11859130859375 53.527584075927734 319.3096008300781 C 64.76202392578125 321.7625427246094 61.97451400756836 310.90142822265625 58.06512451171875 326.557373046875" stroke-width="0.0" fill="rgb(0, 9, 53)" opacity="0.8851626" stroke="rgb(171, 15, 193)" stroke-opacity="0.7777711" stroke-linecap="round" stroke-linejoin="round"/>
    <path d="M 98.56207275390625 155.3071746826172 C 139.85256958007812 124.60455322265625 116.10067749023438 145.92738342285156 104.42626953125 152.40591430664062 C 94.3371353149414 150.87451171875 99.1494369506836 180.0431671142578 96.83232879638672 161.10006713867188 C 96.77945709228516 148.32559204101562 103.8180160522461 142.9266357421875 111.61039733886719 139.41062927246094 C 138.70533752441406 128.69094848632812 110.31542205810547 136.73773193359375 98.56207275390625 155.3071746826172" stroke-width="0.0" fill="rgb(238, 240, 238)" opacity="0.9955703" stroke="rgb(98, 63, 153)" stroke-opacity="0.5283615" stroke-linecap="round" stroke-linejoin="round"/>
    <path d="M 443.4264221191406 385.4734802246094 C 449.94390869140625 350.2076110839844 445.8936462402344 357.2868347167969 440.7879333496094 395.9986572265625 C 453.76416015625 375.9347839355469 448.0152282714844 359.29022216796875 449.3741149902344 364.5352783203125 C 450.561279296875 376.0897216796875 448.31536865234375 339.38006591796875 442.2039794921875 347.3492126464844 C 450.2806091308594 366.4703063964844 441.8810119628906 377.0223388671875 443.4264221191406 385.4734802246094" stroke-width="0.0" fill="rgb(244, 239, 240)" opacity="1.0" stroke="rgb(22, 25, 92)" stroke-opacity="0.48980817" stroke-linecap="round" stroke-linejoin="round"/>
    <path d="M 202.63223266601562 287.9306945800781 C 203.26780700683594 298.3895263671875 203.718994140625 290.5417785644531 176.9822540283203 295.6885681152344 C 183.10484313964844 294.9044189453125 171.65341186523438 294.96197509765625 171.15939331054688 288.0819091796875 C 188.3958282470703 287.9839172363281 192.1908416748047 288.3377685546875 179.4850311279297 287.3021240234375 C 183.4163055419922 287.8228454589844 186.37713623046875 288.1822204589844 202.63223266601562 287.9306945800781" stroke-width="0.0" fill="rgb(255, 255, 250)" opacity="0.93458486" stroke="rgb(232, 26, 23)" stroke-opacity="0.41922054" stroke-linecap="round" stroke-linejoin="round"/>
    <path d="M 347.9702453613281 215.99395751953125 C 352.0318298339844 222.95675659179688 351.3974914550781 191.46177673339844 351.1598205566406 243.43104553222656 C 349.2052001953125 211.22793579101562 353.6839599609375 200.6350860595703 348.0439147949219 203.3208465576172 C 347.08648681640625 227.71192932128906 351.69427490234375 214.6891326904297 350.7689208984375 207.81532287597656 C 351.485595703125 213.3112335205078 348.40179443359375 232.00160217285156 347.9702453613281 215.99395751953125" stroke-width="0.0" fill="rgb(225, 221, 225)" opacity="1.0" stroke="rgb(126, 75, 17)" stroke-opacity="0.116611145" stroke-linecap="round" stroke-linejoin="round"/>
    <path d="M 169.51535034179688 400.6304016113281 C 157.16751098632812 421.9794616699219 117.09576416015625 417.4536437988281 136.85960388183594 417.4786376953125 C 146.2018280029297 417.4498291015625 112.43959045410156 422.3716125488281 96.24895477294922 399.90020751953125 C 132.64120483398438 422.1769104003906 131.41021728515625 409.965087890625 129.1958770751953 414.2695007324219 C 139.5001678466797 411.62530517578125 138.31187438964844 419.4977722167969 169.51535034179688 400.6304016113281" stroke-width="0.0" fill="rgb(242, 241, 239)" opacity="1.0" stroke="rgb(208, 47, 114)" stroke-opacity="0.83057004" stroke-linecap="round" stroke-linejoin="round"/>
    <path d="M 228.62905883789062 129.83851623535156 C 183.80377197265625 117.05290222167969 241.19395446777344 145.15304565429688 228.67282104492188 151.65672302246094 C 197.3411407470703 110.62086486816406 189.1272430419922 131.67767333984375 196.3999786376953 121.3473129272461 C 166.5215301513672 58.81306457519531 283.24859619140625 64.45372009277344 196.89154052734375 91.05909729003906 C 187.04884338378906 147.01873779296875 239.5776824951172 104.7070541381836 228.62905883789062 129.83851623535156" stroke-width="0.0" fill="rgb(6, 8, 52)" opacity="1.0" stroke="rgb(61, 160, 53)" stroke-opacity="0.3294413" stroke-linecap="round" stroke-linejoin="round"/>
    <path d="M 364.42974853515625 396.01361083984375 C 381.1431579589844 418.9531555175781 425.0760498046875 424.840576171875 444.3095397949219 383.4385681152344 C 440.0242919921875 419.22314453125 391.9874572753906 419.9375305175781 397.3921203613281 416.8274841308594 C 407.5205383300781 417.1497497558594 404.0384216308594 417.51690673828125 396.22491455078125 417.1473693847656 C 355.51324462890625 414.4447326660156 346.2846374511719 360.3773498535156 364.42974853515625 396.01361083984375" stroke-width="0.0" fill="rgb(246, 244, 242)" opacity="1.0" stroke="rgb(137, 101, 223)" stroke-opacity="0.9769156" stroke-linecap="round" stroke-linejoin="round"/>
    <path d="M 245.38584899902344 86.06653594970703 C 241.3009796142578 93.12638854980469 229.20452880859375 71.92548370361328 205.77255249023438 90.31394958496094 C 201.59202575683594 95.43006896972656 190.65724182128906 126.65034484863281 197.08042907714844 91.97325134277344 C 213.0812225341797 71.30338287353516 220.57168579101562 60.99054718017578 203.76983642578125 83.21849060058594 C 211.01467895507812 76.70899200439453 230.8784942626953 70.27215576171875 245.38584899902344 86.06653594970703" stroke-width="0.0" fill="rgb(248, 255, 250)" opacity="0.96548027" stroke="rgb(173, 228, 1)" stroke-opacity="0.5095972" stroke-linecap="round" stroke-linejoin="round"/>
    <path d="M 179.7440948486328 97.2120361328125 C 176.63034057617188 107.989013671875 158.43846130371094 102.05582427978516 173.36512756347656 117.56727600097656 C 154.7096710205078 113.55819702148438 173.63552856445312 100.38684844970703 157.32437133789062 107.49046325683594 C 170.0111541748047 91.67484283447266 193.2966766357422 111.19374084472656 164.73492431640625 86.39973449707031 C 88.08380889892578 83.24729919433594 152.4657745361328 53.08579635620117 179.7440948486328 97.2120361328125" stroke-width="0.0" fill="rgb(0, 1, 46)" opacity="0.9479989" stroke="rgb(49, 23, 157)" stroke-opacity="0.3281637" stroke-linecap="round" stroke-linejoin="round"/>
    <path d="M 162.18026733398438 84.58670043945312 C 157.79556274414062 93.91327667236328 136.45669555664062 68.74259185791016 118.9688949584961 101.07913970947266 C 117.62173461914062 131.15359497070312 102.76805114746094 91.22444152832031 130.7982940673828 79.33631896972656 C 138.85153198242188 76.76749420166016 150.78585815429688 76.694580078125 124.05126953125 78.04473114013672 C 123.65812683105469 80.38553619384766 148.3997344970703 71.464599609375 162.18026733398438 84.58670043945312" stroke-width="0.0" fill="rgb(238, 251, 244)" opacity="0.99220645" stroke="rgb(165, 239, 76)" stroke-opacity="0.86533964" stroke-linecap="round" stroke-linejoin="round"/>
    <path d="M 242.09591674804688 386.3270263671875 C 262.764892578125 387.2900085449219 236.50823974609375 392.5001525878906 228.00160217285156 382.408447265625 C 228.24530029296875 384.4141845703125 224.9837188720703 378.2637023925781 218.9811248779297 378.8743896484375 C 216.45025634765625 373.3591003417969 230.0972900390625 378.5821838378906 231.3634796142578 379.6095886230469 C 224.73146057128906 376.37518310546875 229.64959716796875 378.8218688964844 242.09591674804688 386.3270263671875" stroke-width="0.0" fill="rgb(130, 254, 243)" opacity="0.8650237" stroke="rgb(64, 44, 117)" stroke-opacity="0.15846637" stroke-linecap="round" stroke-linejoin="round"/>
    <path d="M 62.25772476196289 263.2490234375 C 65.94978332519531 242.1940155029297 58.19332504272461 264.34906005859375 76.04468536376953 257.2315979003906 C 80.93484497070312 261.5572204589844 57.45726776123047 266.57696533203125 59.87049102783203 250.27642822265625 C 52.317466735839844 209.85092163085938 66.48269653320312 222.3268280029297 62.4016227722168 264.4288330078125 C 49.54814147949219 243.60906982421875 59.58622360229492 258.1267395019531 62.25772476196289 263.2490234375" stroke-width="0.0" fill="rgb(237, 233, 235)" opacity="1.0" stroke="rgb(181, 229, 161)" stroke-opacity="0.0513973" stroke-linecap="round" stroke-linejoin="round"/>
    <path d="M 269.3623046875 396.18267822265625 C 266.22271728515625 392.5949401855469 278.8269958496094 398.3564147949219 289.7882080078125 390.8105163574219 C 235.27117919921875 394.0386047363281 206.19879150390625 388.7621765136719 218.06655883789062 394.8163146972656 C 275.2690124511719 395.0611877441406 276.47540283203125 394.7886657714844 269.0501403808594 394.9911193847656 C 268.48602294921875 396.08453369140625 269.0967712402344 395.8957824707031 269.3623046875 396.18267822265625" stroke-width="0.0" fill="rgb(252, 255, 250)" opacity="0.9770963" stroke="rgb(155, 245, 109)" stroke-opacity="0.21543977" stroke-linecap="round" stroke-linejoin="round"/>
    <path d="M 403.6480407714844 279.6038513183594 C 446.6278991699219 288.74139404296875 467.1040344238281 317.3456115722656 426.7099609375 292.85479736328125 C 383.29852294921875 275.65570068359375 369.6296691894531 297.92169189453125 368.9119873046875 284.63671875 C 405.67205810546875 271.9908752441406 427.3662414550781 287.80169677734375 403.6606750488281 280.70916748046875 C 373.3370666503906 281.1975402832031 383.6057434082031 280.5436706542969 403.6480407714844 279.6038513183594" stroke-width="0.0" fill="rgb(244, 248, 244)" opacity="1.0" stroke="rgb(88, 83, 129)" stroke-opacity="0.4252444" stroke-linecap="round" stroke-linejoin="round"/>
    <path d="M 70.99365234375 305.1374816894531 C 62.24195098876953 317.3497314453125 60.3388786315918 327.9033203125 48.431697845458984 355.20159912109375 C 55.28282165527344 313.1157531738281 60.85860061645508 319.39306640625 59.186344146728516 320.4983215332031 C 55.1199836730957 309.2945861816406 59.73621368408203 308.7532043457031 59.43986892700195 307.5919189453125 C 70.68080139160156 307.61016845703125 68.69702911376953 305.13702392578125 70.99365234375 305.1374816894531" stroke-width="0.0" fill="rgb(3, 2, 48)" opacity="1.0" stroke="rgb(190, 171, 245)" stroke-opacity="0.33307287" stroke-linecap="round" stroke-linejoin="round"/>
    <path d="M 230.22752380371094 241.8385772705078 C 225.9578094482422 303.7024841308594 222.07086181640625 242.40145874023438 223.9811248779297 240.11270141601562 C 164.07887268066406 225.6562957763672 138.29905700683594 245.16683959960938 157.32106018066406 231.58111572265625 C 170.07711791992188 227.36695861816406 181.5430908203125 230.78857421875 175.0971221923828 229.2810821533203 C 142.25860595703125 230.9698944091797 228.2483367919922 223.53912353515625 230.22752380371094 241.8385772705078" stroke-width="0.0" fill="rgb(255, 255, 252)" opacity="0.9334568" stroke="rgb(214, 103, 165)" stroke-opacity="0.42517808" stroke-linecap="round" stroke-linejoin="round"/>
    <path d="M 344.5898132324219 224.74624633789062 C 343.3122863769531 237.97650146484375 343.06597900390625 225.83326721191406 315.44781494140625 238.20205688476562 C 321.0545654296875 271.7720947265625 317.97344970703125 281.5050354003906 315.1123352050781 226.65895080566406 C 318.0899963378906 224.36441040039062 329.0751037597656 221.78929138183594 329.22479248046875 216.11387634277344 C 326.973876953125 213.92034912109375 336.625 225.16427612304688 344.5898132324219 224.74624633789062" stroke-width="0.0" fill="rgb(9, 164, 165)" opacity="1.0" stroke="rgb(62, 19, 246)" stroke-opacity="0.14109004" stroke-linecap="round" stroke-linejoin="round"/>
    <path d="M 128.59149169921875 250.37548828125 C 136.02548217773438 273.20892333984375 73.75111389160156 260.0762023925781 90.85714721679688 268.1170349121094 C 133.6820526123047 276.0763854980469 82.84630584716797 291.2826232910156 80.6881103515625 261.0150146484375 C 133.98216247558594 261.6884765625 158.08282470703125 257.881103515625 69.3310546875 258.7542724609375 C 43.01902389526367 247.0238494873047 117.6065444946289 256.260009765625 128.59149169921875 250.37548828125" stroke-width="0.0" fill="rgb(0, 11, 55)" opacity="0.94463277" stroke="rgb(240, 246, 230)" stroke-opacity="0.020460786" stroke-linecap="round" stroke-linejoin="round"/>
    <path d="M 81.04508209228516 257.03125 C 78.75312805175781 212.6507110595703 84.29759979248047 263.15875244140625 68.8558578491211 258.231689453125 C 76.91918182373047 162.1232452392578 64.56016540527344 286.12261962890625 87.13579559326172 288.8561706542969 C 72.87225341796875 257.7231750488281 79.53140258789062 262.7867431640625 77.56800842285156 221.81455993652344 C 86.42864990234375 235.95384216308594 70.94664001464844 265.0949401855469 81.04508209228516 257.03125" stroke-width="0.0" fill="rgb(0, 6, 50)" opacity="1.0" stroke="rgb(215, 20, 53)" stroke-opacity="0.093579054" stroke-linecap="round" stroke-linejoin="round"/>
    <path d="M 157.3661346435547 296.6718444824219 C 116.65792083740234 289.6922912597656 125.48826599121094 297.41107177734375 99.06385040283203 294.71868896484375 C 147.03358459472656 295.28179931640625 87.53397369384766 287.5325927734375 73.25343322753906 333.3962097167969 C 99.52247619628906 292.4333801269531 122.93364715576172 297.3514404296875 146.08912658691406 295.93310546875 C 107.28196716308594 298.1221008300781 120.65116119384766 294.96856689453125 157.3661346435547 296.6718444824219" stroke-width="0.0" fill="rgb(242, 246, 243)" opacity="1.0" stroke="rgb(59, 163, 80)" stroke-opacity="0.32272384" stroke-linecap="round" stroke-linejoin="round"/>
    <path d="M 167.8644561767578 106.55807495117188 C 149.32533264160156 104.01643371582031 174.4609375 110.3282699584961 156.03001403808594 107.70148468017578 C 141.0023651123047 123.2913818359375 132.70802307128906 148.502197265625 144.3913116455078 110.78267669677734 C 147.38595581054688 102.80966186523438 157.96694946289062 102.70572662353516 153.7671356201172 102.39715576171875 C 168.20619201660156 99.52962493896484 195.89956665039062 90.41748046875 167.8644561767578 106.55807495117188" stroke-width="0.0" fill="rgb(1, 0, 47)" opacity="1.0" stroke="rgb(63, 19, 149)" stroke-opacity="0.17640477" stroke-linecap="round" stroke-linejoin="round"/>
    <path d="M 101.22659301757812 186.17864990234375 C 89.02384948730469 178.5618133544922 99.20006561279297 195.20639038085938 112.64082336425781 182.80743408203125 C 104.70897674560547 195.82952880859375 92.6291732788086 187.27674865722656 91.23193359375 181.25567626953125 C 98.9649429321289 184.66506958007812 103.09642791748047 189.31698608398438 109.0119400024414 177.487548828125 C 103.22137451171875 186.17564392089844 86.88490295410156 182.24693298339844 101.22659301757812 186.17864990234375" stroke-width="0.0" fill="rgb(244, 244, 242)" opacity="1.0" stroke="rgb(61, 82, 214)" stroke-opacity="0.521336" stroke-linecap="round" stroke-linejoin="round"/>
    <path d="M 91.0 190.0 C 90.33012390136719 192.5 88.5 194.3301239013672 86.0 195.0 C 83.5 194.3301239013672 81.66987609863281 192.5 81.0 190.0 C 81.66987609863281 187.5 83.5 185.6698760986328 86.0 185.0 C 88.5 185.6698760986328 90.33012390136719 187.5 91.0 190.0" stroke-width="0.0" fill="rgb(31, 202, 200)" opacity="1.0" stroke="rgb(141, 81, 53)" stroke-opacity="0.35624853" stroke-linecap="round" stroke-linejoin="round"/>
    <path d="M 101.0 292.0 C 100.33012390136719 294.5 98.5 296.33013916015625 96.0 297.0 C 93.5 296.33013916015625 91.66987609863281 294.5 91.0 292.0 C 91.66987609863281 289.5 93.5 287.66986083984375 96.0 287.0 C 98.5 287.66986083984375 100.33012390136719 289.5 101.0 292.0" stroke-width="0.0" fill="rgb(0, 0, 43)" opacity="1.0" stroke="rgb(153, 54, 64)" stroke-opacity="0.8270842" stroke-linecap="round" stroke-linejoin="round"/>
    <path d="M 92.0 232.0 C 91.33012390136719 234.5 89.5 236.3301239013672 87.0 237.0 C 84.5 236.3301239013672 82.66987609863281 234.5 82.0 232.0 C 82.66987609863281 229.5 84.5 227.6698760986328 87.0 227.0 C 89.5 227.6698760986328 91.33012390136719 229.5 92.0 232.0" stroke-width="0.0" fill="rgb(0, 0, 43)" opacity="1.0" stroke="rgb(131, 153, 136)" stroke-opacity="0.532666" stroke-linecap="round" stroke-linejoin="round"/>
    <path d="M 406.0 322.0 C 405.33013916015625 324.5 403.5 326.33013916015625 401.0 327.0 C 398.5 326.33013916015625 396.66986083984375 324.5 396.0 322.0 C 396.66986083984375 319.5 398.5 317.66986083984375 401.0 317.0 C 403.5 317.66986083984375 405.33013916015625 319.5 406.0 322.0" stroke-width="0.0" fill="rgb(0, 0, 41)" opacity="1.0" stroke="rgb(113, 118, 20)" stroke-opacity="0.9326031" stroke-linecap="round" stroke-linejoin="round"/>
    <path d="M 118.0 213.0 C 117.33012390136719 215.5 115.5 217.3301239013672 113.0 218.0 C 110.5 217.3301239013672 108.66987609863281 215.5 108.0 213.0 C 108.66987609863281 210.5 110.5 208.6698760986328 113.0 208.0 C 115.5 208.6698760986328 117.33012390136719 210.5 118.0 213.0" stroke-width="0.0" fill="rgb(2, 0, 42)" opacity="1.0" stroke="rgb(17, 198, 136)" stroke-opacity="0.6218406" stroke-linecap="round" stroke-linejoin="round"/>
    <path d="M 88.0 207.0 C 87.33012390136719 209.5 85.5 211.3301239013672 83.0 212.0 C 80.5 211.3301239013672 78.66987609863281 209.5 78.0 207.0 C 78.66987609863281 204.5 80.5 202.6698760986328 83.0 202.0 C 85.5 202.6698760986328 87.33012390136719 204.5 88.0 207.0" stroke-width="0.0" fill="rgb(0, 0, 41)" opacity="1.0" stroke="rgb(163, 193, 14)" stroke-opacity="0.61362886" stroke-linecap="round" stroke-linejoin="round"/>
    <path d="M 69.0 235.0 C 68.33012390136719 237.5 66.5 239.3301239013672 64.0 240.0 C 61.5 239.3301239013672 59.66987228393555 237.5 59.0 235.0 C 59.66987228393555 232.5 61.5 230.6698760986328 64.0 230.0 C 66.5 230.6698760986328 68.33012390136719 232.5 69.0 235.0" stroke-width="0.0" fill="rgb(0, 0, 41)" opacity="1.0" stroke="rgb(224, 97, 160)" stroke-opacity="0.96717244" stroke-linecap="round" stroke-linejoin="round"/>
    <path d="M 51.0 311.0 C 50.33012771606445 313.5 48.5 315.33013916015625 46.0 316.0 C 43.5 315.33013916015625 41.66987228393555 313.5 41.0 311.0 C 41.66987228393555 308.5 43.5 306.66986083984375 46.0 306.0 C 48.5 306.66986083984375 50.33012771606445 308.5 51.0 311.0" stroke-width="0.0" fill="rgb(0, 0, 43)" opacity="1.0" stroke="rgb(163, 12, 225)" stroke-opacity="0.22551714" stroke-linecap="round" stroke-linejoin="round"/>
    <path d="M 143.0 208.0 C 142.3301239013672 210.5 140.5 212.3301239013672 138.0 213.0 C 135.5 212.3301239013672 133.6698760986328 210.5 133.0 208.0 C 133.6698760986328 205.5 135.5 203.6698760986328 138.0 203.0 C 140.5 203.6698760986328 142.3301239013672 205.5 143.0 208.0" stroke-width="0.0" fill="rgb(0, 0, 43)" opacity="1.0" stroke="rgb(77, 56, 239)" stroke-opacity="0.33238155" stroke-linecap="round" stroke-linejoin="round"/>
    <path d="M 117.0 265.0 C 116.33012390136719 267.5 114.5 269.33013916015625 112.0 270.0 C 109.5 269.33013916015625 107.66987609863281 267.5 107.0 265.0 C 107.66987609863281 262.5 109.5 260.66986083984375 112.0 260.0 C 114.5 260.66986083984375 116.33012390136719 262.5 117.0 265.0" stroke-width="0.0" fill="rgb(255, 255, 255)" opacity="1.0" stroke="rgb(34, 149, 187)" stroke-opacity="0.47496113" stroke-linecap="round" stroke-linejoin="round"/>
    <path d="M 431.0 432.0 C 430.33013916015625 434.5 428.5 436.33013916015625 426.0 437.0 C 423.5 436.33013916015625 421.66986083984375 434.5 421.0 432.0 C 421.66986083984375 429.5 423.5 427.66986083984375 426.0 427.0 C 428.5 427.66986083984375 430.33013916015625 429.5 431.0 432.0" stroke-width="0.0" fill="rgb(0, 0, 41)" opacity="1.0" stroke="rgb(162, 225, 85)" stroke-opacity="0.41470173" stroke-linecap="round" stroke-linejoin="round"/>
    <path d="M 99.0 230.0 C 98.33012390136719 232.5 96.5 234.3301239013672 94.0 235.0 C 91.5 234.3301239013672 89.66987609863281 232.5 89.0 230.0 C 89.66987609863281 227.5 91.5 225.6698760986328 94.0 225.0 C 96.5 225.6698760986328 98.33012390136719 227.5 99.0 230.0" stroke-width="0.0" fill="rgb(0, 0, 43)" opacity="1.0" stroke="rgb(228, 230, 219)" stroke-opacity="0.8854667" stroke-linecap="round" stroke-linejoin="round"/>
    <path d="M 112.0 292.0 C 111.33012390136719 294.5 109.5 296.33013916015625 107.0 297.0 C 104.5 296.33013916015625 102.66987609863281 294.5 102.0 292.0 C 102.66987609863281 289.5 104.5 287.66986083984375 107.0 287.0 C 109.5 287.66986083984375 111.33012390136719 289.5 112.0 292.0" stroke-width="0.0" fill="rgb(0, 0, 44)" opacity="1.0" stroke="rgb(79, 8, 18)" stroke-opacity="0.236371" stroke-linecap="round" stroke-linejoin="round"/>
    <path d="M 160.0 292.0 C 159.3301239013672 294.5 157.5 296.33013916015625 155.0 297.0 C 152.5 296.33013916015625 150.6698760986328 294.5 150.0 292.0 C 150.6698760986328 289.5 152.5 287.66986083984375 155.0 287.0 C 157.5 287.66986083984375 159.3301239013672 289.5 160.0 292.0" stroke-width="0.0" fill="rgb(0, 0, 44)" opacity="1.0" stroke="rgb(243, 205, 170)" stroke-opacity="0.43560556" stroke-linecap="round" stroke-linejoin="round"/>
    <path d="M 218.0 315.0 C 217.3301239013672 317.5 215.5 319.33013916015625 213.0 320.0 C 210.5 319.33013916015625 208.6698760986328 317.5 208.0 315.0 C 208.6698760986328 312.5 210.5 310.66986083984375 213.0 310.0 C 215.5 310.66986083984375 217.3301239013672 312.5 218.0 315.0" stroke-width="0.0" fill="rgb(0, 0, 43)" opacity="1.0" stroke="rgb(61, 171, 8)" stroke-opacity="0.9492102" stroke-linecap="round" stroke-linejoin="round"/>
    <path d="M 217.0 317.0 C 216.3301239013672 319.5 214.5 321.33013916015625 212.0 322.0 C 209.5 321.33013916015625 207.6698760986328 319.5 207.0 317.0 C 207.6698760986328 314.5 209.5 312.66986083984375 212.0 312.0 C 214.5 312.66986083984375 216.3301239013672 314.5 217.0 317.0" stroke-width="0.0" fill="rgb(0, 0, 44)" opacity="1.0" stroke="rgb(2, 104, 48)" stroke-opacity="0.2632627" stroke-linecap="round" stroke-linejoin="round"/>
    <path d="M 244.0 99.0 C 243.3301239013672 101.5 241.5 103.33012390136719 239.0 104.0 C 236.5 103.33012390136719 234.6698760986328 101.5 234.0 99.0 C 234.6698760986328 96.5 236.5 94.66987609863281 239.0 94.0 C 241.5 94.66987609863281 243.3301239013672 96.5 244.0 99.0" stroke-width="0.0" fill="rgb(255, 255, 255)" opacity="1.0" stroke="rgb(54, 242, 147)" stroke-opacity="0.69981194" stroke-linecap="round" stroke-linejoin="round"/>
    <path d="M 346.0 204.0 C 345.33013916015625 206.5 343.5 208.3301239013672 341.0 209.0 C 338.5 208.3301239013672 336.66986083984375 206.5 336.0 204.0 C 336.66986083984375 201.5 338.5 199.6698760986328 341.0 199.0 C 343.5 199.6698760986328 345.33013916015625 201.5 346.0 204.0" stroke-width="0.0" fill="rgb(255, 255, 255)" opacity="1.0" stroke="rgb(112, 98, 165)" stroke-opacity="0.6412005" stroke-linecap="round" stroke-linejoin="round"/>
    <path d="M 115.0 247.0 C 114.33012390136719 249.5 112.5 251.3301239013672 110.0 252.0 C 107.5 251.3301239013672 105.66987609863281 249.5 105.0 247.0 C 105.66987609863281 244.5 107.5 242.6698760986328 110.0 242.0 C 112.5 242.6698760986328 114.33012390136719 244.5 115.0 247.0" stroke-width="0.0" fill="rgb(0, 0, 41)" opacity="1.0" stroke="rgb(53, 221, 221)" stroke-opacity="0.8593024" stroke-linecap="round" stroke-linejoin="round"/>
    <path d="M 62.0 304.0 C 61.33012771606445 306.5 59.5 308.33013916015625 57.0 309.0 C 54.5 308.33013916015625 52.66987228393555 306.5 52.0 304.0 C 52.66987228393555 301.5 54.5 299.66986083984375 57.0 299.0 C 59.5 299.66986083984375 61.33012771606445 301.5 62.0 304.0" stroke-width="0.0" fill="rgb(255, 255, 255)" opacity="1.0" stroke="rgb(64, 110, 3)" stroke-opacity="0.19671986" stroke-linecap="round" stroke-linejoin="round"/>
    <path d="M 263.0 371.0 C 262.33013916015625 373.5 260.5 375.33013916015625 258.0 376.0 C 255.5 375.33013916015625 253.6698760986328 373.5 253.0 371.0 C 253.6698760986328 368.5 255.5 366.66986083984375 258.0 366.0 C 260.5 366.66986083984375 262.33013916015625 368.5 263.0 371.0" stroke-width="0.0" fill="rgb(0, 0, 44)" opacity="1.0" stroke="rgb(234, 158, 118)" stroke-opacity="0.025759516" stroke-linecap="round" stroke-linejoin="round"/>
    <path d="M 258.0 373.0 C 257.33013916015625 375.5 255.5 377.33013916015625 253.0 378.0 C 250.5 377.33013916015625 248.6698760986328 375.5 248.0 373.0 C 248.6698760986328 370.5 250.5 368.66986083984375 253.0 368.0 C 255.5 368.66986083984375 257.33013916015625 370.5 258.0 373.0" stroke-width="0.0" fill="rgb(255, 255, 255)" opacity="1.0" stroke="rgb(154, 170, 194)" stroke-opacity="0.42836043" stroke-linecap="round" stroke-linejoin="round"/>
    <path d="M 299.0 377.0 C 298.33013916015625 379.5 296.5 381.33013916015625 294.0 382.0 C 291.5 381.33013916015625 289.66986083984375 379.5 289.0 377.0 C 289.66986083984375 374.5 291.5 372.66986083984375 294.0 372.0 C 296.5 372.66986083984375 298.33013916015625 374.5 299.0 377.0" stroke-width="0.0" fill="rgb(255, 255, 255)" opacity="1.0" stroke="rgb(106, 91, 173)" stroke-opacity="0.4620342" stroke-linecap="round" stroke-linejoin="round"/>
    <path d="M 164.0 99.0 C 163.3301239013672 101.5 161.5 103.33012390136719 159.0 104.0 C 156.5 103.33012390136719 154.6698760986328 101.5 154.0 99.0 C 154.6698760986328 96.5 156.5 94.66987609863281 159.0 94.0 C 161.5 94.66987609863281 163.3301239013672 96.5 164.0 99.0" stroke-width="0.0" fill="rgb(255, 255, 255)" opacity="1.0" stroke="rgb(12, 78, 190)" stroke-opacity="0.8352471" stroke-linecap="round" stroke-linejoin="round"/>
    <path d="M 309.0 165.0 C 308.33013916015625 167.5 306.5 169.3301239013672 304.0 170.0 C 301.5 169.3301239013672 299.66986083984375 167.5 299.0 165.0 C 299.66986083984375 162.5 301.5 160.6698760986328 304.0 160.0 C 306.5 160.6698760986328 308.33013916015625 162.5 309.0 165.0" stroke-width="0.0" fill="rgb(255, 255, 255)" opacity="1.0" stroke="rgb(20, 14, 197)" stroke-opacity="0.9776297" stroke-linecap="round" stroke-linejoin="round"/>
    <path d="M 347.0 200.0 C 346.33013916015625 202.5 344.5 204.3301239013672 342.0 205.0 C 339.5 204.3301239013672 337.66986083984375 202.5 337.0 200.0 C 337.66986083984375 197.5 339.5 195.6698760986328 342.0 195.0 C 344.5 195.6698760986328 346.33013916015625 197.5 347.0 200.0" stroke-width="0.0" fill="rgb(0, 0, 41)" opacity="1.0" stroke="rgb(182, 183, 229)" stroke-opacity="0.43439427" stroke-linecap="round" stroke-linejoin="round"/>
    <path d="M 338.0 205.0 C 337.33013916015625 207.5 335.5 209.3301239013672 333.0 210.0 C 330.5 209.3301239013672 328.66986083984375 207.5 328.0 205.0 C 328.66986083984375 202.5 330.5 200.6698760986328 333.0 200.0 C 335.5 200.6698760986328 337.33013916015625 202.5 338.0 205.0" stroke-width="0.0" fill="rgb(255, 255, 255)" opacity="1.0" stroke="rgb(183, 207, 75)" stroke-opacity="0.60941136" stroke-linecap="round" stroke-linejoin="round"/>
    <path d="M 99.0 208.0 C 98.33012390136719 210.5 96.5 212.3301239013672 94.0 213.0 C 91.5 212.3301239013672 89.66987609863281 210.5 89.0 208.0 C 89.66987609863281 205.5 91.5 203.6698760986328 94.0 203.0 C 96.5 203.6698760986328 98.33012390136719 205.5 99.0 208.0" stroke-width="0.0" fill="rgb(0, 0, 42)" opacity="1.0" stroke="rgb(215, 243, 249)" stroke-opacity="0.70224345" stroke-linecap="round" stroke-linejoin="round"/>
    <path d="M 136.0 210.0 C 135.3301239013672 212.5 133.5 214.3301239013672 131.0 215.0 C 128.5 214.3301239013672 126.66987609863281 212.5 126.0 210.0 C 126.66987609863281 207.5 128.5 205.6698760986328 131.0 205.0 C 133.5 205.6698760986328 135.3301239013672 207.5 136.0 210.0" stroke-width="0.0" fill="rgb(0, 0, 42)" opacity="1.0" stroke="rgb(46, 196, 219)" stroke-opacity="0.078265645" stroke-linecap="round" stroke-linejoin="round"/>
    <path d="M 131.0 212.0 C 130.3301239013672 214.5 128.5 216.3301239013672 126.0 217.0 C 123.5 216.3301239013672 121.66987609863281 214.5 121.0 212.0 C 121.66987609863281 209.5 123.5 207.6698760986328 126.0 207.0 C 128.5 207.6698760986328 130.3301239013672 209.5 131.0 212.0" stroke-width="0.0" fill="rgb(0, 0, 42)" opacity="1.0" stroke="rgb(0, 10, 0)" stroke-opacity="0.41096687" stroke-linecap="round" stroke-linejoin="round"/>
    <path d="M 159.0 224.0 C 158.3301239013672 226.5 156.5 228.3301239013672 154.0 229.0 C 151.5 228.3301239013672 149.6698760986328 226.5 149.0 224.0 C 149.6698760986328 221.5 151.5 219.6698760986328 154.0 219.0 C 156.5 219.6698760986328 158.3301239013672 221.5 159.0 224.0" stroke-width="0.0" fill="rgb(255, 255, 255)" opacity="1.0" stroke="rgb(20, 73, 132)" stroke-opacity="0.918402" stroke-linecap="round" stroke-linejoin="round"/>
    <path d="M 99.0 248.0 C 98.33012390136719 250.5 96.5 252.3301239013672 94.0 253.0 C 91.5 252.3301239013672 89.66987609863281 250.5 89.0 248.0 C 89.66987609863281 245.5 91.5 243.6698760986328 94.0 243.0 C 96.5 243.6698760986328 98.33012390136719 245.5 99.0 248.0" stroke-width="0.0" fill="rgb(0, 0, 41)" opacity="1.0" stroke="rgb(41, 36, 38)" stroke-opacity="0.72813165" stroke-linecap="round" stroke-linejoin="round"/>
    <path d="M 144.0 269.0 C 143.3301239013672 271.5 141.5 273.33013916015625 139.0 274.0 C 136.5 273.33013916015625 134.6698760986328 271.5 134.0 269.0 C 134.6698760986328 266.5 136.5 264.66986083984375 139.0 264.0 C 141.5 264.66986083984375 143.3301239013672 266.5 144.0 269.0" stroke-width="0.0" fill="rgb(255, 255, 255)" opacity="1.0" stroke="rgb(208, 116, 62)" stroke-opacity="0.66918266" stroke-linecap="round" stroke-linejoin="round"/>
    <path d="M 230.0 273.0 C 229.3301239013672 275.5 227.5 277.33013916015625 225.0 278.0 C 222.5 277.33013916015625 220.6698760986328 275.5 220.0 273.0 C 220.6698760986328 270.5 222.5 268.66986083984375 225.0 268.0 C 227.5 268.66986083984375 229.3301239013672 270.5 230.0 273.0" stroke-width="0.0" fill="rgb(255, 255, 255)" opacity="1.0" stroke="rgb(118, 231, 198)" stroke-opacity="0.43663195" stroke-linecap="round" stroke-linejoin="round"/>
    <path d="M 228.0 286.0 C 227.3301239013672 288.5 225.5 290.33013916015625 223.0 291.0 C 220.5 290.33013916015625 218.6698760986328 288.5 218.0 286.0 C 218.6698760986328 283.5 220.5 281.66986083984375 223.0 281.0 C 225.5 281.66986083984375 227.3301239013672 283.5 228.0 286.0" stroke-width="0.0" fill="rgb(255, 255, 255)" opacity="1.0" stroke="rgb(24, 48, 37)" stroke-opacity="0.98067975" stroke-linecap="round" stroke-linejoin="round"/>
    <path d="M 227.0 293.0 C 226.3301239013672 295.5 224.5 297.33013916015625 222.0 298.0 C 219.5 297.33013916015625 217.6698760986328 295.5 217.0 293.0 C 217.6698760986328 290.5 219.5 288.66986083984375 222.0 288.0 C 224.5 288.66986083984375 226.3301239013672 290.5 227.0 293.0" stroke-width="0.0" fill="rgb(255, 255, 255)" opacity="1.0" stroke="rgb(155, 0, 52)" stroke-opacity="0.8588378" stroke-linecap="round" stroke-linejoin="round"/>
    <path d="M 67.0 302.0 C 66.33012390136719 304.5 64.5 306.33013916015625 62.0 307.0 C 59.5 306.33013916015625 57.66987228393555 304.5 57.0 302.0 C 57.66987228393555 299.5 59.5 297.66986083984375 62.0 297.0 C 64.5 297.66986083984375 66.33012390136719 299.5 67.0 302.0" stroke-width="0.0" fill="rgb(0, 0, 43)" opacity="1.0" stroke="rgb(104, 218, 109)" stroke-opacity="0.34149873" stroke-linecap="round" stroke-linejoin="round"/>
    <path d="M 376.0 306.0 C 375.33013916015625 308.5 373.5 310.33013916015625 371.0 311.0 C 368.5 310.33013916015625 366.66986083984375 308.5 366.0 306.0 C 366.66986083984375 303.5 368.5 301.66986083984375 371.0 301.0 C 373.5 301.66986083984375 375.33013916015625 303.5 376.0 306.0" stroke-width="0.0" fill="rgb(255, 255, 255)" opacity="1.0" stroke="rgb(246, 23, 84)" stroke-opacity="0.9591956" stroke-linecap="round" stroke-linejoin="round"/>
    <path d="M 422.0 324.0 C 421.33013916015625 326.5 419.5 328.33013916015625 417.0 329.0 C 414.5 328.33013916015625 412.66986083984375 326.5 412.0 324.0 C 412.66986083984375 321.5 414.5 319.66986083984375 417.0 319.0 C 419.5 319.66986083984375 421.33013916015625 321.5 422.0 324.0" stroke-width="0.0" fill="rgb(0, 0, 42)" opacity="1.0" stroke="rgb(202, 186, 109)" stroke-opacity="0.4510333" stroke-linecap="round" stroke-linejoin="round"/>
    <path d="M 281.0 366.0 C 280.33013916015625 368.5 278.5 370.33013916015625 276.0 371.0 C 273.5 370.33013916015625 271.66986083984375 368.5 271.0 366.0 C 271.66986083984375 363.5 273.5 361.66986083984375 276.0 361.0 C 278.5 361.66986083984375 280.33013916015625 363.5 281.0 366.0" stroke-width="0.0" fill="rgb(255, 255, 255)" opacity="1.0" stroke="rgb(17, 96, 129)" stroke-opacity="0.45461932" stroke-linecap="round" stroke-linejoin="round"/>
  </g>
</svg>
