<?xml version="1.0" ?>
<svg xmlns="http://www.w3.org/2000/svg" version="1.1" width="508" height="512">
  <defs/>
  <g>
    <path d="M -10.0 -10.0 C -9.0 -10.0 508.0 0.0 509.0 0.0 C 510.0 0.0 508.0 512.0 509.0 512.0 C 509.0 513.0 0.0 512.0 0.0 513.0 C 0.0 512.0 0.0 513.0 -10.0 -10.0 L -10.0 -10.0" stroke-width="2.0" fill="rgb(199, 197, 185)" opacity="0.81214243"/>
    <path d="M 491.04071044921875 226.82650756835938 C 490.8148193359375 227.05711364746094 490.65753173828125 226.3384246826172 490.22601318359375 227.26202392578125 C 491.71392822265625 226.22364807128906 491.11785888671875 226.2541046142578 490.4273681640625 227.37643432617188 C 490.9080505371094 226.80862426757812 490.6973876953125 227.32321166992188 489.8009948730469 226.6396026611328 C 490.66436767578125 227.33616638183594 490.700439453125 226.1485595703125 491.58367919921875 227.46522521972656 L 491.04071044921875 226.82650756835938" stroke-width="2.0" fill="rgb(38, 205, 208)" opacity="0.12892999"/>
    <path d="M 402.9180603027344 65.24410247802734 C 382.0717468261719 51.470462799072266 367.16912841796875 82.49441528320312 377.73236083984375 80.08466339111328 C 277.47314453125 89.36986541748047 304.3978271484375 97.86031341552734 323.69183349609375 67.15872192382812 C 325.9668273925781 -1.1125651597976685 325.6994934082031 12.26393985748291 322.1374206542969 10.7208890914917 C 362.52545166015625 5.917685508728027 391.63861083984375 8.798691749572754 383.9518127441406 8.167299270629883 L 402.9180603027344 65.24410247802734" stroke-width="2.0" fill="rgb(54, 128, 144)" opacity="0.4579054"/>
    <path d="M 179.4864044189453 319.4574279785156 C 178.8286590576172 320.79510498046875 177.7911376953125 321.5978698730469 176.3617401123047 321.0985107421875 C 175.08346557617188 321.24444580078125 174.0426483154297 320.6079406738281 174.6669921875 319.69781494140625 C 173.7604217529297 318.4119873046875 173.84767150878906 317.2443542480469 174.80526733398438 315.88702392578125 C 176.1955108642578 316.1153869628906 177.39456176757812 316.7307434082031 178.4231719970703 317.7323303222656 L 179.4864044189453 319.4574279785156" stroke-width="2.0" fill="rgb(188, 68, 19)" opacity="0.0"/>
    <path d="M 9.965579986572266 235.80270385742188 C 71.40792083740234 217.29217529296875 80.578369140625 250.25074768066406 6.165367126464844 308.8145751953125 C 11.666680335998535 553.2235107421875 -68.84119415283203 490.6247253417969 525.0573120117188 506.2825622558594 C -358.91900634765625 835.7023315429688 -331.64599609375 -262.54150390625 434.3667907714844 -36.067081451416016 C 733.2713623046875 69.70221710205078 143.19085693359375 -73.47964477539062 6.399928569793701 108.08443450927734 L 9.965579986572266 235.80270385742188" stroke-width="2.0" fill="rgb(249, 248, 248)" opacity="1.0"/>
    <path d="M 324.2300109863281 57.14592742919922 C 324.74322509765625 83.21879577636719 315.02923583984375 61.24365997314453 297.808837890625 90.57147979736328 C 322.7455139160156 64.3204345703125 296.8722229003906 43.17795181274414 285.54364013671875 42.91643142700195 C 250.2371826171875 40.13713455200195 261.4847717285156 88.04633331298828 259.7008972167969 7.801566123962402 C 373.53912353515625 7.892207622528076 379.94232177734375 7.298239231109619 325.375732421875 10.899290084838867 L 324.2300109863281 57.14592742919922" stroke-width="2.0" fill="rgb(117, 160, 165)" opacity="0.80385935"/>
    <path d="M 280.7635192871094 215.74005126953125 C 274.80438232421875 23.934885025024414 301.1173095703125 168.80995178222656 293.2286071777344 215.5601348876953 C 283.3800354003906 214.09228515625 212.5590362548828 162.63519287109375 189.17185974121094 223.32559204101562 C 198.30996704101562 209.99899291992188 182.92733764648438 205.06552124023438 236.2642364501953 194.96983337402344 C 210.10403442382812 163.1789093017578 206.00396728515625 204.86424255371094 269.762939453125 188.3846435546875 L 280.7635192871094 215.74005126953125" stroke-width="2.0" fill="rgb(0, 0, 27)" opacity="0.7629435"/>
    <path d="M 99.51893615722656 258.29803466796875 C 97.59471893310547 256.4200744628906 61.42117691040039 297.811767578125 30.281328201293945 309.86041259765625 C -2.766192674636841 307.4376525878906 7.259457588195801 309.1414489746094 5.513123512268066 302.8087158203125 C 5.442513465881348 195.65643310546875 2.016225814819336 215.83724975585938 12.124164581298828 231.4847412109375 C 34.26046371459961 265.5088195800781 26.702932357788086 239.27468872070312 12.034225463867188 258.4184265136719 L 99.51893615722656 258.29803466796875" stroke-width="2.0" fill="rgb(161, 30, 0)" opacity="1.0"/>
    <path d="M 14.192621231079102 307.3824768066406 C 46.22985076904297 312.0091552734375 31.392709732055664 292.45184326171875 36.52280044555664 342.51336669921875 C -3.807272434234619 337.91180419921875 7.032948970794678 355.386962890625 5.2249579429626465 308.08770751953125 C 18.629375457763672 309.4472351074219 13.043584823608398 310.7797546386719 13.686280250549316 283.3286437988281 C 30.167194366455078 282.5337829589844 35.89045715332031 282.18487548828125 13.449633598327637 283.33355712890625 L 14.192621231079102 307.3824768066406" stroke-width="2.0" fill="rgb(0, 104, 156)" opacity="0.55224997"/>
    <path d="M 502.3746032714844 505.9158630371094 C 486.15704345703125 496.290283203125 408.762451171875 498.7649841308594 429.7012939453125 503.73065185546875 C 436.6191711425781 505.4165954589844 389.9193420410156 504.73138427734375 257.0516662597656 504.7963562011719 C 308.5861511230469 452.1781005859375 360.5101318359375 477.7691955566406 335.3173522949219 470.1002197265625 C 440.7377014160156 472.87567138671875 351.9468688964844 469.705810546875 502.5570983886719 470.80621337890625 L 502.3746032714844 505.9158630371094" stroke-width="2.0" fill="rgb(21, 63, 97)" opacity="0.787307"/>
    <path d="M 460.3197937011719 90.96025848388672 C 492.0310363769531 130.7276153564453 466.9373474121094 132.9150390625 407.23486328125 126.0301513671875 C 372.5889587402344 145.04747009277344 346.6823425292969 174.79180908203125 354.46673583984375 90.72884368896484 C 395.2615051269531 90.05885314941406 408.58148193359375 90.8499984741211 411.6672058105469 90.30119323730469 C 458.7034606933594 91.59964752197266 415.8712158203125 87.14131164550781 419.4308776855469 82.00003051757812 L 460.3197937011719 90.96025848388672" stroke-width="2.0" fill="rgb(4, 106, 133)" opacity="0.32593894"/>
    <path d="M 98.30711364746094 280.0007019042969 C 43.73740005493164 227.72683715820312 54.074615478515625 228.60752868652344 53.33501434326172 231.7211456298828 C 8.098878860473633 226.28750610351562 49.35869216918945 282.0343933105469 5.49074125289917 226.67819213867188 C 5.639708042144775 189.09693908691406 4.661147594451904 138.5756072998047 7.227894306182861 164.97703552246094 C -4.662846565246582 163.63619995117188 66.4016342163086 160.34715270996094 98.66995239257812 168.70498657226562 L 98.30711364746094 280.0007019042969" stroke-width="2.0" fill="rgb(156, 31, 0)" opacity="1.0"/>
    <path d="M 451.4059143066406 254.4123077392578 C 420.20513916015625 272.4061279296875 396.0052795410156 251.45823669433594 389.965576171875 274.0693664550781 C 385.9346923828125 248.6102294921875 371.71990966796875 247.0701904296875 377.2879333496094 250.63221740722656 C 378.0920104980469 160.57484436035156 374.8822326660156 282.8020935058594 373.34088134765625 134.21652221679688 C 435.8092956542969 188.50515747070312 370.61602783203125 233.6451873779297 459.13470458984375 212.61805725097656 L 451.4059143066406 254.4123077392578" stroke-width="2.0" fill="rgb(46, 49, 67)" opacity="0.99573416"/>
    <path d="M 431.30499267578125 144.41981506347656 C 392.5784912109375 152.7222900390625 394.7690124511719 156.3155059814453 386.25225830078125 149.15577697753906 C 378.6119384765625 139.197265625 384.4366455078125 135.88677978515625 361.769775390625 210.1249542236328 C 354.7882995605469 152.42416381835938 330.3450927734375 116.68017578125 371.55572509765625 133.25424194335938 C 401.24810791015625 151.31906127929688 378.30377197265625 158.1090087890625 411.277099609375 149.04583740234375 L 431.30499267578125 144.41981506347656" stroke-width="2.0" fill="rgb(30, 41, 66)" opacity="0.952887"/>
    <path d="M 329.2709655761719 431.3304138183594 C 298.7012023925781 414.8017578125 294.29595947265625 429.1571350097656 309.49334716796875 431.26007080078125 C 292.0755920410156 431.9704284667969 279.37078857421875 431.20599365234375 232.9813232421875 431.5143127441406 C 240.6223602294922 415.6766052246094 241.29217529296875 421.92718505859375 243.31088256835938 419.720703125 C 284.6379699707031 418.8627014160156 269.8411865234375 419.6634521484375 406.380615234375 419.32684326171875 L 329.2709655761719 431.3304138183594" stroke-width="2.0" fill="rgb(38, 22, 36)" opacity="0.8077893"/>
    <path d="M 172.72535705566406 361.8480224609375 C 172.3925018310547 366.4803771972656 172.26060485839844 366.030517578125 169.08990478515625 366.5632629394531 C 172.145263671875 365.419921875 172.58380126953125 367.1131896972656 167.3621826171875 365.65765380859375 C 168.09027099609375 356.98162841796875 165.58091735839844 348.76654052734375 172.6322784423828 352.70751953125 C 173.02487182617188 369.6377258300781 172.12225341796875 360.0832214355469 172.24508666992188 368.28948974609375 L 172.72535705566406 361.8480224609375" stroke-width="2.0" fill="rgb(0, 9, 34)" opacity="0.8424239"/>
    <path d="M 26.21013641357422 445.81182861328125 C 11.53812313079834 555.406494140625 111.33837890625 446.4394836425781 64.4190902709961 460.64105224609375 C -35.681217193603516 443.3330078125 53.688655853271484 506.8263244628906 24.943302154541016 502.12896728515625 C 29.329282760620117 366.8232116699219 0.26103129982948303 433.6101379394531 5.743257522583008 400.8056945800781 C 235.91693115234375 400.15106201171875 297.1208801269531 401.58013916015625 47.142051696777344 411.9424133300781 L 26.21013641357422 445.81182861328125" stroke-width="2.0" fill="rgb(2, 1, 26)" opacity="0.8097028"/>
    <path d="M 259.7059020996094 39.11038589477539 C 259.82562255859375 69.67984771728516 250.07130432128906 80.73665618896484 212.8257293701172 102.40433502197266 C 186.7935791015625 117.594970703125 145.23472595214844 140.05686950683594 130.224853515625 149.2213134765625 C 125.27815246582031 -49.08586120605469 110.95838928222656 29.73119354248047 113.19598388671875 10.488051414489746 C 237.70101928710938 8.136549949645996 272.3474426269531 8.530245780944824 260.4014892578125 9.417226791381836 L 259.7059020996094 39.11038589477539" stroke-width="2.0" fill="rgb(9, 107, 132)" opacity="0.34322092"/>
    <path d="M 503.9400329589844 411.60980224609375 C 496.5971374511719 408.6881408691406 497.898193359375 424.63934326171875 497.43426513671875 372.6422424316406 C 432.0627746582031 403.2959289550781 545.912841796875 358.5660095214844 472.9513244628906 365.8948974609375 C 471.0984191894531 331.0169372558594 482.9039001464844 398.96527099609375 489.8288269042969 342.6292419433594 C 503.0365905761719 410.76495361328125 493.2676086425781 316.27276611328125 503.8216552734375 332.6130676269531 L 503.9400329589844 411.60980224609375" stroke-width="2.0" fill="rgb(10, 2, 23)" opacity="0.8412343"/>
    <path d="M 49.81952667236328 218.7409210205078 C 48.93030548095703 223.40066528320312 51.754417419433594 224.05648803710938 44.6638069152832 217.35215759277344 C 19.261327743530273 215.54478454589844 21.000320434570312 217.69375610351562 21.85098648071289 220.5186767578125 C 25.40135955810547 222.06466674804688 31.97243881225586 224.3320770263672 45.03865051269531 218.4888916015625 C 60.18452835083008 208.5879364013672 54.23725509643555 205.8289794921875 51.047752380371094 204.69363403320312 L 49.81952667236328 218.7409210205078" stroke-width="2.0" fill="rgb(159, 182, 83)" opacity="0.0"/>
    <path d="M 263.90802001953125 437.22808837890625 C 262.58636474609375 420.3544006347656 263.29510498046875 424.2111511230469 245.58050537109375 430.72222900390625 C 244.9626922607422 421.2168273925781 279.17364501953125 421.24554443359375 176.51181030273438 421.1463928222656 C 202.11927795410156 391.8373107910156 243.27894592285156 419.0482482910156 248.97703552246094 382.0664978027344 C 250.4316864013672 461.94140625 247.31396484375 416.7866516113281 262.43402099609375 418.7223815917969 L 263.90802001953125 437.22808837890625" stroke-width="2.0" fill="rgb(232, 75, 45)" opacity="0.20845246"/>
    <path d="M 125.87147521972656 316.88543701171875 C 123.75682067871094 339.972900390625 134.11427307128906 326.7908630371094 94.31603240966797 331.70672607421875 C 91.76338195800781 300.3153381347656 108.18451690673828 320.3079833984375 59.4586067199707 284.2750244140625 C 78.82931518554688 294.50213623046875 99.20091247558594 326.47991943359375 83.83615112304688 267.3335876464844 C 96.2755355834961 279.4276123046875 102.3179931640625 275.9522705078125 113.24224090576172 291.3004455566406 L 125.87147521972656 316.88543701171875" stroke-width="2.0" fill="rgb(26, 22, 44)" opacity="0.8899157"/>
    <path d="M 401.0605773925781 292.5361633300781 C 408.0268859863281 294.2283630371094 366.0171203613281 293.2374267578125 389.1805725097656 292.6780700683594 C 364.425537109375 291.8325500488281 376.30218505859375 298.59417724609375 371.55841064453125 274.58575439453125 C 369.40826416015625 257.4968566894531 409.1488952636719 289.3677673339844 395.831787109375 232.5027313232422 C 453.1287536621094 230.98193359375 446.92425537109375 242.43460083007812 401.407470703125 255.53887939453125 L 401.0605773925781 292.5361633300781" stroke-width="2.0" fill="rgb(34, 35, 57)" opacity="0.86112505"/>
    <path d="M 503.9222412109375 149.21279907226562 C 453.2514953613281 83.35686492919922 459.84600830078125 88.46033477783203 460.7358093261719 91.27365112304688 C 373.85418701171875 69.68799591064453 425.4818115234375 93.31352996826172 402.5434265136719 64.19915771484375 C 382.53424072265625 3.878966808319092 384.06597900390625 8.061543464660645 383.86737060546875 7.992221355438232 C 449.5784606933594 7.881828308105469 471.5106506347656 7.463444709777832 503.9461669921875 8.069413185119629 L 503.9222412109375 149.21279907226562" stroke-width="2.0" fill="rgb(11, 105, 129)" opacity="0.3595419"/>
    <path d="M 383.31707763671875 74.91659545898438 C 384.4646911621094 75.40963745117188 383.7808532714844 75.9316177368164 385.05303955078125 73.83696746826172 C 386.2021484375 75.64375305175781 384.83880615234375 75.46737670898438 386.19586181640625 75.23621368408203 C 385.6746826171875 76.9653549194336 386.5915832519531 76.64456939697266 386.57086181640625 78.42829895019531 C 383.9312438964844 76.17931365966797 383.8965759277344 76.75244140625 383.9630126953125 77.42848205566406 L 383.31707763671875 74.91659545898438" stroke-width="2.0" fill="rgb(84, 139, 162)" opacity="0.0"/>
    <path d="M 517.0426025390625 307.6664123535156 C 436.3942565917969 235.9105224609375 405.0103759765625 253.20492553710938 460.4613342285156 220.25828552246094 C 379.628662109375 200.90211486816406 397.20489501953125 232.48916625976562 394.62603759765625 189.23440551757812 C 393.2799072265625 206.20448303222656 397.6553649902344 156.70423889160156 390.66943359375 154.96163940429688 C 408.81451416015625 168.75758361816406 360.4451599121094 162.8165283203125 519.4480590820312 164.80899047851562 L 517.0426025390625 307.6664123535156" stroke-width="2.0" fill="rgb(229, 190, 166)" opacity="0.9865099"/>
    <path d="M 243.5526580810547 353.0594177246094 C 238.75930786132812 415.6434020996094 250.9571533203125 395.0163269042969 247.66273498535156 401.4031982421875 C 254.7288818359375 423.0941467285156 211.7092742919922 405.5815734863281 197.052490234375 405.18878173828125 C 200.1133270263672 211.56915283203125 190.02474975585938 386.6571044921875 191.6944122314453 248.4534912109375 C 221.2216339111328 281.6533203125 201.0554962158203 313.2197265625 217.38868713378906 305.0273742675781 L 243.5526580810547 353.0594177246094" stroke-width="2.0" fill="rgb(9, 91, 137)" opacity="0.56589407"/>
    <path d="M 212.5574951171875 450.1861877441406 C 192.50364685058594 402.4632263183594 202.76548767089844 446.324951171875 223.78494262695312 473.8086242675781 C 104.0960922241211 478.4222717285156 129.39625549316406 480.0871276855469 198.0562286376953 474.8355407714844 C 223.13568115234375 377.05572509765625 149.20892333984375 427.8542785644531 145.32598876953125 413.63238525390625 C 276.75146484375 376.9606628417969 274.06011962890625 431.4631652832031 191.86904907226562 407.897705078125 L 212.5574951171875 450.1861877441406" stroke-width="2.0" fill="rgb(16, 6, 26)" opacity="0.6907574"/>
    <path d="M 373.8890380859375 369.42181396484375 C 344.50048828125 335.6922912597656 369.8533935546875 353.41961669921875 349.0924987792969 328.68536376953125 C 369.8381652832031 299.35504150390625 347.1205749511719 355.3376770019531 364.34844970703125 351.6875915527344 C 364.53594970703125 304.12933349609375 364.2292785644531 305.65008544921875 365.0584411621094 307.98565673828125 C 366.7342529296875 254.9026641845703 361.9654235839844 273.8160095214844 373.4850158691406 268.5111083984375 L 373.8890380859375 369.42181396484375" stroke-width="2.0" fill="rgb(60, 72, 95)" opacity="0.9602569"/>
    <path d="M 96.63988494873047 147.0462188720703 C 97.87937927246094 158.88380432128906 96.50545501708984 159.34217834472656 97.40192413330078 163.76914978027344 C 4.645158767700195 161.6321258544922 154.65853881835938 167.33688354492188 6.479695796966553 175.5458221435547 C 5.240602970123291 93.00177764892578 21.871030807495117 101.45262908935547 83.75784301757812 77.08537292480469 C 211.2662353515625 126.75381469726562 89.20099639892578 52.03583908081055 104.7170181274414 146.04513549804688 L 96.63988494873047 147.0462188720703" stroke-width="2.0" fill="rgb(53, 133, 149)" opacity="0.41198602"/>
    <path d="M 280.2689208984375 211.41741943359375 C 267.52044677734375 217.4181671142578 282.29150390625 158.83238220214844 264.8924560546875 220.0050048828125 C 258.9988708496094 263.6759033203125 295.1109924316406 247.71559143066406 130.5602264404297 252.32623291015625 C 139.8190460205078 152.41885375976562 153.96900939941406 165.24436950683594 207.98777770996094 164.50967407226562 C 267.9957275390625 164.3605499267578 291.5746765136719 165.0142059326172 257.9803771972656 164.68116760253906 L 280.2689208984375 211.41741943359375" stroke-width="2.0" fill="rgb(228, 190, 167)" opacity="1.0"/>
    <path d="M 115.63915252685547 245.89271545410156 C 116.37105560302734 301.5361633300781 144.3760986328125 291.2513427734375 143.51898193359375 291.7210693359375 C 153.27757263183594 187.63973999023438 108.45899200439453 120.662841796875 116.30929565429688 219.4287567138672 C 65.36439514160156 246.4537353515625 138.53604125976562 276.44287109375 130.34559631347656 300.8034973144531 C 80.61602020263672 390.60980224609375 145.36712646484375 288.0654296875 99.34038543701172 279.2767028808594 L 115.63915252685547 245.89271545410156" stroke-width="2.0" fill="rgb(255, 249, 233)" opacity="0.7359494"/>
    <path d="M 425.4453125 414.1369323730469 C 424.4751281738281 408.8117980957031 432.2334289550781 412.9884948730469 396.1341247558594 411.3009033203125 C 417.34332275390625 417.6558837890625 379.1810607910156 338.896484375 381.5474548339844 410.9924621582031 C 377.9498291015625 422.78656005859375 379.7536315917969 358.7737121582031 379.2693786621094 368.64794921875 C 378.212158203125 370.6247253417969 428.87457275390625 367.1080627441406 425.7437744140625 369.8997802734375 L 425.4453125 414.1369323730469" stroke-width="2.0" fill="rgb(10, 16, 41)" opacity="0.79939747"/>
    <path d="M 115.56433868408203 66.96430206298828 C 98.27983093261719 144.85952758789062 67.06449890136719 86.81547546386719 25.20147705078125 114.5370864868164 C -8.132089614868164 163.9936065673828 19.109371185302734 164.2259979248047 5.4952898025512695 164.2555694580078 C 5.473658084869385 45.868011474609375 5.345178604125977 23.184703826904297 5.361934661865234 7.834897994995117 C 49.58210754394531 7.969054698944092 103.3097915649414 7.8245697021484375 292.37939453125 7.795046329498291 L 115.56433868408203 66.96430206298828" stroke-width="2.0" fill="rgb(136, 170, 173)" opacity="1.0"/>
    <path d="M 502.8407287597656 -16.347942352294922 C 502.2218017578125 29.55964469909668 502.709228515625 79.73446655273438 502.3340148925781 190.7598876953125 C 502.6757507324219 132.9915008544922 502.74945068359375 163.00033569335938 502.3838195800781 145.9870147705078 C 502.7844543457031 192.84860229492188 502.2392272949219 269.2054443359375 502.74993896484375 522.50927734375 C 662.0784912109375 313.86370849609375 518.796142578125 158.28805541992188 585.2980346679688 115.3150405883789 L 502.8407287597656 -16.347942352294922" stroke-width="2.0" fill="rgb(252, 251, 252)" opacity="0.9302388"/>
    <path d="M 186.9605255126953 406.1175842285156 C 85.9554214477539 422.33026123046875 98.176513671875 413.47607421875 83.23680877685547 424.7023010253906 C 129.74838256835938 403.1526794433594 55.00941848754883 444.71630859375 59.199546813964844 407.59381103515625 C 96.06734466552734 391.76019287109375 25.923376083374023 381.7759704589844 78.71516418457031 382.24652099609375 C 69.84097290039062 463.9544677734375 136.30947875976562 333.78521728515625 124.929931640625 402.64495849609375 L 186.9605255126953 406.1175842285156" stroke-width="2.0" fill="rgb(48, 45, 61)" opacity="0.9839757"/>
    <path d="M 143.10195922851562 123.63939666748047 C 154.9105224609375 111.52670288085938 142.3531951904297 157.7831573486328 154.47283935546875 149.01077270507812 C 149.4220428466797 280.6744384765625 165.73226928710938 246.04608154296875 127.36559295654297 252.4333038330078 C 128.60623168945312 54.21223449707031 122.33943176269531 43.094818115234375 140.754150390625 80.79358673095703 C 138.66969299316406 134.87588500976562 136.8417205810547 129.21881103515625 162.0498504638672 104.74649810791016 L 143.10195922851562 123.63939666748047" stroke-width="2.0" fill="rgb(47, 50, 70)" opacity="1.0"/>
    <path d="M 502.881591796875 147.68197631835938 C 498.9400939941406 172.90304565429688 517.8130493164062 159.15428161621094 457.2083740234375 163.55545043945312 C 360.76385498046875 161.38426208496094 410.83856201171875 171.29908752441406 381.7949523925781 141.07960510253906 C 375.86480712890625 144.59121704101562 374.3099670410156 146.03453063964844 407.24664306640625 125.78504943847656 C 474.2135314941406 134.31126403808594 485.00128173828125 125.75390625 464.6039123535156 97.0514144897461 L 502.881591796875 147.68197631835938" stroke-width="2.0" fill="rgb(117, 163, 170)" opacity="0.6402295"/>
    <path d="M 497.4164123535156 355.0645751953125 C 497.0821228027344 343.0767822265625 506.0083312988281 350.3886413574219 496.6954040527344 385.3804016113281 C 514.56298828125 304.2558898925781 474.537353515625 402.19580078125 472.7137145996094 349.88916015625 C 489.9377136230469 341.8768005371094 461.6318054199219 388.9146423339844 497.85150146484375 351.36053466796875 C 497.57830810546875 325.8597412109375 496.6351623535156 331.521240234375 500.37213134765625 330.1222839355469 L 497.4164123535156 355.0645751953125" stroke-width="2.0" fill="rgb(48, 0, 0)" opacity="1.0"/>
    <path d="M 35.58598327636719 388.9071960449219 C 33.943477630615234 387.72528076171875 33.75183868408203 388.1009216308594 34.60670852661133 389.2928771972656 C 36.623046875 389.17333984375 36.51005935668945 388.12530517578125 36.42552947998047 387.2878112792969 C 33.98185729980469 389.4559020996094 34.97207260131836 389.8806457519531 36.79172897338867 390.41131591796875 C 34.840091705322266 387.8196105957031 34.59267044067383 389.3011169433594 33.5667610168457 391.0444641113281 L 35.58598327636719 388.9071960449219" stroke-width="2.0" fill="rgb(106, 210, 209)" opacity="0.0"/>
    <path d="M 269.8226318359375 351.2452392578125 C 275.45086669921875 351.2965393066406 249.0485382080078 350.7341613769531 248.711669921875 351.8587341308594 C 252.11264038085938 452.42578125 240.77554321289062 403.3868103027344 240.32742309570312 387.7342834472656 C 245.84056091308594 276.16986083984375 223.96914672851562 345.59686279296875 234.1904754638672 319.1777648925781 C 230.47238159179688 323.69720458984375 187.8468780517578 324.5265197753906 269.4699401855469 324.2591857910156 L 269.8226318359375 351.2452392578125" stroke-width="2.0" fill="rgb(43, 44, 66)" opacity="0.95796674"/>
    <path d="M 116.231201171875 252.19493103027344 C 63.228641510009766 270.7818298339844 328.2652893066406 330.82196044921875 87.44507598876953 275.782958984375 C -9.149432182312012 301.87506103515625 315.8096008300781 333.84375 4.367994785308838 307.9425964355469 C 1.3923090696334839 185.13534545898438 5.314424991607666 217.4105682373047 5.3426127433776855 163.69134521484375 C 157.7560577392578 157.45846557617188 134.29782104492188 195.7634735107422 108.97650146484375 209.0103759765625 L 116.231201171875 252.19493103027344" stroke-width="2.0" fill="rgb(255, 247, 226)" opacity="0.7190746"/>
    <path d="M 354.2929382324219 88.5582275390625 C 354.10870361328125 162.96226501464844 376.93487548828125 106.90892028808594 374.8979797363281 194.00148010253906 C 226.4580078125 123.90418243408203 312.8249206542969 202.88693237304688 281.5447692871094 122.36345672607422 C 309.3834533691406 92.00285339355469 294.5843811035156 78.3445053100586 320.6320495605469 71.46595764160156 C 305.51251220703125 93.9218978881836 283.161865234375 90.30139923095703 362.9433288574219 81.10549926757812 L 354.2929382324219 88.5582275390625" stroke-width="2.0" fill="rgb(121, 169, 180)" opacity="0.82269394"/>
    <path d="M 265.5232849121094 413.76214599609375 C 254.85018920898438 409.1720275878906 259.6997985839844 413.20709228515625 257.8798828125 412.0078430175781 C 256.97711181640625 417.6140441894531 258.01898193359375 381.27032470703125 257.28973388671875 389.00994873046875 C 265.41644287109375 390.8932189941406 259.90118408203125 387.48834228515625 261.8475341796875 390.5955505371094 C 270.71136474609375 382.2801513671875 246.02467346191406 362.5912170410156 264.210205078125 361.5372009277344 L 265.5232849121094 413.76214599609375" stroke-width="2.0" fill="rgb(13, 15, 42)" opacity="0.8019946"/>
    <path d="M 285.1479797363281 301.4903869628906 C 226.05345153808594 298.79754638671875 284.5888977050781 291.9617614746094 265.6280212402344 325.43951416015625 C 215.1017303466797 304.61895751953125 267.5781555175781 369.1236572265625 215.8577117919922 366.2614440917969 C 223.2782745361328 254.28260803222656 202.2752685546875 305.6231384277344 292.4902648925781 297.6532897949219 C 277.1389465332031 171.89321899414062 323.90203857421875 282.8365173339844 305.19390869140625 370.73504638671875 L 285.1479797363281 301.4903869628906" stroke-width="2.0" fill="rgb(79, 109, 132)" opacity="1.0"/>
    <path d="M 502.6606750488281 490.91656494140625 C 389.1551208496094 489.4941101074219 331.090087890625 490.5722351074219 254.37649536132812 490.680419921875 C 279.1618347167969 511.6246337890625 234.55435180664062 504.28411865234375 294.07879638671875 480.36224365234375 C 237.9232177734375 392.98046875 216.4867706298828 485.39630126953125 307.00396728515625 420.4269714355469 C 345.06207275390625 448.7702941894531 243.829833984375 438.5338134765625 502.2170104980469 439.2936096191406 L 502.6606750488281 490.91656494140625" stroke-width="2.0" fill="rgb(89, 148, 166)" opacity="0.55432236"/>
    <path d="M 222.15985107421875 492.4960021972656 C 198.125244140625 472.7677917480469 198.66122436523438 487.9385986328125 205.05067443847656 478.22900390625 C 165.23451232910156 488.23919677734375 122.5509033203125 464.95904541015625 74.66690826416016 503.7235412597656 C -3.514153480529785 480.4185791015625 -30.58802032470703 397.90960693359375 69.1272964477539 430.09722900390625 C 195.3305206298828 422.6319580078125 375.5662841796875 463.57183837890625 220.3280029296875 458.21875 L 222.15985107421875 492.4960021972656" stroke-width="2.0" fill="rgb(136, 174, 181)" opacity="0.9250059"/>
    <path d="M 260.06591796875 54.715213775634766 C 244.19691467285156 78.71527099609375 276.8606262207031 111.01510620117188 305.5905456542969 82.5164794921875 C 240.54617309570312 213.05633544921875 298.7175598144531 136.6358642578125 88.41355895996094 175.01258850097656 C 252.84628295898438 72.24544525146484 266.8734130859375 95.0039291381836 257.53533935546875 9.820534706115723 C 316.5613708496094 8.512184143066406 327.4842529296875 10.728378295898438 257.86065673828125 10.254693984985352 L 260.06591796875 54.715213775634766" stroke-width="2.0" fill="rgb(96, 155, 166)" opacity="0.5494048"/>
    <path d="M 373.33575439453125 369.2050476074219 C 348.5095520019531 369.86651611328125 324.0985412597656 368.6754455566406 350.75823974609375 369.8509826660156 C 291.2427978515625 366.94610595703125 308.0187072753906 377.1098327636719 304.8918762207031 351.65557861328125 C 223.22438049316406 343.59063720703125 471.4610595703125 363.76361083984375 323.5411071777344 333.48565673828125 C 348.79638671875 283.1959533691406 302.9659423828125 349.3292541503906 373.4272766113281 340.7484436035156 L 373.33575439453125 369.2050476074219" stroke-width="2.0" fill="rgb(49, 54, 73)" opacity="1.0"/>
    <path d="M 143.34706115722656 302.3652038574219 C 147.23214721679688 416.77728271484375 129.4583282470703 305.0105895996094 132.71775817871094 398.55609130859375 C 72.63684844970703 398.6443786621094 90.48086547851562 428.86456298828125 87.09071350097656 303.9814453125 C 96.98795318603516 297.8271484375 11.979694366455078 318.76666259765625 83.30561065673828 272.5464172363281 C 117.73273468017578 353.68377685546875 85.5048828125 340.54620361328125 97.78910827636719 303.29180908203125 L 143.34706115722656 302.3652038574219" stroke-width="2.0" fill="rgb(51, 131, 169)" opacity="0.66210127"/>
    <path d="M 373.7427978515625 245.0853729248047 C 416.7386779785156 288.0622253417969 356.29986572265625 250.96728515625 383.5122375488281 293.0939636230469 C 335.8097839355469 295.7891845703125 402.67620849609375 261.1426696777344 334.0533447265625 269.8371887207031 C 342.8003845214844 234.54437255859375 357.8326110839844 257.18438720703125 354.68194580078125 233.35134887695312 C 374.80767822265625 223.9471435546875 340.7265930175781 263.5030212402344 400.43841552734375 234.06776428222656 L 373.7427978515625 245.0853729248047" stroke-width="2.0" fill="rgb(68, 136, 168)" opacity="0.74487513"/>
    <path d="M 461.2621765136719 216.1802520751953 C 456.02301025390625 205.63848876953125 457.3662109375 199.31076049804688 457.36492919921875 262.55670166015625 C 439.6783142089844 262.5406799316406 427.9779052734375 262.71734619140625 412.2341613769531 262.4473571777344 C 409.5352478027344 184.9678955078125 423.2912902832031 224.20303344726562 428.9982604980469 212.41595458984375 C 470.7137451171875 222.0909423828125 450.3648376464844 195.10264587402344 465.4284362792969 225.0683135986328 L 461.2621765136719 216.1802520751953" stroke-width="2.0" fill="rgb(43, 46, 66)" opacity="0.95422083"/>
    <path d="M 119.04928588867188 5.7067742347717285 C 119.4749755859375 6.325328826904297 119.12751770019531 5.779367446899414 117.94602966308594 4.243122100830078 C 118.71851348876953 5.309619903564453 117.36380767822266 3.513331651687622 119.65789794921875 6.53169584274292 C 118.2529296875 4.71720552444458 118.20014953613281 4.690686225891113 118.90695190429688 5.499382019042969 C 116.427490234375 2.3922863006591797 117.90753173828125 4.207360744476318 117.53086853027344 3.7334675788879395 L 119.04928588867188 5.7067742347717285" stroke-width="2.0" fill="rgb(154, 255, 97)" opacity="0.03586982"/>
    <path d="M 438.7674560546875 273.7330017089844 C 437.9756774902344 274.2750244140625 439.03692626953125 273.62591552734375 439.4397888183594 273.12823486328125 C 439.84185791015625 273.0643310546875 439.693603515625 273.1486511230469 439.8311767578125 273.4195251464844 C 439.6842041015625 272.771240234375 439.46148681640625 273.1927795410156 439.3589172363281 273.1976623535156 C 439.0161437988281 273.65673828125 439.2459716796875 273.29827880859375 439.114501953125 273.4780578613281 L 438.7674560546875 273.7330017089844" stroke-width="2.0" fill="rgb(183, 169, 111)" opacity="0.057001747"/>
    <path d="M 498.3165588378906 410.34063720703125 C 497.3101806640625 413.6717529296875 499.82415771484375 412.033935546875 496.521484375 411.0923156738281 C 462.03765869140625 413.0509033203125 465.6216735839844 408.9464111328125 465.1725769042969 415.5926513671875 C 465.0731506347656 355.0284729003906 465.35479736328125 345.01727294921875 464.98663330078125 331.1663513183594 C 508.98236083984375 331.1041259765625 492.442138671875 331.17352294921875 498.34033203125 330.4557800292969 L 498.3165588378906 410.34063720703125" stroke-width="2.0" fill="rgb(0, 107, 165)" opacity="0.5276404"/>
    <path d="M 496.5682067871094 294.4477844238281 C 510.2773742675781 294.8349914550781 499.7452087402344 296.18536376953125 467.973388671875 295.3504638671875 C 441.2972106933594 292.23223876953125 486.5546875 342.2994079589844 427.83795166015625 328.51959228515625 C 417.7053527832031 251.42347717285156 469.7080993652344 334.1799011230469 457.6087646484375 262.5468444824219 C 495.9251708984375 262.2708435058594 500.44970703125 262.5916442871094 496.7392883300781 262.3473815917969 L 496.5682067871094 294.4477844238281" stroke-width="2.0" fill="rgb(20, 26, 50)" opacity="0.8670189"/>
    <path d="M 123.52903747558594 500.2404479980469 C 126.92570495605469 505.8289489746094 122.08158874511719 505.6676025390625 137.7888946533203 504.5082702636719 C 65.0065689086914 504.9754333496094 57.7591552734375 504.8601989746094 5.446504592895508 504.67462158203125 C 5.311434745788574 405.8446044921875 6.571595668792725 471.6601257324219 7.322305202484131 453.46630859375 C 286.0836181640625 456.02294921875 -182.2358856201172 463.4926452636719 121.7339859008789 473.5407409667969 L 123.52903747558594 500.2404479980469" stroke-width="2.0" fill="rgb(71, 110, 133)" opacity="1.0"/>
    <path d="M 366.6378479003906 431.42962646484375 C 285.1595764160156 431.5607604980469 286.3201599121094 431.2830810546875 290.6678161621094 428.2067565917969 C 283.7909851074219 432.0321960449219 305.8088073730469 430.2779846191406 249.30911254882812 430.4822998046875 C 213.66220092773438 437.7419128417969 294.7483215332031 368.7293701171875 61.152381896972656 420.3753662109375 C 595.862060546875 422.1714782714844 488.6283264160156 411.9544677734375 503.4478454589844 431.47607421875 L 366.6378479003906 431.42962646484375" stroke-width="2.0" fill="rgb(40, 42, 61)" opacity="1.0"/>
    <path d="M 25.65860939025879 371.73577880859375 C 63.979190826416016 229.2110137939453 6.020246982574463 372.3901062011719 88.72512817382812 333.8292236328125 C 48.35163879394531 320.7375183105469 1.9769623279571533 350.2096862792969 92.54622650146484 369.3631896972656 C 9.394221305847168 368.2820129394531 1.035044550895691 386.5885009765625 90.74901580810547 335.6322937011719 C 56.211551666259766 348.2630615234375 22.07904052734375 325.8775634765625 51.53438186645508 349.1657409667969 L 25.65860939025879 371.73577880859375" stroke-width="2.0" fill="rgb(255, 251, 232)" opacity="0.73020786"/>
    <path d="M 267.2906188964844 282.083251953125 C 273.9093017578125 315.92303466796875 245.13577270507812 283.0372314453125 252.14939880371094 305.1793212890625 C 252.9708709716797 298.2156066894531 154.27113342285156 317.0491943359375 170.24789428710938 299.390380859375 C 160.6255340576172 180.50306701660156 229.91419982910156 324.7049255371094 209.54747009277344 252.30923461914062 C 278.7969970703125 254.37074279785156 253.57122802734375 240.64956665039062 259.8672180175781 282.3209228515625 L 267.2906188964844 282.083251953125" stroke-width="2.0" fill="rgb(0, 76, 128)" opacity="0.49338964"/>
    <path d="M 290.7797546386719 503.36907958984375 C 202.86862182617188 506.3446350097656 188.2812957763672 506.6658020019531 244.11355590820312 504.94427490234375 C 147.23150634765625 503.8421630859375 88.41864776611328 506.52203369140625 123.27021789550781 501.46026611328125 C 122.00106811523438 469.7186279296875 126.759765625 489.4002380371094 132.78656005859375 489.21771240234375 C 215.1322021484375 489.3395080566406 181.8782958984375 493.38507080078125 207.64697265625 470.0852966308594 L 290.7797546386719 503.36907958984375" stroke-width="2.0" fill="rgb(60, 102, 127)" opacity="0.94388396"/>
    <path d="M 300.48443603515625 478.2345886230469 C 234.9005126953125 506.5230407714844 286.3328552246094 505.09857177734375 244.7837677001953 505.0337829589844 C 261.9069519042969 506.32977294921875 308.9878845214844 483.4874267578125 188.3776092529297 491.02740478515625 C 216.99380493164062 467.4776611328125 147.76455688476562 493.4659423828125 4.108164310455322 469.30078125 C 238.47116088867188 474.0006103515625 240.4080047607422 468.6994934082031 323.6544189453125 473.00250244140625 L 300.48443603515625 478.2345886230469" stroke-width="2.0" fill="rgb(81, 123, 145)" opacity="1.0"/>
    <path d="M 262.5505065917969 500.9740295410156 C 284.2769470214844 505.4436340332031 259.602783203125 507.1553955078125 259.7379455566406 502.21514892578125 C 260.461669921875 502.27496337890625 299.5650939941406 497.7141418457031 249.65887451171875 487.0149230957031 C 208.31573486328125 496.7535095214844 222.82122802734375 513.98779296875 219.187255859375 462.59649658203125 C 335.7858581542969 463.1873474121094 319.6562194824219 455.1505432128906 325.4841003417969 487.5823059082031 L 262.5505065917969 500.9740295410156" stroke-width="2.0" fill="rgb(76, 126, 150)" opacity="0.5461341"/>
    <path d="M 190.81349182128906 354.7216796875 C 189.2259521484375 354.9391784667969 190.4066619873047 354.9765625 193.21934509277344 357.5938720703125 C 192.9730987548828 356.8077087402344 192.78330993652344 357.1051330566406 191.7708282470703 357.9190368652344 C 192.51980590820312 355.9704895019531 192.4180908203125 354.961181640625 191.3917694091797 356.3505554199219 C 192.98439025878906 355.1890563964844 192.2328643798828 355.2782897949219 192.6105194091797 357.0348205566406 L 190.81349182128906 354.7216796875" stroke-width="2.0" fill="rgb(87, 41, 243)" opacity="0.0"/>
  </g>
</svg>
