<?xml version="1.0" ?>
<svg xmlns="http://www.w3.org/2000/svg" version="1.1" width="512" height="485">
  <defs/>
  <g>
    <path d="M 363.9023742675781 315.4661865234375 C 347.0638427734375 350.03887939453125 352.3592529296875 356.79901123046875 228.1649627685547 350.9107971191406 C 229.19937133789062 322.8084411621094 226.78269958496094 319.6357727050781 229.21800231933594 198.20278930664062 C 249.0511932373047 200.65567016601562 251.91485595703125 195.79428100585938 367.0751647949219 199.20162963867188 C 365.616943359375 224.93804931640625 369.3901672363281 228.69203186035156 363.9023742675781 315.4661865234375" stroke-width="0.0" fill="rgb(209, 0, 0)" opacity="0.16378303" stroke="rgb(34, 229, 218)" stroke-opacity="0.2306138" stroke-linecap="round" stroke-linejoin="round"/>
    <path d="M 233.0 151.0 C 232.3301239013672 153.5 230.5 155.3301239013672 228.0 156.0 C 225.5 155.3301239013672 223.6698760986328 153.5 223.0 151.0 C 223.6698760986328 148.5 225.5 146.6698760986328 228.0 146.0 C 230.5 146.6698760986328 232.3301239013672 148.5 233.0 151.0" stroke-width="0.0" fill="rgb(242, 237, 210)" opacity="1.0" stroke="rgb(253, 138, 129)" stroke-opacity="0.27324507" stroke-linecap="round" stroke-linejoin="round"/>
    <path d="M 242.0 398.0 C 241.3301239013672 400.5 239.5 402.33013916015625 237.0 403.0 C 234.5 402.33013916015625 232.6698760986328 400.5 232.0 398.0 C 232.6698760986328 395.5 234.5 393.66986083984375 237.0 393.0 C 239.5 393.66986083984375 241.3301239013672 395.5 242.0 398.0" stroke-width="0.0" fill="rgb(204, 200, 183)" opacity="1.0" stroke="rgb(229, 55, 115)" stroke-opacity="0.19410668" stroke-linecap="round" stroke-linejoin="round"/>
  </g>
</svg>
