<?xml version="1.0" ?>
<svg xmlns="http://www.w3.org/2000/svg" version="1.1" width="512" height="512">
  <defs/>
  <g>
    <path d="M 0.0 0.0 L 512.0 0.0 L 512.0 512.0 L 0.0 512.0 L 0.0 0.0" stroke-width="0.0" fill="rgb(255, 255, 255)" opacity="1.0" stroke="rgb(0, 0, 0)" stroke-opacity="0.0" stroke-linecap="round" stroke-linejoin="round"/>
    <path d="M 0.0 0.0 L 0.0 511.0 L 178.0 511.0 C 193.79446411132812 459.3333435058594 220.51136779785156 407.6666564941406 231.0 356.0 L 247.0 315.0 C 243.26007080078125 302.6470947265625 216.53512573242188 295.7078857421875 224.0 282.0 L 242.0 257.0 C 234.1399383544922 249.56968688964844 237.8925018310547 235.93234252929688 225.0 237.0 C 215.37648010253906 245.15733337402344 204.83804321289062 259.2128601074219 193.0 252.0 C 185.3842010498047 240.94175720214844 175.19967651367188 234.88722229003906 167.0 225.0 C 156.3333282470703 217.12989807128906 145.6666717529297 215.46946716308594 135.0 207.0 C 133.73382568359375 198.58474731445312 145.875732421875 179.0087890625 129.0 180.0 C 128.6666717529297 179.0 125.33333587646484 178.0 128.0 177.0 C 108.86309051513672 184.19851684570312 89.823486328125 167.55934143066406 78.0 151.0 C 72.3722152709961 158.47463989257812 74.03035736083984 171.3253631591797 83.0 179.0 C 86.66666412353516 182.1175994873047 90.33333587646484 179.59005737304688 94.0 184.0 C 82.38981628417969 193.27259826660156 68.34953308105469 174.26234436035156 68.0 164.0 C 67.30419921875 151.6666717529297 68.54520416259766 139.3333282470703 72.0 127.0 C 55.016658782958984 142.33570861816406 49.67457580566406 161.99822998046875 62.0 179.0 C 47.68546676635742 179.86317443847656 48.81228256225586 159.58726501464844 50.0 151.0 C 54.50405502319336 139.3333282470703 58.447200775146484 127.66666412353516 65.0 116.0 C 52.825050354003906 101.61856079101562 51.209556579589844 87.73348236083984 37.0 77.0 C 31.666837692260742 62.0 32.879661560058594 47.0 43.0 32.0 C 50.177677154541016 32.398292541503906 43.08927536010742 40.38005065917969 43.0 44.0 C 42.205814361572266 49.353050231933594 48.83984375 64.57598876953125 51.0 52.0 C 54.65419387817383 57.866336822509766 58.271575927734375 58.266719818115234 63.0 60.0 C 79.0 54.76488494873047 95.0 43.72835159301758 111.0 37.0 C 132.3333282470703 21.05251693725586 153.6666717529297 2.0226175785064697 175.0 0.0 L 0.0 0.0" stroke-width="2.0" fill="rgb(254, 254, 254)" opacity="1.0" stroke="rgb(0, 0, 0)" stroke-opacity="0.0" stroke-linecap="round" stroke-linejoin="round"/>
    <path d="M 242.0 0.0 L 243.0 15.0 C 248.57554626464844 20.12714195251465 261.3352355957031 7.890872001647949 262.0 17.0 C 259.3333435058594 20.236148834228516 256.6666564941406 22.030029296875 254.0 23.0 C 264.046630859375 34.51963806152344 279.6513671875 36.42280960083008 285.0 50.0 C 285.6662902832031 58.2037239074707 289.5733337402344 66.01879119873047 278.0 73.0 C 277.5965881347656 97.0 278.9621276855469 121.0 287.0 145.0 L 309.0 167.0 C 313.3333435058594 164.56077575683594 317.6666564941406 167.67031860351562 322.0 169.0 C 328.3333435058594 163.0994873046875 334.6666564941406 156.55459594726562 341.0 163.0 C 350.1452941894531 177.3333282470703 368.8410949707031 191.6666717529297 366.0 206.0 C 408.3240051269531 238.25941467285156 436.4107360839844 281.0146789550781 451.0 318.0 C 475.74993896484375 381.6666564941406 476.9682922363281 445.3333435058594 478.0 509.0 C 487.0694580078125 513.5914916992188 500.2821044921875 509.7221984863281 511.0 511.0 L 511.0 0.0 L 242.0 0.0" stroke-width="2.0" fill="rgb(254, 254, 254)" opacity="1.0" stroke="rgb(0, 0, 0)" stroke-opacity="0.0" stroke-linecap="round" stroke-linejoin="round"/>
    <path d="M 42.0 38.0 L 36.0 65.0 L 42.0 79.0 L 38.0 69.0 L 39.0 61.0 C 42.48008728027344 69.2524185180664 50.659423828125 78.43046569824219 58.0 84.0 C 56.936195373535156 86.89862060546875 51.71397018432617 84.54171752929688 49.0 84.0 C 53.678504943847656 94.33333587646484 58.306854248046875 104.66666412353516 67.0 115.0 C 65.95198059082031 122.33333587646484 59.867897033691406 129.6666717529297 58.0 137.0 C 63.81995391845703 132.5571746826172 67.862060546875 119.4996109008789 75.0 125.0 C 73.78357696533203 136.0 69.53060913085938 147.0 71.0 158.0 L 76.0 145.0 C 89.3985595703125 161.59170532226562 106.82164764404297 180.8651885986328 123.0 174.0 C 103.66712951660156 171.68618774414062 87.21798706054688 148.02796936035156 95.0 133.0 C 101.3039321899414 145.68580627441406 120.05303955078125 152.0512237548828 121.0 164.0 C 130.6067657470703 169.61404418945312 133.7011260986328 171.07476806640625 141.0 179.0 C 145.1673583984375 188.0 136.624755859375 197.0 137.0 206.0 C 143.0 210.8684844970703 149.0 212.0564422607422 155.0 213.0 C 169.4197998046875 224.61875915527344 184.1482391357422 235.7856903076172 195.0 250.0 C 210.02162170410156 257.5364685058594 221.97837829589844 222.19442749023438 237.0 239.0 C 250.83106994628906 233.36741638183594 261.88970947265625 213.3444061279297 275.0 201.0 L 307.0 171.0 C 297.3748779296875 159.03421020507812 279.0938720703125 145.32516479492188 279.0 132.0 C 278.7935791015625 110.33333587646484 270.14910888671875 88.66666412353516 277.0 67.0 L 275.0 56.0 C 277.6563720703125 52.81692123413086 280.7111511230469 59.53350830078125 282.0 61.0 C 288.3865661621094 42.84052276611328 261.3712463378906 35.212242126464844 249.0 23.0 C 249.12469482421875 19.794239044189453 253.24197387695312 19.87242889404297 255.0 19.0 L 241.0 19.0 C 232.50473022460938 12.469991683959961 233.2779998779297 -2.468414306640625 222.0 0.0 C 223.10382080078125 5.666666507720947 228.992919921875 11.333333015441895 225.0 17.0 C 194.6666717529297 -0.9151049256324768 164.3333282470703 -3.231248140335083 134.0 22.0 C 109.0 43.72016906738281 84.0 53.56013870239258 59.0 64.0 C 46.7802848815918 65.47874450683594 34.96847915649414 49.56456756591797 42.0 38.0" stroke-width="2.0" fill="rgb(131, 116, 115)" opacity="1.0" stroke="rgb(0, 0, 0)" stroke-opacity="0.0" stroke-linecap="round" stroke-linejoin="round"/>
    <path d="M 334.0 310.0 C 297.35650634765625 339.3526916503906 282.6690368652344 376.3659362792969 258.0 406.0 C 254.05223083496094 426.6666564941406 249.5545654296875 447.3333435058594 242.0 468.0 C 246.0874786376953 469.0447692871094 237.61622619628906 475.15069580078125 242.0 480.0 C 240.66378784179688 484.6172790527344 240.0362091064453 481.716064453125 238.0 484.0 L 239.0 498.0 C 245.13375854492188 490.58294677734375 241.0937957763672 507.41448974609375 240.0 511.0 L 475.0 511.0 C 470.6775207519531 462.3333435058594 475.1681213378906 413.6666564941406 461.0 365.0 C 458.4491271972656 361.53131103515625 455.85491943359375 361.1560974121094 456.0 358.0 L 461.0 379.0 C 457.35687255859375 382.98101806640625 459.79156494140625 388.9139404296875 454.0 390.0 C 456.93701171875 391.400390625 455.81927490234375 399.599609375 451.0 401.0 C 434.6961364746094 387.1268310546875 417.02685546875 365.06854248046875 406.0 354.0 C 382.3333435058594 336.1006774902344 358.6666564941406 302.749267578125 334.0 310.0" stroke-width="2.0" fill="rgb(54, 80, 123)" opacity="1.0" stroke="rgb(0, 0, 0)" stroke-opacity="0.0" stroke-linecap="round" stroke-linejoin="round"/>
    <path d="M 281.0 47.0 C 270.662109375 35.09016036987305 257.6727600097656 33.295433044433594 249.0 22.0 C 259.6356201171875 17.20077133178711 244.85354614257812 19.610231399536133 241.0 19.0 C 233.0947723388672 14.841436386108398 233.733642578125 -0.6114163398742676 223.0 0.0 C 222.12449645996094 5.158018112182617 231.0915985107422 10.694851875305176 225.0 17.0 C 206.6666717529297 7.4685750007629395 188.3333282470703 0.8395227193832397 170.0 3.0 C 152.0 9.021767616271973 134.0 20.91828155517578 116.0 37.0 C 93.0 44.66218948364258 70.0 69.17859649658203 47.0 61.0 C 42.57286071777344 56.33333206176758 40.58957290649414 51.66666793823242 40.0 47.0 C 34.86358642578125 58.078025817871094 36.39002227783203 76.56423950195312 51.0 85.0 C 53.55949401855469 95.0 57.88383102416992 105.0 68.0 115.0 C 72.44929504394531 117.45510864257812 74.00152587890625 116.82357788085938 78.0 120.0 C 73.4327392578125 128.0 74.78340148925781 136.0 72.0 144.0 C 81.47382354736328 145.34396362304688 88.13753509521484 163.74044799804688 100.0 170.0 C 107.67459106445312 174.74745178222656 117.98941040039062 177.44808959960938 124.0 173.0 C 104.05915069580078 173.9198455810547 86.505615234375 146.85763549804688 95.0 132.0 C 100.76359558105469 140.39791870117188 108.89717864990234 150.66387939453125 118.0 155.0 C 112.5580062866211 138.0 109.87252044677734 121.0 114.0 104.0 C 131.8480987548828 88.93204498291016 155.30001831054688 73.49339294433594 172.0 85.0 C 178.29910278320312 99.89999389648438 192.28079223632812 101.05517578125 204.0 109.0 C 215.21865844726562 119.66666412353516 220.84677124023438 130.3333282470703 225.0 141.0 C 237.37020874023438 143.76780700683594 230.1010284423828 125.72698974609375 227.0 121.0 C 226.358154296875 108.86045837402344 230.17991638183594 84.8598861694336 249.0 91.0 C 255.58900451660156 94.80387878417969 264.30487060546875 99.68460845947266 268.0 107.0 L 266.0 141.0 C 271.6666564941406 144.60806274414062 277.3333435058594 143.345947265625 283.0 145.0 C 277.85321044921875 119.33333587646484 271.31304931640625 93.66666412353516 277.0 68.0 C 279.0975036621094 64.38005065917969 271.29229736328125 56.398292541503906 278.0 56.0 C 284.9865417480469 68.92874908447266 283.8353576660156 53.21193313598633 281.0 47.0" stroke-width="2.0" fill="rgb(33, 40, 53)" opacity="1.0" stroke="rgb(0, 0, 0)" stroke-opacity="0.0" stroke-linecap="round" stroke-linejoin="round"/>
    <path d="M 120.0 100.0 C 109.06119537353516 113.0 115.95211791992188 126.0 115.0 139.0 C 115.34661102294922 153.1405792236328 129.50369262695312 164.9219207763672 142.0 175.0 C 143.39511108398438 185.0 140.25119018554688 195.0 137.0 205.0 L 168.0 222.0 C 181.3602294921875 230.7864227294922 191.85626220703125 255.50413513183594 206.0 249.0 C 216.20094299316406 242.61761474609375 225.02029418945312 224.5777130126953 236.0 238.0 L 242.0 237.0 C 262.6325378417969 213.6269989013672 284.2345886230469 190.86489868164062 306.0 171.0 C 301.0858459472656 163.424560546875 290.8325500488281 155.6839141845703 283.0 147.0 L 265.0 145.0 C 261.1356506347656 129.3333282470703 275.1117248535156 113.66666412353516 259.0 98.0 C 249.26126098632812 91.17491912841797 235.2257843017578 87.26536560058594 230.0 101.0 C 227.18753051757812 113.66666412353516 231.07150268554688 126.33333587646484 235.0 139.0 C 233.74490356445312 144.3424530029297 227.2070770263672 144.96536254882812 223.0 141.0 C 219.89146423339844 129.54461669921875 211.13983154296875 115.83415222167969 198.0 106.0 C 187.67904663085938 103.48636627197266 177.72576904296875 98.08030700683594 171.0 86.0 C 154.3333282470703 80.68981170654297 137.6666717529297 84.94634246826172 120.0 100.0" stroke-width="2.0" fill="rgb(232, 195, 181)" opacity="1.0" stroke="rgb(0, 0, 0)" stroke-opacity="0.0" stroke-linecap="round" stroke-linejoin="round"/>
    <path d="M 337.0 164.0 C 327.4040222167969 162.57025146484375 321.0020751953125 179.39878845214844 314.0 184.0 C 276.2406311035156 234.6666717529297 265.48931884765625 285.3333435058594 251.0 336.0 C 251.13397216796875 343.3333435058594 247.0891571044922 350.6666564941406 249.0 358.0 C 257.6666564941406 358.2225036621094 266.3333435058594 356.3205261230469 275.0 350.0 C 297.7599182128906 304.3333435058594 314.1152648925781 258.6666564941406 351.0 213.0 C 356.8166809082031 204.6016387939453 368.3804016113281 201.8510284423828 360.0 193.0 L 337.0 164.0" stroke-width="2.0" fill="rgb(118, 165, 223)" opacity="1.0" stroke="rgb(0, 0, 0)" stroke-opacity="0.0" stroke-linecap="round" stroke-linejoin="round"/>
    <path d="M 335.0 260.0 C 334.3010559082031 275.6666564941406 339.4377136230469 291.3333435058594 339.0 307.0 C 350.3333435058594 304.4102783203125 361.6666564941406 315.574462890625 373.0 323.0 C 400.7849426269531 344.8611145019531 426.366943359375 375.61065673828125 451.0 400.0 C 465.8330383300781 376.3333435058594 449.34661865234375 352.6666564941406 444.0 329.0 C 429.1035461425781 299.5301208496094 395.2724609375 266.3443298339844 366.0 252.0 C 356.0 252.38308715820312 346.0 254.4398651123047 335.0 260.0" stroke-width="2.0" fill="rgb(181, 223, 241)" opacity="1.0" stroke="rgb(0, 0, 0)" stroke-opacity="0.0" stroke-linecap="round" stroke-linejoin="round"/>
    <path d="M 316.0 169.0 C 308.30908203125 168.67095947265625 303.69091796875 179.20851135253906 296.0 183.0 C 275.2959899902344 203.3333282470703 255.71934509277344 223.6666717529297 239.0 244.0 C 236.65036010742188 248.6666717529297 245.63455200195312 253.3333282470703 246.0 258.0 C 236.61863708496094 267.6666564941406 230.35540771484375 277.3333435058594 224.0 287.0 C 232.74021911621094 295.1539001464844 245.61244201660156 313.7242126464844 256.0 309.0 C 270.84185791015625 264.6666564941406 281.98736572265625 220.3333282470703 320.0 176.0 L 316.0 169.0" stroke-width="2.0" fill="rgb(22, 25, 33)" opacity="1.0" stroke="rgb(0, 0, 0)" stroke-opacity="0.0" stroke-linecap="round" stroke-linejoin="round"/>
    <path d="M 271.0 354.0 C 263.56793212890625 357.7039489746094 253.8015594482422 358.0295715332031 248.0 361.0 C 236.64041137695312 411.0 220.449951171875 461.0 210.0 511.0 L 230.0 510.0 C 243.4786376953125 458.3333435058594 255.46607971191406 406.6666564941406 271.0 354.0" stroke-width="2.0" fill="rgb(57, 90, 140)" opacity="1.0" stroke="rgb(0, 0, 0)" stroke-opacity="0.0" stroke-linecap="round" stroke-linejoin="round"/>
    <path d="M 397.0 361.0 C 405.31536865234375 391.0 416.0179138183594 421.0 423.0 451.0 C 425.9104919433594 471.0 431.8768005371094 491.0 433.0 511.0 L 457.0 511.0 L 456.0 420.0 L 447.0 493.0 C 436.1882629394531 452.6666564941406 427.67108154296875 412.3333435058594 413.0 372.0 C 408.0 367.15997314453125 403.0 361.3955078125 397.0 361.0" stroke-width="2.0" fill="rgb(10, 14, 25)" opacity="1.0" stroke="rgb(0, 0, 0)" stroke-opacity="0.0" stroke-linecap="round" stroke-linejoin="round"/>
    <path d="M 316.0 169.0 C 309.0 168.60494995117188 302.0 180.434326171875 295.0 184.0 C 277.3699645996094 201.12933349609375 257.31561279296875 222.23873901367188 241.0 241.0 C 235.41539001464844 251.0 252.27903747558594 261.0 260.0 271.0 C 264.4541015625 272.21685791015625 266.64971923828125 269.38970947265625 269.0 267.0 C 280.9635925292969 236.3333282470703 294.7054138183594 205.6666717529297 320.0 175.0 L 316.0 169.0" stroke-width="2.0" fill="rgb(29, 34, 43)" opacity="1.0" stroke="rgb(0, 0, 0)" stroke-opacity="0.0" stroke-linecap="round" stroke-linejoin="round"/>
    <path d="M 329.0 265.0 C 302.87066650390625 295.0007019042969 287.6470642089844 329.3327941894531 271.0 361.0 L 261.0 400.0 C 281.94073486328125 369.0361633300781 303.8951721191406 330.0361328125 334.0 308.0 C 334.28131103515625 294.0 332.5369873046875 280.0 329.0 265.0" stroke-width="2.0" fill="rgb(182, 222, 240)" opacity="1.0" stroke="rgb(0, 0, 0)" stroke-opacity="0.0" stroke-linecap="round" stroke-linejoin="round"/>
    <path d="M 245.0 365.0 C 218.27658081054688 413.6666564941406 199.1167755126953 462.3333435058594 190.0 511.0 L 208.0 511.0 L 245.0 365.0" stroke-width="2.0" fill="rgb(234, 229, 229)" opacity="1.0" stroke="rgb(0, 0, 0)" stroke-opacity="0.0" stroke-linecap="round" stroke-linejoin="round"/>
    <path d="M 245.0 259.0 C 236.2708740234375 268.3333435058594 230.08609008789062 277.6666564941406 224.0 287.0 C 231.7549591064453 295.7153625488281 243.60171508789062 308.8472595214844 253.0 310.0 C 262.3029479980469 297.6666564941406 263.2714538574219 285.3333435058594 267.0 273.0 C 258.91729736328125 275.2015075683594 253.52389526367188 263.8646240234375 245.0 259.0" stroke-width="2.0" fill="rgb(8, 9, 13)" opacity="1.0" stroke="rgb(0, 0, 0)" stroke-opacity="0.0" stroke-linecap="round" stroke-linejoin="round"/>
    <path d="M 455.0 430.0 C 451.2191467285156 457.0 448.85552978515625 484.0 446.0 511.0 L 457.0 511.0 C 456.2862854003906 484.3333435058594 458.783447265625 457.6666564941406 455.0 430.0" stroke-width="2.0" fill="rgb(9, 11, 21)" opacity="1.0" stroke="rgb(0, 0, 0)" stroke-opacity="0.0" stroke-linecap="round" stroke-linejoin="round"/>
    <path d="M 184.0 123.0 C 177.3333282470703 121.53545379638672 170.6666717529297 118.3570327758789 164.0 119.0 C 155.86338806152344 128.03208923339844 141.14898681640625 140.40518188476562 138.0 151.0 C 149.1063232421875 158.13063049316406 155.0536651611328 140.90383911132812 166.0 134.0 L 184.0 123.0" stroke-width="2.0" fill="rgb(47, 54, 62)" opacity="1.0" stroke="rgb(0, 0, 0)" stroke-opacity="0.0" stroke-linecap="round" stroke-linejoin="round"/>
    <path d="M 245.0 198.0 C 231.0094757080078 214.3333282470703 223.41136169433594 230.6666717529297 208.0 247.0 L 226.0 233.0 C 230.6666717529297 231.2077178955078 235.3333282470703 241.4504852294922 240.0 238.0 C 240.15431213378906 225.0 242.1389617919922 212.0 245.0 198.0" stroke-width="2.0" fill="rgb(145, 76, 52)" opacity="1.0" stroke="rgb(0, 0, 0)" stroke-opacity="0.0" stroke-linecap="round" stroke-linejoin="round"/>
    <path d="M 253.0 110.0 C 248.3783721923828 108.71411895751953 237.524169921875 111.71411895751953 239.0 119.0 C 247.0042724609375 122.0555419921875 249.54110717773438 129.194091796875 247.0 135.0 C 258.836181640625 133.34036254882812 264.8138427734375 115.270751953125 253.0 110.0" stroke-width="2.0" fill="rgb(164, 81, 62)" opacity="1.0" stroke="rgb(0, 0, 0)" stroke-opacity="0.0" stroke-linecap="round" stroke-linejoin="round"/>
    <path d="M 186.0 142.0 C 177.7335968017578 141.97756958007812 165.0338897705078 145.99835205078125 160.0 157.0 C 162.3333282470703 160.06295776367188 164.6666717529297 156.5537109375 167.0 156.0 L 176.0 165.0 C 182.5578155517578 157.6666717529297 180.7701416015625 150.3333282470703 186.0 142.0" stroke-width="2.0" fill="rgb(116, 110, 108)" opacity="1.0" stroke="rgb(0, 0, 0)" stroke-opacity="0.0" stroke-linecap="round" stroke-linejoin="round"/>
    <path d="M 218.0 122.0 C 218.79458618164062 129.78167724609375 223.0845947265625 145.69793701171875 233.0 142.0 C 233.41429138183594 133.4343719482422 231.4781951904297 115.13141632080078 218.0 122.0" stroke-width="2.0" fill="rgb(91, 93, 106)" opacity="1.0" stroke="rgb(0, 0, 0)" stroke-opacity="0.0" stroke-linecap="round" stroke-linejoin="round"/>
    <path d="M 69.0 116.0 C 56.88654327392578 132.002197265625 48.5584716796875 152.33168029785156 52.0 170.0 L 59.0 179.0 C 59.70908737182617 176.63340759277344 52.720951080322266 170.02479553222656 53.0 166.0 C 51.91439437866211 151.9689483642578 56.99517059326172 132.70852661132812 74.0 122.0 C 72.42992401123047 120.54691314697266 73.14537048339844 116.83146667480469 69.0 116.0" stroke-width="2.0" fill="rgb(66, 67, 67)" opacity="1.0" stroke="rgb(0, 0, 0)" stroke-opacity="0.0" stroke-linecap="round" stroke-linejoin="round"/>
    <path d="M 186.0 0.0 C 197.6666717529297 2.2494559288024902 209.3333282470703 6.686751842498779 221.0 12.0 C 225.78317260742188 9.961573600769043 219.6818084716797 3.6952896118164062 217.0 0.0 L 186.0 0.0" stroke-width="2.0" fill="rgb(252, 252, 250)" opacity="1.0" stroke="rgb(0, 0, 0)" stroke-opacity="0.0" stroke-linecap="round" stroke-linejoin="round"/>
    <path d="M 100.0 148.0 C 96.74715423583984 157.13674926757812 111.35086059570312 168.53945922851562 119.0 169.0 L 115.0 157.0 C 108.40470886230469 157.4969024658203 106.99469757080078 148.52850341796875 100.0 148.0" stroke-width="2.0" fill="rgb(252, 253, 253)" opacity="1.0" stroke="rgb(0, 0, 0)" stroke-opacity="0.0" stroke-linecap="round" stroke-linejoin="round"/>
    <path d="M 220.0 0.0 C 229.4926300048828 7.838847637176514 221.6567840576172 24.16536521911621 236.0 18.0 C 237.1988525390625 11.119407653808594 230.2203826904297 -3.2263131141662598 220.0 0.0" stroke-width="2.0" fill="rgb(38, 42, 54)" opacity="1.0" stroke="rgb(0, 0, 0)" stroke-opacity="0.0" stroke-linecap="round" stroke-linejoin="round"/>
    <path d="M 333.0 260.0 C 329.9921569824219 262.0 331.2279357910156 264.0 331.0 266.0 C 333.0809020996094 278.6666564941406 334.9919128417969 291.3333435058594 335.0 304.0 C 337.3964538574219 305.7720642089844 334.44525146484375 309.0078430175781 338.0 308.0 C 338.2021484375 292.3333435058594 335.0802001953125 276.6666564941406 333.0 260.0" stroke-width="2.0" fill="rgb(44, 70, 84)" opacity="1.0" stroke="rgb(0, 0, 0)" stroke-opacity="0.0" stroke-linecap="round" stroke-linejoin="round"/>
    <path d="M 298.0 473.0 C 287.3078308105469 483.6710510253906 279.1991882324219 498.66339111328125 273.0 511.0 C 282.7896728515625 502.6089782714844 289.3074645996094 485.7093505859375 298.0 473.0" stroke-width="2.0" fill="rgb(33, 46, 85)" opacity="1.0" stroke="rgb(0, 0, 0)" stroke-opacity="0.0" stroke-linecap="round" stroke-linejoin="round"/>
    <path d="M 264.0 143.0 C 258.78887939453125 152.7012176513672 244.2625732421875 149.321044921875 252.0 161.0 C 257.74517822265625 153.32020568847656 268.9499206542969 154.88519287109375 264.0 143.0" stroke-width="2.0" fill="rgb(144, 77, 52)" opacity="1.0" stroke="rgb(0, 0, 0)" stroke-opacity="0.0" stroke-linecap="round" stroke-linejoin="round"/>
    <path d="M 155.0 35.0 C 158.6869659423828 37.84379959106445 166.65150451660156 47.078041076660156 172.0 47.0 C 177.3941192626953 35.78248596191406 163.14991760253906 35.68309020996094 155.0 35.0" stroke-width="2.0" fill="rgb(6, 9, 20)" opacity="1.0" stroke="rgb(0, 0, 0)" stroke-opacity="0.0" stroke-linecap="round" stroke-linejoin="round"/>
    <path d="M 256.0 168.0 C 258.5771484375 181.33615112304688 261.2200927734375 197.32955932617188 265.0 209.0 C 264.17620849609375 195.3333282470703 259.7889404296875 181.6666717529297 256.0 168.0" stroke-width="2.0" fill="rgb(189, 155, 138)" opacity="1.0" stroke="rgb(0, 0, 0)" stroke-opacity="0.0" stroke-linecap="round" stroke-linejoin="round"/>
    <path d="M 344.0 414.0 C 335.8646240234375 418.6272277832031 323.599609375 431.1212463378906 321.0 439.0 L 344.0 414.0" stroke-width="2.0" fill="rgb(31, 52, 91)" opacity="1.0" stroke="rgb(0, 0, 0)" stroke-opacity="0.0" stroke-linecap="round" stroke-linejoin="round"/>
    <path d="M 261.0 14.0 C 254.0 20.35809898376465 247.0 16.360740661621094 240.0 19.0 C 246.61463928222656 22.561851501464844 257.6072082519531 22.402271270751953 261.0 14.0" stroke-width="2.0" fill="rgb(56, 56, 58)" opacity="1.0" stroke="rgb(0, 0, 0)" stroke-opacity="0.0" stroke-linecap="round" stroke-linejoin="round"/>
    <path d="M 120.0 160.0 C 119.87138366699219 165.83868408203125 128.62171936035156 170.5247039794922 133.0 169.0 C 129.34580993652344 167.65682983398438 125.72842407226562 160.74234008789062 120.0 160.0" stroke-width="2.0" fill="rgb(18, 16, 17)" opacity="1.0" stroke="rgb(0, 0, 0)" stroke-opacity="0.0" stroke-linecap="round" stroke-linejoin="round"/>
    <path d="M 238.0 0.0 L 239.0 17.0 C 242.13458251953125 11.333333015441895 242.13458251953125 5.666666507720947 238.0 0.0" stroke-width="2.0" fill="rgb(92, 91, 92)" opacity="1.0" stroke="rgb(0, 0, 0)" stroke-opacity="0.0" stroke-linecap="round" stroke-linejoin="round"/>
    <path d="M 51.0 53.0 C 49.661842346191406 57.37031173706055 56.85877227783203 61.70636749267578 60.0 60.0 C 59.1405143737793 58.43904495239258 53.03950500488281 58.6612663269043 51.0 53.0" stroke-width="2.0" fill="rgb(126, 126, 127)" opacity="1.0" stroke="rgb(0, 0, 0)" stroke-opacity="0.0" stroke-linecap="round" stroke-linejoin="round"/>
  </g>
</svg>
