<?xml version="1.0" ?>
<svg xmlns="http://www.w3.org/2000/svg" version="1.1" width="512" height="512">
  <defs/>
  <g>
    <path d="M -10.0 -10.0 C -9.0 -10.0 512.0 0.0 513.0 0.0 C 514.0 0.0 512.0 512.0 513.0 512.0 C 513.0 513.0 0.0 512.0 0.0 513.0 C 0.0 512.0 0.0 513.0 -10.0 -10.0 L -10.0 -10.0" stroke-width="2.0" fill="rgb(243, 243, 243)" opacity="0.7334723"/>
    <path d="M 495.287353515625 224.71453857421875 C 496.03167724609375 224.1853485107422 494.85772705078125 225.02627563476562 495.25177001953125 224.82191467285156 C 495.9744567871094 224.1205596923828 496.1714172363281 223.7805938720703 495.2756042480469 224.7376708984375 C 494.5064392089844 228.3872528076172 495.560302734375 226.60958862304688 497.74334716796875 227.54405212402344 C 494.7226257324219 226.66217041015625 495.76318359375 227.7132110595703 495.00054931640625 226.7226104736328 L 495.287353515625 224.71453857421875" stroke-width="2.0" fill="rgb(42, 254, 255)" opacity="0.112363964"/>
    <path d="M 341.3511657714844 43.42714309692383 C 341.5416564941406 43.61738204956055 343.12078857421875 42.417972564697266 342.4512023925781 42.51941680908203 C 347.50634765625 42.87260818481445 344.0958557128906 43.468868255615234 345.14019775390625 41.69612121582031 C 344.35394287109375 43.759056091308594 346.2967834472656 42.375389099121094 345.5481872558594 42.88179016113281 C 341.0144958496094 42.12923049926758 343.50445556640625 42.709144592285156 341.5224304199219 43.404884338378906 L 341.3511657714844 43.42714309692383" stroke-width="2.0" fill="rgb(243, 109, 61)" opacity="0.1734603"/>
    <path d="M 344.838134765625 383.83642578125 C 271.8065490722656 399.526611328125 127.56515502929688 388.0995788574219 157.7284698486328 371.4541015625 C 199.87713623046875 353.2091979980469 184.53797912597656 396.118896484375 188.37757873535156 269.8232421875 C 165.2781524658203 235.74009704589844 140.63357543945312 242.92898559570312 148.731201171875 227.06263732910156 C 137.9263916015625 250.921630859375 189.35215759277344 247.90899658203125 332.7158508300781 239.38624572753906 L 344.838134765625 383.83642578125" stroke-width="2.0" fill="rgb(0, 92, 212)" opacity="0.7038533"/>
    <path d="M 6.694015026092529 248.7338409423828 C 6.719117641448975 248.67538452148438 6.107516765594482 249.6614227294922 6.766732692718506 248.68309020996094 C 9.198263168334961 248.88674926757812 9.103461265563965 247.92071533203125 10.296123504638672 246.85560607910156 C 8.203454971313477 249.1365966796875 8.99591064453125 248.18702697753906 7.949331760406494 248.7144775390625 C 6.143621921539307 248.519775390625 6.728852272033691 249.046630859375 6.591058254241943 248.87242126464844 L 6.694015026092529 248.7338409423828" stroke-width="2.0" fill="rgb(255, 49, 188)" opacity="0.07961457"/>
    <path d="M 308.66131591796875 46.03424835205078 C 307.924560546875 44.7156867980957 307.879150390625 44.425777435302734 308.70556640625 46.09083938598633 C 309.69049072265625 45.44695281982422 308.89056396484375 45.673526763916016 309.17974853515625 45.64875411987305 C 308.1351623535156 46.83437728881836 308.59075927734375 45.50820541381836 309.98236083984375 45.90190505981445 C 308.0195007324219 45.77077865600586 308.6949157714844 46.08993911743164 309.85894775390625 47.732635498046875 L 308.66131591796875 46.03424835205078" stroke-width="2.0" fill="rgb(182, 103, 185)" opacity="0.17716475"/>
    <path d="M 323.1312561035156 370.5424499511719 C 331.55645751953125 198.6768798828125 291.32403564453125 136.85926818847656 300.04681396484375 356.0856628417969 C 59.20515441894531 419.59588623046875 278.8354187011719 -0.05710627883672714 199.0140380859375 370.26251220703125 C 84.94493865966797 309.51129150390625 118.98751831054688 155.9287109375 225.4393310546875 132.18838500976562 C 313.2032775878906 105.74964141845703 429.5250244140625 199.61949157714844 365.33135986328125 325.4119873046875 L 323.1312561035156 370.5424499511719" stroke-width="2.0" fill="rgb(238, 184, 27)" opacity="0.855704"/>
    <path d="M 9.355719566345215 259.455078125 C 9.22400188446045 259.1612243652344 9.063827514648438 259.3016662597656 10.693347930908203 260.8690185546875 C 12.00049114227295 261.90966796875 10.24552059173584 260.6042785644531 9.777142524719238 259.8678894042969 C 8.903143882751465 259.3016357421875 9.3714017868042 259.0522155761719 9.25462532043457 259.2725524902344 C 8.251445770263672 258.4225769042969 9.323381423950195 259.3153991699219 10.308391571044922 260.5069274902344 L 9.355719566345215 259.455078125" stroke-width="2.0" fill="rgb(30, 67, 159)" opacity="0.051243294"/>
    <path d="M 25.812702178955078 298.2930908203125 C 25.905982971191406 302.74920654296875 26.663551330566406 300.8856506347656 25.947385787963867 301.3665771484375 C 29.34760856628418 300.7015686035156 28.31174087524414 300.7073059082031 28.27968978881836 300.81671142578125 C 27.80813980102539 301.61541748046875 29.482988357543945 299.0586242675781 28.290674209594727 300.8961486816406 C 25.25322151184082 301.5569152832031 26.509002685546875 301.4448547363281 25.98601531982422 300.78045654296875 L 25.812702178955078 298.2930908203125" stroke-width="2.0" fill="rgb(87, 191, 88)" opacity="0.27636844"/>
    <path d="M 395.303466796875 491.8394470214844 C 393.0980529785156 489.9071350097656 392.6200866699219 489.3484191894531 393.7547607421875 490.1317138671875 C 395.7783508300781 490.352783203125 396.5494689941406 488.9216003417969 396.1514892578125 488.849853515625 C 395.4461364746094 490.9132385253906 396.3215026855469 488.6689453125 394.3506164550781 489.7823181152344 C 394.0939636230469 488.45599365234375 395.4246826171875 489.1426696777344 394.0671691894531 491.67413330078125 L 395.303466796875 491.8394470214844" stroke-width="2.0" fill="rgb(64, 110, 42)" opacity="0.0"/>
    <path d="M 410.8401184082031 90.4443359375 C 412.2615661621094 89.38853454589844 411.5641784667969 90.00715637207031 411.678466796875 89.86434173583984 C 410.139404296875 90.8023452758789 411.5234375 90.04421997070312 410.09857177734375 91.04203796386719 C 411.3940124511719 90.06360626220703 410.6560974121094 90.44171905517578 411.0843811035156 90.27531433105469 C 411.1297607421875 90.11530303955078 412.6840515136719 89.43377685546875 411.3897399902344 89.99620056152344 L 410.8401184082031 90.4443359375" stroke-width="2.0" fill="rgb(84, 255, 91)" opacity="0.22464234"/>
    <path d="M 19.90079116821289 197.14010620117188 C 19.49402618408203 197.0458221435547 19.452709197998047 196.6633758544922 21.013811111450195 198.17282104492188 C 22.425434112548828 197.8126678466797 20.298473358154297 198.64730834960938 21.000391006469727 197.66209411621094 C 20.811433792114258 198.09144592285156 20.804201126098633 198.295166015625 21.501672744750977 198.11070251464844 C 20.918264389038086 198.18218994140625 20.712053298950195 197.97080993652344 21.667203903198242 198.71505737304688 L 19.90079116821289 197.14010620117188" stroke-width="2.0" fill="rgb(120, 121, 255)" opacity="0.106924176"/>
    <path d="M 401.9278564453125 239.9986114501953 C 402.1199035644531 240.27593994140625 401.27374267578125 239.95677185058594 402.23895263671875 240.1470947265625 C 400.95379638671875 240.01792907714844 400.61407470703125 239.52281188964844 401.3551940917969 240.02613830566406 C 402.37615966796875 239.7717742919922 401.8382568359375 241.24392700195312 402.01837158203125 240.9116973876953 C 401.8815002441406 239.70474243164062 401.8731994628906 239.67843627929688 402.13128662109375 242.20521545410156 L 401.9278564453125 239.9986114501953" stroke-width="2.0" fill="rgb(244, 255, 147)" opacity="0.26800874"/>
    <path d="M 416.0760498046875 151.16534423828125 C 416.8313903808594 150.57090759277344 416.58245849609375 150.74395751953125 416.5285949707031 148.9119873046875 C 417.7816162109375 151.16513061523438 417.7315673828125 150.71871948242188 419.32037353515625 150.4210205078125 C 417.54656982421875 152.20654296875 417.9355773925781 152.00440979003906 418.4087829589844 153.18003845214844 C 415.9945983886719 151.85459899902344 416.23992919921875 152.496826171875 415.893798828125 153.52244567871094 L 416.0760498046875 151.16534423828125" stroke-width="2.0" fill="rgb(53, 68, 132)" opacity="0.0"/>
    <path d="M 271.19219970703125 424.3558044433594 C 270.70623779296875 423.22418212890625 270.7324523925781 423.3540344238281 271.61920166015625 425.2035827636719 C 272.7305908203125 424.30560302734375 272.7008361816406 424.50115966796875 271.7923278808594 425.0235595703125 C 271.2054138183594 425.7311096191406 271.6370849609375 425.2635192871094 271.6005554199219 425.36126708984375 C 271.55267333984375 425.27886962890625 272.0875244140625 426.49017333984375 272.6007080078125 427.5781555175781 L 271.19219970703125 424.3558044433594" stroke-width="2.0" fill="rgb(160, 254, 225)" opacity="0.17912692"/>
  </g>
</svg>
