<?xml version="1.0" ?>
<svg xmlns="http://www.w3.org/2000/svg" version="1.1" width="511" height="512">
  <defs/>
  <g>
    <path d="M 8.781196594238281 29.642459869384766 L 511.60845947265625 4.496135234832764 L 512.6651611328125 513.5985107421875 L -15.083085060119629 513.2509765625 L 8.781196594238281 29.642459869384766" stroke-width="0.0" fill="rgb(202, 204, 206)" opacity="3.9912176" stroke="rgb(0, 0, 0)" stroke-opacity="0.0" stroke-linecap="round" stroke-linejoin="round"/>
    <path d="M -3.3642258644104004 2.029006242752075 C -1.5104035139083862 47.283443450927734 -5.701934337615967 89.50545501708984 -2.396057605743408 133.6101837158203 C 43.13945388793945 130.5484161376953 84.11906433105469 145.8683319091797 125.9090576171875 136.37567138671875 C 150.8134765625 151.45933532714844 176.51817321777344 216.50155639648438 217.70936584472656 207.5717315673828 C 227.97445678710938 192.22848510742188 237.7246856689453 190.5319061279297 245.250732421875 174.91549682617188 C 252.4488983154297 179.91934204101562 256.3981628417969 201.14385986328125 317.5414733886719 192.4765625 C 380.7269592285156 163.06405639648438 332.1701965332031 131.67315673828125 338.30859375 85.52843475341797 C 366.74615478515625 61.95572280883789 395.9465637207031 93.09078979492188 426.8119812011719 95.70457458496094 C 432.7635498046875 94.32240295410156 443.05816650390625 102.74964904785156 434.15960693359375 105.23416900634766 C 415.3750305175781 96.98576354980469 377.220703125 113.30782318115234 348.0715026855469 163.55882263183594 C 365.9895324707031 170.64292907714844 366.06683349609375 175.93759155273438 377.7654113769531 234.90347290039062 C 428.3619689941406 176.7166290283203 465.22064208984375 186.4965362548828 513.4772338867188 185.66603088378906 C 516.2832641601562 120.17691040039062 514.5687255859375 61.204132080078125 514.1310424804688 2.0874714851379395 L 6.348336219787598 2.0811116695404053 L -3.3642258644104004 2.029006242752075" stroke-width="2.0" fill="rgb(104, 145, 180)" opacity="0.97200733" stroke="rgb(0, 0, 0)" stroke-opacity="0.0" stroke-linecap="round" stroke-linejoin="round"/>
    <path d="M 511.0652160644531 374.3529357910156 L 507.98895263671875 372.176025390625 C 466.0 376.66217041015625 425.0 371.30517578125 381.8216857910156 372.0478820800781 C 382.8741149902344 396.63446044921875 362.88226318359375 418.769775390625 375.8762512207031 432.2767639160156 L 373.9070129394531 452.23846435546875 C 390.4630126953125 464.1221618652344 414.4408874511719 452.2864990234375 423.9797668457031 470.9202880859375 L 419.9850769042969 472.6249084472656 C 400.6577453613281 469.8202819824219 378.30047607421875 469.6864013671875 355.5024719238281 463.2723388671875 C 347.50042724609375 421.0490417480469 332.8178405761719 412.0143127441406 297.6589050292969 419.7590026855469 C 282.7043151855469 449.36920166015625 294.965087890625 454.0810241699219 293.7104187011719 462.9291687011719 C 307.8904724121094 464.8806457519531 324.1999206542969 460.70703125 334.0763244628906 472.8381652832031 C 337.0055847167969 469.72808837890625 336.2604675292969 470.53009033203125 333.3448486328125 468.710693359375 C 314.3424377441406 470.12396240234375 293.4909973144531 468.8268127441406 275.1458435058594 467.6246032714844 C 270.3307189941406 463.6000671386719 273.3553771972656 459.8248596191406 260.71319580078125 432.7488708496094 C 256.9474792480469 454.17779541015625 246.11131286621094 446.8186950683594 230.99600219726562 445.3758850097656 C 204.2117156982422 464.77642822265625 183.09063720703125 458.3558349609375 164.90936279296875 465.848388671875 L 164.20611572265625 466.1806640625 C 183.14553833007812 452.2183532714844 206.9691162109375 443.82769775390625 252.34181213378906 439.38134765625 C 264.6136474609375 443.11444091796875 259.109375 418.8056640625 252.8909454345703 380.2322082519531 L -0.06642904877662659 384.702392578125 C -2.771036386489868 424.9973449707031 0.5029875040054321 468.0043029785156 -1.3074265718460083 514.7305908203125 L 511.75201416015625 514.9219360351562 L 511.0652160644531 374.3529357910156" stroke-width="2.0" fill="rgb(185, 188, 199)" opacity="1.1127802" stroke="rgb(0, 0, 0)" stroke-opacity="0.0" stroke-linecap="round" stroke-linejoin="round"/>
    <path d="M 435.4812316894531 97.04554748535156 C 413.03314208984375 94.14251708984375 392.1040954589844 81.63563537597656 367.17633056640625 76.57391357421875 C 332.54443359375 67.09473419189453 317.354736328125 116.20799255371094 314.6810302734375 138.4877166748047 C 309.7189025878906 160.548828125 293.359375 158.7294464111328 285.84027099609375 174.5607147216797 C 237.83709716796875 210.57290649414062 245.55532836914062 268.6478576660156 236.04196166992188 319.93182373046875 C 228.52337646484375 365.620849609375 248.6327362060547 406.2171630859375 219.97335815429688 419.5762023925781 C 212.92613220214844 430.1961669921875 203.11334228515625 437.6225891113281 214.3346405029297 435.1258850097656 C 195.12680053710938 449.7847900390625 178.15509033203125 457.65771484375 166.3136749267578 462.4512634277344 C 189.49710083007812 465.475830078125 213.3533935546875 463.33758544921875 237.90928649902344 446.9908142089844 C 273.29949951171875 455.1689453125 249.06610107421875 428.0309753417969 270.3719177246094 384.0066833496094 C 302.3380432128906 457.3005065917969 268.9039001464844 463.5145568847656 269.40533447265625 467.81561279296875 L 332.8114013671875 471.0778503417969 C 320.61834716796875 455.2181396484375 285.2102966308594 476.5314636230469 292.1942138671875 444.32843017578125 C 309.2225646972656 447.70306396484375 325.5784606933594 433.6878356933594 338.0614318847656 447.2694396972656 C 345.83636474609375 457.2007751464844 358.82763671875 458.4862365722656 350.29986572265625 471.11871337890625 C 379.9042663574219 467.3233947753906 401.5223388671875 477.8953552246094 424.0510559082031 465.7845764160156 C 417.68389892578125 452.3580627441406 388.31219482421875 464.48504638671875 373.4695739746094 451.6982116699219 C 384.8656005859375 445.8854675292969 368.5668640136719 442.1091613769531 372.7745056152344 425.8080749511719 C 386.15869140625 390.02886962890625 379.91864013671875 357.308837890625 391.42852783203125 316.34320068359375 C 393.67547607421875 313.46112060546875 398.46075439453125 330.4503479003906 402.1624450683594 335.033935546875 C 407.2765808105469 345.3741455078125 398.0546569824219 380.177001953125 423.5601806640625 367.8484802246094 C 436.9800720214844 323.986572265625 428.1166076660156 285.0118408203125 399.6772155761719 245.57652282714844 C 402.07818603515625 212.7427520751953 385.1180419921875 173.24307250976562 377.98187255859375 137.8920440673828 C 385.3165588378906 105.22501373291016 414.9989929199219 102.62162017822266 441.2500305175781 106.62167358398438 L 435.4812316894531 97.04554748535156" stroke-width="2.0" fill="rgb(29, 11, -33)" opacity="0.40891266" stroke="rgb(0, 0, 0)" stroke-opacity="0.0" stroke-linecap="round" stroke-linejoin="round"/>
    <path d="M -1.355154275894165 134.62826538085938 L -2.4399189949035645 296.2214050292969 C 5.021719455718994 304.1114196777344 10.173556327819824 295.9406433105469 11.249446868896484 297.99090576171875 C 14.082144737243652 305.0448913574219 22.777799606323242 306.2854919433594 26.04355239868164 294.7611083984375 C 33.11333084106445 304.3233642578125 44.93771743774414 307.51934814453125 62.70570755004883 304.7545471191406 C 61.983909606933594 289.39794921875 61.0535774230957 269.2529602050781 68.92650604248047 275.42108154296875 C 87.31903839111328 276.88861083984375 68.9603042602539 295.16485595703125 79.99832153320312 305.2298278808594 C 104.13304901123047 301.1707763671875 119.26177978515625 301.9396667480469 131.3525848388672 301.5975341796875 C 141.31884765625 307.59613037109375 163.02029418945312 304.5246276855469 155.28672790527344 289.4791564941406 C 156.60708618164062 274.23193359375 169.78500366210938 283.69891357421875 170.34849548339844 296.11279296875 C 189.33212280273438 276.88824462890625 209.8976593017578 286.4696044921875 213.93255615234375 278.78619384765625 C 215.5592498779297 271.50732421875 225.41883850097656 261.0414733886719 229.60841369628906 319.47589111328125 C 257.8871765136719 333.216796875 275.9764709472656 319.91448974609375 283.79656982421875 283.5965881347656 C 288.0762634277344 253.18629455566406 275.6796569824219 226.72340393066406 249.16915893554688 210.42578125 C 231.7860565185547 218.6667022705078 225.9745635986328 214.87376403808594 220.98764038085938 205.70823669433594 C 199.72430419921875 214.87799072265625 179.78094482421875 199.3753204345703 160.8391876220703 176.406982421875 C 148.11764526367188 163.7721405029297 137.03236389160156 136.1147003173828 120.47924041748047 137.98374938964844 C 81.64600372314453 144.62857055664062 41.810508728027344 130.97911071777344 -1.355154275894165 134.62826538085938" stroke-width="2.0" fill="rgb(-535, -422, -219)" opacity="0.27620247" stroke="rgb(0, 0, 0)" stroke-opacity="0.0" stroke-linecap="round" stroke-linejoin="round"/>
    <path d="M 277.34130859375 303.3705749511719 C 236.08367919921875 280.9065856933594 215.87298583984375 303.74786376953125 211.66651916503906 283.50140380859375 C 185.88172912597656 277.6810607910156 171.0137939453125 297.806396484375 158.9266815185547 303.71484375 C 131.501220703125 299.75396728515625 103.27428436279297 302.3211975097656 75.4703369140625 305.857421875 C 51.38187789916992 306.2457275390625 23.061609268188477 298.5953369140625 -1.8475725650787354 312.26446533203125 L -0.9591660499572754 380.4123840332031 C 77.51819610595703 382.1947937011719 154.13180541992188 376.9197692871094 245.38735961914062 380.318359375 C 257.0691223144531 364.4341125488281 276.5425109863281 358.0073547363281 277.34130859375 303.3705749511719" stroke-width="2.0" fill="rgb(-146, -140, -129)" opacity="0.5104268" stroke="rgb(0, 0, 0)" stroke-opacity="0.0" stroke-linecap="round" stroke-linejoin="round"/>
    <path d="M 239.16458129882812 289.7578430175781 C 225.44493103027344 294.6963195800781 218.89479064941406 303.7557067871094 213.71641540527344 296.848388671875 C 207.78672790527344 280.248779296875 188.69276428222656 284.7306823730469 188.76007080078125 290.69635009765625 C 188.7046661376953 294.8882141113281 191.81741333007812 287.01483154296875 183.4445037841797 289.7441711425781 C 176.9675750732422 293.1255187988281 173.64735412597656 298.0342102050781 163.4512939453125 298.9702453613281 C 125.66838073730469 296.0274658203125 87.09709930419922 311.6794128417969 48.76213455200195 303.70220947265625 C 32.281490325927734 303.6505432128906 13.84701156616211 303.2933044433594 -4.976582050323486 304.1503601074219 L -2.5396535396575928 358.9780578613281 C 76.23372650146484 361.9224548339844 153.65576171875 361.71563720703125 231.55282592773438 363.94598388671875 L 239.16458129882812 289.7578430175781" stroke-width="2.0" fill="rgb(190, 192, 204)" opacity="0.9552666" stroke="rgb(0, 0, 0)" stroke-opacity="0.0" stroke-linecap="round" stroke-linejoin="round"/>
    <path d="M -1.8713597059249878 133.07891845703125 L -1.7958927154541016 212.03614807128906 C 5.4234819412231445 210.95877075195312 20.110429763793945 206.1318359375 31.17047119140625 212.62425231933594 C 34.231632232666016 216.4060516357422 43.00614929199219 212.06814575195312 56.18470001220703 216.6650848388672 C 61.412723541259766 219.7735595703125 72.05686950683594 212.20591735839844 76.83454132080078 224.90086364746094 C 85.1385726928711 229.59190368652344 96.5108871459961 221.94093322753906 102.91109466552734 231.1880645751953 C 112.87850952148438 244.3291778564453 139.36631774902344 238.0496368408203 127.68434143066406 220.79684448242188 C 123.70736694335938 211.49818420410156 107.53496551513672 202.97555541992188 110.54956817626953 189.34475708007812 C 117.90997314453125 167.7104949951172 137.34559631347656 152.23910522460938 128.27166748046875 136.88449096679688 C 95.17549133300781 144.91256713867188 60.056766510009766 141.8607177734375 26.7098331451416 134.79644775390625 L -1.8713597059249878 133.07891845703125" stroke-width="2.0" fill="rgb(180, 184, 195)" opacity="1.146503" stroke="rgb(0, 0, 0)" stroke-opacity="0.0" stroke-linecap="round" stroke-linejoin="round"/>
    <path d="M 235.99188232421875 387.14892578125 L 235.98040771484375 378.6431579589844 L -0.6231447458267212 380.5830993652344 L -1.381248950958252 419.42498779296875 C 68.35765075683594 421.0813903808594 136.71249389648438 419.142578125 205.07369995117188 418.6140441894531 C 213.1876678466797 412.5882873535156 222.27330017089844 416.0875244140625 231.14772033691406 410.3572998046875 C 236.66551208496094 401.31427001953125 235.9536590576172 397.52117919921875 235.99188232421875 387.14892578125" stroke-width="2.0" fill="rgb(173, 177, 191)" opacity="0.6479014" stroke="rgb(0, 0, 0)" stroke-opacity="0.0" stroke-linecap="round" stroke-linejoin="round"/>
    <path d="M 136.1862030029297 145.2823028564453 C 131.93235778808594 165.71372985839844 116.35750579833984 180.17709350585938 115.45533752441406 194.11181640625 C 137.8108673095703 223.82061767578125 148.2464599609375 236.72607421875 112.68828582763672 247.8330078125 C 145.55377197265625 273.3943176269531 165.56173706054688 270.7461853027344 173.65097045898438 293.45806884765625 C 185.07582092285156 285.2096862792969 195.22686767578125 282.21563720703125 208.1870574951172 280.149658203125 C 204.27761840820312 267.3913269042969 203.52976989746094 266.22607421875 192.79342651367188 259.3255615234375 C 217.80032348632812 247.31459045410156 251.6957244873047 246.62197875976562 274.9294128417969 226.1768798828125 C 244.1741943359375 195.90951538085938 233.96087646484375 197.4973907470703 221.87852478027344 201.2039337158203 C 186.8098907470703 218.1423797607422 159.66407775878906 169.18353271484375 136.1862030029297 145.2823028564453" stroke-width="2.0" fill="rgb(60, 101, 141)" opacity="0.93067217" stroke="rgb(0, 0, 0)" stroke-opacity="0.0" stroke-linecap="round" stroke-linejoin="round"/>
    <path d="M 382.8503112792969 351.8546142578125 C 382.4251708984375 386.3649597167969 379.9837951660156 403.6323547363281 375.6563415527344 418.3838806152344 C 424.33673095703125 411.4676818847656 466.2552490234375 420.0317077636719 511.08282470703125 427.2157287597656 C 510.45684814453125 404.656982421875 513.4727783203125 388.07940673828125 512.0982666015625 366.5027160644531 C 467.2664794921875 363.4895324707031 427.4993896484375 354.9974670410156 382.8503112792969 351.8546142578125" stroke-width="2.0" fill="rgb(179, 183, 195)" opacity="1.1784942" stroke="rgb(0, 0, 0)" stroke-opacity="0.0" stroke-linecap="round" stroke-linejoin="round"/>
    <path d="M 135.6021270751953 154.5076904296875 C 138.76779174804688 169.3555908203125 118.6762924194336 178.0495147705078 120.51355743408203 193.5511016845703 C 133.71194458007812 210.71351623535156 139.31541442871094 223.91348266601562 144.8037109375 244.48902893066406 C 172.86068725585938 243.72952270507812 209.1537628173828 261.47265625 240.98538208007812 229.41290283203125 C 245.85345458984375 221.13946533203125 221.22866821289062 220.85113525390625 219.74794006347656 208.6208953857422 C 207.19009399414062 207.142578125 195.556884765625 215.2701873779297 186.0059356689453 201.83294677734375 C 160.21388244628906 187.94163513183594 151.45413208007812 171.2928466796875 135.6021270751953 154.5076904296875" stroke-width="2.0" fill="rgb(39, 89, 130)" opacity="0.9972972" stroke="rgb(0, 0, 0)" stroke-opacity="0.0" stroke-linecap="round" stroke-linejoin="round"/>
    <path d="M 423.5255432128906 298.1418151855469 C 431.5555419921875 327.8226013183594 434.9646911621094 342.0208740234375 404.47076416015625 347.9542541503906 L 417.4557189941406 367.253662109375 C 452.5578918457031 369.41259765625 480.4189147949219 369.6586608886719 512.9243774414062 369.6370544433594 L 513.6503295898438 303.913330078125 C 483.5147705078125 305.3234558105469 458.162841796875 301.4429931640625 423.5255432128906 298.1418151855469" stroke-width="2.0" fill="rgb(174, 176, 193)" opacity="0.8207029" stroke="rgb(0, 0, 0)" stroke-opacity="0.0" stroke-linecap="round" stroke-linejoin="round"/>
    <path d="M 294.9573974609375 160.9442138671875 C 322.5000305175781 245.3448944091797 303.9493408203125 221.5361785888672 284.19696044921875 178.5941925048828 C 232.98643493652344 278.03497314453125 217.80062866210938 336.9607849121094 294.6922302246094 267.86566162109375 C 326.2732849121094 285.184814453125 338.0146179199219 340.87200927734375 340.2162170410156 365.5556945800781 C 349.55328369140625 372.9896240234375 357.27777099609375 347.6800537109375 357.6963806152344 336.02813720703125 C 359.2377014160156 308.05230712890625 350.57025146484375 266.0071716308594 323.3161315917969 231.43663024902344 C 323.8956604003906 225.85182189941406 324.07733154296875 194.3557586669922 354.3197021484375 155.3451385498047 L 294.9573974609375 160.9442138671875" stroke-width="2.0" fill="rgb(32, 30, 32)" opacity="0.95648354" stroke="rgb(0, 0, 0)" stroke-opacity="0.0" stroke-linecap="round" stroke-linejoin="round"/>
    <path d="M -1.6123656034469604 364.9562683105469 L -1.8896825313568115 383.4975891113281 C 79.11711120605469 385.0341796875 158.22779846191406 380.20489501953125 250.13824462890625 381.48126220703125 C 286.17987060546875 319.30438232421875 248.74322509765625 303.57421875 230.95748901367188 367.69940185546875 C 155.50001525878906 368.2699279785156 77.49004364013672 367.0120544433594 -1.6123656034469604 364.9562683105469" stroke-width="2.0" fill="rgb(-109, -60, 0)" opacity="0.3781407" stroke="rgb(0, 0, 0)" stroke-opacity="0.0" stroke-linecap="round" stroke-linejoin="round"/>
    <path d="M 318.8520812988281 121.1448974609375 C 332.773193359375 114.97823333740234 332.2409362792969 111.22386932373047 328.538818359375 115.11613464355469 C 342.7939453125 94.51596069335938 340.0658264160156 111.12602996826172 335.08038330078125 117.89800262451172 C 354.9549560546875 139.37477111816406 382.9277038574219 147.74253845214844 378.02874755859375 132.8406982421875 C 403.9145812988281 102.00959777832031 417.435546875 102.52355194091797 440.87347412109375 106.1531982421875 C 435.3038635253906 87.5594711303711 410.006591796875 97.64814758300781 389.76275634765625 79.99259948730469 C 357.4249572753906 67.10742950439453 332.40325927734375 75.93806457519531 318.8520812988281 121.1448974609375" stroke-width="2.0" fill="rgb(34, 32, 30)" opacity="1.0550705" stroke="rgb(0, 0, 0)" stroke-opacity="0.0" stroke-linecap="round" stroke-linejoin="round"/>
    <path d="M 398.7915954589844 246.5768585205078 C 399.6974792480469 270.0209045410156 396.11309814453125 293.8747253417969 390.9545593261719 314.7010498046875 C 405.46832275390625 334.7587890625 405.6949157714844 349.1089172363281 405.327880859375 367.4981689453125 C 415.7177429199219 377.751708984375 426.412109375 360.6258239746094 428.6720275878906 348.4565734863281 C 434.08685302734375 319.7237243652344 426.48388671875 281.7919006347656 398.7915954589844 246.5768585205078" stroke-width="2.0" fill="rgb(-25, -22, -27)" opacity="0.78535366" stroke="rgb(0, 0, 0)" stroke-opacity="0.0" stroke-linecap="round" stroke-linejoin="round"/>
    <path d="M 275.5592956542969 172.5460205078125 L 243.58572387695312 168.322509765625 C 228.3804473876953 177.40579223632812 206.72286987304688 191.47779846191406 231.5152587890625 204.39566040039062 C 250.90235900878906 194.41477966308594 250.1398162841797 210.6816864013672 256.1148986816406 234.3487091064453 C 266.8428955078125 216.4008026123047 274.9674987792969 199.34625244140625 283.52557373046875 178.4195098876953 C 287.4179382324219 173.20388793945312 280.80865478515625 174.8939971923828 275.5592956542969 172.5460205078125" stroke-width="2.0" fill="rgb(153, 163, 179)" opacity="1.0916755" stroke="rgb(0, 0, 0)" stroke-opacity="0.0" stroke-linecap="round" stroke-linejoin="round"/>
    <path d="M 511.8727111816406 245.353759765625 C 499.1998596191406 247.36874389648438 490.31939697265625 244.1600341796875 483.07452392578125 248.419677734375 C 478.01739501953125 262.74847412109375 484.76373291015625 284.59197998046875 479.272705078125 307.1904602050781 C 486.70501708984375 308.3611755371094 498.50469970703125 310.2455139160156 503.5037536621094 294.0514831542969 L 512.1527709960938 292.577392578125 L 511.8727111816406 245.353759765625" stroke-width="2.0" fill="rgb(208, 207, 209)" opacity="1.2150816" stroke="rgb(0, 0, 0)" stroke-opacity="0.0" stroke-linecap="round" stroke-linejoin="round"/>
    <path d="M 95.71830749511719 201.4657745361328 C 89.44193267822266 213.0543975830078 90.04013061523438 234.66311645507812 108.64405822753906 239.55880737304688 C 122.85487365722656 242.5253143310547 138.8048858642578 238.71002197265625 130.30711364746094 221.0523223876953 C 126.54600524902344 214.72767639160156 115.38329315185547 203.29505920410156 110.54499816894531 185.1722869873047 L 95.71830749511719 201.4657745361328" stroke-width="2.0" fill="rgb(182, 180, 188)" opacity="0.77385587" stroke="rgb(0, 0, 0)" stroke-opacity="0.0" stroke-linecap="round" stroke-linejoin="round"/>
    <path d="M 345.86871337890625 439.0204772949219 C 338.05999755859375 455.0924072265625 353.96746826171875 452.1683349609375 356.88238525390625 468.8199462890625 C 378.41015625 470.73846435546875 401.52496337890625 469.6827392578125 424.7319641113281 472.8408203125 C 412.09906005859375 454.629150390625 390.7552795410156 455.44622802734375 376.02264404296875 457.30987548828125 C 368.6763610839844 437.7616271972656 361.33074951171875 437.2651062011719 345.86871337890625 439.0204772949219" stroke-width="2.0" fill="rgb(24, 20, 36)" opacity="0.9195896" stroke="rgb(0, 0, 0)" stroke-opacity="0.0" stroke-linecap="round" stroke-linejoin="round"/>
    <path d="M 340.43670654296875 102.78340911865234 C 306.247314453125 131.72402954101562 339.7674865722656 146.5421142578125 372.2580261230469 186.91189575195312 L 372.68389892578125 149.60696411132812 C 354.1801452636719 131.22491455078125 346.8630065917969 126.95484161376953 351.0527648925781 114.11087036132812 C 353.59027099609375 101.224609375 347.97930908203125 101.9057388305664 340.43670654296875 102.78340911865234" stroke-width="2.0" fill="rgb(391, 321, 110)" opacity="0.4889296" stroke="rgb(0, 0, 0)" stroke-opacity="0.0" stroke-linecap="round" stroke-linejoin="round"/>
    <path d="M 72.20433807373047 271.298095703125 C 56.541786193847656 265.5272216796875 55.98656463623047 295.2630920410156 59.85414505004883 303.9909362792969 C 86.29209899902344 318.5845947265625 88.88813781738281 278.5746154785156 72.20433807373047 271.298095703125" stroke-width="2.0" fill="rgb(287, 252, 207)" opacity="0.6320555" stroke="rgb(0, 0, 0)" stroke-opacity="0.0" stroke-linecap="round" stroke-linejoin="round"/>
    <path d="M 232.657958984375 449.5836486816406 C 225.51966857910156 445.8793029785156 207.755615234375 442.9945983886719 217.76846313476562 433.844970703125 C 194.6158447265625 448.5286560058594 179.9923553466797 458.3775939941406 159.19285583496094 464.8873596191406 C 187.38912963867188 463.02984619140625 205.5535430908203 472.8150329589844 232.657958984375 449.5836486816406" stroke-width="2.0" fill="rgb(40, 39, 41)" opacity="0.9942171" stroke="rgb(0, 0, 0)" stroke-opacity="0.0" stroke-linecap="round" stroke-linejoin="round"/>
    <path d="M 390.8701477050781 316.19342041015625 C 388.0897216796875 338.2507019042969 378.8106689453125 353.318359375 381.43731689453125 366.896240234375 L 406.5790710449219 368.5995788574219 C 406.2811584472656 353.8934631347656 406.5910949707031 332.19354248046875 390.8701477050781 316.19342041015625" stroke-width="2.0" fill="rgb(172, 177, 192)" opacity="0.84333384" stroke="rgb(0, 0, 0)" stroke-opacity="0.0" stroke-linecap="round" stroke-linejoin="round"/>
    <path d="M 335.0881042480469 403.8457336425781 C 351.0682373046875 450.33953857421875 342.2362060546875 472.9427795410156 350.7611083984375 455.89984130859375 C 348.7778015136719 474.2294921875 364.6017150878906 470.1693420410156 367.7564697265625 467.1288757324219 C 382.9197082519531 440.9815979003906 374.13714599609375 398.0084533691406 335.0881042480469 403.8457336425781" stroke-width="2.0" fill="rgb(-19, -10, -13)" opacity="0.5507217" stroke="rgb(0, 0, 0)" stroke-opacity="0.0" stroke-linecap="round" stroke-linejoin="round"/>
    <path d="M 424.8479309082031 463.52459716796875 L 421.1534423828125 471.9493103027344 C 454.0067443847656 470.260498046875 480.3616027832031 473.3218078613281 514.9177856445312 469.0083923339844 L 513.205078125 463.67144775390625 L 424.8479309082031 463.52459716796875" stroke-width="2.0" fill="rgb(41, 82, 118)" opacity="0.9884936" stroke="rgb(0, 0, 0)" stroke-opacity="0.0" stroke-linecap="round" stroke-linejoin="round"/>
    <path d="M 366.46563720703125 470.3072814941406 C 383.8890686035156 468.8605651855469 405.5959777832031 471.3349304199219 424.9324951171875 468.7844543457031 C 422.7906494140625 453.4863586425781 387.77685546875 460.85772705078125 373.2507629394531 454.93743896484375 C 372.2132873535156 460.5967712402344 365.1501159667969 460.6209411621094 366.46563720703125 470.3072814941406" stroke-width="2.0" fill="rgb(27, 29, 34)" opacity="0.85560143" stroke="rgb(0, 0, 0)" stroke-opacity="0.0" stroke-linecap="round" stroke-linejoin="round"/>
    <path d="M 272.3182067871094 470.3417663574219 L 336.0058898925781 471.9609680175781 C 328.382080078125 450.6866455078125 293.9775390625 480.9928894042969 291.4723815917969 463.705078125 C 282.5948486328125 466.1634216308594 263.3218688964844 445.82818603515625 272.3182067871094 470.3417663574219" stroke-width="2.0" fill="rgb(86, 87, 85)" opacity="1.0205394" stroke="rgb(0, 0, 0)" stroke-opacity="0.0" stroke-linecap="round" stroke-linejoin="round"/>
    <path d="M 445.8377380371094 185.95143127441406 C 426.2557678222656 173.42393493652344 408.6767883300781 179.5049285888672 361.5614318847656 170.33372497558594 C 386.47216796875 218.130126953125 426.9175720214844 201.74168395996094 447.93133544921875 202.87071228027344 C 450.1549072265625 192.30853271484375 452.6294250488281 190.31582641601562 445.8377380371094 185.95143127441406" stroke-width="2.0" fill="rgb(134, 137, 151)" opacity="0.47975335" stroke="rgb(0, 0, 0)" stroke-opacity="0.0" stroke-linecap="round" stroke-linejoin="round"/>
    <path d="M 337.7531433105469 471.4881286621094 C 319.11187744140625 457.027099609375 295.83416748046875 459.9383544921875 283.9464111328125 469.5542907714844 C 277.730712890625 464.31549072265625 277.5911865234375 466.4775695800781 276.32684326171875 469.6574401855469 L 337.7531433105469 471.4881286621094" stroke-width="2.0" fill="rgb(38, 39, 42)" opacity="0.93432647" stroke="rgb(0, 0, 0)" stroke-opacity="0.0" stroke-linecap="round" stroke-linejoin="round"/>
    <path d="M 157.1012725830078 277.3219909667969 C 146.28973388671875 288.16680908203125 143.8920440673828 316.4040222167969 162.19000244140625 301.3117980957031 C 180.0099639892578 297.1484375 176.00567626953125 275.4981689453125 157.1012725830078 277.3219909667969" stroke-width="2.0" fill="rgb(146, 142, 138)" opacity="0.7646396" stroke="rgb(0, 0, 0)" stroke-opacity="0.0" stroke-linecap="round" stroke-linejoin="round"/>
    <path d="M 511.26458740234375 336.542236328125 C 498.8144836425781 346.03961181640625 498.05230712890625 358.81427001953125 485.2143249511719 365.6941223144531 C 493.948486328125 370.9175109863281 501.30242919921875 372.0334777832031 510.6363830566406 371.6638488769531 L 511.26458740234375 336.542236328125" stroke-width="2.0" fill="rgb(171, 169, 178)" opacity="0.81559783" stroke="rgb(0, 0, 0)" stroke-opacity="0.0" stroke-linecap="round" stroke-linejoin="round"/>
    <path d="M 474.8410339355469 274.2137145996094 C 460.4967346191406 279.5195617675781 450.47735595703125 299.5722351074219 465.8323669433594 309.18902587890625 C 482.22039794921875 300.4776306152344 481.4197082519531 287.8761291503906 474.8410339355469 274.2137145996094" stroke-width="2.0" fill="rgb(159, 156, 158)" opacity="1.0073504" stroke="rgb(0, 0, 0)" stroke-opacity="0.0" stroke-linecap="round" stroke-linejoin="round"/>
    <path d="M 216.2307891845703 267.3929443359375 C 195.24993896484375 270.3739929199219 208.784912109375 296.15228271484375 225.70919799804688 296.3486328125 C 230.4464111328125 287.77630615234375 233.8724365234375 267.9325866699219 216.2307891845703 267.3929443359375" stroke-width="2.0" fill="rgb(102, 112, 129)" opacity="1.0576031" stroke="rgb(0, 0, 0)" stroke-opacity="0.0" stroke-linecap="round" stroke-linejoin="round"/>
    <path d="M 15.214926719665527 284.5440368652344 C 2.4623749256134033 294.23223876953125 6.532594680786133 310.0727844238281 18.78890609741211 306.83612060546875 C 34.15616226196289 302.7038879394531 28.073169708251953 285.12408447265625 15.214926719665527 284.5440368652344" stroke-width="2.0" fill="rgb(88, 90, 107)" opacity="0.79895675" stroke="rgb(0, 0, 0)" stroke-opacity="0.0" stroke-linecap="round" stroke-linejoin="round"/>
    <path d="M 104.17533874511719 408.49456787109375 C 109.75287628173828 419.8236999511719 129.31756591796875 413.554931640625 137.28184509277344 416.9349365234375 C 144.62847900390625 414.35528564453125 150.9144744873047 410.98248291015625 148.06935119628906 408.11456298828125 L 104.17533874511719 408.49456787109375" stroke-width="2.0" fill="rgb(136, 147, 166)" opacity="1.0057706" stroke="rgb(0, 0, 0)" stroke-opacity="0.0" stroke-linecap="round" stroke-linejoin="round"/>
    <path d="M 386.64666748046875 103.78612518310547 C 404.4601135253906 103.03863525390625 428.1308288574219 105.21512603759766 431.958984375 101.86279296875 C 418.9308776855469 96.85581970214844 394.5002136230469 94.97301483154297 386.64666748046875 103.78612518310547" stroke-width="2.0" fill="rgb(195, 100, 45)" opacity="1.1242645" stroke="rgb(0, 0, 0)" stroke-opacity="0.0" stroke-linecap="round" stroke-linejoin="round"/>
    <path d="M 214.88050842285156 273.74566650390625 C 210.1607666015625 278.7251281738281 212.44532775878906 293.16339111328125 221.91973876953125 292.41754150390625 C 225.31065368652344 285.58392333984375 227.1429443359375 271.17523193359375 214.88050842285156 273.74566650390625" stroke-width="2.0" fill="rgb(21, 20, 29)" opacity="0.66436154" stroke="rgb(0, 0, 0)" stroke-opacity="0.0" stroke-linecap="round" stroke-linejoin="round"/>
    <path d="M 433.3671875 283.80322265625 C 418.0099792480469 290.8888854980469 429.32684326171875 313.2759094238281 447.4037780761719 300.6592102050781 C 448.0870361328125 291.4409484863281 444.9842224121094 281.35784912109375 433.3671875 283.80322265625" stroke-width="2.0" fill="rgb(161, 161, 164)" opacity="1.0042396" stroke="rgb(0, 0, 0)" stroke-opacity="0.0" stroke-linecap="round" stroke-linejoin="round"/>
    <path d="M 473.83160400390625 283.6632080078125 C 461.9616394042969 282.8851623535156 458.5142822265625 298.3514709472656 466.9191589355469 303.9604797363281 C 477.07421875 295.63323974609375 472.2181701660156 288.391845703125 473.83160400390625 283.6632080078125" stroke-width="2.0" fill="rgb(91, 88, 90)" opacity="1.024471" stroke="rgb(0, 0, 0)" stroke-opacity="0.0" stroke-linecap="round" stroke-linejoin="round"/>
    <path d="M 58.75080108642578 278.4222717285156 C 45.76846694946289 291.3166809082031 38.00586700439453 313.36273193359375 61.35322570800781 310.013427734375 C 57.29044723510742 297.7243957519531 61.045860290527344 281.4801025390625 58.75080108642578 278.4222717285156" stroke-width="2.0" fill="rgb(105, 91, 83)" opacity="0.41471994" stroke="rgb(0, 0, 0)" stroke-opacity="0.0" stroke-linecap="round" stroke-linejoin="round"/>
    <path d="M 123.61770629882812 288.93585205078125 C 102.8597412109375 308.6548156738281 143.74879455566406 314.36492919921875 131.4072265625 292.7032165527344 C 128.3557586669922 288.1888732910156 126.75634765625 286.130859375 123.61770629882812 288.93585205078125" stroke-width="2.0" fill="rgb(59, 66, 90)" opacity="0.41529486" stroke="rgb(0, 0, 0)" stroke-opacity="0.0" stroke-linecap="round" stroke-linejoin="round"/>
    <path d="M 290.6868591308594 447.042724609375 C 283.5705261230469 463.95037841796875 261.36700439453125 459.2483825683594 274.0010681152344 470.34649658203125 C 279.4786682128906 471.12152099609375 277.3218078613281 462.6145935058594 283.20123291015625 462.9956970214844 L 296.7604064941406 465.0424499511719 L 290.6868591308594 447.042724609375" stroke-width="2.0" fill="rgb(50, 51, 52)" opacity="1.0433824" stroke="rgb(0, 0, 0)" stroke-opacity="0.0" stroke-linecap="round" stroke-linejoin="round"/>
    <path d="M 160.37179565429688 415.572265625 C 169.54495239257812 416.3790283203125 180.56387329101562 420.3759460449219 190.8235321044922 417.18096923828125 C 179.80873107910156 407.91943359375 171.88270568847656 404.3001708984375 160.37179565429688 415.572265625" stroke-width="2.0" fill="rgb(136, 147, 165)" opacity="1.0022422" stroke="rgb(0, 0, 0)" stroke-opacity="0.0" stroke-linecap="round" stroke-linejoin="round"/>
    <path d="M 435.7842712402344 287.5861511230469 C 419.61846923828125 297.88726806640625 447.8465270996094 306.94989013671875 441.7415466308594 290.8755798339844 C 440.07110595703125 288.74139404296875 436.619384765625 287.1468811035156 435.7842712402344 287.5861511230469" stroke-width="2.0" fill="rgb(100, 101, 103)" opacity="1.0314554" stroke="rgb(0, 0, 0)" stroke-opacity="0.0" stroke-linecap="round" stroke-linejoin="round"/>
    <path d="M 136.57879638671875 399.7275695800781 C 141.69444274902344 404.529541015625 159.0911865234375 407.4206237792969 166.8917999267578 400.8685302734375 C 159.64320373535156 396.2106628417969 148.37977600097656 398.9369812011719 136.57879638671875 399.7275695800781" stroke-width="2.0" fill="rgb(132, 144, 160)" opacity="1.0061253" stroke="rgb(0, 0, 0)" stroke-opacity="0.0" stroke-linecap="round" stroke-linejoin="round"/>
    <path d="M 94.27530670166016 500.7493591308594 C 95.73673248291016 510.6341552734375 125.5334701538086 510.0817565917969 106.0408935546875 499.27496337890625 L 94.27530670166016 500.7493591308594" stroke-width="2.0" fill="rgb(129, 144, 165)" opacity="1.0075711" stroke="rgb(0, 0, 0)" stroke-opacity="0.0" stroke-linecap="round" stroke-linejoin="round"/>
    <path d="M 510.98626708984375 292.4034118652344 C 491.8759765625 288.75408935546875 492.86163330078125 312.98480224609375 512.2130737304688 310.5286560058594 L 510.98626708984375 292.4034118652344" stroke-width="2.0" fill="rgb(166, 165, 169)" opacity="1.1514995" stroke="rgb(0, 0, 0)" stroke-opacity="0.0" stroke-linecap="round" stroke-linejoin="round"/>
    <path d="M 330.7254333496094 465.364013671875 C 331.64227294921875 472.7864685058594 361.8755187988281 473.6866455078125 351.3244934082031 464.5704345703125 L 330.7254333496094 465.364013671875" stroke-width="2.0" fill="rgb(47, 68, 95)" opacity="0.6564188" stroke="rgb(0, 0, 0)" stroke-opacity="0.0" stroke-linecap="round" stroke-linejoin="round"/>
    <path d="M 7.210811138153076 219.24649047851562 C 10.1215238571167 225.9055938720703 4.596600532531738 228.8458251953125 13.752975463867188 235.35964965820312 L 54.10900115966797 227.02227783203125 C 33.563114166259766 212.67938232421875 22.757051467895508 227.84027099609375 33.61691665649414 220.6160430908203 C 51.64503860473633 221.8023681640625 36.73801803588867 201.0294647216797 7.210811138153076 219.24649047851562" stroke-width="2.0" fill="rgb(171, 174, 189)" opacity="1.0228609" stroke="rgb(0, 0, 0)" stroke-opacity="0.0" stroke-linecap="round" stroke-linejoin="round"/>
    <path d="M 506.3914489746094 172.95758056640625 C 488.013427734375 187.08441162109375 497.49652099609375 196.01181030273438 503.7294006347656 200.84510803222656 C 509.17889404296875 196.76345825195312 517.9550170898438 190.34811401367188 506.3914489746094 172.95758056640625" stroke-width="2.0" fill="rgb(164, 176, 196)" opacity="0.7840592" stroke="rgb(0, 0, 0)" stroke-opacity="0.0" stroke-linecap="round" stroke-linejoin="round"/>
  </g>
</svg>
