<?xml version="1.0" ?>
<svg xmlns="http://www.w3.org/2000/svg" version="1.1" width="511" height="512">
  <defs/>
  <g>
    <path d="M 0.0 0.0 L 511.0 0.0 L 511.0 512.0 L 0.0 512.0 L 0.0 0.0" stroke-width="0.0" fill="rgb(255, 255, 255)" opacity="1.0" stroke="rgb(0, 0, 0)" stroke-opacity="0.0" stroke-linecap="round" stroke-linejoin="round"/>
    <path d="M 1.0 6.0 C 2.328885316848755 47.33333206176758 -1.660711646080017 88.66666412353516 3.0 130.0 C 44.66666793823242 128.1790771484375 86.33333587646484 140.41961669921875 128.0 133.0 C 151.75662231445312 149.65078735351562 178.89256286621094 212.58126831054688 213.0 197.0 C 221.74021911621094 185.2650146484375 234.61244201660156 186.6211395263672 245.0 172.0 C 258.0 164.76730346679688 271.0 170.94801330566406 284.0 171.0 C 326.6951904296875 143.1253204345703 304.229736328125 110.724609375 339.0 80.0 C 369.0 58.260047912597656 399.0 88.90843200683594 429.0 92.0 C 434.1455078125 94.3000259399414 445.6899719238281 101.72852325439453 440.0 108.0 C 419.5844421386719 102.80776977539062 379.2617492675781 116.83238983154297 382.0 145.0 C 385.0385437011719 156.6666717529297 388.8857727050781 168.3333282470703 393.0 180.0 C 431.0 174.48638916015625 469.0 184.95437622070312 507.0 177.0 C 510.9842834472656 119.33333587646484 509.0115966796875 61.66666793823242 508.0 4.0 L 9.0 3.0 L 1.0 6.0" stroke-width="2.0" fill="rgb(113, 150, 183)" opacity="1.0" stroke="rgb(0, 0, 0)" stroke-opacity="0.0" stroke-linecap="round" stroke-linejoin="round"/>
    <path d="M 509.0 376.0 L 507.0 373.0 C 466.0 376.66217041015625 425.0 371.3050842285156 384.0 374.0 C 389.29010009765625 397.6666564941406 367.21710205078125 421.3333435058594 380.0 445.0 L 378.0 452.0 C 393.6546936035156 458.38067626953125 416.22412109375 448.3818664550781 427.0 469.0 L 423.0 473.0 C 400.3333435058594 472.201904296875 377.6666564941406 472.58843994140625 355.0 470.0 C 340.3962097167969 446.0376281738281 317.2723388671875 440.61590576171875 296.0 446.0 C 290.5564270019531 450.0 297.8554382324219 454.0 296.0 458.0 C 309.41949462890625 460.5777587890625 326.75006103515625 456.4877014160156 337.0 468.0 C 337.059814453125 469.6666564941406 337.5042724609375 471.3333435058594 335.0 473.0 C 314.0 473.6521911621094 293.0 472.2381591796875 272.0 471.0 C 264.287841796875 465.0 269.5036315917969 459.0 264.0 453.0 C 253.0 450.8564147949219 242.0 448.678466796875 231.0 452.0 C 208.0 472.57958984375 185.0 464.6625061035156 162.0 466.0 L 160.0 463.0 C 180.7377166748047 451.1111145019531 204.59695434570312 445.7720642089844 214.0 421.0 C 229.3152618408203 409.3351135253906 236.65423583984375 394.2656555175781 232.0 379.0 L 2.0 382.0 C -2.5452096462249756 425.0 1.2444241046905518 468.0 0.0 511.0 L 510.0 511.0 L 509.0 376.0" stroke-width="2.0" fill="rgb(172, 176, 193)" opacity="1.0" stroke="rgb(0, 0, 0)" stroke-opacity="0.0" stroke-linecap="round" stroke-linejoin="round"/>
    <path d="M 435.0 98.0 C 413.3333435058594 92.93921661376953 391.6666564941406 80.89421081542969 370.0 75.0 C 335.0320129394531 68.61334991455078 314.6142272949219 117.70201110839844 314.0 143.0 C 310.2030944824219 155.33335876464844 294.09332275390625 162.10964965820312 286.0 174.0 C 260.88427734375 225.6666717529297 236.24044799804688 277.3333435058594 235.0 329.0 C 228.18936157226562 359.1781311035156 252.08628845214844 394.088134765625 218.0 421.0 C 213.22769165039062 427.3333435058594 210.24436950683594 433.6666564941406 207.0 440.0 C 194.66073608398438 448.7710876464844 177.00790405273438 456.1609802246094 168.0 463.0 C 190.6666717529297 466.1827697753906 213.3333282470703 464.32928466796875 236.0 447.0 C 246.0 449.0320739746094 256.0 443.73162841796875 266.0 451.0 C 271.0936279296875 457.0 267.99072265625 463.0 274.0 469.0 L 333.0 470.0 C 322.8472900390625 453.3321533203125 289.43572998046875 472.2465515136719 291.0 446.0 C 308.0 441.7033386230469 325.0 433.5627746582031 342.0 449.0 C 346.46563720703125 456.22979736328125 350.3681945800781 462.62744140625 356.0 468.0 C 378.3333435058594 468.32501220703125 400.6666564941406 473.7635192871094 423.0 467.0 C 410.8913269042969 449.39508056640625 387.760498046875 462.8737487792969 374.0 452.0 C 377.88720703125 443.6666564941406 369.94061279296875 435.3333435058594 372.0 427.0 C 384.8687744140625 390.3333435058594 375.5193176269531 353.6666564941406 389.0 317.0 C 397.7362365722656 312.2823791503906 399.0340270996094 330.0865173339844 404.0 335.0 C 408.4021911621094 344.421630859375 399.7813415527344 379.2192077636719 421.0 363.0 C 437.846435546875 324.6666564941406 426.29168701171875 286.3333435058594 398.0 248.0 C 400.3062744140625 211.3333282470703 385.1707763671875 174.6666717529297 377.0 138.0 C 385.3810729980469 110.59198760986328 418.5619201660156 99.3601303100586 438.0 104.0 L 435.0 98.0" stroke-width="2.0" fill="rgb(112, 110, 103)" opacity="1.0" stroke="rgb(0, 0, 0)" stroke-opacity="0.0" stroke-linecap="round" stroke-linejoin="round"/>
    <path d="M 1.0 135.0 L 0.0 293.0 C 5.0 299.57244873046875 10.0 293.7373046875 15.0 295.0 C 15.854419708251953 300.71356201171875 22.591829299926758 302.9829406738281 26.0 295.0 C 33.58327865600586 301.58953857421875 44.819278717041016 302.1251525878906 54.0 298.0 C 58.21625518798828 286.35791015625 56.310550689697266 262.615966796875 75.0 263.0 C 94.34492492675781 274.0915222167969 75.55343627929688 291.00714111328125 90.0 302.0 C 103.17828369140625 297.95965576171875 118.42007446289062 303.2045593261719 130.0 295.0 C 138.03846740722656 301.8636779785156 155.6837615966797 297.67486572265625 152.0 285.0 C 158.92758178710938 271.9290466308594 170.51760864257812 281.1924133300781 176.0 289.0 C 186.05288696289062 280.2657165527344 205.8463592529297 286.13812255859375 208.0 272.0 C 212.7068328857422 267.8302917480469 223.9644775390625 257.796630859375 224.0 270.0 C 233.98574829101562 274.633544921875 241.9718017578125 266.10406494140625 240.0 256.0 C 250.553466796875 249.08287048339844 257.4490966796875 228.36135864257812 237.0 221.0 C 229.91561889648438 221.21319580078125 224.0343780517578 215.48684692382812 218.0 208.0 C 198.3333282470703 212.53965759277344 178.6666717529297 197.3721466064453 159.0 177.0 C 145.35984802246094 165.53033447265625 136.99481201171875 135.0928192138672 120.0 136.0 C 80.66666412353516 145.3169708251953 41.33333206176758 128.57809448242188 1.0 135.0" stroke-width="2.0" fill="rgb(135, 152, 174)" opacity="1.0" stroke="rgb(0, 0, 0)" stroke-opacity="0.0" stroke-linecap="round" stroke-linejoin="round"/>
    <path d="M 235.0 302.0 C 227.1256866455078 296.5469665527344 212.5638885498047 302.8609924316406 206.0 288.0 C 189.71388244628906 279.6849060058594 175.46780395507812 301.66357421875 160.0 306.0 C 132.3333282470703 303.8272399902344 104.66666412353516 305.6116027832031 77.0 311.0 C 51.63833236694336 310.3655700683594 23.704925537109375 303.90155029296875 0.0 317.0 L 1.0 377.0 C 77.33333587646484 379.7389221191406 153.6666717529297 375.66485595703125 230.0 376.0 C 234.06146240234375 351.6666564941406 230.97596740722656 327.3333435058594 235.0 302.0" stroke-width="2.0" fill="rgb(164, 169, 182)" opacity="1.0" stroke="rgb(0, 0, 0)" stroke-opacity="0.0" stroke-linecap="round" stroke-linejoin="round"/>
    <path d="M 234.0 305.0 C 228.58837890625 298.90911865234375 219.96026611328125 300.1513366699219 213.0 297.0 C 207.41966247558594 282.1556396484375 191.32069396972656 286.4117431640625 194.0 297.0 C 188.22862243652344 297.8227844238281 191.23858642578125 289.2045593261719 187.0 297.0 C 177.90298461914062 295.6622009277344 174.51223754882812 301.54901123046875 165.0 305.0 C 126.66666412353516 301.4039306640625 88.33333587646484 313.2626037597656 50.0 308.0 C 33.33333206176758 310.78662109375 16.66666603088379 307.04144287109375 0.0 315.0 L 0.0 362.0 C 77.0 362.2809143066406 154.0 361.3709716796875 231.0 367.0 L 234.0 305.0" stroke-width="2.0" fill="rgb(183, 185, 196)" opacity="1.0" stroke="rgb(0, 0, 0)" stroke-opacity="0.0" stroke-linecap="round" stroke-linejoin="round"/>
    <path d="M 0.0 133.0 L 0.0 212.0 C 6.126214504241943 213.3797149658203 17.16080093383789 208.24742126464844 20.0 215.0 C 33.459197998046875 213.13624572753906 41.765079498291016 217.6210479736328 54.0 217.0 C 58.03981399536133 220.96707153320312 67.79505920410156 221.03421020507812 76.0 229.0 C 84.2864761352539 230.6433868408203 93.09593200683594 225.39659118652344 100.0 236.0 C 115.10687255859375 245.3390655517578 142.4933319091797 240.90985107421875 133.0 219.0 C 128.70018005371094 207.94378662109375 114.56898498535156 199.44378662109375 115.0 188.0 C 122.28952026367188 171.0 139.8872833251953 154.0 130.0 137.0 C 95.33333587646484 139.20513916015625 60.66666793823242 138.8185272216797 26.0 132.0 L 0.0 133.0" stroke-width="2.0" fill="rgb(199, 199, 207)" opacity="1.0" stroke="rgb(0, 0, 0)" stroke-opacity="0.0" stroke-linecap="round" stroke-linejoin="round"/>
    <path d="M 234.0 386.0 L 232.0 379.0 L 0.0 381.0 L 0.0 416.0 C 68.33333587646484 417.1971740722656 136.6666717529297 415.3106689453125 205.0 415.0 C 212.9918212890625 411.73486328125 221.36814880371094 413.494873046875 228.0 409.0 C 229.66424560546875 398.6262512207031 231.6010284423828 395.23870849609375 234.0 386.0" stroke-width="2.0" fill="rgb(168, 173, 188)" opacity="1.0" stroke="rgb(0, 0, 0)" stroke-opacity="0.0" stroke-linecap="round" stroke-linejoin="round"/>
    <path d="M 135.0 150.0 C 133.10562133789062 164.6666717529297 116.24227905273438 179.3333282470703 118.0 194.0 C 136.6062774658203 213.6666717529297 139.5554656982422 233.3333282470703 140.0 253.0 C 150.27894592285156 267.27947998046875 165.8065948486328 270.5542907714844 175.0 287.0 C 184.3333282470703 284.81671142578125 193.6666717529297 280.2984619140625 203.0 277.0 C 202.0057373046875 269.00982666015625 207.42617797851562 266.4609680175781 206.0 258.0 C 213.39356994628906 248.10565185546875 234.28402709960938 237.92874145507812 235.0 224.0 C 225.92904663085938 218.99179077148438 222.81607055664062 211.68983459472656 216.0 207.0 C 186.30703735351562 218.72137451171875 157.109619140625 171.36026000976562 135.0 150.0" stroke-width="2.0" fill="rgb(49, 95, 135)" opacity="1.0" stroke="rgb(0, 0, 0)" stroke-opacity="0.0" stroke-linecap="round" stroke-linejoin="round"/>
    <path d="M 384.0 371.0 C 384.8786926269531 385.6953430175781 378.0185852050781 402.9612731933594 381.0 416.0 C 423.6666564941406 417.5814514160156 466.3333435058594 421.1471862792969 509.0 421.0 C 508.7994689941406 404.6666564941406 511.12646484375 388.3333435058594 507.0 372.0 C 466.3333435058594 372.7100830078125 425.6666564941406 370.58758544921875 384.0 371.0" stroke-width="2.0" fill="rgb(178, 182, 196)" opacity="1.0" stroke="rgb(0, 0, 0)" stroke-opacity="0.0" stroke-linecap="round" stroke-linejoin="round"/>
    <path d="M 135.0 151.0 C 133.5415802001953 165.9540557861328 117.43898010253906 177.92971801757812 118.0 193.0 C 133.56468200683594 209.3333282470703 134.95716857910156 225.6666717529297 145.0 242.0 C 173.51361083984375 238.16151428222656 208.28005981445312 259.3179626464844 232.0 232.0 C 240.03839111328125 222.07705688476562 221.95980834960938 217.7351837158203 218.0 208.0 C 207.0 206.15765380859375 196.0 211.7350616455078 185.0 202.0 C 162.4990234375 186.21080017089844 153.92434692382812 168.98236083984375 135.0 151.0" stroke-width="2.0" fill="rgb(41, 90, 131)" opacity="1.0" stroke="rgb(0, 0, 0)" stroke-opacity="0.0" stroke-linecap="round" stroke-linejoin="round"/>
    <path d="M 431.0 308.0 C 432.209716796875 326.48846435546875 435.15924072265625 347.1193542480469 424.0 364.0 L 425.0 368.0 C 452.6666564941406 369.96783447265625 480.3333435058594 368.7772216796875 508.0 369.0 L 508.0 311.0 C 482.6666564941406 311.5404968261719 457.3333435058594 306.6494445800781 431.0 308.0" stroke-width="2.0" fill="rgb(184, 185, 198)" opacity="1.0" stroke="rgb(0, 0, 0)" stroke-opacity="0.0" stroke-linecap="round" stroke-linejoin="round"/>
    <path d="M 310.0 213.0 C 310.45556640625 222.59878540039062 300.3820495605469 218.19802856445312 295.0 222.0 C 292.8754577636719 238.49942016601562 278.0787353515625 261.6424255371094 303.0 272.0 C 331.89862060546875 302.3333435058594 335.7428283691406 332.6666564941406 340.0 363.0 C 352.5622253417969 367.80517578125 353.8985290527344 346.4196472167969 356.0 340.0 C 357.8029479980469 304.6666564941406 350.96087646484375 269.3333435058594 323.0 234.0 C 320.1717834472656 227.11590576171875 319.3481750488281 217.6798553466797 311.0 220.0 L 310.0 213.0" stroke-width="2.0" fill="rgb(45, 43, 43)" opacity="1.0" stroke="rgb(0, 0, 0)" stroke-opacity="0.0" stroke-linecap="round" stroke-linejoin="round"/>
    <path d="M 0.0 363.0 L 0.0 379.0 C 77.66666412353516 378.5565490722656 155.3333282470703 378.86224365234375 233.0 376.0 C 232.2716064453125 373.0 234.8015594482422 370.0 231.0 367.0 C 154.3333282470703 362.6865234375 77.66666412353516 362.5552062988281 0.0 363.0" stroke-width="2.0" fill="rgb(85, 103, 123)" opacity="1.0" stroke="rgb(0, 0, 0)" stroke-opacity="0.0" stroke-linecap="round" stroke-linejoin="round"/>
    <path d="M 324.0 109.0 C 325.4058837890625 104.23106384277344 329.8674621582031 100.11547088623047 336.0 105.0 C 351.3086242675781 93.30677795410156 353.3996887207031 114.08380889892578 350.0 123.0 C 355.7080383300781 138.24073791503906 379.7197570800781 145.9339599609375 380.0 128.0 C 399.6666564941406 103.4189682006836 419.3333435058594 101.72794342041016 439.0 103.0 C 422.6402587890625 86.7779541015625 402.01959228515625 94.01329803466797 384.0 78.0 C 363.7000732421875 67.64790344238281 330.8876647949219 79.74079895019531 324.0 109.0" stroke-width="2.0" fill="rgb(24, 16, 13)" opacity="1.0" stroke="rgb(0, 0, 0)" stroke-opacity="0.0" stroke-linecap="round" stroke-linejoin="round"/>
    <path d="M 400.0 250.0 C 398.4449462890625 271.6666564941406 396.064208984375 293.3333435058594 392.0 315.0 C 406.0588684082031 332.3333435058594 405.475830078125 349.6666564941406 407.0 367.0 C 414.19415283203125 375.29833984375 425.4249267578125 358.07537841796875 427.0 351.0 C 433.2109375 317.6666564941406 425.3261413574219 284.3333435058594 400.0 250.0" stroke-width="2.0" fill="rgb(53, 55, 50)" opacity="1.0" stroke="rgb(0, 0, 0)" stroke-opacity="0.0" stroke-linecap="round" stroke-linejoin="round"/>
    <path d="M 274.0 172.0 L 249.0 172.0 C 238.0443878173828 184.7871551513672 217.99754333496094 198.97181701660156 225.0 214.0 C 236.4374237060547 217.3976593017578 245.5578155517578 225.56912231445312 255.0 233.0 C 265.4745788574219 215.3333282470703 273.4510803222656 197.6666717529297 281.0 180.0 C 282.406494140625 175.46249389648438 277.7093505859375 176.43994140625 274.0 172.0" stroke-width="2.0" fill="rgb(135, 147, 168)" opacity="1.0" stroke="rgb(0, 0, 0)" stroke-opacity="0.0" stroke-linecap="round" stroke-linejoin="round"/>
    <path d="M 508.0 243.0 C 499.0 243.9354248046875 490.0 239.6807861328125 481.0 243.0 C 477.5206298828125 262.7527770996094 483.4628601074219 284.8824157714844 477.0 303.0 C 486.88702392578125 302.15948486328125 498.531494140625 307.27313232421875 503.0 293.0 L 509.0 292.0 L 508.0 243.0" stroke-width="2.0" fill="rgb(216, 212, 215)" opacity="1.0" stroke="rgb(0, 0, 0)" stroke-opacity="0.0" stroke-linecap="round" stroke-linejoin="round"/>
    <path d="M 99.0 201.0 C 92.09223175048828 213.75616455078125 90.80609893798828 234.93423461914062 109.0 240.0 C 122.57957458496094 243.25384521484375 140.8600616455078 237.60888671875 134.0 220.0 C 130.2198944091797 211.91969299316406 121.44938659667969 198.7758331298828 113.0 194.0 L 99.0 201.0" stroke-width="2.0" fill="rgb(172, 174, 185)" opacity="1.0" stroke="rgb(0, 0, 0)" stroke-opacity="0.0" stroke-linecap="round" stroke-linejoin="round"/>
    <path d="M 345.0 440.0 C 341.63580322265625 453.4026794433594 348.36273193359375 458.332763671875 356.0 468.0 C 378.6666564941406 469.84783935546875 401.3333435058594 469.13720703125 424.0 469.0 C 414.0697937011719 452.1923522949219 391.8592529296875 457.80908203125 377.0 457.0 C 370.52130126953125 441.8830871582031 357.7190246582031 438.07025146484375 345.0 440.0" stroke-width="2.0" fill="rgb(24, 25, 30)" opacity="1.0" stroke="rgb(0, 0, 0)" stroke-opacity="0.0" stroke-linecap="round" stroke-linejoin="round"/>
    <path d="M 344.0 102.0 C 309.9667053222656 111.57968139648438 332.33172607421875 164.82850646972656 360.0 150.0 L 369.0 139.0 C 352.41766357421875 138.4727020263672 344.7432861328125 117.07292938232422 351.0 106.0 C 349.818115234375 102.79423522949219 347.4652404785156 102.87242889404297 344.0 102.0" stroke-width="2.0" fill="rgb(225, 202, 124)" opacity="1.0" stroke="rgb(0, 0, 0)" stroke-opacity="0.0" stroke-linecap="round" stroke-linejoin="round"/>
    <path d="M 75.0 264.0 C 55.5369873046875 266.390380859375 53.40373229980469 294.44677734375 61.0 308.0 C 87.10116577148438 316.02264404296875 91.0605239868164 279.67193603515625 75.0 264.0" stroke-width="2.0" fill="rgb(194, 189, 185)" opacity="1.0" stroke="rgb(0, 0, 0)" stroke-opacity="0.0" stroke-linecap="round" stroke-linejoin="round"/>
    <path d="M 234.0 448.0 C 222.92393493652344 450.11474609375 215.3553009033203 439.80584716796875 212.0 436.0 C 195.3333282470703 448.79644775390625 178.6666717529297 456.9073791503906 162.0 464.0 C 185.6666717529297 463.00482177734375 209.3333282470703 470.1570739746094 234.0 448.0" stroke-width="2.0" fill="rgb(45, 45, 47)" opacity="1.0" stroke="rgb(0, 0, 0)" stroke-opacity="0.0" stroke-linecap="round" stroke-linejoin="round"/>
    <path d="M 391.0 324.0 C 388.7013854980469 338.6666564941406 379.3111877441406 353.3333435058594 385.0 368.0 L 403.0 368.0 C 402.6011657714844 353.9689636230469 405.1574401855469 334.7085266113281 391.0 324.0" stroke-width="2.0" fill="rgb(177, 181, 194)" opacity="1.0" stroke="rgb(0, 0, 0)" stroke-opacity="0.0" stroke-linecap="round" stroke-linejoin="round"/>
    <path d="M 346.0 439.0 C 341.9244689941406 445.9254455566406 343.93951416015625 459.5856018066406 351.0 459.0 C 348.8030090332031 469.37847900390625 368.9637145996094 472.55865478515625 367.0 462.0 C 386.9403991699219 452.3541259765625 357.2917785644531 433.93267822265625 346.0 439.0" stroke-width="2.0" fill="rgb(13, 14, 18)" opacity="1.0" stroke="rgb(0, 0, 0)" stroke-opacity="0.0" stroke-linecap="round" stroke-linejoin="round"/>
    <path d="M 425.0 464.0 L 426.0 470.0 C 454.0 471.650146484375 482.0 468.003662109375 510.0 471.0 L 510.0 464.0 L 425.0 464.0" stroke-width="2.0" fill="rgb(50, 89, 124)" opacity="1.0" stroke="rgb(0, 0, 0)" stroke-opacity="0.0" stroke-linecap="round" stroke-linejoin="round"/>
    <path d="M 366.0 467.0 C 383.3352355957031 471.8354187011719 404.9985656738281 467.90283203125 424.0 469.0 C 413.4749450683594 451.8538818359375 390.47357177734375 457.9148864746094 375.0 457.0 C 371.1205749511719 459.2178039550781 365.7865905761719 461.0621337890625 366.0 467.0" stroke-width="2.0" fill="rgb(34, 36, 43)" opacity="1.0" stroke="rgb(0, 0, 0)" stroke-opacity="0.0" stroke-linecap="round" stroke-linejoin="round"/>
    <path d="M 272.0 469.0 L 334.0 471.0 C 324.1030578613281 452.123046875 294.8673095703125 473.34771728515625 291.0 451.0 C 283.8998107910156 463.3015441894531 264.5067138671875 453.9452209472656 272.0 469.0" stroke-width="2.0" fill="rgb(48, 50, 51)" opacity="1.0" stroke="rgb(0, 0, 0)" stroke-opacity="0.0" stroke-linecap="round" stroke-linejoin="round"/>
    <path d="M 443.0 182.0 C 426.3333435058594 169.7769317626953 409.6666564941406 184.13009643554688 393.0 182.0 C 397.35174560546875 202.90516662597656 424.9351501464844 187.5041961669922 439.0 188.0 C 440.7720642089844 186.8393096923828 444.0078430175781 185.31898498535156 443.0 182.0" stroke-width="2.0" fill="rgb(106, 132, 164)" opacity="1.0" stroke="rgb(0, 0, 0)" stroke-opacity="0.0" stroke-linecap="round" stroke-linejoin="round"/>
    <path d="M 335.0 471.0 C 321.1882019042969 455.875732421875 299.10601806640625 463.776611328125 282.0 462.0 C 278.5415954589844 463.2888488769531 277.7783203125 466.3436279296875 276.0 469.0 L 335.0 471.0" stroke-width="2.0" fill="rgb(52, 54, 55)" opacity="1.0" stroke="rgb(0, 0, 0)" stroke-opacity="0.0" stroke-linecap="round" stroke-linejoin="round"/>
    <path d="M 157.0 277.0 C 149.12564086914062 284.7701721191406 147.8707733154297 308.1483154296875 163.0 303.0 C 175.05252075195312 297.74639892578125 172.74789428710938 273.6416320800781 157.0 277.0" stroke-width="2.0" fill="rgb(162, 161, 161)" opacity="1.0" stroke="rgb(0, 0, 0)" stroke-opacity="0.0" stroke-linecap="round" stroke-linejoin="round"/>
    <path d="M 509.0 338.0 C 498.2322998046875 346.0589599609375 495.4336242675781 357.4440002441406 487.0 366.0 C 494.3333435058594 367.98388671875 501.6666564941406 368.1986999511719 509.0 368.0 L 509.0 338.0" stroke-width="2.0" fill="rgb(176, 175, 183)" opacity="1.0" stroke="rgb(0, 0, 0)" stroke-opacity="0.0" stroke-linecap="round" stroke-linejoin="round"/>
    <path d="M 474.0 275.0 C 462.010498046875 278.39337158203125 453.7170715332031 297.1499328613281 466.0 305.0 C 477.4425354003906 297.3259582519531 477.7093505859375 285.3388671875 474.0 275.0" stroke-width="2.0" fill="rgb(124, 121, 123)" opacity="1.0" stroke="rgb(0, 0, 0)" stroke-opacity="0.0" stroke-linecap="round" stroke-linejoin="round"/>
    <path d="M 217.0 269.0 C 203.31829833984375 273.4203186035156 210.2477264404297 296.66912841796875 223.0 295.0 C 225.84938049316406 286.7570495605469 229.55221557617188 272.47027587890625 217.0 269.0" stroke-width="2.0" fill="rgb(62, 68, 82)" opacity="1.0" stroke="rgb(0, 0, 0)" stroke-opacity="0.0" stroke-linecap="round" stroke-linejoin="round"/>
    <path d="M 102.0 281.0 C 92.04588317871094 289.277099609375 96.22453308105469 312.50482177734375 112.0 302.0 C 111.17679595947266 294.60394287109375 115.39210510253906 277.9942321777344 102.0 281.0" stroke-width="2.0" fill="rgb(159, 163, 173)" opacity="1.0" stroke="rgb(0, 0, 0)" stroke-opacity="0.0" stroke-linecap="round" stroke-linejoin="round"/>
    <path d="M 14.0 284.0 C 2.5417325496673584 288.7611083984375 11.89598274230957 304.4842224121094 19.0 306.0 C 28.670686721801758 298.2909851074219 27.70362091064453 282.8779296875 14.0 284.0" stroke-width="2.0" fill="rgb(108, 115, 132)" opacity="1.0" stroke="rgb(0, 0, 0)" stroke-opacity="0.0" stroke-linecap="round" stroke-linejoin="round"/>
    <path d="M 111.0 409.0 C 111.73182678222656 420.8821105957031 129.45382690429688 412.4886169433594 138.0 415.0 C 142.3621063232422 414.42388916015625 144.92477416992188 411.18267822265625 140.0 407.0 L 111.0 409.0" stroke-width="2.0" fill="rgb(139, 150, 169)" opacity="1.0" stroke="rgb(0, 0, 0)" stroke-opacity="0.0" stroke-linecap="round" stroke-linejoin="round"/>
    <path d="M 387.0 103.0 C 401.0025634765625 103.30760955810547 417.6632385253906 107.2281265258789 430.0 101.0 C 415.6666564941406 97.06501770019531 401.3333435058594 94.16343688964844 387.0 103.0" stroke-width="2.0" fill="rgb(171, 85, 39)" opacity="1.0" stroke="rgb(0, 0, 0)" stroke-opacity="0.0" stroke-linecap="round" stroke-linejoin="round"/>
    <path d="M 214.0 272.0 C 209.09886169433594 278.818603515625 211.40155029296875 293.8481140136719 222.0 293.0 C 225.61288452148438 285.60394287109375 226.56570434570312 268.9942321777344 214.0 272.0" stroke-width="2.0" fill="rgb(49, 54, 67)" opacity="1.0" stroke="rgb(0, 0, 0)" stroke-opacity="0.0" stroke-linecap="round" stroke-linejoin="round"/>
    <path d="M 99.0 288.0 C 88.71333312988281 308.1641845703125 121.14817810058594 308.317138671875 111.0 288.0 L 99.0 288.0" stroke-width="2.0" fill="rgb(164, 166, 174)" opacity="1.0" stroke="rgb(0, 0, 0)" stroke-opacity="0.0" stroke-linecap="round" stroke-linejoin="round"/>
    <path d="M 435.0 282.0 C 421.9514465332031 287.5791931152344 432.39276123046875 310.17144775390625 444.0 297.0 C 444.6111755371094 292.10089111328125 443.5576477050781 281.9936828613281 435.0 282.0" stroke-width="2.0" fill="rgb(131, 131, 134)" opacity="1.0" stroke="rgb(0, 0, 0)" stroke-opacity="0.0" stroke-linecap="round" stroke-linejoin="round"/>
    <path d="M 473.0 278.0 C 462.3717041015625 281.8863220214844 455.9909362792969 298.8951721191406 468.0 303.0 C 474.42974853515625 295.0 474.55523681640625 287.0 473.0 278.0" stroke-width="2.0" fill="rgb(107, 104, 106)" opacity="1.0" stroke="rgb(0, 0, 0)" stroke-opacity="0.0" stroke-linecap="round" stroke-linejoin="round"/>
    <path d="M 53.0 280.0 C 46.94520568847656 288.4730224609375 42.97396469116211 306.7200927734375 56.0 306.0 C 56.790863037109375 298.07745361328125 59.841644287109375 283.0186767578125 53.0 280.0" stroke-width="2.0" fill="rgb(132, 135, 146)" opacity="1.0" stroke="rgb(0, 0, 0)" stroke-opacity="0.0" stroke-linecap="round" stroke-linejoin="round"/>
    <path d="M 227.0 402.0 C 218.7561798095703 406.00555419921875 200.2787322998047 397.0293273925781 200.0 409.0 C 208.2438201904297 409.36700439453125 226.7212677001953 414.15155029296875 227.0 402.0" stroke-width="2.0" fill="rgb(190, 193, 205)" opacity="1.0" stroke="rgb(0, 0, 0)" stroke-opacity="0.0" stroke-linecap="round" stroke-linejoin="round"/>
    <path d="M 124.0 287.0 C 103.53312683105469 304.59979248046875 142.4768524169922 310.488525390625 130.0 290.0 C 128.3333282470703 288.27349853515625 126.66666412353516 286.1623840332031 124.0 287.0" stroke-width="2.0" fill="rgb(123, 133, 152)" opacity="1.0" stroke="rgb(0, 0, 0)" stroke-opacity="0.0" stroke-linecap="round" stroke-linejoin="round"/>
    <path d="M 290.0 449.0 C 286.89208984375 463.7781677246094 261.9312744140625 453.2916564941406 273.0 469.0 C 277.5883483886719 470.18267822265625 276.5362854003906 461.7472839355469 283.0 461.0 L 295.0 462.0 L 290.0 449.0" stroke-width="2.0" fill="rgb(42, 42, 44)" opacity="1.0" stroke="rgb(0, 0, 0)" stroke-opacity="0.0" stroke-linecap="round" stroke-linejoin="round"/>
    <path d="M 163.0 413.0 C 169.34312438964844 416.24493408203125 179.99266052246094 418.0121154785156 188.0 414.0 C 180.0 407.4962158203125 172.0 404.14031982421875 163.0 413.0" stroke-width="2.0" fill="rgb(138, 148, 167)" opacity="1.0" stroke="rgb(0, 0, 0)" stroke-opacity="0.0" stroke-linecap="round" stroke-linejoin="round"/>
    <path d="M 186.0 303.0 C 174.92971801757812 308.2535705566406 181.20361328125 321.93194580078125 191.0 318.0 C 192.0292510986328 312.879150390625 194.81857299804688 303.62664794921875 186.0 303.0" stroke-width="2.0" fill="rgb(190, 190, 200)" opacity="1.0" stroke="rgb(0, 0, 0)" stroke-opacity="0.0" stroke-linecap="round" stroke-linejoin="round"/>
    <path d="M 434.0 285.0 C 419.45538330078125 297.4853210449219 448.28424072265625 306.02471923828125 443.0 290.0 C 441.5462341308594 286.251220703125 437.880615234375 285.1268310546875 434.0 285.0" stroke-width="2.0" fill="rgb(118, 118, 120)" opacity="1.0" stroke="rgb(0, 0, 0)" stroke-opacity="0.0" stroke-linecap="round" stroke-linejoin="round"/>
    <path d="M 40.0 402.0 C 41.88771057128906 409.31597900390625 60.17661666870117 407.6712646484375 59.0 399.0 C 53.0 398.093017578125 47.0 395.4871826171875 40.0 402.0" stroke-width="2.0" fill="rgb(197, 200, 212)" opacity="1.0" stroke="rgb(0, 0, 0)" stroke-opacity="0.0" stroke-linecap="round" stroke-linejoin="round"/>
    <path d="M 140.0 399.0 C 142.63755798339844 406.4583435058594 156.5460968017578 405.9258117675781 164.0 400.0 C 158.3218536376953 396.1377868652344 148.34193420410156 397.9041748046875 140.0 399.0" stroke-width="2.0" fill="rgb(135, 147, 163)" opacity="1.0" stroke="rgb(0, 0, 0)" stroke-opacity="0.0" stroke-linecap="round" stroke-linejoin="round"/>
    <path d="M 16.0 399.0 C 13.602742195129395 408.4053649902344 48.59602737426758 406.1298522949219 34.0 399.0 L 16.0 399.0" stroke-width="2.0" fill="rgb(152, 158, 176)" opacity="1.0" stroke="rgb(0, 0, 0)" stroke-opacity="0.0" stroke-linecap="round" stroke-linejoin="round"/>
    <path d="M 96.0 398.0 C 93.89297485351562 413.6495056152344 123.81394958496094 398.7035217285156 104.0 395.0 L 96.0 398.0" stroke-width="2.0" fill="rgb(159, 168, 182)" opacity="1.0" stroke="rgb(0, 0, 0)" stroke-opacity="0.0" stroke-linecap="round" stroke-linejoin="round"/>
    <path d="M 95.0 501.0 C 94.87151336669922 510.8243408203125 122.47312927246094 506.8820495605469 107.0 499.0 L 95.0 501.0" stroke-width="2.0" fill="rgb(135, 149, 169)" opacity="1.0" stroke="rgb(0, 0, 0)" stroke-opacity="0.0" stroke-linecap="round" stroke-linejoin="round"/>
    <path d="M 74.0 403.0 C 78.05401611328125 405.226806640625 95.55581665039062 402.77874755859375 86.0 396.0 C 82.19583892822266 395.66656494140625 73.14628601074219 395.1866149902344 74.0 403.0" stroke-width="2.0" fill="rgb(202, 204, 217)" opacity="1.0" stroke="rgb(0, 0, 0)" stroke-opacity="0.0" stroke-linecap="round" stroke-linejoin="round"/>
    <path d="M 371.0 97.0 C 367.8255615234375 107.33592224121094 392.7337951660156 106.17195129394531 382.0 96.0 L 371.0 97.0" stroke-width="2.0" fill="rgb(13, 13, 13)" opacity="1.0" stroke="rgb(0, 0, 0)" stroke-opacity="0.0" stroke-linecap="round" stroke-linejoin="round"/>
    <path d="M 510.0 293.0 C 498.4512634277344 289.821044921875 498.2561340332031 309.7761535644531 510.0 304.0 L 510.0 293.0" stroke-width="2.0" fill="rgb(126, 124, 127)" opacity="1.0" stroke="rgb(0, 0, 0)" stroke-opacity="0.0" stroke-linecap="round" stroke-linejoin="round"/>
    <path d="M 0.0 394.0 C -2.3663899898529053 401.6725158691406 2.023622512817383 412.60650634765625 10.0 402.0 C 8.388250350952148 398.2527160644531 4.9860663414001465 393.9084777832031 0.0 394.0" stroke-width="2.0" fill="rgb(186, 189, 205)" opacity="1.0" stroke="rgb(0, 0, 0)" stroke-opacity="0.0" stroke-linecap="round" stroke-linejoin="round"/>
    <path d="M 335.0 465.0 C 333.7475891113281 472.6436462402344 354.3756408691406 472.6436462402344 350.0 465.0 L 335.0 465.0" stroke-width="2.0" fill="rgb(80, 97, 122)" opacity="1.0" stroke="rgb(0, 0, 0)" stroke-opacity="0.0" stroke-linecap="round" stroke-linejoin="round"/>
    <path d="M 17.0 220.0 C 22.41510772705078 223.3333282470703 16.075040817260742 226.6666717529297 20.0 230.0 L 32.0 229.0 C 25.12877082824707 226.7385711669922 18.861459732055664 229.52761840820312 20.0 225.0 C 30.463390350341797 226.15232849121094 22.88590431213379 211.35382080078125 17.0 220.0" stroke-width="2.0" fill="rgb(181, 183, 195)" opacity="1.0" stroke="rgb(0, 0, 0)" stroke-opacity="0.0" stroke-linecap="round" stroke-linejoin="round"/>
    <path d="M 82.0 501.0 C 78.31710815429688 509.9401550292969 102.71955871582031 506.71636962890625 89.0 500.0 L 82.0 501.0" stroke-width="2.0" fill="rgb(199, 202, 217)" opacity="1.0" stroke="rgb(0, 0, 0)" stroke-opacity="0.0" stroke-linecap="round" stroke-linejoin="round"/>
    <path d="M 4.0 421.0 C 2.4091246128082275 428.08221435546875 18.24874496459961 424.5995178222656 12.0 419.0 L 4.0 421.0" stroke-width="2.0" fill="rgb(188, 191, 210)" opacity="1.0" stroke="rgb(0, 0, 0)" stroke-opacity="0.0" stroke-linecap="round" stroke-linejoin="round"/>
    <path d="M 506.0 185.0 C 502.1097412109375 191.0 505.0613708496094 197.0 505.0 203.0 C 506.23040771484375 197.40567016601562 508.6856689453125 192.52108764648438 506.0 185.0" stroke-width="2.0" fill="rgb(191, 191, 204)" opacity="1.0" stroke="rgb(0, 0, 0)" stroke-opacity="0.0" stroke-linecap="round" stroke-linejoin="round"/>
    <path d="M 507.0 504.0 C 500.8900146484375 505.4210205078125 508.06097412109375 514.980712890625 507.0 504.0" stroke-width="2.0" fill="rgb(181, 184, 203)" opacity="1.0" stroke="rgb(0, 0, 0)" stroke-opacity="0.0" stroke-linecap="round" stroke-linejoin="round"/>
  </g>
</svg>
