<?xml version="1.0" ?>
<svg xmlns="http://www.w3.org/2000/svg" version="1.1" width="512" height="512">
  <defs/>
  <g>
    <path d="M -10.0 -10.0 C -9.0 -10.0 512.0 0.0 513.0 0.0 C 514.0 0.0 512.0 512.0 513.0 512.0 C 513.0 513.0 0.0 512.0 0.0 513.0 C 0.0 512.0 0.0 513.0 -10.0 -10.0 L -10.0 -10.0" stroke-width="2.0" fill="rgb(247, 237, 188)" opacity="0.81678945"/>
    <path d="M 495.5316467285156 224.14291381835938 C 494.10296630859375 223.484375 492.6542663574219 223.1983642578125 492.28118896484375 222.9981689453125 C 497.0467224121094 224.5969696044922 495.0472717285156 223.85165405273438 495.5851745605469 224.30221557617188 C 495.424560546875 227.49990844726562 495.4543762207031 227.21142578125 496.73004150390625 227.4641571044922 C 494.5571594238281 226.83580017089844 496.1990966796875 227.5701446533203 495.5758056640625 226.8728790283203 L 495.5316467285156 224.14291381835938" stroke-width="2.0" fill="rgb(39, 255, 254)" opacity="0.15504287"/>
    <path d="M 342.8642272949219 42.75154113769531 C 340.36419677734375 43.474586486816406 341.21600341796875 42.97386169433594 345.1712951660156 42.33594512939453 C 341.6769714355469 43.015010833740234 345.5706787109375 42.2164421081543 345.01611328125 42.35444259643555 C 343.89483642578125 42.60342025756836 347.27166748046875 42.02157211303711 342.7998046875 42.71479415893555 C 342.4479064941406 41.57866668701172 343.1843566894531 43.533809661865234 342.7215881347656 42.45353698730469 L 342.8642272949219 42.75154113769531" stroke-width="2.0" fill="rgb(255, 115, 63)" opacity="0.17775908"/>
    <path d="M 218.0751190185547 294.6172180175781 C 190.16354370117188 303.6376953125 247.40382385253906 354.0917663574219 136.83958435058594 342.5871887207031 C 136.038330078125 345.3686218261719 136.90647888183594 355.74169921875 137.67970275878906 331.8997802734375 C 100.7613525390625 287.9450988769531 190.3742218017578 328.7615966796875 109.96430969238281 200.3417510986328 C 174.5908203125 249.70606994628906 301.0210266113281 275.667724609375 335.0460205078125 294.77227783203125 L 218.0751190185547 294.6172180175781" stroke-width="2.0" fill="rgb(128, 102, 30)" opacity="0.70975244"/>
    <path d="M 6.546969890594482 247.5803985595703 C 7.827448844909668 248.68946838378906 7.598818302154541 249.0636444091797 6.915052890777588 247.7798614501953 C 7.668672561645508 249.4310760498047 7.833305835723877 247.79708862304688 8.514927864074707 247.45907592773438 C 6.762973785400391 249.24850463867188 8.283492088317871 247.95875549316406 7.426627159118652 248.53977966308594 C 6.713993072509766 247.45431518554688 7.160332202911377 248.32659912109375 7.179601192474365 248.11383056640625 L 6.546969890594482 247.5803985595703" stroke-width="2.0" fill="rgb(255, 55, 198)" opacity="0.07255551"/>
    <path d="M 307.29205322265625 46.554683685302734 C 308.3004455566406 44.554725646972656 308.8539123535156 43.591064453125 307.8489074707031 45.398860931396484 C 307.6037902832031 46.08534622192383 307.8189697265625 45.47017288208008 307.9480285644531 45.30146026611328 C 307.5523376464844 45.681846618652344 307.9273681640625 45.732967376708984 307.7295837402344 45.64569854736328 C 307.1836242675781 45.30202102661133 307.88671875 45.8499755859375 307.80450439453125 45.475032806396484 L 307.29205322265625 46.554683685302734" stroke-width="2.0" fill="rgb(190, 109, 195)" opacity="0.16211383"/>
    <path d="M 367.5679016113281 258.1214904785156 C 230.95425415039062 275.0866394042969 360.023681640625 196.25376892089844 243.41795349121094 213.7959442138672 C 248.6589813232422 249.92251586914062 191.0004119873047 242.5471649169922 208.49954223632812 188.9457550048828 C 190.36476135253906 245.31398010253906 174.16319274902344 142.19590759277344 246.157470703125 136.63040161132812 C 333.1866455078125 -55.81899642944336 233.04144287109375 134.96279907226562 352.0390319824219 143.66763305664062 L 367.5679016113281 258.1214904785156" stroke-width="2.0" fill="rgb(211, 117, 1)" opacity="0.9261192"/>
    <path d="M 10.145474433898926 260.10650634765625 C 10.183452606201172 260.3405456542969 10.207472801208496 260.20343017578125 10.103302001953125 259.6427307128906 C 10.326058387756348 261.029052734375 9.872894287109375 259.6841735839844 10.501913070678711 261.14276123046875 C 9.938660621643066 260.40631103515625 10.039648056030273 258.3008728027344 10.214929580688477 260.620361328125 C 10.078347206115723 259.0085144042969 10.098309516906738 260.9388427734375 10.07470417022705 258.6556701660156 L 10.145474433898926 260.10650634765625" stroke-width="2.0" fill="rgb(31, 68, 161)" opacity="0.04944581"/>
    <path d="M 27.832992553710938 302.2478332519531 C 28.30111312866211 302.60919189453125 28.384687423706055 298.3339538574219 30.638710021972656 302.16436767578125 C 28.831218719482422 299.46759033203125 28.7077693939209 300.7023620605469 28.14752197265625 301.9155578613281 C 26.312236785888672 304.4216003417969 28.166095733642578 302.1985168457031 27.295791625976562 302.6842041015625 C 26.043336868286133 302.0278625488281 28.908645629882812 303.8283386230469 27.314102172851562 301.0412902832031 L 27.832992553710938 302.2478332519531" stroke-width="2.0" fill="rgb(90, 199, 90)" opacity="0.27746043"/>
    <path d="M 396.0578308105469 490.9447937011719 C 394.25262451171875 490.7106628417969 393.7665710449219 489.98760986328125 395.3770446777344 489.5931091308594 C 395.3353271484375 491.0130310058594 394.4810791015625 489.70318603515625 395.5940856933594 489.9981689453125 C 393.6975402832031 489.86383056640625 395.4256896972656 489.0847473144531 395.70257568359375 490.4807434082031 C 396.5303955078125 489.09906005859375 396.0010986328125 490.8665771484375 394.6256103515625 490.785888671875 L 396.0578308105469 490.9447937011719" stroke-width="2.0" fill="rgb(66, 111, 42)" opacity="0.0"/>
    <path d="M 412.41790771484375 91.2508544921875 C 411.7621765136719 92.1318130493164 412.0417175292969 91.2546157836914 412.04302978515625 91.7306137084961 C 411.67919921875 93.02517700195312 411.9695129394531 90.96884155273438 412.9499206542969 91.29744720458984 C 412.0401916503906 91.20707702636719 412.5427551269531 91.28468322753906 411.8650817871094 92.07527160644531 C 412.78985595703125 90.77263641357422 412.34051513671875 91.23541259765625 411.776123046875 92.177001953125 L 412.41790771484375 91.2508544921875" stroke-width="2.0" fill="rgb(84, 255, 87)" opacity="0.2441776"/>
    <path d="M 20.578439712524414 197.9617919921875 C 20.02131462097168 197.6337432861328 19.950439453125 197.1617889404297 21.117076873779297 198.60939025878906 C 20.249502182006836 197.46298217773438 20.227949142456055 197.7525177001953 22.280363082885742 199.71124267578125 C 19.99199104309082 197.55836486816406 20.866609573364258 198.08160400390625 20.837871551513672 198.29649353027344 C 20.436199188232422 197.80111694335938 20.90152931213379 198.28207397460938 21.312652587890625 198.82302856445312 L 20.578439712524414 197.9617919921875" stroke-width="2.0" fill="rgb(125, 124, 255)" opacity="0.090541504"/>
    <path d="M 411.5927734375 236.45523071289062 C 400.1600036621094 240.51773071289062 398.6850891113281 237.57632446289062 411.1026306152344 238.10824584960938 C 424.5015869140625 232.52841186523438 426.376708984375 219.68386840820312 366.13470458984375 208.611328125 C 350.17010498046875 304.04364013671875 341.0714416503906 316.2681579589844 519.7369995117188 346.5896911621094 C 485.2502136230469 188.62464904785156 440.9560852050781 223.96560668945312 405.3972473144531 237.61904907226562 L 411.5927734375 236.45523071289062" stroke-width="2.0" fill="rgb(255, 247, 210)" opacity="0.20081249"/>
    <path d="M 416.0023498535156 151.3587646484375 C 416.99200439453125 150.77047729492188 416.7681884765625 150.9484405517578 416.73193359375 149.04698181152344 C 417.79815673828125 151.16717529296875 417.7119445800781 150.6480712890625 419.11260986328125 150.128662109375 C 417.3247985839844 152.0656280517578 417.75860595703125 151.88587951660156 418.3611145019531 152.98843383789062 C 416.197021484375 151.45458984375 416.4014892578125 152.11354064941406 415.7373962402344 153.37344360351562 L 416.0023498535156 151.3587646484375" stroke-width="2.0" fill="rgb(53, 69, 131)" opacity="0.0"/>
    <path d="M 423.048583984375 433.0390625 C 485.02294921875 445.25897216796875 416.47369384765625 455.7511291503906 346.0550537109375 459.3504333496094 C 249.55992126464844 464.0352478027344 202.83335876464844 459.7081604003906 209.59303283691406 461.59796142578125 C 208.51007080078125 421.13653564453125 200.19598388671875 424.0987548828125 228.63328552246094 423.6403503417969 C 278.29425048828125 422.9189453125 313.82586669921875 424.4972839355469 364.01177978515625 425.69854736328125 L 423.048583984375 433.0390625" stroke-width="2.0" fill="rgb(202, 176, 59)" opacity="0.69022185"/>
    <path d="M 231.06820678710938 333.30535888671875 C 125.4266586303711 391.2255554199219 224.83248901367188 364.2182922363281 175.7548370361328 437.2472839355469 C 129.2257843017578 469.5233459472656 91.04585266113281 423.66143798828125 116.01197052001953 387.596435546875 C 263.3017272949219 330.0777587890625 89.55404663085938 379.5174255371094 126.85755920410156 342.3858947753906 C 231.75588989257812 345.23004150390625 197.75784301757812 334.5564880371094 213.55337524414062 356.791015625 L 231.06820678710938 333.30535888671875" stroke-width="2.0" fill="rgb(37, 94, 67)" opacity="0.7973378"/>
    <path d="M 81.36837768554688 430.2963562011719 C 81.38732147216797 431.39044189453125 80.57190704345703 432.2213439941406 79.4974365234375 432.248046875 C 78.48231506347656 432.508056640625 77.54379272460938 431.83197021484375 77.26254272460938 430.810302734375 C 77.07459259033203 429.8353576660156 77.63055419921875 428.8039245605469 78.58822631835938 428.398193359375 C 79.50012969970703 428.0664978027344 80.58537292480469 428.5081787109375 81.10918426513672 429.4500427246094 L 81.36837768554688 430.2963562011719" stroke-width="2.0" fill="rgb(198, 216, 129)" opacity="0.0"/>
    <path d="M 202.14869689941406 24.110715866088867 C 203.26138305664062 24.698165893554688 202.73243713378906 25.248062133789062 202.3125457763672 23.834014892578125 C 202.3189239501953 25.18112564086914 201.734130859375 24.7476806640625 202.64569091796875 24.080427169799805 C 201.46527099609375 24.540653228759766 201.84600830078125 23.83150291442871 202.6745147705078 24.985240936279297 C 202.19998168945312 23.758108139038086 202.95346069335938 23.97181510925293 202.6243896484375 24.715805053710938 L 202.14869689941406 24.110715866088867" stroke-width="2.0" fill="rgb(92, 29, 146)" opacity="0.0"/>
    <path d="M 477.3088684082031 358.5229187011719 C 477.20245361328125 357.81268310546875 477.0291442871094 356.6825256347656 478.00830078125 357.943603515625 C 478.52777099609375 357.181396484375 478.9905090332031 356.9769287109375 479.3206787109375 355.81768798828125 C 476.7160339355469 358.2771911621094 478.12396240234375 357.98150634765625 478.5705261230469 359.9873046875 C 476.9820556640625 357.6319885253906 477.8435363769531 358.3281555175781 477.44525146484375 359.4190368652344 L 477.3088684082031 358.5229187011719" stroke-width="2.0" fill="rgb(109, 255, 46)" opacity="0.0"/>
    <path d="M 37.621238708496094 221.37445068359375 C 38.0350227355957 218.7803955078125 38.66764831542969 215.6057891845703 37.725738525390625 220.80007934570312 C 38.07785415649414 218.3502960205078 38.25449752807617 217.8814697265625 37.722171783447266 220.8352508544922 C 38.01599884033203 219.40536499023438 38.876426696777344 213.53758239746094 38.2490119934082 217.7687530517578 C 38.328372955322266 216.95831298828125 37.925174713134766 219.7200927734375 37.80732345581055 220.31497192382812 L 37.621238708496094 221.37445068359375" stroke-width="2.0" fill="rgb(96, 150, 254)" opacity="0.27561712"/>
    <path d="M 256.3579406738281 418.07025146484375 C 256.49688720703125 418.3678283691406 256.3504333496094 418.44171142578125 256.1004943847656 417.2148132324219 C 256.6841125488281 419.7370300292969 256.714599609375 417.84625244140625 257.808837890625 417.1685485839844 C 255.83831787109375 419.10626220703125 257.2127685546875 418.2414855957031 256.910400390625 418.43084716796875 C 256.151123046875 418.3409729003906 256.73162841796875 418.67877197265625 257.48626708984375 420.4589538574219 L 256.3579406738281 418.07025146484375" stroke-width="2.0" fill="rgb(133, 255, 184)" opacity="0.20241888"/>
    <path d="M 89.19328308105469 298.90032958984375 C 88.8302001953125 298.263671875 88.7352066040039 298.2718505859375 88.50310516357422 297.3543701171875 C 89.6011734008789 299.964111328125 89.66889190673828 299.1473388671875 87.44509887695312 299.5833740234375 C 89.96221923828125 299.4984130859375 89.99211883544922 298.4588317871094 89.15923309326172 299.446533203125 C 88.63681030273438 295.4102783203125 89.16736602783203 298.3371887207031 89.32472229003906 301.9423522949219 L 89.19328308105469 298.90032958984375" stroke-width="2.0" fill="rgb(111, 255, 184)" opacity="0.120912336"/>
    <path d="M 393.8274841308594 279.74981689453125 C 394.5601501464844 279.454345703125 395.4826965332031 278.9367980957031 395.6465148925781 278.75439453125 C 395.4591979980469 278.6455383300781 396.19268798828125 279.5950927734375 395.9763488769531 278.8623352050781 C 395.3998107910156 278.8534240722656 396.6737060546875 278.8431091308594 395.9556579589844 278.87103271484375 C 395.7236022949219 278.4867858886719 393.02569580078125 279.7650451660156 394.40252685546875 279.5265197753906 L 393.8274841308594 279.74981689453125" stroke-width="2.0" fill="rgb(132, 81, 224)" opacity="0.28360406"/>
    <path d="M 429.6672058105469 35.45972442626953 C 430.76995849609375 36.00607681274414 431.46026611328125 36.68583297729492 431.38677978515625 36.91758728027344 C 431.8394775390625 38.25655746459961 431.6294250488281 35.58478546142578 428.3890075683594 35.125308990478516 C 427.5324401855469 35.18227767944336 429.5694885253906 35.04515075683594 430.82110595703125 36.18598556518555 C 431.02947998046875 34.384132385253906 430.96893310546875 35.035369873046875 430.7732238769531 36.150352478027344 L 429.6672058105469 35.45972442626953" stroke-width="2.0" fill="rgb(137, 53, 252)" opacity="0.07627695"/>
    <path d="M 389.01910400390625 75.90050506591797 C 387.71087646484375 74.40241241455078 387.4429626464844 74.2985610961914 387.11749267578125 74.7906723022461 C 389.05413818359375 76.41539001464844 389.2200012207031 74.83677673339844 389.7004089355469 73.97300720214844 C 387.18768310546875 76.5956039428711 388.0399169921875 76.77360534667969 389.9252624511719 77.66236114501953 C 387.77850341796875 75.97264862060547 387.9984130859375 77.17803192138672 386.404052734375 77.9551773071289 L 389.01910400390625 75.90050506591797" stroke-width="2.0" fill="rgb(81, 138, 222)" opacity="0.0"/>
    <path d="M 367.8520202636719 138.48204040527344 C 399.0989074707031 172.9574432373047 397.6737365722656 171.02389526367188 338.464599609375 107.044189453125 C 447.6585388183594 102.27944946289062 459.229736328125 104.16239929199219 513.2997436523438 100.79914093017578 C 513.5224609375 248.53868103027344 512.2835693359375 250.19387817382812 508.997802734375 269.16461181640625 C 403.8790588378906 243.31777954101562 435.9981384277344 235.9318084716797 368.09393310546875 233.24839782714844 L 367.8520202636719 138.48204040527344" stroke-width="2.0" fill="rgb(250, 242, 203)" opacity="0.6955935"/>
    <path d="M 223.67303466796875 332.74530029296875 C 210.66250610351562 401.5233154296875 235.92373657226562 334.12939453125 300.1236267089844 389.9089660644531 C 162.64137268066406 386.5716552734375 191.66917419433594 407.2274169921875 198.35174560546875 350.39678955078125 C 246.5061798095703 341.6351623535156 55.271087646484375 335.98822021484375 188.9883270263672 257.570068359375 C 271.2257080078125 268.48846435546875 151.8184356689453 319.0409240722656 246.06182861328125 348.6562805175781 L 223.67303466796875 332.74530029296875" stroke-width="2.0" fill="rgb(228, 140, 5)" opacity="1.0"/>
    <path d="M 207.96507263183594 426.5221252441406 C 206.68641662597656 432.5066223144531 211.41165161132812 466.777099609375 208.70375061035156 460.4522705078125 C 228.08665466308594 462.45037841796875 38.144752502441406 457.14703369140625 67.10099029541016 438.7000732421875 C 117.87003326416016 422.93695068359375 151.84255981445312 432.2095947265625 129.61680603027344 441.11981201171875 C 162.74375915527344 426.4311828613281 144.9205780029297 425.33905029296875 212.06106567382812 424.0955505371094 L 207.96507263183594 426.5221252441406" stroke-width="2.0" fill="rgb(183, 148, 0)" opacity="0.48451382"/>
    <path d="M 367.2674255371094 303.11273193359375 C 361.6886291503906 309.9607238769531 396.45147705078125 294.4159240722656 400.7790222167969 323.0952453613281 C 286.1073303222656 317.6177062988281 371.6611328125 338.9802551269531 292.23333740234375 333.2688293457031 C 308.2508544921875 193.55184936523438 261.26904296875 267.3885498046875 346.65472412109375 199.36944580078125 C 371.0799255371094 186.8218994140625 335.94964599609375 113.78379821777344 367.2412414550781 172.85525512695312 L 367.2674255371094 303.11273193359375" stroke-width="2.0" fill="rgb(189, 96, 31)" opacity="1.0"/>
    <path d="M 83.03243255615234 157.21348571777344 C 82.39887237548828 156.490234375 83.12945556640625 157.16983032226562 84.61243438720703 158.9673309326172 C 85.70668029785156 160.39642333984375 84.55314636230469 158.92274475097656 83.10706329345703 157.2102813720703 C 83.73304748535156 157.98785400390625 83.52743530273438 157.7808380126953 82.11019897460938 156.1358642578125 C 82.1466064453125 156.3108673095703 83.34366607666016 157.4674072265625 82.6280746459961 156.7866668701172 L 83.03243255615234 157.21348571777344" stroke-width="2.0" fill="rgb(68, 154, 169)" opacity="0.13115948"/>
    <path d="M 303.130615234375 236.1322784423828 C 277.4930419921875 151.44265747070312 143.75975036621094 311.71929931640625 356.5196533203125 208.7866668701172 C 154.59030151367188 348.5727233886719 274.5632629394531 240.10829162597656 211.45458984375 230.36410522460938 C 202.71636962890625 178.64540100097656 181.14002990722656 225.69032287597656 182.21627807617188 194.40771484375 C 281.6963806152344 185.0688934326172 279.4097595214844 139.15887451171875 311.75811767578125 188.07675170898438 L 303.130615234375 236.1322784423828" stroke-width="2.0" fill="rgb(6, 20, 25)" opacity="0.79354626"/>
    <path d="M -12.017578125 201.19754028320312 C 53.88363265991211 216.73690795898438 72.83039093017578 231.27549743652344 -16.11593246459961 195.68145751953125 C 22.259607315063477 148.95420837402344 80.77129364013672 123.7528305053711 156.10501098632812 227.69544982910156 C 124.85608673095703 234.64073181152344 163.33456420898438 296.8605651855469 79.57704162597656 406.0038146972656 C -4.511305809020996 346.6644592285156 64.80215454101562 330.7159423828125 2.539289951324463 397.6922912597656 L -12.017578125 201.19754028320312" stroke-width="2.0" fill="rgb(250, 242, 202)" opacity="1.0"/>
    <path d="M 409.67681884765625 372.21697998046875 C 409.61065673828125 372.4834289550781 410.2186584472656 371.2369689941406 410.0405578613281 371.57794189453125 C 408.44512939453125 374.5727233886719 409.431396484375 372.762451171875 410.0547790527344 371.56072998046875 C 409.3609619140625 373.007568359375 410.5479431152344 370.64569091796875 409.9543762207031 371.7970886230469 C 411.2948303222656 369.622802734375 409.5789794921875 372.422119140625 410.5351257324219 370.7633361816406 L 409.67681884765625 372.21697998046875" stroke-width="2.0" fill="rgb(228, 79, 154)" opacity="0.19274889"/>
    <path d="M 88.45526123046875 -3.6780712604522705 C -26.485525131225586 -6.979360580444336 -19.688385009765625 6.565739154815674 -15.146388053894043 116.51982116699219 C 48.14619064331055 96.32532501220703 30.098506927490234 20.36695671081543 134.77670288085938 -15.804588317871094 C 138.5420379638672 107.15641021728516 136.1873016357422 118.70555114746094 152.16400146484375 175.48635864257812 C -35.643428802490234 169.1719970703125 -36.03268051147461 142.2938232421875 16.454504013061523 96.97879028320312 L 88.45526123046875 -3.6780712604522705" stroke-width="2.0" fill="rgb(251, 243, 205)" opacity="0.48906285"/>
    <path d="M 510.59979248046875 152.7733612060547 C 509.3614196777344 151.9892578125 508.6934509277344 151.4599609375 508.99749755859375 151.75192260742188 C 511.2498779296875 153.49928283691406 511.09405517578125 151.8142852783203 512.2244262695312 151.4031982421875 C 509.4223327636719 153.58859252929688 509.1388244628906 153.92979431152344 510.539794921875 153.58514404296875 C 509.7381286621094 152.96754455566406 509.7163391113281 154.59317016601562 508.5773010253906 155.3529815673828 L 510.59979248046875 152.7733612060547" stroke-width="2.0" fill="rgb(224, 125, 255)" opacity="0.0"/>
    <path d="M 105.4113540649414 389.0182189941406 C 101.8060073852539 398.63519287109375 102.06057739257812 412.7244873046875 102.63658905029297 400.0598449707031 C 100.05223083496094 457.5542907714844 180.96888732910156 467.6624450683594 190.53826904296875 407.93695068359375 C 175.45948791503906 306.7115783691406 167.3110809326172 516.5114135742188 115.87065124511719 386.551025390625 C 237.7826690673828 386.9476318359375 128.27769470214844 325.7529296875 105.10286712646484 390.4803466796875 L 105.4113540649414 389.0182189941406" stroke-width="2.0" fill="rgb(44, 38, 27)" opacity="0.97880334"/>
    <path d="M 171.66334533691406 164.61151123046875 C 169.9876251220703 163.47776794433594 169.04364013671875 162.4150390625 168.8151092529297 162.37088012695312 C 172.78956604003906 165.61671447753906 169.49952697753906 162.8672332763672 170.54330444335938 163.75759887695312 C 171.38015747070312 164.4703369140625 172.14508056640625 165.01976013183594 172.93179321289062 165.5895233154297 C 171.28721618652344 164.36474609375 172.58641052246094 165.27586364746094 170.65179443359375 163.82749938964844 L 171.66334533691406 164.61151123046875" stroke-width="2.0" fill="rgb(112, 249, 210)" opacity="0.076884426"/>
    <path d="M 422.493896484375 133.069580078125 C 422.8965148925781 130.7108612060547 422.5406799316406 130.28878784179688 422.3492736816406 131.35150146484375 C 422.7738342285156 130.5082244873047 422.8618469238281 131.66493225097656 422.79571533203125 129.273193359375 C 422.5799255371094 133.94192504882812 422.6185302734375 131.99777221679688 422.5455627441406 132.5878143310547 C 423.0135192871094 131.10874938964844 422.57196044921875 132.0797576904297 422.7734375 130.40516662597656 L 422.493896484375 133.069580078125" stroke-width="2.0" fill="rgb(87, 59, 63)" opacity="0.28325012"/>
    <path d="M 498.4457702636719 340.77642822265625 C 498.6524353027344 340.7660217285156 498.1493225097656 340.5576477050781 499.0052490234375 340.4007873535156 C 499.69317626953125 340.44805908203125 499.2172546386719 340.5340881347656 499.7421569824219 340.6180725097656 C 498.8063049316406 340.3656921386719 499.2467346191406 340.3388366699219 499.7992858886719 340.6536560058594 C 498.09039306640625 339.8162536621094 498.4413146972656 341.20965576171875 497.9106140136719 342.9637756347656 L 498.4457702636719 340.77642822265625" stroke-width="2.0" fill="rgb(255, 175, 159)" opacity="0.10803707"/>
    <path d="M 35.062259674072266 387.70703125 C 34.221370697021484 387.4911193847656 34.05962371826172 387.7492370605469 33.592369079589844 387.4635925292969 C 35.76942443847656 390.0137634277344 36.40193176269531 389.06500244140625 36.84489822387695 387.74603271484375 C 34.745826721191406 389.8252258300781 35.69948959350586 389.9971618652344 37.12596130371094 390.9715576171875 C 34.96417999267578 388.31732177734375 34.240013122558594 388.7706298828125 34.74729537963867 390.2104797363281 L 35.062259674072266 387.70703125" stroke-width="2.0" fill="rgb(105, 210, 244)" opacity="0.0"/>
    <path d="M 292.1601867675781 350.84356689453125 C 287.5382080078125 395.69122314453125 313.7317199707031 395.4775695800781 251.4833526611328 377.47125244140625 C 280.6559143066406 351.837158203125 235.42938232421875 305.9264831542969 244.27389526367188 394.35675048828125 C 216.51780700683594 292.59588623046875 284.6880187988281 379.0794982910156 129.33203125 326.981201171875 C 453.071044921875 352.6241149902344 186.74728393554688 296.6141357421875 352.1001281738281 275.07965087890625 L 292.1601867675781 350.84356689453125" stroke-width="2.0" fill="rgb(226, 134, 3)" opacity="0.9831557"/>
    <path d="M 83.25569915771484 256.21539306640625 C 81.84260559082031 254.9073028564453 81.57415771484375 255.42379760742188 83.03531646728516 255.510498046875 C 84.84681701660156 255.82537841796875 84.15506744384766 255.7328338623047 82.47290802001953 255.24964904785156 C 83.09988403320312 256.7888488769531 83.2886734008789 256.8940734863281 84.66130065917969 256.6775817871094 C 82.60591125488281 255.61509704589844 83.43548583984375 256.1731872558594 83.59458923339844 256.9519958496094 L 83.25569915771484 256.21539306640625" stroke-width="2.0" fill="rgb(254, 254, 73)" opacity="0.14192513"/>
    <path d="M 316.0739440917969 73.93091583251953 C 316.5121154785156 74.2846450805664 317.6364440917969 74.61798858642578 318.63201904296875 75.16483306884766 C 318.4106140136719 75.0790786743164 318.7355651855469 75.28157806396484 318.4914855957031 75.0805435180664 C 318.6700744628906 74.96797943115234 318.4081115722656 75.29421997070312 318.51104736328125 75.09782409667969 C 316.9366455078125 74.34684753417969 317.5276794433594 74.63471984863281 318.95648193359375 75.31140899658203 L 316.0739440917969 73.93091583251953" stroke-width="2.0" fill="rgb(255, 100, 83)" opacity="0.09308878"/>
    <path d="M 255.20077514648438 390.92950439453125 C 256.0420227050781 391.6039123535156 240.50294494628906 390.31781005859375 325.3785095214844 391.638671875 C 367.8015441894531 372.0306701660156 383.9928894042969 376.5780029296875 197.90933227539062 375.4886779785156 C 222.7281494140625 380.96246337890625 186.37411499023438 286.2914733886719 191.3209686279297 390.6534729003906 C 256.25286865234375 391.2633056640625 262.4361267089844 390.289794921875 254.34246826171875 391.1693115234375 L 255.20077514648438 390.92950439453125" stroke-width="2.0" fill="rgb(53, 127, 97)" opacity="0.9571212"/>
    <path d="M 284.3021545410156 319.8548889160156 C 280.9996337890625 321.9830322265625 289.8478088378906 320.3690490722656 248.4660186767578 320.63092041015625 C 266.34710693359375 320.5209655761719 262.50274658203125 320.7690124511719 218.79994201660156 320.7292175292969 C 218.24827575683594 295.67962646484375 221.53440856933594 317.9600830078125 218.4317169189453 301.21435546875 C 301.4993591308594 301.1192321777344 291.62396240234375 301.4909973144531 284.20135498046875 301.6369934082031 L 284.3021545410156 319.8548889160156" stroke-width="2.0" fill="rgb(104, 109, 63)" opacity="0.7560569"/>
    <path d="M 382.7868957519531 428.1832580566406 C 387.3775939941406 398.35845947265625 387.2684020996094 432.187744140625 362.38006591796875 443.5831604003906 C 352.7697448730469 448.87164306640625 331.40960693359375 452.8762512207031 312.8625183105469 436.580078125 C 291.3896484375 416.28448486328125 300.7293395996094 386.8900451660156 302.1460266113281 390.8484191894531 C 380.8048095703125 392.8818054199219 382.6189270019531 367.9230651855469 387.015869140625 405.13983154296875 L 382.7868957519531 428.1832580566406" stroke-width="2.0" fill="rgb(33, 29, 20)" opacity="0.9573834"/>
    <path d="M 179.31613159179688 481.0199890136719 C 179.29873657226562 482.1231994628906 178.52525329589844 483.0008544921875 177.4974365234375 483.15167236328125 C 176.4761505126953 483.24578857421875 175.53016662597656 482.5566711425781 175.11915588378906 481.56103515625 C 174.96170043945312 480.5641174316406 175.53138732910156 479.5209045410156 176.49366760253906 479.0457458496094 C 177.49163818359375 478.7384948730469 178.57273864746094 479.2036437988281 179.13645935058594 480.16058349609375 L 179.31613159179688 481.0199890136719" stroke-width="2.0" fill="rgb(184, 108, 135)" opacity="0.0"/>
    <path d="M 228.91030883789062 41.091529846191406 C 229.23635864257812 40.278961181640625 229.2051239013672 40.72775650024414 229.06007385253906 40.704185485839844 C 229.07203674316406 40.826690673828125 229.1061553955078 40.4979133605957 228.8941650390625 41.075439453125 C 229.17884826660156 43.159454345703125 228.88790893554688 41.81840896606445 229.02780151367188 42.26024627685547 C 229.00502014160156 42.468387603759766 228.96456909179688 41.38220977783203 229.1121063232422 44.25774383544922 L 228.91030883789062 41.091529846191406" stroke-width="2.0" fill="rgb(110, 255, 76)" opacity="0.20224759"/>
    <path d="M 406.32666015625 386.41168212890625 C 322.02215576171875 385.1957702636719 394.35113525390625 401.1551513671875 346.6223449707031 427.3282470703125 C 283.58306884765625 417.4325256347656 367.52056884765625 355.7862548828125 288.5756530761719 387.911376953125 C 290.8794860839844 389.7223205566406 278.12628173828125 385.5103759765625 295.1279296875 342.6593322753906 C 366.3929748535156 338.3941650390625 286.4118957519531 336.3858947753906 406.2528381347656 337.51971435546875 L 406.32666015625 386.41168212890625" stroke-width="2.0" fill="rgb(77, 135, 102)" opacity="1.0"/>
    <path d="M 89.48715209960938 327.32318115234375 C 89.3510513305664 327.0316467285156 89.67910766601562 327.1322937011719 87.90972900390625 326.3716125488281 C 90.33887481689453 327.4179382324219 88.76104736328125 326.7692565917969 89.43649291992188 327.0784606933594 C 89.49181365966797 327.7278747558594 89.91129302978516 327.73846435546875 90.55426788330078 329.2535095214844 C 90.14339447021484 328.0176086425781 90.17156219482422 328.4999694824219 90.42121887207031 328.97003173828125 L 89.48715209960938 327.32318115234375" stroke-width="2.0" fill="rgb(94, 92, 255)" opacity="0.15777855"/>
    <path d="M 376.17620849609375 256.87548828125 C 376.1263427734375 257.974853515625 375.3581237792969 258.8603210449219 374.327392578125 259.0882873535156 C 373.317626953125 259.1466369628906 372.371826171875 258.4247741699219 371.978759765625 257.4358825683594 C 371.81439208984375 256.4350280761719 372.3959655761719 255.40594482421875 373.3427734375 255.01177978515625 C 374.3074951171875 254.71939086914062 375.39056396484375 255.14990234375 376.0379943847656 256.0231628417969 L 376.17620849609375 256.87548828125" stroke-width="2.0" fill="rgb(45, 237, 172)" opacity="0.0"/>
    <path d="M 468.0263977050781 240.18885803222656 C 467.5115051269531 238.36160278320312 467.406005859375 239.6542510986328 467.97039794921875 240.6358184814453 C 467.31298828125 239.3153076171875 467.77679443359375 239.1648712158203 467.70782470703125 238.47799682617188 C 467.2760009765625 238.08755493164062 467.52252197265625 239.24746704101562 468.7033996582031 241.69647216796875 C 467.9755859375 240.27223205566406 468.854736328125 241.65367126464844 469.2571716308594 241.1400909423828 L 468.0263977050781 240.18885803222656" stroke-width="2.0" fill="rgb(198, 139, 149)" opacity="0.22636655"/>
    <path d="M 119.79293823242188 2.8745224475860596 C 118.77742004394531 2.872454881668091 119.8752670288086 2.969210624694824 119.74966430664062 2.8976688385009766 C 119.71672821044922 3.28446888923645 119.84565734863281 2.1615676879882812 120.01422882080078 0.7729414701461792 C 119.1298828125 4.937695026397705 120.91622161865234 5.960540294647217 123.28254699707031 7.0974202156066895 C 119.22549438476562 5.438657760620117 119.72596740722656 2.784346580505371 119.88606262207031 1.7255644798278809 L 119.79293823242188 2.8745224475860596" stroke-width="2.0" fill="rgb(121, 255, 75)" opacity="0.11870306"/>
    <path d="M 442.9897766113281 272.0981140136719 C 442.9210510253906 272.7154541015625 442.83660888671875 272.38446044921875 443.0535888671875 272.807861328125 C 443.1827392578125 273.6048583984375 442.7507629394531 272.5497131347656 443.05230712890625 272.2637939453125 C 442.59283447265625 273.4808654785156 443.94134521484375 273.79583740234375 444.8951721191406 274.65716552734375 C 442.6465148925781 273.14862060546875 443.3912353515625 273.4512023925781 442.9779357910156 272.93280029296875 L 442.9897766113281 272.0981140136719" stroke-width="2.0" fill="rgb(189, 175, 120)" opacity="0.020643763"/>
    <path d="M 474.9808044433594 361.91009521484375 C 476.3886413574219 364.0211181640625 475.228515625 364.317626953125 476.8243408203125 364.5078430175781 C 476.61395263671875 365.1987609863281 475.13580322265625 363.65838623046875 475.0998840332031 362.71075439453125 C 474.1231689453125 366.6178283691406 476.4049072265625 365.39471435546875 478.01123046875 368.8955383300781 C 473.6523742675781 365.0983581542969 475.0921936035156 365.0697326660156 474.8494873046875 364.660888671875 L 474.9808044433594 361.91009521484375" stroke-width="2.0" fill="rgb(249, 211, 241)" opacity="0.24563862"/>
  </g>
</svg>
