<?xml version="1.0" ?>
<svg xmlns="http://www.w3.org/2000/svg" version="1.1" width="512" height="341">
  <defs/>
  <g>
    <path d="M 327.9269714355469 84.3022232055664 C 323.3639831542969 174.9308624267578 319.9548645019531 180.8462371826172 249.09515380859375 185.2731475830078 C 224.8666229248047 160.52345275878906 248.73745727539062 135.01943969726562 226.74598693847656 112.58146667480469 C 201.46739196777344 93.96488189697266 202.21295166015625 75.49131774902344 206.50828552246094 53.83556365966797 C 309.666259765625 54.03535461425781 313.1877136230469 58.46506118774414 327.9269714355469 84.3022232055664" stroke-width="0.0" fill="rgb(41, 222, 166)" opacity="0.03545567" stroke="rgb(25, 15, 155)" stroke-opacity="0.45297226" stroke-linecap="round" stroke-linejoin="round"/>
    <path d="M 487.2666015625 209.1824493408203 C 448.80426025390625 231.58895874023438 500.14788818359375 167.0264129638672 465.4706726074219 187.43350219726562 C 482.3569030761719 216.5911865234375 470.5672607421875 221.10739135742188 449.98162841796875 207.15005493164062 C 431.63946533203125 185.0876922607422 446.7455749511719 158.30723571777344 468.79510498046875 157.91319274902344 C 494.3780212402344 156.72067260742188 509.77703857421875 188.85794067382812 487.2666015625 209.1824493408203" stroke-width="0.0" fill="rgb(255, 249, 223)" opacity="0.5135643" stroke="rgb(72, 163, 237)" stroke-opacity="0.6167224" stroke-linecap="round" stroke-linejoin="round"/>
    <path d="M 440.9022521972656 240.53762817382812 C 438.75372314453125 296.4351806640625 452.8555603027344 279.2952575683594 411.7646484375 282.57415771484375 C 390.4752502441406 278.5427551269531 397.6275634765625 295.613037109375 396.587158203125 244.21868896484375 C 343.50830078125 245.39097595214844 356.8766784667969 244.9416961669922 399.7593688964844 212.3817138671875 C 425.99591064453125 230.07577514648438 439.9280090332031 238.04971313476562 440.9022521972656 240.53762817382812" stroke-width="0.0" fill="rgb(255, 233, 196)" opacity="0.9444728" stroke="rgb(101, 81, 91)" stroke-opacity="0.15326877" stroke-linecap="round" stroke-linejoin="round"/>
    <path d="M 463.9888000488281 288.0164489746094 C 451.2485046386719 447.0797424316406 388.4244079589844 372.8981018066406 254.8803253173828 352.9427490234375 C 212.90618896484375 351.81414794921875 206.63616943359375 353.6401062011719 56.90487289428711 364.7369079589844 C 17.522109985351562 266.0755615234375 17.93218994140625 292.4952392578125 187.1601104736328 287.26898193359375 C 277.29925537109375 288.79498291015625 291.657958984375 287.3833923339844 463.9888000488281 288.0164489746094" stroke-width="0.0" fill="rgb(228, 243, 208)" opacity="0.5457342" stroke="rgb(188, 69, 127)" stroke-opacity="0.4830524" stroke-linecap="round" stroke-linejoin="round"/>
    <path d="M 115.17162322998047 208.28094482421875 C 71.65084075927734 228.7089080810547 133.96372985839844 166.09080505371094 90.98812103271484 190.33819580078125 C 122.66616821289062 227.34451293945312 68.48820495605469 213.4483642578125 71.10680389404297 187.07594299316406 C 68.86319732666016 165.51058959960938 89.6416015625 156.96266174316406 98.8474349975586 158.2930908203125 C 116.1541976928711 155.52838134765625 141.58990478515625 185.16598510742188 115.17162322998047 208.28094482421875" stroke-width="0.0" fill="rgb(255, 249, 223)" opacity="0.5143964" stroke="rgb(102, 166, 16)" stroke-opacity="0.60208416" stroke-linecap="round" stroke-linejoin="round"/>
    <path d="M 228.65557861328125 267.52874755859375 C 251.8504638671875 264.70831298828125 265.14599609375 319.2021484375 177.11595153808594 287.62310791015625 C 173.71743774414062 175.5561981201172 200.1543426513672 347.33074951171875 204.3699951171875 249.08876037597656 C 167.38710021972656 249.6018829345703 164.80105590820312 253.3055419921875 208.06101989746094 221.7777862548828 C 288.147705078125 271.29620361328125 211.18658447265625 226.61668395996094 228.65557861328125 267.52874755859375" stroke-width="0.0" fill="rgb(255, 122, 96)" opacity="0.7340671" stroke="rgb(67, 27, 125)" stroke-opacity="0.13837355" stroke-linecap="round" stroke-linejoin="round"/>
    <path d="M 322.2113952636719 246.36782836914062 C 319.07635498046875 299.9196472167969 340.516845703125 285.7716979980469 285.8822021484375 288.2525939941406 C 286.09478759765625 240.21868896484375 285.3628234863281 244.06350708007812 287.576416015625 243.09024047851562 C 288.4145202636719 242.86598205566406 271.8473815917969 254.6470489501953 315.063720703125 223.40835571289062 C 354.3641662597656 250.70166015625 359.91351318359375 247.21998596191406 322.2113952636719 246.36782836914062" stroke-width="0.0" fill="rgb(47, 0, 40)" opacity="0.9489052" stroke="rgb(112, 148, 25)" stroke-opacity="0.16062899" stroke-linecap="round" stroke-linejoin="round"/>
    <path d="M 88.90470886230469 248.88845825195312 C 86.05303955078125 267.9598388671875 104.06004333496094 282.5673828125 31.264503479003906 289.60870361328125 C 29.361766815185547 287.562255859375 30.49456787109375 264.0063171386719 30.25566291809082 242.820068359375 C 32.72322463989258 251.1162109375 41.24520492553711 283.7891845703125 30.40235710144043 242.96987915039062 C 63.687862396240234 221.0791015625 39.98439407348633 218.41079711914062 88.90470886230469 248.88845825195312" stroke-width="0.0" fill="rgb(44, 2, 42)" opacity="0.9526919" stroke="rgb(158, 74, 177)" stroke-opacity="0.6966287" stroke-linecap="round" stroke-linejoin="round"/>
    <path d="M 346.98944091796875 267.2082214355469 C 346.69903564453125 294.2254943847656 355.2261047363281 287.01611328125 329.7891540527344 288.344482421875 C 317.7122497558594 286.1701354980469 323.3256530761719 298.9654541015625 321.72271728515625 249.84356689453125 C 324.3286437988281 245.39752197265625 312.65985107421875 246.84457397460938 349.43292236328125 246.03692626953125 C 346.3014831542969 245.42527770996094 347.1568298339844 243.85305786132812 346.98944091796875 267.2082214355469" stroke-width="0.0" fill="rgb(225, 136, 113)" opacity="0.8852548" stroke="rgb(18, 71, 160)" stroke-opacity="0.15592858" stroke-linecap="round" stroke-linejoin="round"/>
    <path d="M 286.87738037109375 216.98110961914062 C 288.03131103515625 229.4389190673828 279.42486572265625 235.3144073486328 271.8455810546875 236.66116333007812 C 258.1063232421875 238.32138061523438 250.35043334960938 226.5791015625 251.12490844726562 219.0633544921875 C 249.41073608398438 200.32577514648438 268.529296875 199.28704833984375 268.40264892578125 200.23934936523438 C 268.4566955566406 198.6414337158203 285.5376892089844 200.50326538085938 286.87738037109375 216.98110961914062" stroke-width="0.0" fill="rgb(255, 251, 225)" opacity="0.5067209" stroke="rgb(219, 39, 41)" stroke-opacity="0.5034598" stroke-linecap="round" stroke-linejoin="round"/>
    <path d="M 380.3955078125 276.8099060058594 C 376.3848876953125 279.20953369140625 397.2593688964844 274.13580322265625 409.53448486328125 282.2380676269531 C 347.8855895996094 282.0240478515625 362.47674560546875 283.2861328125 361.16485595703125 281.63934326171875 C 361.5450439453125 227.041015625 360.2467956542969 239.93699645996094 364.7481384277344 243.35853576660156 C 385.9021911621094 238.4336700439453 379.2210998535156 241.53636169433594 380.3955078125 276.8099060058594" stroke-width="0.0" fill="rgb(255, 233, 196)" opacity="0.947986" stroke="rgb(92, 44, 20)" stroke-opacity="0.6614209" stroke-linecap="round" stroke-linejoin="round"/>
    <path d="M 245.0909423828125 245.2050323486328 C 244.60601806640625 240.7247314453125 245.37469482421875 294.0931701660156 244.5197296142578 276.3858337402344 C 226.45982360839844 256.9611511230469 242.22352600097656 285.32867431640625 236.81692504882812 243.09304809570312 C 229.89906311035156 255.84898376464844 237.72142028808594 263.5649719238281 235.11309814453125 244.1925048828125 C 248.58645629882812 253.44590759277344 242.1806640625 242.4678497314453 245.0909423828125 245.2050323486328" stroke-width="0.0" fill="rgb(220, 149, 127)" opacity="0.9759641" stroke="rgb(198, 164, 247)" stroke-opacity="0.18938991" stroke-linecap="round" stroke-linejoin="round"/>
    <path d="M 440.4600524902344 283.0546569824219 C 439.5653076171875 288.6421203613281 444.2958068847656 287.3146667480469 426.94415283203125 287.5364685058594 C 345.1940612792969 286.8774108886719 364.86468505859375 289.7091064453125 361.1326599121094 282.6735534667969 C 396.4490966796875 282.2524719238281 403.82818603515625 283.1241149902344 417.3754577636719 281.8441467285156 C 395.0461120605469 284.4504089355469 404.92138671875 281.4830017089844 440.4600524902344 283.0546569824219" stroke-width="0.0" fill="rgb(54, 0, 43)" opacity="0.94945806" stroke="rgb(3, 198, 61)" stroke-opacity="0.41978395" stroke-linecap="round" stroke-linejoin="round"/>
    <path d="M 202.21498107910156 273.9028015136719 C 206.35934448242188 277.0074157714844 190.6917724609375 279.48883056640625 204.17344665527344 278.45111083984375 C 203.50823974609375 243.72584533691406 205.4741973876953 248.04408264160156 202.13845825195312 246.81813049316406 C 202.25904846191406 286.0306091308594 202.82098388671875 274.673095703125 201.47122192382812 276.75482177734375 C 202.24903869628906 271.6372375488281 203.3013916015625 273.158203125 202.21498107910156 273.9028015136719" stroke-width="0.0" fill="rgb(253, 253, 222)" opacity="0.7504847" stroke="rgb(216, 230, 153)" stroke-opacity="0.7914575" stroke-linecap="round" stroke-linejoin="round"/>
    <path d="M 161.2288360595703 221.15936279296875 C 128.91639709472656 247.5188751220703 152.70663452148438 194.39060974121094 141.7191619873047 212.45928955078125 C 145.50328063964844 244.761962890625 120.85750579833984 216.34017944335938 123.54906463623047 207.984375 C 125.10869598388672 188.64195251464844 140.18121337890625 185.09213256835938 145.96133422851562 186.29275512695312 C 153.61148071289062 184.79786682128906 175.44113159179688 197.70713806152344 161.2288360595703 221.15936279296875" stroke-width="0.0" fill="rgb(255, 246, 219)" opacity="0.52123666" stroke="rgb(131, 48, 209)" stroke-opacity="0.5597156" stroke-linecap="round" stroke-linejoin="round"/>
    <path d="M 59.62216567993164 298.805419921875 C 48.58799362182617 343.80389404296875 56.247615814208984 354.65277099609375 6.697192668914795 354.90728759765625 C -19.141571044921875 339.1546325683594 -11.323001861572266 332.47210693359375 -39.52741622924805 256.3371276855469 C 10.436431884765625 229.64036560058594 24.03774642944336 213.75393676757812 15.339594841003418 282.6585693359375 C 2.836848497390747 295.1429443359375 83.87861633300781 278.8338928222656 59.62216567993164 298.805419921875" stroke-width="0.0" fill="rgb(177, 212, 181)" opacity="0.92865884" stroke="rgb(113, 175, 51)" stroke-opacity="0.5550561" stroke-linecap="round" stroke-linejoin="round"/>
    <path d="M 524.7330322265625 326.41546630859375 C 520.9898681640625 353.22564697265625 516.363037109375 350.4831237792969 484.3774108886719 353.9278259277344 C 449.8203125 350.78778076171875 450.2013854980469 349.81011962890625 453.0612487792969 321.1100769042969 C 452.5865783691406 286.3021240234375 450.1608581542969 287.19781494140625 491.48681640625 287.2720947265625 C 524.1132202148438 291.0469665527344 526.9732055664062 276.3996887207031 524.7330322265625 326.41546630859375" stroke-width="0.0" fill="rgb(176, 211, 181)" opacity="0.944451" stroke="rgb(131, 170, 251)" stroke-opacity="0.06182851" stroke-linecap="round" stroke-linejoin="round"/>
    <path d="M 109.84378051757812 190.42247009277344 C 110.45804595947266 195.75558471679688 106.79501342773438 202.50747680664062 101.95677947998047 202.48719787597656 C 83.58521270751953 203.1346893310547 90.5279312133789 202.93299865722656 97.2739486694336 202.59315490722656 C 84.2860336303711 198.03965759277344 89.63095092773438 179.72190856933594 101.7115478515625 182.2528839111328 C 101.47541809082031 181.6671142578125 109.74641418457031 184.57760620117188 109.84378051757812 190.42247009277344" stroke-width="0.0" fill="rgb(211, 131, 106)" opacity="0.97278047" stroke="rgb(43, 211, 181)" stroke-opacity="0.85054713" stroke-linecap="round" stroke-linejoin="round"/>
    <path d="M 474.166015625 173.81288146972656 C 474.6049499511719 313.8006591796875 464.0784912109375 245.66493225097656 478.5837707519531 284.5687255859375 C 455.00518798828125 298.55523681640625 470.5042419433594 260.7025146484375 473.119140625 281.7073059082031 C 471.326416015625 268.01031494140625 466.4772644042969 287.619384765625 471.1698913574219 246.43800354003906 C 472.3315124511719 281.0751647949219 469.3291931152344 239.976806640625 474.166015625 173.81288146972656" stroke-width="0.0" fill="rgb(33, 0, 51)" opacity="0.9334088" stroke="rgb(235, 105, 76)" stroke-opacity="0.89535105" stroke-linecap="round" stroke-linejoin="round"/>
    <path d="M 244.6402587890625 288.1015625 C 239.63638305664062 305.19976806640625 230.08053588867188 301.51055908203125 227.52139282226562 299.0715637207031 C 202.55174255371094 297.400634765625 191.1790008544922 307.1015319824219 175.9084014892578 288.0652770996094 C 210.01077270507812 288.251953125 220.84388732910156 287.9853820800781 204.34365844726562 287.8746032714844 C 209.50051879882812 288.0135498046875 225.60841369628906 287.85955810546875 244.6402587890625 288.1015625" stroke-width="0.0" fill="rgb(174, 210, 180)" opacity="0.9934459" stroke="rgb(98, 219, 78)" stroke-opacity="0.97137564" stroke-linecap="round" stroke-linejoin="round"/>
    <path d="M 229.83511352539062 131.43511962890625 C 232.03948974609375 147.9407501220703 247.76638793945312 142.24264526367188 243.85829162597656 144.96412658691406 C 227.9373779296875 154.93125915527344 220.04351806640625 135.08082580566406 221.46246337890625 135.21185302734375 C 218.32766723632812 126.60202026367188 228.6714324951172 110.3536148071289 244.06622314453125 120.07215118408203 C 234.01589965820312 117.39054107666016 230.46505737304688 125.83032989501953 229.83511352539062 131.43511962890625" stroke-width="0.0" fill="rgb(255, 235, 195)" opacity="0.8851721" stroke="rgb(246, 94, 205)" stroke-opacity="0.82994324" stroke-linecap="round" stroke-linejoin="round"/>
    <path d="M 74.56076049804688 135.3681640625 C 74.51747131347656 138.8108673095703 72.56409454345703 149.83624267578125 59.044921875 148.8724365234375 C 56.548057556152344 145.005615234375 67.55372619628906 148.03201293945312 65.02838897705078 132.0841064453125 C 64.1025161743164 126.00271606445312 52.96222686767578 122.760498046875 56.72491455078125 124.33875274658203 C 72.6421890258789 119.96306610107422 74.72101593017578 132.6962432861328 74.56076049804688 135.3681640625" stroke-width="0.0" fill="rgb(255, 252, 222)" opacity="0.49421132" stroke="rgb(240, 230, 122)" stroke-opacity="0.88039535" stroke-linecap="round" stroke-linejoin="round"/>
    <path d="M 99.05250549316406 237.61990356445312 C 100.01329803466797 235.2220458984375 101.58380889892578 237.9453125 99.89527893066406 260.75018310546875 C 98.2102279663086 258.8555603027344 102.43749237060547 258.6000061035156 97.68110656738281 287.5135803222656 C 122.98046112060547 291.83917236328125 94.13550567626953 268.079833984375 103.00055694580078 276.12060546875 C 97.56380462646484 275.40380859375 98.89787292480469 265.1453857421875 99.05250549316406 237.61990356445312" stroke-width="0.0" fill="rgb(26, 0, 37)" opacity="0.8822913" stroke="rgb(169, 177, 60)" stroke-opacity="0.528445" stroke-linecap="round" stroke-linejoin="round"/>
    <path d="M 471.8807067871094 201.40542602539062 C 477.7235107421875 204.38436889648438 471.5617980957031 161.49383544921875 472.6944274902344 202.2725067138672 C 473.3778991699219 197.95579528808594 464.2805480957031 202.51158142089844 463.4169616699219 193.05438232421875 C 462.7502136230469 187.0520782470703 467.5215759277344 181.22940063476562 473.0478210449219 182.33380126953125 C 480.6124267578125 181.54580688476562 486.973388671875 197.35545349121094 471.8807067871094 201.40542602539062" stroke-width="0.0" fill="rgb(207, 132, 107)" opacity="0.9798301" stroke="rgb(33, 154, 190)" stroke-opacity="0.4977476" stroke-linecap="round" stroke-linejoin="round"/>
    <path d="M 100.83294677734375 220.5268096923828 C 101.19860076904297 224.622802734375 100.15470886230469 261.1645812988281 101.27348327636719 288.448974609375 C 94.6860122680664 264.86822509765625 103.2072982788086 240.12815856933594 99.00198364257812 259.1431884765625 C 98.60009765625 253.43890380859375 99.05743408203125 241.53289794921875 98.94451904296875 189.33877563476562 C 102.46878051757812 191.8683624267578 99.88846588134766 252.7241973876953 100.83294677734375 220.5268096923828" stroke-width="0.0" fill="rgb(31, 7, 45)" opacity="0.8819993" stroke="rgb(243, 149, 203)" stroke-opacity="0.2733611" stroke-linecap="round" stroke-linejoin="round"/>
    <path d="M 196.36703491210938 281.15869140625 C 190.79400634765625 267.08184814453125 199.05386352539062 260.97381591796875 189.5833740234375 258.55133056640625 C 200.3117218017578 263.46807861328125 189.63140869140625 264.9404296875 186.74383544921875 262.40447998046875 C 196.08599853515625 258.2016906738281 194.28341674804688 268.322021484375 194.2670440673828 249.91244506835938 C 197.47409057617188 241.6878662109375 195.23716735839844 249.15875244140625 196.36703491210938 281.15869140625" stroke-width="0.0" fill="rgb(255, 255, 226)" opacity="0.68222374" stroke="rgb(242, 126, 181)" stroke-opacity="0.5345768" stroke-linecap="round" stroke-linejoin="round"/>
    <path d="M 231.2246856689453 247.595703125 C 230.1943817138672 254.1208953857422 232.8838348388672 283.14208984375 227.92201232910156 257.73590087890625 C 236.81570434570312 260.2148132324219 224.30252075195312 246.37472534179688 226.33743286132812 267.7107849121094 C 234.43405151367188 269.6915283203125 225.51690673828125 258.9043273925781 226.20657348632812 249.22940063476562 C 223.2767333984375 246.51925659179688 231.56077575683594 249.57655334472656 231.2246856689453 247.595703125" stroke-width="0.0" fill="rgb(66, 55, 61)" opacity="0.99669784" stroke="rgb(45, 56, 125)" stroke-opacity="0.4137737" stroke-linecap="round" stroke-linejoin="round"/>
    <path d="M 443.6520080566406 26.515399932861328 C 449.9564514160156 38.336238861083984 442.0426025390625 41.857662200927734 440.37042236328125 41.68977355957031 C 435.86395263671875 42.68165969848633 431.6213073730469 38.740272521972656 432.2560729980469 31.370288848876953 C 433.48126220703125 25.088512420654297 435.1245422363281 36.70181655883789 439.9689025878906 32.775054931640625 C 445.0286560058594 26.07078742980957 443.6747131347656 24.159482955932617 443.6520080566406 26.515399932861328" stroke-width="0.0" fill="rgb(255, 254, 234)" opacity="0.48429742" stroke="rgb(241, 45, 128)" stroke-opacity="0.50871617" stroke-linecap="round" stroke-linejoin="round"/>
    <path d="M 238.06727600097656 248.20138549804688 C 236.84262084960938 271.3995056152344 242.4530792236328 271.8393249511719 226.8715057373047 264.08685302734375 C 239.864990234375 267.3365173339844 223.13919067382812 273.2608337402344 227.20968627929688 258.1129455566406 C 230.26089477539062 255.69891357421875 233.6322784423828 279.54766845703125 233.03762817382812 258.1950988769531 C 251.6074676513672 257.11273193359375 211.55548095703125 254.32557678222656 238.06727600097656 248.20138549804688" stroke-width="0.0" fill="rgb(65, 35, 52)" opacity="0.8087918" stroke="rgb(159, 236, 110)" stroke-opacity="0.80671275" stroke-linecap="round" stroke-linejoin="round"/>
    <path d="M 47.94839859008789 255.73927307128906 C 40.00706100463867 256.2933654785156 39.361854553222656 254.34103393554688 48.38575744628906 254.7593536376953 C 47.79435729980469 251.61863708496094 48.86229705810547 246.12144470214844 48.564659118652344 275.0060119628906 C 53.30744934082031 273.1651916503906 48.62752914428711 286.0362854003906 50.6231689453125 245.79930114746094 C 46.74617004394531 245.68914794921875 50.08932113647461 256.07965087890625 47.94839859008789 255.73927307128906" stroke-width="0.0" fill="rgb(179, 186, 180)" opacity="0.98539674" stroke="rgb(233, 97, 31)" stroke-opacity="0.019234778" stroke-linecap="round" stroke-linejoin="round"/>
    <path d="M 189.31361389160156 247.0685577392578 C 186.3148651123047 288.4087829589844 205.56741333007812 274.02716064453125 187.37118530273438 279.3797302246094 C 191.40634155273438 261.1407470703125 176.85057067871094 232.6249542236328 177.25347900390625 258.92877197265625 C 175.8460693359375 242.32098388671875 179.53558349609375 250.893310546875 178.29026794433594 249.36244201660156 C 214.68115234375 250.22164916992188 205.86276245117188 245.85362243652344 189.31361389160156 247.0685577392578" stroke-width="0.0" fill="rgb(204, 181, 155)" opacity="1.0" stroke="rgb(198, 27, 84)" stroke-opacity="0.5554335" stroke-linecap="round" stroke-linejoin="round"/>
    <path d="M 70.91612243652344 273.08953857421875 C 75.09147644042969 280.3582763671875 85.05294036865234 272.0646057128906 90.18017578125 278.5583190917969 C 62.684078216552734 316.0533447265625 64.38362884521484 235.71910095214844 78.32666778564453 255.690673828125 C 77.74036407470703 273.8941955566406 80.91928100585938 289.64910888671875 70.79788208007812 260.5289306640625 C 72.7207260131836 271.14373779296875 80.7431869506836 281.06353759765625 70.91612243652344 273.08953857421875" stroke-width="0.0" fill="rgb(157, 133, 115)" opacity="0.808386" stroke="rgb(235, 141, 193)" stroke-opacity="0.000121169054" stroke-linecap="round" stroke-linejoin="round"/>
    <path d="M 144.2830810546875 202.83950805664062 C 143.9306182861328 226.4103546142578 139.53102111816406 264.2927551269531 138.574951171875 290.7163391113281 C 132.7317352294922 293.80206298828125 143.15992736816406 243.2706298828125 136.98663330078125 236.76390075683594 C 140.0896759033203 240.85055541992188 139.2073516845703 258.35845947265625 139.61412048339844 247.54991149902344 C 140.56471252441406 262.6985778808594 137.5756072998047 256.5960388183594 144.2830810546875 202.83950805664062" stroke-width="0.0" fill="rgb(29, 0, 64)" opacity="0.9050222" stroke="rgb(38, 220, 45)" stroke-opacity="0.11571202" stroke-linecap="round" stroke-linejoin="round"/>
    <path d="M 309.0262145996094 261.7742614746094 C 310.6617431640625 275.7218322753906 301.5099792480469 258.1030578613281 303.4770202636719 256.43463134765625 C 295.6660461425781 271.1880187988281 319.6309814453125 266.4109191894531 300.546142578125 267.797607421875 C 300.4061584472656 221.4777069091797 300.610595703125 261.18682861328125 307.8907470703125 268.4774169921875 C 306.5479431152344 234.3146209716797 310.1456298828125 246.2320098876953 309.0262145996094 261.7742614746094" stroke-width="0.0" fill="rgb(186, 187, 158)" opacity="0.99995506" stroke="rgb(243, 162, 31)" stroke-opacity="0.033530407" stroke-linecap="round" stroke-linejoin="round"/>
    <path d="M 57.754981994628906 260.2137451171875 C 58.678993225097656 252.71746826171875 55.87141036987305 260.2674255371094 54.444847106933594 289.1473083496094 C 60.37799835205078 269.96978759765625 55.93864822387695 257.52685546875 58.101016998291016 252.0120086669922 C 55.12043380737305 274.63128662109375 56.226783752441406 270.8272705078125 55.60900115966797 246.04238891601562 C 59.65940475463867 241.33868408203125 56.28521728515625 265.741455078125 57.754981994628906 260.2137451171875" stroke-width="0.0" fill="rgb(179, 183, 178)" opacity="0.9696568" stroke="rgb(219, 225, 89)" stroke-opacity="0.40736565" stroke-linecap="round" stroke-linejoin="round"/>
    <path d="M 389.9100646972656 238.8820037841797 C 387.332763671875 239.65968322753906 385.1487121582031 264.29022216796875 391.3409729003906 264.78692626953125 C 376.1446228027344 267.3648376464844 383.53533935546875 246.658935546875 382.5249938964844 273.57080078125 C 393.2280578613281 267.6067810058594 384.41192626953125 258.02691650390625 384.3501892089844 239.20071411132812 C 387.0909423828125 263.54345703125 392.47979736328125 278.9469299316406 389.9100646972656 238.8820037841797" stroke-width="0.0" fill="rgb(244, 197, 169)" opacity="0.8109011" stroke="rgb(237, 51, 214)" stroke-opacity="0.64178336" stroke-linecap="round" stroke-linejoin="round"/>
    <path d="M 89.6708984375 281.9680480957031 C 88.10647583007812 279.18212890625 89.67671966552734 277.765625 89.09327697753906 287.6416015625 C 83.8448257446289 289.9727478027344 88.77113342285156 282.66485595703125 85.78202819824219 285.2379455566406 C 89.28324127197266 274.4374084472656 79.39582824707031 268.9903564453125 83.63934326171875 254.04058837890625 C 91.86643981933594 268.3214111328125 88.11479187011719 277.1376953125 89.6708984375 281.9680480957031" stroke-width="0.0" fill="rgb(47, 4, 45)" opacity="0.96267354" stroke="rgb(10, 185, 89)" stroke-opacity="0.6671192" stroke-linecap="round" stroke-linejoin="round"/>
    <path d="M 220.0124969482422 247.54197692871094 C 220.91741943359375 249.5666961669922 220.67926025390625 255.18502807617188 224.98976135253906 267.78607177734375 C 225.09243774414062 252.1052703857422 228.2527618408203 243.09054565429688 224.98011779785156 247.60829162597656 C 224.67437744140625 275.39453125 226.32920837402344 239.69503784179688 226.3984375 271.0924072265625 C 221.9973907470703 259.90985107421875 222.26153564453125 258.05804443359375 220.0124969482422 247.54197692871094" stroke-width="0.0" fill="rgb(240, 235, 221)" opacity="0.8959684" stroke="rgb(137, 129, 212)" stroke-opacity="0.08994011" stroke-linecap="round" stroke-linejoin="round"/>
    <path d="M 341.72723388671875 251.754150390625 C 342.67266845703125 286.0433044433594 339.11041259765625 269.6389465332031 339.522705078125 259.3098449707031 C 328.3019714355469 260.76141357421875 337.35223388671875 255.06752014160156 332.9549255371094 273.34344482421875 C 329.84356689453125 236.802978515625 335.1144104003906 259.22186279296875 334.62445068359375 258.2212219238281 C 355.6162109375 251.76597595214844 308.6078796386719 252.41392517089844 341.72723388671875 251.754150390625" stroke-width="0.0" fill="rgb(235, 235, 200)" opacity="0.9036429" stroke="rgb(95, 241, 122)" stroke-opacity="0.8271168" stroke-linecap="round" stroke-linejoin="round"/>
    <path d="M 391.3414306640625 269.0942077636719 C 400.9926452636719 266.3511962890625 391.240234375 267.0183410644531 395.5439758300781 276.9182434082031 C 391.2413330078125 275.80908203125 391.3175964355469 276.4505920410156 390.61883544921875 275.5421142578125 C 389.90447998046875 265.2463684082031 390.7165832519531 267.2734680175781 389.9188232421875 266.2290344238281 C 393.1888732910156 266.20257568359375 399.66229248046875 265.7580871582031 391.3414306640625 269.0942077636719" stroke-width="0.0" fill="rgb(115, 85, 92)" opacity="0.9394904" stroke="rgb(73, 204, 169)" stroke-opacity="0.03590085" stroke-linecap="round" stroke-linejoin="round"/>
    <path d="M 432.68646240234375 257.48675537109375 C 431.6955871582031 253.56398010253906 433.06744384765625 264.6238708496094 431.4204406738281 264.0060119628906 C 426.27630615234375 265.2177429199219 428.9268798828125 259.38604736328125 428.2153015136719 267.0155334472656 C 428.5609436035156 261.1449279785156 427.8638610839844 251.767333984375 428.6124572753906 254.95947265625 C 434.2138671875 254.70892333984375 431.4024353027344 254.6502227783203 432.68646240234375 257.48675537109375" stroke-width="0.0" fill="rgb(132, 184, 165)" opacity="0.99761087" stroke="rgb(204, 42, 184)" stroke-opacity="0.5793057" stroke-linecap="round" stroke-linejoin="round"/>
    <path d="M 43.03022384643555 245.7184600830078 C 40.452354431152344 254.20455932617188 42.67523956298828 277.4739990234375 41.46937561035156 272.97344970703125 C 42.73241424560547 275.46466064453125 40.132022857666016 270.0845642089844 42.41273880004883 275.0198974609375 C 59.55116653442383 275.1024169921875 43.533477783203125 272.7110595703125 43.04496765136719 273.684326171875 C 42.648773193359375 274.398193359375 43.87908172607422 277.1517028808594 43.03022384643555 245.7184600830078" stroke-width="0.0" fill="rgb(177, 181, 177)" opacity="0.9815858" stroke="rgb(150, 203, 245)" stroke-opacity="0.8215041" stroke-linecap="round" stroke-linejoin="round"/>
    <path d="M 387.0867614746094 266.4393310546875 C 387.6011962890625 280.989013671875 387.25347900390625 266.2044372558594 381.3776550292969 275.47137451171875 C 379.2918701171875 268.2862243652344 381.0362243652344 262.80548095703125 383.93939208984375 269.2708740234375 C 384.1251525878906 269.8941345214844 382.125732421875 265.043701171875 381.47882080078125 267.2626647949219 C 375.3769836425781 265.69219970703125 390.7698974609375 265.6827392578125 387.0867614746094 266.4393310546875" stroke-width="0.0" fill="rgb(79, 53, 72)" opacity="0.8035153" stroke="rgb(137, 10, 228)" stroke-opacity="0.6853069" stroke-linecap="round" stroke-linejoin="round"/>
    <path d="M 50.00239562988281 246.13168334960938 C 51.20856857299805 251.49595642089844 40.268882751464844 242.29566955566406 41.86661911010742 254.67286682128906 C 43.72276306152344 270.030517578125 44.242706298828125 237.5460205078125 41.720760345458984 251.14358520507812 C 41.96784973144531 247.50315856933594 41.90435791015625 244.7991943359375 41.7950553894043 246.58248901367188 C 41.34376907348633 246.3063507080078 43.47904586791992 245.67906188964844 50.00239562988281 246.13168334960938" stroke-width="0.0" fill="rgb(183, 188, 182)" opacity="0.8480412" stroke="rgb(145, 56, 38)" stroke-opacity="0.2579098" stroke-linecap="round" stroke-linejoin="round"/>
    <path d="M 433.43695068359375 248.08956909179688 C 431.53765869140625 243.9343719482422 433.5029296875 257.55609130859375 431.1805114746094 253.1123046875 C 427.56646728515625 258.42059326171875 428.32061767578125 244.56996154785156 429.22955322265625 246.9930419921875 C 432.1580505371094 246.5446319580078 429.7772216796875 246.72532653808594 431.0790100097656 247.3652801513672 C 429.0792541503906 246.79571533203125 433.0079040527344 246.7558135986328 433.43695068359375 248.08956909179688" stroke-width="0.0" fill="rgb(118, 182, 175)" opacity="0.9981143" stroke="rgb(37, 45, 203)" stroke-opacity="0.86556596" stroke-linecap="round" stroke-linejoin="round"/>
    <path d="M 229.906982421875 271.38763427734375 C 233.3035125732422 260.61566162109375 231.8099822998047 260.20684814453125 231.16372680664062 269.9226379394531 C 236.1298828125 269.60028076171875 230.96726989746094 266.7867736816406 240.07168579101562 268.6929016113281 C 229.0967559814453 274.40460205078125 234.83584594726562 262.0590515136719 232.42160034179688 245.4402618408203 C 229.05555725097656 248.9178009033203 233.81942749023438 266.566650390625 229.906982421875 271.38763427734375" stroke-width="0.0" fill="rgb(245, 235, 222)" opacity="0.8095332" stroke="rgb(102, 38, 10)" stroke-opacity="0.0143033" stroke-linecap="round" stroke-linejoin="round"/>
    <path d="M 69.09461212158203 282.7556457519531 C 63.5322265625 282.2782897949219 60.35716247558594 283.15826416015625 56.638404846191406 286.3131408691406 C 67.26441192626953 283.2484436035156 65.71577453613281 277.3504333496094 64.56352996826172 274.1862487792969 C 70.8243408203125 285.2491149902344 51.74250411987305 261.6241455078125 46.0125846862793 288.138916015625 C 74.19357299804688 287.2852783203125 69.04569244384766 290.4241638183594 69.09461212158203 282.7556457519531" stroke-width="0.0" fill="rgb(46, 5, 45)" opacity="0.9933269" stroke="rgb(114, 222, 180)" stroke-opacity="0.045607716" stroke-linecap="round" stroke-linejoin="round"/>
    <path d="M 199.7574920654297 278.36383056640625 C 205.60195922851562 279.059814453125 192.5759735107422 280.3970947265625 187.33334350585938 277.444580078125 C 206.96328735351562 276.01788330078125 205.61805725097656 278.1436462402344 196.477294921875 280.6613464355469 C 199.45916748046875 277.6351623535156 203.46768188476562 278.0482177734375 192.6365203857422 278.7092590332031 C 192.58612060546875 278.0784606933594 199.10153198242188 279.0526428222656 199.7574920654297 278.36383056640625" stroke-width="0.0" fill="rgb(255, 228, 197)" opacity="0.84658194" stroke="rgb(208, 225, 157)" stroke-opacity="0.8681698" stroke-linecap="round" stroke-linejoin="round"/>
    <path d="M 200.64736938476562 257.0894470214844 C 192.45480346679688 260.6236877441406 193.09828186035156 260.17938232421875 203.42478942871094 261.03680419921875 C 205.4610137939453 264.0827331542969 197.95252990722656 263.3863830566406 186.80967712402344 262.828857421875 C 196.92807006835938 262.332763671875 200.28765869140625 259.016357421875 203.28184509277344 262.2502746582031 C 187.2301483154297 261.4391174316406 198.02098083496094 258.9001159667969 200.64736938476562 257.0894470214844" stroke-width="0.0" fill="rgb(255, 246, 213)" opacity="0.6723705" stroke="rgb(52, 116, 155)" stroke-opacity="0.4639673" stroke-linecap="round" stroke-linejoin="round"/>
    <path d="M 17.538368225097656 294.6576843261719 C 18.468013763427734 287.8853759765625 18.90456771850586 289.54541015625 19.2175235748291 294.6972961425781 C 13.169109344482422 284.6561279296875 10.928919792175293 293.44525146484375 12.947762489318848 279.5696716308594 C 11.817890167236328 276.1065368652344 13.278006553649902 269.3219299316406 15.916027069091797 266.75823974609375 C 18.80547332763672 263.40576171875 17.246864318847656 272.0358581542969 17.538368225097656 294.6576843261719" stroke-width="0.0" fill="rgb(183, 215, 184)" opacity="0.67566085" stroke="rgb(140, 18, 68)" stroke-opacity="0.6013694" stroke-linecap="round" stroke-linejoin="round"/>
    <path d="M 141.23680114746094 220.08824157714844 C 147.7191925048828 203.1322021484375 147.49600219726562 210.90126037597656 144.64695739746094 207.9519805908203 C 142.1587371826172 224.79315185546875 141.0985565185547 208.0721435546875 142.56341552734375 212.50511169433594 C 140.01475524902344 206.21499633789062 146.14456176757812 207.4241943359375 168.04006958007812 210.79177856445312 C 134.67703247070312 209.0356903076172 146.55548095703125 205.25511169433594 141.23680114746094 220.08824157714844" stroke-width="0.0" fill="rgb(85, 116, 119)" opacity="0.6962468" stroke="rgb(185, 192, 81)" stroke-opacity="0.3721974" stroke-linecap="round" stroke-linejoin="round"/>
  </g>
</svg>
