<?xml version="1.0" ?>
<svg xmlns="http://www.w3.org/2000/svg" version="1.1" width="512" height="341">
  <defs/>
  <g>
    <path d="M 327.9097900390625 84.27335357666016 C 323.3480529785156 174.9011688232422 319.93017578125 180.7705078125 249.54010009765625 185.2057647705078 C 225.9236602783203 160.482421875 249.77987670898438 135.17616271972656 227.16029357910156 110.79357147216797 C 201.65725708007812 93.42754364013672 202.3038787841797 75.40900421142578 206.56536865234375 53.87663269042969 C 309.6642150878906 54.078758239746094 313.1877136230469 58.48056411743164 327.9097900390625 84.27335357666016" stroke-width="0.0" fill="rgb(12, 217, 174)" opacity="0.17081267" stroke="rgb(25, 15, 155)" stroke-opacity="0.45297226" stroke-linecap="round" stroke-linejoin="round"/>
    <path d="M 487.3290710449219 209.0596466064453 C 449.8446350097656 231.3807830810547 505.61199951171875 167.45162963867188 461.7952575683594 187.3289031982422 C 482.7541809082031 215.9658203125 470.4266052246094 221.03521728515625 450.0791015625 207.2821502685547 C 430.9087219238281 184.08802795410156 447.9012145996094 158.2611846923828 468.50531005859375 157.87969970703125 C 494.1486511230469 156.3357696533203 509.9481201171875 188.53427124023438 487.3290710449219 209.0596466064453" stroke-width="0.0" fill="rgb(247, 255, 229)" opacity="0.4887741" stroke="rgb(72, 163, 237)" stroke-opacity="0.6167224" stroke-linecap="round" stroke-linejoin="round"/>
    <path d="M 440.8717041015625 240.29637145996094 C 438.74005126953125 294.9753723144531 453.57415771484375 279.9364929199219 406.9607849121094 282.5301208496094 C 389.8337707519531 280.0343933105469 398.4327697753906 294.042236328125 396.4583740234375 243.5037841796875 C 341.3098449707031 252.7884063720703 355.1539001464844 244.34530639648438 400.0458984375 212.44110107421875 C 425.97442626953125 230.02627563476562 439.66168212890625 237.73399353027344 440.8717041015625 240.29637145996094" stroke-width="0.0" fill="rgb(255, 235, 197)" opacity="0.91936153" stroke="rgb(101, 81, 91)" stroke-opacity="0.15326877" stroke-linecap="round" stroke-linejoin="round"/>
    <path d="M 451.48089599609375 287.6670227050781 C 441.96051025390625 437.6759948730469 384.05126953125 371.9140625 254.4330596923828 352.9280700683594 C 212.90618896484375 351.81414794921875 206.63616943359375 353.6401062011719 68.231689453125 363.43292236328125 C 41.667816162109375 257.9465026855469 55.21038818359375 296.5181884765625 184.96524047851562 286.0922546386719 C 277.7610168457031 289.220458984375 289.1468505859375 287.2771911621094 451.48089599609375 287.6670227050781" stroke-width="0.0" fill="rgb(220, 255, 219)" opacity="0.5125713" stroke="rgb(188, 69, 127)" stroke-opacity="0.4830524" stroke-linecap="round" stroke-linejoin="round"/>
    <path d="M 118.46221160888672 206.0678253173828 C 70.07434844970703 233.39120483398438 140.9136505126953 166.781982421875 87.296142578125 187.9505615234375 C 122.72054290771484 228.8516387939453 69.05645751953125 212.45396423339844 70.86802673339844 187.43551635742188 C 68.74147033691406 164.93087768554688 90.12732696533203 156.65228271484375 99.83723449707031 158.44076538085938 C 110.20626068115234 155.56973266601562 140.26522827148438 176.9893798828125 118.46221160888672 206.0678253173828" stroke-width="0.0" fill="rgb(254, 255, 229)" opacity="0.46701387" stroke="rgb(102, 166, 16)" stroke-opacity="0.60208416" stroke-linecap="round" stroke-linejoin="round"/>
    <path d="M 227.95404052734375 266.5256042480469 C 261.24676513671875 265.1241760253906 253.61932373046875 311.083740234375 177.36114501953125 287.3462219238281 C 170.43801879882812 210.177734375 210.79356384277344 331.35211181640625 200.66006469726562 243.83566284179688 C 174.92176818847656 281.6813659667969 158.64845275878906 248.1148223876953 209.1082305908203 222.325927734375 C 288.15118408203125 271.9712829589844 213.45571899414062 226.79766845703125 227.95404052734375 266.5256042480469" stroke-width="0.0" fill="rgb(255, 138, 111)" opacity="0.64863443" stroke="rgb(67, 27, 125)" stroke-opacity="0.13837355" stroke-linecap="round" stroke-linejoin="round"/>
    <path d="M 322.2064514160156 246.0491180419922 C 319.32049560546875 303.8093566894531 333.6474304199219 284.39764404296875 285.73919677734375 288.3614196777344 C 286.6429138183594 240.8867645263672 284.20703125 243.8577117919922 289.41180419921875 242.27297973632812 C 287.25299072265625 242.075439453125 272.0447998046875 255.16311645507812 315.1530456542969 223.30172729492188 C 347.1288146972656 247.38873291015625 363.5375061035156 246.76673889160156 322.2064514160156 246.0491180419922" stroke-width="0.0" fill="rgb(46, 0, 41)" opacity="0.9641078" stroke="rgb(112, 148, 25)" stroke-opacity="0.16062899" stroke-linecap="round" stroke-linejoin="round"/>
  </g>
</svg>
