<?xml version="1.0" ?>
<svg xmlns="http://www.w3.org/2000/svg" version="1.1" width="512" height="512">
  <defs/>
  <g>
    <path d="M 0.0 0.0 L 512.0 0.0 L 512.0 512.0 L 0.0 512.0 L 0.0 0.0" stroke-width="0.0" fill="rgb(255, 255, 255)" opacity="1.0" stroke="rgb(0, 0, 0)" stroke-opacity="0.0" stroke-linecap="round" stroke-linejoin="round"/>
    <path d="M 0.0 0.0 L 0.0 511.0 L 511.0 511.0 L 511.0 0.0 L 0.0 0.0" stroke-width="2.0" fill="rgb(255, 255, 255)" opacity="1.0" stroke="rgb(0, 0, 0)" stroke-opacity="0.0" stroke-linecap="round" stroke-linejoin="round"/>
    <path d="M 232.0 109.0 C 191.80995178222656 174.0 152.52804565429688 239.0 116.0 304.0 C 115.44869995117188 322.4378967285156 144.7307891845703 331.3812255859375 157.0 341.0 C 229.6666717529297 371.32159423828125 302.3333435058594 370.2600402832031 375.0 349.0 C 386.9850769042969 339.8395690917969 399.6453552246094 328.45904541015625 393.0 316.0 C 348.5952453613281 247.6666717529297 303.01318359375 179.3333282470703 259.0 111.0 C 250.3333282470703 106.45906066894531 241.6666717529297 110.24097442626953 232.0 109.0" stroke-width="2.0" fill="rgb(191, 80, 62)" opacity="1.0" stroke="rgb(0, 0, 0)" stroke-opacity="0.0" stroke-linecap="round" stroke-linejoin="round"/>
    <path d="M 232.0 111.0 C 197.83428955078125 164.23565673828125 160.5175018310547 225.49533081054688 130.0 282.0 C 190.6882781982422 325.07513427734375 255.65060424804688 319.7411193847656 318.0 305.0 L 320.0 301.0 C 290.4663391113281 237.6666717529297 261.6841125488281 174.3333282470703 232.0 111.0" stroke-width="2.0" fill="rgb(207, 32, 19)" opacity="1.0" stroke="rgb(0, 0, 0)" stroke-opacity="0.0" stroke-linecap="round" stroke-linejoin="round"/>
    <path d="M 115.0 306.0 C 129.4852752685547 328.23370361328125 160.887939453125 332.4267883300781 182.0 341.0 C 252.6666717529297 360.8247985839844 323.3333435058594 341.8964538574219 394.0 321.0 C 388.52813720703125 310.8529968261719 382.9840393066406 306.0147705078125 379.0 297.0 C 295.99713134765625 307.6304931640625 210.33717346191406 342.3864440917969 129.0 283.0 C 122.95465087890625 288.3458251953125 119.74403381347656 297.99066162109375 115.0 306.0" stroke-width="2.0" fill="rgb(242, 239, 205)" opacity="1.0" stroke="rgb(0, 0, 0)" stroke-opacity="0.0" stroke-linecap="round" stroke-linejoin="round"/>
    <path d="M 233.0 109.0 C 262.6030578613281 174.21148681640625 293.8697204589844 236.57000732421875 321.0 302.0 C 339.6666564941406 301.6151123046875 358.3333435058594 296.0713806152344 377.0 295.0 C 341.0504455566406 232.6666717529297 297.1620788574219 170.3333282470703 256.0 108.0 L 233.0 109.0" stroke-width="2.0" fill="rgb(174, 26, 18)" opacity="1.0" stroke="rgb(0, 0, 0)" stroke-opacity="0.0" stroke-linecap="round" stroke-linejoin="round"/>
    <path d="M 125.0 393.0 C 148.67922973632812 404.5665588378906 180.99063110351562 399.1429443359375 208.0 403.0 C 267.3333435058594 401.9634094238281 326.6666564941406 406.2811279296875 386.0 395.0 C 363.6528625488281 383.451171875 332.6769714355469 388.6689147949219 307.0 385.0 C 246.6666717529297 385.8169250488281 186.3333282470703 382.0771179199219 125.0 393.0" stroke-width="2.0" fill="rgb(177, 185, 163)" opacity="1.0" stroke="rgb(0, 0, 0)" stroke-opacity="0.0" stroke-linecap="round" stroke-linejoin="round"/>
    <path d="M 394.0 319.0 L 380.0 297.0 C 361.0 298.6103210449219 342.0 301.4393005371094 323.0 305.0 L 337.0 335.0 C 355.66815185546875 330.0931701660156 376.9980163574219 327.1614685058594 394.0 319.0" stroke-width="2.0" fill="rgb(222, 218, 179)" opacity="1.0" stroke="rgb(0, 0, 0)" stroke-opacity="0.0" stroke-linecap="round" stroke-linejoin="round"/>
    <path d="M 184.0 214.0 C 162.51670837402344 226.7166748046875 137.3050079345703 265.3437805175781 157.0 283.0 C 165.07757568359375 264.26910400390625 178.9677276611328 237.04757690429688 184.0 214.0" stroke-width="2.0" fill="rgb(215, 54, 41)" opacity="1.0" stroke="rgb(0, 0, 0)" stroke-opacity="0.0" stroke-linecap="round" stroke-linejoin="round"/>
    <path d="M 381.0 343.0 C 373.7607421875 347.67291259765625 358.70794677734375 341.3567199707031 364.0 331.0 C 355.4018249511719 334.0791015625 325.10443115234375 331.8381042480469 339.0 349.0 C 353.0 355.53509521484375 367.0 355.7090148925781 381.0 343.0" stroke-width="2.0" fill="rgb(30, 57, 42)" opacity="1.0" stroke="rgb(0, 0, 0)" stroke-opacity="0.0" stroke-linecap="round" stroke-linejoin="round"/>
    <path d="M 304.0 362.0 C 296.1263427734375 339.28302001953125 268.0586242675781 354.2950744628906 252.0 351.0 C 267.6376037597656 361.0068054199219 285.23016357421875 367.6138610839844 304.0 362.0" stroke-width="2.0" fill="rgb(30, 60, 43)" opacity="1.0" stroke="rgb(0, 0, 0)" stroke-opacity="0.0" stroke-linecap="round" stroke-linejoin="round"/>
    <path d="M 262.0 152.0 C 266.0392150878906 170.69664001464844 273.8524169921875 204.166015625 295.0 213.0 C 286.9961853027344 192.9987030029297 273.55523681640625 170.33506774902344 262.0 152.0" stroke-width="2.0" fill="rgb(187, 46, 39)" opacity="1.0" stroke="rgb(0, 0, 0)" stroke-opacity="0.0" stroke-linecap="round" stroke-linejoin="round"/>
    <path d="M 396.0 323.0 C 386.1329345703125 328.4869079589844 357.9554138183594 323.7991943359375 365.0 341.0 C 376.5646057128906 349.95501708984375 392.65289306640625 338.1125183105469 396.0 323.0" stroke-width="2.0" fill="rgb(22, 95, 56)" opacity="1.0" stroke="rgb(0, 0, 0)" stroke-opacity="0.0" stroke-linecap="round" stroke-linejoin="round"/>
    <path d="M 194.0 190.0 C 181.205810546875 193.66000366210938 186.70889282226562 220.27340698242188 196.0 197.0 L 194.0 190.0" stroke-width="2.0" fill="rgb(218, 52, 41)" opacity="1.0" stroke="rgb(0, 0, 0)" stroke-opacity="0.0" stroke-linecap="round" stroke-linejoin="round"/>
    <path d="M 244.0 192.0 C 234.03933715820312 210.85421752929688 255.94351196289062 206.55462646484375 244.0 192.0" stroke-width="2.0" fill="rgb(143, 30, 33)" opacity="1.0" stroke="rgb(0, 0, 0)" stroke-opacity="0.0" stroke-linecap="round" stroke-linejoin="round"/>
    <path d="M 184.0 245.0 C 171.62033081054688 260.71258544921875 195.00418090820312 262.9473571777344 184.0 245.0" stroke-width="2.0" fill="rgb(144, 29, 34)" opacity="1.0" stroke="rgb(0, 0, 0)" stroke-opacity="0.0" stroke-linecap="round" stroke-linejoin="round"/>
    <path d="M 250.0 130.0 C 249.53907775878906 135.50076293945312 254.58261108398438 143.10247802734375 259.0 147.0 C 260.05804443359375 141.65150451660156 255.8404998779297 133.6869659423828 250.0 130.0" stroke-width="2.0" fill="rgb(187, 40, 34)" opacity="1.0" stroke="rgb(0, 0, 0)" stroke-opacity="0.0" stroke-linecap="round" stroke-linejoin="round"/>
    <path d="M 221.0 269.0 C 211.68751525878906 283.9247741699219 233.6414031982422 283.9247741699219 221.0 269.0" stroke-width="2.0" fill="rgb(139, 27, 32)" opacity="1.0" stroke="rgb(0, 0, 0)" stroke-opacity="0.0" stroke-linecap="round" stroke-linejoin="round"/>
    <path d="M 234.0 233.0 C 219.11553955078125 244.12574768066406 239.57652282714844 250.3784942626953 234.0 233.0" stroke-width="2.0" fill="rgb(139, 29, 33)" opacity="1.0" stroke="rgb(0, 0, 0)" stroke-opacity="0.0" stroke-linecap="round" stroke-linejoin="round"/>
    <path d="M 204.0 211.0 C 193.99571228027344 226.81822204589844 214.0442657470703 226.81822204589844 204.0 211.0" stroke-width="2.0" fill="rgb(137, 28, 32)" opacity="1.0" stroke="rgb(0, 0, 0)" stroke-opacity="0.0" stroke-linecap="round" stroke-linejoin="round"/>
    <path d="M 268.0 254.0 C 254.6875 265.2388610839844 273.3182678222656 271.77545166015625 268.0 254.0" stroke-width="2.0" fill="rgb(135, 28, 35)" opacity="1.0" stroke="rgb(0, 0, 0)" stroke-opacity="0.0" stroke-linecap="round" stroke-linejoin="round"/>
    <path d="M 222.0 159.0 C 205.30233764648438 166.932373046875 223.04165649414062 177.20887756347656 222.0 159.0" stroke-width="2.0" fill="rgb(133, 30, 30)" opacity="1.0" stroke="rgb(0, 0, 0)" stroke-opacity="0.0" stroke-linecap="round" stroke-linejoin="round"/>
  </g>
</svg>
