<?xml version="1.0" ?>
<svg xmlns="http://www.w3.org/2000/svg" version="1.1" width="508" height="512">
  <defs/>
  <g>
    <path d="M 369.4976806640625 8.751418113708496 C 190.04074096679688 104.01846313476562 287.7628479003906 -19.150775909423828 266.3611755371094 216.96316528320312 C 55.14221954345703 250.31961059570312 6.416075229644775 215.3922882080078 5.769359588623047 156.4116973876953 C 5.642364025115967 -55.95232009887695 5.560299873352051 28.338342666625977 5.631369113922119 7.960236549377441 C 166.5467529296875 8.467076301574707 177.75474548339844 7.2178730964660645 369.4976806640625 8.751418113708496" stroke-width="0.0" fill="rgb(76, 116, 114)" opacity="0.39163077" stroke="rgb(196, 150, 217)" stroke-opacity="0.76551455" stroke-linecap="round" stroke-linejoin="round"/>
    <path d="M 421.0 33.0 C 420.33013916015625 35.5 418.5 37.33012771606445 416.0 38.0 C 413.5 37.33012771606445 411.66986083984375 35.5 411.0 33.0 C 411.66986083984375 30.5 413.5 28.669872283935547 416.0 28.0 C 418.5 28.669872283935547 420.33013916015625 30.5 421.0 33.0" stroke-width="0.0" fill="rgb(137, 171, 173)" opacity="1.0" stroke="rgb(132, 108, 241)" stroke-opacity="0.247607" stroke-linecap="round" stroke-linejoin="round"/>
    <path d="M 413.0 23.0 C 412.33013916015625 25.5 410.5 27.330127716064453 408.0 28.0 C 405.5 27.330127716064453 403.66986083984375 25.5 403.0 23.0 C 403.66986083984375 20.5 405.5 18.669872283935547 408.0 18.0 C 410.5 18.669872283935547 412.33013916015625 20.5 413.0 23.0" stroke-width="0.0" fill="rgb(137, 170, 173)" opacity="1.0" stroke="rgb(247, 74, 75)" stroke-opacity="0.6924899" stroke-linecap="round" stroke-linejoin="round"/>
  </g>
</svg>
