<?xml version="1.0" ?>
<svg xmlns="http://www.w3.org/2000/svg" version="1.1" width="508" height="512">
  <defs/>
  <g>
    <path d="M 403.3460693359375 8.146181106567383 C 154.09286499023438 97.6480941772461 307.03314208984375 -12.233327865600586 254.0259552001953 229.31088256835938 C 60.16982650756836 262.8162841796875 3.9848783016204834 225.55636596679688 5.701573371887207 181.05328369140625 C 5.133514881134033 -56.02960968017578 6.000986099243164 28.199615478515625 5.351051330566406 7.937417507171631 C 166.7927703857422 8.052165031433105 179.16775512695312 7.790310382843018 403.3460693359375 8.146181106567383" stroke-width="0.0" fill="rgb(63, 82, 90)" opacity="0.42009756" stroke="rgb(196, 150, 217)" stroke-opacity="0.76551455" stroke-linecap="round" stroke-linejoin="round"/>
    <path d="M 504.47686767578125 8.674946784973145 C 490.8760986328125 324.1135559082031 547.2337646484375 334.79010009765625 376.77783203125 332.901611328125 C 318.2920837402344 117.01171112060547 372.5990295410156 49.39590072631836 380.80950927734375 33.82682418823242 C 383.90643310546875 2.409546375274658 401.3138122558594 9.212191581726074 437.4469909667969 8.147939682006836 C 468.70831298828125 9.606121063232422 483.5290222167969 6.713627815246582 504.47686767578125 8.674946784973145" stroke-width="0.0" fill="rgb(125, 116, 107)" opacity="0.45128652" stroke="rgb(132, 108, 241)" stroke-opacity="0.247607" stroke-linecap="round" stroke-linejoin="round"/>
    <path d="M 490.9466247558594 20.94277000427246 C 426.3194274902344 48.03012466430664 400.5056457519531 19.694225311279297 383.2620544433594 184.0897216796875 C 252.92127990722656 243.79660034179688 240.9314727783203 223.87091064453125 274.6087646484375 7.972666263580322 C 367.2603759765625 7.9459991455078125 376.08245849609375 7.982853412628174 441.6423034667969 7.966548442840576 C 480.3525390625 9.594502449035645 521.285400390625 2.415170907974243 490.9466247558594 20.94277000427246" stroke-width="0.0" fill="rgb(121, 159, 166)" opacity="0.7356267" stroke="rgb(247, 74, 75)" stroke-opacity="0.6924899" stroke-linecap="round" stroke-linejoin="round"/>
    <path d="M 270.9978942871094 318.41741943359375 C 179.6154327392578 443.1684265136719 354.4244384765625 424.9311828613281 23.472448348999023 422.5067138671875 C -12.059471130371094 400.5137634277344 2.8616018295288086 412.0464782714844 66.17862701416016 369.7033386230469 C 192.6506805419922 393.4714050292969 52.93700408935547 406.4176330566406 199.79676818847656 400.6045837402344 C 179.83450317382812 281.83782958984375 253.28662109375 164.72634887695312 270.9978942871094 318.41741943359375" stroke-width="0.0" fill="rgb(0, 89, 135)" opacity="0.5578588" stroke="rgb(27, 254, 142)" stroke-opacity="0.2324643" stroke-linecap="round" stroke-linejoin="round"/>
    <path d="M 456.1107482910156 311.18133544921875 C 429.6536560058594 229.13473510742188 453.1778869628906 315.2545166015625 432.7454833984375 295.7394104003906 C 430.7701110839844 270.1750183105469 443.62762451171875 274.8362121582031 399.1800537109375 275.6316833496094 C 406.9578857421875 254.72903442382812 388.6914978027344 263.3931884765625 428.136962890625 263.21868896484375 C 462.6930236816406 262.7212829589844 461.53668212890625 250.74034118652344 456.1107482910156 311.18133544921875" stroke-width="0.0" fill="rgb(255, 250, 233)" opacity="0.9459023" stroke="rgb(42, 155, 121)" stroke-opacity="0.34083197" stroke-linecap="round" stroke-linejoin="round"/>
    <path d="M 458.0212707519531 206.6880645751953 C 452.3840026855469 283.8454284667969 477.0174865722656 256.9139099121094 401.4505310058594 263.2944641113281 C 418.5971374511719 306.67523193359375 356.5802917480469 324.0453796386719 377.3402404785156 234.30039978027344 C 363.42828369140625 87.18423461914062 403.944580078125 147.1617889404297 393.5237731933594 213.55624389648438 C 437.5057067871094 212.2200927734375 459.8131103515625 219.82347106933594 458.0212707519531 206.6880645751953" stroke-width="0.0" fill="rgb(10, 15, 42)" opacity="0.7703461" stroke="rgb(57, 35, 238)" stroke-opacity="0.42043397" stroke-linecap="round" stroke-linejoin="round"/>
    <path d="M 502.5466003417969 419.5677795410156 C 502.58184814453125 442.5643310546875 501.1676330566406 433.0644836425781 501.79388427734375 431.3813781738281 C 456.3509216308594 431.173828125 438.39959716796875 431.6324768066406 239.95635986328125 431.3945617675781 C 223.4756317138672 415.6520080566406 228.54754638671875 420.1095886230469 380.7725524902344 419.4209289550781 C 502.9400634765625 419.4952392578125 504.2760925292969 419.1879577636719 502.5466003417969 419.5677795410156" stroke-width="0.0" fill="rgb(4, 4, 29)" opacity="0.8445761" stroke="rgb(14, 49, 44)" stroke-opacity="0.5513878" stroke-linecap="round" stroke-linejoin="round"/>
    <path d="M 143.4008026123047 306.1418151855469 C 148.5872802734375 416.9292907714844 130.26527404785156 303.61090087890625 132.4875946044922 400.6464538574219 C 80.41600036621094 404.5340270996094 86.83209991455078 392.9082946777344 87.59001159667969 305.1926574707031 C 90.41727447509766 295.89569091796875 18.017135620117188 318.62493896484375 70.02000427246094 276.3326721191406 C 342.76434326171875 196.28311157226562 331.787109375 320.010009765625 143.4008026123047 306.1418151855469" stroke-width="0.0" fill="rgb(92, 151, 178)" opacity="0.87499964" stroke="rgb(68, 93, 157)" stroke-opacity="0.7189008" stroke-linecap="round" stroke-linejoin="round"/>
    <path d="M 303.4937438964844 259.4923095703125 C 300.2263488769531 321.5328674316406 320.06744384765625 223.25906372070312 305.1386413574219 351.7549133300781 C 282.66741943359375 347.1210021972656 293.1310119628906 373.53363037109375 290.05316162109375 265.6903381347656 C 290.10333251953125 267.1304016113281 290.19476318359375 247.1186981201172 290.5738220214844 240.4163818359375 C 307.7762756347656 249.2725830078125 293.43377685546875 262.651123046875 303.4937438964844 259.4923095703125" stroke-width="0.0" fill="rgb(0, 9, 37)" opacity="0.7868023" stroke="rgb(120, 153, 50)" stroke-opacity="0.475983" stroke-linecap="round" stroke-linejoin="round"/>
    <path d="M 404.60223388671875 440.2809143066406 C 408.0244445800781 522.1696166992188 435.646240234375 464.17303466796875 428.20355224609375 504.85797119140625 C 302.75933837890625 504.8280944824219 295.8368225097656 504.72308349609375 63.42063903808594 504.7718811035156 C 97.46809387207031 356.71917724609375 156.13235473632812 484.3291320800781 322.2973327636719 427.4027404785156 C 284.5218505859375 450.3887023925781 374.0809020996094 437.5810241699219 404.60223388671875 440.2809143066406" stroke-width="0.0" fill="rgb(15, 73, 109)" opacity="0.73327607" stroke="rgb(203, 145, 219)" stroke-opacity="0.25115016" stroke-linecap="round" stroke-linejoin="round"/>
    <path d="M 306.8351135253906 74.35675811767578 C 307.195556640625 82.38520050048828 286.4027404785156 106.01688385009766 262.53460693359375 84.9781723022461 C 262.1665954589844 125.56153869628906 260.3332824707031 92.7171630859375 268.3667297363281 49.012752532958984 C 275.7480773925781 47.45781326293945 256.896240234375 51.993045806884766 272.4080810546875 44.675819396972656 C 296.4839172363281 36.793968200683594 311.7645263671875 59.54541015625 306.8351135253906 74.35675811767578" stroke-width="0.0" fill="rgb(255, 247, 229)" opacity="0.9689174" stroke="rgb(153, 250, 186)" stroke-opacity="0.69291335" stroke-linecap="round" stroke-linejoin="round"/>
    <path d="M 245.36834716796875 401.1968688964844 C 221.08677673339844 428.4413146972656 273.4673156738281 418.65545654296875 90.36723327636719 420.359619140625 C 39.722755432128906 437.6627197265625 53.609169006347656 388.6513977050781 37.37983703613281 434.2572326660156 C -17.624540328979492 387.3034362792969 10.11768913269043 404.941650390625 24.986827850341797 400.1100769042969 C 35.90043640136719 402.8374938964844 73.37779998779297 399.3829040527344 245.36834716796875 401.1968688964844" stroke-width="0.0" fill="rgb(17, 0, 16)" opacity="0.717841" stroke="rgb(110, 49, 213)" stroke-opacity="0.3808889" stroke-linecap="round" stroke-linejoin="round"/>
    <path d="M 503.18463134765625 505.052978515625 C 452.89300537109375 505.05999755859375 537.425537109375 498.71563720703125 428.1092834472656 500.4743347167969 C 424.3056335449219 505.2515563964844 450.72406005859375 503.9881286621094 354.57598876953125 504.02301025390625 C 383.3616943359375 447.3682861328125 409.1587829589844 505.9298095703125 404.1705322265625 429.419677734375 C 524.1968994140625 441.47711181640625 498.63092041015625 391.61871337890625 503.18463134765625 505.052978515625" stroke-width="0.0" fill="rgb(17, 91, 107)" opacity="0.36531255" stroke="rgb(1, 249, 7)" stroke-opacity="0.18424913" stroke-linecap="round" stroke-linejoin="round"/>
    <path d="M 374.53143310546875 265.7395324707031 C 369.9564514160156 393.4698181152344 384.22406005859375 365.4286804199219 356.67047119140625 369.7424621582031 C 279.5830078125 365.918212890625 312.1473388671875 388.5758056640625 305.8962097167969 301.3951110839844 C 319.1944580078125 371.940673828125 284.5468444824219 345.927978515625 363.2966613769531 350.8452453613281 C 366.157470703125 334.6484680175781 360.0670471191406 285.4074401855469 374.53143310546875 265.7395324707031" stroke-width="0.0" fill="rgb(32, 35, 56)" opacity="0.9029394" stroke="rgb(26, 206, 185)" stroke-opacity="0.35683858" stroke-linecap="round" stroke-linejoin="round"/>
    <path d="M 35.382667541503906 305.0132751464844 C 35.646141052246094 349.3293151855469 35.302947998046875 341.49481201171875 35.29077911376953 342.2362060546875 C -1.7469748258590698 342.1815490722656 7.125622749328613 342.44140625 5.550223350524902 341.63458251953125 C 5.46975564956665 308.10833740234375 5.6229376792907715 306.78363037109375 5.573448181152344 308.5984191894531 C 43.060665130615234 309.4324645996094 34.39080047607422 308.6152648925781 35.382667541503906 305.0132751464844" stroke-width="0.0" fill="rgb(0, 95, 143)" opacity="0.5935159" stroke="rgb(103, 122, 237)" stroke-opacity="0.9746059" stroke-linecap="round" stroke-linejoin="round"/>
    <path d="M 127.23074340820312 171.30313110351562 C 126.54916381835938 267.81597900390625 128.88262939453125 237.89443969726562 124.52359771728516 245.11463928222656 C 88.57669830322266 242.0911865234375 99.85758209228516 267.098876953125 97.73731994628906 173.59622192382812 C 123.48865509033203 159.5855255126953 100.83255767822266 231.0950164794922 115.15866088867188 219.92723083496094 C 118.50563049316406 156.00164794921875 110.0501480102539 175.97540283203125 127.23074340820312 171.30313110351562" stroke-width="0.0" fill="rgb(255, 249, 231)" opacity="0.96527356" stroke="rgb(100, 129, 92)" stroke-opacity="0.55766606" stroke-linecap="round" stroke-linejoin="round"/>
    <path d="M 153.78358459472656 249.01109313964844 C 152.25137329101562 253.32931518554688 170.2390899658203 251.21688842773438 127.40906524658203 251.82247924804688 C 127.9358139038086 221.16213989257812 127.78417205810547 207.320556640625 127.75466918945312 169.609130859375 C 124.01820373535156 177.15805053710938 131.37689208984375 150.09463500976562 123.88643646240234 54.333763122558594 C 164.20489501953125 88.78417205810547 150.744873046875 180.06517028808594 153.78358459472656 249.01109313964844" stroke-width="0.0" fill="rgb(47, 52, 72)" opacity="0.9994539" stroke="rgb(59, 178, 29)" stroke-opacity="0.4464602" stroke-linecap="round" stroke-linejoin="round"/>
    <path d="M 464.4962463378906 325.8148193359375 C 458.118896484375 332.0103454589844 470.15118408203125 330.0890808105469 429.5881042480469 330.2169189453125 C 426.4191589355469 328.4527282714844 427.5577697753906 339.44873046875 427.2730712890625 297.38128662109375 C 428.2099914550781 291.3622131347656 420.01007080078125 293.9471740722656 460.3995361328125 293.3677978515625 C 439.50225830078125 214.51895141601562 547.0623168945312 307.7635192871094 464.4962463378906 325.8148193359375" stroke-width="0.0" fill="rgb(18, 23, 49)" opacity="0.8416551" stroke="rgb(156, 26, 187)" stroke-opacity="0.38512826" stroke-linecap="round" stroke-linejoin="round"/>
    <path d="M 61.503501892089844 432.38104248046875 C 68.5973892211914 462.1094665527344 66.0733642578125 462.7509460449219 59.65554428100586 460.7176818847656 C 4.788374900817871 457.09564208984375 5.790460586547852 506.6653747558594 6.038303375244141 423.042236328125 C 34.58419418334961 418.3276062011719 9.463282585144043 424.9739074707031 41.304359436035156 423.9762878417969 C 43.098167419433594 402.0403137207031 70.9653091430664 410.1119079589844 61.503501892089844 432.38104248046875" stroke-width="0.0" fill="rgb(179, 197, 191)" opacity="1.0" stroke="rgb(94, 125, 83)" stroke-opacity="0.32856157" stroke-linecap="round" stroke-linejoin="round"/>
    <path d="M 425.86114501953125 388.0459899902344 C 423.556640625 416.4391174316406 433.281494140625 411.5636901855469 405.6065979003906 412.4190368652344 C 370.45135498046875 412.6890563964844 382.1497497558594 416.6884460449219 378.8069763183594 388.3495178222656 C 382.1015625 361.02606201171875 370.65142822265625 372.0595703125 401.2297058105469 368.5232238769531 C 434.5392150878906 370.32952880859375 423.56243896484375 361.64202880859375 425.86114501953125 388.0459899902344" stroke-width="0.0" fill="rgb(16, 18, 40)" opacity="0.8707315" stroke="rgb(115, 33, 228)" stroke-opacity="0.95468795" stroke-linecap="round" stroke-linejoin="round"/>
    <path d="M 348.7525329589844 210.13475036621094 C 329.11834716796875 146.00180053710938 343.0714416503906 228.37539672851562 326.5212097167969 206.79811096191406 C 328.0906677246094 152.34243774414062 331.36944580078125 234.02381896972656 315.75982666015625 215.2230987548828 C 309.930908203125 167.78607177734375 327.5440979003906 178.85427856445312 285.1013488769531 177.60877990722656 C 362.37310791015625 182.55654907226562 353.6045837402344 165.31417846679688 348.7525329589844 210.13475036621094" stroke-width="0.0" fill="rgb(255, 250, 233)" opacity="0.94439006" stroke="rgb(79, 182, 54)" stroke-opacity="0.29356122" stroke-linecap="round" stroke-linejoin="round"/>
    <path d="M 269.9360046386719 342.9858703613281 C 268.24578857421875 354.3143615722656 276.52166748046875 350.5666198730469 249.31430053710938 351.45111083984375 C 248.74537658691406 435.8576965332031 251.99465942382812 407.0286560058594 239.5835723876953 413.6765441894531 C 244.0182342529297 303.11260986328125 233.99375915527344 328.0836486816406 252.26666259765625 324.0809020996094 C 275.6572570800781 326.9058532714844 267.9068908691406 314.1249084472656 269.9360046386719 342.9858703613281" stroke-width="0.0" fill="rgb(44, 44, 66)" opacity="0.95213246" stroke="rgb(95, 207, 156)" stroke-opacity="0.33680773" stroke-linecap="round" stroke-linejoin="round"/>
    <path d="M 129.0095672607422 503.2314758300781 C 103.04051971435547 505.3857727050781 86.4391860961914 503.0429382324219 61.090938568115234 504.8175354003906 C 7.924641132354736 504.2061767578125 1.6489990949630737 504.9485778808594 5.561491012573242 504.680908203125 C 5.567811012268066 447.45257568359375 6.720564842224121 444.9429931640625 7.096399784088135 452.0852966308594 C 50.533607482910156 469.4898376464844 73.72557830810547 480.67431640625 129.0095672607422 503.2314758300781" stroke-width="0.0" fill="rgb(62, 101, 124)" opacity="1.0" stroke="rgb(55, 87, 40)" stroke-opacity="0.10704914" stroke-linecap="round" stroke-linejoin="round"/>
    <path d="M 288.1883544921875 472.6531982421875 C 44.822303771972656 457.9414367675781 77.74735260009766 436.175537109375 65.30096435546875 474.4306945800781 C 47.79782485961914 476.0558776855469 46.082359313964844 475.1267395019531 45.36532211303711 459.4376525878906 C 50.07619857788086 426.97491455078125 55.02821731567383 435.278076171875 41.480690002441406 421.400390625 C 169.63864135742188 432.71710205078125 230.164306640625 390.5659484863281 288.1883544921875 472.6531982421875" stroke-width="0.0" fill="rgb(167, 199, 195)" opacity="0.69851285" stroke="rgb(68, 148, 141)" stroke-opacity="0.35648462" stroke-linecap="round" stroke-linejoin="round"/>
    <path d="M 502.75665283203125 379.1639099121094 C 502.6197814941406 350.29144287109375 502.54620361328125 358.8903503417969 502.64141845703125 411.7357482910156 C 448.78631591796875 409.9010925292969 469.6461181640625 433.9648132324219 464.27252197265625 331.04180908203125 C 478.9218444824219 331.2569580078125 474.5597229003906 331.0634765625 502.8478088378906 330.5315246582031 C 501.93499755859375 350.395751953125 503.1163024902344 363.099609375 502.75665283203125 379.1639099121094" stroke-width="0.0" fill="rgb(30, 119, 164)" opacity="0.6754609" stroke="rgb(24, 105, 106)" stroke-opacity="0.612553" stroke-linecap="round" stroke-linejoin="round"/>
    <path d="M 108.10736083984375 419.4385681152344 C 195.1469268798828 498.8881530761719 65.23385620117188 460.96795654296875 6.228841781616211 471.8143615722656 C 6.169034004211426 490.9293212890625 4.9930830001831055 492.3316955566406 5.023096084594727 461.25286865234375 C 5.879880905151367 414.64898681640625 0.045338936150074005 413.2828369140625 25.00228500366211 423.3827209472656 C 95.83743286132812 419.89361572265625 30.095232009887695 443.03887939453125 108.10736083984375 419.4385681152344" stroke-width="0.0" fill="rgb(146, 181, 185)" opacity="0.61169326" stroke="rgb(173, 206, 110)" stroke-opacity="0.35303" stroke-linecap="round" stroke-linejoin="round"/>
    <path d="M 66.02404022216797 467.6426086425781 C 66.95635223388672 473.0335693359375 64.38764953613281 473.0387878417969 37.30750274658203 471.5936279296875 C 1.2113237380981445 474.011474609375 6.077920913696289 479.0372009277344 5.826939105987549 454.2477722167969 C 34.73796844482422 455.60992431640625 32.709228515625 439.7623291015625 35.42919158935547 436.4391784667969 C 51.83264923095703 435.0011291503906 62.10025405883789 430.0429382324219 66.02404022216797 467.6426086425781" stroke-width="0.0" fill="rgb(90, 133, 156)" opacity="0.9121535" stroke="rgb(196, 134, 230)" stroke-opacity="0.21096563" stroke-linecap="round" stroke-linejoin="round"/>
    <path d="M 358.2904968261719 318.3734130859375 C 356.97845458984375 340.8572692871094 361.1959533691406 333.2377014160156 350.2703857421875 337.5114440917969 C 331.1173400878906 315.8348388671875 325.7941589355469 355.4637756347656 326.6909484863281 321.9685974121094 C 328.75054931640625 281.44598388671875 320.00286865234375 300.0926513671875 357.28265380859375 296.16229248046875 C 358.83184814453125 316.1967468261719 353.4523620605469 324.4320068359375 358.2904968261719 318.3734130859375" stroke-width="0.0" fill="rgb(73, 75, 91)" opacity="0.81586176" stroke="rgb(162, 17, 46)" stroke-opacity="0.90818053" stroke-linecap="round" stroke-linejoin="round"/>
    <path d="M 365.2709045410156 347.1470947265625 C 362.6355895996094 353.2783508300781 373.3467712402344 350.75726318359375 326.79302978515625 351.30377197265625 C 317.63677978515625 350.6649475097656 321.26519775390625 354.15887451171875 320.47918701171875 343.3974914550781 C 321.72808837890625 291.64508056640625 313.8907470703125 312.1578369140625 337.7605895996094 307.8321838378906 C 372.23309326171875 312.83209228515625 364.2264709472656 291.09588623046875 365.2709045410156 347.1470947265625" stroke-width="0.0" fill="rgb(100, 166, 189)" opacity="0.8409952" stroke="rgb(129, 209, 137)" stroke-opacity="0.36627367" stroke-linecap="round" stroke-linejoin="round"/>
    <path d="M 389.0049743652344 263.73974609375 C 358.9054870605469 329.7221374511719 365.3448486328125 309.3199157714844 365.08111572265625 269.3127746582031 C 326.0378723144531 268.4280700683594 334.1668701171875 273.7752380371094 337.1627502441406 257.1741638183594 C 363.9511413574219 228.99819946289062 349.26092529296875 265.0194396972656 357.8932800292969 218.8507537841797 C 369.3365783691406 266.197265625 368.22314453125 226.792724609375 389.0049743652344 263.73974609375" stroke-width="0.0" fill="rgb(77, 136, 164)" opacity="0.77837044" stroke="rgb(151, 102, 184)" stroke-opacity="0.568833" stroke-linecap="round" stroke-linejoin="round"/>
    <path d="M 407.2160339355469 80.0868148803711 C 446.2505798339844 93.92342376708984 436.6187744140625 88.54556274414062 395.7049255371094 90.37833404541016 C 352.0315246582031 89.53321838378906 346.24676513671875 94.18224334716797 365.74951171875 80.41320037841797 C 385.9283447265625 84.67402648925781 364.33758544921875 76.6352767944336 384.9319152832031 63.754615783691406 C 405.17974853515625 56.050621032714844 411.9241943359375 78.5687255859375 407.2160339355469 80.0868148803711" stroke-width="0.0" fill="rgb(253, 245, 225)" opacity="0.9636055" stroke="rgb(83, 115, 11)" stroke-opacity="0.17565387" stroke-linecap="round" stroke-linejoin="round"/>
    <path d="M 56.52373504638672 282.9007263183594 C 54.92087173461914 317.438232421875 53.53279495239258 293.8424987792969 9.487541198730469 309.24627685546875 C 4.223432540893555 309.5718078613281 8.038131713867188 309.9544372558594 5.400527000427246 307.2083435058594 C 7.573533535003662 224.6907196044922 2.117276906967163 256.71624755859375 15.079815864562988 259.0234680175781 C 53.67435836791992 256.6585693359375 49.390907287597656 263.1668395996094 56.52373504638672 282.9007263183594" stroke-width="0.0" fill="rgb(210, 102, 57)" opacity="0.33726266" stroke="rgb(27, 252, 9)" stroke-opacity="0.415664" stroke-linecap="round" stroke-linejoin="round"/>
    <path d="M 377.42449951171875 215.49087524414062 C 376.5644836425781 266.971435546875 381.6107482910156 242.08714294433594 362.8551025390625 243.75704956054688 C 363.3897399902344 218.69825744628906 352.0159912109375 241.50289916992188 354.0989990234375 229.166748046875 C 352.5221862792969 210.9612579345703 358.4695739746094 203.47085571289062 365.061767578125 217.12661743164062 C 371.7140808105469 203.36654663085938 375.31903076171875 214.89724731445312 377.42449951171875 215.49087524414062" stroke-width="0.0" fill="rgb(255, 253, 237)" opacity="0.93936944" stroke="rgb(184, 54, 164)" stroke-opacity="0.46750906" stroke-linecap="round" stroke-linejoin="round"/>
    <path d="M 119.15190887451172 136.70327758789062 C 117.9766845703125 129.00244140625 116.69356536865234 124.85723114013672 117.9830551147461 128.21560668945312 C 103.93064880371094 125.85965728759766 102.39193725585938 133.13482666015625 103.16130828857422 122.74675750732422 C 123.13684844970703 134.39581298828125 96.3443832397461 83.20196533203125 127.48426055908203 102.6212158203125 C 115.14988708496094 116.18417358398438 110.4538345336914 84.50035858154297 119.15190887451172 136.70327758789062" stroke-width="0.0" fill="rgb(255, 255, 240)" opacity="0.9114008" stroke="rgb(82, 54, 102)" stroke-opacity="0.9560418" stroke-linecap="round" stroke-linejoin="round"/>
    <path d="M 171.0092315673828 292.9481506347656 C 94.85530090332031 289.01763916015625 159.46661376953125 302.5914001464844 118.36725616455078 303.3251953125 C 114.47319793701172 287.3733825683594 104.02342987060547 274.9905090332031 81.62191009521484 274.4759521484375 C 95.30133819580078 264.063232421875 89.669189453125 263.68719482421875 135.02682495117188 261.0678405761719 C 128.2164306640625 305.2809753417969 145.98141479492188 264.9954833984375 171.0092315673828 292.9481506347656" stroke-width="0.0" fill="rgb(251, 244, 227)" opacity="1.0" stroke="rgb(146, 247, 92)" stroke-opacity="0.3187021" stroke-linecap="round" stroke-linejoin="round"/>
    <path d="M 293.7467041015625 173.30369567871094 C 294.50299072265625 205.80677795410156 297.02923583984375 226.5985565185547 284.76800537109375 210.09449768066406 C 272.8947448730469 218.62435913085938 280.78192138671875 224.5650177001953 280.3609619140625 197.50425720214844 C 280.1217041015625 164.9092559814453 279.8620300292969 163.46749877929688 283.5879211425781 163.7528533935547 C 292.2973327636719 166.1709442138672 290.4330139160156 172.3408203125 293.7467041015625 173.30369567871094" stroke-width="0.0" fill="rgb(33, 28, 48)" opacity="0.8686195" stroke="rgb(52, 113, 24)" stroke-opacity="0.62147295" stroke-linecap="round" stroke-linejoin="round"/>
    <path d="M 279.7460021972656 173.22938537597656 C 278.6747741699219 194.90916442871094 284.92333984375 185.8106689453125 263.1015319824219 188.46401977539062 C 264.8055114746094 264.0653381347656 260.9107971191406 307.5203857421875 263.1248474121094 170.61717224121094 C 275.0545654296875 170.436767578125 259.20648193359375 179.4096221923828 276.9872741699219 178.16964721679688 C 273.3072814941406 153.24168395996094 280.34747314453125 146.35752868652344 279.7460021972656 173.22938537597656" stroke-width="0.0" fill="rgb(255, 247, 227)" opacity="0.9480488" stroke="rgb(208, 247, 99)" stroke-opacity="0.48059374" stroke-linecap="round" stroke-linejoin="round"/>
    <path d="M 325.5445251464844 407.528564453125 C 324.7195129394531 409.21759033203125 330.6033020019531 413.4227294921875 308.83673095703125 412.28436279296875 C 297.9273376464844 419.3199157714844 302.0890197753906 393.92718505859375 308.4807434082031 409.149658203125 C 308.8085632324219 388.1619567871094 306.2073669433594 383.7097473144531 316.33050537109375 379.45159912109375 C 327.5439453125 382.1676025390625 324.72283935546875 389.06121826171875 325.5445251464844 407.528564453125" stroke-width="0.0" fill="rgb(19, 15, 35)" opacity="0.83437103" stroke="rgb(252, 133, 131)" stroke-opacity="0.9886961" stroke-linecap="round" stroke-linejoin="round"/>
    <path d="M 456.33990478515625 347.2599792480469 C 456.1883239746094 370.58380126953125 458.26898193359375 364.14105224609375 451.02435302734375 365.6175842285156 C 452.09173583984375 365.86053466796875 451.396728515625 362.8303527832031 450.5676574707031 365.8725280761719 C 450.58673095703125 364.9516906738281 450.26153564453125 346.040771484375 450.9212646484375 348.44573974609375 C 458.1220397949219 344.8077392578125 455.75250244140625 354.3871154785156 456.33990478515625 347.2599792480469" stroke-width="0.0" fill="rgb(0, 3, 23)" opacity="0.8338436" stroke="rgb(90, 127, 82)" stroke-opacity="0.71349186" stroke-linecap="round" stroke-linejoin="round"/>
    <path d="M 99.16416931152344 249.41085815429688 C 5.976838111877441 210.2917022705078 52.89764404296875 244.5845947265625 9.38279914855957 256.8191223144531 C 6.229389667510986 259.6373291015625 2.9301395416259766 222.96966552734375 6.629016399383545 236.4532012939453 C 5.861476421356201 250.9801788330078 6.392180919647217 223.9363250732422 6.011568069458008 163.35293579101562 C 123.56682586669922 168.73617553710938 93.52921295166016 136.83547973632812 99.16416931152344 249.41085815429688" stroke-width="0.0" fill="rgb(231, 189, 164)" opacity="0.9095352" stroke="rgb(125, 101, 46)" stroke-opacity="0.20675234" stroke-linecap="round" stroke-linejoin="round"/>
    <path d="M 482.2709045410156 311.7240905761719 C 481.4875793457031 328.2991943359375 486.5392761230469 325.05133056640625 473.7020568847656 323.61639404296875 C 468.8269348144531 254.96214294433594 472.7832336425781 328.80712890625 458.9473876953125 351.9007263183594 C 460.1704406738281 286.95391845703125 458.1827087402344 297.9620361328125 460.7328186035156 297.2066650390625 C 507.8274230957031 294.8109436035156 509.8310546875 304.1728210449219 482.2709045410156 311.7240905761719" stroke-width="0.0" fill="rgb(255, 247, 227)" opacity="0.9455039" stroke="rgb(62, 105, 105)" stroke-opacity="0.19599734" stroke-linecap="round" stroke-linejoin="round"/>
    <path d="M 133.09390258789062 160.57374572753906 C 167.62579345703125 160.2677764892578 149.9607391357422 163.2999267578125 154.32850646972656 166.26026916503906 C 106.9911117553711 167.28187561035156 115.55659484863281 165.9394073486328 130.2106475830078 160.80699157714844 C 136.61813354492188 140.8986053466797 98.79466247558594 148.607421875 179.020751953125 146.07354736328125 C 123.6763687133789 159.89385986328125 134.4176788330078 140.74868774414062 133.09390258789062 160.57374572753906" stroke-width="0.0" fill="rgb(94, 165, 195)" opacity="0.869657" stroke="rgb(110, 34, 18)" stroke-opacity="0.98034614" stroke-linecap="round" stroke-linejoin="round"/>
    <path d="M 42.37697982788086 384.0425720214844 C 42.083587646484375 406.7438659667969 47.477439880371094 399.49993896484375 27.169994354248047 400.7639465332031 C 24.471960067749023 399.2808532714844 27.161121368408203 405.9945373535156 25.403484344482422 392.9819641113281 C -7.238559722900391 381.1549072265625 11.132704734802246 365.8474426269531 49.59571838378906 368.1364440917969 C 63.28518295288086 376.0736083984375 43.135860443115234 385.6046142578125 42.37697982788086 384.0425720214844" stroke-width="0.0" fill="rgb(236, 225, 206)" opacity="1.0" stroke="rgb(2, 181, 21)" stroke-opacity="0.24835739" stroke-linecap="round" stroke-linejoin="round"/>
    <path d="M 194.76107788085938 483.0871887207031 C 191.81704711914062 492.06524658203125 185.73031616210938 488.83831787109375 145.4644775390625 489.454345703125 C 126.27569580078125 486.6590881347656 133.10263061523438 493.0865173339844 125.76004791259766 480.46295166015625 C 133.1581268310547 480.2118225097656 172.97901916503906 481.7435607910156 129.01661682128906 479.7182312011719 C 182.30267333984375 481.92767333984375 194.74972534179688 478.5881652832031 194.76107788085938 483.0871887207031" stroke-width="0.0" fill="rgb(255, 248, 228)" opacity="0.88409024" stroke="rgb(132, 69, 179)" stroke-opacity="0.18659382" stroke-linecap="round" stroke-linejoin="round"/>
    <path d="M 207.23580932617188 275.6560363769531 C 211.4988250732422 306.8289794921875 209.7732696533203 307.99005126953125 208.61468505859375 306.625244140625 C 184.60572814941406 309.8324279785156 192.1002960205078 302.7118225097656 191.53659057617188 306.78619384765625 C 193.4811248779297 254.34152221679688 191.39117431640625 242.3388214111328 191.6772003173828 247.96408081054688 C 202.1417999267578 265.58294677734375 208.84201049804688 275.87591552734375 207.23580932617188 275.6560363769531" stroke-width="0.0" fill="rgb(18, 1, 23)" opacity="0.71937466" stroke="rgb(181, 240, 49)" stroke-opacity="0.85936004" stroke-linecap="round" stroke-linejoin="round"/>
    <path d="M 293.7669982910156 161.22186279296875 C 293.9250183105469 184.138916015625 294.31512451171875 185.0948486328125 281.424072265625 187.45452880859375 C 280.7861022949219 184.9016571044922 279.43145751953125 159.72891235351562 280.66375732421875 144.0104217529297 C 278.65277099609375 161.06155395507812 282.328369140625 128.8798828125 278.0966491699219 125.77023315429688 C 298.4456787109375 134.90017700195312 280.661865234375 169.0440673828125 293.7669982910156 161.22186279296875" stroke-width="0.0" fill="rgb(46, 46, 65)" opacity="0.9925536" stroke="rgb(231, 250, 22)" stroke-opacity="0.08989736" stroke-linecap="round" stroke-linejoin="round"/>
    <path d="M 403.78094482421875 323.39404296875 C 402.8892822265625 320.4820251464844 408.4433898925781 322.45367431640625 397.6517639160156 322.491455078125 C 397.3148498535156 325.6163330078125 397.981201171875 308.707275390625 397.5508117675781 304.86102294921875 C 395.1873474121094 314.3687438964844 397.73736572265625 304.748046875 400.6968078613281 304.3399963378906 C 405.71038818359375 306.31427001953125 401.9654235839844 309.7065734863281 403.78094482421875 323.39404296875" stroke-width="0.0" fill="rgb(32, 36, 59)" opacity="0.9704507" stroke="rgb(194, 82, 143)" stroke-opacity="0.94157815" stroke-linecap="round" stroke-linejoin="round"/>
    <path d="M 75.9013671875 257.9582214355469 C 52.39334487915039 287.6040954589844 43.693511962890625 283.0499267578125 5.0195183753967285 294.4195861816406 C 5.019587993621826 289.4642639160156 5.036705017089844 284.13037109375 4.994995594024658 272.5343017578125 C 5.692219257354736 219.36813354492188 1.8705532550811768 236.75045776367188 14.484502792358398 258.09783935546875 C 44.164920806884766 257.86614990234375 48.807315826416016 258.05316162109375 75.9013671875 257.9582214355469" stroke-width="0.0" fill="rgb(225, 162, 140)" opacity="0.3182276" stroke="rgb(126, 197, 211)" stroke-opacity="0.38466337" stroke-linecap="round" stroke-linejoin="round"/>
    <path d="M 372.7041015625 390.62347412109375 C 372.06036376953125 417.1208801269531 377.44671630859375 411.689697265625 364.0550537109375 412.2505187988281 C 353.57354736328125 409.4399719238281 358.6011657714844 416.61639404296875 355.8553466796875 409.6603088378906 C 356.0493469238281 390.5899658203125 353.97698974609375 383.56732177734375 363.7410888671875 379.8644714355469 C 370.2862854003906 379.7288513183594 372.94818115234375 384.7034912109375 372.7041015625 390.62347412109375" stroke-width="0.0" fill="rgb(20, 19, 41)" opacity="0.8573211" stroke="rgb(132, 139, 32)" stroke-opacity="0.9898701" stroke-linecap="round" stroke-linejoin="round"/>
    <path d="M 501.4458923339844 276.9493103027344 C 502.54608154296875 313.9200439453125 498.1721496582031 305.592041015625 494.3922119140625 312.44915771484375 C 451.4166259765625 306.202392578125 460.8457336425781 326.857177734375 459.20263671875 295.4202575683594 C 457.6975402832031 295.78179931640625 461.0804138183594 295.1952819824219 491.0486755371094 295.68994140625 C 505.6242370605469 294.9324951171875 498.0970458984375 304.7836608886719 501.4458923339844 276.9493103027344" stroke-width="0.0" fill="rgb(252, 246, 229)" opacity="0.89255315" stroke="rgb(182, 144, 14)" stroke-opacity="0.92638564" stroke-linecap="round" stroke-linejoin="round"/>
    <path d="M 280.5031433105469 276.1593933105469 C 300.466796875 305.5682373046875 279.876708984375 288.635009765625 271.7428894042969 294.65142822265625 C 269.6253967285156 283.9550476074219 277.1587829589844 270.3940124511719 264.4107666015625 270.61248779296875 C 260.4783630371094 265.1289367675781 261.53802490234375 264.7801208496094 281.179931640625 271.7261962890625 C 282.7439270019531 261.6369934082031 289.979736328125 275.1492004394531 280.5031433105469 276.1593933105469" stroke-width="0.0" fill="rgb(31, 49, 69)" opacity="0.70313305" stroke="rgb(109, 121, 134)" stroke-opacity="0.13712972" stroke-linecap="round" stroke-linejoin="round"/>
    <path d="M 117.76923370361328 304.4603271484375 C 119.79145812988281 302.9784240722656 117.3857421875 303.5681457519531 93.89398193359375 303.40167236328125 C 86.1246337890625 302.9939880371094 91.51993560791016 306.77392578125 88.140869140625 283.4422302246094 C 85.6110610961914 271.6572265625 81.97191619873047 274.6544189453125 95.92123413085938 277.6694641113281 C 104.37999725341797 279.63739013671875 116.0953140258789 290.0945129394531 117.76923370361328 304.4603271484375" stroke-width="0.0" fill="rgb(40, 37, 58)" opacity="0.9562158" stroke="rgb(123, 52, 58)" stroke-opacity="0.003012337" stroke-linecap="round" stroke-linejoin="round"/>
    <path d="M 127.43226623535156 85.47550964355469 C 126.96530151367188 115.4251480102539 126.76045989990234 94.94095611572266 126.50900268554688 89.60852813720703 C 107.45814514160156 89.00415802001953 112.28939819335938 92.02454376220703 111.23959350585938 83.51141357421875 C 114.61009979248047 74.62367248535156 111.71913146972656 68.74882507324219 123.0760498046875 64.18262481689453 C 128.02249145507812 62.559959411621094 127.39408874511719 61.49925994873047 127.43226623535156 85.47550964355469" stroke-width="0.0" fill="rgb(255, 249, 228)" opacity="0.9351869" stroke="rgb(206, 156, 103)" stroke-opacity="0.96850485" stroke-linecap="round" stroke-linejoin="round"/>
    <path d="M 438.48974609375 365.728515625 C 437.8822937011719 364.763671875 442.01763916015625 365.5574645996094 432.9242248535156 365.41058349609375 C 432.3085021972656 370.06219482421875 432.6409606933594 335.6953430175781 433.5087890625 353.0043640136719 C 435.58416748046875 352.7413024902344 428.3462829589844 347.0063781738281 438.6109924316406 348.7182312011719 C 438.41253662109375 344.88665771484375 438.54608154296875 362.1974182128906 438.48974609375 365.728515625" stroke-width="0.0" fill="rgb(0, 2, 31)" opacity="0.84173214" stroke="rgb(162, 152, 89)" stroke-opacity="0.21539699" stroke-linecap="round" stroke-linejoin="round"/>
    <path d="M 281.15948486328125 268.1737365722656 C 280.1771545410156 272.419677734375 301.0310974121094 314.4595642089844 265.7685852050781 281.8302307128906 C 247.43115234375 287.5020446777344 271.1408386230469 240.30995178222656 264.010498046875 163.18197631835938 C 188.9210968017578 172.2611541748047 156.7053985595703 110.51192474365234 153.42733764648438 251.87472534179688 C 269.92877197265625 254.55990600585938 266.5820007324219 244.99246215820312 281.15948486328125 268.1737365722656" stroke-width="0.0" fill="rgb(228, 195, 173)" opacity="1.0" stroke="rgb(78, 153, 111)" stroke-opacity="0.46703455" stroke-linecap="round" stroke-linejoin="round"/>
    <path d="M 387.77496337890625 303.9273681640625 C 386.812744140625 328.9974060058594 390.0397644042969 321.06610107421875 382.61004638671875 322.916748046875 C 382.0966491699219 324.6828918457031 382.3970642089844 306.1610107421875 382.4269714355469 304.66107177734375 C 382.5041809082031 311.2794189453125 381.1831359863281 307.1133117675781 383.8275146484375 305.0699462890625 C 388.8843688964844 303.9654541015625 387.5572204589844 311.5450134277344 387.77496337890625 303.9273681640625" stroke-width="0.0" fill="rgb(36, 39, 61)" opacity="1.0" stroke="rgb(94, 50, 32)" stroke-opacity="0.095245644" stroke-linecap="round" stroke-linejoin="round"/>
    <path d="M 97.48320770263672 277.7119140625 C 95.43536376953125 277.8130798339844 68.4344711303711 266.71893310546875 53.343292236328125 300.63836669921875 C 30.391681671142578 292.30865478515625 29.70548439025879 287.28277587890625 28.556367874145508 274.1707763671875 C 25.578725814819336 250.8349151611328 31.1320743560791 261.88818359375 77.61746215820312 257.7466735839844 C 14.544139862060547 221.80514526367188 112.3360366821289 185.14353942871094 97.48320770263672 277.7119140625" stroke-width="0.0" fill="rgb(230, 182, 157)" opacity="0.84489334" stroke="rgb(252, 111, 248)" stroke-opacity="0.9567855" stroke-linecap="round" stroke-linejoin="round"/>
    <path d="M 125.96257781982422 132.6593475341797 C 129.96678161621094 178.04977416992188 124.91243743896484 169.3919677734375 127.76947021484375 166.65106201171875 C 94.21138763427734 165.8990478515625 96.91513061523438 167.82521057128906 98.6036605834961 163.1865692138672 C 106.92472839355469 157.306884765625 120.77655792236328 168.97259521484375 116.90977478027344 154.62867736816406 C 128.3027801513672 174.7808380126953 120.20746612548828 150.98013305664062 125.96257781982422 132.6593475341797" stroke-width="0.0" fill="rgb(255, 255, 245)" opacity="0.94361347" stroke="rgb(8, 4, 17)" stroke-opacity="0.16757208" stroke-linecap="round" stroke-linejoin="round"/>
    <path d="M 278.62615966796875 140.3090057373047 C 283.3106384277344 176.95465087890625 273.5265808105469 171.52008056640625 264.7893371582031 171.02476501464844 C 264.8547058105469 158.01446533203125 259.4707336425781 164.14881896972656 270.64349365234375 162.03492736816406 C 266.9102478027344 164.7938995361328 270.7590026855469 124.98909759521484 278.6672668457031 151.7938232421875 C 266.38677978515625 145.58395385742188 277.85028076171875 175.77281188964844 278.62615966796875 140.3090057373047" stroke-width="0.0" fill="rgb(255, 244, 223)" opacity="0.9087616" stroke="rgb(4, 43, 67)" stroke-opacity="0.7139401" stroke-linecap="round" stroke-linejoin="round"/>
    <path d="M 87.22453308105469 374.1139831542969 C 87.28924560546875 408.1752014160156 90.27243041992188 399.30072021484375 76.75044250488281 400.9522399902344 C 79.01564025878906 405.16400146484375 78.3820571899414 381.38690185546875 78.52793884277344 382.5968322753906 C 77.70616912841797 377.0290222167969 77.42904663085938 383.2978210449219 86.92866516113281 368.4194030761719 C 89.87256622314453 363.4521179199219 85.2507553100586 367.96917724609375 87.22453308105469 374.1139831542969" stroke-width="0.0" fill="rgb(255, 248, 230)" opacity="0.9620382" stroke="rgb(225, 131, 172)" stroke-opacity="0.20707238" stroke-linecap="round" stroke-linejoin="round"/>
    <path d="M 314.43804931640625 232.59962463378906 C 314.22247314453125 242.2874298095703 314.9037780761719 259.5712890625 314.2953796386719 255.9290008544922 C 303.827392578125 253.97268676757812 307.978271484375 262.6853942871094 307.25018310546875 236.0115966796875 C 307.1088562011719 232.9453582763672 309.07037353515625 231.0638427734375 311.5177001953125 231.65261840820312 C 315.853759765625 233.1322021484375 314.3396911621094 243.11085510253906 314.43804931640625 232.59962463378906" stroke-width="0.0" fill="rgb(38, 42, 62)" opacity="0.9999564" stroke="rgb(215, 63, 134)" stroke-opacity="0.5109356" stroke-linecap="round" stroke-linejoin="round"/>
    <path d="M 127.61312866210938 99.27519226074219 C 126.6706314086914 137.2958526611328 130.28309631347656 127.0882339477539 118.30162811279297 128.2642822265625 C 98.83859252929688 126.23201751708984 97.24615478515625 120.6809310913086 115.09248352050781 122.75697326660156 C 106.39254760742188 109.6692123413086 120.72575378417969 120.02947998046875 118.04171752929688 110.5589370727539 C 132.4606475830078 125.84806823730469 115.47349548339844 90.05084991455078 127.61312866210938 99.27519226074219" stroke-width="0.0" fill="rgb(255, 251, 234)" opacity="0.9131527" stroke="rgb(62, 162, 232)" stroke-opacity="0.59128255" stroke-linecap="round" stroke-linejoin="round"/>
    <path d="M 55.75197982788086 297.73944091796875 C 55.2418098449707 314.8672180175781 35.00886917114258 283.66754150390625 34.84224319458008 308.5156555175781 C 12.204588890075684 308.5341491699219 7.833592414855957 308.73358154296875 6.8410468101501465 308.5472717285156 C 3.6707818508148193 265.8819274902344 19.48875617980957 280.7004699707031 58.77733612060547 275.2109069824219 C 77.10631561279297 272.33929443359375 69.88671875 268.5368347167969 55.75197982788086 297.73944091796875" stroke-width="0.0" fill="rgb(230, 185, 161)" opacity="0.8247171" stroke="rgb(183, 197, 47)" stroke-opacity="0.4402247" stroke-linecap="round" stroke-linejoin="round"/>
    <path d="M 321.5361633300781 455.0608825683594 C 340.87841796875 472.6270751953125 351.9581298828125 470.8638916015625 314.7674560546875 471.7621154785156 C 253.7204132080078 471.29510498046875 245.3230438232422 475.7430725097656 273.5856628417969 451.2532653808594 C 276.1950378417969 422.38409423828125 254.52120971679688 433.9367370605469 312.0062561035156 430.8872375488281 C 321.3433837890625 433.63055419921875 313.1584167480469 425.768310546875 321.5361633300781 455.0608825683594" stroke-width="0.0" fill="rgb(127, 169, 178)" opacity="0.7834937" stroke="rgb(152, 90, 112)" stroke-opacity="0.17353047" stroke-linecap="round" stroke-linejoin="round"/>
    <path d="M 404.6259460449219 439.4573059082031 C 404.80499267578125 468.2743835449219 419.2547912597656 473.6847229003906 385.4625244140625 469.9776916503906 C 369.87542724609375 471.808349609375 369.255859375 473.0255432128906 356.96826171875 447.2737731933594 C 359.1753845214844 437.18841552734375 370.18963623046875 440.0729064941406 405.32025146484375 439.4969787597656 C 407.8266906738281 438.04241943359375 417.99664306640625 434.61358642578125 404.6259460449219 439.4573059082031" stroke-width="0.0" fill="rgb(212, 241, 227)" opacity="0.537487" stroke="rgb(59, 99, 20)" stroke-opacity="0.2583052" stroke-linecap="round" stroke-linejoin="round"/>
    <path d="M 476.9831848144531 477.6835021972656 C 477.98895263671875 497.10546875 471.51495361328125 500.2760925292969 432.8135070800781 499.6835632324219 C 436.0010986328125 498.9549865722656 433.00164794921875 500.0783386230469 362.27276611328125 489.8822021484375 C 380.30126953125 457.07049560546875 391.57977294921875 477.5702819824219 405.9510192871094 471.03973388671875 C 459.3185119628906 469.99407958984375 472.1889953613281 470.7888488769531 476.9831848144531 477.6835021972656" stroke-width="0.0" fill="rgb(77, 120, 144)" opacity="1.0" stroke="rgb(131, 68, 83)" stroke-opacity="0.8093624" stroke-linecap="round" stroke-linejoin="round"/>
    <path d="M 295.522705078125 388.8776550292969 C 295.1159973144531 420.7785949707031 298.75701904296875 410.21466064453125 288.5509033203125 412.4609069824219 C 288.35174560546875 410.221923828125 288.68463134765625 399.6824035644531 288.4581604003906 388.9387512207031 C 290.1180114746094 409.37701416015625 288.97149658203125 396.4346008300781 288.4950866699219 388.78826904296875 C 298.510009765625 388.90435791015625 295.00762939453125 388.53204345703125 295.522705078125 388.8776550292969" stroke-width="0.0" fill="rgb(13, 14, 35)" opacity="0.86398745" stroke="rgb(50, 40, 213)" stroke-opacity="0.36511344" stroke-linecap="round" stroke-linejoin="round"/>
    <path d="M 306.4515380859375 433.361572265625 C 318.74029541015625 447.82244873046875 307.9808349609375 451.163330078125 271.1904602050781 452.4733581542969 C 261.70660400390625 441.28436279296875 256.86370849609375 448.3801574707031 266.3787841796875 431.4644470214844 C 284.9153747558594 432.86187744140625 293.0567626953125 429.8651123046875 279.3173828125 432.8388671875 C 280.63323974609375 441.7347412109375 285.6011962890625 436.83587646484375 306.4515380859375 433.361572265625" stroke-width="0.0" fill="rgb(224, 234, 212)" opacity="0.49722725" stroke="rgb(36, 212, 126)" stroke-opacity="0.7063396" stroke-linecap="round" stroke-linejoin="round"/>
    <path d="M 118.80973815917969 205.14808654785156 C 119.52002716064453 206.03195190429688 121.64065551757812 210.84317016601562 116.22405242919922 207.54824829101562 C 105.57996368408203 204.80941772460938 100.22533416748047 216.02256774902344 115.5125732421875 238.11634826660156 C 99.05912780761719 189.21588134765625 100.223876953125 190.69163513183594 108.41724395751953 187.83953857421875 C 125.58319854736328 190.9388885498047 132.6796417236328 187.6810302734375 118.80973815917969 205.14808654785156" stroke-width="0.0" fill="rgb(254, 246, 227)" opacity="0.9965298" stroke="rgb(225, 203, 197)" stroke-opacity="0.8739387" stroke-linecap="round" stroke-linejoin="round"/>
    <path d="M 503.5380554199219 403.3203430175781 C 501.0091247558594 365.8496398925781 502.76611328125 398.248779296875 502.2601013183594 410.72845458984375 C 493.3472595214844 417.834716796875 502.3382873535156 389.5190734863281 498.03302001953125 404.94671630859375 C 496.9326171875 384.2730712890625 498.5222473144531 362.567138671875 497.287353515625 331.69903564453125 C 507.0889892578125 323.7370300292969 499.4905700683594 348.6243591308594 503.5380554199219 403.3203430175781" stroke-width="0.0" fill="rgb(16, 0, 17)" opacity="0.76656383" stroke="rgb(236, 20, 218)" stroke-opacity="0.9007266" stroke-linecap="round" stroke-linejoin="round"/>
    <path d="M 161.2534637451172 266.7961120605469 C 152.77728271484375 265.12030029296875 156.7003936767578 265.4120788574219 155.48135375976562 290.7799377441406 C 147.689208984375 293.7657775878906 150.8046112060547 285.3670959472656 149.86402893066406 265.5892333984375 C 130.0215301513672 271.4781188964844 109.35081481933594 251.24476623535156 168.71987915039062 254.0629425048828 C 173.0824432373047 315.5848083496094 159.91197204589844 317.6847229003906 161.2534637451172 266.7961120605469" stroke-width="0.0" fill="rgb(255, 249, 231)" opacity="0.9364723" stroke="rgb(237, 43, 199)" stroke-opacity="0.3181628" stroke-linecap="round" stroke-linejoin="round"/>
    <path d="M 125.49207305908203 383.36676025390625 C 125.5849380493164 405.1536560058594 125.06584167480469 407.5357666015625 121.71053314208984 404.60205078125 C 115.10174560546875 404.66229248046875 116.7853775024414 402.7925720214844 116.2896728515625 382.7000732421875 C 118.08381652832031 382.8455505371094 111.7347412109375 382.2220153808594 125.27770233154297 382.6016540527344 C 124.6905746459961 381.8309631347656 125.05406188964844 382.3316650390625 125.49207305908203 383.36676025390625" stroke-width="0.0" fill="rgb(36, 36, 56)" opacity="1.0" stroke="rgb(114, 170, 223)" stroke-opacity="0.73651415" stroke-linecap="round" stroke-linejoin="round"/>
    <path d="M 444.4498596191406 412.3948669433594 C 382.2939453125 442.1949462890625 393.05548095703125 369.4127197265625 390.27716064453125 418.9897155761719 C 378.096923828125 418.39349365234375 377.9632263183594 421.3985290527344 373.69854736328125 416.58367919921875 C 391.2826843261719 409.2383728027344 376.7906799316406 398.185302734375 384.214599609375 390.17669677734375 C 383.5465087890625 404.83563232421875 390.0811767578125 412.489990234375 444.4498596191406 412.3948669433594" stroke-width="0.0" fill="rgb(243, 157, 135)" opacity="0.55483896" stroke="rgb(159, 4, 32)" stroke-opacity="0.6761556" stroke-linecap="round" stroke-linejoin="round"/>
    <path d="M 386.33111572265625 146.3810577392578 C 398.1716003417969 158.00106811523438 400.3658447265625 202.71620178222656 374.9173889160156 176.55357360839844 C 374.1417236328125 126.41708374023438 355.551025390625 137.9137420654297 357.6033630371094 123.0398941040039 C 367.7382507324219 101.15535736083984 344.8789367675781 131.6627960205078 359.1536560058594 129.57748413085938 C 370.5101623535156 131.24551391601562 379.41314697265625 136.98793029785156 386.33111572265625 146.3810577392578" stroke-width="0.0" fill="rgb(39, 41, 61)" opacity="0.99336326" stroke="rgb(67, 187, 103)" stroke-opacity="0.71524495" stroke-linecap="round" stroke-linejoin="round"/>
    <path d="M 420.1907958984375 322.4040222167969 C 420.5401306152344 316.59796142578125 419.64410400390625 325.5008544921875 420.04473876953125 322.3384094238281 C 410.2268981933594 323.4425964355469 411.2799072265625 318.7304382324219 412.3945617675781 332.32421875 C 415.4501647949219 314.6400451660156 410.63104248046875 300.5121154785156 414.2444763183594 302.9453430175781 C 422.46136474609375 304.2830810546875 417.2672424316406 313.5992736816406 420.1907958984375 322.4040222167969" stroke-width="0.0" fill="rgb(39, 42, 63)" opacity="0.9801925" stroke="rgb(199, 247, 97)" stroke-opacity="0.32030496" stroke-linecap="round" stroke-linejoin="round"/>
    <path d="M 348.7759704589844 387.9319152832031 C 347.362060546875 419.65875244140625 356.4047546386719 409.4490966796875 333.38824462890625 411.49456787109375 C 332.2780456542969 412.20806884765625 332.5271301269531 411.186767578125 332.2414855957031 396.4098815917969 C 331.8077087402344 387.1394958496094 332.0464172363281 382.9851379394531 340.1994934082031 379.5962829589844 C 344.4789123535156 379.9814453125 347.67864990234375 382.4664001464844 348.7759704589844 387.9319152832031" stroke-width="0.0" fill="rgb(40, 42, 60)" opacity="0.9746611" stroke="rgb(0, 75, 4)" stroke-opacity="0.5013462" stroke-linecap="round" stroke-linejoin="round"/>
    <path d="M 387.6973571777344 452.8247985839844 C 382.40765380859375 473.82586669921875 379.6114501953125 471.8738708496094 338.9785461425781 471.1546936035156 C 365.95062255859375 444.6554260253906 333.95526123046875 464.75146484375 308.1582946777344 440.4672546386719 C 318.9974365234375 439.7544860839844 340.4867858886719 440.7156066894531 375.45416259765625 439.96343994140625 C 382.7047119140625 440.35760498046875 388.6777648925781 437.2345275878906 387.6973571777344 452.8247985839844" stroke-width="0.0" fill="rgb(144, 182, 188)" opacity="0.69608825" stroke="rgb(180, 199, 12)" stroke-opacity="0.0822967" stroke-linecap="round" stroke-linejoin="round"/>
    <path d="M 123.53028106689453 138.72586059570312 C 107.6500473022461 139.9527587890625 117.24866485595703 164.8300018310547 111.59730529785156 166.59156799316406 C 108.50569915771484 145.67430114746094 117.11988067626953 144.92144775390625 100.47815704345703 152.51719665527344 C 112.6826400756836 146.8133087158203 96.09447479248047 139.505615234375 117.4376220703125 139.709716796875 C 109.19011688232422 157.1581573486328 127.65343475341797 155.2088165283203 123.53028106689453 138.72586059570312" stroke-width="0.0" fill="rgb(254, 255, 245)" opacity="0.9893421" stroke="rgb(234, 248, 133)" stroke-opacity="0.3737555" stroke-linecap="round" stroke-linejoin="round"/>
    <path d="M 365.796875 203.70852661132812 C 365.0375671386719 201.74905395507812 369.2988586425781 203.92759704589844 359.94232177734375 203.25070190429688 C 359.5484924316406 207.67642211914062 359.4029235839844 192.73243713378906 360.1180725097656 188.8948516845703 C 359.1222229003906 193.4584503173828 359.5794677734375 186.55519104003906 363.2992858886719 186.8356475830078 C 366.3946838378906 189.1947021484375 365.91864013671875 186.00152587890625 365.796875 203.70852661132812" stroke-width="0.0" fill="rgb(26, 28, 43)" opacity="0.9541897" stroke="rgb(77, 36, 188)" stroke-opacity="0.7997316" stroke-linecap="round" stroke-linejoin="round"/>
    <path d="M 397.6022644042969 323.4158935546875 C 413.25933837890625 321.7117614746094 416.49725341796875 328.62652587890625 378.8429260253906 326.1073303222656 C 380.5440368652344 326.488037109375 390.2022705078125 334.36138916015625 388.17303466796875 307.0837707519531 C 387.0315246582031 300.1486511230469 361.9822998046875 304.9539794921875 402.669677734375 298.1278381347656 C 400.01324462890625 311.8426818847656 395.43865966796875 295.3454284667969 397.6022644042969 323.4158935546875" stroke-width="0.0" fill="rgb(255, 247, 229)" opacity="0.94673437" stroke="rgb(194, 40, 192)" stroke-opacity="0.24574505" stroke-linecap="round" stroke-linejoin="round"/>
    <path d="M 280.7957458496094 387.824462890625 C 279.5157470703125 395.90576171875 280.9481201171875 422.3275146484375 280.2694091796875 412.3418884277344 C 269.3010559082031 412.9375915527344 273.98419189453125 410.4659729003906 272.7563781738281 417.42669677734375 C 275.1833190917969 385.59600830078125 268.04498291015625 389.061767578125 280.0836486816406 388.7536926269531 C 280.34991455078125 395.1671447753906 280.0653076171875 410.6380920410156 280.7957458496094 387.824462890625" stroke-width="0.0" fill="rgb(2, 4, 33)" opacity="0.8161355" stroke="rgb(226, 106, 98)" stroke-opacity="0.61517006" stroke-linecap="round" stroke-linejoin="round"/>
    <path d="M 402.28851318359375 392.4739685058594 C 404.49200439453125 421.8207702636719 394.938720703125 431.02032470703125 394.1712951660156 402.0972595214844 C 395.3937072753906 407.3801574707031 346.85662841796875 430.99053955078125 382.0393371582031 409.6878356933594 C 380.40057373046875 383.80078125 385.95257568359375 394.337890625 395.8690490722656 391.0241394042969 C 391.67303466796875 387.5382995605469 395.0444030761719 395.015869140625 402.28851318359375 392.4739685058594" stroke-width="0.0" fill="rgb(220, 187, 178)" opacity="0.61041343" stroke="rgb(175, 249, 74)" stroke-opacity="0.73106384" stroke-linecap="round" stroke-linejoin="round"/>
    <path d="M 77.45298767089844 400.9237365722656 C 64.89283752441406 398.99114990234375 71.67042541503906 403.1560974121094 74.74064636230469 404.5885314941406 C 66.25186920166016 401.7159118652344 70.45614624023438 395.60076904296875 69.43495178222656 383.16827392578125 C 71.76348114013672 382.043701171875 65.01043701171875 383.1562805175781 78.69689178466797 382.21051025390625 C 78.07215118408203 381.6370849609375 79.39193725585938 377.4499206542969 77.45298767089844 400.9237365722656" stroke-width="0.0" fill="rgb(33, 28, 41)" opacity="0.99735916" stroke="rgb(122, 235, 233)" stroke-opacity="0.66001225" stroke-linecap="round" stroke-linejoin="round"/>
    <path d="M 501.7514953613281 453.7256164550781 C 506.2965087890625 521.8291625976562 463.3908996582031 468.9374694824219 422.88726806640625 472.8714294433594 C 389.80035400390625 471.6634826660156 385.3840026855469 471.99810791015625 359.9783630371094 471.7419738769531 C 372.0335693359375 445.3937683105469 381.1627502441406 448.9627990722656 393.67669677734375 453.9931945800781 C 420.43560791015625 451.2470703125 431.85198974609375 450.4157409667969 501.7514953613281 453.7256164550781" stroke-width="0.0" fill="rgb(109, 152, 165)" opacity="0.666649" stroke="rgb(97, 138, 128)" stroke-opacity="0.40118405" stroke-linecap="round" stroke-linejoin="round"/>
    <path d="M 398.3746032714844 399.3504638671875 C 400.04864501953125 423.60076904296875 389.7109069824219 391.4652099609375 390.57330322265625 412.69866943359375 C 379.8763122558594 412.3951110839844 381.4282531738281 415.36846923828125 381.3692626953125 392.5166015625 C 382.8548278808594 380.8543395996094 387.8238830566406 380.629638671875 388.3935546875 380.3184509277344 C 391.00537109375 380.0006103515625 399.8904113769531 380.926025390625 398.3746032714844 399.3504638671875" stroke-width="0.0" fill="rgb(138, 203, 219)" opacity="0.81811804" stroke="rgb(234, 97, 193)" stroke-opacity="0.101324365" stroke-linecap="round" stroke-linejoin="round"/>
    <path d="M 432.26324462890625 293.872314453125 C 430.73162841796875 285.9796142578125 432.5727233886719 292.10760498046875 431.5494689941406 289.5053405761719 C 417.5440368652344 289.189208984375 417.79803466796875 289.9063720703125 425.73492431640625 294.5019226074219 C 428.7406005859375 273.06982421875 422.552001953125 275.9551086425781 431.8324279785156 275.735595703125 C 431.9540100097656 272.0317687988281 431.7130432128906 290.2693176269531 432.26324462890625 293.872314453125" stroke-width="0.0" fill="rgb(32, 38, 57)" opacity="1.0" stroke="rgb(79, 204, 5)" stroke-opacity="0.51121205" stroke-linecap="round" stroke-linejoin="round"/>
    <path d="M 55.02044677734375 371.9978332519531 C 51.28689193725586 375.99261474609375 47.9066047668457 378.792236328125 45.72950744628906 382.5093994140625 C 37.5412483215332 381.5444641113281 28.771352767944336 385.6774597167969 38.33899688720703 377.2456359863281 C 45.29847717285156 370.2676696777344 41.772361755371094 370.39251708984375 44.01606750488281 370.4855651855469 C 57.270362854003906 370.5843200683594 56.58664321899414 372.0085754394531 55.02044677734375 371.9978332519531" stroke-width="0.0" fill="rgb(72, 144, 166)" opacity="0.9687839" stroke="rgb(17, 77, 228)" stroke-opacity="0.88194805" stroke-linecap="round" stroke-linejoin="round"/>
    <path d="M 58.809635162353516 395.4038391113281 C 78.5545883178711 375.142822265625 62.71781921386719 404.39056396484375 75.16960906982422 400.81048583984375 C 36.08964157104492 399.01513671875 39.46145248413086 405.576416015625 49.450984954833984 397.5682678222656 C 52.841461181640625 380.1127624511719 45.064598083496094 382.1741027832031 55.913002014160156 382.0053405761719 C 61.00071334838867 381.5432434082031 57.75167465209961 381.23187255859375 58.809635162353516 395.4038391113281" stroke-width="0.0" fill="rgb(255, 228, 200)" opacity="0.97232264" stroke="rgb(201, 49, 107)" stroke-opacity="0.18672869" stroke-linecap="round" stroke-linejoin="round"/>
    <path d="M 349.253662109375 387.9898376464844 C 349.1331787109375 400.1314392089844 349.56427001953125 422.3473205566406 350.3518371582031 412.4314270019531 C 331.1173095703125 411.88604736328125 328.2806396484375 413.5015869140625 335.4100341796875 410.1131286621094 C 337.6623229980469 394.681884765625 335.4240417480469 389.83831787109375 342.32464599609375 381.24945068359375 C 347.7205505371094 397.8594970703125 344.212890625 410.5122985839844 349.253662109375 387.9898376464844" stroke-width="0.0" fill="rgb(46, 39, 58)" opacity="0.54651415" stroke="rgb(5, 111, 121)" stroke-opacity="0.27348763" stroke-linecap="round" stroke-linejoin="round"/>
    <path d="M 367.25201416015625 442.03717041015625 C 344.3673400878906 465.02081298828125 337.33160400390625 474.8387451171875 338.9575500488281 468.85430908203125 C 317.5566711425781 450.4523010253906 303.0810546875 459.6498107910156 297.9993591308594 433.5829772949219 C 327.12109375 426.6416320800781 305.83538818359375 442.7165832519531 332.25555419921875 441.5481872558594 C 320.0161437988281 439.9259033203125 357.2307434082031 440.2458190917969 367.25201416015625 442.03717041015625" stroke-width="0.0" fill="rgb(155, 191, 191)" opacity="0.72424954" stroke="rgb(86, 53, 0)" stroke-opacity="0.49134904" stroke-linecap="round" stroke-linejoin="round"/>
    <path d="M 327.7505798339844 203.79493713378906 C 324.6210632324219 195.85540771484375 330.6189880371094 205.32186889648438 322.33197021484375 202.92599487304688 C 320.3834228515625 204.91909790039062 322.3508605957031 197.34683227539062 321.249755859375 186.403076171875 C 321.7509460449219 196.531005859375 319.53680419921875 188.49400329589844 323.80157470703125 186.49195861816406 C 329.1805114746094 187.3668670654297 325.62066650390625 189.39788818359375 327.7505798339844 203.79493713378906" stroke-width="0.0" fill="rgb(46, 48, 62)" opacity="1.0" stroke="rgb(202, 186, 173)" stroke-opacity="0.8536686" stroke-linecap="round" stroke-linejoin="round"/>
    <path d="M 280.35784912109375 191.1962890625 C 279.0448303222656 200.09751892089844 280.0671691894531 226.9639434814453 278.1776123046875 210.65304565429688 C 270.65087890625 213.4134979248047 280.6394958496094 189.09481811523438 269.8121032714844 196.97369384765625 C 271.8320617675781 209.52053833007812 255.53317260742188 189.07308959960938 274.5573425292969 191.12925720214844 C 281.7093200683594 190.65933227539062 278.96173095703125 192.25811767578125 280.35784912109375 191.1962890625" stroke-width="0.0" fill="rgb(255, 251, 230)" opacity="0.91133624" stroke="rgb(15, 55, 251)" stroke-opacity="0.5666607" stroke-linecap="round" stroke-linejoin="round"/>
    <path d="M 50.614341735839844 379.11474609375 C 50.45684814453125 407.3083190917969 51.94878387451172 411.765869140625 44.19725799560547 413.1670227050781 C 42.61198043823242 399.4893493652344 42.571434020996094 388.6782531738281 43.44343566894531 402.72003173828125 C 42.86333465576172 393.53485107421875 42.2812385559082 379.7442626953125 42.587711334228516 379.53662109375 C 40.311622619628906 382.0932312011719 50.49842834472656 384.46868896484375 50.614341735839844 379.11474609375" stroke-width="0.0" fill="rgb(38, 37, 55)" opacity="0.95794713" stroke="rgb(110, 200, 168)" stroke-opacity="0.7806994" stroke-linecap="round" stroke-linejoin="round"/>
    <path d="M 409.70654296875 281.5073547363281 C 407.3433532714844 292.52838134765625 422.6935119628906 303.1615295410156 404.59344482421875 341.8197021484375 C 403.696044921875 288.3229064941406 400.5784606933594 287.2539978027344 401.3887939453125 294.25042724609375 C 401.4719543457031 290.7120056152344 401.230712890625 292.57647705078125 401.52130126953125 264.5938720703125 C 399.8027038574219 261.4407958984375 410.746826171875 266.0047912597656 409.70654296875 281.5073547363281" stroke-width="0.0" fill="rgb(252, 244, 227)" opacity="0.9885355" stroke="rgb(206, 217, 9)" stroke-opacity="0.7363349" stroke-linecap="round" stroke-linejoin="round"/>
    <path d="M 291.6761474609375 240.67459106445312 C 289.37371826171875 260.7831115722656 293.03253173828125 253.6066131591797 279.474365234375 254.5002899169922 C 279.37237548828125 256.0697326660156 278.6347961425781 247.9707489013672 280.894287109375 246.51931762695312 C 276.2251892089844 235.64437866210938 281.5204772949219 228.91421508789062 285.6349182128906 232.4058074951172 C 290.3217468261719 235.44610595703125 285.1709899902344 243.8006134033203 291.6761474609375 240.67459106445312" stroke-width="0.0" fill="rgb(33, 107, 139)" opacity="0.7798768" stroke="rgb(214, 239, 26)" stroke-opacity="0.30658647" stroke-linecap="round" stroke-linejoin="round"/>
    <path d="M 113.26646423339844 358.817626953125 C 110.00550079345703 359.0714111328125 118.79132080078125 360.90875244140625 106.87079620361328 360.3945007324219 C 106.84964752197266 364.00836181640625 106.74493408203125 351.8943176269531 106.98795318603516 347.034423828125 C 107.72245788574219 363.9761657714844 106.7723388671875 344.6227722167969 107.30791473388672 346.64959716796875 C 114.55183410644531 344.0115661621094 113.14530181884766 347.2682800292969 113.26646423339844 358.817626953125" stroke-width="0.0" fill="rgb(32, 31, 48)" opacity="0.98322266" stroke="rgb(63, 218, 5)" stroke-opacity="0.26931706" stroke-linecap="round" stroke-linejoin="round"/>
    <path d="M 293.89263916015625 457.12677001953125 C 291.26708984375 466.03515625 238.69943237304688 459.8343200683594 222.07435607910156 463.8298034667969 C 237.00291442871094 461.25189208984375 232.25564575195312 463.0622863769531 220.7109375 462.2440490722656 C 218.43482971191406 456.0273132324219 225.2198028564453 459.80255126953125 257.77288818359375 458.3985900878906 C 226.8896942138672 462.2876892089844 245.0974884033203 458.0129699707031 293.89263916015625 457.12677001953125" stroke-width="0.0" fill="rgb(243, 238, 227)" opacity="0.91814655" stroke="rgb(61, 204, 17)" stroke-opacity="0.6795859" stroke-linecap="round" stroke-linejoin="round"/>
    <path d="M 63.98714065551758 324.9424743652344 C 62.44788360595703 327.9903564453125 64.14485931396484 332.3897705078125 62.4800910949707 330.59283447265625 C 56.0355339050293 330.8144836425781 58.94184494018555 330.3688659667969 58.493499755859375 328.563232421875 C 59.00857925415039 317.1576232910156 56.884918212890625 314.35272216796875 62.6888427734375 315.9518737792969 C 64.20603942871094 314.49151611328125 62.71623611450195 330.7000732421875 63.98714065551758 324.9424743652344" stroke-width="0.0" fill="rgb(11, 18, 43)" opacity="0.91042656" stroke="rgb(64, 190, 215)" stroke-opacity="0.18210816" stroke-linecap="round" stroke-linejoin="round"/>
    <path d="M 502.2975769042969 503.8935241699219 C 501.3291931152344 505.30615234375 504.5419006347656 504.4167785644531 493.7653503417969 504.43572998046875 C 483.8815612792969 504.2184143066406 488.72882080078125 506.5738830566406 487.2755126953125 498.85546875 C 419.9467468261719 500.5448303222656 469.9757385253906 494.92596435546875 501.5917663574219 470.8584289550781 C 501.9586181640625 471.42633056640625 502.2475280761719 482.99530029296875 502.2975769042969 503.8935241699219" stroke-width="0.0" fill="rgb(34, 75, 104)" opacity="0.81352925" stroke="rgb(93, 195, 149)" stroke-opacity="0.6471263" stroke-linecap="round" stroke-linejoin="round"/>
    <path d="M 211.18666076660156 309.0860290527344 C 210.0093994140625 263.3955078125 210.0535888671875 276.3099060058594 210.5706024169922 301.17755126953125 C 207.74806213378906 264.7141418457031 209.77560424804688 278.6403503417969 199.48263549804688 258.8759765625 C 199.97775268554688 250.81265258789062 196.39639282226562 252.34071350097656 210.25733947753906 251.59059143066406 C 210.3658905029297 252.99647521972656 211.67901611328125 242.1475372314453 211.18666076660156 309.0860290527344" stroke-width="0.0" fill="rgb(234, 247, 241)" opacity="0.70360124" stroke="rgb(191, 160, 7)" stroke-opacity="0.63375443" stroke-linecap="round" stroke-linejoin="round"/>
    <path d="M 125.6269302368164 315.576904296875 C 124.56282806396484 334.8385314941406 127.43949890136719 329.94171142578125 119.63661193847656 330.97052001953125 C 119.92425537109375 335.9354553222656 119.2330551147461 314.6890869140625 120.21530151367188 323.7825012207031 C 120.41984558105469 324.8609619140625 117.4408950805664 315.8348083496094 123.14200592041016 315.78338623046875 C 126.72471618652344 315.2143249511719 124.10865020751953 322.65972900390625 125.6269302368164 315.576904296875" stroke-width="0.0" fill="rgb(36, 41, 66)" opacity="0.99623156" stroke="rgb(15, 51, 130)" stroke-opacity="0.928715" stroke-linecap="round" stroke-linejoin="round"/>
    <path d="M 277.6799011230469 192.03268432617188 C 275.0003967285156 209.1210479736328 282.9932861328125 197.06114196777344 268.0252380371094 193.89088439941406 C 274.736572265625 208.5627899169922 261.7271423339844 209.92103576660156 265.0298767089844 191.41720581054688 C 273.4371643066406 190.55641174316406 281.08770751953125 194.27418518066406 278.9828186035156 198.60252380371094 C 271.5155334472656 188.8923797607422 275.4757080078125 190.7659149169922 277.6799011230469 192.03268432617188" stroke-width="0.0" fill="rgb(255, 252, 233)" opacity="0.58907014" stroke="rgb(189, 114, 157)" stroke-opacity="0.004744312" stroke-linecap="round" stroke-linejoin="round"/>
    <path d="M 263.47894287109375 157.93353271484375 C 113.97203063964844 179.8195037841797 156.83177185058594 130.93064880371094 147.13050842285156 121.82709503173828 C 138.5616455078125 122.23372650146484 141.23709106445312 124.57621765136719 139.6314239501953 112.01945495605469 C 140.1348876953125 65.66654968261719 150.78030395507812 85.80337524414062 84.1556396484375 9.4107084274292 C 295.3514709472656 11.9149169921875 243.126953125 -24.375350952148438 263.47894287109375 157.93353271484375" stroke-width="0.0" fill="rgb(142, 174, 177)" opacity="1.0" stroke="rgb(152, 154, 83)" stroke-opacity="0.47567144" stroke-linecap="round" stroke-linejoin="round"/>
    <path d="M 496.71075439453125 262.7395935058594 C 496.4587707519531 273.04144287109375 496.4140930175781 287.793212890625 496.8514709472656 295.8158264160156 C 475.3570556640625 291.69195556640625 477.26470947265625 277.8390808105469 470.6592102050781 262.93133544921875 C 468.0660095214844 262.510009765625 462.4028625488281 262.6871643066406 496.8340759277344 262.41436767578125 C 495.07049560546875 263.3773193359375 495.8061828613281 262.7492370605469 496.71075439453125 262.7395935058594" stroke-width="0.0" fill="rgb(44, 45, 64)" opacity="0.9840081" stroke="rgb(108, 9, 24)" stroke-opacity="0.4876006" stroke-linecap="round" stroke-linejoin="round"/>
    <path d="M 52.548583984375 371.74188232421875 C 110.21627807617188 363.6599426269531 81.93543243408203 385.25390625 39.97171401977539 382.3616027832031 C 34.68809127807617 381.73565673828125 30.874269485473633 382.9339294433594 38.36598205566406 382.34002685546875 C 38.07179641723633 378.9474792480469 45.02312088012695 371.1475830078125 45.878963470458984 372.14886474609375 C 61.76646041870117 368.454345703125 56.4682502746582 371.2790222167969 52.548583984375 371.74188232421875" stroke-width="0.0" fill="rgb(99, 191, 211)" opacity="0.77849567" stroke="rgb(16, 125, 78)" stroke-opacity="0.10509249" stroke-linecap="round" stroke-linejoin="round"/>
    <path d="M 222.56541442871094 365.3331298828125 C 220.74122619628906 365.28515625 224.98814392089844 365.6854248046875 219.98634338378906 366.1836853027344 C 215.22824096679688 367.492919921875 217.00209045410156 362.8345031738281 216.53819274902344 369.7857971191406 C 216.56756591796875 364.0582275390625 216.75584411621094 348.9920654296875 216.84716796875 352.6758728027344 C 224.36036682128906 350.80804443359375 222.25119018554688 350.2008972167969 222.56541442871094 365.3331298828125" stroke-width="0.0" fill="rgb(36, 42, 64)" opacity="0.9823171" stroke="rgb(103, 2, 144)" stroke-opacity="0.03205544" stroke-linecap="round" stroke-linejoin="round"/>
    <path d="M 128.18287658691406 152.53366088867188 C 127.87972259521484 149.45135498046875 120.46097564697266 154.14781188964844 108.29193115234375 147.99880981445312 C 104.74839782714844 142.91094970703125 110.71924591064453 168.39027404785156 103.64100646972656 160.05197143554688 C 105.28080749511719 117.57001495361328 101.5918960571289 129.6588897705078 112.82976531982422 127.46989440917969 C 133.88262939453125 128.203125 123.24040222167969 123.19931030273438 128.18287658691406 152.53366088867188" stroke-width="0.0" fill="rgb(255, 209, 182)" opacity="0.82531667" stroke="rgb(209, 167, 206)" stroke-opacity="0.3009181" stroke-linecap="round" stroke-linejoin="round"/>
    <path d="M 502.0182189941406 489.8661804199219 C 474.39361572265625 491.3442077636719 492.87615966796875 496.18804931640625 489.8211669921875 503.85723876953125 C 491.62908935546875 490.47918701171875 468.2913818359375 504.6827392578125 463.5394287109375 493.6351318359375 C 462.2566223144531 463.2718505859375 461.9115295410156 476.89971923828125 502.42645263671875 471.1177062988281 C 501.0432434082031 461.1042785644531 502.9267883300781 462.69732666015625 502.0182189941406 489.8661804199219" stroke-width="0.0" fill="rgb(76, 122, 148)" opacity="0.9056694" stroke="rgb(136, 238, 154)" stroke-opacity="0.3723457" stroke-linecap="round" stroke-linejoin="round"/>
    <path d="M 492.91693115234375 367.2805480957031 C 492.3375549316406 362.6375732421875 495.8273010253906 366.0140380859375 487.52581787109375 365.1178283691406 C 487.4085693359375 363.85516357421875 486.0633544921875 354.1217346191406 487.7884521484375 365.9989318847656 C 487.58221435546875 365.1675109863281 487.3880920410156 354.85418701171875 487.5637512207031 349.0110168457031 C 494.8854064941406 347.6071472167969 492.0372314453125 347.76654052734375 492.91693115234375 367.2805480957031" stroke-width="0.0" fill="rgb(30, 34, 60)" opacity="0.9784849" stroke="rgb(228, 51, 126)" stroke-opacity="0.97057885" stroke-linecap="round" stroke-linejoin="round"/>
    <path d="M 425.7919921875 304.8594665527344 C 418.0203857421875 303.7616271972656 399.4840393066406 306.793701171875 396.1297607421875 302.2518310546875 C 367.1445007324219 303.7227783203125 393.4870910644531 309.873046875 373.6253662109375 371.3482666015625 C 378.56304931640625 279.6707458496094 362.3297424316406 294.6372375488281 391.51361083984375 293.4177551269531 C 428.946044921875 294.83868408203125 416.7275390625 279.2358093261719 425.7919921875 304.8594665527344" stroke-width="0.0" fill="rgb(250, 225, 201)" opacity="0.99991214" stroke="rgb(197, 224, 242)" stroke-opacity="0.3936871" stroke-linecap="round" stroke-linejoin="round"/>
    <path d="M 77.62474822998047 314.75103759765625 C 77.32707214355469 334.16864013671875 80.07569122314453 329.9422607421875 72.40929412841797 330.726806640625 C 71.07527923583984 331.859375 74.35698699951172 326.4942932128906 71.73759460449219 332.0429992675781 C 73.22443389892578 328.0970153808594 71.59147644042969 316.44586181640625 73.30809783935547 315.94049072265625 C 79.8125 312.99774169921875 77.40867614746094 322.1365966796875 77.62474822998047 314.75103759765625" stroke-width="0.0" fill="rgb(42, 45, 58)" opacity="1.0" stroke="rgb(125, 237, 184)" stroke-opacity="0.47436458" stroke-linecap="round" stroke-linejoin="round"/>
    <path d="M 118.37144470214844 173.11032104492188 C 114.82061767578125 182.60011291503906 120.24911499023438 189.67230224609375 115.56280517578125 183.41934204101562 C 107.91129302978516 177.7279510498047 111.98249816894531 193.3726806640625 109.01245880126953 176.3857421875 C 91.79725646972656 169.61302185058594 88.43112182617188 171.84861755371094 127.25761413574219 171.25137329101562 C 126.66170501708984 170.83737182617188 128.2782440185547 173.106689453125 118.37144470214844 173.11032104492188" stroke-width="0.0" fill="rgb(255, 250, 235)" opacity="0.933493" stroke="rgb(230, 93, 186)" stroke-opacity="0.25352764" stroke-linecap="round" stroke-linejoin="round"/>
    <path d="M 124.77783966064453 362.1653747558594 C 123.58100128173828 356.45465087890625 128.3197479248047 361.71502685546875 120.6421127319336 360.5707092285156 C 118.07193756103516 362.1543273925781 120.14443969726562 357.8501892089844 118.97491455078125 347.7691345214844 C 120.87522888183594 361.16778564453125 118.39026641845703 346.0859375 120.92971801757812 346.6080322265625 C 128.25152587890625 344.5037536621094 123.81707000732422 353.2073669433594 124.77783966064453 362.1653747558594" stroke-width="0.0" fill="rgb(39, 41, 63)" opacity="0.98294073" stroke="rgb(41, 20, 22)" stroke-opacity="0.025870943" stroke-linecap="round" stroke-linejoin="round"/>
    <path d="M 426.0235290527344 347.4991760253906 C 422.28253173828125 404.0510559082031 412.8856506347656 339.9652404785156 422.7409973144531 295.6422424316406 C 403.412109375 292.36431884765625 408.76568603515625 285.8716735839844 419.4482421875 295.1014099121094 C 417.55670166015625 285.3517761230469 417.4232482910156 279.7837219238281 416.9339294433594 273.2030944824219 C 427.5718078613281 269.0614929199219 427.2503662109375 266.48675537109375 426.0235290527344 347.4991760253906" stroke-width="0.0" fill="rgb(247, 209, 184)" opacity="1.0" stroke="rgb(87, 30, 97)" stroke-opacity="0.0783285" stroke-linecap="round" stroke-linejoin="round"/>
    <path d="M 100.69062805175781 150.6795196533203 C 98.14602661132812 166.4916229248047 104.3509292602539 160.24131774902344 97.22456359863281 166.40530395507812 C 98.1237564086914 146.9894561767578 95.68392944335938 146.16429138183594 97.46464538574219 143.64820861816406 C 96.91930389404297 147.00990295410156 96.8359146118164 148.3308868408203 98.77070617675781 146.7197265625 C 137.85365295410156 145.70008850097656 136.7008514404297 152.5765380859375 100.69062805175781 150.6795196533203" stroke-width="0.0" fill="rgb(253, 250, 236)" opacity="0.9099896" stroke="rgb(237, 103, 45)" stroke-opacity="0.9359542" stroke-linecap="round" stroke-linejoin="round"/>
    <path d="M 448.4009094238281 287.5186767578125 C 446.2862854003906 290.0925598144531 450.7796630859375 288.5841979980469 442.7026062011719 288.8816223144531 C 441.8916015625 287.7813415527344 443.1350402832031 279.1722412109375 442.9342346191406 275.075927734375 C 442.3783264160156 285.5068664550781 442.3082580566406 278.6704406738281 442.6927795410156 275.64276123046875 C 450.5397033691406 275.3456115722656 447.61688232421875 273.0625915527344 448.4009094238281 287.5186767578125" stroke-width="0.0" fill="rgb(19, 24, 44)" opacity="0.89563715" stroke="rgb(213, 197, 114)" stroke-opacity="0.63807297" stroke-linecap="round" stroke-linejoin="round"/>
    <path d="M 413.65997314453125 336.6557922363281 C 410.6609191894531 368.0563659667969 434.81134033203125 372.4703063964844 373.4637451171875 367.84454345703125 C 375.68988037109375 292.9637756347656 409.45391845703125 338.3686218261719 401.1308288574219 326.15411376953125 C 406.382080078125 322.7234802246094 398.4020690917969 325.3359069824219 410.6633605957031 325.2441101074219 C 415.9735107421875 313.8500061035156 411.77496337890625 284.3056640625 413.65997314453125 336.6557922363281" stroke-width="0.0" fill="rgb(246, 201, 174)" opacity="0.9815526" stroke="rgb(34, 61, 198)" stroke-opacity="0.075649135" stroke-linecap="round" stroke-linejoin="round"/>
    <path d="M 426.2144775390625 276.9259338378906 C 425.0814514160156 299.0411071777344 426.26324462890625 285.2513732910156 438.7085876464844 292.5257263183594 C 408.1563415527344 293.97271728515625 404.3161315917969 287.81201171875 415.99505615234375 289.77117919921875 C 419.47967529296875 266.6940612792969 408.354736328125 267.1003723144531 422.2232360839844 266.0823059082031 C 434.25323486328125 266.0836486816406 426.551025390625 271.2438659667969 426.2144775390625 276.9259338378906" stroke-width="0.0" fill="rgb(252, 246, 229)" opacity="0.98033303" stroke="rgb(43, 0, 119)" stroke-opacity="0.95337194" stroke-linecap="round" stroke-linejoin="round"/>
    <path d="M 474.78826904296875 498.5720520019531 C 447.893798828125 499.15423583984375 441.619873046875 500.396728515625 455.106689453125 495.4502258300781 C 463.5328369140625 493.924072265625 460.77825927734375 495.0390319824219 443.48468017578125 498.242431640625 C 276.1706237792969 518.2356567382812 259.20184326171875 484.64111328125 349.7005310058594 491.0432434082031 C 470.1167297363281 485.58660888671875 472.4306335449219 492.919677734375 474.78826904296875 498.5720520019531" stroke-width="0.0" fill="rgb(57, 90, 113)" opacity="0.7726751" stroke="rgb(33, 63, 162)" stroke-opacity="0.28229636" stroke-linecap="round" stroke-linejoin="round"/>
    <path d="M 222.58372497558594 333.8719787597656 C 221.83091735839844 337.58587646484375 224.2909393310547 336.2178039550781 216.6373291015625 336.4316101074219 C 216.4502716064453 336.76812744140625 216.7836151123047 323.8080139160156 216.53469848632812 319.9800109863281 C 217.2745819091797 329.18377685546875 215.76182556152344 322.556884765625 217.95697021484375 321.4554138183594 C 224.07615661621094 322.1889953613281 222.39874267578125 319.2416076660156 222.58372497558594 333.8719787597656" stroke-width="0.0" fill="rgb(38, 46, 68)" opacity="0.9828331" stroke="rgb(91, 146, 216)" stroke-opacity="0.62825054" stroke-linecap="round" stroke-linejoin="round"/>
    <path d="M 421.1724853515625 288.58660888671875 C 420.9476013183594 278.7447204589844 419.63360595703125 281.169921875 418.14324951171875 291.2033996582031 C 421.6248779296875 276.3294372558594 421.5684509277344 273.00091552734375 418.09124755859375 288.216064453125 C 417.930419921875 275.8619384765625 417.9980163574219 271.3330993652344 419.0198059082031 277.31103515625 C 420.7745056152344 284.1616516113281 421.32464599609375 287.8461608886719 421.1724853515625 288.58660888671875" stroke-width="0.0" fill="rgb(249, 242, 226)" opacity="0.9268648" stroke="rgb(82, 128, 36)" stroke-opacity="0.83354104" stroke-linecap="round" stroke-linejoin="round"/>
    <path d="M 458.6882019042969 459.0505065917969 C 445.46063232421875 459.92279052734375 449.85406494140625 458.8444519042969 444.1427307128906 461.5276794433594 C 407.3216857910156 465.66619873046875 405.8647766113281 462.8720703125 404.3924560546875 457.82733154296875 C 420.9312744140625 456.7777404785156 431.5383605957031 458.10028076171875 426.09112548828125 457.6602478027344 C 422.46624755859375 457.631591796875 430.2405700683594 457.146484375 458.6882019042969 459.0505065917969" stroke-width="0.0" fill="rgb(254, 241, 224)" opacity="0.76404065" stroke="rgb(61, 23, 66)" stroke-opacity="0.8842835" stroke-linecap="round" stroke-linejoin="round"/>
    <path d="M 172.5699920654297 321.5853271484375 C 172.7588348388672 319.3869323730469 172.54598999023438 340.1368713378906 172.47244262695312 336.27630615234375 C 165.22535705566406 335.9933166503906 168.1082763671875 335.9827880859375 167.77992248535156 337.15618896484375 C 167.48585510253906 334.234619140625 167.3555908203125 320.51812744140625 167.84283447265625 321.8099670410156 C 174.3092498779297 320.2438659667969 171.73683166503906 323.581298828125 172.5699920654297 321.5853271484375" stroke-width="0.0" fill="rgb(15, 25, 50)" opacity="0.93324274" stroke="rgb(83, 25, 152)" stroke-opacity="0.260629" stroke-linecap="round" stroke-linejoin="round"/>
    <path d="M 340.05712890625 294.85260009765625 C 337.8660888671875 311.7673034667969 342.1988525390625 307.4693908691406 332.8410949707031 308.3099365234375 C 332.5218505859375 317.58514404296875 332.3764953613281 294.55743408203125 332.14739990234375 296.2012023925781 C 329.0448303222656 295.68231201171875 331.1712646484375 294.8734436035156 339.0443420410156 295.08148193359375 C 335.4604797363281 295.5009460449219 340.6392822265625 295.14154052734375 340.05712890625 294.85260009765625" stroke-width="0.0" fill="rgb(255, 255, 237)" opacity="0.94060564" stroke="rgb(72, 176, 218)" stroke-opacity="0.049780264" stroke-linecap="round" stroke-linejoin="round"/>
    <path d="M 488.0332946777344 485.3207702636719 C 499.1156005859375 502.37469482421875 493.3900146484375 499.0971984863281 461.192138671875 500.096435546875 C 434.2994689941406 498.146240234375 440.9368591308594 502.66192626953125 452.20550537109375 489.628662109375 C 449.32293701171875 468.79071044921875 443.62652587890625 472.8686218261719 494.1144714355469 471.2060546875 C 511.184326171875 472.67987060546875 497.57952880859375 465.5241394042969 488.0332946777344 485.3207702636719" stroke-width="0.0" fill="rgb(61, 94, 118)" opacity="0.54337645" stroke="rgb(123, 215, 167)" stroke-opacity="0.7911878" stroke-linecap="round" stroke-linejoin="round"/>
    <path d="M 252.10211181640625 304.9834289550781 C 249.6558380126953 299.7491149902344 254.82264709472656 310.2394104003906 247.4757843017578 306.9156494140625 C 245.71348571777344 310.543212890625 245.86846923828125 295.2540588378906 246.5821533203125 291.767333984375 C 247.4542999267578 298.9672546386719 247.09228515625 289.63482666015625 246.20932006835938 293.3484802246094 C 253.97738647460938 289.67352294921875 249.95709228515625 299.599609375 252.10211181640625 304.9834289550781" stroke-width="0.0" fill="rgb(25, 25, 44)" opacity="1.0" stroke="rgb(200, 6, 28)" stroke-opacity="0.6745116" stroke-linecap="round" stroke-linejoin="round"/>
    <path d="M 107.13076782226562 362.3841247558594 C 108.14065551757812 396.0920104980469 108.1919937133789 412.7022399902344 105.60208129882812 403.2330322265625 C 104.82881927490234 389.11065673828125 105.58052825927734 383.9364013671875 106.06800079345703 381.1529235839844 C 104.03535461425781 396.477294921875 105.42619323730469 395.2814636230469 105.41315460205078 369.9223327636719 C 103.55891418457031 368.63128662109375 108.2919692993164 375.3858337402344 107.13076782226562 362.3841247558594" stroke-width="0.0" fill="rgb(29, 35, 54)" opacity="1.0" stroke="rgb(251, 152, 59)" stroke-opacity="0.5896216" stroke-linecap="round" stroke-linejoin="round"/>
    <path d="M 338.0 243.0 C 337.33013916015625 245.5 335.5 247.3301239013672 333.0 248.0 C 330.5 247.3301239013672 328.66986083984375 245.5 328.0 243.0 C 328.66986083984375 240.5 330.5 238.6698760986328 333.0 238.0 C 335.5 238.6698760986328 337.33013916015625 240.5 338.0 243.0" stroke-width="0.0" fill="rgb(40, 46, 66)" opacity="1.0" stroke="rgb(60, 24, 216)" stroke-opacity="0.6144903" stroke-linecap="round" stroke-linejoin="round"/>
  </g>
</svg>
