<?xml version="1.0" ?>
<svg xmlns="http://www.w3.org/2000/svg" version="1.1" width="508" height="512">
  <defs/>
  <g>
    <path d="M 403.0748596191406 8.217802047729492 C 153.8300018310547 97.58576202392578 309.18414306640625 -14.62600040435791 253.6646270751953 228.5663604736328 C 57.2655029296875 263.4560241699219 2.635134696960449 227.6494140625 5.69016695022583 182.9840087890625 C 5.023991584777832 -56.02503204345703 5.951046943664551 28.204940795898438 5.269803524017334 7.96701192855835 C 166.7834930419922 8.09710693359375 179.1502685546875 7.777255058288574 403.0748596191406 8.217802047729492" stroke-width="0.0" fill="rgb(82, 86, 78)" opacity="0.36015967" stroke="rgb(196, 150, 217)" stroke-opacity="0.76551455" stroke-linecap="round" stroke-linejoin="round"/>
    <path d="M 504.20343017578125 8.548928260803223 C 492.0047302246094 318.0061340332031 545.0051879882812 333.2004089355469 376.3150634765625 333.1512756347656 C 322.7224426269531 116.47571563720703 378.4130859375 48.225563049316406 381.6714782714844 33.29991149902344 C 384.3468017578125 2.4934444427490234 401.0968322753906 9.081568717956543 437.3595275878906 8.27270221710205 C 468.5717468261719 8.923492431640625 483.2353515625 7.065915107727051 504.20343017578125 8.548928260803223" stroke-width="0.0" fill="rgb(129, 123, 114)" opacity="0.429963" stroke="rgb(132, 108, 241)" stroke-opacity="0.247607" stroke-linecap="round" stroke-linejoin="round"/>
    <path d="M 482.688232421875 19.973987579345703 C 417.723876953125 40.54057693481445 394.4062805175781 15.503833770751953 380.7894592285156 182.90682983398438 C 255.83621215820312 247.10104370117188 242.86508178710938 225.63047790527344 276.7957458496094 8.002639770507812 C 367.2603759765625 7.98908805847168 376.0810241699219 8.006396293640137 435.1985168457031 7.9883952140808105 C 471.24383544921875 9.374855041503906 510.6888122558594 3.060349225997925 482.688232421875 19.973987579345703" stroke-width="0.0" fill="rgb(113, 152, 159)" opacity="0.651671" stroke="rgb(247, 74, 75)" stroke-opacity="0.6924899" stroke-linecap="round" stroke-linejoin="round"/>
    <path d="M 266.856689453125 322.2084655761719 C 186.96484375 440.4182434082031 353.93707275390625 424.7735595703125 23.47332763671875 422.9093017578125 C -14.108969688415527 398.0005187988281 4.4926934242248535 414.6517639160156 74.20681762695312 367.8118896484375 C 189.7016143798828 392.3199462890625 54.860042572021484 406.7742004394531 200.74545288085938 400.566162109375 C 176.3968505859375 285.45062255859375 253.89730834960938 165.58473205566406 266.856689453125 322.2084655761719" stroke-width="0.0" fill="rgb(0, 80, 120)" opacity="0.4682282" stroke="rgb(27, 254, 142)" stroke-opacity="0.2324643" stroke-linecap="round" stroke-linejoin="round"/>
    <path d="M 457.9736022949219 304.7265625 C 431.954345703125 229.3330841064453 451.1446838378906 310.99505615234375 432.55810546875 294.7300109863281 C 430.8701477050781 269.2701416015625 443.6953125 275.17364501953125 399.42315673828125 277.0641784667969 C 407.49603271484375 254.11703491210938 389.696533203125 263.4587097167969 428.68408203125 263.1861572265625 C 462.9508056640625 263.15423583984375 458.14764404296875 250.22300720214844 457.9736022949219 304.7265625" stroke-width="0.0" fill="rgb(254, 249, 232)" opacity="0.94031876" stroke="rgb(42, 155, 121)" stroke-opacity="0.34083197" stroke-linecap="round" stroke-linejoin="round"/>
    <path d="M 458.0370178222656 207.01222229003906 C 452.4068603515625 284.37359619140625 477.2995910644531 256.34515380859375 399.5370788574219 263.5877380371094 C 412.5978698730469 297.36834716796875 363.936279296875 322.6416931152344 378.7071533203125 231.44569396972656 C 357.8209228515625 80.73733520507812 405.4632568359375 142.669677734375 393.6278076171875 213.43064880371094 C 438.36297607421875 212.40733337402344 459.5353698730469 219.3627166748047 458.0370178222656 207.01222229003906" stroke-width="0.0" fill="rgb(9, 14, 40)" opacity="0.76703197" stroke="rgb(57, 35, 238)" stroke-opacity="0.42043397" stroke-linecap="round" stroke-linejoin="round"/>
    <path d="M 502.5354309082031 419.45263671875 C 502.6606750488281 442.8035888671875 500.9643249511719 432.92645263671875 501.7542419433594 431.2941589355469 C 456.1156921386719 430.72320556640625 438.2876281738281 431.739013671875 247.60386657714844 431.47637939453125 C 220.33004760742188 417.05255126953125 220.89500427246094 419.53125 379.3899230957031 419.48504638671875 C 502.9553527832031 419.3658752441406 504.3971252441406 419.3187561035156 502.5354309082031 419.45263671875" stroke-width="0.0" fill="rgb(3, 3, 28)" opacity="0.8380927" stroke="rgb(14, 49, 44)" stroke-opacity="0.5513878" stroke-linecap="round" stroke-linejoin="round"/>
    <path d="M 143.5508270263672 305.86572265625 C 148.65383911132812 417.0971984863281 130.3911895751953 303.7715148925781 132.8681640625 400.5948791503906 C 82.03257751464844 405.49664306640625 86.77521514892578 393.15643310546875 87.25183868408203 305.9285888671875 C 91.06918334960938 295.5225524902344 22.722394943237305 318.1094665527344 68.33625030517578 280.76043701171875 C 345.2848205566406 213.23675537109375 334.1917724609375 322.42919921875 143.5508270263672 305.86572265625" stroke-width="0.0" fill="rgb(53, 119, 152)" opacity="0.57504827" stroke="rgb(68, 93, 157)" stroke-opacity="0.7189008" stroke-linecap="round" stroke-linejoin="round"/>
    <path d="M 303.5311279296875 259.39495849609375 C 300.2414855957031 321.3953857421875 319.9420166015625 223.42465209960938 305.2552490234375 351.8238220214844 C 282.7097473144531 347.0346374511719 293.0420837402344 373.52362060546875 290.1068420410156 266.3934631347656 C 290.3390197753906 267.6352233886719 288.9774475097656 245.14117431640625 289.90447998046875 240.4163818359375 C 308.0686340332031 248.13790893554688 293.2213439941406 262.9956359863281 303.5311279296875 259.39495849609375" stroke-width="0.0" fill="rgb(0, 10, 38)" opacity="0.78402346" stroke="rgb(120, 153, 50)" stroke-opacity="0.475983" stroke-linecap="round" stroke-linejoin="round"/>
    <path d="M 404.1880187988281 440.5493469238281 C 411.9272766113281 519.6165161132812 432.7087097167969 467.96380615234375 428.8526306152344 504.9390869140625 C 302.77484130859375 505.05560302734375 295.8499755859375 504.9779968261719 64.63534545898438 504.9984130859375 C 99.1197509765625 357.1641540527344 156.76466369628906 483.5389099121094 324.09033203125 426.654052734375 C 286.4830017089844 449.82281494140625 379.5347595214844 436.2141418457031 404.1880187988281 440.5493469238281" stroke-width="0.0" fill="rgb(29, 92, 119)" opacity="0.6096039" stroke="rgb(203, 145, 219)" stroke-opacity="0.25115016" stroke-linecap="round" stroke-linejoin="round"/>
    <path d="M 306.7790222167969 73.94819641113281 C 307.3670654296875 81.4011001586914 288.8251953125 104.58130645751953 264.63739013671875 86.90817260742188 C 263.4351501464844 127.55269622802734 263.0270690917969 93.32514953613281 270.29498291015625 48.745174407958984 C 275.95068359375 47.819725036621094 256.972900390625 51.73497009277344 272.12713623046875 44.779457092285156 C 296.51422119140625 36.39640426635742 311.93157958984375 60.07874298095703 306.7790222167969 73.94819641113281" stroke-width="0.0" fill="rgb(255, 247, 229)" opacity="0.96580386" stroke="rgb(153, 250, 186)" stroke-opacity="0.69291335" stroke-linecap="round" stroke-linejoin="round"/>
    <path d="M 242.92393493652344 400.8871765136719 C 231.12754821777344 429.77398681640625 251.41163635253906 418.59149169921875 90.40231323242188 420.3611145019531 C 37.20917510986328 437.3032531738281 53.87596893310547 389.1338806152344 37.46915054321289 432.9371337890625 C -17.29776382446289 390.0593566894531 9.720544815063477 403.24420166015625 24.320005416870117 400.58099365234375 C 41.78701400756836 402.1994934082031 87.18000030517578 400.05682373046875 242.92393493652344 400.8871765136719" stroke-width="0.0" fill="rgb(11, 0, 19)" opacity="0.72838753" stroke="rgb(110, 49, 213)" stroke-opacity="0.3808889" stroke-linecap="round" stroke-linejoin="round"/>
    <path d="M 503.2158203125 504.941650390625 C 455.4192810058594 505.80987548828125 534.01318359375 498.3772888183594 428.36468505859375 500.4139099121094 C 422.95916748046875 505.0348205566406 450.2313232421875 504.642333984375 359.4612731933594 504.20953369140625 C 382.5910949707031 439.6322326660156 409.3678894042969 501.3511657714844 405.0670471191406 429.77630615234375 C 523.0233154296875 439.78948974609375 498.35687255859375 393.0193786621094 503.2158203125 504.941650390625" stroke-width="0.0" fill="rgb(0, 62, 90)" opacity="0.4678158" stroke="rgb(1, 249, 7)" stroke-opacity="0.18424913" stroke-linecap="round" stroke-linejoin="round"/>
    <path d="M 374.37554931640625 265.9166564941406 C 370.5136413574219 392.3774108886719 383.72650146484375 365.7484436035156 358.2464599609375 369.7724609375 C 279.3062744140625 366.1162414550781 312.1595153808594 387.2028503417969 305.8160400390625 307.0315246582031 C 320.0334777832031 366.5488586425781 282.4505920410156 348.40338134765625 363.7788391113281 350.6775817871094 C 366.2071533203125 334.67327880859375 360.00213623046875 287.3335876464844 374.37554931640625 265.9166564941406" stroke-width="0.0" fill="rgb(39, 42, 62)" opacity="0.93313986" stroke="rgb(26, 206, 185)" stroke-opacity="0.35683858" stroke-linecap="round" stroke-linejoin="round"/>
    <path d="M 35.33937072753906 306.2231750488281 C 35.63689041137695 349.2020263671875 35.41304016113281 341.4742736816406 35.35319137573242 342.1838073730469 C -1.2343069314956665 342.018798828125 6.995410919189453 342.43701171875 5.567447185516357 341.4696350097656 C 5.45749044418335 308.1572265625 5.619387149810791 306.6672058105469 5.635328769683838 308.56396484375 C 43.064632415771484 308.4578552246094 34.408565521240234 309.14324951171875 35.33937072753906 306.2231750488281" stroke-width="0.0" fill="rgb(0, 97, 145)" opacity="0.5913338" stroke="rgb(103, 122, 237)" stroke-opacity="0.9746059" stroke-linecap="round" stroke-linejoin="round"/>
    <path d="M 127.55793762207031 171.22589111328125 C 126.03382110595703 256.658203125 129.38946533203125 240.35360717773438 124.3421401977539 245.17984008789062 C 91.2439193725586 242.0517578125 99.53400421142578 268.3442077636719 98.12432098388672 172.72283935546875 C 125.40161895751953 157.98028564453125 100.19990539550781 236.32855224609375 116.18009948730469 218.72996520996094 C 110.15914154052734 158.4718017578125 121.45458984375 172.007080078125 127.55793762207031 171.22589111328125" stroke-width="0.0" fill="rgb(255, 250, 233)" opacity="0.9299951" stroke="rgb(100, 129, 92)" stroke-opacity="0.55766606" stroke-linecap="round" stroke-linejoin="round"/>
    <path d="M 153.38722229003906 250.69798278808594 C 152.55746459960938 253.05810546875 170.2041473388672 251.29933166503906 127.33147430419922 251.87290954589844 C 127.71578979492188 220.63330078125 127.96560668945312 208.40675354003906 127.30647277832031 165.30853271484375 C 128.2380828857422 175.62852478027344 127.32254028320312 151.40548706054688 127.40884399414062 54.40024185180664 C 153.5254364013672 97.53157806396484 154.87879943847656 194.75477600097656 153.38722229003906 250.69798278808594" stroke-width="0.0" fill="rgb(57, 66, 85)" opacity="1.0" stroke="rgb(59, 178, 29)" stroke-opacity="0.4464602" stroke-linecap="round" stroke-linejoin="round"/>
    <path d="M 459.7089538574219 294.27716064453125 C 455.563720703125 340.52520751953125 470.1826477050781 328.7541198730469 437.5493469238281 330.4974670410156 C 423.3052978515625 327.8584899902344 428.3334655761719 340.81890869140625 427.0487060546875 297.3543395996094 C 428.6817626953125 291.7867431640625 419.110595703125 293.5272216796875 457.3924255371094 293.4293518066406 C 459.4090881347656 211.0636749267578 545.4603881835938 311.0860900878906 459.7089538574219 294.27716064453125" stroke-width="0.0" fill="rgb(11, 17, 43)" opacity="0.7988686" stroke="rgb(156, 26, 187)" stroke-opacity="0.38512826" stroke-linecap="round" stroke-linejoin="round"/>
    <path d="M 61.55842971801758 432.8201599121094 C 68.59173583984375 462.1094665527344 66.0733642578125 462.7509460449219 59.82133483886719 460.71417236328125 C 10.459083557128906 455.9523620605469 5.3222198486328125 502.7723693847656 6.148580551147461 425.17889404296875 C 31.1643123626709 415.87603759765625 11.39039421081543 426.6665344238281 41.46033477783203 423.5036926269531 C 43.25666427612305 402.5839538574219 71.04264831542969 409.4443664550781 61.55842971801758 432.8201599121094" stroke-width="0.0" fill="rgb(183, 199, 193)" opacity="1.0" stroke="rgb(94, 125, 83)" stroke-opacity="0.32856157" stroke-linecap="round" stroke-linejoin="round"/>
    <path d="M 425.9969787597656 388.12896728515625 C 423.49749755859375 414.9065856933594 433.03631591796875 412.4036865234375 407.0910949707031 412.1319885253906 C 368.9962158203125 412.49224853515625 382.430908203125 414.8076171875 378.581298828125 389.5192565917969 C 382.2109375 361.7316589355469 370.2332458496094 370.5094909667969 401.9579772949219 368.572509765625 C 434.8305969238281 370.11004638671875 423.3690490722656 362.4888000488281 425.9969787597656 388.12896728515625" stroke-width="0.0" fill="rgb(40, 48, 67)" opacity="0.83700496" stroke="rgb(115, 33, 228)" stroke-opacity="0.95468795" stroke-linecap="round" stroke-linejoin="round"/>
    <path d="M 348.563232421875 209.30796813964844 C 329.8521423339844 147.2594757080078 341.5090026855469 226.1309051513672 328.93658447265625 205.56680297851562 C 322.0600280761719 144.36642456054688 320.73150634765625 229.80575561523438 316.2453308105469 218.49876403808594 C 309.7609558105469 172.9652862548828 324.54852294921875 176.8831329345703 295.4339904785156 177.88705444335938 C 360.2177734375 181.56295776367188 353.9935607910156 166.9437255859375 348.563232421875 209.30796813964844" stroke-width="0.0" fill="rgb(255, 250, 233)" opacity="0.9318611" stroke="rgb(79, 182, 54)" stroke-opacity="0.29356122" stroke-linecap="round" stroke-linejoin="round"/>
    <path d="M 269.9366149902344 344.7091369628906 C 267.90850830078125 353.4863586425781 277.19659423828125 350.7561950683594 249.23812866210938 351.3283386230469 C 248.5369415283203 428.00762939453125 252.47377014160156 411.4822998046875 240.14369201660156 412.75164794921875 C 242.13946533203125 302.79144287109375 236.8953094482422 328.0863952636719 248.7254180908203 324.0683898925781 C 276.478759765625 326.8598937988281 267.82373046875 313.0590515136719 269.9366149902344 344.7091369628906" stroke-width="0.0" fill="rgb(42, 42, 64)" opacity="0.9421384" stroke="rgb(95, 207, 156)" stroke-opacity="0.33680773" stroke-linecap="round" stroke-linejoin="round"/>
    <path d="M 115.86711120605469 497.91973876953125 C 100.80491638183594 510.665771484375 86.33538055419922 500.943115234375 63.031333923339844 504.9546203613281 C 7.665156841278076 504.160888671875 1.7304091453552246 505.02532958984375 5.574741840362549 504.7519226074219 C 5.530982494354248 448.0921325683594 6.4973978996276855 446.8518371582031 6.942325592041016 451.65924072265625 C 62.91985321044922 454.9114990234375 78.4703140258789 454.0236511230469 115.86711120605469 497.91973876953125" stroke-width="0.0" fill="rgb(67, 106, 129)" opacity="1.0" stroke="rgb(55, 87, 40)" stroke-opacity="0.10704914" stroke-linecap="round" stroke-linejoin="round"/>
    <path d="M 270.9226379394531 458.154541015625 C 65.6181869506836 444.58660888671875 92.77507781982422 458.39715576171875 76.32526397705078 478.62713623046875 C 47.796627044677734 476.0657653808594 46.082359313964844 475.1268005371094 45.34999465942383 459.4544677734375 C 49.9444465637207 427.01776123046875 54.18507766723633 435.50762939453125 40.912601470947266 419.41436767578125 C 156.67677307128906 438.69940185546875 232.61837768554688 388.9577331542969 270.9226379394531 458.154541015625" stroke-width="0.0" fill="rgb(167, 198, 193)" opacity="0.6821719" stroke="rgb(68, 148, 141)" stroke-opacity="0.35648462" stroke-linecap="round" stroke-linejoin="round"/>
    <path d="M 503.1272888183594 378.56195068359375 C 502.3929138183594 350.61309814453125 502.8323059082031 359.5832214355469 502.69879150390625 411.6896057128906 C 449.1239013671875 409.7259216308594 469.487060546875 432.5743713378906 464.70806884765625 331.4573669433594 C 478.9610595703125 330.84320068359375 474.14617919921875 332.1726989746094 502.6905212402344 330.27215576171875 C 502.96173095703125 351.2774353027344 502.2956848144531 363.1765441894531 503.1272888183594 378.56195068359375" stroke-width="0.0" fill="rgb(34, 93, 129)" opacity="0.76587033" stroke="rgb(24, 105, 106)" stroke-opacity="0.612553" stroke-linecap="round" stroke-linejoin="round"/>
    <path d="M 118.53363800048828 419.56695556640625 C 92.52876281738281 499.94647216796875 37.70175552368164 444.8696594238281 6.141079425811768 471.4716491699219 C 5.725484848022461 483.10894775390625 5.005184173583984 482.248779296875 5.031749725341797 464.2553405761719 C 5.68980073928833 410.3573303222656 0.6312733888626099 415.756591796875 25.4456787109375 423.0299377441406 C 82.30616760253906 419.5919494628906 20.387981414794922 442.5244445800781 118.53363800048828 419.56695556640625" stroke-width="0.0" fill="rgb(138, 176, 181)" opacity="0.59975487" stroke="rgb(173, 206, 110)" stroke-opacity="0.35303" stroke-linecap="round" stroke-linejoin="round"/>
    <path d="M 66.02401733398438 467.6426086425781 C 66.95635223388672 473.0335693359375 64.38764953613281 473.0387878417969 39.5306282043457 471.71533203125 C 3.6402523517608643 474.4374694824219 5.536349773406982 478.4522705078125 5.965752124786377 454.2242126464844 C 34.999114990234375 456.9727783203125 32.73272705078125 440.10296630859375 35.41773986816406 436.431396484375 C 51.83107376098633 434.9849853515625 62.100608825683594 430.0425720214844 66.02401733398438 467.6426086425781" stroke-width="0.0" fill="rgb(92, 134, 156)" opacity="0.9611492" stroke="rgb(196, 134, 230)" stroke-opacity="0.21096563" stroke-linecap="round" stroke-linejoin="round"/>
    <path d="M 358.7185974121094 306.20965576171875 C 356.430908203125 342.3775939941406 361.024658203125 332.0663757324219 353.4543762207031 337.27862548828125 C 340.6427307128906 324.1875 326.7565612792969 354.1402282714844 324.33660888671875 320.4740905761719 C 334.2296447753906 284.10357666015625 311.37542724609375 300.57293701171875 357.3476867675781 296.02252197265625 C 357.92449951171875 316.5656433105469 356.86505126953125 319.78314208984375 358.7185974121094 306.20965576171875" stroke-width="0.0" fill="rgb(107, 109, 117)" opacity="0.79036295" stroke="rgb(162, 17, 46)" stroke-opacity="0.90818053" stroke-linecap="round" stroke-linejoin="round"/>
    <path d="M 365.3628845214844 348.7415771484375 C 364.2518615722656 353.0565490722656 366.0096130371094 350.8209533691406 331.02215576171875 351.4427490234375 C 314.9563293457031 350.1402587890625 321.8745422363281 354.0622253417969 320.44903564453125 345.3815612792969 C 322.00726318359375 292.77056884765625 312.7056579589844 310.6138610839844 338.7171325683594 307.9729919433594 C 372.5670471191406 312.10369873046875 364.1825866699219 291.83880615234375 365.3628845214844 348.7415771484375" stroke-width="0.0" fill="rgb(82, 157, 185)" opacity="0.73893994" stroke="rgb(129, 209, 137)" stroke-opacity="0.36627367" stroke-linecap="round" stroke-linejoin="round"/>
    <path d="M 389.2315673828125 263.04864501953125 C 359.9292907714844 330.85107421875 365.068359375 305.7987365722656 365.3128662109375 269.1905822753906 C 324.46038818359375 269.0198669433594 336.12213134765625 271.96002197265625 335.8295593261719 260.4171447753906 C 354.37139892578125 233.3628387451172 350.114501953125 260.833984375 357.9004211425781 227.0421142578125 C 370.005126953125 262.935302734375 365.58087158203125 227.8451690673828 389.2315673828125 263.04864501953125" stroke-width="0.0" fill="rgb(74, 133, 162)" opacity="0.7763523" stroke="rgb(151, 102, 184)" stroke-opacity="0.568833" stroke-linecap="round" stroke-linejoin="round"/>
    <path d="M 407.26385498046875 80.13451385498047 C 446.0220642089844 93.61772155761719 438.59600830078125 88.64424133300781 388.5567932128906 90.36618041992188 C 351.1857604980469 89.8603744506836 347.3941650390625 93.3247299194336 366.0279235839844 80.34718322753906 C 386.04248046875 85.1893539428711 363.7350158691406 74.50914764404297 386.993896484375 62.921993255615234 C 404.7344970703125 58.10898971557617 411.2564392089844 76.9371337890625 407.26385498046875 80.13451385498047" stroke-width="0.0" fill="rgb(253, 246, 226)" opacity="0.9547499" stroke="rgb(83, 115, 11)" stroke-opacity="0.17565387" stroke-linecap="round" stroke-linejoin="round"/>
    <path d="M 33.0 285.0 C 32.33012771606445 287.5 30.5 289.33013916015625 28.0 290.0 C 25.5 289.33013916015625 23.669872283935547 287.5 23.0 285.0 C 23.669872283935547 282.5 25.5 280.66986083984375 28.0 280.0 C 30.5 280.66986083984375 32.33012771606445 282.5 33.0 285.0" stroke-width="0.0" fill="rgb(226, 184, 160)" opacity="1.0" stroke="rgb(27, 252, 9)" stroke-opacity="0.415664" stroke-linecap="round" stroke-linejoin="round"/>
    <path d="M 371.0 226.0 C 370.33013916015625 228.5 368.5 230.3301239013672 366.0 231.0 C 363.5 230.3301239013672 361.66986083984375 228.5 361.0 226.0 C 361.66986083984375 223.5 363.5 221.6698760986328 366.0 221.0 C 368.5 221.6698760986328 370.33013916015625 223.5 371.0 226.0" stroke-width="0.0" fill="rgb(254, 248, 231)" opacity="1.0" stroke="rgb(184, 54, 164)" stroke-opacity="0.46750906" stroke-linecap="round" stroke-linejoin="round"/>
    <path d="M 119.0 122.0 C 118.33012390136719 124.5 116.5 126.33012390136719 114.0 127.0 C 111.5 126.33012390136719 109.66987609863281 124.5 109.0 122.0 C 109.66987609863281 119.5 111.5 117.66987609863281 114.0 117.0 C 116.5 117.66987609863281 118.33012390136719 119.5 119.0 122.0" stroke-width="0.0" fill="rgb(254, 248, 230)" opacity="1.0" stroke="rgb(82, 54, 102)" stroke-opacity="0.9560418" stroke-linecap="round" stroke-linejoin="round"/>
    <path d="M 124.0 281.0 C 123.33012390136719 283.5 121.5 285.33013916015625 119.0 286.0 C 116.5 285.33013916015625 114.66987609863281 283.5 114.0 281.0 C 114.66987609863281 278.5 116.5 276.66986083984375 119.0 276.0 C 121.5 276.66986083984375 123.33012390136719 278.5 124.0 281.0" stroke-width="0.0" fill="rgb(254, 245, 229)" opacity="1.0" stroke="rgb(146, 247, 92)" stroke-opacity="0.3187021" stroke-linecap="round" stroke-linejoin="round"/>
    <path d="M 292.0 188.0 C 291.33013916015625 190.5 289.5 192.3301239013672 287.0 193.0 C 284.5 192.3301239013672 282.66986083984375 190.5 282.0 188.0 C 282.66986083984375 185.5 284.5 183.6698760986328 287.0 183.0 C 289.5 183.6698760986328 291.33013916015625 185.5 292.0 188.0" stroke-width="0.0" fill="rgb(47, 47, 67)" opacity="1.0" stroke="rgb(52, 113, 24)" stroke-opacity="0.62147295" stroke-linecap="round" stroke-linejoin="round"/>
    <path d="M 276.0 181.0 C 275.33013916015625 183.5 273.5 185.3301239013672 271.0 186.0 C 268.5 185.3301239013672 266.66986083984375 183.5 266.0 181.0 C 266.66986083984375 178.5 268.5 176.6698760986328 271.0 176.0 C 273.5 176.6698760986328 275.33013916015625 178.5 276.0 181.0" stroke-width="0.0" fill="rgb(255, 247, 227)" opacity="1.0" stroke="rgb(208, 247, 99)" stroke-opacity="0.48059374" stroke-linecap="round" stroke-linejoin="round"/>
    <path d="M 322.0 395.0 C 321.33013916015625 397.5 319.5 399.33013916015625 317.0 400.0 C 314.5 399.33013916015625 312.66986083984375 397.5 312.0 395.0 C 312.66986083984375 392.5 314.5 390.66986083984375 317.0 390.0 C 319.5 390.66986083984375 321.33013916015625 392.5 322.0 395.0" stroke-width="0.0" fill="rgb(44, 46, 65)" opacity="1.0" stroke="rgb(252, 133, 131)" stroke-opacity="0.9886961" stroke-linecap="round" stroke-linejoin="round"/>
    <path d="M 458.0 357.0 C 457.33013916015625 359.5 455.5 361.33013916015625 453.0 362.0 C 450.5 361.33013916015625 448.66986083984375 359.5 448.0 357.0 C 448.66986083984375 354.5 450.5 352.66986083984375 453.0 352.0 C 455.5 352.66986083984375 457.33013916015625 354.5 458.0 357.0" stroke-width="0.0" fill="rgb(34, 40, 59)" opacity="1.0" stroke="rgb(90, 127, 82)" stroke-opacity="0.71349186" stroke-linecap="round" stroke-linejoin="round"/>
    <path d="M 16.0 234.0 C 15.330126762390137 236.5 13.5 238.3301239013672 11.0 239.0 C 8.5 238.3301239013672 6.669872760772705 236.5 6.0 234.0 C 6.669872760772705 231.5 8.5 229.6698760986328 11.0 229.0 C 13.5 229.6698760986328 15.330126762390137 231.5 16.0 234.0" stroke-width="0.0" fill="rgb(227, 180, 157)" opacity="1.0" stroke="rgb(125, 101, 46)" stroke-opacity="0.20675234" stroke-linecap="round" stroke-linejoin="round"/>
    <path d="M 479.0 309.0 C 478.33013916015625 311.5 476.5 313.33013916015625 474.0 314.0 C 471.5 313.33013916015625 469.66986083984375 311.5 469.0 309.0 C 469.66986083984375 306.5 471.5 304.66986083984375 474.0 304.0 C 476.5 304.66986083984375 478.33013916015625 306.5 479.0 309.0" stroke-width="0.0" fill="rgb(253, 244, 224)" opacity="1.0" stroke="rgb(62, 105, 105)" stroke-opacity="0.19599734" stroke-linecap="round" stroke-linejoin="round"/>
    <path d="M 137.0 158.0 C 136.3301239013672 160.5 134.5 162.3301239013672 132.0 163.0 C 129.5 162.3301239013672 127.66987609863281 160.5 127.0 158.0 C 127.66987609863281 155.5 129.5 153.6698760986328 132.0 153.0 C 134.5 153.6698760986328 136.3301239013672 155.5 137.0 158.0" stroke-width="0.0" fill="rgb(97, 155, 186)" opacity="1.0" stroke="rgb(110, 34, 18)" stroke-opacity="0.98034614" stroke-linecap="round" stroke-linejoin="round"/>
    <path d="M 39.0 395.0 C 38.33012771606445 397.5 36.5 399.33013916015625 34.0 400.0 C 31.5 399.33013916015625 29.669872283935547 397.5 29.0 395.0 C 29.669872283935547 392.5 31.5 390.66986083984375 34.0 390.0 C 36.5 390.66986083984375 38.33012771606445 392.5 39.0 395.0" stroke-width="0.0" fill="rgb(254, 245, 223)" opacity="1.0" stroke="rgb(2, 181, 21)" stroke-opacity="0.24835739" stroke-linecap="round" stroke-linejoin="round"/>
    <path d="M 165.0 484.0 C 164.3301239013672 486.5 162.5 488.33013916015625 160.0 489.0 C 157.5 488.33013916015625 155.6698760986328 486.5 155.0 484.0 C 155.6698760986328 481.5 157.5 479.66986083984375 160.0 479.0 C 162.5 479.66986083984375 164.3301239013672 481.5 165.0 484.0" stroke-width="0.0" fill="rgb(249, 239, 215)" opacity="1.0" stroke="rgb(132, 69, 179)" stroke-opacity="0.18659382" stroke-linecap="round" stroke-linejoin="round"/>
    <path d="M 205.0 277.0 C 204.3301239013672 279.5 202.5 281.33013916015625 200.0 282.0 C 197.5 281.33013916015625 195.6698760986328 279.5 195.0 277.0 C 195.6698760986328 274.5 197.5 272.66986083984375 200.0 272.0 C 202.5 272.66986083984375 204.3301239013672 274.5 205.0 277.0" stroke-width="0.0" fill="rgb(49, 52, 75)" opacity="1.0" stroke="rgb(181, 240, 49)" stroke-opacity="0.85936004" stroke-linecap="round" stroke-linejoin="round"/>
    <path d="M 288.0 162.0 C 287.33013916015625 164.5 285.5 166.3301239013672 283.0 167.0 C 280.5 166.3301239013672 278.66986083984375 164.5 278.0 162.0 C 278.66986083984375 159.5 280.5 157.6698760986328 283.0 157.0 C 285.5 157.6698760986328 287.33013916015625 159.5 288.0 162.0" stroke-width="0.0" fill="rgb(45, 44, 65)" opacity="1.0" stroke="rgb(231, 250, 22)" stroke-opacity="0.08989736" stroke-linecap="round" stroke-linejoin="round"/>
    <path d="M 405.0 314.0 C 404.33013916015625 316.5 402.5 318.33013916015625 400.0 319.0 C 397.5 318.33013916015625 395.66986083984375 316.5 395.0 314.0 C 395.66986083984375 311.5 397.5 309.66986083984375 400.0 309.0 C 402.5 309.66986083984375 404.33013916015625 311.5 405.0 314.0" stroke-width="0.0" fill="rgb(41, 45, 70)" opacity="1.0" stroke="rgb(194, 82, 143)" stroke-opacity="0.94157815" stroke-linecap="round" stroke-linejoin="round"/>
    <path d="M 31.0 266.0 C 30.330127716064453 268.5 28.5 270.33013916015625 26.0 271.0 C 23.5 270.33013916015625 21.669872283935547 268.5 21.0 266.0 C 21.669872283935547 263.5 23.5 261.66986083984375 26.0 261.0 C 28.5 261.66986083984375 30.330127716064453 263.5 31.0 266.0" stroke-width="0.0" fill="rgb(225, 185, 162)" opacity="1.0" stroke="rgb(126, 197, 211)" stroke-opacity="0.38466337" stroke-linecap="round" stroke-linejoin="round"/>
    <path d="M 369.0 393.0 C 368.33013916015625 395.5 366.5 397.33013916015625 364.0 398.0 C 361.5 397.33013916015625 359.66986083984375 395.5 359.0 393.0 C 359.66986083984375 390.5 361.5 388.66986083984375 364.0 388.0 C 366.5 388.66986083984375 368.33013916015625 390.5 369.0 393.0" stroke-width="0.0" fill="rgb(47, 47, 67)" opacity="1.0" stroke="rgb(132, 139, 32)" stroke-opacity="0.9898701" stroke-linecap="round" stroke-linejoin="round"/>
    <path d="M 480.0 301.0 C 479.33013916015625 303.5 477.5 305.33013916015625 475.0 306.0 C 472.5 305.33013916015625 470.66986083984375 303.5 470.0 301.0 C 470.66986083984375 298.5 472.5 296.66986083984375 475.0 296.0 C 477.5 296.66986083984375 479.33013916015625 298.5 480.0 301.0" stroke-width="0.0" fill="rgb(254, 245, 229)" opacity="1.0" stroke="rgb(182, 144, 14)" stroke-opacity="0.92638564" stroke-linecap="round" stroke-linejoin="round"/>
    <path d="M 276.0 274.0 C 275.33013916015625 276.5 273.5 278.33013916015625 271.0 279.0 C 268.5 278.33013916015625 266.66986083984375 276.5 266.0 274.0 C 266.66986083984375 271.5 268.5 269.66986083984375 271.0 269.0 C 273.5 269.66986083984375 275.33013916015625 271.5 276.0 274.0" stroke-width="0.0" fill="rgb(253, 241, 222)" opacity="1.0" stroke="rgb(109, 121, 134)" stroke-opacity="0.13712972" stroke-linecap="round" stroke-linejoin="round"/>
    <path d="M 104.0 289.0 C 103.33012390136719 291.5 101.5 293.33013916015625 99.0 294.0 C 96.5 293.33013916015625 94.66987609863281 291.5 94.0 289.0 C 94.66987609863281 286.5 96.5 284.66986083984375 99.0 284.0 C 101.5 284.66986083984375 103.33012390136719 286.5 104.0 289.0" stroke-width="0.0" fill="rgb(46, 45, 64)" opacity="1.0" stroke="rgb(123, 52, 58)" stroke-opacity="0.003012337" stroke-linecap="round" stroke-linejoin="round"/>
    <path d="M 125.0 74.0 C 124.33012390136719 76.5 122.5 78.33012390136719 120.0 79.0 C 117.5 78.33012390136719 115.66987609863281 76.5 115.0 74.0 C 115.66987609863281 71.5 117.5 69.66987609863281 120.0 69.0 C 122.5 69.66987609863281 124.33012390136719 71.5 125.0 74.0" stroke-width="0.0" fill="rgb(255, 247, 225)" opacity="1.0" stroke="rgb(206, 156, 103)" stroke-opacity="0.96850485" stroke-linecap="round" stroke-linejoin="round"/>
    <path d="M 441.0 356.0 C 440.33013916015625 358.5 438.5 360.33013916015625 436.0 361.0 C 433.5 360.33013916015625 431.66986083984375 358.5 431.0 356.0 C 431.66986083984375 353.5 433.5 351.66986083984375 436.0 351.0 C 438.5 351.66986083984375 440.33013916015625 353.5 441.0 356.0" stroke-width="0.0" fill="rgb(26, 35, 57)" opacity="1.0" stroke="rgb(162, 152, 89)" stroke-opacity="0.21539699" stroke-linecap="round" stroke-linejoin="round"/>
    <path d="M 267.0 269.0 C 266.33013916015625 271.5 264.5 273.33013916015625 262.0 274.0 C 259.5 273.33013916015625 257.66986083984375 271.5 257.0 269.0 C 257.66986083984375 266.5 259.5 264.66986083984375 262.0 264.0 C 264.5 264.66986083984375 266.33013916015625 266.5 267.0 269.0" stroke-width="0.0" fill="rgb(247, 236, 217)" opacity="1.0" stroke="rgb(78, 153, 111)" stroke-opacity="0.46703455" stroke-linecap="round" stroke-linejoin="round"/>
    <path d="M 389.0 313.0 C 388.33013916015625 315.5 386.5 317.33013916015625 384.0 318.0 C 381.5 317.33013916015625 379.66986083984375 315.5 379.0 313.0 C 379.66986083984375 310.5 381.5 308.66986083984375 384.0 308.0 C 386.5 308.66986083984375 388.33013916015625 310.5 389.0 313.0" stroke-width="0.0" fill="rgb(40, 44, 69)" opacity="1.0" stroke="rgb(94, 50, 32)" stroke-opacity="0.095245644" stroke-linecap="round" stroke-linejoin="round"/>
    <path d="M 56.0 266.0 C 55.33012771606445 268.5 53.5 270.33013916015625 51.0 271.0 C 48.5 270.33013916015625 46.66987228393555 268.5 46.0 266.0 C 46.66987228393555 263.5 48.5 261.66986083984375 51.0 261.0 C 53.5 261.66986083984375 55.33012771606445 263.5 56.0 266.0" stroke-width="0.0" fill="rgb(228, 184, 162)" opacity="1.0" stroke="rgb(252, 111, 248)" stroke-opacity="0.9567855" stroke-linecap="round" stroke-linejoin="round"/>
    <path d="M 121.0 163.0 C 120.33012390136719 165.5 118.5 167.3301239013672 116.0 168.0 C 113.5 167.3301239013672 111.66987609863281 165.5 111.0 163.0 C 111.66987609863281 160.5 113.5 158.6698760986328 116.0 158.0 C 118.5 158.6698760986328 120.33012390136719 160.5 121.0 163.0" stroke-width="0.0" fill="rgb(253, 251, 243)" opacity="1.0" stroke="rgb(8, 4, 17)" stroke-opacity="0.16757208" stroke-linecap="round" stroke-linejoin="round"/>
    <path d="M 277.0 157.0 C 276.33013916015625 159.5 274.5 161.3301239013672 272.0 162.0 C 269.5 161.3301239013672 267.66986083984375 159.5 267.0 157.0 C 267.66986083984375 154.5 269.5 152.6698760986328 272.0 152.0 C 274.5 152.6698760986328 276.33013916015625 154.5 277.0 157.0" stroke-width="0.0" fill="rgb(255, 251, 236)" opacity="1.0" stroke="rgb(4, 43, 67)" stroke-opacity="0.7139401" stroke-linecap="round" stroke-linejoin="round"/>
    <path d="M 87.0 388.0 C 86.33012390136719 390.5 84.5 392.33013916015625 82.0 393.0 C 79.5 392.33013916015625 77.66987609863281 390.5 77.0 388.0 C 77.66987609863281 385.5 79.5 383.66986083984375 82.0 383.0 C 84.5 383.66986083984375 86.33012390136719 385.5 87.0 388.0" stroke-width="0.0" fill="rgb(253, 245, 227)" opacity="1.0" stroke="rgb(225, 131, 172)" stroke-opacity="0.20707238" stroke-linecap="round" stroke-linejoin="round"/>
    <path d="M 317.0 244.0 C 316.33013916015625 246.5 314.5 248.3301239013672 312.0 249.0 C 309.5 248.3301239013672 307.66986083984375 246.5 307.0 244.0 C 307.66986083984375 241.5 309.5 239.6698760986328 312.0 239.0 C 314.5 239.6698760986328 316.33013916015625 241.5 317.0 244.0" stroke-width="0.0" fill="rgb(29, 34, 52)" opacity="1.0" stroke="rgb(215, 63, 134)" stroke-opacity="0.5109356" stroke-linecap="round" stroke-linejoin="round"/>
    <path d="M 124.0 120.0 C 123.33012390136719 122.5 121.5 124.33012390136719 119.0 125.0 C 116.5 124.33012390136719 114.66987609863281 122.5 114.0 120.0 C 114.66987609863281 117.5 116.5 115.66987609863281 119.0 115.0 C 121.5 115.66987609863281 123.33012390136719 117.5 124.0 120.0" stroke-width="0.0" fill="rgb(254, 246, 228)" opacity="1.0" stroke="rgb(62, 162, 232)" stroke-opacity="0.59128255" stroke-linecap="round" stroke-linejoin="round"/>
    <path d="M 42.0 294.0 C 41.33012771606445 296.5 39.5 298.33013916015625 37.0 299.0 C 34.5 298.33013916015625 32.66987228393555 296.5 32.0 294.0 C 32.66987228393555 291.5 34.5 289.66986083984375 37.0 289.0 C 39.5 289.66986083984375 41.33012771606445 291.5 42.0 294.0" stroke-width="0.0" fill="rgb(229, 186, 161)" opacity="1.0" stroke="rgb(183, 197, 47)" stroke-opacity="0.4402247" stroke-linecap="round" stroke-linejoin="round"/>
  </g>
</svg>
