<?xml version="1.0" ?>
<svg xmlns="http://www.w3.org/2000/svg" version="1.1" width="512" height="512">
  <defs/>
  <g>
    <path d="M 218.68988037109375 136.3973388671875 C 198.14981079101562 139.75364685058594 207.8951873779297 105.75646209716797 205.3669891357422 119.36248779296875 C 106.41502380371094 146.9891357421875 152.8836212158203 160.0061798095703 0.8692250847816467 278.0783386230469 C 9.331019401550293 -70.85897064208984 56.31806182861328 -56.99794006347656 420.4371032714844 10.154029846191406 C 338.5909423828125 156.26658630371094 258.6269836425781 58.9656867980957 218.68988037109375 136.3973388671875" stroke-width="0.0" fill="rgb(34, 92, 163)" opacity="0.6428593" stroke="rgb(247, 92, 236)" stroke-opacity="0.40753144" stroke-linecap="round" stroke-linejoin="round"/>
    <path d="M 217.23269653320312 382.0376892089844 C 234.9854736328125 491.1496887207031 257.50762939453125 463.1314392089844 105.85598754882812 448.6876525878906 C 101.78760528564453 448.9721374511719 91.64997863769531 417.1495361328125 55.418968200683594 307.146484375 C 120.95970153808594 314.8782653808594 43.33540725708008 301.827392578125 108.19147491455078 181.49583435058594 C 146.68405151367188 312.70159912109375 176.9178466796875 350.42376708984375 217.23269653320312 382.0376892089844" stroke-width="0.0" fill="rgb(255, 254, 255)" opacity="0.5655375" stroke="rgb(55, 240, 61)" stroke-opacity="0.3829383" stroke-linecap="round" stroke-linejoin="round"/>
    <path d="M 380.28717041015625 247.92991638183594 C 365.70843505859375 360.2850036621094 289.9906311035156 382.00714111328125 405.27349853515625 417.917724609375 C 141.05067443847656 413.5515441894531 243.09425354003906 445.75189208984375 186.19020080566406 308.45709228515625 C 151.23199462890625 346.69464111328125 113.65617370605469 164.84002685546875 224.71791076660156 196.49783325195312 C 289.793212890625 289.7142028808594 268.7166442871094 99.06726837158203 380.28717041015625 247.92991638183594" stroke-width="0.0" fill="rgb(6, 105, 126)" opacity="0.62463015" stroke="rgb(253, 36, 91)" stroke-opacity="0.6166896" stroke-linecap="round" stroke-linejoin="round"/>
    <path d="M 438.0 322.0 C 437.33013916015625 324.5 435.5 326.33013916015625 433.0 327.0 C 430.5 326.33013916015625 428.66986083984375 324.5 428.0 322.0 C 428.66986083984375 319.5 430.5 317.66986083984375 433.0 317.0 C 435.5 317.66986083984375 437.33013916015625 319.5 438.0 322.0" stroke-width="0.0" fill="rgb(77, 123, 171)" opacity="1.0" stroke="rgb(199, 163, 7)" stroke-opacity="0.10454009" stroke-linecap="round" stroke-linejoin="round"/>
    <path d="M 384.0 221.0 C 383.33013916015625 223.5 381.5 225.3301239013672 379.0 226.0 C 376.5 225.3301239013672 374.66986083984375 223.5 374.0 221.0 C 374.66986083984375 218.5 376.5 216.6698760986328 379.0 216.0 C 381.5 216.6698760986328 383.33013916015625 218.5 384.0 221.0" stroke-width="0.0" fill="rgb(243, 239, 244)" opacity="1.0" stroke="rgb(71, 53, 35)" stroke-opacity="0.3497303" stroke-linecap="round" stroke-linejoin="round"/>
    <path d="M 167.0 176.0 C 166.3301239013672 178.5 164.5 180.3301239013672 162.0 181.0 C 159.5 180.3301239013672 157.6698760986328 178.5 157.0 176.0 C 157.6698760986328 173.5 159.5 171.6698760986328 162.0 171.0 C 164.5 171.6698760986328 166.3301239013672 173.5 167.0 176.0" stroke-width="0.0" fill="rgb(243, 240, 244)" opacity="1.0" stroke="rgb(81, 170, 89)" stroke-opacity="0.9459461" stroke-linecap="round" stroke-linejoin="round"/>
    <path d="M 404.0 401.0 C 403.33013916015625 403.5 401.5 405.33013916015625 399.0 406.0 C 396.5 405.33013916015625 394.66986083984375 403.5 394.0 401.0 C 394.66986083984375 398.5 396.5 396.66986083984375 399.0 396.0 C 401.5 396.66986083984375 403.33013916015625 398.5 404.0 401.0" stroke-width="0.0" fill="rgb(54, 38, 73)" opacity="1.0" stroke="rgb(164, 52, 65)" stroke-opacity="0.7148071" stroke-linecap="round" stroke-linejoin="round"/>
  </g>
</svg>
