<?xml version="1.0" ?>
<svg xmlns="http://www.w3.org/2000/svg" version="1.1" width="512" height="512">
  <defs/>
  <g>
    <path d="M 0.0 0.0 L 512.0 0.0 L 512.0 512.0 L 0.0 512.0 L 0.0 0.0" stroke-width="0.0" fill="rgb(255, 255, 255)" opacity="1.0" stroke="rgb(0, 0, 0)" stroke-opacity="0.0" stroke-linecap="round" stroke-linejoin="round"/>
    <path d="M 0.0 2.0 L 0.0 511.0 L 511.0 511.0 L 511.0 0.0 C 341.0 1.3268160820007324 171.0 -2.657927989959717 0.0 2.0" stroke-width="2.0" fill="rgb(255, 255, 255)" opacity="1.0" stroke="rgb(0, 0, 0)" stroke-opacity="0.0" stroke-linecap="round" stroke-linejoin="round"/>
    <path d="M 436.0 100.0 C 411.0 94.08595275878906 386.0 94.88045501708984 361.0 99.0 L 355.0 105.0 C 353.1153259277344 146.0 349.7262878417969 187.0 346.0 228.0 C 353.19195556640625 238.3024444580078 352.658203125 254.42758178710938 365.0 260.0 C 368.98431396484375 265.82159423828125 361.92828369140625 264.3396301269531 359.0 264.0 C 352.27587890625 280.5832824707031 334.60272216796875 285.17156982421875 322.0 285.0 C 309.0 290.4122009277344 296.0 290.7051086425781 283.0 297.0 C 283.5015563964844 306.4375305175781 309.5973205566406 298.4132080078125 300.0 314.0 C 295.49188232421875 316.45648193359375 282.0430908203125 312.8759765625 284.0 321.0 C 289.6666564941406 321.2126159667969 295.3333435058594 317.11688232421875 301.0 320.0 L 296.0 404.0 C 296.6788024902344 408.04241943359375 293.33868408203125 418.26727294921875 301.0 415.0 L 305.0 357.0 C 319.0 349.919677734375 333.0 351.00531005859375 347.0 348.0 C 352.4572448730469 351.34295654296875 349.1785888671875 359.2088623046875 355.0 358.0 C 356.2717590332031 354.0 352.3901672363281 350.0 356.0 346.0 L 381.0 342.0 C 388.7046813964844 359.6666564941406 388.6405944824219 377.3333435058594 396.0 395.0 L 400.0 393.0 C 393.14129638671875 358.3333435058594 383.16021728515625 323.6666564941406 378.0 289.0 C 387.26611328125 282.8369445800781 379.8782653808594 274.70220947265625 377.0 268.0 C 383.6666564941406 264.4469299316406 390.3333435058594 273.80059814453125 397.0 267.0 C 428.6126403808594 213.3333282470703 440.5660095214844 159.6666717529297 440.0 106.0 L 436.0 100.0" stroke-width="2.0" fill="rgb(170, 102, 45)" opacity="1.0" stroke="rgb(0, 0, 0)" stroke-opacity="0.0" stroke-linecap="round" stroke-linejoin="round"/>
    <path d="M 73.0 167.0 C 66.67849731445312 173.3907470703125 74.22284698486328 178.17677307128906 80.0 180.0 L 80.0 387.0 L 89.0 387.0 C 90.33089447021484 331.0 86.33659362792969 275.0 91.0 219.0 C 119.66666412353516 225.51998901367188 148.3333282470703 233.40968322753906 177.0 244.0 C 176.20787048339844 307.3333435058594 179.0853729248047 370.6666564941406 177.0 434.0 C 180.3333282470703 436.3802490234375 183.6666717529297 436.3802490234375 187.0 434.0 C 184.02243041992188 371.0 188.73464965820312 308.0 187.0 245.0 C 189.65762329101562 239.50279235839844 198.7926025390625 241.5029296875 200.0 245.0 C 199.05288696289062 240.9618377685547 203.93856811523438 241.45941162109375 206.0 240.0 L 272.0 237.0 L 275.0 240.0 L 274.0 414.0 L 280.0 415.0 L 280.0 204.0 C 282.3439636230469 196.80178833007812 290.739013671875 202.2189178466797 293.0 197.0 C 276.0 189.74720764160156 259.0 188.6439666748047 242.0 182.0 C 225.6666717529297 175.0852508544922 209.3333282470703 165.29757690429688 193.0 167.0 L 181.0 159.0 L 73.0 167.0" stroke-width="2.0" fill="rgb(154, 79, 31)" opacity="1.0" stroke="rgb(0, 0, 0)" stroke-opacity="0.0" stroke-linecap="round" stroke-linejoin="round"/>
    <path d="M 243.0 85.0 C 246.46861267089844 91.69202423095703 241.9609832763672 95.89322662353516 235.0 97.0 C 240.25653076171875 102.0668716430664 241.91397094726562 105.28126525878906 240.0 111.0 C 247.5407257080078 121.09257507324219 251.8972625732422 138.20755004882812 235.0 137.0 C 219.60406494140625 132.1610870361328 206.78384399414062 139.30528259277344 192.0 141.0 C 172.65435791015625 152.9430694580078 194.07273864746094 170.9580078125 207.0 165.0 C 234.3333282470703 177.2565460205078 261.6666564941406 188.69578552246094 289.0 192.0 C 300.37518310546875 197.62606811523438 289.6397399902344 201.6654815673828 284.0 202.0 L 282.0 207.0 C 284.15008544921875 235.6666717529297 279.2436218261719 264.3333435058594 284.0 293.0 C 305.0 287.99456787109375 326.0 283.5648193359375 347.0 277.0 C 365.381591796875 263.3125915527344 351.4559020996094 242.81832885742188 341.0 226.0 C 347.9854736328125 199.6666717529297 329.9221496582031 173.3333282470703 310.0 147.0 C 316.2011413574219 143.0 309.27825927734375 139.0 311.0 135.0 C 319.1709289550781 130.62570190429688 320.5330810546875 128.10179138183594 314.0 121.0 C 315.2687683105469 114.33333587646484 317.24127197265625 107.66666412353516 310.0 101.0 C 316.53094482421875 93.65807342529297 304.5326232910156 89.49967956542969 299.0 83.0 C 294.3540954589844 87.50455474853516 292.96282958984375 79.11566162109375 290.0 78.0 C 280.6666564941406 79.5206298828125 271.3333435058594 77.5766830444336 262.0 77.0 C 263.2705383300781 88.59471130371094 251.14817810058594 86.35382080078125 243.0 85.0" stroke-width="2.0" fill="rgb(151, 128, 123)" opacity="1.0" stroke="rgb(0, 0, 0)" stroke-opacity="0.0" stroke-linecap="round" stroke-linejoin="round"/>
    <path d="M 92.0 220.0 L 92.0 388.0 C 106.0 391.7431335449219 120.0 389.7478332519531 134.0 390.0 C 136.6235809326172 398.0043640136719 143.5041046142578 388.07574462890625 150.0 387.0 C 157.2978057861328 384.9691467285156 169.92140197753906 389.83056640625 170.0 378.0 C 171.6666717529297 376.27349853515625 173.3333282470703 374.1623840332031 175.0 375.0 L 175.0 283.0 C 164.07102966308594 270.0 178.65574645996094 257.0 175.0 244.0 L 92.0 220.0" stroke-width="2.0" fill="rgb(254, 191, 91)" opacity="1.0" stroke="rgb(0, 0, 0)" stroke-opacity="0.0" stroke-linecap="round" stroke-linejoin="round"/>
    <path d="M 429.0 98.0 C 405.6666564941406 95.47212982177734 382.3333435058594 94.09771728515625 359.0 100.0 L 354.0 107.0 C 354.7560119628906 147.3333282470703 349.6856384277344 187.6666717529297 346.0 228.0 L 358.0 255.0 C 370.0 260.63909912109375 382.0 269.2092590332031 394.0 269.0 C 415.5512390136719 239.6666717529297 422.8681335449219 210.3333282470703 432.0 181.0 C 436.814208984375 156.3333282470703 439.6549987792969 131.6666717529297 440.0 107.0 C 438.98773193359375 102.28753662109375 434.6537170410156 98.41414642333984 429.0 98.0" stroke-width="2.0" fill="rgb(173, 98, 41)" opacity="1.0" stroke="rgb(0, 0, 0)" stroke-opacity="0.0" stroke-linecap="round" stroke-linejoin="round"/>
    <path d="M 271.0 241.0 L 265.0 248.0 C 245.0 248.2548065185547 225.0 249.1258544921875 205.0 252.0 C 199.25531005859375 258.153076171875 192.25119018554688 253.3907928466797 188.0 260.0 C 192.66796875 284.3333435058594 178.2010040283203 308.6666564941406 199.0 333.0 C 197.4366912841797 342.0 191.25816345214844 351.0 188.0 360.0 L 188.0 391.0 C 196.96287536621094 395.681640625 187.159912109375 404.6554870605469 193.0 411.0 C 208.3333282470703 407.3504638671875 223.6666717529297 407.7958679199219 239.0 406.0 C 254.64418029785156 398.9725646972656 241.88929748535156 379.79315185546875 231.0 374.0 C 228.64865112304688 364.3333435058594 224.43362426757812 354.6666564941406 225.0 345.0 C 232.73146057128906 332.6666564941406 241.24383544921875 320.3333435058594 245.0 308.0 C 253.4125518798828 301.7740173339844 264.22540283203125 305.6155700683594 271.0 295.0 L 271.0 241.0" stroke-width="2.0" fill="rgb(187, 142, 127)" opacity="1.0" stroke="rgb(0, 0, 0)" stroke-opacity="0.0" stroke-linecap="round" stroke-linejoin="round"/>
    <path d="M 381.0 274.0 C 371.90838623046875 272.2572937011719 358.2471618652344 256.318603515625 355.0 271.0 L 344.0 280.0 C 323.3333435058594 286.7723083496094 302.6666564941406 287.5126647949219 282.0 297.0 C 285.0919189453125 304.6761779785156 295.6961975097656 301.4581604003906 302.0 304.0 L 296.0 408.0 C 295.3285827636719 410.6932067871094 295.9610595703125 418.1974792480469 301.0 415.0 C 303.5249328613281 394.6666564941406 301.4599914550781 374.3333435058594 307.0 354.0 L 348.0 348.0 C 354.3547058105469 356.9440002441406 351.1342468261719 352.3215026855469 355.0 346.0 L 381.0 342.0 C 388.45947265625 359.3333435058594 389.8213195800781 376.6666564941406 395.0 394.0 L 400.0 393.0 L 377.0 292.0 C 379.72662353515625 286.7264404296875 384.11376953125 282.2330627441406 381.0 274.0" stroke-width="2.0" fill="rgb(169, 111, 53)" opacity="1.0" stroke="rgb(0, 0, 0)" stroke-opacity="0.0" stroke-linecap="round" stroke-linejoin="round"/>
    <path d="M 263.0 268.0 C 253.0 264.45904541015625 243.0 266.4039001464844 233.0 268.0 C 228.54112243652344 261.20263671875 224.6988983154297 254.17234802246094 218.0 251.0 C 208.6666717529297 252.5795440673828 199.3333282470703 253.64476013183594 190.0 257.0 C 188.54396057128906 278.7113342285156 184.17645263671875 304.63360595703125 194.0 328.0 C 207.0871124267578 338.6666564941406 188.44500732421875 349.3333435058594 188.0 360.0 C 187.8556671142578 368.6666564941406 187.21226501464844 377.3333435058594 191.0 386.0 C 201.03976440429688 388.665771484375 202.43576049804688 363.0318908691406 212.0 369.0 C 210.44839477539062 379.4727478027344 222.60157775878906 373.06475830078125 225.0 382.0 L 231.0 379.0 C 227.7454833984375 361.3333435058594 216.77499389648438 343.6666564941406 237.0 326.0 L 244.0 308.0 C 252.3333282470703 300.6886901855469 260.6666564941406 304.77978515625 269.0 297.0 C 270.9487609863281 287.6666564941406 274.3763427734375 278.3333435058594 263.0 268.0" stroke-width="2.0" fill="rgb(240, 185, 166)" opacity="1.0" stroke="rgb(0, 0, 0)" stroke-opacity="0.0" stroke-linecap="round" stroke-linejoin="round"/>
    <path d="M 71.0 175.0 C 105.0 188.15216064453125 139.0 193.47335815429688 173.0 206.0 C 213.0 203.9458770751953 253.0 201.73956298828125 293.0 198.0 L 292.0 195.0 C 262.6666564941406 190.59954833984375 233.3333282470703 178.1228790283203 204.0 166.0 C 196.6666717529297 170.45240783691406 189.3333282470703 163.72964477539062 182.0 159.0 L 72.0 167.0 L 71.0 175.0" stroke-width="2.0" fill="rgb(164, 84, 32)" opacity="1.0" stroke="rgb(0, 0, 0)" stroke-opacity="0.0" stroke-linecap="round" stroke-linejoin="round"/>
    <path d="M 302.0 140.0 C 288.3944091796875 147.90599060058594 274.6354064941406 161.1329803466797 284.0 173.0 C 286.4546203613281 183.55563354492188 269.89691162109375 190.29466247558594 265.0 179.0 C 265.3827819824219 195.56809997558594 286.23101806640625 186.74203491210938 296.0 196.0 C 295.0535888671875 204.76869201660156 285.4698791503906 197.9667205810547 283.0 203.0 L 283.0 243.0 C 292.0 240.53118896484375 301.0 248.71141052246094 310.0 251.0 C 319.1498718261719 247.1945343017578 323.0370788574219 232.40399169921875 333.0 233.0 C 353.9452819824219 209.6666717529297 334.3641662597656 186.3333282470703 322.0 163.0 C 314.9921875 155.9906463623047 311.06640625 146.3458251953125 302.0 140.0" stroke-width="2.0" fill="rgb(242, 241, 241)" opacity="1.0" stroke="rgb(0, 0, 0)" stroke-opacity="0.0" stroke-linecap="round" stroke-linejoin="round"/>
    <path d="M 293.0 120.0 C 287.6960754394531 116.41818237304688 280.826416015625 103.62924194335938 277.0 112.0 C 271.0 108.98011779785156 265.0 112.70747375488281 259.0 109.0 C 255.474609375 113.34919738769531 247.5210723876953 112.83231353759766 247.0 121.0 C 244.81353759765625 130.6666717529297 253.63839721679688 140.3333282470703 249.0 150.0 C 234.4473114013672 152.3969268798828 221.07949829101562 124.14292907714844 207.0 141.0 C 197.49237060546875 138.52589416503906 180.7273406982422 144.91073608398438 186.0 158.0 C 195.11566162109375 174.15126037597656 214.00979614257812 155.34239196777344 220.0 170.0 C 234.3333282470703 175.89515686035156 248.6666717529297 183.54586791992188 263.0 184.0 C 262.40142822265625 181.6666717529297 262.38189697265625 179.3333282470703 264.0 177.0 C 271.0188903808594 188.87493896484375 286.0607604980469 181.309326171875 282.0 170.0 L 275.0 156.0 C 281.0 155.27505493164062 287.0 152.50656127929688 293.0 145.0 L 293.0 120.0" stroke-width="2.0" fill="rgb(226, 173, 157)" opacity="1.0" stroke="rgb(0, 0, 0)" stroke-opacity="0.0" stroke-linecap="round" stroke-linejoin="round"/>
    <path d="M 341.0 225.0 L 310.0 252.0 C 300.6666564941406 250.21653747558594 291.3333435058594 239.00521850585938 282.0 246.0 L 283.0 294.0 C 305.6666564941406 284.88348388671875 328.3333435058594 287.8149108886719 351.0 274.0 C 364.90423583984375 258.0 349.0992736816406 242.0 341.0 225.0" stroke-width="2.0" fill="rgb(22, 4, 4)" opacity="1.0" stroke="rgb(0, 0, 0)" stroke-opacity="0.0" stroke-linecap="round" stroke-linejoin="round"/>
    <path d="M 90.0 184.0 L 91.0 217.0 L 176.0 241.0 L 176.0 208.0 L 90.0 184.0" stroke-width="2.0" fill="rgb(173, 90, 33)" opacity="1.0" stroke="rgb(0, 0, 0)" stroke-opacity="0.0" stroke-linecap="round" stroke-linejoin="round"/>
    <path d="M 243.0 85.0 L 246.0 93.0 L 235.0 97.0 C 236.2888641357422 100.23614501953125 239.34361267089844 102.030029296875 242.0 103.0 C 238.1688690185547 108.66666412353516 240.73822021484375 114.33333587646484 245.0 120.0 C 247.33309936523438 115.8757553100586 255.30502319335938 111.0570297241211 260.0 108.0 C 266.3333435058594 113.6932601928711 272.6666564941406 108.4703369140625 279.0 112.0 C 277.6175231933594 103.32414245605469 291.4734802246094 114.46992492675781 289.0 119.0 C 298.9371032714844 115.4248046875 290.2004089355469 130.28515625 296.0 133.0 L 292.0 141.0 C 297.0169677734375 143.67501831054688 304.6439514160156 134.876708984375 308.0 144.0 C 316.2815246582031 147.85496520996094 310.4286193847656 138.46665954589844 310.0 135.0 C 313.3333435058594 130.54554748535156 316.6666564941406 131.40414428710938 320.0 130.0 C 306.9775085449219 120.66666412353516 321.53106689453125 111.33333587646484 310.0 102.0 C 308.9410705566406 99.33333587646484 312.1053161621094 96.66666412353516 313.0 94.0 C 306.47430419921875 94.11167907714844 297.16412353515625 74.86234283447266 296.0 88.0 C 293.4840087890625 82.2654800415039 291.0835266113281 74.28720092773438 284.0 80.0 C 276.6666564941406 75.60455322265625 269.3333435058594 79.62515258789062 262.0 77.0 C 265.226318359375 88.20325469970703 250.88059997558594 87.77790832519531 243.0 85.0" stroke-width="2.0" fill="rgb(29, 10, 8)" opacity="1.0" stroke="rgb(0, 0, 0)" stroke-opacity="0.0" stroke-linecap="round" stroke-linejoin="round"/>
    <path d="M 180.0 207.0 L 177.0 209.0 L 177.0 435.0 L 187.0 435.0 L 187.0 209.0 C 185.0 205.99215698242188 183.0 207.22792053222656 180.0 207.0" stroke-width="2.0" fill="rgb(145, 74, 29)" opacity="1.0" stroke="rgb(0, 0, 0)" stroke-opacity="0.0" stroke-linecap="round" stroke-linejoin="round"/>
    <path d="M 218.0 251.0 C 208.0 251.9505157470703 198.0 253.60984802246094 188.0 258.0 C 191.4073028564453 283.0 179.4449005126953 308.0 198.0 333.0 C 204.5441131591797 325.3259582519531 207.9629364013672 313.3388671875 213.0 304.0 L 206.0 291.0 C 210.3333282470703 286.97174072265625 214.6666717529297 291.40643310546875 219.0 290.0 C 220.68753051757812 282.661376953125 218.3527374267578 268.10174560546875 231.0 267.0 C 230.9605255126953 262.464111328125 224.6165771484375 253.27919006347656 218.0 251.0" stroke-width="2.0" fill="rgb(243, 188, 170)" opacity="1.0" stroke="rgb(0, 0, 0)" stroke-opacity="0.0" stroke-linecap="round" stroke-linejoin="round"/>
    <path d="M 80.0 181.0 L 80.0 387.0 L 89.0 388.0 L 89.0 184.0 C 86.33333587646484 181.18824768066406 83.66666412353516 181.11578369140625 80.0 181.0" stroke-width="2.0" fill="rgb(139, 71, 31)" opacity="1.0" stroke="rgb(0, 0, 0)" stroke-opacity="0.0" stroke-linecap="round" stroke-linejoin="round"/>
    <path d="M 275.0 201.0 C 272.68988037109375 272.6666564941406 273.93865966796875 344.3333435058594 274.0 416.0 L 281.0 416.0 L 281.0 202.0 L 275.0 201.0" stroke-width="2.0" fill="rgb(132, 70, 32)" opacity="1.0" stroke="rgb(0, 0, 0)" stroke-opacity="0.0" stroke-linecap="round" stroke-linejoin="round"/>
    <path d="M 382.0 275.0 L 359.0 264.0 C 356.1802978515625 270.4831848144531 348.6722106933594 278.579345703125 342.0 281.0 C 322.6666564941406 285.3397216796875 303.3333435058594 289.63226318359375 284.0 295.0 L 282.0 299.0 C 304.3333435058594 308.5270690917969 326.6666564941406 297.47308349609375 349.0 296.0 L 381.0 287.0 L 382.0 275.0" stroke-width="2.0" fill="rgb(147, 76, 32)" opacity="1.0" stroke="rgb(0, 0, 0)" stroke-opacity="0.0" stroke-linecap="round" stroke-linejoin="round"/>
    <path d="M 244.0 387.0 C 241.69467163085938 383.35760498046875 240.77548217773438 380.4922790527344 237.0 378.0 C 232.96449279785156 377.66387939453125 221.07296752929688 389.388671875 222.0 378.0 L 212.0 377.0 C 210.94122314453125 390.17266845703125 196.42440795898438 385.6502685546875 188.0 388.0 L 188.0 411.0 C 205.6666717529297 407.70050048828125 223.3333282470703 407.48675537109375 241.0 405.0 C 249.3590850830078 401.10247802734375 245.4129638671875 393.5007629394531 244.0 387.0" stroke-width="2.0" fill="rgb(53, 38, 37)" opacity="1.0" stroke="rgb(0, 0, 0)" stroke-opacity="0.0" stroke-linecap="round" stroke-linejoin="round"/>
    <path d="M 175.0 379.0 C 171.01690673828125 376.33209228515625 172.29183959960938 384.8591613769531 169.0 387.0 C 156.04202270507812 385.4809265136719 127.02674865722656 393.39556884765625 133.0 413.0 C 146.6666717529297 422.6031799316406 160.3333282470703 413.03741455078125 174.0 413.0 L 175.0 379.0" stroke-width="2.0" fill="rgb(149, 141, 138)" opacity="1.0" stroke="rgb(0, 0, 0)" stroke-opacity="0.0" stroke-linecap="round" stroke-linejoin="round"/>
    <path d="M 366.0 293.0 C 359.0 296.4571228027344 352.0 296.475830078125 345.0 299.0 C 348.3521728515625 312.0357971191406 348.9305419921875 327.6182556152344 356.0 339.0 L 378.0 335.0 C 374.5795593261719 321.6324768066406 374.32403564453125 305.7128601074219 366.0 293.0" stroke-width="2.0" fill="rgb(252, 191, 92)" opacity="1.0" stroke="rgb(0, 0, 0)" stroke-opacity="0.0" stroke-linecap="round" stroke-linejoin="round"/>
    <path d="M 203.0 387.0 C 209.137451171875 391.5694885253906 215.4264678955078 399.73516845703125 209.0 407.0 C 221.3333282470703 405.65228271484375 233.6666717529297 410.6631164550781 246.0 401.0 C 246.18063354492188 393.56793212890625 244.67239379882812 383.8015441894531 237.0 378.0 C 232.12149047851562 376.0027770996094 224.23098754882812 389.4497985839844 222.0 378.0 C 216.1326904296875 377.68865966796875 208.1683349609375 376.1874694824219 210.0 385.0 L 203.0 387.0" stroke-width="2.0" fill="rgb(38, 21, 20)" opacity="1.0" stroke="rgb(0, 0, 0)" stroke-opacity="0.0" stroke-linecap="round" stroke-linejoin="round"/>
    <path d="M 270.0 272.0 L 270.0 242.0 L 265.0 248.0 L 222.0 250.0 L 233.0 266.0 C 244.67030334472656 264.95819091796875 258.9951477050781 260.022216796875 270.0 272.0" stroke-width="2.0" fill="rgb(22, 4, 4)" opacity="1.0" stroke="rgb(0, 0, 0)" stroke-opacity="0.0" stroke-linecap="round" stroke-linejoin="round"/>
    <path d="M 308.0 303.0 L 302.0 304.0 C 300.614501953125 341.3333435058594 296.10919189453125 378.6666564941406 297.0 416.0 L 301.0 416.0 C 303.422119140625 378.6666564941406 306.9512634277344 341.3333435058594 308.0 303.0" stroke-width="2.0" fill="rgb(122, 62, 29)" opacity="1.0" stroke="rgb(0, 0, 0)" stroke-opacity="0.0" stroke-linecap="round" stroke-linejoin="round"/>
    <path d="M 372.0 290.0 L 371.0 296.0 L 396.0 395.0 C 397.7720642089844 393.429931640625 401.0078430175781 394.1453552246094 400.0 391.0 L 377.0 290.0 L 372.0 290.0" stroke-width="2.0" fill="rgb(123, 64, 29)" opacity="1.0" stroke="rgb(0, 0, 0)" stroke-opacity="0.0" stroke-linecap="round" stroke-linejoin="round"/>
    <path d="M 265.0 186.0 C 261.94769287109375 177.6666717529297 261.7016296386719 169.3333282470703 251.0 161.0 C 237.0 162.3000030517578 223.0 162.96328735351562 209.0 166.0 C 227.3333282470703 173.6484375 245.6666717529297 181.96974182128906 265.0 186.0" stroke-width="2.0" fill="rgb(237, 180, 163)" opacity="1.0" stroke="rgb(0, 0, 0)" stroke-opacity="0.0" stroke-linecap="round" stroke-linejoin="round"/>
    <path d="M 133.0 403.0 C 131.25347900390625 408.3932800292969 134.94784545898438 413.4660949707031 141.0 414.0 C 149.0 414.1294860839844 157.0 413.0099792480469 165.0 410.0 C 168.9010467529297 392.46240234375 144.029296875 382.49078369140625 133.0 403.0" stroke-width="2.0" fill="rgb(231, 230, 228)" opacity="1.0" stroke="rgb(0, 0, 0)" stroke-opacity="0.0" stroke-linecap="round" stroke-linejoin="round"/>
    <path d="M 269.0 238.0 L 202.0 242.0 L 202.0 251.0 C 222.6666717529297 247.84129333496094 243.3333282470703 246.84017944335938 264.0 247.0 L 269.0 238.0" stroke-width="2.0" fill="rgb(235, 182, 96)" opacity="1.0" stroke="rgb(0, 0, 0)" stroke-opacity="0.0" stroke-linecap="round" stroke-linejoin="round"/>
    <path d="M 273.0 206.0 L 272.0 202.0 C 244.999267578125 203.2550048828125 215.3343048095703 202.51377868652344 190.0 208.0 L 272.0 210.0 L 273.0 206.0" stroke-width="2.0" fill="rgb(25, 4, 3)" opacity="1.0" stroke="rgb(0, 0, 0)" stroke-opacity="0.0" stroke-linecap="round" stroke-linejoin="round"/>
    <path d="M 272.0 298.0 L 267.0 302.0 C 266.6297912597656 327.3333435058594 263.3595275878906 352.6666564941406 264.0 378.0 L 268.0 377.0 C 269.25262451171875 351.0 272.7394104003906 325.0 272.0 298.0" stroke-width="2.0" fill="rgb(37, 17, 8)" opacity="1.0" stroke="rgb(0, 0, 0)" stroke-opacity="0.0" stroke-linecap="round" stroke-linejoin="round"/>
    <path d="M 381.0 338.0 C 356.0 339.7397155761719 331.0 345.06304931640625 306.0 350.0 L 306.0 354.0 C 331.0 351.31005859375 356.0 345.49493408203125 381.0 342.0 L 381.0 338.0" stroke-width="2.0" fill="rgb(114, 60, 27)" opacity="1.0" stroke="rgb(0, 0, 0)" stroke-opacity="0.0" stroke-linecap="round" stroke-linejoin="round"/>
    <path d="M 223.0 348.0 C 211.65164184570312 356.7783203125 205.72659301757812 379.63336181640625 222.0 376.0 C 224.65225219726562 381.918701171875 224.79733276367188 383.45806884765625 231.0 380.0 C 230.45156860351562 369.6666564941406 224.7082061767578 359.3333435058594 223.0 348.0" stroke-width="2.0" fill="rgb(227, 178, 162)" opacity="1.0" stroke="rgb(0, 0, 0)" stroke-opacity="0.0" stroke-linecap="round" stroke-linejoin="round"/>
    <path d="M 200.0 385.0 C 196.0 388.57763671875 192.0 387.813720703125 188.0 388.0 L 189.0 411.0 C 204.1916046142578 414.5351257324219 203.43817138671875 395.4302062988281 200.0 385.0" stroke-width="2.0" fill="rgb(35, 21, 20)" opacity="1.0" stroke="rgb(0, 0, 0)" stroke-opacity="0.0" stroke-linecap="round" stroke-linejoin="round"/>
    <path d="M 270.0 304.0 C 264.41461181640625 326.0012512207031 265.8196105957031 352.3323974609375 265.0 376.0 C 270.1221618652344 352.3333435058594 272.1234436035156 328.6666564941406 270.0 304.0" stroke-width="2.0" fill="rgb(21, 5, 2)" opacity="1.0" stroke="rgb(0, 0, 0)" stroke-opacity="0.0" stroke-linecap="round" stroke-linejoin="round"/>
    <path d="M 339.0 298.0 C 337.2318420410156 311.3333435058594 345.089111328125 324.6666564941406 346.0 338.0 C 347.2043151855469 340.6123352050781 347.8123474121094 343.00433349609375 351.0 342.0 C 352.3089904785156 328.6666564941406 344.9678649902344 315.3333435058594 344.0 302.0 C 342.429931640625 300.2279357910156 343.1453552246094 296.9921569824219 339.0 298.0" stroke-width="2.0" fill="rgb(38, 16, 9)" opacity="1.0" stroke="rgb(0, 0, 0)" stroke-opacity="0.0" stroke-linecap="round" stroke-linejoin="round"/>
    <path d="M 283.0 301.0 L 283.0 316.0 C 291.1251220703125 313.94189453125 303.9168701171875 315.78387451171875 300.0 304.0 C 294.6666564941406 304.9259948730469 289.3333435058594 302.79766845703125 283.0 301.0" stroke-width="2.0" fill="rgb(239, 185, 98)" opacity="1.0" stroke="rgb(0, 0, 0)" stroke-opacity="0.0" stroke-linecap="round" stroke-linejoin="round"/>
    <path d="M 208.0 137.0 C 211.5285186767578 148.81393432617188 226.62147521972656 143.67755126953125 235.0 146.0 C 228.32424926757812 133.89700317382812 217.3401336669922 135.2716064453125 208.0 137.0" stroke-width="2.0" fill="rgb(202, 152, 134)" opacity="1.0" stroke="rgb(0, 0, 0)" stroke-opacity="0.0" stroke-linecap="round" stroke-linejoin="round"/>
    <path d="M 250.0 148.0 L 247.0 134.0 C 240.3333282470703 135.99581909179688 233.6666717529297 137.29669189453125 227.0 137.0 C 236.51223754882812 141.87249755859375 239.90298461914062 149.40789794921875 250.0 148.0" stroke-width="2.0" fill="rgb(40, 20, 18)" opacity="1.0" stroke="rgb(0, 0, 0)" stroke-opacity="0.0" stroke-linecap="round" stroke-linejoin="round"/>
    <path d="M 340.0 309.0 C 329.6666564941406 305.7127380371094 319.3333435058594 312.3521423339844 309.0 312.0 L 309.0 317.0 L 340.0 312.0 L 340.0 309.0" stroke-width="2.0" fill="rgb(39, 17, 8)" opacity="1.0" stroke="rgb(0, 0, 0)" stroke-opacity="0.0" stroke-linecap="round" stroke-linejoin="round"/>
    <path d="M 203.0 389.0 C 204.1766815185547 396.1907653808594 197.68515014648438 412.0180969238281 211.0 404.0 C 211.4046630859375 399.3142395019531 210.57786560058594 392.0256042480469 203.0 389.0" stroke-width="2.0" fill="rgb(203, 201, 201)" opacity="1.0" stroke="rgb(0, 0, 0)" stroke-opacity="0.0" stroke-linecap="round" stroke-linejoin="round"/>
    <path d="M 358.0 257.0 C 354.1800842285156 263.25048828125 382.0279235839844 276.282470703125 375.0 264.0 L 358.0 257.0" stroke-width="2.0" fill="rgb(166, 113, 67)" opacity="1.0" stroke="rgb(0, 0, 0)" stroke-opacity="0.0" stroke-linecap="round" stroke-linejoin="round"/>
    <path d="M 209.0 368.0 C 202.14881896972656 374.32000732421875 197.32537841796875 389.232421875 209.0 384.0 C 208.212890625 377.91217041015625 214.42486572265625 374.93157958984375 209.0 368.0" stroke-width="2.0" fill="rgb(235, 187, 108)" opacity="1.0" stroke="rgb(0, 0, 0)" stroke-opacity="0.0" stroke-linecap="round" stroke-linejoin="round"/>
    <path d="M 206.0 290.0 C 207.9118194580078 293.6952819824219 210.4313201904297 299.9615783691406 214.0 302.0 C 217.3323974609375 298.0 219.42935180664062 294.0 219.0 290.0 L 206.0 290.0" stroke-width="2.0" fill="rgb(157, 113, 65)" opacity="1.0" stroke="rgb(0, 0, 0)" stroke-opacity="0.0" stroke-linecap="round" stroke-linejoin="round"/>
    <path d="M 211.0 377.0 C 203.56851196289062 388.77398681640625 226.38534545898438 388.143310546875 223.0 377.0 L 211.0 377.0" stroke-width="2.0" fill="rgb(33, 12, 9)" opacity="1.0" stroke="rgb(0, 0, 0)" stroke-opacity="0.0" stroke-linecap="round" stroke-linejoin="round"/>
    <path d="M 193.0 242.0 C 193.1056365966797 247.93722534179688 190.79092407226562 257.6766357421875 200.0 253.0 C 202.48548889160156 246.82754516601562 202.02215576171875 239.32635498046875 193.0 242.0" stroke-width="2.0" fill="rgb(30, 8, 3)" opacity="1.0" stroke="rgb(0, 0, 0)" stroke-opacity="0.0" stroke-linecap="round" stroke-linejoin="round"/>
    <path d="M 301.0 314.0 C 295.1340637207031 316.1033935546875 281.55706787109375 313.12030029296875 282.0 321.0 C 287.7531433105469 319.81365966796875 300.08251953125 321.7010192871094 301.0 314.0" stroke-width="2.0" fill="rgb(40, 14, 7)" opacity="1.0" stroke="rgb(0, 0, 0)" stroke-opacity="0.0" stroke-linecap="round" stroke-linejoin="round"/>
    <path d="M 172.0 377.0 C 170.35061645507812 382.6601257324219 167.3582000732422 389.5587463378906 176.0 390.0 C 177.05130004882812 385.5926513671875 179.64266967773438 375.3742980957031 172.0 377.0" stroke-width="2.0" fill="rgb(27, 8, 5)" opacity="1.0" stroke="rgb(0, 0, 0)" stroke-opacity="0.0" stroke-linecap="round" stroke-linejoin="round"/>
    <path d="M 176.0 261.0 C 168.65280151367188 268.0 172.92926025390625 275.0 176.0 282.0 L 176.0 261.0" stroke-width="2.0" fill="rgb(156, 120, 102)" opacity="1.0" stroke="rgb(0, 0, 0)" stroke-opacity="0.0" stroke-linecap="round" stroke-linejoin="round"/>
    <path d="M 349.0 347.0 C 350.1880187988281 350.74932861328125 349.2454833984375 361.79473876953125 356.0 358.0 C 354.1855163574219 353.970458984375 356.259033203125 345.1627502441406 349.0 347.0" stroke-width="2.0" fill="rgb(45, 19, 8)" opacity="1.0" stroke="rgb(0, 0, 0)" stroke-opacity="0.0" stroke-linecap="round" stroke-linejoin="round"/>
    <path d="M 368.0 261.0 C 362.40252685546875 266.67474365234375 379.617431640625 275.27801513671875 377.0 266.0 L 368.0 261.0" stroke-width="2.0" fill="rgb(122, 64, 35)" opacity="1.0" stroke="rgb(0, 0, 0)" stroke-opacity="0.0" stroke-linecap="round" stroke-linejoin="round"/>
    <path d="M 193.0 328.0 L 193.0 346.0 C 197.46673583984375 340.3333435058594 199.62091064453125 334.6666564941406 193.0 328.0" stroke-width="2.0" fill="rgb(27, 7, 3)" opacity="1.0" stroke="rgb(0, 0, 0)" stroke-opacity="0.0" stroke-linecap="round" stroke-linejoin="round"/>
    <path d="M 296.0 195.0 C 303.0 197.03546142578125 310.0 204.00978088378906 317.0 205.0 C 310.3333435058594 200.24612426757812 303.6666564941406 195.3638458251953 296.0 195.0" stroke-width="2.0" fill="rgb(165, 165, 166)" opacity="1.0" stroke="rgb(0, 0, 0)" stroke-opacity="0.0" stroke-linecap="round" stroke-linejoin="round"/>
    <path d="M 191.0 243.0 C 186.18299865722656 242.068359375 186.0535888671875 258.5398864746094 192.0 253.0 L 191.0 243.0" stroke-width="2.0" fill="rgb(229, 181, 108)" opacity="1.0" stroke="rgb(0, 0, 0)" stroke-opacity="0.0" stroke-linecap="round" stroke-linejoin="round"/>
    <path d="M 175.0 263.0 C 171.2258758544922 267.6857604980469 172.79647827148438 274.9743957519531 176.0 278.0 L 175.0 263.0" stroke-width="2.0" fill="rgb(190, 156, 142)" opacity="1.0" stroke="rgb(0, 0, 0)" stroke-opacity="0.0" stroke-linecap="round" stroke-linejoin="round"/>
    <path d="M 174.0 264.0 C 172.1302490234375 268.6666564941406 172.5948486328125 273.3333435058594 175.0 278.0 L 174.0 264.0" stroke-width="2.0" fill="rgb(180, 144, 131)" opacity="1.0" stroke="rgb(0, 0, 0)" stroke-opacity="0.0" stroke-linecap="round" stroke-linejoin="round"/>
    <path d="M 252.0 97.0 C 241.56771850585938 99.22647857666016 254.01730346679688 107.18708038330078 252.0 97.0" stroke-width="2.0" fill="rgb(121, 99, 80)" opacity="1.0" stroke="rgb(0, 0, 0)" stroke-opacity="0.0" stroke-linecap="round" stroke-linejoin="round"/>
    <path d="M 237.0 138.0 C 235.46095275878906 141.12901306152344 235.21852111816406 145.3411407470703 239.0 147.0 C 240.43792724609375 144.3333282470703 237.73422241210938 141.6666717529297 237.0 138.0" stroke-width="2.0" fill="rgb(156, 132, 125)" opacity="1.0" stroke="rgb(0, 0, 0)" stroke-opacity="0.0" stroke-linecap="round" stroke-linejoin="round"/>
    <path d="M 174.0 265.0 C 172.63583374023438 267.7139587402344 172.09375 272.9361877441406 175.0 274.0 L 174.0 265.0" stroke-width="2.0" fill="rgb(196, 159, 146)" opacity="1.0" stroke="rgb(0, 0, 0)" stroke-opacity="0.0" stroke-linecap="round" stroke-linejoin="round"/>
    <path d="M 189.0 360.0 L 189.0 360.0" stroke-width="2.0" fill="rgb(248, 205, 179)" opacity="1.0" stroke="rgb(0, 0, 0)" stroke-opacity="0.0" stroke-linecap="round" stroke-linejoin="round"/>
    <path d="M 178.0 272.0 C 177.2150421142578 278.05810546875 179.40260314941406 280.4516906738281 178.0 272.0" stroke-width="2.0" fill="rgb(136, 73, 43)" opacity="1.0" stroke="rgb(0, 0, 0)" stroke-opacity="0.0" stroke-linecap="round" stroke-linejoin="round"/>
    <path d="M 195.0 347.0 C 190.9332275390625 347.93212890625 194.78628540039062 354.2020263671875 195.0 347.0" stroke-width="2.0" fill="rgb(225, 184, 167)" opacity="1.0" stroke="rgb(0, 0, 0)" stroke-opacity="0.0" stroke-linecap="round" stroke-linejoin="round"/>
    <path d="M 189.0 237.0 C 187.6171417236328 240.69354248046875 196.54139709472656 237.6967010498047 189.0 237.0" stroke-width="2.0" fill="rgb(174, 91, 36)" opacity="1.0" stroke="rgb(0, 0, 0)" stroke-opacity="0.0" stroke-linecap="round" stroke-linejoin="round"/>
  </g>
</svg>
