<?xml version="1.0" ?>
<svg xmlns="http://www.w3.org/2000/svg" version="1.1" width="512" height="365">
  <defs/>
  <g>
    <path d="M 239.16156005859375 -77.80045318603516 C 204.2874755859375 -10.350914001464844 211.7758331298828 45.2276496887207 220.9143524169922 259.22821044921875 C 107.98511505126953 235.5321502685547 168.117431640625 187.39491271972656 167.41104125976562 125.00261688232422 C 234.32957458496094 39.0258903503418 206.07720947265625 155.6523895263672 215.31727600097656 0.28164997696876526 C 250.94419860839844 -5.341184616088867 255.4472198486328 -2.6907622814178467 239.16156005859375 -77.80045318603516" stroke-width="0.0" fill="rgb(0, 20, 55)" opacity="0.6911582" stroke="rgb(18, 157, 30)" stroke-opacity="0.06094129" stroke-linecap="round" stroke-linejoin="round"/>
    <path d="M 310.5351257324219 246.29078674316406 C 257.43084716796875 167.70925903320312 443.6225891113281 71.38388061523438 538.8206787109375 360.9814147949219 C 32.6080436706543 433.0395812988281 17.24579620361328 357.7257080078125 122.12931060791016 239.47216796875 C 312.8971252441406 392.970947265625 210.94284057617188 153.9677276611328 278.64459228515625 186.87283325195312 C 293.4925842285156 273.8144836425781 260.6078186035156 208.88194274902344 310.5351257324219 246.29078674316406" stroke-width="0.0" fill="rgb(41, 38, 57)" opacity="0.9926626" stroke="rgb(197, 6, 74)" stroke-opacity="0.9180779" stroke-linecap="round" stroke-linejoin="round"/>
    <path d="M 318.8796691894531 120.09754180908203 C 320.25836181640625 148.65220642089844 296.71844482421875 170.58209228515625 269.58514404296875 170.66236877441406 C 241.06884765625 169.65565490722656 221.5921630859375 148.18423461914062 220.64004516601562 122.95030212402344 C 222.9556121826172 92.98432922363281 237.39675903320312 77.02723693847656 264.1751708984375 72.29218292236328 C 296.04486083984375 69.14456176757812 319.29595947265625 93.96666717529297 318.8796691894531 120.09754180908203" stroke-width="0.0" fill="rgb(255, 255, 204)" opacity="0.85411435" stroke="rgb(93, 253, 203)" stroke-opacity="0.60944885" stroke-linecap="round" stroke-linejoin="round"/>
    <path d="M 117.15441131591797 274.598388671875 C 96.82262420654297 371.5483703613281 97.59306335449219 375.4122314453125 92.04222869873047 377.7652282714844 C -1.85761296749115 378.4929504394531 -6.272696018218994 378.4834899902344 -12.312899589538574 371.7259216308594 C -14.574088096618652 274.4999694824219 -21.569067001342773 257.9849853515625 13.625795364379883 239.5952911376953 C 177.11102294921875 191.4424285888672 182.21656799316406 189.7469940185547 117.15441131591797 274.598388671875" stroke-width="0.0" fill="rgb(56, 17, 60)" opacity="0.3171412" stroke="rgb(72, 118, 220)" stroke-opacity="0.45609048" stroke-linecap="round" stroke-linejoin="round"/>
    <path d="M 521.310546875 231.17738342285156 C 520.8910522460938 309.23577880859375 492.4033508300781 276.2264709472656 457.6820068359375 294.60614013671875 C 401.1133728027344 310.3422546386719 431.8785095214844 311.0298767089844 419.9584045410156 252.8697967529297 C 418.48944091796875 187.1246337890625 437.79443359375 249.00927734375 429.44219970703125 188.57276916503906 C 468.76177978515625 212.02142333984375 515.1940307617188 195.07830810546875 521.310546875 231.17738342285156" stroke-width="0.0" fill="rgb(218, 76, 71)" opacity="0.8011976" stroke="rgb(156, 111, 48)" stroke-opacity="0.23960486" stroke-linecap="round" stroke-linejoin="round"/>
    <path d="M 320.700927734375 304.2263488769531 C 324.5804748535156 313.9145202636719 319.6024169921875 319.12127685546875 293.5616455078125 313.5591125488281 C 261.0505676269531 322.816650390625 283.1529235839844 304.7565612792969 276.9488525390625 258.1484375 C 264.1623229980469 197.2469940185547 282.6481018066406 267.1331481933594 304.2304992675781 232.7320098876953 C 326.5623474121094 184.48797607421875 305.73565673828125 218.1878204345703 320.700927734375 304.2263488769531" stroke-width="0.0" fill="rgb(194, 79, 69)" opacity="1.0" stroke="rgb(92, 199, 225)" stroke-opacity="0.33074307" stroke-linecap="round" stroke-linejoin="round"/>
    <path d="M 435.7066955566406 165.51611328125 C 427.3193664550781 203.23626708984375 447.5312805175781 208.0205535888672 371.8688049316406 191.7984161376953 C 389.390625 134.23231506347656 371.817138671875 137.90777587890625 391.7923278808594 126.86070251464844 C 344.0626525878906 103.91201782226562 388.5174560546875 68.627685546875 403.0030822753906 96.96500396728516 C 397.0474548339844 137.79586791992188 425.6588439941406 98.27297973632812 435.7066955566406 165.51611328125" stroke-width="0.0" fill="rgb(30, 34, 56)" opacity="1.0" stroke="rgb(234, 154, 95)" stroke-opacity="0.379373" stroke-linecap="round" stroke-linejoin="round"/>
  </g>
</svg>
