<?xml version="1.0" ?>
<svg xmlns="http://www.w3.org/2000/svg" version="1.1" width="512" height="365">
  <defs/>
  <g>
    <path d="M 240.9456024169922 -72.13230895996094 C 202.4283447265625 -5.045378684997559 211.7575225830078 43.775875091552734 220.3675537109375 258.12762451171875 C 106.45368194580078 231.76678466796875 170.052001953125 186.45042419433594 167.32130432128906 123.68385314941406 C 234.73431396484375 47.39518356323242 204.41094970703125 138.54495239257812 215.36082458496094 0.273906409740448 C 251.21141052246094 -4.994871616363525 255.45045471191406 -2.682180881500244 240.9456024169922 -72.13230895996094" stroke-width="0.0" fill="rgb(0, 20, 55)" opacity="0.67952" stroke="rgb(18, 157, 30)" stroke-opacity="0.06094129" stroke-linecap="round" stroke-linejoin="round"/>
    <path d="M 303.8136291503906 224.878662109375 C 282.8993225097656 168.2339324951172 459.5208435058594 49.040565490722656 518.3561401367188 363.3780822753906 C 43.698585510253906 425.9248046875 28.292009353637695 349.3255920410156 155.43148803710938 237.91249084472656 C 303.3067626953125 345.6484680175781 214.4661865234375 171.51844787597656 277.3992614746094 184.47116088867188 C 296.0671691894531 268.15020751953125 262.4427185058594 239.88079833984375 303.8136291503906 224.878662109375" stroke-width="0.0" fill="rgb(95, 56, 60)" opacity="0.9844098" stroke="rgb(197, 6, 74)" stroke-opacity="0.9180779" stroke-linecap="round" stroke-linejoin="round"/>
    <path d="M 319.0184020996094 119.5300521850586 C 320.31536865234375 149.4663848876953 296.2218017578125 170.09097290039062 270.4244384765625 170.66978454589844 C 240.6408233642578 169.99888610839844 221.93734741210938 148.62559509277344 220.34716796875 123.22411346435547 C 223.8904571533203 92.33148193359375 237.181884765625 75.39031982421875 267.6451416015625 72.0257568359375 C 295.8734436035156 70.81749725341797 318.8825378417969 92.81989288330078 319.0184020996094 119.5300521850586" stroke-width="0.0" fill="rgb(255, 254, 198)" opacity="0.88305765" stroke="rgb(93, 253, 203)" stroke-opacity="0.60944885" stroke-linecap="round" stroke-linejoin="round"/>
  </g>
</svg>
