<?xml version="1.0" ?>
<svg xmlns="http://www.w3.org/2000/svg" version="1.1" width="398" height="512">
  <defs/>
  <g>
    <path d="M 273.04876708984375 202.50808715820312 C 223.12313842773438 239.81541442871094 231.38446044921875 264.1900939941406 206.94210815429688 251.4377899169922 C 214.1485595703125 248.53411865234375 157.97711181640625 220.6891632080078 129.50230407714844 211.03851318359375 C 173.74029541015625 179.6031494140625 128.99728393554688 265.7478332519531 256.0491027832031 211.28433227539062 C 213.54393005371094 189.11106872558594 282.03900146484375 162.02293395996094 273.04876708984375 202.50808715820312" stroke-width="0.0" fill="rgb(251, 0, 119)" opacity="0.68027604" stroke="rgb(93, 200, 27)" stroke-opacity="0.8444437" stroke-linecap="round" stroke-linejoin="round"/>
    <path d="M 116.13284301757812 209.13796997070312 C 119.80547332763672 183.3749542236328 98.98426818847656 212.66392517089844 89.07180786132812 209.2667694091797 C 28.364957809448242 220.5331573486328 161.4020233154297 359.2698669433594 4.676889896392822 401.70440673828125 C -43.64242935180664 -50.727783203125 -88.01499938964844 -40.28776931762695 287.31878662109375 -2.5023586750030518 C 219.61814880371094 156.46170043945312 108.69141387939453 101.17111206054688 116.13284301757812 209.13796997070312" stroke-width="0.0" fill="rgb(249, 255, 254)" opacity="0.916786" stroke="rgb(67, 232, 76)" stroke-opacity="0.5766325" stroke-linecap="round" stroke-linejoin="round"/>
    <path d="M 339.40765380859375 331.1101379394531 C 304.80572509765625 362.005126953125 168.03431701660156 376.5370178222656 89.03025817871094 339.5528564453125 C 89.57845306396484 302.1451416015625 90.04161834716797 391.1507873535156 81.10699462890625 286.22662353515625 C 144.39686584472656 327.9493103027344 238.62608337402344 321.6847229003906 286.43914794921875 310.1773681640625 C 367.27239990234375 290.4503173828125 343.2234802246094 249.49107360839844 339.40765380859375 331.1101379394531" stroke-width="0.0" fill="rgb(167, 65, 0)" opacity="0.9788837" stroke="rgb(120, 119, 179)" stroke-opacity="0.20979214" stroke-linecap="round" stroke-linejoin="round"/>
    <path d="M 398.3348388671875 89.22942352294922 C 430.07977294921875 501.3961181640625 509.035888671875 542.70166015625 237.59719848632812 510.26873779296875 C 347.8408508300781 338.48828125 343.2525634765625 385.2066345214844 334.01129150390625 375.02740478515625 C 340.2201232910156 318.7438049316406 340.695068359375 318.9396667480469 348.26324462890625 244.62213134765625 C 253.53257751464844 115.91893005371094 249.3858184814453 89.37721252441406 398.3348388671875 89.22942352294922" stroke-width="0.0" fill="rgb(255, 255, 255)" opacity="0.9737926" stroke="rgb(41, 210, 57)" stroke-opacity="0.33343676" stroke-linecap="round" stroke-linejoin="round"/>
    <path d="M 275.89801025390625 406.03594970703125 C 274.9740905761719 459.15301513671875 270.6264343261719 449.15753173828125 254.48330688476562 453.44012451171875 C 210.646484375 460.2271728515625 154.75286865234375 460.5647888183594 95.95329284667969 432.60101318359375 C 91.32313537597656 351.44622802734375 73.83831024169922 395.126708984375 151.8468475341797 404.4172668457031 C 225.9595184326172 414.684814453125 257.7309265136719 403.16876220703125 275.89801025390625 406.03594970703125" stroke-width="0.0" fill="rgb(149, 58, 0)" opacity="0.9883113" stroke="rgb(156, 30, 24)" stroke-opacity="0.8376123" stroke-linecap="round" stroke-linejoin="round"/>
    <path d="M 249.44232177734375 87.99685668945312 C 244.762939453125 98.08004760742188 237.83212280273438 105.5312728881836 234.73989868164062 107.96207427978516 C 206.5047149658203 100.15137481689453 217.24282836914062 115.92843627929688 48.058719635009766 167.50177001953125 C 23.841768264770508 -82.09334564208984 208.48365783691406 -87.53079223632812 232.6659698486328 52.083946228027344 C 250.7095489501953 75.90898895263672 249.4705810546875 76.25028991699219 249.44232177734375 87.99685668945312" stroke-width="0.0" fill="rgb(253, 254, 254)" opacity="1.0" stroke="rgb(202, 1, 148)" stroke-opacity="0.9582515" stroke-linecap="round" stroke-linejoin="round"/>
    <path d="M 329.4105529785156 429.2912292480469 C 335.70220947265625 422.4840087890625 320.3988952636719 442.1337585449219 265.24945068359375 451.33416748046875 C 248.30360412597656 454.5901184082031 248.7138671875 459.1242980957031 252.03948974609375 406.8729248046875 C 272.0989990234375 403.9806823730469 309.5376281738281 399.5221252441406 332.6130676269531 381.7469787597656 C 333.8192138671875 362.5082702636719 334.7548522949219 374.8340759277344 329.4105529785156 429.2912292480469" stroke-width="0.0" fill="rgb(145, 58, 1)" opacity="1.0" stroke="rgb(100, 20, 157)" stroke-opacity="0.57322586" stroke-linecap="round" stroke-linejoin="round"/>
    <path d="M 284.7196960449219 458.74310302734375 C 257.74871826171875 573.9397583007812 207.0223846435547 540.5471801757812 134.25979614257812 526.1744384765625 C -3.0486018657684326 542.2164306640625 -15.974457740783691 562.200439453125 -9.19289493560791 353.5917053222656 C 102.19336700439453 305.64715576171875 83.05718231201172 322.1493835449219 95.8133544921875 433.0582580566406 C 138.040771484375 451.0777282714844 163.40493774414062 461.1949462890625 284.7196960449219 458.74310302734375" stroke-width="0.0" fill="rgb(255, 255, 255)" opacity="0.9753947" stroke="rgb(159, 226, 41)" stroke-opacity="0.42431456" stroke-linecap="round" stroke-linejoin="round"/>
    <path d="M 413.59124755859375 39.490562438964844 C 403.0799865722656 126.62675476074219 385.4464111328125 111.76122283935547 325.70074462890625 138.5658721923828 C 229.85369873046875 167.00021362304688 241.24644470214844 163.6930389404297 254.6571807861328 61.073360443115234 C 252.318359375 2.83140230178833 262.8085021972656 0.7416839003562927 279.872314453125 -8.67117691040039 C 401.2021179199219 -10.975175857543945 406.3654479980469 -22.15625762939453 413.59124755859375 39.490562438964844" stroke-width="0.0" fill="rgb(252, 255, 255)" opacity="0.89198875" stroke="rgb(27, 71, 116)" stroke-opacity="0.5346508" stroke-linecap="round" stroke-linejoin="round"/>
    <path d="M 255.28175354003906 149.216064453125 C 249.85675048828125 164.10337829589844 236.5708465576172 175.17996215820312 217.97015380859375 172.4694366455078 C 196.77108764648438 167.31576538085938 195.31109619140625 155.05320739746094 196.22483825683594 142.3364715576172 C 205.91116333007812 110.45357513427734 200.0743865966797 108.10736846923828 239.73158264160156 107.36764526367188 C 237.13796997070312 114.77012634277344 260.1140441894531 113.75196838378906 255.28175354003906 149.216064453125" stroke-width="0.0" fill="rgb(185, 6, 0)" opacity="0.9874518" stroke="rgb(59, 21, 7)" stroke-opacity="0.7537973" stroke-linecap="round" stroke-linejoin="round"/>
    <path d="M 249.56048583984375 119.17778778076172 C 225.6099853515625 146.44895935058594 223.4272918701172 151.38717651367188 201.66712951660156 164.0391845703125 C 190.43936157226562 154.75279235839844 192.24786376953125 142.51576232910156 187.9783172607422 136.58453369140625 C 196.09768676757812 121.8899917602539 198.57894897460938 111.43705749511719 218.28099060058594 106.58231353759766 C 237.39910888671875 104.18339538574219 231.05062866210938 113.12767028808594 249.56048583984375 119.17778778076172" stroke-width="0.0" fill="rgb(212, 0, 0)" opacity="0.98113203" stroke="rgb(66, 251, 207)" stroke-opacity="0.6355801" stroke-linecap="round" stroke-linejoin="round"/>
    <path d="M 97.77796936035156 248.13206481933594 C 100.09073638916016 249.73851013183594 91.34539794921875 249.9327392578125 80.0524673461914 262.5937194824219 C 48.62834548950195 363.2349548339844 -60.41219711303711 408.947509765625 6.17460823059082 2.3082215785980225 C 167.857177734375 131.0666961669922 97.44464111328125 187.85653686523438 77.49701690673828 219.4354248046875 C 91.24056243896484 235.94924926757812 83.11547088623047 235.4895477294922 97.77796936035156 248.13206481933594" stroke-width="0.0" fill="rgb(255, 255, 255)" opacity="0.9531033" stroke="rgb(43, 236, 173)" stroke-opacity="0.014017539" stroke-linecap="round" stroke-linejoin="round"/>
    <path d="M 197.74449157714844 172.8780517578125 C 198.74244689941406 181.33689880371094 190.1760711669922 186.93191528320312 181.65367126464844 186.6917724609375 C 175.11264038085938 186.99229431152344 165.41673278808594 182.52223205566406 165.84698486328125 173.5608367919922 C 165.46701049804688 169.05441284179688 170.0229949951172 163.50599670410156 180.0500030517578 162.0736083984375 C 194.1890106201172 161.503662109375 197.38491821289062 171.03050231933594 197.74449157714844 172.8780517578125" stroke-width="0.0" fill="rgb(241, 0, 159)" opacity="0.92053545" stroke="rgb(41, 1, 225)" stroke-opacity="0.69793195" stroke-linecap="round" stroke-linejoin="round"/>
    <path d="M 193.4532928466797 126.26628875732422 C 190.509765625 131.4466094970703 190.2088623046875 148.46278381347656 191.34579467773438 144.79173278808594 C 178.6980743408203 139.21182250976562 182.47093200683594 125.55301666259766 161.35800170898438 129.9218292236328 C 167.5706024169922 115.96363067626953 172.97486877441406 116.85700988769531 197.6772003173828 109.41240692138672 C 222.05926513671875 108.36151885986328 202.51280212402344 105.9897232055664 193.4532928466797 126.26628875732422" stroke-width="0.0" fill="rgb(255, 255, 255)" opacity="0.95967025" stroke="rgb(27, 159, 185)" stroke-opacity="0.32178137" stroke-linecap="round" stroke-linejoin="round"/>
    <path d="M 285.91021728515625 155.99044799804688 C 284.5298767089844 162.8574676513672 277.0692138671875 168.85906982421875 264.3017272949219 166.5567169189453 C 244.54620361328125 158.15982055664062 262.88018798828125 151.9940948486328 245.8692169189453 140.57176208496094 C 256.0062255859375 145.4814453125 252.17965698242188 156.625244140625 256.7790832519531 146.7296142578125 C 279.4112243652344 137.6235809326172 285.93621826171875 148.14767456054688 285.91021728515625 155.99044799804688" stroke-width="0.0" fill="rgb(236, 0, 153)" opacity="0.9612539" stroke="rgb(117, 24, 132)" stroke-opacity="0.24295007" stroke-linecap="round" stroke-linejoin="round"/>
  </g>
</svg>
