<?xml version="1.0" ?>
<svg xmlns="http://www.w3.org/2000/svg" version="1.1" width="398" height="512">
  <defs/>
  <g>
    <path d="M 273.64422607421875 205.0550537109375 C 238.65948486328125 254.04568481445312 224.40647888183594 259.3768615722656 205.8909454345703 251.35316467285156 C 214.87338256835938 247.17572021484375 159.72390747070312 218.57974243164062 131.76058959960938 210.24212646484375 C 172.45516967773438 181.53623962402344 124.3386001586914 267.44512939453125 253.87252807617188 210.71946716308594 C 216.66793823242188 187.56529235839844 280.8758544921875 160.39585876464844 273.64422607421875 205.0550537109375" stroke-width="0.0" fill="rgb(247, 0, 113)" opacity="0.71045923" stroke="rgb(93, 200, 27)" stroke-opacity="0.8444437" stroke-linecap="round" stroke-linejoin="round"/>
    <path d="M 116.70752716064453 204.5320281982422 C 119.23359680175781 185.11923217773438 97.81719970703125 213.7211456298828 85.65180206298828 210.4795684814453 C 24.04014015197754 228.13726806640625 165.77182006835938 363.19134521484375 6.995113372802734 402.2908020019531 C -43.81553649902344 -51.15969467163086 -88.4093017578125 -40.49985122680664 286.5349426269531 -2.833641529083252 C 218.81753540039062 157.31878662109375 104.48484802246094 102.38697814941406 116.70752716064453 204.5320281982422" stroke-width="0.0" fill="rgb(247, 255, 254)" opacity="0.8418261" stroke="rgb(67, 232, 76)" stroke-opacity="0.5766325" stroke-linecap="round" stroke-linejoin="round"/>
    <path d="M 339.58758544921875 331.0042419433594 C 304.3083190917969 362.3310241699219 165.7010498046875 376.46697998046875 88.1419448852539 339.0595703125 C 87.88838958740234 301.6914367675781 89.85790252685547 390.6449279785156 81.28353881835938 286.39471435546875 C 144.9398193359375 327.9936218261719 238.4169158935547 321.6556701660156 286.3594665527344 310.2357177734375 C 368.24774169921875 290.03765869140625 342.76861572265625 249.4744110107422 339.58758544921875 331.0042419433594" stroke-width="0.0" fill="rgb(166, 65, 0)" opacity="0.98502344" stroke="rgb(120, 119, 179)" stroke-opacity="0.20979214" stroke-linecap="round" stroke-linejoin="round"/>
    <path d="M 397.98590087890625 89.30097198486328 C 430.33856201171875 502.820556640625 509.94732666015625 543.6886596679688 235.67355346679688 509.6083679199219 C 346.8097839355469 342.8415222167969 341.13372802734375 386.87542724609375 333.6075439453125 378.07720947265625 C 340.8605651855469 319.2721862792969 339.7572021484375 317.54742431640625 349.0994567871094 245.76336669921875 C 255.6273956298828 113.24712371826172 248.19972229003906 89.24988555908203 397.98590087890625 89.30097198486328" stroke-width="0.0" fill="rgb(255, 255, 255)" opacity="0.99164855" stroke="rgb(41, 210, 57)" stroke-opacity="0.33343676" stroke-linecap="round" stroke-linejoin="round"/>
    <path d="M 275.9148254394531 406.28924560546875 C 274.93072509765625 458.94805908203125 270.4816589355469 449.1809997558594 254.2585906982422 453.463623046875 C 210.8509063720703 460.2054138183594 154.569091796875 460.5731506347656 96.0656967163086 432.6341247558594 C 90.4209213256836 350.64630126953125 75.28575134277344 396.15008544921875 152.81338500976562 404.479248046875 C 224.6374053955078 414.55279541015625 258.4766845703125 403.0827941894531 275.9148254394531 406.28924560546875" stroke-width="0.0" fill="rgb(153, 59, 0)" opacity="0.9963007" stroke="rgb(156, 30, 24)" stroke-opacity="0.8376123" stroke-linecap="round" stroke-linejoin="round"/>
    <path d="M 249.40859985351562 87.53502655029297 C 244.7660675048828 97.99552917480469 237.16647338867188 104.83116149902344 234.5324249267578 107.88429260253906 C 205.61085510253906 100.0279541015625 218.00794982910156 116.5412368774414 47.30268859863281 169.08811950683594 C 17.0531063079834 -90.05503845214844 238.61973571777344 -92.86798095703125 233.6702880859375 52.93602752685547 C 250.35179138183594 73.39234924316406 248.03155517578125 78.38668060302734 249.40859985351562 87.53502655029297" stroke-width="0.0" fill="rgb(255, 255, 255)" opacity="0.99473804" stroke="rgb(202, 1, 148)" stroke-opacity="0.9582515" stroke-linecap="round" stroke-linejoin="round"/>
    <path d="M 328.22906494140625 428.6169128417969 C 335.408935546875 422.2156982421875 320.3507995605469 442.376953125 265.2041320800781 451.3336486816406 C 247.6509246826172 454.683837890625 248.551025390625 459.64544677734375 252.6109619140625 406.53533935546875 C 271.3845520019531 404.5154113769531 310.8501281738281 399.0233459472656 333.7120056152344 381.0050964355469 C 336.438232421875 364.0343017578125 334.0160217285156 374.7144470214844 328.22906494140625 428.6169128417969" stroke-width="0.0" fill="rgb(147, 57, 0)" opacity="1.0" stroke="rgb(100, 20, 157)" stroke-opacity="0.57322586" stroke-linecap="round" stroke-linejoin="round"/>
    <path d="M 284.1905517578125 457.450439453125 C 257.8045959472656 573.99072265625 207.0399932861328 540.551513671875 134.26034545898438 526.1744384765625 C -3.048586845397949 542.2164306640625 -15.974482536315918 562.200439453125 -8.250116348266602 340.75518798828125 C 96.24093627929688 289.4996032714844 81.77982330322266 302.4273681640625 95.87056732177734 432.99969482421875 C 137.76808166503906 451.5508117675781 172.17303466796875 462.4837341308594 284.1905517578125 457.450439453125" stroke-width="0.0" fill="rgb(255, 255, 255)" opacity="0.9804658" stroke="rgb(159, 226, 41)" stroke-opacity="0.42431456" stroke-linecap="round" stroke-linejoin="round"/>
    <path d="M 413.59417724609375 39.517051696777344 C 403.1139221191406 126.73348236083984 385.54345703125 111.92028045654297 343.158447265625 151.3872833251953 C 221.9778594970703 168.87228393554688 224.24288940429688 148.5692138671875 248.05136108398438 53.589351654052734 C 231.10836791992188 2.804253339767456 251.10333251953125 -0.963479220867157 275.1274719238281 -8.808220863342285 C 401.2021179199219 -10.97513198852539 406.36529541015625 -22.15624237060547 413.59417724609375 39.517051696777344" stroke-width="0.0" fill="rgb(254, 255, 254)" opacity="0.9906664" stroke="rgb(27, 71, 116)" stroke-opacity="0.5346508" stroke-linecap="round" stroke-linejoin="round"/>
    <path d="M 255.63485717773438 147.6265106201172 C 250.57958984375 164.25901794433594 235.94735717773438 175.3300018310547 217.6949462890625 172.5115203857422 C 197.0962371826172 167.7036895751953 194.29879760742188 153.94253540039062 194.62997436523438 143.1400604248047 C 204.85401916503906 110.43863677978516 199.95851135253906 109.87462615966797 238.32687377929688 107.91751098632812 C 234.48141479492188 111.03440856933594 258.6678466796875 112.68270874023438 255.63485717773438 147.6265106201172" stroke-width="0.0" fill="rgb(195, 0, 0)" opacity="0.98777753" stroke="rgb(59, 21, 7)" stroke-opacity="0.7537973" stroke-linecap="round" stroke-linejoin="round"/>
    <path d="M 249.52972412109375 118.97981262207031 C 226.09043884277344 147.1583709716797 222.2766876220703 149.63133239746094 200.76708984375 163.6017303466797 C 190.44830322265625 153.07627868652344 190.73243713378906 142.29840087890625 190.8708953857422 134.9719696044922 C 194.04849243164062 122.73432922363281 199.6553497314453 111.1746597290039 218.00387573242188 106.5953369140625 C 241.49041748046875 104.52002716064453 228.038818359375 112.40640258789062 249.52972412109375 118.97981262207031" stroke-width="0.0" fill="rgb(212, 0, 0)" opacity="0.9791886" stroke="rgb(66, 251, 207)" stroke-opacity="0.6355801" stroke-linecap="round" stroke-linejoin="round"/>
    <path d="M 97.17937469482422 247.648193359375 C 101.91471862792969 250.10365295410156 86.1726303100586 250.8780059814453 77.67683410644531 267.6611328125 C 76.14598846435547 393.3961486816406 -78.4845962524414 437.38995361328125 1.8916246891021729 -21.993322372436523 C 176.6567840576172 136.69239807128906 110.00959777832031 201.6786346435547 81.0339126586914 220.89910888671875 C 89.81999969482422 233.10316467285156 81.8668212890625 233.8592987060547 97.17937469482422 247.648193359375" stroke-width="0.0" fill="rgb(255, 255, 255)" opacity="0.9711261" stroke="rgb(43, 236, 173)" stroke-opacity="0.014017539" stroke-linecap="round" stroke-linejoin="round"/>
    <path d="M 197.8882598876953 173.77525329589844 C 197.64598083496094 181.77865600585938 190.6285400390625 186.21011352539062 182.4285888671875 186.76190185546875 C 174.36477661132812 187.04522705078125 165.3919219970703 181.94430541992188 165.7665557861328 174.15866088867188 C 165.66015625 169.0062255859375 169.9040069580078 163.5938262939453 179.68707275390625 161.9716339111328 C 194.04364013671875 161.37965393066406 197.7362518310547 170.93455505371094 197.8882598876953 173.77525329589844" stroke-width="0.0" fill="rgb(240, 0, 159)" opacity="0.9204884" stroke="rgb(41, 1, 225)" stroke-opacity="0.69793195" stroke-linecap="round" stroke-linejoin="round"/>
    <path d="M 193.40830993652344 126.34312438964844 C 188.177734375 139.19346618652344 193.24530029296875 145.1640625 188.69766235351562 142.74354553222656 C 175.8936004638672 148.6115264892578 191.39019775390625 127.4570083618164 162.00230407714844 128.76956176757812 C 167.587890625 115.98235321044922 172.94915771484375 116.77880859375 198.5170440673828 109.72237396240234 C 222.87545776367188 108.14664459228516 202.34567260742188 106.0350570678711 193.40830993652344 126.34312438964844" stroke-width="0.0" fill="rgb(255, 255, 255)" opacity="0.9748513" stroke="rgb(27, 159, 185)" stroke-opacity="0.32178137" stroke-linecap="round" stroke-linejoin="round"/>
    <path d="M 285.91253662109375 155.36744689941406 C 285.647216796875 162.3122100830078 275.3025207519531 170.33749389648438 262.39495849609375 165.78492736816406 C 244.94296264648438 156.75746154785156 262.59552001953125 148.36680603027344 247.1871795654297 140.82977294921875 C 258.68634033203125 144.83042907714844 250.88511657714844 157.42189025878906 256.8179626464844 146.7585906982422 C 278.3839111328125 136.84414672851562 286.5615539550781 149.11756896972656 285.91253662109375 155.36744689941406" stroke-width="0.0" fill="rgb(235, 0, 153)" opacity="0.9669704" stroke="rgb(117, 24, 132)" stroke-opacity="0.24295007" stroke-linecap="round" stroke-linejoin="round"/>
    <path d="M 357.2434387207031 258.70599365234375 C 358.4251403808594 267.4355773925781 355.69866943359375 273.7331237792969 345.3389587402344 269.05413818359375 C 340.8516540527344 255.25936889648438 322.8592529296875 248.6060791015625 322.569580078125 247.22288513183594 C 332.204833984375 238.1402130126953 335.1562194824219 225.27359008789062 329.0614929199219 217.62109375 C 352.0260009765625 225.8312530517578 353.2148742675781 232.07257080078125 357.2434387207031 258.70599365234375" stroke-width="0.0" fill="rgb(255, 255, 255)" opacity="0.9668983" stroke="rgb(170, 171, 85)" stroke-opacity="0.12981015" stroke-linecap="round" stroke-linejoin="round"/>
    <path d="M 154.59243774414062 149.06631469726562 C 158.69418334960938 150.06161499023438 148.0855712890625 150.52818298339844 133.4639129638672 159.0402069091797 C 114.40802001953125 169.3780059814453 117.80974578857422 181.5501708984375 111.38984680175781 163.99253845214844 C 120.84870147705078 130.7069549560547 123.26543426513672 135.85723876953125 161.8999481201172 129.14561462402344 C 153.2180633544922 131.33958435058594 146.73094177246094 140.14337158203125 154.59243774414062 149.06631469726562" stroke-width="0.0" fill="rgb(255, 255, 255)" opacity="0.96553916" stroke="rgb(97, 121, 204)" stroke-opacity="0.44771627" stroke-linecap="round" stroke-linejoin="round"/>
    <path d="M 318.8889465332031 195.5080108642578 C 327.18756103515625 213.01539611816406 333.1450500488281 218.9692840576172 318.65191650390625 206.03005981445312 C 303.464599609375 196.2732391357422 292.29388427734375 193.425537109375 294.7832336425781 193.4298553466797 C 299.59686279296875 187.0826416015625 303.4888000488281 184.62632751464844 300.4442138671875 169.40147399902344 C 327.596923828125 174.76171875 322.63763427734375 193.39312744140625 318.8889465332031 195.5080108642578" stroke-width="0.0" fill="rgb(255, 255, 255)" opacity="0.93966526" stroke="rgb(230, 198, 193)" stroke-opacity="0.6646828" stroke-linecap="round" stroke-linejoin="round"/>
    <path d="M 229.72702026367188 241.40670776367188 C 236.0995330810547 247.50399780273438 216.5633544921875 224.094970703125 206.10313415527344 240.44667053222656 C 201.8505096435547 251.50747680664062 212.90542602539062 249.17991638183594 183.70993041992188 233.2212371826172 C 193.23406982421875 228.12802124023438 198.9279022216797 229.8690643310547 208.64857482910156 226.38282775878906 C 224.9465789794922 223.80731201171875 211.83563232421875 218.1268310546875 229.72702026367188 241.40670776367188" stroke-width="0.0" fill="rgb(255, 254, 174)" opacity="0.5718771" stroke="rgb(3, 235, 129)" stroke-opacity="0.34627375" stroke-linecap="round" stroke-linejoin="round"/>
    <path d="M 251.2251434326172 92.58802795410156 C 242.16671752929688 107.38469696044922 236.66818237304688 117.09130859375 233.73020935058594 108.3963394165039 C 256.56060791015625 87.05986785888672 249.56259155273438 77.8709716796875 241.4329071044922 63.34756088256836 C 250.646728515625 76.13980102539062 241.2241973876953 62.56934356689453 232.1585235595703 50.72939682006836 C 244.80938720703125 55.9779167175293 255.72097778320312 82.14680480957031 251.2251434326172 92.58802795410156" stroke-width="0.0" fill="rgb(2, 141, 3)" opacity="0.98627514" stroke="rgb(181, 249, 15)" stroke-opacity="0.26250258" stroke-linecap="round" stroke-linejoin="round"/>
    <path d="M 102.73161315917969 219.31764221191406 C 102.22990417480469 223.623779296875 97.29740905761719 228.60748291015625 91.16582489013672 228.9641571044922 C 80.86373901367188 228.32411193847656 78.8082046508789 221.23423767089844 79.01420593261719 218.18756103515625 C 79.72013092041016 212.5487823486328 86.35379028320312 207.540283203125 94.14739227294922 209.3299560546875 C 96.88890075683594 210.3324432373047 102.0925064086914 211.86465454101562 102.73161315917969 219.31764221191406" stroke-width="0.0" fill="rgb(240, 0, 158)" opacity="0.92114246" stroke="rgb(54, 109, 131)" stroke-opacity="0.5335257" stroke-linecap="round" stroke-linejoin="round"/>
    <path d="M 264.7060241699219 187.87545776367188 C 265.6233215332031 190.76434326171875 262.4525451660156 194.709716796875 254.9320068359375 195.2323760986328 C 248.7405548095703 193.91957092285156 244.60043334960938 193.94692993164062 244.99266052246094 180.72215270996094 C 245.83792114257812 180.75888061523438 243.390869140625 180.8510284423828 246.4797821044922 180.91238403320312 C 257.3503723144531 180.3396453857422 265.3304138183594 184.86734008789062 264.7060241699219 187.87545776367188" stroke-width="0.0" fill="rgb(255, 154, 144)" opacity="0.9244941" stroke="rgb(105, 7, 163)" stroke-opacity="0.002133841" stroke-linecap="round" stroke-linejoin="round"/>
    <path d="M 280.5390930175781 448.5246887207031 C 277.0240478515625 468.40087890625 274.2715148925781 470.5268249511719 231.84637451171875 506.3374938964844 C 243.1610565185547 477.12005615234375 231.0680389404297 486.5260314941406 202.6648406982422 457.68060302734375 C 254.2689971923828 457.26080322265625 274.0980224609375 448.5643310546875 261.992431640625 452.6017761230469 C 262.695068359375 452.2281494140625 270.8096008300781 450.55224609375 280.5390930175781 448.5246887207031" stroke-width="0.0" fill="rgb(254, 255, 255)" opacity="0.970097" stroke="rgb(221, 95, 128)" stroke-opacity="0.55076915" stroke-linecap="round" stroke-linejoin="round"/>
    <path d="M 302.1145935058594 244.778076171875 C 301.9259948730469 249.00355529785156 292.2052001953125 256.5471496582031 281.74871826171875 248.51605224609375 C 285.8753356933594 250.513427734375 283.1300048828125 251.63243103027344 279.32952880859375 243.96771240234375 C 278.12396240234375 235.87232971191406 287.1141357421875 231.5752410888672 292.3544921875 232.4849090576172 C 298.1315612792969 233.34129333496094 303.768310546875 236.7352294921875 302.1145935058594 244.778076171875" stroke-width="0.0" fill="rgb(255, 0, 179)" opacity="0.8424518" stroke="rgb(123, 186, 60)" stroke-opacity="0.2675175" stroke-linecap="round" stroke-linejoin="round"/>
    <path d="M 276.25616455078125 195.70285034179688 C 272.3342590332031 215.8153076171875 262.0285949707031 216.1361083984375 255.63082885742188 231.72964477539062 C 261.9206237792969 217.3260040283203 247.60003662109375 214.2418975830078 241.90679931640625 214.74273681640625 C 256.00506591796875 212.43434143066406 248.89524841308594 208.23329162597656 251.78250122070312 205.8042755126953 C 245.01373291015625 206.04574584960938 265.0285949707031 220.5753936767578 276.25616455078125 195.70285034179688" stroke-width="0.0" fill="rgb(255, 255, 175)" opacity="0.57914877" stroke="rgb(214, 178, 142)" stroke-opacity="0.54468924" stroke-linecap="round" stroke-linejoin="round"/>
    <path d="M 306.1778869628906 200.8634033203125 C 322.8765563964844 210.12789916992188 309.371337890625 222.45498657226562 304.2494201660156 222.25001525878906 C 293.84906005859375 224.9304962158203 284.39422607421875 213.7408905029297 291.82354736328125 204.88067626953125 C 288.0672912597656 214.4189910888672 306.3699645996094 216.1186065673828 306.8875732421875 207.21884155273438 C 307.9847412109375 200.35794067382812 287.03179931640625 198.61744689941406 306.1778869628906 200.8634033203125" stroke-width="0.0" fill="rgb(255, 0, 12)" opacity="0.4903678" stroke="rgb(47, 156, 44)" stroke-opacity="0.53639483" stroke-linecap="round" stroke-linejoin="round"/>
    <path d="M 235.49269104003906 217.6689453125 C 223.99205017089844 249.98484802246094 277.669677734375 219.28504943847656 227.1488037109375 254.0052947998047 C 209.60694885253906 253.99732971191406 244.50042724609375 255.40992736816406 219.06002807617188 227.02276611328125 C 217.86595153808594 222.88926696777344 219.91360473632812 224.1542510986328 223.174560546875 222.5900115966797 C 231.15231323242188 220.5084228515625 228.4486083984375 220.5056610107422 235.49269104003906 217.6689453125" stroke-width="0.0" fill="rgb(255, 253, 175)" opacity="0.5745238" stroke="rgb(227, 81, 191)" stroke-opacity="0.27270052" stroke-linecap="round" stroke-linejoin="round"/>
    <path d="M 235.9375762939453 252.53140258789062 C 220.39239501953125 236.17062377929688 226.18141174316406 222.86085510253906 207.5774688720703 227.95440673828125 C 217.3019256591797 231.43923950195312 215.44085693359375 228.9767608642578 198.4298095703125 232.6519012451172 C 225.83958435058594 238.50245666503906 221.447265625 233.6008758544922 218.23379516601562 224.39808654785156 C 227.11866760253906 213.30714416503906 236.56600952148438 216.99171447753906 235.9375762939453 252.53140258789062" stroke-width="0.0" fill="rgb(255, 176, 152)" opacity="0.31287545" stroke="rgb(54, 59, 192)" stroke-opacity="0.83613676" stroke-linecap="round" stroke-linejoin="round"/>
    <path d="M 206.0808868408203 248.1949462890625 C 203.6732940673828 242.41799926757812 206.70484924316406 249.29319763183594 203.23599243164062 241.5005645751953 C 184.31092834472656 211.82861328125 205.67344665527344 232.56932067871094 177.2823028564453 234.22775268554688 C 146.6920166015625 226.50296020507812 176.17189025878906 202.5399169921875 194.09982299804688 220.46194458007812 C 192.89517211914062 229.24668884277344 200.32215881347656 233.6268310546875 206.0808868408203 248.1949462890625" stroke-width="0.0" fill="rgb(255, 60, 68)" opacity="0.49048924" stroke="rgb(254, 86, 165)" stroke-opacity="0.9654465" stroke-linecap="round" stroke-linejoin="round"/>
    <path d="M 303.1183776855469 241.0186004638672 C 304.14794921875 247.89193725585938 296.604736328125 253.27517700195312 290.2973327636719 252.4069061279297 C 285.80938720703125 253.35755920410156 278.125 246.18045043945312 280.1606140136719 244.7581024169922 C 279.2308044433594 228.3651580810547 283.409912109375 253.4949951171875 296.83123779296875 238.16009521484375 C 283.6107482910156 228.28375244140625 301.9637756347656 234.61790466308594 303.1183776855469 241.0186004638672" stroke-width="0.0" fill="rgb(222, 0, 138)" opacity="0.6017171" stroke="rgb(86, 251, 14)" stroke-opacity="0.74409753" stroke-linecap="round" stroke-linejoin="round"/>
    <path d="M 332.6855163574219 380.9971008300781 C 338.708740234375 373.9414978027344 339.1629638671875 374.0602111816406 320.3133850097656 393.7357482910156 C 233.97760009765625 412.6769714355469 133.73825073242188 432.7732849121094 149.58485412597656 361.1683654785156 C 311.2373046875 364.0173645019531 318.3996276855469 339.7560119628906 338.8387145996094 332.94171142578125 C 333.26202392578125 384.5888366699219 333.9129943847656 389.6478576660156 332.6855163574219 380.9971008300781" stroke-width="0.0" fill="rgb(140, 145, 55)" opacity="0.2485931" stroke="rgb(228, 143, 25)" stroke-opacity="0.5755083" stroke-linecap="round" stroke-linejoin="round"/>
    <path d="M 182.0496368408203 136.82470703125 C 185.6498565673828 146.22415161132812 175.43260192871094 153.57711791992188 168.84239196777344 153.05300903320312 C 157.53485107421875 155.7837371826172 141.05404663085938 141.39816284179688 158.17344665527344 130.50927734375 C 142.65127563476562 152.410400390625 196.42201232910156 141.77386474609375 166.33460998535156 130.8468017578125 C 142.27622985839844 138.40267944335938 169.48719787597656 118.23362731933594 182.0496368408203 136.82470703125" stroke-width="0.0" fill="rgb(255, 0, 14)" opacity="0.50087565" stroke="rgb(61, 43, 116)" stroke-opacity="0.39040875" stroke-linecap="round" stroke-linejoin="round"/>
    <path d="M 155.73837280273438 214.6454315185547 C 153.7034912109375 221.2728271484375 152.7177276611328 221.61236572265625 146.34805297851562 223.84523010253906 C 139.0045166015625 224.7486572265625 130.92138671875 220.1376190185547 132.4928436279297 211.68756103515625 C 132.97384643554688 212.72256469726562 132.9803924560547 207.9960479736328 136.3251190185547 206.4755401611328 C 147.3889923095703 200.0448455810547 157.0894775390625 208.96107482910156 155.73837280273438 214.6454315185547" stroke-width="0.0" fill="rgb(244, 13, 164)" opacity="0.9819239" stroke="rgb(184, 141, 130)" stroke-opacity="0.348624" stroke-linecap="round" stroke-linejoin="round"/>
    <path d="M 272.15869140625 70.91691589355469 C 236.4549102783203 54.54591751098633 249.9937286376953 56.328861236572266 251.4776611328125 82.52340698242188 C 250.47988891601562 63.20832061767578 243.3972930908203 58.76423263549805 252.34671020507812 61.05570983886719 C 230.91775512695312 53.382171630859375 225.02650451660156 44.49565505981445 248.03329467773438 56.52854537963867 C 278.4827575683594 71.13298797607422 273.4346923828125 67.63911437988281 272.15869140625 70.91691589355469" stroke-width="0.0" fill="rgb(9, 142, 10)" opacity="1.0" stroke="rgb(161, 249, 176)" stroke-opacity="0.62594616" stroke-linecap="round" stroke-linejoin="round"/>
  </g>
</svg>
