<?xml version="1.0" ?>
<svg xmlns="http://www.w3.org/2000/svg" version="1.1" width="508" height="512">
  <defs/>
  <g>
    <path d="M 392.9631042480469 8.026687622070312 C 139.07275390625 98.05747985839844 329.44403076171875 -4.644781112670898 251.6855926513672 228.7249755859375 C 49.97895812988281 260.26678466796875 2.28572678565979 225.95457458496094 5.941992282867432 183.71453857421875 C 5.045833110809326 -60.7567253112793 6.364814281463623 33.10460662841797 5.430531978607178 8.007186889648438 C 166.39981079101562 8.038866996765137 180.04278564453125 7.969889163970947 392.9631042480469 8.026687622070312" stroke-width="0.0" fill="rgb(109, 112, 95)" opacity="0.3153734" stroke="rgb(132, 25, 248)" stroke-opacity="0.6672364" stroke-linecap="round" stroke-linejoin="round"/>
    <path d="M 502.1709899902344 151.12094116210938 C 467.5046081542969 306.0735778808594 572.447998046875 334.9639587402344 342.2210693359375 329.11767578125 C 306.8363952636719 67.3328857421875 422.23681640625 40.53512954711914 378.1382751464844 28.211423873901367 C 373.56439208984375 1.6406641006469727 376.7877197265625 10.349068641662598 501.9458923339844 7.940764904022217 C 502.49041748046875 12.530461311340332 502.17218017578125 -21.512229919433594 502.1709899902344 151.12094116210938" stroke-width="0.0" fill="rgb(105, 120, 123)" opacity="0.52933764" stroke="rgb(223, 224, 133)" stroke-opacity="0.2944856" stroke-linecap="round" stroke-linejoin="round"/>
    <path d="M 473.3236389160156 8.045351028442383 C 421.7926025390625 53.79450607299805 374.66705322265625 5.6787567138671875 377.2451477050781 173.97857666015625 C 250.7374267578125 243.34584045410156 246.11317443847656 242.57029724121094 305.771728515625 8.028656959533691 C 355.1228332519531 8.056206703186035 369.8153076171875 8.042258262634277 386.70587158203125 8.017291069030762 C 441.4345703125 7.977409362792969 466.8623352050781 7.978897571563721 473.3236389160156 8.045351028442383" stroke-width="0.0" fill="rgb(89, 141, 150)" opacity="0.4084012" stroke="rgb(122, 83, 249)" stroke-opacity="0.8467586" stroke-linecap="round" stroke-linejoin="round"/>
    <path d="M 252.92410278320312 228.03567504882812 C 271.54022216796875 473.8688659667969 251.35494995117188 405.3149719238281 45.2859001159668 426.41314697265625 C -26.9724178314209 418.5369873046875 3.479863405227661 390.7449035644531 85.38243865966797 375.364501953125 C 171.74070739746094 336.1216735839844 108.04197692871094 405.6005554199219 140.5438995361328 400.378662109375 C 299.8177795410156 410.40301513671875 95.50716400146484 305.51251220703125 252.92410278320312 228.03567504882812" stroke-width="0.0" fill="rgb(35, 64, 87)" opacity="0.54639405" stroke="rgb(38, 105, 161)" stroke-opacity="0.5637614" stroke-linecap="round" stroke-linejoin="round"/>
    <path d="M 153.5479278564453 186.4854278564453 C 153.0917205810547 258.8565673828125 154.44712829589844 251.84326171875 152.6453857421875 251.80929565429688 C 121.8769302368164 251.26754760742188 128.4337158203125 252.58084106445312 127.5171890258789 251.7110595703125 C 128.1866912841797 194.211669921875 127.35527038574219 177.65748596191406 127.66277313232422 150.1719207763672 C 165.40489196777344 155.20533752441406 151.5946044921875 134.5621337890625 153.5479278564453 186.4854278564453" stroke-width="0.0" fill="rgb(50, 58, 78)" opacity="1.0" stroke="rgb(60, 241, 126)" stroke-opacity="0.019201314" stroke-linecap="round" stroke-linejoin="round"/>
    <path d="M 500.1771240234375 431.41754150390625 C 506.2131042480469 556.1262817382812 511.0326843261719 479.4352111816406 421.7904052734375 505.0045471191406 C 277.4059753417969 504.77362060546875 264.5279541015625 505.3953552246094 109.03106689453125 504.5386962890625 C 126.4263916015625 368.681396484375 289.4002685546875 410.29302978515625 459.09539794921875 352.51995849609375 C 355.2679748535156 511.6770935058594 343.6926574707031 417.50360107421875 500.1771240234375 431.41754150390625" stroke-width="0.0" fill="rgb(79, 110, 126)" opacity="0.7407119" stroke="rgb(132, 36, 163)" stroke-opacity="0.031731244" stroke-linecap="round" stroke-linejoin="round"/>
    <path d="M 502.4770202636719 423.3839111328125 C 502.804931640625 439.8977966308594 500.10400390625 428.1807556152344 502.410888671875 431.3496398925781 C 455.718505859375 429.2174072265625 439.73291015625 433.5428771972656 368.1222229003906 430.1268615722656 C 359.7713623046875 417.1304626464844 370.57122802734375 420.0545959472656 491.861083984375 419.4158630371094 C 505.74664306640625 419.81561279296875 501.8463134765625 417.988525390625 502.4770202636719 423.3839111328125" stroke-width="0.0" fill="rgb(33, 33, 53)" opacity="0.962974" stroke="rgb(138, 114, 182)" stroke-opacity="0.8806253" stroke-linecap="round" stroke-linejoin="round"/>
    <path d="M 121.0 230.0 C 120.33012390136719 232.5 118.5 234.3301239013672 116.0 235.0 C 113.5 234.3301239013672 111.66987609863281 232.5 111.0 230.0 C 111.66987609863281 227.5 113.5 225.6698760986328 116.0 225.0 C 118.5 225.6698760986328 120.33012390136719 227.5 121.0 230.0" stroke-width="0.0" fill="rgb(253, 247, 230)" opacity="1.0" stroke="rgb(7, 27, 232)" stroke-opacity="0.3824891" stroke-linecap="round" stroke-linejoin="round"/>
    <path d="M 453.0 229.0 C 452.33013916015625 231.5 450.5 233.3301239013672 448.0 234.0 C 445.5 233.3301239013672 443.66986083984375 231.5 443.0 229.0 C 443.66986083984375 226.5 445.5 224.6698760986328 448.0 224.0 C 450.5 224.6698760986328 452.33013916015625 226.5 453.0 229.0" stroke-width="0.0" fill="rgb(42, 44, 64)" opacity="1.0" stroke="rgb(100, 162, 133)" stroke-opacity="0.9472778" stroke-linecap="round" stroke-linejoin="round"/>
    <path d="M 234.0 246.0 C 233.3301239013672 248.5 231.5 250.3301239013672 229.0 251.0 C 226.5 250.3301239013672 224.6698760986328 248.5 224.0 246.0 C 224.6698760986328 243.5 226.5 241.6698760986328 229.0 241.0 C 231.5 241.6698760986328 233.3301239013672 243.5 234.0 246.0" stroke-width="0.0" fill="rgb(226, 186, 164)" opacity="1.0" stroke="rgb(190, 239, 225)" stroke-opacity="0.2116935" stroke-linecap="round" stroke-linejoin="round"/>
    <path d="M 373.0 225.0 C 372.33013916015625 227.5 370.5 229.3301239013672 368.0 230.0 C 365.5 229.3301239013672 363.66986083984375 227.5 363.0 225.0 C 363.66986083984375 222.5 365.5 220.6698760986328 368.0 220.0 C 370.5 220.6698760986328 372.33013916015625 222.5 373.0 225.0" stroke-width="0.0" fill="rgb(254, 248, 231)" opacity="1.0" stroke="rgb(73, 196, 118)" stroke-opacity="0.17311981" stroke-linecap="round" stroke-linejoin="round"/>
    <path d="M 353.0 290.0 C 352.33013916015625 292.5 350.5 294.33013916015625 348.0 295.0 C 345.5 294.33013916015625 343.66986083984375 292.5 343.0 290.0 C 343.66986083984375 287.5 345.5 285.66986083984375 348.0 285.0 C 350.5 285.66986083984375 352.33013916015625 287.5 353.0 290.0" stroke-width="0.0" fill="rgb(254, 246, 225)" opacity="1.0" stroke="rgb(227, 219, 103)" stroke-opacity="0.9342853" stroke-linecap="round" stroke-linejoin="round"/>
    <path d="M 105.0 293.0 C 104.33012390136719 295.5 102.5 297.33013916015625 100.0 298.0 C 97.5 297.33013916015625 95.66987609863281 295.5 95.0 293.0 C 95.66987609863281 290.5 97.5 288.66986083984375 100.0 288.0 C 102.5 288.66986083984375 104.33012390136719 290.5 105.0 293.0" stroke-width="0.0" fill="rgb(45, 43, 63)" opacity="1.0" stroke="rgb(96, 253, 215)" stroke-opacity="0.123503804" stroke-linecap="round" stroke-linejoin="round"/>
    <path d="M 259.0 333.0 C 258.33013916015625 335.5 256.5 337.33013916015625 254.0 338.0 C 251.5 337.33013916015625 249.6698760986328 335.5 249.0 333.0 C 249.6698760986328 330.5 251.5 328.66986083984375 254.0 328.0 C 256.5 328.66986083984375 258.33013916015625 330.5 259.0 333.0" stroke-width="0.0" fill="rgb(48, 49, 73)" opacity="1.0" stroke="rgb(5, 136, 113)" stroke-opacity="0.38221484" stroke-linecap="round" stroke-linejoin="round"/>
    <path d="M 395.0 224.0 C 394.33013916015625 226.5 392.5 228.3301239013672 390.0 229.0 C 387.5 228.3301239013672 385.66986083984375 226.5 385.0 224.0 C 385.66986083984375 221.5 387.5 219.6698760986328 390.0 219.0 C 392.5 219.6698760986328 394.33013916015625 221.5 395.0 224.0" stroke-width="0.0" fill="rgb(44, 47, 65)" opacity="1.0" stroke="rgb(29, 103, 144)" stroke-opacity="0.8475176" stroke-linecap="round" stroke-linejoin="round"/>
  </g>
</svg>
