<?xml version="1.0" ?>
<svg xmlns="http://www.w3.org/2000/svg" version="1.1" width="508" height="512">
  <defs/>
  <g>
    <path d="M 392.6330261230469 7.999281406402588 C 131.1549835205078 93.25692749023438 341.7547912597656 3.7264482975006104 244.16806030273438 226.666748046875 C 50.64171600341797 261.7068786621094 2.986773729324341 227.20236206054688 5.760137557983398 185.38314819335938 C 5.061983108520508 -60.77393341064453 6.123539924621582 33.07390594482422 5.295073509216309 8.000563621520996 C 166.39512634277344 8.002558708190918 180.0550994873047 7.99821662902832 392.6330261230469 7.999281406402588" stroke-width="0.0" fill="rgb(73, 107, 108)" opacity="0.40579093" stroke="rgb(132, 25, 248)" stroke-opacity="0.6672364" stroke-linecap="round" stroke-linejoin="round"/>
    <path d="M 502.58453369140625 164.44552612304688 C 471.79412841796875 305.4476013183594 566.2613525390625 336.7623596191406 342.1015930175781 330.5999755859375 C 299.130859375 74.69844818115234 426.6590270996094 44.89497756958008 378.89776611328125 28.836828231811523 C 375.75836181640625 0.7939701080322266 375.5714416503906 10.47940731048584 501.1093444824219 7.940793991088867 C 503.4709167480469 12.16986083984375 501.8229064941406 -21.595727920532227 502.58453369140625 164.44552612304688" stroke-width="0.0" fill="rgb(118, 124, 123)" opacity="0.48707217" stroke="rgb(223, 224, 133)" stroke-opacity="0.2944856" stroke-linecap="round" stroke-linejoin="round"/>
    <path d="M 488.11126708984375 8.004502296447754 C 428.8648986816406 61.77582550048828 384.3174133300781 5.862797260284424 384.1332092285156 170.67808532714844 C 256.3412780761719 244.78778076171875 245.89808654785156 243.02920532226562 290.4918518066406 8.15772819519043 C 355.0755615234375 8.517332077026367 369.98553466796875 8.37825870513916 387.83819580078125 7.999170780181885 C 441.50457763671875 8.002861022949219 467.0139465332031 7.996606826782227 488.11126708984375 8.004502296447754" stroke-width="0.0" fill="rgb(86, 139, 150)" opacity="0.50072575" stroke="rgb(122, 83, 249)" stroke-opacity="0.8467586" stroke-linecap="round" stroke-linejoin="round"/>
    <path d="M 257.7532653808594 205.23196411132812 C 266.98455810546875 468.2605895996094 219.21786499023438 414.4723205566406 32.6108283996582 424.9750061035156 C -14.256300926208496 394.08856201171875 8.78388500213623 428.0287170410156 78.52415466308594 354.4404296875 C 166.24864196777344 311.4389953613281 114.04222869873047 420.5835876464844 141.6174774169922 399.97711181640625 C 290.0766296386719 433.2159118652344 90.9727783203125 239.3084716796875 257.7532653808594 205.23196411132812" stroke-width="0.0" fill="rgb(0, 88, 132)" opacity="0.4816578" stroke="rgb(38, 105, 161)" stroke-opacity="0.5637614" stroke-linecap="round" stroke-linejoin="round"/>
    <path d="M 153.9187469482422 176.22171020507812 C 152.63018798828125 258.9145812988281 155.08651733398438 251.878173828125 152.0364990234375 251.76219177246094 C 121.29801177978516 251.45724487304688 128.27093505859375 252.3752899169922 127.45460510253906 251.5348663330078 C 128.17916870117188 193.21527099609375 127.27366638183594 177.8755645751953 127.87236022949219 150.29246520996094 C 166.48866271972656 152.68341064453125 150.76171875 141.50494384765625 153.9187469482422 176.22171020507812" stroke-width="0.0" fill="rgb(50, 57, 77)" opacity="1.0" stroke="rgb(60, 241, 126)" stroke-opacity="0.019201314" stroke-linecap="round" stroke-linejoin="round"/>
    <path d="M 501.1677551269531 420.62451171875 C 502.8656921386719 559.73974609375 518.282958984375 479.7332458496094 422.27508544921875 505.00250244140625 C 277.3856506347656 505.0045471191406 264.4164733886719 504.9860534667969 99.38944244384766 505.000244140625 C 127.80374145507812 352.1540222167969 303.3883361816406 420.6699523925781 465.39227294921875 341.9042663574219 C 389.9646301269531 513.9131469726562 320.83697509765625 407.7637939453125 501.1677551269531 420.62451171875" stroke-width="0.0" fill="rgb(65, 88, 102)" opacity="0.5983443" stroke="rgb(132, 36, 163)" stroke-opacity="0.031731244" stroke-linecap="round" stroke-linejoin="round"/>
    <path d="M 502.3726501464844 421.2381286621094 C 503.115966796875 440.84136962890625 500.0609130859375 428.30413818359375 503.01220703125 430.93603515625 C 455.3025817871094 430.00103759765625 440.0440673828125 432.18389892578125 367.6820068359375 430.8905334472656 C 359.1804504394531 417.23150634765625 369.9225769042969 420.0252685546875 492.1129455566406 419.39947509765625 C 505.209716796875 419.68115234375 502.1756286621094 418.9104309082031 502.3726501464844 421.2381286621094" stroke-width="0.0" fill="rgb(40, 39, 59)" opacity="1.0" stroke="rgb(138, 114, 182)" stroke-opacity="0.8806253" stroke-linecap="round" stroke-linejoin="round"/>
    <path d="M 127.40569305419922 171.13841247558594 C 125.66301727294922 262.9779052734375 131.9532470703125 235.2692413330078 117.44648742675781 242.21575927734375 C 91.20597839355469 239.6145782470703 98.81990814208984 257.0025939941406 97.33013153076172 171.60943603515625 C 138.72225952148438 171.18521118164062 95.67606353759766 167.0726318359375 114.8633041381836 232.68284606933594 C 116.86842346191406 158.47398376464844 110.40652465820312 173.3441925048828 127.40569305419922 171.13841247558594" stroke-width="0.0" fill="rgb(255, 247, 229)" opacity="0.9580778" stroke="rgb(7, 27, 232)" stroke-opacity="0.3824891" stroke-linecap="round" stroke-linejoin="round"/>
    <path d="M 457.3707580566406 212.30581665039062 C 457.1096496582031 247.0816650390625 457.34429931640625 261.1593322753906 457.4538269042969 262.51202392578125 C 388.66253662109375 261.8714294433594 390.9579772949219 265.4848327636719 396.1019592285156 254.91250610351562 C 377.8246154785156 211.3028564453125 369.97540283203125 210.2212677001953 449.0220642089844 215.59530639648438 C 453.7904968261719 209.7744140625 458.3718566894531 213.9832763671875 457.3707580566406 212.30581665039062" stroke-width="0.0" fill="rgb(39, 40, 60)" opacity="0.9395139" stroke="rgb(100, 162, 133)" stroke-opacity="0.9472778" stroke-linecap="round" stroke-linejoin="round"/>
    <path d="M 264.3752746582031 207.95652770996094 C 263.6564636230469 267.9974670410156 264.85040283203125 249.9049530029297 263.44122314453125 252.28541564941406 C 202.65687561035156 250.2978057861328 222.1873016357422 255.13128662109375 153.67604064941406 252.8395538330078 C 153.80575561523438 145.69744873046875 150.4333038330078 167.0820770263672 164.55308532714844 163.6725311279297 C 286.11480712890625 166.70602416992188 262.42333984375 148.35667419433594 264.3752746582031 207.95652770996094" stroke-width="0.0" fill="rgb(230, 191, 168)" opacity="0.95810056" stroke="rgb(190, 239, 225)" stroke-opacity="0.2116935" stroke-linecap="round" stroke-linejoin="round"/>
    <path d="M 381.76947021484375 219.5004119873047 C 372.4949035644531 261.4899597167969 384.59503173828125 245.78286743164062 364.0442199707031 243.31959533691406 C 357.7677307128906 210.37184143066406 356.4161376953125 249.3116912841797 339.6274719238281 252.01820373535156 C 332.0978698730469 200.93614196777344 325.2411804199219 192.06622314453125 365.7520751953125 215.8641357421875 C 373.1271057128906 204.7687530517578 370.986572265625 211.43283081054688 381.76947021484375 219.5004119873047" stroke-width="0.0" fill="rgb(255, 252, 235)" opacity="0.9105855" stroke="rgb(73, 196, 118)" stroke-opacity="0.17311981" stroke-linecap="round" stroke-linejoin="round"/>
    <path d="M 364.2109069824219 271.39617919921875 C 367.65472412109375 379.0018615722656 353.87359619140625 246.5801544189453 351.2718811035156 313.8164978027344 C 334.2243957519531 309.1744689941406 359.4231262207031 291.27825927734375 328.34356689453125 295.6524963378906 C 323.83416748046875 264.08502197265625 362.6419677734375 307.44439697265625 335.5914306640625 265.7073669433594 C 387.84649658203125 315.1641845703125 330.6866760253906 255.34649658203125 364.2109069824219 271.39617919921875" stroke-width="0.0" fill="rgb(255, 249, 231)" opacity="0.9503678" stroke="rgb(227, 219, 103)" stroke-opacity="0.9342853" stroke-linecap="round" stroke-linejoin="round"/>
    <path d="M 115.1035385131836 387.48992919921875 C 157.50656127929688 353.93743896484375 150.88906860351562 263.4573669433594 120.08973693847656 308.5789489746094 C 134.7860870361328 389.1061096191406 76.96932983398438 402.99761962890625 88.40961456298828 302.107177734375 C 34.79910659790039 308.30517578125 55.58428192138672 288.3203430175781 78.52716064453125 274.7435302734375 C 111.11495208740234 274.1634826660156 134.25315856933594 295.2810974121094 115.1035385131836 387.48992919921875" stroke-width="0.0" fill="rgb(86, 138, 162)" opacity="0.859611" stroke="rgb(96, 253, 215)" stroke-opacity="0.123503804" stroke-linecap="round" stroke-linejoin="round"/>
    <path d="M 269.7810974121094 350.3621826171875 C 268.66986083984375 351.4901123046875 275.4150390625 351.1864013671875 250.803466796875 351.4039306640625 C 244.4165496826172 341.7293395996094 257.26983642578125 430.0115966796875 238.84951782226562 410.5638732910156 C 246.0514373779297 304.1085205078125 227.54617309570312 319.9393310546875 269.5205993652344 324.50164794921875 C 268.9624328613281 278.5583801269531 269.045654296875 289.3857116699219 269.7810974121094 350.3621826171875" stroke-width="0.0" fill="rgb(48, 49, 70)" opacity="0.97548085" stroke="rgb(5, 136, 113)" stroke-opacity="0.38221484" stroke-linecap="round" stroke-linejoin="round"/>
    <path d="M 429.2782287597656 216.74964904785156 C 398.8074951171875 243.054931640625 400.9303894042969 255.54232788085938 401.12933349609375 293.0809326171875 C 318.2541198730469 295.05224609375 410.38653564453125 264.0341796875 377.25567626953125 250.96194458007812 C 377.2450866699219 131.98805236816406 350.66943359375 107.41807556152344 394.0643005371094 155.3361053466797 C 398.4588623046875 273.5054931640625 381.31201171875 223.62786865234375 429.2782287597656 216.74964904785156" stroke-width="0.0" fill="rgb(34, 42, 66)" opacity="0.85724676" stroke="rgb(29, 103, 144)" stroke-opacity="0.8475176" stroke-linecap="round" stroke-linejoin="round"/>
    <path d="M 47.929359436035156 426.6209411621094 C 52.056758880615234 408.4525146484375 50.05790710449219 406.26312255859375 41.10008239746094 422.33660888671875 C 5.2798895835876465 432.9250183105469 31.756446838378906 410.9358825683594 5.0927300453186035 411.562744140625 C 8.034295082092285 397.33026123046875 -6.8917436599731445 400.7294921875 43.62654495239258 401.070068359375 C 37.147071838378906 336.712646484375 57.948463439941406 387.3064880371094 47.929359436035156 426.6209411621094" stroke-width="0.0" fill="rgb(0, 0, 18)" opacity="0.70715" stroke="rgb(247, 76, 97)" stroke-opacity="0.7906542" stroke-linecap="round" stroke-linejoin="round"/>
    <path d="M 133.2071990966797 504.0472717285156 C 92.96128845214844 504.92205810546875 75.42675018310547 504.4814758300781 63.35266876220703 504.8458557128906 C 28.85847282409668 504.3894958496094 15.517341613769531 504.7917175292969 5.548229217529297 504.5828857421875 C 6.219352722167969 441.416259765625 3.75689435005188 442.1886291503906 11.860158920288086 449.65765380859375 C 110.99153900146484 444.0416259765625 117.68482971191406 434.2939147949219 133.2071990966797 504.0472717285156" stroke-width="0.0" fill="rgb(69, 108, 131)" opacity="1.0" stroke="rgb(249, 235, 215)" stroke-opacity="0.49614444" stroke-linecap="round" stroke-linejoin="round"/>
    <path d="M 307.5545959472656 69.6553726196289 C 308.7720031738281 75.69316101074219 301.00189208984375 94.29949951171875 280.1502380371094 93.20137786865234 C 274.3402404785156 94.53470611572266 275.4032287597656 87.45706176757812 279.0029296875 72.9352798461914 C 279.3031311035156 51.48362731933594 277.27392578125 60.385223388671875 283.7257385253906 42.8608283996582 C 300.4285888671875 45.233734130859375 308.9312438964844 59.69831466674805 307.5545959472656 69.6553726196289" stroke-width="0.0" fill="rgb(255, 248, 230)" opacity="0.95692176" stroke="rgb(116, 23, 204)" stroke-opacity="0.96190923" stroke-linecap="round" stroke-linejoin="round"/>
    <path d="M 456.9598083496094 305.0145568847656 C 431.096923828125 220.3816680908203 452.2637023925781 331.9815673828125 430.3918762207031 292.6153564453125 C 445.1643371582031 264.656982421875 402.5887756347656 269.0720520019531 402.0313415527344 292.5662841796875 C 403.6424255371094 249.91806030273438 386.1486511230469 266.68121337890625 462.11431884765625 262.5650939941406 C 454.32708740234375 260.9651184082031 460.71923828125 247.69149780273438 456.9598083496094 305.0145568847656" stroke-width="0.0" fill="rgb(255, 249, 233)" opacity="0.94126" stroke="rgb(251, 244, 173)" stroke-opacity="0.6542502" stroke-linecap="round" stroke-linejoin="round"/>
    <path d="M 148.60745239257812 121.86103057861328 C 148.52650451660156 153.19024658203125 149.69610595703125 146.8035125732422 147.43894958496094 147.3834686279297 C 122.54380798339844 146.24191284179688 128.13458251953125 151.48757934570312 127.2245101928711 137.6392822265625 C 129.20663452148438 59.62868881225586 122.23239135742188 53.18473815917969 139.20066833496094 73.4089584350586 C 144.05914306640625 124.3246078491211 132.88079833984375 123.28018188476562 148.60745239257812 121.86103057861328" stroke-width="0.0" fill="rgb(44, 49, 70)" opacity="0.97750694" stroke="rgb(165, 34, 120)" stroke-opacity="0.9988484" stroke-linecap="round" stroke-linejoin="round"/>
    <path d="M 450.1890869140625 363.2653503417969 C 470.3288879394531 400.34332275390625 419.2093505859375 373.4045715332031 436.6318664550781 407.783203125 C 419.2934875488281 432.498779296875 430.2216796875 413.6874084472656 423.5771484375 341.934814453125 C 445.5787048339844 399.9314880371094 436.47479248046875 338.0047302246094 438.9486083984375 349.93353271484375 C 455.0713806152344 351.7028503417969 448.7486267089844 341.2632141113281 450.1890869140625 363.2653503417969" stroke-width="0.0" fill="rgb(244, 236, 220)" opacity="1.0" stroke="rgb(228, 205, 223)" stroke-opacity="0.3234782" stroke-linecap="round" stroke-linejoin="round"/>
    <path d="M 379.1526794433594 249.42703247070312 C 367.40447998046875 371.2595520019531 371.2030029296875 372.0252990722656 361.1264953613281 368.2884826660156 C 310.540283203125 368.863037109375 322.5936279296875 378.28131103515625 320.2916564941406 306.2829895019531 C 330.0635681152344 319.63494873046875 326.7146911621094 271.9077453613281 333.39556884765625 306.0190734863281 C 403.46490478515625 324.9332275390625 332.7386169433594 227.8734893798828 379.1526794433594 249.42703247070312" stroke-width="0.0" fill="rgb(68, 133, 164)" opacity="0.69809085" stroke="rgb(220, 226, 195)" stroke-opacity="0.83406967" stroke-linecap="round" stroke-linejoin="round"/>
    <path d="M 308.40509033203125 403.64404296875 C 305.5939025878906 401.50732421875 275.8905334472656 420.0442810058594 355.4324951171875 411.2685241699219 C 264.56414794921875 456.9342346191406 312.08831787109375 390.1672668457031 288.0089416503906 381.875732421875 C 289.7402648925781 479.07135009765625 275.6438903808594 407.4998474121094 281.664794921875 382.8760681152344 C 321.545654296875 384.2385559082031 305.21527099609375 377.0908203125 308.40509033203125 403.64404296875" stroke-width="0.0" fill="rgb(255, 237, 219)" opacity="0.9262886" stroke="rgb(247, 59, 168)" stroke-opacity="0.006404784" stroke-linecap="round" stroke-linejoin="round"/>
    <path d="M 125.650634765625 403.1644592285156 C 123.93303680419922 434.71337890625 82.82826232910156 411.5106201171875 87.8388442993164 423.1875305175781 C 39.61545181274414 423.967041015625 81.74048614501953 423.32757568359375 49.85488510131836 410.433349609375 C 41.27950668334961 398.8206787109375 45.58881378173828 401.3349914550781 77.45065307617188 401.1698303222656 C 82.76966094970703 401.87860107421875 122.31591796875 397.7913513183594 125.650634765625 403.1644592285156" stroke-width="0.0" fill="rgb(39, 35, 53)" opacity="0.9259993" stroke="rgb(79, 222, 198)" stroke-opacity="0.31469843" stroke-linecap="round" stroke-linejoin="round"/>
    <path d="M 382.3949279785156 420.0082092285156 C 384.4360656738281 435.1993103027344 385.27923583984375 429.5389709472656 287.88287353515625 431.3811340332031 C 222.06121826171875 429.0532531738281 232.2526092529297 435.86724853515625 239.5050811767578 420.2832336425781 C 301.9026794433594 418.8051452636719 326.21722412109375 419.8678283691406 330.6647033691406 419.31842041015625 C 362.49139404296875 420.9582214355469 377.1705322265625 419.5499572753906 382.3949279785156 420.0082092285156" stroke-width="0.0" fill="rgb(39, 39, 58)" opacity="0.9958308" stroke="rgb(26, 229, 103)" stroke-opacity="0.73375624" stroke-linecap="round" stroke-linejoin="round"/>
    <path d="M 458.6171569824219 256.6329345703125 C 458.7253112792969 347.57733154296875 461.5823059082031 327.489990234375 455.80950927734375 330.5653076171875 C 418.7750549316406 328.76593017578125 429.0526123046875 337.865966796875 427.13653564453125 307.67828369140625 C 429.1955871582031 286.71875 413.529541015625 294.06683349609375 494.8504638671875 295.88543701171875 C 509.7258605957031 235.47459411621094 456.54071044921875 278.5517578125 458.6171569824219 256.6329345703125" stroke-width="0.0" fill="rgb(14, 18, 43)" opacity="0.8087827" stroke="rgb(222, 210, 118)" stroke-opacity="0.6305335" stroke-linecap="round" stroke-linejoin="round"/>
    <path d="M 133.0046844482422 412.96490478515625 C 150.39703369140625 485.43365478515625 123.56464385986328 472.0738525390625 46.21928405761719 472.4611511230469 C 1.4799915552139282 472.9803466796875 6.10297155380249 476.1098937988281 6.363621234893799 420.155517578125 C 65.64937591552734 429.67822265625 25.484203338623047 416.172607421875 55.12431335449219 410.4107666015625 C 79.28789520263672 425.4973449707031 32.21613693237305 435.5504150390625 133.0046844482422 412.96490478515625" stroke-width="0.0" fill="rgb(143, 182, 184)" opacity="0.7154558" stroke="rgb(120, 82, 153)" stroke-opacity="0.7510993" stroke-linecap="round" stroke-linejoin="round"/>
    <path d="M 269.38299560546875 303.2741394042969 C 270.8478698730469 330.73828125 269.2044677734375 327.9937438964844 269.80755615234375 324.24505615234375 C 239.564453125 325.286865234375 201.07806396484375 322.82135009765625 197.39999389648438 320.9771728515625 C 227.6322479248047 286.9713439941406 253.39254760742188 311.9429626464844 252.02288818359375 295.3555603027344 C 276.4454345703125 293.47747802734375 270.5807189941406 302.9468994140625 269.38299560546875 303.2741394042969" stroke-width="0.0" fill="rgb(103, 167, 194)" opacity="0.9381672" stroke="rgb(194, 68, 150)" stroke-opacity="0.103015" stroke-linecap="round" stroke-linejoin="round"/>
    <path d="M 374.4163818359375 369.23162841796875 C 360.30218505859375 369.41412353515625 350.367919921875 369.37200927734375 306.70684814453125 369.5083312988281 C 292.541015625 306.1870422363281 289.1618347167969 432.9049072265625 290.5400695800781 235.5755157470703 C 334.20831298828125 318.0489807128906 279.3605041503906 375.99517822265625 340.1328430175781 342.1961364746094 C 381.5848388671875 323.35906982421875 371.0406494140625 246.16754150390625 374.4163818359375 369.23162841796875" stroke-width="0.0" fill="rgb(50, 53, 71)" opacity="0.95917296" stroke="rgb(3, 187, 141)" stroke-opacity="0.5706876" stroke-linecap="round" stroke-linejoin="round"/>
    <path d="M 310.17926025390625 280.49664306640625 C 322.9952087402344 331.0908203125 246.43075561523438 275.14959716796875 252.34649658203125 304.07830810546875 C 230.02183532714844 329.3966979980469 240.3876190185547 284.0967102050781 232.4044952392578 347.570068359375 C 206.81333923339844 267.7253723144531 214.52578735351562 237.6571807861328 268.5038146972656 286.0196228027344 C 263.8277282714844 322.00335693359375 302.0488586425781 285.8490295410156 310.17926025390625 280.49664306640625" stroke-width="0.0" fill="rgb(64, 109, 137)" opacity="0.73309743" stroke="rgb(91, 154, 11)" stroke-opacity="0.78474444" stroke-linecap="round" stroke-linejoin="round"/>
    <path d="M 243.66397094726562 401.2230224609375 C 231.96197509765625 425.4543762207031 237.10922241210938 405.9717102050781 234.9427947998047 420.6482849121094 C 101.56998443603516 418.6551818847656 81.0160903930664 423.5608215332031 121.88548278808594 415.4140625 C 104.73161315917969 376.7662353515625 132.02195739746094 370.8124694824219 124.6776123046875 400.90679931640625 C 180.6351776123047 400.4070129394531 187.00669860839844 401.4314880371094 243.66397094726562 401.2230224609375" stroke-width="0.0" fill="rgb(36, 35, 54)" opacity="0.9237035" stroke="rgb(31, 16, 203)" stroke-opacity="0.98174894" stroke-linecap="round" stroke-linejoin="round"/>
    <path d="M 481.0 302.0 C 480.33013916015625 304.5 478.5 306.33013916015625 476.0 307.0 C 473.5 306.33013916015625 471.66986083984375 304.5 471.0 302.0 C 471.66986083984375 299.5 473.5 297.66986083984375 476.0 297.0 C 478.5 297.66986083984375 480.33013916015625 299.5 481.0 302.0" stroke-width="0.0" fill="rgb(254, 245, 229)" opacity="1.0" stroke="rgb(79, 142, 229)" stroke-opacity="0.69756156" stroke-linecap="round" stroke-linejoin="round"/>
    <path d="M 35.0 290.0 C 34.33012771606445 292.5 32.5 294.33013916015625 30.0 295.0 C 27.5 294.33013916015625 25.669872283935547 292.5 25.0 290.0 C 25.669872283935547 287.5 27.5 285.66986083984375 30.0 285.0 C 32.5 285.66986083984375 34.33012771606445 287.5 35.0 290.0" stroke-width="0.0" fill="rgb(227, 184, 159)" opacity="1.0" stroke="rgb(93, 188, 159)" stroke-opacity="0.05516901" stroke-linecap="round" stroke-linejoin="round"/>
    <path d="M 496.0 390.0 C 495.33013916015625 392.5 493.5 394.33013916015625 491.0 395.0 C 488.5 394.33013916015625 486.66986083984375 392.5 486.0 390.0 C 486.66986083984375 387.5 488.5 385.66986083984375 491.0 385.0 C 493.5 385.66986083984375 495.33013916015625 387.5 496.0 390.0" stroke-width="0.0" fill="rgb(90, 153, 180)" opacity="1.0" stroke="rgb(184, 168, 71)" stroke-opacity="0.47220364" stroke-linecap="round" stroke-linejoin="round"/>
    <path d="M 284.0 497.0 C 283.33013916015625 499.5 281.5 501.33013916015625 279.0 502.0 C 276.5 501.33013916015625 274.66986083984375 499.5 274.0 497.0 C 274.66986083984375 494.5 276.5 492.66986083984375 279.0 492.0 C 281.5 492.66986083984375 283.33013916015625 494.5 284.0 497.0" stroke-width="0.0" fill="rgb(64, 104, 128)" opacity="1.0" stroke="rgb(51, 43, 232)" stroke-opacity="0.35013244" stroke-linecap="round" stroke-linejoin="round"/>
    <path d="M 336.0 187.0 C 335.33013916015625 189.5 333.5 191.3301239013672 331.0 192.0 C 328.5 191.3301239013672 326.66986083984375 189.5 326.0 187.0 C 326.66986083984375 184.5 328.5 182.6698760986328 331.0 182.0 C 333.5 182.6698760986328 335.33013916015625 184.5 336.0 187.0" stroke-width="0.0" fill="rgb(255, 249, 229)" opacity="1.0" stroke="rgb(235, 238, 107)" stroke-opacity="0.6616238" stroke-linecap="round" stroke-linejoin="round"/>
    <path d="M 323.0 187.0 C 322.33013916015625 189.5 320.5 191.3301239013672 318.0 192.0 C 315.5 191.3301239013672 313.66986083984375 189.5 313.0 187.0 C 313.66986083984375 184.5 315.5 182.6698760986328 318.0 182.0 C 320.5 182.6698760986328 322.33013916015625 184.5 323.0 187.0" stroke-width="0.0" fill="rgb(254, 250, 234)" opacity="1.0" stroke="rgb(220, 72, 65)" stroke-opacity="0.4944548" stroke-linecap="round" stroke-linejoin="round"/>
    <path d="M 479.0 370.0 C 478.33013916015625 372.5 476.5 374.33013916015625 474.0 375.0 C 471.5 374.33013916015625 469.66986083984375 372.5 469.0 370.0 C 469.66986083984375 367.5 471.5 365.66986083984375 474.0 365.0 C 476.5 365.66986083984375 478.33013916015625 367.5 479.0 370.0" stroke-width="0.0" fill="rgb(104, 162, 185)" opacity="1.0" stroke="rgb(48, 246, 51)" stroke-opacity="0.626694" stroke-linecap="round" stroke-linejoin="round"/>
    <path d="M 505.0 358.0 C 504.33013916015625 360.5 502.5 362.33013916015625 500.0 363.0 C 497.5 362.33013916015625 495.66986083984375 360.5 495.0 358.0 C 495.66986083984375 355.5 497.5 353.66986083984375 500.0 353.0 C 502.5 353.66986083984375 504.33013916015625 355.5 505.0 358.0" stroke-width="0.0" fill="rgb(39, 37, 56)" opacity="1.0" stroke="rgb(62, 42, 191)" stroke-opacity="0.35990828" stroke-linecap="round" stroke-linejoin="round"/>
    <path d="M 347.0 497.0 C 346.33013916015625 499.5 344.5 501.33013916015625 342.0 502.0 C 339.5 501.33013916015625 337.66986083984375 499.5 337.0 497.0 C 337.66986083984375 494.5 339.5 492.66986083984375 342.0 492.0 C 344.5 492.66986083984375 346.33013916015625 494.5 347.0 497.0" stroke-width="0.0" fill="rgb(64, 102, 123)" opacity="1.0" stroke="rgb(47, 177, 5)" stroke-opacity="0.85309774" stroke-linecap="round" stroke-linejoin="round"/>
    <path d="M 321.0 497.0 C 320.33013916015625 499.5 318.5 501.33013916015625 316.0 502.0 C 313.5 501.33013916015625 311.66986083984375 499.5 311.0 497.0 C 311.66986083984375 494.5 313.5 492.66986083984375 316.0 492.0 C 318.5 492.66986083984375 320.33013916015625 494.5 321.0 497.0" stroke-width="0.0" fill="rgb(59, 97, 121)" opacity="1.0" stroke="rgb(242, 168, 80)" stroke-opacity="0.24128757" stroke-linecap="round" stroke-linejoin="round"/>
    <path d="M 439.0 495.0 C 438.33013916015625 497.5 436.5 499.33013916015625 434.0 500.0 C 431.5 499.33013916015625 429.66986083984375 497.5 429.0 495.0 C 429.66986083984375 492.5 431.5 490.66986083984375 434.0 490.0 C 436.5 490.66986083984375 438.33013916015625 492.5 439.0 495.0" stroke-width="0.0" fill="rgb(59, 97, 120)" opacity="1.0" stroke="rgb(107, 123, 96)" stroke-opacity="0.20884328" stroke-linecap="round" stroke-linejoin="round"/>
    <path d="M 409.0 498.0 C 408.33013916015625 500.5 406.5 502.33013916015625 404.0 503.0 C 401.5 502.33013916015625 399.66986083984375 500.5 399.0 498.0 C 399.66986083984375 495.5 401.5 493.66986083984375 404.0 493.0 C 406.5 493.66986083984375 408.33013916015625 495.5 409.0 498.0" stroke-width="0.0" fill="rgb(59, 90, 114)" opacity="1.0" stroke="rgb(79, 147, 117)" stroke-opacity="0.016182972" stroke-linecap="round" stroke-linejoin="round"/>
    <path d="M 420.0 364.0 C 419.33013916015625 366.5 417.5 368.33013916015625 415.0 369.0 C 412.5 368.33013916015625 410.66986083984375 366.5 410.0 364.0 C 410.66986083984375 361.5 412.5 359.66986083984375 415.0 359.0 C 417.5 359.66986083984375 419.33013916015625 361.5 420.0 364.0" stroke-width="0.0" fill="rgb(252, 204, 179)" opacity="1.0" stroke="rgb(46, 81, 14)" stroke-opacity="0.23555923" stroke-linecap="round" stroke-linejoin="round"/>
    <path d="M 151.0 300.0 C 150.3301239013672 302.5 148.5 304.33013916015625 146.0 305.0 C 143.5 304.33013916015625 141.6698760986328 302.5 141.0 300.0 C 141.6698760986328 297.5 143.5 295.66986083984375 146.0 295.0 C 148.5 295.66986083984375 150.3301239013672 297.5 151.0 300.0" stroke-width="0.0" fill="rgb(115, 173, 195)" opacity="1.0" stroke="rgb(139, 2, 212)" stroke-opacity="0.8786899" stroke-linecap="round" stroke-linejoin="round"/>
    <path d="M 345.0 395.0 C 344.33013916015625 397.5 342.5 399.33013916015625 340.0 400.0 C 337.5 399.33013916015625 335.66986083984375 397.5 335.0 395.0 C 335.66986083984375 392.5 337.5 390.66986083984375 340.0 390.0 C 342.5 390.66986083984375 344.33013916015625 392.5 345.0 395.0" stroke-width="0.0" fill="rgb(46, 47, 66)" opacity="1.0" stroke="rgb(202, 164, 1)" stroke-opacity="0.24963586" stroke-linecap="round" stroke-linejoin="round"/>
    <path d="M 390.0 77.0 C 389.33013916015625 79.5 387.5 81.33012390136719 385.0 82.0 C 382.5 81.33012390136719 380.66986083984375 79.5 380.0 77.0 C 380.66986083984375 74.5 382.5 72.66987609863281 385.0 72.0 C 387.5 72.66987609863281 389.33013916015625 74.5 390.0 77.0" stroke-width="0.0" fill="rgb(254, 244, 223)" opacity="1.0" stroke="rgb(37, 7, 42)" stroke-opacity="0.7138254" stroke-linecap="round" stroke-linejoin="round"/>
    <path d="M 485.0 340.0 C 484.33013916015625 342.5 482.5 344.33013916015625 480.0 345.0 C 477.5 344.33013916015625 475.66986083984375 342.5 475.0 340.0 C 475.66986083984375 337.5 477.5 335.66986083984375 480.0 335.0 C 482.5 335.66986083984375 484.33013916015625 337.5 485.0 340.0" stroke-width="0.0" fill="rgb(98, 157, 184)" opacity="1.0" stroke="rgb(31, 233, 33)" stroke-opacity="0.6680494" stroke-linecap="round" stroke-linejoin="round"/>
    <path d="M 83.0 361.0 C 82.33012390136719 363.5 80.5 365.33013916015625 78.0 366.0 C 75.5 365.33013916015625 73.66987609863281 363.5 73.0 361.0 C 73.66987609863281 358.5 75.5 356.66986083984375 78.0 356.0 C 80.5 356.66986083984375 82.33012390136719 358.5 83.0 361.0" stroke-width="0.0" fill="rgb(253, 248, 233)" opacity="1.0" stroke="rgb(215, 215, 187)" stroke-opacity="0.43470016" stroke-linecap="round" stroke-linejoin="round"/>
    <path d="M 22.0 327.0 C 21.330127716064453 329.5 19.5 331.33013916015625 17.0 332.0 C 14.5 331.33013916015625 12.669873237609863 329.5 12.0 327.0 C 12.669873237609863 324.5 14.5 322.66986083984375 17.0 322.0 C 19.5 322.66986083984375 21.330127716064453 324.5 22.0 327.0" stroke-width="0.0" fill="rgb(92, 148, 172)" opacity="1.0" stroke="rgb(125, 120, 153)" stroke-opacity="0.14694199" stroke-linecap="round" stroke-linejoin="round"/>
    <path d="M 203.0 286.0 C 202.3301239013672 288.5 200.5 290.33013916015625 198.0 291.0 C 195.5 290.33013916015625 193.6698760986328 288.5 193.0 286.0 C 193.6698760986328 283.5 195.5 281.66986083984375 198.0 281.0 C 200.5 281.66986083984375 202.3301239013672 283.5 203.0 286.0" stroke-width="0.0" fill="rgb(46, 48, 69)" opacity="1.0" stroke="rgb(62, 147, 17)" stroke-opacity="0.838266" stroke-linecap="round" stroke-linejoin="round"/>
    <path d="M 360.0 341.0 C 359.33013916015625 343.5 357.5 345.33013916015625 355.0 346.0 C 352.5 345.33013916015625 350.66986083984375 343.5 350.0 341.0 C 350.66986083984375 338.5 352.5 336.66986083984375 355.0 336.0 C 357.5 336.66986083984375 359.33013916015625 338.5 360.0 341.0" stroke-width="0.0" fill="rgb(130, 181, 198)" opacity="1.0" stroke="rgb(46, 184, 106)" stroke-opacity="0.1668459" stroke-linecap="round" stroke-linejoin="round"/>
    <path d="M 208.0 301.0 C 207.3301239013672 303.5 205.5 305.33013916015625 203.0 306.0 C 200.5 305.33013916015625 198.6698760986328 303.5 198.0 301.0 C 198.6698760986328 298.5 200.5 296.66986083984375 203.0 296.0 C 205.5 296.66986083984375 207.3301239013672 298.5 208.0 301.0" stroke-width="0.0" fill="rgb(35, 37, 59)" opacity="1.0" stroke="rgb(185, 117, 85)" stroke-opacity="0.65270686" stroke-linecap="round" stroke-linejoin="round"/>
    <path d="M 291.0 176.0 C 290.33013916015625 178.5 288.5 180.3301239013672 286.0 181.0 C 283.5 180.3301239013672 281.66986083984375 178.5 281.0 176.0 C 281.66986083984375 173.5 283.5 171.6698760986328 286.0 171.0 C 288.5 171.6698760986328 290.33013916015625 173.5 291.0 176.0" stroke-width="0.0" fill="rgb(48, 48, 69)" opacity="1.0" stroke="rgb(94, 53, 192)" stroke-opacity="0.023081621" stroke-linecap="round" stroke-linejoin="round"/>
    <path d="M 367.0 194.0 C 366.33013916015625 196.5 364.5 198.3301239013672 362.0 199.0 C 359.5 198.3301239013672 357.66986083984375 196.5 357.0 194.0 C 357.66986083984375 191.5 359.5 189.6698760986328 362.0 189.0 C 364.5 189.6698760986328 366.33013916015625 191.5 367.0 194.0" stroke-width="0.0" fill="rgb(35, 34, 49)" opacity="1.0" stroke="rgb(238, 72, 166)" stroke-opacity="0.73696333" stroke-linecap="round" stroke-linejoin="round"/>
    <path d="M 504.0 383.0 C 503.33013916015625 385.5 501.5 387.33013916015625 499.0 388.0 C 496.5 387.33013916015625 494.66986083984375 385.5 494.0 383.0 C 494.66986083984375 380.5 496.5 378.66986083984375 499.0 378.0 C 501.5 378.66986083984375 503.33013916015625 380.5 504.0 383.0" stroke-width="0.0" fill="rgb(39, 39, 60)" opacity="1.0" stroke="rgb(110, 44, 17)" stroke-opacity="0.4039456" stroke-linecap="round" stroke-linejoin="round"/>
    <path d="M 23.0 284.0 C 22.330127716064453 286.5 20.5 288.33013916015625 18.0 289.0 C 15.5 288.33013916015625 13.669873237609863 286.5 13.0 284.0 C 13.669873237609863 281.5 15.5 279.66986083984375 18.0 279.0 C 20.5 279.66986083984375 22.330127716064453 281.5 23.0 284.0" stroke-width="0.0" fill="rgb(227, 183, 159)" opacity="1.0" stroke="rgb(121, 239, 12)" stroke-opacity="0.67051786" stroke-linecap="round" stroke-linejoin="round"/>
    <path d="M 183.0 296.0 C 182.3301239013672 298.5 180.5 300.33013916015625 178.0 301.0 C 175.5 300.33013916015625 173.6698760986328 298.5 173.0 296.0 C 173.6698760986328 293.5 175.5 291.66986083984375 178.0 291.0 C 180.5 291.66986083984375 182.3301239013672 293.5 183.0 296.0" stroke-width="0.0" fill="rgb(109, 166, 188)" opacity="1.0" stroke="rgb(9, 232, 119)" stroke-opacity="0.7423524" stroke-linecap="round" stroke-linejoin="round"/>
    <path d="M 125.0 73.0 C 124.33012390136719 75.5 122.5 77.33012390136719 120.0 78.0 C 117.5 77.33012390136719 115.66987609863281 75.5 115.0 73.0 C 115.66987609863281 70.5 117.5 68.66987609863281 120.0 68.0 C 122.5 68.66987609863281 124.33012390136719 70.5 125.0 73.0" stroke-width="0.0" fill="rgb(255, 247, 225)" opacity="1.0" stroke="rgb(158, 77, 92)" stroke-opacity="0.8817818" stroke-linecap="round" stroke-linejoin="round"/>
    <path d="M 367.0 435.0 C 366.33013916015625 437.5 364.5 439.33013916015625 362.0 440.0 C 359.5 439.33013916015625 357.66986083984375 437.5 357.0 435.0 C 357.66986083984375 432.5 359.5 430.66986083984375 362.0 430.0 C 364.5 430.66986083984375 366.33013916015625 432.5 367.0 435.0" stroke-width="0.0" fill="rgb(253, 241, 222)" opacity="1.0" stroke="rgb(187, 195, 65)" stroke-opacity="0.034683097" stroke-linecap="round" stroke-linejoin="round"/>
    <path d="M 394.0 496.0 C 393.33013916015625 498.5 391.5 500.33013916015625 389.0 501.0 C 386.5 500.33013916015625 384.66986083984375 498.5 384.0 496.0 C 384.66986083984375 493.5 386.5 491.66986083984375 389.0 491.0 C 391.5 491.66986083984375 393.33013916015625 493.5 394.0 496.0" stroke-width="0.0" fill="rgb(57, 88, 110)" opacity="1.0" stroke="rgb(20, 13, 124)" stroke-opacity="0.43640745" stroke-linecap="round" stroke-linejoin="round"/>
    <path d="M 406.0 314.0 C 405.33013916015625 316.5 403.5 318.33013916015625 401.0 319.0 C 398.5 318.33013916015625 396.66986083984375 316.5 396.0 314.0 C 396.66986083984375 311.5 398.5 309.66986083984375 401.0 309.0 C 403.5 309.66986083984375 405.33013916015625 311.5 406.0 314.0" stroke-width="0.0" fill="rgb(32, 36, 63)" opacity="1.0" stroke="rgb(240, 14, 232)" stroke-opacity="0.5813619" stroke-linecap="round" stroke-linejoin="round"/>
    <path d="M 385.0 415.0 C 384.33013916015625 417.5 382.5 419.33013916015625 380.0 420.0 C 377.5 419.33013916015625 375.66986083984375 417.5 375.0 415.0 C 375.66986083984375 412.5 377.5 410.66986083984375 380.0 410.0 C 382.5 410.66986083984375 384.33013916015625 412.5 385.0 415.0" stroke-width="0.0" fill="rgb(250, 198, 179)" opacity="1.0" stroke="rgb(11, 93, 67)" stroke-opacity="0.37828225" stroke-linecap="round" stroke-linejoin="round"/>
  </g>
</svg>
