<?xml version="1.0" ?>
<svg xmlns="http://www.w3.org/2000/svg" version="1.1" width="508" height="512">
  <defs/>
  <g>
    <path d="M 392.6398010253906 7.957558631896973 C 130.79774475097656 93.0665512084961 342.98040771484375 5.753787040710449 243.45179748535156 226.48110961914062 C 50.84994888305664 261.8416442871094 2.511488676071167 227.24261474609375 5.75384521484375 186.1501922607422 C 5.049185752868652 -60.777122497558594 6.092136859893799 33.071128845214844 5.297008514404297 7.956915378570557 C 166.39512634277344 7.9728546142578125 180.0550994873047 7.959078788757324 392.6398010253906 7.957558631896973" stroke-width="0.0" fill="rgb(63, 104, 111)" opacity="0.44102487" stroke="rgb(132, 25, 248)" stroke-opacity="0.6672364" stroke-linecap="round" stroke-linejoin="round"/>
    <path d="M 503.0700378417969 169.35501098632812 C 478.976806640625 307.6673583984375 572.83447265625 337.7077941894531 340.57696533203125 330.71392822265625 C 293.1275329589844 75.36207580566406 421.701416015625 45.51837921142578 378.55609130859375 29.112276077270508 C 374.5711364746094 0.5982707738876343 375.0567626953125 10.420540809631348 500.6407775878906 7.925329685211182 C 504.41339111328125 12.06082534790039 500.97869873046875 -21.396203994750977 503.0700378417969 169.35501098632812" stroke-width="0.0" fill="rgb(113, 118, 116)" opacity="0.5156664" stroke="rgb(223, 224, 133)" stroke-opacity="0.2944856" stroke-linecap="round" stroke-linejoin="round"/>
    <path d="M 493.2568664550781 7.98267126083374 C 430.4476623535156 65.10799407958984 385.656005859375 6.321651458740234 387.28814697265625 171.60870361328125 C 255.82672119140625 243.93087768554688 246.7982940673828 243.25186157226562 288.66033935546875 8.309884071350098 C 355.0783996582031 8.41712474822998 370.06536865234375 8.541584014892578 388.2091064453125 7.983398914337158 C 441.5044860839844 7.96053409576416 467.01666259765625 7.943002223968506 493.2568664550781 7.98267126083374" stroke-width="0.0" fill="rgb(102, 144, 150)" opacity="0.5252493" stroke="rgb(122, 83, 249)" stroke-opacity="0.8467586" stroke-linecap="round" stroke-linejoin="round"/>
    <path d="M 259.08203125 204.29795837402344 C 264.783935546875 469.39727783203125 221.05615234375 414.54144287109375 33.83298110961914 424.8220520019531 C -10.333507537841797 395.5899353027344 15.36236572265625 441.87469482421875 73.66292572021484 347.5886535644531 C 167.4185333251953 311.4122314453125 117.11396026611328 420.6403503417969 137.70892333984375 401.76324462890625 C 285.7564697265625 438.8838806152344 103.40826416015625 236.1764373779297 259.08203125 204.29795837402344" stroke-width="0.0" fill="rgb(0, 93, 136)" opacity="0.501104" stroke="rgb(38, 105, 161)" stroke-opacity="0.5637614" stroke-linecap="round" stroke-linejoin="round"/>
    <path d="M 153.909423828125 175.27682495117188 C 152.6121063232422 258.91876220703125 155.05923461914062 251.8689727783203 152.04270935058594 251.7827911376953 C 121.28392791748047 251.47775268554688 128.3353271484375 252.41162109375 127.4410400390625 251.50291442871094 C 128.22727966308594 193.01698303222656 127.23957824707031 177.9649200439453 127.92571258544922 150.3196563720703 C 166.46702575683594 152.68740844726562 150.77078247070312 141.8006591796875 153.909423828125 175.27682495117188" stroke-width="0.0" fill="rgb(50, 57, 77)" opacity="1.0" stroke="rgb(60, 241, 126)" stroke-opacity="0.019201314" stroke-linecap="round" stroke-linejoin="round"/>
    <path d="M 502.1103210449219 421.80413818359375 C 501.8844909667969 561.0728149414062 516.9962158203125 478.2072448730469 412.8530578613281 503.8414611816406 C 277.566650390625 505.63385009765625 264.4541320800781 504.7704772949219 100.5799560546875 505.0580749511719 C 133.93917846679688 351.3854064941406 305.475341796875 418.18255615234375 462.34368896484375 342.16400146484375 C 405.890380859375 518.60888671875 323.06329345703125 401.94073486328125 502.1103210449219 421.80413818359375" stroke-width="0.0" fill="rgb(65, 96, 111)" opacity="0.59969" stroke="rgb(132, 36, 163)" stroke-opacity="0.031731244" stroke-linecap="round" stroke-linejoin="round"/>
    <path d="M 502.4692077636719 420.7432861328125 C 502.8823547363281 440.8038024902344 500.5832214355469 428.30224609375 503.0351257324219 430.9541320800781 C 455.0394592285156 429.5069274902344 439.7722473144531 432.40484619140625 367.6707458496094 430.9613037109375 C 359.0724792480469 415.95147705078125 369.41937255859375 420.30157470703125 491.24493408203125 419.384521484375 C 505.2684326171875 419.5887145996094 502.20208740234375 418.99169921875 502.4692077636719 420.7432861328125" stroke-width="0.0" fill="rgb(37, 38, 58)" opacity="0.98650676" stroke="rgb(138, 114, 182)" stroke-opacity="0.8806253" stroke-linecap="round" stroke-linejoin="round"/>
    <path d="M 127.3774642944336 171.08482360839844 C 125.65465545654297 263.1346130371094 132.2162628173828 235.11447143554688 117.23219299316406 242.20089721679688 C 90.93375396728516 239.63656616210938 98.69700622558594 256.61407470703125 97.78594207763672 171.5052490234375 C 138.6480712890625 170.98001098632812 95.7510986328125 167.4547576904297 114.86579132080078 232.2183380126953 C 116.87760162353516 158.18812561035156 110.62872314453125 173.43405151367188 127.3774642944336 171.08482360839844" stroke-width="0.0" fill="rgb(255, 248, 231)" opacity="0.9654598" stroke="rgb(7, 27, 232)" stroke-opacity="0.3824891" stroke-linecap="round" stroke-linejoin="round"/>
    <path d="M 457.35552978515625 211.82962036132812 C 457.1275329589844 247.12258911132812 457.3832702636719 261.65020751953125 457.3594970703125 262.4692687988281 C 388.4657897949219 261.7773132324219 390.6653747558594 265.6768798828125 395.9781799316406 253.9727020263672 C 376.7027893066406 212.59559631347656 367.8846435546875 209.83425903320312 449.1196594238281 215.6516571044922 C 454.26373291015625 209.72213745117188 457.48223876953125 214.29270935058594 457.35552978515625 211.82962036132812" stroke-width="0.0" fill="rgb(38, 39, 59)" opacity="0.93137085" stroke="rgb(100, 162, 133)" stroke-opacity="0.9472778" stroke-linecap="round" stroke-linejoin="round"/>
    <path d="M 264.4341125488281 209.3317108154297 C 263.5699462890625 267.6727600097656 265.7518005371094 251.30963134765625 261.2281188964844 251.92404174804688 C 211.16949462890625 251.53121948242188 232.1908416748047 253.2436981201172 153.60006713867188 252.98709106445312 C 153.76434326171875 144.51063537597656 151.16038513183594 166.87075805664062 163.11627197265625 163.80548095703125 C 285.7394104003906 166.0654296875 262.7158203125 149.08544921875 264.4341125488281 209.3317108154297" stroke-width="0.0" fill="rgb(233, 191, 168)" opacity="0.9442681" stroke="rgb(190, 239, 225)" stroke-opacity="0.2116935" stroke-linecap="round" stroke-linejoin="round"/>
    <path d="M 381.66888427734375 218.5768585205078 C 372.68096923828125 261.93756103515625 385.1222229003906 244.1475830078125 364.2273254394531 244.71546936035156 C 357.6749572753906 210.13369750976562 356.92559814453125 248.74937438964844 338.26483154296875 253.45860290527344 C 338.12945556640625 197.20941162109375 321.3215637207031 194.72645568847656 365.6451721191406 215.88729858398438 C 373.6094055175781 204.83724975585938 370.1847839355469 211.29559326171875 381.66888427734375 218.5768585205078" stroke-width="0.0" fill="rgb(255, 251, 235)" opacity="0.92117" stroke="rgb(73, 196, 118)" stroke-opacity="0.17311981" stroke-linecap="round" stroke-linejoin="round"/>
    <path d="M 364.56646728515625 270.8934326171875 C 366.1792907714844 380.1055603027344 353.9650573730469 237.19802856445312 350.7063903808594 322.503173828125 C 332.9360656738281 310.61688232421875 360.7760314941406 290.86126708984375 328.28826904296875 295.6113586425781 C 323.6438903808594 264.0811462402344 362.8241882324219 307.3429870605469 335.38232421875 265.5465087890625 C 388.1426086425781 314.5724182128906 330.4008483886719 256.3149719238281 364.56646728515625 270.8934326171875" stroke-width="0.0" fill="rgb(255, 250, 231)" opacity="0.93594503" stroke="rgb(227, 219, 103)" stroke-opacity="0.9342853" stroke-linecap="round" stroke-linejoin="round"/>
    <path d="M 114.2345962524414 377.3107604980469 C 160.6550750732422 361.571533203125 145.74777221679688 275.5921630859375 119.99803924560547 311.0125427246094 C 129.47193908691406 388.5261535644531 79.86143493652344 401.7127380371094 87.81263732910156 302.2392578125 C 29.933130264282227 307.5209655761719 53.83203887939453 291.6007995605469 77.33966064453125 275.38336181640625 C 110.2200927734375 272.592041015625 133.14971923828125 295.5918273925781 114.2345962524414 377.3107604980469" stroke-width="0.0" fill="rgb(92, 136, 159)" opacity="1.0" stroke="rgb(96, 253, 215)" stroke-opacity="0.123503804" stroke-linecap="round" stroke-linejoin="round"/>
    <path d="M 269.81561279296875 350.470947265625 C 268.635009765625 351.4652099609375 275.9383239746094 351.3525390625 250.06082153320312 351.3083801269531 C 246.1776885986328 341.5819396972656 255.26956176757812 442.3631896972656 240.0489501953125 409.912353515625 C 242.934326171875 296.4974365234375 232.05758666992188 321.0960693359375 269.4851989746094 324.496337890625 C 268.8186950683594 278.57086181640625 269.0575256347656 289.3990478515625 269.81561279296875 350.470947265625" stroke-width="0.0" fill="rgb(49, 50, 71)" opacity="0.98971117" stroke="rgb(5, 136, 113)" stroke-opacity="0.38221484" stroke-linecap="round" stroke-linejoin="round"/>
    <path d="M 429.201416015625 216.34934997558594 C 398.47137451171875 243.02841186523438 401.08905029296875 255.51719665527344 400.9212646484375 293.107421875 C 316.44525146484375 294.0391845703125 413.9963073730469 268.82867431640625 377.24603271484375 250.21038818359375 C 377.35284423828125 131.7584228515625 350.74090576171875 108.11460876464844 393.3886413574219 154.6066131591797 C 400.3895263671875 271.84881591796875 377.0430603027344 223.41693115234375 429.201416015625 216.34934997558594" stroke-width="0.0" fill="rgb(38, 44, 66)" opacity="0.8954863" stroke="rgb(29, 103, 144)" stroke-opacity="0.8475176" stroke-linecap="round" stroke-linejoin="round"/>
    <path d="M 47.87669372558594 412.2652587890625 C 49.533897399902344 409.83331298828125 45.30243682861328 405.17315673828125 41.47221374511719 422.45928955078125 C 4.309000492095947 431.21197509765625 32.02394104003906 411.46136474609375 4.876198768615723 411.3780212402344 C 8.747421264648438 398.9372863769531 -8.355828285217285 399.9336853027344 43.51456832885742 401.08050537109375 C 37.26548767089844 335.01544189453125 57.733272552490234 393.9806213378906 47.87669372558594 412.2652587890625" stroke-width="0.0" fill="rgb(1, 1, 23)" opacity="0.7510589" stroke="rgb(247, 76, 97)" stroke-opacity="0.7906542" stroke-linecap="round" stroke-linejoin="round"/>
    <path d="M 133.26263427734375 503.701416015625 C 92.71929931640625 505.3250427246094 75.23480224609375 504.4151306152344 57.41498565673828 504.97900390625 C 28.467113494873047 504.2885437011719 15.604161262512207 504.9364929199219 5.519065856933594 504.6907043457031 C 5.717413425445557 439.862548828125 5.6315507888793945 440.51287841796875 6.511937141418457 449.7099914550781 C 113.37144470214844 442.427490234375 112.83810424804688 434.30511474609375 133.26263427734375 503.701416015625" stroke-width="0.0" fill="rgb(71, 109, 132)" opacity="1.0" stroke="rgb(249, 235, 215)" stroke-opacity="0.49614444" stroke-linecap="round" stroke-linejoin="round"/>
    <path d="M 307.68609619140625 68.81759643554688 C 308.134033203125 76.36377716064453 301.4476623535156 99.17271423339844 267.8530578613281 91.83313751220703 C 282.7839050292969 93.20518493652344 271.2118835449219 75.13532257080078 279.0119323730469 67.08231353759766 C 279.2009582519531 42.607601165771484 277.9501647949219 59.554473876953125 282.33026123046875 43.079994201660156 C 299.3083190917969 43.116146087646484 308.81048583984375 59.942649841308594 307.68609619140625 68.81759643554688" stroke-width="0.0" fill="rgb(255, 248, 230)" opacity="0.96185875" stroke="rgb(116, 23, 204)" stroke-opacity="0.96190923" stroke-linecap="round" stroke-linejoin="round"/>
    <path d="M 457.05413818359375 306.0892028808594 C 430.4788513183594 215.0088348388672 452.3693542480469 342.9580078125 430.1294250488281 291.8495178222656 C 445.0857849121094 273.2868957519531 404.6649169921875 250.79454040527344 402.4904479980469 310.33538818359375 C 402.36285400390625 243.7357940673828 388.2412414550781 268.1148986816406 462.12615966796875 262.326171875 C 453.813720703125 252.43641662597656 460.595458984375 246.1021270751953 457.05413818359375 306.0892028808594" stroke-width="0.0" fill="rgb(255, 248, 231)" opacity="0.9405584" stroke="rgb(251, 244, 173)" stroke-opacity="0.6542502" stroke-linecap="round" stroke-linejoin="round"/>
    <path d="M 148.65750122070312 121.44586181640625 C 148.57550048828125 153.75021362304688 149.5650177001953 146.4970245361328 147.29737854003906 147.33116149902344 C 122.35545349121094 146.16265869140625 128.2807159423828 151.72653198242188 127.22848510742188 136.2064971923828 C 129.73182678222656 65.18185424804688 119.12531280517578 51.67361831665039 138.58816528320312 72.1650619506836 C 144.9303436279297 117.15666961669922 132.1420440673828 124.96072387695312 148.65750122070312 121.44586181640625" stroke-width="0.0" fill="rgb(44, 48, 69)" opacity="0.97376853" stroke="rgb(165, 34, 120)" stroke-opacity="0.9988484" stroke-linecap="round" stroke-linejoin="round"/>
    <path d="M 450.18994140625 362.11328125 C 470.0543212890625 423.19598388671875 422.6741638183594 359.2520446777344 434.8074035644531 409.2955017089844 C 420.93133544921875 434.80462646484375 428.1595458984375 410.6352844238281 425.2342529296875 343.4061279296875 C 445.2989501953125 400.8542785644531 436.401611328125 334.5289001464844 438.9044189453125 349.9072570800781 C 454.04766845703125 351.7384033203125 448.95947265625 338.3853759765625 450.18994140625 362.11328125" stroke-width="0.0" fill="rgb(245, 239, 223)" opacity="1.0" stroke="rgb(228, 205, 223)" stroke-opacity="0.3234782" stroke-linecap="round" stroke-linejoin="round"/>
    <path d="M 386.80712890625 257.5572814941406 C 350.8133239746094 360.177734375 364.2106018066406 370.6815490722656 360.29681396484375 368.60845947265625 C 313.0769958496094 367.9696044921875 321.8155212402344 381.005859375 320.35711669921875 306.2242126464844 C 328.85406494140625 319.6875915527344 328.10955810546875 270.878662109375 333.302734375 307.6296691894531 C 418.4311218261719 318.91058349609375 303.4128112792969 190.23764038085938 386.80712890625 257.5572814941406" stroke-width="0.0" fill="rgb(74, 135, 164)" opacity="0.7599459" stroke="rgb(220, 226, 195)" stroke-opacity="0.83406967" stroke-linecap="round" stroke-linejoin="round"/>
    <path d="M 308.4573974609375 407.2155456542969 C 303.3564147949219 393.75885009765625 279.42742919921875 429.5983581542969 362.3102111816406 413.02093505859375 C 260.78228759765625 460.2221374511719 313.5208435058594 375.041015625 287.964599609375 389.5843811035156 C 289.36114501953125 474.19671630859375 276.40301513671875 408.5079345703125 281.3605041503906 382.9088134765625 C 320.60357666015625 384.5327453613281 305.1239929199219 375.60198974609375 308.4573974609375 407.2155456542969" stroke-width="0.0" fill="rgb(255, 251, 235)" opacity="0.9739419" stroke="rgb(247, 59, 168)" stroke-opacity="0.006404784" stroke-linecap="round" stroke-linejoin="round"/>
    <path d="M 126.15090942382812 401.5235900878906 C 121.98094177246094 436.1534118652344 81.21304321289062 410.7735900878906 88.44172668457031 423.27685546875 C 38.69321060180664 423.67767333984375 82.8606185913086 424.55804443359375 49.03157043457031 410.1946716308594 C 39.5009880065918 398.4750061035156 42.5458869934082 401.68182373046875 88.64288330078125 401.085205078125 C 77.46929168701172 400.6548767089844 123.8443374633789 399.6334228515625 126.15090942382812 401.5235900878906" stroke-width="0.0" fill="rgb(39, 35, 53)" opacity="0.932339" stroke="rgb(79, 222, 198)" stroke-opacity="0.31469843" stroke-linecap="round" stroke-linejoin="round"/>
    <path d="M 382.6202697753906 419.5245056152344 C 384.8292236328125 434.1687316894531 387.411376953125 430.4393310546875 285.9316711425781 431.2964782714844 C 220.24868774414062 429.0487060546875 233.03604125976562 435.956298828125 239.7168731689453 419.8541564941406 C 289.0892028808594 418.66339111328125 316.0333557128906 419.8186950683594 336.3887023925781 419.3815612792969 C 365.6991271972656 419.8868408203125 377.43267822265625 419.6026916503906 382.6202697753906 419.5245056152344" stroke-width="0.0" fill="rgb(40, 40, 60)" opacity="1.0" stroke="rgb(26, 229, 103)" stroke-opacity="0.73375624" stroke-linecap="round" stroke-linejoin="round"/>
    <path d="M 458.6002502441406 254.48272705078125 C 458.8247985839844 347.7928161621094 460.9252014160156 327.752197265625 457.1694641113281 330.54254150390625 C 417.6103820800781 329.3231506347656 429.3963317871094 335.4141845703125 427.1005554199219 312.2494201660156 C 429.7397155761719 285.2548828125 411.2336120605469 294.32354736328125 495.0444030761719 295.7475891113281 C 508.8470764160156 233.8978271484375 456.3804016113281 281.04107666015625 458.6002502441406 254.48272705078125" stroke-width="0.0" fill="rgb(20, 23, 47)" opacity="0.833622" stroke="rgb(222, 210, 118)" stroke-opacity="0.6305335" stroke-linecap="round" stroke-linejoin="round"/>
    <path d="M 133.64358520507812 412.3773193359375 C 164.41151428222656 484.3860778808594 133.87640380859375 470.0608825683594 45.35733413696289 471.9349670410156 C -1.0539684295654297 473.8739318847656 7.231935024261475 478.70391845703125 6.188541412353516 420.0320739746094 C 69.10823822021484 430.5943603515625 24.738618850708008 412.5943908691406 56.22828674316406 411.1443176269531 C 79.01310729980469 426.3823547363281 30.126705169677734 434.5865478515625 133.64358520507812 412.3773193359375" stroke-width="0.0" fill="rgb(141, 179, 181)" opacity="0.70601076" stroke="rgb(120, 82, 153)" stroke-opacity="0.7510993" stroke-linecap="round" stroke-linejoin="round"/>
    <path d="M 269.2520751953125 301.26409912109375 C 271.2737731933594 334.7134704589844 268.38555908203125 333.03759765625 269.8091125488281 324.2055358886719 C 237.7998504638672 325.21527099609375 195.94064331054688 322.6840515136719 197.9844512939453 320.5693359375 C 209.49044799804688 270.7262878417969 250.42709350585938 307.4459228515625 248.6033172607422 292.6779479980469 C 275.127685546875 292.24163818359375 271.3537902832031 304.3005065917969 269.2520751953125 301.26409912109375" stroke-width="0.0" fill="rgb(105, 166, 192)" opacity="0.947899" stroke="rgb(194, 68, 150)" stroke-opacity="0.103015" stroke-linecap="round" stroke-linejoin="round"/>
    <path d="M 373.73095703125 369.27239990234375 C 360.6781005859375 369.4189147949219 350.43060302734375 369.3644714355469 306.5959777832031 369.5180969238281 C 292.22998046875 305.77801513671875 289.1778869628906 432.7685546875 290.6435852050781 234.86138916015625 C 334.5247802734375 321.7374572753906 278.5713806152344 378.0711975097656 340.615966796875 339.4549255371094 C 372.5098876953125 319.8092346191406 374.0309753417969 228.46469116210938 373.73095703125 369.27239990234375" stroke-width="0.0" fill="rgb(51, 55, 74)" opacity="0.9692443" stroke="rgb(3, 187, 141)" stroke-opacity="0.5706876" stroke-linecap="round" stroke-linejoin="round"/>
    <path d="M 310.1353454589844 280.38836669921875 C 324.33941650390625 334.58282470703125 234.4796905517578 269.166748046875 253.82847595214844 303.83685302734375 C 220.30975341796875 334.472412109375 242.5390167236328 287.3627014160156 231.99630737304688 346.18804931640625 C 205.4780731201172 268.26263427734375 216.6595916748047 235.85023498535156 268.5843811035156 286.3538513183594 C 264.09271240234375 322.2117614746094 302.6866149902344 284.9380187988281 310.1353454589844 280.38836669921875" stroke-width="0.0" fill="rgb(66, 108, 135)" opacity="0.74697965" stroke="rgb(91, 154, 11)" stroke-opacity="0.78474444" stroke-linecap="round" stroke-linejoin="round"/>
    <path d="M 248.28599548339844 400.89178466796875 C 240.96714782714844 423.87628173828125 235.62060546875 402.7790222167969 235.3795623779297 420.6622009277344 C 96.34005737304688 418.86248779296875 75.82637786865234 423.9331970214844 122.51233673095703 413.3985290527344 C 103.14165496826172 377.6587219238281 131.92991638183594 370.0171813964844 124.70819091796875 400.751708984375 C 191.9010772705078 400.42828369140625 188.15057373046875 401.5908203125 248.28599548339844 400.89178466796875" stroke-width="0.0" fill="rgb(38, 38, 57)" opacity="0.9525911" stroke="rgb(31, 16, 203)" stroke-opacity="0.98174894" stroke-linecap="round" stroke-linejoin="round"/>
    <path d="M 499.8631591796875 309.7088928222656 C 490.96466064453125 325.7258605957031 479.05145263671875 289.74090576171875 482.09765625 329.9467468261719 C 457.7012939453125 280.5328674316406 475.7608642578125 337.9349670410156 459.3595275878906 327.0342712402344 C 462.0072326660156 287.11322021484375 453.11419677734375 298.2642517089844 473.8728332519531 295.71002197265625 C 520.2918090820312 300.9725646972656 498.74835205078125 284.81463623046875 499.8631591796875 309.7088928222656" stroke-width="0.0" fill="rgb(255, 249, 230)" opacity="0.92050004" stroke="rgb(79, 142, 229)" stroke-opacity="0.69756156" stroke-linecap="round" stroke-linejoin="round"/>
    <path d="M 97.28445434570312 275.6985168457031 C 41.52680587768555 275.21258544921875 71.5407943725586 307.67974853515625 40.89863204956055 303.7412414550781 C 0.1137152910232544 326.9140319824219 6.261757850646973 320.09393310546875 5.9567766189575195 293.520751953125 C 7.969112873077393 201.32754516601562 -6.841366767883301 267.0923767089844 64.97457122802734 257.9461975097656 C 60.38294982910156 181.763916015625 109.36168670654297 145.4149627685547 97.28445434570312 275.6985168457031" stroke-width="0.0" fill="rgb(232, 182, 156)" opacity="0.81159073" stroke="rgb(93, 188, 159)" stroke-opacity="0.05516901" stroke-linecap="round" stroke-linejoin="round"/>
    <path d="M 501.2712097167969 420.8553161621094 C 495.9727783203125 408.8329162597656 508.8939514160156 417.810791015625 464.7812805175781 414.3202819824219 C 458.9974060058594 417.1463928222656 459.4704895019531 420.5592346191406 464.71368408203125 414.83966064453125 C 465.0406188964844 365.43585205078125 462.7807312011719 364.6559143066406 489.58697509765625 362.44964599609375 C 505.1095886230469 362.1063537597656 504.1880187988281 361.7730407714844 501.2712097167969 420.8553161621094" stroke-width="0.0" fill="rgb(163, 142, 139)" opacity="0.5426568" stroke="rgb(184, 168, 71)" stroke-opacity="0.47220364" stroke-linecap="round" stroke-linejoin="round"/>
    <path d="M 317.033935546875 504.02850341796875 C 306.88885498046875 504.9675598144531 291.91571044921875 504.0251770019531 97.95478057861328 504.3975830078125 C 130.59156799316406 471.1168518066406 218.8716278076172 510.30609130859375 188.26329040527344 472.5789489746094 C 207.00311279296875 468.26611328125 221.630859375 472.7972717285156 313.4402770996094 471.421142578125 C 301.58953857421875 483.2093505859375 303.5502014160156 482.63067626953125 317.033935546875 504.02850341796875" stroke-width="0.0" fill="rgb(61, 106, 132)" opacity="0.8513837" stroke="rgb(51, 43, 232)" stroke-opacity="0.35013244" stroke-linecap="round" stroke-linejoin="round"/>
    <path d="M 337.91534423828125 222.7728271484375 C 354.5989685058594 166.40245056152344 321.31256103515625 181.15330505371094 344.0428466796875 225.64173889160156 C 317.14569091796875 249.42800903320312 334.32672119140625 195.8968963623047 324.4272766113281 179.59085083007812 C 307.0223388671875 178.42701721191406 310.0680236816406 178.20578002929688 352.946044921875 178.42239379882812 C 347.09454345703125 174.5782928466797 359.8881530761719 218.7139129638672 337.91534423828125 222.7728271484375" stroke-width="0.0" fill="rgb(255, 249, 233)" opacity="0.97777516" stroke="rgb(235, 238, 107)" stroke-opacity="0.6616238" stroke-linecap="round" stroke-linejoin="round"/>
    <path d="M 327.8643798828125 187.62828063964844 C 314.0338439941406 179.25096130371094 327.5442810058594 213.63780212402344 315.9697570800781 207.35797119140625 C 315.2093200683594 222.8001251220703 313.761962890625 222.91705322265625 314.6498718261719 174.486572265625 C 315.357666015625 183.14219665527344 287.7911682128906 177.08624267578125 310.88653564453125 178.6742706298828 C 331.0472412109375 177.91253662109375 334.6575927734375 181.24832153320312 327.8643798828125 187.62828063964844" stroke-width="0.0" fill="rgb(255, 246, 229)" opacity="0.9631153" stroke="rgb(220, 72, 65)" stroke-opacity="0.4944548" stroke-linecap="round" stroke-linejoin="round"/>
    <path d="M 500.3890075683594 365.9942321777344 C 498.3390197753906 411.6656188964844 518.1867065429688 412.514404296875 464.7552185058594 411.5146484375 C 465.80096435546875 410.06842041015625 464.68023681640625 398.1016845703125 464.8510437011719 362.7033386230469 C 474.7135009765625 356.114990234375 467.49359130859375 346.1274719238281 496.06903076171875 345.6824645996094 C 501.4578857421875 341.70831298828125 503.9503173828125 341.6792907714844 500.3890075683594 365.9942321777344" stroke-width="0.0" fill="rgb(51, 144, 187)" opacity="0.6780164" stroke="rgb(48, 246, 51)" stroke-opacity="0.626694" stroke-linecap="round" stroke-linejoin="round"/>
    <path d="M 502.5792541503906 334.0215759277344 C 502.48223876953125 352.5664978027344 502.5952453613281 384.5575866699219 502.44256591796875 380.31060791015625 C 495.6448974609375 375.2774658203125 507.5320739746094 374.4953308105469 497.68292236328125 373.9332275390625 C 498.68218994140625 321.8138732910156 493.2044372558594 331.7865295410156 502.5368347167969 330.5430908203125 C 502.4727783203125 336.29248046875 502.2916259765625 357.6310119628906 502.5792541503906 334.0215759277344" stroke-width="0.0" fill="rgb(27, 26, 44)" opacity="0.98052216" stroke="rgb(62, 42, 191)" stroke-opacity="0.35990828" stroke-linecap="round" stroke-linejoin="round"/>
    <path d="M 378.8040771484375 503.4803466796875 C 374.2296142578125 505.6976318359375 360.94781494140625 504.6508483886719 321.82794189453125 504.8744812011719 C 315.1917419433594 504.6448974609375 305.77001953125 506.50482177734375 308.9897766113281 499.44232177734375 C 300.0896301269531 466.6742858886719 292.6354675292969 470.60205078125 387.6289367675781 470.9920349121094 C 374.6520080566406 476.4997253417969 366.9615783691406 465.4497985839844 378.8040771484375 503.4803466796875" stroke-width="0.0" fill="rgb(73, 120, 147)" opacity="0.7998998" stroke="rgb(47, 177, 5)" stroke-opacity="0.85309774" stroke-linecap="round" stroke-linejoin="round"/>
    <path d="M 363.3190612792969 503.6872863769531 C 344.3494873046875 504.6748046875 332.5675048828125 503.7568054199219 305.9413757324219 504.18011474609375 C 283.829345703125 502.224853515625 274.7191467285156 508.1991271972656 267.49810791015625 498.7213134765625 C 305.5677185058594 488.4106140136719 311.2760009765625 479.20550537109375 302.5493469238281 479.5582580566406 C 308.0686950683594 508.1453552246094 340.6272888183594 476.35198974609375 363.3190612792969 503.6872863769531" stroke-width="0.0" fill="rgb(61, 100, 122)" opacity="1.0" stroke="rgb(242, 168, 80)" stroke-opacity="0.24128757" stroke-linecap="round" stroke-linejoin="round"/>
    <path d="M 502.7578430175781 505.6160583496094 C 457.90313720703125 495.71282958984375 533.7348022460938 500.44744873046875 422.9384460449219 500.2829895019531 C 440.4931335449219 508.06829833984375 412.458740234375 507.3743896484375 407.111083984375 482.10748291015625 C 405.5295715332031 468.3780212402344 390.6639099121094 471.9122314453125 500.6572570800781 471.4493408203125 C 503.6076354980469 474.30792236328125 500.6507873535156 452.4789123535156 502.7578430175781 505.6160583496094" stroke-width="0.0" fill="rgb(38, 88, 120)" opacity="0.6984417" stroke="rgb(107, 123, 96)" stroke-opacity="0.20884328" stroke-linecap="round" stroke-linejoin="round"/>
    <path d="M 431.3935241699219 493.3695068359375 C 424.42584228515625 504.0683288574219 433.8636169433594 504.2407531738281 422.2619934082031 504.4139709472656 C 387.2675476074219 504.4184875488281 378.5589904785156 505.300537109375 352.43756103515625 503.6045837402344 C 382.5078430175781 475.9643249511719 408.9236145019531 502.0023193359375 420.5725402832031 477.73187255859375 C 417.4543151855469 481.0209655761719 421.75885009765625 483.5174255371094 431.3935241699219 493.3695068359375" stroke-width="0.0" fill="rgb(63, 91, 108)" opacity="1.0" stroke="rgb(79, 147, 117)" stroke-opacity="0.016182972" stroke-linecap="round" stroke-linejoin="round"/>
    <path d="M 426.07928466796875 366.7523498535156 C 424.621826171875 369.4105224609375 434.0232849121094 368.5559997558594 404.73602294921875 368.67108154296875 C 364.917236328125 367.7855224609375 376.8172607421875 379.42327880859375 374.0134582519531 345.5015563964844 C 377.95556640625 313.91925048828125 358.438720703125 324.71038818359375 426.5638122558594 320.0004577636719 C 425.74237060546875 329.59710693359375 426.1045837402344 332.2059326171875 426.07928466796875 366.7523498535156" stroke-width="0.0" fill="rgb(241, 202, 178)" opacity="1.0" stroke="rgb(46, 81, 14)" stroke-opacity="0.23555923" stroke-linecap="round" stroke-linejoin="round"/>
    <path d="M 172.86801147460938 303.4981994628906 C 171.69308471679688 314.1247863769531 134.7987060546875 296.8614501953125 145.1717529296875 316.36181640625 C 88.7644271850586 319.5418395996094 54.40768814086914 302.7491455078125 131.89956665039062 303.1631164550781 C 132.47238159179688 294.97235107421875 128.19088745117188 291.8665466308594 139.9147491455078 292.6223449707031 C 164.27806091308594 293.6960144042969 164.23248291015625 288.4970703125 172.86801147460938 303.4981994628906" stroke-width="0.0" fill="rgb(106, 167, 191)" opacity="0.8580306" stroke="rgb(139, 2, 212)" stroke-opacity="0.8786899" stroke-linecap="round" stroke-linejoin="round"/>
    <path d="M 348.8710632324219 393.30889892578125 C 348.1305847167969 419.5253601074219 353.3211364746094 410.564453125 337.9867858886719 411.6558837890625 C 331.6863098144531 410.2901306152344 333.1571960449219 416.7178649902344 332.36492919921875 398.3624267578125 C 332.2706604003906 388.2428283691406 332.25360107421875 383.1080322265625 340.2115478515625 379.927001953125 C 346.5701904296875 380.3210754394531 349.1718444824219 386.0278625488281 348.8710632324219 393.30889892578125" stroke-width="0.0" fill="rgb(37, 34, 53)" opacity="0.92524314" stroke="rgb(202, 164, 1)" stroke-opacity="0.24963586" stroke-linecap="round" stroke-linejoin="round"/>
    <path d="M 433.8203125 89.94312286376953 C 417.0966491699219 90.3430404663086 405.63250732421875 90.48182678222656 350.8523254394531 90.47628784179688 C 356.9371032714844 92.28814697265625 359.6245422363281 75.50393676757812 375.446044921875 82.03972625732422 C 369.3974304199219 68.75285339355469 396.1076965332031 50.075443267822266 407.6805114746094 72.37884521484375 C 411.7553405761719 88.01571655273438 395.1982727050781 72.73150634765625 433.8203125 89.94312286376953" stroke-width="0.0" fill="rgb(249, 243, 224)" opacity="0.99519867" stroke="rgb(37, 7, 42)" stroke-opacity="0.7138254" stroke-linecap="round" stroke-linejoin="round"/>
    <path d="M 497.9706726074219 331.1747131347656 C 497.269287109375 361.56829833984375 492.1572570800781 366.8639221191406 478.23590087890625 367.08685302734375 C 461.2882080078125 363.9872131347656 465.2842102050781 362.734619140625 464.852294921875 348.16943359375 C 464.9208984375 325.853515625 463.4439392089844 330.7375183105469 467.6700744628906 331.15521240234375 C 506.3710021972656 330.8023681640625 507.29766845703125 329.8592224121094 497.9706726074219 331.1747131347656" stroke-width="0.0" fill="rgb(59, 138, 176)" opacity="0.7596653" stroke="rgb(31, 233, 33)" stroke-opacity="0.6680494" stroke-linecap="round" stroke-linejoin="round"/>
    <path d="M 86.1093978881836 342.8707580566406 C 94.1866226196289 431.9436340332031 65.65573120117188 401.00775146484375 84.98835754394531 370.61419677734375 C 49.60344696044922 369.952392578125 52.78110885620117 374.9138488769531 71.57829284667969 350.72613525390625 C 71.23384857177734 377.8742980957031 87.65377807617188 343.60284423828125 71.52694702148438 347.0924072265625 C 93.73339080810547 342.87347412109375 87.75169372558594 339.9015808105469 86.1093978881836 342.8707580566406" stroke-width="0.0" fill="rgb(255, 249, 232)" opacity="0.9389808" stroke="rgb(215, 215, 187)" stroke-opacity="0.43470016" stroke-linecap="round" stroke-linejoin="round"/>
    <path d="M 35.55569839477539 322.7048034667969 C 34.79875946044922 348.2813720703125 38.30391311645508 341.0776672363281 27.765060424804688 342.42291259765625 C -0.3454119861125946 341.6805114746094 6.519082069396973 344.4277648925781 5.490079879760742 336.1662292480469 C 6.171590328216553 304.2455749511719 2.354076623916626 307.8503112792969 15.933037757873535 307.67596435546875 C 41.00819396972656 311.9206848144531 34.210548400878906 300.2367248535156 35.55569839477539 322.7048034667969" stroke-width="0.0" fill="rgb(26, 115, 155)" opacity="0.673342" stroke="rgb(125, 120, 153)" stroke-opacity="0.14694199" stroke-linecap="round" stroke-linejoin="round"/>
    <path d="M 207.3016815185547 274.92840576171875 C 209.84202575683594 306.9591369628906 208.43324279785156 304.84320068359375 194.77427673339844 304.5013122558594 C 191.08343505859375 304.4505310058594 197.18040466308594 300.29949951171875 191.29664611816406 287.3378601074219 C 194.09657287597656 267.2759704589844 190.15106201171875 249.40245056152344 193.58265686035156 251.32476806640625 C 194.0977783203125 251.9534912109375 207.6085205078125 274.2479248046875 207.3016815185547 274.92840576171875" stroke-width="0.0" fill="rgb(47, 48, 70)" opacity="1.0" stroke="rgb(62, 147, 17)" stroke-opacity="0.838266" stroke-linecap="round" stroke-linejoin="round"/>
    <path d="M 364.7004089355469 308.1827087402344 C 364.7593688964844 352.6289367675781 364.5975646972656 350.9873352050781 364.1667785644531 351.2926940917969 C 335.9316101074219 350.61395263671875 322.1802062988281 350.6501770019531 317.9120178222656 351.8973083496094 C 355.2158203125 308.4283142089844 362.3408508300781 361.3052062988281 355.1895751953125 312.0580749511719 C 355.01556396484375 308.34442138671875 368.9310302734375 291.8578796386719 364.7004089355469 308.1827087402344" stroke-width="0.0" fill="rgb(138, 195, 211)" opacity="0.8689565" stroke="rgb(46, 184, 106)" stroke-opacity="0.1668459" stroke-linecap="round" stroke-linejoin="round"/>
    <path d="M 208.1837615966797 281.1566162109375 C 211.17623901367188 311.23846435546875 210.95797729492188 305.96441650390625 206.99749755859375 306.7429504394531 C 186.44508361816406 306.01702880859375 190.9717559814453 309.6554260253906 191.4373779296875 300.1999206542969 C 191.36672973632812 284.4847106933594 190.25326538085938 286.20556640625 204.5483856201172 286.2892150878906 C 211.61322021484375 281.34637451171875 205.4969482421875 283.1123962402344 208.1837615966797 281.1566162109375" stroke-width="0.0" fill="rgb(41, 42, 64)" opacity="1.0" stroke="rgb(185, 117, 85)" stroke-opacity="0.65270686" stroke-linecap="round" stroke-linejoin="round"/>
    <path d="M 294.1626892089844 161.65078735351562 C 293.67315673828125 209.23281860351562 297.33099365234375 215.6287384033203 289.4543151855469 215.6534423828125 C 281.4203186035156 200.42431640625 277.9657287597656 228.03280639648438 280.0781555175781 207.4333953857422 C 281.84637451171875 102.11247253417969 274.2240295410156 125.79959869384766 286.21832275390625 131.76516723632812 C 293.3402099609375 156.51268005371094 282.52655029296875 164.40171813964844 294.1626892089844 161.65078735351562" stroke-width="0.0" fill="rgb(38, 36, 56)" opacity="0.9151787" stroke="rgb(94, 53, 192)" stroke-opacity="0.023081621" stroke-linecap="round" stroke-linejoin="round"/>
    <path d="M 365.9800109863281 189.05821228027344 C 365.16339111328125 207.5013885498047 367.7320251464844 202.92218017578125 359.7786865234375 203.06747436523438 C 359.6622314453125 209.8124237060547 359.6940002441406 189.5582733154297 359.5535888671875 185.81922912597656 C 359.74615478515625 198.26702880859375 358.0562438964844 187.51731872558594 363.0761413574219 186.39682006835938 C 366.0872802734375 187.66932678222656 367.1236267089844 192.538330078125 365.9800109863281 189.05821228027344" stroke-width="0.0" fill="rgb(33, 36, 50)" opacity="0.999759" stroke="rgb(238, 72, 166)" stroke-opacity="0.73696333" stroke-linecap="round" stroke-linejoin="round"/>
    <path d="M 502.0205078125 358.55682373046875 C 502.5475158691406 384.30810546875 502.5292663574219 405.3851318359375 502.179931640625 411.4397888183594 C 496.5245056152344 410.10845947265625 498.1022644042969 421.4066467285156 497.57989501953125 371.9417419433594 C 506.5996398925781 346.4813232421875 492.5441589355469 365.22412109375 500.185546875 364.9499206542969 C 499.9615173339844 362.94573974609375 500.6349182128906 365.3064270019531 502.0205078125 358.55682373046875" stroke-width="0.0" fill="rgb(37, 39, 61)" opacity="0.99108183" stroke="rgb(110, 44, 17)" stroke-opacity="0.4039456" stroke-linecap="round" stroke-linejoin="round"/>
    <path d="M 44.79392623901367 258.6184387207031 C 32.842567443847656 297.38134765625 32.55316925048828 300.3418884277344 16.28209686279297 308.3791809082031 C 0.28832313418388367 310.74139404296875 8.171831130981445 314.0718688964844 4.907749176025391 245.2218475341797 C 14.551701545715332 148.862060546875 -29.394264221191406 162.9237060546875 96.82505798339844 164.0931396484375 C 117.77576446533203 257.7972106933594 9.871371269226074 253.19886779785156 44.79392623901367 258.6184387207031" stroke-width="0.0" fill="rgb(244, 191, 162)" opacity="0.6977702" stroke="rgb(121, 239, 12)" stroke-opacity="0.67051786" stroke-linecap="round" stroke-linejoin="round"/>
    <path d="M 192.24307250976562 269.34326171875 C 192.51119995117188 310.4769287109375 191.71566772460938 308.228271484375 190.01881408691406 307.2716979980469 C 159.10426330566406 306.7872009277344 177.7329559326172 309.25445556640625 169.59304809570312 297.4661560058594 C 169.9012908935547 271.22674560546875 169.18678283691406 256.7830810546875 169.36294555664062 251.6541290283203 C 199.40687561035156 253.16371154785156 191.14010620117188 245.89776611328125 192.24307250976562 269.34326171875" stroke-width="0.0" fill="rgb(67, 145, 180)" opacity="0.7835087" stroke="rgb(9, 232, 119)" stroke-opacity="0.7423524" stroke-linecap="round" stroke-linejoin="round"/>
    <path d="M 127.51591491699219 89.16388702392578 C 126.88706970214844 88.96466064453125 130.8536834716797 89.91131591796875 116.2906265258789 89.36791229248047 C 111.35663604736328 89.24988555908203 109.21268463134766 93.49201965332031 113.93172454833984 72.5126724243164 C 114.94752502441406 71.66482543945312 114.98686981201172 67.74510192871094 122.24951171875 64.29914855957031 C 128.76785278320312 62.477821350097656 127.13860321044922 62.85536575317383 127.51591491699219 89.16388702392578" stroke-width="0.0" fill="rgb(255, 247, 226)" opacity="0.9439439" stroke="rgb(158, 77, 92)" stroke-opacity="0.8817818" stroke-linecap="round" stroke-linejoin="round"/>
    <path d="M 400.7694396972656 431.45989990234375 C 405.4959716796875 447.0810241699219 401.2335205078125 436.99371337890625 357.2687072753906 440.6176452636719 C 313.1583251953125 439.2074890136719 318.261474609375 444.4345703125 317.07354736328125 431.94378662109375 C 338.0292663574219 431.70916748046875 361.9869079589844 432.1621398925781 384.2398376464844 431.8405456542969 C 364.3201904296875 432.6731262207031 387.2483825683594 431.23370361328125 400.7694396972656 431.45989990234375" stroke-width="0.0" fill="rgb(248, 240, 223)" opacity="1.0" stroke="rgb(187, 195, 65)" stroke-opacity="0.034683097" stroke-linecap="round" stroke-linejoin="round"/>
    <path d="M 428.4713134765625 503.7492980957031 C 433.16290283203125 505.61248779296875 416.00286865234375 504.552490234375 372.0087890625 505.0371398925781 C 364.1540222167969 503.74737548828125 355.31854248046875 504.0313415527344 347.8763122558594 504.0621032714844 C 370.9464416503906 469.309326171875 371.5937805175781 470.9432067871094 416.19427490234375 471.3380126953125 C 404.97216796875 468.6407775878906 396.58795166015625 478.5717468261719 428.4713134765625 503.7492980957031" stroke-width="0.0" fill="rgb(47, 94, 124)" opacity="0.5629257" stroke="rgb(20, 13, 124)" stroke-opacity="0.43640745" stroke-linecap="round" stroke-linejoin="round"/>
    <path d="M 403.6131591796875 323.03076171875 C 403.4972229003906 312.5580749511719 403.653564453125 324.8907165527344 404.0746154785156 322.38165283203125 C 393.13812255859375 323.57275390625 399.02154541015625 320.7070617675781 397.5675964355469 323.50946044921875 C 398.3052978515625 313.5833740234375 396.1884460449219 304.1455993652344 401.34588623046875 304.813232421875 C 404.57806396484375 305.16766357421875 402.5107421875 313.8888854980469 403.6131591796875 323.03076171875" stroke-width="0.0" fill="rgb(35, 38, 61)" opacity="0.9876362" stroke="rgb(240, 14, 232)" stroke-opacity="0.5813619" stroke-linecap="round" stroke-linejoin="round"/>
    <path d="M 502.7276916503906 415.05615234375 C 505.92010498046875 421.5499572753906 489.92181396484375 418.7994384765625 237.6260223388672 419.64361572265625 C 223.8790740966797 406.68865966796875 275.0285949707031 415.7824401855469 356.3812561035156 410.9391784667969 C 396.1962585449219 425.62298583984375 352.63568115234375 357.8919372558594 378.7298583984375 370.4468078613281 C 383.2822265625 436.69879150390625 352.62176513671875 401.4413146972656 502.7276916503906 415.05615234375" stroke-width="0.0" fill="rgb(245, 201, 182)" opacity="1.0" stroke="rgb(11, 93, 67)" stroke-opacity="0.37828225" stroke-linecap="round" stroke-linejoin="round"/>
    <path d="M 359.0 383.0 C 358.33013916015625 385.5 356.5 387.33013916015625 354.0 388.0 C 351.5 387.33013916015625 349.66986083984375 385.5 349.0 383.0 C 349.66986083984375 380.5 351.5 378.66986083984375 354.0 378.0 C 356.5 378.66986083984375 358.33013916015625 380.5 359.0 383.0" stroke-width="0.0" fill="rgb(254, 250, 231)" opacity="1.0" stroke="rgb(250, 107, 208)" stroke-opacity="0.68288475" stroke-linecap="round" stroke-linejoin="round"/>
    <path d="M 105.0 293.0 C 104.33012390136719 295.5 102.5 297.33013916015625 100.0 298.0 C 97.5 297.33013916015625 95.66987609863281 295.5 95.0 293.0 C 95.66987609863281 290.5 97.5 288.66986083984375 100.0 288.0 C 102.5 288.66986083984375 104.33012390136719 290.5 105.0 293.0" stroke-width="0.0" fill="rgb(45, 43, 63)" opacity="1.0" stroke="rgb(228, 133, 121)" stroke-opacity="0.8075472" stroke-linecap="round" stroke-linejoin="round"/>
    <path d="M 405.0 379.0 C 404.33013916015625 381.5 402.5 383.33013916015625 400.0 384.0 C 397.5 383.33013916015625 395.66986083984375 381.5 395.0 379.0 C 395.66986083984375 376.5 397.5 374.66986083984375 400.0 374.0 C 402.5 374.66986083984375 404.33013916015625 376.5 405.0 379.0" stroke-width="0.0" fill="rgb(33, 32, 48)" opacity="1.0" stroke="rgb(4, 19, 67)" stroke-opacity="0.07067808" stroke-linecap="round" stroke-linejoin="round"/>
    <path d="M 316.0 243.0 C 315.33013916015625 245.5 313.5 247.3301239013672 311.0 248.0 C 308.5 247.3301239013672 306.66986083984375 245.5 306.0 243.0 C 306.66986083984375 240.5 308.5 238.6698760986328 311.0 238.0 C 313.5 238.6698760986328 315.33013916015625 240.5 316.0 243.0" stroke-width="0.0" fill="rgb(42, 44, 67)" opacity="1.0" stroke="rgb(250, 69, 79)" stroke-opacity="0.6182075" stroke-linecap="round" stroke-linejoin="round"/>
    <path d="M 419.0 297.0 C 418.33013916015625 299.5 416.5 301.33013916015625 414.0 302.0 C 411.5 301.33013916015625 409.66986083984375 299.5 409.0 297.0 C 409.66986083984375 294.5 411.5 292.66986083984375 414.0 292.0 C 416.5 292.66986083984375 418.33013916015625 294.5 419.0 297.0" stroke-width="0.0" fill="rgb(250, 220, 195)" opacity="1.0" stroke="rgb(228, 6, 207)" stroke-opacity="0.13255171" stroke-linecap="round" stroke-linejoin="round"/>
    <path d="M 396.0 298.0 C 395.33013916015625 300.5 393.5 302.33013916015625 391.0 303.0 C 388.5 302.33013916015625 386.66986083984375 300.5 386.0 298.0 C 386.66986083984375 295.5 388.5 293.66986083984375 391.0 293.0 C 393.5 293.66986083984375 395.33013916015625 295.5 396.0 298.0" stroke-width="0.0" fill="rgb(253, 232, 207)" opacity="1.0" stroke="rgb(121, 157, 65)" stroke-opacity="0.017394856" stroke-linecap="round" stroke-linejoin="round"/>
    <path d="M 277.0 176.0 C 276.33013916015625 178.5 274.5 180.3301239013672 272.0 181.0 C 269.5 180.3301239013672 267.66986083984375 178.5 267.0 176.0 C 267.66986083984375 173.5 269.5 171.6698760986328 272.0 171.0 C 274.5 171.6698760986328 276.33013916015625 173.5 277.0 176.0" stroke-width="0.0" fill="rgb(254, 245, 230)" opacity="1.0" stroke="rgb(224, 92, 70)" stroke-opacity="0.018184394" stroke-linecap="round" stroke-linejoin="round"/>
    <path d="M 426.0 281.0 C 425.33013916015625 283.5 423.5 285.33013916015625 421.0 286.0 C 418.5 285.33013916015625 416.66986083984375 283.5 416.0 281.0 C 416.66986083984375 278.5 418.5 276.66986083984375 421.0 276.0 C 423.5 276.66986083984375 425.33013916015625 278.5 426.0 281.0" stroke-width="0.0" fill="rgb(254, 245, 228)" opacity="1.0" stroke="rgb(236, 65, 151)" stroke-opacity="0.759385" stroke-linecap="round" stroke-linejoin="round"/>
    <path d="M 123.0 120.0 C 122.33012390136719 122.5 120.5 124.33012390136719 118.0 125.0 C 115.5 124.33012390136719 113.66987609863281 122.5 113.0 120.0 C 113.66987609863281 117.5 115.5 115.66987609863281 118.0 115.0 C 120.5 115.66987609863281 122.33012390136719 117.5 123.0 120.0" stroke-width="0.0" fill="rgb(253, 246, 228)" opacity="1.0" stroke="rgb(83, 54, 244)" stroke-opacity="0.1499361" stroke-linecap="round" stroke-linejoin="round"/>
    <path d="M 166.0 484.0 C 165.3301239013672 486.5 163.5 488.33013916015625 161.0 489.0 C 158.5 488.33013916015625 156.6698760986328 486.5 156.0 484.0 C 156.6698760986328 481.5 158.5 479.66986083984375 161.0 479.0 C 163.5 479.66986083984375 165.3301239013672 481.5 166.0 484.0" stroke-width="0.0" fill="rgb(249, 240, 216)" opacity="1.0" stroke="rgb(169, 1, 5)" stroke-opacity="0.5132986" stroke-linecap="round" stroke-linejoin="round"/>
    <path d="M 78.0 391.0 C 77.33012390136719 393.5 75.5 395.33013916015625 73.0 396.0 C 70.5 395.33013916015625 68.66987609863281 393.5 68.0 391.0 C 68.66987609863281 388.5 70.5 386.66986083984375 73.0 386.0 C 75.5 386.66986083984375 77.33012390136719 388.5 78.0 391.0" stroke-width="0.0" fill="rgb(30, 27, 42)" opacity="1.0" stroke="rgb(243, 240, 179)" stroke-opacity="0.68641" stroke-linecap="round" stroke-linejoin="round"/>
    <path d="M 405.0 343.0 C 404.33013916015625 345.5 402.5 347.33013916015625 400.0 348.0 C 397.5 347.33013916015625 395.66986083984375 345.5 395.0 343.0 C 395.66986083984375 340.5 397.5 338.66986083984375 400.0 338.0 C 402.5 338.66986083984375 404.33013916015625 340.5 405.0 343.0" stroke-width="0.0" fill="rgb(42, 47, 68)" opacity="1.0" stroke="rgb(155, 187, 106)" stroke-opacity="0.49968487" stroke-linecap="round" stroke-linejoin="round"/>
    <path d="M 104.0 285.0 C 103.33012390136719 287.5 101.5 289.33013916015625 99.0 290.0 C 96.5 289.33013916015625 94.66987609863281 287.5 94.0 285.0 C 94.66987609863281 282.5 96.5 280.66986083984375 99.0 280.0 C 101.5 280.66986083984375 103.33012390136719 282.5 104.0 285.0" stroke-width="0.0" fill="rgb(48, 47, 66)" opacity="1.0" stroke="rgb(213, 51, 74)" stroke-opacity="0.5728007" stroke-linecap="round" stroke-linejoin="round"/>
    <path d="M 404.0 374.0 C 403.33013916015625 376.5 401.5 378.33013916015625 399.0 379.0 C 396.5 378.33013916015625 394.66986083984375 376.5 394.0 374.0 C 394.66986083984375 371.5 396.5 369.66986083984375 399.0 369.0 C 401.5 369.66986083984375 403.33013916015625 371.5 404.0 374.0" stroke-width="0.0" fill="rgb(40, 40, 59)" opacity="1.0" stroke="rgb(199, 132, 154)" stroke-opacity="0.8729124" stroke-linecap="round" stroke-linejoin="round"/>
    <path d="M 243.0 433.0 C 242.3301239013672 435.5 240.5 437.33013916015625 238.0 438.0 C 235.5 437.33013916015625 233.6698760986328 435.5 233.0 433.0 C 233.6698760986328 430.5 235.5 428.66986083984375 238.0 428.0 C 240.5 428.66986083984375 242.3301239013672 430.5 243.0 433.0" stroke-width="0.0" fill="rgb(254, 242, 220)" opacity="1.0" stroke="rgb(57, 21, 197)" stroke-opacity="0.089977995" stroke-linecap="round" stroke-linejoin="round"/>
    <path d="M 420.0 343.0 C 419.33013916015625 345.5 417.5 347.33013916015625 415.0 348.0 C 412.5 347.33013916015625 410.66986083984375 345.5 410.0 343.0 C 410.66986083984375 340.5 412.5 338.66986083984375 415.0 338.0 C 417.5 338.66986083984375 419.33013916015625 340.5 420.0 343.0" stroke-width="0.0" fill="rgb(37, 42, 65)" opacity="1.0" stroke="rgb(169, 21, 15)" stroke-opacity="0.86367744" stroke-linecap="round" stroke-linejoin="round"/>
    <path d="M 383.0 300.0 C 382.33013916015625 302.5 380.5 304.33013916015625 378.0 305.0 C 375.5 304.33013916015625 373.66986083984375 302.5 373.0 300.0 C 373.66986083984375 297.5 375.5 295.66986083984375 378.0 295.0 C 380.5 295.66986083984375 382.33013916015625 297.5 383.0 300.0" stroke-width="0.0" fill="rgb(247, 225, 199)" opacity="1.0" stroke="rgb(251, 203, 100)" stroke-opacity="0.4667933" stroke-linecap="round" stroke-linejoin="round"/>
    <path d="M 224.0 329.0 C 223.3301239013672 331.5 221.5 333.33013916015625 219.0 334.0 C 216.5 333.33013916015625 214.6698760986328 331.5 214.0 329.0 C 214.6698760986328 326.5 216.5 324.66986083984375 219.0 324.0 C 221.5 324.66986083984375 223.3301239013672 326.5 224.0 329.0" stroke-width="0.0" fill="rgb(44, 47, 68)" opacity="1.0" stroke="rgb(161, 151, 82)" stroke-opacity="0.80733436" stroke-linecap="round" stroke-linejoin="round"/>
    <path d="M 338.0 244.0 C 337.33013916015625 246.5 335.5 248.3301239013672 333.0 249.0 C 330.5 248.3301239013672 328.66986083984375 246.5 328.0 244.0 C 328.66986083984375 241.5 330.5 239.6698760986328 333.0 239.0 C 335.5 239.6698760986328 337.33013916015625 241.5 338.0 244.0" stroke-width="0.0" fill="rgb(41, 45, 66)" opacity="1.0" stroke="rgb(96, 130, 12)" stroke-opacity="0.61400956" stroke-linecap="round" stroke-linejoin="round"/>
    <path d="M 122.0 144.0 C 121.33012390136719 146.5 119.5 148.3301239013672 117.0 149.0 C 114.5 148.3301239013672 112.66987609863281 146.5 112.0 144.0 C 112.66987609863281 141.5 114.5 139.6698760986328 117.0 139.0 C 119.5 139.6698760986328 121.33012390136719 141.5 122.0 144.0" stroke-width="0.0" fill="rgb(255, 228, 201)" opacity="1.0" stroke="rgb(128, 137, 47)" stroke-opacity="0.55733126" stroke-linecap="round" stroke-linejoin="round"/>
    <path d="M 414.0 314.0 C 413.33013916015625 316.5 411.5 318.33013916015625 409.0 319.0 C 406.5 318.33013916015625 404.66986083984375 316.5 404.0 314.0 C 404.66986083984375 311.5 406.5 309.66986083984375 409.0 309.0 C 411.5 309.66986083984375 413.33013916015625 311.5 414.0 314.0" stroke-width="0.0" fill="rgb(254, 243, 229)" opacity="1.0" stroke="rgb(231, 229, 205)" stroke-opacity="0.61282873" stroke-linecap="round" stroke-linejoin="round"/>
    <path d="M 389.0 343.0 C 388.33013916015625 345.5 386.5 347.33013916015625 384.0 348.0 C 381.5 347.33013916015625 379.66986083984375 345.5 379.0 343.0 C 379.66986083984375 340.5 381.5 338.66986083984375 384.0 338.0 C 386.5 338.66986083984375 388.33013916015625 340.5 389.0 343.0" stroke-width="0.0" fill="rgb(50, 48, 69)" opacity="1.0" stroke="rgb(158, 168, 40)" stroke-opacity="0.54510087" stroke-linecap="round" stroke-linejoin="round"/>
    <path d="M 280.0 369.0 C 279.33013916015625 371.5 277.5 373.33013916015625 275.0 374.0 C 272.5 373.33013916015625 270.66986083984375 371.5 270.0 369.0 C 270.66986083984375 366.5 272.5 364.66986083984375 275.0 364.0 C 277.5 364.66986083984375 279.33013916015625 366.5 280.0 369.0" stroke-width="0.0" fill="rgb(36, 40, 62)" opacity="1.0" stroke="rgb(65, 200, 193)" stroke-opacity="0.878845" stroke-linecap="round" stroke-linejoin="round"/>
    <path d="M 323.0 392.0 C 322.33013916015625 394.5 320.5 396.33013916015625 318.0 397.0 C 315.5 396.33013916015625 313.66986083984375 394.5 313.0 392.0 C 313.66986083984375 389.5 315.5 387.66986083984375 318.0 387.0 C 320.5 387.66986083984375 322.33013916015625 389.5 323.0 392.0" stroke-width="0.0" fill="rgb(46, 47, 66)" opacity="1.0" stroke="rgb(96, 81, 242)" stroke-opacity="0.33965248" stroke-linecap="round" stroke-linejoin="round"/>
    <path d="M 117.0 198.0 C 116.33012390136719 200.5 114.5 202.3301239013672 112.0 203.0 C 109.5 202.3301239013672 107.66987609863281 200.5 107.0 198.0 C 107.66987609863281 195.5 109.5 193.6698760986328 112.0 193.0 C 114.5 193.6698760986328 116.33012390136719 195.5 117.0 198.0" stroke-width="0.0" fill="rgb(254, 246, 225)" opacity="1.0" stroke="rgb(186, 204, 109)" stroke-opacity="0.36561933" stroke-linecap="round" stroke-linejoin="round"/>
    <path d="M 224.0 359.0 C 223.3301239013672 361.5 221.5 363.33013916015625 219.0 364.0 C 216.5 363.33013916015625 214.6698760986328 361.5 214.0 359.0 C 214.6698760986328 356.5 216.5 354.66986083984375 219.0 354.0 C 221.5 354.66986083984375 223.3301239013672 356.5 224.0 359.0" stroke-width="0.0" fill="rgb(41, 46, 67)" opacity="1.0" stroke="rgb(171, 147, 14)" stroke-opacity="0.7444916" stroke-linecap="round" stroke-linejoin="round"/>
    <path d="M 412.0 299.0 C 411.33013916015625 301.5 409.5 303.33013916015625 407.0 304.0 C 404.5 303.33013916015625 402.66986083984375 301.5 402.0 299.0 C 402.66986083984375 296.5 404.5 294.66986083984375 407.0 294.0 C 409.5 294.66986083984375 411.33013916015625 296.5 412.0 299.0" stroke-width="0.0" fill="rgb(252, 228, 202)" opacity="1.0" stroke="rgb(3, 104, 241)" stroke-opacity="0.91439366" stroke-linecap="round" stroke-linejoin="round"/>
    <path d="M 116.0 161.0 C 115.33012390136719 163.5 113.5 165.3301239013672 111.0 166.0 C 108.5 165.3301239013672 106.66987609863281 163.5 106.0 161.0 C 106.66987609863281 158.5 108.5 156.6698760986328 111.0 156.0 C 113.5 156.6698760986328 115.33012390136719 158.5 116.0 161.0" stroke-width="0.0" fill="rgb(255, 254, 246)" opacity="1.0" stroke="rgb(66, 233, 31)" stroke-opacity="0.6090116" stroke-linecap="round" stroke-linejoin="round"/>
    <path d="M 396.0 304.0 C 395.33013916015625 306.5 393.5 308.33013916015625 391.0 309.0 C 388.5 308.33013916015625 386.66986083984375 306.5 386.0 304.0 C 386.66986083984375 301.5 388.5 299.66986083984375 391.0 299.0 C 393.5 299.66986083984375 395.33013916015625 301.5 396.0 304.0" stroke-width="0.0" fill="rgb(254, 238, 216)" opacity="1.0" stroke="rgb(29, 5, 2)" stroke-opacity="0.07174844" stroke-linecap="round" stroke-linejoin="round"/>
    <path d="M 427.0 311.0 C 426.33013916015625 313.5 424.5 315.33013916015625 422.0 316.0 C 419.5 315.33013916015625 417.66986083984375 313.5 417.0 311.0 C 417.66986083984375 308.5 419.5 306.66986083984375 422.0 306.0 C 424.5 306.66986083984375 426.33013916015625 308.5 427.0 311.0" stroke-width="0.0" fill="rgb(250, 223, 200)" opacity="1.0" stroke="rgb(32, 99, 162)" stroke-opacity="0.89882904" stroke-linecap="round" stroke-linejoin="round"/>
    <path d="M 29.0 386.0 C 28.330127716064453 388.5 26.5 390.33013916015625 24.0 391.0 C 21.5 390.33013916015625 19.669872283935547 388.5 19.0 386.0 C 19.669872283935547 383.5 21.5 381.66986083984375 24.0 381.0 C 26.5 381.66986083984375 28.330127716064453 383.5 29.0 386.0" stroke-width="0.0" fill="rgb(73, 82, 83)" opacity="1.0" stroke="rgb(18, 88, 155)" stroke-opacity="0.43354332" stroke-linecap="round" stroke-linejoin="round"/>
    <path d="M 105.0 299.0 C 104.33012390136719 301.5 102.5 303.33013916015625 100.0 304.0 C 97.5 303.33013916015625 95.66987609863281 301.5 95.0 299.0 C 95.66987609863281 296.5 97.5 294.66986083984375 100.0 294.0 C 102.5 294.66986083984375 104.33012390136719 296.5 105.0 299.0" stroke-width="0.0" fill="rgb(40, 38, 58)" opacity="1.0" stroke="rgb(214, 216, 70)" stroke-opacity="0.62119704" stroke-linecap="round" stroke-linejoin="round"/>
    <path d="M 369.0 391.0 C 368.33013916015625 393.5 366.5 395.33013916015625 364.0 396.0 C 361.5 395.33013916015625 359.66986083984375 393.5 359.0 391.0 C 359.66986083984375 388.5 361.5 386.66986083984375 364.0 386.0 C 366.5 386.66986083984375 368.33013916015625 388.5 369.0 391.0" stroke-width="0.0" fill="rgb(47, 48, 68)" opacity="1.0" stroke="rgb(203, 160, 65)" stroke-opacity="0.9660401" stroke-linecap="round" stroke-linejoin="round"/>
    <path d="M 399.0 314.0 C 398.33013916015625 316.5 396.5 318.33013916015625 394.0 319.0 C 391.5 318.33013916015625 389.66986083984375 316.5 389.0 314.0 C 389.66986083984375 311.5 391.5 309.66986083984375 394.0 309.0 C 396.5 309.66986083984375 398.33013916015625 311.5 399.0 314.0" stroke-width="0.0" fill="rgb(253, 247, 231)" opacity="1.0" stroke="rgb(191, 59, 158)" stroke-opacity="0.39235604" stroke-linecap="round" stroke-linejoin="round"/>
    <path d="M 288.0 237.0 C 287.33013916015625 239.5 285.5 241.3301239013672 283.0 242.0 C 280.5 241.3301239013672 278.66986083984375 239.5 278.0 237.0 C 278.66986083984375 234.5 280.5 232.6698760986328 283.0 232.0 C 285.5 232.6698760986328 287.33013916015625 234.5 288.0 237.0" stroke-width="0.0" fill="rgb(35, 38, 70)" opacity="1.0" stroke="rgb(238, 202, 84)" stroke-opacity="0.39053243" stroke-linecap="round" stroke-linejoin="round"/>
    <path d="M 144.0 163.0 C 143.3301239013672 165.5 141.5 167.3301239013672 139.0 168.0 C 136.5 167.3301239013672 134.6698760986328 165.5 134.0 163.0 C 134.6698760986328 160.5 136.5 158.6698760986328 139.0 158.0 C 141.5 158.6698760986328 143.3301239013672 160.5 144.0 163.0" stroke-width="0.0" fill="rgb(78, 153, 176)" opacity="1.0" stroke="rgb(232, 224, 214)" stroke-opacity="0.38289022" stroke-linecap="round" stroke-linejoin="round"/>
    <path d="M 420.0 313.0 C 419.33013916015625 315.5 417.5 317.33013916015625 415.0 318.0 C 412.5 317.33013916015625 410.66986083984375 315.5 410.0 313.0 C 410.66986083984375 310.5 412.5 308.66986083984375 415.0 308.0 C 417.5 308.66986083984375 419.33013916015625 310.5 420.0 313.0" stroke-width="0.0" fill="rgb(40, 42, 65)" opacity="1.0" stroke="rgb(23, 213, 186)" stroke-opacity="0.5884772" stroke-linecap="round" stroke-linejoin="round"/>
    <path d="M 111.0 142.0 C 110.33012390136719 144.5 108.5 146.3301239013672 106.0 147.0 C 103.5 146.3301239013672 101.66987609863281 144.5 101.0 142.0 C 101.66987609863281 139.5 103.5 137.6698760986328 106.0 137.0 C 108.5 137.6698760986328 110.33012390136719 139.5 111.0 142.0" stroke-width="0.0" fill="rgb(252, 212, 186)" opacity="1.0" stroke="rgb(23, 15, 215)" stroke-opacity="0.69878775" stroke-linecap="round" stroke-linejoin="round"/>
    <path d="M 458.0 357.0 C 457.33013916015625 359.5 455.5 361.33013916015625 453.0 362.0 C 450.5 361.33013916015625 448.66986083984375 359.5 448.0 357.0 C 448.66986083984375 354.5 450.5 352.66986083984375 453.0 352.0 C 455.5 352.66986083984375 457.33013916015625 354.5 458.0 357.0" stroke-width="0.0" fill="rgb(34, 40, 59)" opacity="1.0" stroke="rgb(47, 11, 19)" stroke-opacity="0.6859874" stroke-linecap="round" stroke-linejoin="round"/>
    <path d="M 426.0 403.0 C 425.33013916015625 405.5 423.5 407.33013916015625 421.0 408.0 C 418.5 407.33013916015625 416.66986083984375 405.5 416.0 403.0 C 416.66986083984375 400.5 418.5 398.66986083984375 421.0 398.0 C 423.5 398.66986083984375 425.33013916015625 400.5 426.0 403.0" stroke-width="0.0" fill="rgb(44, 42, 61)" opacity="1.0" stroke="rgb(43, 213, 55)" stroke-opacity="0.9491948" stroke-linecap="round" stroke-linejoin="round"/>
    <path d="M 263.0 367.0 C 262.33013916015625 369.5 260.5 371.33013916015625 258.0 372.0 C 255.5 371.33013916015625 253.6698760986328 369.5 253.0 367.0 C 253.6698760986328 364.5 255.5 362.66986083984375 258.0 362.0 C 260.5 362.66986083984375 262.33013916015625 364.5 263.0 367.0" stroke-width="0.0" fill="rgb(56, 58, 72)" opacity="1.0" stroke="rgb(225, 153, 63)" stroke-opacity="0.53815496" stroke-linecap="round" stroke-linejoin="round"/>
    <path d="M 111.0 168.0 C 110.33012390136719 170.5 108.5 172.3301239013672 106.0 173.0 C 103.5 172.3301239013672 101.66987609863281 170.5 101.0 168.0 C 101.66987609863281 165.5 103.5 163.6698760986328 106.0 163.0 C 108.5 163.6698760986328 110.33012390136719 165.5 111.0 168.0" stroke-width="0.0" fill="rgb(77, 143, 177)" opacity="1.0" stroke="rgb(70, 85, 21)" stroke-opacity="0.24016799" stroke-linecap="round" stroke-linejoin="round"/>
    <path d="M 124.0 102.0 C 123.33012390136719 104.5 121.5 106.33012390136719 119.0 107.0 C 116.5 106.33012390136719 114.66987609863281 104.5 114.0 102.0 C 114.66987609863281 99.5 116.5 97.66987609863281 119.0 97.0 C 121.5 97.66987609863281 123.33012390136719 99.5 124.0 102.0" stroke-width="0.0" fill="rgb(254, 248, 231)" opacity="1.0" stroke="rgb(129, 33, 141)" stroke-opacity="0.21149597" stroke-linecap="round" stroke-linejoin="round"/>
    <path d="M 413.0 306.0 C 412.33013916015625 308.5 410.5 310.33013916015625 408.0 311.0 C 405.5 310.33013916015625 403.66986083984375 308.5 403.0 306.0 C 403.66986083984375 303.5 405.5 301.66986083984375 408.0 301.0 C 410.5 301.66986083984375 412.33013916015625 303.5 413.0 306.0" stroke-width="0.0" fill="rgb(253, 238, 217)" opacity="1.0" stroke="rgb(128, 253, 8)" stroke-opacity="0.41958767" stroke-linecap="round" stroke-linejoin="round"/>
    <path d="M 134.0 426.0 C 133.3301239013672 428.5 131.5 430.33013916015625 129.0 431.0 C 126.5 430.33013916015625 124.66987609863281 428.5 124.0 426.0 C 124.66987609863281 423.5 126.5 421.66986083984375 129.0 421.0 C 131.5 421.66986083984375 133.3301239013672 423.5 134.0 426.0" stroke-width="0.0" fill="rgb(255, 247, 223)" opacity="1.0" stroke="rgb(22, 62, 70)" stroke-opacity="0.44392037" stroke-linecap="round" stroke-linejoin="round"/>
    <path d="M 212.0 328.0 C 211.3301239013672 330.5 209.5 332.33013916015625 207.0 333.0 C 204.5 332.33013916015625 202.6698760986328 330.5 202.0 328.0 C 202.6698760986328 325.5 204.5 323.66986083984375 207.0 323.0 C 209.5 323.66986083984375 211.3301239013672 325.5 212.0 328.0" stroke-width="0.0" fill="rgb(32, 34, 52)" opacity="1.0" stroke="rgb(97, 136, 131)" stroke-opacity="0.37031463" stroke-linecap="round" stroke-linejoin="round"/>
    <path d="M 147.0 385.0 C 146.3301239013672 387.5 144.5 389.33013916015625 142.0 390.0 C 139.5 389.33013916015625 137.6698760986328 387.5 137.0 385.0 C 137.6698760986328 382.5 139.5 380.66986083984375 142.0 380.0 C 144.5 380.66986083984375 146.3301239013672 382.5 147.0 385.0" stroke-width="0.0" fill="rgb(84, 87, 89)" opacity="1.0" stroke="rgb(149, 252, 150)" stroke-opacity="0.2270315" stroke-linecap="round" stroke-linejoin="round"/>
    <path d="M 275.0 165.0 C 274.33013916015625 167.5 272.5 169.3301239013672 270.0 170.0 C 267.5 169.3301239013672 265.66986083984375 167.5 265.0 165.0 C 265.66986083984375 162.5 267.5 160.6698760986328 270.0 160.0 C 272.5 160.6698760986328 274.33013916015625 162.5 275.0 165.0" stroke-width="0.0" fill="rgb(247, 229, 203)" opacity="1.0" stroke="rgb(209, 164, 29)" stroke-opacity="0.9526536" stroke-linecap="round" stroke-linejoin="round"/>
    <path d="M 65.0 323.0 C 64.33012390136719 325.5 62.5 327.33013916015625 60.0 328.0 C 57.5 327.33013916015625 55.66987228393555 325.5 55.0 323.0 C 55.66987228393555 320.5 57.5 318.66986083984375 60.0 318.0 C 62.5 318.66986083984375 64.33012390136719 320.5 65.0 323.0" stroke-width="0.0" fill="rgb(33, 39, 65)" opacity="1.0" stroke="rgb(9, 117, 207)" stroke-opacity="0.58522785" stroke-linecap="round" stroke-linejoin="round"/>
    <path d="M 341.0 275.0 C 340.33013916015625 277.5 338.5 279.33013916015625 336.0 280.0 C 333.5 279.33013916015625 331.66986083984375 277.5 331.0 275.0 C 331.66986083984375 272.5 333.5 270.66986083984375 336.0 270.0 C 338.5 270.66986083984375 340.33013916015625 272.5 341.0 275.0" stroke-width="0.0" fill="rgb(254, 246, 230)" opacity="1.0" stroke="rgb(86, 3, 138)" stroke-opacity="0.27209884" stroke-linecap="round" stroke-linejoin="round"/>
    <path d="M 335.0 328.0 C 334.33013916015625 330.5 332.5 332.33013916015625 330.0 333.0 C 327.5 332.33013916015625 325.66986083984375 330.5 325.0 328.0 C 325.66986083984375 325.5 327.5 323.66986083984375 330.0 323.0 C 332.5 323.66986083984375 334.33013916015625 325.5 335.0 328.0" stroke-width="0.0" fill="rgb(37, 34, 54)" opacity="1.0" stroke="rgb(173, 166, 59)" stroke-opacity="0.66135675" stroke-linecap="round" stroke-linejoin="round"/>
    <path d="M 382.0 314.0 C 381.33013916015625 316.5 379.5 318.33013916015625 377.0 319.0 C 374.5 318.33013916015625 372.66986083984375 316.5 372.0 314.0 C 372.66986083984375 311.5 374.5 309.66986083984375 377.0 309.0 C 379.5 309.66986083984375 381.33013916015625 311.5 382.0 314.0" stroke-width="0.0" fill="rgb(252, 235, 213)" opacity="1.0" stroke="rgb(225, 79, 58)" stroke-opacity="0.019515006" stroke-linecap="round" stroke-linejoin="round"/>
    <path d="M 425.0 459.0 C 424.33013916015625 461.5 422.5 463.33013916015625 420.0 464.0 C 417.5 463.33013916015625 415.66986083984375 461.5 415.0 459.0 C 415.66986083984375 456.5 417.5 454.66986083984375 420.0 454.0 C 422.5 454.66986083984375 424.33013916015625 456.5 425.0 459.0" stroke-width="0.0" fill="rgb(243, 234, 220)" opacity="1.0" stroke="rgb(186, 32, 56)" stroke-opacity="0.13526253" stroke-linecap="round" stroke-linejoin="round"/>
    <path d="M 244.0 436.0 C 243.3301239013672 438.5 241.5 440.33013916015625 239.0 441.0 C 236.5 440.33013916015625 234.6698760986328 438.5 234.0 436.0 C 234.6698760986328 433.5 236.5 431.66986083984375 239.0 431.0 C 241.5 431.66986083984375 243.3301239013672 433.5 244.0 436.0" stroke-width="0.0" fill="rgb(251, 240, 219)" opacity="1.0" stroke="rgb(19, 46, 27)" stroke-opacity="0.7340532" stroke-linecap="round" stroke-linejoin="round"/>
    <path d="M 506.0 191.0 C 505.33013916015625 193.5 503.5 195.3301239013672 501.0 196.0 C 498.5 195.3301239013672 496.66986083984375 193.5 496.0 191.0 C 496.66986083984375 188.5 498.5 186.6698760986328 501.0 186.0 C 503.5 186.6698760986328 505.33013916015625 188.5 506.0 191.0" stroke-width="0.0" fill="rgb(228, 186, 158)" opacity="1.0" stroke="rgb(170, 31, 30)" stroke-opacity="0.6866542" stroke-linecap="round" stroke-linejoin="round"/>
    <path d="M 68.0 394.0 C 67.33012390136719 396.5 65.5 398.33013916015625 63.0 399.0 C 60.5 398.33013916015625 58.66987228393555 396.5 58.0 394.0 C 58.66987228393555 391.5 60.5 389.66986083984375 63.0 389.0 C 65.5 389.66986083984375 67.33012390136719 391.5 68.0 394.0" stroke-width="0.0" fill="rgb(251, 196, 166)" opacity="1.0" stroke="rgb(90, 27, 47)" stroke-opacity="0.67301524" stroke-linecap="round" stroke-linejoin="round"/>
    <path d="M 449.0 279.0 C 448.33013916015625 281.5 446.5 283.33013916015625 444.0 284.0 C 441.5 283.33013916015625 439.66986083984375 281.5 439.0 279.0 C 439.66986083984375 276.5 441.5 274.66986083984375 444.0 274.0 C 446.5 274.66986083984375 448.33013916015625 276.5 449.0 279.0" stroke-width="0.0" fill="rgb(33, 37, 53)" opacity="1.0" stroke="rgb(226, 165, 138)" stroke-opacity="0.71300256" stroke-linecap="round" stroke-linejoin="round"/>
    <path d="M 27.0 256.0 C 26.330127716064453 258.5 24.5 260.33013916015625 22.0 261.0 C 19.5 260.33013916015625 17.669872283935547 258.5 17.0 256.0 C 17.669872283935547 253.5 19.5 251.6698760986328 22.0 251.0 C 24.5 251.6698760986328 26.330127716064453 253.5 27.0 256.0" stroke-width="0.0" fill="rgb(255, 249, 233)" opacity="1.0" stroke="rgb(170, 167, 53)" stroke-opacity="0.029402707" stroke-linecap="round" stroke-linejoin="round"/>
    <path d="M 266.0 77.0 C 265.33013916015625 79.5 263.5 81.33012390136719 261.0 82.0 C 258.5 81.33012390136719 256.66986083984375 79.5 256.0 77.0 C 256.66986083984375 74.5 258.5 72.66987609863281 261.0 72.0 C 263.5 72.66987609863281 265.33013916015625 74.5 266.0 77.0" stroke-width="0.0" fill="rgb(253, 246, 230)" opacity="1.0" stroke="rgb(88, 85, 128)" stroke-opacity="0.7354399" stroke-linecap="round" stroke-linejoin="round"/>
    <path d="M 279.0 194.0 C 278.33013916015625 196.5 276.5 198.3301239013672 274.0 199.0 C 271.5 198.3301239013672 269.66986083984375 196.5 269.0 194.0 C 269.66986083984375 191.5 271.5 189.6698760986328 274.0 189.0 C 276.5 189.6698760986328 278.33013916015625 191.5 279.0 194.0" stroke-width="0.0" fill="rgb(252, 245, 227)" opacity="1.0" stroke="rgb(223, 233, 2)" stroke-opacity="0.38641232" stroke-linecap="round" stroke-linejoin="round"/>
    <path d="M 406.0 385.0 C 405.33013916015625 387.5 403.5 389.33013916015625 401.0 390.0 C 398.5 389.33013916015625 396.66986083984375 387.5 396.0 385.0 C 396.66986083984375 382.5 398.5 380.66986083984375 401.0 380.0 C 403.5 380.66986083984375 405.33013916015625 382.5 406.0 385.0" stroke-width="0.0" fill="rgb(19, 18, 34)" opacity="1.0" stroke="rgb(48, 125, 61)" stroke-opacity="0.035514895" stroke-linecap="round" stroke-linejoin="round"/>
    <path d="M 236.0 359.0 C 235.3301239013672 361.5 233.5 363.33013916015625 231.0 364.0 C 228.5 363.33013916015625 226.6698760986328 361.5 226.0 359.0 C 226.6698760986328 356.5 228.5 354.66986083984375 231.0 354.0 C 233.5 354.66986083984375 235.3301239013672 356.5 236.0 359.0" stroke-width="0.0" fill="rgb(40, 44, 68)" opacity="1.0" stroke="rgb(242, 166, 176)" stroke-opacity="0.8916294" stroke-linecap="round" stroke-linejoin="round"/>
    <path d="M 369.0 402.0 C 368.33013916015625 404.5 366.5 406.33013916015625 364.0 407.0 C 361.5 406.33013916015625 359.66986083984375 404.5 359.0 402.0 C 359.66986083984375 399.5 361.5 397.66986083984375 364.0 397.0 C 366.5 397.66986083984375 368.33013916015625 399.5 369.0 402.0" stroke-width="0.0" fill="rgb(47, 47, 65)" opacity="1.0" stroke="rgb(86, 123, 210)" stroke-opacity="0.99568623" stroke-linecap="round" stroke-linejoin="round"/>
    <path d="M 321.0 400.0 C 320.33013916015625 402.5 318.5 404.33013916015625 316.0 405.0 C 313.5 404.33013916015625 311.66986083984375 402.5 311.0 400.0 C 311.66986083984375 397.5 313.5 395.66986083984375 316.0 395.0 C 318.5 395.66986083984375 320.33013916015625 397.5 321.0 400.0" stroke-width="0.0" fill="rgb(41, 37, 58)" opacity="1.0" stroke="rgb(149, 158, 36)" stroke-opacity="0.8250215" stroke-linecap="round" stroke-linejoin="round"/>
  </g>
</svg>
