<?xml version="1.0" ?>
<svg xmlns="http://www.w3.org/2000/svg" version="1.1" width="512" height="488">
  <defs/>
  <g>
    <path d="M 273.6236572265625 187.81204223632812 C 275.3866882324219 179.30560302734375 262.9061584472656 184.248779296875 214.75186157226562 201.69985961914062 C 163.02987670898438 228.39291381835938 110.74624633789062 252.9886016845703 95.71406555175781 10.195701599121094 C 239.8020782470703 64.83949279785156 220.1573944091797 71.7104721069336 389.3885803222656 78.19632720947266 C 271.1227722167969 145.04150390625 277.1394348144531 156.48580932617188 273.6236572265625 187.81204223632812" stroke-width="0.0" fill="rgb(123, 99, 166)" opacity="0.22551501" stroke="rgb(3, 253, 250)" stroke-opacity="0.63250923" stroke-linecap="round" stroke-linejoin="round"/>
    <path d="M 376.0946960449219 241.16806030273438 C 343.26312255859375 249.25320434570312 350.380615234375 190.51373291015625 274.9090576171875 186.8185577392578 C 313.6741027832031 190.19259643554688 300.5955810546875 191.8219451904297 269.9664306640625 182.4845428466797 C 267.96826171875 200.16671752929688 273.2700500488281 123.55856323242188 317.15020751953125 115.81908416748047 C 299.6894836425781 115.96968841552734 343.59002685546875 130.16522216796875 376.0946960449219 241.16806030273438" stroke-width="0.0" fill="rgb(255, 255, 255)" opacity="0.9247612" stroke="rgb(109, 133, 113)" stroke-opacity="0.019620199" stroke-linecap="round" stroke-linejoin="round"/>
    <path d="M 236.12461853027344 400.7164306640625 C 276.6360168457031 413.4407958984375 262.5896301269531 399.21484375 201.7512664794922 424.20904541015625 C 241.85401916503906 392.3992614746094 229.31907653808594 411.5164489746094 231.58001708984375 406.27862548828125 C 231.6747283935547 398.95526123046875 226.3472137451172 376.01806640625 218.57814025878906 338.505615234375 C 234.02630615234375 344.5874328613281 224.898193359375 320.0177917480469 236.12461853027344 400.7164306640625" stroke-width="0.0" fill="rgb(228, 151, 0)" opacity="0.94205105" stroke="rgb(28, 13, 13)" stroke-opacity="0.5615886" stroke-linecap="round" stroke-linejoin="round"/>
    <path d="M 350.7784118652344 305.0042419433594 C 282.4881286621094 358.1742248535156 283.7387390136719 332.60223388671875 245.61802673339844 341.4733581542969 C 193.9883270263672 344.8365783691406 208.230712890625 313.7663879394531 59.945133209228516 281.0108947753906 C 119.10684967041016 242.661865234375 132.2180938720703 283.6188659667969 206.10423278808594 294.97381591796875 C 244.7255401611328 303.605712890625 246.22683715820312 305.4767150878906 350.7784118652344 305.0042419433594" stroke-width="0.0" fill="rgb(255, 255, 255)" opacity="0.91007036" stroke="rgb(183, 89, 247)" stroke-opacity="0.89556307" stroke-linecap="round" stroke-linejoin="round"/>
    <path d="M 359.1416320800781 158.4659881591797 C 414.48388671875 177.07528686523438 401.2303771972656 159.92274475097656 357.6324462890625 189.30067443847656 C 316.957763671875 147.4005584716797 328.0956726074219 159.93580627441406 348.2096862792969 149.5235595703125 C 353.1307373046875 116.36837005615234 304.5088806152344 171.544677734375 313.32275390625 115.7577896118164 C 365.8362731933594 110.63558959960938 376.2948303222656 151.7493133544922 359.1416320800781 158.4659881591797" stroke-width="0.0" fill="rgb(252, 251, 253)" opacity="0.9605656" stroke="rgb(13, 102, 171)" stroke-opacity="0.668166" stroke-linecap="round" stroke-linejoin="round"/>
    <path d="M 298.4825744628906 398.6108703613281 C 262.14263916015625 393.74896240234375 317.0087890625 396.047607421875 328.3825988769531 420.3554382324219 C 281.7354431152344 385.57159423828125 266.4990539550781 431.9290771484375 288.1585998535156 398.41168212890625 C 283.5118103027344 323.08331298828125 281.0577392578125 344.5527648925781 292.6033630371094 338.61029052734375 C 292.6082763671875 386.7182312011719 292.17633056640625 402.52496337890625 298.4825744628906 398.6108703613281" stroke-width="0.0" fill="rgb(230, 151, 0)" opacity="0.93117213" stroke="rgb(52, 71, 86)" stroke-opacity="0.9458568" stroke-linecap="round" stroke-linejoin="round"/>
    <path d="M 397.0328063964844 160.8097686767578 C 383.59368896484375 154.0572052001953 382.5814514160156 160.11434936523438 353.5679016113281 157.9247283935547 C 375.7798767089844 159.14804077148438 355.7229919433594 158.23651123046875 353.9054870605469 158.07106018066406 C 357.2858581542969 136.87960815429688 353.0096130371094 129.9739532470703 362.4270935058594 129.77249145507812 C 380.8291931152344 143.2477569580078 380.6942443847656 150.7936248779297 397.0328063964844 160.8097686767578" stroke-width="0.0" fill="rgb(255, 252, 248)" opacity="0.93105614" stroke="rgb(41, 242, 56)" stroke-opacity="0.2491194" stroke-linecap="round" stroke-linejoin="round"/>
    <path d="M 360.0 286.0 C 359.33013916015625 288.5 357.5 290.33013916015625 355.0 291.0 C 352.5 290.33013916015625 350.66986083984375 288.5 350.0 286.0 C 350.66986083984375 283.5 352.5 281.66986083984375 355.0 281.0 C 357.5 281.66986083984375 359.33013916015625 283.5 360.0 286.0" stroke-width="0.0" fill="rgb(249, 249, 252)" opacity="1.0" stroke="rgb(132, 135, 82)" stroke-opacity="0.5179533" stroke-linecap="round" stroke-linejoin="round"/>
  </g>
</svg>
