<?xml version="1.0" ?>
<svg xmlns="http://www.w3.org/2000/svg" version="1.1" width="512" height="384">
  <defs/>
  <g>
    <path d="M 197.802001953125 315.3810119628906 C 195.80294799804688 397.8984069824219 197.62600708007812 392.3346252441406 144.8951416015625 387.84326171875 C 83.98926544189453 386.52252197265625 81.03823852539062 391.18292236328125 34.759525299072266 381.75634765625 C 15.759578704833984 255.43930053710938 14.461609840393066 248.11378479003906 38.327171325683594 251.87283325195312 C 206.6649932861328 251.49441528320312 197.43153381347656 237.48158264160156 197.802001953125 315.3810119628906" stroke-width="0.0" fill="rgb(43, 172, 87)" opacity="0.4208099" stroke="rgb(174, 55, 90)" stroke-opacity="0.32693404" stroke-linecap="round" stroke-linejoin="round"/>
    <path d="M 262.04840087890625 96.09866333007812 C 261.489013671875 128.14015197753906 265.9720764160156 150.6588592529297 235.05422973632812 154.5958709716797 C 203.73048400878906 150.62844848632812 204.20291137695312 118.15645599365234 207.31680297851562 80.86203002929688 C 227.96173095703125 81.64710235595703 224.17138671875 79.98263549804688 246.12652587890625 82.2343521118164 C 258.7167053222656 89.71527099609375 254.89178466796875 96.01093292236328 262.04840087890625 96.09866333007812" stroke-width="0.0" fill="rgb(255, 242, 223)" opacity="0.89612347" stroke="rgb(21, 153, 155)" stroke-opacity="0.95672476" stroke-linecap="round" stroke-linejoin="round"/>
    <path d="M 478.9283752441406 83.6325912475586 C 476.22894287109375 119.23395538330078 461.4615173339844 105.36137390136719 429.67327880859375 108.75371551513672 C 377.5691223144531 107.78238677978516 370.5628662109375 115.03450775146484 376.67498779296875 75.44918823242188 C 403.2323303222656 64.65030670166016 411.56402587890625 87.01529693603516 434.6983337402344 52.6341552734375 C 454.94439697265625 42.42877960205078 478.1794128417969 43.72669219970703 478.9283752441406 83.6325912475586" stroke-width="0.0" fill="rgb(255, 255, 255)" opacity="0.75755864" stroke="rgb(148, 52, 227)" stroke-opacity="0.7890103" stroke-linecap="round" stroke-linejoin="round"/>
    <path d="M 511.6017761230469 273.2643737792969 C 521.3010864257812 354.51031494140625 520.5484008789062 358.81427001953125 508.576416015625 405.5394592285156 C 415.98468017578125 392.4280700683594 439.2383117675781 353.5365905761719 387.4816589355469 329.48956298828125 C 378.74005126953125 269.4423522949219 319.58270263671875 287.4454040527344 379.59716796875 212.66722106933594 C 431.3541259765625 101.45106506347656 428.0046691894531 135.2040252685547 511.6017761230469 273.2643737792969" stroke-width="0.0" fill="rgb(6, 56, 96)" opacity="0.5384365" stroke="rgb(173, 128, 75)" stroke-opacity="0.7306282" stroke-linecap="round" stroke-linejoin="round"/>
    <path d="M 423.1343994140625 331.70635986328125 C 467.6011962890625 399.64666748046875 462.729736328125 402.864501953125 317.7567138671875 399.6773986816406 C 221.7577362060547 413.1854553222656 196.2999267578125 471.7694091796875 182.45240783691406 264.7491455078125 C 191.84588623046875 192.16213989257812 301.5923156738281 309.8758239746094 360.8609619140625 215.648681640625 C 445.0158996582031 227.60264587402344 412.51788330078125 259.17791748046875 423.1343994140625 331.70635986328125" stroke-width="0.0" fill="rgb(116, 150, 150)" opacity="0.87301326" stroke="rgb(26, 3, 175)" stroke-opacity="0.05890515" stroke-linecap="round" stroke-linejoin="round"/>
    <path d="M 208.47840881347656 73.85851287841797 C 128.40631103515625 115.14617919921875 97.92534637451172 142.9595184326172 97.00938415527344 169.97775268554688 C 71.31970977783203 245.7215118408203 10.637114524841309 258.80975341796875 -14.929628372192383 260.7861022949219 C -18.580976486206055 30.74292755126953 -18.47357749938965 22.323200225830078 1.3830296993255615 -10.53062629699707 C 196.7388916015625 -14.309189796447754 213.39315795898438 -17.238697052001953 208.47840881347656 73.85851287841797" stroke-width="0.0" fill="rgb(255, 235, 161)" opacity="0.053596515" stroke="rgb(92, 146, 199)" stroke-opacity="0.9990771" stroke-linecap="round" stroke-linejoin="round"/>
    <path d="M 74.93634033203125 350.8446350097656 C 151.6993408203125 427.09564208984375 119.60541534423828 429.0505065917969 61.98796081542969 361.87664794921875 C 45.702880859375 261.8236389160156 67.60591888427734 297.5480651855469 38.28352737426758 334.6750183105469 C 53.655433654785156 312.78192138671875 72.34698486328125 284.5030822753906 13.638664245605469 251.58151245117188 C 82.38091278076172 255.4114227294922 69.13050079345703 305.32257080078125 74.93634033203125 350.8446350097656" stroke-width="0.0" fill="rgb(0, 85, 154)" opacity="0.98773205" stroke="rgb(178, 112, 109)" stroke-opacity="0.4463792" stroke-linecap="round" stroke-linejoin="round"/>
    <path d="M 267.80987548828125 265.5638122558594 C 268.3017883300781 265.42486572265625 268.51910400390625 265.41253662109375 253.54766845703125 265.400634765625 C 248.85308837890625 265.1297912597656 249.35411071777344 267.40789794921875 251.8038330078125 257.34722900390625 C 257.5654296875 233.73831176757812 258.42059326171875 230.1163787841797 258.88250732421875 229.41404724121094 C 260.0069580078125 235.236572265625 263.1036682128906 246.20135498046875 267.80987548828125 265.5638122558594" stroke-width="0.0" fill="rgb(23, 92, 28)" opacity="0.9819317" stroke="rgb(11, 245, 87)" stroke-opacity="0.36675048" stroke-linecap="round" stroke-linejoin="round"/>
    <path d="M 430.66888427734375 132.44302368164062 C 510.0624084472656 270.6629333496094 498.1150207519531 254.224853515625 497.898681640625 251.43441772460938 C 322.02197265625 251.41505432128906 315.8634948730469 252.2144317626953 317.7204284667969 251.3062286376953 C 333.39862060546875 224.09844970703125 339.8504333496094 213.18336486816406 338.564208984375 214.9014434814453 C 402.8470764160156 211.91993713378906 349.63134765625 232.8675537109375 430.66888427734375 132.44302368164062" stroke-width="0.0" fill="rgb(82, 108, 120)" opacity="0.96925914" stroke="rgb(225, 0, 136)" stroke-opacity="0.6593078" stroke-linecap="round" stroke-linejoin="round"/>
    <path d="M 191.2446746826172 271.8751220703125 C 191.3818359375 280.7065124511719 191.04441833496094 274.1189270019531 190.80783081054688 269.6845397949219 C 170.73487854003906 270.85125732421875 174.33346557617188 270.2912902832031 172.8701171875 269.3832702636719 C 178.00758361816406 249.44422912597656 182.28887939453125 231.92324829101562 181.89447021484375 233.6859130859375 C 183.9481964111328 242.48455810546875 186.65269470214844 252.74838256835938 191.2446746826172 271.8751220703125" stroke-width="0.0" fill="rgb(25, 93, 30)" opacity="0.99045295" stroke="rgb(191, 230, 91)" stroke-opacity="0.9555391" stroke-linecap="round" stroke-linejoin="round"/>
    <path d="M 285.20855712890625 289.265380859375 C 287.5557861328125 301.48968505859375 284.6995544433594 295.10955810546875 286.5038146972656 292.5768737792969 C 264.2068786621094 292.0010070800781 267.6134033203125 294.054931640625 268.82958984375 288.924560546875 C 271.7127990722656 273.885009765625 274.5223083496094 268.62896728515625 276.3216247558594 256.68402099609375 C 277.72454833984375 254.59730529785156 279.2981262207031 269.06939697265625 285.20855712890625 289.265380859375" stroke-width="0.0" fill="rgb(22, 91, 27)" opacity="0.97125703" stroke="rgb(92, 79, 90)" stroke-opacity="0.3968215" stroke-linecap="round" stroke-linejoin="round"/>
    <path d="M 253.28738403320312 302.2606506347656 C 255.9259033203125 312.3242492675781 255.78781127929688 307.85760498046875 254.27467346191406 306.16363525390625 C 231.51028442382812 305.6391296386719 236.46876525878906 308.33209228515625 237.3470001220703 300.8134765625 C 241.9241180419922 282.453369140625 244.3487091064453 272.40240478515625 245.47276306152344 269.7681579589844 C 244.50257873535156 270.085205078125 248.70753479003906 283.05633544921875 253.28738403320312 302.2606506347656" stroke-width="0.0" fill="rgb(25, 92, 30)" opacity="0.9822218" stroke="rgb(98, 221, 60)" stroke-opacity="0.094111554" stroke-linecap="round" stroke-linejoin="round"/>
    <path d="M 226.58531188964844 295.5757751464844 C 227.58399963378906 299.6644592285156 226.01568603515625 295.7508239746094 226.82357788085938 297.09173583984375 C 200.0166015625 297.2431945800781 201.30174255371094 296.9368896484375 208.87950134277344 296.8194580078125 C 214.63119506835938 276.2648620605469 216.31643676757812 264.46466064453125 218.1354522705078 261.4898681640625 C 218.81289672851562 265.3706359863281 222.47341918945312 277.3426513671875 226.58531188964844 295.5757751464844" stroke-width="0.0" fill="rgb(25, 93, 30)" opacity="0.98332316" stroke="rgb(36, 18, 242)" stroke-opacity="0.28420427" stroke-linecap="round" stroke-linejoin="round"/>
    <path d="M 200.44390869140625 308.74493408203125 C 197.87814331054688 305.804931640625 205.84266662597656 305.9957580566406 187.20089721679688 305.84429931640625 C 180.962890625 307.3531494140625 182.92294311523438 305.55975341796875 181.95346069335938 305.85162353515625 C 183.662109375 298.12274169921875 185.70310974121094 291.7015686035156 190.87252807617188 269.5212097167969 C 191.52073669433594 272.2832946777344 194.8945770263672 285.47332763671875 200.44390869140625 308.74493408203125" stroke-width="0.0" fill="rgb(24, 92, 29)" opacity="0.976197" stroke="rgb(95, 10, 183)" stroke-opacity="0.7872578" stroke-linecap="round" stroke-linejoin="round"/>
    <path d="M 230.6306610107422 241.52684020996094 C 227.29269409179688 256.3163757324219 227.41287231445312 250.88983154296875 227.33392333984375 252.52194213867188 C 206.3543243408203 251.05825805664062 213.58596801757812 257.2003479003906 208.00665283203125 238.7534942626953 C 198.10284423828125 221.58853149414062 206.61703491210938 225.94117736816406 217.29185485839844 237.90914916992188 C 226.0105743408203 240.99964904785156 233.67227172851562 236.34329223632812 230.6306610107422 241.52684020996094" stroke-width="0.0" fill="rgb(255, 247, 226)" opacity="0.94615686" stroke="rgb(111, 163, 239)" stroke-opacity="0.22749305" stroke-linecap="round" stroke-linejoin="round"/>
    <path d="M 202.91566467285156 110.77302551269531 C 66.11624145507812 43.74285125732422 88.4126205444336 52.352333068847656 101.93612670898438 52.546775817871094 C 35.375179290771484 43.396297454833984 62.83533477783203 65.4673080444336 2.8908333778381348 174.8661651611328 C -17.9459285736084 -6.8255767822265625 -9.429593086242676 -10.389567375183105 27.522916793823242 -13.40040397644043 C 188.99609375 -24.365766525268555 214.71145629882812 -55.789798736572266 202.91566467285156 110.77302551269531" stroke-width="0.0" fill="rgb(255, 240, 249)" opacity="0.057229605" stroke="rgb(32, 125, 36)" stroke-opacity="0.81341887" stroke-linecap="round" stroke-linejoin="round"/>
    <path d="M 41.097740173339844 355.14532470703125 C 50.897056579589844 382.05926513671875 71.95957946777344 393.7052001953125 35.03767776489258 394.4041748046875 C -24.458715438842773 393.0763244628906 -13.337198257446289 375.5865478515625 -8.906501770019531 344.5597229003906 C -4.755796432495117 301.39447021484375 -9.369511604309082 292.09100341796875 20.977754592895508 283.1413269042969 C 40.33991622924805 296.584716796875 38.70573806762695 305.0175476074219 41.097740173339844 355.14532470703125" stroke-width="0.0" fill="rgb(165, 215, 166)" opacity="0.38300246" stroke="rgb(161, 181, 119)" stroke-opacity="0.10542205" stroke-linecap="round" stroke-linejoin="round"/>
    <path d="M 141.03858947753906 150.71192932128906 C 128.30621337890625 166.59835815429688 114.33431243896484 176.98971557617188 94.7381820678711 179.62962341308594 C 77.53236389160156 185.19912719726562 4.399287223815918 174.16152954101562 19.0296630859375 82.75273132324219 C 56.03927993774414 33.71990203857422 131.99424743652344 32.446537017822266 143.9290313720703 98.25611877441406 C 137.16873168945312 125.17227172851562 138.71368408203125 131.43539428710938 141.03858947753906 150.71192932128906" stroke-width="0.0" fill="rgb(254, 174, 56)" opacity="0.57074594" stroke="rgb(132, 40, 242)" stroke-opacity="0.08848768" stroke-linecap="round" stroke-linejoin="round"/>
    <path d="M 133.52346801757812 267.3445129394531 C 127.970947265625 270.0422668457031 191.2187042236328 321.9320068359375 209.54835510253906 358.28631591796875 C 120.08844757080078 266.46673583984375 124.0678482055664 267.0332336425781 123.34550476074219 270.96588134765625 C 124.907958984375 265.68719482421875 124.5398178100586 232.57225036621094 125.92665100097656 209.14234924316406 C 133.80517578125 208.90060424804688 131.5354461669922 210.5252227783203 133.52346801757812 267.3445129394531" stroke-width="0.0" fill="rgb(113, 136, 149)" opacity="1.0" stroke="rgb(84, 77, 254)" stroke-opacity="0.843105" stroke-linecap="round" stroke-linejoin="round"/>
    <path d="M 131.88490295410156 182.28936767578125 C 130.80331420898438 170.16490173339844 132.6411895751953 181.9448699951172 132.41094970703125 249.20785522460938 C 121.38290405273438 250.06626892089844 125.60897064208984 253.498291015625 125.77428436279297 183.32106018066406 C 126.86417388916016 136.386962890625 124.97935485839844 140.90501403808594 131.0812225341797 144.72564697265625 C 131.67178344726562 172.43893432617188 131.35208129882812 183.1044464111328 131.88490295410156 182.28936767578125" stroke-width="0.0" fill="rgb(77, 105, 119)" opacity="0.95198774" stroke="rgb(147, 24, 39)" stroke-opacity="0.73570454" stroke-linecap="round" stroke-linejoin="round"/>
    <path d="M 239.88577270507812 271.7247009277344 C 241.9427032470703 281.4381408691406 241.5223388671875 276.89227294921875 240.20199584960938 274.42230224609375 C 218.9951171875 273.7765197753906 222.05844116210938 276.2786865234375 223.54934692382812 270.4991149902344 C 228.4705810546875 251.52342224121094 231.1997528076172 239.58203125 231.72052001953125 238.0670623779297 C 233.4202117919922 246.5667724609375 235.9524688720703 255.67164611816406 239.88577270507812 271.7247009277344" stroke-width="0.0" fill="rgb(21, 91, 25)" opacity="0.96560955" stroke="rgb(55, 190, 158)" stroke-opacity="0.19434676" stroke-linecap="round" stroke-linejoin="round"/>
    <path d="M 445.21051025390625 157.59852600097656 C 447.2398376464844 156.48117065429688 440.56451416015625 156.95655822753906 412.3936767578125 156.89662170410156 C 407.8727111816406 157.49539184570312 409.5569763183594 154.20547485351562 404.9482421875 163.59339904785156 C 417.27239990234375 143.48153686523438 423.7514953613281 133.05796813964844 426.8149108886719 125.62704467773438 C 433.12890625 136.4149169921875 436.5013122558594 143.18373107910156 445.21051025390625 157.59852600097656" stroke-width="0.0" fill="rgb(203, 211, 215)" opacity="0.959248" stroke="rgb(62, 234, 133)" stroke-opacity="0.14224795" stroke-linecap="round" stroke-linejoin="round"/>
    <path d="M 16.359556198120117 315.3224792480469 C 12.675838470458984 329.1668701171875 9.177379608154297 331.2347717285156 -4.192802906036377 341.11224365234375 C -13.9325590133667 335.1875305175781 -13.166316032409668 331.0412902832031 -15.64399242401123 294.2558898925781 C -40.60444259643555 268.7475280761719 -56.18830871582031 250.54510498046875 13.990119934082031 251.6682891845703 C 41.05031967163086 265.771484375 31.70709991455078 281.9552307128906 16.359556198120117 315.3224792480469" stroke-width="0.0" fill="rgb(165, 213, 165)" opacity="0.9751521" stroke="rgb(158, 107, 216)" stroke-opacity="0.6266007" stroke-linecap="round" stroke-linejoin="round"/>
    <path d="M 212.5709991455078 257.33502197265625 C 213.27000427246094 262.334228515625 215.28936767578125 260.2428894042969 202.78758239746094 260.76739501953125 C 192.25802612304688 259.7816162109375 195.73678588867188 264.83282470703125 198.34912109375 248.44204711914062 C 198.9678955078125 247.66441345214844 201.41746520996094 236.85516357421875 204.42201232910156 224.76348876953125 C 207.5349578857422 235.9019775390625 209.08285522460938 244.33865356445312 212.5709991455078 257.33502197265625" stroke-width="0.0" fill="rgb(25, 93, 30)" opacity="0.99639475" stroke="rgb(131, 211, 224)" stroke-opacity="0.8670483" stroke-linecap="round" stroke-linejoin="round"/>
    <path d="M 255.2657470703125 243.02337646484375 C 251.4014129638672 255.5519256591797 256.6846618652344 251.66220092773438 241.54197692871094 252.39378356933594 C 233.8465118408203 251.46875 236.4896240234375 255.39691162109375 232.50465393066406 242.3511962890625 C 233.56341552734375 240.3037109375 226.0539093017578 241.1580352783203 249.2035369873047 240.9947509765625 C 249.5438995361328 242.8120574951172 246.21343994140625 243.4482421875 255.2657470703125 243.02337646484375" stroke-width="0.0" fill="rgb(255, 246, 224)" opacity="0.945772" stroke="rgb(171, 17, 115)" stroke-opacity="0.8819992" stroke-linecap="round" stroke-linejoin="round"/>
    <path d="M 198.6010284423828 248.5293731689453 C 197.4353790283203 254.26890563964844 196.56407165527344 252.2090606689453 195.28237915039062 252.48934936523438 C 184.14129638671875 251.8441162109375 187.8386688232422 254.44224548339844 185.23826599121094 247.43466186523438 C 191.087158203125 247.54177856445312 190.0634307861328 238.85118103027344 200.52093505859375 240.08323669433594 C 204.07704162597656 227.23699951171875 203.2090606689453 228.08409118652344 198.6010284423828 248.5293731689453" stroke-width="0.0" fill="rgb(255, 251, 228)" opacity="0.90359676" stroke="rgb(201, 5, 200)" stroke-opacity="0.5542154" stroke-linecap="round" stroke-linejoin="round"/>
    <path d="M 518.432373046875 261.69683837890625 C 518.2047119140625 267.20648193359375 516.083984375 274.24029541015625 512.7916870117188 281.0283203125 C 491.4557189941406 280.66693115234375 493.9684143066406 275.7139892578125 484.237060546875 267.8511657714844 C 486.4269104003906 250.29591369628906 489.505126953125 251.6779327392578 518.1610717773438 251.86541748046875 C 518.408935546875 249.1877899169922 520.1699829101562 248.46751403808594 518.432373046875 261.69683837890625" stroke-width="0.0" fill="rgb(116, 150, 150)" opacity="0.721238" stroke="rgb(71, 221, 54)" stroke-opacity="0.029642632" stroke-linecap="round" stroke-linejoin="round"/>
    <path d="M 150.83819580078125 122.62513732910156 C 142.55633544921875 168.42288208007812 126.75891876220703 128.6787872314453 170.6128692626953 183.60292053222656 C 122.9469223022461 139.0902862548828 120.42044067382812 158.15586853027344 142.08580017089844 96.06909942626953 C 126.15666198730469 94.5697250366211 113.55123138427734 95.8292465209961 124.54695129394531 60.06282424926758 C 152.28277587890625 82.846435546875 151.98223876953125 106.95358276367188 150.83819580078125 122.62513732910156" stroke-width="0.0" fill="rgb(253, 200, 120)" opacity="0.90209067" stroke="rgb(250, 187, 110)" stroke-opacity="0.4477895" stroke-linecap="round" stroke-linejoin="round"/>
    <path d="M 228.8897247314453 379.46771240234375 C 244.86117553710938 395.2991027832031 236.1438446044922 391.6508483886719 194.39080810546875 391.5812072753906 C 188.45790100097656 387.5948181152344 183.50567626953125 385.0383605957031 189.32546997070312 403.0003662109375 C 188.5189971923828 355.2300720214844 189.56358337402344 335.810546875 188.4423065185547 336.8065490722656 C 182.6089324951172 330.5798645019531 201.10325622558594 350.3218688964844 228.8897247314453 379.46771240234375" stroke-width="0.0" fill="rgb(165, 214, 167)" opacity="1.0" stroke="rgb(26, 75, 66)" stroke-opacity="0.6758255" stroke-linecap="round" stroke-linejoin="round"/>
    <path d="M 515.0615234375 372.3581848144531 C 522.9437255859375 384.0301513671875 525.4929809570312 390.0433349609375 510.67864990234375 394.7912902832031 C 510.9293518066406 367.5758972167969 511.2215576171875 363.1178894042969 510.7266845703125 380.9283142089844 C 510.7470703125 387.0856018066406 510.8531494140625 379.8378601074219 511.5718688964844 292.3831481933594 C 544.19775390625 334.5915832519531 524.7368774414062 354.5198669433594 515.0615234375 372.3581848144531" stroke-width="0.0" fill="rgb(193, 255, 174)" opacity="0.55600953" stroke="rgb(167, 173, 69)" stroke-opacity="0.121573105" stroke-linecap="round" stroke-linejoin="round"/>
    <path d="M 167.97396850585938 251.50514221191406 C 146.7066650390625 254.58737182617188 142.06622314453125 255.39584350585938 163.7583465576172 252.0562744140625 C 137.2197723388672 251.92172241210938 131.5941162109375 252.10079956054688 132.97659301757812 252.0991973876953 C 133.4709930419922 244.9149932861328 133.52725219726562 246.22674560546875 132.9726104736328 246.9186553955078 C 134.8225555419922 250.2722625732422 148.8495635986328 244.9463348388672 167.97396850585938 251.50514221191406" stroke-width="0.0" fill="rgb(255, 251, 234)" opacity="0.4868379" stroke="rgb(126, 252, 173)" stroke-opacity="0.11483802" stroke-linecap="round" stroke-linejoin="round"/>
    <path d="M 53.00318145751953 53.570823669433594 C 49.66823959350586 54.02872085571289 46.913818359375 55.235328674316406 53.81680679321289 55.28245162963867 C 35.886322021484375 63.665771484375 36.60667419433594 78.10619354248047 31.671205520629883 45.43296813964844 C 31.534839630126953 39.979530334472656 33.266292572021484 38.08479690551758 47.67591857910156 37.08951950073242 C 62.10783386230469 41.355350494384766 64.11738586425781 46.40966033935547 53.00318145751953 53.570823669433594" stroke-width="0.0" fill="rgb(255, 243, 224)" opacity="0.94166374" stroke="rgb(101, 16, 99)" stroke-opacity="0.9278093" stroke-linecap="round" stroke-linejoin="round"/>
    <path d="M 133.41012573242188 142.776611328125 C 186.19802856445312 196.91500854492188 176.30935668945312 189.4032745361328 127.39496612548828 145.7287139892578 C 63.24170684814453 165.5465545654297 55.150413513183594 166.21180725097656 117.73726654052734 142.16354370117188 C 129.060546875 146.1233673095703 120.52392578125 140.3841094970703 128.58445739746094 138.30221557617188 C 148.08544921875 72.77659606933594 151.56173706054688 72.26416778564453 133.41012573242188 142.776611328125" stroke-width="0.0" fill="rgb(50, 92, 122)" opacity="0.8027418" stroke="rgb(165, 160, 97)" stroke-opacity="0.21597096" stroke-linecap="round" stroke-linejoin="round"/>
    <path d="M 37.206092834472656 252.72698974609375 C 48.7489013671875 260.5733642578125 50.26119613647461 264.46221923828125 42.1076545715332 259.2553405761719 C 33.765926361083984 253.79774475097656 29.805570602416992 254.1513671875 14.074814796447754 251.52528381347656 C 27.60824966430664 251.04551696777344 32.873355865478516 252.91574096679688 23.274431228637695 251.36399841308594 C 31.235549926757812 252.5442352294922 36.50531005859375 251.28509521484375 37.206092834472656 252.72698974609375" stroke-width="0.0" fill="rgb(0, 83, 154)" opacity="0.9766115" stroke="rgb(69, 73, 108)" stroke-opacity="0.33958805" stroke-linecap="round" stroke-linejoin="round"/>
    <path d="M 64.39898681640625 278.16802978515625 C 71.76840209960938 294.36004638671875 63.43204116821289 268.24786376953125 52.80072784423828 261.8141174316406 C 59.2933235168457 266.4822082519531 55.86112976074219 264.0068359375 60.26395797729492 270.0814514160156 C 56.811485290527344 266.00286865234375 46.910091400146484 257.23699951171875 43.296321868896484 257.1581115722656 C 52.248291015625 264.8746643066406 58.442039489746094 269.23876953125 64.39898681640625 278.16802978515625" stroke-width="0.0" fill="rgb(185, 227, 171)" opacity="0.9011546" stroke="rgb(88, 233, 236)" stroke-opacity="0.35746494" stroke-linecap="round" stroke-linejoin="round"/>
    <path d="M 73.1580581665039 326.5196533203125 C 74.70819091796875 345.1320495605469 79.33885955810547 354.3535461425781 86.06444549560547 361.9398193359375 C 71.51318359375 355.2849426269531 69.8210220336914 354.67645263671875 70.13775634765625 351.92498779296875 C 63.68299865722656 351.6763916015625 82.84950256347656 352.2361755371094 70.44695281982422 350.2998046875 C 70.97761535644531 349.168212890625 69.2835922241211 350.94549560546875 73.1580581665039 326.5196533203125" stroke-width="0.0" fill="rgb(1, 85, 155)" opacity="0.97819954" stroke="rgb(52, 181, 154)" stroke-opacity="0.5297573" stroke-linecap="round" stroke-linejoin="round"/>
    <path d="M 273.8148193359375 248.7707977294922 C 269.539794921875 251.3723602294922 267.3722839355469 247.01914978027344 278.0489501953125 256.61322021484375 C 264.7216796875 280.9549560546875 263.9862976074219 245.74156188964844 266.85662841796875 249.05039978027344 C 271.2027282714844 254.7652130126953 271.6492919921875 248.31817626953125 278.1053466796875 245.78225708007812 C 274.882080078125 247.73854064941406 278.7268371582031 244.7830352783203 273.8148193359375 248.7707977294922" stroke-width="0.0" fill="rgb(215, 255, 178)" opacity="0.4039814" stroke="rgb(113, 0, 221)" stroke-opacity="0.41112238" stroke-linecap="round" stroke-linejoin="round"/>
    <path d="M 341.20458984375 276.11370849609375 C 450.7241516113281 395.03717041015625 488.2125244140625 407.5303039550781 387.86322021484375 391.0986022949219 C 272.5649719238281 266.6647644042969 286.03875732421875 294.56585693359375 276.0932312011719 251.6745147705078 C 318.8536682128906 252.09017944335938 319.9606018066406 251.30274963378906 302.39813232421875 253.94998168945312 C 325.3333435058594 251.98634338378906 306.4017639160156 242.75650024414062 341.20458984375 276.11370849609375" stroke-width="0.0" fill="rgb(166, 217, 167)" opacity="0.9396485" stroke="rgb(44, 186, 56)" stroke-opacity="0.49169776" stroke-linecap="round" stroke-linejoin="round"/>
    <path d="M 59.392093658447266 342.12506103515625 C 61.842437744140625 358.1867370605469 67.99022674560547 368.9310302734375 71.97804260253906 372.7428894042969 C 58.13656234741211 361.1766357421875 62.53714370727539 359.7601623535156 59.255245208740234 349.1961669921875 C 57.52288055419922 364.1539001464844 58.81071853637695 351.4304504394531 58.164161682128906 358.0997619628906 C 57.87790298461914 355.2968444824219 59.601043701171875 354.9571228027344 59.392093658447266 342.12506103515625" stroke-width="0.0" fill="rgb(187, 230, 170)" opacity="0.87265146" stroke="rgb(135, 186, 219)" stroke-opacity="0.11124722" stroke-linecap="round" stroke-linejoin="round"/>
    <path d="M 315.692138671875 245.0157470703125 C 319.464599609375 254.55679321289062 321.72003173828125 250.33815002441406 302.11932373046875 251.90631103515625 C 317.89141845703125 246.7522430419922 313.1037292480469 246.62535095214844 313.6615295410156 246.15956115722656 C 314.60552978515625 248.87767028808594 313.08831787109375 244.5741729736328 315.59197998046875 246.4247589111328 C 314.7332458496094 243.5193634033203 316.05426025390625 247.93222045898438 315.692138671875 245.0157470703125" stroke-width="0.0" fill="rgb(255, 254, 221)" opacity="0.20214865" stroke="rgb(204, 177, 252)" stroke-opacity="0.7243572" stroke-linecap="round" stroke-linejoin="round"/>
    <path d="M 413.83099365234375 72.56403350830078 C 424.461669921875 69.03856658935547 421.29974365234375 64.99602508544922 422.1356506347656 77.83395385742188 C 415.2962951660156 75.88152313232422 416.1647033691406 63.33303451538086 437.50811767578125 54.088748931884766 C 418.13055419921875 68.5801773071289 421.6651306152344 69.13317108154297 422.76422119140625 69.30789947509766 C 418.97784423828125 67.96521759033203 418.13275146484375 73.94267272949219 413.83099365234375 72.56403350830078" stroke-width="0.0" fill="rgb(255, 185, 76)" opacity="0.37799704" stroke="rgb(206, 78, 249)" stroke-opacity="0.47581652" stroke-linecap="round" stroke-linejoin="round"/>
    <path d="M 274.0719299316406 131.38377380371094 C 273.37188720703125 136.615966796875 266.9691162109375 136.98756408691406 265.5384216308594 141.09942626953125 C 236.45558166503906 140.0177764892578 178.2827911376953 156.53463745117188 191.22079467773438 119.00631713867188 C 265.2273254394531 126.79314422607422 261.182373046875 84.27448272705078 261.8067932128906 114.93812561035156 C 277.68170166015625 115.60113525390625 273.0979919433594 111.29702758789062 274.0719299316406 131.38377380371094" stroke-width="0.0" fill="rgb(255, 255, 255)" opacity="0.7271162" stroke="rgb(244, 76, 4)" stroke-opacity="0.9411464" stroke-linecap="round" stroke-linejoin="round"/>
    <path d="M 83.74638366699219 389.2001953125 C 85.52749633789062 382.1869812011719 82.80799102783203 385.6632080078125 80.37881469726562 391.8747253417969 C 71.54122924804688 392.0051574707031 75.22396850585938 391.4870300292969 95.33187866210938 389.8676452636719 C 97.50312805175781 385.84417724609375 86.10700988769531 386.40325927734375 76.16712951660156 377.4078369140625 C 80.57465362548828 384.55810546875 81.33354949951172 385.48004150390625 83.74638366699219 389.2001953125" stroke-width="0.0" fill="rgb(175, 221, 169)" opacity="0.9106697" stroke="rgb(173, 201, 220)" stroke-opacity="0.46164364" stroke-linecap="round" stroke-linejoin="round"/>
    <path d="M 134.33685302734375 63.902950286865234 C 138.1662139892578 64.87063598632812 134.61404418945312 63.79948425292969 124.55110168457031 59.81731033325195 C 127.49492645263672 64.20849609375 121.81000518798828 58.62265396118164 119.95979309082031 57.07191467285156 C 108.18618774414062 46.80883026123047 105.67262268066406 44.526519775390625 114.30318450927734 52.356529235839844 C 123.827880859375 61.284149169921875 127.8384780883789 60.77503967285156 134.33685302734375 63.902950286865234" stroke-width="0.0" fill="rgb(255, 226, 187)" opacity="0.8464981" stroke="rgb(179, 31, 180)" stroke-opacity="0.28409708" stroke-linecap="round" stroke-linejoin="round"/>
    <path d="M 44.90757751464844 60.13187026977539 C 44.154273986816406 60.47101974487305 40.88787078857422 64.15164184570312 36.10103225708008 68.71263122558594 C 19.919164657592773 86.52587890625 15.455690383911133 89.13062286376953 15.884355545043945 73.1322021484375 C 21.589723587036133 46.209068298339844 24.145538330078125 44.600425720214844 29.29113006591797 42.86445999145508 C 52.42060089111328 45.55177307128906 54.38816452026367 52.544044494628906 44.90757751464844 60.13187026977539" stroke-width="0.0" fill="rgb(255, 243, 224)" opacity="0.887501" stroke="rgb(96, 165, 64)" stroke-opacity="0.77711326" stroke-linecap="round" stroke-linejoin="round"/>
    <path d="M 14.114385604858398 109.56742858886719 C 19.29964828491211 114.24857330322266 19.821653366088867 120.1290283203125 15.587499618530273 133.736083984375 C 13.860528945922852 130.33766174316406 19.331029891967773 133.83999633789062 16.85664176940918 126.16217803955078 C 21.426259994506836 86.74024963378906 14.41537094116211 104.86687469482422 17.72663116455078 92.4775619506836 C 13.55030632019043 116.77532958984375 12.065936088562012 124.13855743408203 14.114385604858398 109.56742858886719" stroke-width="0.0" fill="rgb(255, 245, 231)" opacity="0.8043372" stroke="rgb(10, 8, 81)" stroke-opacity="0.68173677" stroke-linecap="round" stroke-linejoin="round"/>
    <path d="M 106.46951293945312 392.5782470703125 C 112.6328353881836 380.9124755859375 108.02198791503906 384.7486572265625 104.2092514038086 391.2599792480469 C 100.84458923339844 391.9227600097656 102.30415344238281 385.5088195800781 92.36666870117188 369.1932067871094 C 98.73387908935547 375.3642578125 108.88401794433594 385.36651611328125 112.40436553955078 387.1127624511719 C 101.66613006591797 385.4700927734375 102.43745422363281 387.8638610839844 106.46951293945312 392.5782470703125" stroke-width="0.0" fill="rgb(1, 84, 155)" opacity="0.9536259" stroke="rgb(20, 140, 209)" stroke-opacity="0.36795145" stroke-linecap="round" stroke-linejoin="round"/>
    <path d="M 85.25250244140625 43.920711517333984 C 66.000244140625 46.08251190185547 64.5495834350586 49.43744659423828 57.784507751464844 50.228878021240234 C 61.761653900146484 53.21432113647461 56.11344909667969 52.72271728515625 42.9639778137207 43.88126754760742 C 47.65022277832031 33.841548919677734 48.967498779296875 31.52787208557129 83.6611557006836 29.770862579345703 C 86.84001159667969 34.69913101196289 93.90858459472656 51.78983688354492 85.25250244140625 43.920711517333984" stroke-width="0.0" fill="rgb(255, 243, 224)" opacity="0.8654139" stroke="rgb(248, 101, 44)" stroke-opacity="0.7075373" stroke-linecap="round" stroke-linejoin="round"/>
    <path d="M 69.79627227783203 44.22261047363281 C 62.563812255859375 47.42356491088867 59.78785705566406 49.94172668457031 64.81671142578125 48.42810821533203 C 51.848018646240234 50.03614044189453 41.31125259399414 59.8787727355957 43.51823425292969 38.78779983520508 C 43.97867965698242 35.1292610168457 46.258209228515625 33.36941146850586 51.89778518676758 32.77914047241211 C 72.09520721435547 36.722774505615234 66.5807876586914 41.67579650878906 69.79627227783203 44.22261047363281" stroke-width="0.0" fill="rgb(255, 243, 224)" opacity="0.91874605" stroke="rgb(177, 253, 9)" stroke-opacity="0.2645064" stroke-linecap="round" stroke-linejoin="round"/>
    <path d="M 20.873878479003906 95.74551391601562 C 22.8076171875 88.57960510253906 19.698347091674805 95.25509643554688 17.60907554626465 112.00322723388672 C 6.5863447189331055 110.67704010009766 5.551269054412842 105.29049682617188 6.098721027374268 92.37349700927734 C 5.699881553649902 77.48567199707031 4.601391315460205 69.51589965820312 40.67829895019531 64.03064727783203 C 35.19704055786133 68.05706024169922 22.63976287841797 84.7326889038086 20.873878479003906 95.74551391601562" stroke-width="0.0" fill="rgb(255, 243, 224)" opacity="0.99422365" stroke="rgb(179, 154, 164)" stroke-opacity="0.6874184" stroke-linecap="round" stroke-linejoin="round"/>
  </g>
</svg>
