<?xml version="1.0" ?>
<svg xmlns="http://www.w3.org/2000/svg" version="1.1" width="512" height="384">
  <defs/>
  <g>
    <path d="M 194.45530700683594 332.41094970703125 C 184.94186401367188 384.94512939453125 183.56387329101562 382.1885070800781 129.63082885742188 386.0096435546875 C 84.11166381835938 386.24359130859375 81.63227844238281 388.89605712890625 44.07575225830078 375.4952392578125 C 33.85768508911133 265.37384033203125 39.42709732055664 261.2340393066406 58.0850715637207 251.84317016601562 C 185.31813049316406 254.0322723388672 189.9114532470703 264.7394104003906 194.45530700683594 332.41094970703125" stroke-width="0.0" fill="rgb(34, 177, 108)" opacity="0.35777768" stroke="rgb(174, 55, 90)" stroke-opacity="0.32693404" stroke-linecap="round" stroke-linejoin="round"/>
    <path d="M 261.86962890625 95.6850814819336 C 261.4385986328125 128.00926208496094 265.84954833984375 151.00698852539062 235.19534301757812 154.4466094970703 C 203.8531951904297 150.48089599609375 203.65855407714844 116.94483184814453 208.03106689453125 80.66764831542969 C 227.71334838867188 82.26307678222656 224.7938232421875 79.71678924560547 246.3087615966797 81.24561309814453 C 258.5220031738281 89.91022491455078 254.60369873046875 95.66909790039062 261.86962890625 95.6850814819336" stroke-width="0.0" fill="rgb(255, 248, 237)" opacity="0.9215469" stroke="rgb(21, 153, 155)" stroke-opacity="0.95672476" stroke-linecap="round" stroke-linejoin="round"/>
    <path d="M 478.9035339355469 84.57211303710938 C 475.4432373046875 120.82477569580078 459.0386657714844 103.93753051757812 429.83245849609375 108.83479309082031 C 379.03643798828125 107.93036651611328 370.9200744628906 114.99042510986328 376.9137268066406 74.58918762207031 C 395.406494140625 65.01866912841797 414.083984375 87.67816925048828 433.74017333984375 52.517181396484375 C 454.84722900390625 42.32175827026367 478.1717224121094 43.70655822753906 478.9035339355469 84.57211303710938" stroke-width="0.0" fill="rgb(255, 255, 254)" opacity="0.8939651" stroke="rgb(148, 52, 227)" stroke-opacity="0.7890103" stroke-linecap="round" stroke-linejoin="round"/>
    <path d="M 511.5469665527344 274.84326171875 C 521.4278564453125 354.3543701171875 520.5503540039062 358.8130798339844 508.04351806640625 405.61712646484375 C 413.7649230957031 392.8111267089844 439.66827392578125 353.297607421875 388.7087707519531 323.2410888671875 C 380.42413330078125 271.47186279296875 326.9224853515625 293.9544372558594 376.9352111816406 212.17129516601562 C 432.744140625 111.41527557373047 427.7933654785156 128.35655212402344 511.5469665527344 274.84326171875" stroke-width="0.0" fill="rgb(20, 62, 98)" opacity="0.62814546" stroke="rgb(173, 128, 75)" stroke-opacity="0.7306282" stroke-linecap="round" stroke-linejoin="round"/>
    <path d="M 421.3066711425781 334.34320068359375 C 462.4899597167969 400.19195556640625 457.85137939453125 402.93121337890625 315.8006591796875 399.6496276855469 C 218.3678741455078 413.15338134765625 181.31744384765625 475.8255615234375 161.12306213378906 261.4167175292969 C 194.962646484375 194.1294403076172 318.18841552734375 312.553955078125 339.8558654785156 205.64871215820312 C 441.2169494628906 228.81497192382812 409.4392395019531 260.0465087890625 421.3066711425781 334.34320068359375" stroke-width="0.0" fill="rgb(132, 176, 148)" opacity="0.64868313" stroke="rgb(26, 3, 175)" stroke-opacity="0.05890515" stroke-linecap="round" stroke-linejoin="round"/>
    <path d="M 217.23385620117188 105.80461120605469 C 114.38507843017578 105.74695587158203 61.87642288208008 115.45759582519531 97.40827941894531 188.30422973632812 C 112.14177703857422 261.1699523925781 30.91065788269043 260.6111755371094 -14.523365020751953 244.77577209472656 C -18.580976486206055 30.74292755126953 -18.47357749938965 22.323200225830078 4.302251815795898 -10.638777732849121 C 217.18373107910156 -16.264530181884766 231.51657104492188 -28.0146427154541 217.23385620117188 105.80461120605469" stroke-width="0.0" fill="rgb(255, 230, 184)" opacity="0.33838135" stroke="rgb(92, 146, 199)" stroke-opacity="0.9990771" stroke-linecap="round" stroke-linejoin="round"/>
    <path d="M 74.53409576416016 349.3134460449219 C 137.4473114013672 412.15240478515625 119.00272369384766 430.19818115234375 62.794830322265625 361.0622863769531 C 44.466163635253906 259.6191711425781 67.38731384277344 308.4388122558594 38.24729537963867 316.8729553222656 C 52.922122955322266 314.2943420410156 73.05371856689453 285.5610046386719 13.54399585723877 251.5524444580078 C 58.926204681396484 248.73719787597656 75.37019348144531 281.2866516113281 74.53409576416016 349.3134460449219" stroke-width="0.0" fill="rgb(0, 84, 155)" opacity="0.9542592" stroke="rgb(178, 112, 109)" stroke-opacity="0.4463792" stroke-linecap="round" stroke-linejoin="round"/>
  </g>
</svg>
