<?xml version="1.0" ?>
<svg xmlns="http://www.w3.org/2000/svg" version="1.1" width="512" height="384">
  <defs/>
  <g>
    <path d="M 198.7222137451172 317.14447021484375 C 196.22418212890625 397.9129943847656 197.66824340820312 392.3346252441406 144.89816284179688 387.84326171875 C 83.99493408203125 386.5086669921875 81.07865142822266 391.0179748535156 34.99153518676758 381.3051452636719 C 15.839326858520508 254.82920837402344 14.542652130126953 246.28855895996094 38.23075866699219 251.95994567871094 C 205.97830200195312 250.700927734375 198.50384521484375 239.2523193359375 198.7222137451172 317.14447021484375" stroke-width="0.0" fill="rgb(41, 170, 87)" opacity="0.41882712" stroke="rgb(174, 55, 90)" stroke-opacity="0.32693404" stroke-linecap="round" stroke-linejoin="round"/>
    <path d="M 261.86962890625 95.6850814819336 C 261.4385986328125 128.00926208496094 265.84954833984375 151.00698852539062 234.73556518554688 154.50088500976562 C 203.590087890625 151.40081787109375 204.1853790283203 118.59181213378906 207.41348266601562 80.89157104492188 C 227.68751525878906 81.85441589355469 224.10386657714844 79.78590393066406 246.11648559570312 82.35873413085938 C 258.5220031738281 89.91022491455078 254.60369873046875 95.66909790039062 261.86962890625 95.6850814819336" stroke-width="0.0" fill="rgb(255, 246, 233)" opacity="0.9127818" stroke="rgb(21, 153, 155)" stroke-opacity="0.95672476" stroke-linecap="round" stroke-linejoin="round"/>
    <path d="M 478.9286193847656 83.79771423339844 C 476.2134704589844 119.42941284179688 461.3708801269531 105.2430191040039 429.773681640625 108.7602310180664 C 377.7099609375 107.77439880371094 370.6078796386719 115.05804443359375 376.7019958496094 75.3373794555664 C 402.7190856933594 64.71015167236328 411.8135681152344 87.212890625 434.30670166015625 52.35966491699219 C 454.8078308105469 42.289310455322266 478.1717224121094 43.7061767578125 478.9286193847656 83.79771423339844" stroke-width="0.0" fill="rgb(255, 255, 255)" opacity="0.7748483" stroke="rgb(148, 52, 227)" stroke-opacity="0.7890103" stroke-linecap="round" stroke-linejoin="round"/>
    <path d="M 511.4966735839844 273.3688659667969 C 521.3009643554688 354.5140686035156 520.5484008789062 358.81427001953125 508.011962890625 405.7026062011719 C 414.6559143066406 392.8076171875 440.5716552734375 353.0284729003906 388.6695861816406 322.784423828125 C 379.121826171875 269.4013977050781 320.4676208496094 288.0480651855469 378.9983215332031 212.71978759765625 C 431.7505798339844 101.8749008178711 428.6922302246094 135.5946502685547 511.4966735839844 273.3688659667969" stroke-width="0.0" fill="rgb(6, 55, 95)" opacity="0.5430372" stroke="rgb(173, 128, 75)" stroke-opacity="0.7306282" stroke-linecap="round" stroke-linejoin="round"/>
    <path d="M 423.1749572753906 331.50128173828125 C 467.5639343261719 399.6051330566406 462.67864990234375 402.8548278808594 317.60174560546875 399.6773986816406 C 220.94944763183594 413.2512512207031 193.43934631347656 472.4314880371094 182.1143035888672 263.88372802734375 C 191.80738830566406 190.78050231933594 300.7873229980469 308.73187255859375 359.9268798828125 214.8343048095703 C 445.4669494628906 227.59535217285156 412.9022216796875 259.09814453125 423.1749572753906 331.50128173828125" stroke-width="0.0" fill="rgb(119, 161, 149)" opacity="0.8177181" stroke="rgb(26, 3, 175)" stroke-opacity="0.05890515" stroke-linecap="round" stroke-linejoin="round"/>
    <path d="M 208.44976806640625 73.88557434082031 C 128.6000518798828 115.44569396972656 97.89077758789062 143.09934997558594 96.38394165039062 169.6165771484375 C 70.6851577758789 245.1240997314453 9.354085922241211 257.94439697265625 -15.00100326538086 260.0623474121094 C -18.580976486206055 30.74292755126953 -18.47357749938965 22.323200225830078 1.3793466091156006 -10.530369758605957 C 196.7211456298828 -14.305441856384277 213.38800048828125 -17.22220802307129 208.44976806640625 73.88557434082031" stroke-width="0.0" fill="rgb(255, 237, 158)" opacity="0.09704501" stroke="rgb(92, 146, 199)" stroke-opacity="0.9990771" stroke-linecap="round" stroke-linejoin="round"/>
    <path d="M 76.60267639160156 351.38531494140625 C 151.17657470703125 427.5584411621094 118.68399047851562 430.00335693359375 63.21912384033203 361.5873107910156 C 43.47066116333008 264.4948425292969 70.30809783935547 297.4684753417969 36.159584045410156 332.7245788574219 C 54.383323669433594 312.82757568359375 72.49147033691406 285.2052001953125 13.214010238647461 251.08445739746094 C 79.58387756347656 254.43414306640625 69.10868072509766 304.9649658203125 76.60267639160156 351.38531494140625" stroke-width="0.0" fill="rgb(0, 84, 155)" opacity="0.96439207" stroke="rgb(178, 112, 109)" stroke-opacity="0.4463792" stroke-linecap="round" stroke-linejoin="round"/>
    <path d="M 267.78204345703125 265.66387939453125 C 268.468017578125 265.4640197753906 268.5619201660156 265.44378662109375 253.76837158203125 265.43707275390625 C 249.15660095214844 265.2229309082031 249.39756774902344 267.6273498535156 251.8190460205078 257.280029296875 C 257.594482421875 233.79042053222656 258.37139892578125 230.12930297851562 258.82818603515625 229.50970458984375 C 260.1773986816406 235.19740295410156 262.9400329589844 246.3602294921875 267.78204345703125 265.66387939453125" stroke-width="0.0" fill="rgb(23, 91, 28)" opacity="0.9812559" stroke="rgb(11, 245, 87)" stroke-opacity="0.36675048" stroke-linecap="round" stroke-linejoin="round"/>
    <path d="M 432.9597473144531 136.5110321044922 C 509.8729553222656 270.8431091308594 498.0118713378906 254.15155029296875 497.73382568359375 251.5149383544922 C 323.1634216308594 250.9117889404297 317.5589294433594 254.36624145507812 317.9888000488281 251.00596618652344 C 333.26177978515625 223.95997619628906 339.97711181640625 213.30589294433594 338.43328857421875 214.81163024902344 C 406.407470703125 212.98489379882812 346.30078125 229.2451934814453 432.9597473144531 136.5110321044922" stroke-width="0.0" fill="rgb(82, 108, 120)" opacity="0.96781605" stroke="rgb(225, 0, 136)" stroke-opacity="0.6593078" stroke-linecap="round" stroke-linejoin="round"/>
    <path d="M 191.2381591796875 271.7269287109375 C 191.38331604003906 280.7028503417969 191.07171630859375 274.1200256347656 190.87936401367188 269.7545471191406 C 171.06942749023438 270.713623046875 174.15939331054688 270.3948669433594 172.9693603515625 269.3726806640625 C 177.9828338623047 249.4171142578125 182.30435180664062 232.0150909423828 181.8430938720703 233.60791015625 C 183.89437866210938 242.7426300048828 186.72801208496094 252.69984436035156 191.2381591796875 271.7269287109375" stroke-width="0.0" fill="rgb(25, 92, 30)" opacity="0.9851676" stroke="rgb(191, 230, 91)" stroke-opacity="0.9555391" stroke-linecap="round" stroke-linejoin="round"/>
    <path d="M 285.147705078125 288.8505554199219 C 287.547607421875 302.0668029785156 285.01336669921875 295.0621337890625 286.0643615722656 292.6241760253906 C 264.1325988769531 292.18621826171875 267.6332092285156 293.9278564453125 268.6434631347656 288.9718933105469 C 271.72149658203125 274.0235900878906 274.18560791015625 268.2744140625 276.5931701660156 257.08935546875 C 277.01702880859375 255.337646484375 279.481201171875 268.8897399902344 285.147705078125 288.8505554199219" stroke-width="0.0" fill="rgb(22, 90, 27)" opacity="0.97270584" stroke="rgb(92, 79, 90)" stroke-opacity="0.3968215" stroke-linecap="round" stroke-linejoin="round"/>
    <path d="M 253.44480895996094 302.1227111816406 C 255.97293090820312 312.5943908691406 255.91986083984375 307.97650146484375 254.21121215820312 306.18304443359375 C 231.63787841796875 305.4855041503906 236.32850646972656 308.6627502441406 237.34364318847656 300.16162109375 C 241.7716522216797 282.3079833984375 244.25755310058594 272.5001525878906 245.7099151611328 269.58831787109375 C 244.55322265625 270.1283264160156 248.81495666503906 282.9374084472656 253.44480895996094 302.1227111816406" stroke-width="0.0" fill="rgb(25, 92, 30)" opacity="0.98007613" stroke="rgb(98, 221, 60)" stroke-opacity="0.094111554" stroke-linecap="round" stroke-linejoin="round"/>
    <path d="M 226.75437927246094 295.39752197265625 C 227.64779663085938 299.9256896972656 225.967529296875 295.69647216796875 226.96095275878906 297.25274658203125 C 201.14401245117188 297.4435119628906 202.49925231933594 297.0379638671875 208.92308044433594 296.7293701171875 C 214.73532104492188 276.0267028808594 216.07843017578125 264.31695556640625 218.20318603515625 261.27581787109375 C 218.900634765625 265.3739929199219 222.5797882080078 277.2292175292969 226.75437927246094 295.39752197265625" stroke-width="0.0" fill="rgb(25, 92, 30)" opacity="0.98179215" stroke="rgb(36, 18, 242)" stroke-opacity="0.28420427" stroke-linecap="round" stroke-linejoin="round"/>
    <path d="M 200.56536865234375 308.7891845703125 C 197.6433563232422 305.34246826171875 205.98117065429688 306.3291320800781 185.97817993164062 306.1606750488281 C 181.1375274658203 306.9331970214844 183.07040405273438 306.0777282714844 181.83526611328125 305.84210205078125 C 183.64939880371094 298.1579284667969 185.77365112304688 291.5743713378906 190.90611267089844 269.4336853027344 C 191.70265197753906 272.2149658203125 194.9172821044922 285.4445495605469 200.56536865234375 308.7891845703125" stroke-width="0.0" fill="rgb(24, 91, 29)" opacity="0.9741504" stroke="rgb(95, 10, 183)" stroke-opacity="0.7872578" stroke-linecap="round" stroke-linejoin="round"/>
    <path d="M 230.54417419433594 241.74087524414062 C 227.35733032226562 256.2986755371094 227.044677734375 251.24490356445312 227.69342041015625 252.4442901611328 C 206.60964965820312 250.84408569335938 213.53993225097656 257.6927185058594 207.9680938720703 238.82659912109375 C 198.14430236816406 220.70697021484375 206.43228149414062 225.68417358398438 217.19407653808594 237.9000701904297 C 227.27662658691406 241.1773681640625 233.63682556152344 236.04042053222656 230.54417419433594 241.74087524414062" stroke-width="0.0" fill="rgb(255, 246, 226)" opacity="0.94227135" stroke="rgb(111, 163, 239)" stroke-opacity="0.22749305" stroke-linecap="round" stroke-linejoin="round"/>
    <path d="M 203.61622619628906 111.26908874511719 C 66.79354095458984 43.224578857421875 88.72212982177734 52.05131912231445 102.5437240600586 52.79395294189453 C 36.14937973022461 43.86703872680664 64.18444061279297 66.14750671386719 3.8466293811798096 174.55657958984375 C -17.81728172302246 -6.898714542388916 -9.419646263122559 -10.391453742980957 27.68084716796875 -13.406651496887207 C 189.07861328125 -24.44740104675293 214.6407470703125 -56.01524353027344 203.61622619628906 111.26908874511719" stroke-width="0.0" fill="rgb(255, 247, 255)" opacity="0.08313673" stroke="rgb(32, 125, 36)" stroke-opacity="0.81341887" stroke-linecap="round" stroke-linejoin="round"/>
    <path d="M 40.153289794921875 356.28955078125 C 50.597591400146484 382.18426513671875 71.854248046875 393.7156677246094 35.007503509521484 394.4042663574219 C -24.458715438842773 393.0763244628906 -13.337198257446289 375.5865478515625 -8.904892921447754 344.56085205078125 C -4.76172399520874 301.3939514160156 -9.372419357299805 292.0876770019531 19.0286922454834 283.3238220214844 C 39.42275619506836 297.0194091796875 37.78297424316406 305.2599792480469 40.153289794921875 356.28955078125" stroke-width="0.0" fill="rgb(166, 216, 166)" opacity="0.47393236" stroke="rgb(161, 181, 119)" stroke-opacity="0.10542205" stroke-linecap="round" stroke-linejoin="round"/>
    <path d="M 140.7635498046875 151.35354614257812 C 126.62017059326172 167.3303985595703 116.18368530273438 175.7927703857422 95.74652862548828 179.6829376220703 C 77.76025390625 184.0510711669922 3.4604132175445557 179.65087890625 14.84011173248291 66.1405258178711 C 55.235198974609375 23.25286102294922 130.4933319091797 23.577096939086914 143.73739624023438 99.23058319091797 C 137.2859344482422 125.86935424804688 137.99649047851562 130.96405029296875 140.7635498046875 151.35354614257812" stroke-width="0.0" fill="rgb(250, 172, 60)" opacity="0.57464135" stroke="rgb(132, 40, 242)" stroke-opacity="0.08848768" stroke-linecap="round" stroke-linejoin="round"/>
    <path d="M 133.41102600097656 265.953369140625 C 128.43960571289062 271.97955322265625 186.47817993164062 316.15472412109375 202.4103240966797 350.66107177734375 C 120.09169006347656 266.6476135253906 124.1986083984375 267.20684814453125 123.50598907470703 271.4139709472656 C 125.1265640258789 268.1105651855469 124.51811981201172 234.93414306640625 125.52519989013672 209.20706176757812 C 133.10687255859375 209.37710571289062 132.18125915527344 212.77789306640625 133.41102600097656 265.953369140625" stroke-width="0.0" fill="rgb(109, 133, 146)" opacity="1.0" stroke="rgb(84, 77, 254)" stroke-opacity="0.843105" stroke-linecap="round" stroke-linejoin="round"/>
    <path d="M 131.86502075195312 182.23248291015625 C 130.8381805419922 170.9521484375 132.37339782714844 181.70843505859375 132.52639770507812 238.39352416992188 C 122.72013854980469 237.48655700683594 125.7735366821289 234.62612915039062 125.69554138183594 186.81063842773438 C 126.70756530761719 149.60986328125 125.32508850097656 146.55250549316406 131.4788055419922 145.94329833984375 C 131.06045532226562 173.24267578125 131.73451232910156 184.5408935546875 131.86502075195312 182.23248291015625" stroke-width="0.0" fill="rgb(75, 104, 117)" opacity="0.94078106" stroke="rgb(147, 24, 39)" stroke-opacity="0.73570454" stroke-linecap="round" stroke-linejoin="round"/>
    <path d="M 239.8187255859375 271.494873046875 C 241.7732391357422 282.1172790527344 242.44085693359375 277.224609375 240.1204376220703 274.52435302734375 C 218.8573455810547 273.9060974121094 222.03514099121094 276.482177734375 223.4699249267578 270.51470947265625 C 228.48439025878906 251.5355224609375 231.30296325683594 239.62548828125 231.5734100341797 238.0751495361328 C 233.59800720214844 246.84263610839844 235.84014892578125 255.81979370117188 239.8187255859375 271.494873046875" stroke-width="0.0" fill="rgb(20, 89, 24)" opacity="0.95766217" stroke="rgb(55, 190, 158)" stroke-opacity="0.19434676" stroke-linecap="round" stroke-linejoin="round"/>
    <path d="M 445.2391052246094 157.76528930664062 C 447.7091064453125 156.51063537597656 440.63275146484375 156.9520263671875 419.5232238769531 156.7940216064453 C 406.5582275390625 157.3610076904297 409.6376953125 154.66749572753906 405.79473876953125 162.6071319580078 C 416.6812744140625 142.90980529785156 423.66070556640625 133.3499298095703 426.7898864746094 125.43761444091797 C 433.1390380859375 136.83741760253906 436.5126037597656 143.0436248779297 445.2391052246094 157.76528930664062" stroke-width="0.0" fill="rgb(202, 210, 214)" opacity="0.9640699" stroke="rgb(62, 234, 133)" stroke-opacity="0.14224795" stroke-linecap="round" stroke-linejoin="round"/>
    <path d="M 15.708703994750977 314.4744873046875 C 12.675838470458984 329.1668701171875 9.177379608154297 331.2347717285156 -4.192802906036377 341.11224365234375 C -13.9325590133667 335.1875305175781 -13.166316032409668 331.0412902832031 -15.6474609375 294.1990661621094 C -40.640052795410156 268.7652587890625 -56.20795440673828 250.9160919189453 13.427203178405762 251.68634033203125 C 41.9112548828125 265.0812683105469 30.853147506713867 279.2655029296875 15.708703994750977 314.4744873046875" stroke-width="0.0" fill="rgb(166, 213, 166)" opacity="0.9838227" stroke="rgb(158, 107, 216)" stroke-opacity="0.6266007" stroke-linecap="round" stroke-linejoin="round"/>
    <path d="M 212.36529541015625 256.7373352050781 C 213.9400177001953 262.3475036621094 214.43336486816406 260.42242431640625 205.7024688720703 260.8367004394531 C 190.46688842773438 259.6184997558594 195.8953399658203 265.45306396484375 198.40599060058594 247.7933349609375 C 198.629638671875 246.2874755859375 201.69656372070312 236.58148193359375 204.53106689453125 224.69044494628906 C 207.44017028808594 236.06887817382812 209.16897583007812 244.25259399414062 212.36529541015625 256.7373352050781" stroke-width="0.0" fill="rgb(26, 93, 31)" opacity="0.99912745" stroke="rgb(131, 211, 224)" stroke-opacity="0.8670483" stroke-linecap="round" stroke-linejoin="round"/>
    <path d="M 254.9122314453125 243.18753051757812 C 252.03253173828125 255.03631591796875 255.8055419921875 251.6415252685547 241.77088928222656 252.25303649902344 C 233.82125854492188 251.40672302246094 236.2938232421875 255.20245361328125 233.0279541015625 243.66758728027344 C 233.3514862060547 240.1828155517578 227.90928649902344 241.32232666015625 248.50685119628906 241.03607177734375 C 246.50393676757812 240.2678680419922 249.73388671875 243.67263793945312 254.9122314453125 243.18753051757812" stroke-width="0.0" fill="rgb(255, 247, 226)" opacity="0.92167825" stroke="rgb(171, 17, 115)" stroke-opacity="0.8819992" stroke-linecap="round" stroke-linejoin="round"/>
    <path d="M 198.63409423828125 248.25146484375 C 197.70375061035156 253.70089721679688 197.14300537109375 252.68902587890625 194.98606872558594 252.26565551757812 C 184.8225555419922 251.9942626953125 187.44102478027344 253.93170166015625 185.4043426513672 247.65805053710938 C 189.8134765625 243.88047790527344 190.80526733398438 240.9932861328125 201.2658233642578 236.54571533203125 C 203.97044372558594 227.81765747070312 203.22543334960938 228.64315795898438 198.63409423828125 248.25146484375" stroke-width="0.0" fill="rgb(255, 251, 230)" opacity="0.88297856" stroke="rgb(201, 5, 200)" stroke-opacity="0.5542154" stroke-linecap="round" stroke-linejoin="round"/>
    <path d="M 518.432373046875 261.69683837890625 C 518.2047119140625 267.20648193359375 516.083984375 274.24029541015625 512.15234375 280.9740905761719 C 490.1490478515625 281.38446044921875 493.68719482421875 277.8935241699219 480.0914001464844 268.9638366699219 C 481.9236145019531 249.24696350097656 485.8236389160156 253.4498748779297 517.307861328125 252.07504272460938 C 518.408935546875 249.1877899169922 520.1699829101562 248.46751403808594 518.432373046875 261.69683837890625" stroke-width="0.0" fill="rgb(117, 149, 152)" opacity="0.745622" stroke="rgb(71, 221, 54)" stroke-opacity="0.029642632" stroke-linecap="round" stroke-linejoin="round"/>
    <path d="M 150.81509399414062 122.47895050048828 C 141.98367309570312 169.11929321289062 126.77803039550781 129.22315979003906 170.93206787109375 183.60360717773438 C 122.33525085449219 139.8581085205078 125.75637817382812 160.26434326171875 138.41050720214844 99.624755859375 C 125.94708251953125 95.69359588623047 110.27803802490234 94.89263153076172 118.39818572998047 55.551727294921875 C 151.9886474609375 79.86627960205078 151.84214782714844 108.35057067871094 150.81509399414062 122.47895050048828" stroke-width="0.0" fill="rgb(199, 172, 123)" opacity="0.9662162" stroke="rgb(250, 187, 110)" stroke-opacity="0.4477895" stroke-linecap="round" stroke-linejoin="round"/>
    <path d="M 228.77015686035156 379.3652648925781 C 244.62890625 395.3995361328125 235.5158233642578 392.70477294921875 194.36672973632812 391.59930419921875 C 188.45790100097656 387.5948181152344 183.50567626953125 385.0383605957031 190.05201721191406 399.5557556152344 C 187.5803680419922 360.681640625 190.88876342773438 349.1786804199219 187.13526916503906 335.1724548339844 C 182.82516479492188 330.54937744140625 200.97125244140625 350.4950256347656 228.77015686035156 379.3652648925781" stroke-width="0.0" fill="rgb(165, 214, 167)" opacity="0.9852286" stroke="rgb(26, 75, 66)" stroke-opacity="0.6758255" stroke-linecap="round" stroke-linejoin="round"/>
    <path d="M 515.0615234375 372.3581848144531 C 522.9437255859375 384.0301513671875 525.4929809570312 390.0433349609375 510.77301025390625 394.74774169921875 C 510.41949462890625 367.4622497558594 510.2694091796875 363.0279235839844 510.644775390625 380.78814697265625 C 510.8072509765625 386.97894287109375 510.67608642578125 379.75897216796875 511.5401306152344 294.4190979003906 C 543.9570922851562 334.6612548828125 524.7354125976562 354.52069091796875 515.0615234375 372.3581848144531" stroke-width="0.0" fill="rgb(193, 255, 176)" opacity="0.5570668" stroke="rgb(167, 173, 69)" stroke-opacity="0.121573105" stroke-linecap="round" stroke-linejoin="round"/>
    <path d="M 162.89102172851562 251.7190704345703 C 146.00770568847656 253.27227783203125 141.4407196044922 253.9686737060547 159.58721923828125 252.13101196289062 C 137.32040405273438 252.16981506347656 131.50192260742188 252.11297607421875 133.06405639648438 252.1219940185547 C 133.52957153320312 244.74649047851562 133.40447998046875 245.7555389404297 133.17672729492188 247.62777709960938 C 134.64869689941406 249.49398803710938 145.6803436279297 245.45355224609375 162.89102172851562 251.7190704345703" stroke-width="0.0" fill="rgb(255, 252, 235)" opacity="0.4752828" stroke="rgb(126, 252, 173)" stroke-opacity="0.11483802" stroke-linecap="round" stroke-linejoin="round"/>
  </g>
</svg>
