<?xml version="1.0" ?>
<svg xmlns="http://www.w3.org/2000/svg" version="1.1" width="512" height="384">
  <defs/>
  <g>
    <path d="M 187.45179748535156 324.26959228515625 C 173.63169860839844 371.9887390136719 173.1646728515625 376.0693664550781 127.04905700683594 382.617919921875 C 89.59651947021484 375.68328857421875 89.08348846435547 370.5329895019531 73.52696990966797 359.06787109375 C 77.52554321289062 288.83258056640625 80.40677642822266 284.4342956542969 100.83267974853516 260.76824951171875 C 178.2490692138672 263.00244140625 183.64585876464844 274.7408447265625 187.45179748535156 324.26959228515625" stroke-width="0.0" fill="rgb(30, 153, 67)" opacity="0.4175512" stroke="rgb(174, 55, 90)" stroke-opacity="0.32693404" stroke-linecap="round" stroke-linejoin="round"/>
    <path d="M 246.5299530029297 101.54801177978516 C 246.42279052734375 118.59516143798828 248.25169372558594 134.73060607910156 235.03126525878906 139.16494750976562 C 220.12503051757812 133.53163146972656 218.30975341796875 108.06525421142578 224.73580932617188 106.1836929321289 C 235.4256591796875 108.22583770751953 233.4845733642578 94.85061645507812 237.9990692138672 94.04570007324219 C 245.4891815185547 103.4552230834961 243.5845184326172 101.03345489501953 246.5299530029297 101.54801177978516" stroke-width="0.0" fill="rgb(251, 238, 219)" opacity="0.10006113" stroke="rgb(21, 153, 155)" stroke-opacity="0.95672476" stroke-linecap="round" stroke-linejoin="round"/>
    <path d="M 463.1238098144531 84.29066467285156 C 459.2225036621094 115.62339782714844 448.049072265625 107.1413803100586 423.39703369140625 108.50161743164062 C 399.1253967285156 110.32969665527344 392.01904296875 113.74002075195312 390.4296569824219 79.80423736572266 C 397.5191345214844 63.39775848388672 416.21466064453125 81.8125991821289 423.7010803222656 64.58196258544922 C 450.3023986816406 58.103946685791016 462.4900207519531 57.92728042602539 463.1238098144531 84.29066467285156" stroke-width="0.0" fill="rgb(254, 255, 255)" opacity="0.25692782" stroke="rgb(148, 52, 227)" stroke-opacity="0.7890103" stroke-linecap="round" stroke-linejoin="round"/>
  </g>
</svg>
