<?xml version="1.0" ?>
<svg xmlns="http://www.w3.org/2000/svg" version="1.1" width="512" height="512">
  <defs/>
  <g>
    <path d="M 0.0 0.0 L 512.0 0.0 L 512.0 512.0 L 0.0 512.0 L 0.0 0.0" stroke-width="0.0" fill="rgb(255, 255, 255)" opacity="1.0" stroke="rgb(0, 0, 0)" stroke-opacity="0.0" stroke-linecap="round" stroke-linejoin="round"/>
    <path d="M 281.0 8.0 C 242.3333282470703 -3.0133867263793945 203.6666717529297 -0.8606934547424316 165.0 31.0 C 114.40326690673828 87.68164825439453 122.37565612792969 148.655517578125 108.0 207.0 C 99.7974853515625 243.3333282470703 91.28585815429688 279.6666564941406 82.0 316.0 C 71.4239273071289 352.6666564941406 41.740535736083984 389.3333435058594 42.0 426.0 C 53.3888053894043 423.0765686035156 52.392765045166016 442.1239013671875 54.0 451.0 C 40.613677978515625 442.8879699707031 55.936988830566406 461.5235290527344 63.0 467.0 C 70.77960968017578 471.4779968261719 79.69609069824219 477.4476318359375 86.0 485.0 C 83.7821273803711 491.5751953125 79.0987777709961 497.6203308105469 74.0 503.0 C 70.28998565673828 506.155517578125 61.39143371582031 507.2193298339844 61.0 509.0 C 173.3333282470703 513.655517578125 285.6666564941406 509.67498779296875 398.0 511.0 C 397.3489990234375 492.3333435058594 401.07147216796875 473.6666564941406 390.0 455.0 C 372.4827575683594 434.9775390625 352.484375 422.3384094238281 336.0 409.0 C 331.1522521972656 406.2266845703125 337.5120849609375 396.8307189941406 333.0 404.0 C 328.98736572265625 401.3377380371094 325.1795654296875 398.5685729980469 325.0 392.0 C 321.6765441894531 390.1794128417969 323.9149169921875 399.93646240234375 319.0 394.0 C 319.80999755859375 389.40606689453125 317.84564208984375 378.8356628417969 325.0 379.0 L 326.0 353.0 C 324.0928039550781 347.7263488769531 324.1905212402344 357.2736511230469 321.0 352.0 C 318.0626220703125 324.6666564941406 318.0104064941406 297.3333435058594 316.0 270.0 C 320.9102478027344 264.2622985839844 317.2520446777344 256.1792907714844 318.0 249.0 C 323.4707946777344 240.6666717529297 326.2364196777344 232.3333282470703 333.0 224.0 C 362.03558349609375 228.62307739257812 384.9752502441406 188.1880340576172 385.0 165.0 C 386.675048828125 128.6666717529297 378.1106262207031 92.33333587646484 347.0 56.0 C 325.3333435058594 33.39669418334961 303.6666564941406 18.226518630981445 281.0 8.0" stroke-width="2.0" fill="rgb(86, 93, 80)" opacity="1.0" stroke="rgb(0, 0, 0)" stroke-opacity="0.0" stroke-linecap="round" stroke-linejoin="round"/>
    <path d="M 265.0 0.0 C 314.88201904296875 10.199832916259766 378.8153076171875 74.26451873779297 386.0 124.0 C 389.3798828125 155.72454833984375 393.9924011230469 189.9213409423828 361.0 220.0 C 352.0 225.6785430908203 343.0 228.21910095214844 334.0 229.0 C 316.9457702636719 251.0 325.9525451660156 273.0 327.0 295.0 C 332.44696044921875 332.0 349.2472229003906 369.0 340.0 406.0 C 357.7826232910156 424.3644714355469 393.0244445800781 442.4396667480469 400.0 468.0 C 401.484375 482.3333435058594 400.68902587890625 496.6666564941406 403.0 511.0 L 511.0 511.0 L 511.0 0.0 L 265.0 0.0" stroke-width="2.0" fill="rgb(239, 219, 204)" opacity="1.0" stroke="rgb(0, 0, 0)" stroke-opacity="0.0" stroke-linecap="round" stroke-linejoin="round"/>
    <path d="M 225.0 0.0 L 0.0 0.0 L 0.0 511.0 L 54.0 511.0 C 39.7650260925293 500.07281494140625 29.328712463378906 486.4159240722656 44.0 473.0 C 51.67936706542969 470.45013427734375 47.85349655151367 478.49871826171875 53.0 481.0 L 50.0 487.0 C 52.880821228027344 489.4922790527344 54.07947540283203 492.35760498046875 54.0 496.0 C 60.13821792602539 496.8665771484375 68.47679138183594 495.75341796875 73.0 496.0 C 74.60400390625 493.0 71.32282257080078 490.0 76.0 487.0 C 74.2339096069336 486.2553405761719 70.08926391601562 481.3909912109375 72.0 479.0 C 57.67127227783203 471.98675537109375 44.93383026123047 456.2981262207031 40.0 442.0 C 34.62749481201172 408.6666564941406 39.70454406738281 375.3333435058594 54.0 342.0 C 67.90184783935547 313.3333435058594 83.50241088867188 284.6666564941406 94.0 256.0 C 113.97191619873047 187.6666717529297 109.36027526855469 119.33333587646484 145.0 51.0 C 166.18177795410156 19.46334457397461 198.06483459472656 4.317610740661621 225.0 0.0" stroke-width="2.0" fill="rgb(215, 199, 186)" opacity="1.0" stroke="rgb(0, 0, 0)" stroke-opacity="0.0" stroke-linecap="round" stroke-linejoin="round"/>
    <path d="M 152.0 305.0 C 150.45538330078125 315.0 142.72239685058594 325.0 144.0 335.0 C 130.60186767578125 355.0185852050781 128.2472686767578 379.31951904296875 124.0 401.0 L 118.0 488.0 C 120.62852478027344 495.6666564941406 131.32859802246094 503.3333435058594 128.0 511.0 L 398.0 511.0 C 397.8643493652344 494.3333435058594 399.41436767578125 477.6666564941406 394.0 461.0 C 368.2765808105469 428.13665771484375 336.4561462402344 411.6969909667969 305.0 383.0 L 272.0 344.0 C 241.91058349609375 316.3109130859375 211.2652130126953 317.7119445800781 180.0 305.0 L 152.0 305.0" stroke-width="2.0" fill="rgb(121, 159, 120)" opacity="1.0" stroke="rgb(0, 0, 0)" stroke-opacity="0.0" stroke-linecap="round" stroke-linejoin="round"/>
    <path d="M 154.0 303.0 C 143.44129943847656 320.5912170410156 143.3360137939453 337.5903625488281 134.0 354.0 C 121.08295440673828 397.6666564941406 122.3492202758789 441.3333435058594 118.0 485.0 C 119.1390380859375 493.6666564941406 132.2800750732422 502.3333435058594 129.0 511.0 L 273.0 511.0 C 269.9768981933594 496.6666564941406 277.854736328125 482.3333435058594 277.0 468.0 L 271.0 432.0 C 276.0570373535156 427.649658203125 284.3150939941406 430.7861633300781 285.0 423.0 L 293.0 425.0 C 308.00225830078125 417.45196533203125 325.6636657714844 417.80316162109375 339.0 412.0 C 313.7768859863281 391.6757507324219 293.5622863769531 372.5961608886719 274.0 346.0 C 265.3333435058594 338.84027099609375 256.6666564941406 334.3169860839844 248.0 326.0 L 182.0 306.0 C 172.13525390625 304.1862487792969 163.93270874023438 304.98956298828125 154.0 303.0" stroke-width="2.0" fill="rgb(149, 201, 146)" opacity="1.0" stroke="rgb(0, 0, 0)" stroke-opacity="0.0" stroke-linecap="round" stroke-linejoin="round"/>
    <path d="M 170.0 327.0 C 162.3077392578125 334.15673828125 152.44862365722656 340.670166015625 147.0 350.0 C 120.722900390625 395.6666564941406 123.85938262939453 441.3333435058594 118.0 487.0 C 122.2302474975586 496.7898864746094 132.50360107421875 500.8266296386719 129.0 511.0 L 273.0 511.0 C 270.88165283203125 491.3333435058594 280.8238830566406 471.6666564941406 275.0 452.0 C 265.48046875 408.69317626953125 258.21600341796875 359.24560546875 211.0 328.0 C 204.6666717529297 324.7247619628906 198.3333282470703 325.496826171875 192.0 322.0 C 186.98635864257812 325.22314453125 177.6768798828125 326.5670471191406 170.0 327.0" stroke-width="2.0" fill="rgb(133, 201, 133)" opacity="1.0" stroke="rgb(0, 0, 0)" stroke-opacity="0.0" stroke-linecap="round" stroke-linejoin="round"/>
    <path d="M 354.0 108.0 L 350.0 105.0 C 313.3333435058594 129.734619140625 276.6666564941406 139.6595916748047 240.0 157.0 C 237.5583953857422 163.3333282470703 238.81207275390625 169.6666717529297 235.0 176.0 C 232.43942260742188 160.08663940429688 213.30975341796875 120.7813949584961 191.0 136.0 C 174.26925659179688 153.57752990722656 187.7718505859375 172.99266052246094 202.0 189.0 C 198.05564880371094 204.3333282470703 204.19859313964844 219.6666717529297 191.0 235.0 C 190.86199951171875 245.6666717529297 184.77203369140625 256.3333435058594 186.0 267.0 C 206.6666717529297 272.2942810058594 227.3333282470703 284.4821472167969 248.0 285.0 C 253.59323120117188 276.0 250.97232055664062 267.0 260.0 258.0 C 273.0 263.4827575683594 286.0 275.2254333496094 299.0 271.0 L 341.0 214.0 C 342.8428039550781 207.0 332.0967102050781 200.0 334.0 193.0 C 333.4537353515625 178.3333282470703 348.67779541015625 163.6666717529297 354.0 149.0 L 354.0 108.0" stroke-width="2.0" fill="rgb(227, 191, 181)" opacity="1.0" stroke="rgb(0, 0, 0)" stroke-opacity="0.0" stroke-linecap="round" stroke-linejoin="round"/>
    <path d="M 395.0 464.0 C 384.8907470703125 443.6181945800781 359.66632080078125 426.81658935546875 342.0 414.0 C 319.3333435058594 416.3638610839844 296.6666564941406 425.30902099609375 274.0 432.0 C 273.73681640625 452.6666564941406 284.7806091308594 473.3333435058594 274.0 494.0 L 275.0 511.0 L 398.0 511.0 C 397.99383544921875 495.6666564941406 398.57574462890625 480.3333435058594 395.0 464.0" stroke-width="2.0" fill="rgb(34, 34, 39)" opacity="1.0" stroke="rgb(0, 0, 0)" stroke-opacity="0.0" stroke-linecap="round" stroke-linejoin="round"/>
    <path d="M 260.0 259.0 C 252.54803466796875 268.3333435058594 254.74368286132812 277.6666564941406 249.0 287.0 C 265.3436279296875 296.0621337890625 245.3104248046875 312.71319580078125 251.0 325.0 C 257.4640808105469 333.9488830566406 271.3334045410156 338.8992614746094 281.0 351.0 C 290.50592041015625 362.3333435058594 296.5605163574219 373.6666564941406 309.0 385.0 C 314.5204162597656 391.2052917480469 320.53338623046875 391.0771484375 321.0 383.0 C 321.0030212402344 339.6666564941406 314.1361999511719 296.3333435058594 315.0 253.0 C 305.6183166503906 256.52166748046875 307.32061767578125 269.560791015625 297.0 273.0 C 285.0 275.1331481933594 273.0 265.17694091796875 260.0 259.0" stroke-width="2.0" fill="rgb(11, 12, 17)" opacity="1.0" stroke="rgb(0, 0, 0)" stroke-opacity="0.0" stroke-linecap="round" stroke-linejoin="round"/>
    <path d="M 204.0 196.0 C 196.04296875 204.0995330810547 204.06072998046875 215.35861206054688 198.0 225.0 C 185.95616149902344 239.3333282470703 188.49313354492188 253.6666717529297 185.0 268.0 C 205.6666717529297 272.3373107910156 226.3333282470703 283.0133361816406 247.0 287.0 L 249.0 280.0 C 241.2847900390625 266.0 239.03964233398438 252.0 233.0 238.0 C 226.40325927734375 225.0 216.94869995117188 212.0 212.0 199.0 C 209.34361267089844 196.48089599609375 206.2888641357422 194.18943786621094 204.0 196.0" stroke-width="2.0" fill="rgb(238, 209, 200)" opacity="1.0" stroke="rgb(0, 0, 0)" stroke-opacity="0.0" stroke-linecap="round" stroke-linejoin="round"/>
    <path d="M 168.0 268.0 C 168.65000915527344 279.0 161.83767700195312 290.0 160.0 301.0 C 189.3333282470703 303.4085998535156 218.6666717529297 318.4087219238281 248.0 323.0 C 246.5673370361328 312.3333435058594 255.6194305419922 301.6666564941406 254.0 291.0 C 225.6666717529297 284.3492736816406 197.3333282470703 269.7724304199219 168.0 268.0" stroke-width="2.0" fill="rgb(30, 30, 37)" opacity="1.0" stroke="rgb(0, 0, 0)" stroke-opacity="0.0" stroke-linecap="round" stroke-linejoin="round"/>
    <path d="M 194.0 134.0 C 172.31765747070312 152.81700134277344 188.234619140625 173.7928009033203 205.0 191.0 C 210.63031005859375 192.05215454101562 214.9490203857422 190.74652099609375 217.0 184.0 C 221.0 184.13555908203125 225.0 189.42942810058594 229.0 186.0 C 239.44224548339844 168.48939514160156 225.43421936035156 147.39834594726562 207.0 133.0 C 203.0 131.94573974609375 199.0 131.11888122558594 194.0 134.0" stroke-width="2.0" fill="rgb(230, 176, 165)" opacity="1.0" stroke="rgb(0, 0, 0)" stroke-opacity="0.0" stroke-linecap="round" stroke-linejoin="round"/>
    <path d="M 320.0 247.0 C 313.59466552734375 263.6666564941406 318.5721435546875 280.3333435058594 317.0 297.0 C 317.5988464355469 329.61395263671875 326.8988342285156 360.21160888671875 319.0 392.0 C 325.7459716796875 398.6419677734375 336.7744445800781 411.695068359375 339.0 398.0 C 342.34967041015625 348.3333435058594 319.7498474121094 298.6666564941406 320.0 247.0" stroke-width="2.0" fill="rgb(197, 185, 172)" opacity="1.0" stroke="rgb(0, 0, 0)" stroke-opacity="0.0" stroke-linecap="round" stroke-linejoin="round"/>
    <path d="M 127.0 504.0 C 116.78904724121094 493.7922058105469 113.41320037841797 473.61090087890625 99.0 481.0 C 100.37393188476562 490.5968933105469 90.5950698852539 489.8248291015625 85.0 487.0 C 82.78953552246094 498.088623046875 69.3693618774414 502.80316162109375 66.0 511.0 L 127.0 511.0 L 127.0 504.0" stroke-width="2.0" fill="rgb(10, 10, 13)" opacity="1.0" stroke="rgb(0, 0, 0)" stroke-opacity="0.0" stroke-linecap="round" stroke-linejoin="round"/>
    <path d="M 55.0 463.0 C 53.44524002075195 465.4093933105469 58.39645767211914 465.1736145019531 58.0 468.0 C 39.559226989746094 473.0003662109375 31.848773956298828 493.26995849609375 52.0 505.0 C 62.9367790222168 512.1078491210938 85.28978729248047 497.2209167480469 83.0 483.0 C 74.0 475.6946105957031 65.0 469.8767395019531 55.0 463.0" stroke-width="2.0" fill="rgb(215, 206, 196)" opacity="1.0" stroke="rgb(0, 0, 0)" stroke-opacity="0.0" stroke-linecap="round" stroke-linejoin="round"/>
    <path d="M 237.0 346.0 C 255.36636352539062 367.0 258.2408142089844 388.0 268.0 409.0 C 278.0099182128906 410.7351989746094 280.9372863769531 430.4881591796875 290.0 426.0 C 289.7239074707031 419.2540283203125 274.8489990234375 408.2255554199219 287.0 406.0 C 278.74102783203125 387.4018859863281 258.6950988769531 365.1864318847656 237.0 346.0" stroke-width="2.0" fill="rgb(46, 44, 46)" opacity="1.0" stroke="rgb(0, 0, 0)" stroke-opacity="0.0" stroke-linecap="round" stroke-linejoin="round"/>
    <path d="M 240.0 349.0 C 254.4517364501953 366.83782958984375 258.6246337890625 387.6432189941406 267.0 407.0 L 285.0 401.0 C 274.8945617675781 386.17498779296875 260.2159423828125 365.6826171875 240.0 349.0" stroke-width="2.0" fill="rgb(26, 25, 29)" opacity="1.0" stroke="rgb(0, 0, 0)" stroke-opacity="0.0" stroke-linecap="round" stroke-linejoin="round"/>
    <path d="M 169.0 418.0 C 160.08078002929688 449.0 148.86131286621094 480.0 143.0 511.0 L 153.0 511.0 L 169.0 418.0" stroke-width="2.0" fill="rgb(65, 129, 108)" opacity="1.0" stroke="rgb(0, 0, 0)" stroke-opacity="0.0" stroke-linecap="round" stroke-linejoin="round"/>
    <path d="M 273.0 106.0 C 275.8392028808594 111.02666473388672 286.873779296875 114.44158935546875 293.0 121.0 C 302.3333435058594 122.17171478271484 311.6666564941406 119.38478088378906 321.0 113.0 C 309.28973388671875 111.49543762207031 295.05902099609375 110.93106079101562 285.0 100.0 L 273.0 106.0" stroke-width="2.0" fill="rgb(72, 63, 65)" opacity="1.0" stroke="rgb(0, 0, 0)" stroke-opacity="0.0" stroke-linecap="round" stroke-linejoin="round"/>
    <path d="M 232.0 233.0 C 237.07740783691406 249.3333282470703 243.865478515625 265.6666564941406 249.0 282.0 L 258.0 256.0 L 232.0 233.0" stroke-width="2.0" fill="rgb(196, 132, 125)" opacity="1.0" stroke="rgb(0, 0, 0)" stroke-opacity="0.0" stroke-linecap="round" stroke-linejoin="round"/>
    <path d="M 278.0 158.0 C 280.97589111328125 165.0 288.3332214355469 172.0 294.0 179.0 C 300.59197998046875 178.67506408691406 303.0262145996094 162.1370849609375 309.0 170.0 C 314.7066955566406 165.14332580566406 308.9243469238281 157.5597381591797 303.0 157.0 C 295.0 155.98443603515625 287.0 160.86451721191406 278.0 158.0" stroke-width="2.0" fill="rgb(91, 75, 72)" opacity="1.0" stroke="rgb(0, 0, 0)" stroke-opacity="0.0" stroke-linecap="round" stroke-linejoin="round"/>
    <path d="M 8.0 217.0 L 9.0 224.0 C 19.0 224.8430938720703 29.0 224.98431396484375 39.0 222.0 L 38.0 216.0 L 8.0 217.0" stroke-width="2.0" fill="rgb(221, 203, 193)" opacity="1.0" stroke="rgb(0, 0, 0)" stroke-opacity="0.0" stroke-linecap="round" stroke-linejoin="round"/>
    <path d="M 121.0 456.0 C 119.3440170288086 470.3357849121094 111.25395202636719 487.3300476074219 127.0 500.0 C 130.59857177734375 485.3333435058594 118.52164459228516 470.6666564941406 121.0 456.0" stroke-width="2.0" fill="rgb(106, 145, 115)" opacity="1.0" stroke="rgb(0, 0, 0)" stroke-opacity="0.0" stroke-linecap="round" stroke-linejoin="round"/>
    <path d="M 49.0 48.0 L 48.0 63.0 C 52.66666793823242 66.72553253173828 57.33333206176758 62.9020881652832 62.0 64.0 C 65.34712982177734 58.66666793823242 61.73786163330078 53.33333206176758 63.0 48.0 L 49.0 48.0" stroke-width="2.0" fill="rgb(208, 191, 175)" opacity="1.0" stroke="rgb(0, 0, 0)" stroke-opacity="0.0" stroke-linecap="round" stroke-linejoin="round"/>
    <path d="M 210.0 152.0 C 193.9108123779297 155.97976684570312 198.8462371826172 171.44284057617188 213.0 176.0 C 209.6593780517578 168.3333282470703 212.76914978027344 160.6666717529297 210.0 152.0" stroke-width="2.0" fill="rgb(190, 102, 96)" opacity="1.0" stroke="rgb(0, 0, 0)" stroke-opacity="0.0" stroke-linecap="round" stroke-linejoin="round"/>
    <path d="M 287.0 139.0 C 303.3295593261719 139.4505615234375 315.3361511230469 148.41665649414062 330.0 148.0 C 317.99639892578125 137.4821014404297 301.66937255859375 135.607666015625 287.0 139.0" stroke-width="2.0" fill="rgb(136, 92, 83)" opacity="1.0" stroke="rgb(0, 0, 0)" stroke-opacity="0.0" stroke-linecap="round" stroke-linejoin="round"/>
    <path d="M 268.0 410.0 C 267.2235107421875 417.0 271.3554992675781 424.0 272.0 431.0 C 278.1424560546875 430.84527587890625 288.2679138183594 427.64276123046875 280.0 420.0 C 275.4361572265625 416.186279296875 273.7721862792969 411.42236328125 268.0 410.0" stroke-width="2.0" fill="rgb(237, 236, 222)" opacity="1.0" stroke="rgb(0, 0, 0)" stroke-opacity="0.0" stroke-linecap="round" stroke-linejoin="round"/>
    <path d="M 274.0 410.0 C 274.4696960449219 414.54052734375 287.4459533691406 433.13916015625 290.0 424.0 C 284.6988830566406 418.7113342285156 283.79534912109375 405.0521240234375 274.0 410.0" stroke-width="2.0" fill="rgb(39, 36, 39)" opacity="1.0" stroke="rgb(0, 0, 0)" stroke-opacity="0.0" stroke-linecap="round" stroke-linejoin="round"/>
    <path d="M 311.0 497.0 C 305.0 497.30084228515625 299.0 505.4178771972656 293.0 511.0 C 300.288330078125 514.0457153320312 310.0797424316406 506.7074279785156 311.0 497.0" stroke-width="2.0" fill="rgb(18, 18, 25)" opacity="1.0" stroke="rgb(0, 0, 0)" stroke-opacity="0.0" stroke-linecap="round" stroke-linejoin="round"/>
    <path d="M 77.0 502.0 C 77.40522766113281 503.45941162109375 82.86094665527344 502.9618225097656 81.0 507.0 C 79.1100845336914 511.52880859375 74.97325134277344 505.47119140625 76.0 510.0 C 85.92922973632812 511.51904296875 99.0073013305664 512.893310546875 90.0 505.0 C 88.81810760498047 507.7442321777344 86.46522521972656 510.15576171875 84.0 508.0 C 80.25782775878906 504.6666564941406 84.67196655273438 501.3333435058594 83.0 498.0 C 79.91893005371094 496.52984619140625 81.78106689453125 502.47015380859375 77.0 502.0" stroke-width="2.0" fill="rgb(18, 16, 19)" opacity="1.0" stroke="rgb(0, 0, 0)" stroke-opacity="0.0" stroke-linecap="round" stroke-linejoin="round"/>
    <path d="M 202.0 192.0 C 197.74546813964844 200.06951904296875 201.9700469970703 201.1024169921875 209.0 197.0 C 210.1623992919922 196.1623992919922 213.44017028808594 198.27349853515625 213.0 200.0 C 215.41989135742188 189.38763427734375 209.1289520263672 192.87625122070312 202.0 192.0" stroke-width="2.0" fill="rgb(152, 98, 100)" opacity="1.0" stroke="rgb(0, 0, 0)" stroke-opacity="0.0" stroke-linecap="round" stroke-linejoin="round"/>
  </g>
</svg>
