<?xml version="1.0" ?>
<svg xmlns="http://www.w3.org/2000/svg" version="1.1" width="512" height="512">
  <defs/>
  <g>
    <path d="M -0.099995456635952 -0.09999541193246841 L -0.09999542683362961 511.1000061035156 L 511.1000061035156 511.1000061035156 L 511.1000061035156 -0.09999541193246841 L -0.099995456635952 -0.09999541193246841" stroke-width="2.0" fill="rgb(260, 251, 228)" opacity="1.0" stroke="rgb(0, 0, 0)" stroke-opacity="0.0" stroke-linecap="round" stroke-linejoin="round"/>
    <path d="M 255.09007263183594 53.905128479003906 L 246.09982299804688 60.09982681274414 L 118.9006118774414 187.90061950683594 C 118.52552795410156 191.39527893066406 118.9966812133789 196.1074981689453 123.00555419921875 198.01995849609375 C 127.70499420166016 200.77821350097656 132.4088897705078 192.0492401123047 136.9165802001953 194.90748596191406 L 137.90005493164062 435.0999755859375 L 372.09991455078125 436.0999450683594 C 376.2921142578125 355.7542419433594 373.0886535644531 275.3026123046875 374.09979248046875 195.0944366455078 L 375.9306945800781 193.0978546142578 C 381.4931945800781 200.13526916503906 393.5980224609375 199.63461303710938 393.0997009277344 189.90040588378906 L 265.09991455078125 59.90009307861328 L 255.09007263183594 53.905128479003906" stroke-width="2.0" fill="rgb(236, 207, 96)" opacity="0.9000022" stroke="rgb(0, 0, 0)" stroke-opacity="0.0" stroke-linecap="round" stroke-linejoin="round"/>
    <path d="M 176.0997772216797 229.09996032714844 L 176.09976196289062 294.0977783203125 C 174.64236450195312 298.50518798828125 170.96559143066406 296.8082275390625 168.0989532470703 297.09771728515625 L 168.0983123779297 303.0999450683594 L 343.0989685058594 303.0999450683594 C 344.23907470703125 297.6087951660156 342.1985168457031 296.8077087402344 336.9018859863281 296.0992736816406 L 335.0998840332031 289.9048156738281 L 335.0998840332031 229.09996032714844 L 176.0997772216797 229.09996032714844" stroke-width="2.0" fill="rgb(97, 129, 176)" opacity="0.9000007" stroke="rgb(0, 0, 0)" stroke-opacity="0.0" stroke-linecap="round" stroke-linejoin="round"/>
    <path d="M 458.0977478027344 440.9099426269531 C 456.93194580078125 437.76531982421875 455.2857360839844 438.66015625 452.90533447265625 436.90008544921875 C 320.26068115234375 439.5308532714844 187.73863220214844 437.0305480957031 54.90239715576172 437.9000244140625 C 52.429691314697266 444.2588806152344 54.03628158569336 450.7153015136719 53.90166473388672 457.0999755859375 L 454.09906005859375 458.0999755859375 C 461.1054382324219 455.94915771484375 456.9978942871094 447.3358459472656 458.0977478027344 440.9099426269531" stroke-width="2.0" fill="rgb(113, 166, 65)" opacity="1.0999963" stroke="rgb(0, 0, 0)" stroke-opacity="0.0" stroke-linecap="round" stroke-linejoin="round"/>
    <path d="M 218.9000701904297 355.9002380371094 L 217.90016174316406 435.0999755859375 L 293.0999755859375 436.0999450683594 L 293.0999755859375 356.90008544921875 L 218.9000701904297 355.9002380371094" stroke-width="2.0" fill="rgb(76, 126, 125)" opacity="1.099921" stroke="rgb(0, 0, 0)" stroke-opacity="0.0" stroke-linecap="round" stroke-linejoin="round"/>
    <path d="M 117.90066528320312 188.9020538330078 C 115.53866577148438 196.2528839111328 125.15283966064453 202.29141235351562 131.09988403320312 197.0998992919922 L 254.099853515625 74.09986114501953 L 256.900390625 74.09962463378906 L 375.9002990722656 193.09974670410156 C 381.56866455078125 197.60707092285156 387.4258728027344 202.4788818359375 393.0995788574219 195.0995330810547 L 392.0999450683594 186.90003967285156 L 258.0999450683594 53.90005874633789 L 251.099853515625 55.0998420715332 L 117.90066528320312 188.9020538330078" stroke-width="2.0" fill="rgb(258, 88, 70)" opacity="1.0999831" stroke="rgb(0, 0, 0)" stroke-opacity="0.0" stroke-linecap="round" stroke-linejoin="round"/>
    <path d="M 399.09918212890625 350.0980224609375 L 389.90447998046875 361.0987548828125 C 389.55596923828125 374.94989013671875 391.1441955566406 388.91070556640625 387.90045166015625 402.9022216796875 C 383.31744384765625 406.0487365722656 386.6025085449219 398.6638488769531 385.0246887207031 397.0945129394531 L 375.9001159667969 398.0308837890625 L 375.9001159667969 416.0234069824219 C 380.5976257324219 417.12945556640625 385.2400207519531 413.8281555175781 389.9006652832031 418.0985412597656 L 389.9007873535156 436.0995788574219 C 396.909423828125 436.8177185058594 403.9515380859375 437.991455078125 411.099609375 435.0984802246094 L 411.905029296875 417.0995178222656 L 423.08514404296875 418.09881591796875 L 423.902099609375 436.0998840332031 L 444.0998229980469 436.0998840332031 L 444.099853515625 419.0991516113281 C 448.428466796875 414.5187683105469 452.7534484863281 419.0225830078125 457.09942626953125 416.0992736816406 C 458.5450744628906 409.678955078125 459.2948913574219 403.2444763183594 456.0987548828125 397.09686279296875 L 445.0997619628906 396.0995178222656 L 443.0997314453125 358.901123046875 C 438.0315856933594 354.828125 434.8171691894531 344.8534851074219 429.0997314453125 353.09954833984375 C 418.0535888671875 367.42840576171875 425.0599060058594 381.7242736816406 423.09832763671875 396.0995178222656 L 412.9049377441406 397.09918212890625 C 408.5031433105469 385.29046630859375 412.3801574707031 373.7305908203125 411.0997009277344 361.90191650390625 C 408.6434326171875 357.9322509765625 404.4075012207031 350.82525634765625 399.09918212890625 350.0980224609375" stroke-width="2.0" fill="rgb(159, 113, 68)" opacity="1.0999658" stroke="rgb(0, 0, 0)" stroke-opacity="0.0" stroke-linecap="round" stroke-linejoin="round"/>
    <path d="M 77.09957885742188 349.9004211425781 L 67.09976196289062 362.0698547363281 L 67.09977722167969 396.0956726074219 C 62.736419677734375 399.9264221191406 58.38541793823242 393.701171875 53.900386810302734 399.04034423828125 L 53.900413513183594 413.9921875 C 56.644290924072266 419.37890625 62.6458854675293 412.7792053222656 66.90214538574219 418.09857177734375 C 68.27957153320312 424.09942626953125 64.63744354248047 432.4378356933594 69.08600616455078 437.099365234375 L 88.09957122802734 436.0998229980469 C 89.04261779785156 429.66534423828125 85.98269653320312 423.4256591796875 90.0992202758789 417.0995178222656 C 93.7337875366211 417.99786376953125 97.23992156982422 415.0447692871094 100.90035247802734 419.0989990234375 L 100.900390625 436.09979248046875 L 120.09947204589844 437.099365234375 L 122.09963989257812 418.09930419921875 C 126.42896270751953 414.9169006347656 130.7514190673828 417.6232604980469 135.0376739501953 415.0804443359375 L 135.09536743164062 397.9035339355469 C 130.37411499023438 394.6617126464844 122.76263427734375 400.8203125 121.09992980957031 392.9026794433594 L 121.09992980957031 360.90142822265625 L 111.09966278076172 349.9005432128906 C 106.65153503417969 351.8099365234375 103.80908966064453 357.7311096191406 100.9002456665039 361.0901794433594 L 100.9002456665039 395.0976867675781 C 97.42552185058594 399.0049133300781 93.73599243164062 396.0088806152344 90.0984878540039 396.9045715332031 C 85.49984741210938 384.916748046875 89.38311004638672 373.07476806640625 88.0998306274414 360.90045166015625 L 77.09957885742188 349.9004211425781" stroke-width="2.0" fill="rgb(158, 113, 68)" opacity="1.0999733" stroke="rgb(0, 0, 0)" stroke-opacity="0.0" stroke-linecap="round" stroke-linejoin="round"/>
    <path d="M 260.0998840332031 238.09938049316406 L 260.0998840332031 295.0993957519531 L 327.9007873535156 296.0985107421875 C 328.9272155761719 275.9248046875 330.82427978515625 256.0711975097656 326.9010009765625 236.09976196289062 L 260.0998840332031 238.09938049316406" stroke-width="2.0" fill="rgb(35, 204, 270)" opacity="1.0999742" stroke="rgb(0, 0, 0)" stroke-opacity="0.0" stroke-linecap="round" stroke-linejoin="round"/>
    <path d="M 183.09976196289062 237.09983825683594 L 184.09967041015625 296.09844970703125 L 251.0962677001953 295.0994873046875 L 251.08932495117188 237.09983825683594 L 183.09976196289062 237.09983825683594" stroke-width="2.0" fill="rgb(34, 205, 271)" opacity="1.0999725" stroke="rgb(0, 0, 0)" stroke-opacity="0.0" stroke-linecap="round" stroke-linejoin="round"/>
    <path d="M 255.0980224609375 126.09973907470703 C 244.62710571289062 126.14057922363281 229.20425415039062 136.6144256591797 227.09971618652344 149.09901428222656 C 223.7136688232422 161.64808654785156 234.02545166015625 181.0946807861328 250.0980987548828 184.09774780273438 C 262.31207275390625 186.9886016845703 280.4289855957031 177.51585388183594 284.0997314453125 162.09909057617188 C 286.4374084472656 150.24684143066406 281.08795166015625 133.8829803466797 265.9020080566406 128.09933471679688 L 255.0980224609375 126.09973907470703" stroke-width="2.0" fill="rgb(279, 277, 270)" opacity="1.0999794" stroke="rgb(0, 0, 0)" stroke-opacity="0.0" stroke-linecap="round" stroke-linejoin="round"/>
    <path d="M 432.0895690917969 350.0950012207031 L 423.0997619628906 361.94732666015625 L 423.09979248046875 435.0980529785156 L 444.09991455078125 436.0924072265625 L 444.09991455078125 360.9055480957031 C 441.0047912597656 357.58062744140625 436.9813232421875 350.0350646972656 432.0895690917969 350.0950012207031" stroke-width="2.0" fill="rgb(214, 167, 70)" opacity="0.9002872" stroke="rgb(0, 0, 0)" stroke-opacity="0.0" stroke-linecap="round" stroke-linejoin="round"/>
    <path d="M 400.09765625 349.90179443359375 L 389.9004821777344 361.09259033203125 L 389.900390625 436.0970458984375 L 407.09515380859375 436.9045715332031 C 410.2410583496094 435.52734375 409.5217590332031 436.2397766113281 411.099609375 433.0758056640625 L 411.0998229980469 363.045166015625 C 409.157958984375 358.7493591308594 405.2123107910156 352.6080017089844 400.09765625 349.90179443359375" stroke-width="2.0" fill="rgb(214, 116, 70)" opacity="1.0965991" stroke="rgb(0, 0, 0)" stroke-opacity="0.0" stroke-linecap="round" stroke-linejoin="round"/>
    <path d="M 77.09966278076172 349.9004821777344 L 67.09988403320312 361.0991516113281 L 67.09976196289062 436.0990295410156 L 88.09986877441406 436.0982360839844 L 88.09990692138672 360.90045166015625 L 77.09966278076172 349.9004821777344" stroke-width="2.0" fill="rgb(214, 167, 71)" opacity="0.9004802" stroke="rgb(0, 0, 0)" stroke-opacity="0.0" stroke-linecap="round" stroke-linejoin="round"/>
    <path d="M 110.09716796875 349.9033508300781 L 100.90013885498047 360.9083557128906 L 100.90016174316406 436.0980529785156 L 121.09992980957031 436.0992736816406 L 121.09996032714844 359.90081787109375 L 110.09716796875 349.9033508300781" stroke-width="2.0" fill="rgb(214, 116, 70)" opacity="1.0982815" stroke="rgb(0, 0, 0)" stroke-opacity="0.0" stroke-linecap="round" stroke-linejoin="round"/>
    <path d="M 122.9356918334961 397.0930480957031 L 122.90402221679688 416.0995178222656 L 135.09986877441406 417.0996398925781 L 136.09979248046875 397.9012451171875 L 122.9356918334961 397.0930480957031" stroke-width="2.0" fill="rgb(139, 100, 57)" opacity="1.0998566" stroke="rgb(0, 0, 0)" stroke-opacity="0.0" stroke-linecap="round" stroke-linejoin="round"/>
    <path d="M 53.900569915771484 397.0992736816406 L 53.900291442871094 416.09979248046875 L 65.0960693359375 417.09967041015625 L 66.09278869628906 397.0982360839844 L 53.900569915771484 397.0992736816406" stroke-width="2.0" fill="rgb(139, 103, 64)" opacity="1.0994172" stroke="rgb(0, 0, 0)" stroke-opacity="0.0" stroke-linecap="round" stroke-linejoin="round"/>
    <path d="M 375.9001159667969 397.09881591796875 L 375.9001159667969 417.09979248046875 L 387.0990905761719 417.09979248046875 L 388.0984802246094 397.0989685058594 L 375.9001159667969 397.09881591796875" stroke-width="2.0" fill="rgb(139, 99, 57)" opacity="1.0962589" stroke="rgb(0, 0, 0)" stroke-opacity="0.0" stroke-linecap="round" stroke-linejoin="round"/>
    <path d="M 123.90636444091797 418.0975646972656 L 123.06102752685547 436.0973205566406 L 135.91195678710938 436.0978088378906 L 135.9075927734375 419.0971984863281 L 123.90636444091797 418.0975646972656" stroke-width="2.0" fill="rgb(276, 273, 261)" opacity="1.099751" stroke="rgb(0, 0, 0)" stroke-opacity="0.0" stroke-linecap="round" stroke-linejoin="round"/>
    <path d="M 445.9052734375 397.0903625488281 L 445.90386962890625 416.0966491699219 L 456.09942626953125 417.0989685058594 C 460.5386962890625 410.760986328125 456.93096923828125 404.3830261230469 458.098388671875 397.9013977050781 L 445.9052734375 397.0903625488281" stroke-width="2.0" fill="rgb(139, 102, 63)" opacity="1.0994735" stroke="rgb(0, 0, 0)" stroke-opacity="0.0" stroke-linecap="round" stroke-linejoin="round"/>
  </g>
</svg>
