<?xml version="1.0" ?>
<svg xmlns="http://www.w3.org/2000/svg" version="1.1" width="512" height="512">
  <defs/>
  <g>
    <path d="M -0.59996098279953 -0.599960207939148 L -0.599962055683136 512.701416015625 L 512.7005615234375 512.698486328125 L 512.6990966796875 -0.5999724864959717 L -0.59996098279953 -0.599960207939148" stroke-width="2.0" fill="rgb(254, 254, 253)" opacity="0.52146876" stroke="rgb(0, 0, 0)" stroke-opacity="0.0" stroke-linecap="round" stroke-linejoin="round"/>
    <path d="M 255.19268798828125 52.997718811035156 L 246.07647705078125 60.0787239074707 L 118.53681182861328 187.49700927734375 C 117.35332489013672 192.92236328125 117.44505310058594 196.6715545654297 123.54259490966797 198.648681640625 C 129.60694885253906 202.41622924804688 133.59579467773438 193.04396057128906 136.5415496826172 194.22235107421875 L 136.50486755371094 437.4654541015625 L 374.7429504394531 438.4696350097656 C 376.9510498046875 358.7177734375 374.4371337890625 276.3742370605469 376.0142517089844 194.79641723632812 L 377.54150390625 192.84869384765625 C 381.85797119140625 201.98043823242188 396.6732482910156 201.8957061767578 394.55712890625 189.8318328857422 L 265.2337951660156 59.747074127197266 L 255.19268798828125 52.997718811035156" stroke-width="2.0" fill="rgb(253, 185, 52)" opacity="0.60503507" stroke="rgb(0, 0, 0)" stroke-opacity="0.0" stroke-linecap="round" stroke-linejoin="round"/>
    <path d="M 175.3230743408203 228.4326934814453 L 175.32928466796875 294.230224609375 C 176.09678649902344 297.962646484375 171.87570190429688 296.1361083984375 167.23580932617188 296.7792663574219 L 167.49684143066406 305.34686279296875 L 345.0232849121094 305.3547668457031 C 346.3083190917969 294.99432373046875 344.86669921875 296.6004943847656 337.3265075683594 296.7474060058594 L 337.4342346191406 287.6031494140625 L 337.4140930175781 228.42745971679688 L 175.3230743408203 228.4326934814453" stroke-width="2.0" fill="rgb(1, 35, 103)" opacity="0.55052143" stroke="rgb(0, 0, 0)" stroke-opacity="0.0" stroke-linecap="round" stroke-linejoin="round"/>
    <path d="M 458.7409362792969 440.8711853027344 C 457.1079406738281 435.43634033203125 453.1195983886719 438.3443908691406 447.5428161621094 437.46160888671875 C 321.5309143066406 438.7366027832031 189.2747802734375 436.3369445800781 54.67437744140625 438.07598876953125 C 52.18973159790039 440.7466125488281 54.04543685913086 447.6847839355469 53.485748291015625 458.5741271972656 L 456.06524658203125 458.6104431152344 C 461.70037841796875 458.6481628417969 457.2384033203125 451.0104064941406 458.7409362792969 440.8711853027344" stroke-width="2.0" fill="rgb(133, 189, 82)" opacity="0.9380794" stroke="rgb(0, 0, 0)" stroke-opacity="0.0" stroke-linecap="round" stroke-linejoin="round"/>
    <path d="M 217.4781494140625 355.5382080078125 L 217.5244903564453 437.4712219238281 L 294.61279296875 438.17669677734375 L 294.6595458984375 355.4956970214844 L 217.4781494140625 355.5382080078125" stroke-width="2.0" fill="rgb(79, 88, 100)" opacity="0.8470996" stroke="rgb(0, 0, 0)" stroke-opacity="0.0" stroke-linecap="round" stroke-linejoin="round"/>
    <path d="M 117.66360473632812 188.5205841064453 C 115.30462646484375 197.99693298339844 124.49090576171875 204.37010192871094 131.8040008544922 198.2165985107422 L 254.9744873046875 74.93513488769531 L 256.6385803222656 74.26888275146484 L 376.0274353027344 193.5564727783203 C 381.095703125 199.7556610107422 387.0630187988281 204.84205627441406 394.7705383300781 195.8105926513672 L 392.7686767578125 186.5574188232422 L 259.1490173339844 53.061851501464844 L 251.0873565673828 54.91521453857422 L 117.66360473632812 188.5205841064453" stroke-width="2.0" fill="rgb(218, 53, 91)" opacity="0.5327591" stroke="rgb(0, 0, 0)" stroke-opacity="0.0" stroke-linecap="round" stroke-linejoin="round"/>
    <path d="M 400.1436767578125 349.59039306640625 L 389.88311767578125 361.6531677246094 C 388.8970031738281 376.9418640136719 391.0393371582031 390.4696960449219 388.4041442871094 403.0443420410156 C 383.8935546875 405.2584228515625 387.50439453125 398.5902099609375 385.6394348144531 397.6004333496094 L 375.438232421875 398.1318054199219 L 375.29632568359375 416.85870361328125 C 379.9263916015625 418.3100280761719 383.93878173828125 415.2543029785156 389.69488525390625 418.922119140625 L 389.46722412109375 437.55889892578125 C 395.5743103027344 438.33953857421875 405.2462158203125 439.15325927734375 411.3917236328125 437.30303955078125 L 411.44744873046875 418.27935791015625 L 423.8037414550781 418.3680114746094 L 423.69610595703125 437.6537780761719 L 445.4454345703125 437.6285095214844 L 445.1512451171875 419.23809814453125 C 446.1346130371094 416.53448486328125 451.0746154785156 420.33404541015625 458.66448974609375 416.8782043457031 C 458.1985778808594 408.9818420410156 459.37603759765625 401.8150634765625 457.27301025390625 396.5644836425781 L 445.1146545410156 396.6052551269531 L 444.4837341308594 360.524169921875 C 437.5330505371094 354.7541809082031 435.7744445800781 343.40484619140625 430.10699462890625 353.74114990234375 C 418.5768127441406 364.0311584472656 426.2081298828125 378.5166931152344 423.2108459472656 396.61785888671875 L 412.1182556152344 396.6346435546875 C 410.2164611816406 385.8512878417969 412.53326416015625 373.3994140625 411.0718688964844 361.0145263671875 C 408.2706298828125 358.2679443359375 403.986328125 350.3716735839844 400.1436767578125 349.59039306640625" stroke-width="2.0" fill="rgb(166, 126, 81)" opacity="0.9650266" stroke="rgb(0, 0, 0)" stroke-opacity="0.0" stroke-linecap="round" stroke-linejoin="round"/>
    <path d="M 78.39739227294922 348.7271423339844 L 67.2287826538086 361.7255859375 L 67.6470947265625 395.65106201171875 C 64.31314086914062 398.5867004394531 55.740081787109375 393.93048095703125 53.47830581665039 398.74456787109375 L 53.46931457519531 415.2218322753906 C 56.43355941772461 420.0610046386719 62.37063980102539 415.81451416015625 66.52093505859375 417.942138671875 C 67.75762939453125 424.3497314453125 65.3626480102539 435.2495422363281 68.5179672241211 438.5323791503906 L 89.30099487304688 437.5268249511719 C 89.8255615234375 429.7859802246094 86.86906433105469 422.9451904296875 89.47830200195312 418.06231689453125 C 95.6533203125 419.4361267089844 98.78857421875 416.87738037109375 100.48454284667969 419.175048828125 L 100.46583557128906 437.64501953125 L 122.73251342773438 438.56475830078125 L 122.5596923828125 418.58148193359375 C 127.54935455322266 416.09210205078125 132.54771423339844 418.2453308105469 136.52699279785156 417.3723449707031 L 136.3811798095703 396.8960876464844 C 127.85791778564453 395.2929992675781 120.5440902709961 399.5806579589844 122.68302154541016 392.4717102050781 L 122.62511444091797 361.8093566894531 L 112.07942962646484 349.1867370605469 C 107.12324523925781 352.22198486328125 104.191162109375 358.1231384277344 100.4475326538086 361.41278076171875 L 100.48731231689453 395.478759765625 C 99.56312561035156 397.7766418457031 94.61992645263672 395.716064453125 89.39146423339844 396.9017639160156 C 86.84331512451172 385.2161560058594 90.49540710449219 374.6673278808594 88.29727935791016 361.1457214355469 L 78.39739227294922 348.7271423339844" stroke-width="2.0" fill="rgb(167, 130, 86)" opacity="0.9513384" stroke="rgb(0, 0, 0)" stroke-opacity="0.0" stroke-linecap="round" stroke-linejoin="round"/>
    <path d="M 260.4261169433594 236.57286071777344 L 260.4443664550781 296.66156005859375 L 328.6988830566406 296.56341552734375 C 327.92510986328125 274.531982421875 330.5953063964844 254.47210693359375 328.2919921875 236.63975524902344 L 260.4261169433594 236.57286071777344" stroke-width="2.0" fill="rgb(55, 189, 263)" opacity="0.9139736" stroke="rgb(0, 0, 0)" stroke-opacity="0.0" stroke-linecap="round" stroke-linejoin="round"/>
    <path d="M 183.53628540039062 237.2637176513672 L 183.50534057617188 296.5321350097656 L 251.67523193359375 296.6733703613281 L 251.74618530273438 237.25889587402344 L 183.53628540039062 237.2637176513672" stroke-width="2.0" fill="rgb(54, 190, 263)" opacity="0.9144653" stroke="rgb(0, 0, 0)" stroke-opacity="0.0" stroke-linecap="round" stroke-linejoin="round"/>
    <path d="M 255.8402099609375 127.36189270019531 C 244.38160705566406 126.38563537597656 229.62716674804688 136.59033203125 228.31692504882812 150.09510803222656 C 224.0980224609375 162.4543914794922 233.65187072753906 180.98974609375 250.31956481933594 183.7266845703125 C 263.44549560546875 187.09474182128906 280.904296875 178.3763427734375 283.92596435546875 162.23114013671875 C 286.8414001464844 149.28013610839844 281.3745422363281 134.6608123779297 265.1053771972656 128.14146423339844 L 255.8402099609375 127.36189270019531" stroke-width="2.0" fill="rgb(254, 262, 280)" opacity="0.8042233" stroke="rgb(0, 0, 0)" stroke-opacity="0.0" stroke-linecap="round" stroke-linejoin="round"/>
    <path d="M 432.5279541015625 349.1963806152344 L 422.5560302734375 361.2438659667969 L 422.45416259765625 437.6802673339844 L 445.50201416015625 437.4478454589844 L 445.6683044433594 360.8190002441406 C 441.3908386230469 357.2754211425781 437.945556640625 348.83465576171875 432.5279541015625 349.1963806152344" stroke-width="2.0" fill="rgb(202, 151, 101)" opacity="0.57176757" stroke="rgb(0, 0, 0)" stroke-opacity="0.0" stroke-linecap="round" stroke-linejoin="round"/>
    <path d="M 400.326904296875 348.1690673828125 L 389.3196716308594 360.7265930175781 L 389.42181396484375 436.5400390625 L 408.67962646484375 439.21954345703125 C 412.49627685546875 437.7240905761719 412.767333984375 438.8149719238281 412.6260070800781 436.8681945800781 L 412.548095703125 360.91949462890625 C 409.7269592285156 358.1616516113281 405.77459716796875 351.6692199707031 400.326904296875 348.1690673828125" stroke-width="2.0" fill="rgb(215, 158, 107)" opacity="0.43019837" stroke="rgb(0, 0, 0)" stroke-opacity="0.0" stroke-linecap="round" stroke-linejoin="round"/>
    <path d="M 78.12115478515625 347.81683349609375 L 67.17996978759766 359.9984436035156 L 66.16786193847656 437.7965087890625 L 89.74300384521484 436.33294677734375 L 89.8268814086914 360.73065185546875 L 78.12115478515625 347.81683349609375" stroke-width="2.0" fill="rgb(210, 151, 103)" opacity="0.44514644" stroke="rgb(0, 0, 0)" stroke-opacity="0.0" stroke-linecap="round" stroke-linejoin="round"/>
    <path d="M 109.93531799316406 348.7244873046875 L 100.36812591552734 359.93353271484375 L 100.32952117919922 436.42034912109375 L 122.82125091552734 437.79248046875 L 122.68218231201172 359.6351623535156 L 109.93531799316406 348.7244873046875" stroke-width="2.0" fill="rgb(227, 158, 108)" opacity="0.32628992" stroke="rgb(0, 0, 0)" stroke-opacity="0.0" stroke-linecap="round" stroke-linejoin="round"/>
    <path d="M 122.8066635131836 398.4061584472656 L 122.78984069824219 418.4814758300781 L 136.79835510253906 418.8477783203125 L 137.42819213867188 397.60638427734375 L 122.8066635131836 398.4061584472656" stroke-width="2.0" fill="rgb(136, 78, 37)" opacity="0.22253452" stroke="rgb(0, 0, 0)" stroke-opacity="0.0" stroke-linecap="round" stroke-linejoin="round"/>
    <path d="M 53.576133728027344 397.4940490722656 L 53.42277526855469 418.458740234375 L 65.49871826171875 418.7391662597656 L 67.57830810546875 397.5829162597656 L 53.576133728027344 397.4940490722656" stroke-width="2.0" fill="rgb(142, 102, 69)" opacity="0.3373098" stroke="rgb(0, 0, 0)" stroke-opacity="0.0" stroke-linecap="round" stroke-linejoin="round"/>
    <path d="M 375.4415588378906 397.2377624511719 L 375.2358093261719 417.77301025390625 L 388.8998718261719 417.8179931640625 L 389.4825134277344 397.22296142578125 L 375.4415588378906 397.2377624511719" stroke-width="2.0" fill="rgb(163, 123, 80)" opacity="0.9437466" stroke="rgb(0, 0, 0)" stroke-opacity="0.0" stroke-linecap="round" stroke-linejoin="round"/>
    <path d="M 122.46879577636719 418.5543518066406 L 123.07259368896484 438.4647216796875 L 136.7767791748047 438.3517150878906 L 135.9715576171875 418.77899169921875 L 122.46879577636719 418.5543518066406" stroke-width="2.0" fill="rgb(252, 248, 241)" opacity="0.3909105" stroke="rgb(0, 0, 0)" stroke-opacity="0.0" stroke-linecap="round" stroke-linejoin="round"/>
    <path d="M 445.0736999511719 398.5050354003906 L 444.8583068847656 416.9163513183594 L 457.1929931640625 418.8558349609375 C 460.20489501953125 412.5848083496094 457.199951171875 407.1581726074219 459.7786865234375 397.5586853027344 L 445.0736999511719 398.5050354003906" stroke-width="2.0" fill="rgb(144, 103, 70)" opacity="0.23784019" stroke="rgb(0, 0, 0)" stroke-opacity="0.0" stroke-linecap="round" stroke-linejoin="round"/>
  </g>
</svg>
