<?xml version="1.0" ?>
<svg xmlns="http://www.w3.org/2000/svg" version="1.1" width="512" height="512">
  <defs/>
  <g>
    <path d="M -0.6004075407981873 -0.6004067659378052 L -0.6004086136817932 512.7034301757812 L 512.7025756835938 512.7005004882812 L 512.7011108398438 -0.6004190444946289 L -0.6004075407981873 -0.6004067659378052" stroke-width="2.0" fill="rgb(254, 254, 254)" opacity="0.55173284" stroke="rgb(0, 0, 0)" stroke-opacity="0.0" stroke-linecap="round" stroke-linejoin="round"/>
    <path d="M 255.50601196289062 52.796104431152344 L 246.09954833984375 60.10647201538086 L 118.56761932373047 187.5030975341797 C 117.70397186279297 193.02105712890625 117.50526428222656 196.4821014404297 123.44905853271484 198.88697814941406 C 129.77955627441406 202.47421264648438 133.45785522460938 193.02159118652344 136.5342559814453 194.14593505859375 L 136.5125732421875 437.52197265625 L 375.212646484375 438.5324401855469 C 376.6453857421875 359.0648498535156 374.54052734375 276.16937255859375 375.8081970214844 193.67062377929688 L 377.6622619628906 192.80906677246094 C 381.41217041015625 202.2749786376953 395.8771667480469 201.82411193847656 394.5498046875 189.81414794921875 L 264.991943359375 59.977542877197266 L 255.50601196289062 52.796104431152344" stroke-width="2.0" fill="rgb(253, 186, 49)" opacity="0.6114061" stroke="rgb(0, 0, 0)" stroke-opacity="0.0" stroke-linecap="round" stroke-linejoin="round"/>
    <path d="M 175.34056091308594 228.4057159423828 L 175.29153442382812 294.2195739746094 C 175.96681213378906 297.9855651855469 171.6280517578125 296.3471984863281 167.3262176513672 296.5928649902344 L 167.34982299804688 305.35345458984375 L 345.1640625 305.343994140625 C 346.2167663574219 294.7701110839844 344.9918212890625 296.7409973144531 337.385986328125 296.6256408691406 L 337.38323974609375 287.588134765625 L 337.4222106933594 228.41519165039062 L 175.34056091308594 228.4057159423828" stroke-width="2.0" fill="rgb(0, 35, 102)" opacity="0.5533238" stroke="rgb(0, 0, 0)" stroke-opacity="0.0" stroke-linecap="round" stroke-linejoin="round"/>
    <path d="M 458.8673400878906 440.46624755859375 C 457.6629943847656 435.7447204589844 453.32568359375 438.70697021484375 447.2861328125 437.1695556640625 C 321.35986328125 438.6055908203125 189.0455780029297 436.5050964355469 54.53028869628906 438.235107421875 C 52.35295867919922 439.79962158203125 53.963233947753906 447.2547912597656 53.431129455566406 458.5682067871094 L 455.6802673339844 458.5758361816406 C 460.9913330078125 459.0107421875 457.2934265136719 451.306640625 458.8673400878906 440.46624755859375" stroke-width="2.0" fill="rgb(132, 189, 82)" opacity="0.93792" stroke="rgb(0, 0, 0)" stroke-opacity="0.0" stroke-linecap="round" stroke-linejoin="round"/>
    <path d="M 217.50987243652344 355.4996643066406 L 217.49412536621094 437.42742919921875 L 294.6148681640625 438.1114807128906 L 294.62542724609375 355.5201416015625 L 217.50987243652344 355.4996643066406" stroke-width="2.0" fill="rgb(79, 87, 100)" opacity="0.84920275" stroke="rgb(0, 0, 0)" stroke-opacity="0.0" stroke-linecap="round" stroke-linejoin="round"/>
    <path d="M 117.68385314941406 188.48916625976562 C 115.24911499023438 198.1102752685547 124.46217346191406 204.4298553466797 131.78782653808594 198.23599243164062 L 254.9931640625 74.93617248535156 L 256.68365478515625 74.19599914550781 L 375.96307373046875 193.65577697753906 C 381.22039794921875 199.74209594726562 387.19891357421875 204.8800048828125 394.91717529296875 195.65321350097656 L 392.83563232421875 186.60899353027344 L 259.20391845703125 53.092960357666016 L 251.14022827148438 54.86479187011719 L 117.68385314941406 188.48916625976562" stroke-width="2.0" fill="rgb(221, 52, 89)" opacity="0.540485" stroke="rgb(0, 0, 0)" stroke-opacity="0.0" stroke-linecap="round" stroke-linejoin="round"/>
    <path d="M 400.1100769042969 349.58026123046875 L 389.8578796386719 361.66925048828125 C 388.9161071777344 376.9308166503906 390.8525695800781 390.5387878417969 388.3291015625 403.04376220703125 C 384.1776123046875 405.1927490234375 388.0498046875 398.55560302734375 385.879638671875 397.6065979003906 L 375.51544189453125 398.1280212402344 L 375.5384826660156 416.8653869628906 C 379.9320068359375 418.3041076660156 383.7820739746094 415.333740234375 389.7388610839844 418.9497985839844 L 389.4326171875 437.53826904296875 C 395.6087951660156 438.2076721191406 405.2315979003906 438.949462890625 411.40814208984375 437.417724609375 L 411.36376953125 418.36334228515625 L 423.8011169433594 418.351318359375 L 423.75897216796875 437.59967041015625 L 445.3782653808594 437.6265563964844 L 445.0837097167969 419.28302001953125 C 445.65826416015625 416.7211608886719 450.3900146484375 420.2559814453125 458.66595458984375 416.7160339355469 C 458.12890625 408.8849182128906 459.27142333984375 401.76318359375 457.304443359375 396.579345703125 L 445.1480712890625 396.6256408691406 L 444.45050048828125 360.9979248046875 C 436.891845703125 355.2117919921875 435.5997314453125 343.6446533203125 430.2084045410156 353.93829345703125 C 418.50921630859375 363.2103576660156 426.1993103027344 377.6268005371094 423.3214111328125 396.609619140625 L 411.5860595703125 396.6222839355469 C 410.4630432128906 386.3001708984375 412.3956604003906 373.3480224609375 411.0302429199219 360.70550537109375 C 408.1310119628906 358.3955383300781 403.6686096191406 350.5586853027344 400.1100769042969 349.58026123046875" stroke-width="2.0" fill="rgb(165, 124, 82)" opacity="0.9547228" stroke="rgb(0, 0, 0)" stroke-opacity="0.0" stroke-linecap="round" stroke-linejoin="round"/>
    <path d="M 78.23505401611328 348.89044189453125 L 67.49101257324219 361.5740661621094 L 67.52812957763672 395.7773132324219 C 64.72320556640625 398.3642883300781 55.10860824584961 394.17962646484375 53.472408294677734 398.9092712402344 L 53.519874572753906 415.49163818359375 C 55.9980583190918 419.5318298339844 62.36307144165039 416.18035888671875 67.22506713867188 418.1441650390625 C 68.76062774658203 424.1175231933594 66.2825927734375 435.4805603027344 68.83824920654297 438.5384521484375 L 89.46827697753906 437.7204895019531 C 89.68275451660156 430.46185302734375 87.09730529785156 422.89874267578125 89.49781036376953 418.096923828125 C 95.26607513427734 419.1654052734375 99.01302337646484 417.07989501953125 100.49911499023438 419.2574157714844 L 100.39639282226562 437.5969543457031 L 122.56524658203125 438.51458740234375 L 122.56041717529297 418.3369140625 C 127.24566650390625 416.34112548828125 132.5037384033203 418.5006408691406 136.48695373535156 417.1681213378906 L 136.38636779785156 396.80169677734375 C 127.35209655761719 395.5620422363281 120.57938385009766 399.2857360839844 122.70536804199219 392.52545166015625 L 122.62801361083984 361.8322448730469 L 112.23123931884766 349.08697509765625 C 107.083740234375 352.1249694824219 104.21952056884766 358.1463623046875 100.45164489746094 361.57073974609375 L 100.52354431152344 395.69464111328125 C 100.27345275878906 397.5422668457031 94.56829833984375 395.9906921386719 89.45050811767578 396.8385314941406 C 86.93588256835938 385.2297668457031 90.1859359741211 374.4244079589844 88.27608489990234 360.99176025390625 L 78.23505401611328 348.89044189453125" stroke-width="2.0" fill="rgb(168, 129, 84)" opacity="0.9635009" stroke="rgb(0, 0, 0)" stroke-opacity="0.0" stroke-linecap="round" stroke-linejoin="round"/>
    <path d="M 260.4491882324219 236.60023498535156 L 260.4229431152344 296.5764465332031 L 328.6949157714844 296.6396179199219 C 327.8017272949219 273.7442321777344 330.8736572265625 254.44581604003906 328.2832946777344 236.59703063964844 L 260.4491882324219 236.60023498535156" stroke-width="2.0" fill="rgb(56, 189, 263)" opacity="0.91212046" stroke="rgb(0, 0, 0)" stroke-opacity="0.0" stroke-linecap="round" stroke-linejoin="round"/>
    <path d="M 183.5050506591797 237.22618103027344 L 183.5167694091797 296.66351318359375 L 251.68626403808594 296.5840148925781 L 251.73667907714844 237.2408905029297 L 183.5050506591797 237.22618103027344" stroke-width="2.0" fill="rgb(55, 189, 263)" opacity="0.9126298" stroke="rgb(0, 0, 0)" stroke-opacity="0.0" stroke-linecap="round" stroke-linejoin="round"/>
    <path d="M 255.99034118652344 127.37004089355469 C 244.28892517089844 126.3783950805664 229.71275329589844 136.58364868164062 228.30569458007812 149.9906005859375 C 224.2862548828125 162.62548828125 233.56573486328125 181.08790588378906 250.23118591308594 183.71304321289062 C 263.67669677734375 187.0604705810547 280.9121398925781 178.5141143798828 284.08984375 162.40814208984375 C 286.86236572265625 149.0458221435547 281.4658203125 134.73683166503906 264.90545654296875 128.0806427001953 L 255.99034118652344 127.37004089355469" stroke-width="2.0" fill="rgb(254, 263, 279)" opacity="0.8029495" stroke="rgb(0, 0, 0)" stroke-opacity="0.0" stroke-linecap="round" stroke-linejoin="round"/>
    <path d="M 432.72314453125 349.2121276855469 L 422.5502624511719 361.1719970703125 L 422.52398681640625 437.49884033203125 L 445.4811706542969 437.6819763183594 L 445.6654052734375 360.8940734863281 C 441.1531677246094 357.35345458984375 437.9469909667969 348.4027404785156 432.72314453125 349.2121276855469" stroke-width="2.0" fill="rgb(202, 150, 101)" opacity="0.59151655" stroke="rgb(0, 0, 0)" stroke-opacity="0.0" stroke-linecap="round" stroke-linejoin="round"/>
    <path d="M 400.33203125 348.108154296875 L 389.2841796875 360.69012451171875 L 389.4628601074219 436.8424987792969 L 408.7785949707031 439.1409606933594 C 412.628173828125 437.9218444824219 413.0845642089844 439.1011047363281 412.5870361328125 437.1611328125 L 412.5559997558594 360.64190673828125 C 409.4858703613281 358.381591796875 405.9605712890625 351.3232421875 400.33203125 348.108154296875" stroke-width="2.0" fill="rgb(212, 156, 104)" opacity="0.47189415" stroke="rgb(0, 0, 0)" stroke-opacity="0.0" stroke-linecap="round" stroke-linejoin="round"/>
    <path d="M 78.3293685913086 347.67254638671875 L 66.27051544189453 360.40185546875 L 66.52042388916016 438.3218688964844 L 89.75201416015625 436.6499938964844 L 89.86359405517578 360.80096435546875 L 78.3293685913086 347.67254638671875" stroke-width="2.0" fill="rgb(208, 153, 104)" opacity="0.43546277" stroke="rgb(0, 0, 0)" stroke-opacity="0.0" stroke-linecap="round" stroke-linejoin="round"/>
    <path d="M 110.46163177490234 348.27349853515625 L 100.34996032714844 360.0231018066406 L 100.29914093017578 436.7636413574219 L 122.79154205322266 437.8805847167969 L 122.68052673339844 359.43414306640625 L 110.46163177490234 348.27349853515625" stroke-width="2.0" fill="rgb(225, 161, 110)" opacity="0.3256245" stroke="rgb(0, 0, 0)" stroke-opacity="0.0" stroke-linecap="round" stroke-linejoin="round"/>
    <path d="M 122.83588409423828 398.5273742675781 L 122.90898132324219 418.5987548828125 L 136.80494689941406 418.7777099609375 L 137.42959594726562 397.5195617675781 L 122.83588409423828 398.5273742675781" stroke-width="2.0" fill="rgb(136, 87, 47)" opacity="0.23899414" stroke="rgb(0, 0, 0)" stroke-opacity="0.0" stroke-linecap="round" stroke-linejoin="round"/>
    <path d="M 53.47001647949219 397.7767333984375 L 53.40868377685547 418.4604797363281 L 65.99727630615234 418.6271667480469 L 67.99282836914062 397.6416015625 L 53.47001647949219 397.7767333984375" stroke-width="2.0" fill="rgb(142, 106, 71)" opacity="0.31282037" stroke="rgb(0, 0, 0)" stroke-opacity="0.0" stroke-linecap="round" stroke-linejoin="round"/>
    <path d="M 375.56182861328125 397.2001953125 L 375.403564453125 417.8559265136719 L 388.8906555175781 417.7629699707031 L 389.541015625 397.2488708496094 L 375.56182861328125 397.2001953125" stroke-width="2.0" fill="rgb(162, 121, 79)" opacity="0.9247647" stroke="rgb(0, 0, 0)" stroke-opacity="0.0" stroke-linecap="round" stroke-linejoin="round"/>
    <path d="M 122.65715026855469 418.6253356933594 L 122.99444580078125 438.96923828125 L 137.25106811523438 438.8446960449219 L 136.49465942382812 418.5657653808594 L 122.65715026855469 418.6253356933594" stroke-width="2.0" fill="rgb(250, 247, 228)" opacity="0.2889786" stroke="rgb(0, 0, 0)" stroke-opacity="0.0" stroke-linecap="round" stroke-linejoin="round"/>
    <path d="M 445.00006103515625 398.4590148925781 L 444.8475646972656 416.9661865234375 L 457.34161376953125 418.9811096191406 C 460.24945068359375 412.68572998046875 457.17132568359375 407.417724609375 459.7412414550781 397.54986572265625 L 445.00006103515625 398.4590148925781" stroke-width="2.0" fill="rgb(150, 112, 73)" opacity="0.27561617" stroke="rgb(0, 0, 0)" stroke-opacity="0.0" stroke-linecap="round" stroke-linejoin="round"/>
  </g>
</svg>
