<?xml version="1.0" ?>
<svg xmlns="http://www.w3.org/2000/svg" version="1.1" width="512" height="512">
  <defs/>
  <g>
    <path d="M -0.590837299823761 -0.5908365249633789 L -0.5908383727073669 512.6624145507812 L 512.6615600585938 512.6595458984375 L 512.6600952148438 -0.5908485054969788 L -0.590837299823761 -0.5908365249633789" stroke-width="2.0" fill="rgb(256, 252, 251)" opacity="0.50650513" stroke="rgb(0, 0, 0)" stroke-opacity="0.0" stroke-linecap="round" stroke-linejoin="round"/>
    <path d="M 254.25613403320312 52.410980224609375 L 246.01458740234375 60.01700973510742 L 118.54954528808594 187.52871704101562 C 118.29991912841797 192.26589965820312 118.15172576904297 196.67225646972656 123.43495178222656 198.87298583984375 C 129.22377014160156 202.4523162841797 133.68565368652344 193.05044555664062 136.5545196533203 194.17633056640625 L 136.3732452392578 437.40045166015625 L 374.6039123535156 438.19891357421875 C 377.7560119628906 358.2390441894531 374.4732666015625 275.5942687988281 375.7242431640625 196.39710998535156 L 377.0767517089844 193.42111206054688 C 381.83587646484375 201.60610961914062 396.75555419921875 201.75567626953125 394.2626037597656 189.80699157714844 L 265.5663146972656 59.422454833984375 L 254.25613403320312 52.410980224609375" stroke-width="2.0" fill="rgb(254, 189, 56)" opacity="0.6085318" stroke="rgb(0, 0, 0)" stroke-opacity="0.0" stroke-linecap="round" stroke-linejoin="round"/>
    <path d="M 175.38067626953125 228.47109985351562 L 175.3458709716797 294.2335205078125 C 175.63356018066406 298.2158203125 171.89675903320312 295.9906311035156 167.36029052734375 296.6809997558594 L 167.4140167236328 305.4732360839844 L 345.1229248046875 305.4803771972656 C 346.5204162597656 295.3755187988281 344.5900573730469 296.0527038574219 337.2080993652344 296.791748046875 L 337.5862121582031 287.72869873046875 L 337.5875244140625 228.49093627929688 L 175.38067626953125 228.47109985351562" stroke-width="2.0" fill="rgb(3, 39, 99)" opacity="0.55498224" stroke="rgb(0, 0, 0)" stroke-opacity="0.0" stroke-linecap="round" stroke-linejoin="round"/>
    <path d="M 458.6152038574219 440.0614929199219 C 457.82720947265625 436.08660888671875 454.15234375 439.0374450683594 449.04296875 436.5223693847656 C 321.3298034667969 438.17889404296875 189.27073669433594 435.71856689453125 54.87302780151367 437.09429931640625 C 52.21535110473633 442.55126953125 53.993961334228516 449.1192626953125 53.537872314453125 458.6145935058594 L 455.9289245605469 458.4885559082031 C 462.0872497558594 458.0933837890625 457.44549560546875 449.91082763671875 458.6152038574219 440.0614929199219" stroke-width="2.0" fill="rgb(139, 192, 87)" opacity="0.9430686" stroke="rgb(0, 0, 0)" stroke-opacity="0.0" stroke-linecap="round" stroke-linejoin="round"/>
    <path d="M 217.38885498046875 355.51251220703125 L 217.5491180419922 437.5824279785156 L 294.59368896484375 438.1857604980469 L 294.60430908203125 355.4191589355469 L 217.38885498046875 355.51251220703125" stroke-width="2.0" fill="rgb(84, 83, 98)" opacity="0.84234107" stroke="rgb(0, 0, 0)" stroke-opacity="0.0" stroke-linecap="round" stroke-linejoin="round"/>
    <path d="M 117.82353973388672 188.67921447753906 C 115.45997619628906 198.04754638671875 124.23870086669922 204.40740966796875 131.7777557373047 198.16586303710938 L 254.8540802001953 74.84708404541016 L 256.65875244140625 74.33578491210938 L 376.086181640625 193.32569885253906 C 380.1680908203125 199.62208557128906 386.9900207519531 204.44619750976562 394.9134216308594 196.19964599609375 L 392.7237854003906 186.44422912597656 L 259.1108093261719 52.95244216918945 L 251.09805297851562 55.01729965209961 L 117.82353973388672 188.67921447753906" stroke-width="2.0" fill="rgb(216, 56, 89)" opacity="0.56693786" stroke="rgb(0, 0, 0)" stroke-opacity="0.0" stroke-linecap="round" stroke-linejoin="round"/>
    <path d="M 399.790283203125 349.89630126953125 L 389.7556457519531 361.8851318359375 C 388.8924255371094 376.57257080078125 391.1919250488281 389.9715270996094 388.1654968261719 402.8169860839844 C 383.76220703125 405.58575439453125 387.1450500488281 398.6603088378906 385.45623779296875 397.511474609375 L 374.91796875 397.9227600097656 L 374.7666320800781 416.87799072265625 C 379.8626403808594 418.2146911621094 384.0964660644531 415.0450134277344 389.6467590332031 418.8456115722656 L 389.4880065917969 437.59326171875 C 395.5848388671875 438.31964111328125 404.88690185546875 439.0948181152344 411.5743408203125 436.83013916015625 L 411.42584228515625 418.4207763671875 L 423.5843200683594 418.349853515625 L 423.52984619140625 437.66363525390625 L 445.43109130859375 437.5978698730469 L 445.2820739746094 419.40850830078125 C 447.6000671386719 416.0273132324219 452.4007263183594 420.4370422363281 458.57708740234375 417.2083740234375 C 458.2347106933594 409.20562744140625 459.4540710449219 401.94879150390625 457.2983093261719 396.60052490234375 L 445.2002868652344 396.5757751464844 L 444.52020263671875 359.7603454589844 C 437.75897216796875 354.47662353515625 435.5033264160156 343.00665283203125 429.94891357421875 353.4368591308594 C 418.22705078125 366.1940612792969 425.55401611328125 380.4527282714844 423.54931640625 396.5950927734375 L 412.25286865234375 396.5393981933594 C 409.35113525390625 385.5346374511719 413.339111328125 374.1595458984375 411.9303894042969 361.428955078125 C 408.3433532714844 358.2236328125 404.22705078125 350.4952697753906 399.790283203125 349.89630126953125" stroke-width="2.0" fill="rgb(166, 126, 88)" opacity="0.9409432" stroke="rgb(0, 0, 0)" stroke-opacity="0.0" stroke-linecap="round" stroke-linejoin="round"/>
    <path d="M 78.36092376708984 348.62841796875 L 67.25799560546875 361.84698486328125 L 67.32427978515625 395.2927551269531 C 62.95907211303711 399.0932922363281 56.85465621948242 393.8031921386719 53.4031867980957 398.7256164550781 L 53.407039642333984 415.2442932128906 C 55.9178466796875 421.1025695800781 61.96533203125 414.5523376464844 66.37191009521484 418.0216369628906 C 67.71125030517578 423.97564697265625 64.80023956298828 434.1426696777344 68.46988677978516 438.5664367675781 L 89.2694091796875 437.64874267578125 C 90.20751190185547 428.5564270019531 86.91204833984375 423.0910949707031 89.76042175292969 417.9654541015625 C 95.79668426513672 419.5945129394531 97.89241790771484 416.6257629394531 100.44318389892578 419.4402770996094 L 100.35816955566406 437.7027893066406 L 122.13461303710938 438.623291015625 L 122.9505615234375 419.1786193847656 C 127.95011901855469 416.47467041015625 132.26089477539062 418.7715759277344 136.481689453125 416.3222351074219 L 136.2455596923828 397.05914306640625 C 128.8602752685547 394.6333312988281 121.4509506225586 400.24578857421875 122.70671844482422 392.4161682128906 L 122.57767486572266 361.5308532714844 L 111.94635009765625 349.1492614746094 C 106.9655990600586 352.1626892089844 103.95867156982422 357.9208068847656 100.37905883789062 361.43316650390625 L 100.46622467041016 395.5939025878906 C 98.91119384765625 398.30035400390625 95.15752410888672 395.2386779785156 89.58293151855469 397.2156677246094 C 86.71089172363281 385.0857238769531 90.6436996459961 374.70794677734375 88.76627349853516 360.5943298339844 L 78.36092376708984 348.62841796875" stroke-width="2.0" fill="rgb(166, 127, 90)" opacity="0.90425235" stroke="rgb(0, 0, 0)" stroke-opacity="0.0" stroke-linecap="round" stroke-linejoin="round"/>
    <path d="M 260.396484375 236.42308044433594 L 260.3903503417969 296.2731018066406 L 328.4233703613281 297.0216369628906 C 328.3565673828125 275.7068176269531 330.51226806640625 254.63673400878906 328.3118896484375 236.66018676757812 L 260.396484375 236.42308044433594" stroke-width="2.0" fill="rgb(56, 190, 262)" opacity="0.92466325" stroke="rgb(0, 0, 0)" stroke-opacity="0.0" stroke-linecap="round" stroke-linejoin="round"/>
    <path d="M 183.45399475097656 237.2068634033203 L 183.45274353027344 297.0267333984375 L 251.753662109375 296.2705078125 L 251.75111389160156 237.19569396972656 L 183.45399475097656 237.2068634033203" stroke-width="2.0" fill="rgb(55, 190, 263)" opacity="0.9233935" stroke="rgb(0, 0, 0)" stroke-opacity="0.0" stroke-linecap="round" stroke-linejoin="round"/>
    <path d="M 255.47032165527344 127.40202331542969 C 244.46205139160156 126.35293579101562 229.3895721435547 136.5487060546875 228.25399780273438 149.85609436035156 C 224.13644409179688 162.2626495361328 233.65237426757812 181.3591766357422 250.16383361816406 183.62490844726562 C 263.4266052246094 187.2282257080078 281.12677001953125 178.42652893066406 283.9713134765625 162.29835510253906 C 286.9178771972656 149.5403289794922 281.3597106933594 134.41781616210938 265.35699462890625 128.3289031982422 L 255.47032165527344 127.40202331542969" stroke-width="2.0" fill="rgb(253, 261, 273)" opacity="0.79198277" stroke="rgb(0, 0, 0)" stroke-opacity="0.0" stroke-linecap="round" stroke-linejoin="round"/>
    <path d="M 432.3514709472656 349.9322509765625 L 422.5108337402344 361.182373046875 L 422.2837219238281 437.0390319824219 L 445.4029846191406 436.8639221191406 L 445.76953125 361.0116271972656 C 440.6395568847656 358.0043029785156 436.59368896484375 350.2806091308594 432.3514709472656 349.9322509765625" stroke-width="2.0" fill="rgb(208, 155, 99)" opacity="0.4751831" stroke="rgb(0, 0, 0)" stroke-opacity="0.0" stroke-linecap="round" stroke-linejoin="round"/>
    <path d="M 400.27215576171875 347.8476257324219 L 389.1753845214844 360.1948547363281 L 389.38348388671875 435.9841003417969 L 408.52581787109375 438.7518615722656 C 412.041259765625 437.2278137207031 411.5895690917969 438.0742492675781 412.6721496582031 435.0987854003906 L 412.8027648925781 362.18341064453125 C 409.806884765625 357.8751220703125 406.2555236816406 351.3746643066406 400.27215576171875 347.8476257324219" stroke-width="2.0" fill="rgb(221, 161, 107)" opacity="0.36134943" stroke="rgb(0, 0, 0)" stroke-opacity="0.0" stroke-linecap="round" stroke-linejoin="round"/>
    <path d="M 77.68851470947266 348.18621826171875 L 67.27400207519531 359.8468933105469 L 67.15521240234375 437.6817626953125 L 89.74225616455078 435.8311462402344 L 89.54582214355469 360.57342529296875 L 77.68851470947266 348.18621826171875" stroke-width="2.0" fill="rgb(210, 150, 95)" opacity="0.42650217" stroke="rgb(0, 0, 0)" stroke-opacity="0.0" stroke-linecap="round" stroke-linejoin="round"/>
    <path d="M 109.59069061279297 348.64990234375 L 100.36685943603516 360.05340576171875 L 100.3641586303711 435.7198181152344 L 122.87508392333984 437.74658203125 L 122.71188354492188 359.8103942871094 L 109.59069061279297 348.64990234375" stroke-width="2.0" fill="rgb(234, 161, 99)" opacity="0.24290141" stroke="rgb(0, 0, 0)" stroke-opacity="0.0" stroke-linecap="round" stroke-linejoin="round"/>
    <path d="M 123.2181167602539 398.25323486328125 L 122.43190002441406 418.1789245605469 L 136.79322814941406 418.8458251953125 L 137.46719360351562 397.81939697265625 L 123.2181167602539 398.25323486328125" stroke-width="2.0" fill="rgb(142, 90, 42)" opacity="0.25853306" stroke="rgb(0, 0, 0)" stroke-opacity="0.0" stroke-linecap="round" stroke-linejoin="round"/>
    <path d="M 53.639793395996094 397.5614318847656 L 53.62459182739258 417.9205322265625 L 65.578857421875 418.8739929199219 L 67.86116027832031 397.9583435058594 L 53.639793395996094 397.5614318847656" stroke-width="2.0" fill="rgb(140, 102, 60)" opacity="0.3703214" stroke="rgb(0, 0, 0)" stroke-opacity="0.0" stroke-linecap="round" stroke-linejoin="round"/>
    <path d="M 374.9091796875 397.226318359375 L 374.7994689941406 417.87384033203125 L 388.7956237792969 417.8020935058594 L 389.3340148925781 397.10546875 L 374.9091796875 397.226318359375" stroke-width="2.0" fill="rgb(164, 126, 82)" opacity="0.8713547" stroke="rgb(0, 0, 0)" stroke-opacity="0.0" stroke-linecap="round" stroke-linejoin="round"/>
    <path d="M 123.02275085449219 418.30804443359375 L 123.8741683959961 438.7304992675781 L 136.01535034179688 438.67041015625 L 135.68397521972656 418.6328125 L 123.02275085449219 418.30804443359375" stroke-width="2.0" fill="rgb(257, 254, 245)" opacity="0.572577" stroke="rgb(0, 0, 0)" stroke-opacity="0.0" stroke-linecap="round" stroke-linejoin="round"/>
    <path d="M 445.2548522949219 398.60491943359375 L 444.98004150390625 416.4873352050781 L 457.13177490234375 418.54461669921875 C 460.3671569824219 412.4443054199219 457.2848815917969 406.5757751464844 459.46826171875 397.5120849609375 L 445.2548522949219 398.60491943359375" stroke-width="2.0" fill="rgb(148, 109, 60)" opacity="0.2719786" stroke="rgb(0, 0, 0)" stroke-opacity="0.0" stroke-linecap="round" stroke-linejoin="round"/>
  </g>
</svg>
