<?xml version="1.0" ?>
<svg xmlns="http://www.w3.org/2000/svg" version="1.1" width="512" height="512">
  <defs/>
  <g>
    <path d="M -0.435618132352829 -0.43561774492263794 L -0.4356192350387573 511.9996643066406 L 511.9994812011719 511.99859619140625 L 511.9983215332031 -0.43562230467796326 L -0.435618132352829 -0.43561774492263794" stroke-width="2.0" fill="rgb(264, 254, 238)" opacity="0.6595957" stroke="rgb(0, 0, 0)" stroke-opacity="0.0" stroke-linecap="round" stroke-linejoin="round"/>
    <path d="M 255.18064880371094 53.0803337097168 L 245.8441162109375 59.84579849243164 L 118.41238403320312 187.412109375 C 118.09860229492188 191.87315368652344 118.43016052246094 196.66209411621094 122.50535583496094 198.661865234375 C 128.34710693359375 201.5467071533203 133.17189025878906 192.85470581054688 136.08522033691406 195.332763671875 L 136.97267150878906 436.0964660644531 L 373.07080078125 437.0603942871094 C 377.2215881347656 356.6820068359375 373.9906311035156 274.8135070800781 374.9801330566406 196.00770568847656 L 375.5768737792969 193.94195556640625 C 380.7519836425781 201.00732421875 394.483154296875 200.50038146972656 393.9830017089844 189.05650329589844 L 265.9730224609375 59.02691650390625 L 255.18064880371094 53.0803337097168" stroke-width="2.0" fill="rgb(239, 200, 69)" opacity="0.7353348" stroke="rgb(0, 0, 0)" stroke-opacity="0.0" stroke-linecap="round" stroke-linejoin="round"/>
    <path d="M 175.4080352783203 229.1271514892578 L 175.420654296875 293.73291015625 C 174.3735809326172 298.40869140625 170.69564819335938 296.76788330078125 167.5892333984375 296.7410888671875 L 167.4668426513672 303.9895935058594 L 344.04449462890625 303.9906921386719 C 345.170654296875 296.7723083496094 343.0798034667969 296.3430480957031 337.4783935546875 296.3168029785156 L 336.0116271972656 288.97772216796875 L 336.0045166015625 229.1294708251953 L 175.4080352783203 229.1271514892578" stroke-width="2.0" fill="rgb(34, 79, 75)" opacity="0.6207275" stroke="rgb(0, 0, 0)" stroke-opacity="0.0" stroke-linecap="round" stroke-linejoin="round"/>
    <path d="M 458.8419189453125 440.1025085449219 C 457.74237060546875 437.05999755859375 455.58282470703125 438.46636962890625 451.9459533691406 436.14990234375 C 320.14337158203125 438.6719665527344 188.5348663330078 436.1639099121094 54.48235321044922 437.11212158203125 C 52.16743469238281 443.6808776855469 53.73349380493164 450.70074462890625 53.30288314819336 458.05242919921875 L 455.00225830078125 458.988037109375 C 461.9040222167969 456.8702087402344 457.7433776855469 448.11883544921875 458.8419189453125 440.1025085449219" stroke-width="2.0" fill="rgb(127, 179, 76)" opacity="1.0225365" stroke="rgb(0, 0, 0)" stroke-opacity="0.0" stroke-linecap="round" stroke-linejoin="round"/>
    <path d="M 217.98272705078125 355.0519714355469 L 217.0371551513672 436.1037292480469 L 293.988037109375 437.0727844238281 L 293.99334716796875 355.9726867675781 L 217.98272705078125 355.0519714355469" stroke-width="2.0" fill="rgb(84, 111, 111)" opacity="0.9990947" stroke="rgb(0, 0, 0)" stroke-opacity="0.0" stroke-linecap="round" stroke-linejoin="round"/>
    <path d="M 117.44027709960938 188.46859741210938 C 114.71051025390625 197.18023681640625 124.26423645019531 203.22738647460938 131.98944091796875 198.00927734375 L 254.97900390625 74.97737884521484 L 256.70819091796875 74.32038116455078 L 375.5486755371094 193.56214904785156 C 380.6537780761719 198.57421875 388.2547607421875 203.45252990722656 394.05419921875 196.06988525390625 L 392.94207763671875 186.0643768310547 L 258.9662170410156 53.03449249267578 L 250.89254760742188 54.86609649658203 L 117.44027709960938 188.46859741210938" stroke-width="2.0" fill="rgb(244, 87, 83)" opacity="0.8472838" stroke="rgb(0, 0, 0)" stroke-opacity="0.0" stroke-linecap="round" stroke-linejoin="round"/>
    <path d="M 399.1212463378906 349.9316101074219 L 389.38909912109375 361.0304870605469 C 388.98321533203125 375.03033447265625 390.629150390625 388.4930725097656 387.3079528808594 402.26617431640625 C 383.4555358886719 405.9583740234375 386.7966613769531 398.64605712890625 385.3242492675781 397.2318420410156 L 375.0641174316406 397.6839294433594 L 375.0528869628906 416.5626220703125 C 380.0196838378906 417.8062438964844 384.4331970214844 414.63385009765625 389.2799072265625 418.93023681640625 L 389.2543029785156 436.976806640625 C 396.11492919921875 437.6651611328125 404.1767272949219 438.47003173828125 411.7804260253906 435.99664306640625 L 411.75701904296875 417.950927734375 L 423.2464904785156 418.8354797363281 L 423.1931457519531 436.9704895019531 L 444.9935607910156 436.93695068359375 L 444.99359130859375 419.9480285644531 C 449.2095642089844 415.376953125 453.4629211425781 419.8802185058594 457.9126892089844 416.9662780761719 C 459.0914611816406 409.33367919921875 459.92132568359375 402.49395751953125 456.8498840332031 396.60870361328125 L 445.95745849609375 396.5017395019531 L 443.9491271972656 358.4379577636719 C 438.43231201171875 354.2474060058594 435.3847351074219 344.0633850097656 429.5121154785156 353.4840087890625 C 417.78790283203125 367.5486145019531 424.74847412109375 381.7634582519531 423.11962890625 396.3551330566406 L 413.1764221191406 396.80987548828125 C 409.2774963378906 385.0126037597656 413.1325988769531 374.3731689453125 411.80865478515625 361.170654296875 C 409.23785400390625 357.3546142578125 404.95684814453125 350.237548828125 399.1212463378906 349.9316101074219" stroke-width="2.0" fill="rgb(169, 140, 94)" opacity="0.98158026" stroke="rgb(0, 0, 0)" stroke-opacity="0.0" stroke-linecap="round" stroke-linejoin="round"/>
    <path d="M 78.0516128540039 348.95379638671875 L 67.19483947753906 361.6418151855469 L 67.29363250732422 395.9117126464844 C 62.605377197265625 399.4178771972656 58.28592300415039 393.2247009277344 53.24306869506836 398.5987243652344 L 53.226768493652344 414.3121032714844 C 56.263668060302734 419.8108825683594 61.99227523803711 413.4537658691406 66.25176239013672 418.7245788574219 C 67.9060287475586 423.87652587890625 64.34602355957031 432.985107421875 68.52012634277344 437.9235534667969 L 88.94085693359375 436.9999084472656 C 89.87675476074219 429.0531005859375 86.82193756103516 424.1314392089844 90.90482330322266 417.8952941894531 C 94.46815490722656 418.8258056640625 96.57472229003906 415.8739318847656 100.20643615722656 419.88238525390625 L 100.18374633789062 436.9994201660156 L 121.04313659667969 437.9424133300781 L 123.03392028808594 419.0266418457031 C 127.34065246582031 415.8514709472656 131.5966339111328 418.5328063964844 135.46734619140625 415.84649658203125 L 135.95448303222656 397.06011962890625 C 130.23141479492188 394.2309875488281 123.31195831298828 400.7921142578125 122.02082824707031 392.3985290527344 L 122.0126953125 360.0148010253906 L 112.01534271240234 349.0246887207031 C 107.05054473876953 352.2122497558594 104.27133178710938 358.19500732421875 100.1897964477539 361.58514404296875 L 100.18763732910156 395.4689025878906 C 97.89730072021484 399.0488586425781 94.18399810791016 395.783203125 90.73606872558594 396.5712890625 C 86.39127349853516 384.3996276855469 90.28488159179688 373.800048828125 88.98578643798828 360.0000915527344 L 78.0516128540039 348.95379638671875" stroke-width="2.0" fill="rgb(174, 145, 92)" opacity="0.9541929" stroke="rgb(0, 0, 0)" stroke-opacity="0.0" stroke-linecap="round" stroke-linejoin="round"/>
    <path d="M 260.5135192871094 237.60130310058594 L 260.4844970703125 296.0535888671875 L 328.1653747558594 296.7768249511719 C 328.901611328125 275.9815979003906 330.7987365722656 255.66888427734375 327.2253723144531 236.17115783691406 L 260.5135192871094 237.60130310058594" stroke-width="2.0" fill="rgb(49, 188, 252)" opacity="1.0115942" stroke="rgb(0, 0, 0)" stroke-opacity="0.0" stroke-linecap="round" stroke-linejoin="round"/>
    <path d="M 183.2345733642578 237.2770538330078 L 183.97036743164062 296.77734375 L 251.86514282226562 296.06829833984375 L 251.85977172851562 237.27365112304688 L 183.2345733642578 237.2770538330078" stroke-width="2.0" fill="rgb(48, 189, 253)" opacity="1.0109799" stroke="rgb(0, 0, 0)" stroke-opacity="0.0" stroke-linecap="round" stroke-linejoin="round"/>
    <path d="M 255.7140655517578 126.78067016601562 C 245.1840057373047 126.72942352294922 229.8380889892578 137.1949920654297 227.7381591796875 149.88482666015625 C 223.90357971191406 161.71310424804688 233.98956298828125 181.1556854248047 250.28387451171875 183.95875549316406 C 263.06427001953125 187.50393676757812 281.15008544921875 178.2438507080078 284.4812927246094 162.7344512939453 C 286.7681579589844 150.01124572753906 281.22021484375 134.01861572265625 265.5614318847656 128.5644989013672 L 255.7140655517578 126.78067016601562" stroke-width="2.0" fill="rgb(268, 271, 271)" opacity="0.9663998" stroke="rgb(0, 0, 0)" stroke-opacity="0.0" stroke-linecap="round" stroke-linejoin="round"/>
    <path d="M 431.5785217285156 349.6175231933594 L 422.9309997558594 361.1293029785156 L 423.2654113769531 435.9409484863281 L 444.99273681640625 436.30499267578125 L 445.0243225097656 360.06689453125 C 441.61822509765625 357.0138854980469 437.11700439453125 350.0339050292969 431.5785217285156 349.6175231933594" stroke-width="2.0" fill="rgb(194, 156, 104)" opacity="0.5882976" stroke="rgb(0, 0, 0)" stroke-opacity="0.0" stroke-linecap="round" stroke-linejoin="round"/>
    <path d="M 400.9096984863281 348.997314453125 L 389.26470947265625 360.9512023925781 L 389.2766418457031 435.6841735839844 L 407.91851806640625 437.71185302734375 C 411.1495361328125 436.4231262207031 410.44537353515625 437.1577453613281 411.83551025390625 433.8535461425781 L 411.9446716308594 363.2655944824219 C 409.43035888671875 358.19378662109375 406.07220458984375 351.74273681640625 400.9096984863281 348.997314453125" stroke-width="2.0" fill="rgb(201, 130, 102)" opacity="0.57588226" stroke="rgb(0, 0, 0)" stroke-opacity="0.0" stroke-linecap="round" stroke-linejoin="round"/>
    <path d="M 78.01649475097656 348.9658203125 L 67.11441802978516 360.5758361816406 L 67.23436737060547 436.9034423828125 L 88.98548889160156 435.77154541015625 L 88.99695587158203 360.0017395019531 L 78.01649475097656 348.9658203125" stroke-width="2.0" fill="rgb(195, 155, 102)" opacity="0.5790072" stroke="rgb(0, 0, 0)" stroke-opacity="0.0" stroke-linecap="round" stroke-linejoin="round"/>
    <path d="M 110.0969467163086 349.14764404296875 L 100.18914794921875 360.3891296386719 L 100.19438171386719 435.65032958984375 L 122.0053939819336 436.9770202636719 L 122.00794219970703 359.0643310546875 L 110.0969467163086 349.14764404296875" stroke-width="2.0" fill="rgb(199, 128, 99)" opacity="0.53611606" stroke="rgb(0, 0, 0)" stroke-opacity="0.0" stroke-linecap="round" stroke-linejoin="round"/>
    <path d="M 122.490478515625 397.31732177734375 L 122.01565551757812 417.0735778808594 L 136.07855224609375 418.0285949707031 L 137.0504608154297 397.1680603027344 L 122.490478515625 397.31732177734375" stroke-width="2.0" fill="rgb(169, 135, 85)" opacity="1.6621041" stroke="rgb(0, 0, 0)" stroke-opacity="0.0" stroke-linecap="round" stroke-linejoin="round"/>
    <path d="M 53.27754592895508 397.7147216796875 L 53.23627853393555 417.0425109863281 L 65.2523422241211 418.0554504394531 L 66.969970703125 397.59521484375 L 53.27754592895508 397.7147216796875" stroke-width="2.0" fill="rgb(170, 134, 89)" opacity="1.2302744" stroke="rgb(0, 0, 0)" stroke-opacity="0.0" stroke-linecap="round" stroke-linejoin="round"/>
    <path d="M 375.06494140625 397.24090576171875 L 375.05767822265625 417.91583251953125 L 387.96539306640625 417.900390625 L 388.8098449707031 397.2777404785156 L 375.06494140625 397.24090576171875" stroke-width="2.0" fill="rgb(164, 125, 78)" opacity="1.0521368" stroke="rgb(0, 0, 0)" stroke-opacity="0.0" stroke-linecap="round" stroke-linejoin="round"/>
    <path d="M 123.5340805053711 418.1250915527344 L 122.92588806152344 436.6979675292969 L 135.8805694580078 436.70166015625 L 135.87184143066406 419.0121154785156 L 123.5340805053711 418.1250915527344" stroke-width="2.0" fill="rgb(269, 268, 246)" opacity="0.57714516" stroke="rgb(0, 0, 0)" stroke-opacity="0.0" stroke-linecap="round" stroke-linejoin="round"/>
    <path d="M 445.22821044921875 397.354736328125 L 445.1056823730469 417.0148620605469 L 456.9617919921875 417.9847717285156 C 461.1627197265625 411.6405944824219 457.535888671875 405.140380859375 458.6841125488281 397.41131591796875 L 445.22821044921875 397.354736328125" stroke-width="2.0" fill="rgb(171, 134, 86)" opacity="1.1693228" stroke="rgb(0, 0, 0)" stroke-opacity="0.0" stroke-linecap="round" stroke-linejoin="round"/>
  </g>
</svg>
