<?xml version="1.0" ?>
<svg xmlns="http://www.w3.org/2000/svg" version="1.1" width="512" height="384">
  <defs/>
  <g>
    <path d="M 170.6551513671875 316.9525451660156 C 161.22988891601562 360.4085388183594 160.66831970214844 364.5667724609375 128.7033233642578 366.0264892578125 C 98.67036437988281 362.66552734375 95.92781829833984 358.2870788574219 90.04229736328125 347.2618408203125 C 93.03575897216797 295.8633728027344 94.0347671508789 291.2828063964844 112.35936737060547 277.8586730957031 C 165.84844970703125 279.5697021484375 170.52719116210938 287.6593322753906 170.6551513671875 316.9525451660156" stroke-width="0.0" fill="rgb(138, 173, 160)" opacity="0.034892518" stroke="rgb(174, 55, 90)" stroke-opacity="0.32693404" stroke-linecap="round" stroke-linejoin="round"/>
    <path d="M 247.0 113.0 C 246.3301239013672 115.5 244.5 117.33012390136719 242.0 118.0 C 239.5 117.33012390136719 237.6698760986328 115.5 237.0 113.0 C 237.6698760986328 110.5 239.5 108.66987609863281 242.0 108.0 C 244.5 108.66987609863281 246.3301239013672 110.5 247.0 113.0" stroke-width="0.0" fill="rgb(255, 243, 224)" opacity="1.0" stroke="rgb(21, 153, 155)" stroke-opacity="0.95672476" stroke-linecap="round" stroke-linejoin="round"/>
    <path d="M 430.0 88.0 C 429.33013916015625 90.5 427.5 92.33012390136719 425.0 93.0 C 422.5 92.33012390136719 420.66986083984375 90.5 420.0 88.0 C 420.66986083984375 85.5 422.5 83.66987609863281 425.0 83.0 C 427.5 83.66987609863281 429.33013916015625 85.5 430.0 88.0" stroke-width="0.0" fill="rgb(255, 255, 255)" opacity="1.0" stroke="rgb(148, 52, 227)" stroke-opacity="0.7890103" stroke-linecap="round" stroke-linejoin="round"/>
  </g>
</svg>
