<?xml version="1.0" ?>
<svg xmlns="http://www.w3.org/2000/svg" version="1.1" width="512" height="384">
  <defs/>
  <g>
    <path d="M 198.73086547851562 321.8702087402344 C 195.64990234375 397.7714538574219 197.34893798828125 392.2629699707031 144.7093505859375 387.8294677734375 C 84.09488677978516 386.276611328125 81.6046142578125 388.9985656738281 37.79049301147461 375.3288879394531 C 18.677873611450195 254.75418090820312 17.5518798828125 245.35467529296875 38.49279022216797 252.60084533691406 C 202.85911560058594 246.3526611328125 199.12576293945312 243.17056274414062 198.73086547851562 321.8702087402344" stroke-width="0.0" fill="rgb(39, 165, 92)" opacity="0.40664694" stroke="rgb(174, 55, 90)" stroke-opacity="0.32693404" stroke-linecap="round" stroke-linejoin="round"/>
    <path d="M 261.86962890625 95.6850814819336 C 261.4385986328125 128.00926208496094 265.84954833984375 151.00698852539062 235.02713012695312 154.47134399414062 C 204.0326690673828 150.91970825195312 204.3480682373047 117.6344223022461 207.22427368164062 80.6869888305664 C 227.2567596435547 82.23651885986328 224.07421875 79.49810791015625 246.1742401123047 82.34817504882812 C 258.5220031738281 89.91022491455078 254.60369873046875 95.66909790039062 261.86962890625 95.6850814819336" stroke-width="0.0" fill="rgb(255, 247, 234)" opacity="0.9225606" stroke="rgb(21, 153, 155)" stroke-opacity="0.95672476" stroke-linecap="round" stroke-linejoin="round"/>
    <path d="M 478.9243469238281 84.73297119140625 C 476.09100341796875 120.43012237548828 461.0026550292969 104.48543548583984 429.7286682128906 108.80304718017578 C 378.100830078125 107.83662414550781 370.7164611816406 114.91561126708984 376.8252868652344 74.923828125 C 400.8785095214844 64.79907989501953 412.1871643066406 87.60433959960938 434.0918884277344 52.445152282714844 C 454.8152770996094 42.29505157470703 478.1717224121094 43.7061767578125 478.9243469238281 84.73297119140625" stroke-width="0.0" fill="rgb(255, 255, 255)" opacity="0.817236" stroke="rgb(148, 52, 227)" stroke-opacity="0.7890103" stroke-linecap="round" stroke-linejoin="round"/>
    <path d="M 511.6361389160156 273.2155456542969 C 521.3135375976562 354.49786376953125 520.548828125 358.8139343261719 508.1856994628906 405.6278381347656 C 414.9667053222656 392.6643371582031 440.5775451660156 352.95574951171875 388.7069396972656 322.85211181640625 C 379.6792907714844 270.1994323730469 322.6012878417969 289.4595031738281 376.63323974609375 213.3922576904297 C 434.0981140136719 104.59413146972656 430.6529846191406 138.45309448242188 511.6361389160156 273.2155456542969" stroke-width="0.0" fill="rgb(0, 45, 80)" opacity="0.5821853" stroke="rgb(173, 128, 75)" stroke-opacity="0.7306282" stroke-linecap="round" stroke-linejoin="round"/>
    <path d="M 423.284912109375 331.67620849609375 C 467.9993591308594 399.66619873046875 463.1387634277344 402.86767578125 317.9141540527344 399.6766662597656 C 221.39544677734375 413.2115173339844 195.25460815429688 472.0866394042969 185.79312133789062 262.4555358886719 C 194.47535705566406 190.11688232421875 297.9081726074219 312.6656799316406 352.097900390625 214.92552185058594 C 445.4632263183594 227.68435668945312 412.92547607421875 259.1291809082031 423.284912109375 331.67620849609375" stroke-width="0.0" fill="rgb(117, 158, 143)" opacity="0.8325239" stroke="rgb(26, 3, 175)" stroke-opacity="0.05890515" stroke-linecap="round" stroke-linejoin="round"/>
    <path d="M 209.51077270507812 79.73135375976562 C 128.74581909179688 118.12633514404297 92.75678253173828 139.47850036621094 98.01981353759766 171.36474609375 C 75.21178436279297 245.9119873046875 8.845425605773926 255.88525390625 -15.199790954589844 256.020263671875 C -18.580976486206055 30.74292755126953 -18.47357749938965 22.323200225830078 1.4124218225479126 -10.532054901123047 C 196.90309143066406 -14.33515453338623 213.42213439941406 -17.374784469604492 209.51077270507812 79.73135375976562" stroke-width="0.0" fill="rgb(247, 185, 97)" opacity="0.6231102" stroke="rgb(92, 146, 199)" stroke-opacity="0.9990771" stroke-linecap="round" stroke-linejoin="round"/>
    <path d="M 74.90570068359375 349.5384216308594 C 147.4375 423.47650146484375 119.20086669921875 430.6025390625 63.07166290283203 361.1953430175781 C 43.79127502441406 261.9228210449219 69.78096008300781 301.3511962890625 36.58694839477539 328.8929138183594 C 54.43167495727539 314.0385437011719 72.35865020751953 284.267822265625 13.0536527633667 251.25140380859375 C 70.21473693847656 253.31869506835938 72.6836166381836 291.49700927734375 74.90570068359375 349.5384216308594" stroke-width="0.0" fill="rgb(0, 85, 155)" opacity="0.966974" stroke="rgb(178, 112, 109)" stroke-opacity="0.4463792" stroke-linecap="round" stroke-linejoin="round"/>
    <path d="M 267.58782958984375 265.43731689453125 C 268.83355712890625 265.46630859375 268.57891845703125 265.376708984375 253.60365295410156 265.3880310058594 C 249.13133239746094 265.19873046875 248.83029174804688 267.73577880859375 251.91635131835938 257.1752624511719 C 257.436279296875 233.6607666015625 258.50653076171875 230.08929443359375 258.7928771972656 229.43707275390625 C 260.25469970703125 235.57553100585938 262.8954772949219 246.30841064453125 267.58782958984375 265.43731689453125" stroke-width="0.0" fill="rgb(22, 91, 28)" opacity="0.9827696" stroke="rgb(11, 245, 87)" stroke-opacity="0.36675048" stroke-linecap="round" stroke-linejoin="round"/>
    <path d="M 444.9320068359375 154.38392639160156 C 494.87152099609375 272.66558837890625 457.41009521484375 246.42929077148438 432.0737609863281 251.74220275878906 C 323.7415466308594 250.8154296875 320.5545349121094 253.7753143310547 317.7939147949219 251.3988037109375 C 333.3714904785156 224.16966247558594 339.7480163574219 213.28250122070312 339.2518005371094 214.72117614746094 C 412.7708435058594 214.54859924316406 337.0439453125 221.31005859375 444.9320068359375 154.38392639160156" stroke-width="0.0" fill="rgb(83, 109, 121)" opacity="0.9620491" stroke="rgb(225, 0, 136)" stroke-opacity="0.6593078" stroke-linecap="round" stroke-linejoin="round"/>
    <path d="M 190.92770385742188 271.4670104980469 C 191.41213989257812 280.6957092285156 191.0056915283203 274.1413879394531 190.86459350585938 269.8288879394531 C 171.28134155273438 271.20721435546875 172.69424438476562 269.5331115722656 172.93687438964844 269.0928039550781 C 178.02993774414062 249.32554626464844 182.4200897216797 232.12557983398438 181.7724609375 233.6775360107422 C 183.8444366455078 243.03797912597656 186.7910614013672 252.60667419433594 190.92770385742188 271.4670104980469" stroke-width="0.0" fill="rgb(25, 93, 30)" opacity="0.98134255" stroke="rgb(191, 230, 91)" stroke-opacity="0.9555391" stroke-linecap="round" stroke-linejoin="round"/>
    <path d="M 284.9594421386719 288.0881652832031 C 287.39056396484375 299.7968444824219 286.19342041015625 294.2865295410156 285.857177734375 292.578369140625 C 264.5317077636719 292.10986328125 267.73126220703125 293.9918212890625 268.6485290527344 289.054931640625 C 271.7573547363281 274.2405700683594 274.1790466308594 268.17169189453125 276.6676330566406 257.2003479003906 C 277.028076171875 255.10772705078125 279.5715026855469 269.04864501953125 284.9594421386719 288.0881652832031" stroke-width="0.0" fill="rgb(23, 91, 27)" opacity="0.9753127" stroke="rgb(92, 79, 90)" stroke-opacity="0.3968215" stroke-linecap="round" stroke-linejoin="round"/>
    <path d="M 253.2399139404297 302.08184814453125 C 256.0528869628906 311.94683837890625 254.91964721679688 308.2759094238281 254.18212890625 306.3190612792969 C 231.73574829101562 305.0100402832031 235.84254455566406 309.56951904296875 238.0229949951172 298.10992431640625 C 241.91075134277344 282.3359680175781 244.07203674316406 272.9399719238281 245.68165588378906 269.6478271484375 C 244.5531463623047 270.13555908203125 248.70681762695312 282.9189453125 253.2399139404297 302.08184814453125" stroke-width="0.0" fill="rgb(25, 92, 30)" opacity="0.9772954" stroke="rgb(98, 221, 60)" stroke-opacity="0.094111554" stroke-linecap="round" stroke-linejoin="round"/>
    <path d="M 226.69227600097656 295.2102966308594 C 227.7349853515625 299.6781311035156 226.15916442871094 295.54986572265625 225.5406951904297 297.2288513183594 C 203.60336303710938 297.06011962890625 205.6218719482422 297.2978210449219 208.770263671875 297.20111083984375 C 215.040771484375 275.2370300292969 215.990234375 264.1829528808594 218.23910522460938 261.42413330078125 C 219.00900268554688 265.60589599609375 222.60777282714844 277.1931457519531 226.69227600097656 295.2102966308594" stroke-width="0.0" fill="rgb(24, 92, 30)" opacity="0.9790402" stroke="rgb(36, 18, 242)" stroke-opacity="0.28420427" stroke-linecap="round" stroke-linejoin="round"/>
    <path d="M 200.43612670898438 308.8635559082031 C 200.05453491210938 305.0102844238281 201.587646484375 306.01153564453125 190.23593139648438 305.83282470703125 C 182.1582489013672 306.99041748046875 181.54629516601562 306.4386901855469 182.0395050048828 305.91448974609375 C 183.759521484375 298.0026550292969 185.60348510742188 291.109619140625 190.94406127929688 269.67413330078125 C 191.6591339111328 272.379638671875 194.90467834472656 285.4463806152344 200.43612670898438 308.8635559082031" stroke-width="0.0" fill="rgb(25, 91, 30)" opacity="0.974977" stroke="rgb(95, 10, 183)" stroke-opacity="0.7872578" stroke-linecap="round" stroke-linejoin="round"/>
    <path d="M 230.14877319335938 243.25181579589844 C 227.24734497070312 255.54798889160156 227.83055114746094 251.85687255859375 226.36058044433594 252.3957061767578 C 206.96328735351562 251.12667846679688 213.44334411621094 257.1102294921875 208.45916748046875 239.21218872070312 C 197.99635314941406 220.67015075683594 210.17138671875 221.64976501464844 217.78428649902344 238.9827117919922 C 229.5695343017578 239.46087646484375 235.0323486328125 237.1781005859375 230.14877319335938 243.25181579589844" stroke-width="0.0" fill="rgb(248, 240, 219)" opacity="1.0" stroke="rgb(111, 163, 239)" stroke-opacity="0.22749305" stroke-linecap="round" stroke-linejoin="round"/>
    <path d="M 74.0 48.0 C 73.33012390136719 50.5 71.5 52.33012771606445 69.0 53.0 C 66.5 52.33012771606445 64.66987609863281 50.5 64.0 48.0 C 64.66987609863281 45.5 66.5 43.66987228393555 69.0 43.0 C 71.5 43.66987228393555 73.33012390136719 45.5 74.0 48.0" stroke-width="0.0" fill="rgb(255, 244, 225)" opacity="1.0" stroke="rgb(32, 125, 36)" stroke-opacity="0.81341887" stroke-linecap="round" stroke-linejoin="round"/>
    <path d="M 22.0 328.0 C 21.330127716064453 330.5 19.5 332.33013916015625 17.0 333.0 C 14.5 332.33013916015625 12.669873237609863 330.5 12.0 328.0 C 12.669873237609863 325.5 14.5 323.66986083984375 17.0 323.0 C 19.5 323.66986083984375 21.330127716064453 325.5 22.0 328.0" stroke-width="0.0" fill="rgb(165, 214, 167)" opacity="1.0" stroke="rgb(161, 181, 119)" stroke-opacity="0.10542205" stroke-linecap="round" stroke-linejoin="round"/>
    <path d="M 116.0 162.0 C 115.33012390136719 164.5 113.5 166.3301239013672 111.0 167.0 C 108.5 166.3301239013672 106.66987609863281 164.5 106.0 162.0 C 106.66987609863281 159.5 108.5 157.6698760986328 111.0 157.0 C 113.5 157.6698760986328 115.33012390136719 159.5 116.0 162.0" stroke-width="0.0" fill="rgb(255, 204, 128)" opacity="1.0" stroke="rgb(132, 40, 242)" stroke-opacity="0.08848768" stroke-linecap="round" stroke-linejoin="round"/>
    <path d="M 133.0 260.0 C 132.3301239013672 262.5 130.5 264.33013916015625 128.0 265.0 C 125.5 264.33013916015625 123.66987609863281 262.5 123.0 260.0 C 123.66987609863281 257.5 125.5 255.6698760986328 128.0 255.0 C 130.5 255.6698760986328 132.3301239013672 257.5 133.0 260.0" stroke-width="0.0" fill="rgb(84, 110, 122)" opacity="1.0" stroke="rgb(84, 77, 254)" stroke-opacity="0.843105" stroke-linecap="round" stroke-linejoin="round"/>
    <path d="M 135.0 180.0 C 134.3301239013672 182.5 132.5 184.3301239013672 130.0 185.0 C 127.5 184.3301239013672 125.66987609863281 182.5 125.0 180.0 C 125.66987609863281 177.5 127.5 175.6698760986328 130.0 175.0 C 132.5 175.6698760986328 134.3301239013672 177.5 135.0 180.0" stroke-width="0.0" fill="rgb(75, 103, 117)" opacity="1.0" stroke="rgb(147, 24, 39)" stroke-opacity="0.73570454" stroke-linecap="round" stroke-linejoin="round"/>
    <path d="M 236.0 262.0 C 235.3301239013672 264.5 233.5 266.33013916015625 231.0 267.0 C 228.5 266.33013916015625 226.6698760986328 264.5 226.0 262.0 C 226.6698760986328 259.5 228.5 257.66986083984375 231.0 257.0 C 233.5 257.66986083984375 235.3301239013672 259.5 236.0 262.0" stroke-width="0.0" fill="rgb(27, 94, 32)" opacity="1.0" stroke="rgb(55, 190, 158)" stroke-opacity="0.19434676" stroke-linecap="round" stroke-linejoin="round"/>
    <path d="M 431.0 153.0 C 430.33013916015625 155.5 428.5 157.3301239013672 426.0 158.0 C 423.5 157.3301239013672 421.66986083984375 155.5 421.0 153.0 C 421.66986083984375 150.5 423.5 148.6698760986328 426.0 148.0 C 428.5 148.6698760986328 430.33013916015625 150.5 431.0 153.0" stroke-width="0.0" fill="rgb(200, 208, 212)" opacity="1.0" stroke="rgb(62, 234, 133)" stroke-opacity="0.14224795" stroke-linecap="round" stroke-linejoin="round"/>
    <path d="M 5.0 319.0 C 4.330127239227295 321.5 2.5 323.33013916015625 3.0616169991140216e-16 324.0 C -2.5 323.33013916015625 -4.330127239227295 321.5 -5.0 319.0 C -4.330127239227295 316.5 -2.5 314.66986083984375 -9.184850467946473e-16 314.0 C 2.5 314.66986083984375 4.330127239227295 316.5 5.0 319.0" stroke-width="0.0" fill="rgb(243, 205, 132)" opacity="1.0" stroke="rgb(158, 107, 216)" stroke-opacity="0.6266007" stroke-linecap="round" stroke-linejoin="round"/>
    <path d="M 209.0 250.0 C 208.3301239013672 252.5 206.5 254.3301239013672 204.0 255.0 C 201.5 254.3301239013672 199.6698760986328 252.5 199.0 250.0 C 199.6698760986328 247.5 201.5 245.6698760986328 204.0 245.0 C 206.5 245.6698760986328 208.3301239013672 247.5 209.0 250.0" stroke-width="0.0" fill="rgb(27, 94, 32)" opacity="1.0" stroke="rgb(131, 211, 224)" stroke-opacity="0.8670483" stroke-linecap="round" stroke-linejoin="round"/>
    <path d="M 247.0 248.0 C 246.3301239013672 250.5 244.5 252.3301239013672 242.0 253.0 C 239.5 252.3301239013672 237.6698760986328 250.5 237.0 248.0 C 237.6698760986328 245.5 239.5 243.6698760986328 242.0 243.0 C 244.5 243.6698760986328 246.3301239013672 245.5 247.0 248.0" stroke-width="0.0" fill="rgb(255, 243, 224)" opacity="1.0" stroke="rgb(171, 17, 115)" stroke-opacity="0.8819992" stroke-linecap="round" stroke-linejoin="round"/>
    <path d="M 199.0 247.0 C 198.3301239013672 249.5 196.5 251.3301239013672 194.0 252.0 C 191.5 251.3301239013672 189.6698760986328 249.5 189.0 247.0 C 189.6698760986328 244.5 191.5 242.6698760986328 194.0 242.0 C 196.5 242.6698760986328 198.3301239013672 244.5 199.0 247.0" stroke-width="0.0" fill="rgb(255, 243, 224)" opacity="1.0" stroke="rgb(201, 5, 200)" stroke-opacity="0.5542154" stroke-linecap="round" stroke-linejoin="round"/>
    <path d="M 513.0 257.0 C 512.3301391601562 259.5 510.5 261.33013916015625 508.0 262.0 C 505.5 261.33013916015625 503.66986083984375 259.5 503.0 257.0 C 503.66986083984375 254.5 505.5 252.6698760986328 508.0 252.0 C 510.5 252.6698760986328 512.3301391601562 254.5 513.0 257.0" stroke-width="0.0" fill="rgb(165, 214, 167)" opacity="1.0" stroke="rgb(71, 221, 54)" stroke-opacity="0.029642632" stroke-linecap="round" stroke-linejoin="round"/>
    <path d="M 147.0 129.0 C 146.3301239013672 131.5 144.5 133.3301239013672 142.0 134.0 C 139.5 133.3301239013672 137.6698760986328 131.5 137.0 129.0 C 137.6698760986328 126.5 139.5 124.66987609863281 142.0 124.0 C 144.5 124.66987609863281 146.3301239013672 126.5 147.0 129.0" stroke-width="0.0" fill="rgb(255, 204, 128)" opacity="1.0" stroke="rgb(250, 187, 110)" stroke-opacity="0.4477895" stroke-linecap="round" stroke-linejoin="round"/>
    <path d="M 200.0 380.0 C 199.3301239013672 382.5 197.5 384.33013916015625 195.0 385.0 C 192.5 384.33013916015625 190.6698760986328 382.5 190.0 380.0 C 190.6698760986328 377.5 192.5 375.66986083984375 195.0 375.0 C 197.5 375.66986083984375 199.3301239013672 377.5 200.0 380.0" stroke-width="0.0" fill="rgb(165, 214, 167)" opacity="1.0" stroke="rgb(26, 75, 66)" stroke-opacity="0.6758255" stroke-linecap="round" stroke-linejoin="round"/>
    <path d="M 516.0 373.0 C 515.3301391601562 375.5 513.5 377.33013916015625 511.0 378.0 C 508.5 377.33013916015625 506.66986083984375 375.5 506.0 373.0 C 506.66986083984375 370.5 508.5 368.66986083984375 511.0 368.0 C 513.5 368.66986083984375 515.3301391601562 370.5 516.0 373.0" stroke-width="0.0" fill="rgb(164, 213, 167)" opacity="1.0" stroke="rgb(167, 173, 69)" stroke-opacity="0.121573105" stroke-linecap="round" stroke-linejoin="round"/>
    <path d="M 147.0 250.0 C 146.3301239013672 252.5 144.5 254.3301239013672 142.0 255.0 C 139.5 254.3301239013672 137.6698760986328 252.5 137.0 250.0 C 137.6698760986328 247.5 139.5 245.6698760986328 142.0 245.0 C 144.5 245.6698760986328 146.3301239013672 247.5 147.0 250.0" stroke-width="0.0" fill="rgb(255, 245, 228)" opacity="1.0" stroke="rgb(126, 252, 173)" stroke-opacity="0.11483802" stroke-linecap="round" stroke-linejoin="round"/>
  </g>
</svg>
