<?xml version="1.0" ?>
<svg xmlns="http://www.w3.org/2000/svg" version="1.1" width="512" height="352">
  <defs/>
  <g>
    <path d="M -10.0 -10.0 C -9.0 -10.0 512.0 0.0 513.0 0.0 C 514.0 0.0 512.0 352.0 513.0 352.0 C 513.0 353.0 0.0 352.0 0.0 353.0 C 0.0 352.0 0.0 353.0 -10.0 -10.0 L -10.0 -10.0" stroke-width="2.0" fill="rgb(188, 197, 191)" opacity="0.9536219"/>
    <path d="M 339.78387451171875 -99.7787094116211 C 267.9510192871094 95.7069320678711 436.24310302734375 117.00601959228516 480.1661682128906 170.74478149414062 C 464.77728271484375 156.53887939453125 434.73284912109375 129.96397399902344 369.4617919921875 -39.34393310546875 C 636.0861206054688 -17.128698348999023 572.5266723632812 52.84999465942383 515.7750244140625 199.10165405273438 C 520.2432250976562 209.7993927001953 558.1760864257812 268.2864074707031 509.051513671875 278.1253967285156 L 339.78387451171875 -99.7787094116211" stroke-width="2.0" fill="rgb(221, 251, 254)" opacity="0.30305395"/>
    <path d="M 343.85638427734375 29.667102813720703 C 343.7904968261719 30.749267578125 343.8805236816406 29.042648315429688 343.7975769042969 29.545366287231445 C 344.6150817871094 32.17389678955078 344.07586669921875 30.39386558532715 344.3174133300781 31.512056350708008 C 344.1915283203125 30.800090789794922 343.6055603027344 29.091915130615234 343.89324951171875 29.534175872802734 C 343.7175598144531 28.543113708496094 343.76934814453125 29.733884811401367 343.54656982421875 27.247480392456055 L 343.85638427734375 29.667102813720703" stroke-width="2.0" fill="rgb(253, 113, 60)" opacity="0.1855753"/>
    <path d="M 202.8416290283203 249.55612182617188 C 177.5724334716797 288.8931884765625 184.70455932617188 188.6487579345703 183.18357849121094 220.27650451660156 C 184.558837890625 238.34217834472656 179.58407592773438 218.5782928466797 177.84579467773438 209.97584533691406 C 187.45045471191406 232.5051727294922 182.19412231445312 262.22686767578125 193.21636962890625 256.94989013671875 C 156.96255493164062 156.5423583984375 165.0810546875 121.88014221191406 262.54193115234375 158.1102752685547 L 202.8416290283203 249.55612182617188" stroke-width="2.0" fill="rgb(4, 47, 11)" opacity="0.4880304"/>
    <path d="M 7.749145030975342 168.8899688720703 C 7.723201274871826 169.6355438232422 7.851974010467529 170.33131408691406 7.945845603942871 171.36431884765625 C 8.035140037536621 172.39614868164062 7.49416971206665 170.04269409179688 8.359807968139648 167.7387237548828 C 7.412382125854492 171.5145721435547 8.137880325317383 168.43215942382812 7.801769256591797 170.68922424316406 C 7.9442057609558105 170.85403442382812 7.95411491394043 171.9673309326172 8.062236785888672 173.8173370361328 L 7.749145030975342 168.8899688720703" stroke-width="2.0" fill="rgb(255, 57, 200)" opacity="0.052082602"/>
    <path d="M 308.7353820800781 30.9229736328125 C 308.1773986816406 31.35590171813965 308.0592041015625 31.575862884521484 308.5730285644531 31.045166015625 C 308.19384765625 31.464920043945312 308.69976806640625 30.945220947265625 308.5071716308594 31.153549194335938 C 308.0249328613281 31.563974380493164 308.5782775878906 31.088035583496094 308.459716796875 31.174333572387695 C 308.9255676269531 30.763439178466797 307.6054992675781 31.957889556884766 308.3057556152344 31.275197982788086 L 308.7353820800781 30.9229736328125" stroke-width="2.0" fill="rgb(187, 103, 187)" opacity="0.1898251"/>
    <path d="M 252.97328186035156 76.85719299316406 C 226.88519287109375 110.63761901855469 252.5117950439453 131.19944763183594 272.5188903808594 246.15206909179688 C 225.65382385253906 320.6042175292969 277.4542541503906 261.89605712890625 243.1565399169922 150.84170532226562 C 221.2357177734375 81.37952423095703 252.4626922607422 35.23908233642578 353.51666259765625 44.65455627441406 C 205.03482055664062 180.8357391357422 294.75738525390625 104.50879669189453 257.0355224609375 73.39411926269531 L 252.97328186035156 76.85719299316406" stroke-width="2.0" fill="rgb(130, 84, 56)" opacity="0.9521896"/>
    <path d="M 8.474352836608887 179.45054626464844 C 9.610732078552246 179.3085174560547 7.170544147491455 179.6916961669922 8.689187049865723 179.4436492919922 C 10.394632339477539 178.806640625 11.714523315429688 178.224609375 11.41077995300293 178.41651916503906 C 10.399614334106445 178.7174835205078 9.939640998840332 179.09014892578125 8.649203300476074 179.43580627441406 C 9.23767375946045 179.41574096679688 8.518807411193848 179.31178283691406 8.381145477294922 179.59658813476562 L 8.474352836608887 179.45054626464844" stroke-width="2.0" fill="rgb(31, 70, 165)" opacity="0.025764333"/>
  </g>
</svg>
