<?xml version="1.0" ?>
<svg xmlns="http://www.w3.org/2000/svg" version="1.1" width="512" height="506">
  <defs/>
  <g>
    <path d="M 341.5953369140625 122.71949768066406 C 143.14706420898438 24.226428985595703 209.59169006347656 251.00738525390625 114.69696044921875 255.53895568847656 C 171.5357666015625 67.59337615966797 97.98371124267578 191.8041229248047 99.86700439453125 84.79850769042969 C 137.58392333984375 81.23356628417969 129.1021728515625 85.16007232666016 302.39105224609375 83.90687561035156 C 309.3069152832031 85.6283187866211 372.7995910644531 67.82164001464844 341.5953369140625 122.71949768066406" stroke-width="0.0" fill="rgb(196, 136, 1)" opacity="0.660012" stroke="rgb(101, 163, 119)" stroke-opacity="0.74791884" stroke-linecap="round" stroke-linejoin="round"/>
    <path d="M 525.3283081054688 252.56996154785156 C 521.314453125 299.7782897949219 561.7398071289062 357.3348693847656 500.099853515625 376.02337646484375 C 499.8213806152344 290.5295104980469 500.64996337890625 265.1819763183594 499.2041931152344 274.7591247558594 C 499.174072265625 231.3351593017578 499.30224609375 224.3784942626953 499.1790771484375 223.0486602783203 C 545.6998901367188 222.566162109375 524.2008056640625 225.1640167236328 525.3283081054688 252.56996154785156" stroke-width="0.0" fill="rgb(255, 255, 255)" opacity="0.8191766" stroke="rgb(79, 236, 137)" stroke-opacity="0.4962154" stroke-linecap="round" stroke-linejoin="round"/>
    <path d="M 65.41526794433594 329.0439758300781 C 70.96394348144531 354.7281188964844 35.599945068359375 314.0436096191406 47.09108352661133 358.08709716796875 C -13.280816078186035 349.87713623046875 1.3193883895874023 350.61419677734375 -4.3782267570495605 345.2559814453125 C -13.494861602783203 292.46466064453125 -27.23362159729004 271.45263671875 78.51569366455078 255.48446655273438 C 82.61493682861328 324.31268310546875 35.142921447753906 308.63818359375 65.41526794433594 329.0439758300781" stroke-width="0.0" fill="rgb(237, 239, 238)" opacity="0.7035213" stroke="rgb(203, 185, 112)" stroke-opacity="0.7544576" stroke-linecap="round" stroke-linejoin="round"/>
    <path d="M 264.34033203125 317.2048034667969 C 215.85321044921875 323.9891662597656 241.75408935546875 322.2396545410156 230.13388061523438 255.93150329589844 C 232.8484344482422 335.2597351074219 200.60386657714844 375.5369567871094 194.43399047851562 387.3086242675781 C 199.63165283203125 186.23158264160156 183.89010620117188 227.40489196777344 212.13795471191406 221.6044921875 C 281.9131774902344 224.57801818847656 259.08233642578125 202.5874786376953 264.34033203125 317.2048034667969" stroke-width="0.0" fill="rgb(20, 29, 51)" opacity="0.8034596" stroke="rgb(116, 28, 218)" stroke-opacity="0.19748077" stroke-linecap="round" stroke-linejoin="round"/>
    <path d="M 356.9596252441406 460.67626953125 C 198.91941833496094 469.312744140625 170.1631317138672 484.4281311035156 339.6033630371094 420.5168762207031 C 70.27462005615234 409.12042236328125 310.6793212890625 481.8770751953125 134.12109375 459.7491760253906 C 134.5780792236328 237.17050170898438 122.93185424804688 349.91650390625 332.56292724609375 321.4442443847656 C 318.67462158203125 432.3632507324219 363.6007080078125 316.1494140625 356.9596252441406 460.67626953125" stroke-width="0.0" fill="rgb(221, 19, 9)" opacity="0.45497486" stroke="rgb(194, 220, 127)" stroke-opacity="0.067119196" stroke-linecap="round" stroke-linejoin="round"/>
    <path d="M 260.3067932128906 155.73500061035156 C 258.0254821777344 156.13397216796875 261.9367980957031 159.4266815185547 253.93626403808594 152.02041625976562 C 238.1980743408203 135.72032165527344 234.1779327392578 132.00694274902344 226.7322540283203 124.01507568359375 C 232.94729614257812 119.53583526611328 241.3868865966797 113.51971435546875 259.7061767578125 112.14217376708984 C 262.0318908691406 111.552490234375 260.0855712890625 110.1523208618164 260.3067932128906 155.73500061035156" stroke-width="0.0" fill="rgb(17, 3, 32)" opacity="0.8378403" stroke="rgb(90, 217, 138)" stroke-opacity="0.24322928" stroke-linecap="round" stroke-linejoin="round"/>
    <path d="M 331.6420593261719 438.1988220214844 C 315.7867736816406 374.05450439453125 339.3169860839844 306.6780700683594 315.58502197265625 273.7957458496094 C 270.4783935546875 279.1421813964844 326.61773681640625 239.3151397705078 271.43927001953125 279.77593994140625 C 292.79290771484375 210.01678466796875 188.06346130371094 223.2845001220703 330.4165344238281 221.9658660888672 C 333.0263671875 227.99659729003906 332.4372863769531 181.91943359375 331.6420593261719 438.1988220214844" stroke-width="0.0" fill="rgb(16, 15, 47)" opacity="0.7669239" stroke="rgb(121, 60, 84)" stroke-opacity="0.78433406" stroke-linecap="round" stroke-linejoin="round"/>
    <path d="M 447.870361328125 46.05970764160156 C 270.22772216796875 69.6784439086914 271.1807861328125 71.48611450195312 270.9324951171875 17.298349380493164 C 275.418212890625 6.855459690093994 259.8194274902344 6.426912307739258 255.97804260253906 5.335224628448486 C 262.6744079589844 -11.123547554016113 267.2767333984375 -10.748618125915527 307.98388671875 -22.86568832397461 C 372.1588439941406 -30.81678581237793 452.2752685546875 -106.94384002685547 447.870361328125 46.05970764160156" stroke-width="0.0" fill="rgb(255, 255, 255)" opacity="0.3660205" stroke="rgb(212, 156, 132)" stroke-opacity="0.9282028" stroke-linecap="round" stroke-linejoin="round"/>
    <path d="M 448.2205505371094 504.33447265625 C 341.9964599609375 580.2722778320312 289.22772216796875 520.3079223632812 263.96142578125 515.0216064453125 C 166.74224853515625 546.6474609375 89.21898651123047 623.6805419921875 78.88602447509766 460.925048828125 C 243.65875244140625 460.34320068359375 309.0505065917969 461.57012939453125 338.37872314453125 461.0738220214844 C 437.4858703613281 462.1759033203125 419.7980041503906 448.6127014160156 448.2205505371094 504.33447265625" stroke-width="0.0" fill="rgb(233, 235, 231)" opacity="0.977369" stroke="rgb(180, 114, 12)" stroke-opacity="0.856699" stroke-linecap="round" stroke-linejoin="round"/>
    <path d="M 273.3865661621094 40.85637664794922 C 191.37062072753906 67.38951110839844 150.85118103027344 56.41539001464844 156.41798400878906 9.937068939208984 C 256.9254150390625 10.03536319732666 243.5865020751953 9.958311080932617 96.70186614990234 9.929203987121582 C 152.248779296875 -89.31204223632812 224.43759155273438 -16.700410842895508 260.80963134765625 -7.924004554748535 C 272.3173828125 -9.374191284179688 278.26776123046875 -9.253750801086426 273.3865661621094 40.85637664794922" stroke-width="0.0" fill="rgb(255, 255, 255)" opacity="0.45664757" stroke="rgb(166, 236, 134)" stroke-opacity="0.43417332" stroke-linecap="round" stroke-linejoin="round"/>
    <path d="M 195.6616973876953 250.51812744140625 C 195.50390625 292.1941223144531 195.44305419921875 340.0516662597656 195.4578399658203 380.5745544433594 C 122.87908935546875 376.6455383300781 111.4326400756836 375.9991149902344 178.29232788085938 379.6988220214844 C 179.57554626464844 237.53958129882812 177.73789978027344 213.0518035888672 178.56675720214844 201.89698791503906 C 199.94943237304688 225.66262817382812 194.50021362304688 209.04994201660156 195.6616973876953 250.51812744140625" stroke-width="0.0" fill="rgb(249, 255, 253)" opacity="0.80730236" stroke="rgb(171, 106, 77)" stroke-opacity="0.14955758" stroke-linecap="round" stroke-linejoin="round"/>
    <path d="M 452.35552978515625 404.9244079589844 C 452.13232421875 478.8341369628906 452.6880798339844 457.6886291503906 451.64520263671875 461.09332275390625 C 423.3929748535156 458.62371826171875 431.9615478515625 471.4002685546875 430.4392395019531 430.06622314453125 C 431.3802490234375 363.30841064453125 432.2879333496094 415.5163879394531 404.6769714355469 374.56976318359375 C 484.7407531738281 386.8472900390625 444.9751892089844 351.7037658691406 452.35552978515625 404.9244079589844" stroke-width="0.0" fill="rgb(7, 0, 29)" opacity="0.7106984" stroke="rgb(82, 221, 185)" stroke-opacity="0.95169175" stroke-linecap="round" stroke-linejoin="round"/>
    <path d="M 328.59735107421875 141.5392608642578 C 344.2336730957031 174.5753936767578 310.14776611328125 179.84039306640625 312.6834716796875 151.1051483154297 C 308.283935546875 130.85476684570312 304.8430480957031 126.40695190429688 289.419921875 118.57769012451172 C 262.5829772949219 127.54736328125 289.0664367675781 98.75434112548828 289.54766845703125 104.8645248413086 C 311.0766906738281 114.93112182617188 317.2816467285156 121.39395141601562 328.59735107421875 141.5392608642578" stroke-width="0.0" fill="rgb(223, 255, 255)" opacity="1.0" stroke="rgb(102, 11, 89)" stroke-opacity="0.43013233" stroke-linecap="round" stroke-linejoin="round"/>
    <path d="M 231.30845642089844 425.32415771484375 C 244.61032104492188 421.54315185546875 271.67333984375 410.6752014160156 262.79534912109375 431.0007019042969 C 207.42835998535156 430.5885925292969 218.7346649169922 432.59161376953125 228.62046813964844 426.46295166015625 C 256.0181579589844 415.84100341796875 274.0121765136719 420.4244689941406 192.41903686523438 419.2541198730469 C 187.14492797851562 451.998779296875 202.55398559570312 438.3193664550781 231.30845642089844 425.32415771484375" stroke-width="0.0" fill="rgb(246, 253, 253)" opacity="0.9349408" stroke="rgb(104, 239, 72)" stroke-opacity="0.58581513" stroke-linecap="round" stroke-linejoin="round"/>
    <path d="M 432.7125244140625 270.6314697265625 C 334.93963623046875 186.36537170410156 442.8307800292969 389.06121826171875 348.4458312988281 400.427001953125 C 352.4828186035156 240.5561981201172 351.9651794433594 113.73539733886719 312.91986083984375 309.2988586425781 C 248.52688598632812 161.8256378173828 232.92904663085938 70.43944549560547 398.81097412109375 83.66814422607422 C 342.28741455078125 320.93450927734375 462.3604736328125 95.75762176513672 432.7125244140625 270.6314697265625" stroke-width="0.0" fill="rgb(61, 44, 20)" opacity="0.39529613" stroke="rgb(240, 244, 240)" stroke-opacity="0.45659843" stroke-linecap="round" stroke-linejoin="round"/>
    <path d="M 521.6900634765625 88.0731430053711 C 522.935546875 107.83145141601562 549.3446044921875 116.0853500366211 500.07464599609375 140.58749389648438 C 500.0190124511719 96.01776885986328 500.0462951660156 69.35228729248047 500.1488952636719 69.92914581298828 C 498.4080505371094 68.25824737548828 499.682861328125 83.96161651611328 498.9388732910156 -7.517647743225098 C 581.216064453125 28.16664695739746 528.806396484375 59.72249984741211 521.6900634765625 88.0731430053711" stroke-width="0.0" fill="rgb(255, 255, 255)" opacity="0.8014472" stroke="rgb(196, 241, 197)" stroke-opacity="0.029142167" stroke-linecap="round" stroke-linejoin="round"/>
    <path d="M 11.955934524536133 86.2989501953125 C 10.847390174865723 114.69454193115234 16.208703994750977 99.72412109375 14.734651565551758 154.44940185546875 C 17.051538467407227 203.68246459960938 4.036524295806885 208.98721313476562 -22.94840431213379 176.84088134765625 C -7.343118667602539 90.78652954101562 -24.394193649291992 73.37694549560547 2.803924560546875 -9.093692779541016 C 15.567256927490234 -12.877731323242188 6.062736511230469 68.04862976074219 11.955934524536133 86.2989501953125" stroke-width="0.0" fill="rgb(255, 255, 255)" opacity="0.47528318" stroke="rgb(141, 74, 144)" stroke-opacity="0.45159194" stroke-linecap="round" stroke-linejoin="round"/>
    <path d="M 521.8399658203125 453.23773193359375 C 524.4507446289062 474.2674560546875 535.5803833007812 496.86181640625 500.692626953125 519.8872680664062 C 496.2027282714844 480.5980529785156 503.3282470703125 478.4974365234375 498.1099853515625 475.5877685546875 C 498.2544860839844 429.946533203125 497.9134826660156 443.167236328125 498.6789855957031 441.6416015625 C 521.192138671875 441.36224365234375 519.9925537109375 440.1353759765625 521.8399658203125 453.23773193359375" stroke-width="0.0" fill="rgb(255, 255, 255)" opacity="0.7620057" stroke="rgb(177, 152, 159)" stroke-opacity="0.0599304" stroke-linecap="round" stroke-linejoin="round"/>
    <path d="M 7.685776710510254 475.7153015136719 C 14.384773254394531 479.0562438964844 6.489340782165527 487.7767028808594 -13.951353073120117 476.38726806640625 C -8.855217933654785 463.5420227050781 -8.736270904541016 462.5130920410156 -11.119935989379883 432.4620056152344 C -21.180707931518555 397.702880859375 -15.277338027954102 395.4798278808594 7.916640758514404 396.041015625 C 7.800527572631836 463.4494323730469 8.058714866638184 473.4458923339844 7.685776710510254 475.7153015136719" stroke-width="0.0" fill="rgb(255, 255, 255)" opacity="0.76905" stroke="rgb(163, 95, 2)" stroke-opacity="0.28542024" stroke-linecap="round" stroke-linejoin="round"/>
    <path d="M 329.0460510253906 140.55023193359375 C 341.4488220214844 167.6705322265625 327.6815490722656 153.1538848876953 321.4518737792969 158.2163848876953 C 309.1365661621094 139.509033203125 309.5016174316406 129.1387939453125 285.0397644042969 115.63394927978516 C 295.8250427246094 104.48260498046875 277.4334716796875 95.59113311767578 301.830322265625 108.08429718017578 C 314.51739501953125 119.35615539550781 322.8734436035156 128.21971130371094 329.0460510253906 140.55023193359375" stroke-width="0.0" fill="rgb(255, 255, 250)" opacity="0.8736128" stroke="rgb(21, 86, 214)" stroke-opacity="0.5160035" stroke-linecap="round" stroke-linejoin="round"/>
    <path d="M 297.75885009765625 124.43840789794922 C 285.76629638671875 135.90113830566406 280.4665222167969 141.96080017089844 267.97174072265625 154.3629608154297 C 263.1509704589844 158.41981506347656 264.93194580078125 155.99708557128906 264.1614074707031 152.53457641601562 C 264.6739807128906 116.45829772949219 262.9028015136719 111.78700256347656 264.2789306640625 112.18933868408203 C 280.5235595703125 112.44129180908203 293.02703857421875 120.20063781738281 297.75885009765625 124.43840789794922" stroke-width="0.0" fill="rgb(51, 36, 55)" opacity="1.0" stroke="rgb(177, 67, 210)" stroke-opacity="0.22045985" stroke-linecap="round" stroke-linejoin="round"/>
    <path d="M 518.0447387695312 173.7232208251953 C 527.8901977539062 216.6699981689453 532.9519653320312 215.0428924560547 500.0304260253906 214.9727020263672 C 500.0588684082031 198.09854125976562 500.07177734375 176.93006896972656 500.11309814453125 132.49293518066406 C 500.564697265625 136.5135040283203 497.5609130859375 136.82566833496094 512.3536376953125 126.26234436035156 C 522.413330078125 162.89337158203125 517.449951171875 162.48538208007812 518.0447387695312 173.7232208251953" stroke-width="0.0" fill="rgb(255, 255, 255)" opacity="0.83511525" stroke="rgb(181, 207, 146)" stroke-opacity="0.11818369" stroke-linecap="round" stroke-linejoin="round"/>
    <path d="M 314.94830322265625 142.24197387695312 C 325.3822326660156 172.59181213378906 325.0925598144531 174.88951110839844 301.7508850097656 159.06504821777344 C 272.9267883300781 165.91261291503906 264.36590576171875 158.32662963867188 267.5281982421875 160.4216766357422 C 292.0443420410156 135.0185089111328 296.4150085449219 130.08314514160156 300.6585693359375 126.33512115478516 C 302.7539367675781 128.08631896972656 307.61273193359375 131.81524658203125 314.94830322265625 142.24197387695312" stroke-width="0.0" fill="rgb(12, 17, 41)" opacity="0.6754622" stroke="rgb(207, 113, 220)" stroke-opacity="0.13351104" stroke-linecap="round" stroke-linejoin="round"/>
    <path d="M 325.7841796875 361.899169921875 C 255.13641357421875 370.2616271972656 280.0097351074219 341.38714599609375 273.47998046875 418.41448974609375 C 260.1583251953125 418.15936279296875 263.931640625 434.4762878417969 263.2181701660156 357.3395690917969 C 264.00274658203125 257.3302917480469 258.6941223144531 347.4783630371094 274.93109130859375 337.98028564453125 C 268.66064453125 368.9955749511719 332.8352966308594 333.6257629394531 325.7841796875 361.899169921875" stroke-width="0.0" fill="rgb(249, 209, 50)" opacity="0.9967325" stroke="rgb(227, 28, 193)" stroke-opacity="0.21602641" stroke-linecap="round" stroke-linejoin="round"/>
    <path d="M 348.61273193359375 359.9517822265625 C 354.9925231933594 359.82037353515625 326.9975891113281 360.13482666015625 332.6172790527344 359.7392578125 C 333.1503601074219 331.1215515136719 332.2911682128906 334.59136962890625 332.2454833984375 339.97808837890625 C 331.5999450683594 342.3573913574219 333.6678161621094 321.20025634765625 332.987548828125 311.2705993652344 C 352.4643249511719 314.2586975097656 347.4403381347656 299.1435546875 348.61273193359375 359.9517822265625" stroke-width="0.0" fill="rgb(255, 255, 255)" opacity="0.74524456" stroke="rgb(72, 20, 34)" stroke-opacity="0.47558182" stroke-linecap="round" stroke-linejoin="round"/>
    <path d="M 272.92266845703125 243.6436309814453 C 276.2995910644531 278.89263916015625 278.7101135253906 293.2036437988281 274.1251220703125 332.9266662597656 C 253.58615112304688 338.39215087890625 248.54598999023438 358.07537841796875 251.1993408203125 240.5976104736328 C 202.766357421875 247.0072021484375 139.3459930419922 222.17967224121094 325.9461975097656 228.80548095703125 C 334.77105712890625 250.66738891601562 270.6951904296875 236.3276824951172 272.92266845703125 243.6436309814453" stroke-width="0.0" fill="rgb(209, 72, 68)" opacity="1.0" stroke="rgb(175, 77, 202)" stroke-opacity="0.12005192" stroke-linecap="round" stroke-linejoin="round"/>
    <path d="M 178.56468200683594 178.46731567382812 C 178.18238830566406 311.3275451660156 179.197265625 328.25640869140625 178.53955078125 329.2824401855469 C 122.60014343261719 333.42919921875 137.7075653076172 343.7105712890625 134.48631286621094 263.01788330078125 C 134.19241333007812 248.78582763671875 103.9467544555664 286.86883544921875 164.03945922851562 217.0079803466797 C 170.26776123046875 200.82115173339844 170.8153839111328 202.7415313720703 178.56468200683594 178.46731567382812" stroke-width="0.0" fill="rgb(231, 164, 38)" opacity="0.98501164" stroke="rgb(62, 112, 9)" stroke-opacity="0.7835929" stroke-linecap="round" stroke-linejoin="round"/>
    <path d="M 397.1783447265625 399.7261047363281 C 396.31768798828125 478.39117431640625 402.92474365234375 457.9015197753906 384.33203125 461.22784423828125 C 364.6033935546875 456.6792907714844 369.72955322265625 472.2532958984375 368.4395446777344 429.68585205078125 C 332.9872131347656 422.0816345214844 389.8343811035156 431.1734619140625 379.3486328125 317.44830322265625 C 400.5113220214844 418.51556396484375 396.73486328125 348.8702087402344 397.1783447265625 399.7261047363281" stroke-width="0.0" fill="rgb(57, 11, 25)" opacity="0.68546027" stroke="rgb(159, 80, 80)" stroke-opacity="0.3440252" stroke-linecap="round" stroke-linejoin="round"/>
    <path d="M 348.5677490234375 316.8914794921875 C 335.4483642578125 307.8868408203125 331.3439025878906 324.13018798828125 335.99005126953125 322.6078186035156 C 336.6033935546875 318.4794921875 337.1700439453125 318.38433837890625 332.1516418457031 330.0616455078125 C 332.73614501953125 345.3958740234375 331.919921875 290.2613220214844 332.4819030761719 285.96630859375 C 352.6648864746094 306.5492858886719 347.5424499511719 293.58087158203125 348.5677490234375 316.8914794921875" stroke-width="0.0" fill="rgb(255, 255, 255)" opacity="0.70514333" stroke="rgb(62, 24, 209)" stroke-opacity="0.74644756" stroke-linecap="round" stroke-linejoin="round"/>
    <path d="M 326.59930419921875 235.87258911132812 C 326.6470642089844 435.56719970703125 327.8094787597656 418.1527404785156 324.60052490234375 418.9715881347656 C 243.85647583007812 420.5090637207031 258.5272216796875 419.4748229980469 278.4395446777344 403.8432312011719 C 280.57806396484375 355.9187927246094 268.1765441894531 369.3233947753906 314.2491149902344 368.3216247558594 C 315.9697570800781 286.4614562988281 310.5333557128906 206.20938110351562 326.59930419921875 235.87258911132812" stroke-width="0.0" fill="rgb(255, 198, 18)" opacity="0.7874515" stroke="rgb(144, 18, 23)" stroke-opacity="0.6637369" stroke-linecap="round" stroke-linejoin="round"/>
    <path d="M 144.0731201171875 105.21741485595703 C 178.50038146972656 127.14500427246094 161.19764709472656 132.1227264404297 114.17060089111328 152.2854461669922 C 112.26203918457031 113.77717590332031 72.8133773803711 197.9370880126953 107.54561614990234 93.20664978027344 C 99.66934204101562 134.206298828125 151.1774444580078 99.58135986328125 106.22207641601562 88.01335144042969 C 146.1558837890625 78.4494857788086 139.04864501953125 89.29560089111328 144.0731201171875 105.21741485595703" stroke-width="0.0" fill="rgb(125, 25, 102)" opacity="0.6326194" stroke="rgb(187, 84, 118)" stroke-opacity="0.16513863" stroke-linecap="round" stroke-linejoin="round"/>
    <path d="M 520.1112670898438 405.82647705078125 C 517.7658081054688 414.3304138183594 513.2893676757812 415.01806640625 517.7855224609375 421.427734375 C 531.341796875 436.620361328125 514.5167236328125 451.3941955566406 497.9200134277344 441.27874755859375 C 498.6282043457031 390.4161071777344 496.4338073730469 388.67681884765625 502.9000244140625 366.0330505371094 C 535.9508056640625 372.6334533691406 522.1259765625 388.687744140625 520.1112670898438 405.82647705078125" stroke-width="0.0" fill="rgb(255, 255, 255)" opacity="0.71314514" stroke="rgb(8, 3, 202)" stroke-opacity="0.46200556" stroke-linecap="round" stroke-linejoin="round"/>
    <path d="M 66.24159240722656 506.36737060546875 C 47.43087387084961 514.655517578125 43.11737823486328 513.2503662109375 29.53271484375 513.7617797851562 C 16.651451110839844 515.1453247070312 -2.2308132648468018 524.6759033203125 -6.047529220581055 498.185546875 C 13.221973419189453 498.02166748046875 7.3415374755859375 498.0542907714844 9.092659950256348 498.92633056640625 C 79.10474395751953 499.5282897949219 63.50450897216797 496.6346130371094 66.24159240722656 506.36737060546875" stroke-width="0.0" fill="rgb(255, 255, 255)" opacity="0.8449795" stroke="rgb(194, 166, 107)" stroke-opacity="0.7845164" stroke-linecap="round" stroke-linejoin="round"/>
    <path d="M 7.9309163093566895 212.07859802246094 C 7.669636249542236 251.0946502685547 8.670334815979004 272.9993896484375 6.216080188751221 292.1761474609375 C -33.157630920410156 284.1771545410156 -17.432098388671875 258.9014587402344 -12.190818786621094 239.0314483642578 C -17.75517463684082 201.1624298095703 -35.78606414794922 170.84823608398438 6.17669677734375 168.56382751464844 C 9.238968849182129 218.42620849609375 6.6221418380737305 221.05470275878906 7.9309163093566895 212.07859802246094" stroke-width="0.0" fill="rgb(255, 255, 255)" opacity="0.7666645" stroke="rgb(215, 189, 56)" stroke-opacity="0.6400826" stroke-linecap="round" stroke-linejoin="round"/>
    <path d="M 31.013965606689453 -9.69722843170166 C -20.732328414916992 -5.2776408195495605 -7.616690158843994 30.37139320373535 9.340536117553711 13.003209114074707 C 63.51570129394531 12.49725341796875 52.881752014160156 14.366982460021973 53.86134338378906 9.939998626708984 C 67.74752044677734 9.02297306060791 80.22042846679688 12.852872848510742 86.76535034179688 2.971085548400879 C 51.67439651489258 -11.007396697998047 47.327178955078125 -3.3825573921203613 31.013965606689453 -9.69722843170166" stroke-width="0.0" fill="rgb(255, 255, 255)" opacity="0.3965803" stroke="rgb(154, 233, 24)" stroke-opacity="0.8252936" stroke-linecap="round" stroke-linejoin="round"/>
    <path d="M 506.18377685546875 501.2105407714844 C 489.01220703125 519.251220703125 483.7284851074219 517.0572509765625 469.3448181152344 522.7388305664062 C 456.87335205078125 517.0953979492188 444.6053161621094 529.5905151367188 423.9855041503906 499.0804748535156 C 454.851806640625 499.47589111328125 456.758544921875 493.5234069824219 455.81304931640625 497.0836181640625 C 500.8302917480469 497.5830383300781 504.8773193359375 495.6583251953125 506.18377685546875 501.2105407714844" stroke-width="0.0" fill="rgb(255, 255, 255)" opacity="0.72161496" stroke="rgb(126, 53, 76)" stroke-opacity="0.5137276" stroke-linecap="round" stroke-linejoin="round"/>
    <path d="M 231.81358337402344 403.7840881347656 C 254.98883056640625 424.4143981933594 265.6654968261719 417.3866271972656 217.12869262695312 419.09820556640625 C 188.57220458984375 415.74725341796875 195.46478271484375 431.6565246582031 194.79000854492188 391.935546875 C 194.68003845214844 371.1684265136719 202.9517059326172 413.634765625 200.65826416015625 340.4054870605469 C 242.42601013183594 358.19598388671875 226.02137756347656 378.1340637207031 231.81358337402344 403.7840881347656" stroke-width="0.0" fill="rgb(190, 42, 85)" opacity="1.0" stroke="rgb(129, 0, 170)" stroke-opacity="0.4074479" stroke-linecap="round" stroke-linejoin="round"/>
    <path d="M 390.95953369140625 217.079833984375 C 387.9669494628906 222.85498046875 374.1123046875 219.7005157470703 374.5675048828125 238.96067810058594 C 330.66546630859375 252.0089874267578 360.3526306152344 252.9066162109375 344.7461242675781 182.20826721191406 C 341.7928161621094 88.43878936767578 361.21978759765625 237.58070373535156 357.46246337890625 179.8817596435547 C 387.21917724609375 189.31236267089844 379.508544921875 210.90875244140625 390.95953369140625 217.079833984375" stroke-width="0.0" fill="rgb(81, 77, 78)" opacity="0.9050916" stroke="rgb(103, 95, 171)" stroke-opacity="0.5483713" stroke-linecap="round" stroke-linejoin="round"/>
    <path d="M 462.3623962402344 365.4682312011719 C 437.8782958984375 357.2923583984375 466.0087585449219 386.3177490234375 438.49908447265625 368.6515197753906 C 424.0854797363281 401.5916748046875 435.4388427734375 356.8563232421875 412.81231689453125 374.4473876953125 C 378.45904541015625 296.9115905761719 417.79998779296875 343.638427734375 411.00042724609375 309.59832763671875 C 471.51318359375 302.3228759765625 466.2486267089844 325.9738464355469 462.3623962402344 365.4682312011719" stroke-width="0.0" fill="rgb(248, 62, 0)" opacity="0.5672661" stroke="rgb(81, 105, 51)" stroke-opacity="0.24911864" stroke-linecap="round" stroke-linejoin="round"/>
    <path d="M 370.8211669921875 282.86474609375 C 371.7721252441406 343.0238952636719 368.65716552734375 301.5940856933594 356.3177490234375 319.164794921875 C 348.6498107910156 363.7079162597656 346.9671936035156 334.1328430175781 349.2762451171875 255.03298950195312 C 345.83935546875 240.17079162597656 357.8199157714844 241.61642456054688 355.22735595703125 263.2914733886719 C 397.76129150390625 268.3827819824219 372.864990234375 270.0614013671875 370.8211669921875 282.86474609375" stroke-width="0.0" fill="rgb(249, 142, 0)" opacity="0.7695195" stroke="rgb(113, 119, 214)" stroke-opacity="0.5888533" stroke-linecap="round" stroke-linejoin="round"/>
    <path d="M 212.05604553222656 241.61593627929688 C 213.17062377929688 320.8750915527344 210.9108123779297 331.3829040527344 214.9082489013672 372.246337890625 C 195.18067932128906 378.58673095703125 202.9843292236328 374.0423278808594 200.9350128173828 341.02459716796875 C 200.04331970214844 288.76019287109375 200.8857421875 277.0660095214844 200.61334228515625 228.2753143310547 C 279.86700439453125 223.6764678955078 222.40554809570312 241.88262939453125 212.05604553222656 241.61593627929688" stroke-width="0.0" fill="rgb(228, 49, 88)" opacity="0.9895491" stroke="rgb(121, 204, 168)" stroke-opacity="0.55535805" stroke-linecap="round" stroke-linejoin="round"/>
    <path d="M 124.91970825195312 387.36602783203125 C 123.6845703125 469.1810302734375 127.39913177490234 462.05487060546875 120.42847442626953 460.5592346191406 C 120.4950180053711 426.4520568847656 119.98043060302734 412.8760070800781 120.87530517578125 427.38177490234375 C 118.89888000488281 416.551025390625 122.83570861816406 387.7295227050781 117.92862701416016 385.5483703613281 C 200.4552764892578 383.794677734375 165.81283569335938 391.5287780761719 124.91970825195312 387.36602783203125" stroke-width="0.0" fill="rgb(35, 26, 50)" opacity="1.0" stroke="rgb(3, 167, 101)" stroke-opacity="0.10212334" stroke-linecap="round" stroke-linejoin="round"/>
    <path d="M 127.8422622680664 5.294206142425537 C 83.1103286743164 9.296597480773926 64.4773941040039 4.921892166137695 51.728614807128906 6.766021728515625 C 46.114967346191406 5.166001319885254 39.866661071777344 8.597922325134277 43.7967643737793 2.7983438968658447 C 47.6134033203125 1.8021321296691895 46.894840240478516 -2.4792330265045166 50.50543212890625 -8.879643440246582 C 66.96173858642578 -7.392445087432861 96.44270324707031 -36.968502044677734 127.8422622680664 5.294206142425537" stroke-width="0.0" fill="rgb(255, 254, 255)" opacity="0.7931427" stroke="rgb(169, 241, 97)" stroke-opacity="0.2205719" stroke-linecap="round" stroke-linejoin="round"/>
    <path d="M 273.74072265625 356.50634765625 C 275.2926330566406 332.48138427734375 267.42529296875 271.07513427734375 267.5600891113281 334.4988098144531 C 260.6687316894531 348.6615905761719 264.84796142578125 334.393798828125 263.0419616699219 229.9855194091797 C 263.8307800292969 233.78883361816406 260.9375305175781 227.27838134765625 274.4467468261719 240.44754028320312 C 274.9354248046875 212.15687561035156 276.7558288574219 223.86793518066406 273.74072265625 356.50634765625" stroke-width="0.0" fill="rgb(254, 221, 26)" opacity="0.8041117" stroke="rgb(145, 166, 196)" stroke-opacity="0.5617548" stroke-linecap="round" stroke-linejoin="round"/>
    <path d="M 357.1695251464844 449.1236877441406 C 355.05194091796875 464.0389709472656 364.7737121582031 459.4954528808594 334.8493957519531 460.6654052734375 C 257.8367004394531 460.0457458496094 254.85093688964844 460.80804443359375 263.6799621582031 459.2583923339844 C 255.654052734375 447.6260986328125 260.8446044921875 450.3306884765625 296.7525329589844 449.9783935546875 C 293.1576232910156 450.0243225097656 315.0732727050781 449.07208251953125 357.1695251464844 449.1236877441406" stroke-width="0.0" fill="rgb(207, 0, 71)" opacity="0.7942639" stroke="rgb(124, 139, 41)" stroke-opacity="0.7446662" stroke-linecap="round" stroke-linejoin="round"/>
    <path d="M 308.4587097167969 458.46270751953125 C 291.1181335449219 460.58392333984375 281.9541015625 458.9539794921875 271.1753234863281 459.71612548828125 C 261.1308288574219 459.21600341796875 264.4378356933594 461.62164306640625 263.1783142089844 451.19854736328125 C 265.5107727050781 448.99481201171875 255.61453247070312 448.72705078125 298.6324768066406 449.525634765625 C 286.3014831542969 456.30523681640625 308.7694091796875 442.94805908203125 308.4587097167969 458.46270751953125" stroke-width="0.0" fill="rgb(232, 37, 95)" opacity="0.7502946" stroke="rgb(220, 123, 125)" stroke-opacity="0.23509453" stroke-linecap="round" stroke-linejoin="round"/>
    <path d="M 332.93646240234375 87.70770263671875 C 327.8157043457031 108.57491302490234 353.91864013671875 181.84678649902344 325.3829650878906 115.85189056396484 C 296.55950927734375 113.1982421875 245.05638122558594 57.66138458251953 182.13563537597656 151.87855529785156 C 143.6864471435547 58.63908767700195 175.9779510498047 88.62040710449219 185.81492614746094 83.97284698486328 C 354.8351745605469 84.8648681640625 338.1524963378906 81.6804428100586 332.93646240234375 87.70770263671875" stroke-width="0.0" fill="rgb(255, 205, 23)" opacity="0.77881104" stroke="rgb(93, 238, 18)" stroke-opacity="0.5429989" stroke-linecap="round" stroke-linejoin="round"/>
    <path d="M 343.9034118652344 95.80425262451172 C 317.4653015136719 106.42648315429688 340.5247802734375 133.7284698486328 331.1750793457031 133.7568817138672 C 310.8504638671875 112.47774505615234 306.7565612792969 113.03609466552734 294.8450927734375 105.60211181640625 C 273.9552001953125 93.29621887207031 288.27386474609375 81.91280364990234 329.4869384765625 85.53289031982422 C 338.9061279296875 107.23335266113281 346.1758728027344 79.23589324951172 343.9034118652344 95.80425262451172" stroke-width="0.0" fill="rgb(248, 192, 27)" opacity="0.890961" stroke="rgb(67, 228, 188)" stroke-opacity="0.05320618" stroke-linecap="round" stroke-linejoin="round"/>
    <path d="M 387.725830078125 205.94252014160156 C 464.78570556640625 194.9327392578125 380.5445556640625 210.61016845703125 400.0909423828125 232.45884704589844 C 333.38604736328125 187.89599609375 354.2056884765625 242.21856689453125 347.32098388671875 195.31236267089844 C 377.5744323730469 203.57476806640625 368.7007141113281 174.58883666992188 387.522216796875 137.7957000732422 C 387.860107421875 147.54722595214844 387.932373046875 211.68331909179688 387.725830078125 205.94252014160156" stroke-width="0.0" fill="rgb(255, 167, 42)" opacity="0.81818694" stroke="rgb(13, 52, 217)" stroke-opacity="0.5988154" stroke-linecap="round" stroke-linejoin="round"/>
    <path d="M 371.0028991699219 319.2913513183594 C 358.610595703125 313.48187255859375 354.56549072265625 288.5058288574219 356.06756591796875 357.6197814941406 C 363.88726806640625 405.82476806640625 342.9176940917969 389.2453918457031 348.7636413574219 372.659912109375 C 348.05072021484375 279.4689636230469 349.2265930175781 273.0752868652344 359.292724609375 272.91534423828125 C 367.16851806640625 284.8578186035156 371.27099609375 293.5858154296875 371.0028991699219 319.2913513183594" stroke-width="0.0" fill="rgb(255, 120, 31)" opacity="0.76638037" stroke="rgb(55, 163, 179)" stroke-opacity="0.89996284" stroke-linecap="round" stroke-linejoin="round"/>
    <path d="M 398.4762268066406 240.72305297851562 C 375.6878662109375 245.75909423828125 381.7363586425781 259.71148681640625 355.3333740234375 259.4267578125 C 344.4870300292969 311.56243896484375 348.64373779296875 302.2237854003906 347.288818359375 227.8181915283203 C 350.8846740722656 242.75279235839844 357.9395446777344 222.32186889648438 372.35400390625 227.911865234375 C 396.4317932128906 235.1970672607422 402.552978515625 222.2607879638672 398.4762268066406 240.72305297851562" stroke-width="0.0" fill="rgb(241, 107, 0)" opacity="0.39386207" stroke="rgb(63, 8, 14)" stroke-opacity="0.70569134" stroke-linecap="round" stroke-linejoin="round"/>
    <path d="M 386.9303894042969 248.3120880126953 C 386.56451416015625 288.53143310546875 388.39569091796875 273.81036376953125 381.2617492675781 273.3123779296875 C 348.4481201171875 278.431396484375 356.2454528808594 278.50640869140625 360.1383056640625 275.392822265625 C 358.5968017578125 240.0175018310547 372.42974853515625 200.1096954345703 403.3238525390625 237.21925354003906 C 416.9975280761719 242.0812530517578 384.322265625 243.8809356689453 386.9303894042969 248.3120880126953" stroke-width="0.0" fill="rgb(240, 146, 29)" opacity="1.0" stroke="rgb(123, 91, 253)" stroke-opacity="0.49134296" stroke-linecap="round" stroke-linejoin="round"/>
    <path d="M 263.48272705078125 460.8919677734375 C 203.48684692382812 460.7810363769531 190.97259521484375 460.7746887207031 166.572998046875 460.6333923339844 C 159.96376037597656 460.7833251953125 165.17442321777344 460.7364196777344 164.99517822265625 455.6399230957031 C 165.41354370117188 447.7284851074219 161.3760986328125 449.2177429199219 172.723388671875 449.0978088378906 C 277.0654602050781 453.4645080566406 262.23944091796875 440.8838195800781 263.48272705078125 460.8919677734375" stroke-width="0.0" fill="rgb(245, 184, 21)" opacity="0.9617136" stroke="rgb(99, 155, 173)" stroke-opacity="0.9085901" stroke-linecap="round" stroke-linejoin="round"/>
    <path d="M 344.8917541503906 128.0582733154297 C 353.4523620605469 149.37210083007812 352.4074401855469 151.62086486816406 334.1456298828125 151.52471923828125 C 325.7884826660156 126.90235900878906 313.760009765625 118.9941177368164 297.859375 105.38798522949219 C 312.6477966308594 117.39640045166016 322.17352294921875 103.20642852783203 336.0772705078125 109.35907745361328 C 347.66534423828125 110.7376480102539 344.29803466796875 85.59510040283203 344.8917541503906 128.0582733154297" stroke-width="0.0" fill="rgb(251, 182, 30)" opacity="0.80363244" stroke="rgb(147, 248, 143)" stroke-opacity="0.5613355" stroke-linecap="round" stroke-linejoin="round"/>
    <path d="M 378.44268798828125 138.0430908203125 C 378.76806640625 193.03016662597656 379.1138000488281 206.96461486816406 359.1737060546875 180.21754455566406 C 361.673095703125 129.12393188476562 337.97357177734375 192.49636840820312 331.86224365234375 163.93698120117188 C 334.5055236816406 142.95858764648438 339.1600036621094 130.6696014404297 359.2721252441406 84.9706802368164 C 384.2539978027344 72.91822814941406 354.1593322753906 170.21974182128906 378.44268798828125 138.0430908203125" stroke-width="0.0" fill="rgb(222, 125, 45)" opacity="0.97253674" stroke="rgb(131, 250, 215)" stroke-opacity="0.09635735" stroke-linecap="round" stroke-linejoin="round"/>
    <path d="M 108.21383666992188 403.8557434082031 C 117.84503936767578 434.90478515625 81.43355560302734 448.66680908203125 83.21636962890625 447.9226379394531 C 62.49960708618164 440.33544921875 52.608455657958984 426.5000305175781 54.638404846191406 398.1190490722656 C 97.34122467041016 410.4305725097656 18.313383102416992 342.8029479980469 85.06584167480469 394.2538757324219 C 135.35202026367188 349.4664611816406 69.241943359375 415.1543273925781 108.21383666992188 403.8557434082031" stroke-width="0.0" fill="rgb(80, 111, 88)" opacity="0.74130607" stroke="rgb(56, 137, 98)" stroke-opacity="0.6976756" stroke-linecap="round" stroke-linejoin="round"/>
    <path d="M 341.6894226074219 434.3606872558594 C 362.608154296875 450.5198669433594 349.2506103515625 442.1338806152344 270.1758117675781 445.8382873535156 C 179.04185485839844 445.5076599121094 178.49826049804688 446.3977966308594 181.164306640625 443.9997253417969 C 182.4046173095703 436.2752990722656 174.54054260253906 433.3268737792969 206.1056671142578 433.663330078125 C 232.06231689453125 434.58563232421875 237.6203155517578 433.7564697265625 341.6894226074219 434.3606872558594" stroke-width="0.0" fill="rgb(246, 163, 0)" opacity="0.83371097" stroke="rgb(4, 10, 147)" stroke-opacity="0.86061853" stroke-linecap="round" stroke-linejoin="round"/>
    <path d="M 97.88864135742188 440.2328796386719 C 50.90095138549805 451.126220703125 160.77427673339844 463.5997314453125 60.353660583496094 460.13739013671875 C 92.62869262695312 440.3228759765625 80.53645324707031 448.55670166015625 74.40462493896484 426.2884826660156 C 89.46438598632812 462.2593994140625 72.0728759765625 426.67889404296875 97.71524810791016 398.16729736328125 C 121.21615600585938 401.2161865234375 118.08572387695312 384.55999755859375 97.88864135742188 440.2328796386719" stroke-width="0.0" fill="rgb(10, 19, 36)" opacity="0.69156957" stroke="rgb(183, 203, 218)" stroke-opacity="0.96508294" stroke-linecap="round" stroke-linejoin="round"/>
    <path d="M 154.5231475830078 430.9947509765625 C 173.62718200683594 417.5622863769531 160.34364318847656 457.9205322265625 166.12783813476562 461.320556640625 C 127.85152435302734 458.5195007324219 141.9988250732422 468.0220947265625 139.0099639892578 431.2744445800781 C 154.2543182373047 449.6189880371094 149.14549255371094 383.6089172363281 157.00390625 416.90338134765625 C 167.98291015625 400.87274169921875 173.7933349609375 418.15594482421875 154.5231475830078 430.9947509765625" stroke-width="0.0" fill="rgb(34, 92, 89)" opacity="0.74067384" stroke="rgb(194, 44, 152)" stroke-opacity="0.45973015" stroke-linecap="round" stroke-linejoin="round"/>
    <path d="M 315.3907775878906 325.0632629394531 C 314.58447265625 359.5625305175781 318.7795104980469 351.0474853515625 307.4241943359375 352.354248046875 C 280.7804260253906 349.81500244140625 273.6868896484375 355.95037841796875 274.33551025390625 349.3577575683594 C 276.973388671875 312.7890625 266.314697265625 325.72967529296875 301.5679626464844 323.6383056640625 C 321.8832702636719 323.856201171875 314.23858642578125 322.70098876953125 315.3907775878906 325.0632629394531" stroke-width="0.0" fill="rgb(72, 163, 137)" opacity="0.8526303" stroke="rgb(105, 228, 53)" stroke-opacity="0.15273714" stroke-linecap="round" stroke-linejoin="round"/>
    <path d="M 250.80136108398438 325.8138427734375 C 250.76754760742188 358.07427978515625 250.6773681640625 352.9018859863281 250.7441864013672 351.73211669921875 C 226.79550170898438 351.7210998535156 220.7126007080078 351.7117614746094 211.8734893798828 347.5609436035156 C 234.84312438964844 345.4674987792969 233.96484375 322.23541259765625 232.55453491210938 323.6475830078125 C 259.31585693359375 324.0548400878906 250.2074737548828 325.4322509765625 250.80136108398438 325.8138427734375" stroke-width="0.0" fill="rgb(72, 172, 145)" opacity="0.8776751" stroke="rgb(195, 253, 229)" stroke-opacity="0.951445" stroke-linecap="round" stroke-linejoin="round"/>
    <path d="M 233.4615020751953 327.78155517578125 C 231.1473388671875 354.89617919921875 239.69210815429688 351.6365051269531 222.0442352294922 351.79058837890625 C 205.6347198486328 351.1327819824219 215.53890991210938 356.5556640625 211.1368865966797 333.9974060058594 C 219.401611328125 267.6701965332031 200.4281463623047 268.4039611816406 228.1912384033203 275.1966552734375 C 234.61805725097656 335.3782958984375 220.85903930664062 316.55816650390625 233.4615020751953 327.78155517578125" stroke-width="0.0" fill="rgb(102, 182, 157)" opacity="0.86635554" stroke="rgb(232, 40, 32)" stroke-opacity="0.8290504" stroke-linecap="round" stroke-linejoin="round"/>
    <path d="M 150.96820068359375 228.4268798828125 C 127.887939453125 267.06707763671875 177.05670166015625 261.0169372558594 95.9906234741211 260.3531799316406 C 141.18882751464844 226.34536743164062 49.75902557373047 237.3585968017578 95.63080596923828 224.78314208984375 C 93.2347640991211 214.09014892578125 120.44530487060547 212.9612579345703 131.90977478027344 196.55258178710938 C 92.37545776367188 89.62725067138672 131.72198486328125 190.89627075195312 150.96820068359375 228.4268798828125" stroke-width="0.0" fill="rgb(87, 77, 96)" opacity="0.6896901" stroke="rgb(25, 20, 253)" stroke-opacity="0.26605055" stroke-linecap="round" stroke-linejoin="round"/>
    <path d="M 426.0 447.0 C 425.33013916015625 449.5 423.5 451.33013916015625 421.0 452.0 C 418.5 451.33013916015625 416.66986083984375 449.5 416.0 447.0 C 416.66986083984375 444.5 418.5 442.66986083984375 421.0 442.0 C 423.5 442.66986083984375 425.33013916015625 444.5 426.0 447.0" stroke-width="0.0" fill="rgb(113, 193, 148)" opacity="1.0" stroke="rgb(1, 120, 79)" stroke-opacity="0.4968257" stroke-linecap="round" stroke-linejoin="round"/>
    <path d="M 224.0 141.0 C 223.3301239013672 143.5 221.5 145.3301239013672 219.0 146.0 C 216.5 145.3301239013672 214.6698760986328 143.5 214.0 141.0 C 214.6698760986328 138.5 216.5 136.6698760986328 219.0 136.0 C 221.5 136.6698760986328 223.3301239013672 138.5 224.0 141.0" stroke-width="0.0" fill="rgb(48, 33, 51)" opacity="1.0" stroke="rgb(57, 234, 33)" stroke-opacity="0.84296364" stroke-linecap="round" stroke-linejoin="round"/>
    <path d="M 292.0 296.0 C 291.33013916015625 298.5 289.5 300.33013916015625 287.0 301.0 C 284.5 300.33013916015625 282.66986083984375 298.5 282.0 296.0 C 282.66986083984375 293.5 284.5 291.66986083984375 287.0 291.0 C 289.5 291.66986083984375 291.33013916015625 293.5 292.0 296.0" stroke-width="0.0" fill="rgb(70, 134, 120)" opacity="1.0" stroke="rgb(176, 122, 110)" stroke-opacity="0.023184864" stroke-linecap="round" stroke-linejoin="round"/>
    <path d="M 367.0 154.0 C 366.33013916015625 156.5 364.5 158.3301239013672 362.0 159.0 C 359.5 158.3301239013672 357.66986083984375 156.5 357.0 154.0 C 357.66986083984375 151.5 359.5 149.6698760986328 362.0 149.0 C 364.5 149.6698760986328 366.33013916015625 151.5 367.0 154.0" stroke-width="0.0" fill="rgb(250, 205, 32)" opacity="1.0" stroke="rgb(119, 114, 59)" stroke-opacity="0.49041456" stroke-linecap="round" stroke-linejoin="round"/>
    <path d="M 422.0 412.0 C 421.33013916015625 414.5 419.5 416.33013916015625 417.0 417.0 C 414.5 416.33013916015625 412.66986083984375 414.5 412.0 412.0 C 412.66986083984375 409.5 414.5 407.66986083984375 417.0 407.0 C 419.5 407.66986083984375 421.33013916015625 409.5 422.0 412.0" stroke-width="0.0" fill="rgb(138, 203, 158)" opacity="1.0" stroke="rgb(243, 237, 9)" stroke-opacity="0.5425231" stroke-linecap="round" stroke-linejoin="round"/>
    <path d="M 425.0 413.0 C 424.33013916015625 415.5 422.5 417.33013916015625 420.0 418.0 C 417.5 417.33013916015625 415.66986083984375 415.5 415.0 413.0 C 415.66986083984375 410.5 417.5 408.66986083984375 420.0 408.0 C 422.5 408.66986083984375 424.33013916015625 410.5 425.0 413.0" stroke-width="0.0" fill="rgb(134, 202, 159)" opacity="1.0" stroke="rgb(242, 35, 171)" stroke-opacity="0.71507394" stroke-linecap="round" stroke-linejoin="round"/>
    <path d="M 151.0 450.0 C 150.3301239013672 452.5 148.5 454.33013916015625 146.0 455.0 C 143.5 454.33013916015625 141.6698760986328 452.5 141.0 450.0 C 141.6698760986328 447.5 143.5 445.66986083984375 146.0 445.0 C 148.5 445.66986083984375 150.3301239013672 447.5 151.0 450.0" stroke-width="0.0" fill="rgb(95, 183, 142)" opacity="1.0" stroke="rgb(111, 36, 152)" stroke-opacity="0.4100401" stroke-linecap="round" stroke-linejoin="round"/>
    <path d="M 150.0 444.0 C 149.3301239013672 446.5 147.5 448.33013916015625 145.0 449.0 C 142.5 448.33013916015625 140.6698760986328 446.5 140.0 444.0 C 140.6698760986328 441.5 142.5 439.66986083984375 145.0 439.0 C 147.5 439.66986083984375 149.3301239013672 441.5 150.0 444.0" stroke-width="0.0" fill="rgb(104, 184, 142)" opacity="1.0" stroke="rgb(211, 230, 132)" stroke-opacity="0.6261298" stroke-linecap="round" stroke-linejoin="round"/>
    <path d="M 147.0 441.0 C 146.3301239013672 443.5 144.5 445.33013916015625 142.0 446.0 C 139.5 445.33013916015625 137.6698760986328 443.5 137.0 441.0 C 137.6698760986328 438.5 139.5 436.66986083984375 142.0 436.0 C 144.5 436.66986083984375 146.3301239013672 438.5 147.0 441.0" stroke-width="0.0" fill="rgb(114, 184, 144)" opacity="1.0" stroke="rgb(62, 146, 124)" stroke-opacity="0.04020198" stroke-linecap="round" stroke-linejoin="round"/>
    <path d="M 244.0 303.0 C 243.3301239013672 305.5 241.5 307.33013916015625 239.0 308.0 C 236.5 307.33013916015625 234.6698760986328 305.5 234.0 303.0 C 234.6698760986328 300.5 236.5 298.66986083984375 239.0 298.0 C 241.5 298.66986083984375 243.3301239013672 300.5 244.0 303.0" stroke-width="0.0" fill="rgb(79, 160, 131)" opacity="1.0" stroke="rgb(49, 50, 123)" stroke-opacity="0.9347934" stroke-linecap="round" stroke-linejoin="round"/>
    <path d="M 279.0 424.0 C 278.33013916015625 426.5 276.5 428.33013916015625 274.0 429.0 C 271.5 428.33013916015625 269.66986083984375 426.5 269.0 424.0 C 269.66986083984375 421.5 271.5 419.66986083984375 274.0 419.0 C 276.5 419.66986083984375 278.33013916015625 421.5 279.0 424.0" stroke-width="0.0" fill="rgb(111, 191, 174)" opacity="1.0" stroke="rgb(14, 25, 197)" stroke-opacity="0.46730456" stroke-linecap="round" stroke-linejoin="round"/>
    <path d="M 423.0 452.0 C 422.33013916015625 454.5 420.5 456.33013916015625 418.0 457.0 C 415.5 456.33013916015625 413.66986083984375 454.5 413.0 452.0 C 413.66986083984375 449.5 415.5 447.66986083984375 418.0 447.0 C 420.5 447.66986083984375 422.33013916015625 449.5 423.0 452.0" stroke-width="0.0" fill="rgb(109, 192, 148)" opacity="1.0" stroke="rgb(17, 153, 207)" stroke-opacity="0.07793614" stroke-linecap="round" stroke-linejoin="round"/>
    <path d="M 425.0 453.0 C 424.33013916015625 455.5 422.5 457.33013916015625 420.0 458.0 C 417.5 457.33013916015625 415.66986083984375 455.5 415.0 453.0 C 415.66986083984375 450.5 417.5 448.66986083984375 420.0 448.0 C 422.5 448.66986083984375 424.33013916015625 450.5 425.0 453.0" stroke-width="0.0" fill="rgb(106, 193, 148)" opacity="1.0" stroke="rgb(77, 98, 161)" stroke-opacity="0.20088917" stroke-linecap="round" stroke-linejoin="round"/>
    <path d="M 388.0 304.0 C 387.33013916015625 306.5 385.5 308.33013916015625 383.0 309.0 C 380.5 308.33013916015625 378.66986083984375 306.5 378.0 304.0 C 378.66986083984375 301.5 380.5 299.66986083984375 383.0 299.0 C 385.5 299.66986083984375 387.33013916015625 301.5 388.0 304.0" stroke-width="0.0" fill="rgb(67, 65, 80)" opacity="1.0" stroke="rgb(237, 231, 43)" stroke-opacity="0.3329475" stroke-linecap="round" stroke-linejoin="round"/>
    <path d="M 164.0 315.0 C 163.3301239013672 317.5 161.5 319.33013916015625 159.0 320.0 C 156.5 319.33013916015625 154.6698760986328 317.5 154.0 315.0 C 154.6698760986328 312.5 156.5 310.66986083984375 159.0 310.0 C 161.5 310.66986083984375 163.3301239013672 312.5 164.0 315.0" stroke-width="0.0" fill="rgb(210, 43, 88)" opacity="1.0" stroke="rgb(149, 76, 245)" stroke-opacity="0.9658475" stroke-linecap="round" stroke-linejoin="round"/>
    <path d="M 161.0 319.0 C 160.3301239013672 321.5 158.5 323.33013916015625 156.0 324.0 C 153.5 323.33013916015625 151.6698760986328 321.5 151.0 319.0 C 151.6698760986328 316.5 153.5 314.66986083984375 156.0 314.0 C 158.5 314.66986083984375 160.3301239013672 316.5 161.0 319.0" stroke-width="0.0" fill="rgb(201, 39, 87)" opacity="1.0" stroke="rgb(119, 222, 23)" stroke-opacity="0.076263" stroke-linecap="round" stroke-linejoin="round"/>
    <path d="M 379.0 450.0 C 378.33013916015625 452.5 376.5 454.33013916015625 374.0 455.0 C 371.5 454.33013916015625 369.66986083984375 452.5 369.0 450.0 C 369.66986083984375 447.5 371.5 445.66986083984375 374.0 445.0 C 376.5 445.66986083984375 378.33013916015625 447.5 379.0 450.0" stroke-width="0.0" fill="rgb(242, 75, 44)" opacity="1.0" stroke="rgb(197, 191, 115)" stroke-opacity="0.6475869" stroke-linecap="round" stroke-linejoin="round"/>
    <path d="M 378.0 437.0 C 377.33013916015625 439.5 375.5 441.33013916015625 373.0 442.0 C 370.5 441.33013916015625 368.66986083984375 439.5 368.0 437.0 C 368.66986083984375 434.5 370.5 432.66986083984375 373.0 432.0 C 375.5 432.66986083984375 377.33013916015625 434.5 378.0 437.0" stroke-width="0.0" fill="rgb(245, 77, 41)" opacity="1.0" stroke="rgb(50, 115, 19)" stroke-opacity="0.80562013" stroke-linecap="round" stroke-linejoin="round"/>
    <path d="M 428.0 259.0 C 427.33013916015625 261.5 425.5 263.33013916015625 423.0 264.0 C 420.5 263.33013916015625 418.66986083984375 261.5 418.0 259.0 C 418.66986083984375 256.5 420.5 254.6698760986328 423.0 254.0 C 425.5 254.6698760986328 427.33013916015625 256.5 428.0 259.0" stroke-width="0.0" fill="rgb(231, 233, 222)" opacity="1.0" stroke="rgb(49, 139, 153)" stroke-opacity="0.6341291" stroke-linecap="round" stroke-linejoin="round"/>
    <path d="M 58.0 345.0 C 57.33012771606445 347.5 55.5 349.33013916015625 53.0 350.0 C 50.5 349.33013916015625 48.66987228393555 347.5 48.0 345.0 C 48.66987228393555 342.5 50.5 340.66986083984375 53.0 340.0 C 55.5 340.66986083984375 57.33012771606445 342.5 58.0 345.0" stroke-width="0.0" fill="rgb(90, 163, 129)" opacity="1.0" stroke="rgb(93, 218, 185)" stroke-opacity="0.68325883" stroke-linecap="round" stroke-linejoin="round"/>
    <path d="M 429.0 332.0 C 428.33013916015625 334.5 426.5 336.33013916015625 424.0 337.0 C 421.5 336.33013916015625 419.66986083984375 334.5 419.0 332.0 C 419.66986083984375 329.5 421.5 327.66986083984375 424.0 327.0 C 426.5 327.66986083984375 428.33013916015625 329.5 429.0 332.0" stroke-width="0.0" fill="rgb(73, 120, 118)" opacity="1.0" stroke="rgb(151, 142, 252)" stroke-opacity="0.5050522" stroke-linecap="round" stroke-linejoin="round"/>
    <path d="M 284.0 309.0 C 283.33013916015625 311.5 281.5 313.33013916015625 279.0 314.0 C 276.5 313.33013916015625 274.66986083984375 311.5 274.0 309.0 C 274.66986083984375 306.5 276.5 304.66986083984375 279.0 304.0 C 281.5 304.66986083984375 283.33013916015625 306.5 284.0 309.0" stroke-width="0.0" fill="rgb(77, 145, 123)" opacity="1.0" stroke="rgb(5, 64, 109)" stroke-opacity="0.8606395" stroke-linecap="round" stroke-linejoin="round"/>
    <path d="M 216.0 171.0 C 215.3301239013672 173.5 213.5 175.3301239013672 211.0 176.0 C 208.5 175.3301239013672 206.6698760986328 173.5 206.0 171.0 C 206.6698760986328 168.5 208.5 166.6698760986328 211.0 166.0 C 213.5 166.6698760986328 215.3301239013672 168.5 216.0 171.0" stroke-width="0.0" fill="rgb(232, 96, 48)" opacity="1.0" stroke="rgb(46, 75, 197)" stroke-opacity="0.11779181" stroke-linecap="round" stroke-linejoin="round"/>
    <path d="M 439.0 340.0 C 438.33013916015625 342.5 436.5 344.33013916015625 434.0 345.0 C 431.5 344.33013916015625 429.66986083984375 342.5 429.0 340.0 C 429.66986083984375 337.5 431.5 335.66986083984375 434.0 335.0 C 436.5 335.66986083984375 438.33013916015625 337.5 439.0 340.0" stroke-width="0.0" fill="rgb(56, 34, 57)" opacity="1.0" stroke="rgb(71, 100, 7)" stroke-opacity="0.8698312" stroke-linecap="round" stroke-linejoin="round"/>
    <path d="M 95.0 316.0 C 94.33012390136719 318.5 92.5 320.33013916015625 90.0 321.0 C 87.5 320.33013916015625 85.66987609863281 318.5 85.0 316.0 C 85.66987609863281 313.5 87.5 311.66986083984375 90.0 311.0 C 92.5 311.66986083984375 94.33012390136719 313.5 95.0 316.0" stroke-width="0.0" fill="rgb(222, 42, 73)" opacity="1.0" stroke="rgb(2, 39, 10)" stroke-opacity="0.35430336" stroke-linecap="round" stroke-linejoin="round"/>
    <path d="M 85.0 127.0 C 84.33012390136719 129.5 82.5 131.3301239013672 80.0 132.0 C 77.5 131.3301239013672 75.66987609863281 129.5 75.0 127.0 C 75.66987609863281 124.5 77.5 122.66987609863281 80.0 122.0 C 82.5 122.66987609863281 84.33012390136719 124.5 85.0 127.0" stroke-width="0.0" fill="rgb(162, 32, 75)" opacity="1.0" stroke="rgb(69, 161, 53)" stroke-opacity="0.23964562" stroke-linecap="round" stroke-linejoin="round"/>
    <path d="M 85.0 115.0 C 84.33012390136719 117.5 82.5 119.33012390136719 80.0 120.0 C 77.5 119.33012390136719 75.66987609863281 117.5 75.0 115.0 C 75.66987609863281 112.5 77.5 110.66987609863281 80.0 110.0 C 82.5 110.66987609863281 84.33012390136719 112.5 85.0 115.0" stroke-width="0.0" fill="rgb(181, 19, 67)" opacity="1.0" stroke="rgb(184, 32, 66)" stroke-opacity="0.29227424" stroke-linecap="round" stroke-linejoin="round"/>
    <path d="M 127.0 63.0 C 126.33012390136719 65.5 124.5 67.33012390136719 122.0 68.0 C 119.5 67.33012390136719 117.66987609863281 65.5 117.0 63.0 C 117.66987609863281 60.5 119.5 58.66987228393555 122.0 58.0 C 124.5 58.66987228393555 126.33012390136719 60.5 127.0 63.0" stroke-width="0.0" fill="rgb(52, 62, 73)" opacity="1.0" stroke="rgb(29, 167, 224)" stroke-opacity="0.9749685" stroke-linecap="round" stroke-linejoin="round"/>
    <path d="M 361.0 144.0 C 360.33013916015625 146.5 358.5 148.3301239013672 356.0 149.0 C 353.5 148.3301239013672 351.66986083984375 146.5 351.0 144.0 C 351.66986083984375 141.5 353.5 139.6698760986328 356.0 139.0 C 358.5 139.6698760986328 360.33013916015625 141.5 361.0 144.0" stroke-width="0.0" fill="rgb(250, 205, 36)" opacity="1.0" stroke="rgb(146, 249, 162)" stroke-opacity="0.58606637" stroke-linecap="round" stroke-linejoin="round"/>
    <path d="M 429.0 430.0 C 428.33013916015625 432.5 426.5 434.33013916015625 424.0 435.0 C 421.5 434.33013916015625 419.66986083984375 432.5 419.0 430.0 C 419.66986083984375 427.5 421.5 425.66986083984375 424.0 425.0 C 426.5 425.66986083984375 428.33013916015625 427.5 429.0 430.0" stroke-width="0.0" fill="rgb(121, 198, 154)" opacity="1.0" stroke="rgb(195, 64, 157)" stroke-opacity="0.2787975" stroke-linecap="round" stroke-linejoin="round"/>
    <path d="M 390.0 325.0 C 389.33013916015625 327.5 387.5 329.33013916015625 385.0 330.0 C 382.5 329.33013916015625 380.66986083984375 327.5 380.0 325.0 C 380.66986083984375 322.5 382.5 320.66986083984375 385.0 320.0 C 387.5 320.66986083984375 389.33013916015625 322.5 390.0 325.0" stroke-width="0.0" fill="rgb(67, 68, 86)" opacity="1.0" stroke="rgb(189, 176, 36)" stroke-opacity="0.8165805" stroke-linecap="round" stroke-linejoin="round"/>
    <path d="M 99.0 74.0 C 98.33012390136719 76.5 96.5 78.33012390136719 94.0 79.0 C 91.5 78.33012390136719 89.66987609863281 76.5 89.0 74.0 C 89.66987609863281 71.5 91.5 69.66987609863281 94.0 69.0 C 96.5 69.66987609863281 98.33012390136719 71.5 99.0 74.0" stroke-width="0.0" fill="rgb(78, 165, 130)" opacity="1.0" stroke="rgb(145, 155, 109)" stroke-opacity="0.13385108" stroke-linecap="round" stroke-linejoin="round"/>
    <path d="M 261.0 50.0 C 260.33013916015625 52.5 258.5 54.33012771606445 256.0 55.0 C 253.5 54.33012771606445 251.6698760986328 52.5 251.0 50.0 C 251.6698760986328 47.5 253.5 45.66987228393555 256.0 45.0 C 258.5 45.66987228393555 260.33013916015625 47.5 261.0 50.0" stroke-width="0.0" fill="rgb(243, 175, 29)" opacity="1.0" stroke="rgb(228, 163, 27)" stroke-opacity="0.7511205" stroke-linecap="round" stroke-linejoin="round"/>
    <path d="M 276.0 53.0 C 275.33013916015625 55.5 273.5 57.33012771606445 271.0 58.0 C 268.5 57.33012771606445 266.66986083984375 55.5 266.0 53.0 C 266.66986083984375 50.5 268.5 48.66987228393555 271.0 48.0 C 273.5 48.66987228393555 275.33013916015625 50.5 276.0 53.0" stroke-width="0.0" fill="rgb(236, 125, 20)" opacity="1.0" stroke="rgb(104, 193, 42)" stroke-opacity="0.06827982" stroke-linecap="round" stroke-linejoin="round"/>
    <path d="M 259.0 58.0 C 258.33013916015625 60.5 256.5 62.33012771606445 254.0 63.0 C 251.5 62.33012771606445 249.6698760986328 60.5 249.0 58.0 C 249.6698760986328 55.5 251.5 53.66987228393555 254.0 53.0 C 256.5 53.66987228393555 258.33013916015625 55.5 259.0 58.0" stroke-width="0.0" fill="rgb(242, 169, 27)" opacity="1.0" stroke="rgb(111, 72, 174)" stroke-opacity="0.022043563" stroke-linecap="round" stroke-linejoin="round"/>
    <path d="M 301.0 424.0 C 300.33013916015625 426.5 298.5 428.33013916015625 296.0 429.0 C 293.5 428.33013916015625 291.66986083984375 426.5 291.0 424.0 C 291.66986083984375 421.5 293.5 419.66986083984375 296.0 419.0 C 298.5 419.66986083984375 300.33013916015625 421.5 301.0 424.0" stroke-width="0.0" fill="rgb(110, 187, 170)" opacity="1.0" stroke="rgb(86, 21, 117)" stroke-opacity="0.9653437" stroke-linecap="round" stroke-linejoin="round"/>
    <path d="M 238.0 149.0 C 237.3301239013672 151.5 235.5 153.3301239013672 233.0 154.0 C 230.5 153.3301239013672 228.6698760986328 151.5 228.0 149.0 C 228.6698760986328 146.5 230.5 144.6698760986328 233.0 144.0 C 235.5 144.6698760986328 237.3301239013672 146.5 238.0 149.0" stroke-width="0.0" fill="rgb(58, 46, 67)" opacity="1.0" stroke="rgb(66, 8, 228)" stroke-opacity="0.54065937" stroke-linecap="round" stroke-linejoin="round"/>
    <path d="M 114.0 124.0 C 113.33012390136719 126.5 111.5 128.3301239013672 109.0 129.0 C 106.5 128.3301239013672 104.66987609863281 126.5 104.0 124.0 C 104.66987609863281 121.5 106.5 119.66987609863281 109.0 119.0 C 111.5 119.66987609863281 113.33012390136719 121.5 114.0 124.0" stroke-width="0.0" fill="rgb(250, 146, 159)" opacity="1.0" stroke="rgb(239, 126, 1)" stroke-opacity="0.44415772" stroke-linecap="round" stroke-linejoin="round"/>
    <path d="M 315.0 420.0 C 314.33013916015625 422.5 312.5 424.33013916015625 310.0 425.0 C 307.5 424.33013916015625 305.66986083984375 422.5 305.0 420.0 C 305.66986083984375 417.5 307.5 415.66986083984375 310.0 415.0 C 312.5 415.66986083984375 314.33013916015625 417.5 315.0 420.0" stroke-width="0.0" fill="rgb(121, 186, 164)" opacity="1.0" stroke="rgb(241, 2, 11)" stroke-opacity="0.4113405" stroke-linecap="round" stroke-linejoin="round"/>
    <path d="M 390.0 306.0 C 389.33013916015625 308.5 387.5 310.33013916015625 385.0 311.0 C 382.5 310.33013916015625 380.66986083984375 308.5 380.0 306.0 C 380.66986083984375 303.5 382.5 301.66986083984375 385.0 301.0 C 387.5 301.66986083984375 389.33013916015625 303.5 390.0 306.0" stroke-width="0.0" fill="rgb(67, 62, 78)" opacity="1.0" stroke="rgb(249, 29, 154)" stroke-opacity="0.9385537" stroke-linecap="round" stroke-linejoin="round"/>
    <path d="M 324.0 79.0 C 323.33013916015625 81.5 321.5 83.33012390136719 319.0 84.0 C 316.5 83.33012390136719 314.66986083984375 81.5 314.0 79.0 C 314.66986083984375 76.5 316.5 74.66987609863281 319.0 74.0 C 321.5 74.66987609863281 323.33013916015625 76.5 324.0 79.0" stroke-width="0.0" fill="rgb(94, 159, 120)" opacity="1.0" stroke="rgb(101, 103, 223)" stroke-opacity="0.79231566" stroke-linecap="round" stroke-linejoin="round"/>
    <path d="M 106.0 220.0 C 105.33012390136719 222.5 103.5 224.3301239013672 101.0 225.0 C 98.5 224.3301239013672 96.66987609863281 222.5 96.0 220.0 C 96.66987609863281 217.5 98.5 215.6698760986328 101.0 215.0 C 103.5 215.6698760986328 105.33012390136719 217.5 106.0 220.0" stroke-width="0.0" fill="rgb(252, 160, 38)" opacity="1.0" stroke="rgb(163, 239, 172)" stroke-opacity="0.7116357" stroke-linecap="round" stroke-linejoin="round"/>
    <path d="M 386.0 318.0 C 385.33013916015625 320.5 383.5 322.33013916015625 381.0 323.0 C 378.5 322.33013916015625 376.66986083984375 320.5 376.0 318.0 C 376.66986083984375 315.5 378.5 313.66986083984375 381.0 313.0 C 383.5 313.66986083984375 385.33013916015625 315.5 386.0 318.0" stroke-width="0.0" fill="rgb(68, 73, 90)" opacity="1.0" stroke="rgb(151, 101, 155)" stroke-opacity="0.1854989" stroke-linecap="round" stroke-linejoin="round"/>
    <path d="M 297.0 428.0 C 296.33013916015625 430.5 294.5 432.33013916015625 292.0 433.0 C 289.5 432.33013916015625 287.66986083984375 430.5 287.0 428.0 C 287.66986083984375 425.5 289.5 423.66986083984375 292.0 423.0 C 294.5 423.66986083984375 296.33013916015625 425.5 297.0 428.0" stroke-width="0.0" fill="rgb(102, 187, 170)" opacity="1.0" stroke="rgb(26, 199, 120)" stroke-opacity="0.75647914" stroke-linecap="round" stroke-linejoin="round"/>
    <path d="M 308.0 427.0 C 307.33013916015625 429.5 305.5 431.33013916015625 303.0 432.0 C 300.5 431.33013916015625 298.66986083984375 429.5 298.0 427.0 C 298.66986083984375 424.5 300.5 422.66986083984375 303.0 422.0 C 305.5 422.66986083984375 307.33013916015625 424.5 308.0 427.0" stroke-width="0.0" fill="rgb(106, 190, 170)" opacity="1.0" stroke="rgb(253, 170, 170)" stroke-opacity="0.80899876" stroke-linecap="round" stroke-linejoin="round"/>
    <path d="M 437.0 228.0 C 436.33013916015625 230.5 434.5 232.3301239013672 432.0 233.0 C 429.5 232.3301239013672 427.66986083984375 230.5 427.0 228.0 C 427.66986083984375 225.5 429.5 223.6698760986328 432.0 223.0 C 434.5 223.6698760986328 436.33013916015625 225.5 437.0 228.0" stroke-width="0.0" fill="rgb(243, 105, 18)" opacity="1.0" stroke="rgb(79, 157, 139)" stroke-opacity="0.51963925" stroke-linecap="round" stroke-linejoin="round"/>
    <path d="M 449.0 316.0 C 448.33013916015625 318.5 446.5 320.33013916015625 444.0 321.0 C 441.5 320.33013916015625 439.66986083984375 318.5 439.0 316.0 C 439.66986083984375 313.5 441.5 311.66986083984375 444.0 311.0 C 446.5 311.66986083984375 448.33013916015625 313.5 449.0 316.0" stroke-width="0.0" fill="rgb(230, 38, 55)" opacity="1.0" stroke="rgb(48, 10, 57)" stroke-opacity="0.5573328" stroke-linecap="round" stroke-linejoin="round"/>
    <path d="M 423.0 430.0 C 422.33013916015625 432.5 420.5 434.33013916015625 418.0 435.0 C 415.5 434.33013916015625 413.66986083984375 432.5 413.0 430.0 C 413.66986083984375 427.5 415.5 425.66986083984375 418.0 425.0 C 420.5 425.66986083984375 422.33013916015625 427.5 423.0 430.0" stroke-width="0.0" fill="rgb(124, 199, 155)" opacity="1.0" stroke="rgb(12, 154, 120)" stroke-opacity="0.4608406" stroke-linecap="round" stroke-linejoin="round"/>
    <path d="M 372.0 326.0 C 371.33013916015625 328.5 369.5 330.33013916015625 367.0 331.0 C 364.5 330.33013916015625 362.66986083984375 328.5 362.0 326.0 C 362.66986083984375 323.5 364.5 321.66986083984375 367.0 321.0 C 369.5 321.66986083984375 371.33013916015625 323.5 372.0 326.0" stroke-width="0.0" fill="rgb(69, 57, 75)" opacity="1.0" stroke="rgb(247, 198, 148)" stroke-opacity="0.3421364" stroke-linecap="round" stroke-linejoin="round"/>
    <path d="M 380.0 317.0 C 379.33013916015625 319.5 377.5 321.33013916015625 375.0 322.0 C 372.5 321.33013916015625 370.66986083984375 319.5 370.0 317.0 C 370.66986083984375 314.5 372.5 312.66986083984375 375.0 312.0 C 377.5 312.66986083984375 379.33013916015625 314.5 380.0 317.0" stroke-width="0.0" fill="rgb(178, 221, 175)" opacity="1.0" stroke="rgb(153, 107, 165)" stroke-opacity="0.089516275" stroke-linecap="round" stroke-linejoin="round"/>
    <path d="M 89.0 414.0 C 88.33012390136719 416.5 86.5 418.33013916015625 84.0 419.0 C 81.5 418.33013916015625 79.66987609863281 416.5 79.0 414.0 C 79.66987609863281 411.5 81.5 409.66986083984375 84.0 409.0 C 86.5 409.66986083984375 88.33012390136719 411.5 89.0 414.0" stroke-width="0.0" fill="rgb(59, 37, 61)" opacity="1.0" stroke="rgb(99, 36, 178)" stroke-opacity="0.18259211" stroke-linecap="round" stroke-linejoin="round"/>
    <path d="M 154.0 131.0 C 153.3301239013672 133.5 151.5 135.3301239013672 149.0 136.0 C 146.5 135.3301239013672 144.6698760986328 133.5 144.0 131.0 C 144.6698760986328 128.5 146.5 126.66987609863281 149.0 126.0 C 151.5 126.66987609863281 153.3301239013672 128.5 154.0 131.0" stroke-width="0.0" fill="rgb(225, 108, 22)" opacity="1.0" stroke="rgb(231, 164, 142)" stroke-opacity="0.3358575" stroke-linecap="round" stroke-linejoin="round"/>
    <path d="M 424.0 340.0 C 423.33013916015625 342.5 421.5 344.33013916015625 419.0 345.0 C 416.5 344.33013916015625 414.66986083984375 342.5 414.0 340.0 C 414.66986083984375 337.5 416.5 335.66986083984375 419.0 335.0 C 421.5 335.66986083984375 423.33013916015625 337.5 424.0 340.0" stroke-width="0.0" fill="rgb(69, 112, 112)" opacity="1.0" stroke="rgb(52, 154, 145)" stroke-opacity="0.83160865" stroke-linecap="round" stroke-linejoin="round"/>
    <path d="M 427.0 402.0 C 426.33013916015625 404.5 424.5 406.33013916015625 422.0 407.0 C 419.5 406.33013916015625 417.66986083984375 404.5 417.0 402.0 C 417.66986083984375 399.5 419.5 397.66986083984375 422.0 397.0 C 424.5 397.66986083984375 426.33013916015625 399.5 427.0 402.0" stroke-width="0.0" fill="rgb(128, 198, 153)" opacity="1.0" stroke="rgb(226, 181, 33)" stroke-opacity="0.23606305" stroke-linecap="round" stroke-linejoin="round"/>
    <path d="M 148.0 337.0 C 147.3301239013672 339.5 145.5 341.33013916015625 143.0 342.0 C 140.5 341.33013916015625 138.6698760986328 339.5 138.0 337.0 C 138.6698760986328 334.5 140.5 332.66986083984375 143.0 332.0 C 145.5 332.66986083984375 147.3301239013672 334.5 148.0 337.0" stroke-width="0.0" fill="rgb(113, 194, 156)" opacity="1.0" stroke="rgb(185, 12, 227)" stroke-opacity="0.74009246" stroke-linecap="round" stroke-linejoin="round"/>
    <path d="M 172.0 334.0 C 171.3301239013672 336.5 169.5 338.33013916015625 167.0 339.0 C 164.5 338.33013916015625 162.6698760986328 336.5 162.0 334.0 C 162.6698760986328 331.5 164.5 329.66986083984375 167.0 329.0 C 169.5 329.66986083984375 171.3301239013672 331.5 172.0 334.0" stroke-width="0.0" fill="rgb(64, 116, 110)" opacity="1.0" stroke="rgb(3, 188, 238)" stroke-opacity="0.95785666" stroke-linecap="round" stroke-linejoin="round"/>
    <path d="M 429.0 455.0 C 428.33013916015625 457.5 426.5 459.33013916015625 424.0 460.0 C 421.5 459.33013916015625 419.66986083984375 457.5 419.0 455.0 C 419.66986083984375 452.5 421.5 450.66986083984375 424.0 450.0 C 426.5 450.66986083984375 428.33013916015625 452.5 429.0 455.0" stroke-width="0.0" fill="rgb(105, 190, 145)" opacity="1.0" stroke="rgb(217, 149, 186)" stroke-opacity="0.34694868" stroke-linecap="round" stroke-linejoin="round"/>
    <path d="M 80.0 320.0 C 79.33012390136719 322.5 77.5 324.33013916015625 75.0 325.0 C 72.5 324.33013916015625 70.66987609863281 322.5 70.0 320.0 C 70.66987609863281 317.5 72.5 315.66986083984375 75.0 315.0 C 77.5 315.66986083984375 79.33012390136719 317.5 80.0 320.0" stroke-width="0.0" fill="rgb(246, 210, 43)" opacity="1.0" stroke="rgb(131, 199, 163)" stroke-opacity="0.7092403" stroke-linecap="round" stroke-linejoin="round"/>
    <path d="M 89.0 172.0 C 88.33012390136719 174.5 86.5 176.3301239013672 84.0 177.0 C 81.5 176.3301239013672 79.66987609863281 174.5 79.0 172.0 C 79.66987609863281 169.5 81.5 167.6698760986328 84.0 167.0 C 86.5 167.6698760986328 88.33012390136719 169.5 89.0 172.0" stroke-width="0.0" fill="rgb(37, 86, 88)" opacity="1.0" stroke="rgb(1, 91, 224)" stroke-opacity="0.5133661" stroke-linecap="round" stroke-linejoin="round"/>
    <path d="M 414.0 357.0 C 413.33013916015625 359.5 411.5 361.33013916015625 409.0 362.0 C 406.5 361.33013916015625 404.66986083984375 359.5 404.0 357.0 C 404.66986083984375 354.5 406.5 352.66986083984375 409.0 352.0 C 411.5 352.66986083984375 413.33013916015625 354.5 414.0 357.0" stroke-width="0.0" fill="rgb(253, 238, 137)" opacity="1.0" stroke="rgb(104, 3, 93)" stroke-opacity="0.8668065" stroke-linecap="round" stroke-linejoin="round"/>
    <path d="M 81.0 330.0 C 80.33012390136719 332.5 78.5 334.33013916015625 76.0 335.0 C 73.5 334.33013916015625 71.66987609863281 332.5 71.0 330.0 C 71.66987609863281 327.5 73.5 325.66986083984375 76.0 325.0 C 78.5 325.66986083984375 80.33012390136719 327.5 81.0 330.0" stroke-width="0.0" fill="rgb(245, 208, 25)" opacity="1.0" stroke="rgb(49, 129, 196)" stroke-opacity="0.3006249" stroke-linecap="round" stroke-linejoin="round"/>
    <path d="M 433.0 82.0 C 432.33013916015625 84.5 430.5 86.33012390136719 428.0 87.0 C 425.5 86.33012390136719 423.66986083984375 84.5 423.0 82.0 C 423.66986083984375 79.5 425.5 77.66987609863281 428.0 77.0 C 430.5 77.66987609863281 432.33013916015625 79.5 433.0 82.0" stroke-width="0.0" fill="rgb(233, 98, 111)" opacity="1.0" stroke="rgb(114, 9, 147)" stroke-opacity="0.1134089" stroke-linecap="round" stroke-linejoin="round"/>
    <path d="M 434.0 209.0 C 433.33013916015625 211.5 431.5 213.3301239013672 429.0 214.0 C 426.5 213.3301239013672 424.66986083984375 211.5 424.0 209.0 C 424.66986083984375 206.5 426.5 204.6698760986328 429.0 204.0 C 431.5 204.6698760986328 433.33013916015625 206.5 434.0 209.0" stroke-width="0.0" fill="rgb(244, 167, 28)" opacity="1.0" stroke="rgb(210, 96, 73)" stroke-opacity="0.091198705" stroke-linecap="round" stroke-linejoin="round"/>
    <path d="M 286.0 428.0 C 285.33013916015625 430.5 283.5 432.33013916015625 281.0 433.0 C 278.5 432.33013916015625 276.66986083984375 430.5 276.0 428.0 C 276.66986083984375 425.5 278.5 423.66986083984375 281.0 423.0 C 283.5 423.66986083984375 285.33013916015625 425.5 286.0 428.0" stroke-width="0.0" fill="rgb(105, 190, 173)" opacity="1.0" stroke="rgb(168, 167, 26)" stroke-opacity="0.2573892" stroke-linecap="round" stroke-linejoin="round"/>
  </g>
</svg>
