<?xml version="1.0" ?>
<svg xmlns="http://www.w3.org/2000/svg" version="1.1" width="512" height="512">
  <defs/>
  <g>
    <path d="M 0.0 0.0 L 512.0 0.0 L 512.0 512.0 L 0.0 512.0 L 0.0 0.0" stroke-width="0.0" fill="rgb(255, 255, 255)" opacity="1.0" stroke="rgb(0, 0, 0)" stroke-opacity="0.0" stroke-linecap="round" stroke-linejoin="round"/>
    <path d="M 88.0 63.0 C 23.20930290222168 122.22683715820312 5.484221935272217 183.38739013671875 0.0 244.0 L 0.0 511.0 L 511.0 511.0 C 494.52081298828125 369.6666564941406 556.5467529296875 228.3333282470703 447.0 87.0 C 342.0 -17.777286529541016 237.0 -16.167869567871094 132.0 32.0 C 117.42906951904297 41.6418342590332 102.16151428222656 49.73166275024414 88.0 63.0" stroke-width="2.0" fill="rgb(96, 183, 250)" opacity="1.0" stroke="rgb(0, 0, 0)" stroke-opacity="0.0" stroke-linecap="round" stroke-linejoin="round"/>
    <path d="M 394.0 146.0 C 389.15997314453125 136.9281005859375 380.459716796875 138.9672088623047 374.0 141.0 C 288.3333435058594 177.73582458496094 202.6666717529297 202.26112365722656 117.0 244.0 C 114.29847717285156 251.286865234375 123.53272247314453 254.61888122558594 129.0 257.0 C 149.0 262.79638671875 169.0 268.4525146484375 189.0 276.0 C 200.35557556152344 303.0 203.7598876953125 330.0 216.0 357.0 C 234.36109924316406 361.935791015625 249.21670532226562 330.4997253417969 265.0 322.0 C 291.6666564941406 336.2936096191406 318.3333435058594 371.6935729980469 345.0 371.0 C 369.627685546875 301.0 375.2847900390625 231.0 394.0 161.0 L 394.0 146.0" stroke-width="2.0" fill="rgb(245, 247, 247)" opacity="1.0" stroke="rgb(0, 0, 0)" stroke-opacity="0.0" stroke-linecap="round" stroke-linejoin="round"/>
    <path d="M 387.0 140.0 C 372.0 139.3390655517578 357.0 150.63218688964844 342.0 154.0 C 346.7778625488281 164.5195770263672 342.1697692871094 172.11898803710938 346.0 184.0 L 228.0 291.0 C 227.7209930419922 293.3333435058594 227.66233825683594 295.6666564941406 231.0 298.0 C 265.72735595703125 320.8336486816406 300.23675537109375 350.1587219238281 336.0 372.0 C 340.3333435058594 372.0849304199219 344.6666564941406 371.8310241699219 349.0 367.0 C 366.03533935546875 297.0 378.56927490234375 227.0 394.0 157.0 C 394.1788635253906 151.9830322265625 394.4322509765625 144.35604858398438 387.0 140.0" stroke-width="2.0" fill="rgb(253, 254, 254)" opacity="1.0" stroke="rgb(0, 0, 0)" stroke-opacity="0.0" stroke-linecap="round" stroke-linejoin="round"/>
    <path d="M 511.0 294.0 C 504.81494140625 393.7221374511719 379.9862365722656 512.6680297851562 283.0 511.0 L 511.0 511.0 L 511.0 294.0" stroke-width="2.0" fill="rgb(253, 254, 254)" opacity="1.0" stroke="rgb(0, 0, 0)" stroke-opacity="0.0" stroke-linecap="round" stroke-linejoin="round"/>
    <path d="M 0.0 300.0 L 0.0 511.0 L 229.0 511.0 L 187.0 504.0 C 99.78801727294922 484.8057861328125 11.124136924743652 385.20220947265625 0.0 300.0" stroke-width="2.0" fill="rgb(254, 254, 254)" opacity="1.0" stroke="rgb(0, 0, 0)" stroke-opacity="0.0" stroke-linecap="round" stroke-linejoin="round"/>
    <path d="M 342.0 183.0 C 291.6666564941406 209.58367919921875 241.3333282470703 243.57745361328125 191.0 276.0 C 198.4246826171875 303.0 204.518798828125 330.0 217.0 357.0 C 232.53208923339844 361.2787170410156 247.69305419921875 334.0408020019531 262.0 323.0 C 253.18077087402344 308.8414306640625 223.81906127929688 303.998291015625 228.0 289.0 C 265.47967529296875 253.7323760986328 308.3255310058594 219.83177185058594 342.0 183.0" stroke-width="2.0" fill="rgb(218, 219, 219)" opacity="1.0" stroke="rgb(0, 0, 0)" stroke-opacity="0.0" stroke-linecap="round" stroke-linejoin="round"/>
    <path d="M 228.0 296.0 C 223.63034057617188 314.3350524902344 223.230712890625 336.9986877441406 222.0 357.0 C 235.8461151123047 354.3791198730469 249.51226806640625 335.59039306640625 262.0 323.0 C 252.9942626953125 313.0357360839844 239.6709747314453 305.1359558105469 228.0 296.0" stroke-width="2.0" fill="rgb(180, 183, 184)" opacity="1.0" stroke="rgb(0, 0, 0)" stroke-opacity="0.0" stroke-linecap="round" stroke-linejoin="round"/>
  </g>
</svg>
