<?xml version="1.0" ?>
<svg xmlns="http://www.w3.org/2000/svg" version="1.1" width="398" height="512">
  <defs/>
  <g>
    <path d="M -10.0 -10.0 C -9.0 -10.0 398.0 0.0 399.0 0.0 C 400.0 0.0 398.0 512.0 399.0 512.0 C 399.0 513.0 0.0 512.0 0.0 513.0 C 0.0 512.0 0.0 513.0 -10.0 -10.0 L -10.0 -10.0" stroke-width="2.0" fill="rgb(254, 253, 252)" opacity="0.6268804"/>
    <path d="M 387.0357666015625 224.62814331054688 C 388.1583251953125 222.4014892578125 383.05780029296875 222.74119567871094 386.93121337890625 221.44720458984375 C 385.5509948730469 225.3516845703125 381.0766906738281 222.75540161132812 385.06317138671875 227.6238250732422 C 385.255126953125 227.82374572753906 388.6404113769531 227.15020751953125 392.1569519042969 222.4039764404297 C 383.55584716796875 225.27134704589844 379.7109680175781 224.0 377.4376220703125 233.25326538085938 L 387.0357666015625 224.62814331054688" stroke-width="2.0" fill="rgb(110, 255, 255)" opacity="0.0"/>
    <path d="M 268.079345703125 45.435523986816406 C 269.2477111816406 46.66783142089844 266.9861755371094 44.3031005859375 267.0010986328125 44.35530090332031 C 267.4505920410156 44.551883697509766 266.9216613769531 44.56414794921875 267.3053894042969 44.57716751098633 C 266.851806640625 44.66990661621094 267.5107727050781 44.38533020019531 266.4652404785156 44.91756057739258 C 270.44818115234375 43.193912506103516 271.6570739746094 42.58374786376953 267.2662048339844 44.54658889770508 L 268.079345703125 45.435523986816406" stroke-width="2.0" fill="rgb(245, 117, 63)" opacity="0.16876802"/>
    <path d="M 218.60328674316406 361.4178161621094 C 189.5596923828125 362.31146240234375 170.35145568847656 359.27569580078125 173.44049072265625 359.9088134765625 C 113.74120330810547 353.57257080078125 99.31956481933594 344.4167175292969 85.83788299560547 337.1753845214844 C 80.0800552368164 264.5831298828125 75.67072296142578 285.9385070800781 95.5997085571289 294.977294921875 C 126.67650604248047 309.6651611328125 163.86183166503906 320.54705810546875 221.52915954589844 318.4265441894531 L 218.60328674316406 361.4178161621094" stroke-width="2.0" fill="rgb(140, 68, 0)" opacity="0.9960371"/>
    <path d="M 5.454774379730225 251.47640991210938 C 4.879633903503418 250.4132537841797 4.282003402709961 249.2830352783203 5.582370758056641 251.88446044921875 C 4.763422012329102 249.4156036376953 4.66487455368042 248.7092742919922 5.482911586761475 251.60845947265625 C 4.718137264251709 249.3470458984375 5.0527238845825195 249.7123260498047 5.001524925231934 250.1331329345703 C 5.43048620223999 251.32269287109375 5.584973335266113 251.6898193359375 4.398418426513672 250.94711303710938 L 5.454774379730225 251.47640991210938" stroke-width="2.0" fill="rgb(255, 61, 197)" opacity="0.0"/>
    <path d="M 238.1019744873047 44.61266326904297 C 237.37705993652344 44.43976974487305 238.69740295410156 44.659141540527344 237.33445739746094 44.47245407104492 C 239.41815185546875 44.82931900024414 240.17835998535156 45.26950454711914 239.7100372314453 45.91336441040039 C 240.53924560546875 44.83985900878906 236.94076538085938 44.387298583984375 237.6094970703125 44.498779296875 C 237.83363342285156 44.610740661621094 237.9321746826172 44.50569534301758 237.08145141601562 44.395503997802734 L 238.1019744873047 44.61266326904297" stroke-width="2.0" fill="rgb(184, 111, 194)" opacity="0.15931483"/>
    <path d="M 256.5039367675781 157.49537658691406 C 187.72183227539062 211.5084991455078 188.31903076171875 100.49089813232422 196.21307373046875 179.69406127929688 C 155.8379669189453 210.14019775390625 238.54788208007812 125.30931854248047 156.35902404785156 149.95285034179688 C 135.82159423828125 136.41433715820312 178.24424743652344 106.92617797851562 189.84698486328125 155.2859649658203 C 185.08099365234375 94.08073425292969 248.0913848876953 93.22156524658203 256.0726623535156 133.98728942871094 L 256.5039367675781 157.49537658691406" stroke-width="2.0" fill="rgb(204, 6, 12)" opacity="0.8881803"/>
    <path d="M 8.635371208190918 260.2445068359375 C 8.711610794067383 259.350830078125 8.355798721313477 259.667724609375 7.96336555480957 261.7378845214844 C 8.7037935256958 260.3551940917969 7.64268684387207 258.15081787109375 8.126419067382812 259.67840576171875 C 7.751307487487793 260.2152099609375 8.70406436920166 260.3505554199219 7.905702590942383 259.78289794921875 C 9.501252174377441 260.4142150878906 8.730619430541992 261.5962219238281 8.520742416381836 258.8228759765625 L 8.635371208190918 260.2445068359375" stroke-width="2.0" fill="rgb(36, 78, 168)" opacity="0.0"/>
    <path d="M 21.053417205810547 301.5243225097656 C 21.5430908203125 301.2551574707031 20.81220054626465 301.71563720703125 21.393348693847656 301.3805236816406 C 23.5436954498291 302.0689697265625 22.7199649810791 301.85833740234375 21.8035945892334 301.4947204589844 C 21.5562801361084 301.3659973144531 22.27132797241211 301.6575622558594 21.62018394470215 301.4182434082031 C 21.453466415405273 301.3365173339844 21.112146377563477 301.4530944824219 21.544679641723633 301.39007568359375 L 21.053417205810547 301.5243225097656" stroke-width="2.0" fill="rgb(78, 195, 82)" opacity="0.3105318"/>
    <path d="M 306.68609619140625 491.5934143066406 C 305.992431640625 488.7162780761719 306.6425476074219 487.9563293457031 306.838623046875 489.01629638671875 C 308.4297180175781 489.8060302734375 307.4461364746094 489.5616149902344 307.08782958984375 491.010009765625 C 304.99462890625 489.729248046875 306.8394470214844 489.79107666015625 308.48492431640625 491.492431640625 C 306.3937683105469 488.91156005859375 307.6058654785156 489.2759704589844 307.55889892578125 491.6207580566406 L 306.68609619140625 491.5934143066406" stroke-width="2.0" fill="rgb(69, 117, 46)" opacity="0.0"/>
    <path d="M 320.3481140136719 90.27013397216797 C 320.5736999511719 92.30962371826172 320.2888488769531 90.54463958740234 320.52099609375 91.57832336425781 C 322.59515380859375 91.41175842285156 321.8361511230469 91.98086547851562 323.6346130371094 89.5997543334961 C 321.8072509765625 92.1500015258789 322.8044738769531 90.65242004394531 322.1977233886719 91.40133666992188 C 319.6327209472656 92.0223388671875 320.7171325683594 90.975830078125 320.417724609375 91.23100280761719 L 320.3481140136719 90.27013397216797" stroke-width="2.0" fill="rgb(78, 255, 88)" opacity="0.25222683"/>
    <path d="M 17.865873336791992 197.99578857421875 C 16.634122848510742 198.51953125 15.98256778717041 198.23374938964844 15.373156547546387 198.4806671142578 C 15.63598346710205 198.51889038085938 15.145904541015625 198.41452026367188 16.126018524169922 198.39208984375 C 14.808693885803223 198.5272979736328 15.804633140563965 198.3524169921875 16.752779006958008 198.35658264160156 C 15.3929443359375 198.2714080810547 16.06852149963379 198.71511840820312 18.446895599365234 197.849609375 L 17.865873336791992 197.99578857421875" stroke-width="2.0" fill="rgb(126, 134, 255)" opacity="0.051830046"/>
    <path d="M 324.3240966796875 248.58792114257812 C 352.1322021484375 261.7780456542969 347.89300537109375 281.98681640625 342.4499816894531 276.552978515625 C 326.0814514160156 254.52122497558594 261.69378662109375 241.41763305664062 244.5413818359375 252.1772918701172 C 185.1397705078125 256.46270751953125 193.80979919433594 273.8589172363281 256.49603271484375 146.8899688720703 C 289.4514465332031 124.56046295166016 297.5020446777344 181.43214416503906 334.673583984375 224.71099853515625 L 324.3240966796875 248.58792114257812" stroke-width="2.0" fill="rgb(250, 115, 134)" opacity="0.89181566"/>
    <path d="M 322.95172119140625 150.14559936523438 C 323.67059326171875 150.26255798339844 323.06298828125 150.3644256591797 323.2353210449219 148.95126342773438 C 324.89166259765625 150.86917114257812 324.4394226074219 150.85975646972656 326.2857666015625 150.2376708984375 C 324.593505859375 151.50303649902344 324.518310546875 151.87355041503906 325.1930847167969 153.4849090576172 C 323.5233154296875 152.04795837402344 323.73272705078125 152.44577026367188 322.5008544921875 152.89822387695312 L 322.95172119140625 150.14559936523438" stroke-width="2.0" fill="rgb(50, 66, 129)" opacity="0.0"/>
    <path d="M 328.23779296875 430.2509765625 C 282.0530700683594 457.33074951171875 206.08309936523438 457.6738586425781 219.27444458007812 457.237060546875 C 192.184814453125 458.6317443847656 173.64474487304688 455.7984924316406 159.12857055664062 453.3175964355469 C 136.04513549804688 385.4375915527344 113.80391693115234 403.963134765625 190.39572143554688 408.2715759277344 C 254.33358764648438 410.7852478027344 310.0232849121094 400.7599792480469 333.5870666503906 381.0886535644531 L 328.23779296875 430.2509765625" stroke-width="2.0" fill="rgb(122, 48, 0)" opacity="0.9994287"/>
    <path d="M 176.21409606933594 327.20526123046875 C 145.9110870361328 343.2714538574219 170.40542602539062 382.565673828125 159.79347229003906 339.5456237792969 C 129.26283264160156 337.6649475097656 178.79759216308594 395.61962890625 96.05967712402344 433.46502685546875 C 82.5820541381836 311.3244934082031 82.37127685546875 299.64068603515625 87.05699157714844 322.7071838378906 C 160.496337890625 305.49200439453125 131.6005096435547 308.4300231933594 175.95440673828125 336.35418701171875 L 176.21409606933594 327.20526123046875" stroke-width="2.0" fill="rgb(200, 81, 0)" opacity="0.43589506"/>
    <path d="M 62.79029083251953 430.15899658203125 C 62.95983123779297 430.9455261230469 62.40359115600586 431.5868225097656 61.77021789550781 431.4759216308594 C 61.163230895996094 431.7513732910156 60.46068572998047 431.2662658691406 60.440452575683594 430.58807373046875 C 60.12118148803711 430.0486145019531 60.578941345214844 429.3194885253906 61.28138732910156 429.2696533203125 C 61.790802001953125 428.74468994140625 62.6159782409668 428.99951171875 62.98044204711914 429.6902160644531 L 62.79029083251953 430.15899658203125" stroke-width="2.0" fill="rgb(196, 214, 128)" opacity="0.0"/>
    <path d="M 157.5401611328125 23.888429641723633 C 157.3646697998047 23.847673416137695 156.93414306640625 24.322486877441406 156.69589233398438 23.544361114501953 C 157.507080078125 24.93964195251465 157.2701873779297 24.42423439025879 158.38589477539062 23.839887619018555 C 156.9029083251953 24.50835418701172 157.27455139160156 24.15322494506836 157.61520385742188 24.94589614868164 C 156.8848419189453 24.160490036010742 157.2286376953125 24.49231719970703 156.75338745117188 25.687397003173828 L 157.5401611328125 23.888429641723633" stroke-width="2.0" fill="rgb(90, 27, 145)" opacity="0.0"/>
    <path d="M 371.0577697753906 357.4783020019531 C 371.29510498046875 358.1119079589844 370.58343505859375 357.6538391113281 370.9985656738281 357.6083984375 C 372.08892822265625 357.8593444824219 371.09771728515625 356.96875 371.2154235839844 357.6083068847656 C 370.0074157714844 358.80487060546875 371.2354736328125 359.1463623046875 372.13153076171875 359.51019287109375 C 370.2697448730469 358.2784729003906 371.0087585449219 358.0972595214844 370.6318054199219 358.8072204589844 L 371.0577697753906 357.4783020019531" stroke-width="2.0" fill="rgb(106, 255, 45)" opacity="0.0"/>
    <path d="M 27.03719139099121 218.17520141601562 C 26.80753517150879 215.6561737060547 26.850486755371094 216.94573974609375 27.067798614501953 218.21133422851562 C 26.699853897094727 216.9038543701172 27.35765838623047 217.83934020996094 28.449743270874023 216.68797302246094 C 27.592082977294922 217.52403259277344 26.714458465576172 217.3827362060547 27.41719627380371 217.38796997070312 C 27.298593521118164 217.37864685058594 26.257909774780273 217.8154754638672 26.976985931396484 217.55715942382812 L 27.03719139099121 218.17520141601562" stroke-width="2.0" fill="rgb(90, 150, 240)" opacity="0.28650483"/>
    <path d="M 267.0347900390625 446.12774658203125 C 231.94078063964844 451.9092712402344 210.48622131347656 455.3398132324219 159.47506713867188 448.654052734375 C 155.613037109375 454.7641296386719 167.96115112304688 455.6579284667969 123.53364562988281 443.43682861328125 C 145.24978637695312 373.4841003417969 152.67340087890625 379.9311828613281 142.3599853515625 382.9957275390625 C 206.1496124267578 373.6723327636719 206.9635467529297 382.3116149902344 257.4748840332031 352.779541015625 L 267.0347900390625 446.12774658203125" stroke-width="2.0" fill="rgb(214, 87, 3)" opacity="0.48402256"/>
    <path d="M 69.30290222167969 298.9501647949219 C 70.49942016601562 298.630615234375 68.33512878417969 299.1206359863281 69.16032409667969 298.8930358886719 C 69.39462280273438 299.08746337890625 68.65542602539062 298.7743225097656 69.32575988769531 298.9405212402344 C 69.95391082763672 300.7275390625 69.64013671875 299.9360046386719 69.84741973876953 300.1691589355469 C 69.07643127441406 299.6098937988281 70.19927215576172 300.38189697265625 69.73948669433594 300.1368408203125 L 69.30290222167969 298.9501647949219" stroke-width="2.0" fill="rgb(110, 255, 191)" opacity="0.11151516"/>
    <path d="M 343.7688293457031 291.8088684082031 C 336.5718688964844 333.1604309082031 344.4620056152344 332.0460510253906 329.5587463378906 337.7491149902344 C 252.93870544433594 344.61492919921875 258.9582214355469 342.8677062988281 200.0499725341797 303.14068603515625 C 186.80563354492188 243.00860595703125 196.3654327392578 276.7738037109375 263.8697204589844 248.2772216796875 C 314.58905029296875 249.11277770996094 339.1275634765625 272.5350646972656 345.2510070800781 276.0534362792969 L 343.7688293457031 291.8088684082031" stroke-width="2.0" fill="rgb(246, 65, 35)" opacity="0.4791188"/>
    <path d="M 333.85894775390625 39.16807556152344 C 333.75701904296875 35.68013000488281 333.60308837890625 36.03789520263672 333.5348815917969 35.40830993652344 C 333.6986083984375 36.42407989501953 333.44061279296875 34.66532516479492 333.6808776855469 36.44339370727539 C 333.43157958984375 34.42256164550781 333.2123718261719 32.34619140625 333.76171875 36.97018814086914 C 333.4710693359375 34.80082702636719 333.8063659667969 36.9547004699707 333.6831970214844 36.265438079833984 L 333.85894775390625 39.16807556152344" stroke-width="2.0" fill="rgb(125, 49, 242)" opacity="0.11047839"/>
    <path d="M 301.70166015625 75.1956787109375 C 300.1671142578125 74.51001739501953 300.4268493652344 74.55322265625 300.2121887207031 75.54461669921875 C 302.1397705078125 76.30877685546875 301.8233642578125 75.06912994384766 301.594970703125 74.7655258178711 C 300.7593078613281 76.67845153808594 301.8492126464844 77.11080932617188 303.0015563964844 78.04170989990234 C 301.4800720214844 76.5400161743164 301.7347717285156 76.55571746826172 301.7449035644531 76.78678131103516 L 301.70166015625 75.1956787109375" stroke-width="2.0" fill="rgb(78, 137, 218)" opacity="0.0"/>
    <path d="M 324.59503173828125 208.34129333496094 C 329.3452453613281 215.555908203125 323.8092041015625 209.94287109375 325.94097900390625 209.0283966064453 C 324.9241638183594 218.2083282470703 331.5818786621094 209.48529052734375 297.85528564453125 195.2415008544922 C 265.5069274902344 69.6364974975586 237.71839904785156 100.66670227050781 407.67266845703125 94.79328918457031 C 405.5274658203125 283.2069396972656 346.9017028808594 240.88525390625 325.26605224609375 210.510009765625 L 324.59503173828125 208.34129333496094" stroke-width="2.0" fill="rgb(255, 255, 255)" opacity="0.65545785"/>
    <path d="M 250.3079071044922 356.3249206542969 C 207.8540496826172 382.63580322265625 181.5746307373047 374.7598876953125 192.00209045410156 377.5718688964844 C 128.36953735351562 381.8408203125 150.94418334960938 391.53948974609375 147.93521118164062 356.4491882324219 C 106.0416030883789 345.97027587890625 83.36441040039062 343.3998718261719 80.88668823242188 286.7894592285156 C 160.7440948486328 322.6312561035156 186.30604553222656 302.9321594238281 246.836181640625 318.1440124511719 L 250.3079071044922 356.3249206542969" stroke-width="2.0" fill="rgb(202, 66, 0)" opacity="0.4752398"/>
    <path d="M 211.37689208984375 450.079345703125 C 161.8094024658203 442.9444274902344 136.64199829101562 451.4676208496094 182.9329833984375 457.0641784667969 C 168.53785705566406 454.7845458984375 132.8874969482422 451.3326721191406 94.22461700439453 431.8041687011719 C 96.92732238769531 423.9867858886719 95.06519317626953 428.6629333496094 91.20762634277344 383.7826843261719 C 148.3824462890625 416.6351318359375 188.39866638183594 405.6341247558594 200.06105041503906 410.67034912109375 L 211.37689208984375 450.079345703125" stroke-width="2.0" fill="rgb(169, 68, 0)" opacity="1.0"/>
    <path d="M 341.5939636230469 286.8077087402344 C 341.0994873046875 263.6108093261719 353.51055908203125 335.7259826660156 313.0201721191406 346.38720703125 C 206.54432678222656 373.3735656738281 188.35125732421875 361.451416015625 198.9185028076172 319.9061279296875 C 301.85247802734375 317.45068359375 317.5151672363281 294.2314758300781 288.3747253417969 315.18682861328125 C 329.96295166015625 294.879150390625 302.6304931640625 303.2328796386719 287.540283203125 315.8268737792969 L 341.5939636230469 286.8077087402344" stroke-width="2.0" fill="rgb(162, 65, 0)" opacity="1.0"/>
    <path d="M 66.73172760009766 157.13134765625 C 65.71124267578125 158.56314086914062 64.65811157226562 160.10214233398438 67.26271057128906 156.36593627929688 C 65.45974731445312 159.07583618164062 67.37006378173828 156.01217651367188 68.83980560302734 154.63909912109375 C 66.10847473144531 157.847412109375 66.54497528076172 157.38235473632812 66.12625885009766 158.0557403564453 C 66.68143463134766 157.16920471191406 66.24551391601562 157.89830017089844 67.01864624023438 156.66761779785156 L 66.73172760009766 157.13134765625" stroke-width="2.0" fill="rgb(54, 155, 168)" opacity="0.16758348"/>
    <path d="M 251.3466033935547 214.9857940673828 C 248.06935119628906 139.08717346191406 261.91827392578125 144.07432556152344 223.09127807617188 210.39418029785156 C 141.98402404785156 182.24221801757812 162.09275817871094 218.26632690429688 116.87451934814453 172.97763061523438 C 129.9081268310547 153.68202209472656 167.703125 143.8897247314453 190.93753051757812 144.24061584472656 C 186.94090270996094 83.86944580078125 279.1829833984375 104.8685531616211 250.7845001220703 158.096435546875 L 251.3466033935547 214.9857940673828" stroke-width="2.0" fill="rgb(233, 0, 0)" opacity="0.40245014"/>
    <path d="M 199.26283264160156 304.2485656738281 C 72.29722595214844 301.06695556640625 93.22470092773438 247.59767150878906 79.75948333740234 286.1983642578125 C 122.54866027832031 307.62969970703125 147.22740173339844 319.0697937011719 81.61673736572266 279.6986999511719 C 83.5877685546875 291.8455810546875 60.97540283203125 266.31341552734375 98.6622543334961 248.3072967529297 C 43.604679107666016 203.6703338623047 112.07861328125 186.00462341308594 221.72325134277344 204.90814208984375 L 199.26283264160156 304.2485656738281" stroke-width="2.0" fill="rgb(253, 145, 139)" opacity="0.8068075"/>
    <path d="M 328.68817138671875 425.8582458496094 C 319.7270202636719 421.65802001953125 345.8952941894531 430.61431884765625 313.26007080078125 434.9768371582031 C 246.03805541992188 452.4693603515625 241.7420196533203 449.8681945800781 261.406494140625 445.6883544921875 C 265.53924560546875 372.5672912597656 252.57135009765625 347.97381591796875 253.31521606445312 319.2435302734375 C 333.1068420410156 297.6248779296875 320.52325439453125 292.8321838378906 341.65972900390625 309.11492919921875 L 328.68817138671875 425.8582458496094" stroke-width="2.0" fill="rgb(178, 70, 0)" opacity="0.47962767"/>
    <path d="M 116.73970794677734 158.7790985107422 C 105.26648712158203 24.066823959350586 67.37677001953125 65.33003997802734 89.64299774169922 57.11354064941406 C 87.21795654296875 18.458467483520508 60.99209976196289 -2.803532838821411 121.84115600585938 -2.6116278171539307 C 118.4508056640625 133.91387939453125 89.34184265136719 89.0363540649414 79.47003173828125 -9.63751220703125 C -34.15768051147461 -4.487004280090332 -25.164030075073242 16.690811157226562 -9.862061500549316 158.89688110351562 L 116.73970794677734 158.7790985107422" stroke-width="2.0" fill="rgb(255, 255, 255)" opacity="1.0"/>
  </g>
</svg>
