<?xml version="1.0" ?>
<svg xmlns="http://www.w3.org/2000/svg" version="1.1" width="512" height="320">
  <defs/>
  <g>
    <path d="M 216.75962829589844 197.4127197265625 C 180.70265197753906 271.454345703125 173.33920288085938 215.04551696777344 133.0098419189453 236.68922424316406 C 107.15238952636719 248.66259765625 65.7522964477539 173.03106689453125 92.02882385253906 131.52928161621094 C 122.38363647460938 94.03854370117188 136.50547790527344 134.79554748535156 177.82647705078125 113.06816864013672 C 256.68841552734375 127.6447525024414 152.59178161621094 142.9187774658203 216.75962829589844 197.4127197265625" stroke-width="0.0" fill="rgb(2, 2, 2)" opacity="0.9945064" stroke="rgb(99, 167, 235)" stroke-opacity="0.51644367" stroke-linecap="round" stroke-linejoin="round"/>
    <path d="M 180.39358520507812 87.44532775878906 C 177.79869079589844 101.97674560546875 164.68292236328125 117.5341567993164 149.84060668945312 116.41883850097656 C 149.25570678710938 117.11043548583984 148.40525817871094 120.36613464355469 150.0275115966797 107.47120666503906 C 153.8139190673828 92.71654510498047 160.7004852294922 82.53235626220703 182.13523864746094 77.73314666748047 C 177.4373321533203 79.10383605957031 182.57843017578125 74.16194915771484 180.39358520507812 87.44532775878906" stroke-width="0.0" fill="rgb(2, 2, 2)" opacity="1.0" stroke="rgb(43, 116, 16)" stroke-opacity="0.1117477" stroke-linecap="round" stroke-linejoin="round"/>
    <path d="M 356.9960632324219 108.31756591796875 C 362.02960205078125 142.2883758544922 357.32269287109375 160.36114501953125 357.4520263671875 171.74855041503906 C 349.4925842285156 161.14578247070312 333.8048095703125 136.19955444335938 329.3498840332031 120.4725341796875 C 324.37615966796875 105.77206420898438 330.01220703125 90.32705688476562 348.455078125 88.49049377441406 C 350.34521484375 85.59269714355469 353.5716552734375 90.17678833007812 356.9960632324219 108.31756591796875" stroke-width="0.0" fill="rgb(178, 0, 23)" opacity="0.91746587" stroke="rgb(42, 229, 146)" stroke-opacity="0.3876855" stroke-linecap="round" stroke-linejoin="round"/>
    <path d="M 411.0 130.0 C 410.33013916015625 132.5 408.5 134.3301239013672 406.0 135.0 C 403.5 134.3301239013672 401.66986083984375 132.5 401.0 130.0 C 401.66986083984375 127.5 403.5 125.66987609863281 406.0 125.0 C 408.5 125.66987609863281 410.33013916015625 127.5 411.0 130.0" stroke-width="0.0" fill="rgb(193, 25, 42)" opacity="1.0" stroke="rgb(144, 4, 178)" stroke-opacity="0.8447739" stroke-linecap="round" stroke-linejoin="round"/>
    <path d="M 374.0 126.0 C 373.33013916015625 128.5 371.5 130.3301239013672 369.0 131.0 C 366.5 130.3301239013672 364.66986083984375 128.5 364.0 126.0 C 364.66986083984375 123.5 366.5 121.66987609863281 369.0 121.0 C 371.5 121.66987609863281 373.33013916015625 123.5 374.0 126.0" stroke-width="0.0" fill="rgb(191, 24, 42)" opacity="1.0" stroke="rgb(222, 100, 36)" stroke-opacity="0.4037084" stroke-linecap="round" stroke-linejoin="round"/>
    <path d="M 326.0 133.0 C 325.33013916015625 135.5 323.5 137.3301239013672 321.0 138.0 C 318.5 137.3301239013672 316.66986083984375 135.5 316.0 133.0 C 316.66986083984375 130.5 318.5 128.6698760986328 321.0 128.0 C 323.5 128.6698760986328 325.33013916015625 130.5 326.0 133.0" stroke-width="0.0" fill="rgb(197, 21, 41)" opacity="1.0" stroke="rgb(240, 47, 168)" stroke-opacity="0.51327276" stroke-linecap="round" stroke-linejoin="round"/>
    <path d="M 298.0 224.0 C 297.33013916015625 226.5 295.5 228.3301239013672 293.0 229.0 C 290.5 228.3301239013672 288.66986083984375 226.5 288.0 224.0 C 288.66986083984375 221.5 290.5 219.6698760986328 293.0 219.0 C 295.5 219.6698760986328 297.33013916015625 221.5 298.0 224.0" stroke-width="0.0" fill="rgb(0, 0, 0)" opacity="1.0" stroke="rgb(6, 188, 98)" stroke-opacity="0.6259077" stroke-linecap="round" stroke-linejoin="round"/>
  </g>
</svg>
