<?xml version="1.0" ?>
<svg xmlns="http://www.w3.org/2000/svg" version="1.1" width="512" height="320">
  <defs/>
  <g>
    <path d="M 216.7902374267578 197.43002319335938 C 180.8928985595703 271.289306640625 173.25204467773438 215.35629272460938 133.36985778808594 236.5048828125 C 107.28791046142578 249.57704162597656 64.27742004394531 171.02774047851562 93.28575897216797 129.7190704345703 C 124.05675506591797 95.17253112792969 136.0927276611328 134.4405517578125 178.06549072265625 113.07611083984375 C 256.63372802734375 127.72100830078125 152.7059783935547 142.8294677734375 216.7902374267578 197.43002319335938" stroke-width="0.0" fill="rgb(2, 2, 2)" opacity="0.9931177" stroke="rgb(99, 167, 235)" stroke-opacity="0.51644367" stroke-linecap="round" stroke-linejoin="round"/>
    <path d="M 180.34181213378906 87.8352279663086 C 177.81874084472656 101.6365737915039 165.1407470703125 117.24288177490234 150.06729125976562 116.34102630615234 C 148.88577270507812 116.70288848876953 148.71705627441406 120.17029571533203 149.9622344970703 107.56253814697266 C 153.7862548828125 92.56962585449219 160.59751892089844 82.5144271850586 182.0771484375 77.69526672363281 C 177.37644958496094 79.16619873046875 182.5914306640625 73.96221160888672 180.34181213378906 87.8352279663086" stroke-width="0.0" fill="rgb(2, 2, 2)" opacity="0.9994198" stroke="rgb(43, 116, 16)" stroke-opacity="0.1117477" stroke-linecap="round" stroke-linejoin="round"/>
    <path d="M 357.0805358886719 108.27182006835938 C 361.7663879394531 141.79693603515625 357.6388854980469 157.45114135742188 357.5290222167969 171.74111938476562 C 349.6925354003906 161.52035522460938 333.2301330566406 135.27476501464844 329.411865234375 120.1750717163086 C 324.38916015625 105.69723510742188 330.1002197265625 90.22107696533203 348.3800354003906 88.52039337158203 C 350.2268981933594 85.55964660644531 353.48248291015625 90.40782165527344 357.0805358886719 108.27182006835938" stroke-width="0.0" fill="rgb(178, 0, 22)" opacity="0.9132891" stroke="rgb(42, 229, 146)" stroke-opacity="0.3876855" stroke-linecap="round" stroke-linejoin="round"/>
    <path d="M 423.6826477050781 125.9204330444336 C 425.884033203125 140.16262817382812 420.7565612792969 147.44183349609375 388.7532043457031 165.9265899658203 C 365.18060302734375 178.22227478027344 369.8067932128906 178.63401794433594 379.7311096191406 157.2244415283203 C 397.4085693359375 126.003662109375 403.0984802246094 120.3617172241211 412.41827392578125 107.39513397216797 C 414.40289306640625 109.6012954711914 421.3771057128906 116.7882080078125 423.6826477050781 125.9204330444336" stroke-width="0.0" fill="rgb(179, 8, 31)" opacity="0.9491519" stroke="rgb(144, 4, 178)" stroke-opacity="0.8447739" stroke-linecap="round" stroke-linejoin="round"/>
    <path d="M 392.8745422363281 122.29055786132812 C 387.146240234375 137.85960388183594 378.89410400390625 151.91519165039062 365.5458984375 171.24307250976562 C 366.15374755859375 173.63624572753906 362.55126953125 160.61570739746094 363.8655090332031 122.53056335449219 C 366.7563781738281 89.11224365234375 374.212646484375 85.3564682006836 373.1540222167969 88.15534210205078 C 391.8502502441406 90.81172943115234 398.7480773925781 103.49823760986328 392.8745422363281 122.29055786132812" stroke-width="0.0" fill="rgb(178, 0, 22)" opacity="0.91657287" stroke="rgb(222, 100, 36)" stroke-opacity="0.4037084" stroke-linecap="round" stroke-linejoin="round"/>
    <path d="M 345.2978515625 161.75328063964844 C 352.77239990234375 178.28280639648438 356.53179931640625 177.38978576660156 336.5312194824219 167.20492553710938 C 306.01885986328125 149.8138885498047 296.8546142578125 142.0747528076172 298.5763854980469 127.54290008544922 C 301.1576232910156 116.79631042480469 308.1009826660156 110.1141357421875 310.28033447265625 107.29058074951172 C 322.55804443359375 124.61955261230469 327.854248046875 130.0592803955078 345.2978515625 161.75328063964844" stroke-width="0.0" fill="rgb(181, 9, 30)" opacity="0.9549947" stroke="rgb(240, 47, 168)" stroke-opacity="0.51327276" stroke-linecap="round" stroke-linejoin="round"/>
    <path d="M 308.2491149902344 209.07261657714844 C 314.03265380859375 278.24847412109375 298.82537841796875 199.64234924316406 292.1921691894531 238.65780639648438 C 286.0750427246094 236.831787109375 288.27606201171875 246.07508850097656 287.70697021484375 212.35763549804688 C 288.1253662109375 215.2451934814453 294.497802734375 209.4292449951172 293.0486755371094 216.96766662597656 C 290.7008972167969 223.38568115234375 301.6711730957031 232.48599243164062 308.2491149902344 209.07261657714844" stroke-width="0.0" fill="rgb(0, 0, 0)" opacity="0.8890352" stroke="rgb(6, 188, 98)" stroke-opacity="0.6259077" stroke-linecap="round" stroke-linejoin="round"/>
    <path d="M 385.0 225.0 C 384.33013916015625 227.5 382.5 229.3301239013672 380.0 230.0 C 377.5 229.3301239013672 375.66986083984375 227.5 375.0 225.0 C 375.66986083984375 222.5 377.5 220.6698760986328 380.0 220.0 C 382.5 220.6698760986328 384.33013916015625 222.5 385.0 225.0" stroke-width="0.0" fill="rgb(1, 1, 1)" opacity="1.0" stroke="rgb(28, 221, 84)" stroke-opacity="0.4951603" stroke-linecap="round" stroke-linejoin="round"/>
    <path d="M 411.0 165.0 C 410.33013916015625 167.5 408.5 169.3301239013672 406.0 170.0 C 403.5 169.3301239013672 401.66986083984375 167.5 401.0 165.0 C 401.66986083984375 162.5 403.5 160.6698760986328 406.0 160.0 C 408.5 160.6698760986328 410.33013916015625 162.5 411.0 165.0" stroke-width="0.0" fill="rgb(192, 27, 45)" opacity="1.0" stroke="rgb(231, 28, 232)" stroke-opacity="0.010148096" stroke-linecap="round" stroke-linejoin="round"/>
    <path d="M 311.0 164.0 C 310.33013916015625 166.5 308.5 168.3301239013672 306.0 169.0 C 303.5 168.3301239013672 301.66986083984375 166.5 301.0 164.0 C 301.66986083984375 161.5 303.5 159.6698760986328 306.0 159.0 C 308.5 159.6698760986328 310.33013916015625 161.5 311.0 164.0" stroke-width="0.0" fill="rgb(196, 25, 41)" opacity="1.0" stroke="rgb(68, 154, 228)" stroke-opacity="0.035035737" stroke-linecap="round" stroke-linejoin="round"/>
    <path d="M 328.0 174.0 C 327.33013916015625 176.5 325.5 178.3301239013672 323.0 179.0 C 320.5 178.3301239013672 318.66986083984375 176.5 318.0 174.0 C 318.66986083984375 171.5 320.5 169.6698760986328 323.0 169.0 C 325.5 169.6698760986328 327.33013916015625 171.5 328.0 174.0" stroke-width="0.0" fill="rgb(195, 19, 42)" opacity="1.0" stroke="rgb(27, 112, 47)" stroke-opacity="0.37664405" stroke-linecap="round" stroke-linejoin="round"/>
    <path d="M 333.0 185.0 C 332.33013916015625 187.5 330.5 189.3301239013672 328.0 190.0 C 325.5 189.3301239013672 323.66986083984375 187.5 323.0 185.0 C 323.66986083984375 182.5 325.5 180.6698760986328 328.0 180.0 C 330.5 180.6698760986328 332.33013916015625 182.5 333.0 185.0" stroke-width="0.0" fill="rgb(179, 11, 40)" opacity="1.0" stroke="rgb(215, 166, 137)" stroke-opacity="0.16222814" stroke-linecap="round" stroke-linejoin="round"/>
    <path d="M 398.0 185.0 C 397.33013916015625 187.5 395.5 189.3301239013672 393.0 190.0 C 390.5 189.3301239013672 388.66986083984375 187.5 388.0 185.0 C 388.66986083984375 182.5 390.5 180.6698760986328 393.0 180.0 C 395.5 180.6698760986328 397.33013916015625 182.5 398.0 185.0" stroke-width="0.0" fill="rgb(177, 11, 32)" opacity="1.0" stroke="rgb(234, 92, 230)" stroke-opacity="0.09696862" stroke-linecap="round" stroke-linejoin="round"/>
    <path d="M 329.0 178.0 C 328.33013916015625 180.5 326.5 182.3301239013672 324.0 183.0 C 321.5 182.3301239013672 319.66986083984375 180.5 319.0 178.0 C 319.66986083984375 175.5 321.5 173.6698760986328 324.0 173.0 C 326.5 173.6698760986328 328.33013916015625 175.5 329.0 178.0" stroke-width="0.0" fill="rgb(189, 13, 35)" opacity="1.0" stroke="rgb(119, 15, 57)" stroke-opacity="0.9191398" stroke-linecap="round" stroke-linejoin="round"/>
    <path d="M 439.0 225.0 C 438.33013916015625 227.5 436.5 229.3301239013672 434.0 230.0 C 431.5 229.3301239013672 429.66986083984375 227.5 429.0 225.0 C 429.66986083984375 222.5 431.5 220.6698760986328 434.0 220.0 C 436.5 220.6698760986328 438.33013916015625 222.5 439.0 225.0" stroke-width="0.0" fill="rgb(7, 7, 7)" opacity="1.0" stroke="rgb(184, 17, 59)" stroke-opacity="0.20361222" stroke-linecap="round" stroke-linejoin="round"/>
  </g>
</svg>
