<?xml version="1.0" ?>
<svg xmlns="http://www.w3.org/2000/svg" version="1.1" width="512" height="347">
  <defs/>
  <g>
    <path d="M 516.695556640625 -2.339111566543579 C 514.2305297851562 97.94046783447266 509.66351318359375 98.17636108398438 528.3267211914062 126.80339050292969 C 408.7120361328125 144.4336700439453 402.2315673828125 147.29428100585938 364.57379150390625 153.578125 C 342.6181335449219 19.548376083374023 343.2548522949219 7.653862476348877 342.75762939453125 -5.4476447105407715 C 485.30645751953125 -7.584625244140625 488.1407165527344 -5.795831203460693 516.695556640625 -2.339111566543579" stroke-width="0.0" fill="rgb(74, 149, 250)" opacity="0.55239034" stroke="rgb(61, 217, 183)" stroke-opacity="0.043306053" stroke-linecap="round" stroke-linejoin="round"/>
    <path d="M 171.7632293701172 77.80911254882812 C 219.1910858154297 137.7560577392578 83.03645324707031 121.48619842529297 32.0418815612793 79.0143051147461 C 66.22149658203125 54.062957763671875 38.978492736816406 66.2333755493164 6.302236557006836 16.617456436157227 C 0.9701113700866699 -21.185222625732422 7.096429824829102 -13.062585830688477 22.761884689331055 -1.0447454452514648 C 90.74593353271484 25.364761352539062 83.83963775634766 46.438011169433594 171.7632293701172 77.80911254882812" stroke-width="0.0" fill="rgb(254, 195, 109)" opacity="0.9232772" stroke="rgb(113, 111, 84)" stroke-opacity="0.34017462" stroke-linecap="round" stroke-linejoin="round"/>
    <path d="M -0.24937337636947632 25.331104278564453 C 104.30135345458984 85.97889709472656 116.56694793701172 150.31240844726562 27.01599884033203 167.66323852539062 C -12.70953369140625 95.2832260131836 -19.881759643554688 89.26899719238281 -11.381485939025879 68.95365905761719 C -15.0482177734375 14.877365112304688 -30.934078216552734 -4.030538558959961 -1.965634822845459 -4.5814080238342285 C 53.128231048583984 29.328125 24.790292739868164 13.289270401000977 -0.24937337636947632 25.331104278564453" stroke-width="0.0" fill="rgb(255, 201, 114)" opacity="0.9651118" stroke="rgb(107, 216, 1)" stroke-opacity="0.57123506" stroke-linecap="round" stroke-linejoin="round"/>
    <path d="M 359.7419128417969 114.50603485107422 C 382.1916198730469 96.01205444335938 380.45220947265625 88.21467590332031 260.09222412109375 82.3375473022461 C 150.91864013671875 89.7473373413086 132.61114501953125 142.0492401123047 151.6657257080078 -41.64437484741211 C 314.0385437011719 -16.45668601989746 321.8668212890625 -12.238274574279785 341.7098083496094 -11.171989440917969 C 342.9458923339844 -8.150696754455566 338.5440368652344 -1.5489691495895386 359.7419128417969 114.50603485107422" stroke-width="0.0" fill="rgb(232, 206, 218)" opacity="0.57868093" stroke="rgb(175, 133, 103)" stroke-opacity="0.5133926" stroke-linecap="round" stroke-linejoin="round"/>
    <path d="M 67.5957260131836 352.1452331542969 C 55.631404876708984 367.7603454589844 42.106632232666016 359.99188232421875 30.931781768798828 357.6523742675781 C -6.981467247009277 358.08404541015625 -10.127348899841309 358.5036315917969 -14.778778076171875 286.63983154296875 C -22.895339965820312 305.890625 -30.592294692993164 256.3115539550781 187.4731903076172 269.7540588378906 C 204.52232360839844 428.710693359375 151.1306915283203 372.4356994628906 67.5957260131836 352.1452331542969" stroke-width="0.0" fill="rgb(88, 69, 62)" opacity="0.64938396" stroke="rgb(81, 231, 53)" stroke-opacity="0.71570295" stroke-linecap="round" stroke-linejoin="round"/>
    <path d="M 348.4076232910156 77.3856201171875 C 423.4789733886719 114.20439147949219 371.40704345703125 50.75850296020508 427.7369079589844 186.71971130371094 C 268.9831237792969 148.25131225585938 336.5261535644531 138.2693634033203 231.04925537109375 91.13327026367188 C 271.4954833984375 25.845090866088867 324.3293762207031 42.13888168334961 321.12994384765625 34.45479965209961 C 345.7227478027344 30.109283447265625 326.7107849121094 26.6541690826416 348.4076232910156 77.3856201171875" stroke-width="0.0" fill="rgb(101, 68, 50)" opacity="0.99244916" stroke="rgb(209, 250, 61)" stroke-opacity="0.6594973" stroke-linecap="round" stroke-linejoin="round"/>
    <path d="M 524.2833862304688 217.12652587890625 C 539.0239868164062 246.57516479492188 541.0728149414062 249.81907653808594 483.6202087402344 281.1157531738281 C 411.0082702636719 182.91944885253906 433.79150390625 177.76296997070312 391.9019775390625 97.98235321044922 C 419.3831481933594 111.00640106201172 403.4593505859375 122.8471908569336 495.2789611816406 129.1909637451172 C 540.3198852539062 128.72091674804688 525.8335571289062 146.54209899902344 524.2833862304688 217.12652587890625" stroke-width="0.0" fill="rgb(149, 192, 250)" opacity="0.50066614" stroke="rgb(234, 231, 120)" stroke-opacity="0.16838099" stroke-linecap="round" stroke-linejoin="round"/>
    <path d="M 319.7687072753906 64.98651123046875 C 320.1064147949219 69.11872100830078 315.767333984375 80.72901153564453 261.4678649902344 82.1209716796875 C 216.36097717285156 87.70051574707031 225.50860595703125 84.2030258178711 229.91912841796875 43.494571685791016 C 244.9229736328125 4.2845306396484375 255.11935424804688 8.345100402832031 276.0899658203125 15.998383522033691 C 315.8219299316406 31.06711196899414 317.4731750488281 33.467830657958984 319.7687072753906 64.98651123046875" stroke-width="0.0" fill="rgb(162, 158, 177)" opacity="0.972118" stroke="rgb(186, 70, 38)" stroke-opacity="0.9526856" stroke-linecap="round" stroke-linejoin="round"/>
    <path d="M 407.6581726074219 94.06057739257812 C 355.77435302734375 87.5396728515625 349.36871337890625 79.03799438476562 335.3913269042969 73.3519515991211 C 299.8421936035156 70.3354721069336 298.6273498535156 67.87092590332031 298.53240966796875 59.377967834472656 C 302.46868896484375 32.126007080078125 305.0845947265625 30.13254737854004 344.0455627441406 -5.0793986320495605 C 336.9494934082031 18.294713973999023 359.6711730957031 12.329050064086914 407.6581726074219 94.06057739257812" stroke-width="0.0" fill="rgb(114, 135, 177)" opacity="0.97759765" stroke="rgb(31, 57, 195)" stroke-opacity="0.011719153" stroke-linecap="round" stroke-linejoin="round"/>
    <path d="M 412.3350830078125 4.947658538818359 C 379.24468994140625 90.16619110107422 342.6381530761719 45.47914123535156 302.81439208984375 50.657249450683594 C 298.0981750488281 54.719242095947266 296.05902099609375 53.07030487060547 281.29150390625 36.90825271606445 C 254.35391235351562 46.89870834350586 199.3854522705078 115.04186248779297 152.47239685058594 4.979060649871826 C 344.6805419921875 -16.58669662475586 352.2787780761719 -15.801370620727539 412.3350830078125 4.947658538818359" stroke-width="0.0" fill="rgb(27, 65, 137)" opacity="0.13699095" stroke="rgb(226, 37, 193)" stroke-opacity="0.24295457" stroke-linecap="round" stroke-linejoin="round"/>
    <path d="M 324.5294494628906 188.0633544921875 C 327.233642578125 187.25071716308594 325.9402770996094 192.96864318847656 320.0625 190.6068878173828 C 322.2877502441406 188.5625762939453 301.69024658203125 190.63677978515625 305.30426025390625 189.0149688720703 C 305.340576171875 164.0526123046875 304.0113830566406 168.04884338378906 315.1518859863281 166.70645141601562 C 323.4123840332031 170.5847930908203 325.4880676269531 172.0876007080078 324.5294494628906 188.0633544921875" stroke-width="0.0" fill="rgb(223, 234, 255)" opacity="0.8610241" stroke="rgb(38, 1, 107)" stroke-opacity="0.6988667" stroke-linecap="round" stroke-linejoin="round"/>
    <path d="M 370.2852783203125 87.31834411621094 C 345.9549865722656 82.40222930908203 316.92779541015625 81.19602966308594 318.5783386230469 82.0860366821289 C 302.55560302734375 79.29204559326172 276.3638916015625 83.23444366455078 277.527587890625 78.3310546875 C 289.67010498046875 51.66218185424805 295.32574462890625 50.66006851196289 332.0421142578125 50.436397552490234 C 333.17254638671875 66.64164733886719 337.64202880859375 79.23310089111328 370.2852783203125 87.31834411621094" stroke-width="0.0" fill="rgb(135, 149, 181)" opacity="0.9921205" stroke="rgb(62, 230, 57)" stroke-opacity="0.64721113" stroke-linecap="round" stroke-linejoin="round"/>
    <path d="M 291.92523193359375 190.8067626953125 C 293.9331359863281 191.08303833007812 294.2450866699219 190.53219604492188 275.8630065917969 190.99388122558594 C 264.576171875 189.88706970214844 271.21148681640625 193.14608764648438 268.9355773925781 192.2636260986328 C 271.8459167480469 167.61874389648438 266.6519775390625 169.46641540527344 282.1521301269531 166.22946166992188 C 291.97747802734375 170.46104431152344 291.5571594238281 167.69544982910156 291.92523193359375 190.8067626953125" stroke-width="0.0" fill="rgb(241, 244, 255)" opacity="0.85758775" stroke="rgb(106, 177, 228)" stroke-opacity="0.49644572" stroke-linecap="round" stroke-linejoin="round"/>
    <path d="M 181.98826599121094 93.64143371582031 C 219.88404846191406 93.7869873046875 167.77328491210938 95.06432342529297 148.70230102539062 94.17581176757812 C 116.83473205566406 51.24126052856445 121.79216003417969 116.93450164794922 26.043806076049805 -0.10321603715419769 C 68.3968276977539 -21.743932723999023 86.16793823242188 -16.171958923339844 114.23634338378906 -4.229811191558838 C 154.98695373535156 20.17424201965332 141.26797485351562 33.07205581665039 181.98826599121094 93.64143371582031" stroke-width="0.0" fill="rgb(239, 156, 106)" opacity="0.757005" stroke="rgb(41, 116, 159)" stroke-opacity="0.65305537" stroke-linecap="round" stroke-linejoin="round"/>
    <path d="M 184.31375122070312 55.94670104980469 C 167.25987243652344 46.51104736328125 164.4928741455078 34.64630889892578 157.8798370361328 46.943058013916016 C 144.15550231933594 100.24191284179688 128.470458984375 58.620582580566406 121.72309875488281 29.384933471679688 C 106.34051513671875 4.985538959503174 102.43894958496094 -1.7376106977462769 123.520751953125 -13.186572074890137 C 187.1485137939453 -10.010178565979004 195.84701538085938 -5.246438980102539 184.31375122070312 55.94670104980469" stroke-width="0.0" fill="rgb(170, 143, 147)" opacity="0.7594793" stroke="rgb(224, 228, 212)" stroke-opacity="0.45879084" stroke-linecap="round" stroke-linejoin="round"/>
    <path d="M 45.36650466918945 192.17295837402344 C 44.27256393432617 216.10914611816406 33.171142578125 200.1269989013672 20.136518478393555 202.83255004882812 C 50.20246505737305 209.93190002441406 -22.258928298950195 212.431640625 -9.02781867980957 186.49266052246094 C -7.8328375816345215 175.64630126953125 -7.380608081817627 171.05548095703125 3.1767377853393555 170.12123107910156 C 27.97409439086914 170.45355224609375 35.20454025268555 167.44110107421875 45.36650466918945 192.17295837402344" stroke-width="0.0" fill="rgb(237, 151, 77)" opacity="0.73973286" stroke="rgb(9, 101, 118)" stroke-opacity="0.5030616" stroke-linecap="round" stroke-linejoin="round"/>
    <path d="M 293.4822692871094 239.364990234375 C 293.5091857910156 247.13796997070312 297.4933776855469 246.55487060546875 284.3674621582031 245.80691528320312 C 264.43023681640625 248.09237670898438 273.99566650390625 245.95191955566406 271.39825439453125 246.3047332763672 C 269.4417724609375 211.1847686767578 277.0480041503906 225.3749542236328 276.5693054199219 215.9617919921875 C 289.0285339355469 211.9351348876953 292.82098388671875 214.25888061523438 293.4822692871094 239.364990234375" stroke-width="0.0" fill="rgb(23, 4, 4)" opacity="0.81957746" stroke="rgb(78, 85, 49)" stroke-opacity="0.5705603" stroke-linecap="round" stroke-linejoin="round"/>
    <path d="M 186.57188415527344 283.0192565917969 C 184.40110778808594 310.5813903808594 190.1275177001953 315.3181457519531 175.9224090576172 312.36395263671875 C 137.87939453125 319.4703674316406 180.7227783203125 307.9844665527344 168.5035858154297 293.57452392578125 C 161.495849609375 276.85198974609375 173.0251007080078 279.44171142578125 173.31546020507812 276.2964172363281 C 182.5146942138672 275.0007629394531 184.0562744140625 278.0532531738281 186.57188415527344 283.0192565917969" stroke-width="0.0" fill="rgb(15, 9, 8)" opacity="0.8675547" stroke="rgb(38, 9, 9)" stroke-opacity="0.91421896" stroke-linecap="round" stroke-linejoin="round"/>
    <path d="M 50.46855163574219 159.28118896484375 C 49.68816375732422 160.37210083007812 66.53260040283203 179.46990966796875 43.902099609375 195.32164001464844 C 31.59846305847168 154.38833618164062 15.308870315551758 168.9874267578125 -7.344269752502441 108.7976303100586 C 15.53902530670166 141.22230529785156 33.14263916015625 130.9195556640625 17.7890682220459 138.2416229248047 C 30.646699905395508 154.28736877441406 26.9406681060791 146.7790985107422 50.46855163574219 159.28118896484375" stroke-width="0.0" fill="rgb(202, 155, 130)" opacity="0.8612902" stroke="rgb(100, 199, 20)" stroke-opacity="0.86417997" stroke-linecap="round" stroke-linejoin="round"/>
    <path d="M 47.222251892089844 269.5025634765625 C 50.52007293701172 284.8481140136719 31.46847152709961 277.44903564453125 37.428062438964844 284.5444030761719 C 35.14019775390625 290.7336120605469 19.445068359375 309.3096923828125 -12.326581001281738 269.40338134765625 C -13.02676773071289 204.4939727783203 -15.865382194519043 220.9112091064453 30.00042152404785 233.91111755371094 C 52.78213119506836 243.50608825683594 48.23877716064453 258.19049072265625 47.222251892089844 269.5025634765625" stroke-width="0.0" fill="rgb(254, 179, 143)" opacity="0.5495415" stroke="rgb(35, 184, 115)" stroke-opacity="0.20930892" stroke-linecap="round" stroke-linejoin="round"/>
    <path d="M 41.77968215942383 201.29934692382812 C 35.4521598815918 219.05787658691406 16.211559295654297 212.1772003173828 1.111039638519287 207.88108825683594 C -5.000049114227295 207.8495635986328 -6.232537269592285 206.38821411132812 -14.764835357666016 202.5316162109375 C -6.7364182472229 187.203125 -5.931133270263672 185.00611877441406 -4.724249362945557 180.98565673828125 C -3.9133100509643555 196.5092010498047 15.964998245239258 187.89183044433594 41.77968215942383 201.29934692382812" stroke-width="0.0" fill="rgb(192, 140, 137)" opacity="0.38939315" stroke="rgb(40, 211, 24)" stroke-opacity="0.1596657" stroke-linecap="round" stroke-linejoin="round"/>
    <path d="M 122.50960540771484 114.71382141113281 C 103.2796401977539 126.73419952392578 87.04928588867188 133.54127502441406 79.29364013671875 142.63449096679688 C 95.88201141357422 120.2247314453125 -64.76785278320312 75.54969787597656 -50.37091827392578 -6.231729030609131 C 64.74544525146484 24.123594284057617 34.703392028808594 60.85795593261719 89.37853240966797 107.58781433105469 C 110.15809631347656 113.63227844238281 113.94281768798828 113.5257797241211 122.50960540771484 114.71382141113281" stroke-width="0.0" fill="rgb(223, 171, 137)" opacity="1.0" stroke="rgb(63, 181, 83)" stroke-opacity="0.53582704" stroke-linecap="round" stroke-linejoin="round"/>
    <path d="M 424.5368957519531 231.61972045898438 C 426.0921325683594 255.9527587890625 428.7025146484375 244.95753479003906 422.61663818359375 250.04684448242188 C 405.1784973144531 249.73976135253906 410.9718322753906 250.4569854736328 407.9476013183594 227.0280303955078 C 409.80609130859375 219.91636657714844 414.25457763671875 222.40493774414062 413.4569396972656 218.04690551757812 C 414.64727783203125 222.2322235107422 421.3254089355469 218.49966430664062 424.5368957519531 231.61972045898438" stroke-width="0.0" fill="rgb(50, 24, 14)" opacity="0.9997196" stroke="rgb(3, 111, 232)" stroke-opacity="0.5829063" stroke-linecap="round" stroke-linejoin="round"/>
    <path d="M 357.65997314453125 274.1167297363281 C 384.9388427734375 278.421875 389.507568359375 315.77972412109375 284.5430603027344 318.9585266113281 C 324.2174377441406 315.36419677734375 293.7397155761719 302.71771240234375 309.6186828613281 299.48101806640625 C 310.2569580078125 284.78778076171875 306.8189392089844 278.3780517578125 318.9280090332031 272.59063720703125 C 347.9996032714844 273.1142272949219 318.0716552734375 300.0845031738281 357.65997314453125 274.1167297363281" stroke-width="0.0" fill="rgb(24, 10, 0)" opacity="0.85024923" stroke="rgb(180, 78, 4)" stroke-opacity="0.28289485" stroke-linecap="round" stroke-linejoin="round"/>
    <path d="M 472.9463195800781 257.0003356933594 C 563.1705322265625 273.4086608886719 561.672607421875 389.7024841308594 264.4403076171875 361.0045471191406 C 340.476806640625 262.77386474609375 391.1482238769531 249.29678344726562 403.5056457519531 278.0518493652344 C 440.352783203125 273.4513854980469 394.75189208984375 268.9834289550781 418.7834167480469 267.92083740234375 C 385.74884033203125 246.2208251953125 411.8652038574219 250.1056365966797 472.9463195800781 257.0003356933594" stroke-width="0.0" fill="rgb(90, 69, 59)" opacity="0.9195493" stroke="rgb(168, 244, 174)" stroke-opacity="0.72062075" stroke-linecap="round" stroke-linejoin="round"/>
    <path d="M 52.69020080566406 223.70736694335938 C 60.413761138916016 246.18032836914062 51.302032470703125 230.95849609375 46.447723388671875 248.1389617919922 C 11.014719009399414 246.06124877929688 43.14945602416992 234.74095153808594 26.200199127197266 233.11288452148438 C 26.15229034423828 195.28726196289062 24.37026596069336 212.38172912597656 48.51535415649414 202.19776916503906 C 69.58402252197266 203.59095764160156 49.358177185058594 198.00106811523438 52.69020080566406 223.70736694335938" stroke-width="0.0" fill="rgb(170, 133, 119)" opacity="1.0" stroke="rgb(52, 92, 203)" stroke-opacity="0.64390206" stroke-linecap="round" stroke-linejoin="round"/>
    <path d="M -4.558220386505127 144.20028686523438 C 23.593177795410156 176.3077850341797 21.43510627746582 174.65472412109375 18.543155670166016 172.1405487060547 C 16.84999656677246 169.5278778076172 2.837674140930176 178.3330841064453 -6.043085098266602 166.94554138183594 C -5.036515235900879 133.93881225585938 -12.27949047088623 124.78853607177734 -2.8554670810699463 109.58624267578125 C 48.58051300048828 157.8378448486328 58.923004150390625 134.2176971435547 -4.558220386505127 144.20028686523438" stroke-width="0.0" fill="rgb(249, 96, 52)" opacity="0.26809105" stroke="rgb(74, 182, 153)" stroke-opacity="0.073488735" stroke-linecap="round" stroke-linejoin="round"/>
    <path d="M 49.148834228515625 170.74505615234375 C 47.35360336303711 172.47152709960938 49.17355728149414 180.9615936279297 33.92575454711914 187.89248657226562 C 8.109166145324707 175.6876678466797 -4.368166446685791 168.7991180419922 -3.0081915855407715 155.6952362060547 C 21.336193084716797 132.09567260742188 -1.5626540184020996 136.55653381347656 42.78731918334961 158.06985473632812 C 52.10490417480469 163.48690795898438 35.33006286621094 166.93565368652344 49.148834228515625 170.74505615234375" stroke-width="0.0" fill="rgb(173, 128, 107)" opacity="0.79308563" stroke="rgb(56, 208, 247)" stroke-opacity="0.05461297" stroke-linecap="round" stroke-linejoin="round"/>
    <path d="M 284.8620300292969 119.68848419189453 C 283.3812255859375 123.51795959472656 288.072998046875 126.07173156738281 278.2724609375 123.41401672363281 C 274.2067565917969 123.78797912597656 274.4510803222656 129.68824768066406 273.4551696777344 112.97042083740234 C 270.39190673828125 110.06047058105469 281.0962829589844 113.12049102783203 276.4761657714844 109.2067642211914 C 286.9380798339844 110.82984924316406 282.5259704589844 113.54470825195312 284.8620300292969 119.68848419189453" stroke-width="0.0" fill="rgb(13, 0, 0)" opacity="0.835462" stroke="rgb(241, 77, 4)" stroke-opacity="0.26413575" stroke-linecap="round" stroke-linejoin="round"/>
    <path d="M 13.49878978729248 173.37550354003906 C 26.487621307373047 180.64657592773438 23.597854614257812 186.17701721191406 17.90094757080078 190.9109344482422 C -15.134180068969727 189.47113037109375 -11.299875259399414 182.72100830078125 -14.883811950683594 167.33566284179688 C -15.490394592285156 167.2487335205078 0.2949453890323639 166.66200256347656 12.737861633300781 167.97267150878906 C 8.150460243225098 167.9252471923828 8.152833938598633 171.3283233642578 13.49878978729248 173.37550354003906" stroke-width="0.0" fill="rgb(233, 154, 94)" opacity="0.6749284" stroke="rgb(211, 180, 220)" stroke-opacity="0.6323072" stroke-linecap="round" stroke-linejoin="round"/>
    <path d="M 56.07250213623047 178.44314575195312 C 52.79283905029297 170.82046508789062 62.36723709106445 217.37051391601562 50.272743225097656 208.13111877441406 C 31.789461135864258 200.05145263671875 26.837406158447266 196.40943908691406 52.20871353149414 187.064453125 C 74.78208923339844 146.84031677246094 -25.405305862426758 142.746337890625 73.78009796142578 146.39883422851562 C 76.97866821289062 148.17333984375 61.74513626098633 153.60983276367188 56.07250213623047 178.44314575195312" stroke-width="0.0" fill="rgb(250, 191, 144)" opacity="0.84849286" stroke="rgb(207, 49, 185)" stroke-opacity="0.38214937" stroke-linecap="round" stroke-linejoin="round"/>
    <path d="M 296.52728271484375 295.3870849609375 C 298.1822814941406 320.3648376464844 283.2563781738281 308.15179443359375 267.7926025390625 310.9242858886719 C 273.5440673828125 315.2515563964844 272.255126953125 307.23968505859375 272.10260009765625 290.43389892578125 C 271.8272705078125 278.8471984863281 276.8940734863281 271.65753173828125 288.46575927734375 273.1335144042969 C 299.4614562988281 280.17169189453125 296.0679016113281 276.6355895996094 296.52728271484375 295.3870849609375" stroke-width="0.0" fill="rgb(30, 22, 22)" opacity="0.9153835" stroke="rgb(159, 1, 234)" stroke-opacity="0.29648715" stroke-linecap="round" stroke-linejoin="round"/>
    <path d="M 494.8716125488281 281.78167724609375 C 493.97137451171875 289.7243347167969 488.7696228027344 284.46197509765625 486.59478759765625 278.151611328125 C 479.5101623535156 288.6180725097656 480.86944580078125 283.7032165527344 488.012939453125 275.17266845703125 C 477.1935729980469 286.18408203125 472.6732482910156 269.19415283203125 482.9020080566406 253.39883422851562 C 505.26025390625 265.8106994628906 484.04656982421875 277.4042663574219 494.8716125488281 281.78167724609375" stroke-width="0.0" fill="rgb(242, 174, 112)" opacity="0.9244333" stroke="rgb(191, 6, 61)" stroke-opacity="0.8909176" stroke-linecap="round" stroke-linejoin="round"/>
    <path d="M 484.1183776855469 283.949462890625 C 489.95672607421875 282.05926513671875 487.4796447753906 286.8962097167969 474.08538818359375 287.0092468261719 C 484.4847717285156 285.78460693359375 477.0475158691406 282.6898193359375 476.5390930175781 283.9798583984375 C 476.7604675292969 272.77606201171875 486.1612243652344 296.82818603515625 500.0225524902344 261.12255859375 C 483.3611145019531 279.5791015625 494.6914367675781 270.1051330566406 484.1183776855469 283.949462890625" stroke-width="0.0" fill="rgb(240, 174, 108)" opacity="0.9488413" stroke="rgb(118, 201, 118)" stroke-opacity="0.797393" stroke-linecap="round" stroke-linejoin="round"/>
    <path d="M 165.1612091064453 202.16864013671875 C 159.0296173095703 199.92991638183594 177.10787963867188 203.61944580078125 158.31532287597656 201.9067840576172 C 141.23919677734375 208.24000549316406 140.27915954589844 205.10411071777344 151.07139587402344 205.76504516601562 C 150.989990234375 188.546875 151.50758361816406 183.4888916015625 161.5677032470703 179.20957946777344 C 162.5883026123047 216.6654510498047 154.73585510253906 199.849853515625 165.1612091064453 202.16864013671875" stroke-width="0.0" fill="rgb(255, 250, 238)" opacity="0.9109155" stroke="rgb(239, 175, 40)" stroke-opacity="0.118446074" stroke-linecap="round" stroke-linejoin="round"/>
    <path d="M 188.0580291748047 224.44630432128906 C 187.65773010253906 248.4725341796875 189.84071350097656 251.26722717285156 184.4609832763672 250.80511474609375 C 168.31869506835938 251.86378479003906 167.90087890625 250.98703002929688 176.0330047607422 250.2477569580078 C 177.3345489501953 234.87124633789062 171.2570037841797 228.44439697265625 186.8350830078125 223.1611328125 C 191.1242218017578 226.76510620117188 187.52316284179688 233.24256896972656 188.0580291748047 224.44630432128906" stroke-width="0.0" fill="rgb(0, 13, 23)" opacity="0.8944195" stroke="rgb(191, 246, 115)" stroke-opacity="0.92630136" stroke-linecap="round" stroke-linejoin="round"/>
    <path d="M 79.4563217163086 220.9970703125 C 91.50431823730469 222.03573608398438 94.49565124511719 205.4258270263672 84.8228759765625 318.12066650390625 C 17.053634643554688 322.59075927734375 60.3974494934082 248.86354064941406 52.614234924316406 209.46340942382812 C 111.54805755615234 149.39199829101562 72.85031127929688 210.5353240966797 92.3450698852539 226.75411987304688 C 107.03656768798828 163.33633422851562 78.6227798461914 201.83518981933594 79.4563217163086 220.9970703125" stroke-width="0.0" fill="rgb(82, 52, 37)" opacity="0.93203723" stroke="rgb(246, 13, 179)" stroke-opacity="0.72790027" stroke-linecap="round" stroke-linejoin="round"/>
    <path d="M 222.15464782714844 309.6630859375 C 223.1307830810547 309.8972473144531 225.13551330566406 304.306396484375 204.99911499023438 306.7398986816406 C 206.48753356933594 324.1134948730469 189.35813903808594 324.29376220703125 202.51148986816406 293.44415283203125 C 195.12432861328125 305.22198486328125 192.2359161376953 267.541015625 216.73773193359375 275.9778137207031 C 226.5753631591797 285.7038879394531 220.5859832763672 286.96710205078125 222.15464782714844 309.6630859375" stroke-width="0.0" fill="rgb(10, 3, 1)" opacity="0.7606907" stroke="rgb(155, 121, 164)" stroke-opacity="0.6209512" stroke-linecap="round" stroke-linejoin="round"/>
    <path d="M 328.6444396972656 246.86245727539062 C 330.9471740722656 244.96890258789062 344.67913818359375 247.8845977783203 308.87249755859375 246.2058868408203 C 307.81787109375 255.30438232421875 310.86688232421875 254.140625 307.8919982910156 226.50595092773438 C 306.5592346191406 221.20314025878906 312.8074035644531 213.4904327392578 321.98321533203125 214.1790008544922 C 332.3840637207031 219.71578979492188 324.540283203125 211.82571411132812 328.6444396972656 246.86245727539062" stroke-width="0.0" fill="rgb(22, 3, 2)" opacity="0.819187" stroke="rgb(46, 52, 50)" stroke-opacity="0.56170535" stroke-linecap="round" stroke-linejoin="round"/>
    <path d="M 387.9272766113281 94.65541076660156 C 361.6109924316406 100.8604736328125 269.19903564453125 84.30517578125 279.1427001953125 92.47337341308594 C 291.1562194824219 87.20135498046875 247.31802368164062 91.40522003173828 271.4012756347656 84.8587875366211 C 282.327392578125 102.83476257324219 267.4786071777344 82.90328216552734 283.2147521972656 85.48348999023438 C 283.8919982910156 93.56784057617188 275.0056457519531 75.02303314208984 387.9272766113281 94.65541076660156" stroke-width="0.0" fill="rgb(40, 22, 15)" opacity="0.91374743" stroke="rgb(194, 25, 171)" stroke-opacity="0.22136806" stroke-linecap="round" stroke-linejoin="round"/>
    <path d="M 522.6947631835938 271.9365539550781 C 505.1070861816406 275.09735107421875 490.6899108886719 276.4972839355469 485.1195983886719 276.677734375 C 478.1294250488281 280.68609619140625 488.86297607421875 272.7313537597656 467.7231750488281 253.126953125 C 457.3990478515625 280.7862243652344 415.9314880371094 153.15399169921875 517.041015625 215.88563537597656 C 520.7720336914062 243.83116149902344 522.9912719726562 244.22679138183594 522.6947631835938 271.9365539550781" stroke-width="0.0" fill="rgb(254, 197, 131)" opacity="0.85643095" stroke="rgb(237, 125, 20)" stroke-opacity="0.9645481" stroke-linecap="round" stroke-linejoin="round"/>
    <path d="M 531.2547607421875 249.7930908203125 C 486.70111083984375 265.3606872558594 499.13775634765625 270.2997741699219 474.4554443359375 274.2662048339844 C 477.6726989746094 269.38134765625 477.5217590332031 265.3053894042969 471.3963623046875 261.0494384765625 C 476.2366027832031 259.5860900878906 460.58697509765625 241.01223754882812 482.13677978515625 248.49496459960938 C 502.6618957519531 252.6979217529297 517.026123046875 247.44175720214844 531.2547607421875 249.7930908203125" stroke-width="0.0" fill="rgb(255, 224, 171)" opacity="0.9405574" stroke="rgb(44, 155, 205)" stroke-opacity="0.9681269" stroke-linecap="round" stroke-linejoin="round"/>
    <path d="M 527.73046875 266.4725341796875 C 493.20526123046875 283.3219909667969 482.5677490234375 273.28656005859375 474.9436950683594 273.91522216796875 C 492.4530029296875 274.5089416503906 486.4176330566406 268.50665283203125 468.7698059082031 277.88250732421875 C 482.7609558105469 261.3667907714844 477.2960510253906 263.1378479003906 451.3744201660156 242.6967315673828 C 496.6934509277344 260.55078125 493.689697265625 253.27671813964844 527.73046875 266.4725341796875" stroke-width="0.0" fill="rgb(197, 141, 82)" opacity="0.6929591" stroke="rgb(127, 254, 228)" stroke-opacity="0.7751689" stroke-linecap="round" stroke-linejoin="round"/>
    <path d="M 499.87548828125 256.09478759765625 C 479.5860290527344 267.5464782714844 473.7073059082031 261.7377014160156 477.4881591796875 270.1509704589844 C 474.8226318359375 284.6357421875 469.4103698730469 296.6108703613281 478.8736267089844 261.4774475097656 C 463.016357421875 273.0247497558594 464.8994445800781 240.9687957763672 504.6694641113281 235.52438354492188 C 519.04638671875 241.78549194335938 499.0606689453125 255.0630340576172 499.87548828125 256.09478759765625" stroke-width="0.0" fill="rgb(212, 175, 128)" opacity="1.0" stroke="rgb(184, 171, 26)" stroke-opacity="0.62410176" stroke-linecap="round" stroke-linejoin="round"/>
    <path d="M 485.1610412597656 280.9632568359375 C 475.8464660644531 267.0125732421875 482.2052001953125 287.0857238769531 476.66265869140625 279.42596435546875 C 474.7386779785156 289.3136291503906 474.43719482421875 269.2138366699219 470.4630432128906 293.9057922363281 C 467.1749572753906 264.5964050292969 473.5104064941406 267.6125183105469 477.9072265625 272.22723388671875 C 479.7541809082031 273.0664367675781 471.8458251953125 272.06610107421875 485.1610412597656 280.9632568359375" stroke-width="0.0" fill="rgb(214, 143, 53)" opacity="0.45699155" stroke="rgb(121, 55, 59)" stroke-opacity="0.94441706" stroke-linecap="round" stroke-linejoin="round"/>
    <path d="M 128.3980255126953 291.89263916015625 C 127.56786346435547 301.4974670410156 126.55802154541016 308.2209777832031 126.7366943359375 311.9825744628906 C 95.74744415283203 313.3192138671875 120.14002990722656 314.1330261230469 112.01961517333984 299.8782043457031 C 110.06786346435547 280.94573974609375 118.2199935913086 278.46112060546875 123.39820861816406 279.3821105957031 C 125.10706329345703 279.0916748046875 129.9778289794922 285.68829345703125 128.3980255126953 291.89263916015625" stroke-width="0.0" fill="rgb(32, 20, 10)" opacity="0.94219244" stroke="rgb(179, 246, 23)" stroke-opacity="0.72780585" stroke-linecap="round" stroke-linejoin="round"/>
    <path d="M 183.39761352539062 310.29840087890625 C 184.9353790283203 311.56109619140625 152.99249267578125 308.6388854980469 168.33583068847656 307.29766845703125 C 165.3723907470703 312.1483154296875 189.8843536376953 309.5101318359375 172.22996520996094 310.9963684082031 C 172.1329803466797 304.54833984375 170.2726593017578 307.3960266113281 186.1885986328125 306.91192626953125 C 173.5897979736328 307.3481750488281 182.83712768554688 298.3935852050781 183.39761352539062 310.29840087890625" stroke-width="0.0" fill="rgb(83, 95, 115)" opacity="0.79061896" stroke="rgb(247, 34, 128)" stroke-opacity="0.2054715" stroke-linecap="round" stroke-linejoin="round"/>
    <path d="M 444.5245666503906 269.1150817871094 C 463.81658935546875 320.9424133300781 443.6594543457031 311.7850646972656 422.8550720214844 310.0871887207031 C 388.33251953125 312.1019287109375 394.404296875 311.4671325683594 396.0330505371094 303.4655456542969 C 428.39923095703125 303.0299072265625 405.13427734375 285.5745849609375 417.2685546875 275.31060791015625 C 441.3084716796875 263.65594482421875 422.29541015625 350.57305908203125 444.5245666503906 269.1150817871094" stroke-width="0.0" fill="rgb(33, 16, 10)" opacity="0.83455205" stroke="rgb(249, 39, 227)" stroke-opacity="0.0013857418" stroke-linecap="round" stroke-linejoin="round"/>
    <path d="M 105.76631927490234 290.60784912109375 C 104.76969146728516 288.04534912109375 105.64796447753906 300.9098205566406 103.55049133300781 312.3795471191406 C 82.4724349975586 310.9703063964844 95.8711166381836 319.2154541015625 91.52688598632812 291.4665832519531 C 96.39918518066406 280.7110595703125 93.85773468017578 279.44830322265625 94.40394592285156 284.1933288574219 C 98.1705093383789 278.83795166015625 105.7058334350586 279.13299560546875 105.76631927490234 290.60784912109375" stroke-width="0.0" fill="rgb(34, 18, 7)" opacity="0.9345138" stroke="rgb(185, 42, 175)" stroke-opacity="0.9000391" stroke-linecap="round" stroke-linejoin="round"/>
    <path d="M 264.1348571777344 307.0489501953125 C 248.8424530029297 320.7373962402344 239.75059509277344 312.78240966796875 179.93536376953125 316.4517822265625 C 336.0623779296875 316.31402587890625 278.4735412597656 317.9457092285156 199.19712829589844 317.3885192871094 C 223.72596740722656 305.5322570800781 191.45533752441406 306.1183166503906 227.4930877685547 306.602783203125 C 219.18121337890625 305.5975036621094 235.3606414794922 309.1405334472656 264.1348571777344 307.0489501953125" stroke-width="0.0" fill="rgb(135, 127, 138)" opacity="1.0" stroke="rgb(21, 84, 53)" stroke-opacity="0.24086691" stroke-linecap="round" stroke-linejoin="round"/>
    <path d="M 187.84848022460938 229.07623291015625 C 188.91307067871094 258.10614013671875 189.23370361328125 248.381591796875 174.6485137939453 252.01889038085938 C 173.85797119140625 252.2757568359375 174.635009765625 248.42433166503906 175.38238525390625 232.5666961669922 C 170.666259765625 233.1982879638672 166.23806762695312 218.36593627929688 183.4114532470703 221.17437744140625 C 188.8854217529297 222.83712768554688 190.250732421875 228.82054138183594 187.84848022460938 229.07623291015625" stroke-width="0.0" fill="rgb(41, 11, 0)" opacity="0.60937256" stroke="rgb(100, 96, 136)" stroke-opacity="0.29072183" stroke-linecap="round" stroke-linejoin="round"/>
    <path d="M 402.94012451171875 280.4018859863281 C 404.30914306640625 277.0168762207031 388.8527526855469 293.60491943359375 384.89117431640625 312.2040710449219 C 382.55865478515625 300.32354736328125 380.7256164550781 284.71142578125 381.5069580078125 285.31793212890625 C 381.4879455566406 274.77294921875 384.7619323730469 275.99749755859375 390.45050048828125 273.1041564941406 C 400.7055358886719 272.9206848144531 400.630859375 279.1597900390625 402.94012451171875 280.4018859863281" stroke-width="0.0" fill="rgb(5, 3, 2)" opacity="0.95074946" stroke="rgb(82, 217, 145)" stroke-opacity="0.037226457" stroke-linecap="round" stroke-linejoin="round"/>
    <path d="M 406.0759582519531 303.91326904296875 C 411.232177734375 303.3918151855469 410.46185302734375 302.6203918457031 398.2883605957031 306.36541748046875 C 373.5877685546875 310.5992431640625 384.573974609375 293.24041748046875 388.96197509765625 299.7271423339844 C 394.333984375 290.5837097167969 392.3946228027344 290.5622253417969 392.4420166015625 274.1585693359375 C 410.0379638671875 281.9163818359375 399.6733703613281 277.1074523925781 406.0759582519531 303.91326904296875" stroke-width="0.0" fill="rgb(46, 28, 11)" opacity="0.8952628" stroke="rgb(37, 249, 86)" stroke-opacity="0.61267734" stroke-linecap="round" stroke-linejoin="round"/>
    <path d="M 158.06451416015625 235.27061462402344 C 154.3289337158203 242.12518310546875 159.33895874023438 254.26779174804688 152.63995361328125 253.052734375 C 144.79087829589844 255.2135009765625 150.19161987304688 249.8465576171875 149.44439697265625 233.07476806640625 C 143.41915893554688 228.1692352294922 137.86529541015625 231.44171142578125 146.55001831054688 225.43971252441406 C 159.842529296875 223.09901428222656 155.79942321777344 231.20713806152344 158.06451416015625 235.27061462402344" stroke-width="0.0" fill="rgb(18, 4, 0)" opacity="0.8450929" stroke="rgb(138, 80, 19)" stroke-opacity="0.42490155" stroke-linecap="round" stroke-linejoin="round"/>
    <path d="M 155.73211669921875 289.16571044921875 C 155.03982543945312 302.7795104980469 152.73117065429688 315.7179260253906 154.80776977539062 312.6302795410156 C 108.1283950805664 310.4648742675781 156.08203125 323.7977600097656 141.17282104492188 280.5952453613281 C 132.40943908691406 296.6997985839844 136.46136474609375 279.7060241699219 143.94554138183594 278.05242919921875 C 158.53961181640625 276.629638671875 154.01524353027344 289.66741943359375 155.73211669921875 289.16571044921875" stroke-width="0.0" fill="rgb(18, 12, 8)" opacity="0.8895173" stroke="rgb(249, 115, 8)" stroke-opacity="0.69328564" stroke-linecap="round" stroke-linejoin="round"/>
    <path d="M 257.7127990722656 192.93617248535156 C 261.2508850097656 189.6568603515625 256.52386474609375 191.30160522460938 234.64114379882812 193.32626342773438 C 233.65423583984375 193.9380645751953 233.46034240722656 191.80490112304688 237.3417510986328 191.20196533203125 C 236.96917724609375 169.8817596435547 238.16204833984375 170.64601135253906 248.85433959960938 167.65145874023438 C 257.7995300292969 168.1225128173828 258.07818603515625 172.95912170410156 257.7127990722656 192.93617248535156" stroke-width="0.0" fill="rgb(255, 250, 254)" opacity="0.8148962" stroke="rgb(234, 132, 32)" stroke-opacity="0.13056526" stroke-linecap="round" stroke-linejoin="round"/>
    <path d="M 191.91815185546875 191.6851348876953 C 190.48977661132812 201.14552307128906 195.2541046142578 195.19468688964844 177.10836791992188 199.56271362304688 C 178.79913330078125 199.491943359375 175.462890625 189.03689575195312 178.6293182373047 210.66751098632812 C 175.6944580078125 180.8829803466797 177.5478057861328 179.85861206054688 185.93504333496094 175.56483459472656 C 193.20321655273438 177.16062927246094 190.9021759033203 168.52635192871094 191.91815185546875 191.6851348876953" stroke-width="0.0" fill="rgb(255, 250, 242)" opacity="0.9114195" stroke="rgb(167, 143, 206)" stroke-opacity="0.09985857" stroke-linecap="round" stroke-linejoin="round"/>
    <path d="M 520.1752319335938 246.4674835205078 C 520.9788208007812 254.1219940185547 521.017822265625 257.28228759765625 517.8436279296875 254.0348358154297 C 494.3694763183594 248.4772186279297 486.1950378417969 245.31629943847656 478.65301513671875 248.89971923828125 C 486.12603759765625 238.5070037841797 504.7011413574219 235.80714416503906 507.44171142578125 233.78070068359375 C 521.9013061523438 232.0138702392578 520.5781860351562 234.03541564941406 520.1752319335938 246.4674835205078" stroke-width="0.0" fill="rgb(78, 87, 112)" opacity="0.74300516" stroke="rgb(221, 230, 50)" stroke-opacity="0.2031248" stroke-linecap="round" stroke-linejoin="round"/>
    <path d="M 491.78826904296875 240.32931518554688 C 476.0976867675781 239.84596252441406 469.1562805175781 244.38780212402344 473.1880798339844 300.5436706542969 C 468.5958251953125 295.56256103515625 472.92840576171875 289.9588928222656 472.4748229980469 253.47434997558594 C 446.39312744140625 256.0767822265625 471.63043212890625 284.6919860839844 412.92083740234375 102.06784057617188 C 612.2176513671875 126.48666381835938 583.8521728515625 207.60240173339844 491.78826904296875 240.32931518554688" stroke-width="0.0" fill="rgb(124, 147, 185)" opacity="0.5536209" stroke="rgb(216, 253, 101)" stroke-opacity="0.38777503" stroke-linecap="round" stroke-linejoin="round"/>
    <path d="M 494.4410705566406 274.9412536621094 C 486.56390380859375 284.1532897949219 482.8919372558594 288.08734130859375 480.1261291503906 281.4435729980469 C 477.1059265136719 283.44580078125 483.9803466796875 273.79510498046875 468.89892578125 275.8065490722656 C 480.1747741699219 267.8642272949219 487.56256103515625 271.68896484375 476.3437194824219 277.6112060546875 C 486.55645751953125 266.0169372558594 485.6237487792969 277.6822204589844 494.4410705566406 274.9412536621094" stroke-width="0.0" fill="rgb(225, 160, 99)" opacity="1.0" stroke="rgb(117, 193, 177)" stroke-opacity="0.36325952" stroke-linecap="round" stroke-linejoin="round"/>
    <path d="M 481.5972595214844 277.96453857421875 C 478.4064636230469 265.91265869140625 476.2126770019531 269.7192687988281 480.6143493652344 280.758544921875 C 481.5419921875 281.4967346191406 475.1900329589844 276.1075134277344 473.392578125 281.0703430175781 C 473.8556213378906 264.1907043457031 464.2353210449219 272.943115234375 478.5361022949219 262.397705078125 C 474.3078308105469 270.957275390625 477.8203430175781 271.5063781738281 481.5972595214844 277.96453857421875" stroke-width="0.0" fill="rgb(226, 173, 113)" opacity="1.0" stroke="rgb(145, 115, 228)" stroke-opacity="0.03598804" stroke-linecap="round" stroke-linejoin="round"/>
    <path d="M 402.6215515136719 305.43707275390625 C 410.4906005859375 289.1989440917969 398.21722412109375 312.50372314453125 357.16815185546875 310.9547119140625 C 312.19342041015625 317.3706359863281 364.2915954589844 293.27166748046875 384.0547790527344 311.07830810546875 C 347.2398986816406 310.4481506347656 385.86065673828125 313.2441101074219 382.9656982421875 302.5237121582031 C 412.7945251464844 302.1477355957031 414.6638488769531 291.1479187011719 402.6215515136719 305.43707275390625" stroke-width="0.0" fill="rgb(20, 19, 24)" opacity="0.8888032" stroke="rgb(201, 62, 107)" stroke-opacity="0.6597879" stroke-linecap="round" stroke-linejoin="round"/>
    <path d="M 258.28021240234375 238.7301788330078 C 249.22085571289062 236.0452880859375 259.53240966796875 245.9785919189453 254.27723693847656 246.8750457763672 C 220.7197265625 248.14620971679688 240.2502899169922 247.51516723632812 237.96646118164062 244.7962646484375 C 238.70448303222656 210.52842712402344 237.54783630371094 218.245361328125 246.10472106933594 215.23126220703125 C 258.396240234375 217.26268005371094 257.5683898925781 221.8500213623047 258.28021240234375 238.7301788330078" stroke-width="0.0" fill="rgb(19, 5, 2)" opacity="0.876522" stroke="rgb(129, 241, 172)" stroke-opacity="0.5769956" stroke-linecap="round" stroke-linejoin="round"/>
    <path d="M 258.1373291015625 301.03216552734375 C 255.66651916503906 299.57830810546875 253.46742248535156 301.31219482421875 245.94273376464844 300.521240234375 C 241.753173828125 313.1552429199219 234.83340454101562 310.3267822265625 236.79556274414062 287.5777282714844 C 229.51487731933594 272.2842712402344 240.00604248046875 276.5686950683594 244.17481994628906 272.29681396484375 C 265.2172546386719 276.2113342285156 257.0960998535156 274.6252136230469 258.1373291015625 301.03216552734375" stroke-width="0.0" fill="rgb(44, 23, 0)" opacity="0.8174815" stroke="rgb(2, 40, 36)" stroke-opacity="0.6588237" stroke-linecap="round" stroke-linejoin="round"/>
    <path d="M 164.56703186035156 257.9736633300781 C 166.248291015625 262.4465026855469 146.46595764160156 260.180419921875 102.70083618164062 266.6163024902344 C 146.7487335205078 264.04608154296875 174.83103942871094 266.8725891113281 112.92820739746094 266.3559265136719 C 114.64410400390625 255.22901916503906 119.35626220703125 261.31884765625 87.87067413330078 258.75115966796875 C 107.77974700927734 258.76080322265625 126.03412628173828 257.7776794433594 164.56703186035156 257.9736633300781" stroke-width="0.0" fill="rgb(190, 151, 130)" opacity="1.0" stroke="rgb(216, 1, 212)" stroke-opacity="0.21729928" stroke-linecap="round" stroke-linejoin="round"/>
    <path d="M 50.78997039794922 194.25621032714844 C 58.73276901245117 208.73370361328125 41.429527282714844 200.55194091796875 22.635454177856445 200.0927734375 C 13.362778663635254 196.734375 -4.00523042678833 216.92193603515625 -10.061074256896973 172.99639892578125 C -2.464663028717041 167.08900451660156 -1.084740400314331 171.07545471191406 9.414494514465332 175.81712341308594 C 27.119693756103516 177.55116271972656 27.999195098876953 179.44007873535156 50.78997039794922 194.25621032714844" stroke-width="0.0" fill="rgb(247, 165, 95)" opacity="0.67749757" stroke="rgb(101, 43, 60)" stroke-opacity="0.5538403" stroke-linecap="round" stroke-linejoin="round"/>
    <path d="M 445.90509033203125 247.18484497070312 C 446.161865234375 248.71058654785156 442.52569580078125 247.852783203125 435.8595886230469 243.9531707763672 C 435.4193420410156 252.41943359375 434.39324951171875 249.1776123046875 432.4142761230469 230.2091522216797 C 432.8418273925781 217.38919067382812 469.99688720703125 224.788330078125 430.24432373046875 216.38388061523438 C 442.5269775390625 225.45626831054688 440.4373779296875 233.20480346679688 445.90509033203125 247.18484497070312" stroke-width="0.0" fill="rgb(23, 0, 0)" opacity="0.94023216" stroke="rgb(238, 178, 51)" stroke-opacity="0.68503475" stroke-linecap="round" stroke-linejoin="round"/>
    <path d="M 176.37413024902344 197.62623596191406 C 221.70164489746094 196.10951232910156 211.59860229492188 201.4996337890625 171.35684204101562 204.5022430419922 C 152.73289489746094 207.7581024169922 159.8038330078125 206.52838134765625 160.62037658691406 206.28408813476562 C 162.03958129882812 192.48785400390625 162.54664611816406 187.1451873779297 164.51055908203125 186.4191131591797 C 167.48709106445312 196.39292907714844 181.97998046875 179.96536254882812 176.37413024902344 197.62623596191406" stroke-width="0.0" fill="rgb(249, 193, 144)" opacity="0.5003899" stroke="rgb(187, 82, 103)" stroke-opacity="0.6847675" stroke-linecap="round" stroke-linejoin="round"/>
    <path d="M 45.339866638183594 268.35687255859375 C 49.123138427734375 266.9239196777344 47.79182815551758 276.96783447265625 41.543922424316406 280.5922546386719 C 35.485897064208984 278.2507019042969 11.836115837097168 275.5341491699219 5.179936408996582 273.141845703125 C 36.1750602722168 259.4144592285156 36.23814010620117 270.0773010253906 53.141685485839844 270.8302307128906 C 35.0406494140625 267.91619873046875 42.78828048706055 268.01898193359375 45.339866638183594 268.35687255859375" stroke-width="0.0" fill="rgb(255, 177, 83)" opacity="0.82217306" stroke="rgb(22, 253, 81)" stroke-opacity="0.7118011" stroke-linecap="round" stroke-linejoin="round"/>
    <path d="M 352.1446228027344 117.42920684814453 C 353.7802734375 137.70565795898438 350.1806335449219 137.9070281982422 350.3110656738281 121.51914978027344 C 344.0616760253906 121.18150329589844 356.0563049316406 122.61083984375 343.4916687011719 137.7051544189453 C 342.4144592285156 112.71442413330078 343.0661926269531 110.42138671875 345.2330627441406 115.3746109008789 C 344.7420349121094 106.48982238769531 360.3134765625 120.4073486328125 352.1446228027344 117.42920684814453" stroke-width="0.0" fill="rgb(26, 9, 6)" opacity="0.9554897" stroke="rgb(137, 209, 218)" stroke-opacity="0.91157347" stroke-linecap="round" stroke-linejoin="round"/>
    <path d="M 208.7641143798828 128.249755859375 C 207.42218017578125 146.71231079101562 210.521484375 141.5353546142578 196.40663146972656 142.41812133789062 C 206.4100799560547 141.8679962158203 196.797607421875 148.54307556152344 202.69822692871094 133.06736755371094 C 204.90078735351562 135.2862548828125 202.13356018066406 129.65635681152344 208.06329345703125 131.68295288085938 C 203.82891845703125 124.36756896972656 220.44879150390625 129.20718383789062 208.7641143798828 128.249755859375" stroke-width="0.0" fill="rgb(188, 146, 118)" opacity="1.0" stroke="rgb(168, 145, 132)" stroke-opacity="0.2361873" stroke-linecap="round" stroke-linejoin="round"/>
    <path d="M 48.718509674072266 185.43980407714844 C 30.078405380249023 189.8522491455078 27.962398529052734 195.17623901367188 32.90428924560547 194.5198974609375 C 19.989093780517578 196.1078338623047 24.227922439575195 194.0609588623047 -10.597925186157227 176.4842987060547 C 7.461307048797607 169.06741333007812 13.18089485168457 176.16696166992188 16.316572189331055 175.5170440673828 C 25.972412109375 175.21847534179688 30.659786224365234 182.96116638183594 48.718509674072266 185.43980407714844" stroke-width="0.0" fill="rgb(255, 171, 84)" opacity="0.42525026" stroke="rgb(212, 69, 0)" stroke-opacity="0.8910369" stroke-linecap="round" stroke-linejoin="round"/>
    <path d="M 46.6815185546875 251.11961364746094 C 49.16280746459961 253.42041015625 41.10285186767578 248.1991729736328 32.38399124145508 255.60003662109375 C 17.33820152282715 243.28817749023438 36.40878677368164 259.89337158203125 -8.743722915649414 254.82643127441406 C 22.56511688232422 252.6184539794922 32.02193069458008 241.863037109375 33.44694137573242 246.1292266845703 C 34.4085807800293 246.74195861816406 36.092689514160156 247.0625 46.6815185546875 251.11961364746094" stroke-width="0.0" fill="rgb(254, 241, 145)" opacity="1.0" stroke="rgb(196, 68, 91)" stroke-opacity="0.009499678" stroke-linecap="round" stroke-linejoin="round"/>
    <path d="M 41.37775802612305 184.74600219726562 C 35.40346908569336 194.3516082763672 33.392669677734375 196.2315673828125 29.925939559936523 198.4948272705078 C 23.75524139404297 194.0653533935547 12.758051872253418 199.0113067626953 -10.81093978881836 171.80160522460938 C 1.0423036813735962 171.1138153076172 5.392165660858154 180.50791931152344 33.764404296875 179.83665466308594 C 22.808809280395508 178.6959686279297 25.992387771606445 183.1898956298828 41.37775802612305 184.74600219726562" stroke-width="0.0" fill="rgb(255, 185, 95)" opacity="0.9650129" stroke="rgb(210, 247, 37)" stroke-opacity="0.35917172" stroke-linecap="round" stroke-linejoin="round"/>
    <path d="M 242.1827392578125 199.28488159179688 C 200.48338317871094 199.05599975585938 188.55128479003906 202.92176818847656 286.00457763671875 200.8443603515625 C 193.02728271484375 198.9151611328125 209.29818725585938 204.9784393310547 200.02432250976562 197.07125854492188 C 195.61537170410156 174.60452270507812 202.4465789794922 197.41873168945312 219.96401977539062 174.54136657714844 C 222.2284393310547 172.8434600830078 235.6965789794922 187.6319580078125 242.1827392578125 199.28488159179688" stroke-width="0.0" fill="rgb(198, 150, 113)" opacity="0.94937503" stroke="rgb(240, 186, 118)" stroke-opacity="0.18807219" stroke-linecap="round" stroke-linejoin="round"/>
    <path d="M 55.49523162841797 199.600830078125 C 18.486614227294922 189.8575439453125 60.72184753417969 205.39158630371094 32.463417053222656 202.00997924804688 C 24.214935302734375 194.60723876953125 28.7314453125 201.73318481445312 13.983074188232422 197.62551879882812 C 8.234379768371582 182.15704345703125 17.768211364746094 178.1237030029297 35.6322135925293 191.08547973632812 C 40.095882415771484 182.99038696289062 48.953697204589844 181.81747436523438 55.49523162841797 199.600830078125" stroke-width="0.0" fill="rgb(255, 203, 129)" opacity="1.0" stroke="rgb(253, 70, 236)" stroke-opacity="0.17470421" stroke-linecap="round" stroke-linejoin="round"/>
    <path d="M 366.25762939453125 237.02340698242188 C 369.28466796875 250.646728515625 371.7615966796875 246.357177734375 346.08544921875 247.01776123046875 C 345.88092041015625 247.67156982421875 345.9927673339844 239.5845184326172 345.56304931640625 240.92413330078125 C 344.68438720703125 218.56773376464844 343.0242004394531 215.9843292236328 356.4280090332031 222.9412841796875 C 358.3299255371094 214.8171844482422 368.7230224609375 215.2324981689453 366.25762939453125 237.02340698242188" stroke-width="0.0" fill="rgb(77, 45, 30)" opacity="0.86399865" stroke="rgb(106, 141, 197)" stroke-opacity="0.20333292" stroke-linecap="round" stroke-linejoin="round"/>
    <path d="M 55.793724060058594 207.8892059326172 C 20.59563636779785 194.7941436767578 26.075212478637695 199.56741333007812 8.623370170593262 195.96852111816406 C 9.551973342895508 194.91676330566406 5.4339799880981445 192.8780059814453 -3.218198537826538 192.2506103515625 C -0.9527099132537842 184.95794677734375 1.5483745336532593 183.87136840820312 2.0430591106414795 181.4735107421875 C 0.46195483207702637 194.70892333984375 32.04658508300781 189.19764709472656 55.793724060058594 207.8892059326172" stroke-width="0.0" fill="rgb(255, 235, 163)" opacity="0.8221174" stroke="rgb(100, 153, 227)" stroke-opacity="0.20470358" stroke-linecap="round" stroke-linejoin="round"/>
    <path d="M 218.39112854003906 224.4588623046875 C 203.28453063964844 228.49343872070312 216.6586151123047 252.0200958251953 205.47320556640625 248.98155212402344 C 204.5761260986328 253.3811492919922 205.94078063964844 234.45440673828125 205.40036010742188 231.12791442871094 C 202.62686157226562 232.9377899169922 206.84005737304688 232.44647216796875 215.04833984375 232.38525390625 C 210.77381896972656 223.62562561035156 214.96437072753906 226.6546173095703 218.39112854003906 224.4588623046875" stroke-width="0.0" fill="rgb(9, 2, 0)" opacity="0.9664335" stroke="rgb(166, 195, 199)" stroke-opacity="0.69824076" stroke-linecap="round" stroke-linejoin="round"/>
    <path d="M 398.6935729980469 229.86544799804688 C 396.3440856933594 235.44949340820312 405.6098937988281 234.96424865722656 381.794921875 248.55320739746094 C 375.6624755859375 233.53079223632812 381.7955627441406 228.59393310546875 376.97174072265625 223.3816375732422 C 381.9351806640625 218.39544677734375 384.27178955078125 216.02662658691406 382.9234313964844 218.1449737548828 C 384.31536865234375 217.38461303710938 395.9399108886719 213.99868774414062 398.6935729980469 229.86544799804688" stroke-width="0.0" fill="rgb(53, 25, 9)" opacity="0.82820076" stroke="rgb(115, 144, 171)" stroke-opacity="0.8277113" stroke-linecap="round" stroke-linejoin="round"/>
    <path d="M 222.90066528320312 225.8757781982422 C 211.9141387939453 228.72938537597656 201.12181091308594 217.433837890625 215.50625610351562 227.9883270263672 C 207.6742401123047 237.64181518554688 209.65956115722656 239.46737670898438 213.1197509765625 235.80372619628906 C 207.63119506835938 229.6175537109375 205.185791015625 224.30580139160156 213.5920867919922 221.94908142089844 C 222.5292205810547 221.62269592285156 221.24383544921875 220.42617797851562 222.90066528320312 225.8757781982422" stroke-width="0.0" fill="rgb(16, 7, 11)" opacity="0.98547316" stroke="rgb(152, 25, 61)" stroke-opacity="0.231052" stroke-linecap="round" stroke-linejoin="round"/>
    <path d="M 332.3450622558594 133.97647094726562 C 340.5293273925781 132.76541137695312 318.0971374511719 137.55645751953125 302.4812927246094 133.31813049316406 C 304.8856201171875 126.51527404785156 293.7715759277344 138.0058135986328 294.62786865234375 118.67656707763672 C 298.03948974609375 115.30353546142578 311.7292175292969 129.7827606201172 318.0481872558594 126.73645782470703 C 307.52093505859375 123.28963470458984 328.6802062988281 126.43339538574219 332.3450622558594 133.97647094726562" stroke-width="0.0" fill="rgb(172, 130, 105)" opacity="0.9663891" stroke="rgb(196, 242, 11)" stroke-opacity="0.65678525" stroke-linecap="round" stroke-linejoin="round"/>
    <path d="M 397.8381042480469 238.2837371826172 C 400.2746887207031 242.95152282714844 400.8896179199219 256.7590026855469 399.4786682128906 248.73582458496094 C 370.40240478515625 248.60623168945312 381.9695129394531 244.65164184570312 379.2781982421875 243.72984313964844 C 379.91534423828125 223.13134765625 370.3080139160156 220.29925537109375 389.54278564453125 217.53353881835938 C 391.0638122558594 225.7436065673828 382.4484558105469 250.68264770507812 397.8381042480469 238.2837371826172" stroke-width="0.0" fill="rgb(12, 0, 0)" opacity="0.65064514" stroke="rgb(151, 44, 9)" stroke-opacity="0.91393125" stroke-linecap="round" stroke-linejoin="round"/>
    <path d="M 357.3890380859375 219.2146759033203 C 360.327392578125 256.56329345703125 366.2425231933594 244.7775421142578 345.7525634765625 247.0660858154297 C 358.7423400878906 223.2465362548828 342.7497863769531 241.88949584960938 345.2669677734375 226.56576538085938 C 342.8542175292969 222.71337890625 347.0289001464844 215.22178649902344 355.2964782714844 215.53109741210938 C 363.17401123046875 216.74566650390625 365.89453125 219.28135681152344 357.3890380859375 219.2146759033203" stroke-width="0.0" fill="rgb(8, 0, 0)" opacity="0.6644638" stroke="rgb(19, 58, 174)" stroke-opacity="0.6707022" stroke-linecap="round" stroke-linejoin="round"/>
    <path d="M 223.49932861328125 189.82557678222656 C 222.9861602783203 194.904296875 224.53091430664062 193.23193359375 222.45315551757812 194.67886352539062 C 202.8379364013672 194.7397918701172 208.6042938232422 199.86669921875 206.56784057617188 188.76316833496094 C 208.92771911621094 176.66873168945312 202.59254455566406 179.53805541992188 215.4505157470703 167.78627014160156 C 224.760498046875 168.01341247558594 222.99061584472656 170.6089630126953 223.49932861328125 189.82557678222656" stroke-width="0.0" fill="rgb(252, 243, 241)" opacity="0.85982215" stroke="rgb(161, 31, 238)" stroke-opacity="0.355614" stroke-linecap="round" stroke-linejoin="round"/>
    <path d="M 403.9341735839844 137.08334350585938 C 404.3436584472656 149.3600311279297 411.9475402832031 145.42433166503906 412.40484619140625 148.2184295654297 C 391.435546875 141.51974487304688 387.08856201171875 140.5010223388672 396.24566650390625 137.3751678466797 C 389.1095886230469 126.06985473632812 385.479248046875 103.91365814208984 400.1483154296875 130.01234436035156 C 399.32794189453125 133.75430297851562 400.76837158203125 141.7821502685547 403.9341735839844 137.08334350585938" stroke-width="0.0" fill="rgb(134, 94, 74)" opacity="0.91611046" stroke="rgb(100, 107, 104)" stroke-opacity="0.15370886" stroke-linecap="round" stroke-linejoin="round"/>
    <path d="M 28.030075073242188 196.04342651367188 C 30.16728973388672 196.7347869873047 30.574697494506836 196.17489624023438 27.18878746032715 193.45867919921875 C 17.160968780517578 195.25924682617188 19.531002044677734 195.58984375 32.20136642456055 192.36183166503906 C 16.2270565032959 187.06002807617188 4.19232177734375 187.4607696533203 16.71173095703125 189.23390197753906 C 8.975266456604004 188.74354553222656 8.926654815673828 188.93963623046875 28.030075073242188 196.04342651367188" stroke-width="0.0" fill="rgb(252, 206, 111)" opacity="0.82818687" stroke="rgb(170, 163, 159)" stroke-opacity="0.64846855" stroke-linecap="round" stroke-linejoin="round"/>
    <path d="M 37.92808532714844 246.28492736816406 C 17.938711166381836 262.4156799316406 52.5517463684082 257.11016845703125 26.65078353881836 246.01368713378906 C 44.63744354248047 282.3059387207031 -27.574966430664062 255.82888793945312 -5.2077507972717285 248.0564727783203 C 30.05156898498535 253.296142578125 29.520559310913086 234.67788696289062 11.849183082580566 249.82421875 C 22.019962310791016 247.6499481201172 24.812349319458008 241.22665405273438 37.92808532714844 246.28492736816406" stroke-width="0.0" fill="rgb(255, 170, 91)" opacity="0.56446964" stroke="rgb(145, 35, 195)" stroke-opacity="0.92517847" stroke-linecap="round" stroke-linejoin="round"/>
    <path d="M 515.1538696289062 266.6084289550781 C 503.0535583496094 313.9458923339844 511.05316162109375 308.6122741699219 491.7040710449219 310.347900390625 C 402.5025329589844 316.8140563964844 484.81744384765625 286.47808837890625 468.4267272949219 292.7356262207031 C 479.5872497558594 273.79278564453125 457.0758056640625 288.57171630859375 497.97674560546875 286.3046875 C 500.7881164550781 283.13726806640625 499.9508056640625 298.0386962890625 515.1538696289062 266.6084289550781" stroke-width="0.0" fill="rgb(12, 19, 1)" opacity="0.52106893" stroke="rgb(69, 170, 230)" stroke-opacity="0.7280312" stroke-linecap="round" stroke-linejoin="round"/>
    <path d="M 10.34146499633789 309.6424255371094 C 29.17629623413086 308.75592041015625 24.336183547973633 314.145751953125 1.7880141735076904 312.666748046875 C 5.840564727783203 309.41748046875 6.924559116363525 307.2215881347656 5.342491626739502 310.8028869628906 C -0.3963962197303772 301.623046875 5.980508804321289 309.3512268066406 4.981756210327148 301.72064208984375 C 12.801487922668457 300.91070556640625 11.394659996032715 300.418212890625 10.34146499633789 309.6424255371094" stroke-width="0.0" fill="rgb(223, 116, 40)" opacity="0.8484519" stroke="rgb(224, 128, 131)" stroke-opacity="0.1453194" stroke-linecap="round" stroke-linejoin="round"/>
    <path d="M 222.4845733642578 228.75645446777344 C 223.47743225097656 238.49620056152344 222.013427734375 251.1289520263672 222.02426147460938 248.9756622314453 C 201.3971710205078 248.9706268310547 229.82681274414062 248.47096252441406 205.30088806152344 230.4397735595703 C 207.4521026611328 223.67568969726562 207.88461303710938 222.3316650390625 219.00025939941406 220.8065948486328 C 218.44052124023438 220.7900848388672 217.40577697753906 221.96128845214844 222.4845733642578 228.75645446777344" stroke-width="0.0" fill="rgb(2, 0, 1)" opacity="0.9427563" stroke="rgb(32, 211, 126)" stroke-opacity="0.22296435" stroke-linecap="round" stroke-linejoin="round"/>
    <path d="M 258.7803039550781 299.4703674316406 C 257.0108642578125 309.7357482910156 265.4737243652344 308.53173828125 240.21273803710938 307.976318359375 C 233.06430053710938 307.6932678222656 238.47314453125 307.36376953125 236.01756286621094 300.83349609375 C 237.1357879638672 282.92547607421875 236.0707244873047 280.6728210449219 246.0074462890625 273.6780090332031 C 262.1275634765625 277.97015380859375 257.1048889160156 279.5597839355469 258.7803039550781 299.4703674316406" stroke-width="0.0" fill="rgb(0, 2, 17)" opacity="0.67351043" stroke="rgb(158, 39, 100)" stroke-opacity="0.53491086" stroke-linecap="round" stroke-linejoin="round"/>
    <path d="M 369.0328369140625 287.8153076171875 C 358.43438720703125 292.3874816894531 374.0689697265625 319.8854064941406 371.1741638183594 297.58575439453125 C 347.1812438964844 310.5801086425781 350.21893310546875 311.62518310546875 348.3540954589844 289.4064025878906 C 346.95086669921875 275.296630859375 355.2443542480469 270.86956787109375 365.6833190917969 275.07183837890625 C 375.7323303222656 282.90838623046875 370.2421875 296.00115966796875 369.0328369140625 287.8153076171875" stroke-width="0.0" fill="rgb(33, 19, 9)" opacity="0.94380254" stroke="rgb(205, 186, 157)" stroke-opacity="0.3154246" stroke-linecap="round" stroke-linejoin="round"/>
    <path d="M 428.5570068359375 158.3547821044922 C 413.86383056640625 176.9983367919922 433.5704345703125 153.7327880859375 377.4083557128906 156.50119018554688 C 415.5753479003906 161.21678161621094 363.8054504394531 140.41551208496094 221.9366912841797 151.7561798095703 C 200.44325256347656 147.9779052734375 277.7433166503906 138.5841827392578 357.32061767578125 145.83450317382812 C 369.9683532714844 145.83836364746094 402.8359375 151.34971618652344 428.5570068359375 158.3547821044922" stroke-width="0.0" fill="rgb(39, 15, 5)" opacity="0.7490726" stroke="rgb(157, 245, 157)" stroke-opacity="0.12771656" stroke-linecap="round" stroke-linejoin="round"/>
    <path d="M 522.3973388671875 322.8763427734375 C 521.1793823242188 356.4090270996094 512.3610229492188 352.0032653808594 489.0000305175781 352.85260009765625 C 474.8199462890625 328.948974609375 449.6020202636719 342.0456237792969 420.8910217285156 323.15185546875 C 456.47357177734375 313.69635009765625 470.7588195800781 323.03582763671875 500.7077331542969 321.9816589355469 C 504.3465270996094 323.7532043457031 517.5938110351562 322.8033142089844 522.3973388671875 322.8763427734375" stroke-width="0.0" fill="rgb(105, 93, 97)" opacity="0.94666904" stroke="rgb(93, 94, 129)" stroke-opacity="0.91727006" stroke-linecap="round" stroke-linejoin="round"/>
    <path d="M 383.17132568359375 120.69499206542969 C 399.8510437011719 156.4923095703125 387.1224060058594 135.75384521484375 347.68267822265625 137.0463104248047 C 317.17083740234375 131.9281463623047 308.0780334472656 136.39743041992188 329.9931945800781 126.69476318359375 C 330.5096435546875 111.14186096191406 324.63275146484375 90.1083755493164 342.8597106933594 120.94866180419922 C 357.6822204589844 120.68644714355469 328.2085876464844 135.48167419433594 383.17132568359375 120.69499206542969" stroke-width="0.0" fill="rgb(139, 102, 80)" opacity="1.0" stroke="rgb(231, 96, 115)" stroke-opacity="0.12520301" stroke-linecap="round" stroke-linejoin="round"/>
    <path d="M 333.5279235839844 113.04737091064453 C 332.01959228515625 107.39790344238281 334.9786071777344 107.4111557006836 334.8812255859375 110.97672271728516 C 340.98870849609375 111.77910614013672 337.9902648925781 110.99174499511719 338.8396301269531 112.6025161743164 C 340.2209167480469 114.62025451660156 334.0853271484375 108.705322265625 335.6153259277344 131.1055908203125 C 330.755126953125 104.03202056884766 344.2804260253906 122.10807037353516 333.5279235839844 113.04737091064453" stroke-width="0.0" fill="rgb(35, 14, 5)" opacity="0.9173007" stroke="rgb(8, 112, 194)" stroke-opacity="0.9914138" stroke-linecap="round" stroke-linejoin="round"/>
    <path d="M 224.33204650878906 248.90476989746094 C 226.49948120117188 247.7861328125 227.08421325683594 249.65560913085938 202.57907104492188 248.65670776367188 C 199.4965362548828 252.58718872070312 202.46270751953125 233.79454040527344 203.80282592773438 247.58460998535156 C 212.9437713623047 255.86512756347656 200.7076416015625 222.98648071289062 212.78599548339844 231.22119140625 C 212.60533142089844 226.16555786132812 220.37844848632812 252.74658203125 224.33204650878906 248.90476989746094" stroke-width="0.0" fill="rgb(66, 37, 21)" opacity="0.879717" stroke="rgb(240, 139, 245)" stroke-opacity="0.34432036" stroke-linecap="round" stroke-linejoin="round"/>
    <path d="M 356.8690185546875 106.43687438964844 C 368.8183288574219 115.40283966064453 352.8743896484375 103.6769027709961 351.4326477050781 114.02580261230469 C 353.06622314453125 102.68224334716797 345.4560852050781 114.49247741699219 330.9434814453125 104.1319808959961 C 361.5877990722656 102.81273651123047 350.3507995605469 99.51412200927734 353.7033386230469 106.52938079833984 C 358.694580078125 101.91923522949219 352.34521484375 94.48430633544922 356.8690185546875 106.43687438964844" stroke-width="0.0" fill="rgb(144, 111, 94)" opacity="0.93183595" stroke="rgb(240, 232, 88)" stroke-opacity="0.8323861" stroke-linecap="round" stroke-linejoin="round"/>
    <path d="M 450.7379455566406 216.08819580078125 C 449.4045715332031 226.65072631835938 457.23333740234375 320.1265563964844 445.369140625 223.3359375 C 430.8307800292969 221.7450408935547 422.5062255859375 218.12806701660156 440.418212890625 217.0891571044922 C 398.4784240722656 206.89376831054688 421.7608642578125 202.86387634277344 447.89764404296875 205.0714569091797 C 440.69775390625 213.77224731445312 465.7164306640625 208.45533752441406 450.7379455566406 216.08819580078125" stroke-width="0.0" fill="rgb(82, 36, 13)" opacity="0.68342847" stroke="rgb(118, 120, 149)" stroke-opacity="0.8633567" stroke-linecap="round" stroke-linejoin="round"/>
    <path d="M 527.3585815429688 316.0479736328125 C 534.2886352539062 328.86798095703125 483.4852600097656 318.85491943359375 452.5677185058594 320.95269775390625 C 478.1476135253906 319.80010986328125 460.827392578125 321.2535400390625 417.4597473144531 318.0041198730469 C 463.3933410644531 316.3163146972656 479.2066650390625 317.29559326171875 493.8260192871094 317.66253662109375 C 469.91162109375 316.60198974609375 479.8589172363281 317.8503723144531 527.3585815429688 316.0479736328125" stroke-width="0.0" fill="rgb(26, 43, 10)" opacity="0.95108736" stroke="rgb(237, 173, 118)" stroke-opacity="0.28919026" stroke-linecap="round" stroke-linejoin="round"/>
    <path d="M 199.5449981689453 139.12420654296875 C 202.6954803466797 141.3077850341797 192.6349639892578 144.29051208496094 177.55865478515625 146.6089630126953 C 159.7389678955078 149.68539428710938 145.59910583496094 146.41567993164062 171.33380126953125 139.50845336914062 C 171.0103302001953 132.0894012451172 171.2337188720703 123.11164093017578 181.36590576171875 131.0636444091797 C 215.28665161132812 123.53095245361328 207.8875732421875 127.91146087646484 199.5449981689453 139.12420654296875" stroke-width="0.0" fill="rgb(241, 195, 178)" opacity="0.33281937" stroke="rgb(49, 204, 170)" stroke-opacity="0.59951764" stroke-linecap="round" stroke-linejoin="round"/>
    <path d="M 369.0500793457031 171.24996948242188 C 346.56353759765625 181.13235473632812 361.23040771484375 181.31637573242188 353.778564453125 172.13868713378906 C 352.3017578125 171.0082550048828 351.62274169921875 168.80145263671875 346.0797119140625 167.25167846679688 C 335.4786682128906 170.34458923339844 344.9558410644531 161.67422485351562 349.151611328125 161.84678649902344 C 370.48248291015625 166.512939453125 352.29052734375 175.5421142578125 369.0500793457031 171.24996948242188" stroke-width="0.0" fill="rgb(67, 20, 0)" opacity="0.82507765" stroke="rgb(233, 148, 198)" stroke-opacity="0.016417738" stroke-linecap="round" stroke-linejoin="round"/>
    <path d="M 54.46119689941406 194.35035705566406 C 51.501670837402344 195.16522216796875 35.95179748535156 192.46180725097656 41.51072692871094 189.7409210205078 C 35.50801467895508 188.50039672851562 42.22966003417969 187.10215759277344 18.86721420288086 180.01853942871094 C 4.30062198638916 172.34603881835938 17.88409996032715 170.56178283691406 32.17770767211914 177.57420349121094 C 49.37630081176758 187.0486297607422 57.470985412597656 177.65838623046875 54.46119689941406 194.35035705566406" stroke-width="0.0" fill="rgb(221, 146, 98)" opacity="0.45723137" stroke="rgb(169, 120, 119)" stroke-opacity="0.34768474" stroke-linecap="round" stroke-linejoin="round"/>
    <path d="M 409.9907531738281 248.05177307128906 C 416.83251953125 262.7370300292969 422.44219970703125 257.3210144042969 402.86737060546875 257.61126708984375 C 407.27313232421875 261.0538330078125 407.73468017578125 249.33319091796875 407.7190246582031 278.5156555175781 C 411.143310546875 265.5090637207031 402.4962463378906 237.40985107421875 404.7237548828125 250.2283935546875 C 402.0492858886719 254.17031860351562 415.3143310546875 248.38543701171875 409.9907531738281 248.05177307128906" stroke-width="0.0" fill="rgb(182, 143, 122)" opacity="1.0" stroke="rgb(208, 79, 18)" stroke-opacity="0.72466177" stroke-linecap="round" stroke-linejoin="round"/>
    <path d="M 445.6859436035156 244.34071350097656 C 449.4361267089844 256.47991943359375 443.6506042480469 248.94520568847656 444.1307373046875 252.42970275878906 C 437.2996826171875 253.1820831298828 434.7175598144531 248.45474243164062 434.01123046875 249.84210205078125 C 433.3104553222656 227.89414978027344 441.99835205078125 232.25225830078125 438.6923828125 224.49647521972656 C 446.0871887207031 228.716064453125 446.0807800292969 239.77871704101562 445.6859436035156 244.34071350097656" stroke-width="0.0" fill="rgb(52, 26, 14)" opacity="0.9976086" stroke="rgb(206, 57, 61)" stroke-opacity="0.2311599" stroke-linecap="round" stroke-linejoin="round"/>
    <path d="M 247.82774353027344 149.99888610839844 C 125.02943420410156 161.57395935058594 90.33992767333984 187.5695037841797 103.27989196777344 179.98699951171875 C 71.84442901611328 190.984130859375 39.836151123046875 218.80462646484375 66.42755889892578 194.07516479492188 C 99.40911865234375 170.89483642578125 117.65612030029297 172.69717407226562 105.17243957519531 174.05868530273438 C 110.56331634521484 168.7102508544922 216.570556640625 140.3548126220703 247.82774353027344 149.99888610839844" stroke-width="0.0" fill="rgb(53, 25, 14)" opacity="0.8708627" stroke="rgb(79, 143, 84)" stroke-opacity="0.21973236" stroke-linecap="round" stroke-linejoin="round"/>
    <path d="M 293.1282653808594 132.0751953125 C 293.14727783203125 125.20207977294922 285.3907775878906 119.2984848022461 290.9945068359375 126.4985580444336 C 264.7555847167969 126.20799255371094 276.07366943359375 125.5213394165039 286.32879638671875 125.32513427734375 C 288.4404602050781 111.421630859375 281.8865051269531 124.79598999023438 285.85003662109375 116.17762756347656 C 294.9546203613281 118.47860717773438 290.6309814453125 109.40786743164062 293.1282653808594 132.0751953125" stroke-width="0.0" fill="rgb(160, 122, 99)" opacity="1.0" stroke="rgb(113, 191, 43)" stroke-opacity="0.06853546" stroke-linecap="round" stroke-linejoin="round"/>
    <path d="M 450.74969482421875 215.90699768066406 C 443.02081298828125 213.75709533691406 416.30157470703125 203.65774536132812 430.017822265625 220.53005981445312 C 309.7912292480469 197.5758819580078 421.0137023925781 220.65151977539062 433.5821228027344 209.10784912109375 C 309.6161193847656 197.1255340576172 249.42074584960938 198.08740234375 396.5506286621094 200.14889526367188 C 437.1934814453125 210.495361328125 457.5077209472656 212.1396484375 450.74969482421875 215.90699768066406" stroke-width="0.0" fill="rgb(40, 7, 0)" opacity="0.67818296" stroke="rgb(170, 180, 60)" stroke-opacity="0.8091716" stroke-linecap="round" stroke-linejoin="round"/>
    <path d="M 223.6694793701172 171.81573486328125 C 221.03590393066406 170.29931640625 212.23416137695312 168.7040557861328 208.7572479248047 173.31033325195312 C 204.10475158691406 171.1445770263672 198.5253143310547 180.39218139648438 207.35816955566406 164.7947235107422 C 205.49925231933594 169.3410186767578 213.99154663085938 164.03147888183594 216.54393005371094 165.3357391357422 C 210.75282287597656 167.24478149414062 220.80418395996094 162.7801971435547 223.6694793701172 171.81573486328125" stroke-width="0.0" fill="rgb(99, 42, 9)" opacity="0.95688146" stroke="rgb(187, 102, 212)" stroke-opacity="0.45242" stroke-linecap="round" stroke-linejoin="round"/>
    <path d="M 521.8905639648438 301.8616638183594 C 519.3131103515625 330.22515869140625 520.627197265625 325.3252258300781 505.1356201171875 310.3872375488281 C 479.4092712402344 309.0082092285156 501.8260498046875 306.662841796875 505.0211181640625 309.1978759765625 C 515.6371459960938 269.4826965332031 509.41888427734375 290.9244079589844 490.618408203125 279.2399597167969 C 504.8569030761719 268.7673034667969 535.373779296875 277.2808837890625 521.8905639648438 301.8616638183594" stroke-width="0.0" fill="rgb(3, 21, 3)" opacity="0.6977916" stroke="rgb(243, 43, 31)" stroke-opacity="0.11776194" stroke-linecap="round" stroke-linejoin="round"/>
    <path d="M 388.51605224609375 154.34674072265625 C 409.6666259765625 166.45944213867188 413.63360595703125 161.232666015625 381.3272705078125 159.74981689453125 C 382.58990478515625 161.08563232421875 376.8081359863281 154.84669494628906 384.412841796875 158.18698120117188 C 405.79144287109375 160.38368225097656 411.655029296875 158.28944396972656 392.57177734375 155.48182678222656 C 384.51739501953125 160.6947784423828 372.8192138671875 151.61016845703125 388.51605224609375 154.34674072265625" stroke-width="0.0" fill="rgb(155, 113, 92)" opacity="0.99479765" stroke="rgb(84, 31, 125)" stroke-opacity="0.16628131" stroke-linecap="round" stroke-linejoin="round"/>
    <path d="M 98.36378479003906 159.8797149658203 C 102.44464874267578 170.4129638671875 99.227783203125 170.72438049316406 90.522216796875 174.73770141601562 C 87.13060760498047 178.1177520751953 85.75370788574219 170.65838623046875 93.21907806396484 162.19300842285156 C 86.68628692626953 150.8561553955078 89.08536529541016 151.30026245117188 92.97804260253906 162.31752014160156 C 107.26646423339844 156.57492065429688 105.44821166992188 164.5369415283203 98.36378479003906 159.8797149658203" stroke-width="0.0" fill="rgb(215, 167, 148)" opacity="0.4974718" stroke="rgb(175, 136, 8)" stroke-opacity="0.660896" stroke-linecap="round" stroke-linejoin="round"/>
    <path d="M 300.90667724609375 119.62840270996094 C 329.9484558105469 120.83594512939453 299.657958984375 124.08880615234375 300.7472229003906 134.3596954345703 C 289.7803649902344 135.67929077148438 289.62713623046875 133.5203399658203 292.21942138671875 123.44123077392578 C 296.9257507324219 129.67919921875 294.7910461425781 100.67861938476562 295.3424072265625 98.87370300292969 C 333.0361633300781 103.08647155761719 293.48114013671875 96.38929748535156 300.90667724609375 119.62840270996094" stroke-width="0.0" fill="rgb(149, 110, 86)" opacity="0.9657122" stroke="rgb(40, 111, 118)" stroke-opacity="0.10885146" stroke-linecap="round" stroke-linejoin="round"/>
    <path d="M 444.0867614746094 241.43055725097656 C 447.6165466308594 226.990966796875 448.62744140625 224.23890686035156 443.7309875488281 250.51708984375 C 448.1740417480469 239.48838806152344 434.5021667480469 251.59835815429688 438.1194152832031 239.93943786621094 C 457.7845458984375 229.89051818847656 423.2078857421875 218.43460083007812 438.3235778808594 220.1522979736328 C 448.9100036621094 217.95086669921875 441.061279296875 238.796875 444.0867614746094 241.43055725097656" stroke-width="0.0" fill="rgb(151, 81, 47)" opacity="0.5191024" stroke="rgb(214, 173, 236)" stroke-opacity="0.48190066" stroke-linecap="round" stroke-linejoin="round"/>
    <path d="M 243.4559783935547 246.5304718017578 C 243.21255493164062 210.11529541015625 238.1569366455078 242.52427673339844 237.51315307617188 246.80938720703125 C 231.98780822753906 249.65399169921875 236.23672485351562 243.85842895507812 234.3692169189453 248.70895385742188 C 236.36163330078125 244.68211364746094 232.5768280029297 220.38198852539062 238.9569854736328 228.60690307617188 C 241.39794921875 229.28439331054688 232.03363037109375 237.8104705810547 243.4559783935547 246.5304718017578" stroke-width="0.0" fill="rgb(90, 44, 12)" opacity="0.74071556" stroke="rgb(61, 73, 80)" stroke-opacity="0.10005309" stroke-linecap="round" stroke-linejoin="round"/>
    <path d="M 98.44584655761719 93.53340148925781 C 110.13093566894531 95.17853546142578 120.36766815185547 104.21928405761719 95.2549057006836 102.47489929199219 C 96.11858367919922 88.76019287109375 95.18634796142578 75.72087860107422 89.57548522949219 83.97164916992188 C 93.71739959716797 70.6350326538086 97.35010528564453 82.79633331298828 97.84635162353516 78.25709533691406 C 96.4492416381836 86.11825561523438 102.50309753417969 77.46519470214844 98.44584655761719 93.53340148925781" stroke-width="0.0" fill="rgb(255, 250, 166)" opacity="0.94995916" stroke="rgb(33, 161, 160)" stroke-opacity="0.89803284" stroke-linecap="round" stroke-linejoin="round"/>
    <path d="M 232.54556274414062 243.9451141357422 C 234.037841796875 245.6162567138672 235.19369506835938 240.37490844726562 234.73289489746094 248.79208374023438 C 222.72012329101562 247.4423828125 218.3917999267578 251.1016082763672 226.19577026367188 244.80926513671875 C 226.0309295654297 196.22491455078125 227.60430908203125 189.69500732421875 231.3628692626953 228.8609619140625 C 229.67526245117188 243.54934692382812 229.4087677001953 251.17520141601562 232.54556274414062 243.9451141357422" stroke-width="0.0" fill="rgb(255, 216, 178)" opacity="0.62851113" stroke="rgb(95, 200, 155)" stroke-opacity="0.59789175" stroke-linecap="round" stroke-linejoin="round"/>
    <path d="M 81.99598693847656 232.87982177734375 C 80.85064697265625 234.1348419189453 82.81265258789062 230.60720825195312 90.75469207763672 232.61672973632812 C 94.50999450683594 231.43907165527344 87.4166030883789 230.3007049560547 86.14994812011719 231.542724609375 C 91.42434692382812 234.05490112304688 92.45407104492188 230.46397399902344 76.513916015625 236.41526794433594 C 45.04458999633789 251.09619140625 52.04636001586914 243.7404022216797 81.99598693847656 232.87982177734375" stroke-width="0.0" fill="rgb(22, 3, 0)" opacity="0.90792006" stroke="rgb(174, 56, 197)" stroke-opacity="0.259502" stroke-linecap="round" stroke-linejoin="round"/>
    <path d="M 324.67034912109375 120.77125549316406 C 301.23870849609375 131.67311096191406 337.1441955566406 127.07658386230469 310.3309020996094 118.64531707763672 C 323.2234191894531 128.8438720703125 295.1040344238281 136.2260284423828 307.92657470703125 120.99992370605469 C 299.5159606933594 74.06141662597656 346.9057922363281 108.00578308105469 310.489013671875 107.25174713134766 C 319.58935546875 133.49456787109375 313.0126953125 88.44462585449219 324.67034912109375 120.77125549316406" stroke-width="0.0" fill="rgb(149, 112, 91)" opacity="0.69365525" stroke="rgb(15, 189, 228)" stroke-opacity="0.07181404" stroke-linecap="round" stroke-linejoin="round"/>
    <path d="M 217.15171813964844 232.8365020751953 C 217.44174194335938 242.0347442626953 214.4955596923828 240.68365478515625 209.34054565429688 240.0070037841797 C 215.00367736816406 231.5108642578125 205.55374145507812 244.5591583251953 211.37637329101562 233.8406219482422 C 218.4950408935547 233.26463317871094 223.2012939453125 231.33926391601562 201.9085235595703 225.89390563964844 C 211.5687713623047 234.99847412109375 212.36863708496094 234.4027099609375 217.15171813964844 232.8365020751953" stroke-width="0.0" fill="rgb(61, 32, 17)" opacity="0.44743896" stroke="rgb(230, 60, 231)" stroke-opacity="0.6868251" stroke-linecap="round" stroke-linejoin="round"/>
    <path d="M 353.18890380859375 105.1119613647461 C 346.5434265136719 109.87278747558594 343.2472229003906 109.49440002441406 345.1639404296875 112.75086975097656 C 334.428955078125 114.80188751220703 350.2012939453125 105.6062240600586 329.25982666015625 108.37614440917969 C 327.26287841796875 97.19068145751953 334.71429443359375 97.92295837402344 344.1570739746094 98.1112289428711 C 342.1749267578125 103.56407928466797 361.53271484375 93.55078125 353.18890380859375 105.1119613647461" stroke-width="0.0" fill="rgb(141, 105, 86)" opacity="0.56216353" stroke="rgb(224, 179, 59)" stroke-opacity="0.34888533" stroke-linecap="round" stroke-linejoin="round"/>
    <path d="M 392.7471618652344 165.70689392089844 C 373.9393005371094 156.3644256591797 372.8674621582031 158.15249633789062 395.47076416015625 160.91932678222656 C 436.8853759765625 169.22604370117188 439.43438720703125 174.5005340576172 377.5035095214844 159.26593017578125 C 416.4842529296875 168.87286376953125 341.3464660644531 140.0232696533203 188.26576232910156 163.01780700683594 C 353.7702941894531 146.35372924804688 392.6519775390625 164.9483642578125 392.7471618652344 165.70689392089844" stroke-width="0.0" fill="rgb(28, 3, 0)" opacity="0.8480436" stroke="rgb(38, 138, 0)" stroke-opacity="0.28823435" stroke-linecap="round" stroke-linejoin="round"/>
    <path d="M 276.4347839355469 88.67991638183594 C 251.90985107421875 97.98323059082031 246.4823455810547 89.8265380859375 243.7720489501953 98.22777557373047 C 216.9827423095703 104.75428771972656 237.9913787841797 96.90205383300781 182.84352111816406 108.2735595703125 C 175.8740692138672 84.9091796875 214.7235107421875 92.30284118652344 252.37057495117188 81.0537338256836 C 198.5706787109375 97.12294006347656 259.8405456542969 82.00062561035156 276.4347839355469 88.67991638183594" stroke-width="0.0" fill="rgb(15, 0, 0)" opacity="0.5231422" stroke="rgb(74, 201, 113)" stroke-opacity="0.14399189" stroke-linecap="round" stroke-linejoin="round"/>
    <path d="M 14.936558723449707 193.5418701171875 C 14.808552742004395 202.31414794921875 14.049463272094727 197.08303833007812 -2.4268651008605957 192.76846313476562 C -6.111213207244873 195.2383270263672 -7.9846577644348145 195.54122924804688 -11.104531288146973 182.68560791015625 C -8.22131061553955 179.3701629638672 -7.780534267425537 181.20819091796875 4.666054725646973 183.78665161132812 C 13.810835838317871 186.21583557128906 14.711535453796387 181.52633666992188 14.936558723449707 193.5418701171875" stroke-width="0.0" fill="rgb(255, 235, 142)" opacity="0.43860668" stroke="rgb(134, 247, 53)" stroke-opacity="0.779828" stroke-linecap="round" stroke-linejoin="round"/>
    <path d="M 357.2889404296875 196.3594512939453 C 351.88861083984375 199.0510711669922 354.0200500488281 193.47581481933594 388.3855285644531 202.16001892089844 C 374.9620666503906 196.1536865234375 347.1047058105469 198.22938537597656 271.57476806640625 195.68685913085938 C 240.95428466796875 190.00897216796875 369.23919677734375 191.4426727294922 394.46514892578125 197.4733428955078 C 351.2698669433594 199.23167419433594 338.4486083984375 197.29554748535156 357.2889404296875 196.3594512939453" stroke-width="0.0" fill="rgb(255, 208, 166)" opacity="0.55808794" stroke="rgb(137, 182, 253)" stroke-opacity="0.012104128" stroke-linecap="round" stroke-linejoin="round"/>
    <path d="M 221.68319702148438 227.2036590576172 C 225.38497924804688 245.44236755371094 211.45901489257812 230.71502685546875 211.7025604248047 236.72950744628906 C 210.0543975830078 236.14846801757812 200.650146484375 232.52073669433594 210.73318481445312 228.53475952148438 C 198.8390655517578 222.0376739501953 202.11471557617188 219.23355102539062 212.5359649658203 217.00582885742188 C 222.3834228515625 219.65362548828125 220.7063751220703 219.98155212402344 221.68319702148438 227.2036590576172" stroke-width="0.0" fill="rgb(45, 19, 8)" opacity="0.6398672" stroke="rgb(56, 187, 5)" stroke-opacity="0.17182003" stroke-linecap="round" stroke-linejoin="round"/>
  </g>
</svg>
