<?xml version="1.0" ?>
<svg xmlns="http://www.w3.org/2000/svg" version="1.1" width="512" height="347">
  <defs/>
  <g>
    <path d="M 516.695556640625 -2.339111566543579 C 514.2305297851562 97.94046783447266 509.66351318359375 98.17636108398438 518.5047607421875 119.47984313964844 C 403.203125 134.54763793945312 399.175537109375 134.71852111816406 366.07733154296875 141.8558807373047 C 346.2892150878906 17.4746036529541 347.9430236816406 6.694411754608154 348.53961181640625 -5.526928901672363 C 485.30645751953125 -7.584625244140625 488.1407165527344 -5.795831203460693 516.695556640625 -2.339111566543579" stroke-width="0.0" fill="rgb(68, 147, 250)" opacity="0.52891934" stroke="rgb(61, 217, 183)" stroke-opacity="0.043306053" stroke-linecap="round" stroke-linejoin="round"/>
    <path d="M 158.57699584960938 65.94668579101562 C 188.0878448486328 132.0059814453125 67.44438171386719 120.20101928710938 41.02288818359375 75.48303985595703 C 67.91963195800781 51.379520416259766 37.26417541503906 66.35491943359375 7.229426860809326 16.08378028869629 C 1.0915600061416626 -21.306589126586914 7.146667957305908 -13.070355415344238 24.854755401611328 -1.498084306716919 C 93.4013900756836 22.255817413330078 77.82401275634766 57.09663391113281 158.57699584960938 65.94668579101562" stroke-width="0.0" fill="rgb(255, 187, 110)" opacity="0.8855118" stroke="rgb(113, 111, 84)" stroke-opacity="0.34017462" stroke-linecap="round" stroke-linejoin="round"/>
    <path d="M -3.113783597946167 27.22397232055664 C 99.57057189941406 92.35539245605469 117.37086486816406 153.80271911621094 25.06696891784668 165.0050506591797 C -14.295392036437988 96.58261108398438 -16.095256805419922 86.6651382446289 -10.680102348327637 65.9178237915039 C -15.0482177734375 14.877365112304688 -30.934078216552734 -4.030538558959961 -2.4929773807525635 -5.315858364105225 C 48.796485900878906 26.233766555786133 21.024404525756836 10.049796104431152 -3.113783597946167 27.22397232055664" stroke-width="0.0" fill="rgb(246, 187, 129)" opacity="0.9385838" stroke="rgb(107, 216, 1)" stroke-opacity="0.57123506" stroke-linecap="round" stroke-linejoin="round"/>
    <path d="M 361.6945495605469 110.61934661865234 C 382.9651184082031 99.54300689697266 377.98785400390625 100.13629150390625 255.90756225585938 83.02815246582031 C 142.1631622314453 91.5496826171875 130.16189575195312 143.19114685058594 154.16929626464844 -25.698583602905273 C 314.0385437011719 -16.453821182250977 321.8660888671875 -12.22749137878418 348.3224792480469 -11.321930885314941 C 349.0815124511719 -9.554574966430664 342.6263122558594 -3.442333698272705 361.6945495605469 110.61934661865234" stroke-width="0.0" fill="rgb(194, 199, 251)" opacity="0.40973786" stroke="rgb(175, 133, 103)" stroke-opacity="0.5133926" stroke-linecap="round" stroke-linejoin="round"/>
    <path d="M 66.51300048828125 351.8372497558594 C 55.631404876708984 367.7603454589844 42.106632232666016 359.99188232421875 30.931732177734375 357.65191650390625 C -6.981457710266113 358.0845947265625 -10.127745628356934 358.5036315917969 -12.407624244689941 307.9797058105469 C -17.868133544921875 313.477783203125 -26.48627471923828 270.5774230957031 191.9552459716797 269.3999328613281 C 188.56822204589844 415.60968017578125 129.5731658935547 368.4700622558594 66.51300048828125 351.8372497558594" stroke-width="0.0" fill="rgb(106, 79, 64)" opacity="0.75782174" stroke="rgb(81, 231, 53)" stroke-opacity="0.71570295" stroke-linecap="round" stroke-linejoin="round"/>
    <path d="M 341.0597229003906 79.66366577148438 C 392.09844970703125 100.74834442138672 384.33331298828125 58.5892448425293 424.53375244140625 183.144775390625 C 252.67054748535156 157.4681854248047 304.0417175292969 148.13246154785156 249.24400329589844 110.27609252929688 C 272.6961669921875 10.791418075561523 317.09307861328125 26.393287658691406 314.7647705078125 23.20151138305664 C 354.9593505859375 23.79913902282715 336.5948791503906 24.27656364440918 341.0597229003906 79.66366577148438" stroke-width="0.0" fill="rgb(102, 67, 49)" opacity="0.9389571" stroke="rgb(209, 250, 61)" stroke-opacity="0.6594973" stroke-linecap="round" stroke-linejoin="round"/>
    <path d="M 523.908447265625 207.64247131347656 C 529.9619750976562 236.7680206298828 550.8653564453125 268.75836181640625 477.1239013671875 280.7970886230469 C 430.5006103515625 187.47682189941406 422.9867248535156 182.90028381347656 401.14208984375 109.77645111083984 C 424.80816650390625 107.01594543457031 427.8743896484375 108.3055648803711 506.2897033691406 112.59879302978516 C 526.3313598632812 145.4191131591797 524.6212158203125 150.8158416748047 523.908447265625 207.64247131347656" stroke-width="0.0" fill="rgb(182, 204, 224)" opacity="0.29873472" stroke="rgb(234, 231, 120)" stroke-opacity="0.16838099" stroke-linecap="round" stroke-linejoin="round"/>
  </g>
</svg>
