<?xml version="1.0" ?>
<svg xmlns="http://www.w3.org/2000/svg" version="1.1" width="512" height="352">
  <defs/>
  <g>
    <path d="M -10.0 -10.0 C -9.0 -10.0 512.0 0.0 513.0 0.0 C 514.0 0.0 512.0 352.0 513.0 352.0 C 513.0 353.0 0.0 352.0 0.0 353.0 C 0.0 352.0 0.0 353.0 -10.0 -10.0 L -10.0 -10.0" stroke-width="2.0" fill="rgb(186, 192, 185)" opacity="0.9787326"/>
    <path d="M 311.30645751953125 -125.18708801269531 C 308.3619384765625 129.76824951171875 469.6415710449219 154.93809509277344 458.652099609375 156.8441162109375 C 360.9709167480469 -12.12338638305664 311.3707580566406 -88.98018646240234 501.1162109375 -45.296722412109375 C 598.0867309570312 347.77099609375 511.5101623535156 575.9805297851562 150.49285888671875 309.2815856933594 C 536.5367431640625 262.58349609375 423.5954895019531 342.61651611328125 485.30267333984375 221.07086181640625 L 311.30645751953125 -125.18708801269531" stroke-width="2.0" fill="rgb(221, 251, 254)" opacity="0.3780218"/>
    <path d="M 341.9800720214844 29.637357711791992 C 342.04833984375 29.89997100830078 342.6522521972656 30.21645736694336 343.060791015625 30.68134880065918 C 344.40045166015625 31.746366500854492 342.61358642578125 30.404939651489258 344.66192626953125 31.86688995361328 C 343.7337341308594 31.319847106933594 342.177978515625 30.010517120361328 341.9463195800781 29.606319427490234 C 342.3248291015625 29.78120231628418 341.8312072753906 30.40538787841797 342.0958251953125 28.509967803955078 L 341.9800720214844 29.637357711791992" stroke-width="2.0" fill="rgb(254, 115, 62)" opacity="0.17879428"/>
    <path d="M 202.09971618652344 250.3889617919922 C 181.80467224121094 282.7132873535156 182.52081298828125 213.30517578125 176.31837463378906 206.75364685058594 C 181.8666229248047 215.66790771484375 179.97718811035156 225.0317840576172 183.9971923828125 230.60926818847656 C 174.10726928710938 190.829345703125 187.19754028320312 277.8582458496094 192.47390747070312 253.5473175048828 C 154.26805114746094 152.8323211669922 171.78990173339844 117.72595977783203 265.55255126953125 154.717041015625 L 202.09971618652344 250.3889617919922" stroke-width="2.0" fill="rgb(5, 52, 17)" opacity="0.4711987"/>
  </g>
</svg>
