<?xml version="1.0" ?>
<svg xmlns="http://www.w3.org/2000/svg" version="1.1" width="512" height="341">
  <defs/>
  <g>
    <path d="M 314.1446228027344 19.914493560791016 C 307.5075378417969 84.41117095947266 303.19171142578125 85.0305404663086 272.1761779785156 99.19351196289062 C 213.8113250732422 93.97233581542969 216.29696655273438 84.02011108398438 204.93885803222656 83.10248565673828 C 192.1451873779297 5.090137958526611 186.14010620117188 -3.1942052841186523 195.69395446777344 -5.128878593444824 C 295.55743408203125 -10.10922908782959 301.9552001953125 -6.079240798950195 314.1446228027344 19.914493560791016" stroke-width="0.0" fill="rgb(184, 234, 217)" opacity="0.4959567" stroke="rgb(252, 218, 78)" stroke-opacity="0.06927374" stroke-linecap="round" stroke-linejoin="round"/>
    <path d="M 283.2608337402344 143.3771514892578 C 289.6813049316406 250.36666870117188 281.48089599609375 150.5323028564453 285.1441345214844 191.87167358398438 C 80.28498077392578 192.2995147705078 66.18974304199219 192.02206420898438 -10.733154296875 192.12783813476562 C -37.909690856933594 81.80355834960938 -21.55607032775879 96.53398895263672 130.4751434326172 150.6974639892578 C 124.09809112548828 147.64254760742188 143.56825256347656 141.9241943359375 283.2608337402344 143.3771514892578" stroke-width="0.0" fill="rgb(6, 36, 29)" opacity="0.61021525" stroke="rgb(215, 83, 30)" stroke-opacity="0.17342508" stroke-linecap="round" stroke-linejoin="round"/>
    <path d="M 213.55340576171875 279.1844177246094 C 269.5648193359375 206.77719116210938 309.99462890625 343.87945556640625 268.6608581542969 362.2796936035156 C 60.15756607055664 362.0348815917969 2.7995445728302 418.35064697265625 18.265737533569336 244.8526153564453 C 133.40750122070312 260.3780212402344 173.85519409179688 248.78872680664062 225.9790496826172 257.83184814453125 C 177.54647827148438 334.8487548828125 197.04299926757812 297.98297119140625 213.55340576171875 279.1844177246094" stroke-width="0.0" fill="rgb(78, 126, 157)" opacity="0.80083686" stroke="rgb(197, 208, 69)" stroke-opacity="0.4777554" stroke-linecap="round" stroke-linejoin="round"/>
    <path d="M 205.4619140625 129.3453369140625 C 179.46450805664062 112.91041564941406 171.12799072265625 101.81212615966797 100.60570526123047 107.42989349365234 C 78.9363021850586 93.26927185058594 75.19755554199219 87.69766998291016 -6.26007080078125 97.66938018798828 C -21.39632797241211 -37.256561279296875 -1.8337432146072388 -20.888141632080078 82.0847396850586 -8.670891761779785 C 191.8724365234375 -18.609766006469727 202.78416442871094 -36.20158767700195 205.4619140625 129.3453369140625" stroke-width="0.0" fill="rgb(192, 242, 224)" opacity="0.37569225" stroke="rgb(18, 10, 105)" stroke-opacity="0.9591791" stroke-linecap="round" stroke-linejoin="round"/>
    <path d="M 495.98321533203125 73.6211929321289 C 446.7090759277344 -37.35322189331055 474.798583984375 26.921932220458984 384.1803894042969 45.69242858886719 C 339.6507263183594 87.99787902832031 497.54388427734375 270.3083190917969 281.5517272949219 209.53729248046875 C 295.63763427734375 -41.69669723510742 404.8209228515625 84.39422607421875 426.08453369140625 -3.4373202323913574 C 517.5977172851562 -16.325000762939453 556.1234741210938 -3.932981014251709 495.98321533203125 73.6211929321289" stroke-width="0.0" fill="rgb(255, 141, 108)" opacity="0.5871456" stroke="rgb(194, 137, 56)" stroke-opacity="0.61115587" stroke-linecap="round" stroke-linejoin="round"/>
    <path d="M 448.6935729980469 284.4987487792969 C 425.3246154785156 324.1537170410156 429.77606201171875 283.8663635253906 388.52593994140625 315.45819091796875 C 269.328369140625 316.5350036621094 229.72955322265625 306.0862731933594 261.5597839355469 267.1826171875 C 295.2462158203125 269.0502014160156 314.9996643066406 267.8294677734375 335.8004150390625 272.0526428222656 C 411.3900451660156 298.25469970703125 450.6293029785156 231.22409057617188 448.6935729980469 284.4987487792969" stroke-width="0.0" fill="rgb(0, 13, 0)" opacity="0.49072137" stroke="rgb(186, 47, 110)" stroke-opacity="0.49028203" stroke-linecap="round" stroke-linejoin="round"/>
    <path d="M 521.5067749023438 135.646240234375 C 533.215087890625 208.0194549560547 529.7445068359375 188.63113403320312 451.36810302734375 192.6519317626953 C 461.5046691894531 316.4795227050781 274.35546875 358.4425354003906 249.69473266601562 202.81719970703125 C 466.662109375 193.05743408203125 373.1192321777344 6.692566871643066 420.1060485839844 106.98831176757812 C 512.2406005859375 163.1535186767578 486.6638488769531 122.85802459716797 521.5067749023438 135.646240234375" stroke-width="0.0" fill="rgb(39, 33, 0)" opacity="0.42172047" stroke="rgb(199, 139, 20)" stroke-opacity="0.4755782" stroke-linecap="round" stroke-linejoin="round"/>
    <path d="M 444.69854736328125 215.30369567871094 C 450.5198059082031 239.18429565429688 418.8668518066406 241.05670166015625 416.15582275390625 250.45663452148438 C 326.4271545410156 249.0025177001953 360.781005859375 262.5608215332031 339.26812744140625 219.308837890625 C 373.53131103515625 223.8729248046875 367.46270751953125 221.38243103027344 391.0414733886719 200.4622802734375 C 463.4482727050781 201.7821807861328 430.55072021484375 194.72645568847656 444.69854736328125 215.30369567871094" stroke-width="0.0" fill="rgb(25, 40, 59)" opacity="0.90873766" stroke="rgb(57, 212, 226)" stroke-opacity="0.49755132" stroke-linecap="round" stroke-linejoin="round"/>
    <path d="M 350.6706237792969 118.2504653930664 C 358.76556396484375 169.90147399902344 377.3395080566406 184.1703643798828 342.836181640625 181.63131713867188 C 291.0036926269531 151.54635620117188 339.439208984375 142.3185577392578 280.01220703125 143.7255401611328 C 283.57489013671875 140.4789581298828 276.4541320800781 109.71064758300781 303.013916015625 96.3047866821289 C 349.7954406738281 70.88577270507812 308.9844055175781 95.98963165283203 350.6706237792969 118.2504653930664" stroke-width="0.0" fill="rgb(255, 246, 208)" opacity="0.9376189" stroke="rgb(102, 195, 153)" stroke-opacity="0.461426" stroke-linecap="round" stroke-linejoin="round"/>
    <path d="M 233.24537658691406 235.54148864746094 C 314.5693054199219 236.90585327148438 300.0877990722656 227.4136199951172 217.57215881347656 307.89239501953125 C 229.19235229492188 240.39927673339844 168.31248474121094 287.4679870605469 209.41246032714844 233.76181030273438 C 200.95809936523438 180.63467407226562 182.5447235107422 192.9876251220703 224.76512145996094 192.1338653564453 C 231.00198364257812 232.93658447265625 248.70875549316406 144.52706909179688 233.24537658691406 235.54148864746094" stroke-width="0.0" fill="rgb(68, 112, 77)" opacity="0.7519225" stroke="rgb(207, 118, 14)" stroke-opacity="0.1252067" stroke-linecap="round" stroke-linejoin="round"/>
    <path d="M 124.68106079101562 49.49250793457031 C 158.91807556152344 70.62517547607422 133.2603759765625 104.23535919189453 118.35653686523438 101.57514190673828 C 103.13443756103516 75.2179183959961 62.175376892089844 94.40035247802734 94.6974105834961 52.024009704589844 C 113.70824432373047 47.53605651855469 56.53081130981445 50.416194915771484 53.970314025878906 47.254058837890625 C 203.71017456054688 43.800899505615234 178.3641815185547 50.43156051635742 124.68106079101562 49.49250793457031" stroke-width="0.0" fill="rgb(254, 244, 205)" opacity="0.9698788" stroke="rgb(16, 130, 201)" stroke-opacity="0.046501737" stroke-linecap="round" stroke-linejoin="round"/>
    <path d="M 379.56341552734375 210.35830688476562 C 378.7436218261719 103.29549407958984 384.6625671386719 187.97561645507812 363.17919921875 188.2694549560547 C 284.4075622558594 190.9315185546875 321.81658935546875 187.4128875732422 328.0618896484375 138.38600158691406 C 352.3959045410156 101.44703674316406 360.8478088378906 72.0988540649414 371.5926208496094 97.58692169189453 C 393.2260437011719 74.81253814697266 413.8780822753906 163.43865966796875 379.56341552734375 210.35830688476562" stroke-width="0.0" fill="rgb(255, 212, 182)" opacity="0.6216943" stroke="rgb(9, 147, 175)" stroke-opacity="0.21762268" stroke-linecap="round" stroke-linejoin="round"/>
    <path d="M 173.50462341308594 237.13343811035156 C 189.6925506591797 272.73858642578125 235.70558166503906 267.4140319824219 187.9901885986328 267.70574951171875 C 53.86811828613281 264.5111999511719 34.65335464477539 255.54995727539062 43.83027267456055 249.14157104492188 C 58.1609992980957 242.82481384277344 91.98696899414062 242.588134765625 120.58509063720703 239.41690063476562 C 122.0464859008789 240.5086212158203 136.6480255126953 237.59666442871094 173.50462341308594 237.13343811035156" stroke-width="0.0" fill="rgb(50, 90, 0)" opacity="0.5037454" stroke="rgb(210, 139, 233)" stroke-opacity="0.50802785" stroke-linecap="round" stroke-linejoin="round"/>
    <path d="M 360.6698913574219 229.72361755371094 C 331.8551940917969 256.5895080566406 325.5451965332031 224.9696044921875 308.2026672363281 248.16639709472656 C 299.96435546875 250.5995330810547 244.28329467773438 244.32228088378906 252.2793731689453 214.84593200683594 C 241.72486877441406 227.219970703125 328.8043212890625 239.57879638671875 277.0257263183594 203.61383056640625 C 305.69512939453125 188.97689819335938 358.72027587890625 223.6286163330078 360.6698913574219 229.72361755371094" stroke-width="0.0" fill="rgb(10, 22, 39)" opacity="0.8386192" stroke="rgb(64, 132, 90)" stroke-opacity="0.29623502" stroke-linecap="round" stroke-linejoin="round"/>
    <path d="M 429.4615478515625 69.509765625 C 432.4483337402344 67.5314712524414 418.80047607421875 74.91015625 414.6990051269531 166.7786102294922 C 378.0399475097656 134.6168670654297 413.01019287109375 103.54729461669922 414.89434814453125 80.81918334960938 C 418.5992736816406 71.16487121582031 427.5879821777344 42.21678161621094 458.9599609375 24.113204956054688 C 480.9272155761719 12.99380111694336 447.1729736328125 25.449127197265625 429.4615478515625 69.509765625" stroke-width="0.0" fill="rgb(56, 102, 68)" opacity="0.84426945" stroke="rgb(40, 223, 230)" stroke-opacity="0.61569834" stroke-linecap="round" stroke-linejoin="round"/>
  </g>
</svg>
