<?xml version="1.0" ?>
<svg xmlns="http://www.w3.org/2000/svg" version="1.1" width="512" height="341">
  <defs/>
  <g>
    <path d="M 314.2259826660156 20.531246185302734 C 307.9632873535156 85.26814270019531 304.1156311035156 85.93164825439453 276.1425476074219 98.50113677978516 C 214.63963317871094 90.81831359863281 214.06541442871094 85.43559265136719 210.88983154296875 76.97420501708984 C 202.2542266845703 5.189462184906006 202.5162353515625 -1.276533842086792 217.7713623046875 -4.829493522644043 C 295.55743408203125 -10.10922908782959 301.9552001953125 -6.079240798950195 314.2259826660156 20.531246185302734" stroke-width="0.0" fill="rgb(195, 252, 236)" opacity="0.5475437" stroke="rgb(252, 218, 78)" stroke-opacity="0.06927374" stroke-linecap="round" stroke-linejoin="round"/>
    <path d="M 282.006591796875 143.4241180419922 C 296.8196105957031 238.583984375 246.96205139160156 159.0806121826172 272.6214294433594 191.8773956298828 C 80.23825073242188 192.01507568359375 66.20540618896484 192.01986694335938 -9.967180252075195 191.89955139160156 C -28.066478729248047 76.53631591796875 -6.56469202041626 105.66031646728516 128.19110107421875 151.0839080810547 C 127.28343200683594 147.7107391357422 143.56405639648438 143.0299072265625 282.006591796875 143.4241180419922" stroke-width="0.0" fill="rgb(32, 69, 62)" opacity="0.7462463" stroke="rgb(215, 83, 30)" stroke-opacity="0.17342508" stroke-linecap="round" stroke-linejoin="round"/>
    <path d="M 216.21002197265625 314.552734375 C 275.9921569824219 270.9993591308594 316.9422302246094 350.9574890136719 255.42803955078125 349.85205078125 C 70.28202056884766 360.33087158203125 17.25165557861328 409.904541015625 29.153303146362305 256.314208984375 C 137.69386291503906 268.55877685546875 162.92269897460938 267.02313232421875 211.6142120361328 267.8542175292969 C 179.52134704589844 327.3830261230469 202.48837280273438 307.873046875 216.21002197265625 314.552734375" stroke-width="0.0" fill="rgb(65, 133, 236)" opacity="0.28733814" stroke="rgb(197, 208, 69)" stroke-opacity="0.4777554" stroke-linecap="round" stroke-linejoin="round"/>
  </g>
</svg>
