<?xml version="1.0" ?>
<svg xmlns="http://www.w3.org/2000/svg" version="1.1" width="512" height="512">
  <defs/>
  <g>
    <path d="M 253.36749267578125 131.04747009277344 C 260.865234375 292.0636901855469 257.6604919433594 259.1368103027344 204.8773956298828 272.8453369140625 C 205.26795959472656 311.4143981933594 151.1423797607422 307.0876159667969 91.63017272949219 319.1991271972656 C 94.96815490722656 176.31324768066406 92.4858169555664 176.9115447998047 75.82554626464844 138.1212158203125 C 215.95094299316406 136.64222717285156 216.4068603515625 138.1282196044922 253.36749267578125 131.04747009277344" stroke-width="0.0" fill="rgb(12, 115, 185)" opacity="0.6688241" stroke="rgb(240, 61, 103)" stroke-opacity="0.28073123" stroke-linecap="round" stroke-linejoin="round"/>
    <path d="M 523.4691162109375 147.36932373046875 C 525.33447265625 191.7964324951172 530.4547729492188 204.59201049804688 494.2033996582031 210.0641326904297 C 466.8855285644531 212.16390991210938 473.8210754394531 208.28271484375 473.2330017089844 139.58596801757812 C 474.26123046875 130.8441619873047 475.82000732421875 133.7298126220703 516.5994262695312 110.97953033447266 C 528.2813110351562 112.45346069335938 522.6407470703125 124.28033447265625 523.4691162109375 147.36932373046875" stroke-width="0.0" fill="rgb(255, 243, 214)" opacity="0.91586107" stroke="rgb(153, 118, 25)" stroke-opacity="0.6141167" stroke-linecap="round" stroke-linejoin="round"/>
    <path d="M 522.7290649414062 218.74078369140625 C 524.9737548828125 268.02667236328125 548.959716796875 292.091064453125 496.6257019042969 324.33538818359375 C 434.26910400390625 378.03753662109375 439.6996154785156 364.32861328125 359.6827087402344 238.05853271484375 C 482.4000549316406 249.95565795898438 416.00927734375 115.45025634765625 451.002685546875 206.74142456054688 C 502.4989318847656 162.4944305419922 523.8363647460938 195.4743194580078 522.7290649414062 218.74078369140625" stroke-width="0.0" fill="rgb(255, 228, 188)" opacity="0.77653325" stroke="rgb(205, 217, 81)" stroke-opacity="0.35673487" stroke-linecap="round" stroke-linejoin="round"/>
    <path d="M 510.9498596191406 27.162919998168945 C 505.3833312988281 46.13520050048828 507.3304443359375 49.72434616088867 512.7047119140625 74.14822387695312 C 486.4441833496094 78.67369842529297 444.7388610839844 77.71992492675781 224.72708129882812 77.80680084228516 C 236.38221740722656 -138.9767303466797 290.8624267578125 -35.101356506347656 454.957763671875 -12.029805183410645 C 525.1270141601562 -8.52092170715332 519.4163818359375 -0.34367474913597107 510.9498596191406 27.162919998168945" stroke-width="0.0" fill="rgb(255, 240, 211)" opacity="0.9295162" stroke="rgb(27, 35, 163)" stroke-opacity="0.6099037" stroke-linecap="round" stroke-linejoin="round"/>
    <path d="M 512.2137451171875 69.91009521484375 C 527.7210693359375 79.35704803466797 514.1189575195312 76.41495513916016 479.5198974609375 77.12444305419922 C 471.2072448730469 79.13874053955078 450.9488525390625 77.72735595703125 423.4242858886719 78.27359008789062 C 423.1080322265625 27.200481414794922 439.1307678222656 31.375934600830078 480.122314453125 33.761898040771484 C 506.26678466796875 38.52373504638672 508.44158935546875 41.14724349975586 512.2137451171875 69.91009521484375" stroke-width="0.0" fill="rgb(241, 230, 208)" opacity="0.5479347" stroke="rgb(203, 35, 81)" stroke-opacity="0.58781767" stroke-linecap="round" stroke-linejoin="round"/>
    <path d="M 520.1055297851562 60.639976501464844 C 523.2354736328125 75.69524383544922 519.0519409179688 71.19827270507812 515.544677734375 78.30705261230469 C 470.53558349609375 77.45482635498047 460.9421081542969 81.93730926513672 481.5025329589844 63.68499755859375 C 493.0133056640625 57.62337112426758 493.50750732421875 50.9137077331543 509.3883972167969 43.054222106933594 C 518.107177734375 48.438663482666016 518.4415893554688 52.230247497558594 520.1055297851562 60.639976501464844" stroke-width="0.0" fill="rgb(255, 240, 211)" opacity="0.5943387" stroke="rgb(58, 147, 238)" stroke-opacity="0.9026159" stroke-linecap="round" stroke-linejoin="round"/>
    <path d="M 521.2474365234375 46.52877426147461 C 521.5025634765625 51.13593673706055 520.3519287109375 53.3546028137207 511.7727355957031 63.86659240722656 C 490.14337158203125 60.59579849243164 487.7269287109375 59.288963317871094 486.9027099609375 42.30703353881836 C 500.3741760253906 29.08835220336914 491.933349609375 24.58551597595215 510.8739929199219 4.901519775390625 C 535.4177856445312 10.853793144226074 529.290283203125 19.645627975463867 521.2474365234375 46.52877426147461" stroke-width="0.0" fill="rgb(255, 234, 204)" opacity="0.8339141" stroke="rgb(220, 247, 38)" stroke-opacity="0.06091623" stroke-linecap="round" stroke-linejoin="round"/>
    <path d="M 408.22332763671875 169.67733764648438 C 361.3368225097656 169.6620635986328 416.0704650878906 256.9146728515625 353.14178466796875 231.40261840820312 C 335.2332763671875 212.13705444335938 365.63568115234375 142.02072143554688 369.139404296875 157.59681701660156 C 371.1631774902344 79.7851333618164 366.648193359375 141.4490203857422 385.5299072265625 99.70340728759766 C 438.6272277832031 72.75203704833984 371.7624206542969 120.15414428710938 408.22332763671875 169.67733764648438" stroke-width="0.0" fill="rgb(255, 208, 174)" opacity="0.8816146" stroke="rgb(32, 27, 2)" stroke-opacity="0.923266" stroke-linecap="round" stroke-linejoin="round"/>
    <path d="M 351.787109375 384.5039367675781 C 350.23822021484375 445.1880187988281 313.055908203125 426.03985595703125 244.23800659179688 498.3672180175781 C 207.66819763183594 532.43212890625 199.9709014892578 421.6365661621094 259.6228332519531 446.8382263183594 C 262.67431640625 378.90838623046875 244.5240936279297 372.5538024902344 291.3639221191406 406.85302734375 C 300.4847717285156 476.2590637207031 365.685791015625 315.2633056640625 351.787109375 384.5039367675781" stroke-width="0.0" fill="rgb(255, 240, 209)" opacity="0.88712925" stroke="rgb(168, 205, 64)" stroke-opacity="0.2694765" stroke-linecap="round" stroke-linejoin="round"/>
    <path d="M 244.06919860839844 31.45456886291504 C 247.35781860351562 78.30062103271484 252.7482147216797 78.32208251953125 203.55679321289062 77.71861267089844 C 149.43067932128906 65.53819274902344 134.45773315429688 63.867393493652344 140.16232299804688 62.25636291503906 C 142.2046661376953 -18.72828483581543 149.2577362060547 -15.87634563446045 209.9981231689453 -12.059904098510742 C 250.60169982910156 -7.338350772857666 248.88247680664062 -0.24978208541870117 244.06919860839844 31.45456886291504" stroke-width="0.0" fill="rgb(248, 233, 206)" opacity="0.969402" stroke="rgb(120, 214, 195)" stroke-opacity="0.8088991" stroke-linecap="round" stroke-linejoin="round"/>
    <path d="M 291.54180908203125 406.3154296875 C 252.120849609375 418.5092468261719 241.18690490722656 355.66302490234375 244.1497802734375 452.96923828125 C 202.91314697265625 455.69671630859375 194.04641723632812 439.1818542480469 205.35415649414062 394.9065856933594 C 212.9275360107422 370.79986572265625 232.1834259033203 360.5473327636719 245.1622772216797 362.2151794433594 C 243.09616088867188 361.3779602050781 280.7767639160156 360.4374084472656 291.54180908203125 406.3154296875" stroke-width="0.0" fill="rgb(255, 222, 190)" opacity="0.9072101" stroke="rgb(34, 21, 62)" stroke-opacity="0.049323563" stroke-linecap="round" stroke-linejoin="round"/>
    <path d="M 231.40992736816406 429.2904968261719 C 255.62425231933594 521.1817016601562 256.7084655761719 532.998046875 18.996444702148438 518.5216674804688 C -25.150264739990234 529.7992553710938 46.178550720214844 495.265625 115.3106918334961 458.35052490234375 C 109.89204406738281 305.0926818847656 130.65823364257812 304.903564453125 149.7569580078125 351.8881530761719 C 133.51101684570312 428.815673828125 168.19857788085938 386.16558837890625 231.40992736816406 429.2904968261719" stroke-width="0.0" fill="rgb(255, 224, 193)" opacity="0.9176009" stroke="rgb(190, 85, 210)" stroke-opacity="0.65856427" stroke-linecap="round" stroke-linejoin="round"/>
    <path d="M 451.96630859375 303.1653137207031 C 292.4543151855469 217.82948303222656 377.9523620605469 260.0686950683594 240.53125 282.0538635253906 C 218.9325408935547 266.6883544921875 279.23980712890625 252.24661254882812 286.919189453125 257.493896484375 C 285.8111877441406 221.66334533691406 289.2311096191406 216.25685119628906 305.2221984863281 200.75294494628906 C 340.31378173828125 196.4656524658203 413.163818359375 216.57164001464844 451.96630859375 303.1653137207031" stroke-width="0.0" fill="rgb(254, 225, 193)" opacity="0.9015118" stroke="rgb(169, 95, 23)" stroke-opacity="0.5008826" stroke-linecap="round" stroke-linejoin="round"/>
    <path d="M 163.66090393066406 10.604494094848633 C 168.65618896484375 79.9141616821289 176.31837463378906 69.99310302734375 81.61319732666016 51.83029556274414 C 21.95296859741211 57.62129592895508 -31.26624870300293 25.709474563598633 -16.971580505371094 8.340499877929688 C 63.853023529052734 -33.380828857421875 76.3719253540039 -12.363174438476562 100.87683868408203 -10.203285217285156 C 123.66333770751953 -12.026895523071289 136.65682983398438 -24.65899658203125 163.66090393066406 10.604494094848633" stroke-width="0.0" fill="rgb(255, 236, 207)" opacity="0.9013161" stroke="rgb(11, 73, 188)" stroke-opacity="0.8664181" stroke-linecap="round" stroke-linejoin="round"/>
    <path d="M 271.0220947265625 337.1490173339844 C 295.6788330078125 244.27838134765625 341.4257507324219 331.7628479003906 290.0561828613281 358.2062072753906 C 159.07240295410156 295.5587158203125 277.66278076171875 354.3575744628906 144.6750946044922 388.45355224609375 C 218.33016967773438 240.69970703125 206.6139678955078 278.9561767578125 246.36207580566406 262.9471435546875 C 260.13677978515625 306.7806701660156 269.89617919921875 269.4093017578125 271.0220947265625 337.1490173339844" stroke-width="0.0" fill="rgb(255, 218, 181)" opacity="0.7191897" stroke="rgb(71, 10, 132)" stroke-opacity="0.93264365" stroke-linecap="round" stroke-linejoin="round"/>
    <path d="M 457.6842956542969 496.1208801269531 C 457.24859619140625 507.3537292480469 454.5785827636719 508.0789794921875 414.04840087890625 522.7867431640625 C 398.8949279785156 523.8150634765625 394.1454162597656 523.8934936523438 385.30255126953125 512.7556762695312 C 398.02337646484375 465.12457275390625 414.447265625 470.2972106933594 431.30194091796875 469.30010986328125 C 448.1558837890625 470.29876708984375 448.9781799316406 473.0625305175781 457.6842956542969 496.1208801269531" stroke-width="0.0" fill="rgb(19, 61, 96)" opacity="1.0" stroke="rgb(223, 173, 53)" stroke-opacity="0.7780503" stroke-linecap="round" stroke-linejoin="round"/>
    <path d="M 501.2955017089844 417.82513427734375 C 499.238037109375 441.5262145996094 497.65179443359375 443.2330627441406 471.72216796875 449.89483642578125 C 467.3572082519531 450.7237548828125 460.6886901855469 450.91522216796875 444.30853271484375 407.2349853515625 C 449.0060119628906 397.59429931640625 453.78533935546875 400.8181457519531 460.4571838378906 406.33349609375 C 504.6825866699219 409.88507080078125 504.86492919921875 412.0218811035156 501.2955017089844 417.82513427734375" stroke-width="0.0" fill="rgb(127, 125, 107)" opacity="0.74589366" stroke="rgb(225, 177, 14)" stroke-opacity="0.7554264" stroke-linecap="round" stroke-linejoin="round"/>
    <path d="M 523.05029296875 455.70098876953125 C 522.8851928710938 475.5031433105469 522.850341796875 479.0920715332031 516.44091796875 483.75 C 466.6159362792969 478.4519348144531 470.1124267578125 467.7127380371094 470.5352478027344 456.9657287597656 C 471.2479248046875 427.7999572753906 474.53631591796875 428.5850524902344 502.38238525390625 427.2887878417969 C 502.3821716308594 431.3665771484375 508.27874755859375 428.3565979003906 523.05029296875 455.70098876953125" stroke-width="0.0" fill="rgb(31, 67, 96)" opacity="1.0" stroke="rgb(190, 24, 254)" stroke-opacity="0.98015815" stroke-linecap="round" stroke-linejoin="round"/>
    <path d="M 442.3680114746094 481.3041687011719 C 441.8894348144531 486.1637878417969 440.019775390625 487.5768737792969 409.16656494140625 502.5680236816406 C 396.8346252441406 504.7053527832031 399.00860595703125 501.6259460449219 406.8603210449219 491.45745849609375 C 410.6410827636719 458.283935546875 412.3321228027344 456.9391174316406 419.654052734375 456.9044189453125 C 436.2870788574219 460.79443359375 438.62445068359375 461.6706848144531 442.3680114746094 481.3041687011719" stroke-width="0.0" fill="rgb(33, 71, 95)" opacity="1.0" stroke="rgb(57, 165, 84)" stroke-opacity="0.11736069" stroke-linecap="round" stroke-linejoin="round"/>
    <path d="M 496.02093505859375 461.10406494140625 C 497.4941101074219 472.2821044921875 495.0715637207031 471.1521911621094 491.8429870605469 466.1167297363281 C 454.0810852050781 464.3216857910156 444.0594177246094 468.7289733886719 430.4012145996094 420.1106872558594 C 428.792236328125 410.3185729980469 432.4052734375 408.5706481933594 447.7744140625 408.89044189453125 C 488.31610107421875 430.09735107421875 489.2491760253906 432.57611083984375 496.02093505859375 461.10406494140625" stroke-width="0.0" fill="rgb(119, 117, 124)" opacity="0.74982476" stroke="rgb(17, 105, 56)" stroke-opacity="0.36657393" stroke-linecap="round" stroke-linejoin="round"/>
    <path d="M 464.6240539550781 454.279052734375 C 452.4341125488281 480.3446350097656 449.96173095703125 481.4053955078125 431.6424865722656 484.67047119140625 C 425.0246276855469 483.443359375 424.4848937988281 480.6986999511719 424.5995178222656 476.04241943359375 C 427.7184143066406 459.60986328125 429.5869140625 457.7237548828125 458.422119140625 437.8671569824219 C 463.9066162109375 439.6725158691406 464.7717590332031 442.38348388671875 464.6240539550781 454.279052734375" stroke-width="0.0" fill="rgb(37, 74, 96)" opacity="1.0" stroke="rgb(94, 10, 150)" stroke-opacity="0.553419" stroke-linecap="round" stroke-linejoin="round"/>
    <path d="M 439.81982421875 160.50457763671875 C 463.32781982421875 201.62045288085938 446.7730407714844 304.06988525390625 419.5660705566406 258.1083068847656 C 429.2745056152344 145.8267822265625 407.95849609375 192.03530883789062 400.9920654296875 154.94137573242188 C 414.77325439453125 172.4634552001953 417.4818115234375 116.50728607177734 399.521240234375 87.03694915771484 C 458.6368408203125 128.556396484375 415.6841125488281 149.95135498046875 439.81982421875 160.50457763671875" stroke-width="0.0" fill="rgb(253, 239, 211)" opacity="0.8791136" stroke="rgb(24, 46, 28)" stroke-opacity="0.06961861" stroke-linecap="round" stroke-linejoin="round"/>
    <path d="M 523.2608642578125 382.2680969238281 C 518.2979736328125 430.0581359863281 512.6782836914062 429.526611328125 492.08331298828125 429.2597351074219 C 463.5542297363281 429.7116394042969 443.8428955078125 442.295166015625 393.3144226074219 378.9494323730469 C 434.6878967285156 333.9554138183594 426.81182861328125 257.3001708984375 511.8055725097656 258.7948303222656 C 578.015625 306.5928649902344 530.7998657226562 346.4748229980469 523.2608642578125 382.2680969238281" stroke-width="0.0" fill="rgb(200, 148, 101)" opacity="1.0" stroke="rgb(182, 94, 18)" stroke-opacity="0.7347715" stroke-linecap="round" stroke-linejoin="round"/>
    <path d="M 476.9737243652344 491.24920654296875 C 476.71820068359375 504.96075439453125 473.54827880859375 505.1299743652344 467.4828796386719 504.2811584472656 C 430.578369140625 500.0564880371094 430.85931396484375 494.8736572265625 429.95111083984375 479.9075622558594 C 431.5953063964844 467.02789306640625 434.4426574707031 466.2281799316406 458.29229736328125 454.4027099609375 C 467.4859619140625 454.7688293457031 469.1695861816406 457.452880859375 476.9737243652344 491.24920654296875" stroke-width="0.0" fill="rgb(40, 73, 106)" opacity="1.0" stroke="rgb(17, 229, 22)" stroke-opacity="0.27957195" stroke-linecap="round" stroke-linejoin="round"/>
    <path d="M 447.5852355957031 423.3731384277344 C 430.8022155761719 470.2911376953125 430.0956115722656 472.1535949707031 421.1288757324219 475.6121826171875 C 404.5549011230469 470.57037353515625 396.51922607421875 473.0293884277344 335.7859802246094 442.3260803222656 C 370.91741943359375 367.45184326171875 323.3412780761719 356.441162109375 410.104736328125 331.35626220703125 C 459.1170654296875 369.0816345214844 451.0382385253906 407.4289855957031 447.5852355957031 423.3731384277344" stroke-width="0.0" fill="rgb(0, 6, 21)" opacity="0.51168865" stroke="rgb(69, 110, 86)" stroke-opacity="0.98344034" stroke-linecap="round" stroke-linejoin="round"/>
    <path d="M 428.0610656738281 470.77911376953125 C 427.373291015625 495.33685302734375 436.1427307128906 515.9539794921875 346.2896728515625 523.984619140625 C 300.4460144042969 535.82275390625 242.30938720703125 589.1281127929688 229.73223876953125 509.5428771972656 C 347.7648010253906 401.42498779296875 396.5152282714844 412.32366943359375 376.5162353515625 378.1905822753906 C 421.72955322265625 457.2499694824219 422.47015380859375 458.53228759765625 428.0610656738281 470.77911376953125" stroke-width="0.0" fill="rgb(19, 47, 69)" opacity="0.74321556" stroke="rgb(236, 36, 94)" stroke-opacity="0.7347448" stroke-linecap="round" stroke-linejoin="round"/>
    <path d="M 478.6260986328125 491.9693908691406 C 476.3287048339844 533.4130249023438 473.13458251953125 531.2020874023438 445.5068664550781 522.9542846679688 C 420.3590393066406 533.3153686523438 416.6230163574219 534.6510620117188 414.87664794921875 511.73968505859375 C 425.2378845214844 489.72357177734375 428.131103515625 488.5372619628906 453.9205017089844 483.7218322753906 C 473.076171875 483.1744384765625 476.3292541503906 482.740478515625 478.6260986328125 491.9693908691406" stroke-width="0.0" fill="rgb(36, 70, 98)" opacity="1.0" stroke="rgb(139, 111, 14)" stroke-opacity="0.9134067" stroke-linecap="round" stroke-linejoin="round"/>
    <path d="M 508.81854248046875 483.2657470703125 C 501.695068359375 491.4439392089844 499.33837890625 493.06939697265625 480.2005920410156 493.75311279296875 C 448.40118408203125 486.2749938964844 447.4400329589844 482.61358642578125 443.69256591796875 463.6781005859375 C 443.7796936035156 438.5991516113281 446.0842590332031 440.98248291015625 457.1694030761719 445.3045654296875 C 494.56744384765625 444.9206237792969 504.47064208984375 438.19769287109375 508.81854248046875 483.2657470703125" stroke-width="0.0" fill="rgb(31, 68, 91)" opacity="1.0" stroke="rgb(146, 192, 222)" stroke-opacity="0.64191914" stroke-linecap="round" stroke-linejoin="round"/>
    <path d="M 523.364990234375 421.6599426269531 C 522.9592895507812 458.4408264160156 521.198486328125 456.9278259277344 516.31298828125 449.2392883300781 C 482.0745849609375 443.1881103515625 480.37646484375 441.26495361328125 477.1839294433594 418.5355224609375 C 474.6488342285156 412.3788146972656 475.27252197265625 409.8789978027344 516.1508178710938 405.3800964355469 C 521.0205688476562 401.8396911621094 523.401123046875 402.83331298828125 523.364990234375 421.6599426269531" stroke-width="0.0" fill="rgb(46, 76, 103)" opacity="1.0" stroke="rgb(123, 178, 165)" stroke-opacity="0.73014885" stroke-linecap="round" stroke-linejoin="round"/>
    <path d="M 459.27178955078125 441.5372619628906 C 440.2433776855469 470.6145935058594 438.6975402832031 472.84527587890625 433.5821533203125 474.2615966796875 C 419.940185546875 473.23114013671875 416.864501953125 472.7682189941406 415.262451171875 463.9111633300781 C 415.35406494140625 442.8694152832031 410.1300354003906 430.3052978515625 447.6221618652344 424.3583984375 C 459.3711853027344 430.4256896972656 460.166015625 433.0683898925781 459.27178955078125 441.5372619628906" stroke-width="0.0" fill="rgb(32, 70, 95)" opacity="1.0" stroke="rgb(56, 127, 60)" stroke-opacity="0.48439273" stroke-linecap="round" stroke-linejoin="round"/>
    <path d="M 523.7960815429688 468.1364440917969 C 522.1132202148438 530.2824096679688 518.2012329101562 526.2844848632812 509.6165466308594 522.6738891601562 C 461.1064453125 524.2005615234375 456.16302490234375 527.6639404296875 455.1676025390625 488.0877990722656 C 456.06585693359375 473.314208984375 457.38092041015625 471.05108642578125 489.68231201171875 465.889892578125 C 521.9686279296875 460.88812255859375 522.9998168945312 463.25872802734375 523.7960815429688 468.1364440917969" stroke-width="0.0" fill="rgb(33, 71, 100)" opacity="1.0" stroke="rgb(218, 41, 78)" stroke-opacity="0.9352812" stroke-linecap="round" stroke-linejoin="round"/>
  </g>
</svg>
