<?xml version="1.0" ?>
<svg xmlns="http://www.w3.org/2000/svg" version="1.1" width="512" height="512">
  <defs/>
  <g>
    <path d="M 253.41978454589844 131.11331176757812 C 261.1643371582031 292.93682861328125 258.1807556152344 259.55694580078125 204.4996337890625 272.96173095703125 C 206.1694793701172 312.3590393066406 152.437744140625 308.49395751953125 91.5115966796875 320.84320068359375 C 94.89738464355469 176.3057098388672 92.46765899658203 176.91123962402344 75.82291412353516 138.1212158203125 C 215.94688415527344 136.63792419433594 216.39283752441406 138.0956573486328 253.41978454589844 131.11331176757812" stroke-width="0.0" fill="rgb(14, 114, 181)" opacity="0.6627713" stroke="rgb(240, 61, 103)" stroke-opacity="0.28073123" stroke-linecap="round" stroke-linejoin="round"/>
    <path d="M 523.4691162109375 147.36932373046875 C 525.33447265625 191.7964324951172 530.4547729492188 204.59201049804688 494.15625 210.0663604736328 C 467.3343200683594 212.20191955566406 473.7572021484375 208.45999145507812 473.2486572265625 139.5653076171875 C 474.25714111328125 130.85760498046875 475.7679443359375 133.7786407470703 516.6336059570312 111.00425720214844 C 528.2813110351562 112.45346069335938 522.6407470703125 124.28033447265625 523.4691162109375 147.36932373046875" stroke-width="0.0" fill="rgb(255, 242, 212)" opacity="0.91986877" stroke="rgb(153, 118, 25)" stroke-opacity="0.6141167" stroke-linecap="round" stroke-linejoin="round"/>
    <path d="M 522.7410278320312 218.97189331054688 C 524.9695434570312 268.0051574707031 548.8687133789062 291.9688415527344 496.77899169921875 324.125244140625 C 434.0224304199219 377.83642578125 438.2868347167969 365.13885498046875 360.13916015625 237.58053588867188 C 484.9527587890625 252.22543334960938 417.55035400390625 117.37004089355469 450.198974609375 206.58778381347656 C 503.0306701660156 163.3624725341797 524.4620361328125 196.44583129882812 522.7410278320312 218.97189331054688" stroke-width="0.0" fill="rgb(255, 225, 186)" opacity="0.8723563" stroke="rgb(205, 217, 81)" stroke-opacity="0.35673487" stroke-linecap="round" stroke-linejoin="round"/>
    <path d="M 510.9498596191406 27.162919998168945 C 505.3841857910156 46.134944915771484 507.34893798828125 49.72212219238281 517.3446044921875 75.86713409423828 C 486.60736083984375 77.97209167480469 444.40179443359375 77.84027099609375 224.68621826171875 77.78291320800781 C 236.38221740722656 -138.9767303466797 290.8624267578125 -35.101356506347656 454.957763671875 -12.029805183410645 C 525.1270141601562 -8.52092170715332 519.4163818359375 -0.34367474913597107 510.9498596191406 27.162919998168945" stroke-width="0.0" fill="rgb(255, 240, 211)" opacity="0.93231803" stroke="rgb(27, 35, 163)" stroke-opacity="0.6099037" stroke-linecap="round" stroke-linejoin="round"/>
    <path d="M 512.2276611328125 70.31103515625 C 527.9137573242188 79.41083526611328 514.2695922851562 76.35281372070312 479.2099304199219 77.16743469238281 C 472.4536437988281 79.15084075927734 451.1505126953125 77.76008605957031 423.41156005859375 78.33419799804688 C 423.1131286621094 27.200918197631836 439.1307678222656 31.375934600830078 480.122314453125 33.761898040771484 C 506.26678466796875 38.52373504638672 508.4416809082031 41.14717102050781 512.2276611328125 70.31103515625" stroke-width="0.0" fill="rgb(240, 228, 207)" opacity="0.42331624" stroke="rgb(203, 35, 81)" stroke-opacity="0.58781767" stroke-linecap="round" stroke-linejoin="round"/>
    <path d="M 520.1055297851562 60.639976501464844 C 523.2354736328125 75.69524383544922 519.0519409179688 71.19827270507812 515.6235961914062 78.29789733886719 C 470.6714782714844 77.50627136230469 461.13726806640625 81.87300872802734 481.51806640625 63.47913360595703 C 493.0133056640625 57.62337112426758 493.50750732421875 50.9137077331543 509.3883972167969 43.054222106933594 C 518.107177734375 48.438663482666016 518.4415893554688 52.230247497558594 520.1055297851562 60.639976501464844" stroke-width="0.0" fill="rgb(252, 237, 209)" opacity="0.55155945" stroke="rgb(58, 147, 238)" stroke-opacity="0.9026159" stroke-linecap="round" stroke-linejoin="round"/>
    <path d="M 521.2474365234375 46.52877426147461 C 521.5025634765625 51.13593673706055 520.3519287109375 53.3546028137207 511.7727355957031 63.86659240722656 C 490.14337158203125 60.59579849243164 487.7269287109375 59.288963317871094 486.9027099609375 42.30703353881836 C 500.3741760253906 29.08835220336914 491.933349609375 24.58551597595215 510.8739929199219 4.901519775390625 C 535.4177856445312 10.853793144226074 529.290283203125 19.645627975463867 521.2474365234375 46.52877426147461" stroke-width="0.0" fill="rgb(255, 234, 204)" opacity="0.8339141" stroke="rgb(220, 247, 38)" stroke-opacity="0.06091623" stroke-linecap="round" stroke-linejoin="round"/>
    <path d="M 407.3788146972656 169.40724182128906 C 361.41876220703125 172.0040740966797 416.3131103515625 261.04351806640625 353.5014343261719 230.73023986816406 C 335.3724365234375 214.09115600585938 364.98455810546875 141.607666015625 369.2261047363281 157.63394165039062 C 370.12872314453125 80.42478942871094 369.0897521972656 141.26234436035156 384.7856140136719 100.10850524902344 C 438.5501708984375 72.83750915527344 372.9764404296875 118.7413101196289 407.3788146972656 169.40724182128906" stroke-width="0.0" fill="rgb(255, 206, 172)" opacity="0.8846717" stroke="rgb(32, 27, 2)" stroke-opacity="0.923266" stroke-linecap="round" stroke-linejoin="round"/>
    <path d="M 351.5903015136719 383.8465576171875 C 351.3507385253906 444.7705993652344 313.34722900390625 425.6492614746094 244.30487060546875 498.484619140625 C 207.2525177001953 532.31640625 197.9999542236328 421.8180847167969 259.41510009765625 446.76324462890625 C 263.4561767578125 379.48187255859375 243.01473999023438 372.10968017578125 293.2560119628906 409.85662841796875 C 289.3553771972656 477.3433532714844 363.1036682128906 311.6502685546875 351.5903015136719 383.8465576171875" stroke-width="0.0" fill="rgb(255, 237, 206)" opacity="0.94280726" stroke="rgb(168, 205, 64)" stroke-opacity="0.2694765" stroke-linecap="round" stroke-linejoin="round"/>
    <path d="M 244.777099609375 31.50689125061035 C 248.1736602783203 78.28382873535156 253.33389282226562 78.31491088867188 204.4984130859375 77.71006774902344 C 149.81256103515625 65.0243148803711 134.5831298828125 63.308990478515625 140.3094940185547 62.2014274597168 C 142.2276153564453 -18.726953506469727 149.2577362060547 -15.87634563446045 210.10328674316406 -12.060403823852539 C 250.9039764404297 -7.347452640533447 249.49839782714844 -0.24814748764038086 244.777099609375 31.50689125061035" stroke-width="0.0" fill="rgb(247, 233, 207)" opacity="0.98797154" stroke="rgb(120, 214, 195)" stroke-opacity="0.8088991" stroke-linecap="round" stroke-linejoin="round"/>
    <path d="M 292.0196533203125 408.64117431640625 C 253.45260620117188 418.664794921875 241.14840698242188 355.14129638671875 244.2191162109375 452.964599609375 C 203.13174438476562 455.7170104980469 193.91343688964844 439.0054016113281 205.34764099121094 394.9202880859375 C 212.87448120117188 370.8861083984375 232.18028259277344 360.4806213378906 245.09925842285156 362.1887512207031 C 243.51455688476562 361.4675598144531 281.8454284667969 359.9743957519531 292.0196533203125 408.64117431640625" stroke-width="0.0" fill="rgb(255, 222, 189)" opacity="0.91238004" stroke="rgb(34, 21, 62)" stroke-opacity="0.049323563" stroke-linecap="round" stroke-linejoin="round"/>
    <path d="M 231.85580444335938 428.6837463378906 C 255.3926544189453 521.4468383789062 256.6310119628906 533.3737182617188 15.87646484375 517.44482421875 C -24.9191951751709 531.19287109375 45.746009826660156 494.9541320800781 113.82611846923828 459.3863830566406 C 105.91405487060547 307.0995788574219 134.96131896972656 304.647705078125 149.4767303466797 353.02459716796875 C 138.05764770507812 429.42413330078125 161.94766235351562 384.91131591796875 231.85580444335938 428.6837463378906" stroke-width="0.0" fill="rgb(255, 225, 194)" opacity="0.9302267" stroke="rgb(190, 85, 210)" stroke-opacity="0.65856427" stroke-linecap="round" stroke-linejoin="round"/>
    <path d="M 452.96173095703125 304.5191955566406 C 292.7867126464844 216.9481964111328 377.7105407714844 260.3917236328125 239.8588104248047 282.1258239746094 C 216.5784454345703 267.70391845703125 279.17010498046875 251.99777221679688 286.86590576171875 257.41229248046875 C 286.1271667480469 222.35487365722656 288.466552734375 216.7633819580078 305.6799621582031 200.60922241210938 C 342.986572265625 197.2852325439453 413.0321044921875 215.89710998535156 452.96173095703125 304.5191955566406" stroke-width="0.0" fill="rgb(252, 223, 191)" opacity="0.92011184" stroke="rgb(169, 95, 23)" stroke-opacity="0.5008826" stroke-linecap="round" stroke-linejoin="round"/>
    <path d="M 163.64407348632812 10.67981243133545 C 168.52589416503906 80.14257049560547 176.56396484375 69.58708190917969 79.53861999511719 51.40424728393555 C 27.33924102783203 59.35867691040039 -33.44601058959961 22.978511810302734 -19.246116638183594 11.713446617126465 C 61.13514709472656 -40.014339447021484 75.88011169433594 -13.284126281738281 100.8504409790039 -10.212499618530273 C 123.66333770751953 -12.026895523071289 136.65682983398438 -24.65899658203125 163.64407348632812 10.67981243133545" stroke-width="0.0" fill="rgb(255, 237, 207)" opacity="0.92736477" stroke="rgb(11, 73, 188)" stroke-opacity="0.8664181" stroke-linecap="round" stroke-linejoin="round"/>
    <path d="M 269.9060363769531 328.0604248046875 C 287.95550537109375 241.2594757080078 340.3634338378906 341.8296813964844 291.4219970703125 349.8742980957031 C 150.1624298095703 303.0516357421875 274.7481994628906 352.9862060546875 146.66116333007812 386.6649475097656 C 227.21141052246094 244.56130981445312 192.66146850585938 280.03948974609375 245.4228057861328 263.8157653808594 C 254.97052001953125 304.5948791503906 271.89654541015625 267.4893798828125 269.9060363769531 328.0604248046875" stroke-width="0.0" fill="rgb(255, 230, 196)" opacity="0.9103961" stroke="rgb(71, 10, 132)" stroke-opacity="0.93264365" stroke-linecap="round" stroke-linejoin="round"/>
    <path d="M 457.6842956542969 496.1208801269531 C 457.24859619140625 507.3537292480469 454.5785827636719 508.0789794921875 414.04840087890625 522.7867431640625 C 398.8949279785156 523.8150634765625 394.1454162597656 523.8934936523438 385.30255126953125 512.7556762695312 C 398.02337646484375 465.12457275390625 414.447265625 470.2972106933594 431.30194091796875 469.30010986328125 C 448.1558837890625 470.29876708984375 448.9781799316406 473.0625305175781 457.6842956542969 496.1208801269531" stroke-width="0.0" fill="rgb(19, 61, 96)" opacity="1.0" stroke="rgb(223, 173, 53)" stroke-opacity="0.7780503" stroke-linecap="round" stroke-linejoin="round"/>
    <path d="M 500.65850830078125 417.5245666503906 C 499.22857666015625 441.52581787109375 497.6517028808594 443.2330627441406 471.73040771484375 449.8934326171875 C 467.4349365234375 450.6907958984375 461.007080078125 450.6639709472656 444.4365234375 406.6938781738281 C 449.0089416503906 397.5843505859375 453.8088684082031 400.7680358886719 460.22509765625 406.9236755371094 C 504.655029296875 409.97967529296875 504.8512878417969 412.0141906738281 500.65850830078125 417.5245666503906" stroke-width="0.0" fill="rgb(122, 112, 106)" opacity="0.7353435" stroke="rgb(225, 177, 14)" stroke-opacity="0.7554264" stroke-linecap="round" stroke-linejoin="round"/>
    <path d="M 523.05029296875 455.70098876953125 C 522.8851928710938 475.5031433105469 522.850341796875 479.0920715332031 516.44091796875 483.75 C 466.6159362792969 478.4519348144531 470.1124267578125 467.7127380371094 470.5352478027344 456.9657287597656 C 471.2479248046875 427.7999572753906 474.53631591796875 428.5850524902344 502.38238525390625 427.2887878417969 C 502.3821716308594 431.3665771484375 508.27874755859375 428.3565979003906 523.05029296875 455.70098876953125" stroke-width="0.0" fill="rgb(31, 67, 96)" opacity="1.0" stroke="rgb(190, 24, 254)" stroke-opacity="0.98015815" stroke-linecap="round" stroke-linejoin="round"/>
    <path d="M 442.3680114746094 481.3041687011719 C 441.8894348144531 486.1637878417969 440.019775390625 487.5768737792969 409.16656494140625 502.5680236816406 C 396.8346252441406 504.7053527832031 399.00860595703125 501.6259460449219 406.8603210449219 491.45745849609375 C 410.6410827636719 458.283935546875 412.3321228027344 456.9391174316406 419.654052734375 456.9044189453125 C 436.2870788574219 460.79443359375 438.62445068359375 461.6706848144531 442.3680114746094 481.3041687011719" stroke-width="0.0" fill="rgb(33, 71, 95)" opacity="1.0" stroke="rgb(57, 165, 84)" stroke-opacity="0.11736069" stroke-linecap="round" stroke-linejoin="round"/>
    <path d="M 496.02093505859375 461.1044006347656 C 497.4941101074219 472.2821044921875 495.0715637207031 471.1521911621094 491.8414611816406 466.1300048828125 C 454.08984375 464.30279541015625 444.13299560546875 468.6874084472656 430.2862854003906 420.13897705078125 C 428.7431640625 410.3220520019531 432.3976135253906 408.5703125 447.9224548339844 408.8398132324219 C 488.3503112792969 430.0542907714844 489.2504577636719 432.5729064941406 496.02093505859375 461.1044006347656" stroke-width="0.0" fill="rgb(115, 107, 130)" opacity="0.7500842" stroke="rgb(17, 105, 56)" stroke-opacity="0.36657393" stroke-linecap="round" stroke-linejoin="round"/>
    <path d="M 464.6240539550781 454.279052734375 C 452.4341125488281 480.3446350097656 449.96173095703125 481.4053955078125 431.6424865722656 484.67047119140625 C 425.0246276855469 483.443359375 424.4848937988281 480.6986999511719 424.5995178222656 476.04241943359375 C 427.7184143066406 459.60986328125 429.5869140625 457.7237548828125 458.422119140625 437.8671569824219 C 463.9066162109375 439.6725158691406 464.7717590332031 442.38348388671875 464.6240539550781 454.279052734375" stroke-width="0.0" fill="rgb(37, 74, 96)" opacity="1.0" stroke="rgb(94, 10, 150)" stroke-opacity="0.553419" stroke-linecap="round" stroke-linejoin="round"/>
    <path d="M 438.760986328125 158.86082458496094 C 470.3231506347656 225.58822631835938 468.6426086425781 315.2088928222656 418.14788818359375 262.4996337890625 C 432.9373779296875 139.9479217529297 401.3514709472656 191.88052368164062 401.2265930175781 154.92630004882812 C 415.6935729980469 173.7713165283203 416.5339660644531 110.053955078125 399.3056335449219 87.91532897949219 C 457.667236328125 123.80278015136719 417.03497314453125 162.28515625 438.760986328125 158.86082458496094" stroke-width="0.0" fill="rgb(250, 237, 209)" opacity="0.91178143" stroke="rgb(24, 46, 28)" stroke-opacity="0.06961861" stroke-linecap="round" stroke-linejoin="round"/>
    <path d="M 523.2608642578125 382.2680969238281 C 518.2979736328125 430.0581359863281 512.6782836914062 429.526611328125 484.6239318847656 429.6920471191406 C 453.6414794921875 437.3658142089844 426.2362976074219 465.4973449707031 404.0562438964844 400.90692138671875 C 455.4750671386719 324.3203430175781 404.8526306152344 267.80120849609375 511.9580383300781 258.2032775878906 C 578.2088623046875 306.48492431640625 530.800537109375 346.473388671875 523.2608642578125 382.2680969238281" stroke-width="0.0" fill="rgb(174, 150, 77)" opacity="0.91056263" stroke="rgb(182, 94, 18)" stroke-opacity="0.7347715" stroke-linecap="round" stroke-linejoin="round"/>
    <path d="M 476.9737243652344 491.24920654296875 C 476.71820068359375 504.96075439453125 473.54827880859375 505.1299743652344 467.4828796386719 504.2811584472656 C 430.578369140625 500.0564880371094 430.85931396484375 494.8736572265625 429.95111083984375 479.9075622558594 C 431.5953063964844 467.02789306640625 434.4426574707031 466.2281799316406 458.29229736328125 454.4027099609375 C 467.4859619140625 454.7688293457031 469.1695861816406 457.452880859375 476.9737243652344 491.24920654296875" stroke-width="0.0" fill="rgb(40, 73, 106)" opacity="1.0" stroke="rgb(17, 229, 22)" stroke-opacity="0.27957195" stroke-linecap="round" stroke-linejoin="round"/>
    <path d="M 455.59881591796875 424.2877197265625 C 430.8152160644531 470.2958984375 430.0956115722656 472.1535949707031 422.1800842285156 475.07244873046875 C 409.70416259765625 459.8656005859375 407.64605712890625 444.4585266113281 340.7674560546875 425.90185546875 C 371.04766845703125 361.510009765625 317.5078125 354.3602294921875 433.12420654296875 319.3260803222656 C 444.8360595703125 372.60552978515625 433.91876220703125 412.8070068359375 455.59881591796875 424.2877197265625" stroke-width="0.0" fill="rgb(3, 20, 36)" opacity="0.6065576" stroke="rgb(69, 110, 86)" stroke-opacity="0.98344034" stroke-linecap="round" stroke-linejoin="round"/>
    <path d="M 428.41253662109375 468.4482116699219 C 427.36956787109375 495.33685302734375 436.1427307128906 515.9537353515625 346.28955078125 523.984619140625 C 300.4443359375 535.8233642578125 242.19711303710938 589.2265014648438 228.09202575683594 511.3835754394531 C 344.4443359375 402.1775817871094 399.2054138183594 415.513427734375 357.2323913574219 375.6628723144531 C 402.7882995605469 472.5914306640625 415.90728759765625 461.5728759765625 428.41253662109375 468.4482116699219" stroke-width="0.0" fill="rgb(35, 66, 90)" opacity="0.9319768" stroke="rgb(236, 36, 94)" stroke-opacity="0.7347448" stroke-linecap="round" stroke-linejoin="round"/>
    <path d="M 478.6293029785156 491.9610595703125 C 476.3287048339844 533.4130249023438 473.13458251953125 531.2020874023438 445.5068664550781 522.9542846679688 C 420.3590393066406 533.3153686523438 416.6230163574219 534.6510620117188 414.87664794921875 511.73968505859375 C 425.2378845214844 489.72357177734375 428.131103515625 488.5372619628906 453.9201354980469 483.72021484375 C 473.07623291015625 483.1768493652344 476.3209228515625 482.74249267578125 478.6293029785156 491.9610595703125" stroke-width="0.0" fill="rgb(36, 70, 98)" opacity="1.0" stroke="rgb(139, 111, 14)" stroke-opacity="0.9134067" stroke-linecap="round" stroke-linejoin="round"/>
    <path d="M 508.81866455078125 483.2657165527344 C 501.695068359375 491.4439392089844 499.33837890625 493.06939697265625 480.2005920410156 493.75311279296875 C 448.40118408203125 486.2749938964844 447.4400329589844 482.61358642578125 443.69256591796875 463.6781005859375 C 443.7796936035156 438.5991516113281 446.0842590332031 440.98248291015625 457.1694030761719 445.3008728027344 C 494.56744384765625 444.9253845214844 504.469970703125 438.1979064941406 508.81866455078125 483.2657165527344" stroke-width="0.0" fill="rgb(31, 68, 91)" opacity="1.0" stroke="rgb(146, 192, 222)" stroke-opacity="0.64191914" stroke-linecap="round" stroke-linejoin="round"/>
    <path d="M 523.3656616210938 421.5882568359375 C 522.9592895507812 458.4408264160156 521.198486328125 456.9278259277344 516.296142578125 449.2438049316406 C 480.13409423828125 443.64910888671875 458.0823669433594 456.3871765136719 446.380615234375 430.8401794433594 C 448.9234619140625 398.3175048828125 456.9535827636719 394.6548767089844 511.34979248046875 384.2151794433594 C 522.7003173828125 398.76898193359375 523.49755859375 402.5235595703125 523.3656616210938 421.5882568359375" stroke-width="0.0" fill="rgb(33, 69, 97)" opacity="0.9812407" stroke="rgb(123, 178, 165)" stroke-opacity="0.73014885" stroke-linecap="round" stroke-linejoin="round"/>
    <path d="M 459.52166748046875 441.1089782714844 C 440.2433776855469 470.6145935058594 438.6975402832031 472.84527587890625 433.5821533203125 474.2615966796875 C 419.940185546875 473.23114013671875 416.864501953125 472.7682189941406 410.24176025390625 457.7976379394531 C 403.7333068847656 440.2548828125 401.15716552734375 425.8965148925781 469.2456970214844 408.6019287109375 C 471.1029357910156 420.7926940917969 462.2643127441406 430.5354309082031 459.52166748046875 441.1089782714844" stroke-width="0.0" fill="rgb(37, 72, 97)" opacity="0.9705147" stroke="rgb(56, 127, 60)" stroke-opacity="0.48439273" stroke-linecap="round" stroke-linejoin="round"/>
    <path d="M 523.7960815429688 468.1364440917969 C 522.1132202148438 530.2824096679688 518.2012329101562 526.2844848632812 509.6165466308594 522.6738891601562 C 461.1064453125 524.2005615234375 456.16302490234375 527.6639404296875 455.1676025390625 488.0877990722656 C 456.06585693359375 473.314208984375 457.38092041015625 471.05108642578125 489.68231201171875 465.889892578125 C 521.9686279296875 460.88812255859375 522.9998168945312 463.25872802734375 523.7960815429688 468.1364440917969" stroke-width="0.0" fill="rgb(33, 71, 100)" opacity="1.0" stroke="rgb(218, 41, 78)" stroke-opacity="0.9352812" stroke-linecap="round" stroke-linejoin="round"/>
    <path d="M 114.62232208251953 458.3828430175781 C 116.56094360351562 457.8509216308594 110.34992218017578 460.0703125 76.7935791015625 478.2061462402344 C 27.21382713317871 501.1087951660156 2.54887056350708 530.5071411132812 -17.634403228759766 502.3900146484375 C -33.33586502075195 271.93646240234375 -54.08061218261719 252.4971160888672 95.50506591796875 257.25360107421875 C 121.5975341796875 311.1322937011719 114.10331726074219 354.4535827636719 114.62232208251953 458.3828430175781" stroke-width="0.0" fill="rgb(37, 100, 149)" opacity="0.99489176" stroke="rgb(176, 230, 201)" stroke-opacity="0.36247802" stroke-linecap="round" stroke-linejoin="round"/>
    <path d="M 209.51528930664062 78.82457733154297 C 232.4142608642578 103.83045196533203 228.9413299560547 97.81206512451172 216.77833557128906 98.69388580322266 C 126.00882720947266 98.051513671875 131.97433471679688 102.11515045166016 131.45838928222656 95.78218078613281 C 128.88491821289062 61.68987274169922 129.2178192138672 64.29255676269531 146.52203369140625 64.69940185546875 C 172.0852508544922 70.93903350830078 213.49945068359375 78.6773681640625 209.51528930664062 78.82457733154297" stroke-width="0.0" fill="rgb(211, 89, 70)" opacity="0.58879167" stroke="rgb(241, 252, 134)" stroke-opacity="0.3236541" stroke-linecap="round" stroke-linejoin="round"/>
    <path d="M 452.74713134765625 332.8529357910156 C 427.2945556640625 385.0182800292969 445.75811767578125 387.3771667480469 409.60687255859375 386.2801208496094 C 396.0397033691406 386.2103271484375 396.6297607421875 389.78887939453125 406.1279602050781 366.6392517089844 C 414.4254455566406 349.6679382324219 419.7965087890625 332.343017578125 435.8160095214844 312.34625244140625 C 594.6348266601562 246.10508728027344 498.1600341796875 323.2459411621094 452.74713134765625 332.8529357910156" stroke-width="0.0" fill="rgb(234, 142, 108)" opacity="0.9933957" stroke="rgb(147, 75, 219)" stroke-opacity="0.50504696" stroke-linecap="round" stroke-linejoin="round"/>
    <path d="M 463.4342346191406 409.9908752441406 C 452.2486877441406 423.0130615234375 455.6407470703125 414.0890808105469 426.97418212890625 423.9477233886719 C 403.73046875 432.01666259765625 406.8138732910156 439.5643310546875 410.4320373535156 420.3216247558594 C 429.47808837890625 401.0108642578125 435.36041259765625 410.0851135253906 483.18304443359375 315.98223876953125 C 564.576171875 281.8123779296875 514.6914672851562 367.21490478515625 463.4342346191406 409.9908752441406" stroke-width="0.0" fill="rgb(185, 112, 99)" opacity="0.90378416" stroke="rgb(82, 20, 87)" stroke-opacity="0.023761274" stroke-linecap="round" stroke-linejoin="round"/>
    <path d="M 523.3922729492188 361.8839111328125 C 520.205078125 415.77203369140625 514.5909423828125 415.1042785644531 502.99298095703125 415.56866455078125 C 463.5841064453125 416.3669738769531 460.017578125 416.7231140136719 455.2408752441406 416.8438415527344 C 467.8594665527344 380.669677734375 475.14898681640625 371.4837646484375 497.4563903808594 360.3951416015625 C 523.2012329101562 353.2626647949219 524.3544921875 356.5918273925781 523.3922729492188 361.8839111328125" stroke-width="0.0" fill="rgb(36, 71, 97)" opacity="0.9595743" stroke="rgb(23, 181, 244)" stroke-opacity="0.57720846" stroke-linecap="round" stroke-linejoin="round"/>
    <path d="M 214.70339965820312 299.7878112792969 C 204.81509399414062 319.47369384765625 194.12472534179688 325.7480773925781 188.8361358642578 339.8229064941406 C 171.2697296142578 334.685302734375 165.21011352539062 330.43829345703125 172.3704071044922 318.2055969238281 C 187.4608154296875 299.6365661621094 197.75897216796875 293.82696533203125 203.00816345214844 283.4101867675781 C 218.68894958496094 289.55023193359375 220.32577514648438 291.3250427246094 214.70339965820312 299.7878112792969" stroke-width="0.0" fill="rgb(213, 124, 96)" opacity="0.9472264" stroke="rgb(206, 16, 219)" stroke-opacity="0.56667197" stroke-linecap="round" stroke-linejoin="round"/>
    <path d="M 376.58526611328125 477.89208984375 C 369.6973876953125 497.048583984375 367.8460693359375 509.6692199707031 363.78204345703125 523.1624755859375 C 333.0248107910156 523.6836547851562 330.9684753417969 521.2262573242188 332.0746154785156 513.1185302734375 C 351.4198913574219 474.7689208984375 352.98919677734375 466.67138671875 383.8468933105469 453.9407043457031 C 387.873046875 457.14501953125 381.7440490722656 462.2411193847656 376.58526611328125 477.89208984375" stroke-width="0.0" fill="rgb(137, 98, 94)" opacity="0.7579774" stroke="rgb(59, 70, 146)" stroke-opacity="0.13923873" stroke-linecap="round" stroke-linejoin="round"/>
    <path d="M 424.03875732421875 400.5275573730469 C 418.02862548828125 417.8310852050781 413.00140380859375 422.766357421875 386.571533203125 433.0232849121094 C 375.04071044921875 433.9219055175781 378.37628173828125 433.6923828125 386.7685546875 412.0934143066406 C 394.8018798828125 394.2329406738281 400.9630126953125 379.1240234375 403.996337890625 373.4248352050781 C 418.2786560058594 383.3695373535156 420.4847717285156 385.091796875 424.03875732421875 400.5275573730469" stroke-width="0.0" fill="rgb(233, 140, 108)" opacity="0.98057294" stroke="rgb(146, 226, 204)" stroke-opacity="0.28681177" stroke-linecap="round" stroke-linejoin="round"/>
    <path d="M 187.26023864746094 308.5715026855469 C 205.26979064941406 365.07037353515625 206.9594268798828 350.03472900390625 168.9573516845703 369.1562805175781 C 147.43568420410156 375.3590087890625 158.14730834960938 388.9456787109375 156.37380981445312 330.5052185058594 C 170.70570373535156 317.2078552246094 174.98361206054688 313.6835632324219 182.73980712890625 306.4561462402344 C 205.30030822753906 307.46533203125 208.29611206054688 310.7725524902344 187.26023864746094 308.5715026855469" stroke-width="0.0" fill="rgb(216, 128, 99)" opacity="0.9544007" stroke="rgb(65, 183, 134)" stroke-opacity="0.07966799" stroke-linecap="round" stroke-linejoin="round"/>
    <path d="M 379.88482666015625 467.6686096191406 C 360.0328063964844 512.7485961914062 375.2135009765625 523.3778686523438 332.61199951171875 524.442138671875 C 318.1346130371094 520.9992065429688 323.0221862792969 517.540771484375 334.993896484375 499.69464111328125 C 348.85760498046875 479.9427490234375 353.3056335449219 473.23565673828125 367.7505798339844 451.1944580078125 C 381.7832946777344 452.0210266113281 383.2421875 455.048583984375 379.88482666015625 467.6686096191406" stroke-width="0.0" fill="rgb(184, 113, 98)" opacity="0.90422577" stroke="rgb(160, 167, 1)" stroke-opacity="0.8484485" stroke-linecap="round" stroke-linejoin="round"/>
    <path d="M 415.0159606933594 429.08160400390625 C 383.62811279296875 446.4789123535156 385.1979675292969 466.2750244140625 370.7154846191406 476.54302978515625 C 354.46417236328125 472.2464294433594 358.4626770019531 472.42108154296875 365.8837890625 453.8945007324219 C 378.0839538574219 435.7431335449219 377.57391357421875 427.5479736328125 389.99993896484375 418.4676513671875 C 409.3626403808594 411.97589111328125 415.7549743652344 414.64129638671875 415.0159606933594 429.08160400390625" stroke-width="0.0" fill="rgb(178, 112, 98)" opacity="0.9788995" stroke="rgb(223, 61, 160)" stroke-opacity="0.86906207" stroke-linecap="round" stroke-linejoin="round"/>
    <path d="M 495.53179931640625 225.69454956054688 C 479.1463928222656 239.34910583496094 470.06439208984375 247.5368194580078 468.3899841308594 247.8171844482422 C 442.77667236328125 242.0119171142578 451.5555419921875 261.728515625 450.09454345703125 199.35641479492188 C 449.3554992675781 174.79867553710938 460.76202392578125 170.869873046875 458.3592529296875 223.13897705078125 C 463.31121826171875 223.44613647460938 487.1930236816406 225.39093017578125 495.53179931640625 225.69454956054688" stroke-width="0.0" fill="rgb(121, 188, 207)" opacity="0.97417665" stroke="rgb(126, 38, 230)" stroke-opacity="0.82964176" stroke-linecap="round" stroke-linejoin="round"/>
    <path d="M 429.09002685546875 320.5325012207031 C 393.5302429199219 336.75146484375 387.83953857421875 338.4605712890625 372.68157958984375 345.3773193359375 C 344.4359436035156 356.02813720703125 365.0849914550781 370.4450378417969 358.01776123046875 306.1173400878906 C 390.3182067871094 290.9029235839844 360.3295593261719 343.7580871582031 380.7789611816406 330.0170593261719 C 415.1586608886719 316.54437255859375 428.7461853027344 303.3235168457031 429.09002685546875 320.5325012207031" stroke-width="0.0" fill="rgb(252, 238, 210)" opacity="0.9446667" stroke="rgb(89, 135, 170)" stroke-opacity="0.10818714" stroke-linecap="round" stroke-linejoin="round"/>
    <path d="M 157.38967895507812 68.65325164794922 C 153.5949249267578 87.4395523071289 151.2901153564453 89.6663589477539 131.5132293701172 93.88211822509766 C 117.96076965332031 88.34820556640625 118.34786987304688 84.13398742675781 104.9481201171875 58.85911178588867 C 104.40055084228516 54.93264389038086 112.20591735839844 58.26026916503906 121.59928894042969 59.99267578125 C 140.6289825439453 63.16259765625 153.54689025878906 66.26026153564453 157.38967895507812 68.65325164794922" stroke-width="0.0" fill="rgb(163, 116, 117)" opacity="0.9517254" stroke="rgb(129, 196, 224)" stroke-opacity="0.936005" stroke-linecap="round" stroke-linejoin="round"/>
    <path d="M 362.1323547363281 345.2691955566406 C 357.69970703125 359.3506774902344 352.0286865234375 363.4747009277344 334.0921630859375 364.48638916015625 C 315.6062316894531 358.40447998046875 323.51434326171875 366.29986572265625 322.11468505859375 320.1626281738281 C 254.09523010253906 279.3638916015625 292.44287109375 308.92401123046875 378.6502685546875 304.8094482421875 C 372.30029296875 310.8619079589844 329.1014709472656 327.36474609375 362.1323547363281 345.2691955566406" stroke-width="0.0" fill="rgb(255, 240, 211)" opacity="0.8798767" stroke="rgb(220, 9, 0)" stroke-opacity="0.42597398" stroke-linecap="round" stroke-linejoin="round"/>
    <path d="M 150.7410888671875 82.82767486572266 C 153.10986328125 97.03059387207031 153.03369140625 97.7572021484375 139.113525390625 97.89784240722656 C 116.4329605102539 92.59357452392578 119.0616226196289 85.68517303466797 106.771484375 65.97348022460938 C 103.05493927001953 54.540714263916016 98.91194915771484 55.52589797973633 116.9734878540039 58.51667785644531 C 137.98289489746094 63.3711051940918 137.70645141601562 59.80361557006836 150.7410888671875 82.82767486572266" stroke-width="0.0" fill="rgb(158, 109, 116)" opacity="0.63631654" stroke="rgb(139, 190, 216)" stroke-opacity="0.80942476" stroke-linecap="round" stroke-linejoin="round"/>
    <path d="M 356.3355407714844 356.89166259765625 C 349.8630676269531 370.784423828125 357.20501708984375 381.7493591308594 338.4190979003906 389.0438537597656 C 319.3668212890625 343.4656066894531 303.7289123535156 357.06842041015625 279.93670654296875 334.2011413574219 C 332.1051330566406 344.3479309082031 325.3514709472656 354.3759765625 322.75091552734375 324.6841735839844 C 348.69757080078125 326.1787109375 344.49530029296875 334.0356750488281 356.3355407714844 356.89166259765625" stroke-width="0.0" fill="rgb(249, 235, 208)" opacity="0.93455434" stroke="rgb(146, 220, 50)" stroke-opacity="0.8522479" stroke-linecap="round" stroke-linejoin="round"/>
    <path d="M 334.9595947265625 395.7564697265625 C 332.4340515136719 407.29449462890625 335.990966796875 402.2988586425781 318.8648376464844 413.7222595214844 C 303.6110534667969 423.3401184082031 305.97332763671875 421.84344482421875 294.052490234375 429.3852233886719 C 290.8361511230469 396.44097900390625 284.8511047363281 377.02508544921875 298.9835205078125 378.059814453125 C 339.19683837890625 378.612548828125 338.1478576660156 373.63934326171875 334.9595947265625 395.7564697265625" stroke-width="0.0" fill="rgb(123, 189, 208)" opacity="0.966677" stroke="rgb(158, 124, 9)" stroke-opacity="0.48393017" stroke-linecap="round" stroke-linejoin="round"/>
    <path d="M 89.35165405273438 54.263397216796875 C 81.44862365722656 63.04395294189453 77.5131607055664 76.35376739501953 65.72278594970703 79.21917724609375 C 47.94370651245117 83.95355224609375 52.640926361083984 83.2555923461914 60.97443389892578 65.03311920166016 C 69.06198120117188 47.612022399902344 70.99119567871094 50.84784698486328 60.03993225097656 51.640953063964844 C 77.59524536132812 50.51934814453125 89.524658203125 52.21300506591797 89.35165405273438 54.263397216796875" stroke-width="0.0" fill="rgb(170, 104, 106)" opacity="0.8068133" stroke="rgb(44, 55, 186)" stroke-opacity="0.34116015" stroke-linecap="round" stroke-linejoin="round"/>
    <path d="M 451.354736328125 374.54400634765625 C 441.10760498046875 404.13623046875 440.13018798828125 407.3387451171875 411.6986083984375 415.2064514160156 C 399.51385498046875 412.69110107421875 396.4552001953125 408.93743896484375 403.0687255859375 390.98419189453125 C 407.74871826171875 372.0594787597656 407.6762390136719 366.25213623046875 440.9542541503906 361.7761535644531 C 445.592529296875 346.4647216796875 443.94720458984375 346.3990783691406 451.354736328125 374.54400634765625" stroke-width="0.0" fill="rgb(238, 141, 106)" opacity="0.9405848" stroke="rgb(33, 211, 12)" stroke-opacity="0.97543085" stroke-linecap="round" stroke-linejoin="round"/>
    <path d="M 287.2927551269531 318.2535705566406 C 285.716796875 329.78533935546875 291.65484619140625 324.35418701171875 275.0816345214844 331.60833740234375 C 266.8373718261719 333.4043884277344 270.1080627441406 340.1670227050781 269.2475891113281 307.8294677734375 C 265.3727722167969 280.6348876953125 243.3162384033203 285.6707458496094 269.0478210449219 284.99139404296875 C 296.56280517578125 286.1921081542969 285.544677734375 277.9150390625 287.2927551269531 318.2535705566406" stroke-width="0.0" fill="rgb(121, 188, 207)" opacity="0.98182195" stroke="rgb(128, 153, 118)" stroke-opacity="0.10988284" stroke-linecap="round" stroke-linejoin="round"/>
  </g>
</svg>
