<?xml version="1.0" ?>
<svg xmlns="http://www.w3.org/2000/svg" version="1.1" width="512" height="512">
  <defs/>
  <g>
    <path d="M 252.933837890625 129.92568969726562 C 258.0497741699219 283.9317932128906 252.12306213378906 259.71417236328125 207.46237182617188 272.3935241699219 C 187.78302001953125 307.6842956542969 146.75088500976562 304.9833984375 91.48271179199219 318.4949035644531 C 95.00619506835938 176.31182861328125 92.51277923583984 176.9115447998047 75.8338623046875 138.1212158203125 C 215.9788360595703 136.66908264160156 216.515380859375 138.36546325683594 252.933837890625 129.92568969726562" stroke-width="0.0" fill="rgb(0, 113, 190)" opacity="0.7260431" stroke="rgb(240, 61, 103)" stroke-opacity="0.28073123" stroke-linecap="round" stroke-linejoin="round"/>
    <path d="M 523.468505859375 147.3697967529297 C 525.3360595703125 191.79627990722656 530.4552612304688 204.59481811523438 499.4730529785156 209.7989959716797 C 466.0171203613281 210.53555297851562 473.42645263671875 205.62322998046875 473.36737060546875 139.5159912109375 C 473.9862976074219 130.99607849121094 476.6004943847656 133.33627319335938 516.63525390625 111.05477905273438 C 528.2813110351562 112.45346069335938 522.6407470703125 124.28033447265625 523.468505859375 147.3697967529297" stroke-width="0.0" fill="rgb(255, 245, 218)" opacity="0.86780494" stroke="rgb(153, 118, 25)" stroke-opacity="0.6141167" stroke-linecap="round" stroke-linejoin="round"/>
    <path d="M 522.699951171875 218.04359436035156 C 524.5414428710938 266.5771179199219 544.7216186523438 286.86175537109375 492.660400390625 314.8365478515625 C 439.00177001953125 357.8086853027344 424.8973388671875 355.4456481933594 367.53936767578125 248.84783935546875 C 455.58172607421875 176.25636291503906 419.1302185058594 113.22098541259766 454.5109558105469 199.4763641357422 C 527.9946899414062 174.3297119140625 525.0714721679688 196.3999481201172 522.699951171875 218.04359436035156" stroke-width="0.0" fill="rgb(255, 208, 165)" opacity="0.5568185" stroke="rgb(205, 217, 81)" stroke-opacity="0.35673487" stroke-linecap="round" stroke-linejoin="round"/>
  </g>
</svg>
