<?xml version="1.0" ?>
<svg xmlns="http://www.w3.org/2000/svg" version="1.1" width="508" height="512">
  <defs/>
  <g>
    <path d="M 388.1945495605469 8.015913009643555 C 176.36203002929688 72.67280578613281 300.5018005371094 23.664506912231445 237.51148986816406 185.7474822998047 C 82.27104187011719 283.55828857421875 210.2810516357422 235.5901641845703 5.81317663192749 160.11903381347656 C 5.6760478019714355 -60.43928909301758 5.693068981170654 28.520854949951172 5.601498603820801 8.00256061553955 C 164.90806579589844 7.996845722198486 178.018798828125 8.020760536193848 388.1945495605469 8.015913009643555" stroke-width="0.0" fill="rgb(31, 108, 121)" opacity="0.4397758" stroke="rgb(119, 81, 41)" stroke-opacity="0.16812682" stroke-linecap="round" stroke-linejoin="round"/>
    <path d="M 490.1592712402344 136.83802795410156 C 502.25372314453125 343.62957763671875 535.5829467773438 356.8836669921875 117.23847961425781 344.982666015625 C 130.91366577148438 -18.447185516357422 290.4527893066406 141.0482635498047 307.59112548828125 74.60333251953125 C 313.88739013671875 24.80716896057129 243.76136779785156 52.61514663696289 300.33404541015625 35.28533172607422 C 326.3252868652344 148.4477996826172 431.6767883300781 35.5772705078125 490.1592712402344 136.83802795410156" stroke-width="0.0" fill="rgb(115, 138, 149)" opacity="0.91735506" stroke="rgb(41, 151, 200)" stroke-opacity="0.67778635" stroke-linecap="round" stroke-linejoin="round"/>
    <path d="M 502.0525207519531 175.57789611816406 C 366.5327453613281 27.59245491027832 409.1802673339844 53.78205871582031 356.6189270019531 86.53667449951172 C 333.8990783691406 119.50196075439453 324.187744140625 68.60391998291016 278.4526672363281 27.37442398071289 C 299.4581298828125 2.506809711456299 302.82861328125 9.173046112060547 502.3280334472656 8.00498104095459 C 501.839599609375 13.997598648071289 502.38232421875 -31.348047256469727 502.0525207519531 175.57789611816406" stroke-width="0.0" fill="rgb(133, 168, 171)" opacity="0.88728744" stroke="rgb(40, 214, 80)" stroke-opacity="0.76732224" stroke-linecap="round" stroke-linejoin="round"/>
    <path d="M 457.2958679199219 296.4357604980469 C 429.3955078125 241.04757690429688 453.609375 305.0876159667969 432.3451843261719 291.6318664550781 C 431.12799072265625 267.6870422363281 441.2389831542969 277.79229736328125 401.109619140625 275.64208984375 C 405.68536376953125 257.6952209472656 384.16192626953125 264.57177734375 459.18560791015625 262.86126708984375 C 453.8844299316406 265.6405029296875 460.4939270019531 246.9883270263672 457.2958679199219 296.4357604980469" stroke-width="0.0" fill="rgb(254, 247, 230)" opacity="0.9720767" stroke="rgb(101, 173, 254)" stroke-opacity="0.005443705" stroke-linecap="round" stroke-linejoin="round"/>
    <path d="M 197.24563598632812 385.5664978027344 C 174.97816467285156 353.4166259765625 199.23342895507812 304.1936340332031 179.2279052734375 325.9441223144531 C 123.5403823852539 304.33477783203125 175.0722198486328 356.88934326171875 143.7879638671875 344.768310546875 C 148.0653533935547 294.3514099121094 124.30081176757812 308.7302551269531 200.56724548339844 307.1999206542969 C 193.05099487304688 308.70538330078125 198.77828979492188 294.0215759277344 197.24563598632812 385.5664978027344" stroke-width="0.0" fill="rgb(252, 249, 234)" opacity="0.96253914" stroke="rgb(89, 187, 20)" stroke-opacity="0.34411958" stroke-linecap="round" stroke-linejoin="round"/>
    <path d="M 351.3134765625 206.9739990234375 C 299.9879150390625 269.8948669433594 361.338134765625 201.52627563476562 310.7198791503906 371.0989074707031 C 298.24066162109375 134.58355712890625 380.5235595703125 285.148193359375 155.336669921875 248.5148162841797 C 137.76951599121094 69.1876220703125 248.4788360595703 182.75942993164062 343.6533508300781 204.6133575439453 C 332.9454040527344 156.59036254882812 362.2341613769531 177.50726318359375 351.3134765625 206.9739990234375" stroke-width="0.0" fill="rgb(244, 213, 191)" opacity="0.80528617" stroke="rgb(201, 223, 142)" stroke-opacity="0.43204027" stroke-linecap="round" stroke-linejoin="round"/>
    <path d="M 376.55010986328125 250.93260192871094 C 340.86566162109375 208.8068389892578 366.13671875 246.96763610839844 345.9793701171875 247.7290496826172 C 329.8755187988281 270.9971923828125 344.987548828125 230.48655700683594 333.4273986816406 231.1632080078125 C 314.736083984375 157.37918090820312 344.6831970214844 167.11508178710938 335.10101318359375 201.7478485107422 C 377.5496520996094 225.73614501953125 378.3118896484375 185.0718231201172 376.55010986328125 250.93260192871094" stroke-width="0.0" fill="rgb(255, 251, 235)" opacity="0.9108488" stroke="rgb(160, 135, 16)" stroke-opacity="0.53036314" stroke-linecap="round" stroke-linejoin="round"/>
    <path d="M 290.44488525390625 302.1390075683594 C 288.2963562011719 352.1048889160156 294.9505615234375 346.1462707519531 287.4571228027344 352.9498596191406 C 261.52484130859375 351.70538330078125 272.1000061035156 360.62750244140625 269.9684753417969 326.1773986816406 C 266.3717956542969 288.0368957519531 280.8116149902344 298.4657287597656 277.4064636230469 321.1412048339844 C 299.253173828125 312.3470458984375 253.70135498046875 298.86224365234375 290.44488525390625 302.1390075683594" stroke-width="0.0" fill="rgb(254, 250, 234)" opacity="0.9782867" stroke="rgb(151, 107, 193)" stroke-opacity="0.24440451" stroke-linecap="round" stroke-linejoin="round"/>
    <path d="M 169.74314880371094 298.2096862792969 C 139.25711059570312 294.8152770996094 183.78660583496094 260.09100341796875 145.02511596679688 266.4694519042969 C 145.111083984375 364.6867980957031 135.14810180664062 185.64830017089844 133.28102111816406 304.91998291015625 C 85.85198974609375 296.00390625 121.11607360839844 244.19680786132812 127.18783569335938 251.63389587402344 C 179.0692901611328 257.0062561035156 167.4961395263672 227.97332763671875 169.74314880371094 298.2096862792969" stroke-width="0.0" fill="rgb(244, 240, 225)" opacity="1.0" stroke="rgb(8, 81, 64)" stroke-opacity="0.5904746" stroke-linecap="round" stroke-linejoin="round"/>
    <path d="M 311.84234619140625 351.7615966796875 C 412.3763427734375 342.50506591796875 390.0677185058594 379.30615234375 303.9860534667969 367.9617614746094 C 310.29205322265625 333.13250732421875 288.44537353515625 365.3874816894531 290.12139892578125 342.3592224121094 C 294.92657470703125 265.69793701171875 285.59869384765625 261.8233947753906 292.9929504394531 239.6799774169922 C 320.00390625 312.22698974609375 302.61126708984375 353.4261169433594 311.84234619140625 351.7615966796875" stroke-width="0.0" fill="rgb(43, 47, 67)" opacity="0.9363851" stroke="rgb(155, 52, 242)" stroke-opacity="0.87713534" stroke-linecap="round" stroke-linejoin="round"/>
    <path d="M 464.46051025390625 431.3688659667969 C 388.9183044433594 431.6435546875 378.7436828613281 431.13873291015625 287.0109558105469 431.5511169433594 C 309.0435485839844 423.3817443847656 272.6321105957031 443.1140441894531 252.2296142578125 419.427001953125 C 325.4163818359375 419.4057312011719 334.7161865234375 419.7262268066406 442.00640869140625 419.3851623535156 C 429.04071044921875 432.0558776855469 447.97607421875 404.7947692871094 464.46051025390625 431.3688659667969" stroke-width="0.0" fill="rgb(0, 0, 25)" opacity="0.81523055" stroke="rgb(134, 130, 3)" stroke-opacity="0.909177" stroke-linecap="round" stroke-linejoin="round"/>
    <path d="M 445.8624267578125 438.4941711425781 C 427.9137878417969 525.6563110351562 428.6019592285156 500.0910339355469 129.80198669433594 505.37469482421875 C 70.32394409179688 497.1175537109375 49.39601516723633 538.18896484375 56.9061279296875 427.86737060546875 C 250.89398193359375 462.80023193359375 216.2924041748047 415.3197937011719 250.9432373046875 419.5732421875 C 290.7169189453125 437.9896545410156 282.88836669921875 444.5684814453125 445.8624267578125 438.4941711425781" stroke-width="0.0" fill="rgb(70, 119, 137)" opacity="0.70463955" stroke="rgb(173, 69, 49)" stroke-opacity="0.28538007" stroke-linecap="round" stroke-linejoin="round"/>
    <path d="M 249.54705810546875 410.80322265625 C 218.8276824951172 426.83282470703125 257.8478698730469 419.4380798339844 90.69856262207031 420.6331481933594 C 140.19834899902344 391.0545959472656 53.65476989746094 458.8684997558594 -1.08397376537323 401.921875 C 199.62213134765625 390.0128479003906 231.64138793945312 426.96356201171875 196.39964294433594 356.0339050292969 C 297.93463134765625 314.3096008300781 241.29388427734375 294.837646484375 249.54705810546875 410.80322265625" stroke-width="0.0" fill="rgb(62, 72, 89)" opacity="0.9918544" stroke="rgb(76, 184, 206)" stroke-opacity="0.18732761" stroke-linecap="round" stroke-linejoin="round"/>
    <path d="M 503.0454406738281 258.8900451660156 C 412.44873046875 282.1380920410156 494.6098937988281 196.0102081298828 434.2284851074219 213.62188720703125 C 380.64410400390625 208.00216674804688 399.1993408203125 230.4231719970703 394.34576416015625 159.38113403320312 C 396.8255920410156 159.37596130371094 386.9315185546875 159.59767150878906 486.2320861816406 159.45306396484375 C 506.6708984375 176.89971923828125 502.5826110839844 123.29493713378906 503.0454406738281 258.8900451660156" stroke-width="0.0" fill="rgb(231, 195, 171)" opacity="0.86833125" stroke="rgb(219, 39, 69)" stroke-opacity="0.45702457" stroke-linecap="round" stroke-linejoin="round"/>
    <path d="M 503.0774841308594 420.3731384277344 C 495.6864013671875 492.4982604980469 517.0509643554688 518.4546508789062 482.56475830078125 499.5182800292969 C 406.831298828125 498.67498779296875 362.4476318359375 520.295166015625 366.8366394042969 485.3172912597656 C 451.073974609375 476.92449951171875 474.52783203125 441.9048767089844 449.4259338378906 419.3208923339844 C 495.0043029785156 419.1919250488281 503.3744201660156 418.4068908691406 503.0774841308594 420.3731384277344" stroke-width="0.0" fill="rgb(41, 79, 102)" opacity="0.7262685" stroke="rgb(54, 52, 244)" stroke-opacity="0.60040283" stroke-linecap="round" stroke-linejoin="round"/>
    <path d="M 351.0 274.0 C 350.33013916015625 276.5 348.5 278.33013916015625 346.0 279.0 C 343.5 278.33013916015625 341.66986083984375 276.5 341.0 274.0 C 341.66986083984375 271.5 343.5 269.66986083984375 346.0 269.0 C 348.5 269.66986083984375 350.33013916015625 271.5 351.0 274.0" stroke-width="0.0" fill="rgb(255, 247, 231)" opacity="1.0" stroke="rgb(66, 37, 114)" stroke-opacity="0.5104439" stroke-linecap="round" stroke-linejoin="round"/>
    <path d="M 147.0 197.0 C 146.3301239013672 199.5 144.5 201.3301239013672 142.0 202.0 C 139.5 201.3301239013672 137.6698760986328 199.5 137.0 197.0 C 137.6698760986328 194.5 139.5 192.6698760986328 142.0 192.0 C 144.5 192.6698760986328 146.3301239013672 194.5 147.0 197.0" stroke-width="0.0" fill="rgb(50, 48, 65)" opacity="1.0" stroke="rgb(138, 2, 82)" stroke-opacity="0.12725346" stroke-linecap="round" stroke-linejoin="round"/>
    <path d="M 396.0 227.0 C 395.33013916015625 229.5 393.5 231.3301239013672 391.0 232.0 C 388.5 231.3301239013672 386.66986083984375 229.5 386.0 227.0 C 386.66986083984375 224.5 388.5 222.6698760986328 391.0 222.0 C 393.5 222.6698760986328 395.33013916015625 224.5 396.0 227.0" stroke-width="0.0" fill="rgb(44, 47, 65)" opacity="1.0" stroke="rgb(43, 240, 162)" stroke-opacity="0.2617996" stroke-linecap="round" stroke-linejoin="round"/>
    <path d="M 119.0 196.0 C 118.33012390136719 198.5 116.5 200.3301239013672 114.0 201.0 C 111.5 200.3301239013672 109.66987609863281 198.5 109.0 196.0 C 109.66987609863281 193.5 111.5 191.6698760986328 114.0 191.0 C 116.5 191.6698760986328 118.33012390136719 193.5 119.0 196.0" stroke-width="0.0" fill="rgb(254, 246, 225)" opacity="1.0" stroke="rgb(190, 33, 139)" stroke-opacity="0.3770221" stroke-linecap="round" stroke-linejoin="round"/>
    <path d="M 395.0 330.0 C 394.33013916015625 332.5 392.5 334.33013916015625 390.0 335.0 C 387.5 334.33013916015625 385.66986083984375 332.5 385.0 330.0 C 385.66986083984375 327.5 387.5 325.66986083984375 390.0 325.0 C 392.5 325.66986083984375 394.33013916015625 327.5 395.0 330.0" stroke-width="0.0" fill="rgb(247, 200, 171)" opacity="1.0" stroke="rgb(150, 175, 127)" stroke-opacity="0.31688747" stroke-linecap="round" stroke-linejoin="round"/>
    <path d="M 486.0 445.0 C 485.33013916015625 447.5 483.5 449.33013916015625 481.0 450.0 C 478.5 449.33013916015625 476.66986083984375 447.5 476.0 445.0 C 476.66986083984375 442.5 478.5 440.66986083984375 481.0 440.0 C 483.5 440.66986083984375 485.33013916015625 442.5 486.0 445.0" stroke-width="0.0" fill="rgb(155, 183, 185)" opacity="1.0" stroke="rgb(134, 210, 23)" stroke-opacity="0.7921892" stroke-linecap="round" stroke-linejoin="round"/>
    <path d="M 27.0 480.0 C 26.330127716064453 482.5 24.5 484.33013916015625 22.0 485.0 C 19.5 484.33013916015625 17.669872283935547 482.5 17.0 480.0 C 17.669872283935547 477.5 19.5 475.66986083984375 22.0 475.0 C 24.5 475.66986083984375 26.330127716064453 477.5 27.0 480.0" stroke-width="0.0" fill="rgb(75, 119, 143)" opacity="1.0" stroke="rgb(99, 97, 36)" stroke-opacity="0.20020472" stroke-linecap="round" stroke-linejoin="round"/>
    <path d="M 59.0 166.0 C 58.33012771606445 168.5 56.5 170.3301239013672 54.0 171.0 C 51.5 170.3301239013672 49.66987228393555 168.5 49.0 166.0 C 49.66987228393555 163.5 51.5 161.6698760986328 54.0 161.0 C 56.5 161.6698760986328 58.33012771606445 163.5 59.0 166.0" stroke-width="0.0" fill="rgb(225, 197, 176)" opacity="1.0" stroke="rgb(148, 217, 229)" stroke-opacity="0.075615376" stroke-linecap="round" stroke-linejoin="round"/>
    <path d="M 129.0 371.0 C 128.3301239013672 373.5 126.5 375.33013916015625 124.0 376.0 C 121.5 375.33013916015625 119.66987609863281 373.5 119.0 371.0 C 119.66987609863281 368.5 121.5 366.66986083984375 124.0 366.0 C 126.5 366.66986083984375 128.3301239013672 368.5 129.0 371.0" stroke-width="0.0" fill="rgb(108, 166, 189)" opacity="1.0" stroke="rgb(150, 117, 48)" stroke-opacity="0.36895722" stroke-linecap="round" stroke-linejoin="round"/>
    <path d="M 310.0 181.0 C 309.33013916015625 183.5 307.5 185.3301239013672 305.0 186.0 C 302.5 185.3301239013672 300.66986083984375 183.5 300.0 181.0 C 300.66986083984375 178.5 302.5 176.6698760986328 305.0 176.0 C 307.5 176.6698760986328 309.33013916015625 178.5 310.0 181.0" stroke-width="0.0" fill="rgb(228, 187, 163)" opacity="1.0" stroke="rgb(210, 196, 97)" stroke-opacity="0.55245095" stroke-linecap="round" stroke-linejoin="round"/>
    <path d="M 165.0 484.0 C 164.3301239013672 486.5 162.5 488.33013916015625 160.0 489.0 C 157.5 488.33013916015625 155.6698760986328 486.5 155.0 484.0 C 155.6698760986328 481.5 157.5 479.66986083984375 160.0 479.0 C 162.5 479.66986083984375 164.3301239013672 481.5 165.0 484.0" stroke-width="0.0" fill="rgb(249, 239, 215)" opacity="1.0" stroke="rgb(53, 248, 236)" stroke-opacity="0.2279028" stroke-linecap="round" stroke-linejoin="round"/>
    <path d="M 279.0 257.0 C 278.33013916015625 259.5 276.5 261.33013916015625 274.0 262.0 C 271.5 261.33013916015625 269.66986083984375 259.5 269.0 257.0 C 269.66986083984375 254.5 271.5 252.6698760986328 274.0 252.0 C 276.5 252.6698760986328 278.33013916015625 254.5 279.0 257.0" stroke-width="0.0" fill="rgb(253, 244, 224)" opacity="1.0" stroke="rgb(78, 167, 9)" stroke-opacity="0.05587332" stroke-linecap="round" stroke-linejoin="round"/>
    <path d="M 110.0 180.0 C 109.33012390136719 182.5 107.5 184.3301239013672 105.0 185.0 C 102.5 184.3301239013672 100.66987609863281 182.5 100.0 180.0 C 100.66987609863281 177.5 102.5 175.6698760986328 105.0 175.0 C 107.5 175.6698760986328 109.33012390136719 177.5 110.0 180.0" stroke-width="0.0" fill="rgb(253, 246, 232)" opacity="1.0" stroke="rgb(141, 35, 83)" stroke-opacity="0.6696125" stroke-linecap="round" stroke-linejoin="round"/>
    <path d="M 505.0 347.0 C 504.33013916015625 349.5 502.5 351.33013916015625 500.0 352.0 C 497.5 351.33013916015625 495.66986083984375 349.5 495.0 347.0 C 495.66986083984375 344.5 497.5 342.66986083984375 500.0 342.0 C 502.5 342.66986083984375 504.33013916015625 344.5 505.0 347.0" stroke-width="0.0" fill="rgb(31, 31, 44)" opacity="1.0" stroke="rgb(131, 59, 113)" stroke-opacity="0.6858561" stroke-linecap="round" stroke-linejoin="round"/>
    <path d="M 323.0 497.0 C 322.33013916015625 499.5 320.5 501.33013916015625 318.0 502.0 C 315.5 501.33013916015625 313.66986083984375 499.5 313.0 497.0 C 313.66986083984375 494.5 315.5 492.66986083984375 318.0 492.0 C 320.5 492.66986083984375 322.33013916015625 494.5 323.0 497.0" stroke-width="0.0" fill="rgb(60, 98, 122)" opacity="1.0" stroke="rgb(119, 240, 94)" stroke-opacity="0.98377174" stroke-linecap="round" stroke-linejoin="round"/>
    <path d="M 90.0 171.0 C 89.33012390136719 173.5 87.5 175.3301239013672 85.0 176.0 C 82.5 175.3301239013672 80.66987609863281 173.5 80.0 171.0 C 80.66987609863281 168.5 82.5 166.6698760986328 85.0 166.0 C 87.5 166.6698760986328 89.33012390136719 168.5 90.0 171.0" stroke-width="0.0" fill="rgb(221, 190, 168)" opacity="1.0" stroke="rgb(126, 75, 213)" stroke-opacity="0.8151507" stroke-linecap="round" stroke-linejoin="round"/>
  </g>
</svg>
