<?xml version="1.0" ?>
<svg xmlns="http://www.w3.org/2000/svg" version="1.1" width="508" height="512">
  <defs/>
  <g>
    <path d="M 369.26434326171875 8.760078430175781 C 187.160400390625 101.96926879882812 285.38970947265625 -6.568339824676514 268.164306640625 194.97813415527344 C 121.19303894042969 255.76190185546875 94.23458862304688 229.40061950683594 5.85306978225708 160.45509338378906 C 5.567389488220215 -60.35978317260742 5.679983139038086 28.602474212646484 5.493283271789551 7.955257892608643 C 164.8843994140625 8.465300559997559 177.27099609375 7.219770431518555 369.26434326171875 8.760078430175781" stroke-width="0.0" fill="rgb(72, 115, 115)" opacity="0.40076005" stroke="rgb(119, 81, 41)" stroke-opacity="0.16812682" stroke-linecap="round" stroke-linejoin="round"/>
    <path d="M 329.0 68.0 C 328.33013916015625 70.5 326.5 72.33012390136719 324.0 73.0 C 321.5 72.33012390136719 319.66986083984375 70.5 319.0 68.0 C 319.66986083984375 65.5 321.5 63.66987228393555 324.0 63.0 C 326.5 63.66987228393555 328.33013916015625 65.5 329.0 68.0" stroke-width="0.0" fill="rgb(138, 172, 174)" opacity="1.0" stroke="rgb(41, 151, 200)" stroke-opacity="0.67778635" stroke-linecap="round" stroke-linejoin="round"/>
    <path d="M 351.0 50.0 C 350.33013916015625 52.5 348.5 54.33012771606445 346.0 55.0 C 343.5 54.33012771606445 341.66986083984375 52.5 341.0 50.0 C 341.66986083984375 47.5 343.5 45.66987228393555 346.0 45.0 C 348.5 45.66987228393555 350.33013916015625 47.5 351.0 50.0" stroke-width="0.0" fill="rgb(138, 172, 174)" opacity="1.0" stroke="rgb(40, 214, 80)" stroke-opacity="0.76732224" stroke-linecap="round" stroke-linejoin="round"/>
  </g>
</svg>
