<?xml version="1.0" ?>
<svg xmlns="http://www.w3.org/2000/svg" version="1.1" width="512" height="512">
  <defs/>
  <g>
    <path d="M 299.6325988769531 377.2845764160156 C 319.4220886230469 290.4842529296875 438.9349060058594 246.73648071289062 160.66624450683594 270.5041198730469 C 252.14730834960938 427.8587341308594 136.2989044189453 352.00152587890625 128.33924865722656 269.805419921875 C 121.56999206542969 150.49220275878906 238.505126953125 105.42068481445312 304.8848571777344 138.3591766357422 C 398.3868408203125 173.12767028808594 423.547119140625 322.87408447265625 299.6325988769531 377.2845764160156" stroke-width="0.0" fill="rgb(251, 188, 0)" opacity="0.7762853" stroke="rgb(123, 90, 128)" stroke-opacity="0.3687987" stroke-linecap="round" stroke-linejoin="round"/>
    <path d="M 334.3167724609375 305.37139892578125 C 320.6187438964844 372.4819641113281 306.91693115234375 375.2069091796875 283.4315185546875 380.9539794921875 C 252.9488983154297 387.7624206542969 217.2436065673828 383.7889099121094 184.24790954589844 361.8770446777344 C 184.81515502929688 279.9407958984375 171.28453063964844 327.99090576171875 231.97227478027344 344.2504577636719 C 266.6056213378906 353.50439453125 310.68902587890625 342.46661376953125 334.3167724609375 305.37139892578125" stroke-width="0.0" fill="rgb(251, 199, 42)" opacity="0.94954586" stroke="rgb(246, 216, 161)" stroke-opacity="0.08698233" stroke-linecap="round" stroke-linejoin="round"/>
    <path d="M 242.5680694580078 231.50624084472656 C 226.22171020507812 248.4108123779297 234.45372009277344 206.1749725341797 201.35784912109375 223.6588592529297 C 195.61203002929688 239.79466247558594 188.4462127685547 237.06727600097656 185.29293823242188 229.92694091796875 C 188.96778869628906 209.52296447753906 211.34828186035156 202.88699340820312 224.08541870117188 208.47451782226562 C 225.86769104003906 207.97398376464844 243.37591552734375 216.5644989013672 242.5680694580078 231.50624084472656" stroke-width="0.0" fill="rgb(72, 73, 77)" opacity="0.9724659" stroke="rgb(205, 201, 29)" stroke-opacity="0.9614203" stroke-linecap="round" stroke-linejoin="round"/>
  </g>
</svg>
