<?xml version="1.0" ?>
<svg xmlns="http://www.w3.org/2000/svg" version="1.1" width="512" height="485">
  <defs/>
  <g>
    <path d="M 0.13967958092689514 0.05081569403409958 L 512.0054321289062 -0.061943087726831436 L 512.1983032226562 484.9561767578125 L 0.23779721558094025 484.964599609375 L 0.13967958092689514 0.05081569403409958" stroke-width="0.0" fill="rgb(237, 222, 256)" opacity="1.0381014" stroke="rgb(0, 0, 0)" stroke-opacity="0.0" stroke-linecap="round" stroke-linejoin="round"/>
    <path d="M -0.3427180349826813 0.4683278203010559 L -0.33303001523017883 483.8574523925781 L 512.3421630859375 483.7386474609375 L 512.343017578125 -0.14206455647945404 L -0.3427180349826813 0.4683278203010559" stroke-width="2.0" fill="rgb(241, 238, 207)" opacity="1.0751098" stroke="rgb(0, 0, 0)" stroke-opacity="0.0" stroke-linecap="round" stroke-linejoin="round"/>
    <path d="M 405.2442321777344 66.14277648925781 C 367.85076904296875 61.0478401184082 325.8267822265625 39.125938415527344 292.2132263183594 86.11881256103516 C 286.0452575683594 96.67537689208984 283.9321594238281 107.34597778320312 283.6174621582031 117.83979797363281 C 270.7654113769531 118.78952026367188 258.9872741699219 124.29389190673828 244.37448120117188 126.87451171875 C 248.76531982421875 113.40120697021484 281.0756530761719 109.41470336914062 281.880859375 88.45893859863281 C 283.1302795410156 75.62059020996094 275.6133728027344 63.330867767333984 266.769775390625 51.71035385131836 C 234.81744384765625 66.45922088623047 224.94061279296875 97.8646240234375 244.7716827392578 118.37267303466797 C 236.64132690429688 125.71959686279297 239.19664001464844 141.14651489257812 228.89463806152344 136.05140686035156 C 223.465087890625 143.2474365234375 234.1061248779297 150.01014709472656 230.2477569580078 156.71629333496094 C 194.94725036621094 143.37583923339844 157.78756713867188 117.62057495117188 118.62358856201172 162.66558837890625 C 74.44570922851562 231.14492797851562 95.89018249511719 302.0288391113281 154.50003051757812 373.8609924316406 C 196.4783172607422 404.694580078125 239.11065673828125 385.16619873046875 285.00042724609375 393.47222900390625 C 335.24957275390625 384.1874084472656 369.49810791015625 316.61431884765625 378.8028869628906 277.5763244628906 C 383.8055114746094 239.97479248046875 395.44219970703125 201.25930786132812 360.1621398925781 165.42308044433594 C 320.2016906738281 136.771484375 281.1707763671875 147.7490997314453 241.828369140625 155.98236083984375 C 223.30709838867188 128.1815643310547 272.7325134277344 122.65036010742188 289.0225830078125 123.27532958984375 C 320.27203369140625 157.80099487304688 385.45257568359375 146.038330078125 399.5944519042969 96.23389434814453 L 405.2442321777344 66.14277648925781" stroke-width="2.0" fill="rgb(212, 73, 64)" opacity="1.0458473" stroke="rgb(0, 0, 0)" stroke-opacity="0.0" stroke-linecap="round" stroke-linejoin="round"/>
    <path d="M 161.99476623535156 138.169189453125 C 109.29297637939453 142.8346710205078 86.0311508178711 211.42910766601562 96.27171325683594 249.53114318847656 C 104.3523178100586 292.5469665527344 113.86328125 335.93170166015625 157.11099243164062 374.9155578613281 C 180.8359375 388.2709045410156 199.0684051513672 380.99835205078125 228.82423400878906 355.72216796875 C 279.6481628417969 304.1209411621094 289.0746154785156 248.8837432861328 270.8304748535156 195.65408325195312 C 251.19198608398438 168.40576171875 214.65150451660156 170.59866333007812 198.97598266601562 155.99429321289062 C 206.68324279785156 156.71109008789062 211.1925811767578 153.0626220703125 216.8916473388672 154.84579467773438 C 195.81866455078125 142.44192504882812 182.8490447998047 137.43243408203125 161.99476623535156 138.169189453125" stroke-width="2.0" fill="rgb(231, 70, 56)" opacity="1.0108874" stroke="rgb(0, 0, 0)" stroke-opacity="0.0" stroke-linecap="round" stroke-linejoin="round"/>
    <path d="M 233.91456604003906 137.49449157714844 C 240.05715942382812 139.9001007080078 253.97381591796875 126.46844482421875 264.5676574707031 126.92269897460938 C 282.4278259277344 114.28997802734375 301.62664794921875 140.1365203857422 321.7043762207031 143.78903198242188 C 346.3189697265625 146.6944580078125 372.96124267578125 142.71185302734375 391.6356201171875 117.70050048828125 C 399.948974609375 100.19697570800781 402.20367431640625 83.21302032470703 408.78472900390625 65.60513305664062 C 370.175537109375 61.26692581176758 329.9075012207031 37.1358642578125 294.4206237792969 82.07661437988281 C 285.7402038574219 93.83121490478516 283.06964111328125 105.03849792480469 283.5997619628906 117.59645080566406 C 269.8296203613281 120.33141326904297 256.0133361816406 121.14216613769531 244.3355255126953 128.60775756835938 C 246.6769561767578 112.94734954833984 277.2857360839844 116.50554656982422 281.0389404296875 92.73890686035156 C 286.4387512207031 77.49817657470703 277.63714599609375 61.37118148803711 266.2686767578125 51.72966384887695 C 233.56256103515625 68.40625762939453 222.05984497070312 94.31208038330078 243.9871368408203 117.75484466552734 L 233.91456604003906 137.49449157714844" stroke-width="2.0" fill="rgb(176, 198, 75)" opacity="0.8869778" stroke="rgb(0, 0, 0)" stroke-opacity="0.0" stroke-linecap="round" stroke-linejoin="round"/>
    <path d="M 123.8460922241211 392.170654296875 C 141.50076293945312 414.302490234375 171.57522583007812 406.84320068359375 193.80409240722656 412.0569152832031 C 246.0726318359375 407.33148193359375 301.24151611328125 422.6528015136719 352.6265869140625 398.5224304199219 C 338.63751220703125 372.89666748046875 305.548828125 383.654296875 285.08831787109375 392.36907958984375 C 264.3895568847656 394.9001159667969 243.1467742919922 384.25640869140625 222.28382873535156 390.3222961425781 C 190.92816162109375 398.8427734375 156.57716369628906 364.18292236328125 123.8460922241211 392.170654296875" stroke-width="2.0" fill="rgb(198, 193, 179)" opacity="0.8873021" stroke="rgb(0, 0, 0)" stroke-opacity="0.0" stroke-linecap="round" stroke-linejoin="round"/>
    <path d="M 142.23104858398438 183.6734161376953 C 105.8521499633789 199.76351928710938 120.24754333496094 260.0226745605469 158.16250610351562 266.9560546875 C 191.26885986328125 244.0501251220703 190.3086395263672 175.99984741210938 142.23104858398438 183.6734161376953" stroke-width="2.0" fill="rgb(240, 97, 77)" opacity="0.98677367" stroke="rgb(0, 0, 0)" stroke-opacity="0.0" stroke-linecap="round" stroke-linejoin="round"/>
    <path d="M 267.4378356933594 50.54258728027344 C 237.8974609375 65.83521270751953 222.6533203125 94.99896240234375 244.7414093017578 118.36192321777344 C 237.0512237548828 125.03225708007812 238.74114990234375 143.40106201171875 227.2485809326172 133.53175354003906 C 229.01422119140625 141.6576385498047 231.5496826171875 166.54437255859375 243.2452850341797 163.88565063476562 C 239.65284729003906 152.75064086914062 230.9196014404297 137.25013732910156 247.8125762939453 128.4834747314453 C 232.9805145263672 125.307861328125 258.16009521484375 113.56251525878906 269.2684020996094 110.56474304199219 C 289.4856872558594 90.04410552978516 281.8055419921875 70.19778442382812 267.4378356933594 50.54258728027344" stroke-width="2.0" fill="rgb(181, 181, 74)" opacity="0.806022" stroke="rgb(0, 0, 0)" stroke-opacity="0.0" stroke-linecap="round" stroke-linejoin="round"/>
    <path d="M 310.415771484375 156.16998291015625 C 302.6435852050781 174.64527893066406 335.26824951171875 177.70025634765625 345.5843200683594 187.9690704345703 C 380.0185241699219 224.8166961669922 357.5924072265625 262.0875244140625 355.9889221191406 299.57421875 C 374.4378356933594 255.55169677734375 389.9911193847656 211.50062561035156 348.1177978515625 168.08006286621094 C 335.84326171875 160.33425903320312 323.908447265625 154.3199005126953 310.415771484375 156.16998291015625" stroke-width="2.0" fill="rgb(241, 90, 66)" opacity="0.99454" stroke="rgb(0, 0, 0)" stroke-opacity="0.0" stroke-linecap="round" stroke-linejoin="round"/>
    <path d="M 210.58297729492188 386.0941162109375 C 211.01309204101562 397.7276306152344 226.46910095214844 390.98931884765625 233.53558349609375 387.17047119140625 C 242.3988800048828 391.2956848144531 262.384521484375 399.7752990722656 257.7041931152344 383.2467346191406 C 242.1162567138672 375.98382568359375 225.05886840820312 373.88714599609375 210.58297729492188 386.0941162109375" stroke-width="2.0" fill="rgb(125, 49, 53)" opacity="1.0101131" stroke="rgb(0, 0, 0)" stroke-opacity="0.0" stroke-linecap="round" stroke-linejoin="round"/>
    <path d="M 142.92807006835938 203.68984985351562 C 130.9322509765625 209.96315002441406 144.8751678466797 237.1610107421875 154.54042053222656 221.79183959960938 C 157.96510314941406 212.6133270263672 155.4170379638672 198.9089813232422 142.92807006835938 203.68984985351562" stroke-width="2.0" fill="rgb(247, 144, 135)" opacity="1.0055196" stroke="rgb(0, 0, 0)" stroke-opacity="0.0" stroke-linecap="round" stroke-linejoin="round"/>
    <path d="M 227.0881805419922 132.7506103515625 C 229.2694091796875 142.67636108398438 231.6083984375 167.43023681640625 244.40499877929688 166.1273651123047 C 236.62863159179688 153.16204833984375 243.928955078125 140.05918884277344 227.0881805419922 132.7506103515625" stroke-width="2.0" fill="rgb(99, 52, 49)" opacity="0.92790043" stroke="rgb(0, 0, 0)" stroke-opacity="0.0" stroke-linecap="round" stroke-linejoin="round"/>
  </g>
</svg>
