<?xml version="1.0" ?>
<svg xmlns="http://www.w3.org/2000/svg" version="1.1" width="512" height="384">
  <defs/>
  <g>
    <path d="M -10.0 -10.0 C -9.0 -10.0 512.0 0.0 513.0 0.0 C 514.0 0.0 512.0 384.0 513.0 384.0 C 513.0 385.0 0.0 384.0 0.0 385.0 C 0.0 384.0 0.0 385.0 -10.0 -10.0 L -10.0 -10.0" stroke-width="2.0" fill="rgb(253, 241, 218)" opacity="0.71796626"/>
    <path d="M 493.5845947265625 169.20118713378906 C 494.3562316894531 169.7786407470703 494.2525329589844 169.7383575439453 493.25872802734375 168.9379425048828 C 494.7912292480469 170.18434143066406 493.35650634765625 169.04931640625 494.00537109375 169.5023651123047 C 494.14141845703125 169.7328338623047 494.0513000488281 169.4573211669922 493.20318603515625 168.91470336914062 C 493.4776916503906 169.10873413085938 494.0136413574219 169.57781982421875 493.8208312988281 169.36807250976562 L 493.5845947265625 169.20118713378906" stroke-width="2.0" fill="rgb(45, 255, 255)" opacity="0.12963165"/>
    <path d="M 342.9359130859375 36.41521072387695 C 339.83636474609375 29.659042358398438 338.341552734375 29.906444549560547 339.959716796875 31.680479049682617 C 347.4307556152344 34.972373962402344 344.76129150390625 32.382198333740234 340.814453125 32.238651275634766 C 340.6916809082031 35.110313415527344 341.08489990234375 33.00028610229492 341.16583251953125 34.36442565917969 C 342.57275390625 33.167972564697266 341.1771545410156 33.989898681640625 340.2622375488281 32.684024810791016 L 342.9359130859375 36.41521072387695" stroke-width="2.0" fill="rgb(255, 126, 66)" opacity="0.11406361"/>
    <path d="M 78.28636932373047 217.58799743652344 C 160.77102661132812 163.60987854003906 177.41619873046875 182.06295776367188 220.45875549316406 194.3780059814453 C 200.23851013183594 244.9909210205078 184.82220458984375 238.2110595703125 182.85081481933594 230.980224609375 C 176.20310974121094 240.21090698242188 180.38836669921875 240.43377685546875 178.4561309814453 240.81100463867188 C 176.26084899902344 244.55429077148438 184.60467529296875 248.21356201171875 152.38819885253906 254.1118621826172 L 78.28636932373047 217.58799743652344" stroke-width="2.0" fill="rgb(255, 147, 3)" opacity="0.020760108"/>
    <path d="M 6.686775207519531 187.1754913330078 C 5.908640384674072 187.35826110839844 6.385462760925293 187.44577026367188 7.839406490325928 186.99465942382812 C 6.600526809692383 188.35659790039062 7.468149662017822 186.1201934814453 8.491771697998047 183.90721130371094 C 8.224302291870117 187.43470764160156 7.6935954093933105 184.78500366210938 6.2909040451049805 186.35751342773438 C 7.818230152130127 186.2786865234375 6.769071102142334 187.1582794189453 5.972845554351807 188.58993530273438 L 6.686775207519531 187.1754913330078" stroke-width="2.0" fill="rgb(255, 58, 153)" opacity="0.06227571"/>
    <path d="M 312.6374206542969 31.577281951904297 C 311.92791748046875 32.871826171875 313.177001953125 35.411163330078125 311.98651123046875 34.731224060058594 C 314.6632995605469 29.65705680847168 290.0789489746094 45.214080810546875 301.1969299316406 54.992530822753906 C 302.1866455078125 39.74112319946289 297.8572082519531 49.929481506347656 312.2812805175781 33.87998580932617 C 365.62664794921875 32.944210052490234 340.5774230957031 35.30719757080078 311.286376953125 34.41857147216797 L 312.6374206542969 31.577281951904297" stroke-width="2.0" fill="rgb(255, 157, 16)" opacity="0.2804849"/>
    <path d="M 245.04823303222656 135.0989990234375 C 244.7911834716797 134.1581268310547 244.80592346191406 134.40948486328125 245.03787231445312 135.1087646484375 C 246.98138427734375 137.26177978515625 246.0194091796875 136.17919921875 247.50653076171875 137.9566192626953 C 246.37887573242188 136.5421142578125 246.633544921875 136.98609924316406 246.6188201904297 136.87281799316406 C 245.60911560058594 135.80787658691406 246.2025909423828 136.4225616455078 247.10691833496094 137.49085998535156 L 245.04823303222656 135.0989990234375" stroke-width="2.0" fill="rgb(111, 255, 168)" opacity="0.082812354"/>
    <path d="M 9.5240478515625 194.05990600585938 C 10.141020774841309 194.54864501953125 9.985864639282227 194.74473571777344 9.730700492858887 196.02749633789062 C 10.021127700805664 194.80572509765625 10.071962356567383 194.08062744140625 10.031417846679688 198.55723571777344 C 10.079704284667969 194.62826538085938 10.074063301086426 193.7662353515625 10.320655822753906 195.77239990234375 C 10.224533081054688 194.0177459716797 9.836915969848633 194.30868530273438 11.932819366455078 195.34432983398438 L 9.5240478515625 194.05990600585938" stroke-width="2.0" fill="rgb(35, 66, 149)" opacity="0.029497799"/>
    <path d="M 27.451356887817383 226.9535369873047 C 28.897323608398438 228.2874755859375 28.27124786376953 226.34140014648438 28.153663635253906 225.716796875 C 27.5605525970459 226.30569458007812 28.928621292114258 224.52952575683594 28.267932891845703 226.3724822998047 C 28.709787368774414 224.4508056640625 28.4898624420166 225.6850128173828 28.651992797851562 225.91015625 C 28.349895477294922 225.3372802734375 27.961910247802734 225.69834899902344 28.297283172607422 225.8333740234375 L 27.451356887817383 226.9535369873047" stroke-width="2.0" fill="rgb(93, 192, 84)" opacity="0.2760389"/>
    <path d="M 513.1697387695312 422.07611083984375 C 420.50048828125 392.1724853515625 419.2042236328125 392.8525695800781 410.2122802734375 395.3464050292969 C 360.8028869628906 398.80084228515625 370.1701965332031 400.41217041015625 319.74261474609375 347.3263854980469 C 276.3429260253906 306.20684814453125 310.05841064453125 308.9692077636719 327.8034362792969 312.3199157714844 C 399.1574401855469 308.698974609375 404.4134216308594 315.06121826171875 507.87298583984375 354.9049377441406 L 513.1697387695312 422.07611083984375" stroke-width="2.0" fill="rgb(5, 153, 59)" opacity="0.361109"/>
    <path d="M 412.28106689453125 68.70581817626953 C 411.48199462890625 69.83576202392578 411.1206359863281 67.89884185791016 412.1712646484375 68.41438293457031 C 413.03790283203125 67.76918029785156 412.4930114746094 65.93305969238281 414.2738952636719 66.58798217773438 C 413.06048583984375 68.56802368164062 412.8127136230469 65.8160171508789 411.84295654296875 68.7469482421875 C 412.5021667480469 67.3270263671875 411.5709533691406 68.84082794189453 410.6130065917969 69.55508422851562 L 412.28106689453125 68.70581817626953" stroke-width="2.0" fill="rgb(92, 238, 85)" opacity="0.21871582"/>
    <path d="M 21.410959243774414 148.38888549804688 C 21.71954345703125 148.86888122558594 21.915176391601562 148.0895538330078 20.40266990661621 148.42767333984375 C 21.468093872070312 148.29043579101562 20.105932235717773 148.34231567382812 20.546091079711914 148.66929626464844 C 20.006860733032227 148.24310302734375 22.137340545654297 148.2296905517578 21.540679931640625 148.6815643310547 C 20.993444442749023 148.28131103515625 21.638154983520508 148.97166442871094 19.548234939575195 147.967041015625 L 21.410959243774414 148.38888549804688" stroke-width="2.0" fill="rgb(125, 121, 253)" opacity="0.1002724"/>
    <path d="M 490.1258850097656 237.64517211914062 C 508.92291259765625 263.2818908691406 436.3801574707031 250.7400665283203 381.664306640625 230.5720672607422 C 368.90496826171875 215.15774536132812 378.5683898925781 214.9775390625 383.1803283691406 200.93763732910156 C 395.6535949707031 180.1489715576172 397.5903015136719 175.20684814453125 409.4745178222656 155.7670135498047 C 446.8768615722656 153.48760986328125 433.92279052734375 137.94683837890625 454.7922058105469 174.49562072753906 L 490.1258850097656 237.64517211914062" stroke-width="2.0" fill="rgb(71, 98, 114)" opacity="0.92564857"/>
    <path d="M 416.07073974609375 111.26970672607422 C 418.2978820800781 106.45015716552734 380.6042785644531 112.4572982788086 330.16448974609375 108.11101531982422 C 445.716064453125 108.2481460571289 474.1506652832031 107.42039489746094 509.52313232421875 108.81954193115234 C 407.5685119628906 111.03108215332031 408.1451721191406 108.2396240234375 415.67572021484375 109.1793212890625 C 412.83087158203125 106.87249755859375 416.44134521484375 108.60206604003906 416.8762512207031 115.44755554199219 L 416.07073974609375 111.26970672607422" stroke-width="2.0" fill="rgb(255, 153, 9)" opacity="0.14803527"/>
    <path d="M 292.1097412109375 327.74652099609375 C 319.7966003417969 359.0339050292969 339.01385498046875 375.4326171875 354.9854736328125 396.0538635253906 C 241.52603149414062 400.7335205078125 268.7625732421875 392.1012268066406 180.12921142578125 304.9660339355469 C 280.59521484375 317.2813720703125 240.1072998046875 240.89398193359375 240.55479431152344 294.9709777832031 C 295.04656982421875 292.4212951660156 272.3619079589844 267.9601745605469 308.7356872558594 308.5963134765625 L 292.1097412109375 327.74652099609375" stroke-width="2.0" fill="rgb(69, 145, 114)" opacity="0.5244221"/>
    <path d="M 200.69517517089844 308.48211669921875 C 196.01441955566406 303.6222839355469 213.63949584960938 306.8761291503906 181.83343505859375 305.9481201171875 C 192.70468139648438 260.2896423339844 189.5316162109375 271.6637268066406 188.234375 270.5690002441406 C 167.39724731445312 268.00469970703125 171.19935607910156 281.5248107910156 181.7174530029297 233.82171630859375 C 183.0824737548828 236.51217651367188 186.4218292236328 253.4938507080078 190.86875915527344 267.8817138671875 L 200.69517517089844 308.48211669921875" stroke-width="2.0" fill="rgb(0, 54, 0)" opacity="1.0"/>
    <path d="M 76.72730255126953 347.4194030761719 C 96.62391662597656 385.27392578125 139.02931213378906 398.0176086425781 113.22885131835938 398.9155578613281 C 59.19382858276367 375.63916015625 65.27531433105469 355.6849365234375 69.2169189453125 370.6543273925781 C 40.85722351074219 315.56085205078125 78.9004135131836 286.6950378417969 13.586362838745117 251.60189819335938 C 78.34778594970703 247.49290466308594 73.40601348876953 326.9461975097656 72.00997161865234 321.139404296875 L 76.72730255126953 347.4194030761719" stroke-width="2.0" fill="rgb(0, 44, 210)" opacity="1.0"/>
    <path d="M 201.63223266601562 13.940230369567871 C 204.1079559326172 17.024263381958008 203.03773498535156 18.576332092285156 202.5767822265625 16.793155670166016 C 202.19448852539062 18.387605667114258 201.69911193847656 16.87327766418457 206.0655059814453 17.401901245117188 C 203.1180419921875 20.037382125854492 203.2950897216797 18.318193435668945 202.6089630126953 21.48202133178711 C 200.9416046142578 18.72478675842285 202.599609375 18.83702278137207 200.408935546875 20.164491653442383 L 201.63223266601562 13.940230369567871" stroke-width="2.0" fill="rgb(145, 37, 62)" opacity="0.015081022"/>
    <path d="M 528.6529541015625 281.5135803222656 C 524.7607421875 313.6780700683594 528.0355224609375 316.70989990234375 523.1636962890625 379.84234619140625 C 476.9436340332031 359.0679016113281 486.0863342285156 340.4299011230469 446.2685852050781 315.06097412109375 C 431.6282043457031 217.85482788085938 421.6800842285156 223.4188232421875 432.4200134277344 200.44700622558594 C 472.5328674316406 190.58689880371094 468.5267028808594 203.5325927734375 499.7413024902344 253.3661346435547 L 528.6529541015625 281.5135803222656" stroke-width="2.0" fill="rgb(76, 111, 131)" opacity="0.7501896"/>
    <path d="M 34.658729553222656 164.1619415283203 C 38.1430549621582 162.82191467285156 38.94684982299805 162.56553649902344 38.99675369262695 162.5451202392578 C 39.16056823730469 164.4674835205078 39.118202209472656 162.78477478027344 38.842750549316406 160.98526000976562 C 38.08208465576172 159.47193908691406 38.947853088378906 160.91151428222656 37.80712890625 159.302734375 C 39.36735153198242 161.0998992919922 38.739288330078125 162.286376953125 39.07481002807617 162.4878387451172 L 34.658729553222656 164.1619415283203" stroke-width="2.0" fill="rgb(109, 159, 249)" opacity="0.2281941"/>
    <path d="M 246.76011657714844 260.3298034667969 C 233.32176208496094 302.8351745605469 328.2030334472656 313.4441833496094 284.6263427734375 386.5948486328125 C 233.0030517578125 333.0573425292969 244.15411376953125 343.834228515625 239.85873413085938 340.26123046875 C 184.13040161132812 277.40814208984375 207.73587036132812 324.0167236328125 216.4642791748047 265.0123291015625 C 263.85101318359375 261.86517333984375 286.465576171875 257.6506042480469 302.4503173828125 330.4451599121094 L 246.76011657714844 260.3298034667969" stroke-width="2.0" fill="rgb(80, 90, 143)" opacity="0.47493985"/>
    <path d="M 90.3406753540039 225.8345184326172 C 88.16618347167969 224.01161193847656 88.0273208618164 223.894287109375 89.03778839111328 224.93173217773438 C 90.07453918457031 225.80296325683594 89.28662109375 224.93324279785156 89.87989044189453 225.4662322998047 C 87.84149169921875 223.7725830078125 88.56797790527344 224.27760314941406 90.0180435180664 226.025390625 C 88.73687744140625 224.30770874023438 90.24345397949219 226.2069091796875 88.78103637695312 224.9029541015625 L 90.3406753540039 225.8345184326172" stroke-width="2.0" fill="rgb(117, 250, 176)" opacity="0.094286904"/>
    <path d="M 452.0451354980469 251.89881896972656 C 434.208984375 252.1973876953125 435.8223876953125 250.69393920898438 437.68963623046875 252.1401824951172 C 362.62835693359375 251.23350524902344 358.54925537109375 248.73680114746094 364.5277404785156 239.4600067138672 C 377.8351135253906 204.6695098876953 384.2625732421875 202.24110412597656 393.7699890136719 183.74917602539062 C 403.7103271484375 168.3745574951172 398.4273681640625 161.90745544433594 445.38287353515625 158.84336853027344 L 452.0451354980469 251.89881896972656" stroke-width="2.0" fill="rgb(83, 109, 122)" opacity="0.9984226"/>
    <path d="M 430.379150390625 26.763893127441406 C 431.02459716796875 25.30487632751465 430.5763244628906 27.557022094726562 429.2633972167969 29.63385009765625 C 431.2626647949219 26.826875686645508 428.6239929199219 26.770477294921875 432.2803039550781 29.775562286376953 C 428.4864196777344 26.49281120300293 429.9584045410156 26.543071746826172 429.74688720703125 27.96316146850586 C 430.64752197265625 25.951492309570312 430.47735595703125 26.781230926513672 432.3814697265625 27.185110092163086 L 430.379150390625 26.763893127441406" stroke-width="2.0" fill="rgb(138, 47, 225)" opacity="0.10480053"/>
    <path d="M 387.6575012207031 56.604576110839844 C 386.7569580078125 54.711917877197266 386.0081481933594 54.85832595825195 386.34228515625 55.988677978515625 C 389.31451416015625 56.45766830444336 388.5559997558594 55.631107330322266 388.8584899902344 56.905738830566406 C 386.9983825683594 57.73334884643555 389.2414245605469 57.27214431762695 389.5204162597656 59.497737884521484 C 387.3387756347656 57.691287994384766 388.97235107421875 57.59845733642578 388.5133361816406 57.96021270751953 L 387.6575012207031 56.604576110839844" stroke-width="2.0" fill="rgb(83, 134, 206)" opacity="0.007623815"/>
    <path d="M 467.0784912109375 193.53199768066406 C 439.443115234375 147.20555114746094 434.00250244140625 138.7661590576172 445.4272155761719 156.86453247070312 C 443.74371337890625 156.77346801757812 398.6278991699219 156.97314453125 408.6663513183594 156.973876953125 C 414.1429443359375 147.1669158935547 417.9539794921875 141.35618591308594 425.94268798828125 127.1641845703125 C 427.64837646484375 125.93052673339844 422.52301025390625 116.45392608642578 437.1830749511719 143.80760192871094 L 467.0784912109375 193.53199768066406" stroke-width="2.0" fill="rgb(198, 207, 211)" opacity="0.99065614"/>
    <path d="M 254.67640686035156 305.68499755859375 C 207.00726318359375 309.18670654296875 277.14300537109375 293.3054504394531 196.7106170654297 297.8280944824219 C 190.4517364501953 307.44488525390625 193.9903106689453 305.0279235839844 192.651611328125 310.9788818359375 C 199.43873596191406 267.98284912109375 190.04388427734375 273.6083679199219 204.6222686767578 224.62039184570312 C 215.73178100585938 271.10345458984375 220.85247802734375 291.1240234375 231.01473999023438 239.10379028320312 L 254.67640686035156 305.68499755859375" stroke-width="2.0" fill="rgb(0, 63, 0)" opacity="0.7198378"/>
    <path d="M 201.31532287597656 307.1366882324219 C 279.4823913574219 393.57513427734375 290.0362854003906 391.533447265625 264.8216247558594 407.06414794921875 C 240.93722534179688 396.7513732910156 214.9036407470703 363.01055908203125 164.4998779296875 312.2621765136719 C 141.91354370117188 282.80743408203125 147.83226013183594 320.3536071777344 187.58665466308594 258.001708984375 C 278.12493896484375 273.00531005859375 237.4281463623047 269.7015075683594 238.42642211914062 301.94183349609375 L 201.31532287597656 307.1366882324219" stroke-width="2.0" fill="rgb(103, 148, 140)" opacity="0.58637714"/>
    <path d="M 408.9722900390625 255.9420928955078 C 397.8260192871094 262.7325744628906 391.33984375 261.9496154785156 366.8269958496094 255.19711303710938 C 317.7240295410156 263.2519226074219 334.7385559082031 268.0765380859375 317.31146240234375 251.6004180908203 C 327.9165344238281 233.43902587890625 334.319091796875 222.43453979492188 338.76629638671875 214.48440551757812 C 400.2182312011719 214.68507385253906 404.3168029785156 214.49766540527344 393.4225769042969 219.2144775390625 L 408.9722900390625 255.9420928955078" stroke-width="2.0" fill="rgb(83, 109, 121)" opacity="0.9995752"/>
    <path d="M 143.0872344970703 156.26829528808594 C 122.03675079345703 169.32684326171875 82.95675659179688 202.45077514648438 35.615962982177734 159.67257690429688 C 2.4113664627075195 121.12803649902344 17.137615203857422 64.1519775390625 70.44648742675781 47.426963806152344 C 132.284912109375 48.620887756347656 27.89581298828125 40.38585662841797 21.010114669799805 49.827980041503906 C 100.32696533203125 35.27397155761719 147.4156951904297 54.876487731933594 152.2091522216797 116.05960845947266 L 143.0872344970703 156.26829528808594" stroke-width="2.0" fill="rgb(247, 147, 0)" opacity="0.44015914"/>
    <path d="M 245.36187744140625 152.92355346679688 C 245.2654571533203 150.13729858398438 246.30123901367188 152.60665893554688 246.1399688720703 151.66233825683594 C 243.57545471191406 153.5580291748047 244.25233459472656 154.52870178222656 246.2418212890625 152.37603759765625 C 246.69573974609375 155.29273986816406 246.94705200195312 155.45681762695312 246.07852172851562 155.23426818847656 C 246.1625518798828 154.9754638671875 246.07505798339844 155.49147033691406 246.56170654296875 153.0722198486328 L 245.36187744140625 152.92355346679688" stroke-width="2.0" fill="rgb(186, 121, 129)" opacity="0.094379455"/>
    <path d="M 125.47175598144531 289.9504699707031 C 146.03871154785156 204.08103942871094 119.77197265625 173.49314880371094 125.38426971435547 213.21717834472656 C 125.96234893798828 97.89002990722656 131.32875061035156 144.2712860107422 106.907958984375 180.03111267089844 C 160.8939666748047 214.0908966064453 106.78673553466797 236.15921020507812 149.67843627929688 73.7019271850586 C 103.21125793457031 221.13694763183594 95.77397155761719 160.83741760253906 124.68648529052734 194.81678771972656 L 125.47175598144531 289.9504699707031" stroke-width="2.0" fill="rgb(98, 117, 126)" opacity="1.0"/>
    <path d="M 457.0756530761719 322.1820373535156 C 451.55126953125 314.1380310058594 530.240966796875 285.9971008300781 507.65789794921875 419.14263916015625 C 442.065673828125 395.9772033691406 424.34014892578125 358.0628356933594 360.3712158203125 297.0233459472656 C 310.13580322265625 240.5692138671875 304.2867431640625 253.29788208007812 359.608154296875 251.49217224121094 C 496.1909484863281 252.3848419189453 445.3042907714844 250.2491912841797 454.4726257324219 240.76766967773438 L 457.0756530761719 322.1820373535156" stroke-width="2.0" fill="rgb(120, 144, 156)" opacity="1.0"/>
    <path d="M 48.02684020996094 34.5126838684082 C -2.1248178482055664 12.500295639038086 -7.309235095977783 26.575761795043945 27.749263763427734 78.04669952392578 C 65.9177017211914 -11.79249382019043 96.80531311035156 -12.292718887329102 -13.398493766784668 0.7838413119316101 C 52.99546813964844 126.53770446777344 0.12395581603050232 64.0750503540039 75.69715118408203 47.712501525878906 C -7.068885326385498 1.6887534856796265 -22.67312240600586 24.73426055908203 4.294486999511719 128.00103759765625 L 48.02684020996094 34.5126838684082" stroke-width="2.0" fill="rgb(255, 242, 223)" opacity="0.98368454"/>
    <path d="M 509.89654541015625 114.59920501708984 C 509.4967041015625 113.58936309814453 508.7253112792969 113.37537384033203 509.4823913574219 113.98700714111328 C 510.5120544433594 114.6952133178711 509.76922607421875 114.0357666015625 509.9680480957031 114.43038177490234 C 509.38360595703125 116.19647979736328 510.6949157714844 115.77986907958984 511.8079528808594 117.16845703125 C 509.58648681640625 115.16796112060547 510.3963317871094 115.86943817138672 510.0395812988281 116.02910614013672 L 509.89654541015625 114.59920501708984" stroke-width="2.0" fill="rgb(226, 120, 255)" opacity="0.0"/>
    <path d="M 144.89697265625 314.0315246582031 C 130.78863525390625 334.7145690917969 128.89065551757812 340.32366943359375 99.16787719726562 399.1414489746094 C 50.25617218017578 399.4037780761719 81.6937255859375 382.2846984863281 79.96653747558594 335.6783752441406 C 79.71802520751953 268.0867919921875 79.73939514160156 256.5694885253906 79.63680267333984 251.65325927734375 C 152.27037048339844 252.19664001464844 87.3899917602539 250.37403869628906 193.39456176757812 252.4550323486328 L 144.89697265625 314.0315246582031" stroke-width="2.0" fill="rgb(28, 159, 74)" opacity="0.4005035"/>
    <path d="M 171.01840209960938 125.8503646850586 C 169.83665466308594 123.03776550292969 170.1323699951172 124.03913879394531 170.44793701171875 124.32530975341797 C 171.62008666992188 126.5037841796875 169.96165466308594 123.25202941894531 170.2952880859375 124.08221435546875 C 169.778564453125 124.67572784423828 171.21652221679688 124.02313995361328 169.5524444580078 123.92044067382812 C 170.31834411621094 124.22906494140625 171.82925415039062 124.50433349609375 170.348876953125 124.28760528564453 L 171.01840209960938 125.8503646850586" stroke-width="2.0" fill="rgb(107, 240, 190)" opacity="0.11860709"/>
    <path d="M 417.8369140625 99.01339721679688 C 420.3979187011719 99.33856201171875 420.2529602050781 98.59465026855469 419.752197265625 101.50288391113281 C 420.26409912109375 97.5175552368164 420.18682861328125 98.40252685546875 419.8785095214844 101.59352111816406 C 420.183837890625 98.63118743896484 420.5050354003906 99.21874237060547 417.05609130859375 99.08084869384766 C 419.7355651855469 99.10570526123047 419.2001647949219 99.11011505126953 418.84527587890625 99.12654876708984 L 417.8369140625 99.01339721679688" stroke-width="2.0" fill="rgb(86, 60, 70)" opacity="0.2696638"/>
    <path d="M 531.61279296875 251.88096618652344 C 494.2384948730469 287.40521240234375 522.304443359375 231.00172424316406 481.8737487792969 285.0511169433594 C 494.03594970703125 261.4551696777344 542.4617919921875 246.50694274902344 433.4356384277344 252.78318786621094 C 433.1695251464844 191.3284149169922 433.88134765625 182.62408447265625 454.920166015625 175.1700439453125 C 494.052490234375 243.23684692382812 500.83782958984375 255.5221405029297 497.861328125 251.8292694091797 L 531.61279296875 251.88096618652344" stroke-width="2.0" fill="rgb(85, 110, 115)" opacity="0.46114603"/>
    <path d="M 80.01055908203125 341.0777893066406 C 79.21553802490234 346.0985107421875 82.97079467773438 347.9844055175781 66.4861831665039 402.7001037597656 C -53.82700729370117 399.1451110839844 -40.003440856933594 389.8295593261719 0.3602239787578583 385.755859375 C 0.44412145018577576 249.45204162597656 0.26620960235595703 248.03268432617188 0.2592759132385254 251.63975524902344 C 55.6609001159668 251.39242553710938 75.06185150146484 251.9004669189453 79.64163208007812 251.66476440429688 L 80.01055908203125 341.0777893066406" stroke-width="2.0" fill="rgb(9, 159, 58)" opacity="0.36442697"/>
    <path d="M 271.2748718261719 277.49444580078125 C 280.13641357421875 249.5408477783203 273.13134765625 246.07650756835938 285.31768798828125 290.3035583496094 C 246.46559143066406 303.76953125 295.6474914550781 259.4482727050781 249.5148162841797 265.63861083984375 C 251.8891143798828 256.42340087890625 254.77415466308594 244.38015747070312 258.8573913574219 227.79824829101562 C 258.0992126464844 228.98309326171875 260.7659606933594 236.438720703125 263.1642761230469 247.17160034179688 L 271.2748718261719 277.49444580078125" stroke-width="2.0" fill="rgb(27, 76, 24)" opacity="0.95217437"/>
    <path d="M 81.9035415649414 188.1863555908203 C 81.72391510009766 185.27490234375 77.24471282958984 187.1219024658203 81.62628936767578 193.7657928466797 C 83.22466278076172 191.6331787109375 82.31282043457031 184.12705993652344 97.32347106933594 188.89259338378906 C 88.74070739746094 203.41848754882812 83.19108581542969 199.10256958007812 80.53751373291016 191.1872100830078 C 84.37247467041016 190.23983764648438 86.34024047851562 196.75074768066406 74.6248550415039 201.3243865966797 L 81.9035415649414 188.1863555908203" stroke-width="2.0" fill="rgb(255, 186, 94)" opacity="0.03730238"/>
    <path d="M 318.266357421875 56.040061950683594 C 316.4499816894531 55.977108001708984 317.9222412109375 55.18903732299805 317.9557800292969 55.4320068359375 C 318.21954345703125 54.99076843261719 317.5281066894531 56.342529296875 318.6070861816406 59.7563362121582 C 317.4437255859375 56.45219802856445 318.3229064941406 55.44194412231445 317.8965148925781 57.00682067871094 C 318.53558349609375 54.25518035888672 316.864990234375 55.79045104980469 317.5946960449219 55.98397445678711 L 318.266357421875 56.040061950683594" stroke-width="2.0" fill="rgb(255, 108, 91)" opacity="0.0"/>
    <path d="M 289.97747802734375 293.5889587402344 C 239.61940002441406 288.3293762207031 234.7462158203125 300.6761169433594 231.84915161132812 325.9672546386719 C 231.8660430908203 318.5791931152344 237.6682586669922 301.3085021972656 243.16366577148438 277.9041442871094 C 205.13211059570312 250.14601135253906 187.73292541503906 266.0736999511719 176.5154571533203 251.34812927246094 C 266.49505615234375 252.10317993164062 243.42572021484375 251.29791259765625 309.4610595703125 251.7920379638672 L 289.97747802734375 293.5889587402344" stroke-width="2.0" fill="rgb(0, 130, 35)" opacity="0.32134318"/>
    <path d="M 273.77142333984375 228.42660522460938 C 273.26654052734375 227.7615509033203 274.0419006347656 229.85537719726562 273.8859558105469 231.07708740234375 C 273.6082458496094 229.0406494140625 273.441162109375 230.4033660888672 274.6284484863281 232.89764404296875 C 273.8872375488281 230.89210510253906 273.70343017578125 231.37355041503906 273.8580627441406 229.8334503173828 C 273.69598388671875 227.0260467529297 273.85015869140625 230.3779754638672 273.8510437011719 233.45164489746094 L 273.77142333984375 228.42660522460938" stroke-width="2.0" fill="rgb(169, 143, 235)" opacity="0.20225997"/>
    <path d="M 322.5948791503906 322.5543518066406 C 326.7095642089844 326.8079528808594 345.1978759765625 346.2429504394531 392.45965576171875 395.4246826171875 C 326.9137878417969 398.1791076660156 304.4344177246094 399.2299499511719 285.5404052734375 397.10247802734375 C 305.68267822265625 275.3637390136719 276.3988952636719 279.6987609863281 323.31256103515625 322.54083251953125 C 332.7637939453125 322.82525634765625 348.5978088378906 323.0321350097656 345.9264221191406 322.9756164550781 L 322.5948791503906 322.5543518066406" stroke-width="2.0" fill="rgb(89, 111, 143)" opacity="0.555544"/>
    <path d="M 248.10804748535156 389.8468933105469 C 225.30343627929688 410.0528564453125 209.2769012451172 394.4259033203125 200.34254455566406 396.29925537109375 C 151.48609924316406 395.4727478027344 146.03880310058594 397.784912109375 102.31205749511719 392.3526306152344 C 128.7865447998047 342.0760803222656 131.15309143066406 329.119140625 158.84561157226562 296.5528869628906 C 172.0748748779297 310.3536376953125 190.4102783203125 329.54840087890625 208.5815887451172 348.58856201171875 L 248.10804748535156 389.8468933105469" stroke-width="2.0" fill="rgb(33, 156, 80)" opacity="0.3988916"/>
    <path d="M 227.4892120361328 30.553380966186523 C 230.1417694091797 29.759735107421875 230.17462158203125 31.412277221679688 231.13772583007812 28.891464233398438 C 230.0055389404297 31.766847610473633 231.02493286132812 30.00128746032715 229.91505432128906 27.35300636291504 C 228.76905822753906 30.902524948120117 229.389404296875 30.887218475341797 232.75611877441406 28.337017059326172 C 228.1305389404297 29.46597671508789 228.0050048828125 30.020912170410156 232.37234497070312 30.153627395629883 L 227.4892120361328 30.553380966186523" stroke-width="2.0" fill="rgb(142, 232, 89)" opacity="0.08873579"/>
    <path d="M 352.3573303222656 287.6731872558594 C 382.18243408203125 320.9322509765625 382.2411193847656 310.61181640625 352.879638671875 311.482666015625 C 291.6650085449219 314.1291198730469 319.14935302734375 308.6520080566406 291.1095275878906 293.253173828125 C 317.0290832519531 215.16268920898438 319.24053955078125 266.41796875 353.373779296875 285.2967834472656 C 369.9062805175781 234.4640655517578 374.6159362792969 223.39566040039062 367.05267333984375 244.34469604492188 L 352.3573303222656 287.6731872558594" stroke-width="2.0" fill="rgb(100, 191, 122)" opacity="0.57685935"/>
    <path d="M 91.53802490234375 246.37875366210938 C 87.95443725585938 245.4818115234375 88.97306823730469 245.68312072753906 89.73973846435547 246.1179656982422 C 90.4436264038086 245.2522735595703 88.51595306396484 246.6243438720703 88.18534851074219 246.48745727539062 C 88.91901397705078 246.57525634765625 90.27947235107422 245.5078887939453 89.5885238647461 245.55894470214844 C 88.46696472167969 245.42530822753906 91.91646575927734 246.52320861816406 88.75171661376953 245.37982177734375 L 91.53802490234375 246.37875366210938" stroke-width="2.0" fill="rgb(99, 92, 252)" opacity="0.13921684"/>
  </g>
</svg>
