<?xml version="1.0" ?>
<svg xmlns="http://www.w3.org/2000/svg" version="1.1" width="508" height="512">
  <defs/>
  <g>
    <path d="M 390.78082275390625 8.02119255065918 C 134.648193359375 90.18861389160156 332.9704895019531 4.9790167808532715 245.1850128173828 231.1782989501953 C 88.94645690917969 269.18927001953125 73.6036605834961 238.6056365966797 5.8189697265625 181.3407440185547 C 5.513389587402344 -59.06805419921875 5.829604148864746 27.480350494384766 5.586411952972412 8.001566886901855 C 166.91104125976562 8.008962631225586 179.4027862548828 8.01236629486084 390.78082275390625 8.02119255065918" stroke-width="0.0" fill="rgb(82, 78, 71)" opacity="0.3998957" stroke="rgb(251, 116, 200)" stroke-opacity="0.8058085" stroke-linecap="round" stroke-linejoin="round"/>
    <path d="M 485.2350158691406 8.800609588623047 C 417.0367736816406 54.45444107055664 383.3370056152344 7.0054473876953125 374.5870361328125 177.3220672607422 C 249.39767456054688 241.13169860839844 260.30157470703125 241.81520080566406 276.73553466796875 7.995575904846191 C 359.5487060546875 7.992091178894043 376.9439697265625 7.9902567863464355 413.62603759765625 8.025728225708008 C 431.38861083984375 8.90025806427002 442.5169982910156 7.0290913581848145 485.2350158691406 8.800609588623047" stroke-width="0.0" fill="rgb(127, 166, 171)" opacity="0.74512756" stroke="rgb(61, 194, 157)" stroke-opacity="0.41333875" stroke-linecap="round" stroke-linejoin="round"/>
    <path d="M 502.3209228515625 160.5908966064453 C 470.4265441894531 310.5881652832031 571.020263671875 340.4291687011719 326.0929260253906 329.5707702636719 C 331.65277099609375 47.1717414855957 417.74945068359375 40.457794189453125 375.4309997558594 23.806671142578125 C 375.5296325683594 4.919447422027588 370.5898742675781 8.376742362976074 502.3465881347656 8.055686950683594 C 502.3363342285156 12.20938491821289 502.34588623046875 -23.328107833862305 502.3209228515625 160.5908966064453" stroke-width="0.0" fill="rgb(123, 142, 144)" opacity="0.46416634" stroke="rgb(15, 50, 81)" stroke-opacity="0.75178576" stroke-linecap="round" stroke-linejoin="round"/>
    <path d="M 207.30636596679688 401.71282958984375 C 215.37142944335938 436.8127136230469 206.36009216308594 411.850830078125 58.84394073486328 424.2516174316406 C 0.3331393599510193 428.6790771484375 -22.008115768432617 388.4813232421875 49.870086669921875 402.5670166015625 C 136.95620727539062 369.6460876464844 126.56781768798828 381.3022766113281 125.20160675048828 400.5804443359375 C 181.26414489746094 401.051513671875 190.4938201904297 400.324462890625 207.30636596679688 401.71282958984375" stroke-width="0.0" fill="rgb(17, 19, 40)" opacity="0.77324253" stroke="rgb(161, 239, 92)" stroke-opacity="0.22011566" stroke-linecap="round" stroke-linejoin="round"/>
    <path d="M 253.476318359375 391.0782775878906 C 341.5508728027344 376.4921569824219 435.6579284667969 435.2539367675781 334.05084228515625 431.9502868652344 C 162.24612426757812 432.1564025878906 161.05519104003906 428.5650939941406 169.97325134277344 436.775146484375 C 161.52215576171875 457.72637939453125 243.69102478027344 371.2524719238281 166.35826110839844 267.5846862792969 C 205.41738891601562 222.4464874267578 312.16168212890625 249.59384155273438 253.476318359375 391.0782775878906" stroke-width="0.0" fill="rgb(3, 37, 67)" opacity="0.4515017" stroke="rgb(163, 129, 175)" stroke-opacity="0.40682498" stroke-linecap="round" stroke-linejoin="round"/>
    <path d="M 307.5277404785156 69.26480865478516 C 309.01019287109375 74.29708862304688 301.364501953125 95.01923370361328 278.5553894042969 93.29947662353516 C 259.6234130859375 87.30264282226562 274.4811706542969 98.04627227783203 272.9284362792969 44.30885696411133 C 277.3321533203125 44.19904327392578 271.9523620605469 43.359249114990234 282.1221923828125 43.23295211791992 C 298.1495666503906 42.35761260986328 309.4352111816406 59.41994094848633 307.5277404785156 69.26480865478516" stroke-width="0.0" fill="rgb(255, 247, 229)" opacity="0.9730804" stroke="rgb(224, 169, 237)" stroke-opacity="0.20790005" stroke-linecap="round" stroke-linejoin="round"/>
    <path d="M 143.46542358398438 307.2973937988281 C 148.73777770996094 414.72064208984375 129.51223754882812 303.19244384765625 132.89695739746094 407.06817626953125 C 20.742115020751953 433.85870361328125 5.45157527923584 350.6666564941406 86.07313537597656 373.3739318847656 C 96.42781066894531 231.8719482421875 56.15517807006836 359.81842041015625 54.43324279785156 266.76165771484375 C 216.14047241210938 314.8013916015625 262.44989013671875 304.0354919433594 143.46542358398438 307.2973937988281" stroke-width="0.0" fill="rgb(0, 91, 131)" opacity="0.38742626" stroke="rgb(67, 228, 215)" stroke-opacity="0.45659196" stroke-linecap="round" stroke-linejoin="round"/>
    <path d="M 127.15586853027344 220.0417938232422 C 126.12248992919922 268.4753112792969 132.0457763671875 249.29238891601562 117.7732162475586 249.38890075683594 C 90.53382110595703 235.84039306640625 99.14939880371094 262.9777526855469 97.13301849365234 209.51943969726562 C 101.73587799072266 206.6993865966797 119.1841049194336 238.35462951660156 115.0140151977539 206.57440185546875 C 129.6133270263672 196.18218994140625 126.69554901123047 205.39447021484375 127.15586853027344 220.0417938232422" stroke-width="0.0" fill="rgb(255, 249, 231)" opacity="0.9468835" stroke="rgb(227, 105, 121)" stroke-opacity="0.335188" stroke-linecap="round" stroke-linejoin="round"/>
    <path d="M 422.37396240234375 258.6659240722656 C 429.71728515625 255.8993682861328 420.5400085449219 247.1541290283203 399.5981140136719 265.6953430175781 C 414.0369567871094 314.5688781738281 352.9405517578125 289.7937927246094 366.6963195800781 271.17333984375 C 414.66778564453125 231.0150604248047 386.7692565917969 211.08880615234375 394.97967529296875 213.13340759277344 C 416.2244873046875 216.66482543945312 410.2115478515625 196.1598358154297 422.37396240234375 258.6659240722656" stroke-width="0.0" fill="rgb(53, 74, 99)" opacity="0.85920686" stroke="rgb(220, 241, 89)" stroke-opacity="0.7462871" stroke-linecap="round" stroke-linejoin="round"/>
    <path d="M 506.227783203125 499.638427734375 C 338.4090881347656 509.0014953613281 318.6370544433594 503.063232421875 231.83863830566406 505.0879211425781 C 223.04307556152344 504.3401794433594 202.732177734375 505.2160949707031 22.94325065612793 504.76239013671875 C 20.203895568847656 366.4199523925781 90.40015411376953 453.62646484375 257.5948181152344 440.30712890625 C 445.9452819824219 455.82427978515625 493.4024658203125 375.5635986328125 506.227783203125 499.638427734375" stroke-width="0.0" fill="rgb(61, 110, 130)" opacity="0.66834027" stroke="rgb(86, 227, 114)" stroke-opacity="0.94183886" stroke-linecap="round" stroke-linejoin="round"/>
    <path d="M 397.001953125 229.34152221679688 C 399.4033508300781 248.89048767089844 406.8223571777344 277.4956359863281 377.236328125 249.01304626464844 C 377.7407531738281 247.06253051757812 377.156494140625 234.68284606933594 377.48980712890625 216.35125732421875 C 367.9375305175781 197.50621032714844 387.7334899902344 140.1972198486328 351.90435791015625 127.1856918334961 C 413.55963134765625 141.62840270996094 387.8202819824219 180.92263793945312 397.001953125 229.34152221679688" stroke-width="0.0" fill="rgb(32, 35, 56)" opacity="0.9100449" stroke="rgb(179, 50, 32)" stroke-opacity="0.7567854" stroke-linecap="round" stroke-linejoin="round"/>
    <path d="M 127.21153259277344 169.0023651123047 C 126.10079193115234 229.2342071533203 131.61268615722656 204.85882568359375 110.60069274902344 207.41452026367188 C 111.6131820678711 238.037353515625 95.45648956298828 245.95184326171875 97.4891128540039 172.49575805664062 C 144.0431365966797 165.90711975097656 95.03704833984375 188.03709411621094 115.99211883544922 188.99049377441406 C 114.39803314208984 161.1334228515625 128.5244903564453 176.51771545410156 127.21153259277344 169.0023651123047" stroke-width="0.0" fill="rgb(255, 248, 230)" opacity="0.9650795" stroke="rgb(191, 158, 221)" stroke-opacity="0.8727485" stroke-linecap="round" stroke-linejoin="round"/>
    <path d="M 466.8855285644531 208.7684326171875 C 471.49212646484375 272.4557800292969 479.07232666015625 260.9464111328125 423.4846496582031 262.5944519042969 C 377.97698974609375 261.02606201171875 390.83477783203125 271.79571533203125 399.9677734375 232.61288452148438 C 424.13385009765625 196.44329833984375 422.3106384277344 223.72544860839844 429.04010009765625 212.3752899169922 C 467.6730651855469 224.5399932861328 447.0276794433594 195.43968200683594 466.8855285644531 208.7684326171875" stroke-width="0.0" fill="rgb(45, 46, 65)" opacity="0.98833746" stroke="rgb(208, 31, 45)" stroke-opacity="0.037523538" stroke-linecap="round" stroke-linejoin="round"/>
    <path d="M 501.9487609863281 270.1376037597656 C 498.461181640625 266.8719482421875 512.847900390625 259.0682678222656 464.0768737792969 263.29541015625 C 454.0675964355469 258.1390686035156 458.68511962890625 278.6336975097656 457.356689453125 211.90750122070312 C 371.20001220703125 224.95782470703125 362.3347473144531 143.04730224609375 501.938232421875 166.7572021484375 C 501.8203125 190.1096649169922 502.1792297363281 205.99227905273438 501.9487609863281 270.1376037597656" stroke-width="0.0" fill="rgb(230, 191, 168)" opacity="1.0" stroke="rgb(183, 84, 127)" stroke-opacity="0.72788066" stroke-linecap="round" stroke-linejoin="round"/>
    <path d="M 459.4169006347656 294.5328369140625 C 458.4620361328125 321.48406982421875 460.0003356933594 334.5531005859375 459.35302734375 330.3742370605469 C 420.3759765625 330.6348571777344 428.31243896484375 329.7087707519531 426.9693603515625 329.4501953125 C 429.73468017578125 281.04888916015625 416.19757080078125 296.1426086425781 459.1185302734375 293.3214111328125 C 448.4153137207031 203.4888153076172 552.6714477539062 310.2544250488281 459.4169006347656 294.5328369140625" stroke-width="0.0" fill="rgb(0, 0, 25)" opacity="0.7079746" stroke="rgb(36, 101, 186)" stroke-opacity="0.77581006" stroke-linecap="round" stroke-linejoin="round"/>
  </g>
</svg>
