<?xml version="1.0" ?>
<svg xmlns="http://www.w3.org/2000/svg" version="1.1" width="508" height="512">
  <defs/>
  <g>
    <path d="M 390.6000671386719 8.051285743713379 C 136.09298706054688 91.98500061035156 329.4703063964844 2.6327226161956787 248.58184814453125 225.61793518066406 C 91.46711730957031 261.2484130859375 74.30008697509766 229.118896484375 5.775710105895996 177.1361541748047 C 5.379181861877441 -59.0605354309082 5.856686115264893 27.490732192993164 5.520572662353516 8.034483909606934 C 166.9085235595703 8.002613067626953 179.3895263671875 7.975446701049805 390.6000671386719 8.051285743713379" stroke-width="0.0" fill="rgb(84, 90, 81)" opacity="0.34179857" stroke="rgb(251, 116, 200)" stroke-opacity="0.8058085" stroke-linecap="round" stroke-linejoin="round"/>
    <path d="M 467.3094787597656 9.337603569030762 C 410.7378234863281 42.95212173461914 378.1161804199219 6.42469596862793 366.909423828125 177.48965454101562 C 253.00704956054688 243.15541076660156 258.9906921386719 238.1807861328125 277.0082092285156 8.10996150970459 C 359.54937744140625 8.153281211853027 376.53155517578125 7.760495185852051 405.910888671875 8.595979690551758 C 430.77142333984375 10.680173873901367 442.1779479980469 9.184098243713379 467.3094787597656 9.337603569030762" stroke-width="0.0" fill="rgb(117, 160, 166)" opacity="0.6379784" stroke="rgb(61, 194, 157)" stroke-opacity="0.41333875" stroke-linecap="round" stroke-linejoin="round"/>
    <path d="M 502.16424560546875 158.26666259765625 C 470.61456298828125 309.7301330566406 570.822021484375 341.30010986328125 326.1657409667969 330.9586486816406 C 333.0559997558594 45.93291473388672 414.4742431640625 38.866111755371094 375.1227722167969 25.234907150268555 C 378.470703125 4.639829158782959 374.76824951171875 8.506877899169922 502.39508056640625 7.98569917678833 C 502.0575866699219 12.212858200073242 502.364013671875 -23.305408477783203 502.16424560546875 158.26666259765625" stroke-width="0.0" fill="rgb(106, 124, 130)" opacity="0.6038731" stroke="rgb(15, 50, 81)" stroke-opacity="0.75178576" stroke-linecap="round" stroke-linejoin="round"/>
    <path d="M 207.09503173828125 402.36859130859375 C 214.92478942871094 428.8982849121094 217.37625122070312 416.3689270019531 76.50215911865234 422.678466796875 C -11.348570823669434 433.275146484375 -13.902569770812988 386.2890625 51.60451889038086 402.8902282714844 C 128.31593322753906 368.7488708496094 130.8452911376953 393.3468322753906 123.98987579345703 400.5677185058594 C 181.58859252929688 401.169921875 190.53021240234375 400.3116760253906 207.09503173828125 402.36859130859375" stroke-width="0.0" fill="rgb(36, 39, 58)" opacity="0.8629819" stroke="rgb(161, 239, 92)" stroke-opacity="0.22011566" stroke-linecap="round" stroke-linejoin="round"/>
    <path d="M 247.89747619628906 382.9737548828125 C 326.1369323730469 393.955078125 414.8678283691406 437.3794860839844 299.1336669921875 433.3908386230469 C 167.1529083251953 426.1785583496094 166.25689697265625 442.1939392089844 167.5614776611328 426.2530517578125 C 163.5911102294922 429.0067138671875 243.0767364501953 397.27215576171875 166.1991424560547 262.6701354980469 C 197.25656127929688 225.1692352294922 322.805419921875 255.3923797607422 247.89747619628906 382.9737548828125" stroke-width="0.0" fill="rgb(6, 56, 89)" opacity="0.44620293" stroke="rgb(163, 129, 175)" stroke-opacity="0.40682498" stroke-linecap="round" stroke-linejoin="round"/>
    <path d="M 307.52557373046875 68.607666015625 C 309.0790710449219 74.15414428710938 302.2089538574219 94.51606750488281 279.55645751953125 93.36274719238281 C 259.0884094238281 87.34394836425781 274.3769226074219 97.78418731689453 273.0130615234375 44.33479309082031 C 277.7346496582031 43.540897369384766 272.56982421875 43.66099166870117 281.6120910644531 43.21614456176758 C 299.4026794433594 42.243202209472656 309.3618469238281 60.74480438232422 307.52557373046875 68.607666015625" stroke-width="0.0" fill="rgb(255, 247, 229)" opacity="0.97133505" stroke="rgb(224, 169, 237)" stroke-opacity="0.20790005" stroke-linecap="round" stroke-linejoin="round"/>
    <path d="M 143.23741149902344 307.2140808105469 C 149.69627380371094 380.66107177734375 129.45864868164062 343.6017761230469 132.52316284179688 403.9252014160156 C 5.4601545333862305 423.17462158203125 13.505925178527832 357.43133544921875 86.0003662109375 371.7332763671875 C 95.61080932617188 239.51425170898438 62.949249267578125 353.93634033203125 51.99149703979492 266.9306335449219 C 218.48098754882812 312.70941162109375 245.27365112304688 304.4199523925781 143.23741149902344 307.2140808105469" stroke-width="0.0" fill="rgb(49, 126, 157)" opacity="0.48716003" stroke="rgb(67, 228, 215)" stroke-opacity="0.45659196" stroke-linecap="round" stroke-linejoin="round"/>
  </g>
</svg>
