<?xml version="1.0" ?>
<svg xmlns="http://www.w3.org/2000/svg" version="1.1" width="508" height="512">
  <defs/>
  <g>
    <path d="M 390.01849365234375 8.039107322692871 C 142.47476196289062 98.29108428955078 327.5656433105469 -4.977697372436523 252.40538024902344 225.12770080566406 C 90.98771667480469 261.13873291015625 74.29642486572266 229.12803649902344 5.648717880249023 177.14093017578125 C 5.349947452545166 -59.05093002319336 5.813616752624512 27.510265350341797 5.440560817718506 8.011574745178223 C 166.92657470703125 8.02454948425293 179.33030700683594 7.9556884765625 390.01849365234375 8.039107322692871" stroke-width="0.0" fill="rgb(80, 93, 81)" opacity="0.3719409" stroke="rgb(251, 116, 200)" stroke-opacity="0.8058085" stroke-linecap="round" stroke-linejoin="round"/>
    <path d="M 469.0904235839844 9.00163745880127 C 412.5401306152344 47.19866180419922 378.14068603515625 6.4867048263549805 374.6665344238281 182.3538360595703 C 243.87835693359375 241.69078063964844 249.43190002441406 232.85702514648438 297.4512023925781 8.16301155090332 C 359.66522216796875 8.006668090820312 375.2419738769531 8.043042182922363 413.5401306152344 7.982080936431885 C 432.24365234375 8.406622886657715 442.11395263671875 7.337579250335693 469.0904235839844 9.00163745880127" stroke-width="0.0" fill="rgb(95, 151, 156)" opacity="0.38343102" stroke="rgb(61, 194, 157)" stroke-opacity="0.41333875" stroke-linecap="round" stroke-linejoin="round"/>
    <path d="M 502.7897644042969 177.12290954589844 C 473.0931701660156 304.322021484375 582.4038696289062 330.810546875 326.3963623046875 319.4886169433594 C 335.46240234375 44.292015075683594 409.40380859375 36.564449310302734 373.8887023925781 22.755582809448242 C 371.1793518066406 4.924722671508789 373.3205871582031 8.552530288696289 493.1668701171875 8.020139694213867 C 508.0549621582031 11.812522888183594 499.9140625 -22.154504776000977 502.7897644042969 177.12290954589844" stroke-width="0.0" fill="rgb(118, 132, 132)" opacity="0.6073238" stroke="rgb(15, 50, 81)" stroke-opacity="0.75178576" stroke-linecap="round" stroke-linejoin="round"/>
  </g>
</svg>
