<?xml version="1.0" ?>
<svg xmlns="http://www.w3.org/2000/svg" version="1.1" width="303" height="512">
  <defs/>
  <g>
    <path d="M -0.794715940952301 -0.736903727054596 L 303.0 -0.7537057399749756 L 303.000244140625 512.4901733398438 L -0.8116567730903625 512.553466796875 L -0.794715940952301 -0.736903727054596" stroke-width="0.0" fill="rgb(255, 256, 256)" opacity="0.9811784" stroke="rgb(0, 0, 0)" stroke-opacity="0.0" stroke-linecap="round" stroke-linejoin="round"/>
    <path d="M -0.35227304697036743 -0.8880408406257629 L -0.8985274434089661 511.6264953613281 L 303.3117980957031 511.55389404296875 L 303.0379638671875 -0.737075686454773 L -0.35227304697036743 -0.8880408406257629" stroke-width="2.0" fill="rgb(254, 254, 254)" opacity="0.92540586" stroke="rgb(0, 0, 0)" stroke-opacity="0.0" stroke-linecap="round" stroke-linejoin="round"/>
    <path d="M 142.96658325195312 0.6360848546028137 C 95.22058868408203 3.7985568046569824 59.25263977050781 50.057373046875 59.867462158203125 94.77627563476562 L 59.91923141479492 176.1582794189453 C 43.37363815307617 173.39122009277344 0.37533682584762573 174.05421447753906 -0.9568559527397156 201.684326171875 C 16.4378719329834 223.49508666992188 40.6924934387207 221.11463928222656 58.27375793457031 219.79208374023438 C 66.65017700195312 279.98321533203125 47.31623458862305 339.9926452636719 71.07030487060547 389.3749084472656 C 85.99797058105469 404.1390686035156 95.09075164794922 411.7516784667969 106.57734680175781 413.5003662109375 C 109.60536193847656 443.3343200683594 112.39498901367188 482.8883972167969 130.3954315185547 514.8798217773438 C 144.8149871826172 487.9163513183594 146.7397003173828 465.5096130371094 151.24147033691406 442.8774719238281 C 156.85223388671875 463.7362365722656 158.13294982910156 491.61395263671875 173.29197692871094 514.82666015625 C 190.5459747314453 478.6724853515625 193.25540161132812 446.2728271484375 196.2352752685547 413.6051940917969 C 219.8298797607422 408.72705078125 239.3002166748047 382.7477722167969 242.69439697265625 357.51727294921875 L 243.24160766601562 220.12403869628906 C 260.8244323730469 220.47604370117188 295.80059814453125 223.81910705566406 305.2298583984375 196.02032470703125 C 287.9933166503906 171.03561401367188 259.95794677734375 175.0491485595703 244.22988891601562 175.84121704101562 C 236.833740234375 119.60621643066406 262.328125 63.89138412475586 204.05775451660156 17.120481491088867 C 182.8816680908203 2.9243435859680176 161.63755798339844 -1.9461923837661743 142.96658325195312 0.6360848546028137" stroke-width="2.0" fill="rgb(97, 101, 109)" opacity="1.0014" stroke="rgb(0, 0, 0)" stroke-opacity="0.0" stroke-linecap="round" stroke-linejoin="round"/>
    <path d="M 94.37077331542969 97.7256851196289 C 92.54435729980469 111.43934631347656 105.51748657226562 102.54832458496094 112.72502899169922 105.47486877441406 C 137.71974182128906 123.60501861572266 163.75830078125 123.04402160644531 189.5077362060547 106.45781707763672 C 197.20640563964844 106.88887786865234 212.00946044921875 105.10285949707031 202.06517028808594 97.55870819091797 C 184.22254943847656 105.7095947265625 160.21841430664062 69.93968200683594 138.0185546875 86.23761749267578 C 123.11468505859375 90.4101333618164 110.16189575195312 100.97452545166016 95.98920440673828 98.40921020507812 L 94.37077331542969 97.7256851196289" stroke-width="2.0" fill="rgb(142, 144, 149)" opacity="1.0846086" stroke="rgb(0, 0, 0)" stroke-opacity="0.0" stroke-linecap="round" stroke-linejoin="round"/>
    <path d="M 152.40472412109375 443.5987243652344 C 147.89830017089844 466.2030029296875 144.29168701171875 488.7870788574219 133.40980529785156 512.3406372070312 L 169.3262939453125 511.6931457519531 C 158.93565368652344 488.7222595214844 153.92654418945312 466.3147277832031 152.40472412109375 443.5987243652344" stroke-width="2.0" fill="rgb(253, 253, 254)" opacity="0.90518266" stroke="rgb(0, 0, 0)" stroke-opacity="0.0" stroke-linecap="round" stroke-linejoin="round"/>
    <path d="M 104.6363296508789 58.92619705200195 C 79.05990600585938 89.1868667602539 137.76698303222656 97.02767181396484 123.87322235107422 63.09908676147461 C 117.7185287475586 56.441490173339844 111.7452392578125 56.98663330078125 104.6363296508789 58.92619705200195" stroke-width="2.0" fill="rgb(36, 33, 36)" opacity="1.0404588" stroke="rgb(0, 0, 0)" stroke-opacity="0.0" stroke-linecap="round" stroke-linejoin="round"/>
    <path d="M 189.00445556640625 57.644229888916016 C 157.38766479492188 80.19354248046875 210.94442749023438 102.60193634033203 207.0353240966797 66.79631042480469 C 202.83201599121094 58.491920471191406 195.70095825195312 56.98914337158203 189.00445556640625 57.644229888916016" stroke-width="2.0" fill="rgb(36, 34, 36)" opacity="1.0368868" stroke="rgb(0, 0, 0)" stroke-opacity="0.0" stroke-linecap="round" stroke-linejoin="round"/>
    <path d="M 89.59236145019531 162.8163604736328 C 61.76390075683594 185.00790405273438 111.70317077636719 202.59811401367188 105.81742858886719 170.06443786621094 C 101.66686248779297 163.01734924316406 94.80868530273438 162.64637756347656 89.59236145019531 162.8163604736328" stroke-width="2.0" fill="rgb(170, 173, 178)" opacity="1.010106" stroke="rgb(0, 0, 0)" stroke-opacity="0.0" stroke-linecap="round" stroke-linejoin="round"/>
    <path d="M 178.7713165283203 374.7767639160156 C 150.38246154785156 395.4884033203125 199.35037231445312 415.7532653808594 194.84689331054688 382.6344909667969 C 190.72518920898438 375.37310791015625 183.9053497314453 374.51739501953125 178.7713165283203 374.7767639160156" stroke-width="2.0" fill="rgb(170, 173, 178)" opacity="1.0083385" stroke="rgb(0, 0, 0)" stroke-opacity="0.0" stroke-linecap="round" stroke-linejoin="round"/>
    <path d="M 140.9418182373047 83.38406372070312 C 133.78550720214844 106.89933776855469 171.53346252441406 105.535888671875 161.14645385742188 81.43124389648438 C 153.39996337890625 83.00714111328125 147.5937957763672 80.88662719726562 140.9418182373047 83.38406372070312" stroke-width="2.0" fill="rgb(52, 50, 52)" opacity="1.1955338" stroke="rgb(0, 0, 0)" stroke-opacity="0.0" stroke-linecap="round" stroke-linejoin="round"/>
    <path d="M 171.23336791992188 114.3564224243164 C 162.69215393066406 112.65663146972656 156.96719360351562 111.29129028320312 151.4945831298828 105.62654113769531 C 145.4523468017578 111.64041900634766 139.7560577392578 112.76948547363281 131.95468139648438 114.25530242919922 C 144.7916259765625 124.43609619140625 157.2054901123047 124.58616638183594 171.23336791992188 114.3564224243164" stroke-width="2.0" fill="rgb(34, 32, 33)" opacity="1.0158561" stroke="rgb(0, 0, 0)" stroke-opacity="0.0" stroke-linecap="round" stroke-linejoin="round"/>
    <path d="M 216.6302947998047 364.8201599121094 C 194.56289672851562 357.5498046875 200.9735107421875 394.0923156738281 219.91148376464844 377.6968688964844 C 220.8832550048828 373.0767517089844 221.62330627441406 368.97100830078125 216.6302947998047 364.8201599121094" stroke-width="2.0" fill="rgb(170, 173, 178)" opacity="1.0149109" stroke="rgb(0, 0, 0)" stroke-opacity="0.0" stroke-linecap="round" stroke-linejoin="round"/>
    <path d="M 150.8067626953125 387.4247741699219 C 139.93478393554688 407.2091369628906 174.97239685058594 401.38543701171875 157.55747985839844 386.12249755859375 L 150.8067626953125 387.4247741699219" stroke-width="2.0" fill="rgb(169, 172, 177)" opacity="1.0212263" stroke="rgb(0, 0, 0)" stroke-opacity="0.0" stroke-linecap="round" stroke-linejoin="round"/>
    <path d="M 75.9832534790039 143.86642456054688 C 56.73075485229492 169.5269012451172 104.74007415771484 157.96653747558594 75.9832534790039 143.86642456054688" stroke-width="2.0" fill="rgb(168, 172, 177)" opacity="1.0114169" stroke="rgb(0, 0, 0)" stroke-opacity="0.0" stroke-linecap="round" stroke-linejoin="round"/>
    <path d="M 115.62319946289062 170.81301879882812 C 104.56334686279297 189.9524383544922 136.26406860351562 177.87391662597656 115.62319946289062 170.81301879882812" stroke-width="2.0" fill="rgb(166, 171, 175)" opacity="1.0361737" stroke="rgb(0, 0, 0)" stroke-opacity="0.0" stroke-linecap="round" stroke-linejoin="round"/>
    <path d="M 190.25286865234375 360.5722961425781 C 180.97781372070312 380.7028503417969 211.58795166015625 365.8807067871094 190.25286865234375 360.5722961425781" stroke-width="2.0" fill="rgb(166, 171, 175)" opacity="1.0262007" stroke="rgb(0, 0, 0)" stroke-opacity="0.0" stroke-linecap="round" stroke-linejoin="round"/>
    <path d="M 88.31510925292969 100.83604431152344 C 97.04332733154297 105.61669921875 114.2706298828125 102.68013763427734 128.50567626953125 102.068115234375 C 117.00721740722656 99.66796875 102.44218444824219 100.32170867919922 88.31510925292969 100.83604431152344" stroke-width="2.0" fill="rgb(32, 34, 39)" opacity="1.0011134" stroke="rgb(0, 0, 0)" stroke-opacity="0.0" stroke-linecap="round" stroke-linejoin="round"/>
    <path d="M 210.01126098632812 100.18936157226562 L 176.0011749267578 102.02269744873047 L 210.01126098632812 100.18936157226562" stroke-width="2.0" fill="rgb(43, 45, 50)" opacity="1.0" stroke="rgb(0, 0, 0)" stroke-opacity="0.0" stroke-linecap="round" stroke-linejoin="round"/>
    <path d="M 193.6099090576172 61.74364471435547 C 189.60340881347656 79.08489227294922 210.93844604492188 62.20981979370117 193.6099090576172 61.74364471435547" stroke-width="2.0" fill="rgb(222, 220, 222)" opacity="1.1372441" stroke="rgb(0, 0, 0)" stroke-opacity="0.0" stroke-linecap="round" stroke-linejoin="round"/>
    <path d="M 226.27703857421875 349.29156494140625 C 209.8628387451172 354.9374084472656 234.78402709960938 364.62677001953125 226.27703857421875 349.29156494140625" stroke-width="2.0" fill="rgb(167, 172, 177)" opacity="1.0418203" stroke="rgb(0, 0, 0)" stroke-opacity="0.0" stroke-linecap="round" stroke-linejoin="round"/>
    <path d="M 115.00350952148438 61.06049728393555 C 101.8038330078125 71.95021057128906 129.33201599121094 71.33139038085938 115.00350952148438 61.06049728393555" stroke-width="2.0" fill="rgb(229, 225, 228)" opacity="1.1115456" stroke="rgb(0, 0, 0)" stroke-opacity="0.0" stroke-linecap="round" stroke-linejoin="round"/>
  </g>
</svg>
