<?xml version="1.0" ?>
<svg xmlns="http://www.w3.org/2000/svg" version="1.1" width="512" height="509">
  <defs/>
  <g>
    <path d="M 368.8230285644531 45.23666763305664 C 367.9776306152344 91.07596588134766 371.81146240234375 94.36939239501953 338.1252136230469 98.15814971923828 C 287.1917419433594 96.45365905761719 281.63623046875 94.74030303955078 284.8491516113281 22.957368850708008 C 305.5747985839844 24.689327239990234 302.65802001953125 24.566390991210938 313.3912353515625 14.580317497253418 C 364.10369873046875 8.414555549621582 370.32763671875 16.455060958862305 368.8230285644531 45.23666763305664" stroke-width="0.0" fill="rgb(127, 233, 234)" opacity="0.12466513" stroke="rgb(221, 110, 17)" stroke-opacity="0.91160524" stroke-linecap="round" stroke-linejoin="round"/>
    <path d="M 526.7083129882812 260.4516296386719 C 516.41015625 263.13946533203125 522.7111206054688 284.004638671875 517.515625 324.5205078125 C 500.56414794921875 341.88958740234375 503.5094909667969 358.3944396972656 503.0360107421875 242.1931915283203 C 504.48431396484375 239.3519287109375 503.8520812988281 262.0970764160156 504.03564453125 149.01437377929688 C 569.1400146484375 176.44497680664062 522.92822265625 232.21551513671875 526.7083129882812 260.4516296386719" stroke-width="0.0" fill="rgb(255, 254, 254)" opacity="0.90633935" stroke="rgb(104, 20, 8)" stroke-opacity="0.08330974" stroke-linecap="round" stroke-linejoin="round"/>
    <path d="M 414.7164306640625 458.5477294921875 C 417.0267639160156 435.1689758300781 419.0462341308594 490.1114807128906 416.94952392578125 488.23101806640625 C 396.33441162109375 483.3656005859375 401.5848083496094 502.35009765625 407.3403015136719 464.8907470703125 C 274.6271057128906 463.6282653808594 266.490234375 467.8016662597656 420.2223205566406 466.5995178222656 C 420.7923583984375 407.9910888671875 418.6788024902344 392.73260498046875 414.7164306640625 458.5477294921875" stroke-width="0.0" fill="rgb(69, 92, 99)" opacity="0.99977714" stroke="rgb(187, 41, 111)" stroke-opacity="0.7266004" stroke-linecap="round" stroke-linejoin="round"/>
    <path d="M 7.003316402435303 258.6188659667969 C 6.926265239715576 240.65274047851562 6.939272880554199 257.1846923828125 6.921854496002197 390.8495788574219 C -88.99701690673828 345.4675598144531 -22.49889373779297 290.98681640625 -29.066146850585938 248.93869018554688 C -12.646638870239258 241.67039489746094 -35.60037612915039 215.21095275878906 6.753043174743652 187.3041229248047 C 7.074748516082764 235.14968872070312 6.835914611816406 250.04776000976562 7.003316402435303 258.6188659667969" stroke-width="0.0" fill="rgb(255, 255, 255)" opacity="0.8975375" stroke="rgb(166, 215, 36)" stroke-opacity="0.6734689" stroke-linecap="round" stroke-linejoin="round"/>
    <path d="M 160.32664489746094 5.988824844360352 C 58.82374954223633 6.081166744232178 46.793922424316406 5.36909294128418 116.71343994140625 8.669455528259277 C 114.3982925415039 8.009940147399902 99.41397094726562 5.941342353820801 -7.069534778594971 6.967599391937256 C 25.785701751708984 -64.6954574584961 73.36158752441406 -14.872544288635254 132.03294372558594 -13.103599548339844 C 157.75901794433594 -19.39191436767578 160.37828063964844 -16.627676010131836 160.32664489746094 5.988824844360352" stroke-width="0.0" fill="rgb(255, 255, 255)" opacity="0.90158945" stroke="rgb(99, 14, 103)" stroke-opacity="0.95645446" stroke-linecap="round" stroke-linejoin="round"/>
    <path d="M 262.5302429199219 384.5130920410156 C 219.80758666992188 380.3245849609375 239.23052978515625 342.2829895019531 233.73696899414062 293.6982421875 C 225.28433227539062 274.5046691894531 265.31097412109375 275.94195556640625 110.7126235961914 391.0858459472656 C 108.4039077758789 172.74510192871094 60.8594856262207 253.95326232910156 425.30792236328125 233.7793731689453 C 431.29962158203125 383.0690002441406 327.6887512207031 313.37164306640625 262.5302429199219 384.5130920410156" stroke-width="0.0" fill="rgb(59, 69, 75)" opacity="0.5639814" stroke="rgb(28, 169, 4)" stroke-opacity="0.114080235" stroke-linecap="round" stroke-linejoin="round"/>
    <path d="M 6.9881157875061035 122.79302215576172 C 6.697710037231445 98.90736389160156 7.089454174041748 124.32310485839844 6.8822479248046875 205.75958251953125 C -46.73242950439453 186.2364501953125 -13.844378471374512 150.1604461669922 -11.61503791809082 127.8816146850586 C -6.124386787414551 116.8980712890625 -11.974990844726562 111.26581573486328 -1.8805217742919922 36.760108947753906 C 9.777549743652344 22.987966537475586 6.193724155426025 13.546889305114746 6.9881157875061035 122.79302215576172" stroke-width="0.0" fill="rgb(255, 255, 255)" opacity="0.8977402" stroke="rgb(143, 79, 147)" stroke-opacity="0.22486496" stroke-linecap="round" stroke-linejoin="round"/>
    <path d="M 298.9453430175781 501.2122497558594 C 299.1098327636719 526.9139404296875 298.82159423828125 518.9314575195312 276.96142578125 514.2952270507812 C 270.19244384765625 521.4710083007812 263.22076416015625 527.7393188476562 265.6077575683594 499.3910827636719 C 261.3020324707031 500.7853698730469 227.9085235595703 500.4842224121094 350.4222412109375 500.6888427734375 C 225.57015991210938 503.5832824707031 257.46966552734375 500.2005310058594 298.9453430175781 501.2122497558594" stroke-width="0.0" fill="rgb(243, 249, 249)" opacity="1.0" stroke="rgb(95, 136, 92)" stroke-opacity="0.28434187" stroke-linecap="round" stroke-linejoin="round"/>
    <path d="M 492.6133728027344 5.961494445800781 C 425.1011962890625 5.981332778930664 441.09783935546875 5.996649265289307 444.6485595703125 5.989051342010498 C 386.46136474609375 5.965303421020508 359.9305114746094 5.981822967529297 283.5421447753906 5.973169326782227 C 323.22320556640625 -62.99298858642578 371.66827392578125 -18.302284240722656 402.29986572265625 -6.088089942932129 C 422.4847412109375 -19.114805221557617 472.0537414550781 -59.083656311035156 492.6133728027344 5.961494445800781" stroke-width="0.0" fill="rgb(255, 254, 255)" opacity="0.9340923" stroke="rgb(190, 63, 141)" stroke-opacity="0.2366129" stroke-linecap="round" stroke-linejoin="round"/>
    <path d="M 232.84059143066406 200.52085876464844 C 231.99339294433594 242.1123504638672 236.0605926513672 241.5806427001953 221.935791015625 244.7071990966797 C 206.95762634277344 239.01707458496094 215.53318786621094 236.3120574951172 215.22120666503906 175.70765686035156 C 219.4156494140625 163.39320373535156 207.85104370117188 166.5113067626953 232.84213256835938 165.95375061035156 C 233.13951110839844 163.9578094482422 232.88186645507812 178.9140625 232.84059143066406 200.52085876464844" stroke-width="0.0" fill="rgb(255, 252, 232)" opacity="0.9024253" stroke="rgb(36, 1, 237)" stroke-opacity="0.7085332" stroke-linecap="round" stroke-linejoin="round"/>
    <path d="M 224.42933654785156 467.5713806152344 C 213.9547576904297 506.82708740234375 136.16392517089844 482.6362609863281 78.10460662841797 490.7967529296875 C 12.58420467376709 486.298583984375 -13.529664993286133 502.4195556640625 -16.72512435913086 467.4317626953125 C 48.301849365234375 465.55029296875 90.01922607421875 470.2585754394531 53.6724853515625 467.63287353515625 C 67.5711898803711 467.3965759277344 98.1889877319336 467.787109375 224.42933654785156 467.5713806152344" stroke-width="0.0" fill="rgb(250, 240, 218)" opacity="1.0" stroke="rgb(80, 245, 231)" stroke-opacity="0.42795524" stroke-linecap="round" stroke-linejoin="round"/>
    <path d="M 391.39581298828125 60.37299346923828 C 393.17877197265625 57.95147705078125 390.6687927246094 65.65098571777344 381.26092529296875 69.3805160522461 C 365.4905090332031 71.33365631103516 359.4755554199219 55.09846878051758 365.3705749511719 46.112789154052734 C 370.3556823730469 41.70055389404297 370.1729736328125 39.764991760253906 378.3471374511719 40.04804229736328 C 386.48370361328125 38.88969802856445 397.0561828613281 48.39189147949219 391.39581298828125 60.37299346923828" stroke-width="0.0" fill="rgb(255, 251, 228)" opacity="0.8757712" stroke="rgb(13, 31, 171)" stroke-opacity="0.97421116" stroke-linecap="round" stroke-linejoin="round"/>
    <path d="M 302.9179382324219 197.30166625976562 C 305.0589904785156 195.0560760498047 303.7501525878906 204.2185821533203 300.8241882324219 209.7074737548828 C 279.2584533691406 200.0288848876953 289.1673278808594 205.6287078857422 284.815185546875 153.0347442626953 C 284.70855712890625 169.42027282714844 280.9380187988281 163.97630310058594 302.7377014160156 165.45462036132812 C 302.921875 162.55667114257812 303.07122802734375 190.13021850585938 302.9179382324219 197.30166625976562" stroke-width="0.0" fill="rgb(255, 248, 226)" opacity="0.93924296" stroke="rgb(179, 187, 10)" stroke-opacity="0.5325629" stroke-linecap="round" stroke-linejoin="round"/>
    <path d="M 304.8525085449219 208.70152282714844 C 304.3924255371094 237.30128479003906 308.68646240234375 245.34207153320312 293.6142883300781 244.5939483642578 C 281.8119812011719 236.29832458496094 292.60076904296875 244.80496215820312 287.00286865234375 238.29627990722656 C 287.3854675292969 190.625732421875 284.675048828125 176.96168518066406 297.39208984375 184.12686157226562 C 300.5672607421875 194.736328125 304.608154296875 196.19784545898438 304.8525085449219 208.70152282714844" stroke-width="0.0" fill="rgb(255, 247, 226)" opacity="0.9326843" stroke="rgb(150, 31, 226)" stroke-opacity="0.9906619" stroke-linecap="round" stroke-linejoin="round"/>
    <path d="M 481.2464599609375 489.9048767089844 C 406.4006042480469 490.09521484375 361.91192626953125 489.48370361328125 363.3441467285156 490.6820068359375 C 339.06744384765625 490.7865295410156 281.8858642578125 490.5545654296875 233.8500518798828 490.7431640625 C 241.04759216308594 450.7726135253906 258.4236755371094 470.36810302734375 395.3754577636719 467.4066467285156 C 508.038818359375 469.20611572265625 504.63568115234375 460.27923583984375 481.2464599609375 489.9048767089844" stroke-width="0.0" fill="rgb(255, 244, 221)" opacity="0.9585203" stroke="rgb(104, 222, 108)" stroke-opacity="0.57504934" stroke-linecap="round" stroke-linejoin="round"/>
    <path d="M 519.4796142578125 502.3194580078125 C 498.91497802734375 545.826904296875 478.5752868652344 522.3759155273438 464.7240905761719 519.2080688476562 C 449.213623046875 518.2614135742188 443.71087646484375 517.6275024414062 415.90594482421875 511.64605712890625 C 402.39508056640625 498.3660583496094 416.9009094238281 502.0853271484375 469.7337646484375 501.2519226074219 C 454.1596374511719 501.8642272949219 467.75921630859375 501.027099609375 519.4796142578125 502.3194580078125" stroke-width="0.0" fill="rgb(255, 255, 255)" opacity="0.8759532" stroke="rgb(11, 100, 182)" stroke-opacity="0.49288628" stroke-linecap="round" stroke-linejoin="round"/>
    <path d="M 141.24105834960938 503.246337890625 C 135.38978576660156 515.8807373046875 133.8480682373047 517.2897338867188 107.06878662109375 518.0714111328125 C 94.2337875366211 531.2138061523438 41.71527862548828 584.7220458984375 -7.14826774597168 501.23388671875 C 126.3983383178711 501.92254638671875 115.28406524658203 500.62432861328125 109.95442199707031 501.8353576660156 C 126.26700592041016 502.2870788574219 136.42628479003906 500.79595947265625 141.24105834960938 503.246337890625" stroke-width="0.0" fill="rgb(255, 255, 255)" opacity="0.87143886" stroke="rgb(81, 57, 78)" stroke-opacity="0.58615893" stroke-linecap="round" stroke-linejoin="round"/>
    <path d="M 522.78662109375 69.38544464111328 C 516.3342895507812 72.02452087402344 520.6700439453125 74.22567749023438 493.4703369140625 72.10010528564453 C 507.3769226074219 73.11845397949219 503.4202880859375 86.23261260986328 504.1307067871094 5.690353870391846 C 496.7784118652344 73.89869689941406 501.2037658691406 59.88189697265625 503.5131530761719 -7.569105625152588 C 543.2178344726562 10.112760543823242 526.14697265625 40.138877868652344 522.78662109375 69.38544464111328" stroke-width="0.0" fill="rgb(255, 255, 255)" opacity="0.8922487" stroke="rgb(152, 59, 100)" stroke-opacity="0.18419653" stroke-linecap="round" stroke-linejoin="round"/>
    <path d="M 375.49688720703125 197.73548889160156 C 376.408447265625 225.9620819091797 384.8146667480469 240.7769775390625 371.4265441894531 243.9839324951172 C 353.3343200683594 245.3402557373047 362.02069091796875 224.4073486328125 357.8212585449219 202.77064514160156 C 356.0830078125 160.8517303466797 351.4145202636719 162.71336364746094 361.24847412109375 165.13800048828125 C 379.64630126953125 165.41812133789062 370.3301086425781 161.63998413085938 375.49688720703125 197.73548889160156" stroke-width="0.0" fill="rgb(255, 251, 229)" opacity="0.87805104" stroke="rgb(193, 46, 250)" stroke-opacity="0.19491921" stroke-linecap="round" stroke-linejoin="round"/>
    <path d="M 270.7291259765625 501.541748046875 C 220.2486572265625 583.50244140625 161.03721618652344 525.9221801757812 131.04156494140625 517.4501953125 C 127.35174560546875 508.687255859375 120.5821304321289 513.629150390625 114.43450164794922 503.1147155761719 C 133.58909606933594 502.6249084472656 141.21896362304688 505.2267150878906 130.36236572265625 502.26068115234375 C 131.0352783203125 502.3794250488281 138.96441650390625 500.8128967285156 270.7291259765625 501.541748046875" stroke-width="0.0" fill="rgb(255, 255, 255)" opacity="0.8809839" stroke="rgb(42, 22, 248)" stroke-opacity="0.51549566" stroke-linecap="round" stroke-linejoin="round"/>
    <path d="M 290.87255859375 6.8404130935668945 C 251.6935272216797 6.903892517089844 228.10499572753906 6.722728252410889 206.14405822753906 6.7449235916137695 C 175.53526306152344 6.5960564613342285 164.89144897460938 8.197139739990234 148.95510864257812 3.7960739135742188 C 194.9317169189453 -36.04811477661133 218.67115783691406 -17.450469970703125 252.27774047851562 -29.835418701171875 C 251.09280395507812 -14.619482040405273 284.6307373046875 -37.56418228149414 290.87255859375 6.8404130935668945" stroke-width="0.0" fill="rgb(255, 255, 255)" opacity="0.8790862" stroke="rgb(108, 118, 52)" stroke-opacity="0.50258964" stroke-linecap="round" stroke-linejoin="round"/>
    <path d="M 410.7054443359375 148.51708984375 C 407.94415283203125 230.98681640625 425.00042724609375 245.00555419921875 403.8289489746094 244.00596618652344 C 392.48529052734375 242.51589965820312 398.5940856933594 232.90858459472656 391.7242126464844 182.7450408935547 C 394.39459228515625 168.7884063720703 380.30657958984375 163.8364715576172 408.0635681152344 165.45445251464844 C 410.29443359375 186.78475952148438 408.1713562011719 199.90000915527344 410.7054443359375 148.51708984375" stroke-width="0.0" fill="rgb(255, 249, 228)" opacity="0.9037694" stroke="rgb(61, 98, 106)" stroke-opacity="0.9558855" stroke-linecap="round" stroke-linejoin="round"/>
    <path d="M 163.8647003173828 167.4955596923828 C 162.78549194335938 177.62557983398438 161.08563232421875 200.5128631591797 157.57192993164062 242.2239227294922 C 125.0762710571289 252.91062927246094 148.838623046875 213.7265625 144.940673828125 152.44009399414062 C 143.47525024414062 176.56222534179688 145.0169677734375 161.05935668945312 158.65086364746094 165.77565002441406 C 169.15283203125 167.26939392089844 163.6383056640625 160.92318725585938 163.8647003173828 167.4955596923828" stroke-width="0.0" fill="rgb(255, 251, 231)" opacity="0.9085396" stroke="rgb(44, 96, 207)" stroke-opacity="0.3345309" stroke-linecap="round" stroke-linejoin="round"/>
    <path d="M 477.64501953125 305.8996887207031 C 485.0026550292969 315.3134460449219 482.0841064453125 313.3844299316406 448.809326171875 314.11981201171875 C 421.58428955078125 312.3431091308594 413.2163391113281 310.44110107421875 417.8770446777344 307.3302917480469 C 425.7712097167969 295.0336608886719 417.253173828125 305.5716247558594 448.69659423828125 305.0014343261719 C 444.5820617675781 306.9586181640625 451.2633972167969 305.62518310546875 477.64501953125 305.8996887207031" stroke-width="0.0" fill="rgb(255, 255, 237)" opacity="0.83148545" stroke="rgb(131, 172, 33)" stroke-opacity="0.076326974" stroke-linecap="round" stroke-linejoin="round"/>
    <path d="M 418.4515075683594 502.18780517578125 C 418.999755859375 504.9983215332031 420.1520080566406 522.6268310546875 411.01605224609375 522.1298217773438 C 394.7199401855469 516.31591796875 392.8769226074219 518.1471557617188 394.2887268066406 497.74261474609375 C 392.3056640625 502.4120788574219 394.9901123046875 500.461181640625 393.1925048828125 501.6994323730469 C 409.4910583496094 501.5514221191406 416.22479248046875 501.4858093261719 418.4515075683594 502.18780517578125" stroke-width="0.0" fill="rgb(255, 255, 255)" opacity="0.8689914" stroke="rgb(20, 126, 170)" stroke-opacity="0.022936461" stroke-linecap="round" stroke-linejoin="round"/>
    <path d="M 269.0826721191406 229.92445373535156 C 270.9985046386719 239.55130004882812 265.9888916015625 246.69439697265625 255.76907348632812 243.82110595703125 C 246.53952026367188 236.16152954101562 250.295166015625 232.56944274902344 251.27813720703125 234.46728515625 C 250.962646484375 241.85479736328125 250.91468811035156 193.4306640625 251.37652587890625 165.123779296875 C 274.7347412109375 166.37388610839844 267.15667724609375 150.09292602539062 269.0826721191406 229.92445373535156" stroke-width="0.0" fill="rgb(255, 250, 229)" opacity="0.9127283" stroke="rgb(229, 172, 203)" stroke-opacity="0.62608814" stroke-linecap="round" stroke-linejoin="round"/>
    <path d="M 253.16458129882812 477.6938171386719 C 240.54039001464844 489.9140930175781 238.33026123046875 490.4779052734375 231.6201629638672 490.87225341796875 C 198.411376953125 488.83184814453125 193.48529052734375 491.441650390625 185.34429931640625 488.5014953613281 C 205.00204467773438 467.8074035644531 211.37884521484375 464.8006591796875 234.64268493652344 465.2227478027344 C 256.898681640625 465.683837890625 256.1158447265625 462.9930725097656 253.16458129882812 477.6938171386719" stroke-width="0.0" fill="rgb(255, 245, 221)" opacity="0.8931683" stroke="rgb(155, 137, 106)" stroke-opacity="0.67948467" stroke-linecap="round" stroke-linejoin="round"/>
    <path d="M 453.7974548339844 83.57402038574219 C 470.28521728515625 106.18161010742188 472.162353515625 96.64338684082031 346.2712097167969 98.6196517944336 C 338.0000305175781 89.0733871459961 377.0887451171875 93.26078033447266 408.0559997558594 92.14553833007812 C 408.6585693359375 51.85296630859375 403.79705810546875 77.95630645751953 425.908203125 46.48601150512695 C 440.62567138671875 41.51256561279297 412.2408447265625 90.19554138183594 453.7974548339844 83.57402038574219" stroke-width="0.0" fill="rgb(255, 248, 221)" opacity="0.7938371" stroke="rgb(163, 151, 26)" stroke-opacity="0.7154394" stroke-linecap="round" stroke-linejoin="round"/>
    <path d="M 405.4651794433594 281.65435791015625 C 345.5085144042969 272.0923767089844 355.21038818359375 271.44586181640625 345.6233825683594 281.91094970703125 C 301.3023376464844 260.1313171386719 332.33056640625 315.0063171386719 314.63909912109375 301.9377746582031 C 317.16595458984375 243.02078247070312 301.0726318359375 263.1117858886719 355.2726135253906 258.5077209472656 C 421.46630859375 261.90728759765625 402.2823486328125 249.4608612060547 405.4651794433594 281.65435791015625" stroke-width="0.0" fill="rgb(38, 56, 67)" opacity="0.97779834" stroke="rgb(12, 154, 28)" stroke-opacity="0.9244227" stroke-linecap="round" stroke-linejoin="round"/>
    <path d="M 272.71368408203125 433.20672607421875 C 279.702392578125 442.6967468261719 262.6659240722656 436.8973693847656 243.40257263183594 439.7243957519531 C 233.76193237304688 439.5915832519531 216.78958129882812 439.8319396972656 218.696044921875 439.56427001953125 C 221.4583740234375 430.7904968261719 219.1795196533203 434.84368896484375 245.44505310058594 434.00946044921875 C 247.53350830078125 433.010986328125 236.5076141357422 433.19268798828125 272.71368408203125 433.20672607421875" stroke-width="0.0" fill="rgb(255, 255, 239)" opacity="0.7969916" stroke="rgb(44, 185, 88)" stroke-opacity="0.20583868" stroke-linecap="round" stroke-linejoin="round"/>
    <path d="M 487.9407653808594 447.197998046875 C 488.1292724609375 466.7357482910156 487.62054443359375 464.3941955566406 487.0665283203125 464.52734375 C 445.8375244140625 463.4688720703125 461.8507385253906 469.4081115722656 459.4730224609375 445.57275390625 C 460.8542785644531 414.7017822265625 453.2151794433594 445.1331787109375 466.3306579589844 447.0692443847656 C 492.9158630371094 447.0602722167969 487.4489440917969 447.13232421875 487.9407653808594 447.197998046875" stroke-width="0.0" fill="rgb(235, 225, 202)" opacity="1.0" stroke="rgb(131, 1, 204)" stroke-opacity="0.60393643" stroke-linecap="round" stroke-linejoin="round"/>
    <path d="M 514.0 419.0 C 513.3301391601562 421.5 511.5 423.33013916015625 509.0 424.0 C 506.5 423.33013916015625 504.66986083984375 421.5 504.0 419.0 C 504.66986083984375 416.5 506.5 414.66986083984375 509.0 414.0 C 511.5 414.66986083984375 513.3301391601562 416.5 514.0 419.0" stroke-width="0.0" fill="rgb(250, 249, 249)" opacity="1.0" stroke="rgb(179, 74, 184)" stroke-opacity="0.5227119" stroke-linecap="round" stroke-linejoin="round"/>
    <path d="M 191.0 198.0 C 190.3301239013672 200.5 188.5 202.3301239013672 186.0 203.0 C 183.5 202.3301239013672 181.6698760986328 200.5 181.0 198.0 C 181.6698760986328 195.5 183.5 193.6698760986328 186.0 193.0 C 188.5 193.6698760986328 190.3301239013672 195.5 191.0 198.0" stroke-width="0.0" fill="rgb(255, 247, 225)" opacity="1.0" stroke="rgb(100, 161, 45)" stroke-opacity="0.02167813" stroke-linecap="round" stroke-linejoin="round"/>
    <path d="M 514.0 112.0 C 513.3301391601562 114.5 511.5 116.33012390136719 509.0 117.0 C 506.5 116.33012390136719 504.66986083984375 114.5 504.0 112.0 C 504.66986083984375 109.5 506.5 107.66987609863281 509.0 107.0 C 511.5 107.66987609863281 513.3301391601562 109.5 514.0 112.0" stroke-width="0.0" fill="rgb(250, 249, 249)" opacity="1.0" stroke="rgb(156, 24, 55)" stroke-opacity="0.6033121" stroke-linecap="round" stroke-linejoin="round"/>
    <path d="M 124.0 189.0 C 123.33012390136719 191.5 121.5 193.3301239013672 119.0 194.0 C 116.5 193.3301239013672 114.66987609863281 191.5 114.0 189.0 C 114.66987609863281 186.5 116.5 184.6698760986328 119.0 184.0 C 121.5 184.6698760986328 123.33012390136719 186.5 124.0 189.0" stroke-width="0.0" fill="rgb(255, 245, 221)" opacity="1.0" stroke="rgb(223, 200, 231)" stroke-opacity="0.3243466" stroke-linecap="round" stroke-linejoin="round"/>
    <path d="M 35.0 458.0 C 34.33012771606445 460.5 32.5 462.33013916015625 30.0 463.0 C 27.5 462.33013916015625 25.669872283935547 460.5 25.0 458.0 C 25.669872283935547 455.5 27.5 453.66986083984375 30.0 453.0 C 32.5 453.66986083984375 34.33012771606445 455.5 35.0 458.0" stroke-width="0.0" fill="rgb(254, 245, 219)" opacity="1.0" stroke="rgb(71, 235, 229)" stroke-opacity="0.44352505" stroke-linecap="round" stroke-linejoin="round"/>
    <path d="M 335.0 215.0 C 334.33013916015625 217.5 332.5 219.3301239013672 330.0 220.0 C 327.5 219.3301239013672 325.66986083984375 217.5 325.0 215.0 C 325.66986083984375 212.5 327.5 210.6698760986328 330.0 210.0 C 332.5 210.6698760986328 334.33013916015625 212.5 335.0 215.0" stroke-width="0.0" fill="rgb(255, 247, 225)" opacity="1.0" stroke="rgb(251, 79, 96)" stroke-opacity="0.9394714" stroke-linecap="round" stroke-linejoin="round"/>
    <path d="M 351.0 504.0 C 350.33013916015625 506.5 348.5 508.33013916015625 346.0 509.0 C 343.5 508.33013916015625 341.66986083984375 506.5 341.0 504.0 C 341.66986083984375 501.5 343.5 499.66986083984375 346.0 499.0 C 348.5 499.66986083984375 350.33013916015625 501.5 351.0 504.0" stroke-width="0.0" fill="rgb(248, 248, 248)" opacity="1.0" stroke="rgb(224, 60, 139)" stroke-opacity="0.74059945" stroke-linecap="round" stroke-linejoin="round"/>
    <path d="M 508.0 135.0 C 507.33013916015625 137.5 505.5 139.3301239013672 503.0 140.0 C 500.5 139.3301239013672 498.66986083984375 137.5 498.0 135.0 C 498.66986083984375 132.5 500.5 130.6698760986328 503.0 130.0 C 505.5 130.6698760986328 507.33013916015625 132.5 508.0 135.0" stroke-width="0.0" fill="rgb(247, 238, 221)" opacity="1.0" stroke="rgb(229, 76, 140)" stroke-opacity="0.72996324" stroke-linecap="round" stroke-linejoin="round"/>
    <path d="M 250.0 320.0 C 249.3301239013672 322.5 247.5 324.33013916015625 245.0 325.0 C 242.5 324.33013916015625 240.6698760986328 322.5 240.0 320.0 C 240.6698760986328 317.5 242.5 315.66986083984375 245.0 315.0 C 247.5 315.66986083984375 249.3301239013672 317.5 250.0 320.0" stroke-width="0.0" fill="rgb(42, 60, 69)" opacity="1.0" stroke="rgb(120, 39, 106)" stroke-opacity="0.09928976" stroke-linecap="round" stroke-linejoin="round"/>
    <path d="M 257.0 328.0 C 256.33013916015625 330.5 254.5 332.33013916015625 252.0 333.0 C 249.5 332.33013916015625 247.6698760986328 330.5 247.0 328.0 C 247.6698760986328 325.5 249.5 323.66986083984375 252.0 323.0 C 254.5 323.66986083984375 256.33013916015625 325.5 257.0 328.0" stroke-width="0.0" fill="rgb(40, 58, 68)" opacity="1.0" stroke="rgb(75, 16, 128)" stroke-opacity="0.29261744" stroke-linecap="round" stroke-linejoin="round"/>
    <path d="M 451.0 430.0 C 450.33013916015625 432.5 448.5 434.33013916015625 446.0 435.0 C 443.5 434.33013916015625 441.66986083984375 432.5 441.0 430.0 C 441.66986083984375 427.5 443.5 425.66986083984375 446.0 425.0 C 448.5 425.66986083984375 450.33013916015625 427.5 451.0 430.0" stroke-width="0.0" fill="rgb(253, 239, 215)" opacity="1.0" stroke="rgb(225, 176, 228)" stroke-opacity="0.51258874" stroke-linecap="round" stroke-linejoin="round"/>
    <path d="M 362.0 245.0 C 361.33013916015625 247.5 359.5 249.3301239013672 357.0 250.0 C 354.5 249.3301239013672 352.66986083984375 247.5 352.0 245.0 C 352.66986083984375 242.5 354.5 240.6698760986328 357.0 240.0 C 359.5 240.6698760986328 361.33013916015625 242.5 362.0 245.0" stroke-width="0.0" fill="rgb(34, 53, 63)" opacity="1.0" stroke="rgb(224, 178, 120)" stroke-opacity="0.110189155" stroke-linecap="round" stroke-linejoin="round"/>
    <path d="M 190.0 238.0 C 189.3301239013672 240.5 187.5 242.3301239013672 185.0 243.0 C 182.5 242.3301239013672 180.6698760986328 240.5 180.0 238.0 C 180.6698760986328 235.5 182.5 233.6698760986328 185.0 233.0 C 187.5 233.6698760986328 189.3301239013672 235.5 190.0 238.0" stroke-width="0.0" fill="rgb(254, 241, 222)" opacity="1.0" stroke="rgb(175, 149, 208)" stroke-opacity="0.39129698" stroke-linecap="round" stroke-linejoin="round"/>
    <path d="M 53.0 436.0 C 52.33012771606445 438.5 50.5 440.33013916015625 48.0 441.0 C 45.5 440.33013916015625 43.66987228393555 438.5 43.0 436.0 C 43.66987228393555 433.5 45.5 431.66986083984375 48.0 431.0 C 50.5 431.66986083984375 52.33012771606445 433.5 53.0 436.0" stroke-width="0.0" fill="rgb(34, 50, 60)" opacity="1.0" stroke="rgb(224, 140, 93)" stroke-opacity="0.11970802" stroke-linecap="round" stroke-linejoin="round"/>
    <path d="M 85.0 363.0 C 84.33012390136719 365.5 82.5 367.33013916015625 80.0 368.0 C 77.5 367.33013916015625 75.66987609863281 365.5 75.0 363.0 C 75.66987609863281 360.5 77.5 358.66986083984375 80.0 358.0 C 82.5 358.66986083984375 84.33012390136719 360.5 85.0 363.0" stroke-width="0.0" fill="rgb(248, 233, 206)" opacity="1.0" stroke="rgb(215, 188, 44)" stroke-opacity="0.18697652" stroke-linecap="round" stroke-linejoin="round"/>
    <path d="M 452.0 443.0 C 451.33013916015625 445.5 449.5 447.33013916015625 447.0 448.0 C 444.5 447.33013916015625 442.66986083984375 445.5 442.0 443.0 C 442.66986083984375 440.5 444.5 438.66986083984375 447.0 438.0 C 449.5 438.66986083984375 451.33013916015625 440.5 452.0 443.0" stroke-width="0.0" fill="rgb(253, 240, 217)" opacity="1.0" stroke="rgb(254, 151, 193)" stroke-opacity="0.71325713" stroke-linecap="round" stroke-linejoin="round"/>
    <path d="M 393.0 246.0 C 392.33013916015625 248.5 390.5 250.3301239013672 388.0 251.0 C 385.5 250.3301239013672 383.66986083984375 248.5 383.0 246.0 C 383.66986083984375 243.5 385.5 241.6698760986328 388.0 241.0 C 390.5 241.6698760986328 392.33013916015625 243.5 393.0 246.0" stroke-width="0.0" fill="rgb(34, 56, 65)" opacity="1.0" stroke="rgb(201, 157, 80)" stroke-opacity="0.74516755" stroke-linecap="round" stroke-linejoin="round"/>
    <path d="M 294.0 304.0 C 293.33013916015625 306.5 291.5 308.33013916015625 289.0 309.0 C 286.5 308.33013916015625 284.66986083984375 306.5 284.0 304.0 C 284.66986083984375 301.5 286.5 299.66986083984375 289.0 299.0 C 291.5 299.66986083984375 293.33013916015625 301.5 294.0 304.0" stroke-width="0.0" fill="rgb(168, 200, 199)" opacity="1.0" stroke="rgb(120, 161, 14)" stroke-opacity="0.92378944" stroke-linecap="round" stroke-linejoin="round"/>
    <path d="M 309.0 315.0 C 308.33013916015625 317.5 306.5 319.33013916015625 304.0 320.0 C 301.5 319.33013916015625 299.66986083984375 317.5 299.0 315.0 C 299.66986083984375 312.5 301.5 310.66986083984375 304.0 310.0 C 306.5 310.66986083984375 308.33013916015625 312.5 309.0 315.0" stroke-width="0.0" fill="rgb(175, 203, 198)" opacity="1.0" stroke="rgb(150, 162, 251)" stroke-opacity="0.80712104" stroke-linecap="round" stroke-linejoin="round"/>
    <path d="M 486.0 300.0 C 485.33013916015625 302.5 483.5 304.33013916015625 481.0 305.0 C 478.5 304.33013916015625 476.66986083984375 302.5 476.0 300.0 C 476.66986083984375 297.5 478.5 295.66986083984375 481.0 295.0 C 483.5 295.66986083984375 485.33013916015625 297.5 486.0 300.0" stroke-width="0.0" fill="rgb(71, 115, 122)" opacity="1.0" stroke="rgb(100, 52, 85)" stroke-opacity="0.7029402" stroke-linecap="round" stroke-linejoin="round"/>
    <path d="M 501.0 330.0 C 500.33013916015625 332.5 498.5 334.33013916015625 496.0 335.0 C 493.5 334.33013916015625 491.66986083984375 332.5 491.0 330.0 C 491.66986083984375 327.5 493.5 325.66986083984375 496.0 325.0 C 498.5 325.66986083984375 500.33013916015625 327.5 501.0 330.0" stroke-width="0.0" fill="rgb(59, 106, 115)" opacity="1.0" stroke="rgb(226, 96, 141)" stroke-opacity="0.54046184" stroke-linecap="round" stroke-linejoin="round"/>
    <path d="M 47.0 425.0 C 46.33012771606445 427.5 44.5 429.33013916015625 42.0 430.0 C 39.5 429.33013916015625 37.66987228393555 427.5 37.0 425.0 C 37.66987228393555 422.5 39.5 420.66986083984375 42.0 420.0 C 44.5 420.66986083984375 46.33012771606445 422.5 47.0 425.0" stroke-width="0.0" fill="rgb(62, 90, 101)" opacity="1.0" stroke="rgb(105, 73, 199)" stroke-opacity="0.83804536" stroke-linecap="round" stroke-linejoin="round"/>
    <path d="M 301.0 332.0 C 300.33013916015625 334.5 298.5 336.33013916015625 296.0 337.0 C 293.5 336.33013916015625 291.66986083984375 334.5 291.0 332.0 C 291.66986083984375 329.5 293.5 327.66986083984375 296.0 327.0 C 298.5 327.66986083984375 300.33013916015625 329.5 301.0 332.0" stroke-width="0.0" fill="rgb(228, 234, 220)" opacity="1.0" stroke="rgb(252, 171, 63)" stroke-opacity="0.62486976" stroke-linecap="round" stroke-linejoin="round"/>
    <path d="M 172.0 363.0 C 171.3301239013672 365.5 169.5 367.33013916015625 167.0 368.0 C 164.5 367.33013916015625 162.6698760986328 365.5 162.0 363.0 C 162.6698760986328 360.5 164.5 358.66986083984375 167.0 358.0 C 169.5 358.66986083984375 171.3301239013672 360.5 172.0 363.0" stroke-width="0.0" fill="rgb(38, 60, 71)" opacity="1.0" stroke="rgb(186, 199, 201)" stroke-opacity="0.2055779" stroke-linecap="round" stroke-linejoin="round"/>
    <path d="M 52.0 227.0 C 51.33012771606445 229.5 49.5 231.3301239013672 47.0 232.0 C 44.5 231.3301239013672 42.66987228393555 229.5 42.0 227.0 C 42.66987228393555 224.5 44.5 222.6698760986328 47.0 222.0 C 49.5 222.6698760986328 51.33012771606445 224.5 52.0 227.0" stroke-width="0.0" fill="rgb(23, 35, 53)" opacity="1.0" stroke="rgb(26, 6, 142)" stroke-opacity="0.7429484" stroke-linecap="round" stroke-linejoin="round"/>
    <path d="M 463.0 361.0 C 462.33013916015625 363.5 460.5 365.33013916015625 458.0 366.0 C 455.5 365.33013916015625 453.66986083984375 363.5 453.0 361.0 C 453.66986083984375 358.5 455.5 356.66986083984375 458.0 356.0 C 460.5 356.66986083984375 462.33013916015625 358.5 463.0 361.0" stroke-width="0.0" fill="rgb(5, 19, 35)" opacity="1.0" stroke="rgb(202, 131, 44)" stroke-opacity="0.8348438" stroke-linecap="round" stroke-linejoin="round"/>
    <path d="M 192.0 219.0 C 191.3301239013672 221.5 189.5 223.3301239013672 187.0 224.0 C 184.5 223.3301239013672 182.6698760986328 221.5 182.0 219.0 C 182.6698760986328 216.5 184.5 214.6698760986328 187.0 214.0 C 189.5 214.6698760986328 191.3301239013672 216.5 192.0 219.0" stroke-width="0.0" fill="rgb(254, 249, 228)" opacity="1.0" stroke="rgb(20, 123, 65)" stroke-opacity="0.70897955" stroke-linecap="round" stroke-linejoin="round"/>
    <path d="M 280.0 315.0 C 279.33013916015625 317.5 277.5 319.33013916015625 275.0 320.0 C 272.5 319.33013916015625 270.66986083984375 317.5 270.0 315.0 C 270.66986083984375 312.5 272.5 310.66986083984375 275.0 310.0 C 277.5 310.66986083984375 279.33013916015625 312.5 280.0 315.0" stroke-width="0.0" fill="rgb(41, 59, 71)" opacity="1.0" stroke="rgb(97, 223, 101)" stroke-opacity="0.38366282" stroke-linecap="round" stroke-linejoin="round"/>
    <path d="M 511.0 392.0 C 510.33013916015625 394.5 508.5 396.33013916015625 506.0 397.0 C 503.5 396.33013916015625 501.66986083984375 394.5 501.0 392.0 C 501.66986083984375 389.5 503.5 387.66986083984375 506.0 387.0 C 508.5 387.66986083984375 510.33013916015625 389.5 511.0 392.0" stroke-width="0.0" fill="rgb(250, 248, 248)" opacity="1.0" stroke="rgb(24, 112, 41)" stroke-opacity="0.805677" stroke-linecap="round" stroke-linejoin="round"/>
    <path d="M 253.0 286.0 C 252.3301239013672 288.5 250.5 290.33013916015625 248.0 291.0 C 245.5 290.33013916015625 243.6698760986328 288.5 243.0 286.0 C 243.6698760986328 283.5 245.5 281.66986083984375 248.0 281.0 C 250.5 281.66986083984375 252.3301239013672 283.5 253.0 286.0" stroke-width="0.0" fill="rgb(38, 56, 65)" opacity="1.0" stroke="rgb(31, 198, 124)" stroke-opacity="0.67506117" stroke-linecap="round" stroke-linejoin="round"/>
    <path d="M 309.0 336.0 C 308.33013916015625 338.5 306.5 340.33013916015625 304.0 341.0 C 301.5 340.33013916015625 299.66986083984375 338.5 299.0 336.0 C 299.66986083984375 333.5 301.5 331.66986083984375 304.0 331.0 C 306.5 331.66986083984375 308.33013916015625 333.5 309.0 336.0" stroke-width="0.0" fill="rgb(171, 202, 198)" opacity="1.0" stroke="rgb(78, 134, 143)" stroke-opacity="0.7866539" stroke-linecap="round" stroke-linejoin="round"/>
    <path d="M 217.0 298.0 C 216.3301239013672 300.5 214.5 302.33013916015625 212.0 303.0 C 209.5 302.33013916015625 207.6698760986328 300.5 207.0 298.0 C 207.6698760986328 295.5 209.5 293.66986083984375 212.0 293.0 C 214.5 293.66986083984375 216.3301239013672 295.5 217.0 298.0" stroke-width="0.0" fill="rgb(179, 206, 205)" opacity="1.0" stroke="rgb(23, 204, 191)" stroke-opacity="0.4458383" stroke-linecap="round" stroke-linejoin="round"/>
  </g>
</svg>
