<?xml version="1.0" ?>
<svg xmlns="http://www.w3.org/2000/svg" version="1.1" width="512" height="509">
  <defs/>
  <g>
    <path d="M 356.4152526855469 41.166419982910156 C 360.0745849609375 80.20339965820312 356.9764709472656 84.12770080566406 329.3119201660156 86.00614929199219 C 298.7875671386719 86.3674087524414 294.98138427734375 86.10338592529297 294.89605712890625 35.27568054199219 C 307.6618347167969 33.91743850708008 307.9119873046875 31.02709197998047 328.0191955566406 24.57655143737793 C 356.8152160644531 23.123088836669922 357.3481140136719 27.07590103149414 356.4152526855469 41.166419982910156" stroke-width="0.0" fill="rgb(161, 190, 179)" opacity="0.015567618" stroke="rgb(221, 110, 17)" stroke-opacity="0.91160524" stroke-linecap="round" stroke-linejoin="round"/>
    <path d="M 512.0 256.0 C 511.33013916015625 258.5 509.5 260.33013916015625 507.0 261.0 C 504.5 260.33013916015625 502.66986083984375 258.5 502.0 256.0 C 502.66986083984375 253.5 504.5 251.6698760986328 507.0 251.0 C 509.5 251.6698760986328 511.33013916015625 253.5 512.0 256.0" stroke-width="0.0" fill="rgb(250, 249, 249)" opacity="1.0" stroke="rgb(104, 20, 8)" stroke-opacity="0.08330974" stroke-linecap="round" stroke-linejoin="round"/>
    <path d="M 415.0 474.0 C 414.33013916015625 476.5 412.5 478.33013916015625 410.0 479.0 C 407.5 478.33013916015625 405.66986083984375 476.5 405.0 474.0 C 405.66986083984375 471.5 407.5 469.66986083984375 410.0 469.0 C 412.5 469.66986083984375 414.33013916015625 471.5 415.0 474.0" stroke-width="0.0" fill="rgb(255, 244, 221)" opacity="1.0" stroke="rgb(187, 41, 111)" stroke-opacity="0.7266004" stroke-linecap="round" stroke-linejoin="round"/>
  </g>
</svg>
