<?xml version="1.0" ?>
<svg xmlns="http://www.w3.org/2000/svg" version="1.1" width="512" height="509">
  <defs/>
  <g>
    <path d="M 368.0211486816406 44.53427505493164 C 367.00567626953125 90.38009643554688 370.8540954589844 93.54779815673828 336.79901123046875 97.74056243896484 C 287.1917419433594 96.45225524902344 281.63623046875 94.74030303955078 284.8491516113281 22.96216583251953 C 305.5747985839844 24.69601821899414 302.663330078125 24.571022033691406 313.5954284667969 14.903894424438477 C 364.0189208984375 8.88712215423584 369.96826171875 16.668827056884766 368.0211486816406 44.53427505493164" stroke-width="0.0" fill="rgb(112, 223, 227)" opacity="0.14343275" stroke="rgb(221, 110, 17)" stroke-opacity="0.91160524" stroke-linecap="round" stroke-linejoin="round"/>
    <path d="M 526.7083129882812 260.4516296386719 C 516.41015625 263.13946533203125 522.7111206054688 284.004638671875 517.653076171875 324.45050048828125 C 500.43682861328125 341.7058410644531 503.51531982421875 357.8481140136719 503.0474548339844 242.11715698242188 C 504.4622497558594 239.6905517578125 503.85260009765625 260.98638916015625 504.03411865234375 149.00241088867188 C 569.1400146484375 176.44497680664062 522.92822265625 232.21551513671875 526.7083129882812 260.4516296386719" stroke-width="0.0" fill="rgb(255, 255, 255)" opacity="0.892876" stroke="rgb(104, 20, 8)" stroke-opacity="0.08330974" stroke-linecap="round" stroke-linejoin="round"/>
    <path d="M 415.4607238769531 468.34637451171875 C 415.98583984375 446.9765319824219 417.7740783691406 496.2807922363281 416.6175842285156 488.8666076660156 C 396.25555419921875 483.8692932128906 401.3888854980469 502.456298828125 404.67938232421875 464.85064697265625 C 276.67431640625 463.48016357421875 265.146728515625 467.9687805175781 420.3030700683594 466.5936584472656 C 421.3912353515625 409.56878662109375 416.47637939453125 384.0401916503906 415.4607238769531 468.34637451171875" stroke-width="0.0" fill="rgb(80, 97, 103)" opacity="1.0" stroke="rgb(187, 41, 111)" stroke-opacity="0.7266004" stroke-linecap="round" stroke-linejoin="round"/>
    <path d="M 6.863518238067627 257.6953125 C 6.964689254760742 240.8313751220703 6.8879241943359375 257.3736267089844 6.922269344329834 390.8096923828125 C -88.97259521484375 345.4533996582031 -22.49703598022461 290.98681640625 -29.067157745361328 248.93869018554688 C -12.668333053588867 241.64756774902344 -35.76502990722656 215.04653930664062 6.766393661499023 186.77511596679688 C 7.064631462097168 235.32933044433594 6.832489490509033 249.35304260253906 6.863518238067627 257.6953125" stroke-width="0.0" fill="rgb(255, 255, 255)" opacity="0.885988" stroke="rgb(166, 215, 36)" stroke-opacity="0.6734689" stroke-linecap="round" stroke-linejoin="round"/>
    <path d="M 159.95506286621094 6.004637241363525 C 69.9977798461914 6.083274841308594 59.827354431152344 5.360040187835693 120.12993621826172 8.62091064453125 C 114.1292495727539 7.364320278167725 101.07328796386719 6.116964340209961 -7.035862922668457 6.973599910736084 C 25.785701751708984 -64.6954574584961 73.36158752441406 -14.872544288635254 131.7554473876953 -13.095172882080078 C 156.77822875976562 -19.286344528198242 160.42601013183594 -16.008808135986328 159.95506286621094 6.004637241363525" stroke-width="0.0" fill="rgb(255, 255, 255)" opacity="0.89174867" stroke="rgb(99, 14, 103)" stroke-opacity="0.95645446" stroke-linecap="round" stroke-linejoin="round"/>
    <path d="M 260.6998291015625 384.613525390625 C 219.44256591796875 379.6074523925781 239.43533325195312 337.83978271484375 233.55398559570312 295.5640563964844 C 231.67022705078125 283.5873718261719 256.48126220703125 264.2414855957031 111.09837341308594 400.4630126953125 C 103.71646118164062 175.8511199951172 71.67666625976562 252.2270965576172 425.353271484375 235.97325134277344 C 437.3623046875 368.259521484375 336.295166015625 322.9155578613281 260.6998291015625 384.613525390625" stroke-width="0.0" fill="rgb(71, 81, 86)" opacity="0.55111283" stroke="rgb(28, 169, 4)" stroke-opacity="0.114080235" stroke-linecap="round" stroke-linejoin="round"/>
    <path d="M 7.029374122619629 122.73255157470703 C 6.753984451293945 99.28672790527344 7.065802574157715 124.45149993896484 6.864326000213623 206.3813018798828 C -46.91267395019531 186.3758544921875 -13.852417945861816 150.17529296875 -11.61504077911377 127.8816146850586 C -6.124386787414551 116.8980712890625 -11.974990844726562 111.26581573486328 -3.049464702606201 37.44393539428711 C 10.52015495300293 24.45646095275879 6.052299976348877 17.895336151123047 7.029374122619629 122.73255157470703" stroke-width="0.0" fill="rgb(255, 255, 255)" opacity="0.88516" stroke="rgb(143, 79, 147)" stroke-opacity="0.22486496" stroke-linecap="round" stroke-linejoin="round"/>
    <path d="M 298.958251953125 501.415771484375 C 299.13446044921875 525.8157958984375 297.6904602050781 518.6690063476562 276.4894104003906 514.2557983398438 C 270.12371826171875 521.1485595703125 263.8979797363281 527.6744995117188 265.1983947753906 498.8060607910156 C 268.4602966308594 504.9697265625 249.23757934570312 498.85430908203125 334.87005615234375 500.9626159667969 C 240.7358856201172 502.7463684082031 269.0125427246094 501.458251953125 298.958251953125 501.415771484375" stroke-width="0.0" fill="rgb(243, 248, 249)" opacity="0.97787726" stroke="rgb(95, 136, 92)" stroke-opacity="0.28434187" stroke-linecap="round" stroke-linejoin="round"/>
    <path d="M 481.9270324707031 6.742039203643799 C 421.8854675292969 5.551628112792969 438.37158203125 5.19242525100708 442.25 6.094862937927246 C 384.72216796875 6.019875526428223 361.21771240234375 6.129871845245361 296.1274719238281 5.96360445022583 C 329.4722595214844 -55.18172836303711 372.45660400390625 -17.556793212890625 402.0445251464844 -6.230438232421875 C 421.47064208984375 -18.45243263244629 465.68768310546875 -52.80406951904297 481.9270324707031 6.742039203643799" stroke-width="0.0" fill="rgb(255, 255, 255)" opacity="0.9007061" stroke="rgb(190, 63, 141)" stroke-opacity="0.2366129" stroke-linecap="round" stroke-linejoin="round"/>
    <path d="M 233.14239501953125 188.20651245117188 C 231.58526611328125 238.62680053710938 237.3663330078125 243.84854125976562 221.21554565429688 244.22055053710938 C 207.1924285888672 239.66265869140625 215.70376586914062 230.0030517578125 215.17483520507812 178.95816040039062 C 219.35626220703125 162.52403259277344 207.90528869628906 166.70391845703125 232.69631958007812 165.9949493408203 C 233.29693603515625 164.81202697753906 232.74685668945312 178.06768798828125 233.14239501953125 188.20651245117188" stroke-width="0.0" fill="rgb(255, 253, 233)" opacity="0.87571156" stroke="rgb(36, 1, 237)" stroke-opacity="0.7085332" stroke-linecap="round" stroke-linejoin="round"/>
    <path d="M 217.4482421875 467.6635437011719 C 204.81527709960938 507.0406799316406 144.04702758789062 482.4086608886719 78.60586547851562 490.70977783203125 C 9.886181831359863 486.2868957519531 -13.536972999572754 501.9371032714844 -16.21845245361328 467.31036376953125 C 43.85389709472656 466.11029052734375 88.60651397705078 469.2021179199219 59.53966522216797 467.5124206542969 C 68.54798889160156 467.70318603515625 98.68574523925781 467.7222900390625 217.4482421875 467.6635437011719" stroke-width="0.0" fill="rgb(254, 243, 220)" opacity="0.9315633" stroke="rgb(80, 245, 231)" stroke-opacity="0.42795524" stroke-linecap="round" stroke-linejoin="round"/>
    <path d="M 391.7117919921875 57.77750778198242 C 393.0770263671875 57.374393463134766 391.73358154296875 66.32676696777344 380.7320251464844 69.41404724121094 C 366.5262145996094 71.33094024658203 358.8399353027344 54.939395904541016 365.49822998046875 46.196311950683594 C 369.0916748046875 42.37416458129883 370.95843505859375 39.93827819824219 377.9537048339844 39.39244842529297 C 386.96356201171875 39.044193267822266 396.1958312988281 47.9998664855957 391.7117919921875 57.77750778198242" stroke-width="0.0" fill="rgb(255, 252, 229)" opacity="0.8417098" stroke="rgb(13, 31, 171)" stroke-opacity="0.97421116" stroke-linecap="round" stroke-linejoin="round"/>
    <path d="M 302.89794921875 187.44834899902344 C 304.9864807128906 185.78701782226562 303.9701232910156 202.3332061767578 303.0546569824219 210.05426025390625 C 281.8710021972656 201.50242614746094 288.12744140625 196.4372100830078 284.8789367675781 151.80433654785156 C 284.4889831542969 173.4895782470703 282.02081298828125 163.35218811035156 302.927734375 165.50013732910156 C 303.3404235839844 166.4990997314453 302.814208984375 188.25625610351562 302.89794921875 187.44834899902344" stroke-width="0.0" fill="rgb(255, 249, 227)" opacity="0.9022706" stroke="rgb(179, 187, 10)" stroke-opacity="0.5325629" stroke-linecap="round" stroke-linejoin="round"/>
    <path d="M 304.87078857421875 208.37847900390625 C 304.1961975097656 234.4748992919922 309.3807067871094 246.9009246826172 293.0786437988281 244.28207397460938 C 281.5753479003906 235.62681579589844 292.85076904296875 244.90744018554688 286.6278381347656 237.81634521484375 C 288.32940673828125 190.9564971923828 283.1108703613281 179.19786071777344 296.28936767578125 184.40493774414062 C 302.8132019042969 192.95584106445312 303.2166748046875 195.88174438476562 304.87078857421875 208.37847900390625" stroke-width="0.0" fill="rgb(255, 248, 227)" opacity="0.9124094" stroke="rgb(150, 31, 226)" stroke-opacity="0.9906619" stroke-linecap="round" stroke-linejoin="round"/>
    <path d="M 468.6273193359375 489.99053955078125 C 408.28912353515625 490.01251220703125 367.8790588378906 489.7327575683594 353.87249755859375 490.8032531738281 C 338.29339599609375 490.12042236328125 282.4930419921875 491.5458984375 242.392333984375 489.5755920410156 C 252.74874877929688 452.1341857910156 266.2950744628906 470.2799072265625 393.51336669921875 467.3960876464844 C 477.59796142578125 469.45819091796875 485.9674072265625 460.1299133300781 468.6273193359375 489.99053955078125" stroke-width="0.0" fill="rgb(255, 245, 222)" opacity="0.9441351" stroke="rgb(104, 222, 108)" stroke-opacity="0.57504934" stroke-linecap="round" stroke-linejoin="round"/>
    <path d="M 464.0 505.0 C 463.33013916015625 507.5 461.5 509.33013916015625 459.0 510.0 C 456.5 509.33013916015625 454.66986083984375 507.5 454.0 505.0 C 454.66986083984375 502.5 456.5 500.66986083984375 459.0 500.0 C 461.5 500.66986083984375 463.33013916015625 502.5 464.0 505.0" stroke-width="0.0" fill="rgb(250, 249, 249)" opacity="1.0" stroke="rgb(11, 100, 182)" stroke-opacity="0.49288628" stroke-linecap="round" stroke-linejoin="round"/>
    <path d="M 129.0 506.0 C 128.3301239013672 508.5 126.5 510.33013916015625 124.0 511.0 C 121.5 510.33013916015625 119.66987609863281 508.5 119.0 506.0 C 119.66987609863281 503.5 121.5 501.66986083984375 124.0 501.0 C 126.5 501.66986083984375 128.3301239013672 503.5 129.0 506.0" stroke-width="0.0" fill="rgb(250, 249, 249)" opacity="1.0" stroke="rgb(81, 57, 78)" stroke-opacity="0.58615893" stroke-linecap="round" stroke-linejoin="round"/>
    <path d="M 512.0 66.0 C 511.33013916015625 68.5 509.5 70.33012390136719 507.0 71.0 C 504.5 70.33012390136719 502.66986083984375 68.5 502.0 66.0 C 502.66986083984375 63.5 504.5 61.66987228393555 507.0 61.0 C 509.5 61.66987228393555 511.33013916015625 63.5 512.0 66.0" stroke-width="0.0" fill="rgb(250, 249, 249)" opacity="1.0" stroke="rgb(152, 59, 100)" stroke-opacity="0.18419653" stroke-linecap="round" stroke-linejoin="round"/>
    <path d="M 370.0 185.0 C 369.33013916015625 187.5 367.5 189.3301239013672 365.0 190.0 C 362.5 189.3301239013672 360.66986083984375 187.5 360.0 185.0 C 360.66986083984375 182.5 362.5 180.6698760986328 365.0 180.0 C 367.5 180.6698760986328 369.33013916015625 182.5 370.0 185.0" stroke-width="0.0" fill="rgb(255, 245, 223)" opacity="1.0" stroke="rgb(193, 46, 250)" stroke-opacity="0.19491921" stroke-linecap="round" stroke-linejoin="round"/>
    <path d="M 140.0 504.0 C 139.3301239013672 506.5 137.5 508.33013916015625 135.0 509.0 C 132.5 508.33013916015625 130.6698760986328 506.5 130.0 504.0 C 130.6698760986328 501.5 132.5 499.66986083984375 135.0 499.0 C 137.5 499.66986083984375 139.3301239013672 501.5 140.0 504.0" stroke-width="0.0" fill="rgb(248, 248, 248)" opacity="1.0" stroke="rgb(42, 22, 248)" stroke-opacity="0.51549566" stroke-linecap="round" stroke-linejoin="round"/>
    <path d="M 234.0 1.0 C 233.3301239013672 3.5 231.5 5.330127239227295 229.0 6.0 C 226.5 5.330127239227295 224.6698760986328 3.5 224.0 1.0 C 224.6698760986328 -1.5 226.5 -3.330127000808716 229.0 -4.0 C 231.5 -3.330127000808716 233.3301239013672 -1.5 234.0 1.0" stroke-width="0.0" fill="rgb(250, 249, 249)" opacity="1.0" stroke="rgb(108, 118, 52)" stroke-opacity="0.50258964" stroke-linecap="round" stroke-linejoin="round"/>
    <path d="M 407.0 195.0 C 406.33013916015625 197.5 404.5 199.3301239013672 402.0 200.0 C 399.5 199.3301239013672 397.66986083984375 197.5 397.0 195.0 C 397.66986083984375 192.5 399.5 190.6698760986328 402.0 190.0 C 404.5 190.6698760986328 406.33013916015625 192.5 407.0 195.0" stroke-width="0.0" fill="rgb(255, 245, 223)" opacity="1.0" stroke="rgb(61, 98, 106)" stroke-opacity="0.9558855" stroke-linecap="round" stroke-linejoin="round"/>
    <path d="M 156.0 174.0 C 155.3301239013672 176.5 153.5 178.3301239013672 151.0 179.0 C 148.5 178.3301239013672 146.6698760986328 176.5 146.0 174.0 C 146.6698760986328 171.5 148.5 169.6698760986328 151.0 169.0 C 153.5 169.6698760986328 155.3301239013672 171.5 156.0 174.0" stroke-width="0.0" fill="rgb(254, 246, 225)" opacity="1.0" stroke="rgb(44, 96, 207)" stroke-opacity="0.3345309" stroke-linecap="round" stroke-linejoin="round"/>
    <path d="M 443.0 309.0 C 442.33013916015625 311.5 440.5 313.33013916015625 438.0 314.0 C 435.5 313.33013916015625 433.66986083984375 311.5 433.0 309.0 C 433.66986083984375 306.5 435.5 304.66986083984375 438.0 304.0 C 440.5 304.66986083984375 442.33013916015625 306.5 443.0 309.0" stroke-width="0.0" fill="rgb(255, 249, 232)" opacity="1.0" stroke="rgb(131, 172, 33)" stroke-opacity="0.076326974" stroke-linecap="round" stroke-linejoin="round"/>
    <path d="M 406.0 504.0 C 405.33013916015625 506.5 403.5 508.33013916015625 401.0 509.0 C 398.5 508.33013916015625 396.66986083984375 506.5 396.0 504.0 C 396.66986083984375 501.5 398.5 499.66986083984375 401.0 499.0 C 403.5 499.66986083984375 405.33013916015625 501.5 406.0 504.0" stroke-width="0.0" fill="rgb(248, 248, 248)" opacity="1.0" stroke="rgb(20, 126, 170)" stroke-opacity="0.022936461" stroke-linecap="round" stroke-linejoin="round"/>
    <path d="M 259.0 216.0 C 258.33013916015625 218.5 256.5 220.3301239013672 254.0 221.0 C 251.5 220.3301239013672 249.6698760986328 218.5 249.0 216.0 C 249.6698760986328 213.5 251.5 211.6698760986328 254.0 211.0 C 256.5 211.6698760986328 258.33013916015625 213.5 259.0 216.0" stroke-width="0.0" fill="rgb(255, 249, 229)" opacity="1.0" stroke="rgb(229, 172, 203)" stroke-opacity="0.62608814" stroke-linecap="round" stroke-linejoin="round"/>
    <path d="M 226.0 477.0 C 225.3301239013672 479.5 223.5 481.33013916015625 221.0 482.0 C 218.5 481.33013916015625 216.6698760986328 479.5 216.0 477.0 C 216.6698760986328 474.5 218.5 472.66986083984375 221.0 472.0 C 223.5 472.66986083984375 225.3301239013672 474.5 226.0 477.0" stroke-width="0.0" fill="rgb(254, 244, 219)" opacity="1.0" stroke="rgb(155, 137, 106)" stroke-opacity="0.67948467" stroke-linecap="round" stroke-linejoin="round"/>
    <path d="M 422.0 85.0 C 421.33013916015625 87.5 419.5 89.33012390136719 417.0 90.0 C 414.5 89.33012390136719 412.66986083984375 87.5 412.0 85.0 C 412.66986083984375 82.5 414.5 80.66987609863281 417.0 80.0 C 419.5 80.66987609863281 421.33013916015625 82.5 422.0 85.0" stroke-width="0.0" fill="rgb(253, 239, 215)" opacity="1.0" stroke="rgb(163, 151, 26)" stroke-opacity="0.7154394" stroke-linecap="round" stroke-linejoin="round"/>
    <path d="M 350.0 269.0 C 349.33013916015625 271.5 347.5 273.33013916015625 345.0 274.0 C 342.5 273.33013916015625 340.66986083984375 271.5 340.0 269.0 C 340.66986083984375 266.5 342.5 264.66986083984375 345.0 264.0 C 347.5 264.66986083984375 349.33013916015625 266.5 350.0 269.0" stroke-width="0.0" fill="rgb(39, 61, 72)" opacity="1.0" stroke="rgb(12, 154, 28)" stroke-opacity="0.9244227" stroke-linecap="round" stroke-linejoin="round"/>
    <path d="M 240.0 437.0 C 239.3301239013672 439.5 237.5 441.33013916015625 235.0 442.0 C 232.5 441.33013916015625 230.6698760986328 439.5 230.0 437.0 C 230.6698760986328 434.5 232.5 432.66986083984375 235.0 432.0 C 237.5 432.66986083984375 239.3301239013672 434.5 240.0 437.0" stroke-width="0.0" fill="rgb(254, 250, 231)" opacity="1.0" stroke="rgb(44, 185, 88)" stroke-opacity="0.20583868" stroke-linecap="round" stroke-linejoin="round"/>
    <path d="M 488.0 453.0 C 487.33013916015625 455.5 485.5 457.33013916015625 483.0 458.0 C 480.5 457.33013916015625 478.66986083984375 455.5 478.0 453.0 C 478.66986083984375 450.5 480.5 448.66986083984375 483.0 448.0 C 485.5 448.66986083984375 487.33013916015625 450.5 488.0 453.0" stroke-width="0.0" fill="rgb(255, 241, 214)" opacity="1.0" stroke="rgb(131, 1, 204)" stroke-opacity="0.60393643" stroke-linecap="round" stroke-linejoin="round"/>
  </g>
</svg>
