<?xml version="1.0" ?>
<svg xmlns="http://www.w3.org/2000/svg" version="1.1" width="512" height="347">
  <defs/>
  <g>
    <path d="M 506.0994567871094 -6.020293712615967 C 503.1264343261719 93.36627197265625 498.4835510253906 95.55673217773438 494.9849853515625 101.88805389404297 C 403.5214538574219 102.87224578857422 400.4832458496094 99.4410171508789 391.3412170410156 79.55448150634766 C 386.7306213378906 8.943380355834961 387.39898681640625 5.845215797424316 392.993896484375 -5.246358394622803 C 485.30645751953125 -7.584625244140625 488.1407165527344 -5.795831203460693 506.0994567871094 -6.020293712615967" stroke-width="0.0" fill="rgb(81, 120, 180)" opacity="0.059692968" stroke="rgb(61, 217, 183)" stroke-opacity="0.043306053" stroke-linecap="round" stroke-linejoin="round"/>
    <path d="M 73.0 17.0 C 72.33012390136719 19.5 70.5 21.330127716064453 68.0 22.0 C 65.5 21.330127716064453 63.66987228393555 19.5 63.0 17.0 C 63.66987228393555 14.5 65.5 12.669873237609863 68.0 12.0 C 70.5 12.669873237609863 72.33012390136719 14.5 73.0 17.0" stroke-width="0.0" fill="rgb(190, 133, 114)" opacity="1.0" stroke="rgb(113, 111, 84)" stroke-opacity="0.34017462" stroke-linecap="round" stroke-linejoin="round"/>
    <path d="M 14.0 55.0 C 13.330126762390137 57.5 11.5 59.33012771606445 9.0 60.0 C 6.5 59.33012771606445 4.669872760772705 57.5 4.0 55.0 C 4.669872760772705 52.5 6.5 50.66987228393555 9.0 50.0 C 11.5 50.66987228393555 13.330126762390137 52.5 14.0 55.0" stroke-width="0.0" fill="rgb(198, 161, 143)" opacity="1.0" stroke="rgb(107, 216, 1)" stroke-opacity="0.57123506" stroke-linecap="round" stroke-linejoin="round"/>
  </g>
</svg>
