<?xml version="1.0" ?>
<svg xmlns="http://www.w3.org/2000/svg" version="1.1" width="512" height="347">
  <defs/>
  <g>
    <path d="M 516.695556640625 -2.339111566543579 C 514.2305297851562 97.94046783447266 509.66351318359375 98.17636108398438 527.9000244140625 126.48991394042969 C 408.6019287109375 144.25575256347656 402.2001037597656 147.1910858154297 364.57806396484375 153.5879364013672 C 342.62359619140625 19.545352935791016 343.2704772949219 7.651524543762207 342.79248046875 -5.448333263397217 C 485.30645751953125 -7.584625244140625 488.1407165527344 -5.795831203460693 516.695556640625 -2.339111566543579" stroke-width="0.0" fill="rgb(77, 152, 251)" opacity="0.55507" stroke="rgb(61, 217, 183)" stroke-opacity="0.043306053" stroke-linecap="round" stroke-linejoin="round"/>
    <path d="M 171.72923278808594 78.02960205078125 C 219.0506591796875 138.5341339111328 84.0486068725586 121.25867462158203 33.11238098144531 78.38361358642578 C 66.22149658203125 54.062957763671875 38.978492736816406 66.2333755493164 6.344452381134033 16.60432243347168 C 1.0010981559753418 -21.21649742126465 7.108469486236572 -13.06460189819336 22.723852157592773 -0.9621752500534058 C 90.90882110595703 25.111160278320312 83.70735168457031 46.66961669921875 171.72923278808594 78.02960205078125" stroke-width="0.0" fill="rgb(254, 197, 112)" opacity="0.9280694" stroke="rgb(113, 111, 84)" stroke-opacity="0.34017462" stroke-linecap="round" stroke-linejoin="round"/>
    <path d="M -0.03315867483615875 25.16314125061035 C 104.4637451171875 85.50660705566406 116.4894027709961 150.3137664794922 26.978973388671875 167.8445281982422 C -12.833641052246094 95.37812805175781 -19.92295265197754 89.30738067626953 -11.379936218261719 68.94788360595703 C -15.0482177734375 14.877365112304688 -30.934078216552734 -4.030538558959961 -2.873615264892578 -4.536349773406982 C 52.317630767822266 28.889625549316406 24.517261505126953 12.973885536193848 -0.03315867483615875 25.16314125061035" stroke-width="0.0" fill="rgb(255, 200, 115)" opacity="0.96859825" stroke="rgb(107, 216, 1)" stroke-opacity="0.57123506" stroke-linecap="round" stroke-linejoin="round"/>
    <path d="M 359.40045166015625 114.7258529663086 C 382.2301940917969 95.92119598388672 380.5142822265625 88.45028686523438 260.0648498535156 82.51073455810547 C 151.07142639160156 89.58442687988281 132.60194396972656 141.82908630371094 151.36968994140625 -42.32084274291992 C 314.0385437011719 -16.45668601989746 321.8668212890625 -12.238274574279785 341.79412841796875 -11.174079895019531 C 342.9849548339844 -8.156681060791016 338.4906005859375 -1.4776759147644043 359.40045166015625 114.7258529663086" stroke-width="0.0" fill="rgb(235, 207, 216)" opacity="0.590355" stroke="rgb(175, 133, 103)" stroke-opacity="0.5133926" stroke-linecap="round" stroke-linejoin="round"/>
    <path d="M 67.55763244628906 352.1370544433594 C 55.631404876708984 367.7603454589844 42.106632232666016 359.99188232421875 30.931781768798828 357.6523742675781 C -6.981467247009277 358.08404541015625 -10.127348899841309 358.5036315917969 -14.791064262390137 286.2569580078125 C -23.053693771362305 306.1202392578125 -30.494726181030273 256.6966552734375 187.47470092773438 269.7552490234375 C 204.37710571289062 428.32965087890625 150.47613525390625 372.34423828125 67.55763244628906 352.1370544433594" stroke-width="0.0" fill="rgb(90, 70, 63)" opacity="0.6233141" stroke="rgb(81, 231, 53)" stroke-opacity="0.71570295" stroke-linecap="round" stroke-linejoin="round"/>
    <path d="M 347.7265319824219 77.3599624633789 C 421.946044921875 113.41504669189453 369.97674560546875 51.602474212646484 428.49359130859375 185.30458068847656 C 262.85382080078125 149.80477905273438 332.6373291015625 139.50473022460938 231.03782653808594 90.85192108154297 C 271.2443542480469 25.272680282592773 324.2931213378906 42.113399505615234 321.1278991699219 34.45479965209961 C 345.7227478027344 30.109283447265625 326.7109069824219 26.651269912719727 347.7265319824219 77.3599624633789" stroke-width="0.0" fill="rgb(83, 55, 43)" opacity="1.0" stroke="rgb(209, 250, 61)" stroke-opacity="0.6594973" stroke-linecap="round" stroke-linejoin="round"/>
    <path d="M 524.2833862304688 217.4793701171875 C 539.1213989257812 246.71359252929688 541.40673828125 250.02615356445312 486.903076171875 279.5754699707031 C 414.3507995605469 178.1057586669922 430.2662353515625 178.56356811523438 392.40667724609375 98.05284118652344 C 418.49273681640625 111.09971618652344 406.692626953125 120.84770965576172 498.3360595703125 126.20904541015625 C 538.7769165039062 132.32449340820312 525.635986328125 147.9730682373047 524.2833862304688 217.4793701171875" stroke-width="0.0" fill="rgb(151, 186, 250)" opacity="0.41574442" stroke="rgb(234, 231, 120)" stroke-opacity="0.16838099" stroke-linecap="round" stroke-linejoin="round"/>
    <path d="M 319.77593994140625 65.45567321777344 C 320.29296875 71.00537872314453 316.8611755371094 80.8624496459961 262.24053955078125 82.09520721435547 C 217.2122344970703 87.35258483886719 225.3827362060547 84.36193084716797 229.2819061279297 41.414180755615234 C 244.9229736328125 4.2845306396484375 255.11935424804688 8.345100402832031 276.0899658203125 15.998383522033691 C 315.8219299316406 31.06711196899414 317.4731750488281 33.467830657958984 319.77593994140625 65.45567321777344" stroke-width="0.0" fill="rgb(162, 158, 177)" opacity="0.96896404" stroke="rgb(186, 70, 38)" stroke-opacity="0.9526856" stroke-linecap="round" stroke-linejoin="round"/>
    <path d="M 406.9732360839844 93.69123840332031 C 355.7129211425781 87.90167236328125 349.8688049316406 78.75157928466797 336.5813293457031 73.1059341430664 C 299.8421936035156 70.33954620361328 298.6273498535156 67.8709716796875 298.53240966796875 59.378440856933594 C 302.4819030761719 32.145965576171875 305.4275207519531 30.43863296508789 343.8258056640625 -4.801697731018066 C 337.370361328125 17.147327423095703 360.16351318359375 11.551644325256348 406.9732360839844 93.69123840332031" stroke-width="0.0" fill="rgb(114, 135, 177)" opacity="0.9701306" stroke="rgb(31, 57, 195)" stroke-opacity="0.011719153" stroke-linecap="round" stroke-linejoin="round"/>
    <path d="M 411.5142822265625 4.685050010681152 C 377.9048156738281 89.0727767944336 341.65655517578125 46.45457458496094 302.48822021484375 50.997894287109375 C 298.0981750488281 54.719242095947266 296.05902099609375 53.07030487060547 281.3165588378906 36.68522644042969 C 254.26661682128906 46.3642463684082 198.88134765625 115.04391479492188 154.88316345214844 6.228931903839111 C 344.6828308105469 -16.526634216308594 352.14886474609375 -15.556166648864746 411.5142822265625 4.685050010681152" stroke-width="0.0" fill="rgb(33, 69, 140)" opacity="0.14513206" stroke="rgb(226, 37, 193)" stroke-opacity="0.24295457" stroke-linecap="round" stroke-linejoin="round"/>
    <path d="M 324.5531311035156 187.93276977539062 C 327.2336730957031 187.218505859375 325.96484375 192.72291564941406 320.2748718261719 190.63241577148438 C 319.1362609863281 188.30844116210938 302.15472412109375 190.9205322265625 305.2996826171875 188.90118408203125 C 305.3466796875 164.29574584960938 304.1993103027344 167.97703552246094 315.21954345703125 166.69993591308594 C 323.2906494140625 170.54046630859375 325.5680236816406 172.0316619873047 324.5531311035156 187.93276977539062" stroke-width="0.0" fill="rgb(223, 235, 255)" opacity="0.85771555" stroke="rgb(38, 1, 107)" stroke-opacity="0.6988667" stroke-linecap="round" stroke-linejoin="round"/>
    <path d="M 370.1302490234375 87.34822082519531 C 345.83648681640625 82.4826889038086 316.8152160644531 81.22653198242188 318.56646728515625 82.13715362548828 C 301.5949401855469 79.38070678710938 276.9667663574219 83.22925567626953 278.10455322265625 77.991455078125 C 290.0416259765625 51.81694412231445 295.35174560546875 50.665367126464844 332.38702392578125 50.38166427612305 C 333.697998046875 65.2737045288086 338.09100341796875 79.03936767578125 370.1302490234375 87.34822082519531" stroke-width="0.0" fill="rgb(135, 149, 181)" opacity="0.9883057" stroke="rgb(62, 230, 57)" stroke-opacity="0.64721113" stroke-linecap="round" stroke-linejoin="round"/>
    <path d="M 291.9545593261719 190.75071716308594 C 293.7810974121094 190.99246215820312 294.2906188964844 190.50184631347656 275.74578857421875 190.99520874023438 C 264.44903564453125 189.82838439941406 271.1642761230469 193.1302947998047 268.9344482421875 192.24488830566406 C 271.7945251464844 167.63316345214844 266.61541748046875 169.49325561523438 282.146728515625 166.22161865234375 C 292.0758056640625 170.28192138671875 291.5351257324219 167.73435974121094 291.9545593261719 190.75071716308594" stroke-width="0.0" fill="rgb(241, 244, 255)" opacity="0.8563853" stroke="rgb(106, 177, 228)" stroke-opacity="0.49644572" stroke-linecap="round" stroke-linejoin="round"/>
    <path d="M 182.2771453857422 93.46202850341797 C 218.50645446777344 94.06237030029297 167.40756225585938 95.41632843017578 146.91799926757812 92.6059341430664 C 117.55596160888672 54.00135040283203 119.42630004882812 114.64295959472656 25.86281394958496 0.014766201376914978 C 68.39698791503906 -21.74352264404297 86.16793823242188 -16.171958923339844 114.16632843017578 -4.228356838226318 C 155.28366088867188 19.964693069458008 140.29588317871094 34.37910079956055 182.2771453857422 93.46202850341797" stroke-width="0.0" fill="rgb(239, 156, 105)" opacity="0.7656188" stroke="rgb(41, 116, 159)" stroke-opacity="0.65305537" stroke-linecap="round" stroke-linejoin="round"/>
    <path d="M 184.53515625 56.17844772338867 C 167.14920043945312 46.1643180847168 163.80690002441406 34.6938591003418 157.92825317382812 46.95873260498047 C 144.2095947265625 100.2377700805664 128.28912353515625 58.653404235839844 121.7207260131836 29.424869537353516 C 106.34051513671875 4.985538959503174 102.43894958496094 -1.7376106977462769 123.520751953125 -13.186572074890137 C 187.14617919921875 -10.010383605957031 195.95321655273438 -5.214626789093018 184.53515625 56.17844772338867" stroke-width="0.0" fill="rgb(170, 143, 147)" opacity="0.7761973" stroke="rgb(224, 228, 212)" stroke-opacity="0.45879084" stroke-linecap="round" stroke-linejoin="round"/>
    <path d="M 45.08477783203125 191.97885131835938 C 44.08368682861328 212.57403564453125 33.04207229614258 198.97042846679688 25.344993591308594 202.7929229736328 C 55.35626220703125 208.45176696777344 -24.238182067871094 215.15611267089844 -9.218714714050293 188.54122924804688 C -7.818467140197754 175.73599243164062 -7.2131853103637695 171.64297485351562 3.7355916500091553 171.02066040039062 C 26.873119354248047 172.37640380859375 34.20310974121094 169.70387268066406 45.08477783203125 191.97885131835938" stroke-width="0.0" fill="rgb(231, 145, 74)" opacity="0.72376025" stroke="rgb(9, 101, 118)" stroke-opacity="0.5030616" stroke-linecap="round" stroke-linejoin="round"/>
    <path d="M 293.4673156738281 238.88034057617188 C 293.5886535644531 247.41273498535156 297.3855895996094 246.46604919433594 284.3089599609375 245.80099487304688 C 264.2387390136719 247.90823364257812 274.0417175292969 246.15951538085938 271.330322265625 246.4835968017578 C 269.7293701171875 212.06021118164062 276.0159606933594 225.76437377929688 276.799560546875 215.9234161376953 C 287.5038757324219 212.3743438720703 292.8408203125 213.06495666503906 293.4673156738281 238.88034057617188" stroke-width="0.0" fill="rgb(26, 6, 6)" opacity="0.8331608" stroke="rgb(78, 85, 49)" stroke-opacity="0.5705603" stroke-linecap="round" stroke-linejoin="round"/>
    <path d="M 186.5728759765625 283.1435546875 C 184.40151977539062 311.1306457519531 190.1543731689453 315.4383544921875 175.819091796875 312.50433349609375 C 137.61270141601562 319.36700439453125 180.67269897460938 308.6378173828125 168.50962829589844 293.61932373046875 C 161.6581573486328 277.122314453125 173.17538452148438 279.4126892089844 173.3302459716797 276.2860412597656 C 182.7691650390625 274.86187744140625 184.16671752929688 278.7698974609375 186.5728759765625 283.1435546875" stroke-width="0.0" fill="rgb(15, 10, 8)" opacity="0.8746771" stroke="rgb(38, 9, 9)" stroke-opacity="0.91421896" stroke-linecap="round" stroke-linejoin="round"/>
    <path d="M 51.23984146118164 159.78628540039062 C 49.42188262939453 159.56060791015625 66.06686401367188 179.8783721923828 44.154788970947266 194.3529510498047 C 29.855287551879883 160.07640075683594 13.117486000061035 173.34414672851562 -6.951399326324463 108.8783950805664 C 14.815607070922852 140.8704376220703 33.35932922363281 130.88426208496094 17.970796585083008 138.21470642089844 C 30.1698055267334 154.3435821533203 29.245145797729492 147.4988555908203 51.23984146118164 159.78628540039062" stroke-width="0.0" fill="rgb(204, 154, 127)" opacity="0.8766475" stroke="rgb(100, 199, 20)" stroke-opacity="0.86417997" stroke-linecap="round" stroke-linejoin="round"/>
    <path d="M 47.34868621826172 268.6463623046875 C 49.13543701171875 287.0989074707031 31.884437561035156 276.2817077636719 37.329437255859375 284.753173828125 C 34.478302001953125 290.9615478515625 19.447765350341797 309.0416564941406 -12.036046028137207 269.1550598144531 C -13.78759765625 207.37991333007812 -16.030282974243164 220.43519592285156 30.558040618896484 233.9178466796875 C 52.620506286621094 243.90988159179688 48.107181549072266 258.3296813964844 47.34868621826172 268.6463623046875" stroke-width="0.0" fill="rgb(255, 187, 140)" opacity="0.6031794" stroke="rgb(35, 184, 115)" stroke-opacity="0.20930892" stroke-linecap="round" stroke-linejoin="round"/>
    <path d="M 41.67341613769531 201.9301300048828 C 35.259647369384766 217.79031372070312 13.172513961791992 213.03817749023438 -0.5551844239234924 209.0457000732422 C -5.00492000579834 207.82882690429688 -6.232821941375732 206.38560485839844 -14.764833450317383 202.53121948242188 C -6.7364182472229 187.203125 -5.931133270263672 185.00611877441406 -4.6271209716796875 180.93759155273438 C -4.034207820892334 198.24583435058594 14.230518341064453 190.2393035888672 41.67341613769531 201.9301300048828" stroke-width="0.0" fill="rgb(178, 143, 154)" opacity="0.33342668" stroke="rgb(40, 211, 24)" stroke-opacity="0.1596657" stroke-linecap="round" stroke-linejoin="round"/>
    <path d="M 122.36109161376953 114.6724853515625 C 103.7618637084961 126.42314147949219 87.47154235839844 133.12269592285156 79.33562469482422 142.61776733398438 C 95.70556640625 120.26998901367188 -58.32783889770508 79.9744644165039 -48.12554168701172 -5.719903469085693 C 65.8782730102539 25.217382431030273 35.63459014892578 63.25904083251953 89.28804779052734 107.0936508178711 C 110.4213638305664 113.48170471191406 113.67158508300781 113.22138214111328 122.36109161376953 114.6724853515625" stroke-width="0.0" fill="rgb(223, 171, 137)" opacity="1.0" stroke="rgb(63, 181, 83)" stroke-opacity="0.53582704" stroke-linecap="round" stroke-linejoin="round"/>
    <path d="M 424.54534912109375 231.632080078125 C 426.0646667480469 255.70352172851562 428.6387939453125 245.07437133789062 422.737548828125 249.94461059570312 C 404.87152099609375 250.2874298095703 410.97454833984375 248.81561279296875 407.9075622558594 227.24496459960938 C 409.5888671875 220.3325653076172 414.124267578125 221.93548583984375 413.49346923828125 218.6670684814453 C 414.3901062011719 221.7074737548828 421.42156982421875 218.5127716064453 424.54534912109375 231.632080078125" stroke-width="0.0" fill="rgb(50, 24, 14)" opacity="1.0" stroke="rgb(3, 111, 232)" stroke-opacity="0.5829063" stroke-linecap="round" stroke-linejoin="round"/>
    <path d="M 356.4187927246094 272.858154296875 C 386.41229248046875 276.4752502441406 388.7040710449219 311.67950439453125 285.2457275390625 318.6043395996094 C 323.92144775390625 315.0011901855469 293.8327331542969 302.654541015625 309.592041015625 299.5193176269531 C 310.3544006347656 284.4785461425781 307.1010437011719 278.6210632324219 318.6585693359375 272.8791198730469 C 346.635009765625 271.358154296875 320.681396484375 302.3566589355469 356.4187927246094 272.858154296875" stroke-width="0.0" fill="rgb(28, 12, 2)" opacity="0.8566572" stroke="rgb(180, 78, 4)" stroke-opacity="0.28289485" stroke-linecap="round" stroke-linejoin="round"/>
    <path d="M 471.51849365234375 257.8674621582031 C 560.9313354492188 269.3114013671875 557.8417358398438 381.9692077636719 264.0526123046875 359.2083435058594 C 340.8166198730469 263.883544921875 389.7648010253906 250.71316528320312 403.3934020996094 278.2204284667969 C 440.3255615234375 273.51727294921875 394.3814697265625 268.9053649902344 419.2969665527344 267.84869384765625 C 407.2019348144531 246.14605712890625 419.2099914550781 250.7112579345703 471.51849365234375 257.8674621582031" stroke-width="0.0" fill="rgb(68, 54, 47)" opacity="0.6836876" stroke="rgb(168, 244, 174)" stroke-opacity="0.72062075" stroke-linecap="round" stroke-linejoin="round"/>
    <path d="M 52.599449157714844 223.41390991210938 C 58.70186233520508 245.32427978515625 52.865440368652344 230.30819702148438 45.75703430175781 248.79811096191406 C 26.346515655517578 244.3784637451172 40.78536605834961 234.48895263671875 26.172624588012695 232.91036987304688 C 26.244590759277344 196.9673614501953 24.647804260253906 205.02598571777344 47.11103057861328 201.83921813964844 C 68.72777557373047 203.4099578857422 49.6402702331543 198.53900146484375 52.599449157714844 223.41390991210938" stroke-width="0.0" fill="rgb(170, 135, 123)" opacity="1.0" stroke="rgb(52, 92, 203)" stroke-opacity="0.64390206" stroke-linecap="round" stroke-linejoin="round"/>
    <path d="M -1.7244542837142944 144.28582763671875 C 21.22673797607422 177.27024841308594 20.278240203857422 175.7526397705078 18.664276123046875 171.68533325195312 C 16.56022071838379 168.3114471435547 2.6768639087677 177.6868133544922 -6.065926551818848 166.8876495361328 C -5.036515235900879 133.93881225585938 -12.27949047088623 124.78853607177734 -3.1040356159210205 109.6448974609375 C 50.56594467163086 158.577392578125 55.8648567199707 134.00350952148438 -1.7244542837142944 144.28582763671875" stroke-width="0.0" fill="rgb(247, 95, 51)" opacity="0.2615217" stroke="rgb(74, 182, 153)" stroke-opacity="0.073488735" stroke-linecap="round" stroke-linejoin="round"/>
    <path d="M 48.87588882446289 170.37371826171875 C 44.4936408996582 170.87074279785156 45.065223693847656 180.2007598876953 33.070255279541016 189.1645965576172 C 4.503960132598877 180.15725708007812 -5.483652114868164 173.2169647216797 -2.9931423664093018 156.0671844482422 C 21.301246643066406 132.16854858398438 -2.4171769618988037 136.31639099121094 42.517738342285156 158.2001190185547 C 49.80365753173828 161.3885040283203 36.11663055419922 168.90072631835938 48.87588882446289 170.37371826171875" stroke-width="0.0" fill="rgb(162, 115, 104)" opacity="0.6269848" stroke="rgb(56, 208, 247)" stroke-opacity="0.05461297" stroke-linecap="round" stroke-linejoin="round"/>
    <path d="M 284.7327575683594 119.81575775146484 C 282.558349609375 125.0096206665039 288.3015441894531 125.37407684326172 278.3052062988281 123.4142837524414 C 274.67156982421875 123.70636749267578 273.9798889160156 129.56463623046875 273.7872314453125 113.02619171142578 C 270.2709655761719 110.80754852294922 280.9913024902344 112.85550689697266 276.80462646484375 109.37226104736328 C 287.6690673828125 110.6451644897461 282.24981689453125 116.59323120117188 284.7327575683594 119.81575775146484" stroke-width="0.0" fill="rgb(17, 3, 2)" opacity="0.8390293" stroke="rgb(241, 77, 4)" stroke-opacity="0.26413575" stroke-linecap="round" stroke-linejoin="round"/>
    <path d="M 14.526459693908691 169.6728973388672 C 26.036592483520508 178.65150451660156 22.733718872070312 186.36029052734375 17.598690032958984 190.89056396484375 C -15.068577766418457 189.33221435546875 -11.229767799377441 182.49502563476562 -14.929924011230469 167.5399169921875 C -15.626643180847168 167.44850158691406 0.2757016718387604 166.64358520507812 14.172894477844238 167.37501525878906 C 11.409478187561035 169.50135803222656 9.304264068603516 172.3550262451172 14.526459693908691 169.6728973388672" stroke-width="0.0" fill="rgb(237, 154, 90)" opacity="0.74636453" stroke="rgb(211, 180, 220)" stroke-opacity="0.6323072" stroke-linecap="round" stroke-linejoin="round"/>
    <path d="M 56.07954788208008 178.21607971191406 C 52.818016052246094 172.63058471679688 62.40394592285156 216.8545379638672 50.0377311706543 207.65516662597656 C 31.084402084350586 202.7415008544922 28.01112937927246 200.2841339111328 52.19533157348633 187.0098419189453 C 73.48326873779297 151.4502716064453 -16.897090911865234 140.95375061035156 73.54056549072266 146.94284057617188 C 77.07813262939453 147.4780731201172 61.2750129699707 154.1919403076172 56.07954788208008 178.21607971191406" stroke-width="0.0" fill="rgb(251, 191, 141)" opacity="0.87056607" stroke="rgb(207, 49, 185)" stroke-opacity="0.38214937" stroke-linecap="round" stroke-linejoin="round"/>
    <path d="M 296.29144287109375 295.6209411621094 C 297.9752502441406 313.49847412109375 291.27325439453125 312.7450866699219 268.24090576171875 309.9737548828125 C 273.1264953613281 316.7447509765625 272.42596435546875 306.1566162109375 271.96307373046875 290.2803039550781 C 271.822998046875 278.8999328613281 276.78497314453125 271.7872619628906 288.5572814941406 273.03662109375 C 298.87890625 279.9552307128906 296.2100830078125 276.60443115234375 296.29144287109375 295.6209411621094" stroke-width="0.0" fill="rgb(23, 17, 19)" opacity="0.8563727" stroke="rgb(159, 1, 234)" stroke-opacity="0.29648715" stroke-linecap="round" stroke-linejoin="round"/>
    <path d="M 494.71038818359375 282.0849304199219 C 494.0125427246094 289.5536804199219 488.9132080078125 284.6178894042969 486.5735168457031 278.0672302246094 C 479.4076232910156 288.7713928222656 480.6463623046875 283.7812805175781 487.86151123046875 275.8929138183594 C 477.03204345703125 286.8897705078125 472.2130126953125 269.6359558105469 480.357421875 255.57752990722656 C 500.204833984375 267.1571350097656 482.3987121582031 277.3622741699219 494.71038818359375 282.0849304199219" stroke-width="0.0" fill="rgb(239, 173, 110)" opacity="0.9337948" stroke="rgb(191, 6, 61)" stroke-opacity="0.8909176" stroke-linecap="round" stroke-linejoin="round"/>
    <path d="M 485.5946350097656 279.5575866699219 C 488.9023132324219 282.5806579589844 488.5507507324219 287.6484680175781 476.5957336425781 285.8243103027344 C 482.7571716308594 285.8645324707031 477.7928771972656 282.7425842285156 476.3886413574219 283.89849853515625 C 476.87255859375 273.694091796875 491.4729309082031 292.86260986328125 492.153564453125 265.5904235839844 C 490.314697265625 283.82696533203125 491.78814697265625 269.5947265625 485.5946350097656 279.5575866699219" stroke-width="0.0" fill="rgb(241, 174, 109)" opacity="0.9370135" stroke="rgb(118, 201, 118)" stroke-opacity="0.797393" stroke-linecap="round" stroke-linejoin="round"/>
    <path d="M 165.13763427734375 200.27601623535156 C 157.8544464111328 203.19715881347656 177.75318908691406 203.5813751220703 153.60342407226562 201.9136505126953 C 145.41995239257812 211.45843505859375 139.02037048339844 206.49032592773438 151.29075622558594 206.1204071044922 C 150.09645080566406 187.6895294189453 152.44384765625 181.98863220214844 161.31613159179688 179.86399841308594 C 163.86680603027344 215.3169403076172 152.8414764404297 202.97622680664062 165.13763427734375 200.27601623535156" stroke-width="0.0" fill="rgb(255, 255, 241)" opacity="0.8853517" stroke="rgb(239, 175, 40)" stroke-opacity="0.118446074" stroke-linecap="round" stroke-linejoin="round"/>
    <path d="M 187.87095642089844 224.2857208251953 C 187.86329650878906 248.79547119140625 189.95846557617188 251.22109985351562 183.89608764648438 250.88253784179688 C 168.64120483398438 251.89187622070312 167.98826599121094 250.57911682128906 176.26170349121094 250.50845336914062 C 176.32835388183594 230.02565002441406 173.5613555908203 227.998779296875 186.7669219970703 223.10202026367188 C 191.07591247558594 226.33497619628906 187.60142517089844 233.2136688232422 187.87095642089844 224.2857208251953" stroke-width="0.0" fill="rgb(9, 20, 25)" opacity="0.944172" stroke="rgb(191, 246, 115)" stroke-opacity="0.92630136" stroke-linecap="round" stroke-linejoin="round"/>
    <path d="M 79.48316192626953 220.46434020996094 C 88.81124877929688 225.97337341308594 96.2662124633789 192.9496612548828 84.41812896728516 320.9364929199219 C 17.815763473510742 312.197021484375 59.92702865600586 258.6156005859375 52.7372932434082 208.38182067871094 C 113.31759643554688 149.39321899414062 72.57058715820312 205.418212890625 92.2682113647461 226.93540954589844 C 106.7078628540039 168.38356018066406 78.74169158935547 198.01519775390625 79.48316192626953 220.46434020996094" stroke-width="0.0" fill="rgb(81, 52, 37)" opacity="0.9705953" stroke="rgb(246, 13, 179)" stroke-opacity="0.72790027" stroke-linecap="round" stroke-linejoin="round"/>
    <path d="M 222.08908081054688 308.9088134765625 C 223.4900665283203 310.5614929199219 224.83412170410156 304.3539733886719 204.90335083007812 307.0038757324219 C 206.13900756835938 321.53179931640625 193.76966857910156 326.18896484375 199.922607421875 297.3352355957031 C 194.300048828125 291.7662353515625 197.35922241210938 269.4172668457031 216.696044921875 276.0377197265625 C 226.45652770996094 285.6306457519531 220.68539428710938 286.8278503417969 222.08908081054688 308.9088134765625" stroke-width="0.0" fill="rgb(21, 13, 8)" opacity="0.83050805" stroke="rgb(155, 121, 164)" stroke-opacity="0.6209512" stroke-linecap="round" stroke-linejoin="round"/>
    <path d="M 328.77056884765625 247.2930450439453 C 327.828125 246.70199584960938 340.59014892578125 247.20037841796875 308.71197509765625 246.2169647216797 C 307.7183837890625 256.87860107421875 310.6668395996094 250.9036865234375 307.88922119140625 226.2938690185547 C 306.7241516113281 221.80520629882812 312.1512145996094 213.89471435546875 321.8724670410156 214.14149475097656 C 332.15289306640625 219.42578125 324.4937438964844 212.08103942871094 328.77056884765625 247.2930450439453" stroke-width="0.0" fill="rgb(26, 6, 5)" opacity="0.8429164" stroke="rgb(46, 52, 50)" stroke-opacity="0.56170535" stroke-linecap="round" stroke-linejoin="round"/>
    <path d="M 293.7130126953125 91.43850708007812 C 295.43182373046875 93.47564697265625 279.0146179199219 84.68268585205078 280.5265808105469 92.73876953125 C 282.7231750488281 84.36434173583984 257.6946105957031 94.69095611572266 266.1333312988281 85.60738372802734 C 289.7643737792969 92.1591567993164 265.1844177246094 86.25084686279297 283.1670227050781 85.74214172363281 C 281.8640441894531 83.1682357788086 278.4520568847656 86.48246002197266 293.7130126953125 91.43850708007812" stroke-width="0.0" fill="rgb(29, 13, 7)" opacity="0.9694231" stroke="rgb(194, 25, 171)" stroke-opacity="0.22136806" stroke-linecap="round" stroke-linejoin="round"/>
    <path d="M 522.6945190429688 272.4850158691406 C 504.35009765625 274.33978271484375 491.0053405761719 276.2882385253906 486.4459228515625 277.9625244140625 C 476.0174560546875 279.4713439941406 491.61627197265625 271.5336608886719 474.6486511230469 257.9862365722656 C 468.3519287109375 269.3518371582031 406.5019226074219 187.78851318359375 510.3860778808594 247.66549682617188 C 519.2210083007812 246.03717041015625 522.9552612304688 244.40110778808594 522.6945190429688 272.4850158691406" stroke-width="0.0" fill="rgb(225, 167, 103)" opacity="0.87381566" stroke="rgb(237, 125, 20)" stroke-opacity="0.9645481" stroke-linecap="round" stroke-linejoin="round"/>
    <path d="M 531.20654296875 249.89907836914062 C 482.28521728515625 262.5774230957031 489.2386474609375 261.5744934082031 473.8149108886719 267.9587097167969 C 477.5177001953125 270.32415771484375 477.01446533203125 265.8858947753906 472.2543640136719 260.80938720703125 C 480.4826354980469 263.6080322265625 462.7695617675781 245.34918212890625 483.51885986328125 248.71896362304688 C 502.6618957519531 252.69801330566406 517.026123046875 247.44219970703125 531.20654296875 249.89907836914062" stroke-width="0.0" fill="rgb(224, 183, 132)" opacity="0.9188125" stroke="rgb(44, 155, 205)" stroke-opacity="0.9681269" stroke-linecap="round" stroke-linejoin="round"/>
    <path d="M 510.2226867675781 256.1875915527344 C 485.5655517578125 275.87225341796875 480.6175231933594 270.9961242675781 475.0469055175781 271.70953369140625 C 494.497314453125 274.2325439453125 487.4689636230469 269.5121154785156 467.7064514160156 277.5283508300781 C 479.85595703125 269.0059814453125 477.668212890625 261.1377868652344 465.1227722167969 249.9479217529297 C 497.03759765625 242.42662048339844 485.19378662109375 257.94879150390625 510.2226867675781 256.1875915527344" stroke-width="0.0" fill="rgb(203, 167, 116)" opacity="0.5067254" stroke="rgb(127, 254, 228)" stroke-opacity="0.7751689" stroke-linecap="round" stroke-linejoin="round"/>
    <path d="M 497.9083557128906 258.21728515625 C 475.1483154296875 256.0411071777344 471.78411865234375 257.3432312011719 478.092529296875 270.4726867675781 C 474.0124206542969 284.2368469238281 470.125 296.97320556640625 478.1896667480469 261.0269470214844 C 464.5401916503906 273.9986267089844 464.29632568359375 239.47799682617188 496.29833984375 240.10357666015625 C 506.0949401855469 245.12428283691406 495.0793151855469 256.4314880371094 497.9083557128906 258.21728515625" stroke-width="0.0" fill="rgb(205, 173, 134)" opacity="1.0" stroke="rgb(184, 171, 26)" stroke-opacity="0.62410176" stroke-linecap="round" stroke-linejoin="round"/>
    <path d="M 482.51873779296875 280.98583984375 C 475.35406494140625 269.1537170410156 484.2376403808594 288.1360778808594 475.27386474609375 278.61578369140625 C 479.3647155761719 288.5113830566406 471.2128601074219 274.1684265136719 468.71990966796875 284.159423828125 C 472.197265625 263.5596618652344 469.1354675292969 266.50531005859375 475.4910888671875 271.5301818847656 C 480.32501220703125 272.37945556640625 472.30206298828125 271.4504089355469 482.51873779296875 280.98583984375" stroke-width="0.0" fill="rgb(199, 139, 65)" opacity="0.6075451" stroke="rgb(121, 55, 59)" stroke-opacity="0.94441706" stroke-linecap="round" stroke-linejoin="round"/>
    <path d="M 128.3840789794922 291.8570861816406 C 127.48729705810547 301.4592590332031 126.6014404296875 310.2762451171875 126.88143920898438 312.0718688964844 C 95.71833038330078 313.1344299316406 119.94634246826172 314.25958251953125 111.92475128173828 299.748291015625 C 110.0406723022461 281.2021484375 118.20275115966797 278.3749694824219 123.59382629394531 279.54833984375 C 124.32804870605469 278.79644775390625 130.18663024902344 284.81634521484375 128.3840789794922 291.8570861816406" stroke-width="0.0" fill="rgb(33, 20, 10)" opacity="0.95224154" stroke="rgb(179, 246, 23)" stroke-opacity="0.72780585" stroke-linecap="round" stroke-linejoin="round"/>
    <path d="M 183.30043029785156 310.6224670410156 C 186.0860595703125 311.3540954589844 158.01893615722656 308.673828125 166.71905517578125 307.9218444824219 C 181.1305694580078 312.4537048339844 181.86843872070312 310.5399475097656 172.0295867919922 310.7571716308594 C 172.2991180419922 304.3539733886719 170.32113647460938 307.4464111328125 185.76243591308594 306.6419982910156 C 173.7241668701172 306.7669677734375 183.33360290527344 298.4855651855469 183.30043029785156 310.6224670410156" stroke-width="0.0" fill="rgb(74, 87, 108)" opacity="0.86212444" stroke="rgb(247, 34, 128)" stroke-opacity="0.2054715" stroke-linecap="round" stroke-linejoin="round"/>
    <path d="M 444.5840759277344 269.4211730957031 C 462.244140625 319.7373962402344 448.0592041015625 311.7389831542969 422.359130859375 310.0456237792969 C 391.1999816894531 312.5514831542969 389.10284423828125 310.29620361328125 400.9837951660156 303.3110046386719 C 425.7109680175781 302.2560119628906 406.1100769042969 284.3688659667969 417.2556457519531 275.2406005859375 C 441.00262451171875 263.282470703125 422.3683776855469 350.7136535644531 444.5840759277344 269.4211730957031" stroke-width="0.0" fill="rgb(34, 17, 11)" opacity="0.8457296" stroke="rgb(249, 39, 227)" stroke-opacity="0.0013857418" stroke-linecap="round" stroke-linejoin="round"/>
    <path d="M 105.85307312011719 289.5023498535156 C 104.7293701171875 289.2920837402344 105.56073760986328 301.8440246582031 103.4485855102539 312.4191589355469 C 82.421142578125 310.7267761230469 95.93943786621094 319.3170471191406 91.62242889404297 291.6401062011719 C 96.41329956054688 279.8789978027344 94.351318359375 279.9751892089844 94.38822174072266 283.9218444824219 C 98.77407836914062 279.0398254394531 105.13365936279297 279.3813171386719 105.85307312011719 289.5023498535156" stroke-width="0.0" fill="rgb(35, 19, 8)" opacity="0.94793946" stroke="rgb(185, 42, 175)" stroke-opacity="0.9000391" stroke-linecap="round" stroke-linejoin="round"/>
    <path d="M 263.84295654296875 307.2405090332031 C 249.0211181640625 320.5740051269531 237.67581176757812 312.7604064941406 181.33056640625 316.47509765625 C 331.1903381347656 316.3520812988281 274.3251953125 318.10791015625 199.38714599609375 317.3606262207031 C 223.42709350585938 304.8738708496094 191.65660095214844 306.7040710449219 225.24195861816406 306.5249938964844 C 218.16799926757812 306.0185546875 234.8809051513672 308.6387939453125 263.84295654296875 307.2405090332031" stroke-width="0.0" fill="rgb(133, 125, 137)" opacity="1.0" stroke="rgb(21, 84, 53)" stroke-opacity="0.24086691" stroke-linecap="round" stroke-linejoin="round"/>
    <path d="M 187.90762329101562 228.8975067138672 C 188.84678649902344 258.0754089355469 189.75852966308594 248.47311401367188 174.7045135498047 252.140380859375 C 173.99603271484375 252.14804077148438 175.02359008789062 246.74002075195312 175.32180786132812 233.2157440185547 C 168.6057586669922 227.8457489013672 169.84249877929688 219.20700073242188 183.60552978515625 221.1768035888672 C 188.59678649902344 222.83251953125 190.3308868408203 228.3037567138672 187.90762329101562 228.8975067138672" stroke-width="0.0" fill="rgb(40, 10, 0)" opacity="0.59829617" stroke="rgb(100, 96, 136)" stroke-opacity="0.29072183" stroke-linecap="round" stroke-linejoin="round"/>
    <path d="M 402.9637756347656 280.4654235839844 C 402.7786560058594 279.4871826171875 389.7179870605469 291.2864990234375 384.9005432128906 312.2162170410156 C 382.4283447265625 299.2630920410156 380.7716369628906 285.3422546386719 381.36663818359375 285.2343444824219 C 381.6790466308594 275.31005859375 384.59906005859375 276.0619812011719 390.43280029296875 273.0825500488281 C 400.6939392089844 272.8950500488281 400.3546447753906 278.87213134765625 402.9637756347656 280.4654235839844" stroke-width="0.0" fill="rgb(5, 3, 3)" opacity="0.9558495" stroke="rgb(82, 217, 145)" stroke-opacity="0.037226457" stroke-linecap="round" stroke-linejoin="round"/>
    <path d="M 406.05499267578125 305.4485778808594 C 411.54345703125 304.6193542480469 411.2831726074219 304.6365051269531 398.6816711425781 306.30181884765625 C 372.7721252441406 310.4180603027344 385.2139892578125 293.6462707519531 389.02276611328125 299.53662109375 C 394.3648681640625 291.2125244140625 392.07073974609375 290.5260925292969 392.4202575683594 273.9011535644531 C 409.62353515625 282.30230712890625 399.6993713378906 275.69451904296875 406.05499267578125 305.4485778808594" stroke-width="0.0" fill="rgb(46, 27, 10)" opacity="0.9077433" stroke="rgb(37, 249, 86)" stroke-opacity="0.61267734" stroke-linecap="round" stroke-linejoin="round"/>
    <path d="M 157.9467315673828 235.29469299316406 C 153.85946655273438 246.45803833007812 160.06568908691406 253.9308319091797 150.79287719726562 253.26956176757812 C 145.6651611328125 254.81777954101562 150.41419982910156 246.76263427734375 149.5059356689453 231.87522888183594 C 145.8338623046875 229.20506286621094 136.73660278320312 231.66029357910156 146.68557739257812 225.38645935058594 C 159.48008728027344 223.39892578125 156.08920288085938 230.9243927001953 157.9467315673828 235.29469299316406" stroke-width="0.0" fill="rgb(23, 7, 4)" opacity="0.8689934" stroke="rgb(138, 80, 19)" stroke-opacity="0.42490155" stroke-linecap="round" stroke-linejoin="round"/>
    <path d="M 155.67161560058594 290.4360046386719 C 154.80442810058594 302.90740966796875 152.89520263671875 315.9205322265625 154.90933227539062 312.6600646972656 C 109.13818359375 310.4596862792969 155.9798126220703 323.3780212402344 141.18405151367188 280.7268981933594 C 131.90936279296875 296.879638671875 136.74298095703125 279.1152038574219 144.09556579589844 277.8672790527344 C 156.19769287109375 276.709716796875 154.9036407470703 285.34808349609375 155.67161560058594 290.4360046386719" stroke-width="0.0" fill="rgb(19, 12, 9)" opacity="0.8999091" stroke="rgb(249, 115, 8)" stroke-opacity="0.69328564" stroke-linecap="round" stroke-linejoin="round"/>
    <path d="M 257.6556396484375 192.24118041992188 C 261.8246154785156 189.8408660888672 256.7001647949219 191.11167907714844 234.61138916015625 193.4440155029297 C 232.48255920410156 194.41551208496094 233.08505249023438 193.3990478515625 237.3855438232422 193.27871704101562 C 237.25425720214844 169.5745391845703 237.9031219482422 171.1486053466797 248.56405639648438 167.46969604492188 C 257.422607421875 168.20155334472656 258.1405944824219 171.25637817382812 257.6556396484375 192.24118041992188" stroke-width="0.0" fill="rgb(255, 251, 254)" opacity="0.8142285" stroke="rgb(234, 132, 32)" stroke-opacity="0.13056526" stroke-linecap="round" stroke-linejoin="round"/>
    <path d="M 191.92819213867188 191.43121337890625 C 190.07310485839844 201.74591064453125 195.89566040039062 196.6738739013672 177.02452087402344 199.7696075439453 C 179.1621856689453 199.3665008544922 174.59841918945312 190.74374389648438 178.42674255371094 208.8658447265625 C 175.62789916992188 181.5833282470703 177.54092407226562 179.49090576171875 186.15933227539062 175.66502380371094 C 193.18740844726562 176.88027954101562 190.69656372070312 169.6067657470703 191.92819213867188 191.43121337890625" stroke-width="0.0" fill="rgb(255, 251, 241)" opacity="0.8907336" stroke="rgb(167, 143, 206)" stroke-opacity="0.09985857" stroke-linecap="round" stroke-linejoin="round"/>
    <path d="M 520.170654296875 246.35391235351562 C 520.9788208007812 254.1219940185547 521.017822265625 257.28228759765625 517.8341674804688 254.04087829589844 C 494.3772277832031 248.4695281982422 486.17913818359375 245.2900390625 477.00347900390625 246.94155883789062 C 484.5567626953125 238.86386108398438 503.7086181640625 237.23121643066406 508.2957458496094 234.26097106933594 C 514.9468383789062 234.6642303466797 520.1612548828125 234.0982666015625 520.170654296875 246.35391235351562" stroke-width="0.0" fill="rgb(77, 81, 92)" opacity="0.5626235" stroke="rgb(221, 230, 50)" stroke-opacity="0.2031248" stroke-linecap="round" stroke-linejoin="round"/>
    <path d="M 488.5603332519531 242.8717041015625 C 474.0452575683594 245.36105346679688 474.48394775390625 247.64942932128906 471.1723937988281 295.8794860839844 C 470.9289855957031 291.3983459472656 470.8450927734375 283.48638916015625 475.82159423828125 247.015869140625 C 458.5027160644531 259.30426025390625 457.8291015625 292.4862976074219 430.6575012207031 113.92423248291016 C 603.5263061523438 137.1564483642578 555.7473754882812 191.5991973876953 488.5603332519531 242.8717041015625" stroke-width="0.0" fill="rgb(139, 155, 179)" opacity="0.61091983" stroke="rgb(216, 253, 101)" stroke-opacity="0.38777503" stroke-linecap="round" stroke-linejoin="round"/>
    <path d="M 494.2620544433594 274.74139404296875 C 487.45989990234375 284.293701171875 482.2817687988281 286.75543212890625 481.2926330566406 282.0338134765625 C 479.0018615722656 283.97772216796875 481.8480224609375 274.07135009765625 468.4859619140625 275.6455383300781 C 479.9677734375 268.70263671875 485.7700500488281 274.0348815917969 477.31060791015625 278.68316650390625 C 481.38983154296875 266.6083679199219 489.390869140625 276.0652160644531 494.2620544433594 274.74139404296875" stroke-width="0.0" fill="rgb(226, 160, 99)" opacity="0.99226224" stroke="rgb(117, 193, 177)" stroke-opacity="0.36325952" stroke-linecap="round" stroke-linejoin="round"/>
    <path d="M 483.82012939453125 280.0965270996094 C 479.53045654296875 269.97503662109375 476.61279296875 271.711181640625 480.4355163574219 281.7436218261719 C 480.4297180175781 280.32086181640625 475.8255920410156 276.4905700683594 473.6259460449219 281.28802490234375 C 473.71771240234375 263.9097595214844 464.314453125 272.9901428222656 478.5149230957031 262.4399719238281 C 475.0018310546875 268.5369873046875 478.029296875 269.59173583984375 483.82012939453125 280.0965270996094" stroke-width="0.0" fill="rgb(225, 173, 114)" opacity="1.0" stroke="rgb(145, 115, 228)" stroke-opacity="0.03598804" stroke-linecap="round" stroke-linejoin="round"/>
    <path d="M 406.5205993652344 309.2145690917969 C 401.1339416503906 289.91650390625 400.26458740234375 312.6915588378906 355.8760070800781 310.9933776855469 C 312.9006042480469 318.6249694824219 369.0573425292969 288.32708740234375 379.8733825683594 311.0378112792969 C 351.3397216796875 310.5929870605469 381.9014587402344 313.8206787109375 385.0222473144531 301.6016540527344 C 399.8653564453125 301.36572265625 409.0777587890625 290.7716064453125 406.5205993652344 309.2145690917969" stroke-width="0.0" fill="rgb(31, 25, 27)" opacity="0.97850764" stroke="rgb(201, 62, 107)" stroke-opacity="0.6597879" stroke-linecap="round" stroke-linejoin="round"/>
    <path d="M 258.1283264160156 238.84207153320312 C 249.23316955566406 235.7847137451172 260.2369689941406 246.39451599121094 253.7613067626953 246.88711547851562 C 222.04986572265625 247.38026428222656 240.11276245117188 250.16500854492188 237.46017456054688 239.22793579101562 C 239.71923828125 212.08631896972656 236.7672576904297 218.03341674804688 246.43701171875 215.1765594482422 C 256.9808654785156 217.3944091796875 257.94232177734375 219.5550079345703 258.1283264160156 238.84207153320312" stroke-width="0.0" fill="rgb(29, 11, 4)" opacity="0.8863333" stroke="rgb(129, 241, 172)" stroke-opacity="0.5769956" stroke-linecap="round" stroke-linejoin="round"/>
    <path d="M 254.0 283.0 C 253.3301239013672 285.5 251.5 287.33013916015625 249.0 288.0 C 246.5 287.33013916015625 244.6698760986328 285.5 244.0 283.0 C 244.6698760986328 280.5 246.5 278.66986083984375 249.0 278.0 C 251.5 278.66986083984375 253.3301239013672 280.5 254.0 283.0" stroke-width="0.0" fill="rgb(1, 1, 1)" opacity="1.0" stroke="rgb(2, 40, 36)" stroke-opacity="0.6588237" stroke-linecap="round" stroke-linejoin="round"/>
    <path d="M 121.0 260.0 C 120.33012390136719 262.5 118.5 264.33013916015625 116.0 265.0 C 113.5 264.33013916015625 111.66987609863281 262.5 111.0 260.0 C 111.66987609863281 257.5 113.5 255.6698760986328 116.0 255.0 C 118.5 255.6698760986328 120.33012390136719 257.5 121.0 260.0" stroke-width="0.0" fill="rgb(187, 143, 124)" opacity="1.0" stroke="rgb(216, 1, 212)" stroke-opacity="0.21729928" stroke-linecap="round" stroke-linejoin="round"/>
    <path d="M 20.0 188.0 C 19.330127716064453 190.5 17.5 192.3301239013672 15.0 193.0 C 12.5 192.3301239013672 10.669873237609863 190.5 10.0 188.0 C 10.669873237609863 185.5 12.5 183.6698760986328 15.0 183.0 C 17.5 183.6698760986328 19.330127716064453 185.5 20.0 188.0" stroke-width="0.0" fill="rgb(251, 221, 128)" opacity="1.0" stroke="rgb(101, 43, 60)" stroke-opacity="0.5538403" stroke-linecap="round" stroke-linejoin="round"/>
    <path d="M 445.0 242.0 C 444.33013916015625 244.5 442.5 246.3301239013672 440.0 247.0 C 437.5 246.3301239013672 435.66986083984375 244.5 435.0 242.0 C 435.66986083984375 239.5 437.5 237.6698760986328 440.0 237.0 C 442.5 237.6698760986328 444.33013916015625 239.5 445.0 242.0" stroke-width="0.0" fill="rgb(85, 48, 29)" opacity="1.0" stroke="rgb(238, 178, 51)" stroke-opacity="0.68503475" stroke-linecap="round" stroke-linejoin="round"/>
    <path d="M 170.0 195.0 C 169.3301239013672 197.5 167.5 199.3301239013672 165.0 200.0 C 162.5 199.3301239013672 160.6698760986328 197.5 160.0 195.0 C 160.6698760986328 192.5 162.5 190.6698760986328 165.0 190.0 C 167.5 190.6698760986328 169.3301239013672 192.5 170.0 195.0" stroke-width="0.0" fill="rgb(194, 152, 117)" opacity="1.0" stroke="rgb(187, 82, 103)" stroke-opacity="0.6847675" stroke-linecap="round" stroke-linejoin="round"/>
    <path d="M 49.0 271.0 C 48.33012771606445 273.5 46.5 275.33013916015625 44.0 276.0 C 41.5 275.33013916015625 39.66987228393555 273.5 39.0 271.0 C 39.66987228393555 268.5 41.5 266.66986083984375 44.0 266.0 C 46.5 266.66986083984375 48.33012771606445 268.5 49.0 271.0" stroke-width="0.0" fill="rgb(250, 187, 46)" opacity="1.0" stroke="rgb(22, 253, 81)" stroke-opacity="0.7118011" stroke-linecap="round" stroke-linejoin="round"/>
    <path d="M 352.0 118.0 C 351.33013916015625 120.5 349.5 122.33012390136719 347.0 123.0 C 344.5 122.33012390136719 342.66986083984375 120.5 342.0 118.0 C 342.66986083984375 115.5 344.5 113.66987609863281 347.0 113.0 C 349.5 113.66987609863281 351.33013916015625 115.5 352.0 118.0" stroke-width="0.0" fill="rgb(18, 2, 2)" opacity="1.0" stroke="rgb(137, 209, 218)" stroke-opacity="0.91157347" stroke-linecap="round" stroke-linejoin="round"/>
    <path d="M 209.0 136.0 C 208.3301239013672 138.5 206.5 140.3301239013672 204.0 141.0 C 201.5 140.3301239013672 199.6698760986328 138.5 199.0 136.0 C 199.6698760986328 133.5 201.5 131.6698760986328 204.0 131.0 C 206.5 131.6698760986328 208.3301239013672 133.5 209.0 136.0" stroke-width="0.0" fill="rgb(196, 154, 130)" opacity="1.0" stroke="rgb(168, 145, 132)" stroke-opacity="0.2361873" stroke-linecap="round" stroke-linejoin="round"/>
    <path d="M 28.0 187.0 C 27.330127716064453 189.5 25.5 191.3301239013672 23.0 192.0 C 20.5 191.3301239013672 18.669872283935547 189.5 18.0 187.0 C 18.669872283935547 184.5 20.5 182.6698760986328 23.0 182.0 C 25.5 182.6698760986328 27.330127716064453 184.5 28.0 187.0" stroke-width="0.0" fill="rgb(254, 205, 121)" opacity="1.0" stroke="rgb(212, 69, 0)" stroke-opacity="0.8910369" stroke-linecap="round" stroke-linejoin="round"/>
    <path d="M 40.0 249.0 C 39.33012771606445 251.5 37.5 253.3301239013672 35.0 254.0 C 32.5 253.3301239013672 30.669872283935547 251.5 30.0 249.0 C 30.669872283935547 246.5 32.5 244.6698760986328 35.0 244.0 C 37.5 244.6698760986328 39.33012771606445 246.5 40.0 249.0" stroke-width="0.0" fill="rgb(254, 237, 150)" opacity="1.0" stroke="rgb(196, 68, 91)" stroke-opacity="0.009499678" stroke-linecap="round" stroke-linejoin="round"/>
    <path d="M 30.0 186.0 C 29.330127716064453 188.5 27.5 190.3301239013672 25.0 191.0 C 22.5 190.3301239013672 20.669872283935547 188.5 20.0 186.0 C 20.669872283935547 183.5 22.5 181.6698760986328 25.0 181.0 C 27.5 181.6698760986328 29.330127716064453 183.5 30.0 186.0" stroke-width="0.0" fill="rgb(255, 206, 118)" opacity="1.0" stroke="rgb(210, 247, 37)" stroke-opacity="0.35917172" stroke-linecap="round" stroke-linejoin="round"/>
    <path d="M 217.0 199.0 C 216.3301239013672 201.5 214.5 203.3301239013672 212.0 204.0 C 209.5 203.3301239013672 207.6698760986328 201.5 207.0 199.0 C 207.6698760986328 196.5 209.5 194.6698760986328 212.0 194.0 C 214.5 194.6698760986328 216.3301239013672 196.5 217.0 199.0" stroke-width="0.0" fill="rgb(205, 163, 129)" opacity="1.0" stroke="rgb(240, 186, 118)" stroke-opacity="0.18807219" stroke-linecap="round" stroke-linejoin="round"/>
    <path d="M 36.0 194.0 C 35.33012771606445 196.5 33.5 198.3301239013672 31.0 199.0 C 28.5 198.3301239013672 26.669872283935547 196.5 26.0 194.0 C 26.669872283935547 191.5 28.5 189.6698760986328 31.0 189.0 C 33.5 189.6698760986328 35.33012771606445 191.5 36.0 194.0" stroke-width="0.0" fill="rgb(255, 213, 131)" opacity="1.0" stroke="rgb(253, 70, 236)" stroke-opacity="0.17470421" stroke-linecap="round" stroke-linejoin="round"/>
    <path d="M 354.0 235.0 C 353.33013916015625 237.5 351.5 239.3301239013672 349.0 240.0 C 346.5 239.3301239013672 344.66986083984375 237.5 344.0 235.0 C 344.66986083984375 232.5 346.5 230.6698760986328 349.0 230.0 C 351.5 230.6698760986328 353.33013916015625 232.5 354.0 235.0" stroke-width="0.0" fill="rgb(61, 25, 25)" opacity="1.0" stroke="rgb(106, 141, 197)" stroke-opacity="0.20333292" stroke-linecap="round" stroke-linejoin="round"/>
    <path d="M 15.0 194.0 C 14.330126762390137 196.5 12.5 198.3301239013672 10.0 199.0 C 7.5 198.3301239013672 5.669872760772705 196.5 5.0 194.0 C 5.669872760772705 191.5 7.5 189.6698760986328 10.0 189.0 C 12.5 189.6698760986328 14.330126762390137 191.5 15.0 194.0" stroke-width="0.0" fill="rgb(255, 229, 153)" opacity="1.0" stroke="rgb(100, 153, 227)" stroke-opacity="0.20470358" stroke-linecap="round" stroke-linejoin="round"/>
    <path d="M 214.0 234.0 C 213.3301239013672 236.5 211.5 238.3301239013672 209.0 239.0 C 206.5 238.3301239013672 204.6698760986328 236.5 204.0 234.0 C 204.6698760986328 231.5 206.5 229.6698760986328 209.0 229.0 C 211.5 229.6698760986328 213.3301239013672 231.5 214.0 234.0" stroke-width="0.0" fill="rgb(51, 30, 17)" opacity="1.0" stroke="rgb(166, 195, 199)" stroke-opacity="0.69824076" stroke-linecap="round" stroke-linejoin="round"/>
    <path d="M 389.0 220.0 C 388.33013916015625 222.5 386.5 224.3301239013672 384.0 225.0 C 381.5 224.3301239013672 379.66986083984375 222.5 379.0 220.0 C 379.66986083984375 217.5 381.5 215.6698760986328 384.0 215.0 C 386.5 215.6698760986328 388.33013916015625 217.5 389.0 220.0" stroke-width="0.0" fill="rgb(52, 25, 7)" opacity="1.0" stroke="rgb(115, 144, 171)" stroke-opacity="0.8277113" stroke-linecap="round" stroke-linejoin="round"/>
    <path d="M 218.0 231.0 C 217.3301239013672 233.5 215.5 235.3301239013672 213.0 236.0 C 210.5 235.3301239013672 208.6698760986328 233.5 208.0 231.0 C 208.6698760986328 228.5 210.5 226.6698760986328 213.0 226.0 C 215.5 226.6698760986328 217.3301239013672 228.5 218.0 231.0" stroke-width="0.0" fill="rgb(42, 22, 13)" opacity="1.0" stroke="rgb(152, 25, 61)" stroke-opacity="0.231052" stroke-linecap="round" stroke-linejoin="round"/>
    <path d="M 322.0 129.0 C 321.33013916015625 131.5 319.5 133.3301239013672 317.0 134.0 C 314.5 133.3301239013672 312.66986083984375 131.5 312.0 129.0 C 312.66986083984375 126.5 314.5 124.66987609863281 317.0 124.0 C 319.5 124.66987609863281 321.33013916015625 126.5 322.0 129.0" stroke-width="0.0" fill="rgb(177, 135, 111)" opacity="1.0" stroke="rgb(196, 242, 11)" stroke-opacity="0.65678525" stroke-linecap="round" stroke-linejoin="round"/>
    <path d="M 389.0 240.0 C 388.33013916015625 242.5 386.5 244.3301239013672 384.0 245.0 C 381.5 244.3301239013672 379.66986083984375 242.5 379.0 240.0 C 379.66986083984375 237.5 381.5 235.6698760986328 384.0 235.0 C 386.5 235.6698760986328 388.33013916015625 237.5 389.0 240.0" stroke-width="0.0" fill="rgb(34, 14, 13)" opacity="1.0" stroke="rgb(151, 44, 9)" stroke-opacity="0.91393125" stroke-linecap="round" stroke-linejoin="round"/>
    <path d="M 356.0 225.0 C 355.33013916015625 227.5 353.5 229.3301239013672 351.0 230.0 C 348.5 229.3301239013672 346.66986083984375 227.5 346.0 225.0 C 346.66986083984375 222.5 348.5 220.6698760986328 351.0 220.0 C 353.5 220.6698760986328 355.33013916015625 222.5 356.0 225.0" stroke-width="0.0" fill="rgb(15, 6, 7)" opacity="1.0" stroke="rgb(19, 58, 174)" stroke-opacity="0.6707022" stroke-linecap="round" stroke-linejoin="round"/>
    <path d="M 220.0 182.0 C 219.3301239013672 184.5 217.5 186.3301239013672 215.0 187.0 C 212.5 186.3301239013672 210.6698760986328 184.5 210.0 182.0 C 210.6698760986328 179.5 212.5 177.6698760986328 215.0 177.0 C 217.5 177.6698760986328 219.3301239013672 179.5 220.0 182.0" stroke-width="0.0" fill="rgb(241, 227, 224)" opacity="1.0" stroke="rgb(161, 31, 238)" stroke-opacity="0.355614" stroke-linecap="round" stroke-linejoin="round"/>
    <path d="M 405.0 138.0 C 404.33013916015625 140.5 402.5 142.3301239013672 400.0 143.0 C 397.5 142.3301239013672 395.66986083984375 140.5 395.0 138.0 C 395.66986083984375 135.5 397.5 133.6698760986328 400.0 133.0 C 402.5 133.6698760986328 404.33013916015625 135.5 405.0 138.0" stroke-width="0.0" fill="rgb(145, 100, 78)" opacity="1.0" stroke="rgb(100, 107, 104)" stroke-opacity="0.15370886" stroke-linecap="round" stroke-linejoin="round"/>
    <path d="M 25.0 190.0 C 24.330127716064453 192.5 22.5 194.3301239013672 20.0 195.0 C 17.5 194.3301239013672 15.669873237609863 192.5 15.0 190.0 C 15.669873237609863 187.5 17.5 185.6698760986328 20.0 185.0 C 22.5 185.6698760986328 24.330127716064453 187.5 25.0 190.0" stroke-width="0.0" fill="rgb(255, 204, 107)" opacity="1.0" stroke="rgb(170, 163, 159)" stroke-opacity="0.64846855" stroke-linecap="round" stroke-linejoin="round"/>
    <path d="M 31.0 248.0 C 30.330127716064453 250.5 28.5 252.3301239013672 26.0 253.0 C 23.5 252.3301239013672 21.669872283935547 250.5 21.0 248.0 C 21.669872283935547 245.5 23.5 243.6698760986328 26.0 243.0 C 28.5 243.6698760986328 30.330127716064453 245.5 31.0 248.0" stroke-width="0.0" fill="rgb(253, 240, 138)" opacity="1.0" stroke="rgb(145, 35, 195)" stroke-opacity="0.92517847" stroke-linecap="round" stroke-linejoin="round"/>
    <path d="M 502.0 295.0 C 501.33013916015625 297.5 499.5 299.33013916015625 497.0 300.0 C 494.5 299.33013916015625 492.66986083984375 297.5 492.0 295.0 C 492.66986083984375 292.5 494.5 290.66986083984375 497.0 290.0 C 499.5 290.66986083984375 501.33013916015625 292.5 502.0 295.0" stroke-width="0.0" fill="rgb(5, 11, 6)" opacity="1.0" stroke="rgb(69, 170, 230)" stroke-opacity="0.7280312" stroke-linecap="round" stroke-linejoin="round"/>
    <path d="M 11.0 306.0 C 10.330126762390137 308.5 8.5 310.33013916015625 6.0 311.0 C 3.5 310.33013916015625 1.6698729991912842 308.5 1.0 306.0 C 1.6698729991912842 303.5 3.5 301.66986083984375 6.0 301.0 C 8.5 301.66986083984375 10.330126762390137 303.5 11.0 306.0" stroke-width="0.0" fill="rgb(220, 100, 10)" opacity="1.0" stroke="rgb(224, 128, 131)" stroke-opacity="0.1453194" stroke-linecap="round" stroke-linejoin="round"/>
    <path d="M 224.0 233.0 C 223.3301239013672 235.5 221.5 237.3301239013672 219.0 238.0 C 216.5 237.3301239013672 214.6698760986328 235.5 214.0 233.0 C 214.6698760986328 230.5 216.5 228.6698760986328 219.0 228.0 C 221.5 228.6698760986328 223.3301239013672 230.5 224.0 233.0" stroke-width="0.0" fill="rgb(28, 14, 10)" opacity="1.0" stroke="rgb(32, 211, 126)" stroke-opacity="0.22296435" stroke-linecap="round" stroke-linejoin="round"/>
    <path d="M 245.0 301.0 C 244.3301239013672 303.5 242.5 305.33013916015625 240.0 306.0 C 237.5 305.33013916015625 235.6698760986328 303.5 235.0 301.0 C 235.6698760986328 298.5 237.5 296.66986083984375 240.0 296.0 C 242.5 296.66986083984375 244.3301239013672 298.5 245.0 301.0" stroke-width="0.0" fill="rgb(16, 16, 16)" opacity="1.0" stroke="rgb(158, 39, 100)" stroke-opacity="0.53491086" stroke-linecap="round" stroke-linejoin="round"/>
    <path d="M 364.0 282.0 C 363.33013916015625 284.5 361.5 286.33013916015625 359.0 287.0 C 356.5 286.33013916015625 354.66986083984375 284.5 354.0 282.0 C 354.66986083984375 279.5 356.5 277.66986083984375 359.0 277.0 C 361.5 277.66986083984375 363.33013916015625 279.5 364.0 282.0" stroke-width="0.0" fill="rgb(1, 1, 1)" opacity="1.0" stroke="rgb(205, 186, 157)" stroke-opacity="0.3154246" stroke-linecap="round" stroke-linejoin="round"/>
    <path d="M 384.0 152.0 C 383.33013916015625 154.5 381.5 156.3301239013672 379.0 157.0 C 376.5 156.3301239013672 374.66986083984375 154.5 374.0 152.0 C 374.66986083984375 149.5 376.5 147.6698760986328 379.0 147.0 C 381.5 147.6698760986328 383.33013916015625 149.5 384.0 152.0" stroke-width="0.0" fill="rgb(23, 10, 5)" opacity="1.0" stroke="rgb(157, 245, 157)" stroke-opacity="0.12771656" stroke-linecap="round" stroke-linejoin="round"/>
    <path d="M 496.0 329.0 C 495.33013916015625 331.5 493.5 333.33013916015625 491.0 334.0 C 488.5 333.33013916015625 486.66986083984375 331.5 486.0 329.0 C 486.66986083984375 326.5 488.5 324.66986083984375 491.0 324.0 C 493.5 324.66986083984375 495.33013916015625 326.5 496.0 329.0" stroke-width="0.0" fill="rgb(127, 115, 117)" opacity="1.0" stroke="rgb(93, 94, 129)" stroke-opacity="0.91727006" stroke-linecap="round" stroke-linejoin="round"/>
    <path d="M 346.0 129.0 C 345.33013916015625 131.5 343.5 133.3301239013672 341.0 134.0 C 338.5 133.3301239013672 336.66986083984375 131.5 336.0 129.0 C 336.66986083984375 126.5 338.5 124.66987609863281 341.0 124.0 C 343.5 124.66987609863281 345.33013916015625 126.5 346.0 129.0" stroke-width="0.0" fill="rgb(151, 109, 81)" opacity="1.0" stroke="rgb(231, 96, 115)" stroke-opacity="0.12520301" stroke-linecap="round" stroke-linejoin="round"/>
    <path d="M 341.0 112.0 C 340.33013916015625 114.5 338.5 116.33012390136719 336.0 117.0 C 333.5 116.33012390136719 331.66986083984375 114.5 331.0 112.0 C 331.66986083984375 109.5 333.5 107.66987609863281 336.0 107.0 C 338.5 107.66987609863281 340.33013916015625 109.5 341.0 112.0" stroke-width="0.0" fill="rgb(5, 0, 0)" opacity="1.0" stroke="rgb(8, 112, 194)" stroke-opacity="0.9914138" stroke-linecap="round" stroke-linejoin="round"/>
    <path d="M 218.0 238.0 C 217.3301239013672 240.5 215.5 242.3301239013672 213.0 243.0 C 210.5 242.3301239013672 208.6698760986328 240.5 208.0 238.0 C 208.6698760986328 235.5 210.5 233.6698760986328 213.0 233.0 C 215.5 233.6698760986328 217.3301239013672 235.5 218.0 238.0" stroke-width="0.0" fill="rgb(65, 36, 23)" opacity="1.0" stroke="rgb(240, 139, 245)" stroke-opacity="0.34432036" stroke-linecap="round" stroke-linejoin="round"/>
    <path d="M 357.0 104.0 C 356.33013916015625 106.5 354.5 108.33012390136719 352.0 109.0 C 349.5 108.33012390136719 347.66986083984375 106.5 347.0 104.0 C 347.66986083984375 101.5 349.5 99.66987609863281 352.0 99.0 C 354.5 99.66987609863281 356.33013916015625 101.5 357.0 104.0" stroke-width="0.0" fill="rgb(156, 121, 105)" opacity="1.0" stroke="rgb(240, 232, 88)" stroke-opacity="0.8323861" stroke-linecap="round" stroke-linejoin="round"/>
    <path d="M 450.0 215.0 C 449.33013916015625 217.5 447.5 219.3301239013672 445.0 220.0 C 442.5 219.3301239013672 440.66986083984375 217.5 440.0 215.0 C 440.66986083984375 212.5 442.5 210.6698760986328 445.0 210.0 C 447.5 210.6698760986328 449.33013916015625 212.5 450.0 215.0" stroke-width="0.0" fill="rgb(130, 90, 73)" opacity="1.0" stroke="rgb(118, 120, 149)" stroke-opacity="0.8633567" stroke-linecap="round" stroke-linejoin="round"/>
    <path d="M 475.0 318.0 C 474.33013916015625 320.5 472.5 322.33013916015625 470.0 323.0 C 467.5 322.33013916015625 465.66986083984375 320.5 465.0 318.0 C 465.66986083984375 315.5 467.5 313.66986083984375 470.0 313.0 C 472.5 313.66986083984375 474.33013916015625 315.5 475.0 318.0" stroke-width="0.0" fill="rgb(20, 37, 8)" opacity="1.0" stroke="rgb(237, 173, 118)" stroke-opacity="0.28919026" stroke-linecap="round" stroke-linejoin="round"/>
    <path d="M 192.0 139.0 C 191.3301239013672 141.5 189.5 143.3301239013672 187.0 144.0 C 184.5 143.3301239013672 182.6698760986328 141.5 182.0 139.0 C 182.6698760986328 136.5 184.5 134.6698760986328 187.0 134.0 C 189.5 134.6698760986328 191.3301239013672 136.5 192.0 139.0" stroke-width="0.0" fill="rgb(195, 149, 128)" opacity="1.0" stroke="rgb(49, 204, 170)" stroke-opacity="0.59951764" stroke-linecap="round" stroke-linejoin="round"/>
    <path d="M 357.0 168.0 C 356.33013916015625 170.5 354.5 172.3301239013672 352.0 173.0 C 349.5 172.3301239013672 347.66986083984375 170.5 347.0 168.0 C 347.66986083984375 165.5 349.5 163.6698760986328 352.0 163.0 C 354.5 163.6698760986328 356.33013916015625 165.5 357.0 168.0" stroke-width="0.0" fill="rgb(88, 44, 12)" opacity="1.0" stroke="rgb(233, 148, 198)" stroke-opacity="0.016417738" stroke-linecap="round" stroke-linejoin="round"/>
    <path d="M 36.0 186.0 C 35.33012771606445 188.5 33.5 190.3301239013672 31.0 191.0 C 28.5 190.3301239013672 26.669872283935547 188.5 26.0 186.0 C 26.669872283935547 183.5 28.5 181.6698760986328 31.0 181.0 C 33.5 181.6698760986328 35.33012771606445 183.5 36.0 186.0" stroke-width="0.0" fill="rgb(255, 184, 99)" opacity="1.0" stroke="rgb(169, 120, 119)" stroke-opacity="0.34768474" stroke-linecap="round" stroke-linejoin="round"/>
    <path d="M 413.0 254.0 C 412.33013916015625 256.5 410.5 258.33013916015625 408.0 259.0 C 405.5 258.33013916015625 403.66986083984375 256.5 403.0 254.0 C 403.66986083984375 251.5 405.5 249.6698760986328 408.0 249.0 C 410.5 249.6698760986328 412.33013916015625 251.5 413.0 254.0" stroke-width="0.0" fill="rgb(194, 157, 135)" opacity="1.0" stroke="rgb(208, 79, 18)" stroke-opacity="0.72466177" stroke-linecap="round" stroke-linejoin="round"/>
    <path d="M 446.0 245.0 C 445.33013916015625 247.5 443.5 249.3301239013672 441.0 250.0 C 438.5 249.3301239013672 436.66986083984375 247.5 436.0 245.0 C 436.66986083984375 242.5 438.5 240.6698760986328 441.0 240.0 C 443.5 240.6698760986328 445.33013916015625 242.5 446.0 245.0" stroke-width="0.0" fill="rgb(76, 40, 19)" opacity="1.0" stroke="rgb(206, 57, 61)" stroke-opacity="0.2311599" stroke-linecap="round" stroke-linejoin="round"/>
    <path d="M 112.0 175.0 C 111.33012390136719 177.5 109.5 179.3301239013672 107.0 180.0 C 104.5 179.3301239013672 102.66987609863281 177.5 102.0 175.0 C 102.66987609863281 172.5 104.5 170.6698760986328 107.0 170.0 C 109.5 170.6698760986328 111.33012390136719 172.5 112.0 175.0" stroke-width="0.0" fill="rgb(54, 27, 22)" opacity="1.0" stroke="rgb(79, 143, 84)" stroke-opacity="0.21973236" stroke-linecap="round" stroke-linejoin="round"/>
    <path d="M 293.0 122.0 C 292.33013916015625 124.5 290.5 126.33012390136719 288.0 127.0 C 285.5 126.33012390136719 283.66986083984375 124.5 283.0 122.0 C 283.66986083984375 119.5 285.5 117.66987609863281 288.0 117.0 C 290.5 117.66987609863281 292.33013916015625 119.5 293.0 122.0" stroke-width="0.0" fill="rgb(161, 123, 102)" opacity="1.0" stroke="rgb(113, 191, 43)" stroke-opacity="0.06853546" stroke-linecap="round" stroke-linejoin="round"/>
    <path d="M 434.0 213.0 C 433.33013916015625 215.5 431.5 217.3301239013672 429.0 218.0 C 426.5 217.3301239013672 424.66986083984375 215.5 424.0 213.0 C 424.66986083984375 210.5 426.5 208.6698760986328 429.0 208.0 C 431.5 208.6698760986328 433.33013916015625 210.5 434.0 213.0" stroke-width="0.0" fill="rgb(83, 48, 36)" opacity="1.0" stroke="rgb(170, 180, 60)" stroke-opacity="0.8091716" stroke-linecap="round" stroke-linejoin="round"/>
    <path d="M 216.0 167.0 C 215.3301239013672 169.5 213.5 171.3301239013672 211.0 172.0 C 208.5 171.3301239013672 206.6698760986328 169.5 206.0 167.0 C 206.6698760986328 164.5 208.5 162.6698760986328 211.0 162.0 C 213.5 162.6698760986328 215.3301239013672 164.5 216.0 167.0" stroke-width="0.0" fill="rgb(85, 36, 9)" opacity="1.0" stroke="rgb(187, 102, 212)" stroke-opacity="0.45242" stroke-linecap="round" stroke-linejoin="round"/>
    <path d="M 506.0 296.0 C 505.33013916015625 298.5 503.5 300.33013916015625 501.0 301.0 C 498.5 300.33013916015625 496.66986083984375 298.5 496.0 296.0 C 496.66986083984375 293.5 498.5 291.66986083984375 501.0 291.0 C 503.5 291.66986083984375 505.33013916015625 293.5 506.0 296.0" stroke-width="0.0" fill="rgb(7, 12, 8)" opacity="1.0" stroke="rgb(243, 43, 31)" stroke-opacity="0.11776194" stroke-linecap="round" stroke-linejoin="round"/>
    <path d="M 387.0 154.0 C 386.33013916015625 156.5 384.5 158.3301239013672 382.0 159.0 C 379.5 158.3301239013672 377.66986083984375 156.5 377.0 154.0 C 377.66986083984375 151.5 379.5 149.6698760986328 382.0 149.0 C 384.5 149.6698760986328 386.33013916015625 151.5 387.0 154.0" stroke-width="0.0" fill="rgb(162, 123, 100)" opacity="1.0" stroke="rgb(84, 31, 125)" stroke-opacity="0.16628131" stroke-linecap="round" stroke-linejoin="round"/>
    <path d="M 101.0 167.0 C 100.33012390136719 169.5 98.5 171.3301239013672 96.0 172.0 C 93.5 171.3301239013672 91.66987609863281 169.5 91.0 167.0 C 91.66987609863281 164.5 93.5 162.6698760986328 96.0 162.0 C 98.5 162.6698760986328 100.33012390136719 164.5 101.0 167.0" stroke-width="0.0" fill="rgb(184, 146, 125)" opacity="1.0" stroke="rgb(175, 136, 8)" stroke-opacity="0.660896" stroke-linecap="round" stroke-linejoin="round"/>
    <path d="M 302.0 125.0 C 301.33013916015625 127.5 299.5 129.3301239013672 297.0 130.0 C 294.5 129.3301239013672 292.66986083984375 127.5 292.0 125.0 C 292.66986083984375 122.5 294.5 120.66987609863281 297.0 120.0 C 299.5 120.66987609863281 301.33013916015625 122.5 302.0 125.0" stroke-width="0.0" fill="rgb(144, 103, 79)" opacity="1.0" stroke="rgb(40, 111, 118)" stroke-opacity="0.10885146" stroke-linecap="round" stroke-linejoin="round"/>
    <path d="M 448.0 242.0 C 447.33013916015625 244.5 445.5 246.3301239013672 443.0 247.0 C 440.5 246.3301239013672 438.66986083984375 244.5 438.0 242.0 C 438.66986083984375 239.5 440.5 237.6698760986328 443.0 237.0 C 445.5 237.6698760986328 447.33013916015625 239.5 448.0 242.0" stroke-width="0.0" fill="rgb(85, 48, 29)" opacity="1.0" stroke="rgb(214, 173, 236)" stroke-opacity="0.48190066" stroke-linecap="round" stroke-linejoin="round"/>
    <path d="M 241.0 239.0 C 240.3301239013672 241.5 238.5 243.3301239013672 236.0 244.0 C 233.5 243.3301239013672 231.6698760986328 241.5 231.0 239.0 C 231.6698760986328 236.5 233.5 234.6698760986328 236.0 234.0 C 238.5 234.6698760986328 240.3301239013672 236.5 241.0 239.0" stroke-width="0.0" fill="rgb(99, 48, 13)" opacity="1.0" stroke="rgb(61, 73, 80)" stroke-opacity="0.10005309" stroke-linecap="round" stroke-linejoin="round"/>
    <path d="M 101.0 82.0 C 100.33012390136719 84.5 98.5 86.33012390136719 96.0 87.0 C 93.5 86.33012390136719 91.66987609863281 84.5 91.0 82.0 C 91.66987609863281 79.5 93.5 77.66987609863281 96.0 77.0 C 98.5 77.66987609863281 100.33012390136719 79.5 101.0 82.0" stroke-width="0.0" fill="rgb(254, 249, 180)" opacity="1.0" stroke="rgb(33, 161, 160)" stroke-opacity="0.89803284" stroke-linecap="round" stroke-linejoin="round"/>
    <path d="M 239.0 244.0 C 238.3301239013672 246.5 236.5 248.3301239013672 234.0 249.0 C 231.5 248.3301239013672 229.6698760986328 246.5 229.0 244.0 C 229.6698760986328 241.5 231.5 239.6698760986328 234.0 239.0 C 236.5 239.6698760986328 238.3301239013672 241.5 239.0 244.0" stroke-width="0.0" fill="rgb(205, 154, 109)" opacity="1.0" stroke="rgb(95, 200, 155)" stroke-opacity="0.59789175" stroke-linecap="round" stroke-linejoin="round"/>
    <path d="M 90.0 232.0 C 89.33012390136719 234.5 87.5 236.3301239013672 85.0 237.0 C 82.5 236.3301239013672 80.66987609863281 234.5 80.0 232.0 C 80.66987609863281 229.5 82.5 227.6698760986328 85.0 227.0 C 87.5 227.6698760986328 89.33012390136719 229.5 90.0 232.0" stroke-width="0.0" fill="rgb(13, 0, 0)" opacity="1.0" stroke="rgb(174, 56, 197)" stroke-opacity="0.259502" stroke-linecap="round" stroke-linejoin="round"/>
    <path d="M 321.0 117.0 C 320.33013916015625 119.5 318.5 121.33012390136719 316.0 122.0 C 313.5 121.33012390136719 311.66986083984375 119.5 311.0 117.0 C 311.66986083984375 114.5 313.5 112.66987609863281 316.0 112.0 C 318.5 112.66987609863281 320.33013916015625 114.5 321.0 117.0" stroke-width="0.0" fill="rgb(161, 115, 89)" opacity="1.0" stroke="rgb(15, 189, 228)" stroke-opacity="0.07181404" stroke-linecap="round" stroke-linejoin="round"/>
    <path d="M 218.0 233.0 C 217.3301239013672 235.5 215.5 237.3301239013672 213.0 238.0 C 210.5 237.3301239013672 208.6698760986328 235.5 208.0 233.0 C 208.6698760986328 230.5 210.5 228.6698760986328 213.0 228.0 C 215.5 228.6698760986328 217.3301239013672 230.5 218.0 233.0" stroke-width="0.0" fill="rgb(46, 26, 17)" opacity="1.0" stroke="rgb(230, 60, 231)" stroke-opacity="0.6868251" stroke-linecap="round" stroke-linejoin="round"/>
    <path d="M 349.0 107.0 C 348.33013916015625 109.5 346.5 111.33012390136719 344.0 112.0 C 341.5 111.33012390136719 339.66986083984375 109.5 339.0 107.0 C 339.66986083984375 104.5 341.5 102.66987609863281 344.0 102.0 C 346.5 102.66987609863281 348.33013916015625 104.5 349.0 107.0" stroke-width="0.0" fill="rgb(143, 107, 88)" opacity="1.0" stroke="rgb(224, 179, 59)" stroke-opacity="0.34888533" stroke-linecap="round" stroke-linejoin="round"/>
    <path d="M 387.0 160.0 C 386.33013916015625 162.5 384.5 164.3301239013672 382.0 165.0 C 379.5 164.3301239013672 377.66986083984375 162.5 377.0 160.0 C 377.66986083984375 157.5 379.5 155.6698760986328 382.0 155.0 C 384.5 155.6698760986328 386.33013916015625 157.5 387.0 160.0" stroke-width="0.0" fill="rgb(12, 0, 0)" opacity="1.0" stroke="rgb(38, 138, 0)" stroke-opacity="0.28823435" stroke-linecap="round" stroke-linejoin="round"/>
    <path d="M 239.0 91.0 C 238.3301239013672 93.5 236.5 95.33012390136719 234.0 96.0 C 231.5 95.33012390136719 229.6698760986328 93.5 229.0 91.0 C 229.6698760986328 88.5 231.5 86.66987609863281 234.0 86.0 C 236.5 86.66987609863281 238.3301239013672 88.5 239.0 91.0" stroke-width="0.0" fill="rgb(6, 2, 2)" opacity="1.0" stroke="rgb(74, 201, 113)" stroke-opacity="0.14399189" stroke-linecap="round" stroke-linejoin="round"/>
    <path d="M 8.0 187.0 C 7.330127239227295 189.5 5.5 191.3301239013672 3.0 192.0 C 0.5 191.3301239013672 -1.3301270008087158 189.5 -2.0 187.0 C -1.3301270008087158 184.5 0.5 182.6698760986328 3.0 182.0 C 5.5 182.6698760986328 7.330127239227295 184.5 8.0 187.0" stroke-width="0.0" fill="rgb(254, 235, 157)" opacity="1.0" stroke="rgb(134, 247, 53)" stroke-opacity="0.779828" stroke-linecap="round" stroke-linejoin="round"/>
    <path d="M 365.0 195.0 C 364.33013916015625 197.5 362.5 199.3301239013672 360.0 200.0 C 357.5 199.3301239013672 355.66986083984375 197.5 355.0 195.0 C 355.66986083984375 192.5 357.5 190.6698760986328 360.0 190.0 C 362.5 190.6698760986328 364.33013916015625 192.5 365.0 195.0" stroke-width="0.0" fill="rgb(207, 173, 143)" opacity="1.0" stroke="rgb(137, 182, 253)" stroke-opacity="0.012104128" stroke-linecap="round" stroke-linejoin="round"/>
    <path d="M 216.0 227.0 C 215.3301239013672 229.5 213.5 231.3301239013672 211.0 232.0 C 208.5 231.3301239013672 206.6698760986328 229.5 206.0 227.0 C 206.6698760986328 224.5 208.5 222.6698760986328 211.0 222.0 C 213.5 222.6698760986328 215.3301239013672 224.5 216.0 227.0" stroke-width="0.0" fill="rgb(40, 21, 14)" opacity="1.0" stroke="rgb(56, 187, 5)" stroke-opacity="0.17182003" stroke-linecap="round" stroke-linejoin="round"/>
  </g>
</svg>
