<?xml version="1.0" ?>
<svg xmlns="http://www.w3.org/2000/svg" version="1.1" width="512" height="347">
  <defs/>
  <g>
    <path d="M 516.695556640625 -2.339111566543579 C 514.2305297851562 97.94046783447266 509.66351318359375 98.17636108398438 524.7821655273438 124.31121826171875 C 406.1644287109375 140.24172973632812 400.7915344238281 142.04336547851562 364.50341796875 149.35879516601562 C 342.6473083496094 19.52890968322754 343.30078125 7.646011829376221 342.8600769042969 -5.449398994445801 C 485.30645751953125 -7.584625244140625 488.1407165527344 -5.795831203460693 516.695556640625 -2.339111566543579" stroke-width="0.0" fill="rgb(71, 150, 252)" opacity="0.55164415" stroke="rgb(61, 217, 183)" stroke-opacity="0.043306053" stroke-linecap="round" stroke-linejoin="round"/>
    <path d="M 173.25758361816406 75.0462646484375 C 215.34461975097656 146.53231811523438 86.51773071289062 124.38387298583984 38.958160400390625 76.59508514404297 C 66.31836700439453 53.692626953125 39.735652923583984 64.58174133300781 6.676733016967773 16.00362777709961 C 1.0880693197250366 -21.301490783691406 7.146430969238281 -13.07031536102295 23.59433364868164 -1.698560357093811 C 91.62874603271484 23.925447463989258 82.81640625 48.31449508666992 173.25758361816406 75.0462646484375" stroke-width="0.0" fill="rgb(255, 193, 111)" opacity="0.9147469" stroke="rgb(113, 111, 84)" stroke-opacity="0.34017462" stroke-linecap="round" stroke-linejoin="round"/>
    <path d="M -0.9966529011726379 25.09576416015625 C 104.83409118652344 84.44285583496094 116.4936752319336 151.03622436523438 26.429426193237305 168.58349609375 C -13.372057914733887 95.82067108154297 -18.979076385498047 88.55121612548828 -11.18608283996582 68.1013412475586 C -15.0482177734375 14.877365112304688 -30.934078216552734 -4.030538558959961 -6.044819355010986 -4.390292644500732 C 48.74692153930664 28.67015266418457 22.48029136657715 11.274748802185059 -0.9966529011726379 25.09576416015625" stroke-width="0.0" fill="rgb(240, 182, 126)" opacity="0.99378306" stroke="rgb(107, 216, 1)" stroke-opacity="0.57123506" stroke-linecap="round" stroke-linejoin="round"/>
    <path d="M 359.04437255859375 114.15625 C 382.9857177734375 95.60034942626953 381.0615234375 89.98975372314453 262.28912353515625 81.58659362792969 C 154.59877014160156 90.8754653930664 132.66860961914062 137.5733642578125 150.1050567626953 -48.18140411376953 C 314.0385437011719 -16.45668601989746 321.8668212890625 -12.238274574279785 342.52374267578125 -11.190505981445312 C 343.37628173828125 -8.22408390045166 338.4038391113281 -1.267377257347107 359.04437255859375 114.15625" stroke-width="0.0" fill="rgb(221, 212, 235)" opacity="0.557625" stroke="rgb(175, 133, 103)" stroke-opacity="0.5133926" stroke-linecap="round" stroke-linejoin="round"/>
    <path d="M 67.32893371582031 352.1021423339844 C 55.631404876708984 367.7603454589844 42.106632232666016 359.99188232421875 30.931781768798828 357.6523742675781 C -6.981467247009277 358.08404541015625 -10.127348899841309 358.5036315917969 -14.40015697479248 294.83367919921875 C -20.66315269470215 318.6650695800781 -23.494720458984375 270.2831115722656 188.3271942138672 269.4128112792969 C 201.67799377441406 426.0863342285156 145.8964385986328 371.8061218261719 67.32893371582031 352.1021423339844" stroke-width="0.0" fill="rgb(89, 69, 62)" opacity="0.6268742" stroke="rgb(81, 231, 53)" stroke-opacity="0.71570295" stroke-linecap="round" stroke-linejoin="round"/>
    <path d="M 343.87957763671875 78.32757568359375 C 419.6759338378906 109.4415054321289 372.3497314453125 55.90745544433594 428.3890380859375 186.07626342773438 C 264.0343322753906 150.20437622070312 320.470458984375 142.09930419921875 235.8402099609375 90.72590637207031 C 269.27728271484375 21.129819869995117 324.0179748535156 41.93920135498047 321.10736083984375 34.45448303222656 C 345.7227478027344 30.109283447265625 326.72039794921875 26.64566421508789 343.87957763671875 78.32757568359375" stroke-width="0.0" fill="rgb(77, 48, 36)" opacity="0.9448644" stroke="rgb(209, 250, 61)" stroke-opacity="0.6594973" stroke-linecap="round" stroke-linejoin="round"/>
    <path d="M 524.0670166015625 212.2758026123047 C 534.445068359375 241.65570068359375 550.6530151367188 259.8656921386719 480.4126281738281 282.2801513671875 C 420.3309631347656 187.31707763671875 429.5082092285156 178.750732421875 392.6346740722656 98.6599349975586 C 423.6065673828125 105.38899993896484 420.2878723144531 114.77936553955078 505.9173583984375 122.97212219238281 C 535.2691040039062 138.21624755859375 525.2457275390625 149.6848602294922 524.0670166015625 212.2758026123047" stroke-width="0.0" fill="rgb(184, 198, 217)" opacity="0.36125025" stroke="rgb(234, 231, 120)" stroke-opacity="0.16838099" stroke-linecap="round" stroke-linejoin="round"/>
    <path d="M 319.7623596191406 63.47352981567383 C 319.8694152832031 72.80547332763672 317.3277587890625 80.71541595458984 261.28985595703125 82.19146728515625 C 231.8076934814453 85.56694793701172 232.1096649169922 91.02913665771484 225.7252197265625 27.346406936645508 C 244.9229736328125 4.2845306396484375 255.11935424804688 8.345100402832031 276.0899658203125 15.998383522033691 C 315.8219299316406 31.06711196899414 317.4731750488281 33.467830657958984 319.7623596191406 63.47352981567383" stroke-width="0.0" fill="rgb(159, 158, 179)" opacity="0.97284085" stroke="rgb(186, 70, 38)" stroke-opacity="0.9526856" stroke-linecap="round" stroke-linejoin="round"/>
    <path d="M 383.90069580078125 89.7716064453125 C 356.0428161621094 85.70845794677734 352.0299987792969 77.4145736694336 342.2939453125 72.36534881591797 C 299.8421936035156 70.34849548339844 298.6273498535156 67.8722915649414 298.53240966796875 59.38047409057617 C 302.5438232421875 32.237178802490234 307.2416687011719 31.965349197387695 342.2793273925781 -4.950666427612305 C 342.0897216796875 11.430944442749023 354.0872802734375 17.938827514648438 383.90069580078125 89.7716064453125" stroke-width="0.0" fill="rgb(111, 133, 176)" opacity="0.9773867" stroke="rgb(31, 57, 195)" stroke-opacity="0.011719153" stroke-linecap="round" stroke-linejoin="round"/>
    <path d="M 386.5391540527344 3.5122087001800537 C 358.3326416015625 57.25615692138672 332.6308898925781 43.928009033203125 300.5289306640625 51.87205123901367 C 298.0981750488281 54.719242095947266 296.05902099609375 53.07030487060547 282.0415954589844 54.8163948059082 C 258.6406555175781 52.10972595214844 206.92202758789062 106.6552505493164 161.51385498046875 2.9008452892303467 C 344.4895935058594 -16.251718521118164 349.6094970703125 -10.90738296508789 386.5391540527344 3.5122087001800537" stroke-width="0.0" fill="rgb(50, 68, 128)" opacity="0.124599494" stroke="rgb(226, 37, 193)" stroke-opacity="0.24295457" stroke-linecap="round" stroke-linejoin="round"/>
    <path d="M 324.4234619140625 188.1497039794922 C 327.443603515625 187.13143920898438 326.216796875 191.1077117919922 322.5440673828125 191.2229766845703 C 305.6269226074219 186.26185607910156 305.0888671875 191.22396850585938 305.2297058105469 187.58673095703125 C 305.4311218261719 166.06166076660156 303.66497802734375 167.3656463623047 315.4364929199219 166.6407470703125 C 322.376708984375 170.31321716308594 325.68548583984375 171.17138671875 324.4234619140625 188.1497039794922" stroke-width="0.0" fill="rgb(222, 234, 255)" opacity="0.86099726" stroke="rgb(38, 1, 107)" stroke-opacity="0.6988667" stroke-linecap="round" stroke-linejoin="round"/>
    <path d="M 365.9883728027344 86.55443572998047 C 343.2969665527344 82.44627380371094 321.2395935058594 81.40290069580078 318.2256774902344 81.971435546875 C 296.8017883300781 79.54988861083984 278.9203796386719 82.94949340820312 282.7060241699219 78.49954986572266 C 292.3333740234375 52.67144012451172 295.5339660644531 50.697044372558594 334.23321533203125 50.13594055175781 C 336.88079833984375 58.044010162353516 342.298828125 69.33451080322266 365.9883728027344 86.55443572998047" stroke-width="0.0" fill="rgb(132, 146, 180)" opacity="1.0" stroke="rgb(62, 230, 57)" stroke-opacity="0.64721113" stroke-linecap="round" stroke-linejoin="round"/>
    <path d="M 292.0141906738281 191.24635314941406 C 294.4702453613281 191.12255859375 295.73052978515625 190.4062957763672 277.2399597167969 190.82723999023438 C 264.9041442871094 189.8045196533203 271.25811767578125 193.3180694580078 269.0591735839844 191.38954162597656 C 271.6697998046875 167.1553497314453 267.10992431640625 169.8614044189453 281.8001708984375 166.15834045410156 C 292.57720947265625 170.27658081054688 291.6268310546875 168.4059600830078 292.0141906738281 191.24635314941406" stroke-width="0.0" fill="rgb(241, 244, 255)" opacity="0.85493535" stroke="rgb(106, 177, 228)" stroke-opacity="0.49644572" stroke-linecap="round" stroke-linejoin="round"/>
    <path d="M 178.77723693847656 78.99466705322266 C 210.14892578125 100.57965850830078 171.8607635498047 96.29512786865234 140.1903839111328 85.24689483642578 C 127.37235260009766 63.227996826171875 101.99729919433594 100.84815979003906 28.360336303710938 0.041087351739406586 C 68.41212463378906 -21.715728759765625 86.16797637939453 -16.171894073486328 109.8228530883789 -3.391031503677368 C 151.93890380859375 26.25832176208496 160.02044677734375 22.756731033325195 178.77723693847656 78.99466705322266" stroke-width="0.0" fill="rgb(233, 148, 109)" opacity="0.5619859" stroke="rgb(41, 116, 159)" stroke-opacity="0.65305537" stroke-linecap="round" stroke-linejoin="round"/>
    <path d="M 194.24276733398438 57.41852569580078 C 170.7943115234375 46.34796142578125 160.23448181152344 46.1106071472168 149.77337646484375 47.88600540161133 C 150.9566650390625 99.65763854980469 125.78602600097656 58.2341194152832 120.8976821899414 30.983230590820312 C 106.34080505371094 4.985010147094727 102.43910217285156 -1.7370442152023315 123.51516723632812 -13.182579040527344 C 187.2426300048828 -9.942543029785156 198.94769287109375 -4.680753231048584 194.24276733398438 57.41852569580078" stroke-width="0.0" fill="rgb(173, 144, 146)" opacity="0.82119644" stroke="rgb(224, 228, 212)" stroke-opacity="0.45879084" stroke-linecap="round" stroke-linejoin="round"/>
    <path d="M 13.0 191.0 C 12.330126762390137 193.5 10.5 195.3301239013672 8.0 196.0 C 5.5 195.3301239013672 3.669872999191284 193.5 3.0 191.0 C 3.669872999191284 188.5 5.5 186.6698760986328 8.0 186.0 C 10.5 186.6698760986328 12.330126762390137 188.5 13.0 191.0" stroke-width="0.0" fill="rgb(255, 225, 150)" opacity="1.0" stroke="rgb(9, 101, 118)" stroke-opacity="0.5030616" stroke-linecap="round" stroke-linejoin="round"/>
    <path d="M 287.0 221.0 C 286.33013916015625 223.5 284.5 225.3301239013672 282.0 226.0 C 279.5 225.3301239013672 277.66986083984375 223.5 277.0 221.0 C 277.66986083984375 218.5 279.5 216.6698760986328 282.0 216.0 C 284.5 216.6698760986328 286.33013916015625 218.5 287.0 221.0" stroke-width="0.0" fill="rgb(14, 2, 4)" opacity="1.0" stroke="rgb(78, 85, 49)" stroke-opacity="0.5705603" stroke-linecap="round" stroke-linejoin="round"/>
    <path d="M 187.0 289.0 C 186.3301239013672 291.5 184.5 293.33013916015625 182.0 294.0 C 179.5 293.33013916015625 177.6698760986328 291.5 177.0 289.0 C 177.6698760986328 286.5 179.5 284.66986083984375 182.0 284.0 C 184.5 284.66986083984375 186.3301239013672 286.5 187.0 289.0" stroke-width="0.0" fill="rgb(3, 3, 3)" opacity="1.0" stroke="rgb(38, 9, 9)" stroke-opacity="0.91421896" stroke-linecap="round" stroke-linejoin="round"/>
    <path d="M 35.0 157.0 C 34.33012771606445 159.5 32.5 161.3301239013672 30.0 162.0 C 27.5 161.3301239013672 25.669872283935547 159.5 25.0 157.0 C 25.669872283935547 154.5 27.5 152.6698760986328 30.0 152.0 C 32.5 152.6698760986328 34.33012771606445 154.5 35.0 157.0" stroke-width="0.0" fill="rgb(174, 129, 110)" opacity="1.0" stroke="rgb(100, 199, 20)" stroke-opacity="0.86417997" stroke-linecap="round" stroke-linejoin="round"/>
    <path d="M 42.0 276.0 C 41.33012771606445 278.5 39.5 280.33013916015625 37.0 281.0 C 34.5 280.33013916015625 32.66987228393555 278.5 32.0 276.0 C 32.66987228393555 273.5 34.5 271.66986083984375 37.0 271.0 C 39.5 271.66986083984375 41.33012771606445 273.5 42.0 276.0" stroke-width="0.0" fill="rgb(241, 157, 104)" opacity="1.0" stroke="rgb(35, 184, 115)" stroke-opacity="0.20930892" stroke-linecap="round" stroke-linejoin="round"/>
    <path d="M 8.0 197.0 C 7.330127239227295 199.5 5.5 201.3301239013672 3.0 202.0 C 0.5 201.3301239013672 -1.3301270008087158 199.5 -2.0 197.0 C -1.3301270008087158 194.5 0.5 192.6698760986328 3.0 192.0 C 5.5 192.6698760986328 7.330127239227295 194.5 8.0 197.0" stroke-width="0.0" fill="rgb(244, 162, 96)" opacity="1.0" stroke="rgb(40, 211, 24)" stroke-opacity="0.1596657" stroke-linecap="round" stroke-linejoin="round"/>
    <path d="M 95.0 119.0 C 94.33012390136719 121.5 92.5 123.33012390136719 90.0 124.0 C 87.5 123.33012390136719 85.66987609863281 121.5 85.0 119.0 C 85.66987609863281 116.5 87.5 114.66987609863281 90.0 114.0 C 92.5 114.66987609863281 94.33012390136719 116.5 95.0 119.0" stroke-width="0.0" fill="rgb(216, 171, 150)" opacity="1.0" stroke="rgb(63, 181, 83)" stroke-opacity="0.53582704" stroke-linecap="round" stroke-linejoin="round"/>
    <path d="M 418.0 225.0 C 417.33013916015625 227.5 415.5 229.3301239013672 413.0 230.0 C 410.5 229.3301239013672 408.66986083984375 227.5 408.0 225.0 C 408.66986083984375 222.5 410.5 220.6698760986328 413.0 220.0 C 415.5 220.6698760986328 417.33013916015625 222.5 418.0 225.0" stroke-width="0.0" fill="rgb(39, 10, 3)" opacity="1.0" stroke="rgb(3, 111, 232)" stroke-opacity="0.5829063" stroke-linecap="round" stroke-linejoin="round"/>
    <path d="M 329.0 281.0 C 328.33013916015625 283.5 326.5 285.33013916015625 324.0 286.0 C 321.5 285.33013916015625 319.66986083984375 283.5 319.0 281.0 C 319.66986083984375 278.5 321.5 276.66986083984375 324.0 276.0 C 326.5 276.66986083984375 328.33013916015625 278.5 329.0 281.0" stroke-width="0.0" fill="rgb(29, 7, 2)" opacity="1.0" stroke="rgb(180, 78, 4)" stroke-opacity="0.28289485" stroke-linecap="round" stroke-linejoin="round"/>
    <path d="M 425.0 277.0 C 424.33013916015625 279.5 422.5 281.33013916015625 420.0 282.0 C 417.5 281.33013916015625 415.66986083984375 279.5 415.0 277.0 C 415.66986083984375 274.5 417.5 272.66986083984375 420.0 272.0 C 422.5 272.66986083984375 424.33013916015625 274.5 425.0 277.0" stroke-width="0.0" fill="rgb(21, 3, 3)" opacity="1.0" stroke="rgb(168, 244, 174)" stroke-opacity="0.72062075" stroke-linecap="round" stroke-linejoin="round"/>
    <path d="M 52.0 219.0 C 51.33012771606445 221.5 49.5 223.3301239013672 47.0 224.0 C 44.5 223.3301239013672 42.66987228393555 221.5 42.0 219.0 C 42.66987228393555 216.5 44.5 214.6698760986328 47.0 214.0 C 49.5 214.6698760986328 51.33012771606445 216.5 52.0 219.0" stroke-width="0.0" fill="rgb(184, 144, 127)" opacity="1.0" stroke="rgb(52, 92, 203)" stroke-opacity="0.64390206" stroke-linecap="round" stroke-linejoin="round"/>
    <path d="M 30.0 158.0 C 29.330127716064453 160.5 27.5 162.3301239013672 25.0 163.0 C 22.5 162.3301239013672 20.669872283935547 160.5 20.0 158.0 C 20.669872283935547 155.5 22.5 153.6698760986328 25.0 153.0 C 27.5 153.6698760986328 29.330127716064453 155.5 30.0 158.0" stroke-width="0.0" fill="rgb(171, 128, 111)" opacity="1.0" stroke="rgb(74, 182, 153)" stroke-opacity="0.073488735" stroke-linecap="round" stroke-linejoin="round"/>
    <path d="M 36.0 162.0 C 35.33012771606445 164.5 33.5 166.3301239013672 31.0 167.0 C 28.5 166.3301239013672 26.669872283935547 164.5 26.0 162.0 C 26.669872283935547 159.5 28.5 157.6698760986328 31.0 157.0 C 33.5 157.6698760986328 35.33012771606445 159.5 36.0 162.0" stroke-width="0.0" fill="rgb(170, 127, 111)" opacity="1.0" stroke="rgb(56, 208, 247)" stroke-opacity="0.05461297" stroke-linecap="round" stroke-linejoin="round"/>
    <path d="M 284.0 116.0 C 283.33013916015625 118.5 281.5 120.33012390136719 279.0 121.0 C 276.5 120.33012390136719 274.66986083984375 118.5 274.0 116.0 C 274.66986083984375 113.5 276.5 111.66987609863281 279.0 111.0 C 281.5 111.66987609863281 283.33013916015625 113.5 284.0 116.0" stroke-width="0.0" fill="rgb(13, 1, 1)" opacity="1.0" stroke="rgb(241, 77, 4)" stroke-opacity="0.26413575" stroke-linecap="round" stroke-linejoin="round"/>
    <path d="M 7.0 169.0 C 6.330127239227295 171.5 4.5 173.3301239013672 2.0 174.0 C -0.5 173.3301239013672 -2.330127000808716 171.5 -3.0 169.0 C -2.330127000808716 166.5 -0.5 164.6698760986328 2.0 164.0 C 4.5 164.6698760986328 6.330127239227295 166.5 7.0 169.0" stroke-width="0.0" fill="rgb(217, 145, 95)" opacity="1.0" stroke="rgb(211, 180, 220)" stroke-opacity="0.6323072" stroke-linecap="round" stroke-linejoin="round"/>
    <path d="M 58.0 176.0 C 57.33012771606445 178.5 55.5 180.3301239013672 53.0 181.0 C 50.5 180.3301239013672 48.66987228393555 178.5 48.0 176.0 C 48.66987228393555 173.5 50.5 171.6698760986328 53.0 171.0 C 55.5 171.6698760986328 57.33012771606445 173.5 58.0 176.0" stroke-width="0.0" fill="rgb(190, 153, 135)" opacity="1.0" stroke="rgb(207, 49, 185)" stroke-opacity="0.38214937" stroke-linecap="round" stroke-linejoin="round"/>
  </g>
</svg>
