<?xml version="1.0" ?>
<svg xmlns="http://www.w3.org/2000/svg" version="1.1" width="512" height="347">
  <defs/>
  <g>
    <path d="M 516.6879272460938 -2.338752508163452 C 514.1083374023438 97.95223236083984 508.7286071777344 98.24050903320312 510.2298889160156 113.02194213867188 C 401.4963684082031 115.91254425048828 398.306884765625 109.58668518066406 382.9055480957031 106.09159088134766 C 373.7568359375 10.095903396606445 374.6900329589844 5.605483531951904 378.05975341796875 -5.354398250579834 C 485.30645751953125 -7.584625244140625 488.1407165527344 -5.795831203460693 516.6879272460938 -2.338752508163452" stroke-width="0.0" fill="rgb(0, 95, 210)" opacity="0.5778476" stroke="rgb(61, 217, 183)" stroke-opacity="0.043306053" stroke-linecap="round" stroke-linejoin="round"/>
    <path d="M 139.945068359375 72.72277069091797 C 151.11883544921875 109.03243255615234 68.1771011352539 105.9915542602539 58.11561965942383 74.50581359863281 C 58.83134460449219 39.93644714355469 34.289398193359375 43.671504974365234 10.22356128692627 7.255700588226318 C 1.3466897010803223 -21.73790740966797 7.167888164520264 -13.076255798339844 20.390573501586914 -3.7538092136383057 C 76.60592651367188 37.12031555175781 77.60039520263672 83.2427749633789 139.945068359375 72.72277069091797" stroke-width="0.0" fill="rgb(255, 246, 48)" opacity="0.26268017" stroke="rgb(113, 111, 84)" stroke-opacity="0.34017462" stroke-linecap="round" stroke-linejoin="round"/>
    <path d="M -7.798488616943359 62.89533996582031 C 74.25689697265625 134.4752655029297 109.75669860839844 152.04824829101562 43.65926742553711 148.6699676513672 C -23.89272117614746 102.10230255126953 -15.407967567443848 89.0059585571289 -10.12862777709961 64.02731323242188 C -15.047565460205078 14.877289772033691 -30.93398666381836 -4.030211925506592 -3.016023874282837 -6.645186901092529 C 41.855552673339844 12.23927116394043 19.837135314941406 -10.253984451293945 -7.798488616943359 62.89533996582031" stroke-width="0.0" fill="rgb(255, 255, 117)" opacity="0.23976013" stroke="rgb(107, 216, 1)" stroke-opacity="0.57123506" stroke-linecap="round" stroke-linejoin="round"/>
    <path d="M 356.0 17.0 C 355.33013916015625 19.5 353.5 21.330127716064453 351.0 22.0 C 348.5 21.330127716064453 346.66986083984375 19.5 346.0 17.0 C 346.66986083984375 14.5 348.5 12.669873237609863 351.0 12.0 C 353.5 12.669873237609863 355.33013916015625 14.5 356.0 17.0" stroke-width="0.0" fill="rgb(98, 122, 168)" opacity="1.0" stroke="rgb(175, 133, 103)" stroke-opacity="0.5133926" stroke-linecap="round" stroke-linejoin="round"/>
    <path d="M 20.0 337.0 C 19.330127716064453 339.5 17.5 341.33013916015625 15.0 342.0 C 12.5 341.33013916015625 10.669873237609863 339.5 10.0 337.0 C 10.669873237609863 334.5 12.5 332.66986083984375 15.0 332.0 C 17.5 332.66986083984375 19.330127716064453 334.5 20.0 337.0" stroke-width="0.0" fill="rgb(93, 77, 77)" opacity="1.0" stroke="rgb(81, 231, 53)" stroke-opacity="0.71570295" stroke-linecap="round" stroke-linejoin="round"/>
    <path d="M 359.0 52.0 C 358.33013916015625 54.5 356.5 56.33012771606445 354.0 57.0 C 351.5 56.33012771606445 349.66986083984375 54.5 349.0 52.0 C 349.66986083984375 49.5 351.5 47.66987228393555 354.0 47.0 C 356.5 47.66987228393555 358.33013916015625 49.5 359.0 52.0" stroke-width="0.0" fill="rgb(107, 130, 174)" opacity="1.0" stroke="rgb(209, 250, 61)" stroke-opacity="0.6594973" stroke-linecap="round" stroke-linejoin="round"/>
    <path d="M 496.0 183.0 C 495.33013916015625 185.5 493.5 187.3301239013672 491.0 188.0 C 488.5 187.3301239013672 486.66986083984375 185.5 486.0 183.0 C 486.66986083984375 180.5 488.5 178.6698760986328 491.0 178.0 C 493.5 178.6698760986328 495.33013916015625 180.5 496.0 183.0" stroke-width="0.0" fill="rgb(144, 155, 175)" opacity="1.0" stroke="rgb(234, 231, 120)" stroke-opacity="0.16838099" stroke-linecap="round" stroke-linejoin="round"/>
  </g>
</svg>
