<?xml version="1.0" ?>
<svg xmlns="http://www.w3.org/2000/svg" version="1.1" width="512" height="347">
  <defs/>
  <g>
    <path d="M 516.695556640625 -2.339111566543579 C 514.2305297851562 97.94046783447266 509.66351318359375 98.17636108398438 526.9268188476562 125.82471466064453 C 407.8854675292969 143.13404846191406 401.8166198730469 145.91934204101562 364.5630798339844 152.5523223876953 C 342.6338195800781 19.538818359375 343.2895812988281 7.648681640625 342.8385314941406 -5.4491143226623535 C 485.30645751953125 -7.584625244140625 488.1407165527344 -5.795831203460693 516.695556640625 -2.339111566543579" stroke-width="0.0" fill="rgb(80, 156, 254)" opacity="0.56471074" stroke="rgb(61, 217, 183)" stroke-opacity="0.043306053" stroke-linecap="round" stroke-linejoin="round"/>
    <path d="M 171.89903259277344 77.58438110351562 C 218.48031616210938 139.82313537597656 85.66557312011719 121.02251434326172 35.181739807128906 77.32799530029297 C 66.22149658203125 54.062957763671875 38.978492736816406 66.2333755493164 6.443088531494141 16.57117462158203 C 1.0529944896697998 -21.271209716796875 7.126363277435303 -13.067678451538086 22.78506088256836 -0.9237996935844421 C 91.24462127685547 24.577375411987305 83.42893981933594 47.16098403930664 171.89903259277344 77.58438110351562" stroke-width="0.0" fill="rgb(255, 197, 112)" opacity="0.9303026" stroke="rgb(113, 111, 84)" stroke-opacity="0.34017462" stroke-linecap="round" stroke-linejoin="round"/>
    <path d="M 0.4530964493751526 24.82400894165039 C 104.81501770019531 84.46930694580078 116.32715606689453 150.3479461669922 26.94021224975586 168.21929931640625 C -13.0977144241333 95.58042907714844 -20.006711959838867 89.3861083984375 -11.375890731811523 68.93218994140625 C -15.0482177734375 14.877365112304688 -30.934078216552734 -4.030538558959961 -4.677361488342285 -4.414181709289551 C 50.74451446533203 28.53887367248535 24.032236099243164 12.83161735534668 0.4530964493751526 24.82400894165039" stroke-width="0.0" fill="rgb(253, 198, 117)" opacity="0.98722196" stroke="rgb(107, 216, 1)" stroke-opacity="0.57123506" stroke-linecap="round" stroke-linejoin="round"/>
    <path d="M 359.249755859375 114.95097351074219 C 382.2600402832031 95.93526458740234 380.5361633300781 88.47181701660156 260.38702392578125 82.24634552001953 C 152.1592254638672 89.85391998291016 132.75326538085938 141.21656799316406 150.9451446533203 -44.04273986816406 C 314.0385437011719 -16.45668601989746 321.8668212890625 -12.238274574279785 342.046875 -11.179996490478516 C 343.1087646484375 -8.176088333129883 338.4297790527344 -1.375749111175537 359.249755859375 114.95097351074219" stroke-width="0.0" fill="rgb(237, 210, 218)" opacity="0.6013402" stroke="rgb(175, 133, 103)" stroke-opacity="0.5133926" stroke-linecap="round" stroke-linejoin="round"/>
    <path d="M 67.49809265136719 352.1278991699219 C 55.631404876708984 367.7603454589844 42.106632232666016 359.99188232421875 30.931781768798828 357.6523742675781 C -6.981467247009277 358.08404541015625 -10.127348899841309 358.5036315917969 -14.781020164489746 285.91204833984375 C -23.187969207763672 306.0796813964844 -30.42978858947754 256.40447998046875 187.42649841308594 269.83453369140625 C 204.21139526367188 427.7087707519531 149.4449920654297 372.1992492675781 67.49809265136719 352.1278991699219" stroke-width="0.0" fill="rgb(87, 68, 59)" opacity="0.620497" stroke="rgb(81, 231, 53)" stroke-opacity="0.71570295" stroke-linecap="round" stroke-linejoin="round"/>
    <path d="M 346.6591491699219 77.6130599975586 C 421.47796630859375 112.39448547363281 370.3238830566406 52.78791427612305 428.44586181640625 185.2306671142578 C 265.7221374511719 149.47528076171875 329.592529296875 140.01449584960938 231.6224365234375 90.41397094726562 C 270.21246337890625 22.98755645751953 324.1533508300781 42.019229888916016 321.11749267578125 34.45468521118164 C 345.7227478027344 30.109283447265625 326.7193908691406 26.64651870727539 346.6591491699219 77.6130599975586" stroke-width="0.0" fill="rgb(81, 53, 42)" opacity="0.9917111" stroke="rgb(209, 250, 61)" stroke-opacity="0.6594973" stroke-linecap="round" stroke-linejoin="round"/>
    <path d="M 524.262939453125 217.27764892578125 C 538.8892822265625 246.525634765625 543.42041015625 251.44866943359375 480.0435485839844 287.001708984375 C 418.62579345703125 178.72543334960938 429.38006591796875 178.0517578125 392.5677185058594 98.0927505493164 C 416.0399475097656 111.84812927246094 408.7878112792969 119.2897720336914 499.7887268066406 124.50660705566406 C 537.32080078125 135.11279296875 525.4503173828125 148.8909912109375 524.262939453125 217.27764892578125" stroke-width="0.0" fill="rgb(231, 223, 211)" opacity="0.40450844" stroke="rgb(234, 231, 120)" stroke-opacity="0.16838099" stroke-linecap="round" stroke-linejoin="round"/>
    <path d="M 319.77703857421875 64.60250854492188 C 320.0984802246094 71.09245300292969 316.7896728515625 80.69178009033203 262.3407287597656 82.11661529541016 C 219.44810485839844 86.79759979248047 225.52076721191406 86.5740966796875 227.90423583984375 37.411415100097656 C 244.9229736328125 4.2845306396484375 255.11935424804688 8.345100402832031 276.0899658203125 15.998383522033691 C 315.8219299316406 31.06711196899414 317.4731750488281 33.467830657958984 319.77703857421875 64.60250854492188" stroke-width="0.0" fill="rgb(162, 158, 177)" opacity="0.9675503" stroke="rgb(186, 70, 38)" stroke-opacity="0.9526856" stroke-linecap="round" stroke-linejoin="round"/>
    <path d="M 403.5429992675781 91.85992431640625 C 355.4170837402344 88.7904052734375 350.5838928222656 78.70465087890625 338.2648620605469 72.8404769897461 C 299.8421936035156 70.3468246459961 298.6273498535156 67.8722915649414 298.53240966796875 59.37958908081055 C 302.51544189453125 32.19628143310547 306.3834533691406 31.263774871826172 343.3081359863281 -4.435393333435059 C 339.1360168457031 14.317850112915039 360.27252197265625 11.151670455932617 403.5429992675781 91.85992431640625" stroke-width="0.0" fill="rgb(114, 135, 177)" opacity="0.9598558" stroke="rgb(31, 57, 195)" stroke-opacity="0.011719153" stroke-linecap="round" stroke-linejoin="round"/>
    <path d="M 409.5407409667969 4.272707462310791 C 374.80780029296875 86.39925384521484 339.4458312988281 48.67167282104492 301.8321533203125 51.762882232666016 C 298.0981750488281 54.719242095947266 296.05902099609375 53.07030487060547 281.37860107421875 37.34204864501953 C 254.41702270507812 46.212528228759766 198.77500915527344 114.70990753173828 156.9945526123047 6.893594741821289 C 344.6581115722656 -16.474950790405273 351.8517761230469 -14.992855072021484 409.5407409667969 4.272707462310791" stroke-width="0.0" fill="rgb(39, 72, 137)" opacity="0.14744575" stroke="rgb(226, 37, 193)" stroke-opacity="0.24295457" stroke-linecap="round" stroke-linejoin="round"/>
    <path d="M 324.51922607421875 187.9300537109375 C 327.2326965332031 187.38502502441406 325.7544250488281 191.93124389648438 321.70880126953125 191.02491760253906 C 311.9559020996094 187.4559326171875 303.1931457519531 191.68698120117188 305.22210693359375 188.61489868164062 C 305.2949523925781 164.4866943359375 303.7969055175781 167.62677001953125 315.3667907714844 166.64479064941406 C 323.001220703125 170.5585174560547 325.5218811035156 171.64834594726562 324.51922607421875 187.9300537109375" stroke-width="0.0" fill="rgb(224, 236, 255)" opacity="0.8573874" stroke="rgb(38, 1, 107)" stroke-opacity="0.6988667" stroke-linecap="round" stroke-linejoin="round"/>
    <path d="M 369.67889404296875 87.22847747802734 C 345.5724182128906 82.4210433959961 317.29205322265625 81.29512023925781 318.458984375 82.13077545166016 C 300.1759948730469 79.4499740600586 277.54949951171875 83.10002136230469 279.9820556640625 78.24323272705078 C 290.8369445800781 52.13948440551758 295.4105224609375 50.67648696899414 332.99932861328125 50.29281997680664 C 334.6421203613281 62.97423553466797 338.8531188964844 79.39588928222656 369.67889404296875 87.22847747802734" stroke-width="0.0" fill="rgb(134, 149, 181)" opacity="0.9894034" stroke="rgb(62, 230, 57)" stroke-opacity="0.64721113" stroke-linecap="round" stroke-linejoin="round"/>
    <path d="M 291.94769287109375 190.71836853027344 C 293.6044921875 191.160888671875 294.32513427734375 190.4485626220703 275.8874816894531 190.9716339111328 C 263.5225524902344 189.9475555419922 270.2147216796875 193.38052368164062 268.88531494140625 192.38552856445312 C 271.7840576171875 167.4423065185547 266.70770263671875 169.6608123779297 281.90850830078125 166.28836059570312 C 292.0916442871094 170.16897583007812 291.6340026855469 168.173095703125 291.94769287109375 190.71836853027344" stroke-width="0.0" fill="rgb(242, 245, 255)" opacity="0.8589686" stroke="rgb(106, 177, 228)" stroke-opacity="0.49644572" stroke-linecap="round" stroke-linejoin="round"/>
    <path d="M 182.09222412109375 93.35865783691406 C 206.78402709960938 94.21454620361328 162.7904510498047 96.05117797851562 144.8948974609375 90.38726043701172 C 120.14727020263672 58.620853424072266 114.54688262939453 109.89521026611328 25.884986877441406 -0.06789572536945343 C 68.39754486083984 -21.742218017578125 86.16793823242188 -16.171958923339844 113.34469604492188 -4.109952449798584 C 153.2373504638672 21.11233139038086 141.88845825195312 33.512420654296875 182.09222412109375 93.35865783691406" stroke-width="0.0" fill="rgb(239, 156, 105)" opacity="0.76418334" stroke="rgb(41, 116, 159)" stroke-opacity="0.65305537" stroke-linecap="round" stroke-linejoin="round"/>
    <path d="M 186.80580139160156 56.90153884887695 C 167.22250366210938 45.1946907043457 162.53128051757812 35.29668045043945 157.791259765625 47.0291748046875 C 145.07180786132812 100.09750366210938 127.6039047241211 58.6221923828125 121.60077667236328 29.649538040161133 C 106.34051513671875 4.985538959503174 102.43894958496094 -1.7376106977462769 123.520751953125 -13.186572074890137 C 187.15536499023438 -10.009298324584961 196.48635864257812 -5.078407287597656 186.80580139160156 56.90153884887695" stroke-width="0.0" fill="rgb(171, 143, 147)" opacity="0.79288363" stroke="rgb(224, 228, 212)" stroke-opacity="0.45879084" stroke-linecap="round" stroke-linejoin="round"/>
    <path d="M 45.084197998046875 191.98165893554688 C 44.08368682861328 212.57403564453125 33.04207229614258 198.97042846679688 23.652055740356445 201.53204345703125 C 41.34187316894531 210.22789001464844 -17.96502685546875 214.40179443359375 -8.828255653381348 184.25057983398438 C -7.818467140197754 175.73599243164062 -7.2131853103637695 171.64297485351562 3.734158754348755 171.0222625732422 C 26.87362289428711 172.37130737304688 34.2069091796875 169.70130920410156 45.084197998046875 191.98165893554688" stroke-width="0.0" fill="rgb(246, 157, 76)" opacity="0.76720804" stroke="rgb(9, 101, 118)" stroke-opacity="0.5030616" stroke-linecap="round" stroke-linejoin="round"/>
    <path d="M 293.3348388671875 238.4909210205078 C 293.4211120605469 247.68472290039062 297.4955749511719 246.095703125 284.326171875 245.7767791748047 C 263.8981018066406 247.77865600585938 274.0240173339844 246.5409393310547 271.3260192871094 246.1368865966797 C 269.90478515625 212.97634887695312 275.1822814941406 225.66604614257812 277.8497619628906 215.48809814453125 C 286.113525390625 213.54067993164062 292.6925354003906 211.24273681640625 293.3348388671875 238.4909210205078" stroke-width="0.0" fill="rgb(31, 11, 10)" opacity="0.8725728" stroke="rgb(78, 85, 49)" stroke-opacity="0.5705603" stroke-linecap="round" stroke-linejoin="round"/>
    <path d="M 186.57667541503906 283.1899719238281 C 184.51651000976562 311.1593933105469 190.2473602294922 314.8094482421875 176.09469604492188 312.5389099121094 C 137.69967651367188 318.85491943359375 180.21107482910156 309.87982177734375 168.89019775390625 293.77032470703125 C 160.23353576660156 278.4712219238281 171.42893981933594 279.4705810546875 173.45738220214844 276.2259216308594 C 183.41351318359375 274.736328125 184.5491943359375 279.9014587402344 186.57667541503906 283.1899719238281" stroke-width="0.0" fill="rgb(21, 16, 15)" opacity="0.86050254" stroke="rgb(38, 9, 9)" stroke-opacity="0.91421896" stroke-linecap="round" stroke-linejoin="round"/>
    <path d="M 51.039581298828125 160.7950439453125 C 42.751468658447266 162.28419494628906 50.32391357421875 180.7340545654297 37.99229049682617 191.23048400878906 C 29.969810485839844 160.0155792236328 13.433294296264648 173.14703369140625 -6.429111003875732 109.1624755859375 C 12.518780708312988 139.7162628173828 33.94921875 131.6248321533203 18.17595672607422 137.92149353027344 C 27.43644905090332 153.8873748779297 34.94952392578125 148.917236328125 51.039581298828125 160.7950439453125" stroke-width="0.0" fill="rgb(200, 146, 124)" opacity="0.8060704" stroke="rgb(100, 199, 20)" stroke-opacity="0.86417997" stroke-linecap="round" stroke-linejoin="round"/>
    <path d="M 46.98136520385742 270.5370178222656 C 48.029052734375 285.8582763671875 32.78770446777344 277.4538269042969 36.98016357421875 283.757080078125 C 37.21908950805664 291.9181213378906 14.82345199584961 308.2694091796875 -10.97571849822998 268.82696533203125 C -15.118062973022461 212.84373474121094 -14.780425071716309 218.57591247558594 31.40043830871582 234.68870544433594 C 52.33509063720703 243.64462280273438 48.66358184814453 258.6885681152344 46.98136520385742 270.5370178222656" stroke-width="0.0" fill="rgb(255, 187, 143)" opacity="0.60527134" stroke="rgb(35, 184, 115)" stroke-opacity="0.20930892" stroke-linecap="round" stroke-linejoin="round"/>
    <path d="M 40.86241912841797 200.9994659423828 C 33.60650634765625 218.2474822998047 14.229825973510742 212.8848114013672 -0.5682171583175659 209.36827087402344 C -5.004884243011475 207.82882690429688 -6.232819080352783 206.38560485839844 -14.764835357666016 202.53121948242188 C -6.7364182472229 187.203125 -5.931133270263672 185.00611877441406 -4.6271209716796875 180.93759155273438 C -4.034207820892334 198.24583435058594 14.230518341064453 190.2393035888672 40.86241912841797 200.9994659423828" stroke-width="0.0" fill="rgb(177, 138, 136)" opacity="0.4774617" stroke="rgb(40, 211, 24)" stroke-opacity="0.1596657" stroke-linecap="round" stroke-linejoin="round"/>
    <path d="M 122.79304504394531 114.55938720703125 C 105.2088623046875 125.8210678100586 89.48448944091797 132.05084228515625 79.22747039794922 142.57638549804688 C 94.6133804321289 117.51827239990234 -40.21388244628906 94.47422790527344 -42.121864318847656 -4.7707672119140625 C 70.42841339111328 28.36005210876465 39.14175033569336 75.10381317138672 90.78594970703125 106.93466186523438 C 111.07427978515625 113.08394622802734 113.01971435546875 112.6365737915039 122.79304504394531 114.55938720703125" stroke-width="0.0" fill="rgb(223, 171, 137)" opacity="1.0" stroke="rgb(63, 181, 83)" stroke-opacity="0.53582704" stroke-linecap="round" stroke-linejoin="round"/>
    <path d="M 424.525390625 231.7232208251953 C 425.642578125 252.39242553710938 428.6564636230469 246.2191925048828 422.41094970703125 249.9174041748047 C 404.9382019042969 250.47674560546875 411.00445556640625 247.98023986816406 408.06427001953125 228.16259765625 C 407.8713684082031 221.81166076660156 413.7337341308594 221.27145385742188 413.7865295410156 219.28533935546875 C 413.88372802734375 221.7078094482422 421.3365478515625 218.30418395996094 424.525390625 231.7232208251953" stroke-width="0.0" fill="rgb(50, 24, 14)" opacity="0.9999821" stroke="rgb(3, 111, 232)" stroke-opacity="0.5829063" stroke-linecap="round" stroke-linejoin="round"/>
    <path d="M 355.02142333984375 273.5509338378906 C 403.29913330078125 274.50732421875 404.13787841796875 315.451904296875 301.6506042480469 317.60003662109375 C 312.1857604980469 315.9296875 298.4524841308594 297.8412170410156 309.7787170410156 300.1541442871094 C 310.1423034667969 280.74554443359375 307.8860168457031 279.2516174316406 318.0488586425781 272.9166564941406 C 346.1518249511719 270.7063903808594 321.45465087890625 301.6395263671875 355.02142333984375 273.5509338378906" stroke-width="0.0" fill="rgb(41, 26, 15)" opacity="0.8304028" stroke="rgb(180, 78, 4)" stroke-opacity="0.28289485" stroke-linecap="round" stroke-linejoin="round"/>
    <path d="M 465.9317321777344 257.483154296875 C 557.4973754882812 289.9200439453125 558.334716796875 364.0254211425781 286.20501708984375 356.47882080078125 C 343.92755126953125 265.4163818359375 386.95849609375 246.3272247314453 403.6450500488281 278.0040588378906 C 435.3553466796875 272.8525085449219 402.45697021484375 272.9353942871094 418.9601135253906 265.63031005859375 C 408.00616455078125 249.4015350341797 418.0259704589844 248.5716094970703 465.9317321777344 257.483154296875" stroke-width="0.0" fill="rgb(7, 3, 0)" opacity="0.17110097" stroke="rgb(168, 244, 174)" stroke-opacity="0.72062075" stroke-linecap="round" stroke-linejoin="round"/>
    <path d="M 52.249717712402344 218.3928985595703 C 54.136756896972656 241.4740447998047 56.555721282958984 233.24024963378906 42.31313705444336 249.29849243164062 C 30.946550369262695 234.88633728027344 33.95720291137695 234.6629638671875 26.14093780517578 233.25904846191406 C 26.47014045715332 198.90866088867188 22.95997428894043 206.56976318359375 48.08525466918945 202.7829132080078 C 68.81288146972656 202.13836669921875 51.86772155761719 198.8540496826172 52.249717712402344 218.3928985595703" stroke-width="0.0" fill="rgb(169, 134, 121)" opacity="1.0" stroke="rgb(52, 92, 203)" stroke-opacity="0.64390206" stroke-linecap="round" stroke-linejoin="round"/>
    <path d="M 6.867972373962402 144.593017578125 C 21.17837142944336 177.2924041748047 20.462427139282227 175.69924926757812 18.651639938354492 171.6903533935547 C 16.56022071838379 168.3114471435547 2.6768639087677 177.6868133544922 -6.06016206741333 166.88807678222656 C -5.044881820678711 133.9373779296875 -12.295079231262207 124.75993347167969 -3.2409825325012207 109.65917205810547 C 55.23890686035156 159.97509765625 50.00071334838867 132.92530822753906 6.867972373962402 144.593017578125" stroke-width="0.0" fill="rgb(247, 111, 54)" opacity="0.28513217" stroke="rgb(74, 182, 153)" stroke-opacity="0.073488735" stroke-linecap="round" stroke-linejoin="round"/>
    <path d="M 50.16511535644531 170.1187744140625 C 44.60401153564453 171.1270751953125 45.08575439453125 180.22177124023438 33.07080078125 189.1645965576172 C 4.503960132598877 180.15725708007812 -5.483652114868164 173.2169647216797 -2.8659489154815674 155.78045654296875 C 21.900062561035156 132.0946044921875 -3.74894380569458 135.00401306152344 40.59256362915039 157.5922088623047 C 47.860782623291016 158.45498657226562 41.36406326293945 169.02810668945312 50.16511535644531 170.1187744140625" stroke-width="0.0" fill="rgb(160, 118, 107)" opacity="0.63116944" stroke="rgb(56, 208, 247)" stroke-opacity="0.05461297" stroke-linecap="round" stroke-linejoin="round"/>
    <path d="M 284.94482421875 120.20166015625 C 282.1637878417969 124.40068054199219 287.9421691894531 125.22388458251953 278.30157470703125 123.38993835449219 C 274.4963684082031 124.14823150634766 273.3882141113281 128.55630493164062 274.28387451171875 112.99994659423828 C 268.9456481933594 111.04583740234375 281.23565673828125 112.55073547363281 276.9476623535156 109.47792053222656 C 287.7049560546875 110.45863342285156 282.1055603027344 116.53744506835938 284.94482421875 120.20166015625" stroke-width="0.0" fill="rgb(18, 4, 2)" opacity="0.8392234" stroke="rgb(241, 77, 4)" stroke-opacity="0.26413575" stroke-linecap="round" stroke-linejoin="round"/>
    <path d="M 14.526459693908691 169.6728973388672 C 26.036592483520508 178.65150451660156 22.733718872070312 186.36029052734375 17.598690032958984 190.89056396484375 C -15.068577766418457 189.33221435546875 -11.229767799377441 182.49502563476562 -14.929924011230469 167.5399169921875 C -15.626643180847168 167.44850158691406 0.2757016718387604 166.64358520507812 14.172894477844238 167.37501525878906 C 11.409478187561035 169.50135803222656 9.304264068603516 172.3550262451172 14.526459693908691 169.6728973388672" stroke-width="0.0" fill="rgb(237, 154, 90)" opacity="0.74636453" stroke="rgb(211, 180, 220)" stroke-opacity="0.6323072" stroke-linecap="round" stroke-linejoin="round"/>
    <path d="M 56.21160125732422 177.68429565429688 C 52.618980407714844 175.39649963378906 63.2154426574707 216.2875213623047 49.188167572021484 207.5826416015625 C 31.13372039794922 202.59339904785156 28.00640296936035 200.33920288085938 37.0607795715332 183.0550994873047 C 62.997440338134766 156.95074462890625 25.782499313354492 144.29518127441406 76.38867950439453 148.45985412597656 C 76.07307434082031 144.74815368652344 61.157501220703125 156.85092163085938 56.21160125732422 177.68429565429688" stroke-width="0.0" fill="rgb(246, 188, 144)" opacity="0.8076551" stroke="rgb(207, 49, 185)" stroke-opacity="0.38214937" stroke-linecap="round" stroke-linejoin="round"/>
    <path d="M 286.0 283.0 C 285.33013916015625 285.5 283.5 287.33013916015625 281.0 288.0 C 278.5 287.33013916015625 276.66986083984375 285.5 276.0 283.0 C 276.66986083984375 280.5 278.5 278.66986083984375 281.0 278.0 C 283.5 278.66986083984375 285.33013916015625 280.5 286.0 283.0" stroke-width="0.0" fill="rgb(0, 0, 0)" opacity="1.0" stroke="rgb(159, 1, 234)" stroke-opacity="0.29648715" stroke-linecap="round" stroke-linejoin="round"/>
    <path d="M 490.0 277.0 C 489.33013916015625 279.5 487.5 281.33013916015625 485.0 282.0 C 482.5 281.33013916015625 480.66986083984375 279.5 480.0 277.0 C 480.66986083984375 274.5 482.5 272.66986083984375 485.0 272.0 C 487.5 272.66986083984375 489.33013916015625 274.5 490.0 277.0" stroke-width="0.0" fill="rgb(225, 159, 98)" opacity="1.0" stroke="rgb(191, 6, 61)" stroke-opacity="0.8909176" stroke-linecap="round" stroke-linejoin="round"/>
    <path d="M 486.0 280.0 C 485.33013916015625 282.5 483.5 284.33013916015625 481.0 285.0 C 478.5 284.33013916015625 476.66986083984375 282.5 476.0 280.0 C 476.66986083984375 277.5 478.5 275.66986083984375 481.0 275.0 C 483.5 275.66986083984375 485.33013916015625 277.5 486.0 280.0" stroke-width="0.0" fill="rgb(231, 159, 98)" opacity="1.0" stroke="rgb(118, 201, 118)" stroke-opacity="0.797393" stroke-linecap="round" stroke-linejoin="round"/>
    <path d="M 170.0 195.0 C 169.3301239013672 197.5 167.5 199.3301239013672 165.0 200.0 C 162.5 199.3301239013672 160.6698760986328 197.5 160.0 195.0 C 160.6698760986328 192.5 162.5 190.6698760986328 165.0 190.0 C 167.5 190.6698760986328 169.3301239013672 192.5 170.0 195.0" stroke-width="0.0" fill="rgb(194, 152, 117)" opacity="1.0" stroke="rgb(239, 175, 40)" stroke-opacity="0.118446074" stroke-linecap="round" stroke-linejoin="round"/>
    <path d="M 190.0 239.0 C 189.3301239013672 241.5 187.5 243.3301239013672 185.0 244.0 C 182.5 243.3301239013672 180.6698760986328 241.5 180.0 239.0 C 180.6698760986328 236.5 182.5 234.6698760986328 185.0 234.0 C 187.5 234.6698760986328 189.3301239013672 236.5 190.0 239.0" stroke-width="0.0" fill="rgb(44, 26, 17)" opacity="1.0" stroke="rgb(191, 246, 115)" stroke-opacity="0.92630136" stroke-linecap="round" stroke-linejoin="round"/>
    <path d="M 84.0 209.0 C 83.33012390136719 211.5 81.5 213.3301239013672 79.0 214.0 C 76.5 213.3301239013672 74.66987609863281 211.5 74.0 209.0 C 74.66987609863281 206.5 76.5 204.6698760986328 79.0 204.0 C 81.5 204.6698760986328 83.33012390136719 206.5 84.0 209.0" stroke-width="0.0" fill="rgb(47, 19, 7)" opacity="1.0" stroke="rgb(246, 13, 179)" stroke-opacity="0.72790027" stroke-linecap="round" stroke-linejoin="round"/>
    <path d="M 220.0 301.0 C 219.3301239013672 303.5 217.5 305.33013916015625 215.0 306.0 C 212.5 305.33013916015625 210.6698760986328 303.5 210.0 301.0 C 210.6698760986328 298.5 212.5 296.66986083984375 215.0 296.0 C 217.5 296.66986083984375 219.3301239013672 298.5 220.0 301.0" stroke-width="0.0" fill="rgb(13, 12, 17)" opacity="1.0" stroke="rgb(155, 121, 164)" stroke-opacity="0.6209512" stroke-linecap="round" stroke-linejoin="round"/>
    <path d="M 325.0 225.0 C 324.33013916015625 227.5 322.5 229.3301239013672 320.0 230.0 C 317.5 229.3301239013672 315.66986083984375 227.5 315.0 225.0 C 315.66986083984375 222.5 317.5 220.6698760986328 320.0 220.0 C 322.5 220.6698760986328 324.33013916015625 222.5 325.0 225.0" stroke-width="0.0" fill="rgb(14, 3, 7)" opacity="1.0" stroke="rgb(46, 52, 50)" stroke-opacity="0.56170535" stroke-linecap="round" stroke-linejoin="round"/>
    <path d="M 284.0 87.0 C 283.33013916015625 89.5 281.5 91.33012390136719 279.0 92.0 C 276.5 91.33012390136719 274.66986083984375 89.5 274.0 87.0 C 274.66986083984375 84.5 276.5 82.66987609863281 279.0 82.0 C 281.5 82.66987609863281 283.33013916015625 84.5 284.0 87.0" stroke-width="0.0" fill="rgb(24, 10, 6)" opacity="1.0" stroke="rgb(194, 25, 171)" stroke-opacity="0.22136806" stroke-linecap="round" stroke-linejoin="round"/>
    <path d="M 496.0 271.0 C 495.33013916015625 273.5 493.5 275.33013916015625 491.0 276.0 C 488.5 275.33013916015625 486.66986083984375 273.5 486.0 271.0 C 486.66986083984375 268.5 488.5 266.66986083984375 491.0 266.0 C 493.5 266.66986083984375 495.33013916015625 268.5 496.0 271.0" stroke-width="0.0" fill="rgb(215, 158, 98)" opacity="1.0" stroke="rgb(237, 125, 20)" stroke-opacity="0.9645481" stroke-linecap="round" stroke-linejoin="round"/>
    <path d="M 492.0 269.0 C 491.33013916015625 271.5 489.5 273.33013916015625 487.0 274.0 C 484.5 273.33013916015625 482.66986083984375 271.5 482.0 269.0 C 482.66986083984375 266.5 484.5 264.66986083984375 487.0 264.0 C 489.5 264.66986083984375 491.33013916015625 266.5 492.0 269.0" stroke-width="0.0" fill="rgb(215, 165, 105)" opacity="1.0" stroke="rgb(44, 155, 205)" stroke-opacity="0.9681269" stroke-linecap="round" stroke-linejoin="round"/>
    <path d="M 490.0 271.0 C 489.33013916015625 273.5 487.5 275.33013916015625 485.0 276.0 C 482.5 275.33013916015625 480.66986083984375 273.5 480.0 271.0 C 480.66986083984375 268.5 482.5 266.66986083984375 485.0 266.0 C 487.5 266.66986083984375 489.33013916015625 268.5 490.0 271.0" stroke-width="0.0" fill="rgb(219, 163, 105)" opacity="1.0" stroke="rgb(127, 254, 228)" stroke-opacity="0.7751689" stroke-linecap="round" stroke-linejoin="round"/>
    <path d="M 489.0 268.0 C 488.33013916015625 270.5 486.5 272.33013916015625 484.0 273.0 C 481.5 272.33013916015625 479.66986083984375 270.5 479.0 268.0 C 479.66986083984375 265.5 481.5 263.66986083984375 484.0 263.0 C 486.5 263.66986083984375 488.33013916015625 265.5 489.0 268.0" stroke-width="0.0" fill="rgb(217, 167, 110)" opacity="1.0" stroke="rgb(184, 171, 26)" stroke-opacity="0.62410176" stroke-linecap="round" stroke-linejoin="round"/>
    <path d="M 486.0 273.0 C 485.33013916015625 275.5 483.5 277.33013916015625 481.0 278.0 C 478.5 277.33013916015625 476.66986083984375 275.5 476.0 273.0 C 476.66986083984375 270.5 478.5 268.66986083984375 481.0 268.0 C 483.5 268.66986083984375 485.33013916015625 270.5 486.0 273.0" stroke-width="0.0" fill="rgb(225, 165, 105)" opacity="1.0" stroke="rgb(121, 55, 59)" stroke-opacity="0.94441706" stroke-linecap="round" stroke-linejoin="round"/>
    <path d="M 127.0 286.0 C 126.33012390136719 288.5 124.5 290.33013916015625 122.0 291.0 C 119.5 290.33013916015625 117.66987609863281 288.5 117.0 286.0 C 117.66987609863281 283.5 119.5 281.66986083984375 122.0 281.0 C 124.5 281.66986083984375 126.33012390136719 283.5 127.0 286.0" stroke-width="0.0" fill="rgb(39, 21, 7)" opacity="1.0" stroke="rgb(179, 246, 23)" stroke-opacity="0.72780585" stroke-linecap="round" stroke-linejoin="round"/>
    <path d="M 183.0 309.0 C 182.3301239013672 311.5 180.5 313.33013916015625 178.0 314.0 C 175.5 313.33013916015625 173.6698760986328 311.5 173.0 309.0 C 173.6698760986328 306.5 175.5 304.66986083984375 178.0 304.0 C 180.5 304.66986083984375 182.3301239013672 306.5 183.0 309.0" stroke-width="0.0" fill="rgb(71, 82, 101)" opacity="1.0" stroke="rgb(247, 34, 128)" stroke-opacity="0.2054715" stroke-linecap="round" stroke-linejoin="round"/>
    <path d="M 419.0 303.0 C 418.33013916015625 305.5 416.5 307.33013916015625 414.0 308.0 C 411.5 307.33013916015625 409.66986083984375 305.5 409.0 303.0 C 409.66986083984375 300.5 411.5 298.66986083984375 414.0 298.0 C 416.5 298.66986083984375 418.33013916015625 300.5 419.0 303.0" stroke-width="0.0" fill="rgb(31, 17, 14)" opacity="1.0" stroke="rgb(249, 39, 227)" stroke-opacity="0.0013857418" stroke-linecap="round" stroke-linejoin="round"/>
    <path d="M 105.0 284.0 C 104.33012390136719 286.5 102.5 288.33013916015625 100.0 289.0 C 97.5 288.33013916015625 95.66987609863281 286.5 95.0 284.0 C 95.66987609863281 281.5 97.5 279.66986083984375 100.0 279.0 C 102.5 279.66986083984375 104.33012390136719 281.5 105.0 284.0" stroke-width="0.0" fill="rgb(34, 13, 4)" opacity="1.0" stroke="rgb(185, 42, 175)" stroke-opacity="0.9000391" stroke-linecap="round" stroke-linejoin="round"/>
    <path d="M 235.0 311.0 C 234.3301239013672 313.5 232.5 315.33013916015625 230.0 316.0 C 227.5 315.33013916015625 225.6698760986328 313.5 225.0 311.0 C 225.6698760986328 308.5 227.5 306.66986083984375 230.0 306.0 C 232.5 306.66986083984375 234.3301239013672 308.5 235.0 311.0" stroke-width="0.0" fill="rgb(162, 150, 160)" opacity="1.0" stroke="rgb(21, 84, 53)" stroke-opacity="0.24086691" stroke-linecap="round" stroke-linejoin="round"/>
    <path d="M 188.0 232.0 C 187.3301239013672 234.5 185.5 236.3301239013672 183.0 237.0 C 180.5 236.3301239013672 178.6698760986328 234.5 178.0 232.0 C 178.6698760986328 229.5 180.5 227.6698760986328 183.0 227.0 C 185.5 227.6698760986328 187.3301239013672 229.5 188.0 232.0" stroke-width="0.0" fill="rgb(41, 22, 16)" opacity="1.0" stroke="rgb(100, 96, 136)" stroke-opacity="0.29072183" stroke-linecap="round" stroke-linejoin="round"/>
    <path d="M 394.0 282.0 C 393.33013916015625 284.5 391.5 286.33013916015625 389.0 287.0 C 386.5 286.33013916015625 384.66986083984375 284.5 384.0 282.0 C 384.66986083984375 279.5 386.5 277.66986083984375 389.0 277.0 C 391.5 277.66986083984375 393.33013916015625 279.5 394.0 282.0" stroke-width="0.0" fill="rgb(12, 9, 2)" opacity="1.0" stroke="rgb(82, 217, 145)" stroke-opacity="0.037226457" stroke-linecap="round" stroke-linejoin="round"/>
    <path d="M 395.0 286.0 C 394.33013916015625 288.5 392.5 290.33013916015625 390.0 291.0 C 387.5 290.33013916015625 385.66986083984375 288.5 385.0 286.0 C 385.66986083984375 283.5 387.5 281.66986083984375 390.0 281.0 C 392.5 281.66986083984375 394.33013916015625 283.5 395.0 286.0" stroke-width="0.0" fill="rgb(7, 6, 2)" opacity="1.0" stroke="rgb(37, 249, 86)" stroke-opacity="0.61267734" stroke-linecap="round" stroke-linejoin="round"/>
    <path d="M 157.0 238.0 C 156.3301239013672 240.5 154.5 242.3301239013672 152.0 243.0 C 149.5 242.3301239013672 147.6698760986328 240.5 147.0 238.0 C 147.6698760986328 235.5 149.5 233.6698760986328 152.0 233.0 C 154.5 233.6698760986328 156.3301239013672 235.5 157.0 238.0" stroke-width="0.0" fill="rgb(36, 11, 10)" opacity="1.0" stroke="rgb(138, 80, 19)" stroke-opacity="0.42490155" stroke-linecap="round" stroke-linejoin="round"/>
    <path d="M 156.0 284.0 C 155.3301239013672 286.5 153.5 288.33013916015625 151.0 289.0 C 148.5 288.33013916015625 146.6698760986328 286.5 146.0 284.0 C 146.6698760986328 281.5 148.5 279.66986083984375 151.0 279.0 C 153.5 279.66986083984375 155.3301239013672 281.5 156.0 284.0" stroke-width="0.0" fill="rgb(1, 1, 1)" opacity="1.0" stroke="rgb(249, 115, 8)" stroke-opacity="0.69328564" stroke-linecap="round" stroke-linejoin="round"/>
    <path d="M 253.0 177.0 C 252.3301239013672 179.5 250.5 181.3301239013672 248.0 182.0 C 245.5 181.3301239013672 243.6698760986328 179.5 243.0 177.0 C 243.6698760986328 174.5 245.5 172.6698760986328 248.0 172.0 C 250.5 172.6698760986328 252.3301239013672 174.5 253.0 177.0" stroke-width="0.0" fill="rgb(229, 217, 219)" opacity="1.0" stroke="rgb(234, 132, 32)" stroke-opacity="0.13056526" stroke-linecap="round" stroke-linejoin="round"/>
    <path d="M 189.0 187.0 C 188.3301239013672 189.5 186.5 191.3301239013672 184.0 192.0 C 181.5 191.3301239013672 179.6698760986328 189.5 179.0 187.0 C 179.6698760986328 184.5 181.5 182.6698760986328 184.0 182.0 C 186.5 182.6698760986328 188.3301239013672 184.5 189.0 187.0" stroke-width="0.0" fill="rgb(247, 237, 228)" opacity="1.0" stroke="rgb(167, 143, 206)" stroke-opacity="0.09985857" stroke-linecap="round" stroke-linejoin="round"/>
    <path d="M 510.0 239.0 C 509.33013916015625 241.5 507.5 243.3301239013672 505.0 244.0 C 502.5 243.3301239013672 500.66986083984375 241.5 500.0 239.0 C 500.66986083984375 236.5 502.5 234.6698760986328 505.0 234.0 C 507.5 234.6698760986328 509.33013916015625 236.5 510.0 239.0" stroke-width="0.0" fill="rgb(100, 100, 110)" opacity="1.0" stroke="rgb(221, 230, 50)" stroke-opacity="0.2031248" stroke-linecap="round" stroke-linejoin="round"/>
    <path d="M 484.0 267.0 C 483.33013916015625 269.5 481.5 271.33013916015625 479.0 272.0 C 476.5 271.33013916015625 474.66986083984375 269.5 474.0 267.0 C 474.66986083984375 264.5 476.5 262.66986083984375 479.0 262.0 C 481.5 262.66986083984375 483.33013916015625 264.5 484.0 267.0" stroke-width="0.0" fill="rgb(217, 171, 115)" opacity="1.0" stroke="rgb(216, 253, 101)" stroke-opacity="0.38777503" stroke-linecap="round" stroke-linejoin="round"/>
    <path d="M 489.0 276.0 C 488.33013916015625 278.5 486.5 280.33013916015625 484.0 281.0 C 481.5 280.33013916015625 479.66986083984375 278.5 479.0 276.0 C 479.66986083984375 273.5 481.5 271.66986083984375 484.0 271.0 C 486.5 271.66986083984375 488.33013916015625 273.5 489.0 276.0" stroke-width="0.0" fill="rgb(225, 161, 99)" opacity="1.0" stroke="rgb(117, 193, 177)" stroke-opacity="0.36325952" stroke-linecap="round" stroke-linejoin="round"/>
    <path d="M 487.0 277.0 C 486.33013916015625 279.5 484.5 281.33013916015625 482.0 282.0 C 479.5 281.33013916015625 477.66986083984375 279.5 477.0 277.0 C 477.66986083984375 274.5 479.5 272.66986083984375 482.0 272.0 C 484.5 272.66986083984375 486.33013916015625 274.5 487.0 277.0" stroke-width="0.0" fill="rgb(228, 163, 99)" opacity="1.0" stroke="rgb(145, 115, 228)" stroke-opacity="0.03598804" stroke-linecap="round" stroke-linejoin="round"/>
    <path d="M 389.0 302.0 C 388.33013916015625 304.5 386.5 306.33013916015625 384.0 307.0 C 381.5 306.33013916015625 379.66986083984375 304.5 379.0 302.0 C 379.66986083984375 299.5 381.5 297.66986083984375 384.0 297.0 C 386.5 297.66986083984375 388.33013916015625 299.5 389.0 302.0" stroke-width="0.0" fill="rgb(33, 16, 9)" opacity="1.0" stroke="rgb(201, 62, 107)" stroke-opacity="0.6597879" stroke-linecap="round" stroke-linejoin="round"/>
    <path d="M 248.0 229.0 C 247.3301239013672 231.5 245.5 233.3301239013672 243.0 234.0 C 240.5 233.3301239013672 238.6698760986328 231.5 238.0 229.0 C 238.6698760986328 226.5 240.5 224.6698760986328 243.0 224.0 C 245.5 224.6698760986328 247.3301239013672 226.5 248.0 229.0" stroke-width="0.0" fill="rgb(52, 25, 16)" opacity="1.0" stroke="rgb(129, 241, 172)" stroke-opacity="0.5769956" stroke-linecap="round" stroke-linejoin="round"/>
  </g>
</svg>
