<?xml version="1.0" ?>
<svg xmlns="http://www.w3.org/2000/svg" version="1.1" width="512" height="341">
  <defs/>
  <g>
    <path d="M 299.4216003417969 26.808246612548828 C 293.6655578613281 72.48280334472656 290.2890930175781 75.52989196777344 269.0709228515625 82.65396881103516 C 224.24972534179688 77.01067352294922 222.34263610839844 73.93196105957031 223.4317626953125 55.09421157836914 C 219.16932678222656 7.01546573638916 218.98422241210938 4.34131383895874 234.87603759765625 3.282844305038452 C 287.6891174316406 3.092764139175415 292.6546936035156 7.9432549476623535 299.4216003417969 26.808246612548828" stroke-width="0.0" fill="rgb(180, 213, 198)" opacity="0.018191732" stroke="rgb(252, 218, 78)" stroke-opacity="0.06927374" stroke-linecap="round" stroke-linejoin="round"/>
    <path d="M 130.0 163.0 C 129.3301239013672 165.5 127.5 167.3301239013672 125.0 168.0 C 122.5 167.3301239013672 120.66987609863281 165.5 120.0 163.0 C 120.66987609863281 160.5 122.5 158.6698760986328 125.0 158.0 C 127.5 158.6698760986328 129.3301239013672 160.5 130.0 163.0" stroke-width="0.0" fill="rgb(45, 82, 76)" opacity="1.0" stroke="rgb(215, 83, 30)" stroke-opacity="0.17342508" stroke-linecap="round" stroke-linejoin="round"/>
    <path d="M 195.0 309.0 C 194.3301239013672 311.5 192.5 313.33013916015625 190.0 314.0 C 187.5 313.33013916015625 185.6698760986328 311.5 185.0 309.0 C 185.6698760986328 306.5 187.5 304.66986083984375 190.0 304.0 C 192.5 304.66986083984375 194.3301239013672 306.5 195.0 309.0" stroke-width="0.0" fill="rgb(85, 134, 166)" opacity="1.0" stroke="rgb(197, 208, 69)" stroke-opacity="0.4777554" stroke-linecap="round" stroke-linejoin="round"/>
  </g>
</svg>
