<?xml version="1.0" ?>
<svg xmlns="http://www.w3.org/2000/svg" version="1.1" width="512" height="512">
  <defs/>
  <g>
    <path d="M 378.5057373046875 204.5583038330078 C 371.31756591796875 401.6383972167969 260.73577880859375 255.3496551513672 270.6322937011719 372.81842041015625 C 253.8683624267578 409.95306396484375 274.7358703613281 287.2127990722656 263.2160949707031 301.8995056152344 C 215.7772979736328 309.984375 291.974365234375 313.85675048828125 267.6768493652344 271.2733459472656 C 117.19523620605469 223.99354553222656 314.7162780761719 279.4895324707031 378.5057373046875 204.5583038330078" stroke-width="0.0" fill="rgb(63, 21, 6)" opacity="0.74198353" stroke="rgb(211, 238, 65)" stroke-opacity="0.3252536" stroke-linecap="round" stroke-linejoin="round"/>
    <path d="M 295.6017761230469 194.44354248046875 C 272.8193664550781 324.43878173828125 248.1936798095703 254.1272735595703 273.6593017578125 238.19142150878906 C 130.59507751464844 244.90328979492188 167.77476501464844 258.3960876464844 120.77764129638672 164.35202026367188 C 104.39947509765625 164.63232421875 107.52855682373047 164.16064453125 168.15115356445312 159.81402587890625 C 199.80564880371094 153.28829956054688 233.66859436035156 185.81509399414062 295.6017761230469 194.44354248046875" stroke-width="0.0" fill="rgb(106, 27, 0)" opacity="0.66074026" stroke="rgb(116, 62, 228)" stroke-opacity="0.99083775" stroke-linecap="round" stroke-linejoin="round"/>
    <path d="M 202.00205993652344 251.09580993652344 C 142.90695190429688 307.8486022949219 192.48841857910156 244.58587646484375 171.83807373046875 241.7104949951172 C 29.530029296875 208.3681640625 116.91944122314453 181.32350158691406 80.50589752197266 438.2362060546875 C 77.61524963378906 92.22884368896484 86.01822662353516 210.84544372558594 68.17412567138672 167.78427124023438 C 180.15830993652344 156.2183837890625 200.55963134765625 162.82427978515625 202.00205993652344 251.09580993652344" stroke-width="0.0" fill="rgb(138, 72, 31)" opacity="1.0" stroke="rgb(160, 8, 172)" stroke-opacity="0.88494027" stroke-linecap="round" stroke-linejoin="round"/>
    <path d="M 343.5771789550781 205.9571075439453 C 340.07476806640625 247.480712890625 333.2843322753906 263.26007080078125 282.0335693359375 256.01171875 C 284.6217956542969 178.4991455078125 274.9302673339844 206.71023559570312 303.5038146972656 197.09735107421875 C 261.7425537109375 184.43856811523438 286.3390197753906 204.38958740234375 284.3641662597656 157.404541015625 C 318.9966125488281 148.13052368164062 322.47607421875 158.33935546875 343.5771789550781 205.9571075439453" stroke-width="0.0" fill="rgb(249, 250, 251)" opacity="1.0" stroke="rgb(168, 8, 27)" stroke-opacity="0.433246" stroke-linecap="round" stroke-linejoin="round"/>
    <path d="M 435.501708984375 109.29854583740234 C 437.10455322265625 190.9853515625 384.3034973144531 196.86672973632812 380.3058776855469 315.53973388671875 C 308.3951110839844 238.46865844726562 371.55810546875 243.59791564941406 381.2625427246094 225.04995727539062 C 322.24951171875 271.1554260253906 353.47674560546875 241.14207458496094 354.00360107421875 99.80741882324219 C 445.2915344238281 84.68819427490234 449.1351013183594 110.76239013671875 435.501708984375 109.29854583740234" stroke-width="0.0" fill="rgb(160, 88, 35)" opacity="1.0" stroke="rgb(140, 33, 220)" stroke-opacity="0.37270248" stroke-linecap="round" stroke-linejoin="round"/>
    <path d="M 357.5389709472656 256.5169982910156 C 361.8463134765625 290.59979248046875 314.535888671875 280.89508056640625 294.351318359375 294.21807861328125 C 276.30615234375 290.80181884765625 282.3539733886719 319.09954833984375 280.9905090332031 244.92735290527344 C 309.0087890625 238.12225341796875 300.7196350097656 270.0298156738281 328.8285827636719 233.02914428710938 C 342.0359191894531 240.32278442382812 333.6095886230469 197.0766143798828 357.5389709472656 256.5169982910156" stroke-width="0.0" fill="rgb(20, 3, 4)" opacity="0.9892284" stroke="rgb(205, 43, 140)" stroke-opacity="0.24633516" stroke-linecap="round" stroke-linejoin="round"/>
    <path d="M 431.95892333984375 186.05140686035156 C 426.4388732910156 208.63851928710938 415.42962646484375 240.02557373046875 396.9067687988281 269.6241149902344 C 368.4334411621094 277.7677001953125 396.1095275878906 248.19871520996094 411.2462158203125 191.6702423095703 C 419.79388427734375 200.4871826171875 414.5292663574219 135.34231567382812 441.0272216796875 103.55459594726562 C 442.35308837890625 130.80364990234375 438.1606750488281 161.47421264648438 431.95892333984375 186.05140686035156" stroke-width="0.0" fill="rgb(132, 67, 27)" opacity="1.0" stroke="rgb(22, 150, 163)" stroke-opacity="0.20128565" stroke-linecap="round" stroke-linejoin="round"/>
    <path d="M 316.40478515625 111.48721313476562 C 308.1097106933594 178.6322021484375 317.68194580078125 128.6983642578125 290.5155029296875 144.84866333007812 C 311.81878662109375 102.8512191772461 244.03294372558594 103.90901947021484 245.30364990234375 124.99241638183594 C 222.99984741210938 59.11935806274414 272.24066162109375 102.69265747070312 260.450927734375 77.6012191772461 C 311.684814453125 76.74966430664062 305.9576416015625 90.2021484375 316.40478515625 111.48721313476562" stroke-width="0.0" fill="rgb(27, 10, 9)" opacity="0.9157686" stroke="rgb(135, 28, 40)" stroke-opacity="0.8264136" stroke-linecap="round" stroke-linejoin="round"/>
    <path d="M 247.3241729736328 402.6270751953125 C 242.5962677001953 395.892333984375 250.96168518066406 407.6007385253906 205.74122619628906 405.7923278808594 C 200.9417266845703 421.8056335449219 228.9597625732422 391.3641662597656 192.4490966796875 386.1092834472656 C 229.89927673339844 389.89215087890625 190.2811737060547 365.656982421875 231.29339599609375 382.9380187988281 C 230.8057861328125 370.0452880859375 247.58494567871094 379.2999572753906 247.3241729736328 402.6270751953125" stroke-width="0.0" fill="rgb(27, 11, 11)" opacity="1.0" stroke="rgb(246, 198, 79)" stroke-opacity="0.95243984" stroke-linecap="round" stroke-linejoin="round"/>
    <path d="M 279.56280517578125 372.5409851074219 C 281.1033935546875 366.5783996582031 285.103515625 369.4143371582031 276.106201171875 417.074951171875 C 272.8106994628906 417.6268005371094 274.2963562011719 425.31201171875 273.8500671386719 336.7392272949219 C 276.99298095703125 257.1914978027344 254.4002227783203 254.9233856201172 275.19647216796875 233.7088623046875 C 274.1140441894531 372.2319030761719 277.15869140625 373.5735778808594 279.56280517578125 372.5409851074219" stroke-width="0.0" fill="rgb(13, 0, 1)" opacity="0.93117076" stroke="rgb(54, 243, 100)" stroke-opacity="0.8665269" stroke-linecap="round" stroke-linejoin="round"/>
    <path d="M 282.469482421875 334.67462158203125 C 282.3295593261719 392.4327392578125 282.463623046875 408.8931884765625 282.5826416015625 417.0034484863281 C 272.8454895019531 415.8490905761719 275.6900329589844 425.5376892089844 275.1969909667969 376.37164306640625 C 275.49432373046875 349.8757629394531 274.7724304199219 341.7889404296875 276.2532653808594 285.2181396484375 C 283.5772705078125 305.1812438964844 282.34619140625 349.0927429199219 282.469482421875 334.67462158203125" stroke-width="0.0" fill="rgb(151, 77, 28)" opacity="1.0" stroke="rgb(180, 191, 39)" stroke-opacity="0.6730508" stroke-linecap="round" stroke-linejoin="round"/>
    <path d="M 399.9300231933594 148.58843994140625 C 395.7860107421875 180.02755737304688 386.5845642089844 219.29051208496094 366.4579162597656 254.92726135253906 C 394.6811218261719 186.33596801757812 389.67889404296875 157.52139282226562 398.10064697265625 146.36195373535156 C 389.8992004394531 161.58367919921875 395.5213928222656 164.11572265625 399.74957275390625 101.86943054199219 C 403.9451599121094 96.26396179199219 403.5030822753906 113.59014129638672 399.9300231933594 148.58843994140625" stroke-width="0.0" fill="rgb(254, 194, 94)" opacity="0.9812527" stroke="rgb(236, 241, 248)" stroke-opacity="0.94716704" stroke-linecap="round" stroke-linejoin="round"/>
    <path d="M 275.356201171875 200.30963134765625 C 275.81085205078125 249.6520233154297 273.0520324707031 223.8351593017578 274.0675048828125 211.2601776123047 C 185.785400390625 209.34324645996094 206.21231079101562 210.21282958984375 169.52755737304688 206.65737915039062 C 207.6431427001953 204.94747924804688 232.0126953125 202.8218231201172 273.1922302246094 200.50819396972656 C 288.666015625 203.3263702392578 313.4014892578125 196.90103149414062 275.356201171875 200.30963134765625" stroke-width="0.0" fill="rgb(16, 0, 2)" opacity="0.9528034" stroke="rgb(203, 199, 104)" stroke-opacity="0.7254289" stroke-linecap="round" stroke-linejoin="round"/>
    <path d="M 88.91983032226562 337.01904296875 C 88.78962707519531 271.20074462890625 88.85623168945312 277.1334228515625 90.07913208007812 305.6133728027344 C 90.08104705810547 377.5751037597656 91.29336547851562 394.1448059082031 88.35480499267578 388.6396789550781 C 89.7547378540039 293.5779113769531 90.68241882324219 308.0882568359375 90.0308837890625 209.96194458007812 C 84.20529174804688 267.49951171875 92.4218978881836 280.9460754394531 88.91983032226562 337.01904296875" stroke-width="0.0" fill="rgb(7, 0, 0)" opacity="0.9442698" stroke="rgb(184, 177, 202)" stroke-opacity="0.528507" stroke-linecap="round" stroke-linejoin="round"/>
    <path d="M 88.7734375 293.70904541015625 C 86.50900268554688 297.7214660644531 84.59608459472656 300.29998779296875 91.27627563476562 290.7371826171875 C 82.58013153076172 307.8824157714844 96.37519073486328 249.01858520507812 82.39907836914062 165.00404357910156 C 81.19886016845703 381.2406921386719 81.78926849365234 412.6029357910156 88.98283386230469 330.8827819824219 C 87.42623901367188 296.724609375 88.65534973144531 296.9141540527344 88.7734375 293.70904541015625" stroke-width="0.0" fill="rgb(183, 94, 33)" opacity="0.85918295" stroke="rgb(89, 195, 233)" stroke-opacity="0.90514785" stroke-linecap="round" stroke-linejoin="round"/>
  </g>
</svg>
