<?xml version="1.0" ?>
<svg xmlns="http://www.w3.org/2000/svg" version="1.1" width="512" height="512">
  <defs/>
  <g>
    <path d="M 379.6753845214844 204.14491271972656 C 373.12078857421875 399.1456604003906 259.4179992675781 252.8159942626953 268.72930908203125 371.2831115722656 C 254.8512420654297 410.56683349609375 275.4302673339844 286.8996887207031 263.2496643066406 301.8404235839844 C 214.9752197265625 310.0072021484375 294.5320129394531 314.0672607421875 268.38995361328125 269.1017761230469 C 116.80912780761719 225.93255615234375 314.50042724609375 279.4301452636719 379.6753845214844 204.14491271972656" stroke-width="0.0" fill="rgb(77, 27, 2)" opacity="0.6985183" stroke="rgb(211, 238, 65)" stroke-opacity="0.3252536" stroke-linecap="round" stroke-linejoin="round"/>
    <path d="M 295.70989990234375 194.03443908691406 C 272.7558898925781 323.6597900390625 248.26309204101562 253.82920837402344 273.8983154296875 238.2390899658203 C 129.46969604492188 244.46197509765625 173.28883361816406 260.2096252441406 121.45211791992188 164.427978515625 C 104.3716812133789 164.7820587158203 107.3901138305664 164.0119171142578 173.95578002929688 159.4502716064453 C 199.57237243652344 152.95193481445312 234.3028564453125 186.87339782714844 295.70989990234375 194.03443908691406" stroke-width="0.0" fill="rgb(110, 32, 0)" opacity="0.708283" stroke="rgb(116, 62, 228)" stroke-opacity="0.99083775" stroke-linecap="round" stroke-linejoin="round"/>
    <path d="M 202.25254821777344 254.74671936035156 C 142.5433807373047 303.4190673828125 193.2349090576172 243.46890258789062 172.0607147216797 241.68370056152344 C 24.163734436035156 207.2664794921875 118.74833679199219 180.69967651367188 80.11492919921875 438.78375244140625 C 78.6634750366211 83.06031799316406 84.39945220947266 213.84429931640625 68.40956115722656 167.64193725585938 C 178.1909637451172 157.0104522705078 198.5582733154297 160.10775756835938 202.25254821777344 254.74671936035156" stroke-width="0.0" fill="rgb(145, 74, 29)" opacity="1.0" stroke="rgb(160, 8, 172)" stroke-opacity="0.88494027" stroke-linecap="round" stroke-linejoin="round"/>
    <path d="M 343.5931701660156 206.02891540527344 C 340.248291015625 247.04615783691406 331.74481201171875 263.1663818359375 282.03717041015625 256.0031433105469 C 284.714599609375 179.50140380859375 274.6598205566406 206.2866973876953 303.8100891113281 197.15982055664062 C 261.7131652832031 184.5043487548828 286.3478088378906 204.35220336914062 284.2345275878906 157.23851013183594 C 317.75946044921875 149.6118621826172 321.50372314453125 155.00477600097656 343.5931701660156 206.02891540527344" stroke-width="0.0" fill="rgb(249, 250, 251)" opacity="1.0" stroke="rgb(168, 8, 27)" stroke-opacity="0.433246" stroke-linecap="round" stroke-linejoin="round"/>
    <path d="M 435.5675964355469 107.35200500488281 C 437.9093322753906 188.65162658691406 382.48773193359375 199.89749145507812 380.29315185546875 319.06231689453125 C 323.20458984375 229.00985717773438 361.698974609375 248.3933563232422 380.4548034667969 225.988037109375 C 322.6279602050781 268.68145751953125 352.9384765625 245.42141723632812 354.0584716796875 99.91322326660156 C 437.6153564453125 85.10969543457031 451.3320617675781 108.95307922363281 435.5675964355469 107.35200500488281" stroke-width="0.0" fill="rgb(160, 85, 32)" opacity="1.0" stroke="rgb(140, 33, 220)" stroke-opacity="0.37270248" stroke-linecap="round" stroke-linejoin="round"/>
    <path d="M 357.5654602050781 256.4801330566406 C 361.9449768066406 291.1513671875 312.5833435058594 281.02020263671875 294.7395324707031 294.45965576171875 C 277.5029602050781 290.8719787597656 281.807373046875 317.1876220703125 281.02435302734375 244.8626251220703 C 308.974365234375 238.02615356445312 300.7222900390625 269.98162841796875 328.8322448730469 232.97012329101562 C 341.88482666015625 240.3668670654297 333.74200439453125 197.04127502441406 357.5654602050781 256.4801330566406" stroke-width="0.0" fill="rgb(20, 3, 4)" opacity="0.98973787" stroke="rgb(205, 43, 140)" stroke-opacity="0.24633516" stroke-linecap="round" stroke-linejoin="round"/>
    <path d="M 431.9660949707031 186.06729125976562 C 426.57379150390625 208.09889221191406 415.2567138671875 240.57809448242188 396.90557861328125 269.6908874511719 C 368.5179443359375 277.8097839355469 395.7541809082031 248.411865234375 410.4913330078125 193.86410522460938 C 420.9501037597656 196.2947998046875 419.1671447753906 127.08849334716797 441.0888977050781 104.23381042480469 C 442.3240051269531 130.1358642578125 438.2345886230469 161.9884490966797 431.9660949707031 186.06729125976562" stroke-width="0.0" fill="rgb(132, 67, 27)" opacity="1.0" stroke="rgb(22, 150, 163)" stroke-opacity="0.20128565" stroke-linecap="round" stroke-linejoin="round"/>
    <path d="M 316.8547058105469 109.42728424072266 C 306.3161926269531 188.8490753173828 320.4297180175781 125.76239013671875 290.3710632324219 145.2064666748047 C 313.171142578125 100.81792449951172 238.64443969726562 105.1230239868164 246.66583251953125 125.3410873413086 C 212.63726806640625 51.61235809326172 267.9328918457031 106.2981185913086 261.32452392578125 77.64840698242188 C 323.41986083984375 75.885986328125 305.12078857421875 104.90972137451172 316.8547058105469 109.42728424072266" stroke-width="0.0" fill="rgb(18, 2, 6)" opacity="0.89956194" stroke="rgb(135, 28, 40)" stroke-opacity="0.8264136" stroke-linecap="round" stroke-linejoin="round"/>
    <path d="M 247.05909729003906 404.2209167480469 C 241.89634704589844 390.7450256347656 258.52398681640625 408.3484802246094 205.78038024902344 405.6905822753906 C 202.0059051513672 421.5781555175781 228.37875366210938 391.6958923339844 192.00901794433594 384.5571594238281 C 229.78945922851562 393.50421142578125 190.3244171142578 364.40228271484375 231.334716796875 383.1741943359375 C 230.3719024658203 368.9832458496094 249.3034210205078 381.1166687011719 247.05909729003906 404.2209167480469" stroke-width="0.0" fill="rgb(26, 10, 11)" opacity="0.99245656" stroke="rgb(246, 198, 79)" stroke-opacity="0.95243984" stroke-linecap="round" stroke-linejoin="round"/>
    <path d="M 279.05450439453125 372.5913391113281 C 279.4179992675781 366.472900390625 281.6890563964844 369.5792541503906 282.2420654296875 417.54217529296875 C 270.3965148925781 413.171142578125 274.8557434082031 436.28338623046875 273.7955322265625 351.86126708984375 C 276.24066162109375 253.6905517578125 259.097412109375 245.7770538330078 275.32928466796875 234.3961944580078 C 274.635009765625 372.7083435058594 276.5385437011719 373.9132385253906 279.05450439453125 372.5913391113281" stroke-width="0.0" fill="rgb(16, 0, 1)" opacity="0.9477133" stroke="rgb(54, 243, 100)" stroke-opacity="0.8665269" stroke-linecap="round" stroke-linejoin="round"/>
    <path d="M 282.40020751953125 325.38079833984375 C 282.5501403808594 392.1277160644531 282.1690979003906 409.1205139160156 282.65093994140625 415.8488464355469 C 272.68084716796875 413.53369140625 276.02410888671875 425.6897888183594 275.3577880859375 385.1084289550781 C 275.5882873535156 349.9472961425781 274.96343994140625 341.884765625 276.0785217285156 279.8758544921875 C 282.73681640625 302.4475402832031 281.7743835449219 347.97406005859375 282.40020751953125 325.38079833984375" stroke-width="0.0" fill="rgb(178, 92, 34)" opacity="0.99844307" stroke="rgb(180, 191, 39)" stroke-opacity="0.6730508" stroke-linecap="round" stroke-linejoin="round"/>
    <path d="M 400.6420593261719 143.48170471191406 C 396.12054443359375 180.52169799804688 386.7547912597656 218.8869171142578 366.174560546875 255.49021911621094 C 393.03729248046875 191.64340209960938 390.9222717285156 156.1996612548828 397.2121276855469 146.9525146484375 C 389.7873840332031 162.68714904785156 395.6053466796875 164.6969757080078 399.7831726074219 100.66970825195312 C 403.11566162109375 92.78727722167969 404.0012512207031 107.58531188964844 400.6420593261719 143.48170471191406" stroke-width="0.0" fill="rgb(254, 195, 95)" opacity="0.9790839" stroke="rgb(236, 241, 248)" stroke-opacity="0.94716704" stroke-linecap="round" stroke-linejoin="round"/>
    <path d="M 275.2850646972656 200.46673583984375 C 275.63458251953125 269.7618408203125 273.34051513671875 237.05210876464844 274.1253356933594 211.25511169433594 C 140.99916076660156 208.50946044921875 217.62356567382812 209.74911499023438 168.29586791992188 206.75027465820312 C 204.03775024414062 205.03517150878906 231.04664611816406 202.99984741210938 272.093994140625 200.66612243652344 C 293.60302734375 203.3105010986328 310.38336181640625 196.69944763183594 275.2850646972656 200.46673583984375" stroke-width="0.0" fill="rgb(15, 0, 2)" opacity="0.95210147" stroke="rgb(203, 199, 104)" stroke-opacity="0.7254289" stroke-linecap="round" stroke-linejoin="round"/>
    <path d="M 88.99449157714844 350.6964111328125 C 88.74481964111328 251.68975830078125 88.62947845458984 261.3761901855469 90.21855926513672 317.6210632324219 C 90.12092590332031 406.26190185546875 90.99873352050781 387.325927734375 88.32537078857422 389.1106262207031 C 90.13424682617188 293.2071228027344 90.46958923339844 323.18267822265625 90.1431884765625 213.1508331298828 C 84.03265380859375 243.12818908691406 92.37692260742188 272.51629638671875 88.99449157714844 350.6964111328125" stroke-width="0.0" fill="rgb(7, 0, 0)" opacity="0.9381999" stroke="rgb(184, 177, 202)" stroke-opacity="0.528507" stroke-linecap="round" stroke-linejoin="round"/>
    <path d="M 87.88652801513672 292.94171142578125 C 88.30990600585938 294.9320373535156 90.0797119140625 303.2502136230469 91.02213287353516 295.9434814453125 C 84.3074951171875 319.1953125 95.07508087158203 189.24127197265625 81.93201446533203 167.5919189453125 C 82.40156555175781 430.9013977050781 79.91938018798828 463.909423828125 88.95435333251953 378.99139404296875 C 87.02152252197266 297.82073974609375 89.72801208496094 294.8704833984375 87.88652801513672 292.94171142578125" stroke-width="0.0" fill="rgb(177, 91, 33)" opacity="0.9539881" stroke="rgb(89, 195, 233)" stroke-opacity="0.90514785" stroke-linecap="round" stroke-linejoin="round"/>
    <path d="M 269.0193176269531 241.95843505859375 C 279.43914794921875 271.2110900878906 237.1381072998047 261.2306823730469 223.2039337158203 272.8794860839844 C 216.86221313476562 332.7994079589844 208.96214294433594 274.0702819824219 229.53652954101562 265.9534912109375 C 189.28814697265625 252.2587127685547 150.73660278320312 259.35833740234375 224.94139099121094 248.8230438232422 C 274.93267822265625 246.5336151123047 278.99267578125 250.50587463378906 269.0193176269531 241.95843505859375" stroke-width="0.0" fill="rgb(9, 0, 4)" opacity="0.90817875" stroke="rgb(230, 83, 115)" stroke-opacity="0.8355173" stroke-linecap="round" stroke-linejoin="round"/>
    <path d="M 189.68231201171875 360.779052734375 C 201.84930419921875 245.8182830810547 225.59219360351562 316.58294677734375 181.54200744628906 365.5884704589844 C 176.0110626220703 377.1369323730469 177.2119140625 353.850830078125 176.91262817382812 335.2560119628906 C 179.89007568359375 291.46673583984375 171.50527954101562 291.68438720703125 190.45362854003906 296.0414733886719 C 188.20950317382812 301.4572448730469 186.58316040039062 368.4014587402344 189.68231201171875 360.779052734375" stroke-width="0.0" fill="rgb(9, 0, 4)" opacity="0.868017" stroke="rgb(164, 222, 157)" stroke-opacity="0.93028903" stroke-linecap="round" stroke-linejoin="round"/>
    <path d="M 338.94427490234375 305.9924621582031 C 341.4230651855469 307.5538024902344 339.93695068359375 306.8710021972656 311.7210998535156 312.1122131347656 C 308.7093811035156 311.6705627441406 308.7139892578125 316.02685546875 309.81671142578125 303.13983154296875 C 308.57855224609375 304.00115966796875 325.4446716308594 301.6477966308594 326.8919677734375 301.4058837890625 C 339.74395751953125 299.9666748046875 336.0337219238281 297.7217102050781 338.94427490234375 305.9924621582031" stroke-width="0.0" fill="rgb(254, 196, 96)" opacity="0.9769986" stroke="rgb(127, 83, 241)" stroke-opacity="0.83669835" stroke-linecap="round" stroke-linejoin="round"/>
    <path d="M 274.6867370605469 259.6771545410156 C 268.51043701171875 290.2541809082031 275.163330078125 278.6728210449219 266.8165588378906 270.8272705078125 C 255.18421936035156 260.543701171875 240.5792236328125 267.6065368652344 225.2486114501953 267.248779296875 C 238.93338012695312 244.1351776123047 248.49624633789062 249.27249145507812 262.94940185546875 249.2308349609375 C 271.9765319824219 244.7857666015625 268.54425048828125 227.48684692382812 274.6867370605469 259.6771545410156" stroke-width="0.0" fill="rgb(21, 3, 4)" opacity="0.9818502" stroke="rgb(64, 165, 176)" stroke-opacity="0.40189487" stroke-linecap="round" stroke-linejoin="round"/>
    <path d="M 144.01852416992188 420.5053405761719 C 214.258544921875 401.5152893066406 182.4178924560547 418.40679931640625 155.91592407226562 414.5635070800781 C 172.39576721191406 418.5002136230469 164.17745971679688 370.7577819824219 141.85342407226562 405.6151123046875 C 136.01698303222656 437.1931457519531 111.91844177246094 386.8126525878906 169.6620330810547 387.5045166015625 C 177.5532684326172 355.787841796875 224.83056640625 393.34375 144.01852416992188 420.5053405761719" stroke-width="0.0" fill="rgb(21, 10, 13)" opacity="0.97913116" stroke="rgb(42, 168, 199)" stroke-opacity="0.024389168" stroke-linecap="round" stroke-linejoin="round"/>
    <path d="M 380.08837890625 127.02824401855469 C 379.75274658203125 156.23609924316406 370.1338806152344 215.0734405517578 354.96612548828125 250.20864868164062 C 378.9724426269531 183.78982543945312 371.8864440917969 123.2547378540039 376.0496520996094 99.49722290039062 C 372.717529296875 126.3604507446289 374.5404052734375 128.40567016601562 374.35821533203125 101.9595718383789 C 378.3042907714844 101.22760009765625 380.3454284667969 92.5678939819336 380.08837890625 127.02824401855469" stroke-width="0.0" fill="rgb(252, 193, 94)" opacity="0.986482" stroke="rgb(198, 188, 54)" stroke-opacity="0.25263086" stroke-linecap="round" stroke-linejoin="round"/>
    <path d="M 203.3814239501953 409.4888916015625 C 163.90316772460938 406.98577880859375 217.11749267578125 416.9638977050781 176.87118530273438 411.3557434082031 C 184.5757598876953 407.4586181640625 99.10543823242188 428.26971435546875 163.24368286132812 401.5080261230469 C 176.02796936035156 382.5679931640625 165.62657165527344 365.64398193359375 186.61122131347656 385.4724426269531 C 203.41810607910156 400.8686828613281 200.96408081054688 343.8414306640625 203.3814239501953 409.4888916015625" stroke-width="0.0" fill="rgb(19, 5, 7)" opacity="0.9735492" stroke="rgb(233, 156, 246)" stroke-opacity="0.022769975" stroke-linecap="round" stroke-linejoin="round"/>
    <path d="M 280.8416748046875 384.0709228515625 C 281.1373291015625 362.4564514160156 280.8198547363281 363.82489013671875 281.0028991699219 337.92974853515625 C 280.26251220703125 270.76446533203125 283.87225341796875 269.6341247558594 281.9517822265625 348.00152587890625 C 283.2588195800781 432.0818176269531 280.3555603027344 432.17279052734375 281.0185241699219 388.03955078125 C 281.1396484375 372.8214416503906 280.5918884277344 373.7942199707031 280.8416748046875 384.0709228515625" stroke-width="0.0" fill="rgb(16, 0, 1)" opacity="0.9710256" stroke="rgb(17, 88, 0)" stroke-opacity="0.8415175" stroke-linecap="round" stroke-linejoin="round"/>
    <path d="M 227.34730529785156 257.7507629394531 C 236.8800811767578 272.4540710449219 233.0811309814453 263.23016357421875 222.1298828125 271.8248291015625 C 217.44554138183594 299.8083190917969 220.7100830078125 286.50079345703125 206.6388397216797 255.511962890625 C 207.59814453125 255.60496520996094 217.14834594726562 249.62762451171875 209.7483367919922 252.9862518310547 C 219.8461151123047 250.14019775390625 220.12892150878906 249.93894958496094 227.34730529785156 257.7507629394531" stroke-width="0.0" fill="rgb(254, 197, 179)" opacity="0.98927903" stroke="rgb(195, 162, 70)" stroke-opacity="0.95032656" stroke-linecap="round" stroke-linejoin="round"/>
    <path d="M 211.75918579101562 252.00477600097656 C 223.54849243164062 291.89697265625 225.98452758789062 281.3663024902344 198.7375030517578 335.16265869140625 C 176.39093017578125 306.5418395996094 194.1571502685547 274.59613037109375 185.71852111816406 260.12530517578125 C 187.89529418945312 256.7723083496094 189.95628356933594 256.3287353515625 191.7797393798828 256.8749084472656 C 186.19107055664062 257.18914794921875 206.59840393066406 252.95697021484375 211.75918579101562 252.00477600097656" stroke-width="0.0" fill="rgb(240, 185, 163)" opacity="1.0" stroke="rgb(37, 144, 182)" stroke-opacity="0.2758803" stroke-linecap="round" stroke-linejoin="round"/>
    <path d="M 187.87059020996094 239.1298828125 C 175.45240783691406 275.95562744140625 193.97557067871094 273.85064697265625 184.37545776367188 299.7449035644531 C 176.2410430908203 276.2197265625 174.59385681152344 286.250244140625 183.09423828125 321.5118103027344 C 191.2251434326172 290.4777526855469 188.37037658691406 255.4895782470703 172.3015899658203 272.90802001953125 C 186.3128662109375 311.7952880859375 188.9303436279297 302.545166015625 187.87059020996094 239.1298828125" stroke-width="0.0" fill="rgb(19, 6, 9)" opacity="0.99260604" stroke="rgb(106, 106, 144)" stroke-opacity="0.6414229" stroke-linecap="round" stroke-linejoin="round"/>
    <path d="M 280.6856689453125 200.97560119628906 C 281.033935546875 239.02764892578125 280.47314453125 269.9791259765625 281.0099792480469 320.1649475097656 C 272.3517761230469 292.2134704589844 277.4249267578125 254.8741912841797 275.8777160644531 270.9267272949219 C 275.4593811035156 262.24676513671875 275.4519348144531 261.9892272949219 275.9483642578125 202.6491241455078 C 285.1688232421875 195.8291473388672 270.91644287109375 231.20648193359375 280.6856689453125 200.97560119628906" stroke-width="0.0" fill="rgb(179, 93, 33)" opacity="0.9763343" stroke="rgb(118, 141, 41)" stroke-opacity="0.9745898" stroke-linecap="round" stroke-linejoin="round"/>
    <path d="M 247.39158630371094 92.4968032836914 C 248.1698760986328 94.90357208251953 240.6905975341797 95.89986419677734 232.82373046875 96.77143096923828 C 242.4111328125 93.40986633300781 229.9009552001953 98.62539672851562 231.07850646972656 91.35964965820312 C 226.39097595214844 89.90209197998047 237.37628173828125 83.08433532714844 243.92462158203125 84.0215072631836 C 240.75088500976562 83.94074249267578 244.5499725341797 92.42542266845703 247.39158630371094 92.4968032836914" stroke-width="0.0" fill="rgb(255, 194, 94)" opacity="0.98396593" stroke="rgb(163, 245, 227)" stroke-opacity="0.4616609" stroke-linecap="round" stroke-linejoin="round"/>
    <path d="M 187.8587188720703 362.89080810546875 C 187.51763916015625 395.38372802734375 184.4618377685547 410.7254333496094 178.4685821533203 397.0460510253906 C 178.60296630859375 353.9362487792969 178.2296142578125 339.6644287109375 178.89120483398438 384.4344177246094 C 177.3298797607422 289.7429504394531 181.0101776123047 290.0428771972656 173.73936462402344 274.1507263183594 C 194.46556091308594 97.68801879882812 182.78221130371094 317.29217529296875 187.8587188720703 362.89080810546875" stroke-width="0.0" fill="rgb(177, 94, 39)" opacity="1.0" stroke="rgb(9, 43, 215)" stroke-opacity="0.5539185" stroke-linecap="round" stroke-linejoin="round"/>
    <path d="M 175.21640014648438 406.3936767578125 C 182.20130920410156 369.81048583984375 175.363037109375 344.9588928222656 178.21405029296875 348.9677429199219 C 179.57386779785156 344.05487060546875 174.89877319335938 341.5296325683594 178.53158569335938 347.7533264160156 C 175.40907287597656 363.95343017578125 180.24554443359375 308.3800354003906 177.83740234375 223.75111389160156 C 175.62127685546875 295.8323974609375 178.7091827392578 386.82830810546875 175.21640014648438 406.3936767578125" stroke-width="0.0" fill="rgb(20, 6, 8)" opacity="0.941332" stroke="rgb(191, 59, 235)" stroke-opacity="0.6044334" stroke-linecap="round" stroke-linejoin="round"/>
    <path d="M 188.1687774658203 436.73138427734375 C 186.63714599609375 436.828369140625 173.5186309814453 436.80682373046875 177.219970703125 437.00750732421875 C 177.15899658203125 436.7479248046875 176.5707550048828 437.2776794433594 176.99415588378906 436.7037353515625 C 176.60682678222656 401.8453063964844 178.32374572753906 387.5385437011719 181.96530151367188 399.09423828125 C 179.3690948486328 388.7527770996094 188.48236083984375 380.18878173828125 188.1687774658203 436.73138427734375" stroke-width="0.0" fill="rgb(156, 80, 30)" opacity="1.0" stroke="rgb(69, 217, 67)" stroke-opacity="0.4715618" stroke-linecap="round" stroke-linejoin="round"/>
    <path d="M 165.34727478027344 404.7400817871094 C 165.37005615234375 412.99310302734375 168.1842041015625 409.9170837402344 153.22364807128906 413.2005310058594 C 140.154541015625 415.9394836425781 132.32859802246094 411.1530456542969 133.57913208007812 408.3845520019531 C 133.16424560546875 397.7643737792969 146.18759155273438 393.0825500488281 148.04933166503906 392.0218505859375 C 157.47967529296875 389.76983642578125 164.0232696533203 394.77294921875 165.34727478027344 404.7400817871094" stroke-width="0.0" fill="rgb(254, 254, 254)" opacity="0.99127847" stroke="rgb(212, 185, 211)" stroke-opacity="0.24439207" stroke-linecap="round" stroke-linejoin="round"/>
    <path d="M 268.86077880859375 340.136474609375 C 265.6986389160156 334.1841125488281 265.4986572265625 337.0482177734375 271.8170166015625 334.5970153808594 C 269.62091064453125 379.0857238769531 265.7624816894531 388.50714111328125 264.79833984375 351.2513732910156 C 266.72802734375 316.7359619140625 267.0362548828125 309.3739318847656 268.75311279296875 325.128662109375 C 266.1980895996094 345.8423156738281 266.925537109375 348.3442077636719 268.86077880859375 340.136474609375" stroke-width="0.0" fill="rgb(30, 11, 15)" opacity="0.57592237" stroke="rgb(64, 4, 184)" stroke-opacity="0.42119563" stroke-linecap="round" stroke-linejoin="round"/>
    <path d="M 250.38217163085938 147.28036499023438 C 326.9881591796875 170.03439331054688 277.4874267578125 152.62149047851562 204.17665100097656 142.60899353027344 C 256.8055114746094 164.21585083007812 233.67178344726562 123.5165786743164 236.88833618164062 146.19422912597656 C 206.63697814941406 121.94518280029297 220.53366088867188 143.2454071044922 247.7716064453125 133.79066467285156 C 243.4644775390625 86.29340362548828 247.2267303466797 100.30964660644531 250.38217163085938 147.28036499023438" stroke-width="0.0" fill="rgb(24, 9, 14)" opacity="0.96070474" stroke="rgb(4, 66, 22)" stroke-opacity="0.5313399" stroke-linecap="round" stroke-linejoin="round"/>
    <path d="M 269.4988098144531 362.1723937988281 C 264.5066833496094 330.55810546875 269.280029296875 343.93988037109375 268.937255859375 368.1423645019531 C 264.91424560546875 353.2513427734375 263.8937072753906 327.4033508300781 268.0467224121094 342.1780700683594 C 267.2400817871094 347.52923583984375 264.71575927734375 329.9757385253906 267.984130859375 300.12237548828125 C 275.2915954589844 296.87127685546875 271.2816467285156 344.0329284667969 269.4988098144531 362.1723937988281" stroke-width="0.0" fill="rgb(8, 0, 0)" opacity="0.91012925" stroke="rgb(164, 224, 15)" stroke-opacity="0.81634575" stroke-linecap="round" stroke-linejoin="round"/>
    <path d="M 81.39459991455078 172.52444458007812 C 75.94717407226562 227.03384399414062 87.08811950683594 268.15740966796875 76.43338775634766 279.6260681152344 C 81.1446304321289 275.1336975097656 80.60235595703125 264.7859191894531 81.41621398925781 266.7293395996094 C 80.97857666015625 287.6980285644531 81.1142807006836 286.6416931152344 81.22054290771484 346.0954895019531 C 81.70740509033203 443.8953857421875 77.84062957763672 397.7225341796875 81.39459991455078 172.52444458007812" stroke-width="0.0" fill="rgb(4, 0, 4)" opacity="0.9303771" stroke="rgb(29, 139, 148)" stroke-opacity="0.45503896" stroke-linecap="round" stroke-linejoin="round"/>
    <path d="M 93.02926635742188 428.2268371582031 C 92.0558853149414 433.0842590332031 93.9297866821289 424.192626953125 80.0796890258789 439.556884765625 C 79.3917007446289 417.2177429199219 82.23099517822266 417.19183349609375 74.06555938720703 405.9660949707031 C 70.65504455566406 397.9693298339844 64.30400848388672 386.67706298828125 89.25003051757812 389.41656494140625 C 93.30216979980469 382.15576171875 88.55414581298828 418.2158508300781 93.02926635742188 428.2268371582031" stroke-width="0.0" fill="rgb(255, 196, 92)" opacity="0.89797556" stroke="rgb(184, 65, 102)" stroke-opacity="0.06330946" stroke-linecap="round" stroke-linejoin="round"/>
    <path d="M 300.54290771484375 305.2922668457031 C 297.85986328125 311.4185485839844 293.7841491699219 315.20135498046875 288.2138366699219 316.206787109375 C 281.1789245605469 315.9365234375 284.63848876953125 313.83892822265625 286.8168640136719 312.4940490722656 C 286.5176086425781 305.38482666015625 285.9398498535156 306.3738098144531 284.37994384765625 301.8805847167969 C 293.3929443359375 304.8000183105469 298.72296142578125 305.46856689453125 300.54290771484375 305.2922668457031" stroke-width="0.0" fill="rgb(241, 200, 108)" opacity="0.9893286" stroke="rgb(159, 188, 145)" stroke-opacity="0.734824" stroke-linecap="round" stroke-linejoin="round"/>
    <path d="M 359.9615783691406 169.39495849609375 C 361.19378662109375 137.31080627441406 356.1103515625 233.54580688476562 348.2514953613281 237.58984375 C 356.3668518066406 177.31735229492188 356.6319885253906 160.6890106201172 356.2021484375 161.34458923339844 C 356.0550537109375 169.83523559570312 357.2739562988281 158.867431640625 358.8656311035156 110.60369110107422 C 368.123291015625 83.23951721191406 360.1172790527344 142.47023010253906 359.9615783691406 169.39495849609375" stroke-width="0.0" fill="rgb(255, 198, 97)" opacity="0.96183467" stroke="rgb(78, 198, 180)" stroke-opacity="0.77091336" stroke-linecap="round" stroke-linejoin="round"/>
    <path d="M 274.03363037109375 277.36114501953125 C 271.41571044921875 331.4787292480469 274.9962463378906 330.5885314941406 270.4438781738281 317.0300598144531 C 268.7250671386719 309.7694091796875 268.9024658203125 307.37274169921875 271.0582275390625 317.46270751953125 C 271.2447204589844 322.8550109863281 270.7872314453125 320.4492492675781 267.2886962890625 309.5315856933594 C 273.5115661621094 290.2494812011719 271.879638671875 274.6336364746094 274.03363037109375 277.36114501953125" stroke-width="0.0" fill="rgb(18, 1, 3)" opacity="0.95256525" stroke="rgb(172, 222, 160)" stroke-opacity="0.60181624" stroke-linecap="round" stroke-linejoin="round"/>
    <path d="M 363.1066589355469 287.16900634765625 C 357.5869445800781 304.24945068359375 348.496826171875 305.2893981933594 344.2439880371094 318.1981201171875 C 347.4009094238281 312.07183837890625 345.15924072265625 309.2709655761719 342.7023010253906 297.3067321777344 C 341.75689697265625 299.3177185058594 345.7182312011719 298.11279296875 360.3351135253906 294.4332580566406 C 368.334228515625 287.52276611328125 359.86761474609375 300.9447326660156 363.1066589355469 287.16900634765625" stroke-width="0.0" fill="rgb(252, 192, 94)" opacity="1.0" stroke="rgb(92, 154, 122)" stroke-opacity="0.8243372" stroke-linecap="round" stroke-linejoin="round"/>
    <path d="M 328.6216125488281 309.3679504394531 C 345.96380615234375 313.07427978515625 327.86474609375 313.98590087890625 307.6375427246094 318.32159423828125 C 307.4411315917969 295.2265625 310.9640197753906 298.2000732421875 308.8941650390625 312.29345703125 C 307.980712890625 312.1624450683594 312.6300964355469 312.13409423828125 305.64373779296875 314.2484436035156 C 305.34417724609375 314.86102294921875 305.3945617675781 312.3536376953125 328.6216125488281 309.3679504394531" stroke-width="0.0" fill="rgb(7, 0, 3)" opacity="0.91276556" stroke="rgb(210, 26, 179)" stroke-opacity="0.6291095" stroke-linecap="round" stroke-linejoin="round"/>
    <path d="M 270.0132141113281 338.2123718261719 C 268.5248107910156 362.8512268066406 263.6780700683594 367.8576965332031 268.480224609375 351.833740234375 C 270.4967346191406 336.6772766113281 269.66156005859375 334.3042907714844 268.95770263671875 350.3287353515625 C 270.2549133300781 348.71331787109375 271.2816162109375 346.00335693359375 266.3143615722656 351.10870361328125 C 264.3027038574219 329.7755432128906 268.2587890625 308.0776672363281 270.0132141113281 338.2123718261719" stroke-width="0.0" fill="rgb(18, 2, 2)" opacity="0.90476847" stroke="rgb(108, 92, 141)" stroke-opacity="0.033083294" stroke-linecap="round" stroke-linejoin="round"/>
    <path d="M 300.3314514160156 305.9129638671875 C 302.0450744628906 315.9739074707031 300.035400390625 319.8325500488281 290.6764831542969 316.54345703125 C 279.5817565917969 314.798828125 282.68450927734375 324.2415466308594 282.0959167480469 301.4061584472656 C 283.2582702636719 300.33135986328125 279.8741149902344 301.0303649902344 291.0872497558594 303.5851745605469 C 287.6347351074219 306.037109375 295.218505859375 308.66015625 300.3314514160156 305.9129638671875" stroke-width="0.0" fill="rgb(231, 195, 131)" opacity="0.650436" stroke="rgb(210, 225, 19)" stroke-opacity="0.8538586" stroke-linecap="round" stroke-linejoin="round"/>
    <path d="M 301.0121154785156 328.8935241699219 C 311.60687255859375 304.71826171875 303.29107666015625 308.1531982421875 306.37115478515625 317.3370666503906 C 293.6361389160156 320.59014892578125 284.2124328613281 323.72320556640625 285.57647705078125 302.5036926269531 C 289.8887939453125 305.6060485839844 292.60748291015625 304.5001220703125 301.6564025878906 304.0360107421875 C 302.20379638671875 302.8271789550781 300.36602783203125 313.37738037109375 301.0121154785156 328.8935241699219" stroke-width="0.0" fill="rgb(251, 194, 98)" opacity="0.94620264" stroke="rgb(80, 132, 117)" stroke-opacity="0.43867365" stroke-linecap="round" stroke-linejoin="round"/>
    <path d="M 270.0576171875 359.4411315917969 C 269.34381103515625 378.5118713378906 266.34515380859375 390.3260803222656 264.7587585449219 361.3999938964844 C 267.4860534667969 354.1717224121094 268.2503662109375 351.852783203125 265.4836120605469 359.4640197753906 C 268.0038146972656 368.1663513183594 269.4327392578125 365.24249267578125 264.5234069824219 355.7372741699219 C 267.5199890136719 334.2666931152344 271.64117431640625 332.8272399902344 270.0576171875 359.4411315917969" stroke-width="0.0" fill="rgb(20, 2, 3)" opacity="0.7676292" stroke="rgb(19, 33, 168)" stroke-opacity="0.97112423" stroke-linecap="round" stroke-linejoin="round"/>
    <path d="M 233.90882873535156 165.1132354736328 C 197.650634765625 162.87501525878906 200.51625061035156 167.3578338623047 193.03623962402344 165.63748168945312 C 198.17532348632812 165.89195251464844 189.7564239501953 165.84393310546875 186.51271057128906 158.52847290039062 C 182.0872039794922 159.93887329101562 184.031982421875 138.51475524902344 198.41200256347656 141.6778106689453 C 231.24595642089844 153.70144653320312 286.55780029296875 142.4268035888672 233.90882873535156 165.1132354736328" stroke-width="0.0" fill="rgb(238, 184, 167)" opacity="1.0" stroke="rgb(23, 71, 132)" stroke-opacity="0.4561747" stroke-linecap="round" stroke-linejoin="round"/>
    <path d="M 265.68304443359375 345.3323669433594 C 263.3955993652344 359.8320617675781 270.7519836425781 357.3074951171875 268.8526611328125 378.9837951660156 C 258.5682067871094 379.6114501953125 265.76287841796875 376.1324462890625 262.9072570800781 378.9653625488281 C 264.2935791015625 375.0162048339844 264.1829528808594 353.96051025390625 266.2799987792969 349.12847900390625 C 270.0478210449219 369.4552917480469 269.947021484375 374.5635986328125 265.68304443359375 345.3323669433594" stroke-width="0.0" fill="rgb(12, 0, 2)" opacity="0.85072416" stroke="rgb(243, 227, 6)" stroke-opacity="0.26935494" stroke-linecap="round" stroke-linejoin="round"/>
    <path d="M 301.23394775390625 311.5243835449219 C 291.9096984863281 313.360595703125 287.6462707519531 315.875244140625 282.7804870605469 316.9866943359375 C 283.6188659667969 302.8017883300781 280.1560974121094 298.6470642089844 286.9350891113281 303.76190185546875 C 286.67962646484375 316.3826599121094 286.92333984375 311.64923095703125 287.07281494140625 305.14898681640625 C 289.2951965332031 303.10125732421875 293.14923095703125 303.9129638671875 301.23394775390625 311.5243835449219" stroke-width="0.0" fill="rgb(255, 193, 91)" opacity="0.9290432" stroke="rgb(84, 203, 216)" stroke-opacity="0.18137664" stroke-linecap="round" stroke-linejoin="round"/>
    <path d="M 178.9252471923828 435.935791015625 C 174.57469177246094 423.76544189453125 179.0675811767578 373.4857482910156 178.25836181640625 414.7698974609375 C 178.6078338623047 420.45159912109375 178.16598510742188 417.4898376464844 178.4446563720703 430.1657409667969 C 178.6057891845703 435.21929931640625 178.4557647705078 434.4508056640625 177.47621154785156 429.1155700683594 C 177.30145263671875 415.66619873046875 175.6896514892578 442.6602478027344 178.9252471923828 435.935791015625" stroke-width="0.0" fill="rgb(9, 0, 8)" opacity="0.8901" stroke="rgb(191, 40, 192)" stroke-opacity="0.6369896" stroke-linecap="round" stroke-linejoin="round"/>
    <path d="M 306.7647399902344 350.0321350097656 C 415.0941467285156 327.0730895996094 430.07354736328125 337.4751892089844 310.8542785644531 354.7123718261719 C 294.9334411621094 362.08123779296875 301.5389709472656 331.1192626953125 304.5838317871094 321.82891845703125 C 301.7125549316406 342.00592041015625 299.67364501953125 333.8321838378906 302.0780944824219 316.5115966796875 C 311.395263671875 315.20458984375 308.3736572265625 314.11993408203125 306.7647399902344 350.0321350097656" stroke-width="0.0" fill="rgb(116, 60, 26)" opacity="0.989928" stroke="rgb(120, 212, 37)" stroke-opacity="0.06736545" stroke-linecap="round" stroke-linejoin="round"/>
    <path d="M 415.88629150390625 101.11392211914062 C 393.7519226074219 104.18675994873047 440.3436279296875 96.81776428222656 435.72698974609375 113.22526550292969 C 448.40985107421875 94.86795043945312 375.4682922363281 98.39129638671875 358.6981506347656 106.64720153808594 C 358.7746276855469 99.85347747802734 402.772705078125 98.46300506591797 409.8265686035156 99.68668365478516 C 376.81689453125 101.42790222167969 374.6034240722656 100.64568328857422 415.88629150390625 101.11392211914062" stroke-width="0.0" fill="rgb(28, 6, 8)" opacity="0.9640698" stroke="rgb(205, 209, 154)" stroke-opacity="0.07044689" stroke-linecap="round" stroke-linejoin="round"/>
    <path d="M 305.8473815917969 359.97760009765625 C 303.48992919921875 388.8758850097656 305.1140441894531 392.0414733886719 298.2638854980469 394.5683288574219 C 297.7975769042969 378.1095275878906 297.5234069824219 366.4225158691406 300.2740478515625 356.3085632324219 C 299.7191467285156 375.4034729003906 298.88641357421875 367.7925720214844 301.1275634765625 340.0478820800781 C 310.4534912109375 343.9342346191406 305.6604309082031 346.2134094238281 305.8473815917969 359.97760009765625" stroke-width="0.0" fill="rgb(135, 69, 29)" opacity="0.99998814" stroke="rgb(197, 117, 7)" stroke-opacity="0.891328" stroke-linecap="round" stroke-linejoin="round"/>
    <path d="M 197.07879638671875 208.0425567626953 C 189.88743591308594 246.29502868652344 194.06027221679688 257.72821044921875 191.57254028320312 254.6807403564453 C 184.11949157714844 258.2993469238281 191.47650146484375 252.68751525878906 186.5077362060547 235.5399627685547 C 189.44691467285156 246.63412475585938 185.57235717773438 242.25531005859375 192.5452880859375 243.18258666992188 C 192.94178771972656 255.80743408203125 190.73890686035156 247.82090759277344 197.07879638671875 208.0425567626953" stroke-width="0.0" fill="rgb(249, 195, 100)" opacity="0.957717" stroke="rgb(46, 3, 229)" stroke-opacity="0.07161764" stroke-linecap="round" stroke-linejoin="round"/>
    <path d="M 302.31842041015625 303.6190185546875 C 300.3382873535156 397.28692626953125 295.8939208984375 402.1755065917969 301.1418762207031 319.185546875 C 269.49566650390625 326.8230285644531 281.39697265625 316.12396240234375 291.0764465332031 315.6783447265625 C 308.025634765625 313.07879638671875 301.6366882324219 314.2141418457031 302.7680969238281 319.0262451171875 C 301.389404296875 322.5472717285156 304.8147277832031 295.1427001953125 302.31842041015625 303.6190185546875" stroke-width="0.0" fill="rgb(14, 0, 2)" opacity="0.9633506" stroke="rgb(96, 158, 230)" stroke-opacity="0.68273747" stroke-linecap="round" stroke-linejoin="round"/>
    <path d="M 351.4727478027344 333.8572692871094 C 357.53350830078125 364.9411315917969 359.4823303222656 357.7453308105469 351.9532775878906 360.4463195800781 C 344.4466552734375 329.1497802734375 341.9753112792969 317.8853454589844 344.0527648925781 328.67437744140625 C 340.4322509765625 307.13232421875 332.48736572265625 295.3703918457031 343.44451904296875 297.39837646484375 C 343.8861389160156 300.8448486328125 348.53802490234375 321.29180908203125 351.4727478027344 333.8572692871094" stroke-width="0.0" fill="rgb(27, 8, 6)" opacity="1.0" stroke="rgb(48, 15, 163)" stroke-opacity="0.095731154" stroke-linecap="round" stroke-linejoin="round"/>
    <path d="M 303.11041259765625 398.38433837890625 C 300.85748291015625 424.2975769042969 303.9891052246094 415.682373046875 295.8399658203125 417.2190856933594 C 297.4378967285156 395.3495178222656 297.328857421875 386.941650390625 296.7418518066406 381.3326110839844 C 297.9358825683594 395.0406188964844 297.2779846191406 386.1352233886719 298.1918029785156 376.0764465332031 C 304.9132080078125 381.7066345214844 305.36590576171875 367.4954528808594 303.11041259765625 398.38433837890625" stroke-width="0.0" fill="rgb(104, 52, 23)" opacity="1.0" stroke="rgb(10, 143, 102)" stroke-opacity="0.15884548" stroke-linecap="round" stroke-linejoin="round"/>
    <path d="M 345.56219482421875 307.7705078125 C 348.46563720703125 314.9194641113281 316.20849609375 314.90399169921875 335.474609375 312.6961364746094 C 327.9232482910156 313.5870056152344 298.7406921386719 320.0318603515625 317.5446472167969 312.5312194824219 C 329.74078369140625 312.5968933105469 333.51519775390625 312.44415283203125 313.75433349609375 312.9466247558594 C 320.6145935058594 310.93701171875 334.9598388671875 306.9622802734375 345.56219482421875 307.7705078125" stroke-width="0.0" fill="rgb(18, 2, 3)" opacity="0.97140795" stroke="rgb(91, 116, 177)" stroke-opacity="0.6973761" stroke-linecap="round" stroke-linejoin="round"/>
  </g>
</svg>
