<?xml version="1.0" ?>
<svg xmlns="http://www.w3.org/2000/svg" version="1.1" width="512" height="512">
  <defs/>
  <g>
    <path d="M 379.0146179199219 204.287109375 C 371.9364013671875 401.0385437011719 261.49420166015625 255.13465881347656 270.538330078125 372.9734802246094 C 253.9090118408203 411.022216796875 274.5933532714844 287.15704345703125 263.25701904296875 301.8741760253906 C 215.6363067626953 309.8452453613281 292.7826843261719 314.69708251953125 267.5276794433594 268.9747619628906 C 116.53771209716797 225.97589111328125 314.4140930175781 279.6224365234375 379.0146179199219 204.287109375" stroke-width="0.0" fill="rgb(64, 18, 1)" opacity="0.746859" stroke="rgb(211, 238, 65)" stroke-opacity="0.3252536" stroke-linecap="round" stroke-linejoin="round"/>
    <path d="M 295.6339111328125 194.44842529296875 C 272.78546142578125 323.54296875 248.1728973388672 253.75616455078125 273.9363098144531 238.23414611816406 C 130.06105041503906 244.49139404296875 172.40684509277344 260.0955505371094 121.31249237060547 164.4573974609375 C 104.36686706542969 164.58619689941406 107.49864959716797 164.1637420654297 168.7801513671875 159.77996826171875 C 199.22265625 153.31488037109375 235.4373779296875 186.34030151367188 295.6339111328125 194.44842529296875" stroke-width="0.0" fill="rgb(111, 32, 0)" opacity="0.6979886" stroke="rgb(116, 62, 228)" stroke-opacity="0.99083775" stroke-linecap="round" stroke-linejoin="round"/>
    <path d="M 202.40675354003906 255.3126678466797 C 142.8549346923828 305.6591491699219 192.58901977539062 242.4988250732422 172.271728515625 241.81056213378906 C 24.992103576660156 207.43954467773438 118.41084289550781 180.39930725097656 80.17003631591797 439.30157470703125 C 78.38615417480469 85.28282928466797 84.70307922363281 212.96449279785156 68.4439697265625 167.65892028808594 C 178.68215942382812 156.74960327148438 197.05369567871094 160.67323303222656 202.40675354003906 255.3126678466797" stroke-width="0.0" fill="rgb(135, 70, 29)" opacity="1.0" stroke="rgb(160, 8, 172)" stroke-opacity="0.88494027" stroke-linecap="round" stroke-linejoin="round"/>
    <path d="M 343.56024169921875 205.93093872070312 C 340.1551818847656 247.16065979003906 332.17864990234375 263.193603515625 282.00152587890625 256.0133361816406 C 284.759033203125 179.50289916992188 274.6990051269531 206.3356475830078 303.7547302246094 197.1581268310547 C 261.6819152832031 184.44772338867188 286.3490905761719 204.49349975585938 284.2939758300781 157.36204528808594 C 317.97662353515625 149.20150756835938 321.788330078125 155.9823760986328 343.56024169921875 205.93093872070312" stroke-width="0.0" fill="rgb(249, 250, 250)" opacity="1.0" stroke="rgb(168, 8, 27)" stroke-opacity="0.433246" stroke-linecap="round" stroke-linejoin="round"/>
    <path d="M 435.4519348144531 109.08143615722656 C 437.8158264160156 189.59738159179688 382.94866943359375 199.03622436523438 380.28045654296875 318.01275634765625 C 314.53668212890625 233.9979705810547 364.118896484375 247.54086303710938 380.8406677246094 225.6573944091797 C 322.4781494140625 268.93560791015625 353.0797424316406 243.96453857421875 354.0052185058594 99.85856628417969 C 440.65380859375 85.00395202636719 450.72503662109375 109.32342529296875 435.4519348144531 109.08143615722656" stroke-width="0.0" fill="rgb(161, 88, 34)" opacity="1.0" stroke="rgb(140, 33, 220)" stroke-opacity="0.37270248" stroke-linecap="round" stroke-linejoin="round"/>
    <path d="M 357.574951171875 256.43426513671875 C 362.22735595703125 290.7303161621094 312.99468994140625 281.0830383300781 294.6429138183594 294.3169250488281 C 276.6070556640625 290.99945068359375 282.31103515625 317.79327392578125 280.91778564453125 244.878662109375 C 308.992431640625 237.99383544921875 300.69940185546875 270.0690612792969 328.861083984375 233.01150512695312 C 341.95355224609375 240.29774475097656 333.58990478515625 196.97593688964844 357.574951171875 256.43426513671875" stroke-width="0.0" fill="rgb(20, 3, 3)" opacity="0.9896176" stroke="rgb(205, 43, 140)" stroke-opacity="0.24633516" stroke-linecap="round" stroke-linejoin="round"/>
    <path d="M 431.9881896972656 186.09938049316406 C 426.5491027832031 208.24737548828125 415.31805419921875 240.44879150390625 396.87554931640625 269.6713562011719 C 368.4815673828125 277.84246826171875 395.7746276855469 248.34552001953125 410.7428894042969 193.16812133789062 C 420.8012390136719 198.055908203125 416.6149597167969 128.53053283691406 441.052490234375 103.69932556152344 C 442.3702087402344 130.28248596191406 438.18585205078125 161.85643005371094 431.9881896972656 186.09938049316406" stroke-width="0.0" fill="rgb(132, 67, 27)" opacity="1.0" stroke="rgb(22, 150, 163)" stroke-opacity="0.20128565" stroke-linecap="round" stroke-linejoin="round"/>
    <path d="M 316.794921875 109.64080047607422 C 306.2667541503906 188.67242431640625 320.4759521484375 125.97872161865234 290.35601806640625 145.15708923339844 C 313.0917053222656 101.95723724365234 240.22389221191406 103.98441314697266 247.02322387695312 125.8397445678711 C 212.03448486328125 51.0496940612793 267.9586181640625 106.46891784667969 261.2977294921875 77.5506820678711 C 322.86944580078125 76.02037811279297 305.0773010253906 103.87248229980469 316.794921875 109.64080047607422" stroke-width="0.0" fill="rgb(21, 5, 7)" opacity="0.91092944" stroke="rgb(135, 28, 40)" stroke-opacity="0.8264136" stroke-linecap="round" stroke-linejoin="round"/>
    <path d="M 247.06324768066406 404.2218933105469 C 242.0426025390625 390.9620056152344 258.2064208984375 408.33331298828125 205.6996307373047 405.7052917480469 C 201.78102111816406 421.4660339355469 228.54638671875 392.2096252441406 192.1475067138672 384.3384704589844 C 229.52731323242188 393.7076110839844 190.43136596679688 364.15606689453125 231.2734832763672 383.05487060546875 C 230.2200164794922 369.15509033203125 249.23721313476562 380.8042297363281 247.06324768066406 404.2218933105469" stroke-width="0.0" fill="rgb(26, 10, 11)" opacity="0.9958216" stroke="rgb(246, 198, 79)" stroke-opacity="0.95243984" stroke-linecap="round" stroke-linejoin="round"/>
    <path d="M 279.2975769042969 372.7512512207031 C 278.9480285644531 366.6023254394531 281.5029602050781 369.7111511230469 282.1988525390625 417.6214599609375 C 270.5945129394531 413.036865234375 274.78546142578125 435.47491455078125 273.78997802734375 355.5882263183594 C 276.2516784667969 251.9182891845703 258.234375 247.91282653808594 275.3588562011719 234.06129455566406 C 273.91131591796875 372.31939697265625 277.5602722167969 373.720947265625 279.2975769042969 372.7512512207031" stroke-width="0.0" fill="rgb(15, 0, 1)" opacity="0.9437563" stroke="rgb(54, 243, 100)" stroke-opacity="0.8665269" stroke-linecap="round" stroke-linejoin="round"/>
    <path d="M 282.54315185546875 326.0834655761719 C 282.3320617675781 392.3844909667969 282.49462890625 409.1707458496094 282.51318359375 415.9056091308594 C 272.7119140625 413.29052734375 275.9641418457031 426.5558776855469 275.3638000488281 382.6713562011719 C 275.5175476074219 349.9973449707031 275.0638732910156 341.78680419921875 276.1059265136719 279.9212646484375 C 282.3141784667969 302.6416931152344 283.5399475097656 348.28936767578125 282.54315185546875 326.0834655761719" stroke-width="0.0" fill="rgb(178, 92, 34)" opacity="0.9988937" stroke="rgb(180, 191, 39)" stroke-opacity="0.6730508" stroke-linecap="round" stroke-linejoin="round"/>
    <path d="M 400.50653076171875 144.36692810058594 C 395.8486633300781 181.01455688476562 386.8631591796875 218.38702392578125 366.2805480957031 255.43653869628906 C 393.5137634277344 190.15780639648438 390.62811279296875 156.61270141601562 397.4637451171875 146.15928649902344 C 389.8406066894531 162.26072692871094 395.5105285644531 164.845947265625 399.7279968261719 101.69548034667969 C 403.8226623535156 97.41996765136719 403.579345703125 109.57757568359375 400.50653076171875 144.36692810058594" stroke-width="0.0" fill="rgb(254, 195, 95)" opacity="0.9800098" stroke="rgb(236, 241, 248)" stroke-opacity="0.94716704" stroke-linecap="round" stroke-linejoin="round"/>
    <path d="M 275.3210754394531 200.4403533935547 C 275.67767333984375 267.6832275390625 273.270263671875 235.3058319091797 274.1676025390625 211.30889892578125 C 156.69754028320312 208.8428497314453 212.5099639892578 209.51217651367188 169.08287048339844 206.70962524414062 C 204.4842071533203 205.0762939453125 231.2589874267578 202.98196411132812 272.4978332519531 200.65106201171875 C 292.6609191894531 203.24085998535156 311.0558166503906 196.80711364746094 275.3210754394531 200.4403533935547" stroke-width="0.0" fill="rgb(16, 0, 3)" opacity="0.95496786" stroke="rgb(203, 199, 104)" stroke-opacity="0.7254289" stroke-linecap="round" stroke-linejoin="round"/>
    <path d="M 89.0210952758789 347.387939453125 C 88.86482238769531 256.029052734375 88.8109130859375 264.6757507324219 90.20790100097656 311.385986328125 C 90.08678436279297 400.43304443359375 91.19501495361328 388.3761901855469 88.31757354736328 389.2892150878906 C 90.11344909667969 294.3778076171875 90.49808502197266 318.4272766113281 90.10287475585938 212.17327880859375 C 84.23363494873047 249.79946899414062 92.4391860961914 273.1008605957031 89.0210952758789 347.387939453125" stroke-width="0.0" fill="rgb(7, 0, 0)" opacity="0.9402376" stroke="rgb(184, 177, 202)" stroke-opacity="0.528507" stroke-linecap="round" stroke-linejoin="round"/>
    <path d="M 87.89920806884766 293.1042785644531 C 88.76375579833984 296.687744140625 86.22347259521484 302.4067687988281 91.0616226196289 294.6647644042969 C 83.51188659667969 316.5360412597656 95.59086608886719 204.927978515625 82.124267578125 166.64183044433594 C 81.89765930175781 431.6689758300781 81.03311157226562 465.34307861328125 88.81684112548828 372.2449645996094 C 86.85779571533203 297.56500244140625 89.89009857177734 295.129638671875 87.89920806884766 293.1042785644531" stroke-width="0.0" fill="rgb(180, 93, 34)" opacity="0.92744184" stroke="rgb(89, 195, 233)" stroke-opacity="0.90514785" stroke-linecap="round" stroke-linejoin="round"/>
    <path d="M 268.60064697265625 245.9556427001953 C 275.6824951171875 272.3768615722656 244.8032989501953 259.448974609375 223.02536010742188 272.67694091796875 C 220.69056701660156 306.7493896484375 214.41001892089844 265.19598388671875 232.8048095703125 265.96600341796875 C 197.63328552246094 255.1726531982422 163.66873168945312 257.3252258300781 225.3509521484375 248.8644256591797 C 277.77789306640625 246.96324157714844 281.6253356933594 249.3413848876953 268.60064697265625 245.9556427001953" stroke-width="0.0" fill="rgb(13, 0, 3)" opacity="0.9327119" stroke="rgb(230, 83, 115)" stroke-opacity="0.8355173" stroke-linecap="round" stroke-linejoin="round"/>
    <path d="M 188.97178649902344 364.3074035644531 C 198.63522338867188 270.6415100097656 213.7770233154297 339.7322998046875 182.18222045898438 363.223876953125 C 175.78741455078125 375.8538818359375 177.23931884765625 352.5548095703125 176.95518493652344 339.0007629394531 C 179.85177612304688 291.7796936035156 170.37425231933594 291.721435546875 189.98330688476562 295.6711120605469 C 189.17864990234375 305.2191162109375 186.56301879882812 337.53515625 188.97178649902344 364.3074035644531" stroke-width="0.0" fill="rgb(11, 0, 3)" opacity="0.8617337" stroke="rgb(164, 222, 157)" stroke-opacity="0.93028903" stroke-linecap="round" stroke-linejoin="round"/>
    <path d="M 338.4456787109375 305.65740966796875 C 340.3083190917969 307.94915771484375 338.8160705566406 306.8772888183594 311.7618103027344 311.9413757324219 C 308.0144348144531 311.5481262207031 308.9088439941406 315.3655090332031 309.9467468261719 303.0285339355469 C 308.6232604980469 304.006103515625 325.23419189453125 301.59375 327.0145263671875 301.33740234375 C 339.1910705566406 300.01031494140625 336.4526672363281 297.5257568359375 338.4456787109375 305.65740966796875" stroke-width="0.0" fill="rgb(255, 196, 96)" opacity="0.9821233" stroke="rgb(127, 83, 241)" stroke-opacity="0.83669835" stroke-linecap="round" stroke-linejoin="round"/>
    <path d="M 274.66046142578125 260.0939636230469 C 269.1742248535156 288.6816711425781 274.2493591308594 277.9333801269531 266.7676696777344 270.86407470703125 C 256.2528076171875 260.81829833984375 242.5045623779297 267.34814453125 232.40969848632812 265.4703063964844 C 244.4719696044922 246.78500366210938 249.98663330078125 247.6824493408203 262.95819091796875 249.29904174804688 C 272.2230224609375 244.6853485107422 268.1733093261719 229.33865356445312 274.66046142578125 260.0939636230469" stroke-width="0.0" fill="rgb(21, 3, 4)" opacity="0.97008073" stroke="rgb(64, 165, 176)" stroke-opacity="0.40189487" stroke-linecap="round" stroke-linejoin="round"/>
    <path d="M 145.21994018554688 420.36651611328125 C 211.1486358642578 402.2628173828125 172.94053649902344 420.0436096191406 160.85205078125 413.48553466796875 C 171.6400146484375 418.87066650390625 165.5255584716797 370.9989318847656 134.60142517089844 401.3462219238281 C 130.84588623046875 426.2616271972656 122.40795135498047 383.5431213378906 172.61497497558594 387.8762512207031 C 175.5408935546875 353.9953308105469 225.22157287597656 395.5990905761719 145.21994018554688 420.36651611328125" stroke-width="0.0" fill="rgb(19, 7, 10)" opacity="0.9987436" stroke="rgb(42, 168, 199)" stroke-opacity="0.024389168" stroke-linecap="round" stroke-linejoin="round"/>
    <path d="M 379.83526611328125 128.88536071777344 C 379.1243591308594 161.17434692382812 370.4714660644531 207.1939239501953 359.54437255859375 238.07992553710938 C 378.3898620605469 169.3272247314453 371.69232177734375 125.7851333618164 376.18865966796875 105.69908142089844 C 372.2588195800781 130.36773681640625 375.0840759277344 129.9373779296875 374.4264831542969 102.49698638916016 C 380.4313049316406 102.88550567626953 379.9309997558594 95.47803497314453 379.83526611328125 128.88536071777344" stroke-width="0.0" fill="rgb(253, 193, 94)" opacity="0.98883265" stroke="rgb(198, 188, 54)" stroke-opacity="0.25263086" stroke-linecap="round" stroke-linejoin="round"/>
    <path d="M 203.26856994628906 409.8470458984375 C 168.46078491210938 405.6979064941406 209.02999877929688 419.3678894042969 179.36550903320312 409.99554443359375 C 189.94793701171875 409.3158874511719 98.25006866455078 422.9646911621094 166.97743225097656 410.8523864746094 C 171.56898498535156 381.72344970703125 167.1995391845703 365.6933288574219 187.62477111816406 385.4090576171875 C 202.5133056640625 400.7338562011719 201.24398803710938 344.1033935546875 203.26856994628906 409.8470458984375" stroke-width="0.0" fill="rgb(22, 7, 9)" opacity="0.98859584" stroke="rgb(233, 156, 246)" stroke-opacity="0.022769975" stroke-linecap="round" stroke-linejoin="round"/>
    <path d="M 280.669189453125 383.675537109375 C 281.15899658203125 362.2557678222656 280.822998046875 363.9929504394531 281.0626525878906 342.2027587890625 C 280.4591979980469 276.8566589355469 282.40185546875 272.43377685546875 281.9928894042969 342.5024108886719 C 283.0984191894531 430.423828125 280.4320068359375 435.17724609375 281.04046630859375 387.1880798339844 C 280.87701416015625 372.969482421875 281.0102844238281 373.8921813964844 280.669189453125 383.675537109375" stroke-width="0.0" fill="rgb(16, 0, 1)" opacity="0.9740007" stroke="rgb(17, 88, 0)" stroke-opacity="0.8415175" stroke-linecap="round" stroke-linejoin="round"/>
    <path d="M 226.6826171875 256.8256530761719 C 234.9715118408203 270.12530517578125 235.14236450195312 264.8987731933594 224.01495361328125 269.9657287597656 C 209.79725646972656 290.5870056152344 207.27630615234375 281.8766784667969 206.51324462890625 255.53045654296875 C 210.08140563964844 255.8688507080078 218.8051300048828 249.34060668945312 212.15785217285156 253.443359375 C 219.40684509277344 249.3687286376953 220.73291015625 250.74594116210938 226.6826171875 256.8256530761719" stroke-width="0.0" fill="rgb(254, 197, 179)" opacity="0.9879154" stroke="rgb(195, 162, 70)" stroke-opacity="0.95032656" stroke-linecap="round" stroke-linejoin="round"/>
    <path d="M 214.81048583984375 251.7901611328125 C 223.59396362304688 286.1190185546875 225.93911743164062 282.9541931152344 198.76162719726562 335.19451904296875 C 176.63108825683594 308.7535705566406 190.4861297607422 259.41961669921875 187.26739501953125 259.36572265625 C 187.49081420898438 256.30224609375 190.80633544921875 257.2802734375 192.18609619140625 256.7946472167969 C 186.37527465820312 257.02557373046875 206.5943603515625 252.81060791015625 214.81048583984375 251.7901611328125" stroke-width="0.0" fill="rgb(238, 184, 162)" opacity="1.0" stroke="rgb(37, 144, 182)" stroke-opacity="0.2758803" stroke-linecap="round" stroke-linejoin="round"/>
    <path d="M 187.64613342285156 239.77500915527344 C 177.11398315429688 277.0825500488281 194.0614013671875 273.8963317871094 184.25387573242188 299.6876525878906 C 175.8651885986328 276.2474365234375 174.28189086914062 286.26251220703125 183.5314178466797 321.71282958984375 C 191.7172393798828 291.1310729980469 189.4495086669922 259.1331481933594 172.39306640625 273.4107666015625 C 186.57589721679688 311.4992980957031 189.003662109375 303.79998779296875 187.64613342285156 239.77500915527344" stroke-width="0.0" fill="rgb(23, 8, 9)" opacity="1.0" stroke="rgb(106, 106, 144)" stroke-opacity="0.6414229" stroke-linecap="round" stroke-linejoin="round"/>
    <path d="M 280.49346923828125 200.81504821777344 C 281.119873046875 239.08428955078125 280.6103820800781 268.60272216796875 280.8489074707031 321.67681884765625 C 272.2585144042969 291.0177001953125 277.671142578125 254.98703002929688 275.6995849609375 272.37921142578125 C 275.66668701171875 263.2676086425781 275.2588806152344 261.54779052734375 276.03302001953125 202.5738067626953 C 284.35821533203125 195.65090942382812 271.1983642578125 239.39378356933594 280.49346923828125 200.81504821777344" stroke-width="0.0" fill="rgb(179, 93, 33)" opacity="0.96903366" stroke="rgb(118, 141, 41)" stroke-opacity="0.9745898" stroke-linecap="round" stroke-linejoin="round"/>
    <path d="M 247.27415466308594 92.54590606689453 C 247.83937072753906 94.54411315917969 241.26390075683594 96.20952606201172 232.22544860839844 96.85749053955078 C 242.5850067138672 94.23951721191406 231.21835327148438 98.42100524902344 231.15057373046875 90.58687591552734 C 225.45230102539062 86.09058380126953 235.12454223632812 83.08993530273438 243.13861083984375 81.81963348388672 C 241.568359375 86.96339416503906 244.5971221923828 91.8305892944336 247.27415466308594 92.54590606689453" stroke-width="0.0" fill="rgb(255, 194, 93)" opacity="0.9744892" stroke="rgb(163, 245, 227)" stroke-opacity="0.4616609" stroke-linecap="round" stroke-linejoin="round"/>
    <path d="M 187.91392517089844 362.17626953125 C 187.64785766601562 390.1851501464844 185.9602813720703 403.8360290527344 178.28799438476562 393.9048767089844 C 178.4093475341797 353.65338134765625 177.84463500976562 340.2367858886719 179.49725341796875 380.9848937988281 C 176.39540100097656 319.72418212890625 182.20614624023438 291.0804138183594 173.64051818847656 273.1678466796875 C 194.4344940185547 130.81365966796875 183.04881286621094 315.3983459472656 187.91392517089844 362.17626953125" stroke-width="0.0" fill="rgb(177, 94, 39)" opacity="1.0" stroke="rgb(9, 43, 215)" stroke-opacity="0.5539185" stroke-linecap="round" stroke-linejoin="round"/>
    <path d="M 176.00582885742188 403.07684326171875 C 181.7675018310547 366.78765869140625 175.62620544433594 346.86944580078125 177.34239196777344 349.18634033203125 C 179.96751403808594 346.36114501953125 174.55596923828125 343.18463134765625 178.73448181152344 351.4423522949219 C 173.93719482421875 362.8782653808594 181.34701538085938 320.0380554199219 177.3671112060547 223.64999389648438 C 176.28221130371094 326.4961242675781 177.81968688964844 381.94622802734375 176.00582885742188 403.07684326171875" stroke-width="0.0" fill="rgb(25, 8, 8)" opacity="0.9450803" stroke="rgb(191, 59, 235)" stroke-opacity="0.6044334" stroke-linecap="round" stroke-linejoin="round"/>
    <path d="M 188.0643768310547 436.9307861328125 C 185.70594787597656 437.1203308105469 173.31907653808594 436.9236755371094 177.36265563964844 437.0021667480469 C 178.13861083984375 436.0679626464844 176.4877166748047 438.083251953125 177.07395935058594 436.8992004394531 C 176.43002319335938 406.7813415527344 178.0950469970703 395.16796875 184.71792602539062 400.2222900390625 C 180.4326171875 390.2965087890625 188.7406005859375 380.3306579589844 188.0643768310547 436.9307861328125" stroke-width="0.0" fill="rgb(129, 65, 26)" opacity="1.0" stroke="rgb(69, 217, 67)" stroke-opacity="0.4715618" stroke-linecap="round" stroke-linejoin="round"/>
  </g>
</svg>
