<?xml version="1.0" ?>
<svg xmlns="http://www.w3.org/2000/svg" version="1.1" width="512" height="510">
  <defs/>
  <g>
    <path d="M 126.3795394897461 25.69495391845703 C 112.90447235107422 49.17155838012695 107.5945816040039 49.11505889892578 77.53520202636719 61.400604248046875 C 46.33145523071289 56.46747589111328 43.26994323730469 54.16785430908203 38.86225128173828 32.047630310058594 C 41.892913818359375 -9.713300704956055 51.56134796142578 -8.879460334777832 97.14704895019531 -11.977090835571289 C 103.73124694824219 -1.0545108318328857 115.73562622070312 -13.87307357788086 126.3795394897461 25.69495391845703" stroke-width="0.0" fill="rgb(232, 226, 206)" opacity="0.437053" stroke="rgb(28, 250, 187)" stroke-opacity="0.56040895" stroke-linecap="round" stroke-linejoin="round"/>
    <path d="M 286.9690856933594 431.0635986328125 C 290.0022888183594 434.2806091308594 302.0224914550781 433.98712158203125 263.2142028808594 433.9979553222656 C 263.23333740234375 433.92315673828125 263.235107421875 441.9173278808594 263.03631591796875 424.0003662109375 C 267.6217346191406 424.0001220703125 250.6983642578125 424.0000915527344 287.2496032714844 424.0 C 286.5856628417969 425.7563781738281 286.7944030761719 417.7222595214844 286.9690856933594 431.0635986328125" stroke-width="0.0" fill="rgb(253, 243, 243)" opacity="0.87386256" stroke="rgb(228, 249, 6)" stroke-opacity="0.7641643" stroke-linecap="round" stroke-linejoin="round"/>
    <path d="M 259.8177795410156 210.66041564941406 C 171.8088836669922 212.82957458496094 192.80726623535156 204.6667022705078 187.83038330078125 226.0006866455078 C 167.68978881835938 224.92529296875 187.86366271972656 235.07212829589844 168.2786102294922 178.91445922851562 C 228.38548278808594 162.29080200195312 178.22694396972656 197.52182006835938 193.3148193359375 218.570068359375 C 191.85511779785156 206.05929565429688 165.309814453125 212.53073120117188 259.8177795410156 210.66041564941406" stroke-width="0.0" fill="rgb(255, 242, 218)" opacity="0.88082635" stroke="rgb(142, 212, 162)" stroke-opacity="0.17394751" stroke-linecap="round" stroke-linejoin="round"/>
    <path d="M 347.8782958984375 140.4134979248047 C 323.95721435546875 114.09828186035156 364.1142578125 157.8151092529297 339.8590087890625 230.2972869873047 C 322.6504211425781 128.7620391845703 271.23382568359375 168.4842529296875 274.1158447265625 114.5357437133789 C 282.2192077636719 114.7433090209961 295.583740234375 114.63822937011719 335.685302734375 114.60944366455078 C 345.6448059082031 115.18184661865234 348.7130432128906 109.01097869873047 347.8782958984375 140.4134979248047" stroke-width="0.0" fill="rgb(255, 253, 238)" opacity="0.8093108" stroke="rgb(99, 22, 186)" stroke-opacity="0.47775477" stroke-linecap="round" stroke-linejoin="round"/>
    <path d="M 340.6192932128906 473.6273193359375 C 296.7077331542969 474.556396484375 287.8917236328125 469.9940490722656 301.30279541015625 472.9329833984375 C 192.03652954101562 472.1575012207031 205.56700134277344 475.3135681152344 204.03970336914062 466.4156188964844 C 205.24996948242188 459.06878662109375 195.47036743164062 461.7077941894531 250.6154327392578 461.1319274902344 C 356.1419677734375 462.0041198730469 343.94403076171875 457.5367431640625 340.6192932128906 473.6273193359375" stroke-width="0.0" fill="rgb(255, 255, 245)" opacity="0.8103429" stroke="rgb(144, 186, 212)" stroke-opacity="0.3234112" stroke-linecap="round" stroke-linejoin="round"/>
    <path d="M 178.65115356445312 66.63008880615234 C 178.06944274902344 119.58283996582031 189.02536010742188 112.6212387084961 159.05162048339844 113.41522979736328 C 155.2942657470703 115.13430786132812 154.58865356445312 99.30277252197266 155.28543090820312 73.27176666259766 C 156.30812072753906 71.1333236694336 155.99224853515625 82.3226089477539 156.0009002685547 40.958412170410156 C 186.55560302734375 42.65273666381836 177.6521453857422 29.989761352539062 178.65115356445312 66.63008880615234" stroke-width="0.0" fill="rgb(255, 255, 241)" opacity="0.8699978" stroke="rgb(224, 42, 70)" stroke-opacity="0.050157767" stroke-linecap="round" stroke-linejoin="round"/>
    <path d="M 331.6333312988281 460.80426025390625 C 313.769287109375 459.19281005859375 266.0892333984375 460.44091796875 291.11865234375 459.9909973144531 C 288.6395263671875 459.8764343261719 235.8597412109375 460.13739013671875 220.3343963623047 459.8813781738281 C 213.61874389648438 444.2792053222656 203.100830078125 450.88909912109375 265.978271484375 448.32415771484375 C 347.0516662597656 451.1954650878906 328.74285888671875 443.7783508300781 331.6333312988281 460.80426025390625" stroke-width="0.0" fill="rgb(255, 255, 239)" opacity="0.8994213" stroke="rgb(231, 235, 247)" stroke-opacity="0.9827976" stroke-linecap="round" stroke-linejoin="round"/>
    <path d="M 371.03692626953125 95.2016830444336 C 370.1106262207031 119.5879135131836 377.5321960449219 112.06732177734375 312.2812805175781 113.49932861328125 C 250.1121368408203 111.55764770507812 292.8929748535156 103.7981948852539 357.2560119628906 105.34548950195312 C 357.2389221191406 45.99910354614258 355.5736999511719 39.3748893737793 363.55645751953125 48.71467208862305 C 372.592041015625 58.42670822143555 370.6106872558594 55.685550689697266 371.03692626953125 95.2016830444336" stroke-width="0.0" fill="rgb(255, 255, 241)" opacity="0.8521085" stroke="rgb(148, 83, 109)" stroke-opacity="0.74388134" stroke-linecap="round" stroke-linejoin="round"/>
    <path d="M 353.8765563964844 271.0510559082031 C 366.801513671875 290.8275451660156 326.96453857421875 256.8947448730469 347.160888671875 287.4443359375 C 326.2160949707031 283.85491943359375 330.0967102050781 312.7694396972656 322.4391174316406 286.20123291015625 C 322.5401611328125 222.73292541503906 320.9867248535156 246.86268615722656 342.6260986328125 242.36463928222656 C 344.0694274902344 260.0705871582031 359.205810546875 259.657958984375 353.8765563964844 271.0510559082031" stroke-width="0.0" fill="rgb(239, 255, 232)" opacity="0.87589407" stroke="rgb(97, 209, 135)" stroke-opacity="0.800961" stroke-linecap="round" stroke-linejoin="round"/>
    <path d="M 370.9395751953125 40.039520263671875 C 370.91522216796875 76.09288024902344 372.23895263671875 78.21553039550781 360.7528381347656 76.9355697631836 C 353.0189208984375 50.20035171508789 366.1980285644531 57.033512115478516 347.1128234863281 46.0331916809082 C 349.5444641113281 38.265655517578125 343.18878173828125 40.65226745605469 371.1799621582031 40.23681640625 C 369.94903564453125 40.28691864013672 371.2021179199219 40.85873794555664 370.9395751953125 40.039520263671875" stroke-width="0.0" fill="rgb(255, 252, 238)" opacity="0.8473818" stroke="rgb(136, 1, 55)" stroke-opacity="0.31527007" stroke-linecap="round" stroke-linejoin="round"/>
    <path d="M 221.25405883789062 117.31311798095703 C 211.95001220703125 156.27719116210938 209.9669647216797 164.57345581054688 174.05755615234375 163.9736785888672 C 198.65017700195312 111.22820281982422 177.32443237304688 140.8057403564453 167.6436767578125 156.33180236816406 C 178.07278442382812 111.14253234863281 186.18954467773438 124.2897720336914 177.4668731689453 115.89503479003906 C 215.68507385253906 114.39065551757812 222.97381591796875 115.6128921508789 221.25405883789062 117.31311798095703" stroke-width="0.0" fill="rgb(255, 255, 245)" opacity="0.71693695" stroke="rgb(30, 134, 160)" stroke-opacity="0.9253769" stroke-linecap="round" stroke-linejoin="round"/>
    <path d="M 325.3025207519531 447.86163330078125 C 317.8573303222656 447.89990234375 284.536376953125 447.8487548828125 241.6302032470703 447.7577819824219 C 237.20559692382812 447.4819030761719 224.97300720214844 449.0697021484375 227.23085021972656 445.17926025390625 C 210.64389038085938 381.19488525390625 223.80198669433594 432.3499450683594 252.88880920410156 397.46600341796875 C 399.3193359375 404.7433166503906 317.2018737792969 380.253173828125 325.3025207519531 447.86163330078125" stroke-width="0.0" fill="rgb(255, 255, 241)" opacity="0.7692124" stroke="rgb(106, 187, 59)" stroke-opacity="0.06647408" stroke-linecap="round" stroke-linejoin="round"/>
    <path d="M 349.0869140625 242.349853515625 C 351.9956359863281 268.8984069824219 354.08795166015625 265.3404235839844 353.8483581542969 272.6641540527344 C 331.83636474609375 277.2797546386719 340.3039245605469 298.6793212890625 335.5010986328125 242.80792236328125 C 336.2708740234375 245.10716247558594 346.2720642089844 239.1650390625 302.9212951660156 243.2122344970703 C 384.4869079589844 239.79849243164062 371.6313171386719 243.01983642578125 349.0869140625 242.349853515625" stroke-width="0.0" fill="rgb(251, 247, 232)" opacity="1.0" stroke="rgb(189, 3, 104)" stroke-opacity="0.5736184" stroke-linecap="round" stroke-linejoin="round"/>
    <path d="M 252.93017578125 220.10775756835938 C 249.91973876953125 407.48455810546875 262.2879638671875 397.2639465332031 246.37757873535156 398.4156188964844 C 172.05032348632812 397.25396728515625 196.18487548828125 406.0296325683594 189.12069702148438 369.6007995605469 C 191.96737670898438 309.7000427246094 187.6006622314453 244.49879455566406 196.7426300048828 117.58737182617188 C 387.24383544921875 162.18263244628906 336.6424865722656 236.6080322265625 252.93017578125 220.10775756835938" stroke-width="0.0" fill="rgb(21, 60, 47)" opacity="0.7208464" stroke="rgb(223, 226, 244)" stroke-opacity="0.16114062" stroke-linecap="round" stroke-linejoin="round"/>
    <path d="M 272.48736572265625 144.71731567382812 C 256.2210693359375 144.83290100097656 232.97349548339844 141.75140380859375 199.28994750976562 178.55673217773438 C 193.12307739257812 216.77772521972656 160.82608032226562 197.80465698242188 180.5458526611328 167.57064819335938 C 189.9424591064453 108.33465576171875 183.13743591308594 115.93891143798828 252.3949432373047 115.24139404296875 C 280.71331787109375 118.9106674194336 271.1644592285156 103.17945861816406 272.48736572265625 144.71731567382812" stroke-width="0.0" fill="rgb(254, 246, 226)" opacity="0.9457037" stroke="rgb(102, 208, 251)" stroke-opacity="0.697417" stroke-linecap="round" stroke-linejoin="round"/>
    <path d="M 348.6124267578125 97.54138946533203 C 355.6296691894531 97.90145111083984 363.65228271484375 98.94482421875 300.2440490722656 97.95039367675781 C 284.08282470703125 71.93717193603516 284.4858093261719 68.74980926513672 286.64544677734375 46.3715705871582 C 269.7376403808594 42.94353103637695 272.62738037109375 42.832252502441406 343.6210632324219 43.084781646728516 C 350.1815490722656 43.654930114746094 347.9681396484375 32.5119743347168 348.6124267578125 97.54138946533203" stroke-width="0.0" fill="rgb(54, 106, 82)" opacity="0.8396965" stroke="rgb(132, 208, 209)" stroke-opacity="0.5912245" stroke-linecap="round" stroke-linejoin="round"/>
    <path d="M 213.793212890625 392.171875 C 210.3406219482422 400.270263671875 217.03594970703125 400.39111328125 193.0092315673828 398.499267578125 C 192.4970245361328 397.93780517578125 189.9131317138672 404.1793212890625 190.1071014404297 380.8156433105469 C 189.81077575683594 371.0841064453125 183.58853149414062 371.9676208496094 207.6242218017578 371.70880126953125 C 211.5240936279297 375.2026062011719 213.47262573242188 364.8545227050781 213.793212890625 392.171875" stroke-width="0.0" fill="rgb(241, 38, 27)" opacity="0.6688415" stroke="rgb(220, 167, 189)" stroke-opacity="0.8928297" stroke-linecap="round" stroke-linejoin="round"/>
    <path d="M 291.9093322753906 314.57684326171875 C 291.1431579589844 319.2785949707031 298.5295104980469 316.3981628417969 264.2506103515625 317.9952697753906 C 276.4916687011719 317.2196960449219 272.939208984375 325.41168212890625 273.7676086425781 294.2999267578125 C 274.3060302734375 295.529296875 269.1825256347656 295.751953125 290.25225830078125 296.0316162109375 C 293.0681457519531 296.7425231933594 291.6940612792969 291.64642333984375 291.9093322753906 314.57684326171875" stroke-width="0.0" fill="rgb(0, 14, 26)" opacity="0.8359799" stroke="rgb(240, 148, 196)" stroke-opacity="0.9539812" stroke-linecap="round" stroke-linejoin="round"/>
    <path d="M 427.4620056152344 206.77171325683594 C 399.8443298339844 276.01812744140625 459.6085205078125 283.8025817871094 385.68084716796875 277.12664794921875 C 359.6877136230469 266.67681884765625 378.7826843261719 233.07044982910156 369.19757080078125 225.36170959472656 C 361.88873291015625 193.50099182128906 380.17645263671875 147.48240661621094 395.1239013671875 179.53199768066406 C 380.6000671386719 206.53379821777344 393.69573974609375 223.78485107421875 427.4620056152344 206.77171325683594" stroke-width="0.0" fill="rgb(48, 56, 45)" opacity="0.7531595" stroke="rgb(152, 31, 42)" stroke-opacity="0.720368" stroke-linecap="round" stroke-linejoin="round"/>
    <path d="M 447.10198974609375 347.5764465332031 C 488.15924072265625 382.7230529785156 504.52685546875 403.14544677734375 470.5282897949219 448.98480224609375 C 337.71600341796875 489.78778076171875 307.45001220703125 481.18756103515625 370.18536376953125 397.5549621582031 C 374.02734375 284.8921203613281 363.12078857421875 290.8832702636719 402.90997314453125 312.1183776855469 C 434.9434509277344 335.77459716796875 431.0949401855469 300.2301330566406 447.10198974609375 347.5764465332031" stroke-width="0.0" fill="rgb(75, 66, 45)" opacity="0.6390431" stroke="rgb(24, 77, 146)" stroke-opacity="0.74380916" stroke-linecap="round" stroke-linejoin="round"/>
    <path d="M 336.55401611328125 302.4714660644531 C 454.4320068359375 381.7232666015625 318.555908203125 290.578369140625 340.25933837890625 389.3387451171875 C 289.3015441894531 350.96319580078125 309.1565246582031 358.6046142578125 322.9381408691406 323.62640380859375 C 320.5041809082031 191.9558563232422 341.7061462402344 267.6237487792969 210.1803436279297 231.42445373535156 C 370.8437194824219 246.0348663330078 329.8284912109375 201.41168212890625 336.55401611328125 302.4714660644531" stroke-width="0.0" fill="rgb(53, 106, 81)" opacity="0.7141787" stroke="rgb(156, 147, 97)" stroke-opacity="0.9399854" stroke-linecap="round" stroke-linejoin="round"/>
    <path d="M 488.02978515625 234.7586669921875 C 500.16973876953125 411.62481689453125 452.5901794433594 406.1005554199219 411.400634765625 304.2478942871094 C 356.3894348144531 305.245361328125 347.4249572753906 336.5048522949219 337.7622375488281 300.2946472167969 C 364.0052795410156 293.57879638671875 323.5220031738281 266.3050842285156 356.3081970214844 278.4167175292969 C 348.9254150390625 243.38851928710938 369.0235595703125 300.6552734375 488.02978515625 234.7586669921875" stroke-width="0.0" fill="rgb(102, 48, 40)" opacity="0.4252968" stroke="rgb(177, 13, 60)" stroke-opacity="0.9587426" stroke-linecap="round" stroke-linejoin="round"/>
    <path d="M 304.66180419921875 105.20149230957031 C 313.73345947265625 116.5859603881836 320.2524719238281 112.55812072753906 220.93222045898438 113.49491119384766 C 225.9656219482422 113.32559204101562 215.8838653564453 113.35497283935547 173.42642211914062 113.40422058105469 C 178.5251007080078 95.26417541503906 189.71368408203125 109.61174774169922 195.4296112060547 105.30778503417969 C 218.63934326171875 105.18415069580078 254.63372802734375 105.12272644042969 304.66180419921875 105.20149230957031" stroke-width="0.0" fill="rgb(255, 255, 237)" opacity="0.8483638" stroke="rgb(51, 172, 25)" stroke-opacity="0.70899254" stroke-linecap="round" stroke-linejoin="round"/>
    <path d="M 348.3448181152344 322.2288818359375 C 362.8973388671875 344.238525390625 356.1147766113281 330.9551696777344 342.25140380859375 337.0926818847656 C 321.9679260253906 368.4626159667969 347.78973388671875 320.0000915527344 335.7373962402344 322.9182434082031 C 339.2395935058594 301.8627014160156 328.3689880371094 295.11016845703125 353.9039001464844 315.3751525878906 C 393.9071350097656 306.8385314941406 381.1091613769531 323.2580261230469 348.3448181152344 322.2288818359375" stroke-width="0.0" fill="rgb(255, 253, 241)" opacity="0.9512327" stroke="rgb(158, 63, 91)" stroke-opacity="0.542366" stroke-linecap="round" stroke-linejoin="round"/>
    <path d="M 113.24794006347656 210.69781494140625 C 62.649600982666016 250.57162475585938 91.21595001220703 257.36236572265625 54.01375961303711 280.932373046875 C 12.318833351135254 246.764892578125 61.8883056640625 266.13543701171875 32.12115478515625 246.6615447998047 C 43.36701583862305 226.3053436279297 42.84553146362305 263.2583923339844 42.53028869628906 214.16476440429688 C 118.50463104248047 229.0983428955078 87.51314544677734 125.98554992675781 113.24794006347656 210.69781494140625" stroke-width="0.0" fill="rgb(178, 11, 0)" opacity="0.50792277" stroke="rgb(131, 101, 86)" stroke-opacity="0.92371166" stroke-linecap="round" stroke-linejoin="round"/>
    <path d="M 301.1570739746094 44.32596206665039 C 292.6665344238281 61.894012451171875 296.4724426269531 71.6478271484375 318.62030029296875 98.28857421875 C 229.6071319580078 98.1194839477539 224.8218231201172 98.63314819335938 178.65745544433594 98.07698822021484 C 180.32191467285156 32.84593963623047 175.61865234375 43.21923065185547 183.5137939453125 42.94070816040039 C 301.5467224121094 43.287315368652344 302.7953796386719 42.36118698120117 301.1570739746094 44.32596206665039" stroke-width="0.0" fill="rgb(74, 115, 90)" opacity="0.94200206" stroke="rgb(111, 249, 151)" stroke-opacity="0.7307655" stroke-linecap="round" stroke-linejoin="round"/>
    <path d="M 198.2321014404297 459.4891052246094 C 160.1177978515625 472.9689636230469 207.2738037109375 471.7672119140625 74.04774475097656 471.4867248535156 C 81.01817321777344 420.5054626464844 146.1719207763672 477.6335754394531 49.97814178466797 471.8606872558594 C 44.90143966674805 460.0768127441406 33.93857192993164 379.6471252441406 69.79639434814453 403.9276123046875 C 150.6320037841797 433.28289794921875 152.75750732421875 411.1953430175781 198.2321014404297 459.4891052246094" stroke-width="0.0" fill="rgb(43, 58, 36)" opacity="0.5884994" stroke="rgb(68, 189, 127)" stroke-opacity="0.4543289" stroke-linecap="round" stroke-linejoin="round"/>
    <path d="M 183.86622619628906 317.8207092285156 C 128.62315368652344 305.3323974609375 119.06109619140625 318.3416442871094 73.14222717285156 330.82830810546875 C 30.967487335205078 338.7732238769531 40.36414337158203 343.24853515625 65.377685546875 330.8304443359375 C 131.38551330566406 321.022705078125 5.556199550628662 221.8843231201172 129.29440307617188 230.34286499023438 C 158.47068786621094 219.3412628173828 146.91673278808594 187.73233032226562 183.86622619628906 317.8207092285156" stroke-width="0.0" fill="rgb(255, 79, 77)" opacity="0.552965" stroke="rgb(102, 128, 155)" stroke-opacity="0.8020521" stroke-linecap="round" stroke-linejoin="round"/>
    <path d="M 147.8253173828125 300.3282165527344 C 80.41389465332031 274.4336242675781 46.171485900878906 382.1662902832031 32.14886474609375 324.55511474609375 C 62.28806686401367 327.46923828125 -9.377273559570312 275.0843811035156 53.02509689331055 288.9114685058594 C 76.20989990234375 302.95269775390625 33.328033447265625 293.9857177734375 105.43047332763672 216.01747131347656 C 81.89612579345703 206.5934295654297 98.66490173339844 242.2711639404297 147.8253173828125 300.3282165527344" stroke-width="0.0" fill="rgb(0, 99, 90)" opacity="0.5536474" stroke="rgb(51, 101, 31)" stroke-opacity="0.6148564" stroke-linecap="round" stroke-linejoin="round"/>
    <path d="M 156.50265502929688 390.7808532714844 C 86.4465103149414 381.5859069824219 160.87673950195312 458.8203125 70.03974151611328 411.80377197265625 C 54.519073486328125 323.5905456542969 54.058555603027344 416.8187255859375 54.70732116699219 348.56036376953125 C 80.29725646972656 284.4810485839844 59.21709060668945 257.58953857421875 136.85580444335938 297.2279968261719 C 159.49310302734375 297.9369812011719 158.08250427246094 287.93994140625 156.50265502929688 390.7808532714844" stroke-width="0.0" fill="rgb(85, 82, 65)" opacity="0.9944148" stroke="rgb(50, 167, 203)" stroke-opacity="0.13598211" stroke-linecap="round" stroke-linejoin="round"/>
    <path d="M 448.7138977050781 166.1590118408203 C 414.4225769042969 245.51502990722656 453.1704406738281 198.759033203125 402.30511474609375 228.9061737060547 C 360.832275390625 213.28475952148438 387.0675048828125 138.68585205078125 365.0395812988281 203.28646850585938 C 375.02532958984375 70.43653869628906 362.12994384765625 75.7973403930664 407.7112121582031 158.83670043945312 C 353.374267578125 154.05958557128906 415.1225280761719 202.4921417236328 448.7138977050781 166.1590118408203" stroke-width="0.0" fill="rgb(0, 53, 36)" opacity="0.53997886" stroke="rgb(220, 136, 104)" stroke-opacity="0.7750594" stroke-linecap="round" stroke-linejoin="round"/>
    <path d="M 307.70892333984375 178.29412841796875 C 307.59368896484375 179.54901123046875 299.2873229980469 184.9811248779297 291.4385986328125 190.57447814941406 C 290.1602478027344 190.12136840820312 285.07568359375 185.10806274414062 281.9716796875 182.37820434570312 C 286.7882080078125 175.1416015625 289.7097473144531 169.0410919189453 291.6842956542969 165.50205993652344 C 298.9117431640625 170.81637573242188 303.2703857421875 173.75387573242188 307.70892333984375 178.29412841796875" stroke-width="0.0" fill="rgb(27, 36, 43)" opacity="0.98614997" stroke="rgb(25, 102, 75)" stroke-opacity="0.91611296" stroke-linecap="round" stroke-linejoin="round"/>
    <path d="M 312.1288757324219 296.3701477050781 C 312.3393859863281 324.0458068847656 312.1192626953125 316.8035888671875 311.97003173828125 317.68133544921875 C 291.385498046875 317.2218017578125 294.85491943359375 318.3075866699219 294.0974426269531 316.60540771484375 C 294.27301025390625 290.51593017578125 294.3049011230469 296.36431884765625 293.91168212890625 295.87664794921875 C 316.794921875 296.17572021484375 311.5094299316406 296.09405517578125 312.1288757324219 296.3701477050781" stroke-width="0.0" fill="rgb(26, 36, 42)" opacity="0.96322334" stroke="rgb(70, 128, 143)" stroke-opacity="0.6863183" stroke-linecap="round" stroke-linejoin="round"/>
    <path d="M 362.0787658691406 220.340576171875 C 366.36163330078125 217.58139038085938 365.61956787109375 234.00099182128906 355.684326171875 223.3173370361328 C 353.30474853515625 233.2580108642578 352.1159362792969 198.5550079345703 351.98260498046875 209.6595916748047 C 346.6171875 178.3485870361328 338.76177978515625 172.82298278808594 356.4289245605469 177.7292022705078 C 364.2882385253906 200.8153839111328 361.00396728515625 213.48153686523438 362.0787658691406 220.340576171875" stroke-width="0.0" fill="rgb(255, 255, 246)" opacity="0.78120995" stroke="rgb(73, 77, 90)" stroke-opacity="0.18527739" stroke-linecap="round" stroke-linejoin="round"/>
    <path d="M 338.6486511230469 372.03057861328125 C 341.69580078125 396.1983337402344 336.8587646484375 398.2340087890625 339.3192443847656 398.2367248535156 C 309.73443603515625 398.5887451171875 320.788818359375 398.8818054199219 316.318603515625 393.4085388183594 C 315.2018737792969 364.24053955078125 321.2342529296875 374.855712890625 314.4020690917969 372.99371337890625 C 334.9158630371094 371.41253662109375 339.7618408203125 372.979736328125 338.6486511230469 372.03057861328125" stroke-width="0.0" fill="rgb(234, 53, 44)" opacity="0.7337331" stroke="rgb(253, 46, 150)" stroke-opacity="0.36557522" stroke-linecap="round" stroke-linejoin="round"/>
    <path d="M 174.62448120117188 125.41548156738281 C 169.33526611328125 125.73657989501953 178.1343994140625 122.69583892822266 163.32391357421875 135.96498107910156 C 157.61538696289062 136.5168914794922 154.84884643554688 135.20411682128906 158.3579559326172 114.59305572509766 C 111.3753662109375 114.64370727539062 134.9393310546875 116.3792953491211 205.80941772460938 114.8053207397461 C 165.1540985107422 114.44499969482422 177.2600555419922 112.52692413330078 174.62448120117188 125.41548156738281" stroke-width="0.0" fill="rgb(255, 253, 236)" opacity="0.8519723" stroke="rgb(42, 162, 94)" stroke-opacity="0.35428" stroke-linecap="round" stroke-linejoin="round"/>
    <path d="M 117.65972900390625 64.81079864501953 C 138.00547790527344 105.11419677734375 87.77200317382812 130.1150360107422 155.14382934570312 95.08836364746094 C 135.2379150390625 53.25696563720703 124.84416961669922 134.92864990234375 102.9159164428711 97.76627349853516 C 95.7216796875 75.8808822631836 103.73719787597656 79.63751983642578 113.1225814819336 89.64582824707031 C 128.07308959960938 114.79094696044922 104.31752014160156 55.08346176147461 117.65972900390625 64.81079864501953" stroke-width="0.0" fill="rgb(221, 136, 0)" opacity="0.79216385" stroke="rgb(36, 196, 67)" stroke-opacity="0.06844151" stroke-linecap="round" stroke-linejoin="round"/>
    <path d="M 458.21588134765625 426.6344299316406 C 430.1949768066406 406.8869323730469 435.6363525390625 480.7465515136719 416.0271911621094 469.2610168457031 C 316.4588928222656 483.2167053222656 462.6216125488281 441.1733703613281 398.5455322265625 430.0113525390625 C 430.5819091796875 410.6768493652344 422.7546691894531 352.5023498535156 430.00933837890625 407.7974548339844 C 463.0541076660156 345.4247131347656 537.9237060546875 431.6959533691406 458.21588134765625 426.6344299316406" stroke-width="0.0" fill="rgb(236, 106, 74)" opacity="0.8592455" stroke="rgb(72, 150, 91)" stroke-opacity="0.6378442" stroke-linecap="round" stroke-linejoin="round"/>
    <path d="M 168.69924926757812 255.51126098632812 C 174.70639038085938 275.0014343261719 168.02622985839844 254.33401489257812 161.33798217773438 277.0700988769531 C 162.610595703125 256.4350891113281 153.474853515625 265.52874755859375 156.52029418945312 255.5030059814453 C 150.32998657226562 240.0815887451172 167.1848907470703 233.9508514404297 168.3803253173828 254.0035858154297 C 169.223876953125 221.32310485839844 165.87049865722656 241.2701416015625 168.69924926757812 255.51126098632812" stroke-width="0.0" fill="rgb(247, 242, 224)" opacity="1.0" stroke="rgb(4, 6, 228)" stroke-opacity="0.63188887" stroke-linecap="round" stroke-linejoin="round"/>
    <path d="M 480.00543212890625 442.3998718261719 C 479.6604919433594 453.14642333984375 478.0362243652344 462.9289855957031 470.71124267578125 470.307373046875 C 453.33880615234375 476.033203125 461.200439453125 458.89996337890625 454.51483154296875 435.9820251464844 C 466.410400390625 425.8535461425781 443.71697998046875 433.12225341796875 468.2140197753906 426.24652099609375 C 471.3892517089844 413.42291259765625 486.48455810546875 449.5637512207031 480.00543212890625 442.3998718261719" stroke-width="0.0" fill="rgb(41, 51, 52)" opacity="1.0" stroke="rgb(138, 31, 23)" stroke-opacity="0.26206067" stroke-linecap="round" stroke-linejoin="round"/>
    <path d="M 467.7154541015625 461.26751708984375 C 470.8209533691406 472.67718505859375 488.2281188964844 472.3616638183594 446.6673278808594 471.8629455566406 C 450.4891357421875 461.66552734375 448.9682312011719 479.3675231933594 440.5474853515625 449.2533874511719 C 460.2759094238281 469.3130187988281 450.3450927734375 427.8518981933594 453.2049560546875 430.2888488769531 C 459.4801940917969 452.38134765625 455.57958984375 449.437744140625 467.7154541015625 461.26751708984375" stroke-width="0.0" fill="rgb(36, 50, 51)" opacity="1.0" stroke="rgb(68, 110, 56)" stroke-opacity="0.9616534" stroke-linecap="round" stroke-linejoin="round"/>
    <path d="M 190.34739685058594 408.57562255859375 C 243.95330810546875 394.81427001953125 193.62510681152344 507.5106201171875 194.3531494140625 438.16729736328125 C 149.75845336914062 443.8077087402344 100.40962219238281 410.07861328125 166.3794403076172 407.49542236328125 C 172.51234436035156 411.1961975097656 168.3654327392578 331.4453430175781 179.66854858398438 341.92138671875 C 185.17767333984375 383.49664306640625 190.6245880126953 422.4555969238281 190.34739685058594 408.57562255859375" stroke-width="0.0" fill="rgb(227, 98, 0)" opacity="0.51284367" stroke="rgb(107, 239, 107)" stroke-opacity="0.86729497" stroke-linecap="round" stroke-linejoin="round"/>
    <path d="M 125.97521209716797 319.3861389160156 C 136.17660522460938 368.37353515625 135.69091796875 360.51788330078125 100.70468139648438 376.0551452636719 C 37.51990509033203 345.7427978515625 106.91950225830078 350.81048583984375 71.57247161865234 347.4147644042969 C 65.58187103271484 322.94781494140625 102.23760986328125 297.3952331542969 106.6464614868164 320.6437072753906 C 125.68865966796875 301.1606750488281 111.13661193847656 335.16314697265625 125.97521209716797 319.3861389160156" stroke-width="0.0" fill="rgb(233, 107, 49)" opacity="0.92892396" stroke="rgb(148, 136, 27)" stroke-opacity="0.59706956" stroke-linecap="round" stroke-linejoin="round"/>
    <path d="M 398.42974853515625 298.2264404296875 C 427.5819396972656 337.3495178222656 416.3253479003906 316.9288024902344 371.8795166015625 354.4101257324219 C 371.53436279296875 317.71441650390625 369.2086486816406 297.7479248046875 371.76904296875 293.40814208984375 C 380.84954833984375 296.6874694824219 378.0068359375 252.6103057861328 434.2333984375 261.56005859375 C 437.955810546875 323.7191162109375 390.28741455078125 261.5799560546875 398.42974853515625 298.2264404296875" stroke-width="0.0" fill="rgb(67, 85, 74)" opacity="1.0" stroke="rgb(19, 49, 28)" stroke-opacity="0.64954" stroke-linecap="round" stroke-linejoin="round"/>
    <path d="M 156.81842041015625 261.6130676269531 C 116.61042785644531 274.2344055175781 162.32020568847656 261.4659729003906 124.84770965576172 284.4968566894531 C 130.51492309570312 210.3159637451172 118.45628356933594 321.4373474121094 105.66217803955078 319.5118713378906 C 91.55440521240234 196.21681213378906 98.38158416748047 251.35647583007812 124.65039825439453 253.14361572265625 C 156.00770568847656 255.71458435058594 158.7794952392578 214.63572692871094 156.81842041015625 261.6130676269531" stroke-width="0.0" fill="rgb(52, 65, 55)" opacity="0.96277165" stroke="rgb(109, 67, 73)" stroke-opacity="0.70029557" stroke-linecap="round" stroke-linejoin="round"/>
    <path d="M 292.1814880371094 247.8809814453125 C 291.17889404296875 270.99932861328125 292.96966552734375 270.6883544921875 290.1429138183594 269.9484558105469 C 268.4423522949219 269.7008056640625 274.38201904296875 269.9947204589844 273.5879211425781 270.0051574707031 C 273.7484130859375 243.26327514648438 273.1918640136719 248.7375030517578 273.7588806152344 248.425048828125 C 295.291748046875 248.68490600585938 292.5963439941406 248.5870361328125 292.1814880371094 247.8809814453125" stroke-width="0.0" fill="rgb(11, 23, 33)" opacity="0.92139894" stroke="rgb(154, 189, 225)" stroke-opacity="0.13811496" stroke-linecap="round" stroke-linejoin="round"/>
    <path d="M 318.2483825683594 196.16123962402344 C 324.4353332519531 207.34886169433594 325.1835632324219 204.42294311523438 302.60064697265625 205.10205078125 C 296.9289245605469 207.90878295898438 300.8402404785156 203.5443115234375 293.0025329589844 193.2598876953125 C 297.9786682128906 188.9845733642578 302.4537658691406 186.25587463378906 309.6634521484375 180.93870544433594 C 308.70770263671875 180.54034423828125 314.05352783203125 185.59832763671875 318.2483825683594 196.16123962402344" stroke-width="0.0" fill="rgb(27, 35, 40)" opacity="0.9847279" stroke="rgb(163, 188, 181)" stroke-opacity="0.052100945" stroke-linecap="round" stroke-linejoin="round"/>
    <path d="M 393.5086975097656 282.63494873046875 C 386.50799560546875 308.854248046875 371.3547668457031 309.5339660644531 365.14862060546875 314.07513427734375 C 354.45947265625 316.9237365722656 334.03228759765625 314.7517395019531 346.613037109375 308.2127990722656 C 328.85699462890625 282.37542724609375 353.6219482421875 283.0668029785156 374.9276428222656 258.6887512207031 C 381.7864074707031 288.835205078125 379.6511535644531 241.2969207763672 393.5086975097656 282.63494873046875" stroke-width="0.0" fill="rgb(232, 60, 51)" opacity="0.79435927" stroke="rgb(2, 91, 107)" stroke-opacity="0.31287012" stroke-linecap="round" stroke-linejoin="round"/>
    <path d="M 122.0749740600586 458.3468933105469 C 122.92529296875 473.5628967285156 115.42035675048828 471.5118713378906 86.43587493896484 471.95379638671875 C 79.67430877685547 471.7912292480469 85.20906829833984 470.4114074707031 84.00690460205078 466.4633483886719 C 72.92806243896484 427.1770324707031 99.74762725830078 473.2643737792969 80.51223754882812 435.61602783203125 C 135.36363220214844 409.40850830078125 75.00382995605469 445.0659484863281 122.0749740600586 458.3468933105469" stroke-width="0.0" fill="rgb(223, 49, 35)" opacity="0.7579989" stroke="rgb(235, 54, 134)" stroke-opacity="0.22881311" stroke-linecap="round" stroke-linejoin="round"/>
    <path d="M 95.32801055908203 444.9236755371094 C 76.85914611816406 454.0903015136719 76.71135711669922 456.63690185546875 85.22135162353516 453.62744140625 C 77.89142608642578 456.51953125 83.4322738647461 450.948486328125 81.77245330810547 454.0333251953125 C 68.98117065429688 443.4732666015625 88.5910873413086 445.491943359375 80.6837387084961 452.5834655761719 C 98.78570556640625 442.33319091796875 97.2303695678711 444.3537902832031 95.32801055908203 444.9236755371094" stroke-width="0.0" fill="rgb(255, 251, 216)" opacity="0.8639604" stroke="rgb(158, 140, 22)" stroke-opacity="0.9046422" stroke-linecap="round" stroke-linejoin="round"/>
    <path d="M 135.96507263183594 449.4361572265625 C 131.58937072753906 474.672607421875 153.6805419921875 471.7465515136719 108.97014617919922 472.01373291015625 C 103.90441131591797 472.05743408203125 116.90912628173828 444.7801818847656 97.4811782836914 447.66455078125 C 94.69664001464844 416.6502685546875 60.5606803894043 382.41815185546875 90.11502838134766 404.71136474609375 C 101.35426330566406 457.80462646484375 85.16419982910156 446.44903564453125 135.96507263183594 449.4361572265625" stroke-width="0.0" fill="rgb(234, 170, 36)" opacity="0.97650665" stroke="rgb(66, 173, 17)" stroke-opacity="0.04535112" stroke-linecap="round" stroke-linejoin="round"/>
    <path d="M 111.86550903320312 428.3454895019531 C 89.51466369628906 461.11822509765625 123.10881042480469 394.2719421386719 85.49311065673828 445.6148681640625 C 68.06525421142578 454.7934265136719 102.3109359741211 387.18426513671875 66.6016845703125 409.3770446777344 C 65.36598205566406 448.78851318359375 6.908300399780273 356.3564758300781 92.70855712890625 405.6799011230469 C 98.60371398925781 373.58868408203125 94.66551208496094 377.7300109863281 111.86550903320312 428.3454895019531" stroke-width="0.0" fill="rgb(233, 137, 44)" opacity="0.786334" stroke="rgb(213, 9, 172)" stroke-opacity="0.8158126" stroke-linecap="round" stroke-linejoin="round"/>
    <path d="M 441.33544921875 459.4425964355469 C 436.1702880859375 476.2467041015625 450.04296875 470.9612731933594 414.9861145019531 472.0150451660156 C 417.48822021484375 466.3226013183594 416.9754638671875 470.4389953613281 407.2684326171875 444.3518981933594 C 430.72589111328125 482.2972412109375 429.75775146484375 468.1319885253906 424.388427734375 428.5112609863281 C 459.45538330078125 408.0606994628906 434.9013671875 422.800048828125 441.33544921875 459.4425964355469" stroke-width="0.0" fill="rgb(153, 52, 43)" opacity="0.9871963" stroke="rgb(198, 201, 249)" stroke-opacity="0.9490544" stroke-linecap="round" stroke-linejoin="round"/>
    <path d="M 457.14984130859375 134.4376983642578 C 542.17138671875 74.57596588134766 428.7622375488281 162.60316467285156 497.9787292480469 154.5317840576172 C 452.4714660644531 183.52322387695312 444.9874267578125 147.4165496826172 447.52667236328125 149.59475708007812 C 440.2347717285156 134.46656799316406 445.7522277832031 107.13589477539062 450.8764343261719 112.47798156738281 C 453.1316223144531 123.7772216796875 457.1081848144531 123.80984497070312 457.14984130859375 134.4376983642578" stroke-width="0.0" fill="rgb(255, 53, 86)" opacity="0.5553803" stroke="rgb(185, 204, 161)" stroke-opacity="0.1829655" stroke-linecap="round" stroke-linejoin="round"/>
    <path d="M 403.0559997558594 75.62738800048828 C 407.82904052734375 218.52902221679688 405.02301025390625 207.41275024414062 404.3385925292969 162.91001892089844 C 395.7675476074219 144.2765655517578 394.0621032714844 142.60498046875 382.97857666015625 136.80909729003906 C 384.58245849609375 123.03631591796875 373.41314697265625 130.73931884765625 404.5433044433594 134.7467498779297 C 410.8476867675781 178.7130126953125 402.04376220703125 156.4034881591797 403.0559997558594 75.62738800048828" stroke-width="0.0" fill="rgb(198, 179, 151)" opacity="1.0" stroke="rgb(252, 108, 122)" stroke-opacity="0.33055007" stroke-linecap="round" stroke-linejoin="round"/>
    <path d="M 117.45881652832031 300.0589599609375 C 145.6060791015625 284.792724609375 144.89683532714844 346.10009765625 122.85521697998047 321.46624755859375 C 113.48965454101562 273.99853515625 101.496337890625 277.875 101.59733581542969 278.5324401855469 C 100.62063598632812 264.6910400390625 98.51695251464844 239.61534118652344 105.23004150390625 249.1437225341797 C 116.3588638305664 265.461669921875 105.5499038696289 269.35369873046875 117.45881652832031 300.0589599609375" stroke-width="0.0" fill="rgb(107, 174, 155)" opacity="0.59560424" stroke="rgb(12, 34, 96)" stroke-opacity="0.5682818" stroke-linecap="round" stroke-linejoin="round"/>
    <path d="M 119.2600326538086 278.1405029296875 C 114.32457733154297 314.5871887207031 116.40393829345703 295.9082336425781 109.10493469238281 306.08477783203125 C 99.97127532958984 293.4836730957031 94.76334381103516 289.3652038574219 96.64724731445312 274.88616943359375 C 98.54039764404297 270.1621398925781 100.60740661621094 252.61216735839844 106.75171661376953 249.0316925048828 C 115.72789001464844 257.6009826660156 119.81044006347656 268.788330078125 119.2600326538086 278.1405029296875" stroke-width="0.0" fill="rgb(196, 136, 43)" opacity="0.88039875" stroke="rgb(240, 218, 65)" stroke-opacity="0.13407545" stroke-linecap="round" stroke-linejoin="round"/>
    <path d="M 437.2376403808594 191.653564453125 C 428.1761779785156 205.10792541503906 429.73291015625 213.82667541503906 413.499755859375 219.2174835205078 C 394.2389831542969 214.9184112548828 397.34881591796875 218.91607666015625 390.4729919433594 206.560791015625 C 385.09344482421875 173.80860900878906 393.0610046386719 181.0257568359375 416.34075927734375 190.97845458984375 C 420.52899169921875 171.75331115722656 431.1633605957031 205.71044921875 437.2376403808594 191.653564453125" stroke-width="0.0" fill="rgb(210, 116, 15)" opacity="1.0" stroke="rgb(2, 188, 63)" stroke-opacity="0.66630286" stroke-linecap="round" stroke-linejoin="round"/>
    <path d="M 437.5451354980469 172.39219665527344 C 439.44970703125 199.0597686767578 426.427490234375 197.74501037597656 430.5378723144531 192.42391967773438 C 390.5330810546875 207.36221313476562 397.6846008300781 230.17141723632812 387.7153625488281 191.10015869140625 C 414.45062255859375 143.28538513183594 389.72833251953125 215.95628356933594 415.90728759765625 168.78567504882812 C 405.28106689453125 226.91024780273438 441.43609619140625 140.08843994140625 437.5451354980469 172.39219665527344" stroke-width="0.0" fill="rgb(250, 180, 70)" opacity="0.66381896" stroke="rgb(174, 239, 77)" stroke-opacity="0.62074035" stroke-linecap="round" stroke-linejoin="round"/>
    <path d="M 438.49676513671875 268.6464538574219 C 499.737548828125 290.7016906738281 422.2438659667969 374.6041259765625 435.6368408203125 297.94921875 C 387.57958984375 287.448486328125 409.9726257324219 258.39202880859375 423.004150390625 285.3064270019531 C 413.9790954589844 269.935302734375 422.5003662109375 263.48931884765625 428.4112243652344 268.9918212890625 C 436.2254638671875 288.3389892578125 424.2835388183594 281.1172180175781 438.49676513671875 268.6464538574219" stroke-width="0.0" fill="rgb(234, 174, 46)" opacity="1.0" stroke="rgb(14, 52, 193)" stroke-opacity="0.78948224" stroke-linecap="round" stroke-linejoin="round"/>
    <path d="M 433.2375183105469 308.60491943359375 C 446.93524169921875 358.8106384277344 399.8412780761719 328.8791809082031 398.71002197265625 314.3030700683594 C 395.0052490234375 313.5975646972656 391.66058349609375 307.8937683105469 397.3189392089844 305.5799560546875 C 410.9132385253906 295.1699523925781 391.2942810058594 309.50787353515625 397.7472839355469 286.8017883300781 C 454.4766540527344 288.0443420410156 402.33746337890625 305.583984375 433.2375183105469 308.60491943359375" stroke-width="0.0" fill="rgb(255, 193, 42)" opacity="0.8027493" stroke="rgb(111, 64, 207)" stroke-opacity="0.9184449" stroke-linecap="round" stroke-linejoin="round"/>
    <path d="M 423.8983459472656 351.788330078125 C 424.968017578125 405.09393310546875 419.5382385253906 361.54833984375 403.0086975097656 368.2240905761719 C 427.7356872558594 346.4137878417969 411.0079345703125 365.7545471191406 410.2335510253906 342.064697265625 C 399.03179931640625 318.629150390625 414.96063232421875 318.7444152832031 411.4970703125 328.7840881347656 C 418.47918701171875 350.1330261230469 429.88238525390625 299.7077331542969 423.8983459472656 351.788330078125" stroke-width="0.0" fill="rgb(46, 57, 54)" opacity="1.0" stroke="rgb(38, 103, 19)" stroke-opacity="0.8477061" stroke-linecap="round" stroke-linejoin="round"/>
    <path d="M 161.71766662597656 430.6708984375 C 140.38987731933594 459.85150146484375 175.13522338867188 428.3399963378906 157.14491271972656 472.1120910644531 C 131.75640869140625 469.3969421386719 131.8385772705078 485.25 140.90000915527344 428.67138671875 C 141.30389404296875 414.0113525390625 147.9402618408203 430.23504638671875 151.97518920898438 421.66357421875 C 157.8396453857422 427.6678771972656 161.98587036132812 416.99713134765625 161.71766662597656 430.6708984375" stroke-width="0.0" fill="rgb(36, 50, 52)" opacity="0.902353" stroke="rgb(81, 78, 131)" stroke-opacity="0.32181734" stroke-linecap="round" stroke-linejoin="round"/>
    <path d="M 89.10188293457031 291.3448181152344 C 86.05325317382812 301.883056640625 77.51199340820312 300.3451232910156 61.54071807861328 325.9962463378906 C 51.172332763671875 325.31024169921875 48.54912185668945 320.83709716796875 65.34099578857422 316.8983154296875 C 64.3626480102539 280.1839294433594 60.81361389160156 274.15692138671875 83.21871948242188 284.1839294433594 C 86.56643676757812 285.17462158203125 87.9009017944336 288.815185546875 89.10188293457031 291.3448181152344" stroke-width="0.0" fill="rgb(133, 182, 144)" opacity="0.98819745" stroke="rgb(186, 181, 141)" stroke-opacity="0.6866124" stroke-linecap="round" stroke-linejoin="round"/>
    <path d="M 329.7200012207031 208.51934814453125 C 334.22625732421875 224.77261352539062 327.559326171875 220.97308349609375 298.1639404296875 221.58847045898438 C 297.1589050292969 219.41152954101562 300.06182861328125 226.92941284179688 298.8525390625 208.0045166015625 C 300.6236267089844 208.0824432373047 293.7375183105469 208.0467529296875 310.01885986328125 208.0428466796875 C 316.3570556640625 206.45033264160156 326.7845764160156 206.5846405029297 329.7200012207031 208.51934814453125" stroke-width="0.0" fill="rgb(10, 13, 28)" opacity="0.6824936" stroke="rgb(23, 228, 210)" stroke-opacity="0.72567844" stroke-linecap="round" stroke-linejoin="round"/>
    <path d="M 91.37281036376953 270.03973388671875 C 105.11051177978516 324.07135009765625 128.18228149414062 305.1130676269531 82.9597396850586 315.1804504394531 C 64.1360855102539 325.4331970214844 50.84646987915039 301.477783203125 66.59814453125 315.2454528808594 C 83.4029541015625 298.6616516113281 81.850341796875 295.8310241699219 79.37433624267578 299.7317810058594 C 82.6182861328125 293.26171875 77.17033386230469 264.341796875 91.37281036376953 270.03973388671875" stroke-width="0.0" fill="rgb(33, 49, 52)" opacity="0.75708336" stroke="rgb(117, 72, 144)" stroke-opacity="0.23668438" stroke-linecap="round" stroke-linejoin="round"/>
    <path d="M 94.97409057617188 282.1618957519531 C 87.47307586669922 285.5164794921875 79.42700958251953 284.0714416503906 69.52774047851562 279.26971435546875 C 65.85799407958984 284.49468994140625 64.45341491699219 278.9186096191406 59.53138732910156 251.95474243164062 C 58.905235290527344 254.77877807617188 60.43034744262695 254.1272430419922 79.02542114257812 258.8987121582031 C 105.61245727539062 264.30963134765625 101.50624084472656 246.9735870361328 94.97409057617188 282.1618957519531" stroke-width="0.0" fill="rgb(47, 72, 63)" opacity="0.7301018" stroke="rgb(204, 225, 97)" stroke-opacity="0.6467924" stroke-linecap="round" stroke-linejoin="round"/>
    <path d="M 109.31707763671875 123.47343444824219 C 108.64380645751953 131.76266479492188 111.4809799194336 130.81582641601562 103.84945678710938 127.7437744140625 C 94.58987426757812 123.1383056640625 94.88636016845703 121.69617462158203 97.22935485839844 130.9788818359375 C 81.76383972167969 112.04606628417969 85.01966857910156 95.71890258789062 89.22831726074219 101.59601593017578 C 99.99774932861328 106.1310806274414 106.25374603271484 112.4632339477539 109.31707763671875 123.47343444824219" stroke-width="0.0" fill="rgb(70, 104, 95)" opacity="0.7551104" stroke="rgb(115, 84, 111)" stroke-opacity="0.21180302" stroke-linecap="round" stroke-linejoin="round"/>
    <path d="M 312.38824462890625 269.0760192871094 C 311.4137268066406 269.9450988769531 317.06658935546875 270.5274353027344 297.4084777832031 269.92401123046875 C 293.12030029296875 269.2674255371094 294.24114990234375 275.14166259765625 294.318115234375 249.11627197265625 C 295.1352233886719 248.51417541503906 288.83221435546875 248.6272430419922 312.91461181640625 248.47999572753906 C 312.2669982910156 249.69631958007812 312.01971435546875 241.592529296875 312.38824462890625 269.0760192871094" stroke-width="0.0" fill="rgb(13, 25, 34)" opacity="0.9220358" stroke="rgb(55, 47, 229)" stroke-opacity="0.78856975" stroke-linecap="round" stroke-linejoin="round"/>
    <path d="M 262.33660888671875 178.43511962890625 C 262.70794677734375 177.1893768310547 258.4384460449219 177.84182739257812 247.63461303710938 181.4788818359375 C 247.89041137695312 183.6017303466797 243.38270568847656 174.94674682617188 241.72706604003906 169.03907775878906 C 234.93666076660156 161.2273406982422 239.60108947753906 165.80685424804688 250.4248046875 166.6907501220703 C 264.097900390625 153.48512268066406 261.7803039550781 159.11614990234375 262.33660888671875 178.43511962890625" stroke-width="0.0" fill="rgb(27, 39, 40)" opacity="0.9711441" stroke="rgb(174, 38, 23)" stroke-opacity="0.58841836" stroke-linecap="round" stroke-linejoin="round"/>
    <path d="M 287.26080322265625 163.23287963867188 C 282.4542541503906 177.7517547607422 280.1446533203125 179.33006286621094 277.46087646484375 176.17453002929688 C 269.5281677246094 176.3417510986328 263.4969787597656 176.50119018554688 265.60040283203125 176.49008178710938 C 267.310546875 156.50054931640625 267.5091857910156 155.01368713378906 283.05438232421875 170.74777221679688 C 280.6856689453125 169.67825317382812 288.66778564453125 164.6956329345703 287.26080322265625 163.23287963867188" stroke-width="0.0" fill="rgb(56, 62, 53)" opacity="0.8814832" stroke="rgb(74, 248, 139)" stroke-opacity="0.003893704" stroke-linecap="round" stroke-linejoin="round"/>
    <path d="M 283.88629150390625 169.17144775390625 C 281.66839599609375 172.34817504882812 278.55255126953125 172.76052856445312 271.5813903808594 177.97964477539062 C 261.86187744140625 177.88392639160156 265.0237731933594 177.1880645751953 264.51947021484375 177.118408203125 C 266.0894470214844 158.6624298095703 263.05938720703125 156.95545959472656 266.9878234863281 159.231689453125 C 279.0726623535156 159.85568237304688 285.06231689453125 160.2013397216797 283.88629150390625 169.17144775390625" stroke-width="0.0" fill="rgb(20, 29, 30)" opacity="0.98712486" stroke="rgb(49, 137, 16)" stroke-opacity="0.8609913" stroke-linecap="round" stroke-linejoin="round"/>
    <path d="M 76.78025817871094 328.101806640625 C 75.59236907958984 335.4126281738281 70.9760971069336 337.9839172363281 60.92787170410156 339.1610107421875 C 76.17842864990234 366.94122314453125 56.0122184753418 369.79364013671875 59.63695526123047 339.29998779296875 C 82.13931274414062 338.3175048828125 69.03611755371094 325.2366638183594 93.91072845458984 325.5431213378906 C 85.12322235107422 305.3883056640625 68.7031021118164 334.3003234863281 76.78025817871094 328.101806640625" stroke-width="0.0" fill="rgb(248, 159, 44)" opacity="0.9531301" stroke="rgb(206, 93, 2)" stroke-opacity="0.565612" stroke-linecap="round" stroke-linejoin="round"/>
    <path d="M 98.86548614501953 306.0064697265625 C 98.84422302246094 317.19561767578125 93.63185119628906 312.38995361328125 94.85031127929688 323.7098388671875 C 87.84619140625 313.9178466796875 80.60580444335938 314.3143310546875 82.63948059082031 326.8714904785156 C 59.702857971191406 313.4040222167969 83.41353607177734 303.17138671875 93.44803619384766 301.9208984375 C 93.01556396484375 298.70904541015625 97.13473510742188 299.7605285644531 98.86548614501953 306.0064697265625" stroke-width="0.0" fill="rgb(92, 109, 89)" opacity="0.9837844" stroke="rgb(116, 1, 69)" stroke-opacity="0.11195618" stroke-linecap="round" stroke-linejoin="round"/>
    <path d="M 94.44635772705078 299.99810791015625 C 90.31856536865234 316.3098449707031 86.46643829345703 314.00604248046875 82.39580535888672 321.3778991699219 C 69.40381622314453 331.4140930175781 66.97527313232422 329.2926025390625 63.63908767700195 329.2429504394531 C 101.59004974365234 311.045166015625 95.39618682861328 308.37481689453125 82.83843994140625 267.3506164550781 C 98.30789184570312 296.9775390625 95.70016479492188 310.0998229980469 94.44635772705078 299.99810791015625" stroke-width="0.0" fill="rgb(140, 157, 126)" opacity="0.78368616" stroke="rgb(106, 137, 5)" stroke-opacity="0.9818745" stroke-linecap="round" stroke-linejoin="round"/>
    <path d="M 98.76304626464844 306.30755615234375 C 91.03478240966797 334.9559631347656 80.93611145019531 296.035400390625 70.6734390258789 346.9275817871094 C 54.87202453613281 345.5540771484375 67.42776489257812 329.833740234375 61.61094665527344 323.1306457519531 C 77.83619689941406 301.9933166503906 82.50251007080078 291.94677734375 94.75658416748047 300.554931640625 C 94.58617401123047 296.8890380859375 95.48612213134766 298.0871276855469 98.76304626464844 306.30755615234375" stroke-width="0.0" fill="rgb(88, 226, 226)" opacity="0.37041292" stroke="rgb(77, 84, 85)" stroke-opacity="0.6061242" stroke-linecap="round" stroke-linejoin="round"/>
    <path d="M 470.1181335449219 255.50376892089844 C 462.2864074707031 264.0658874511719 452.1138916015625 256.8870544433594 435.96905517578125 270.6417541503906 C 430.837890625 275.4261169433594 428.2033996582031 264.4477844238281 429.4150390625 263.131591796875 C 423.7530517578125 243.8799591064453 403.0657958984375 239.99632263183594 423.1276550292969 229.78067016601562 C 483.3102722167969 207.97386169433594 481.2071228027344 205.73995971679688 470.1181335449219 255.50376892089844" stroke-width="0.0" fill="rgb(250, 138, 143)" opacity="0.95377797" stroke="rgb(49, 15, 37)" stroke-opacity="0.9138034" stroke-linecap="round" stroke-linejoin="round"/>
    <path d="M 369.66326904296875 346.76361083984375 C 371.2712707519531 386.0669250488281 371.4137268066406 391.101806640625 361.9820251464844 376.5206298828125 C 359.9712219238281 352.48358154296875 361.49945068359375 352.10357666015625 358.1568298339844 356.8271789550781 C 357.35546875 333.466552734375 350.2143249511719 331.82757568359375 359.5064697265625 339.2224426269531 C 371.17828369140625 340.1734924316406 370.6982116699219 337.1160583496094 369.66326904296875 346.76361083984375" stroke-width="0.0" fill="rgb(255, 255, 240)" opacity="0.8404799" stroke="rgb(181, 89, 116)" stroke-opacity="0.547957" stroke-linecap="round" stroke-linejoin="round"/>
    <path d="M 185.46365356445312 330.34002685546875 C 193.1079559326172 341.3019714355469 189.65383911132812 330.8958740234375 190.51437377929688 344.7015075683594 C 180.5899658203125 333.8364562988281 169.20814514160156 340.33880615234375 169.35305786132812 330.0829772949219 C 172.2724151611328 327.59210205078125 166.52301025390625 327.7913513183594 179.32131958007812 311.69293212890625 C 187.21954345703125 316.4059143066406 186.3297119140625 304.0481262207031 185.46365356445312 330.34002685546875" stroke-width="0.0" fill="rgb(255, 255, 240)" opacity="0.7876598" stroke="rgb(117, 157, 128)" stroke-opacity="0.1528606" stroke-linecap="round" stroke-linejoin="round"/>
    <path d="M 186.69863891601562 223.51870727539062 C 164.39089965820312 229.78318786621094 201.4028778076172 216.38296508789062 194.7162628173828 230.56417846679688 C 187.8847198486328 230.32708740234375 155.0075225830078 230.81857299804688 174.99766540527344 229.46214294433594 C 170.0050811767578 224.55438232421875 178.18971252441406 220.76280212402344 181.9781036376953 222.73826599121094 C 167.78115844726562 223.6143798828125 203.99386596679688 122.59259796142578 186.69863891601562 223.51870727539062" stroke-width="0.0" fill="rgb(253, 249, 232)" opacity="0.90370685" stroke="rgb(199, 84, 37)" stroke-opacity="0.49585235" stroke-linecap="round" stroke-linejoin="round"/>
    <path d="M 88.28852081298828 293.2617492675781 C 83.74439239501953 300.6859130859375 72.06962585449219 299.6100158691406 73.20263671875 318.02288818359375 C 41.32928466796875 299.6753845214844 5.849249362945557 269.4677734375 64.84857177734375 299.9421691894531 C 63.98709487915039 281.24261474609375 59.1421012878418 277.2232666015625 76.02239227294922 281.1301574707031 C 84.48237609863281 284.9691467285156 87.36799621582031 287.6988220214844 88.28852081298828 293.2617492675781" stroke-width="0.0" fill="rgb(106, 166, 153)" opacity="0.8564941" stroke="rgb(134, 140, 115)" stroke-opacity="0.46287996" stroke-linecap="round" stroke-linejoin="round"/>
    <path d="M 97.76797485351562 247.0404815673828 C 99.02163696289062 251.45040893554688 89.99264526367188 254.5463104248047 79.75089263916016 256.1038513183594 C 78.72496032714844 236.78094482421875 45.82102584838867 265.0290222167969 33.43565368652344 249.34144592285156 C 60.10350036621094 215.44107055664062 77.50442504882812 216.2655792236328 88.8952865600586 238.48483276367188 C 95.8262939453125 238.8173065185547 98.38452911376953 240.69093322753906 97.76797485351562 247.0404815673828" stroke-width="0.0" fill="rgb(230, 63, 78)" opacity="0.7179716" stroke="rgb(17, 96, 124)" stroke-opacity="0.74163014" stroke-linecap="round" stroke-linejoin="round"/>
    <path d="M 476.88726806640625 290.16204833984375 C 477.35638427734375 293.8036193847656 474.0030822753906 296.1299743652344 473.7825012207031 296.9812316894531 C 467.0789489746094 293.7564392089844 467.3658752441406 288.8301696777344 466.120361328125 286.4045104980469 C 466.87689208984375 281.0445861816406 469.7577819824219 276.26580810546875 470.4687805175781 276.93377685546875 C 473.754638671875 279.5043640136719 477.4979248046875 283.7315979003906 476.88726806640625 290.16204833984375" stroke-width="0.0" fill="rgb(0, 55, 57)" opacity="0.7519374" stroke="rgb(106, 231, 10)" stroke-opacity="0.1108309" stroke-linecap="round" stroke-linejoin="round"/>
    <path d="M 65.3384780883789 215.09629821777344 C 112.60572052001953 248.45339965820312 110.946044921875 202.72219848632812 58.95698547363281 207.20217895507812 C 42.668460845947266 206.78860473632812 33.464324951171875 184.67529296875 32.282527923583984 180.1324005126953 C 30.100271224975586 174.97283935546875 31.259164810180664 177.2830352783203 35.55618667602539 177.12832641601562 C 50.16181564331055 179.79527282714844 67.68183135986328 187.08148193359375 65.3384780883789 215.09629821777344" stroke-width="0.0" fill="rgb(59, 116, 102)" opacity="0.7046986" stroke="rgb(34, 126, 223)" stroke-opacity="0.40571332" stroke-linecap="round" stroke-linejoin="round"/>
    <path d="M 466.74432373046875 294.07025146484375 C 470.55670166015625 299.3874206542969 470.5811767578125 311.2872314453125 463.2289123535156 304.58740234375 C 461.1346435546875 304.23675537109375 457.98822021484375 300.0935974121094 453.318603515625 300.51629638671875 C 481.1366271972656 276.15716552734375 434.99359130859375 298.8193359375 458.7659606933594 274.2419738769531 C 472.08831787109375 277.36962890625 456.6161193847656 288.6444396972656 466.74432373046875 294.07025146484375" stroke-width="0.0" fill="rgb(0, 33, 43)" opacity="0.7709727" stroke="rgb(148, 39, 200)" stroke-opacity="0.15162215" stroke-linecap="round" stroke-linejoin="round"/>
    <path d="M 78.2642593383789 280.1109924316406 C 86.28459167480469 282.5994567871094 86.53579711914062 282.1646423339844 79.97523498535156 279.9483337402344 C 61.299163818359375 281.16485595703125 68.56844329833984 280.9185791015625 63.384605407714844 271.1115417480469 C 52.840354919433594 299.123291015625 43.080867767333984 252.44422912597656 35.578704833984375 260.182373046875 C 63.47355270385742 232.3114471435547 87.29571533203125 275.68603515625 78.2642593383789 280.1109924316406" stroke-width="0.0" fill="rgb(223, 40, 66)" opacity="0.649407" stroke="rgb(163, 34, 224)" stroke-opacity="0.7516185" stroke-linecap="round" stroke-linejoin="round"/>
    <path d="M 332.4620361328125 197.47413635253906 C 337.3710632324219 218.68971252441406 338.8287048339844 213.77391052246094 323.960693359375 235.3493194580078 C 323.4618225097656 221.01904296875 324.6739501953125 209.6505126953125 317.4613952636719 193.2527618408203 C 312.3230285644531 177.8960723876953 310.4524841308594 182.63111877441406 318.0635681152344 189.54879760742188 C 326.8540954589844 186.7484130859375 332.7783203125 197.17149353027344 332.4620361328125 197.47413635253906" stroke-width="0.0" fill="rgb(148, 191, 162)" opacity="0.9841708" stroke="rgb(149, 111, 228)" stroke-opacity="0.4691355" stroke-linecap="round" stroke-linejoin="round"/>
    <path d="M 163.4423065185547 211.89439392089844 C 155.43701171875 235.30262756347656 165.77615356445312 224.3691864013672 142.5313720703125 212.19932556152344 C 113.8329849243164 201.79229736328125 94.29090881347656 230.61001586914062 118.00840759277344 190.01931762695312 C 31.80937385559082 90.4731674194336 107.18988800048828 202.21728515625 152.0222930908203 86.95413970947266 C 158.78338623046875 119.5524673461914 161.39779663085938 156.12831115722656 163.4423065185547 211.89439392089844" stroke-width="0.0" fill="rgb(96, 107, 66)" opacity="0.8267296" stroke="rgb(198, 32, 247)" stroke-opacity="0.34857774" stroke-linecap="round" stroke-linejoin="round"/>
    <path d="M 81.03389739990234 202.1786346435547 C 79.58241271972656 190.642578125 78.0053482055664 178.41751098632812 62.363895416259766 177.59182739257812 C 47.80186462402344 175.03256225585938 43.33517837524414 164.39453125 34.41593551635742 157.2892608642578 C 38.65068054199219 160.3964385986328 34.887451171875 159.29820251464844 36.683387756347656 157.00686645507812 C 48.96299362182617 155.72496032714844 66.00830078125 158.3406524658203 81.03389739990234 202.1786346435547" stroke-width="0.0" fill="rgb(237, 8, 1)" opacity="0.6489339" stroke="rgb(181, 143, 142)" stroke-opacity="0.032827772" stroke-linecap="round" stroke-linejoin="round"/>
    <path d="M 438.3680419921875 115.2122802734375 C 430.6150817871094 135.42056274414062 427.8620910644531 133.6453857421875 416.35198974609375 139.88548278808594 C 398.1220703125 190.5867156982422 398.11309814453125 176.29763793945312 415.33453369140625 139.33335876464844 C 414.873291015625 128.8492889404297 416.2277526855469 113.31543731689453 435.8431701660156 100.61175537109375 C 440.5908508300781 98.52005004882812 442.4638671875 94.91889953613281 438.3680419921875 115.2122802734375" stroke-width="0.0" fill="rgb(1, 70, 51)" opacity="0.66283625" stroke="rgb(141, 76, 8)" stroke-opacity="0.8019698" stroke-linecap="round" stroke-linejoin="round"/>
    <path d="M 424.7519226074219 88.0610122680664 C 420.990966796875 103.92089080810547 415.4135437011719 108.22386932373047 402.3607177734375 111.49613952636719 C 406.87164306640625 138.91505432128906 390.533203125 77.11814880371094 414.9861755371094 61.916160583496094 C 394.7514953613281 131.29669189453125 397.9010314941406 101.48886108398438 419.99920654296875 83.33361053466797 C 425.4162902832031 85.44070434570312 424.8373718261719 79.7274398803711 424.7519226074219 88.0610122680664" stroke-width="0.0" fill="rgb(233, 135, 0)" opacity="0.83307904" stroke="rgb(194, 168, 194)" stroke-opacity="0.6276061" stroke-linecap="round" stroke-linejoin="round"/>
    <path d="M 448.306396484375 149.93292236328125 C 438.19879150390625 167.2581787109375 436.2252197265625 167.3955841064453 422.02117919921875 173.3258819580078 C 405.7020263671875 173.20346069335938 412.2872314453125 178.95248413085938 408.1796875 179.62831115722656 C 410.97314453125 156.62123107910156 433.0117492675781 146.3649139404297 447.43023681640625 151.6658935546875 C 448.2186279296875 150.00059509277344 448.56982421875 149.3982696533203 448.306396484375 149.93292236328125" stroke-width="0.0" fill="rgb(25, 82, 56)" opacity="0.69775367" stroke="rgb(123, 33, 182)" stroke-opacity="0.63469213" stroke-linecap="round" stroke-linejoin="round"/>
    <path d="M 105.57038879394531 115.3112564086914 C 112.72718811035156 127.96085357666016 102.31363677978516 122.0624008178711 94.07534790039062 127.11719512939453 C 92.61420440673828 124.18209838867188 84.87037658691406 119.64083862304688 85.1805191040039 100.60107421875 C 86.0509262084961 99.95545196533203 86.32946014404297 99.67716979980469 85.9505615234375 99.94955444335938 C 95.55345153808594 103.79254150390625 99.67789459228516 106.09687042236328 105.57038879394531 115.3112564086914" stroke-width="0.0" fill="rgb(25, 86, 66)" opacity="0.574019" stroke="rgb(175, 72, 173)" stroke-opacity="0.783071" stroke-linecap="round" stroke-linejoin="round"/>
    <path d="M 119.21255493164062 188.10618591308594 C 114.20207214355469 184.1042022705078 105.90426635742188 188.27708435058594 92.5613021850586 178.64768981933594 C 79.53404235839844 190.0032196044922 71.9343032836914 203.16685485839844 81.38003540039062 185.54379272460938 C 83.64861297607422 157.3948516845703 82.25920104980469 159.70008850097656 93.14705657958984 160.8141632080078 C 94.89640045166016 167.97799682617188 105.93943786621094 168.9325408935547 119.21255493164062 188.10618591308594" stroke-width="0.0" fill="rgb(78, 32, 19)" opacity="0.71357125" stroke="rgb(198, 233, 93)" stroke-opacity="0.63770986" stroke-linecap="round" stroke-linejoin="round"/>
    <path d="M 112.48527526855469 141.72711181640625 C 125.28384399414062 164.85826110839844 123.44917297363281 167.67294311523438 108.8779525756836 136.3743896484375 C 103.99346923828125 136.0419464111328 95.83404541015625 133.6981964111328 89.9068603515625 121.21359252929688 C 85.64363861083984 111.55007934570312 86.73592376708984 113.6924819946289 96.9531021118164 119.74304962158203 C 112.90584564208984 115.73883056640625 108.77269744873047 127.56926727294922 112.48527526855469 141.72711181640625" stroke-width="0.0" fill="rgb(50, 87, 75)" opacity="1.0" stroke="rgb(25, 142, 228)" stroke-opacity="0.5577627" stroke-linecap="round" stroke-linejoin="round"/>
    <path d="M 292.0711669921875 320.4493713378906 C 291.4614562988281 346.7385559082031 292.9023742675781 339.7918701171875 289.9206237792969 340.81158447265625 C 268.9219970703125 340.3755798339844 274.0966796875 340.6283264160156 273.6721496582031 340.4552001953125 C 272.88836669921875 316.6882019042969 275.8213195800781 319.2406311035156 267.2576904296875 319.2986755371094 C 295.88287353515625 320.2898864746094 291.2977600097656 319.4002685546875 292.0711669921875 320.4493713378906" stroke-width="0.0" fill="rgb(23, 34, 42)" opacity="0.94672835" stroke="rgb(35, 185, 91)" stroke-opacity="0.5728288" stroke-linecap="round" stroke-linejoin="round"/>
    <path d="M 262.46026611328125 158.06651306152344 C 261.57769775390625 179.94009399414062 261.9687194824219 174.52040100097656 247.87713623046875 180.5493927001953 C 247.0945587158203 183.34986877441406 245.14170837402344 177.5077667236328 237.82508850097656 164.37940979003906 C 237.8975372314453 164.7130889892578 247.26373291015625 159.13504028320312 262.45501708984375 158.42530822753906 C 263.0222473144531 157.56472778320312 262.9761962890625 157.64938354492188 262.46026611328125 158.06651306152344" stroke-width="0.0" fill="rgb(29, 40, 45)" opacity="1.0" stroke="rgb(251, 150, 96)" stroke-opacity="0.7629331" stroke-linecap="round" stroke-linejoin="round"/>
    <path d="M 86.26740264892578 253.9656219482422 C 100.44783782958984 261.23394775390625 93.96903991699219 271.60272216796875 82.42649841308594 270.07684326171875 C 71.38201141357422 279.22039794921875 64.75699615478516 272.9544982910156 58.067771911621094 260.3681945800781 C 58.66935729980469 241.94879150390625 60.39979934692383 239.4370574951172 68.87336730957031 239.1180877685547 C 101.67545318603516 234.50865173339844 104.53540802001953 249.37948608398438 86.26740264892578 253.9656219482422" stroke-width="0.0" fill="rgb(221, 64, 76)" opacity="0.9372522" stroke="rgb(200, 180, 144)" stroke-opacity="0.68450505" stroke-linecap="round" stroke-linejoin="round"/>
    <path d="M 188.80775451660156 258.3361511230469 C 189.32449340820312 287.5585632324219 190.05535888671875 293.715576171875 182.43994140625 273.8484802246094 C 161.56103515625 281.45867919921875 174.12612915039062 279.8147888183594 175.52452087402344 260.1885986328125 C 179.91131591796875 264.04010009765625 174.4062042236328 250.99127197265625 181.9169158935547 244.25001525878906 C 189.82566833496094 239.69454956054688 187.6387939453125 247.54171752929688 188.80775451660156 258.3361511230469" stroke-width="0.0" fill="rgb(255, 255, 239)" opacity="0.76078236" stroke="rgb(60, 215, 221)" stroke-opacity="0.76769996" stroke-linecap="round" stroke-linejoin="round"/>
    <path d="M 361.2432556152344 406.72998046875 C 362.7991027832031 418.92767333984375 362.26654052734375 426.6821594238281 347.678955078125 421.0845947265625 C 358.89984130859375 448.2445983886719 342.1593322753906 419.2078857421875 344.2115478515625 399.1266174316406 C 351.37640380859375 364.805908203125 344.7508850097656 342.5364685058594 357.4067077636719 333.8684997558594 C 363.39263916015625 397.4759521484375 363.439697265625 420.04376220703125 361.2432556152344 406.72998046875" stroke-width="0.0" fill="rgb(224, 129, 0)" opacity="0.8172148" stroke="rgb(217, 201, 43)" stroke-opacity="0.91685003" stroke-linecap="round" stroke-linejoin="round"/>
    <path d="M 366.7029724121094 342.295654296875 C 352.02923583984375 344.6750793457031 351.2459411621094 336.0335693359375 348.909912109375 353.926025390625 C 344.7785339355469 378.6905822753906 336.7210693359375 360.616455078125 345.72747802734375 342.9613342285156 C 354.7332458496094 316.34259033203125 344.86907958984375 304.2060852050781 339.191162109375 330.7168273925781 C 351.9495544433594 328.5048828125 358.76446533203125 333.9564208984375 366.7029724121094 342.295654296875" stroke-width="0.0" fill="rgb(254, 252, 237)" opacity="0.93406457" stroke="rgb(25, 162, 97)" stroke-opacity="0.5212381" stroke-linecap="round" stroke-linejoin="round"/>
    <path d="M 208.74363708496094 42.6668701171875 C 203.7847442626953 35.82299041748047 193.71946716308594 38.91809844970703 198.14732360839844 37.98055648803711 C 194.32652282714844 38.12019348144531 191.30984497070312 37.74801254272461 193.40989685058594 38.40232849121094 C 190.2725830078125 40.050254821777344 190.4343719482422 37.101722717285156 186.9908905029297 40.1466064453125 C 187.43875122070312 43.23208236694336 183.8921661376953 42.53817367553711 208.74363708496094 42.6668701171875" stroke-width="0.0" fill="rgb(255, 255, 255)" opacity="0.51709694" stroke="rgb(85, 109, 196)" stroke-opacity="0.48376745" stroke-linecap="round" stroke-linejoin="round"/>
    <path d="M 271.88507080078125 164.52882385253906 C 271.1346130371094 172.49038696289062 269.1020812988281 160.97218322753906 266.5634765625 177.24253845214844 C 265.19464111328125 162.47860717773438 266.6814880371094 156.94638061523438 267.7548828125 158.96969604492188 C 267.69390869140625 163.2203826904297 266.6547546386719 156.1527557373047 265.372802734375 158.79885864257812 C 269.74774169921875 159.41189575195312 270.39678955078125 163.72593688964844 271.88507080078125 164.52882385253906" stroke-width="0.0" fill="rgb(36, 49, 51)" opacity="0.9051754" stroke="rgb(13, 65, 252)" stroke-opacity="0.43399087" stroke-linecap="round" stroke-linejoin="round"/>
    <path d="M 208.8145294189453 42.01914596557617 C 210.51226806640625 36.34143829345703 201.31771850585938 37.403282165527344 206.7978973388672 36.99480438232422 C 207.4771728515625 38.42800521850586 206.25442504882812 36.62128448486328 202.0514373779297 37.16926193237305 C 202.07962036132812 42.194759368896484 202.8822021484375 41.40735626220703 202.90939331054688 38.596946716308594 C 199.2388153076172 41.01021957397461 187.5933837890625 42.1343879699707 208.8145294189453 42.01914596557617" stroke-width="0.0" fill="rgb(255, 255, 255)" opacity="0.37971604" stroke="rgb(53, 250, 31)" stroke-opacity="0.50454044" stroke-linecap="round" stroke-linejoin="round"/>
    <path d="M 370.82781982421875 258.4410400390625 C 374.13775634765625 258.08978271484375 365.8245849609375 269.50286865234375 368.7767333984375 270.5964050292969 C 356.36285400390625 262.0046081542969 341.9462585449219 253.60227966308594 358.9027404785156 262.52978515625 C 358.3526916503906 267.9821472167969 361.75006103515625 243.1276397705078 363.22943115234375 241.53919982910156 C 380.67919921875 238.7185516357422 363.29022216796875 251.81344604492188 370.82781982421875 258.4410400390625" stroke-width="0.0" fill="rgb(242, 230, 202)" opacity="0.8834669" stroke="rgb(219, 2, 150)" stroke-opacity="0.10152823" stroke-linecap="round" stroke-linejoin="round"/>
    <path d="M 363.4671630859375 267.0539855957031 C 369.87982177734375 268.45538330078125 371.17779541015625 269.5371398925781 349.2937927246094 262.9335632324219 C 358.7567138671875 266.4112548828125 365.0494079589844 258.0214538574219 364.3553466796875 257.9494323730469 C 360.44500732421875 265.6051025390625 358.9333801269531 260.9220886230469 365.1047668457031 239.14549255371094 C 367.12847900390625 250.075927734375 371.2948303222656 280.3480529785156 363.4671630859375 267.0539855957031" stroke-width="0.0" fill="rgb(255, 255, 247)" opacity="0.7284637" stroke="rgb(152, 144, 161)" stroke-opacity="0.71960974" stroke-linecap="round" stroke-linejoin="round"/>
    <path d="M 439.9339294433594 394.4522399902344 C 429.6853332519531 403.46728515625 440.5833435058594 399.89654541015625 429.6191101074219 403.20709228515625 C 429.78857421875 395.8485412597656 427.8059997558594 390.8768310546875 427.6004638671875 387.13446044921875 C 428.05340576171875 395.8105163574219 426.832763671875 383.0874328613281 427.25244140625 370.1763916015625 C 432.3177795410156 402.052001953125 430.8106994628906 378.4058837890625 439.9339294433594 394.4522399902344" stroke-width="0.0" fill="rgb(44, 66, 55)" opacity="0.96986467" stroke="rgb(128, 249, 85)" stroke-opacity="0.8971305" stroke-linecap="round" stroke-linejoin="round"/>
    <path d="M 187.63604736328125 465.4453430175781 C 185.98577880859375 469.4361267089844 190.08267211914062 472.2411193847656 184.6510772705078 471.99755859375 C 162.57879638671875 471.3852233886719 166.6238250732422 473.5560607910156 167.34619140625 468.9358215332031 C 169.15737915039062 443.0181579589844 150.62326049804688 452.341552734375 177.97860717773438 448.1314392089844 C 200.2884063720703 448.8622741699219 188.19851684570312 445.1035461425781 187.63604736328125 465.4453430175781" stroke-width="0.0" fill="rgb(42, 55, 57)" opacity="1.0" stroke="rgb(151, 16, 66)" stroke-opacity="0.7463756" stroke-linecap="round" stroke-linejoin="round"/>
    <path d="M 289.1067199707031 164.1220703125 C 283.78369140625 173.6952667236328 281.2786560058594 176.80731201171875 274.5617370605469 176.65792846679688 C 270.70513916015625 166.0577392578125 270.0252990722656 165.2981719970703 266.1845703125 164.3980255126953 C 269.71551513671875 164.4427947998047 273.5742492675781 163.5950927734375 267.0160827636719 160.23907470703125 C 272.44036865234375 157.14077758789062 280.20263671875 160.41485595703125 289.1067199707031 164.1220703125" stroke-width="0.0" fill="rgb(30, 61, 48)" opacity="0.8160326" stroke="rgb(253, 237, 161)" stroke-opacity="0.87209326" stroke-linecap="round" stroke-linejoin="round"/>
    <path d="M 348.0416564941406 216.62510681152344 C 347.2298278808594 235.96392822265625 351.4908752441406 226.6845703125 332.4996643066406 230.93792724609375 C 348.5360412597656 228.8455810546875 360.0592041015625 233.4266815185547 334.7752685546875 229.2834930419922 C 340.1880798339844 193.32107543945312 317.88427734375 177.55950927734375 340.76971435546875 192.5308074951172 C 349.20440673828125 209.76588439941406 347.6351013183594 212.50941467285156 348.0416564941406 216.62510681152344" stroke-width="0.0" fill="rgb(255, 253, 241)" opacity="0.8116542" stroke="rgb(33, 142, 196)" stroke-opacity="0.7462483" stroke-linecap="round" stroke-linejoin="round"/>
    <path d="M 286.7991943359375 164.08837890625 C 272.095947265625 163.60720825195312 274.49652099609375 167.90179443359375 268.37152099609375 174.12132263183594 C 264.102294921875 179.27676391601562 265.55548095703125 176.0511932373047 266.630859375 158.6468048095703 C 267.63690185546875 159.609619140625 268.8017272949219 160.8917694091797 266.02947998046875 158.19818115234375 C 273.1470031738281 159.65084838867188 278.34820556640625 159.2684326171875 286.7991943359375 164.08837890625" stroke-width="0.0" fill="rgb(24, 26, 37)" opacity="0.7080423" stroke="rgb(82, 90, 192)" stroke-opacity="0.06943902" stroke-linecap="round" stroke-linejoin="round"/>
    <path d="M 323.0970153808594 221.54241943359375 C 318.3953857421875 220.74395751953125 295.17132568359375 221.7440643310547 298.3403625488281 220.07017517089844 C 311.44976806640625 213.38876342773438 307.1885681152344 216.17510986328125 301.1312255859375 219.1571044921875 C 301.16888427734375 217.38900756835938 308.60430908203125 218.07913208007812 320.1601867675781 209.02647399902344 C 320.4797058105469 205.03073120117188 322.911865234375 206.14654541015625 323.0970153808594 221.54241943359375" stroke-width="0.0" fill="rgb(20, 31, 37)" opacity="0.8350091" stroke="rgb(142, 121, 125)" stroke-opacity="0.78801394" stroke-linecap="round" stroke-linejoin="round"/>
    <path d="M 95.04202270507812 261.2353210449219 C 96.32820892333984 263.3453063964844 92.71886444091797 276.33123779296875 81.98686981201172 266.885009765625 C 77.93451690673828 268.50653076171875 73.88450622558594 270.68304443359375 80.03739166259766 272.4774169921875 C 87.9870834350586 258.4317626953125 95.65789031982422 246.82662963867188 82.68085479736328 253.50502014160156 C 93.73289489746094 254.96551513671875 94.20270538330078 259.41009521484375 95.04202270507812 261.2353210449219" stroke-width="0.0" fill="rgb(163, 38, 58)" opacity="0.6160624" stroke="rgb(180, 14, 158)" stroke-opacity="0.7201241" stroke-linecap="round" stroke-linejoin="round"/>
    <path d="M 190.50360107421875 240.875244140625 C 190.01609802246094 265.9986877441406 191.43594360351562 262.1482238769531 187.1259765625 260.3998718261719 C 171.80322265625 274.563720703125 169.1853790283203 266.94903564453125 178.6505889892578 258.0269775390625 C 178.14439392089844 219.69134521484375 179.18455505371094 252.41246032714844 179.69317626953125 241.35910034179688 C 198.15647888183594 244.69970703125 192.08547973632812 232.1788787841797 190.50360107421875 240.875244140625" stroke-width="0.0" fill="rgb(248, 243, 227)" opacity="1.0" stroke="rgb(204, 56, 99)" stroke-opacity="0.568316" stroke-linecap="round" stroke-linejoin="round"/>
    <path d="M 396.2346496582031 130.97291564941406 C 401.17193603515625 132.0577850341797 397.0182800292969 131.29852294921875 389.5038146972656 131.8042755126953 C 382.492431640625 130.33895874023438 385.6007385253906 131.24917602539062 380.1603698730469 111.56446838378906 C 375.2142639160156 102.9482421875 386.8541259765625 109.54560089111328 377.4003601074219 103.95496368408203 C 390.4815368652344 120.79308319091797 394.7088623046875 126.73368835449219 396.2346496582031 130.97291564941406" stroke-width="0.0" fill="rgb(255, 247, 199)" opacity="0.83150065" stroke="rgb(68, 196, 3)" stroke-opacity="0.41789958" stroke-linecap="round" stroke-linejoin="round"/>
    <path d="M 363.1055603027344 128.09628295898438 C 364.41375732421875 162.35389709472656 356.8318176269531 149.02352905273438 349.88653564453125 127.3806381225586 C 349.7150573730469 123.81143188476562 351.6786193847656 132.68634033203125 345.3522033691406 119.02857208251953 C 346.68304443359375 114.32735443115234 364.5379333496094 115.0035171508789 354.18548583984375 120.88960266113281 C 354.67083740234375 118.6103286743164 357.0232238769531 119.69003295898438 363.1055603027344 128.09628295898438" stroke-width="0.0" fill="rgb(64, 166, 162)" opacity="0.44762057" stroke="rgb(197, 212, 206)" stroke-opacity="0.68415046" stroke-linecap="round" stroke-linejoin="round"/>
    <path d="M 475.5420227050781 226.0183563232422 C 384.7916564941406 210.5485076904297 465.7560119628906 272.6526184082031 452.1435546875 285.0081787109375 C 457.38458251953125 238.404052734375 415.3509521484375 253.51266479492188 420.76287841796875 219.41668701171875 C 445.8661804199219 218.42791748046875 413.1252746582031 206.2233428955078 451.58837890625 201.99270629882812 C 484.8518371582031 204.93467712402344 463.3597106933594 210.07374572753906 475.5420227050781 226.0183563232422" stroke-width="0.0" fill="rgb(249, 166, 177)" opacity="0.84094465" stroke="rgb(203, 241, 118)" stroke-opacity="0.9329066" stroke-linecap="round" stroke-linejoin="round"/>
    <path d="M 414.8431091308594 407.22900390625 C 406.337890625 444.1357421875 421.2011413574219 422.9788818359375 392.0905456542969 423.33331298828125 C 390.7423095703125 440.8265380859375 412.7868957519531 416.8623962402344 391.80340576171875 413.7835998535156 C 465.89715576171875 346.29901123046875 385.0965270996094 419.80462646484375 404.6558532714844 414.22576904296875 C 423.4422302246094 396.3257141113281 421.73504638671875 416.44659423828125 414.8431091308594 407.22900390625" stroke-width="0.0" fill="rgb(38, 63, 57)" opacity="0.756363" stroke="rgb(217, 176, 143)" stroke-opacity="0.9952415" stroke-linecap="round" stroke-linejoin="round"/>
    <path d="M 175.26675415039062 328.1918029785156 C 172.87733459472656 332.8559265136719 167.05813598632812 337.3329772949219 161.92266845703125 338.3796081542969 C 138.9404754638672 334.7164306640625 142.82505798339844 341.56109619140625 147.11651611328125 332.9222717285156 C 154.4921112060547 324.1092834472656 160.75697326660156 322.1044616699219 166.40573120117188 321.6260681152344 C 183.80178833007812 322.008544921875 179.2137908935547 318.7254333496094 175.26675415039062 328.1918029785156" stroke-width="0.0" fill="rgb(92, 139, 113)" opacity="1.0" stroke="rgb(224, 250, 120)" stroke-opacity="0.42715064" stroke-linecap="round" stroke-linejoin="round"/>
    <path d="M 282.7827453613281 176.61578369140625 C 278.120849609375 184.54043579101562 280.437744140625 181.7127227783203 276.0935363769531 180.84259033203125 C 270.8776550292969 178.37254333496094 264.1167297363281 176.99710083007812 266.1573486328125 177.86318969726562 C 265.2203369140625 168.1363525390625 265.4588317871094 164.357177734375 272.78680419921875 162.3874053955078 C 292.3550109863281 164.34146118164062 290.50592041015625 159.58355712890625 282.7827453613281 176.61578369140625" stroke-width="0.0" fill="rgb(29, 38, 44)" opacity="0.9998723" stroke="rgb(135, 144, 38)" stroke-opacity="0.3979388" stroke-linecap="round" stroke-linejoin="round"/>
    <path d="M 404.860595703125 137.2399444580078 C 406.9845275878906 165.4293975830078 403.90020751953125 100.97452545166016 406.13641357421875 135.61651611328125 C 384.3470764160156 132.251708984375 382.4454040527344 130.99713134765625 382.0840759277344 125.1993179321289 C 378.5693359375 108.71700286865234 379.8446350097656 112.06409454345703 387.1733093261719 114.74778747558594 C 396.4460144042969 121.30709838867188 396.6248474121094 125.75241088867188 404.860595703125 137.2399444580078" stroke-width="0.0" fill="rgb(224, 109, 0)" opacity="0.9095634" stroke="rgb(131, 147, 205)" stroke-opacity="0.38592356" stroke-linecap="round" stroke-linejoin="round"/>
    <path d="M 84.62077331542969 326.912109375 C 74.64838409423828 322.2935485839844 63.10829162597656 330.2977600097656 64.4267349243164 333.1309509277344 C 95.33647155761719 344.4749755859375 64.68728637695312 313.0813293457031 47.77199935913086 336.3118896484375 C 24.218486785888672 281.68310546875 9.7213773727417 277.53466796875 74.24329376220703 321.28216552734375 C 75.08695220947266 298.5968322753906 77.29513549804688 312.0361633300781 84.62077331542969 326.912109375" stroke-width="0.0" fill="rgb(94, 158, 146)" opacity="0.88176113" stroke="rgb(218, 154, 189)" stroke-opacity="0.39352658" stroke-linecap="round" stroke-linejoin="round"/>
    <path d="M 368.7090759277344 113.15997314453125 C 368.4148254394531 145.77188110351562 369.7455749511719 151.46463012695312 365.7880554199219 137.649169921875 C 350.17376708984375 124.82743072509766 363.2867126464844 116.49656677246094 330.6321105957031 115.37813568115234 C 341.3691711425781 113.34286499023438 359.5967102050781 115.43437194824219 373.3186950683594 114.18880462646484 C 358.898681640625 120.2943115234375 381.07000732421875 114.64793395996094 368.7090759277344 113.15997314453125" stroke-width="0.0" fill="rgb(205, 204, 166)" opacity="0.8400616" stroke="rgb(105, 225, 134)" stroke-opacity="0.38380602" stroke-linecap="round" stroke-linejoin="round"/>
    <path d="M 367.6475524902344 129.5522918701172 C 368.29925537109375 138.8953857421875 362.7485656738281 146.59518432617188 354.66455078125 138.33433532714844 C 362.0331726074219 145.81182861328125 361.0224914550781 134.43922424316406 355.25982666015625 129.35507202148438 C 350.7940368652344 126.68382263183594 353.7559814453125 110.61746978759766 340.2164611816406 117.19495391845703 C 379.64154052734375 113.4891586303711 365.9352722167969 115.46546936035156 367.6475524902344 129.5522918701172" stroke-width="0.0" fill="rgb(255, 252, 236)" opacity="0.8810258" stroke="rgb(0, 35, 39)" stroke-opacity="0.61901456" stroke-linecap="round" stroke-linejoin="round"/>
    <path d="M 483.0684509277344 345.8820495605469 C 469.51513671875 352.9914855957031 487.3543395996094 341.5316162109375 463.8394775390625 369.51312255859375 C 470.90313720703125 389.0423889160156 443.6688537597656 396.39703369140625 470.6734619140625 346.7703552246094 C 464.4715270996094 345.3687438964844 466.073486328125 335.1333312988281 480.6360778808594 336.0412292480469 C 486.4362487792969 335.275146484375 490.6192321777344 337.1178283691406 483.0684509277344 345.8820495605469" stroke-width="0.0" fill="rgb(34, 61, 57)" opacity="0.8795375" stroke="rgb(107, 205, 129)" stroke-opacity="0.017798498" stroke-linecap="round" stroke-linejoin="round"/>
    <path d="M 79.17693328857422 146.833740234375 C 99.35262298583984 163.76918029785156 97.29510498046875 170.89724731445312 83.40617370605469 149.63186645507812 C 62.88140106201172 163.23703002929688 69.86112213134766 185.533447265625 70.22992706298828 146.1519775390625 C 71.31269073486328 135.13546752929688 79.31734466552734 127.51709747314453 82.77394104003906 125.77423095703125 C 80.49520874023438 123.00318145751953 90.79034423828125 134.64791870117188 79.17693328857422 146.833740234375" stroke-width="0.0" fill="rgb(241, 26, 24)" opacity="0.69371897" stroke="rgb(155, 199, 76)" stroke-opacity="0.49722087" stroke-linecap="round" stroke-linejoin="round"/>
    <path d="M 491.554443359375 239.8275909423828 C 476.99853515625 255.04330444335938 514.36767578125 242.678466796875 464.7750549316406 278.7305908203125 C 451.5725402832031 269.76318359375 442.7245178222656 290.6518859863281 441.2638244628906 257.238525390625 C 476.1335754394531 259.5542297363281 476.05169677734375 235.01922607421875 475.1759338378906 207.38027954101562 C 487.65155029296875 224.04420471191406 481.9411926269531 232.34176635742188 491.554443359375 239.8275909423828" stroke-width="0.0" fill="rgb(241, 40, 61)" opacity="0.57607734" stroke="rgb(90, 77, 173)" stroke-opacity="0.31657034" stroke-linecap="round" stroke-linejoin="round"/>
  </g>
</svg>
