<?xml version="1.0" ?>
<svg xmlns="http://www.w3.org/2000/svg" version="1.1" width="512" height="510">
  <defs/>
  <g>
    <path d="M 126.3800048828125 25.669170379638672 C 112.8978042602539 49.1644287109375 107.5921401977539 49.11360549926758 77.54167938232422 61.39568328857422 C 46.33788299560547 56.45779800415039 43.284725189208984 54.159706115722656 38.873287200927734 32.0147590637207 C 41.8885498046875 -9.714435577392578 51.55961227416992 -8.878798484802246 97.1476821899414 -11.976831436157227 C 103.7350845336914 -1.0560535192489624 115.74532318115234 -13.882800102233887 126.3800048828125 25.669170379638672" stroke-width="0.0" fill="rgb(244, 228, 208)" opacity="0.45483342" stroke="rgb(28, 250, 187)" stroke-opacity="0.56040895" stroke-linecap="round" stroke-linejoin="round"/>
    <path d="M 286.8244934082031 432.61175537109375 C 288.162109375 434.30364990234375 300.4618225097656 433.9502258300781 263.29022216796875 434.00128173828125 C 263.45941162109375 433.9222717285156 263.3476867675781 441.8990173339844 263.126708984375 424.0003662109375 C 267.6217346191406 424.0003662109375 250.6983642578125 423.9991149902344 286.9095764160156 424.0000915527344 C 286.5431213378906 425.6046142578125 286.6560363769531 417.7079772949219 286.8244934082031 432.61175537109375" stroke-width="0.0" fill="rgb(254, 248, 253)" opacity="0.9143837" stroke="rgb(228, 249, 6)" stroke-opacity="0.7641643" stroke-linecap="round" stroke-linejoin="round"/>
    <path d="M 259.4384765625 210.79434204101562 C 171.26718139648438 213.8491668701172 193.07022094726562 203.9312286376953 187.83950805664062 226.04681396484375 C 167.8667755126953 224.56735229492188 188.07034301757812 235.5268096923828 168.23818969726562 178.82005310058594 C 226.90553283691406 164.18724060058594 177.4285125732422 197.82675170898438 194.28778076171875 218.060302734375 C 192.12062072753906 207.1180877685547 163.83755493164062 211.7603302001953 259.4384765625 210.79434204101562" stroke-width="0.0" fill="rgb(254, 246, 224)" opacity="0.9669702" stroke="rgb(142, 212, 162)" stroke-opacity="0.17394751" stroke-linecap="round" stroke-linejoin="round"/>
    <path d="M 347.8504638671875 141.39535522460938 C 323.79205322265625 109.0294189453125 364.89691162109375 166.5069122314453 339.22296142578125 227.61016845703125 C 321.7919616699219 129.78265380859375 271.1351318359375 167.72320556640625 274.1507263183594 114.71620178222656 C 282.3592529296875 114.62767028808594 295.61651611328125 114.62572479248047 337.3741455078125 114.54466247558594 C 344.08056640625 115.44161987304688 348.955322265625 108.39685821533203 347.8504638671875 141.39535522460938" stroke-width="0.0" fill="rgb(255, 254, 239)" opacity="0.83001214" stroke="rgb(99, 22, 186)" stroke-opacity="0.47775477" stroke-linecap="round" stroke-linejoin="round"/>
    <path d="M 340.6763916015625 473.6253967285156 C 293.2249450683594 474.49530029296875 284.1645202636719 469.7118225097656 298.7658386230469 472.95257568359375 C 194.4240264892578 472.1880187988281 204.54356384277344 475.5451965332031 204.33583068847656 466.3921813964844 C 204.66287231445312 458.7745666503906 198.01243591308594 461.6562194824219 247.19041442871094 461.166015625 C 352.6378479003906 461.9040832519531 344.518310546875 457.6706237792969 340.6763916015625 473.6253967285156" stroke-width="0.0" fill="rgb(255, 255, 244)" opacity="0.8321099" stroke="rgb(144, 186, 212)" stroke-opacity="0.3234112" stroke-linecap="round" stroke-linejoin="round"/>
    <path d="M 179.4727783203125 68.15609741210938 C 178.0621795654297 125.58755493164062 186.893798828125 111.34776306152344 164.30519104003906 113.42691040039062 C 151.28456115722656 115.35987854003906 155.50025939941406 100.68450164794922 155.2406463623047 73.3769760131836 C 156.33248901367188 70.21067810058594 155.9715118408203 82.61865234375 156.00694274902344 41.02635955810547 C 185.62380981445312 42.59990692138672 178.28175354003906 29.293533325195312 179.4727783203125 68.15609741210938" stroke-width="0.0" fill="rgb(247, 243, 227)" opacity="1.0" stroke="rgb(224, 42, 70)" stroke-opacity="0.050157767" stroke-linecap="round" stroke-linejoin="round"/>
    <path d="M 331.5062255859375 459.897216796875 C 312.6665344238281 460.0518493652344 265.6590881347656 459.8221435546875 289.9748229980469 460.0609130859375 C 288.1871643066406 459.8525085449219 236.51161193847656 460.171630859375 219.91525268554688 459.8788146972656 C 211.11216735839844 444.9503479003906 207.9081268310547 450.1869201660156 268.1759948730469 448.7484436035156 C 346.4432373046875 450.3440246582031 328.79791259765625 444.8271484375 331.5062255859375 459.897216796875" stroke-width="0.0" fill="rgb(255, 253, 238)" opacity="0.924868" stroke="rgb(231, 235, 247)" stroke-opacity="0.9827976" stroke-linecap="round" stroke-linejoin="round"/>
    <path d="M 371.0251159667969 83.80299377441406 C 370.4231872558594 122.12489318847656 376.9364013671875 112.01953887939453 333.8324890136719 113.41260528564453 C 276.1765441894531 114.5442886352539 312.468017578125 98.84471893310547 357.1611328125 106.45736694335938 C 357.54937744140625 60.30363082885742 354.825439453125 51.49058532714844 364.1778564453125 53.862457275390625 C 372.61029052734375 60.46748352050781 370.5710754394531 59.981239318847656 371.0251159667969 83.80299377441406" stroke-width="0.0" fill="rgb(255, 255, 241)" opacity="0.84862167" stroke="rgb(148, 83, 109)" stroke-opacity="0.74388134" stroke-linecap="round" stroke-linejoin="round"/>
    <path d="M 354.6816101074219 269.8962707519531 C 360.661376953125 291.7843322753906 338.88287353515625 258.6158447265625 344.25390625 285.8853454589844 C 332.7518310546875 288.8591613769531 336.2803649902344 296.2207946777344 335.3939514160156 267.91864013671875 C 335.9764099121094 246.83572387695312 333.6473083496094 259.67559814453125 345.8675231933594 247.84507751464844 C 343.7049560546875 260.6351623535156 358.4760437011719 259.7973937988281 354.6816101074219 269.8962707519531" stroke-width="0.0" fill="rgb(249, 247, 228)" opacity="0.7720871" stroke="rgb(97, 209, 135)" stroke-opacity="0.800961" stroke-linecap="round" stroke-linejoin="round"/>
    <path d="M 370.9483337402344 40.160091400146484 C 370.6283874511719 72.41539764404297 373.2713317871094 76.81689453125 359.7252197265625 76.58488464355469 C 352.4123229980469 51.27680969238281 365.1187744140625 54.9288444519043 347.4583435058594 46.441253662109375 C 347.7957763671875 37.202796936035156 346.7774658203125 41.04996871948242 371.1064758300781 40.15670394897461 C 369.10662841796875 39.75156021118164 370.5963134765625 39.93181610107422 370.9483337402344 40.160091400146484" stroke-width="0.0" fill="rgb(255, 251, 237)" opacity="0.86696386" stroke="rgb(136, 1, 55)" stroke-opacity="0.31527007" stroke-linecap="round" stroke-linejoin="round"/>
    <path d="M 218.73240661621094 119.8874282836914 C 211.55599975585938 153.96258544921875 207.8977508544922 164.74880981445312 174.50302124023438 163.93710327148438 C 196.37791442871094 112.68440246582031 180.9545440673828 140.91085815429688 169.62733459472656 148.10829162597656 C 182.1542510986328 108.02252197265625 183.39698791503906 124.2630386352539 177.7062530517578 115.63151550292969 C 209.7381134033203 114.23345184326172 217.93905639648438 112.90841674804688 218.73240661621094 119.8874282836914" stroke-width="0.0" fill="rgb(255, 255, 237)" opacity="0.7272381" stroke="rgb(30, 134, 160)" stroke-opacity="0.9253769" stroke-linecap="round" stroke-linejoin="round"/>
    <path d="M 324.83251953125 447.9620361328125 C 316.3684997558594 447.5679016113281 283.7269287109375 448.03240966796875 246.1185302734375 447.7467956542969 C 246.27993774414062 447.30072021484375 233.49803161621094 449.23065185546875 227.6420135498047 446.29266357421875 C 213.77577209472656 416.2643127441406 220.40341186523438 414.03369140625 255.2678680419922 397.2928466796875 C 376.47210693359375 405.4092712402344 326.1203918457031 378.5278625488281 324.83251953125 447.9620361328125" stroke-width="0.0" fill="rgb(255, 254, 238)" opacity="0.7832843" stroke="rgb(106, 187, 59)" stroke-opacity="0.06647408" stroke-linecap="round" stroke-linejoin="round"/>
    <path d="M 349.2266845703125 242.3236083984375 C 352.0212097167969 268.0108947753906 354.26025390625 267.72467041015625 353.69500732421875 273.54241943359375 C 332.28302001953125 277.85198974609375 338.03704833984375 287.06781005859375 336.89520263671875 241.17495727539062 C 334.2458801269531 245.20872497558594 345.1290588378906 238.49920654296875 317.48480224609375 242.92974853515625 C 371.58929443359375 240.04449462890625 376.4197082519531 242.78384399414062 349.2266845703125 242.3236083984375" stroke-width="0.0" fill="rgb(249, 246, 231)" opacity="1.0" stroke="rgb(189, 3, 104)" stroke-opacity="0.5736184" stroke-linecap="round" stroke-linejoin="round"/>
    <path d="M 253.672607421875 214.53643798828125 C 248.2290496826172 402.7779235839844 262.8825378417969 397.9675598144531 246.79124450683594 398.4015197753906 C 171.22264099121094 397.0331115722656 196.2642364501953 406.3236083984375 189.0936279296875 371.0531005859375 C 193.99598693847656 302.2348937988281 183.3165740966797 247.81365966796875 202.9464111328125 124.13002014160156 C 405.82623291015625 161.1410675048828 316.66375732421875 258.3306579589844 253.672607421875 214.53643798828125" stroke-width="0.0" fill="rgb(50, 69, 59)" opacity="0.8242061" stroke="rgb(223, 226, 244)" stroke-opacity="0.16114062" stroke-linecap="round" stroke-linejoin="round"/>
    <path d="M 272.47418212890625 144.4912109375 C 256.55035400390625 146.96334838867188 232.9983367919922 141.9178009033203 202.6205596923828 177.62184143066406 C 197.85133361816406 200.14158630371094 164.73963928222656 193.32244873046875 180.85780334472656 166.7832794189453 C 188.11785888671875 108.71739196777344 192.48165893554688 115.78626251220703 250.27503967285156 115.2268295288086 C 281.0011291503906 119.57977294921875 271.2553405761719 102.36383056640625 272.47418212890625 144.4912109375" stroke-width="0.0" fill="rgb(255, 248, 230)" opacity="0.876028" stroke="rgb(102, 208, 251)" stroke-opacity="0.697417" stroke-linecap="round" stroke-linejoin="round"/>
  </g>
</svg>
