<?xml version="1.0" ?>
<svg xmlns="http://www.w3.org/2000/svg" version="1.1" width="512" height="510">
  <defs/>
  <g>
    <path d="M 126.3818588256836 25.684276580810547 C 112.90361022949219 49.170467376708984 107.59449768066406 49.1150016784668 77.53653717041016 61.39980697631836 C 46.33290481567383 56.46536636352539 43.273677825927734 54.165916442871094 38.864479064941406 32.03618240356445 C 41.889469146728516 -9.715710639953613 51.55913543701172 -8.879910469055176 97.14734649658203 -11.977185249328613 C 103.73490142822266 -1.0569345951080322 115.74298095703125 -13.882116317749023 126.3818588256836 25.684276580810547" stroke-width="0.0" fill="rgb(237, 230, 210)" opacity="0.452102" stroke="rgb(28, 250, 187)" stroke-opacity="0.56040895" stroke-linecap="round" stroke-linejoin="round"/>
    <path d="M 286.9210205078125 431.63519287109375 C 289.2528076171875 434.2301025390625 301.3592224121094 433.9872131347656 263.23516845703125 433.9991149902344 C 263.3031921386719 433.92315673828125 263.2644348144531 441.91497802734375 263.0565185546875 424.0011291503906 C 267.6217346191406 424.00048828125 250.6983642578125 424.0001525878906 287.1189880371094 424.00006103515625 C 286.6051025390625 425.65850830078125 286.7454833984375 417.7022399902344 286.9210205078125 431.63519287109375" stroke-width="0.0" fill="rgb(253, 244, 248)" opacity="0.887876" stroke="rgb(228, 249, 6)" stroke-opacity="0.7641643" stroke-linecap="round" stroke-linejoin="round"/>
    <path d="M 259.75091552734375 210.65406799316406 C 171.76348876953125 212.8819580078125 192.8355712890625 204.5724639892578 187.84434509277344 226.04519653320312 C 167.96133422851562 224.60105895996094 188.02073669433594 235.3845672607422 168.24395751953125 178.89329528808594 C 227.71005249023438 162.9263153076172 177.72186279296875 197.83718872070312 193.66639709472656 218.07070922851562 C 192.18313598632812 206.26878356933594 164.90980529785156 212.4956512451172 259.75091552734375 210.65406799316406" stroke-width="0.0" fill="rgb(255, 249, 228)" opacity="0.9164033" stroke="rgb(142, 212, 162)" stroke-opacity="0.17394751" stroke-linecap="round" stroke-linejoin="round"/>
    <path d="M 347.8440856933594 140.48052978515625 C 323.8079528808594 113.38601684570312 364.5868835449219 161.29684448242188 339.5250244140625 229.6376953125 C 322.37548828125 128.9065704345703 271.09857177734375 168.15078735351562 274.1436462402344 114.70375061035156 C 282.24603271484375 114.55538940429688 295.5683288574219 114.7057113647461 335.5501708984375 114.6288833618164 C 344.87066650390625 115.28495788574219 348.9048767089844 109.106689453125 347.8440856933594 140.48052978515625" stroke-width="0.0" fill="rgb(255, 255, 240)" opacity="0.8254399" stroke="rgb(99, 22, 186)" stroke-opacity="0.47775477" stroke-linecap="round" stroke-linejoin="round"/>
    <path d="M 340.69989013671875 473.66656494140625 C 295.5122985839844 474.6351318359375 287.23968505859375 470.0111999511719 300.30206298828125 472.96771240234375 C 192.57626342773438 472.2272033691406 205.53451538085938 475.3830261230469 203.9781036376953 466.4935302734375 C 205.10980224609375 459.0652770996094 195.32510375976562 461.6749572753906 248.9346923828125 461.16949462890625 C 353.5801696777344 461.95159912109375 343.8768005371094 457.5594482421875 340.69989013671875 473.66656494140625" stroke-width="0.0" fill="rgb(255, 255, 245)" opacity="0.82909495" stroke="rgb(144, 186, 212)" stroke-opacity="0.3234112" stroke-linecap="round" stroke-linejoin="round"/>
    <path d="M 178.5963897705078 67.35008239746094 C 178.49783325195312 122.10309600830078 188.36407470703125 112.29108428955078 159.5592498779297 113.36009216308594 C 154.06234741210938 115.74185180664062 155.17649841308594 100.19595336914062 155.18994140625 73.2713851928711 C 156.30467224121094 71.19132995605469 156.00331115722656 82.70703887939453 156.00270080566406 40.932865142822266 C 186.4944610595703 42.80006790161133 177.7527313232422 29.67409896850586 178.5963897705078 67.35008239746094" stroke-width="0.0" fill="rgb(255, 254, 240)" opacity="0.8846422" stroke="rgb(224, 42, 70)" stroke-opacity="0.050157767" stroke-linecap="round" stroke-linejoin="round"/>
    <path d="M 331.642822265625 460.14703369140625 C 313.04803466796875 459.79034423828125 265.72662353515625 460.09320068359375 291.250244140625 459.9866027832031 C 288.6751708984375 459.8609924316406 236.08529663085938 460.14337158203125 220.52992248535156 459.8857727050781 C 212.65711975097656 444.86468505859375 204.363037109375 450.2331848144531 267.2490234375 448.6845397949219 C 346.9965515136719 450.46746826171875 328.7930908203125 444.64190673828125 331.642822265625 460.14703369140625" stroke-width="0.0" fill="rgb(255, 254, 239)" opacity="0.914769" stroke="rgb(231, 235, 247)" stroke-opacity="0.9827976" stroke-linecap="round" stroke-linejoin="round"/>
    <path d="M 371.0419921875 93.00736236572266 C 369.9635009765625 120.25780487060547 378.7290344238281 111.78475952148438 313.26422119140625 113.53085327148438 C 250.97842407226562 112.0951156616211 293.985107421875 103.2597427368164 357.24371337890625 105.568115234375 C 357.41986083984375 49.05528259277344 355.4754943847656 42.59132766723633 362.9146423339844 50.89191818237305 C 372.7265625 59.30989456176758 370.6076965332031 57.1654167175293 371.0419921875 93.00736236572266" stroke-width="0.0" fill="rgb(255, 255, 241)" opacity="0.8618629" stroke="rgb(148, 83, 109)" stroke-opacity="0.74388134" stroke-linecap="round" stroke-linejoin="round"/>
    <path d="M 354.11407470703125 269.9214172363281 C 366.0804748535156 290.7568359375 327.7232971191406 259.3244934082031 347.47454833984375 286.631591796875 C 328.7318420410156 285.92242431640625 333.0133056640625 305.025634765625 325.9372253417969 270.52069091796875 C 329.68817138671875 229.0988311767578 328.043212890625 247.86570739746094 345.1809387207031 241.641845703125 C 343.6991882324219 260.4722900390625 359.2712097167969 260.2365417480469 354.11407470703125 269.9214172363281" stroke-width="0.0" fill="rgb(234, 255, 233)" opacity="0.874379" stroke="rgb(97, 209, 135)" stroke-opacity="0.800961" stroke-linecap="round" stroke-linejoin="round"/>
    <path d="M 371.00885009765625 40.09286117553711 C 370.699462890625 75.18917846679688 372.45709228515625 78.31033325195312 361.35418701171875 76.40678405761719 C 352.86785888671875 48.43364334106445 365.7222595214844 57.15054702758789 347.56378173828125 46.212703704833984 C 348.8411560058594 38.2206916809082 343.8882141113281 40.589820861816406 371.3412170410156 40.22614669799805 C 370.2036437988281 40.33823776245117 371.20794677734375 40.58689498901367 371.00885009765625 40.09286117553711" stroke-width="0.0" fill="rgb(255, 252, 238)" opacity="0.866367" stroke="rgb(136, 1, 55)" stroke-opacity="0.31527007" stroke-linecap="round" stroke-linejoin="round"/>
    <path d="M 220.1199188232422 118.52537536621094 C 211.7374725341797 155.09500122070312 208.96803283691406 164.8111572265625 174.4190673828125 163.95228576660156 C 197.8909912109375 110.85137939453125 178.4713897705078 141.50814819335938 167.99684143066406 154.82090759277344 C 178.7404327392578 109.10403442382812 186.3730926513672 125.32727813720703 177.16015625 115.3268814086914 C 215.20767211914062 115.30928039550781 221.09503173828125 114.30736541748047 220.1199188232422 118.52537536621094" stroke-width="0.0" fill="rgb(255, 255, 243)" opacity="0.73626083" stroke="rgb(30, 134, 160)" stroke-opacity="0.9253769" stroke-linecap="round" stroke-linejoin="round"/>
    <path d="M 325.1307067871094 447.907470703125 C 317.5160217285156 447.89593505859375 284.29888916015625 447.89764404296875 243.63064575195312 447.8147888183594 C 241.86285400390625 447.50164794921875 226.4586944580078 448.4932556152344 227.53456115722656 446.8158874511719 C 212.66751098632812 393.9628601074219 218.75221252441406 425.2368469238281 253.6529541015625 397.4115905761719 C 393.58831787109375 404.95068359375 320.4079284667969 379.32159423828125 325.1307067871094 447.907470703125" stroke-width="0.0" fill="rgb(255, 255, 240)" opacity="0.7772813" stroke="rgb(106, 187, 59)" stroke-opacity="0.06647408" stroke-linecap="round" stroke-linejoin="round"/>
    <path d="M 348.9169921875 242.31227111816406 C 353.0339660644531 268.2530212402344 353.4100341796875 268.94317626953125 354.6612548828125 273.4773254394531 C 331.62139892578125 276.84564208984375 338.4154052734375 292.74200439453125 336.7154235839844 240.62594604492188 C 334.55999755859375 246.33230590820312 343.7876281738281 238.29278564453125 308.118896484375 243.25326538085938 C 378.3778076171875 239.62136840820312 371.85955810546875 243.07919311523438 348.9169921875 242.31227111816406" stroke-width="0.0" fill="rgb(251, 248, 232)" opacity="1.0" stroke="rgb(189, 3, 104)" stroke-opacity="0.5736184" stroke-linecap="round" stroke-linejoin="round"/>
    <path d="M 253.47462463378906 217.11073303222656 C 248.77772521972656 404.538330078125 262.945556640625 397.7012634277344 246.43260192871094 398.4207458496094 C 172.21435546875 397.51434326171875 196.20484924316406 404.7633056640625 189.3365936279297 371.2583312988281 C 193.0320281982422 310.31781005859375 185.20228576660156 246.33274841308594 200.15440368652344 118.55419921875 C 394.4516906738281 163.05349731445312 333.061279296875 250.83624267578125 253.47462463378906 217.11073303222656" stroke-width="0.0" fill="rgb(26, 65, 53)" opacity="0.7301831" stroke="rgb(223, 226, 244)" stroke-opacity="0.16114062" stroke-linecap="round" stroke-linejoin="round"/>
    <path d="M 272.5054016113281 144.69290161132812 C 256.17962646484375 144.8186798095703 232.97076416015625 141.6394805908203 198.7352752685547 178.1636962890625 C 196.61439514160156 210.34637451171875 161.2682647705078 195.3144073486328 180.79965209960938 167.51358032226562 C 188.05142211914062 108.7882080078125 189.8166046142578 115.75115203857422 252.33078002929688 115.23567199707031 C 280.4692077636719 119.21440887451172 271.2459411621094 102.583740234375 272.5054016113281 144.69290161132812" stroke-width="0.0" fill="rgb(255, 247, 228)" opacity="0.92869914" stroke="rgb(102, 208, 251)" stroke-opacity="0.697417" stroke-linecap="round" stroke-linejoin="round"/>
    <path d="M 348.5885925292969 93.1900405883789 C 349.1322937011719 100.77149963378906 358.37738037109375 97.64849853515625 297.1888427734375 98.25099182128906 C 284.0082702636719 72.00105285644531 284.85150146484375 68.7235336303711 283.4368896484375 46.74932861328125 C 276.2467956542969 43.107059478759766 277.0265197753906 43.21867752075195 342.953857421875 43.13169479370117 C 350.14556884765625 44.04658126831055 347.9688720703125 31.728256225585938 348.5885925292969 93.1900405883789" stroke-width="0.0" fill="rgb(62, 111, 87)" opacity="0.8833734" stroke="rgb(132, 208, 209)" stroke-opacity="0.5912245" stroke-linecap="round" stroke-linejoin="round"/>
    <path d="M 213.66860961914062 392.5127868652344 C 210.20005798339844 399.383544921875 217.46963500976562 400.2329406738281 192.11434936523438 398.2335510253906 C 192.3283233642578 397.4386291503906 190.21957397460938 403.78948974609375 189.95797729492188 378.980224609375 C 189.75521850585938 372.0870666503906 184.42649841308594 371.57000732421875 207.6640625 371.7298889160156 C 212.056884765625 374.9831848144531 213.55650329589844 365.3318176269531 213.66860961914062 392.5127868652344" stroke-width="0.0" fill="rgb(224, 43, 31)" opacity="0.7420844" stroke="rgb(220, 167, 189)" stroke-opacity="0.8928297" stroke-linecap="round" stroke-linejoin="round"/>
    <path d="M 291.88580322265625 315.4200439453125 C 290.72308349609375 318.48291015625 298.0155334472656 317.0663146972656 268.9010009765625 317.6554870605469 C 274.9781494140625 315.438720703125 273.3730773925781 324.4230041503906 273.73175048828125 298.6573791503906 C 274.1893005371094 293.8693542480469 269.5538024902344 296.0863952636719 286.6241149902344 296.0191345214844 C 294.7081298828125 297.2004089355469 291.3891906738281 290.5878601074219 291.88580322265625 315.4200439453125" stroke-width="0.0" fill="rgb(16, 29, 38)" opacity="0.91190726" stroke="rgb(240, 148, 196)" stroke-opacity="0.9539812" stroke-linecap="round" stroke-linejoin="round"/>
    <path d="M 423.9871826171875 214.8994140625 C 401.09735107421875 264.0348205566406 456.0434875488281 279.2921142578125 384.9588317871094 275.39862060546875 C 359.1223449707031 260.13470458984375 379.3710632324219 238.43370056152344 368.991455078125 225.08401489257812 C 363.2940673828125 179.90037536621094 375.4217224121094 148.42495727539062 395.1277770996094 177.6324005126953 C 384.5613708496094 208.8763885498047 392.6080627441406 218.5462188720703 423.9871826171875 214.8994140625" stroke-width="0.0" fill="rgb(52, 74, 62)" opacity="0.8124067" stroke="rgb(152, 31, 42)" stroke-opacity="0.720368" stroke-linecap="round" stroke-linejoin="round"/>
    <path d="M 447.4796447753906 339.70550537109375 C 483.1404113769531 366.9198303222656 500.22906494140625 407.4400939941406 472.3111572265625 471.5187072753906 C 308.9559020996094 474.1120910644531 314.4930419921875 476.2933044433594 370.5251770019531 379.6907958984375 C 374.32916259765625 287.196044921875 359.4447326660156 293.13482666015625 403.6402587890625 312.363525390625 C 434.94659423828125 334.52655029296875 422.1966552734375 329.2178649902344 447.4796447753906 339.70550537109375" stroke-width="0.0" fill="rgb(101, 64, 39)" opacity="0.645752" stroke="rgb(24, 77, 146)" stroke-opacity="0.74380916" stroke-linecap="round" stroke-linejoin="round"/>
    <path d="M 336.52618408203125 303.3924560546875 C 425.3719482421875 364.2768249511719 325.29681396484375 285.61956787109375 339.6607971191406 392.89776611328125 C 285.021728515625 351.0538635253906 313.8406982421875 345.96533203125 322.85491943359375 325.2748107910156 C 320.8586120605469 192.2773895263672 336.6460266113281 266.4148254394531 225.44688415527344 232.94068908691406 C 368.094482421875 242.56405639648438 330.0887145996094 205.75711059570312 336.52618408203125 303.3924560546875" stroke-width="0.0" fill="rgb(51, 94, 71)" opacity="0.62581617" stroke="rgb(156, 147, 97)" stroke-opacity="0.9399854" stroke-linecap="round" stroke-linejoin="round"/>
    <path d="M 487.5138244628906 220.20545959472656 C 498.6111145019531 418.31329345703125 464.91827392578125 405.0164489746094 391.841552734375 309.5754089355469 C 356.3809509277344 306.24908447265625 354.1513671875 335.3692932128906 337.30548095703125 301.8213195800781 C 348.0950622558594 296.7850036621094 333.76397705078125 263.2970886230469 355.8189392089844 278.784423828125 C 345.5940856933594 253.26376342773438 385.4020080566406 283.002685546875 487.5138244628906 220.20545959472656" stroke-width="0.0" fill="rgb(199, 10, 24)" opacity="0.39176762" stroke="rgb(177, 13, 60)" stroke-opacity="0.9587426" stroke-linecap="round" stroke-linejoin="round"/>
    <path d="M 303.4041748046875 105.28284454345703 C 308.4255065917969 117.05813598632812 305.5762634277344 112.41658020019531 220.4680938720703 113.58332061767578 C 225.11447143554688 113.37476348876953 215.84503173828125 113.62281799316406 170.8007354736328 113.22748565673828 C 169.5095672607422 95.22303771972656 189.84535217285156 109.64399719238281 207.0366973876953 105.32068634033203 C 220.46307373046875 105.1327896118164 254.49093627929688 105.34033203125 303.4041748046875 105.28284454345703" stroke-width="0.0" fill="rgb(255, 255, 237)" opacity="0.8556147" stroke="rgb(51, 172, 25)" stroke-opacity="0.70899254" stroke-linecap="round" stroke-linejoin="round"/>
    <path d="M 346.6391296386719 318.83233642578125 C 363.35491943359375 344.94244384765625 355.5069274902344 331.57293701171875 341.2303771972656 337.6379089355469 C 327.6583251953125 362.1483154296875 337.1530456542969 342.751220703125 339.5449523925781 326.3663330078125 C 336.8673095703125 305.4736022949219 329.4406433105469 293.3405456542969 353.49072265625 316.6618957519531 C 384.3641357421875 306.3171081542969 370.38433837890625 329.8441162109375 346.6391296386719 318.83233642578125" stroke-width="0.0" fill="rgb(255, 255, 247)" opacity="0.9086091" stroke="rgb(158, 63, 91)" stroke-opacity="0.542366" stroke-linecap="round" stroke-linejoin="round"/>
    <path d="M 111.73529815673828 212.0929718017578 C 52.95650863647461 257.9928283691406 90.94172668457031 265.3363342285156 53.68809127807617 280.78045654296875 C 14.272889137268066 248.43751525878906 58.12826156616211 261.81549072265625 32.99644088745117 249.77078247070312 C 32.9908447265625 228.71673583984375 51.72535705566406 252.4210205078125 39.85677719116211 228.12229919433594 C 118.30400848388672 195.27915954589844 110.59127807617188 120.4325180053711 111.73529815673828 212.0929718017578" stroke-width="0.0" fill="rgb(160, 18, 13)" opacity="0.5087956" stroke="rgb(131, 101, 86)" stroke-opacity="0.92371166" stroke-linecap="round" stroke-linejoin="round"/>
    <path d="M 304.1124572753906 44.00459289550781 C 293.60986328125 62.90932083129883 296.3888244628906 71.74970245361328 318.5951232910156 98.28331756591797 C 230.07394409179688 97.94205474853516 226.92654418945312 98.45993041992188 178.76004028320312 97.91029357910156 C 179.93038940429688 29.411386489868164 176.2908935546875 44.37908935546875 183.93911743164062 42.904380798339844 C 301.40557861328125 43.221927642822266 302.8377685546875 42.77191925048828 304.1124572753906 44.00459289550781" stroke-width="0.0" fill="rgb(73, 115, 90)" opacity="0.9342349" stroke="rgb(111, 249, 151)" stroke-opacity="0.7307655" stroke-linecap="round" stroke-linejoin="round"/>
    <path d="M 197.93124389648438 459.0765380859375 C 192.7213134765625 479.1144104003906 185.4866180419922 469.71258544921875 74.45899963378906 471.9728698730469 C 72.2071304321289 441.7655334472656 114.23858642578125 479.7651672363281 49.37042999267578 471.4009704589844 C 46.8634033203125 455.0941162109375 29.843353271484375 380.7568664550781 78.83988952636719 396.6534729003906 C 144.4276123046875 431.5513610839844 160.51388549804688 400.97576904296875 197.93124389648438 459.0765380859375" stroke-width="0.0" fill="rgb(106, 63, 25)" opacity="0.6373693" stroke="rgb(68, 189, 127)" stroke-opacity="0.4543289" stroke-linecap="round" stroke-linejoin="round"/>
    <path d="M 164.2142791748047 311.93084716796875 C 130.88418579101562 334.82952880859375 120.45952606201172 324.78680419921875 76.87577056884766 331.85791015625 C 26.730981826782227 338.7932434082031 36.16770553588867 341.3638610839844 65.5221176147461 335.1607971191406 C 133.71522521972656 320.8809814453125 14.474580764770508 218.30938720703125 120.64237976074219 232.12525939941406 C 162.0695343017578 220.8507537841797 151.8445281982422 191.584228515625 164.2142791748047 311.93084716796875" stroke-width="0.0" fill="rgb(238, 43, 62)" opacity="0.39632145" stroke="rgb(102, 128, 155)" stroke-opacity="0.8020521" stroke-linecap="round" stroke-linejoin="round"/>
    <path d="M 124.96710968017578 287.4031677246094 C 83.76619720458984 284.8837890625 105.2784652709961 357.20379638671875 33.34727096557617 338.0137939453125 C 50.34934997558594 305.5504150390625 -3.951639175415039 278.64398193359375 53.872535705566406 288.9056701660156 C 66.25398254394531 300.9684143066406 47.767765045166016 283.8043518066406 98.28126525878906 222.08111572265625 C 95.9097671508789 223.3452911376953 98.4129638671875 243.7268829345703 124.96710968017578 287.4031677246094" stroke-width="0.0" fill="rgb(13, 118, 114)" opacity="0.48877612" stroke="rgb(51, 101, 31)" stroke-opacity="0.6148564" stroke-linecap="round" stroke-linejoin="round"/>
    <path d="M 156.43304443359375 390.675048828125 C 93.25569915771484 382.7345275878906 154.07846069335938 442.35504150390625 68.70833587646484 409.7396240234375 C 64.33940124511719 358.16241455078125 51.66230773925781 380.8921813964844 55.116859436035156 346.90240478515625 C 68.33350372314453 316.87884521484375 66.5799789428711 306.07244873046875 148.5172882080078 306.88848876953125 C 156.8620147705078 300.2791748046875 158.6722869873047 291.4181823730469 156.43304443359375 390.675048828125" stroke-width="0.0" fill="rgb(86, 93, 68)" opacity="0.98244625" stroke="rgb(50, 167, 203)" stroke-opacity="0.13598211" stroke-linecap="round" stroke-linejoin="round"/>
    <path d="M 445.8817443847656 173.30184936523438 C 421.06170654296875 227.14527893066406 447.38116455078125 216.2078857421875 396.2766418457031 218.9048309326172 C 377.1820983886719 210.2028045654297 387.1011962890625 180.71881103515625 364.4633483886719 191.1703338623047 C 374.5036315917969 89.62098693847656 356.6790466308594 78.62168884277344 413.3314208984375 145.70677185058594 C 357.3419494628906 185.51828002929688 396.1155090332031 179.19773864746094 445.8817443847656 173.30184936523438" stroke-width="0.0" fill="rgb(77, 90, 37)" opacity="0.46875575" stroke="rgb(220, 136, 104)" stroke-opacity="0.7750594" stroke-linecap="round" stroke-linejoin="round"/>
  </g>
</svg>
