<?xml version="1.0" ?>
<svg xmlns="http://www.w3.org/2000/svg" version="1.1" width="512" height="510">
  <defs/>
  <g>
    <path d="M 126.2173080444336 25.61406898498535 C 112.74324035644531 49.00772476196289 107.53012084960938 49.0790901184082 77.6486587524414 61.30055236816406 C 46.42434310913086 56.329566955566406 43.492279052734375 54.05221176147461 39.106136322021484 31.997753143310547 C 42.14205551147461 -9.391879081726074 51.80612564086914 -8.754303932189941 97.1995620727539 -11.950570106506348 C 103.57368469238281 -0.9115181565284729 115.50436401367188 -13.496426582336426 126.2173080444336 25.61406898498535" stroke-width="0.0" fill="rgb(255, 242, 209)" opacity="0.4840203" stroke="rgb(28, 250, 187)" stroke-opacity="0.56040895" stroke-linecap="round" stroke-linejoin="round"/>
    <path d="M 285.74493408203125 435.9230041503906 C 284.03631591796875 435.77569580078125 295.4427185058594 435.7186279296875 259.1420593261719 435.5401306152344 C 266.3523254394531 434.8276672363281 263.3824462890625 439.3752746582031 264.21392822265625 423.9943542480469 C 267.5672912597656 423.7613525390625 251.32632446289062 423.8232421875 282.9282531738281 424.0205078125 C 285.9131164550781 424.40667724609375 286.1698913574219 417.3380432128906 285.74493408203125 435.9230041503906" stroke-width="0.0" fill="rgb(255, 255, 243)" opacity="0.8920232" stroke="rgb(228, 249, 6)" stroke-opacity="0.7641643" stroke-linecap="round" stroke-linejoin="round"/>
    <path d="M 241.7581787109375 210.9228057861328 C 164.3968048095703 213.09922790527344 197.0148468017578 206.01673889160156 188.188720703125 225.75816345214844 C 172.62728881835938 225.10760498046875 181.2041778564453 235.14682006835938 174.39747619628906 189.94859313964844 C 208.92506408691406 183.05601501464844 180.32456970214844 207.80319213867188 193.22706604003906 216.79786682128906 C 190.00210571289062 210.3609619140625 170.8673858642578 210.10496520996094 241.7581787109375 210.9228057861328" stroke-width="0.0" fill="rgb(249, 244, 224)" opacity="1.0" stroke="rgb(142, 212, 162)" stroke-opacity="0.17394751" stroke-linecap="round" stroke-linejoin="round"/>
  </g>
</svg>
