<?xml version="1.0" ?>
<svg xmlns="http://www.w3.org/2000/svg" version="1.1" width="512" height="406">
  <defs/>
  <g>
    <path d="M 338.94873046875 254.7720184326172 C 335.5994873046875 279.9786376953125 339.0133361816406 248.8976593017578 334.0991516113281 315.1173095703125 C 276.44708251953125 325.55999755859375 235.64932250976562 323.0155944824219 231.09115600585938 287.97637939453125 C 234.794677734375 219.79193115234375 239.9749755859375 219.1287384033203 267.05377197265625 205.60423278808594 C 328.8700256347656 217.02432250976562 328.8639831542969 221.6876983642578 338.94873046875 254.7720184326172" stroke-width="0.0" fill="rgb(247, 223, 59)" opacity="0.11966712" stroke="rgb(190, 232, 102)" stroke-opacity="0.9440266" stroke-linecap="round" stroke-linejoin="round"/>
    <path d="M 206.0 59.0 C 205.3301239013672 61.5 203.5 63.33012771606445 201.0 64.0 C 198.5 63.33012771606445 196.6698760986328 61.5 196.0 59.0 C 196.6698760986328 56.5 198.5 54.66987228393555 201.0 54.0 C 203.5 54.66987228393555 205.3301239013672 56.5 206.0 59.0" stroke-width="0.0" fill="rgb(255, 255, 255)" opacity="1.0" stroke="rgb(14, 90, 70)" stroke-opacity="0.1701047" stroke-linecap="round" stroke-linejoin="round"/>
    <path d="M 144.0 83.0 C 143.3301239013672 85.5 141.5 87.33012390136719 139.0 88.0 C 136.5 87.33012390136719 134.6698760986328 85.5 134.0 83.0 C 134.6698760986328 80.5 136.5 78.66987609863281 139.0 78.0 C 141.5 78.66987609863281 143.3301239013672 80.5 144.0 83.0" stroke-width="0.0" fill="rgb(204, 109, 170)" opacity="1.0" stroke="rgb(150, 199, 133)" stroke-opacity="0.4235589" stroke-linecap="round" stroke-linejoin="round"/>
  </g>
</svg>
