<?xml version="1.0" ?>
<svg xmlns="http://www.w3.org/2000/svg" version="1.1" width="512" height="512">
  <defs/>
  <g>
    <path d="M -10.0 -10.0 C -9.0 -10.0 512.0 0.0 513.0 0.0 C 514.0 0.0 512.0 512.0 513.0 512.0 C 513.0 513.0 0.0 512.0 0.0 513.0 C 0.0 512.0 0.0 513.0 -10.0 -10.0 L -10.0 -10.0" stroke-width="2.0" fill="rgb(87, 161, 199)" opacity="0.92910963"/>
    <path d="M 511.68243408203125 96.58625793457031 C 364.97308349609375 112.09539794921875 391.4786682128906 128.92694091796875 445.34759521484375 295.26861572265625 C 549.8582763671875 266.2580871582031 519.483642578125 278.61981201171875 514.9384155273438 218.0016632080078 C 524.9395141601562 252.48721313476562 525.5611572265625 252.7937774658203 491.74853515625 275.2396240234375 C 354.46734619140625 306.9407653808594 364.28143310546875 353.90679931640625 511.607177734375 364.74237060546875 L 511.68243408203125 96.58625793457031" stroke-width="2.0" fill="rgb(96, 167, 208)" opacity="0.07986002"/>
    <path d="M 343.8313293457031 42.52144241333008 C 342.3172302246094 43.3454475402832 342.10107421875 42.65526580810547 346.0368347167969 42.64128112792969 C 344.0924987792969 42.07386779785156 346.08917236328125 42.59027099609375 345.6264953613281 42.673545837402344 C 344.5235595703125 42.72711181640625 345.8824462890625 42.81691360473633 343.7188415527344 42.802337646484375 C 341.93463134765625 42.78772735595703 344.6028137207031 42.82121658325195 342.4091796875 42.98894500732422 L 343.8313293457031 42.52144241333008" stroke-width="2.0" fill="rgb(137, 81, 55)" opacity="0.23561542"/>
    <path d="M 435.9701232910156 248.5383758544922 C 409.2891845703125 428.10595703125 280.4795837402344 400.04150390625 291.8635559082031 407.5887145996094 C 147.6567840576172 409.37030029296875 135.54196166992188 398.1524353027344 104.76953125 359.3683776855469 C 71.26971435546875 302.88897705078125 94.37434387207031 253.46678161621094 150.11146545410156 234.67942810058594 C 346.52020263671875 219.27281188964844 267.489990234375 335.939697265625 402.92132568359375 223.14517211914062 L 435.9701232910156 248.5383758544922" stroke-width="2.0" fill="rgb(254, 220, 0)" opacity="0.9973895"/>
    <path d="M -80.21891784667969 415.86053466796875 C -31.05662727355957 205.71237182617188 -128.89112854003906 87.23297119140625 124.6194839477539 44.66435623168945 C 123.77813720703125 197.1348114013672 127.44319915771484 187.50253295898438 122.36175537109375 84.10950469970703 C 29.206768035888672 262.4859313964844 25.21499252319336 255.84353637695312 78.97543334960938 175.38241577148438 C 80.13888549804688 218.36122131347656 96.74354553222656 223.0009765625 88.09452056884766 435.8597717285156 L -80.21891784667969 415.86053466796875" stroke-width="2.0" fill="rgb(75, 168, 237)" opacity="0.009968343"/>
    <path d="M 342.81890869140625 -19.909765243530273 C 201.262939453125 -29.222780227661133 179.19503784179688 -48.0777473449707 177.85145568847656 109.2651596069336 C 425.84356689453125 102.2137222290039 440.6686706542969 150.5504150390625 448.5327453613281 -5.6531267166137695 C 302.8757019042969 -22.066862106323242 360.870361328125 -3.7190418243408203 397.744140625 116.81932830810547 C 227.68533325195312 117.51646423339844 218.56800842285156 144.5516357421875 427.9139404296875 181.13507080078125 L 342.81890869140625 -19.909765243530273" stroke-width="2.0" fill="rgb(98, 168, 204)" opacity="0.33147252"/>
    <path d="M 317.7765197753906 170.34365844726562 C 329.9324951171875 239.2604217529297 210.52305603027344 260.1513671875 343.4455261230469 271.64471435546875 C 93.37709045410156 284.7577209472656 183.06678771972656 244.56228637695312 93.99630737304688 206.1262969970703 C 43.243656158447266 175.1629638671875 126.11224365234375 185.66664123535156 129.76898193359375 151.98243713378906 C 191.69236755371094 72.0585708618164 309.2118835449219 101.70780944824219 317.5503234863281 167.5644073486328 L 317.7765197753906 170.34365844726562" stroke-width="2.0" fill="rgb(252, 203, 0)" opacity="0.96493274"/>
  </g>
</svg>
