<?xml version="1.0" ?>
<svg xmlns="http://www.w3.org/2000/svg" version="1.1" width="512" height="352">
  <defs/>
  <g>
    <path d="M 143.67759704589844 177.6157684326172 C 156.16860961914062 246.85057067871094 153.94305419921875 248.3751220703125 117.53817749023438 258.19439697265625 C 67.25868225097656 256.2137451171875 66.04850006103516 253.2781524658203 38.62141799926758 236.06895446777344 C 48.769412994384766 188.16738891601562 67.27605438232422 181.58274841308594 100.04029083251953 176.34910583496094 C 111.44078826904297 136.54466247558594 135.4095001220703 148.29449462890625 143.67759704589844 177.6157684326172" stroke-width="0.0" fill="rgb(214, 191, 159)" opacity="0.98873734" stroke="rgb(176, 193, 126)" stroke-opacity="0.57605314" stroke-linecap="round" stroke-linejoin="round"/>
    <path d="M 249.74411010742188 180.50445556640625 C 234.4661407470703 181.23411560058594 238.56117248535156 208.3173370361328 192.71299743652344 261.0290832519531 C 187.94033813476562 227.43411254882812 182.5238494873047 243.1368865966797 175.09872436523438 192.80421447753906 C 202.96571350097656 157.05335998535156 148.82443237304688 191.64434814453125 183.0958251953125 156.91189575195312 C 293.7024230957031 54.684791564941406 218.36849975585938 51.243377685546875 249.74411010742188 180.50445556640625" stroke-width="0.0" fill="rgb(10, 47, 15)" opacity="0.556438" stroke="rgb(115, 154, 173)" stroke-opacity="0.28549516" stroke-linecap="round" stroke-linejoin="round"/>
    <path d="M 319.5862731933594 223.406982421875 C 336.8848876953125 254.84632873535156 332.2783508300781 241.57850646972656 265.7351989746094 226.71897888183594 C 274.6705322265625 266.19537353515625 244.70501708984375 298.94549560546875 257.777587890625 221.51109313964844 C 224.07318115234375 52.7686882019043 230.50531005859375 75.13390350341797 262.25830078125 195.63275146484375 C 296.8470153808594 199.59725952148438 318.6849365234375 190.27349853515625 319.5862731933594 223.406982421875" stroke-width="0.0" fill="rgb(22, 37, 12)" opacity="0.8351829" stroke="rgb(79, 124, 94)" stroke-opacity="0.90476865" stroke-linecap="round" stroke-linejoin="round"/>
    <path d="M 276.5252990722656 200.96710205078125 C 301.8619079589844 236.89146423339844 300.99957275390625 234.93572998046875 274.5873718261719 227.08876037597656 C 265.4948425292969 241.31326293945312 254.0749969482422 209.59243774414062 262.9849548339844 204.93466186523438 C 288.0854797363281 195.12242126464844 275.342529296875 169.0557403564453 307.0273742675781 189.19285583496094 C 334.9441833496094 252.0084228515625 305.87371826171875 232.27365112304688 276.5252990722656 200.96710205078125" stroke-width="0.0" fill="rgb(105, 138, 139)" opacity="1.0" stroke="rgb(89, 158, 68)" stroke-opacity="0.45207614" stroke-linecap="round" stroke-linejoin="round"/>
    <path d="M 348.5102233886719 43.89777374267578 C 318.3052978515625 114.10338592529297 352.55230712890625 22.299680709838867 288.6647644042969 111.56640625 C 250.33779907226562 129.36016845703125 255.21937561035156 122.01995849609375 264.17919921875 52.90883255004883 C 333.050048828125 50.024017333984375 303.14166259765625 46.62535095214844 321.05792236328125 28.324172973632812 C 347.2835998535156 45.673431396484375 313.2651672363281 46.12257766723633 348.5102233886719 43.89777374267578" stroke-width="0.0" fill="rgb(160, 50, 10)" opacity="0.73220164" stroke="rgb(106, 75, 135)" stroke-opacity="0.17145537" stroke-linecap="round" stroke-linejoin="round"/>
    <path d="M 315.0919494628906 273.44891357421875 C 333.9501037597656 287.0682067871094 251.91966247558594 282.9557189941406 263.6090393066406 281.81329345703125 C 241.9221649169922 285.3634948730469 283.15374755859375 286.2236022949219 211.55673217773438 284.1141662597656 C 209.0580596923828 272.09967041015625 241.5791015625 270.3075256347656 276.3021240234375 277.9603271484375 C 304.2691650390625 258.4544982910156 288.0200500488281 278.1392517089844 315.0919494628906 273.44891357421875" stroke-width="0.0" fill="rgb(0, 57, 77)" opacity="0.3675996" stroke="rgb(59, 80, 233)" stroke-opacity="0.8857977" stroke-linecap="round" stroke-linejoin="round"/>
    <path d="M 236.6475372314453 117.42086791992188 C 244.7176513671875 169.6509552001953 245.8672637939453 140.6094970703125 232.43783569335938 157.94183349609375 C 229.20263671875 159.73133850097656 238.402587890625 141.8176727294922 207.92758178710938 133.9925537109375 C 198.61532592773438 132.4506072998047 202.10330200195312 138.560302734375 238.21693420410156 96.33686828613281 C 260.8021545410156 61.79230880737305 231.82191467285156 84.44351196289062 236.6475372314453 117.42086791992188" stroke-width="0.0" fill="rgb(222, 235, 236)" opacity="0.83403265" stroke="rgb(134, 39, 142)" stroke-opacity="0.9982061" stroke-linecap="round" stroke-linejoin="round"/>
    <path d="M 423.4615783691406 255.00172424316406 C 415.7313537597656 268.93035888671875 412.8077697753906 291.67626953125 377.6401672363281 284.2496643066406 C 361.295166015625 264.0022888183594 376.9522705078125 295.3179931640625 321.27227783203125 269.5648193359375 C 364.2377014160156 235.8728485107422 353.2110900878906 186.76072692871094 421.7892150878906 190.3643035888672 C 459.4875183105469 234.99105834960938 447.5537109375 244.75587463378906 423.4615783691406 255.00172424316406" stroke-width="0.0" fill="rgb(99, 91, 95)" opacity="0.5025433" stroke="rgb(69, 143, 251)" stroke-opacity="0.74109566" stroke-linecap="round" stroke-linejoin="round"/>
    <path d="M 262.36492919921875 155.25901794433594 C 254.2313232421875 158.89109802246094 270.1883239746094 169.04515075683594 252.59666442871094 167.23207092285156 C 246.63241577148438 182.0265350341797 235.10533142089844 172.89930725097656 237.3679656982422 160.0510711669922 C 255.92355346679688 154.8195343017578 245.1997528076172 160.26466369628906 259.78460693359375 146.87216186523438 C 256.9117126464844 149.9759979248047 264.7491149902344 154.07691955566406 262.36492919921875 155.25901794433594" stroke-width="0.0" fill="rgb(115, 141, 121)" opacity="1.0" stroke="rgb(84, 23, 2)" stroke-opacity="0.42600137" stroke-linecap="round" stroke-linejoin="round"/>
    <path d="M 441.3946228027344 275.24139404296875 C 447.7626953125 281.011962890625 429.76055908203125 283.66259765625 388.1930847167969 285.9588928222656 C 366.3264465332031 280.3998107910156 372.5354309082031 283.63787841796875 415.6439208984375 282.4086608886719 C 408.2007751464844 268.0957336425781 399.0765686035156 260.1107482910156 402.7548522949219 264.0621337890625 C 427.20159912109375 271.4101257324219 424.9858703613281 265.84906005859375 441.3946228027344 275.24139404296875" stroke-width="0.0" fill="rgb(66, 64, 64)" opacity="0.7776329" stroke="rgb(182, 50, 239)" stroke-opacity="0.47272745" stroke-linecap="round" stroke-linejoin="round"/>
    <path d="M 383.4455261230469 150.6316375732422 C 400.0284729003906 198.67893981933594 410.0403747558594 172.83917236328125 370.4339294433594 250.23794555664062 C 318.1082458496094 199.11328125 360.3751220703125 193.68124389648438 345.0029296875 163.74139404296875 C 302.7255554199219 142.21307373046875 322.9251708984375 104.40646362304688 361.39501953125 146.49813842773438 C 378.2053527832031 151.71896362304688 369.9744873046875 145.68556213378906 383.4455261230469 150.6316375732422" stroke-width="0.0" fill="rgb(171, 171, 171)" opacity="1.0" stroke="rgb(154, 143, 102)" stroke-opacity="0.6558297" stroke-linecap="round" stroke-linejoin="round"/>
    <path d="M 325.0422058105469 236.10279846191406 C 337.9046325683594 250.66140747070312 305.7917175292969 234.7108154296875 298.9186096191406 231.10385131835938 C 294.68377685546875 238.9573974609375 289.3837890625 227.42576599121094 287.3188781738281 216.11447143554688 C 299.2895202636719 242.75613403320312 299.28692626953125 225.55682373046875 282.4324951171875 206.86331176757812 C 261.31317138671875 188.57614135742188 321.03302001953125 218.79685974121094 325.0422058105469 236.10279846191406" stroke-width="0.0" fill="rgb(102, 136, 141)" opacity="0.94577944" stroke="rgb(39, 150, 55)" stroke-opacity="0.14697085" stroke-linecap="round" stroke-linejoin="round"/>
    <path d="M 392.7900085449219 169.11900329589844 C 401.38397216796875 176.08518981933594 442.2117004394531 167.28671264648438 453.2476806640625 225.15200805664062 C 362.405029296875 202.4125518798828 384.0185546875 203.6010284423828 372.568359375 151.39613342285156 C 306.73583984375 153.06558227539062 319.88720703125 122.11799621582031 377.9804382324219 100.35726928710938 C 405.5225524902344 143.84722900390625 390.00665283203125 144.44003295898438 392.7900085449219 169.11900329589844" stroke-width="0.0" fill="rgb(175, 175, 175)" opacity="1.0" stroke="rgb(8, 155, 15)" stroke-opacity="0.65340716" stroke-linecap="round" stroke-linejoin="round"/>
    <path d="M 185.1547088623047 164.46078491210938 C 196.19357299804688 165.33282470703125 178.15139770507812 163.62548828125 205.89117431640625 157.98516845703125 C 248.77337646484375 158.2115936279297 230.29440307617188 156.9311065673828 189.98805236816406 162.21168518066406 C 258.988037109375 155.9539337158203 178.35787963867188 156.22093200683594 140.6285400390625 187.21701049804688 C 189.9128875732422 166.5242156982422 195.63330078125 161.9773712158203 185.1547088623047 164.46078491210938" stroke-width="0.0" fill="rgb(44, 14, 0)" opacity="0.44363174" stroke="rgb(33, 245, 63)" stroke-opacity="0.33612138" stroke-linecap="round" stroke-linejoin="round"/>
    <path d="M 477.7748107910156 226.48060607910156 C 476.2474670410156 278.4114685058594 420.3466491699219 266.0994567871094 442.4414978027344 278.3060302734375 C 367.0571594238281 289.76995849609375 372.9996337890625 284.2376403808594 403.70294189453125 262.3877258300781 C 403.50128173828125 251.51132202148438 373.3537902832031 217.81732177734375 459.65301513671875 223.88101196289062 C 454.76165771484375 237.5231170654297 477.358642578125 163.38458251953125 477.7748107910156 226.48060607910156" stroke-width="0.0" fill="rgb(154, 154, 153)" opacity="1.0" stroke="rgb(213, 96, 151)" stroke-opacity="0.77533954" stroke-linecap="round" stroke-linejoin="round"/>
    <path d="M 394.2705078125 238.12425231933594 C 382.7637023925781 250.13890075683594 378.2171936035156 246.59384155273438 374.5813903808594 247.946044921875 C 392.9779357910156 283.8238220214844 375.00909423828125 255.8911895751953 375.0260314941406 253.57586669921875 C 368.96295166015625 227.59786987304688 380.8868408203125 241.9196319580078 372.678466796875 237.43711853027344 C 379.1026611328125 243.267333984375 388.4171142578125 241.55850219726562 394.2705078125 238.12425231933594" stroke-width="0.0" fill="rgb(92, 91, 90)" opacity="0.9899843" stroke="rgb(126, 51, 235)" stroke-opacity="0.3892988" stroke-linecap="round" stroke-linejoin="round"/>
    <path d="M 406.2244567871094 174.35145568847656 C 405.4618225097656 177.95706176757812 402.97607421875 191.42616271972656 383.99688720703125 192.57154846191406 C 394.14990234375 192.26434326171875 398.1692199707031 178.40902709960938 395.0544738769531 185.5562744140625 C 397.8182067871094 180.89524841308594 400.0635986328125 165.26434326171875 385.3617858886719 170.21034240722656 C 409.84698486328125 170.24871826171875 443.16790771484375 185.7576446533203 406.2244567871094 174.35145568847656" stroke-width="0.0" fill="rgb(63, 62, 61)" opacity="0.59402806" stroke="rgb(171, 172, 216)" stroke-opacity="0.13369888" stroke-linecap="round" stroke-linejoin="round"/>
    <path d="M 469.47271728515625 189.6549530029297 C 484.0790710449219 221.62515258789062 461.9710998535156 174.2482147216797 466.5605773925781 222.5205535888672 C 461.870361328125 183.82229614257812 433.64019775390625 183.0934600830078 442.83648681640625 140.6953125 C 440.6915283203125 180.9936065673828 453.9615478515625 188.6610565185547 451.4540100097656 136.6194305419922 C 453.8905029296875 166.02822875976562 453.4947509765625 167.5984344482422 469.47271728515625 189.6549530029297" stroke-width="0.0" fill="rgb(89, 81, 86)" opacity="0.545608" stroke="rgb(47, 50, 185)" stroke-opacity="0.13007948" stroke-linecap="round" stroke-linejoin="round"/>
    <path d="M 225.53363037109375 274.2733154296875 C 202.63758850097656 277.06744384765625 227.7640380859375 280.38006591796875 201.2000274658203 277.3139343261719 C 196.69378662109375 277.36138916015625 174.235595703125 276.078369140625 174.63980102539062 274.8304748535156 C 166.90469360351562 270.4577331542969 192.3019256591797 269.9144592285156 200.67787170410156 270.9640808105469 C 184.73193359375 268.5583190917969 196.64320373535156 275.8581237792969 225.53363037109375 274.2733154296875" stroke-width="0.0" fill="rgb(0, 55, 75)" opacity="0.37022418" stroke="rgb(244, 96, 68)" stroke-opacity="0.95577836" stroke-linecap="round" stroke-linejoin="round"/>
    <path d="M 283.962158203125 65.89978790283203 C 340.2369384765625 102.40250396728516 294.71533203125 75.24295043945312 269.2014465332031 58.59916687011719 C 277.2330627441406 63.99285888671875 226.91981506347656 71.03437042236328 266.9862976074219 57.490516662597656 C 259.3586730957031 55.43700408935547 255.15899658203125 45.16887664794922 260.7347717285156 51.363651275634766 C 287.15997314453125 57.60380935668945 270.5045471191406 43.74150466918945 283.962158203125 65.89978790283203" stroke-width="0.0" fill="rgb(35, 53, 31)" opacity="0.9414659" stroke="rgb(251, 23, 77)" stroke-opacity="0.2868117" stroke-linecap="round" stroke-linejoin="round"/>
    <path d="M 273.2259521484375 88.32305145263672 C 268.9268493652344 90.28606414794922 261.6048278808594 92.0472183227539 258.24798583984375 93.37422180175781 C 258.5687255859375 98.5391845703125 257.13861083984375 85.6297836303711 258.6949157714844 78.96150970458984 C 258.4593200683594 80.80121612548828 259.80645751953125 73.56748962402344 259.4379577636719 82.21317291259766 C 263.9433288574219 85.3723373413086 267.9578552246094 86.34463500976562 273.2259521484375 88.32305145263672" stroke-width="0.0" fill="rgb(198, 216, 214)" opacity="1.0" stroke="rgb(24, 215, 135)" stroke-opacity="0.056647684" stroke-linecap="round" stroke-linejoin="round"/>
    <path d="M 264.0369567871094 69.23139953613281 C 258.1153564453125 71.26519012451172 237.4757537841797 84.24605560302734 242.55613708496094 118.2630386352539 C 257.8966369628906 174.01278686523438 221.8970184326172 117.8949966430664 243.45347595214844 82.4107666015625 C 247.60043334960938 75.72572326660156 250.68568420410156 73.03250122070312 254.59031677246094 70.1336898803711 C 271.5312805175781 59.43197250366211 274.22430419921875 66.08138275146484 264.0369567871094 69.23139953613281" stroke-width="0.0" fill="rgb(42, 56, 32)" opacity="0.9963364" stroke="rgb(29, 210, 111)" stroke-opacity="0.61535645" stroke-linecap="round" stroke-linejoin="round"/>
    <path d="M 156.6835174560547 131.08641052246094 C 123.1326904296875 123.04876708984375 107.17450714111328 142.71731567382812 107.19993591308594 146.3492431640625 C 79.76051330566406 121.49308013916016 113.72293090820312 195.14146423339844 100.54781341552734 167.50184631347656 C 85.42234802246094 143.5287628173828 108.56193542480469 119.88489532470703 123.11724853515625 120.99187469482422 C 138.82489013671875 120.56443786621094 146.3466033935547 128.75564575195312 156.6835174560547 131.08641052246094" stroke-width="0.0" fill="rgb(146, 33, 0)" opacity="0.50942636" stroke="rgb(40, 21, 116)" stroke-opacity="0.7207685" stroke-linecap="round" stroke-linejoin="round"/>
    <path d="M 90.36571502685547 203.41390991210938 C 85.24237060546875 204.5028533935547 61.78471755981445 215.78248596191406 54.88514709472656 198.46791076660156 C 71.0509033203125 199.41671752929688 42.93052291870117 181.852783203125 37.970279693603516 257.0053405761719 C 32.57215881347656 172.1098175048828 110.00613403320312 174.37344360351562 72.37747192382812 185.16854858398438 C 45.74212646484375 192.03358459472656 83.05538940429688 205.90843200683594 90.36571502685547 203.41390991210938" stroke-width="0.0" fill="rgb(71, 0, 4)" opacity="0.45726502" stroke="rgb(49, 133, 73)" stroke-opacity="0.9602428" stroke-linecap="round" stroke-linejoin="round"/>
    <path d="M 447.3924255371094 175.83926391601562 C 457.4356994628906 160.7040557861328 465.348388671875 177.38348388671875 447.4740295410156 179.6891632080078 C 444.5339050292969 173.23345947265625 439.9367370605469 163.462158203125 440.6534729003906 150.40402221679688 C 447.18475341796875 125.28244018554688 451.72772216796875 130.54409790039062 450.5411682128906 155.65240478515625 C 457.5789489746094 127.17929077148438 458.8810729980469 135.23951721191406 447.3924255371094 175.83926391601562" stroke-width="0.0" fill="rgb(8, 0, 0)" opacity="0.23575614" stroke="rgb(168, 100, 149)" stroke-opacity="0.85775894" stroke-linecap="round" stroke-linejoin="round"/>
    <path d="M 311.2201843261719 43.977909088134766 C 322.09857177734375 82.20979309082031 318.445068359375 87.14396667480469 301.6129455566406 49.858768463134766 C 296.5600280761719 53.1927604675293 301.9076232910156 43.667724609375 301.6627197265625 35.705467224121094 C 298.8150939941406 58.3365592956543 301.4228515625 30.0783634185791 301.14111328125 33.19397735595703 C 305.0426330566406 35.078128814697266 308.5731506347656 38.44634246826172 311.2201843261719 43.977909088134766" stroke-width="0.0" fill="rgb(198, 96, 63)" opacity="1.0" stroke="rgb(23, 196, 190)" stroke-opacity="0.967897" stroke-linecap="round" stroke-linejoin="round"/>
    <path d="M 454.11962890625 229.72959899902344 C 437.64007568359375 165.73988342285156 415.2081604003906 188.18638610839844 426.1424255371094 187.26185607910156 C 409.9416809082031 198.295166015625 397.5573425292969 195.5220947265625 404.3974304199219 194.91949462890625 C 412.97998046875 189.30882263183594 415.2307434082031 183.39083862304688 419.95184326171875 178.80702209472656 C 402.3914489746094 170.73703002929688 450.3399963378906 178.30189514160156 454.11962890625 229.72959899902344" stroke-width="0.0" fill="rgb(0, 0, 0)" opacity="0.36115253" stroke="rgb(192, 170, 55)" stroke-opacity="0.94969493" stroke-linecap="round" stroke-linejoin="round"/>
    <path d="M 383.11651611328125 220.12557983398438 C 383.5144348144531 238.21429443359375 405.02581787109375 229.2747344970703 393.31402587890625 233.5367889404297 C 373.79052734375 233.70533752441406 380.6939697265625 218.95433044433594 374.6348571777344 240.49520874023438 C 370.1484680175781 230.19822692871094 389.2422180175781 201.36387634277344 420.7298889160156 215.89122009277344 C 385.7998352050781 206.83688354492188 383.9330139160156 226.38145446777344 383.11651611328125 220.12557983398438" stroke-width="0.0" fill="rgb(87, 86, 85)" opacity="0.9553286" stroke="rgb(17, 124, 102)" stroke-opacity="0.22476366" stroke-linecap="round" stroke-linejoin="round"/>
    <path d="M 347.8290710449219 223.16943359375 C 351.5696105957031 251.47787475585938 342.234375 260.02813720703125 343.9775085449219 258.00982666015625 C 328.8100280761719 255.194580078125 320.2915954589844 271.8329772949219 336.2573547363281 255.40956115722656 C 341.96527099609375 245.4327850341797 343.5592956542969 245.54202270507812 345.3160095214844 242.647705078125 C 348.7961730957031 236.1949005126953 349.9515075683594 232.62527465820312 347.8290710449219 223.16943359375" stroke-width="0.0" fill="rgb(234, 255, 255)" opacity="0.5581488" stroke="rgb(153, 26, 74)" stroke-opacity="0.03421994" stroke-linecap="round" stroke-linejoin="round"/>
    <path d="M 271.02813720703125 103.369384765625 C 271.7958068847656 101.5755386352539 260.3466491699219 111.46266174316406 265.2546691894531 124.70201873779297 C 259.6496276855469 114.50578308105469 267.5567932128906 125.69469451904297 257.980224609375 115.43517303466797 C 258.16290283203125 87.66085052490234 257.3265686035156 92.91763305664062 260.00018310546875 96.11193084716797 C 262.9975891113281 100.18165588378906 267.00323486328125 102.59660339355469 271.02813720703125 103.369384765625" stroke-width="0.0" fill="rgb(199, 217, 214)" opacity="1.0" stroke="rgb(67, 194, 211)" stroke-opacity="0.5493389" stroke-linecap="round" stroke-linejoin="round"/>
    <path d="M 187.7493896484375 153.67825317382812 C 165.93153381347656 158.99594116210938 176.883544921875 158.18650817871094 178.29469299316406 165.422607421875 C 171.48516845703125 159.06271362304688 168.7119140625 158.68907165527344 174.36672973632812 156.4559326171875 C 173.281494140625 157.6268768310547 174.6128692626953 155.49607849121094 170.077392578125 159.1027374267578 C 174.63539123535156 153.1104736328125 190.13279724121094 152.8373260498047 187.7493896484375 153.67825317382812" stroke-width="0.0" fill="rgb(9, 25, 0)" opacity="0.8147652" stroke="rgb(249, 138, 40)" stroke-opacity="0.23134333" stroke-linecap="round" stroke-linejoin="round"/>
    <path d="M 384.4868469238281 116.38553619384766 C 366.2232971191406 119.91328430175781 389.32244873046875 116.26075744628906 353.1905212402344 115.28533935546875 C 374.9761657714844 113.78144073486328 350.89227294921875 102.44884490966797 334.15069580078125 128.36305236816406 C 344.9377746582031 105.0733642578125 369.0471496582031 108.77591705322266 376.1236572265625 113.20947265625 C 373.99615478515625 108.74175262451172 375.497802734375 117.31336212158203 384.4868469238281 116.38553619384766" stroke-width="0.0" fill="rgb(107, 106, 106)" opacity="0.9876935" stroke="rgb(55, 160, 240)" stroke-opacity="0.21185939" stroke-linecap="round" stroke-linejoin="round"/>
    <path d="M 113.10493469238281 286.8287048339844 C 98.14702606201172 304.5907897949219 -4.682411193847656 266.7601623535156 73.39000701904297 267.3690490722656 C 133.01783752441406 248.57424926757812 117.60009002685547 260.0279846191406 100.06878662109375 249.54183959960938 C 108.91238403320312 249.1900634765625 125.50720977783203 244.1831817626953 119.51251220703125 238.8883819580078 C 115.21803283691406 227.68162536621094 135.5358428955078 231.2020721435547 113.10493469238281 286.8287048339844" stroke-width="0.0" fill="rgb(121, 36, 0)" opacity="0.3059839" stroke="rgb(175, 191, 234)" stroke-opacity="0.08538078" stroke-linecap="round" stroke-linejoin="round"/>
    <path d="M 464.7789306640625 230.53445434570312 C 463.90203857421875 234.61940002441406 461.81732177734375 247.95816040039062 450.58697509765625 253.76577758789062 C 447.3311767578125 255.3536834716797 457.04119873046875 249.98985290527344 453.49761962890625 222.41220092773438 C 457.5281677246094 225.12356567382812 460.55474853515625 228.4237518310547 463.20916748046875 216.76364135742188 C 463.1636962890625 210.93106079101562 465.8424072265625 209.3325653076172 464.7789306640625 230.53445434570312" stroke-width="0.0" fill="rgb(230, 254, 250)" opacity="0.7188312" stroke="rgb(49, 71, 115)" stroke-opacity="0.40447986" stroke-linecap="round" stroke-linejoin="round"/>
    <path d="M 167.24119567871094 311.39599609375 C 117.37407684326172 281.1368713378906 188.7403564453125 346.6463317871094 154.15138244628906 315.2899169921875 C 114.79830932617188 304.5935974121094 109.34754943847656 317.76531982421875 124.65225219726562 304.7552490234375 C 118.74261474609375 310.0649108886719 118.2857437133789 308.7272033691406 124.57122039794922 298.94708251953125 C 145.29483032226562 298.81365966796875 161.2639923095703 302.34478759765625 167.24119567871094 311.39599609375" stroke-width="0.0" fill="rgb(141, 66, 43)" opacity="0.59390515" stroke="rgb(197, 252, 226)" stroke-opacity="0.00535726" stroke-linecap="round" stroke-linejoin="round"/>
    <path d="M 111.30369567871094 299.7602844238281 C 109.84388732910156 315.9947814941406 94.07367706298828 311.60589599609375 105.1358871459961 298.7334289550781 C 126.32672119140625 296.09368896484375 58.90182113647461 301.9386291503906 51.890113830566406 278.8955078125 C 50.62723922729492 302.9449768066406 121.4059829711914 297.8224792480469 158.959228515625 303.6431579589844 C 109.31584167480469 293.6127014160156 94.12372589111328 300.64459228515625 111.30369567871094 299.7602844238281" stroke-width="0.0" fill="rgb(52, 17, 31)" opacity="0.82413733" stroke="rgb(39, 138, 221)" stroke-opacity="0.8665675" stroke-linecap="round" stroke-linejoin="round"/>
    <path d="M 102.21776580810547 196.46875 C 96.50223541259766 196.53179931640625 92.37187194824219 196.25601196289062 96.32364654541016 196.22100830078125 C 87.3993911743164 198.0539093017578 70.42021942138672 194.34017944335938 69.80640411376953 185.61524963378906 C 70.69576263427734 185.00807189941406 82.71046447753906 179.16329956054688 81.58485412597656 183.0316925048828 C 82.04068756103516 189.873779296875 93.22112274169922 192.57778930664062 102.21776580810547 196.46875" stroke-width="0.0" fill="rgb(182, 129, 114)" opacity="1.0" stroke="rgb(80, 115, 102)" stroke-opacity="0.98515934" stroke-linecap="round" stroke-linejoin="round"/>
    <path d="M 459.4993896484375 228.79922485351562 C 462.8148498535156 216.48565673828125 461.65814208984375 221.40185546875 460.6100769042969 226.3258819580078 C 459.1227111816406 231.49227905273438 460.8031005859375 223.51812744140625 459.07891845703125 219.77044677734375 C 459.12432861328125 221.71730041503906 461.6797180175781 216.8801727294922 463.9114074707031 214.3579864501953 C 464.5460510253906 224.170166015625 461.7540588378906 229.42385864257812 459.4993896484375 228.79922485351562" stroke-width="0.0" fill="rgb(182, 204, 199)" opacity="0.82760525" stroke="rgb(120, 200, 246)" stroke-opacity="0.69592017" stroke-linecap="round" stroke-linejoin="round"/>
    <path d="M 102.84088897705078 196.90911865234375 C 95.6972885131836 196.77053833007812 80.99602508544922 198.0619354248047 76.78931427001953 193.15155029296875 C 98.6099853515625 190.89991760253906 94.2068099975586 195.02813720703125 84.49642181396484 188.15235900878906 C 75.85555267333984 194.65841674804688 75.24485778808594 192.28018188476562 89.18506622314453 192.30458068847656 C 92.92365264892578 192.2156524658203 92.65796661376953 193.37158203125 102.84088897705078 196.90911865234375" stroke-width="0.0" fill="rgb(153, 81, 60)" opacity="0.67171127" stroke="rgb(33, 20, 114)" stroke-opacity="0.528133" stroke-linecap="round" stroke-linejoin="round"/>
    <path d="M 435.5180358886719 200.9694366455078 C 429.6059875488281 203.0843505859375 428.4462585449219 203.1395263671875 433.36431884765625 201.3687286376953 C 440.74786376953125 201.05902099609375 428.6468811035156 202.39608764648438 414.91619873046875 199.8986358642578 C 426.7657470703125 198.74154663085938 427.9474792480469 195.88780212402344 431.1314697265625 194.19921875 C 429.3749694824219 192.989990234375 439.1560974121094 202.61473083496094 435.5180358886719 200.9694366455078" stroke-width="0.0" fill="rgb(136, 135, 136)" opacity="0.8682091" stroke="rgb(16, 88, 91)" stroke-opacity="0.824475" stroke-linecap="round" stroke-linejoin="round"/>
    <path d="M 370.7149963378906 248.84738159179688 C 357.0060119628906 246.913330078125 358.88287353515625 256.6644592285156 364.42413330078125 253.61105346679688 C 315.3399963378906 288.7710266113281 330.455078125 279.1067199707031 351.483642578125 253.1020050048828 C 362.7714538574219 230.9242706298828 360.9147644042969 250.85202026367188 359.3202209472656 219.90774536132812 C 367.49456787109375 254.02139282226562 354.37591552734375 240.23695373535156 370.7149963378906 248.84738159179688" stroke-width="0.0" fill="rgb(99, 99, 98)" opacity="0.99427575" stroke="rgb(244, 76, 49)" stroke-opacity="0.27455533" stroke-linecap="round" stroke-linejoin="round"/>
    <path d="M 122.7639389038086 121.49298858642578 C 102.1553955078125 120.8092041015625 94.53499603271484 145.19277954101562 95.9558334350586 151.40541076660156 C 96.91401672363281 149.501953125 93.84147644042969 151.5553436279297 97.74857330322266 162.29708862304688 C 98.73038482666016 156.9080047607422 96.61243438720703 159.80975341796875 96.9012451171875 153.255859375 C 98.77577209472656 164.8322296142578 89.24689483642578 129.53890991210938 122.7639389038086 121.49298858642578" stroke-width="0.0" fill="rgb(66, 43, 54)" opacity="0.85369766" stroke="rgb(197, 85, 2)" stroke-opacity="0.19579887" stroke-linecap="round" stroke-linejoin="round"/>
    <path d="M 348.5220947265625 224.82591247558594 C 349.77545166015625 226.46533203125 354.5937194824219 241.16444396972656 342.87469482421875 208.7271728515625 C 353.0868835449219 229.13980102539062 351.7314147949219 228.09388732910156 351.1897277832031 226.19097900390625 C 357.7700500488281 237.83477783203125 365.3394775390625 235.00885009765625 355.59320068359375 259.64935302734375 C 315.130615234375 274.50079345703125 354.8675231933594 269.99078369140625 348.5220947265625 224.82591247558594" stroke-width="0.0" fill="rgb(122, 122, 122)" opacity="1.0" stroke="rgb(149, 134, 19)" stroke-opacity="0.36033604" stroke-linecap="round" stroke-linejoin="round"/>
    <path d="M 444.1260681152344 198.27151489257812 C 432.814697265625 201.21969604492188 428.21136474609375 201.4606475830078 423.6756896972656 200.336669921875 C 417.5541687011719 200.28460693359375 434.091796875 201.87864685058594 417.3927917480469 200.55984497070312 C 417.79437255859375 199.02374267578125 428.6136474609375 200.00318908691406 435.39117431640625 189.24337768554688 C 430.3193664550781 186.4785614013672 422.9481201171875 171.021240234375 444.1260681152344 198.27151489257812" stroke-width="0.0" fill="rgb(25, 22, 21)" opacity="0.2555025" stroke="rgb(27, 191, 13)" stroke-opacity="0.07526278" stroke-linecap="round" stroke-linejoin="round"/>
    <path d="M 224.68203735351562 141.8292694091797 C 214.27320861816406 152.49395751953125 193.6220703125 156.89625549316406 179.4202880859375 165.84805297851562 C 164.6591796875 148.4711456298828 192.67495727539062 163.2463836669922 183.98936462402344 146.00782775878906 C 180.6903839111328 146.38946533203125 186.01722717285156 141.18128967285156 196.7109832763672 143.92654418945312 C 184.97157287597656 140.481201171875 186.28622436523438 143.64393615722656 224.68203735351562 141.8292694091797" stroke-width="0.0" fill="rgb(126, 151, 133)" opacity="1.0" stroke="rgb(123, 23, 234)" stroke-opacity="0.20354412" stroke-linecap="round" stroke-linejoin="round"/>
    <path d="M 132.20779418945312 313.214599609375 C 126.21522521972656 289.0796203613281 121.96292877197266 303.34381103515625 119.38175964355469 309.78369140625 C 78.5966567993164 308.8822937011719 72.24006652832031 304.2437744140625 92.78001403808594 306.0899353027344 C 46.949005126953125 309.7465515136719 15.822463989257812 262.214111328125 70.06046295166016 295.3321228027344 C 133.8538360595703 305.8795166015625 158.15943908691406 292.7750244140625 132.20779418945312 313.214599609375" stroke-width="0.0" fill="rgb(229, 182, 132)" opacity="0.57486874" stroke="rgb(222, 32, 206)" stroke-opacity="0.63155216" stroke-linecap="round" stroke-linejoin="round"/>
    <path d="M 324.4971923828125 71.57271575927734 C 335.0935974121094 35.53915023803711 328.005126953125 49.06767272949219 332.4927978515625 52.34311294555664 C 330.0529479980469 28.296371459960938 332.14349365234375 41.12778091430664 332.7032470703125 45.67879104614258 C 323.8998107910156 49.56304168701172 358.1318054199219 40.156436920166016 332.5263977050781 44.952423095703125 C 328.1605529785156 38.0516471862793 335.5912780761719 54.4715576171875 324.4971923828125 71.57271575927734" stroke-width="0.0" fill="rgb(33, 53, 31)" opacity="0.8935672" stroke="rgb(160, 71, 38)" stroke-opacity="0.7337446" stroke-linecap="round" stroke-linejoin="round"/>
    <path d="M 65.54995727539062 216.96241760253906 C 58.09081268310547 221.89109802246094 50.38188171386719 221.6629180908203 50.32681655883789 221.31427001953125 C 51.19728469848633 221.1032257080078 42.4260139465332 220.14210510253906 45.509727478027344 214.52537536621094 C 49.795188903808594 205.27801513671875 46.65614700317383 209.8690948486328 49.35075378417969 211.2514190673828 C 52.025962829589844 216.32315063476562 62.19804382324219 217.4529571533203 65.54995727539062 216.96241760253906" stroke-width="0.0" fill="rgb(163, 96, 83)" opacity="0.7996814" stroke="rgb(82, 220, 67)" stroke-opacity="0.33656245" stroke-linecap="round" stroke-linejoin="round"/>
    <path d="M 150.9857177734375 312.8803405761719 C 98.95417022705078 309.1614074707031 100.24388122558594 310.9444885253906 104.43753051757812 310.5312805175781 C 141.6600799560547 308.841552734375 37.02842712402344 318.0128479003906 41.14680862426758 278.3936767578125 C 45.38154220581055 313.1866149902344 112.87965393066406 307.4383239746094 111.94500732421875 307.4483947753906 C 71.65123748779297 309.9529113769531 114.09286499023438 306.10064697265625 150.9857177734375 312.8803405761719" stroke-width="0.0" fill="rgb(70, 41, 50)" opacity="0.8782681" stroke="rgb(91, 220, 227)" stroke-opacity="0.69543344" stroke-linecap="round" stroke-linejoin="round"/>
    <path d="M 463.820556640625 220.30624389648438 C 458.9169006347656 232.56591796875 459.1419677734375 231.25352478027344 456.828369140625 226.7794952392578 C 452.9806213378906 221.1632537841797 441.9183654785156 215.30047607421875 448.2122802734375 254.87408447265625 C 459.7516784667969 228.20408630371094 444.47564697265625 221.37478637695312 457.65618896484375 222.17266845703125 C 465.3480529785156 208.89794921875 464.0398864746094 206.95362854003906 463.820556640625 220.30624389648438" stroke-width="0.0" fill="rgb(240, 246, 247)" opacity="0.34030983" stroke="rgb(151, 227, 12)" stroke-opacity="0.005798796" stroke-linecap="round" stroke-linejoin="round"/>
    <path d="M 460.1742858886719 223.9310302734375 C 458.14068603515625 235.38487243652344 456.4591369628906 239.07717895507812 459.38665771484375 223.1311492919922 C 461.96575927734375 207.7838592529297 446.0647277832031 290.667236328125 396.1327819824219 250.53578186035156 C 365.3335876464844 213.39466857910156 471.9619140625 166.3935546875 446.0074157714844 238.9033966064453 C 466.8116455078125 233.26318359375 459.72247314453125 224.4615936279297 460.1742858886719 223.9310302734375" stroke-width="0.0" fill="rgb(194, 193, 194)" opacity="0.50911206" stroke="rgb(174, 96, 107)" stroke-opacity="0.4022543" stroke-linecap="round" stroke-linejoin="round"/>
    <path d="M 458.39404296875 244.57720947265625 C 452.6134948730469 225.36727905273438 454.7615966796875 227.9229736328125 455.17315673828125 230.42538452148438 C 456.3982849121094 251.09803771972656 445.5338134765625 258.999755859375 459.20721435546875 244.7423095703125 C 449.0163879394531 226.09388732910156 457.8032531738281 223.6398468017578 463.8326110839844 219.4444122314453 C 464.71807861328125 237.74917602539062 458.81982421875 244.68374633789062 458.39404296875 244.57720947265625" stroke-width="0.0" fill="rgb(200, 215, 212)" opacity="0.97400314" stroke="rgb(51, 246, 63)" stroke-opacity="0.7444676" stroke-linecap="round" stroke-linejoin="round"/>
    <path d="M 316.1773376464844 241.11180114746094 C 319.4749755859375 232.798095703125 308.5756530761719 228.8282928466797 313.7994689941406 231.6050262451172 C 333.4762268066406 250.2827606201172 325.499755859375 240.8515625 312.0127868652344 227.3350372314453 C 298.884521484375 208.1453399658203 270.43731689453125 192.11134338378906 299.2430419921875 214.94097900390625 C 311.7052307128906 233.05850219726562 318.80718994140625 231.1227569580078 316.1773376464844 241.11180114746094" stroke-width="0.0" fill="rgb(44, 58, 36)" opacity="0.9796778" stroke="rgb(138, 94, 235)" stroke-opacity="0.05005531" stroke-linecap="round" stroke-linejoin="round"/>
    <path d="M 126.11378479003906 236.78721618652344 C 114.65460205078125 231.06854248046875 118.15623474121094 236.5691375732422 105.34068298339844 239.17918395996094 C 95.2013931274414 240.87635803222656 107.37028503417969 240.77178955078125 109.69766998291016 230.0196075439453 C 113.71717834472656 215.42236328125 76.33549499511719 219.1874237060547 79.80707550048828 218.66290283203125 C 115.9446792602539 210.03102111816406 120.83299255371094 241.5391845703125 126.11378479003906 236.78721618652344" stroke-width="0.0" fill="rgb(127, 84, 77)" opacity="0.9628673" stroke="rgb(234, 154, 150)" stroke-opacity="0.9568886" stroke-linecap="round" stroke-linejoin="round"/>
  </g>
</svg>
