<?xml version="1.0" ?>
<svg xmlns="http://www.w3.org/2000/svg" version="1.1" width="512" height="352">
  <defs/>
  <g>
    <path d="M 143.7519073486328 178.09320068359375 C 156.54823303222656 246.7796630859375 154.22743225097656 248.87722778320312 120.25088500976562 256.8868103027344 C 67.89537811279297 253.63601684570312 66.55059051513672 252.0297393798828 38.549739837646484 235.88673400878906 C 49.36362838745117 188.44346618652344 67.40597534179688 181.39125061035156 99.51278686523438 176.58126831054688 C 119.59114074707031 140.8539276123047 135.93548583984375 149.59921264648438 143.7519073486328 178.09320068359375" stroke-width="0.0" fill="rgb(208, 181, 151)" opacity="1.0" stroke="rgb(176, 193, 126)" stroke-opacity="0.57605314" stroke-linecap="round" stroke-linejoin="round"/>
    <path d="M 252.4130401611328 173.0028076171875 C 235.61500549316406 189.6129608154297 230.37640380859375 216.02951049804688 192.75558471679688 261.48724365234375 C 188.41549682617188 228.70933532714844 182.2001495361328 242.02008056640625 175.15151977539062 192.9116973876953 C 201.5384063720703 157.18255615234375 153.8516387939453 192.48068237304688 180.93563842773438 155.84759521484375 C 290.8772888183594 52.10514450073242 221.301513671875 52.53767395019531 252.4130401611328 173.0028076171875" stroke-width="0.0" fill="rgb(20, 54, 22)" opacity="0.55079776" stroke="rgb(115, 154, 173)" stroke-opacity="0.28549516" stroke-linecap="round" stroke-linejoin="round"/>
    <path d="M 319.54693603515625 223.43260192871094 C 337.08111572265625 255.25257873535156 331.79473876953125 241.34303283691406 265.7762756347656 226.73695373535156 C 274.3929748535156 267.175537109375 244.7296142578125 298.1377258300781 257.8260498046875 221.0096893310547 C 224.04180908203125 59.91117858886719 232.6441192626953 79.58277893066406 262.0812683105469 195.64688110351562 C 292.88037109375 199.54469299316406 319.076904296875 189.1007080078125 319.54693603515625 223.43260192871094" stroke-width="0.0" fill="rgb(26, 39, 14)" opacity="0.8370703" stroke="rgb(79, 124, 94)" stroke-opacity="0.90476865" stroke-linecap="round" stroke-linejoin="round"/>
    <path d="M 276.6046447753906 200.7303009033203 C 300.7753601074219 235.93304443359375 302.237060546875 235.41275024414062 274.4884948730469 227.1306915283203 C 265.98638916015625 240.81027221679688 254.7367401123047 212.2047576904297 262.0989990234375 205.32737731933594 C 288.8066711425781 195.2967529296875 274.94659423828125 168.62213134765625 307.69219970703125 189.67120361328125 C 335.769287109375 262.57183837890625 310.275146484375 237.372802734375 276.6046447753906 200.7303009033203" stroke-width="0.0" fill="rgb(105, 138, 139)" opacity="1.0" stroke="rgb(89, 158, 68)" stroke-opacity="0.45207614" stroke-linecap="round" stroke-linejoin="round"/>
    <path d="M 348.7132568359375 43.88496017456055 C 318.1681213378906 114.25250244140625 352.7328186035156 22.638917922973633 289.0364990234375 110.9242935180664 C 261.38116455078125 131.25518798828125 259.6044006347656 98.03733825683594 259.34881591796875 52.03675079345703 C 314.24969482421875 55.59406280517578 320.7127990722656 25.49339485168457 320.69561767578125 27.906713485717773 C 346.09173583984375 44.82571792602539 316.49017333984375 44.71196746826172 348.7132568359375 43.88496017456055" stroke-width="0.0" fill="rgb(142, 53, 16)" opacity="0.6784093" stroke="rgb(106, 75, 135)" stroke-opacity="0.17145537" stroke-linecap="round" stroke-linejoin="round"/>
    <path d="M 315.0760498046875 273.5389099121094 C 333.83477783203125 287.14447021484375 251.9652557373047 282.7654113769531 262.399658203125 281.70355224609375 C 244.5508270263672 285.638427734375 279.24005126953125 286.019287109375 213.2412567138672 284.1436767578125 C 197.97508239746094 270.1453552246094 243.17047119140625 272.1521301269531 277.9508972167969 277.9657897949219 C 301.63629150390625 258.5178527832031 289.37701416015625 278.2099609375 315.0760498046875 273.5389099121094" stroke-width="0.0" fill="rgb(0, 56, 76)" opacity="0.34729564" stroke="rgb(59, 80, 233)" stroke-opacity="0.8857977" stroke-linecap="round" stroke-linejoin="round"/>
    <path d="M 236.29151916503906 114.77873992919922 C 244.42095947265625 170.8831787109375 246.4506072998047 140.19146728515625 232.40086364746094 157.92442321777344 C 229.2151641845703 160.3612060546875 238.6485137939453 141.97579956054688 208.37588500976562 134.22264099121094 C 198.59693908691406 132.18016052246094 203.30990600585938 139.31268310546875 236.7436065673828 93.9534912109375 C 261.1982116699219 58.85978698730469 232.04786682128906 88.5881576538086 236.29151916503906 114.77873992919922" stroke-width="0.0" fill="rgb(202, 216, 214)" opacity="1.0" stroke="rgb(134, 39, 142)" stroke-opacity="0.9982061" stroke-linecap="round" stroke-linejoin="round"/>
    <path d="M 422.517578125 254.2337188720703 C 412.4285583496094 271.89520263671875 416.2816467285156 290.328857421875 376.2793884277344 284.20721435546875 C 378.14697265625 275.9286193847656 372.7811584472656 288.766845703125 320.36431884765625 271.2367858886719 C 360.08905029296875 238.5570831298828 358.5103759765625 189.78115844726562 427.6772766113281 191.2313232421875 C 461.43853759765625 233.68777465820312 449.0391540527344 243.9245147705078 422.517578125 254.2337188720703" stroke-width="0.0" fill="rgb(108, 106, 108)" opacity="0.53206503" stroke="rgb(69, 143, 251)" stroke-opacity="0.74109566" stroke-linecap="round" stroke-linejoin="round"/>
    <path d="M 262.1914367675781 155.08433532714844 C 254.55137634277344 159.01438903808594 270.35992431640625 169.02503967285156 252.06649780273438 167.31033325195312 C 248.25009155273438 182.68515014648438 237.8002471923828 175.497314453125 236.8880615234375 160.14952087402344 C 253.87400817871094 156.7692413330078 250.00904846191406 155.78366088867188 260.3605651855469 146.12408447265625 C 255.61378479003906 149.7772216796875 265.38037109375 153.78292846679688 262.1914367675781 155.08433532714844" stroke-width="0.0" fill="rgb(114, 141, 121)" opacity="1.0" stroke="rgb(84, 23, 2)" stroke-opacity="0.42600137" stroke-linecap="round" stroke-linejoin="round"/>
    <path d="M 442.06494140625 276.0381774902344 C 446.3529968261719 281.1439514160156 428.71209716796875 283.8013610839844 388.2460021972656 285.9411315917969 C 366.4063415527344 280.8822326660156 372.245849609375 282.91632080078125 415.4005126953125 282.4271240234375 C 410.970703125 264.0713806152344 402.4136657714844 257.69573974609375 400.8702087402344 263.53448486328125 C 428.4995422363281 270.0054626464844 426.0685119628906 261.5940246582031 442.06494140625 276.0381774902344" stroke-width="0.0" fill="rgb(82, 81, 80)" opacity="0.83494" stroke="rgb(182, 50, 239)" stroke-opacity="0.47272745" stroke-linecap="round" stroke-linejoin="round"/>
    <path d="M 382.6146545410156 150.57664489746094 C 391.0469970703125 192.4688262939453 418.51422119140625 196.5526123046875 359.393798828125 242.29441833496094 C 324.0524597167969 201.11952209472656 359.9881286621094 188.13902282714844 344.493896484375 163.8480224609375 C 300.8767395019531 139.67210388183594 326.1084289550781 106.67527770996094 361.312744140625 144.3883514404297 C 378.08905029296875 152.0062255859375 369.8597412109375 146.0264129638672 382.6146545410156 150.57664489746094" stroke-width="0.0" fill="rgb(163, 163, 163)" opacity="1.0" stroke="rgb(154, 143, 102)" stroke-opacity="0.6558297" stroke-linecap="round" stroke-linejoin="round"/>
    <path d="M 326.30523681640625 237.37960815429688 C 335.3851013183594 249.26055908203125 305.0644226074219 234.5338897705078 299.2120361328125 231.02188110351562 C 295.82635498046875 237.80978393554688 288.36724853515625 229.6861572265625 287.25360107421875 216.4198760986328 C 298.9879455566406 241.536376953125 298.37762451171875 226.36436462402344 285.1776123046875 209.8016357421875 C 281.4548645019531 201.14602661132812 309.5120849609375 207.52450561523438 326.30523681640625 237.37960815429688" stroke-width="0.0" fill="rgb(95, 127, 129)" opacity="1.0" stroke="rgb(39, 150, 55)" stroke-opacity="0.14697085" stroke-linecap="round" stroke-linejoin="round"/>
    <path d="M 392.7381286621094 168.71165466308594 C 401.6308288574219 176.376953125 435.6787109375 167.09324645996094 451.318115234375 215.0856170654297 C 370.6233215332031 194.01466369628906 388.6346130371094 197.0695343017578 376.1778259277344 150.46548461914062 C 310.22735595703125 152.79498291015625 320.9579772949219 119.03521728515625 378.0411376953125 100.28079986572266 C 405.49298095703125 143.7883758544922 390.56268310546875 144.92515563964844 392.7381286621094 168.71165466308594" stroke-width="0.0" fill="rgb(158, 159, 159)" opacity="1.0" stroke="rgb(8, 155, 15)" stroke-opacity="0.65340716" stroke-linecap="round" stroke-linejoin="round"/>
    <path d="M 186.06231689453125 164.50621032714844 C 192.42611694335938 164.90562438964844 182.04351806640625 163.27996826171875 205.06678771972656 158.03329467773438 C 238.048095703125 157.7032012939453 237.52362060546875 158.77792358398438 199.62290954589844 160.2562255859375 C 228.74488830566406 163.99151611328125 197.739013671875 151.15382385253906 142.4293670654297 184.9730224609375 C 191.4036865234375 167.4893035888672 194.8509979248047 161.1697998046875 186.06231689453125 164.50621032714844" stroke-width="0.0" fill="rgb(50, 37, 17)" opacity="0.5228267" stroke="rgb(33, 245, 63)" stroke-opacity="0.33612138" stroke-linecap="round" stroke-linejoin="round"/>
    <path d="M 477.6072998046875 229.5238037109375 C 474.173828125 273.7298889160156 416.8080749511719 283.37164306640625 422.2593688964844 281.5655822753906 C 367.3769836425781 286.0493469238281 379.31134033203125 286.1690368652344 402.81072998046875 258.4310302734375 C 420.2489013671875 253.6690673828125 410.56378173828125 246.76292419433594 448.0765075683594 213.68173217773438 C 457.8963623046875 227.13107299804688 477.3395690917969 164.92715454101562 477.6072998046875 229.5238037109375" stroke-width="0.0" fill="rgb(162, 163, 163)" opacity="0.90513813" stroke="rgb(213, 96, 151)" stroke-opacity="0.77533954" stroke-linecap="round" stroke-linejoin="round"/>
  </g>
</svg>
