<?xml version="1.0" ?>
<svg xmlns="http://www.w3.org/2000/svg" version="1.1" width="512" height="352">
  <defs/>
  <g>
    <path d="M 143.62013244628906 179.4734649658203 C 156.6885528564453 246.68161010742188 154.1162109375 248.7508544921875 119.91717529296875 256.7874450683594 C 67.89537811279297 253.63601684570312 66.55059051513672 252.0297393798828 39.4342155456543 235.69778442382812 C 48.546875 188.90792846679688 67.45417785644531 181.7509002685547 97.54830169677734 176.7428436279297 C 130.68838500976562 146.71165466308594 136.10260009765625 150.4774627685547 143.62013244628906 179.4734649658203" stroke-width="0.0" fill="rgb(211, 178, 145)" opacity="0.87143177" stroke="rgb(176, 193, 126)" stroke-opacity="0.57605314" stroke-linecap="round" stroke-linejoin="round"/>
    <path d="M 260.7742614746094 163.8289794921875 C 226.16952514648438 206.33319091796875 219.4368438720703 232.4121856689453 191.78172302246094 261.7987976074219 C 192.63058471679688 237.5747833251953 180.74761962890625 238.6175994873047 175.31594848632812 193.01528930664062 C 197.00108337402344 156.02481079101562 165.61148071289062 194.19996643066406 172.5902557373047 157.0499267578125 C 233.77713012695312 124.1655502319336 261.4107971191406 144.7534942626953 260.7742614746094 163.8289794921875" stroke-width="0.0" fill="rgb(53, 80, 53)" opacity="0.5944555" stroke="rgb(115, 154, 173)" stroke-opacity="0.28549516" stroke-linecap="round" stroke-linejoin="round"/>
    <path d="M 320.6911315917969 225.3486328125 C 337.24462890625 255.4794158935547 328.7793884277344 239.9861602783203 266.1890563964844 227.49224853515625 C 273.53961181640625 275.4843444824219 244.06455993652344 288.5595703125 257.62506103515625 227.96119689941406 C 241.35752868652344 123.84300994873047 245.50013732910156 135.34059143066406 262.7196350097656 196.38949584960938 C 291.83642578125 196.7353973388672 310.5318908691406 169.96998596191406 320.6911315917969 225.3486328125" stroke-width="0.0" fill="rgb(39, 64, 50)" opacity="0.7506253" stroke="rgb(79, 124, 94)" stroke-opacity="0.90476865" stroke-linecap="round" stroke-linejoin="round"/>
  </g>
</svg>
