<?xml version="1.0" ?>
<svg xmlns="http://www.w3.org/2000/svg" version="1.1" width="512" height="512">
  <defs/>
  <g>
    <path d="M 280.9699401855469 254.79901123046875 C 316.95037841796875 361.6268005371094 292.3907775878906 325.9212341308594 221.1762237548828 337.55645751953125 C 215.10089111328125 220.75474548339844 249.15867614746094 247.0367889404297 208.97702026367188 216.22056579589844 C 61.97026824951172 235.22377014160156 223.41127014160156 52.70188522338867 345.88519287109375 164.35604858398438 C 442.87176513671875 280.9196472167969 259.8182678222656 162.0498504638672 280.9699401855469 254.79901123046875" stroke-width="0.0" fill="rgb(237, 180, 0)" opacity="0.7901683" stroke="rgb(181, 68, 134)" stroke-opacity="0.17347337" stroke-linecap="round" stroke-linejoin="round"/>
    <path d="M 275.11932373046875 129.66099548339844 C 222.86083984375 121.81210327148438 196.24842834472656 146.0542755126953 210.80108642578125 138.23776245117188 C 168.57440185546875 154.55364990234375 177.3062286376953 196.0534210205078 104.28447723388672 173.5579071044922 C 96.25157165527344 9.453678131103516 86.46648406982422 34.75687789916992 281.7662353515625 31.805635452270508 C 285.4355773925781 113.97197723388672 285.79107666015625 133.16432189941406 275.11932373046875 129.66099548339844" stroke-width="0.0" fill="rgb(255, 255, 240)" opacity="0.10975171" stroke="rgb(240, 140, 152)" stroke-opacity="0.4638614" stroke-linecap="round" stroke-linejoin="round"/>
    <path d="M 188.73252868652344 255.84112548828125 C 187.37155151367188 365.56951904296875 190.3269500732422 395.1993408203125 188.74856567382812 364.90008544921875 C 144.11776733398438 337.5618896484375 117.30427551269531 281.1601867675781 132.03822326660156 225.13150024414062 C 142.0850372314453 171.1650390625 224.24935913085938 79.13504028320312 343.50048828125 162.4875030517578 C 250.6313934326172 216.9737548828125 152.15142822265625 202.9475860595703 188.73252868652344 255.84112548828125" stroke-width="0.0" fill="rgb(250, 198, 45)" opacity="0.97718436" stroke="rgb(177, 187, 34)" stroke-opacity="0.37765652" stroke-linecap="round" stroke-linejoin="round"/>
    <path d="M 381.34808349609375 281.9130859375 C 373.6663818359375 318.5662536621094 351.9306945800781 346.9569396972656 323.78533935546875 364.6180419921875 C 323.9967346191406 333.5576477050781 323.7817077636719 322.7275390625 324.0096130371094 245.97962951660156 C 311.2384948730469 192.92828369140625 254.35952758789062 165.33372497558594 354.718505859375 174.5423126220703 C 387.515625 215.3967742919922 386.4622802734375 258.33892822265625 381.34808349609375 281.9130859375" stroke-width="0.0" fill="rgb(245, 189, 31)" opacity="0.8941272" stroke="rgb(254, 71, 162)" stroke-opacity="0.90440094" stroke-linecap="round" stroke-linejoin="round"/>
    <path d="M 323.02801513671875 260.824462890625 C 326.74853515625 358.3508605957031 467.6686096191406 402.8567199707031 176.04603576660156 387.9983215332031 C 88.71035766601562 343.4461669921875 226.10635375976562 437.53009033203125 181.00656127929688 248.29373168945312 C 260.8477478027344 255.70144653320312 190.7310791015625 352.9858703613281 222.78402709960938 354.6814270019531 C 257.0136413574219 339.8473815917969 272.6438293457031 279.67657470703125 323.02801513671875 260.824462890625" stroke-width="0.0" fill="rgb(0, 100, 233)" opacity="0.69818234" stroke="rgb(19, 33, 168)" stroke-opacity="0.37980086" stroke-linecap="round" stroke-linejoin="round"/>
    <path d="M 294.1443176269531 332.8804016113281 C 295.9699401855469 365.6598205566406 281.98602294921875 360.36395263671875 217.12452697753906 360.0033264160156 C 211.33734130859375 358.5814514160156 213.02159118652344 386.7388000488281 212.75880432128906 263.07135009765625 C 327.80828857421875 284.5654296875 171.64517211914062 352.6185607910156 258.086181640625 323.7923889160156 C 227.4154510498047 228.60055541992188 322.46392822265625 206.1039581298828 294.1443176269531 332.8804016113281" stroke-width="0.0" fill="rgb(249, 200, 49)" opacity="1.0" stroke="rgb(53, 206, 124)" stroke-opacity="0.71719486" stroke-linecap="round" stroke-linejoin="round"/>
    <path d="M 330.1434326171875 261.8733215332031 C 297.32904052734375 296.2911071777344 346.8337707519531 231.71609497070312 307.3683776855469 256.8424377441406 C 351.1701354980469 287.3499450683594 258.31536865234375 283.56182861328125 277.3898010253906 230.47911071777344 C 286.5396423339844 285.35888671875 356.3414306640625 212.47894287109375 289.7835388183594 216.80780029296875 C 325.9736633300781 200.04713439941406 347.8646240234375 242.62196350097656 330.1434326171875 261.8733215332031" stroke-width="0.0" fill="rgb(67, 69, 75)" opacity="0.93419796" stroke="rgb(157, 38, 117)" stroke-opacity="0.08977982" stroke-linecap="round" stroke-linejoin="round"/>
    <path d="M 348.4503479003906 346.15740966796875 C 333.2029724121094 356.6908264160156 338.94708251953125 361.6390075683594 325.45977783203125 363.85784912109375 C 323.6145935058594 365.09576416015625 324.0946044921875 363.428955078125 323.7532653808594 359.92315673828125 C 323.9312438964844 325.684814453125 323.935791015625 319.79522705078125 323.7785949707031 270.8584289550781 C 385.8341064453125 301.52276611328125 370.3680725097656 314.907958984375 348.4503479003906 346.15740966796875" stroke-width="0.0" fill="rgb(250, 200, 49)" opacity="0.9974529" stroke="rgb(218, 245, 71)" stroke-opacity="0.5743141" stroke-linecap="round" stroke-linejoin="round"/>
    <path d="M 236.76768493652344 248.0727996826172 C 237.0208282470703 252.79844665527344 231.4783935546875 266.98284912109375 218.32875061035156 271.9755859375 C 234.65469360351562 242.94778442382812 215.08517456054688 258.9593200683594 224.02017211914062 243.15504455566406 C 221.31985473632812 216.81785583496094 203.44044494628906 205.89622497558594 178.10948181152344 230.6609649658203 C 198.78643798828125 196.0901336669922 242.04759216308594 217.34278869628906 236.76768493652344 248.0727996826172" stroke-width="0.0" fill="rgb(54, 60, 80)" opacity="0.87844217" stroke="rgb(52, 227, 198)" stroke-opacity="0.036462102" stroke-linecap="round" stroke-linejoin="round"/>
    <path d="M 228.83436584472656 260.846923828125 C 231.62088012695312 255.69097900390625 231.23519897460938 245.5027618408203 202.8170928955078 254.68685913085938 C 186.82839965820312 246.68482971191406 193.39894104003906 253.7147216796875 204.41226196289062 248.97738647460938 C 216.19610595703125 244.49325561523438 222.77027893066406 231.6754608154297 216.6360626220703 222.65478515625 C 227.61941528320312 225.32896423339844 230.54440307617188 230.74761962890625 228.83436584472656 260.846923828125" stroke-width="0.0" fill="rgb(75, 75, 75)" opacity="0.98618656" stroke="rgb(39, 254, 181)" stroke-opacity="0.35675168" stroke-linecap="round" stroke-linejoin="round"/>
    <path d="M 219.66021728515625 263.2802429199219 C 242.89413452148438 244.04684448242188 229.50950622558594 274.4391784667969 208.77175903320312 274.09161376953125 C 182.89476013183594 277.90692138671875 158.3340606689453 238.65135192871094 192.6927032470703 216.52459716796875 C 169.84674072265625 239.1694793701172 178.78713989257812 258.86700439453125 227.11936950683594 249.6737823486328 C 212.98988342285156 245.55902099609375 203.4292449951172 265.46197509765625 219.66021728515625 263.2802429199219" stroke-width="0.0" fill="rgb(76, 76, 76)" opacity="0.9914585" stroke="rgb(104, 188, 73)" stroke-opacity="0.7857497" stroke-linecap="round" stroke-linejoin="round"/>
    <path d="M 299.2645263671875 344.2472229003906 C 299.2641906738281 360.84942626953125 299.0437316894531 363.5550842285156 299.1376953125 361.8620910644531 C 274.3083190917969 360.177001953125 266.34564208984375 360.8885803222656 255.70396423339844 360.32196044921875 C 302.86663818359375 352.0877990722656 276.0466003417969 324.25750732421875 299.2776184082031 299.9510803222656 C 299.23663330078125 334.25042724609375 299.0517883300781 340.6109313964844 299.2645263671875 344.2472229003906" stroke-width="0.0" fill="rgb(249, 200, 49)" opacity="0.9999757" stroke="rgb(231, 47, 104)" stroke-opacity="0.51189" stroke-linecap="round" stroke-linejoin="round"/>
    <path d="M 269.9156188964844 322.53265380859375 C 266.0716857910156 327.5276794433594 253.79464721679688 322.54180908203125 241.75877380371094 328.78790283203125 C 236.03170776367188 333.8869934082031 229.17462158203125 328.90570068359375 230.41571044921875 323.63922119140625 C 230.76251220703125 318.2684631347656 242.49508666992188 313.0838623046875 253.6893768310547 312.85980224609375 C 266.22906494140625 311.7052917480469 268.28875732421875 315.1781921386719 269.9156188964844 322.53265380859375" stroke-width="0.0" fill="rgb(70, 72, 78)" opacity="0.962278" stroke="rgb(138, 100, 32)" stroke-opacity="0.9094899" stroke-linecap="round" stroke-linejoin="round"/>
    <path d="M 281.490234375 324.9789123535156 C 281.67169189453125 327.2178039550781 278.9817810058594 332.0190124511719 273.85076904296875 330.8091735839844 C 271.3219299316406 331.2594299316406 268.7379150390625 323.10504150390625 247.51971435546875 325.9834289550781 C 242.91517639160156 312.72314453125 252.04977416992188 310.3577575683594 268.14605712890625 314.16680908203125 C 277.0235290527344 316.89154052734375 282.14642333984375 320.5992736816406 281.490234375 324.9789123535156" stroke-width="0.0" fill="rgb(76, 76, 77)" opacity="0.9970372" stroke="rgb(58, 107, 24)" stroke-opacity="0.6408593" stroke-linecap="round" stroke-linejoin="round"/>
    <path d="M 360.03228759765625 355.8173522949219 C 359.72076416015625 385.7127990722656 362.129638671875 373.19976806640625 350.5086364746094 369.9190368652344 C 333.01904296875 364.3829650878906 318.2936706542969 364.1853942871094 324.6421813964844 364.7322998046875 C 324.9017028808594 363.07794189453125 336.1315002441406 358.5209655761719 352.70538330078125 339.88946533203125 C 351.5401916503906 339.3148498535156 355.1147155761719 348.22857666015625 360.03228759765625 355.8173522949219" stroke-width="0.0" fill="rgb(255, 253, 248)" opacity="0.94628394" stroke="rgb(193, 230, 159)" stroke-opacity="0.042373154" stroke-linecap="round" stroke-linejoin="round"/>
  </g>
</svg>
