<?xml version="1.0" ?>
<svg xmlns="http://www.w3.org/2000/svg" version="1.1" width="512" height="512">
  <defs/>
  <g>
    <path d="M -10.0 -10.0 C -9.0 -10.0 512.0 0.0 513.0 0.0 C 514.0 0.0 512.0 512.0 513.0 512.0 C 513.0 513.0 0.0 512.0 0.0 513.0 C 0.0 512.0 0.0 513.0 -10.0 -10.0 L -10.0 -10.0" stroke-width="2.0" fill="rgb(255, 255, 254)" opacity="0.6327582"/>
    <path d="M 495.5661315917969 225.21932983398438 C 497.5334167480469 224.37014770507812 495.0160827636719 225.70001220703125 495.6594543457031 224.93820190429688 C 495.4203796386719 225.91551208496094 494.6316833496094 225.79502868652344 494.25048828125 226.18228149414062 C 494.3551330566406 227.04605102539062 494.72650146484375 225.3814239501953 492.8775939941406 226.8948516845703 C 494.1880798339844 225.8517303466797 495.6169738769531 226.26547241210938 495.77496337890625 224.29376220703125 L 495.5661315917969 225.21932983398438" stroke-width="2.0" fill="rgb(35, 255, 255)" opacity="0.15863998"/>
    <path d="M 342.3544006347656 43.92362594604492 C 342.46441650390625 43.13026809692383 341.6632995605469 42.85281753540039 342.46051025390625 42.72018051147461 C 347.0410461425781 43.18724060058594 344.37396240234375 43.113887786865234 345.8121032714844 42.772796630859375 C 344.63043212890625 42.960079193115234 346.47174072265625 43.11027145385742 343.92535400390625 42.88478469848633 C 341.2624206542969 42.52592468261719 342.356689453125 42.89225769042969 342.3791198730469 43.69883728027344 L 342.3544006347656 43.92362594604492" stroke-width="2.0" fill="rgb(248, 104, 54)" opacity="0.21311663"/>
    <path d="M 176.1868896484375 318.8838806152344 C 176.98001098632812 318.5306701660156 176.63214111328125 318.8748474121094 176.4895782470703 317.509521484375 C 177.65618896484375 319.2839660644531 177.39926147460938 318.796875 178.92584228515625 318.4407043457031 C 177.3488311767578 319.9210205078125 177.8193817138672 319.5699768066406 178.50254821777344 320.75897216796875 C 176.49668884277344 319.14190673828125 176.62440490722656 319.59747314453125 175.7852020263672 320.7133483886719 L 176.1868896484375 318.8838806152344" stroke-width="2.0" fill="rgb(177, 60, 68)" opacity="0.0"/>
    <path d="M 7.0054097175598145 248.8557891845703 C 7.958775997161865 249.5278778076172 7.28963565826416 249.48342895507812 6.874497890472412 248.39666748046875 C 7.609306812286377 249.8485565185547 6.405235767364502 248.05374145507812 7.8317179679870605 249.63275146484375 C 7.65266752243042 249.57125854492188 7.742980480194092 249.07362365722656 7.857522010803223 250.0532989501953 C 7.638402462005615 249.15618896484375 8.093103408813477 249.86459350585938 7.3005051612854 249.0746612548828 L 7.0054097175598145 248.8557891845703" stroke-width="2.0" fill="rgb(255, 51, 186)" opacity="0.07772468"/>
    <path d="M 308.3384094238281 45.369422912597656 C 309.206298828125 46.65193557739258 308.9912414550781 45.9861946105957 308.64630126953125 45.82378005981445 C 308.84698486328125 45.85100555419922 308.5724792480469 45.785484313964844 309.1601257324219 46.44306945800781 C 307.23895263671875 43.99739074707031 307.9497985839844 44.7966194152832 309.31781005859375 46.665367126464844 C 308.5570373535156 45.67273712158203 308.2787170410156 45.295860290527344 309.4707946777344 46.88303756713867 L 308.3384094238281 45.369422912597656" stroke-width="2.0" fill="rgb(183, 101, 182)" opacity="0.18986033"/>
    <path d="M 269.1861267089844 178.01153564453125 C 291.4273986816406 233.7100830078125 243.1694793701172 185.7955322265625 237.8667449951172 261.5032043457031 C 175.6822509765625 234.68898010253906 285.7691955566406 242.80474853515625 131.04824829101562 179.06646728515625 C 205.37379455566406 162.2168731689453 225.44747924804688 95.47004699707031 227.93203735351562 130.8650360107422 C 303.6177062988281 126.38259887695312 209.3140411376953 157.53799438476562 293.8984375 154.23780822753906 L 269.1861267089844 178.01153564453125" stroke-width="2.0" fill="rgb(75, 99, 60)" opacity="0.33561152"/>
    <path d="M 9.863511085510254 259.7000732421875 C 8.797118186950684 259.87164306640625 8.752703666687012 259.855712890625 8.820196151733398 259.84271240234375 C 8.594683647155762 259.7893981933594 9.777512550354004 259.690185546875 10.031550407409668 259.78326416015625 C 9.449074745178223 260.78765869140625 11.005572319030762 258.3193664550781 9.972694396972656 259.8346252441406 C 8.736213684082031 258.4167785644531 9.361733436584473 259.50469970703125 10.800359725952148 260.3407897949219 L 9.863511085510254 259.7000732421875" stroke-width="2.0" fill="rgb(31, 67, 158)" opacity="0.049838938"/>
    <path d="M 27.028030395507812 301.5501708984375 C 27.51403045654297 304.8915710449219 26.95598793029785 300.7018737792969 27.106658935546875 302.0388488769531 C 26.81169891357422 300.5254821777344 27.117998123168945 301.1343078613281 27.039630889892578 301.7998352050781 C 26.86465835571289 299.0653076171875 26.558910369873047 298.98834228515625 26.410057067871094 299.4722595214844 C 26.75586700439453 298.2623596191406 27.070085525512695 302.2217102050781 27.277301788330078 302.9992980957031 L 27.028030395507812 301.5501708984375" stroke-width="2.0" fill="rgb(84, 188, 83)" opacity="0.29802468"/>
    <path d="M 395.7452392578125 491.5033874511719 C 393.5879211425781 490.6678466796875 392.5570983886719 489.9582214355469 393.6521911621094 489.9356689453125 C 396.20867919921875 489.916259765625 397.0532531738281 489.1387939453125 395.78814697265625 489.9871826171875 C 395.2396545410156 490.7845764160156 396.84332275390625 488.70391845703125 394.53082275390625 490.2615051269531 C 394.67572021484375 488.0001525878906 396.0747985839844 488.6575927734375 394.618896484375 491.1302795410156 L 395.7452392578125 491.5033874511719" stroke-width="2.0" fill="rgb(68, 111, 42)" opacity="0.0"/>
    <path d="M 409.8043212890625 90.22781372070312 C 410.69158935546875 89.79679870605469 410.86444091796875 90.11228942871094 410.46209716796875 89.84370422363281 C 415.3603515625 90.82928466796875 414.3299560546875 90.80690002441406 410.7078552246094 89.86477661132812 C 412.30328369140625 90.63253021240234 411.9835510253906 88.93223571777344 411.59747314453125 90.56127166748047 C 411.8565368652344 89.10873413085938 412.3153076171875 90.6224594116211 410.7534484863281 89.85938262939453 L 409.8043212890625 90.22781372070312" stroke-width="2.0" fill="rgb(83, 255, 87)" opacity="0.23441944"/>
    <path d="M 20.272611618041992 198.17938232421875 C 21.482908248901367 197.7757568359375 20.821012496948242 197.7289581298828 20.323163986206055 198.46031188964844 C 21.088090896606445 197.29209899902344 21.81116485595703 198.0469970703125 20.955732345581055 197.7587127685547 C 20.429906845092773 198.71246337890625 21.480310440063477 197.91151428222656 20.365070343017578 198.0817413330078 C 21.259424209594727 197.81979370117188 20.97796630859375 197.83375549316406 23.238323211669922 197.03143310546875 L 20.272611618041992 198.17938232421875" stroke-width="2.0" fill="rgb(122, 120, 255)" opacity="0.09811865"/>
    <path d="M 452.3982238769531 232.59439086914062 C 396.37164306640625 240.28236389160156 400.2349853515625 245.15036010742188 403.0703125 304.2297668457031 C 397.5179138183594 261.7984619140625 387.1867370605469 237.50413513183594 351.0331115722656 257.6435546875 C 381.9278564453125 230.37232971191406 337.2062683105469 283.1234130859375 312.5929260253906 224.62681579589844 C 361.47027587890625 197.21722412109375 375.4795227050781 205.00242614746094 452.373779296875 202.49063110351562 L 452.3982238769531 232.59439086914062" stroke-width="2.0" fill="rgb(250, 188, 40)" opacity="0.66788864"/>
    <path d="M 416.06378173828125 151.19915771484375 C 416.7869873046875 150.51974487304688 416.5325012207031 150.5684814453125 416.3304748535156 148.782958984375 C 417.8220520019531 151.22149658203125 417.7658996582031 150.6662139892578 419.2542724609375 150.26979064941406 C 417.53509521484375 152.22262573242188 417.9657897949219 152.08106994628906 418.38006591796875 153.3021697998047 C 415.8729248046875 151.89520263671875 416.07373046875 152.6175537109375 415.73358154296875 153.6454620361328 L 416.06378173828125 151.19915771484375" stroke-width="2.0" fill="rgb(52, 68, 131)" opacity="0.0"/>
    <path d="M 346.3440246582031 401.75384521484375 C 349.1170654296875 459.3310241699219 293.2574768066406 463.88885498046875 305.95672607421875 465.3758239746094 C 279.5480651855469 458.5867919921875 284.0273132324219 455.3953857421875 279.00799560546875 462.78662109375 C 247.6720428466797 410.0426330566406 276.462158203125 430.4178161621094 264.86834716796875 387.8380126953125 C 284.5476989746094 385.9549255371094 264.2882995605469 382.0751037597656 312.96917724609375 354.8023376464844 L 346.3440246582031 401.75384521484375" stroke-width="2.0" fill="rgb(255, 198, 0)" opacity="0.914811"/>
    <path d="M 177.31959533691406 359.95672607421875 C 175.9420928955078 359.1226501464844 175.3048095703125 358.71270751953125 176.7908477783203 358.953857421875 C 178.31617736816406 360.7657470703125 177.96807861328125 358.8421630859375 178.91278076171875 357.3940734863281 C 176.34068298339844 360.04864501953125 176.1103057861328 360.90948486328125 177.36822509765625 361.4630126953125 C 176.95367431640625 360.60955810546875 177.1985626220703 361.5456848144531 176.42852783203125 361.8651123046875 L 177.31959533691406 359.95672607421875" stroke-width="2.0" fill="rgb(250, 70, 255)" opacity="1.539341e-05"/>
    <path d="M 80.9897232055664 430.20758056640625 C 81.15946960449219 431.2365417480469 80.40956115722656 432.0601501464844 79.47550964355469 431.8504638671875 C 78.61419677734375 432.2584228515625 77.7022705078125 431.62921142578125 77.51860046386719 430.7029724121094 C 77.22613525390625 429.90179443359375 77.76453399658203 428.88909912109375 78.69068145751953 428.6500549316406 C 79.44353485107422 428.2380676269531 80.49886322021484 428.6744079589844 80.90843963623047 429.59368896484375 L 80.9897232055664 430.20758056640625" stroke-width="2.0" fill="rgb(198, 216, 130)" opacity="0.0"/>
    <path d="M 201.95339965820312 24.069908142089844 C 203.08453369140625 24.589092254638672 202.6387481689453 25.088115692138672 202.222412109375 23.47862434387207 C 202.41244506835938 25.042184829711914 201.88406372070312 24.597787857055664 202.90452575683594 24.055524826049805 C 201.77976989746094 24.739864349365234 202.140869140625 24.09505271911621 202.9174346923828 25.438560485839844 C 202.1420135498047 24.084321975708008 202.82652282714844 24.234941482543945 202.45118713378906 24.91012191772461 L 201.95339965820312 24.069908142089844" stroke-width="2.0" fill="rgb(91, 29, 147)" opacity="0.0"/>
    <path d="M 477.5183410644531 357.739501953125 C 476.3471984863281 357.7402038574219 475.6851806640625 357.3000183105469 477.1278076171875 357.3529968261719 C 479.40789794921875 358.73602294921875 479.0812072753906 357.1730651855469 479.8965759277344 355.872314453125 C 477.58050537109375 358.53717041015625 478.7475280761719 357.5205993652344 479.09771728515625 358.4311218261719 C 478.2568359375 357.2738952636719 478.9141540527344 358.5599670410156 477.1732482910156 359.1161804199219 L 477.5183410644531 357.739501953125" stroke-width="2.0" fill="rgb(109, 255, 45)" opacity="0.0"/>
    <path d="M 38.70648193359375 218.5492706298828 C 37.24934387207031 221.22552490234375 38.28224182128906 220.68955993652344 38.02341079711914 218.7836151123047 C 37.00028991699219 214.37620544433594 37.28812026977539 215.4442138671875 37.7498664855957 217.82888793945312 C 38.01154327392578 218.93125915527344 38.185550689697266 219.2794189453125 37.96200942993164 220.3428955078125 C 37.860076904296875 218.99810791015625 39.198307037353516 220.17828369140625 38.13947296142578 219.60047912597656 L 38.70648193359375 218.5492706298828" stroke-width="2.0" fill="rgb(94, 145, 242)" opacity="0.27937087"/>
    <path d="M 266.6723937988281 422.2303466796875 C 263.3364562988281 479.7221984863281 317.9747009277344 425.5566711425781 292.38482666015625 467.7547302246094 C 255.14999389648438 456.8827819824219 239.1547393798828 440.0083312988281 230.8697509765625 428.72119140625 C 215.5093536376953 407.4692687988281 216.36480712890625 388.4927673339844 215.99644470214844 391.8416442871094 C 297.9394836425781 387.5111999511719 258.0030517578125 382.8871765136719 267.6159973144531 394.9325256347656 L 266.6723937988281 422.2303466796875" stroke-width="2.0" fill="rgb(254, 191, 0)" opacity="0.5553262"/>
    <path d="M 88.75941467285156 297.3236083984375 C 89.13253784179688 298.6739196777344 89.1574935913086 299.2048645019531 88.7421875 297.0322265625 C 89.23428344726562 300.2497253417969 89.93927764892578 298.3927001953125 87.75289154052734 297.5108337402344 C 89.9476318359375 298.771240234375 88.81163787841797 298.65863037109375 89.16202545166016 298.73199462890625 C 88.0523452758789 294.7070617675781 88.87437438964844 297.8225402832031 89.91934967041016 301.3119812011719 L 88.75941467285156 297.3236083984375" stroke-width="2.0" fill="rgb(110, 253, 179)" opacity="0.10527112"/>
    <path d="M 394.28594970703125 272.08990478515625 C 399.0279541015625 289.9273376464844 406.1741638183594 293.176513671875 403.7049865722656 333.10650634765625 C 330.2970275878906 344.62127685546875 387.7599792480469 356.6183166503906 355.50579833984375 303.8453063964844 C 365.6147155761719 220.94229125976562 329.45123291015625 235.232421875 359.88995361328125 253.42698669433594 C 392.07464599609375 240.67510986328125 397.37420654296875 272.4556884765625 401.6505432128906 294.8680419921875 L 394.28594970703125 272.08990478515625" stroke-width="2.0" fill="rgb(232, 0, 247)" opacity="0.769082"/>
    <path d="M 431.260009765625 35.321468353271484 C 431.6518249511719 36.73540496826172 431.6489562988281 36.30766677856445 430.95849609375 34.47652053833008 C 431.93157958984375 37.0312614440918 431.2574768066406 36.34611892700195 431.271728515625 34.362491607666016 C 431.0929870605469 35.617027282714844 431.823974609375 35.074790954589844 430.45849609375 35.85115051269531 C 429.30816650390625 34.52922821044922 430.8580627441406 37.43207550048828 431.776123046875 34.045799255371094 L 431.260009765625 35.321468353271484" stroke-width="2.0" fill="rgb(130, 46, 242)" opacity="0.12232623"/>
    <path d="M 388.4575500488281 75.78942108154297 C 387.06365966796875 74.61695098876953 386.97125244140625 74.47127532958984 387.58233642578125 74.41703796386719 C 389.0785217285156 75.79102325439453 388.8715515136719 74.2662582397461 389.9349365234375 74.27769470214844 C 387.3623962402344 76.7310791015625 388.4591979980469 76.3974380493164 390.1708679199219 77.84169006347656 C 387.6730041503906 76.55613708496094 388.5264587402344 77.79289245605469 386.22320556640625 77.92825317382812 L 388.4575500488281 75.78942108154297" stroke-width="2.0" fill="rgb(81, 137, 218)" opacity="0.0"/>
    <path d="M 419.873046875 194.60763549804688 C 419.3740234375 194.19281005859375 419.93475341796875 194.7235107421875 419.4943542480469 194.38551330566406 C 422.4334411621094 196.12742614746094 420.7189636230469 195.0283966064453 421.1258544921875 195.37527465820312 C 421.27252197265625 195.39956665039062 421.8423156738281 195.1204833984375 421.1734924316406 195.40777587890625 C 418.7001647949219 194.0165557861328 419.7757873535156 194.0927734375 421.09759521484375 196.22438049316406 L 419.873046875 194.60763549804688" stroke-width="2.0" fill="rgb(255, 255, 195)" opacity="0.30235904"/>
    <path d="M 259.24835205078125 392.7843017578125 C 247.7809295654297 387.1336364746094 270.5479431152344 388.90753173828125 215.8437042236328 391.8555908203125 C 211.5569610595703 366.0615234375 220.81771850585938 340.2953186035156 220.63467407226562 338.15032958984375 C 218.91966247558594 344.1036071777344 221.73545837402344 337.890625 217.77581787109375 349.83465576171875 C 227.5712127685547 312.5820617675781 234.15724182128906 308.9930419921875 230.17898559570312 321.1051025390625 L 259.24835205078125 392.7843017578125" stroke-width="2.0" fill="rgb(255, 192, 2)" opacity="0.55706984"/>
    <path d="M 211.93679809570312 439.8117980957031 C 208.06483459472656 438.0093994140625 208.09991455078125 438.2624206542969 209.00588989257812 438.7372131347656 C 210.54893493652344 440.7182922363281 209.88330078125 437.9913330078125 211.4110870361328 437.537353515625 C 208.38543701171875 438.9434509277344 210.3843536376953 437.9707336425781 210.91712951660156 438.8897705078125 C 209.2229461669922 437.6714172363281 209.7305908203125 440.1763610839844 208.0487060546875 441.60223388671875 L 211.93679809570312 439.8117980957031" stroke-width="2.0" fill="rgb(96, 54, 123)" opacity="0.0"/>
    <path d="M 371.5341491699219 325.8021545410156 C 364.9853210449219 260.3006896972656 366.8458251953125 282.2432556152344 366.0307312011719 350.83465576171875 C 317.5102844238281 323.7490234375 392.6436462402344 345.82574462890625 357.83001708984375 291.3878173828125 C 356.7163391113281 271.62237548828125 342.64898681640625 287.08587646484375 357.7351989746094 253.78955078125 C 305.01190185546875 250.7578125 373.1739501953125 199.74391174316406 368.2217712402344 296.7507019042969 L 371.5341491699219 325.8021545410156" stroke-width="2.0" fill="rgb(24, 113, 108)" opacity="0.82932496"/>
    <path d="M 112.46735382080078 187.32481384277344 C 118.81942749023438 188.3905487060547 124.92961120605469 189.27560424804688 115.38887023925781 187.71083068847656 C 79.74765014648438 181.75282287597656 94.3537826538086 202.84205627441406 81.22608947753906 151.0537567138672 C 74.84162139892578 145.19496154785156 32.40000915527344 152.57862854003906 68.76237487792969 137.49819946289062 C 79.66504669189453 109.72321319580078 93.50639343261719 171.67694091796875 124.87438201904297 136.63438415527344 L 112.46735382080078 187.32481384277344" stroke-width="2.0" fill="rgb(0, 205, 83)" opacity="1.0"/>
    <path d="M 280.14080810546875 222.18460083007812 C 254.32655334472656 211.75547790527344 272.8392639160156 258.9688720703125 235.90890502929688 278.0777893066406 C 210.76043701171875 290.5218811035156 239.86328125 256.6252136230469 214.3977508544922 262.3470764160156 C 217.5992431640625 212.7362060546875 222.1841278076172 154.98460388183594 225.38766479492188 189.606689453125 C 264.3099365234375 188.7709503173828 271.425048828125 192.823486328125 270.0692138671875 190.5220947265625 L 280.14080810546875 222.18460083007812" stroke-width="2.0" fill="rgb(125, 238, 0)" opacity="0.39755476"/>
    <path d="M 104.41339111328125 264.4494323730469 C 104.18075561523438 263.956787109375 104.64752197265625 264.88739013671875 105.37117767333984 266.9993591308594 C 106.49713897705078 266.5038146972656 107.7930679321289 264.4835510253906 108.2028579711914 263.55389404296875 C 105.80708312988281 268.3813781738281 103.99618530273438 266.779541015625 104.625 267.16998291015625 C 105.74266052246094 266.7166442871094 105.38733673095703 267.5378723144531 105.9128646850586 268.65777587890625 L 104.41339111328125 264.4494323730469" stroke-width="2.0" fill="rgb(255, 175, 241)" opacity="0.11572004"/>
    <path d="M 467.5534973144531 374.5718994140625 C 434.1174621582031 369.468017578125 438.60595703125 478.8638610839844 377.3241882324219 417.35528564453125 C 472.1308288574219 429.67877197265625 374.7438659667969 362.0678405761719 331.5098571777344 430.4151916503906 C 331.9822998046875 377.9707946777344 417.2213439941406 380.6831970214844 414.59600830078125 365.1820983886719 C 450.5050354003906 332.8750915527344 381.960205078125 333.1824645996094 455.4973449707031 340.20135498046875 L 467.5534973144531 374.5718994140625" stroke-width="2.0" fill="rgb(251, 190, 1)" opacity="0.59642047"/>
    <path d="M -15.287124633789062 8.900840759277344 C 75.33255767822266 7.515690803527832 61.2397575378418 19.480297088623047 30.32692527770996 101.22235107421875 C 57.3690071105957 104.38265991210938 34.72514343261719 90.90997314453125 45.62940216064453 90.45154571533203 C 34.7304801940918 97.38045501708984 24.7099552154541 84.85493469238281 66.4088363647461 42.77154541015625 C 48.88449478149414 34.576534271240234 61.47840881347656 72.82315063476562 -9.770866394042969 123.04985046386719 L -15.287124633789062 8.900840759277344" stroke-width="2.0" fill="rgb(255, 255, 255)" opacity="1.0"/>
    <path d="M 510.66387939453125 153.2755584716797 C 509.17822265625 152.53271484375 508.6312561035156 152.1017608642578 508.96240234375 152.05653381347656 C 511.1825256347656 153.36582946777344 510.71246337890625 151.61129760742188 511.9113464355469 151.56085205078125 C 508.565673828125 153.04676818847656 509.5950622558594 152.8707275390625 510.4342956542969 154.63442993164062 C 509.4804992675781 153.3462371826172 510.2879333496094 154.7199249267578 508.3873596191406 154.77491760253906 L 510.66387939453125 153.2755584716797" stroke-width="2.0" fill="rgb(214, 117, 255)" opacity="2.750641e-05"/>
    <path d="M 100.34678649902344 416.8959045410156 C 100.23853302001953 417.64093017578125 99.69556427001953 416.9093322753906 99.77397155761719 416.89501953125 C 100.13944244384766 417.525634765625 100.42204284667969 416.89508056640625 100.70575714111328 417.6277770996094 C 99.8033218383789 416.714111328125 100.63814544677734 415.67010498046875 100.12911224365234 418.09716796875 C 100.56440734863281 415.945556640625 100.3571548461914 417.2123107910156 99.42156219482422 417.0956115722656 L 100.34678649902344 416.8959045410156" stroke-width="2.0" fill="rgb(103, 172, 195)" opacity="0.011819882"/>
    <path d="M 225.1901092529297 180.56507873535156 C 222.94810485839844 250.09658813476562 236.20921325683594 288.78106689453125 183.97683715820312 201.11737060546875 C 143.6258544921875 162.08001708984375 180.8310546875 284.6513671875 153.20472717285156 251.37152099609375 C 168.29998779296875 189.6222381591797 124.13550567626953 152.8829803466797 150.0836639404297 117.44911193847656 C 219.01954650878906 165.63890075683594 153.6527099609375 152.72720336914062 146.9385986328125 179.31370544433594 L 225.1901092529297 180.56507873535156" stroke-width="2.0" fill="rgb(0, 32, 149)" opacity="1.0"/>
    <path d="M 421.5794982910156 131.71881103515625 C 421.9385986328125 129.07321166992188 421.2804870605469 131.49322509765625 421.620849609375 130.36231994628906 C 420.20489501953125 128.73622131347656 420.9250793457031 129.66587829589844 421.6958923339844 130.50039672851562 C 421.5838317871094 133.6556396484375 420.3331298828125 130.1110382080078 421.1757507324219 131.8529510498047 C 421.19268798828125 132.007080078125 422.2350158691406 131.16189575195312 423.84185791015625 130.19241333007812 L 421.5794982910156 131.71881103515625" stroke-width="2.0" fill="rgb(87, 59, 66)" opacity="0.27518514"/>
    <path d="M 498.9998779296875 341.1558837890625 C 499.2715759277344 341.1477966308594 498.7243347167969 341.4197692871094 498.74462890625 340.7057800292969 C 499.00213623046875 340.5418701171875 498.50616455078125 340.619140625 498.9774475097656 340.6856994628906 C 497.8332214355469 340.6538391113281 498.943359375 340.19110107421875 498.8614196777344 341.4383544921875 C 498.9996643066406 340.6231384277344 499.0273742675781 341.61212158203125 499.015625 342.3138122558594 L 498.9998779296875 341.1558837890625" stroke-width="2.0" fill="rgb(255, 169, 154)" opacity="0.10386609"/>
    <path d="M 34.857330322265625 387.8024597167969 C 34.15190124511719 387.55767822265625 34.054508209228516 387.6684265136719 33.646663665771484 387.41015625 C 35.7728157043457 390.2559814453125 36.300697326660156 388.9671325683594 36.77684020996094 387.6693115234375 C 34.53046798706055 389.9095153808594 35.53401184082031 389.92333984375 37.31830596923828 390.6994323730469 C 35.04031753540039 388.0597839355469 34.32696533203125 388.83837890625 35.121395111083984 390.4995422363281 L 34.857330322265625 387.8024597167969" stroke-width="2.0" fill="rgb(105, 208, 255)" opacity="2.280659e-05"/>
    <path d="M 299.58349609375 336.5955810546875 C 255.1078338623047 334.7380065917969 286.57574462890625 355.8518371582031 253.10348510742188 378.7560119628906 C 252.17005920410156 377.6976013183594 247.61582946777344 363.769775390625 232.7142333984375 328.47308349609375 C 224.0009307861328 308.07830810546875 230.8076934814453 317.3628845214844 248.92861938476562 316.48297119140625 C 293.35833740234375 241.472412109375 286.14697265625 116.93502044677734 287.507568359375 320.0487976074219 L 299.58349609375 336.5955810546875" stroke-width="2.0" fill="rgb(253, 213, 100)" opacity="0.9596929"/>
    <path d="M 82.9629898071289 255.47830200195312 C 82.29763793945312 255.47462463378906 81.23622131347656 254.31275939941406 81.33990478515625 254.57762145996094 C 84.2171859741211 256.6756286621094 82.1783218383789 254.47140502929688 82.95600891113281 255.54135131835938 C 82.78207397460938 255.2626953125 83.66229248046875 256.6692199707031 83.87831115722656 257.21337890625 C 83.08810424804688 255.45401000976562 84.13516235351562 257.6461486816406 83.46536254882812 256.30401611328125 L 82.9629898071289 255.47830200195312" stroke-width="2.0" fill="rgb(255, 255, 69)" opacity="0.135295"/>
    <path d="M 317.4180603027344 77.95443725585938 C 318.1507568359375 74.99337768554688 317.8507080078125 74.63846588134766 318.4990539550781 75.1567153930664 C 318.2515563964844 74.87201690673828 317.9072570800781 75.24230194091797 318.19598388671875 74.4936752319336 C 318.1798400878906 73.79379272460938 318.1919860839844 73.7051773071289 318.130859375 74.98339080810547 C 317.7401123046875 75.9820785522461 317.64642333984375 76.96784210205078 317.9837341308594 75.30205535888672 L 317.4180603027344 77.95443725585938" stroke-width="2.0" fill="rgb(255, 96, 78)" opacity="0.10678288"/>
    <path d="M 260.0876770019531 389.4629211425781 C 253.16233825683594 388.9531555175781 253.63369750976562 371.8394470214844 253.94873046875 397.15777587890625 C 258.6766052246094 432.6390686035156 260.06982421875 443.2416687011719 254.090087890625 396.6276550292969 C 254.4891357421875 351.3091125488281 247.90711975097656 413.02056884765625 280.9682312011719 330.5688781738281 C 299.4894714355469 351.0473937988281 294.91876220703125 423.016357421875 276.3405456542969 385.73828125 L 260.0876770019531 389.4629211425781" stroke-width="2.0" fill="rgb(181, 178, 165)" opacity="0.5380516"/>
    <path d="M 269.4979553222656 305.43408203125 C 273.7794494628906 308.6326904296875 265.7845458984375 298.98382568359375 243.65077209472656 317.1778869628906 C 297.21697998046875 315.5184020996094 278.7795104980469 353.4140319824219 282.3905029296875 220.89828491210938 C 249.20851135253906 259.4667663574219 261.9210205078125 292.8048400878906 249.17446899414062 312.9348449707031 C 262.1003112792969 304.10443115234375 269.5992431640625 305.48468017578125 270.87933349609375 306.29730224609375 L 269.4979553222656 305.43408203125" stroke-width="2.0" fill="rgb(254, 255, 255)" opacity="1.0"/>
    <path d="M 405.0639953613281 485.9762268066406 C 383.67803955078125 483.65997314453125 381.98370361328125 483.2671203613281 375.9248962402344 482.80084228515625 C 326.0096740722656 474.3865661621094 310.2733459472656 471.69085693359375 293.16790771484375 467.9029846191406 C 317.2521667480469 426.1958312988281 330.2848205566406 461.09930419921875 295.4778747558594 368.8885498046875 C 382.6877136230469 379.5402526855469 451.11981201171875 359.715087890625 390.18585205078125 393.2843322753906 L 405.0639953613281 485.9762268066406" stroke-width="2.0" fill="rgb(253, 189, 0)" opacity="0.5497025"/>
    <path d="M 179.14224243164062 480.98638916015625 C 179.218994140625 482.06866455078125 178.45953369140625 482.9287414550781 177.4615020751953 483.0216064453125 C 176.51040649414062 483.1904296875 175.5830535888672 482.4983825683594 175.22265625 481.5290832519531 C 175.0352783203125 480.59686279296875 175.59657287597656 479.56121826171875 176.53746032714844 479.13916015625 C 177.46263122558594 478.8069763183594 178.5104522705078 479.3013916015625 179.01507568359375 480.2633056640625 L 179.14224243164062 480.98638916015625" stroke-width="2.0" fill="rgb(184, 108, 136)" opacity="0.0"/>
    <path d="M 252.65155029296875 48.66926956176758 C 255.33164978027344 70.55720520019531 260.9378356933594 80.2387924194336 284.180419921875 98.56361389160156 C 240.5481414794922 73.78572082519531 197.43678283691406 105.14415740966797 172.13671875 71.87492370605469 C 108.53031921386719 36.276756286621094 127.5515365600586 61.241310119628906 168.83506774902344 53.11949920654297 C 214.39920043945312 10.128572463989258 246.4512176513672 24.17886734008789 252.1319580078125 42.5065803527832 L 252.65155029296875 48.66926956176758" stroke-width="2.0" fill="rgb(98, 190, 0)" opacity="0.42004976"/>
    <path d="M 387.4526062011719 355.89697265625 C 343.4110412597656 338.655029296875 351.8674011230469 394.6352233886719 391.1614074707031 376.6400146484375 C 308.61279296875 447.161376953125 329.08245849609375 346.9556579589844 317.6531677246094 368.2167663574219 C 304.10833740234375 328.37921142578125 291.802490234375 307.6830749511719 310.1210021972656 319.4479064941406 C 371.85345458984375 305.1867980957031 269.87408447265625 404.238525390625 389.0496826171875 328.8390197753906 L 387.4526062011719 355.89697265625" stroke-width="2.0" fill="rgb(255, 26, 193)" opacity="1.0"/>
    <path d="M 87.60423278808594 325.5219421386719 C 88.817626953125 326.7004699707031 88.91030883789062 326.9754943847656 88.4073486328125 327.98101806640625 C 89.03358459472656 327.4408874511719 87.64004516601562 327.1395568847656 90.14369201660156 330.0882568359375 C 87.78108215332031 326.97845458984375 88.75716400146484 328.3409118652344 89.94815063476562 329.80780029296875 C 87.37248229980469 327.1734619140625 89.39530944824219 326.4368591308594 88.81392669677734 326.92156982421875 L 87.60423278808594 325.5219421386719" stroke-width="2.0" fill="rgb(99, 95, 255)" opacity="0.12485797"/>
    <path d="M 362.1279296875 247.5123748779297 C 396.5326232910156 246.1352996826172 436.357177734375 248.99119567871094 363.498779296875 248.3411407470703 C 388.1943359375 346.6389465332031 350.50323486328125 258.8396911621094 341.4227600097656 294.0443420410156 C 318.64801025390625 243.21116638183594 337.27001953125 240.82022094726562 348.836669921875 236.68911743164062 C 364.64068603515625 235.7184600830078 364.3288879394531 290.7785949707031 364.0771179199219 207.71580505371094 L 362.1279296875 247.5123748779297" stroke-width="2.0" fill="rgb(84, 0, 0)" opacity="0.39197788"/>
    <path d="M 468.3598937988281 241.26795959472656 C 467.3013916015625 240.54530334472656 466.46917724609375 240.0070343017578 468.04522705078125 241.04505920410156 C 468.044189453125 239.87176513671875 467.2835998535156 240.61231994628906 470.2818908691406 244.6890869140625 C 467.06201171875 240.4697723388672 468.3800048828125 240.229248046875 467.85296630859375 241.30496215820312 C 469.7325744628906 235.00950622558594 469.17218017578125 236.9684295654297 467.9945983886719 240.99346923828125 L 468.3598937988281 241.26795959472656" stroke-width="2.0" fill="rgb(206, 148, 162)" opacity="0.16435881"/>
    <path d="M 120.82056427001953 4.081524848937988 C 119.95529174804688 3.745391845703125 120.58475494384766 3.237379789352417 120.1677474975586 4.330569267272949 C 120.41849517822266 3.1186037063598633 120.421630859375 3.0518264770507812 121.45170593261719 1.7931418418884277 C 119.53218841552734 4.505242824554443 120.2464828491211 3.2423863410949707 121.55895233154297 4.851557731628418 C 120.09452819824219 3.3453762531280518 120.72832489013672 4.140203952789307 117.90584564208984 2.3937795162200928 L 120.82056427001953 4.081524848937988" stroke-width="2.0" fill="rgb(116, 255, 69)" opacity="0.1427526"/>
    <path d="M 462.553466796875 274.0072937011719 C 463.6705322265625 283.1744079589844 450.06280517578125 322.4828796386719 457.6537170410156 345.5263671875 C 391.0176696777344 337.49322509765625 404.7880554199219 327.87359619140625 404.492431640625 324.18359375 C 400.1328430175781 245.00277709960938 393.6593017578125 241.8873748779297 446.5750427246094 232.9221954345703 C 433.4045104980469 234.86904907226562 447.0033874511719 216.75912475585938 461.3073425292969 262.9706726074219 L 462.553466796875 274.0072937011719" stroke-width="2.0" fill="rgb(254, 191, 0)" opacity="0.5516838"/>
    <path d="M 472.58282470703125 362.8175048828125 C 475.9253234863281 364.0426025390625 475.451171875 363.93804931640625 475.68292236328125 361.8183288574219 C 475.51080322265625 364.4810485839844 474.6085205078125 364.4468078613281 474.9642639160156 364.9411315917969 C 474.697021484375 366.0716552734375 474.81878662109375 365.46221923828125 475.10491943359375 366.6207275390625 C 474.3992919921875 365.4067077636719 475.42236328125 363.127685546875 475.4193420410156 363.7770690917969 L 472.58282470703125 362.8175048828125" stroke-width="2.0" fill="rgb(217, 169, 255)" opacity="0.27528825"/>
    <path d="M 496.6573486328125 281.65570068359375 C 494.3113098144531 279.4103088378906 494.8174133300781 278.4654235839844 492.5243835449219 279.28680419921875 C 492.7474670410156 279.20294189453125 493.3880310058594 279.4365234375 493.9260559082031 277.5493469238281 C 493.2597351074219 279.886474609375 492.42681884765625 278.9490051269531 491.5244445800781 279.83868408203125 C 494.9590148925781 277.69427490234375 494.9471435546875 280.36688232421875 494.8048095703125 279.57763671875 L 496.6573486328125 281.65570068359375" stroke-width="2.0" fill="rgb(147, 91, 115)" opacity="0.26527756"/>
    <path d="M 88.68881225585938 484.2925109863281 C 88.40726470947266 484.8900451660156 88.15184020996094 485.4617919921875 89.0140151977539 483.6146240234375 C 89.927001953125 483.9533386230469 87.11625671386719 483.0028381347656 89.9586181640625 483.9474792480469 C 88.28639221191406 481.9195251464844 89.6153793334961 483.6796875 91.20633697509766 485.0769958496094 C 89.55138397216797 483.88262939453125 91.28876495361328 484.4789733886719 89.08232879638672 483.59539794921875 L 88.68881225585938 484.2925109863281" stroke-width="2.0" fill="rgb(193, 255, 185)" opacity="0.21718924"/>
    <path d="M 334.2903747558594 425.4013366699219 C 329.7540283203125 443.8111267089844 314.54986572265625 453.33734130859375 296.5437316894531 458.2369079589844 C 273.99462890625 461.9715881347656 272.8426208496094 459.0856018066406 262.8546142578125 427.0350341796875 C 252.89730834960938 413.8583068847656 264.1957702636719 391.2532043457031 277.000244140625 381.6485595703125 C 305.1243591308594 369.83184814453125 321.8209228515625 385.6595764160156 329.6898193359375 410.41937255859375 L 334.2903747558594 425.4013366699219" stroke-width="2.0" fill="rgb(15, 184, 204)" opacity="0.8296926"/>
    <path d="M 51.780826568603516 345.9186706542969 C 51.98628234863281 344.2140808105469 52.15366744995117 344.9695129394531 51.84398651123047 344.244873046875 C 51.87112045288086 344.4635925292969 52.12877655029297 343.9923095703125 51.81943893432617 345.56427001953125 C 51.88974380493164 347.9131774902344 52.082889556884766 347.16180419921875 54.05342483520508 349.4270935058594 C 50.780784606933594 346.21533203125 52.26842498779297 346.60662841796875 52.17257308959961 347.8421325683594 L 51.780826568603516 345.9186706542969" stroke-width="2.0" fill="rgb(255, 255, 93)" opacity="0.1446974"/>
    <path d="M 265.6529235839844 263.17535400390625 C 279.3621520996094 345.84124755859375 299.2805480957031 322.5862731933594 227.48342895507812 319.7116394042969 C 244.52735900878906 284.191162109375 256.98858642578125 275.05316162109375 258.70477294921875 269.6362609863281 C 257.36273193359375 274.3252258300781 250.46798706054688 278.67437744140625 256.02386474609375 284.5001220703125 C 253.31768798828125 281.7274475097656 248.4509735107422 278.38641357421875 270.3246154785156 257.88531494140625 L 265.6529235839844 263.17535400390625" stroke-width="2.0" fill="rgb(255, 193, 0)" opacity="0.27778992"/>
    <path d="M 171.50289916992188 489.2733459472656 C 171.20213317871094 488.97308349609375 170.92860412597656 489.0389404296875 170.4659423828125 487.4245910644531 C 171.81582641601562 489.8193054199219 171.31402587890625 489.9906005859375 172.70614624023438 490.57891845703125 C 172.20083618164062 491.1107482910156 172.71205139160156 491.2129211425781 173.7913818359375 491.485107421875 C 171.1671600341797 488.95928955078125 170.55215454101562 489.6996154785156 169.85328674316406 491.6730041503906 L 171.50289916992188 489.2733459472656" stroke-width="2.0" fill="rgb(207, 115, 165)" opacity="0.0"/>
    <path d="M 242.4468536376953 476.7364501953125 C 242.0452117919922 476.1522216796875 241.69021606445312 476.2613525390625 243.06973266601562 477.125244140625 C 241.62588500976562 476.092041015625 242.0237274169922 476.50164794921875 241.97134399414062 475.24298095703125 C 241.70755004882812 476.63226318359375 242.67649841308594 476.6675720214844 242.79933166503906 476.9858093261719 C 242.50355529785156 476.49932861328125 242.5065460205078 476.9860534667969 241.96365356445312 476.17840576171875 L 242.4468536376953 476.7364501953125" stroke-width="2.0" fill="rgb(255, 120, 157)" opacity="0.07711888"/>
    <path d="M 276.6384582519531 507.2205505371094 C 276.97528076171875 507.4227600097656 277.5238037109375 507.837158203125 277.06939697265625 507.50323486328125 C 274.927001953125 506.65802001953125 273.24639892578125 506.2393798828125 275.6956481933594 507.01483154296875 C 274.27203369140625 507.4207458496094 276.0261535644531 506.4521484375 277.3264465332031 507.8513488769531 C 276.86627197265625 506.72991943359375 276.9668884277344 508.08148193359375 277.51483154296875 508.3056335449219 L 276.6384582519531 507.2205505371094" stroke-width="2.0" fill="rgb(54, 83, 199)" opacity="0.0"/>
    <path d="M 192.1427001953125 354.16168212890625 C 193.41769409179688 355.4947204589844 193.3498077392578 355.4154357910156 193.12506103515625 354.89556884765625 C 192.94400024414062 358.6165771484375 193.7190399169922 355.5811462402344 192.71560668945312 356.089599609375 C 193.10626220703125 354.7023010253906 194.43771362304688 355.9364013671875 195.5494842529297 357.74981689453125 C 194.2915496826172 354.47552490234375 193.48655700683594 353.3694152832031 195.3837432861328 357.21575927734375 L 192.1427001953125 354.16168212890625" stroke-width="2.0" fill="rgb(82, 38, 255)" opacity="4.4394556e-06"/>
    <path d="M 50.45045471191406 28.832860946655273 C 51.32435989379883 30.317895889282227 50.245296478271484 27.983898162841797 51.50472640991211 30.987308502197266 C 51.109466552734375 29.559558868408203 51.41634750366211 29.841392517089844 51.056297302246094 32.07829284667969 C 51.80942916870117 27.371841430664062 52.043182373046875 25.234888076782227 50.96997833251953 29.38099479675293 C 51.9384651184082 25.595914840698242 51.68769836425781 28.727519989013672 51.30441665649414 30.298133850097656 L 50.45045471191406 28.832860946655273" stroke-width="2.0" fill="rgb(223, 156, 141)" opacity="0.3020177"/>
    <path d="M 478.5077819824219 365.9615478515625 C 478.2162170410156 367.1498107910156 477.4042053222656 368.0662536621094 476.27679443359375 368.4936218261719 C 475.2525634765625 368.2591552734375 474.81591796875 366.7461242675781 473.4441223144531 363.4324951171875 C 474.0622863769531 365.97125244140625 476.0526428222656 366.61676025390625 478.09686279296875 366.37689208984375 C 475.0415954589844 364.9178771972656 476.9296569824219 364.90020751953125 478.0653076171875 365.15728759765625 L 478.5077819824219 365.9615478515625" stroke-width="2.0" fill="rgb(236, 50, 250)" opacity="0.0"/>
    <path d="M 305.41131591796875 465.9815368652344 C 299.8773498535156 469.32720947265625 307.6455993652344 466.1133728027344 307.248291015625 460.9283752441406 C 302.8306884765625 470.02606201171875 278.52227783203125 465.5207214355469 308.9090270996094 469.5537414550781 C 275.4468688964844 466.4791259765625 271.397216796875 457.9602355957031 280.8951721191406 458.7170104980469 C 336.43487548828125 459.4117736816406 359.5467834472656 398.0042419433594 304.5238037109375 466.7298583984375 L 305.41131591796875 465.9815368652344" stroke-width="2.0" fill="rgb(254, 193, 5)" opacity="0.97673595"/>
    <path d="M 80.56613159179688 469.24310302734375 C 80.73983764648438 470.3247985839844 79.78654479980469 469.7984313964844 80.18260192871094 469.94110107421875 C 80.41441345214844 469.7285461425781 78.85266876220703 470.3478088378906 80.4530029296875 469.8494873046875 C 80.22734069824219 472.68701171875 80.28997802734375 471.90533447265625 81.76097869873047 473.6522216796875 C 79.90755462646484 471.4761962890625 80.7749252319336 472.6219787597656 80.32101440429688 471.6358642578125 L 80.56613159179688 469.24310302734375" stroke-width="2.0" fill="rgb(80, 149, 153)" opacity="0.11245477"/>
    <path d="M 225.5892333984375 103.04924011230469 C 226.19395446777344 198.83956909179688 195.2588653564453 124.7817153930664 146.8841094970703 179.38287353515625 C 132.8004150390625 176.0024871826172 137.5187530517578 190.07974243164062 130.9385528564453 144.3160400390625 C 180.79598999023438 43.36968994140625 89.59236907958984 122.81419372558594 124.42698669433594 71.72938537597656 C 194.84817504882812 88.512939453125 183.05418395996094 85.68895721435547 228.29110717773438 85.61994934082031 L 225.5892333984375 103.04924011230469" stroke-width="2.0" fill="rgb(140, 202, 118)" opacity="0.6323783"/>
    <path d="M 149.3682098388672 181.7063751220703 C 153.89678955078125 202.0209197998047 156.8134002685547 183.4711456298828 155.9071807861328 202.77999877929688 C 120.20391082763672 183.03164672851562 85.0611572265625 192.76181030273438 83.8271484375 178.3031463623047 C 92.5949935913086 85.02764129638672 75.19120788574219 103.02645874023438 103.76139831542969 100.8613510131836 C 138.74766540527344 96.57711791992188 63.17007064819336 152.9794158935547 141.74635314941406 125.17987823486328 L 149.3682098388672 181.7063751220703" stroke-width="2.0" fill="rgb(246, 199, 10)" opacity="0.5504123"/>
    <path d="M 490.9920959472656 473.90179443359375 C 491.60595703125 471.7356872558594 491.88531494140625 470.419677734375 491.2086486816406 473.1672058105469 C 492.0190734863281 471.1054382324219 490.559326171875 472.4655456542969 491.7821044921875 471.8306884765625 C 490.8572998046875 472.3448181152344 491.8905334472656 471.3482360839844 491.22119140625 473.14581298828125 C 491.7763671875 471.0185852050781 491.2337646484375 472.9599914550781 491.17779541015625 473.3499755859375 L 490.9920959472656 473.90179443359375" stroke-width="2.0" fill="rgb(121, 172, 148)" opacity="0.07863692"/>
    <path d="M 319.996826171875 363.72406005859375 C 301.5372619628906 418.4701843261719 265.9623718261719 385.6317443847656 306.24468994140625 404.1155090332031 C 300.6620788574219 440.80712890625 229.92337036132812 413.95684814453125 313.77728271484375 381.5364074707031 C 242.24441528320312 383.9750061035156 245.91424560546875 381.015625 283.1668701171875 383.0938415527344 C 326.58221435546875 309.8089294433594 266.906982421875 291.9182434082031 371.6802673339844 350.111572265625 L 319.996826171875 363.72406005859375" stroke-width="2.0" fill="rgb(70, 174, 145)" opacity="1.0"/>
    <path d="M 434.5060729980469 346.8698425292969 C 367.4095153808594 396.3022766113281 355.1981506347656 411.04302978515625 327.5516052246094 395.9006652832031 C 313.6357421875 310.896240234375 315.33428955078125 447.4563293457031 283.4964904785156 390.6576232910156 C 295.3804016113281 342.7800598144531 306.4486389160156 350.9539794921875 300.5519714355469 316.9064025878906 C 389.9245910644531 311.9002685546875 295.3332824707031 375.8995666503906 363.4175109863281 323.6863708496094 L 434.5060729980469 346.8698425292969" stroke-width="2.0" fill="rgb(0, 0, 228)" opacity="0.21908958"/>
    <path d="M 419.71820068359375 183.20863342285156 C 411.2200622558594 166.23936462402344 419.32696533203125 160.5358428955078 425.164794921875 161.22886657714844 C 429.03668212890625 162.18907165527344 430.73724365234375 163.95196533203125 431.27667236328125 167.7748260498047 C 425.1904602050781 167.88677978515625 426.745849609375 168.00010681152344 431.4124755859375 167.78189086914062 C 432.4248962402344 167.75045776367188 431.9659118652344 172.1856689453125 432.1787414550781 178.40879821777344 L 419.71820068359375 183.20863342285156" stroke-width="2.0" fill="rgb(255, 255, 255)" opacity="0.33054572"/>
    <path d="M 154.13929748535156 394.13836669921875 C 154.36607360839844 394.4593505859375 154.1942138671875 394.0754089355469 154.2537384033203 394.25518798828125 C 155.63685607910156 394.15496826171875 155.06021118164062 394.42010498046875 155.50901794433594 394.24700927734375 C 155.59703063964844 394.30645751953125 156.8874969482422 394.092041015625 155.31103515625 394.3043518066406 C 153.4613800048828 394.12127685546875 154.44410705566406 394.37908935546875 154.09849548339844 394.0356140136719 L 154.13929748535156 394.13836669921875" stroke-width="2.0" fill="rgb(246, 161, 69)" opacity="0.0090796035"/>
    <path d="M 103.26265716552734 66.98380279541016 C 71.46595001220703 116.62435150146484 241.04803466796875 60.918766021728516 146.4633331298828 115.17457580566406 C 57.35032272338867 207.03465270996094 112.32117462158203 122.65398406982422 15.751355171203613 120.87468719482422 C 15.207433700561523 106.03475952148438 52.65107345581055 65.30237579345703 47.772125244140625 68.94367218017578 C 99.79814910888672 28.46314811706543 161.42745971679688 58.44614028930664 186.99485778808594 86.03437042236328 L 103.26265716552734 66.98380279541016" stroke-width="2.0" fill="rgb(127, 196, 69)" opacity="0.5254181"/>
    <path d="M 137.6639404296875 468.3246154785156 C 137.270751953125 468.85821533203125 137.9774627685547 467.7187194824219 136.9935302734375 469.50274658203125 C 137.99546813964844 467.78546142578125 137.28707885742188 468.8145446777344 137.15672302246094 469.144287109375 C 136.55516052246094 469.99066162109375 138.29132080078125 470.8398742675781 141.23391723632812 472.0059814453125 C 136.29258728027344 470.1982727050781 137.0955810546875 469.57049560546875 137.0863037109375 469.2564697265625 L 137.6639404296875 468.3246154785156" stroke-width="2.0" fill="rgb(255, 255, 167)" opacity="0.29146138"/>
    <path d="M 85.78995513916016 407.7655029296875 C 86.73612213134766 407.90020751953125 83.30485534667969 407.1357727050781 85.37690734863281 407.2833557128906 C 85.47913360595703 407.5565490722656 85.60047912597656 406.9595031738281 86.762939453125 407.061279296875 C 84.5346908569336 407.09698486328125 86.48638153076172 407.61224365234375 84.59846496582031 407.16778564453125 C 84.99732208251953 405.1849060058594 84.00835418701172 407.62603759765625 85.41851043701172 407.6001281738281 L 85.78995513916016 407.7655029296875" stroke-width="2.0" fill="rgb(105, 110, 67)" opacity="0.21985787"/>
    <path d="M 471.8446960449219 401.8192443847656 C 480.5636901855469 468.1923828125 463.6019287109375 487.3576354980469 413.4474792480469 486.2958679199219 C 400.6099853515625 483.390869140625 408.60382080078125 499.31048583984375 396.3467102050781 433.240234375 C 379.1028137207031 431.2825927734375 363.2132568359375 370.58172607421875 398.5102844238281 378.3734130859375 C 474.9996032714844 404.4729309082031 427.6092834472656 385.90740966796875 467.1186828613281 372.95703125 L 471.8446960449219 401.8192443847656" stroke-width="2.0" fill="rgb(254, 190, 0)" opacity="0.5600691"/>
    <path d="M 286.8357849121094 74.24661254882812 C 287.97052001953125 74.30168151855469 286.0771789550781 74.22285461425781 289.22369384765625 74.48023223876953 C 289.6217346191406 75.57626342773438 288.95880126953125 74.44242095947266 289.99615478515625 75.76927185058594 C 289.3365783691406 75.12458801269531 288.9544372558594 74.269775390625 289.58447265625 74.5754165649414 C 285.77838134765625 74.0496597290039 286.135986328125 74.27265930175781 287.3363952636719 74.29752349853516 L 286.8357849121094 74.24661254882812" stroke-width="2.0" fill="rgb(92, 228, 206)" opacity="0.18510416"/>
    <path d="M 287.1148986816406 175.51898193359375 C 266.57781982421875 164.229736328125 265.1161804199219 214.89825439453125 256.44952392578125 165.82693481445312 C 255.41925048828125 209.33450317382812 259.2931213378906 198.96022033691406 249.5893096923828 200.73219299316406 C 250.24752807617188 126.33228302001953 245.79701232910156 147.69473266601562 270.7610778808594 133.58978271484375 C 306.676513671875 131.50592041015625 343.4298400878906 146.54278564453125 293.4657897949219 146.86228942871094 L 287.1148986816406 175.51898193359375" stroke-width="2.0" fill="rgb(23, 67, 0)" opacity="0.6661285"/>
    <path d="M 224.5997772216797 280.5205993652344 C 231.24378967285156 279.61328125 219.0576171875 285.7463684082031 204.3438720703125 282.718505859375 C 164.63905334472656 273.9852600097656 123.93788146972656 257.12908935546875 97.36466979980469 224.84925842285156 C 133.1354217529297 156.4766387939453 146.22000122070312 222.88412475585938 135.80616760253906 179.32598876953125 C 228.3908233642578 180.04638671875 229.13143920898438 179.25465393066406 224.71139526367188 180.44677734375 L 224.5997772216797 280.5205993652344" stroke-width="2.0" fill="rgb(219, 172, 0)" opacity="0.54915595"/>
    <path d="M 482.6536560058594 332.0000915527344 C 480.8511657714844 330.74993896484375 480.3828430175781 330.3161315917969 481.0242004394531 330.83135986328125 C 483.66375732421875 333.0240478515625 482.5968933105469 331.1808166503906 482.9753112792969 331.76788330078125 C 481.7371826171875 332.48785400390625 483.4194030761719 331.3841857910156 482.2167663574219 332.2958679199219 C 483.4215393066406 331.29241943359375 483.6216125488281 331.5854797363281 482.93701171875 331.7474670410156 L 482.6536560058594 332.0000915527344" stroke-width="2.0" fill="rgb(180, 238, 255)" opacity="0.239193"/>
    <path d="M 316.6476745605469 163.29652404785156 C 323.944580078125 200.48529052734375 269.96148681640625 228.12887573242188 276.528076171875 188.02589416503906 C 279.95123291015625 172.7419891357422 254.57456970214844 207.74705505371094 255.88661193847656 166.769775390625 C 263.73944091796875 89.75251007080078 212.032470703125 181.88917541503906 228.39602661132812 84.24969482421875 C 294.52020263671875 95.036376953125 285.4976501464844 95.96932983398438 312.174560546875 140.7318572998047 L 316.6476745605469 163.29652404785156" stroke-width="2.0" fill="rgb(166, 234, 84)" opacity="0.6031517"/>
    <path d="M 494.43121337890625 290.216064453125 C 494.9548645019531 290.8035888671875 495.6917724609375 291.91107177734375 496.60906982421875 293.2065124511719 C 496.809326171875 296.1579895019531 496.8067321777344 293.4211120605469 496.4912109375 292.99346923828125 C 496.93109130859375 294.6826477050781 496.20501708984375 292.0051574707031 496.6553955078125 293.4283142089844 C 496.47540283203125 292.9381103515625 496.84539794921875 293.46453857421875 498.19580078125 295.4699401855469 L 494.43121337890625 290.216064453125" stroke-width="2.0" fill="rgb(237, 135, 92)" opacity="0.008199858"/>
    <path d="M 130.41781616210938 240.1525421142578 C 351.6661376953125 251.29998779296875 195.53726196289062 293.88116455078125 105.95613098144531 260.41815185546875 C 60.56979751586914 236.29266357421875 45.36932373046875 206.66278076171875 49.837886810302734 215.36375427246094 C 43.398590087890625 205.4036865234375 14.304621696472168 172.6656951904297 23.367557525634766 122.47291564941406 C 150.0559844970703 110.3962173461914 31.303192138671875 205.5417022705078 121.19617462158203 183.51763916015625 L 130.41781616210938 240.1525421142578" stroke-width="2.0" fill="rgb(174, 230, 127)" opacity="0.71149844"/>
    <path d="M 417.8219909667969 392.1354064941406 C 439.3518981933594 395.41558837890625 416.6083984375 427.0333251953125 392.2434387207031 416.458251953125 C 385.289794921875 388.4715270996094 412.77947998046875 418.6863098144531 384.2478332519531 370.3448791503906 C 390.70367431640625 376.64471435546875 383.7959899902344 386.7664489746094 410.8675231933594 363.7847595214844 C 451.4266662597656 355.2939147949219 405.3433532714844 335.37200927734375 412.6646423339844 392.8048400878906 L 417.8219909667969 392.1354064941406" stroke-width="2.0" fill="rgb(0, 41, 159)" opacity="0.5478617"/>
    <path d="M 348.06549072265625 14.7269287109375 C 347.77825927734375 15.913729667663574 346.9673767089844 16.829517364501953 345.825927734375 17.25841522216797 C 344.6156921386719 17.115571975708008 343.6090393066406 16.419797897338867 343.054443359375 15.33714485168457 C 343.043212890625 14.120737075805664 343.611572265625 13.037311553955078 344.6174011230469 12.351667404174805 C 345.8256530761719 12.196660995483398 346.9700927734375 12.629783630371094 347.77313232421875 13.54790210723877 L 348.06549072265625 14.7269287109375" stroke-width="2.0" fill="rgb(130, 204, 186)" opacity="0.0"/>
    <path d="M 23.245655059814453 485.4101257324219 C 21.7398738861084 484.31915283203125 21.515151977539062 484.0777587890625 21.49493408203125 484.51715087890625 C 23.36488914489746 487.2608947753906 23.20827293395996 484.375732421875 24.82823944091797 484.3905334472656 C 23.400999069213867 485.6427001953125 24.864242553710938 484.4894714355469 24.319833755493164 486.0690612792969 C 22.28611946105957 483.65057373046875 23.334396362304688 485.22265625 22.838590621948242 487.1416931152344 L 23.245655059814453 485.4101257324219" stroke-width="2.0" fill="rgb(34, 225, 255)" opacity="1.15452995e-05"/>
    <path d="M 362.3558349609375 293.6708679199219 C 370.43402099609375 275.2890625 387.3722839355469 322.86810302734375 336.3022155761719 344.0347900390625 C 340.0315246582031 352.93927001953125 236.5190887451172 334.72662353515625 303.6121826171875 331.19482421875 C 276.010498046875 307.6609191894531 283.1218566894531 388.1286926269531 281.8634338378906 245.44143676757812 C 322.8874206542969 214.7624969482422 330.4740905761719 216.4848175048828 312.2600402832031 224.92759704589844 L 362.3558349609375 293.6708679199219" stroke-width="2.0" fill="rgb(215, 140, 0)" opacity="0.32789606"/>
    <path d="M 231.41064453125 416.07989501953125 C 223.14517211914062 423.8006286621094 225.9169464111328 421.6240539550781 210.05946350097656 391.0538330078125 C 216.44500732421875 371.8894348144531 223.37925720214844 368.3843688964844 220.64389038085938 348.4460754394531 C 216.2311553955078 382.3113098144531 212.0889129638672 380.71044921875 213.77557373046875 389.39013671875 C 222.866455078125 363.0223083496094 217.68618774414062 349.5801696777344 233.83599853515625 359.3422546386719 L 231.41064453125 416.07989501953125" stroke-width="2.0" fill="rgb(255, 137, 1)" opacity="0.0"/>
    <path d="M 489.4081115722656 303.99200439453125 C 488.2843933105469 303.51336669921875 487.66363525390625 303.0957336425781 488.28326416015625 303.521240234375 C 490.17010498046875 304.398681640625 489.5334777832031 304.0863952636719 489.4610290527344 304.06854248046875 C 489.35015869140625 305.8984069824219 489.5401611328125 306.1698303222656 490.897216796875 307.6626892089844 C 488.5902404785156 305.1417236328125 489.82379150390625 305.4044494628906 489.5179748535156 305.459716796875 L 489.4081115722656 303.99200439453125" stroke-width="2.0" fill="rgb(255, 216, 214)" opacity="0.19412713"/>
    <path d="M 314.46044921875 462.50970458984375 C 315.42279052734375 461.6138000488281 302.67059326171875 484.2191467285156 326.95635986328125 441.6639709472656 C 310.6902160644531 459.37164306640625 275.261474609375 463.65606689453125 272.5191650390625 454.0142822265625 C 256.4080810546875 415.36181640625 269.964111328125 443.0599670410156 286.76202392578125 441.5465087890625 C 341.948974609375 434.373779296875 316.8096923828125 372.0072326660156 335.412841796875 426.61004638671875 L 314.46044921875 462.50970458984375" stroke-width="2.0" fill="rgb(0, 13, 13)" opacity="0.22896911"/>
    <path d="M 48.155948638916016 454.3793029785156 C 47.24509811401367 453.9139709472656 47.603572845458984 453.70697021484375 47.06222915649414 453.27471923828125 C 48.49531173706055 455.29705810546875 48.29945373535156 454.1036071777344 48.58182144165039 453.6305236816406 C 47.50905227661133 455.79449462890625 48.69606399536133 455.6706848144531 49.8741569519043 456.6363220214844 C 47.879127502441406 455.1591491699219 48.44859313964844 455.7201843261719 48.281890869140625 455.6845397949219 L 48.155948638916016 454.3793029785156" stroke-width="2.0" fill="rgb(255, 226, 185)" opacity="0.011165356"/>
    <path d="M 301.8390808105469 322.7356262207031 C 304.13330078125 362.876708984375 306.2210388183594 322.7732849121094 292.3720397949219 364.4376525878906 C 284.7815246582031 310.215576171875 268.1415100097656 328.1723327636719 227.9157257080078 318.7197265625 C 234.84181213378906 305.1409912109375 246.45364379882812 278.5356750488281 282.0682373046875 246.32638549804688 C 279.87945556640625 190.72242736816406 291.9825744628906 151.8224639892578 285.9009094238281 321.34002685546875 L 301.8390808105469 322.7356262207031" stroke-width="2.0" fill="rgb(255, 189, 0)" opacity="0.39139637"/>
    <path d="M 54.297149658203125 460.329345703125 C 53.6771125793457 459.9533996582031 53.84259033203125 460.4065246582031 53.86933135986328 458.6913757324219 C 54.718963623046875 461.2100524902344 54.290069580078125 461.3539123535156 56.65332794189453 461.4856872558594 C 55.51288986206055 461.9978332519531 55.46006393432617 461.85394287109375 56.00599670410156 462.879638671875 C 53.733646392822266 461.25250244140625 53.49598693847656 461.7824401855469 53.4023551940918 463.3204650878906 L 54.297149658203125 460.329345703125" stroke-width="2.0" fill="rgb(110, 175, 255)" opacity="1.2498707e-05"/>
    <path d="M 308.0312194824219 217.47308349609375 C 300.77978515625 222.7592010498047 288.38165283203125 221.3295135498047 295.75885009765625 221.58758544921875 C 254.53369140625 227.1913299560547 261.20233154296875 209.03395080566406 261.6026611328125 218.07823181152344 C 268.6591491699219 181.113037109375 270.10760498046875 177.0848846435547 269.5482482910156 178.17518615722656 C 256.4538879394531 170.52442932128906 280.0533752441406 187.53872680664062 299.46600341796875 177.14634704589844 L 308.0312194824219 217.47308349609375" stroke-width="2.0" fill="rgb(252, 186, 10)" opacity="0.99122936"/>
    <path d="M 327.8446350097656 172.67994689941406 C 330.0088195800781 165.62881469726562 328.69622802734375 170.37103271484375 328.55987548828125 170.39688110351562 C 330.4248352050781 164.50157165527344 329.9776916503906 166.06948852539062 329.2010192871094 168.3005828857422 C 328.30535888671875 171.72531127929688 328.7380065917969 170.52305603027344 325.14910888671875 170.5990753173828 C 328.9560852050781 170.72288513183594 328.25982666015625 171.60362243652344 329.50885009765625 167.34796142578125 L 327.8446350097656 172.67994689941406" stroke-width="2.0" fill="rgb(238, 211, 133)" opacity="0.1971267"/>
    <path d="M 41.38277816772461 466.9443359375 C 41.17034149169922 468.0456237792969 40.36754608154297 468.9255676269531 39.353660583496094 469.1384582519531 C 38.312828063964844 469.173095703125 37.3400993347168 468.49884033203125 36.81978225708008 467.5096435546875 C 36.71486282348633 466.4505615234375 37.311912536621094 465.4078063964844 38.298309326171875 464.94488525390625 C 39.34941864013672 464.6442565917969 40.44880676269531 465.075927734375 41.156837463378906 465.9850769042969 L 41.38277816772461 466.9443359375" stroke-width="2.0" fill="rgb(120, 160, 10)" opacity="0.0"/>
    <path d="M 311.7506103515625 54.9377555847168 C 310.1097717285156 53.95273971557617 310.4943542480469 54.133567810058594 308.4244689941406 53.39441680908203 C 311.5875549316406 54.65938186645508 310.4074401855469 54.10506820678711 311.54736328125 54.755733489990234 C 311.40045166015625 56.02994918823242 313.057861328125 56.39433670043945 315.2131042480469 55.827369689941406 C 311.1501770019531 56.82209777832031 311.6603698730469 54.749778747558594 311.5654296875 54.859886169433594 L 311.7506103515625 54.9377555847168" stroke-width="2.0" fill="rgb(210, 221, 84)" opacity="0.13125996"/>
    <path d="M 135.69837951660156 422.1172790527344 C 136.02537536621094 423.3153991699219 135.88796997070312 423.4803161621094 136.29490661621094 422.77777099609375 C 135.74374389648438 423.9486083984375 135.88377380371094 422.1692810058594 135.92860412597656 422.9668884277344 C 137.03909301757812 427.9853515625 137.90931701660156 428.6015930175781 138.34664916992188 429.50421142578125 C 136.93328857421875 427.0945129394531 137.12538146972656 426.7166748046875 136.78099060058594 426.336669921875 L 135.69837951660156 422.1172790527344" stroke-width="2.0" fill="rgb(237, 255, 124)" opacity="0.3154462"/>
    <path d="M 17.284276962280273 292.9593811035156 C 17.73103141784668 293.7307434082031 17.173297882080078 294.4884033203125 16.614086151123047 293.6662292480469 C 16.23899269104004 294.53643798828125 15.429281234741211 294.0609130859375 16.295467376708984 293.36669921875 C 15.291417121887207 293.1294250488281 15.684921264648438 292.33795166015625 16.59807586669922 292.8388671875 C 16.523223876953125 291.8346252441406 17.427507400512695 292.1855163574219 17.216522216796875 293.1935119628906 L 17.284276962280273 292.9593811035156" stroke-width="2.0" fill="rgb(106, 158, 206)" opacity="0.0"/>
  </g>
</svg>
