<?xml version="1.0" ?>
<svg xmlns="http://www.w3.org/2000/svg" version="1.1" width="512" height="512">
  <defs/>
  <g>
    <path d="M 497.0036315917969 396.4294128417969 C 496.084228515625 407.89654541015625 500.1815490722656 417.80450439453125 491.31707763671875 422.40277099609375 C 480.2481689453125 418.50286865234375 481.59490966796875 412.44696044921875 480.1090087890625 387.0032958984375 C 478.84033203125 375.6957702636719 479.0019226074219 372.58404541015625 479.04736328125 346.1600341796875 C 499.0613708496094 364.5000915527344 498.2482604980469 375.9186706542969 497.0036315917969 396.4294128417969" stroke-width="0.0" fill="rgb(68, 66, 62)" opacity="0.72895014" stroke="rgb(222, 204, 67)" stroke-opacity="0.7145846" stroke-linecap="round" stroke-linejoin="round"/>
    <path d="M 497.85638427734375 467.792724609375 C 490.95074462890625 460.719482421875 522.687744140625 487.0162048339844 480.4024963378906 486.5257568359375 C 478.97772216796875 429.4808044433594 479.8680725097656 413.23199462890625 479.3446350097656 385.02386474609375 C 481.2935791015625 315.57080078125 471.4618835449219 281.84307861328125 496.8897705078125 273.26171875 C 497.5592956542969 351.644287109375 497.14105224609375 364.8807067871094 497.85638427734375 467.792724609375" stroke-width="0.0" fill="rgb(20, 57, 76)" opacity="0.94424605" stroke="rgb(123, 160, 171)" stroke-opacity="0.4398993" stroke-linecap="round" stroke-linejoin="round"/>
    <path d="M 497.4974060058594 83.11520385742188 C 493.21014404296875 134.89657592773438 515.634765625 148.4185791015625 480.4656982421875 140.05990600585938 C 473.1007995605469 -0.0841790959239006 501.9664611816406 38.39752197265625 424.1140441894531 31.542526245117188 C 381.27618408203125 12.488463401794434 380.99078369140625 9.878689765930176 478.78350830078125 13.200377464294434 C 505.7521057128906 12.592205047607422 495.20361328125 -1.6638215780258179 497.4974060058594 83.11520385742188" stroke-width="0.0" fill="rgb(18, 55, 75)" opacity="0.93972105" stroke="rgb(249, 18, 234)" stroke-opacity="0.3720794" stroke-linecap="round" stroke-linejoin="round"/>
    <path d="M 519.6931762695312 431.9632263183594 C 526.8250732421875 470.6933288574219 563.7507934570312 512.2235107421875 496.6824951171875 523.8295288085938 C 497.67901611328125 470.6432800292969 498.4776306152344 464.5775146484375 497.85467529296875 437.65948486328125 C 497.99798583984375 433.7482604980469 498.0273132324219 420.7762145996094 497.68310546875 308.369873046875 C 589.7723999023438 344.59033203125 525.2959594726562 412.0507507324219 519.6931762695312 431.9632263183594" stroke-width="0.0" fill="rgb(255, 237, 208)" opacity="0.93182737" stroke="rgb(65, 71, 73)" stroke-opacity="0.51379424" stroke-linecap="round" stroke-linejoin="round"/>
    <path d="M 535.7697143554688 222.3304443359375 C 517.1038208007812 233.4986572265625 520.3750610351562 250.20689392089844 497.9671936035156 245.8358917236328 C 496.7283630371094 200.19342041015625 501.7593078613281 194.8382568359375 480.1883544921875 244.78179931640625 C 495.36798095703125 200.53028869628906 505.08355712890625 214.18382263183594 475.2787780761719 210.69161987304688 C 516.0690307617188 211.3987579345703 518.4326171875 205.4586944580078 535.7697143554688 222.3304443359375" stroke-width="0.0" fill="rgb(221, 215, 196)" opacity="1.0" stroke="rgb(118, 27, 234)" stroke-opacity="0.101909176" stroke-linecap="round" stroke-linejoin="round"/>
    <path d="M 523.8965454101562 286.46441650390625 C 514.9712524414062 294.7765197753906 528.2973022460938 308.2530212402344 513.4730834960938 324.4075622558594 C 494.3570251464844 320.56103515625 498.25799560546875 333.3399963378906 497.4687805175781 275.61181640625 C 498.52105712890625 222.17352294921875 493.0787353515625 224.1722869873047 512.08447265625 234.75689697265625 C 526.0482788085938 257.3977355957031 521.2474365234375 265.7208557128906 523.8965454101562 286.46441650390625" stroke-width="0.0" fill="rgb(249, 231, 203)" opacity="1.0" stroke="rgb(206, 222, 73)" stroke-opacity="0.70751214" stroke-linecap="round" stroke-linejoin="round"/>
    <path d="M 519.9293212890625 28.75586700439453 C 528.0592651367188 75.60502624511719 622.1505737304688 172.1182098388672 497.59619140625 222.3142852783203 C 497.341064453125 101.03903198242188 497.6187744140625 96.8330307006836 497.8598327636719 14.60576057434082 C 485.61053466796875 8.224516868591309 381.0158996582031 20.962520599365234 361.1177062988281 4.466144561767578 C 541.4161987304688 -43.57388687133789 527.6806640625 5.8424553871154785 519.9293212890625 28.75586700439453" stroke-width="0.0" fill="rgb(255, 240, 211)" opacity="0.91248626" stroke="rgb(42, 84, 168)" stroke-opacity="0.926123" stroke-linecap="round" stroke-linejoin="round"/>
  </g>
</svg>
