<?xml version="1.0" ?>
<svg xmlns="http://www.w3.org/2000/svg" version="1.1" width="512" height="512">
  <defs/>
  <g>
    <path d="M 497.11529541015625 396.45977783203125 C 495.9154968261719 408.7666931152344 499.7476501464844 419.3852844238281 492.5909118652344 423.5581359863281 C 479.9877014160156 418.8170471191406 481.1521301269531 412.6954040527344 480.0330810546875 386.7937316894531 C 478.9451599121094 375.59979248046875 478.9808654785156 372.6024475097656 479.1744384765625 344.37921142578125 C 499.6920166015625 362.8226013183594 497.7915954589844 374.7364807128906 497.11529541015625 396.45977783203125" stroke-width="0.0" fill="rgb(65, 67, 64)" opacity="0.7298797" stroke="rgb(222, 204, 67)" stroke-opacity="0.7145846" stroke-linecap="round" stroke-linejoin="round"/>
    <path d="M 497.8155212402344 467.7552795410156 C 491.151123046875 460.487548828125 522.7672119140625 487.607177734375 480.4507141113281 487.4788818359375 C 478.9628601074219 429.6285095214844 479.9177551269531 413.3273010253906 479.40106201171875 386.964599609375 C 481.1180725097656 314.9415588378906 471.9620056152344 277.8219909667969 497.12652587890625 263.8759765625 C 497.091552734375 351.61553955078125 497.3310241699219 364.8500671386719 497.8155212402344 467.7552795410156" stroke-width="0.0" fill="rgb(19, 56, 76)" opacity="0.93138725" stroke="rgb(123, 160, 171)" stroke-opacity="0.4398993" stroke-linecap="round" stroke-linejoin="round"/>
    <path d="M 497.400390625 85.18297576904297 C 494.56939697265625 146.85546875 512.9119873046875 163.4432830810547 480.9453125 149.35198974609375 C 471.7056579589844 -6.0588788986206055 505.1854553222656 40.97538375854492 417.8815002441406 30.798269271850586 C 367.1205139160156 14.812593460083008 365.0780944824219 7.958489418029785 472.2564392089844 13.207274436950684 C 506.6768798828125 11.25487995147705 495.32537841796875 -7.063015937805176 497.400390625 85.18297576904297" stroke-width="0.0" fill="rgb(13, 52, 74)" opacity="0.9047427" stroke="rgb(249, 18, 234)" stroke-opacity="0.3720794" stroke-linecap="round" stroke-linejoin="round"/>
    <path d="M 519.69287109375 431.9634704589844 C 526.8268432617188 470.69305419921875 563.7507934570312 512.2235107421875 497.2215270996094 523.8897094726562 C 497.41314697265625 470.3296203613281 498.51190185546875 466.6192932128906 497.9751281738281 439.3282775878906 C 498.13702392578125 434.79034423828125 497.9130554199219 420.9704895019531 497.7216491699219 308.2937316894531 C 589.7723999023438 344.59033203125 525.2959594726562 412.0507507324219 519.69287109375 431.9634704589844" stroke-width="0.0" fill="rgb(255, 237, 207)" opacity="0.9385241" stroke="rgb(65, 71, 73)" stroke-opacity="0.51379424" stroke-linecap="round" stroke-linejoin="round"/>
    <path d="M 535.55126953125 214.65521240234375 C 517.0440673828125 233.4420928955078 520.39111328125 250.1473388671875 497.9051513671875 246.05780029296875 C 501.70245361328125 210.3896484375 526.05224609375 221.7688751220703 483.1108093261719 286.1510314941406 C 472.48760986328125 183.46115112304688 486.1795654296875 217.22055053710938 474.859375 196.4048614501953 C 497.90985107421875 188.90110778808594 511.8621826171875 190.71255493164062 535.55126953125 214.65521240234375" stroke-width="0.0" fill="rgb(25, 58, 76)" opacity="0.9825483" stroke="rgb(118, 27, 234)" stroke-opacity="0.101909176" stroke-linecap="round" stroke-linejoin="round"/>
    <path d="M 523.8966064453125 286.4652099609375 C 514.9708251953125 294.77618408203125 528.2973022460938 308.2530212402344 513.6113891601562 324.4210205078125 C 495.3131408691406 320.6351013183594 497.8906555175781 333.718994140625 497.5031433105469 268.7041015625 C 498.3240051269531 205.3960418701172 493.349365234375 208.9582977294922 516.4845581054688 228.22625732421875 C 526.0482788085938 257.3977355957031 521.2474365234375 265.7208557128906 523.8966064453125 286.4652099609375" stroke-width="0.0" fill="rgb(249, 231, 202)" opacity="0.9987123" stroke="rgb(206, 222, 73)" stroke-opacity="0.70751214" stroke-linecap="round" stroke-linejoin="round"/>
    <path d="M 519.9277954101562 28.506010055541992 C 528.0838623046875 75.74169921875 623.2275390625 173.36244201660156 497.4440002441406 225.61549377441406 C 497.33184814453125 100.40150451660156 497.5123596191406 97.07315826416016 497.9234619140625 13.110739707946777 C 484.3987121582031 13.11883544921875 365.653564453125 13.162313461303711 332.647216796875 13.362387657165527 C 496.2662353515625 -92.30828094482422 525.3438110351562 0.5857866406440735 519.9277954101562 28.506010055541992" stroke-width="0.0" fill="rgb(253, 235, 206)" opacity="0.95384663" stroke="rgb(42, 84, 168)" stroke-opacity="0.926123" stroke-linecap="round" stroke-linejoin="round"/>
    <path d="M 123.48094940185547 124.12024688720703 C 86.42125701904297 155.57247924804688 94.21485137939453 183.76243591308594 76.90332794189453 179.64569091796875 C 42.314056396484375 184.48626708984375 45.166019439697266 180.3207550048828 45.00826644897461 138.3127899169922 C 45.224365234375 117.40957641601562 43.46755599975586 116.63317108154297 56.61515808105469 119.29362487792969 C 90.15520477294922 122.9269027709961 104.46792602539062 119.74456787109375 123.48094940185547 124.12024688720703" stroke-width="0.0" fill="rgb(255, 231, 198)" opacity="0.94745266" stroke="rgb(75, 66, 26)" stroke-opacity="0.938972" stroke-linecap="round" stroke-linejoin="round"/>
    <path d="M 191.6001739501953 165.96212768554688 C 167.72378540039062 227.7137451171875 201.59439086914062 213.91134643554688 156.2880096435547 220.74679565429688 C 121.0945816040039 226.35545349121094 147.51690673828125 222.97048950195312 105.98558044433594 148.3913116455078 C 42.209835052490234 88.35298156738281 1.0051672458648682 31.944589614868164 121.54517364501953 45.803916931152344 C 219.42141723632812 110.81443786621094 216.40223693847656 127.9715576171875 191.6001739501953 165.96212768554688" stroke-width="0.0" fill="rgb(51, 175, 236)" opacity="0.744101" stroke="rgb(217, 144, 188)" stroke-opacity="0.72129565" stroke-linecap="round" stroke-linejoin="round"/>
    <path d="M 466.9764099121094 293.1990661621094 C 465.81646728515625 324.4117431640625 471.9844970703125 313.4344482421875 450.1572570800781 314.89697265625 C 420.16961669921875 313.4767150878906 428.6564025878906 319.0425109863281 426.9032897949219 301.8069763183594 C 428.3218688964844 272.79779052734375 421.6244201660156 281.5589294433594 441.07000732421875 279.4755859375 C 455.6073913574219 281.3227844238281 425.580322265625 298.159912109375 466.9764099121094 293.1990661621094" stroke-width="0.0" fill="rgb(255, 236, 204)" opacity="0.93274534" stroke="rgb(67, 139, 50)" stroke-opacity="0.6613053" stroke-linecap="round" stroke-linejoin="round"/>
    <path d="M 95.96337890625 192.13064575195312 C 94.51184844970703 248.2878875732422 104.5633316040039 248.43185424804688 46.88725280761719 242.60519409179688 C 27.170385360717773 242.55221557617188 33.91330337524414 250.12625122070312 32.45997619628906 126.9814224243164 C 68.79600524902344 159.45474243164062 60.33984375 168.90245056152344 90.90973663330078 166.6117706298828 C 98.9347152709961 160.8125762939453 97.21964263916016 136.6716766357422 95.96337890625 192.13064575195312" stroke-width="0.0" fill="rgb(252, 182, 116)" opacity="0.88133615" stroke="rgb(130, 71, 76)" stroke-opacity="0.023185799" stroke-linecap="round" stroke-linejoin="round"/>
    <path d="M 199.25648498535156 147.32766723632812 C 158.28805541992188 239.12564086914062 220.15965270996094 208.80419921875 115.26692962646484 225.69578552246094 C 116.62055969238281 239.96482849121094 98.11225128173828 236.04949951171875 99.28910827636719 232.255126953125 C 105.45223236083984 129.27294921875 92.92496490478516 131.3497314453125 116.18414306640625 150.6609344482422 C 134.1176300048828 200.01051330566406 131.50074768066406 189.7126922607422 199.25648498535156 147.32766723632812" stroke-width="0.0" fill="rgb(255, 222, 169)" opacity="0.8930156" stroke="rgb(54, 212, 137)" stroke-opacity="0.8375441" stroke-linecap="round" stroke-linejoin="round"/>
    <path d="M 93.13949584960938 107.98828125 C 100.98028564453125 138.5723419189453 103.30762481689453 137.24755859375 73.7137222290039 137.76535034179688 C 39.92008972167969 138.10263061523438 45.75830841064453 135.63597106933594 45.02402877807617 101.67237091064453 C 45.4554328918457 80.88917541503906 43.438743591308594 86.678466796875 49.684295654296875 86.13497924804688 C 68.67231750488281 89.61012268066406 85.0310287475586 91.76642608642578 93.13949584960938 107.98828125" stroke-width="0.0" fill="rgb(255, 234, 203)" opacity="0.9430088" stroke="rgb(173, 246, 172)" stroke-opacity="0.4619184" stroke-linecap="round" stroke-linejoin="round"/>
    <path d="M 265.9167785644531 126.78953552246094 C 205.03445434570312 124.79087829589844 237.8392333984375 193.4359130859375 207.09959411621094 188.45240783691406 C 178.7932891845703 196.0207977294922 175.21755981445312 203.54127502441406 203.796875 144.69357299804688 C 183.76121520996094 147.54873657226562 115.08154296875 162.18406677246094 120.77877044677734 50.12453842163086 C 485.7190856933594 8.632994651794434 436.22088623046875 166.5546112060547 265.9167785644531 126.78953552246094" stroke-width="0.0" fill="rgb(0, 136, 210)" opacity="0.62789506" stroke="rgb(3, 61, 178)" stroke-opacity="0.49424335" stroke-linecap="round" stroke-linejoin="round"/>
    <path d="M 503.45513916015625 496.3984375 C 502.0777587890625 548.7598876953125 483.7134704589844 534.1968994140625 431.81842041015625 525.205322265625 C 370.8738098144531 556.0550537109375 295.64886474609375 663.8287963867188 238.02626037597656 496.6123962402344 C 413.40789794921875 496.593017578125 426.04669189453125 496.6076354980469 465.5433654785156 496.67889404296875 C 467.9127197265625 495.3489990234375 471.84136962890625 496.5954284667969 503.45513916015625 496.3984375" stroke-width="0.0" fill="rgb(245, 228, 200)" opacity="1.0" stroke="rgb(124, 85, 221)" stroke-opacity="0.39456794" stroke-linecap="round" stroke-linejoin="round"/>
  </g>
</svg>
