<?xml version="1.0" ?>
<svg xmlns="http://www.w3.org/2000/svg" version="1.1" width="512" height="512">
  <defs/>
  <g>
    <path d="M 497.160400390625 396.4114074707031 C 496.0852966308594 409.15673828125 499.79168701171875 420.1928405761719 493.3835754394531 424.1739501953125 C 479.7718505859375 419.0309753417969 480.8666076660156 412.8615417480469 479.7808532714844 386.8809509277344 C 478.7806701660156 375.6523132324219 478.9820556640625 372.6269836425781 479.1546630859375 343.93353271484375 C 499.9851379394531 361.9054260253906 497.8668518066406 374.37359619140625 497.160400390625 396.4114074707031" stroke-width="0.0" fill="rgb(73, 71, 65)" opacity="0.7102069" stroke="rgb(222, 204, 67)" stroke-opacity="0.7145846" stroke-linecap="round" stroke-linejoin="round"/>
    <path d="M 497.8432922363281 467.6476745605469 C 491.2093505859375 460.79327392578125 523.23388671875 488.5582580566406 480.1181335449219 488.4375915527344 C 479.0516052246094 429.7102355957031 479.63397216796875 413.3825378417969 479.2952575683594 387.41204833984375 C 480.7515869140625 315.0452880859375 472.575439453125 277.8155822753906 497.2790222167969 263.63629150390625 C 497.3335266113281 351.613037109375 497.471923828125 364.84637451171875 497.8432922363281 467.6476745605469" stroke-width="0.0" fill="rgb(17, 54, 75)" opacity="0.9317091" stroke="rgb(123, 160, 171)" stroke-opacity="0.4398993" stroke-linecap="round" stroke-linejoin="round"/>
    <path d="M 497.5252380371094 83.88459014892578 C 494.4996337890625 147.37705993652344 512.2325439453125 164.01904296875 481.272216796875 149.7390899658203 C 471.0008239746094 -7.769329071044922 505.92388916015625 42.27287673950195 415.53704833984375 30.607471466064453 C 360.8828430175781 15.989840507507324 357.66131591796875 7.086897850036621 468.3576354980469 12.766392707824707 C 507.2674865722656 10.254355430603027 495.5683898925781 -9.378091812133789 497.5252380371094 83.88459014892578" stroke-width="0.0" fill="rgb(7, 48, 73)" opacity="0.8934479" stroke="rgb(249, 18, 234)" stroke-opacity="0.3720794" stroke-linecap="round" stroke-linejoin="round"/>
    <path d="M 519.69287109375 431.9634704589844 C 526.8268432617188 470.69305419921875 563.7507934570312 512.2235107421875 497.4183654785156 523.8279418945312 C 497.2179260253906 469.91363525390625 498.64013671875 468.1046447753906 497.98760986328125 439.54376220703125 C 497.89923095703125 434.7575378417969 498.017822265625 420.8959655761719 497.7153625488281 308.208251953125 C 589.7723999023438 344.59033203125 525.2959594726562 412.0507507324219 519.69287109375 431.9634704589844" stroke-width="0.0" fill="rgb(252, 234, 206)" opacity="0.941338" stroke="rgb(65, 71, 73)" stroke-opacity="0.51379424" stroke-linecap="round" stroke-linejoin="round"/>
    <path d="M 535.1048583984375 212.41957092285156 C 517.0440673828125 233.4420928955078 520.39111328125 250.1473388671875 497.9119567871094 246.0865936279297 C 501.92010498046875 210.85540771484375 527.1459350585938 223.03140258789062 480.3414001464844 289.8290710449219 C 477.291748046875 184.2043914794922 480.2789001464844 216.74273681640625 478.8205871582031 195.69480895996094 C 493.4255676269531 186.22976684570312 507.9841003417969 187.64527893066406 535.1048583984375 212.41957092285156" stroke-width="0.0" fill="rgb(26, 59, 76)" opacity="0.9875666" stroke="rgb(118, 27, 234)" stroke-opacity="0.101909176" stroke-linecap="round" stroke-linejoin="round"/>
    <path d="M 523.8966064453125 286.4652099609375 C 514.9708251953125 294.77618408203125 528.2973022460938 308.2530212402344 513.5338134765625 324.42523193359375 C 495.1815490722656 320.6565246582031 498.12200927734375 333.8053283691406 497.5789794921875 267.7801818847656 C 497.93310546875 203.4129638671875 494.0597839355469 208.21173095703125 516.3399047851562 228.09336853027344 C 526.0482788085938 257.3977355957031 521.2474365234375 265.7208557128906 523.8966064453125 286.4652099609375" stroke-width="0.0" fill="rgb(250, 231, 202)" opacity="1.0" stroke="rgb(206, 222, 73)" stroke-opacity="0.70751214" stroke-linecap="round" stroke-linejoin="round"/>
    <path d="M 519.9277954101562 28.492895126342773 C 528.0838623046875 75.7408676147461 623.2182006835938 173.3495330810547 497.49334716796875 225.5875244140625 C 497.2706298828125 99.90126037597656 497.62188720703125 97.4393081665039 497.9237976074219 13.064874649047852 C 484.39703369140625 13.222007751464844 365.6479797363281 12.862641334533691 332.1484069824219 13.751232147216797 C 494.3080749511719 -93.6913070678711 525.2000122070312 0.3588070571422577 519.9277954101562 28.492895126342773" stroke-width="0.0" fill="rgb(251, 232, 204)" opacity="0.97334975" stroke="rgb(42, 84, 168)" stroke-opacity="0.926123" stroke-linecap="round" stroke-linejoin="round"/>
    <path d="M 120.68781280517578 118.32545471191406 C 83.24903106689453 149.45474243164062 102.85546875 188.1258544921875 93.03264617919922 189.49807739257812 C 42.230045318603516 185.50860595703125 44.902015686035156 180.36045837402344 45.1348991394043 137.0147247314453 C 45.329891204833984 116.04706573486328 42.79171371459961 116.69967651367188 55.11639404296875 119.38007354736328 C 90.15369415283203 122.93280792236328 104.46516418457031 119.75283813476562 120.68781280517578 118.32545471191406" stroke-width="0.0" fill="rgb(255, 238, 210)" opacity="0.8952533" stroke="rgb(75, 66, 26)" stroke-opacity="0.938972" stroke-linecap="round" stroke-linejoin="round"/>
    <path d="M 191.8738555908203 165.16859436035156 C 163.9321746826172 235.60877990722656 198.6183319091797 217.93392944335938 164.95663452148438 222.61489868164062 C 112.01351165771484 222.1674041748047 147.9707794189453 229.25079345703125 106.69220733642578 154.10519409179688 C 27.503128051757812 29.333242416381836 -12.748739242553711 45.30226135253906 206.91116333007812 44.40705490112305 C 225.95823669433594 108.43782043457031 216.32652282714844 125.0349349975586 191.8738555908203 165.16859436035156" stroke-width="0.0" fill="rgb(22, 152, 221)" opacity="0.76396805" stroke="rgb(217, 144, 188)" stroke-opacity="0.72129565" stroke-linecap="round" stroke-linejoin="round"/>
    <path d="M 467.0278015136719 293.2245178222656 C 466.2528076171875 323.9499816894531 470.09075927734375 313.5317687988281 456.15301513671875 314.99578857421875 C 418.51898193359375 313.7552490234375 428.9474182128906 318.28094482421875 426.9490051269531 303.62237548828125 C 428.5822448730469 271.94256591796875 421.7178649902344 281.4267883300781 442.0086364746094 279.4539489746094 C 454.5304260253906 282.2846374511719 426.3572082519531 297.60150146484375 467.0278015136719 293.2245178222656" stroke-width="0.0" fill="rgb(255, 236, 207)" opacity="0.9050332" stroke="rgb(67, 139, 50)" stroke-opacity="0.6613053" stroke-linecap="round" stroke-linejoin="round"/>
    <path d="M 95.90594482421875 193.22422790527344 C 94.68318176269531 248.89479064941406 104.58772277832031 248.42306518554688 45.04213333129883 242.3607635498047 C 29.85211181640625 258.2605285644531 33.19144058227539 269.9996337890625 32.445533752441406 110.10066986083984 C 61.13880157470703 158.92291259765625 33.71113586425781 186.52960205078125 95.80570983886719 186.76150512695312 C 94.3256607055664 159.45980834960938 98.30079650878906 136.36968994140625 95.90594482421875 193.22422790527344" stroke-width="0.0" fill="rgb(240, 169, 103)" opacity="1.0" stroke="rgb(130, 71, 76)" stroke-opacity="0.023185799" stroke-linecap="round" stroke-linejoin="round"/>
    <path d="M 201.97779846191406 147.77099609375 C 149.0966033935547 236.04083251953125 232.3173370361328 208.612060546875 115.40394592285156 225.2572479248047 C 116.69300842285156 240.4613037109375 98.15168762207031 234.42269897460938 99.74198913574219 233.9698486328125 C 104.40444946289062 124.07276153564453 94.34210205078125 129.15451049804688 114.9128189086914 150.1649627685547 C 133.45986938476562 199.02503967285156 111.55999755859375 138.6793975830078 201.97779846191406 147.77099609375" stroke-width="0.0" fill="rgb(255, 220, 171)" opacity="0.9079867" stroke="rgb(54, 212, 137)" stroke-opacity="0.8375441" stroke-linecap="round" stroke-linejoin="round"/>
    <path d="M 93.14227294921875 107.9708023071289 C 100.98139190673828 138.5716094970703 103.3076400756836 137.2496337890625 73.72933197021484 137.7637939453125 C 40.85837936401367 138.2263946533203 45.643009185791016 136.8610076904297 45.05380630493164 101.43802642822266 C 45.39305877685547 78.17720794677734 43.89598083496094 87.80858612060547 51.82075119018555 86.26475524902344 C 69.23779296875 88.37992095947266 85.08760833740234 91.57948303222656 93.14227294921875 107.9708023071289" stroke-width="0.0" fill="rgb(253, 234, 205)" opacity="0.92163426" stroke="rgb(173, 246, 172)" stroke-opacity="0.4619184" stroke-linecap="round" stroke-linejoin="round"/>
    <path d="M 300.6163024902344 141.11192321777344 C 220.2480926513672 81.61400604248047 222.52760314941406 197.9697265625 219.32797241210938 187.05064392089844 C 177.6534881591797 193.98487854003906 171.6572265625 210.12643432617188 205.6077117919922 139.88796997070312 C 183.54745483398438 142.9413604736328 115.09832000732422 161.74822998046875 134.6366729736328 55.64902877807617 C 517.0746459960938 -1.8446741104125977 454.1996154785156 168.29046630859375 300.6163024902344 141.11192321777344" stroke-width="0.0" fill="rgb(23, 133, 191)" opacity="0.8168159" stroke="rgb(3, 61, 178)" stroke-opacity="0.49424335" stroke-linecap="round" stroke-linejoin="round"/>
    <path d="M 503.3564758300781 496.21771240234375 C 501.8627624511719 548.6279907226562 483.5862731933594 534.155517578125 431.67535400390625 525.20068359375 C 369.3980712890625 557.8347778320312 285.6611328125 681.8971557617188 206.68106079101562 497.1977233886719 C 413.4713439941406 497.1602478027344 426.32513427734375 496.6133117675781 465.81817626953125 496.7326965332031 C 468.5503234863281 495.135498046875 475.00469970703125 496.8362731933594 503.3564758300781 496.21771240234375" stroke-width="0.0" fill="rgb(252, 235, 208)" opacity="0.9324215" stroke="rgb(124, 85, 221)" stroke-opacity="0.39456794" stroke-linecap="round" stroke-linejoin="round"/>
    <path d="M 63.86125564575195 310.9944152832031 C 72.418701171875 331.27264404296875 70.41230773925781 328.55914306640625 53.10842514038086 337.60784912109375 C 46.07974624633789 337.6690368652344 46.0014762878418 334.1579895019531 45.714576721191406 334.1455993652344 C 45.45002746582031 289.6404724121094 45.493568420410156 283.0050048828125 46.094966888427734 265.502197265625 C 71.74177551269531 287.3223876953125 58.2216682434082 302.214599609375 63.86125564575195 310.9944152832031" stroke-width="0.0" fill="rgb(0, 42, 70)" opacity="0.8526704" stroke="rgb(65, 157, 75)" stroke-opacity="0.9517905" stroke-linecap="round" stroke-linejoin="round"/>
    <path d="M 466.6045227050781 465.16339111328125 C 462.1492614746094 465.8099060058594 479.2561340332031 466.41845703125 444.74334716796875 465.4783935546875 C 426.5711975097656 463.94482421875 426.6189880371094 463.0621337890625 442.39532470703125 462.2568664550781 C 446.544189453125 431.25006103515625 429.2900695800781 369.7412109375 466.5616149902344 353.775634765625 C 466.6880798339844 356.1641540527344 466.5538635253906 385.14849853515625 466.6045227050781 465.16339111328125" stroke-width="0.0" fill="rgb(25, 58, 76)" opacity="1.0" stroke="rgb(185, 90, 17)" stroke-opacity="0.79977995" stroke-linecap="round" stroke-linejoin="round"/>
    <path d="M 452.52679443359375 463.90380859375 C 456.8630676269531 466.71484375 452.8472900390625 465.2886047363281 428.26019287109375 465.7521057128906 C 404.15325927734375 465.6806640625 401.8219909667969 462.594970703125 396.3375549316406 430.6424560546875 C 393.2648620605469 423.4007568359375 399.50994873046875 425.459228515625 452.6786193847656 424.97882080078125 C 449.7944641113281 419.9842834472656 451.0520324707031 418.0421142578125 452.52679443359375 463.90380859375" stroke-width="0.0" fill="rgb(25, 59, 76)" opacity="1.0" stroke="rgb(247, 215, 22)" stroke-opacity="0.029643705" stroke-linecap="round" stroke-linejoin="round"/>
    <path d="M 422.9283447265625 496.7260437011719 C 246.99423217773438 496.7535095214844 231.0743408203125 497.1618957519531 188.50650024414062 496.6595764160156 C 196.83448791503906 491.2891540527344 193.02069091796875 496.2150573730469 187.88833618164062 479.5002136230469 C 188.1172637939453 478.1662902832031 192.7490234375 478.4763488769531 463.8590087890625 478.11102294921875 C 474.6120910644531 505.82879638671875 455.50927734375 493.836669921875 422.9283447265625 496.7260437011719" stroke-width="0.0" fill="rgb(21, 55, 75)" opacity="0.9679161" stroke="rgb(105, 18, 33)" stroke-opacity="0.387256" stroke-linecap="round" stroke-linejoin="round"/>
    <path d="M 219.75881958007812 497.0315246582031 C 220.561767578125 496.8621826171875 212.32847595214844 496.98040771484375 114.08496856689453 496.9725646972656 C 107.67147064208984 495.258544921875 95.88409423828125 503.4730529785156 98.0616683959961 478.5350036621094 C 150.9510955810547 478.57769775390625 165.67666625976562 478.31353759765625 211.09805297851562 478.4411926269531 C 211.05340576171875 480.2027587890625 211.41741943359375 474.0799255371094 219.75881958007812 497.0315246582031" stroke-width="0.0" fill="rgb(25, 58, 76)" opacity="0.99844944" stroke="rgb(189, 134, 97)" stroke-opacity="0.9560563" stroke-linecap="round" stroke-linejoin="round"/>
    <path d="M 77.12191009521484 422.7821044921875 C 75.97569274902344 457.0696716308594 78.78489685058594 466.087890625 45.74806213378906 466.1408996582031 C 45.54216003417969 466.4662170410156 45.659080505371094 465.0899353027344 45.56631851196289 434.36822509765625 C 45.535831451416016 412.275146484375 45.27410888671875 404.59332275390625 45.95125198364258 406.869140625 C 81.88665771484375 416.0643310546875 81.36771392822266 418.32305908203125 77.12191009521484 422.7821044921875" stroke-width="0.0" fill="rgb(0, 42, 69)" opacity="0.8630707" stroke="rgb(238, 131, 135)" stroke-opacity="0.8224486" stroke-linecap="round" stroke-linejoin="round"/>
    <path d="M 85.64320373535156 401.9708557128906 C 93.05911254882812 430.8694763183594 84.95313262939453 437.610107421875 73.55181884765625 437.9672546386719 C 49.86496353149414 436.54620361328125 48.59223175048828 434.89715576171875 48.91598892211914 404.56915283203125 C 47.15652847290039 385.91162109375 45.89578628540039 382.7251892089844 73.54925537109375 372.63543701171875 C 71.7833023071289 370.6095275878906 79.9947509765625 384.9614562988281 85.64320373535156 401.9708557128906" stroke-width="0.0" fill="rgb(23, 58, 75)" opacity="0.9853492" stroke="rgb(89, 191, 154)" stroke-opacity="0.6685939" stroke-linecap="round" stroke-linejoin="round"/>
    <path d="M 497.11224365234375 163.3308868408203 C 496.3752746582031 192.53350830078125 500.7848815917969 200.59564208984375 483.97100830078125 204.45309448242188 C 477.4351501464844 203.42507934570312 479.3879699707031 199.37083435058594 479.1474304199219 155.47303771972656 C 479.1592712402344 131.89111328125 479.2041931152344 122.045166015625 479.338134765625 112.78011322021484 C 499.0074157714844 144.5794677734375 496.7598571777344 146.6396026611328 497.11224365234375 163.3308868408203" stroke-width="0.0" fill="rgb(27, 60, 77)" opacity="0.9984259" stroke="rgb(124, 12, 128)" stroke-opacity="0.3197954" stroke-linecap="round" stroke-linejoin="round"/>
    <path d="M 97.06879425048828 295.6419982910156 C 166.0229949951172 206.85247802734375 118.76158905029297 401.0819091796875 118.34982299804688 300.70599365234375 C 43.23703384399414 299.294189453125 45.477821350097656 305.6861877441406 45.78382110595703 279.1181640625 C 45.341583251953125 259.6081848144531 45.700538635253906 251.8011474609375 45.53081130981445 243.36875915527344 C 97.71121215820312 297.13336181640625 82.65254974365234 238.95591735839844 97.06879425048828 295.6419982910156" stroke-width="0.0" fill="rgb(21, 54, 73)" opacity="0.8325774" stroke="rgb(74, 64, 114)" stroke-opacity="0.59246397" stroke-linecap="round" stroke-linejoin="round"/>
    <path d="M 73.85032653808594 337.11529541015625 C 74.19613647460938 362.5254821777344 82.95512390136719 363.3580322265625 51.90483856201172 362.90142822265625 C 45.015830993652344 356.8394775390625 45.72119140625 349.1268310546875 45.61369323730469 324.5257568359375 C 45.94584274291992 309.58135986328125 46.25049591064453 308.1549377441406 62.483238220214844 301.9528503417969 C 65.43903350830078 307.0177307128906 71.83552551269531 322.0154113769531 73.85032653808594 337.11529541015625" stroke-width="0.0" fill="rgb(24, 58, 76)" opacity="0.9874568" stroke="rgb(113, 249, 186)" stroke-opacity="0.9695514" stroke-linecap="round" stroke-linejoin="round"/>
    <path d="M 88.45577239990234 425.1606750488281 C 86.878662109375 449.5942077636719 80.51757049560547 467.52880859375 83.2986831665039 466.0057678222656 C 44.592002868652344 465.94891357421875 42.138160705566406 466.8702697753906 52.43348693847656 464.37164306640625 C 60.050777435302734 429.52679443359375 59.691856384277344 425.3175354003906 77.7509536743164 415.7279357910156 C 86.07075500488281 417.31634521484375 84.35924530029297 416.5614929199219 88.45577239990234 425.1606750488281" stroke-width="0.0" fill="rgb(23, 57, 75)" opacity="0.9809432" stroke="rgb(58, 4, 160)" stroke-opacity="0.0036254812" stroke-linecap="round" stroke-linejoin="round"/>
    <path d="M 402.0359802246094 440.5151062011719 C 403.39715576171875 468.673583984375 402.2808837890625 463.29510498046875 411.1646423339844 465.5580139160156 C 366.7393798828125 466.1869201660156 375.5742492675781 465.9293212890625 374.7003479003906 465.61822509765625 C 374.58355712890625 427.38568115234375 374.9456787109375 419.4296875 376.5804748535156 428.3589782714844 C 401.66790771484375 429.8680114746094 402.58465576171875 433.1949157714844 402.0359802246094 440.5151062011719" stroke-width="0.0" fill="rgb(0, 38, 64)" opacity="0.83546937" stroke="rgb(13, 144, 76)" stroke-opacity="0.069302864" stroke-linecap="round" stroke-linejoin="round"/>
    <path d="M 30.235422134399414 478.3832702636719 C 95.98545837402344 480.46014404296875 117.19563293457031 471.5779113769531 126.23552703857422 496.9559020996094 C 1.11886727809906 497.00372314453125 16.653270721435547 497.32708740234375 14.794754981994629 496.8069763183594 C 14.543472290039062 459.5616149902344 14.725885391235352 451.964111328125 14.954143524169922 451.0948486328125 C 38.93654251098633 452.6558532714844 31.45932388305664 456.6429138183594 30.235422134399414 478.3832702636719" stroke-width="0.0" fill="rgb(22, 57, 75)" opacity="0.9811964" stroke="rgb(200, 244, 228)" stroke-opacity="0.8265105" stroke-linecap="round" stroke-linejoin="round"/>
    <path d="M 74.66156768798828 401.7041320800781 C 84.26908874511719 403.6167907714844 81.347412109375 405.08441162109375 45.666542053222656 411.6296691894531 C 45.58457565307617 408.2249450683594 45.53145217895508 394.6034851074219 45.60818099975586 337.2897644042969 C 54.011592864990234 341.5259704589844 31.706626892089844 339.35797119140625 73.40644073486328 336.9670715332031 C 75.42273712158203 342.28662109375 76.56343078613281 353.9915771484375 74.66156768798828 401.7041320800781" stroke-width="0.0" fill="rgb(24, 58, 76)" opacity="0.9867395" stroke="rgb(252, 138, 115)" stroke-opacity="0.48975113" stroke-linecap="round" stroke-linejoin="round"/>
    <path d="M 407.03070068359375 461.58026123046875 C 434.9756164550781 465.40924072265625 427.3562927246094 465.8557434082031 416.0951843261719 465.6600036621094 C 377.00860595703125 465.6241455078125 375.4359130859375 469.0569763183594 378.69305419921875 440.0986633300781 C 375.7473449707031 421.23101806640625 365.3013916015625 425.7377624511719 400.61358642578125 424.97894287109375 C 394.771484375 338.2897033691406 420.1000061035156 354.922607421875 407.03070068359375 461.58026123046875" stroke-width="0.0" fill="rgb(25, 58, 75)" opacity="0.98508656" stroke="rgb(209, 41, 83)" stroke-opacity="0.7869503" stroke-linecap="round" stroke-linejoin="round"/>
    <path d="M 32.83012390136719 486.5143127441406 C 26.34096908569336 470.1095886230469 35.60563278198242 473.8440856933594 16.472232818603516 474.51983642578125 C 13.830381393432617 474.8505859375 15.212656021118164 470.3477783203125 14.738409042358398 222.68763732910156 C 27.676008224487305 238.93980407714844 -4.591414451599121 209.3880615234375 32.750728607177734 196.27015686035156 C 32.93404769897461 417.40869140625 32.60530090332031 429.8693542480469 32.83012390136719 486.5143127441406" stroke-width="0.0" fill="rgb(21, 56, 75)" opacity="0.9672906" stroke="rgb(250, 216, 79)" stroke-opacity="0.046257496" stroke-linecap="round" stroke-linejoin="round"/>
  </g>
</svg>
