<?xml version="1.0" ?>
<svg xmlns="http://www.w3.org/2000/svg" version="1.1" width="512" height="512">
  <defs/>
  <g>
    <path d="M 497.1985168457031 396.51910400390625 C 495.89263916015625 409.3651428222656 499.7520446777344 420.611328125 493.773681640625 424.7158203125 C 479.6310729980469 419.1853332519531 480.7169189453125 412.97802734375 479.5054931640625 387.0981750488281 C 478.8055419921875 375.697509765625 479.02130126953125 372.6226806640625 479.1222839355469 343.5869140625 C 499.94091796875 361.4890441894531 497.8782958984375 374.4746398925781 497.1985168457031 396.51910400390625" stroke-width="0.0" fill="rgb(76, 72, 64)" opacity="0.7020665" stroke="rgb(222, 204, 67)" stroke-opacity="0.7145846" stroke-linecap="round" stroke-linejoin="round"/>
    <path d="M 497.8428649902344 467.71136474609375 C 491.3692932128906 461.2236022949219 524.0978393554688 489.7624816894531 480.1630554199219 489.45697021484375 C 479.005859375 429.7486267089844 479.6051025390625 413.4007873535156 479.3057861328125 387.6713562011719 C 480.6731872558594 315.0707702636719 472.72479248046875 277.8093566894531 497.32611083984375 263.53094482421875 C 497.33270263671875 351.6131896972656 497.4940185546875 364.84515380859375 497.8428649902344 467.71136474609375" stroke-width="0.0" fill="rgb(17, 55, 76)" opacity="0.9298476" stroke="rgb(123, 160, 171)" stroke-opacity="0.4398993" stroke-linecap="round" stroke-linejoin="round"/>
    <path d="M 497.54888916015625 82.84859466552734 C 494.55230712890625 147.45654296875 512.05078125 164.0336151123047 481.8165283203125 149.572265625 C 470.0755920410156 -8.515320777893066 507.1217041015625 42.73923873901367 414.4802551269531 30.439178466796875 C 357.76898193359375 16.50425148010254 353.9215087890625 6.6216816902160645 466.1627197265625 12.600828170776367 C 507.5093688964844 9.783775329589844 495.61163330078125 -10.623495101928711 497.54888916015625 82.84859466552734" stroke-width="0.0" fill="rgb(5, 47, 73)" opacity="0.8855653" stroke="rgb(249, 18, 234)" stroke-opacity="0.3720794" stroke-linecap="round" stroke-linejoin="round"/>
    <path d="M 519.69287109375 431.9634704589844 C 526.8268432617188 470.69305419921875 563.7507934570312 512.2235107421875 497.4598388671875 523.7765502929688 C 497.1102294921875 469.78546142578125 498.6882019042969 469.2513427734375 497.93505859375 440.4739074707031 C 497.9160461425781 434.8435974121094 497.9518127441406 420.90399169921875 497.70355224609375 308.19879150390625 C 589.7723999023438 344.59033203125 525.2959594726562 412.0507507324219 519.69287109375 431.9634704589844" stroke-width="0.0" fill="rgb(251, 233, 205)" opacity="0.95413476" stroke="rgb(65, 71, 73)" stroke-opacity="0.51379424" stroke-linecap="round" stroke-linejoin="round"/>
    <path d="M 535.045654296875 212.4957733154297 C 517.0440673828125 233.4420928955078 520.39111328125 250.1473388671875 497.9136047363281 246.09463500976562 C 501.9759216308594 210.9761505126953 527.4078979492188 223.33871459960938 479.87481689453125 290.43603515625 C 477.9156188964844 184.30992126464844 479.8984069824219 216.77032470703125 478.882080078125 195.6766815185547 C 493.31658935546875 186.25416564941406 507.7795715332031 187.6988525390625 535.045654296875 212.4957733154297" stroke-width="0.0" fill="rgb(26, 59, 76)" opacity="0.9889676" stroke="rgb(118, 27, 234)" stroke-opacity="0.101909176" stroke-linecap="round" stroke-linejoin="round"/>
    <path d="M 523.8966064453125 286.4652099609375 C 514.9708251953125 294.77618408203125 528.2973022460938 308.2530212402344 513.5028686523438 324.42535400390625 C 495.13067626953125 320.6683654785156 498.14324951171875 333.8500061035156 497.5993957519531 266.6807861328125 C 497.924560546875 202.41412353515625 494.1611022949219 207.8980712890625 516.1124877929688 228.0431365966797 C 526.0482788085938 257.3977355957031 521.2474365234375 265.7208557128906 523.8966064453125 286.4652099609375" stroke-width="0.0" fill="rgb(250, 231, 202)" opacity="1.0" stroke="rgb(206, 222, 73)" stroke-opacity="0.70751214" stroke-linecap="round" stroke-linejoin="round"/>
    <path d="M 519.9277954101562 28.484859466552734 C 528.0838623046875 75.7408676147461 623.2182006835938 173.34939575195312 497.50872802734375 225.59205627441406 C 497.3016357421875 99.56934356689453 497.5784606933594 97.59569549560547 497.9083251953125 13.108591079711914 C 484.4067687988281 13.023086547851562 365.664794921875 13.205557823181152 331.0933837890625 13.438751220703125 C 492.3600158691406 -95.0433349609375 525.0890502929688 0.1896601766347885 519.9277954101562 28.484859466552734" stroke-width="0.0" fill="rgb(250, 232, 203)" opacity="0.9817426" stroke="rgb(42, 84, 168)" stroke-opacity="0.926123" stroke-linecap="round" stroke-linejoin="round"/>
    <path d="M 120.52506256103516 118.15939331054688 C 83.00308227539062 149.22390747070312 103.29138946533203 187.70643615722656 93.31604766845703 190.4420623779297 C 42.19280242919922 185.7187042236328 44.9780158996582 180.3695068359375 45.1300048828125 136.92405700683594 C 45.2663459777832 116.15462493896484 43.277591705322266 117.01485443115234 55.544673919677734 119.45408630371094 C 90.15369415283203 122.93280792236328 104.46516418457031 119.75283813476562 120.52506256103516 118.15939331054688" stroke-width="0.0" fill="rgb(255, 240, 213)" opacity="0.8785431" stroke="rgb(75, 66, 26)" stroke-opacity="0.938972" stroke-linecap="round" stroke-linejoin="round"/>
    <path d="M 191.49221801757812 166.2960968017578 C 163.50274658203125 237.13180541992188 203.10317993164062 216.2998046875 180.80908203125 222.78079223632812 C 107.98640441894531 220.8970947265625 149.53189086914062 234.39312744140625 110.90059661865234 160.91537475585938 C 17.314414978027344 20.478004455566406 -8.371535301208496 47.785945892333984 230.02532958984375 44.028053283691406 C 226.93785095214844 108.24925231933594 215.9703369140625 124.6552734375 191.49221801757812 166.2960968017578" stroke-width="0.0" fill="rgb(12, 151, 227)" opacity="0.728459" stroke="rgb(217, 144, 188)" stroke-opacity="0.72129565" stroke-linecap="round" stroke-linejoin="round"/>
    <path d="M 467.031005859375 293.2639465332031 C 466.4333801269531 323.3265686035156 469.12042236328125 313.48272705078125 460.22406005859375 315.040283203125 C 417.52703857421875 313.7471923828125 429.04144287109375 318.07891845703125 426.9073791503906 304.12408447265625 C 428.6470031738281 271.5679016113281 421.5360107421875 281.4143981933594 442.7480163574219 279.4480895996094 C 453.34710693359375 283.83251953125 427.3336486816406 297.2816162109375 467.031005859375 293.2639465332031" stroke-width="0.0" fill="rgb(255, 238, 209)" opacity="0.89494467" stroke="rgb(67, 139, 50)" stroke-opacity="0.6613053" stroke-linecap="round" stroke-linejoin="round"/>
    <path d="M 95.80632781982422 193.64651489257812 C 94.77177429199219 248.36854553222656 104.45972442626953 248.47467041015625 46.1526985168457 242.35858154296875 C 28.266870498657227 258.6357727050781 34.763031005859375 270.593505859375 32.83077621459961 108.46013641357422 C 62.92947769165039 156.88926696777344 27.95454978942871 190.6138153076172 95.81592559814453 186.4350128173828 C 94.18402862548828 158.95266723632812 98.30878448486328 136.39877319335938 95.80632781982422 193.64651489257812" stroke-width="0.0" fill="rgb(250, 173, 103)" opacity="0.87234247" stroke="rgb(130, 71, 76)" stroke-opacity="0.023185799" stroke-linecap="round" stroke-linejoin="round"/>
    <path d="M 201.89671325683594 148.19775390625 C 148.43212890625 237.2950439453125 233.4228515625 208.0772247314453 115.31920623779297 225.31141662597656 C 116.2366714477539 240.97593688964844 96.89894104003906 234.21669006347656 99.94302368164062 233.9142608642578 C 104.08049774169922 121.48368835449219 95.1109390258789 128.42910766601562 113.7481460571289 150.03643798828125 C 133.5281219482422 198.7967071533203 113.89527130126953 126.3714828491211 201.89671325683594 148.19775390625" stroke-width="0.0" fill="rgb(255, 220, 171)" opacity="0.90634656" stroke="rgb(54, 212, 137)" stroke-opacity="0.8375441" stroke-linecap="round" stroke-linejoin="round"/>
    <path d="M 93.14019775390625 107.9967041015625 C 100.98139190673828 138.5716094970703 103.3076400756836 137.2496337890625 73.64935302734375 137.742431640625 C 40.74605941772461 138.0889129638672 45.54488754272461 137.04159545898438 45.08318328857422 102.12113952636719 C 45.29638671875 77.3084487915039 43.86968994140625 87.6190414428711 51.876609802246094 86.23963165283203 C 69.04881286621094 88.21399688720703 84.983154296875 91.9002456665039 93.14019775390625 107.9967041015625" stroke-width="0.0" fill="rgb(253, 234, 206)" opacity="0.9203582" stroke="rgb(173, 246, 172)" stroke-opacity="0.4619184" stroke-linecap="round" stroke-linejoin="round"/>
    <path d="M 301.7120056152344 142.02944946289062 C 220.27845764160156 80.71328735351562 222.47019958496094 197.6775360107422 219.56985473632812 187.21083068847656 C 179.60162353515625 192.87579345703125 170.0835723876953 211.96337890625 206.1072540283203 139.49929809570312 C 183.50637817382812 142.23069763183594 115.09841918945312 161.69717407226562 136.00930786132812 56.872982025146484 C 519.9048461914062 -2.969996690750122 455.19171142578125 163.32786560058594 301.7120056152344 142.02944946289062" stroke-width="0.0" fill="rgb(42, 136, 182)" opacity="0.92690665" stroke="rgb(3, 61, 178)" stroke-opacity="0.49424335" stroke-linecap="round" stroke-linejoin="round"/>
    <path d="M 501.6589050292969 496.25079345703125 C 500.4505310058594 547.8985595703125 482.89764404296875 533.9600219726562 431.5345458984375 525.1868286132812 C 369.35552978515625 557.8939819335938 285.3385009765625 682.5611572265625 205.34725952148438 497.1974182128906 C 413.45892333984375 497.2113952636719 425.65704345703125 496.6789855957031 465.37799072265625 496.7825927734375 C 468.6061096191406 495.03155517578125 476.246337890625 496.89825439453125 501.6589050292969 496.25079345703125" stroke-width="0.0" fill="rgb(255, 240, 215)" opacity="0.8796346" stroke="rgb(124, 85, 221)" stroke-opacity="0.39456794" stroke-linecap="round" stroke-linejoin="round"/>
    <path d="M 62.18646240234375 309.8951110839844 C 72.48086547851562 331.4212341308594 70.59564971923828 328.6756286621094 53.24859619140625 337.6033935546875 C 46.074459075927734 337.64495849609375 45.92779541015625 334.3672790527344 45.69007110595703 337.78662109375 C 45.42456817626953 289.14300537109375 45.60747528076172 282.09600830078125 46.06242370605469 249.0030975341797 C 72.95364379882812 289.73114013671875 58.593528747558594 302.3697204589844 62.18646240234375 309.8951110839844" stroke-width="0.0" fill="rgb(0, 43, 71)" opacity="0.8539913" stroke="rgb(65, 157, 75)" stroke-opacity="0.9517905" stroke-linecap="round" stroke-linejoin="round"/>
    <path d="M 466.6248779296875 465.19915771484375 C 463.2007751464844 465.7784423828125 477.9693298339844 466.51446533203125 444.0133972167969 465.4109802246094 C 426.5711975097656 463.94482421875 426.6189880371094 463.0621337890625 443.6148986816406 460.0212707519531 C 445.821533203125 433.2695007324219 429.4429626464844 369.1560974121094 466.5911560058594 353.8516845703125 C 466.74981689453125 356.089111328125 466.6034240722656 385.1733703613281 466.6248779296875 465.19915771484375" stroke-width="0.0" fill="rgb(25, 59, 76)" opacity="1.0" stroke="rgb(185, 90, 17)" stroke-opacity="0.79977995" stroke-linecap="round" stroke-linejoin="round"/>
    <path d="M 452.7252502441406 465.3882751464844 C 458.0368347167969 466.12384033203125 453.8214111328125 465.6695861816406 427.9685363769531 465.74871826171875 C 403.84686279296875 465.52313232421875 401.7350769042969 463.1566467285156 396.20068359375 430.5526428222656 C 393.02752685546875 423.4429626464844 399.32354736328125 425.4104309082031 452.6822204589844 424.9544982910156 C 449.8285217285156 419.9573669433594 451.0486755371094 418.0423583984375 452.7252502441406 465.3882751464844" stroke-width="0.0" fill="rgb(25, 59, 76)" opacity="1.0" stroke="rgb(247, 215, 22)" stroke-opacity="0.029643705" stroke-linecap="round" stroke-linejoin="round"/>
    <path d="M 424.823974609375 496.63323974609375 C 246.97512817382812 497.0559997558594 230.7980194091797 496.8637390136719 187.00247192382812 496.9653015136719 C 196.7822265625 491.2822570800781 192.97061157226562 496.22869873046875 187.72940063476562 478.641845703125 C 187.71762084960938 478.48504638671875 192.33450317382812 478.3354187011719 465.6429748535156 478.1625671386719 C 469.5745849609375 505.2640075683594 463.4505920410156 494.16607666015625 424.823974609375 496.63323974609375" stroke-width="0.0" fill="rgb(26, 59, 77)" opacity="1.0" stroke="rgb(105, 18, 33)" stroke-opacity="0.387256" stroke-linecap="round" stroke-linejoin="round"/>
    <path d="M 219.90736389160156 496.7131042480469 C 221.38644409179688 496.8769836425781 212.58917236328125 497.27313232421875 111.83979797363281 496.9808044433594 C 107.58914947509766 494.65606689453125 95.89066314697266 502.87322998046875 98.089111328125 478.5343322753906 C 150.95074462890625 478.61968994140625 165.7349853515625 478.2718811035156 211.99855041503906 478.4449768066406 C 211.2713165283203 480.1062927246094 211.59674072265625 473.887939453125 219.90736389160156 496.7131042480469" stroke-width="0.0" fill="rgb(25, 58, 76)" opacity="0.99666727" stroke="rgb(189, 134, 97)" stroke-opacity="0.9560563" stroke-linecap="round" stroke-linejoin="round"/>
    <path d="M 77.15519714355469 422.8023376464844 C 76.07136535644531 457.2076721191406 78.99569702148438 466.59161376953125 45.627296447753906 465.5778503417969 C 45.658321380615234 466.5108947753906 45.558135986328125 465.6848449707031 45.580379486083984 433.0908508300781 C 45.6270751953125 411.59564208984375 45.31302261352539 404.1592712402344 46.33320617675781 406.7178649902344 C 81.88108825683594 416.073486328125 81.36771392822266 418.32305908203125 77.15519714355469 422.8023376464844" stroke-width="0.0" fill="rgb(0, 43, 71)" opacity="0.86748695" stroke="rgb(238, 131, 135)" stroke-opacity="0.8224486" stroke-linecap="round" stroke-linejoin="round"/>
    <path d="M 85.6259765625 401.9990539550781 C 93.11906433105469 430.44268798828125 84.6171646118164 438.9815673828125 75.5079574584961 438.0867004394531 C 49.80982971191406 436.5569152832031 48.417606353759766 434.91168212890625 48.92153549194336 404.4823303222656 C 47.182823181152344 385.85064697265625 45.87629699707031 382.6617736816406 75.72451782226562 372.1957092285156 C 70.89435577392578 371.1172790527344 80.50132751464844 385.2442321777344 85.6259765625 401.9990539550781" stroke-width="0.0" fill="rgb(23, 58, 76)" opacity="0.9854122" stroke="rgb(89, 191, 154)" stroke-opacity="0.6685939" stroke-linecap="round" stroke-linejoin="round"/>
    <path d="M 497.1888122558594 164.23138427734375 C 496.4535217285156 193.99154663085938 501.6749572753906 200.976806640625 482.565673828125 204.58995056152344 C 478.0157775878906 203.77108764648438 479.2266540527344 200.3567352294922 479.129150390625 156.97250366210938 C 479.18768310546875 131.64395141601562 479.4578857421875 121.76921844482422 479.2161865234375 104.10346221923828 C 499.1671142578125 144.3983917236328 496.85614013671875 146.667724609375 497.1888122558594 164.23138427734375" stroke-width="0.0" fill="rgb(27, 60, 77)" opacity="0.9966667" stroke="rgb(124, 12, 128)" stroke-opacity="0.3197954" stroke-linecap="round" stroke-linejoin="round"/>
    <path d="M 98.07839965820312 297.57501220703125 C 161.9956512451172 193.9669952392578 122.97248077392578 406.7400817871094 117.94140625 300.6609191894531 C 41.59492492675781 299.72039794921875 45.61294937133789 304.78564453125 45.6922607421875 281.65850830078125 C 45.4125862121582 259.3187561035156 45.83245086669922 251.0919647216797 45.35563278198242 243.54730224609375 C 101.34603118896484 298.5124816894531 80.38639831542969 236.61276245117188 98.07839965820312 297.57501220703125" stroke-width="0.0" fill="rgb(22, 56, 75)" opacity="0.8128327" stroke="rgb(74, 64, 114)" stroke-opacity="0.59246397" stroke-linecap="round" stroke-linejoin="round"/>
    <path d="M 73.88075256347656 337.18267822265625 C 74.05216217041016 362.5779113769531 82.6578140258789 363.3825988769531 52.123085021972656 362.8946838378906 C 45.4921989440918 356.92425537109375 45.81498336791992 349.18218994140625 45.91166305541992 322.9914855957031 C 46.51108932495117 307.85528564453125 44.81550598144531 306.89886474609375 62.35161209106445 301.9483642578125 C 65.39732360839844 306.3401794433594 72.0469741821289 322.79620361328125 73.88075256347656 337.18267822265625" stroke-width="0.0" fill="rgb(24, 58, 76)" opacity="0.9893444" stroke="rgb(113, 249, 186)" stroke-opacity="0.9695514" stroke-linecap="round" stroke-linejoin="round"/>
    <path d="M 88.44389343261719 424.81463623046875 C 87.4357681274414 446.2917175292969 80.7408676147461 467.60498046875 83.15608215332031 466.0748291015625 C 42.75446319580078 466.0237731933594 39.90227508544922 466.6307373046875 51.25470733642578 464.2976989746094 C 60.065162658691406 429.5296936035156 59.70924758911133 425.3478088378906 77.68671417236328 415.71392822265625 C 86.00001525878906 417.3670654296875 84.49958038330078 416.50238037109375 88.44389343261719 424.81463623046875" stroke-width="0.0" fill="rgb(23, 57, 75)" opacity="0.980651" stroke="rgb(58, 4, 160)" stroke-opacity="0.0036254812" stroke-linecap="round" stroke-linejoin="round"/>
    <path d="M 402.05975341796875 440.2296142578125 C 403.4888610839844 468.42919921875 402.46038818359375 462.7987976074219 411.4595947265625 465.4610595703125 C 365.99853515625 465.9908447265625 375.63934326171875 466.17144775390625 374.7553405761719 465.4090881347656 C 374.517578125 427.1564636230469 374.98333740234375 419.33612060546875 376.7267761230469 428.33203125 C 401.7507019042969 429.7127380371094 402.61712646484375 433.0755920410156 402.05975341796875 440.2296142578125" stroke-width="0.0" fill="rgb(0, 27, 54)" opacity="0.7461622" stroke="rgb(13, 144, 76)" stroke-opacity="0.069302864" stroke-linecap="round" stroke-linejoin="round"/>
    <path d="M 29.693784713745117 478.4469299316406 C 99.26962280273438 480.31097412109375 119.43167877197266 472.1162109375 126.58683776855469 497.0358581542969 C 0.06066374108195305 496.6674499511719 15.121419906616211 497.3671569824219 14.621630668640137 497.7721862792969 C 14.511173248291016 459.3987121582031 15.179485321044922 451.33636474609375 15.438323020935059 451.042236328125 C 39.332313537597656 452.6504211425781 31.62009048461914 456.6083679199219 29.693784713745117 478.4469299316406" stroke-width="0.0" fill="rgb(24, 58, 76)" opacity="0.99427515" stroke="rgb(200, 244, 228)" stroke-opacity="0.8265105" stroke-linecap="round" stroke-linejoin="round"/>
    <path d="M 74.17387390136719 400.95416259765625 C 84.28642272949219 403.6167907714844 81.36065673828125 405.08917236328125 45.769081115722656 411.608154296875 C 45.581783294677734 409.1121520996094 45.577476501464844 394.79144287109375 45.6612663269043 332.398681640625 C 53.93686294555664 341.5069274902344 31.678394317626953 339.3720703125 73.71826934814453 336.6935729980469 C 74.90892028808594 342.35308837890625 77.22039794921875 354.3164978027344 74.17387390136719 400.95416259765625" stroke-width="0.0" fill="rgb(24, 58, 76)" opacity="0.985" stroke="rgb(252, 138, 115)" stroke-opacity="0.48975113" stroke-linecap="round" stroke-linejoin="round"/>
    <path d="M 406.9704284667969 462.27587890625 C 435.2178649902344 466.6045837402344 428.0267333984375 465.4960632324219 410.4091796875 465.8277587890625 C 370.0459289550781 465.0242919921875 375.1195983886719 471.0497741699219 375.2937927246094 437.97088623046875 C 377.9281311035156 421.6396484375 364.6786193847656 425.6968994140625 400.63775634765625 424.9879455566406 C 394.5547180175781 338.6689147949219 420.0310363769531 354.02484130859375 406.9704284667969 462.27587890625" stroke-width="0.0" fill="rgb(24, 58, 75)" opacity="0.9835678" stroke="rgb(209, 41, 83)" stroke-opacity="0.7869503" stroke-linecap="round" stroke-linejoin="round"/>
    <path d="M 32.88801956176758 489.114013671875 C 25.49229621887207 470.2550048828125 35.21995162963867 473.8055114746094 14.789480209350586 474.4842834472656 C 14.515812873840332 475.2475280761719 14.943662643432617 471.0777282714844 14.684340476989746 218.29779052734375 C 24.691436767578125 223.62411499023438 -66.84649658203125 172.2156219482422 32.69036102294922 121.34745788574219 C 33.07223129272461 416.9100036621094 32.5396614074707 430.2216796875 32.88801956176758 489.114013671875" stroke-width="0.0" fill="rgb(26, 59, 76)" opacity="1.0" stroke="rgb(250, 216, 79)" stroke-opacity="0.046257496" stroke-linecap="round" stroke-linejoin="round"/>
    <path d="M 13.74382209777832 108.54308319091797 C 14.885273933410645 132.39529418945312 14.633244514465332 146.97093200683594 14.226765632629395 176.77511596679688 C -24.428640365600586 171.4551239013672 -12.37302303314209 153.4281463623047 -4.033474445343018 115.55508422851562 C 5.400894641876221 109.84166717529297 -1.2026360034942627 109.15827178955078 0.5252687335014343 107.53546905517578 C 6.48879337310791 115.2508316040039 14.841645240783691 123.74788665771484 13.74382209777832 108.54308319091797" stroke-width="0.0" fill="rgb(249, 231, 203)" opacity="1.0" stroke="rgb(245, 200, 111)" stroke-opacity="0.69691074" stroke-linecap="round" stroke-linejoin="round"/>
    <path d="M 56.29246139526367 500.0188903808594 C 54.424468994140625 517.4732055664062 48.28420639038086 515.6064453125 37.992801666259766 522.5327758789062 C 15.985124588012695 522.9408569335938 9.34072208404541 526.4352416992188 2.3197343349456787 498.3773193359375 C 10.96194839477539 497.17974853515625 12.983319282531738 498.19122314453125 52.74195098876953 497.4552307128906 C 80.2408676147461 496.98199462890625 63.29275894165039 496.9566345214844 56.29246139526367 500.0188903808594" stroke-width="0.0" fill="rgb(255, 245, 221)" opacity="0.85607684" stroke="rgb(221, 174, 124)" stroke-opacity="0.73599327" stroke-linecap="round" stroke-linejoin="round"/>
    <path d="M 72.1215591430664 4.947550296783447 C 69.29029846191406 12.33717155456543 59.41082000732422 10.687877655029297 65.50720977783203 11.46829891204834 C 41.27180862426758 14.778922080993652 26.374441146850586 13.574626922607422 21.654865264892578 14.098834037780762 C 21.829233169555664 -12.800318717956543 27.215255737304688 -10.982378005981445 60.746089935302734 -9.135478973388672 C 68.57205200195312 -7.501880645751953 69.52254486083984 -5.197386741638184 72.1215591430664 4.947550296783447" stroke-width="0.0" fill="rgb(255, 247, 226)" opacity="0.816424" stroke="rgb(221, 167, 71)" stroke-opacity="0.8270783" stroke-linecap="round" stroke-linejoin="round"/>
    <path d="M 14.39018726348877 227.2906494140625 C 14.487180709838867 256.4495849609375 15.089959144592285 261.5681457519531 6.559623718261719 261.59149169921875 C -13.45060920715332 244.00790405273438 -12.50384521484375 232.98348999023438 -11.219653129577637 213.19784545898438 C -11.560410499572754 180.229736328125 -29.82598876953125 158.40451049804688 14.556035041809082 157.2540740966797 C 14.408756256103516 177.22918701171875 14.456658363342285 186.468994140625 14.39018726348877 227.2906494140625" stroke-width="0.0" fill="rgb(250, 232, 203)" opacity="0.9973253" stroke="rgb(201, 118, 212)" stroke-opacity="0.091810465" stroke-linecap="round" stroke-linejoin="round"/>
    <path d="M 14.171936988830566 451.7667541503906 C 12.023682594299316 447.7884521484375 12.758749008178711 450.1978759765625 4.360353469848633 454.2315673828125 C -1.0120420455932617 447.8719482421875 -5.711964130401611 449.81964111328125 -10.528023719787598 430.90777587890625 C -11.492412567138672 414.68609619140625 -14.26710319519043 405.5407409667969 12.310444831848145 401.1029968261719 C 14.672005653381348 404.857421875 14.500070571899414 412.35015869140625 14.171936988830566 451.7667541503906" stroke-width="0.0" fill="rgb(252, 239, 216)" opacity="1.0" stroke="rgb(36, 177, 6)" stroke-opacity="0.4358875" stroke-linecap="round" stroke-linejoin="round"/>
    <path d="M 66.62425994873047 514.3067016601562 C 67.3049545288086 517.966552734375 66.05559539794922 519.8157958984375 57.94996643066406 520.1967163085938 C 40.631805419921875 521.6871948242188 37.724117279052734 519.8579711914062 35.11316680908203 503.44256591796875 C 38.54055404663086 495.319091796875 45.71331024169922 499.7471923828125 50.71494674682617 499.8184509277344 C 59.70491027832031 498.9808349609375 64.12918853759766 499.2019958496094 66.62425994873047 514.3067016601562" stroke-width="0.0" fill="rgb(249, 229, 200)" opacity="0.8263725" stroke="rgb(102, 66, 238)" stroke-opacity="0.10521743" stroke-linecap="round" stroke-linejoin="round"/>
    <path d="M 33.63841247558594 14.155237197875977 C 2.690089225769043 12.123355865478516 0.38428154587745667 15.741695404052734 3.5363945960998535 27.43743324279785 C -8.464179992675781 27.074209213256836 -8.2503662109375 23.335277557373047 -7.60798978805542 16.256811141967773 C -7.7613935470581055 -2.9752862453460693 -6.605072021484375 -5.7590413093566895 4.274904251098633 -9.412911415100098 C 29.676441192626953 -12.875706672668457 35.40744400024414 -12.579233169555664 33.63841247558594 14.155237197875977" stroke-width="0.0" fill="rgb(251, 234, 206)" opacity="0.9414453" stroke="rgb(151, 156, 132)" stroke-opacity="0.45128968" stroke-linecap="round" stroke-linejoin="round"/>
    <path d="M 14.712738037109375 27.152822494506836 C 14.699559211730957 57.63783645629883 14.958314895629883 65.9732894897461 14.086400985717773 58.89189910888672 C -7.226609230041504 55.02866744995117 -6.764376640319824 54.834922790527344 -9.185761451721191 42.881309509277344 C -3.9616594314575195 34.601924896240234 -3.091484785079956 32.663326263427734 -2.4648149013519287 29.474552154541016 C 7.475864410400391 34.950439453125 13.30197525024414 38.66507339477539 14.712738037109375 27.152822494506836" stroke-width="0.0" fill="rgb(99, 162, 218)" opacity="0.49267408" stroke="rgb(134, 28, 129)" stroke-opacity="0.08250021" stroke-linecap="round" stroke-linejoin="round"/>
    <path d="M 14.261337280273438 51.4614143371582 C 15.057642936706543 87.55900573730469 14.668493270874023 91.52183532714844 10.328585624694824 98.00911712646484 C -15.806806564331055 94.64906311035156 -13.994510650634766 87.76251983642578 -10.3872709274292 63.232093811035156 C -8.020406723022461 49.265377044677734 -4.895115852355957 49.30411911010742 4.544750690460205 38.91193771362305 C 17.048311233520508 35.68513107299805 13.157644271850586 41.43368911743164 14.261337280273438 51.4614143371582" stroke-width="0.0" fill="rgb(251, 234, 206)" opacity="0.966996" stroke="rgb(183, 236, 160)" stroke-opacity="0.015766667" stroke-linecap="round" stroke-linejoin="round"/>
    <path d="M 14.417817115783691 494.6087646484375 C 14.57523250579834 503.2303161621094 17.9549617767334 507.9469909667969 11.931467056274414 523.0587158203125 C -21.40481185913086 519.6097412109375 -12.14125919342041 508.59759521484375 -7.8468217849731445 487.24853515625 C -8.260049819946289 463.0599060058594 -6.847478866577148 462.02587890625 -0.6381328105926514 460.92376708984375 C 17.849456787109375 457.2579650878906 13.732674598693848 459.1755676269531 14.417817115783691 494.6087646484375" stroke-width="0.0" fill="rgb(249, 231, 202)" opacity="1.0" stroke="rgb(27, 172, 222)" stroke-opacity="0.5200247" stroke-linecap="round" stroke-linejoin="round"/>
    <path d="M 14.462569236755371 332.1694030761719 C 14.680685043334961 347.3899230957031 13.381928443908691 344.8516845703125 12.807493209838867 341.61077880859375 C -15.344514846801758 338.5595397949219 -13.265698432922363 333.7485046386719 -8.852664947509766 320.59503173828125 C -12.682650566101074 306.4967041015625 -14.076973915100098 301.2388610839844 8.514876365661621 294.7404479980469 C 15.776642799377441 296.1137390136719 14.310408592224121 294.1886901855469 14.462569236755371 332.1694030761719" stroke-width="0.0" fill="rgb(253, 238, 212)" opacity="0.94962525" stroke="rgb(159, 178, 246)" stroke-opacity="0.34045088" stroke-linecap="round" stroke-linejoin="round"/>
    <path d="M 13.073331832885742 327.0766296386719 C 12.352659225463867 352.18450927734375 13.325385093688965 353.60595703125 0.07323741912841797 355.5389709472656 C -4.885621070861816 356.14715576171875 -8.199864387512207 355.7530517578125 -9.5235595703125 345.81329345703125 C -10.024866104125977 323.97222900390625 -8.4088134765625 322.9450378417969 3.3143227100372314 319.2627868652344 C 17.060592651367188 320.1809997558594 12.123886108398438 324.42169189453125 13.073331832885742 327.0766296386719" stroke-width="0.0" fill="rgb(249, 230, 200)" opacity="0.98414314" stroke="rgb(117, 254, 180)" stroke-opacity="0.22638157" stroke-linecap="round" stroke-linejoin="round"/>
    <path d="M 14.25877571105957 33.48276901245117 C 13.291715621948242 48.59014892578125 16.458091735839844 46.47862243652344 6.205270767211914 47.08618927001953 C -4.817431449890137 42.7725715637207 -11.659947395324707 43.69544982910156 -10.115153312683105 26.495849609375 C -7.002436637878418 13.329190254211426 -5.363008499145508 12.482352256774902 9.913679122924805 8.506028175354004 C 14.494953155517578 6.852047443389893 15.288847923278809 2.7755894660949707 14.25877571105957 33.48276901245117" stroke-width="0.0" fill="rgb(250, 233, 204)" opacity="0.98202914" stroke="rgb(125, 46, 212)" stroke-opacity="0.50928974" stroke-linecap="round" stroke-linejoin="round"/>
    <path d="M 14.425385475158691 368.9515380859375 C 11.553141593933105 364.95166015625 13.3400239944458 366.93243408203125 13.607575416564941 377.5794372558594 C -10.84399127960205 375.7977600097656 -9.971004486083984 371.7508544921875 -9.737333297729492 358.5638427734375 C -8.144548416137695 337.5342712402344 -5.2579169273376465 338.1875 12.960334777832031 339.4042053222656 C 14.522880554199219 323.0185852050781 14.662195205688477 340.84234619140625 14.425385475158691 368.9515380859375" stroke-width="0.0" fill="rgb(249, 231, 203)" opacity="0.9991105" stroke="rgb(212, 64, 97)" stroke-opacity="0.5101058" stroke-linecap="round" stroke-linejoin="round"/>
    <path d="M 14.637661933898926 394.921630859375 C 13.542365074157715 390.13092041015625 15.129326820373535 402.73333740234375 13.694518089294434 423.2664794921875 C -19.554269790649414 418.2237854003906 -11.974594116210938 405.66082763671875 -7.989830017089844 387.1549987792969 C -9.649860382080078 361.93463134765625 -7.454916954040527 359.30682373046875 12.86841106414795 354.60894775390625 C 14.363897323608398 351.8208312988281 13.864513397216797 355.9377136230469 14.637661933898926 394.921630859375" stroke-width="0.0" fill="rgb(249, 231, 203)" opacity="1.0" stroke="rgb(196, 164, 156)" stroke-opacity="0.13270812" stroke-linecap="round" stroke-linejoin="round"/>
    <path d="M 320.5504150390625 31.858610153198242 C 198.1519775390625 33.88507843017578 207.85552978515625 20.880895614624023 216.78659057617188 14.777706146240234 C 202.61106872558594 9.485196113586426 202.31851196289062 8.842361450195312 194.5124969482422 0.08809687197208405 C 192.74822998046875 -5.423065662384033 194.9513702392578 -7.615617275238037 214.35520935058594 -7.130039691925049 C 250.427978515625 -24.234909057617188 295.6275939941406 -74.3561782836914 320.5504150390625 31.858610153198242" stroke-width="0.0" fill="rgb(24, 61, 76)" opacity="0.9867552" stroke="rgb(19, 30, 65)" stroke-opacity="0.078301966" stroke-linecap="round" stroke-linejoin="round"/>
    <path d="M 14.534445762634277 93.39274597167969 C 13.905036926269531 138.63369750976562 15.42882251739502 137.0423126220703 9.028678894042969 129.820068359375 C -9.130284309387207 126.51826477050781 -9.760173797607422 124.97532653808594 -9.330449104309082 101.58848571777344 C -9.3920259475708 94.90660095214844 -8.334474563598633 90.16034698486328 0.675284743309021 81.2396469116211 C 17.309614181518555 76.69256591796875 14.558636665344238 71.68466186523438 14.534445762634277 93.39274597167969" stroke-width="0.0" fill="rgb(248, 232, 204)" opacity="0.98715293" stroke="rgb(92, 109, 209)" stroke-opacity="0.7855058" stroke-linecap="round" stroke-linejoin="round"/>
    <path d="M 13.106484413146973 436.0749816894531 C 12.969155311584473 457.1930847167969 12.550944328308105 464.0622863769531 9.559213638305664 463.1478576660156 C -4.101718425750732 462.16845703125 -6.141855239868164 460.20758056640625 -7.830990791320801 442.68951416015625 C -1.25442373752594 438.6446838378906 -5.952029228210449 427.6488037109375 12.443306922912598 414.9984130859375 C 13.790949821472168 427.3359069824219 13.133460998535156 431.30511474609375 13.106484413146973 436.0749816894531" stroke-width="0.0" fill="rgb(249, 230, 201)" opacity="0.99279547" stroke="rgb(132, 213, 125)" stroke-opacity="0.5243238" stroke-linecap="round" stroke-linejoin="round"/>
    <path d="M 14.46297550201416 439.5404357910156 C 14.142294883728027 477.14605712890625 14.880414009094238 480.5040283203125 12.411995887756348 480.0419006347656 C -10.631388664245605 479.9891357421875 -11.152461051940918 478.76953125 -8.56894588470459 461.93218994140625 C -3.919495105743408 451.0973815917969 -2.877213954925537 448.6552429199219 -1.3934917449951172 445.07916259765625 C 14.144983291625977 448.83709716796875 12.239656448364258 452.7783203125 14.46297550201416 439.5404357910156" stroke-width="0.0" fill="rgb(250, 231, 203)" opacity="1.0" stroke="rgb(179, 134, 214)" stroke-opacity="0.9505376" stroke-linecap="round" stroke-linejoin="round"/>
    <path d="M 158.14620971679688 509.79986572265625 C 158.62338256835938 518.3860473632812 155.36712646484375 521.923828125 132.01171875 521.3558959960938 C 107.78242492675781 524.80712890625 97.10003662109375 537.8134765625 94.26981353759766 497.5701599121094 C 107.22200775146484 497.3953552246094 130.4897918701172 497.2904357910156 152.98681640625 497.2380676269531 C 148.9889373779297 497.808837890625 152.46998596191406 496.9491271972656 158.14620971679688 509.79986572265625" stroke-width="0.0" fill="rgb(255, 251, 231)" opacity="0.78847253" stroke="rgb(174, 57, 173)" stroke-opacity="0.012561596" stroke-linecap="round" stroke-linejoin="round"/>
    <path d="M 217.9528350830078 520.5891723632812 C 218.8948516845703 520.8446655273438 216.31207275390625 522.1138916015625 199.40374755859375 521.7119140625 C 183.54879760742188 521.3175659179688 179.81832885742188 521.6797485351562 174.35227966308594 501.9258117675781 C 173.52442932128906 497.515869140625 181.15182495117188 496.97784423828125 209.4119873046875 497.4217224121094 C 205.18475341796875 499.71728515625 209.65589904785156 504.4128723144531 217.9528350830078 520.5891723632812" stroke-width="0.0" fill="rgb(255, 243, 217)" opacity="0.85669446" stroke="rgb(33, 14, 246)" stroke-opacity="0.33419997" stroke-linecap="round" stroke-linejoin="round"/>
    <path d="M 177.38133239746094 517.1541748046875 C 177.77520751953125 519.9421997070312 175.4603271484375 520.5203247070312 169.16595458984375 519.7584228515625 C 150.97259521484375 518.6548461914062 147.86117553710938 517.80419921875 139.1741485595703 510.8680725097656 C 138.20018005371094 494.93865966796875 138.42559814453125 498.5779113769531 179.5515899658203 497.8543701171875 C 177.38565063476562 499.6700439453125 181.03297424316406 497.4993591308594 177.38133239746094 517.1541748046875" stroke-width="0.0" fill="rgb(251, 231, 201)" opacity="0.99419725" stroke="rgb(189, 14, 108)" stroke-opacity="0.0665369" stroke-linecap="round" stroke-linejoin="round"/>
    <path d="M 110.12451171875 511.5816650390625 C 94.25601196289062 524.92919921875 84.79866027832031 518.893798828125 64.3122329711914 518.4669189453125 C 60.773826599121094 520.4585571289062 59.18832778930664 519.2720947265625 60.3212890625 515.9429931640625 C 59.58734130859375 498.11871337890625 60.42721176147461 501.73089599609375 58.345523834228516 497.3269958496094 C 107.89445495605469 497.29766845703125 114.00274658203125 495.83233642578125 110.12451171875 511.5816650390625" stroke-width="0.0" fill="rgb(250, 234, 206)" opacity="0.94707286" stroke="rgb(152, 61, 123)" stroke-opacity="0.22967967" stroke-linecap="round" stroke-linejoin="round"/>
    <path d="M 355.6638488769531 -3.2504501342773438 C 348.1211242675781 16.522981643676758 348.0336608886719 13.289632797241211 297.9468078613281 12.975689888000488 C 297.5853576660156 13.60263729095459 292.8307189941406 10.738927841186523 290.784912109375 7.023879528045654 C 293.87890625 -16.568138122558594 297.6761779785156 -15.913983345031738 311.984619140625 -17.279052734375 C 330.2808532714844 -8.922006607055664 343.45367431640625 -20.341575622558594 355.6638488769531 -3.2504501342773438" stroke-width="0.0" fill="rgb(245, 227, 199)" opacity="1.0" stroke="rgb(214, 214, 153)" stroke-opacity="0.9200071" stroke-linecap="round" stroke-linejoin="round"/>
    <path d="M 194.9751434326172 32.62422180175781 C 275.9941101074219 27.662479400634766 280.10894775390625 46.792938232421875 237.65020751953125 -3.420844554901123 C 62.173648834228516 11.2191162109375 63.796321868896484 11.11173152923584 68.37968444824219 11.29366683959961 C 65.52734375 -4.9965972900390625 52.124202728271484 -19.752744674682617 15.236095428466797 15.468300819396973 C 13.390427589416504 45.4727897644043 -2.221892833709717 27.910558700561523 194.9751434326172 32.62422180175781" stroke-width="0.0" fill="rgb(18, 54, 75)" opacity="0.925299" stroke="rgb(169, 47, 76)" stroke-opacity="0.67174345" stroke-linecap="round" stroke-linejoin="round"/>
    <path d="M 249.95037841796875 13.175332069396973 C 230.8284912109375 13.556341171264648 219.90057373046875 14.296402931213379 177.9111328125 12.907402038574219 C 183.5760498046875 12.749542236328125 183.93458557128906 12.644585609436035 135.2700958251953 12.439180374145508 C 144.0770721435547 -37.90251922607422 168.55271911621094 -11.454200744628906 198.04275512695312 -8.975345611572266 C 212.9717254638672 -4.701567649841309 246.93182373046875 -17.980058670043945 249.95037841796875 13.175332069396973" stroke-width="0.0" fill="rgb(243, 224, 197)" opacity="0.9870054" stroke="rgb(98, 235, 0)" stroke-opacity="0.74960256" stroke-linecap="round" stroke-linejoin="round"/>
    <path d="M 14.474656105041504 289.37078857421875 C 14.47668743133545 316.33587646484375 15.30307388305664 315.5459899902344 8.639819145202637 316.7036437988281 C -9.017926216125488 310.8216552734375 -10.143610954284668 307.8534851074219 -9.828398704528809 297.6094055175781 C -11.187692642211914 264.511474609375 -23.52496337890625 245.97984313964844 14.227630615234375 237.54933166503906 C 14.119202613830566 250.53443908691406 14.372416496276855 263.56439208984375 14.474656105041504 289.37078857421875" stroke-width="0.0" fill="rgb(249, 231, 202)" opacity="1.0" stroke="rgb(196, 111, 185)" stroke-opacity="0.55139905" stroke-linecap="round" stroke-linejoin="round"/>
    <path d="M 75.14373016357422 505.5828857421875 C 73.8689956665039 517.1289672851562 73.26699829101562 520.2044677734375 66.22454833984375 518.8131103515625 C 53.56425094604492 514.0648803710938 51.01486587524414 512.8814697265625 41.217369079589844 501.2934875488281 C 43.22925567626953 499.62554931640625 46.19519805908203 500.858642578125 54.438289642333984 498.4496765136719 C 81.32992553710938 497.4947814941406 83.58131408691406 497.3205871582031 75.14373016357422 505.5828857421875" stroke-width="0.0" fill="rgb(250, 231, 203)" opacity="0.8914097" stroke="rgb(246, 70, 226)" stroke-opacity="0.41283277" stroke-linecap="round" stroke-linejoin="round"/>
    <path d="M 196.99855041503906 512.5680541992188 C 191.47508239746094 520.6542358398438 187.99407958984375 520.97802734375 177.45509338378906 521.0089721679688 C 161.46080017089844 517.8009033203125 160.17405700683594 515.2921142578125 157.6122283935547 499.9029235839844 C 146.72427368164062 497.15252685546875 141.2943878173828 496.8688659667969 186.27993774414062 497.1437683105469 C 194.29212951660156 498.3121032714844 196.61953735351562 496.6938781738281 196.99855041503906 512.5680541992188" stroke-width="0.0" fill="rgb(243, 232, 213)" opacity="0.3776249" stroke="rgb(241, 45, 4)" stroke-opacity="0.5805758" stroke-linecap="round" stroke-linejoin="round"/>
    <path d="M 310.24755859375 9.458934783935547 C 315.0580749511719 13.88017749786377 313.8146057128906 12.773489952087402 283.4029846191406 12.669384002685547 C 234.23565673828125 11.96446704864502 232.54368591308594 13.599310874938965 243.33367919921875 -5.526837348937988 C 274.9715576171875 -9.150856018066406 281.5827331542969 -8.18855094909668 288.7373352050781 -8.748703002929688 C 302.4198913574219 -11.298501968383789 307.659423828125 -11.752671241760254 310.24755859375 9.458934783935547" stroke-width="0.0" fill="rgb(245, 227, 199)" opacity="1.0" stroke="rgb(21, 146, 199)" stroke-opacity="0.516822" stroke-linecap="round" stroke-linejoin="round"/>
    <path d="M 155.01524353027344 9.522469520568848 C 150.24916076660156 15.51486587524414 130.79002380371094 11.569217681884766 74.87866973876953 12.612488746643066 C 82.7181396484375 8.97562313079834 79.77037811279297 11.226131439208984 76.33749389648438 2.431788444519043 C 83.20055389404297 -6.085586071014404 86.76341247558594 -6.208080291748047 98.62008666992188 -15.963733673095703 C 115.56597137451172 -13.70841121673584 143.4263153076172 -41.22477722167969 155.01524353027344 9.522469520568848" stroke-width="0.0" fill="rgb(249, 230, 199)" opacity="1.0" stroke="rgb(191, 185, 7)" stroke-opacity="0.50969565" stroke-linecap="round" stroke-linejoin="round"/>
    <path d="M 86.33158111572266 8.542183876037598 C 90.07976531982422 13.744349479675293 90.28349304199219 14.237886428833008 78.96752166748047 12.995122909545898 C 32.86076736450195 11.080445289611816 6.930778503417969 17.342226028442383 13.40992259979248 9.450870513916016 C 53.37089157104492 -8.181380271911621 57.155357360839844 -8.775860786437988 72.73007202148438 -8.396644592285156 C 81.1531982421875 -6.386379718780518 79.42597961425781 4.248082160949707 86.33158111572266 8.542183876037598" stroke-width="0.0" fill="rgb(250, 232, 202)" opacity="0.9951206" stroke="rgb(58, 67, 51)" stroke-opacity="0.42774814" stroke-linecap="round" stroke-linejoin="round"/>
  </g>
</svg>
