<?xml version="1.0" ?>
<svg xmlns="http://www.w3.org/2000/svg" version="1.1" width="512" height="512">
  <defs/>
  <g>
    <path d="M 497.22320556640625 396.5566711425781 C 495.8617248535156 409.4978332519531 499.7787780761719 420.89715576171875 493.9914855957031 425.1506652832031 C 479.49774169921875 419.3435363769531 480.57623291015625 413.0946044921875 479.4091491699219 387.1777648925781 C 478.8575134277344 375.7010192871094 478.9922180175781 372.6163024902344 479.11895751953125 343.357666015625 C 499.9639587402344 361.1365661621094 497.9014892578125 374.4819030761719 497.22320556640625 396.5566711425781" stroke-width="0.0" fill="rgb(78, 73, 64)" opacity="0.698561" stroke="rgb(222, 204, 67)" stroke-opacity="0.7145846" stroke-linecap="round" stroke-linejoin="round"/>
    <path d="M 497.860595703125 467.8332824707031 C 491.4828186035156 461.6537780761719 524.853759765625 490.77874755859375 480.17291259765625 489.9789733886719 C 478.947998046875 429.7887878417969 479.5963134765625 413.41387939453125 479.3172912597656 387.9029846191406 C 480.6367492675781 315.078125 472.75799560546875 277.8085632324219 497.3502502441406 263.4701232910156 C 497.35894775390625 351.61328125 497.51605224609375 364.8444519042969 497.860595703125 467.8332824707031" stroke-width="0.0" fill="rgb(16, 54, 76)" opacity="0.92766035" stroke="rgb(123, 160, 171)" stroke-opacity="0.4398993" stroke-linecap="round" stroke-linejoin="round"/>
    <path d="M 497.5819091796875 82.3054428100586 C 494.571044921875 147.53213500976562 511.88104248046875 164.04934692382812 482.1340637207031 149.45077514648438 C 469.42413330078125 -8.84029483795166 507.9414978027344 43.0167350769043 413.8448181152344 30.364093780517578 C 355.9493713378906 16.812776565551758 351.775634765625 6.343705654144287 464.7799072265625 12.506053924560547 C 507.65924072265625 9.511944770812988 495.62640380859375 -11.401473045349121 497.5819091796875 82.3054428100586" stroke-width="0.0" fill="rgb(3, 46, 73)" opacity="0.8809096" stroke="rgb(249, 18, 234)" stroke-opacity="0.3720794" stroke-linecap="round" stroke-linejoin="round"/>
    <path d="M 519.69287109375 431.9634704589844 C 526.8268432617188 470.69305419921875 563.7507934570312 512.2235107421875 497.4883117675781 523.734619140625 C 497.02886962890625 469.7256774902344 498.70928955078125 470.0975646972656 497.9118957519531 441.1575622558594 C 497.91534423828125 434.8870849609375 497.95440673828125 420.8985900878906 497.72015380859375 308.1885681152344 C 589.7723999023438 344.59033203125 525.2959594726562 412.0507507324219 519.69287109375 431.9634704589844" stroke-width="0.0" fill="rgb(251, 233, 205)" opacity="0.95980775" stroke="rgb(65, 71, 73)" stroke-opacity="0.51379424" stroke-linecap="round" stroke-linejoin="round"/>
    <path d="M 534.9947509765625 212.5603790283203 C 517.0440673828125 233.4420928955078 520.39111328125 250.1473388671875 497.9136047363281 246.09693908691406 C 501.994873046875 211.01776123046875 527.4992065429688 223.4471435546875 479.68963623046875 290.64727783203125 C 478.14764404296875 184.3450469970703 479.75579833984375 216.77908325195312 478.8749694824219 195.66329956054688 C 493.22259521484375 186.275146484375 507.6074523925781 187.74440002441406 534.9947509765625 212.5603790283203" stroke-width="0.0" fill="rgb(26, 59, 76)" opacity="0.9900284" stroke="rgb(118, 27, 234)" stroke-opacity="0.101909176" stroke-linecap="round" stroke-linejoin="round"/>
    <path d="M 523.8966064453125 286.4652099609375 C 514.9708251953125 294.77618408203125 528.2973022460938 308.2530212402344 513.5008544921875 324.42535400390625 C 495.1182556152344 320.6744384765625 498.0765075683594 333.86126708984375 497.59375 265.9912109375 C 497.91815185546875 201.8520965576172 494.22064208984375 207.71434020996094 515.9932250976562 228.01087951660156 C 526.0482788085938 257.3977355957031 521.2474365234375 265.7208557128906 523.8966064453125 286.4652099609375" stroke-width="0.0" fill="rgb(250, 231, 202)" opacity="1.0" stroke="rgb(206, 222, 73)" stroke-opacity="0.70751214" stroke-linecap="round" stroke-linejoin="round"/>
    <path d="M 519.9277954101562 28.484859466552734 C 528.0838623046875 75.7408676147461 623.2182006835938 173.34939575195312 497.51287841796875 225.58547973632812 C 497.2915954589844 99.34134674072266 497.5860900878906 97.78630065917969 497.9153137207031 13.100703239440918 C 484.3994140625 13.184942245483398 365.6631164550781 12.907376289367676 331.0981750488281 13.67783260345459 C 492.3597717285156 -95.04338836669922 525.0890502929688 0.18956826627254486 519.9277954101562 28.484859466552734" stroke-width="0.0" fill="rgb(250, 232, 204)" opacity="0.9754195" stroke="rgb(42, 84, 168)" stroke-opacity="0.926123" stroke-linecap="round" stroke-linejoin="round"/>
    <path d="M 120.67696380615234 118.82417297363281 C 82.50668334960938 150.2963409423828 103.71867370605469 186.9315185546875 92.7967529296875 191.7735137939453 C 41.36994552612305 187.5900115966797 44.73811340332031 181.3640594482422 45.1129264831543 137.27146911621094 C 45.3765869140625 116.10786437988281 43.265708923339844 117.17520141601562 55.42443084716797 119.49296569824219 C 90.15550994873047 122.94249725341797 104.47259521484375 119.82502746582031 120.67696380615234 118.82417297363281" stroke-width="0.0" fill="rgb(252, 237, 212)" opacity="0.8625902" stroke="rgb(75, 66, 26)" stroke-opacity="0.938972" stroke-linecap="round" stroke-linejoin="round"/>
    <path d="M 192.1007537841797 167.09169006347656 C 163.54013061523438 239.13278198242188 201.01812744140625 214.08770751953125 184.971435546875 222.76776123046875 C 104.68849182128906 220.96812438964844 150.7118682861328 234.04820251464844 113.7738265991211 164.52525329589844 C 11.784086227416992 18.399513244628906 -4.507469654083252 48.276580810546875 235.4925537109375 43.98027801513672 C 228.0672607421875 108.46078491210938 216.4159698486328 125.08010864257812 192.1007537841797 167.09169006347656" stroke-width="0.0" fill="rgb(12, 155, 233)" opacity="0.6965328" stroke="rgb(217, 144, 188)" stroke-opacity="0.72129565" stroke-linecap="round" stroke-linejoin="round"/>
    <path d="M 466.9820251464844 292.9139099121094 C 466.4962158203125 322.3799743652344 468.61077880859375 313.5287780761719 462.1009826660156 315.0491943359375 C 417.0833435058594 313.77490234375 428.77313232421875 317.8682861328125 426.97210693359375 304.7673034667969 C 428.30487060546875 268.7145080566406 422.0318908691406 281.33416748046875 443.9193115234375 280.04644775390625 C 454.1700439453125 283.6434631347656 428.3979797363281 295.91845703125 466.9820251464844 292.9139099121094" stroke-width="0.0" fill="rgb(255, 244, 218)" opacity="0.83814466" stroke="rgb(67, 139, 50)" stroke-opacity="0.6613053" stroke-linecap="round" stroke-linejoin="round"/>
    <path d="M 95.85104370117188 192.1378173828125 C 94.76063537597656 248.9777069091797 104.4996109008789 248.19541931152344 46.042606353759766 242.53834533691406 C 28.59516143798828 258.3570251464844 34.581302642822266 270.3164978027344 32.9384880065918 106.97395324707031 C 64.2939682006836 155.35520935058594 22.76475715637207 193.5296630859375 95.83197784423828 186.29078674316406 C 94.19943237304688 158.62489318847656 98.28114318847656 136.05880737304688 95.85104370117188 192.1378173828125" stroke-width="0.0" fill="rgb(255, 174, 97)" opacity="0.7906048" stroke="rgb(130, 71, 76)" stroke-opacity="0.023185799" stroke-linecap="round" stroke-linejoin="round"/>
    <path d="M 202.3273162841797 148.55804443359375 C 149.2314910888672 238.94955444335938 231.98947143554688 207.4930419921875 115.46858978271484 225.49887084960938 C 116.27456665039062 241.37734985351562 96.03672790527344 234.0013427734375 100.02477264404297 233.96328735351562 C 103.85990905761719 119.7649154663086 95.7098159790039 128.04161071777344 112.98502349853516 149.7633819580078 C 132.57215881347656 194.19244384765625 119.64556884765625 108.99823760986328 202.3273162841797 148.55804443359375" stroke-width="0.0" fill="rgb(255, 224, 180)" opacity="0.91283345" stroke="rgb(54, 212, 137)" stroke-opacity="0.8375441" stroke-linecap="round" stroke-linejoin="round"/>
    <path d="M 93.1385726928711 108.02156829833984 C 100.98139190673828 138.5716094970703 103.3076400756836 137.2496337890625 73.74315643310547 137.7310333251953 C 40.897220611572266 137.9888916015625 45.59092712402344 137.0711212158203 45.071502685546875 102.49500274658203 C 45.349273681640625 76.99675750732422 43.658836364746094 87.62235260009766 52.02399826049805 86.24586486816406 C 68.74021911621094 88.37449645996094 84.86992645263672 92.23783111572266 93.1385726928711 108.02156829833984" stroke-width="0.0" fill="rgb(252, 234, 206)" opacity="0.92078316" stroke="rgb(173, 246, 172)" stroke-opacity="0.4619184" stroke-linecap="round" stroke-linejoin="round"/>
    <path d="M 304.042236328125 144.8831329345703 C 222.02345275878906 75.01416778564453 222.49691772460938 196.3841094970703 219.8720703125 186.8257598876953 C 182.11598205566406 192.67626953125 169.801025390625 212.23829650878906 208.2746124267578 138.12164306640625 C 184.04833984375 135.97727966308594 115.68424987792969 157.3070831298828 138.05319213867188 59.36494445800781 C 521.43359375 -3.39534330368042 456.4677734375 163.94810485839844 304.042236328125 144.8831329345703" stroke-width="0.0" fill="rgb(34, 115, 153)" opacity="0.84898776" stroke="rgb(3, 61, 178)" stroke-opacity="0.49424335" stroke-linecap="round" stroke-linejoin="round"/>
    <path d="M 499.5430908203125 496.3064270019531 C 498.5895080566406 546.9841918945312 481.9566650390625 533.7100830078125 431.35479736328125 525.1707153320312 C 369.3648681640625 557.8828735351562 285.3722839355469 682.4874267578125 205.3395233154297 497.1933288574219 C 413.3244323730469 497.19769287109375 425.0473327636719 496.639892578125 465.0888977050781 496.7860412597656 C 468.5418701171875 495.0469970703125 477.0721435546875 496.8835754394531 499.5430908203125 496.3064270019531" stroke-width="0.0" fill="rgb(255, 242, 218)" opacity="0.85901994" stroke="rgb(124, 85, 221)" stroke-opacity="0.39456794" stroke-linecap="round" stroke-linejoin="round"/>
    <path d="M 63.50435256958008 309.6211853027344 C 72.5107650756836 331.57684326171875 70.75296783447266 328.7909240722656 53.381107330322266 337.6073913574219 C 46.0919189453125 337.58929443359375 45.936981201171875 334.31695556640625 45.67820739746094 338.95538330078125 C 45.50136184692383 289.1322937011719 45.69621658325195 281.6582946777344 45.496315002441406 234.78321838378906 C 66.97456359863281 292.9044494628906 60.227867126464844 304.59088134765625 63.50435256958008 309.6211853027344" stroke-width="0.0" fill="rgb(0, 42, 71)" opacity="0.8542074" stroke="rgb(65, 157, 75)" stroke-opacity="0.9517905" stroke-linecap="round" stroke-linejoin="round"/>
    <path d="M 466.6397705078125 465.4599304199219 C 463.1440734863281 465.7634582519531 477.3000183105469 466.7021789550781 443.992919921875 465.21337890625 C 426.5711975097656 463.94482421875 426.6189880371094 463.0621337890625 442.88934326171875 460.51812744140625 C 445.3058776855469 434.3017578125 429.6128234863281 368.2703857421875 466.5762634277344 353.87457275390625 C 466.7124938964844 356.029541015625 466.65277099609375 385.1710510253906 466.6397705078125 465.4599304199219" stroke-width="0.0" fill="rgb(25, 59, 76)" opacity="0.9999993" stroke="rgb(185, 90, 17)" stroke-opacity="0.79977995" stroke-linecap="round" stroke-linejoin="round"/>
    <path d="M 452.8560485839844 465.69342041015625 C 458.4017028808594 465.7884826660156 454.1519470214844 465.75799560546875 426.4370422363281 465.74884033203125 C 402.7276611328125 465.8381652832031 401.381591796875 465.76513671875 396.1068115234375 430.5441589355469 C 392.9298400878906 423.3431091308594 399.22027587890625 425.4532470703125 452.6619873046875 424.9361267089844 C 449.8285217285156 419.9573669433594 451.0491943359375 418.0423583984375 452.8560485839844 465.69342041015625" stroke-width="0.0" fill="rgb(25, 59, 76)" opacity="1.0" stroke="rgb(247, 215, 22)" stroke-opacity="0.029643705" stroke-linecap="round" stroke-linejoin="round"/>
    <path d="M 426.2220458984375 496.6543273925781 C 247.01565551757812 497.0699768066406 230.82321166992188 496.80352783203125 186.7041473388672 497.02801513671875 C 196.7477264404297 491.28485107421875 192.92666625976562 496.2342224121094 187.66348266601562 478.4852294921875 C 187.5897674560547 478.4860534667969 192.2396697998047 478.34417724609375 466.143310546875 478.1800537109375 C 467.0676574707031 504.7110900878906 469.7813415527344 494.4085693359375 426.2220458984375 496.6543273925781" stroke-width="0.0" fill="rgb(26, 59, 77)" opacity="1.0" stroke="rgb(105, 18, 33)" stroke-opacity="0.387256" stroke-linecap="round" stroke-linejoin="round"/>
    <path d="M 219.8141326904297 494.31866455078125 C 220.03285217285156 495.9940490722656 210.95330810546875 498.36248779296875 111.86324310302734 496.69183349609375 C 107.58401489257812 494.82373046875 95.89917755126953 502.9642333984375 98.08881378173828 478.5168762207031 C 150.97616577148438 478.606201171875 165.8180694580078 478.3213195800781 212.1396484375 478.47442626953125 C 211.41029357910156 480.05145263671875 211.74842834472656 473.73919677734375 219.8141326904297 494.31866455078125" stroke-width="0.0" fill="rgb(25, 58, 76)" opacity="0.9977722" stroke="rgb(189, 134, 97)" stroke-opacity="0.9560563" stroke-linecap="round" stroke-linejoin="round"/>
    <path d="M 77.19391632080078 422.84307861328125 C 76.2070083618164 457.3128662109375 79.09197998046875 466.8392639160156 45.68193435668945 465.9148864746094 C 45.59496307373047 466.6873474121094 45.47987365722656 465.880859375 45.55686950683594 433.06549072265625 C 45.653507232666016 411.36102294921875 45.4033317565918 403.9522705078125 46.205039978027344 406.5926208496094 C 81.87540435791016 416.0804748535156 81.36771392822266 418.32305908203125 77.19391632080078 422.84307861328125" stroke-width="0.0" fill="rgb(0, 43, 72)" opacity="0.8717519" stroke="rgb(238, 131, 135)" stroke-opacity="0.8224486" stroke-linecap="round" stroke-linejoin="round"/>
    <path d="M 85.98924255371094 403.5544738769531 C 94.42467498779297 426.7219543457031 83.34521484375 438.304443359375 74.04936981201172 438.05035400390625 C 49.84476852416992 436.5540771484375 48.407875061035156 434.89654541015625 48.94126510620117 404.3663330078125 C 47.19990539550781 385.79205322265625 45.850669860839844 382.58941650390625 75.97688293457031 371.74932861328125 C 70.38861083984375 371.4865417480469 81.14122009277344 385.2925109863281 85.98924255371094 403.5544738769531" stroke-width="0.0" fill="rgb(22, 57, 76)" opacity="0.9844398" stroke="rgb(89, 191, 154)" stroke-opacity="0.6685939" stroke-linecap="round" stroke-linejoin="round"/>
    <path d="M 497.2578125 164.21060180664062 C 496.33355712890625 194.82928466796875 501.85003662109375 201.16439819335938 481.829833984375 204.67904663085938 C 478.51055908203125 203.9170684814453 479.20233154296875 200.741455078125 479.1690979003906 156.76052856445312 C 479.21484375 131.49700927734375 479.2983703613281 121.69436645507812 479.2235107421875 100.00700378417969 C 499.0767822265625 144.29244995117188 496.7004089355469 146.65505981445312 497.2578125 164.21060180664062" stroke-width="0.0" fill="rgb(27, 60, 77)" opacity="0.99571747" stroke="rgb(124, 12, 128)" stroke-opacity="0.3197954" stroke-linecap="round" stroke-linejoin="round"/>
    <path d="M 99.19012451171875 296.1606140136719 C 163.77810668945312 190.63763427734375 119.74382019042969 426.0960693359375 118.356201171875 300.8180847167969 C 40.77753829956055 299.3576354980469 45.70496368408203 305.2958679199219 45.70938491821289 283.5740661621094 C 45.258941650390625 257.6627502441406 49.251365661621094 251.19459533691406 42.720726013183594 248.53265380859375 C 111.89366912841797 291.16986083984375 77.2800521850586 243.88580322265625 99.19012451171875 296.1606140136719" stroke-width="0.0" fill="rgb(24, 57, 76)" opacity="0.8459048" stroke="rgb(74, 64, 114)" stroke-opacity="0.59246397" stroke-linecap="round" stroke-linejoin="round"/>
    <path d="M 73.84972381591797 337.0536193847656 C 73.99112701416016 362.6145935058594 82.65251922607422 363.4038391113281 51.78447341918945 362.8905334472656 C 45.186466217041016 356.9949645996094 45.79954147338867 349.3125 45.773311614990234 322.4351806640625 C 45.97835159301758 306.7012634277344 43.34079360961914 305.218505859375 62.129783630371094 301.5754089355469 C 65.37911987304688 306.0456237792969 72.15249633789062 323.123046875 73.84972381591797 337.0536193847656" stroke-width="0.0" fill="rgb(24, 58, 76)" opacity="0.98732734" stroke="rgb(113, 249, 186)" stroke-opacity="0.9695514" stroke-linecap="round" stroke-linejoin="round"/>
    <path d="M 88.43746185302734 424.8520202636719 C 87.77334594726562 444.6601867675781 80.83108520507812 467.451416015625 83.16199493408203 466.0812683105469 C 42.55500030517578 466.1976013183594 40.30331802368164 466.3204650878906 52.17273712158203 465.6595764160156 C 60.08407974243164 429.5331115722656 59.70848846435547 425.3478088378906 77.60118103027344 415.7330322265625 C 85.91698455810547 417.4160461425781 84.58252716064453 416.4875183105469 88.43746185302734 424.8520202636719" stroke-width="0.0" fill="rgb(23, 57, 75)" opacity="0.98120254" stroke="rgb(58, 4, 160)" stroke-opacity="0.0036254812" stroke-linecap="round" stroke-linejoin="round"/>
    <path d="M 402.0615539550781 440.13543701171875 C 403.4986267089844 468.3743896484375 402.494140625 462.6714172363281 411.2984619140625 465.074951171875 C 366.3284912109375 465.7955322265625 376.56219482421875 466.56536865234375 374.7920227050781 465.4787902832031 C 374.8027648925781 426.1838073730469 375.0361022949219 418.8525085449219 374.5775451660156 428.3834228515625 C 401.7922668457031 429.6422424316406 402.6326904296875 433.0125427246094 402.0615539550781 440.13543701171875" stroke-width="0.0" fill="rgb(2, 18, 50)" opacity="0.6801927" stroke="rgb(13, 144, 76)" stroke-opacity="0.069302864" stroke-linecap="round" stroke-linejoin="round"/>
    <path d="M 29.326751708984375 478.4066162109375 C 101.43263244628906 480.0747375488281 120.80982208251953 472.3680419921875 126.83657836914062 497.0145568847656 C 0.10536239296197891 496.7213134765625 14.768219947814941 498.7495422363281 14.65948486328125 497.83587646484375 C 14.589007377624512 459.34039306640625 15.00483512878418 451.3013000488281 15.333430290222168 451.0400695800781 C 39.338531494140625 452.6504211425781 31.624767303466797 456.6083679199219 29.326751708984375 478.4066162109375" stroke-width="0.0" fill="rgb(24, 58, 76)" opacity="0.9975109" stroke="rgb(200, 244, 228)" stroke-opacity="0.8265105" stroke-linecap="round" stroke-linejoin="round"/>
    <path d="M 74.1574478149414 400.795654296875 C 84.30329895019531 403.6167907714844 81.37560272216797 405.0979309082031 45.65665817260742 411.5840759277344 C 45.679718017578125 409.5065612792969 45.570743560791016 394.9225769042969 45.608089447021484 332.138671875 C 53.80821228027344 341.4892578125 31.682491302490234 339.36199951171875 73.70064544677734 336.6492919921875 C 74.74320983886719 342.2614440917969 77.36859130859375 354.4600830078125 74.1574478149414 400.795654296875" stroke-width="0.0" fill="rgb(24, 58, 76)" opacity="0.98659796" stroke="rgb(252, 138, 115)" stroke-opacity="0.48975113" stroke-linecap="round" stroke-linejoin="round"/>
    <path d="M 411.3499755859375 465.0127868652344 C 435.2349548339844 465.81011962890625 428.07611083984375 465.7210388183594 403.13055419921875 465.8254089355469 C 364.1944274902344 465.0764465332031 377.57708740234375 471.17083740234375 374.95196533203125 439.52435302734375 C 377.4169921875 421.2353820800781 364.3579406738281 425.7342224121094 399.16107177734375 424.9830322265625 C 398.6802062988281 335.4757995605469 414.78680419921875 353.8856506347656 411.3499755859375 465.0127868652344" stroke-width="0.0" fill="rgb(25, 58, 76)" opacity="0.99619824" stroke="rgb(209, 41, 83)" stroke-opacity="0.7869503" stroke-linecap="round" stroke-linejoin="round"/>
    <path d="M 32.83928298950195 490.88641357421875 C 25.12824821472168 470.3172302246094 34.999019622802734 473.7853088378906 14.644820213317871 474.4053955078125 C 14.6727294921875 475.37872314453125 14.597451210021973 471.20147705078125 14.64465045928955 218.014404296875 C 23.651874542236328 221.7124786376953 -82.61141204833984 163.55320739746094 32.77252197265625 105.17910766601562 C 32.96562957763672 416.62530517578125 32.662208557128906 430.5227355957031 32.83928298950195 490.88641357421875" stroke-width="0.0" fill="rgb(26, 59, 76)" opacity="0.99994874" stroke="rgb(250, 216, 79)" stroke-opacity="0.046257496" stroke-linecap="round" stroke-linejoin="round"/>
    <path d="M 14.368535995483398 105.9358139038086 C 14.562535285949707 130.25682067871094 14.508499145507812 147.36221313476562 14.489028930664062 176.83607482910156 C -24.426076889038086 171.4498748779297 -12.372997283935547 153.4281463623047 -4.033474445343018 115.55508422851562 C 5.400894641876221 109.84166717529297 -1.2026360034942627 109.15827178955078 0.3657343089580536 107.59265899658203 C 5.939178943634033 115.68769836425781 13.961319923400879 123.81726837158203 14.368535995483398 105.9358139038086" stroke-width="0.0" fill="rgb(250, 231, 202)" opacity="0.99955225" stroke="rgb(245, 200, 111)" stroke-opacity="0.69691074" stroke-linecap="round" stroke-linejoin="round"/>
    <path d="M 56.13267135620117 501.36724853515625 C 54.25570297241211 517.4067993164062 48.263187408447266 515.6064453125 37.99234390258789 522.53466796875 C 15.9850435256958 522.9380493164062 9.34218692779541 526.4349365234375 2.228652238845825 496.98931884765625 C 10.119178771972656 497.05206298828125 10.701669692993164 497.76812744140625 59.423828125 497.3115539550781 C 88.9247817993164 497.4769287109375 64.97237396240234 497.07696533203125 56.13267135620117 501.36724853515625" stroke-width="0.0" fill="rgb(255, 245, 222)" opacity="0.85358566" stroke="rgb(221, 174, 124)" stroke-opacity="0.73599327" stroke-linecap="round" stroke-linejoin="round"/>
    <path d="M 72.124267578125 4.953616142272949 C 69.28132629394531 12.334060668945312 59.40852355957031 10.694565773010254 65.50831604003906 11.46828556060791 C 41.27476501464844 14.792765617370605 26.375612258911133 13.651354789733887 21.69405174255371 14.098769187927246 C 21.829362869262695 -12.800332069396973 27.215251922607422 -10.982378005981445 60.746089935302734 -9.135478973388672 C 68.57205200195312 -7.501880645751953 69.52254486083984 -5.197386741638184 72.124267578125 4.953616142272949" stroke-width="0.0" fill="rgb(255, 247, 226)" opacity="0.81849533" stroke="rgb(221, 167, 71)" stroke-opacity="0.8270783" stroke-linecap="round" stroke-linejoin="round"/>
    <path d="M 14.407524108886719 225.40359497070312 C 14.68410587310791 257.2171936035156 14.73731803894043 261.69317626953125 6.749939918518066 261.59649658203125 C -13.45060920715332 244.00790405273438 -12.50384521484375 232.98348999023438 -11.21971607208252 213.19784545898438 C -11.560215950012207 180.229736328125 -29.82590103149414 158.40447998046875 14.54187297821045 157.19703674316406 C 14.306268692016602 176.60328674316406 14.627609252929688 186.00950622558594 14.407524108886719 225.40359497070312" stroke-width="0.0" fill="rgb(249, 231, 202)" opacity="0.9992203" stroke="rgb(201, 118, 212)" stroke-opacity="0.091810465" stroke-linecap="round" stroke-linejoin="round"/>
    <path d="M 14.313756942749023 453.5801086425781 C 11.634576797485352 449.70361328125 12.587345123291016 450.6993408203125 4.239803314208984 454.3769836425781 C -0.950523853302002 447.8116149902344 -5.695633888244629 449.8133544921875 -10.533912658691406 430.913330078125 C -11.490490913391113 414.68609619140625 -14.266916275024414 405.54132080078125 12.234189987182617 401.09417724609375 C 14.669655799865723 404.7298889160156 14.449535369873047 412.25408935546875 14.313756942749023 453.5801086425781" stroke-width="0.0" fill="rgb(252, 239, 213)" opacity="1.0" stroke="rgb(36, 177, 6)" stroke-opacity="0.4358875" stroke-linecap="round" stroke-linejoin="round"/>
    <path d="M 66.54164123535156 513.56884765625 C 67.3049545288086 517.966552734375 66.05559539794922 519.8157958984375 57.94797897338867 520.1967163085938 C 40.60931396484375 521.6871948242188 37.49657440185547 519.9267578125 34.27334213256836 501.8016052246094 C 37.752323150634766 496.029052734375 45.68239212036133 500.0226745605469 51.110965728759766 499.6574401855469 C 60.14739990234375 498.51171875 64.74901580810547 497.9137268066406 66.54164123535156 513.56884765625" stroke-width="0.0" fill="rgb(249, 229, 200)" opacity="0.8310065" stroke="rgb(102, 66, 238)" stroke-opacity="0.10521743" stroke-linecap="round" stroke-linejoin="round"/>
    <path d="M 33.63673782348633 13.886216163635254 C 3.0255677700042725 11.906509399414062 0.7914356589317322 16.384981155395508 3.729295015335083 27.650787353515625 C -8.464179992675781 27.074209213256836 -8.2503662109375 23.335277557373047 -7.60798978805542 16.256811141967773 C -7.7613935470581055 -2.9752862453460693 -6.605072021484375 -5.7590413093566895 4.274904251098633 -9.412911415100098 C 29.676441192626953 -12.875706672668457 35.40744400024414 -12.579233169555664 33.63673782348633 13.886216163635254" stroke-width="0.0" fill="rgb(251, 234, 206)" opacity="0.93877345" stroke="rgb(151, 156, 132)" stroke-opacity="0.45128968" stroke-linecap="round" stroke-linejoin="round"/>
    <path d="M 32.88105773925781 27.221248626708984 C 32.08123016357422 96.88125610351562 30.44062042236328 124.04158782958984 8.426609992980957 114.86122131347656 C -7.2212605476379395 54.954811096191406 -6.762840747833252 54.8211669921875 -9.185761451721191 42.88056564331055 C -3.9616594314575195 34.601924896240234 -3.091484785079956 32.663326263427734 -2.682816982269287 29.037160873413086 C 7.277462482452393 32.57966995239258 15.94179630279541 34.751346588134766 32.88105773925781 27.221248626708984" stroke-width="0.0" fill="rgb(8, 49, 74)" opacity="0.8984783" stroke="rgb(134, 28, 129)" stroke-opacity="0.08250021" stroke-linecap="round" stroke-linejoin="round"/>
    <path d="M 14.560538291931152 47.10884094238281 C 14.559043884277344 91.21953582763672 14.787426948547363 94.22441101074219 14.117570877075195 98.21389770507812 C -15.798910140991211 94.62500762939453 -13.993988990783691 87.75899505615234 -10.3872709274292 63.232093811035156 C -8.020406723022461 49.265377044677734 -4.895115852355957 49.30411911010742 4.959174156188965 38.801841735839844 C 16.10148811340332 33.93482971191406 14.485979080200195 37.12828063964844 14.560538291931152 47.10884094238281" stroke-width="0.0" fill="rgb(254, 235, 205)" opacity="0.9757499" stroke="rgb(183, 236, 160)" stroke-opacity="0.015766667" stroke-linecap="round" stroke-linejoin="round"/>
    <path d="M 14.492982864379883 495.5072937011719 C 14.527005195617676 502.8824768066406 18.44260025024414 507.8339538574219 12.04211711883545 523.0589599609375 C -21.40481185913086 519.6097412109375 -12.14125919342041 508.59759521484375 -7.8468217849731445 487.24853515625 C -8.260049819946289 463.0599060058594 -6.847478866577148 462.02587890625 -0.570253312587738 460.91363525390625 C 18.2127685546875 457.0049133300781 13.436285972595215 459.0735778808594 14.492982864379883 495.5072937011719" stroke-width="0.0" fill="rgb(249, 231, 202)" opacity="1.0" stroke="rgb(27, 172, 222)" stroke-opacity="0.5200247" stroke-linecap="round" stroke-linejoin="round"/>
    <path d="M 14.458878517150879 332.209228515625 C 14.083259582519531 349.46075439453125 14.156386375427246 345.4261169433594 10.77613353729248 342.1801452636719 C -15.352631568908691 338.5770568847656 -13.266357421875 333.7506408691406 -8.85266399383545 320.59503173828125 C -12.682650566101074 306.4967041015625 -14.076973915100098 301.2388610839844 8.681946754455566 294.7343444824219 C 16.420141220092773 296.0973815917969 13.99660587310791 294.1414794921875 14.458878517150879 332.209228515625" stroke-width="0.0" fill="rgb(253, 240, 215)" opacity="0.9917115" stroke="rgb(159, 178, 246)" stroke-opacity="0.34045088" stroke-linecap="round" stroke-linejoin="round"/>
    <path d="M 13.139544486999512 326.2325439453125 C 12.998279571533203 352.343505859375 13.84914493560791 353.6299743652344 0.30040401220321655 355.5295104980469 C -4.885621070861816 356.14715576171875 -8.199864387512207 355.7530517578125 -9.5235595703125 345.81329345703125 C -10.024866104125977 323.97222900390625 -8.414974212646484 322.9266357421875 5.907104015350342 317.36688232421875 C 17.120906829833984 315.8956604003906 11.693671226501465 321.3131408691406 13.139544486999512 326.2325439453125" stroke-width="0.0" fill="rgb(249, 230, 200)" opacity="0.9839322" stroke="rgb(117, 254, 180)" stroke-opacity="0.22638157" stroke-linecap="round" stroke-linejoin="round"/>
    <path d="M 14.574921607971191 38.735084533691406 C 14.562080383300781 51.75436782836914 15.840999603271484 47.464717864990234 6.02537727355957 46.777530670166016 C -4.814494609832764 42.76591873168945 -11.654994010925293 43.696022033691406 -10.116865158081055 26.494850158691406 C -7.0018181800842285 13.33232307434082 -5.35317325592041 12.509398460388184 11.723111152648926 8.463549613952637 C 15.747838020324707 5.944203853607178 14.451591491699219 0.2810540497303009 14.574921607971191 38.735084533691406" stroke-width="0.0" fill="rgb(250, 232, 203)" opacity="0.9911241" stroke="rgb(125, 46, 212)" stroke-opacity="0.50928974" stroke-linecap="round" stroke-linejoin="round"/>
    <path d="M 14.363149642944336 369.5907287597656 C 11.600346565246582 364.8214111328125 13.333209037780762 366.9300842285156 13.6173677444458 377.5794372558594 C -10.84399127960205 375.7977600097656 -9.971004486083984 371.7508544921875 -9.737333297729492 358.5654602050781 C -8.147599220275879 337.6197814941406 -5.305263042449951 339.8464050292969 14.209138870239258 342.9344787597656 C 14.380620956420898 322.4776916503906 14.687603950500488 339.0400695800781 14.363149642944336 369.5907287597656" stroke-width="0.0" fill="rgb(249, 231, 202)" opacity="1.0" stroke="rgb(212, 64, 97)" stroke-opacity="0.5101058" stroke-linecap="round" stroke-linejoin="round"/>
    <path d="M 14.427937507629395 396.67803955078125 C 14.54128646850586 388.6060485839844 14.504029273986816 403.36358642578125 14.490684509277344 423.5203857421875 C -19.540945053100586 418.1900939941406 -11.974515914916992 405.66082763671875 -7.989830017089844 387.1549987792969 C -9.650960922241211 361.9289855957031 -7.464653015136719 359.273681640625 13.412240982055664 354.21435546875 C 15.113517761230469 349.54095458984375 14.310723304748535 352.7024230957031 14.427937507629395 396.67803955078125" stroke-width="0.0" fill="rgb(249, 232, 203)" opacity="1.0" stroke="rgb(196, 164, 156)" stroke-opacity="0.13270812" stroke-linecap="round" stroke-linejoin="round"/>
    <path d="M 361.3499450683594 31.383310317993164 C 188.31484985351562 34.70764923095703 202.9203338623047 27.330158233642578 216.6170196533203 16.991174697875977 C 202.61106872558594 9.485196113586426 202.31851196289062 8.842361450195312 194.5124969482422 0.08809687197208405 C 192.74822998046875 -5.423065662384033 194.9513702392578 -7.615617275238037 215.2512664794922 -7.174777507781982 C 265.3619689941406 -30.957979202270508 331.14544677734375 -106.4767837524414 361.3499450683594 31.383310317993164" stroke-width="0.0" fill="rgb(2, 45, 73)" opacity="0.8500575" stroke="rgb(19, 30, 65)" stroke-opacity="0.078301966" stroke-linecap="round" stroke-linejoin="round"/>
    <path d="M 14.559043884277344 80.31867218017578 C 14.530400276184082 143.77748107910156 14.840147018432617 140.24221801757812 12.057713508605957 129.72840881347656 C -9.114961624145508 126.45942687988281 -9.759468078613281 124.96980285644531 -9.330449104309082 101.58848571777344 C -9.3920259475708 94.90660095214844 -8.334474563598633 90.16034698486328 0.3240269422531128 81.26642608642578 C 15.544896125793457 76.64089965820312 13.241222381591797 69.96992492675781 14.559043884277344 80.31867218017578" stroke-width="0.0" fill="rgb(250, 232, 203)" opacity="0.996213" stroke="rgb(92, 109, 209)" stroke-opacity="0.7855058" stroke-linecap="round" stroke-linejoin="round"/>
    <path d="M 12.992215156555176 436.25994873046875 C 13.229755401611328 457.2322998046875 12.718997955322266 464.0718688964844 9.613604545593262 463.1478576660156 C -4.101718425750732 462.16845703125 -6.141855239868164 460.20758056640625 -7.831201076507568 442.68951416015625 C -1.2764168977737427 438.6073913574219 -6.568400859832764 426.614990234375 12.872884750366211 411.7135314941406 C 13.04809856414795 427.4740295410156 13.195279121398926 431.5170593261719 12.992215156555176 436.25994873046875" stroke-width="0.0" fill="rgb(248, 230, 200)" opacity="0.9709528" stroke="rgb(132, 213, 125)" stroke-opacity="0.5243238" stroke-linecap="round" stroke-linejoin="round"/>
    <path d="M 14.332645416259766 441.3778076171875 C 14.15771770477295 479.2794189453125 14.459230422973633 482.78399658203125 14.239840507507324 480.3265686035156 C -10.626538276672363 479.89703369140625 -11.152092933654785 478.75146484375 -8.56894588470459 461.93218994140625 C -3.919495105743408 451.0973815917969 -2.877213954925537 448.6552429199219 -1.2697502374649048 445.3606262207031 C 16.445188522338867 451.7233581542969 13.225188255310059 456.984619140625 14.332645416259766 441.3778076171875" stroke-width="0.0" fill="rgb(249, 231, 202)" opacity="1.0" stroke="rgb(179, 134, 214)" stroke-opacity="0.9505376" stroke-linecap="round" stroke-linejoin="round"/>
    <path d="M 158.15480041503906 509.6690673828125 C 158.62338256835938 518.3860473632812 155.36712646484375 521.923828125 132.0115509033203 521.3558959960938 C 107.80426788330078 524.8078002929688 97.20782470703125 537.7642822265625 94.31787872314453 497.391357421875 C 106.00141906738281 497.48272705078125 131.94534301757812 497.1966857910156 153.53591918945312 497.4685363769531 C 146.8086700439453 497.2551574707031 151.7801055908203 496.69622802734375 158.15480041503906 509.6690673828125" stroke-width="0.0" fill="rgb(255, 252, 234)" opacity="0.7770213" stroke="rgb(174, 57, 173)" stroke-opacity="0.012561596" stroke-linecap="round" stroke-linejoin="round"/>
    <path d="M 217.315673828125 523.3505249023438 C 218.8948516845703 520.8682861328125 216.31207275390625 522.113037109375 199.40335083007812 521.7136840820312 C 183.54905700683594 521.311767578125 179.8499755859375 521.6680297851562 174.34275817871094 501.8924865722656 C 173.14634704589844 498.656005859375 184.93804931640625 496.95562744140625 205.7225341796875 497.3003234863281 C 205.61036682128906 498.5645446777344 208.85043334960938 504.6417541503906 217.315673828125 523.3505249023438" stroke-width="0.0" fill="rgb(255, 242, 216)" opacity="0.86720264" stroke="rgb(33, 14, 246)" stroke-opacity="0.33419997" stroke-linecap="round" stroke-linejoin="round"/>
    <path d="M 178.1915283203125 517.5345458984375 C 177.77520751953125 519.9421997070312 175.4603271484375 520.5203247070312 169.16595458984375 519.7584228515625 C 150.97259521484375 518.6548461914062 147.86117553710938 517.80419921875 138.44869995117188 510.5482177734375 C 136.123779296875 495.7104797363281 136.88525390625 498.0545349121094 185.57070922851562 497.64569091796875 C 181.6994171142578 499.9635314941406 186.9190673828125 497.84222412109375 178.1915283203125 517.5345458984375" stroke-width="0.0" fill="rgb(252, 231, 200)" opacity="0.99405533" stroke="rgb(189, 14, 108)" stroke-opacity="0.0665369" stroke-linecap="round" stroke-linejoin="round"/>
    <path d="M 110.2911376953125 511.67962646484375 C 94.25601196289062 524.92919921875 84.79866027832031 518.893798828125 64.3122329711914 518.4669189453125 C 60.773826599121094 520.4585571289062 59.18832778930664 519.2720947265625 60.321842193603516 515.6399536132812 C 59.0130615234375 497.5893859863281 60.83626937866211 501.6690979003906 67.71700286865234 497.4064636230469 C 108.03739166259766 497.5298156738281 114.30375671386719 495.80029296875 110.2911376953125 511.67962646484375" stroke-width="0.0" fill="rgb(249, 233, 205)" opacity="0.96455526" stroke="rgb(152, 61, 123)" stroke-opacity="0.22967967" stroke-linecap="round" stroke-linejoin="round"/>
    <path d="M 356.50494384765625 5.636472225189209 C 356.48675537109375 17.09263038635254 368.6251525878906 11.491625785827637 302.00390625 13.297945022583008 C 297.6396789550781 13.55803108215332 292.8374328613281 10.729028701782227 290.784912109375 7.022547721862793 C 293.87890625 -16.568138122558594 297.6761779785156 -15.913983345031738 312.0923156738281 -17.46265983581543 C 330.2573547363281 -8.849528312683105 343.44677734375 -20.330806732177734 356.50494384765625 5.636472225189209" stroke-width="0.0" fill="rgb(250, 231, 202)" opacity="0.9953307" stroke="rgb(214, 214, 153)" stroke-opacity="0.9200071" stroke-linecap="round" stroke-linejoin="round"/>
    <path d="M 191.07122802734375 32.15753936767578 C 277.0870666503906 31.149900436401367 281.2550048828125 39.16913986206055 238.57009887695312 -3.826451063156128 C 62.173648834228516 11.2191162109375 63.796321868896484 11.11173152923584 68.00160217285156 11.310976028442383 C 57.52277374267578 -6.361907005310059 9.862470626831055 -31.258289337158203 14.881165504455566 32.195682525634766 C 18.6379451751709 32.81531524658203 -19.219314575195312 32.45696258544922 191.07122802734375 32.15753936767578" stroke-width="0.0" fill="rgb(26, 58, 76)" opacity="0.9766976" stroke="rgb(169, 47, 76)" stroke-opacity="0.67174345" stroke-linecap="round" stroke-linejoin="round"/>
    <path d="M 249.96006774902344 13.177699089050293 C 230.828857421875 13.556641578674316 219.9017791748047 14.296509742736816 177.91098022460938 12.907655715942383 C 183.5760498046875 12.749542236328125 183.93458557128906 12.644585609436035 135.2700958251953 12.439180374145508 C 144.0770721435547 -37.90251922607422 168.55271911621094 -11.454200744628906 198.04588317871094 -8.977631568908691 C 212.96047973632812 -4.6787261962890625 246.87747192382812 -17.97199249267578 249.96006774902344 13.177699089050293" stroke-width="0.0" fill="rgb(243, 224, 197)" opacity="0.9869836" stroke="rgb(98, 235, 0)" stroke-opacity="0.74960256" stroke-linecap="round" stroke-linejoin="round"/>
    <path d="M 14.45659351348877 287.59136962890625 C 14.537479400634766 318.6330871582031 14.890782356262207 317.8567810058594 9.248485565185547 318.5681457519531 C -9.183895111083984 311.1315612792969 -10.150384902954102 307.87353515625 -9.828878402709961 297.60955810546875 C -11.186511039733887 264.511474609375 -23.523494720458984 245.9840087890625 14.505059242248535 237.41786193847656 C 14.372588157653809 249.90530395507812 14.568266868591309 263.10302734375 14.45659351348877 287.59136962890625" stroke-width="0.0" fill="rgb(249, 231, 202)" opacity="1.0" stroke="rgb(196, 111, 185)" stroke-opacity="0.55139905" stroke-linecap="round" stroke-linejoin="round"/>
    <path d="M 75.109130859375 503.94647216796875 C 73.87993621826172 517.1289672851562 73.26699829101562 520.2044677734375 66.22454833984375 518.8131103515625 C 53.53132629394531 514.0840454101562 50.391475677490234 513.2969360351562 40.54067611694336 501.2745361328125 C 43.19591522216797 499.7683410644531 46.1832160949707 501.0879821777344 54.389198303222656 498.7645568847656 C 82.54174041748047 497.707763671875 83.86629486083984 496.5906066894531 75.109130859375 503.94647216796875" stroke-width="0.0" fill="rgb(250, 231, 203)" opacity="0.91858065" stroke="rgb(246, 70, 226)" stroke-opacity="0.41283277" stroke-linecap="round" stroke-linejoin="round"/>
    <path d="M 196.59683227539062 512.266845703125 C 191.47508239746094 520.6542358398438 187.99407958984375 520.97802734375 177.45533752441406 521.0089721679688 C 161.50747680664062 517.798095703125 160.72000122070312 515.1436157226562 158.0498809814453 501.55657958984375 C 143.73068237304688 496.3128967285156 136.4649200439453 497.2269592285156 188.03536987304688 497.04248046875 C 198.10269165039062 497.7118225097656 196.11146545410156 494.8472900390625 196.59683227539062 512.266845703125" stroke-width="0.0" fill="rgb(234, 231, 223)" opacity="0.23498876" stroke="rgb(241, 45, 4)" stroke-opacity="0.5805758" stroke-linecap="round" stroke-linejoin="round"/>
    <path d="M 310.0668029785156 10.34383487701416 C 315.5706787109375 14.173519134521484 314.4026794433594 12.853872299194336 283.6930847167969 12.606833457946777 C 234.2394256591797 11.936896324157715 232.54254150390625 13.586106300354004 243.33438110351562 -5.527487754821777 C 274.9715576171875 -9.150856018066406 281.5827331542969 -8.18855094909668 288.7373352050781 -8.748703002929688 C 302.4094543457031 -11.296250343322754 307.5861511230469 -11.730289459228516 310.0668029785156 10.34383487701416" stroke-width="0.0" fill="rgb(245, 227, 198)" opacity="0.99605143" stroke="rgb(21, 146, 199)" stroke-opacity="0.516822" stroke-linecap="round" stroke-linejoin="round"/>
    <path d="M 155.015380859375 9.522368431091309 C 150.24916076660156 15.51486587524414 130.79002380371094 11.569217681884766 74.87957763671875 12.61257266998291 C 82.716552734375 8.97424602508545 79.76820373535156 11.227424621582031 76.33832550048828 2.430609703063965 C 83.20055389404297 -6.085586071014404 86.76341247558594 -6.208080291748047 98.63412475585938 -16.06852149963379 C 115.56153106689453 -13.661575317382812 143.4241943359375 -41.223777770996094 155.015380859375 9.522368431091309" stroke-width="0.0" fill="rgb(249, 230, 199)" opacity="1.0" stroke="rgb(191, 185, 7)" stroke-opacity="0.50969565" stroke-linecap="round" stroke-linejoin="round"/>
    <path d="M 86.33158111572266 8.542202949523926 C 90.07976531982422 13.744349479675293 90.28349304199219 14.237886428833008 78.87835693359375 13.154254913330078 C 30.094961166381836 10.707098007202148 3.7798807621002197 18.182647705078125 10.319223403930664 8.48625659942627 C 49.24565505981445 -16.255931854248047 56.74720001220703 -9.156011581420898 72.7179183959961 -8.40002727508545 C 81.1531982421875 -6.386379718780518 79.42597961425781 4.248082160949707 86.33158111572266 8.542202949523926" stroke-width="0.0" fill="rgb(250, 231, 202)" opacity="0.99855024" stroke="rgb(58, 67, 51)" stroke-opacity="0.42774814" stroke-linecap="round" stroke-linejoin="round"/>
    <path d="M 393.9549560546875 180.4159393310547 C 381.61993408203125 217.8476104736328 398.7144470214844 208.99244689941406 376.9208068847656 213.81910705566406 C 362.08184814453125 239.16476440429688 370.2420654296875 211.07235717773438 365.76226806640625 185.49630737304688 C 364.0218200683594 172.52972412109375 356.15191650390625 177.08352661132812 383.2713317871094 172.96572875976562 C 395.647216796875 171.46441650390625 397.9642639160156 172.10325622558594 393.9549560546875 180.4159393310547" stroke-width="0.0" fill="rgb(255, 249, 236)" opacity="0.77146715" stroke="rgb(206, 186, 193)" stroke-opacity="0.7678102" stroke-linecap="round" stroke-linejoin="round"/>
    <path d="M 352.4825134277344 433.1044921875 C 347.89959716796875 432.51873779296875 341.93914794921875 434.9583435058594 331.8115539550781 434.9932556152344 C 325.2597351074219 434.7691345214844 321.1015319824219 440.55133056640625 319.5923767089844 420.3414611816406 C 321.3331298828125 414.8226318359375 327.5150146484375 417.09588623046875 334.9610290527344 414.8779602050781 C 342.26531982421875 419.1089172363281 343.02520751953125 421.6827087402344 352.4825134277344 433.1044921875" stroke-width="0.0" fill="rgb(255, 221, 187)" opacity="0.7178486" stroke="rgb(231, 141, 72)" stroke-opacity="0.20037806" stroke-linecap="round" stroke-linejoin="round"/>
    <path d="M 308.55316162109375 433.9156494140625 C 303.39080810546875 439.76202392578125 295.5132751464844 440.846435546875 284.4768371582031 442.6369934082031 C 264.85052490234375 448.2642822265625 264.3985290527344 448.32177734375 262.48468017578125 440.73175048828125 C 263.3802795410156 413.6705627441406 269.7687683105469 417.37353515625 281.26898193359375 417.072509765625 C 310.07421875 412.86962890625 300.83758544921875 422.5033874511719 308.55316162109375 433.9156494140625" stroke-width="0.0" fill="rgb(254, 208, 167)" opacity="0.35446164" stroke="rgb(125, 165, 154)" stroke-opacity="0.33321923" stroke-linecap="round" stroke-linejoin="round"/>
    <path d="M 450.8272399902344 163.12123107910156 C 450.60552978515625 165.69918823242188 449.3837890625 169.16429138183594 440.6783447265625 170.18795776367188 C 432.6687316894531 168.200439453125 431.0591125488281 166.2657470703125 430.1685791015625 152.1889190673828 C 430.87469482421875 149.83563232421875 433.1464538574219 149.1500701904297 436.77435302734375 156.7088165283203 C 440.5126037597656 157.51121520996094 441.04345703125 159.83053588867188 450.8272399902344 163.12123107910156" stroke-width="0.0" fill="rgb(255, 247, 216)" opacity="0.8847687" stroke="rgb(14, 227, 22)" stroke-opacity="0.6954173" stroke-linecap="round" stroke-linejoin="round"/>
    <path d="M 426.1133117675781 204.9902801513672 C 416.5101318359375 204.01205444335938 410.4710998535156 205.52044677734375 402.8211975097656 202.72747802734375 C 383.1874694824219 205.83006286621094 381.8308410644531 211.48699951171875 385.97802734375 187.8378143310547 C 386.68927001953125 181.41458129882812 389.5018005371094 181.64642333984375 406.58245849609375 178.3766632080078 C 413.4306945800781 179.0892791748047 418.77410888671875 180.97988891601562 426.1133117675781 204.9902801513672" stroke-width="0.0" fill="rgb(247, 231, 219)" opacity="0.99814737" stroke="rgb(122, 52, 17)" stroke-opacity="0.55143666" stroke-linecap="round" stroke-linejoin="round"/>
    <path d="M 338.9587097167969 423.663330078125 C 338.2508850097656 436.6035461425781 336.11962890625 435.9585266113281 312.6895751953125 436.5803527832031 C 310.87640380859375 434.9466857910156 313.1484069824219 429.2550964355469 305.9844055175781 419.8826904296875 C 305.3800354003906 413.1292419433594 311.7832946777344 414.83831787109375 331.8161315917969 413.51385498046875 C 333.6318054199219 414.2994384765625 337.0409851074219 412.48248291015625 338.9587097167969 423.663330078125" stroke-width="0.0" fill="rgb(255, 245, 219)" opacity="0.66990864" stroke="rgb(218, 43, 174)" stroke-opacity="0.7963132" stroke-linecap="round" stroke-linejoin="round"/>
    <path d="M 375.5596923828125 421.62969970703125 C 373.3692932128906 435.7004089355469 376.7296142578125 431.3363952636719 373.7684326171875 432.6888732910156 C 347.9607849121094 433.022705078125 346.7148742675781 432.95208740234375 337.82354736328125 426.7067565917969 C 341.5642395019531 413.6452331542969 354.2368469238281 410.83465576171875 376.09814453125 420.6767272949219 C 380.36309814453125 414.5218200683594 384.0194091796875 408.6209411621094 375.5596923828125 421.62969970703125" stroke-width="0.0" fill="rgb(224, 232, 226)" opacity="0.63498837" stroke="rgb(130, 6, 217)" stroke-opacity="0.6807748" stroke-linecap="round" stroke-linejoin="round"/>
    <path d="M 466.0459289550781 156.08502197265625 C 464.94598388671875 175.4271697998047 469.0552978515625 179.41989135742188 459.1930847167969 183.72930908203125 C 430.8452453613281 180.8485565185547 433.2261962890625 171.16358947753906 430.60260009765625 164.65699768066406 C 443.18743896484375 147.88330078125 427.9969177246094 139.6124725341797 457.8887939453125 138.9541473388672 C 457.0010681152344 149.6358184814453 466.98236083984375 148.71913146972656 466.0459289550781 156.08502197265625" stroke-width="0.0" fill="rgb(249, 195, 160)" opacity="0.7502136" stroke="rgb(45, 61, 137)" stroke-opacity="0.23275505" stroke-linecap="round" stroke-linejoin="round"/>
    <path d="M 347.0826110839844 339.3983459472656 C 352.79168701171875 360.9970397949219 350.2219543457031 357.29010009765625 317.2990417480469 365.4001159667969 C 300.7510681152344 375.05609130859375 303.3421325683594 378.688232421875 303.02392578125 292.063720703125 C 340.4730224609375 292.2646789550781 324.5133056640625 273.4843444824219 328.76214599609375 344.2545471191406 C 351.07122802734375 348.6537170410156 346.11602783203125 290.007568359375 347.0826110839844 339.3983459472656" stroke-width="0.0" fill="rgb(255, 226, 192)" opacity="0.81986827" stroke="rgb(102, 31, 174)" stroke-opacity="0.9079423" stroke-linecap="round" stroke-linejoin="round"/>
    <path d="M 173.2312774658203 449.8330993652344 C 172.1518096923828 467.1545715332031 169.2964630126953 465.6079406738281 146.52500915527344 466.0440673828125 C 63.63837814331055 465.588134765625 86.2086410522461 467.64190673828125 82.84461212158203 461.6744689941406 C 119.61956024169922 443.4267883300781 136.63072204589844 439.6092224121094 158.00173950195312 434.928955078125 C 174.60523986816406 432.1835021972656 174.13487243652344 438.53082275390625 173.2312774658203 449.8330993652344" stroke-width="0.0" fill="rgb(255, 243, 216)" opacity="0.85026604" stroke="rgb(186, 166, 110)" stroke-opacity="0.26778767" stroke-linecap="round" stroke-linejoin="round"/>
    <path d="M 433.1682434082031 188.69436645507812 C 455.60968017578125 188.01907348632812 460.9513854980469 183.22610473632812 437.1825866699219 185.5671844482422 C 419.2735900878906 189.30296325683594 416.9790954589844 185.0833282470703 418.1956787109375 177.8589630126953 C 422.794921875 163.63221740722656 424.63287353515625 161.7938690185547 431.89862060546875 159.3065643310547 C 435.35540771484375 163.9856414794922 440.8681945800781 161.97816467285156 433.1682434082031 188.69436645507812" stroke-width="0.0" fill="rgb(10, 157, 227)" opacity="0.5395152" stroke="rgb(179, 80, 218)" stroke-opacity="0.19216494" stroke-linecap="round" stroke-linejoin="round"/>
    <path d="M 415.1455993652344 173.70579528808594 C 414.9451904296875 186.66831970214844 419.1647644042969 177.2180633544922 361.3814392089844 175.35494995117188 C 332.15155029296875 181.8447265625 355.6349792480469 240.3642578125 293.5077819824219 128.98020935058594 C 342.16943359375 106.693603515625 391.24676513671875 133.51077270507812 406.3953857421875 143.74948120117188 C 416.9190673828125 161.71421813964844 416.70074462890625 163.88888549804688 415.1455993652344 173.70579528808594" stroke-width="0.0" fill="rgb(57, 158, 204)" opacity="0.9640533" stroke="rgb(99, 195, 139)" stroke-opacity="0.49051765" stroke-linecap="round" stroke-linejoin="round"/>
    <path d="M 357.44708251953125 181.96653747558594 C 355.367919921875 206.43016052246094 361.830810546875 195.85235595703125 344.0944519042969 195.58474731445312 C 301.434326171875 198.07705688476562 344.2684326171875 186.8347930908203 287.8168640136719 132.35987854003906 C 324.31524658203125 152.4288787841797 326.2825012207031 187.4165802001953 327.7545471191406 187.35447692871094 C 356.2032470703125 174.22132873535156 362.4149169921875 173.39776611328125 357.44708251953125 181.96653747558594" stroke-width="0.0" fill="rgb(255, 236, 203)" opacity="0.9221343" stroke="rgb(173, 51, 145)" stroke-opacity="0.7069975" stroke-linecap="round" stroke-linejoin="round"/>
    <path d="M 370.53125 369.6279296875 C 353.8708801269531 369.8153991699219 357.357177734375 379.2828369140625 307.1994934082031 386.2534484863281 C 247.29733276367188 388.9591064453125 244.9437255859375 370.5824890136719 264.67193603515625 347.6841125488281 C 375.4738464355469 340.5320739746094 326.931396484375 367.9888000488281 341.4044494628906 263.390625 C 360.58538818359375 301.8458251953125 324.9595947265625 369.5043029785156 370.53125 369.6279296875" stroke-width="0.0" fill="rgb(255, 237, 197)" opacity="0.71381426" stroke="rgb(25, 145, 218)" stroke-opacity="0.3649266" stroke-linecap="round" stroke-linejoin="round"/>
    <path d="M 381.424072265625 410.92803955078125 C 370.9965515136719 432.3475646972656 368.9115295410156 431.3535461425781 358.0792236328125 426.43072509765625 C 356.4684143066406 421.9764404296875 352.3240966796875 423.5872802734375 346.7059326171875 417.8316650390625 C 349.580322265625 417.303955078125 345.0810241699219 412.4590759277344 354.653076171875 410.0415954589844 C 370.75323486328125 413.4494934082031 379.25048828125 407.2886047363281 381.424072265625 410.92803955078125" stroke-width="0.0" fill="rgb(254, 219, 127)" opacity="0.5384437" stroke="rgb(132, 161, 99)" stroke-opacity="0.14815868" stroke-linecap="round" stroke-linejoin="round"/>
    <path d="M 465.83282470703125 147.75192260742188 C 466.4060974121094 163.12747192382812 460.17230224609375 161.90304565429688 449.5782470703125 164.2603759765625 C 442.85247802734375 159.81314086914062 441.136962890625 158.2984161376953 435.30511474609375 152.7117156982422 C 434.8582763671875 148.3894500732422 440.37347412109375 147.13345336914062 459.9471435546875 144.4541473388672 C 463.7446594238281 130.8949737548828 466.77642822265625 128.50965881347656 465.83282470703125 147.75192260742188" stroke-width="0.0" fill="rgb(182, 188, 173)" opacity="0.68243694" stroke="rgb(145, 134, 38)" stroke-opacity="0.32147637" stroke-linecap="round" stroke-linejoin="round"/>
    <path d="M 400.7552185058594 326.67584228515625 C 404.4809875488281 359.7791748046875 398.3741149902344 359.7906494140625 337.51300048828125 367.67681884765625 C 373.86163330078125 388.3289794921875 344.76385498046875 290.05267333984375 360.6087341308594 267.850830078125 C 365.7574157714844 404.9411315917969 369.5348815917969 398.2532958984375 372.26995849609375 265.4124450683594 C 391.4566955566406 318.8741760253906 356.41583251953125 341.5729675292969 400.7552185058594 326.67584228515625" stroke-width="0.0" fill="rgb(255, 255, 239)" opacity="0.6772122" stroke="rgb(188, 181, 176)" stroke-opacity="0.6614641" stroke-linecap="round" stroke-linejoin="round"/>
    <path d="M 310.8603515625 434.1976013183594 C 318.8833923339844 438.4861145019531 308.1220397949219 437.890869140625 295.5708312988281 440.6422119140625 C 284.2626037597656 441.4244689941406 290.7491149902344 443.321044921875 283.7693176269531 431.5295104980469 C 295.35980224609375 429.63018798828125 299.39208984375 420.16705322265625 289.13763427734375 419.76409912109375 C 292.1022644042969 431.2640686035156 303.70404052734375 422.64788818359375 310.8603515625 434.1976013183594" stroke-width="0.0" fill="rgb(254, 220, 188)" opacity="0.8351116" stroke="rgb(48, 96, 38)" stroke-opacity="0.92106235" stroke-linecap="round" stroke-linejoin="round"/>
    <path d="M 221.6255645751953 434.71539306640625 C 218.22412109375 452.3378601074219 218.32456970214844 458.15191650390625 194.49859619140625 459.1509704589844 C 187.66790771484375 454.1517028808594 179.76722717285156 426.280029296875 91.22554779052734 457.9619140625 C 82.84111022949219 316.228271484375 59.040069580078125 308.16680908203125 190.86087036132812 347.388427734375 C 243.91880798339844 405.4027404785156 221.45755004882812 421.0139465332031 221.6255645751953 434.71539306640625" stroke-width="0.0" fill="rgb(255, 182, 105)" opacity="0.8805563" stroke="rgb(207, 215, 30)" stroke-opacity="0.21716978" stroke-linecap="round" stroke-linejoin="round"/>
    <path d="M 189.5371856689453 443.5708312988281 C 183.94720458984375 459.15264892578125 182.15057373046875 462.49542236328125 162.80398559570312 461.6531066894531 C 158.59832763671875 462.8438415527344 152.6156005859375 463.621337890625 145.18711853027344 441.9097595214844 C 150.27647399902344 437.29803466796875 154.69329833984375 432.0229187011719 170.99093627929688 432.7293701171875 C 184.94407653808594 434.288330078125 186.8207244873047 436.3346862792969 189.5371856689453 443.5708312988281" stroke-width="0.0" fill="rgb(243, 231, 205)" opacity="0.6462074" stroke="rgb(140, 162, 62)" stroke-opacity="0.9242345" stroke-linecap="round" stroke-linejoin="round"/>
    <path d="M 202.2761688232422 465.2377624511719 C 213.04269409179688 465.9303894042969 208.81015014648438 466.03594970703125 192.8060760498047 465.98095703125 C 151.3625030517578 465.99951171875 140.2270050048828 466.05889892578125 166.89306640625 464.5667724609375 C 173.49044799804688 445.88592529296875 172.1995391845703 441.1871337890625 179.14776611328125 438.3305969238281 C 191.99374389648438 445.9661560058594 186.5274200439453 454.5260925292969 202.2761688232422 465.2377624511719" stroke-width="0.0" fill="rgb(255, 246, 215)" opacity="0.704242" stroke="rgb(24, 237, 70)" stroke-opacity="0.4650002" stroke-linecap="round" stroke-linejoin="round"/>
    <path d="M 228.7096710205078 460.3414001464844 C 219.3525390625 468.2638244628906 208.57749938964844 465.14208984375 185.04364013671875 465.6186218261719 C 189.23001098632812 463.2331848144531 184.79551696777344 466.82501220703125 181.3929901123047 465.5153503417969 C 184.6002197265625 449.9447326660156 188.29110717773438 448.689697265625 199.37107849121094 442.8861389160156 C 213.5269317626953 440.8750305175781 214.66091918945312 441.5523376464844 228.7096710205078 460.3414001464844" stroke-width="0.0" fill="rgb(255, 236, 209)" opacity="0.47847024" stroke="rgb(122, 249, 140)" stroke-opacity="0.9118818" stroke-linecap="round" stroke-linejoin="round"/>
    <path d="M 442.1213684082031 425.0577087402344 C 440.96575927734375 424.8458251953125 452.3333435058594 424.7089538574219 411.4130554199219 424.7193298339844 C 405.28460693359375 423.9857482910156 413.5970153808594 436.0041809082031 410.79498291015625 387.13006591796875 C 409.9297180175781 398.49896240234375 410.8606262207031 387.5752868652344 456.4313049316406 359.8023986816406 C 445.5846862792969 370.17547607421875 439.4267272949219 388.7222900390625 442.1213684082031 425.0577087402344" stroke-width="0.0" fill="rgb(255, 246, 221)" opacity="0.8204582" stroke="rgb(138, 239, 135)" stroke-opacity="0.61308587" stroke-linecap="round" stroke-linejoin="round"/>
    <path d="M 364.96710205078125 427.06365966796875 C 353.54693603515625 422.7859191894531 353.5658874511719 425.1033630371094 346.4029541015625 431.48834228515625 C 349.8711853027344 425.268310546875 341.2646179199219 431.9495544433594 334.6480712890625 414.1648864746094 C 337.05859375 413.22906494140625 342.115478515625 415.6700134277344 351.50701904296875 413.5504455566406 C 363.9962158203125 413.07464599609375 365.5240783691406 416.0436706542969 364.96710205078125 427.06365966796875" stroke-width="0.0" fill="rgb(254, 235, 194)" opacity="0.60643417" stroke="rgb(172, 227, 69)" stroke-opacity="0.08718361" stroke-linecap="round" stroke-linejoin="round"/>
    <path d="M 428.9492492675781 171.41514587402344 C 428.03924560546875 175.9676971435547 425.616943359375 176.10743713378906 411.08990478515625 179.46829223632812 C 405.34783935546875 181.55845642089844 400.8907775878906 182.93800354003906 402.1719665527344 167.9581756591797 C 406.12615966796875 157.0051727294922 406.27166748046875 156.29383850097656 419.467041015625 154.15245056152344 C 431.7572021484375 155.7285614013672 431.1571350097656 154.45506286621094 428.9492492675781 171.41514587402344" stroke-width="0.0" fill="rgb(208, 198, 243)" opacity="0.7018198" stroke="rgb(57, 119, 168)" stroke-opacity="0.58032733" stroke-linecap="round" stroke-linejoin="round"/>
    <path d="M 437.1861267089844 334.6569519042969 C 431.4564514160156 338.72076416015625 412.510986328125 348.60430908203125 389.863037109375 361.7963562011719 C 377.8341064453125 369.549072265625 381.5919494628906 364.8348083496094 383.3710632324219 345.37060546875 C 391.2972106933594 290.818115234375 377.9484558105469 268.0924377441406 393.16302490234375 274.3548583984375 C 395.9039001464844 346.6700439453125 379.564453125 317.9593505859375 437.1861267089844 334.6569519042969" stroke-width="0.0" fill="rgb(255, 242, 214)" opacity="0.8395439" stroke="rgb(205, 248, 236)" stroke-opacity="0.61850196" stroke-linecap="round" stroke-linejoin="round"/>
    <path d="M 400.4316101074219 419.9499816894531 C 400.7226257324219 426.4227294921875 406.06329345703125 424.4586486816406 385.25823974609375 424.87030029296875 C 366.5975646972656 424.2701721191406 364.8576965332031 428.2074279785156 367.2662048339844 422.6821594238281 C 375.4891052246094 411.08367919921875 381.37103271484375 412.22314453125 391.7860412597656 412.7206726074219 C 402.3882141113281 400.66180419921875 397.3380432128906 402.1617736816406 400.4316101074219 419.9499816894531" stroke-width="0.0" fill="rgb(255, 241, 216)" opacity="0.87619525" stroke="rgb(47, 109, 196)" stroke-opacity="0.9062785" stroke-linecap="round" stroke-linejoin="round"/>
    <path d="M 308.9037780761719 421.935546875 C 306.05810546875 426.32928466796875 303.53570556640625 427.4253845214844 298.0870056152344 434.2237548828125 C 296.63555908203125 425.2662048339844 282.008056640625 440.9313049316406 275.6734313964844 418.7638244628906 C 284.43560791015625 415.4818115234375 288.8957824707031 416.90545654296875 291.96826171875 418.6360778808594 C 294.9043884277344 425.76837158203125 304.4620666503906 422.902099609375 308.9037780761719 421.935546875" stroke-width="0.0" fill="rgb(246, 240, 255)" opacity="0.9205973" stroke="rgb(71, 46, 115)" stroke-opacity="0.29403242" stroke-linecap="round" stroke-linejoin="round"/>
    <path d="M 306.03277587890625 417.7703857421875 C 298.5812683105469 433.6565246582031 286.21490478515625 425.1190490722656 278.0273132324219 441.6497497558594 C 283.181640625 438.5843811035156 276.5483703613281 439.2815246582031 261.12005615234375 416.54443359375 C 263.5430603027344 411.3538818359375 268.68756103515625 416.1788330078125 293.97271728515625 413.32110595703125 C 298.5892333984375 419.1562194824219 302.99493408203125 417.05206298828125 306.03277587890625 417.7703857421875" stroke-width="0.0" fill="rgb(254, 211, 125)" opacity="0.5389008" stroke="rgb(98, 166, 232)" stroke-opacity="0.3485297" stroke-linecap="round" stroke-linejoin="round"/>
    <path d="M 326.4350891113281 437.4009704589844 C 317.24481201171875 437.0528564453125 312.0684509277344 439.1338195800781 298.9161376953125 437.59796142578125 C 299.5531921386719 435.6394958496094 294.59539794921875 435.523193359375 289.8140563964844 433.1159362792969 C 304.39080810546875 428.54461669921875 305.6365661621094 426.3283386230469 304.4097900390625 418.1358337402344 C 312.6906433105469 418.1902160644531 317.21124267578125 419.06732177734375 326.4350891113281 437.4009704589844" stroke-width="0.0" fill="rgb(255, 218, 181)" opacity="0.79302484" stroke="rgb(27, 60, 19)" stroke-opacity="0.99719435" stroke-linecap="round" stroke-linejoin="round"/>
    <path d="M 187.73452758789062 456.3946533203125 C 183.2829132080078 468.2423400878906 179.5999755859375 464.7286071777344 178.55511474609375 465.7237548828125 C 153.34857177734375 464.9278259277344 142.3845977783203 466.46136474609375 149.72471618652344 459.11798095703125 C 156.90599060058594 446.1341247558594 158.19061279296875 444.9917907714844 162.99227905273438 446.7077941894531 C 183.69967651367188 446.294677734375 185.1702117919922 448.14776611328125 187.73452758789062 456.3946533203125" stroke-width="0.0" fill="rgb(251, 230, 201)" opacity="0.8243074" stroke="rgb(202, 193, 162)" stroke-opacity="0.6616095" stroke-linecap="round" stroke-linejoin="round"/>
    <path d="M 466.194580078125 106.35348510742188 C 444.6224365234375 166.839111328125 435.9332275390625 165.38307189941406 427.0602111816406 168.81736755371094 C 415.18658447265625 168.55825805664062 399.8797302246094 182.38739013671875 370.1226806640625 155.02688598632812 C 371.70196533203125 137.002685546875 363.0098571777344 193.0071258544922 340.3108215332031 102.59491729736328 C 410.7171630859375 88.22364044189453 463.84136962890625 95.33265686035156 466.194580078125 106.35348510742188" stroke-width="0.0" fill="rgb(58, 149, 189)" opacity="0.9581297" stroke="rgb(183, 188, 123)" stroke-opacity="0.5333234" stroke-linecap="round" stroke-linejoin="round"/>
    <path d="M 466.61016845703125 235.24354553222656 C 466.5037841796875 305.6226501464844 467.05084228515625 292.12359619140625 465.5657958984375 293.58203125 C 438.5419006347656 291.16644287109375 446.07281494140625 299.35760498046875 444.6148376464844 279.82696533203125 C 387.936279296875 280.6850280761719 400.56903076171875 285.2570495605469 451.2684631347656 215.7071075439453 C 461.6145935058594 253.56301879882812 449.1048583984375 249.56369018554688 466.61016845703125 235.24354553222656" stroke-width="0.0" fill="rgb(21, 53, 73)" opacity="0.90067196" stroke="rgb(210, 111, 175)" stroke-opacity="0.30796534" stroke-linecap="round" stroke-linejoin="round"/>
    <path d="M 356.32208251953125 220.47909545898438 C 405.3693542480469 223.47607421875 435.54638671875 238.44898986816406 306.0165100097656 219.52662658691406 C 126.03106689453125 223.0876007080078 239.90687561035156 205.42840576171875 324.3913269042969 215.43507385253906 C 325.0281677246094 195.27267456054688 320.5653076171875 214.64456176757812 337.984130859375 197.11788940429688 C 345.4808654785156 192.95257568359375 349.9559020996094 194.0164794921875 356.32208251953125 220.47909545898438" stroke-width="0.0" fill="rgb(6, 166, 255)" opacity="0.62325907" stroke="rgb(249, 107, 148)" stroke-opacity="0.14462379" stroke-linecap="round" stroke-linejoin="round"/>
    <path d="M 362.97998046875 424.0703430175781 C 371.12030029296875 453.0186462402344 354.2195739746094 442.3102722167969 338.0297546386719 431.93115234375 C 335.1280212402344 428.0222473144531 334.5656433105469 425.806396484375 318.4998474121094 410.93890380859375 C 316.2593688964844 397.3430480957031 309.5411682128906 392.607177734375 329.8845520019531 394.9996337890625 C 363.6422424316406 397.7252502441406 367.52642822265625 402.9776916503906 362.97998046875 424.0703430175781" stroke-width="0.0" fill="rgb(254, 156, 103)" opacity="0.6288322" stroke="rgb(130, 169, 185)" stroke-opacity="0.15326494" stroke-linecap="round" stroke-linejoin="round"/>
    <path d="M 374.49664306640625 437.739990234375 C 374.19049072265625 461.2193908691406 376.0589294433594 475.9273376464844 368.12713623046875 478.2928771972656 C 247.6662139892578 476.17132568359375 216.85391235351562 485.5448913574219 224.83059692382812 458.7391357421875 C 353.819580078125 423.6853332519531 357.182861328125 413.33392333984375 348.9112548828125 423.0719299316406 C 352.215576171875 424.54754638671875 375.192626953125 410.4527893066406 374.49664306640625 437.739990234375" stroke-width="0.0" fill="rgb(255, 148, 79)" opacity="0.8075617" stroke="rgb(248, 141, 66)" stroke-opacity="0.26671067" stroke-linecap="round" stroke-linejoin="round"/>
    <path d="M 334.0513000488281 395.416259765625 C 320.6053161621094 431.0995178222656 315.9664611816406 431.9278564453125 312.5964050292969 434.9528503417969 C 306.8827819824219 432.8155517578125 305.3121337890625 431.7948913574219 294.4065246582031 419.7112731933594 C 258.5690612792969 430.09844970703125 249.2498321533203 428.635009765625 248.9731903076172 376.9337158203125 C 310.2221984863281 364.6922607421875 336.7416076660156 368.59674072265625 334.0513000488281 395.416259765625" stroke-width="0.0" fill="rgb(254, 198, 118)" opacity="0.74716306" stroke="rgb(226, 177, 125)" stroke-opacity="0.61987096" stroke-linecap="round" stroke-linejoin="round"/>
    <path d="M 261.2076721191406 424.3856201171875 C 235.10855102539062 445.869140625 229.7770538330078 441.4195556640625 216.3658447265625 440.91802978515625 C 209.8764190673828 444.0624084472656 206.53504943847656 443.9659729003906 181.8876953125 397.0794677734375 C 126.74019622802734 349.3714599609375 156.71527099609375 342.8996887207031 271.6349792480469 341.3451843261719 C 277.5041809082031 413.9194030761719 263.128662109375 415.0781555175781 261.2076721191406 424.3856201171875" stroke-width="0.0" fill="rgb(208, 146, 112)" opacity="0.25837737" stroke="rgb(191, 15, 185)" stroke-opacity="0.04898221" stroke-linecap="round" stroke-linejoin="round"/>
    <path d="M 355.765380859375 196.8066864013672 C 352.5810546875 194.79428100585938 361.0487365722656 224.09349060058594 353.75775146484375 219.7628173828125 C 325.34747314453125 215.79022216796875 314.8700256347656 223.09030151367188 335.494140625 189.53839111328125 C 318.0286865234375 188.52713012695312 339.55780029296875 180.29946899414062 347.51409912109375 177.234130859375 C 369.1278381347656 179.64620971679688 361.5516052246094 160.03977966308594 355.765380859375 196.8066864013672" stroke-width="0.0" fill="rgb(255, 232, 200)" opacity="0.93187064" stroke="rgb(41, 91, 16)" stroke-opacity="0.4011914" stroke-linecap="round" stroke-linejoin="round"/>
    <path d="M 279.8161926269531 426.0365295410156 C 276.93719482421875 449.18572998046875 262.816162109375 443.9507751464844 232.8224639892578 460.4088439941406 C 221.0635223388672 461.98590087890625 223.1211395263672 458.5071716308594 224.64712524414062 427.1186218261719 C 230.3460235595703 421.8773193359375 236.4986114501953 419.51837158203125 257.365478515625 417.7435607910156 C 278.97882080078125 417.5381164550781 278.14520263671875 414.58868408203125 279.8161926269531 426.0365295410156" stroke-width="0.0" fill="rgb(252, 157, 119)" opacity="0.37182623" stroke="rgb(210, 175, 158)" stroke-opacity="0.08794482" stroke-linecap="round" stroke-linejoin="round"/>
    <path d="M 450.7688903808594 163.01370239257812 C 444.18011474609375 169.31497192382812 442.2986755371094 171.1348114013672 435.1678161621094 173.01266479492188 C 425.0152587890625 173.06207275390625 432.59619140625 164.40045166015625 419.32073974609375 152.52536010742188 C 420.41058349609375 148.98150634765625 422.35491943359375 149.48306274414062 435.1155090332031 147.37945556640625 C 459.0592041015625 142.6146697998047 482.1358947753906 135.76531982421875 450.7688903808594 163.01370239257812" stroke-width="0.0" fill="rgb(243, 195, 158)" opacity="0.816368" stroke="rgb(131, 247, 187)" stroke-opacity="0.9395547" stroke-linecap="round" stroke-linejoin="round"/>
    <path d="M 411.2035217285156 174.8799285888672 C 413.0184020996094 190.9683837890625 419.31854248046875 193.07437133789062 411.94061279296875 193.29286193847656 C 399.0101013183594 195.2526397705078 397.4186096191406 195.1779327392578 396.64276123046875 191.9658203125 C 382.0160827636719 167.7440643310547 364.0960693359375 175.68687438964844 406.31231689453125 179.67938232421875 C 413.82476806640625 182.4175567626953 418.0202941894531 180.966552734375 411.2035217285156 174.8799285888672" stroke-width="0.0" fill="rgb(242, 221, 201)" opacity="0.7939347" stroke="rgb(120, 253, 32)" stroke-opacity="0.8900807" stroke-linecap="round" stroke-linejoin="round"/>
    <path d="M 436.63629150390625 171.99375915527344 C 436.2182312011719 174.3826446533203 434.3795166015625 176.21006774902344 425.7068786621094 179.3462677001953 C 414.9275207519531 179.89381408691406 411.19482421875 177.46170043945312 410.33154296875 158.12432861328125 C 410.6004943847656 155.82818603515625 413.9219055175781 154.96026611328125 418.4052429199219 154.2593231201172 C 438.03790283203125 145.60458374023438 435.8453369140625 153.9779052734375 436.63629150390625 171.99375915527344" stroke-width="0.0" fill="rgb(233, 226, 195)" opacity="0.87283885" stroke="rgb(252, 62, 139)" stroke-opacity="0.8734354" stroke-linecap="round" stroke-linejoin="round"/>
    <path d="M 403.5994873046875 204.11325073242188 C 411.5221252441406 201.58151245117188 397.4891662597656 205.04425048828125 382.0857849121094 207.55487060546875 C 367.50201416015625 219.4258270263672 386.54742431640625 225.59506225585938 365.8331604003906 221.38279724121094 C 368.8423767089844 168.43899536132812 351.202392578125 164.44268798828125 364.7383117675781 175.79612731933594 C 404.596923828125 168.76239013671875 407.7974548339844 184.8791046142578 403.5994873046875 204.11325073242188" stroke-width="0.0" fill="rgb(255, 231, 186)" opacity="0.4922751" stroke="rgb(250, 57, 191)" stroke-opacity="0.20357412" stroke-linecap="round" stroke-linejoin="round"/>
    <path d="M 430.95745849609375 185.2294921875 C 434.07098388671875 186.139892578125 432.8920593261719 187.40179443359375 426.8971252441406 187.68028259277344 C 404.6959533691406 183.66673278808594 411.2003479003906 183.00399780273438 403.5198974609375 171.01695251464844 C 404.89825439453125 160.06271362304688 411.94049072265625 156.34735107421875 422.7658996582031 156.89544677734375 C 423.1820373535156 164.71603393554688 428.3525085449219 162.86212158203125 430.95745849609375 185.2294921875" stroke-width="0.0" fill="rgb(243, 234, 180)" opacity="0.9196475" stroke="rgb(114, 72, 171)" stroke-opacity="0.7749386" stroke-linecap="round" stroke-linejoin="round"/>
    <path d="M 399.9545593261719 339.5426025390625 C 399.51361083984375 410.3895568847656 403.9483337402344 415.96270751953125 373.9378967285156 416.74871826171875 C 311.8713073730469 408.5639953613281 313.73272705078125 397.6512451171875 329.87847900390625 365.5401916503906 C 368.33648681640625 359.8273010253906 347.2995300292969 360.07159423828125 362.1376647949219 265.6152038574219 C 369.6446228027344 318.2276611328125 345.0128479003906 369.4414978027344 399.9545593261719 339.5426025390625" stroke-width="0.0" fill="rgb(255, 230, 160)" opacity="0.5197015" stroke="rgb(0, 137, 165)" stroke-opacity="0.92865306" stroke-linecap="round" stroke-linejoin="round"/>
    <path d="M 382.1808776855469 414.7870788574219 C 365.7295837402344 430.611572265625 381.27825927734375 434.6208190917969 368.8697814941406 431.6617126464844 C 355.2803955078125 425.97479248046875 353.28167724609375 423.50018310546875 348.1650695800781 422.7013244628906 C 351.9308776855469 422.95697021484375 357.8209228515625 423.1717834472656 348.04461669921875 421.2126159667969 C 329.73065185546875 410.4153137207031 371.70550537109375 413.1716613769531 382.1808776855469 414.7870788574219" stroke-width="0.0" fill="rgb(251, 231, 200)" opacity="1.0" stroke="rgb(50, 252, 141)" stroke-opacity="0.97928756" stroke-linecap="round" stroke-linejoin="round"/>
    <path d="M 374.32550048828125 432.4450378417969 C 365.38006591796875 432.6463623046875 360.30859375 432.920166015625 346.4527893066406 433.8419494628906 C 329.2379150390625 433.00823974609375 321.3191223144531 442.5936279296875 334.1895446777344 423.598876953125 C 331.7908630371094 415.66876220703125 327.8059997558594 412.6094665527344 363.6869812011719 414.4307861328125 C 367.883056640625 414.8669128417969 366.96331787109375 419.5314636230469 374.32550048828125 432.4450378417969" stroke-width="0.0" fill="rgb(250, 231, 202)" opacity="0.9536874" stroke="rgb(67, 81, 60)" stroke-opacity="0.85083336" stroke-linecap="round" stroke-linejoin="round"/>
    <path d="M 400.34619140625 354.3316345214844 C 386.58099365234375 363.34881591796875 374.98028564453125 367.9353942871094 351.9682922363281 382.04669189453125 C 349.5227966308594 381.337890625 351.3226318359375 376.16729736328125 344.92620849609375 365.721435546875 C 318.38616943359375 343.9499206542969 339.7652893066406 342.61297607421875 376.0135192871094 332.1622314453125 C 396.9494934082031 330.82098388671875 399.5198669433594 332.1021423339844 400.34619140625 354.3316345214844" stroke-width="0.0" fill="rgb(252, 231, 201)" opacity="0.93191147" stroke="rgb(168, 189, 70)" stroke-opacity="0.03453263" stroke-linecap="round" stroke-linejoin="round"/>
    <path d="M 249.07164001464844 424.45611572265625 C 246.87522888183594 456.1982727050781 240.49697875976562 453.3346862792969 232.6197509765625 453.9019470214844 C 208.11573791503906 453.50390625 206.4651641845703 450.8719177246094 205.18797302246094 446.2839660644531 C 215.24598693847656 431.1716003417969 215.5236358642578 430.5047607421875 216.28536987304688 422.6593017578125 C 240.31565856933594 421.5976257324219 248.77816772460938 415.9096374511719 249.07164001464844 424.45611572265625" stroke-width="0.0" fill="rgb(234, 219, 192)" opacity="0.6770717" stroke="rgb(105, 168, 111)" stroke-opacity="0.6692631" stroke-linecap="round" stroke-linejoin="round"/>
    <path d="M 326.41839599609375 415.44805908203125 C 326.92767333984375 440.8701477050781 329.9107666015625 437.6419372558594 312.9755859375 438.7352600097656 C 278.2359924316406 439.8341979980469 287.1602783203125 452.779052734375 284.8769226074219 418.1184997558594 C 293.1320495605469 414.8335876464844 310.192626953125 416.0533752441406 317.6042785644531 415.208740234375 C 314.8092346191406 414.62823486328125 320.79473876953125 414.60919189453125 326.41839599609375 415.44805908203125" stroke-width="0.0" fill="rgb(249, 237, 208)" opacity="0.9194758" stroke="rgb(143, 7, 100)" stroke-opacity="0.74185854" stroke-linecap="round" stroke-linejoin="round"/>
    <path d="M 466.8445739746094 44.385108947753906 C 312.08660888671875 44.436744689941406 217.81289672851562 43.25996017456055 122.99612426757812 46.3406867980957 C 282.9916687011719 203.919189453125 493.1452941894531 88.42507934570312 429.8241271972656 158.10104370117188 C 431.9822082519531 155.3213348388672 436.670166015625 147.8709259033203 466.8371276855469 143.8760223388672 C 466.7754821777344 167.16897583007812 466.87542724609375 157.3523406982422 466.8445739746094 44.385108947753906" stroke-width="0.0" fill="rgb(58, 159, 206)" opacity="0.9293873" stroke="rgb(91, 25, 45)" stroke-opacity="0.18596663" stroke-linecap="round" stroke-linejoin="round"/>
    <path d="M 225.70860290527344 425.1072998046875 C 225.54513549804688 437.9159240722656 227.06813049316406 441.2608947753906 212.76023864746094 440.6857604980469 C 203.36123657226562 442.4754333496094 199.6407470703125 441.2459716796875 194.3656463623047 426.49700927734375 C 202.42384338378906 425.1506652832031 208.1021270751953 424.0773010253906 209.89552307128906 423.6892395019531 C 223.34805297851562 421.7674865722656 223.72674560546875 422.7796630859375 225.70860290527344 425.1072998046875" stroke-width="0.0" fill="rgb(251, 234, 213)" opacity="0.7902457" stroke="rgb(142, 119, 70)" stroke-opacity="0.85753083" stroke-linecap="round" stroke-linejoin="round"/>
    <path d="M 426.6799621582031 176.30393981933594 C 422.8876647949219 190.1881103515625 420.9411926269531 191.83706665039062 417.66009521484375 192.46226501464844 C 402.85052490234375 190.9199676513672 400.0687561035156 190.42762756347656 401.6317443847656 185.69955444335938 C 410.11639404296875 169.97071838378906 405.7528076171875 163.9235382080078 406.7704772949219 161.7771453857422 C 420.9543151855469 168.8308868408203 424.0014953613281 172.26248168945312 426.6799621582031 176.30393981933594" stroke-width="0.0" fill="rgb(239, 227, 198)" opacity="0.7843214" stroke="rgb(113, 202, 82)" stroke-opacity="0.7026772" stroke-linecap="round" stroke-linejoin="round"/>
    <path d="M 271.997802734375 309.07843017578125 C 272.04571533203125 360.84320068359375 271.3668518066406 351.2271423339844 274.6720886230469 352.3036193847656 C 235.90769958496094 351.2480163574219 242.9915313720703 357.66778564453125 242.0940704345703 341.9562072753906 C 243.1284942626953 309.8415832519531 237.93760681152344 300.6668701171875 256.1075134277344 292.5477294921875 C 262.40313720703125 292.79241943359375 270.93017578125 298.3885803222656 271.997802734375 309.07843017578125" stroke-width="0.0" fill="rgb(21, 57, 76)" opacity="0.97941285" stroke="rgb(188, 147, 45)" stroke-opacity="0.7303818" stroke-linecap="round" stroke-linejoin="round"/>
    <path d="M 439.0721130371094 172.32318115234375 C 436.5329284667969 201.0061492919922 439.7183837890625 210.14772033691406 436.1791687011719 207.7235565185547 C 423.9064636230469 205.32958984375 409.7516174316406 203.8773956298828 410.3089599609375 189.0258331298828 C 409.3585510253906 173.89959716796875 409.89227294921875 170.9088592529297 427.60174560546875 170.0167236328125 C 438.3169860839844 172.28384399414062 441.43646240234375 172.92674255371094 439.0721130371094 172.32318115234375" stroke-width="0.0" fill="rgb(254, 234, 205)" opacity="0.9264895" stroke="rgb(242, 247, 88)" stroke-opacity="0.9642804" stroke-linecap="round" stroke-linejoin="round"/>
    <path d="M 336.4441833496094 436.638427734375 C 332.2697448730469 438.1001892089844 324.7912902832031 436.44647216796875 299.6096496582031 439.8587341308594 C 278.35833740234375 445.9057312011719 268.79119873046875 443.841064453125 284.0332336425781 430.6845397949219 C 298.6602478027344 429.3077087402344 298.4805603027344 429.2788391113281 264.78338623046875 419.70587158203125 C 291.8458251953125 413.3731994628906 324.5312805175781 414.7308654785156 336.4441833496094 436.638427734375" stroke-width="0.0" fill="rgb(253, 197, 160)" opacity="0.12932958" stroke="rgb(147, 205, 53)" stroke-opacity="0.72092086" stroke-linecap="round" stroke-linejoin="round"/>
    <path d="M 438.7984313964844 207.41619873046875 C 446.01751708984375 210.8438262939453 447.16351318359375 210.01673889160156 407.4884948730469 209.9623260498047 C 400.7449951171875 203.31443786621094 406.07049560546875 210.2998046875 404.6372375488281 190.06893920898438 C 401.80279541015625 181.81805419921875 405.9385070800781 181.52310180664062 406.61517333984375 183.61163330078125 C 405.1743469238281 199.51712036132812 399.86798095703125 200.69882202148438 438.7984313964844 207.41619873046875" stroke-width="0.0" fill="rgb(255, 216, 143)" opacity="0.640971" stroke="rgb(165, 184, 191)" stroke-opacity="0.8552037" stroke-linecap="round" stroke-linejoin="round"/>
    <path d="M 199.24111938476562 432.5607604980469 C 195.08470153808594 456.45135498046875 191.11561584472656 454.31439208984375 185.36082458496094 450.5084533691406 C 171.720947265625 447.9040222167969 171.9726104736328 445.17340087890625 166.0415496826172 440.2088623046875 C 161.6969451904297 433.553466796875 166.6236114501953 431.18505859375 184.22634887695312 428.7175598144531 C 193.49034118652344 428.2857666015625 197.4677734375 422.9695129394531 199.24111938476562 432.5607604980469" stroke-width="0.0" fill="rgb(249, 231, 206)" opacity="0.7730921" stroke="rgb(114, 18, 2)" stroke-opacity="0.61082375" stroke-linecap="round" stroke-linejoin="round"/>
    <path d="M 287.6879577636719 442.18994140625 C 279.33697509765625 444.25335693359375 271.9998474121094 445.21728515625 253.3997039794922 451.6582336425781 C 233.89816284179688 457.63177490234375 236.11138916015625 462.8366394042969 243.0183563232422 439.2580871582031 C 242.3722381591797 418.8597717285156 237.37615966796875 420.0146179199219 275.0945739746094 417.17645263671875 C 280.9535217285156 417.1264953613281 281.83209228515625 421.0348815917969 287.6879577636719 442.18994140625" stroke-width="0.0" fill="rgb(251, 233, 204)" opacity="0.9388194" stroke="rgb(88, 219, 227)" stroke-opacity="0.68046445" stroke-linecap="round" stroke-linejoin="round"/>
    <path d="M 204.754638671875 450.53900146484375 C 199.30409240722656 462.3856506347656 199.64878845214844 465.8754577636719 186.4605712890625 465.0547180175781 C 178.71571350097656 464.3172302246094 179.22494506835938 466.2806396484375 180.5218048095703 454.6811828613281 C 177.0586395263672 443.3349609375 176.83265686035156 434.3580627441406 191.88624572753906 429.0431213378906 C 203.22586059570312 434.40631103515625 203.88916015625 440.5909729003906 204.754638671875 450.53900146484375" stroke-width="0.0" fill="rgb(251, 231, 201)" opacity="0.79958034" stroke="rgb(64, 178, 244)" stroke-opacity="0.8321844" stroke-linecap="round" stroke-linejoin="round"/>
    <path d="M 244.87197875976562 454.2677917480469 C 244.5788116455078 455.4263610839844 233.05738830566406 458.403564453125 221.31117248535156 465.9598083496094 C 195.9940948486328 466.19610595703125 195.8059844970703 465.8123779296875 193.9545135498047 452.4552001953125 C 199.7951202392578 436.5210876464844 201.47506713867188 434.62109375 212.77679443359375 432.71063232421875 C 227.2853240966797 434.19512939453125 229.79986572265625 435.4617004394531 244.87197875976562 454.2677917480469" stroke-width="0.0" fill="rgb(253, 235, 207)" opacity="0.87760097" stroke="rgb(214, 134, 73)" stroke-opacity="0.30004138" stroke-linecap="round" stroke-linejoin="round"/>
    <path d="M 466.961669921875 147.7322998046875 C 466.95684814453125 196.81915283203125 466.9568786621094 202.9514617919922 467.1097717285156 200.0675506591797 C 437.2069396972656 199.23782348632812 451.5043029785156 204.95516967773438 446.20745849609375 165.19073486328125 C 453.59173583984375 160.48292541503906 446.33056640625 147.32611083984375 458.9862060546875 144.43014526367188 C 468.9360656738281 144.01416015625 466.69024658203125 140.65821838378906 466.961669921875 147.7322998046875" stroke-width="0.0" fill="rgb(255, 243, 213)" opacity="0.7900062" stroke="rgb(172, 228, 37)" stroke-opacity="0.3450544" stroke-linecap="round" stroke-linejoin="round"/>
    <path d="M 463.95892333984375 173.14466857910156 C 469.5375671386719 198.15516662597656 464.5764465332031 204.6824951171875 447.867431640625 185.7132568359375 C 431.6764831542969 179.7726593017578 438.4435119628906 207.90341186523438 425.4110412597656 170.3196258544922 C 426.2176208496094 159.44271850585938 428.8963317871094 158.29859924316406 447.48223876953125 157.0474395751953 C 453.5965576171875 153.77261352539062 456.22894287109375 152.72216796875 463.95892333984375 173.14466857910156" stroke-width="0.0" fill="rgb(255, 233, 202)" opacity="0.6712667" stroke="rgb(123, 134, 141)" stroke-opacity="0.052487772" stroke-linecap="round" stroke-linejoin="round"/>
    <path d="M 223.0643768310547 171.6711883544922 C 218.87716674804688 192.61634826660156 228.87550354003906 184.0485076904297 202.4806365966797 190.95753479003906 C 179.0291748046875 194.71652221679688 183.93466186523438 201.0814208984375 185.52899169921875 182.94949340820312 C 191.41954040527344 163.6456298828125 196.84739685058594 150.40525817871094 228.75018310546875 127.78838348388672 C 271.99578857421875 124.81429290771484 233.33364868164062 116.90323638916016 223.0643768310547 171.6711883544922" stroke-width="0.0" fill="rgb(20, 51, 68)" opacity="0.88818926" stroke="rgb(70, 237, 171)" stroke-opacity="0.68190867" stroke-linecap="round" stroke-linejoin="round"/>
    <path d="M 265.8300476074219 120.93839263916016 C 234.36790466308594 128.56195068359375 229.0883331298828 126.41676330566406 206.2256622314453 145.2638397216797 C 200.1291961669922 154.1940460205078 210.02174377441406 136.42564392089844 121.93953704833984 134.1184844970703 C 116.00206756591797 23.28026008605957 121.89588165283203 47.438236236572266 175.88014221191406 88.16905975341797 C 247.53102111816406 134.4771270751953 262.741455078125 63.17616271972656 265.8300476074219 120.93839263916016" stroke-width="0.0" fill="rgb(63, 158, 200)" opacity="1.0" stroke="rgb(27, 98, 159)" stroke-opacity="0.8818968" stroke-linecap="round" stroke-linejoin="round"/>
    <path d="M 446.8276672363281 243.69154357910156 C 447.4669494628906 258.6600341796875 449.1916198730469 253.5576934814453 441.7945251464844 261.38812255859375 C 437.9915771484375 264.29022216796875 441.5640869140625 252.71986389160156 435.85894775390625 231.32510375976562 C 426.5211181640625 249.93850708007812 386.4762878417969 224.6677703857422 422.7071838378906 205.13424682617188 C 459.8553161621094 209.13616943359375 446.7518615722656 206.08486938476562 446.8276672363281 243.69154357910156" stroke-width="0.0" fill="rgb(255, 187, 109)" opacity="0.892647" stroke="rgb(227, 140, 23)" stroke-opacity="0.7134611" stroke-linecap="round" stroke-linejoin="round"/>
    <path d="M 166.64219665527344 334.30938720703125 C 166.20143127441406 340.9560852050781 167.1482696533203 341.58544921875 165.18331909179688 340.2799072265625 C 153.05113220214844 337.1561584472656 156.20738220214844 337.11871337890625 155.72596740722656 338.763916015625 C 156.05075073242188 270.888427734375 153.35296630859375 259.688232421875 163.6071014404297 263.3419189453125 C 168.1942596435547 273.99029541015625 166.02294921875 284.1454162597656 166.64219665527344 334.30938720703125" stroke-width="0.0" fill="rgb(0, 43, 72)" opacity="0.8439896" stroke="rgb(9, 69, 153)" stroke-opacity="0.6263898" stroke-linecap="round" stroke-linejoin="round"/>
    <path d="M 93.2131576538086 215.0260772705078 C 77.36337280273438 195.57901000976562 74.7254638671875 233.08050537109375 74.60942077636719 197.8389129638672 C 76.84255981445312 193.68963623046875 75.75890350341797 195.02760314941406 45.05253601074219 193.35955810546875 C 45.94589614868164 132.550537109375 42.68031692504883 116.42610168457031 55.077247619628906 174.22708129882812 C 80.22412109375 155.9801788330078 99.93175506591797 188.97068786621094 93.2131576538086 215.0260772705078" stroke-width="0.0" fill="rgb(250, 231, 201)" opacity="0.9408916" stroke="rgb(77, 200, 179)" stroke-opacity="0.2493474" stroke-linecap="round" stroke-linejoin="round"/>
    <path d="M 393.0798645019531 243.89613342285156 C 391.39923095703125 260.42138671875 406.6531982421875 256.16357421875 348.1626892089844 253.73617553710938 C 354.2207336425781 251.66334533691406 307.7934875488281 255.45944213867188 298.7457275390625 248.36683654785156 C 352.5050048828125 226.43299865722656 348.5407409667969 254.43463134765625 357.9917297363281 223.0196990966797 C 356.0951843261719 251.2940216064453 369.1825866699219 253.58177185058594 393.0798645019531 243.89613342285156" stroke-width="0.0" fill="rgb(255, 255, 250)" opacity="0.531006" stroke="rgb(92, 161, 2)" stroke-opacity="0.6466611" stroke-linecap="round" stroke-linejoin="round"/>
  </g>
</svg>
