<?xml version="1.0" ?>
<svg xmlns="http://www.w3.org/2000/svg" version="1.1" width="512" height="406">
  <defs/>
  <g>
    <path d="M 0.0 0.0 L 512.0 0.0 L 512.0 406.0 L 0.0 406.0 L 0.0 0.0" stroke-width="0.0" fill="rgb(255, 255, 255)" opacity="1.0" stroke="rgb(0, 0, 0)" stroke-opacity="0.0" stroke-linecap="round" stroke-linejoin="round"/>
    <path d="M 511.0 0.0 C 340.6666564941406 0.07718760520219803 170.3333282470703 0.9266740679740906 0.0 2.0 L 0.0 405.0 L 511.0 405.0 L 511.0 0.0" stroke-width="2.0" fill="rgb(255, 255, 255)" opacity="1.0" stroke="rgb(0, 0, 0)" stroke-opacity="0.0" stroke-linecap="round" stroke-linejoin="round"/>
    <path d="M 236.0 52.0 C 205.6666717529297 59.72687530517578 175.3333282470703 71.24524688720703 145.0 100.0 C 141.30023193359375 110.53630828857422 130.83750915527344 112.91702270507812 124.0 124.0 C 81.224365234375 193.3333282470703 80.59563446044922 262.6666564941406 128.0 332.0 C 189.1848907470703 404.7170104980469 258.53167724609375 408.7960510253906 323.0 398.0 C 360.294677734375 389.3433837890625 408.31170654296875 358.97320556640625 435.0 315.0 C 471.87750244140625 240.6666717529297 472.60302734375 166.3333282470703 397.0 92.0 C 365.6666564941406 67.75897216796875 334.3333435058594 53.335609436035156 303.0 51.0 C 300.5231018066406 64.64653015136719 275.2589111328125 73.90782928466797 273.0 56.0 C 274.1431579589844 53.119388580322266 279.6190185546875 49.45378112792969 275.0 48.0 C 262.3333435058594 48.233707427978516 249.6666717529297 50.22853088378906 236.0 52.0" stroke-width="2.0" fill="rgb(228, 189, 43)" opacity="1.0" stroke="rgb(0, 0, 0)" stroke-opacity="0.0" stroke-linecap="round" stroke-linejoin="round"/>
    <path d="M 54.0 26.0 C 55.660919189453125 36.66666793823242 64.8692398071289 47.33333206176758 60.0 58.0 C 66.78858947753906 64.7815933227539 71.32278442382812 72.06288146972656 74.0 81.0 C 71.27567291259766 86.66666412353516 64.83735656738281 92.33333587646484 74.0 98.0 C 90.77941131591797 97.19011688232422 72.67249298095703 119.45294189453125 90.0 122.0 C 92.81110382080078 133.6666717529297 97.46562957763672 145.3333282470703 103.0 157.0 C 113.72699737548828 140.3955078125 121.28189849853516 117.84282684326172 140.0 106.0 C 143.8422393798828 93.91134643554688 161.8348846435547 85.03694915771484 172.0 76.0 L 195.0 63.0 C 190.9817657470703 60.54761505126953 182.6802978515625 58.358768463134766 177.0 58.0 C 174.04638671875 48.16497039794922 164.11094665527344 51.514381408691406 158.0 53.0 C 140.6666717529297 45.957401275634766 123.33333587646484 46.417999267578125 106.0 37.0 C 89.0 37.2551383972168 72.0 28.30647087097168 54.0 26.0" stroke-width="2.0" fill="rgb(116, 142, 178)" opacity="1.0" stroke="rgb(0, 0, 0)" stroke-opacity="0.0" stroke-linecap="round" stroke-linejoin="round"/>
    <path d="M 233.0 198.0 C 217.03775024414062 177.4877471923828 193.213623046875 181.0703887939453 174.0 185.0 C 165.26795959472656 188.22323608398438 157.6356658935547 195.24288940429688 156.0 204.0 C 139.78465270996094 200.95562744140625 120.55726623535156 223.5132293701172 141.0 236.0 C 157.0823974609375 246.53965759277344 181.7925567626953 218.89154052734375 162.0 206.0 C 185.3333282470703 190.52073669433594 208.6666717529297 196.75999450683594 232.0 205.0 L 233.0 198.0" stroke-width="2.0" fill="rgb(150, 76, 28)" opacity="1.0" stroke="rgb(0, 0, 0)" stroke-opacity="0.0" stroke-linecap="round" stroke-linejoin="round"/>
    <path d="M 176.0 55.0 C 172.6666717529297 50.749874114990234 169.3333282470703 50.729671478271484 166.0 51.0 C 133.99343872070312 59.65619659423828 99.34212493896484 65.34357452392578 69.0 89.0 C 68.60118865966797 95.02643585205078 74.40262603759766 99.26371002197266 80.0 98.0 C 112.0 78.56751251220703 144.0 73.71067810058594 176.0 63.0 L 176.0 55.0" stroke-width="2.0" fill="rgb(15, 180, 189)" opacity="1.0" stroke="rgb(0, 0, 0)" stroke-opacity="0.0" stroke-linecap="round" stroke-linejoin="round"/>
    <path d="M 258.0 227.0 C 269.3333435058594 234.10096740722656 280.6666564941406 232.18678283691406 292.0 244.0 C 287.82440185546875 258.2442626953125 268.5967102050781 258.06964111328125 258.0 264.0 L 286.0 275.0 C 293.4668273925781 280.0 293.4668273925781 285.0 286.0 290.0 C 276.99407958984375 295.2073059082031 265.3412170410156 296.2076416015625 258.0 301.0 C 273.6666564941406 300.4215393066406 289.3333435058594 302.06890869140625 305.0 287.0 C 310.4822082519531 273.8237609863281 290.85400390625 267.9122314453125 282.0 264.0 C 290.6719970703125 259.9541320800781 312.6402587890625 252.36883544921875 304.0 239.0 C 289.0 227.13267517089844 274.0 226.099365234375 258.0 227.0" stroke-width="2.0" fill="rgb(105, 66, 16)" opacity="1.0" stroke="rgb(0, 0, 0)" stroke-opacity="0.0" stroke-linecap="round" stroke-linejoin="round"/>
    <path d="M 318.0 140.0 L 319.0 149.0 L 352.0 146.0 C 371.0 148.68545532226562 390.0 154.8079833984375 409.0 154.0 C 383.9875183105469 135.23007202148438 354.67596435546875 132.21397399902344 328.0 133.0 C 325.2860412597656 135.13768005371094 320.0638122558594 134.24205017089844 318.0 140.0" stroke-width="2.0" fill="rgb(103, 62, 17)" opacity="1.0" stroke="rgb(0, 0, 0)" stroke-opacity="0.0" stroke-linecap="round" stroke-linejoin="round"/>
    <path d="M 304.0 198.0 L 305.0 205.0 C 322.3333435058594 200.0191650390625 339.6666564941406 192.08599853515625 357.0 198.0 C 364.6439514160156 201.78036499023438 383.56976318359375 211.38929748535156 378.0 196.0 C 355.3333435058594 175.30934143066406 332.6666564941406 180.1314239501953 310.0 190.0 L 304.0 198.0" stroke-width="2.0" fill="rgb(101, 61, 17)" opacity="1.0" stroke="rgb(0, 0, 0)" stroke-opacity="0.0" stroke-linecap="round" stroke-linejoin="round"/>
    <path d="M 158.0 198.0 C 158.605224609375 200.65638732910156 156.38623046875 203.7111358642578 160.0 205.0 C 182.6666717529297 195.20901489257812 205.3333282470703 191.6119842529297 228.0 205.0 C 237.20481872558594 206.11032104492188 232.68528747558594 194.0897216796875 225.0 189.0 C 203.59532165527344 179.83328247070312 177.0971221923828 176.3291015625 158.0 198.0" stroke-width="2.0" fill="rgb(99, 59, 16)" opacity="1.0" stroke="rgb(0, 0, 0)" stroke-opacity="0.0" stroke-linecap="round" stroke-linejoin="round"/>
    <path d="M 157.0 204.0 C 139.4544677734375 199.76768493652344 119.40042114257812 225.80404663085938 143.0 237.0 C 161.3804168701172 246.4501495361328 182.57205200195312 211.21339416503906 157.0 204.0" stroke-width="2.0" fill="rgb(204, 93, 41)" opacity="1.0" stroke="rgb(0, 0, 0)" stroke-opacity="0.0" stroke-linecap="round" stroke-linejoin="round"/>
    <path d="M 391.0 202.0 C 377.3365173339844 204.9679412841797 369.18841552734375 223.42263793945312 382.0 234.0 C 397.6774597167969 245.8759307861328 425.42431640625 221.1488800048828 403.0 205.0 L 391.0 202.0" stroke-width="2.0" fill="rgb(205, 93, 42)" opacity="1.0" stroke="rgb(0, 0, 0)" stroke-opacity="0.0" stroke-linecap="round" stroke-linejoin="round"/>
    <path d="M 141.0 99.0 C 131.81369018554688 88.25133514404297 118.80218505859375 97.61721801757812 108.0 98.0 C 99.4539794921875 102.70875549316406 71.45841979980469 103.17904663085938 85.0 120.0 C 102.33333587646484 117.4022445678711 119.66666412353516 108.58598327636719 137.0 109.0 C 140.6980743408203 106.0 141.4177703857422 103.0 141.0 99.0" stroke-width="2.0" fill="rgb(16, 180, 189)" opacity="1.0" stroke="rgb(0, 0, 0)" stroke-opacity="0.0" stroke-linecap="round" stroke-linejoin="round"/>
    <path d="M 131.0 111.0 C 117.0 111.70267486572266 103.0 116.09149169921875 89.0 122.0 L 103.0 158.0 C 110.69342041015625 142.6666717529297 120.2485122680664 127.33333587646484 131.0 111.0" stroke-width="2.0" fill="rgb(201, 110, 167)" opacity="1.0" stroke="rgb(0, 0, 0)" stroke-opacity="0.0" stroke-linecap="round" stroke-linejoin="round"/>
    <path d="M 221.0 139.0 C 209.28713989257812 127.28564453125 193.36752319335938 135.0304412841797 180.0 134.0 C 167.3333282470703 136.75584411621094 154.6666717529297 139.8893585205078 142.0 144.0 C 138.3800506591797 147.2506103515625 130.39828491210938 146.6793670654297 130.0 152.0 C 159.6666717529297 148.7132110595703 189.3333282470703 140.42176818847656 219.0 146.0 C 222.36007690429688 144.81809997558594 220.55657958984375 142.46522521972656 221.0 139.0" stroke-width="2.0" fill="rgb(102, 61, 15)" opacity="1.0" stroke="rgb(0, 0, 0)" stroke-opacity="0.0" stroke-linecap="round" stroke-linejoin="round"/>
    <path d="M 111.0 40.0 C 95.0 30.574207305908203 79.0 49.454471588134766 63.0 51.0 C 52.788414001464844 61.00474548339844 70.46257781982422 69.12979125976562 77.0 63.0 C 88.33333587646484 56.702999114990234 99.66666412353516 53.32620620727539 111.0 49.0 L 111.0 40.0" stroke-width="2.0" fill="rgb(16, 180, 189)" opacity="1.0" stroke="rgb(0, 0, 0)" stroke-opacity="0.0" stroke-linecap="round" stroke-linejoin="round"/>
    <path d="M 53.0 26.0 C 58.4836540222168 34.58633041381836 57.34983444213867 53.8729133605957 71.0 48.0 L 96.0 37.0 L 53.0 26.0" stroke-width="2.0" fill="rgb(198, 112, 169)" opacity="1.0" stroke="rgb(0, 0, 0)" stroke-opacity="0.0" stroke-linecap="round" stroke-linejoin="round"/>
    <path d="M 169.0 96.0 C 163.91433715820312 109.37612915039062 185.53614807128906 113.54063415527344 194.0 114.0 C 207.76052856445312 99.4702377319336 178.56622314453125 89.85174560546875 169.0 96.0" stroke-width="2.0" fill="rgb(149, 194, 57)" opacity="1.0" stroke="rgb(0, 0, 0)" stroke-opacity="0.0" stroke-linecap="round" stroke-linejoin="round"/>
    <path d="M 2.0 189.0 C -4.618895053863525 196.825927734375 9.236748695373535 216.18710327148438 19.0 212.0 C 27.879732131958008 204.50770568847656 12.100022315979004 182.79171752929688 2.0 189.0" stroke-width="2.0" fill="rgb(49, 167, 218)" opacity="1.0" stroke="rgb(0, 0, 0)" stroke-opacity="0.0" stroke-linecap="round" stroke-linejoin="round"/>
    <path d="M 300.0 50.0 C 291.9535827636719 38.5743408203125 263.2091979980469 54.819820404052734 280.0 65.0 C 286.0458984375 65.34544372558594 301.84149169921875 60.454261779785156 300.0 50.0" stroke-width="2.0" fill="rgb(52, 167, 206)" opacity="1.0" stroke="rgb(0, 0, 0)" stroke-opacity="0.0" stroke-linecap="round" stroke-linejoin="round"/>
    <path d="M 311.0 0.0 C 298.2804260253906 9.790962219238281 319.46636962890625 37.0018310546875 327.0 19.0 C 324.8754577636719 11.904804229736328 321.6023254394531 -1.4680262804031372 311.0 0.0" stroke-width="2.0" fill="rgb(144, 195, 74)" opacity="1.0" stroke="rgb(0, 0, 0)" stroke-opacity="0.0" stroke-linecap="round" stroke-linejoin="round"/>
    <path d="M 455.0 42.0 C 440.4443664550781 37.423011779785156 434.2179260253906 72.15422058105469 452.0 66.0 C 456.9728698730469 58.33333206176758 461.764404296875 50.66666793823242 455.0 42.0" stroke-width="2.0" fill="rgb(47, 168, 218)" opacity="1.0" stroke="rgb(0, 0, 0)" stroke-opacity="0.0" stroke-linecap="round" stroke-linejoin="round"/>
    <path d="M 489.0 167.0 C 484.7127990722656 180.4798583984375 515.3742065429688 188.87733459472656 511.0 171.0 C 504.0 164.9706573486328 497.0 159.2876739501953 489.0 167.0" stroke-width="2.0" fill="rgb(246, 177, 78)" opacity="1.0" stroke="rgb(0, 0, 0)" stroke-opacity="0.0" stroke-linecap="round" stroke-linejoin="round"/>
    <path d="M 4.0 308.0 C 3.6485159397125244 319.9091491699219 23.920610427856445 321.4281005859375 28.0 310.0 C 25.84542465209961 299.60845947265625 10.25573444366455 298.7744140625 4.0 308.0" stroke-width="2.0" fill="rgb(144, 194, 75)" opacity="1.0" stroke="rgb(0, 0, 0)" stroke-opacity="0.0" stroke-linecap="round" stroke-linejoin="round"/>
    <path d="M 386.0 62.0 C 376.1745910644531 70.01100158691406 397.0904235839844 91.00238037109375 403.0 77.0 C 404.8710632324219 70.16320037841797 394.6529846191406 56.67386245727539 386.0 62.0" stroke-width="2.0" fill="rgb(244, 177, 77)" opacity="1.0" stroke="rgb(0, 0, 0)" stroke-opacity="0.0" stroke-linecap="round" stroke-linejoin="round"/>
    <path d="M 451.0 108.0 C 443.8294677734375 104.73307800292969 424.81280517578125 116.89810180664062 437.0 126.0 C 444.1031188964844 128.35914611816406 461.5366516113281 117.93184661865234 451.0 108.0" stroke-width="2.0" fill="rgb(144, 196, 76)" opacity="1.0" stroke="rgb(0, 0, 0)" stroke-opacity="0.0" stroke-linecap="round" stroke-linejoin="round"/>
    <path d="M 471.0 286.0 C 466.0198669433594 302.5578918457031 501.6945495605469 301.983642578125 491.0 285.0 C 484.6666564941406 283.4475402832031 478.3333435058594 279.1927490234375 471.0 286.0" stroke-width="2.0" fill="rgb(52, 168, 216)" opacity="1.0" stroke="rgb(0, 0, 0)" stroke-opacity="0.0" stroke-linecap="round" stroke-linejoin="round"/>
    <path d="M 207.0 34.0 C 198.91983032226562 41.21260070800781 214.4185333251953 61.38642501831055 223.0 49.0 C 225.5382843017578 41.998191833496094 216.05201721191406 29.011032104492188 207.0 34.0" stroke-width="2.0" fill="rgb(245, 177, 76)" opacity="1.0" stroke="rgb(0, 0, 0)" stroke-opacity="0.0" stroke-linecap="round" stroke-linejoin="round"/>
    <path d="M 77.0 118.0 C 63.37461853027344 116.40501403808594 62.4843635559082 144.3428192138672 78.0 137.0 C 84.88004302978516 131.30908203125 84.88004302978516 121.50338745117188 77.0 118.0" stroke-width="2.0" fill="rgb(143, 194, 75)" opacity="1.0" stroke="rgb(0, 0, 0)" stroke-opacity="0.0" stroke-linecap="round" stroke-linejoin="round"/>
    <path d="M 88.0 263.0 C 75.98825073242188 259.4935607910156 66.73949432373047 284.1482849121094 83.0 282.0 C 89.81700897216797 277.7911376953125 96.58753204345703 269.8184509277344 88.0 263.0" stroke-width="2.0" fill="rgb(244, 177, 75)" opacity="1.0" stroke="rgb(0, 0, 0)" stroke-opacity="0.0" stroke-linecap="round" stroke-linejoin="round"/>
  </g>
</svg>
