<?xml version="1.0" ?>
<svg xmlns="http://www.w3.org/2000/svg" version="1.1" width="407" height="512">
  <defs/>
  <g>
    <path d="M 214.75376892089844 68.89521026611328 C 203.55511474609375 83.05780792236328 200.00146484375 84.61054992675781 139.3856658935547 80.5095443725586 C 128.84048461914062 75.33211517333984 123.64615631103516 71.58911895751953 127.89971160888672 1.861567735671997 C 141.89559936523438 2.1435232162475586 137.77175903320312 1.9261270761489868 219.32200622558594 2.0312294960021973 C 212.7674560546875 10.754932403564453 215.8974151611328 7.523199558258057 214.75376892089844 68.89521026611328" stroke-width="0.0" fill="rgb(137, 176, 222)" opacity="0.24326812" stroke="rgb(220, 252, 34)" stroke-opacity="0.95023537" stroke-linecap="round" stroke-linejoin="round"/>
    <path d="M 107.87989807128906 357.86895751953125 C 126.05168151855469 332.42864990234375 125.4459228515625 423.7569274902344 102.07257843017578 400.71942138671875 C 54.83356475830078 435.518310546875 69.32058715820312 436.9603576660156 66.2704086303711 268.527587890625 C 87.19119262695312 283.1893005371094 94.39441680908203 382.2439880371094 89.70848083496094 270.30340576171875 C 113.31863403320312 269.9024658203125 103.49421691894531 253.27296447753906 107.87989807128906 357.86895751953125" stroke-width="0.0" fill="rgb(255, 249, 230)" opacity="0.8670835" stroke="rgb(10, 48, 173)" stroke-opacity="0.77879363" stroke-linecap="round" stroke-linejoin="round"/>
    <path d="M 327.7685852050781 521.41015625 C 144.8426971435547 447.7399597167969 310.32513427734375 396.74560546875 171.5279083251953 437.2265625 C 84.62686157226562 459.65863037109375 43.983638763427734 463.9294128417969 -8.889928817749023 478.2121276855469 C -4.433801651000977 338.5057678222656 38.55064392089844 472.0296630859375 183.35975646972656 405.34332275390625 C 76.74626159667969 297.1387023925781 214.4016876220703 251.593505859375 327.7685852050781 521.41015625" stroke-width="0.0" fill="rgb(24, 34, 59)" opacity="0.3364517" stroke="rgb(112, 90, 41)" stroke-opacity="0.7667503" stroke-linecap="round" stroke-linejoin="round"/>
    <path d="M 402.123291015625 469.958984375 C 369.8317565917969 475.8326721191406 386.18487548828125 484.1730041503906 384.7374267578125 488.3442077636719 C 387.6260986328125 471.13665771484375 353.1298522949219 475.6934509277344 356.538330078125 459.1278991699219 C 283.0989990234375 384.97357177734375 200.63525390625 295.0900573730469 308.7532653808594 384.44671630859375 C 390.0152587890625 459.14093017578125 397.99176025390625 460.82550048828125 402.123291015625 469.958984375" stroke-width="0.0" fill="rgb(255, 250, 233)" opacity="0.9407804" stroke="rgb(125, 140, 46)" stroke-opacity="0.5996705" stroke-linecap="round" stroke-linejoin="round"/>
    <path d="M 408.29290771484375 475.6824951171875 C 392.1614074707031 478.1230163574219 401.18975830078125 489.8433532714844 378.8930969238281 491.0179138183594 C 373.5894470214844 484.67181396484375 375.23785400390625 483.5997619628906 372.41650390625 489.3653564453125 C 383.1632385253906 469.0318908691406 368.5031433105469 459.9769287109375 388.80731201171875 458.2232360839844 C 403.5596008300781 468.598388671875 408.7198181152344 463.70062255859375 408.29290771484375 475.6824951171875" stroke-width="0.0" fill="rgb(252, 244, 230)" opacity="0.48123085" stroke="rgb(78, 68, 62)" stroke-opacity="0.9730402" stroke-linecap="round" stroke-linejoin="round"/>
    <path d="M 15.696342468261719 176.4192657470703 C 15.009716033935547 196.65765380859375 22.196895599365234 186.30531311035156 -9.264175415039062 190.60992431640625 C -6.468123912811279 192.33175659179688 -6.356531620025635 190.31967163085938 -4.4212188720703125 185.26991271972656 C -5.1402082443237305 174.74937438964844 -5.098365783691406 169.33253479003906 -3.511239767074585 173.64202880859375 C 4.7164788246154785 177.80950927734375 18.148754119873047 173.17929077148438 15.696342468261719 176.4192657470703" stroke-width="0.0" fill="rgb(255, 255, 240)" opacity="0.85876626" stroke="rgb(115, 163, 113)" stroke-opacity="0.2119705" stroke-linecap="round" stroke-linejoin="round"/>
    <path d="M 419.6030578613281 490.4585876464844 C 411.9261474609375 498.3044128417969 416.7474060058594 497.1304016113281 380.7418212890625 497.0816650390625 C 385.50787353515625 498.6846008300781 382.6087341308594 496.5714111328125 373.63006591796875 485.4195251464844 C 357.68511962890625 463.7709655761719 347.4844055175781 463.3312072753906 392.8360290527344 464.9082336425781 C 417.8262939453125 465.6952819824219 417.35107421875 460.49658203125 419.6030578613281 490.4585876464844" stroke-width="0.0" fill="rgb(253, 250, 236)" opacity="0.97714055" stroke="rgb(144, 123, 57)" stroke-opacity="0.11043889" stroke-linecap="round" stroke-linejoin="round"/>
    <path d="M 304.79034423828125 336.1939697265625 C 313.7812194824219 347.155517578125 305.4298095703125 352.74072265625 304.0707092285156 342.7481384277344 C 256.70135498046875 350.2154235839844 305.2183837890625 322.05047607421875 263.4422607421875 333.2201843261719 C 224.24815368652344 318.3431091308594 248.8942413330078 329.84893798828125 301.46405029296875 321.67578125 C 302.55657958984375 313.2021789550781 304.2693176269531 316.8026123046875 304.79034423828125 336.1939697265625" stroke-width="0.0" fill="rgb(255, 255, 238)" opacity="0.83817786" stroke="rgb(68, 145, 38)" stroke-opacity="0.3490212" stroke-linecap="round" stroke-linejoin="round"/>
    <path d="M 10.09151840209961 135.64556884765625 C 5.953185081481934 144.65480041503906 60.47161865234375 144.8846893310547 57.79029846191406 158.15956115722656 C 1.5308136940002441 147.84857177734375 -6.285484313964844 148.2902374267578 -11.081438064575195 145.76918029785156 C -6.509961128234863 121.34244537353516 3.356950521469116 114.79010009765625 8.207904815673828 125.44014739990234 C 44.77831268310547 135.16830444335938 53.54316329956055 139.41722106933594 10.09151840209961 135.64556884765625" stroke-width="0.0" fill="rgb(255, 255, 236)" opacity="0.82000935" stroke="rgb(59, 125, 95)" stroke-opacity="0.93241554" stroke-linecap="round" stroke-linejoin="round"/>
    <path d="M 409.1365051269531 171.4154052734375 C 288.485107421875 284.5760192871094 382.3854064941406 211.1777801513672 253.62892150878906 184.2595672607422 C 232.9238739013672 168.48715209960938 236.3780059814453 198.89622497558594 228.35826110839844 153.40472412109375 C 234.8111572265625 155.13352966308594 258.67010498046875 145.40750122070312 301.65191650390625 150.28712463378906 C 346.00665283203125 157.27610778808594 365.44964599609375 167.02513122558594 409.1365051269531 171.4154052734375" stroke-width="0.0" fill="rgb(53, 58, 76)" opacity="0.5988667" stroke="rgb(183, 15, 10)" stroke-opacity="0.5923688" stroke-linecap="round" stroke-linejoin="round"/>
    <path d="M 122.58699035644531 175.4993438720703 C 117.910888671875 165.77783203125 130.72267150878906 171.9996795654297 105.14311218261719 168.2830352783203 C 103.67340850830078 167.62721252441406 103.26581573486328 181.2646942138672 103.48436737060547 142.93914794921875 C 105.55380249023438 144.0306854248047 98.45873260498047 138.44134521484375 121.73124694824219 145.48948669433594 C 122.38789367675781 140.51412963867188 121.49048614501953 176.0977325439453 122.58699035644531 175.4993438720703" stroke-width="0.0" fill="rgb(255, 251, 231)" opacity="0.8987075" stroke="rgb(206, 94, 99)" stroke-opacity="0.7761533" stroke-linecap="round" stroke-linejoin="round"/>
    <path d="M 15.759416580200195 128.01797485351562 C 24.867168426513672 136.67950439453125 18.611658096313477 153.32989501953125 13.800907135009766 149.4051513671875 C -12.651019096374512 146.3104248046875 -11.216423988342285 145.2825164794922 -4.426127910614014 114.86068725585938 C -14.879013061523438 110.48975372314453 -15.741469383239746 109.90360260009766 7.810606956481934 115.70069122314453 C 13.478185653686523 118.40144348144531 2.0421295166015625 129.15711975097656 15.759416580200195 128.01797485351562" stroke-width="0.0" fill="rgb(250, 242, 225)" opacity="0.93168545" stroke="rgb(62, 62, 116)" stroke-opacity="0.87954026" stroke-linecap="round" stroke-linejoin="round"/>
    <path d="M 418.49676513671875 321.1517028808594 C 422.3984069824219 358.56243896484375 431.6500244140625 369.0531005859375 382.196533203125 353.87127685546875 C 356.54071044921875 331.0723571777344 344.7380676269531 363.8524475097656 304.1352233886719 324.1700134277344 C 234.28619384765625 201.79034423828125 305.2939147949219 309.9806823730469 407.98858642578125 171.32237243652344 C 473.9442138671875 153.42176818847656 431.8747253417969 211.7310333251953 418.49676513671875 321.1517028808594" stroke-width="0.0" fill="rgb(107, 72, 15)" opacity="0.46726677" stroke="rgb(116, 101, 162)" stroke-opacity="0.58868945" stroke-linecap="round" stroke-linejoin="round"/>
    <path d="M 296.9004821777344 304.2892761230469 C 301.3583679199219 327.23651123046875 309.7979431152344 321.8567810058594 263.2936096191406 324.6687316894531 C 248.45965576171875 320.6406555175781 231.96363830566406 314.98828125 232.9381866455078 315.5040283203125 C 244.95919799804688 276.7808532714844 256.84857177734375 299.9485778808594 253.9107208251953 272.5056457519531 C 262.2480163574219 298.36810302734375 268.66229248046875 267.09912109375 296.9004821777344 304.2892761230469" stroke-width="0.0" fill="rgb(11, 62, 125)" opacity="0.9031156" stroke="rgb(92, 201, 238)" stroke-opacity="0.3983616" stroke-linecap="round" stroke-linejoin="round"/>
    <path d="M 417.075927734375 398.078369140625 C 423.5096740722656 434.09722900390625 436.6915588378906 442.1082763671875 393.626708984375 438.17254638671875 C 372.1951904296875 441.50250244140625 377.3021240234375 416.6795654296875 376.5201721191406 393.12188720703125 C 380.6726989746094 383.0955505371094 432.2833251953125 408.21307373046875 339.9520263671875 338.0221252441406 C 445.1642761230469 327.6455383300781 425.5047607421875 364.1929931640625 417.075927734375 398.078369140625" stroke-width="0.0" fill="rgb(85, 92, 58)" opacity="1.0" stroke="rgb(74, 35, 143)" stroke-opacity="0.43566042" stroke-linecap="round" stroke-linejoin="round"/>
    <path d="M 70.16178131103516 188.38760375976562 C 53.78209686279297 133.8047332763672 72.36542510986328 220.361572265625 49.09872055053711 180.03448486328125 C 35.49225616455078 176.04835510253906 42.411895751953125 183.31048583984375 39.41633605957031 162.14808654785156 C 38.905757904052734 156.69381713867188 3.7303431034088135 173.132080078125 12.124444961547852 152.41456604003906 C 73.31068420410156 164.5615692138672 91.50875854492188 157.9403076171875 70.16178131103516 188.38760375976562" stroke-width="0.0" fill="rgb(255, 252, 233)" opacity="0.8622008" stroke="rgb(214, 35, 106)" stroke-opacity="0.5096644" stroke-linecap="round" stroke-linejoin="round"/>
    <path d="M 266.91302490234375 248.8001708984375 C 273.5354919433594 252.902099609375 276.7234802246094 251.095947265625 258.0195007324219 256.6394348144531 C 264.96258544921875 238.40380859375 268.3609619140625 249.61279296875 244.02249145507812 238.02337646484375 C 242.81556701660156 237.8702850341797 279.2719421386719 239.33013916015625 287.3917236328125 237.0027313232422 C 274.28558349609375 240.697509765625 279.77655029296875 239.665283203125 266.91302490234375 248.8001708984375" stroke-width="0.0" fill="rgb(255, 255, 234)" opacity="0.80604434" stroke="rgb(140, 250, 3)" stroke-opacity="0.006805166" stroke-linecap="round" stroke-linejoin="round"/>
    <path d="M 403.25872802734375 511.63494873046875 C 336.50958251953125 578.1804809570312 301.7056884765625 529.8402099609375 283.9542236328125 525.6239624023438 C 265.0732116699219 519.1502075195312 254.99798583984375 527.0977783203125 249.59181213378906 505.7406921386719 C 255.90028381347656 464.9367370605469 207.54519653320312 397.0632629394531 252.59823608398438 351.2576904296875 C 359.2961120605469 450.509521484375 372.9333190917969 501.240966796875 403.25872802734375 511.63494873046875" stroke-width="0.0" fill="rgb(155, 163, 174)" opacity="0.9302731" stroke="rgb(253, 237, 4)" stroke-opacity="0.8721329" stroke-linecap="round" stroke-linejoin="round"/>
    <path d="M 186.87261962890625 142.13018798828125 C 188.8213653564453 150.14697265625 189.5200653076172 147.43101501464844 182.88796997070312 147.424072265625 C 180.17431640625 145.2991180419922 145.23094177246094 145.45494079589844 123.96179962158203 146.4039764404297 C 125.25745391845703 144.76190185546875 130.3643341064453 122.1801528930664 154.4609832763672 119.6208724975586 C 178.0963134765625 118.96285247802734 185.7006072998047 139.41978454589844 186.87261962890625 142.13018798828125" stroke-width="0.0" fill="rgb(0, 59, 128)" opacity="0.77909774" stroke="rgb(61, 171, 134)" stroke-opacity="0.067736514" stroke-linecap="round" stroke-linejoin="round"/>
    <path d="M 302.86566162109375 250.3753662109375 C 305.7408447265625 250.92807006835938 287.5211486816406 253.78919982910156 286.4695129394531 254.62940979003906 C 265.10345458984375 254.0017547607422 257.7610778808594 264.6048278808594 258.2003173828125 244.3994598388672 C 277.13226318359375 251.96295166015625 275.38079833984375 231.57154846191406 296.4326171875 234.62191772460938 C 297.6485595703125 246.88108825683594 304.49951171875 185.85475158691406 302.86566162109375 250.3753662109375" stroke-width="0.0" fill="rgb(255, 249, 231)" opacity="0.8578902" stroke="rgb(68, 217, 94)" stroke-opacity="0.51996845" stroke-linecap="round" stroke-linejoin="round"/>
    <path d="M 257.256103515625 491.2952880859375 C 253.94595336914062 501.22406005859375 246.28456115722656 500.79266357421875 185.86575317382812 518.39208984375 C 177.9837646484375 524.2630615234375 178.2023468017578 523.0853271484375 189.21270751953125 506.91436767578125 C 214.17127990722656 469.40008544921875 225.26861572265625 454.1229248046875 230.0314178466797 444.0855407714844 C 239.3346405029297 475.38409423828125 247.98423767089844 477.08880615234375 257.256103515625 491.2952880859375" stroke-width="0.0" fill="rgb(68, 78, 94)" opacity="0.57142365" stroke="rgb(78, 119, 163)" stroke-opacity="0.94666386" stroke-linecap="round" stroke-linejoin="round"/>
    <path d="M 207.05548095703125 209.49427795410156 C 209.05023193359375 163.0140380859375 207.50096130371094 173.22279357910156 207.74154663085938 172.67837524414062 C 199.9580535888672 173.37551879882812 201.54017639160156 170.35324096679688 201.88839721679688 179.2216796875 C 199.8053741455078 151.7230224609375 205.9006805419922 124.82402801513672 214.06683349609375 150.49432373046875 C 205.23983764648438 147.3992156982422 209.5204315185547 130.8594207763672 207.05548095703125 209.49427795410156" stroke-width="0.0" fill="rgb(0, 29, 81)" opacity="0.54305786" stroke="rgb(143, 208, 21)" stroke-opacity="0.9582299" stroke-linecap="round" stroke-linejoin="round"/>
    <path d="M 262.2391357421875 246.47801208496094 C 266.898681640625 266.6219482421875 246.48202514648438 248.68655395507812 263.8409729003906 252.06890869140625 C 238.0993194580078 252.3446502685547 241.28797912597656 251.04087829589844 241.1744384765625 253.3277130126953 C 240.2153778076172 230.97158813476562 237.25502014160156 236.62448120117188 243.67758178710938 238.18301391601562 C 256.3762512207031 242.59039306640625 253.7483367919922 240.6157989501953 262.2391357421875 246.47801208496094" stroke-width="0.0" fill="rgb(30, 36, 0)" opacity="0.48336285" stroke="rgb(92, 38, 24)" stroke-opacity="0.4491665" stroke-linecap="round" stroke-linejoin="round"/>
    <path d="M 283.27752685546875 530.259033203125 C 267.54083251953125 526.3372802734375 262.9370422363281 524.0977172851562 240.4104766845703 522.15869140625 C 211.911865234375 522.3363647460938 204.9558563232422 525.9869995117188 196.3868408203125 496.8051452636719 C 217.3143310546875 473.8620910644531 234.4510040283203 488.7664794921875 233.9562225341797 371.8957214355469 C 305.72613525390625 477.2241516113281 345.8895568847656 474.1864318847656 283.27752685546875 530.259033203125" stroke-width="0.0" fill="rgb(116, 124, 137)" opacity="0.98536736" stroke="rgb(45, 38, 236)" stroke-opacity="0.14969863" stroke-linecap="round" stroke-linejoin="round"/>
    <path d="M 153.71463012695312 283.12579345703125 C 153.37594604492188 289.6903381347656 153.9293975830078 284.1944274902344 153.31277465820312 288.6114501953125 C 105.41931915283203 299.35260009765625 144.03683471679688 297.52130126953125 116.5167236328125 282.06732177734375 C 118.12244415283203 259.5310974121094 109.14383697509766 265.4436340332031 139.974609375 264.30322265625 C 158.50411987304688 265.6800231933594 150.9891357421875 259.3069152832031 153.71463012695312 283.12579345703125" stroke-width="0.0" fill="rgb(255, 245, 223)" opacity="0.7852371" stroke="rgb(90, 243, 105)" stroke-opacity="0.9281258" stroke-linecap="round" stroke-linejoin="round"/>
    <path d="M 75.14066314697266 125.84162902832031 C 81.44486999511719 136.79055786132812 81.75784301757812 141.89959716796875 70.13713836669922 142.8663330078125 C 69.9928207397461 143.0807647705078 69.94012451171875 117.4669418334961 70.0052490234375 120.45146179199219 C 67.18186950683594 117.30463409423828 69.66957092285156 98.548583984375 68.864501953125 97.30105590820312 C 74.70984649658203 101.21656799316406 90.32184600830078 94.41838073730469 75.14066314697266 125.84162902832031" stroke-width="0.0" fill="rgb(255, 255, 237)" opacity="0.7402939" stroke="rgb(42, 76, 115)" stroke-opacity="0.49517316" stroke-linecap="round" stroke-linejoin="round"/>
    <path d="M 337.178466796875 371.0094909667969 C 338.2731018066406 406.0230712890625 337.6612243652344 411.70751953125 337.507080078125 410.8832702636719 C 313.81719970703125 391.26141357421875 308.03936767578125 383.9130859375 290.2352294921875 370.16265869140625 C 294.0445861816406 355.01019287109375 305.6117858886719 362.5135498046875 319.31036376953125 359.8221740722656 C 336.52117919921875 355.6890563964844 337.3310546875 360.13470458984375 337.178466796875 371.0094909667969" stroke-width="0.0" fill="rgb(67, 42, 31)" opacity="0.8814704" stroke="rgb(95, 181, 29)" stroke-opacity="0.18707576" stroke-linecap="round" stroke-linejoin="round"/>
    <path d="M 104.6313705444336 134.3982391357422 C 74.84146881103516 125.20450592041016 87.19811248779297 142.42098999023438 69.9490966796875 144.96556091308594 C 69.99420166015625 145.76072692871094 70.02670288085938 142.18942260742188 70.00679016113281 126.41674041748047 C 69.4180908203125 117.3903579711914 89.45164489746094 131.26698303222656 73.04141998291016 116.27471160888672 C 103.14479064941406 125.66746520996094 107.95762634277344 112.40453338623047 104.6313705444336 134.3982391357422" stroke-width="0.0" fill="rgb(255, 252, 233)" opacity="0.86205906" stroke="rgb(116, 4, 237)" stroke-opacity="0.5163962" stroke-linecap="round" stroke-linejoin="round"/>
    <path d="M 127.41751098632812 214.31634521484375 C 124.64423370361328 214.9462127685547 112.77369689941406 214.18650817871094 109.55238342285156 215.15093994140625 C 50.908912658691406 215.14903259277344 44.1914176940918 215.39126586914062 45.3662223815918 215.623291015625 C 50.8166389465332 193.4620361328125 60.538185119628906 185.8349609375 71.95042419433594 180.81707763671875 C 98.0425796508789 173.60720825195312 120.62356567382812 182.89170837402344 127.41751098632812 214.31634521484375" stroke-width="0.0" fill="rgb(0, 59, 127)" opacity="0.7646887" stroke="rgb(2, 154, 253)" stroke-opacity="0.26703516" stroke-linecap="round" stroke-linejoin="round"/>
    <path d="M 446.49114990234375 331.0621337890625 C 303.1203918457031 329.94940185546875 345.4192810058594 387.0762023925781 334.8993225097656 343.4439392089844 C 301.9725646972656 333.05377197265625 303.3788757324219 352.7236633300781 303.6880187988281 324.703857421875 C 305.43536376953125 309.5787658691406 296.390380859375 319.80322265625 318.0849914550781 325.8819274902344 C 400.2673034667969 348.62200927734375 345.27374267578125 212.40057373046875 446.49114990234375 331.0621337890625" stroke-width="0.0" fill="rgb(66, 67, 77)" opacity="1.0" stroke="rgb(172, 16, 98)" stroke-opacity="0.95962435" stroke-linecap="round" stroke-linejoin="round"/>
    <path d="M 337.63134765625 385.6556396484375 C 292.9776306152344 385.6379089355469 324.6237487792969 390.37469482421875 309.6954650878906 384.2445983886719 C 297.98828125 374.30572509765625 297.2832946777344 370.04315185546875 290.69921875 368.03424072265625 C 293.6261291503906 360.4987487792969 286.9173583984375 362.33489990234375 305.67034912109375 359.5421447753906 C 346.17730712890625 354.3738098144531 335.93206787109375 358.7304992675781 337.63134765625 385.6556396484375" stroke-width="0.0" fill="rgb(158, 107, 69)" opacity="0.9762007" stroke="rgb(33, 176, 176)" stroke-opacity="0.8013271" stroke-linecap="round" stroke-linejoin="round"/>
    <path d="M 238.56553649902344 252.66749572753906 C 244.74746704101562 245.03213500976562 227.80870056152344 231.89468383789062 239.30728149414062 230.6538543701172 C 229.3344268798828 231.2090301513672 225.60658264160156 226.75369262695312 224.53680419921875 217.8072509765625 C 227.31692504882812 210.2286834716797 214.86770629882812 210.96450805664062 238.8701171875 211.72817993164062 C 239.23280334472656 203.13352966308594 242.5788116455078 223.60357666015625 238.56553649902344 252.66749572753906" stroke-width="0.0" fill="rgb(255, 255, 255)" opacity="0.7976753" stroke="rgb(247, 175, 121)" stroke-opacity="0.3503004" stroke-linecap="round" stroke-linejoin="round"/>
    <path d="M 232.16427612304688 243.51649475097656 C 231.3482208251953 260.4580383300781 235.67076110839844 254.56312561035156 223.72901916503906 256.4339294433594 C 222.500244140625 212.87109375 225.8260040283203 191.35574340820312 225.28341674804688 292.2034606933594 C 223.31674194335938 233.34039306640625 225.43109130859375 207.78636169433594 224.15928649902344 217.54624938964844 C 239.922607421875 218.11175537109375 231.49220275878906 219.36595153808594 232.16427612304688 243.51649475097656" stroke-width="0.0" fill="rgb(255, 254, 241)" opacity="0.9035227" stroke="rgb(12, 56, 227)" stroke-opacity="0.5877355" stroke-linecap="round" stroke-linejoin="round"/>
    <path d="M 71.9512939453125 271.242919921875 C 66.48619079589844 277.9181213378906 67.25578308105469 276.37091064453125 48.7530517578125 276.50897216796875 C 24.07533073425293 275.99261474609375 26.94161033630371 278.119873046875 28.439083099365234 270.5068359375 C 56.62363815307617 270.4817199707031 71.3609848022461 270.1781921386719 70.70435333251953 272.5544738769531 C 62.22623062133789 272.195068359375 67.91902160644531 269.62481689453125 71.9512939453125 271.242919921875" stroke-width="0.0" fill="rgb(255, 255, 240)" opacity="0.807117" stroke="rgb(43, 24, 110)" stroke-opacity="0.26388294" stroke-linecap="round" stroke-linejoin="round"/>
    <path d="M 144.20120239257812 351.6901550292969 C 150.98890686035156 370.661376953125 149.56822204589844 367.2984313964844 133.00343322753906 382.0594482421875 C 133.00929260253906 364.3136901855469 132.98585510253906 363.9198913574219 132.906494140625 352.516845703125 C 130.51527404785156 346.9402160644531 132.29493713378906 329.27288818359375 131.7779541015625 328.9970703125 C 141.47340393066406 348.7196350097656 145.30079650878906 346.3972473144531 144.20120239257812 351.6901550292969" stroke-width="0.0" fill="rgb(255, 255, 244)" opacity="1.0" stroke="rgb(139, 124, 210)" stroke-opacity="0.7788089" stroke-linecap="round" stroke-linejoin="round"/>
    <path d="M 358.7132263183594 378.73370361328125 C 359.26055908203125 416.6324768066406 359.01708984375 415.9164733886719 359.0016784667969 412.4274597167969 C 344.3468322753906 407.3770751953125 348.088134765625 408.4560241699219 347.6372375488281 408.19329833984375 C 348.13037109375 364.07537841796875 346.5665588378906 372.8553771972656 350.31475830078125 368.40179443359375 C 357.355224609375 367.801513671875 358.9813537597656 378.7734069824219 358.7132263183594 378.73370361328125" stroke-width="0.0" fill="rgb(0, 38, 93)" opacity="0.8934365" stroke="rgb(211, 192, 198)" stroke-opacity="0.88544524" stroke-linecap="round" stroke-linejoin="round"/>
    <path d="M 352.0945739746094 231.1960906982422 C 281.58880615234375 204.35140991210938 317.24102783203125 213.9137725830078 308.2581787109375 208.65203857421875 C 272.3664245605469 207.70394897460938 283.39727783203125 213.43246459960938 281.14520263671875 198.54193115234375 C 285.0606689453125 183.22451782226562 254.0736083984375 204.4417724609375 265.42633056640625 180.9980010986328 C 466.9095458984375 180.70135498046875 427.0423583984375 165.64390563964844 352.0945739746094 231.1960906982422" stroke-width="0.0" fill="rgb(123, 139, 166)" opacity="1.0" stroke="rgb(42, 41, 11)" stroke-opacity="0.68944716" stroke-linecap="round" stroke-linejoin="round"/>
    <path d="M 146.28997802734375 342.7630920410156 C 150.2080841064453 377.42816162109375 149.57659912109375 366.8521423339844 139.2936248779297 377.9021911621094 C 128.0594024658203 386.8960876464844 131.5281524658203 386.7192077636719 131.58705139160156 377.2821960449219 C 131.82827758789062 324.0559387207031 129.92555236816406 330.5445251464844 144.74273681640625 349.3739013671875 C 147.8504638671875 354.4847106933594 144.59860229492188 353.2674560546875 146.28997802734375 342.7630920410156" stroke-width="0.0" fill="rgb(243, 232, 211)" opacity="0.672606" stroke="rgb(195, 54, 129)" stroke-opacity="0.593596" stroke-linecap="round" stroke-linejoin="round"/>
    <path d="M 24.278579711914062 184.40310668945312 C 25.249794006347656 185.4384002685547 20.764480590820312 186.18893432617188 33.100791931152344 186.04493713378906 C 9.074429512023926 187.04306030273438 17.41042709350586 186.88482666015625 16.166330337524414 186.40652465820312 C 16.27640151977539 176.134521484375 15.946802139282227 160.05926513671875 16.32146644592285 162.8992462158203 C 31.713226318359375 162.54611206054688 21.169742584228516 166.2064208984375 24.278579711914062 184.40310668945312" stroke-width="0.0" fill="rgb(88, 107, 139)" opacity="1.0" stroke="rgb(47, 54, 182)" stroke-opacity="0.285547" stroke-linecap="round" stroke-linejoin="round"/>
    <path d="M 72.23455047607422 97.93821716308594 C 81.15433502197266 100.79847717285156 74.76777648925781 97.61185455322266 61.484474182128906 96.50079345703125 C 50.99908447265625 97.51506042480469 32.646583557128906 95.87803649902344 29.69637107849121 99.65313720703125 C 32.109859466552734 98.02975463867188 32.52284240722656 86.43383026123047 48.6513786315918 82.82992553710938 C 61.9144172668457 83.41455841064453 68.20903015136719 89.75041198730469 72.23455047607422 97.93821716308594" stroke-width="0.0" fill="rgb(0, 56, 124)" opacity="0.8013543" stroke="rgb(146, 162, 89)" stroke-opacity="0.7930104" stroke-linecap="round" stroke-linejoin="round"/>
    <path d="M 90.61459350585938 314.2041015625 C 89.79949951171875 317.03131103515625 94.70597076416016 315.62591552734375 83.31269836425781 319.3470764160156 C 82.90137481689453 321.0286560058594 83.46662139892578 297.5923156738281 82.8179702758789 282.4462585449219 C 84.09423065185547 299.371337890625 82.1122817993164 285.07940673828125 83.47105407714844 290.74444580078125 C 92.05915069580078 292.8728332519531 89.8772964477539 280.7073669433594 90.61459350585938 314.2041015625" stroke-width="0.0" fill="rgb(23, 64, 119)" opacity="0.87883794" stroke="rgb(53, 60, 14)" stroke-opacity="0.313877" stroke-linecap="round" stroke-linejoin="round"/>
    <path d="M 31.179746627807617 315.0787048339844 C 30.8215274810791 356.24920654296875 35.4010124206543 356.56317138671875 13.12220287322998 354.76385498046875 C 13.408912658691406 350.439208984375 12.925989151000977 346.10797119140625 12.872549057006836 314.5501403808594 C 13.507597923278809 313.3467712402344 9.099569320678711 313.82244873046875 29.64708137512207 313.8980407714844 C 33.662071228027344 314.1515197753906 30.019628524780273 313.7713623046875 31.179746627807617 315.0787048339844" stroke-width="0.0" fill="rgb(0, 14, 67)" opacity="0.6486866" stroke="rgb(105, 211, 161)" stroke-opacity="0.4278859" stroke-linecap="round" stroke-linejoin="round"/>
    <path d="M 31.297523498535156 343.20880126953125 C 31.621156692504883 356.20025634765625 31.673675537109375 356.98876953125 31.562522888183594 355.58905029296875 C 6.90158224105835 355.48333740234375 13.933045387268066 354.86566162109375 12.738558769226074 357.51556396484375 C 13.759050369262695 301.86138916015625 8.271950721740723 315.9870300292969 30.07965850830078 314.03082275390625 C 31.650651931762695 317.9593811035156 29.934232711791992 322.9487609863281 31.297523498535156 343.20880126953125" stroke-width="0.0" fill="rgb(14, 59, 115)" opacity="0.9076269" stroke="rgb(79, 231, 232)" stroke-opacity="0.71576506" stroke-linecap="round" stroke-linejoin="round"/>
    <path d="M 408.857177734375 329.5361633300781 C 382.5309753417969 333.9670104980469 398.3297119140625 313.69415283203125 323.8191223144531 243.35470581054688 C 314.1651306152344 246.6512908935547 320.2988586425781 250.4294891357422 317.5871276855469 225.49241638183594 C 317.77655029296875 194.64537048339844 313.4325256347656 242.4010009765625 363.51629638671875 212.84115600585938 C 439.620849609375 175.7138671875 427.6047668457031 144.82322692871094 408.857177734375 329.5361633300781" stroke-width="0.0" fill="rgb(93, 128, 169)" opacity="0.8422197" stroke="rgb(79, 214, 91)" stroke-opacity="0.07323081" stroke-linecap="round" stroke-linejoin="round"/>
    <path d="M 104.83634948730469 280.631591796875 C 85.05902862548828 298.304443359375 81.2829360961914 284.527587890625 82.00299072265625 297.8796081542969 C 64.58355712890625 309.1390686035156 68.52098083496094 304.0005187988281 68.08223724365234 285.406982421875 C 67.12409210205078 270.4994201660156 72.71171569824219 272.09881591796875 69.4677505493164 270.5165100097656 C 106.45318603515625 270.7430419921875 105.4721450805664 267.8731689453125 104.83634948730469 280.631591796875" stroke-width="0.0" fill="rgb(252, 244, 227)" opacity="0.9620577" stroke="rgb(75, 213, 184)" stroke-opacity="0.7111646" stroke-linecap="round" stroke-linejoin="round"/>
    <path d="M 38.20732116699219 198.0177764892578 C 32.45093536376953 201.57493591308594 26.299623489379883 207.7522430419922 17.87117576599121 221.97975158691406 C 16.836252212524414 228.95257568359375 18.027545928955078 211.57525634765625 16.4442138671875 198.8594207763672 C 18.091976165771484 193.17141723632812 9.798653602600098 196.03697204589844 41.698368072509766 195.47032165527344 C 48.16482925415039 198.03717041015625 37.053955078125 194.39834594726562 38.20732116699219 198.0177764892578" stroke-width="0.0" fill="rgb(255, 255, 246)" opacity="0.8495802" stroke="rgb(27, 13, 79)" stroke-opacity="0.8806689" stroke-linecap="round" stroke-linejoin="round"/>
    <path d="M 132.70411682128906 231.8705291748047 C 133.09254455566406 224.4700469970703 133.22494506835938 234.95274353027344 132.7080078125 248.17324829101562 C 105.08296203613281 249.2759552001953 113.03533935546875 267.29473876953125 111.09744262695312 217.2054443359375 C 110.32678985595703 214.6973876953125 110.58332061767578 217.4874267578125 139.73876953125 214.09967041015625 C 129.41981506347656 210.3072967529297 134.10507202148438 221.1658935546875 132.70411682128906 231.8705291748047" stroke-width="0.0" fill="rgb(255, 239, 198)" opacity="0.8915365" stroke="rgb(109, 100, 231)" stroke-opacity="0.58626926" stroke-linecap="round" stroke-linejoin="round"/>
    <path d="M 235.0481719970703 420.4974365234375 C 99.27919006347656 458.511962890625 123.68962097167969 433.5402526855469 201.05711364746094 395.0992431640625 C 140.73660278320312 394.0477294921875 136.00001525878906 393.17083740234375 137.8202362060547 393.56011962890625 C 149.4725799560547 383.9095764160156 159.66757202148438 381.43634033203125 164.57383728027344 369.15594482421875 C 233.60398864746094 329.1036071777344 211.6277313232422 294.6202087402344 235.0481719970703 420.4974365234375" stroke-width="0.0" fill="rgb(117, 125, 140)" opacity="0.953403" stroke="rgb(47, 35, 171)" stroke-opacity="0.7883323" stroke-linecap="round" stroke-linejoin="round"/>
    <path d="M 15.00708293914795 170.34727478027344 C 15.102409362792969 184.77403259277344 15.459653854370117 185.88734436035156 9.443267822265625 181.67916870117188 C 10.934355735778809 179.07167053222656 13.115989685058594 174.85232543945312 8.737369537353516 183.1565704345703 C 7.127788066864014 179.2674560546875 8.730446815490723 157.2867431640625 7.168696403503418 151.2808837890625 C 15.150314331054688 155.17807006835938 14.94410228729248 151.0624237060547 15.00708293914795 170.34727478027344" stroke-width="0.0" fill="rgb(252, 247, 231)" opacity="0.9877401" stroke="rgb(74, 222, 143)" stroke-opacity="0.19056518" stroke-linecap="round" stroke-linejoin="round"/>
    <path d="M 38.453670501708984 271.7900695800781 C 50.10920333862305 275.6671447753906 19.564069747924805 278.3122253417969 8.641473770141602 275.2318115234375 C 43.17675018310547 274.2524108886719 28.481327056884766 277.7303466796875 -7.804861068725586 274.3365173339844 C 3.500828504562378 268.5901794433594 3.7691900730133057 272.418701171875 15.669724464416504 270.6075134277344 C 42.2154541015625 270.2490234375 35.78158187866211 271.7648620605469 38.453670501708984 271.7900695800781" stroke-width="0.0" fill="rgb(247, 244, 235)" opacity="0.90455747" stroke="rgb(58, 46, 86)" stroke-opacity="0.93517447" stroke-linecap="round" stroke-linejoin="round"/>
    <path d="M 33.230098724365234 180.54159545898438 C 31.251808166503906 199.85301208496094 41.37640380859375 187.12240600585938 25.333370208740234 189.6141815185547 C 22.778453826904297 190.22610473632812 24.718027114868164 183.76950073242188 24.33962631225586 187.7268829345703 C 23.941730499267578 173.9835662841797 24.931394577026367 153.84556579589844 21.830120086669922 156.07476806640625 C 37.43951416015625 166.62338256835938 31.882200241088867 162.23956298828125 33.230098724365234 180.54159545898438" stroke-width="0.0" fill="rgb(255, 253, 238)" opacity="0.92323756" stroke="rgb(83, 85, 187)" stroke-opacity="0.55721873" stroke-linecap="round" stroke-linejoin="round"/>
    <path d="M 14.455982208251953 271.541748046875 C 16.139129638671875 275.20953369140625 9.72608470916748 267.4917907714844 33.85556411743164 273.8088684082031 C 29.785192489624023 277.18206787109375 -9.412586212158203 277.15496826171875 -12.68581485748291 274.7372131347656 C -14.201041221618652 268.2584533691406 5.823886394500732 271.8507995605469 43.14451217651367 268.1134033203125 C -3.962158441543579 270.55377197265625 8.5440034866333 270.9268798828125 14.455982208251953 271.541748046875" stroke-width="0.0" fill="rgb(255, 250, 231)" opacity="0.66540426" stroke="rgb(212, 169, 142)" stroke-opacity="0.047216386" stroke-linecap="round" stroke-linejoin="round"/>
    <path d="M 225.9017791748047 113.12538146972656 C 186.5964813232422 115.7856674194336 206.3860626220703 100.93186950683594 198.1782684326172 154.07772827148438 C 195.75962829589844 97.21633911132812 204.32144165039062 114.29950714111328 195.11038208007812 111.14652252197266 C 202.61558532714844 125.51202392578125 194.17147827148438 105.96153259277344 208.93214416503906 94.06654357910156 C 220.97422790527344 83.87039947509766 234.86032104492188 125.84272766113281 225.9017791748047 113.12538146972656" stroke-width="0.0" fill="rgb(0, 52, 116)" opacity="0.5724823" stroke="rgb(243, 184, 160)" stroke-opacity="0.2815421" stroke-linecap="round" stroke-linejoin="round"/>
    <path d="M 133.60830688476562 222.11830139160156 C 131.0802764892578 258.22552490234375 138.77346801757812 262.66839599609375 116.62275695800781 253.1754608154297 C 108.71649932861328 254.09291076660156 110.94066619873047 255.9306640625 110.37580871582031 223.52171325683594 C 111.14743041992188 213.32406616210938 106.78063201904297 215.7978057861328 119.58309936523438 214.8683319091797 C 137.3534698486328 215.60411071777344 132.8521270751953 210.5784149169922 133.60830688476562 222.11830139160156" stroke-width="0.0" fill="rgb(255, 255, 252)" opacity="0.5222863" stroke="rgb(229, 203, 225)" stroke-opacity="0.5670822" stroke-linecap="round" stroke-linejoin="round"/>
    <path d="M 148.08753967285156 298.3020935058594 C 146.22412109375 344.8318786621094 149.548095703125 370.5590515136719 144.99087524414062 354.13287353515625 C 140.19737243652344 340.5470275878906 130.782958984375 345.3436584472656 131.33619689941406 326.9930725097656 C 126.8017578125 312.7586669921875 126.48780059814453 325.0223083496094 147.79098510742188 311.41424560546875 C 150.6296844482422 329.63299560546875 148.23072814941406 343.5932312011719 148.08753967285156 298.3020935058594" stroke-width="0.0" fill="rgb(255, 249, 230)" opacity="0.9072412" stroke="rgb(153, 197, 44)" stroke-opacity="0.2894132" stroke-linecap="round" stroke-linejoin="round"/>
    <path d="M 180.3887176513672 154.15003967285156 C 179.58169555664062 177.9257049560547 181.8612823486328 171.3827667236328 172.59446716308594 172.53515625 C 172.02047729492188 162.1914520263672 173.30242919921875 137.1492156982422 171.35189819335938 151.46505737304688 C 174.19461059570312 154.7218017578125 165.4869384765625 142.83387756347656 181.1872100830078 148.0672607421875 C 189.0814666748047 145.07225036621094 177.68954467773438 160.59754943847656 180.3887176513672 154.15003967285156" stroke-width="0.0" fill="rgb(255, 255, 237)" opacity="0.8426114" stroke="rgb(123, 91, 42)" stroke-opacity="0.08984571" stroke-linecap="round" stroke-linejoin="round"/>
    <path d="M 225.11190795898438 309.0804443359375 C 240.87997436523438 326.49969482421875 237.64784240722656 323.0946044921875 204.39276123046875 310.8784484863281 C 206.15309143066406 309.9930419921875 201.544921875 302.24359130859375 197.29652404785156 293.07220458984375 C 191.86846923828125 279.9209899902344 187.32444763183594 283.4858703613281 206.74929809570312 282.94134521484375 C 206.5835723876953 281.0072021484375 210.00411987304688 290.1946716308594 225.11190795898438 309.0804443359375" stroke-width="0.0" fill="rgb(255, 252, 235)" opacity="0.90399474" stroke="rgb(200, 49, 112)" stroke-opacity="0.94368035" stroke-linecap="round" stroke-linejoin="round"/>
    <path d="M 258.8787536621094 201.7335662841797 C 267.44573974609375 238.88824462890625 251.2425079345703 243.30908203125 255.1271514892578 212.29640197753906 C 252.9636993408203 212.42201232910156 235.43426513671875 213.35736083984375 213.0240936279297 204.165283203125 C 214.3335723876953 205.00045776367188 256.5718078613281 203.40382385253906 254.02188110351562 204.3484649658203 C 249.42697143554688 177.79981994628906 263.7751159667969 181.1457061767578 258.8787536621094 201.7335662841797" stroke-width="0.0" fill="rgb(255, 255, 239)" opacity="0.79155725" stroke="rgb(101, 41, 119)" stroke-opacity="0.46755514" stroke-linecap="round" stroke-linejoin="round"/>
    <path d="M 233.47291564941406 276.9631042480469 C 233.70452880859375 305.2857666015625 235.21937561035156 311.2237243652344 224.97610473632812 295.4585266113281 C 219.23402404785156 293.046875 222.83106994628906 283.7897033691406 220.32582092285156 273.56109619140625 C 227.42239379882812 278.10614013671875 202.92530822753906 274.04815673828125 196.89122009277344 275.118408203125 C 243.8590087890625 278.5634765625 247.17105102539062 275.2732238769531 233.47291564941406 276.9631042480469" stroke-width="0.0" fill="rgb(255, 248, 223)" opacity="0.773001" stroke="rgb(58, 217, 43)" stroke-opacity="0.094455145" stroke-linecap="round" stroke-linejoin="round"/>
    <path d="M 217.2584991455078 203.16253662109375 C 217.2393798828125 186.9539031982422 221.0563201904297 194.67398071289062 215.73370361328125 201.7437286376953 C 206.22689819335938 202.9494171142578 205.30340576171875 195.35577392578125 210.67674255371094 202.28829956054688 C 210.72698974609375 202.08224487304688 210.5289306640625 188.55128479003906 210.50404357910156 168.04139709472656 C 220.6075897216797 161.76495361328125 212.8180694580078 172.5199737548828 217.2584991455078 203.16253662109375" stroke-width="0.0" fill="rgb(255, 255, 244)" opacity="0.8202038" stroke="rgb(34, 148, 12)" stroke-opacity="0.78701866" stroke-linecap="round" stroke-linejoin="round"/>
    <path d="M 229.3894805908203 130.66842651367188 C 229.2043914794922 160.2108154296875 228.4861297607422 165.5733642578125 230.0978546142578 176.2790069580078 C 235.50257873535156 175.3517303466797 232.490478515625 176.14097595214844 233.9829864501953 178.8485107421875 C 233.1795654296875 142.96075439453125 235.94232177734375 159.3981475830078 226.0537109375 154.48329162597656 C 227.78012084960938 155.94984436035156 230.3636016845703 164.3802490234375 229.3894805908203 130.66842651367188" stroke-width="0.0" fill="rgb(245, 244, 236)" opacity="1.0" stroke="rgb(190, 56, 71)" stroke-opacity="0.64061755" stroke-linecap="round" stroke-linejoin="round"/>
    <path d="M 237.5516357421875 214.11376953125 C 247.94088745117188 256.50885009765625 232.08497619628906 276.9654846191406 234.9910125732422 233.7123565673828 C 223.09564208984375 230.00567626953125 223.18194580078125 220.3297882080078 223.66383361816406 212.74864196777344 C 221.14747619628906 214.5682373046875 209.54110717773438 212.11337280273438 224.13819885253906 212.68475341796875 C 242.09544372558594 213.51502990722656 244.45046997070312 209.1615753173828 237.5516357421875 214.11376953125" stroke-width="0.0" fill="rgb(253, 248, 232)" opacity="0.84229755" stroke="rgb(79, 194, 163)" stroke-opacity="0.002217458" stroke-linecap="round" stroke-linejoin="round"/>
    <path d="M 130.0813751220703 248.6611328125 C 150.86770629882812 237.974609375 161.48373413085938 267.8486328125 122.7153091430664 260.6376037597656 C 123.43949890136719 249.55799865722656 113.73855590820312 247.6877899169922 116.83989715576172 267.0500183105469 C 115.90133666992188 235.5015869140625 118.4137954711914 234.5115203857422 117.03448486328125 238.70289611816406 C 113.26239776611328 243.73141479492188 124.55733489990234 239.79737854003906 130.0813751220703 248.6611328125" stroke-width="0.0" fill="rgb(255, 254, 233)" opacity="0.83498365" stroke="rgb(135, 1, 220)" stroke-opacity="0.23431772" stroke-linecap="round" stroke-linejoin="round"/>
    <path d="M 226.1991424560547 359.49261474609375 C 226.58673095703125 341.6694641113281 226.49478149414062 364.753662109375 225.2135009765625 359.6673583984375 C 213.73971557617188 351.9756164550781 218.82838439941406 358.7831115722656 216.02122497558594 345.9974060058594 C 217.4241485595703 334.9310302734375 214.8058624267578 329.91754150390625 225.9004669189453 337.7156066894531 C 226.14039611816406 334.7704162597656 226.37020874023438 353.1754150390625 226.1991424560547 359.49261474609375" stroke-width="0.0" fill="rgb(0, 31, 82)" opacity="0.93402606" stroke="rgb(245, 63, 30)" stroke-opacity="0.49978593" stroke-linecap="round" stroke-linejoin="round"/>
    <path d="M 198.48886108398438 277.1484375 C 183.68370056152344 264.6806640625 185.8174591064453 260.3823547363281 179.04933166503906 258.69775390625 C 178.1543426513672 261.3599548339844 173.5369415283203 267.78057861328125 172.4537811279297 259.2630615234375 C 174.26394653320312 245.265625 177.4309539794922 246.38528442382812 187.89715576171875 249.01307678222656 C 202.0087127685547 249.1553955078125 196.55223083496094 239.41139221191406 198.48886108398438 277.1484375" stroke-width="0.0" fill="rgb(247, 236, 216)" opacity="1.0" stroke="rgb(90, 68, 60)" stroke-opacity="0.40339744" stroke-linecap="round" stroke-linejoin="round"/>
    <path d="M 195.55902099609375 169.89505004882812 C 195.78909301757812 177.16909790039062 194.9585418701172 203.80372619628906 195.94593811035156 200.82211303710938 C 182.9684295654297 201.5203399658203 187.5718994140625 206.0962677001953 186.47019958496094 178.11412048339844 C 184.65863037109375 178.55239868164062 192.16148376464844 179.69003295898438 189.57908630371094 180.35745239257812 C 186.20651245117188 168.4002685546875 187.4529571533203 171.24310302734375 195.55902099609375 169.89505004882812" stroke-width="0.0" fill="rgb(251, 249, 241)" opacity="0.3905385" stroke="rgb(24, 172, 34)" stroke-opacity="0.34456295" stroke-linecap="round" stroke-linejoin="round"/>
    <path d="M 119.56945037841797 344.708984375 C 119.18011474609375 354.22589111328125 121.95330047607422 349.24530029296875 112.5010757446289 354.06927490234375 C 114.42964172363281 356.2032165527344 113.30321502685547 346.2085876464844 113.4728012084961 320.9605712890625 C 99.05413055419922 348.1724548339844 112.40560913085938 319.2371520996094 114.25887298583984 320.2550354003906 C 121.32768249511719 319.965576171875 118.83648681640625 312.4743347167969 119.56945037841797 344.708984375" stroke-width="0.0" fill="rgb(0, 40, 101)" opacity="0.9015074" stroke="rgb(189, 9, 42)" stroke-opacity="0.20837575" stroke-linecap="round" stroke-linejoin="round"/>
    <path d="M 326.4801940917969 284.8330993652344 C 350.0162658691406 309.2098083496094 346.1221923828125 307.807373046875 319.3443298339844 286.711669921875 C 310.73199462890625 280.15350341796875 305.562255859375 277.74755859375 296.986572265625 269.5164794921875 C 275.41845703125 260.364501953125 308.1744079589844 252.90110778808594 301.6584167480469 267.252685546875 C 306.94854736328125 272.8583679199219 317.0509338378906 276.6113586425781 326.4801940917969 284.8330993652344" stroke-width="0.0" fill="rgb(69, 73, 76)" opacity="0.8030734" stroke="rgb(74, 21, 170)" stroke-opacity="0.47025156" stroke-linecap="round" stroke-linejoin="round"/>
    <path d="M 379.0992736816406 390.8790588378906 C 374.6624755859375 383.9661865234375 379.56744384765625 414.6753845214844 373.9216613769531 413.0203552246094 C 366.4840087890625 398.4252014160156 368.06512451171875 379.4364013671875 366.91265869140625 428.0581359863281 C 369.5069885253906 376.12078857421875 367.59814453125 358.21759033203125 368.6783142089844 364.5022277832031 C 382.32806396484375 381.5381774902344 378.2428283691406 369.884033203125 379.0992736816406 390.8790588378906" stroke-width="0.0" fill="rgb(255, 255, 248)" opacity="0.49820256" stroke="rgb(151, 116, 62)" stroke-opacity="0.8405913" stroke-linecap="round" stroke-linejoin="round"/>
    <path d="M 230.6972198486328 303.03802490234375 C 231.0936279296875 316.7590026855469 231.95355224609375 315.3110046386719 228.58499145507812 312.527099609375 C 222.94366455078125 306.2166442871094 220.4663848876953 302.736083984375 215.892333984375 296.172119140625 C 209.86106872558594 288.7158203125 212.02691650390625 290.1952209472656 218.5113525390625 293.1374206542969 C 227.01162719726562 292.74957275390625 231.26646423339844 299.50567626953125 230.6972198486328 303.03802490234375" stroke-width="0.0" fill="rgb(110, 71, 42)" opacity="0.9024896" stroke="rgb(251, 117, 66)" stroke-opacity="0.71281993" stroke-linecap="round" stroke-linejoin="round"/>
    <path d="M 173.44525146484375 277.6521911621094 C 178.9133758544922 277.55780029296875 191.25648498535156 281.0389099121094 167.7083282470703 286.7607421875 C 164.30172729492188 286.9351501464844 165.2153778076172 295.4110412597656 164.9204864501953 258.7314758300781 C 165.01483154296875 260.6252746582031 165.26336669921875 254.99688720703125 171.26527404785156 249.92344665527344 C 175.00265502929688 254.832763671875 172.58448791503906 282.7567138671875 173.44525146484375 277.6521911621094" stroke-width="0.0" fill="rgb(254, 247, 229)" opacity="0.9440468" stroke="rgb(159, 129, 150)" stroke-opacity="0.30606672" stroke-linecap="round" stroke-linejoin="round"/>
    <path d="M 229.1532745361328 192.45465087890625 C 228.21566772460938 213.1945037841797 233.7633514404297 212.13731384277344 230.3168182373047 202.23098754882812 C 238.33078002929688 202.68038940429688 232.71417236328125 193.30899047851562 233.97459411621094 183.30621337890625 C 231.9176788330078 185.3477783203125 238.653564453125 180.95213317871094 229.55303955078125 172.37200927734375 C 231.2012481689453 203.44277954101562 228.30166625976562 208.16847229003906 229.1532745361328 192.45465087890625" stroke-width="0.0" fill="rgb(255, 253, 244)" opacity="0.68477595" stroke="rgb(169, 73, 99)" stroke-opacity="0.10118396" stroke-linecap="round" stroke-linejoin="round"/>
    <path d="M 256.87823486328125 252.99623107910156 C 251.0840606689453 261.2577209472656 251.5341339111328 253.93959045410156 263.2041931152344 259.01617431640625 C 242.65660095214844 253.18727111816406 219.13037109375 258.7363586425781 228.8507843017578 253.4022979736328 C 247.68804931640625 251.81195068359375 249.63990783691406 251.7674102783203 249.04452514648438 252.8397674560547 C 245.81028747558594 253.22500610351562 244.68629455566406 253.2782440185547 256.87823486328125 252.99623107910156" stroke-width="0.0" fill="rgb(255, 255, 245)" opacity="0.88318974" stroke="rgb(66, 98, 225)" stroke-opacity="0.5023771" stroke-linecap="round" stroke-linejoin="round"/>
    <path d="M 415.4248352050781 501.37750244140625 C 416.2275085449219 515.8095703125 416.0462341308594 518.5423583984375 401.3999938964844 521.6781005859375 C 385.01837158203125 523.1165771484375 382.08648681640625 523.2516479492188 384.5989074707031 500.4715270996094 C 383.9354248046875 494.9383544921875 380.64727783203125 497.4161071777344 414.3365783691406 496.3522033691406 C 412.4194641113281 500.30615234375 416.83282470703125 493.2567138671875 415.4248352050781 501.37750244140625" stroke-width="0.0" fill="rgb(0, 37, 98)" opacity="0.50934416" stroke="rgb(77, 201, 94)" stroke-opacity="0.8256998" stroke-linecap="round" stroke-linejoin="round"/>
    <path d="M 308.021240234375 242.078857421875 C 310.0660705566406 235.78407287597656 309.37860107421875 237.2097625732422 308.3237609863281 242.41732788085938 C 299.04937744140625 245.6231231689453 305.1720275878906 234.80604553222656 302.77294921875 248.31556701660156 C 305.1251220703125 236.25828552246094 301.8020935058594 224.5763702392578 305.7347106933594 228.74400329589844 C 308.74322509765625 225.03993225097656 305.41552734375 239.62425231933594 308.021240234375 242.078857421875" stroke-width="0.0" fill="rgb(51, 88, 139)" opacity="0.9486718" stroke="rgb(88, 59, 168)" stroke-opacity="0.2047654" stroke-linecap="round" stroke-linejoin="round"/>
    <path d="M 190.04962158203125 148.50186157226562 C 189.53106689453125 168.4123992919922 192.0614013671875 182.45059204101562 189.07838439941406 170.59584045410156 C 182.9590301513672 172.76654052734375 184.1743927001953 176.35171508789062 183.98634338378906 155.1180419921875 C 180.6997528076172 153.9352569580078 172.92794799804688 149.4752960205078 188.8030242919922 148.77151489257812 C 192.28506469726562 149.47935485839844 189.08270263671875 148.74990844726562 190.04962158203125 148.50186157226562" stroke-width="0.0" fill="rgb(255, 252, 234)" opacity="0.94152176" stroke="rgb(106, 240, 84)" stroke-opacity="0.7195308" stroke-linecap="round" stroke-linejoin="round"/>
    <path d="M 359.4862976074219 353.7339782714844 C 366.20513916015625 361.6540222167969 369.0329895019531 360.6976013183594 363.07879638671875 350.80230712890625 C 355.0653076171875 354.03759765625 356.1932067871094 349.5036926269531 359.3809814453125 353.0403137207031 C 352.76678466796875 348.84521484375 353.7647399902344 346.8974304199219 358.8345947265625 350.06353759765625 C 354.1138916015625 344.25830078125 356.0428466796875 347.84613037109375 359.4862976074219 353.7339782714844" stroke-width="0.0" fill="rgb(254, 255, 255)" opacity="0.91501564" stroke="rgb(170, 189, 13)" stroke-opacity="0.36634082" stroke-linecap="round" stroke-linejoin="round"/>
    <path d="M 136.75790405273438 287.23199462890625 C 135.20762634277344 304.39520263671875 139.95314025878906 305.66168212890625 127.71324920654297 303.71563720703125 C 126.9107666015625 322.1471252441406 129.5106658935547 318.6535339355469 128.07546997070312 284.01336669921875 C 128.1033935546875 299.1482238769531 126.85780334472656 294.39453125 135.89590454101562 292.3503723144531 C 136.8419189453125 291.0709228515625 135.84803771972656 288.5133361816406 136.75790405273438 287.23199462890625" stroke-width="0.0" fill="rgb(255, 254, 230)" opacity="0.71984464" stroke="rgb(42, 117, 119)" stroke-opacity="0.805782" stroke-linecap="round" stroke-linejoin="round"/>
    <path d="M 191.90557861328125 266.8123474121094 C 190.07301330566406 269.8740234375 193.01690673828125 282.71295166015625 192.18739318847656 275.34527587890625 C 183.1719512939453 279.3774108886719 189.31906127929688 266.1019592285156 185.7303466796875 262.87164306640625 C 185.3363494873047 268.69110107421875 181.7949981689453 264.1582336425781 189.8686065673828 254.93429565429688 C 191.62826538085938 267.8652038574219 190.79689025878906 273.02362060546875 191.90557861328125 266.8123474121094" stroke-width="0.0" fill="rgb(60, 98, 141)" opacity="0.93782794" stroke="rgb(225, 25, 28)" stroke-opacity="0.21066102" stroke-linecap="round" stroke-linejoin="round"/>
    <path d="M 376.35528564453125 359.8392639160156 C 377.77606201171875 360.6280517578125 368.33544921875 363.25897216796875 367.35406494140625 359.9245910644531 C 363.6965637207031 356.95562744140625 363.1835632324219 352.95660400390625 358.4435729980469 352.6932678222656 C 353.29876708984375 344.3888244628906 346.2545166015625 346.89599609375 357.1345520019531 344.9630432128906 C 366.0656433105469 349.774658203125 370.7687683105469 355.54437255859375 376.35528564453125 359.8392639160156" stroke-width="0.0" fill="rgb(252, 252, 252)" opacity="0.9722164" stroke="rgb(224, 119, 243)" stroke-opacity="0.28052053" stroke-linecap="round" stroke-linejoin="round"/>
    <path d="M 318.2552490234375 248.38853454589844 C 319.7224426269531 245.4849395751953 296.5865783691406 255.04067993164062 297.717529296875 248.44595336914062 C 306.9462890625 246.91000366210938 312.3681335449219 239.41123962402344 295.49176025390625 246.81155395507812 C 313.40130615234375 248.01222229003906 304.3067321777344 240.58229064941406 308.5716247558594 216.7495574951172 C 322.3105163574219 223.4591064453125 314.9710388183594 228.85626220703125 318.2552490234375 248.38853454589844" stroke-width="0.0" fill="rgb(255, 237, 202)" opacity="0.6764342" stroke="rgb(40, 62, 132)" stroke-opacity="0.6691994" stroke-linecap="round" stroke-linejoin="round"/>
    <path d="M 222.23141479492188 156.24876403808594 C 221.988525390625 181.3647918701172 224.86558532714844 173.23141479492188 215.89511108398438 175.11697387695312 C 214.59584045410156 173.07118225097656 218.18569946289062 152.10792541503906 214.04759216308594 156.38926696777344 C 232.76841735839844 154.4484405517578 180.5732421875 159.5105438232422 192.7868194580078 154.3573455810547 C 251.5518341064453 152.3574981689453 253.56967163085938 156.280029296875 222.23141479492188 156.24876403808594" stroke-width="0.0" fill="rgb(58, 68, 90)" opacity="0.9324248" stroke="rgb(163, 34, 106)" stroke-opacity="0.21816322" stroke-linecap="round" stroke-linejoin="round"/>
    <path d="M 377.880859375 372.05096435546875 C 369.429931640625 381.4649963378906 367.2241516113281 378.94012451171875 366.16497802734375 381.8119201660156 C 370.2668762207031 378.70758056640625 368.62432861328125 375.6671142578125 369.1009216308594 395.98529052734375 C 379.34698486328125 408.9153137207031 373.9989929199219 401.70562744140625 376.5561218261719 390.67584228515625 C 380.7633972167969 392.02008056640625 377.285888671875 386.34466552734375 377.880859375 372.05096435546875" stroke-width="0.0" fill="rgb(255, 249, 226)" opacity="0.68691814" stroke="rgb(55, 39, 133)" stroke-opacity="0.95630515" stroke-linecap="round" stroke-linejoin="round"/>
    <path d="M 194.10205078125 201.17721557617188 C 191.83876037597656 199.75543212890625 182.2324676513672 206.3802947998047 192.58920288085938 186.1917724609375 C 194.9452362060547 180.28424072265625 195.15914916992188 180.3626708984375 187.75682067871094 197.2580108642578 C 188.3109130859375 191.97674560546875 187.2799530029297 186.87484741210938 188.1554412841797 173.75357055664062 C 199.10975646972656 168.45819091796875 193.59957885742188 169.43936157226562 194.10205078125 201.17721557617188" stroke-width="0.0" fill="rgb(255, 255, 245)" opacity="0.81994885" stroke="rgb(111, 229, 249)" stroke-opacity="0.44153234" stroke-linecap="round" stroke-linejoin="round"/>
    <path d="M 186.66021728515625 252.01443481445312 C 190.4212188720703 256.5375061035156 187.56581115722656 256.6014404296875 179.5503692626953 260.5130920410156 C 164.27471923828125 256.8834533691406 164.13560485839844 258.54425048828125 172.70277404785156 245.02601623535156 C 177.31515502929688 237.02195739746094 190.97540283203125 240.26318359375 160.02816772460938 239.35140991210938 C 178.8839874267578 235.73391723632812 187.2642059326172 242.73617553710938 186.66021728515625 252.01443481445312" stroke-width="0.0" fill="rgb(255, 248, 230)" opacity="0.8317443" stroke="rgb(61, 83, 32)" stroke-opacity="0.42723662" stroke-linecap="round" stroke-linejoin="round"/>
    <path d="M 225.77549743652344 150.90274047851562 C 226.45606994628906 150.05892944335938 220.94027709960938 142.39743041992188 217.16444396972656 148.0739288330078 C 214.54994201660156 152.26609802246094 214.25486755371094 153.71156311035156 214.69723510742188 149.36849975585938 C 215.0679473876953 142.9452667236328 219.06040954589844 140.06642150878906 221.28382873535156 140.689697265625 C 221.3961639404297 140.0743865966797 226.75436401367188 143.1592559814453 225.77549743652344 150.90274047851562" stroke-width="0.0" fill="rgb(9, 52, 122)" opacity="0.7152962" stroke="rgb(245, 135, 66)" stroke-opacity="0.6782078" stroke-linecap="round" stroke-linejoin="round"/>
    <path d="M 217.47779846191406 347.5640869140625 C 217.2938232421875 355.28497314453125 217.35574340820312 359.0567932128906 217.15414428710938 355.7566833496094 C 208.2771759033203 349.77008056640625 204.63368225097656 346.312744140625 191.4624481201172 338.27276611328125 C 191.7001953125 317.1508483886719 188.84910583496094 312.55712890625 215.64718627929688 313.8441467285156 C 217.4695587158203 318.4902648925781 217.06939697265625 327.3262023925781 217.47779846191406 347.5640869140625" stroke-width="0.0" fill="rgb(171, 174, 181)" opacity="0.9798295" stroke="rgb(191, 203, 252)" stroke-opacity="0.82308924" stroke-linecap="round" stroke-linejoin="round"/>
    <path d="M 42.72981262207031 238.3247833251953 C 41.858402252197266 252.847900390625 46.005027770996094 247.97080993652344 35.507057189941406 249.57260131835938 C 32.724388122558594 251.17926025390625 31.409461975097656 241.04872131347656 15.934191703796387 237.0443115234375 C 19.769582748413086 238.15960693359375 23.217819213867188 239.4792938232422 20.482315063476562 237.47279357910156 C 49.5876579284668 238.1519775390625 41.12824249267578 237.3249053955078 42.72981262207031 238.3247833251953" stroke-width="0.0" fill="rgb(0, 41, 103)" opacity="0.8836998" stroke="rgb(120, 143, 62)" stroke-opacity="0.80148673" stroke-linecap="round" stroke-linejoin="round"/>
    <path d="M 190.61471557617188 187.21600341796875 C 188.61514282226562 181.76914978027344 187.4777374267578 180.22242736816406 188.0133056640625 200.919189453125 C 195.78282165527344 202.68345642089844 195.8113555908203 181.44924926757812 192.0495147705078 187.9820098876953 C 186.9844512939453 181.7084503173828 185.02716064453125 173.85986328125 187.60580444335938 167.35971069335938 C 197.34158325195312 180.48709106445312 195.9576416015625 190.0889892578125 190.61471557617188 187.21600341796875" stroke-width="0.0" fill="rgb(255, 250, 227)" opacity="0.5901353" stroke="rgb(230, 214, 92)" stroke-opacity="0.78948975" stroke-linecap="round" stroke-linejoin="round"/>
    <path d="M 377.9267272949219 360.6830139160156 C 378.18975830078125 379.9564208984375 381.3829040527344 384.0947570800781 368.68170166015625 378.2464599609375 C 371.3147277832031 359.8139953613281 368.34161376953125 364.45294189453125 353.33111572265625 348.99090576171875 C 345.5359191894531 343.78704833984375 357.0128479003906 346.35113525390625 364.4149475097656 352.0467529296875 C 363.0665588378906 349.4128723144531 368.2513122558594 352.6901550292969 377.9267272949219 360.6830139160156" stroke-width="0.0" fill="rgb(252, 247, 230)" opacity="0.92690015" stroke="rgb(156, 109, 8)" stroke-opacity="0.39549696" stroke-linecap="round" stroke-linejoin="round"/>
    <path d="M 68.18718719482422 116.46432495117188 C 68.00393676757812 102.72052001953125 68.36905670166016 107.36876678466797 67.85717010498047 111.80326843261719 C 67.87130737304688 103.72718048095703 68.11772918701172 99.69400787353516 68.23758697509766 105.34228515625 C 64.6258316040039 110.99673461914062 72.32854461669922 100.06327056884766 65.25598907470703 102.46453857421875 C 66.59185791015625 112.72708892822266 62.95109176635742 118.3121566772461 68.18718719482422 116.46432495117188" stroke-width="0.0" fill="rgb(51, 88, 139)" opacity="0.8823869" stroke="rgb(177, 205, 109)" stroke-opacity="0.7882524" stroke-linecap="round" stroke-linejoin="round"/>
    <path d="M 178.36795043945312 364.63641357421875 C 172.42630004882812 368.9762878417969 163.7313690185547 375.11663818359375 157.69406127929688 379.0565490722656 C 160.67453002929688 376.0599365234375 152.39773559570312 368.0553894042969 151.48406982421875 362.7588806152344 C 161.48834228515625 364.605712890625 168.14657592773438 363.6245422363281 170.6103973388672 363.44677734375 C 161.7075653076172 365.31689453125 166.7095947265625 363.2603759765625 178.36795043945312 364.63641357421875" stroke-width="0.0" fill="rgb(255, 229, 188)" opacity="0.56966376" stroke="rgb(225, 130, 187)" stroke-opacity="0.79652166" stroke-linecap="round" stroke-linejoin="round"/>
    <path d="M 301.58123779296875 212.17471313476562 C 302.7580871582031 212.81991577148438 302.7867126464844 230.7382049560547 299.9477844238281 235.87741088867188 C 296.97760009765625 230.69912719726562 298.6634521484375 227.88922119140625 298.04571533203125 224.89576721191406 C 298.0656433105469 215.1290283203125 298.19256591796875 211.4820556640625 296.8201599121094 212.21385192871094 C 304.5310363769531 211.76812744140625 301.2310791015625 212.41273498535156 301.58123779296875 212.17471313476562" stroke-width="0.0" fill="rgb(255, 253, 238)" opacity="0.8044287" stroke="rgb(76, 116, 119)" stroke-opacity="0.6417687" stroke-linecap="round" stroke-linejoin="round"/>
    <path d="M 138.47137451171875 393.17132568359375 C 127.76544189453125 404.30340576171875 121.35126495361328 406.98626708984375 114.89823150634766 410.1224060058594 C 112.10841369628906 408.5767822265625 115.29702758789062 410.7685546875 112.57037353515625 397.5600280761719 C 117.51380920410156 391.4999694824219 109.17143249511719 389.41351318359375 137.56813049316406 375.3207702636719 C 122.18744659423828 401.0616760253906 110.25250244140625 391.1064453125 138.47137451171875 393.17132568359375" stroke-width="0.0" fill="rgb(255, 246, 225)" opacity="0.8316796" stroke="rgb(47, 209, 63)" stroke-opacity="0.06743136" stroke-linecap="round" stroke-linejoin="round"/>
    <path d="M 187.63851928710938 260.818359375 C 186.6749725341797 282.964111328125 191.38607788085938 275.7998352050781 172.34109497070312 283.11810302734375 C 178.53993225097656 281.3434753417969 175.8756103515625 286.4014587402344 176.9608612060547 254.52743530273438 C 174.01588439941406 253.773193359375 170.53221130371094 252.2427520751953 181.49525451660156 254.6461639404297 C 198.56509399414062 254.2542724609375 194.5269012451172 259.4878234863281 187.63851928710938 260.818359375" stroke-width="0.0" fill="rgb(238, 234, 221)" opacity="1.0" stroke="rgb(108, 103, 168)" stroke-opacity="0.09344683" stroke-linecap="round" stroke-linejoin="round"/>
    <path d="M 228.47140502929688 138.066162109375 C 224.39906311035156 134.6777801513672 236.3664093017578 133.86656188964844 223.0034637451172 135.26612854003906 C 221.90432739257812 137.6788787841797 223.43377685546875 117.56584930419922 221.75511169433594 116.03099060058594 C 216.58172607421875 146.57008361816406 217.32998657226562 132.3697967529297 222.3291015625 113.86383819580078 C 231.46182250976562 111.16659545898438 225.609130859375 121.08438110351562 228.47140502929688 138.066162109375" stroke-width="0.0" fill="rgb(237, 235, 227)" opacity="0.9714506" stroke="rgb(211, 204, 206)" stroke-opacity="0.6604224" stroke-linecap="round" stroke-linejoin="round"/>
    <path d="M 180.70724487304688 158.88526916503906 C 181.55226135253906 166.04074096679688 179.1019287109375 170.65213012695312 182.82644653320312 169.73306274414062 C 183.07089233398438 156.45391845703125 183.49191284179688 151.79356384277344 180.91424560546875 156.49208068847656 C 180.26979064941406 165.13253784179688 180.031982421875 161.20730590820312 181.3567352294922 154.46060180664062 C 180.1138916015625 160.00808715820312 180.0304412841797 167.1836395263672 180.70724487304688 158.88526916503906" stroke-width="0.0" fill="rgb(55, 102, 149)" opacity="0.91320443" stroke="rgb(225, 233, 210)" stroke-opacity="0.90912586" stroke-linecap="round" stroke-linejoin="round"/>
    <path d="M 193.9028778076172 397.55682373046875 C 196.7499237060547 395.21307373046875 190.48094177246094 399.29150390625 184.5116424560547 404.96453857421875 C 172.0481414794922 414.8075866699219 164.6626739501953 411.1532897949219 182.8675537109375 404.7120056152344 C 171.45361328125 392.73040771484375 172.44085693359375 396.7265625 173.3347930908203 394.9324645996094 C 193.3981170654297 395.7958068847656 198.1822967529297 395.26678466796875 193.9028778076172 397.55682373046875" stroke-width="0.0" fill="rgb(240, 231, 219)" opacity="0.5415619" stroke="rgb(186, 119, 245)" stroke-opacity="0.93194777" stroke-linecap="round" stroke-linejoin="round"/>
    <path d="M 60.446678161621094 183.81790161132812 C 54.32853698730469 199.12965393066406 55.947147369384766 188.42535400390625 42.85414505004883 194.23284912109375 C 39.81402587890625 195.98008728027344 40.43527603149414 190.91567993164062 24.884714126586914 186.4277801513672 C 35.99966049194336 185.85960388183594 44.4372673034668 184.71987915039062 27.1929874420166 186.68756103515625 C 48.55398941040039 187.32632446289062 55.42829895019531 188.61685180664062 60.446678161621094 183.81790161132812" stroke-width="0.0" fill="rgb(255, 255, 242)" opacity="0.83949035" stroke="rgb(118, 35, 194)" stroke-opacity="0.45171458" stroke-linecap="round" stroke-linejoin="round"/>
    <path d="M 377.1164245605469 401.99822998046875 C 376.86297607421875 405.4383239746094 377.0522155761719 414.3684387207031 376.90655517578125 423.81988525390625 C 361.7232666015625 418.3123474121094 372.9810791015625 419.90484619140625 368.38348388671875 443.10614013671875 C 370.6233215332031 393.1997985839844 365.17620849609375 389.03887939453125 377.14923095703125 388.6912536621094 C 377.2571716308594 407.69970703125 376.7515563964844 410.99444580078125 377.1164245605469 401.99822998046875" stroke-width="0.0" fill="rgb(252, 244, 226)" opacity="0.8776255" stroke="rgb(180, 234, 42)" stroke-opacity="0.79372364" stroke-linecap="round" stroke-linejoin="round"/>
    <path d="M 229.52430725097656 186.3221435546875 C 230.4665985107422 175.5388946533203 227.6140594482422 193.03318786621094 233.6837615966797 203.0979766845703 C 235.90963745117188 180.1962432861328 234.1370849609375 181.72593688964844 229.92723083496094 185.5736541748047 C 229.12245178222656 174.4512176513672 229.47100830078125 173.406494140625 230.66180419921875 166.93197631835938 C 235.30538940429688 176.56143188476562 234.72329711914062 181.87159729003906 229.52430725097656 186.3221435546875" stroke-width="0.0" fill="rgb(255, 250, 243)" opacity="0.8925154" stroke="rgb(207, 82, 2)" stroke-opacity="0.84274757" stroke-linecap="round" stroke-linejoin="round"/>
    <path d="M 260.89703369140625 287.40472412109375 C 263.341796875 279.750244140625 255.7701416015625 283.576416015625 254.50384521484375 289.2276611328125 C 256.236572265625 283.9031982421875 250.76416015625 284.9238586425781 253.49526977539062 291.978759765625 C 251.86962890625 274.846435546875 252.09112548828125 267.63629150390625 254.1140594482422 271.29168701171875 C 263.3143005371094 272.2297668457031 260.6049499511719 267.04498291015625 260.89703369140625 287.40472412109375" stroke-width="0.0" fill="rgb(65, 51, 36)" opacity="0.8314429" stroke="rgb(146, 46, 87)" stroke-opacity="0.49661872" stroke-linecap="round" stroke-linejoin="round"/>
    <path d="M 415.0569152832031 447.32257080078125 C 415.30596923828125 464.39599609375 415.0724182128906 462.7633056640625 403.0453796386719 454.9823303222656 C 398.3044738769531 451.0567626953125 394.07977294921875 448.4599304199219 382.5116882324219 439.4013671875 C 349.4921569824219 439.2802734375 372.4275817871094 437.0840148925781 425.6406555175781 439.93505859375 C 411.6958923339844 439.5105895996094 414.9819641113281 436.0008239746094 415.0569152832031 447.32257080078125" stroke-width="0.0" fill="rgb(254, 248, 233)" opacity="0.88181055" stroke="rgb(185, 250, 175)" stroke-opacity="0.6232809" stroke-linecap="round" stroke-linejoin="round"/>
    <path d="M 36.103553771972656 107.22325134277344 C 35.516883850097656 106.6937255859375 36.26166534423828 116.13985443115234 36.20522689819336 116.55474853515625 C 30.920639038085938 116.37444305419922 40.42837142944336 117.10342407226562 28.17134666442871 116.04847717285156 C 34.09619903564453 114.44588470458984 33.21204376220703 119.56622314453125 33.48015213012695 103.91265106201172 C 38.36297607421875 99.70304107666016 34.86920928955078 110.53718566894531 36.103553771972656 107.22325134277344" stroke-width="0.0" fill="rgb(36, 69, 122)" opacity="0.64879096" stroke="rgb(181, 164, 215)" stroke-opacity="0.84404784" stroke-linecap="round" stroke-linejoin="round"/>
    <path d="M 311.0382385253906 219.3598175048828 C 310.36444091796875 227.48817443847656 312.5932922363281 258.1078796386719 307.79608154296875 242.68247985839844 C 309.0406799316406 217.9450225830078 304.2372741699219 236.3428955078125 300.5779113769531 225.03604125976562 C 306.084716796875 213.01600646972656 306.60552978515625 233.15306091308594 304.9930114746094 209.53419494628906 C 313.4920654296875 206.36399841308594 305.8115234375 224.3643798828125 311.0382385253906 219.3598175048828" stroke-width="0.0" fill="rgb(255, 253, 236)" opacity="0.8597505" stroke="rgb(236, 201, 65)" stroke-opacity="0.17699979" stroke-linecap="round" stroke-linejoin="round"/>
    <path d="M 256.1697082519531 266.64373779296875 C 258.11822509765625 271.7703552246094 255.6565704345703 272.3456115722656 252.1637725830078 275.3673400878906 C 251.73623657226562 253.41978454589844 252.27565002441406 249.8538055419922 255.16822814941406 259.7218933105469 C 257.3829040527344 268.4358215332031 255.75515747070312 262.4732971191406 254.36988830566406 256.4523620605469 C 256.0173645019531 247.6856231689453 256.03643798828125 257.5697326660156 256.1697082519531 266.64373779296875" stroke-width="0.0" fill="rgb(255, 255, 240)" opacity="0.84721" stroke="rgb(33, 161, 116)" stroke-opacity="0.391538" stroke-linecap="round" stroke-linejoin="round"/>
    <path d="M 367.11395263671875 308.40655517578125 C 379.64215087890625 322.3995361328125 368.8545837402344 322.5675964355469 358.543701171875 316.4690246582031 C 354.7145080566406 307.5895690917969 342.43121337890625 309.9546203613281 318.851806640625 284.84429931640625 C 323.6944274902344 284.30084228515625 352.28912353515625 302.6478271484375 354.7811584472656 307.1861572265625 C 366.2179870605469 298.7179870605469 369.77032470703125 303.9919738769531 367.11395263671875 308.40655517578125" stroke-width="0.0" fill="rgb(58, 59, 74)" opacity="0.93991655" stroke="rgb(141, 40, 110)" stroke-opacity="0.41616184" stroke-linecap="round" stroke-linejoin="round"/>
    <path d="M 281.6850891113281 224.60171508789062 C 275.53912353515625 232.4062957763672 303.0182189941406 243.8944091796875 277.4306640625 235.6331329345703 C 260.3678283691406 227.972900390625 255.57264709472656 238.8408966064453 256.1693420410156 225.17645263671875 C 254.95681762695312 222.2826690673828 261.0284423828125 220.98594665527344 279.78143310546875 221.088134765625 C 280.0704040527344 221.89154052734375 279.0104675292969 218.00021362304688 281.6850891113281 224.60171508789062" stroke-width="0.0" fill="rgb(255, 252, 229)" opacity="0.81180936" stroke="rgb(205, 40, 3)" stroke-opacity="0.16445476" stroke-linecap="round" stroke-linejoin="round"/>
    <path d="M 212.6729278564453 112.90557098388672 C 214.0245819091797 97.12493896484375 211.35098266601562 110.41199493408203 212.1565399169922 111.47779083251953 C 208.1671905517578 116.81298828125 212.7747344970703 105.19849395751953 208.50917053222656 113.81057739257812 C 209.9149169921875 98.09017181396484 207.75401306152344 91.06263732910156 213.68939208984375 92.1266860961914 C 213.32411193847656 113.25342559814453 208.9385223388672 113.32593536376953 212.6729278564453 112.90557098388672" stroke-width="0.0" fill="rgb(3, 52, 109)" opacity="0.87225115" stroke="rgb(212, 173, 22)" stroke-opacity="0.6309698" stroke-linecap="round" stroke-linejoin="round"/>
    <path d="M 220.31256103515625 339.0551452636719 C 222.73367309570312 329.956298828125 222.0516815185547 343.1071472167969 221.97406005859375 356.4250183105469 C 215.7907257080078 358.4988098144531 219.39588928222656 348.59295654296875 218.3787384033203 341.9602966308594 C 218.21832275390625 340.05389404296875 218.5414276123047 333.9874267578125 218.57818603515625 334.9388732910156 C 225.28761291503906 338.8302307128906 218.843505859375 337.6397399902344 220.31256103515625 339.0551452636719" stroke-width="0.0" fill="rgb(37, 68, 107)" opacity="0.83499736" stroke="rgb(209, 167, 168)" stroke-opacity="0.39466655" stroke-linecap="round" stroke-linejoin="round"/>
    <path d="M 220.43089294433594 339.66851806640625 C 219.49038696289062 359.9032897949219 223.72451782226562 365.56195068359375 222.1444854736328 344.71734619140625 C 220.8345489501953 341.1478576660156 216.934326171875 335.8840026855469 218.68228149414062 350.8435974121094 C 223.07778930664062 352.76446533203125 220.8483428955078 350.6560363769531 218.9551239013672 349.29705810546875 C 228.29090881347656 334.0401916503906 213.4846649169922 331.4894714355469 220.43089294433594 339.66851806640625" stroke-width="0.0" fill="rgb(32, 66, 116)" opacity="0.79879194" stroke="rgb(217, 155, 178)" stroke-opacity="0.8982484" stroke-linecap="round" stroke-linejoin="round"/>
    <path d="M 99.88359069824219 232.79066467285156 C 99.52226257324219 250.49269104003906 100.34369659423828 244.74305725097656 97.61261749267578 245.9459686279297 C 87.2578353881836 246.1693572998047 91.83195495605469 247.06834411621094 90.80900573730469 243.7698516845703 C 91.55075073242188 228.7816925048828 88.81175231933594 225.65830993652344 96.56414794921875 226.18820190429688 C 101.6744155883789 227.67083740234375 98.95195770263672 229.36380004882812 99.88359069824219 232.79066467285156" stroke-width="0.0" fill="rgb(0, 44, 105)" opacity="0.8090747" stroke="rgb(149, 25, 140)" stroke-opacity="0.91626537" stroke-linecap="round" stroke-linejoin="round"/>
    <path d="M 257.4910583496094 266.3173522949219 C 256.9327087402344 271.87530517578125 259.26861572265625 269.85064697265625 251.80120849609375 275.7168273925781 C 252.28121948242188 274.9935607910156 252.3043670654297 248.4709930419922 249.9994659423828 263.3237609863281 C 257.54388427734375 250.2132110595703 241.6232147216797 259.53692626953125 236.20770263671875 251.06521606445312 C 261.4431457519531 253.6721649169922 256.4543762207031 247.45079040527344 257.4910583496094 266.3173522949219" stroke-width="0.0" fill="rgb(255, 253, 240)" opacity="0.715446" stroke="rgb(156, 67, 214)" stroke-opacity="0.15971975" stroke-linecap="round" stroke-linejoin="round"/>
    <path d="M 257.7170715332031 279.4495544433594 C 263.2076110839844 286.6644287109375 262.46026611328125 282.12506103515625 252.56280517578125 287.44012451171875 C 255.0104217529297 280.52069091796875 255.37899780273438 274.346435546875 255.181396484375 276.8497314453125 C 254.69647216796875 284.6939697265625 251.9871368408203 273.0146789550781 258.3913879394531 277.1211242675781 C 258.0639343261719 272.7641296386719 257.4011535644531 275.07720947265625 257.7170715332031 279.4495544433594" stroke-width="0.0" fill="rgb(102, 89, 80)" opacity="0.825916" stroke="rgb(175, 120, 79)" stroke-opacity="0.72416645" stroke-linecap="round" stroke-linejoin="round"/>
    <path d="M 234.5330810546875 248.731201171875 C 229.3601837158203 233.65452575683594 236.5350799560547 225.5246124267578 234.3204345703125 241.35748291015625 C 235.6111297607422 234.3905792236328 230.8549346923828 234.05491638183594 232.5122833251953 252.73570251464844 C 239.3958282470703 255.9892578125 227.82440185546875 237.02474975585938 234.97103881835938 237.10247802734375 C 235.1907501220703 252.20513916015625 235.3125762939453 252.3665313720703 234.5330810546875 248.731201171875" stroke-width="0.0" fill="rgb(47, 95, 146)" opacity="0.80230963" stroke="rgb(200, 4, 230)" stroke-opacity="0.35545465" stroke-linecap="round" stroke-linejoin="round"/>
    <path d="M 192.45916748046875 396.7431335449219 C 187.71295166015625 399.5154113769531 189.39706420898438 410.2987060546875 135.07196044921875 420.9162292480469 C 131.99403381347656 382.2587585449219 155.33299255371094 396.71856689453125 172.2170867919922 396.07830810546875 C 185.27871704101562 396.2726745605469 190.5800018310547 398.00225830078125 177.45472717285156 395.9807434082031 C 179.32566833496094 396.2768249511719 183.32957458496094 395.85076904296875 192.45916748046875 396.7431335449219" stroke-width="0.0" fill="rgb(243, 192, 122)" opacity="0.29599285" stroke="rgb(27, 152, 22)" stroke-opacity="0.75776595" stroke-linecap="round" stroke-linejoin="round"/>
    <path d="M 206.58424377441406 278.0826721191406 C 204.4786376953125 285.0630798339844 205.53932189941406 281.5937805175781 205.4866180419922 282.36346435546875 C 194.34439086914062 280.4386901855469 188.2584686279297 282.3981628417969 177.09190368652344 279.09930419921875 C 180.5955810546875 271.4332580566406 195.21139526367188 279.1136474609375 201.27906799316406 277.3967590332031 C 210.06532287597656 279.73504638671875 204.2561798095703 282.1316833496094 206.58424377441406 278.0826721191406" stroke-width="0.0" fill="rgb(255, 255, 238)" opacity="0.76855105" stroke="rgb(221, 93, 141)" stroke-opacity="0.2725847" stroke-linecap="round" stroke-linejoin="round"/>
    <path d="M 128.33099365234375 423.3487243652344 C 90.630859375 432.44207763671875 63.95919418334961 439.72955322265625 66.55243682861328 438.2335510253906 C 68.34048461914062 424.9066162109375 68.53382110595703 408.5523986816406 63.44096374511719 422.11285400390625 C 65.64464569091797 420.1211853027344 73.34869384765625 417.7484130859375 57.85649108886719 420.38140869140625 C 71.12692260742188 422.8281555175781 117.60630798339844 395.7496337890625 128.33099365234375 423.3487243652344" stroke-width="0.0" fill="rgb(198, 183, 163)" opacity="0.96830505" stroke="rgb(113, 13, 17)" stroke-opacity="0.016950635" stroke-linecap="round" stroke-linejoin="round"/>
    <path d="M 234.7085418701172 185.10342407226562 C 237.92835998535156 177.7498779296875 234.3685760498047 203.96469116210938 234.51870727539062 207.246337890625 C 228.11846923828125 199.33993530273438 229.72499084472656 198.13449096679688 228.47482299804688 192.9860382080078 C 228.67938232421875 174.2086181640625 227.64710998535156 164.55686950683594 229.24093627929688 166.37738037109375 C 234.6814727783203 181.4744110107422 235.67691040039062 179.77960205078125 234.7085418701172 185.10342407226562" stroke-width="0.0" fill="rgb(255, 255, 227)" opacity="0.31305847" stroke="rgb(243, 109, 174)" stroke-opacity="0.15229236" stroke-linecap="round" stroke-linejoin="round"/>
    <path d="M 38.4376220703125 161.17501831054688 C 38.5275993347168 194.8625030517578 41.092037200927734 185.31114196777344 32.962562561035156 186.96434020996094 C 33.13253402709961 172.0167694091797 33.20118713378906 172.03094482421875 32.930519104003906 180.66209411621094 C 33.410430908203125 183.99044799804688 33.55572509765625 173.88754272460938 32.930625915527344 167.98072814941406 C 34.77859878540039 165.0068817138672 40.00807189941406 171.0359649658203 38.4376220703125 161.17501831054688" stroke-width="0.0" fill="rgb(13, 49, 103)" opacity="0.95001227" stroke="rgb(173, 169, 95)" stroke-opacity="0.4818199" stroke-linecap="round" stroke-linejoin="round"/>
    <path d="M 9.866776466369629 162.455322265625 C 17.294172286987305 161.58433532714844 11.920434951782227 159.9204559326172 -5.987590789794922 159.73716735839844 C -7.753652572631836 168.6946563720703 -9.340350151062012 166.44403076171875 -9.370878219604492 152.26536560058594 C -11.102404594421387 151.74508666992188 -9.210721969604492 149.29786682128906 -2.448817014694214 150.4920196533203 C 10.864367485046387 152.2285919189453 11.351394653320312 149.45982360839844 9.866776466369629 162.455322265625" stroke-width="0.0" fill="rgb(255, 249, 233)" opacity="0.926629" stroke="rgb(12, 116, 101)" stroke-opacity="0.17619868" stroke-linecap="round" stroke-linejoin="round"/>
    <path d="M 115.61775970458984 149.63327026367188 C 114.00729370117188 160.30776977539062 117.26313781738281 163.2676239013672 112.14881134033203 162.23939514160156 C 112.00862884521484 158.4717559814453 111.9351577758789 155.7976531982422 112.19483184814453 153.9942626953125 C 112.00019073486328 160.74908447265625 112.4531021118164 157.12973022460938 112.18763732910156 152.11099243164062 C 116.7673568725586 150.30303955078125 114.12580108642578 158.11354064941406 115.61775970458984 149.63327026367188" stroke-width="0.0" fill="rgb(179, 178, 175)" opacity="0.9872602" stroke="rgb(62, 208, 91)" stroke-opacity="0.7554911" stroke-linecap="round" stroke-linejoin="round"/>
    <path d="M 199.0978546142578 276.3868713378906 C 214.65321350097656 247.56349182128906 206.49188232421875 259.26849365234375 196.9981231689453 281.0520324707031 C 184.56045532226562 281.5159912109375 198.4901885986328 258.7785949707031 182.78402709960938 244.5649871826172 C 172.829345703125 245.7333221435547 179.6900634765625 249.60162353515625 217.0516815185547 246.60052490234375 C 192.47793579101562 247.5839385986328 201.48330688476562 239.92074584960938 199.0978546142578 276.3868713378906" stroke-width="0.0" fill="rgb(244, 241, 228)" opacity="0.81987" stroke="rgb(249, 207, 90)" stroke-opacity="0.4918336" stroke-linecap="round" stroke-linejoin="round"/>
    <path d="M 7.545438289642334 159.72604370117188 C 6.989598751068115 179.88653564453125 9.930488586425781 174.3229522705078 2.490182876586914 175.26222229003906 C 2.9113597869873047 164.51416015625 2.3934247493743896 175.56622314453125 2.0221974849700928 171.7744140625 C 2.453538417816162 173.849609375 2.7130353450775146 180.49298095703125 2.313727855682373 160.06222534179688 C 6.561096668243408 160.68524169921875 9.163413047790527 160.35858154296875 7.545438289642334 159.72604370117188" stroke-width="0.0" fill="rgb(16, 60, 112)" opacity="0.8530247" stroke="rgb(235, 201, 213)" stroke-opacity="0.25203595" stroke-linecap="round" stroke-linejoin="round"/>
    <path d="M 262.68157958984375 324.8873596191406 C 269.12982177734375 327.9474792480469 248.26229858398438 326.1866455078125 233.77377319335938 326.2962341308594 C 250.9215545654297 324.81707763671875 246.09408569335938 329.36865234375 227.4077911376953 318.82916259765625 C 217.48782348632812 306.5801086425781 240.70655822753906 319.9081115722656 254.35670471191406 322.16888427734375 C 246.6062774658203 321.5201721191406 249.34510803222656 320.5083923339844 262.68157958984375 324.8873596191406" stroke-width="0.0" fill="rgb(255, 255, 242)" opacity="0.8819246" stroke="rgb(218, 186, 104)" stroke-opacity="0.20137508" stroke-linecap="round" stroke-linejoin="round"/>
    <path d="M 96.94989013671875 225.75347900390625 C 97.15239715576172 230.3685760498047 97.70777893066406 236.18447875976562 99.91565704345703 233.1464385986328 C 100.23797607421875 256.8984680175781 98.55020141601562 242.52078247070312 98.97908782958984 229.4198760986328 C 102.98588562011719 227.91433715820312 92.86235809326172 229.57363891601562 98.96363067626953 228.67869567871094 C 101.92274475097656 231.2208709716797 97.3852310180664 240.84243774414062 96.94989013671875 225.75347900390625" stroke-width="0.0" fill="rgb(76, 106, 142)" opacity="0.7785773" stroke="rgb(193, 105, 57)" stroke-opacity="0.54011786" stroke-linecap="round" stroke-linejoin="round"/>
    <path d="M 396.15484619140625 326.4239807128906 C 383.85546875 325.0621643066406 404.95233154296875 360.2994384765625 389.6943054199219 336.8924255371094 C 378.378662109375 334.8243103027344 381.9383850097656 342.4088134765625 382.3456115722656 345.98748779296875 C 382.347412109375 298.196044921875 385.7300720214844 317.1401062011719 368.6365051269531 287.31939697265625 C 448.2916259765625 286.85406494140625 424.092529296875 363.26202392578125 396.15484619140625 326.4239807128906" stroke-width="0.0" fill="rgb(25, 91, 152)" opacity="0.7654234" stroke="rgb(133, 212, 57)" stroke-opacity="0.052822582" stroke-linecap="round" stroke-linejoin="round"/>
  </g>
</svg>
