<?xml version="1.0" ?>
<svg xmlns="http://www.w3.org/2000/svg" version="1.1" width="407" height="512">
  <defs/>
  <g>
    <path d="M 214.70521545410156 68.87486267089844 C 203.55511474609375 83.05780792236328 200.00146484375 84.60362243652344 139.40211486816406 80.49215698242188 C 128.84068298339844 75.33211517333984 123.65213775634766 71.58899688720703 127.91261291503906 2.0643863677978516 C 141.8968048095703 2.1571571826934814 137.77024841308594 1.8771294355392456 219.25205993652344 2.0707132816314697 C 212.68862915039062 10.75543212890625 215.89573669433594 7.523416519165039 214.70521545410156 68.87486267089844" stroke-width="0.0" fill="rgb(154, 194, 243)" opacity="0.24963294" stroke="rgb(220, 252, 34)" stroke-opacity="0.95023537" stroke-linecap="round" stroke-linejoin="round"/>
    <path d="M 107.8451919555664 358.01605224609375 C 125.72357940673828 332.5189514160156 125.91817474365234 424.42974853515625 102.02517700195312 400.55682373046875 C 53.979305267333984 435.0312805175781 69.8392333984375 435.4581298828125 66.1638412475586 265.95733642578125 C 84.2431640625 288.399169921875 93.18087768554688 384.6507568359375 89.85941314697266 271.1755065917969 C 113.38563537597656 267.737548828125 103.5127182006836 257.23052978515625 107.8451919555664 358.01605224609375" stroke-width="0.0" fill="rgb(255, 251, 233)" opacity="0.84349626" stroke="rgb(10, 48, 173)" stroke-opacity="0.77879363" stroke-linecap="round" stroke-linejoin="round"/>
    <path d="M 326.88232421875 522.0316772460938 C 143.12472534179688 446.3265380859375 298.19952392578125 404.15570068359375 162.46519470214844 439.5000915527344 C 82.37042236328125 459.783447265625 43.437042236328125 464.32769775390625 -7.055563926696777 477.6134338378906 C -7.291912078857422 346.8652648925781 29.89134407043457 476.599365234375 185.78369140625 404.6514892578125 C 80.3467025756836 294.902587890625 210.06065368652344 259.5434875488281 326.88232421875 522.0316772460938" stroke-width="0.0" fill="rgb(18, 34, 62)" opacity="0.32297266" stroke="rgb(112, 90, 41)" stroke-opacity="0.7667503" stroke-linecap="round" stroke-linejoin="round"/>
    <path d="M 402.05230712890625 470.3282470703125 C 369.6390380859375 475.9719543457031 385.91973876953125 484.23321533203125 384.4351806640625 488.46905517578125 C 386.8039855957031 472.8829345703125 355.8828430175781 478.3640441894531 356.7825927734375 459.42584228515625 C 286.1486511230469 386.591796875 210.1067657470703 300.4261779785156 309.3993835449219 385.84381103515625 C 390.6514892578125 458.5082092285156 397.7015686035156 461.06524658203125 402.05230712890625 470.3282470703125" stroke-width="0.0" fill="rgb(255, 250, 234)" opacity="0.9294609" stroke="rgb(125, 140, 46)" stroke-opacity="0.5996705" stroke-linecap="round" stroke-linejoin="round"/>
    <path d="M 408.220947265625 476.83984375 C 392.1614074707031 478.1343688964844 401.2204284667969 489.8764343261719 379.0289611816406 491.1136779785156 C 375.3109130859375 485.4682922363281 375.29510498046875 484.7514953613281 372.5614013671875 488.15118408203125 C 382.8196716308594 469.2408142089844 368.2611083984375 460.04608154296875 389.44500732421875 457.6657409667969 C 403.5126037597656 468.9242858886719 408.3179626464844 465.22503662109375 408.220947265625 476.83984375" stroke-width="0.0" fill="rgb(254, 247, 233)" opacity="0.52116424" stroke="rgb(78, 68, 62)" stroke-opacity="0.9730402" stroke-linecap="round" stroke-linejoin="round"/>
    <path d="M 16.366031646728516 176.5115509033203 C 16.010845184326172 196.13247680664062 19.957441329956055 186.63084411621094 -11.437114715576172 190.67208862304688 C -6.468123912811279 192.33175659179688 -6.356531620025635 190.31967163085938 -4.4212188720703125 185.26991271972656 C -5.1402082443237305 174.74937438964844 -5.098365783691406 169.33253479003906 -1.910941243171692 173.92538452148438 C 2.1267261505126953 177.6292724609375 18.24747657775879 172.7833251953125 16.366031646728516 176.5115509033203" stroke-width="0.0" fill="rgb(250, 246, 234)" opacity="0.91880393" stroke="rgb(115, 163, 113)" stroke-opacity="0.2119705" stroke-linecap="round" stroke-linejoin="round"/>
    <path d="M 419.57440185546875 490.796630859375 C 411.7149353027344 498.9433898925781 416.4488830566406 497.101806640625 381.62677001953125 497.32861328125 C 385.0479431152344 499.062255859375 382.48577880859375 496.3019714355469 373.7908935546875 485.6246032714844 C 358.2622375488281 465.1224365234375 349.3271179199219 464.6878967285156 394.5204162597656 464.9330139160156 C 417.22332763671875 465.5469055175781 417.1903991699219 460.95196533203125 419.57440185546875 490.796630859375" stroke-width="0.0" fill="rgb(248, 246, 234)" opacity="1.0" stroke="rgb(144, 123, 57)" stroke-opacity="0.11043889" stroke-linecap="round" stroke-linejoin="round"/>
    <path d="M 304.3812561035156 339.9562683105469 C 317.6482849121094 347.1880187988281 303.7635192871094 351.89239501953125 299.14337158203125 343.07928466796875 C 260.3658142089844 351.70086669921875 303.5987243652344 321.9705810546875 264.1576843261719 333.35369873046875 C 222.0753631591797 318.38385009765625 249.6858673095703 329.9461364746094 305.81610107421875 321.2978210449219 C 302.8017272949219 308.2418518066406 303.6363220214844 313.46319580078125 304.3812561035156 339.9562683105469" stroke-width="0.0" fill="rgb(255, 255, 240)" opacity="0.83928835" stroke="rgb(68, 145, 38)" stroke-opacity="0.3490212" stroke-linecap="round" stroke-linejoin="round"/>
    <path d="M 12.787178993225098 135.73919677734375 C 10.01741886138916 147.1974639892578 56.42879867553711 142.85450744628906 57.71527862548828 158.43930053710938 C 1.8758302927017212 147.7588653564453 -5.347646236419678 147.8616943359375 -10.961647987365723 146.03887939453125 C -6.58313512802124 122.48518371582031 1.343945860862732 117.83588409423828 8.137640953063965 125.44932556152344 C 44.583404541015625 135.3452911376953 53.104305267333984 139.3939666748047 12.787178993225098 135.73919677734375" stroke-width="0.0" fill="rgb(255, 255, 238)" opacity="0.8016433" stroke="rgb(59, 125, 95)" stroke-opacity="0.93241554" stroke-linecap="round" stroke-linejoin="round"/>
    <path d="M 403.3158874511719 170.52381896972656 C 327.4749450683594 269.93853759765625 342.90753173828125 215.98324584960938 259.6461486816406 185.84112548828125 C 226.13783264160156 167.4552764892578 236.1275634765625 198.84437561035156 233.61001586914062 152.96463012695312 C 235.24876403808594 154.25927734375 263.0874938964844 145.48963928222656 302.37530517578125 150.3521728515625 C 343.62359619140625 156.9336395263672 367.7191467285156 167.0007781982422 403.3158874511719 170.52381896972656" stroke-width="0.0" fill="rgb(49, 66, 100)" opacity="0.57944065" stroke="rgb(183, 15, 10)" stroke-opacity="0.5923688" stroke-linecap="round" stroke-linejoin="round"/>
    <path d="M 122.38993835449219 170.48220825195312 C 120.99606323242188 166.8529510498047 131.62159729003906 170.61770629882812 105.57264709472656 168.45916748046875 C 103.60161590576172 165.45260620117188 103.06119537353516 176.47096252441406 103.97467041015625 140.9388427734375 C 102.45569610595703 142.86346435546875 99.58936309814453 138.47283935546875 121.89889526367188 145.4656524658203 C 122.53433227539062 141.7151641845703 121.52520751953125 175.36834716796875 122.38993835449219 170.48220825195312" stroke-width="0.0" fill="rgb(255, 254, 234)" opacity="0.8509835" stroke="rgb(206, 94, 99)" stroke-opacity="0.7761533" stroke-linecap="round" stroke-linejoin="round"/>
    <path d="M 15.197713851928711 128.40538024902344 C 24.907499313354492 137.0897979736328 19.198827743530273 152.0812530517578 13.92111587524414 149.4809112548828 C -11.511014938354492 146.914306640625 -9.97132396697998 143.06988525390625 -4.056781768798828 112.80162811279297 C -14.052785873413086 109.561767578125 -14.547115325927734 108.92713165283203 7.712348937988281 115.83445739746094 C 13.121955871582031 116.19481658935547 2.395097494125366 131.55023193359375 15.197713851928711 128.40538024902344" stroke-width="0.0" fill="rgb(250, 243, 226)" opacity="0.9260056" stroke="rgb(62, 62, 116)" stroke-opacity="0.87954026" stroke-linecap="round" stroke-linejoin="round"/>
    <path d="M 418.4999694824219 321.1474304199219 C 422.3929748535156 358.5628662109375 431.65142822265625 369.0520935058594 383.8913269042969 353.7421569824219 C 367.4150390625 332.8287353515625 349.5708312988281 360.82000732421875 301.3319396972656 334.2482604980469 C 248.77133178710938 216.48199462890625 300.5777587890625 297.68804931640625 402.8539123535156 172.01795959472656 C 474.32586669921875 153.8352813720703 431.87542724609375 211.73440551757812 418.4999694824219 321.1474304199219" stroke-width="0.0" fill="rgb(59, 61, 53)" opacity="0.4955749" stroke="rgb(116, 101, 162)" stroke-opacity="0.58868945" stroke-linecap="round" stroke-linejoin="round"/>
    <path d="M 295.68963623046875 312.29925537109375 C 305.86798095703125 324.4342041015625 300.5726623535156 322.69256591796875 263.0851745605469 324.5670166015625 C 248.35728454589844 320.6620788574219 232.26177978515625 314.816650390625 233.2484588623047 315.09588623046875 C 244.12393188476562 278.80157470703125 254.95932006835938 300.7134704589844 253.5724639892578 272.57635498046875 C 269.0509338378906 295.3743591308594 280.9876708984375 271.0646057128906 295.68963623046875 312.29925537109375" stroke-width="0.0" fill="rgb(34, 76, 126)" opacity="0.99641716" stroke="rgb(92, 201, 238)" stroke-opacity="0.3983616" stroke-linecap="round" stroke-linejoin="round"/>
    <path d="M 416.48870849609375 397.93585205078125 C 423.63519287109375 432.41302490234375 435.7223815917969 442.04290771484375 394.0747375488281 438.18438720703125 C 374.61981201171875 440.28460693359375 376.8039245605469 426.3267517089844 377.35015869140625 391.86090087890625 C 374.9504089355469 386.24029541015625 430.6335144042969 406.60064697265625 349.42352294921875 335.64727783203125 C 444.8034973144531 339.3433532714844 423.76055908203125 364.69989013671875 416.48870849609375 397.93585205078125" stroke-width="0.0" fill="rgb(66, 74, 40)" opacity="0.8782262" stroke="rgb(74, 35, 143)" stroke-opacity="0.43566042" stroke-linecap="round" stroke-linejoin="round"/>
  </g>
</svg>
