<?xml version="1.0" ?>
<svg xmlns="http://www.w3.org/2000/svg" version="1.1" width="512" height="512">
  <defs/>
  <g>
    <path d="M 0.0 0.0 L 512.0 0.0 L 512.0 512.0 L 0.0 512.0 L 0.0 0.0" stroke-width="0.0" fill="rgb(255, 255, 255)" opacity="1.0" stroke="rgb(0, 0, 0)" stroke-opacity="0.0" stroke-linecap="round" stroke-linejoin="round"/>
    <path d="M 0.0 0.0 L 0.0 511.0 L 511.0 511.0 L 511.0 0.0 L 0.0 0.0" stroke-width="2.0" fill="rgb(255, 255, 255)" opacity="1.0" stroke="rgb(0, 0, 0)" stroke-opacity="0.0" stroke-linecap="round" stroke-linejoin="round"/>
    <path d="M 181.0 152.0 C 114.92039489746094 210.1551513671875 114.41354370117188 276.5530090332031 159.0 338.0 C 168.0 347.3005065917969 177.0 356.0748596191406 186.0 361.0 C 178.32595825195312 369.2214050292969 166.33885192871094 366.06561279296875 157.0 372.0 C 152.01258850097656 383.263916015625 171.92962646484375 381.2552490234375 178.0 385.0 C 229.6666717529297 391.64642333984375 281.3333435058594 391.61962890625 333.0 385.0 C 339.07037353515625 381.3019104003906 358.9873962402344 383.566162109375 354.0 372.0 C 344.6666564941406 367.4095458984375 335.3333435058594 367.1695251464844 326.0 363.0 C 331.1020812988281 355.8332214355469 344.5915222167969 347.282958984375 353.0 337.0 C 395.2646484375 277.9821472167969 394.2755432128906 216.3573760986328 339.0 159.0 C 286.6666564941406 120.31232452392578 234.3333282470703 118.5470199584961 181.0 152.0" stroke-width="2.0" fill="rgb(201, 179, 92)" opacity="1.0" stroke="rgb(0, 0, 0)" stroke-opacity="0.0" stroke-linecap="round" stroke-linejoin="round"/>
    <path d="M 155.0 374.0 C 155.63523864746094 382.26995849609375 167.54452514648438 380.77056884765625 173.0 384.0 C 230.6666717529297 391.7046203613281 288.3333435058594 392.7458190917969 346.0 382.0 C 350.15167236328125 379.8485107421875 360.9920654296875 377.52166748046875 353.0 371.0 C 328.3333435058594 362.2857666015625 303.6666564941406 365.46240234375 279.0 361.0 C 241.6666717529297 360.6082763671875 204.3333282470703 361.37957763671875 167.0 368.0 L 155.0 374.0" stroke-width="2.0" fill="rgb(62, 139, 237)" opacity="1.0" stroke="rgb(0, 0, 0)" stroke-opacity="0.0" stroke-linecap="round" stroke-linejoin="round"/>
    <path d="M 202.0 213.0 C 180.17127990722656 216.53492736816406 168.2189483642578 244.3346405029297 181.0 260.0 C 204.91346740722656 294.09967041015625 249.69009399414062 256.1967468261719 233.0 229.0 C 225.6964569091797 217.19065856933594 213.2234649658203 211.9254150390625 202.0 213.0" stroke-width="2.0" fill="rgb(141, 140, 137)" opacity="1.0" stroke="rgb(0, 0, 0)" stroke-opacity="0.0" stroke-linecap="round" stroke-linejoin="round"/>
    <path d="M 302.0 213.0 C 277.63946533203125 216.62025451660156 265.0855407714844 247.71112060546875 284.0 265.0 C 300.6629333496094 281.16314697265625 329.12835693359375 271.8214416503906 335.0 248.0 C 339.5356140136719 232.5485382080078 319.4964294433594 210.0302276611328 302.0 213.0" stroke-width="2.0" fill="rgb(141, 140, 138)" opacity="1.0" stroke="rgb(0, 0, 0)" stroke-opacity="0.0" stroke-linecap="round" stroke-linejoin="round"/>
    <path d="M 322.0 270.0 C 314.56793212890625 274.4385070800781 304.8015441894531 272.399169921875 299.0 276.0 L 300.0 363.0 C 307.6666564941406 364.4707336425781 315.3333435058594 367.3285827636719 323.0 363.0 L 322.0 270.0" stroke-width="2.0" fill="rgb(66, 140, 231)" opacity="1.0" stroke="rgb(0, 0, 0)" stroke-opacity="0.0" stroke-linecap="round" stroke-linejoin="round"/>
    <path d="M 189.0 269.0 L 188.0 363.0 C 195.75816345214844 366.1695251464844 205.8751220703125 367.4903564453125 212.0 360.0 L 211.0 274.0 C 204.0 274.5892028808594 197.0 273.35858154296875 189.0 269.0" stroke-width="2.0" fill="rgb(65, 140, 233)" opacity="1.0" stroke="rgb(0, 0, 0)" stroke-opacity="0.0" stroke-linecap="round" stroke-linejoin="round"/>
    <path d="M 312.0 219.0 C 294.7209777832031 205.51254272460938 262.9434509277344 238.7111358642578 290.0 250.0 C 303.2408752441406 254.1551971435547 326.81982421875 233.9707489013672 312.0 219.0" stroke-width="2.0" fill="rgb(234, 235, 235)" opacity="1.0" stroke="rgb(0, 0, 0)" stroke-opacity="0.0" stroke-linecap="round" stroke-linejoin="round"/>
    <path d="M 213.0 219.0 C 196.1831817626953 205.3983154296875 164.1596221923828 239.47596740722656 191.0 250.0 C 204.15188598632812 254.47000122070312 228.0750732421875 233.83978271484375 213.0 219.0" stroke-width="2.0" fill="rgb(235, 236, 236)" opacity="1.0" stroke="rgb(0, 0, 0)" stroke-opacity="0.0" stroke-linecap="round" stroke-linejoin="round"/>
    <path d="M 295.0 176.0 C 292.87908935546875 200.611328125 330.3678894042969 222.36366271972656 349.0 210.0 C 351.5842590332031 198.39710998535156 337.3350524902344 201.01431274414062 331.0 201.0 C 320.2303771972656 198.8701934814453 306.6124572753906 186.0387420654297 305.0 175.0 L 295.0 176.0" stroke-width="2.0" fill="rgb(217, 153, 3)" opacity="1.0" stroke="rgb(0, 0, 0)" stroke-opacity="0.0" stroke-linecap="round" stroke-linejoin="round"/>
    <path d="M 215.0 175.0 C 201.35931396484375 170.00462341308594 204.01910400390625 192.481201171875 190.0 197.0 C 181.31846618652344 205.24945068359375 162.7732391357422 194.43392944335938 162.0 209.0 C 174.3333282470703 218.33895874023438 186.6666717529297 210.95516967773438 199.0 206.0 C 209.5430450439453 197.59153747558594 218.89219665527344 185.9579315185547 215.0 175.0" stroke-width="2.0" fill="rgb(217, 153, 3)" opacity="1.0" stroke="rgb(0, 0, 0)" stroke-opacity="0.0" stroke-linecap="round" stroke-linejoin="round"/>
    <path d="M 230.0 323.0 C 231.25869750976562 333.8420715332031 242.1197509765625 328.5884094238281 248.0 325.0 C 257.3333435058594 323.6433410644531 266.6666564941406 326.070556640625 276.0 330.0 C 288.83148193359375 322.7163391113281 270.5666198730469 312.9025573730469 264.0 313.0 C 253.3290252685547 313.3338623046875 240.0057373046875 310.7305908203125 230.0 323.0" stroke-width="2.0" fill="rgb(85, 79, 65)" opacity="1.0" stroke="rgb(0, 0, 0)" stroke-opacity="0.0" stroke-linecap="round" stroke-linejoin="round"/>
    <path d="M 223.0 251.0 C 209.53085327148438 244.57484436035156 207.427001953125 270.5018615722656 222.0 261.0 C 224.9737548828125 258.0 225.5262451171875 255.0 223.0 251.0" stroke-width="2.0" fill="rgb(218, 218, 217)" opacity="1.0" stroke="rgb(0, 0, 0)" stroke-opacity="0.0" stroke-linecap="round" stroke-linejoin="round"/>
    <path d="M 321.0 251.0 C 306.427001953125 245.69387817382812 308.5308532714844 272.0098571777344 322.0 260.0 L 321.0 251.0" stroke-width="2.0" fill="rgb(224, 224, 222)" opacity="1.0" stroke="rgb(0, 0, 0)" stroke-opacity="0.0" stroke-linecap="round" stroke-linejoin="round"/>
  </g>
</svg>
