<?xml version="1.0" ?>
<svg xmlns="http://www.w3.org/2000/svg" version="1.1" width="512" height="384">
  <defs/>
  <g>
    <path d="M -10.0 -10.0 C -9.0 -10.0 512.0 0.0 513.0 0.0 C 514.0 0.0 512.0 384.0 513.0 384.0 C 513.0 385.0 0.0 384.0 0.0 385.0 C 0.0 384.0 0.0 385.0 -10.0 -10.0 L -10.0 -10.0" stroke-width="2.0" fill="rgb(143, 82, 37)" opacity="1.0"/>
    <path d="M 495.4417419433594 168.96559143066406 C 495.24505615234375 169.01174926757812 495.272216796875 169.14817810058594 496.064697265625 168.97271728515625 C 496.8138122558594 171.24964904785156 495.7858581542969 168.0189208984375 496.3336181640625 169.63229370117188 C 495.9407653808594 171.1244659423828 496.9144287109375 168.43914794921875 495.3976745605469 169.14041137695312 C 494.5570373535156 167.91183471679688 495.5378723144531 169.2152099609375 495.02239990234375 168.41079711914062 L 495.4417419433594 168.96559143066406" stroke-width="2.0" fill="rgb(55, 212, 192)" opacity="0.09107492"/>
    <path d="M 345.2829284667969 36.76143264770508 C 339.5474548339844 32.892452239990234 341.3951721191406 31.2601261138916 347.1172180175781 33.80891799926758 C 347.8553466796875 31.37835693359375 345.6183166503906 30.037086486816406 345.74896240234375 30.820608139038086 C 345.9926452636719 28.480323791503906 343.9090270996094 29.807811737060547 342.2405090332031 29.70403289794922 C 339.6928405761719 30.129714965820312 341.018310546875 34.890445709228516 344.41094970703125 31.517826080322266 L 345.2829284667969 36.76143264770508" stroke-width="2.0" fill="rgb(254, 117, 58)" opacity="0.2584989"/>
    <path d="M 173.7102508544922 240.8213348388672 C 174.3660125732422 242.66549682617188 179.6625518798828 247.3133087158203 172.88339233398438 273.7501220703125 C 159.90614318847656 264.60406494140625 154.71890258789062 265.9183349609375 148.07968139648438 235.54469299316406 C 133.4673614501953 200.3042755126953 148.50253295898438 204.7312469482422 170.00218200683594 226.42642211914062 C 173.3938446044922 240.8913116455078 176.1392364501953 240.8834228515625 175.97361755371094 241.46104431152344 L 173.7102508544922 240.8213348388672" stroke-width="2.0" fill="rgb(203, 119, 53)" opacity="0.0"/>
    <path d="M -92.06494903564453 223.66014099121094 C -8.387798309326172 194.2412872314453 -19.686256408691406 190.80691528320312 0.6750355362892151 93.64742279052734 C 87.83648681640625 81.15584564208984 69.91385650634766 84.62864685058594 114.94412231445312 158.42141723632812 C 69.1159439086914 173.04067993164062 41.61528396606445 131.87156677246094 44.488258361816406 256.49200439453125 C 24.560300827026367 240.19302368164062 50.189064025878906 264.3150634765625 24.596702575683594 355.21759033203125 L -92.06494903564453 223.66014099121094" stroke-width="2.0" fill="rgb(255, 151, 66)" opacity="0.6960205"/>
    <path d="M 374.51190185546875 79.5248031616211 C 384.486083984375 125.35010528564453 365.4086608886719 74.7802734375 380.0390930175781 127.28825378417969 C 302.38836669921875 86.61337280273438 269.7892150878906 86.33934020996094 219.09141540527344 90.64838409423828 C 209.5294647216797 64.38297271728516 212.27426147460938 54.44428253173828 245.28167724609375 28.985170364379883 C 297.1264343261719 -4.828233242034912 349.3066711425781 10.608860969543457 370.2327880859375 23.784015655517578 L 374.51190185546875 79.5248031616211" stroke-width="2.0" fill="rgb(255, 246, 219)" opacity="0.97977066"/>
    <path d="M 344.8526306152344 132.88072204589844 C 327.52423095703125 204.62088012695312 412.3926696777344 330.0555114746094 235.56082153320312 218.67245483398438 C 221.77113342285156 204.287109375 211.06114196777344 193.3955535888672 199.225341796875 164.3201904296875 C 189.1416473388672 135.2432861328125 192.82681274414062 83.00865173339844 219.85020446777344 53.532310485839844 C 334.47509765625 54.87575912475586 156.50538635253906 71.32807159423828 339.8710632324219 84.9908676147461 L 344.8526306152344 132.88072204589844" stroke-width="2.0" fill="rgb(240, 229, 204)" opacity="1.0"/>
    <path d="M 9.621060371398926 195.81275939941406 C 9.191864013671875 196.20269775390625 9.979015350341797 194.5648956298828 10.209564208984375 195.30264282226562 C 10.456182479858398 195.30209350585938 10.429940223693848 195.40542602539062 9.969915390014648 195.09469604492188 C 9.671195030212402 195.63333129882812 9.819754600524902 194.74050903320312 9.540275573730469 195.84716796875 C 8.768147468566895 195.31944274902344 7.7253899574279785 195.23167419433594 8.657167434692383 195.4486083984375 L 9.621060371398926 195.81275939941406" stroke-width="2.0" fill="rgb(35, 70, 79)" opacity="0.027255595"/>
    <path d="M 30.125879287719727 225.4745635986328 C 28.69046974182129 222.3608856201172 28.692729949951172 222.4990692138672 30.233129501342773 225.59317016601562 C 29.52667999267578 224.67755126953125 28.310083389282227 225.55824279785156 28.917312622070312 225.5089874267578 C 28.368032455444336 225.2304229736328 28.245248794555664 225.11911010742188 29.741748809814453 225.2434844970703 C 28.247848510742188 224.2649688720703 28.51393699645996 224.267822265625 30.442184448242188 225.73912048339844 L 30.125879287719727 225.4745635986328" stroke-width="2.0" fill="rgb(103, 125, 31)" opacity="0.23593253"/>
    <path d="M 514.8080444335938 388.6682434082031 C 445.0196228027344 439.3275146484375 423.234130859375 396.9942626953125 418.77447509765625 395.9139709472656 C 368.8909912109375 395.6236877441406 367.0738220214844 395.3340759277344 341.0317687988281 384.7184143066406 C 342.884765625 308.3703308105469 346.01397705078125 305.8320617675781 370.52862548828125 336.4339599609375 C 466.76611328125 318.5830078125 426.19744873046875 314.4620666503906 471.6446228027344 338.1177978515625 L 514.8080444335938 388.6682434082031" stroke-width="2.0" fill="rgb(0, 0, 0)" opacity="0.9893399"/>
    <path d="M 419.80816650390625 74.54003143310547 C 344.87646484375 103.15682983398438 310.7192077636719 124.25245666503906 353.21484375 15.273091316223145 C 407.8936462402344 35.818058013916016 422.78692626953125 82.5514144897461 420.0986633300781 77.38197326660156 C 420.6161804199219 190.19134521484375 445.7425231933594 131.73178100585938 419.54315185546875 74.16505432128906 C 358.6230773925781 101.81287384033203 374.9895324707031 70.790771484375 422.2835693359375 152.6954345703125 L 419.80816650390625 74.54003143310547" stroke-width="2.0" fill="rgb(253, 243, 216)" opacity="1.0"/>
    <path d="M 21.3179931640625 148.3264923095703 C 20.59615135192871 148.23048400878906 20.201332092285156 147.13983154296875 21.83742904663086 148.6034698486328 C 22.980480194091797 148.74757385253906 20.391420364379883 148.37620544433594 20.77507781982422 147.77072143554688 C 18.79119300842285 147.1475830078125 21.173250198364258 147.52613830566406 22.534767150878906 149.2654571533203 C 20.893482208251953 147.60279846191406 22.225717544555664 148.9744873046875 21.853445053100586 148.53785705566406 L 21.3179931640625 148.3264923095703" stroke-width="2.0" fill="rgb(131, 125, 170)" opacity="0.058473725"/>
    <path d="M 424.3153076171875 167.9409942626953 C 424.0697326660156 167.9384765625 413.545654296875 211.00950622558594 362.76483154296875 235.47549438476562 C 332.9188232421875 231.2085418701172 404.7287292480469 199.07847595214844 347.5336608886719 209.91212463378906 C 358.5812683105469 118.44499969482422 342.9784240722656 126.1551742553711 332.0257873535156 130.4223175048828 C 392.477783203125 77.51580810546875 443.0478515625 100.36196899414062 428.49627685546875 154.36570739746094 L 424.3153076171875 167.9409942626953" stroke-width="2.0" fill="rgb(252, 242, 215)" opacity="0.99943686"/>
    <path d="M 416.644287109375 110.04859161376953 C 415.948486328125 109.96198272705078 414.93768310546875 111.25492095947266 418.4469299316406 106.91950225830078 C 420.3473205566406 110.48733520507812 418.96044921875 111.5265884399414 418.2766418457031 111.082763671875 C 418.1210021972656 115.08621978759766 419.7880554199219 115.10124969482422 421.5586242675781 113.34547424316406 C 416.74725341796875 110.57000732421875 414.85516357421875 112.22134399414062 415.3052062988281 115.37942504882812 L 416.644287109375 110.04859161376953" stroke-width="2.0" fill="rgb(53, 68, 132)" opacity="0.0"/>
    <path d="M 261.7804260253906 314.3678894042969 C 260.9207763671875 314.19720458984375 259.819580078125 321.0806884765625 258.1846923828125 323.544677734375 C 260.8051452636719 308.24835205078125 277.2303161621094 312.64239501953125 282.32733154296875 314.5090026855469 C 270.4192810058594 307.70257568359375 266.28277587890625 317.0898132324219 266.02398681640625 313.4524841308594 C 265.43328857421875 379.6449890136719 279.0274353027344 363.57745361328125 279.25482177734375 311.6936340332031 L 261.7804260253906 314.3678894042969" stroke-width="2.0" fill="rgb(255, 151, 66)" opacity="0.73926246"/>
    <path d="M 149.07150268554688 252.3662109375 C 137.75872802734375 250.08285522460938 154.35366821289062 262.0291442871094 133.95468139648438 204.97833251953125 C 218.41539001464844 224.77261352539062 242.90660095214844 236.13818359375 202.8184356689453 295.5606689453125 C 212.19325256347656 246.34234619140625 170.61627197265625 264.7237854003906 183.49696350097656 280.6265869140625 C 188.74380493164062 286.3764953613281 185.44393920898438 446.68450927734375 147.94134521484375 302.73614501953125 L 149.07150268554688 252.3662109375" stroke-width="2.0" fill="rgb(255, 151, 66)" opacity="0.70097834"/>
    <path d="M 78.63773345947266 322.0135498046875 C 79.3563232421875 322.2854309082031 78.72896575927734 322.860107421875 76.37200927734375 322.5546569824219 C 79.7304916381836 323.0548095703125 79.24162292480469 322.5206298828125 80.34635162353516 321.9271240234375 C 78.94690704345703 323.2133483886719 79.3873291015625 322.6813659667969 80.22161102294922 323.8913269042969 C 78.78429412841797 322.4852600097656 79.28428649902344 322.8572692871094 78.64872741699219 323.916748046875 L 78.63773345947266 322.0135498046875" stroke-width="2.0" fill="rgb(162, 181, 92)" opacity="0.0"/>
    <path d="M 202.62344360351562 18.17812156677246 C 203.60243225097656 18.87885856628418 203.07122802734375 19.588821411132812 202.4578857421875 18.428564071655273 C 202.0474395751953 19.549068450927734 201.32711791992188 19.05250358581543 202.05601501464844 18.341346740722656 C 201.17054748535156 18.27065086364746 201.62705993652344 17.504592895507812 202.5159912109375 18.090221405029297 C 202.21002197265625 17.108396530151367 203.0340576171875 17.53302001953125 202.69967651367188 18.463470458984375 L 202.62344360351562 18.17812156677246" stroke-width="2.0" fill="rgb(94, 30, 108)" opacity="0.0"/>
    <path d="M 477.34423828125 268.0417175292969 C 476.48602294921875 266.66015625 476.5342102050781 266.8895263671875 476.2353210449219 266.9134826660156 C 478.6493835449219 268.1224670410156 478.46807861328125 267.9534912109375 478.744140625 267.3124694824219 C 477.2789001464844 269.57330322265625 477.35211181640625 270.04351806640625 478.83514404296875 270.4053955078125 C 477.2127990722656 269.31842041015625 477.7650451660156 270.25958251953125 476.69580078125 270.7207336425781 L 477.34423828125 268.0417175292969" stroke-width="2.0" fill="rgb(136, 232, 0)" opacity="0.004318229"/>
    <path d="M 37.00194549560547 163.6787872314453 C 37.64415740966797 162.86407470703125 37.494232177734375 163.39512634277344 38.16347122192383 162.8860321044922 C 36.90524673461914 163.4860076904297 37.04587936401367 163.61679077148438 37.54526901245117 163.12460327148438 C 37.49709701538086 163.1981658935547 39.00824737548828 161.5294189453125 36.28395080566406 164.50717163085938 C 38.243560791015625 162.29367065429688 37.00738525390625 163.79360961914062 38.9179801940918 161.63424682617188 L 37.00194549560547 163.6787872314453" stroke-width="2.0" fill="rgb(118, 143, 120)" opacity="0.19425853"/>
    <path d="M 272.0390930175781 307.2820129394531 C 239.908447265625 361.89593505859375 318.97906494140625 279.4903259277344 319.2661437988281 395.59942626953125 C 176.48414611816406 394.130126953125 146.52105712890625 326.736572265625 250.30873107910156 328.6648864746094 C 241.28228759765625 235.3430633544922 194.54837036132812 437.7860412597656 217.84632873535156 230.00877380371094 C 352.5771179199219 284.86822509765625 273.9942932128906 221.56661987304688 296.6965637207031 347.08306884765625 L 272.0390930175781 307.2820129394531" stroke-width="2.0" fill="rgb(0, 0, 0)" opacity="0.9899165"/>
    <path d="M 89.81523895263672 225.3060760498047 C 87.94264221191406 223.8686065673828 88.00105285644531 224.17349243164062 89.02703857421875 224.9922637939453 C 91.79037475585938 225.2992706298828 87.4325942993164 224.1625518798828 90.14208221435547 225.17144775390625 C 88.22022247314453 224.33035278320312 90.08539581298828 224.82591247558594 91.30171966552734 225.4890899658203 C 89.19768524169922 224.1855010986328 89.97950744628906 224.25839233398438 88.74913787841797 225.22454833984375 L 89.81523895263672 225.3060760498047" stroke-width="2.0" fill="rgb(130, 198, 88)" opacity="0.082479775"/>
    <path d="M 390.30596923828125 207.24459838867188 C 377.3362121582031 216.839111328125 378.8888854980469 219.93617248535156 390.6768493652344 212.87353515625 C 397.0029296875 218.98814392089844 395.9036865234375 222.59063720703125 385.5850524902344 216.9741973876953 C 394.7900695800781 209.27024841308594 392.20428466796875 213.7583770751953 393.2024841308594 223.074462890625 C 394.0400695800781 209.572998046875 389.5670471191406 214.9821319580078 390.3216857910156 213.04090881347656 L 390.30596923828125 207.24459838867188" stroke-width="2.0" fill="rgb(210, 139, 242)" opacity="0.0"/>
    <path d="M 432.1657409667969 26.5938663482666 C 432.501953125 26.10108757019043 431.3786926269531 27.898136138916016 432.11785888671875 26.749500274658203 C 431.9960632324219 26.35803985595703 432.88922119140625 26.974287033081055 431.1981506347656 26.1861629486084 C 432.70465087890625 26.879920959472656 432.1755676269531 26.536556243896484 432.2582702636719 26.658355712890625 C 432.865966796875 26.820758819580078 431.0774230957031 26.309593200683594 433.8717041015625 27.124488830566406 L 432.1657409667969 26.5938663482666" stroke-width="2.0" fill="rgb(124, 33, 137)" opacity="0.18204717"/>
    <path d="M 420.32037353515625 72.92535400390625 C 435.2055969238281 106.59307861328125 428.66094970703125 128.12416076660156 430.9983215332031 125.8333969116211 C 316.51617431640625 130.9082489013672 314.72723388671875 142.0928497314453 315.9852600097656 150.2116241455078 C 330.20654296875 18.43235969543457 337.23394775390625 21.54857635498047 329.4012756347656 11.897361755371094 C 375.9058532714844 18.45441436767578 400.4938659667969 45.68444061279297 410.20458984375 53.66654586791992 L 420.32037353515625 72.92535400390625" stroke-width="2.0" fill="rgb(231, 219, 199)" opacity="0.0"/>
    <path d="M 431.7682800292969 128.25086975097656 C 430.1401062011719 134.60467529296875 432.0289611816406 151.96231079101562 409.5313720703125 189.87188720703125 C 386.1916809082031 188.52928161621094 387.4916076660156 188.85888671875 365.2737121582031 194.10711669921875 C 356.58587646484375 119.59488677978516 350.17572021484375 134.83084106445312 341.2283935546875 86.58795166015625 C 432.10675048828125 75.49332427978516 417.15167236328125 66.57440948486328 432.4767761230469 96.51251220703125 L 431.7682800292969 128.25086975097656" stroke-width="2.0" fill="rgb(250, 243, 218)" opacity="0.16538104"/>
    <path d="M 237.3632354736328 246.7617645263672 C 199.24546813964844 269.832275390625 225.76947021484375 280.3563537597656 208.79066467285156 267.6134033203125 C 175.5693359375 308.1679992675781 238.6898193359375 310.5444641113281 215.71304321289062 281.759521484375 C 206.52926635742188 197.049072265625 137.7486572265625 250.7353057861328 109.41153717041016 171.2057647705078 C 231.23899841308594 210.1512451171875 244.6081085205078 253.0614776611328 235.40853881835938 245.15042114257812 L 237.3632354736328 246.7617645263672" stroke-width="2.0" fill="rgb(221, 130, 57)" opacity="0.99079764"/>
    <path d="M 267.9998474121094 365.5318908691406 C 289.3376770019531 369.6753234863281 289.97369384765625 388.8250732421875 285.1890869140625 399.26849365234375 C 149.7478790283203 397.5648498535156 148.40121459960938 396.5277404785156 199.41712951660156 434.64385986328125 C 173.3457794189453 271.94989013671875 239.9789581298828 269.0712890625 203.37188720703125 427.0299072265625 C 155.34373474121094 193.0588836669922 216.6717071533203 268.7432861328125 196.2863311767578 291.1082763671875 L 267.9998474121094 365.5318908691406" stroke-width="2.0" fill="rgb(0, 0, 0)" opacity="0.9448109"/>
    <path d="M 370.35028076171875 220.0641632080078 C 357.6111755371094 223.28355407714844 365.5787048339844 203.74754333496094 361.6498107910156 289.3277893066406 C 348.2372741699219 286.1517028808594 353.24554443359375 286.3484802246094 327.5328674316406 274.1737060546875 C 341.0168151855469 159.57937622070312 301.0728454589844 281.7324523925781 337.2080993652344 167.8975372314453 C 378.7585754394531 150.93780517578125 341.4597473144531 223.8148193359375 370.14007568359375 207.47003173828125 L 370.35028076171875 220.0641632080078" stroke-width="2.0" fill="rgb(0, 0, 0)" opacity="0.99268436"/>
    <path d="M 84.35528564453125 115.62741088867188 C 83.1666259765625 118.46562957763672 83.74757385253906 118.56453704833984 85.92701721191406 120.40424346923828 C 86.75687408447266 118.55593872070312 85.21773529052734 117.29559326171875 86.04823303222656 120.51180267333984 C 85.79833984375 115.87299346923828 86.2700424194336 115.29257202148438 80.39126586914062 118.0446548461914 C 86.11548614501953 120.09207916259766 85.38226318359375 119.05924224853516 86.1530990600586 119.02320861816406 L 84.35528564453125 115.62741088867188" stroke-width="2.0" fill="rgb(74, 110, 51)" opacity="0.1083742"/>
    <path d="M 245.37554931640625 154.56358337402344 C 245.2720947265625 154.27122497558594 245.3561248779297 154.29452514648438 243.91204833984375 153.5037078857422 C 245.1394805908203 154.19479370117188 243.24696350097656 153.1863555908203 245.16378784179688 154.19522094726562 C 245.475830078125 154.64280700683594 245.25010681152344 154.43472290039062 245.35556030273438 154.62893676757812 C 244.9574737548828 153.63284301757812 245.58567810058594 155.1724395751953 245.98741149902344 156.11441040039062 L 245.37554931640625 154.56358337402344" stroke-width="2.0" fill="rgb(177, 116, 138)" opacity="0.1267497"/>
    <path d="M 75.74942016601562 171.32815551757812 C 135.224365234375 227.25070190429688 77.03101348876953 165.56930541992188 130.2306365966797 189.238525390625 C 206.52352905273438 157.2798309326172 120.33196258544922 206.59580993652344 130.11875915527344 110.16647338867188 C 21.832590103149414 200.7018280029297 99.06441497802734 173.62680053710938 178.8968963623047 192.99607849121094 C 113.67961883544922 217.82545471191406 145.5706787109375 261.8166198730469 129.4588623046875 250.90802001953125 L 75.74942016601562 171.32815551757812" stroke-width="2.0" fill="rgb(220, 129, 57)" opacity="1.0"/>
    <path d="M 460.6519470214844 317.8895263671875 C 462.239501953125 350.55877685546875 555.4959106445312 287.5187072753906 540.376220703125 392.89984130859375 C 324.5130920410156 364.0283203125 369.0923767089844 350.0191955566406 384.0765075683594 319.2826843261719 C 387.8664245605469 258.76531982421875 420.1459045410156 290.5682067871094 428.4805908203125 250.83641052246094 C 398.5899658203125 269.8583984375 453.3812561035156 273.7856750488281 457.5243225097656 296.5067443847656 L 460.6519470214844 317.8895263671875" stroke-width="2.0" fill="rgb(0, 0, 0)" opacity="0.99872327"/>
    <path d="M 182.69581604003906 -6.5463056564331055 C -77.32022094726562 -41.645660400390625 -61.6905403137207 31.431346893310547 116.93384552001953 148.33053588867188 C 349.7015686035156 -46.34086227416992 331.6020202636719 -133.83941650390625 133.8157196044922 33.3493537902832 C 17.49106788635254 126.07223510742188 64.48214721679688 97.88665008544922 0.8396676182746887 102.53459167480469 C -10.266913414001465 8.048834800720215 -21.9254150390625 47.3975944519043 50.9532470703125 100.36690521240234 L 182.69581604003906 -6.5463056564331055" stroke-width="2.0" fill="rgb(221, 130, 57)" opacity="0.9874903"/>
    <path d="M 265.9244079589844 0.280364990234375 C 175.19290161132812 94.01676940917969 344.0638732910156 -92.17009735107422 433.41229248046875 99.57476043701172 C 514.0687866210938 162.38018798828125 520.1844482421875 170.0201873779297 494.8512878417969 151.13812255859375 C 473.5775146484375 138.26986694335938 475.2692565917969 137.15126037597656 519.682373046875 168.14065551757812 C 519.836181640625 115.05611419677734 513.705078125 115.07183074951172 625.8629150390625 -23.467756271362305 L 265.9244079589844 0.280364990234375" stroke-width="2.0" fill="rgb(255, 151, 67)" opacity="0.69391835"/>
    <path d="M 160.23117065429688 396.68048095703125 C 165.9640655517578 379.0518798828125 168.74191284179688 379.0160217285156 167.53619384765625 397.7724914550781 C 22.282075881958008 400.4725341796875 17.41555404663086 400.69610595703125 7.815169811248779 396.4416198730469 C 45.45994567871094 318.4787902832031 35.665931701660156 291.2975769042969 92.45983123779297 259.1397705078125 C 156.44334411621094 293.3469543457031 71.91060638427734 290.19476318359375 160.30709838867188 290.157470703125 L 160.23117065429688 396.68048095703125" stroke-width="2.0" fill="rgb(0, 0, 0)" opacity="0.99816275"/>
    <path d="M 185.35528564453125 115.78003692626953 C 134.10232543945312 111.80328369140625 216.23159790039062 120.6419448852539 204.51876831054688 53.1284065246582 C 67.37474060058594 215.64060974121094 178.1707305908203 201.59140014648438 152.8360595703125 147.83297729492188 C 170.677734375 120.38086700439453 179.00625610351562 144.69900512695312 170.44012451171875 137.9383544921875 C 192.54544067382812 135.00772094726562 113.9947738647461 147.22293090820312 217.03900146484375 216.26046752929688 L 185.35528564453125 115.78003692626953" stroke-width="2.0" fill="rgb(226, 133, 59)" opacity="0.9066674"/>
    <path d="M 422.6857604980469 100.19774627685547 C 422.29486083984375 99.47298431396484 422.15203857421875 99.68086242675781 424.6166076660156 100.16051483154297 C 424.0489807128906 100.14274597167969 422.7169189453125 99.93118286132812 422.3898010253906 100.43354797363281 C 423.06585693359375 100.43785095214844 422.6591491699219 99.925048828125 423.0088195800781 100.2138442993164 C 423.32220458984375 99.35459899902344 423.1333923339844 99.87276458740234 422.3824462890625 99.74195861816406 L 422.6857604980469 100.19774627685547" stroke-width="2.0" fill="rgb(93, 63, 63)" opacity="0.23033215"/>
    <path d="M 520.994384765625 169.4320831298828 C 551.3117065429688 343.31378173828125 585.9412231445312 327.6007995605469 465.9305419921875 328.6499328613281 C 423.4891357421875 146.6062774658203 334.91314697265625 445.01824951171875 366.1326599121094 237.13478088378906 C 478.3424072265625 253.27163696289062 481.8117370605469 254.13473510742188 360.72711181640625 236.16397094726562 C 415.6896057128906 211.04278564453125 442.8970947265625 152.43235778808594 426.7533874511719 91.89997100830078 L 520.994384765625 169.4320831298828" stroke-width="2.0" fill="rgb(255, 151, 66)" opacity="0.6880401"/>
    <path d="M 56.79512405395508 335.6221008300781 C 59.845149993896484 327.090576171875 57.714210510253906 322.8423767089844 3.7886385917663574 400.1318664550781 C -61.52857971191406 372.66656494140625 -65.18010711669922 323.502197265625 27.845922470092773 328.70794677734375 C 28.51946258544922 278.4320983886719 23.93018341064453 292.842529296875 37.25212478637695 289.9458923339844 C 38.804813385009766 299.61895751953125 39.35917663574219 209.60499572753906 47.99899673461914 223.86146545410156 L 56.79512405395508 335.6221008300781" stroke-width="2.0" fill="rgb(0, 0, 0)" opacity="0.99213564"/>
    <path d="M 288.5234069824219 347.04791259765625 C 316.4369201660156 211.58282470703125 265.1029357910156 277.4010009765625 256.79736328125 292.08209228515625 C 276.2716369628906 261.91363525390625 246.1611785888672 253.61387634277344 239.71629333496094 244.8136444091797 C 283.99462890625 233.45042419433594 155.8968963623047 234.142578125 155.8525848388672 163.12330627441406 C 378.8476257324219 343.47607421875 318.0306091308594 141.7517547607422 332.92950439453125 341.80010986328125 L 288.5234069824219 347.04791259765625" stroke-width="2.0" fill="rgb(220, 129, 57)" opacity="0.98912376"/>
    <path d="M 97.62492370605469 175.56723022460938 C 69.2518081665039 196.4096221923828 53.45738983154297 106.5673599243164 41.721351623535156 239.767333984375 C 55.516014099121094 202.49484252929688 53.55431365966797 376.2194519042969 96.84036254882812 172.09573364257812 C 77.75080108642578 194.2715606689453 168.41915893554688 268.18658447265625 117.4531021118164 290.9012451171875 C 109.3802261352539 218.09030151367188 17.653888702392578 298.17840576171875 67.3699951171875 289.7100830078125 L 97.62492370605469 175.56723022460938" stroke-width="2.0" fill="rgb(233, 137, 60)" opacity="0.85047686"/>
    <path d="M 316.70306396484375 57.85860061645508 C 317.06634521484375 56.05064392089844 317.980712890625 56.90104293823242 316.46337890625 58.77217102050781 C 316.9147033691406 56.45217514038086 318.1072692871094 58.459617614746094 317.149169921875 58.36309051513672 C 314.6514892578125 55.920433044433594 317.9875183105469 54.88877487182617 316.48394775390625 57.57325744628906 C 315.39654541015625 54.58774185180664 317.50103759765625 55.39433288574219 316.6513671875 57.10824966430664 L 316.70306396484375 57.85860061645508" stroke-width="2.0" fill="rgb(255, 127, 97)" opacity="0.0"/>
    <path d="M 256.7506408691406 294.7082824707031 C 256.3638916015625 293.5162048339844 258.9125671386719 285.98358154296875 256.47344970703125 290.251220703125 C 258.5382080078125 290.7223205566406 252.39183044433594 290.7176818847656 281.0968017578125 262.2421569824219 C 267.3935852050781 282.9018859863281 282.27947998046875 269.6135559082031 278.7659912109375 300.7987976074219 C 250.4838104248047 299.8196716308594 261.291015625 303.5699768066406 258.9839782714844 293.67120361328125 L 256.7506408691406 294.7082824707031" stroke-width="2.0" fill="rgb(226, 133, 59)" opacity="0.9671443"/>
    <path d="M 328.7335205078125 244.94480895996094 C 323.5223083496094 247.70742797851562 301.65423583984375 243.96275329589844 294.372314453125 245.00440979003906 C 281.4979553222656 242.69281005859375 244.7155303955078 235.9661102294922 214.77346801757812 195.88711547851562 C 209.60670471191406 190.9000701904297 204.7084197998047 177.3662567138672 201.25042724609375 168.5227508544922 C 242.14170837402344 149.5043487548828 316.5282287597656 144.4755859375 343.3551940917969 118.74098205566406 L 328.7335205078125 244.94480895996094" stroke-width="2.0" fill="rgb(255, 254, 225)" opacity="0.53290987"/>
    <path d="M 405.53411865234375 328.9333190917969 C 437.5537109375 380.1570739746094 430.5101318359375 386.08203125 413.816162109375 396.64849853515625 C 296.5013427734375 398.1181640625 292.1801452636719 398.28717041015625 246.98521423339844 348.5249328613281 C 318.3572692871094 295.7984619140625 337.7426452636719 375.85400390625 322.4181213378906 267.9047546386719 C 399.6523742675781 274.3113708496094 358.8285217285156 246.23826599121094 366.95526123046875 328.8077087402344 L 405.53411865234375 328.9333190917969" stroke-width="2.0" fill="rgb(0, 0, 0)" opacity="0.9842218"/>
    <path d="M 245.15589904785156 379.10394287109375 C 215.5380401611328 397.1799621582031 212.7266845703125 397.16497802734375 205.5538330078125 397.5484619140625 C 145.2456817626953 396.8721618652344 140.55564880371094 397.5038146972656 98.70568084716797 379.9909362792969 C 108.9544448852539 294.6549377441406 114.42166900634766 298.85919189453125 104.79347229003906 309.5736999511719 C 153.2683868408203 337.8261413574219 149.03697204589844 324.46197509765625 233.86105346679688 329.9165954589844 L 245.15589904785156 379.10394287109375" stroke-width="2.0" fill="rgb(0, 0, 0)" opacity="0.9990078"/>
    <path d="M 227.25588989257812 26.883543014526367 C 228.1024169921875 28.860599517822266 228.27012634277344 29.392791748046875 227.5940399169922 28.122098922729492 C 228.10140991210938 28.892833709716797 227.6890869140625 28.54834747314453 227.75115966796875 27.732681274414062 C 230.3710479736328 33.15259552001953 231.26063537597656 34.69534683227539 232.42376708984375 36.70375061035156 C 230.08419799804688 32.493568420410156 228.95118713378906 30.2871150970459 230.75205993652344 33.69170379638672 L 227.25588989257812 26.883543014526367" stroke-width="2.0" fill="rgb(168, 217, 42)" opacity="0.09579829"/>
    <path d="M 332.3494873046875 265.23333740234375 C 332.1431579589844 264.4443359375 333.1618347167969 265.1275634765625 332.3099060058594 265.2001953125 C 332.7879333496094 264.7389831542969 331.8072509765625 265.09942626953125 332.40045166015625 265.37847900390625 C 333.11126708984375 267.3608703613281 333.8703918457031 265.8042907714844 332.3135681152344 268.0286865234375 C 333.67657470703125 265.435302734375 332.8651123046875 266.428955078125 334.1409606933594 267.3888854980469 L 332.3494873046875 265.23333740234375" stroke-width="2.0" fill="rgb(166, 185, 50)" opacity="0.0"/>
    <path d="M 88.8134994506836 247.75350952148438 C 88.32115936279297 247.6071014404297 91.02437591552734 248.0029754638672 88.79953002929688 247.67642211914062 C 91.21659088134766 243.5131072998047 89.43605041503906 246.4061279296875 89.73280334472656 246.09007263183594 C 89.7297134399414 245.74769592285156 90.75878143310547 244.6335906982422 89.76935577392578 245.886962890625 C 90.44926452636719 245.30874633789062 89.65419006347656 245.189697265625 90.06852722167969 245.43753051757812 L 88.8134994506836 247.75350952148438" stroke-width="2.0" fill="rgb(101, 93, 212)" opacity="0.13657652"/>
  </g>
</svg>
