<?xml version="1.0" ?>
<svg xmlns="http://www.w3.org/2000/svg" version="1.1" width="512" height="512">
  <defs/>
  <g>
    <path d="M 441.0452880859375 390.0301513671875 C 459.8946533203125 430.8500671386719 469.9687194824219 288.1221618652344 477.3063659667969 515.5521850585938 C 308.5765686035156 518.4190673828125 309.4342346191406 518.71826171875 209.1997833251953 511.8752136230469 C 258.4445495605469 302.4016418457031 237.86923217773438 428.0298156738281 315.6452941894531 325.56494140625 C 344.5228576660156 290.7002868652344 361.8544921875 307.2179870605469 441.0452880859375 390.0301513671875" stroke-width="0.0" fill="rgb(0, 41, 97)" opacity="0.70289713" stroke="rgb(93, 215, 158)" stroke-opacity="0.072959244" stroke-linecap="round" stroke-linejoin="round"/>
    <path d="M 120.72261810302734 289.01287841796875 C 122.79414367675781 316.15521240234375 127.4822769165039 338.1673889160156 90.00556182861328 354.86993408203125 C 56.61528396606445 351.4235534667969 62.036354064941406 352.9603576660156 59.45092010498047 345.4446716308594 C 32.906776428222656 286.7322998046875 28.165544509887695 263.69329833984375 109.79609680175781 266.29815673828125 C 122.57369232177734 286.70904541015625 110.59333801269531 291.25701904296875 120.72261810302734 289.01287841796875" stroke-width="0.0" fill="rgb(255, 255, 255)" opacity="0.99893105" stroke="rgb(198, 253, 74)" stroke-opacity="0.16365163" stroke-linecap="round" stroke-linejoin="round"/>
    <path d="M 445.2418212890625 162.27822875976562 C 448.5670471191406 174.92430114746094 441.05718994140625 183.9003448486328 436.9176940917969 180.97434997558594 C 384.6865234375 180.9842987060547 387.56976318359375 180.9767608642578 387.97723388671875 181.0069122314453 C 388.4075622558594 125.41435241699219 386.3219299316406 136.5994415283203 393.1079406738281 134.92393493652344 C 457.36322021484375 136.244140625 442.635498046875 128.349365234375 445.2418212890625 162.27822875976562" stroke-width="0.0" fill="rgb(255, 255, 255)" opacity="0.96322054" stroke="rgb(41, 104, 239)" stroke-opacity="0.9976777" stroke-linecap="round" stroke-linejoin="round"/>
    <path d="M 127.21077728271484 171.15164184570312 C 130.3553466796875 165.9253387451172 58.39976501464844 96.48194885253906 112.45170593261719 177.26531982421875 C 65.20773315429688 154.7716064453125 80.30650329589844 126.62247467041016 42.89358139038086 79.70597839355469 C 65.49982452392578 97.27162170410156 61.47438430786133 74.00857543945312 141.1207733154297 74.03752136230469 C 139.20803833007812 87.37641906738281 90.78640747070312 91.46920013427734 127.21077728271484 171.15164184570312" stroke-width="0.0" fill="rgb(21, 21, 22)" opacity="0.96071416" stroke="rgb(141, 146, 155)" stroke-opacity="0.7741763" stroke-linecap="round" stroke-linejoin="round"/>
    <path d="M 273.19305419921875 145.69554138183594 C 128.5251007080078 86.29218292236328 184.29776000976562 61.891258239746094 118.02226257324219 101.40289306640625 C 76.99300384521484 96.89077758789062 24.156435012817383 78.21611022949219 41.76585006713867 36.58858108520508 C 39.530555725097656 83.95152282714844 68.96604919433594 60.265602111816406 119.1336898803711 34.396183013916016 C 193.51129150390625 -40.41199493408203 314.1292724609375 14.761752128601074 273.19305419921875 145.69554138183594" stroke-width="0.0" fill="rgb(41, 42, 51)" opacity="0.7780159" stroke="rgb(128, 55, 5)" stroke-opacity="0.93192965" stroke-linecap="round" stroke-linejoin="round"/>
    <path d="M 311.2149963378906 187.31715393066406 C 237.153076171875 304.0057067871094 276.4903869628906 342.3197937011719 236.64447021484375 299.6675109863281 C 201.30662536621094 282.1855163574219 264.5006408691406 263.6051330566406 236.58653259277344 247.24635314941406 C 251.7709503173828 229.27500915527344 264.0329284667969 212.45982360839844 310.0430603027344 170.97055053710938 C 313.904296875 163.9090576171875 330.9062805175781 172.9038543701172 311.2149963378906 187.31715393066406" stroke-width="0.0" fill="rgb(17, 20, 27)" opacity="0.9760553" stroke="rgb(18, 223, 21)" stroke-opacity="0.72515106" stroke-linecap="round" stroke-linejoin="round"/>
    <path d="M 382.1258850097656 255.67991638183594 C 293.82867431640625 230.81375122070312 301.6266784667969 374.5243835449219 219.71676635742188 406.3240966796875 C 250.0261688232422 290.5958557128906 258.57720947265625 314.6462097167969 251.7288055419922 311.1258850097656 C 280.6055603027344 411.3683166503906 269.32232666015625 311.0564270019531 361.3902893066406 201.64773559570312 C 467.0838928222656 300.21234130859375 468.6848449707031 363.4168395996094 382.1258850097656 255.67991638183594" stroke-width="0.0" fill="rgb(42, 53, 68)" opacity="0.9877016" stroke="rgb(5, 147, 4)" stroke-opacity="0.9604074" stroke-linecap="round" stroke-linejoin="round"/>
    <path d="M 297.0 273.0 C 296.33013916015625 275.5 294.5 277.33013916015625 292.0 278.0 C 289.5 277.33013916015625 287.66986083984375 275.5 287.0 273.0 C 287.66986083984375 270.5 289.5 268.66986083984375 292.0 268.0 C 294.5 268.66986083984375 296.33013916015625 270.5 297.0 273.0" stroke-width="0.0" fill="rgb(114, 165, 230)" opacity="1.0" stroke="rgb(208, 164, 83)" stroke-opacity="0.6117233" stroke-linecap="round" stroke-linejoin="round"/>
    <path d="M 293.0 305.0 C 292.33013916015625 307.5 290.5 309.33013916015625 288.0 310.0 C 285.5 309.33013916015625 283.66986083984375 307.5 283.0 305.0 C 283.66986083984375 302.5 285.5 300.66986083984375 288.0 300.0 C 290.5 300.66986083984375 292.33013916015625 302.5 293.0 305.0" stroke-width="0.0" fill="rgb(113, 164, 229)" opacity="1.0" stroke="rgb(53, 67, 189)" stroke-opacity="0.4574967" stroke-linecap="round" stroke-linejoin="round"/>
    <path d="M 346.0 198.0 C 345.33013916015625 200.5 343.5 202.3301239013672 341.0 203.0 C 338.5 202.3301239013672 336.66986083984375 200.5 336.0 198.0 C 336.66986083984375 195.5 338.5 193.6698760986328 341.0 193.0 C 343.5 193.6698760986328 345.33013916015625 195.5 346.0 198.0" stroke-width="0.0" fill="rgb(119, 165, 225)" opacity="1.0" stroke="rgb(70, 182, 114)" stroke-opacity="0.038471144" stroke-linecap="round" stroke-linejoin="round"/>
    <path d="M 437.0 463.0 C 436.33013916015625 465.5 434.5 467.33013916015625 432.0 468.0 C 429.5 467.33013916015625 427.66986083984375 465.5 427.0 463.0 C 427.66986083984375 460.5 429.5 458.66986083984375 432.0 458.0 C 434.5 458.66986083984375 436.33013916015625 460.5 437.0 463.0" stroke-width="0.0" fill="rgb(11, 15, 26)" opacity="1.0" stroke="rgb(218, 202, 211)" stroke-opacity="0.8990259" stroke-linecap="round" stroke-linejoin="round"/>
    <path d="M 458.0 490.0 C 457.33013916015625 492.5 455.5 494.33013916015625 453.0 495.0 C 450.5 494.33013916015625 448.66986083984375 492.5 448.0 490.0 C 448.66986083984375 487.5 450.5 485.66986083984375 453.0 485.0 C 455.5 485.66986083984375 457.33013916015625 487.5 458.0 490.0" stroke-width="0.0" fill="rgb(12, 13, 17)" opacity="1.0" stroke="rgb(142, 173, 108)" stroke-opacity="0.9642791" stroke-linecap="round" stroke-linejoin="round"/>
    <path d="M 240.0 221.0 C 239.3301239013672 223.5 237.5 225.3301239013672 235.0 226.0 C 232.5 225.3301239013672 230.6698760986328 223.5 230.0 221.0 C 230.6698760986328 218.5 232.5 216.6698760986328 235.0 216.0 C 237.5 216.6698760986328 239.3301239013672 218.5 240.0 221.0" stroke-width="0.0" fill="rgb(164, 76, 47)" opacity="1.0" stroke="rgb(237, 75, 230)" stroke-opacity="0.9956738" stroke-linecap="round" stroke-linejoin="round"/>
    <path d="M 203.0 469.0 C 202.3301239013672 471.5 200.5 473.33013916015625 198.0 474.0 C 195.5 473.33013916015625 193.6698760986328 471.5 193.0 469.0 C 193.6698760986328 466.5 195.5 464.66986083984375 198.0 464.0 C 200.5 464.66986083984375 202.3301239013672 466.5 203.0 469.0" stroke-width="0.0" fill="rgb(7, 8, 13)" opacity="1.0" stroke="rgb(193, 193, 23)" stroke-opacity="0.030997703" stroke-linecap="round" stroke-linejoin="round"/>
    <path d="M 258.0 371.0 C 257.33013916015625 373.5 255.5 375.33013916015625 253.0 376.0 C 250.5 375.33013916015625 248.6698760986328 373.5 248.0 371.0 C 248.6698760986328 368.5 250.5 366.66986083984375 253.0 366.0 C 255.5 366.66986083984375 257.33013916015625 368.5 258.0 371.0" stroke-width="0.0" fill="rgb(53, 93, 145)" opacity="1.0" stroke="rgb(34, 22, 69)" stroke-opacity="0.62834334" stroke-linecap="round" stroke-linejoin="round"/>
  </g>
</svg>
