<?xml version="1.0" ?>
<svg xmlns="http://www.w3.org/2000/svg" version="1.1" width="512" height="347">
  <defs/>
  <g>
    <path d="M 0.0 0.0 L 512.0 0.0 L 512.0 347.0 L 0.0 347.0 L 0.0 0.0" stroke-width="0.0" fill="rgb(255, 255, 255)" opacity="1.0" stroke="rgb(0, 0, 0)" stroke-opacity="0.0" stroke-linecap="round" stroke-linejoin="round"/>
    <path d="M 0.0 0.0 L 0.0 346.0 L 511.0 346.0 L 511.0 1.0 C 341.0 1.199966549873352 171.0 1.6807295083999634 0.0 0.0" stroke-width="2.0" fill="rgb(255, 255, 255)" opacity="1.0" stroke="rgb(0, 0, 0)" stroke-opacity="0.0" stroke-linecap="round" stroke-linejoin="round"/>
    <path d="M 472.0 265.0 C 470.29461669921875 253.53033447265625 460.2600402832031 258.5534362792969 455.0 251.0 C 451.0873107910156 237.3333282470703 449.69512939453125 223.6666717529297 451.0 210.0 C 445.1448974609375 204.00477600097656 438.1292724609375 206.33212280273438 431.0 200.0 C 428.8288269042969 186.6666717529297 417.66302490234375 173.3333282470703 426.0 160.0 C 406.1529846191406 142.37619018554688 398.3028564453125 116.23748779296875 393.0 93.0 C 322.3333435058594 76.09774780273438 251.6666717529297 77.78901672363281 181.0 96.0 C 182.69447326660156 113.19251251220703 156.07032775878906 113.8843994140625 144.0 117.0 C 127.34758758544922 102.57296752929688 107.2291488647461 126.6798324584961 89.0 133.0 C 63.68634796142578 150.25257873535156 50.384803771972656 178.8144989013672 56.0 204.0 C 46.58467102050781 217.6666717529297 57.6097412109375 231.3333282470703 47.0 245.0 C 51.73078918457031 266.6666564941406 38.67673110961914 288.3333435058594 46.0 310.0 L 159.0 311.0 C 171.7313232421875 301.3931884765625 191.2686767578125 318.8963317871094 204.0 308.0 C 209.35385131835938 309.3717956542969 208.6300048828125 310.64703369140625 213.0 306.0 C 228.0 308.9830322265625 243.0 306.1296691894531 258.0 307.0 C 266.830810546875 322.9063720703125 278.7528076171875 291.500732421875 285.0 307.0 C 303.3333435058594 303.3919372558594 321.6666564941406 316.5908508300781 340.0 306.0 C 367.3333435058594 311.00726318359375 394.6666564941406 302.9200744628906 422.0 308.0 C 438.0841064453125 303.494873046875 459.2192687988281 311.21484375 472.0 300.0 C 472.0688781738281 288.6666564941406 467.8105773925781 277.3333435058594 472.0 265.0" stroke-width="2.0" fill="rgb(117, 84, 65)" opacity="1.0" stroke="rgb(0, 0, 0)" stroke-opacity="0.0" stroke-linecap="round" stroke-linejoin="round"/>
    <path d="M 195.0 2.0 C 200.6537628173828 1.4960194826126099 205.53317260742188 9.726510047912598 209.0 3.0 C 213.03759765625 2.774085521697998 225.66354370117188 3.940473794937134 217.0 10.0 C 221.8694610595703 13.375990867614746 216.2616729736328 13.572096824645996 215.0 18.0 C 216.80599975585938 21.875417709350586 216.2032470703125 35.369544982910156 220.0 28.0 C 235.68368530273438 41.29658126831055 246.31517028808594 64.06197357177734 240.0 81.0 C 292.0 77.86428833007812 344.0 75.40666198730469 396.0 91.0 C 396.80108642578125 108.66666412353516 408.50592041015625 126.33333587646484 413.0 144.0 C 421.0683898925781 146.2994842529297 422.671630859375 152.84799194335938 429.0 158.0 C 423.53656005859375 172.79296875 427.3712463378906 201.98587036132812 447.0 203.0 C 455.5226745605469 209.50689697265625 458.6304016113281 215.4712371826172 453.0 224.0 C 455.47637939453125 236.5146942138672 454.5692138671875 252.7551727294922 472.0 257.0 C 476.264892578125 265.7637023925781 469.095458984375 280.71038818359375 485.0 281.0 C 491.7574768066406 274.3676452636719 501.5940246582031 270.5505065917969 511.0 271.0 L 511.0 1.0 L 195.0 2.0" stroke-width="2.0" fill="rgb(118, 135, 171)" opacity="1.0" stroke="rgb(0, 0, 0)" stroke-opacity="0.0" stroke-linecap="round" stroke-linejoin="round"/>
    <path d="M 195.0 3.0 L 0.0 0.0 L 0.0 279.0 C 7.342223167419434 278.5170593261719 11.446135520935059 274.08843994140625 19.0 281.0 C 21.260271072387695 297.47393798828125 34.807106018066406 281.2159118652344 43.0 275.0 C 44.07712936401367 242.0 54.4789924621582 209.0 53.0 176.0 C 63.362548828125 142.30270385742188 104.6620101928711 118.8272476196289 132.0 108.0 C 139.6666717529297 107.95355224609375 147.3333282470703 117.42223358154297 155.0 113.0 L 176.0 105.0 C 179.4809112548828 100.33333587646484 176.53652954101562 95.66666412353516 182.0 91.0 L 241.0 79.0 C 232.28387451171875 78.41515350341797 244.07894897460938 74.49161529541016 242.0 69.0 C 232.3365020751953 59.884883880615234 239.4853515625 46.59918212890625 227.0 42.0 C 225.69647216796875 31.34912109375 209.343505859375 41.33332443237305 203.0 26.0 C 203.7166290283203 16.141321182250977 196.5419921875 10.767830848693848 187.0 5.0 C 189.3333282470703 1.6399177312850952 191.6666717529297 3.443415641784668 195.0 3.0" stroke-width="2.0" fill="rgb(211, 163, 125)" opacity="1.0" stroke="rgb(0, 0, 0)" stroke-opacity="0.0" stroke-linecap="round" stroke-linejoin="round"/>
    <path d="M 15.0 320.0 C 31.692163467407227 331.5070495605469 52.647727966308594 333.9877624511719 71.0 346.0 L 511.0 346.0 L 511.0 324.0 C 482.3333435058594 321.2562255859375 453.6666564941406 319.7301330566406 425.0 319.0 L 417.0 314.0 C 376.8184509277344 316.14447021484375 334.58465576171875 310.4246520996094 296.0 319.0 C 293.48724365234375 314.0416564941406 279.2996520996094 311.2041320800781 291.0 318.0 C 288.426025390625 324.2533264160156 271.5061340332031 322.4455871582031 273.0 312.0 L 271.0 315.0 C 187.6666717529297 317.0118713378906 104.33333587646484 313.2475280761719 21.0 313.0 C 18.358797073364258 315.83721923828125 14.73399829864502 314.9515380859375 15.0 320.0" stroke-width="2.0" fill="rgb(89, 76, 77)" opacity="1.0" stroke="rgb(0, 0, 0)" stroke-opacity="0.0" stroke-linecap="round" stroke-linejoin="round"/>
    <path d="M 0.0 124.0 L 0.0 279.0 C 8.441744804382324 275.3114013671875 13.988929748535156 276.9024353027344 22.0 279.0 C 27.430355072021484 282.3952331542969 22.67346954345703 287.10748291015625 26.0 289.0 C 31.24833106994629 281.7326354980469 42.49348068237305 277.56231689453125 45.0 269.0 C 42.1203498840332 237.0 56.943153381347656 205.0 53.0 173.0 L 56.0 166.0 C 41.864898681640625 151.747802734375 11.9291353225708 149.6265106201172 7.0 129.0 L 0.0 124.0" stroke-width="2.0" fill="rgb(199, 148, 109)" opacity="1.0" stroke="rgb(0, 0, 0)" stroke-opacity="0.0" stroke-linecap="round" stroke-linejoin="round"/>
    <path d="M 0.0 193.0 L 0.0 281.0 C 6.208541393280029 285.48211669921875 8.528944969177246 272.41534423828125 17.0 280.0 C 20.27932357788086 284.3782958984375 12.535051345825195 293.1286315917969 21.0 293.0 C 33.851318359375 291.73974609375 34.694610595703125 279.1910095214844 45.0 274.0 C 48.3016357421875 258.7079772949219 41.01567459106445 242.610595703125 50.0 230.0 C 48.193233489990234 223.267578125 49.08192443847656 215.9192352294922 51.0 208.0 C 34.66474914550781 199.91998291015625 15.669225692749023 200.5046844482422 0.0 193.0" stroke-width="2.0" fill="rgb(195, 143, 108)" opacity="1.0" stroke="rgb(0, 0, 0)" stroke-opacity="0.0" stroke-linecap="round" stroke-linejoin="round"/>
    <path d="M 0.0 83.0 C 3.8056626319885254 97.66339111328125 -9.231210708618164 119.56768798828125 10.0 128.0 C 18.618833541870117 147.09759521484375 39.29826736450195 154.57470703125 54.0 159.0 C 55.982051849365234 145.38900756835938 81.33161163330078 147.24249267578125 80.0 133.0 C 65.47649383544922 134.2922821044922 56.27000427246094 119.99369812011719 47.0 107.0 C 31.66666603088379 100.5091781616211 16.33333396911621 89.8590316772461 0.0 83.0" stroke-width="2.0" fill="rgb(251, 190, 107)" opacity="1.0" stroke="rgb(0, 0, 0)" stroke-opacity="0.0" stroke-linecap="round" stroke-linejoin="round"/>
    <path d="M 511.0 226.0 C 493.7792663574219 237.04539489746094 471.9702453613281 219.88621520996094 458.0 235.0 C 453.3371887207031 243.86036682128906 457.17010498046875 258.2992248535156 469.0 255.0 C 469.6466064453125 260.4289855957031 477.2099609375 262.74957275390625 472.0 268.0 C 468.5926818847656 276.2621765136719 478.2568664550781 289.0382080078125 488.0 281.0 C 494.7929992675781 285.7391662597656 487.4392395019531 277.5340576171875 493.0 275.0 L 511.0 272.0 L 511.0 226.0" stroke-width="2.0" fill="rgb(185, 157, 129)" opacity="1.0" stroke="rgb(0, 0, 0)" stroke-opacity="0.0" stroke-linecap="round" stroke-linejoin="round"/>
    <path d="M 0.0 0.0 C -3.0447309017181396 9.582805633544922 4.9903950691223145 22.999237060546875 17.0 21.0 C 26.797510147094727 23.671161651611328 31.952775955200195 32.21991729736328 25.0 40.0 C 37.04413604736328 56.31403732299805 53.300662994384766 39.64635467529297 67.0 49.0 C 77.99793243408203 45.42750930786133 68.65315246582031 35.78398895263672 63.0 31.0 C 64.57306671142578 12.096874237060547 44.95661163330078 6.65711784362793 30.0 1.0 L 0.0 0.0" stroke-width="2.0" fill="rgb(245, 189, 94)" opacity="1.0" stroke="rgb(0, 0, 0)" stroke-opacity="0.0" stroke-linecap="round" stroke-linejoin="round"/>
    <path d="M 56.0 70.0 L 53.0 74.0 C 68.7686538696289 86.80316925048828 81.39716339111328 91.89968872070312 86.0 110.0 C 94.75919342041016 109.80608367919922 94.85330963134766 120.82642364501953 103.0 120.0 C 109.30656433105469 116.08064270019531 125.04363250732422 110.43822479248047 111.0 105.0 C 112.98169708251953 93.66666412353516 97.05061340332031 82.33333587646484 104.0 71.0 C 98.84014892578125 63.896217346191406 83.80319213867188 54.06412887573242 77.0 64.0 C 70.33333587646484 65.60336303710938 63.66666793823242 64.57161712646484 56.0 70.0" stroke-width="2.0" fill="rgb(250, 205, 107)" opacity="1.0" stroke="rgb(0, 0, 0)" stroke-opacity="0.0" stroke-linecap="round" stroke-linejoin="round"/>
    <path d="M 0.0 167.0 L 0.0 195.0 C 17.33333396911621 196.84486389160156 34.66666793823242 202.9916229248047 52.0 206.0 C 53.2939338684082 199.3333282470703 55.32112503051758 192.6666717529297 47.0 186.0 C 31.66666603088379 178.96405029296875 16.33333396911621 177.03123474121094 0.0 167.0" stroke-width="2.0" fill="rgb(245, 193, 118)" opacity="1.0" stroke="rgb(0, 0, 0)" stroke-opacity="0.0" stroke-linecap="round" stroke-linejoin="round"/>
    <path d="M 462.0 253.0 C 474.9336853027344 255.97445678710938 474.6877136230469 265.83203125 472.0 275.0 C 472.3626708984375 283.4656982421875 493.77728271484375 287.3349914550781 490.0 278.0 C 497.0 271.04412841796875 504.0 274.6539306640625 511.0 272.0 L 511.0 251.0 C 497.6041564941406 249.97796630859375 479.08441162109375 241.94915771484375 469.0 254.0 C 466.64422607421875 252.1485595703125 466.0557556152344 252.16810607910156 462.0 253.0" stroke-width="2.0" fill="rgb(210, 166, 117)" opacity="1.0" stroke="rgb(0, 0, 0)" stroke-opacity="0.0" stroke-linecap="round" stroke-linejoin="round"/>
    <path d="M 0.0 330.0 L 0.0 346.0 L 69.0 346.0 C 52.66454315185547 336.9176940917969 32.001590728759766 330.16497802734375 14.0 322.0 C 7.807713985443115 321.38934326171875 17.572023391723633 327.4903564453125 14.0 330.0 L 0.0 330.0" stroke-width="2.0" fill="rgb(114, 91, 86)" opacity="1.0" stroke="rgb(0, 0, 0)" stroke-opacity="0.0" stroke-linecap="round" stroke-linejoin="round"/>
    <path d="M 473.0 284.0 L 475.0 306.0 C 487.0 305.8247985839844 499.0 307.9525451660156 511.0 305.0 L 511.0 286.0 C 498.6666564941406 284.1788635253906 486.3333435058594 286.6155700683594 473.0 284.0" stroke-width="2.0" fill="rgb(38, 37, 22)" opacity="1.0" stroke="rgb(0, 0, 0)" stroke-opacity="0.0" stroke-linecap="round" stroke-linejoin="round"/>
    <path d="M 511.0 322.0 C 512.6990966796875 314.73309326171875 509.6991271972656 311.090576171875 502.0 310.0 L 424.0 312.0 L 424.0 317.0 L 511.0 322.0" stroke-width="2.0" fill="rgb(58, 62, 52)" opacity="1.0" stroke="rgb(0, 0, 0)" stroke-opacity="0.0" stroke-linecap="round" stroke-linejoin="round"/>
    <path d="M 315.0 275.0 C 304.468994140625 283.2429504394531 318.0644836425781 297.52972412109375 306.0 301.0 L 307.0 311.0 C 316.0391540527344 307.7214660644531 344.3739318847656 315.67327880859375 330.0 297.0 C 329.1610107421875 288.0904846191406 331.7873840332031 268.29217529296875 315.0 275.0" stroke-width="2.0" fill="rgb(34, 21, 14)" opacity="1.0" stroke="rgb(0, 0, 0)" stroke-opacity="0.0" stroke-linecap="round" stroke-linejoin="round"/>
    <path d="M 511.0 251.0 L 511.0 226.0 C 494.6666564941406 234.45025634765625 478.3333435058594 224.68685913085938 462.0 230.0 C 466.4413146972656 236.302001953125 481.9169616699219 235.37789916992188 488.0 239.0 C 485.8172607421875 243.1054229736328 475.5203552246094 243.0033416748047 481.0 248.0 C 490.6666564941406 246.1225128173828 500.3333435058594 249.60714721679688 511.0 251.0" stroke-width="2.0" fill="rgb(146, 137, 134)" opacity="1.0" stroke="rgb(0, 0, 0)" stroke-opacity="0.0" stroke-linecap="round" stroke-linejoin="round"/>
    <path d="M 511.0 274.0 L 493.0 276.0 C 491.2830810546875 278.5920104980469 498.008056640625 290.63763427734375 488.0 283.0 C 484.7134094238281 288.3489685058594 477.87353515625 283.925537109375 473.0 283.0 L 474.0 297.0 L 511.0 298.0 L 511.0 274.0" stroke-width="2.0" fill="rgb(39, 40, 19)" opacity="1.0" stroke="rgb(0, 0, 0)" stroke-opacity="0.0" stroke-linecap="round" stroke-linejoin="round"/>
    <path d="M 287.0 274.0 C 267.6644592285156 273.5877380371094 272.6219787597656 298.1982421875 273.0 310.0 C 278.0371398925781 308.613525390625 273.6022033691406 303.0394592285156 279.0 300.0 C 284.8013610839844 301.89251708984375 281.5729675292969 306.6047668457031 285.0 310.0 C 299.2816162109375 308.6705627441406 292.439453125 291.155517578125 294.0 280.0 L 287.0 274.0" stroke-width="2.0" fill="rgb(25, 21, 25)" opacity="1.0" stroke="rgb(0, 0, 0)" stroke-opacity="0.0" stroke-linecap="round" stroke-linejoin="round"/>
    <path d="M 0.0 332.0 L 0.0 346.0 L 54.0 346.0 L 14.0 326.0 C 10.196510314941406 326.9201354980469 19.702146530151367 329.1262512207031 15.0 332.0 L 0.0 332.0" stroke-width="2.0" fill="rgb(90, 72, 71)" opacity="1.0" stroke="rgb(0, 0, 0)" stroke-opacity="0.0" stroke-linecap="round" stroke-linejoin="round"/>
    <path d="M 354.0 275.0 C 343.2755126953125 288.03656005859375 347.7134704589844 315.947021484375 368.0 309.0 C 366.35162353515625 298.19781494140625 375.54833984375 271.91156005859375 354.0 275.0" stroke-width="2.0" fill="rgb(36, 23, 15)" opacity="1.0" stroke="rgb(0, 0, 0)" stroke-opacity="0.0" stroke-linecap="round" stroke-linejoin="round"/>
    <path d="M 243.0 276.0 C 234.10244750976562 283.75494384765625 237.90420532226562 295.6017150878906 237.0 305.0 C 243.3333282470703 307.0730895996094 249.6666717529297 307.1080017089844 256.0 307.0 C 257.1451416015625 296.9122009277344 261.6639404296875 272.3574523925781 243.0 276.0" stroke-width="2.0" fill="rgb(17, 15, 17)" opacity="1.0" stroke="rgb(0, 0, 0)" stroke-opacity="0.0" stroke-linecap="round" stroke-linejoin="round"/>
    <path d="M 388.0 274.0 C 376.5014343261719 280.4640808105469 384.3258361816406 294.3334045410156 383.0 304.0 C 401.9825439453125 319.2453308105469 413.2932434082031 274.0434875488281 388.0 274.0" stroke-width="2.0" fill="rgb(29, 18, 10)" opacity="1.0" stroke="rgb(0, 0, 0)" stroke-opacity="0.0" stroke-linecap="round" stroke-linejoin="round"/>
    <path d="M 217.0 278.0 C 195.5527801513672 271.17010498046875 210.7285919189453 306.966064453125 191.0 305.0 C 189.7423553466797 313.8304748535156 204.56454467773438 313.8304748535156 205.0 305.0 L 220.0 305.0 C 221.30401611328125 296.3333435058594 221.24765014648438 287.6666564941406 217.0 278.0" stroke-width="2.0" fill="rgb(36, 28, 25)" opacity="1.0" stroke="rgb(0, 0, 0)" stroke-opacity="0.0" stroke-linecap="round" stroke-linejoin="round"/>
    <path d="M 348.0 218.0 C 341.2121276855469 227.3333282470703 346.8813171386719 236.6666717529297 346.0 246.0 L 366.0 245.0 C 366.5598449707031 234.774658203125 366.7634582519531 210.82720947265625 348.0 218.0" stroke-width="2.0" fill="rgb(56, 32, 23)" opacity="1.0" stroke="rgb(0, 0, 0)" stroke-opacity="0.0" stroke-linecap="round" stroke-linejoin="round"/>
    <path d="M 144.0 278.0 C 129.65000915527344 286.740234375 139.07691955566406 299.6124572753906 136.0 310.0 L 153.0 311.0 C 151.61770629882812 300.839111328125 161.14312744140625 281.68939208984375 144.0 278.0" stroke-width="2.0" fill="rgb(49, 34, 25)" opacity="1.0" stroke="rgb(0, 0, 0)" stroke-opacity="0.0" stroke-linecap="round" stroke-linejoin="round"/>
    <path d="M 175.0 277.0 C 161.95753479003906 284.56304931640625 170.27874755859375 300.16534423828125 171.0 311.0 L 184.0 311.0 C 183.57260131835938 300.5672302246094 191.5962371826172 279.4083557128906 175.0 277.0" stroke-width="2.0" fill="rgb(31, 23, 20)" opacity="1.0" stroke="rgb(0, 0, 0)" stroke-opacity="0.0" stroke-linecap="round" stroke-linejoin="round"/>
    <path d="M 511.0 314.0 C 484.3333435058594 306.0555114746094 457.6666564941406 313.94525146484375 431.0 311.0 C 426.96673583984375 311.969970703125 427.2823486328125 313.76385498046875 427.0 317.0 C 454.6673583984375 317.1197509765625 484.99908447265625 317.3871765136719 511.0 314.0" stroke-width="2.0" fill="rgb(69, 70, 66)" opacity="1.0" stroke="rgb(0, 0, 0)" stroke-opacity="0.0" stroke-linecap="round" stroke-linejoin="round"/>
    <path d="M 205.0 220.0 L 203.0 246.0 C 209.0 250.41551208496094 215.0 246.84925842285156 221.0 248.0 C 223.04995727539062 237.82769775390625 224.62937927246094 211.03793334960938 205.0 220.0" stroke-width="2.0" fill="rgb(53, 30, 19)" opacity="1.0" stroke="rgb(0, 0, 0)" stroke-opacity="0.0" stroke-linecap="round" stroke-linejoin="round"/>
    <path d="M 382.0 219.0 C 374.8060302734375 226.2665252685547 380.4137268066406 237.14089965820312 380.0 246.0 L 396.0 247.0 C 399.3459167480469 237.37649536132812 398.6018371582031 215.18145751953125 382.0 219.0" stroke-width="2.0" fill="rgb(47, 25, 16)" opacity="1.0" stroke="rgb(0, 0, 0)" stroke-opacity="0.0" stroke-linecap="round" stroke-linejoin="round"/>
    <path d="M 473.0 284.0 L 474.0 298.0 L 511.0 298.0 C 512.3336181640625 290.9228820800781 511.0300598144531 279.9476623535156 501.0 287.0 C 492.0 282.0160827636719 483.0 288.6484375 473.0 284.0" stroke-width="2.0" fill="rgb(34, 38, 18)" opacity="1.0" stroke="rgb(0, 0, 0)" stroke-opacity="0.0" stroke-linecap="round" stroke-linejoin="round"/>
    <path d="M 184.0 222.0 C 167.72105407714844 216.99362182617188 167.2593994140625 240.1561737060547 170.0 250.0 C 175.6666717529297 248.86923217773438 181.3333282470703 252.38746643066406 187.0 248.0 C 185.76608276367188 239.6666717529297 189.5312042236328 231.3333282470703 184.0 222.0" stroke-width="2.0" fill="rgb(65, 40, 27)" opacity="1.0" stroke="rgb(0, 0, 0)" stroke-opacity="0.0" stroke-linecap="round" stroke-linejoin="round"/>
    <path d="M 206.0 168.0 C 198.8443145751953 177.7313995361328 210.02593994140625 183.92372131347656 207.0 195.0 L 223.0 194.0 C 224.06776428222656 184.1285400390625 225.1024932861328 158.9796905517578 206.0 168.0" stroke-width="2.0" fill="rgb(211, 187, 173)" opacity="1.0" stroke="rgb(0, 0, 0)" stroke-opacity="0.0" stroke-linecap="round" stroke-linejoin="round"/>
    <path d="M 275.0 221.0 C 268.7835998535156 229.0 273.4464111328125 237.0 272.0 245.0 L 291.0 245.0 C 294.5779113769531 235.83534240722656 291.4794616699219 212.84640502929688 275.0 221.0" stroke-width="2.0" fill="rgb(42, 20, 18)" opacity="1.0" stroke="rgb(0, 0, 0)" stroke-opacity="0.0" stroke-linecap="round" stroke-linejoin="round"/>
    <path d="M 418.0 275.0 C 409.0354309082031 285.3333435058594 416.81744384765625 295.6666564941406 415.0 306.0 C 418.5898132324219 309.5225830078125 425.81439208984375 308.8686828613281 431.0 306.0 C 428.456787109375 296.4556884765625 433.62017822265625 278.0948486328125 418.0 275.0" stroke-width="2.0" fill="rgb(36, 20, 13)" opacity="1.0" stroke="rgb(0, 0, 0)" stroke-opacity="0.0" stroke-linecap="round" stroke-linejoin="round"/>
    <path d="M 242.0 221.0 C 235.67921447753906 229.0 238.88095092773438 237.0 238.0 245.0 L 258.0 245.0 C 256.9722595214844 235.58380126953125 259.3915100097656 214.7557830810547 242.0 221.0" stroke-width="2.0" fill="rgb(40, 25, 19)" opacity="1.0" stroke="rgb(0, 0, 0)" stroke-opacity="0.0" stroke-linecap="round" stroke-linejoin="round"/>
    <path d="M 273.0 168.0 C 268.5214538574219 175.0 270.50054931640625 182.0 270.0 189.0 L 290.0 189.0 C 294.6634521484375 178.7135009765625 287.8680114746094 161.00350952148438 273.0 168.0" stroke-width="2.0" fill="rgb(224, 219, 224)" opacity="1.0" stroke="rgb(0, 0, 0)" stroke-opacity="0.0" stroke-linecap="round" stroke-linejoin="round"/>
    <path d="M 456.0 4.0 C 460.84100341796875 18.693302154541016 497.728515625 21.970623016357422 489.0 1.0 C 478.662109375 2.1856698989868164 465.6727600097656 -1.4636313915252686 456.0 4.0" stroke-width="2.0" fill="rgb(75, 108, 157)" opacity="1.0" stroke="rgb(0, 0, 0)" stroke-opacity="0.0" stroke-linecap="round" stroke-linejoin="round"/>
    <path d="M 118.0 280.0 C 106.29594421386719 290.0 115.26849365234375 300.0 112.0 310.0 C 130.2064666748047 318.12261962890625 126.45735931396484 296.206787109375 127.0 285.0 C 125.54621887207031 281.5218811035156 121.88060760498047 278.8134765625 118.0 280.0" stroke-width="2.0" fill="rgb(39, 25, 14)" opacity="1.0" stroke="rgb(0, 0, 0)" stroke-opacity="0.0" stroke-linecap="round" stroke-linejoin="round"/>
    <path d="M 310.0 220.0 L 309.0 244.0 L 327.0 245.0 C 326.4607238769531 235.94223022460938 326.76959228515625 214.4385223388672 310.0 220.0" stroke-width="2.0" fill="rgb(37, 16, 15)" opacity="1.0" stroke="rgb(0, 0, 0)" stroke-opacity="0.0" stroke-linecap="round" stroke-linejoin="round"/>
    <path d="M 152.0 225.0 C 137.5317840576172 224.6966552734375 137.91452026367188 244.02337646484375 141.0 253.0 C 158.37986755371094 257.6105041503906 159.71389770507812 236.01638793945312 152.0 225.0" stroke-width="2.0" fill="rgb(84, 59, 47)" opacity="1.0" stroke="rgb(0, 0, 0)" stroke-opacity="0.0" stroke-linecap="round" stroke-linejoin="round"/>
    <path d="M 432.0 1.0 L 432.0 15.0 C 442.37322998046875 13.001213073730469 468.1239318847656 22.649742126464844 462.0 4.0 C 455.7930908203125 2.105571985244751 461.13128662109375 6.940646648406982 457.0 11.0 C 457.53302001953125 -4.260204792022705 443.24517822265625 2.3289170265197754 432.0 1.0" stroke-width="2.0" fill="rgb(77, 109, 162)" opacity="1.0" stroke="rgb(0, 0, 0)" stroke-opacity="0.0" stroke-linecap="round" stroke-linejoin="round"/>
    <path d="M 352.0 276.0 C 346.5178527832031 283.0 350.2363586425781 290.0 349.0 297.0 L 365.0 298.0 C 370.04705810546875 289.0057373046875 368.9147033691406 268.0143127441406 352.0 276.0" stroke-width="2.0" fill="rgb(32, 17, 9)" opacity="1.0" stroke="rgb(0, 0, 0)" stroke-opacity="0.0" stroke-linecap="round" stroke-linejoin="round"/>
    <path d="M 101.0 4.0 C 98.54301452636719 14.447168350219727 113.94793701171875 31.513072967529297 125.0 31.0 C 131.24325561523438 19.230283737182617 113.78688049316406 3.3866326808929443 101.0 4.0" stroke-width="2.0" fill="rgb(198, 149, 133)" opacity="1.0" stroke="rgb(0, 0, 0)" stroke-opacity="0.0" stroke-linecap="round" stroke-linejoin="round"/>
    <path d="M 210.0 277.0 C 200.58641052246094 284.4275207519531 206.76913452148438 295.9307556152344 205.0 305.0 L 220.0 305.0 C 218.5433349609375 296.36529541015625 224.87977600097656 279.22601318359375 210.0 277.0" stroke-width="2.0" fill="rgb(27, 22, 23)" opacity="1.0" stroke="rgb(0, 0, 0)" stroke-opacity="0.0" stroke-linecap="round" stroke-linejoin="round"/>
    <path d="M 43.0 280.0 C 28.115568161010742 278.731201171875 39.90478515625 305.0484619140625 25.0 304.0 C 15.59201431274414 315.74639892578125 37.177459716796875 310.29534912109375 43.0 310.0 C 42.51073455810547 300.3333435058594 47.2614631652832 290.6666564941406 43.0 280.0" stroke-width="2.0" fill="rgb(90, 69, 59)" opacity="1.0" stroke="rgb(0, 0, 0)" stroke-opacity="0.0" stroke-linecap="round" stroke-linejoin="round"/>
    <path d="M 205.0 307.0 L 205.0 314.0 L 261.0 314.0 L 260.0 308.0 L 205.0 307.0" stroke-width="2.0" fill="rgb(135, 126, 133)" opacity="1.0" stroke="rgb(0, 0, 0)" stroke-opacity="0.0" stroke-linecap="round" stroke-linejoin="round"/>
    <path d="M 314.0 276.0 C 308.0694274902344 282.6666564941406 312.2555236816406 289.3333435058594 311.0 296.0 C 317.0 298.6667175292969 323.0 296.1045837402344 329.0 297.0 C 330.4622802734375 289.34521484375 329.1426086425781 267.4090576171875 314.0 276.0" stroke-width="2.0" fill="rgb(31, 15, 6)" opacity="1.0" stroke="rgb(0, 0, 0)" stroke-opacity="0.0" stroke-linecap="round" stroke-linejoin="round"/>
    <path d="M 209.0 223.0 C 203.5749053955078 231.3333282470703 206.93228149414062 239.6666717529297 206.0 248.0 L 220.0 248.0 C 220.7989959716797 238.73670959472656 226.1913299560547 216.15174865722656 209.0 223.0" stroke-width="2.0" fill="rgb(43, 22, 14)" opacity="1.0" stroke="rgb(0, 0, 0)" stroke-opacity="0.0" stroke-linecap="round" stroke-linejoin="round"/>
    <path d="M 413.0 221.0 C 403.99847412109375 229.75234985351562 407.1354064941406 256.3959655761719 424.0 247.0 C 423.37030029296875 238.931884765625 426.2497253417969 224.2282257080078 413.0 221.0" stroke-width="2.0" fill="rgb(53, 25, 15)" opacity="1.0" stroke="rgb(0, 0, 0)" stroke-opacity="0.0" stroke-linecap="round" stroke-linejoin="round"/>
    <path d="M 275.0 278.0 C 272.2854309082031 283.0 271.9455871582031 288.0 273.0 293.0 L 294.0 293.0 C 297.7349853515625 282.40142822265625 288.54351806640625 266.5094299316406 275.0 278.0" stroke-width="2.0" fill="rgb(23, 11, 6)" opacity="1.0" stroke="rgb(0, 0, 0)" stroke-opacity="0.0" stroke-linecap="round" stroke-linejoin="round"/>
    <path d="M 253.0 169.0 C 239.38034057617188 164.27581787109375 235.42872619628906 181.8496551513672 240.0 191.0 C 252.093505859375 192.9771728515625 259.4620666503906 187.5154266357422 256.0 175.0 L 253.0 169.0" stroke-width="2.0" fill="rgb(236, 222, 221)" opacity="1.0" stroke="rgb(0, 0, 0)" stroke-opacity="0.0" stroke-linecap="round" stroke-linejoin="round"/>
    <path d="M 238.0 289.0 L 238.0 306.0 L 257.0 306.0 L 256.0 289.0 L 238.0 289.0" stroke-width="2.0" fill="rgb(23, 23, 25)" opacity="1.0" stroke="rgb(0, 0, 0)" stroke-opacity="0.0" stroke-linecap="round" stroke-linejoin="round"/>
    <path d="M 308.0 167.0 C 303.5216369628906 174.0 307.19573974609375 181.0 306.0 188.0 L 323.0 189.0 C 325.04925537109375 180.75433349609375 322.34039306640625 163.67527770996094 308.0 167.0" stroke-width="2.0" fill="rgb(211, 213, 228)" opacity="1.0" stroke="rgb(0, 0, 0)" stroke-opacity="0.0" stroke-linecap="round" stroke-linejoin="round"/>
    <path d="M 214.0 170.0 C 204.09408569335938 174.67160034179688 208.44833374023438 186.1900177001953 207.0 194.0 L 222.0 194.0 C 221.7643585205078 186.248046875 226.40628051757812 170.04354858398438 214.0 170.0" stroke-width="2.0" fill="rgb(240, 225, 218)" opacity="1.0" stroke="rgb(0, 0, 0)" stroke-opacity="0.0" stroke-linecap="round" stroke-linejoin="round"/>
    <path d="M 306.0 301.0 C 302.3854675292969 318.1087341308594 325.09014892578125 306.8581237792969 335.0 310.0 C 338.48175048828125 294.02374267578125 317.74517822265625 296.7872314453125 306.0 301.0" stroke-width="2.0" fill="rgb(37, 28, 24)" opacity="1.0" stroke="rgb(0, 0, 0)" stroke-opacity="0.0" stroke-linecap="round" stroke-linejoin="round"/>
    <path d="M 155.0 176.0 C 137.7473907470703 178.3484649658203 145.9929656982422 212.9196319580078 160.0 200.0 C 158.24949645996094 192.65806579589844 165.0812530517578 182.6781463623047 155.0 176.0" stroke-width="2.0" fill="rgb(189, 160, 135)" opacity="1.0" stroke="rgb(0, 0, 0)" stroke-opacity="0.0" stroke-linecap="round" stroke-linejoin="round"/>
    <path d="M 127.0 229.0 C 113.84418487548828 229.2696075439453 116.30628967285156 246.8756561279297 116.0 255.0 C 131.927490234375 260.22491455078125 132.656494140625 241.141357421875 127.0 229.0" stroke-width="2.0" fill="rgb(80, 53, 39)" opacity="1.0" stroke="rgb(0, 0, 0)" stroke-opacity="0.0" stroke-linecap="round" stroke-linejoin="round"/>
    <path d="M 43.0 281.0 C 33.94249725341797 279.3925476074219 32.479732513427734 298.30450439453125 19.0 295.0 C 18.068235397338867 306.5348205566406 35.9117431640625 298.4905700683594 43.0 301.0 C 45.82539367675781 294.6666564941406 45.277427673339844 288.3333435058594 43.0 281.0" stroke-width="2.0" fill="rgb(95, 72, 61)" opacity="1.0" stroke="rgb(0, 0, 0)" stroke-opacity="0.0" stroke-linecap="round" stroke-linejoin="round"/>
    <path d="M 97.0 282.0 C 90.33984375 291.90985107421875 86.52445220947266 314.6145324707031 102.0 311.0 C 101.8016586303711 302.1196594238281 109.91893005371094 285.95965576171875 97.0 282.0" stroke-width="2.0" fill="rgb(43, 24, 13)" opacity="1.0" stroke="rgb(0, 0, 0)" stroke-opacity="0.0" stroke-linecap="round" stroke-linejoin="round"/>
    <path d="M 443.0 276.0 C 434.1075134277344 284.4113464355469 441.2676086425781 296.9425048828125 441.0 307.0 C 448.4757995605469 315.4712829589844 448.51171875 298.768798828125 451.0 295.0 C 448.5867919921875 289.51611328125 451.5057373046875 279.20635986328125 443.0 276.0" stroke-width="2.0" fill="rgb(49, 24, 15)" opacity="1.0" stroke="rgb(0, 0, 0)" stroke-opacity="0.0" stroke-linecap="round" stroke-linejoin="round"/>
    <path d="M 264.0 270.0 C 258.8312072753906 283.6666564941406 254.8735809326172 297.3333435058594 263.0 311.0 L 267.0 311.0 C 266.8288269042969 297.6638488769531 268.8791809082031 281.6704406738281 264.0 270.0" stroke-width="2.0" fill="rgb(150, 124, 111)" opacity="1.0" stroke="rgb(0, 0, 0)" stroke-opacity="0.0" stroke-linecap="round" stroke-linejoin="round"/>
    <path d="M 43.0 303.0 C 33.36647415161133 304.3691101074219 4.284531116485596 297.71630859375 13.0 315.0 C 22.149944305419922 312.91290283203125 32.561073303222656 310.3479919433594 43.0 311.0 L 43.0 303.0" stroke-width="2.0" fill="rgb(103, 77, 66)" opacity="1.0" stroke="rgb(0, 0, 0)" stroke-opacity="0.0" stroke-linecap="round" stroke-linejoin="round"/>
    <path d="M 511.0 233.0 C 500.3943176269531 234.90785217285156 486.3824462890625 239.9918975830078 480.0 247.0 C 490.3333435058594 245.56915283203125 500.6666564941406 248.2650909423828 511.0 249.0 L 511.0 233.0" stroke-width="2.0" fill="rgb(121, 116, 118)" opacity="1.0" stroke="rgb(0, 0, 0)" stroke-opacity="0.0" stroke-linecap="round" stroke-linejoin="round"/>
    <path d="M 205.0 307.0 L 205.0 314.0 L 248.0 314.0 L 248.0 308.0 C 234.0 309.1197814941406 220.0 305.7510681152344 205.0 307.0" stroke-width="2.0" fill="rgb(142, 132, 138)" opacity="1.0" stroke="rgb(0, 0, 0)" stroke-opacity="0.0" stroke-linecap="round" stroke-linejoin="round"/>
    <path d="M 347.0 220.0 C 343.3016357421875 230.49781799316406 342.29888916015625 251.0858612060547 358.0 246.0 C 357.466064453125 237.651123046875 360.89691162109375 222.12664794921875 347.0 220.0" stroke-width="2.0" fill="rgb(35, 15, 13)" opacity="1.0" stroke="rgb(0, 0, 0)" stroke-opacity="0.0" stroke-linecap="round" stroke-linejoin="round"/>
    <path d="M 343.0 168.0 C 337.5026550292969 176.19776916503906 338.17034912109375 196.20399475097656 353.0 191.0 C 355.2186584472656 183.661376953125 356.4010925292969 169.1017608642578 343.0 168.0" stroke-width="2.0" fill="rgb(200, 209, 228)" opacity="1.0" stroke="rgb(0, 0, 0)" stroke-opacity="0.0" stroke-linecap="round" stroke-linejoin="round"/>
    <path d="M 474.0 300.0 L 475.0 306.0 C 487.0 306.15423583984375 499.0 307.29473876953125 511.0 305.0 L 510.0 299.0 L 474.0 300.0" stroke-width="2.0" fill="rgb(44, 35, 28)" opacity="1.0" stroke="rgb(0, 0, 0)" stroke-opacity="0.0" stroke-linecap="round" stroke-linejoin="round"/>
    <path d="M 180.0 278.0 C 170.74041748046875 285.1007080078125 174.9718475341797 296.25933837890625 173.0 305.0 C 176.6666717529297 305.4632263183594 180.3333282470703 303.61328125 184.0 306.0 C 184.16574096679688 296.9307556152344 188.7870330810547 285.4275207519531 180.0 278.0" stroke-width="2.0" fill="rgb(13, 10, 11)" opacity="1.0" stroke="rgb(0, 0, 0)" stroke-opacity="0.0" stroke-linecap="round" stroke-linejoin="round"/>
    <path d="M 131.0 182.0 C 115.5271224975586 182.54185485839844 126.39527893066406 197.92686462402344 123.0 206.0 C 136.6559295654297 211.2888641357422 139.69993591308594 190.2633056640625 131.0 182.0" stroke-width="2.0" fill="rgb(124, 87, 63)" opacity="1.0" stroke="rgb(0, 0, 0)" stroke-opacity="0.0" stroke-linecap="round" stroke-linejoin="round"/>
    <path d="M 404.0 171.0 C 399.0584411621094 179.0779571533203 411.6612548828125 185.99957275390625 408.0 196.0 C 424.8132629394531 204.32591247558594 419.0398864746094 169.8931427001953 404.0 171.0" stroke-width="2.0" fill="rgb(107, 53, 25)" opacity="1.0" stroke="rgb(0, 0, 0)" stroke-opacity="0.0" stroke-linecap="round" stroke-linejoin="round"/>
    <path d="M 273.0 294.0 C 272.2875671386719 303.06396484375 273.2851257324219 316.1523132324219 278.0 300.0 C 283.2154846191406 300.5149230957031 283.8773498535156 306.5335693359375 284.0 310.0 C 291.831787109375 310.4839782714844 297.4073486328125 301.6593933105469 292.0 294.0 L 273.0 294.0" stroke-width="2.0" fill="rgb(28, 33, 48)" opacity="1.0" stroke="rgb(0, 0, 0)" stroke-opacity="0.0" stroke-linecap="round" stroke-linejoin="round"/>
    <path d="M 377.0 166.0 C 369.5697937011719 170.9563446044922 380.2523193359375 171.2971649169922 383.0 177.0 C 383.3438415527344 183.60179138183594 380.1687316894531 196.24783325195312 391.0 193.0 C 391.9280700683594 184.15895080566406 393.2847900390625 164.14974975585938 377.0 166.0" stroke-width="2.0" fill="rgb(107, 61, 34)" opacity="1.0" stroke="rgb(0, 0, 0)" stroke-opacity="0.0" stroke-linecap="round" stroke-linejoin="round"/>
    <path d="M 186.0 225.0 C 172.1072235107422 225.30551147460938 176.5668487548828 241.97706604003906 176.0 250.0 C 191.90768432617188 253.84263610839844 186.0418243408203 235.12005615234375 186.0 225.0" stroke-width="2.0" fill="rgb(31, 16, 10)" opacity="1.0" stroke="rgb(0, 0, 0)" stroke-opacity="0.0" stroke-linecap="round" stroke-linejoin="round"/>
    <path d="M 190.0 176.0 C 177.53256225585938 173.4001007080078 174.55039978027344 190.24440002441406 178.0 198.0 C 193.45729064941406 201.29644775390625 189.984619140625 187.7398223876953 190.0 176.0" stroke-width="2.0" fill="rgb(243, 230, 217)" opacity="1.0" stroke="rgb(0, 0, 0)" stroke-opacity="0.0" stroke-linecap="round" stroke-linejoin="round"/>
    <path d="M 111.0 188.0 C 95.43303680419922 186.3563995361328 95.9330825805664 227.11827087402344 112.0 207.0 L 111.0 188.0" stroke-width="2.0" fill="rgb(112, 72, 48)" opacity="1.0" stroke="rgb(0, 0, 0)" stroke-opacity="0.0" stroke-linecap="round" stroke-linejoin="round"/>
    <path d="M 436.0 225.0 C 430.13763427734375 231.42442321777344 431.1413269042969 257.2682189941406 446.0 249.0 C 442.9558410644531 241.43984985351562 447.0110778808594 229.31480407714844 436.0 225.0" stroke-width="2.0" fill="rgb(59, 27, 14)" opacity="1.0" stroke="rgb(0, 0, 0)" stroke-opacity="0.0" stroke-linecap="round" stroke-linejoin="round"/>
    <path d="M 104.0 233.0 C 92.75972747802734 238.0338897705078 96.8512191772461 250.7335968017578 96.0 259.0 C 111.04144287109375 261.18267822265625 108.39918518066406 241.5748748779297 104.0 233.0" stroke-width="2.0" fill="rgb(66, 39, 23)" opacity="1.0" stroke="rgb(0, 0, 0)" stroke-opacity="0.0" stroke-linecap="round" stroke-linejoin="round"/>
    <path d="M 220.0 289.0 C 207.26388549804688 285.27557373046875 202.26388549804688 293.0762634277344 205.0 305.0 L 220.0 305.0 L 220.0 289.0" stroke-width="2.0" fill="rgb(17, 16, 18)" opacity="1.0" stroke="rgb(0, 0, 0)" stroke-opacity="0.0" stroke-linecap="round" stroke-linejoin="round"/>
    <path d="M 152.0 281.0 C 144.96548461914062 288.4977111816406 137.0153045654297 312.7120666503906 153.0 311.0 L 152.0 281.0" stroke-width="2.0" fill="rgb(17, 13, 13)" opacity="1.0" stroke="rgb(0, 0, 0)" stroke-opacity="0.0" stroke-linecap="round" stroke-linejoin="round"/>
    <path d="M 12.0 322.0 C 29.00197982788086 332.3179931640625 50.33184814453125 345.71112060546875 69.0 346.0 C 52.33128356933594 337.40960693359375 31.334869384765625 329.5538330078125 12.0 322.0" stroke-width="2.0" fill="rgb(181, 142, 126)" opacity="1.0" stroke="rgb(0, 0, 0)" stroke-opacity="0.0" stroke-linecap="round" stroke-linejoin="round"/>
    <path d="M 511.0 226.0 C 494.9980163574219 236.0649871826172 476.33599853515625 223.82980346679688 462.0 231.0 C 471.9725036621094 231.3485107421875 478.9382019042969 243.35247802734375 489.0 232.0 C 495.66790771484375 229.96310424804688 509.2037658691406 234.62539672851562 511.0 226.0" stroke-width="2.0" fill="rgb(156, 145, 140)" opacity="1.0" stroke="rgb(0, 0, 0)" stroke-opacity="0.0" stroke-linecap="round" stroke-linejoin="round"/>
    <path d="M 83.0 283.0 C 72.5691146850586 288.5755615234375 78.54939270019531 302.15777587890625 77.0 311.0 C 89.01333618164062 311.9912109375 86.70353698730469 292.4152526855469 83.0 283.0" stroke-width="2.0" fill="rgb(55, 34, 19)" opacity="1.0" stroke="rgb(0, 0, 0)" stroke-opacity="0.0" stroke-linecap="round" stroke-linejoin="round"/>
    <path d="M 438.0 318.0 L 511.0 322.0 L 511.0 317.0 L 438.0 318.0" stroke-width="2.0" fill="rgb(33, 44, 17)" opacity="1.0" stroke="rgb(0, 0, 0)" stroke-opacity="0.0" stroke-linecap="round" stroke-linejoin="round"/>
    <path d="M 385.0 276.0 C 377.9549560546875 286.3808898925781 381.18408203125 302.6861267089844 395.0 297.0 C 393.744873046875 290.55047607421875 394.04400634765625 279.1586608886719 385.0 276.0" stroke-width="2.0" fill="rgb(11, 7, 5)" opacity="1.0" stroke="rgb(0, 0, 0)" stroke-opacity="0.0" stroke-linecap="round" stroke-linejoin="round"/>
    <path d="M 402.0 213.0 L 402.0 246.0 C 415.7455139160156 250.38540649414062 401.4177551269531 222.8433837890625 410.0 216.0 L 402.0 213.0" stroke-width="2.0" fill="rgb(140, 99, 74)" opacity="1.0" stroke="rgb(0, 0, 0)" stroke-opacity="0.0" stroke-linecap="round" stroke-linejoin="round"/>
    <path d="M 226.0 210.0 C 226.59458923339844 225.0 225.61204528808594 240.0 224.0 255.0 L 229.0 255.0 C 229.69044494628906 240.6368865966797 232.8248748779297 221.04014587402344 226.0 210.0" stroke-width="2.0" fill="rgb(202, 161, 130)" opacity="1.0" stroke="rgb(0, 0, 0)" stroke-opacity="0.0" stroke-linecap="round" stroke-linejoin="round"/>
    <path d="M 274.0 280.0 C 267.4092712402344 294.7532043457031 281.0540466308594 292.8023681640625 291.0 292.0 C 289.4011535644531 284.8897705078125 284.86566162109375 271.6715393066406 274.0 280.0" stroke-width="2.0" fill="rgb(10, 5, 5)" opacity="1.0" stroke="rgb(0, 0, 0)" stroke-opacity="0.0" stroke-linecap="round" stroke-linejoin="round"/>
    <path d="M 280.0 220.0 C 279.08978271484375 228.64984130859375 273.9457702636719 248.3155517578125 287.0 245.0 C 289.2763671875 235.1914520263672 288.8945007324219 222.1055450439453 280.0 220.0" stroke-width="2.0" fill="rgb(50, 28, 27)" opacity="1.0" stroke="rgb(0, 0, 0)" stroke-opacity="0.0" stroke-linecap="round" stroke-linejoin="round"/>
    <path d="M 300.0 208.0 L 300.0 252.0 L 306.0 252.0 C 303.5967102050781 237.6666717529297 303.2327575683594 223.3333282470703 304.0 209.0 L 300.0 208.0" stroke-width="2.0" fill="rgb(176, 123, 83)" opacity="1.0" stroke="rgb(0, 0, 0)" stroke-opacity="0.0" stroke-linecap="round" stroke-linejoin="round"/>
    <path d="M 459.0 278.0 C 458.0732116699219 286.8204650878906 455.440673828125 306.1850891113281 466.0 307.0 C 466.8636169433594 297.8345642089844 468.22906494140625 283.8946533203125 459.0 278.0" stroke-width="2.0" fill="rgb(59, 30, 14)" opacity="1.0" stroke="rgb(0, 0, 0)" stroke-opacity="0.0" stroke-linecap="round" stroke-linejoin="round"/>
    <path d="M 269.0 248.0 C 269.8149108886719 260.6335144042969 289.1795349121094 250.08534240722656 298.0 253.0 C 298.7588806152344 240.11314392089844 278.68035888671875 248.50631713867188 269.0 248.0" stroke-width="2.0" fill="rgb(183, 143, 114)" opacity="1.0" stroke="rgb(0, 0, 0)" stroke-opacity="0.0" stroke-linecap="round" stroke-linejoin="round"/>
    <path d="M 370.0 209.0 L 371.0 245.0 C 373.0 248.00784301757812 375.0 246.77207946777344 377.0 247.0 C 379.41259765625 234.3333282470703 372.1820373535156 221.6666717529297 374.0 209.0 L 370.0 209.0" stroke-width="2.0" fill="rgb(158, 115, 84)" opacity="1.0" stroke="rgb(0, 0, 0)" stroke-opacity="0.0" stroke-linecap="round" stroke-linejoin="round"/>
    <path d="M 11.0 314.0 C -2.994889974594116 309.21337890625 -0.07704766094684601 322.5686950683594 0.0 332.0 C 5.1981425285339355 332.1393127441406 20.415802001953125 332.9269104003906 10.0 326.0 L 11.0 314.0" stroke-width="2.0" fill="rgb(99, 82, 77)" opacity="1.0" stroke="rgb(0, 0, 0)" stroke-opacity="0.0" stroke-linecap="round" stroke-linejoin="round"/>
    <path d="M 238.0 282.0 C 234.6049346923828 292.34979248046875 264.95648193359375 291.3068542480469 255.0 278.0 C 249.6238250732422 273.6441955566406 241.37545776367188 274.115966796875 238.0 282.0" stroke-width="2.0" fill="rgb(6, 3, 2)" opacity="1.0" stroke="rgb(0, 0, 0)" stroke-opacity="0.0" stroke-linecap="round" stroke-linejoin="round"/>
    <path d="M 38.0 280.0 C 34.04647445678711 286.4349365234375 27.56509780883789 305.7698059082031 43.0 301.0 C 45.910675048828125 294.6401062011719 46.36857986450195 281.498779296875 38.0 280.0" stroke-width="2.0" fill="rgb(106, 80, 67)" opacity="1.0" stroke="rgb(0, 0, 0)" stroke-opacity="0.0" stroke-linecap="round" stroke-linejoin="round"/>
    <path d="M 193.0 212.0 C 189.68504333496094 226.0 188.44461059570312 240.0 192.0 254.0 C 197.63760375976562 244.61843872070312 194.8199462890625 224.03726196289062 193.0 212.0" stroke-width="2.0" fill="rgb(189, 150, 120)" opacity="1.0" stroke="rgb(0, 0, 0)" stroke-opacity="0.0" stroke-linecap="round" stroke-linejoin="round"/>
    <path d="M 297.0 155.0 L 297.0 194.0 L 303.0 194.0 C 301.0439147949219 181.62789916992188 302.4551696777344 164.05235290527344 297.0 155.0" stroke-width="2.0" fill="rgb(189, 146, 117)" opacity="1.0" stroke="rgb(0, 0, 0)" stroke-opacity="0.0" stroke-linecap="round" stroke-linejoin="round"/>
    <path d="M 410.0 267.0 C 403.1955261230469 275.4084777832031 408.8163757324219 287.0420837402344 407.0 297.0 C 419.4859924316406 300.54229736328125 408.8695983886719 279.49346923828125 415.0 272.0 C 412.72052001953125 273.0078430175781 411.2408447265625 269.7720642089844 410.0 267.0" stroke-width="2.0" fill="rgb(107, 78, 61)" opacity="1.0" stroke="rgb(0, 0, 0)" stroke-opacity="0.0" stroke-linecap="round" stroke-linejoin="round"/>
    <path d="M 342.0 165.0 C 342.56854248046875 168.54718017578125 351.61810302734375 166.11795043945312 354.0 172.0 C 360.243408203125 177.77528381347656 350.1009216308594 193.41456604003906 361.0 190.0 C 360.14837646484375 179.8523406982422 361.65570068359375 155.15878295898438 342.0 165.0" stroke-width="2.0" fill="rgb(113, 66, 39)" opacity="1.0" stroke="rgb(0, 0, 0)" stroke-opacity="0.0" stroke-linecap="round" stroke-linejoin="round"/>
    <path d="M 125.0 283.0 C 120.52510833740234 289.5116882324219 111.22785186767578 315.7174072265625 126.0 310.0 L 125.0 283.0" stroke-width="2.0" fill="rgb(21, 14, 11)" opacity="1.0" stroke="rgb(0, 0, 0)" stroke-opacity="0.0" stroke-linecap="round" stroke-linejoin="round"/>
    <path d="M 379.0 222.0 C 380.5421142578125 230.38430786132812 374.2312927246094 249.19004821777344 388.0 247.0 C 387.23681640625 239.247314453125 389.1623229980469 226.45033264160156 379.0 222.0" stroke-width="2.0" fill="rgb(23, 8, 6)" opacity="1.0" stroke="rgb(0, 0, 0)" stroke-opacity="0.0" stroke-linecap="round" stroke-linejoin="round"/>
    <path d="M 265.0 337.0 C 257.5913391113281 337.77093505859375 240.51983642578125 334.5439147949219 241.0 346.0 C 249.33633422851562 344.4483337402344 262.51190185546875 351.0312805175781 265.0 337.0" stroke-width="2.0" fill="rgb(73, 67, 69)" opacity="1.0" stroke="rgb(0, 0, 0)" stroke-opacity="0.0" stroke-linecap="round" stroke-linejoin="round"/>
    <path d="M 88.0 238.0 C 77.03510284423828 237.3335723876953 75.32779693603516 268.5928649902344 88.0 259.0 L 88.0 238.0" stroke-width="2.0" fill="rgb(43, 17, 6)" opacity="1.0" stroke="rgb(0, 0, 0)" stroke-opacity="0.0" stroke-linecap="round" stroke-linejoin="round"/>
    <path d="M 373.0 171.0 C 374.0202331542969 178.54161071777344 368.568115234375 194.42343139648438 382.0 193.0 C 383.2899169921875 186.00592041015625 384.4451599121094 173.2657470703125 373.0 171.0" stroke-width="2.0" fill="rgb(189, 196, 213)" opacity="1.0" stroke="rgb(0, 0, 0)" stroke-opacity="0.0" stroke-linecap="round" stroke-linejoin="round"/>
    <path d="M 437.0 269.0 C 435.3333435058594 268.1623840332031 433.6666564941406 270.27349853515625 432.0 272.0 C 434.1407775878906 284.0 432.37945556640625 296.0 436.0 308.0 C 443.5912780761719 299.1451110839844 434.24029541015625 282.1380310058594 437.0 269.0" stroke-width="2.0" fill="rgb(109, 68, 49)" opacity="1.0" stroke="rgb(0, 0, 0)" stroke-opacity="0.0" stroke-linecap="round" stroke-linejoin="round"/>
    <path d="M 107.0 188.0 C 99.83722686767578 192.65184020996094 99.4520263671875 210.5342254638672 110.0 209.0 C 112.15744018554688 202.64010620117188 115.31886291503906 189.49876403808594 107.0 188.0" stroke-width="2.0" fill="rgb(96, 59, 37)" opacity="1.0" stroke="rgb(0, 0, 0)" stroke-opacity="0.0" stroke-linecap="round" stroke-linejoin="round"/>
    <path d="M 420.0 171.0 C 419.2612609863281 181.359130859375 416.2518310546875 198.37977600097656 431.0 200.0 C 427.6324768066406 190.66114807128906 425.7964172363281 178.67404174804688 420.0 171.0" stroke-width="2.0" fill="rgb(102, 61, 42)" opacity="1.0" stroke="rgb(0, 0, 0)" stroke-opacity="0.0" stroke-linecap="round" stroke-linejoin="round"/>
    <path d="M 506.0 1.0 C 506.1745300292969 9.820466041564941 499.8064880371094 29.18508529663086 511.0 30.0 L 511.0 1.0 L 506.0 1.0" stroke-width="2.0" fill="rgb(79, 111, 158)" opacity="1.0" stroke="rgb(0, 0, 0)" stroke-opacity="0.0" stroke-linecap="round" stroke-linejoin="round"/>
    <path d="M 10.0 279.0 C 6.643147945404053 286.40069580078125 2.736135482788086 302.2835693359375 5.0 313.0 C 7.318987846374512 312.7720642089844 8.839313507080078 314.0078430175781 10.0 311.0 L 10.0 279.0" stroke-width="2.0" fill="rgb(108, 63, 34)" opacity="1.0" stroke="rgb(0, 0, 0)" stroke-opacity="0.0" stroke-linecap="round" stroke-linejoin="round"/>
    <path d="M 296.0 108.0 L 295.0 140.0 L 300.0 141.0 C 298.5807189941406 130.3290252685547 303.3813781738281 117.00574493408203 296.0 108.0" stroke-width="2.0" fill="rgb(157, 119, 93)" opacity="1.0" stroke="rgb(0, 0, 0)" stroke-opacity="0.0" stroke-linecap="round" stroke-linejoin="round"/>
    <path d="M 454.0 271.0 C 449.14044189453125 282.6666564941406 455.7967224121094 294.3333435058594 454.0 306.0 L 457.0 307.0 C 459.7068176269531 297.2738342285156 457.3449401855469 280.7126770019531 454.0 271.0" stroke-width="2.0" fill="rgb(109, 70, 50)" opacity="1.0" stroke="rgb(0, 0, 0)" stroke-opacity="0.0" stroke-linecap="round" stroke-linejoin="round"/>
    <path d="M 22.0 311.0 C 29.39604949951172 309.4483337402344 46.00575256347656 316.0312805175781 43.0 303.0 C 36.196449279785156 300.964111328125 22.633935928344727 301.5193786621094 22.0 311.0" stroke-width="2.0" fill="rgb(73, 57, 51)" opacity="1.0" stroke="rgb(0, 0, 0)" stroke-opacity="0.0" stroke-linecap="round" stroke-linejoin="round"/>
    <path d="M 320.0 322.0 C 320.8091125488281 328.8418273925781 316.26007080078125 351.35205078125 328.0 343.0 C 323.90386962890625 336.0475769042969 332.6417236328125 319.81964111328125 320.0 322.0" stroke-width="2.0" fill="rgb(83, 72, 73)" opacity="1.0" stroke="rgb(0, 0, 0)" stroke-opacity="0.0" stroke-linecap="round" stroke-linejoin="round"/>
    <path d="M 414.0 252.0 C 418.87176513671875 261.864013671875 435.2785949707031 255.03604125976562 445.0 258.0 C 447.5348205566406 252.27381896972656 440.2409362792969 254.53158569335938 437.0 252.0 L 414.0 252.0" stroke-width="2.0" fill="rgb(110, 69, 53)" opacity="1.0" stroke="rgb(0, 0, 0)" stroke-opacity="0.0" stroke-linecap="round" stroke-linejoin="round"/>
    <path d="M 504.0 72.0 C 505.5005187988281 79.41158294677734 500.08538818359375 96.83030700683594 511.0 95.0 C 508.6528625488281 87.94886016845703 516.6360473632812 68.11890411376953 504.0 72.0" stroke-width="2.0" fill="rgb(94, 125, 172)" opacity="1.0" stroke="rgb(0, 0, 0)" stroke-opacity="0.0" stroke-linecap="round" stroke-linejoin="round"/>
    <path d="M 88.0 15.0 C 82.16493225097656 21.41891098022461 87.45135498046875 35.94270324707031 95.0 36.0 C 93.1966781616211 29.378936767578125 99.80175018310547 15.366966247558594 88.0 15.0" stroke-width="2.0" fill="rgb(221, 152, 118)" opacity="1.0" stroke="rgb(0, 0, 0)" stroke-opacity="0.0" stroke-linecap="round" stroke-linejoin="round"/>
    <path d="M 308.0 247.0 C 308.01904296875 258.4976806640625 326.0389404296875 250.73330688476562 334.0 253.0 C 332.85516357421875 241.7432098388672 316.5821838378906 249.787841796875 308.0 247.0" stroke-width="2.0" fill="rgb(173, 131, 97)" opacity="1.0" stroke="rgb(0, 0, 0)" stroke-opacity="0.0" stroke-linecap="round" stroke-linejoin="round"/>
    <path d="M 235.0 249.0 C 234.4865264892578 257.2842712402344 263.1809387207031 257.1846008300781 258.0 247.0 L 235.0 249.0" stroke-width="2.0" fill="rgb(184, 147, 123)" opacity="1.0" stroke="rgb(0, 0, 0)" stroke-opacity="0.0" stroke-linecap="round" stroke-linejoin="round"/>
    <path d="M 428.0 215.0 C 423.43096923828125 225.6666717529297 429.21331787109375 236.3333282470703 428.0 247.0 L 432.0 248.0 C 432.020751953125 237.3290252685547 432.3043518066406 224.0057373046875 428.0 215.0" stroke-width="2.0" fill="rgb(126, 68, 42)" opacity="1.0" stroke="rgb(0, 0, 0)" stroke-opacity="0.0" stroke-linecap="round" stroke-linejoin="round"/>
    <path d="M 299.0 208.0 L 300.0 244.0 L 304.0 244.0 L 304.0 208.0 L 299.0 208.0" stroke-width="2.0" fill="rgb(169, 114, 73)" opacity="1.0" stroke="rgb(0, 0, 0)" stroke-opacity="0.0" stroke-linecap="round" stroke-linejoin="round"/>
    <path d="M 159.0 180.0 C 146.1045684814453 185.40943908691406 150.22239685058594 211.40350341796875 160.0 198.0 L 159.0 180.0" stroke-width="2.0" fill="rgb(246, 233, 215)" opacity="1.0" stroke="rgb(0, 0, 0)" stroke-opacity="0.0" stroke-linecap="round" stroke-linejoin="round"/>
    <path d="M 95.0 195.0 C 83.11522674560547 191.66233825683594 83.11522674560547 222.32827758789062 95.0 213.0 L 95.0 195.0" stroke-width="2.0" fill="rgb(75, 41, 17)" opacity="1.0" stroke="rgb(0, 0, 0)" stroke-opacity="0.0" stroke-linecap="round" stroke-linejoin="round"/>
    <path d="M 135.0 222.0 C 129.14564514160156 230.67276000976562 131.94956970214844 243.66209411621094 132.0 254.0 C 140.53146362304688 249.4051513671875 133.90554809570312 232.52438354492188 135.0 222.0" stroke-width="2.0" fill="rgb(174, 135, 109)" opacity="1.0" stroke="rgb(0, 0, 0)" stroke-opacity="0.0" stroke-linecap="round" stroke-linejoin="round"/>
    <path d="M 337.0 209.0 L 337.0 245.0 L 340.0 246.0 C 339.9168395996094 233.99655151367188 341.6729736328125 219.3379364013672 337.0 209.0" stroke-width="2.0" fill="rgb(178, 130, 94)" opacity="1.0" stroke="rgb(0, 0, 0)" stroke-opacity="0.0" stroke-linecap="round" stroke-linejoin="round"/>
    <path d="M 155.0 228.0 C 148.1486053466797 233.12722778320312 144.3601837158203 255.26353454589844 155.0 251.0 L 155.0 228.0" stroke-width="2.0" fill="rgb(31, 16, 11)" opacity="1.0" stroke="rgb(0, 0, 0)" stroke-opacity="0.0" stroke-linecap="round" stroke-linejoin="round"/>
    <path d="M 299.0 154.0 C 295.0635070800781 163.72889709472656 296.9553527832031 177.6207275390625 298.0 189.0 L 302.0 188.0 L 299.0 154.0" stroke-width="2.0" fill="rgb(185, 142, 114)" opacity="1.0" stroke="rgb(0, 0, 0)" stroke-opacity="0.0" stroke-linecap="round" stroke-linejoin="round"/>
    <path d="M 80.0 201.0 C 70.46112060546875 200.22389221191406 67.90589141845703 229.0650177001953 79.0 219.0 L 80.0 201.0" stroke-width="2.0" fill="rgb(65, 34, 18)" opacity="1.0" stroke="rgb(0, 0, 0)" stroke-opacity="0.0" stroke-linecap="round" stroke-linejoin="round"/>
    <path d="M 447.0 222.0 C 448.7170715332031 231.87387084960938 442.4891052246094 248.28428649902344 455.0 252.0 L 447.0 222.0" stroke-width="2.0" fill="rgb(97, 54, 34)" opacity="1.0" stroke="rgb(0, 0, 0)" stroke-opacity="0.0" stroke-linecap="round" stroke-linejoin="round"/>
    <path d="M 342.0 268.0 C 335.5652770996094 274.0845031738281 341.2366027832031 288.6043395996094 341.0 298.0 C 349.62078857421875 292.0293273925781 340.57037353515625 278.2213134765625 342.0 268.0" stroke-width="2.0" fill="rgb(124, 86, 58)" opacity="1.0" stroke="rgb(0, 0, 0)" stroke-opacity="0.0" stroke-linecap="round" stroke-linejoin="round"/>
    <path d="M 366.0 161.0 C 367.940673828125 170.11363220214844 359.47039794921875 189.90969848632812 372.0 191.0 L 366.0 161.0" stroke-width="2.0" fill="rgb(160, 121, 97)" opacity="1.0" stroke="rgb(0, 0, 0)" stroke-opacity="0.0" stroke-linecap="round" stroke-linejoin="round"/>
    <path d="M 33.0 291.0 C 27.389812469482422 294.1539306640625 13.331218719482422 291.9143981933594 18.0 301.0 C 25.511327743530273 304.93841552734375 34.40587615966797 300.97015380859375 33.0 291.0" stroke-width="2.0" fill="rgb(76, 60, 52)" opacity="1.0" stroke="rgb(0, 0, 0)" stroke-opacity="0.0" stroke-linecap="round" stroke-linejoin="round"/>
    <path d="M 357.0 279.0 C 356.8557434082031 285.5299987792969 351.81622314453125 300.4684143066406 363.0 298.0 C 365.4361267089844 292.19573974609375 363.38165283203125 281.5216369628906 357.0 279.0" stroke-width="2.0" fill="rgb(11, 6, 4)" opacity="1.0" stroke="rgb(0, 0, 0)" stroke-opacity="0.0" stroke-linecap="round" stroke-linejoin="round"/>
    <path d="M 208.0 131.0 C 203.43238830566406 141.5284881591797 230.47219848632812 142.8586883544922 223.0 131.0 L 208.0 131.0" stroke-width="2.0" fill="rgb(166, 123, 92)" opacity="1.0" stroke="rgb(0, 0, 0)" stroke-opacity="0.0" stroke-linecap="round" stroke-linejoin="round"/>
    <path d="M 462.0 230.0 C 468.0668640136719 232.32737731933594 475.90740966796875 236.85501098632812 483.0 236.0 C 490.1380920410156 226.89303588867188 474.6565856933594 230.13795471191406 471.0 228.0 L 462.0 230.0" stroke-width="2.0" fill="rgb(151, 141, 137)" opacity="1.0" stroke="rgb(0, 0, 0)" stroke-opacity="0.0" stroke-linecap="round" stroke-linejoin="round"/>
    <path d="M 93.0 230.0 C 89.06932067871094 238.0069122314453 90.43968963623047 250.32815551757812 90.0 260.0 C 98.65428161621094 256.04034423828125 91.8227767944336 239.8803253173828 93.0 230.0" stroke-width="2.0" fill="rgb(141, 106, 87)" opacity="1.0" stroke="rgb(0, 0, 0)" stroke-opacity="0.0" stroke-linecap="round" stroke-linejoin="round"/>
    <path d="M 0.0 315.0 C 0.3691951632499695 320.8797607421875 -2.69675350189209 331.3977966308594 7.0 329.0 C 8.934054374694824 321.8617248535156 11.753828048706055 311.6723937988281 0.0 315.0" stroke-width="2.0" fill="rgb(124, 105, 98)" opacity="1.0" stroke="rgb(0, 0, 0)" stroke-opacity="0.0" stroke-linecap="round" stroke-linejoin="round"/>
    <path d="M 70.0 285.0 C 62.92367172241211 286.58587646484375 61.59227752685547 311.3029479980469 70.0 305.0 L 70.0 285.0" stroke-width="2.0" fill="rgb(51, 27, 16)" opacity="1.0" stroke="rgb(0, 0, 0)" stroke-opacity="0.0" stroke-linecap="round" stroke-linejoin="round"/>
    <path d="M 232.0 284.0 C 231.7985076904297 290.87725830078125 226.7130889892578 306.94677734375 236.0 306.0 C 234.35989379882812 299.0721740722656 239.50123596191406 287.69720458984375 232.0 284.0" stroke-width="2.0" fill="rgb(126, 101, 93)" opacity="1.0" stroke="rgb(0, 0, 0)" stroke-opacity="0.0" stroke-linecap="round" stroke-linejoin="round"/>
    <path d="M 256.0 231.0 C 246.94342041015625 226.5690155029297 237.300048828125 244.45016479492188 249.0 244.0 C 249.2352752685547 236.80409240722656 260.34405517578125 238.21218872070312 256.0 231.0" stroke-width="2.0" fill="rgb(7, 2, 1)" opacity="1.0" stroke="rgb(0, 0, 0)" stroke-opacity="0.0" stroke-linecap="round" stroke-linejoin="round"/>
    <path d="M 134.0 186.0 C 126.60955047607422 190.067138671875 124.59420013427734 210.09205627441406 134.0 205.0 L 134.0 186.0" stroke-width="2.0" fill="rgb(140, 112, 93)" opacity="1.0" stroke="rgb(0, 0, 0)" stroke-opacity="0.0" stroke-linecap="round" stroke-linejoin="round"/>
    <path d="M 453.0 272.0 C 454.04620361328125 280.5598449707031 450.0725402832031 296.3557434082031 458.0 300.0 C 456.94317626953125 291.2628479003906 457.5982971191406 277.4289855957031 453.0 272.0" stroke-width="2.0" fill="rgb(120, 76, 53)" opacity="1.0" stroke="rgb(0, 0, 0)" stroke-opacity="0.0" stroke-linecap="round" stroke-linejoin="round"/>
    <path d="M 291.0 308.0 C 290.5702819824219 319.3828125 312.0589294433594 319.437744140625 302.0 306.0 L 291.0 308.0" stroke-width="2.0" fill="rgb(98, 77, 71)" opacity="1.0" stroke="rgb(0, 0, 0)" stroke-opacity="0.0" stroke-linecap="round" stroke-linejoin="round"/>
    <path d="M 203.0 302.0 C 195.9706268310547 303.2113342285156 188.0893096923828 302.3861083984375 191.0 312.0 C 196.76902770996094 312.48211669921875 208.1735382080078 311.845458984375 203.0 302.0" stroke-width="2.0" fill="rgb(70, 52, 41)" opacity="1.0" stroke="rgb(0, 0, 0)" stroke-opacity="0.0" stroke-linecap="round" stroke-linejoin="round"/>
    <path d="M 11.0 304.0 C 5.480894088745117 317.336669921875 24.494787216186523 318.3414306640625 22.0 304.0 L 11.0 304.0" stroke-width="2.0" fill="rgb(152, 112, 93)" opacity="1.0" stroke="rgb(0, 0, 0)" stroke-opacity="0.0" stroke-linecap="round" stroke-linejoin="round"/>
    <path d="M 278.0 302.0 C 274.3006591796875 312.5045166015625 277.1771240234375 323.0774841308594 290.0 319.0 L 286.0 318.0 C 281.13055419921875 312.9830322265625 284.3905029296875 305.3560485839844 278.0 302.0" stroke-width="2.0" fill="rgb(149, 133, 135)" opacity="1.0" stroke="rgb(0, 0, 0)" stroke-opacity="0.0" stroke-linecap="round" stroke-linejoin="round"/>
    <path d="M 265.0 107.0 C 266.49176025390625 113.37205505371094 260.6208801269531 128.37196350097656 270.0 127.0 C 268.1394958496094 120.8604965209961 274.19732666015625 106.80267333984375 265.0 107.0" stroke-width="2.0" fill="rgb(103, 69, 51)" opacity="1.0" stroke="rgb(0, 0, 0)" stroke-opacity="0.0" stroke-linecap="round" stroke-linejoin="round"/>
    <path d="M 279.0 232.0 C 279.36920166015625 238.29747009277344 276.3032531738281 248.03009033203125 286.0 245.0 C 288.6607360839844 238.70252990722656 288.579345703125 228.96990966796875 279.0 232.0" stroke-width="2.0" fill="rgb(69, 42, 39)" opacity="1.0" stroke="rgb(0, 0, 0)" stroke-opacity="0.0" stroke-linecap="round" stroke-linejoin="round"/>
    <path d="M 296.0 40.0 C 296.61700439453125 45.82892990112305 292.859130859375 57.78789138793945 303.0 55.0 C 301.82891845703125 49.17107009887695 306.78790283203125 37.21210861206055 296.0 40.0" stroke-width="2.0" fill="rgb(122, 137, 178)" opacity="1.0" stroke="rgb(0, 0, 0)" stroke-opacity="0.0" stroke-linecap="round" stroke-linejoin="round"/>
    <path d="M 8.0 279.0 C 9.07164192199707 286.93414306640625 -0.020120486617088318 303.6612548828125 14.0 300.0 L 14.0 292.0 C 13.0 297.8333435058594 12.0 297.6666564941406 11.0 296.0 C 11.05367374420166 290.6514892578125 11.285168647766113 282.68695068359375 8.0 279.0" stroke-width="2.0" fill="rgb(46, 32, 29)" opacity="1.0" stroke="rgb(0, 0, 0)" stroke-opacity="0.0" stroke-linecap="round" stroke-linejoin="round"/>
    <path d="M 59.0 286.0 C 54.30558776855469 291.89337158203125 52.131805419921875 315.3055419921875 60.0 307.0 L 59.0 286.0" stroke-width="2.0" fill="rgb(65, 43, 34)" opacity="1.0" stroke="rgb(0, 0, 0)" stroke-opacity="0.0" stroke-linecap="round" stroke-linejoin="round"/>
    <path d="M 74.0 242.0 C 66.03935241699219 243.83753967285156 67.60150146484375 273.8223876953125 74.0 258.0 L 74.0 242.0" stroke-width="2.0" fill="rgb(45, 20, 8)" opacity="1.0" stroke="rgb(0, 0, 0)" stroke-opacity="0.0" stroke-linecap="round" stroke-linejoin="round"/>
    <path d="M 205.0 284.0 C 203.60455322265625 291.1618347167969 224.14073181152344 290.4526062011719 219.0 281.0 C 214.97520446777344 282.0467224121094 208.36659240722656 278.73162841796875 205.0 284.0" stroke-width="2.0" fill="rgb(54, 43, 42)" opacity="1.0" stroke="rgb(0, 0, 0)" stroke-opacity="0.0" stroke-linecap="round" stroke-linejoin="round"/>
    <path d="M 177.0 11.0 C 168.52943420410156 23.612716674804688 197.14932250976562 26.56389617919922 183.0 12.0 L 177.0 11.0" stroke-width="2.0" fill="rgb(178, 156, 161)" opacity="1.0" stroke="rgb(0, 0, 0)" stroke-opacity="0.0" stroke-linecap="round" stroke-linejoin="round"/>
    <path d="M 345.0 113.0 C 340.4434509277344 119.07394409179688 342.0546875 131.34584045410156 351.0 124.0 C 350.8028869628906 120.43479919433594 352.81170654296875 111.95501708984375 345.0 113.0" stroke-width="2.0" fill="rgb(60, 44, 44)" opacity="1.0" stroke="rgb(0, 0, 0)" stroke-opacity="0.0" stroke-linecap="round" stroke-linejoin="round"/>
    <path d="M 412.0 222.0 C 405.912109375 228.28082275390625 407.04473876953125 243.33958435058594 413.0 248.0 C 413.209716796875 240.0 412.7318420410156 232.0 412.0 222.0" stroke-width="2.0" fill="rgb(32, 11, 8)" opacity="1.0" stroke="rgb(0, 0, 0)" stroke-opacity="0.0" stroke-linecap="round" stroke-linejoin="round"/>
    <path d="M 276.0 112.0 C 266.4470520019531 125.36713409423828 289.24652099609375 127.10430908203125 283.0 113.0 L 276.0 112.0" stroke-width="2.0" fill="rgb(34, 15, 10)" opacity="1.0" stroke="rgb(0, 0, 0)" stroke-opacity="0.0" stroke-linecap="round" stroke-linejoin="round"/>
    <path d="M 272.0 165.0 C 274.5216369628906 168.4380645751953 285.19573974609375 163.5102996826172 291.0 169.0 C 291.7525939941406 159.5311279296875 276.767822265625 158.60894775390625 272.0 165.0" stroke-width="2.0" fill="rgb(103, 54, 24)" opacity="1.0" stroke="rgb(0, 0, 0)" stroke-opacity="0.0" stroke-linecap="round" stroke-linejoin="round"/>
    <path d="M 416.0 2.0 C 416.36920166015625 8.297471046447754 413.3032531738281 18.030086517333984 423.0 15.0 C 422.1333312988281 9.430160522460938 426.4510803222656 -0.7696324586868286 416.0 2.0" stroke-width="2.0" fill="rgb(80, 112, 161)" opacity="1.0" stroke="rgb(0, 0, 0)" stroke-opacity="0.0" stroke-linecap="round" stroke-linejoin="round"/>
    <path d="M 79.0 201.0 C 73.4659194946289 204.2497100830078 70.30516052246094 222.0538330078125 79.0 219.0 L 79.0 201.0" stroke-width="2.0" fill="rgb(55, 26, 11)" opacity="1.0" stroke="rgb(0, 0, 0)" stroke-opacity="0.0" stroke-linecap="round" stroke-linejoin="round"/>
    <path d="M 307.0 313.0 C 316.06622314453125 313.55291748046875 330.2434997558594 317.027587890625 336.0 311.0 L 307.0 313.0" stroke-width="2.0" fill="rgb(98, 96, 97)" opacity="1.0" stroke="rgb(0, 0, 0)" stroke-opacity="0.0" stroke-linecap="round" stroke-linejoin="round"/>
    <path d="M 130.0 111.0 C 124.18014526367188 124.97193145751953 153.1031951904297 119.4299545288086 137.0 110.0 L 130.0 111.0" stroke-width="2.0" fill="rgb(106, 71, 53)" opacity="1.0" stroke="rgb(0, 0, 0)" stroke-opacity="0.0" stroke-linecap="round" stroke-linejoin="round"/>
    <path d="M 413.0 252.0 C 415.1556701660156 259.1434631347656 435.2109680175781 260.17291259765625 431.0 252.0 L 413.0 252.0" stroke-width="2.0" fill="rgb(91, 50, 33)" opacity="1.0" stroke="rgb(0, 0, 0)" stroke-opacity="0.0" stroke-linecap="round" stroke-linejoin="round"/>
    <path d="M 90.0 195.0 C 83.1041488647461 201.22769165039062 87.4913101196289 209.875732421875 95.0 207.0 C 93.87578582763672 202.79087829589844 98.08133697509766 193.2519989013672 90.0 195.0" stroke-width="2.0" fill="rgb(59, 29, 11)" opacity="1.0" stroke="rgb(0, 0, 0)" stroke-opacity="0.0" stroke-linecap="round" stroke-linejoin="round"/>
    <path d="M 69.0 207.0 C 61.640281677246094 209.70074462890625 61.93920135498047 231.340576171875 69.0 223.0 L 69.0 207.0" stroke-width="2.0" fill="rgb(76, 41, 25)" opacity="1.0" stroke="rgb(0, 0, 0)" stroke-opacity="0.0" stroke-linecap="round" stroke-linejoin="round"/>
    <path d="M 402.0 177.0 C 402.850830078125 182.75315856933594 398.5429992675781 195.08251953125 407.0 196.0 C 406.4757385253906 189.6666717529297 409.21026611328125 183.3333282470703 402.0 177.0" stroke-width="2.0" fill="rgb(181, 175, 187)" opacity="1.0" stroke="rgb(0, 0, 0)" stroke-opacity="0.0" stroke-linecap="round" stroke-linejoin="round"/>
    <path d="M 116.0 180.0 C 111.03970336914062 187.34121704101562 114.02081298828125 198.9940948486328 113.0 208.0 C 119.64797973632812 202.89791870117188 114.25587463378906 189.4084930419922 116.0 180.0" stroke-width="2.0" fill="rgb(168, 126, 101)" opacity="1.0" stroke="rgb(0, 0, 0)" stroke-opacity="0.0" stroke-linecap="round" stroke-linejoin="round"/>
    <path d="M 10.0 279.0 C 7.097529411315918 280.667724609375 1.652282476425171 302.5183410644531 11.0 298.0 L 10.0 279.0" stroke-width="2.0" fill="rgb(49, 37, 33)" opacity="1.0" stroke="rgb(0, 0, 0)" stroke-opacity="0.0" stroke-linecap="round" stroke-linejoin="round"/>
    <path d="M 211.0 118.0 C 206.01718139648438 124.24584197998047 211.38291931152344 131.33619689941406 218.0 129.0 C 216.7412109375 124.345458984375 219.21591186523438 115.67201232910156 211.0 118.0" stroke-width="2.0" fill="rgb(81, 59, 49)" opacity="1.0" stroke="rgb(0, 0, 0)" stroke-opacity="0.0" stroke-linecap="round" stroke-linejoin="round"/>
    <path d="M 302.0 305.0 C 293.9140625 305.1836853027344 293.820556640625 325.33599853515625 304.0 316.0 C 303.17633056640625 312.6666564941406 305.9440002441406 309.3333435058594 302.0 305.0" stroke-width="2.0" fill="rgb(95, 67, 54)" opacity="1.0" stroke="rgb(0, 0, 0)" stroke-opacity="0.0" stroke-linecap="round" stroke-linejoin="round"/>
    <path d="M 63.0 245.0 C 55.43045425415039 250.80657958984375 59.26723098754883 273.7428283691406 64.0 259.0 L 63.0 245.0" stroke-width="2.0" fill="rgb(54, 28, 14)" opacity="1.0" stroke="rgb(0, 0, 0)" stroke-opacity="0.0" stroke-linecap="round" stroke-linejoin="round"/>
    <path d="M 245.0 300.0 C 240.7507781982422 309.0167541503906 261.24920654296875 310.0270080566406 257.0 300.0 L 245.0 300.0" stroke-width="2.0" fill="rgb(46, 45, 53)" opacity="1.0" stroke="rgb(0, 0, 0)" stroke-opacity="0.0" stroke-linecap="round" stroke-linejoin="round"/>
    <path d="M 105.0 189.0 C 98.96156311035156 195.89230346679688 106.72479248046875 197.46910095214844 112.0 199.0 C 112.4718017578125 194.99302673339844 113.5361328125 184.36427307128906 105.0 189.0" stroke-width="2.0" fill="rgb(58, 28, 14)" opacity="1.0" stroke="rgb(0, 0, 0)" stroke-opacity="0.0" stroke-linecap="round" stroke-linejoin="round"/>
    <path d="M 324.0 107.0 C 322.1321105957031 112.7531509399414 320.1197509765625 125.08251953125 327.0 126.0 C 326.9524230957031 119.98767852783203 327.55010986328125 111.34981536865234 324.0 107.0" stroke-width="2.0" fill="rgb(93, 64, 47)" opacity="1.0" stroke="rgb(0, 0, 0)" stroke-opacity="0.0" stroke-linecap="round" stroke-linejoin="round"/>
    <path d="M 16.0 294.0 C 20.849260330200195 293.3926696777344 30.415515899658203 291.9955749511719 32.0 288.0 C 26.016752243041992 290.0157775878906 13.252933502197266 282.36566162109375 16.0 294.0" stroke-width="2.0" fill="rgb(218, 161, 130)" opacity="1.0" stroke="rgb(0, 0, 0)" stroke-opacity="0.0" stroke-linecap="round" stroke-linejoin="round"/>
    <path d="M 338.0 309.0 C 339.9293518066406 316.2401428222656 360.4150085449219 310.6785888671875 349.0 306.0 L 338.0 309.0" stroke-width="2.0" fill="rgb(39, 41, 50)" opacity="1.0" stroke="rgb(0, 0, 0)" stroke-opacity="0.0" stroke-linecap="round" stroke-linejoin="round"/>
    <path d="M 178.0 235.0 C 175.05238342285156 238.3092803955078 173.1495819091797 252.58645629882812 181.0 250.0 C 179.9202880859375 245.64498901367188 183.31532287597656 238.69570922851562 178.0 235.0" stroke-width="2.0" fill="rgb(15, 6, 3)" opacity="1.0" stroke="rgb(0, 0, 0)" stroke-opacity="0.0" stroke-linecap="round" stroke-linejoin="round"/>
    <path d="M 92.0 302.0 C 86.43679809570312 314.28863525390625 108.4015884399414 314.1552734375 99.0 303.0 L 92.0 302.0" stroke-width="2.0" fill="rgb(54, 39, 28)" opacity="1.0" stroke="rgb(0, 0, 0)" stroke-opacity="0.0" stroke-linecap="round" stroke-linejoin="round"/>
    <path d="M 259.0 284.0 C 258.4569396972656 291.24310302734375 255.03807067871094 302.99530029296875 261.0 307.0 L 259.0 284.0" stroke-width="2.0" fill="rgb(128, 113, 106)" opacity="1.0" stroke="rgb(0, 0, 0)" stroke-opacity="0.0" stroke-linecap="round" stroke-linejoin="round"/>
    <path d="M 14.0 337.0 C 22.313037872314453 339.9643249511719 26.348499298095703 338.2922058105469 33.0 339.0 C 28.971599578857422 335.1900329589844 19.16590118408203 329.6024169921875 14.0 337.0" stroke-width="2.0" fill="rgb(93, 75, 75)" opacity="1.0" stroke="rgb(0, 0, 0)" stroke-opacity="0.0" stroke-linecap="round" stroke-linejoin="round"/>
    <path d="M 113.0 144.0 C 104.93050384521484 142.53219604492188 106.13160705566406 162.64427185058594 114.0 155.0 L 113.0 144.0" stroke-width="2.0" fill="rgb(72, 44, 27)" opacity="1.0" stroke="rgb(0, 0, 0)" stroke-opacity="0.0" stroke-linecap="round" stroke-linejoin="round"/>
    <path d="M 249.0 308.0 C 245.0845489501953 316.05615234375 266.76580810546875 316.9867248535156 260.0 308.0 L 249.0 308.0" stroke-width="2.0" fill="rgb(109, 104, 114)" opacity="1.0" stroke="rgb(0, 0, 0)" stroke-opacity="0.0" stroke-linecap="round" stroke-linejoin="round"/>
    <path d="M 442.0 299.0 C 439.3623046875 302.8041687011719 440.83160400390625 311.85369873046875 447.0 311.0 C 445.87579345703125 306.7908630371094 450.0813293457031 297.25201416015625 442.0 299.0" stroke-width="2.0" fill="rgb(32, 25, 23)" opacity="1.0" stroke="rgb(0, 0, 0)" stroke-opacity="0.0" stroke-linecap="round" stroke-linejoin="round"/>
    <path d="M 337.0 308.0 C 336.30572509765625 315.3113098144531 347.65423583984375 309.89874267578125 353.0 310.0 C 351.0990295410156 303.9236755371094 342.97039794921875 308.345947265625 337.0 308.0" stroke-width="2.0" fill="rgb(29, 33, 42)" opacity="1.0" stroke="rgb(0, 0, 0)" stroke-opacity="0.0" stroke-linecap="round" stroke-linejoin="round"/>
    <path d="M 0.0 287.0 C 1.150739312171936 291.8492736816406 -2.4155166149139404 301.41552734375 2.0 303.0 C 5.910378932952881 297.8358459472656 7.416927337646484 291.7139587402344 0.0 287.0" stroke-width="2.0" fill="rgb(63, 73, 48)" opacity="1.0" stroke="rgb(0, 0, 0)" stroke-opacity="0.0" stroke-linecap="round" stroke-linejoin="round"/>
    <path d="M 153.0 130.0 C 146.56617736816406 142.4620819091797 161.63739013671875 144.22926330566406 158.0 131.0 L 153.0 130.0" stroke-width="2.0" fill="rgb(63, 38, 28)" opacity="1.0" stroke="rgb(0, 0, 0)" stroke-opacity="0.0" stroke-linecap="round" stroke-linejoin="round"/>
    <path d="M 5.0 301.0 C -1.5443370342254639 314.17425537109375 13.482769012451172 314.17425537109375 10.0 301.0 L 5.0 301.0" stroke-width="2.0" fill="rgb(189, 101, 38)" opacity="1.0" stroke="rgb(0, 0, 0)" stroke-opacity="0.0" stroke-linecap="round" stroke-linejoin="round"/>
    <path d="M 226.0 133.0 C 226.88619995117188 137.7804718017578 222.98976135253906 147.3435821533203 231.0 145.0 C 230.029541015625 141.1958465576172 233.8372344970703 132.1462860107422 226.0 133.0" stroke-width="2.0" fill="rgb(185, 143, 117)" opacity="1.0" stroke="rgb(0, 0, 0)" stroke-opacity="0.0" stroke-linecap="round" stroke-linejoin="round"/>
    <path d="M 55.0 250.0 C 49.61914825439453 251.62477111816406 50.62667465209961 272.5728759765625 56.0 262.0 L 55.0 250.0" stroke-width="2.0" fill="rgb(72, 39, 17)" opacity="1.0" stroke="rgb(0, 0, 0)" stroke-opacity="0.0" stroke-linecap="round" stroke-linejoin="round"/>
    <path d="M 15.0 343.0 C 23.339815139770508 345.2535705566406 35.99514389038086 344.4926452636719 46.0 345.0 C 36.10353088378906 340.4986572265625 28.028261184692383 344.46319580078125 15.0 343.0" stroke-width="2.0" fill="rgb(86, 69, 69)" opacity="1.0" stroke="rgb(0, 0, 0)" stroke-opacity="0.0" stroke-linecap="round" stroke-linejoin="round"/>
    <path d="M 278.0 309.0 C 270.3190612792969 319.56976318359375 291.36187744140625 322.5486755371094 283.0 311.0 L 278.0 309.0" stroke-width="2.0" fill="rgb(167, 156, 160)" opacity="1.0" stroke="rgb(0, 0, 0)" stroke-opacity="0.0" stroke-linecap="round" stroke-linejoin="round"/>
    <path d="M 404.0 249.0 C 400.0988464355469 259.11492919921875 420.0653991699219 258.2352600097656 410.0 248.0 L 404.0 249.0" stroke-width="2.0" fill="rgb(157, 122, 101)" opacity="1.0" stroke="rgb(0, 0, 0)" stroke-opacity="0.0" stroke-linecap="round" stroke-linejoin="round"/>
    <path d="M 300.0 306.0 C 290.5021057128906 321.23333740234375 311.8116760253906 317.1442565917969 300.0 306.0" stroke-width="2.0" fill="rgb(94, 63, 48)" opacity="1.0" stroke="rgb(0, 0, 0)" stroke-opacity="0.0" stroke-linecap="round" stroke-linejoin="round"/>
    <path d="M 172.0 306.0 C 167.6041717529297 313.43756103515625 186.82083129882812 313.43756103515625 182.0 306.0 L 172.0 306.0" stroke-width="2.0" fill="rgb(51, 52, 62)" opacity="1.0" stroke="rgb(0, 0, 0)" stroke-opacity="0.0" stroke-linecap="round" stroke-linejoin="round"/>
    <path d="M 261.0 246.0 C 257.5022888183594 262.8551940917969 277.78436279296875 246.1270751953125 261.0 246.0" stroke-width="2.0" fill="rgb(187, 148, 119)" opacity="1.0" stroke="rgb(0, 0, 0)" stroke-opacity="0.0" stroke-linecap="round" stroke-linejoin="round"/>
    <path d="M 383.0 310.0 C 397.52972412109375 318.96923828125 395.5456237792969 299.6669921875 383.0 310.0" stroke-width="2.0" fill="rgb(64, 73, 86)" opacity="1.0" stroke="rgb(0, 0, 0)" stroke-opacity="0.0" stroke-linecap="round" stroke-linejoin="round"/>
    <path d="M 252.0 239.0 C 244.47454833984375 254.49203491210938 268.8454895019531 238.2664031982422 252.0 239.0" stroke-width="2.0" fill="rgb(117, 100, 88)" opacity="1.0" stroke="rgb(0, 0, 0)" stroke-opacity="0.0" stroke-linecap="round" stroke-linejoin="round"/>
    <path d="M 232.0 110.0 C 227.175537109375 123.09151458740234 237.27825927734375 125.28038024902344 236.0 111.0 L 232.0 110.0" stroke-width="2.0" fill="rgb(87, 54, 36)" opacity="1.0" stroke="rgb(0, 0, 0)" stroke-opacity="0.0" stroke-linecap="round" stroke-linejoin="round"/>
    <path d="M 170.0 310.0 C 157.58396911621094 303.9286193847656 157.58396911621094 318.2153625488281 170.0 314.0 L 170.0 310.0" stroke-width="2.0" fill="rgb(41, 37, 41)" opacity="1.0" stroke="rgb(0, 0, 0)" stroke-opacity="0.0" stroke-linecap="round" stroke-linejoin="round"/>
    <path d="M 129.0 196.0 C 124.39868927001953 207.34140014648438 136.12733459472656 209.349365234375 134.0 197.0 L 129.0 196.0" stroke-width="2.0" fill="rgb(74, 42, 25)" opacity="1.0" stroke="rgb(0, 0, 0)" stroke-opacity="0.0" stroke-linecap="round" stroke-linejoin="round"/>
    <path d="M 130.0 111.0 C 128.37429809570312 120.92179870605469 138.5926513671875 111.66344451904297 143.0 116.0 C 137.20452880859375 110.422119140625 136.12413024902344 109.16553497314453 130.0 111.0" stroke-width="2.0" fill="rgb(112, 74, 55)" opacity="1.0" stroke="rgb(0, 0, 0)" stroke-opacity="0.0" stroke-linecap="round" stroke-linejoin="round"/>
    <path d="M 71.0 306.0 C 61.67244338989258 304.9290771484375 61.67244338989258 317.3084411621094 71.0 314.0 L 71.0 306.0" stroke-width="2.0" fill="rgb(35, 29, 24)" opacity="1.0" stroke="rgb(0, 0, 0)" stroke-opacity="0.0" stroke-linecap="round" stroke-linejoin="round"/>
    <path d="M 340.0 307.0 C 337.3127136230469 313.2000427246094 354.6872863769531 313.2000427246094 352.0 307.0 L 340.0 307.0" stroke-width="2.0" fill="rgb(17, 20, 31)" opacity="1.0" stroke="rgb(0, 0, 0)" stroke-opacity="0.0" stroke-linecap="round" stroke-linejoin="round"/>
    <path d="M 134.0 186.0 C 127.0680923461914 190.00636291503906 127.15140533447266 196.43606567382812 135.0 197.0 L 134.0 186.0" stroke-width="2.0" fill="rgb(209, 187, 165)" opacity="1.0" stroke="rgb(0, 0, 0)" stroke-opacity="0.0" stroke-linecap="round" stroke-linejoin="round"/>
    <path d="M 8.0 40.0 C 3.950537919998169 49.60302734375 22.25843048095703 49.91548156738281 13.0 40.0 L 8.0 40.0" stroke-width="2.0" fill="rgb(226, 166, 131)" opacity="1.0" stroke="rgb(0, 0, 0)" stroke-opacity="0.0" stroke-linecap="round" stroke-linejoin="round"/>
    <path d="M 338.0 247.0 C 333.1009216308594 261.6361083984375 353.582275390625 248.42587280273438 338.0 247.0" stroke-width="2.0" fill="rgb(199, 156, 130)" opacity="1.0" stroke="rgb(0, 0, 0)" stroke-opacity="0.0" stroke-linecap="round" stroke-linejoin="round"/>
    <path d="M 398.0 311.0 C 400.5216369628906 315.4783630371094 411.19573974609375 311.80426025390625 417.0 313.0 C 412.98175048828125 308.5604553222656 404.6802978515625 312.16790771484375 398.0 311.0" stroke-width="2.0" fill="rgb(112, 108, 107)" opacity="1.0" stroke="rgb(0, 0, 0)" stroke-opacity="0.0" stroke-linecap="round" stroke-linejoin="round"/>
    <path d="M 300.0 246.0 C 296.80706787109375 261.51556396484375 314.8425598144531 245.8598175048828 300.0 246.0" stroke-width="2.0" fill="rgb(199, 155, 120)" opacity="1.0" stroke="rgb(0, 0, 0)" stroke-opacity="0.0" stroke-linecap="round" stroke-linejoin="round"/>
    <path d="M 261.0 247.0 C 258.8057556152344 262.37884521484375 275.4891357421875 246.4273223876953 261.0 247.0" stroke-width="2.0" fill="rgb(194, 156, 128)" opacity="1.0" stroke="rgb(0, 0, 0)" stroke-opacity="0.0" stroke-linecap="round" stroke-linejoin="round"/>
    <path d="M 200.0 115.0 C 195.66513061523438 123.17201232910156 202.84983825683594 130.0806121826172 204.0 118.0 L 200.0 115.0" stroke-width="2.0" fill="rgb(101, 69, 51)" opacity="1.0" stroke="rgb(0, 0, 0)" stroke-opacity="0.0" stroke-linecap="round" stroke-linejoin="round"/>
    <path d="M 291.0 307.0 C 287.9319152832031 321.3517150878906 305.2850646972656 307.5450439453125 291.0 307.0" stroke-width="2.0" fill="rgb(100, 94, 102)" opacity="1.0" stroke="rgb(0, 0, 0)" stroke-opacity="0.0" stroke-linecap="round" stroke-linejoin="round"/>
    <path d="M 156.0 253.0 C 153.0452423095703 266.84271240234375 171.5402374267578 252.0972442626953 156.0 253.0" stroke-width="2.0" fill="rgb(189, 149, 124)" opacity="1.0" stroke="rgb(0, 0, 0)" stroke-opacity="0.0" stroke-linecap="round" stroke-linejoin="round"/>
    <path d="M 385.0 307.0 C 386.1175231933594 318.5142517089844 402.58746337890625 304.20257568359375 385.0 307.0" stroke-width="2.0" fill="rgb(67, 76, 90)" opacity="1.0" stroke="rgb(0, 0, 0)" stroke-opacity="0.0" stroke-linecap="round" stroke-linejoin="round"/>
    <path d="M 231.0 113.0 C 227.55157470703125 128.77105712890625 241.50540161132812 117.19699096679688 231.0 113.0" stroke-width="2.0" fill="rgb(83, 51, 32)" opacity="1.0" stroke="rgb(0, 0, 0)" stroke-opacity="0.0" stroke-linecap="round" stroke-linejoin="round"/>
    <path d="M 0.0 329.0 C -0.1643299013376236 334.9090270996094 10.406054496765137 331.3427734375 15.0 331.0 C 12.30428409576416 327.1117858886719 5.355008125305176 331.60076904296875 0.0 329.0" stroke-width="2.0" fill="rgb(83, 75, 73)" opacity="1.0" stroke="rgb(0, 0, 0)" stroke-opacity="0.0" stroke-linecap="round" stroke-linejoin="round"/>
    <path d="M 17.0 281.0 C 9.948203086853027 279.6971740722656 15.654621124267578 291.1502685546875 13.0 296.0 C 17.98345375061035 295.0211486816406 12.226511001586914 286.2259826660156 17.0 281.0" stroke-width="2.0" fill="rgb(145, 107, 87)" opacity="1.0" stroke="rgb(0, 0, 0)" stroke-opacity="0.0" stroke-linecap="round" stroke-linejoin="round"/>
    <path d="M 11.0 313.0 C 7.215619087219238 316.3560485839844 9.374419212341309 323.9830322265625 8.0 329.0 C 11.75625228881836 325.9743957519531 10.647119522094727 318.6857604980469 11.0 313.0" stroke-width="2.0" fill="rgb(59, 45, 39)" opacity="1.0" stroke="rgb(0, 0, 0)" stroke-opacity="0.0" stroke-linecap="round" stroke-linejoin="round"/>
    <path d="M 438.0 253.0 C 435.007568359375 264.076416015625 453.585205078125 254.15127563476562 438.0 253.0" stroke-width="2.0" fill="rgb(154, 116, 103)" opacity="1.0" stroke="rgb(0, 0, 0)" stroke-opacity="0.0" stroke-linecap="round" stroke-linejoin="round"/>
    <path d="M 83.0 161.0 C 78.30266571044922 159.59495544433594 78.30266571044922 176.10238647460938 83.0 170.0 L 83.0 161.0" stroke-width="2.0" fill="rgb(84, 50, 38)" opacity="1.0" stroke="rgb(0, 0, 0)" stroke-opacity="0.0" stroke-linecap="round" stroke-linejoin="round"/>
    <path d="M 511.0 312.0 C 514.7908935546875 300.7847900390625 494.7768249511719 310.7471008300781 511.0 312.0" stroke-width="2.0" fill="rgb(33, 44, 34)" opacity="1.0" stroke="rgb(0, 0, 0)" stroke-opacity="0.0" stroke-linecap="round" stroke-linejoin="round"/>
    <path d="M 295.0 135.0 C 293.1439514160156 147.9259033203125 307.05609130859375 134.79917907714844 295.0 135.0" stroke-width="2.0" fill="rgb(184, 145, 118)" opacity="1.0" stroke="rgb(0, 0, 0)" stroke-opacity="0.0" stroke-linecap="round" stroke-linejoin="round"/>
    <path d="M 415.0 148.0 C 411.3283996582031 158.74649047851562 427.8944396972656 150.46253967285156 415.0 148.0" stroke-width="2.0" fill="rgb(74, 57, 61)" opacity="1.0" stroke="rgb(0, 0, 0)" stroke-opacity="0.0" stroke-linecap="round" stroke-linejoin="round"/>
    <path d="M 297.0 190.0 C 295.8853759765625 201.77362060546875 310.195068359375 187.84884643554688 297.0 190.0" stroke-width="2.0" fill="rgb(206, 160, 127)" opacity="1.0" stroke="rgb(0, 0, 0)" stroke-opacity="0.0" stroke-linecap="round" stroke-linejoin="round"/>
    <path d="M 463.0 257.0 C 463.4615478515625 267.77508544921875 475.4229736328125 254.2119598388672 463.0 257.0" stroke-width="2.0" fill="rgb(69, 42, 27)" opacity="1.0" stroke="rgb(0, 0, 0)" stroke-opacity="0.0" stroke-linecap="round" stroke-linejoin="round"/>
    <path d="M 385.0 114.0 C 378.5607604980469 123.14141845703125 396.0428161621094 118.83340454101562 385.0 114.0" stroke-width="2.0" fill="rgb(69, 42, 30)" opacity="1.0" stroke="rgb(0, 0, 0)" stroke-opacity="0.0" stroke-linecap="round" stroke-linejoin="round"/>
    <path d="M 89.0 32.0 C 93.88973999023438 42.59846115112305 99.12223052978516 27.859392166137695 89.0 32.0" stroke-width="2.0" fill="rgb(238, 163, 119)" opacity="1.0" stroke="rgb(0, 0, 0)" stroke-opacity="0.0" stroke-linecap="round" stroke-linejoin="round"/>
    <path d="M 146.0 131.0 C 137.5322723388672 137.10357666015625 148.90419006347656 143.74172973632812 146.0 131.0" stroke-width="2.0" fill="rgb(101, 66, 47)" opacity="1.0" stroke="rgb(0, 0, 0)" stroke-opacity="0.0" stroke-linecap="round" stroke-linejoin="round"/>
    <path d="M 199.0 116.0 C 196.71328735351562 127.52350616455078 208.6053466796875 119.4560546875 199.0 116.0" stroke-width="2.0" fill="rgb(90, 60, 43)" opacity="1.0" stroke="rgb(0, 0, 0)" stroke-opacity="0.0" stroke-linecap="round" stroke-linejoin="round"/>
    <path d="M 225.0 193.0 C 223.88536071777344 203.30784606933594 238.19505310058594 191.38153076171875 225.0 193.0" stroke-width="2.0" fill="rgb(210, 164, 132)" opacity="1.0" stroke="rgb(0, 0, 0)" stroke-opacity="0.0" stroke-linecap="round" stroke-linejoin="round"/>
    <path d="M 260.0 192.0 C 260.4615478515625 200.93667602539062 272.4229736328125 188.97525024414062 260.0 192.0" stroke-width="2.0" fill="rgb(218, 171, 140)" opacity="1.0" stroke="rgb(0, 0, 0)" stroke-opacity="0.0" stroke-linecap="round" stroke-linejoin="round"/>
    <path d="M 212.0 126.0 C 212.46156311035156 134.93667602539062 224.42298889160156 122.97525787353516 212.0 126.0" stroke-width="2.0" fill="rgb(171, 146, 132)" opacity="1.0" stroke="rgb(0, 0, 0)" stroke-opacity="0.0" stroke-linecap="round" stroke-linejoin="round"/>
    <path d="M 438.0 254.0 C 437.9454040527344 263.7929382324219 450.29022216796875 253.04901123046875 438.0 254.0" stroke-width="2.0" fill="rgb(169, 130, 117)" opacity="1.0" stroke="rgb(0, 0, 0)" stroke-opacity="0.0" stroke-linecap="round" stroke-linejoin="round"/>
    <path d="M 266.0 107.0 C 261.42633056640625 117.45093536376953 276.8569641113281 107.19375610351562 266.0 107.0" stroke-width="2.0" fill="rgb(54, 27, 17)" opacity="1.0" stroke="rgb(0, 0, 0)" stroke-opacity="0.0" stroke-linecap="round" stroke-linejoin="round"/>
    <path d="M 356.0 110.0 C 351.42633056640625 120.45093536376953 366.8569641113281 110.19375610351562 356.0 110.0" stroke-width="2.0" fill="rgb(65, 36, 27)" opacity="1.0" stroke="rgb(0, 0, 0)" stroke-opacity="0.0" stroke-linecap="round" stroke-linejoin="round"/>
    <path d="M 334.0 108.0 C 332.3562316894531 118.9966812133789 345.4857177734375 106.6431655883789 334.0 108.0" stroke-width="2.0" fill="rgb(79, 48, 36)" opacity="1.0" stroke="rgb(0, 0, 0)" stroke-opacity="0.0" stroke-linecap="round" stroke-linejoin="round"/>
    <path d="M 243.0 141.0 C 242.94540405273438 151.1125946044922 255.29022216796875 138.6383514404297 243.0 141.0" stroke-width="2.0" fill="rgb(70, 37, 23)" opacity="1.0" stroke="rgb(0, 0, 0)" stroke-opacity="0.0" stroke-linecap="round" stroke-linejoin="round"/>
    <path d="M 343.0 120.0 C 339.3739318847656 130.40708923339844 353.2828369140625 123.92431640625 343.0 120.0" stroke-width="2.0" fill="rgb(135, 120, 125)" opacity="1.0" stroke="rgb(0, 0, 0)" stroke-opacity="0.0" stroke-linecap="round" stroke-linejoin="round"/>
    <path d="M 231.0 111.0 C 230.7483367919922 119.61116027832031 241.87094116210938 108.48855590820312 231.0 111.0" stroke-width="2.0" fill="rgb(78, 46, 31)" opacity="1.0" stroke="rgb(0, 0, 0)" stroke-opacity="0.0" stroke-linecap="round" stroke-linejoin="round"/>
    <path d="M 313.0 139.0 C 312.9454040527344 147.2037811279297 325.29022216796875 137.2445068359375 313.0 139.0" stroke-width="2.0" fill="rgb(59, 30, 19)" opacity="1.0" stroke="rgb(0, 0, 0)" stroke-opacity="0.0" stroke-linecap="round" stroke-linejoin="round"/>
    <path d="M 221.0 111.0 C 217.80914306640625 120.39620971679688 230.50057983398438 112.9817886352539 221.0 111.0" stroke-width="2.0" fill="rgb(77, 46, 32)" opacity="1.0" stroke="rgb(0, 0, 0)" stroke-opacity="0.0" stroke-linecap="round" stroke-linejoin="round"/>
    <path d="M 440.0 205.0 C 447.4295654296875 213.2539520263672 449.5130310058594 200.94532775878906 440.0 205.0" stroke-width="2.0" fill="rgb(97, 85, 79)" opacity="1.0" stroke="rgb(0, 0, 0)" stroke-opacity="0.0" stroke-linecap="round" stroke-linejoin="round"/>
    <path d="M 123.0 137.0 C 115.698486328125 141.0172119140625 126.94738006591797 147.5889892578125 123.0 137.0" stroke-width="2.0" fill="rgb(90, 53, 36)" opacity="1.0" stroke="rgb(0, 0, 0)" stroke-opacity="0.0" stroke-linecap="round" stroke-linejoin="round"/>
    <path d="M 366.0 112.0 C 362.1186218261719 120.98228454589844 376.3662109375 111.48731994628906 366.0 112.0" stroke-width="2.0" fill="rgb(61, 33, 23)" opacity="1.0" stroke="rgb(0, 0, 0)" stroke-opacity="0.0" stroke-linecap="round" stroke-linejoin="round"/>
    <path d="M 399.0 117.0 C 389.5366516113281 116.32656860351562 399.0753479003906 127.20499420166016 399.0 117.0" stroke-width="2.0" fill="rgb(70, 43, 36)" opacity="1.0" stroke="rgb(0, 0, 0)" stroke-opacity="0.0" stroke-linecap="round" stroke-linejoin="round"/>
    <path d="M 179.0 150.0 C 180.2874298095703 156.51124572753906 190.090576171875 146.70809936523438 179.0 150.0" stroke-width="2.0" fill="rgb(74, 34, 22)" opacity="1.0" stroke="rgb(0, 0, 0)" stroke-opacity="0.0" stroke-linecap="round" stroke-linejoin="round"/>
    <path d="M 376.0 113.0 C 371.3317565917969 122.18589782714844 384.2666931152344 114.52867126464844 376.0 113.0" stroke-width="2.0" fill="rgb(71, 40, 28)" opacity="1.0" stroke="rgb(0, 0, 0)" stroke-opacity="0.0" stroke-linecap="round" stroke-linejoin="round"/>
    <path d="M 66.0 178.0 C 60.44059753417969 183.58900451660156 68.29462432861328 190.26815795898438 66.0 178.0" stroke-width="2.0" fill="rgb(81, 46, 31)" opacity="1.0" stroke="rgb(0, 0, 0)" stroke-opacity="0.0" stroke-linecap="round" stroke-linejoin="round"/>
    <path d="M 448.0 255.0 C 446.0190734863281 264.0852355957031 457.5706787109375 254.92234802246094 448.0 255.0" stroke-width="2.0" fill="rgb(53, 26, 17)" opacity="1.0" stroke="rgb(0, 0, 0)" stroke-opacity="0.0" stroke-linecap="round" stroke-linejoin="round"/>
    <path d="M 288.0 106.0 C 286.0190734863281 115.08524322509766 297.5706787109375 105.92234802246094 288.0 106.0" stroke-width="2.0" fill="rgb(73, 42, 30)" opacity="1.0" stroke="rgb(0, 0, 0)" stroke-opacity="0.0" stroke-linecap="round" stroke-linejoin="round"/>
    <path d="M 136.0 131.0 C 131.60516357421875 137.75489807128906 143.6525421142578 137.75489807128906 136.0 131.0" stroke-width="2.0" fill="rgb(88, 54, 36)" opacity="1.0" stroke="rgb(0, 0, 0)" stroke-opacity="0.0" stroke-linecap="round" stroke-linejoin="round"/>
    <path d="M 172.0 341.0 C 175.4968719482422 348.3057556152344 182.13101196289062 339.1608581542969 172.0 341.0" stroke-width="2.0" fill="rgb(32, 24, 25)" opacity="1.0" stroke="rgb(0, 0, 0)" stroke-opacity="0.0" stroke-linecap="round" stroke-linejoin="round"/>
    <path d="M 192.0 119.0 C 188.2740478515625 126.60501861572266 194.1526641845703 128.95773315429688 192.0 119.0" stroke-width="2.0" fill="rgb(109, 77, 57)" opacity="1.0" stroke="rgb(0, 0, 0)" stroke-opacity="0.0" stroke-linecap="round" stroke-linejoin="round"/>
    <path d="M 376.0 144.0 C 376.7663269042969 150.35760498046875 386.7696533203125 143.5754852294922 376.0 144.0" stroke-width="2.0" fill="rgb(59, 35, 24)" opacity="1.0" stroke="rgb(0, 0, 0)" stroke-opacity="0.0" stroke-linecap="round" stroke-linejoin="round"/>
    <path d="M 261.0 205.0 C 256.1717834472656 211.1106719970703 268.7264404296875 210.63758850097656 261.0 205.0" stroke-width="2.0" fill="rgb(151, 108, 85)" opacity="1.0" stroke="rgb(0, 0, 0)" stroke-opacity="0.0" stroke-linecap="round" stroke-linejoin="round"/>
  </g>
</svg>
