<?xml version="1.0" ?>
<svg xmlns="http://www.w3.org/2000/svg" version="1.1" width="512" height="512">
  <defs/>
  <g>
    <path d="M 452.5350036621094 324.8055114746094 C 510.68231201171875 517.5568237304688 449.463623046875 496.665771484375 287.6240234375 466.7578430175781 C 229.4905548095703 440.2127990722656 256.2757873535156 466.5041198730469 320.5936279296875 362.645263671875 C 339.2075500488281 434.8858642578125 358.5675964355469 390.3042297363281 427.94622802734375 355.8355712890625 C 335.5500183105469 220.76243591308594 500.1748046875 175.54183959960938 452.5350036621094 324.8055114746094" stroke-width="0.0" fill="rgb(255, 199, 25)" opacity="0.60301286" stroke="rgb(206, 151, 82)" stroke-opacity="0.80179554" stroke-linecap="round" stroke-linejoin="round"/>
    <path d="M 278.2189025878906 337.8652038574219 C 251.34629821777344 382.1251525878906 273.917236328125 448.49700927734375 254.66563415527344 450.90081787109375 C 215.03773498535156 424.3861999511719 213.57398986816406 386.8395080566406 215.39259338378906 363.17388916015625 C 226.64585876464844 297.59112548828125 257.4465026855469 274.5829772949219 286.205810546875 238.94114685058594 C 347.41973876953125 306.9828186035156 362.66326904296875 373.6919250488281 278.2189025878906 337.8652038574219" stroke-width="0.0" fill="rgb(232, 187, 0)" opacity="0.4833079" stroke="rgb(35, 135, 13)" stroke-opacity="0.92424965" stroke-linecap="round" stroke-linejoin="round"/>
    <path d="M 451.0047912597656 200.81129455566406 C 457.7347717285156 258.1553649902344 437.563720703125 247.03172302246094 397.636474609375 277.4712829589844 C 388.6869201660156 237.05787658691406 356.462158203125 255.39427185058594 364.16796875 254.34967041015625 C 404.2498474121094 342.887939453125 291.25164794921875 350.98834228515625 241.1617431640625 107.47404479980469 C 403.95477294921875 223.08432006835938 413.85626220703125 211.0195770263672 451.0047912597656 200.81129455566406" stroke-width="0.0" fill="rgb(220, 190, 113)" opacity="0.7495416" stroke="rgb(237, 97, 174)" stroke-opacity="0.8620345" stroke-linecap="round" stroke-linejoin="round"/>
    <path d="M 312.71490478515625 142.95986938476562 C 233.591552734375 256.29632568359375 273.2356262207031 290.3666687011719 192.30999755859375 280.1894226074219 C 150.16519165039062 264.35986328125 142.17633056640625 280.3485412597656 140.36148071289062 222.32337951660156 C 144.98240661621094 169.53150939941406 134.640625 174.4647216796875 227.14895629882812 174.35882568359375 C 274.52532958984375 116.31729125976562 263.40032958984375 48.67103958129883 312.71490478515625 142.95986938476562" stroke-width="0.0" fill="rgb(112, 208, 46)" opacity="0.42631632" stroke="rgb(141, 188, 248)" stroke-opacity="0.78885543" stroke-linecap="round" stroke-linejoin="round"/>
    <path d="M 173.26612854003906 167.3408660888672 C 172.9929656982422 252.09762573242188 180.51864624023438 277.35943603515625 122.96312713623047 266.6740417480469 C 28.08066177368164 231.94778442382812 3.1922872066497803 136.6218719482422 31.588558197021484 91.9089584350586 C 57.42145538330078 54.53205108642578 39.316253662109375 55.605289459228516 250.10443115234375 33.49967575073242 C 288.0771484375 203.44334411621094 188.62396240234375 144.19140625 173.26612854003906 167.3408660888672" stroke-width="0.0" fill="rgb(154, 240, 76)" opacity="0.3389837" stroke="rgb(199, 234, 70)" stroke-opacity="0.1828624" stroke-linecap="round" stroke-linejoin="round"/>
    <path d="M 407.72369384765625 194.21017456054688 C 410.50250244140625 218.02476501464844 395.9999084472656 188.43917846679688 329.87982177734375 215.5364532470703 C 274.3362731933594 242.05810546875 290.8158264160156 256.49505615234375 287.07763671875 218.40200805664062 C 318.59466552734375 182.5209197998047 316.3356628417969 191.2086639404297 318.1182861328125 148.2128143310547 C 389.2818908691406 144.65628051757812 392.5611877441406 144.9909210205078 407.72369384765625 194.21017456054688" stroke-width="0.0" fill="rgb(255, 255, 255)" opacity="0.9657611" stroke="rgb(99, 181, 49)" stroke-opacity="0.10601829" stroke-linecap="round" stroke-linejoin="round"/>
    <path d="M 303.7897033691406 196.6736602783203 C 307.6695251464844 220.7244110107422 315.8735656738281 218.53477478027344 285.6165771484375 222.97491455078125 C 254.6842498779297 220.39974975585938 261.0235595703125 221.77297973632812 267.136962890625 191.7950439453125 C 275.0881652832031 168.04769897460938 250.45985412597656 160.01309204101562 273.0299072265625 178.93833923339844 C 309.860595703125 186.8929901123047 294.55462646484375 161.29795837402344 303.7897033691406 196.6736602783203" stroke-width="0.0" fill="rgb(254, 186, 3)" opacity="0.94496876" stroke="rgb(179, 254, 243)" stroke-opacity="0.37640095" stroke-linecap="round" stroke-linejoin="round"/>
    <path d="M 419.0 418.0 C 418.33013916015625 420.5 416.5 422.33013916015625 414.0 423.0 C 411.5 422.33013916015625 409.66986083984375 420.5 409.0 418.0 C 409.66986083984375 415.5 411.5 413.66986083984375 414.0 413.0 C 416.5 413.66986083984375 418.33013916015625 415.5 419.0 418.0" stroke-width="0.0" fill="rgb(255, 193, 7)" opacity="1.0" stroke="rgb(229, 78, 241)" stroke-opacity="0.31567502" stroke-linecap="round" stroke-linejoin="round"/>
    <path d="M 360.0 381.0 C 359.33013916015625 383.5 357.5 385.33013916015625 355.0 386.0 C 352.5 385.33013916015625 350.66986083984375 383.5 350.0 381.0 C 350.66986083984375 378.5 352.5 376.66986083984375 355.0 376.0 C 357.5 376.66986083984375 359.33013916015625 378.5 360.0 381.0" stroke-width="0.0" fill="rgb(233, 14, 255)" opacity="1.0" stroke="rgb(231, 46, 211)" stroke-opacity="0.96733046" stroke-linecap="round" stroke-linejoin="round"/>
    <path d="M 339.0 432.0 C 338.33013916015625 434.5 336.5 436.33013916015625 334.0 437.0 C 331.5 436.33013916015625 329.66986083984375 434.5 329.0 432.0 C 329.66986083984375 429.5 331.5 427.66986083984375 334.0 427.0 C 336.5 427.66986083984375 338.33013916015625 429.5 339.0 432.0" stroke-width="0.0" fill="rgb(255, 193, 7)" opacity="1.0" stroke="rgb(144, 93, 21)" stroke-opacity="0.023456737" stroke-linecap="round" stroke-linejoin="round"/>
    <path d="M 152.0 218.0 C 151.3301239013672 220.5 149.5 222.3301239013672 147.0 223.0 C 144.5 222.3301239013672 142.6698760986328 220.5 142.0 218.0 C 142.6698760986328 215.5 144.5 213.6698760986328 147.0 213.0 C 149.5 213.6698760986328 151.3301239013672 215.5 152.0 218.0" stroke-width="0.0" fill="rgb(255, 220, 114)" opacity="1.0" stroke="rgb(37, 39, 229)" stroke-opacity="0.16608784" stroke-linecap="round" stroke-linejoin="round"/>
    <path d="M 394.0 290.0 C 393.33013916015625 292.5 391.5 294.33013916015625 389.0 295.0 C 386.5 294.33013916015625 384.66986083984375 292.5 384.0 290.0 C 384.66986083984375 287.5 386.5 285.66986083984375 389.0 285.0 C 391.5 285.66986083984375 393.33013916015625 287.5 394.0 290.0" stroke-width="0.0" fill="rgb(241, 98, 255)" opacity="1.0" stroke="rgb(170, 216, 41)" stroke-opacity="0.96410084" stroke-linecap="round" stroke-linejoin="round"/>
    <path d="M 162.0 140.0 C 161.3301239013672 142.5 159.5 144.3301239013672 157.0 145.0 C 154.5 144.3301239013672 152.6698760986328 142.5 152.0 140.0 C 152.6698760986328 137.5 154.5 135.6698760986328 157.0 135.0 C 159.5 135.6698760986328 161.3301239013672 137.5 162.0 140.0" stroke-width="0.0" fill="rgb(53, 185, 171)" opacity="1.0" stroke="rgb(52, 90, 127)" stroke-opacity="0.034934487" stroke-linecap="round" stroke-linejoin="round"/>
    <path d="M 267.0 168.0 C 266.33013916015625 170.5 264.5 172.3301239013672 262.0 173.0 C 259.5 172.3301239013672 257.66986083984375 170.5 257.0 168.0 C 257.66986083984375 165.5 259.5 163.6698760986328 262.0 163.0 C 264.5 163.6698760986328 266.33013916015625 165.5 267.0 168.0" stroke-width="0.0" fill="rgb(105, 170, 34)" opacity="1.0" stroke="rgb(71, 165, 50)" stroke-opacity="0.2735031" stroke-linecap="round" stroke-linejoin="round"/>
    <path d="M 174.0 217.0 C 173.3301239013672 219.5 171.5 221.3301239013672 169.0 222.0 C 166.5 221.3301239013672 164.6698760986328 219.5 164.0 217.0 C 164.6698760986328 214.5 166.5 212.6698760986328 169.0 212.0 C 171.5 212.6698760986328 173.3301239013672 214.5 174.0 217.0" stroke-width="0.0" fill="rgb(255, 220, 114)" opacity="1.0" stroke="rgb(130, 152, 131)" stroke-opacity="0.5733281" stroke-linecap="round" stroke-linejoin="round"/>
  </g>
</svg>
