<?xml version="1.0" ?>
<svg xmlns="http://www.w3.org/2000/svg" version="1.1" width="512" height="512">
  <defs/>
  <g>
    <path d="M 453.15655517578125 325.6769104003906 C 510.9154357910156 518.6771240234375 447.3354187011719 495.955810546875 289.9165954589844 467.3883972167969 C 232.0447235107422 443.40948486328125 256.3843688964844 464.24530029296875 319.8570861816406 362.64666748046875 C 340.41937255859375 440.2137451171875 360.718505859375 393.84954833984375 421.6415710449219 359.11572265625 C 335.3352355957031 222.21185302734375 498.60443115234375 170.643310546875 453.15655517578125 325.6769104003906" stroke-width="0.0" fill="rgb(244, 191, 0)" opacity="0.50937307" stroke="rgb(206, 151, 82)" stroke-opacity="0.80179554" stroke-linecap="round" stroke-linejoin="round"/>
    <path d="M 276.6492919921875 339.23944091796875 C 259.4497375488281 370.756103515625 278.6720275878906 445.2063293457031 254.59317016601562 451.1034851074219 C 214.41497802734375 423.5228271484375 213.39146423339844 386.9779357910156 215.59974670410156 360.8974914550781 C 227.67962646484375 295.4668884277344 263.5079040527344 264.834228515625 288.1506652832031 240.33203125 C 347.6056823730469 303.4432067871094 360.047607421875 373.9935607910156 276.6492919921875 339.23944091796875" stroke-width="0.0" fill="rgb(254, 187, 0)" opacity="0.47340018" stroke="rgb(35, 135, 13)" stroke-opacity="0.92424965" stroke-linecap="round" stroke-linejoin="round"/>
    <path d="M 451.62530517578125 203.30889892578125 C 456.4957275390625 269.7370300292969 435.5819091796875 223.74038696289062 396.1899108886719 272.9754333496094 C 388.99615478515625 240.1208953857422 357.385986328125 253.25624084472656 362.24542236328125 253.51165771484375 C 403.6358642578125 346.7399597167969 289.592529296875 351.16412353515625 258.47308349609375 116.8997802734375 C 404.6792907714844 221.02963256835938 402.8932189941406 200.50927734375 451.62530517578125 203.30889892578125" stroke-width="0.0" fill="rgb(238, 200, 100)" opacity="0.87609553" stroke="rgb(237, 97, 174)" stroke-opacity="0.8620345" stroke-linecap="round" stroke-linejoin="round"/>
    <path d="M 317.4680480957031 143.613037109375 C 238.02284240722656 195.257080078125 290.7519836425781 281.36822509765625 207.3126220703125 283.6582336425781 C 150.51528930664062 266.7742004394531 138.39065551757812 275.5162658691406 113.84607696533203 217.98277282714844 C 155.49745178222656 184.05238342285156 162.0262451171875 173.37176513671875 223.60171508789062 174.28111267089844 C 293.6945495605469 112.22685241699219 237.8923797607422 35.73573684692383 317.4680480957031 143.613037109375" stroke-width="0.0" fill="rgb(116, 194, 22)" opacity="0.48895285" stroke="rgb(141, 188, 248)" stroke-opacity="0.78885543" stroke-linecap="round" stroke-linejoin="round"/>
    <path d="M 163.91070556640625 189.79965209960938 C 163.86798095703125 246.89532470703125 170.0224609375 277.4552307128906 121.98535919189453 266.5293273925781 C 12.59656047821045 224.8212127685547 9.191718101501465 116.17131042480469 29.329792022705078 94.2769546508789 C 83.81043243408203 12.904449462890625 85.1254653930664 88.70146942138672 240.4742889404297 19.908971786499023 C 313.0370178222656 174.51348876953125 186.573974609375 165.55409240722656 163.91070556640625 189.79965209960938" stroke-width="0.0" fill="rgb(85, 167, 15)" opacity="0.30362996" stroke="rgb(199, 234, 70)" stroke-opacity="0.1828624" stroke-linecap="round" stroke-linejoin="round"/>
    <path d="M 411.80517578125 202.2006378173828 C 419.9667663574219 215.48170471191406 394.1293640136719 189.21292114257812 330.4132385253906 215.26210021972656 C 275.1107482910156 241.53038024902344 290.0951843261719 256.49249267578125 287.1631774902344 219.34349060058594 C 323.8034362792969 176.243408203125 314.11224365234375 189.92921447753906 318.2668762207031 147.10128784179688 C 365.3905944824219 145.39315795898438 370.97003173828125 162.98944091796875 411.80517578125 202.2006378173828" stroke-width="0.0" fill="rgb(255, 255, 255)" opacity="0.98434174" stroke="rgb(99, 181, 49)" stroke-opacity="0.10601829" stroke-linecap="round" stroke-linejoin="round"/>
    <path d="M 303.6864013671875 196.77706909179688 C 307.3030700683594 218.67010498046875 316.92266845703125 219.24188232421875 285.5412902832031 222.8325653076172 C 253.15284729003906 221.1460418701172 262.7223815917969 219.6373748779297 266.7572326660156 191.60012817382812 C 276.48114013671875 157.5893096923828 244.71957397460938 159.3809051513672 262.95880126953125 176.81307983398438 C 313.0815734863281 190.78575134277344 293.9496765136719 159.42056274414062 303.6864013671875 196.77706909179688" stroke-width="0.0" fill="rgb(252, 187, 5)" opacity="0.9593678" stroke="rgb(179, 254, 243)" stroke-opacity="0.37640095" stroke-linecap="round" stroke-linejoin="round"/>
    <path d="M 436.7286071777344 388.8041076660156 C 445.4856872558594 401.77447509765625 428.8440246582031 438.7556457519531 403.5987548828125 435.0760803222656 C 394.25506591796875 437.1729431152344 355.6280822753906 409.2364807128906 405.7930603027344 388.5634765625 C 358.7668151855469 432.43280029296875 436.81610107421875 424.2427673339844 424.5155029296875 394.2030029296875 C 428.481689453125 393.9078674316406 352.2408447265625 382.943359375 436.7286071777344 388.8041076660156" stroke-width="0.0" fill="rgb(255, 192, 3)" opacity="0.9660299" stroke="rgb(229, 78, 241)" stroke-opacity="0.31567502" stroke-linecap="round" stroke-linejoin="round"/>
    <path d="M 415.8958435058594 361.49908447265625 C 370.51409912109375 392.2958679199219 362.94891357421875 400.2456970214844 349.8820495605469 401.2868957519531 C 326.20599365234375 438.5116271972656 305.27679443359375 504.69268798828125 264.6448669433594 432.3456115722656 C 328.3503112792969 275.9903869628906 306.8694152832031 325.58038330078125 380.3242492675781 328.1865539550781 C 324.5577392578125 382.4438781738281 378.13177490234375 378.1029052734375 415.8958435058594 361.49908447265625" stroke-width="0.0" fill="rgb(18, 107, 8)" opacity="0.40980852" stroke="rgb(231, 46, 211)" stroke-opacity="0.96733046" stroke-linecap="round" stroke-linejoin="round"/>
    <path d="M 351.44854736328125 408.5411071777344 C 337.64935302734375 417.3747253417969 355.1856689453125 446.0499267578125 295.2317810058594 467.8927917480469 C 243.27529907226562 452.3890380859375 309.6593017578125 466.2777099609375 328.8716125488281 437.1539611816406 C 348.19342041015625 397.7832946777344 293.70025634765625 415.6294860839844 319.6099853515625 364.09539794921875 C 338.6742248535156 399.278564453125 496.87066650390625 354.9802551269531 351.44854736328125 408.5411071777344" stroke-width="0.0" fill="rgb(255, 193, 6)" opacity="0.9816286" stroke="rgb(144, 93, 21)" stroke-opacity="0.023456737" stroke-linecap="round" stroke-linejoin="round"/>
    <path d="M 156.0435791015625 193.8710174560547 C 155.26596069335938 255.86703491210938 159.15061950683594 233.16795349121094 147.21490478515625 242.08177185058594 C 129.7679443359375 245.8804168701172 124.79149627685547 222.66433715820312 122.67817687988281 189.46810913085938 C 124.02572631835938 108.86239624023438 120.49121856689453 158.83978271484375 141.22593688964844 125.56558990478516 C 176.82315063476562 136.5758056640625 131.6212158203125 177.3553009033203 156.0435791015625 193.8710174560547" stroke-width="0.0" fill="rgb(254, 215, 98)" opacity="1.0" stroke="rgb(37, 39, 229)" stroke-opacity="0.16608784" stroke-linecap="round" stroke-linejoin="round"/>
    <path d="M 392.8602600097656 291.52996826171875 C 377.2347106933594 339.47479248046875 407.1104736328125 364.3646240234375 364.2999267578125 352.1880187988281 C 362.55340576171875 325.8460388183594 373.32928466796875 313.76336669921875 344.4554443359375 300.8287658691406 C 373.82525634765625 223.47183227539062 299.7096862792969 263.79364013671875 351.2500915527344 234.2647705078125 C 382.3890075683594 285.378662109375 385.3176574707031 241.7686004638672 392.8602600097656 291.52996826171875" stroke-width="0.0" fill="rgb(111, 41, 62)" opacity="0.8019763" stroke="rgb(170, 216, 41)" stroke-opacity="0.96410084" stroke-linecap="round" stroke-linejoin="round"/>
    <path d="M 176.3734588623047 147.87496948242188 C 180.98519897460938 167.2413330078125 173.1348876953125 150.30313110351562 148.29273986816406 174.56497192382812 C 149.53057861328125 171.79518127441406 140.29681396484375 145.26783752441406 143.6861114501953 128.1918487548828 C 155.1507568359375 104.43193817138672 150.41156005859375 131.9854278564453 163.2635498046875 117.34532928466797 C 167.69692993164062 112.9185562133789 185.33193969726562 161.5014190673828 176.3734588623047 147.87496948242188" stroke-width="0.0" fill="rgb(35, 173, 166)" opacity="0.8830508" stroke="rgb(52, 90, 127)" stroke-opacity="0.034934487" stroke-linecap="round" stroke-linejoin="round"/>
    <path d="M 264.590087890625 153.66456604003906 C 264.4854431152344 163.58770751953125 276.1091003417969 192.712890625 260.9134826660156 185.65916442871094 C 248.7834014892578 128.46336364746094 264.7340393066406 219.12359619140625 249.58021545410156 198.6216278076172 C 251.3149871826172 127.0888900756836 246.36019897460938 157.2553253173828 256.22467041015625 137.0740203857422 C 257.9767761230469 162.58468627929688 252.3992156982422 151.6424560546875 264.590087890625 153.66456604003906" stroke-width="0.0" fill="rgb(59, 90, 47)" opacity="0.83886" stroke="rgb(71, 165, 50)" stroke-opacity="0.2735031" stroke-linecap="round" stroke-linejoin="round"/>
    <path d="M 211.33729553222656 194.46084594726562 C 223.32240295410156 222.70407104492188 197.7080535888672 215.08441162109375 184.80484008789062 234.0872802734375 C 167.19140625 241.68772888183594 175.82591247558594 242.6902618408203 196.04531860351562 223.50669860839844 C 163.5792694091797 151.05137634277344 165.83665466308594 244.12576293945312 147.94248962402344 179.48353576660156 C 220.6209716796875 181.9006805419922 195.1465301513672 173.1441650390625 211.33729553222656 194.46084594726562" stroke-width="0.0" fill="rgb(143, 56, 5)" opacity="0.9072679" stroke="rgb(130, 152, 131)" stroke-opacity="0.5733281" stroke-linecap="round" stroke-linejoin="round"/>
    <path d="M 122.96236419677734 145.67820739746094 C 114.61042022705078 173.35317993164062 114.97681427001953 188.47555541992188 110.37128448486328 187.11001586914062 C 81.39350891113281 184.66490173339844 92.69235229492188 197.46780395507812 82.29000854492188 155.79928588867188 C 88.03587341308594 138.9052734375 23.631452560424805 160.12307739257812 74.19171905517578 132.28085327148438 C 149.2152557373047 136.7782745361328 130.4027099609375 112.5867691040039 122.96236419677734 145.67820739746094" stroke-width="0.0" fill="rgb(134, 208, 53)" opacity="0.82554287" stroke="rgb(119, 134, 227)" stroke-opacity="0.048663076" stroke-linecap="round" stroke-linejoin="round"/>
    <path d="M 385.2931823730469 379.109375 C 373.0792236328125 392.83056640625 357.1119689941406 403.1490478515625 345.50018310546875 401.0832824707031 C 340.2999267578125 395.37774658203125 334.5266418457031 398.1685791015625 333.5872802734375 375.3771667480469 C 332.8085632324219 361.6262512207031 344.88592529296875 366.67034912109375 361.96148681640625 349.0464172363281 C 352.0158386230469 384.87603759765625 372.6612243652344 379.6228942871094 385.2931823730469 379.109375" stroke-width="0.0" fill="rgb(233, 18, 255)" opacity="0.99347204" stroke="rgb(110, 161, 35)" stroke-opacity="0.45054334" stroke-linecap="round" stroke-linejoin="round"/>
    <path d="M 403.7389831542969 305.80401611328125 C 404.7083435058594 348.087646484375 406.9566650390625 328.10504150390625 387.1517333984375 336.7750549316406 C 357.7453308105469 335.6181335449219 372.50390625 317.8977966308594 374.1336364746094 308.6299133300781 C 369.6744384765625 256.73992919921875 360.2171936035156 247.4677276611328 362.484619140625 252.27622985839844 C 394.6357116699219 241.91407775878906 399.03375244140625 278.2806701660156 403.7389831542969 305.80401611328125" stroke-width="0.0" fill="rgb(240, 83, 255)" opacity="0.96910816" stroke="rgb(53, 217, 221)" stroke-opacity="0.34084827" stroke-linecap="round" stroke-linejoin="round"/>
    <path d="M 334.4812316894531 425.7348937988281 C 328.8912353515625 445.28533935546875 312.3325500488281 455.6029052734375 290.6111755371094 458.3041687011719 C 275.37139892578125 459.0234680175781 273.1364440917969 463.2167663574219 261.3093566894531 421.09222412109375 C 274.8910827636719 413.359130859375 289.8747253417969 420.1368103027344 281.2290954589844 431.613525390625 C 334.4086608886719 418.3247985839844 330.3868408203125 409.70574951171875 334.4812316894531 425.7348937988281" stroke-width="0.0" fill="rgb(35, 136, 128)" opacity="0.9783943" stroke="rgb(179, 148, 208)" stroke-opacity="0.5729279" stroke-linecap="round" stroke-linejoin="round"/>
    <path d="M 425.9567565917969 403.0043640136719 C 425.54071044921875 406.6000061035156 419.6742858886719 416.95733642578125 403.9986877441406 418.7177734375 C 393.0491638183594 420.29022216796875 386.82061767578125 413.678466796875 392.7239074707031 402.6055603027344 C 401.4399719238281 391.8323059082031 409.3801574707031 393.2753601074219 410.4042663574219 392.5969543457031 C 422.2126770019531 389.8536682128906 428.1650695800781 395.3718566894531 425.9567565917969 403.0043640136719" stroke-width="0.0" fill="rgb(141, 154, 177)" opacity="0.86912715" stroke="rgb(118, 162, 64)" stroke-opacity="0.30664665" stroke-linecap="round" stroke-linejoin="round"/>
    <path d="M 286.6510314941406 249.92564392089844 C 286.3812255859375 271.4790954589844 286.7508850097656 314.29681396484375 286.43426513671875 337.0914611816406 C 275.3827819824219 341.2845153808594 287.40460205078125 288.12786865234375 281.93768310546875 315.9776611328125 C 282.8296813964844 310.2801513671875 281.74884033203125 216.90521240234375 282.2383728027344 207.63783264160156 C 292.6925964355469 229.3053436279297 281.8841552734375 280.55047607421875 286.6510314941406 249.92564392089844" stroke-width="0.0" fill="rgb(247, 177, 12)" opacity="0.9350141" stroke="rgb(99, 153, 213)" stroke-opacity="0.74221414" stroke-linecap="round" stroke-linejoin="round"/>
    <path d="M 358.26715087890625 312.3082275390625 C 380.2853088378906 309.37109375 347.9049377441406 347.061279296875 341.9845886230469 332.65301513671875 C 320.32525634765625 320.91796875 340.3264465332031 326.75640869140625 333.3172912597656 310.94049072265625 C 323.72021484375 303.13897705078125 341.247314453125 276.83160400390625 338.12042236328125 286.4263000488281 C 373.1219177246094 286.91790771484375 350.6671142578125 260.80224609375 358.26715087890625 312.3082275390625" stroke-width="0.0" fill="rgb(218, 204, 196)" opacity="1.0" stroke="rgb(57, 90, 253)" stroke-opacity="0.54495776" stroke-linecap="round" stroke-linejoin="round"/>
    <path d="M 225.2374725341797 250.64149475097656 C 214.5920867919922 247.95700073242188 217.9207763671875 258.7915954589844 217.0774383544922 228.8965606689453 C 180.20736694335938 243.190673828125 215.76356506347656 213.6383056640625 221.4766387939453 223.4224853515625 C 183.1976318359375 187.60018920898438 224.4006805419922 236.09971618652344 216.4163818359375 180.20668029785156 C 228.90228271484375 180.95933532714844 223.6509246826172 164.6985626220703 225.2374725341797 250.64149475097656" stroke-width="0.0" fill="rgb(65, 87, 91)" opacity="1.0" stroke="rgb(90, 50, 49)" stroke-opacity="0.40506625" stroke-linecap="round" stroke-linejoin="round"/>
    <path d="M 411.9826354980469 384.424560546875 C 412.3006896972656 405.8708801269531 414.73486328125 406.4699401855469 406.6569519042969 409.5956115722656 C 402.64739990234375 405.5825500488281 397.8070068359375 396.5473937988281 389.62139892578125 378.57086181640625 C 384.1472473144531 379.05426025390625 396.23614501953125 378.9446105957031 411.43988037109375 370.34442138671875 C 411.5336608886719 364.4622497558594 411.6093444824219 371.3514709472656 411.9826354980469 384.424560546875" stroke-width="0.0" fill="rgb(59, 62, 65)" opacity="1.0" stroke="rgb(163, 146, 201)" stroke-opacity="0.639837" stroke-linecap="round" stroke-linejoin="round"/>
    <path d="M 385.132568359375 334.5802917480469 C 386.5662841796875 340.7031555175781 376.4391174316406 329.2544860839844 365.5104064941406 345.6001281738281 C 365.9959411621094 325.600341796875 362.3730163574219 324.59979248046875 371.17108154296875 304.69671630859375 C 374.8893737792969 307.9930725097656 369.3313293457031 315.4493103027344 368.2636413574219 262.80975341796875 C 389.5429382324219 265.521484375 391.03924560546875 299.0139465332031 385.132568359375 334.5802917480469" stroke-width="0.0" fill="rgb(222, 0, 249)" opacity="0.7566634" stroke="rgb(147, 139, 190)" stroke-opacity="0.37580872" stroke-linecap="round" stroke-linejoin="round"/>
    <path d="M 365.2763366699219 323.9209289550781 C 375.9699401855469 375.9698486328125 318.5763854980469 352.8046875 287.8663635253906 377.8543395996094 C 300.863037109375 340.2822265625 299.9170837402344 344.56256103515625 303.2533264160156 343.18304443359375 C 301.6383361816406 306.3215026855469 291.41583251953125 317.16259765625 328.0137023925781 318.18499755859375 C 341.0301818847656 320.8232727050781 308.67022705078125 373.5928039550781 365.2763366699219 323.9209289550781" stroke-width="0.0" fill="rgb(44, 93, 136)" opacity="0.80295783" stroke="rgb(236, 240, 51)" stroke-opacity="0.44545847" stroke-linecap="round" stroke-linejoin="round"/>
    <path d="M 350.3439025878906 359.3196716308594 C 337.3133239746094 407.9903869628906 352.8211975097656 401.24212646484375 340.44366455078125 401.2525939941406 C 323.609130859375 397.5992431640625 327.8752746582031 388.4757995605469 322.878662109375 373.6560363769531 C 317.8594055175781 356.1178283691406 319.7236633300781 366.467529296875 359.1140441894531 353.1607971191406 C 370.5872497558594 337.83709716796875 360.8846435546875 363.51495361328125 350.3439025878906 359.3196716308594" stroke-width="0.0" fill="rgb(182, 1, 202)" opacity="0.99569947" stroke="rgb(169, 175, 107)" stroke-opacity="0.7947773" stroke-linecap="round" stroke-linejoin="round"/>
    <path d="M 299.24566650390625 394.45440673828125 C 254.43360900878906 401.52239990234375 290.0257873535156 413.5352478027344 283.94305419921875 445.9104309082031 C 263.9958190917969 435.00469970703125 254.95692443847656 421.22808837890625 260.7897644042969 404.161376953125 C 263.7000427246094 397.2217102050781 271.2781982421875 384.13848876953125 276.15301513671875 382.33123779296875 C 314.0180358886719 360.5530090332031 322.5952453613281 352.7137145996094 299.24566650390625 394.45440673828125" stroke-width="0.0" fill="rgb(51, 185, 175)" opacity="0.9470355" stroke="rgb(73, 6, 146)" stroke-opacity="0.0784281" stroke-linecap="round" stroke-linejoin="round"/>
    <path d="M 317.7043151855469 155.596435546875 C 312.2846374511719 214.6664581298828 310.998046875 185.47177124023438 288.5108642578125 169.60105895996094 C 292.4363098144531 149.3455810546875 295.03125 154.76084899902344 284.7828369140625 153.774169921875 C 290.994140625 148.48155212402344 293.945556640625 148.1118927001953 303.9411926269531 145.86721801757812 C 318.9645690917969 142.2827606201172 310.77154541015625 158.6823272705078 317.7043151855469 155.596435546875" stroke-width="0.0" fill="rgb(198, 238, 163)" opacity="0.955137" stroke="rgb(16, 166, 213)" stroke-opacity="0.32166207" stroke-linecap="round" stroke-linejoin="round"/>
    <path d="M 328.7341613769531 407.17718505859375 C 336.6771545410156 431.4304504394531 328.9518737792969 400.32000732421875 311.6103210449219 435.4606018066406 C 240.6109161376953 421.6390686035156 278.74713134765625 435.9525146484375 305.98614501953125 406.5037841796875 C 267.70562744140625 412.42041015625 293.9297180175781 320.4441833496094 326.3116760253906 350.8808288574219 C 302.9429016113281 404.72320556640625 311.3663024902344 364.4109802246094 328.7341613769531 407.17718505859375" stroke-width="0.0" fill="rgb(20, 151, 198)" opacity="0.7879883" stroke="rgb(254, 54, 118)" stroke-opacity="0.0187721" stroke-linecap="round" stroke-linejoin="round"/>
    <path d="M 449.146728515625 230.99728393554688 C 455.87176513671875 225.8261260986328 433.29144287109375 229.23216247558594 416.392578125 227.8276824951172 C 419.32867431640625 220.26052856445312 414.8199462890625 177.8236083984375 415.01287841796875 231.04685974121094 C 434.74053955078125 230.96298217773438 438.5891418457031 230.97323608398438 426.9961853027344 231.13526916503906 C 424.9836730957031 230.93972778320312 450.563232421875 231.02687072753906 449.146728515625 230.99728393554688" stroke-width="0.0" fill="rgb(244, 248, 254)" opacity="0.97077644" stroke="rgb(31, 27, 170)" stroke-opacity="0.58370876" stroke-linecap="round" stroke-linejoin="round"/>
    <path d="M 194.0 215.0 C 193.3301239013672 217.5 191.5 219.3301239013672 189.0 220.0 C 186.5 219.3301239013672 184.6698760986328 217.5 184.0 215.0 C 184.6698760986328 212.5 186.5 210.6698760986328 189.0 210.0 C 191.5 210.6698760986328 193.3301239013672 212.5 194.0 215.0" stroke-width="0.0" fill="rgb(255, 202, 44)" opacity="1.0" stroke="rgb(228, 182, 123)" stroke-opacity="0.018507699" stroke-linecap="round" stroke-linejoin="round"/>
    <path d="M 163.0 97.0 C 162.3301239013672 99.5 160.5 101.33012390136719 158.0 102.0 C 155.5 101.33012390136719 153.6698760986328 99.5 153.0 97.0 C 153.6698760986328 94.5 155.5 92.66987609863281 158.0 92.0 C 160.5 92.66987609863281 162.3301239013672 94.5 163.0 97.0" stroke-width="0.0" fill="rgb(66, 71, 76)" opacity="1.0" stroke="rgb(118, 57, 189)" stroke-opacity="0.0005318069" stroke-linecap="round" stroke-linejoin="round"/>
    <path d="M 114.0 79.0 C 113.33012390136719 81.5 111.5 83.33012390136719 109.0 84.0 C 106.5 83.33012390136719 104.66987609863281 81.5 104.0 79.0 C 104.66987609863281 76.5 106.5 74.66987609863281 109.0 74.0 C 111.5 74.66987609863281 113.33012390136719 76.5 114.0 79.0" stroke-width="0.0" fill="rgb(241, 243, 243)" opacity="1.0" stroke="rgb(75, 79, 123)" stroke-opacity="0.9521509" stroke-linecap="round" stroke-linejoin="round"/>
    <path d="M 383.0 348.0 C 382.33013916015625 350.5 380.5 352.33013916015625 378.0 353.0 C 375.5 352.33013916015625 373.66986083984375 350.5 373.0 348.0 C 373.66986083984375 345.5 375.5 343.66986083984375 378.0 343.0 C 380.5 343.66986083984375 382.33013916015625 345.5 383.0 348.0" stroke-width="0.0" fill="rgb(219, 53, 68)" opacity="1.0" stroke="rgb(161, 17, 66)" stroke-opacity="0.74122584" stroke-linecap="round" stroke-linejoin="round"/>
    <path d="M 440.0 221.0 C 439.33013916015625 223.5 437.5 225.3301239013672 435.0 226.0 C 432.5 225.3301239013672 430.66986083984375 223.5 430.0 221.0 C 430.66986083984375 218.5 432.5 216.6698760986328 435.0 216.0 C 437.5 216.6698760986328 439.33013916015625 218.5 440.0 221.0" stroke-width="0.0" fill="rgb(252, 177, 27)" opacity="1.0" stroke="rgb(247, 143, 101)" stroke-opacity="0.23427065" stroke-linecap="round" stroke-linejoin="round"/>
    <path d="M 165.0 227.0 C 164.3301239013672 229.5 162.5 231.3301239013672 160.0 232.0 C 157.5 231.3301239013672 155.6698760986328 229.5 155.0 227.0 C 155.6698760986328 224.5 157.5 222.6698760986328 160.0 222.0 C 162.5 222.6698760986328 164.3301239013672 224.5 165.0 227.0" stroke-width="0.0" fill="rgb(66, 71, 76)" opacity="1.0" stroke="rgb(204, 102, 9)" stroke-opacity="0.49644688" stroke-linecap="round" stroke-linejoin="round"/>
    <path d="M 387.0 244.0 C 386.33013916015625 246.5 384.5 248.3301239013672 382.0 249.0 C 379.5 248.3301239013672 377.66986083984375 246.5 377.0 244.0 C 377.66986083984375 241.5 379.5 239.6698760986328 382.0 239.0 C 384.5 239.6698760986328 386.33013916015625 241.5 387.0 244.0" stroke-width="0.0" fill="rgb(244, 243, 238)" opacity="1.0" stroke="rgb(189, 140, 95)" stroke-opacity="0.3939948" stroke-linecap="round" stroke-linejoin="round"/>
    <path d="M 424.0 346.0 C 423.33013916015625 348.5 421.5 350.33013916015625 419.0 351.0 C 416.5 350.33013916015625 414.66986083984375 348.5 414.0 346.0 C 414.66986083984375 343.5 416.5 341.66986083984375 419.0 341.0 C 421.5 341.66986083984375 423.33013916015625 343.5 424.0 346.0" stroke-width="0.0" fill="rgb(210, 213, 216)" opacity="1.0" stroke="rgb(251, 112, 203)" stroke-opacity="0.27717876" stroke-linecap="round" stroke-linejoin="round"/>
    <path d="M 444.0 340.0 C 443.33013916015625 342.5 441.5 344.33013916015625 439.0 345.0 C 436.5 344.33013916015625 434.66986083984375 342.5 434.0 340.0 C 434.66986083984375 337.5 436.5 335.66986083984375 439.0 335.0 C 441.5 335.66986083984375 443.33013916015625 337.5 444.0 340.0" stroke-width="0.0" fill="rgb(255, 193, 8)" opacity="1.0" stroke="rgb(170, 115, 18)" stroke-opacity="0.029937366" stroke-linecap="round" stroke-linejoin="round"/>
    <path d="M 211.0 31.0 C 210.3301239013672 33.5 208.5 35.33012771606445 206.0 36.0 C 203.5 35.33012771606445 201.6698760986328 33.5 201.0 31.0 C 201.6698760986328 28.5 203.5 26.669872283935547 206.0 26.0 C 208.5 26.669872283935547 210.3301239013672 28.5 211.0 31.0" stroke-width="0.0" fill="rgb(202, 237, 165)" opacity="1.0" stroke="rgb(111, 181, 248)" stroke-opacity="0.08408108" stroke-linecap="round" stroke-linejoin="round"/>
    <path d="M 438.0 204.0 C 437.33013916015625 206.5 435.5 208.3301239013672 433.0 209.0 C 430.5 208.3301239013672 428.66986083984375 206.5 428.0 204.0 C 428.66986083984375 201.5 430.5 199.6698760986328 433.0 199.0 C 435.5 199.6698760986328 437.33013916015625 201.5 438.0 204.0" stroke-width="0.0" fill="rgb(234, 129, 37)" opacity="1.0" stroke="rgb(30, 63, 156)" stroke-opacity="0.9774686" stroke-linecap="round" stroke-linejoin="round"/>
    <path d="M 390.0 237.0 C 389.33013916015625 239.5 387.5 241.3301239013672 385.0 242.0 C 382.5 241.3301239013672 380.66986083984375 239.5 380.0 237.0 C 380.66986083984375 234.5 382.5 232.6698760986328 385.0 232.0 C 387.5 232.6698760986328 389.33013916015625 234.5 390.0 237.0" stroke-width="0.0" fill="rgb(252, 175, 22)" opacity="1.0" stroke="rgb(113, 95, 97)" stroke-opacity="0.6362982" stroke-linecap="round" stroke-linejoin="round"/>
    <path d="M 269.0 89.0 C 268.33013916015625 91.5 266.5 93.33012390136719 264.0 94.0 C 261.5 93.33012390136719 259.66986083984375 91.5 259.0 89.0 C 259.66986083984375 86.5 261.5 84.66987609863281 264.0 84.0 C 266.5 84.66987609863281 268.33013916015625 86.5 269.0 89.0" stroke-width="0.0" fill="rgb(202, 237, 165)" opacity="1.0" stroke="rgb(104, 58, 247)" stroke-opacity="0.59710014" stroke-linecap="round" stroke-linejoin="round"/>
    <path d="M 259.0 320.0 C 258.33013916015625 322.5 256.5 324.33013916015625 254.0 325.0 C 251.5 324.33013916015625 249.6698760986328 322.5 249.0 320.0 C 249.6698760986328 317.5 251.5 315.66986083984375 254.0 315.0 C 256.5 315.66986083984375 258.33013916015625 317.5 259.0 320.0" stroke-width="0.0" fill="rgb(255, 193, 7)" opacity="1.0" stroke="rgb(71, 99, 2)" stroke-opacity="0.12574895" stroke-linecap="round" stroke-linejoin="round"/>
    <path d="M 371.0 301.0 C 370.33013916015625 303.5 368.5 305.33013916015625 366.0 306.0 C 363.5 305.33013916015625 361.66986083984375 303.5 361.0 301.0 C 361.66986083984375 298.5 363.5 296.66986083984375 366.0 296.0 C 368.5 296.66986083984375 370.33013916015625 298.5 371.0 301.0" stroke-width="0.0" fill="rgb(231, 114, 125)" opacity="1.0" stroke="rgb(205, 240, 204)" stroke-opacity="0.42283922" stroke-linecap="round" stroke-linejoin="round"/>
    <path d="M 163.0 50.0 C 162.3301239013672 52.5 160.5 54.33012771606445 158.0 55.0 C 155.5 54.33012771606445 153.6698760986328 52.5 153.0 50.0 C 153.6698760986328 47.5 155.5 45.66987228393555 158.0 45.0 C 160.5 45.66987228393555 162.3301239013672 47.5 163.0 50.0" stroke-width="0.0" fill="rgb(255, 255, 255)" opacity="1.0" stroke="rgb(200, 206, 46)" stroke-opacity="0.63104105" stroke-linecap="round" stroke-linejoin="round"/>
    <path d="M 153.0 261.0 C 152.3301239013672 263.5 150.5 265.33013916015625 148.0 266.0 C 145.5 265.33013916015625 143.6698760986328 263.5 143.0 261.0 C 143.6698760986328 258.5 145.5 256.66986083984375 148.0 256.0 C 150.5 256.66986083984375 152.3301239013672 258.5 153.0 261.0" stroke-width="0.0" fill="rgb(202, 237, 165)" opacity="1.0" stroke="rgb(95, 187, 186)" stroke-opacity="0.2176109" stroke-linecap="round" stroke-linejoin="round"/>
    <path d="M 168.0 226.0 C 167.3301239013672 228.5 165.5 230.3301239013672 163.0 231.0 C 160.5 230.3301239013672 158.6698760986328 228.5 158.0 226.0 C 158.6698760986328 223.5 160.5 221.6698760986328 163.0 221.0 C 165.5 221.6698760986328 167.3301239013672 223.5 168.0 226.0" stroke-width="0.0" fill="rgb(109, 105, 85)" opacity="1.0" stroke="rgb(105, 99, 111)" stroke-opacity="0.3450439" stroke-linecap="round" stroke-linejoin="round"/>
    <path d="M 217.0 136.0 C 216.3301239013672 138.5 214.5 140.3301239013672 212.0 141.0 C 209.5 140.3301239013672 207.6698760986328 138.5 207.0 136.0 C 207.6698760986328 133.5 209.5 131.6698760986328 212.0 131.0 C 214.5 131.6698760986328 216.3301239013672 133.5 217.0 136.0" stroke-width="0.0" fill="rgb(99, 106, 114)" opacity="1.0" stroke="rgb(74, 24, 62)" stroke-opacity="0.728457" stroke-linecap="round" stroke-linejoin="round"/>
    <path d="M 365.0 303.0 C 364.33013916015625 305.5 362.5 307.33013916015625 360.0 308.0 C 357.5 307.33013916015625 355.66986083984375 305.5 355.0 303.0 C 355.66986083984375 300.5 357.5 298.66986083984375 360.0 298.0 C 362.5 298.66986083984375 364.33013916015625 300.5 365.0 303.0" stroke-width="0.0" fill="rgb(225, 83, 97)" opacity="1.0" stroke="rgb(153, 232, 192)" stroke-opacity="0.1888703" stroke-linecap="round" stroke-linejoin="round"/>
    <path d="M 226.0 68.0 C 225.3301239013672 70.5 223.5 72.33012390136719 221.0 73.0 C 218.5 72.33012390136719 216.6698760986328 70.5 216.0 68.0 C 216.6698760986328 65.5 218.5 63.66987228393555 221.0 63.0 C 223.5 63.66987228393555 225.3301239013672 65.5 226.0 68.0" stroke-width="0.0" fill="rgb(73, 118, 23)" opacity="1.0" stroke="rgb(18, 11, 206)" stroke-opacity="0.9267756" stroke-linecap="round" stroke-linejoin="round"/>
    <path d="M 296.0 333.0 C 295.33013916015625 335.5 293.5 337.33013916015625 291.0 338.0 C 288.5 337.33013916015625 286.66986083984375 335.5 286.0 333.0 C 286.66986083984375 330.5 288.5 328.66986083984375 291.0 328.0 C 293.5 328.66986083984375 295.33013916015625 330.5 296.0 333.0" stroke-width="0.0" fill="rgb(255, 193, 7)" opacity="1.0" stroke="rgb(232, 182, 154)" stroke-opacity="0.37976548" stroke-linecap="round" stroke-linejoin="round"/>
    <path d="M 405.0 234.0 C 404.33013916015625 236.5 402.5 238.3301239013672 400.0 239.0 C 397.5 238.3301239013672 395.66986083984375 236.5 395.0 234.0 C 395.66986083984375 231.5 397.5 229.6698760986328 400.0 229.0 C 402.5 229.6698760986328 404.33013916015625 231.5 405.0 234.0" stroke-width="0.0" fill="rgb(233, 125, 35)" opacity="1.0" stroke="rgb(151, 94, 69)" stroke-opacity="0.890179" stroke-linecap="round" stroke-linejoin="round"/>
    <path d="M 151.0 178.0 C 150.3301239013672 180.5 148.5 182.3301239013672 146.0 183.0 C 143.5 182.3301239013672 141.6698760986328 180.5 141.0 178.0 C 141.6698760986328 175.5 143.5 173.6698760986328 146.0 173.0 C 148.5 173.6698760986328 150.3301239013672 175.5 151.0 178.0" stroke-width="0.0" fill="rgb(251, 175, 26)" opacity="1.0" stroke="rgb(27, 113, 250)" stroke-opacity="0.9051764" stroke-linecap="round" stroke-linejoin="round"/>
    <path d="M 280.0 335.0 C 279.33013916015625 337.5 277.5 339.33013916015625 275.0 340.0 C 272.5 339.33013916015625 270.66986083984375 337.5 270.0 335.0 C 270.66986083984375 332.5 272.5 330.66986083984375 275.0 330.0 C 277.5 330.66986083984375 279.33013916015625 332.5 280.0 335.0" stroke-width="0.0" fill="rgb(255, 193, 7)" opacity="1.0" stroke="rgb(52, 33, 56)" stroke-opacity="0.58282137" stroke-linecap="round" stroke-linejoin="round"/>
    <path d="M 386.0 219.0 C 385.33013916015625 221.5 383.5 223.3301239013672 381.0 224.0 C 378.5 223.3301239013672 376.66986083984375 221.5 376.0 219.0 C 376.66986083984375 216.5 378.5 214.6698760986328 381.0 214.0 C 383.5 214.6698760986328 385.33013916015625 216.5 386.0 219.0" stroke-width="0.0" fill="rgb(234, 132, 40)" opacity="1.0" stroke="rgb(26, 59, 88)" stroke-opacity="0.3921453" stroke-linecap="round" stroke-linejoin="round"/>
    <path d="M 360.0 268.0 C 359.33013916015625 270.5 357.5 272.33013916015625 355.0 273.0 C 352.5 272.33013916015625 350.66986083984375 270.5 350.0 268.0 C 350.66986083984375 265.5 352.5 263.66986083984375 355.0 263.0 C 357.5 263.66986083984375 359.33013916015625 265.5 360.0 268.0" stroke-width="0.0" fill="rgb(49, 49, 49)" opacity="1.0" stroke="rgb(118, 211, 91)" stroke-opacity="0.5168" stroke-linecap="round" stroke-linejoin="round"/>
    <path d="M 82.0 88.0 C 81.33012390136719 90.5 79.5 92.33012390136719 77.0 93.0 C 74.5 92.33012390136719 72.66987609863281 90.5 72.0 88.0 C 72.66987609863281 85.5 74.5 83.66987609863281 77.0 83.0 C 79.5 83.66987609863281 81.33012390136719 85.5 82.0 88.0" stroke-width="0.0" fill="rgb(121, 163, 75)" opacity="1.0" stroke="rgb(55, 171, 246)" stroke-opacity="0.24195774" stroke-linecap="round" stroke-linejoin="round"/>
    <path d="M 383.0 341.0 C 382.33013916015625 343.5 380.5 345.33013916015625 378.0 346.0 C 375.5 345.33013916015625 373.66986083984375 343.5 373.0 341.0 C 373.66986083984375 338.5 375.5 336.66986083984375 378.0 336.0 C 380.5 336.66986083984375 382.33013916015625 338.5 383.0 341.0" stroke-width="0.0" fill="rgb(155, 61, 1)" opacity="1.0" stroke="rgb(75, 246, 238)" stroke-opacity="0.3052649" stroke-linecap="round" stroke-linejoin="round"/>
    <path d="M 191.0 232.0 C 190.3301239013672 234.5 188.5 236.3301239013672 186.0 237.0 C 183.5 236.3301239013672 181.6698760986328 234.5 181.0 232.0 C 181.6698760986328 229.5 183.5 227.6698760986328 186.0 227.0 C 188.5 227.6698760986328 190.3301239013672 229.5 191.0 232.0" stroke-width="0.0" fill="rgb(255, 201, 39)" opacity="1.0" stroke="rgb(125, 8, 246)" stroke-opacity="0.90753096" stroke-linecap="round" stroke-linejoin="round"/>
    <path d="M 267.0 127.0 C 266.33013916015625 129.5 264.5 131.3301239013672 262.0 132.0 C 259.5 131.3301239013672 257.66986083984375 129.5 257.0 127.0 C 257.66986083984375 124.5 259.5 122.66987609863281 262.0 122.0 C 264.5 122.66987609863281 266.33013916015625 124.5 267.0 127.0" stroke-width="0.0" fill="rgb(202, 237, 165)" opacity="1.0" stroke="rgb(249, 218, 191)" stroke-opacity="0.43001446" stroke-linecap="round" stroke-linejoin="round"/>
    <path d="M 437.0 227.0 C 436.33013916015625 229.5 434.5 231.3301239013672 432.0 232.0 C 429.5 231.3301239013672 427.66986083984375 229.5 427.0 227.0 C 427.66986083984375 224.5 429.5 222.6698760986328 432.0 222.0 C 434.5 222.6698760986328 436.33013916015625 224.5 437.0 227.0" stroke-width="0.0" fill="rgb(252, 180, 36)" opacity="1.0" stroke="rgb(118, 8, 70)" stroke-opacity="0.78625363" stroke-linecap="round" stroke-linejoin="round"/>
  </g>
</svg>
