<?xml version="1.0" ?>
<svg xmlns="http://www.w3.org/2000/svg" version="1.1" width="512" height="512">
  <defs/>
  <g>
    <path d="M 452.9963684082031 325.6575012207031 C 510.9117126464844 518.3090209960938 447.72119140625 496.1593933105469 289.42547607421875 467.25872802734375 C 231.33396911621094 442.69866943359375 256.442138671875 464.4868469238281 320.2834167480469 362.6634216308594 C 340.5379638671875 440.0871887207031 358.0478210449219 391.5624084472656 424.2278137207031 354.77960205078125 C 338.3159484863281 222.0789794921875 498.6098327636719 172.76095581054688 452.9963684082031 325.6575012207031" stroke-width="0.0" fill="rgb(229, 178, 7)" opacity="0.5418242" stroke="rgb(206, 151, 82)" stroke-opacity="0.80179554" stroke-linecap="round" stroke-linejoin="round"/>
    <path d="M 279.06396484375 337.4121398925781 C 252.9982452392578 381.78173828125 272.6638488769531 449.92877197265625 254.78004455566406 451.1235046386719 C 214.6809844970703 424.1177673339844 213.94554138183594 387.0856018066406 215.2867431640625 364.0981140136719 C 227.2506103515625 291.6820373535156 264.10552978515625 270.27947998046875 284.9401550292969 238.7682647705078 C 348.1123962402344 304.8282775878906 361.6434020996094 374.38836669921875 279.06396484375 337.4121398925781" stroke-width="0.0" fill="rgb(253, 196, 0)" opacity="0.51057744" stroke="rgb(35, 135, 13)" stroke-opacity="0.92424965" stroke-linecap="round" stroke-linejoin="round"/>
    <path d="M 451.47796630859375 203.2082061767578 C 457.10211181640625 266.73199462890625 435.2405700683594 228.70115661621094 397.37921142578125 275.9046325683594 C 389.046630859375 238.93780517578125 357.6131591796875 252.72425842285156 363.276611328125 253.15158081054688 C 402.9759216308594 347.6208801269531 287.40478515625 352.7589416503906 250.11630249023438 113.55707550048828 C 404.7283630371094 220.8508758544922 406.6262512207031 201.01235961914062 451.47796630859375 203.2082061767578" stroke-width="0.0" fill="rgb(221, 210, 108)" opacity="0.77967626" stroke="rgb(237, 97, 174)" stroke-opacity="0.8620345" stroke-linecap="round" stroke-linejoin="round"/>
    <path d="M 316.04156494140625 143.67767333984375 C 236.12083435058594 195.84410095214844 292.76617431640625 279.76300048828125 207.4166717529297 283.8426818847656 C 154.57064819335938 267.1459045410156 138.64405822753906 275.69598388671875 122.32073974609375 232.54722595214844 C 146.48304748535156 173.52346801757812 144.83761596679688 173.28506469726562 224.78659057617188 174.47695922851562 C 287.6091003417969 114.1293716430664 244.32351684570312 36.87428283691406 316.04156494140625 143.67767333984375" stroke-width="0.0" fill="rgb(125, 190, 42)" opacity="0.5016929" stroke="rgb(141, 188, 248)" stroke-opacity="0.78885543" stroke-linecap="round" stroke-linejoin="round"/>
    <path d="M 170.72068786621094 179.92481994628906 C 167.64028930664062 245.02200317382812 160.77130126953125 277.6018981933594 122.34349060058594 266.4666442871094 C 18.6695556640625 228.5804901123047 5.4634504318237305 121.00403594970703 30.846267700195312 92.90855407714844 C 75.5878677368164 24.57184600830078 64.06927490234375 78.91529846191406 242.70860290527344 25.105695724487305 C 310.6861877441406 174.89016723632812 184.59048461914062 153.27235412597656 170.72068786621094 179.92481994628906" stroke-width="0.0" fill="rgb(89, 171, 13)" opacity="0.30799028" stroke="rgb(199, 234, 70)" stroke-opacity="0.1828624" stroke-linecap="round" stroke-linejoin="round"/>
    <path d="M 409.68524169921875 202.11830139160156 C 419.0548095703125 214.35292053222656 392.13055419921875 189.86293029785156 330.51025390625 215.14723205566406 C 274.1573486328125 242.04283142089844 290.7826232910156 255.74160766601562 287.12884521484375 219.72354125976562 C 321.77392578125 178.37037658691406 315.19073486328125 191.12396240234375 318.2006530761719 147.13482666015625 C 370.40338134765625 145.2827911376953 375.6210632324219 158.54434204101562 409.68524169921875 202.11830139160156" stroke-width="0.0" fill="rgb(255, 255, 255)" opacity="0.98089445" stroke="rgb(99, 181, 49)" stroke-opacity="0.10601829" stroke-linecap="round" stroke-linejoin="round"/>
    <path d="M 303.6924743652344 196.474365234375 C 307.2222595214844 219.36593627929688 317.07373046875 218.79896545410156 285.5925598144531 222.8736572265625 C 253.64486694335938 220.89401245117188 262.1641540527344 220.69927978515625 266.9151916503906 191.26968383789062 C 275.92767333984375 162.68836975097656 246.68833923339844 161.27536010742188 267.234375 177.8409423828125 C 311.7393798828125 188.8895263671875 294.2507629394531 160.25271606445312 303.6924743652344 196.474365234375" stroke-width="0.0" fill="rgb(251, 184, 7)" opacity="0.9525908" stroke="rgb(179, 254, 243)" stroke-opacity="0.37640095" stroke-linecap="round" stroke-linejoin="round"/>
    <path d="M 437.7324523925781 388.62689208984375 C 443.8907775878906 412.7456359863281 422.9855041503906 437.090576171875 406.56884765625 435.09466552734375 C 393.30767822265625 438.75909423828125 356.6532287597656 408.5319519042969 404.58001708984375 389.47308349609375 C 359.50592041015625 430.559326171875 435.3223571777344 425.8352355957031 425.24554443359375 394.2379455566406 C 429.26446533203125 392.2966003417969 351.390625 384.2476806640625 437.7324523925781 388.62689208984375" stroke-width="0.0" fill="rgb(245, 186, 9)" opacity="1.0" stroke="rgb(229, 78, 241)" stroke-opacity="0.31567502" stroke-linecap="round" stroke-linejoin="round"/>
    <path d="M 404.4440002441406 366.44708251953125 C 368.2683410644531 390.8562927246094 367.6228332519531 401.0164794921875 343.61279296875 402.5043029785156 C 327.509033203125 441.0272216796875 316.3398742675781 502.42138671875 252.63641357421875 431.8033447265625 C 312.0736999511719 270.5154724121094 299.43328857421875 323.7392578125 379.2266845703125 330.1073303222656 C 331.76422119140625 385.96649169921875 380.69134521484375 373.5185546875 404.4440002441406 366.44708251953125" stroke-width="0.0" fill="rgb(8, 21, 124)" opacity="0.44583723" stroke="rgb(231, 46, 211)" stroke-opacity="0.96733046" stroke-linecap="round" stroke-linejoin="round"/>
    <path d="M 347.28619384765625 411.52288818359375 C 342.15875244140625 422.4270935058594 346.6633605957031 450.5500793457031 294.62591552734375 467.84869384765625 C 243.9790802001953 450.7823791503906 306.4109802246094 470.7804260253906 328.0897216796875 438.96527099609375 C 342.51104736328125 417.4948425292969 326.45721435546875 427.120361328125 330.8414001464844 396.74053955078125 C 337.6398620605469 418.42010498046875 469.1080017089844 355.6589660644531 347.28619384765625 411.52288818359375" stroke-width="0.0" fill="rgb(255, 192, 7)" opacity="0.98493373" stroke="rgb(144, 93, 21)" stroke-opacity="0.023456737" stroke-linecap="round" stroke-linejoin="round"/>
    <path d="M 156.13497924804688 194.01304626464844 C 155.1080780029297 255.39218139648438 159.21697998046875 233.23739624023438 147.19053649902344 242.190673828125 C 130.4656219482422 245.75625610351562 128.0769500732422 223.411865234375 124.59637451171875 217.01222229003906 C 121.33921813964844 142.15390014648438 117.72552490234375 144.4681854248047 147.43814086914062 123.22986602783203 C 176.6166534423828 137.8250732421875 131.49826049804688 177.23971557617188 156.13497924804688 194.01304626464844" stroke-width="0.0" fill="rgb(254, 214, 97)" opacity="1.0" stroke="rgb(37, 39, 229)" stroke-opacity="0.16608784" stroke-linecap="round" stroke-linejoin="round"/>
    <path d="M 402.0862121582031 296.5345153808594 C 409.62384033203125 333.1474304199219 400.6081237792969 357.5887451171875 364.7645263671875 356.39105224609375 C 362.65948486328125 327.50628662109375 368.5232238769531 306.5304870605469 357.5878601074219 315.7684631347656 C 355.02618408203125 229.9901885986328 310.7688293457031 255.5537567138672 348.6903076171875 235.83843994140625 C 387.75775146484375 265.96826171875 389.85986328125 236.15647888183594 402.0862121582031 296.5345153808594" stroke-width="0.0" fill="rgb(162, 0, 159)" opacity="0.5849094" stroke="rgb(170, 216, 41)" stroke-opacity="0.96410084" stroke-linecap="round" stroke-linejoin="round"/>
    <path d="M 177.01699829101562 151.80848693847656 C 181.29611206054688 163.6243133544922 168.31076049804688 153.76210021972656 148.4329376220703 174.59129333496094 C 149.322509765625 171.93392944335938 141.8118133544922 149.63223266601562 143.244873046875 129.46421813964844 C 154.45889282226562 103.78102111816406 150.98829650878906 131.85304260253906 162.9307861328125 117.8107681274414 C 167.33213806152344 113.05000305175781 180.23680114746094 146.93295288085938 177.01699829101562 151.80848693847656" stroke-width="0.0" fill="rgb(42, 175, 166)" opacity="0.9254599" stroke="rgb(52, 90, 127)" stroke-opacity="0.034934487" stroke-linecap="round" stroke-linejoin="round"/>
    <path d="M 264.97064208984375 154.466064453125 C 262.4864196777344 161.963134765625 276.7010803222656 190.8723907470703 261.00634765625 186.1239776611328 C 248.78598022460938 127.76119232177734 264.77960205078125 219.4125213623047 249.58583068847656 198.5185546875 C 251.19747924804688 127.98709106445312 246.23306274414062 156.38189697265625 256.04840087890625 137.6303253173828 C 258.1273498535156 159.93856811523438 252.67051696777344 153.26593017578125 264.97064208984375 154.466064453125" stroke-width="0.0" fill="rgb(60, 90, 47)" opacity="0.843872" stroke="rgb(71, 165, 50)" stroke-opacity="0.2735031" stroke-linecap="round" stroke-linejoin="round"/>
    <path d="M 211.28297424316406 194.69207763671875 C 223.67938232421875 223.4959259033203 199.9659881591797 213.02601623535156 184.6833953857422 234.23867797851562 C 168.89471435546875 240.72235107421875 176.4297637939453 242.73757934570312 195.91519165039062 223.6221923828125 C 165.50047302246094 152.3829345703125 165.4380340576172 242.0085906982422 147.72784423828125 179.60227966308594 C 220.31246948242188 181.55384826660156 195.4129638671875 173.18966674804688 211.28297424316406 194.69207763671875" stroke-width="0.0" fill="rgb(138, 59, 9)" opacity="0.9242476" stroke="rgb(130, 152, 131)" stroke-opacity="0.5733281" stroke-linecap="round" stroke-linejoin="round"/>
    <path d="M 110.0 166.0 C 109.33012390136719 168.5 107.5 170.3301239013672 105.0 171.0 C 102.5 170.3301239013672 100.66987609863281 168.5 100.0 166.0 C 100.66987609863281 163.5 102.5 161.6698760986328 105.0 161.0 C 107.5 161.6698760986328 109.33012390136719 163.5 110.0 166.0" stroke-width="0.0" fill="rgb(133, 213, 45)" opacity="1.0" stroke="rgb(119, 134, 227)" stroke-opacity="0.048663076" stroke-linecap="round" stroke-linejoin="round"/>
    <path d="M 360.0 381.0 C 359.33013916015625 383.5 357.5 385.33013916015625 355.0 386.0 C 352.5 385.33013916015625 350.66986083984375 383.5 350.0 381.0 C 350.66986083984375 378.5 352.5 376.66986083984375 355.0 376.0 C 357.5 376.66986083984375 359.33013916015625 378.5 360.0 381.0" stroke-width="0.0" fill="rgb(233, 14, 255)" opacity="1.0" stroke="rgb(110, 161, 35)" stroke-opacity="0.45054334" stroke-linecap="round" stroke-linejoin="round"/>
    <path d="M 382.0 302.0 C 381.33013916015625 304.5 379.5 306.33013916015625 377.0 307.0 C 374.5 306.33013916015625 372.66986083984375 304.5 372.0 302.0 C 372.66986083984375 299.5 374.5 297.66986083984375 377.0 297.0 C 379.5 297.66986083984375 381.33013916015625 299.5 382.0 302.0" stroke-width="0.0" fill="rgb(233, 14, 255)" opacity="1.0" stroke="rgb(53, 217, 221)" stroke-opacity="0.34084827" stroke-linecap="round" stroke-linejoin="round"/>
    <path d="M 309.0 437.0 C 308.33013916015625 439.5 306.5 441.33013916015625 304.0 442.0 C 301.5 441.33013916015625 299.66986083984375 439.5 299.0 437.0 C 299.66986083984375 434.5 301.5 432.66986083984375 304.0 432.0 C 306.5 432.66986083984375 308.33013916015625 434.5 309.0 437.0" stroke-width="0.0" fill="rgb(45, 157, 145)" opacity="1.0" stroke="rgb(179, 148, 208)" stroke-opacity="0.5729279" stroke-linecap="round" stroke-linejoin="round"/>
    <path d="M 421.0 404.0 C 420.33013916015625 406.5 418.5 408.33013916015625 416.0 409.0 C 413.5 408.33013916015625 411.66986083984375 406.5 411.0 404.0 C 411.66986083984375 401.5 413.5 399.66986083984375 416.0 399.0 C 418.5 399.66986083984375 420.33013916015625 401.5 421.0 404.0" stroke-width="0.0" fill="rgb(134, 142, 150)" opacity="1.0" stroke="rgb(118, 162, 64)" stroke-opacity="0.30664665" stroke-linecap="round" stroke-linejoin="round"/>
    <path d="M 290.0 288.0 C 289.33013916015625 290.5 287.5 292.33013916015625 285.0 293.0 C 282.5 292.33013916015625 280.66986083984375 290.5 280.0 288.0 C 280.66986083984375 285.5 282.5 283.66986083984375 285.0 283.0 C 287.5 283.66986083984375 289.33013916015625 285.5 290.0 288.0" stroke-width="0.0" fill="rgb(255, 195, 6)" opacity="1.0" stroke="rgb(99, 153, 213)" stroke-opacity="0.74221414" stroke-linecap="round" stroke-linejoin="round"/>
    <path d="M 342.0 302.0 C 341.33013916015625 304.5 339.5 306.33013916015625 337.0 307.0 C 334.5 306.33013916015625 332.66986083984375 304.5 332.0 302.0 C 332.66986083984375 299.5 334.5 297.66986083984375 337.0 297.0 C 339.5 297.66986083984375 341.33013916015625 299.5 342.0 302.0" stroke-width="0.0" fill="rgb(227, 229, 231)" opacity="1.0" stroke="rgb(57, 90, 253)" stroke-opacity="0.54495776" stroke-linecap="round" stroke-linejoin="round"/>
    <path d="M 224.0 216.0 C 223.3301239013672 218.5 221.5 220.3301239013672 219.0 221.0 C 216.5 220.3301239013672 214.6698760986328 218.5 214.0 216.0 C 214.6698760986328 213.5 216.5 211.6698760986328 219.0 211.0 C 221.5 211.6698760986328 223.3301239013672 213.5 224.0 216.0" stroke-width="0.0" fill="rgb(67, 73, 76)" opacity="1.0" stroke="rgb(90, 50, 49)" stroke-opacity="0.40506625" stroke-linecap="round" stroke-linejoin="round"/>
    <path d="M 409.0 388.0 C 408.33013916015625 390.5 406.5 392.33013916015625 404.0 393.0 C 401.5 392.33013916015625 399.66986083984375 390.5 399.0 388.0 C 399.66986083984375 385.5 401.5 383.66986083984375 404.0 383.0 C 406.5 383.66986083984375 408.33013916015625 385.5 409.0 388.0" stroke-width="0.0" fill="rgb(66, 71, 76)" opacity="1.0" stroke="rgb(163, 146, 201)" stroke-opacity="0.639837" stroke-linecap="round" stroke-linejoin="round"/>
    <path d="M 375.0 313.0 C 374.33013916015625 315.5 372.5 317.33013916015625 370.0 318.0 C 367.5 317.33013916015625 365.66986083984375 315.5 365.0 313.0 C 365.66986083984375 310.5 367.5 308.66986083984375 370.0 308.0 C 372.5 308.66986083984375 374.33013916015625 310.5 375.0 313.0" stroke-width="0.0" fill="rgb(183, 0, 202)" opacity="1.0" stroke="rgb(147, 139, 190)" stroke-opacity="0.37580872" stroke-linecap="round" stroke-linejoin="round"/>
    <path d="M 317.0 335.0 C 316.33013916015625 337.5 314.5 339.33013916015625 312.0 340.0 C 309.5 339.33013916015625 307.66986083984375 337.5 307.0 335.0 C 307.66986083984375 332.5 309.5 330.66986083984375 312.0 330.0 C 314.5 330.66986083984375 316.33013916015625 332.5 317.0 335.0" stroke-width="0.0" fill="rgb(66, 71, 76)" opacity="1.0" stroke="rgb(236, 240, 51)" stroke-opacity="0.44545847" stroke-linecap="round" stroke-linejoin="round"/>
    <path d="M 339.0 379.0 C 338.33013916015625 381.5 336.5 383.33013916015625 334.0 384.0 C 331.5 383.33013916015625 329.66986083984375 381.5 329.0 379.0 C 329.66986083984375 376.5 331.5 374.66986083984375 334.0 374.0 C 336.5 374.66986083984375 338.33013916015625 376.5 339.0 379.0" stroke-width="0.0" fill="rgb(182, 0, 201)" opacity="1.0" stroke="rgb(169, 175, 107)" stroke-opacity="0.7947773" stroke-linecap="round" stroke-linejoin="round"/>
    <path d="M 275.0 400.0 C 274.33013916015625 402.5 272.5 404.33013916015625 270.0 405.0 C 267.5 404.33013916015625 265.66986083984375 402.5 265.0 400.0 C 265.66986083984375 397.5 267.5 395.66986083984375 270.0 395.0 C 272.5 395.66986083984375 274.33013916015625 397.5 275.0 400.0" stroke-width="0.0" fill="rgb(71, 202, 188)" opacity="1.0" stroke="rgb(73, 6, 146)" stroke-opacity="0.0784281" stroke-linecap="round" stroke-linejoin="round"/>
    <path d="M 301.0 153.0 C 300.33013916015625 155.5 298.5 157.3301239013672 296.0 158.0 C 293.5 157.3301239013672 291.66986083984375 155.5 291.0 153.0 C 291.66986083984375 150.5 293.5 148.6698760986328 296.0 148.0 C 298.5 148.6698760986328 300.33013916015625 150.5 301.0 153.0" stroke-width="0.0" fill="rgb(202, 237, 165)" opacity="1.0" stroke="rgb(16, 166, 213)" stroke-opacity="0.32166207" stroke-linecap="round" stroke-linejoin="round"/>
    <path d="M 313.0 410.0 C 312.33013916015625 412.5 310.5 414.33013916015625 308.0 415.0 C 305.5 414.33013916015625 303.66986083984375 412.5 303.0 410.0 C 303.66986083984375 407.5 305.5 405.66986083984375 308.0 405.0 C 310.5 405.66986083984375 312.33013916015625 407.5 313.0 410.0" stroke-width="0.0" fill="rgb(53, 185, 171)" opacity="1.0" stroke="rgb(254, 54, 118)" stroke-opacity="0.0187721" stroke-linecap="round" stroke-linejoin="round"/>
    <path d="M 435.0 230.0 C 434.33013916015625 232.5 432.5 234.3301239013672 430.0 235.0 C 427.5 234.3301239013672 425.66986083984375 232.5 425.0 230.0 C 425.66986083984375 227.5 427.5 225.6698760986328 430.0 225.0 C 432.5 225.6698760986328 434.33013916015625 227.5 435.0 230.0" stroke-width="0.0" fill="rgb(244, 249, 251)" opacity="1.0" stroke="rgb(31, 27, 170)" stroke-opacity="0.58370876" stroke-linecap="round" stroke-linejoin="round"/>
  </g>
</svg>
