<?xml version="1.0" ?>
<svg xmlns="http://www.w3.org/2000/svg" version="1.1" width="512" height="512">
  <defs/>
  <g>
    <path d="M 0.0 0.0 L 0.0 511.0 L 511.0 511.0 L 511.0 0.0 L 0.0 0.0" stroke-width="2.0" fill="rgb(235, 226, 203)" opacity="1.0" stroke="rgb(0, 0, 0)" stroke-opacity="0.0" stroke-linecap="round" stroke-linejoin="round"/>
    <path d="M 255.0 54.0 L 246.0 60.0 L 119.0 188.0 C 118.52517700195312 191.39523315429688 118.9966812133789 196.1074981689453 123.0 198.0 C 127.66666412353516 200.70654296875 132.3333282470703 191.96180725097656 137.0 195.0 L 138.0 435.0 L 372.0 436.0 C 376.19219970703125 355.6666564941406 372.98876953125 275.3333435058594 374.0 195.0 L 376.0 193.0 C 381.5847473144531 200.03945922851562 393.5096435546875 199.5463104248047 393.0 190.0 L 265.0 60.0 L 255.0 54.0" stroke-width="2.0" fill="rgb(211, 182, 122)" opacity="1.0" stroke="rgb(0, 0, 0)" stroke-opacity="0.0" stroke-linecap="round" stroke-linejoin="round"/>
    <path d="M 176.0 229.0 L 176.0 294.0 C 174.5462188720703 298.406494140625 170.880615234375 296.7093505859375 168.0 297.0 L 168.0 303.0 L 343.0 303.0 C 344.14251708984375 297.5322570800781 342.14251708984375 296.7105407714844 337.0 296.0 L 335.0 290.0 L 335.0 229.0 L 176.0 229.0" stroke-width="2.0" fill="rgb(72, 155, 202)" opacity="1.0" stroke="rgb(0, 0, 0)" stroke-opacity="0.0" stroke-linecap="round" stroke-linejoin="round"/>
    <path d="M 458.0 441.0 C 456.8393249511719 437.8546447753906 455.3190002441406 438.570068359375 453.0 437.0 C 320.3333435058594 439.63079833984375 187.6666717529297 437.1305236816406 55.0 438.0 C 52.52716827392578 444.3333435058594 54.134281158447266 450.6666564941406 54.0 457.0 L 454.0 458.0 C 461.0063171386719 455.8512878417969 456.89910888671875 447.2454528808594 458.0 441.0" stroke-width="2.0" fill="rgb(139, 192, 91)" opacity="1.0" stroke="rgb(0, 0, 0)" stroke-opacity="0.0" stroke-linecap="round" stroke-linejoin="round"/>
    <path d="M 219.0 356.0 L 218.0 435.0 L 293.0 436.0 L 293.0 357.0 L 219.0 356.0" stroke-width="2.0" fill="rgb(102, 101, 100)" opacity="1.0" stroke="rgb(0, 0, 0)" stroke-opacity="0.0" stroke-linecap="round" stroke-linejoin="round"/>
    <path d="M 118.0 189.0 C 115.63741302490234 196.15382385253906 125.25055694580078 202.1920928955078 131.0 197.0 L 254.0 74.0 L 257.0 74.0 L 376.0 193.0 C 381.6666564941406 197.5076446533203 387.3333435058594 202.37933349609375 393.0 195.0 L 392.0 187.0 L 258.0 54.0 L 251.0 55.0 L 118.0 189.0" stroke-width="2.0" fill="rgb(233, 114, 96)" opacity="1.0" stroke="rgb(0, 0, 0)" stroke-opacity="0.0" stroke-linecap="round" stroke-linejoin="round"/>
    <path d="M 399.0 350.0 L 390.0 361.0 C 389.6539001464844 375.0 391.2426452636719 389.0 388.0 403.0 C 383.32281494140625 406.0569152832031 386.60400390625 398.66259765625 385.0 397.0 L 376.0 398.0 L 376.0 416.0 C 380.6666564941406 417.0467224121094 385.3333435058594 413.73162841796875 390.0 418.0 L 390.0 436.0 C 397.0 436.7195129394531 404.0 438.0857238769531 411.0 435.0 L 412.0 417.0 L 423.0 418.0 L 424.0 436.0 L 444.0 436.0 L 444.0 419.0 C 448.3333435058594 414.4196472167969 452.6666564941406 418.9234924316406 457.0 416.0 C 458.4461975097656 409.6666564941406 459.1959228515625 403.3333435058594 456.0 397.0 L 445.0 396.0 L 443.0 359.0 C 437.9331359863281 354.926513671875 434.7187194824219 344.9488220214844 429.0 353.0 C 417.95440673828125 367.3333435058594 424.9610900878906 381.6666564941406 423.0 396.0 L 413.0 397.0 C 408.4044494628906 385.3333435058594 412.2807922363281 373.6666564941406 411.0 362.0 C 408.5452575683594 358.02996826171875 404.30975341796875 350.9233093261719 399.0 350.0" stroke-width="2.0" fill="rgb(185, 139, 94)" opacity="1.0" stroke="rgb(0, 0, 0)" stroke-opacity="0.0" stroke-linecap="round" stroke-linejoin="round"/>
    <path d="M 77.0 350.0 L 67.0 362.0 L 67.0 396.0 C 62.66666793823242 399.9534912109375 58.33333206176758 393.7720031738281 54.0 399.0 L 54.0 414.0 C 56.69837188720703 419.3150939941406 62.73817443847656 412.6849060058594 67.0 418.0 C 68.18278503417969 424.1382141113281 64.53968811035156 432.4767761230469 69.0 437.0 L 88.0 436.0 C 88.9435043334961 429.6666564941406 85.88400268554688 423.3333435058594 90.0 417.0 C 93.66666412353516 417.89862060546875 97.33333587646484 414.9456481933594 101.0 419.0 L 101.0 436.0 L 120.0 437.0 L 122.0 418.0 C 126.33333587646484 414.8180236816406 130.6666717529297 417.5264892578125 135.0 415.0 L 135.0 398.0 C 130.29563903808594 394.56805419921875 122.66720581054688 400.7288818359375 121.0 393.0 L 121.0 361.0 L 111.0 350.0 C 106.55301666259766 351.7115783691406 103.7107925415039 357.6332702636719 101.0 361.0 L 101.0 395.0 C 97.33333587646484 399.0543518066406 93.66666412353516 396.10137939453125 90.0 397.0 C 85.40068054199219 385.0 89.28355407714844 373.0 88.0 361.0 L 77.0 350.0" stroke-width="2.0" fill="rgb(184, 139, 94)" opacity="1.0" stroke="rgb(0, 0, 0)" stroke-opacity="0.0" stroke-linecap="round" stroke-linejoin="round"/>
    <path d="M 260.0 238.0 L 260.0 295.0 L 328.0 296.0 C 329.02667236328125 276.0 330.9237060546875 256.0 327.0 236.0 L 260.0 238.0" stroke-width="2.0" fill="rgb(61, 179, 245)" opacity="1.0" stroke="rgb(0, 0, 0)" stroke-opacity="0.0" stroke-linecap="round" stroke-linejoin="round"/>
    <path d="M 183.0 237.0 L 184.0 296.0 L 251.0 295.0 L 251.0 237.0 L 183.0 237.0" stroke-width="2.0" fill="rgb(60, 180, 246)" opacity="1.0" stroke="rgb(0, 0, 0)" stroke-opacity="0.0" stroke-linecap="round" stroke-linejoin="round"/>
    <path d="M 255.0 126.0 C 244.5280303955078 126.04112243652344 229.10487365722656 136.5150909423828 227.0 149.0 C 223.6146240234375 161.7431640625 233.92782592773438 181.1908416748047 250.0 184.0 C 262.213134765625 186.8892059326172 280.3296813964844 177.4164276123047 284.0 162.0 C 286.33807373046875 150.34262084960938 280.9898986816406 133.79391479492188 266.0 128.0 L 255.0 126.0" stroke-width="2.0" fill="rgb(254, 252, 245)" opacity="1.0" stroke="rgb(0, 0, 0)" stroke-opacity="0.0" stroke-linecap="round" stroke-linejoin="round"/>
    <path d="M 432.0 350.0 L 423.0 362.0 L 423.0 435.0 L 444.0 436.0 L 444.0 361.0 C 440.9104919433594 357.6736145019531 436.890625 350.12188720703125 432.0 350.0" stroke-width="2.0" fill="rgb(189, 142, 96)" opacity="1.0" stroke="rgb(0, 0, 0)" stroke-opacity="0.0" stroke-linecap="round" stroke-linejoin="round"/>
    <path d="M 400.0 350.0 L 390.0 361.0 L 390.0 436.0 L 407.0 437.0 C 410.1453552246094 435.429931640625 409.429931640625 436.1453552246094 411.0 433.0 L 411.0 363.0 C 409.2048034667969 358.7381896972656 405.12762451171875 352.6983642578125 400.0 350.0" stroke-width="2.0" fill="rgb(189, 142, 96)" opacity="1.0" stroke="rgb(0, 0, 0)" stroke-opacity="0.0" stroke-linecap="round" stroke-linejoin="round"/>
    <path d="M 77.0 350.0 L 67.0 361.0 L 67.0 436.0 L 88.0 436.0 L 88.0 361.0 L 77.0 350.0" stroke-width="2.0" fill="rgb(189, 142, 97)" opacity="1.0" stroke="rgb(0, 0, 0)" stroke-opacity="0.0" stroke-linecap="round" stroke-linejoin="round"/>
    <path d="M 110.0 350.0 L 101.0 361.0 L 101.0 436.0 L 121.0 436.0 L 121.0 360.0 L 110.0 350.0" stroke-width="2.0" fill="rgb(189, 142, 96)" opacity="1.0" stroke="rgb(0, 0, 0)" stroke-opacity="0.0" stroke-linecap="round" stroke-linejoin="round"/>
    <path d="M 123.0 397.0 L 123.0 416.0 L 135.0 417.0 L 136.0 398.0 L 123.0 397.0" stroke-width="2.0" fill="rgb(165, 126, 83)" opacity="1.0" stroke="rgb(0, 0, 0)" stroke-opacity="0.0" stroke-linecap="round" stroke-linejoin="round"/>
    <path d="M 54.0 397.0 L 54.0 416.0 L 65.0 417.0 L 66.0 397.0 L 54.0 397.0" stroke-width="2.0" fill="rgb(165, 129, 90)" opacity="1.0" stroke="rgb(0, 0, 0)" stroke-opacity="0.0" stroke-linecap="round" stroke-linejoin="round"/>
  </g>
</svg>
