<?xml version="1.0" ?>
<svg xmlns="http://www.w3.org/2000/svg" version="1.1" width="512" height="512">
  <defs/>
  <g>
    <path d="M 0.0 0.0 L 0.0 511.0 L 511.0 511.0 L 511.0 0.0 L 0.0 0.0" stroke-width="2.0" fill="rgb(235, 226, 203)" opacity="1.0" stroke="rgb(0, 0, 0)" stroke-opacity="0.0" stroke-linecap="round" stroke-linejoin="round"/>
    <path d="M 255.0 54.0 L 246.0 60.0 L 119.0 188.0 C 118.52517700195312 191.39523315429688 118.9966812133789 196.1074981689453 123.0 198.0 C 127.66666412353516 200.70654296875 132.3333282470703 191.96180725097656 137.0 195.0 L 138.0 435.0 L 372.0 436.0 C 376.19219970703125 355.6666564941406 372.98876953125 275.3333435058594 374.0 195.0 L 376.0 193.0 C 381.5847473144531 200.03945922851562 393.5096435546875 199.5463104248047 393.0 190.0 L 265.0 60.0 L 255.0 54.0" stroke-width="2.0" fill="rgb(211, 182, 122)" opacity="1.0" stroke="rgb(0, 0, 0)" stroke-opacity="0.0" stroke-linecap="round" stroke-linejoin="round"/>
    <path d="M 176.0 229.0 L 176.0 294.0 C 174.5462188720703 298.406494140625 170.880615234375 296.7093505859375 168.0 297.0 L 168.0 303.0 L 343.0 303.0 C 344.14251708984375 297.5322570800781 342.14251708984375 296.7105407714844 337.0 296.0 L 335.0 290.0 L 335.0 229.0 L 176.0 229.0" stroke-width="2.0" fill="rgb(72, 155, 202)" opacity="1.0" stroke="rgb(0, 0, 0)" stroke-opacity="0.0" stroke-linecap="round" stroke-linejoin="round"/>
  </g>
</svg>
