<?xml version="1.0" ?>
<svg xmlns="http://www.w3.org/2000/svg" version="1.1" width="512" height="512">
  <defs/>
  <g>
    <path d="M 266.51226806640625 156.4227752685547 C 129.16778564453125 97.8199691772461 220.95452880859375 151.2030487060547 177.87350463867188 304.36077880859375 C 43.06810760498047 344.3617858886719 87.4999771118164 325.16558837890625 98.77529907226562 244.90834045410156 C 129.6043243408203 122.35807037353516 112.16548919677734 62.17827224731445 192.61083984375 10.241400718688965 C 330.8998107910156 -18.605445861816406 367.5326232910156 53.530696868896484 266.51226806640625 156.4227752685547" stroke-width="0.0" fill="rgb(38, 31, 34)" opacity="0.9842113" stroke="rgb(192, 124, 32)" stroke-opacity="0.47683924" stroke-linecap="round" stroke-linejoin="round"/>
    <path d="M 437.0 438.0 C 436.33013916015625 440.5 434.5 442.33013916015625 432.0 443.0 C 429.5 442.33013916015625 427.66986083984375 440.5 427.0 438.0 C 427.66986083984375 435.5 429.5 433.66986083984375 432.0 433.0 C 434.5 433.66986083984375 436.33013916015625 435.5 437.0 438.0" stroke-width="0.0" fill="rgb(232, 220, 208)" opacity="1.0" stroke="rgb(102, 76, 106)" stroke-opacity="0.6106337" stroke-linecap="round" stroke-linejoin="round"/>
    <path d="M 96.0 25.0 C 95.33012390136719 27.5 93.5 29.330127716064453 91.0 30.0 C 88.5 29.330127716064453 86.66987609863281 27.5 86.0 25.0 C 86.66987609863281 22.5 88.5 20.669872283935547 91.0 20.0 C 93.5 20.669872283935547 95.33012390136719 22.5 96.0 25.0" stroke-width="0.0" fill="rgb(207, 188, 171)" opacity="1.0" stroke="rgb(161, 134, 119)" stroke-opacity="0.4226593" stroke-linecap="round" stroke-linejoin="round"/>
  </g>
</svg>
