<?xml version="1.0" ?>
<svg xmlns="http://www.w3.org/2000/svg" version="1.1" width="512" height="512">
  <defs/>
  <g>
    <path d="M -7.798445224761963 -7.858633518218994 L 512.0123291015625 -7.821953296661377 L 512.0 512.0 L -7.810463905334473 512.010498046875 L -7.798445224761963 -7.858633518218994" stroke-width="0.0" fill="rgb(246, 229, 202)" opacity="2.3488085" stroke="rgb(0, 0, 0)" stroke-opacity="0.0" stroke-linecap="round" stroke-linejoin="round"/>
    <path d="M 14.528194427490234 13.500247955322266 C 14.392224311828613 175.4208221435547 14.635634422302246 337.2099609375 14.463493347167969 498.8175048828125 C 175.53253173828125 498.8581848144531 338.7359313964844 498.8198547363281 497.7833251953125 496.07244873046875 L 497.5296936035156 12.908977508544922 L 14.528194427490234 13.500247955322266" stroke-width="2.0" fill="rgb(232, 218, 193)" opacity="1.6598424" stroke="rgb(0, 0, 0)" stroke-opacity="0.0" stroke-linecap="round" stroke-linejoin="round"/>
    <path d="M 404.1028137207031 230.6985626220703 C 364.3201599121094 229.8774871826172 329.0853271484375 216.4297332763672 240.05810546875 220.2952117919922 C 319.4925537109375 201.21543884277344 331.8314514160156 232.4981231689453 329.46258544921875 200.42066955566406 C 326.3730163574219 174.06028747558594 316.2013854980469 148.66775512695312 289.7756652832031 133.88888549804688 C 270.8663024902344 122.8643569946289 253.8917694091797 129.09207153320312 255.97572326660156 112.77919006347656 C 258.60528564453125 135.2069854736328 234.8193359375 122.92396545410156 225.7737274169922 136.057373046875 C 200.91912841796875 158.7969207763672 187.78628540039062 194.00808715820312 188.54542541503906 221.4813232421875 C 160.57403564453125 230.63783264160156 137.702392578125 220.53701782226562 110.52320861816406 228.7404022216797 C 125.14453125 261.87176513671875 121.90087890625 294.5411682128906 112.51734161376953 341.6285705566406 C 156.83338928222656 358.8189697265625 185.78628540039062 351.5619812011719 193.43197631835938 389.1602783203125 C 237.6378173828125 395.4013977050781 260.36767578125 395.74517822265625 337.4469909667969 400.1993103027344 C 369.9658203125 396.17059326171875 398.57550048828125 386.3048400878906 423.646240234375 384.555908203125 C 392.90350341796875 328.1238098144531 393.1769104003906 325.833740234375 403.98150634765625 325.6425476074219 L 398.25274658203125 233.63726806640625 L 404.1028137207031 230.6985626220703" stroke-width="2.0" fill="rgb(381, 277, 166)" opacity="0.14618087" stroke="rgb(0, 0, 0)" stroke-opacity="0.0" stroke-linecap="round" stroke-linejoin="round"/>
    <path d="M 44.72955322265625 45.91069412231445 L 44.812469482421875 86.59210968017578 C 66.46980285644531 89.2380142211914 96.20307922363281 89.96724700927734 96.78751373291016 120.82335662841797 C 103.37736511230469 128.23504638671875 114.31887817382812 122.55633544921875 121.59085083007812 132.22120666503906 C 127.3048324584961 140.30210876464844 111.05633544921875 149.52342224121094 128.57208251953125 154.8609161376953 C 143.5040283203125 157.6723175048828 166.27330017089844 152.44749450683594 142.4376220703125 143.7715301513672 C 158.41299438476562 134.3612060546875 187.4105682373047 137.0203399658203 207.16009521484375 154.83482360839844 C 224.8904266357422 137.63665771484375 236.86387634277344 129.9768524169922 253.42254638671875 125.01303100585938 C 250.4401092529297 110.63277435302734 260.3164978027344 113.07791900634766 254.20022583007812 105.23758697509766 C 256.4369201660156 96.86553955078125 260.2857360839844 98.92982482910156 257.3018493652344 111.79334259033203 C 265.88604736328125 120.09742736816406 253.98768615722656 114.3616943359375 259.6531982421875 124.5447006225586 C 290.40673828125 125.25785064697266 321.96453857421875 150.36729431152344 328.87066650390625 187.6927032470703 C 338.249267578125 178.89349365234375 351.0406494140625 178.39044189453125 361.23785400390625 176.2589111328125 C 373.8155822753906 181.624755859375 402.64459228515625 187.41720581054688 410.5881042480469 171.36929321289062 C 426.2496032714844 147.7628631591797 446.20819091796875 158.1976318359375 467.4595642089844 144.1017608642578 L 467.3212890625 47.894779205322266 L 392.41900634765625 31.363067626953125 L 47.14478302001953 46.81489944458008 L 44.72955322265625 45.91069412231445" stroke-width="2.0" fill="rgb(64, 149, 186)" opacity="3.870442" stroke="rgb(0, 0, 0)" stroke-opacity="0.0" stroke-linecap="round" stroke-linejoin="round"/>
    <path d="M 32.941978454589844 32.82161331176758 C 32.331172943115234 130.52976989746094 33.51792907714844 184.08163452148438 32.98988723754883 479.63519287109375 C 141.24693298339844 392.9339599609375 40.09834289550781 277.7097473144531 56.85612487792969 283.98529052734375 C 58.26268005371094 258.2900695800781 59.179264068603516 226.59901428222656 68.91085052490234 242.9280242919922 L 77.6586685180664 271.2156982421875 C 88.42195892333984 254.4143829345703 94.35907745361328 280.7579040527344 97.18852996826172 287.4865417480469 C 105.0175552368164 284.2761535644531 109.44987487792969 278.0072937011719 117.06178283691406 275.9112854003906 C 115.23365783691406 259.3946228027344 120.26923370361328 242.0792694091797 112.87948608398438 225.08230590820312 C 137.52098083496094 222.83621215820312 159.9397430419922 229.05052185058594 187.3060760498047 222.0753173828125 C 195.7912139892578 209.49351501464844 185.8459930419922 199.96170043945312 198.4658660888672 206.0452880859375 C 194.36288452148438 177.90769958496094 190.7708282470703 163.38833618164062 196.40321350097656 145.24520874023438 C 186.71694946289062 135.1451873779297 158.07315063476562 135.81491088867188 143.22825622558594 147.32876586914062 C 171.4560089111328 149.62367248535156 130.99391174316406 163.81915283203125 120.59513854980469 151.3636474609375 C 119.89614868164062 139.96792602539062 131.98065185546875 130.64686584472656 104.49617004394531 125.8156509399414 C 89.09297943115234 126.45509338378906 108.15298461914062 108.84210205078125 83.10287475585938 87.00577545166016 C 184.44874572753906 29.904966354370117 334.8257141113281 30.795772552490234 32.941978454589844 32.82161331176758" stroke-width="2.0" fill="rgb(500, 294, 126)" opacity="0.08007808" stroke="rgb(0, 0, 0)" stroke-opacity="0.0" stroke-linecap="round" stroke-linejoin="round"/>
    <path d="M 45.31352233886719 85.33470153808594 L 45.324275970458984 194.43125915527344 C 58.909610748291016 192.9733123779297 79.27761840820312 188.13084411621094 75.75289916992188 211.2331085205078 C 83.73066711425781 203.8764190673828 88.49644470214844 204.71800231933594 90.96582794189453 218.00518798828125 C 92.32337188720703 187.3918914794922 94.25855255126953 159.08641052246094 101.94896697998047 141.9556427001953 C 113.03736877441406 173.58547973632812 102.43511962890625 187.12147521972656 111.94833374023438 212.35348510742188 C 128.97744750976562 218.49090576171875 143.64817810058594 194.57620239257812 135.00843811035156 222.91868591308594 C 151.1935577392578 221.0397186279297 167.3130340576172 218.9298095703125 182.7240447998047 217.41737365722656 C 176.502197265625 188.79571533203125 192.17401123046875 183.3983612060547 205.51702880859375 154.04920959472656 C 192.10781860351562 133.7578125 141.0990447998047 134.2638702392578 143.2052001953125 145.75189208984375 C 166.97802734375 152.47271728515625 135.2838897705078 157.49366760253906 127.28531646728516 153.29318237304688 C 111.1604232788086 147.70333862304688 133.03489685058594 138.65322875976562 118.97537231445312 127.925048828125 C 98.92669677734375 119.34211730957031 99.61041259765625 129.42544555664062 96.23896026611328 111.01563262939453 C 89.0716781616211 86.79293823242188 60.76931381225586 88.9015121459961 45.31352233886719 85.33470153808594" stroke-width="2.0" fill="rgb(250, 234, 206)" opacity="0.8108519" stroke="rgb(0, 0, 0)" stroke-opacity="0.0" stroke-linecap="round" stroke-linejoin="round"/>
    <path d="M 208.92196655273438 186.78707885742188 C 189.6811065673828 231.9987335205078 156.32644653320312 212.96896362304688 119.4325180053711 226.6307373046875 C 115.13851928710938 260.12200927734375 122.3958511352539 294.57562255859375 116.06536865234375 326.8822021484375 C 148.8289031982422 335.2118835449219 178.56878662109375 344.0040588378906 209.26095581054688 352.5558166503906 L 208.92196655273438 186.78707885742188" stroke-width="2.0" fill="rgb(177, 46, 16)" opacity="0.1687392" stroke="rgb(0, 0, 0)" stroke-opacity="0.0" stroke-linecap="round" stroke-linejoin="round"/>
    <path d="M 331.7515563964844 198.77743530273438 C 327.91436767578125 186.78126525878906 328.14013671875 176.53981018066406 320.57147216796875 162.78028869628906 C 306.6098937988281 139.87660217285156 278.9654235839844 119.57034301757812 255.1086883544922 127.14424896240234 C 256.9496765136719 112.35450744628906 251.5259246826172 112.00203704833984 253.7621307373047 124.1490249633789 C 230.2339630126953 126.22470092773438 202.48995971679688 143.3267364501953 194.6676025390625 171.0573272705078 C 187.08383178710938 180.1254119873047 185.89846801757812 192.0325927734375 206.614990234375 187.89588928222656 L 209.11863708496094 219.71421813964844 C 239.18731689453125 223.91783142089844 276.0390319824219 210.46202087402344 405.8255615234375 233.3885040283203 C 356.7443542480469 190.77479553222656 326.9122619628906 205.16632080078125 331.7515563964844 198.77743530273438" stroke-width="2.0" fill="rgb(222, 445, 564)" opacity="0.036759347" stroke="rgb(0, 0, 0)" stroke-opacity="0.0" stroke-linecap="round" stroke-linejoin="round"/>
    <path d="M 449.27618408203125 176.016845703125 C 434.130615234375 194.0689697265625 436.6767578125 195.79518127441406 433.083984375 202.45379638671875 C 418.777099609375 205.15020751953125 396.8689880371094 193.38909912109375 387.9519958496094 211.5154571533203 C 382.5660095214844 213.3844451904297 375.0055236816406 211.1497802734375 375.6256408691406 220.86849975585938 C 382.8977355957031 225.7836151123047 389.476806640625 222.3295135498047 399.07421875 224.27899169921875 C 389.8155822753906 253.48956298828125 401.3621520996094 286.19842529296875 392.1058044433594 321.3067932128906 C 416.1875915527344 326.64617919921875 438.2352294921875 336.98614501953125 478.5647277832031 351.207275390625 C 479.22540283203125 286.82928466796875 478.00531005859375 238.71563720703125 479.4007873535156 34.52262496948242 C 330.7039489746094 7.955119609832764 530.2371826171875 152.1189422607422 430.6986389160156 193.8795623779297 L 449.27618408203125 176.016845703125" stroke-width="2.0" fill="rgb(409, 258, 123)" opacity="0.12015836" stroke="rgb(0, 0, 0)" stroke-opacity="0.0" stroke-linecap="round" stroke-linejoin="round"/>
    <path d="M 446.69134521484375 387.9692077636719 L 423.4675598144531 294.4714050292969 C 248.91989135742188 430.7651672363281 94.52190399169922 316.0252685546875 51.88523864746094 469.9468078613281 L 40.66943359375 466.3368225097656 L 220.33262634277344 466.2641906738281 C 261.734619140625 440.877197265625 339.5511779785156 432.10601806640625 380.7421875 432.19439697265625 C 377.5185241699219 421.06280517578125 415.2026672363281 442.352783203125 446.69134521484375 387.9692077636719" stroke-width="2.0" fill="rgb(237, 223, 193)" opacity="1.2561055" stroke="rgb(0, 0, 0)" stroke-opacity="0.0" stroke-linecap="round" stroke-linejoin="round"/>
    <path d="M 45.52372360229492 221.27589416503906 L 45.4244270324707 465.9718017578125 C 54.889930725097656 466.38140869140625 71.81898498535156 466.0617370605469 82.69811248779297 466.2703857421875 C 88.4149169921875 430.85040283203125 95.80870819091797 411.3956298828125 75.45934295654297 376.9980163574219 C 79.1633071899414 355.726318359375 74.28218841552734 319.2080993652344 61.791595458984375 300.286865234375 C 80.08061218261719 298.1923522949219 99.25839233398438 299.2718200683594 122.68828582763672 300.1727294921875 C 126.71659088134766 292.7016906738281 118.8132553100586 283.8930969238281 124.4715576171875 280.38067626953125 C 109.31144714355469 279.87579345703125 104.11408996582031 292.2760925292969 93.38280487060547 295.00921630859375 C 93.73403930664062 285.26190185546875 91.78472900390625 259.80267333984375 80.20105743408203 271.73907470703125 L 77.93102264404297 290.1409912109375 C 76.20015716552734 267.14886474609375 72.34037017822266 253.8361053466797 67.9338150024414 235.84414672851562 C 61.90910720825195 247.1001434326172 59.50472640991211 263.5390319824219 57.183372497558594 276.7900085449219 L 45.52372360229492 221.27589416503906" stroke-width="2.0" fill="rgb(25, 58, 75)" opacity="1.01" stroke="rgb(0, 0, 0)" stroke-opacity="0.0" stroke-linecap="round" stroke-linejoin="round"/>
    <path d="M -4.14343786239624 518.70849609375 L 509.993408203125 518.9398193359375 C 509.8698425292969 506.3488464355469 514.0145874023438 500.029296875 510.2808837890625 496.65814208984375 L 16.199840545654297 497.49566650390625 C 10.465091705322266 496.9807434082031 9.592915534973145 491.0126953125 6.864567756652832 482.92108154296875 C -7.893202781677246 482.096435546875 -4.648021221160889 499.4764709472656 -4.14343786239624 518.70849609375" stroke-width="2.0" fill="rgb(251, 236, 210)" opacity="0.5497435" stroke="rgb(0, 0, 0)" stroke-opacity="0.0" stroke-linecap="round" stroke-linejoin="round"/>
    <path d="M 463.3022155761719 359.9006652832031 C 437.2470703125 373.4348449707031 440.6785888671875 404.6745910644531 441.8501892089844 428.34210205078125 L 410.3354187011719 429.81427001953125 C 412.30902099609375 407.97808837890625 411.7324523925781 390.18304443359375 407.9017639160156 374.2014465332031 C 407.4849853515625 370.05767822265625 404.072265625 362.7784729003906 402.3695068359375 371.61236572265625 C 399.01641845703125 384.89337158203125 397.8376770019531 409.9848937988281 401.5008239746094 424.5789794921875 L 374.7711181640625 425.1307373046875 L 374.6058654785156 465.985107421875 L 469.243408203125 466.1361999511719 L 463.3022155761719 359.9006652832031" stroke-width="2.0" fill="rgb(12, 52, 76)" opacity="1.0850152" stroke="rgb(0, 0, 0)" stroke-opacity="0.0" stroke-linecap="round" stroke-linejoin="round"/>
    <path d="M 87.32806396484375 148.79135131835938 C 78.73147583007812 174.46141052246094 108.49241638183594 200.77774047851562 92.3710708618164 195.0766143798828 C 85.06346893310547 220.7189178466797 85.73826599121094 208.2635498046875 83.74356842041016 206.71473693847656 C 76.81388092041016 218.39260864257812 84.53008270263672 195.05130004882812 75.01398468017578 190.92153930664062 C 61.484310150146484 193.94677734375 43.76226806640625 184.5592041015625 46.04496765136719 203.3616943359375 C 40.47648239135742 220.91224670410156 48.549293518066406 239.78811645507812 59.00651168823242 261.4289855957031 C 60.320091247558594 255.62318420410156 63.77592086791992 228.14566040039062 73.32242584228516 243.271728515625 L 75.56209564208984 272.29833984375 C 78.90483093261719 271.90625 82.48556518554688 263.25787353515625 91.45176696777344 267.7529296875 C 90.71472930908203 274.8935241699219 94.82400512695312 280.75592041015625 95.61624908447266 292.3163757324219 C 103.75816345214844 287.7446594238281 109.31672668457031 280.2649230957031 118.67108917236328 279.0283203125 C 117.61997985839844 256.85394287109375 120.60834503173828 237.92330932617188 114.56201171875 225.87472534179688 C 128.4497833251953 221.70022583007812 149.3286590576172 227.2650604248047 136.25857543945312 206.9796600341797 C 124.53877258300781 213.3430633544922 117.78630065917969 217.13314819335938 125.62076568603516 201.0406494140625 C 100.45336151123047 188.34762573242188 95.74464416503906 173.08363342285156 87.32806396484375 148.79135131835938" stroke-width="2.0" fill="rgb(251, 231, 196)" opacity="0.64966744" stroke="rgb(0, 0, 0)" stroke-opacity="0.0" stroke-linecap="round" stroke-linejoin="round"/>
    <path d="M 232.58096313476562 139.634521484375 C 227.63343811035156 160.61447143554688 190.45028686523438 163.82540893554688 195.60769653320312 216.82164001464844 C 220.39979553222656 180.09898376464844 290.6483154296875 192.0001220703125 328.5270690917969 200.2579803466797 C 334.194091796875 201.95965576171875 338.30426025390625 193.37351989746094 322.57305908203125 191.304931640625 C 319.2221374511719 161.15249633789062 291.1427917480469 123.490966796875 257.83514404296875 126.32695007324219 C 255.84193420410156 117.57772827148438 235.7487335205078 130.1359100341797 232.58096313476562 139.634521484375" stroke-width="2.0" fill="rgb(248, 167, 70)" opacity="0.62793344" stroke="rgb(0, 0, 0)" stroke-opacity="0.0" stroke-linecap="round" stroke-linejoin="round"/>
    <path d="M 466.0501708984375 139.21072387695312 C 478.33367919921875 151.6903076171875 398.8023376464844 136.37939453125 401.8353271484375 173.48977661132812 C 389.9842834472656 173.43328857421875 371.0850524902344 175.2185516357422 360.1698913574219 175.93991088867188 C 365.361328125 193.37867736816406 357.3837890625 225.3630828857422 365.8193359375 221.19921875 C 383.673095703125 226.84837341308594 392.48675537109375 212.5698699951172 394.50067138671875 203.961181640625 C 405.3914794921875 201.34764099121094 446.76202392578125 209.0259246826172 438.57623291015625 209.43568420410156 C 434.7366943359375 187.57208251953125 445.4771423339844 180.04454040527344 442.09503173828125 180.64622497558594 C 449.84332275390625 197.85853576660156 432.20025634765625 199.756591796875 466.78521728515625 199.7204132080078 C 466.3302917480469 145.75653076171875 467.22247314453125 135.1082763671875 466.0501708984375 139.21072387695312" stroke-width="2.0" fill="rgb(250, 231, 200)" opacity="0.99148273" stroke="rgb(0, 0, 0)" stroke-opacity="0.0" stroke-linecap="round" stroke-linejoin="round"/>
    <path d="M 392.6355895996094 419.28814697265625 C 299.8271484375 465.5471496582031 262.67962646484375 380.4515075683594 26.519546508789062 478.4056396484375 L 482.20074462890625 478.1256408691406 L 392.6355895996094 419.28814697265625" stroke-width="2.0" fill="rgb(695, 349, 112)" opacity="0.047240444" stroke="rgb(0, 0, 0)" stroke-opacity="0.0" stroke-linecap="round" stroke-linejoin="round"/>
    <path d="M 449.2690734863281 217.64553833007812 C 445.21240234375 232.5349578857422 448.4884033203125 260.59539794921875 447.3674621582031 256.1330261230469 C 435.07952880859375 268.5025329589844 443.11138916015625 260.7491149902344 436.456787109375 233.71702575683594 C 433.7424011230469 225.44764709472656 430.7139587402344 251.50196838378906 431.7388610839844 257.1477355957031 C 415.2001647949219 252.1147003173828 411.4074401855469 258.3976135253906 407.9496154785156 278.0995178222656 L 393.3026428222656 260.94940185546875 L 393.1594543457031 319.4156188964844 L 434.7854309082031 325.6435546875 C 428.42974853515625 295.0718688964844 427.0937805175781 282.80560302734375 418.32470703125 281.78631591796875 L 444.7713928222656 280.1493225097656 C 442.02587890625 297.7066955566406 444.054931640625 293.27923583984375 466.5932312011719 293.97991943359375 L 466.60626220703125 235.2943115234375 C 464.7646484375 234.58482360839844 455.5186767578125 246.82150268554688 456.1100769042969 245.6632537841797 C 455.7505798339844 235.1717987060547 452.5525207519531 209.96664428710938 449.2690734863281 217.64553833007812" stroke-width="2.0" fill="rgb(30, 58, 71)" opacity="1.0129542" stroke="rgb(0, 0, 0)" stroke-opacity="0.0" stroke-linecap="round" stroke-linejoin="round"/>
    <path d="M 47.51554489135742 193.30075073242188 C 35.12185287475586 238.07757568359375 51.70124435424805 231.79177856445312 56.67717742919922 275.9020080566406 C 60.4201545715332 257.7543029785156 60.60666275024414 232.26963806152344 71.23780822753906 242.66343688964844 L 76.21951293945312 286.7095947265625 C 77.02043914794922 265.70831298828125 86.6530532836914 259.50042724609375 98.73066711425781 280.6610107421875 C 103.32389068603516 252.62863159179688 98.1166763305664 232.878662109375 95.75371551513672 212.60484313964844 C 79.8602294921875 214.2878875732422 87.01139068603516 199.69723510742188 79.08476257324219 212.4214630126953 C 69.34013366699219 214.32167053222656 78.95435333251953 197.6661834716797 73.63094329833984 194.5942840576172 L 47.51554489135742 193.30075073242188" stroke-width="2.0" fill="rgb(246, 184, 109)" opacity="0.9835935" stroke="rgb(0, 0, 0)" stroke-opacity="0.0" stroke-linecap="round" stroke-linejoin="round"/>
    <path d="M 265.9384460449219 299.46710205078125 C 239.83421325683594 308.98834228515625 252.9739532470703 331.5939636230469 249.1934356689453 343.0794677734375 C 247.9403076171875 353.63665771484375 260.968994140625 349.8289489746094 267.045654296875 345.1641845703125 C 265.820068359375 330.59130859375 277.29949951171875 310.4842834472656 253.57594299316406 295.8114929199219 L 265.9384460449219 299.46710205078125" stroke-width="2.0" fill="rgb(19, 88, 144)" opacity="0.8562942" stroke="rgb(0, 0, 0)" stroke-opacity="0.0" stroke-linecap="round" stroke-linejoin="round"/>
    <path d="M 100.56388092041016 143.52316284179688 C 92.2406997680664 184.09922790527344 95.07188415527344 230.5331573486328 92.26627349853516 274.9758605957031 L 95.46835327148438 293.4318542480469 C 101.11686706542969 288.3753662109375 100.95157623291016 288.8330993652344 100.61299896240234 289.4834899902344 C 100.05509185791016 233.59091186523438 101.21269226074219 188.40542602539062 100.56388092041016 143.52316284179688" stroke-width="2.0" fill="rgb(228, 121, 68)" opacity="0.82084674" stroke="rgb(0, 0, 0)" stroke-opacity="0.0" stroke-linecap="round" stroke-linejoin="round"/>
    <path d="M 249.5968475341797 125.2447280883789 C 210.45079040527344 129.3171844482422 185.97259521484375 162.0623321533203 184.00119018554688 194.98928833007812 L 221.4410858154297 186.9287872314453 C 222.2967987060547 170.38352966308594 227.0271453857422 140.74417114257812 249.5968475341797 125.2447280883789" stroke-width="2.0" fill="rgb(24, 56, 72)" opacity="0.97768456" stroke="rgb(0, 0, 0)" stroke-opacity="0.0" stroke-linecap="round" stroke-linejoin="round"/>
    <path d="M 244.15382385253906 302.12530517578125 C 241.44981384277344 306.78106689453125 242.2447967529297 311.4495849609375 241.94692993164062 352.05047607421875 L 272.15814208984375 352.44000244140625 C 271.9388732910156 322.8602294921875 273.4237976074219 307.2123107910156 270.30487060546875 302.21112060546875 C 263.1800537109375 291.16461181640625 253.64990234375 287.5760498046875 244.15382385253906 302.12530517578125" stroke-width="2.0" fill="rgb(23, 55, 71)" opacity="0.8993936" stroke="rgb(0, 0, 0)" stroke-opacity="0.0" stroke-linecap="round" stroke-linejoin="round"/>
    <path d="M 65.98664855957031 302.1762390136719 L 74.3513412475586 339.2719421386719 C 87.84124755859375 329.9311828613281 101.00790405273438 335.77496337890625 116.14566802978516 342.13323974609375 L 117.373779296875 302.1841735839844 L 65.98664855957031 302.1762390136719" stroke-width="2.0" fill="rgb(260, 142, 71)" opacity="0.49274182" stroke="rgb(0, 0, 0)" stroke-opacity="0.0" stroke-linecap="round" stroke-linejoin="round"/>
    <path d="M 378.42242431640625 311.25067138671875 L 397.80059814453125 328.5888977050781 C 513.0746459960938 311.57086181640625 440.0408630371094 356.5907897949219 480.0104064941406 630.9195556640625 L 479.0755310058594 319.8380432128906 C 453.09320068359375 306.00360107421875 439.0038757324219 315.6851501464844 430.9543151855469 310.6852722167969 L 430.49310302734375 279.8846740722656 L 410.6963806152344 279.6927795410156 L 410.4821472167969 311.9236755371094 L 378.42242431640625 311.25067138671875" stroke-width="2.0" fill="rgb(250, 163, 96)" opacity="0.83140486" stroke="rgb(0, 0, 0)" stroke-opacity="0.0" stroke-linecap="round" stroke-linejoin="round"/>
    <path d="M 209.27471923828125 251.1849365234375 C 58.409236907958984 260.1225280761719 242.9419708251953 248.20901489257812 195.57464599609375 262.83966064453125 L 194.5959014892578 348.3304748535156 L 209.04388427734375 352.3894348144531 L 209.27471923828125 251.1849365234375" stroke-width="2.0" fill="rgb(24, 56, 71)" opacity="0.83837354" stroke="rgb(0, 0, 0)" stroke-opacity="0.0" stroke-linecap="round" stroke-linejoin="round"/>
    <path d="M 460.8947448730469 356.3636474609375 C 415.524658203125 343.73785400390625 406.4874572753906 352.17578125 424.7737731933594 364.8299865722656 C 408.8895263671875 398.20556640625 412.74658203125 409.75347900390625 409.4491882324219 424.6565856933594 L 442.1529235839844 424.6650695800781 C 441.50714111328125 408.0796813964844 439.4066467285156 369.688232421875 460.8947448730469 356.3636474609375" stroke-width="2.0" fill="rgb(254, 235, 205)" opacity="0.71145386" stroke="rgb(0, 0, 0)" stroke-opacity="0.0" stroke-linecap="round" stroke-linejoin="round"/>
    <path d="M 427.34619140625 279.98797607421875 L 427.2582092285156 314.35101318359375 L 466.6379699707031 314.8694152832031 L 466.7959289550781 293.5712890625 C 436.7511901855469 291.4331359863281 447.2795715332031 297.85748291015625 444.4961242675781 280.01739501953125 L 427.34619140625 279.98797607421875" stroke-width="2.0" fill="rgb(249, 234, 206)" opacity="0.8312336" stroke="rgb(0, 0, 0)" stroke-opacity="0.0" stroke-linecap="round" stroke-linejoin="round"/>
    <path d="M 184.2675323486328 262.83038330078125 C 170.56338500976562 259.4000549316406 178.32696533203125 271.0774841308594 174.13096618652344 272.1221923828125 L 174.1494598388672 342.91815185546875 L 186.7828369140625 346.32489013671875 C 186.84996032714844 313.22430419921875 187.92813110351562 266.6708984375 185.911865234375 271.0842590332031 L 184.2675323486328 262.83038330078125" stroke-width="2.0" fill="rgb(32, 58, 72)" opacity="0.97361124" stroke="rgb(0, 0, 0)" stroke-opacity="0.0" stroke-linecap="round" stroke-linejoin="round"/>
    <path d="M 76.62674713134766 350.4045104980469 C 69.09786987304688 399.9023742675781 98.67205047607422 383.7735900878906 84.34152221679688 458.35931396484375 L 208.06338500976562 419.8702392578125 C 134.8423309326172 358.99755859375 102.26639556884766 365.84130859375 76.62674713134766 350.4045104980469" stroke-width="2.0" fill="rgb(251, 163, 73)" opacity="0.6793203" stroke="rgb(0, 0, 0)" stroke-opacity="0.0" stroke-linecap="round" stroke-linejoin="round"/>
    <path d="M 62.3210563659668 300.6705322265625 L 70.6445083618164 321.685546875 L 121.12898254394531 315.8404541015625 L 121.2778091430664 300.8185119628906 L 62.3210563659668 300.6705322265625" stroke-width="2.0" fill="rgb(260, 229, 145)" opacity="0.42794886" stroke="rgb(0, 0, 0)" stroke-opacity="0.0" stroke-linecap="round" stroke-linejoin="round"/>
    <path d="M 119.54328155517578 255.87721252441406 C 117.97416687011719 278.6315002441406 118.59632110595703 304.5677795410156 118.5562744140625 327.1678161621094 L 132.73834228515625 330.985595703125 C 131.0940704345703 278.9211730957031 137.744873046875 267.6165771484375 122.95726013183594 259.7865295410156 C 121.37628936767578 259.4644470214844 281.98089599609375 252.75025939941406 119.54328155517578 255.87721252441406" stroke-width="2.0" fill="rgb(32, 57, 69)" opacity="0.9378279" stroke="rgb(0, 0, 0)" stroke-opacity="0.0" stroke-linecap="round" stroke-linejoin="round"/>
    <path d="M 338.09576416015625 261.7906494140625 C 325.8038635253906 259.4515686035156 331.5445251464844 267.73681640625 328.4127197265625 267.53741455078125 L 328.42706298828125 345.0063171386719 L 341.515869140625 341.75775146484375 C 339.3231506347656 314.8503112792969 343.658203125 287.8515930175781 338.09576416015625 261.7906494140625" stroke-width="2.0" fill="rgb(241, 141, 80)" opacity="1.0421534" stroke="rgb(0, 0, 0)" stroke-opacity="0.0" stroke-linecap="round" stroke-linejoin="round"/>
    <path d="M 360.74755859375 175.27334594726562 C 346.7452392578125 177.4822998046875 330.1924743652344 180.79600524902344 322.48236083984375 193.32608032226562 C 342.75830078125 198.40040588378906 322.467529296875 197.0081024169922 326.0244140625 216.6832275390625 L 356.3495788574219 219.96263122558594 C 358.0121154785156 204.3854522705078 357.0967102050781 190.11077880859375 360.74755859375 175.27334594726562" stroke-width="2.0" fill="rgb(252, 234, 203)" opacity="0.8512519" stroke="rgb(0, 0, 0)" stroke-opacity="0.0" stroke-linecap="round" stroke-linejoin="round"/>
    <path d="M 75.00325775146484 339.090576171875 L 75.84860229492188 357.6243896484375 L 199.69334411621094 426.7370910644531 C 325.4089660644531 398.1336364746094 427.3070983886719 442.4205322265625 393.0986022949219 369.38861083984375 C 143.4378204345703 372.46710205078125 138.7383575439453 303.2239074707031 75.00325775146484 339.090576171875" stroke-width="2.0" fill="rgb(250, 192, 115)" opacity="0.9309097" stroke="rgb(0, 0, 0)" stroke-opacity="0.0" stroke-linecap="round" stroke-linejoin="round"/>
    <path d="M 219.444580078125 262.5197448730469 L 217.31349182128906 272.4064025878906 C 244.4508819580078 272.5385437011719 271.8103942871094 272.1308898925781 295.4385986328125 272.263916015625 L 293.7674255371094 260.6333312988281 L 219.444580078125 262.5197448730469" stroke-width="2.0" fill="rgb(242, 144, 82)" opacity="1.0523542" stroke="rgb(0, 0, 0)" stroke-opacity="0.0" stroke-linecap="round" stroke-linejoin="round"/>
    <path d="M 164.09400939941406 263.6484680175781 C 152.75668334960938 260.9359130859375 159.03977966308594 271.8626708984375 155.79891967773438 272.2926025390625 L 155.7226104736328 337.3866271972656 L 166.66632080078125 340.4800720214844 C 166.0349884033203 303.5183410644531 167.3599853515625 270.7103271484375 165.74240112304688 272.1399841308594 L 164.09400939941406 263.6484680175781" stroke-width="2.0" fill="rgb(34, 59, 71)" opacity="0.9890421" stroke="rgb(0, 0, 0)" stroke-opacity="0.0" stroke-linecap="round" stroke-linejoin="round"/>
    <path d="M 320.6938781738281 252.6851043701172 C 306.4309387207031 251.37371826171875 318.03631591796875 258.7703857421875 311.48492431640625 267.36920166015625 L 311.3364562988281 349.69976806640625 L 319.9388122558594 347.4257507324219 C 319.92474365234375 318.57208251953125 319.6802062988281 290.0108642578125 320.6938781738281 252.6851043701172" stroke-width="2.0" fill="rgb(241, 142, 79)" opacity="0.8965994" stroke="rgb(0, 0, 0)" stroke-opacity="0.0" stroke-linecap="round" stroke-linejoin="round"/>
    <path d="M 133.22035217285156 206.59881591796875 C 119.45289611816406 215.15130615234375 124.56922149658203 209.19554138183594 109.40266418457031 210.9435577392578 L 111.63355255126953 279.6197509765625 C 115.76183319091797 279.19793701171875 120.12610626220703 277.8912048339844 117.56187438964844 277.8580017089844 C 117.61380767822266 258.16998291015625 118.92505645751953 239.5872039794922 116.78300476074219 228.80178833007812 C 126.44832611083984 219.7570037841797 141.71316528320312 229.86062622070312 133.22035217285156 206.59881591796875" stroke-width="2.0" fill="rgb(240, 126, -11)" opacity="0.2952637" stroke="rgb(0, 0, 0)" stroke-opacity="0.0" stroke-linecap="round" stroke-linejoin="round"/>
    <path d="M 140.9729766845703 264.59075927734375 C 138.34408569335938 275.1669921875 140.00955200195312 304.1590270996094 139.41647338867188 333.0732421875 L 148.6270751953125 335.7203063964844 C 147.73382568359375 300.433837890625 150.66012573242188 275.15350341796875 145.80337524414062 263.71392822265625 L 140.9729766845703 264.59075927734375" stroke-width="2.0" fill="rgb(35, 57, 68)" opacity="0.9907476" stroke="rgb(0, 0, 0)" stroke-opacity="0.0" stroke-linecap="round" stroke-linejoin="round"/>
    <path d="M 392.43902587890625 339.70343017578125 C 387.71759033203125 384.8145751953125 400.3975830078125 409.1985168457031 401.1114807128906 425.9071350097656 L 410.2021179199219 424.40899658203125 C 409.73577880859375 406.7913818359375 425.1130065917969 374.00592041015625 392.43902587890625 339.70343017578125" stroke-width="2.0" fill="rgb(194, 125, 34)" opacity="0.2587472" stroke="rgb(0, 0, 0)" stroke-opacity="0.0" stroke-linecap="round" stroke-linejoin="round"/>
    <path d="M 89.04617309570312 329.8716125488281 C 101.70942687988281 314.6718444824219 86.69122314453125 318.9486999511719 77.44412994384766 323.61529541015625 C 68.62413024902344 359.5765380859375 71.58597564697266 346.19415283203125 161.12261962890625 389.1859436035156 C 175.27325439453125 337.250244140625 152.61720275878906 364.21978759765625 89.04617309570312 329.8716125488281" stroke-width="2.0" fill="rgb(241, 131, 72)" opacity="0.6445227" stroke="rgb(0, 0, 0)" stroke-opacity="0.0" stroke-linecap="round" stroke-linejoin="round"/>
    <path d="M 310.6898193359375 271.8271484375 L 303.7965087890625 271.6301574707031 L 303.6023864746094 353.10162353515625 L 310.6355285644531 357.2668762207031 L 310.6898193359375 271.8271484375" stroke-width="2.0" fill="rgb(253, 230, 195)" opacity="0.9363262" stroke="rgb(0, 0, 0)" stroke-opacity="0.0" stroke-linecap="round" stroke-linejoin="round"/>
    <path d="M 388.2074890136719 205.82931518554688 C 391.9426574707031 219.67176818847656 371.56756591796875 204.6365203857422 376.0975646972656 222.53701782226562 C 381.4964294433594 222.63470458984375 389.3567810058594 223.9751434326172 396.7216491699219 225.86691284179688 C 392.9429626464844 231.70164489746094 386.4251708984375 273.0235595703125 409.589599609375 271.492919921875 L 401.99481201171875 204.2582244873047 L 388.2074890136719 205.82931518554688" stroke-width="2.0" fill="rgb(237, 133, 74)" opacity="0.9536283" stroke="rgb(0, 0, 0)" stroke-opacity="0.0" stroke-linecap="round" stroke-linejoin="round"/>
    <path d="M 370.8170471191406 268.7113952636719 C 364.2134094238281 267.640380859375 366.0320739746094 270.62005615234375 361.4671936035156 269.138916015625 L 361.5653381347656 336.4375915527344 L 370.8795166015625 334.062744140625 L 370.8170471191406 268.7113952636719" stroke-width="2.0" fill="rgb(240, 142, 82)" opacity="0.9657306" stroke="rgb(0, 0, 0)" stroke-opacity="0.0" stroke-linecap="round" stroke-linejoin="round"/>
    <path d="M 219.13095092773438 212.17860412597656 C 179.9954071044922 217.56289672851562 149.28343200683594 220.52342224121094 117.5338134765625 224.53953552246094 C 117.4179916381836 223.94580078125 113.05393981933594 228.2073211669922 115.67644500732422 230.68270874023438 C 146.73245239257812 228.22967529296875 190.34983825683594 219.81695556640625 230.9580535888672 219.4855499267578 L 219.13095092773438 212.17860412597656" stroke-width="2.0" fill="rgb(-393, -69, 96)" opacity="0.10740208" stroke="rgb(0, 0, 0)" stroke-opacity="0.0" stroke-linecap="round" stroke-linejoin="round"/>
    <path d="M 345.49456787109375 271.99713134765625 C 340.296630859375 272.7681884765625 338.63043212890625 271.55133056640625 339.5387878417969 273.5354919433594 L 339.3208923339844 388.61798095703125 L 347.7728271484375 386.16162109375 L 345.49456787109375 271.99713134765625" stroke-width="2.0" fill="rgb(251, 229, 198)" opacity="0.96390945" stroke="rgb(0, 0, 0)" stroke-opacity="0.0" stroke-linecap="round" stroke-linejoin="round"/>
    <path d="M 389.4755554199219 256.58917236328125 L 377.78570556640625 256.4403076171875 L 378.26416015625 331.7121276855469 L 389.2890930175781 328.3392333984375 C 383.47076416015625 306.6357421875 390.5160217285156 285.57769775390625 389.4755554199219 256.58917236328125" stroke-width="2.0" fill="rgb(242, 150, 83)" opacity="1.0276318" stroke="rgb(0, 0, 0)" stroke-opacity="0.0" stroke-linecap="round" stroke-linejoin="round"/>
    <path d="M 218.62753295898438 260.7439880371094 L 218.20965576171875 266.6923522949219 C 244.2691650390625 265.85870361328125 272.8340759277344 267.41668701171875 295.02423095703125 265.366455078125 C 296.6247863769531 261.0318603515625 293.4411926269531 260.47381591796875 291.2538146972656 260.51416015625 C 267.37652587890625 260.4966125488281 240.8082733154297 260.50469970703125 218.62753295898438 260.7439880371094" stroke-width="2.0" fill="rgb(168, 168, 147)" opacity="1.1228129" stroke="rgb(0, 0, 0)" stroke-opacity="0.0" stroke-linecap="round" stroke-linejoin="round"/>
    <path d="M 362.97418212890625 272.3077392578125 L 357.4541320800781 272.9056396484375 L 354.3070373535156 381.8891906738281 L 363.73406982421875 376.3476257324219 L 362.97418212890625 272.3077392578125" stroke-width="2.0" fill="rgb(254, 232, 199)" opacity="0.8077078" stroke="rgb(0, 0, 0)" stroke-opacity="0.0" stroke-linecap="round" stroke-linejoin="round"/>
    <path d="M 361.7698669433594 171.2786407470703 C 355.02349853515625 189.19439697265625 354.286865234375 205.54212951660156 356.874755859375 220.394775390625 L 366.7647399902344 220.7001953125 C 366.5896301269531 203.71714782714844 368.1090393066406 187.0138702392578 361.7698669433594 171.2786407470703" stroke-width="2.0" fill="rgb(226, 140, 74)" opacity="0.67102504" stroke="rgb(0, 0, 0)" stroke-opacity="0.0" stroke-linecap="round" stroke-linejoin="round"/>
    <path d="M 97.53268432617188 147.7412567138672 C 97.18637084960938 158.5388641357422 95.94711303710938 174.66944885253906 95.57255554199219 185.46482849121094 C 106.35985565185547 190.947265625 98.73929595947266 170.35305786132812 96.66951751708984 166.93629455566406 L 97.53268432617188 147.7412567138672" stroke-width="2.0" fill="rgb(120, 92, 69)" opacity="1.4389688" stroke="rgb(0, 0, 0)" stroke-opacity="0.0" stroke-linecap="round" stroke-linejoin="round"/>
    <path d="M 385.9034729003906 273.4201354980469 L 385.8345642089844 363.0640563964844 L 404.63909912109375 352.4273986816406 C 385.86773681640625 325.00238037109375 395.6799011230469 300.68768310546875 392.3661193847656 273.83551025390625 L 385.9034729003906 273.4201354980469" stroke-width="2.0" fill="rgb(250, 231, 201)" opacity="0.87672275" stroke="rgb(0, 0, 0)" stroke-opacity="0.0" stroke-linecap="round" stroke-linejoin="round"/>
    <path d="M 445.25921630859375 184.54107666015625 C 429.69580078125 184.7414093017578 443.89239501953125 193.4227752685547 436.61126708984375 208.01499938964844 C 447.7469787597656 206.8555145263672 451.8139343261719 184.38804626464844 445.25921630859375 184.54107666015625" stroke-width="2.0" fill="rgb(212, 139, 82)" opacity="0.52411985" stroke="rgb(0, 0, 0)" stroke-opacity="0.0" stroke-linecap="round" stroke-linejoin="round"/>
    <path d="M 211.19544982910156 328.4620361328125 C 210.58377075195312 350.5596618652344 246.6751708984375 353.5103759765625 232.80787658691406 328.4090881347656 L 211.19544982910156 328.4620361328125" stroke-width="2.0" fill="rgb(247, 166, 91)" opacity="0.50765294" stroke="rgb(0, 0, 0)" stroke-opacity="0.0" stroke-linecap="round" stroke-linejoin="round"/>
    <path d="M 299.4378662109375 328.6720275878906 C 278.6274108886719 327.73480224609375 278.12664794921875 326.38153076171875 278.77337646484375 347.2653503417969 C 291.68402099609375 347.8559265136719 304.1380310058594 352.0476989746094 299.4378662109375 328.6720275878906" stroke-width="2.0" fill="rgb(248, 172, 98)" opacity="0.897729" stroke="rgb(0, 0, 0)" stroke-opacity="0.0" stroke-linecap="round" stroke-linejoin="round"/>
    <path d="M 52.872955322265625 208.17884826660156 C 44.74663543701172 224.86256408691406 72.74301147460938 229.97259521484375 64.10733795166016 208.36453247070312 L 52.872955322265625 208.17884826660156" stroke-width="2.0" fill="rgb(250, 229, 191)" opacity="0.9903856" stroke="rgb(0, 0, 0)" stroke-opacity="0.0" stroke-linecap="round" stroke-linejoin="round"/>
    <path d="M 238.64479064941406 274.6396789550781 L 238.30393981933594 286.6859436035156 L 279.26068115234375 286.2328186035156 L 267.99267578125 274.6514587402344 L 238.64479064941406 274.6396789550781" stroke-width="2.0" fill="rgb(244, 166, 95)" opacity="0.9923127" stroke="rgb(0, 0, 0)" stroke-opacity="0.0" stroke-linecap="round" stroke-linejoin="round"/>
    <path d="M 263.21307373046875 272.23956298828125 C 267.47467041015625 294.63946533203125 280.0746154785156 310.188720703125 301.16119384765625 307.3324890136719 C 309.9997253417969 258.1220397949219 283.4874267578125 273.6433410644531 263.21307373046875 272.23956298828125" stroke-width="2.0" fill="rgb(260, 165, 49)" opacity="0.08044886" stroke="rgb(0, 0, 0)" stroke-opacity="0.0" stroke-linecap="round" stroke-linejoin="round"/>
    <path d="M 216.81631469726562 227.8921356201172 C 216.25241088867188 246.136474609375 210.86756896972656 244.99325561523438 228.5559539794922 244.0148162841797 C 227.88888549804688 235.4688720703125 230.87594604492188 224.29054260253906 216.81631469726562 227.8921356201172" stroke-width="2.0" fill="rgb(141, 164, 156)" opacity="0.98465115" stroke="rgb(0, 0, 0)" stroke-opacity="0.0" stroke-linecap="round" stroke-linejoin="round"/>
    <path d="M 230.3540496826172 231.41339111328125 C 231.99037170410156 245.91754150390625 221.95379638671875 244.18051147460938 243.20068359375 244.28016662597656 C 243.50827026367188 236.19952392578125 244.5701904296875 227.09262084960938 230.3540496826172 231.41339111328125" stroke-width="2.0" fill="rgb(149, 164, 156)" opacity="0.9452352" stroke="rgb(0, 0, 0)" stroke-opacity="0.0" stroke-linecap="round" stroke-linejoin="round"/>
    <path d="M 257.6567687988281 96.489013671875 C 240.90469360351562 111.20227813720703 263.3420715332031 102.1036376953125 250.8408966064453 116.04257202148438 C 271.1849670410156 134.7386016845703 252.56680297851562 100.82650756835938 262.18096923828125 107.04730224609375 C 264.0727844238281 94.47470092773438 259.1238708496094 108.06478118896484 257.6567687988281 96.489013671875" stroke-width="2.0" fill="rgb(237, 186, 113)" opacity="0.7830601" stroke="rgb(0, 0, 0)" stroke-opacity="0.0" stroke-linecap="round" stroke-linejoin="round"/>
    <path d="M 261.19903564453125 233.38145446777344 C 259.24395751953125 235.60890197753906 259.75958251953125 246.68617248535156 272.2600402832031 244.10621643066406 C 272.04412841796875 236.317138671875 274.78277587890625 230.32994079589844 261.19903564453125 233.38145446777344" stroke-width="2.0" fill="rgb(125, 165, 177)" opacity="0.8016639" stroke="rgb(0, 0, 0)" stroke-opacity="0.0" stroke-linecap="round" stroke-linejoin="round"/>
    <path d="M 247.5382843017578 233.8179168701172 C 242.9685821533203 234.65480041503906 246.4368896484375 246.02394104003906 257.35137939453125 244.2526092529297 C 257.0953063964844 236.37916564941406 260.29315185546875 227.67347717285156 247.5382843017578 233.8179168701172" stroke-width="2.0" fill="rgb(120, 158, 170)" opacity="0.71168697" stroke="rgb(0, 0, 0)" stroke-opacity="0.0" stroke-linecap="round" stroke-linejoin="round"/>
    <path d="M 275.9061279296875 233.2110137939453 C 272.3399963378906 235.62684631347656 272.9527282714844 248.59429931640625 290.87127685546875 243.42555236816406 C 285.5560607910156 238.25225830078125 289.4998474121094 228.0200958251953 275.9061279296875 233.2110137939453" stroke-width="2.0" fill="rgb(135, 161, 170)" opacity="0.35279742" stroke="rgb(0, 0, 0)" stroke-opacity="0.0" stroke-linecap="round" stroke-linejoin="round"/>
    <path d="M 218.93382263183594 304.6640930175781 C 209.2973175048828 322.0581970214844 244.55270385742188 321.17333984375 234.16842651367188 304.565185546875 L 218.93382263183594 304.6640930175781" stroke-width="2.0" fill="rgb(243, 147, 81)" opacity="1.0040159" stroke="rgb(0, 0, 0)" stroke-opacity="0.0" stroke-linecap="round" stroke-linejoin="round"/>
    <path d="M 279.92584228515625 304.6367492675781 C 269.4870300292969 322.1746520996094 306.12896728515625 318.46282958984375 293.81854248046875 305.5704650878906 L 279.92584228515625 304.6367492675781" stroke-width="2.0" fill="rgb(243, 146, 81)" opacity="1.0021942" stroke="rgb(0, 0, 0)" stroke-opacity="0.0" stroke-linecap="round" stroke-linejoin="round"/>
    <path d="M 66.50242614746094 222.94338989257812 C 64.43145751953125 239.87696838378906 65.39525604248047 234.59043884277344 73.47632598876953 251.2993927001953 C 69.95177459716797 233.21507263183594 78.87760162353516 219.53602600097656 66.50242614746094 222.94338989257812" stroke-width="2.0" fill="rgb(254, 253, 234)" opacity="0.5496101" stroke="rgb(0, 0, 0)" stroke-opacity="0.0" stroke-linecap="round" stroke-linejoin="round"/>
    <path d="M 476.8230895996094 213.54222106933594 C 461.6125183105469 221.69387817382812 450.9554138183594 221.89199829101562 455.9619445800781 227.70602416992188 C 459.6233825683594 239.78736877441406 453.97283935546875 249.41055297851562 476.9873352050781 226.9068603515625 L 476.8230895996094 213.54222106933594" stroke-width="2.0" fill="rgb(244, 146, 78)" opacity="0.3792811" stroke="rgb(0, 0, 0)" stroke-opacity="0.0" stroke-linecap="round" stroke-linejoin="round"/>
    <path d="M 296.4184875488281 231.0220184326172 C 299.9770202636719 234.99649047851562 295.982421875 243.38247680664062 313.17742919921875 244.68675231933594 C 310.1145935058594 231.68260192871094 320.87664794921875 223.14407348632812 296.4184875488281 231.0220184326172" stroke-width="2.0" fill="rgb(244, 182, 108)" opacity="1.017497" stroke="rgb(0, 0, 0)" stroke-opacity="0.0" stroke-linecap="round" stroke-linejoin="round"/>
    <path d="M 70.53759765625 247.0828399658203 C 74.61129760742188 265.93353271484375 69.4417495727539 260.7989501953125 81.94993591308594 260.38421630859375 C 81.00006103515625 244.4166259765625 86.12450408935547 248.36827087402344 70.53759765625 247.0828399658203" stroke-width="2.0" fill="rgb(251, 257, 246)" opacity="0.60920733" stroke="rgb(0, 0, 0)" stroke-opacity="0.0" stroke-linecap="round" stroke-linejoin="round"/>
    <path d="M 255.80282592773438 199.67681884765625 C 255.2845916748047 205.48223876953125 253.17030334472656 225.70208740234375 262.79559326171875 213.53529357910156 C 261.93084716796875 208.53997802734375 265.30712890625 193.46035766601562 255.80282592773438 199.67681884765625" stroke-width="2.0" fill="rgb(49, 72, 80)" opacity="1.331525" stroke="rgb(0, 0, 0)" stroke-opacity="0.0" stroke-linecap="round" stroke-linejoin="round"/>
    <path d="M 218.81382751464844 235.31524658203125 C 211.4364471435547 246.22923278808594 232.40347290039062 246.1633758544922 226.0360870361328 235.5216827392578 L 218.81382751464844 235.31524658203125" stroke-width="2.0" fill="rgb(85, 166, 194)" opacity="1.0194011" stroke="rgb(0, 0, 0)" stroke-opacity="0.0" stroke-linecap="round" stroke-linejoin="round"/>
    <path d="M 216.61627197265625 297.2630310058594 C 226.79159545898438 301.28338623046875 234.73690795898438 306.0078430175781 243.47225952148438 292.1480712890625 C 231.83270263671875 294.12957763671875 217.52197265625 287.3175964355469 216.61627197265625 297.2630310058594" stroke-width="2.0" fill="rgb(243, 154, 86)" opacity="0.9895665" stroke="rgb(0, 0, 0)" stroke-opacity="0.0" stroke-linecap="round" stroke-linejoin="round"/>
    <path d="M 316.9561462402344 229.63467407226562 C 319.9574279785156 237.8341064453125 311.0904846191406 249.14431762695312 325.378662109375 245.04542541503906 C 322.0974426269531 237.97360229492188 327.1530456542969 227.05252075195312 316.9561462402344 229.63467407226562" stroke-width="2.0" fill="rgb(241, 168, 92)" opacity="1.3453557" stroke="rgb(0, 0, 0)" stroke-opacity="0.0" stroke-linecap="round" stroke-linejoin="round"/>
    <path d="M 269.709716796875 200.20924377441406 C 269.0546875 220.47662353515625 268.0021057128906 212.8301239013672 277.53253173828125 214.35276794433594 C 274.703857421875 218.44654846191406 281.26409912109375 190.5435028076172 269.709716796875 200.20924377441406" stroke-width="2.0" fill="rgb(55, 78, 84)" opacity="1.6340209" stroke="rgb(0, 0, 0)" stroke-opacity="0.0" stroke-linecap="round" stroke-linejoin="round"/>
    <path d="M 234.0761260986328 233.0482635498047 C 226.04563903808594 246.0436553955078 246.53561401367188 248.8759002685547 241.24087524414062 236.05267333984375 L 234.0761260986328 233.0482635498047" stroke-width="2.0" fill="rgb(87, 164, 197)" opacity="1.0071062" stroke="rgb(0, 0, 0)" stroke-opacity="0.0" stroke-linecap="round" stroke-linejoin="round"/>
    <path d="M 290.4669494628906 228.413330078125 C 287.4174499511719 232.48829650878906 287.1229248046875 248.148681640625 296.38934326171875 243.6200714111328 C 293.7389221191406 235.9193878173828 301.9881286621094 223.94769287109375 290.4669494628906 228.413330078125" stroke-width="2.0" fill="rgb(236, 145, 92)" opacity="0.82921857" stroke="rgb(0, 0, 0)" stroke-opacity="0.0" stroke-linecap="round" stroke-linejoin="round"/>
    <path d="M 328.10760498046875 230.46534729003906 C 329.6742858886719 236.72903442382812 323.2649230957031 247.58663940429688 334.8200378417969 246.0823211669922 C 332.84283447265625 240.05609130859375 339.7321472167969 228.70199584960938 328.10760498046875 230.46534729003906" stroke-width="2.0" fill="rgb(233, 162, 93)" opacity="0.838099" stroke="rgb(0, 0, 0)" stroke-opacity="0.0" stroke-linecap="round" stroke-linejoin="round"/>
    <path d="M 263.3787536621094 236.17654418945312 C 249.37196350097656 248.64480590820312 277.7815246582031 245.97454833984375 269.611572265625 235.81053161621094 L 263.3787536621094 236.17654418945312" stroke-width="2.0" fill="rgb(13, 157, 232)" opacity="0.14987363" stroke="rgb(0, 0, 0)" stroke-opacity="0.0" stroke-linecap="round" stroke-linejoin="round"/>
    <path d="M 320.27935791015625 243.91270446777344 C 298.8798522949219 244.7179718017578 282.3219909667969 253.01602172851562 362.7867431640625 252.77035522460938 C 342.11767578125 246.207763671875 334.5805358886719 224.03216552734375 320.27935791015625 243.91270446777344" stroke-width="2.0" fill="rgb(215, 260, 278)" opacity="0.14979781" stroke="rgb(0, 0, 0)" stroke-opacity="0.0" stroke-linecap="round" stroke-linejoin="round"/>
    <path d="M 249.41390991210938 235.1280975341797 C 236.33209228515625 250.04249572753906 262.2442932128906 243.85040283203125 255.09780883789062 235.8631134033203 L 249.41390991210938 235.1280975341797" stroke-width="2.0" fill="rgb(60, 169, 209)" opacity="0.4843809" stroke="rgb(0, 0, 0)" stroke-opacity="0.0" stroke-linecap="round" stroke-linejoin="round"/>
    <path d="M 277.083251953125 235.56170654296875 C 266.60302734375 248.3284912109375 292.2807312011719 246.63076782226562 284.4266662597656 235.38580322265625 L 277.083251953125 235.56170654296875" stroke-width="2.0" fill="rgb(20, 157, 230)" opacity="0.2981166" stroke="rgb(0, 0, 0)" stroke-opacity="0.0" stroke-linecap="round" stroke-linejoin="round"/>
    <path d="M 271.8340759277344 292.5771789550781 C 271.7228698730469 301.8020935058594 302.109619140625 299.70208740234375 293.9406433105469 292.8756408691406 L 271.8340759277344 292.5771789550781" stroke-width="2.0" fill="rgb(238, 146, 81)" opacity="1.0486888" stroke="rgb(0, 0, 0)" stroke-opacity="0.0" stroke-linecap="round" stroke-linejoin="round"/>
    <path d="M 241.96275329589844 200.0955810546875 C 241.08033752441406 219.351318359375 240.17469787597656 221.5682830810547 255.13027954101562 215.73959350585938 C 242.40895080566406 227.30599975585938 256.34246826171875 190.2947540283203 241.96275329589844 200.0955810546875" stroke-width="2.0" fill="rgb(54, 76, 81)" opacity="1.4181744" stroke="rgb(0, 0, 0)" stroke-opacity="0.0" stroke-linecap="round" stroke-linejoin="round"/>
    <path d="M 219.26219177246094 319.5516357421875 C 207.75161743164062 331.71063232421875 249.34271240234375 328.6990051269531 231.53182983398438 319.7642822265625 L 219.26219177246094 319.5516357421875" stroke-width="2.0" fill="rgb(244, 156, 87)" opacity="1.176811" stroke="rgb(0, 0, 0)" stroke-opacity="0.0" stroke-linecap="round" stroke-linejoin="round"/>
    <path d="M 218.70228576660156 341.5826721191406 C 210.4286651611328 350.36981201171875 244.05357360839844 351.2249450683594 234.13783264160156 340.6534423828125 L 218.70228576660156 341.5826721191406" stroke-width="2.0" fill="rgb(235, 122, 53)" opacity="0.29128313" stroke="rgb(0, 0, 0)" stroke-opacity="0.0" stroke-linecap="round" stroke-linejoin="round"/>
    <path d="M 228.47830200195312 199.79139709472656 C 227.8546600341797 209.72181701660156 226.6444549560547 224.60189819335938 235.6876220703125 218.70542907714844 C 234.66073608398438 209.0118408203125 238.2086639404297 193.62603759765625 228.47830200195312 199.79139709472656" stroke-width="2.0" fill="rgb(51, 74, 79)" opacity="1.3339745" stroke="rgb(0, 0, 0)" stroke-opacity="0.0" stroke-linecap="round" stroke-linejoin="round"/>
    <path d="M 283.16748046875 200.15261840820312 C 281.8392333984375 221.00942993164062 283.3558654785156 212.169921875 289.9058837890625 214.23959350585938 C 289.3804626464844 208.94180297851562 292.70709228515625 194.34051513671875 283.16748046875 200.15261840820312" stroke-width="2.0" fill="rgb(62, 81, 83)" opacity="1.7829541" stroke="rgb(0, 0, 0)" stroke-opacity="0.0" stroke-linecap="round" stroke-linejoin="round"/>
    <path d="M 280.03851318359375 341.5082092285156 C 271.4194641113281 349.342041015625 302.35894775390625 349.1777648925781 293.3333740234375 341.2096252441406 L 280.03851318359375 341.5082092285156" stroke-width="2.0" fill="rgb(220, 83, 27)" opacity="0.3185483" stroke="rgb(0, 0, 0)" stroke-opacity="0.0" stroke-linecap="round" stroke-linejoin="round"/>
    <path d="M 400.1902770996094 232.2017059326172 C 405.1976318359375 242.2715606689453 385.50048828125 271.90509033203125 431.3962707519531 255.14857482910156 C 441.1717224121094 227.1876678466797 407.28955078125 249.99887084960938 400.1902770996094 232.2017059326172" stroke-width="2.0" fill="rgb(236, 96, 50)" opacity="0.18934652" stroke="rgb(0, 0, 0)" stroke-opacity="0.0" stroke-linecap="round" stroke-linejoin="round"/>
    <path d="M 280.25030517578125 320.7673645019531 C 269.3546142578125 330.8348388671875 307.1883850097656 328.69415283203125 293.4698791503906 320.8099060058594 L 280.25030517578125 320.7673645019531" stroke-width="2.0" fill="rgb(242, 150, 83)" opacity="1.0107458" stroke="rgb(0, 0, 0)" stroke-opacity="0.0" stroke-linecap="round" stroke-linejoin="round"/>
    <path d="M 198.23873901367188 227.7901153564453 C 195.67507934570312 231.19252014160156 195.0312042236328 249.8966064453125 200.4203338623047 244.6671600341797 C 199.67845153808594 236.93838500976562 201.51519775390625 224.35787963867188 198.23873901367188 227.7901153564453" stroke-width="2.0" fill="rgb(77, 65, 66)" opacity="0.9812808" stroke="rgb(0, 0, 0)" stroke-opacity="0.0" stroke-linecap="round" stroke-linejoin="round"/>
    <path d="M 411.2076416015625 328.748291015625 C 476.8467102050781 345.0111999511719 374.9482116699219 327.8244323730469 415.05364990234375 388.24859619140625 L 470.75958251953125 349.9627685546875 C 454.5564270019531 311.0047607421875 383.8483581542969 329.9516296386719 411.2076416015625 328.748291015625" stroke-width="2.0" fill="rgb(249, 191, 114)" opacity="0.96734196" stroke="rgb(0, 0, 0)" stroke-opacity="0.0" stroke-linecap="round" stroke-linejoin="round"/>
    <path d="M 249.27377319335938 262.165771484375 C 242.4664306640625 267.02166748046875 269.81329345703125 266.34521484375 266.4400939941406 262.4501647949219 L 249.27377319335938 262.165771484375" stroke-width="2.0" fill="rgb(113, 166, 181)" opacity="1.0038077" stroke="rgb(0, 0, 0)" stroke-opacity="0.0" stroke-linecap="round" stroke-linejoin="round"/>
    <path d="M 356.0026550292969 240.3961944580078 C 360.65716552734375 239.73809814453125 352.0393371582031 251.33139038085938 363.24713134765625 247.6966552734375 C 362.89215087890625 238.75669860839844 365.4820861816406 240.72824096679688 356.0026550292969 240.3961944580078" stroke-width="2.0" fill="rgb(128, 161, 170)" opacity="1.056059" stroke="rgb(0, 0, 0)" stroke-opacity="0.0" stroke-linecap="round" stroke-linejoin="round"/>
    <path d="M 161.20057678222656 232.59234619140625 C 162.51283264160156 241.24530029296875 158.7485809326172 251.12799072265625 165.5196533203125 246.890380859375 C 164.4305419921875 236.32200622558594 167.50570678710938 228.32235717773438 161.20057678222656 232.59234619140625" stroke-width="2.0" fill="rgb(65, 59, 54)" opacity="1.0230234" stroke="rgb(0, 0, 0)" stroke-opacity="0.0" stroke-linecap="round" stroke-linejoin="round"/>
    <path d="M 220.12786865234375 197.7198486328125 C 211.01718139648438 204.2359619140625 209.02037048339844 230.87838745117188 269.9354248046875 214.3667449951172 C 201.3227081298828 213.11419677734375 229.2427215576172 219.64805603027344 220.12786865234375 197.7198486328125" stroke-width="2.0" fill="rgb(69, 124, 146)" opacity="1.4855119" stroke="rgb(0, 0, 0)" stroke-opacity="0.0" stroke-linecap="round" stroke-linejoin="round"/>
    <path d="M 295.4531555175781 201.62066650390625 C 295.04412841796875 217.62820434570312 294.5149230957031 213.33114624023438 301.13397216796875 214.1963348388672 C 300.3922119140625 210.7572479248047 303.3746032714844 195.5652313232422 295.4531555175781 201.62066650390625" stroke-width="2.0" fill="rgb(53, 76, 83)" opacity="1.5010359" stroke="rgb(0, 0, 0)" stroke-opacity="0.0" stroke-linecap="round" stroke-linejoin="round"/>
    <path d="M 169.6220703125 231.84548950195312 C 170.53160095214844 240.73744201660156 167.5318603515625 250.9657745361328 173.681884765625 246.4081268310547 C 172.77099609375 237.0794677734375 175.77528381347656 226.38211059570312 169.6220703125 231.84548950195312" stroke-width="2.0" fill="rgb(60, 61, 62)" opacity="1.029583" stroke="rgb(0, 0, 0)" stroke-opacity="0.0" stroke-linecap="round" stroke-linejoin="round"/>
    <path d="M 45.457820892333984 222.00889587402344 C 44.095794677734375 247.62957763671875 64.85196685791016 212.78089904785156 45.457820892333984 222.00889587402344" stroke-width="2.0" fill="rgb(251, 222, 182)" opacity="1.0081877" stroke="rgb(0, 0, 0)" stroke-opacity="0.0" stroke-linecap="round" stroke-linejoin="round"/>
    <path d="M 231.10867309570312 262.2885437011719 C 225.20602416992188 266.79736328125 250.46702575683594 266.5254821777344 245.08108520507812 262.2906188964844 L 231.10867309570312 262.2885437011719" stroke-width="2.0" fill="rgb(112, 164, 186)" opacity="0.9811664" stroke="rgb(0, 0, 0)" stroke-opacity="0.0" stroke-linecap="round" stroke-linejoin="round"/>
    <path d="M 366.1018371582031 235.3909454345703 C 367.73773193359375 240.60890197753906 360.34332275390625 253.3052215576172 372.56707763671875 247.9960479736328 C 368.51715087890625 241.5215606689453 373.4000244140625 230.76499938964844 366.1018371582031 235.3909454345703" stroke-width="2.0" fill="rgb(242, 171, 93)" opacity="1.3333831" stroke="rgb(0, 0, 0)" stroke-opacity="0.0" stroke-linecap="round" stroke-linejoin="round"/>
    <path d="M 204.97412109375 228.09202575683594 C 205.8894805908203 238.1230010986328 202.31935119628906 248.8836212158203 209.32044982910156 243.99916076660156 C 208.42721557617188 230.68023681640625 211.79026794433594 222.87832641601562 204.97412109375 228.09202575683594" stroke-width="2.0" fill="rgb(37, 51, 52)" opacity="0.6656413" stroke="rgb(0, 0, 0)" stroke-opacity="0.0" stroke-linecap="round" stroke-linejoin="round"/>
    <path d="M 153.3168487548828 232.97335815429688 C 154.80426025390625 241.2275848388672 151.35232543945312 252.21929931640625 157.24742126464844 247.37728881835938 C 155.660400390625 239.90541076660156 159.5633087158203 229.66720581054688 153.3168487548828 232.97335815429688" stroke-width="2.0" fill="rgb(81, 53, 40)" opacity="0.99418133" stroke="rgb(0, 0, 0)" stroke-opacity="0.0" stroke-linecap="round" stroke-linejoin="round"/>
    <path d="M 374.5252990722656 235.88125610351562 C 375.9050598144531 241.56265258789062 368.8442687988281 252.34408569335938 379.76416015625 249.2213592529297 C 377.2593078613281 243.85601806640625 380.9491882324219 234.1412811279297 374.5252990722656 235.88125610351562" stroke-width="2.0" fill="rgb(242, 168, 90)" opacity="1.046033" stroke="rgb(0, 0, 0)" stroke-opacity="0.0" stroke-linecap="round" stroke-linejoin="round"/>
    <path d="M 186.72071838378906 229.97084045410156 C 187.62423706054688 239.64462280273438 184.33653259277344 249.60977172851562 191.36752319335938 245.43360900878906 C 190.19921875 236.61233520507812 193.69700622558594 223.74002075195312 186.72071838378906 229.97084045410156" stroke-width="2.0" fill="rgb(63, 63, 53)" opacity="0.9813442" stroke="rgb(0, 0, 0)" stroke-opacity="0.0" stroke-linecap="round" stroke-linejoin="round"/>
    <path d="M 195.80833435058594 228.46298217773438 C 196.047119140625 235.2626190185547 194.7073516845703 250.01739501953125 198.26348876953125 244.40089416503906 C 201.21315002441406 240.302001953125 200.74546813964844 223.56105041503906 195.80833435058594 228.46298217773438" stroke-width="2.0" fill="rgb(21, 50, 58)" opacity="0.49301496" stroke="rgb(0, 0, 0)" stroke-opacity="0.0" stroke-linecap="round" stroke-linejoin="round"/>
    <path d="M 288.5905456542969 234.53570556640625 C 286.74822998046875 245.46408081054688 299.6042785644531 250.42298889160156 296.1761169433594 234.48826599121094 L 288.5905456542969 234.53570556640625" stroke-width="2.0" fill="rgb(136, 168, 165)" opacity="1.1546605" stroke="rgb(0, 0, 0)" stroke-opacity="0.0" stroke-linecap="round" stroke-linejoin="round"/>
    <path d="M 211.0861053466797 228.7581787109375 C 210.78143310546875 236.89991760253906 238.01881408691406 235.73617553710938 227.1163787841797 226.15882873535156 L 211.0861053466797 228.7581787109375" stroke-width="2.0" fill="rgb(248, 168, 94)" opacity="0.82187074" stroke="rgb(0, 0, 0)" stroke-opacity="0.0" stroke-linecap="round" stroke-linejoin="round"/>
    <path d="M 261.8313293457031 227.2399139404297 C 251.02622985839844 238.82489013671875 278.6423645019531 234.51708984375 287.56219482421875 228.68959045410156 L 261.8313293457031 227.2399139404297" stroke-width="2.0" fill="rgb(245, 138, 69)" opacity="0.6445342" stroke="rgb(0, 0, 0)" stroke-opacity="0.0" stroke-linecap="round" stroke-linejoin="round"/>
    <path d="M 214.32839965820312 229.298583984375 C 222.7135467529297 236.51187133789062 254.55203247070312 236.93087768554688 240.6690673828125 226.69091796875 L 214.32839965820312 229.298583984375" stroke-width="2.0" fill="rgb(248, 147, 78)" opacity="0.85525376" stroke="rgb(0, 0, 0)" stroke-opacity="0.0" stroke-linecap="round" stroke-linejoin="round"/>
    <path d="M 98.28157806396484 234.2418212890625 C 78.15869903564453 239.6041259765625 118.24597930908203 239.26385498046875 109.68843841552734 235.00709533691406 L 98.28157806396484 234.2418212890625" stroke-width="2.0" fill="rgb(-411, -67, 102)" opacity="0.17188275" stroke="rgb(0, 0, 0)" stroke-opacity="0.0" stroke-linecap="round" stroke-linejoin="round"/>
    <path d="M 235.599609375 226.61769104003906 C 238.50424194335938 235.4959259033203 267.17724609375 238.2811279296875 256.4643249511719 226.6972198486328 L 235.599609375 226.61769104003906" stroke-width="2.0" fill="rgb(243, 155, 81)" opacity="0.786624" stroke="rgb(0, 0, 0)" stroke-opacity="0.0" stroke-linecap="round" stroke-linejoin="round"/>
    <path d="M 310.7910461425781 203.82762145996094 C 305.1507873535156 193.29141235351562 303.0044250488281 221.4143524169922 310.7970886230469 214.12049865722656 L 310.7910461425781 203.82762145996094" stroke-width="2.0" fill="rgb(51, 78, 84)" opacity="1.330079" stroke="rgb(0, 0, 0)" stroke-opacity="0.0" stroke-linecap="round" stroke-linejoin="round"/>
    <path d="M 208.3172149658203 200.9051971435547 C 202.97979736328125 216.4915313720703 215.40419006347656 221.74964904785156 212.07102966308594 201.6245880126953 L 208.3172149658203 200.9051971435547" stroke-width="2.0" fill="rgb(62, 55, 51)" opacity="0.8938376" stroke="rgb(0, 0, 0)" stroke-opacity="0.0" stroke-linecap="round" stroke-linejoin="round"/>
    <path d="M 268.0326843261719 262.1285400390625 C 262.8228759765625 266.44647216796875 284.3714599609375 266.98944091796875 278.9725341796875 262.07110595703125 L 268.0326843261719 262.1285400390625" stroke-width="2.0" fill="rgb(111, 161, 179)" opacity="1.0030934" stroke="rgb(0, 0, 0)" stroke-opacity="0.0" stroke-linecap="round" stroke-linejoin="round"/>
    <path d="M 270.6759033203125 226.73936462402344 C 265.6680603027344 236.6724853515625 295.8271179199219 236.02919006347656 294.47137451171875 226.66683959960938 L 270.6759033203125 226.73936462402344" stroke-width="2.0" fill="rgb(245, 161, 83)" opacity="0.5484741" stroke="rgb(0, 0, 0)" stroke-opacity="0.0" stroke-linecap="round" stroke-linejoin="round"/>
    <path d="M 134.88426208496094 234.9074249267578 C 128.49510192871094 231.90296936035156 133.28021240234375 249.67091369628906 134.8017120361328 250.15414428710938 L 134.88426208496094 234.9074249267578" stroke-width="2.0" fill="rgb(72, 60, 46)" opacity="1.0627861" stroke="rgb(0, 0, 0)" stroke-opacity="0.0" stroke-linecap="round" stroke-linejoin="round"/>
    <path d="M 198.80166625976562 202.78245544433594 C 196.63084411621094 226.32855224609375 204.55938720703125 227.873291015625 202.36093139648438 202.5196990966797 L 198.80166625976562 202.78245544433594" stroke-width="2.0" fill="rgb(39, 47, 60)" opacity="0.84709716" stroke="rgb(0, 0, 0)" stroke-opacity="0.0" stroke-linecap="round" stroke-linejoin="round"/>
    <path d="M 328.0029602050781 237.57614135742188 C 324.21759033203125 257.8674621582031 346.8255310058594 238.3580322265625 328.0029602050781 237.57614135742188" stroke-width="2.0" fill="rgb(115, 167, 186)" opacity="1.0732037" stroke="rgb(0, 0, 0)" stroke-opacity="0.0" stroke-linecap="round" stroke-linejoin="round"/>
    <path d="M 283.7784729003906 262.0387878417969 C 279.27655029296875 267.893310546875 300.1276550292969 269.154052734375 291.7060241699219 261.7008361816406 L 283.7784729003906 262.0387878417969" stroke-width="2.0" fill="rgb(62, 153, 203)" opacity="0.4443258" stroke="rgb(0, 0, 0)" stroke-opacity="0.0" stroke-linecap="round" stroke-linejoin="round"/>
    <path d="M 218.3139190673828 262.5813903808594 C 219.97793579101562 270.86541748046875 241.16571044921875 259.9311218261719 218.3139190673828 262.5813903808594" stroke-width="2.0" fill="rgb(106, 161, 176)" opacity="0.94425887" stroke="rgb(0, 0, 0)" stroke-opacity="0.0" stroke-linecap="round" stroke-linejoin="round"/>
    <path d="M 135.09103393554688 189.93492126464844 C 114.39676666259766 194.40072631835938 136.73126220703125 195.59451293945312 135.09103393554688 189.93492126464844" stroke-width="2.0" fill="rgb(120, 115, 97)" opacity="1.218917" stroke="rgb(0, 0, 0)" stroke-opacity="0.0" stroke-linecap="round" stroke-linejoin="round"/>
    <path d="M 318.5362548828125 205.54124450683594 C 314.4974670410156 194.540283203125 312.81939697265625 222.34832763671875 318.8777160644531 215.41549682617188 L 318.5362548828125 205.54124450683594" stroke-width="2.0" fill="rgb(62, 82, 85)" opacity="1.497961" stroke="rgb(0, 0, 0)" stroke-opacity="0.0" stroke-linecap="round" stroke-linejoin="round"/>
    <path d="M 157.6239471435547 232.06214904785156 C 151.8389129638672 231.5818328857422 152.3427734375 248.64662170410156 157.49609375 246.4022216796875 L 157.6239471435547 232.06214904785156" stroke-width="2.0" fill="rgb(-39, 72, 134)" opacity="0.2096507" stroke="rgb(0, 0, 0)" stroke-opacity="0.0" stroke-linecap="round" stroke-linejoin="round"/>
    <path d="M 354.410400390625 239.34495544433594 C 352.1369323730469 268.1624450683594 414.9090270996094 249.6583709716797 354.410400390625 239.34495544433594" stroke-width="2.0" fill="rgb(259, 376, 455)" opacity="0.054100323" stroke="rgb(0, 0, 0)" stroke-opacity="0.0" stroke-linecap="round" stroke-linejoin="round"/>
    <path d="M 131.03787231445312 232.18499755859375 C 132.8760223388672 239.3363800048828 129.71234130859375 254.9519805908203 134.5810089111328 249.23709106445312 L 131.03787231445312 232.18499755859375" stroke-width="2.0" fill="rgb(63, 54, 37)" opacity="0.76216006" stroke="rgb(0, 0, 0)" stroke-opacity="0.0" stroke-linecap="round" stroke-linejoin="round"/>
    <path d="M 194.89651489257812 188.33485412597656 C 177.40280151367188 222.829833984375 206.38665771484375 228.52587890625 194.89651489257812 188.33485412597656" stroke-width="2.0" fill="rgb(-140, -157, -52)" opacity="0.08645719" stroke="rgb(0, 0, 0)" stroke-opacity="0.0" stroke-linecap="round" stroke-linejoin="round"/>
    <path d="M 328.1946716308594 263.7211608886719 C 342.01397705078125 277.5863342285156 342.7032470703125 254.41275024414062 328.1946716308594 263.7211608886719" stroke-width="2.0" fill="rgb(183, 162, 133)" opacity="1.3013091" stroke="rgb(0, 0, 0)" stroke-opacity="0.0" stroke-linecap="round" stroke-linejoin="round"/>
    <path d="M 311.247802734375 262.2311096191406 C 315.6516418457031 274.69622802734375 328.6894226074219 256.9850158691406 311.247802734375 262.2311096191406" stroke-width="2.0" fill="rgb(180, 167, 144)" opacity="1.3691412" stroke="rgb(0, 0, 0)" stroke-opacity="0.0" stroke-linecap="round" stroke-linejoin="round"/>
    <path d="M 119.51848602294922 235.4060821533203 L 116.36418151855469 249.77684020996094 L 119.51848602294922 235.4060821533203" stroke-width="2.0" fill="rgb(76, 65, 47)" opacity="1.0" stroke="rgb(0, 0, 0)" stroke-opacity="0.0" stroke-linecap="round" stroke-linejoin="round"/>
    <path d="M 63.497188568115234 167.283447265625 C 54.56362533569336 167.90423583984375 49.62870407104492 170.04568481445312 60.82811737060547 170.47996520996094 L 63.497188568115234 167.283447265625" stroke-width="2.0" fill="rgb(116, 108, 86)" opacity="1.1887238" stroke="rgb(0, 0, 0)" stroke-opacity="0.0" stroke-linecap="round" stroke-linejoin="round"/>
    <path d="M 324.0669250488281 203.47096252441406 C 317.3812561035156 217.2568817138672 329.0974426269531 224.9437713623047 324.0669250488281 203.47096252441406" stroke-width="2.0" fill="rgb(57, 64, 57)" opacity="1.0485628" stroke="rgb(0, 0, 0)" stroke-opacity="0.0" stroke-linecap="round" stroke-linejoin="round"/>
    <path d="M 188.4615936279297 206.733154296875 C 183.86825561523438 199.17079162597656 183.0466766357422 223.38418579101562 188.31185913085938 215.80409240722656 L 188.4615936279297 206.733154296875" stroke-width="2.0" fill="rgb(63, 55, 55)" opacity="0.76230276" stroke="rgb(0, 0, 0)" stroke-opacity="0.0" stroke-linecap="round" stroke-linejoin="round"/>
    <path d="M 129.4941864013672 173.87411499023438 C 109.48040008544922 178.9897918701172 129.2222137451172 181.22439575195312 129.4941864013672 173.87411499023438" stroke-width="2.0" fill="rgb(116, 110, 89)" opacity="1.1303158" stroke="rgb(0, 0, 0)" stroke-opacity="0.0" stroke-linecap="round" stroke-linejoin="round"/>
  </g>
</svg>
