<?xml version="1.0" ?>
<svg xmlns="http://www.w3.org/2000/svg" version="1.1" width="512" height="512">
  <defs/>
  <g>
    <path d="M 370.8795166015625 219.79710388183594 C 290.2217102050781 222.3027801513672 290.6312255859375 222.1016387939453 244.5394287109375 220.52410888671875 C 222.23814392089844 218.3404083251953 188.29652404785156 223.7761688232422 141.57615661621094 222.83352661132812 C 186.68618774414062 120.40931701660156 202.74095153808594 119.75525665283203 343.9179992675781 124.22808074951172 C 330.56048583984375 153.9442596435547 332.9644775390625 148.5713348388672 370.8795166015625 219.79710388183594" stroke-width="0.0" fill="rgb(130, 46, 6)" opacity="0.6708834" stroke="rgb(157, 84, 174)" stroke-opacity="0.64049506" stroke-linecap="round" stroke-linejoin="round"/>
    <path d="M 496.7043762207031 227.91404724121094 C 364.6513366699219 121.74444580078125 329.3055114746094 88.7440414428711 295.8594055175781 61.087005615234375 C 283.1678771972656 55.45963668823242 296.69403076171875 56.68592071533203 267.16534423828125 37.093849182128906 C 254.7942657470703 -4.882215976715088 212.19607543945312 119.16558837890625 124.86705017089844 0.35341358184814453 C 512.1316528320312 -41.134803771972656 532.7935791015625 -76.5280532836914 496.7043762207031 227.91404724121094" stroke-width="0.0" fill="rgb(255, 255, 235)" opacity="0.8740455" stroke="rgb(104, 221, 32)" stroke-opacity="0.34819576" stroke-linecap="round" stroke-linejoin="round"/>
    <path d="M 395.6275939941406 461.6668701171875 C 404.8970947265625 570.13037109375 363.48162841796875 534.7432250976562 307.97064208984375 524.02587890625 C 215.57920837402344 525.0203247070312 198.56431579589844 542.1300048828125 109.29985809326172 499.2843017578125 C 104.8877944946289 427.1813659667969 165.92160034179688 458.4908752441406 254.34461975097656 480.6567687988281 C 275.4354248046875 485.7116394042969 273.50982666015625 445.7862548828125 395.6275939941406 461.6668701171875" stroke-width="0.0" fill="rgb(255, 255, 236)" opacity="0.8327692" stroke="rgb(216, 135, 125)" stroke-opacity="0.13147211" stroke-linecap="round" stroke-linejoin="round"/>
    <path d="M 127.7174072265625 -14.925505638122559 C 87.57754516601562 104.29893493652344 176.99864196777344 133.1351776123047 77.47550201416016 184.92245483398438 C -49.54996109008789 272.1394348144531 -10.286221504211426 313.57012939453125 -12.990687370300293 90.4091567993164 C -22.611230850219727 -18.54290008544922 -1.4755808115005493 -12.476663589477539 81.57792663574219 -9.846942901611328 C 82.797607421875 -0.7040570378303528 76.66268157958984 -18.64556312561035 127.7174072265625 -14.925505638122559" stroke-width="0.0" fill="rgb(255, 255, 235)" opacity="0.833834" stroke="rgb(98, 11, 53)" stroke-opacity="0.05579824" stroke-linecap="round" stroke-linejoin="round"/>
    <path d="M 518.8746337890625 202.4922332763672 C 515.0209350585938 284.62451171875 566.9982299804688 319.83856201171875 479.875 283.60650634765625 C 524.4624633789062 198.5734405517578 483.2227783203125 237.71578979492188 446.1850280761719 201.34320068359375 C 482.7409362792969 199.32559204101562 353.24102783203125 20.809999465942383 510.099853515625 -10.451128005981445 C 535.7225341796875 144.62506103515625 519.983154296875 156.21072387695312 518.8746337890625 202.4922332763672" stroke-width="0.0" fill="rgb(247, 241, 218)" opacity="0.9899104" stroke="rgb(5, 177, 194)" stroke-opacity="0.4929571" stroke-linecap="round" stroke-linejoin="round"/>
    <path d="M 135.7611083984375 467.6830749511719 C 146.74252319335938 539.1292724609375 139.8222198486328 527.2411499023438 62.22243118286133 528.0003051757812 C 7.927814960479736 528.3776245117188 -14.353924751281738 537.9166259765625 -6.703125953674316 464.32403564453125 C 27.605989456176758 455.8548278808594 29.609943389892578 456.4646301269531 75.59548950195312 450.9090881347656 C 92.36690521240234 463.8375244140625 110.28778839111328 476.695556640625 135.7611083984375 467.6830749511719" stroke-width="0.0" fill="rgb(248, 243, 220)" opacity="0.8997685" stroke="rgb(182, 163, 185)" stroke-opacity="0.72814006" stroke-linecap="round" stroke-linejoin="round"/>
    <path d="M 530.4716186523438 491.2506103515625 C 499.261962890625 535.3142700195312 485.6925048828125 521.7316284179688 441.6782531738281 518.4756469726562 C 394.09539794921875 523.0791015625 376.7001647949219 544.002685546875 376.6710510253906 475.84588623046875 C 375.571533203125 435.0899963378906 451.4842834472656 452.9717102050781 416.63018798828125 454.16632080078125 C 527.1060791015625 461.768798828125 538.5127563476562 447.014404296875 530.4716186523438 491.2506103515625" stroke-width="0.0" fill="rgb(248, 242, 219)" opacity="0.9283359" stroke="rgb(62, 139, 50)" stroke-opacity="0.22764072" stroke-linecap="round" stroke-linejoin="round"/>
    <path d="M 186.94911193847656 231.37278747558594 C 234.0817108154297 211.15728759765625 250.73178100585938 341.28179931640625 157.75979614257812 313.76910400390625 C 147.5579071044922 276.9554138183594 129.3230438232422 363.8573303222656 132.75718688964844 283.0376281738281 C 242.2786407470703 280.2992858886719 135.93812561035156 284.7220764160156 146.1287384033203 272.1171875 C 225.96958923339844 266.3519592285156 174.9402618408203 296.67718505859375 186.94911193847656 231.37278747558594" stroke-width="0.0" fill="rgb(255, 255, 236)" opacity="0.8023796" stroke="rgb(206, 111, 157)" stroke-opacity="0.20447673" stroke-linecap="round" stroke-linejoin="round"/>
    <path d="M 379.1196594238281 278.1326904296875 C 393.5030822753906 349.6383361816406 333.3828430175781 263.3653564453125 339.00750732421875 318.38885498046875 C 275.08648681640625 326.735595703125 289.9247741699219 358.38641357421875 289.36590576171875 243.1390838623047 C 345.3293762207031 203.18836975097656 330.2669677734375 276.0152893066406 318.4765625 277.5319519042969 C 321.1711730957031 279.5859680175781 354.77923583984375 278.7587585449219 379.1196594238281 278.1326904296875" stroke-width="0.0" fill="rgb(255, 255, 235)" opacity="0.79301864" stroke="rgb(237, 65, 88)" stroke-opacity="0.4941193" stroke-linecap="round" stroke-linejoin="round"/>
    <path d="M 224.2599334716797 60.4927978515625 C 159.91954040527344 111.17522430419922 179.83953857421875 118.09544372558594 175.83154296875 54.90903854370117 C 98.71753692626953 49.855987548828125 108.64078521728516 61.201751708984375 107.33563995361328 30.935083389282227 C 104.0486068725586 -3.057429552078247 117.00987243652344 -11.592002868652344 140.11842346191406 -14.212747573852539 C 272.5043029785156 59.9257698059082 265.2823181152344 10.26774787902832 224.2599334716797 60.4927978515625" stroke-width="0.0" fill="rgb(246, 241, 218)" opacity="0.98350966" stroke="rgb(181, 32, 204)" stroke-opacity="0.8061309" stroke-linecap="round" stroke-linejoin="round"/>
    <path d="M 496.4365234375 228.41810607910156 C 431.86993408203125 259.32745361328125 458.5030822753906 247.20680236816406 445.6103210449219 308.6640625 C 440.9033203125 248.81103515625 408.2974853515625 228.42822265625 403.02130126953125 238.5735321044922 C 405.0539245605469 213.52871704101562 396.3907470703125 203.0225830078125 425.7923278808594 212.60340881347656 C 480.2886657714844 216.88531494140625 500.9268798828125 189.5050811767578 496.4365234375 228.41810607910156" stroke-width="0.0" fill="rgb(247, 242, 220)" opacity="0.9734404" stroke="rgb(203, 243, 33)" stroke-opacity="0.49267766" stroke-linecap="round" stroke-linejoin="round"/>
    <path d="M 56.234798431396484 297.897705078125 C 70.86329650878906 333.9012756347656 55.7867546081543 281.9653625488281 35.127235412597656 328.50152587890625 C 7.850038528442383 287.9256286621094 15.534423828125 298.3454284667969 3.1805286407470703 327.7741394042969 C -52.04252624511719 229.26080322265625 5.583170413970947 246.09005737304688 17.36644172668457 278.0037841796875 C 99.24787139892578 273.0872497558594 -0.43461158871650696 287.39202880859375 56.234798431396484 297.897705078125" stroke-width="0.0" fill="rgb(255, 255, 235)" opacity="0.86877936" stroke="rgb(192, 3, 90)" stroke-opacity="0.738228" stroke-linecap="round" stroke-linejoin="round"/>
    <path d="M 288.2572937011719 268.69757080078125 C 285.2042236328125 385.5935363769531 306.0693664550781 349.6255187988281 245.65501403808594 280.2160339355469 C 218.37171936035156 410.6758117675781 226.5191192626953 448.3381652832031 223.31515502929688 274.90289306640625 C 209.9722442626953 280.03717041015625 192.51478576660156 232.0270538330078 228.16171264648438 255.2539825439453 C 312.5218505859375 258.5182189941406 317.8670349121094 226.44113159179688 288.2572937011719 268.69757080078125" stroke-width="0.0" fill="rgb(93, 17, 0)" opacity="0.76096094" stroke="rgb(29, 140, 12)" stroke-opacity="0.69326735" stroke-linecap="round" stroke-linejoin="round"/>
    <path d="M 108.68610382080078 211.58645629882812 C 114.45079803466797 303.2743225097656 91.63411712646484 189.4226531982422 80.43433380126953 246.81634521484375 C 46.706668853759766 196.37591552734375 10.9033203125 245.58526611328125 52.284454345703125 158.59420776367188 C 86.48372650146484 206.4951171875 39.140228271484375 234.49786376953125 92.13191223144531 196.53573608398438 C 74.47071075439453 240.51199340820312 99.13260650634766 195.08746337890625 108.68610382080078 211.58645629882812" stroke-width="0.0" fill="rgb(248, 243, 220)" opacity="0.962055" stroke="rgb(44, 94, 78)" stroke-opacity="0.9956661" stroke-linecap="round" stroke-linejoin="round"/>
    <path d="M 180.77125549316406 225.17315673828125 C 214.7533721923828 285.1319580078125 118.26505279541016 293.42254638671875 148.1395263671875 228.3814697265625 C 61.38479995727539 266.22747802734375 161.0613250732422 184.384765625 61.13547897338867 210.54672241210938 C 77.33351135253906 174.83518981933594 142.72947692871094 139.41073608398438 262.2357177734375 23.82036781311035 C 339.35382080078125 206.03565979003906 128.23736572265625 54.614532470703125 180.77125549316406 225.17315673828125" stroke-width="0.0" fill="rgb(89, 14, 0)" opacity="0.42908394" stroke="rgb(63, 142, 186)" stroke-opacity="0.34150112" stroke-linecap="round" stroke-linejoin="round"/>
    <path d="M 147.26837158203125 270.40716552734375 C 134.31964111328125 267.24127197265625 151.5933380126953 296.57470703125 139.33099365234375 294.8584899902344 C 113.16728973388672 259.6378479003906 124.85690307617188 279.71429443359375 111.62956237792969 271.0911560058594 C 112.38922119140625 215.0325164794922 106.62007141113281 237.91909790039062 130.87709045410156 233.65496826171875 C 151.68447875976562 240.20382690429688 146.40965270996094 228.81752014160156 147.26837158203125 270.40716552734375" stroke-width="0.0" fill="rgb(247, 242, 219)" opacity="0.9582583" stroke="rgb(132, 126, 65)" stroke-opacity="0.91862345" stroke-linecap="round" stroke-linejoin="round"/>
    <path d="M 390.53985595703125 244.8088836669922 C 382.9178771972656 257.26904296875 396.1301574707031 262.3482666015625 379.70989990234375 272.31939697265625 C 385.45745849609375 295.6763916015625 361.8163757324219 267.9007263183594 364.7397155761719 257.1567077636719 C 359.0873107910156 231.22023010253906 360.81640625 227.71873474121094 373.2437438964844 234.24122619628906 C 409.2414245605469 214.0986328125 406.3200988769531 250.8502197265625 390.53985595703125 244.8088836669922" stroke-width="0.0" fill="rgb(255, 255, 233)" opacity="0.8284308" stroke="rgb(206, 202, 165)" stroke-opacity="0.52914464" stroke-linecap="round" stroke-linejoin="round"/>
    <path d="M 162.34767150878906 110.6070556640625 C 153.1143798828125 109.53974151611328 166.43125915527344 121.57733917236328 129.15357971191406 129.0670623779297 C 129.62173461914062 134.1155548095703 127.588623046875 128.89645385742188 127.72640228271484 95.77364349365234 C 127.31303405761719 88.41423797607422 134.2554473876953 83.92752838134766 140.63348388671875 88.23974609375 C 169.28012084960938 87.16191864013672 160.8100128173828 91.27886199951172 162.34767150878906 110.6070556640625" stroke-width="0.0" fill="rgb(255, 255, 234)" opacity="0.81104636" stroke="rgb(26, 111, 216)" stroke-opacity="0.62494236" stroke-linecap="round" stroke-linejoin="round"/>
    <path d="M 15.896641731262207 379.2062683105469 C 18.169132232666016 385.9549560546875 35.76865005493164 393.75274658203125 5.5640869140625 401.2380676269531 C -6.765352725982666 425.2730407714844 -5.811080455780029 416.4665832519531 -13.652424812316895 362.52093505859375 C 19.548959732055664 378.9757080078125 -0.7774638533592224 351.21502685546875 30.341672897338867 361.9239501953125 C 68.87483215332031 408.8718566894531 11.702104568481445 347.2571716308594 15.896641731262207 379.2062683105469" stroke-width="0.0" fill="rgb(255, 255, 234)" opacity="0.8686584" stroke="rgb(162, 114, 15)" stroke-opacity="0.06018253" stroke-linecap="round" stroke-linejoin="round"/>
    <path d="M 445.7976989746094 204.476806640625 C 387.7537841796875 196.53689575195312 406.3670959472656 223.95236206054688 402.76800537109375 240.3474884033203 C 398.05718994140625 208.9381866455078 362.097900390625 232.95962524414062 310.5312805175781 206.8993377685547 C 410.11090087890625 157.97286987304688 272.1805114746094 140.3155517578125 271.10028076171875 45.87838363647461 C 438.6191711425781 208.22705078125 467.5634460449219 179.58299255371094 445.7976989746094 204.476806640625" stroke-width="0.0" fill="rgb(120, 48, 21)" opacity="0.8736625" stroke="rgb(49, 224, 178)" stroke-opacity="0.78906775" stroke-linecap="round" stroke-linejoin="round"/>
    <path d="M 522.4051513671875 306.08837890625 C 524.403076171875 336.2090759277344 532.2443237304688 322.49407958984375 475.40228271484375 322.900390625 C 450.9156188964844 348.22503662109375 404.5863342285156 348.3746643066406 475.1346740722656 321.8720703125 C 492.2528076171875 298.48193359375 494.6314392089844 304.4126892089844 510.49163818359375 290.0324401855469 C 522.0519409179688 284.8995361328125 522.02685546875 287.8661193847656 522.4051513671875 306.08837890625" stroke-width="0.0" fill="rgb(254, 255, 235)" opacity="0.8766393" stroke="rgb(250, 19, 73)" stroke-opacity="0.58762765" stroke-linecap="round" stroke-linejoin="round"/>
    <path d="M 208.0265655517578 445.2149963378906 C 166.8218231201172 426.65142822265625 141.6346893310547 461.73931884765625 111.90399169921875 421.3200378417969 C 107.38473510742188 454.2027282714844 124.2254867553711 435.547119140625 -32.631370544433594 441.6700744628906 C 66.54119873046875 369.5451354980469 100.61616516113281 292.86767578125 100.9137191772461 314.1300354003906 C 186.70126342773438 380.1345520019531 212.1704559326172 348.438232421875 208.0265655517578 445.2149963378906" stroke-width="0.0" fill="rgb(99, 23, 6)" opacity="0.60456765" stroke="rgb(199, 139, 227)" stroke-opacity="0.6340397" stroke-linecap="round" stroke-linejoin="round"/>
    <path d="M 253.0717315673828 231.42124938964844 C 248.14666748046875 254.8443145751953 265.4186706542969 250.85397338867188 229.46836853027344 249.32354736328125 C 224.52162170410156 232.63665771484375 225.8384246826172 254.95602416992188 208.15042114257812 249.26058959960938 C 191.70126342773438 225.09983825683594 212.49725341796875 224.47952270507812 247.1278839111328 225.4064178466797 C 273.32049560546875 220.40679931640625 257.5303649902344 239.63424682617188 253.0717315673828 231.42124938964844" stroke-width="0.0" fill="rgb(239, 227, 204)" opacity="1.0" stroke="rgb(240, 113, 178)" stroke-opacity="0.11360521" stroke-linecap="round" stroke-linejoin="round"/>
    <path d="M 423.3997497558594 365.70391845703125 C 403.91925048828125 375.12371826171875 419.931884765625 413.23406982421875 430.8172912597656 424.1861877441406 C 396.79931640625 406.2826843261719 404.1900329589844 398.6058349609375 400.9173278808594 311.64166259765625 C 403.05377197265625 230.13082885742188 397.4530334472656 252.7408905029297 420.5725402832031 326.46368408203125 C 454.2189025878906 334.4693908691406 431.193115234375 324.9936218261719 423.3997497558594 365.70391845703125" stroke-width="0.0" fill="rgb(82, 12, 2)" opacity="0.8138157" stroke="rgb(23, 173, 207)" stroke-opacity="0.9163674" stroke-linecap="round" stroke-linejoin="round"/>
    <path d="M 97.44123077392578 422.2447204589844 C 92.64633178710938 438.4302978515625 91.18065643310547 439.13079833984375 68.51304626464844 437.17938232421875 C 68.99144744873047 430.97125244140625 68.10442352294922 423.1673278808594 60.40182113647461 429.9195861816406 C 61.637786865234375 408.5211486816406 66.05966186523438 407.2815246582031 78.0126724243164 403.9657897949219 C 86.27873992919922 405.24652099609375 90.8429183959961 410.60565185546875 97.44123077392578 422.2447204589844" stroke-width="0.0" fill="rgb(248, 216, 176)" opacity="0.6021414" stroke="rgb(230, 114, 39)" stroke-opacity="0.4998311" stroke-linecap="round" stroke-linejoin="round"/>
    <path d="M 364.81109619140625 230.22421264648438 C 364.3101501464844 277.19622802734375 367.0185852050781 242.81259155273438 357.0973205566406 253.2669677734375 C 373.1099548339844 277.3654479980469 322.29827880859375 273.9366149902344 327.6439208984375 268.5596008300781 C 326.8679504394531 219.78919982910156 328.65606689453125 233.11131286621094 321.0275573730469 228.77357482910156 C 371.0556945800781 228.34506225585938 381.8163146972656 227.526123046875 364.81109619140625 230.22421264648438" stroke-width="0.0" fill="rgb(96, 33, 18)" opacity="1.0" stroke="rgb(50, 104, 25)" stroke-opacity="0.494864" stroke-linecap="round" stroke-linejoin="round"/>
    <path d="M 415.3799743652344 278.5479431152344 C 417.27288818359375 306.4369812011719 442.12591552734375 358.2273254394531 414.5858154296875 310.0243835449219 C 399.27508544921875 299.1627502441406 404.57275390625 325.8100891113281 404.249267578125 269.7962341308594 C 404.577880859375 290.7008361816406 403.8332214355469 265.82672119140625 403.2691345214844 228.3693389892578 C 418.742919921875 228.18209838867188 405.5158386230469 235.3728485107422 415.3799743652344 278.5479431152344" stroke-width="0.0" fill="rgb(247, 242, 219)" opacity="0.9829112" stroke="rgb(169, 143, 200)" stroke-opacity="0.6390142" stroke-linecap="round" stroke-linejoin="round"/>
    <path d="M 350.03985595703125 399.767333984375 C 361.23724365234375 459.7642517089844 368.0030517578125 439.6087951660156 311.1148376464844 440.6559753417969 C 341.5321044921875 404.1876525878906 229.9042205810547 430.9853820800781 304.7390441894531 415.58770751953125 C 313.3886413574219 403.8603210449219 277.6382141113281 380.4319763183594 336.8020935058594 381.5774841308594 C 367.6741027832031 444.2174377441406 279.7693176269531 369.52593994140625 350.03985595703125 399.767333984375" stroke-width="0.0" fill="rgb(81, 16, 6)" opacity="0.8352973" stroke="rgb(72, 242, 181)" stroke-opacity="0.3215898" stroke-linecap="round" stroke-linejoin="round"/>
    <path d="M 301.6790466308594 232.30140686035156 C 271.02972412109375 250.08192443847656 314.8354797363281 248.80142211914062 263.7605895996094 250.42544555664062 C 244.83712768554688 248.85382080078125 270.9110107421875 253.99951171875 260.83880615234375 231.18536376953125 C 270.5550537109375 217.84910583496094 255.9437255859375 230.74635314941406 281.2592468261719 224.255615234375 C 277.25555419921875 239.11195373535156 304.4934387207031 220.53082275390625 301.6790466308594 232.30140686035156" stroke-width="0.0" fill="rgb(255, 255, 235)" opacity="0.85910773" stroke="rgb(62, 21, 193)" stroke-opacity="0.68732315" stroke-linecap="round" stroke-linejoin="round"/>
    <path d="M 473.5788269042969 445.4844055175781 C 416.3605041503906 405.3319396972656 435.4019775390625 450.1509094238281 426.4532470703125 439.9035339355469 C 342.9878845214844 450.0433044433594 351.5086364746094 436.16680908203125 336.6563415527344 436.0569152832031 C 328.96923828125 410.1580810546875 341.0339660644531 400.7037353515625 412.6234436035156 344.0223693847656 C 497.7614440917969 355.1059875488281 413.5423889160156 364.69671630859375 473.5788269042969 445.4844055175781" stroke-width="0.0" fill="rgb(99, 34, 18)" opacity="0.67462885" stroke="rgb(251, 27, 75)" stroke-opacity="0.76376885" stroke-linecap="round" stroke-linejoin="round"/>
    <path d="M 66.7471923828125 324.1155700683594 C 107.21630096435547 352.6639099121094 64.4951171875 326.4699401855469 61.77416229248047 332.9034729003906 C 53.017356872558594 373.705078125 53.70326614379883 327.6979675292969 53.18708038330078 329.87567138671875 C 46.960960388183594 297.9071960449219 46.35008239746094 297.2590026855469 68.68289184570312 317.0072326660156 C 65.05111694335938 314.1378479003906 105.00843048095703 328.9572448730469 66.7471923828125 324.1155700683594" stroke-width="0.0" fill="rgb(255, 255, 234)" opacity="0.8838094" stroke="rgb(182, 11, 142)" stroke-opacity="0.2146862" stroke-linecap="round" stroke-linejoin="round"/>
  </g>
</svg>
