<?xml version="1.0" ?>
<svg xmlns="http://www.w3.org/2000/svg" version="1.1" width="512" height="512">
  <defs/>
  <g>
    <path d="M 370.70318603515625 218.9544677734375 C 290.8143005371094 224.9340362548828 290.6860656738281 221.52903747558594 245.70773315429688 220.61001586914062 C 221.98020935058594 218.69168090820312 188.28662109375 224.20254516601562 141.56039428710938 222.61404418945312 C 186.71917724609375 121.01095581054688 202.7478485107422 120.94280242919922 345.3818054199219 125.6856460571289 C 331.898193359375 153.28125 333.80181884765625 147.16702270507812 370.70318603515625 218.9544677734375" stroke-width="0.0" fill="rgb(129, 42, 3)" opacity="0.68920374" stroke="rgb(157, 84, 174)" stroke-opacity="0.64049506" stroke-linecap="round" stroke-linejoin="round"/>
    <path d="M 496.6414489746094 228.28639221191406 C 364.8133239746094 121.45915222167969 329.13702392578125 88.91131591796875 295.960205078125 61.10896682739258 C 283.7989196777344 56.23829650878906 296.0768737792969 55.92445755004883 267.4613037109375 37.746334075927734 C 256.0881042480469 -6.188471794128418 212.1987762451172 118.65154266357422 124.81627655029297 0.30733397603034973 C 512.1316528320312 -41.13463592529297 532.7939453125 -76.52693939208984 496.6414489746094 228.28639221191406" stroke-width="0.0" fill="rgb(255, 255, 235)" opacity="0.871581" stroke="rgb(104, 221, 32)" stroke-opacity="0.34819576" stroke-linecap="round" stroke-linejoin="round"/>
    <path d="M 395.54364013671875 461.7200012207031 C 404.8510437011719 570.112060546875 363.4564208984375 534.7432250976562 307.964599609375 524.02587890625 C 215.60585021972656 525.0020141601562 198.72203063964844 541.7984008789062 108.51787567138672 499.6979675292969 C 105.52556610107422 426.5433654785156 167.06788635253906 459.3030090332031 254.1259002685547 480.6245422363281 C 276.4171142578125 485.6880798339844 273.4117431640625 445.77203369140625 395.54364013671875 461.7200012207031" stroke-width="0.0" fill="rgb(255, 255, 236)" opacity="0.8190717" stroke="rgb(216, 135, 125)" stroke-opacity="0.13147211" stroke-linecap="round" stroke-linejoin="round"/>
    <path d="M 128.80641174316406 -9.83594799041748 C 86.68291473388672 117.75669860839844 178.5948944091797 126.571044921875 75.26589965820312 186.37669372558594 C -45.384254455566406 274.74267578125 -19.77105140686035 304.3739929199219 -13.91801929473877 84.12313079833984 C -22.611230850219727 -18.54290008544922 -1.4755808115005493 -12.476663589477539 81.57792663574219 -9.846942901611328 C 82.797607421875 -0.7040570378303528 76.66268157958984 -18.64556312561035 128.80641174316406 -9.83594799041748" stroke-width="0.0" fill="rgb(255, 255, 234)" opacity="0.82060075" stroke="rgb(98, 11, 53)" stroke-opacity="0.05579824" stroke-linecap="round" stroke-linejoin="round"/>
    <path d="M 518.9483642578125 199.3760528564453 C 519.3449096679688 274.2132873535156 560.412353515625 320.39849853515625 480.2325439453125 283.39703369140625 C 522.0114135742188 199.89979553222656 491.9623718261719 242.17025756835938 446.6036071777344 201.8197021484375 C 483.1515197753906 189.42694091796875 360.5638122558594 19.104995727539062 510.2316589355469 -10.41459846496582 C 535.7225341796875 144.62506103515625 519.983154296875 156.21072387695312 518.9483642578125 199.3760528564453" stroke-width="0.0" fill="rgb(247, 241, 218)" opacity="0.9863758" stroke="rgb(5, 177, 194)" stroke-opacity="0.4929571" stroke-linecap="round" stroke-linejoin="round"/>
    <path d="M 133.88975524902344 468.0212707519531 C 145.03616333007812 539.765625 139.0733184814453 527.2779541015625 62.1640739440918 528.0003051757812 C 7.927814960479736 528.3776245117188 -14.353924751281738 537.9166259765625 -7.002098083496094 463.6922607421875 C 28.3017520904541 457.14227294921875 30.226791381835938 454.5799865722656 65.5902328491211 453.02886962890625 C 95.50768280029297 461.8428955078125 108.32141876220703 476.9740905761719 133.88975524902344 468.0212707519531" stroke-width="0.0" fill="rgb(249, 244, 221)" opacity="0.9075422" stroke="rgb(182, 163, 185)" stroke-opacity="0.72814006" stroke-linecap="round" stroke-linejoin="round"/>
    <path d="M 530.45947265625 491.2059631347656 C 499.261962890625 535.3142700195312 485.6925048828125 521.7316284179688 441.9203186035156 518.4756469726562 C 395.54833984375 522.94970703125 380.4693603515625 542.6836547851562 372.1373291015625 478.7644958496094 C 378.69012451171875 435.84906005859375 443.05389404296875 451.4842224121094 417.132568359375 454.2743835449219 C 525.8929443359375 461.8708190917969 538.2838134765625 446.4518737792969 530.45947265625 491.2059631347656" stroke-width="0.0" fill="rgb(248, 242, 219)" opacity="0.9238182" stroke="rgb(62, 139, 50)" stroke-opacity="0.22764072" stroke-linecap="round" stroke-linejoin="round"/>
    <path d="M 186.7845916748047 232.70582580566406 C 237.05953979492188 204.02337646484375 250.35987854003906 337.0654602050781 158.0381622314453 314.23876953125 C 147.61419677734375 276.5360412597656 129.30332946777344 364.06903076171875 132.70645141601562 283.1225891113281 C 234.27818298339844 280.0671691894531 150.32948303222656 285.81390380859375 143.50503540039062 272.4988708496094 C 226.86178588867188 265.1220397949219 175.39810180664062 297.4656982421875 186.7845916748047 232.70582580566406" stroke-width="0.0" fill="rgb(255, 255, 238)" opacity="0.7774637" stroke="rgb(206, 111, 157)" stroke-opacity="0.20447673" stroke-linecap="round" stroke-linejoin="round"/>
    <path d="M 379.71929931640625 277.8888854980469 C 391.4420471191406 350.0603332519531 337.3508605957031 262.9137268066406 338.21044921875 318.5880126953125 C 274.334228515625 327.33941650390625 290.8133544921875 356.5442810058594 289.04071044921875 243.2659149169922 C 346.2196350097656 203.13534545898438 323.7548828125 275.349365234375 320.9805908203125 278.2206726074219 C 318.8993835449219 278.934326171875 353.534423828125 279.3946533203125 379.71929931640625 277.8888854980469" stroke-width="0.0" fill="rgb(255, 255, 236)" opacity="0.7765461" stroke="rgb(237, 65, 88)" stroke-opacity="0.4941193" stroke-linecap="round" stroke-linejoin="round"/>
    <path d="M 224.4874725341797 60.04197692871094 C 160.19720458984375 111.72221374511719 179.77734375 118.44834899902344 175.8341522216797 54.92997360229492 C 101.17597961425781 49.890132904052734 110.12635803222656 61.402809143066406 110.14190673828125 31.14420509338379 C 110.02804565429688 -0.8743917942047119 119.53131103515625 -10.7221040725708 139.1226043701172 2.7060279846191406 C 258.29150390625 61.61014175415039 273.1809387207031 5.5091705322265625 224.4874725341797 60.04197692871094" stroke-width="0.0" fill="rgb(246, 240, 218)" opacity="0.98128164" stroke="rgb(181, 32, 204)" stroke-opacity="0.8061309" stroke-linecap="round" stroke-linejoin="round"/>
    <path d="M 495.6712646484375 228.35618591308594 C 436.1199035644531 257.90771484375 456.06939697265625 245.5102081298828 446.86474609375 305.9510192871094 C 437.1668701171875 249.32919311523438 412.7120056152344 228.46432495117188 403.37359619140625 241.4632568359375 C 404.4293518066406 206.19827270507812 397.4584045410156 206.71041870117188 425.2801818847656 212.57826232910156 C 479.79656982421875 216.47193908691406 502.0235290527344 191.79266357421875 495.6712646484375 228.35618591308594" stroke-width="0.0" fill="rgb(247, 242, 219)" opacity="0.96677476" stroke="rgb(203, 243, 33)" stroke-opacity="0.49267766" stroke-linecap="round" stroke-linejoin="round"/>
    <path d="M 56.24258804321289 297.6490783691406 C 70.7733383178711 330.4463195800781 49.13262176513672 288.4791259765625 35.637596130371094 328.2437438964844 C 8.27568531036377 290.53564453125 15.64388370513916 295.2931823730469 2.9941513538360596 328.2776184082031 C -37.99757766723633 225.88478088378906 2.2446982860565186 247.02410888671875 17.608531951904297 278.193359375 C 87.48979949951172 269.151611328125 4.296433448791504 290.0600891113281 56.24258804321289 297.6490783691406" stroke-width="0.0" fill="rgb(255, 255, 236)" opacity="0.8529651" stroke="rgb(192, 3, 90)" stroke-opacity="0.738228" stroke-linecap="round" stroke-linejoin="round"/>
    <path d="M 288.30615234375 267.63995361328125 C 284.7123107910156 371.1484375 306.0715026855469 366.4637145996094 247.60865783691406 291.4856262207031 C 220.0532684326172 398.1012878417969 225.4889678955078 425.23687744140625 223.33102416992188 275.76458740234375 C 216.27659606933594 277.7432556152344 200.799072265625 234.07449340820312 231.7381591796875 255.5818634033203 C 318.65411376953125 248.63595581054688 316.6551818847656 239.66378784179688 288.30615234375 267.63995361328125" stroke-width="0.0" fill="rgb(112, 30, 0)" opacity="0.7420009" stroke="rgb(29, 140, 12)" stroke-opacity="0.69326735" stroke-linecap="round" stroke-linejoin="round"/>
    <path d="M 108.51342010498047 209.7281494140625 C 114.66900634765625 304.33282470703125 92.99935150146484 190.4856414794922 79.87137603759766 245.93663024902344 C 50.55812454223633 203.91497802734375 19.50636100769043 236.02630615234375 37.40485763549805 168.0823974609375 C 86.56315612792969 216.06674194335938 43.67985153198242 227.34019470214844 92.95731353759766 197.31507873535156 C 73.22173309326172 239.17689514160156 98.19017791748047 198.75685119628906 108.51342010498047 209.7281494140625" stroke-width="0.0" fill="rgb(249, 245, 222)" opacity="0.9474611" stroke="rgb(44, 94, 78)" stroke-opacity="0.9956661" stroke-linecap="round" stroke-linejoin="round"/>
    <path d="M 184.4966583251953 228.4190673828125 C 201.36898803710938 292.712890625 134.1766357421875 289.3162841796875 149.06277465820312 229.30206298828125 C 67.95379638671875 251.3574676513672 153.73992919921875 187.74826049804688 60.77640914916992 209.99285888671875 C 86.2442626953125 176.81454467773438 135.7762451171875 130.68057250976562 269.8473205566406 25.603757858276367 C 282.4120788574219 197.97860717773438 127.8469467163086 84.42786407470703 184.4966583251953 228.4190673828125" stroke-width="0.0" fill="rgb(93, 16, 0)" opacity="0.43085" stroke="rgb(63, 142, 186)" stroke-opacity="0.34150112" stroke-linecap="round" stroke-linejoin="round"/>
  </g>
</svg>
