<?xml version="1.0" ?>
<svg xmlns="http://www.w3.org/2000/svg" version="1.1" width="512" height="380">
  <defs/>
  <g>
    <path d="M 0.44250765442848206 0.31200459599494934 L 510.7213134765625 0.31866511702537537 L 510.8289794921875 380.00653076171875 L 0.4372848868370056 380.0039367675781 L 0.44250765442848206 0.31200459599494934" stroke-width="0.0" fill="rgb(313, 299, 289)" opacity="1.2132514" stroke="rgb(0, 0, 0)" stroke-opacity="0.0" stroke-linecap="round" stroke-linejoin="round"/>
    <path d="M 0.7248154878616333 0.48824289441108704 L 1.3385472297668457 381.0932312011719 L 512.2454223632812 381.0986328125 L 511.7207946777344 0.5047199130058289 L 0.7248154878616333 0.48824289441108704" stroke-width="2.0" fill="rgb(154, 164, 172)" opacity="1.275885" stroke="rgb(0, 0, 0)" stroke-opacity="0.0" stroke-linecap="round" stroke-linejoin="round"/>
    <path d="M 0.6991904973983765 166.9627227783203 L -0.5866735577583313 381.0965270996094 L 512.8140258789062 381.10247802734375 L 512.8270263671875 311.5406494140625 C 489.15325927734375 318.0223083496094 467.32354736328125 324.2937927246094 443.7648620605469 312.1329040527344 C 375.96038818359375 333.2523498535156 311.7837829589844 336.2265930175781 243.99484252929688 315.78704833984375 C 224.31088256835938 318.45428466796875 206.2904815673828 319.9783630371094 189.42794799804688 314.9864196777344 C 141.9277801513672 286.28558349609375 98.61788940429688 242.9657440185547 57.439788818359375 200.48057556152344 C 36.131839752197266 192.06222534179688 20.412750244140625 177.43112182617188 0.6991904973983765 166.9627227783203" stroke-width="2.0" fill="rgb(174, 132, 122)" opacity="0.74636614" stroke="rgb(0, 0, 0)" stroke-opacity="0.0" stroke-linecap="round" stroke-linejoin="round"/>
    <path d="M 234.51341247558594 51.324195861816406 L 227.29254150390625 53.246971130371094 C 189.06434631347656 80.32595825195312 150.24351501464844 102.3532485961914 111.81954193115234 124.81200408935547 C 117.88982391357422 137.70143127441406 106.36192321777344 149.61412048339844 107.15996551513672 161.47021484375 C 100.93324279785156 169.42076110839844 99.18695068359375 177.12525939941406 98.78931427001953 183.98941040039062 C 94.46284484863281 195.53428649902344 75.51570892333984 207.29483032226562 74.25352478027344 219.76564025878906 C 86.58057403564453 236.19737243652344 109.93893432617188 249.77223205566406 122.28567504882812 263.4048156738281 C 139.12889099121094 258.0478820800781 130.1233673095703 277.6006164550781 145.66021728515625 283.2785339355469 C 196.8072509765625 263.8037109375 243.28436279296875 198.3439178466797 249.72943115234375 149.48550415039062 C 244.67173767089844 139.83058166503906 246.3058319091797 132.2687225341797 234.84686279296875 125.85746002197266 C 241.42291259765625 115.94181823730469 255.76295471191406 108.25363159179688 255.18548583984375 94.00120544433594 C 247.372314453125 91.02713775634766 238.01199340820312 87.49169921875 245.0188751220703 78.9300765991211 C 250.78697204589844 76.34942626953125 259.40643310546875 82.24730682373047 263.7154541015625 74.40635681152344 C 255.0572509765625 71.54073333740234 248.6898193359375 67.80816650390625 239.90000915527344 71.05887603759766 C 235.8425750732422 63.03714370727539 249.82862854003906 58.315792083740234 234.51341247558594 51.324195861816406" stroke-width="2.0" fill="rgb(270, 263, 254)" opacity="0.8261609" stroke="rgb(0, 0, 0)" stroke-opacity="0.0" stroke-linecap="round" stroke-linejoin="round"/>
    <path d="M 0.11757081001996994 163.1876678466797 L -1.5087237358093262 295.9212951660156 C 8.4240083694458 298.01025390625 4.7224531173706055 298.6762390136719 8.080207824707031 295.0740966796875 C 15.235984802246094 297.8594665527344 10.250226974487305 308.30096435546875 20.60559844970703 302.8273010253906 C 23.746482849121094 305.1423645019531 35.25977325439453 306.3030700683594 31.32048225402832 312.099853515625 C 35.69491195678711 312.7162780761719 34.800106048583984 311.78680419921875 38.595767974853516 313.604736328125 C 41.7635383605957 317.3438720703125 48.81544876098633 326.8544006347656 57.434627532958984 320.0267028808594 C 55.24430465698242 312.116455078125 54.730384826660156 294.1268005371094 59.01539611816406 302.60809326171875 C 64.7397689819336 297.5620422363281 81.4946060180664 313.74493408203125 93.06049346923828 314.4954833984375 C 118.53943634033203 344.2129211425781 146.5960693359375 331.27178955078125 174.50172424316406 345.701416015625 L 201.02577209472656 346.29132080078125 C 186.9736785888672 333.31414794921875 164.61744689941406 332.53179931640625 151.76589965820312 322.6024475097656 L 175.9503936767578 326.296142578125 C 189.03875732421875 339.6140441894531 213.11351013183594 329.9180603027344 233.64508056640625 336.99200439453125 C 227.9502716064453 329.25439453125 231.22190856933594 327.228271484375 234.4823760986328 330.3133239746094 C 261.1847839355469 346.46405029296875 288.40960693359375 343.4927062988281 318.24432373046875 346.6180725097656 C 321.9981384277344 336.61083984375 311.9931945800781 338.0604553222656 308.4233093261719 334.6212463378906 C 273.9722595214844 328.3205261230469 241.6160125732422 313.8506164550781 207.27005004882812 318.6261291503906 C 181.30963134765625 319.7524719238281 155.65850830078125 292.3679504394531 130.88780212402344 271.0169982910156 C 95.74407196044922 246.0149383544922 70.35872650146484 205.6371307373047 36.97713851928711 189.9995574951172 C 25.812110900878906 183.0828857421875 12.62181568145752 172.5346221923828 0.11757081001996994 163.1876678466797" stroke-width="2.0" fill="rgb(23, 30, 42)" opacity="0.94922966" stroke="rgb(0, 0, 0)" stroke-opacity="0.0" stroke-linecap="round" stroke-linejoin="round"/>
    <path d="M 512.8448486328125 192.03944396972656 C 500.2765197753906 193.35423278808594 489.592041015625 206.08126831054688 479.71923828125 211.66673278808594 C 428.2761535644531 243.2963409423828 374.6798095703125 277.9427795410156 325.2071838378906 307.8031005859375 C 377.85040283203125 319.9957275390625 438.0049133300781 313.03466796875 496.1609191894531 314.0135498046875 L 512.8295288085938 308.1068115234375 L 512.8448486328125 192.03944396972656" stroke-width="2.0" fill="rgb(66, 76, 90)" opacity="0.9497401" stroke="rgb(0, 0, 0)" stroke-opacity="0.0" stroke-linecap="round" stroke-linejoin="round"/>
    <path d="M 0.002884820569306612 359.9886169433594 L -0.06258270144462585 381.0907287597656 L 512.6316528320312 381.0965576171875 L 512.6668090820312 360.04217529296875 L 0.002884820569306612 359.9886169433594" stroke-width="2.0" fill="rgb(84, 113, 130)" opacity="0.9953812" stroke="rgb(0, 0, 0)" stroke-opacity="0.0" stroke-linecap="round" stroke-linejoin="round"/>
    <path d="M -0.08483602851629257 139.2113037109375 C 18.85591697692871 129.87672424316406 36.18878173828125 135.87149047851562 51.29274368286133 124.33736419677734 C 62.59159469604492 128.60220336914062 74.88177490234375 137.3623504638672 90.06400299072266 144.4329071044922 C 111.00173950195312 122.56249237060547 129.87551879882812 117.99424743652344 148.96072387695312 103.98104858398438 L 200.1693115234375 71.65709686279297 C 185.91627502441406 72.7506332397461 189.669921875 71.98131561279297 182.11781311035156 68.84944152832031 C 167.86158752441406 69.24773406982422 153.6703643798828 74.18309783935547 142.59957885742188 64.6651840209961 L -0.7517359256744385 65.0958251953125 L -0.08483602851629257 139.2113037109375" stroke-width="2.0" fill="rgb(115, 138, 149)" opacity="0.9645782" stroke="rgb(0, 0, 0)" stroke-opacity="0.0" stroke-linecap="round" stroke-linejoin="round"/>
    <path d="M 384.30950927734375 270.8466796875 C 362.7762145996094 256.41119384765625 337.8540344238281 243.996826171875 319.13623046875 218.8970184326172 L 309.14093017578125 216.4777374267578 C 279.7603759765625 227.26878356933594 252.94505310058594 250.99127197265625 223.38638305664062 260.25 C 198.8280487060547 289.541748046875 168.5439453125 263.4642333984375 145.4317169189453 282.33172607421875 C 153.33062744140625 295.3140563964844 160.46617126464844 290.9453430175781 167.21728515625 290.3317565917969 C 193.6411895751953 298.7869873046875 220.18679809570312 281.70733642578125 244.6627960205078 269.8734436035156 C 254.81468200683594 268.72650146484375 245.7901153564453 281.8745422363281 240.3536376953125 288.249267578125 C 257.87353515625 279.6266174316406 274.2558898925781 285.66082763671875 290.19354248046875 278.4237060546875 C 306.71795654296875 287.0909423828125 324.3275451660156 283.67059326171875 341.5550231933594 273.2856750488281 C 354.7667541503906 273.8194885253906 369.28118896484375 290.1732482910156 384.30950927734375 270.8466796875" stroke-width="2.0" fill="rgb(212, 210, 203)" opacity="0.987053" stroke="rgb(0, 0, 0)" stroke-opacity="0.0" stroke-linecap="round" stroke-linejoin="round"/>
    <path d="M 385.4419250488281 271.40850830078125 C 362.21630859375 256.2004699707031 338.41302490234375 243.40623474121094 317.8306579589844 217.38446044921875 C 292.3751220703125 222.44863891601562 276.1874084472656 260.05401611328125 252.90306091308594 270.08575439453125 C 249.24459838867188 276.0584411621094 240.39859008789062 288.826416015625 254.1592254638672 282.69183349609375 C 275.1527099609375 282.6127014160156 296.08624267578125 275.6444091796875 317.25604248046875 284.44476318359375 C 335.85662841796875 267.35491943359375 354.5481262207031 278.9608154296875 375.5713195800781 282.7250671386719 L 385.4419250488281 271.40850830078125" stroke-width="2.0" fill="rgb(190, 187, 178)" opacity="0.98565423" stroke="rgb(0, 0, 0)" stroke-opacity="0.0" stroke-linecap="round" stroke-linejoin="round"/>
    <path d="M 512.1581420898438 186.4720458984375 C 507.5535583496094 171.82708740234375 486.6446228027344 163.62692260742188 474.9834899902344 151.47471618652344 L 448.21185302734375 160.4910430908203 C 441.24884033203125 151.2228240966797 431.3445129394531 155.6212921142578 424.77374267578125 165.74276733398438 C 420.0865478515625 169.81190490722656 413.9237976074219 165.1155242919922 407.161865234375 163.11302185058594 L 391.26275634765625 174.01214599609375 L 432.04644775390625 216.27679443359375 C 447.349365234375 206.53802490234375 451.3307189941406 184.7876434326172 467.5108642578125 184.07427978515625 C 473.21343994140625 190.4806671142578 482.27490234375 204.9983367919922 484.0301818847656 190.6206512451172 C 491.3982849121094 197.05767822265625 503.2851257324219 201.2755584716797 512.1581420898438 186.4720458984375" stroke-width="2.0" fill="rgb(195, 194, 187)" opacity="1.0138916" stroke="rgb(0, 0, 0)" stroke-opacity="0.0" stroke-linecap="round" stroke-linejoin="round"/>
    <path d="M 88.65505981445312 143.86212158203125 C 75.6668701171875 136.523681640625 63.27240753173828 127.59864807128906 51.77267074584961 124.53152465820312 C 38.82538986206055 128.56434631347656 25.92584228515625 136.5400390625 13.9049711227417 133.2920684814453 C -0.7849056124687195 135.74093627929688 -2.58817458152771 143.9212646484375 -0.21867351233959198 156.12142944335938 C 7.0771379470825195 146.64735412597656 17.453994750976562 147.78196716308594 21.208168029785156 161.5349578857422 L 14.272720336914062 173.0994415283203 C 23.765661239624023 178.22930908203125 32.11741256713867 188.2952117919922 41.096046447753906 192.1220245361328 C 58.98358154296875 175.31271362304688 75.25237274169922 161.22410583496094 88.65505981445312 143.86212158203125" stroke-width="2.0" fill="rgb(186, 191, 185)" opacity="0.9413148" stroke="rgb(0, 0, 0)" stroke-opacity="0.0" stroke-linecap="round" stroke-linejoin="round"/>
    <path d="M 370.0467224121094 283.4129943847656 C 350.9477844238281 270.036376953125 334.34820556640625 271.99652099609375 317.5854797363281 285.3074645996094 L 287.1767883300781 276.67352294921875 C 262.0201416015625 294.5504455566406 233.93826293945312 301.7557067871094 209.9739532470703 314.7470397949219 L 335.6092224121094 315.13037109375 C 334.85699462890625 306.7455139160156 324.1075439453125 305.92730712890625 331.8984375 303.9140319824219 L 370.0467224121094 283.4129943847656" stroke-width="2.0" fill="rgb(100, 114, 129)" opacity="0.9498466" stroke="rgb(0, 0, 0)" stroke-opacity="0.0" stroke-linecap="round" stroke-linejoin="round"/>
    <path d="M 248.81900024414062 156.5608367919922 C 236.0204315185547 175.37741088867188 260.32818603515625 179.80101013183594 254.64378356933594 188.9561004638672 C 250.48794555664062 184.3699493408203 247.82833862304688 170.18844604492188 241.77029418945312 173.85308837890625 C 240.1154327392578 193.48143005371094 240.36602783203125 211.0556182861328 236.02374267578125 229.8333740234375 C 259.32745361328125 252.0911102294922 283.6903991699219 229.96351623535156 304.69439697265625 221.21072387695312 C 278.3016662597656 203.11976623535156 275.49554443359375 169.815185546875 248.81900024414062 156.5608367919922" stroke-width="2.0" fill="rgb(106, 121, 134)" opacity="0.97541434" stroke="rgb(0, 0, 0)" stroke-opacity="0.0" stroke-linecap="round" stroke-linejoin="round"/>
    <path d="M 237.85606384277344 188.4118194580078 C 219.00538635253906 215.9734649658203 204.4567413330078 252.1432342529297 170.046630859375 265.68548583984375 C 159.9799346923828 281.3895568847656 185.68984985351562 276.6741638183594 194.31002807617188 278.5200500488281 C 210.56878662109375 278.6746520996094 226.09710693359375 259.9674072265625 241.55410766601562 256.85015869140625 C 248.3105010986328 250.52374267578125 255.6025390625 251.99301147460938 262.96783447265625 243.2639923095703 C 253.22134399414062 237.4151611328125 243.06143188476562 235.76727294921875 237.63665771484375 227.0790252685547 C 237.49087524414062 216.61233520507812 245.70277404785156 204.0749969482422 237.85606384277344 188.4118194580078" stroke-width="2.0" fill="rgb(136, 148, 154)" opacity="0.9288258" stroke="rgb(0, 0, 0)" stroke-opacity="0.0" stroke-linecap="round" stroke-linejoin="round"/>
    <path d="M 190.30923461914062 85.14984893798828 C 174.25408935546875 102.15855407714844 148.04220581054688 124.71517181396484 152.8560791015625 142.9991455078125 C 142.53662109375 162.7839813232422 120.08518981933594 181.33758544921875 119.42058563232422 203.5980682373047 C 153.19886779785156 178.50924682617188 173.1914520263672 144.43399047851562 201.35643005371094 116.93900299072266 C 203.46029663085938 108.12653350830078 195.91348266601562 97.69931030273438 190.30923461914062 85.14984893798828" stroke-width="2.0" fill="rgb(131, 144, 153)" opacity="0.99600387" stroke="rgb(0, 0, 0)" stroke-opacity="0.0" stroke-linecap="round" stroke-linejoin="round"/>
    <path d="M 111.26736450195312 124.73948669433594 C 98.01104736328125 126.10195922851562 91.36886596679688 142.08433532714844 82.20085144042969 149.68218994140625 C 78.02310943603516 158.58331298828125 85.55618286132812 165.7417449951172 81.20313262939453 171.5028076171875 C 79.62645721435547 168.04554748535156 84.08416748046875 163.5093231201172 78.69486236572266 157.92063903808594 C 52.13976287841797 166.9586944580078 69.21485137939453 184.87510681152344 69.38188934326172 196.18409729003906 C 66.47643280029297 188.8324737548828 60.95964813232422 182.93203735351562 59.759742736816406 174.92103576660156 L 40.9505500793457 190.90411376953125 C 51.23667526245117 197.6085968017578 61.89395523071289 204.57310485839844 74.34193420410156 215.9633026123047 C 86.11992645263672 205.0642547607422 104.5073013305664 187.40196228027344 100.71769714355469 173.7176971435547 C 113.8663101196289 160.9274139404297 106.74076843261719 149.2216339111328 117.63803100585938 136.93179321289062 C 118.40296936035156 132.28956604003906 115.94367980957031 129.3228302001953 111.26736450195312 124.73948669433594" stroke-width="2.0" fill="rgb(133, 147, 155)" opacity="0.9086352" stroke="rgb(0, 0, 0)" stroke-opacity="0.0" stroke-linecap="round" stroke-linejoin="round"/>
    <path d="M 240.46458435058594 60.31348419189453 C 227.35235595703125 81.2071533203125 257.1683349609375 69.02071380615234 264.70538330078125 76.51605987548828 C 255.24801635742188 80.53640747070312 237.49534606933594 72.52763366699219 241.78187561035156 91.94104766845703 C 246.17823791503906 94.58995819091797 256.4809875488281 90.11060333251953 254.89486694335938 98.22346496582031 C 251.7321014404297 107.63862609863281 240.23619079589844 116.95945739746094 234.100341796875 126.29153442382812 C 245.88265991210938 139.74142456054688 257.1256408691406 140.8204345703125 271.2922058105469 141.7953643798828 L 272.2840576171875 108.92540740966797 C 277.2472229003906 101.49552917480469 286.95880126953125 97.59403991699219 294.6045227050781 89.8484878540039 C 278.93609619140625 72.84109497070312 259.34539794921875 61.09892654418945 240.46458435058594 60.31348419189453" stroke-width="2.0" fill="rgb(198, 194, 183)" opacity="0.9502829" stroke="rgb(0, 0, 0)" stroke-opacity="0.0" stroke-linecap="round" stroke-linejoin="round"/>
    <path d="M 207.7039337158203 164.07345581054688 C 177.0244140625 174.40928649902344 148.7451629638672 202.66334533691406 126.32998657226562 231.94790649414062 C 133.0802001953125 235.35598754882812 135.17398071289062 246.2223358154297 148.17526245117188 244.89036560058594 C 169.7676544189453 220.13990783691406 197.58511352539062 191.88760375976562 207.7039337158203 164.07345581054688" stroke-width="2.0" fill="rgb(131, 145, 153)" opacity="1.0034622" stroke="rgb(0, 0, 0)" stroke-opacity="0.0" stroke-linecap="round" stroke-linejoin="round"/>
    <path d="M 512.9536743164062 308.3216247558594 C 487.32275390625 315.35577392578125 465.46307373046875 324.3401794433594 444.16302490234375 317.24041748046875 C 416.5618896484375 327.98394775390625 388.9607238769531 334.0908508300781 361.0947265625 334.2650146484375 L 427.9936218261719 334.7754211425781 C 440.53265380859375 324.1257019042969 453.3258361816406 320.61810302734375 467.0858459472656 329.4665222167969 C 458.19940185546875 332.1719665527344 450.89959716796875 338.31768798828125 444.32818603515625 347.6018981933594 C 461.45086669921875 338.0223388671875 477.8003234863281 345.26397705078125 493.9722900390625 335.2958679199219 C 498.2312316894531 334.59326171875 504.0311279296875 341.30841064453125 512.7815551757812 338.75469970703125 L 512.9536743164062 308.3216247558594" stroke-width="2.0" fill="rgb(33, 38, 47)" opacity="1.0183364" stroke="rgb(0, 0, 0)" stroke-opacity="0.0" stroke-linecap="round" stroke-linejoin="round"/>
    <path d="M 0.3621281385421753 52.2714729309082 L -0.8555630445480347 65.33483123779297 L 139.51080322265625 65.06365203857422 C 121.98336791992188 52.220542907714844 100.3414535522461 56.84939193725586 81.4649887084961 45.20893859863281 C 69.89447021484375 49.57304000854492 59.24507141113281 42.740787506103516 47.337867736816406 43.47944641113281 C 37.71858596801758 56.6134147644043 27.467182159423828 39.39136505126953 16.594482421875 51.19468688964844 L 0.3621281385421753 52.2714729309082" stroke-width="2.0" fill="rgb(186, 187, 181)" opacity="1.0241671" stroke="rgb(0, 0, 0)" stroke-opacity="0.0" stroke-linecap="round" stroke-linejoin="round"/>
    <path d="M 478.2512512207031 174.7577667236328 C 466.5682678222656 172.50091552734375 472.40704345703125 187.55873107910156 463.9724426269531 183.43783569335938 C 451.2135314941406 194.65390014648438 419.05816650390625 225.95240783691406 440.866455078125 232.15956115722656 L 442.1058349609375 237.38540649414062 C 457.7467346191406 229.37034606933594 479.767333984375 215.57635498046875 498.7804260253906 199.3040771484375 C 494.03729248046875 190.95880126953125 484.9497985839844 183.95924377441406 478.2512512207031 174.7577667236328" stroke-width="2.0" fill="rgb(102, 119, 132)" opacity="0.92633474" stroke="rgb(0, 0, 0)" stroke-opacity="0.0" stroke-linecap="round" stroke-linejoin="round"/>
    <path d="M 238.65774536132812 137.8662567138672 C 207.26193237304688 152.94482421875 201.8743438720703 192.3600616455078 177.21226501464844 222.0742950439453 C 198.25625610351562 216.5869598388672 215.66746520996094 192.9990997314453 235.9679412841797 180.2247314453125 C 234.20738220214844 169.24880981445312 230.20736694335938 183.4720001220703 226.95037841796875 179.99246215820312 C 235.65933227539062 168.5230712890625 256.942138671875 152.99156188964844 238.65774536132812 137.8662567138672" stroke-width="2.0" fill="rgb(130, 144, 151)" opacity="0.99348986" stroke="rgb(0, 0, 0)" stroke-opacity="0.0" stroke-linecap="round" stroke-linejoin="round"/>
    <path d="M -0.1493726521730423 296.7449951171875 L -0.14257793128490448 327.0964660644531 C 21.75360107421875 343.2616882324219 44.275028228759766 341.461669921875 67.3903579711914 352.6751403808594 L 83.86495971679688 352.0166320800781 C 65.0707015991211 343.38104248046875 48.38383865356445 328.12994384765625 32.795772552490234 328.6278991699219 C 29.27293586730957 324.631103515625 47.77749252319336 329.8531188964844 48.66707992553711 322.7076416015625 C 31.96479034423828 312.9795837402344 16.317079544067383 306.36578369140625 -0.1493726521730423 296.7449951171875" stroke-width="2.0" fill="rgb(30, 35, 45)" opacity="0.9923086" stroke="rgb(0, 0, 0)" stroke-opacity="0.0" stroke-linecap="round" stroke-linejoin="round"/>
    <path d="M 53.980247497558594 123.84845733642578 C 39.9935417175293 130.2592315673828 24.254133224487305 131.44100952148438 13.068192481994629 147.3825225830078 C 21.322715759277344 155.62725830078125 27.009199142456055 163.78634643554688 15.952558517456055 172.79515075683594 C 32.3907470703125 196.482421875 42.09593200683594 165.3849639892578 53.537109375 155.96844482421875 C 42.07904815673828 148.03402709960938 67.55219268798828 133.80953979492188 53.980247497558594 123.84845733642578" stroke-width="2.0" fill="rgb(252, 248, 237)" opacity="0.940383" stroke="rgb(0, 0, 0)" stroke-opacity="0.0" stroke-linecap="round" stroke-linejoin="round"/>
    <path d="M 512.1290893554688 195.06008911132812 C 493.352783203125 196.08486938476562 481.03387451171875 217.1021728515625 479.8774108886719 231.1399688720703 C 467.5396423339844 240.73422241210938 472.0750732421875 250.32264709472656 472.29241943359375 261.770263671875 C 485.08990478515625 253.23190307617188 499.6497497558594 244.21263122558594 512.0486450195312 230.10960388183594 L 512.1290893554688 195.06008911132812" stroke-width="2.0" fill="rgb(24, 32, 44)" opacity="0.9161663" stroke="rgb(0, 0, 0)" stroke-opacity="0.0" stroke-linecap="round" stroke-linejoin="round"/>
    <path d="M 89.09303283691406 144.88858032226562 C 78.32225799560547 140.17343139648438 68.6770248413086 128.95640563964844 59.09976577758789 128.0436248779297 C 58.820823669433594 137.6009063720703 45.117191314697266 148.03236389160156 53.16537857055664 155.8927764892578 C 44.41191482543945 163.0159149169922 37.71918487548828 176.09976196289062 29.470701217651367 184.20590209960938 C 47.01396179199219 202.3070831298828 61.23812484741211 163.45533752441406 79.16588592529297 158.1826934814453 L 89.09303283691406 144.88858032226562" stroke-width="2.0" fill="rgb(195, 191, 181)" opacity="0.9620363" stroke="rgb(0, 0, 0)" stroke-opacity="0.0" stroke-linecap="round" stroke-linejoin="round"/>
    <path d="M 246.4239501953125 140.1903076171875 C 245.7738037109375 158.97325134277344 273.29339599609375 171.14230346679688 278.5494384765625 190.43077087402344 C 284.26025390625 195.89613342285156 286.2425231933594 199.7821502685547 295.48712158203125 204.65982055664062 C 303.0096130371094 196.98623657226562 299.7360534667969 191.26165771484375 293.1030578613281 182.15086364746094 C 295.15478515625 163.48684692382812 270.7583312988281 133.26107788085938 246.4239501953125 140.1903076171875" stroke-width="2.0" fill="rgb(106, 122, 134)" opacity="0.91907716" stroke="rgb(0, 0, 0)" stroke-opacity="0.0" stroke-linecap="round" stroke-linejoin="round"/>
    <path d="M 244.56394958496094 174.70553588867188 C 234.97946166992188 182.65391540527344 241.5115966796875 193.5405731201172 242.08172607421875 201.28282165527344 C 239.00831604003906 212.97850036621094 230.0477294921875 230.82717895507812 249.6002197265625 238.5683135986328 C 255.9790802001953 243.99615478515625 278.8410339355469 241.57936096191406 267.9764709472656 232.5467987060547 C 264.82073974609375 212.38661193847656 261.20928955078125 191.4638214111328 244.56394958496094 174.70553588867188" stroke-width="2.0" fill="rgb(102, 120, 132)" opacity="0.9138946" stroke="rgb(0, 0, 0)" stroke-opacity="0.0" stroke-linecap="round" stroke-linejoin="round"/>
    <path d="M 512.7684936523438 241.89239501953125 C 500.8280029296875 245.7787628173828 489.0422668457031 253.1824188232422 491.7733459472656 263.7095947265625 C 478.9050598144531 277.5152587890625 460.2285461425781 286.6760559082031 447.8982849121094 298.3589782714844 C 461.4945983886719 297.2350769042969 473.828369140625 287.9325866699219 486.0307312011719 291.2572937011719 C 489.0914306640625 292.4403991699219 482.67462158203125 292.27069091796875 485.9976501464844 296.93023681640625 L 512.7283935546875 278.7580261230469 L 512.7684936523438 241.89239501953125" stroke-width="2.0" fill="rgb(27, 35, 47)" opacity="0.98048204" stroke="rgb(0, 0, 0)" stroke-opacity="0.0" stroke-linecap="round" stroke-linejoin="round"/>
    <path d="M 182.82904052734375 139.65635681152344 C 166.45733642578125 164.45042419433594 129.2753448486328 190.87457275390625 126.4868392944336 216.32911682128906 C 155.5671844482422 202.22134399414062 180.12969970703125 170.03126525878906 189.2799530029297 145.86192321777344 L 182.82904052734375 139.65635681152344" stroke-width="2.0" fill="rgb(130, 142, 151)" opacity="0.9939698" stroke="rgb(0, 0, 0)" stroke-opacity="0.0" stroke-linecap="round" stroke-linejoin="round"/>
    <path d="M 357.11322021484375 18.60030746459961 C 338.44158935546875 4.1317644119262695 320.3758850097656 21.810688018798828 302.3955383300781 8.55613899230957 C 291.0102233886719 9.618196487426758 281.48712158203125 15.934228897094727 273.193603515625 16.758907318115234 C 264.6143493652344 15.193001747131348 255.360595703125 14.953739166259766 244.63365173339844 14.549712181091309 C 236.97048950195312 19.717931747436523 223.74038696289062 15.193909645080566 218.68222045898438 25.340112686157227 C 264.3399963378906 25.790000915527344 308.4358825683594 24.357982635498047 353.603271484375 26.582263946533203 L 357.11322021484375 18.60030746459961" stroke-width="2.0" fill="rgb(160, 168, 168)" opacity="1.1204336" stroke="rgb(0, 0, 0)" stroke-opacity="0.0" stroke-linecap="round" stroke-linejoin="round"/>
    <path d="M 466.2074890136719 322.83587646484375 C 447.7447204589844 304.4418640136719 425.5951232910156 323.87518310546875 405.84051513671875 330.052001953125 C 390.04742431640625 331.8610534667969 374.3969421386719 328.5185241699219 357.55255126953125 334.1706237792969 C 382.6561279296875 337.4922180175781 406.1585998535156 334.1703796386719 429.7604675292969 335.43280029296875 C 441.25555419921875 323.5875549316406 452.7569274902344 325.2894592285156 465.07403564453125 327.81396484375 L 466.2074890136719 322.83587646484375" stroke-width="2.0" fill="rgb(32, 34, 41)" opacity="0.9085873" stroke="rgb(0, 0, 0)" stroke-opacity="0.0" stroke-linecap="round" stroke-linejoin="round"/>
    <path d="M -0.05215170234441757 328.1396484375 L -0.13154906034469604 354.02178955078125 L 66.86290740966797 353.552001953125 C 40.60795593261719 341.3431091308594 23.130210876464844 344.87921142578125 -0.05215170234441757 328.1396484375" stroke-width="2.0" fill="rgb(144, 100, 88)" opacity="0.99108243" stroke="rgb(0, 0, 0)" stroke-opacity="0.0" stroke-linecap="round" stroke-linejoin="round"/>
    <path d="M 337.6737976074219 137.99148559570312 C 330.5570373535156 156.19847106933594 353.70745849609375 171.81602478027344 360.6978759765625 187.64492797851562 C 371.3226623535156 170.10598754882812 360.9023742675781 150.71322631835938 337.6737976074219 137.99148559570312" stroke-width="2.0" fill="rgb(106, 121, 132)" opacity="0.9809672" stroke="rgb(0, 0, 0)" stroke-opacity="0.0" stroke-linecap="round" stroke-linejoin="round"/>
    <path d="M 408.44256591796875 164.94586181640625 C 403.36163330078125 168.68377685546875 395.74664306640625 171.15310668945312 392.2024230957031 176.17576599121094 L 410.8726501464844 193.37936401367188 C 410.8563537597656 183.1758575439453 430.27410888671875 166.69882202148438 408.44256591796875 164.94586181640625" stroke-width="2.0" fill="rgb(232, 233, 227)" opacity="1.2252731" stroke="rgb(0, 0, 0)" stroke-opacity="0.0" stroke-linecap="round" stroke-linejoin="round"/>
    <path d="M 504.63525390625 22.608760833740234 C 483.5031433105469 13.131867408752441 455.7372741699219 12.900650024414062 434.7985534667969 24.24846649169922 C 458.4295654296875 28.471519470214844 481.74359130859375 28.426326751708984 504.63525390625 22.608760833740234" stroke-width="2.0" fill="rgb(127, 144, 151)" opacity="1.0867398" stroke="rgb(0, 0, 0)" stroke-opacity="0.0" stroke-linecap="round" stroke-linejoin="round"/>
    <path d="M 304.0380859375 238.1095428466797 C 284.0888366699219 246.75856018066406 300.07476806640625 272.5237731933594 314.49371337890625 257.8858642578125 C 320.7508544921875 249.8054656982422 314.7032775878906 235.0488739013672 304.0380859375 238.1095428466797" stroke-width="2.0" fill="rgb(130, 141, 149)" opacity="0.998166" stroke="rgb(0, 0, 0)" stroke-opacity="0.0" stroke-linecap="round" stroke-linejoin="round"/>
    <path d="M 474.0995178222656 154.56935119628906 C 466.5188293457031 153.9012451171875 456.668212890625 162.66001892089844 446.67901611328125 162.58680725097656 C 432.2676696777344 186.37261962890625 468.9376220703125 175.63294982910156 474.0995178222656 154.56935119628906" stroke-width="2.0" fill="rgb(246, 244, 233)" opacity="1.0181124" stroke="rgb(0, 0, 0)" stroke-opacity="0.0" stroke-linecap="round" stroke-linejoin="round"/>
    <path d="M 318.9381103515625 148.8443603515625 C 307.3938293457031 162.3501739501953 316.2124328613281 172.15032958984375 325.6468505859375 179.2452392578125 C 334.1849670410156 193.63926696777344 344.8489074707031 208.22607421875 350.2445068359375 222.48492431640625 C 350.7713317871094 203.0059814453125 354.906982421875 195.4553985595703 340.36920166015625 182.75437927246094 C 333.64593505859375 171.56863403320312 326.93389892578125 160.0531768798828 318.9381103515625 148.8443603515625" stroke-width="2.0" fill="rgb(116, 130, 139)" opacity="1.2061852" stroke="rgb(0, 0, 0)" stroke-opacity="0.0" stroke-linecap="round" stroke-linejoin="round"/>
    <path d="M -0.5295121073722839 288.8702392578125 L -0.004621028434485197 297.06219482421875 L 51.164363861083984 323.2087707519531 C 51.55424499511719 321.16632080078125 52.025760650634766 319.2910461425781 48.611717224121094 318.67694091796875 C 33.050750732421875 310.074462890625 16.34514045715332 300.29034423828125 -0.5295121073722839 288.8702392578125" stroke-width="2.0" fill="rgb(140, 104, 98)" opacity="0.9773897" stroke="rgb(0, 0, 0)" stroke-opacity="0.0" stroke-linecap="round" stroke-linejoin="round"/>
    <path d="M 11.772829055786133 148.49392700195312 C -6.643998146057129 155.91397094726562 -0.05794682726264 167.1978302001953 14.273303985595703 172.42739868164062 C 26.267902374267578 164.8929901123047 21.465431213378906 152.541748046875 11.772829055786133 148.49392700195312" stroke-width="2.0" fill="rgb(129, 142, 151)" opacity="0.79352385" stroke="rgb(0, 0, 0)" stroke-opacity="0.0" stroke-linecap="round" stroke-linejoin="round"/>
    <path d="M 283.2215576171875 152.307861328125 C 295.36212158203125 169.20628356933594 287.0986328125 186.8436279296875 306.0068359375 200.8049774169922 L 306.30157470703125 174.92547607421875 L 283.2215576171875 152.307861328125" stroke-width="2.0" fill="rgb(177, 178, 172)" opacity="0.93027407" stroke="rgb(0, 0, 0)" stroke-opacity="0.0" stroke-linecap="round" stroke-linejoin="round"/>
    <path d="M 150.1484832763672 138.58836364746094 C 136.1782989501953 153.2707061767578 114.14763641357422 167.79469299316406 117.6789779663086 184.3963165283203 C 126.3090591430664 169.6084747314453 149.66590881347656 156.78404235839844 150.1484832763672 138.58836364746094" stroke-width="2.0" fill="rgb(131, 140, 148)" opacity="0.98327774" stroke="rgb(0, 0, 0)" stroke-opacity="0.0" stroke-linecap="round" stroke-linejoin="round"/>
    <path d="M 225.16177368164062 133.412109375 C 211.18255615234375 140.06019592285156 194.62347412109375 154.5908203125 190.12594604492188 169.03953552246094 C 206.83529663085938 162.46533203125 217.02145385742188 150.33348083496094 225.16177368164062 133.412109375" stroke-width="2.0" fill="rgb(124, 136, 144)" opacity="0.9986093" stroke="rgb(0, 0, 0)" stroke-opacity="0.0" stroke-linecap="round" stroke-linejoin="round"/>
    <path d="M 132.7213592529297 234.7935028076172 C 125.43827056884766 242.30596923828125 102.53260803222656 252.62823486328125 119.30620574951172 260.4266052246094 C 130.54849243164062 260.7054748535156 143.43560791015625 250.88365173339844 132.7213592529297 234.7935028076172" stroke-width="2.0" fill="rgb(117, 132, 142)" opacity="0.8721267" stroke="rgb(0, 0, 0)" stroke-opacity="0.0" stroke-linecap="round" stroke-linejoin="round"/>
    <path d="M 65.6427230834961 50.3885612487793 C 57.659969329833984 43.25670623779297 48.14321517944336 42.58795166015625 45.41604232788086 50.79551315307617 C 39.17393493652344 50.56573486328125 17.80705451965332 60.40609359741211 33.87589645385742 61.72373580932617 C 41.71460723876953 54.90249252319336 48.03459167480469 53.11415481567383 55.692256927490234 58.732303619384766 L 65.6427230834961 50.3885612487793" stroke-width="2.0" fill="rgb(242, 239, 229)" opacity="1.0630697" stroke="rgb(0, 0, 0)" stroke-opacity="0.0" stroke-linecap="round" stroke-linejoin="round"/>
    <path d="M 370.1055908203125 346.2006530761719 C 354.9217529296875 327.2756042480469 340.80035400390625 338.2086486816406 325.3398742675781 334.887451171875 C 308.5968322753906 345.5938415527344 328.56787109375 339.804931640625 334.51220703125 339.1843566894531 C 346.22076416015625 339.8967590332031 357.3824768066406 345.7703857421875 370.1055908203125 346.2006530761719" stroke-width="2.0" fill="rgb(40, 37, 43)" opacity="0.9936426" stroke="rgb(0, 0, 0)" stroke-opacity="0.0" stroke-linecap="round" stroke-linejoin="round"/>
    <path d="M 184.01473999023438 237.6068572998047 C 168.7892303466797 235.69204711914062 148.5795135498047 245.37181091308594 151.6822509765625 262.6553955078125 C 161.28900146484375 252.8299560546875 171.9891815185547 243.71005249023438 184.01473999023438 237.6068572998047" stroke-width="2.0" fill="rgb(126, 136, 143)" opacity="1.0013998" stroke="rgb(0, 0, 0)" stroke-opacity="0.0" stroke-linecap="round" stroke-linejoin="round"/>
    <path d="M 229.7628173828125 192.9234161376953 C 218.00537109375 200.68475341796875 199.0327606201172 210.81552124023438 192.40011596679688 227.2250213623047 C 206.2555694580078 215.7392578125 222.44618225097656 208.57176208496094 229.7628173828125 192.9234161376953" stroke-width="2.0" fill="rgb(114, 131, 144)" opacity="1.0019184" stroke="rgb(0, 0, 0)" stroke-opacity="0.0" stroke-linecap="round" stroke-linejoin="round"/>
    <path d="M 184.3194122314453 251.08767700195312 C 171.49200439453125 242.4655303955078 162.67874145507812 260.83978271484375 160.5701446533203 271.58612060546875 C 167.4693603515625 266.1287841796875 182.11944580078125 257.6905517578125 184.3194122314453 251.08767700195312" stroke-width="2.0" fill="rgb(127, 137, 145)" opacity="0.9999412" stroke="rgb(0, 0, 0)" stroke-opacity="0.0" stroke-linecap="round" stroke-linejoin="round"/>
    <path d="M 148.77139282226562 255.9627227783203 C 138.3973846435547 257.5723571777344 129.90728759765625 261.4497375488281 122.52061462402344 262.8422546386719 C 131.27117919921875 280.1731262207031 144.621826171875 270.2010192871094 148.77139282226562 255.9627227783203" stroke-width="2.0" fill="rgb(102, 120, 132)" opacity="0.84607655" stroke="rgb(0, 0, 0)" stroke-opacity="0.0" stroke-linecap="round" stroke-linejoin="round"/>
    <path d="M 243.87835693359375 170.76580810546875 C 255.54734802246094 186.30084228515625 264.04119873046875 203.47630310058594 264.9761962890625 216.6282501220703 C 271.8538513183594 201.9615020751953 259.1121520996094 186.9468231201172 243.87835693359375 170.76580810546875" stroke-width="2.0" fill="rgb(230, 237, 236)" opacity="0.9938813" stroke="rgb(0, 0, 0)" stroke-opacity="0.0" stroke-linecap="round" stroke-linejoin="round"/>
    <path d="M 227.59356689453125 329.58880615234375 C 234.9234619140625 339.4070129394531 247.14805603027344 346.70709228515625 256.635498046875 341.52557373046875 C 246.02049255371094 333.7942199707031 239.31341552734375 325.9156494140625 227.59356689453125 329.58880615234375" stroke-width="2.0" fill="rgb(132, 97, 90)" opacity="1.0474877" stroke="rgb(0, 0, 0)" stroke-opacity="0.0" stroke-linecap="round" stroke-linejoin="round"/>
    <path d="M 362.8511962890625 162.21690368652344 C 363.81524658203125 173.00146484375 359.4500427246094 182.66000366210938 356.6713562011719 197.11476135253906 L 376.1827392578125 223.05874633789062 C 382.28790283203125 203.56668090820312 356.6047058105469 190.0049285888672 369.1407165527344 177.17027282714844 L 362.8511962890625 162.21690368652344" stroke-width="2.0" fill="rgb(126, 139, 147)" opacity="0.94288856" stroke="rgb(0, 0, 0)" stroke-opacity="0.0" stroke-linecap="round" stroke-linejoin="round"/>
    <path d="M 143.6463623046875 116.25395965576172 C 129.78860473632812 123.3243637084961 128.1856689453125 135.01475524902344 125.03356170654297 146.5592041015625 C 136.23243713378906 138.10076904296875 143.39971923828125 127.25495147705078 143.6463623046875 116.25395965576172" stroke-width="2.0" fill="rgb(121, 138, 143)" opacity="0.9987001" stroke="rgb(0, 0, 0)" stroke-opacity="0.0" stroke-linecap="round" stroke-linejoin="round"/>
    <path d="M 308.7197265625 16.374828338623047 C 299.2332458496094 4.07676362991333 290.47772216796875 20.391395568847656 280.6001281738281 17.118762969970703 L 274.6411437988281 19.102622985839844 C 286.0890808105469 21.85930061340332 298.147705078125 20.995779037475586 308.7197265625 16.374828338623047" stroke-width="2.0" fill="rgb(224, 224, 216)" opacity="1.2244854" stroke="rgb(0, 0, 0)" stroke-opacity="0.0" stroke-linecap="round" stroke-linejoin="round"/>
    <path d="M 65.53343963623047 37.01752471923828 C 53.39048385620117 35.99048614501953 34.11382293701172 33.42369842529297 37.2711296081543 50.19264221191406 C 47.54164505004883 47.38529968261719 54.28730010986328 41.229156494140625 65.02425384521484 48.207420349121094 L 65.53343963623047 37.01752471923828" stroke-width="2.0" fill="rgb(115, 138, 150)" opacity="0.9457993" stroke="rgb(0, 0, 0)" stroke-opacity="0.0" stroke-linecap="round" stroke-linejoin="round"/>
    <path d="M 456.49737548828125 185.46371459960938 C 443.1589660644531 183.8289337158203 438.5038146972656 197.8374786376953 436.08062744140625 208.2386932373047 C 443.6995544433594 205.4921875 448.7705383300781 193.11431884765625 456.49737548828125 185.46371459960938" stroke-width="2.0" fill="rgb(115, 124, 132)" opacity="1.0061991" stroke="rgb(0, 0, 0)" stroke-opacity="0.0" stroke-linecap="round" stroke-linejoin="round"/>
    <path d="M 196.87547302246094 285.1401062011719 C 186.3456268310547 285.6954345703125 174.8408203125 283.9989318847656 166.80563354492188 289.39703369140625 C 177.5225372314453 290.9019775390625 187.1737518310547 294.4826354980469 196.87547302246094 285.1401062011719" stroke-width="2.0" fill="rgb(136, 144, 149)" opacity="1.0063624" stroke="rgb(0, 0, 0)" stroke-opacity="0.0" stroke-linecap="round" stroke-linejoin="round"/>
    <path d="M 414.78460693359375 165.68145751953125 C 407.5104675292969 169.50308227539062 396.8271179199219 181.61990356445312 402.4811706542969 188.63148498535156 C 408.3307800292969 180.8494415283203 412.560302734375 174.63059997558594 414.78460693359375 165.68145751953125" stroke-width="2.0" fill="rgb(132, 143, 149)" opacity="0.98445684" stroke="rgb(0, 0, 0)" stroke-opacity="0.0" stroke-linecap="round" stroke-linejoin="round"/>
    <path d="M 428.3888244628906 168.2692413330078 C 427.8028564453125 173.9332275390625 424.7304382324219 185.51707458496094 429.7538757324219 186.04420471191406 C 437.46710205078125 180.07839965820312 434.1763916015625 172.2547607421875 428.3888244628906 168.2692413330078" stroke-width="2.0" fill="rgb(130, 139, 142)" opacity="1.0125291" stroke="rgb(0, 0, 0)" stroke-opacity="0.0" stroke-linecap="round" stroke-linejoin="round"/>
    <path d="M 131.0889434814453 236.1794891357422 C 124.89265441894531 242.18161010742188 112.0592269897461 245.50259399414062 109.97997283935547 253.19131469726562 C 116.42023468017578 251.4843292236328 125.73591613769531 242.8204803466797 131.0889434814453 236.1794891357422" stroke-width="2.0" fill="rgb(240, 244, 244)" opacity="0.9531603" stroke="rgb(0, 0, 0)" stroke-opacity="0.0" stroke-linecap="round" stroke-linejoin="round"/>
    <path d="M 163.0238037109375 204.45567321777344 C 156.09970092773438 199.80496215820312 146.2454376220703 219.14698791503906 156.6430206298828 212.6664581298828 C 159.181884765625 209.8057403564453 163.8304901123047 207.82516479492188 163.0238037109375 204.45567321777344" stroke-width="2.0" fill="rgb(235, 238, 237)" opacity="1.0481591" stroke="rgb(0, 0, 0)" stroke-opacity="0.0" stroke-linecap="round" stroke-linejoin="round"/>
    <path d="M 201.28570556640625 231.7891845703125 C 194.88525390625 237.24635314941406 181.47708129882812 254.50161743164062 196.01890563964844 240.5229949951172 L 201.28570556640625 231.7891845703125" stroke-width="2.0" fill="rgb(97, 108, 114)" opacity="1.141694" stroke="rgb(0, 0, 0)" stroke-opacity="0.0" stroke-linecap="round" stroke-linejoin="round"/>
    <path d="M 124.93939971923828 151.27769470214844 C 119.56898498535156 152.85842895507812 109.03134155273438 164.4493408203125 117.07965087890625 163.67724609375 L 124.93939971923828 151.27769470214844" stroke-width="2.0" fill="rgb(128, 132, 133)" opacity="1.0268182" stroke="rgb(0, 0, 0)" stroke-opacity="0.0" stroke-linecap="round" stroke-linejoin="round"/>
    <path d="M 274.8890380859375 20.188995361328125 C 278.5291748046875 20.60746955871582 286.5755920410156 21.410289764404297 286.9228210449219 16.71745491027832 C 283.1319885253906 16.28647232055664 279.223876953125 16.87566566467285 274.8890380859375 20.188995361328125" stroke-width="2.0" fill="rgb(243, 242, 233)" opacity="1.044001" stroke="rgb(0, 0, 0)" stroke-opacity="0.0" stroke-linecap="round" stroke-linejoin="round"/>
  </g>
</svg>
