<?xml version="1.0" ?>
<svg xmlns="http://www.w3.org/2000/svg" version="1.1" width="412" height="512">
  <defs/>
  <g>
    <path d="M 232.9840545654297 385.3202209472656 C 245.75042724609375 458.94390869140625 242.80914306640625 469.1481628417969 261.3039245605469 513.175537109375 C 90.10486602783203 515.8814697265625 86.583251953125 512.2111206054688 63.0808219909668 525.537353515625 C 54.34823226928711 366.1308898925781 58.36742401123047 361.6492919921875 70.62554931640625 334.38702392578125 C 193.24014282226562 322.85247802734375 189.67335510253906 364.0131530761719 232.9840545654297 385.3202209472656" stroke-width="0.0" fill="rgb(25, 16, 39)" opacity="1.0" stroke="rgb(163, 25, 31)" stroke-opacity="0.08845723" stroke-linecap="round" stroke-linejoin="round"/>
    <path d="M 152.53329467773438 170.56556701660156 C 145.80601501464844 142.7588348388672 152.3448028564453 175.65890502929688 123.07839965820312 261.2427062988281 C 79.2914810180664 308.1396484375 20.851755142211914 189.46640014648438 44.12281799316406 112.5718002319336 C 87.05168151855469 -31.283687591552734 251.82907104492188 -19.83741569519043 136.33026123046875 97.96603393554688 C 110.71470642089844 171.36341857910156 146.7427978515625 137.82766723632812 152.53329467773438 170.56556701660156" stroke-width="0.0" fill="rgb(255, 231, 170)" opacity="0.83869654" stroke="rgb(32, 199, 121)" stroke-opacity="0.4906896" stroke-linecap="round" stroke-linejoin="round"/>
    <path d="M 361.879638671875 208.652587890625 C 314.4013366699219 340.41790771484375 195.44927978515625 334.7354431152344 272.1217346191406 262.3670959472656 C 344.6772766113281 130.82374572753906 300.5248718261719 37.64094161987305 192.84146118164062 54.421775817871094 C 76.41152954101562 118.94657897949219 45.645713806152344 -31.77875328063965 254.11447143554688 -2.153174638748169 C 335.5059509277344 20.581375122070312 387.72393798828125 112.5138931274414 361.879638671875 208.652587890625" stroke-width="0.0" fill="rgb(235, 209, 158)" opacity="0.93446815" stroke="rgb(42, 172, 194)" stroke-opacity="0.22653599" stroke-linecap="round" stroke-linejoin="round"/>
    <path d="M 239.3366241455078 366.8804931640625 C 292.87158203125 423.843994140625 333.6517639160156 484.56591796875 266.78082275390625 415.0951232910156 C 201.12286376953125 362.7727355957031 186.2856903076172 347.8236083984375 128.6917724609375 317.2253112792969 C 133.44998168945312 294.4737548828125 150.56161499023438 336.81396484375 224.90603637695312 262.80072021484375 C 210.30856323242188 373.5026550292969 191.1928253173828 318.71343994140625 239.3366241455078 366.8804931640625" stroke-width="0.0" fill="rgb(255, 44, 76)" opacity="0.59681153" stroke="rgb(199, 157, 123)" stroke-opacity="0.04403293" stroke-linecap="round" stroke-linejoin="round"/>
    <path d="M 313.5098876953125 121.30699157714844 C 329.01324462890625 171.6887664794922 297.4508972167969 182.63385009765625 308.56536865234375 153.67652893066406 C 245.4209442138672 115.7689437866211 299.2451477050781 131.697021484375 250.5343017578125 85.13114929199219 C 262.6843566894531 62.015262603759766 231.4259033203125 47.523765563964844 270.15924072265625 65.88045501708984 C 293.8113708496094 80.3680648803711 307.7980041503906 101.61656951904297 313.5098876953125 121.30699157714844" stroke-width="0.0" fill="rgb(158, 34, 55)" opacity="1.0" stroke="rgb(188, 39, 241)" stroke-opacity="0.38316822" stroke-linecap="round" stroke-linejoin="round"/>
    <path d="M 249.31016540527344 114.89823150634766 C 255.35723876953125 143.78445434570312 170.09449768066406 138.59130859375 213.0867156982422 124.5567398071289 C 188.25318908691406 124.81018829345703 171.8195037841797 125.44229888916016 168.62095642089844 105.98836517333984 C 172.31410217285156 88.88731384277344 188.9196014404297 84.15290832519531 222.97174072265625 87.5316162109375 C 182.73348999023438 111.63595581054688 239.0482940673828 80.20353698730469 249.31016540527344 114.89823150634766" stroke-width="0.0" fill="rgb(255, 143, 61)" opacity="0.93213534" stroke="rgb(139, 92, 87)" stroke-opacity="0.044563815" stroke-linecap="round" stroke-linejoin="round"/>
    <path d="M 276.9012756347656 256.56011962890625 C 286.8863525390625 290.615234375 271.28692626953125 300.82440185546875 248.01470947265625 305.6831970214844 C 213.0462646484375 280.14385986328125 215.28111267089844 273.2698974609375 232.63482666015625 266.4810791015625 C 244.18955993652344 245.69561767578125 223.59912109375 258.5215148925781 241.60409545898438 240.6180419921875 C 250.62220764160156 245.54185485839844 257.7044982910156 248.93028259277344 276.9012756347656 256.56011962890625" stroke-width="0.0" fill="rgb(227, 202, 154)" opacity="0.98680854" stroke="rgb(64, 142, 134)" stroke-opacity="0.5752365" stroke-linecap="round" stroke-linejoin="round"/>
    <path d="M 191.0 278.0 C 190.3301239013672 280.5 188.5 282.33013916015625 186.0 283.0 C 183.5 282.33013916015625 181.6698760986328 280.5 181.0 278.0 C 181.6698760986328 275.5 183.5 273.66986083984375 186.0 273.0 C 188.5 273.66986083984375 190.3301239013672 275.5 191.0 278.0" stroke-width="0.0" fill="rgb(132, 29, 58)" opacity="1.0" stroke="rgb(222, 222, 136)" stroke-opacity="0.16603379" stroke-linecap="round" stroke-linejoin="round"/>
    <path d="M 281.0 218.0 C 280.33013916015625 220.5 278.5 222.3301239013672 276.0 223.0 C 273.5 222.3301239013672 271.66986083984375 220.5 271.0 218.0 C 271.66986083984375 215.5 273.5 213.6698760986328 276.0 213.0 C 278.5 213.6698760986328 280.33013916015625 215.5 281.0 218.0" stroke-width="0.0" fill="rgb(165, 34, 55)" opacity="1.0" stroke="rgb(72, 205, 196)" stroke-opacity="0.07317654" stroke-linecap="round" stroke-linejoin="round"/>
    <path d="M 326.0 335.0 C 325.33013916015625 337.5 323.5 339.33013916015625 321.0 340.0 C 318.5 339.33013916015625 316.66986083984375 337.5 316.0 335.0 C 316.66986083984375 332.5 318.5 330.66986083984375 321.0 330.0 C 323.5 330.66986083984375 325.33013916015625 332.5 326.0 335.0" stroke-width="0.0" fill="rgb(227, 203, 154)" opacity="1.0" stroke="rgb(126, 107, 0)" stroke-opacity="0.88322985" stroke-linecap="round" stroke-linejoin="round"/>
    <path d="M 177.0 138.0 C 176.3301239013672 140.5 174.5 142.3301239013672 172.0 143.0 C 169.5 142.3301239013672 167.6698760986328 140.5 167.0 138.0 C 167.6698760986328 135.5 169.5 133.6698760986328 172.0 133.0 C 174.5 133.6698760986328 176.3301239013672 135.5 177.0 138.0" stroke-width="0.0" fill="rgb(200, 48, 69)" opacity="1.0" stroke="rgb(198, 221, 96)" stroke-opacity="0.70981747" stroke-linecap="round" stroke-linejoin="round"/>
    <path d="M 203.0 155.0 C 202.3301239013672 157.5 200.5 159.3301239013672 198.0 160.0 C 195.5 159.3301239013672 193.6698760986328 157.5 193.0 155.0 C 193.6698760986328 152.5 195.5 150.6698760986328 198.0 150.0 C 200.5 150.6698760986328 202.3301239013672 152.5 203.0 155.0" stroke-width="0.0" fill="rgb(174, 173, 147)" opacity="1.0" stroke="rgb(41, 153, 170)" stroke-opacity="0.62317556" stroke-linecap="round" stroke-linejoin="round"/>
    <path d="M 280.0 137.0 C 279.33013916015625 139.5 277.5 141.3301239013672 275.0 142.0 C 272.5 141.3301239013672 270.66986083984375 139.5 270.0 137.0 C 270.66986083984375 134.5 272.5 132.6698760986328 275.0 132.0 C 277.5 132.6698760986328 279.33013916015625 134.5 280.0 137.0" stroke-width="0.0" fill="rgb(162, 34, 55)" opacity="1.0" stroke="rgb(225, 199, 225)" stroke-opacity="0.5878476" stroke-linecap="round" stroke-linejoin="round"/>
    <path d="M 261.0 230.0 C 260.33013916015625 232.5 258.5 234.3301239013672 256.0 235.0 C 253.5 234.3301239013672 251.6698760986328 232.5 251.0 230.0 C 251.6698760986328 227.5 253.5 225.6698760986328 256.0 225.0 C 258.5 225.6698760986328 260.33013916015625 227.5 261.0 230.0" stroke-width="0.0" fill="rgb(163, 34, 55)" opacity="1.0" stroke="rgb(132, 58, 166)" stroke-opacity="0.2509149" stroke-linecap="round" stroke-linejoin="round"/>
    <path d="M 221.0 238.0 C 220.3301239013672 240.5 218.5 242.3301239013672 216.0 243.0 C 213.5 242.3301239013672 211.6698760986328 240.5 211.0 238.0 C 211.6698760986328 235.5 213.5 233.6698760986328 216.0 233.0 C 218.5 233.6698760986328 220.3301239013672 235.5 221.0 238.0" stroke-width="0.0" fill="rgb(135, 28, 57)" opacity="1.0" stroke="rgb(188, 100, 48)" stroke-opacity="0.46189913" stroke-linecap="round" stroke-linejoin="round"/>
  </g>
</svg>
