<?xml version="1.0" ?>
<svg xmlns="http://www.w3.org/2000/svg" version="1.1" width="512" height="512">
  <defs/>
  <g>
    <path d="M 0.0 0.0 L 512.0 0.0 L 512.0 512.0 L 0.0 512.0 L 0.0 0.0" stroke-width="0.0" fill="rgb(255, 255, 255)" opacity="1.0" stroke="rgb(0, 0, 0)" stroke-opacity="0.0" stroke-linecap="round" stroke-linejoin="round"/>
    <path d="M 85.0 65.0 C -51.727699279785156 205.8379364013672 16.8889217376709 363.5405578613281 0.0 511.0 L 511.0 511.0 L 511.0 0.0 C 369.6154479980469 16.079593658447266 225.7362060546875 -45.10417175292969 85.0 65.0" stroke-width="2.0" fill="rgb(255, 255, 255)" opacity="1.0" stroke="rgb(0, 0, 0)" stroke-opacity="0.0" stroke-linecap="round" stroke-linejoin="round"/>
    <path d="M 484.0 144.0 L 285.0 144.0 C 339.8205871582031 158.2362518310547 379.8940124511719 228.1501922607422 368.0 273.0 C 364.74639892578125 295.3333435058594 352.9171142578125 317.6666564941406 336.0 340.0 C 304.9713439941406 396.0 268.9883728027344 452.0 239.0 508.0 C 313.33734130859375 513.88525390625 399.05462646484375 487.46307373046875 464.0 401.0 C 519.749755859375 315.6666564941406 522.0159301757812 230.3333282470703 484.0 144.0" stroke-width="2.0" fill="rgb(243, 199, 15)" opacity="1.0" stroke="rgb(0, 0, 0)" stroke-opacity="0.0" stroke-linecap="round" stroke-linejoin="round"/>
    <path d="M 482.0 138.0 C 438.8365783691406 51.566349029541016 340.390380859375 0.9763802886009216 271.0 1.0 C 202.32916259765625 -1.1683571338653564 131.00558471679688 15.380437850952148 64.0 86.0 L 45.0 111.0 C 75.05175018310547 165.2366180419922 107.60823822021484 221.4408416748047 141.0 278.0 C 122.32722473144531 226.52392578125 180.9069366455078 141.96270751953125 243.0 141.0 C 322.33343505859375 139.66786193847656 404.3332214355469 143.66506958007812 482.0 138.0" stroke-width="2.0" fill="rgb(225, 51, 51)" opacity="1.0" stroke="rgb(0, 0, 0)" stroke-opacity="0.0" stroke-linecap="round" stroke-linejoin="round"/>
    <path d="M 42.0 117.0 C -24.330961227416992 231.35243225097656 -18.05669593811035 359.3706970214844 109.0 464.0 C 150.6666717529297 491.2122497558594 192.3333282470703 506.2933044433594 234.0 508.0 C 268.5160827636719 454.6636047363281 301.49139404296875 397.0022888183594 332.0 342.0 C 274.3257751464844 385.26434326171875 207.1373748779297 382.8030700683594 156.0 316.0 C 124.4695053100586 249.50210571289062 81.06533813476562 180.5823974609375 42.0 117.0" stroke-width="2.0" fill="rgb(72, 174, 71)" opacity="1.0" stroke="rgb(0, 0, 0)" stroke-opacity="0.0" stroke-linecap="round" stroke-linejoin="round"/>
    <path d="M 244.0 143.0 C 187.50437927246094 142.20394897460938 127.88872528076172 220.124267578125 142.0 269.0 C 141.87615966796875 322.6964416503906 215.30694580078125 379.0842590332031 262.0 369.0 C 317.3582763671875 372.5133361816406 378.50628662109375 298.0185852050781 367.0 248.0 C 368.9917297363281 192.29324340820312 295.7652893066406 132.17173767089844 244.0 143.0" stroke-width="2.0" fill="rgb(118, 161, 195)" opacity="1.0" stroke="rgb(0, 0, 0)" stroke-opacity="0.0" stroke-linecap="round" stroke-linejoin="round"/>
    <path d="M 242.0 164.0 C 177.05369567871094 172.54464721679688 139.89364624023438 256.59625244140625 176.0 304.0 C 217.47833251953125 358.2654113769531 280.1543273925781 364.54217529296875 328.0 312.0 C 370.2846984863281 263.3616027832031 339.5675048828125 180.18441772460938 273.0 165.0 L 242.0 164.0" stroke-width="2.0" fill="rgb(64, 129, 180)" opacity="1.0" stroke="rgb(0, 0, 0)" stroke-opacity="0.0" stroke-linecap="round" stroke-linejoin="round"/>
    <path d="M 0.0 219.0 C 4.624413967132568 116.81177520751953 127.24159240722656 2.7249033451080322 223.0 0.0 L 0.0 0.0 L 0.0 219.0" stroke-width="2.0" fill="rgb(254, 254, 254)" opacity="1.0" stroke="rgb(0, 0, 0)" stroke-opacity="0.0" stroke-linecap="round" stroke-linejoin="round"/>
    <path d="M 49.0 118.0 C 76.80440521240234 171.3333282470703 108.74915313720703 224.6666717529297 141.0 278.0 C 138.0917205810547 254.6666717529297 140.30996704101562 231.3333282470703 149.0 208.0 C 116.01935577392578 180.63552856445312 88.75740814208984 148.03738403320312 58.0 117.0 C 55.33333206176758 116.69770812988281 52.66666793823242 116.30962371826172 49.0 118.0" stroke-width="2.0" fill="rgb(204, 31, 35)" opacity="1.0" stroke="rgb(0, 0, 0)" stroke-opacity="0.0" stroke-linecap="round" stroke-linejoin="round"/>
  </g>
</svg>
