<?xml version="1.0" ?>
<svg xmlns="http://www.w3.org/2000/svg" version="1.1" width="512" height="506">
  <defs/>
  <g>
    <path d="M 339.3969421386719 124.20516967773438 C 150.35084533691406 23.207427978515625 206.6773681640625 246.248779296875 111.84347534179688 252.26358032226562 C 174.8641815185547 69.40361022949219 98.1332015991211 194.13986206054688 97.5237045288086 84.18321990966797 C 137.8612060546875 82.41620635986328 130.524169921875 84.60752868652344 306.6475830078125 83.91165924072266 C 304.73931884765625 85.9200668334961 367.36700439453125 67.35199737548828 339.3969421386719 124.20516967773438" stroke-width="0.0" fill="rgb(196, 127, 0)" opacity="0.6107392" stroke="rgb(101, 163, 119)" stroke-opacity="0.74791884" stroke-linecap="round" stroke-linejoin="round"/>
    <path d="M 525.3283081054688 252.69960021972656 C 521.2989501953125 299.6835021972656 561.4739990234375 356.8854064941406 500.09747314453125 374.8489685058594 C 499.7823486328125 292.1622619628906 500.68658447265625 269.3224792480469 499.1816711425781 277.9053955078125 C 499.1204528808594 231.41610717773438 499.2420349121094 224.71066284179688 499.17266845703125 223.04486083984375 C 545.2280883789062 222.48439025878906 524.143798828125 226.02374267578125 525.3283081054688 252.69960021972656" stroke-width="0.0" fill="rgb(255, 255, 255)" opacity="0.8675737" stroke="rgb(79, 236, 137)" stroke-opacity="0.4962154" stroke-linecap="round" stroke-linejoin="round"/>
    <path d="M 65.57740783691406 329.7293701171875 C 70.61991882324219 353.79010009765625 36.88549041748047 314.2615966796875 46.52157974243164 357.9820251464844 C -12.046762466430664 349.0222473144531 1.5879994630813599 350.1500244140625 -4.3806023597717285 345.0704040527344 C -13.645694732666016 292.0013427734375 -27.6660099029541 271.0735168457031 78.0845947265625 255.41183471679688 C 82.06733703613281 324.39739990234375 35.054046630859375 308.97344970703125 65.57740783691406 329.7293701171875" stroke-width="0.0" fill="rgb(241, 246, 251)" opacity="0.6738346" stroke="rgb(203, 185, 112)" stroke-opacity="0.7544576" stroke-linecap="round" stroke-linejoin="round"/>
    <path d="M 264.40509033203125 325.20306396484375 C 216.30947875976562 315.1971435546875 241.23187255859375 299.6691589355469 230.00003051757812 259.8680419921875 C 233.257568359375 336.8822326660156 198.04429626464844 371.8919372558594 193.99916076660156 387.0950012207031 C 201.2887420654297 187.14956665039062 180.8895721435547 227.15797424316406 216.27772521972656 221.53741455078125 C 279.0984191894531 225.88369750976562 259.0655822753906 197.48605346679688 264.40509033203125 325.20306396484375" stroke-width="0.0" fill="rgb(76, 5, 46)" opacity="0.67020863" stroke="rgb(116, 28, 218)" stroke-opacity="0.19748077" stroke-linecap="round" stroke-linejoin="round"/>
    <path d="M 356.68988037109375 460.9972839355469 C 190.04757690429688 459.96490478515625 158.313720703125 475.7179870605469 301.76513671875 420.60491943359375 C 81.35618591308594 407.9620666503906 335.7439880371094 472.6129150390625 134.6170196533203 459.8235168457031 C 132.81373596191406 232.11306762695312 130.4908447265625 347.1903076171875 332.1188049316406 320.4921875 C 314.4732971191406 430.634033203125 364.0624694824219 320.6668701171875 356.68988037109375 460.9972839355469" stroke-width="0.0" fill="rgb(201, 55, 0)" opacity="0.51472294" stroke="rgb(194, 220, 127)" stroke-opacity="0.067119196" stroke-linecap="round" stroke-linejoin="round"/>
    <path d="M 260.21826171875 155.3282012939453 C 258.1403503417969 155.52978515625 262.30694580078125 159.51181030273438 254.2113800048828 152.32449340820312 C 238.28977966308594 135.73548889160156 234.24713134765625 131.97096252441406 226.8313446044922 124.02635192871094 C 233.1042022705078 119.5409927368164 241.3866424560547 113.55402374267578 260.0592956542969 112.0876693725586 C 261.9587097167969 111.58805084228516 260.03173828125 110.01095581054688 260.21826171875 155.3282012939453" stroke-width="0.0" fill="rgb(23, 11, 41)" opacity="0.8622107" stroke="rgb(90, 217, 138)" stroke-opacity="0.24322928" stroke-linecap="round" stroke-linejoin="round"/>
    <path d="M 332.1904602050781 404.84893798828125 C 319.4484558105469 363.0433654785156 335.2840270996094 307.5397644042969 318.80352783203125 275.44256591796875 C 267.558349609375 275.9222717285156 326.8736267089844 242.5377197265625 272.4830322265625 277.86083984375 C 293.2909240722656 209.32501220703125 195.3519744873047 223.6374053955078 326.0165710449219 221.83587646484375 C 335.5574645996094 228.29234313964844 331.0466003417969 181.51609802246094 332.1904602050781 404.84893798828125" stroke-width="0.0" fill="rgb(55, 15, 11)" opacity="0.6821742" stroke="rgb(121, 60, 84)" stroke-opacity="0.78433406" stroke-linecap="round" stroke-linejoin="round"/>
    <path d="M 437.2220764160156 41.61455535888672 C 281.7469787597656 80.38265991210938 262.28521728515625 63.94532012939453 274.4967956542969 18.150075912475586 C 276.2924499511719 6.851241111755371 259.9548034667969 6.4270806312561035 255.97857666015625 5.335646629333496 C 262.6744079589844 -11.123547554016113 267.2767333984375 -10.748618125915527 306.83489990234375 -22.792951583862305 C 365.0127868652344 -29.618192672729492 440.9295654296875 -103.41039276123047 437.2220764160156 41.61455535888672" stroke-width="0.0" fill="rgb(245, 255, 255)" opacity="0.47666278" stroke="rgb(212, 156, 132)" stroke-opacity="0.9282028" stroke-linecap="round" stroke-linejoin="round"/>
    <path d="M 436.0042419433594 502.6101379394531 C 340.1854553222656 577.0298461914062 289.1551208496094 520.2052001953125 264.3911437988281 515.0009155273438 C 172.1578826904297 545.2466430664062 100.0401840209961 618.1971435546875 89.65589904785156 461.2525634765625 C 242.4711456298828 460.07568359375 307.86669921875 461.6194152832031 334.7865295410156 461.0149230957031 C 417.8922119140625 466.4563293457031 409.8160400390625 446.14166259765625 436.0042419433594 502.6101379394531" stroke-width="0.0" fill="rgb(246, 253, 255)" opacity="0.6665143" stroke="rgb(180, 114, 12)" stroke-opacity="0.856699" stroke-linecap="round" stroke-linejoin="round"/>
    <path d="M 273.12078857421875 42.76409912109375 C 175.2224578857422 60.99314880371094 148.19374084472656 59.8722038269043 162.06088256835938 9.828788757324219 C 256.99664306640625 10.287275314331055 243.6484375 9.987896919250488 110.28050994873047 9.981864929199219 C 159.52835083007812 -81.13436889648438 225.2799072265625 -16.184972763061523 260.7394714355469 -7.9208173751831055 C 271.97808837890625 -9.363665580749512 278.0303039550781 -9.209925651550293 273.12078857421875 42.76409912109375" stroke-width="0.0" fill="rgb(249, 255, 255)" opacity="0.5850263" stroke="rgb(166, 236, 134)" stroke-opacity="0.43417332" stroke-linecap="round" stroke-linejoin="round"/>
    <path d="M 195.69290161132812 268.8522033691406 C 195.16236877441406 292.8233337402344 195.8087615966797 339.7449951171875 195.40921020507812 383.97613525390625 C 127.27924346923828 350.2264709472656 115.35321044921875 344.3211975097656 178.26121520996094 375.46478271484375 C 178.99432373046875 244.84774780273438 179.13954162597656 213.96676635742188 178.9269561767578 202.02288818359375 C 200.23805236816406 227.1223602294922 194.29515075683594 203.6071319580078 195.69290161132812 268.8522033691406" stroke-width="0.0" fill="rgb(250, 255, 255)" opacity="0.8229208" stroke="rgb(171, 106, 77)" stroke-opacity="0.14955758" stroke-linecap="round" stroke-linejoin="round"/>
    <path d="M 452.2306823730469 404.443603515625 C 451.9791564941406 478.42010498046875 453.0119323730469 457.62506103515625 451.1667175292969 461.1138916015625 C 423.35784912109375 458.41387939453125 431.95263671875 472.28387451171875 430.5550842285156 425.4750671386719 C 431.5269470214844 365.98309326171875 431.3575134277344 414.09539794921875 404.8769836425781 374.77288818359375 C 482.5096435546875 386.8907165527344 444.86419677734375 352.2837829589844 452.2306823730469 404.443603515625" stroke-width="0.0" fill="rgb(9, 0, 35)" opacity="0.71168417" stroke="rgb(82, 221, 185)" stroke-opacity="0.95169175" stroke-linecap="round" stroke-linejoin="round"/>
    <path d="M 329.1375427246094 139.576171875 C 343.5459899902344 164.94090270996094 322.2072448730469 169.15933227539062 315.9701232910156 147.6225128173828 C 308.02838134765625 131.83200073242188 303.65338134765625 128.57350158691406 289.6539001464844 122.17217254638672 C 264.85101318359375 114.52908325195312 273.0928955078125 93.300048828125 294.44366455078125 103.64549255371094 C 312.52398681640625 114.929443359375 316.9075012207031 120.8416519165039 329.1375427246094 139.576171875" stroke-width="0.0" fill="rgb(255, 255, 255)" opacity="1.0" stroke="rgb(102, 11, 89)" stroke-opacity="0.43013233" stroke-linecap="round" stroke-linejoin="round"/>
    <path d="M 230.20486450195312 425.227294921875 C 242.68014526367188 420.9100036621094 271.667724609375 410.5195007324219 262.6187744140625 430.9593505859375 C 199.0244140625 430.62115478515625 210.7820587158203 432.6039123535156 228.85205078125 425.58489990234375 C 250.9016571044922 417.1179504394531 264.16461181640625 419.8455810546875 192.5666046142578 419.34466552734375 C 185.89064025878906 444.90057373046875 208.0009307861328 432.2297668457031 230.20486450195312 425.227294921875" stroke-width="0.0" fill="rgb(248, 254, 255)" opacity="0.90425646" stroke="rgb(104, 239, 72)" stroke-opacity="0.58581513" stroke-linecap="round" stroke-linejoin="round"/>
    <path d="M 437.3610534667969 253.03443908691406 C 327.3387451171875 227.207275390625 448.6642150878906 379.9747314453125 349.8631591796875 403.63739013671875 C 345.32769775390625 249.20376586914062 358.026611328125 130.02500915527344 320.8722229003906 270.040283203125 C 245.33987426757812 137.49002075195312 219.68128967285156 77.68685150146484 396.3570861816406 83.09724426269531 C 355.55145263671875 302.9389343261719 451.8177185058594 123.2669677734375 437.3610534667969 253.03443908691406" stroke-width="0.0" fill="rgb(167, 90, 16)" opacity="0.5163699" stroke="rgb(240, 244, 240)" stroke-opacity="0.45659843" stroke-linecap="round" stroke-linejoin="round"/>
  </g>
</svg>
