<?xml version="1.0" ?>
<svg xmlns="http://www.w3.org/2000/svg" version="1.1" width="512" height="499">
  <defs/>
  <g>
    <path d="M 0.0 0.0 L 512.0 0.0 L 512.0 499.0 L 0.0 499.0 L 0.0 0.0" stroke-width="0.0" fill="rgb(255, 255, 255)" opacity="1.0" stroke="rgb(0, 0, 0)" stroke-opacity="0.0" stroke-linecap="round" stroke-linejoin="round"/>
    <path d="M 240.0 10.0 C 174.97898864746094 11.299379348754883 84.62306213378906 61.22135925292969 44.0 140.0 C -2.167658805847168 239.4869384765625 4.860596656799316 349.1242980957031 108.0 442.0 C 220.1763458251953 517.8826904296875 337.09033203125 519.1452026367188 446.0 408.0 C 529.6221923828125 293.73773193359375 525.5036010742188 169.69168090820312 411.0 62.0 C 354.3333435058594 19.075946807861328 297.6666564941406 7.319624423980713 240.0 10.0" stroke-width="2.0" fill="rgb(131, 157, 158)" opacity="1.0" stroke="rgb(0, 0, 0)" stroke-opacity="0.0" stroke-linecap="round" stroke-linejoin="round"/>
    <path d="M 400.0 179.0 C 382.6666564941406 165.32949829101562 365.3333435058594 171.33236694335938 348.0 170.0 C 352.3924255371094 201.50704956054688 343.6516418457031 263.0537414550781 294.0 258.0 C 256.6666564941406 263.4762268066406 219.3333282470703 244.81463623046875 182.0 272.0 C 165.42457580566406 312.3333435058594 172.61233520507812 352.6666564941406 177.0 393.0 C 219.0134735107422 433.0301818847656 265.32330322265625 420.58111572265625 309.0 413.0 C 343.5555725097656 401.45928955078125 335.17254638671875 367.32904052734375 334.0 345.0 L 258.0 344.0 C 248.1357879638672 338.4597473144531 258.5115966796875 330.8777160644531 265.0 332.0 C 307.6666564941406 331.1061096191406 350.3333435058594 339.2425842285156 393.0 327.0 C 435.8048095703125 289.58160400390625 423.25872802734375 243.72946166992188 416.0 203.0 C 412.2320556640625 195.3333282470703 409.1502990722656 187.6666717529297 400.0 179.0" stroke-width="2.0" fill="rgb(248, 205, 60)" opacity="1.0" stroke="rgb(0, 0, 0)" stroke-opacity="0.0" stroke-linecap="round" stroke-linejoin="round"/>
    <path d="M 324.0 100.0 C 276.0 71.29945373535156 228.0 73.74310302734375 180.0 97.0 C 164.13687133789062 116.66666412353516 172.1014404296875 136.3333282470703 172.0 156.0 C 198.0100555419922 158.58251953125 229.31985473632812 150.32957458496094 252.0 162.0 C 250.09280395507812 164.46522521972656 250.19053649902344 166.81809997558594 247.0 168.0 C 202.3333282470703 171.12342834472656 157.6666717529297 161.14158630371094 113.0 174.0 C 70.95674896240234 219.68911743164062 79.47488403320312 269.6499938964844 103.0 317.0 C 119.7634506225586 334.3438720703125 139.69398498535156 329.3265686035156 158.0 330.0 C 161.60940551757812 302.3232116699219 150.08779907226562 263.2530822753906 188.0 245.0 C 234.75514221191406 228.505859375 289.2135314941406 266.16229248046875 331.0 218.0 C 332.7533874511719 179.0 342.5040283203125 140.0 324.0 100.0" stroke-width="2.0" fill="rgb(249, 251, 252)" opacity="1.0" stroke="rgb(0, 0, 0)" stroke-opacity="0.0" stroke-linecap="round" stroke-linejoin="round"/>
    <path d="M 296.0 365.0 C 271.7960205078125 390.2579345703125 327.8544616699219 400.0525817871094 317.0 370.0 C 311.88641357421875 362.30755615234375 303.6512145996094 360.77142333984375 296.0 365.0" stroke-width="2.0" fill="rgb(66, 107, 136)" opacity="1.0" stroke="rgb(0, 0, 0)" stroke-opacity="0.0" stroke-linecap="round" stroke-linejoin="round"/>
    <path d="M 202.0 107.0 C 171.47023010253906 122.4896011352539 219.38465881347656 150.6331024169922 220.0 119.0 C 218.5442352294922 111.15602111816406 209.79429626464844 104.84932708740234 202.0 107.0" stroke-width="2.0" fill="rgb(60, 109, 157)" opacity="1.0" stroke="rgb(0, 0, 0)" stroke-opacity="0.0" stroke-linecap="round" stroke-linejoin="round"/>
  </g>
</svg>
