<?xml version="1.0" ?>
<svg xmlns="http://www.w3.org/2000/svg" version="1.1" width="512" height="352">
  <defs/>
  <g>
    <path d="M 135.40516662597656 231.6901397705078 C 134.1669464111328 257.7164001464844 154.96636962890625 269.6297302246094 83.87711334228516 281.6462097167969 C 62.952667236328125 234.30722045898438 61.54235076904297 209.1192626953125 40.50000762939453 225.25599670410156 C 52.89756393432617 188.21238708496094 67.17786407470703 179.97714233398438 108.75057983398438 175.4730987548828 C 137.0911102294922 197.2491912841797 160.4951171875 140.63885498046875 135.40516662597656 231.6901397705078" stroke-width="0.0" fill="rgb(206, 182, 154)" opacity="1.0" stroke="rgb(142, 0, 250)" stroke-opacity="0.6203129" stroke-linecap="round" stroke-linejoin="round"/>
    <path d="M 261.4542236328125 275.7080383300781 C 245.9092559814453 118.80259704589844 256.8084411621094 186.197265625 192.84820556640625 261.2666015625 C 188.48451232910156 229.26014709472656 182.0496063232422 241.2323455810547 175.20021057128906 192.90150451660156 C 181.86117553710938 179.189697265625 187.85658264160156 198.29502868652344 170.8663330078125 156.98190307617188 C 261.7554016113281 127.556640625 260.51861572265625 119.16950988769531 261.4542236328125 275.7080383300781" stroke-width="0.0" fill="rgb(39, 68, 40)" opacity="0.60107595" stroke="rgb(209, 47, 108)" stroke-opacity="0.58823806" stroke-linecap="round" stroke-linejoin="round"/>
    <path d="M 348.2238464355469 43.94392395019531 C 319.2724609375 114.01640319824219 352.1273498535156 21.88536262512207 287.67510986328125 112.9042739868164 C 243.322998046875 122.33429718017578 279.8003845214844 148.44247436523438 255.3863983154297 52.63660430908203 C 326.1986999511719 54.09468078613281 314.05841064453125 25.62173080444336 322.57806396484375 28.951658248901367 C 346.1608581542969 47.499412536621094 315.2694396972656 44.613502502441406 348.2238464355469 43.94392395019531" stroke-width="0.0" fill="rgb(146, 69, 37)" opacity="0.7665214" stroke="rgb(74, 227, 178)" stroke-opacity="0.79814225" stroke-linecap="round" stroke-linejoin="round"/>
    <path d="M 320.2161560058594 224.8093719482422 C 338.8152770996094 256.32708740234375 327.4195251464844 239.3056182861328 266.37384033203125 227.90042114257812 C 273.5641784667969 276.5353088378906 243.54376220703125 287.5078125 257.79351806640625 228.1891632080078 C 241.91653442382812 115.04209899902344 249.8075714111328 201.6775360107422 276.82861328125 197.1576690673828 C 284.2058410644531 164.504150390625 317.1055603027344 187.50213623046875 320.2161560058594 224.8093719482422" stroke-width="0.0" fill="rgb(0, 22, 11)" opacity="0.52134943" stroke="rgb(8, 243, 60)" stroke-opacity="0.2708138" stroke-linecap="round" stroke-linejoin="round"/>
  </g>
</svg>
