<?xml version="1.0" ?>
<svg xmlns="http://www.w3.org/2000/svg" version="1.1" width="512" height="352">
  <defs/>
  <g>
    <path d="M 135.1385498046875 209.8131103515625 C 133.08555603027344 254.52305603027344 148.1171112060547 271.2371520996094 82.4573745727539 280.96728515625 C 64.7507095336914 233.9104766845703 62.52665328979492 209.55091857910156 40.921390533447266 225.14068603515625 C 52.77801513671875 189.2364044189453 67.49931335449219 180.92210388183594 101.47249603271484 176.39566040039062 C 142.55885314941406 193.9314727783203 157.3748016357422 151.59072875976562 135.1385498046875 209.8131103515625" stroke-width="0.0" fill="rgb(206, 182, 153)" opacity="0.9934473" stroke="rgb(142, 0, 250)" stroke-opacity="0.6203129" stroke-linecap="round" stroke-linejoin="round"/>
    <path d="M 265.951904296875 242.18972778320312 C 230.06195068359375 133.10743713378906 254.6713409423828 199.6322784423828 191.8403778076172 259.9921569824219 C 192.74851989746094 239.4138641357422 180.5257568359375 237.20742797851562 175.54539489746094 193.30270385742188 C 178.42308044433594 180.8968048095703 190.656982421875 198.30087280273438 170.82005310058594 157.0743865966797 C 267.9789123535156 126.78321075439453 252.28851318359375 124.36193084716797 265.951904296875 242.18972778320312" stroke-width="0.0" fill="rgb(58, 87, 65)" opacity="0.69312286" stroke="rgb(209, 47, 108)" stroke-opacity="0.58823806" stroke-linecap="round" stroke-linejoin="round"/>
    <path d="M 347.5110168457031 43.89267349243164 C 323.2223815917969 109.45255279541016 347.0300598144531 26.129188537597656 287.7885437011719 112.97593688964844 C 247.00633239746094 119.98869323730469 276.17767333984375 148.8428192138672 257.6060791015625 52.387088775634766 C 323.37115478515625 53.998077392578125 314.4176330566406 28.467870712280273 321.8668212890625 28.596115112304688 C 345.9991149902344 46.607154846191406 315.70428466796875 45.268306732177734 347.5110168457031 43.89267349243164" stroke-width="0.0" fill="rgb(150, 72, 39)" opacity="0.7781209" stroke="rgb(74, 227, 178)" stroke-opacity="0.79814225" stroke-linecap="round" stroke-linejoin="round"/>
  </g>
</svg>
