<?xml version="1.0" ?>
<svg xmlns="http://www.w3.org/2000/svg" version="1.1" width="512" height="406">
  <defs/>
  <g>
    <path d="M 353.1262512207031 242.43907165527344 C 355.0125732421875 280.4964294433594 361.81915283203125 253.06948852539062 347.8011169433594 333.53759765625 C 270.2845764160156 340.6919250488281 225.4633331298828 337.4911804199219 217.31558227539062 301.2331237792969 C 214.0558624267578 209.38772583007812 227.19229125976562 207.83518981933594 270.51861572265625 186.44818115234375 C 347.4371032714844 193.6201171875 339.9272155761719 203.1600341796875 353.1262512207031 242.43907165527344" stroke-width="0.0" fill="rgb(251, 232, 25)" opacity="0.64289486" stroke="rgb(190, 232, 102)" stroke-opacity="0.9440266" stroke-linecap="round" stroke-linejoin="round"/>
    <path d="M 205.3499755859375 47.02534866333008 C 231.86863708496094 60.71735763549805 180.4415740966797 66.39229583740234 198.3834686279297 62.90081024169922 C 183.57839965820312 58.906455993652344 169.3186798095703 58.887489318847656 79.72733306884766 8.219078063964844 C 80.43824768066406 -28.304201126098633 107.943603515625 -27.064199447631836 310.2923889160156 0.24250687658786774 C 257.10626220703125 113.36934661865234 198.4282989501953 -8.112547874450684 205.3499755859375 47.02534866333008" stroke-width="0.0" fill="rgb(255, 255, 255)" opacity="0.984906" stroke="rgb(14, 90, 70)" stroke-opacity="0.1701047" stroke-linecap="round" stroke-linejoin="round"/>
    <path d="M 190.98048400878906 54.22568130493164 C 152.41702270507812 67.2608642578125 98.20819091796875 79.57654571533203 101.04548645019531 169.84317016601562 C 56.7675895690918 174.90652465820312 30.759496688842773 194.7850341796875 8.642430305480957 132.4152069091797 C 8.73365306854248 -40.873741149902344 32.25471115112305 -23.11032485961914 115.38539123535156 19.830366134643555 C 176.78717041015625 47.44071960449219 179.15811157226562 52.34783172607422 190.98048400878906 54.22568130493164" stroke-width="0.0" fill="rgb(254, 254, 255)" opacity="0.9989911" stroke="rgb(150, 199, 133)" stroke-opacity="0.4235589" stroke-linecap="round" stroke-linejoin="round"/>
    <path d="M 360.82757568359375 62.527587890625 C 380.67706298828125 376.57904052734375 334.51641845703125 365.28863525390625 289.2164306640625 371.43975830078125 C 278.5066223144531 376.0615539550781 270.2225646972656 378.48095703125 257.0889892578125 278.39642333984375 C 268.6739501953125 302.2398376464844 270.1195373535156 311.1129455566406 206.5043487548828 283.56036376953125 C 207.4263916015625 178.3667755126953 189.49169921875 92.85674285888672 360.82757568359375 62.527587890625" stroke-width="0.0" fill="rgb(241, 210, 50)" opacity="1.0" stroke="rgb(51, 215, 168)" stroke-opacity="0.02211279" stroke-linecap="round" stroke-linejoin="round"/>
    <path d="M 381.2318420410156 219.49122619628906 C 400.3785095214844 213.6167755126953 364.4505310058594 199.44924926757812 346.9680480957031 196.6287078857422 C 321.4393005371094 193.97821044921875 300.7764587402344 216.650390625 303.69268798828125 199.9202117919922 C 306.39495849609375 185.99778747558594 336.6324462890625 176.0575714111328 365.9958190917969 186.1685028076172 C 367.66925048828125 189.24729919433594 381.9547424316406 187.2183074951172 381.2318420410156 219.49122619628906" stroke-width="0.0" fill="rgb(81, 40, 15)" opacity="0.9139886" stroke="rgb(79, 36, 119)" stroke-opacity="0.16195595" stroke-linecap="round" stroke-linejoin="round"/>
    <path d="M 343.7420959472656 392.70166015625 C 326.664794921875 400.0666809082031 320.0853271484375 401.704833984375 260.0425109863281 409.12896728515625 C 279.80853271484375 396.68621826171875 227.27554321289062 420.5397033691406 150.03672790527344 358.0738220214844 C 80.1422119140625 283.30645751953125 49.615474700927734 159.84019470214844 187.5003204345703 142.5188751220703 C 373.6582336425781 312.76959228515625 318.23541259765625 369.36248779296875 343.7420959472656 392.70166015625" stroke-width="0.0" fill="rgb(238, 199, 44)" opacity="0.9966302" stroke="rgb(46, 31, 115)" stroke-opacity="0.8375884" stroke-linecap="round" stroke-linejoin="round"/>
    <path d="M 430.96539306640625 322.6736145019531 C 387.29071044921875 389.9035949707031 330.76959228515625 393.3085021972656 328.9150390625 399.0342102050781 C 295.6218566894531 394.77606201171875 295.8905944824219 388.0791015625 295.81781005859375 386.22369384765625 C 342.0301208496094 387.9691467285156 336.6337585449219 369.97882080078125 363.8383483886719 69.48712158203125 C 489.0030212402344 137.328369140625 469.07080078125 277.5853271484375 430.96539306640625 322.6736145019531" stroke-width="0.0" fill="rgb(228, 174, 0)" opacity="0.7205353" stroke="rgb(94, 200, 149)" stroke-opacity="0.20234731" stroke-linecap="round" stroke-linejoin="round"/>
  </g>
</svg>
