<?xml version="1.0" ?>
<svg xmlns="http://www.w3.org/2000/svg" version="1.1" width="512" height="406">
  <defs/>
  <g>
    <path d="M 353.1262512207031 242.43907165527344 C 355.0146179199219 280.4967346191406 361.858642578125 253.08456420898438 347.8961181640625 333.5520935058594 C 270.2845764160156 340.6919250488281 225.4633331298828 337.4911804199219 217.31007385253906 301.2219543457031 C 213.9950714111328 209.31198120117188 227.11624145507812 207.76275634765625 270.4954528808594 186.43466186523438 C 347.4371032714844 193.6198272705078 339.9272155761719 203.1600341796875 353.1262512207031 242.43907165527344" stroke-width="0.0" fill="rgb(251, 232, 25)" opacity="0.64284265" stroke="rgb(190, 232, 102)" stroke-opacity="0.9440266" stroke-linecap="round" stroke-linejoin="round"/>
    <path d="M 205.06878662109375 46.69462966918945 C 232.49818420410156 62.32401657104492 179.15980529785156 64.9740219116211 197.33055114746094 66.14741516113281 C 177.27902221679688 67.92754364013672 166.37538146972656 65.9489974975586 79.68798065185547 9.78324031829834 C 80.43824768066406 -28.304201126098633 107.94479370117188 -27.06710433959961 310.8575134277344 -0.29605618119239807 C 257.63446044921875 111.72463989257812 198.96853637695312 -6.997588157653809 205.06878662109375 46.69462966918945" stroke-width="0.0" fill="rgb(255, 254, 255)" opacity="0.9176065" stroke="rgb(14, 90, 70)" stroke-opacity="0.1701047" stroke-linecap="round" stroke-linejoin="round"/>
    <path d="M 189.3408203125 52.441043853759766 C 145.004150390625 60.42832565307617 91.61247253417969 73.09138488769531 101.89794158935547 171.1138916015625 C 56.15843200683594 177.94534301757812 28.45951271057129 199.55332946777344 7.4786834716796875 145.13169860839844 C 8.693767547607422 -40.95296859741211 32.178688049316406 -23.154401779174805 115.09821319580078 19.880695343017578 C 176.1541290283203 47.95969772338867 178.74716186523438 53.691246032714844 189.3408203125 52.441043853759766" stroke-width="0.0" fill="rgb(253, 254, 253)" opacity="0.9574091" stroke="rgb(150, 199, 133)" stroke-opacity="0.4235589" stroke-linecap="round" stroke-linejoin="round"/>
    <path d="M 341.7380065917969 45.89173126220703 C 382.4349365234375 384.97406005859375 340.6582336425781 374.791748046875 297.46148681640625 375.44708251953125 C 278.50921630859375 376.0609436035156 270.2293701171875 378.4760437011719 257.0936584472656 278.38104248046875 C 268.66461181640625 302.23736572265625 270.1195373535156 311.0987548828125 190.39967346191406 274.74786376953125 C 187.36671447753906 161.19554138183594 172.91714477539062 82.32473754882812 341.7380065917969 45.89173126220703" stroke-width="0.0" fill="rgb(240, 208, 48)" opacity="1.0" stroke="rgb(51, 215, 168)" stroke-opacity="0.02211279" stroke-linecap="round" stroke-linejoin="round"/>
    <path d="M 380.1571350097656 216.56927490234375 C 404.4324645996094 210.86715698242188 366.50347900390625 200.43955993652344 347.65509033203125 196.89605712890625 C 321.1130676269531 193.29734802246094 301.07470703125 216.76092529296875 303.6656494140625 199.99085998535156 C 306.46807861328125 186.57437133789062 337.9562072753906 176.00955200195312 365.0516357421875 186.3494415283203 C 368.2385559082031 190.91891479492188 383.1412658691406 187.3041229248047 380.1571350097656 216.56927490234375" stroke-width="0.0" fill="rgb(79, 38, 15)" opacity="0.8940889" stroke="rgb(79, 36, 119)" stroke-opacity="0.16195595" stroke-linecap="round" stroke-linejoin="round"/>
    <path d="M 337.5412292480469 391.1087646484375 C 326.5663757324219 400.50244140625 321.0411682128906 403.6386413574219 256.5231628417969 408.0213317871094 C 296.1719055175781 400.7392578125 212.0862274169922 419.06573486328125 145.32791137695312 352.7044982910156 C 79.59907531738281 296.36541748046875 52.016502380371094 125.96249389648438 178.1853790283203 114.74880981445312 C 362.3918762207031 316.3452453613281 300.0415344238281 382.6590270996094 337.5412292480469 391.1087646484375" stroke-width="0.0" fill="rgb(237, 200, 44)" opacity="1.0" stroke="rgb(46, 31, 115)" stroke-opacity="0.8375884" stroke-linecap="round" stroke-linejoin="round"/>
    <path d="M 430.55145263671875 324.41021728515625 C 391.73577880859375 384.76202392578125 325.4986572265625 399.8329162597656 323.22003173828125 399.7740173339844 C 299.7192077636719 389.38690185546875 296.8597717285156 386.8295593261719 292.75433349609375 380.5478820800781 C 347.52337646484375 379.9990539550781 378.7813415527344 364.0738525390625 343.1434020996094 58.68707275390625 C 481.68829345703125 119.38617706298828 478.8310852050781 259.3791809082031 430.55145263671875 324.41021728515625" stroke-width="0.0" fill="rgb(230, 178, 0)" opacity="0.8109816" stroke="rgb(94, 200, 149)" stroke-opacity="0.20234731" stroke-linecap="round" stroke-linejoin="round"/>
    <path d="M 497.139404296875 260.9884338378906 C 507.44970703125 297.1637268066406 436.9141540527344 304.0989990234375 460.90875244140625 252.00877380371094 C 462.08331298828125 189.64598083496094 454.2815856933594 187.4738311767578 457.05670166015625 189.73805236816406 C 446.99603271484375 147.0582733154297 449.4100036621094 186.10276794433594 448.9511413574219 124.08745574951172 C 516.6893920898438 57.574501037597656 481.8271179199219 88.93633270263672 497.139404296875 260.9884338378906" stroke-width="0.0" fill="rgb(249, 254, 255)" opacity="0.7343889" stroke="rgb(195, 30, 109)" stroke-opacity="0.37098792" stroke-linecap="round" stroke-linejoin="round"/>
    <path d="M 93.64375305175781 282.9393005371094 C 172.41336059570312 404.82440185546875 218.23170471191406 418.2663879394531 47.038780212402344 412.6969909667969 C -43.63942337036133 413.7835388183594 10.335176467895508 387.67169189453125 -10.611166000366211 263.5576171875 C -20.49808692932129 195.69937133789062 -17.362741470336914 201.37930297851562 87.4541244506836 230.9272918701172 C 76.62992095947266 275.1798400878906 61.48137664794922 284.0044250488281 93.64375305175781 282.9393005371094" stroke-width="0.0" fill="rgb(255, 255, 255)" opacity="0.7023148" stroke="rgb(207, 58, 227)" stroke-opacity="0.77674097" stroke-linecap="round" stroke-linejoin="round"/>
    <path d="M 160.26808166503906 52.60402297973633 C 131.61776733398438 90.05219268798828 125.97960662841797 98.69542694091797 100.20825958251953 153.25379943847656 C 82.6054916381836 106.76417541503906 89.06749725341797 124.16593170166016 52.2852897644043 24.599580764770508 C 49.9375 24.004121780395508 56.15553283691406 25.68549156188965 100.68687438964844 37.13011169433594 C 104.88279724121094 38.300254821777344 105.2767105102539 38.29228591918945 160.26808166503906 52.60402297973633" stroke-width="0.0" fill="rgb(203, 103, 167)" opacity="0.9653744" stroke="rgb(141, 214, 143)" stroke-opacity="0.007016398" stroke-linecap="round" stroke-linejoin="round"/>
    <path d="M 313.8073425292969 52.0123405456543 C 165.77804565429688 120.37796020507812 253.7917022705078 159.5351104736328 201.00152587890625 142.8448486328125 C 87.51244354248047 157.07171630859375 92.63832092285156 177.55691528320312 110.81751251220703 126.83013153076172 C 125.11801147460938 48.40510177612305 111.27116394042969 62.138126373291016 171.70448303222656 53.77615737915039 C 230.8332061767578 82.44685363769531 223.95404052734375 24.40081024169922 313.8073425292969 52.0123405456543" stroke-width="0.0" fill="rgb(117, 88, 159)" opacity="0.7003423" stroke="rgb(106, 26, 190)" stroke-opacity="0.22847277" stroke-linecap="round" stroke-linejoin="round"/>
    <path d="M 177.73828125 60.267662048339844 C 175.20016479492188 74.43647766113281 133.6077117919922 72.30884552001953 105.13819122314453 86.89344787597656 C 93.1496810913086 93.2139663696289 69.4968032836914 111.02574157714844 68.76420593261719 87.96134948730469 C 95.63160705566406 68.06475067138672 115.36849975585938 74.81764221191406 120.44779968261719 58.62468338012695 C 154.75729370117188 60.72793197631836 175.7711181640625 39.256290435791016 177.73828125 60.267662048339844" stroke-width="0.0" fill="rgb(0, 185, 193)" opacity="0.99083936" stroke="rgb(225, 171, 178)" stroke-opacity="0.9146552" stroke-linecap="round" stroke-linejoin="round"/>
    <path d="M 379.8697814941406 200.039794921875 C 380.5216369628906 207.28526306152344 377.9081726074219 207.5614776611328 367.3929138183594 203.10775756835938 C 355.7203063964844 198.05978393554688 347.4833984375 196.11363220214844 339.43707275390625 196.13436889648438 C 341.5766296386719 180.10723876953125 343.18701171875 183.60403442382812 352.1451110839844 182.8879852294922 C 367.9303894042969 185.4821319580078 377.8966064453125 192.2083740234375 379.8697814941406 200.039794921875" stroke-width="0.0" fill="rgb(94, 55, 18)" opacity="0.99760324" stroke="rgb(86, 174, 100)" stroke-opacity="0.95177776" stroke-linecap="round" stroke-linejoin="round"/>
    <path d="M 323.62371826171875 46.00127029418945 C 252.13583374023438 44.47482681274414 238.20797729492188 60.09152603149414 234.01150512695312 53.690269470214844 C 222.54888916015625 55.18526840209961 221.08937072753906 55.87915802001953 216.0705108642578 57.2315788269043 C 227.98387145996094 46.70851516723633 225.6103515625 44.35177230834961 211.9844207763672 28.684925079345703 C 276.0390319824219 -47.301265716552734 301.6987609863281 -12.102054595947266 323.62371826171875 46.00127029418945" stroke-width="0.0" fill="rgb(254, 254, 254)" opacity="0.97207755" stroke="rgb(168, 172, 140)" stroke-opacity="0.62732935" stroke-linecap="round" stroke-linejoin="round"/>
    <path d="M 97.56278228759766 180.77642822265625 C 92.56047058105469 199.42376708984375 88.0992202758789 228.20697021484375 95.17062377929688 262.7577819824219 C 29.3542537689209 266.8633728027344 9.039169311523438 279.87933349609375 -4.759284973144531 156.65394592285156 C 27.71010971069336 152.3650665283203 50.58254623413086 169.93495178222656 104.27969360351562 159.51351928710938 C 85.81129455566406 217.12388610839844 85.24644470214844 217.9252166748047 97.56278228759766 180.77642822265625" stroke-width="0.0" fill="rgb(255, 255, 255)" opacity="0.96565825" stroke="rgb(167, 139, 174)" stroke-opacity="0.74435925" stroke-linecap="round" stroke-linejoin="round"/>
    <path d="M 410.52813720703125 156.03553771972656 C 368.8666687011719 151.10296630859375 351.1692199707031 144.60720825195312 342.06732177734375 147.2755126953125 C 318.1043395996094 151.4377899169922 316.83502197265625 150.21141052246094 317.7503662109375 146.0518798828125 C 317.34307861328125 134.8858642578125 324.3863220214844 130.15408325195312 357.0523681640625 134.09451293945312 C 377.5454406738281 136.76278686523438 411.449462890625 149.84921264648438 410.52813720703125 156.03553771972656" stroke-width="0.0" fill="rgb(91, 51, 18)" opacity="0.96870005" stroke="rgb(179, 222, 252)" stroke-opacity="0.14343755" stroke-linecap="round" stroke-linejoin="round"/>
    <path d="M 113.27920532226562 45.818058013916016 C 110.13321685791016 55.22801208496094 109.53189086914062 47.97538375854492 84.78483581542969 60.78740692138672 C 66.6308364868164 69.33580017089844 60.872276306152344 66.69674682617188 59.482994079589844 56.11595153808594 C 62.36521530151367 47.614715576171875 63.18769454956055 54.641624450683594 88.456298828125 41.492279052734375 C 107.43567657470703 32.78958511352539 111.34909057617188 36.997772216796875 113.27920532226562 45.818058013916016" stroke-width="0.0" fill="rgb(0, 185, 193)" opacity="0.99304247" stroke="rgb(40, 51, 87)" stroke-opacity="0.82023233" stroke-linecap="round" stroke-linejoin="round"/>
    <path d="M 140.56822204589844 93.9761962890625 C 145.75692749023438 117.97195434570312 137.13336181640625 106.38462829589844 114.17584991455078 113.02313995361328 C 91.93292999267578 118.9207992553711 84.90667724609375 127.24272918701172 80.77186584472656 115.21730041503906 C 78.00459289550781 100.29944610595703 105.71435546875 103.21092987060547 119.42253875732422 89.0404052734375 C 141.220947265625 91.03787994384766 142.14366149902344 84.8184585571289 140.56822204589844 93.9761962890625" stroke-width="0.0" fill="rgb(0, 185, 193)" opacity="0.99280345" stroke="rgb(195, 240, 130)" stroke-opacity="0.2845417" stroke-linecap="round" stroke-linejoin="round"/>
    <path d="M 195.53305053710938 60.454769134521484 C 171.4654998779297 123.00218200683594 147.55235290527344 106.79884338378906 138.3863525390625 94.88490295410156 C 88.72250366210938 95.55929565429688 81.79613494873047 116.55317687988281 80.59734344482422 98.7268295288086 C 110.24087524414062 83.0728759765625 122.23091125488281 79.9740982055664 128.72323608398438 77.79558563232422 C 145.6375274658203 72.4974594116211 156.82369995117188 69.832275390625 195.53305053710938 60.454769134521484" stroke-width="0.0" fill="rgb(205, 108, 170)" opacity="0.97537994" stroke="rgb(219, 63, 153)" stroke-opacity="0.686023" stroke-linecap="round" stroke-linejoin="round"/>
    <path d="M 233.7844696044922 204.96359252929688 C 229.38755798339844 210.96958923339844 210.07614135742188 191.42727661132812 185.27822875976562 197.91629028320312 C 166.82080078125 202.44351196289062 154.61505126953125 214.01080322265625 158.22088623046875 198.28834533691406 C 164.56704711914062 183.5751495361328 194.72572326660156 178.3928680419922 215.4857940673828 185.11520385742188 C 219.64590454101562 186.2012939453125 236.56114196777344 192.77462768554688 233.7844696044922 204.96359252929688" stroke-width="0.0" fill="rgb(92, 52, 18)" opacity="0.98346496" stroke="rgb(209, 2, 114)" stroke-opacity="0.14601965" stroke-linecap="round" stroke-linejoin="round"/>
    <path d="M 21.372777938842773 200.58990478515625 C 26.607894897460938 207.93096923828125 19.915668487548828 215.08973693847656 14.80952262878418 213.71253967285156 C 10.182977676391602 214.8188018798828 2.6910393238067627 203.95547485351562 -0.06324648857116699 196.37794494628906 C -0.4963020384311676 196.09158325195312 -0.574394702911377 189.39671325683594 6.003127098083496 187.6111297607422 C 16.04129981994629 186.4048614501953 13.695219993591309 193.98350524902344 21.372777938842773 200.58990478515625" stroke-width="0.0" fill="rgb(30, 166, 223)" opacity="0.9702369" stroke="rgb(184, 3, 179)" stroke-opacity="0.51010346" stroke-linecap="round" stroke-linejoin="round"/>
    <path d="M 167.6295623779297 209.78953552246094 C 175.40011596679688 229.04061889648438 161.10972595214844 238.6265869140625 151.82974243164062 238.8883056640625 C 141.76475524902344 240.63626098632812 132.9123077392578 231.74949645996094 132.15481567382812 223.1909637451172 C 131.99766540527344 209.77871704101562 140.294921875 205.0989227294922 159.71804809570312 204.00540161132812 C 142.7161865234375 191.9031219482422 153.88441467285156 200.00723266601562 167.6295623779297 209.78953552246094" stroke-width="0.0" fill="rgb(194, 46, 44)" opacity="0.71804035" stroke="rgb(103, 67, 70)" stroke-opacity="0.05090747" stroke-linecap="round" stroke-linejoin="round"/>
    <path d="M 412.11627197265625 223.67498779296875 C 411.90850830078125 229.78443908691406 401.5332946777344 241.0015869140625 388.6067810058594 237.16439819335938 C 381.5375671386719 235.4588165283203 371.9003601074219 230.8968963623047 377.0685729980469 217.3966064453125 C 375.69189453125 210.67604064941406 386.1083068847656 198.09490966796875 400.5506591796875 203.5525665283203 C 405.88140869140625 205.28323364257812 413.5928955078125 213.93353271484375 412.11627197265625 223.67498779296875" stroke-width="0.0" fill="rgb(207, 90, 45)" opacity="0.9998989" stroke="rgb(135, 167, 183)" stroke-opacity="0.38948587" stroke-linecap="round" stroke-linejoin="round"/>
    <path d="M 258.0353088378906 115.78126525878906 C 249.9141845703125 133.36367797851562 248.2425079345703 142.546142578125 142.11639404296875 144.1829833984375 C 154.12147521972656 120.71515655517578 170.8828125 114.34365844726562 185.5126495361328 85.77159118652344 C 190.7100830078125 70.14441680908203 191.56118774414062 67.72357940673828 207.34765625 67.72162628173828 C 234.66099548339844 73.91694641113281 242.33120727539062 71.56282806396484 258.0353088378906 115.78126525878906" stroke-width="0.0" fill="rgb(238, 201, 45)" opacity="0.99893624" stroke="rgb(10, 236, 9)" stroke-opacity="0.2930424" stroke-linecap="round" stroke-linejoin="round"/>
    <path d="M 214.77374267578125 60.89037322998047 C 212.22500610351562 105.30532836914062 221.5244598388672 123.76026916503906 100.0209732055664 179.82774353027344 C 96.27877044677734 194.74853515625 103.2764892578125 136.4192657470703 140.98281860351562 107.47745513916016 C 145.08956909179688 93.96426391601562 186.36106872558594 68.27191162109375 194.1546630859375 66.14923858642578 C 220.34523010253906 61.021697998046875 219.33966064453125 60.7071533203125 214.77374267578125 60.89037322998047" stroke-width="0.0" fill="rgb(232, 185, 36)" opacity="0.9889818" stroke="rgb(29, 246, 254)" stroke-opacity="0.18962392" stroke-linecap="round" stroke-linejoin="round"/>
    <path d="M 459.9995422363281 50.646297454833984 C 456.26226806640625 60.298423767089844 457.191162109375 64.92236328125 451.0784912109375 67.8828125 C 445.7066650390625 69.25479125976562 439.52642822265625 65.17454528808594 441.075439453125 57.91843032836914 C 444.289306640625 48.56313705444336 443.73651123046875 41.85617446899414 452.3478698730469 41.546142578125 C 455.9179382324219 41.75432586669922 460.26885986328125 45.058528900146484 459.9995422363281 50.646297454833984" stroke-width="0.0" fill="rgb(0, 156, 230)" opacity="0.84163284" stroke="rgb(153, 176, 173)" stroke-opacity="0.29215872" stroke-linecap="round" stroke-linejoin="round"/>
    <path d="M 222.1444549560547 146.23643493652344 C 211.28250122070312 148.42434692382812 196.2697296142578 142.47767639160156 185.55551147460938 145.0053253173828 C 137.03785705566406 152.20755004882812 123.2552261352539 155.3334503173828 130.67210388183594 150.1974639892578 C 156.1006622314453 135.4997100830078 195.55111694335938 133.18521118164062 201.92971801757812 130.5966796875 C 216.1864776611328 135.06483459472656 223.19227600097656 133.05543518066406 222.1444549560547 146.23643493652344" stroke-width="0.0" fill="rgb(94, 54, 18)" opacity="0.995022" stroke="rgb(160, 208, 248)" stroke-opacity="0.2351929" stroke-linecap="round" stroke-linejoin="round"/>
    <path d="M 361.19915771484375 313.351318359375 C 356.1993103027344 344.5738830566406 354.4100036621094 346.408203125 357.91607666015625 365.864990234375 C 342.2247619628906 369.62750244140625 355.839599609375 433.60455322265625 196.96131896972656 388.7956237792969 C 411.8704528808594 314.781005859375 448.0625 248.9946746826172 418.9056396484375 280.7440490722656 C 371.431396484375 316.34454345703125 365.1556396484375 316.6918640136719 361.19915771484375 313.351318359375" stroke-width="0.0" fill="rgb(231, 185, 37)" opacity="0.80933857" stroke="rgb(125, 45, 196)" stroke-opacity="0.011847579" stroke-linecap="round" stroke-linejoin="round"/>
    <path d="M 299.26080322265625 92.38117218017578 C 274.8540344238281 127.38304901123047 261.0185546875 112.38835144042969 247.74624633789062 106.83794403076172 C 205.96456909179688 94.12675476074219 204.32835388183594 91.71189880371094 201.099609375 85.068603515625 C 197.31936645507812 52.56235885620117 209.97747802734375 70.02808380126953 275.8675231933594 50.00897216796875 C 268.09686279296875 45.97776794433594 262.8121643066406 47.45155715942383 299.26080322265625 92.38117218017578" stroke-width="0.0" fill="rgb(234, 193, 41)" opacity="0.9756663" stroke="rgb(80, 219, 35)" stroke-opacity="0.5199825" stroke-linecap="round" stroke-linejoin="round"/>
    <path d="M 285.1165466308594 47.411720275878906 C 237.15687561035156 78.5997314453125 253.28822326660156 62.227725982666016 210.04916381835938 97.94995880126953 C 197.95486450195312 96.20980834960938 195.00636291503906 95.54470825195312 192.53768920898438 66.6169662475586 C 204.3860626220703 60.88618469238281 209.81080627441406 59.25047302246094 222.63937377929688 54.892826080322266 C 245.5161590576172 48.484737396240234 263.7583312988281 47.04019546508789 285.1165466308594 47.411720275878906" stroke-width="0.0" fill="rgb(230, 182, 34)" opacity="0.9927387" stroke="rgb(143, 203, 125)" stroke-opacity="0.25608763" stroke-linecap="round" stroke-linejoin="round"/>
  </g>
</svg>
