<?xml version="1.0" ?>
<svg xmlns="http://www.w3.org/2000/svg" version="1.1" width="512" height="406">
  <defs/>
  <g>
    <path d="M 349.4966125488281 247.36026000976562 C 349.45086669921875 280.9998474121094 354.33880615234375 251.95269775390625 342.53253173828125 326.6585388183594 C 272.1304931640625 335.650146484375 228.64004516601562 333.1758728027344 220.9857177734375 297.0573425292969 C 219.2457275390625 211.7210235595703 230.00576782226562 209.9650115966797 266.9808044433594 194.47726440429688 C 337.132080078125 207.5555877685547 335.3567199707031 213.3492889404297 349.4966125488281 247.36026000976562" stroke-width="0.0" fill="rgb(242, 210, 0)" opacity="0.7069995" stroke="rgb(190, 232, 102)" stroke-opacity="0.9440266" stroke-linecap="round" stroke-linejoin="round"/>
    <path d="M 212.62664794921875 58.11595153808594 C 210.69845581054688 59.178218841552734 191.11123657226562 67.07038879394531 199.3059539794922 63.2189826965332 C 185.22933959960938 57.3936653137207 169.09483337402344 59.71382522583008 79.84820556640625 8.51270866394043 C 80.45941925048828 -27.722675323486328 105.50714111328125 -21.17484474182129 304.5211486816406 4.691113471984863 C 228.54989624023438 72.37911987304688 184.09439086914062 2.042166233062744 212.62664794921875 58.11595153808594" stroke-width="0.0" fill="rgb(255, 255, 255)" opacity="0.83183044" stroke="rgb(14, 90, 70)" stroke-opacity="0.1701047" stroke-linecap="round" stroke-linejoin="round"/>
    <path d="M 196.98623657226562 63.864356994628906 C 167.30047607421875 80.2809066772461 134.67665100097656 97.08663940429688 103.48963165283203 160.35549926757812 C 56.69829559326172 156.75875854492188 35.75420379638672 177.56640625 20.257705688476562 118.48613739013672 C 23.135231018066406 -32.68238830566406 43.34877395629883 -20.16331672668457 120.07328796386719 20.132532119750977 C 176.9250030517578 47.376033782958984 179.91175842285156 51.085723876953125 196.98623657226562 63.864356994628906" stroke-width="0.0" fill="rgb(210, 180, 255)" opacity="0.52654326" stroke="rgb(150, 199, 133)" stroke-opacity="0.4235589" stroke-linecap="round" stroke-linejoin="round"/>
  </g>
</svg>
