<?xml version="1.0" ?>
<svg xmlns="http://www.w3.org/2000/svg" version="1.1" width="512" height="406">
  <defs/>
  <g>
    <path d="M -0.6331281065940857 -0.8159691095352173 L 512.0005493164062 -0.8247911930084229 L 512.0 406.0 L -0.6269288063049316 406.0 L -0.6331281065940857 -0.8159691095352173" stroke-width="0.0" fill="rgb(254, 252, 249)" opacity="0.95965195" stroke="rgb(0, 0, 0)" stroke-opacity="0.0" stroke-linecap="round" stroke-linejoin="round"/>
    <path d="M 512.3759765625 -0.7678722143173218 C 340.6525573730469 -0.7887940406799316 170.316162109375 -0.1775452345609665 0.030384913086891174 0.6772624254226685 L 0.07503797113895416 405.89825439453125 L 512.3829956054688 405.8629150390625 L 512.3759765625 -0.7678722143173218" stroke-width="2.0" fill="rgb(254, 254, 253)" opacity="0.94083387" stroke="rgb(0, 0, 0)" stroke-opacity="0.0" stroke-linecap="round" stroke-linejoin="round"/>
    <path d="M 235.48809814453125 51.37482452392578 C 204.9925537109375 59.250343322753906 174.19398498535156 70.23202514648438 144.07089233398438 99.06195068359375 C 140.0818328857422 109.30410766601562 129.5624237060547 111.56871795654297 122.98139953613281 121.9839859008789 C 81.15495300292969 193.008056640625 79.60447692871094 265.5271301269531 126.65251922607422 333.03863525390625 C 188.90525817871094 406.1195373535156 258.4252014160156 413.69561767578125 323.3023681640625 400.6834716796875 C 362.3753662109375 390.9773254394531 410.269287109375 361.20654296875 436.9662170410156 316.3566589355469 C 474.3197937011719 244.87017822265625 473.7402038574219 163.9412841796875 398.3705749511719 91.08521270751953 C 366.47802734375 66.89884185791016 335.1368408203125 52.66807556152344 300.9462585449219 49.19780349731445 C 299.29974365234375 63.02769088745117 275.08990478515625 72.26069641113281 275.53656005859375 55.7563591003418 C 276.6888122558594 54.152748107910156 283.2908020019531 48.898197174072266 278.8600158691406 47.30531692504883 C 261.7121276855469 47.29049301147461 248.94451904296875 48.78901672363281 235.48809814453125 51.37482452392578" stroke-width="2.0" fill="rgb(237, 198, 38)" opacity="0.9667392" stroke="rgb(0, 0, 0)" stroke-opacity="0.0" stroke-linecap="round" stroke-linejoin="round"/>
    <path d="M 53.001895904541016 25.094661712646484 C 55.13167953491211 36.880523681640625 64.59181213378906 47.66576385498047 60.92498016357422 57.81753921508789 C 67.83474731445312 63.99592971801758 70.06267547607422 72.33756256103516 73.96505737304688 83.71955108642578 C 71.93253326416016 87.05009460449219 64.8514404296875 92.12567901611328 74.24197387695312 99.00337219238281 C 91.44740295410156 98.27088165283203 72.75934600830078 120.10877990722656 88.87387084960938 121.71412658691406 C 92.5354232788086 133.84652709960938 97.3133773803711 145.64675903320312 102.43335723876953 159.4004669189453 C 114.32902526855469 141.0367431640625 122.3966064453125 118.94418334960938 141.21669006347656 107.30661010742188 C 145.5274658203125 95.74845123291016 163.1709442138672 86.34383392333984 173.49215698242188 77.56493377685547 L 199.02818298339844 63.17964172363281 C 192.16470336914062 59.79228973388672 182.49314880371094 59.19621658325195 177.770751953125 56.958465576171875 C 174.2892303466797 48.516048431396484 164.41506958007812 52.79261779785156 159.0006103515625 52.54527282714844 C 140.61489868164062 46.1896858215332 123.74977111816406 44.864444732666016 106.21531677246094 37.49115753173828 C 89.96073913574219 36.13654327392578 72.04633331298828 28.49553108215332 53.001895904541016 25.094661712646484" stroke-width="2.0" fill="rgb(173, 72, 144)" opacity="0.7655182" stroke="rgb(0, 0, 0)" stroke-opacity="0.0" stroke-linecap="round" stroke-linejoin="round"/>
    <path d="M 233.40005493164062 197.3395233154297 C 217.5079803466797 177.71682739257812 193.12998962402344 181.62158203125 174.41001892089844 185.58123779296875 C 164.72927856445312 188.1537628173828 157.1551971435547 194.5074920654297 156.73370361328125 205.843994140625 C 138.44839477539062 200.5940704345703 120.21620178222656 222.11524963378906 141.3428955078125 236.62460327148438 C 158.89047241210938 248.01535034179688 181.88064575195312 220.6557159423828 163.69180297851562 206.77552795410156 C 187.30552673339844 190.56968688964844 208.41835021972656 196.11570739746094 232.648193359375 206.7898712158203 L 233.40005493164062 197.3395233154297" stroke-width="2.0" fill="rgb(174, 106, 29)" opacity="0.88244015" stroke="rgb(0, 0, 0)" stroke-opacity="0.0" stroke-linecap="round" stroke-linejoin="round"/>
    <path d="M 176.87667846679688 54.782989501953125 C 173.13790893554688 50.22441101074219 169.48109436035156 50.280120849609375 166.28465270996094 51.285980224609375 C 134.29833984375 59.34610366821289 100.73834991455078 67.04866790771484 68.95957946777344 88.05132293701172 C 68.3768310546875 96.31680297851562 73.2836685180664 101.04873657226562 80.33907318115234 99.07714080810547 C 113.20282745361328 79.76287841796875 143.99520874023438 73.31629180908203 176.5653533935547 64.86137390136719 L 176.87667846679688 54.782989501953125" stroke-width="2.0" fill="rgb(3, 184, 190)" opacity="0.96663564" stroke="rgb(0, 0, 0)" stroke-opacity="0.0" stroke-linecap="round" stroke-linejoin="round"/>
    <path d="M 255.67181396484375 226.9091339111328 C 268.89166259765625 234.35821533203125 281.0290222167969 232.41600036621094 293.6310119628906 245.22740173339844 C 289.0510559082031 257.7806396484375 268.9877014160156 258.6409606933594 256.861328125 264.6067810058594 L 285.4368591308594 274.91412353515625 C 294.7471923828125 280.95654296875 295.19549560546875 285.5388488769531 286.52789306640625 289.9993896484375 C 277.2928161621094 295.8903503417969 265.43463134765625 296.88409423828125 256.2148742675781 302.1884460449219 C 273.8354187011719 301.5599670410156 290.57147216796875 302.6043395996094 305.71026611328125 288.29693603515625 C 311.49322509765625 272.66351318359375 291.535888671875 267.82659912109375 278.58966064453125 264.35845947265625 C 292.1536865234375 261.22540283203125 314.228759765625 254.345458984375 304.25396728515625 238.8921661376953 C 290.3536682128906 227.17428588867188 273.33587646484375 226.571044921875 255.67181396484375 226.9091339111328" stroke-width="2.0" fill="rgb(99, 60, 15)" opacity="1.0190415" stroke="rgb(0, 0, 0)" stroke-opacity="0.0" stroke-linecap="round" stroke-linejoin="round"/>
    <path d="M 318.2416076660156 141.1234893798828 L 317.8385314941406 150.39645385742188 L 349.2789306640625 146.5606231689453 C 370.8896179199219 148.99700927734375 390.5787048339844 155.30401611328125 412.90740966796875 155.48617553710938 C 384.5528869628906 135.9824981689453 353.5556945800781 131.91732788085938 329.41522216796875 133.08966064453125 C 325.41375732421875 135.05764770507812 320.5693359375 134.28988647460938 318.2416076660156 141.1234893798828" stroke-width="2.0" fill="rgb(99, 58, 16)" opacity="1.0082084" stroke="rgb(0, 0, 0)" stroke-opacity="0.0" stroke-linecap="round" stroke-linejoin="round"/>
    <path d="M 303.0776672363281 199.11788940429688 L 304.6610412597656 206.99122619628906 C 323.0396423339844 200.52835083007812 338.3829345703125 192.14967346191406 356.662841796875 199.1302947998047 C 366.9864196777344 201.42877197265625 385.89874267578125 215.2560272216797 378.1358337402344 195.08021545410156 C 357.8110656738281 176.7859649658203 330.4115905761719 180.4113311767578 310.74139404296875 189.62875366210938 L 303.0776672363281 199.11788940429688" stroke-width="2.0" fill="rgb(97, 57, 16)" opacity="1.0088503" stroke="rgb(0, 0, 0)" stroke-opacity="0.0" stroke-linecap="round" stroke-linejoin="round"/>
    <path d="M 158.2183837890625 197.2212371826172 C 158.6735076904297 200.72784423828125 155.9979248046875 204.0623321533203 161.28871154785156 207.01023864746094 C 183.88665771484375 195.09024047851562 203.2279052734375 192.0757293701172 227.78121948242188 206.02398681640625 C 239.23696899414062 207.4299774169922 233.96759033203125 194.57093811035156 224.98016357421875 188.9774932861328 C 204.51788330078125 180.12908935546875 176.42861938476562 177.14727783203125 158.2183837890625 197.2212371826172" stroke-width="2.0" fill="rgb(70, 37, 11)" opacity="0.7647108" stroke="rgb(0, 0, 0)" stroke-opacity="0.0" stroke-linecap="round" stroke-linejoin="round"/>
    <path d="M 157.62376403808594 204.8748779296875 C 139.517822265625 200.5782012939453 119.09818267822266 226.1223907470703 143.38116455078125 237.63327026367188 C 162.5394287109375 247.3424072265625 183.41075134277344 212.0423126220703 157.62376403808594 204.8748779296875" stroke-width="2.0" fill="rgb(205, 90, 42)" opacity="0.9719151" stroke="rgb(0, 0, 0)" stroke-opacity="0.0" stroke-linecap="round" stroke-linejoin="round"/>
    <path d="M 391.3975524902344 201.6859893798828 C 377.927734375 204.70819091796875 369.0255126953125 224.79006958007812 381.2321472167969 234.1849365234375 C 400.03350830078125 247.20896911621094 426.91888427734375 223.5027313232422 402.8426818847656 204.36917114257812 L 391.3975524902344 201.6859893798828" stroke-width="2.0" fill="rgb(205, 92, 42)" opacity="0.9974943" stroke="rgb(0, 0, 0)" stroke-opacity="0.0" stroke-linecap="round" stroke-linejoin="round"/>
    <path d="M 142.08697509765625 98.9482650756836 C 132.54379272460938 89.24040222167969 118.65779876708984 97.77836608886719 108.19148254394531 97.8358154296875 C 99.3171615600586 103.68626403808594 69.50646209716797 103.6624984741211 84.80619812011719 121.5733413696289 C 102.4825668334961 118.22774505615234 119.40503692626953 108.66707611083984 138.08657836914062 110.52735900878906 C 142.0221710205078 106.939208984375 142.6456756591797 103.629638671875 142.08697509765625 98.9482650756836" stroke-width="2.0" fill="rgb(0, 186, 191)" opacity="0.9440059" stroke="rgb(0, 0, 0)" stroke-opacity="0.0" stroke-linecap="round" stroke-linejoin="round"/>
    <path d="M 132.7455291748047 112.5831298828125 C 117.26631164550781 112.39486694335938 103.46176147460938 116.96531677246094 88.60221862792969 122.60672760009766 L 103.44673919677734 161.9338836669922 C 112.11088562011719 143.92071533203125 121.59807586669922 128.58676147460938 132.7455291748047 112.5831298828125" stroke-width="2.0" fill="rgb(205, 107, 164)" opacity="0.75889784" stroke="rgb(0, 0, 0)" stroke-opacity="0.0" stroke-linecap="round" stroke-linejoin="round"/>
    <path d="M 221.43594360351562 137.44625854492188 C 210.6085662841797 129.10125732421875 192.7074737548828 134.0518341064453 180.56451416015625 134.3018798828125 C 167.3275146484375 136.83811950683594 154.71939086914062 139.84963989257812 142.3340301513672 144.56849670410156 C 138.41421508789062 147.21493530273438 130.20506286621094 147.745361328125 128.95803833007812 153.04379272460938 C 161.1558380126953 150.26641845703125 189.03579711914062 140.3265838623047 218.01138305664062 147.40870666503906 C 224.37538146972656 145.91848754882812 221.7741241455078 143.074951171875 221.43594360351562 137.44625854492188" stroke-width="2.0" fill="rgb(99, 58, 15)" opacity="1.0058441" stroke="rgb(0, 0, 0)" stroke-opacity="0.0" stroke-linecap="round" stroke-linejoin="round"/>
    <path d="M 111.35977172851562 38.971107482910156 C 96.66240692138672 30.90922737121582 80.12354278564453 50.40823745727539 62.872406005859375 50.564937591552734 C 52.716896057128906 62.311988830566406 69.2152099609375 70.40599060058594 76.47274780273438 63.942134857177734 C 89.3687744140625 58.20392990112305 100.03944396972656 53.85664367675781 112.67693328857422 50.06843566894531 L 111.35977172851562 38.971107482910156" stroke-width="2.0" fill="rgb(13, 181, 190)" opacity="1.0048853" stroke="rgb(0, 0, 0)" stroke-opacity="0.0" stroke-linecap="round" stroke-linejoin="round"/>
    <path d="M 52.27558898925781 25.147693634033203 C 58.549007415771484 34.91139602661133 57.25429153442383 54.447052001953125 70.78486633300781 48.211814880371094 L 96.93356323242188 36.77408218383789 L 52.27558898925781 25.147693634033203" stroke-width="2.0" fill="rgb(202, 108, 168)" opacity="0.80145955" stroke="rgb(0, 0, 0)" stroke-opacity="0.0" stroke-linecap="round" stroke-linejoin="round"/>
    <path d="M 169.1044464111328 96.2241439819336 C 163.1719207763672 110.09368133544922 185.14166259765625 114.07452392578125 195.4558563232422 114.7970962524414 C 208.94871520996094 99.90069580078125 178.5647735595703 90.0689926147461 169.1044464111328 96.2241439819336" stroke-width="2.0" fill="rgb(145, 194, 58)" opacity="1.0055559" stroke="rgb(0, 0, 0)" stroke-opacity="0.0" stroke-linecap="round" stroke-linejoin="round"/>
    <path d="M 2.597942352294922 188.8135528564453 C -5.7114577293396 196.07994079589844 9.262025833129883 218.444091796875 20.06764793395996 212.86065673828125 C 29.380155563354492 205.92782592773438 11.717620849609375 181.0823974609375 2.597942352294922 188.8135528564453" stroke-width="2.0" fill="rgb(47, 167, 219)" opacity="0.998305" stroke="rgb(0, 0, 0)" stroke-opacity="0.0" stroke-linecap="round" stroke-linejoin="round"/>
    <path d="M 301.3634948730469 49.90156173706055 C 292.6764831542969 38.75076675415039 261.73382568359375 55.063323974609375 279.7947998046875 65.8350830078125 C 287.0314636230469 66.38043212890625 303.87841796875 61.620079040527344 301.3634948730469 49.90156173706055" stroke-width="2.0" fill="rgb(-3, 145, 203)" opacity="0.78857136" stroke="rgb(0, 0, 0)" stroke-opacity="0.0" stroke-linecap="round" stroke-linejoin="round"/>
    <path d="M 310.7516784667969 -0.06852682679891586 C 299.15472412109375 9.911192893981934 320.0836486816406 39.690277099609375 327.9358215332031 20.192668914794922 C 326.04913330078125 11.357749938964844 321.7158508300781 -2.103288173675537 310.7516784667969 -0.06852682679891586" stroke-width="2.0" fill="rgb(142, 195, 72)" opacity="1.0033981" stroke="rgb(0, 0, 0)" stroke-opacity="0.0" stroke-linecap="round" stroke-linejoin="round"/>
    <path d="M 455.6355895996094 42.02359390258789 C 440.7861022949219 36.2513313293457 433.2241516113281 74.65583038330078 453.01934814453125 67.26079559326172 C 457.8432312011719 58.98503494262695 463.7248840332031 48.8252067565918 455.6355895996094 42.02359390258789" stroke-width="2.0" fill="rgb(46, 167, 218)" opacity="0.99953544" stroke="rgb(0, 0, 0)" stroke-opacity="0.0" stroke-linecap="round" stroke-linejoin="round"/>
    <path d="M 488.85662841796875 167.21066284179688 C 484.8031311035156 181.7823486328125 516.1719970703125 190.9096221923828 512.2193603515625 171.8343505859375 C 504.4728698730469 164.6659698486328 496.0842590332031 158.91458129882812 488.85662841796875 167.21066284179688" stroke-width="2.0" fill="rgb(246, 177, 76)" opacity="1.0030594" stroke="rgb(0, 0, 0)" stroke-opacity="0.0" stroke-linecap="round" stroke-linejoin="round"/>
    <path d="M 3.7989070415496826 308.3608093261719 C 2.0569076538085938 320.8798828125 25.883766174316406 322.36749267578125 29.3046932220459 311.0776672363281 C 27.940828323364258 299.130615234375 9.084322929382324 298.9033203125 3.7989070415496826 308.3608093261719" stroke-width="2.0" fill="rgb(143, 194, 73)" opacity="1.0014226" stroke="rgb(0, 0, 0)" stroke-opacity="0.0" stroke-linecap="round" stroke-linejoin="round"/>
    <path d="M 386.236572265625 62.147071838378906 C 375.98016357421875 70.60538482666016 396.890380859375 92.6177978515625 404.31573486328125 78.01927185058594 C 406.1314697265625 69.97274017333984 394.6898498535156 56.16067123413086 386.236572265625 62.147071838378906" stroke-width="2.0" fill="rgb(244, 177, 76)" opacity="0.99905336" stroke="rgb(0, 0, 0)" stroke-opacity="0.0" stroke-linecap="round" stroke-linejoin="round"/>
    <path d="M 451.9421691894531 108.37328338623047 C 444.1391296386719 104.23963928222656 424.788818359375 117.18716430664062 437.5986633300781 127.44170379638672 C 444.91912841796875 129.4091339111328 463.4464416503906 118.3717269897461 451.9421691894531 108.37328338623047" stroke-width="2.0" fill="rgb(143, 196, 73)" opacity="1.0036789" stroke="rgb(0, 0, 0)" stroke-opacity="0.0" stroke-linecap="round" stroke-linejoin="round"/>
    <path d="M 470.9452209472656 286.3778381347656 C 465.816162109375 303.9093322753906 503.04315185546875 303.9004821777344 491.627685546875 284.8325500488281 C 485.1099548339844 283.241455078125 476.37750244140625 279.2498474121094 470.9452209472656 286.3778381347656" stroke-width="2.0" fill="rgb(49, 168, 217)" opacity="1.004928" stroke="rgb(0, 0, 0)" stroke-opacity="0.0" stroke-linecap="round" stroke-linejoin="round"/>
    <path d="M 206.81268310546875 34.83389663696289 C 198.32333374023438 41.528045654296875 214.7462615966797 63.08951187133789 223.82730102539062 50.39854049682617 C 226.8676300048828 41.469844818115234 216.64764404296875 28.60047149658203 206.81268310546875 34.83389663696289" stroke-width="2.0" fill="rgb(245, 176, 75)" opacity="1.0030416" stroke="rgb(0, 0, 0)" stroke-opacity="0.0" stroke-linecap="round" stroke-linejoin="round"/>
    <path d="M 77.43512725830078 118.27201843261719 C 63.59731674194336 117.0727310180664 61.06404495239258 145.8727569580078 78.6292495727539 138.1596221923828 C 86.2374496459961 131.8838653564453 86.39716339111328 120.71927642822266 77.43512725830078 118.27201843261719" stroke-width="2.0" fill="rgb(142, 194, 73)" opacity="1.0038713" stroke="rgb(0, 0, 0)" stroke-opacity="0.0" stroke-linecap="round" stroke-linejoin="round"/>
    <path d="M 89.50736236572266 263.5461730957031 C 74.93672943115234 259.5793762207031 65.36871337890625 284.2351989746094 83.75475311279297 283.2971496582031 C 91.24303436279297 278.5140380859375 98.56925964355469 270.2662048339844 89.50736236572266 263.5461730957031" stroke-width="2.0" fill="rgb(244, 177, 75)" opacity="0.9959489" stroke="rgb(0, 0, 0)" stroke-opacity="0.0" stroke-linecap="round" stroke-linejoin="round"/>
  </g>
</svg>
