<?xml version="1.0" ?>
<svg xmlns="http://www.w3.org/2000/svg" version="1.1" width="512" height="512">
  <defs/>
  <g>
    <path d="M 40.98756408691406 60.6539192199707 C 77.52379608154297 59.17447280883789 108.68305206298828 69.55126190185547 8.603622436523438 90.7220230102539 C 3.3722171783447266 50.81586837768555 12.281378746032715 60.14986038208008 16.200586318969727 61.947486877441406 C 13.233861923217773 37.931610107421875 19.988052368164062 34.266902923583984 19.61416244506836 35.86434555053711 C 10.108885765075684 63.29298400878906 16.09920883178711 61.58552551269531 40.98756408691406 60.6539192199707" stroke-width="0.0" fill="rgb(205, 148, 106)" opacity="0.8733466" stroke="rgb(69, 65, 228)" stroke-opacity="0.061015464" stroke-linecap="round" stroke-linejoin="round"/>
    <path d="M 83.16918182373047 60.76201629638672 C 105.85565185546875 273.0450439453125 124.56167602539062 148.13723754882812 6.620877265930176 267.7129211425781 C 7.257289409637451 13.10756778717041 5.604891777038574 63.79526901245117 12.41568374633789 60.48160934448242 C 12.657548904418945 52.39030838012695 20.59092140197754 49.10344314575195 26.364450454711914 32.52237319946289 C 9.632551193237305 71.57222747802734 -9.962122917175293 55.67435073852539 83.16918182373047 60.76201629638672" stroke-width="0.0" fill="rgb(115, 63, 29)" opacity="0.4337639" stroke="rgb(37, 210, 11)" stroke-opacity="0.6564148" stroke-linecap="round" stroke-linejoin="round"/>
    <path d="M 406.5375671386719 7.317392826080322 C 424.9104919433594 75.60672760009766 416.6893005371094 90.63221740722656 391.7781982421875 96.31099700927734 C 253.16067504882812 153.49032592773438 304.7088317871094 177.22421264648438 210.30438232421875 169.90736389160156 C 177.0504913330078 -21.413293838500977 179.3418426513672 11.091389656066895 228.86183166503906 7.007695198059082 C 327.1454162597656 7.648716449737549 332.72247314453125 6.928288459777832 406.5375671386719 7.317392826080322" stroke-width="0.0" fill="rgb(119, 145, 138)" opacity="0.23404928" stroke="rgb(236, 152, 50)" stroke-opacity="0.7445966" stroke-linecap="round" stroke-linejoin="round"/>
    <path d="M 5.119996070861816 308.434326171875 C 4.385566234588623 262.3282165527344 4.641998767852783 256.6251525878906 5.234258651733398 330.269775390625 C -46.342281341552734 302.888427734375 -11.031725883483887 263.91546630859375 -13.166391372680664 246.05288696289062 C -13.848542213439941 220.67227172851562 -92.06729888916016 161.0451202392578 6.95938777923584 92.39740753173828 C 5.7922139167785645 292.9768371582031 9.656328201293945 315.6307067871094 5.119996070861816 308.434326171875" stroke-width="0.0" fill="rgb(254, 253, 255)" opacity="0.8901752" stroke="rgb(115, 68, 133)" stroke-opacity="0.4278751" stroke-linecap="round" stroke-linejoin="round"/>
    <path d="M 6.694545745849609 425.25311279296875 C 7.23240327835083 394.60626220703125 5.437657833099365 389.2845764160156 7.002756118774414 518.2693481445312 C -75.86080932617188 474.67559814453125 -16.23879623413086 423.2592468261719 -16.6998291015625 388.6234130859375 C -15.475780487060547 368.87457275390625 -43.156620025634766 345.6055908203125 7.341039657592773 300.5264892578125 C 6.506243705749512 368.2105407714844 7.373143672943115 400.6261291503906 6.694545745849609 425.25311279296875" stroke-width="0.0" fill="rgb(255, 255, 255)" opacity="1.0" stroke="rgb(169, 142, 102)" stroke-opacity="0.36690417" stroke-linecap="round" stroke-linejoin="round"/>
    <path d="M 135.49679565429688 191.1992950439453 C 129.99913024902344 277.968505859375 211.8426513671875 382.04962158203125 107.35092163085938 399.7417907714844 C 116.8415298461914 222.59388732910156 83.15965270996094 195.6804656982422 99.22496795654297 224.40821838378906 C 74.18616485595703 68.61225891113281 74.4238510131836 58.96913528442383 82.28085327148438 60.6378059387207 C 109.2013931274414 234.5274658203125 87.02080535888672 179.2465362548828 135.49679565429688 191.1992950439453" stroke-width="0.0" fill="rgb(0, 13, 23)" opacity="0.61035866" stroke="rgb(80, 76, 67)" stroke-opacity="0.21527018" stroke-linecap="round" stroke-linejoin="round"/>
    <path d="M 90.73925018310547 407.03411865234375 C 200.2777557373047 356.6152648925781 192.73085021972656 485.4855651855469 171.18214416503906 469.920654296875 C 34.44416809082031 501.4530029296875 61.02840042114258 494.5172119140625 7.373687267303467 497.5856628417969 C -18.190296173095703 203.25222778320312 53.71993637084961 220.55465698242188 42.31795883178711 466.7867431640625 C 119.5211410522461 469.8092041015625 77.51363372802734 456.3055725097656 90.73925018310547 407.03411865234375" stroke-width="0.0" fill="rgb(46, 38, 31)" opacity="0.5277634" stroke="rgb(223, 167, 125)" stroke-opacity="0.57557094" stroke-linecap="round" stroke-linejoin="round"/>
    <path d="M 522.3876953125 221.9210968017578 C 523.0891723632812 231.69912719726562 522.1212768554688 232.17758178710938 506.01873779296875 231.911865234375 C 506.1199951171875 212.58489990234375 505.03106689453125 206.83631896972656 505.691162109375 284.1771545410156 C 507.4322814941406 246.52513122558594 506.00054931640625 187.70347595214844 506.6396789550781 107.02184295654297 C 577.5491943359375 150.76217651367188 525.979736328125 205.72549438476562 522.3876953125 221.9210968017578" stroke-width="0.0" fill="rgb(251, 248, 246)" opacity="1.0" stroke="rgb(236, 33, 34)" stroke-opacity="0.59380275" stroke-linecap="round" stroke-linejoin="round"/>
    <path d="M 448.38848876953125 187.69448852539062 C 448.0338439941406 289.1570129394531 460.9547424316406 249.73211669921875 383.4200744628906 304.7745056152344 C 374.35015869140625 354.8551940917969 374.8198547363281 351.54962158203125 344.45758056640625 206.6349639892578 C 319.4049987792969 322.4645080566406 334.13232421875 214.69334411621094 343.1483459472656 187.7130584716797 C 416.2320556640625 188.60499572753906 398.4434814453125 184.9445343017578 448.38848876953125 187.69448852539062" stroke-width="0.0" fill="rgb(86, 89, 84)" opacity="0.81222254" stroke="rgb(187, 34, 142)" stroke-opacity="0.07925768" stroke-linecap="round" stroke-linejoin="round"/>
    <path d="M 75.29796600341797 97.69890594482422 C 71.3226318359375 116.26306915283203 65.8612060546875 131.36355590820312 48.1176872253418 213.7178497314453 C -42.04351806640625 220.73170471191406 42.39185333251953 199.06544494628906 37.95637512207031 180.90863037109375 C 60.12282943725586 92.11470031738281 65.32670593261719 72.53900909423828 69.16742706298828 60.781673431396484 C 95.9609146118164 57.79226303100586 79.4776611328125 79.10078430175781 75.29796600341797 97.69890594482422" stroke-width="0.0" fill="rgb(33, 55, 62)" opacity="0.7295483" stroke="rgb(154, 198, 188)" stroke-opacity="0.9296262" stroke-linecap="round" stroke-linejoin="round"/>
    <path d="M 93.29692840576172 403.4353942871094 C 91.23434448242188 520.1290893554688 114.10132598876953 429.5982666015625 129.9084014892578 477.79620361328125 C 62.485389709472656 475.0815734863281 83.66397857666016 491.1707763671875 82.00666809082031 451.857177734375 C 82.82888793945312 391.1206970214844 80.92343139648438 391.6737060546875 82.45771026611328 392.16473388671875 C 100.66471099853516 397.0591735839844 101.19493865966797 396.4554748535156 93.29692840576172 403.4353942871094" stroke-width="0.0" fill="rgb(37, 50, 53)" opacity="1.0" stroke="rgb(245, 155, 158)" stroke-opacity="0.69371015" stroke-linecap="round" stroke-linejoin="round"/>
    <path d="M 132.98516845703125 230.50550842285156 C 149.2118377685547 358.52508544921875 154.5005340576172 336.7941589355469 135.95059204101562 335.7590637207031 C 99.24018859863281 289.9769287109375 132.46461486816406 345.36126708984375 113.562744140625 456.547119140625 C 114.03002166748047 261.43365478515625 110.47784423828125 262.87847900390625 126.40171813964844 285.5196228027344 C 150.46212768554688 338.80035400390625 112.4394302368164 183.69459533691406 132.98516845703125 230.50550842285156" stroke-width="0.0" fill="rgb(149, 148, 136)" opacity="0.9737282" stroke="rgb(166, 75, 45)" stroke-opacity="0.66183096" stroke-linecap="round" stroke-linejoin="round"/>
    <path d="M 319.3975524902344 324.7930908203125 C 315.287353515625 420.5779113769531 325.9557800292969 479.85888671875 307.4548645019531 455.6923522949219 C 310.17364501953125 340.6703796386719 310.519775390625 374.79730224609375 289.94696044921875 320.31671142578125 C 240.9910430908203 419.2970886230469 292.7372741699219 333.9090270996094 280.8371276855469 246.26083374023438 C 347.7035827636719 256.1135559082031 339.0747375488281 218.884033203125 319.3975524902344 324.7930908203125" stroke-width="0.0" fill="rgb(54, 48, 42)" opacity="0.7617537" stroke="rgb(108, 133, 28)" stroke-opacity="0.5740661" stroke-linecap="round" stroke-linejoin="round"/>
    <path d="M 490.00177001953125 477.2820739746094 C 504.31976318359375 462.37286376953125 505.6443786621094 307.84942626953125 506.5782470703125 492.6847229003906 C 275.0190124511719 476.1340026855469 295.99432373046875 439.9414367675781 475.310546875 474.7025146484375 C 477.1944274902344 371.16424560546875 470.56488037109375 397.8462829589844 488.460205078125 390.1160583496094 C 489.50927734375 416.1427001953125 487.786865234375 438.49530029296875 490.00177001953125 477.2820739746094" stroke-width="0.0" fill="rgb(53, 39, 29)" opacity="0.65084916" stroke="rgb(128, 222, 76)" stroke-opacity="0.90760267" stroke-linecap="round" stroke-linejoin="round"/>
    <path d="M 244.38197326660156 457.2749328613281 C 240.7552490234375 518.1675415039062 246.91668701171875 504.22772216796875 264.0531005859375 505.4706115722656 C 133.98008728027344 505.9869384765625 116.16197967529297 506.29931640625 122.16560363769531 505.33758544921875 C 181.48683166503906 479.01458740234375 189.88148498535156 476.9808044433594 220.9287109375 462.4520568847656 C 155.83029174804688 454.77642822265625 241.83389282226562 459.0291748046875 244.38197326660156 457.2749328613281" stroke-width="0.0" fill="rgb(58, 74, 78)" opacity="0.64869314" stroke="rgb(137, 2, 171)" stroke-opacity="0.8611319" stroke-linecap="round" stroke-linejoin="round"/>
  </g>
</svg>
