<?xml version="1.0" ?>
<svg xmlns="http://www.w3.org/2000/svg" version="1.1" width="512" height="512">
  <defs/>
  <g>
    <path d="M 0.0 0.0 L 512.0 0.0 L 512.0 512.0 L 0.0 512.0 L 0.0 0.0" stroke-width="0.0" fill="rgb(255, 255, 255)" opacity="1.0" stroke="rgb(0, 0, 0)" stroke-opacity="0.0" stroke-linecap="round" stroke-linejoin="round"/>
    <path d="M 0.0 0.0 L 0.0 511.0 L 511.0 511.0 L 511.0 0.0 L 0.0 0.0" stroke-width="2.0" fill="rgb(255, 255, 255)" opacity="1.0" stroke="rgb(0, 0, 0)" stroke-opacity="0.0" stroke-linecap="round" stroke-linejoin="round"/>
    <path d="M 243.0 31.0 C 218.6666717529297 17.503969192504883 194.3333282470703 31.046737670898438 170.0 52.0 C 126.67154693603516 61.55385208129883 76.45336151123047 29.89846420288086 38.0 81.0 C 32.437320709228516 90.52113342285156 31.21814727783203 102.9737777709961 19.0 102.0 C 16.998586654663086 110.8516616821289 16.760753631591797 118.09554290771484 23.0 126.0 C 14.827544212341309 166.9733428955078 43.480308532714844 219.4817657470703 93.0 251.0 C 130.0 272.83160400390625 167.0 266.2701110839844 204.0 281.0 C 222.01866149902344 284.29473876953125 247.88780212402344 274.46514892578125 257.0 251.0 C 257.6055908203125 239.0 270.310546875 227.0 259.0 215.0 C 260.88006591796875 204.6714630126953 268.4942932128906 191.2676239013672 259.0 184.0 C 266.9581298828125 179.97601318359375 272.62933349609375 166.8592529296875 283.0 170.0 L 286.0 167.0 C 294.7458801269531 174.9278564453125 305.7080078125 177.27488708496094 304.0 190.0 C 309.5656433105469 194.797119140625 312.87017822265625 181.18994140625 315.0 178.0 C 317.6704406738281 165.6666717529297 310.2698059082031 153.3333282470703 314.0 141.0 C 299.95440673828125 133.20602416992188 302.1016540527344 118.89167022705078 291.0 107.0 C 266.09814453125 86.22616577148438 248.46014404296875 64.07927703857422 251.0 42.0 L 243.0 31.0" stroke-width="2.0" fill="rgb(183, 213, 137)" opacity="1.0" stroke="rgb(0, 0, 0)" stroke-opacity="0.0" stroke-linecap="round" stroke-linejoin="round"/>
    <path d="M 338.0 212.0 C 321.6666564941406 219.4002227783203 305.3333435058594 227.97491455078125 289.0 241.0 L 288.0 317.0 C 291.31500244140625 324.02032470703125 291.1649475097656 326.6947021484375 299.0 333.0 C 299.12664794921875 341.77294921875 284.6755676269531 346.2542724609375 291.0 356.0 C 300.4430847167969 348.89251708984375 303.89080810546875 330.7729187011719 297.0 322.0 C 299.4951171875 308.1846008300781 316.03106689453125 316.63165283203125 326.0 315.0 C 321.4208679199219 298.6666564941406 340.2046203613281 282.3333435058594 329.0 266.0 C 321.7494812011719 251.2710723876953 344.0037536621094 221.02267456054688 361.0 243.0 C 363.72515869140625 235.0 359.4953308105469 227.0 364.0 219.0 C 376.1380310058594 219.9795684814453 393.1451110839844 214.1063690185547 402.0 223.0 L 401.0 247.0 L 362.0 248.0 L 377.0 249.0 C 396.2790832519531 255.5880584716797 397.6144104003906 277.7654724121094 402.0 292.0 C 403.7258605957031 305.0 405.45556640625 318.0 405.0 331.0 C 425.8376770019531 329.1507568359375 440.5379638671875 359.16119384765625 413.0 370.0 C 410.96368408203125 386.83642578125 415.8580322265625 387.1446838378906 427.0 398.0 C 428.197265625 416.3458251953125 389.4586181640625 429.0787658691406 389.0 406.0 C 396.6587219238281 399.55072021484375 394.26654052734375 389.08502197265625 388.0 381.0 C 371.0 390.3172607421875 354.0 407.66632080078125 337.0 401.0 C 321.0609436035156 395.3790283203125 325.11651611328125 377.5650939941406 319.0 369.0 C 311.8980712890625 376.6666564941406 313.9368591308594 384.3333435058594 323.0 392.0 C 329.33953857421875 408.3333435058594 341.6598815917969 424.6666564941406 327.0 441.0 C 310.8747863769531 456.7314758300781 291.6588134765625 462.1093444824219 274.0 457.0 C 263.9068298339844 437.7154846191406 250.59292602539062 414.068115234375 264.0 392.0 C 256.8345642089844 393.9758605957031 249.9403839111328 384.1141662597656 252.0 378.0 C 261.2149353027344 368.2685241699219 277.1806640625 355.1825256347656 260.0 345.0 C 270.2570495605469 342.6217041015625 269.2344970703125 338.684326171875 271.0 330.0 C 275.05987548828125 328.0286865234375 278.40460205078125 327.7062683105469 280.0 323.0 L 280.0 251.0 C 252.02020263671875 270.5413513183594 236.90765380859375 302.51470947265625 225.0 327.0 C 213.80120849609375 364.6666564941406 205.8155517578125 402.3333435058594 243.0 440.0 C 292.06573486328125 477.63104248046875 345.2848815917969 472.0341491699219 396.0 483.0 C 419.13079833984375 480.982177734375 447.1549377441406 491.4627990722656 467.0 462.0 C 478.30767822265625 421.3333435058594 468.7789306640625 380.6666564941406 454.0 340.0 C 448.8397216796875 304.6612548828125 475.44024658203125 266.6739196777344 445.0 233.0 L 413.0 232.0 C 407.6318054199219 223.5874481201172 416.8190612792969 212.7745819091797 409.0 206.0 C 385.6666564941406 201.70423889160156 362.3333435058594 203.8357696533203 338.0 212.0" stroke-width="2.0" fill="rgb(252, 218, 111)" opacity="1.0" stroke="rgb(0, 0, 0)" stroke-opacity="0.0" stroke-linecap="round" stroke-linejoin="round"/>
    <path d="M 228.0 321.0 C 209.01205444335938 364.88873291015625 207.1804656982422 420.9424743652344 262.0 454.0 C 314.0 475.4701232910156 366.0 479.04052734375 418.0 484.0 C 440.1914978027344 488.43359375 474.2100830078125 468.4807434082031 472.0 441.0 C 472.1739807128906 408.3333435058594 469.1309509277344 375.6666564941406 454.0 343.0 C 443.7509765625 344.1845397949219 436.4212341308594 339.2184753417969 426.0 341.0 C 434.4449768066406 350.4484558105469 424.85516357421875 363.69342041015625 413.0 370.0 C 414.1062316894531 379.62713623046875 408.12451171875 393.93145751953125 423.0 394.0 C 434.35162353515625 412.1861877441406 392.5175476074219 430.3470153808594 389.0 409.0 C 397.2579040527344 399.3333435058594 394.9637145996094 389.6666564941406 388.0 380.0 C 367.3333435058594 393.9819030761719 346.6666564941406 414.3185729980469 326.0 393.0 C 324.2472229003906 385.3254089355469 322.805908203125 375.0105895996094 319.0 369.0 C 305.4410095214844 383.6666564941406 330.65570068359375 398.3333435058594 332.0 413.0 C 343.16827392578125 442.28033447265625 296.7288818359375 464.8910217285156 276.0 458.0 C 263.18011474609375 436.6666564941406 250.76458740234375 415.3333435058594 264.0 394.0 C 245.64234924316406 388.76336669921875 251.4824676513672 371.3911437988281 264.0 365.0 C 270.23248291015625 355.4992980957031 266.8488464355469 352.2158203125 260.0 345.0 C 271.2804260253906 340.2164001464844 268.9568176269531 330.2862243652344 275.0 324.0 C 258.55938720703125 323.1661071777344 245.01910400390625 317.7066650390625 228.0 321.0" stroke-width="2.0" fill="rgb(252, 215, 99)" opacity="1.0" stroke="rgb(0, 0, 0)" stroke-opacity="0.0" stroke-linecap="round" stroke-linejoin="round"/>
    <path d="M 289.0 241.0 L 288.0 320.0 C 296.9920959472656 323.5432434082031 299.0429382324219 323.56683349609375 301.0 314.0 L 326.0 316.0 C 321.5486755371094 299.0 341.078857421875 282.0 329.0 265.0 C 321.670654296875 249.4833984375 346.6064758300781 221.2142791748047 361.0 244.0 C 364.2192687988281 235.5874481201172 358.29345703125 224.7745819091797 365.0 218.0 C 376.8113708496094 220.75535583496094 393.46917724609375 212.53985595703125 402.0 223.0 L 402.0 246.0 C 393.6666564941406 250.96270751953125 385.3333435058594 245.7601776123047 377.0 249.0 C 401.46270751953125 259.5003356933594 397.7102355957031 284.1737976074219 404.0 301.0 L 405.0 331.0 C 421.3333435058594 335.9702453613281 437.6666564941406 339.59051513671875 454.0 341.0 C 449.357666015625 305.3333435058594 473.7310791015625 269.6666564941406 447.0 234.0 C 435.0 230.0059814453125 423.0 237.30978393554688 411.0 230.0 C 409.8137512207031 222.0 414.0158386230469 214.0 409.0 206.0 C 369.3333435058594 198.63037109375 329.6666564941406 209.7291717529297 289.0 241.0" stroke-width="2.0" fill="rgb(253, 222, 129)" opacity="1.0" stroke="rgb(0, 0, 0)" stroke-opacity="0.0" stroke-linecap="round" stroke-linejoin="round"/>
    <path d="M 314.0 224.0 C 313.4991760253906 232.6666717529297 324.98577880859375 241.3333282470703 328.0 250.0 C 334.66455078125 233.9539337158203 357.85052490234375 229.27737426757812 363.0 249.0 C 387.986572265625 240.89991760253906 401.1428527832031 274.77813720703125 403.0 293.0 C 404.7340393066406 305.6666564941406 405.4433898925781 318.3333435058594 405.0 331.0 C 421.6666564941406 335.1714172363281 438.3333435058594 341.3216247558594 455.0 338.0 C 448.5391540527344 303.0 474.5610656738281 268.0 446.0 233.0 L 413.0 232.0 C 410.4735107421875 220.21641540527344 417.0370788574219 202.12742614746094 398.0 204.0 C 370.3333435058594 202.04666137695312 342.6666564941406 208.06109619140625 314.0 224.0" stroke-width="2.0" fill="rgb(251, 216, 113)" opacity="1.0" stroke="rgb(0, 0, 0)" stroke-opacity="0.0" stroke-linecap="round" stroke-linejoin="round"/>
    <path d="M 134.0 127.0 C 124.35111999511719 136.6814727783203 127.6314926147461 144.03793334960938 124.0 153.0 C 123.38097381591797 172.0 122.95326232910156 191.0 125.0 210.0 C 116.09833526611328 214.0446014404297 102.65647888183594 209.38427734375 97.0 222.0 C 108.15032196044922 238.1730194091797 125.84671020507812 253.71192932128906 141.0 255.0 C 172.6666717529297 254.1429443359375 204.3333282470703 268.26080322265625 236.0 256.0 C 241.70523071289062 246.0 237.30032348632812 236.0 245.0 226.0 C 257.96551513671875 213.99082946777344 265.2496643066406 205.35304260253906 263.0 192.0 C 257.00482177734375 189.41989135742188 258.5087585449219 208.60972595214844 248.0 200.0 C 250.8270263671875 186.1959991455078 236.3163299560547 189.54656982421875 227.0 191.0 C 224.63406372070312 211.0 230.2079620361328 231.0 224.0 251.0 C 211.91363525390625 253.3330535888672 216.68455505371094 237.73614501953125 213.0 231.0 C 212.532958984375 235.79232788085938 205.67453002929688 240.90567016601562 201.0 234.0 C 189.90379333496094 219.6486053466797 186.9028778076172 187.1534423828125 165.0 196.0 C 164.6898651123047 212.6666717529297 164.77285766601562 229.3333282470703 167.0 246.0 C 161.5667724609375 258.38983154296875 147.06838989257812 246.36669921875 154.0 238.0 C 152.83816528320312 218.0 158.48118591308594 198.0 146.0 178.0 C 146.7890167236328 160.6666717529297 139.04388427734375 143.3333282470703 143.0 126.0 C 140.3333282470703 123.77921295166016 137.6666717529297 125.04007720947266 134.0 127.0" stroke-width="2.0" fill="rgb(207, 219, 100)" opacity="1.0" stroke="rgb(0, 0, 0)" stroke-opacity="0.0" stroke-linecap="round" stroke-linejoin="round"/>
    <path d="M 351.0 237.0 C 328.04718017578125 236.23715209960938 325.7198486328125 264.7827453613281 336.0 279.0 C 336.120849609375 286.3333435058594 328.2829895019531 293.6666564941406 328.0 301.0 C 329.37274169921875 310.0128479003906 328.9138488769531 320.5113830566406 336.0 328.0 C 328.9186706542969 333.3333435058594 333.12420654296875 338.6666564941406 332.0 344.0 C 321.3333435058594 350.092041015625 310.6666564941406 339.547607421875 300.0 345.0 C 293.9493713378906 361.6666564941406 283.8932800292969 378.3333435058594 283.0 395.0 C 271.8328552246094 400.9095153808594 276.3816833496094 408.5267333984375 272.0 414.0 C 277.0256652832031 414.85687255859375 277.0836181640625 419.40814208984375 277.0 423.0 C 287.26409912109375 423.2438049316406 304.8802185058594 416.5091247558594 302.0 402.0 C 310.7536315917969 388.6666564941406 311.1763610839844 375.3333435058594 321.0 362.0 C 334.84735107421875 356.0289306640625 353.41851806640625 361.0824279785156 364.0 344.0 C 366.98419189453125 331.3333435058594 360.7667236328125 318.6666564941406 370.0 306.0 C 365.5664978027344 283.93243408203125 372.5285949707031 256.7585754394531 351.0 237.0" stroke-width="2.0" fill="rgb(120, 148, 150)" opacity="1.0" stroke="rgb(0, 0, 0)" stroke-opacity="0.0" stroke-linecap="round" stroke-linejoin="round"/>
    <path d="M 364.0 327.0 C 354.3333435058594 331.06988525390625 344.6666564941406 341.8420104980469 335.0 345.0 C 323.6666564941406 348.1022644042969 312.3333435058594 342.3253173828125 301.0 344.0 C 290.68463134765625 357.7611999511719 293.97564697265625 380.6357421875 274.0 384.0 C 248.86802673339844 408.0 262.4974365234375 432.0 276.0 456.0 C 294.6833801269531 463.09197998046875 335.9396667480469 445.1785583496094 332.0 418.0 C 326.60980224609375 407.607421875 324.7239685058594 390.5422058105469 311.0 385.0 C 311.2080383300781 368.6697998046875 326.5329895019531 354.4673156738281 342.0 358.0 C 356.8695068359375 356.5682373046875 369.49298095703125 341.8333435058594 364.0 327.0" stroke-width="2.0" fill="rgb(54, 162, 160)" opacity="1.0" stroke="rgb(0, 0, 0)" stroke-opacity="0.0" stroke-linecap="round" stroke-linejoin="round"/>
    <path d="M 264.0 190.0 C 254.6867218017578 187.1338348388672 260.0222473144531 209.14218139648438 248.0 200.0 C 250.27720642089844 185.97274780273438 237.5248565673828 190.6277618408203 228.0 190.0 C 223.83226013183594 210.3333282470703 231.4795684814453 230.6666717529297 224.0 251.0 C 211.4164581298828 253.3330535888672 215.54153442382812 237.73614501953125 215.0 231.0 C 206.4373779296875 235.98155212402344 200.20599365234375 233.61807250976562 195.0 223.0 C 191.9789581298828 237.68687438964844 174.38427734375 239.59417724609375 165.0 238.0 C 170.66104125976562 252.24368286132812 150.702392578125 255.81375122070312 153.0 240.0 C 135.12733459472656 250.13333129882812 123.86661529541016 224.23675537109375 123.0 211.0 C 115.09903717041016 211.9923858642578 96.56927490234375 212.24029541015625 98.0 225.0 C 115.4525375366211 246.43536376953125 133.38455200195312 255.72921752929688 152.0 257.0 C 180.6666717529297 252.9465789794922 209.3333282470703 271.3335876464844 238.0 254.0 C 237.97471618652344 241.73532104492188 242.7548065185547 221.98484802246094 257.0 216.0 C 259.5028381347656 218.0946044921875 260.9270935058594 225.20571899414062 264.0 224.0 C 253.65931701660156 214.6536102294922 265.21539306640625 201.91493225097656 264.0 190.0" stroke-width="2.0" fill="rgb(169, 224, 107)" opacity="1.0" stroke="rgb(0, 0, 0)" stroke-opacity="0.0" stroke-linecap="round" stroke-linejoin="round"/>
    <path d="M 254.0 134.0 C 242.842529296875 136.03042602539062 219.7798309326172 126.98722839355469 222.0 146.0 C 207.549072265625 151.3589324951172 224.4452362060547 171.57623291015625 205.0 167.0 C 200.55735778808594 153.0477752685547 186.25393676757812 164.2765655517578 176.0 158.0 C 167.0021209716797 160.16641235351562 136.35818481445312 174.48826599121094 156.0 181.0 L 157.0 249.0 L 163.0 248.0 C 164.31922912597656 225.0 160.35226440429688 202.0 165.0 179.0 L 217.0 180.0 L 217.0 248.0 L 224.0 248.0 L 224.0 180.0 C 234.4785919189453 171.79849243164062 239.47752380371094 157.14918518066406 249.0 149.0 L 250.0 199.0 L 255.0 199.0 L 254.0 134.0" stroke-width="2.0" fill="rgb(146, 152, 150)" opacity="1.0" stroke="rgb(0, 0, 0)" stroke-opacity="0.0" stroke-linecap="round" stroke-linejoin="round"/>
    <path d="M 281.0 380.0 C 247.73748779296875 399.5860290527344 259.7900695800781 434.1425476074219 278.0 457.0 C 295.96746826171875 460.4921569824219 330.3567199707031 447.7408752441406 333.0 422.0 C 327.7713928222656 409.62725830078125 326.5295104980469 394.719970703125 312.0 384.0 C 305.8659973144531 394.0 301.6940002441406 404.0 300.0 414.0 C 293.0072937011719 420.61871337890625 273.86920166015625 427.3584289550781 279.0 412.0 C 268.9830627441406 407.20831298828125 276.3741149902344 401.3609619140625 283.0 396.0 C 279.2509765625 391.12506103515625 288.2975158691406 380.0928649902344 281.0 380.0" stroke-width="2.0" fill="rgb(53, 171, 155)" opacity="1.0" stroke="rgb(0, 0, 0)" stroke-opacity="0.0" stroke-linecap="round" stroke-linejoin="round"/>
    <path d="M 140.0 125.0 C 112.97669982910156 138.2499542236328 126.88249206542969 170.67449951171875 123.0 192.0 C 122.68309783935547 208.11380004882812 128.20545959472656 253.8061981201172 155.0 236.0 C 152.7654266357422 218.6666717529297 160.83255004882812 201.3333282470703 148.0 184.0 C 147.41835021972656 164.6666717529297 139.88157653808594 145.3333282470703 143.0 126.0 L 140.0 125.0" stroke-width="2.0" fill="rgb(250, 213, 93)" opacity="1.0" stroke="rgb(0, 0, 0)" stroke-opacity="0.0" stroke-linecap="round" stroke-linejoin="round"/>
    <path d="M 390.0 335.0 C 385.1287536621094 339.2088623046875 393.4286193847656 347.1815490722656 385.0 353.0 C 377.0 356.3692932128906 369.0 348.9886474609375 361.0 354.0 C 350.12811279296875 373.5975646972656 373.0639953613281 385.2673645019531 389.0 377.0 C 395.48736572265625 384.8564758300781 400.767333984375 416.7547912597656 412.0 403.0 C 412.6523742675781 386.0180358886719 402.6648864746094 370.7325439453125 426.0 356.0 C 431.24017333984375 336.3778381347656 403.3620910644531 329.7937316894531 390.0 335.0" stroke-width="2.0" fill="rgb(173, 173, 177)" opacity="1.0" stroke="rgb(0, 0, 0)" stroke-opacity="0.0" stroke-linecap="round" stroke-linejoin="round"/>
    <path d="M 377.0 251.0 L 365.0 252.0 C 369.72882080078125 276.6666564941406 374.5474853515625 301.3333435058594 365.0 326.0 L 366.0 342.0 C 376.61663818359375 330.1724853515625 390.79583740234375 336.7681579589844 403.0 331.0 C 402.521484375 306.0 402.626220703125 281.0 387.0 256.0 L 377.0 251.0" stroke-width="2.0" fill="rgb(231, 58, 243)" opacity="1.0" stroke="rgb(0, 0, 0)" stroke-opacity="0.0" stroke-linecap="round" stroke-linejoin="round"/>
    <path d="M 279.0 174.0 C 261.92462158203125 177.7479248046875 267.8266296386719 202.7589874267578 262.0 216.0 C 266.84002685546875 222.87269592285156 275.540283203125 218.4553680419922 282.0 223.0 C 280.0952453613281 259.6666564941406 285.87066650390625 296.3333435058594 279.0 333.0 C 281.3333435058594 335.634765625 283.6666564941406 336.2818908691406 286.0 336.0 C 287.3679504394531 298.0 286.88726806640625 260.0 287.0 222.0 C 293.5299987792969 219.2246551513672 308.4684143066406 221.85984802246094 306.0 211.0 L 299.0 178.0 C 292.6666564941406 174.21536254882812 286.3333435058594 174.26806640625 279.0 174.0" stroke-width="2.0" fill="rgb(246, 190, 32)" opacity="1.0" stroke="rgb(0, 0, 0)" stroke-opacity="0.0" stroke-linecap="round" stroke-linejoin="round"/>
    <path d="M 102.0 117.0 C 90.26164245605469 117.31974029541016 95.59507751464844 132.29653930664062 91.0 139.0 C 84.07858276367188 128.86798095703125 65.81938934326172 125.60306549072266 67.0 136.0 L 55.0 145.0 C 64.33333587646484 149.94039916992188 73.66666412353516 144.4994659423828 83.0 152.0 C 84.79690551757812 162.83465576171875 84.60037994384766 178.43695068359375 92.0 186.0 L 112.0 184.0 C 112.90991973876953 173.61622619628906 122.70269775390625 159.19937133789062 115.0 152.0 C 125.34976196289062 147.22061157226562 121.57176208496094 138.52452087402344 127.0 131.0 C 123.8074951171875 124.01001739501953 112.14862060546875 134.019287109375 107.0 138.0 L 102.0 117.0" stroke-width="2.0" fill="rgb(145, 210, 72)" opacity="1.0" stroke="rgb(0, 0, 0)" stroke-opacity="0.0" stroke-linecap="round" stroke-linejoin="round"/>
    <path d="M 255.0 135.0 C 243.3419189453125 135.36557006835938 220.3683319091797 126.1366958618164 222.0 145.0 C 209.4019012451172 152.32928466796875 222.12001037597656 161.35679626464844 212.0 168.0 C 206.80441284179688 169.5031280517578 201.03993225097656 165.9636993408203 201.0 160.0 C 193.09815979003906 159.2726287841797 183.3274383544922 162.17410278320312 177.0 157.0 C 168.46957397460938 161.79046630859375 149.54421997070312 165.28900146484375 149.0 178.0 L 226.0 179.0 C 236.7855987548828 162.61318969726562 253.25904846191406 149.37960815429688 255.0 135.0" stroke-width="2.0" fill="rgb(194, 199, 201)" opacity="1.0" stroke="rgb(0, 0, 0)" stroke-opacity="0.0" stroke-linecap="round" stroke-linejoin="round"/>
    <path d="M 364.0 327.0 C 353.0 331.8801574707031 342.0 343.5685729980469 331.0 346.0 C 321.0 345.8961486816406 311.0 342.5438537597656 301.0 344.0 C 293.32037353515625 360.6666564941406 284.771728515625 377.3333435058594 284.0 394.0 C 291.1609191894531 394.9066467285156 291.55609130859375 406.7063293457031 300.0 403.0 C 310.181884765625 389.0 311.2655334472656 375.0 322.0 361.0 C 338.8074645996094 359.8872985839844 372.5669860839844 353.46685791015625 364.0 327.0" stroke-width="2.0" fill="rgb(41, 141, 185)" opacity="1.0" stroke="rgb(0, 0, 0)" stroke-opacity="0.0" stroke-linecap="round" stroke-linejoin="round"/>
    <path d="M 165.0 89.0 C 151.36563110351562 83.95599365234375 138.44171142578125 100.83824157714844 152.0 111.0 C 153.8477783203125 117.33333587646484 142.49935913085938 123.66666412353516 143.0 130.0 C 142.93992614746094 144.0 146.30389404296875 158.0 149.0 172.0 C 163.6636505126953 159.4214324951172 176.08560180664062 155.08819580078125 190.0 153.0 C 201.73757934570312 139.4964141845703 181.91131591796875 142.61618041992188 175.0 140.0 C 175.03494262695312 127.33333587646484 154.81033325195312 114.66666412353516 170.0 102.0 C 170.173095703125 98.03557586669922 170.48797607421875 92.41680145263672 165.0 89.0" stroke-width="2.0" fill="rgb(91, 163, 143)" opacity="1.0" stroke="rgb(0, 0, 0)" stroke-opacity="0.0" stroke-linecap="round" stroke-linejoin="round"/>
    <path d="M 280.0 252.0 C 257.4106140136719 265.6266784667969 238.4581298828125 295.7864074707031 232.0 316.0 C 248.5628662109375 317.48101806640625 261.98193359375 322.4139404296875 280.0 319.0 L 280.0 252.0" stroke-width="2.0" fill="rgb(252, 222, 125)" opacity="1.0" stroke="rgb(0, 0, 0)" stroke-opacity="0.0" stroke-linecap="round" stroke-linejoin="round"/>
    <path d="M 425.0 344.0 C 414.0631103515625 329.8193054199219 399.52825927734375 333.6537780761719 387.0 336.0 C 397.0729064941406 353.4756164550781 373.7575378417969 357.08782958984375 363.0 352.0 C 356.64971923828125 360.7022705078125 356.3228454589844 375.00775146484375 369.0 379.0 C 388.0 378.2989196777344 407.0 378.1003723144531 426.0 356.0 C 427.9295959472656 352.3333435058594 426.6769714355469 348.6666564941406 425.0 344.0" stroke-width="2.0" fill="rgb(201, 201, 206)" opacity="1.0" stroke="rgb(0, 0, 0)" stroke-opacity="0.0" stroke-linecap="round" stroke-linejoin="round"/>
    <path d="M 303.0 128.0 C 295.0981750488281 125.82672882080078 285.3274230957031 132.25164794921875 279.0 139.0 C 274.6822204589844 132.51976013183594 280.6153259277344 115.13002014160156 268.0 118.0 C 262.1612243652344 125.45614624023438 270.25897216796875 144.78115844726562 256.0 135.0 C 257.5616455078125 151.6666717529297 253.72940063476562 168.3333282470703 262.0 185.0 C 268.7460021972656 186.8866729736328 266.643310546875 178.87149047851562 270.0 175.0 C 275.6666564941406 171.55557250976562 281.3333435058594 174.41856384277344 287.0 172.0 C 285.7469482421875 165.34877014160156 295.27178955078125 157.11358642578125 287.0 152.0 C 296.6666564941406 144.27542114257812 306.3333435058594 144.84323120117188 316.0 143.0 C 315.0439453125 136.87257385253906 304.0523376464844 136.51153564453125 303.0 128.0" stroke-width="2.0" fill="rgb(145, 209, 73)" opacity="1.0" stroke="rgb(0, 0, 0)" stroke-opacity="0.0" stroke-linecap="round" stroke-linejoin="round"/>
    <path d="M 438.0 393.0 C 430.0 384.80059814453125 422.0 389.084228515625 414.0 388.0 C 411.7878723144531 393.98199462890625 416.07257080078125 415.03717041015625 402.0 406.0 L 395.0 395.0 C 361.11138916015625 408.20782470703125 399.7549133300781 447.51416015625 419.0 431.0 C 433.45281982421875 420.38336181640625 437.6558532714844 406.20416259765625 438.0 393.0" stroke-width="2.0" fill="rgb(221, 183, 59)" opacity="1.0" stroke="rgb(0, 0, 0)" stroke-opacity="0.0" stroke-linecap="round" stroke-linejoin="round"/>
    <path d="M 199.0 49.0 L 200.0 87.0 C 214.3333282470703 85.63446807861328 228.6666717529297 89.57028198242188 243.0 85.0 L 242.0 49.0 L 199.0 49.0" stroke-width="2.0" fill="rgb(165, 210, 116)" opacity="1.0" stroke="rgb(0, 0, 0)" stroke-opacity="0.0" stroke-linecap="round" stroke-linejoin="round"/>
    <path d="M 271.0 176.0 C 267.14666748046875 189.6666717529297 263.6467590332031 203.3333282470703 263.0 217.0 C 277.0 223.947021484375 291.0 221.76527404785156 305.0 217.0 C 306.43768310546875 203.6666717529297 300.392333984375 190.3333282470703 299.0 177.0 C 290.0 174.87628173828125 281.0 172.20794677734375 271.0 176.0" stroke-width="2.0" fill="rgb(247, 191, 24)" opacity="1.0" stroke="rgb(0, 0, 0)" stroke-opacity="0.0" stroke-linecap="round" stroke-linejoin="round"/>
    <path d="M 360.0 353.0 C 347.0 359.7972106933594 334.0 358.7011413574219 321.0 364.0 C 325.83544921875 375.6248779296875 321.8701477050781 394.6398010253906 339.0 400.0 C 353.0 402.0382080078125 367.0 395.1675109863281 381.0 382.0 C 375.5827941894531 379.4214782714844 352.95062255859375 380.7770080566406 357.0 364.0 L 360.0 353.0" stroke-width="2.0" fill="rgb(207, 11, 222)" opacity="1.0" stroke="rgb(0, 0, 0)" stroke-opacity="0.0" stroke-linecap="round" stroke-linejoin="round"/>
    <path d="M 364.0 253.0 C 366.6097412109375 263.99383544921875 383.8621826171875 267.58245849609375 384.0 281.0 C 383.60546875 298.6666564941406 387.8996887207031 316.3333435058594 385.0 334.0 L 402.0 332.0 C 403.7089538574219 306.0 404.0131530761719 280.0 385.0 254.0 C 378.3333435058594 251.09889221191406 371.6666564941406 247.653564453125 364.0 253.0" stroke-width="2.0" fill="rgb(239, 93, 245)" opacity="1.0" stroke="rgb(0, 0, 0)" stroke-opacity="0.0" stroke-linecap="round" stroke-linejoin="round"/>
    <path d="M 164.0 181.0 C 160.91932678222656 192.74734497070312 167.61911010742188 194.7142333984375 178.0 193.0 C 191.24546813964844 198.8885955810547 187.30307006835938 217.0640869140625 200.0 223.0 C 196.92120361328125 244.87074279785156 230.72068786621094 218.3831329345703 208.0 223.0 C 198.5506134033203 213.27981567382812 226.51596069335938 212.6466827392578 212.0 204.0 C 214.74618530273438 196.0 205.26800537109375 188.0 202.0 180.0 L 164.0 181.0" stroke-width="2.0" fill="rgb(140, 73, 27)" opacity="1.0" stroke="rgb(0, 0, 0)" stroke-opacity="0.0" stroke-linecap="round" stroke-linejoin="round"/>
    <path d="M 165.0 118.0 C 157.0106658935547 124.9275131225586 148.57208251953125 112.56204986572266 144.0 126.0 C 140.99972534179688 141.3333282470703 146.53785705566406 156.6666717529297 149.0 172.0 C 157.27671813964844 159.15975952148438 177.18206787109375 162.6759796142578 176.0 151.0 C 188.60218811035156 146.5578155517578 184.48329162597656 140.6575927734375 174.0 139.0 C 172.4322052001953 132.3333282470703 171.41531372070312 125.66666412353516 165.0 118.0" stroke-width="2.0" fill="rgb(60, 180, 162)" opacity="1.0" stroke="rgb(0, 0, 0)" stroke-opacity="0.0" stroke-linecap="round" stroke-linejoin="round"/>
    <path d="M 128.0 129.0 C 120.58709716796875 125.28985595703125 113.10655212402344 133.8053436279297 107.0 138.0 C 107.33036804199219 130.1368865966797 102.22676849365234 106.80693817138672 94.0 124.0 L 92.0 138.0 C 84.54534149169922 131.3131866455078 64.90679931640625 123.55856323242188 67.0 137.0 C 63.38005065917969 140.1591033935547 55.398292541503906 140.92758178710938 55.0 146.0 C 77.33333587646484 145.49383544921875 99.66666412353516 162.85885620117188 122.0 147.0 C 121.7714614868164 141.3333282470703 124.5158920288086 135.6666717529297 128.0 129.0" stroke-width="2.0" fill="rgb(158, 218, 93)" opacity="1.0" stroke="rgb(0, 0, 0)" stroke-opacity="0.0" stroke-linecap="round" stroke-linejoin="round"/>
    <path d="M 367.0 289.0 C 359.4251708984375 295.83404541015625 356.3161926269531 291.67742919921875 355.0 284.0 C 349.0887756347656 288.1791076660156 343.04388427734375 282.5953063964844 341.0 291.0 C 332.9647521972656 276.7186584472656 328.78228759765625 299.8350830078125 328.0 305.0 C 341.4368591308594 311.4544372558594 328.6759338378906 329.2369384765625 342.0 331.0 C 349.79193115234375 323.9596252441406 356.4499816894531 308.82470703125 366.0 312.0 C 372.4474792480469 304.6666564941406 370.63970947265625 297.3333435058594 367.0 289.0" stroke-width="2.0" fill="rgb(210, 177, 183)" opacity="1.0" stroke="rgb(0, 0, 0)" stroke-opacity="0.0" stroke-linecap="round" stroke-linejoin="round"/>
    <path d="M 256.0 134.0 C 256.9176330566406 140.13821411132812 255.1573486328125 148.47679138183594 259.0 153.0 C 270.0 150.93882751464844 281.0 157.85482788085938 292.0 148.0 C 300.0 145.32557678222656 308.0 144.256591796875 316.0 143.0 C 306.8858642578125 129.3040771484375 293.6787414550781 120.4286117553711 279.0 139.0 C 275.1856689453125 132.8429412841797 279.1098937988281 110.96166229248047 267.0 120.0 C 263.29638671875 125.55704498291016 269.338134765625 146.1466827392578 256.0 134.0" stroke-width="2.0" fill="rgb(158, 218, 92)" opacity="1.0" stroke="rgb(0, 0, 0)" stroke-opacity="0.0" stroke-linecap="round" stroke-linejoin="round"/>
    <path d="M 366.0 252.0 C 367.19757080078125 274.0 375.655029296875 296.0 366.0 318.0 L 367.0 341.0 C 373.0 333.60516357421875 379.0 334.6955261230469 385.0 334.0 C 385.0297546386719 313.6666564941406 385.3602294921875 293.3333435058594 381.0 273.0 C 378.6202087402344 263.7689208984375 364.7713928222656 263.522705078125 369.0 255.0 C 368.1045837402344 255.43136596679688 365.3267822265625 254.76470947265625 366.0 252.0" stroke-width="2.0" fill="rgb(221, 16, 239)" opacity="1.0" stroke="rgb(0, 0, 0)" stroke-opacity="0.0" stroke-linecap="round" stroke-linejoin="round"/>
    <path d="M 414.0 203.0 L 414.0 231.0 L 451.0 230.0 L 450.0 203.0 L 414.0 203.0" stroke-width="2.0" fill="rgb(241, 198, 108)" opacity="1.0" stroke="rgb(0, 0, 0)" stroke-opacity="0.0" stroke-linecap="round" stroke-linejoin="round"/>
    <path d="M 363.0 220.0 C 364.247314453125 229.0 360.4503479003906 238.0 365.0 247.0 L 400.0 246.0 L 400.0 219.0 L 363.0 220.0" stroke-width="2.0" fill="rgb(243, 198, 107)" opacity="1.0" stroke="rgb(0, 0, 0)" stroke-opacity="0.0" stroke-linecap="round" stroke-linejoin="round"/>
    <path d="M 283.0 338.0 C 275.46746826171875 338.3384094238281 270.77008056640625 348.56182861328125 263.0 345.0 C 281.81170654296875 352.6654052734375 261.43048095703125 370.6673889160156 254.0 380.0 C 254.77366638183594 400.8954772949219 274.97515869140625 379.3663330078125 285.0 377.0 C 292.4416198730469 364.66339111328125 290.904541015625 349.6710510253906 283.0 338.0" stroke-width="2.0" fill="rgb(214, 210, 197)" opacity="1.0" stroke="rgb(0, 0, 0)" stroke-opacity="0.0" stroke-linecap="round" stroke-linejoin="round"/>
    <path d="M 166.0 195.0 C 161.59548950195312 208.3333282470703 165.14389038085938 221.6666717529297 164.0 235.0 C 174.4580078125 241.21682739257812 193.8734588623047 234.5235137939453 194.0 220.0 C 187.06626892089844 207.8866729736328 183.39849853515625 188.56007385253906 166.0 195.0" stroke-width="2.0" fill="rgb(250, 214, 97)" opacity="1.0" stroke="rgb(0, 0, 0)" stroke-opacity="0.0" stroke-linecap="round" stroke-linejoin="round"/>
    <path d="M 343.0 238.0 C 320.758056640625 249.4852294921875 333.7818603515625 275.3148498535156 341.0 290.0 C 341.506103515625 281.3333435058594 343.13604736328125 272.6666564941406 334.0 264.0 C 328.6838684082031 258.81610107421875 339.57342529296875 241.3344268798828 347.0 252.0 C 362.393310546875 248.99424743652344 352.62384033203125 265.60394287109375 351.0 273.0 C 356.0156555175781 279.8122253417969 357.4608154296875 300.07666015625 367.0 287.0 C 367.70904541015625 270.6029052734375 367.6007385253906 251.75338745117188 351.0 237.0 L 343.0 238.0" stroke-width="2.0" fill="rgb(72, 68, 70)" opacity="1.0" stroke="rgb(0, 0, 0)" stroke-opacity="0.0" stroke-linecap="round" stroke-linejoin="round"/>
    <path d="M 83.0 154.0 L 89.0 185.0 L 111.0 185.0 C 115.60713958740234 175.0 115.67137908935547 165.0 119.0 155.0 L 83.0 154.0" stroke-width="2.0" fill="rgb(125, 198, 43)" opacity="1.0" stroke="rgb(0, 0, 0)" stroke-opacity="0.0" stroke-linecap="round" stroke-linejoin="round"/>
    <path d="M 356.0 284.0 C 349.9224853515625 286.7684326171875 343.09771728515625 283.2503662109375 341.0 291.0 C 337.38922119140625 284.8112487792969 335.1959533691406 285.2507019042969 332.0 293.0 C 326.8061828613281 305.3333435058594 337.5512390136719 317.6666564941406 337.0 330.0 C 346.4710998535156 330.4502868652344 363.418701171875 312.05029296875 355.0 303.0 L 356.0 284.0" stroke-width="2.0" fill="rgb(209, 208, 209)" opacity="1.0" stroke="rgb(0, 0, 0)" stroke-opacity="0.0" stroke-linecap="round" stroke-linejoin="round"/>
    <path d="M 311.0 146.0 C 304.3333435058594 145.39442443847656 297.6666564941406 147.04052734375 291.0 152.0 C 293.84722900390625 159.0 287.8306884765625 166.0 288.0 173.0 C 301.1534118652344 171.14625549316406 303.21771240234375 184.15113830566406 304.0 194.0 C 320.8974304199219 182.2963104248047 315.5964050292969 162.0274658203125 311.0 146.0" stroke-width="2.0" fill="rgb(199, 236, 160)" opacity="1.0" stroke="rgb(0, 0, 0)" stroke-opacity="0.0" stroke-linecap="round" stroke-linejoin="round"/>
    <path d="M 282.0 222.0 L 282.0 327.0 C 275.80474853515625 328.2871398925781 264.9301452636719 336.6178283691406 275.0 340.0 C 281.34423828125 326.94244384765625 295.55462646484375 352.5203857421875 297.0 334.0 C 295.10748291015625 329.3972473144531 290.3952331542969 329.8677978515625 287.0 328.0 L 287.0 223.0 L 282.0 222.0" stroke-width="2.0" fill="rgb(244, 191, 51)" opacity="1.0" stroke="rgb(0, 0, 0)" stroke-opacity="0.0" stroke-linecap="round" stroke-linejoin="round"/>
    <path d="M 283.0 338.0 C 274.7149353027344 337.2256164550781 268.3156433105469 348.6659851074219 272.0 355.0 C 267.2242736816406 364.6443176269531 253.9889373779297 377.862060546875 272.0 382.0 C 277.9910583496094 378.9861755371094 284.4472351074219 375.6701354980469 289.0 370.0 C 288.8522644042969 359.9951477050781 291.4310607910156 347.3398132324219 283.0 338.0" stroke-width="2.0" fill="rgb(212, 213, 212)" opacity="1.0" stroke="rgb(0, 0, 0)" stroke-opacity="0.0" stroke-linecap="round" stroke-linejoin="round"/>
    <path d="M 301.0 316.0 L 304.0 342.0 L 331.0 344.0 C 330.06561279296875 335.3333435058594 333.1011962890625 326.6666564941406 329.0 318.0 L 301.0 316.0" stroke-width="2.0" fill="rgb(86, 91, 93)" opacity="1.0" stroke="rgb(0, 0, 0)" stroke-opacity="0.0" stroke-linecap="round" stroke-linejoin="round"/>
    <path d="M 290.0 154.0 C 278.6666564941406 154.36550903320312 267.3333435058594 151.55210876464844 256.0 155.0 C 254.787353515625 164.70809936523438 261.7155456542969 199.8077850341797 270.0 175.0 C 275.6666564941406 171.55557250976562 281.3333435058594 174.41856384277344 287.0 172.0 L 290.0 154.0" stroke-width="2.0" fill="rgb(124, 196, 42)" opacity="1.0" stroke="rgb(0, 0, 0)" stroke-opacity="0.0" stroke-linecap="round" stroke-linejoin="round"/>
    <path d="M 224.0 121.0 L 193.0 140.0 C 202.7951202392578 147.14871215820312 188.3464813232422 157.95758056640625 181.0 158.0 C 194.3333282470703 158.63050842285156 207.6666717529297 160.64700317382812 221.0 145.0 L 224.0 121.0" stroke-width="2.0" fill="rgb(129, 134, 137)" opacity="1.0" stroke="rgb(0, 0, 0)" stroke-opacity="0.0" stroke-linecap="round" stroke-linejoin="round"/>
    <path d="M 106.0 63.0 C 83.57818603515625 74.99440002441406 112.08297729492188 102.90621948242188 124.0 82.0 C 129.50340270996094 72.46509552001953 117.19920349121094 58.447853088378906 106.0 63.0" stroke-width="2.0" fill="rgb(204, 217, 193)" opacity="1.0" stroke="rgb(0, 0, 0)" stroke-opacity="0.0" stroke-linecap="round" stroke-linejoin="round"/>
    <path d="M 425.0 396.0 C 414.2650451660156 385.3490905761719 409.95794677734375 396.38427734375 412.0 405.0 C 403.26263427734375 418.2797546386719 398.74835205078125 388.5334167480469 392.0 403.0 C 381.9272155761719 428.2043151855469 428.88031005859375 418.1391906738281 425.0 396.0" stroke-width="2.0" fill="rgb(158, 160, 155)" opacity="1.0" stroke="rgb(0, 0, 0)" stroke-opacity="0.0" stroke-linecap="round" stroke-linejoin="round"/>
    <path d="M 217.0 180.0 L 217.0 248.0 L 224.0 249.0 L 224.0 180.0 L 217.0 180.0" stroke-width="2.0" fill="rgb(67, 81, 67)" opacity="1.0" stroke="rgb(0, 0, 0)" stroke-opacity="0.0" stroke-linecap="round" stroke-linejoin="round"/>
    <path d="M 157.0 180.0 L 156.0 249.0 L 163.0 249.0 L 163.0 181.0 L 157.0 180.0" stroke-width="2.0" fill="rgb(74, 75, 68)" opacity="1.0" stroke="rgb(0, 0, 0)" stroke-opacity="0.0" stroke-linecap="round" stroke-linejoin="round"/>
    <path d="M 340.0 249.0 C 324.65814208984375 261.719970703125 345.74456787109375 271.3494567871094 343.0 284.0 C 347.0 286.4541015625 351.0 284.7127685546875 355.0 283.0 C 345.2558898925781 273.3333435058594 355.4153137207031 263.6666564941406 355.0 254.0 C 350.3333435058594 253.31187438964844 345.6666564941406 251.6014404296875 340.0 249.0" stroke-width="2.0" fill="rgb(234, 177, 136)" opacity="1.0" stroke="rgb(0, 0, 0)" stroke-opacity="0.0" stroke-linecap="round" stroke-linejoin="round"/>
    <path d="M 410.0 371.0 C 403.3333435058594 374.917724609375 396.6666564941406 377.6222839355469 390.0 378.0 C 394.8226318359375 385.8047790527344 401.7093200683594 416.6561279296875 412.0 403.0 L 410.0 371.0" stroke-width="2.0" fill="rgb(62, 63, 62)" opacity="1.0" stroke="rgb(0, 0, 0)" stroke-opacity="0.0" stroke-linecap="round" stroke-linejoin="round"/>
    <path d="M 18.0 102.0 L 19.0 120.0 L 43.0 120.0 L 43.0 101.0 L 18.0 102.0" stroke-width="2.0" fill="rgb(151, 192, 106)" opacity="1.0" stroke="rgb(0, 0, 0)" stroke-opacity="0.0" stroke-linecap="round" stroke-linejoin="round"/>
    <path d="M 87.0 101.0 C 86.45233154296875 109.0882339477539 84.65431213378906 128.5054931640625 99.0 116.0 C 103.33333587646484 117.04303741455078 107.66666412353516 123.16424560546875 112.0 119.0 L 111.0 101.0 L 87.0 101.0" stroke-width="2.0" fill="rgb(149, 193, 100)" opacity="1.0" stroke="rgb(0, 0, 0)" stroke-opacity="0.0" stroke-linecap="round" stroke-linejoin="round"/>
    <path d="M 265.0 154.0 L 269.0 176.0 C 275.0 171.554443359375 281.0 173.36630249023438 287.0 173.0 C 286.2415466308594 166.6666717529297 291.34161376953125 160.3333282470703 290.0 154.0 L 265.0 154.0" stroke-width="2.0" fill="rgb(134, 212, 47)" opacity="1.0" stroke="rgb(0, 0, 0)" stroke-opacity="0.0" stroke-linecap="round" stroke-linejoin="round"/>
    <path d="M 52.0 79.0 L 52.0 97.0 L 77.0 96.0 L 76.0 79.0 L 52.0 79.0" stroke-width="2.0" fill="rgb(158, 201, 110)" opacity="1.0" stroke="rgb(0, 0, 0)" stroke-opacity="0.0" stroke-linecap="round" stroke-linejoin="round"/>
    <path d="M 287.0 396.0 C 279.68310546875 396.65283203125 268.2228698730469 409.46343994140625 281.0 411.0 C 269.98431396484375 429.5532531738281 308.1949157714844 416.29296875 300.0 405.0 C 294.6979064941406 406.5806579589844 287.979736328125 401.09326171875 287.0 396.0" stroke-width="2.0" fill="rgb(126, 197, 77)" opacity="1.0" stroke="rgb(0, 0, 0)" stroke-opacity="0.0" stroke-linecap="round" stroke-linejoin="round"/>
    <path d="M 224.0 121.0 L 207.0 132.0 L 206.0 156.0 C 223.31922912597656 150.3544158935547 222.8985137939453 133.51889038085938 224.0 121.0" stroke-width="2.0" fill="rgb(87, 94, 97)" opacity="1.0" stroke="rgb(0, 0, 0)" stroke-opacity="0.0" stroke-linecap="round" stroke-linejoin="round"/>
    <path d="M 269.0 117.0 C 264.0989074707031 127.71644592285156 260.2760009765625 143.5993194580078 272.0 151.0 C 279.90325927734375 142.3599395751953 281.8736877441406 122.32251739501953 269.0 117.0" stroke-width="2.0" fill="rgb(162, 220, 98)" opacity="1.0" stroke="rgb(0, 0, 0)" stroke-opacity="0.0" stroke-linecap="round" stroke-linejoin="round"/>
    <path d="M 200.0 69.0 L 199.0 86.0 L 220.0 86.0 L 220.0 69.0 L 200.0 69.0" stroke-width="2.0" fill="rgb(178, 222, 128)" opacity="1.0" stroke="rgb(0, 0, 0)" stroke-opacity="0.0" stroke-linecap="round" stroke-linejoin="round"/>
    <path d="M 366.0 312.0 C 352.5679016113281 310.4573974609375 345.3533630371094 335.9575500488281 332.0 339.0 C 334.3086853027344 350.2043762207031 352.20330810546875 332.1687316894531 361.0 327.0 C 364.36322021484375 322.3333435058594 365.767333984375 317.6666564941406 366.0 312.0" stroke-width="2.0" fill="rgb(235, 187, 158)" opacity="1.0" stroke="rgb(0, 0, 0)" stroke-opacity="0.0" stroke-linecap="round" stroke-linejoin="round"/>
    <path d="M 222.0 69.0 L 222.0 86.0 L 242.0 86.0 L 242.0 69.0 L 222.0 69.0" stroke-width="2.0" fill="rgb(178, 223, 128)" opacity="1.0" stroke="rgb(0, 0, 0)" stroke-opacity="0.0" stroke-linecap="round" stroke-linejoin="round"/>
    <path d="M 199.0 51.0 L 201.0 67.0 L 220.0 66.0 L 220.0 50.0 L 199.0 51.0" stroke-width="2.0" fill="rgb(182, 227, 132)" opacity="1.0" stroke="rgb(0, 0, 0)" stroke-opacity="0.0" stroke-linecap="round" stroke-linejoin="round"/>
    <path d="M 222.0 50.0 L 222.0 66.0 L 242.0 66.0 L 242.0 50.0 L 222.0 50.0" stroke-width="2.0" fill="rgb(180, 226, 131)" opacity="1.0" stroke="rgb(0, 0, 0)" stroke-opacity="0.0" stroke-linecap="round" stroke-linejoin="round"/>
    <path d="M 168.0 91.0 C 159.30859375 81.94190216064453 136.3466033935547 95.01951599121094 150.0 107.0 C 154.4796600341797 96.11799621582031 177.68173217773438 110.37529754638672 168.0 91.0" stroke-width="2.0" fill="rgb(66, 72, 67)" opacity="1.0" stroke="rgb(0, 0, 0)" stroke-opacity="0.0" stroke-linecap="round" stroke-linejoin="round"/>
    <path d="M 387.0 338.0 C 379.066162109375 331.04461669921875 364.736328125 340.9568176269531 364.0 350.0 C 373.1748046875 354.9326477050781 393.47119140625 354.7647399902344 387.0 338.0" stroke-width="2.0" fill="rgb(189, 61, 59)" opacity="1.0" stroke="rgb(0, 0, 0)" stroke-opacity="0.0" stroke-linecap="round" stroke-linejoin="round"/>
    <path d="M 397.0 232.0 C 389.1878662109375 214.28700256347656 387.0265197753906 246.7657928466797 377.0 230.0 C 372.5982971191406 234.3333282470703 368.83306884765625 238.6666717529297 368.0 243.0 C 377.90985107421875 240.54696655273438 400.6145324707031 250.12355041503906 397.0 232.0" stroke-width="2.0" fill="rgb(247, 178, 36)" opacity="1.0" stroke="rgb(0, 0, 0)" stroke-opacity="0.0" stroke-linecap="round" stroke-linejoin="round"/>
    <path d="M 447.0 215.0 C 441.1308288574219 205.9652862548828 438.0128173828125 215.7011260986328 435.0 220.0 C 431.7084655761719 221.12527465820312 430.0216064453125 212.724609375 426.0 215.0 L 418.0 227.0 C 428.9373779296875 224.6040496826172 452.01263427734375 234.34596252441406 447.0 215.0" stroke-width="2.0" fill="rgb(247, 177, 35)" opacity="1.0" stroke="rgb(0, 0, 0)" stroke-opacity="0.0" stroke-linecap="round" stroke-linejoin="round"/>
    <path d="M 254.0 142.0 C 245.1652374267578 159.00198364257812 252.30517578125 180.33184814453125 250.0 199.0 L 255.0 198.0 L 254.0 142.0" stroke-width="2.0" fill="rgb(61, 72, 68)" opacity="1.0" stroke="rgb(0, 0, 0)" stroke-opacity="0.0" stroke-linecap="round" stroke-linejoin="round"/>
    <path d="M 21.0 104.0 C 10.042778015136719 124.07626342773438 54.28115463256836 123.0660400390625 38.0 103.0 L 21.0 104.0" stroke-width="2.0" fill="rgb(150, 201, 92)" opacity="1.0" stroke="rgb(0, 0, 0)" stroke-opacity="0.0" stroke-linecap="round" stroke-linejoin="round"/>
    <path d="M 82.0 154.0 C 87.55223083496094 163.4853057861328 82.2071304321289 186.5569305419922 96.0 185.0 C 93.1990966796875 174.66795349121094 99.25090789794922 150.67266845703125 82.0 154.0" stroke-width="2.0" fill="rgb(107, 170, 37)" opacity="1.0" stroke="rgb(0, 0, 0)" stroke-opacity="0.0" stroke-linecap="round" stroke-linejoin="round"/>
    <path d="M 190.0 180.0 C 198.44906616210938 187.6874237060547 199.63870239257812 212.6350555419922 213.0 201.0 C 209.27243041992188 191.04734802246094 203.0301971435547 175.195556640625 190.0 180.0" stroke-width="2.0" fill="rgb(151, 64, 8)" opacity="1.0" stroke="rgb(0, 0, 0)" stroke-opacity="0.0" stroke-linecap="round" stroke-linejoin="round"/>
    <path d="M 256.0 154.0 C 254.65916442871094 163.6666717529297 259.0020751953125 173.3333282470703 260.0 183.0 C 274.51055908203125 188.86924743652344 263.51007080078125 162.40269470214844 264.0 154.0 L 256.0 154.0" stroke-width="2.0" fill="rgb(106, 169, 36)" opacity="1.0" stroke="rgb(0, 0, 0)" stroke-opacity="0.0" stroke-linecap="round" stroke-linejoin="round"/>
    <path d="M 54.0 83.0 C 46.70210266113281 100.79254150390625 82.37704467773438 99.43757629394531 74.0 82.0 L 54.0 83.0" stroke-width="2.0" fill="rgb(153, 207, 94)" opacity="1.0" stroke="rgb(0, 0, 0)" stroke-opacity="0.0" stroke-linecap="round" stroke-linejoin="round"/>
    <path d="M 367.0 289.0 C 353.650390625 292.427978515625 354.23321533203125 301.365478515625 359.0 312.0 C 371.3436584472656 314.89166259765625 372.44097900390625 297.5901184082031 367.0 289.0" stroke-width="2.0" fill="rgb(218, 89, 109)" opacity="1.0" stroke="rgb(0, 0, 0)" stroke-opacity="0.0" stroke-linecap="round" stroke-linejoin="round"/>
    <path d="M 301.0 406.0 C 293.5429382324219 397.82861328125 268.1011047363281 418.7063903808594 285.0 421.0 C 289.75677490234375 417.06219482421875 302.58074951171875 415.3653259277344 301.0 406.0" stroke-width="2.0" fill="rgb(126, 195, 71)" opacity="1.0" stroke="rgb(0, 0, 0)" stroke-opacity="0.0" stroke-linecap="round" stroke-linejoin="round"/>
    <path d="M 29.0 176.0 L 30.0 179.0 L 86.0 178.0 C 69.33128356933594 173.3608856201172 48.334869384765625 177.3128662109375 29.0 176.0" stroke-width="2.0" fill="rgb(172, 223, 115)" opacity="1.0" stroke="rgb(0, 0, 0)" stroke-opacity="0.0" stroke-linecap="round" stroke-linejoin="round"/>
    <path d="M 155.0 102.0 C 149.4488525390625 107.32443237304688 149.52940368652344 121.01239013671875 159.0 120.0 C 163.5350799560547 114.66666412353516 165.41319274902344 109.33333587646484 168.0 104.0 C 164.0 104.16565704345703 160.0 104.34603881835938 155.0 102.0" stroke-width="2.0" fill="rgb(232, 187, 145)" opacity="1.0" stroke="rgb(0, 0, 0)" stroke-opacity="0.0" stroke-linecap="round" stroke-linejoin="round"/>
    <path d="M 205.0 147.0 C 199.46188354492188 142.2694854736328 192.7617645263672 150.52073669433594 190.0 156.0 C 168.4735870361328 156.63870239257812 194.06761169433594 160.8270721435547 203.0 159.0 C 206.3158416748047 155.3333282470703 204.56939697265625 151.6666717529297 205.0 147.0" stroke-width="2.0" fill="rgb(168, 171, 174)" opacity="1.0" stroke="rgb(0, 0, 0)" stroke-opacity="0.0" stroke-linecap="round" stroke-linejoin="round"/>
    <path d="M 229.0 317.0 C 244.00245666503906 321.6596374511719 263.33148193359375 321.2002868652344 280.0 324.0 L 280.0 320.0 L 229.0 317.0" stroke-width="2.0" fill="rgb(249, 194, 28)" opacity="1.0" stroke="rgb(0, 0, 0)" stroke-opacity="0.0" stroke-linecap="round" stroke-linejoin="round"/>
    <path d="M 255.0 377.0 C 248.0984344482422 388.89837646484375 267.4086608886719 394.6430358886719 271.0 383.0 C 265.0029296875 383.6324462890625 261.2402038574219 370.0354309082031 255.0 377.0" stroke-width="2.0" fill="rgb(224, 206, 148)" opacity="1.0" stroke="rgb(0, 0, 0)" stroke-opacity="0.0" stroke-linecap="round" stroke-linejoin="round"/>
    <path d="M 421.0 337.0 C 432.6666564941406 344.85382080078125 444.3333435058594 342.8243408203125 456.0 343.0 L 454.0 339.0 C 443.3333435058594 339.7925720214844 432.6666564941406 336.6481018066406 421.0 337.0" stroke-width="2.0" fill="rgb(249, 197, 36)" opacity="1.0" stroke="rgb(0, 0, 0)" stroke-opacity="0.0" stroke-linecap="round" stroke-linejoin="round"/>
    <path d="M 41.0 110.0 C 36.437721252441406 99.36744689941406 32.64253616333008 117.51490783691406 27.0 109.0 C 10.760886192321777 120.5836181640625 45.35433578491211 120.67189025878906 41.0 110.0" stroke-width="2.0" fill="rgb(117, 174, 49)" opacity="1.0" stroke="rgb(0, 0, 0)" stroke-opacity="0.0" stroke-linecap="round" stroke-linejoin="round"/>
    <path d="M 301.0 177.0 C 301.6781921386719 182.6802978515625 301.3270263671875 190.9817657470703 306.0 195.0 C 310.16162109375 189.6666717529297 313.66168212890625 184.3333282470703 314.0 179.0 C 310.3047180175781 177.9930419921875 304.0384216308594 181.21144104003906 301.0 177.0" stroke-width="2.0" fill="rgb(201, 233, 159)" opacity="1.0" stroke="rgb(0, 0, 0)" stroke-opacity="0.0" stroke-linecap="round" stroke-linejoin="round"/>
    <path d="M 195.0 144.0 C 186.002197265625 136.51754760742188 185.3024139404297 150.90223693847656 177.0 151.0 C 179.49607849121094 160.42774963378906 194.165283203125 153.05636596679688 195.0 144.0" stroke-width="2.0" fill="rgb(237, 179, 136)" opacity="1.0" stroke="rgb(0, 0, 0)" stroke-opacity="0.0" stroke-linecap="round" stroke-linejoin="round"/>
    <path d="M 109.0 109.0 C 103.9331283569336 101.68762969970703 100.71873474121094 115.88569641113281 95.0 109.0 C 79.86890411376953 119.49942779541016 114.00447845458984 121.30764770507812 109.0 109.0" stroke-width="2.0" fill="rgb(115, 174, 48)" opacity="1.0" stroke="rgb(0, 0, 0)" stroke-opacity="0.0" stroke-linecap="round" stroke-linejoin="round"/>
    <path d="M 288.0 397.0 C 272.6936950683594 395.111328125 272.6936950683594 419.3446044921875 288.0 406.0 C 292.4158020019531 403.3333435058594 287.90533447265625 400.6666564941406 288.0 397.0" stroke-width="2.0" fill="rgb(127, 202, 82)" opacity="1.0" stroke="rgb(0, 0, 0)" stroke-opacity="0.0" stroke-linecap="round" stroke-linejoin="round"/>
    <path d="M 287.0 329.0 C 280.6833190917969 339.6711120605469 297.6271057128906 347.7545166015625 297.0 333.0 C 294.0 329.3019104003906 291.0 328.58221435546875 287.0 329.0" stroke-width="2.0" fill="rgb(249, 203, 52)" opacity="1.0" stroke="rgb(0, 0, 0)" stroke-opacity="0.0" stroke-linecap="round" stroke-linejoin="round"/>
    <path d="M 217.0 223.0 C 211.9102783203125 220.0481719970703 199.88967895507812 225.0892791748047 201.0 230.0 C 205.8749542236328 234.60122680664062 216.90711975097656 229.30699157714844 217.0 223.0" stroke-width="2.0" fill="rgb(62, 117, 117)" opacity="1.0" stroke="rgb(0, 0, 0)" stroke-opacity="0.0" stroke-linecap="round" stroke-linejoin="round"/>
    <path d="M 206.0 157.0 C 195.34300231933594 169.78262329101562 222.14736938476562 169.78262329101562 215.0 157.0 L 206.0 157.0" stroke-width="2.0" fill="rgb(214, 205, 201)" opacity="1.0" stroke="rgb(0, 0, 0)" stroke-opacity="0.0" stroke-linecap="round" stroke-linejoin="round"/>
    <path d="M 281.0 329.0 C 271.8187255859375 324.785888671875 266.1208801269531 344.77703857421875 278.0 338.0 C 277.68060302734375 334.29156494140625 280.2218322753906 333.70843505859375 281.0 329.0" stroke-width="2.0" fill="rgb(240, 188, 37)" opacity="1.0" stroke="rgb(0, 0, 0)" stroke-opacity="0.0" stroke-linecap="round" stroke-linejoin="round"/>
    <path d="M 205.0 135.0 C 194.8424835205078 133.6759033203125 192.5398712158203 147.71693420410156 204.0 144.0 L 205.0 135.0" stroke-width="2.0" fill="rgb(210, 212, 215)" opacity="1.0" stroke="rgb(0, 0, 0)" stroke-opacity="0.0" stroke-linecap="round" stroke-linejoin="round"/>
    <path d="M 216.0 205.0 C 211.52651977539062 208.97372436523438 202.48023986816406 206.434326171875 208.0 215.0 C 212.6337432861328 214.447265625 218.6528778076172 211.27224731445312 216.0 205.0" stroke-width="2.0" fill="rgb(73, 110, 104)" opacity="1.0" stroke="rgb(0, 0, 0)" stroke-opacity="0.0" stroke-linecap="round" stroke-linejoin="round"/>
    <path d="M 300.0 338.0 C 293.55938720703125 342.60382080078125 289.07476806640625 346.97015380859375 292.0 354.0 C 296.0722961425781 350.9743957519531 298.8671875 343.6857604980469 300.0 338.0" stroke-width="2.0" fill="rgb(250, 230, 160)" opacity="1.0" stroke="rgb(0, 0, 0)" stroke-opacity="0.0" stroke-linecap="round" stroke-linejoin="round"/>
    <path d="M 216.0 205.0 C 212.60861206054688 208.41502380371094 203.25550842285156 208.3378448486328 209.0 215.0 C 213.3703155517578 213.92495727539062 217.7063751220703 210.51271057128906 216.0 205.0" stroke-width="2.0" fill="rgb(62, 108, 105)" opacity="1.0" stroke="rgb(0, 0, 0)" stroke-opacity="0.0" stroke-linecap="round" stroke-linejoin="round"/>
    <path d="M 150.0 180.0 C 147.91995239257812 183.6666717529297 150.4598388671875 187.3333282470703 154.0 191.0 C 155.79669189453125 187.43479919433594 156.32814025878906 178.95501708984375 150.0 180.0" stroke-width="2.0" fill="rgb(110, 44, 7)" opacity="1.0" stroke="rgb(0, 0, 0)" stroke-opacity="0.0" stroke-linecap="round" stroke-linejoin="round"/>
    <path d="M 366.0 344.0 C 357.8124694824219 357.20166015625 380.33685302734375 349.3408508300781 366.0 344.0" stroke-width="2.0" fill="rgb(198, 88, 113)" opacity="1.0" stroke="rgb(0, 0, 0)" stroke-opacity="0.0" stroke-linecap="round" stroke-linejoin="round"/>
    <path d="M 288.0 322.0 C 286.42962646484375 326.73040771484375 301.57037353515625 328.46343994140625 300.0 323.0 L 288.0 322.0" stroke-width="2.0" fill="rgb(245, 196, 38)" opacity="1.0" stroke="rgb(0, 0, 0)" stroke-opacity="0.0" stroke-linecap="round" stroke-linejoin="round"/>
    <path d="M 111.0 65.0 C 112.91557312011719 76.04397583007812 98.80470275878906 70.3854751586914 111.0 78.0 L 111.0 65.0" stroke-width="2.0" fill="rgb(156, 170, 138)" opacity="1.0" stroke="rgb(0, 0, 0)" stroke-opacity="0.0" stroke-linecap="round" stroke-linejoin="round"/>
    <path d="M 329.0 308.0 C 326.4005432128906 314.2252197265625 336.0804138183594 324.7367248535156 334.0 313.0 L 329.0 308.0" stroke-width="2.0" fill="rgb(242, 185, 144)" opacity="1.0" stroke="rgb(0, 0, 0)" stroke-opacity="0.0" stroke-linecap="round" stroke-linejoin="round"/>
    <path d="M 341.0 332.0 C 329.6775207519531 325.67974853515625 329.6775207519531 343.9886474609375 341.0 332.0" stroke-width="2.0" fill="rgb(69, 121, 132)" opacity="1.0" stroke="rgb(0, 0, 0)" stroke-opacity="0.0" stroke-linecap="round" stroke-linejoin="round"/>
    <path d="M 264.0 345.0 C 268.52362060546875 353.2520751953125 274.91510009765625 341.4755554199219 264.0 345.0" stroke-width="2.0" fill="rgb(213, 162, 167)" opacity="1.0" stroke="rgb(0, 0, 0)" stroke-opacity="0.0" stroke-linecap="round" stroke-linejoin="round"/>
    <path d="M 334.0 332.0 C 334.7663269042969 338.7411193847656 344.7696533203125 328.6773376464844 334.0 332.0" stroke-width="2.0" fill="rgb(56, 118, 135)" opacity="1.0" stroke="rgb(0, 0, 0)" stroke-opacity="0.0" stroke-linecap="round" stroke-linejoin="round"/>
  </g>
</svg>
