<?xml version="1.0" ?>
<svg xmlns="http://www.w3.org/2000/svg" version="1.1" width="512" height="365">
  <defs/>
  <g>
    <path d="M -10.0 -10.0 C -9.0 -10.0 512.0 0.0 513.0 0.0 C 514.0 0.0 512.0 365.0 513.0 365.0 C 513.0 366.0 0.0 365.0 0.0 366.0 C 0.0 365.0 0.0 366.0 -10.0 -10.0 L -10.0 -10.0" stroke-width="2.0" fill="rgb(207, 80, 45)" opacity="0.90391123"/>
    <path d="M 492.97332763671875 159.42428588867188 C 491.92333984375 159.9279022216797 492.486572265625 159.2947998046875 495.2878723144531 159.7886199951172 C 497.4527893066406 162.14291381835938 495.077392578125 159.66065979003906 496.67950439453125 160.64418029785156 C 495.29010009765625 160.14520263671875 494.8399963378906 158.97544860839844 490.9693298339844 159.96743774414062 C 494.6218566894531 159.0552215576172 493.8593444824219 160.08987426757812 492.2473449707031 159.05563354492188 L 492.97332763671875 159.42428588867188" stroke-width="2.0" fill="rgb(55, 230, 199)" opacity="0.115403615"/>
    <path d="M 340.2467346191406 -15.081347465515137 C 293.36212158203125 -20.161853790283203 299.6619873046875 -27.61173439025879 320.8935546875 12.374162673950195 C 382.8789978027344 -67.67035675048828 396.9741516113281 -28.043167114257812 335.3545227050781 -12.205855369567871 C 336.0042724609375 119.90147399902344 450.26849365234375 178.43467712402344 445.68084716796875 -1.951001763343811 C 328.4689636230469 -33.19413375854492 298.35650634765625 -13.144643783569336 322.75732421875 13.266568183898926 L 340.2467346191406 -15.081347465515137" stroke-width="2.0" fill="rgb(251, 141, 60)" opacity="0.66092896"/>
    <path d="M 226.63685607910156 234.89749145507812 C 182.5782012939453 299.57720947265625 204.42481994628906 376.9151306152344 185.6021270751953 266.7040710449219 C 194.370361328125 232.4820556640625 189.7822723388672 250.60430908203125 160.3760528564453 238.8179931640625 C 174.07275390625 203.61749267578125 166.2858428955078 214.14404296875 187.46121215820312 141.00653076171875 C 240.72503662109375 145.22865295410156 217.8174285888672 156.85093688964844 208.885009765625 165.42849731445312 L 226.63685607910156 234.89749145507812" stroke-width="2.0" fill="rgb(0, 22, 54)" opacity="0.8766274"/>
    <path d="M 1.180098295211792 79.75992584228516 C 69.53504180908203 111.19192504882812 19.766172409057617 126.37779998779297 15.73344612121582 128.14007568359375 C 9.192347526550293 138.96929931640625 15.877325057983398 118.7257080078125 38.629722595214844 125.78865051269531 C 50.81929397583008 222.3480987548828 78.11112213134766 200.99717712402344 90.65968322753906 213.42347717285156 C 38.878360748291016 210.86468505859375 46.61810302734375 207.56956481933594 -12.893426895141602 214.5281219482422 L 1.180098295211792 79.75992584228516" stroke-width="2.0" fill="rgb(249, 139, 60)" opacity="0.6949276"/>
    <path d="M 225.7899627685547 81.27714538574219 C 182.75697326660156 -20.2180118560791 258.6680908203125 -33.820735931396484 325.6952209472656 -14.20310115814209 C 328.2366638183594 7.277183532714844 339.58697509765625 -11.860488891601562 321.8767395019531 5.339537143707275 C 256.5466613769531 60.500118255615234 290.1557312011719 3.5482022762298584 364.7159729003906 99.37039947509766 C 352.8723449707031 8.946554183959961 338.5372619628906 -18.739730834960938 339.5542297363281 -8.77085018157959 L 225.7899627685547 81.27714538574219" stroke-width="2.0" fill="rgb(165, 0, 72)" opacity="1.0"/>
    <path d="M 317.9032897949219 134.2919464111328 C 305.3400573730469 172.24740600585938 267.5588073730469 169.7219696044922 283.6912536621094 168.5439453125 C 250.19322204589844 177.02114868164062 228.79991149902344 153.5287322998047 224.5762481689453 139.99317932128906 C 216.70150756835938 124.92975616455078 218.63479614257812 90.5233383178711 250.1820831298828 76.29312133789062 C 286.1597595214844 64.25785827636719 276.2933654785156 58.19541931152344 326.9498291015625 60.817237854003906 L 317.9032897949219 134.2919464111328" stroke-width="2.0" fill="rgb(254, 243, 189)" opacity="0.9588922"/>
    <path d="M 10.088496208190918 186.40524291992188 C 10.746368408203125 184.008544921875 9.748003959655762 185.1678009033203 10.505206108093262 185.14524841308594 C 10.264633178710938 184.8446044921875 10.265706062316895 185.42633056640625 10.323164939880371 184.8134765625 C 10.337461471557617 187.5652313232422 9.284769058227539 185.50613403320312 10.132027626037598 186.47203063964844 C 9.887396812438965 186.25537109375 10.781695365905762 186.35830688476562 9.6071195602417 186.57337951660156 L 10.088496208190918 186.40524291992188" stroke-width="2.0" fill="rgb(39, 85, 90)" opacity="0.0017170677"/>
    <path d="M 22.34549903869629 216.4274139404297 C 25.472936630249023 209.70677185058594 25.35928726196289 219.87246704101562 24.911962509155273 206.7356414794922 C 26.43539810180664 204.2165985107422 25.34233856201172 203.89764404296875 42.803340911865234 201.463134765625 C 17.278057098388672 205.2422637939453 27.676158905029297 203.327392578125 24.138303756713867 223.59727478027344 C 15.966118812561035 241.49761962890625 26.63238525390625 232.58848571777344 8.98121452331543 285.56884765625 L 22.34549903869629 216.4274139404297" stroke-width="2.0" fill="rgb(6, 23, 54)" opacity="0.81516814"/>
    <path d="M 526.3716430664062 364.7557678222656 C 423.7674560546875 379.414306640625 421.2602844238281 376.2862243652344 417.7334289550781 376.50970458984375 C 372.5315856933594 375.6304016113281 376.7988586425781 370.1744689941406 334.3172302246094 370.36920166015625 C 349.9777526855469 263.4078369140625 355.694580078125 321.0482177734375 363.6078796386719 308.35418701171875 C 480.08587646484375 301.85650634765625 426.06341552734375 298.5310363769531 520.88916015625 276.7303161621094 L 526.3716430664062 364.7557678222656" stroke-width="2.0" fill="rgb(2, 23, 54)" opacity="0.882907"/>
    <path d="M 431.31756591796875 68.81616973876953 C 400.906494140625 59.41300582885742 425.7292175292969 65.33958435058594 351.9022521972656 79.69865417480469 C 418.2760925292969 81.36823272705078 431.49847412109375 70.11182403564453 432.77459716796875 71.17129516601562 C 440.30291748046875 86.59111022949219 447.1999206542969 89.86911010742188 433.2093811035156 70.64510345458984 C 407.40704345703125 82.37244415283203 345.2264404296875 78.89578247070312 437.1212158203125 79.03092193603516 L 431.31756591796875 68.81616973876953" stroke-width="2.0" fill="rgb(250, 186, 82)" opacity="1.0"/>
    <path d="M 22.14500617980957 139.6293182373047 C 21.430246353149414 138.80093383789062 22.006237030029297 139.73770141601562 22.290037155151367 139.5980682373047 C 22.28714370727539 139.84658813476562 20.51673698425293 138.1274871826172 22.54918098449707 139.9586639404297 C 20.96434211730957 138.84861755371094 22.08707046508789 138.65992736816406 23.063621520996094 141.86865234375 C 22.345163345336914 139.64840698242188 21.926912307739258 139.91171264648438 22.34173011779785 139.04812622070312 L 22.14500617980957 139.6293182373047" stroke-width="2.0" fill="rgb(135, 132, 173)" opacity="0.06632884"/>
    <path d="M 400.92047119140625 172.9324951171875 C 401.499267578125 172.9686737060547 400.42376708984375 172.45980834960938 400.769775390625 173.03160095214844 C 401.220458984375 172.08746337890625 400.6869201660156 170.99530029296875 401.53289794921875 169.56190490722656 C 401.3891906738281 170.98692321777344 400.59490966796875 171.0711212158203 401.1618347167969 171.79917907714844 C 400.7952880859375 170.43785095214844 401.38525390625 170.6080322265625 401.1243591308594 172.380859375 L 400.92047119140625 172.9324951171875" stroke-width="2.0" fill="rgb(172, 192, 80)" opacity="0.24575539"/>
    <path d="M 415.96868896484375 107.19164276123047 C 416.8530578613281 107.41918182373047 416.5697326660156 107.85356140136719 416.1423034667969 106.35758209228516 C 417.6279296875 107.8108139038086 417.16680908203125 107.26997375488281 417.4545593261719 106.73912048339844 C 416.2729187011719 108.33252716064453 417.08636474609375 108.0743637084961 418.2768859863281 109.55308532714844 C 416.82159423828125 107.53636932373047 416.9078063964844 108.01485443115234 416.155517578125 109.07677459716797 L 415.96868896484375 107.19164276123047" stroke-width="2.0" fill="rgb(56, 71, 88)" opacity="0.0"/>
    <path d="M 275.1797790527344 315.1925354003906 C 372.4706726074219 319.1890869140625 345.71905517578125 290.6820373535156 333.6053161621094 375.4453430175781 C 221.29893493652344 378.1301574707031 228.85983276367188 364.0769958496094 269.2388610839844 312.2294616699219 C 262.6755676269531 274.1839294433594 273.4559020996094 310.382080078125 247.89700317382812 257.6028137207031 C 263.59417724609375 239.54676818847656 286.840576171875 293.14263916015625 276.23931884765625 287.90240478515625 L 275.1797790527344 315.1925354003906" stroke-width="2.0" fill="rgb(0, 45, 42)" opacity="1.0"/>
    <path d="M 190.32093811035156 252.9697265625 C 176.87818908691406 283.0523986816406 202.0521697998047 246.76376342773438 172.83888244628906 325.99395751953125 C 109.87092590332031 338.2133483886719 89.83232116699219 340.3078308105469 115.79249572753906 270.81707763671875 C -64.27132415771484 357.7778625488281 39.81926727294922 136.1310577392578 136.24578857421875 252.8658447265625 C 183.63861083984375 266.22344970703125 179.37628173828125 276.91265869140625 190.2353515625 249.7167510986328 L 190.32093811035156 252.9697265625" stroke-width="2.0" fill="rgb(166, 49, 74)" opacity="0.73894805"/>
    <path d="M 130.3455352783203 312.4659729003906 C 115.62437438964844 334.3807373046875 115.91645050048828 345.8423767089844 119.94157409667969 366.3398132324219 C 45.468589782714844 374.6494445800781 18.458953857421875 382.97857666015625 -16.720502853393555 370.4356689453125 C -15.09945297241211 194.97930908203125 -33.36698913574219 288.27960205078125 66.17717742919922 278.7587585449219 C 107.97315979003906 238.58154296875 77.65019226074219 256.6454772949219 71.76962280273438 294.3665771484375 L 130.3455352783203 312.4659729003906" stroke-width="2.0" fill="rgb(32, 35, 55)" opacity="0.66871077"/>
    <path d="M 202.38450622558594 17.03339195251465 C 203.24432373046875 17.65410041809082 202.687744140625 18.275074005126953 202.20220947265625 17.332021713256836 C 202.17385864257812 18.452007293701172 201.46327209472656 17.952383041381836 202.1551971435547 17.340049743652344 C 201.24053955078125 17.449914932250977 201.6243896484375 16.691213607788086 202.5111846923828 17.895906448364258 C 202.24124145507812 16.633142471313477 203.0636444091797 16.823570251464844 202.82101440429688 17.575523376464844 L 202.38450622558594 17.03339195251465" stroke-width="2.0" fill="rgb(94, 30, 110)" opacity="0.0"/>
    <path d="M 497.0218200683594 249.1055908203125 C 415.7684020996094 218.37477111816406 398.76605224609375 215.50167846679688 409.0618591308594 294.52178955078125 C 406.2312927246094 328.1666564941406 463.8385009765625 274.30010986328125 487.4460754394531 257.04400634765625 C 501.47344970703125 246.3544464111328 487.557373046875 247.26980590820312 531.6663208007812 265.51080322265625 C 444.54473876953125 321.6894836425781 526.3593139648438 270.9051208496094 444.763916015625 290.86322021484375 L 497.0218200683594 249.1055908203125" stroke-width="2.0" fill="rgb(172, 64, 75)" opacity="1.0"/>
    <path d="M 37.33647537231445 153.90855407714844 C 34.7304801940918 157.6164093017578 33.45042037963867 157.55352783203125 36.53567886352539 154.83338928222656 C 38.38601303100586 156.8220672607422 36.96290588378906 156.3646240234375 38.28685760498047 156.6436309814453 C 36.09397506713867 157.14207458496094 36.782623291015625 154.52090454101562 36.28839111328125 156.63124084472656 C 35.82767868041992 153.51170349121094 35.75074768066406 155.2633819580078 36.68199920654297 156.5875701904297 L 37.33647537231445 153.90855407714844" stroke-width="2.0" fill="rgb(102, 159, 136)" opacity="0.26884815"/>
    <path d="M 260.30035400390625 313.70697021484375 C 283.84124755859375 318.0096740722656 282.513916015625 302.21990966796875 268.88739013671875 353.951904296875 C 232.6328582763672 358.79595947265625 236.73947143554688 316.105224609375 253.4857177734375 314.4073181152344 C 251.57717895507812 250.66104125976562 241.10939025878906 335.4611511230469 247.96910095214844 237.10064697265625 C 276.70074462890625 235.79595947265625 291.7078857421875 297.531005859375 261.5389099121094 288.64691162109375 L 260.30035400390625 313.70697021484375" stroke-width="2.0" fill="rgb(0, 46, 42)" opacity="1.0"/>
    <path d="M 128.57359313964844 155.95071411132812 C 33.368247985839844 237.44110107421875 -6.037895202636719 154.7861328125 -27.298465728759766 217.7462158203125 C 91.57327270507812 193.011962890625 106.88233947753906 239.81483459472656 98.05648803710938 206.6238555908203 C 84.2691650390625 227.33653259277344 137.1207733154297 212.2648468017578 103.70635223388672 198.17709350585938 C 109.63742065429688 228.7635955810547 112.96041107177734 227.82423400878906 87.28816986083984 207.34056091308594 L 128.57359313964844 155.95071411132812" stroke-width="2.0" fill="rgb(255, 167, 67)" opacity="0.65204835"/>
    <path d="M 431.2177734375 216.6569366455078 C 422.6195983886719 224.4921112060547 422.71649169921875 209.49440002441406 419.0401611328125 246.331787109375 C 357.4718322753906 251.96234130859375 383.3640441894531 266.5530700683594 381.8068542480469 216.9555206298828 C 390.011474609375 136.49502563476562 369.8062438964844 192.88975524902344 381.54095458984375 149.5507049560547 C 370.74395751953125 126.05155944824219 427.4909362792969 98.1178207397461 435.4699401855469 155.5497283935547 L 431.2177734375 216.6569366455078" stroke-width="2.0" fill="rgb(0, 23, 54)" opacity="0.8789432"/>
    <path d="M 446.0905456542969 8.796002388000488 C 443.9426574707031 26.290517807006836 444.88336181640625 25.385128021240234 443.9090270996094 30.95960235595703 C 481.12158203125 42.64902114868164 454.35064697265625 81.47418212890625 440.89715576171875 37.53778076171875 C 400.13836669921875 21.573104858398438 386.9549560546875 42.81570816040039 410.6714172363281 25.072168350219727 C 432.018798828125 21.42238998413086 424.0374450683594 33.524383544921875 444.7468566894531 31.107118606567383 L 446.0905456542969 8.796002388000488" stroke-width="2.0" fill="rgb(181, 0, 70)" opacity="0.29094052"/>
    <path d="M 482.7297058105469 54.41010665893555 C 394.12213134765625 15.483649253845215 415.5082702636719 38.868202209472656 385.4012451171875 29.927486419677734 C 351.4925231933594 58.620094299316406 415.24249267578125 18.60727882385254 294.3222351074219 56.9442024230957 C 351.3141174316406 56.822994232177734 361.7467956542969 57.34326934814453 374.84930419921875 51.062965393066406 C 376.08514404296875 46.69203567504883 379.0237731933594 53.39588165283203 356.06268310546875 56.07904052734375 L 482.7297058105469 54.41010665893555" stroke-width="2.0" fill="rgb(184, 0, 70)" opacity="0.25554377"/>
    <path d="M 422.26824951171875 139.15260314941406 C 420.50726318359375 139.5216064453125 422.0511474609375 139.89901733398438 426.15802001953125 136.3687744140625 C 423.1337890625 138.94740295410156 422.0661315917969 138.90585327148438 422.5065612792969 139.2144317626953 C 420.4980163574219 137.5587921142578 420.3425598144531 137.37179565429688 422.378173828125 139.0936737060547 C 421.8763427734375 139.0447540283203 422.778564453125 139.90721130371094 421.2095947265625 137.090087890625 L 422.26824951171875 139.15260314941406" stroke-width="2.0" fill="rgb(172, 196, 91)" opacity="0.09983466"/>
    <path d="M 246.64260864257812 250.81837463378906 C 213.67172241210938 254.6248321533203 218.7243194580078 249.5905303955078 214.1365966796875 254.42771911621094 C 223.0345458984375 244.76402282714844 205.76412963867188 268.6167297363281 205.60794067382812 286.175048828125 C 210.57911682128906 231.76377868652344 208.84654235839844 249.6611785888672 216.68975830078125 240.82748413085938 C 256.1341857910156 251.61224365234375 170.74945068359375 192.97845458984375 262.24029541015625 169.25880432128906 L 246.64260864257812 250.81837463378906" stroke-width="2.0" fill="rgb(242, 136, 63)" opacity="0.9566867"/>
    <path d="M 263.51458740234375 313.0559387207031 C 267.290771484375 393.8254699707031 279.02301025390625 378.54736328125 279.712646484375 379.5221862792969 C 154.96868896484375 377.6813049316406 153.72434997558594 376.52978515625 137.388671875 341.2558288574219 C 191.58253479003906 293.4511413574219 166.91921997070312 279.6737060546875 187.7377471923828 256.8843688964844 C 195.1000213623047 250.4084930419922 170.80026245117188 321.1146240234375 219.51614379882812 312.4222106933594 L 263.51458740234375 313.0559387207031" stroke-width="2.0" fill="rgb(0, 30, 50)" opacity="0.631355"/>
    <path d="M 376.7411804199219 214.50558471679688 C 362.5125732421875 215.46583557128906 377.5904846191406 214.28302001953125 365.75396728515625 216.9597625732422 C 354.6444091796875 209.68606567382812 372.91326904296875 208.76837158203125 348.2176513671875 205.20713806152344 C 356.3757019042969 350.0227966308594 375.4844970703125 338.6587829589844 303.7479553222656 204.27130126953125 C 333.83343505859375 125.5057144165039 363.8718566894531 219.0466766357422 374.06939697265625 199.60060119628906 L 376.7411804199219 214.50558471679688" stroke-width="2.0" fill="rgb(0, 24, 54)" opacity="0.8548394"/>
    <path d="M 83.98631286621094 112.54959869384766 C 84.3324203491211 113.08179473876953 83.70199584960938 111.35940551757812 83.31440734863281 110.05623626708984 C 84.35184478759766 112.38916015625 84.80243682861328 111.11032104492188 85.79647064208984 113.17512512207031 C 82.82464599609375 109.43634033203125 84.51342010498047 111.53822326660156 86.08854675292969 114.8733139038086 C 84.42069244384766 111.77204132080078 84.58683013916016 112.04696655273438 83.90390014648438 110.80671691894531 L 83.98631286621094 112.54959869384766" stroke-width="2.0" fill="rgb(76, 185, 66)" opacity="0.12901276"/>
    <path d="M 247.39511108398438 146.83876037597656 C 245.1256561279297 144.4109649658203 244.89308166503906 144.46575927734375 245.9933624267578 145.18450927734375 C 245.64157104492188 146.89515686035156 244.38771057128906 144.8284149169922 247.43487548828125 146.8668670654297 C 245.89749145507812 153.3668670654297 247.8711395263672 153.8111572265625 245.44264221191406 156.1095428466797 C 240.38925170898438 150.8628387451172 241.16578674316406 151.5159149169922 246.15513610839844 156.5660400390625 L 247.39511108398438 146.83876037597656" stroke-width="2.0" fill="rgb(254, 167, 168)" opacity="0.0132818045"/>
    <path d="M 130.37673950195312 192.32679748535156 C 124.56180572509766 172.54373168945312 102.90802764892578 186.66293334960938 107.69239044189453 187.5941619873047 C 99.44920349121094 184.220703125 101.68390655517578 193.51145935058594 97.66084289550781 193.31375122070312 C 101.08403778076172 191.4221954345703 98.82486724853516 203.88128662109375 95.95775604248047 215.4276123046875 C 131.0537109375 205.2425537109375 65.52799224853516 303.39483642578125 140.85867309570312 275.99639892578125 L 130.37673950195312 192.32679748535156" stroke-width="2.0" fill="rgb(0, 27, 53)" opacity="0.80846846"/>
    <path d="M 423.4889831542969 279.2087097167969 C 420.9959411621094 255.3885498046875 425.7209777832031 279.7206115722656 419.8277282714844 323.1106262207031 C 363.3378601074219 323.2296142578125 387.88677978515625 331.1728210449219 384.2575378417969 282.763671875 C 379.9708557128906 242.64772033691406 373.25115966796875 277.99725341796875 381.609375 223.57432556152344 C 431.4921569824219 222.41566467285156 417.5137023925781 224.8812255859375 418.7208557128906 238.6747589111328 L 423.4889831542969 279.2087097167969" stroke-width="2.0" fill="rgb(25, 29, 56)" opacity="0.86039674"/>
    <path d="M -0.18684032559394836 102.5474853515625 C -20.658090591430664 95.94727325439453 -19.437957763671875 47.45933151245117 6.166948318481445 -22.922149658203125 C 103.34151458740234 -24.552047729492188 62.84757995605469 -1.3610351085662842 -10.369155883789062 119.8150405883789 C 224.3857421875 141.87168884277344 187.66668701171875 154.7121124267578 108.48677825927734 2.549954652786255 C 50.513214111328125 -25.784963607788086 82.20751953125 -21.369714736938477 43.663089752197266 35.510074615478516 L -0.18684032559394836 102.5474853515625" stroke-width="2.0" fill="rgb(239, 123, 61)" opacity="0.8420781"/>
    <path d="M 518.577392578125 108.25489807128906 C 510.5555725097656 105.30451202392578 510.01165771484375 110.11113739013672 524.0774536132812 83.90399932861328 C 573.39111328125 9.51085090637207 606.3744506835938 -13.120881080627441 447.51812744140625 -17.822853088378906 C 437.9006042480469 162.9524688720703 399.094970703125 144.09359741210938 470.662841796875 149.52972412109375 C 510.38885498046875 104.97695922851562 513.5046997070312 111.85904693603516 512.853759765625 114.31392669677734 L 518.577392578125 108.25489807128906" stroke-width="2.0" fill="rgb(255, 145, 59)" opacity="0.57323754"/>
    <path d="M 129.3901824951172 312.8738098144531 C 192.7983856201172 307.24700927734375 150.57777404785156 328.8194580078125 129.07122802734375 354.8293762207031 C 53.798095703125 349.7437438964844 52.98290252685547 348.7117004394531 49.508323669433594 355.1842956542969 C 65.55809783935547 278.0159606933594 65.18592071533203 282.19549560546875 80.21200561523438 285.52703857421875 C 131.24827575683594 276.3100891113281 100.04000091552734 189.733154296875 128.07066345214844 186.0570526123047 L 129.3901824951172 312.8738098144531" stroke-width="2.0" fill="rgb(14, 22, 57)" opacity="0.52443707"/>
    <path d="M 209.04864501953125 124.15760040283203 C 289.7027587890625 326.6192321777344 168.0786590576172 48.882476806640625 156.52670288085938 228.87355041503906 C 128.26246643066406 132.20945739746094 184.11660766601562 122.25774383544922 170.39443969726562 121.73297882080078 C 163.77633666992188 131.19297790527344 173.5754852294922 111.11316680908203 185.0895233154297 109.43366241455078 C 178.25827026367188 126.1375732421875 202.2749786376953 57.47645568847656 225.56167602539062 108.36683654785156 L 209.04864501953125 124.15760040283203" stroke-width="2.0" fill="rgb(24, 32, 55)" opacity="0.9466297"/>
    <path d="M 421.377197265625 93.47267150878906 C 421.7496337890625 93.46703338623047 421.59283447265625 93.42619323730469 419.1159362792969 92.54851531982422 C 423.57232666015625 93.82189178466797 420.4331970214844 93.30747985839844 419.6592712402344 92.66170501708984 C 422.84033203125 93.27198028564453 421.4385986328125 92.79008483886719 421.5984802246094 93.78558349609375 C 421.7386169433594 92.50186157226562 421.50457763671875 94.83629608154297 421.3764343261719 91.35440063476562 L 421.377197265625 93.47267150878906" stroke-width="2.0" fill="rgb(87, 59, 35)" opacity="0.3158217"/>
    <path d="M 432.79583740234375 188.8568115234375 C 482.6045227050781 201.83042907714844 461.1738586425781 196.61305236816406 450.82452392578125 195.81661987304688 C 524.4209594726562 209.87393188476562 517.6732177734375 217.4360809326172 527.446044921875 222.6190185546875 C 524.1736450195312 264.5287780761719 524.9182739257812 262.86627197265625 542.2007446289062 290.3123779296875 C 513.6897583007812 262.4252624511719 569.2374267578125 278.7514953613281 421.4598693847656 305.5330505371094 L 432.79583740234375 188.8568115234375" stroke-width="2.0" fill="rgb(255, 58, 66)" opacity="0.21962588"/>
    <path d="M 71.42446899414062 300.059326171875 C 73.43246459960938 321.10174560546875 71.19461822509766 318.2457580566406 61.554691314697266 355.9443664550781 C -15.29578685760498 365.12908935546875 -17.353593826293945 363.24261474609375 -13.695170402526855 353.92913818359375 C -5.7922797203063965 247.932373046875 -0.8358460068702698 254.29135131835938 12.308701515197754 239.39271545410156 C 65.28486633300781 256.9732666015625 -1.5737580060958862 296.0736999511719 62.60099411010742 260.12713623046875 L 71.42446899414062 300.059326171875" stroke-width="2.0" fill="rgb(42, 30, 59)" opacity="0.638659"/>
    <path d="M 272.4800720214844 237.8522491455078 C 280.8716735839844 269.2179260253906 277.8934020996094 275.04949951171875 273.8875427246094 261.7997741699219 C 270.0738525390625 254.39218139648438 261.64508056640625 244.0476837158203 247.6769256591797 245.28567504882812 C 258.7301330566406 189.62860107421875 226.04380798339844 267.3150634765625 227.13427734375 181.30076599121094 C 264.000244140625 270.2812194824219 248.75430297851562 134.22560119628906 283.8498229980469 205.09994506835938 L 272.4800720214844 237.8522491455078" stroke-width="2.0" fill="rgb(23, 30, 55)" opacity="0.9717056"/>
    <path d="M 18.052104949951172 92.44550323486328 C 201.57810974121094 90.75248718261719 163.92198181152344 102.44561767578125 124.90821838378906 157.72991943359375 C 144.0743408203125 335.2736511230469 179.6974334716797 52.340492248535156 175.35472106933594 85.4430923461914 C 82.98116302490234 235.0709686279297 55.3807258605957 185.9761505126953 98.31318664550781 216.74607849121094 C 94.72303009033203 120.74986267089844 194.0998992919922 182.29531860351562 42.99489212036133 200.23965454101562 L 18.052104949951172 92.44550323486328" stroke-width="2.0" fill="rgb(238, 126, 61)" opacity="0.9541397"/>
    <path d="M 379.4656982421875 162.99705505371094 C 308.9640197753906 114.48651885986328 303.009521484375 184.39605712890625 313.1501770019531 144.3150634765625 C 337.831298828125 98.0478744506836 279.7803955078125 38.46470642089844 219.8991241455078 96.43048858642578 C 210.13360595703125 -26.447568893432617 225.4650421142578 -20.798397064208984 241.15150451660156 -16.487199783325195 C 282.9763488769531 -13.98547077178955 281.4447937011719 -12.097309112548828 344.2250061035156 -13.774676322937012 L 379.4656982421875 162.99705505371094" stroke-width="2.0" fill="rgb(244, 139, 60)" opacity="0.91063696"/>
    <path d="M 341.9085693359375 242.75572204589844 C 303.73663330078125 340.5948181152344 366.33843994140625 345.4164733886719 328.65570068359375 389.85845947265625 C 178.73536682128906 357.2344970703125 191.85238647460938 324.400634765625 207.52975463867188 274.3385925292969 C 262.948486328125 279.0171813964844 241.12094116210938 276.1492919921875 246.9369354248047 248.04017639160156 C 246.42587280273438 239.21449279785156 271.38873291015625 246.93911743164062 276.38250732421875 268.49517822265625 L 341.9085693359375 242.75572204589844" stroke-width="2.0" fill="rgb(100, 0, 88)" opacity="0.28832358"/>
    <path d="M 283.14453125 228.18338012695312 C 305.4139099121094 274.1819152832031 314.96917724609375 112.92818450927734 305.859130859375 243.42031860351562 C 249.1164093017578 246.24044799804688 302.9252014160156 200.9990692138672 246.19613647460938 265.63983154296875 C 258.6248474121094 214.93141174316406 247.85081481933594 186.50717163085938 263.6078186035156 183.69482421875 C 277.19573974609375 184.4991455078125 281.7231140136719 183.4297637939453 281.1519775390625 216.0170440673828 L 283.14453125 228.18338012695312" stroke-width="2.0" fill="rgb(25, 32, 55)" opacity="0.9415833"/>
    <path d="M 393.8070373535156 371.79986572265625 C 385.47076416015625 364.5155944824219 389.2477722167969 362.5408020019531 389.59759521484375 377.1909484863281 C 302.18524169921875 379.2712707519531 299.481201171875 379.11651611328125 283.581787109375 372.1112365722656 C 356.8016357421875 323.63641357421875 314.9485168457031 367.1387939453125 314.2429504394531 226.2051239013672 C 385.73931884765625 245.05589294433594 335.0427551269531 346.88592529296875 379.7142333984375 377.2270202636719 L 393.8070373535156 371.79986572265625" stroke-width="2.0" fill="rgb(23, 26, 57)" opacity="0.6126991"/>
    <path d="M 243.44461059570312 365.8065490722656 C 215.23011779785156 379.4383239746094 211.27523803710938 377.7557678222656 203.8821563720703 378.16802978515625 C 147.19752502441406 377.7026672363281 144.17935180664062 377.62164306640625 116.23506164550781 361.5630187988281 C 119.6126937866211 304.5942077636719 125.40727233886719 315.52642822265625 129.1728973388672 310.7459716796875 C 171.7432403564453 307.71734619140625 247.26296997070312 325.3614196777344 247.78042602539062 307.96478271484375 L 243.44461059570312 365.8065490722656" stroke-width="2.0" fill="rgb(17, 29, 55)" opacity="0.85753554"/>
    <path d="M 280.45013427734375 37.41411209106445 C 206.7251739501953 -38.13472366333008 184.15232849121094 -42.541202545166016 159.04331970214844 60.4630012512207 C 227.47149658203125 85.53463745117188 218.75863647460938 24.172990798950195 222.37474060058594 -30.608600616455078 C 231.9943389892578 8.73910140991211 310.2945251464844 43.378196716308594 257.6751708984375 35.65346145629883 C 164.16261291503906 70.94141387939453 171.94766235351562 59.82514953613281 223.4905242919922 99.39737701416016 L 280.45013427734375 37.41411209106445" stroke-width="2.0" fill="rgb(244, 145, 64)" opacity="0.9623825"/>
    <path d="M 332.4370422363281 251.7740020751953 C 332.57879638671875 252.16555786132812 332.6407470703125 252.47714233398438 332.5735168457031 252.5275115966797 C 333.0429992675781 253.5677032470703 332.05474853515625 252.55511474609375 332.69024658203125 253.18617248535156 C 333.0244140625 253.68246459960938 333.3375549316406 253.2415313720703 334.3918762207031 254.12303161621094 C 332.7323913574219 252.90354919433594 332.5485534667969 253.3248291015625 332.7127685546875 253.21572875976562 L 332.4370422363281 251.7740020751953" stroke-width="2.0" fill="rgb(170, 191, 59)" opacity="0.0"/>
    <path d="M 36.8205680847168 242.42019653320312 C 39.53496170043945 170.41578674316406 53.74943161010742 249.7517852783203 116.10166931152344 202.48895263671875 C 88.31987762451172 256.431640625 93.84351348876953 243.00381469726562 105.50579833984375 223.59518432617188 C 110.71875762939453 235.1894989013672 98.16921997070312 250.71229553222656 103.55287170410156 243.86302185058594 C 79.36209106445312 237.1045379638672 31.82240104675293 243.0321807861328 79.35014343261719 238.41954040527344 L 36.8205680847168 242.42019653320312" stroke-width="2.0" fill="rgb(235, 98, 63)" opacity="0.746401"/>
    <path d="M 433.2745666503906 172.9458465576172 C 422.66015625 164.79237365722656 393.4740905761719 172.26324462890625 373.3165588378906 204.28213500976562 C 348.0732421875 223.77748107910156 368.58770751953125 207.69935607910156 375.5594787597656 178.07667541503906 C 372.09112548828125 182.02520751953125 375.8871765136719 181.83494567871094 397.0098876953125 127.68858337402344 C 325.3127136230469 104.09870147705078 417.0223693847656 42.934654235839844 411.0704345703125 137.9412384033203 L 433.2745666503906 172.9458465576172" stroke-width="2.0" fill="rgb(26, 32, 55)" opacity="0.9716813"/>
    <path d="M 440.72174072265625 192.27859497070312 C 426.18011474609375 90.94292449951172 408.0309143066406 132.5189971923828 402.0152893066406 110.19844818115234 C 411.1765441894531 75.25888061523438 347.5761413574219 77.3490982055664 532.6323852539062 80.2882308959961 C 525.8511962890625 219.08206176757812 529.8663940429688 203.92568969726562 528.2902221679688 227.00674438476562 C 498.2467346191406 182.70770263671875 506.7574157714844 196.26077270507812 518.6596069335938 212.20748901367188 L 440.72174072265625 192.27859497070312" stroke-width="2.0" fill="rgb(238, 126, 62)" opacity="0.9998822"/>
    <path d="M 90.14177703857422 -38.41831588745117 C 117.27587127685547 -3.2416036128997803 118.45162963867188 -2.9333248138427734 123.31610870361328 -0.49631303548812866 C 123.84628295898438 -4.233996391296387 122.06920623779297 -27.50977325439453 227.37994384765625 -1.8458150625228882 C 206.65194702148438 100.1850814819336 210.8099822998047 92.83043670654297 190.4059295654297 87.90682220458984 C 168.368408203125 83.10149383544922 194.8736572265625 95.87019348144531 127.37134552001953 65.14632415771484 L 90.14177703857422 -38.41831588745117" stroke-width="2.0" fill="rgb(239, 132, 63)" opacity="1.0"/>
    <path d="M 436.0189514160156 164.62583923339844 C 433.9305725097656 173.26821899414062 440.288330078125 168.12823486328125 433.5487365722656 196.60739135742188 C 515.6126098632812 195.88491821289062 526.7015991210938 241.39849853515625 520.9711303710938 183.4860076904297 C 455.2192687988281 164.49343872070312 429.5541076660156 188.0106201171875 436.3525085449219 168.21185302734375 C 439.5801696777344 167.87271118164062 434.539794921875 197.9460906982422 430.58404541015625 205.2483367919922 L 436.0189514160156 164.62583923339844" stroke-width="2.0" fill="rgb(249, 158, 67)" opacity="0.9165069"/>
    <path d="M 426.87640380859375 302.3548278808594 C 458.4625244140625 274.1798400878906 490.9555358886719 297.71612548828125 504.44549560546875 269.6620788574219 C 487.5238342285156 262.05218505859375 482.8760070800781 266.2776794433594 452.0689697265625 265.6985168457031 C 498.0338439941406 265.9384460449219 475.5464782714844 261.65753173828125 448.9478759765625 272.7041015625 C 502.81573486328125 251.9196319580078 533.997314453125 272.10235595703125 525.2068481445312 352.6309814453125 L 426.87640380859375 302.3548278808594" stroke-width="2.0" fill="rgb(26, 29, 58)" opacity="0.42380422"/>
    <path d="M 495.1377258300781 199.6875762939453 C 495.02105712890625 198.0340118408203 495.5849304199219 197.6667022705078 494.35400390625 199.94070434570312 C 495.2833251953125 201.8114471435547 494.8805847167969 198.92250061035156 494.46539306640625 198.19618225097656 C 494.3631591796875 198.75291442871094 495.6829833984375 196.7088623046875 494.6442565917969 197.73190307617188 C 494.8652648925781 196.5453643798828 494.7820129394531 199.8745880126953 494.96099853515625 196.89810180664062 L 495.1377258300781 199.6875762939453" stroke-width="2.0" fill="rgb(168, 112, 69)" opacity="0.23991354"/>
    <path d="M 156.29685974121094 360.5805969238281 C 127.5879898071289 385.6293640136719 120.5689926147461 377.5055847167969 115.03158569335938 377.1878356933594 C 61.833709716796875 377.3543701171875 52.46147155761719 384.277587890625 -12.34492015838623 359.8807067871094 C -9.189924240112305 211.5373077392578 7.540874004364014 299.5447082519531 110.1063003540039 306.5768127441406 C 162.03762817382812 327.69940185546875 122.48770904541016 332.0650939941406 148.85464477539062 320.95281982421875 L 156.29685974121094 360.5805969238281" stroke-width="2.0" fill="rgb(26, 32, 56)" opacity="0.99352294"/>
    <path d="M 302.7241516113281 302.5220031738281 C 300.9509582519531 302.847412109375 301.46026611328125 303.1925048828125 301.451416015625 300.76922607421875 C 300.2668151855469 304.32281494140625 297.7164306640625 305.4960021972656 300.79254150390625 303.4645690917969 C 301.4101257324219 302.0061950683594 301.50909423828125 303.174560546875 300.5417175292969 299.4701843261719 C 300.0975036621094 299.6201171875 302.8793029785156 301.63916015625 299.1586608886719 304.4773254394531 L 302.7241516113281 302.5220031738281" stroke-width="2.0" fill="rgb(93, 143, 176)" opacity="0.0"/>
    <path d="M 52.99877166748047 245.80068969726562 C 52.687957763671875 247.71473693847656 52.96970748901367 246.36663818359375 52.862178802490234 246.9197998046875 C 52.73349380493164 247.81307983398438 52.88930130004883 246.6428985595703 53.01911163330078 245.9710235595703 C 52.779659271240234 247.16256713867188 52.925838470458984 246.3489227294922 52.82783508300781 246.9929962158203 C 53.09461212158203 245.4062042236328 52.85699462890625 246.37777709960938 53.74968338012695 243.224609375 L 52.99877166748047 245.80068969726562" stroke-width="2.0" fill="rgb(183, 167, 76)" opacity="0.17894611"/>
    <path d="M 235.3411407470703 163.03282165527344 C 208.36270141601562 91.55889129638672 204.5704345703125 176.92547607421875 242.4008331298828 199.72731018066406 C 257.1083984375 155.89376831054688 182.60386657714844 163.3273162841797 333.1870422363281 177.03587341308594 C 135.78013610839844 190.5269012451172 310.81256103515625 213.5452423095703 245.35260009765625 210.86460876464844 C 229.12709045410156 190.20286560058594 233.8296661376953 235.76451110839844 254.29078674316406 203.95082092285156 L 235.3411407470703 163.03282165527344" stroke-width="2.0" fill="rgb(246, 146, 63)" opacity="0.9483949"/>
  </g>
</svg>
