<?xml version="1.0" ?>
<svg xmlns="http://www.w3.org/2000/svg" version="1.1" width="512" height="512">
  <defs/>
  <g>
    <path d="M 242.7689666748047 142.49493408203125 C 244.96343994140625 269.25994873046875 239.15931701660156 263.4127197265625 207.10317993164062 272.5912780761719 C 138.24832153320312 292.3460388183594 132.84938049316406 293.5929870605469 102.24068450927734 304.08074951171875 C 104.25552368164062 173.3529510498047 102.68579864501953 172.56895446777344 92.80193328857422 148.0048370361328 C 217.77149963378906 147.89512634277344 218.6954803466797 148.91775512695312 242.7689666748047 142.49493408203125" stroke-width="0.0" fill="rgb(0, 111, 187)" opacity="0.18131195" stroke="rgb(240, 61, 103)" stroke-opacity="0.28073123" stroke-linecap="round" stroke-linejoin="round"/>
    <path d="M 501.0 156.0 C 500.33013916015625 158.5 498.5 160.3301239013672 496.0 161.0 C 493.5 160.3301239013672 491.66986083984375 158.5 491.0 156.0 C 491.66986083984375 153.5 493.5 151.6698760986328 496.0 151.0 C 498.5 151.6698760986328 500.33013916015625 153.5 501.0 156.0" stroke-width="0.0" fill="rgb(248, 234, 207)" opacity="1.0" stroke="rgb(153, 118, 25)" stroke-opacity="0.6141167" stroke-linecap="round" stroke-linejoin="round"/>
    <path d="M 506.0 239.0 C 505.33013916015625 241.5 503.5 243.3301239013672 501.0 244.0 C 498.5 243.3301239013672 496.66986083984375 241.5 496.0 239.0 C 496.66986083984375 236.5 498.5 234.6698760986328 501.0 234.0 C 503.5 234.6698760986328 505.33013916015625 236.5 506.0 239.0" stroke-width="0.0" fill="rgb(248, 234, 207)" opacity="1.0" stroke="rgb(205, 217, 81)" stroke-opacity="0.35673487" stroke-linecap="round" stroke-linejoin="round"/>
  </g>
</svg>
