<?xml version="1.0" ?>
<svg xmlns="http://www.w3.org/2000/svg" version="1.1" width="508" height="512">
  <defs/>
  <g>
    <path d="M 294.5110168457031 7.924905300140381 C 175.31361389160156 159.70394897460938 371.8782653808594 20.094772338867188 435.2444763183594 203.31228637695312 C 102.35254669189453 247.63201904296875 111.08908081054688 210.16285705566406 5.532850742340088 172.34616088867188 C 5.041120529174805 -56.78279495239258 5.517829895019531 25.582969665527344 5.230167388916016 7.891478538513184 C 165.2396697998047 7.890913963317871 176.28558349609375 7.906177997589111 294.5110168457031 7.924905300140381" stroke-width="0.0" fill="rgb(89, 98, 88)" opacity="0.3839747" stroke="rgb(111, 73, 72)" stroke-opacity="0.29985738" stroke-linecap="round" stroke-linejoin="round"/>
    <path d="M 480.69073486328125 83.53361511230469 C 536.222412109375 373.8385314941406 507.42877197265625 345.6304626464844 179.97122192382812 313.2375183105469 C 254.96363830566406 36.4493408203125 328.1998291015625 117.88075256347656 302.6715393066406 49.377906799316406 C 254.37257385253906 7.192209243774414 204.2234649658203 173.8489532470703 87.73687744140625 10.108587265014648 C 431.5257263183594 -11.467617988586426 196.8147430419922 122.9469985961914 480.69073486328125 83.53361511230469" stroke-width="0.0" fill="rgb(155, 164, 164)" opacity="1.0" stroke="rgb(194, 11, 39)" stroke-opacity="0.025216106" stroke-linecap="round" stroke-linejoin="round"/>
    <path d="M 502.1372375488281 173.09559631347656 C 357.4000244140625 17.04558753967285 408.4046325683594 62.469886779785156 356.6974182128906 86.63123321533203 C 321.4061584472656 98.27165222167969 333.3710021972656 46.91999816894531 216.5796356201172 8.607887268066406 C 288.34771728515625 7.673769474029541 293.51922607421875 8.021831512451172 502.4050598144531 7.927624702453613 C 502.19451904296875 9.80980396270752 502.51568603515625 108.33106994628906 502.1372375488281 173.09559631347656" stroke-width="0.0" fill="rgb(121, 161, 164)" opacity="0.8394219" stroke="rgb(32, 230, 13)" stroke-opacity="0.20473954" stroke-linecap="round" stroke-linejoin="round"/>
    <path d="M 366.0114440917969 275.77886962890625 C 288.9093322753906 303.15582275390625 344.2322082519531 249.7837371826172 366.37017822265625 301.07281494140625 C 303.52044677734375 266.5425109863281 307.0538635253906 406.04888916015625 311.4224853515625 281.4723205566406 C 272.61712646484375 278.0501403808594 319.00933837890625 264.4132080078125 330.3679504394531 226.62857055664062 C 324.30682373046875 297.6464538574219 358.4457092285156 254.55596923828125 366.0114440917969 275.77886962890625" stroke-width="0.0" fill="rgb(255, 249, 231)" opacity="0.88896954" stroke="rgb(225, 139, 19)" stroke-opacity="0.62207425" stroke-linecap="round" stroke-linejoin="round"/>
    <path d="M 153.55838012695312 168.73910522460938 C 153.30880737304688 216.05648803710938 153.6826171875 228.4230194091797 153.7242431640625 251.73741149902344 C 121.88502502441406 251.69891357421875 128.25697326660156 251.07876586914062 127.4826889038086 255.0819091796875 C 127.886474609375 172.22772216796875 127.47682189941406 161.9132843017578 127.77392578125 150.3156280517578 C 164.467529296875 152.12355041503906 152.70249938964844 143.46484375 153.55838012695312 168.73910522460938" stroke-width="0.0" fill="rgb(50, 57, 77)" opacity="1.0" stroke="rgb(8, 126, 232)" stroke-opacity="0.4005716" stroke-linecap="round" stroke-linejoin="round"/>
    <path d="M 374.0769348144531 307.5008239746094 C 369.3446044921875 389.1768493652344 396.2766418457031 365.603271484375 313.7774963378906 369.9651184082031 C 290.5875549316406 372.9496154785156 320.5268249511719 345.09527587890625 290.96429443359375 351.6490783691406 C 286.184814453125 188.2151641845703 303.84637451171875 227.03387451171875 310.4692687988281 353.2162170410156 C 385.642333984375 325.577880859375 366.50128173828125 266.7852783203125 374.0769348144531 307.5008239746094" stroke-width="0.0" fill="rgb(48, 59, 80)" opacity="0.9078182" stroke="rgb(221, 31, 106)" stroke-opacity="0.7651842" stroke-linecap="round" stroke-linejoin="round"/>
    <path d="M 376.8625793457031 247.63296508789062 C 305.16357421875 214.1589813232422 337.5008850097656 243.3663787841797 315.3364562988281 253.04736328125 C 312.0050354003906 180.65847778320312 314.68194580078125 311.0990295410156 231.65130615234375 178.85919189453125 C 335.71490478515625 279.3157043457031 308.85516357421875 115.83260345458984 322.30340576171875 202.8524169921875 C 383.5378112792969 203.0799560546875 376.9017028808594 207.2256317138672 376.8625793457031 247.63296508789062" stroke-width="0.0" fill="rgb(255, 236, 217)" opacity="0.7832578" stroke="rgb(207, 164, 228)" stroke-opacity="0.2958349" stroke-linecap="round" stroke-linejoin="round"/>
    <path d="M 153.0 412.0 C 152.3301239013672 414.5 150.5 416.33013916015625 148.0 417.0 C 145.5 416.33013916015625 143.6698760986328 414.5 143.0 412.0 C 143.6698760986328 409.5 145.5 407.66986083984375 148.0 407.0 C 150.5 407.66986083984375 152.3301239013672 409.5 153.0 412.0" stroke-width="0.0" fill="rgb(41, 43, 63)" opacity="1.0" stroke="rgb(97, 246, 52)" stroke-opacity="0.960442" stroke-linecap="round" stroke-linejoin="round"/>
    <path d="M 48.0 191.0 C 47.33012771606445 193.5 45.5 195.3301239013672 43.0 196.0 C 40.5 195.3301239013672 38.66987228393555 193.5 38.0 191.0 C 38.66987228393555 188.5 40.5 186.6698760986328 43.0 186.0 C 45.5 186.6698760986328 47.33012771606445 188.5 48.0 191.0" stroke-width="0.0" fill="rgb(226, 185, 159)" opacity="1.0" stroke="rgb(128, 80, 87)" stroke-opacity="0.027228057" stroke-linecap="round" stroke-linejoin="round"/>
    <path d="M 94.0 482.0 C 93.33012390136719 484.5 91.5 486.33013916015625 89.0 487.0 C 86.5 486.33013916015625 84.66987609863281 484.5 84.0 482.0 C 84.66987609863281 479.5 86.5 477.66986083984375 89.0 477.0 C 91.5 477.66986083984375 93.33012390136719 479.5 94.0 482.0" stroke-width="0.0" fill="rgb(81, 124, 146)" opacity="1.0" stroke="rgb(148, 231, 253)" stroke-opacity="0.8373891" stroke-linecap="round" stroke-linejoin="round"/>
    <path d="M 64.0 207.0 C 63.33012771606445 209.5 61.5 211.3301239013672 59.0 212.0 C 56.5 211.3301239013672 54.66987228393555 209.5 54.0 207.0 C 54.66987228393555 204.5 56.5 202.6698760986328 59.0 202.0 C 61.5 202.6698760986328 63.33012771606445 204.5 64.0 207.0" stroke-width="0.0" fill="rgb(225, 185, 159)" opacity="1.0" stroke="rgb(175, 30, 65)" stroke-opacity="0.12611479" stroke-linecap="round" stroke-linejoin="round"/>
    <path d="M 30.0 290.0 C 29.330127716064453 292.5 27.5 294.33013916015625 25.0 295.0 C 22.5 294.33013916015625 20.669872283935547 292.5 20.0 290.0 C 20.669872283935547 287.5 22.5 285.66986083984375 25.0 285.0 C 27.5 285.66986083984375 29.330127716064453 287.5 30.0 290.0" stroke-width="0.0" fill="rgb(228, 184, 160)" opacity="1.0" stroke="rgb(197, 152, 216)" stroke-opacity="0.012623639" stroke-linecap="round" stroke-linejoin="round"/>
    <path d="M 41.0 448.0 C 40.33012771606445 450.5 38.5 452.33013916015625 36.0 453.0 C 33.5 452.33013916015625 31.669872283935547 450.5 31.0 448.0 C 31.669872283935547 445.5 33.5 443.66986083984375 36.0 443.0 C 38.5 443.66986083984375 40.33012771606445 445.5 41.0 448.0" stroke-width="0.0" fill="rgb(152, 184, 185)" opacity="1.0" stroke="rgb(203, 243, 105)" stroke-opacity="0.65378577" stroke-linecap="round" stroke-linejoin="round"/>
    <path d="M 416.0 224.0 C 415.33013916015625 226.5 413.5 228.3301239013672 411.0 229.0 C 408.5 228.3301239013672 406.66986083984375 226.5 406.0 224.0 C 406.66986083984375 221.5 408.5 219.6698760986328 411.0 219.0 C 413.5 219.6698760986328 415.33013916015625 221.5 416.0 224.0" stroke-width="0.0" fill="rgb(43, 47, 66)" opacity="1.0" stroke="rgb(113, 253, 223)" stroke-opacity="0.18252671" stroke-linecap="round" stroke-linejoin="round"/>
    <path d="M 20.0 277.0 C 19.330127716064453 279.5 17.5 281.33013916015625 15.0 282.0 C 12.5 281.33013916015625 10.669873237609863 279.5 10.0 277.0 C 10.669873237609863 274.5 12.5 272.66986083984375 15.0 272.0 C 17.5 272.66986083984375 19.330127716064453 274.5 20.0 277.0" stroke-width="0.0" fill="rgb(228, 184, 160)" opacity="1.0" stroke="rgb(109, 242, 34)" stroke-opacity="0.7519534" stroke-linecap="round" stroke-linejoin="round"/>
  </g>
</svg>
