<?xml version="1.0" ?>
<svg xmlns="http://www.w3.org/2000/svg" version="1.1" width="508" height="512">
  <defs/>
  <g>
    <path d="M 299.1455078125 7.96128511428833 C 162.9428253173828 172.4712371826172 362.9803161621094 3.4349236488342285 435.12969970703125 201.12098693847656 C 102.57140350341797 243.97108459472656 109.1264419555664 206.66195678710938 5.698302745819092 172.19764709472656 C 5.540373802185059 -56.78041458129883 5.7560272216796875 25.586240768432617 5.513886451721191 8.010699272155762 C 165.2407989501953 7.966486930847168 176.26104736328125 8.111518859863281 299.1455078125 7.96128511428833" stroke-width="0.0" fill="rgb(88, 101, 88)" opacity="0.38390958" stroke="rgb(111, 73, 72)" stroke-opacity="0.29985738" stroke-linecap="round" stroke-linejoin="round"/>
    <path d="M 475.0898742675781 91.46387481689453 C 540.1981811523438 359.80584716796875 507.0412292480469 330.0765380859375 197.85304260253906 296.3448791503906 C 231.34913635253906 50.74545669555664 329.6968078613281 118.28978729248047 303.87066650390625 51.7279167175293 C 268.47735595703125 9.038299560546875 190.64561462402344 137.62814331054688 126.05968475341797 10.728663444519043 C 378.0489807128906 -10.65229320526123 219.72796630859375 105.85762786865234 475.0898742675781 91.46387481689453" stroke-width="0.0" fill="rgb(155, 164, 160)" opacity="0.89579755" stroke="rgb(194, 11, 39)" stroke-opacity="0.025216106" stroke-linecap="round" stroke-linejoin="round"/>
    <path d="M 501.9924621582031 172.48446655273438 C 360.61053466796875 17.672927856445312 404.8538513183594 62.306427001953125 358.1859436035156 84.88197326660156 C 336.8065490722656 88.39266204833984 319.0250244140625 61.237892150878906 245.0520477294922 8.894575119018555 C 288.8242492675781 7.5282158851623535 293.6943054199219 8.487571716308594 502.2454833984375 7.996822357177734 C 502.0885009765625 9.944550514221191 502.43804931640625 108.21375274658203 501.9924621582031 172.48446655273438" stroke-width="0.0" fill="rgb(117, 159, 162)" opacity="0.7760806" stroke="rgb(32, 230, 13)" stroke-opacity="0.20473954" stroke-linecap="round" stroke-linejoin="round"/>
    <path d="M 331.0 276.0 C 330.33013916015625 278.5 328.5 280.33013916015625 326.0 281.0 C 323.5 280.33013916015625 321.66986083984375 278.5 321.0 276.0 C 321.66986083984375 273.5 323.5 271.66986083984375 326.0 271.0 C 328.5 271.66986083984375 330.33013916015625 273.5 331.0 276.0" stroke-width="0.0" fill="rgb(254, 246, 225)" opacity="1.0" stroke="rgb(225, 139, 19)" stroke-opacity="0.62207425" stroke-linecap="round" stroke-linejoin="round"/>
    <path d="M 146.0 194.0 C 145.3301239013672 196.5 143.5 198.3301239013672 141.0 199.0 C 138.5 198.3301239013672 136.6698760986328 196.5 136.0 194.0 C 136.6698760986328 191.5 138.5 189.6698760986328 141.0 189.0 C 143.5 189.6698760986328 145.3301239013672 191.5 146.0 194.0" stroke-width="0.0" fill="rgb(48, 48, 65)" opacity="1.0" stroke="rgb(8, 126, 232)" stroke-opacity="0.4005716" stroke-linecap="round" stroke-linejoin="round"/>
    <path d="M 337.0 359.0 C 336.33013916015625 361.5 334.5 363.33013916015625 332.0 364.0 C 329.5 363.33013916015625 327.66986083984375 361.5 327.0 359.0 C 327.66986083984375 356.5 329.5 354.66986083984375 332.0 354.0 C 334.5 354.66986083984375 336.33013916015625 356.5 337.0 359.0" stroke-width="0.0" fill="rgb(44, 47, 65)" opacity="1.0" stroke="rgb(221, 31, 106)" stroke-opacity="0.7651842" stroke-linecap="round" stroke-linejoin="round"/>
    <path d="M 323.0 221.0 C 322.33013916015625 223.5 320.5 225.3301239013672 318.0 226.0 C 315.5 225.3301239013672 313.66986083984375 223.5 313.0 221.0 C 313.66986083984375 218.5 315.5 216.6698760986328 318.0 216.0 C 320.5 216.6698760986328 322.33013916015625 218.5 323.0 221.0" stroke-width="0.0" fill="rgb(253, 247, 232)" opacity="1.0" stroke="rgb(207, 164, 228)" stroke-opacity="0.2958349" stroke-linecap="round" stroke-linejoin="round"/>
  </g>
</svg>
