<?xml version="1.0" ?>
<svg xmlns="http://www.w3.org/2000/svg" version="1.1" width="412" height="512">
  <defs/>
  <g>
    <path d="M 0.0 0.0 L 412.0 0.0 L 412.0 512.0 L 0.0 512.0 L 0.0 0.0" stroke-width="0.0" fill="rgb(255, 255, 255)" opacity="1.0" stroke="rgb(0, 0, 0)" stroke-opacity="0.0" stroke-linecap="round" stroke-linejoin="round"/>
    <path d="M 148.0 0.0 C 112.41925811767578 13.01014232635498 70.34818267822266 48.201873779296875 54.0 86.0 C 30.46293067932129 144.0 34.186038970947266 202.0 78.0 260.0 C 84.81159210205078 265.5279846191406 90.17981719970703 274.592041015625 96.0 277.0 C 95.91364288330078 279.6666564941406 93.23409271240234 282.3333435058594 96.0 285.0 L 128.0 307.0 C 133.0999755859375 311.0 126.90001678466797 315.0 132.0 319.0 C 190.0742645263672 347.9895935058594 245.05642700195312 395.1013488769531 303.0 449.0 C 285.39349365234375 417.47723388671875 257.4221496582031 382.8102722167969 231.0 358.0 C 231.3204803466797 352.19110107421875 219.9520263671875 351.47796630859375 223.0 344.0 C 200.2738037109375 329.5434875488281 220.8319549560547 307.6589660644531 220.0 290.0 C 222.62962341308594 288.2419738769531 220.7870330810547 284.12469482421875 224.0 284.0 C 234.2797393798828 295.81353759765625 247.2723846435547 303.24609375 260.0 316.0 C 268.3333435058594 320.1809387207031 276.6666564941406 307.36212158203125 285.0 308.0 C 297.8729248046875 314.31622314453125 306.5107421875 329.8915100097656 319.0 333.0 C 312.1214599609375 323.34259033203125 297.559326171875 312.76422119140625 291.0 303.0 C 326.666748046875 276.3357238769531 352.4112548828125 237.71395874023438 361.0 205.0 C 373.7050476074219 150.3333282470703 367.8054504394531 95.66666412353516 323.0 41.0 C 304.0 20.68086051940918 285.0 12.036677360534668 266.0 2.0 C 227.0 -2.5944457054138184 188.0 1.2799122333526611 148.0 0.0" stroke-width="2.0" fill="rgb(161, 123, 105)" opacity="1.0" stroke="rgb(0, 0, 0)" stroke-opacity="0.0" stroke-linecap="round" stroke-linejoin="round"/>
    <path d="M 2.0 303.0 L 2.0 511.0 L 410.0 511.0 C 407.9707946777344 497.3333435058594 411.89569091796875 483.6666564941406 408.0 470.0 L 301.0 433.0 L 297.0 434.0 L 311.0 453.0 C 311.59844970703125 454.7720642089844 310.59844970703125 458.0078430175781 308.0 457.0 C 252.64553833007812 404.99432373046875 191.03907775878906 351.06512451171875 129.0 320.0 C 125.27005767822266 316.6666564941406 128.57981872558594 313.3333435058594 126.0 310.0 L 87.0 283.0 C 71.66666412353516 280.4758605957031 56.33333206176758 277.726318359375 41.0 278.0 C 28.89653968811035 288.89056396484375 16.273405075073242 298.37994384765625 2.0 303.0" stroke-width="2.0" fill="rgb(25, 15, 38)" opacity="1.0" stroke="rgb(0, 0, 0)" stroke-opacity="0.0" stroke-linecap="round" stroke-linejoin="round"/>
    <path d="M 190.0 56.0 C 166.04501342773438 60.899410247802734 130.34117126464844 94.07591247558594 130.0 119.0 L 122.0 119.0 C 132.84133911132812 125.63834381103516 124.00665283203125 135.780517578125 128.0 144.0 C 134.3333282470703 151.01327514648438 140.6666717529297 154.30224609375 147.0 157.0 C 145.56002807617188 193.0 132.3987579345703 229.0 122.0 265.0 C 119.13111114501953 276.832763671875 99.93194580078125 254.85791015625 105.0 268.0 C 101.02973937988281 271.9778137207031 92.94679260253906 278.54852294921875 94.0 284.0 L 128.0 307.0 C 133.0999755859375 311.0 126.90001678466797 315.0 132.0 319.0 C 161.3333282470703 331.31011962890625 190.6666717529297 354.8470764160156 220.0 376.0 C 248.4361114501953 398.4485778808594 275.5939025878906 423.821533203125 303.0 448.0 C 283.4874267578125 415.5224609375 254.5913848876953 380.86529541015625 222.0 350.0 C 223.52401733398438 343.8260192871094 219.30960083007812 346.26416015625 215.0 342.0 L 211.0 330.0 C 214.83917236328125 310.0 221.50758361816406 290.0 223.0 270.0 C 226.3333282470703 264.7003479003906 229.6666717529297 269.2996520996094 233.0 264.0 C 237.61703491210938 256.2418518066406 230.744873046875 246.1248779296875 242.0 240.0 C 255.3333282470703 243.44171142578125 268.6666564941406 261.0417175292969 282.0 249.0 C 278.99542236328125 242.6666717529297 280.769775390625 236.3333282470703 288.0 230.0 C 289.7955322265625 227.0 285.2227783203125 224.0 284.0 221.0 L 295.0 210.0 C 286.79150390625 198.48141479492188 308.5673522949219 197.6753692626953 308.0 188.0 C 306.4524230957031 183.3333282470703 302.2479553222656 178.6666717529297 303.0 174.0 C 322.2272644042969 160.6666717529297 316.3680725097656 147.3333282470703 316.0 134.0 C 312.622802734375 111.0982894897461 295.892822265625 80.26995849609375 268.0 65.0 C 242.3333282470703 52.0416145324707 216.6666717529297 48.39531326293945 190.0 56.0" stroke-width="2.0" fill="rgb(90, 35, 51)" opacity="1.0" stroke="rgb(0, 0, 0)" stroke-opacity="0.0" stroke-linecap="round" stroke-linejoin="round"/>
    <path d="M 268.0 0.0 C 310.1723327636719 16.490995407104492 350.0911560058594 63.44769287109375 361.0 103.0 C 376.3791198730469 159.0 372.5677490234375 215.0 329.0 271.0 C 319.0512390136719 280.95391845703125 310.6765441894531 290.7786865234375 300.0 297.0 C 297.3876647949219 299.3333435058594 294.99566650390625 301.6666564941406 296.0 304.0 C 327.81280517578125 335.4275207519531 357.7308349609375 360.4767761230469 390.0 391.0 C 389.8528747558594 393.4804382324219 387.4804382324219 395.8528747558594 385.0 396.0 C 387.1212158203125 397.2073974609375 393.5126953125 406.3423767089844 386.0 409.0 C 389.47412109375 412.4380798339844 387.39666748046875 416.18218994140625 383.0 417.0 C 383.4471130371094 422.6786804199219 384.8779296875 433.2238464355469 377.0 433.0 C 379.67218017578125 439.93414306640625 369.1648864746094 439.6658935546875 370.0 445.0 L 355.0 448.0 L 409.0 467.0 L 410.0 0.0 L 268.0 0.0" stroke-width="2.0" fill="rgb(33, 31, 59)" opacity="1.0" stroke="rgb(0, 0, 0)" stroke-opacity="0.0" stroke-linecap="round" stroke-linejoin="round"/>
    <path d="M 143.0 0.0 L 1.0 0.0 L 1.0 299.0 C 15.333333015441895 299.54815673828125 29.66666603088379 279.8558044433594 44.0 274.0 C 59.33333206176758 273.7251281738281 74.66666412353516 281.4239807128906 90.0 278.0 C 84.43959045410156 267.0631103515625 67.63460540771484 252.5282745361328 61.0 240.0 C 27.919300079345703 176.0 26.728992462158203 112.0 76.0 48.0 C 98.0 24.163328170776367 120.0 9.506545066833496 143.0 0.0" stroke-width="2.0" fill="rgb(34, 30, 58)" opacity="1.0" stroke="rgb(0, 0, 0)" stroke-opacity="0.0" stroke-linecap="round" stroke-linejoin="round"/>
    <path d="M 300.0 434.0 C 302.05999755859375 440.5751953125 308.34210205078125 446.6203308105469 312.0 452.0 L 303.0 511.0 L 411.0 511.0 L 410.0 471.0 C 373.6666564941406 457.70892333984375 337.3333435058594 444.63287353515625 300.0 434.0" stroke-width="2.0" fill="rgb(24, 15, 39)" opacity="1.0" stroke="rgb(0, 0, 0)" stroke-opacity="0.0" stroke-linecap="round" stroke-linejoin="round"/>
    <path d="M 130.0 311.0 C 129.04714965820312 323.41339111328125 149.45254516601562 325.16339111328125 158.0 332.0 C 191.6666717529297 354.4106140136719 225.3333282470703 381.1233825683594 259.0 408.0 C 275.2880554199219 422.345458984375 287.9794616699219 435.70489501953125 302.0 447.0 C 284.49725341796875 414.422119140625 242.7747802734375 366.482421875 208.0 340.0 C 212.3394317626953 321.6666564941406 215.4327392578125 303.3333435058594 221.0 285.0 C 218.39990234375 278.23358154296875 228.1155242919922 270.27197265625 218.0 265.0 C 207.34059143066406 281.73699951171875 215.46621704101562 304.1589660644531 196.0 319.0 C 189.3333282470703 317.1336669921875 182.6666717529297 310.1038513183594 176.0 309.0 C 174.94815063476562 312.0 182.7164764404297 315.0 177.0 318.0 C 169.6666717529297 319.6741943359375 162.3333282470703 310.0183410644531 155.0 309.0 L 130.0 311.0" stroke-width="2.0" fill="rgb(175, 41, 70)" opacity="1.0" stroke="rgb(0, 0, 0)" stroke-opacity="0.0" stroke-linecap="round" stroke-linejoin="round"/>
    <path d="M 169.0 102.0 C 165.1889190673828 113.03535461425781 180.46340942382812 123.57860565185547 190.0 124.0 L 208.0 125.0 C 205.53627014160156 128.9491424560547 193.24337768554688 132.67626953125 200.0 135.0 C 215.73248291015625 133.71180725097656 238.11289978027344 140.38050842285156 249.0 119.0 C 249.92868041992188 112.65474700927734 245.473876953125 104.82024383544922 238.0 100.0 C 229.0 94.95354461669922 220.0 99.5709228515625 211.0 95.0 C 213.1827392578125 91.07997131347656 223.4796600341797 88.76256561279297 218.0 86.0 C 202.59848022460938 87.71086120605469 182.0927276611328 81.0634536743164 169.0 102.0" stroke-width="2.0" fill="rgb(231, 130, 62)" opacity="1.0" stroke="rgb(0, 0, 0)" stroke-opacity="0.0" stroke-linecap="round" stroke-linejoin="round"/>
    <path d="M 92.0 282.0 C 102.00485229492188 292.2647705078125 116.32969665527344 299.386474609375 128.0 308.0 C 141.3333282470703 310.6782531738281 154.6666717529297 302.07269287109375 168.0 315.0 L 177.0 317.0 C 176.7599334716797 311.6666564941406 169.65708923339844 306.3333435058594 167.0 301.0 C 147.3333282470703 287.1479187011719 127.66666412353516 273.76519775390625 108.0 264.0 C 102.2884521484375 261.5920715332031 102.67876434326172 264.4653015136719 104.0 269.0 L 92.0 282.0" stroke-width="2.0" fill="rgb(56, 25, 51)" opacity="1.0" stroke="rgb(0, 0, 0)" stroke-opacity="0.0" stroke-linecap="round" stroke-linejoin="round"/>
    <path d="M 177.0 251.0 L 169.0 301.0 L 196.0 318.0 C 209.05067443847656 307.1307678222656 208.24351501464844 289.9465637207031 211.0 276.0 L 177.0 251.0" stroke-width="2.0" fill="rgb(129, 29, 58)" opacity="1.0" stroke="rgb(0, 0, 0)" stroke-opacity="0.0" stroke-linecap="round" stroke-linejoin="round"/>
    <path d="M 255.0 72.0 C 253.1605682373047 67.33333587646484 250.1812286376953 62.66666793823242 250.0 58.0 C 220.3333282470703 46.961605072021484 190.6666717529297 51.50035858154297 161.0 70.0 L 152.0 80.0 C 170.3333282470703 67.82329559326172 188.6666717529297 68.83446502685547 207.0 69.0 C 223.0 67.47758483886719 239.0 85.60462951660156 255.0 80.0 L 255.0 72.0" stroke-width="2.0" fill="rgb(98, 29, 53)" opacity="1.0" stroke="rgb(0, 0, 0)" stroke-opacity="0.0" stroke-linecap="round" stroke-linejoin="round"/>
    <path d="M 233.0 160.0 L 232.0 179.0 C 244.83880615234375 187.93746948242188 254.09400939941406 198.64495849609375 252.0 210.0 C 256.2595520019531 214.51394653320312 258.99395751953125 217.69053649902344 264.0 219.0 C 266.9854431152344 206.3333282470703 269.58270263671875 193.6666717529297 269.0 181.0 C 257.3333435058594 174.78921508789062 245.6666717529297 158.6679229736328 233.0 160.0" stroke-width="2.0" fill="rgb(26, 15, 37)" opacity="1.0" stroke="rgb(0, 0, 0)" stroke-opacity="0.0" stroke-linecap="round" stroke-linejoin="round"/>
    <path d="M 178.0 245.0 L 178.0 250.0 L 211.0 274.0 C 214.54254150390625 271.1786193847656 214.8449249267578 254.90628051757812 224.0 267.0 L 232.0 265.0 L 204.0 237.0 C 195.99266052246094 237.9824981689453 185.34312438964844 237.09521484375 178.0 245.0" stroke-width="2.0" fill="rgb(27, 14, 37)" opacity="1.0" stroke="rgb(0, 0, 0)" stroke-opacity="0.0" stroke-linecap="round" stroke-linejoin="round"/>
    <path d="M 92.0 281.0 L 93.0 285.0 L 128.0 308.0 L 152.0 307.0 L 105.0 269.0 L 92.0 281.0" stroke-width="2.0" fill="rgb(59, 20, 51)" opacity="1.0" stroke="rgb(0, 0, 0)" stroke-opacity="0.0" stroke-linecap="round" stroke-linejoin="round"/>
    <path d="M 163.0 135.0 C 160.4429931640625 146.3938751220703 177.33482360839844 142.59695434570312 184.0 147.0 C 179.0020294189453 160.14096069335938 196.23387145996094 180.00372314453125 210.0 165.0 C 210.67530822753906 157.3333282470703 215.39073181152344 149.6666717529297 205.0 142.0 C 198.3333282470703 137.9651641845703 191.6666717529297 144.4948272705078 185.0 143.0 C 178.58905029296875 139.40310668945312 182.3972930908203 131.81951904296875 175.0 130.0 C 171.3333282470703 129.138916015625 167.6666717529297 131.104248046875 163.0 135.0" stroke-width="2.0" fill="rgb(159, 129, 121)" opacity="1.0" stroke="rgb(0, 0, 0)" stroke-opacity="0.0" stroke-linecap="round" stroke-linejoin="round"/>
    <path d="M 280.0 135.0 C 278.5567321777344 141.54051208496094 275.62713623046875 146.3837127685547 270.0 152.0 C 281.0295715332031 157.56552124023438 288.8623046875 175.50819396972656 298.0 173.0 C 302.535888671875 168.32940673828125 311.7207946777344 164.14425659179688 313.0 158.0 L 280.0 135.0" stroke-width="2.0" fill="rgb(55, 30, 55)" opacity="1.0" stroke="rgb(0, 0, 0)" stroke-opacity="0.0" stroke-linecap="round" stroke-linejoin="round"/>
    <path d="M 285.0 307.0 L 327.0 345.0 L 387.0 392.0 L 292.0 304.0 L 285.0 307.0" stroke-width="2.0" fill="rgb(191, 175, 147)" opacity="1.0" stroke="rgb(0, 0, 0)" stroke-opacity="0.0" stroke-linecap="round" stroke-linejoin="round"/>
    <path d="M 186.0 145.0 C 179.7366180419922 156.3180389404297 190.04432678222656 173.50758361816406 204.0 169.0 C 217.74819946289062 162.85089111328125 211.35818481445312 137.07139587402344 195.0 141.0 L 186.0 145.0" stroke-width="2.0" fill="rgb(168, 166, 145)" opacity="1.0" stroke="rgb(0, 0, 0)" stroke-opacity="0.0" stroke-linecap="round" stroke-linejoin="round"/>
    <path d="M 281.0 176.0 L 281.0 201.0 C 290.8392639160156 206.4595947265625 297.893798828125 197.3070068359375 308.0 191.0 C 307.42205810546875 176.4195098876953 292.9509582519531 171.86456298828125 281.0 176.0" stroke-width="2.0" fill="rgb(107, 28, 54)" opacity="1.0" stroke="rgb(0, 0, 0)" stroke-opacity="0.0" stroke-linecap="round" stroke-linejoin="round"/>
    <path d="M 206.0 237.0 L 232.0 264.0 C 236.76316833496094 259.0 234.9688262939453 254.0 233.0 249.0 C 239.4720001220703 243.54852294921875 241.02992248535156 236.9778289794922 232.0 233.0 C 223.6666717529297 237.69351196289062 215.3333282470703 237.3804168701172 206.0 237.0" stroke-width="2.0" fill="rgb(124, 31, 58)" opacity="1.0" stroke="rgb(0, 0, 0)" stroke-opacity="0.0" stroke-linecap="round" stroke-linejoin="round"/>
    <path d="M 248.0 228.0 C 251.01869201660156 236.1077117919922 266.07745361328125 241.22523498535156 274.0 249.0 C 286.9702453613281 255.48440551757812 277.0827941894531 241.1731414794922 281.0 236.0 C 270.3333435058594 229.1573028564453 259.6666564941406 226.54190063476562 248.0 228.0" stroke-width="2.0" fill="rgb(154, 36, 57)" opacity="1.0" stroke="rgb(0, 0, 0)" stroke-opacity="0.0" stroke-linecap="round" stroke-linejoin="round"/>
    <path d="M 240.0 235.0 C 245.06655883789062 245.84925842285156 262.0447998046875 247.6951141357422 272.0 254.0 C 274.0 253.77207946777344 276.0 255.00784301757812 278.0 252.0 L 247.0 231.0 C 245.24197387695312 230.12757873535156 241.12469482421875 232.53909301757812 240.0 235.0" stroke-width="2.0" fill="rgb(29, 14, 34)" opacity="1.0" stroke="rgb(0, 0, 0)" stroke-opacity="0.0" stroke-linecap="round" stroke-linejoin="round"/>
    <path d="M 210.0 164.0 C 218.39102172851562 176.36065673828125 235.2906494140625 183.77554321289062 247.0 197.0 C 249.3324737548828 202.6666717529297 245.49368286132812 208.3333282470703 250.0 214.0 C 258.3333435058594 220.1282196044922 266.6666564941406 227.99658203125 275.0 232.0 C 268.9894104003906 222.9654083251953 258.6745910644531 219.4995574951172 251.0 211.0 L 249.0 195.0 L 210.0 164.0" stroke-width="2.0" fill="rgb(101, 82, 94)" opacity="1.0" stroke="rgb(0, 0, 0)" stroke-opacity="0.0" stroke-linecap="round" stroke-linejoin="round"/>
    <path d="M 162.0 135.0 C 160.8347930908203 146.0991668701172 176.37899780273438 144.1481170654297 183.0 146.0 C 179.88377380371094 138.00613403320312 182.26438903808594 127.76524353027344 171.0 130.0 C 168.3333282470703 133.9429473876953 165.6666717529297 132.59674072265625 162.0 135.0" stroke-width="2.0" fill="rgb(156, 49, 72)" opacity="1.0" stroke="rgb(0, 0, 0)" stroke-opacity="0.0" stroke-linecap="round" stroke-linejoin="round"/>
    <path d="M 134.0 105.0 C 142.67276000976562 109.47988891601562 155.66209411621094 121.69721984863281 166.0 131.0 C 167.3333282470703 131.18954467773438 168.6666717529297 132.6339874267578 170.0 130.0 C 158.3333282470703 123.35871124267578 146.6666717529297 106.91032409667969 134.0 105.0" stroke-width="2.0" fill="rgb(125, 112, 112)" opacity="1.0" stroke="rgb(0, 0, 0)" stroke-opacity="0.0" stroke-linecap="round" stroke-linejoin="round"/>
    <path d="M 158.0 307.0 C 162.68162536621094 311.5867004394531 171.6554718017578 318.39111328125 178.0 317.0 C 175.20477294921875 309.0872497558594 164.99575805664062 307.67376708984375 158.0 307.0" stroke-width="2.0" fill="rgb(55, 15, 38)" opacity="1.0" stroke="rgb(0, 0, 0)" stroke-opacity="0.0" stroke-linecap="round" stroke-linejoin="round"/>
    <path d="M 387.0 385.0 C 384.5464782714844 387.98895263671875 386.8016662597656 394.4347229003906 385.0 399.0 C 393.73291015625 403.2899475097656 392.94677734375 384.6913146972656 387.0 385.0" stroke-width="2.0" fill="rgb(34, 32, 55)" opacity="1.0" stroke="rgb(0, 0, 0)" stroke-opacity="0.0" stroke-linecap="round" stroke-linejoin="round"/>
  </g>
</svg>
