<?xml version="1.0" ?>
<svg xmlns="http://www.w3.org/2000/svg" version="1.1" width="384" height="512">
  <defs/>
  <g>
    <path d="M 141.30198669433594 134.1542510986328 C 163.47044372558594 155.09536743164062 159.22950744628906 176.35470581054688 118.92426300048828 154.52064514160156 C 119.8890151977539 193.87783813476562 120.41162109375 126.24291229248047 101.14735412597656 122.35274505615234 C 103.13609313964844 108.33462524414062 114.64070892333984 114.74282836914062 123.11290740966797 123.87683868408203 C 146.85816955566406 95.21405029296875 203.2080078125 146.8428192138672 141.30198669433594 134.1542510986328" stroke-width="0.0" fill="rgb(6, 50, 91)" opacity="0.6471274" stroke="rgb(71, 146, 93)" stroke-opacity="0.5771828" stroke-linecap="round" stroke-linejoin="round"/>
    <path d="M 84.45410919189453 332.80352783203125 C 90.53221893310547 347.6866455078125 77.2607650756836 405.6707763671875 65.40522766113281 400.1966857910156 C 62.63257598876953 357.22003173828125 63.1143913269043 342.6888427734375 65.35772705078125 251.70802307128906 C 64.82350158691406 239.49053955078125 78.77994537353516 235.84657287597656 77.32748413085938 293.01416015625 C 77.98912048339844 347.1026611328125 75.03730010986328 330.0248718261719 84.45410919189453 332.80352783203125" stroke-width="0.0" fill="rgb(251, 230, 175)" opacity="0.78574663" stroke="rgb(63, 195, 97)" stroke-opacity="0.42143154" stroke-linecap="round" stroke-linejoin="round"/>
    <path d="M 150.78509521484375 148.40628051757812 C 142.44911193847656 141.90087890625 150.225341796875 163.16067504882812 144.8404083251953 163.84219360351562 C 109.75794219970703 156.53741455078125 119.13935089111328 171.6813201904297 117.91224670410156 155.60659790039062 C 122.17340850830078 128.7559814453125 111.23710632324219 138.49989318847656 127.93983459472656 135.54702758789062 C 154.63525390625 137.1662139892578 148.3026123046875 130.27133178710938 150.78509521484375 148.40628051757812" stroke-width="0.0" fill="rgb(169, 167, 169)" opacity="1.0" stroke="rgb(201, 150, 183)" stroke-opacity="0.45119232" stroke-linecap="round" stroke-linejoin="round"/>
    <path d="M 393.2294616699219 138.86627197265625 C 394.0490417480469 156.47227478027344 393.33013916015625 146.65731811523438 368.3561706542969 145.451171875 C 355.9924621582031 140.14981079101562 339.329833984375 142.0198211669922 268.8893127441406 117.99495697021484 C 296.96710205078125 81.0191650390625 310.4951477050781 81.72017669677734 335.32586669921875 76.25484466552734 C 402.09368896484375 110.63797760009766 395.5753173828125 117.66271209716797 393.2294616699219 138.86627197265625" stroke-width="0.0" fill="rgb(255, 179, 94)" opacity="0.73684525" stroke="rgb(142, 16, 166)" stroke-opacity="0.4215746" stroke-linecap="round" stroke-linejoin="round"/>
    <path d="M 383.9781188964844 411.1207580566406 C 344.73077392578125 432.2764587402344 347.78424072265625 408.25 270.51629638671875 345.91595458984375 C 260.11688232421875 177.5581512451172 321.5912780761719 260.974853515625 294.25115966796875 215.4536590576172 C 293.2954406738281 209.57106018066406 294.2132873535156 190.38999938964844 310.8691101074219 228.02220153808594 C 400.325927734375 231.8160858154297 400.7254943847656 176.35040283203125 383.9781188964844 411.1207580566406" stroke-width="0.0" fill="rgb(92, 58, 0)" opacity="0.6210839" stroke="rgb(103, 99, 143)" stroke-opacity="0.5971091" stroke-linecap="round" stroke-linejoin="round"/>
    <path d="M 392.0393371582031 45.81037139892578 C 398.8536071777344 137.67250061035156 363.8385009765625 139.25900268554688 265.3663330078125 122.40668487548828 C 177.2220458984375 153.52159118652344 247.690673828125 118.12706756591797 189.05142211914062 73.48554229736328 C 188.00071716308594 14.565917015075684 214.63491821289062 21.561260223388672 313.58984375 2.90592622756958 C 339.8052673339844 -6.165935516357422 331.1548156738281 -2.1540939807891846 392.0393371582031 45.81037139892578" stroke-width="0.0" fill="rgb(255, 209, 149)" opacity="0.45725834" stroke="rgb(10, 111, 55)" stroke-opacity="0.30950674" stroke-linecap="round" stroke-linejoin="round"/>
    <path d="M 400.6095275878906 476.2823181152344 C 347.5996398925781 609.281982421875 291.5749206542969 528.4308471679688 253.80751037597656 520.7056884765625 C 206.82015991210938 529.0455322265625 176.17572021484375 562.70703125 153.9723663330078 511.3008728027344 C 230.04763793945312 396.736328125 214.08694458007812 469.870849609375 165.05384826660156 327.8805236816406 C 344.32318115234375 363.3289794921875 318.2864685058594 480.6241149902344 400.6095275878906 476.2823181152344" stroke-width="0.0" fill="rgb(36, 66, 109)" opacity="0.38089183" stroke="rgb(201, 245, 232)" stroke-opacity="0.9338618" stroke-linecap="round" stroke-linejoin="round"/>
    <path d="M 345.55059814453125 214.48231506347656 C 356.91607666015625 242.64524841308594 353.4937438964844 256.4569091796875 324.03741455078125 256.53546142578125 C 320.1338806152344 249.76351928710938 316.5286560058594 240.5579376220703 307.11181640625 223.413818359375 C 296.1183166503906 224.94375610351562 297.15521240234375 172.17532348632812 331.03411865234375 187.2596893310547 C 377.75421142578125 191.5019989013672 368.05303955078125 194.9785614013672 345.55059814453125 214.48231506347656" stroke-width="0.0" fill="rgb(79, 115, 171)" opacity="0.71397287" stroke="rgb(205, 178, 231)" stroke-opacity="0.057520628" stroke-linecap="round" stroke-linejoin="round"/>
    <path d="M 204.62420654296875 143.92730712890625 C 203.307373046875 187.49008178710938 208.82733154296875 193.54930114746094 200.20729064941406 190.4770965576172 C 200.45924377441406 176.30369567871094 199.598876953125 150.26748657226562 200.58737182617188 146.16464233398438 C 203.66036987304688 146.12290954589844 183.82943725585938 147.2679901123047 205.11587524414062 147.67913818359375 C 205.50726318359375 152.1739044189453 206.1549530029297 121.46974182128906 204.62420654296875 143.92730712890625" stroke-width="0.0" fill="rgb(255, 240, 180)" opacity="0.8289466" stroke="rgb(66, 150, 39)" stroke-opacity="0.47470483" stroke-linecap="round" stroke-linejoin="round"/>
    <path d="M 75.357421875 20.77105140686035 C 48.679927825927734 118.2466049194336 37.939170837402344 115.52793884277344 22.53074073791504 17.5497989654541 C -4.221084117889404 9.542057037353516 21.49224090576172 8.577816009521484 -2.224195957183838 3.8786964416503906 C -4.804506301879883 -10.535782814025879 1.1239465475082397 -9.75493049621582 14.318422317504883 -12.428069114685059 C 39.2800178527832 -13.82698917388916 48.219276428222656 -20.939651489257812 75.357421875 20.77105140686035" stroke-width="0.0" fill="rgb(0, 67, 100)" opacity="0.32867905" stroke="rgb(236, 141, 50)" stroke-opacity="0.7282711" stroke-linecap="round" stroke-linejoin="round"/>
    <path d="M 395.6529235839844 295.39874267578125 C 397.33978271484375 315.6496887207031 391.7251892089844 310.4963073730469 339.81695556640625 326.6120910644531 C 338.1639099121094 275.818359375 344.4132995605469 270.32293701171875 357.7257080078125 273.6725158691406 C 311.1452331542969 256.4350280761719 316.93682861328125 259.4595947265625 381.2231140136719 244.44760131835938 C 396.9087219238281 245.4114532470703 396.2739562988281 251.2234649658203 395.6529235839844 295.39874267578125" stroke-width="0.0" fill="rgb(46, 65, 93)" opacity="0.6622594" stroke="rgb(91, 159, 12)" stroke-opacity="0.8467285" stroke-linecap="round" stroke-linejoin="round"/>
    <path d="M 377.6667785644531 218.62864685058594 C 378.1376037597656 260.0343322753906 377.74237060546875 263.4934997558594 360.1897277832031 279.1194763183594 C 329.8748474121094 255.965087890625 318.6186828613281 247.2089080810547 303.8182678222656 213.9513397216797 C 316.814208984375 209.11172485351562 324.2458801269531 205.11453247070312 329.5174255371094 204.9065704345703 C 351.7673034667969 222.3682403564453 365.5679626464844 211.5582733154297 377.6667785644531 218.62864685058594" stroke-width="0.0" fill="rgb(68, 109, 170)" opacity="0.6640121" stroke="rgb(226, 1, 69)" stroke-opacity="0.34889534" stroke-linecap="round" stroke-linejoin="round"/>
    <path d="M 303.4200134277344 171.4334716796875 C 300.8571472167969 231.07546997070312 319.3172912597656 240.05813598632812 312.2856750488281 229.73968505859375 C 321.1548767089844 215.01063537597656 290.60296630859375 231.16021728515625 303.00555419921875 213.87754821777344 C 239.93563842773438 153.8582305908203 208.41061401367188 184.06536865234375 225.39654541015625 135.3532257080078 C 425.4208984375 162.80831909179688 431.87091064453125 170.7589111328125 303.4200134277344 171.4334716796875" stroke-width="0.0" fill="rgb(74, 76, 142)" opacity="0.3717365" stroke="rgb(232, 126, 45)" stroke-opacity="0.6007244" stroke-linecap="round" stroke-linejoin="round"/>
    <path d="M 403.3952941894531 197.90066528320312 C 387.5872802734375 227.8164825439453 387.30303955078125 230.36582946777344 380.2232360839844 243.83543395996094 C 375.6064453125 222.41976928710938 365.2862854003906 223.91078186035156 356.03753662109375 197.95545959472656 C 297.1769714355469 210.07925415039062 274.1235046386719 171.50625610351562 302.8336181640625 176.97662353515625 C 421.2473449707031 177.82855224609375 408.3616638183594 172.80059814453125 403.3952941894531 197.90066528320312" stroke-width="0.0" fill="rgb(145, 147, 213)" opacity="0.36583117" stroke="rgb(89, 146, 170)" stroke-opacity="0.45369476" stroke-linecap="round" stroke-linejoin="round"/>
    <path d="M 393.77105712890625 241.37350463867188 C 396.16326904296875 254.5744171142578 399.61968994140625 261.6451416015625 377.73822021484375 262.5997619628906 C 348.0025329589844 249.26473999023438 345.2724304199219 245.24070739746094 346.4781799316406 230.7597198486328 C 359.41107177734375 209.7251434326172 363.4493103027344 204.75799560546875 355.3921203613281 200.66949462890625 C 388.6455383300781 192.7416534423828 385.26849365234375 209.54290771484375 393.77105712890625 241.37350463867188" stroke-width="0.0" fill="rgb(79, 111, 164)" opacity="0.84708893" stroke="rgb(175, 122, 134)" stroke-opacity="0.5951132" stroke-linecap="round" stroke-linejoin="round"/>
  </g>
</svg>
