<?xml version="1.0" ?>
<svg xmlns="http://www.w3.org/2000/svg" version="1.1" width="512" height="320">
  <defs/>
  <g>
    <path d="M 0.0 0.0 L 512.0 0.0 L 512.0 320.0 L 0.0 320.0 L 0.0 0.0" stroke-width="0.0" fill="rgb(255, 255, 255)" opacity="1.0" stroke="rgb(0, 0, 0)" stroke-opacity="0.0" stroke-linecap="round" stroke-linejoin="round"/>
    <path d="M 0.0 2.0 L 0.0 319.0 L 511.0 319.0 L 511.0 2.0 L 0.0 2.0" stroke-width="2.0" fill="rgb(255, 255, 255)" opacity="1.0" stroke="rgb(0, 0, 0)" stroke-opacity="0.0" stroke-linecap="round" stroke-linejoin="round"/>
    <path d="M 204.0 122.0 C 175.3333282470703 104.94874572753906 146.6666717529297 128.70823669433594 118.0 115.0 C 65.0510482788086 132.4842071533203 77.37918853759766 207.5213165283203 122.0 236.0 C 142.3333282470703 230.30648803710938 162.6666717529297 229.17739868164062 183.0 236.0 C 199.98768615722656 229.88681030273438 211.94680786132812 207.7978057861328 215.0 194.0 C 189.4817352294922 178.38369750976562 185.92718505859375 150.5389862060547 210.0 130.0 C 211.02674865722656 127.66666412353516 206.88992309570312 125.33333587646484 204.0 122.0" stroke-width="2.0" fill="rgb(0, 0, 0)" opacity="1.0" stroke="rgb(0, 0, 0)" stroke-opacity="0.0" stroke-linecap="round" stroke-linejoin="round"/>
    <path d="M 302.0 117.0 C 297.3304748535156 127.66666412353516 296.80010986328125 138.3333282470703 307.0 149.0 C 297.1288757324219 152.75222778320312 283.7055358886719 139.64219665527344 288.0 158.0 C 286.84869384765625 172.76548767089844 319.24615478515625 178.57176208496094 303.0 187.0 C 320.34625244140625 213.28709411621094 343.68609619140625 180.77780151367188 362.0 171.0 C 375.9027099609375 182.88821411132812 405.427490234375 214.8157958984375 419.0 184.0 C 405.1897277832031 179.76637268066406 433.8058166503906 171.56881713867188 433.0 161.0 C 439.2490539550781 143.1037139892578 426.0389099121094 146.8018341064453 414.0 151.0 C 425.28253173828125 137.0 427.2993469238281 123.0 413.0 109.0 C 401.60491943359375 113.15170288085938 396.78399658203125 133.51333618164062 388.0 136.0 C 396.92279052734375 121.64700317382812 397.52203369140625 83.8824462890625 370.0 91.0 C 364.786376953125 103.33333587646484 364.7434997558594 115.66666412353516 362.0 128.0 C 354.1723937988281 116.80859375 359.77923583984375 76.4419937133789 335.0 93.0 C 320.00177001953125 107.66666412353516 332.6042785644531 122.33333587646484 333.0 137.0 C 324.5726013183594 133.99398803710938 315.20458984375 98.37006378173828 302.0 117.0" stroke-width="2.0" fill="rgb(193, 57, 75)" opacity="1.0" stroke="rgb(0, 0, 0)" stroke-opacity="0.0" stroke-linecap="round" stroke-linejoin="round"/>
    <path d="M 287.0 214.0 C 288.5408630371094 221.7864990234375 281.37890625 244.90225219726562 297.0 235.0 C 343.3333435058594 240.93505859375 389.6666564941406 236.5626678466797 436.0 237.0 C 435.99853515625 229.0 435.9704895019531 221.0 434.0 213.0 L 287.0 214.0" stroke-width="2.0" fill="rgb(140, 140, 140)" opacity="1.0" stroke="rgb(0, 0, 0)" stroke-opacity="0.0" stroke-linecap="round" stroke-linejoin="round"/>
    <path d="M 349.0 88.0 C 308.66851806640625 97.92233276367188 337.2648010253906 142.3883056640625 356.0 168.0 C 358.50244140625 141.6666717529297 360.6163635253906 115.33333587646484 349.0 88.0" stroke-width="2.0" fill="rgb(185, 23, 43)" opacity="1.0" stroke="rgb(0, 0, 0)" stroke-opacity="0.0" stroke-linecap="round" stroke-linejoin="round"/>
    <path d="M 373.0 88.0 C 359.8165588378906 114.66666412353516 363.5521545410156 141.3333282470703 366.0 168.0 C 382.35064697265625 143.2883758544922 413.24072265625 100.79292297363281 373.0 88.0" stroke-width="2.0" fill="rgb(185, 22, 42)" opacity="1.0" stroke="rgb(0, 0, 0)" stroke-opacity="0.0" stroke-linecap="round" stroke-linejoin="round"/>
    <path d="M 309.0 109.0 C 277.8868103027344 137.42129516601562 326.4373779296875 162.31381225585938 349.0 172.0 C 339.5103454589844 151.3321075439453 325.7769775390625 128.0016326904297 309.0 109.0" stroke-width="2.0" fill="rgb(185, 23, 42)" opacity="1.0" stroke="rgb(0, 0, 0)" stroke-opacity="0.0" stroke-linecap="round" stroke-linejoin="round"/>
    <path d="M 413.0 109.0 C 396.2466735839844 125.6886215209961 382.1205749511719 150.98367309570312 374.0 171.0 C 395.57147216796875 162.74847412109375 442.5450439453125 136.802734375 413.0 109.0" stroke-width="2.0" fill="rgb(184, 23, 43)" opacity="1.0" stroke="rgb(0, 0, 0)" stroke-opacity="0.0" stroke-linecap="round" stroke-linejoin="round"/>
    <path d="M 433.0 146.0 C 414.6651306152344 155.58145141601562 393.668701171875 165.74325561523438 377.0 179.0 C 396.53173828125 182.2347869873047 438.6384582519531 179.8851776123047 433.0 146.0" stroke-width="2.0" fill="rgb(181, 24, 46)" opacity="1.0" stroke="rgb(0, 0, 0)" stroke-opacity="0.0" stroke-linecap="round" stroke-linejoin="round"/>
    <path d="M 289.0 146.0 C 281.7771301269531 179.20777893066406 325.5075378417969 182.5334014892578 345.0 179.0 C 328.66455078125 166.00889587402344 308.0015869140625 157.3812255859375 289.0 146.0" stroke-width="2.0" fill="rgb(184, 23, 44)" opacity="1.0" stroke="rgb(0, 0, 0)" stroke-opacity="0.0" stroke-linecap="round" stroke-linejoin="round"/>
    <path d="M 179.0 78.0 C 160.84213256835938 76.35234832763672 135.412353515625 119.8201675415039 159.0 114.0 C 173.46173095703125 106.94677734375 180.8081817626953 90.62149047851562 179.0 78.0" stroke-width="2.0" fill="rgb(5, 5, 5)" opacity="1.0" stroke="rgb(0, 0, 0)" stroke-opacity="0.0" stroke-linecap="round" stroke-linejoin="round"/>
    <path d="M 365.0 213.0 C 368.77960205078125 219.625244140625 367.8814697265625 237.46058654785156 377.0 236.0 L 382.0 222.0 C 388.56939697265625 248.32327270507812 396.6534423828125 228.7052459716797 400.0 213.0 C 392.22003173828125 211.88967895507812 394.7674560546875 223.9102783203125 390.0 229.0 C 386.2555847167969 210.91952514648438 378.5233154296875 210.91952514648438 375.0 229.0 C 370.5873718261719 226.14967346191406 373.11859130859375 214.24075317382812 365.0 213.0" stroke-width="2.0" fill="rgb(20, 20, 20)" opacity="1.0" stroke="rgb(0, 0, 0)" stroke-opacity="0.0" stroke-linecap="round" stroke-linejoin="round"/>
    <path d="M 377.0 184.0 C 390.830322265625 194.4125213623047 406.7740783691406 205.97105407714844 419.0 187.0 C 409.2856140136719 183.11801147460938 391.0353698730469 184.67724609375 377.0 184.0" stroke-width="2.0" fill="rgb(175, 24, 46)" opacity="1.0" stroke="rgb(0, 0, 0)" stroke-opacity="0.0" stroke-linecap="round" stroke-linejoin="round"/>
    <path d="M 345.0 184.0 L 302.0 186.0 C 314.2259216308594 205.57757568359375 330.169677734375 194.69381713867188 345.0 184.0" stroke-width="2.0" fill="rgb(173, 23, 45)" opacity="1.0" stroke="rgb(0, 0, 0)" stroke-opacity="0.0" stroke-linecap="round" stroke-linejoin="round"/>
    <path d="M 351.0 213.0 C 348.6537780761719 219.03359985351562 334.103515625 245.81626892089844 348.0 232.0 C 355.5726013183594 229.08644104003906 358.9378356933594 236.1811981201172 365.0 237.0 C 360.1567687988281 229.57431030273438 359.59185791015625 217.125732421875 351.0 213.0" stroke-width="2.0" fill="rgb(41, 41, 41)" opacity="1.0" stroke="rgb(0, 0, 0)" stroke-opacity="0.0" stroke-linecap="round" stroke-linejoin="round"/>
    <path d="M 288.0 213.0 C 286.4079284667969 223.01589965820312 289.4209289550781 249.83074951171875 293.0 227.0 C 305.7496032714844 221.78378295898438 301.3268127441406 236.45086669921875 308.0 237.0 C 309.32611083984375 227.5903778076172 307.157470703125 200.57260131835938 303.0 223.0 C 290.4707946777344 228.0172119140625 293.97711181640625 215.93275451660156 288.0 213.0" stroke-width="2.0" fill="rgb(12, 12, 12)" opacity="1.0" stroke="rgb(0, 0, 0)" stroke-opacity="0.0" stroke-linecap="round" stroke-linejoin="round"/>
    <path d="M 406.0 213.0 C 404.78765869140625 227.87899780273438 403.59161376953125 242.74171447753906 423.0 237.0 C 419.6065979003906 232.1693115234375 399.8012390136719 229.64163208007812 419.0 226.0 C 411.72833251953125 222.57339477539062 406.42144775390625 214.81768798828125 422.0 217.0 C 424.22222900390625 209.3638458251953 411.221923828125 214.48361206054688 406.0 213.0" stroke-width="2.0" fill="rgb(32, 32, 32)" opacity="1.0" stroke="rgb(0, 0, 0)" stroke-opacity="0.0" stroke-linecap="round" stroke-linejoin="round"/>
    <path d="M 317.0 213.0 C 304.525146484375 241.46971130371094 346.8858642578125 243.4376983642578 337.0 214.0 C 327.60400390625 209.98040771484375 338.26708984375 242.2144317626953 321.0 231.0 C 319.9366149902344 225.51612854003906 321.7283935546875 215.20635986328125 317.0 213.0" stroke-width="2.0" fill="rgb(26, 26, 26)" opacity="1.0" stroke="rgb(0, 0, 0)" stroke-opacity="0.0" stroke-linecap="round" stroke-linejoin="round"/>
    <path d="M 449.0 184.0 C 448.9610595703125 191.79388427734375 442.84112548828125 209.7605743408203 455.0 207.0 C 450.7212829589844 198.0819549560547 465.59356689453125 182.24903869628906 449.0 184.0" stroke-width="2.0" fill="rgb(252, 252, 252)" opacity="1.0" stroke="rgb(0, 0, 0)" stroke-opacity="0.0" stroke-linecap="round" stroke-linejoin="round"/>
    <path d="M 337.0 252.0 C 329.93829345703125 272.8722229003906 347.98309326171875 275.1257019042969 343.0 253.0 L 337.0 252.0" stroke-width="2.0" fill="rgb(252, 252, 252)" opacity="1.0" stroke="rgb(0, 0, 0)" stroke-opacity="0.0" stroke-linecap="round" stroke-linejoin="round"/>
    <path d="M 430.0 213.0 C 432.0477600097656 220.28558349609375 425.53094482421875 236.13571166992188 434.0 237.0 C 432.29132080078125 229.70867919921875 437.59820556640625 215.4018096923828 430.0 213.0" stroke-width="2.0" fill="rgb(5, 5, 5)" opacity="1.0" stroke="rgb(0, 0, 0)" stroke-opacity="0.0" stroke-linecap="round" stroke-linejoin="round"/>
  </g>
</svg>
