<?xml version="1.0" ?>
<svg xmlns="http://www.w3.org/2000/svg" version="1.1" width="508" height="512">
  <defs/>
  <g>
    <path d="M 393.4737854003906 7.996693134307861 C 185.04954528808594 77.0920181274414 297.00958251953125 7.444162845611572 233.67623901367188 179.26797485351562 C 55.00009536743164 293.9020080566406 217.0051727294922 261.5006103515625 5.7706379890441895 168.88189697265625 C 5.584283828735352 -60.863826751708984 5.6897873878479 27.302404403686523 5.563994884490967 8.022921562194824 C 166.15750122070312 8.123817443847656 178.80404663085938 8.061914443969727 393.4737854003906 7.996693134307861" stroke-width="0.0" fill="rgb(38, 86, 99)" opacity="0.4761272" stroke="rgb(67, 120, 236)" stroke-opacity="0.18485513" stroke-linecap="round" stroke-linejoin="round"/>
    <path d="M 500.3812561035156 161.8712158203125 C 502.84246826171875 342.5943298339844 541.8639526367188 346.9623107910156 96.99857330322266 329.7869873046875 C 142.93365478515625 26.194149017333984 317.9717712402344 129.28236389160156 306.8876037597656 67.89024353027344 C 311.5746765136719 32.49750900268555 248.72581481933594 47.673580169677734 299.3889465332031 38.142391204833984 C 336.3511047363281 152.80523681640625 447.83673095703125 20.72430992126465 500.3812561035156 161.8712158203125" stroke-width="0.0" fill="rgb(79, 82, 87)" opacity="0.3675932" stroke="rgb(115, 233, 49)" stroke-opacity="0.20424166" stroke-linecap="round" stroke-linejoin="round"/>
    <path d="M 502.1590576171875 164.60585021972656 C 363.3939208984375 33.864654541015625 410.6811828613281 51.90418243408203 358.23406982421875 85.63765716552734 C 335.4288330078125 107.14344024658203 317.0262451171875 67.63545989990234 268.9437255859375 12.589360237121582 C 300.3682861328125 6.106953144073486 305.4632568359375 8.537736892700195 502.41650390625 8.072407722473145 C 502.1060791015625 14.400337219238281 502.3171691894531 -32.4692497253418 502.1590576171875 164.60585021972656" stroke-width="0.0" fill="rgb(131, 167, 170)" opacity="0.8844313" stroke="rgb(40, 207, 78)" stroke-opacity="0.51973474" stroke-linecap="round" stroke-linejoin="round"/>
    <path d="M 371.3712158203125 276.16119384765625 C 305.2965393066406 281.0469970703125 312.7304382324219 285.2013244628906 369.5570068359375 284.0802307128906 C 241.52662658691406 343.59210205078125 337.40814208984375 306.53814697265625 304.8894348144531 276.15771484375 C 275.0773010253906 138.8675079345703 321.9643249511719 326.57220458984375 313.91375732421875 229.0284423828125 C 355.76300048828125 221.15310668945312 294.4359130859375 266.426513671875 371.3712158203125 276.16119384765625" stroke-width="0.0" fill="rgb(255, 250, 232)" opacity="0.85142225" stroke="rgb(227, 81, 56)" stroke-opacity="0.9346501" stroke-linecap="round" stroke-linejoin="round"/>
    <path d="M 376.7237548828125 249.7194366455078 C 340.2283630371094 209.73350524902344 367.3114929199219 245.21542358398438 345.0927734375 248.0714874267578 C 329.60748291015625 271.009033203125 345.4102478027344 229.7162322998047 332.53814697265625 230.9487762451172 C 225.57095336914062 238.37850952148438 221.71432495117188 231.67799377441406 334.3262634277344 200.41043090820312 C 377.8876953125 229.74754333496094 378.55084228515625 183.32681274414062 376.7237548828125 249.7194366455078" stroke-width="0.0" fill="rgb(255, 245, 228)" opacity="0.8829846" stroke="rgb(225, 186, 61)" stroke-opacity="0.9791398" stroke-linecap="round" stroke-linejoin="round"/>
    <path d="M 169.31887817382812 294.0248107910156 C 73.8792724609375 283.43536376953125 189.1256103515625 293.5403137207031 159.38247680664062 267.564453125 C 102.34677124023438 243.81942749023438 165.23643493652344 339.31005859375 103.27566528320312 287.4169616699219 C 134.82676696777344 231.54095458984375 89.77640533447266 260.933837890625 188.46389770507812 249.0706024169922 C 160.17405700683594 250.7030487060547 171.29640197753906 242.24998474121094 169.31887817382812 294.0248107910156" stroke-width="0.0" fill="rgb(255, 249, 232)" opacity="0.93378276" stroke="rgb(59, 48, 99)" stroke-opacity="0.08912784" stroke-linecap="round" stroke-linejoin="round"/>
    <path d="M 374.2161865234375 369.2972412109375 C 366.0389404296875 369.29296875 351.13580322265625 369.3605651855469 303.6859130859375 369.40887451171875 C 293.79791259765625 401.7712707519531 330.9654846191406 301.9385681152344 289.0754089355469 237.37599182128906 C 300.9058532714844 387.22552490234375 257.74822998046875 344.0276184082031 364.5958251953125 351.29376220703125 C 363.0748596191406 270.57598876953125 374.9219665527344 228.6374969482422 374.2161865234375 369.2972412109375" stroke-width="0.0" fill="rgb(54, 61, 81)" opacity="1.0" stroke="rgb(66, 126, 60)" stroke-opacity="0.07902328" stroke-linecap="round" stroke-linejoin="round"/>
    <path d="M 119.227783203125 298.86517333984375 C 58.859004974365234 303.1200256347656 25.964818954467773 301.56298828125 36.31128692626953 306.24151611328125 C -0.036067016422748566 330.39154052734375 6.533979415893555 334.25 5.706131935119629 252.47653198242188 C 4.8947978019714355 257.8194885253906 2.5872161388397217 259.1250305175781 38.700469970703125 258.56085205078125 C 78.83826446533203 257.5096435546875 81.44906616210938 253.44354248046875 119.227783203125 298.86517333984375" stroke-width="0.0" fill="rgb(230, 75, 15)" opacity="0.30870205" stroke="rgb(92, 59, 212)" stroke-opacity="0.50154555" stroke-linecap="round" stroke-linejoin="round"/>
    <path d="M 127.32191467285156 158.62652587890625 C 124.85814666748047 280.2977600097656 138.0756378173828 258.7384033203125 94.28446197509766 246.4739990234375 C 49.370723724365234 221.9899444580078 42.95038604736328 217.07412719726562 35.52577209472656 198.90443420410156 C 9.489601135253906 164.88693237304688 -18.15831184387207 161.4705047607422 41.48482894897461 163.800537109375 C 106.53076934814453 161.7119903564453 123.58694458007812 162.3383331298828 127.32191467285156 158.62652587890625" stroke-width="0.0" fill="rgb(245, 242, 228)" opacity="1.0" stroke="rgb(41, 34, 15)" stroke-opacity="0.6276863" stroke-linecap="round" stroke-linejoin="round"/>
    <path d="M 253.03585815429688 355.8765869140625 C 231.8345947265625 416.0419921875 294.21331787109375 466.3772888183594 232.15821838378906 421.43218994140625 C 169.29745483398438 420.2148742675781 166.88247680664062 424.589599609375 2.957693576812744 423.1637268066406 C 51.6168098449707 330.6151123046875 86.50519561767578 417.90264892578125 204.18605041503906 398.29986572265625 C 160.18490600585938 268.2355041503906 324.1213073730469 321.27984619140625 253.03585815429688 355.8765869140625" stroke-width="0.0" fill="rgb(86, 104, 120)" opacity="0.9663078" stroke="rgb(151, 227, 226)" stroke-opacity="0.9581098" stroke-linecap="round" stroke-linejoin="round"/>
    <path d="M 97.50537872314453 272.6270751953125 C 58.93354797363281 259.01873779296875 52.51821517944336 200.9384307861328 25.689096450805664 248.58387756347656 C 0.6330578923225403 262.2527770996094 6.665678977966309 268.60943603515625 5.594624042510986 220.27842712402344 C 7.065268516540527 155.77403259277344 -1.2174326181411743 176.70518493652344 30.07435417175293 172.23263549804688 C 87.40792846679688 174.5208282470703 103.48226165771484 154.58639526367188 97.50537872314453 272.6270751953125" stroke-width="0.0" fill="rgb(235, 97, 39)" opacity="0.33115658" stroke="rgb(251, 142, 112)" stroke-opacity="0.8719731" stroke-linecap="round" stroke-linejoin="round"/>
    <path d="M 20.46830177307129 311.54852294921875 C 41.05537796020508 304.9641418457031 33.91147232055664 303.1133117675781 35.77770233154297 342.3677062988281 C -3.8212478160858154 338.5196533203125 7.451606273651123 355.3802490234375 5.455635070800781 308.51312255859375 C 39.470863342285156 312.0923156738281 17.678712844848633 271.770263671875 21.70053482055664 276.847900390625 C 19.642648696899414 289.42156982421875 22.177406311035156 273.9630432128906 20.46830177307129 311.54852294921875" stroke-width="0.0" fill="rgb(33, 119, 160)" opacity="0.670732" stroke="rgb(1, 151, 248)" stroke-opacity="0.16250825" stroke-linecap="round" stroke-linejoin="round"/>
    <path d="M 501.2427978515625 501.22515869140625 C 387.7630615234375 506.3484191894531 414.3116149902344 504.66729736328125 144.6737518310547 505.0477294921875 C 107.61331176757812 494.85015869140625 82.73143768310547 543.6387939453125 93.25799560546875 432.2149658203125 C 234.39974975585938 466.7563781738281 221.3838348388672 399.4197998046875 290.88275146484375 389.2471923828125 C 522.6806640625 357.30621337890625 506.16412353515625 256.9486083984375 501.2427978515625 501.22515869140625" stroke-width="0.0" fill="rgb(89, 118, 133)" opacity="0.7931654" stroke="rgb(32, 195, 144)" stroke-opacity="0.993289" stroke-linecap="round" stroke-linejoin="round"/>
    <path d="M 129.0732421875 166.6642608642578 C 53.16617202758789 234.7346954345703 37.5046501159668 222.45558166503906 13.059627532958984 242.6712646484375 C 2.638787031173706 235.57839965820312 8.088459968566895 236.42138671875 6.2846903800964355 188.4360809326172 C 9.340307235717773 156.13731384277344 -7.960381984710693 162.98004150390625 43.86764907836914 162.6960906982422 C 91.28072357177734 159.92845153808594 102.55902099609375 168.05990600585938 129.0732421875 166.6642608642578" stroke-width="0.0" fill="rgb(212, 182, 163)" opacity="0.7364114" stroke="rgb(131, 64, 184)" stroke-opacity="0.11268463" stroke-linecap="round" stroke-linejoin="round"/>
    <path d="M 145.61102294921875 383.4557189941406 C 67.00811004638672 433.0491943359375 92.03636169433594 377.2618408203125 86.84341430664062 302.54583740234375 C 24.803142547607422 304.2879943847656 75.54370880126953 303.83001708984375 49.96259689331055 276.9734191894531 C 22.920045852661133 276.0427551269531 24.560182571411133 276.404052734375 53.847198486328125 280.4174499511719 C 49.42401123046875 273.56732177734375 133.40235900878906 240.7676544189453 145.61102294921875 383.4557189941406" stroke-width="0.0" fill="rgb(61, 122, 153)" opacity="0.6563881" stroke="rgb(172, 178, 102)" stroke-opacity="0.085812464" stroke-linecap="round" stroke-linejoin="round"/>
    <path d="M 443.0 425.0 C 442.33013916015625 427.5 440.5 429.33013916015625 438.0 430.0 C 435.5 429.33013916015625 433.66986083984375 427.5 433.0 425.0 C 433.66986083984375 422.5 435.5 420.66986083984375 438.0 420.0 C 440.5 420.66986083984375 442.33013916015625 422.5 443.0 425.0" stroke-width="0.0" fill="rgb(38, 39, 58)" opacity="1.0" stroke="rgb(178, 101, 231)" stroke-opacity="0.2893465" stroke-linecap="round" stroke-linejoin="round"/>
    <path d="M 144.0 213.0 C 143.3301239013672 215.5 141.5 217.3301239013672 139.0 218.0 C 136.5 217.3301239013672 134.6698760986328 215.5 134.0 213.0 C 134.6698760986328 210.5 136.5 208.6698760986328 139.0 208.0 C 141.5 208.6698760986328 143.3301239013672 210.5 144.0 213.0" stroke-width="0.0" fill="rgb(47, 49, 68)" opacity="1.0" stroke="rgb(220, 112, 1)" stroke-opacity="0.3278554" stroke-linecap="round" stroke-linejoin="round"/>
    <path d="M 81.0 414.0 C 80.33012390136719 416.5 78.5 418.33013916015625 76.0 419.0 C 73.5 418.33013916015625 71.66987609863281 416.5 71.0 414.0 C 71.66987609863281 411.5 73.5 409.66986083984375 76.0 409.0 C 78.5 409.66986083984375 80.33012390136719 411.5 81.0 414.0" stroke-width="0.0" fill="rgb(38, 39, 60)" opacity="1.0" stroke="rgb(1, 218, 39)" stroke-opacity="0.3746213" stroke-linecap="round" stroke-linejoin="round"/>
    <path d="M 279.0 257.0 C 278.33013916015625 259.5 276.5 261.33013916015625 274.0 262.0 C 271.5 261.33013916015625 269.66986083984375 259.5 269.0 257.0 C 269.66986083984375 254.5 271.5 252.6698760986328 274.0 252.0 C 276.5 252.6698760986328 278.33013916015625 254.5 279.0 257.0" stroke-width="0.0" fill="rgb(253, 244, 224)" opacity="1.0" stroke="rgb(93, 102, 171)" stroke-opacity="0.032208826" stroke-linecap="round" stroke-linejoin="round"/>
    <path d="M 357.0 435.0 C 356.33013916015625 437.5 354.5 439.33013916015625 352.0 440.0 C 349.5 439.33013916015625 347.66986083984375 437.5 347.0 435.0 C 347.66986083984375 432.5 349.5 430.66986083984375 352.0 430.0 C 354.5 430.66986083984375 356.33013916015625 432.5 357.0 435.0" stroke-width="0.0" fill="rgb(253, 241, 225)" opacity="1.0" stroke="rgb(63, 120, 87)" stroke-opacity="0.47868872" stroke-linecap="round" stroke-linejoin="round"/>
    <path d="M 410.0 225.0 C 409.33013916015625 227.5 407.5 229.3301239013672 405.0 230.0 C 402.5 229.3301239013672 400.66986083984375 227.5 400.0 225.0 C 400.66986083984375 222.5 402.5 220.6698760986328 405.0 220.0 C 407.5 220.6698760986328 409.33013916015625 222.5 410.0 225.0" stroke-width="0.0" fill="rgb(43, 46, 65)" opacity="1.0" stroke="rgb(150, 10, 177)" stroke-opacity="0.2360537" stroke-linecap="round" stroke-linejoin="round"/>
    <path d="M 169.0 222.0 C 168.3301239013672 224.5 166.5 226.3301239013672 164.0 227.0 C 161.5 226.3301239013672 159.6698760986328 224.5 159.0 222.0 C 159.6698760986328 219.5 161.5 217.6698760986328 164.0 217.0 C 166.5 217.6698760986328 168.3301239013672 219.5 169.0 222.0" stroke-width="0.0" fill="rgb(230, 189, 166)" opacity="1.0" stroke="rgb(54, 212, 35)" stroke-opacity="0.65173703" stroke-linecap="round" stroke-linejoin="round"/>
    <path d="M 437.0 270.0 C 436.33013916015625 272.5 434.5 274.33013916015625 432.0 275.0 C 429.5 274.33013916015625 427.66986083984375 272.5 427.0 270.0 C 427.66986083984375 267.5 429.5 265.66986083984375 432.0 265.0 C 434.5 265.66986083984375 436.33013916015625 267.5 437.0 270.0" stroke-width="0.0" fill="rgb(253, 247, 230)" opacity="1.0" stroke="rgb(63, 96, 150)" stroke-opacity="0.023848712" stroke-linecap="round" stroke-linejoin="round"/>
    <path d="M 306.0 395.0 C 305.33013916015625 397.5 303.5 399.33013916015625 301.0 400.0 C 298.5 399.33013916015625 296.66986083984375 397.5 296.0 395.0 C 296.66986083984375 392.5 298.5 390.66986083984375 301.0 390.0 C 303.5 390.66986083984375 305.33013916015625 392.5 306.0 395.0" stroke-width="0.0" fill="rgb(253, 249, 233)" opacity="1.0" stroke="rgb(105, 40, 21)" stroke-opacity="0.72319067" stroke-linecap="round" stroke-linejoin="round"/>
    <path d="M 165.0 414.0 C 164.3301239013672 416.5 162.5 418.33013916015625 160.0 419.0 C 157.5 418.33013916015625 155.6698760986328 416.5 155.0 414.0 C 155.6698760986328 411.5 157.5 409.66986083984375 160.0 409.0 C 162.5 409.66986083984375 164.3301239013672 411.5 165.0 414.0" stroke-width="0.0" fill="rgb(41, 43, 62)" opacity="1.0" stroke="rgb(199, 17, 34)" stroke-opacity="0.058350466" stroke-linecap="round" stroke-linejoin="round"/>
    <path d="M 277.0 269.0 C 276.33013916015625 271.5 274.5 273.33013916015625 272.0 274.0 C 269.5 273.33013916015625 267.66986083984375 271.5 267.0 269.0 C 267.66986083984375 266.5 269.5 264.66986083984375 272.0 264.0 C 274.5 264.66986083984375 276.33013916015625 266.5 277.0 269.0" stroke-width="0.0" fill="rgb(254, 242, 223)" opacity="1.0" stroke="rgb(28, 151, 205)" stroke-opacity="0.20668499" stroke-linecap="round" stroke-linejoin="round"/>
    <path d="M 40.0 447.0 C 39.33012771606445 449.5 37.5 451.33013916015625 35.0 452.0 C 32.5 451.33013916015625 30.669872283935547 449.5 30.0 447.0 C 30.669872283935547 444.5 32.5 442.66986083984375 35.0 442.0 C 37.5 442.66986083984375 39.33012771606445 444.5 40.0 447.0" stroke-width="0.0" fill="rgb(151, 185, 185)" opacity="1.0" stroke="rgb(126, 74, 150)" stroke-opacity="0.4311886" stroke-linecap="round" stroke-linejoin="round"/>
    <path d="M 210.0 408.0 C 209.3301239013672 410.5 207.5 412.33013916015625 205.0 413.0 C 202.5 412.33013916015625 200.6698760986328 410.5 200.0 408.0 C 200.6698760986328 405.5 202.5 403.66986083984375 205.0 403.0 C 207.5 403.66986083984375 209.3301239013672 405.5 210.0 408.0" stroke-width="0.0" fill="rgb(44, 46, 64)" opacity="1.0" stroke="rgb(64, 99, 80)" stroke-opacity="0.8672947" stroke-linecap="round" stroke-linejoin="round"/>
    <path d="M 368.0 393.0 C 367.33013916015625 395.5 365.5 397.33013916015625 363.0 398.0 C 360.5 397.33013916015625 358.66986083984375 395.5 358.0 393.0 C 358.66986083984375 390.5 360.5 388.66986083984375 363.0 388.0 C 365.5 388.66986083984375 367.33013916015625 390.5 368.0 393.0" stroke-width="0.0" fill="rgb(47, 47, 67)" opacity="1.0" stroke="rgb(249, 44, 209)" stroke-opacity="0.74371547" stroke-linecap="round" stroke-linejoin="round"/>
    <path d="M 101.0 290.0 C 100.33012390136719 292.5 98.5 294.33013916015625 96.0 295.0 C 93.5 294.33013916015625 91.66987609863281 292.5 91.0 290.0 C 91.66987609863281 287.5 93.5 285.66986083984375 96.0 285.0 C 98.5 285.66986083984375 100.33012390136719 287.5 101.0 290.0" stroke-width="0.0" fill="rgb(46, 44, 63)" opacity="1.0" stroke="rgb(237, 226, 199)" stroke-opacity="0.4126483" stroke-linecap="round" stroke-linejoin="round"/>
    <path d="M 216.0 348.0 C 215.3301239013672 350.5 213.5 352.33013916015625 211.0 353.0 C 208.5 352.33013916015625 206.6698760986328 350.5 206.0 348.0 C 206.6698760986328 345.5 208.5 343.66986083984375 211.0 343.0 C 213.5 343.66986083984375 215.3301239013672 345.5 216.0 348.0" stroke-width="0.0" fill="rgb(106, 164, 187)" opacity="1.0" stroke="rgb(117, 12, 158)" stroke-opacity="0.15597242" stroke-linecap="round" stroke-linejoin="round"/>
  </g>
</svg>
