<?xml version="1.0" ?>
<svg xmlns="http://www.w3.org/2000/svg" version="1.1" width="508" height="512">
  <defs/>
  <g>
    <path d="M 374.7842712402344 8.744399070739746 C 194.38148498535156 104.99178314208984 278.00762939453125 -18.209936141967773 269.53265380859375 195.79061889648438 C 120.46541595458984 256.3629150390625 98.15401458740234 228.86636352539062 5.81083869934082 160.6810760498047 C 5.579008102416992 -60.8099365234375 5.758746147155762 27.396879196166992 5.643584251403809 7.953970432281494 C 166.29498291015625 8.51096248626709 178.065185546875 7.202694416046143 374.7842712402344 8.744399070739746" stroke-width="0.0" fill="rgb(73, 116, 116)" opacity="0.40287194" stroke="rgb(67, 120, 236)" stroke-opacity="0.18485513" stroke-linecap="round" stroke-linejoin="round"/>
    <path d="M 329.0 68.0 C 328.33013916015625 70.5 326.5 72.33012390136719 324.0 73.0 C 321.5 72.33012390136719 319.66986083984375 70.5 319.0 68.0 C 319.66986083984375 65.5 321.5 63.66987228393555 324.0 63.0 C 326.5 63.66987228393555 328.33013916015625 65.5 329.0 68.0" stroke-width="0.0" fill="rgb(138, 172, 174)" opacity="1.0" stroke="rgb(115, 233, 49)" stroke-opacity="0.20424166" stroke-linecap="round" stroke-linejoin="round"/>
    <path d="M 351.0 50.0 C 350.33013916015625 52.5 348.5 54.33012771606445 346.0 55.0 C 343.5 54.33012771606445 341.66986083984375 52.5 341.0 50.0 C 341.66986083984375 47.5 343.5 45.66987228393555 346.0 45.0 C 348.5 45.66987228393555 350.33013916015625 47.5 351.0 50.0" stroke-width="0.0" fill="rgb(138, 172, 174)" opacity="1.0" stroke="rgb(40, 207, 78)" stroke-opacity="0.51973474" stroke-linecap="round" stroke-linejoin="round"/>
  </g>
</svg>
