<?xml version="1.0" ?>
<svg xmlns="http://www.w3.org/2000/svg" version="1.1" width="508" height="512">
  <defs/>
  <g>
    <path d="M 393.8513488769531 8.003226280212402 C 189.58203125 78.82695770263672 294.51495361328125 2.6478288173675537 234.1292724609375 178.64666748046875 C 63.838260650634766 284.5061340332031 219.9386749267578 245.71224975585938 5.662569522857666 161.98724365234375 C 5.5311665534973145 -60.86126708984375 5.658785343170166 27.302717208862305 5.544730186462402 7.9962663650512695 C 166.1526336669922 7.995019435882568 178.79937744140625 8.00057315826416 393.8513488769531 8.003226280212402" stroke-width="0.0" fill="rgb(32, 96, 109)" opacity="0.46998915" stroke="rgb(67, 120, 236)" stroke-opacity="0.18485513" stroke-linecap="round" stroke-linejoin="round"/>
    <path d="M 500.2490234375 161.95657348632812 C 502.6657409667969 342.2195129394531 543.084716796875 345.8837890625 115.42839050292969 326.93951416015625 C 144.36366271972656 7.143166542053223 305.97332763671875 130.41156005859375 306.843994140625 72.89388275146484 C 315.2986145019531 32.40055847167969 248.5381317138672 46.67424011230469 302.0256042480469 38.363670349121094 C 338.2240905761719 152.91400146484375 445.55059814453125 20.450572967529297 500.2490234375 161.95657348632812" stroke-width="0.0" fill="rgb(111, 124, 128)" opacity="0.5384487" stroke="rgb(115, 233, 49)" stroke-opacity="0.20424166" stroke-linecap="round" stroke-linejoin="round"/>
    <path d="M 502.19378662109375 165.7491912841797 C 362.6903076171875 34.410545349121094 411.01470947265625 51.43818283081055 358.6141662597656 85.59696960449219 C 333.57354736328125 107.62993621826172 315.9650573730469 68.49144744873047 272.4092102050781 12.798935890197754 C 300.7630920410156 5.962039947509766 305.60418701171875 8.578502655029297 502.3472595214844 8.040160179138184 C 502.1838073730469 14.448319435119629 502.40020751953125 -32.41161346435547 502.19378662109375 165.7491912841797" stroke-width="0.0" fill="rgb(130, 167, 170)" opacity="0.8835941" stroke="rgb(40, 207, 78)" stroke-opacity="0.51973474" stroke-linecap="round" stroke-linejoin="round"/>
    <path d="M 370.1949157714844 276.24688720703125 C 305.2298583984375 282.1980895996094 311.27996826171875 283.6412048339844 368.1292724609375 284.4657897949219 C 251.0370635986328 339.9101257324219 335.06683349609375 316.4320983886719 304.51324462890625 270.64190673828125 C 282.73748779296875 184.1090850830078 323.2005310058594 312.9854736328125 313.6647033691406 224.9136962890625 C 355.4463806152344 226.7374267578125 294.68621826171875 263.1685485839844 370.1949157714844 276.24688720703125" stroke-width="0.0" fill="rgb(255, 250, 232)" opacity="0.8549567" stroke="rgb(227, 81, 56)" stroke-opacity="0.9346501" stroke-linecap="round" stroke-linejoin="round"/>
    <path d="M 376.9223937988281 249.8863525390625 C 340.4517517089844 210.2399139404297 367.02032470703125 243.58892822265625 344.9829406738281 248.3970184326172 C 329.6587219238281 270.83563232421875 346.3738708496094 227.6768341064453 331.6005859375 231.0380401611328 C 225.84808349609375 238.42112731933594 221.74295043945312 230.8191375732422 334.3147888183594 200.626220703125 C 381.6997985839844 228.54026794433594 376.8669738769531 186.40484619140625 376.9223937988281 249.8863525390625" stroke-width="0.0" fill="rgb(255, 246, 228)" opacity="0.8854596" stroke="rgb(225, 186, 61)" stroke-opacity="0.9791398" stroke-linecap="round" stroke-linejoin="round"/>
    <path d="M 169.19561767578125 293.69561767578125 C 68.58370208740234 287.0575866699219 183.77371215820312 285.892578125 163.18353271484375 271.07086181640625 C 107.10641479492188 231.3553924560547 153.0306396484375 347.97979736328125 109.81185150146484 284.88348388671875 C 133.81692504882812 237.91146850585938 105.2936019897461 258.5019836425781 189.16636657714844 249.08460998535156 C 160.66925048828125 251.0097198486328 171.00831604003906 240.8196258544922 169.19561767578125 293.69561767578125" stroke-width="0.0" fill="rgb(255, 251, 233)" opacity="0.8864817" stroke="rgb(59, 48, 99)" stroke-opacity="0.08912784" stroke-linecap="round" stroke-linejoin="round"/>
    <path d="M 374.18804931640625 369.2733459472656 C 365.5378112792969 369.25299072265625 351.0603332519531 369.50372314453125 303.3263244628906 369.3730773925781 C 292.4362487792969 399.0942077636719 331.7904357910156 312.15643310546875 289.17755126953125 236.09063720703125 C 300.29803466796875 386.8503112792969 258.7043762207031 346.9314270019531 364.6381530761719 348.8012390136719 C 362.67840576171875 277.5096130371094 375.3276672363281 234.55972290039062 374.18804931640625 369.2733459472656" stroke-width="0.0" fill="rgb(48, 56, 77)" opacity="0.9498903" stroke="rgb(66, 126, 60)" stroke-opacity="0.07902328" stroke-linecap="round" stroke-linejoin="round"/>
    <path d="M 40.0 277.0 C 39.33012771606445 279.5 37.5 281.33013916015625 35.0 282.0 C 32.5 281.33013916015625 30.669872283935547 279.5 30.0 277.0 C 30.669872283935547 274.5 32.5 272.66986083984375 35.0 272.0 C 37.5 272.66986083984375 39.33012771606445 274.5 40.0 277.0" stroke-width="0.0" fill="rgb(225, 184, 161)" opacity="1.0" stroke="rgb(92, 59, 212)" stroke-opacity="0.50154555" stroke-linecap="round" stroke-linejoin="round"/>
    <path d="M 63.0 205.0 C 62.33012771606445 207.5 60.5 209.3301239013672 58.0 210.0 C 55.5 209.3301239013672 53.66987228393555 207.5 53.0 205.0 C 53.66987228393555 202.5 55.5 200.6698760986328 58.0 200.0 C 60.5 200.6698760986328 62.33012771606445 202.5 63.0 205.0" stroke-width="0.0" fill="rgb(225, 185, 159)" opacity="1.0" stroke="rgb(41, 34, 15)" stroke-opacity="0.6276863" stroke-linecap="round" stroke-linejoin="round"/>
    <path d="M 201.0 407.0 C 200.3301239013672 409.5 198.5 411.33013916015625 196.0 412.0 C 193.5 411.33013916015625 191.6698760986328 409.5 191.0 407.0 C 191.6698760986328 404.5 193.5 402.66986083984375 196.0 402.0 C 198.5 402.66986083984375 200.3301239013672 404.5 201.0 407.0" stroke-width="0.0" fill="rgb(43, 46, 64)" opacity="1.0" stroke="rgb(151, 227, 226)" stroke-opacity="0.9581098" stroke-linecap="round" stroke-linejoin="round"/>
    <path d="M 44.0 204.0 C 43.33012771606445 206.5 41.5 208.3301239013672 39.0 209.0 C 36.5 208.3301239013672 34.66987228393555 206.5 34.0 204.0 C 34.66987228393555 201.5 36.5 199.6698760986328 39.0 199.0 C 41.5 199.6698760986328 43.33012771606445 201.5 44.0 204.0" stroke-width="0.0" fill="rgb(226, 186, 160)" opacity="1.0" stroke="rgb(251, 142, 112)" stroke-opacity="0.8719731" stroke-linecap="round" stroke-linejoin="round"/>
    <path d="M 30.0 290.0 C 29.330127716064453 292.5 27.5 294.33013916015625 25.0 295.0 C 22.5 294.33013916015625 20.669872283935547 292.5 20.0 290.0 C 20.669872283935547 287.5 22.5 285.66986083984375 25.0 285.0 C 27.5 285.66986083984375 29.330127716064453 287.5 30.0 290.0" stroke-width="0.0" fill="rgb(228, 184, 160)" opacity="1.0" stroke="rgb(1, 151, 248)" stroke-opacity="0.16250825" stroke-linecap="round" stroke-linejoin="round"/>
    <path d="M 346.0 448.0 C 345.33013916015625 450.5 343.5 452.33013916015625 341.0 453.0 C 338.5 452.33013916015625 336.66986083984375 450.5 336.0 448.0 C 336.66986083984375 445.5 338.5 443.66986083984375 341.0 443.0 C 343.5 443.66986083984375 345.33013916015625 445.5 346.0 448.0" stroke-width="0.0" fill="rgb(152, 186, 186)" opacity="1.0" stroke="rgb(32, 195, 144)" stroke-opacity="0.993289" stroke-linecap="round" stroke-linejoin="round"/>
    <path d="M 27.0 201.0 C 26.330127716064453 203.5 24.5 205.3301239013672 22.0 206.0 C 19.5 205.3301239013672 17.669872283935547 203.5 17.0 201.0 C 17.669872283935547 198.5 19.5 196.6698760986328 22.0 196.0 C 24.5 196.6698760986328 26.330127716064453 198.5 27.0 201.0" stroke-width="0.0" fill="rgb(226, 185, 160)" opacity="1.0" stroke="rgb(131, 64, 184)" stroke-opacity="0.11268463" stroke-linecap="round" stroke-linejoin="round"/>
    <path d="M 40.0 288.0 C 39.33012771606445 290.5 37.5 292.33013916015625 35.0 293.0 C 32.5 292.33013916015625 30.669872283935547 290.5 30.0 288.0 C 30.669872283935547 285.5 32.5 283.66986083984375 35.0 283.0 C 37.5 283.66986083984375 39.33012771606445 285.5 40.0 288.0" stroke-width="0.0" fill="rgb(228, 184, 160)" opacity="1.0" stroke="rgb(172, 178, 102)" stroke-opacity="0.085812464" stroke-linecap="round" stroke-linejoin="round"/>
  </g>
</svg>
