<?xml version="1.0" ?>
<svg xmlns="http://www.w3.org/2000/svg" version="1.1" width="512" height="509">
  <defs/>
  <g>
    <path d="M 0.0 0.0 L 512.0 0.0 L 512.0 509.0 L 0.0 509.0 L 0.0 0.0" stroke-width="0.0" fill="rgb(255, 255, 255)" opacity="1.0" stroke="rgb(0, 0, 0)" stroke-opacity="0.0" stroke-linecap="round" stroke-linejoin="round"/>
    <path d="M 8.0 442.0 C 17.542139053344727 445.02484130859375 31.71347999572754 446.41058349609375 38.0 440.0 C 41.3931884765625 363.6666564941406 39.72256851196289 287.3333435058594 40.0 211.0 C 34.79436492919922 196.22665405273438 31.63800621032715 180.29493713378906 26.0 167.0 C 40.99712371826172 160.77850341796875 34.5371208190918 136.55987548828125 51.0 145.0 C 53.25688552856445 151.96026611328125 54.44875717163086 160.58837890625 64.0 166.0 C 61.26609802246094 181.6666717529297 54.50020980834961 197.3333282470703 51.0 213.0 C 53.68271255493164 275.6666564941406 46.20970916748047 338.3333435058594 55.0 401.0 C 57.73151779174805 387.6138610839844 66.24761199951172 395.60772705078125 72.0 401.0 C 73.12709045410156 409.26971435546875 76.23190307617188 429.8018493652344 90.0 421.0 C 92.81102752685547 319.6666564941406 89.20767211914062 218.3333282470703 91.0 117.0 C 90.81806182861328 107.79202270507812 81.46756744384766 92.05867767333984 96.0 89.0 C 93.31268310546875 69.56430053710938 120.51925659179688 53.743263244628906 135.0 74.0 C 138.48995971679688 79.33333587646484 141.89389038085938 84.66666412353516 142.0 90.0 C 154.6666717529297 90.76742553710938 167.3333282470703 87.06702423095703 180.0 96.0 C 226.3333282470703 93.53910827636719 272.6666564941406 95.70103454589844 319.0 96.0 C 330.0847473144531 95.16961669921875 338.0763854980469 92.70209503173828 349.0 90.0 L 400.0 91.0 C 412.0367736816406 87.2439956665039 401.84100341796875 72.54304504394531 408.0 64.0 C 416.6662292480469 57.91535186767578 421.58624267578125 42.14254379272461 431.0 45.0 C 432.8883972167969 49.66666793823242 430.0379333496094 54.33333206176758 434.0 59.0 L 500.0 59.0 L 500.0 8.0 L 9.0 8.0 L 8.0 122.0 C 10.630263328552246 126.02159881591797 10.630263328552246 127.7084732055664 8.0 131.0 L 8.0 442.0" stroke-width="2.0" fill="rgb(192, 202, 186)" opacity="1.0" stroke="rgb(0, 0, 0)" stroke-opacity="0.0" stroke-linecap="round" stroke-linejoin="round"/>
    <path d="M 8.0 119.0 L 11.0 125.0 C 36.66666793823242 125.29767608642578 62.33333206176758 123.87431335449219 88.0 127.0 C 96.16553497314453 115.58745574951172 78.40221405029297 94.90596771240234 96.0 90.0 C 93.13359069824219 69.03717041015625 122.27298736572266 51.87233352661133 138.0 78.0 C 140.78521728515625 101.92481994628906 165.40838623046875 82.99414825439453 180.0 97.0 L 334.0 96.0 C 357.3333435058594 84.65480041503906 380.6666564941406 94.89791107177734 404.0 90.0 C 404.8466796875 72.5573959350586 408.7405090332031 57.56956100463867 428.0 43.0 C 434.5586853027344 46.356048583984375 430.0888366699219 53.9830322265625 433.0 59.0 L 501.0 59.0 L 501.0 9.0 C 337.3333435058594 5.38100004196167 173.6666717529297 8.783679962158203 10.0 7.0 C 5.340617656707764 42.006752014160156 9.327895164489746 81.32829284667969 8.0 119.0" stroke-width="2.0" fill="rgb(178, 199, 188)" opacity="1.0" stroke="rgb(0, 0, 0)" stroke-opacity="0.0" stroke-linecap="round" stroke-linejoin="round"/>
    <path d="M 111.0 162.0 C 109.5514144897461 187.3333282470703 104.75655364990234 212.6666717529297 105.0 238.0 C 117.46815490722656 252.609619140625 125.0130386352539 229.0092010498047 139.0 236.0 C 144.1423797607422 245.4943389892578 154.8576202392578 245.5674591064453 160.0 236.0 C 167.6378936767578 238.23977661132812 174.50880432128906 233.0207061767578 181.0 243.0 C 187.4120635986328 244.15463256835938 191.16600036621094 242.3846435546875 197.0 236.0 C 205.9709014892578 235.41847229003906 214.17555236816406 238.22853088378906 222.0 244.0 C 233.089111328125 238.17236328125 245.27525329589844 229.72055053710938 256.0 243.0 C 266.0 243.50526428222656 276.0 231.42620849609375 286.0 236.0 C 290.54388427734375 246.66514587402344 301.5873107910156 244.3813018798828 308.0 236.0 C 318.7887878417969 234.2664794921875 325.6676025390625 240.9859161376953 335.0 243.0 C 346.0165100097656 231.303955078125 360.92962646484375 235.09805297851562 369.0 243.0 C 379.6392517089844 235.3675994873047 394.90234375 230.99575805664062 401.0 243.0 C 410.2273864746094 246.63351440429688 413.97515869140625 233.25277709960938 423.0 234.0 L 423.0 181.0 C 418.0187683105469 173.65797424316406 412.58056640625 171.24905395507812 418.0 163.0 C 413.3333435058594 163.2481689453125 408.6666564941406 162.3794403076172 404.0 160.0 L 111.0 162.0" stroke-width="2.0" fill="rgb(201, 214, 203)" opacity="1.0" stroke="rgb(0, 0, 0)" stroke-opacity="0.0" stroke-linecap="round" stroke-linejoin="round"/>
    <path d="M 82.0 129.0 C 57.655582427978516 128.1290283203125 30.681556701660156 125.84549713134766 8.0 130.0 L 9.0 445.0 L 38.0 444.0 C 43.41638946533203 366.3333435058594 41.889652252197266 288.6666564941406 42.0 211.0 C 36.57954025268555 196.2982940673828 31.37830352783203 180.29331970214844 27.0 166.0 C 40.96449661254883 163.48846435546875 35.21334457397461 134.00318908691406 52.0 147.0 C 53.2076530456543 154.0638427734375 55.299827575683594 160.60858154296875 64.0 167.0 C 59.3024787902832 181.3333282470703 54.56922912597656 195.6666717529297 50.0 210.0 C 49.40343475341797 287.6666564941406 49.69386672973633 365.3333435058594 54.0 443.0 C 56.04789352416992 445.9942321777344 62.95210647583008 446.1612243652344 65.0 442.0 C 67.31288146972656 426.0 52.63044357299805 410.0 61.0 394.0 C 80.07097625732422 401.1609802246094 67.44996643066406 431.63397216796875 90.0 422.0 L 90.0 133.0 C 87.66666412353516 130.3623504638672 85.33333587646484 130.42098999023438 82.0 129.0" stroke-width="2.0" fill="rgb(221, 208, 182)" opacity="1.0" stroke="rgb(0, 0, 0)" stroke-opacity="0.0" stroke-linecap="round" stroke-linejoin="round"/>
    <path d="M 8.0 464.0 C 11.593210220336914 475.6315002441406 -0.22874349355697632 499.20477294921875 17.0 500.0 C 178.0 498.8943176269531 339.0 500.001708984375 500.0 501.0 C 503.4582214355469 489.6666564941406 502.3797302246094 478.3333435058594 501.0 467.0 C 348.0 467.9994201660156 195.0 465.5710144042969 42.0 469.0 C 30.090457916259766 466.87548828125 37.5877571105957 454.7975769042969 34.0 448.0 L 11.0 448.0 C 9.146679878234863 453.0 8.86216926574707 458.0 8.0 464.0" stroke-width="2.0" fill="rgb(230, 225, 204)" opacity="1.0" stroke="rgb(0, 0, 0)" stroke-opacity="0.0" stroke-linecap="round" stroke-linejoin="round"/>
    <path d="M 426.0 48.0 C 407.65069580078125 63.33333206176758 405.9093017578125 78.66666412353516 410.0 94.0 C 422.9476623535156 92.6537094116211 433.703857421875 99.6091537475586 443.0 113.0 C 439.6864013671875 123.36856842041016 435.13446044921875 109.72003173828125 432.0 115.0 L 431.0 112.0 C 423.7082824707031 174.3328857421875 428.91412353515625 228.00033569335938 425.0 287.0 C 427.0469970703125 288.72650146484375 424.991455078125 290.8376159667969 428.0 290.0 C 438.2148132324219 276.6834716796875 453.48828125 259.8940734863281 454.0 245.0 C 461.4924011230469 230.54872131347656 465.8977355957031 253.04763793945312 465.0 259.0 C 479.2828674316406 274.9030456542969 489.5853271484375 294.4956359863281 502.0 312.0 C 501.4184875488281 229.0 503.1893615722656 146.0 501.0 63.0 C 477.0 59.888423919677734 453.0 64.69641876220703 429.0 60.0 L 426.0 48.0" stroke-width="2.0" fill="rgb(225, 206, 179)" opacity="1.0" stroke="rgb(0, 0, 0)" stroke-opacity="0.0" stroke-linecap="round" stroke-linejoin="round"/>
    <path d="M 201.0 259.0 C 171.0 256.9272155761719 141.0 260.1038818359375 111.0 259.0 C 109.7867660522461 301.3333435058594 108.52674102783203 343.6666564941406 112.0 386.0 C 142.0 386.1063232421875 172.0 386.7272644042969 202.0 384.0 L 201.0 259.0" stroke-width="2.0" fill="rgb(126, 122, 113)" opacity="1.0" stroke="rgb(0, 0, 0)" stroke-opacity="0.0" stroke-linecap="round" stroke-linejoin="round"/>
    <path d="M 430.0 62.0 C 429.731689453125 72.66666412353516 431.273681640625 83.33333587646484 428.0 94.0 C 432.63201904296875 102.7131118774414 453.7809143066406 112.75135803222656 440.0 119.0 C 435.7346496582031 118.50492858886719 431.4573059082031 120.03184509277344 431.0 125.0 C 435.0007019042969 153.3333282470703 420.677978515625 181.6666717529297 444.0 210.0 C 444.15399169921875 219.19888305664062 440.700439453125 231.90927124023438 453.0 238.0 L 501.0 237.0 L 501.0 64.0 C 477.6666564941406 61.179351806640625 454.3333435058594 66.01172637939453 430.0 62.0" stroke-width="2.0" fill="rgb(225, 207, 180)" opacity="1.0" stroke="rgb(0, 0, 0)" stroke-opacity="0.0" stroke-linecap="round" stroke-linejoin="round"/>
    <path d="M 317.0 259.0 C 312.9135437011719 300.3333435058594 315.8553771972656 341.6666564941406 318.0 383.0 C 346.3333435058594 384.02288818359375 374.6666564941406 382.7846374511719 403.0 385.0 L 404.0 260.0 L 317.0 259.0" stroke-width="2.0" fill="rgb(135, 127, 116)" opacity="1.0" stroke="rgb(0, 0, 0)" stroke-opacity="0.0" stroke-linecap="round" stroke-linejoin="round"/>
    <path d="M 228.0 260.0 L 225.0 273.0 C 228.45541381835938 325.3333435058594 222.80557250976562 377.6666564941406 228.0 430.0 L 292.0 431.0 L 292.0 360.0 C 280.75750732421875 358.2498474121094 295.59210205078125 357.1281433105469 286.0 353.0 C 288.3792419433594 349.5567932128906 283.7074890136719 335.420166015625 289.0 340.0 C 300.0738220214844 313.31390380859375 276.83648681640625 292.3472595214844 286.0 265.0 C 283.3436279296875 263.2279968261719 280.2888488769531 263.7255859375 279.0 260.0 C 264.2466125488281 261.5866394042969 245.39710998535156 256.48681640625 228.0 260.0" stroke-width="2.0" fill="rgb(120, 140, 142)" opacity="1.0" stroke="rgb(0, 0, 0)" stroke-opacity="0.0" stroke-linecap="round" stroke-linejoin="round"/>
    <path d="M 315.0 310.0 C 318.26025390625 334.6666564941406 311.7630920410156 359.3333435058594 318.0 384.0 L 404.0 384.0 C 405.056640625 359.3333435058594 401.7113037109375 334.6666564941406 404.0 310.0 L 315.0 310.0" stroke-width="2.0" fill="rgb(152, 142, 127)" opacity="1.0" stroke="rgb(0, 0, 0)" stroke-opacity="0.0" stroke-linecap="round" stroke-linejoin="round"/>
    <path d="M 459.0 242.0 C 457.4988098144531 246.0182342529297 451.8591003417969 254.3197021484375 455.0 260.0 C 439.2928161621094 281.4214782714844 409.693359375 306.9352111816406 410.0 330.0 C 425.6666564941406 338.9206848144531 441.3333435058594 334.4725646972656 457.0 339.0 L 457.0 386.0 C 442.59979248046875 385.86572265625 426.57177734375 403.7630310058594 439.0 417.0 C 445.0 422.77301025390625 451.0 417.4739074707031 457.0 423.0 L 456.0 464.0 C 461.2003479003906 452.6627197265625 459.537841796875 437.0029602050781 460.0 424.0 C 476.48016357421875 414.551025390625 477.59686279296875 395.4079284667969 460.0 386.0 L 460.0 339.0 C 474.0 337.0325927734375 488.0 338.0852966308594 502.0 334.0 C 504.4851989746094 309.6082458496094 480.4981689453125 282.74603271484375 462.0 260.0 C 465.4331970214844 254.3333282470703 458.74066162109375 248.6666717529297 459.0 242.0" stroke-width="2.0" fill="rgb(154, 175, 168)" opacity="1.0" stroke="rgb(0, 0, 0)" stroke-opacity="0.0" stroke-linecap="round" stroke-linejoin="round"/>
    <path d="M 237.0 270.0 C 232.60867309570312 301.34161376953125 233.9866180419922 336.99383544921875 235.0 370.0 L 281.0 371.0 C 285.4343566894531 337.6666564941406 282.1929626464844 304.3333435058594 282.0 271.0 L 237.0 270.0" stroke-width="2.0" fill="rgb(65, 80, 87)" opacity="1.0" stroke="rgb(0, 0, 0)" stroke-opacity="0.0" stroke-linecap="round" stroke-linejoin="round"/>
    <path d="M 502.0 320.0 C 493.0492248535156 300.91253662109375 478.9422607421875 276.7860412597656 462.0 261.0 C 444.5985412597656 260.9834289550781 442.0349426269531 281.744384765625 425.0 295.0 C 417.0410461425781 308.4269714355469 397.28973388671875 332.1394958496094 423.0 335.0 C 449.3333435058594 337.7879638671875 475.6666564941406 340.333740234375 502.0 334.0 L 502.0 320.0" stroke-width="2.0" fill="rgb(178, 198, 189)" opacity="1.0" stroke="rgb(0, 0, 0)" stroke-opacity="0.0" stroke-linecap="round" stroke-linejoin="round"/>
    <path d="M 506.0 0.0 C 502.10430908203125 167.3333282470703 503.9418029785156 334.6666564941406 504.0 502.0 C 506.3333435058594 503.5948486328125 508.6666564941406 501.7718200683594 511.0 505.0 L 511.0 0.0 L 506.0 0.0" stroke-width="2.0" fill="rgb(249, 248, 246)" opacity="1.0" stroke="rgb(0, 0, 0)" stroke-opacity="0.0" stroke-linecap="round" stroke-linejoin="round"/>
    <path d="M 501.0 336.0 C 488.2957763671875 341.1506652832031 473.05078125 337.5027770996094 462.0 342.0 C 465.8587951660156 358.5298156738281 453.4505920410156 378.5902099609375 470.0 392.0 C 478.0353088378906 402.1513366699219 476.585205078125 414.4581604003906 463.0 423.0 L 464.0 445.0 L 502.0 445.0 L 501.0 336.0" stroke-width="2.0" fill="rgb(215, 191, 159)" opacity="1.0" stroke="rgb(0, 0, 0)" stroke-opacity="0.0" stroke-linecap="round" stroke-linejoin="round"/>
    <path d="M 315.0 260.0 L 316.0 302.0 L 404.0 302.0 L 403.0 259.0 L 315.0 260.0" stroke-width="2.0" fill="rgb(99, 96, 90)" opacity="1.0" stroke="rgb(0, 0, 0)" stroke-opacity="0.0" stroke-linecap="round" stroke-linejoin="round"/>
    <path d="M 428.0 8.0 C 427.143310546875 25.0 430.5655517578125 42.0 432.0 59.0 L 501.0 59.0 L 501.0 8.0 L 428.0 8.0" stroke-width="2.0" fill="rgb(169, 192, 180)" opacity="1.0" stroke="rgb(0, 0, 0)" stroke-opacity="0.0" stroke-linecap="round" stroke-linejoin="round"/>
    <path d="M 44.0 145.0 C 38.65098190307617 148.6666717529297 40.63863754272461 152.3333282470703 41.0 156.0 C 36.51273727416992 164.06863403320312 22.799673080444336 167.06637573242188 33.0 173.0 C 36.81063461303711 181.53860473632812 32.669677734375 193.5782012939453 43.0 199.0 C 44.717979431152344 287.3333435058594 45.945526123046875 375.6666564941406 38.0 464.0 C 41.286590576171875 468.3544921875 48.12647247314453 464.89263916015625 53.0 466.0 C 48.81695556640625 376.6666564941406 45.77375030517578 287.3333435058594 49.0 198.0 C 59.18864822387695 191.71348571777344 52.75556564331055 177.54214477539062 62.0 168.0 C 55.66571807861328 164.43675231933594 47.37669372558594 154.62863159179688 50.0 148.0 C 48.33333206176758 146.27349853515625 46.66666793823242 144.1623992919922 44.0 145.0" stroke-width="2.0" fill="rgb(94, 104, 102)" opacity="1.0" stroke="rgb(0, 0, 0)" stroke-opacity="0.0" stroke-linecap="round" stroke-linejoin="round"/>
    <path d="M 213.0 453.0 L 214.0 465.0 L 304.0 464.0 C 308.12774658203125 452.5871887207031 293.1304016113281 447.24688720703125 297.0 436.0 L 292.0 433.0 L 222.0 434.0 C 217.776123046875 438.62054443359375 222.36599731445312 448.5715637207031 213.0 453.0" stroke-width="2.0" fill="rgb(230, 215, 190)" opacity="1.0" stroke="rgb(0, 0, 0)" stroke-opacity="0.0" stroke-linecap="round" stroke-linejoin="round"/>
    <path d="M 208.0 241.0 C 203.8240509033203 245.0 206.0230712890625 249.0 204.0 253.0 C 203.20741271972656 297.3333435058594 205.6142578125 341.6666564941406 205.0 386.0 C 210.3333282470703 389.8352966308594 215.6666717529297 386.75164794921875 221.0 389.0 C 222.29342651367188 341.3333435058594 223.19618225097656 293.6666564941406 221.0 246.0 C 216.27157592773438 245.16893005371094 212.65419006347656 241.0299530029297 208.0 241.0" stroke-width="2.0" fill="rgb(165, 188, 185)" opacity="1.0" stroke="rgb(0, 0, 0)" stroke-opacity="0.0" stroke-linecap="round" stroke-linejoin="round"/>
    <path d="M 111.0 359.0 C 112.247314453125 368.0 108.4503402709961 377.0 113.0 386.0 C 142.6476593017578 385.7601318359375 172.7178497314453 385.3791198730469 201.0 385.0 L 201.0 358.0 L 111.0 359.0" stroke-width="2.0" fill="rgb(135, 118, 100)" opacity="1.0" stroke="rgb(0, 0, 0)" stroke-opacity="0.0" stroke-linecap="round" stroke-linejoin="round"/>
    <path d="M 91.0 305.0 C 85.18319702148438 309.71875 75.67678833007812 302.168701171875 73.0 312.0 L 72.0 405.0 C 71.28459167480469 416.9511413574219 76.74668884277344 430.9053649902344 91.0 423.0 L 91.0 305.0" stroke-width="2.0" fill="rgb(241, 228, 202)" opacity="1.0" stroke="rgb(0, 0, 0)" stroke-opacity="0.0" stroke-linecap="round" stroke-linejoin="round"/>
    <path d="M 182.0 99.0 C 183.10147094726562 103.26182556152344 179.28836059570312 109.30162811279297 185.0 112.0 C 234.0 109.74324035644531 283.0 112.57037353515625 332.0 112.0 C 335.3402404785156 108.71340942382812 336.9108581542969 101.87352752685547 333.0 97.0 C 283.0 97.9890365600586 233.0 97.6296615600586 182.0 99.0" stroke-width="2.0" fill="rgb(120, 138, 139)" opacity="1.0" stroke="rgb(0, 0, 0)" stroke-opacity="0.0" stroke-linecap="round" stroke-linejoin="round"/>
    <path d="M 185.0 489.0 C 184.85873413085938 495.6971435546875 186.11297607421875 497.4422302246094 193.0 498.0 L 255.0 497.0 C 260.1345520019531 488.9170837402344 255.13087463378906 476.72772216796875 257.0 467.0 C 237.0 463.9185791015625 217.0 467.0771484375 197.0 469.0 C 190.83364868164062 475.3333435058594 187.12185668945312 481.6666564941406 185.0 489.0" stroke-width="2.0" fill="rgb(239, 229, 207)" opacity="1.0" stroke="rgb(0, 0, 0)" stroke-opacity="0.0" stroke-linecap="round" stroke-linejoin="round"/>
    <path d="M 235.0 383.0 L 235.0 420.0 L 284.0 420.0 L 283.0 382.0 C 267.3333435058594 385.3236999511719 251.6666717529297 384.2973937988281 235.0 383.0" stroke-width="2.0" fill="rgb(175, 197, 192)" opacity="1.0" stroke="rgb(0, 0, 0)" stroke-opacity="0.0" stroke-linecap="round" stroke-linejoin="round"/>
    <path d="M 472.0 96.0 C 468.22552490234375 97.65396118164062 462.9502868652344 101.83434295654297 462.0 106.0 C 460.9468994140625 123.33333587646484 464.2897644042969 140.6666717529297 460.0 158.0 C 472.0 160.70619201660156 484.0 158.08050537109375 496.0 159.0 C 496.58966064453125 154.5458984375 495.6698913574219 152.3502655029297 491.0 150.0 C 487.3630676269531 132.60943603515625 499.2557067871094 112.74441528320312 483.0 97.0 L 472.0 96.0" stroke-width="2.0" fill="rgb(201, 178, 151)" opacity="1.0" stroke="rgb(0, 0, 0)" stroke-opacity="0.0" stroke-linecap="round" stroke-linejoin="round"/>
    <path d="M 47.0 196.0 C 42.91720962524414 197.93814086914062 41.65473556518555 206.9068145751953 45.0 212.0 C 43.678794860839844 296.6666564941406 45.20085525512695 381.3333435058594 39.0 466.0 L 54.0 465.0 C 46.48788833618164 375.99993896484375 47.93558883666992 284.33343505859375 47.0 196.0" stroke-width="2.0" fill="rgb(68, 82, 84)" opacity="1.0" stroke="rgb(0, 0, 0)" stroke-opacity="0.0" stroke-linecap="round" stroke-linejoin="round"/>
    <path d="M 462.0 240.0 C 460.7315368652344 246.6666717529297 466.5059814453125 253.3333282470703 465.0 260.0 C 480.1900939941406 277.0 489.0466613769531 294.0 501.0 311.0 L 501.0 238.0 C 488.3333435058594 237.69248962402344 475.6666564941406 240.87136840820312 462.0 240.0" stroke-width="2.0" fill="rgb(240, 225, 199)" opacity="1.0" stroke="rgb(0, 0, 0)" stroke-opacity="0.0" stroke-linecap="round" stroke-linejoin="round"/>
    <path d="M 316.0 310.0 C 316.3205871582031 316.6666564941406 316.889404296875 323.3333435058594 320.0 330.0 L 399.0 329.0 L 398.0 309.0 L 316.0 310.0" stroke-width="2.0" fill="rgb(135, 128, 116)" opacity="1.0" stroke="rgb(0, 0, 0)" stroke-opacity="0.0" stroke-linecap="round" stroke-linejoin="round"/>
    <path d="M 432.0 195.0 C 426.734130859375 225.00070190429688 422.54437255859375 259.3327941894531 426.0 291.0 C 439.0815734863281 278.7252502441406 455.5968322753906 258.53155517578125 454.0 243.0 C 433.5438537597656 227.1678466796875 447.6671142578125 210.3839569091797 432.0 195.0" stroke-width="2.0" fill="rgb(199, 173, 144)" opacity="1.0" stroke="rgb(0, 0, 0)" stroke-opacity="0.0" stroke-linecap="round" stroke-linejoin="round"/>
    <path d="M 127.0 489.0 L 127.0 497.0 L 181.0 498.0 C 183.89984130859375 490.5724792480469 183.93179321289062 479.0692443847656 193.0 470.0 C 175.3333282470703 468.8000183105469 157.6666717529297 467.2939453125 140.0 469.0 C 134.58078002929688 473.5232238769531 132.34921264648438 481.8617858886719 127.0 489.0" stroke-width="2.0" fill="rgb(237, 228, 208)" opacity="1.0" stroke="rgb(0, 0, 0)" stroke-opacity="0.0" stroke-linecap="round" stroke-linejoin="round"/>
    <path d="M 258.0 466.0 L 258.0 497.0 C 275.3333435058594 496.6173095703125 292.6666564941406 498.2204284667969 310.0 496.0 C 310.86309814453125 486.0 304.08984375 476.0 301.0 466.0 L 258.0 466.0" stroke-width="2.0" fill="rgb(239, 230, 208)" opacity="1.0" stroke="rgb(0, 0, 0)" stroke-opacity="0.0" stroke-linecap="round" stroke-linejoin="round"/>
    <path d="M 251.0 161.0 C 253.01834106445312 188.0 245.41595458984375 215.0 253.0 242.0 C 258.76983642578125 246.20938110351562 267.5456848144531 243.62918090820312 269.0 236.0 L 268.0 163.0 C 264.4101867675781 158.87840270996094 257.18560791015625 161.7427520751953 251.0 161.0" stroke-width="2.0" fill="rgb(242, 239, 220)" opacity="1.0" stroke="rgb(0, 0, 0)" stroke-opacity="0.0" stroke-linecap="round" stroke-linejoin="round"/>
    <path d="M 217.0 161.0 L 213.0 237.0 C 216.01258850097656 245.73684692382812 227.5458221435547 246.5650634765625 232.0 238.0 L 233.0 162.0 L 217.0 161.0" stroke-width="2.0" fill="rgb(243, 240, 221)" opacity="1.0" stroke="rgb(0, 0, 0)" stroke-opacity="0.0" stroke-linecap="round" stroke-linejoin="round"/>
    <path d="M 321.0 161.0 C 319.8025817871094 186.0 323.6336364746094 211.0 323.0 236.0 C 325.6864929199219 245.4248809814453 337.76483154296875 246.59361267089844 342.0 238.0 L 336.0 161.0 L 321.0 161.0" stroke-width="2.0" fill="rgb(242, 238, 218)" opacity="1.0" stroke="rgb(0, 0, 0)" stroke-opacity="0.0" stroke-linecap="round" stroke-linejoin="round"/>
    <path d="M 356.0 161.0 C 354.81109619140625 185.6666717529297 360.2000427246094 210.3333282470703 359.0 235.0 C 360.8308410644531 244.31382751464844 373.2070617675781 247.30709838867188 378.0 238.0 L 372.0 162.0 L 356.0 161.0" stroke-width="2.0" fill="rgb(242, 238, 219)" opacity="1.0" stroke="rgb(0, 0, 0)" stroke-opacity="0.0" stroke-linecap="round" stroke-linejoin="round"/>
    <path d="M 320.0 338.0 L 320.0 354.0 L 399.0 353.0 L 398.0 336.0 L 320.0 338.0" stroke-width="2.0" fill="rgb(130, 126, 115)" opacity="1.0" stroke="rgb(0, 0, 0)" stroke-opacity="0.0" stroke-linecap="round" stroke-linejoin="round"/>
    <path d="M 470.0 177.0 C 455.3998107910156 192.3627166748047 466.4395751953125 211.9781951904297 463.0 229.0 L 490.0 229.0 C 488.14141845703125 212.10012817382812 500.4704284667969 187.9866485595703 480.0 176.0 L 470.0 177.0" stroke-width="2.0" fill="rgb(201, 177, 148)" opacity="1.0" stroke="rgb(0, 0, 0)" stroke-opacity="0.0" stroke-linecap="round" stroke-linejoin="round"/>
    <path d="M 459.0 339.0 C 454.370361328125 353.0027770996094 458.3058776855469 371.3312683105469 457.0 387.0 C 440.9911193847656 384.34454345703125 423.8637390136719 408.8212585449219 443.0 420.0 C 447.6666564941406 420.81292724609375 452.3333435058594 419.4938659667969 457.0 423.0 L 456.0 465.0 C 462.13720703125 455.61669921875 458.96295166015625 437.70367431640625 460.0 425.0 C 473.70184326171875 415.3134765625 480.0906982421875 396.3485412597656 460.0 387.0 L 459.0 339.0" stroke-width="2.0" fill="rgb(85, 109, 110)" opacity="1.0" stroke="rgb(0, 0, 0)" stroke-opacity="0.0" stroke-linecap="round" stroke-linejoin="round"/>
    <path d="M 471.0 97.0 C 468.119384765625 98.67375183105469 464.4537658691406 100.35063934326172 463.0 104.0 L 463.0 149.0 L 490.0 149.0 C 488.8027038574219 131.9781951904297 498.74542236328125 112.36272430419922 482.0 97.0 L 471.0 97.0" stroke-width="2.0" fill="rgb(197, 174, 147)" opacity="1.0" stroke="rgb(0, 0, 0)" stroke-opacity="0.0" stroke-linecap="round" stroke-linejoin="round"/>
    <path d="M 286.0 161.0 L 287.0 238.0 C 291.2017822265625 246.511962890625 300.70819091796875 245.8556365966797 305.0 238.0 L 302.0 162.0 L 286.0 161.0" stroke-width="2.0" fill="rgb(244, 239, 220)" opacity="1.0" stroke="rgb(0, 0, 0)" stroke-opacity="0.0" stroke-linecap="round" stroke-linejoin="round"/>
    <path d="M 391.0 161.0 C 390.8582763671875 186.3333282470703 396.1900939941406 211.6666717529297 396.0 237.0 C 399.5278625488281 248.51364135742188 417.3633728027344 242.99313354492188 414.0 232.0 L 407.0 161.0 L 391.0 161.0" stroke-width="2.0" fill="rgb(242, 238, 219)" opacity="1.0" stroke="rgb(0, 0, 0)" stroke-opacity="0.0" stroke-linecap="round" stroke-linejoin="round"/>
    <path d="M 197.0 161.0 L 181.0 161.0 L 176.0 237.0 C 180.55880737304688 247.5719757080078 193.3342742919922 244.79795837402344 195.0 235.0 C 193.5386962890625 210.6666717529297 197.4783172607422 186.3333282470703 197.0 161.0" stroke-width="2.0" fill="rgb(243, 241, 221)" opacity="1.0" stroke="rgb(0, 0, 0)" stroke-opacity="0.0" stroke-linecap="round" stroke-linejoin="round"/>
    <path d="M 128.0 161.0 L 112.0 161.0 C 111.55225372314453 187.6666717529297 103.17145538330078 214.3333282470703 106.0 241.0 C 111.5279769897461 245.03274536132812 120.59203338623047 244.55227661132812 123.0 236.0 C 121.84069061279297 211.3333282470703 127.4653091430664 186.6666717529297 128.0 161.0" stroke-width="2.0" fill="rgb(244, 239, 219)" opacity="1.0" stroke="rgb(0, 0, 0)" stroke-opacity="0.0" stroke-linecap="round" stroke-linejoin="round"/>
    <path d="M 162.0 161.0 L 146.0 162.0 C 146.08331298828125 187.0 140.98828125 212.0 140.0 237.0 C 143.99476623535156 245.39431762695312 154.00523376464844 246.51577758789062 158.0 238.0 C 158.16358947753906 212.6666717529297 160.91944885253906 187.3333282470703 162.0 161.0" stroke-width="2.0" fill="rgb(244, 240, 222)" opacity="1.0" stroke="rgb(0, 0, 0)" stroke-opacity="0.0" stroke-linecap="round" stroke-linejoin="round"/>
    <path d="M 429.0 65.0 C 430.5567626953125 70.0 429.9898681640625 75.0 434.0 80.0 L 502.0 80.0 C 500.81719970703125 73.86177825927734 504.4602966308594 65.52320861816406 500.0 61.0 L 431.0 61.0 L 429.0 65.0" stroke-width="2.0" fill="rgb(204, 182, 152)" opacity="1.0" stroke="rgb(0, 0, 0)" stroke-opacity="0.0" stroke-linecap="round" stroke-linejoin="round"/>
    <path d="M 213.0 453.0 C 213.53355407714844 457.0 211.51490783691406 461.0 215.0 465.0 L 303.0 464.0 C 301.7406921386719 458.727783203125 306.2923583984375 451.3737487792969 299.0 449.0 L 217.0 449.0 L 213.0 453.0" stroke-width="2.0" fill="rgb(229, 213, 188)" opacity="1.0" stroke="rgb(0, 0, 0)" stroke-opacity="0.0" stroke-linecap="round" stroke-linejoin="round"/>
    <path d="M 214.0 125.0 C 214.11477661132812 141.1803436279297 236.15866088867188 132.0740509033203 247.0 133.0 C 264.6666564941406 136.80465698242188 282.3333435058594 135.97300720214844 300.0 133.0 L 299.0 120.0 C 271.6666564941406 116.41454315185547 244.3333282470703 122.60462188720703 217.0 119.0 C 213.99215698242188 120.16069030761719 215.22792053222656 121.68101501464844 214.0 125.0" stroke-width="2.0" fill="rgb(126, 146, 147)" opacity="1.0" stroke="rgb(0, 0, 0)" stroke-opacity="0.0" stroke-linecap="round" stroke-linejoin="round"/>
    <path d="M 398.0 360.0 L 319.0 362.0 L 320.0 377.0 C 347.0 374.8961486816406 374.0 376.2509460449219 401.0 376.0 L 398.0 360.0" stroke-width="2.0" fill="rgb(126, 123, 114)" opacity="1.0" stroke="rgb(0, 0, 0)" stroke-opacity="0.0" stroke-linecap="round" stroke-linejoin="round"/>
    <path d="M 145.0 260.0 L 145.0 308.0 C 151.1248779296875 312.53118896484375 161.24183654785156 308.7660827636719 169.0 310.0 L 170.0 260.0 L 145.0 260.0" stroke-width="2.0" fill="rgb(101, 103, 99)" opacity="1.0" stroke="rgb(0, 0, 0)" stroke-opacity="0.0" stroke-linecap="round" stroke-linejoin="round"/>
    <path d="M 89.0 94.0 L 93.0 108.0 L 169.0 108.0 L 170.0 93.0 L 89.0 94.0" stroke-width="2.0" fill="rgb(152, 164, 160)" opacity="1.0" stroke="rgb(0, 0, 0)" stroke-opacity="0.0" stroke-linecap="round" stroke-linejoin="round"/>
    <path d="M 220.0 435.0 L 220.0 448.0 L 297.0 448.0 C 295.87579345703125 443.12646484375 300.0813293457031 436.2865905761719 293.0 433.0 C 269.0 434.2312316894531 245.0 430.4730529785156 220.0 435.0" stroke-width="2.0" fill="rgb(231, 217, 193)" opacity="1.0" stroke="rgb(0, 0, 0)" stroke-opacity="0.0" stroke-linecap="round" stroke-linejoin="round"/>
    <path d="M 179.0 161.0 L 164.0 162.0 C 163.37574768066406 186.0 158.76290893554688 210.0 160.0 234.0 C 165.0 236.5266876220703 170.0 237.42306518554688 175.0 234.0 C 176.36793518066406 210.0 179.46505737304688 186.0 179.0 161.0" stroke-width="2.0" fill="rgb(159, 192, 191)" opacity="1.0" stroke="rgb(0, 0, 0)" stroke-opacity="0.0" stroke-linecap="round" stroke-linejoin="round"/>
    <path d="M 109.0 116.0 L 109.0 142.0 L 154.0 141.0 C 157.66990661621094 132.6666717529297 156.2324981689453 124.33333587646484 155.0 116.0 L 109.0 116.0" stroke-width="2.0" fill="rgb(155, 186, 183)" opacity="1.0" stroke="rgb(0, 0, 0)" stroke-opacity="0.0" stroke-linecap="round" stroke-linejoin="round"/>
    <path d="M 378.0 161.0 L 374.0 162.0 C 375.3988342285156 186.34442138671875 374.2923889160156 213.31845092773438 382.0 236.0 C 396.9163513183594 240.45062255859375 394.26275634765625 225.94972229003906 394.0 216.0 L 389.0 162.0 L 378.0 161.0" stroke-width="2.0" fill="rgb(152, 189, 186)" opacity="1.0" stroke="rgb(0, 0, 0)" stroke-opacity="0.0" stroke-linecap="round" stroke-linejoin="round"/>
    <path d="M 304.0 162.0 C 303.96807861328125 186.3333282470703 304.0096435546875 210.6666717529297 307.0 235.0 C 312.0 237.51747131347656 317.0 238.5775146484375 322.0 233.0 L 319.0 163.0 L 304.0 162.0" stroke-width="2.0" fill="rgb(160, 194, 190)" opacity="1.0" stroke="rgb(0, 0, 0)" stroke-opacity="0.0" stroke-linecap="round" stroke-linejoin="round"/>
    <path d="M 200.0 161.0 C 197.06597900390625 185.3333282470703 196.20806884765625 209.6666717529297 196.0 234.0 C 201.92735290527344 237.9192352294922 211.84768676757812 237.36834716796875 212.0 229.0 L 214.0 162.0 L 200.0 161.0" stroke-width="2.0" fill="rgb(161, 194, 192)" opacity="1.0" stroke="rgb(0, 0, 0)" stroke-opacity="0.0" stroke-linecap="round" stroke-linejoin="round"/>
    <path d="M 340.0 161.0 C 336.836669921875 183.34861755371094 342.2829895019531 209.98861694335938 343.0 234.0 C 348.0 237.08154296875 353.0 237.08154296875 358.0 234.0 L 354.0 163.0 C 351.3016357421875 158.56736755371094 345.2618103027344 162.8888397216797 340.0 161.0" stroke-width="2.0" fill="rgb(155, 189, 187)" opacity="1.0" stroke="rgb(0, 0, 0)" stroke-opacity="0.0" stroke-linecap="round" stroke-linejoin="round"/>
    <path d="M 271.0 161.0 C 266.5706787109375 185.0 269.6802062988281 209.0 270.0 233.0 C 273.2865905761719 238.29278564453125 280.12646484375 235.66433715820312 285.0 235.0 L 284.0 162.0 L 271.0 161.0" stroke-width="2.0" fill="rgb(160, 192, 191)" opacity="1.0" stroke="rgb(0, 0, 0)" stroke-opacity="0.0" stroke-linecap="round" stroke-linejoin="round"/>
    <path d="M 363.0 117.0 L 365.0 141.0 L 410.0 142.0 L 410.0 116.0 L 363.0 117.0" stroke-width="2.0" fill="rgb(163, 191, 188)" opacity="1.0" stroke="rgb(0, 0, 0)" stroke-opacity="0.0" stroke-linecap="round" stroke-linejoin="round"/>
    <path d="M 453.0 340.0 L 431.0 340.0 C 432.42401123046875 359.6666564941406 430.0050354003906 379.3333435058594 433.0 399.0 C 438.4794921875 389.6997985839844 447.8931579589844 385.1831359863281 455.0 384.0 L 453.0 340.0" stroke-width="2.0" fill="rgb(230, 212, 182)" opacity="1.0" stroke="rgb(0, 0, 0)" stroke-opacity="0.0" stroke-linecap="round" stroke-linejoin="round"/>
    <path d="M 235.0 162.0 C 234.05050659179688 186.3333282470703 230.68905639648438 210.6666717529297 235.0 235.0 C 240.05703735351562 236.93605041503906 248.31507873535156 237.36184692382812 249.0 230.0 L 250.0 163.0 L 235.0 162.0" stroke-width="2.0" fill="rgb(163, 195, 193)" opacity="1.0" stroke="rgb(0, 0, 0)" stroke-opacity="0.0" stroke-linecap="round" stroke-linejoin="round"/>
    <path d="M 143.0 161.0 L 131.0 161.0 C 126.57311248779297 185.3333282470703 125.20584106445312 209.6666717529297 124.0 234.0 C 128.87353515625 236.5540313720703 135.71340942382812 236.84254455566406 139.0 233.0 C 139.48680114746094 209.3333282470703 145.7621307373047 185.6666717529297 143.0 161.0" stroke-width="2.0" fill="rgb(157, 191, 190)" opacity="1.0" stroke="rgb(0, 0, 0)" stroke-opacity="0.0" stroke-linecap="round" stroke-linejoin="round"/>
    <path d="M 405.0 245.0 C 400.6404724121094 245.6310272216797 395.7376708984375 240.39418029785156 394.0 236.0 C 385.4359436035156 238.4281005859375 378.6699523925781 236.37974548339844 371.0 245.0 C 367.3800354003906 246.561279296875 359.3982849121094 242.23190307617188 359.0 237.0 C 350.8839111328125 239.0799102783203 344.096923828125 233.42222595214844 337.0 245.0 C 328.3124694824219 249.91464233398438 321.9786071777344 232.45947265625 314.0 240.0 L 314.0 253.0 L 405.0 253.0 L 405.0 245.0" stroke-width="2.0" fill="rgb(34, 55, 65)" opacity="1.0" stroke="rgb(0, 0, 0)" stroke-opacity="0.0" stroke-linecap="round" stroke-linejoin="round"/>
    <path d="M 336.0 405.0 C 332.21112060546875 413.9414367675781 345.0298767089844 409.31890869140625 349.0 412.0 L 363.0 436.0 L 346.0 466.0 C 353.1605224609375 461.22418212890625 357.7104797363281 448.080322265625 364.0 440.0 C 371.83306884765625 446.0830383300781 375.5052185058594 461.5586853027344 382.0 466.0 C 380.53509521484375 455.6666564941406 369.2799072265625 445.3333435058594 367.0 435.0 C 373.374267578125 426.0110778808594 378.4838562011719 406.906005859375 391.0 411.0 C 395.94439697265625 409.23638916015625 393.1565246582031 404.6134948730469 389.0 404.0 L 336.0 405.0" stroke-width="2.0" fill="rgb(160, 176, 171)" opacity="1.0" stroke="rgb(0, 0, 0)" stroke-opacity="0.0" stroke-linecap="round" stroke-linejoin="round"/>
    <path d="M 177.0 259.0 L 176.0 310.0 L 185.0 310.0 C 164.05067443847656 298.01348876953125 194.27012634277344 281.8226318359375 198.0 299.0 C 198.59228515625 302.7118835449219 197.0337677001953 309.2923278808594 192.0 310.0 L 202.0 310.0 L 202.0 260.0 L 177.0 259.0" stroke-width="2.0" fill="rgb(64, 75, 78)" opacity="1.0" stroke="rgb(0, 0, 0)" stroke-opacity="0.0" stroke-linecap="round" stroke-linejoin="round"/>
    <path d="M 99.0 405.0 C 92.98682403564453 414.1888732910156 106.72342681884766 407.7828674316406 110.0 414.0 L 122.0 435.0 L 104.0 466.0 C 111.6444091796875 460.8979187011719 116.19859313964844 447.4084777832031 123.0 439.0 C 131.56492614746094 445.6804504394531 133.52127075195312 459.3195495605469 140.0 466.0 C 138.12571716308594 455.3333435058594 128.63722229003906 444.6666564941406 126.0 434.0 C 133.4824981689453 423.3277893066406 138.84275817871094 407.1611022949219 152.0 410.0 L 153.0 406.0 C 135.3333282470703 402.1352233886719 117.66666412353516 403.9745788574219 99.0 405.0" stroke-width="2.0" fill="rgb(157, 174, 168)" opacity="1.0" stroke="rgb(0, 0, 0)" stroke-opacity="0.0" stroke-linecap="round" stroke-linejoin="round"/>
    <path d="M 113.0 259.0 C 109.01073455810547 276.0 111.00626373291016 293.0 112.0 310.0 L 123.0 310.0 C 122.81040954589844 297.45257568359375 114.74810791015625 280.2950134277344 128.0 271.0 C 140.89462280273438 280.2950134277344 133.64088439941406 297.45257568359375 133.0 310.0 L 139.0 310.0 L 139.0 260.0 L 113.0 259.0" stroke-width="2.0" fill="rgb(41, 60, 69)" opacity="1.0" stroke="rgb(0, 0, 0)" stroke-opacity="0.0" stroke-linecap="round" stroke-linejoin="round"/>
    <path d="M 442.0 391.0 C 412.182373046875 420.0326232910156 478.3277282714844 434.88983154296875 473.0 401.0 C 468.16064453125 387.604248046875 452.5976867675781 384.2393493652344 442.0 391.0" stroke-width="2.0" fill="rgb(96, 126, 127)" opacity="1.0" stroke="rgb(0, 0, 0)" stroke-opacity="0.0" stroke-linecap="round" stroke-linejoin="round"/>
    <path d="M 124.0 237.0 C 122.88949584960938 242.50076293945312 131.5998077392578 250.10247802734375 137.0 254.0 L 203.0 253.0 C 206.73020935058594 241.8561248779297 199.1575927734375 230.17124938964844 188.0 245.0 C 183.1161346435547 246.0305633544922 177.46160888671875 242.78439331054688 174.0 237.0 C 169.3333282470703 238.3447265625 164.6666717529297 238.75523376464844 160.0 236.0 C 157.3356475830078 248.45335388183594 140.98233032226562 246.85845947265625 138.0 236.0 L 124.0 237.0" stroke-width="2.0" fill="rgb(34, 57, 68)" opacity="1.0" stroke="rgb(0, 0, 0)" stroke-opacity="0.0" stroke-linecap="round" stroke-linejoin="round"/>
    <path d="M 112.0 318.0 L 111.0 350.0 C 120.66666412353516 352.71905517578125 130.3333282470703 351.62835693359375 140.0 351.0 L 139.0 317.0 L 112.0 318.0" stroke-width="2.0" fill="rgb(106, 105, 98)" opacity="1.0" stroke="rgb(0, 0, 0)" stroke-opacity="0.0" stroke-linecap="round" stroke-linejoin="round"/>
    <path d="M 91.0 488.0 C 89.24710845947266 505.7475891113281 114.2887954711914 494.1092224121094 125.0 497.0 C 124.66703796386719 487.6666564941406 134.3203887939453 478.3333435058594 136.0 469.0 L 104.0 469.0 L 91.0 488.0" stroke-width="2.0" fill="rgb(237, 228, 208)" opacity="1.0" stroke="rgb(0, 0, 0)" stroke-opacity="0.0" stroke-linecap="round" stroke-linejoin="round"/>
    <path d="M 44.0 374.0 C 41.185203552246094 404.6666564941406 41.180267333984375 435.3333435058594 39.0 466.0 L 53.0 466.0 C 52.22123336791992 435.6666564941406 50.70937728881836 405.3333435058594 49.0 375.0 L 44.0 374.0" stroke-width="2.0" fill="rgb(53, 71, 77)" opacity="1.0" stroke="rgb(0, 0, 0)" stroke-opacity="0.0" stroke-linecap="round" stroke-linejoin="round"/>
    <path d="M 44.0 145.0 C 39.54714584350586 147.1469268798828 40.21412658691406 152.32521057128906 42.0 156.0 C 37.524192810058594 162.81419372558594 23.027023315429688 168.21925354003906 33.0 172.0 C 36.70106506347656 183.29661560058594 33.8576545715332 200.5327911376953 50.0 197.0 C 58.28903579711914 191.22882080078125 52.80398178100586 175.41729736328125 62.0 168.0 C 53.41728210449219 164.72157287597656 48.32291030883789 154.09408569335938 49.0 146.0 L 44.0 145.0" stroke-width="2.0" fill="rgb(132, 136, 128)" opacity="1.0" stroke="rgb(0, 0, 0)" stroke-opacity="0.0" stroke-linecap="round" stroke-linejoin="round"/>
    <path d="M 410.0 162.0 C 408.7030944824219 186.3333282470703 413.6921691894531 210.6666717529297 415.0 235.0 C 419.3760986328125 235.78065490722656 424.59307861328125 236.9196319580078 425.0 231.0 L 423.0 163.0 L 410.0 162.0" stroke-width="2.0" fill="rgb(130, 162, 161)" opacity="1.0" stroke="rgb(0, 0, 0)" stroke-opacity="0.0" stroke-linecap="round" stroke-linejoin="round"/>
    <path d="M 195.0 410.0 C 182.012939453125 425.69500732421875 183.49307250976562 445.6456298828125 185.0 463.0 C 196.06536865234375 464.5152893066406 209.4395294189453 463.8525390625 203.0 449.0 C 209.08590698242188 436.3333435058594 205.3232421875 423.6666564941406 195.0 410.0" stroke-width="2.0" fill="rgb(153, 171, 164)" opacity="1.0" stroke="rgb(0, 0, 0)" stroke-opacity="0.0" stroke-linecap="round" stroke-linejoin="round"/>
    <path d="M 422.0 398.0 C 409.2569580078125 400.403564453125 417.3300476074219 417.2408447265625 411.0 426.0 C 403.3333435058594 427.1986999511719 395.6666564941406 423.39263916015625 388.0 429.0 C 393.00225830078125 441.3333435058594 386.6584777832031 453.6666564941406 387.0 466.0 C 387.9453430175781 456.940673828125 399.28759765625 428.9715270996094 415.0 449.0 C 417.5489501953125 452.8861999511719 414.4874572753906 464.03143310546875 420.0 463.0 C 415.0055847167969 441.6666564941406 421.1468811035156 420.3333435058594 422.0 398.0" stroke-width="2.0" fill="rgb(118, 134, 134)" opacity="1.0" stroke="rgb(0, 0, 0)" stroke-opacity="0.0" stroke-linecap="round" stroke-linejoin="round"/>
    <path d="M 176.0 317.0 L 176.0 351.0 L 201.0 351.0 L 202.0 318.0 L 176.0 317.0" stroke-width="2.0" fill="rgb(122, 126, 123)" opacity="1.0" stroke="rgb(0, 0, 0)" stroke-opacity="0.0" stroke-linecap="round" stroke-linejoin="round"/>
    <path d="M 224.0 246.0 L 225.0 254.0 C 247.34637451171875 250.3488311767578 272.3157958984375 256.3133544921875 293.0 251.0 C 291.3846740722656 236.23931884765625 270.9708557128906 231.2291717529297 263.0 245.0 C 258.12646484375 246.35682678222656 251.28659057617188 243.69017028808594 248.0 237.0 L 234.0 237.0 C 232.89430236816406 240.55067443847656 228.6302947998047 245.05589294433594 224.0 246.0" stroke-width="2.0" fill="rgb(38, 62, 71)" opacity="1.0" stroke="rgb(0, 0, 0)" stroke-opacity="0.0" stroke-linecap="round" stroke-linejoin="round"/>
    <path d="M 183.0 396.0 C 169.2239990234375 402.74188232421875 177.0755157470703 417.9444580078125 171.0 428.0 C 162.3996124267578 426.751708984375 138.6177520751953 421.3833312988281 149.0 438.0 L 145.0 466.0 C 150.3632049560547 459.9156799316406 147.05258178710938 444.0583801269531 161.0 441.0 C 176.31431579589844 441.1579895019531 174.64456176757812 461.5939636230469 179.0 466.0 C 175.29098510742188 447.3333435058594 174.3141326904297 428.6666564941406 183.0 410.0 L 183.0 396.0" stroke-width="2.0" fill="rgb(119, 135, 136)" opacity="1.0" stroke="rgb(0, 0, 0)" stroke-opacity="0.0" stroke-linecap="round" stroke-linejoin="round"/>
    <path d="M 431.0 68.0 C 430.6564025878906 72.0 431.7554626464844 76.0 435.0 80.0 L 502.0 80.0 L 501.0 68.0 L 431.0 68.0" stroke-width="2.0" fill="rgb(186, 157, 123)" opacity="1.0" stroke="rgb(0, 0, 0)" stroke-opacity="0.0" stroke-linecap="round" stroke-linejoin="round"/>
    <path d="M 429.0 45.0 C 420.0314025878906 48.479705810546875 416.8644104003906 60.22601318359375 408.0 67.0 C 406.34942626953125 80.67012786865234 405.5567321777344 102.41580963134766 426.0 96.0 C 431.48382568359375 79.33333587646484 427.9981689453125 62.66666793823242 429.0 45.0" stroke-width="2.0" fill="rgb(248, 238, 215)" opacity="1.0" stroke="rgb(0, 0, 0)" stroke-opacity="0.0" stroke-linecap="round" stroke-linejoin="round"/>
    <path d="M 62.0 397.0 C 59.19709777832031 408.6666564941406 65.12873077392578 420.3333435058594 68.0 432.0 C 68.91726684570312 443.3333435058594 65.93216705322266 454.6666564941406 65.0 466.0 C 66.4353256225586 456.48419189453125 77.90628814697266 428.69329833984375 94.0 449.0 C 97.07270812988281 454.3485107421875 95.10938262939453 462.31304931640625 99.0 466.0 C 98.90491485595703 453.6666564941406 94.13191986083984 441.3333435058594 96.0 429.0 C 88.66666412353516 423.27032470703125 81.33333587646484 427.9360656738281 74.0 428.0 C 66.3318862915039 418.1730651855469 76.00292205810547 406.2210998535156 62.0 397.0" stroke-width="2.0" fill="rgb(136, 138, 130)" opacity="1.0" stroke="rgb(0, 0, 0)" stroke-opacity="0.0" stroke-linecap="round" stroke-linejoin="round"/>
    <path d="M 146.0 318.0 L 146.0 351.0 L 170.0 351.0 L 169.0 317.0 L 146.0 318.0" stroke-width="2.0" fill="rgb(125, 125, 120)" opacity="1.0" stroke="rgb(0, 0, 0)" stroke-opacity="0.0" stroke-linecap="round" stroke-linejoin="round"/>
    <path d="M 98.0 81.0 L 99.0 91.0 L 140.0 91.0 C 140.52755737304688 70.43092346191406 105.56961059570312 53.50288009643555 98.0 81.0" stroke-width="2.0" fill="rgb(141, 169, 164)" opacity="1.0" stroke="rgb(0, 0, 0)" stroke-opacity="0.0" stroke-linecap="round" stroke-linejoin="round"/>
    <path d="M 305.0 399.0 C 306.3545837402344 421.3333435058594 316.8828125 443.6666564941406 307.0 466.0 C 314.3876037597656 461.165771484375 309.6690673828125 443.3636779785156 325.0 441.0 C 339.3346252441406 442.612060546875 338.1487121582031 459.8719787597656 342.0 466.0 C 341.42431640625 453.0 337.8709716796875 440.0 340.0 427.0 C 331.0 424.51318359375 322.0 426.6395263671875 313.0 426.0 C 307.75079345703125 417.48004150390625 315.7004089355469 404.2578430175781 305.0 399.0" stroke-width="2.0" fill="rgb(119, 136, 134)" opacity="1.0" stroke="rgb(0, 0, 0)" stroke-opacity="0.0" stroke-linecap="round" stroke-linejoin="round"/>
    <path d="M 424.0 237.0 C 416.2139587402344 234.05055236816406 414.2669982910156 242.2078857421875 407.0 246.0 C 408.34478759765625 259.3675231933594 403.9328918457031 275.2871398925781 409.0 287.0 C 413.97039794921875 285.7406921386719 422.0990295410156 290.2923583984375 424.0 283.0 L 424.0 237.0" stroke-width="2.0" fill="rgb(101, 130, 135)" opacity="1.0" stroke="rgb(0, 0, 0)" stroke-opacity="0.0" stroke-linecap="round" stroke-linejoin="round"/>
    <path d="M 409.0 324.0 C 437.6764221191406 332.4758605957031 470.6593933105469 331.6954040527344 501.0 326.0 C 504.5599060058594 320.8042907714844 499.4695129394531 317.4408264160156 495.0 319.0 C 467.3333435058594 323.9269714355469 439.6666564941406 323.1596984863281 412.0 317.0 L 409.0 324.0" stroke-width="2.0" fill="rgb(233, 235, 217)" opacity="1.0" stroke="rgb(0, 0, 0)" stroke-opacity="0.0" stroke-linecap="round" stroke-linejoin="round"/>
    <path d="M 319.0 379.0 L 320.0 385.0 C 347.6666564941406 386.4947814941406 375.3333435058594 387.12652587890625 403.0 384.0 L 402.0 378.0 L 319.0 379.0" stroke-width="2.0" fill="rgb(210, 176, 142)" opacity="1.0" stroke="rgb(0, 0, 0)" stroke-opacity="0.0" stroke-linecap="round" stroke-linejoin="round"/>
    <path d="M 462.0 449.0 C 462.74041748046875 453.2618103027344 459.8899230957031 459.3016357421875 465.0 462.0 C 477.3333435058594 458.6643371582031 489.6666564941406 468.0529479980469 502.0 465.0 C 502.1022644042969 458.6666564941406 505.1083068847656 452.3333435058594 501.0 446.0 C 488.66339111328125 446.1853942871094 473.6710510253906 446.08294677734375 462.0 449.0" stroke-width="2.0" fill="rgb(238, 226, 201)" opacity="1.0" stroke="rgb(0, 0, 0)" stroke-opacity="0.0" stroke-linecap="round" stroke-linejoin="round"/>
    <path d="M 369.0 41.0 C 348.462890625 56.33115005493164 379.135986328125 82.26143646240234 391.0 61.0 C 398.0678405761719 49.28429412841797 381.18243408203125 33.83196258544922 369.0 41.0" stroke-width="2.0" fill="rgb(246, 240, 220)" opacity="1.0" stroke="rgb(0, 0, 0)" stroke-opacity="0.0" stroke-linecap="round" stroke-linejoin="round"/>
    <path d="M 417.0 308.0 C 441.6676940917969 316.6225891113281 470.6658935546875 314.5809020996094 497.0 310.0 C 494.6419372558594 307.3436279296875 495.1395263671875 304.2888488769531 492.0 303.0 C 469.3333435058594 305.14044189453125 446.6666564941406 307.97772216796875 424.0 301.0 C 421.4388427734375 300.0528869628906 419.23272705078125 304.9385681152344 417.0 308.0" stroke-width="2.0" fill="rgb(226, 231, 214)" opacity="1.0" stroke="rgb(0, 0, 0)" stroke-opacity="0.0" stroke-linecap="round" stroke-linejoin="round"/>
    <path d="M 261.0 271.0 L 261.0 300.0 L 281.0 301.0 L 282.0 271.0 L 261.0 271.0" stroke-width="2.0" fill="rgb(39, 56, 64)" opacity="1.0" stroke="rgb(0, 0, 0)" stroke-opacity="0.0" stroke-linecap="round" stroke-linejoin="round"/>
    <path d="M 236.0 271.0 L 235.0 300.0 L 255.0 301.0 L 256.0 271.0 L 236.0 271.0" stroke-width="2.0" fill="rgb(38, 56, 65)" opacity="1.0" stroke="rgb(0, 0, 0)" stroke-opacity="0.0" stroke-linecap="round" stroke-linejoin="round"/>
    <path d="M 236.0 306.0 L 235.0 336.0 L 255.0 336.0 L 256.0 307.0 L 236.0 306.0" stroke-width="2.0" fill="rgb(42, 59, 67)" opacity="1.0" stroke="rgb(0, 0, 0)" stroke-opacity="0.0" stroke-linecap="round" stroke-linejoin="round"/>
    <path d="M 252.0 120.0 L 252.0 134.0 C 267.6666564941406 133.82601928710938 283.3333435058594 133.05801391601562 299.0 133.0 L 298.0 120.0 C 283.0 120.13916015625 268.0 120.92399597167969 252.0 120.0" stroke-width="2.0" fill="rgb(110, 128, 131)" opacity="1.0" stroke="rgb(0, 0, 0)" stroke-opacity="0.0" stroke-linecap="round" stroke-linejoin="round"/>
    <path d="M 262.0 306.0 L 261.0 335.0 L 281.0 336.0 L 281.0 306.0 L 262.0 306.0" stroke-width="2.0" fill="rgb(42, 58, 66)" opacity="1.0" stroke="rgb(0, 0, 0)" stroke-opacity="0.0" stroke-linecap="round" stroke-linejoin="round"/>
    <path d="M 236.0 341.0 L 235.0 369.0 L 256.0 370.0 L 256.0 342.0 L 236.0 341.0" stroke-width="2.0" fill="rgb(43, 59, 68)" opacity="1.0" stroke="rgb(0, 0, 0)" stroke-opacity="0.0" stroke-linecap="round" stroke-linejoin="round"/>
    <path d="M 409.0 334.0 C 415.75250244140625 351.3333435058594 409.885009765625 368.6666564941406 411.0 386.0 L 422.0 387.0 L 423.0 338.0 C 418.6666564941406 334.7903747558594 414.3333435058594 336.1353759765625 409.0 334.0" stroke-width="2.0" fill="rgb(174, 200, 199)" opacity="1.0" stroke="rgb(0, 0, 0)" stroke-opacity="0.0" stroke-linecap="round" stroke-linejoin="round"/>
    <path d="M 262.0 341.0 L 262.0 370.0 L 282.0 370.0 L 282.0 342.0 L 262.0 341.0" stroke-width="2.0" fill="rgb(43, 59, 67)" opacity="1.0" stroke="rgb(0, 0, 0)" stroke-opacity="0.0" stroke-linecap="round" stroke-linejoin="round"/>
    <path d="M 442.0 421.0 C 437.634521484375 434.0 440.5602722167969 447.0 441.0 460.0 C 445.0 464.1415100097656 449.0 461.0415344238281 453.0 462.0 C 456.5932312011719 448.6666564941406 454.4767761230469 435.3333435058594 455.0 422.0 L 442.0 421.0" stroke-width="2.0" fill="rgb(248, 236, 212)" opacity="1.0" stroke="rgb(0, 0, 0)" stroke-opacity="0.0" stroke-linecap="round" stroke-linejoin="round"/>
    <path d="M 351.0 275.0 C 331.75830078125 288.20697021484375 360.2613525390625 314.959228515625 371.0 293.0 C 374.9943542480469 282.87872314453125 362.7268981933594 268.7552490234375 351.0 275.0" stroke-width="2.0" fill="rgb(188, 163, 139)" opacity="1.0" stroke="rgb(0, 0, 0)" stroke-opacity="0.0" stroke-linecap="round" stroke-linejoin="round"/>
    <path d="M 381.0 277.0 C 360.3563232421875 285.78070068359375 385.5386657714844 317.2763977050781 398.0 294.0 C 401.65045166015625 285.00872802734375 391.6727600097656 273.3874816894531 381.0 277.0" stroke-width="2.0" fill="rgb(182, 152, 125)" opacity="1.0" stroke="rgb(0, 0, 0)" stroke-opacity="0.0" stroke-linecap="round" stroke-linejoin="round"/>
    <path d="M 168.0 404.0 C 162.543701171875 405.3936462402344 150.78125 400.1687927246094 154.0 409.0 C 145.90936279296875 413.3409118652344 137.02870178222656 412.32110595703125 135.0 424.0 L 168.0 423.0 L 168.0 404.0" stroke-width="2.0" fill="rgb(137, 177, 180)" opacity="1.0" stroke="rgb(0, 0, 0)" stroke-opacity="0.0" stroke-linecap="round" stroke-linejoin="round"/>
    <path d="M 40.0 71.0 C 48.721595764160156 75.61174011230469 65.95934295654297 71.70732116699219 78.0 73.0 C 79.22559356689453 52.66353988647461 52.37248992919922 52.02643585205078 40.0 71.0" stroke-width="2.0" fill="rgb(243, 239, 218)" opacity="1.0" stroke="rgb(0, 0, 0)" stroke-opacity="0.0" stroke-linecap="round" stroke-linejoin="round"/>
    <path d="M 327.0 276.0 C 307.8082580566406 283.68634033203125 328.0414123535156 313.3514709472656 341.0 295.0 C 347.9991149902344 287.21575927734375 337.4760437011719 272.58673095703125 327.0 276.0" stroke-width="2.0" fill="rgb(174, 136, 110)" opacity="1.0" stroke="rgb(0, 0, 0)" stroke-opacity="0.0" stroke-linecap="round" stroke-linejoin="round"/>
    <path d="M 428.0 293.0 C 446.0018005371094 299.83038330078125 468.3320007324219 296.5802001953125 488.0 295.0 L 483.0 288.0 C 466.3333435058594 289.6703186035156 449.6666564941406 289.4179382324219 433.0 287.0 L 428.0 293.0" stroke-width="2.0" fill="rgb(229, 232, 215)" opacity="1.0" stroke="rgb(0, 0, 0)" stroke-opacity="0.0" stroke-linecap="round" stroke-linejoin="round"/>
    <path d="M 194.0 410.0 C 188.16600036621094 419.3333435058594 183.81504821777344 428.6666564941406 185.0 438.0 C 192.52566528320312 439.996826171875 208.41021728515625 444.1571960449219 207.0 431.0 L 194.0 410.0" stroke-width="2.0" fill="rgb(91, 129, 131)" opacity="1.0" stroke="rgb(0, 0, 0)" stroke-opacity="0.0" stroke-linecap="round" stroke-linejoin="round"/>
    <path d="M 188.0 273.0 C 177.1815185546875 278.6933898925781 191.86648559570312 290.24774169921875 179.0 296.0 C 170.83509826660156 311.20867919921875 200.76315307617188 316.8782043457031 198.0 299.0 C 183.96047973632812 291.3205261230469 199.27310180664062 280.2266540527344 188.0 273.0" stroke-width="2.0" fill="rgb(204, 186, 163)" opacity="1.0" stroke="rgb(0, 0, 0)" stroke-opacity="0.0" stroke-linecap="round" stroke-linejoin="round"/>
    <path d="M 335.0 406.0 C 334.40155029296875 408.3190002441406 335.40155029296875 409.8393249511719 338.0 411.0 C 356.6666564941406 409.57135009765625 375.3333435058594 413.6822204589844 394.0 409.0 C 392.2037658691406 399.30731201171875 378.66790771484375 406.8865661621094 372.0 403.0 L 335.0 406.0" stroke-width="2.0" fill="rgb(235, 239, 223)" opacity="1.0" stroke="rgb(0, 0, 0)" stroke-opacity="0.0" stroke-linecap="round" stroke-linejoin="round"/>
    <path d="M 185.0 440.0 L 184.0 462.0 L 203.0 463.0 L 204.0 442.0 L 185.0 440.0" stroke-width="2.0" fill="rgb(217, 215, 199)" opacity="1.0" stroke="rgb(0, 0, 0)" stroke-opacity="0.0" stroke-linecap="round" stroke-linejoin="round"/>
    <path d="M 126.0 272.0 C 118.6164321899414 284.6666564941406 121.81073760986328 297.3333435058594 124.0 310.0 C 141.03656005859375 312.1285095214844 131.50416564941406 287.3471984863281 134.0 277.0 C 132.7111358642578 274.3587951660156 129.65638732910156 270.7340087890625 126.0 272.0" stroke-width="2.0" fill="rgb(214, 187, 156)" opacity="1.0" stroke="rgb(0, 0, 0)" stroke-opacity="0.0" stroke-linecap="round" stroke-linejoin="round"/>
    <path d="M 156.0 270.0 C 148.40943908691406 283.3333435058594 151.8311767578125 296.6666564941406 154.0 310.0 C 158.26536560058594 312.9955749511719 162.54269409179688 309.8172912597656 163.0 305.0 C 160.30589294433594 293.88031005859375 169.1435089111328 277.83062744140625 156.0 270.0" stroke-width="2.0" fill="rgb(214, 190, 161)" opacity="1.0" stroke="rgb(0, 0, 0)" stroke-opacity="0.0" stroke-linecap="round" stroke-linejoin="round"/>
    <path d="M 116.0 370.0 C 105.54049682617188 395.7197265625 156.07644653320312 385.7545166015625 134.0 366.0 C 128.3333282470703 364.6098937988281 122.66666412353516 363.77899169921875 116.0 370.0" stroke-width="2.0" fill="rgb(209, 158, 119)" opacity="1.0" stroke="rgb(0, 0, 0)" stroke-opacity="0.0" stroke-linecap="round" stroke-linejoin="round"/>
    <path d="M 177.0 369.0 C 166.3954620361328 393.6981201171875 216.42247009277344 387.9638977050781 195.0 366.0 C 189.3333282470703 364.4149169921875 183.6666717529297 363.76373291015625 177.0 369.0" stroke-width="2.0" fill="rgb(214, 169, 130)" opacity="1.0" stroke="rgb(0, 0, 0)" stroke-opacity="0.0" stroke-linecap="round" stroke-linejoin="round"/>
    <path d="M 148.0 368.0 C 134.38279724121094 393.103271484375 186.29298400878906 389.2904968261719 165.0 366.0 C 159.6666717529297 364.8242492675781 154.3333282470703 363.7215576171875 148.0 368.0" stroke-width="2.0" fill="rgb(218, 177, 137)" opacity="1.0" stroke="rgb(0, 0, 0)" stroke-opacity="0.0" stroke-linecap="round" stroke-linejoin="round"/>
    <path d="M 169.0 104.0 L 93.0 104.0 L 92.0 107.0 C 117.66666412353516 110.88609313964844 143.3333282470703 108.8880615234375 169.0 108.0 L 169.0 104.0" stroke-width="2.0" fill="rgb(50, 72, 84)" opacity="1.0" stroke="rgb(0, 0, 0)" stroke-opacity="0.0" stroke-linecap="round" stroke-linejoin="round"/>
    <path d="M 35.0 171.0 C 37.2497444152832 180.5908966064453 35.50492858886719 199.62649536132812 50.0 195.0 C 54.3072395324707 187.3333282470703 54.49707794189453 179.6666717529297 56.0 172.0 L 35.0 171.0" stroke-width="2.0" fill="rgb(221, 213, 191)" opacity="1.0" stroke="rgb(0, 0, 0)" stroke-opacity="0.0" stroke-linecap="round" stroke-linejoin="round"/>
    <path d="M 186.0 327.0 C 166.281005859375 332.3429870605469 184.11460876464844 364.4120178222656 198.0 345.0 C 201.45361328125 338.4619140625 195.90773010253906 326.3349609375 186.0 327.0" stroke-width="2.0" fill="rgb(219, 209, 191)" opacity="1.0" stroke="rgb(0, 0, 0)" stroke-opacity="0.0" stroke-linecap="round" stroke-linejoin="round"/>
    <path d="M 153.0 406.0 C 135.0 401.9870910644531 117.0 403.9591064453125 99.0 405.0 C 93.42936706542969 414.71881103515625 109.09307098388672 408.896240234375 113.0 412.0 C 125.70367431640625 407.44146728515625 143.61669921875 416.4177551269531 153.0 406.0" stroke-width="2.0" fill="rgb(236, 240, 224)" opacity="1.0" stroke="rgb(0, 0, 0)" stroke-opacity="0.0" stroke-linecap="round" stroke-linejoin="round"/>
    <path d="M 29.0 167.0 C 36.07111358642578 172.0594024658203 51.614131927490234 169.71739196777344 62.0 169.0 C 58.85482406616211 165.6262969970703 45.76510238647461 156.89141845703125 51.0 150.0 C 39.25200653076172 133.81434631347656 42.35226058959961 164.39849853515625 29.0 167.0" stroke-width="2.0" fill="rgb(61, 78, 83)" opacity="1.0" stroke="rgb(0, 0, 0)" stroke-opacity="0.0" stroke-linecap="round" stroke-linejoin="round"/>
    <path d="M 157.0 323.0 C 143.12144470214844 329.291259765625 149.81385803222656 361.2571716308594 164.0 348.0 C 166.79327392578125 340.247314453125 166.72328186035156 327.4503479003906 157.0 323.0" stroke-width="2.0" fill="rgb(222, 208, 184)" opacity="1.0" stroke="rgb(0, 0, 0)" stroke-opacity="0.0" stroke-linecap="round" stroke-linejoin="round"/>
    <path d="M 125.0 320.0 C 118.56019592285156 329.9536437988281 116.81636810302734 353.0350646972656 132.0 352.0 C 132.15768432617188 342.1482849121094 138.5193634033203 323.3907775878906 125.0 320.0" stroke-width="2.0" fill="rgb(217, 186, 152)" opacity="1.0" stroke="rgb(0, 0, 0)" stroke-opacity="0.0" stroke-linecap="round" stroke-linejoin="round"/>
    <path d="M 346.0 106.0 C 370.0134582519531 110.65215301513672 398.3233337402344 106.67748260498047 424.0 108.0 L 424.0 104.0 L 346.0 106.0" stroke-width="2.0" fill="rgb(42, 64, 74)" opacity="1.0" stroke="rgb(0, 0, 0)" stroke-opacity="0.0" stroke-linecap="round" stroke-linejoin="round"/>
    <path d="M 349.0 411.0 L 363.0 437.0 L 346.0 466.0 C 353.067138671875 461.22418212890625 357.10595703125 448.080322265625 364.0 440.0 C 372.2378845214844 446.3481140136719 374.95379638671875 459.6518859863281 382.0 466.0 C 379.8222351074219 456.6666564941406 372.3902587890625 447.3333435058594 367.0 438.0 C 367.90234375 429.0 376.6936950683594 420.0 381.0 411.0 C 373.4181823730469 414.4797058105469 370.3639221191406 426.22601318359375 365.0 433.0 C 358.2603454589844 425.99066162109375 356.0821533203125 416.3458251953125 349.0 411.0" stroke-width="2.0" fill="rgb(72, 93, 95)" opacity="1.0" stroke="rgb(0, 0, 0)" stroke-opacity="0.0" stroke-linecap="round" stroke-linejoin="round"/>
    <path d="M 109.0 411.0 L 122.0 436.0 L 104.0 466.0 C 111.93234252929688 460.8979187011719 115.76797485351562 447.4084777832031 123.0 439.0 C 131.56492614746094 445.6804504394531 133.52127075195312 459.3195495605469 140.0 466.0 C 137.61346435546875 456.3333435058594 131.64866638183594 446.6666564941406 126.0 437.0 C 126.56343078613281 428.3333435058594 136.80001831054688 419.6666564941406 140.0 411.0 C 132.96302795410156 414.1586608886719 130.44850158691406 425.55047607421875 124.0 432.0 C 118.51980590820312 427.2139892578125 115.68731689453125 415.8221740722656 109.0 411.0" stroke-width="2.0" fill="rgb(66, 88, 89)" opacity="1.0" stroke="rgb(0, 0, 0)" stroke-opacity="0.0" stroke-linecap="round" stroke-linejoin="round"/>
    <path d="M 5.0 447.0 L 0.0 447.0 L 0.0 504.0 L 6.0 501.0 L 5.0 447.0" stroke-width="2.0" fill="rgb(249, 248, 247)" opacity="1.0" stroke="rgb(0, 0, 0)" stroke-opacity="0.0" stroke-linecap="round" stroke-linejoin="round"/>
    <path d="M 459.0 155.0 C 467.3910217285156 164.92825317382812 484.2906494140625 158.76173400878906 496.0 159.0 C 495.3046875 144.28399658203125 473.1971435546875 153.6551055908203 463.0 151.0 L 459.0 155.0" stroke-width="2.0" fill="rgb(214, 194, 166)" opacity="1.0" stroke="rgb(0, 0, 0)" stroke-opacity="0.0" stroke-linecap="round" stroke-linejoin="round"/>
    <path d="M 181.0 294.0 C 166.66171264648438 311.27099609375 204.7771453857422 317.1882019042969 197.0 297.0 C 192.0 291.3748474121094 187.0 290.344970703125 181.0 294.0" stroke-width="2.0" fill="rgb(218, 208, 185)" opacity="1.0" stroke="rgb(0, 0, 0)" stroke-opacity="0.0" stroke-linecap="round" stroke-linejoin="round"/>
    <path d="M 374.0 320.0 C 370.0050048828125 339.4480895996094 411.82135009765625 327.7427978515625 390.0 315.0 C 385.3142395019531 315.29132080078125 378.0256042480469 313.4449157714844 374.0 320.0" stroke-width="2.0" fill="rgb(217, 193, 164)" opacity="1.0" stroke="rgb(0, 0, 0)" stroke-opacity="0.0" stroke-linecap="round" stroke-linejoin="round"/>
    <path d="M 112.0 245.0 C 106.64945220947266 261.8010559082031 125.04395294189453 258.896240234375 136.0 257.0 C 130.94644165039062 247.2378387451172 121.50770568847656 237.45101928710938 112.0 245.0" stroke-width="2.0" fill="rgb(162, 188, 184)" opacity="1.0" stroke="rgb(0, 0, 0)" stroke-opacity="0.0" stroke-linecap="round" stroke-linejoin="round"/>
    <path d="M 196.0 410.0 C 187.9696502685547 415.4501037597656 177.4808349609375 439.1324768066406 192.0 440.0 C 194.4982452392578 430.0512390136719 203.90472412109375 421.6765441894531 196.0 410.0" stroke-width="2.0" fill="rgb(116, 157, 158)" opacity="1.0" stroke="rgb(0, 0, 0)" stroke-opacity="0.0" stroke-linecap="round" stroke-linejoin="round"/>
    <path d="M 323.0 320.0 C 320.29534912109375 339.4326171875 359.48614501953125 326.7218933105469 338.0 315.0 C 333.6449890136719 315.47711181640625 326.6957092285156 313.2131652832031 323.0 320.0" stroke-width="2.0" fill="rgb(215, 191, 163)" opacity="1.0" stroke="rgb(0, 0, 0)" stroke-opacity="0.0" stroke-linecap="round" stroke-linejoin="round"/>
    <path d="M 349.0 319.0 C 341.426513671875 336.9199523925781 384.0782165527344 330.1186218261719 364.0 315.0 C 359.3333435058594 314.3149719238281 354.6666564941406 313.3459777832031 349.0 319.0" stroke-width="2.0" fill="rgb(222, 196, 168)" opacity="1.0" stroke="rgb(0, 0, 0)" stroke-opacity="0.0" stroke-linecap="round" stroke-linejoin="round"/>
    <path d="M 397.0 365.0 C 388.148193359375 366.55511474609375 367.81231689453125 359.10516357421875 371.0 373.0 C 379.6092834472656 374.2219543457031 399.0260009765625 380.25848388671875 397.0 365.0" stroke-width="2.0" fill="rgb(202, 188, 168)" opacity="1.0" stroke="rgb(0, 0, 0)" stroke-opacity="0.0" stroke-linecap="round" stroke-linejoin="round"/>
    <path d="M 313.0 428.0 C 311.3703918457031 438.86798095703125 346.7396240234375 439.77984619140625 339.0 426.0 C 330.6666564941406 425.9222412109375 322.3333435058594 423.3033447265625 313.0 428.0" stroke-width="2.0" fill="rgb(187, 193, 184)" opacity="1.0" stroke="rgb(0, 0, 0)" stroke-opacity="0.0" stroke-linecap="round" stroke-linejoin="round"/>
    <path d="M 42.0 146.0 C 41.11267852783203 153.44659423828125 40.704856872558594 157.9259033203125 34.0 165.0 C 41.05538558959961 164.8109130859375 66.45025634765625 168.96435546875 49.0 156.0 C 51.358795166015625 151.7747039794922 49.9870491027832 141.85113525390625 42.0 146.0" stroke-width="2.0" fill="rgb(60, 77, 82)" opacity="1.0" stroke="rgb(0, 0, 0)" stroke-opacity="0.0" stroke-linecap="round" stroke-linejoin="round"/>
    <path d="M 373.0 346.0 C 373.0924377441406 358.2373962402344 401.0673828125 355.6770324707031 394.0 342.0 C 387.873779296875 341.5788879394531 376.8392028808594 337.7304382324219 373.0 346.0" stroke-width="2.0" fill="rgb(212, 193, 166)" opacity="1.0" stroke="rgb(0, 0, 0)" stroke-opacity="0.0" stroke-linecap="round" stroke-linejoin="round"/>
    <path d="M 55.0 404.0 L 55.0 442.0 C 66.1400146484375 447.56866455078125 62.54465866088867 432.9444885253906 63.0 427.0 C 59.880950927734375 420.540283203125 59.477542877197266 411.84002685546875 55.0 404.0" stroke-width="2.0" fill="rgb(218, 204, 176)" opacity="1.0" stroke="rgb(0, 0, 0)" stroke-opacity="0.0" stroke-linecap="round" stroke-linejoin="round"/>
    <path d="M 201.0 404.0 L 186.0 403.0 C 185.68983459472656 408.7051086425781 174.94618225097656 428.7300109863281 187.0 422.0 C 189.0234375 412.87164306640625 196.59487915039062 405.9620361328125 201.0 417.0 L 201.0 404.0" stroke-width="2.0" fill="rgb(144, 180, 181)" opacity="1.0" stroke="rgb(0, 0, 0)" stroke-opacity="0.0" stroke-linecap="round" stroke-linejoin="round"/>
    <path d="M 375.0 125.0 C 369.2012023925781 141.3025360107422 411.88446044921875 135.658935546875 393.0 123.0 L 375.0 125.0" stroke-width="2.0" fill="rgb(181, 206, 204)" opacity="1.0" stroke="rgb(0, 0, 0)" stroke-opacity="0.0" stroke-linecap="round" stroke-linejoin="round"/>
    <path d="M 348.0 344.0 C 344.0089111328125 361.264892578125 382.167724609375 352.1578063964844 364.0 341.0 C 359.3142395019531 340.8739013671875 352.0256042480469 341.0020446777344 348.0 344.0" stroke-width="2.0" fill="rgb(218, 197, 169)" opacity="1.0" stroke="rgb(0, 0, 0)" stroke-opacity="0.0" stroke-linecap="round" stroke-linejoin="round"/>
    <path d="M 122.0 125.0 C 116.92181396484375 138.86770629882812 151.27513122558594 138.4908447265625 143.0 124.0 L 122.0 125.0" stroke-width="2.0" fill="rgb(182, 208, 204)" opacity="1.0" stroke="rgb(0, 0, 0)" stroke-opacity="0.0" stroke-linecap="round" stroke-linejoin="round"/>
    <path d="M 324.0 365.0 C 316.86627197265625 379.6664733886719 352.5255126953125 379.6664733886719 345.0 365.0 L 324.0 365.0" stroke-width="2.0" fill="rgb(202, 190, 166)" opacity="1.0" stroke="rgb(0, 0, 0)" stroke-opacity="0.0" stroke-linecap="round" stroke-linejoin="round"/>
    <path d="M 324.0 343.0 C 318.1161193847656 358.2132568359375 351.6698913574219 356.7087707519531 343.0 342.0 L 324.0 343.0" stroke-width="2.0" fill="rgb(212, 196, 170)" opacity="1.0" stroke="rgb(0, 0, 0)" stroke-opacity="0.0" stroke-linecap="round" stroke-linejoin="round"/>
    <path d="M 388.0 429.0 C 390.7093505859375 438.73455810546875 416.92242431640625 438.4570617675781 415.0 428.0 L 388.0 429.0" stroke-width="2.0" fill="rgb(178, 185, 180)" opacity="1.0" stroke="rgb(0, 0, 0)" stroke-opacity="0.0" stroke-linecap="round" stroke-linejoin="round"/>
    <path d="M 453.0 238.0 C 469.3333435058594 241.97093200683594 485.6666564941406 239.15158081054688 502.0 240.0 L 502.0 236.0 L 453.0 238.0" stroke-width="2.0" fill="rgb(192, 167, 140)" opacity="1.0" stroke="rgb(0, 0, 0)" stroke-opacity="0.0" stroke-linecap="round" stroke-linejoin="round"/>
    <path d="M 415.0 237.0 C 409.53582763671875 245.8944091796875 410.6457214355469 258.06097412109375 423.0 254.0 C 424.3883361816406 246.60107421875 427.32977294921875 233.34481811523438 415.0 237.0" stroke-width="2.0" fill="rgb(76, 108, 116)" opacity="1.0" stroke="rgb(0, 0, 0)" stroke-opacity="0.0" stroke-linecap="round" stroke-linejoin="round"/>
    <path d="M 201.0 419.0 C 198.2358856201172 426.714599609375 185.6427001953125 445.5697937011719 204.0 440.0 C 210.46778869628906 433.3333435058594 204.0947723388672 426.6666564941406 201.0 419.0" stroke-width="2.0" fill="rgb(54, 86, 91)" opacity="1.0" stroke="rgb(0, 0, 0)" stroke-opacity="0.0" stroke-linecap="round" stroke-linejoin="round"/>
    <path d="M 349.0 366.0 C 344.97210693359375 379.65582275390625 373.5223083496094 378.2475891113281 367.0 365.0 L 349.0 366.0" stroke-width="2.0" fill="rgb(207, 195, 171)" opacity="1.0" stroke="rgb(0, 0, 0)" stroke-opacity="0.0" stroke-linecap="round" stroke-linejoin="round"/>
    <path d="M 216.0 120.0 C 206.4541015625 134.39767456054688 230.237548828125 139.7428741455078 228.0 124.0 C 224.3333282470703 119.24180603027344 220.6666717529297 119.91939544677734 216.0 120.0" stroke-width="2.0" fill="rgb(99, 115, 116)" opacity="1.0" stroke="rgb(0, 0, 0)" stroke-opacity="0.0" stroke-linecap="round" stroke-linejoin="round"/>
    <path d="M 201.0 98.0 C 183.98362731933594 113.98023986816406 222.19056701660156 113.98023986816406 206.0 98.0 L 201.0 98.0" stroke-width="2.0" fill="rgb(90, 105, 106)" opacity="1.0" stroke="rgb(0, 0, 0)" stroke-opacity="0.0" stroke-linecap="round" stroke-linejoin="round"/>
    <path d="M 458.0 241.0 C 456.3916320800781 248.23025512695312 447.7559509277344 263.06329345703125 461.0 262.0 C 466.0431213378906 255.0 459.9605712890625 248.0 458.0 241.0" stroke-width="2.0" fill="rgb(76, 91, 91)" opacity="1.0" stroke="rgb(0, 0, 0)" stroke-opacity="0.0" stroke-linecap="round" stroke-linejoin="round"/>
    <path d="M 190.0 273.0 C 180.43423461914062 273.3023986816406 181.8791046142578 293.68121337890625 190.0 291.0 C 192.5573272705078 285.3333435058594 194.158203125 279.6666564941406 190.0 273.0" stroke-width="2.0" fill="rgb(181, 146, 124)" opacity="1.0" stroke="rgb(0, 0, 0)" stroke-opacity="0.0" stroke-linecap="round" stroke-linejoin="round"/>
    <path d="M 231.0 120.0 C 228.27125549316406 127.13826751708984 229.08030700683594 137.3275909423828 239.0 134.0 C 239.1648406982422 127.61699676513672 241.60089111328125 116.85913848876953 231.0 120.0" stroke-width="2.0" fill="rgb(99, 113, 114)" opacity="1.0" stroke="rgb(0, 0, 0)" stroke-opacity="0.0" stroke-linecap="round" stroke-linejoin="round"/>
    <path d="M 277.0 98.0 C 266.8826599121094 102.69315338134766 277.18023681640625 117.22380065917969 285.0 109.0 C 284.19036865234375 104.970458984375 284.0245666503906 96.16275787353516 277.0 98.0" stroke-width="2.0" fill="rgb(90, 105, 111)" opacity="1.0" stroke="rgb(0, 0, 0)" stroke-opacity="0.0" stroke-linecap="round" stroke-linejoin="round"/>
    <path d="M 299.0 438.0 C 294.6424255371094 446.9558410644531 308.62408447265625 453.7940368652344 306.0 462.0 C 308.4161376953125 454.57440185546875 312.58038330078125 443.27166748046875 299.0 438.0" stroke-width="2.0" fill="rgb(92, 118, 121)" opacity="1.0" stroke="rgb(0, 0, 0)" stroke-opacity="0.0" stroke-linecap="round" stroke-linejoin="round"/>
    <path d="M 253.0 120.0 C 251.15792846679688 124.26100158691406 250.35096740722656 138.57754516601562 257.0 131.0 C 263.6725769042969 139.66354370117188 260.05780029296875 127.03760528564453 262.0 123.0 C 259.3333435058594 119.87567138671875 256.6666564941406 119.80320739746094 253.0 120.0" stroke-width="2.0" fill="rgb(66, 79, 84)" opacity="1.0" stroke="rgb(0, 0, 0)" stroke-opacity="0.0" stroke-linecap="round" stroke-linejoin="round"/>
    <path d="M 182.0 396.0 C 172.0193634033203 399.88330078125 170.87217712402344 422.760498046875 181.0 412.0 C 182.08741760253906 407.0 183.66668701171875 402.0 182.0 396.0" stroke-width="2.0" fill="rgb(185, 194, 188)" opacity="1.0" stroke="rgb(0, 0, 0)" stroke-opacity="0.0" stroke-linecap="round" stroke-linejoin="round"/>
    <path d="M 325.0 98.0 C 324.4457092285156 105.88762664794922 323.5296325683594 114.13702392578125 334.0 111.0 C 334.07818603515625 103.92181396484375 336.14105224609375 94.85894012451172 325.0 98.0" stroke-width="2.0" fill="rgb(84, 99, 105)" opacity="1.0" stroke="rgb(0, 0, 0)" stroke-opacity="0.0" stroke-linecap="round" stroke-linejoin="round"/>
    <path d="M 183.0 98.0 C 182.92181396484375 105.07818603515625 180.8589324951172 114.14105987548828 191.0 111.0 C 195.581787109375 105.43016052246094 191.32090759277344 95.2303695678711 183.0 98.0" stroke-width="2.0" fill="rgb(63, 75, 81)" opacity="1.0" stroke="rgb(0, 0, 0)" stroke-opacity="0.0" stroke-linecap="round" stroke-linejoin="round"/>
    <path d="M 290.0 120.0 C 287.60345458984375 126.52411651611328 287.514404296875 136.78810119628906 297.0 134.0 C 296.23638916015625 127.61699676513672 301.0542297363281 116.85913848876953 290.0 120.0" stroke-width="2.0" fill="rgb(83, 96, 98)" opacity="1.0" stroke="rgb(0, 0, 0)" stroke-opacity="0.0" stroke-linecap="round" stroke-linejoin="round"/>
    <path d="M 385.0 365.0 C 378.08447265625 378.2996826171875 403.28619384765625 378.02532958984375 396.0 365.0 L 385.0 365.0" stroke-width="2.0" fill="rgb(200, 184, 164)" opacity="1.0" stroke="rgb(0, 0, 0)" stroke-opacity="0.0" stroke-linecap="round" stroke-linejoin="round"/>
    <path d="M 371.0 365.0 C 366.0975036621094 377.9342956542969 388.8783264160156 378.05780029296875 383.0 365.0 L 371.0 365.0" stroke-width="2.0" fill="rgb(214, 201, 181)" opacity="1.0" stroke="rgb(0, 0, 0)" stroke-opacity="0.0" stroke-linecap="round" stroke-linejoin="round"/>
    <path d="M 304.0 98.0 C 302.2609558105469 101.52072143554688 301.4361572265625 116.48213958740234 307.0 108.0 C 315.4532775878906 119.30352783203125 314.7643737792969 92.91755676269531 304.0 98.0" stroke-width="2.0" fill="rgb(62, 75, 79)" opacity="1.0" stroke="rgb(0, 0, 0)" stroke-opacity="0.0" stroke-linecap="round" stroke-linejoin="round"/>
    <path d="M 414.0 163.0 C 409.7786560058594 168.24021911621094 420.7407531738281 172.00294494628906 424.0 178.0 C 424.0589294433594 171.35992431640625 426.3343200683594 157.0966339111328 414.0 163.0" stroke-width="2.0" fill="rgb(126, 154, 158)" opacity="1.0" stroke="rgb(0, 0, 0)" stroke-opacity="0.0" stroke-linecap="round" stroke-linejoin="round"/>
    <path d="M 258.0 98.0 C 257.171875 102.32808685302734 258.4600830078125 117.35945129394531 262.0 106.0 C 269.90521240234375 119.02981567382812 271.74346923828125 97.81983947753906 266.0 98.0 C 267.7314147949219 105.48214721679688 261.4354553222656 101.2243881225586 258.0 98.0" stroke-width="2.0" fill="rgb(61, 74, 75)" opacity="1.0" stroke="rgb(0, 0, 0)" stroke-opacity="0.0" stroke-linecap="round" stroke-linejoin="round"/>
    <path d="M 119.0 413.0 C 112.8369369506836 425.1205749511719 132.23504638671875 426.5339050292969 131.0 415.0 L 119.0 413.0" stroke-width="2.0" fill="rgb(156, 189, 189)" opacity="1.0" stroke="rgb(0, 0, 0)" stroke-opacity="0.0" stroke-linecap="round" stroke-linejoin="round"/>
    <path d="M 496.0 242.0 C 497.5557861328125 248.7074432373047 492.3521728515625 260.9988708496094 501.0 263.0 C 499.0855712890625 256.5810852050781 505.2760314941406 242.0572967529297 496.0 242.0" stroke-width="2.0" fill="rgb(241, 227, 198)" opacity="1.0" stroke="rgb(0, 0, 0)" stroke-opacity="0.0" stroke-linecap="round" stroke-linejoin="round"/>
    <path d="M 290.0 98.0 C 289.4457092285156 105.88762664794922 288.5296325683594 114.13702392578125 299.0 111.0 C 298.0938720703125 105.62583923339844 292.93072509765625 102.45719909667969 299.0 99.0 L 290.0 98.0" stroke-width="2.0" fill="rgb(78, 92, 92)" opacity="1.0" stroke="rgb(0, 0, 0)" stroke-opacity="0.0" stroke-linecap="round" stroke-linejoin="round"/>
    <path d="M 61.0 397.0 C 59.6986198425293 407.25689697265625 71.69075775146484 424.1694641113281 70.0 405.0 L 61.0 397.0" stroke-width="2.0" fill="rgb(196, 188, 174)" opacity="1.0" stroke="rgb(0, 0, 0)" stroke-opacity="0.0" stroke-linecap="round" stroke-linejoin="round"/>
    <path d="M 215.0 98.0 C 209.20045471191406 113.98023986816406 230.98045349121094 113.98023986816406 226.0 98.0 C 219.6968994140625 96.40912628173828 226.46018981933594 112.24874877929688 218.0 106.0 C 217.2716064453125 103.60900115966797 219.8015594482422 98.74465942382812 215.0 98.0" stroke-width="2.0" fill="rgb(68, 82, 86)" opacity="1.0" stroke="rgb(0, 0, 0)" stroke-opacity="0.0" stroke-linecap="round" stroke-linejoin="round"/>
    <path d="M 299.0 438.0 C 292.7014465332031 445.418701171875 311.4945068359375 459.9126892089844 309.0 446.0 L 299.0 438.0" stroke-width="2.0" fill="rgb(87, 116, 121)" opacity="1.0" stroke="rgb(0, 0, 0)" stroke-opacity="0.0" stroke-linecap="round" stroke-linejoin="round"/>
    <path d="M 421.0 399.0 C 412.6360168457031 395.9283752441406 411.9041748046875 419.25018310546875 420.0 413.0 L 421.0 399.0" stroke-width="2.0" fill="rgb(192, 199, 191)" opacity="1.0" stroke="rgb(0, 0, 0)" stroke-opacity="0.0" stroke-linecap="round" stroke-linejoin="round"/>
    <path d="M 249.0 98.0 C 244.97000122070312 99.07624053955078 238.90292358398438 117.19631958007812 246.0 109.0 C 256.00946044921875 113.5971908569336 254.07064819335938 106.63038635253906 249.0 98.0" stroke-width="2.0" fill="rgb(61, 73, 81)" opacity="1.0" stroke="rgb(0, 0, 0)" stroke-opacity="0.0" stroke-linecap="round" stroke-linejoin="round"/>
    <path d="M 285.0 120.0 C 279.587890625 125.58525085449219 277.5898132324219 125.58525085449219 273.0 120.0 C 272.59423828125 124.66666412353516 276.492431640625 129.3333282470703 278.0 134.0 C 282.8140563964844 131.63340759277344 282.4345397949219 125.02478790283203 285.0 120.0" stroke-width="2.0" fill="rgb(56, 72, 75)" opacity="1.0" stroke="rgb(0, 0, 0)" stroke-opacity="0.0" stroke-linecap="round" stroke-linejoin="round"/>
    <path d="M 355.0 282.0 C 345.6793518066406 292.82769775390625 368.7530212402344 294.8271179199219 362.0 283.0 L 355.0 282.0" stroke-width="2.0" fill="rgb(61, 84, 94)" opacity="1.0" stroke="rgb(0, 0, 0)" stroke-opacity="0.0" stroke-linecap="round" stroke-linejoin="round"/>
    <path d="M 138.0 124.0 C 130.12554931640625 132.53387451171875 146.52294921875 138.68002319335938 144.0 127.0 C 142.8393096923828 124.40154266357422 141.31898498535156 123.40154266357422 138.0 124.0" stroke-width="2.0" fill="rgb(190, 216, 213)" opacity="1.0" stroke="rgb(0, 0, 0)" stroke-opacity="0.0" stroke-linecap="round" stroke-linejoin="round"/>
    <path d="M 129.0 124.0 C 123.88916015625 133.6475067138672 135.6364288330078 138.9552764892578 135.0 127.0 C 133.8393096923828 124.40154266357422 132.31898498535156 123.40154266357422 129.0 124.0" stroke-width="2.0" fill="rgb(189, 214, 210)" opacity="1.0" stroke="rgb(0, 0, 0)" stroke-opacity="0.0" stroke-linecap="round" stroke-linejoin="round"/>
    <path d="M 185.0 396.0 C 189.68162536621094 399.54931640625 198.6554718017578 398.3141174316406 205.0 397.0 C 200.6501922607422 392.35638427734375 192.0123291015625 396.1285705566406 185.0 396.0" stroke-width="2.0" fill="rgb(82, 127, 139)" opacity="1.0" stroke="rgb(0, 0, 0)" stroke-opacity="0.0" stroke-linecap="round" stroke-linejoin="round"/>
    <path d="M 231.0 98.0 C 230.92181396484375 105.07818603515625 228.8589324951172 114.14105987548828 239.0 111.0 C 239.94711303710938 106.78099822998047 235.06143188476562 111.21900177001953 233.0 107.0 L 231.0 98.0" stroke-width="2.0" fill="rgb(46, 58, 59)" opacity="1.0" stroke="rgb(0, 0, 0)" stroke-opacity="0.0" stroke-linecap="round" stroke-linejoin="round"/>
    <path d="M 123.0 124.0 C 121.89917755126953 127.03946685791016 122.16366577148438 132.61354064941406 125.0 134.0 L 123.0 124.0" stroke-width="2.0" fill="rgb(200, 227, 222)" opacity="1.0" stroke="rgb(0, 0, 0)" stroke-opacity="0.0" stroke-linecap="round" stroke-linejoin="round"/>
    <path d="M 376.0 124.0 C 376.16009521484375 127.03946685791016 374.4136657714844 132.61354064941406 378.0 134.0 L 376.0 124.0" stroke-width="2.0" fill="rgb(198, 226, 225)" opacity="1.0" stroke="rgb(0, 0, 0)" stroke-opacity="0.0" stroke-linecap="round" stroke-linejoin="round"/>
  </g>
</svg>
