<?xml version="1.0" ?>
<svg xmlns="http://www.w3.org/2000/svg" version="1.1" width="512" height="320">
  <defs/>
  <g>
    <path d="M -10.0 -10.0 C -9.0 -10.0 512.0 0.0 513.0 0.0 C 514.0 0.0 512.0 320.0 513.0 320.0 C 513.0 321.0 0.0 320.0 0.0 321.0 C 0.0 320.0 0.0 321.0 -10.0 -10.0 L -10.0 -10.0" stroke-width="2.0" fill="rgb(244, 235, 236)" opacity="0.7538103"/>
    <path d="M 494.3034973144531 140.54502868652344 C 494.9460144042969 139.53814697265625 495.3922119140625 138.8672637939453 494.303466796875 140.5672607421875 C 495.55908203125 141.3793487548828 494.4451904296875 140.7284698486328 494.49859619140625 140.6726531982422 C 495.2892150878906 141.19692993164062 495.77197265625 141.6630859375 497.6564636230469 142.60723876953125 C 495.93634033203125 141.71524047851562 495.083251953125 141.0751190185547 496.6213073730469 142.06898498535156 L 494.3034973144531 140.54502868652344" stroke-width="2.0" fill="rgb(46, 255, 255)" opacity="0.11487483"/>
    <path d="M 345.1033020019531 24.935474395751953 C 344.95574951171875 25.76465606689453 344.91668701171875 25.448152542114258 344.62451171875 28.513179779052734 C 344.8023986816406 25.16506004333496 344.9122619628906 26.73007583618164 345.5384216308594 29.300853729248047 C 345.3221435546875 27.27178382873535 344.04193115234375 24.569692611694336 345.7405700683594 29.795185089111328 C 344.3595275878906 25.52850914001465 344.9027404785156 26.61232566833496 344.87603759765625 25.74791145324707 L 345.1033020019531 24.935474395751953" stroke-width="2.0" fill="rgb(255, 112, 56)" opacity="0.18900809"/>
    <path d="M 216.8353729248047 195.51197814941406 C 208.1385498046875 218.20826721191406 197.000732421875 233.5844268798828 178.57810974121094 237.44447326660156 C 135.94837951660156 219.38430786132812 137.08287048339844 248.71408081054688 113.11931610107422 232.74986267089844 C 79.12140655517578 199.97059631347656 69.56938171386719 134.48123168945312 110.45123291015625 116.39627838134766 C 262.4285888671875 110.52159118652344 195.58554077148438 127.44661712646484 186.4219207763672 175.34326171875 L 216.8353729248047 195.51197814941406" stroke-width="2.0" fill="rgb(3, 4, 3)" opacity="0.950617"/>
    <path d="M 5.747089862823486 155.35748291015625 C 5.8642497062683105 155.4685821533203 6.203694820404053 155.5630340576172 4.7966389656066895 154.8229217529297 C 6.472129821777344 155.71864318847656 5.99599027633667 155.53485107421875 5.302812099456787 155.00552368164062 C 6.053208351135254 155.6203155517578 7.850481033325195 156.60702514648438 9.351683616638184 158.40377807617188 C 7.5920939445495605 156.30979919433594 6.075040817260742 155.69580078125 6.077906131744385 155.55728149414062 L 5.747089862823486 155.35748291015625" stroke-width="2.0" fill="rgb(255, 51, 182)" opacity="0.07212296"/>
    <path d="M 307.8504638671875 29.368093490600586 C 307.91400146484375 27.79140853881836 307.9412536621094 28.770978927612305 308.7309265136719 28.98261833190918 C 308.7527770996094 29.138778686523438 306.305419921875 27.265817642211914 308.4840393066406 28.874412536621094 C 307.29669189453125 27.950502395629883 308.4276123046875 28.786298751831055 307.9513244628906 28.4554386138916 C 308.1279602050781 27.68391227722168 307.63720703125 30.34854507446289 308.0920104980469 27.332096099853516 L 307.8504638671875 29.368093490600586" stroke-width="2.0" fill="rgb(196, 114, 192)" opacity="0.14405641"/>
    <path d="M 246.00099182128906 114.93508911132812 C 245.2017059326172 115.35720825195312 245.74925231933594 115.12798309326172 246.40545654296875 114.62274932861328 C 246.55238342285156 114.64222717285156 246.3023223876953 114.58071899414062 245.9337158203125 114.99041748046875 C 247.9801025390625 113.4014663696289 246.4656982421875 114.66651916503906 245.67190551757812 115.15205383300781 C 246.8983612060547 114.3023452758789 246.26788330078125 114.80829620361328 244.4728240966797 115.81200408935547 L 246.00099182128906 114.93508911132812" stroke-width="2.0" fill="rgb(102, 255, 159)" opacity="0.10911773"/>
    <path d="M 9.331408500671387 162.61370849609375 C 9.003846168518066 162.258544921875 7.600019931793213 161.4981689453125 9.548821449279785 164.37806701660156 C 10.832107543945312 163.30841064453125 8.557629585266113 163.06605529785156 12.001474380493164 168.111083984375 C 9.813382148742676 164.63284301757812 8.834821701049805 163.74832153320312 9.697982788085938 163.2429962158203 C 12.034914016723633 160.1844024658203 10.649552345275879 160.69525146484375 9.447036743164062 163.56678771972656 L 9.331408500671387 162.61370849609375" stroke-width="2.0" fill="rgb(40, 78, 168)" opacity="0.0"/>
    <path d="M 27.551700592041016 187.95225524902344 C 26.74847412109375 188.80453491210938 27.430145263671875 187.7491455078125 27.919591903686523 187.95529174804688 C 29.28916358947754 187.55511474609375 29.64259147644043 187.2955780029297 29.370018005371094 187.40574645996094 C 28.917728424072266 187.66636657714844 27.735275268554688 187.9949493408203 27.906644821166992 187.93215942382812 C 27.944862365722656 187.61679077148438 27.752986907958984 188.8048095703125 27.91646385192871 187.9178466796875 L 27.551700592041016 187.95225524902344" stroke-width="2.0" fill="rgb(87, 197, 84)" opacity="0.28803173"/>
    <path d="M 394.5008850097656 304.86798095703125 C 394.11651611328125 306.7318115234375 393.37982177734375 306.69476318359375 394.93682861328125 304.8704833984375 C 394.6183776855469 304.1731872558594 395.93072509765625 306.763427734375 396.53497314453125 305.7047119140625 C 394.9824523925781 306.0518493652344 397.4429016113281 305.38543701171875 393.84161376953125 305.8199462890625 C 394.386474609375 305.5692443847656 395.1285400390625 306.4010009765625 394.3570861816406 304.0659484863281 L 394.5008850097656 304.86798095703125" stroke-width="2.0" fill="rgb(65, 110, 39)" opacity="0.0"/>
    <path d="M 414.35321044921875 53.28786849975586 C 413.90924072265625 54.820045471191406 414.2464294433594 56.06599426269531 413.486083984375 57.27925491333008 C 413.70318603515625 57.28861618041992 412.208984375 57.70232391357422 413.2257385253906 57.42757034301758 C 413.3317565917969 57.22243881225586 413.8830261230469 57.70038604736328 414.0863037109375 54.733821868896484 C 414.1104736328125 54.15999221801758 414.0420227050781 55.65720748901367 414.0271911621094 55.184913635253906 L 414.35321044921875 53.28786849975586" stroke-width="2.0" fill="rgb(85, 255, 87)" opacity="0.23525481"/>
    <path d="M 21.90235710144043 123.17731475830078 C 21.978071212768555 123.67461395263672 21.93909454345703 123.14236450195312 22.43484878540039 125.30558013916016 C 22.158639907836914 124.02172088623047 21.875471115112305 122.69805145263672 22.54528045654297 125.71414947509766 C 22.042097091674805 123.3513412475586 21.992061614990234 123.43846893310547 22.424976348876953 125.26126861572266 C 21.84054183959961 122.63213348388672 22.112478256225586 123.92085266113281 22.35011100769043 124.73129272460938 L 21.90235710144043 123.17731475830078" stroke-width="2.0" fill="rgb(125, 126, 255)" opacity="0.075539134"/>
    <path d="M 418.509765625 114.66405487060547 C 435.42352294921875 140.86807250976562 414.51239013671875 151.83346557617188 373.30718994140625 174.1890869140625 C 360.3884582519531 183.47540283203125 434.8525695800781 70.96040344238281 365.4018249511719 171.10269165039062 C 359.2554016113281 120.21028900146484 368.64434814453125 79.78736877441406 376.31878662109375 89.09611511230469 C 434.3826599121094 97.97412872314453 329.07373046875 211.8353271484375 412.7216491699219 107.54454040527344 L 418.509765625 114.66405487060547" stroke-width="2.0" fill="rgb(187, 22, 42)" opacity="1.0"/>
    <path d="M 414.6352233886719 93.80277252197266 C 415.94219970703125 93.33465576171875 415.6709289550781 93.38450622558594 416.32452392578125 91.69384002685547 C 418.7499694824219 93.1907958984375 418.2728271484375 92.66596221923828 418.63360595703125 93.08257293701172 C 417.2665710449219 95.66049194335938 417.98040771484375 95.60614776611328 419.0021667480469 97.6973648071289 C 416.4626159667969 95.80440521240234 416.6146240234375 95.99585723876953 415.5124206542969 96.6712646484375 L 414.6352233886719 93.80277252197266" stroke-width="2.0" fill="rgb(53, 68, 132)" opacity="0.0"/>
    <path d="M 270.6155090332031 265.16534423828125 C 270.5477294921875 264.8025207519531 270.015625 263.8968200683594 270.6946716308594 263.0716552734375 C 270.3601379394531 263.5167541503906 270.23779296875 264.3800354003906 270.6562194824219 265.1173400878906 C 270.2141418457031 264.74664306640625 271.8572692871094 266.6574401855469 273.1921691894531 267.43414306640625 C 270.2347717285156 265.3297424316406 270.5741882324219 264.99951171875 270.3479309082031 263.9824523925781 L 270.6155090332031 265.16534423828125" stroke-width="2.0" fill="rgb(169, 255, 223)" opacity="0.17881496"/>
    <path d="M 212.36074829101562 206.0404052734375 C 194.53785705566406 241.84829711914062 179.52728271484375 236.96453857421875 178.5513153076172 237.44236755371094 C 172.2726593017578 235.4015350341797 140.79751586914062 229.82504272460938 92.34292602539062 197.2835235595703 C 77.72716522216797 148.8429412841797 86.75020599365234 146.6624755859375 101.20532989501953 121.55361938476562 C 249.12391662597656 114.10718536376953 170.81761169433594 151.18333435058594 205.88815307617188 187.05523681640625 L 212.36074829101562 206.0404052734375" stroke-width="2.0" fill="rgb(0, 0, 0)" opacity="0.96446884"/>
    <path d="M 80.49632263183594 268.7158203125 C 80.8248291015625 269.6468200683594 80.1641845703125 270.4659423828125 79.34954833984375 270.2754211425781 C 78.71784210205078 270.7715148925781 77.87068176269531 270.091064453125 77.95950317382812 269.2067565917969 C 77.4307861328125 268.6092834472656 77.94156646728516 267.64581298828125 78.84711456298828 267.6047058105469 C 79.4108657836914 266.9542236328125 80.35276794433594 267.4604797363281 80.50344848632812 268.496826171875 L 80.49632263183594 268.7158203125" stroke-width="2.0" fill="rgb(201, 218, 133)" opacity="0.0"/>
    <path d="M 200.5808563232422 14.515904426574707 C 201.98512268066406 15.0224027633667 202.0032501220703 15.601827621459961 202.4119873046875 13.8275146484375 C 203.19613647460938 15.08432388305664 202.937255859375 14.460556983947754 203.59519958496094 13.876239776611328 C 202.0050506591797 15.834938049316406 202.6785888671875 15.487653732299805 203.6664276123047 16.417484283447266 C 201.82432556152344 14.768887519836426 202.14535522460938 15.377120018005371 201.35935974121094 16.2777099609375 L 200.5808563232422 14.515904426574707" stroke-width="2.0" fill="rgb(93, 30, 148)" opacity="0.0"/>
    <path d="M 477.49249267578125 224.25253295898438 C 476.7137451171875 223.1014404296875 475.5542907714844 223.87664794921875 478.62890625 224.2623291015625 C 477.884765625 225.49661254882812 478.2984619140625 223.72727966308594 479.10400390625 223.13735961914062 C 477.5104675292969 225.08517456054688 478.6871032714844 224.0203857421875 479.33349609375 225.86859130859375 C 476.1053771972656 222.43521118164062 476.5086669921875 221.81942749023438 477.99407958984375 225.27955627441406 L 477.49249267578125 224.25253295898438" stroke-width="2.0" fill="rgb(113, 255, 47)" opacity="0.0"/>
    <path d="M 35.6563606262207 136.2437286376953 C 35.02838134765625 135.97628784179688 35.10505294799805 136.0801239013672 37.504119873046875 136.94705200195312 C 37.40822982788086 139.5683135986328 37.2515754699707 139.8972930908203 37.720420837402344 133.86553955078125 C 37.50862121582031 136.42652893066406 37.29269790649414 139.04139709472656 37.498626708984375 136.85476684570312 C 34.92497634887695 135.93711853027344 36.71237564086914 136.76089477539062 34.27505874633789 135.7000274658203 L 35.6563606262207 136.2437286376953" stroke-width="2.0" fill="rgb(97, 152, 240)" opacity="0.26420698"/>
  </g>
</svg>
