<?xml version="1.0" ?>
<svg xmlns="http://www.w3.org/2000/svg" version="1.1" width="473" height="512">
  <defs/>
  <g>
    <path d="M 0.0 0.0 L 473.0 0.0 L 473.0 512.0 L 0.0 512.0 L 0.0 0.0" stroke-width="0.0" fill="rgb(255, 255, 255)" opacity="1.0" stroke="rgb(0, 0, 0)" stroke-opacity="0.0" stroke-linecap="round" stroke-linejoin="round"/>
    <path d="M 1.0 0.0 L 0.0 511.0 L 472.0 511.0 L 472.0 0.0 L 1.0 0.0" stroke-width="2.0" fill="rgb(255, 255, 255)" opacity="1.0" stroke="rgb(0, 0, 0)" stroke-opacity="0.0" stroke-linecap="round" stroke-linejoin="round"/>
    <path d="M 429.0 256.0 C 409.8576354980469 242.22581481933594 373.3750915527344 249.95904541015625 371.0 221.0 C 376.21624755859375 213.48382568359375 400.38525390625 206.22802734375 387.0 197.0 C 368.3333435058594 190.0283203125 349.6666564941406 187.59800720214844 331.0 177.0 C 328.3675537109375 165.4959259033203 333.0342102050781 161.31712341308594 345.0 153.0 C 345.318359375 150.0 345.1511535644531 147.0 343.0 144.0 C 312.3333435058594 129.2401580810547 281.6666564941406 117.90914154052734 251.0 97.0 C 240.4779052734375 89.09033203125 242.9066162109375 69.05088806152344 232.0 72.0 C 233.6929168701172 95.0051498413086 202.83859252929688 107.6972885131836 184.0 119.0 L 129.0 144.0 C 121.11062622070312 158.56532287597656 149.64129638671875 161.10777282714844 141.0 177.0 C 120.33333587646484 190.35777282714844 99.66666412353516 187.49142456054688 79.0 202.0 C 83.52301788330078 209.9174041748047 94.18577575683594 213.56130981445312 101.0 221.0 C 99.70940399169922 251.99685668945312 56.12251281738281 239.63980102539062 43.0 259.0 C 52.399024963378906 266.4161376953125 65.95153045654297 261.17816162109375 77.0 268.0 C 80.95317840576172 284.3568420410156 72.08424377441406 303.3016662597656 80.0 318.0 C 89.99139404296875 311.5701599121094 106.0731201171875 325.9309387207031 116.0 312.0 C 123.08250427246094 326.02740478515625 137.7005157470703 312.1905822753906 148.0 318.0 C 155.6666717529297 316.19927978515625 163.3333282470703 322.109619140625 171.0 314.0 C 180.3333282470703 319.6322937011719 189.6666717529297 320.11334228515625 199.0 314.0 C 208.0072479248047 318.22454833984375 198.08572387695312 329.3951721191406 208.0 332.0 L 270.0 332.0 C 279.5307922363281 328.17938232421875 271.84857177734375 317.0179748535156 277.0 310.0 C 283.3740234375 321.7517395019531 304.4074401855469 322.08514404296875 305.0 307.0 C 311.5959777832031 323.3525085449219 330.570556640625 319.7636413574219 336.0 308.0 C 337.4393310546875 312.25750732421875 335.5552062988281 314.6141052246094 340.0 318.0 C 347.1373596191406 316.589111328125 362.8674011230469 322.3765869140625 361.0 309.0 C 366.5924987792969 305.3734130859375 364.71087646484375 314.4920349121094 368.0 317.0 C 375.8934020996094 318.261474609375 389.33111572265625 321.5616455078125 390.0 309.0 C 405.3932800292969 300.8244934082031 382.6872863769531 273.1755065917969 401.0 265.0 C 409.5598449707031 262.8442687988281 425.3557434082031 266.339111328125 429.0 256.0" stroke-width="2.0" fill="rgb(78, 105, 128)" opacity="1.0" stroke="rgb(0, 0, 0)" stroke-opacity="0.0" stroke-linecap="round" stroke-linejoin="round"/>
    <path d="M 471.0 321.0 C 454.6666564941406 317.7341003417969 438.3333435058594 321.3510437011719 422.0 320.0 C 418.31060791015625 329.41754150390625 417.93255615234375 325.55828857421875 415.0 320.0 L 313.0 320.0 C 309.94134521484375 318.26007080078125 310.05865478515625 315.7899169921875 307.0 320.0 L 277.0 319.0 C 276.7168884277344 324.5381164550781 279.25390625 331.23822021484375 271.0 334.0 C 247.3333282470703 331.818115234375 223.6666717529297 338.6664123535156 200.0 330.0 L 197.0 319.0 C 133.3333282470703 320.9953308105469 69.66666412353516 320.6156005859375 6.0 319.0 C -0.15405721962451935 320.77874755859375 5.880948066711426 328.3304748535156 0.0 330.0 C 1.883217215538025 360.3333435058594 -3.840733051300049 390.6666564941406 3.0 421.0 C 13.0 422.91973876953125 23.0 416.9691467285156 33.0 413.0 C 30.569181442260742 406.0376281738281 32.21919250488281 384.0810852050781 41.0 401.0 C 50.73455047607422 397.3782958984375 63.2918701171875 406.8973083496094 70.0 393.0 C 77.07320404052734 400.0 70.310791015625 407.0 73.0 414.0 C 83.66666412353516 412.50152587890625 94.33333587646484 412.73992919921875 105.0 415.0 C 109.67863464355469 407.6666564941406 99.59369659423828 400.3333435058594 109.0 393.0 C 113.51695251464844 407.9344177246094 126.82936096191406 397.4590148925781 137.0 401.0 C 143.519775390625 387.97332763671875 148.9154510498047 398.79302978515625 147.0 408.0 C 155.0 409.9020080566406 163.0 413.40496826171875 171.0 421.0 C 225.0 421.62322998046875 279.0 419.8066711425781 333.0 422.0 C 337.0251159667969 412.6666564941406 325.38031005859375 403.3333435058594 334.0 394.0 C 342.7141418457031 404.8177185058594 362.67584228515625 401.9573974609375 370.0 394.0 C 374.4783630371094 401.0 370.80426025390625 408.0 372.0 415.0 C 381.0 414.23248291015625 390.0 410.9425964355469 399.0 412.0 C 397.56707763671875 405.83465576171875 399.21087646484375 384.7966003417969 408.0 400.0 C 419.0405578613281 398.58282470703125 430.28955078125 403.89947509765625 440.0 391.0 C 450.3333435058594 384.5548095703125 460.6666564941406 388.8753967285156 471.0 389.0 L 471.0 321.0" stroke-width="2.0" fill="rgb(231, 218, 195)" opacity="1.0" stroke="rgb(0, 0, 0)" stroke-opacity="0.0" stroke-linecap="round" stroke-linejoin="round"/>
    <path d="M 274.0 74.0 C 269.4073181152344 83.66666412353516 254.195556640625 93.33333587646484 265.0 103.0 C 292.3333435058594 121.24720764160156 319.6666564941406 126.60704803466797 347.0 145.0 C 353.5655212402344 159.1725616455078 325.2308654785156 162.52247619628906 334.0 176.0 C 353.9362487792969 189.43075561523438 382.4720458984375 182.5898895263672 396.0 205.0 C 387.9708251953125 212.1757049560547 375.0185546875 214.85580444335938 381.0 226.0 C 369.9869689941406 232.4204559326172 386.423828125 237.31468200683594 392.0 235.0 C 400.03411865234375 231.89169311523438 411.3736267089844 233.47018432617188 415.0 225.0 C 422.7207336425781 229.78651428222656 429.1807556152344 225.72604370117188 424.0 237.0 C 439.6666564941406 250.19439697265625 455.3333435058594 243.03857421875 471.0 245.0 C 469.4631652832031 232.84249877929688 445.4924011230469 248.20193481445312 447.0 233.0 C 460.7487487792969 226.14480590820312 441.0794677734375 219.92665100097656 435.0 219.0 C 421.6666564941406 217.82443237304688 408.3333435058594 221.5552520751953 395.0 218.0 C 395.3215637207031 209.0985565185547 417.5473327636719 213.31338500976562 411.0 200.0 C 406.36053466796875 196.5315399169922 395.9175720214844 192.7751007080078 406.0 190.0 C 424.0618896484375 149.0 436.90802001953125 108.0 396.0 67.0 C 355.6666564941406 36.993045806884766 315.3333435058594 35.533443450927734 274.0 74.0" stroke-width="2.0" fill="rgb(235, 226, 214)" opacity="1.0" stroke="rgb(0, 0, 0)" stroke-opacity="0.0" stroke-linecap="round" stroke-linejoin="round"/>
    <path d="M 3.0 450.0 C -0.3168627917766571 460.0 11.71465015411377 470.0 1.0 480.0 L 1.0 511.0 L 257.0 511.0 C 261.9744873046875 501.3333435058594 257.7957458496094 491.6666564941406 267.0 482.0 C 257.6612548828125 466.4737548828125 244.00405883789062 486.183837890625 233.0 479.0 C 228.22061157226562 468.8399963378906 219.52452087402344 467.4671630859375 212.0 471.0 C 203.6887664794922 449.1886901855469 177.66246032714844 447.21051025390625 168.0 468.0 C 150.96678161621094 470.5384826660156 158.20281982421875 454.7690734863281 145.0 444.0 C 133.0 437.6128234863281 121.0 437.5903625488281 109.0 446.0 C 93.19136047363281 446.3406066894531 88.32301330566406 428.8966064453125 73.0 424.0 C 60.70013427734375 424.4440612792969 48.86073303222656 425.1506652832031 39.0 438.0 C 27.745800018310547 433.6041564941406 8.999876976013184 432.85064697265625 3.0 450.0" stroke-width="2.0" fill="rgb(248, 239, 222)" opacity="1.0" stroke="rgb(0, 0, 0)" stroke-opacity="0.0" stroke-linecap="round" stroke-linejoin="round"/>
    <path d="M 471.0 443.0 C 466.6666564941406 442.8103332519531 462.3333435058594 442.1812744140625 458.0 448.0 C 438.4651184082031 426.2321472167969 398.1537170410156 442.4630126953125 401.0 471.0 C 396.0 473.97906494140625 391.0 469.0741882324219 386.0 476.0 C 377.1470642089844 447.6712341308594 339.41900634765625 449.5902099609375 332.0 477.0 C 322.81268310546875 471.49029541015625 310.5896911621094 473.70166015625 307.0 486.0 C 299.0 487.5665283203125 291.0 489.1140441894531 283.0 482.0 C 269.6658020019531 476.9726867675781 258.5132141113281 493.2320556640625 262.0 505.0 C 264.6123352050781 506.181884765625 267.00433349609375 508.5347595214844 266.0 511.0 L 472.0 511.0 L 471.0 443.0" stroke-width="2.0" fill="rgb(250, 243, 230)" opacity="1.0" stroke="rgb(0, 0, 0)" stroke-opacity="0.0" stroke-linecap="round" stroke-linejoin="round"/>
    <path d="M 126.0 148.0 C 125.03311157226562 154.66969299316406 134.22532653808594 159.89077758789062 140.0 162.0 C 163.6666717529297 156.5681915283203 187.3333282470703 158.70408630371094 211.0 156.0 C 194.04818725585938 154.42991638183594 202.82054138183594 155.14537048339844 200.0 152.0 C 204.75640869140625 150.2393798828125 222.53262329101562 153.54678344726562 215.0 146.0 C 226.6666717529297 139.87852478027344 238.3333282470703 141.70269775390625 250.0 143.0 L 251.0 156.0 C 278.0 158.6836395263672 305.0 156.83450317382812 332.0 162.0 C 340.50640869140625 159.85121154785156 353.3165588378906 149.57176208496094 340.0 141.0 C 309.0 128.8270263671875 278.0 116.49381256103516 247.0 93.0 C 247.0519256591797 77.96070098876953 223.79605102539062 78.27496337890625 225.0 93.0 C 194.6666717529297 115.07449340820312 164.3333282470703 129.10586547851562 134.0 140.0 L 126.0 148.0" stroke-width="2.0" fill="rgb(32, 103, 128)" opacity="1.0" stroke="rgb(0, 0, 0)" stroke-opacity="0.0" stroke-linecap="round" stroke-linejoin="round"/>
    <path d="M 471.0 395.0 C 461.6474609375 385.5306701660156 435.40386962890625 388.28955078125 434.0 406.0 C 419.0195007324219 410.7547607421875 428.1276550292969 422.5945739746094 414.0 427.0 C 397.6236267089844 407.14471435546875 367.71771240234375 412.4100036621094 365.0 436.0 C 356.0080871582031 433.9195556640625 336.3861083984375 437.4526062011719 338.0 452.0 C 326.4771423339844 457.77178955078125 308.0142822265625 469.38031005859375 304.0 452.0 C 292.3333435058594 440.1556091308594 280.6666564941406 441.9751281738281 269.0 445.0 C 259.99298095703125 456.9825439453125 242.41400146484375 461.3988037109375 247.0 475.0 C 260.3333435058594 470.8437805175781 273.6666564941406 482.391845703125 287.0 481.0 C 304.638427734375 498.75921630859375 313.7920837402344 460.1099548339844 332.0 474.0 C 340.53997802734375 448.24224853515625 374.3375244140625 445.9954528808594 386.0 472.0 C 390.3333435058594 471.7234802246094 394.6666564941406 468.8199462890625 399.0 470.0 C 398.14727783203125 442.45233154296875 436.1619873046875 424.7802429199219 456.0 445.0 C 461.3333435058594 442.6581726074219 466.6666564941406 440.61328125 472.0 440.0 L 471.0 395.0" stroke-width="2.0" fill="rgb(229, 220, 200)" opacity="1.0" stroke="rgb(0, 0, 0)" stroke-opacity="0.0" stroke-linecap="round" stroke-linejoin="round"/>
    <path d="M 2.0 451.0 C -1.7944045066833496 464.1076965332031 10.344084739685059 481.0548095703125 25.0 480.0 C 66.66666412353516 479.8860168457031 108.33333587646484 480.5823059082031 150.0 477.0 C 171.93450927734375 453.73309326171875 126.39311981201172 424.3116149902344 109.0 447.0 C 94.03565979003906 445.0635070800781 87.71416473388672 428.3047180175781 73.0 423.0 C 60.63239669799805 423.63531494140625 49.274497985839844 423.7895812988281 38.0 438.0 C 26.456218719482422 431.72821044921875 6.9422149658203125 433.8799133300781 2.0 451.0" stroke-width="2.0" fill="rgb(249, 241, 226)" opacity="1.0" stroke="rgb(0, 0, 0)" stroke-opacity="0.0" stroke-linecap="round" stroke-linejoin="round"/>
    <path d="M 171.0 424.0 C 176.5755615234375 431.353759765625 190.1577606201172 422.32733154296875 199.0 437.0 C 202.4534454345703 448.1003723144531 201.85592651367188 456.37762451171875 212.0 467.0 C 223.71473693847656 458.1718444824219 236.85951232910156 486.3732604980469 245.0 474.0 C 242.6968536376953 461.0055236816406 261.49969482421875 451.6322326660156 271.0 443.0 C 283.8145446777344 438.1190490722656 303.36053466796875 441.6690673828125 310.0 459.0 C 318.4152526855469 460.4483337402344 337.9912109375 455.5504455566406 337.0 445.0 C 343.0452880859375 429.2754211425781 364.9814453125 440.0879821777344 358.0 425.0 C 355.16351318359375 437.9541931152344 342.8550109863281 418.2399597167969 344.0 432.0 C 334.07623291015625 440.02386474609375 339.6068420410156 425.7560729980469 336.0 422.0 L 171.0 424.0" stroke-width="2.0" fill="rgb(130, 193, 215)" opacity="1.0" stroke="rgb(0, 0, 0)" stroke-opacity="0.0" stroke-linecap="round" stroke-linejoin="round"/>
    <path d="M 71.0 421.0 C 85.49408721923828 424.0953674316406 94.38859558105469 442.7920227050781 108.0 445.0 C 122.9235610961914 429.73016357421875 156.4645233154297 439.88494873046875 158.0 465.0 C 167.89471435546875 470.8294372558594 172.55860900878906 454.1043395996094 183.0 452.0 L 200.0 453.0 C 205.99986267089844 437.80670166015625 184.62718200683594 423.1663818359375 172.0 430.0 C 162.5504150390625 407.41778564453125 134.55113220214844 403.48052978515625 122.0 425.0 C 113.68994903564453 422.772705078125 107.1402359008789 428.74871826171875 101.0 418.0 C 91.33333587646484 414.978759765625 81.66666412353516 412.9707946777344 71.0 421.0" stroke-width="2.0" fill="rgb(238, 230, 213)" opacity="1.0" stroke="rgb(0, 0, 0)" stroke-opacity="0.0" stroke-linecap="round" stroke-linejoin="round"/>
    <path d="M 247.0 336.0 C 248.94241333007812 363.3333435058594 256.9310302734375 390.6666564941406 259.0 418.0 C 270.3333435058594 424.5815124511719 281.6666564941406 419.6285400390625 293.0 420.0 C 290.23968505859375 392.3333435058594 281.67364501953125 364.6666564941406 276.0 337.0 L 247.0 336.0" stroke-width="2.0" fill="rgb(225, 210, 182)" opacity="1.0" stroke="rgb(0, 0, 0)" stroke-opacity="0.0" stroke-linecap="round" stroke-linejoin="round"/>
    <path d="M 402.0 458.0 C 401.7735290527344 465.0179748535156 396.9877014160156 476.17938232421875 407.0 480.0 C 428.0146484375 480.925537109375 451.6469421386719 482.9069519042969 471.0 479.0 L 471.0 443.0 C 465.0558776855469 440.5056457519531 462.0833435058594 447.59503173828125 458.0 449.0 C 440.4202880859375 430.80133056640625 414.15179443359375 435.0952453613281 402.0 458.0" stroke-width="2.0" fill="rgb(251, 246, 233)" opacity="1.0" stroke="rgb(0, 0, 0)" stroke-opacity="0.0" stroke-linecap="round" stroke-linejoin="round"/>
    <path d="M 232.0 335.0 C 224.2130889892578 361.3446960449219 222.68927001953125 391.99151611328125 219.0 420.0 L 259.0 420.0 C 254.28955078125 391.6666564941406 252.28411865234375 363.3333435058594 244.0 335.0 L 232.0 335.0" stroke-width="2.0" fill="rgb(205, 185, 150)" opacity="1.0" stroke="rgb(0, 0, 0)" stroke-opacity="0.0" stroke-linecap="round" stroke-linejoin="round"/>
    <path d="M 412.0 427.0 C 399.29290771484375 410.6672668457031 382.3632507324219 410.8953552246094 368.0 424.0 C 369.5805358886719 442.506103515625 350.13714599609375 431.1258544921875 340.0 443.0 C 337.91986083984375 448.104248046875 337.25177001953125 464.4262390136719 346.0 455.0 C 358.88995361328125 450.07220458984375 377.886962890625 453.0160827636719 386.0 471.0 C 397.3872375488281 472.5957336425781 400.6678466796875 466.4633483886719 400.0 456.0 C 407.4191589355469 446.6666564941406 418.80462646484375 437.3333435058594 412.0 427.0" stroke-width="2.0" fill="rgb(231, 221, 202)" opacity="1.0" stroke="rgb(0, 0, 0)" stroke-opacity="0.0" stroke-linecap="round" stroke-linejoin="round"/>
    <path d="M 123.0 424.0 C 121.33070373535156 442.8739929199219 140.04196166992188 433.98651123046875 152.0 448.0 C 157.83555603027344 457.19317626953125 153.89317321777344 468.2481689453125 167.0 466.0 C 174.78948974609375 451.0891418457031 189.11500549316406 450.0048522949219 200.0 453.0 C 204.82876586914062 437.28045654296875 185.97964477539062 423.66412353515625 172.0 430.0 C 163.1328887939453 408.318603515625 135.864501953125 403.9183349609375 123.0 424.0" stroke-width="2.0" fill="rgb(238, 229, 213)" opacity="1.0" stroke="rgb(0, 0, 0)" stroke-opacity="0.0" stroke-linecap="round" stroke-linejoin="round"/>
    <path d="M 193.0 260.0 C 194.6657257080078 266.7826843261719 189.7523651123047 275.84112548828125 195.0 281.0 L 285.0 281.0 C 288.77032470703125 273.6666564941406 287.3717041015625 266.3333435058594 285.0 259.0 L 193.0 260.0" stroke-width="2.0" fill="rgb(34, 127, 157)" opacity="1.0" stroke="rgb(0, 0, 0)" stroke-opacity="0.0" stroke-linecap="round" stroke-linejoin="round"/>
    <path d="M 442.0 392.0 C 432.156982421875 399.8380126953125 433.5238037109375 409.1554260253906 423.0 414.0 C 421.438232421875 421.0 431.9570617675781 428.0 431.0 435.0 C 439.00732421875 436.8810729980469 449.6568603515625 436.94232177734375 456.0 445.0 C 461.0 443.7957458496094 466.0 439.1819763183594 471.0 441.0 L 471.0 393.0 C 461.6666564941406 389.47369384765625 452.3333435058594 388.1830139160156 442.0 392.0" stroke-width="2.0" fill="rgb(231, 222, 202)" opacity="1.0" stroke="rgb(0, 0, 0)" stroke-opacity="0.0" stroke-linecap="round" stroke-linejoin="round"/>
    <path d="M 246.0 467.0 C 243.51454162597656 478.3992919921875 254.1663055419922 473.1802062988281 261.0 474.0 C 272.0 483.5361022949219 283.0 475.2851867675781 294.0 486.0 C 319.4802551269531 485.4845886230469 312.2850646972656 444.293212890625 287.0 442.0 C 271.3055419921875 438.10162353515625 257.5529479980469 455.31842041015625 246.0 467.0" stroke-width="2.0" fill="rgb(225, 217, 197)" opacity="1.0" stroke="rgb(0, 0, 0)" stroke-opacity="0.0" stroke-linecap="round" stroke-linejoin="round"/>
    <path d="M 296.0 260.0 L 297.0 282.0 C 319.3333435058594 281.95654296875 341.6666564941406 287.01324462890625 364.0 284.0 C 362.80426025390625 277.0 366.4783630371094 270.0 362.0 263.0 C 340.3333435058594 261.7677001953125 318.6666564941406 259.4735412597656 296.0 260.0" stroke-width="2.0" fill="rgb(34, 126, 154)" opacity="1.0" stroke="rgb(0, 0, 0)" stroke-opacity="0.0" stroke-linecap="round" stroke-linejoin="round"/>
    <path d="M 182.0 262.0 C 157.6666717529297 258.8886413574219 133.3333282470703 262.9970703125 109.0 264.0 L 107.0 282.0 C 129.34861755371094 286.4978942871094 155.98861694335938 279.7236328125 180.0 281.0 C 184.43955993652344 276.7911376953125 180.83209228515625 268.8184509277344 182.0 262.0" stroke-width="2.0" fill="rgb(34, 126, 155)" opacity="1.0" stroke="rgb(0, 0, 0)" stroke-opacity="0.0" stroke-linecap="round" stroke-linejoin="round"/>
    <path d="M 11.0 438.0 C -4.7413411140441895 450.6666564941406 1.939501166343689 463.3333435058594 8.0 476.0 C 18.05748176574707 476.7718200683594 30.588638305664062 482.83795166015625 39.0 473.0 C 36.644508361816406 460.776123046875 44.56330871582031 443.9754333496094 31.0 435.0 C 24.66666603088379 435.7016296386719 18.33333396911621 432.93035888671875 11.0 438.0" stroke-width="2.0" fill="rgb(251, 243, 229)" opacity="1.0" stroke="rgb(0, 0, 0)" stroke-opacity="0.0" stroke-linecap="round" stroke-linejoin="round"/>
    <path d="M 218.0 305.0 L 218.0 331.0 L 259.0 331.0 C 256.8511047363281 321.1730651855469 263.61395263671875 309.2210998535156 255.0 301.0 C 243.0023956298828 296.8311767578125 229.46640014648438 296.6259460449219 218.0 305.0" stroke-width="2.0" fill="rgb(202, 51, 73)" opacity="1.0" stroke="rgb(0, 0, 0)" stroke-opacity="0.0" stroke-linecap="round" stroke-linejoin="round"/>
    <path d="M 109.0 447.0 L 111.0 469.0 C 125.66666412353516 468.2565612792969 140.3333282470703 478.2620544433594 155.0 466.0 C 158.33251953125 443.89984130859375 125.82093811035156 428.98077392578125 109.0 447.0" stroke-width="2.0" fill="rgb(249, 241, 227)" opacity="1.0" stroke="rgb(0, 0, 0)" stroke-opacity="0.0" stroke-linecap="round" stroke-linejoin="round"/>
    <path d="M 250.0 156.0 C 277.3333435058594 160.18240356445312 304.6666564941406 157.27615356445312 332.0 162.0 C 336.6225280761719 159.85824584960938 345.9368591308594 155.42431640625 346.0 149.0 C 316.6405944824219 146.55447387695312 283.01934814453125 145.29925537109375 252.0 145.0 C 248.05599975585938 148.3333282470703 250.8236846923828 151.6666717529297 250.0 156.0" stroke-width="2.0" fill="rgb(20, 86, 109)" opacity="1.0" stroke="rgb(0, 0, 0)" stroke-opacity="0.0" stroke-linecap="round" stroke-linejoin="round"/>
    <path d="M 333.0 475.0 L 335.0 479.0 C 351.3333435058594 478.4528503417969 367.6666564941406 482.5468444824219 384.0 478.0 C 385.7721252441406 449.9466247558594 338.3790588378906 445.4246826171875 333.0 475.0" stroke-width="2.0" fill="rgb(251, 246, 234)" opacity="1.0" stroke="rgb(0, 0, 0)" stroke-opacity="0.0" stroke-linecap="round" stroke-linejoin="round"/>
    <path d="M 168.0 468.0 C 173.01129150390625 487.0353698730469 195.15858459472656 476.121337890625 208.0 479.0 C 221.30918884277344 455.0458068847656 174.6853485107422 440.5482482910156 168.0 468.0" stroke-width="2.0" fill="rgb(249, 242, 230)" opacity="1.0" stroke="rgb(0, 0, 0)" stroke-opacity="0.0" stroke-linecap="round" stroke-linejoin="round"/>
    <path d="M 34.0 395.0 C 25.351760864257812 415.6116943359375 61.410736083984375 436.6961669921875 71.0 412.0 L 71.0 395.0 L 34.0 395.0" stroke-width="2.0" fill="rgb(76, 130, 139)" opacity="1.0" stroke="rgb(0, 0, 0)" stroke-opacity="0.0" stroke-linecap="round" stroke-linejoin="round"/>
    <path d="M 440.0 24.0 C 441.9617919921875 29.17913818359375 436.4107666015625 32.228424072265625 432.0 32.0 L 432.0 59.0 C 437.4794921875 63.508018493652344 446.8931579589844 59.78286361694336 454.0 61.0 C 458.775390625 48.66666793823242 454.61053466796875 36.33333206176758 455.0 24.0 L 440.0 24.0" stroke-width="2.0" fill="rgb(251, 200, 209)" opacity="1.0" stroke="rgb(0, 0, 0)" stroke-opacity="0.0" stroke-linecap="round" stroke-linejoin="round"/>
    <path d="M 333.0 395.0 C 329.6372985839844 407.6666564941406 342.3389892578125 420.3333435058594 338.0 433.0 C 345.8230895996094 434.8670654296875 338.19891357421875 417.3127136230469 350.0 424.0 C 351.66473388671875 435.9618225097656 352.32269287109375 421.0397033691406 360.0 423.0 C 359.11029052734375 430.4400939941406 366.4547119140625 439.20001220703125 363.0 427.0 C 368.2306213378906 416.3333435058594 371.6498718261719 405.6666564941406 370.0 395.0 C 365.2323303222656 394.38934326171875 370.7676696777344 400.4903564453125 366.0 403.0 C 355.0468444824219 400.9064025878906 335.9613037109375 408.9524841308594 333.0 395.0" stroke-width="2.0" fill="rgb(34, 109, 131)" opacity="1.0" stroke="rgb(0, 0, 0)" stroke-opacity="0.0" stroke-linecap="round" stroke-linejoin="round"/>
    <path d="M 242.0 260.0 C 251.5393829345703 263.5632629394531 249.62332153320312 273.3713684082031 248.0 280.0 L 285.0 280.0 C 285.6906433105469 273.0 288.12957763671875 266.0 284.0 259.0 L 242.0 260.0" stroke-width="2.0" fill="rgb(34, 133, 164)" opacity="1.0" stroke="rgb(0, 0, 0)" stroke-opacity="0.0" stroke-linecap="round" stroke-linejoin="round"/>
    <path d="M 192.0 261.0 L 193.0 280.0 C 205.6666717529297 281.5838928222656 218.3333282470703 281.3359680175781 231.0 279.0 C 225.23220825195312 274.17974853515625 229.0927734375 266.3452453613281 228.0 260.0 L 192.0 261.0" stroke-width="2.0" fill="rgb(33, 133, 164)" opacity="1.0" stroke="rgb(0, 0, 0)" stroke-opacity="0.0" stroke-linecap="round" stroke-linejoin="round"/>
    <path d="M 107.0 396.0 C 107.71871185302734 405.4672546386719 107.61183166503906 423.923828125 121.0 423.0 C 127.0190658569336 415.5141296386719 136.41409301757812 409.4140930175781 144.0 409.0 L 145.0 395.0 L 107.0 396.0" stroke-width="2.0" fill="rgb(85, 134, 139)" opacity="1.0" stroke="rgb(0, 0, 0)" stroke-opacity="0.0" stroke-linecap="round" stroke-linejoin="round"/>
    <path d="M 147.0 396.0 C 141.5299530029297 412.2707214355469 159.23214721679688 408.31365966796875 170.0 421.0 C 185.86610412597656 425.5771484375 181.8633270263672 404.884033203125 179.0 395.0 L 147.0 396.0" stroke-width="2.0" fill="rgb(234, 222, 197)" opacity="1.0" stroke="rgb(0, 0, 0)" stroke-opacity="0.0" stroke-linecap="round" stroke-linejoin="round"/>
    <path d="M 48.0 423.0 C 37.24817657470703 412.60821533203125 21.06517791748047 414.8512268066406 15.0 430.0 C 10.0 425.8504333496094 5.0 423.5716552734375 0.0 426.0 L 0.0 455.0 C 3.920206069946289 432.71466064453125 24.26144790649414 429.55865478515625 37.0 437.0 C 38.736915588378906 433.489990234375 49.73574447631836 428.13818359375 48.0 423.0" stroke-width="2.0" fill="rgb(239, 234, 220)" opacity="1.0" stroke="rgb(0, 0, 0)" stroke-opacity="0.0" stroke-linecap="round" stroke-linejoin="round"/>
    <path d="M 224.0 145.0 L 224.0 171.0 L 247.0 172.0 L 249.0 145.0 L 224.0 145.0" stroke-width="2.0" fill="rgb(85, 143, 167)" opacity="1.0" stroke="rgb(0, 0, 0)" stroke-opacity="0.0" stroke-linecap="round" stroke-linejoin="round"/>
    <path d="M 182.0 262.0 C 170.3333282470703 258.9501953125 158.6666717529297 261.6539001464844 147.0 262.0 C 156.31932067871094 266.218994140625 147.6587677001953 270.93084716796875 153.0 277.0 L 148.0 282.0 L 180.0 281.0 C 184.06185913085938 275.0 181.0931854248047 269.0 182.0 262.0" stroke-width="2.0" fill="rgb(34, 133, 163)" opacity="1.0" stroke="rgb(0, 0, 0)" stroke-opacity="0.0" stroke-linecap="round" stroke-linejoin="round"/>
    <path d="M 172.0 431.0 C 168.10232543945312 440.8175964355469 175.37449645996094 450.6917419433594 172.0 458.0 C 181.3333282470703 450.2157287597656 190.6666717529297 451.4566345214844 200.0 453.0 C 206.25900268554688 439.4516296386719 185.3849639892578 421.4186706542969 172.0 431.0" stroke-width="2.0" fill="rgb(239, 233, 220)" opacity="1.0" stroke="rgb(0, 0, 0)" stroke-opacity="0.0" stroke-linecap="round" stroke-linejoin="round"/>
    <path d="M 139.0 262.0 L 109.0 264.0 L 108.0 283.0 C 118.66666412353516 285.8123779296875 129.3333282470703 282.1612548828125 140.0 282.0 C 132.7419891357422 277.4767761230469 132.7704315185547 269.1382141113281 139.0 262.0" stroke-width="2.0" fill="rgb(34, 132, 163)" opacity="1.0" stroke="rgb(0, 0, 0)" stroke-opacity="0.0" stroke-linecap="round" stroke-linejoin="round"/>
    <path d="M 78.0 268.0 L 78.0 287.0 C 90.943359375 287.9359130859375 114.91051483154297 285.528564453125 106.0 267.0 C 97.06729125976562 266.3003234863281 88.86473846435547 263.52874755859375 78.0 268.0" stroke-width="2.0" fill="rgb(48, 129, 157)" opacity="1.0" stroke="rgb(0, 0, 0)" stroke-opacity="0.0" stroke-linecap="round" stroke-linejoin="round"/>
    <path d="M 130.0 368.0 L 130.0 389.0 L 156.0 388.0 L 155.0 368.0 L 130.0 368.0" stroke-width="2.0" fill="rgb(233, 220, 196)" opacity="1.0" stroke="rgb(0, 0, 0)" stroke-opacity="0.0" stroke-linecap="round" stroke-linejoin="round"/>
    <path d="M 430.0 340.0 L 430.0 360.0 L 455.0 360.0 L 455.0 339.0 L 430.0 340.0" stroke-width="2.0" fill="rgb(233, 220, 197)" opacity="1.0" stroke="rgb(0, 0, 0)" stroke-opacity="0.0" stroke-linecap="round" stroke-linejoin="round"/>
    <path d="M 72.0 419.0 C 73.86473083496094 425.1190490722656 92.73836517333984 428.9356384277344 95.0 441.0 C 107.84781646728516 445.67071533203125 104.96574401855469 434.3231201171875 108.0 425.0 C 98.16584777832031 411.5140075683594 84.45538330078125 413.65667724609375 72.0 419.0" stroke-width="2.0" fill="rgb(241, 232, 216)" opacity="1.0" stroke="rgb(0, 0, 0)" stroke-opacity="0.0" stroke-linecap="round" stroke-linejoin="round"/>
    <path d="M 324.0 368.0 C 322.8763122558594 375.0 319.4803466796875 382.0 321.0 389.0 L 348.0 388.0 L 347.0 368.0 L 324.0 368.0" stroke-width="2.0" fill="rgb(235, 222, 198)" opacity="1.0" stroke="rgb(0, 0, 0)" stroke-opacity="0.0" stroke-linecap="round" stroke-linejoin="round"/>
    <path d="M 401.0 339.0 C 401.2015075683594 346.0 396.8614501953125 353.0 400.0 360.0 L 425.0 359.0 C 423.80426025390625 352.0 427.4783630371094 345.0 423.0 338.0 L 401.0 339.0" stroke-width="2.0" fill="rgb(233, 220, 197)" opacity="1.0" stroke="rgb(0, 0, 0)" stroke-opacity="0.0" stroke-linecap="round" stroke-linejoin="round"/>
    <path d="M 102.0 368.0 L 102.0 389.0 L 128.0 388.0 C 129.14385986328125 381.3333435058594 125.1336441040039 374.6666564941406 125.0 368.0 L 102.0 368.0" stroke-width="2.0" fill="rgb(234, 221, 197)" opacity="1.0" stroke="rgb(0, 0, 0)" stroke-opacity="0.0" stroke-linecap="round" stroke-linejoin="round"/>
    <path d="M 16.0 368.0 L 16.0 389.0 L 41.0 388.0 L 40.0 368.0 L 16.0 368.0" stroke-width="2.0" fill="rgb(233, 221, 196)" opacity="1.0" stroke="rgb(0, 0, 0)" stroke-opacity="0.0" stroke-linecap="round" stroke-linejoin="round"/>
    <path d="M 377.0 369.0 C 369.3333435058594 366.4179992675781 361.6666564941406 368.71136474609375 354.0 368.0 C 352.0677185058594 374.6666564941406 350.3047790527344 381.3333435058594 351.0 388.0 L 376.0 389.0 L 377.0 369.0" stroke-width="2.0" fill="rgb(234, 222, 197)" opacity="1.0" stroke="rgb(0, 0, 0)" stroke-opacity="0.0" stroke-linecap="round" stroke-linejoin="round"/>
    <path d="M 160.0 368.0 L 160.0 389.0 C 168.0 387.77398681640625 176.0 391.5202941894531 184.0 387.0 L 183.0 367.0 L 160.0 368.0" stroke-width="2.0" fill="rgb(233, 219, 195)" opacity="1.0" stroke="rgb(0, 0, 0)" stroke-opacity="0.0" stroke-linecap="round" stroke-linejoin="round"/>
    <path d="M 46.0 369.0 L 47.0 389.0 L 72.0 389.0 C 71.97297668457031 381.6666564941406 69.728759765625 374.3333435058594 68.0 367.0 L 46.0 369.0" stroke-width="2.0" fill="rgb(233, 221, 197)" opacity="1.0" stroke="rgb(0, 0, 0)" stroke-opacity="0.0" stroke-linecap="round" stroke-linejoin="round"/>
    <path d="M 96.0 288.0 L 78.0 289.0 C 78.44986724853516 297.51751708984375 70.72896575927734 321.0253601074219 85.0 317.0 C 85.95848083496094 313.0 82.8584976196289 309.0 87.0 305.0 C 93.15670013427734 310.5698547363281 85.97098541259766 320.7696228027344 96.0 318.0 L 96.0 288.0" stroke-width="2.0" fill="rgb(236, 109, 125)" opacity="1.0" stroke="rgb(0, 0, 0)" stroke-opacity="0.0" stroke-linecap="round" stroke-linejoin="round"/>
    <path d="M 437.0 369.0 L 437.0 389.0 L 462.0 387.0 L 462.0 368.0 L 437.0 369.0" stroke-width="2.0" fill="rgb(233, 221, 197)" opacity="1.0" stroke="rgb(0, 0, 0)" stroke-opacity="0.0" stroke-linecap="round" stroke-linejoin="round"/>
    <path d="M 375.0 289.0 L 375.0 318.0 C 385.9961242675781 320.4455261230469 390.6100769042969 316.1121826171875 390.0 305.0 C 396.61187744140625 304.75640869140625 392.196533203125 314.6801452636719 395.0 316.0 L 394.0 291.0 L 375.0 289.0" stroke-width="2.0" fill="rgb(239, 106, 124)" opacity="1.0" stroke="rgb(0, 0, 0)" stroke-opacity="0.0" stroke-linecap="round" stroke-linejoin="round"/>
    <path d="M 374.0 339.0 C 374.18035888671875 345.6666564941406 370.317138671875 352.3333435058594 371.0 359.0 L 396.0 359.0 L 396.0 339.0 L 374.0 339.0" stroke-width="2.0" fill="rgb(234, 221, 197)" opacity="1.0" stroke="rgb(0, 0, 0)" stroke-opacity="0.0" stroke-linecap="round" stroke-linejoin="round"/>
    <path d="M 409.0 368.0 C 409.16546630859375 375.0 405.41143798828125 382.0 408.0 389.0 L 432.0 389.0 L 432.0 368.0 L 409.0 368.0" stroke-width="2.0" fill="rgb(233, 221, 197)" opacity="1.0" stroke="rgb(0, 0, 0)" stroke-opacity="0.0" stroke-linecap="round" stroke-linejoin="round"/>
    <path d="M 295.0 367.0 C 294.3241271972656 374.3333435058594 294.5355529785156 381.6666564941406 296.0 389.0 L 318.0 389.0 L 318.0 368.0 L 295.0 367.0" stroke-width="2.0" fill="rgb(232, 219, 195)" opacity="1.0" stroke="rgb(0, 0, 0)" stroke-opacity="0.0" stroke-linecap="round" stroke-linejoin="round"/>
    <path d="M 75.0 368.0 L 76.0 389.0 L 99.0 388.0 C 99.79080200195312 381.0 97.64297485351562 374.0 95.0 367.0 L 75.0 368.0" stroke-width="2.0" fill="rgb(233, 221, 198)" opacity="1.0" stroke="rgb(0, 0, 0)" stroke-opacity="0.0" stroke-linecap="round" stroke-linejoin="round"/>
    <path d="M 288.0 33.0 C 282.3667297363281 53.657989501953125 306.3674011230469 50.53449249267578 319.0 45.0 C 324.5264587402344 25.206995010375977 300.6828308105469 33.427947998046875 288.0 33.0" stroke-width="2.0" fill="rgb(249, 198, 209)" opacity="1.0" stroke="rgb(0, 0, 0)" stroke-opacity="0.0" stroke-linecap="round" stroke-linejoin="round"/>
    <path d="M 169.0 338.0 C 166.10150146484375 345.3333435058594 169.05307006835938 352.6666564941406 168.0 360.0 L 188.0 360.0 C 192.20477294921875 353.0 188.99575805664062 346.0 190.0 339.0 L 169.0 338.0" stroke-width="2.0" fill="rgb(233, 220, 196)" opacity="1.0" stroke="rgb(0, 0, 0)" stroke-opacity="0.0" stroke-linecap="round" stroke-linejoin="round"/>
    <path d="M 288.0 338.0 L 288.0 359.0 L 310.0 360.0 L 310.0 339.0 L 288.0 338.0" stroke-width="2.0" fill="rgb(234, 220, 196)" opacity="1.0" stroke="rgb(0, 0, 0)" stroke-opacity="0.0" stroke-linecap="round" stroke-linejoin="round"/>
    <path d="M 137.0 344.0 L 137.0 360.0 L 166.0 360.0 L 165.0 344.0 L 137.0 344.0" stroke-width="2.0" fill="rgb(240, 230, 209)" opacity="1.0" stroke="rgb(0, 0, 0)" stroke-opacity="0.0" stroke-linecap="round" stroke-linejoin="round"/>
    <path d="M 383.0 368.0 L 381.0 388.0 L 403.0 389.0 L 403.0 368.0 L 383.0 368.0" stroke-width="2.0" fill="rgb(233, 221, 196)" opacity="1.0" stroke="rgb(0, 0, 0)" stroke-opacity="0.0" stroke-linecap="round" stroke-linejoin="round"/>
    <path d="M 49.0 425.0 C 39.48480987548828 409.8547058105469 13.893568992614746 416.78887939453125 16.0 434.0 C 23.33333396911621 432.54864501953125 30.66666603088379 433.04656982421875 38.0 437.0 L 49.0 425.0" stroke-width="2.0" fill="rgb(239, 234, 220)" opacity="1.0" stroke="rgb(0, 0, 0)" stroke-opacity="0.0" stroke-linecap="round" stroke-linejoin="round"/>
    <path d="M 23.0 344.0 L 24.0 360.0 C 35.39921188354492 360.44659423828125 59.75079345703125 363.6924133300781 49.0 344.0 L 23.0 344.0" stroke-width="2.0" fill="rgb(239, 230, 210)" opacity="1.0" stroke="rgb(0, 0, 0)" stroke-opacity="0.0" stroke-linecap="round" stroke-linejoin="round"/>
    <path d="M 315.0 344.0 C 313.7637023925781 349.3333435058594 312.26361083984375 354.6666564941406 313.0 360.0 L 340.0 360.0 L 340.0 344.0 L 315.0 344.0" stroke-width="2.0" fill="rgb(240, 229, 209)" opacity="1.0" stroke="rgb(0, 0, 0)" stroke-opacity="0.0" stroke-linecap="round" stroke-linejoin="round"/>
    <path d="M 401.0 395.0 C 398.07232666015625 404.4683532714844 406.0460205078125 430.7902526855469 422.0 421.0 C 415.44281005859375 411.8494567871094 431.4065246582031 408.58929443359375 432.0 403.0 C 423.06719970703125 400.3950500488281 402.0985107421875 409.71270751953125 404.0 395.0 L 401.0 395.0" stroke-width="2.0" fill="rgb(39, 110, 129)" opacity="1.0" stroke="rgb(0, 0, 0)" stroke-opacity="0.0" stroke-linecap="round" stroke-linejoin="round"/>
    <path d="M 129.0 306.0 C 125.07992553710938 316.2586975097656 131.3190460205078 320.2586975097656 141.0 318.0 C 141.3505401611328 314.59075927734375 139.22845458984375 303.0517272949219 146.0 306.0 C 139.2957305908203 321.5140686035156 166.7042694091797 323.1119079589844 160.0 307.0 C 151.91708374023438 298.9122619628906 139.7277069091797 299.99383544921875 129.0 306.0" stroke-width="2.0" fill="rgb(218, 62, 83)" opacity="1.0" stroke="rgb(0, 0, 0)" stroke-opacity="0.0" stroke-linecap="round" stroke-linejoin="round"/>
    <path d="M 399.0 394.0 C 390.6666564941406 397.1308288574219 382.3333435058594 395.40869140625 374.0 396.0 L 372.0 410.0 C 381.0 414.3727722167969 390.0 410.8787536621094 399.0 412.0 L 399.0 394.0" stroke-width="2.0" fill="rgb(230, 219, 194)" opacity="1.0" stroke="rgb(0, 0, 0)" stroke-opacity="0.0" stroke-linecap="round" stroke-linejoin="round"/>
    <path d="M 374.0 265.0 L 375.0 287.0 L 393.0 289.0 L 394.0 267.0 L 374.0 265.0" stroke-width="2.0" fill="rgb(37, 132, 161)" opacity="1.0" stroke="rgb(0, 0, 0)" stroke-opacity="0.0" stroke-linecap="round" stroke-linejoin="round"/>
    <path d="M 228.0 146.0 L 228.0 169.0 L 244.0 170.0 L 245.0 146.0 L 228.0 146.0" stroke-width="2.0" fill="rgb(37, 129, 159)" opacity="1.0" stroke="rgb(0, 0, 0)" stroke-opacity="0.0" stroke-linecap="round" stroke-linejoin="round"/>
    <path d="M 109.0 344.0 L 109.0 360.0 L 135.0 360.0 L 134.0 344.0 L 109.0 344.0" stroke-width="2.0" fill="rgb(240, 230, 209)" opacity="1.0" stroke="rgb(0, 0, 0)" stroke-opacity="0.0" stroke-linecap="round" stroke-linejoin="round"/>
    <path d="M 54.0 344.0 L 54.0 360.0 L 80.0 360.0 L 79.0 344.0 L 54.0 344.0" stroke-width="2.0" fill="rgb(241, 230, 210)" opacity="1.0" stroke="rgb(0, 0, 0)" stroke-opacity="0.0" stroke-linecap="round" stroke-linejoin="round"/>
    <path d="M 1.0 338.0 L 0.0 360.0 C 7.0 358.80426025390625 14.0 362.4783630371094 21.0 358.0 C 19.405025482177734 351.6666564941406 20.119836807250977 345.3333435058594 18.0 339.0 L 1.0 338.0" stroke-width="2.0" fill="rgb(234, 222, 196)" opacity="1.0" stroke="rgb(0, 0, 0)" stroke-opacity="0.0" stroke-linecap="round" stroke-linejoin="round"/>
    <path d="M 2.0 478.0 C -2.5870141983032227 489.0 1.2745479345321655 500.0 0.0 511.0 L 15.0 511.0 C 12.224068641662598 500.392822265625 17.776538848876953 483.8630676269531 2.0 478.0" stroke-width="2.0" fill="rgb(249, 240, 225)" opacity="1.0" stroke="rgb(0, 0, 0)" stroke-opacity="0.0" stroke-linecap="round" stroke-linejoin="round"/>
    <path d="M 97.0 265.0 L 78.0 267.0 L 78.0 287.0 C 84.33333587646484 286.8252258300781 90.66666412353516 287.8282470703125 97.0 285.0 L 97.0 265.0" stroke-width="2.0" fill="rgb(37, 132, 162)" opacity="1.0" stroke="rgb(0, 0, 0)" stroke-opacity="0.0" stroke-linecap="round" stroke-linejoin="round"/>
    <path d="M 345.0 344.0 C 344.78265380859375 349.3333435058594 341.26318359375 354.6666564941406 344.0 360.0 L 369.0 360.0 L 369.0 344.0 L 345.0 344.0" stroke-width="2.0" fill="rgb(239, 230, 209)" opacity="1.0" stroke="rgb(0, 0, 0)" stroke-opacity="0.0" stroke-linecap="round" stroke-linejoin="round"/>
    <path d="M 430.0 344.0 L 430.0 360.0 L 455.0 360.0 L 455.0 344.0 L 430.0 344.0" stroke-width="2.0" fill="rgb(240, 229, 209)" opacity="1.0" stroke="rgb(0, 0, 0)" stroke-opacity="0.0" stroke-linecap="round" stroke-linejoin="round"/>
    <path d="M 82.0 344.0 L 82.0 360.0 L 107.0 360.0 L 106.0 344.0 L 82.0 344.0" stroke-width="2.0" fill="rgb(242, 230, 210)" opacity="1.0" stroke="rgb(0, 0, 0)" stroke-opacity="0.0" stroke-linecap="round" stroke-linejoin="round"/>
    <path d="M 130.0 373.0 L 131.0 389.0 L 155.0 389.0 L 154.0 373.0 L 130.0 373.0" stroke-width="2.0" fill="rgb(239, 228, 207)" opacity="1.0" stroke="rgb(0, 0, 0)" stroke-opacity="0.0" stroke-linecap="round" stroke-linejoin="round"/>
    <path d="M 400.0 345.0 L 400.0 360.0 L 424.0 360.0 L 424.0 344.0 L 400.0 345.0" stroke-width="2.0" fill="rgb(240, 230, 209)" opacity="1.0" stroke="rgb(0, 0, 0)" stroke-opacity="0.0" stroke-linecap="round" stroke-linejoin="round"/>
    <path d="M 268.0 301.0 C 258.68389892578125 307.2865295410156 267.50408935546875 321.4578552246094 263.0 331.0 C 286.4349060058594 342.25421142578125 264.5331726074219 300.8458251953125 283.0 307.0 C 285.2564697265625 299.10186767578125 274.0915832519531 301.5500793457031 268.0 301.0" stroke-width="2.0" fill="rgb(249, 112, 133)" opacity="1.0" stroke="rgb(0, 0, 0)" stroke-opacity="0.0" stroke-linecap="round" stroke-linejoin="round"/>
    <path d="M 373.0 345.0 L 372.0 360.0 L 396.0 359.0 L 396.0 344.0 L 373.0 345.0" stroke-width="2.0" fill="rgb(240, 229, 209)" opacity="1.0" stroke="rgb(0, 0, 0)" stroke-opacity="0.0" stroke-linecap="round" stroke-linejoin="round"/>
    <path d="M 295.0 373.0 L 296.0 389.0 L 318.0 389.0 L 318.0 373.0 L 295.0 373.0" stroke-width="2.0" fill="rgb(240, 229, 207)" opacity="1.0" stroke="rgb(0, 0, 0)" stroke-opacity="0.0" stroke-linecap="round" stroke-linejoin="round"/>
    <path d="M 315.0 308.0 C 309.57012939453125 324.243408203125 338.8048095703125 321.1846618652344 333.0 305.0 C 341.56494140625 307.70330810546875 332.05926513671875 322.69049072265625 345.0 318.0 C 349.15765380859375 302.2702941894531 326.5088195800781 298.14935302734375 315.0 308.0" stroke-width="2.0" fill="rgb(214, 60, 81)" opacity="1.0" stroke="rgb(0, 0, 0)" stroke-opacity="0.0" stroke-linecap="round" stroke-linejoin="round"/>
    <path d="M 448.0 306.0 L 448.0 332.0 C 457.59088134765625 330.8077087402344 476.6264953613281 337.3192443847656 472.0 321.0 C 462.0473327636719 318.65777587890625 446.195556640625 324.1191101074219 451.0 308.0 L 448.0 306.0" stroke-width="2.0" fill="rgb(228, 229, 216)" opacity="1.0" stroke="rgb(0, 0, 0)" stroke-opacity="0.0" stroke-linecap="round" stroke-linejoin="round"/>
    <path d="M 288.0 345.0 L 289.0 360.0 L 310.0 360.0 L 310.0 344.0 L 288.0 345.0" stroke-width="2.0" fill="rgb(240, 229, 209)" opacity="1.0" stroke="rgb(0, 0, 0)" stroke-opacity="0.0" stroke-linecap="round" stroke-linejoin="round"/>
    <path d="M 168.0 344.0 L 168.0 360.0 L 189.0 359.0 L 189.0 344.0 L 168.0 344.0" stroke-width="2.0" fill="rgb(240, 229, 209)" opacity="1.0" stroke="rgb(0, 0, 0)" stroke-opacity="0.0" stroke-linecap="round" stroke-linejoin="round"/>
    <path d="M 173.0 307.0 C 168.57769775390625 309.3665771484375 175.36619567871094 315.9752197265625 170.0 320.0 C 159.5793914794922 320.80029296875 141.0632781982422 315.0849609375 147.0 332.0 L 173.0 332.0 L 173.0 307.0" stroke-width="2.0" fill="rgb(245, 224, 210)" opacity="1.0" stroke="rgb(0, 0, 0)" stroke-opacity="0.0" stroke-linecap="round" stroke-linejoin="round"/>
    <path d="M 253.0 284.0 L 224.0 284.0 C 218.9873809814453 302.345947265625 242.0626220703125 292.6040344238281 253.0 295.0 L 253.0 284.0" stroke-width="2.0" fill="rgb(249, 122, 137)" opacity="1.0" stroke="rgb(0, 0, 0)" stroke-opacity="0.0" stroke-linecap="round" stroke-linejoin="round"/>
    <path d="M 193.0 285.0 C 188.62673950195312 303.23907470703125 211.6090087890625 292.1118469238281 222.0 295.0 C 225.73985290527344 278.5805358886719 203.7093048095703 284.05322265625 193.0 285.0" stroke-width="2.0" fill="rgb(250, 118, 137)" opacity="1.0" stroke="rgb(0, 0, 0)" stroke-opacity="0.0" stroke-linecap="round" stroke-linejoin="round"/>
    <path d="M 305.0 321.0 C 299.9210205078125 338.74566650390625 321.3644104003906 329.96893310546875 332.0 332.0 L 332.0 320.0 L 305.0 321.0" stroke-width="2.0" fill="rgb(243, 223, 209)" opacity="1.0" stroke="rgb(0, 0, 0)" stroke-opacity="0.0" stroke-linecap="round" stroke-linejoin="round"/>
    <path d="M 183.0 283.0 C 186.49411010742188 293.967529296875 173.1051483154297 319.5345153808594 191.0 318.0 L 191.0 283.0 L 183.0 283.0" stroke-width="2.0" fill="rgb(251, 146, 147)" opacity="1.0" stroke="rgb(0, 0, 0)" stroke-opacity="0.0" stroke-linecap="round" stroke-linejoin="round"/>
    <path d="M 259.0 405.0 C 259.5574645996094 421.6606750488281 280.8719177246094 410.99871826171875 292.0 414.0 C 294.384521484375 396.16888427734375 271.04534912109375 406.8980712890625 259.0 405.0" stroke-width="2.0" fill="rgb(243, 233, 212)" opacity="1.0" stroke="rgb(0, 0, 0)" stroke-opacity="0.0" stroke-linecap="round" stroke-linejoin="round"/>
    <path d="M 0.0 344.0 L 0.0 360.0 L 20.0 359.0 L 19.0 344.0 L 0.0 344.0" stroke-width="2.0" fill="rgb(239, 229, 207)" opacity="1.0" stroke="rgb(0, 0, 0)" stroke-opacity="0.0" stroke-linecap="round" stroke-linejoin="round"/>
    <path d="M 118.0 321.0 C 112.91413879394531 338.419189453125 133.50218200683594 330.16448974609375 144.0 332.0 C 148.61135864257812 315.0849609375 128.73268127441406 320.80029296875 118.0 321.0" stroke-width="2.0" fill="rgb(243, 222, 209)" opacity="1.0" stroke="rgb(0, 0, 0)" stroke-opacity="0.0" stroke-linecap="round" stroke-linejoin="round"/>
    <path d="M 334.0 322.0 C 329.4228515625 338.5771484375 350.115966796875 329.884033203125 360.0 332.0 L 360.0 320.0 L 334.0 322.0" stroke-width="2.0" fill="rgb(244, 223, 209)" opacity="1.0" stroke="rgb(0, 0, 0)" stroke-opacity="0.0" stroke-linecap="round" stroke-linejoin="round"/>
    <path d="M 244.0 217.0 C 253.72889709472656 223.52777099609375 267.6207275390625 218.21194458007812 279.0 221.0 L 280.0 213.0 L 246.0 211.0 L 244.0 217.0" stroke-width="2.0" fill="rgb(29, 126, 152)" opacity="1.0" stroke="rgb(0, 0, 0)" stroke-opacity="0.0" stroke-linecap="round" stroke-linejoin="round"/>
    <path d="M 90.0 321.0 C 84.91413879394531 338.419189453125 105.5021743774414 330.16448974609375 116.0 332.0 C 120.61135864257812 315.2109069824219 100.73267364501953 320.8338623046875 90.0 321.0" stroke-width="2.0" fill="rgb(243, 222, 206)" opacity="1.0" stroke="rgb(0, 0, 0)" stroke-opacity="0.0" stroke-linecap="round" stroke-linejoin="round"/>
    <path d="M 286.0 284.0 C 288.296875 294.7112121582031 277.08026123046875 319.7528991699219 294.0 318.0 L 294.0 284.0 L 286.0 284.0" stroke-width="2.0" fill="rgb(251, 147, 148)" opacity="1.0" stroke="rgb(0, 0, 0)" stroke-opacity="0.0" stroke-linecap="round" stroke-linejoin="round"/>
    <path d="M 99.0 287.0 L 98.0 318.0 C 116.38174438476562 321.32733154296875 103.90294647216797 297.33203125 107.0 287.0 L 99.0 287.0" stroke-width="2.0" fill="rgb(249, 144, 146)" opacity="1.0" stroke="rgb(0, 0, 0)" stroke-opacity="0.0" stroke-linecap="round" stroke-linejoin="round"/>
    <path d="M 256.0 284.0 C 250.70079040527344 301.74566650390625 272.4825744628906 292.96893310546875 283.0 295.0 C 286.9487609863281 278.7203063964844 266.3316955566406 285.2406311035156 256.0 284.0" stroke-width="2.0" fill="rgb(247, 119, 137)" opacity="1.0" stroke="rgb(0, 0, 0)" stroke-opacity="0.0" stroke-linecap="round" stroke-linejoin="round"/>
    <path d="M 320.0 35.0 L 321.0 45.0 C 330.4541931152344 39.92841339111328 355.8056640625 52.03807830810547 350.0 35.0 L 320.0 35.0" stroke-width="2.0" fill="rgb(249, 198, 208)" opacity="1.0" stroke="rgb(0, 0, 0)" stroke-opacity="0.0" stroke-linecap="round" stroke-linejoin="round"/>
    <path d="M 296.0 285.0 C 290.8780517578125 300.6081848144531 307.2141418457031 299.5810241699219 318.0 299.0 C 322.9698181152344 283.7547607421875 307.7143249511719 284.8360595703125 296.0 285.0" stroke-width="2.0" fill="rgb(249, 114, 129)" opacity="1.0" stroke="rgb(0, 0, 0)" stroke-opacity="0.0" stroke-linecap="round" stroke-linejoin="round"/>
    <path d="M 88.0 323.0 C 81.06485748291016 317.5888366699219 58.57758331298828 318.3118896484375 62.0 332.0 C 70.85179901123047 329.5184631347656 91.18769073486328 338.5210266113281 88.0 323.0" stroke-width="2.0" fill="rgb(231, 230, 213)" opacity="1.0" stroke="rgb(0, 0, 0)" stroke-opacity="0.0" stroke-linecap="round" stroke-linejoin="round"/>
    <path d="M 158.0 286.0 C 152.87806701660156 302.45526123046875 169.21412658691406 297.4525451660156 180.0 298.0 L 180.0 285.0 L 158.0 286.0" stroke-width="2.0" fill="rgb(248, 116, 130)" opacity="1.0" stroke="rgb(0, 0, 0)" stroke-opacity="0.0" stroke-linecap="round" stroke-linejoin="round"/>
    <path d="M 460.0 339.0 L 458.0 359.0 L 472.0 360.0 C 471.2859802246094 351.1775817871094 476.4710998535156 332.2816162109375 460.0 339.0" stroke-width="2.0" fill="rgb(234, 221, 197)" opacity="1.0" stroke="rgb(0, 0, 0)" stroke-opacity="0.0" stroke-linecap="round" stroke-linejoin="round"/>
    <path d="M 198.0 320.0 C 187.1336212158203 320.7400207519531 169.75161743164062 315.1293640136719 175.0 332.0 C 184.51788330078125 331.457275390625 202.24398803710938 336.1059875488281 198.0 320.0" stroke-width="2.0" fill="rgb(243, 221, 206)" opacity="1.0" stroke="rgb(0, 0, 0)" stroke-opacity="0.0" stroke-linecap="round" stroke-linejoin="round"/>
    <path d="M 365.0 321.0 C 360.0140686035156 336.6568908691406 377.85894775390625 332.13531494140625 388.0 331.0 C 392.9076843261719 315.0923156738281 376.04180908203125 320.95819091796875 365.0 321.0" stroke-width="2.0" fill="rgb(243, 219, 204)" opacity="1.0" stroke="rgb(0, 0, 0)" stroke-opacity="0.0" stroke-linecap="round" stroke-linejoin="round"/>
    <path d="M 32.0 323.0 C 28.6844482421875 338.093994140625 48.35015869140625 329.9889221191406 57.0 332.0 C 61.140384674072266 316.3431091308594 42.84904098510742 320.86468505859375 32.0 323.0" stroke-width="2.0" fill="rgb(229, 228, 210)" opacity="1.0" stroke="rgb(0, 0, 0)" stroke-opacity="0.0" stroke-linecap="round" stroke-linejoin="round"/>
    <path d="M 392.0 332.0 C 401.1144714355469 330.5835876464844 422.8789978027344 337.7073669433594 416.0 321.0 C 407.2402038574219 322.32891845703125 389.0990295410156 315.73980712890625 392.0 332.0" stroke-width="2.0" fill="rgb(229, 228, 210)" opacity="1.0" stroke="rgb(0, 0, 0)" stroke-opacity="0.0" stroke-linecap="round" stroke-linejoin="round"/>
    <path d="M 421.0 323.0 C 417.6844482421875 337.431884765625 437.35015869140625 331.316162109375 446.0 331.0 C 449.6021423339844 316.572998046875 431.2325439453125 320.81298828125 421.0 323.0" stroke-width="2.0" fill="rgb(229, 229, 213)" opacity="1.0" stroke="rgb(0, 0, 0)" stroke-opacity="0.0" stroke-linecap="round" stroke-linejoin="round"/>
    <path d="M 320.0 286.0 L 321.0 300.0 C 330.21197509765625 298.2386474609375 347.0009765625 302.6554870605469 340.0 287.0 L 320.0 286.0" stroke-width="2.0" fill="rgb(248, 116, 130)" opacity="1.0" stroke="rgb(0, 0, 0)" stroke-opacity="0.0" stroke-linecap="round" stroke-linejoin="round"/>
    <path d="M 110.0 287.0 C 105.03018188476562 302.3077087402344 120.28569030761719 300.0415344238281 131.0 298.0 C 135.67454528808594 283.59002685546875 120.87348175048828 284.625 110.0 287.0" stroke-width="2.0" fill="rgb(246, 116, 130)" opacity="1.0" stroke="rgb(0, 0, 0)" stroke-opacity="0.0" stroke-linecap="round" stroke-linejoin="round"/>
    <path d="M 133.0 287.0 C 128.09231567382812 302.2455749511719 144.9581756591797 298.3690490722656 155.0 297.0 C 159.5421600341797 281.99212646484375 143.22711181640625 286.4598388671875 133.0 287.0" stroke-width="2.0" fill="rgb(247, 119, 131)" opacity="1.0" stroke="rgb(0, 0, 0)" stroke-opacity="0.0" stroke-linecap="round" stroke-linejoin="round"/>
    <path d="M 1.0 367.0 L 0.0 389.0 C 18.188396453857422 397.23486328125 16.45387840270996 363.59185791015625 1.0 367.0" stroke-width="2.0" fill="rgb(235, 222, 198)" opacity="1.0" stroke="rgb(0, 0, 0)" stroke-opacity="0.0" stroke-linecap="round" stroke-linejoin="round"/>
    <path d="M 364.0 288.0 C 365.4395446777344 297.2242431640625 360.1402893066406 318.2729187011719 373.0 318.0 C 370.06707763671875 308.2662353515625 380.216064453125 285.45062255859375 364.0 288.0" stroke-width="2.0" fill="rgb(248, 149, 150)" opacity="1.0" stroke="rgb(0, 0, 0)" stroke-opacity="0.0" stroke-linecap="round" stroke-linejoin="round"/>
    <path d="M 329.0 263.0 C 317.52667236328125 266.6173400878906 328.2396240234375 271.2739562988281 321.0 277.0 C 325.25408935546875 286.2125244140625 343.90399169921875 281.89227294921875 337.0 273.0 C 343.79730224609375 268.0261535644531 334.2251281738281 262.9959716796875 329.0 263.0" stroke-width="2.0" fill="rgb(29, 96, 118)" opacity="1.0" stroke="rgb(0, 0, 0)" stroke-opacity="0.0" stroke-linecap="round" stroke-linejoin="round"/>
    <path d="M 450.0 321.0 C 442.2430725097656 337.3192443847656 462.683837890625 330.8077087402344 472.0 332.0 C 476.5421447753906 316.3865051269531 460.22711181640625 322.71026611328125 450.0 321.0" stroke-width="2.0" fill="rgb(228, 228, 214)" opacity="1.0" stroke="rgb(0, 0, 0)" stroke-opacity="0.0" stroke-linecap="round" stroke-linejoin="round"/>
    <path d="M 375.0 289.0 L 375.0 303.0 C 384.3670959472656 300.7475891113281 400.78680419921875 307.04315185546875 394.0 291.0 L 375.0 289.0" stroke-width="2.0" fill="rgb(238, 106, 126)" opacity="1.0" stroke="rgb(0, 0, 0)" stroke-opacity="0.0" stroke-linecap="round" stroke-linejoin="round"/>
    <path d="M 236.0 260.0 C 224.3676300048828 264.1163330078125 234.99273681640625 269.20806884765625 229.0 274.0 C 233.28794860839844 285.4775390625 252.20489501953125 276.8316345214844 244.0 271.0 C 249.7279510498047 266.95550537109375 242.746826171875 260.33349609375 236.0 260.0" stroke-width="2.0" fill="rgb(30, 95, 119)" opacity="1.0" stroke="rgb(0, 0, 0)" stroke-opacity="0.0" stroke-linecap="round" stroke-linejoin="round"/>
    <path d="M 5.0 323.0 C 0.8330010175704956 336.505859375 17.4503173828125 331.8756408691406 26.0 331.0 C 31.466249465942383 316.7998962402344 13.625804901123047 318.1318664550781 5.0 323.0" stroke-width="2.0" fill="rgb(227, 228, 212)" opacity="1.0" stroke="rgb(0, 0, 0)" stroke-opacity="0.0" stroke-linecap="round" stroke-linejoin="round"/>
    <path d="M 96.0 289.0 C 85.27337646484375 286.7914733886719 72.6452407836914 289.11505126953125 78.0 303.0 L 96.0 302.0 L 96.0 289.0" stroke-width="2.0" fill="rgb(239, 107, 125)" opacity="1.0" stroke="rgb(0, 0, 0)" stroke-opacity="0.0" stroke-linecap="round" stroke-linejoin="round"/>
    <path d="M 75.0 230.0 C 71.18572235107422 228.2650604248047 67.22309875488281 230.2197723388672 66.0 223.0 C 57.0 223.4925994873047 48.0 223.84519958496094 39.0 227.0 C 40.968170166015625 230.1968231201172 54.1802978515625 224.34005737304688 49.0 233.0 C 57.33333206176758 238.2976837158203 65.66666412353516 230.43064880371094 75.0 230.0" stroke-width="2.0" fill="rgb(225, 225, 229)" opacity="1.0" stroke="rgb(0, 0, 0)" stroke-opacity="0.0" stroke-linecap="round" stroke-linejoin="round"/>
    <path d="M 183.0 421.0 L 215.0 422.0 L 217.0 416.0 L 184.0 415.0 L 183.0 421.0" stroke-width="2.0" fill="rgb(196, 181, 149)" opacity="1.0" stroke="rgb(0, 0, 0)" stroke-opacity="0.0" stroke-linecap="round" stroke-linejoin="round"/>
    <path d="M 141.0 263.0 C 130.8701171875 266.1934814453125 140.0760955810547 271.4627380371094 135.0 277.0 C 138.7954559326172 285.4978332519531 156.26605224609375 280.936767578125 149.0 273.0 C 155.79730224609375 268.1876220703125 146.22512817382812 261.61370849609375 141.0 263.0" stroke-width="2.0" fill="rgb(30, 95, 116)" opacity="1.0" stroke="rgb(0, 0, 0)" stroke-opacity="0.0" stroke-linecap="round" stroke-linejoin="round"/>
    <path d="M 283.0 320.0 C 279.6835021972656 334.3456726074219 293.375 332.54766845703125 303.0 332.0 L 303.0 320.0 L 283.0 320.0" stroke-width="2.0" fill="rgb(243, 218, 204)" opacity="1.0" stroke="rgb(0, 0, 0)" stroke-opacity="0.0" stroke-linecap="round" stroke-linejoin="round"/>
    <path d="M 343.0 288.0 C 338.483642578125 301.99542236328125 352.19598388671875 300.57421875 362.0 300.0 L 362.0 288.0 L 343.0 288.0" stroke-width="2.0" fill="rgb(248, 115, 130)" opacity="1.0" stroke="rgb(0, 0, 0)" stroke-opacity="0.0" stroke-linecap="round" stroke-linejoin="round"/>
    <path d="M 187.0 401.0 C 195.33981323242188 405.5821533203125 207.99514770507812 401.72900390625 218.0 403.0 C 220.6011199951172 389.3028259277344 197.56143188476562 398.8196716308594 189.0 396.0 L 187.0 401.0" stroke-width="2.0" fill="rgb(202, 181, 147)" opacity="1.0" stroke="rgb(0, 0, 0)" stroke-opacity="0.0" stroke-linecap="round" stroke-linejoin="round"/>
    <path d="M 7.0 425.0 L 0.0 427.0 L 0.0 462.0 L 3.0 445.0 C 9.005912780761719 438.06207275390625 21.23636817932129 430.76812744140625 7.0 425.0" stroke-width="2.0" fill="rgb(238, 233, 220)" opacity="1.0" stroke="rgb(0, 0, 0)" stroke-opacity="0.0" stroke-linecap="round" stroke-linejoin="round"/>
    <path d="M 256.0 381.0 C 257.36993408203125 392.610107421875 277.5903625488281 385.5524597167969 287.0 386.0 C 285.5146789550781 373.8141174316406 266.3808288574219 382.71649169921875 256.0 381.0" stroke-width="2.0" fill="rgb(201, 180, 143)" opacity="1.0" stroke="rgb(0, 0, 0)" stroke-opacity="0.0" stroke-linecap="round" stroke-linejoin="round"/>
    <path d="M 162.0 216.0 C 162.73182678222656 227.99742126464844 180.45382690429688 219.42593383789062 189.0 220.0 C 190.6533203125 206.70884704589844 169.0880126953125 215.15481567382812 162.0 216.0" stroke-width="2.0" fill="rgb(34, 126, 151)" opacity="1.0" stroke="rgb(0, 0, 0)" stroke-opacity="0.0" stroke-linecap="round" stroke-linejoin="round"/>
    <path d="M 191.0 382.0 C 193.60789489746094 391.8560485839844 211.89402770996094 385.8147277832031 221.0 386.0 L 221.0 380.0 L 191.0 382.0" stroke-width="2.0" fill="rgb(199, 179, 143)" opacity="1.0" stroke="rgb(0, 0, 0)" stroke-opacity="0.0" stroke-linecap="round" stroke-linejoin="round"/>
    <path d="M 460.0 344.0 L 459.0 360.0 L 472.0 360.0 C 472.646240234375 350.353759765625 473.85577392578125 340.14422607421875 460.0 344.0" stroke-width="2.0" fill="rgb(240, 230, 209)" opacity="1.0" stroke="rgb(0, 0, 0)" stroke-opacity="0.0" stroke-linecap="round" stroke-linejoin="round"/>
    <path d="M 405.0 402.0 C 415.0104675292969 399.3577880859375 431.0525207519531 408.4296569824219 435.0 395.0 C 425.8863525390625 397.71649169921875 406.0903015136719 388.8141174316406 405.0 402.0" stroke-width="2.0" fill="rgb(207, 196, 169)" opacity="1.0" stroke="rgb(0, 0, 0)" stroke-opacity="0.0" stroke-linecap="round" stroke-linejoin="round"/>
    <path d="M 38.0 396.0 L 38.0 402.0 L 68.0 402.0 C 68.51922607421875 388.3360900878906 47.95016860961914 400.16943359375 38.0 396.0" stroke-width="2.0" fill="rgb(205, 195, 168)" opacity="1.0" stroke="rgb(0, 0, 0)" stroke-opacity="0.0" stroke-linecap="round" stroke-linejoin="round"/>
    <path d="M 258.0 397.0 C 261.5357971191406 409.2729187011719 280.0457458496094 400.2242431640625 290.0 403.0 C 288.2520751953125 390.628173828125 268.66632080078125 399.6590270996094 258.0 397.0" stroke-width="2.0" fill="rgb(203, 181, 147)" opacity="1.0" stroke="rgb(0, 0, 0)" stroke-opacity="0.0" stroke-linecap="round" stroke-linejoin="round"/>
    <path d="M 288.0 214.0 C 286.9447937011719 226.81179809570312 303.94482421875 220.47044372558594 312.0 222.0 C 314.47833251953125 209.07369995117188 296.9568786621094 214.9533233642578 288.0 214.0" stroke-width="2.0" fill="rgb(31, 125, 151)" opacity="1.0" stroke="rgb(0, 0, 0)" stroke-opacity="0.0" stroke-linecap="round" stroke-linejoin="round"/>
    <path d="M 367.0 396.0 C 357.3628845214844 398.16363525390625 340.7549133300781 391.32147216796875 336.0 400.0 C 344.0829162597656 404.57684326171875 356.27227783203125 400.7328796386719 366.0 402.0 L 367.0 396.0" stroke-width="2.0" fill="rgb(203, 193, 165)" opacity="1.0" stroke="rgb(0, 0, 0)" stroke-opacity="0.0" stroke-linecap="round" stroke-linejoin="round"/>
    <path d="M 375.0 228.0 L 376.0 235.0 C 388.3333435058594 237.60353088378906 400.6666564941406 232.7537078857422 413.0 230.0 C 402.6620788574219 224.1326904296875 388.0034484863281 235.15284729003906 375.0 228.0" stroke-width="2.0" fill="rgb(215, 218, 226)" opacity="1.0" stroke="rgb(0, 0, 0)" stroke-opacity="0.0" stroke-linecap="round" stroke-linejoin="round"/>
    <path d="M 166.0 88.0 C 160.10430908203125 76.69503784179688 152.69619750976562 78.72445678710938 151.0 91.0 C 145.65150451660156 92.90752410888672 137.6869659423828 91.29204559326172 134.0 95.0 C 144.33790588378906 94.45379638671875 157.32723999023438 95.75151062011719 166.0 88.0" stroke-width="2.0" fill="rgb(247, 220, 224)" opacity="1.0" stroke="rgb(0, 0, 0)" stroke-opacity="0.0" stroke-linecap="round" stroke-linejoin="round"/>
    <path d="M 111.0 396.0 L 111.0 402.0 L 141.0 402.0 L 141.0 396.0 L 111.0 396.0" stroke-width="2.0" fill="rgb(204, 194, 168)" opacity="1.0" stroke="rgb(0, 0, 0)" stroke-opacity="0.0" stroke-linecap="round" stroke-linejoin="round"/>
    <path d="M 212.0 472.0 C 206.03855895996094 483.5811767578125 243.0060272216797 482.7574768066406 227.0 469.0 C 222.3333282470703 468.2971496582031 217.6666717529297 465.9446716308594 212.0 472.0" stroke-width="2.0" fill="rgb(244, 243, 234)" opacity="1.0" stroke="rgb(0, 0, 0)" stroke-opacity="0.0" stroke-linecap="round" stroke-linejoin="round"/>
    <path d="M 128.0 218.0 C 128.6090087890625 230.11306762695312 144.7454376220703 221.96620178222656 153.0 222.0 C 152.50485229492188 210.6765594482422 137.0723419189453 217.6300811767578 128.0 218.0" stroke-width="2.0" fill="rgb(34, 125, 152)" opacity="1.0" stroke="rgb(0, 0, 0)" stroke-opacity="0.0" stroke-linecap="round" stroke-linejoin="round"/>
    <path d="M 231.0 65.0 C 229.6501922607422 71.15238189697266 229.22787475585938 84.67809295654297 239.0 82.0 C 242.97872924804688 74.23958587646484 244.3623504638672 60.53974533081055 231.0 65.0" stroke-width="2.0" fill="rgb(236, 142, 149)" opacity="1.0" stroke="rgb(0, 0, 0)" stroke-opacity="0.0" stroke-linecap="round" stroke-linejoin="round"/>
    <path d="M 322.0 218.0 C 321.9951477050781 226.3505859375 349.59564208984375 229.58139038085938 344.0 217.0 L 322.0 218.0" stroke-width="2.0" fill="rgb(32, 127, 154)" opacity="1.0" stroke="rgb(0, 0, 0)" stroke-opacity="0.0" stroke-linecap="round" stroke-linejoin="round"/>
    <path d="M 192.0 50.0 C 187.14356994628906 64.28773498535156 213.9712371826172 63.3446159362793 207.0 49.0 L 192.0 50.0" stroke-width="2.0" fill="rgb(249, 199, 210)" opacity="1.0" stroke="rgb(0, 0, 0)" stroke-opacity="0.0" stroke-linecap="round" stroke-linejoin="round"/>
    <path d="M 366.0 265.0 C 366.38238525390625 272.93414306640625 359.66912841796875 289.6612548828125 373.0 286.0 C 371.0694885253906 279.3789978027344 377.9997253417969 263.8348083496094 366.0 265.0" stroke-width="2.0" fill="rgb(66, 116, 136)" opacity="1.0" stroke="rgb(0, 0, 0)" stroke-opacity="0.0" stroke-linecap="round" stroke-linejoin="round"/>
    <path d="M 120.0 218.0 C 112.3587875366211 218.98960876464844 97.28926086425781 215.8230438232422 101.0 228.0 C 107.2889633178711 225.52391052246094 124.36138153076172 230.193115234375 120.0 218.0" stroke-width="2.0" fill="rgb(34, 124, 150)" opacity="1.0" stroke="rgb(0, 0, 0)" stroke-opacity="0.0" stroke-linecap="round" stroke-linejoin="round"/>
    <path d="M 467.0 368.0 C 462.9580383300781 373.11102294921875 459.99786376953125 391.4864807128906 472.0 389.0 C 470.0855712890625 382.5810852050781 476.2760314941406 368.0572814941406 467.0 368.0" stroke-width="2.0" fill="rgb(238, 227, 206)" opacity="1.0" stroke="rgb(0, 0, 0)" stroke-opacity="0.0" stroke-linecap="round" stroke-linejoin="round"/>
    <path d="M 104.0 264.0 C 95.74681091308594 265.0575256347656 95.51432037353516 290.4279479980469 107.0 284.0 C 105.52017974853516 277.9876708984375 109.66734313964844 269.3498229980469 104.0 264.0" stroke-width="2.0" fill="rgb(71, 115, 137)" opacity="1.0" stroke="rgb(0, 0, 0)" stroke-opacity="0.0" stroke-linecap="round" stroke-linejoin="round"/>
    <path d="M 148.0 397.0 L 148.0 401.0 L 178.0 401.0 L 178.0 396.0 L 148.0 397.0" stroke-width="2.0" fill="rgb(213, 194, 160)" opacity="1.0" stroke="rgb(0, 0, 0)" stroke-opacity="0.0" stroke-linecap="round" stroke-linejoin="round"/>
    <path d="M 193.0 371.0 C 200.7549591064453 375.5710144042969 212.60171508789062 371.7371520996094 222.0 373.0 L 223.0 368.0 C 213.93377685546875 369.2671203613281 199.75648498535156 365.42315673828125 193.0 371.0" stroke-width="2.0" fill="rgb(200, 181, 145)" opacity="1.0" stroke="rgb(0, 0, 0)" stroke-opacity="0.0" stroke-linecap="round" stroke-linejoin="round"/>
    <path d="M 353.0 218.0 C 345.9775085449219 229.8199920654297 377.2673645019531 232.37347412109375 370.0 220.0 L 353.0 218.0" stroke-width="2.0" fill="rgb(35, 124, 150)" opacity="1.0" stroke="rgb(0, 0, 0)" stroke-opacity="0.0" stroke-linecap="round" stroke-linejoin="round"/>
    <path d="M 254.0 368.0 C 256.3086853027344 377.7936706542969 274.20330810546875 371.857666015625 283.0 372.0 C 279.1683654785156 363.38604736328125 263.6908264160156 370.1488952636719 254.0 368.0" stroke-width="2.0" fill="rgb(201, 181, 146)" opacity="1.0" stroke="rgb(0, 0, 0)" stroke-opacity="0.0" stroke-linecap="round" stroke-linejoin="round"/>
    <path d="M 226.0 88.0 C 224.62803649902344 96.75515747070312 239.62794494628906 87.15397644042969 246.0 92.0 C 247.9546356201172 81.3796615600586 229.4667510986328 79.1946029663086 226.0 88.0" stroke-width="2.0" fill="rgb(34, 103, 128)" opacity="1.0" stroke="rgb(0, 0, 0)" stroke-opacity="0.0" stroke-linecap="round" stroke-linejoin="round"/>
    <path d="M 197.0 213.0 C 192.1070098876953 223.91018676757812 219.8929901123047 223.65576171875 215.0 212.0 L 197.0 213.0" stroke-width="2.0" fill="rgb(28, 125, 152)" opacity="1.0" stroke="rgb(0, 0, 0)" stroke-opacity="0.0" stroke-linecap="round" stroke-linejoin="round"/>
    <path d="M 190.0 262.0 C 179.65748596191406 260.0564880371094 179.16128540039062 285.9581604003906 191.0 280.0 L 190.0 262.0" stroke-width="2.0" fill="rgb(75, 120, 138)" opacity="1.0" stroke="rgb(0, 0, 0)" stroke-opacity="0.0" stroke-linecap="round" stroke-linejoin="round"/>
    <path d="M 317.0 162.0 C 310.02398681640625 176.3621063232422 338.3304748535156 178.6717529296875 329.0 163.0 L 317.0 162.0" stroke-width="2.0" fill="rgb(36, 123, 149)" opacity="1.0" stroke="rgb(0, 0, 0)" stroke-opacity="0.0" stroke-linecap="round" stroke-linejoin="round"/>
    <path d="M 176.0 163.0 C 168.01431274414062 158.51541137695312 157.39710998535156 161.31065368652344 161.0 171.0 C 166.8289337158203 170.5241241455078 178.7878875732422 173.78810119628906 176.0 163.0" stroke-width="2.0" fill="rgb(37, 122, 149)" opacity="1.0" stroke="rgb(0, 0, 0)" stroke-opacity="0.0" stroke-linecap="round" stroke-linejoin="round"/>
    <path d="M 264.0 212.0 C 256.87750244140625 223.4585723876953 286.06878662109375 225.02670288085938 279.0 212.0 L 264.0 212.0" stroke-width="2.0" fill="rgb(27, 124, 151)" opacity="1.0" stroke="rgb(0, 0, 0)" stroke-opacity="0.0" stroke-linecap="round" stroke-linejoin="round"/>
    <path d="M 350.0 306.0 C 341.2298889160156 322.1147766113281 367.30072021484375 322.1147766113281 360.0 306.0 L 350.0 306.0" stroke-width="2.0" fill="rgb(243, 106, 122)" opacity="1.0" stroke="rgb(0, 0, 0)" stroke-opacity="0.0" stroke-linecap="round" stroke-linejoin="round"/>
    <path d="M 269.0 160.0 C 262.04132080078125 172.97120666503906 290.51837158203125 172.97120666503906 283.0 160.0 L 269.0 160.0" stroke-width="2.0" fill="rgb(35, 127, 152)" opacity="1.0" stroke="rgb(0, 0, 0)" stroke-opacity="0.0" stroke-linecap="round" stroke-linejoin="round"/>
    <path d="M 23.0 339.0 C 24.430042266845703 346.9088134765625 41.118099212646484 342.2078552246094 49.0 342.0 C 44.549659729003906 333.86602783203125 31.752689361572266 339.823974609375 23.0 339.0" stroke-width="2.0" fill="rgb(213, 193, 160)" opacity="1.0" stroke="rgb(0, 0, 0)" stroke-opacity="0.0" stroke-linecap="round" stroke-linejoin="round"/>
    <path d="M 137.0 339.0 C 138.14483642578125 347.5218200683594 154.41783142089844 340.9154968261719 162.0 343.0 C 161.13571166992188 332.9486389160156 145.28558349609375 340.19329833984375 137.0 339.0" stroke-width="2.0" fill="rgb(212, 192, 159)" opacity="1.0" stroke="rgb(0, 0, 0)" stroke-opacity="0.0" stroke-linecap="round" stroke-linejoin="round"/>
    <path d="M 430.0 339.0 C 431.14483642578125 347.5218200683594 447.4178161621094 340.9154968261719 455.0 343.0 C 454.1357116699219 333.23675537109375 438.28558349609375 340.00994873046875 430.0 339.0" stroke-width="2.0" fill="rgb(212, 193, 158)" opacity="1.0" stroke="rgb(0, 0, 0)" stroke-opacity="0.0" stroke-linecap="round" stroke-linejoin="round"/>
    <path d="M 437.0 369.0 C 439.2799377441406 374.24285888671875 468.7751770019531 374.2098083496094 460.0 367.0 L 437.0 369.0" stroke-width="2.0" fill="rgb(212, 194, 159)" opacity="1.0" stroke="rgb(0, 0, 0)" stroke-opacity="0.0" stroke-linecap="round" stroke-linejoin="round"/>
    <path d="M 187.0 161.0 C 180.2388458251953 173.1525421142578 207.3055877685547 172.26490783691406 201.0 160.0 L 187.0 161.0" stroke-width="2.0" fill="rgb(35, 124, 150)" opacity="1.0" stroke="rgb(0, 0, 0)" stroke-opacity="0.0" stroke-linecap="round" stroke-linejoin="round"/>
    <path d="M 231.0 65.0 C 224.13632202148438 79.7432861328125 245.68800354003906 81.45571899414062 242.0 66.0 L 231.0 65.0" stroke-width="2.0" fill="rgb(236, 137, 143)" opacity="1.0" stroke="rgb(0, 0, 0)" stroke-opacity="0.0" stroke-linecap="round" stroke-linejoin="round"/>
    <path d="M 316.0 339.0 C 317.14483642578125 347.5218200683594 333.4178161621094 340.9154968261719 341.0 343.0 C 340.1357116699219 333.5374450683594 324.28558349609375 339.82952880859375 316.0 339.0" stroke-width="2.0" fill="rgb(212, 193, 158)" opacity="1.0" stroke="rgb(0, 0, 0)" stroke-opacity="0.0" stroke-linecap="round" stroke-linejoin="round"/>
    <path d="M 16.0 368.0 C 17.144838333129883 375.8610534667969 33.417823791503906 371.240966796875 41.0 371.0 C 38.59819030761719 363.52587890625 24.291316986083984 367.4997253417969 16.0 368.0" stroke-width="2.0" fill="rgb(212, 193, 157)" opacity="1.0" stroke="rgb(0, 0, 0)" stroke-opacity="0.0" stroke-linecap="round" stroke-linejoin="round"/>
    <path d="M 331.0 476.0 C 323.93231201171875 468.5538330078125 308.3554382324219 473.19281005859375 309.0 484.0 C 313.8909606933594 475.5971374511719 327.7730407714844 481.908447265625 331.0 476.0" stroke-width="2.0" fill="rgb(252, 248, 233)" opacity="1.0" stroke="rgb(0, 0, 0)" stroke-opacity="0.0" stroke-linecap="round" stroke-linejoin="round"/>
    <path d="M 295.0 162.0 C 289.74884033203125 174.7166748046875 314.20709228515625 174.7166748046875 308.0 162.0 L 295.0 162.0" stroke-width="2.0" fill="rgb(37, 122, 150)" opacity="1.0" stroke="rgb(0, 0, 0)" stroke-opacity="0.0" stroke-linecap="round" stroke-linejoin="round"/>
    <path d="M 130.0 368.0 C 131.14483642578125 375.8610534667969 147.41783142089844 371.240966796875 155.0 371.0 C 152.5981903076172 362.8878173828125 138.29132080078125 368.1946716308594 130.0 368.0" stroke-width="2.0" fill="rgb(213, 193, 161)" opacity="1.0" stroke="rgb(0, 0, 0)" stroke-opacity="0.0" stroke-linecap="round" stroke-linejoin="round"/>
    <path d="M 160.0 368.0 C 160.86428833007812 376.46905517578125 176.71441650390625 369.9522399902344 184.0 372.0 C 183.41098022460938 362.05322265625 167.99252319335938 369.12274169921875 160.0 368.0" stroke-width="2.0" fill="rgb(212, 192, 159)" opacity="1.0" stroke="rgb(0, 0, 0)" stroke-opacity="0.0" stroke-linecap="round" stroke-linejoin="round"/>
    <path d="M 294.0 368.0 C 296.40179443359375 376.4109802246094 310.70867919921875 369.9925231933594 318.0 372.0 C 318.7180480957031 361.9486389160156 302.1400451660156 369.19329833984375 294.0 368.0" stroke-width="2.0" fill="rgb(211, 192, 160)" opacity="1.0" stroke="rgb(0, 0, 0)" stroke-opacity="0.0" stroke-linecap="round" stroke-linejoin="round"/>
    <path d="M 53.0 339.0 C 55.40180969238281 347.4109802246094 69.70868682861328 340.9925231933594 77.0 343.0 C 77.71803283691406 333.6089782714844 61.14002990722656 338.8684387207031 53.0 339.0" stroke-width="2.0" fill="rgb(214, 193, 160)" opacity="1.0" stroke="rgb(0, 0, 0)" stroke-opacity="0.0" stroke-linecap="round" stroke-linejoin="round"/>
    <path d="M 245.0 211.0 C 239.75611877441406 222.8101806640625 262.5475769042969 224.20887756347656 260.0 212.0 L 245.0 211.0" stroke-width="2.0" fill="rgb(26, 125, 150)" opacity="1.0" stroke="rgb(0, 0, 0)" stroke-opacity="0.0" stroke-linecap="round" stroke-linejoin="round"/>
    <path d="M 323.0 369.0 C 327.4503479003906 375.59820556640625 340.247314453125 370.29132080078125 348.0 372.0 C 347.1357116699219 363.43145751953125 331.28558349609375 367.42950439453125 323.0 369.0" stroke-width="2.0" fill="rgb(212, 193, 160)" opacity="1.0" stroke="rgb(0, 0, 0)" stroke-opacity="0.0" stroke-linecap="round" stroke-linejoin="round"/>
    <path d="M 401.0 339.0 C 401.8338317871094 345.2416687011719 426.38055419921875 346.1653747558594 424.0 338.0 L 401.0 339.0" stroke-width="2.0" fill="rgb(210, 193, 160)" opacity="1.0" stroke="rgb(0, 0, 0)" stroke-opacity="0.0" stroke-linecap="round" stroke-linejoin="round"/>
    <path d="M 289.0 263.0 C 285.963134765625 269.3350524902344 283.8206787109375 283.5842590332031 294.0 281.0 C 292.3399658203125 275.5445251464844 297.9012756347656 263.6352233886719 289.0 263.0" stroke-width="2.0" fill="rgb(79, 123, 141)" opacity="1.0" stroke="rgb(0, 0, 0)" stroke-opacity="0.0" stroke-linecap="round" stroke-linejoin="round"/>
    <path d="M 353.0 369.0 C 355.3021240234375 373.8048095703125 382.068603515625 374.8404846191406 375.0 367.0 L 353.0 369.0" stroke-width="2.0" fill="rgb(212, 194, 158)" opacity="1.0" stroke="rgb(0, 0, 0)" stroke-opacity="0.0" stroke-linecap="round" stroke-linejoin="round"/>
    <path d="M 167.0 339.0 C 168.27195739746094 345.2416687011719 191.75445556640625 346.1653747558594 190.0 338.0 L 167.0 339.0" stroke-width="2.0" fill="rgb(213, 193, 159)" opacity="1.0" stroke="rgb(0, 0, 0)" stroke-opacity="0.0" stroke-linecap="round" stroke-linejoin="round"/>
    <path d="M 346.0 339.0 C 344.06622314453125 346.7389831542969 378.6980895996094 344.0340881347656 366.0 338.0 L 346.0 339.0" stroke-width="2.0" fill="rgb(213, 193, 159)" opacity="1.0" stroke="rgb(0, 0, 0)" stroke-opacity="0.0" stroke-linecap="round" stroke-linejoin="round"/>
    <path d="M 288.0 338.0 C 287.2819519042969 348.0513610839844 303.8599548339844 340.80670166015625 311.0 343.0 C 310.6802673339844 333.4852294921875 295.7034606933594 339.8480529785156 288.0 338.0" stroke-width="2.0" fill="rgb(213, 193, 158)" opacity="1.0" stroke="rgb(0, 0, 0)" stroke-opacity="0.0" stroke-linecap="round" stroke-linejoin="round"/>
    <path d="M 168.0 32.0 C 163.0317840576172 43.310367584228516 187.9682159423828 43.74268341064453 183.0 32.0 L 168.0 32.0" stroke-width="2.0" fill="rgb(251, 200, 209)" opacity="1.0" stroke="rgb(0, 0, 0)" stroke-opacity="0.0" stroke-linecap="round" stroke-linejoin="round"/>
    <path d="M 109.0 339.0 C 109.58901977539062 347.4109802246094 125.0074691772461 340.9925231933594 132.0 343.0 C 131.6802520751953 333.749755859375 116.70346069335938 338.8282775878906 109.0 339.0" stroke-width="2.0" fill="rgb(212, 192, 156)" opacity="1.0" stroke="rgb(0, 0, 0)" stroke-opacity="0.0" stroke-linecap="round" stroke-linejoin="round"/>
    <path d="M 288.0 214.0 C 284.36846923828125 224.45645141601562 307.9456787109375 225.86683654785156 302.0 214.0 L 288.0 214.0" stroke-width="2.0" fill="rgb(33, 127, 152)" opacity="1.0" stroke="rgb(0, 0, 0)" stroke-opacity="0.0" stroke-linecap="round" stroke-linejoin="round"/>
    <path d="M 102.0 368.0 C 100.31855010986328 374.7520751953125 129.48065185546875 374.4495849609375 123.0 367.0 L 102.0 368.0" stroke-width="2.0" fill="rgb(212, 193, 160)" opacity="1.0" stroke="rgb(0, 0, 0)" stroke-opacity="0.0" stroke-linecap="round" stroke-linejoin="round"/>
    <path d="M 409.0 368.0 C 407.4493713378906 374.7190246582031 437.7815246582031 374.52813720703125 430.0 367.0 L 409.0 368.0" stroke-width="2.0" fill="rgb(212, 194, 159)" opacity="1.0" stroke="rgb(0, 0, 0)" stroke-opacity="0.0" stroke-linecap="round" stroke-linejoin="round"/>
    <path d="M 211.0 160.0 C 205.50010681152344 173.18472290039062 230.1174774169922 171.78604125976562 222.0 159.0 L 211.0 160.0" stroke-width="2.0" fill="rgb(24, 119, 144)" opacity="1.0" stroke="rgb(0, 0, 0)" stroke-opacity="0.0" stroke-linecap="round" stroke-linejoin="round"/>
    <path d="M 82.0 339.0 C 82.31974029541016 347.346923828125 97.29653930664062 341.03680419921875 104.0 343.0 C 103.94270324707031 333.2947082519531 89.41891479492188 339.9612731933594 82.0 339.0" stroke-width="2.0" fill="rgb(214, 193, 159)" opacity="1.0" stroke="rgb(0, 0, 0)" stroke-opacity="0.0" stroke-linecap="round" stroke-linejoin="round"/>
    <path d="M 1.0 305.0 C 0.4335174858570099 313.2405090332031 -3.008340358734131 328.66949462890625 3.0 332.0 C 4.071858882904053 323.25933837890625 5.897172451019287 312.1007080078125 1.0 305.0" stroke-width="2.0" fill="rgb(228, 230, 222)" opacity="1.0" stroke="rgb(0, 0, 0)" stroke-opacity="0.0" stroke-linecap="round" stroke-linejoin="round"/>
    <path d="M 46.0 368.0 C 46.17728805541992 374.7520751953125 74.58394622802734 374.4495849609375 67.0 367.0 L 46.0 368.0" stroke-width="2.0" fill="rgb(213, 193, 158)" opacity="1.0" stroke="rgb(0, 0, 0)" stroke-opacity="0.0" stroke-linecap="round" stroke-linejoin="round"/>
    <path d="M 374.0 339.0 C 374.3197326660156 347.346923828125 389.2965393066406 341.03680419921875 396.0 343.0 C 395.9427185058594 333.95343017578125 381.4189147949219 338.6385498046875 374.0 339.0" stroke-width="2.0" fill="rgb(213, 192, 160)" opacity="1.0" stroke="rgb(0, 0, 0)" stroke-opacity="0.0" stroke-linecap="round" stroke-linejoin="round"/>
    <path d="M 152.0 162.0 C 138.2491455078125 157.5017852783203 138.4019317626953 181.87599182128906 152.0 172.0 L 152.0 162.0" stroke-width="2.0" fill="rgb(36, 122, 144)" opacity="1.0" stroke="rgb(0, 0, 0)" stroke-opacity="0.0" stroke-linecap="round" stroke-linejoin="round"/>
    <path d="M 388.0 308.0 C 381.7723083496094 306.9385986328125 373.124267578125 310.46533203125 376.0 318.0 C 383.8482666015625 318.8482666015625 390.841796875 318.841796875 388.0 308.0" stroke-width="2.0" fill="rgb(242, 100, 117)" opacity="1.0" stroke="rgb(0, 0, 0)" stroke-opacity="0.0" stroke-linecap="round" stroke-linejoin="round"/>
    <path d="M 75.0 368.0 C 73.4513931274414 374.2524719238281 99.67823791503906 375.1160888671875 95.0 367.0 L 75.0 368.0" stroke-width="2.0" fill="rgb(212, 193, 161)" opacity="1.0" stroke="rgb(0, 0, 0)" stroke-opacity="0.0" stroke-linecap="round" stroke-linejoin="round"/>
    <path d="M 219.0 212.0 C 215.1011962890625 222.7421875 238.4471893310547 221.92324829101562 232.0 211.0 L 219.0 212.0" stroke-width="2.0" fill="rgb(28, 126, 155)" opacity="1.0" stroke="rgb(0, 0, 0)" stroke-opacity="0.0" stroke-linecap="round" stroke-linejoin="round"/>
    <path d="M 382.0 368.0 C 381.7959289550781 376.4877014160156 414.347900390625 371.76214599609375 398.0 367.0 L 382.0 368.0" stroke-width="2.0" fill="rgb(212, 194, 157)" opacity="1.0" stroke="rgb(0, 0, 0)" stroke-opacity="0.0" stroke-linecap="round" stroke-linejoin="round"/>
    <path d="M 468.0 372.0 C 465.43475341796875 377.6786804199219 462.7301025390625 390.9049377441406 472.0 389.0 C 470.5416259765625 383.8345947265625 475.2404479980469 373.8937683105469 468.0 372.0" stroke-width="2.0" fill="rgb(241, 230, 210)" opacity="1.0" stroke="rgb(0, 0, 0)" stroke-opacity="0.0" stroke-linecap="round" stroke-linejoin="round"/>
    <path d="M 0.0 338.0 C -3.993429660797119 346.4891662597656 24.65291404724121 344.99981689453125 16.0 338.0 L 0.0 338.0" stroke-width="2.0" fill="rgb(212, 193, 158)" opacity="1.0" stroke="rgb(0, 0, 0)" stroke-opacity="0.0" stroke-linecap="round" stroke-linejoin="round"/>
    <path d="M 448.0 305.0 C 446.9281311035156 313.6730041503906 445.1028137207031 324.9915466308594 449.0 332.0 C 447.217529296875 323.0 454.9891662597656 314.0 448.0 305.0" stroke-width="2.0" fill="rgb(221, 225, 216)" opacity="1.0" stroke="rgb(0, 0, 0)" stroke-opacity="0.0" stroke-linecap="round" stroke-linejoin="round"/>
    <path d="M 387.0 475.0 C 386.4834289550781 482.6542663574219 406.1805114746094 480.33929443359375 399.0 471.0 C 395.3333435058594 471.30780029296875 391.6666564941406 469.6648864746094 387.0 475.0" stroke-width="2.0" fill="rgb(250, 243, 228)" opacity="1.0" stroke="rgb(0, 0, 0)" stroke-opacity="0.0" stroke-linecap="round" stroke-linejoin="round"/>
    <path d="M 201.0 306.0 C 196.20875549316406 311.4289855957031 199.521240234375 325.2628479003906 200.0 334.0 C 204.1370391845703 325.0 201.04135131835938 316.0 201.0 306.0" stroke-width="2.0" fill="rgb(245, 210, 199)" opacity="1.0" stroke="rgb(0, 0, 0)" stroke-opacity="0.0" stroke-linecap="round" stroke-linejoin="round"/>
    <path d="M 305.0 348.0 C 301.30780029296875 341.00238037109375 289.28717041015625 345.0725402832031 289.0 350.0 C 294.0169677734375 351.1798400878906 301.6439514160156 352.7377624511719 305.0 348.0" stroke-width="2.0" fill="rgb(231, 219, 196)" opacity="1.0" stroke="rgb(0, 0, 0)" stroke-opacity="0.0" stroke-linecap="round" stroke-linejoin="round"/>
    <path d="M 198.0 358.0 C 202.7758331298828 361.8971862792969 215.91969299316406 360.0718688964844 224.0 359.0 C 217.65687561035156 354.4590759277344 207.00733947753906 358.240966796875 198.0 358.0" stroke-width="2.0" fill="rgb(201, 181, 146)" opacity="1.0" stroke="rgb(0, 0, 0)" stroke-opacity="0.0" stroke-linecap="round" stroke-linejoin="round"/>
    <path d="M 185.0 263.0 C 183.44839477539062 268.0915832519531 181.55006408691406 279.2564697265625 190.0 277.0 C 189.71165466308594 272.6792907714844 192.7040557861328 262.5903625488281 185.0 263.0" stroke-width="2.0" fill="rgb(101, 135, 151)" opacity="1.0" stroke="rgb(0, 0, 0)" stroke-opacity="0.0" stroke-linecap="round" stroke-linejoin="round"/>
    <path d="M 288.0 264.0 C 289.0732421875 268.6216125488281 284.68218994140625 279.475830078125 293.0 278.0 C 294.47515869140625 273.3783874511719 296.2080383300781 262.524169921875 288.0 264.0" stroke-width="2.0" fill="rgb(104, 140, 155)" opacity="1.0" stroke="rgb(0, 0, 0)" stroke-opacity="0.0" stroke-linecap="round" stroke-linejoin="round"/>
    <path d="M 101.0 268.0 C 99.76018524169922 272.6216125488281 97.33369445800781 283.475830078125 105.0 282.0 C 106.0512924194336 277.6792907714844 108.64266967773438 267.5903625488281 101.0 268.0" stroke-width="2.0" fill="rgb(108, 137, 156)" opacity="1.0" stroke="rgb(0, 0, 0)" stroke-opacity="0.0" stroke-linecap="round" stroke-linejoin="round"/>
    <path d="M 367.0 269.0 C 365.97076416015625 273.6216125488281 363.1814270019531 284.475830078125 371.0 283.0 C 372.0513000488281 278.6792907714844 374.6426696777344 268.5903625488281 367.0 269.0" stroke-width="2.0" fill="rgb(102, 138, 157)" opacity="1.0" stroke="rgb(0, 0, 0)" stroke-opacity="0.0" stroke-linecap="round" stroke-linejoin="round"/>
    <path d="M 418.0 305.0 C 419.2530212402344 313.6730041503906 415.4425048828125 324.9915466308594 420.0 332.0 C 418.4159851074219 323.3269958496094 424.33038330078125 312.0084533691406 418.0 305.0" stroke-width="2.0" fill="rgb(229, 231, 216)" opacity="1.0" stroke="rgb(0, 0, 0)" stroke-opacity="0.0" stroke-linecap="round" stroke-linejoin="round"/>
    <path d="M 251.0 159.0 C 243.66136169433594 170.98699951171875 262.18603515625 172.75418090820312 258.0 160.0 L 251.0 159.0" stroke-width="2.0" fill="rgb(26, 119, 143)" opacity="1.0" stroke="rgb(0, 0, 0)" stroke-opacity="0.0" stroke-linecap="round" stroke-linejoin="round"/>
    <path d="M 145.0 265.0 C 135.89688110351562 264.9100341796875 140.61874389648438 284.8536376953125 147.0 276.0 C 146.1763153076172 272.6666564941406 148.94400024414062 269.3333435058594 145.0 265.0" stroke-width="2.0" fill="rgb(60, 110, 127)" opacity="1.0" stroke="rgb(0, 0, 0)" stroke-opacity="0.0" stroke-linecap="round" stroke-linejoin="round"/>
    <path d="M 25.0 96.0 C 18.194616317749023 109.06986999511719 35.528594970703125 110.91815185546875 31.0 97.0 L 25.0 96.0" stroke-width="2.0" fill="rgb(241, 201, 210)" opacity="1.0" stroke="rgb(0, 0, 0)" stroke-opacity="0.0" stroke-linecap="round" stroke-linejoin="round"/>
    <path d="M 330.0 265.0 C 325.1298522949219 268.4930419921875 326.30487060546875 283.170654296875 334.0 276.0 C 333.2979736328125 272.3333435058594 336.0899963378906 268.6666564941406 330.0 265.0" stroke-width="2.0" fill="rgb(62, 111, 130)" opacity="1.0" stroke="rgb(0, 0, 0)" stroke-opacity="0.0" stroke-linecap="round" stroke-linejoin="round"/>
    <path d="M 303.0 214.0 C 297.8352355957031 224.92721557617188 317.7980651855469 225.55731201171875 311.0 214.0 L 303.0 214.0" stroke-width="2.0" fill="rgb(26, 121, 149)" opacity="1.0" stroke="rgb(0, 0, 0)" stroke-opacity="0.0" stroke-linecap="round" stroke-linejoin="round"/>
    <path d="M 378.0 367.0 C 379.2171325683594 374.00933837890625 375.4919738769531 383.6541748046875 380.0 389.0 C 381.0958251953125 382.22601318359375 382.8622131347656 370.4797058105469 378.0 367.0" stroke-width="2.0" fill="rgb(244, 235, 213)" opacity="1.0" stroke="rgb(0, 0, 0)" stroke-opacity="0.0" stroke-linecap="round" stroke-linejoin="round"/>
    <path d="M 42.0 367.0 C 43.22601318359375 373.77398681640625 39.479705810546875 385.5202941894531 44.0 389.0 C 44.75492477416992 382.22601318359375 47.106201171875 370.4797058105469 42.0 367.0" stroke-width="2.0" fill="rgb(241, 233, 209)" opacity="1.0" stroke="rgb(0, 0, 0)" stroke-opacity="0.0" stroke-linecap="round" stroke-linejoin="round"/>
    <path d="M 0.0 425.0 C 6.355430603027344 420.48919677734375 15.946502685546875 433.6806945800781 18.0 422.0 C 12.516121864318848 423.18280029296875 2.206357479095459 419.5397033691406 0.0 425.0" stroke-width="2.0" fill="rgb(157, 196, 208)" opacity="1.0" stroke="rgb(0, 0, 0)" stroke-opacity="0.0" stroke-linecap="round" stroke-linejoin="round"/>
    <path d="M 238.0 263.0 C 226.2607421875 276.869873046875 250.68438720703125 276.869873046875 238.0 263.0" stroke-width="2.0" fill="rgb(67, 114, 131)" opacity="1.0" stroke="rgb(0, 0, 0)" stroke-opacity="0.0" stroke-linecap="round" stroke-linejoin="round"/>
    <path d="M 115.0 348.0 C 115.20614624023438 352.7047424316406 133.4154052734375 353.35675048828125 129.0 347.0 L 115.0 348.0" stroke-width="2.0" fill="rgb(225, 212, 187)" opacity="1.0" stroke="rgb(0, 0, 0)" stroke-opacity="0.0" stroke-linecap="round" stroke-linejoin="round"/>
    <path d="M 460.0 339.0 C 457.5679626464844 345.37054443359375 475.7062072753906 345.3861389160156 472.0 338.0 L 460.0 339.0" stroke-width="2.0" fill="rgb(213, 192, 159)" opacity="1.0" stroke="rgb(0, 0, 0)" stroke-opacity="0.0" stroke-linecap="round" stroke-linejoin="round"/>
    <path d="M 404.0 348.0 C 403.6658630371094 352.7047424316406 423.57537841796875 353.35675048828125 417.0 347.0 L 404.0 348.0" stroke-width="2.0" fill="rgb(225, 213, 188)" opacity="1.0" stroke="rgb(0, 0, 0)" stroke-opacity="0.0" stroke-linecap="round" stroke-linejoin="round"/>
    <path d="M 59.0 349.0 C 60.955135345458984 352.4878845214844 79.17999267578125 352.6904296875 72.0 347.0 L 59.0 349.0" stroke-width="2.0" fill="rgb(224, 209, 187)" opacity="1.0" stroke="rgb(0, 0, 0)" stroke-opacity="0.0" stroke-linecap="round" stroke-linejoin="round"/>
    <path d="M 426.0 339.0 C 427.2071228027344 345.6768798828125 423.505859375 354.9863586425781 428.0 360.0 C 426.8720703125 353.55047607421875 430.56732177734375 342.1586608886719 426.0 339.0" stroke-width="2.0" fill="rgb(242, 232, 211)" opacity="1.0" stroke="rgb(0, 0, 0)" stroke-opacity="0.0" stroke-linecap="round" stroke-linejoin="round"/>
    <path d="M 0.0 367.0 C -4.23238468170166 374.5154113769531 15.895280838012695 374.5154113769531 10.0 367.0 L 0.0 367.0" stroke-width="2.0" fill="rgb(213, 193, 158)" opacity="1.0" stroke="rgb(0, 0, 0)" stroke-opacity="0.0" stroke-linecap="round" stroke-linejoin="round"/>
    <path d="M 95.0 444.0 C 94.45889282226562 450.3944091796875 113.25965118408203 450.106201171875 104.0 443.0 L 95.0 444.0" stroke-width="2.0" fill="rgb(252, 242, 228)" opacity="1.0" stroke="rgb(0, 0, 0)" stroke-opacity="0.0" stroke-linecap="round" stroke-linejoin="round"/>
    <path d="M 348.0 349.0 C 349.881591796875 351.9559326171875 365.2709655761719 353.4682312011719 361.0 347.0 L 348.0 349.0" stroke-width="2.0" fill="rgb(224, 212, 186)" opacity="1.0" stroke="rgb(0, 0, 0)" stroke-opacity="0.0" stroke-linecap="round" stroke-linejoin="round"/>
    <path d="M 448.0 305.0 C 447.03533935546875 309.3207092285156 444.5733947753906 319.4096374511719 450.0 319.0 C 451.25335693359375 314.3333435058594 452.6264953613281 309.6666564941406 448.0 305.0" stroke-width="2.0" fill="rgb(212, 223, 220)" opacity="1.0" stroke="rgb(0, 0, 0)" stroke-opacity="0.0" stroke-linecap="round" stroke-linejoin="round"/>
    <path d="M 30.0 349.0 C 31.59007453918457 351.88336181640625 49.2249755859375 353.5942077636719 43.0 347.0 L 30.0 349.0" stroke-width="2.0" fill="rgb(220, 207, 181)" opacity="1.0" stroke="rgb(0, 0, 0)" stroke-opacity="0.0" stroke-linecap="round" stroke-linejoin="round"/>
    <path d="M 304.0 306.0 C 305.2765197753906 310.0567932128906 301.026123046875 319.6405334472656 307.0 319.0 C 308.449951171875 315.0797119140625 309.65386962890625 306.6846618652344 304.0 306.0" stroke-width="2.0" fill="rgb(245, 197, 186)" opacity="1.0" stroke="rgb(0, 0, 0)" stroke-opacity="0.0" stroke-linecap="round" stroke-linejoin="round"/>
    <path d="M 362.0 306.0 C 361.1847839355469 309.9202880859375 358.58099365234375 318.3153381347656 364.0 319.0 C 365.25335693359375 314.9752197265625 366.6264953613281 308.3665771484375 362.0 306.0" stroke-width="2.0" fill="rgb(244, 201, 188)" opacity="1.0" stroke="rgb(0, 0, 0)" stroke-opacity="0.0" stroke-linecap="round" stroke-linejoin="round"/>
    <path d="M 390.0 306.0 C 388.78436279296875 310.0567932128906 386.90594482421875 319.6405334472656 393.0 319.0 C 391.9532775878906 314.9752197265625 395.26837158203125 308.3665771484375 390.0 306.0" stroke-width="2.0" fill="rgb(245, 205, 197)" opacity="1.0" stroke="rgb(0, 0, 0)" stroke-opacity="0.0" stroke-linecap="round" stroke-linejoin="round"/>
    <path d="M 237.0 211.0 C 228.95648193359375 224.7438507080078 251.05380249023438 216.83377075195312 237.0 211.0" stroke-width="2.0" fill="rgb(51, 106, 127)" opacity="1.0" stroke="rgb(0, 0, 0)" stroke-opacity="0.0" stroke-linecap="round" stroke-linejoin="round"/>
    <path d="M 0.0 467.0 C -5.580430507659912 482.5220947265625 14.010464668273926 473.7450256347656 0.0 467.0" stroke-width="2.0" fill="rgb(209, 231, 229)" opacity="1.0" stroke="rgb(0, 0, 0)" stroke-opacity="0.0" stroke-linecap="round" stroke-linejoin="round"/>
    <path d="M 420.0 305.0 C 416.2622375488281 306.2792053222656 417.8201599121094 315.464111328125 419.0 320.0 C 423.3153381347656 317.01104736328125 419.9202880859375 310.5652770996094 420.0 305.0" stroke-width="2.0" fill="rgb(222, 230, 219)" opacity="1.0" stroke="rgb(0, 0, 0)" stroke-opacity="0.0" stroke-linecap="round" stroke-linejoin="round"/>
    <path d="M 156.0 162.0 C 147.0352783203125 174.75486755371094 168.15097045898438 170.6572265625 156.0 162.0" stroke-width="2.0" fill="rgb(93, 131, 150)" opacity="1.0" stroke="rgb(0, 0, 0)" stroke-opacity="0.0" stroke-linecap="round" stroke-linejoin="round"/>
    <path d="M 282.0 213.0 C 275.8050537109375 227.55844116210938 295.7799987792969 216.24716186523438 282.0 213.0" stroke-width="2.0" fill="rgb(85, 127, 145)" opacity="1.0" stroke="rgb(0, 0, 0)" stroke-opacity="0.0" stroke-linecap="round" stroke-linejoin="round"/>
    <path d="M 172.0 305.0 C 170.64337158203125 309.87353515625 169.13682556152344 316.7134094238281 173.0 320.0 L 172.0 305.0" stroke-width="2.0" fill="rgb(251, 210, 197)" opacity="1.0" stroke="rgb(0, 0, 0)" stroke-opacity="0.0" stroke-linecap="round" stroke-linejoin="round"/>
    <path d="M 154.0 215.0 C 151.36160278320312 230.86941528320312 168.42169189453125 212.97792053222656 154.0 215.0" stroke-width="2.0" fill="rgb(54, 108, 130)" opacity="1.0" stroke="rgb(0, 0, 0)" stroke-opacity="0.0" stroke-linecap="round" stroke-linejoin="round"/>
    <path d="M 192.0 212.0 C 183.14772033691406 224.1156005859375 203.96868896484375 219.83914184570312 192.0 212.0" stroke-width="2.0" fill="rgb(77, 123, 136)" opacity="1.0" stroke="rgb(0, 0, 0)" stroke-opacity="0.0" stroke-linecap="round" stroke-linejoin="round"/>
    <path d="M 114.0 305.0 C 115.10736083984375 309.2259826660156 111.64551544189453 318.0211486816406 116.0 319.0 C 117.54315948486328 314.6449890136719 118.19767761230469 307.6957092285156 114.0 305.0" stroke-width="2.0" fill="rgb(246, 209, 199)" opacity="1.0" stroke="rgb(0, 0, 0)" stroke-opacity="0.0" stroke-linecap="round" stroke-linejoin="round"/>
    <path d="M 142.0 306.0 C 143.1958465576172 309.9202880859375 139.1462860107422 318.3153381347656 145.0 319.0 C 143.9202880859375 315.0797119140625 147.31532287597656 306.6846618652344 142.0 306.0" stroke-width="2.0" fill="rgb(242, 208, 199)" opacity="1.0" stroke="rgb(0, 0, 0)" stroke-opacity="0.0" stroke-linecap="round" stroke-linejoin="round"/>
    <path d="M 261.0 160.0 C 256.01397705078125 174.31309509277344 274.2278137207031 162.79441833496094 261.0 160.0" stroke-width="2.0" fill="rgb(102, 138, 155)" opacity="1.0" stroke="rgb(0, 0, 0)" stroke-opacity="0.0" stroke-linecap="round" stroke-linejoin="round"/>
    <path d="M 204.0 160.0 C 200.75802612304688 175.4376220703125 216.67137145996094 160.9082794189453 204.0 160.0" stroke-width="2.0" fill="rgb(105, 139, 157)" opacity="1.0" stroke="rgb(0, 0, 0)" stroke-opacity="0.0" stroke-linecap="round" stroke-linejoin="round"/>
    <path d="M 180.0 161.0 C 174.69114685058594 169.65013122558594 187.02830505371094 172.0074462890625 184.0 162.0 L 180.0 161.0" stroke-width="2.0" fill="rgb(71, 118, 133)" opacity="1.0" stroke="rgb(0, 0, 0)" stroke-opacity="0.0" stroke-linecap="round" stroke-linejoin="round"/>
    <path d="M 347.0 218.0 C 340.8445129394531 230.6556854248047 358.47900390625 222.98397827148438 347.0 218.0" stroke-width="2.0" fill="rgb(94, 135, 153)" opacity="1.0" stroke="rgb(0, 0, 0)" stroke-opacity="0.0" stroke-linecap="round" stroke-linejoin="round"/>
    <path d="M 288.0 161.0 C 282.8470153808594 168.37020874023438 293.88812255859375 173.0205841064453 292.0 163.0 C 290.4248352050781 161.23529052734375 291.2026062011719 160.56863403320312 288.0 161.0" stroke-width="2.0" fill="rgb(76, 118, 139)" opacity="1.0" stroke="rgb(0, 0, 0)" stroke-opacity="0.0" stroke-linecap="round" stroke-linejoin="round"/>
    <path d="M 462.0 349.0 C 469.6399230957031 356.7943115234375 476.1988220214844 343.1348876953125 462.0 349.0" stroke-width="2.0" fill="rgb(224, 211, 185)" opacity="1.0" stroke="rgb(0, 0, 0)" stroke-opacity="0.0" stroke-linecap="round" stroke-linejoin="round"/>
    <path d="M 238.0 211.0 C 229.41116333007812 220.62246704101562 247.58883666992188 220.62246704101562 238.0 211.0" stroke-width="2.0" fill="rgb(64, 115, 136)" opacity="1.0" stroke="rgb(0, 0, 0)" stroke-opacity="0.0" stroke-linecap="round" stroke-linejoin="round"/>
    <path d="M 317.0 215.0 C 308.9780578613281 224.2593536376953 326.4351806640625 224.2593536376953 317.0 215.0" stroke-width="2.0" fill="rgb(67, 118, 137)" opacity="1.0" stroke="rgb(0, 0, 0)" stroke-opacity="0.0" stroke-linecap="round" stroke-linejoin="round"/>
    <path d="M 127.0 218.0 C 115.90591430664062 219.22142028808594 130.16152954101562 232.14117431640625 127.0 218.0" stroke-width="2.0" fill="rgb(106, 143, 164)" opacity="1.0" stroke="rgb(0, 0, 0)" stroke-opacity="0.0" stroke-linecap="round" stroke-linejoin="round"/>
    <path d="M 3.0 72.0 C 0.4110201895236969 85.0864028930664 13.294021606445312 73.87619018554688 3.0 72.0" stroke-width="2.0" fill="rgb(246, 202, 211)" opacity="1.0" stroke="rgb(0, 0, 0)" stroke-opacity="0.0" stroke-linecap="round" stroke-linejoin="round"/>
    <path d="M 88.0 36.0 C 89.26943969726562 45.168128967285156 101.8531494140625 32.584415435791016 88.0 36.0" stroke-width="2.0" fill="rgb(249, 198, 207)" opacity="1.0" stroke="rgb(0, 0, 0)" stroke-opacity="0.0" stroke-linecap="round" stroke-linejoin="round"/>
    <path d="M 261.0 505.0 C 253.53955078125 513.1688232421875 270.76190185546875 513.1688232421875 261.0 505.0" stroke-width="2.0" fill="rgb(164, 205, 220)" opacity="1.0" stroke="rgb(0, 0, 0)" stroke-opacity="0.0" stroke-linecap="round" stroke-linejoin="round"/>
    <path d="M 152.0 56.0 C 152.7593231201172 64.43389129638672 165.6829833984375 53.89360809326172 152.0 56.0" stroke-width="2.0" fill="rgb(250, 200, 211)" opacity="1.0" stroke="rgb(0, 0, 0)" stroke-opacity="0.0" stroke-linecap="round" stroke-linejoin="round"/>
    <path d="M 227.0 471.0 C 225.77154541015625 479.2032470703125 234.35549926757812 479.2032470703125 227.0 471.0" stroke-width="2.0" fill="rgb(243, 246, 245)" opacity="1.0" stroke="rgb(0, 0, 0)" stroke-opacity="0.0" stroke-linecap="round" stroke-linejoin="round"/>
    <path d="M 350.0 449.0 C 341.8885498046875 453.99578857421875 351.8918762207031 456.3689270019531 350.0 449.0" stroke-width="2.0" fill="rgb(229, 219, 203)" opacity="1.0" stroke="rgb(0, 0, 0)" stroke-opacity="0.0" stroke-linecap="round" stroke-linejoin="round"/>
    <path d="M 220.0 418.0 L 229.0 418.0 C 217.2245635986328 416.04644775390625 223.0457000732422 413.8106994628906 220.0 418.0" stroke-width="2.0" fill="rgb(200, 182, 148)" opacity="1.0" stroke="rgb(0, 0, 0)" stroke-opacity="0.0" stroke-linecap="round" stroke-linejoin="round"/>
    <path d="M 211.0 264.0 C 206.92405700683594 269.49359130859375 218.5454559326172 265.6405334472656 211.0 264.0" stroke-width="2.0" fill="rgb(67, 161, 190)" opacity="1.0" stroke="rgb(0, 0, 0)" stroke-opacity="0.0" stroke-linecap="round" stroke-linejoin="round"/>
    <path d="M 211.0 272.0 C 206.92405700683594 277.49359130859375 218.5454559326172 273.6405334472656 211.0 272.0" stroke-width="2.0" fill="rgb(80, 158, 187)" opacity="1.0" stroke="rgb(0, 0, 0)" stroke-opacity="0.0" stroke-linecap="round" stroke-linejoin="round"/>
    <path d="M 307.0 273.0 C 305.3494567871094 279.6600646972656 314.128662109375 273.2825622558594 307.0 273.0" stroke-width="2.0" fill="rgb(82, 155, 184)" opacity="1.0" stroke="rgb(0, 0, 0)" stroke-opacity="0.0" stroke-linecap="round" stroke-linejoin="round"/>
    <path d="M 307.0 265.0 C 305.3494567871094 271.6600646972656 314.128662109375 265.2825622558594 307.0 265.0" stroke-width="2.0" fill="rgb(73, 161, 191)" opacity="1.0" stroke="rgb(0, 0, 0)" stroke-opacity="0.0" stroke-linecap="round" stroke-linejoin="round"/>
  </g>
</svg>
