<?xml version="1.0" ?>
<svg xmlns="http://www.w3.org/2000/svg" version="1.1" width="512" height="512">
  <defs/>
  <g>
    <path d="M 362.8973083496094 198.73162841796875 C 453.8251953125 337.0442199707031 448.1817321777344 375.05859375 175.0247802734375 372.78753662109375 C 149.66580200195312 300.585693359375 144.5215606689453 176.87081909179688 179.5238037109375 170.90570068359375 C 239.02618408203125 152.171630859375 218.86390686035156 186.62820434570312 211.4901580810547 133.2129669189453 C 354.4184875488281 115.7651596069336 303.49652099609375 138.5895538330078 362.8973083496094 198.73162841796875" stroke-width="0.0" fill="rgb(254, 220, 0)" opacity="0.9965425" stroke="rgb(221, 217, 158)" stroke-opacity="0.9339558" stroke-linecap="round" stroke-linejoin="round"/>
    <path d="M 404.6139221191406 85.5438461303711 C 422.7749938964844 216.44515991210938 371.49090576171875 257.0676574707031 338.81597900390625 267.6129455566406 C 286.0934143066406 277.832275390625 269.9397277832031 239.14947509765625 289.8140869140625 241.02737426757812 C 276.11993408203125 241.6334686279297 284.8027038574219 245.4662628173828 306.0543518066406 218.10108947753906 C 365.0048522949219 116.2380142211914 187.3901824951172 117.18985748291016 404.6139221191406 85.5438461303711" stroke-width="0.0" fill="rgb(98, 168, 204)" opacity="0.99694955" stroke="rgb(162, 39, 110)" stroke-opacity="0.67693174" stroke-linecap="round" stroke-linejoin="round"/>
    <path d="M 136.90997314453125 218.43560791015625 C 158.83001708984375 258.4683837890625 87.35591888427734 239.14178466796875 97.6865005493164 342.6807861328125 C -28.10980224609375 357.1686706542969 -14.644171714782715 342.5329895019531 -4.3762335777282715 -0.3325684666633606 C 52.08831024169922 20.58747673034668 89.14341735839844 23.357934951782227 288.8589172363281 48.145694732666016 C 56.94063949584961 233.97286987304688 61.34183120727539 192.28244018554688 136.90997314453125 218.43560791015625" stroke-width="0.0" fill="rgb(92, 164, 237)" opacity="0.51083136" stroke="rgb(90, 6, 98)" stroke-opacity="0.37507588" stroke-linecap="round" stroke-linejoin="round"/>
    <path d="M 182.6357879638672 378.63458251953125 C 237.922607421875 403.3211364746094 175.69723510742188 415.8471984863281 133.63546752929688 388.5301818847656 C 98.33702850341797 365.01751708984375 80.78587341308594 319.6078186035156 93.13265991210938 284.6295166015625 C 108.16962432861328 247.74095153808594 135.6921844482422 243.09588623046875 154.2985076904297 229.26841735839844 C 217.47389221191406 220.9430694580078 178.80335998535156 224.85513305664062 182.6357879638672 378.63458251953125" stroke-width="0.0" fill="rgb(255, 220, 0)" opacity="0.98774874" stroke="rgb(51, 123, 91)" stroke-opacity="0.36698323" stroke-linecap="round" stroke-linejoin="round"/>
    <path d="M 294.7012939453125 125.9806137084961 C 216.8600616455078 266.5599670410156 127.59101867675781 209.45521545410156 121.72016906738281 221.19155883789062 C 108.33809661865234 206.42694091796875 86.73831176757812 207.43421936035156 79.84174346923828 196.92176818847656 C 73.61910247802734 174.8350372314453 99.24575805664062 185.4327850341797 125.74839782714844 163.171142578125 C 129.76954650878906 135.61537170410156 211.5084686279297 69.0897216796875 294.7012939453125 125.9806137084961" stroke-width="0.0" fill="rgb(254, 219, 0)" opacity="0.98578364" stroke="rgb(181, 205, 30)" stroke-opacity="0.5012865" stroke-linecap="round" stroke-linejoin="round"/>
    <path d="M 179.66920471191406 147.02682495117188 C 147.8837432861328 232.41079711914062 149.97108459472656 258.29730224609375 157.8856201171875 262.9346008300781 C 134.6680450439453 229.61158752441406 120.12926483154297 216.39657592773438 82.60702514648438 201.02395629882812 C 62.92475891113281 176.02374267578125 111.60494232177734 183.67437744140625 142.22695922851562 152.35585021972656 C 161.7226104736328 166.9108123779297 168.0450439453125 169.38909912109375 179.66920471191406 147.02682495117188" stroke-width="0.0" fill="rgb(234, 96, 29)" opacity="1.0" stroke="rgb(144, 150, 127)" stroke-opacity="0.8712446" stroke-linecap="round" stroke-linejoin="round"/>
    <path d="M 411.3753356933594 328.5553894042969 C 364.2538146972656 430.0069580078125 255.46725463867188 402.3887939453125 213.0747528076172 409.27093505859375 C 281.978271484375 403.0752868652344 224.7386932373047 412.9888916015625 156.82395935058594 399.5541687011719 C 169.3836212158203 343.11431884765625 185.552978515625 348.1871032714844 285.9828796386719 346.45526123046875 C 355.4403381347656 334.9513244628906 395.0450439453125 294.5581359863281 411.3753356933594 328.5553894042969" stroke-width="0.0" fill="rgb(255, 221, 0)" opacity="0.9800349" stroke="rgb(168, 20, 223)" stroke-opacity="0.045824315" stroke-linecap="round" stroke-linejoin="round"/>
  </g>
</svg>
