<?xml version="1.0" ?>
<svg xmlns="http://www.w3.org/2000/svg" version="1.1" width="512" height="512">
  <defs/>
  <g>
    <path d="M 359.61395263671875 193.94845581054688 C 430.6929016113281 318.74981689453125 406.0973815917969 359.495361328125 191.50392150878906 361.337890625 C 179.55743408203125 311.78167724609375 177.539794921875 200.2703857421875 191.10960388183594 166.1547088623047 C 241.9711456298828 160.619140625 223.70989990234375 188.77452087402344 218.92442321777344 146.01390075683594 C 356.1144714355469 129.86781311035156 303.89556884765625 145.17208862304688 359.61395263671875 193.94845581054688" stroke-width="0.0" fill="rgb(254, 220, 0)" opacity="0.9974289" stroke="rgb(221, 217, 158)" stroke-opacity="0.9339558" stroke-linecap="round" stroke-linejoin="round"/>
    <path d="M 393.4540710449219 97.0564193725586 C 403.62353515625 243.98463439941406 372.00299072265625 254.98162841796875 334.7496643066406 269.0057373046875 C 279.5689392089844 273.7284240722656 274.8057556152344 239.0154266357422 287.66546630859375 242.00949096679688 C 279.2080993652344 241.10336303710938 282.7964782714844 244.93519592285156 300.9945373535156 224.54244995117188 C 363.7614440917969 140.63502502441406 225.08216857910156 119.5739517211914 393.4540710449219 97.0564193725586" stroke-width="0.0" fill="rgb(96, 167, 208)" opacity="0.9692741" stroke="rgb(162, 39, 110)" stroke-opacity="0.67693174" stroke-linecap="round" stroke-linejoin="round"/>
    <path d="M 118.79714965820312 219.2742919921875 C 130.91807556152344 226.1573486328125 109.60934448242188 248.3690643310547 69.45240783691406 329.5567626953125 C -16.472087860107422 337.1982116699219 -10.818207740783691 326.6601867675781 -4.348875522613525 11.49720287322998 C 43.300315856933594 31.323989868164062 70.62435913085938 35.39069747924805 252.11143493652344 52.359710693359375 C 48.816993713378906 214.50897216796875 51.77911376953125 181.15452575683594 118.79714965820312 219.2742919921875" stroke-width="0.0" fill="rgb(69, 168, 240)" opacity="0.4523403" stroke="rgb(90, 6, 98)" stroke-opacity="0.37507588" stroke-linecap="round" stroke-linejoin="round"/>
  </g>
</svg>
