<?xml version="1.0" ?>
<svg xmlns="http://www.w3.org/2000/svg" version="1.1" width="512" height="352">
  <defs/>
  <g>
    <path d="M 0.0 0.0 L 512.0 0.0 L 512.0 352.0 L 0.0 352.0 L 0.0 0.0" stroke-width="0.0" fill="rgb(255, 255, 255)" opacity="1.0" stroke="rgb(0, 0, 0)" stroke-opacity="0.0" stroke-linecap="round" stroke-linejoin="round"/>
    <path d="M 0.0 2.0 L 0.0 351.0 L 511.0 351.0 L 511.0 2.0 L 0.0 2.0" stroke-width="2.0" fill="rgb(255, 255, 255)" opacity="1.0" stroke="rgb(0, 0, 0)" stroke-opacity="0.0" stroke-linecap="round" stroke-linejoin="round"/>
    <path d="M 511.0 276.0 C 504.6554870605469 273.3681945800781 495.681640625 277.78912353515625 491.0 272.0 C 494.2209777832031 271.34893798828125 496.58489990234375 270.81591796875 495.0 267.0 C 490.60595703125 267.68328857421875 476.9806823730469 265.15936279296875 488.0 262.0 C 486.34112548828125 257.5413818359375 482.1289978027344 262.6087341308594 479.0 257.0 C 482.4500427246094 253.0 476.2118835449219 249.0 482.0 245.0 C 479.3623352050781 244.3000030517578 479.4209899902344 241.96665954589844 479.0 238.0 C 475.3497619628906 255.04222106933594 455.4214172363281 271.5840759277344 440.0 270.0 C 440.1076354980469 273.3333435058594 445.9628601074219 276.6666564941406 441.0 280.0 C 420.3333435058594 284.6355285644531 399.6666564941406 288.0895080566406 379.0 285.0 C 371.0 275.7619934082031 363.0 279.3511047363281 355.0 281.0 C 344.9425048828125 276.4260559082031 332.4113464355469 281.3562927246094 324.0 268.0 C 323.54443359375 261.0187683105469 333.6179504394531 255.84925842285156 339.0 254.0 C 320.0026550292969 251.99244689941406 305.3313293457031 253.06715393066406 288.0 253.0 C 279.0849609375 246.94180297851562 291.3144836425781 250.05819702148438 293.0 244.0 C 297.14837646484375 243.67654418945312 293.7540588378906 248.9149169921875 299.0 247.0 C 298.3700256347656 241.7646942138672 309.00299072265625 243.02455139160156 301.0 240.0 L 271.0 240.0 L 270.0 257.0 C 276.6666564941406 262.5838317871094 283.3333435058594 259.6036376953125 290.0 268.0 C 291.6971740722656 282.9371032714844 270.1803283691406 281.4097900390625 261.0 280.0 C 252.3333282470703 273.724853515625 243.6666717529297 278.19671630859375 235.0 279.0 C 220.3333282470703 277.02874755859375 205.6666717529297 284.013427734375 191.0 270.0 C 191.0246124267578 265.8052673339844 201.57025146484375 255.62525939941406 192.0 260.0 C 185.71290588378906 251.599853515625 189.5386199951172 240.4644317626953 177.0 245.0 C 174.22666931152344 246.97813415527344 164.83071899414062 249.48944091796875 172.0 252.0 C 173.30282592773438 260.1810302734375 161.84971618652344 258.5405578613281 157.0 257.0 C 159.29640197753906 263.8080139160156 174.24636840820312 270.9903869628906 160.0 280.0 C 146.16773986816406 287.4474182128906 128.61964416503906 273.0294494628906 123.0 259.0 C 116.53309631347656 266.3985595703125 118.62681579589844 271.21392822265625 126.0 278.0 C 128.01449584960938 285.1770324707031 118.85260772705078 290.5353698730469 113.0 291.0 L 67.0 288.0 C 95.66666412353516 300.7483215332031 124.33333587646484 292.2849426269531 153.0 300.0 C 161.43197631835938 302.6576232910156 177.84678649902344 314.5983581542969 168.0 324.0 C 162.0 327.4481201171875 156.0 321.4271240234375 150.0 316.0 C 112.93655395507812 306.6048889160156 73.41963958740234 322.8668212890625 38.0 288.0 C 38.79887008666992 279.27581787109375 28.278654098510742 280.4615783691406 25.0 286.0 C 33.32963943481445 292.4193420410156 15.399947166442871 286.4520568847656 19.0 295.0 C 32.13388442993164 298.5677185058594 8.997339248657227 297.2130432128906 17.0 290.0 C 12.185384750366211 289.0414123535156 11.734207153320312 290.70806884765625 11.0 295.0 C 21.353818893432617 295.5884094238281 7.894266128540039 298.2583312988281 4.0 298.0 C 4.27985954284668 294.37213134765625 7.890906810760498 288.1612548828125 0.0 290.0 L 0.0 351.0 L 511.0 351.0 L 511.0 276.0" stroke-width="2.0" fill="rgb(195, 211, 207)" opacity="1.0" stroke="rgb(0, 0, 0)" stroke-opacity="0.0" stroke-linecap="round" stroke-linejoin="round"/>
    <path d="M 347.0 113.0 C 338.3333435058594 121.75521850585938 329.6666564941406 127.16206359863281 321.0 132.0 C 316.8952331542969 149.31671142578125 342.0986633300781 157.08773803710938 348.0 172.0 C 349.289306640625 182.0 345.20513916015625 192.0 343.0 202.0 C 344.9692687988281 220.6666717529297 356.0322265625 239.3333282470703 342.0 258.0 C 333.54302978515625 254.7896728515625 317.936279296875 268.4109802246094 334.0 275.0 C 346.3333435058594 275.136962890625 358.6666564941406 283.515380859375 371.0 274.0 C 374.5770568847656 283.5688171386719 383.4642639160156 283.5296936035156 390.0 285.0 C 406.66851806640625 280.5841064453125 425.9975280761719 286.42523193359375 441.0 276.0 L 435.0 271.0 C 443.6666564941406 262.5009765625 452.3333435058594 268.5647888183594 461.0 261.0 C 485.86328125 232.6666717529297 479.917236328125 204.3333282470703 459.0 176.0 C 453.036376953125 163.29579162597656 445.5904846191406 148.05076599121094 461.0 137.0 C 465.9402770996094 127.67150115966797 453.1622619628906 126.96089935302734 448.0 133.0 C 435.5914611816406 153.13316345214844 442.4495849609375 175.4835662841797 458.0 194.0 C 466.5283508300781 213.00143432617188 472.73089599609375 234.6647491455078 452.0 252.0 C 454.1873779296875 228.63075256347656 453.4769287109375 201.18296813964844 428.0 181.0 C 416.28973388671875 172.37411499023438 402.05902099609375 176.8464813232422 392.0 166.0 C 391.8809814453125 152.6666717529297 396.7809143066406 139.3333282470703 391.0 126.0 C 396.9125061035156 120.66666412353516 398.20086669921875 115.33333587646484 398.0 110.0 C 391.0 107.04151916503906 384.0 120.6534652709961 377.0 113.0 C 376.7876892089844 109.19583892822266 381.0791015625 100.14628601074219 375.0 101.0 C 366.0 109.83924102783203 357.0 109.36119842529297 347.0 113.0" stroke-width="2.0" fill="rgb(161, 162, 162)" opacity="1.0" stroke="rgb(0, 0, 0)" stroke-opacity="0.0" stroke-linecap="round" stroke-linejoin="round"/>
    <path d="M 100.0 115.0 C 97.33261108398438 125.0 102.56739807128906 135.0 96.0 145.0 C 92.65987396240234 154.6666717529297 102.57421112060547 164.3333282470703 100.0 174.0 C 87.0 181.38807678222656 74.0 178.42979431152344 61.0 189.0 C 38.86073303222656 211.3333282470703 38.52288818359375 233.6666717529297 36.0 256.0 C 37.406890869140625 263.3333435058594 47.48664474487305 270.6666564941406 41.0 278.0 C 38.68011474609375 292.4309997558594 59.33748245239258 302.1029357910156 70.0 305.0 C 94.33333587646484 309.5497131347656 118.66666412353516 309.4024658203125 143.0 311.0 C 152.27256774902344 308.81573486328125 162.9665985107422 330.636962890625 169.0 317.0 C 167.61068725585938 309.1671142578125 159.6068572998047 305.2828674316406 153.0 302.0 C 123.33333587646484 295.4900817871094 93.66666412353516 301.0443115234375 64.0 291.0 C 61.2266731262207 290.30450439453125 51.83071517944336 283.024169921875 59.0 283.0 C 79.33333587646484 286.4757995605469 99.66666412353516 290.4127197265625 120.0 287.0 C 129.13616943359375 280.2992858886719 120.46388244628906 274.42633056640625 114.0 270.0 L 123.0 253.0 C 130.3676300048828 259.4535827636719 130.0377960205078 272.85382080078125 142.0 278.0 C 148.28677368164062 281.9427185058594 171.65843200683594 277.7161865234375 160.0 265.0 C 151.06480407714844 263.3892822265625 146.86810302734375 255.75743103027344 145.0 248.0 C 143.3192138671875 233.3333282470703 148.45196533203125 218.6666717529297 149.0 204.0 C 159.88482666015625 191.35516357421875 171.53543090820312 197.04202270507812 181.0 186.0 C 185.72386169433594 176.24452209472656 176.73828125 171.51268005371094 168.0 173.0 C 160.6666717529297 173.1064910888672 153.3333282470703 181.34262084960938 146.0 180.0 C 157.2706756591797 168.31597900390625 177.64356994628906 154.3514404296875 158.0 142.0 C 157.91378784179688 136.6666717529297 162.93980407714844 131.3333282470703 158.0 126.0 C 142.6666717529297 131.66485595703125 127.33333587646484 114.58765411376953 112.0 123.0 L 100.0 115.0" stroke-width="2.0" fill="rgb(199, 174, 146)" opacity="1.0" stroke="rgb(0, 0, 0)" stroke-opacity="0.0" stroke-linecap="round" stroke-linejoin="round"/>
    <path d="M 259.0 149.0 C 255.3333282470703 148.8089141845703 251.6666717529297 155.26759338378906 248.0 157.0 L 235.0 159.0 C 227.08949279785156 154.47679138183594 231.88552856445312 146.13821411132812 222.0 140.0 C 216.0 137.37387084960938 210.0 134.09866333007812 204.0 134.0 C 206.24905395507812 148.7029266357422 178.6292266845703 136.2759552001953 185.0 152.0 C 181.45159912109375 155.4670867919922 166.20635986328125 154.489990234375 176.0 163.0 L 173.0 171.0 C 184.0995330810547 169.5138702392578 188.39857482910156 184.6671600341797 178.0 190.0 C 172.1326141357422 212.3333282470703 190.22642517089844 234.6666717529297 192.0 257.0 C 194.3333282470703 257.30145263671875 196.6666717529297 255.61521911621094 199.0 253.0 C 211.736083984375 231.6666717529297 230.62132263183594 210.3333282470703 236.0 189.0 C 242.91114807128906 180.3780517578125 249.35276794433594 179.1657257080078 251.0 170.0 C 261.5517883300781 165.99697875976562 261.3533630371094 158.75274658203125 259.0 149.0" stroke-width="2.0" fill="rgb(96, 122, 101)" opacity="1.0" stroke="rgb(0, 0, 0)" stroke-opacity="0.0" stroke-linecap="round" stroke-linejoin="round"/>
    <path d="M 353.0 46.0 C 346.3333435058594 43.57929992675781 339.6666564941406 43.09317398071289 333.0 45.0 C 330.3963928222656 39.36830520629883 328.1904602050781 30.2636775970459 320.0 29.0 L 312.0 44.0 C 308.5948181152344 43.606571197509766 306.1348876953125 32.18894577026367 301.0 35.0 C 299.3981018066406 40.74349594116211 302.4732971191406 58.984222412109375 291.0 50.0 C 280.6666564941406 48.79802322387695 270.3333435058594 58.135318756103516 260.0 51.0 C 260.7446594238281 55.357784271240234 265.6090087890625 54.61782455444336 268.0 57.0 L 254.0 63.0 C 262.0897521972656 62.586605072021484 269.3138732910156 60.27189636230469 269.0 70.0 C 263.7090148925781 72.29705047607422 260.1783142089844 75.62140655517578 259.0 81.0 L 272.0 88.0 C 267.9158020019531 92.30767059326172 255.89073181152344 89.9471206665039 262.0 98.0 C 269.9125061035156 100.4889144897461 270.80352783203125 105.20048522949219 265.0 111.0 L 264.0 121.0 C 280.6666564941406 112.0579833984375 297.3333435058594 106.54289245605469 314.0 100.0 L 328.0 85.0 C 331.2842102050781 73.12188720703125 339.2071838378906 64.09819030761719 343.0 52.0 C 346.0 47.642215728759766 349.0 48.38217544555664 353.0 46.0" stroke-width="2.0" fill="rgb(174, 106, 77)" opacity="1.0" stroke="rgb(0, 0, 0)" stroke-opacity="0.0" stroke-linecap="round" stroke-linejoin="round"/>
    <path d="M 379.0 224.0 C 367.47027587890625 241.35057067871094 378.3033142089844 271.34619140625 402.0 274.0 C 415.0959777832031 272.6989440917969 430.53546142578125 278.75933837890625 442.0 262.0 C 445.51849365234375 253.55874633789062 441.5797424316406 243.31117248535156 431.0 239.0 C 435.7000427246094 222.92843627929688 413.1606140136719 209.99398803710938 400.0 212.0 C 393.3333435058594 214.4064178466797 386.6666564941406 215.7685546875 379.0 224.0" stroke-width="2.0" fill="rgb(159, 159, 158)" opacity="1.0" stroke="rgb(0, 0, 0)" stroke-opacity="0.0" stroke-linecap="round" stroke-linejoin="round"/>
    <path d="M 261.0 205.0 C 259.26702880859375 214.13970947265625 258.05621337890625 221.8553924560547 268.0 230.0 C 279.0 222.98460388183594 290.0 237.21939086914062 301.0 233.0 C 309.3333435058594 237.71368408203125 317.6666564941406 241.10679626464844 326.0 241.0 C 324.58380126953125 230.0 315.3648376464844 219.0 316.0 208.0 C 308.3306579589844 200.52220153808594 310.4123229980469 192.0181121826172 302.0 186.0 C 295.91217041015625 185.96969604492188 292.93157958984375 181.20021057128906 287.0 182.0 C 277.62701416015625 187.34841918945312 278.0549011230469 202.32681274414062 267.0 197.0 C 267.4078369140625 200.46868896484375 265.2258605957031 200.84388732910156 261.0 205.0" stroke-width="2.0" fill="rgb(97, 128, 128)" opacity="1.0" stroke="rgb(0, 0, 0)" stroke-opacity="0.0" stroke-linecap="round" stroke-linejoin="round"/>
    <path d="M 458.0 128.0 C 442.2102966308594 132.1206817626953 439.63848876953125 150.53892517089844 441.0 161.0 C 447.2205810546875 184.6666717529297 471.8671569824219 208.3333282470703 465.0 232.0 C 466.26275634765625 245.4466094970703 442.9349365234375 253.6387939453125 443.0 266.0 C 459.9487609863281 269.8606262207031 476.48443603515625 245.08859252929688 477.0 231.0 C 482.1628723144531 208.0 464.01617431640625 185.0 453.0 162.0 C 451.6296081542969 152.3303985595703 452.31085205078125 142.3165283203125 463.0 134.0 C 464.00433349609375 132.11007690429688 461.6123352050781 127.97325134277344 458.0 128.0" stroke-width="2.0" fill="rgb(153, 154, 154)" opacity="1.0" stroke="rgb(0, 0, 0)" stroke-opacity="0.0" stroke-linecap="round" stroke-linejoin="round"/>
    <path d="M 171.0 195.0 C 164.2173309326172 194.3228759765625 155.1588897705078 200.52853393554688 150.0 206.0 C 150.94354248046875 223.6666717529297 139.35150146484375 241.3333282470703 152.0 259.0 L 176.0 255.0 C 170.43588256835938 254.22398376464844 168.5436248779297 252.1263427734375 168.0 248.0 C 174.3333282470703 242.54782104492188 180.6666717529297 245.0817108154297 187.0 241.0 C 180.5452117919922 226.6666717529297 176.14053344726562 212.3333282470703 175.0 198.0 C 173.42483520507812 196.23529052734375 174.20262145996094 195.56863403320312 171.0 195.0" stroke-width="2.0" fill="rgb(201, 215, 213)" opacity="1.0" stroke="rgb(0, 0, 0)" stroke-opacity="0.0" stroke-linecap="round" stroke-linejoin="round"/>
    <path d="M 42.0 274.0 C 35.96490478515625 284.6439208984375 49.76152038574219 298.0845031738281 61.0 302.0 C 92.33333587646484 312.9023132324219 123.66666412353516 305.5913391113281 155.0 315.0 C 159.81703186035156 327.7767639160156 174.35067749023438 320.94586181640625 167.0 311.0 C 159.3333282470703 302.47625732421875 151.6666717529297 302.85919189453125 144.0 300.0 C 115.33333587646484 296.8553161621094 86.66666412353516 301.6344299316406 58.0 288.0 C 48.79960250854492 281.2370300292969 57.09041213989258 274.1879577636719 46.0 270.0 L 42.0 274.0" stroke-width="2.0" fill="rgb(178, 153, 131)" opacity="1.0" stroke="rgb(0, 0, 0)" stroke-opacity="0.0" stroke-linecap="round" stroke-linejoin="round"/>
    <path d="M 247.0 181.0 C 236.2655029296875 186.51837158203125 233.8035430908203 198.4049072265625 231.0 207.0 L 209.0 241.0 L 254.0 240.0 C 256.1189880371094 220.6666717529297 253.6844482421875 201.3333282470703 247.0 181.0" stroke-width="2.0" fill="rgb(201, 216, 212)" opacity="1.0" stroke="rgb(0, 0, 0)" stroke-opacity="0.0" stroke-linecap="round" stroke-linejoin="round"/>
    <path d="M 194.0 267.0 C 193.80267333984375 277.19012451171875 207.86050415039062 274.22021484375 214.0 277.0 C 227.3333282470703 276.25860595703125 240.6666717529297 279.08514404296875 254.0 273.0 C 261.7928161621094 282.58319091796875 272.6737060546875 276.09405517578125 282.0 278.0 C 289.83013916015625 276.3327941894531 289.04803466796875 268.7043762207031 282.0 264.0 C 273.6666564941406 263.0606689453125 265.3333435058594 261.2864990234375 257.0 269.0 C 238.31236267089844 249.33934020996094 215.3489227294922 253.79176330566406 194.0 267.0" stroke-width="2.0" fill="rgb(187, 190, 189)" opacity="1.0" stroke="rgb(0, 0, 0)" stroke-opacity="0.0" stroke-linecap="round" stroke-linejoin="round"/>
    <path d="M 230.0 150.0 C 224.48162841796875 138.89654541015625 212.5950927734375 135.02964782714844 204.0 134.0 C 207.8016815185547 149.16334533691406 178.37002563476562 135.42640686035156 185.0 152.0 C 180.09619140625 155.59226989746094 165.13870239257812 155.3477020263672 177.0 163.0 L 172.0 171.0 C 191.0 159.47900390625 210.0 155.81982421875 229.0 158.0 C 232.38250732421875 155.6666717529297 228.8341522216797 153.3333282470703 230.0 150.0" stroke-width="2.0" fill="rgb(109, 134, 114)" opacity="1.0" stroke="rgb(0, 0, 0)" stroke-opacity="0.0" stroke-linecap="round" stroke-linejoin="round"/>
    <path d="M 253.0 169.0 C 244.35205078125 184.3333282470703 256.6411437988281 199.6666717529297 256.0 215.0 C 257.02471923828125 231.0 254.41932678222656 247.0 254.0 263.0 C 257.6666564941406 268.7738342285156 261.3333435058594 263.4993896484375 265.0 262.0 C 264.1986389160156 248.3333282470703 271.7373352050781 234.6666717529297 259.0 221.0 C 260.9605712890625 203.6666717529297 262.9366760253906 186.3333282470703 253.0 169.0" stroke-width="2.0" fill="rgb(48, 62, 43)" opacity="1.0" stroke="rgb(0, 0, 0)" stroke-opacity="0.0" stroke-linecap="round" stroke-linejoin="round"/>
    <path d="M 258.0 148.0 C 249.0 159.823486328125 240.0 158.04103088378906 231.0 161.0 C 228.42774963378906 173.6666717529297 224.60406494140625 186.3333282470703 230.0 199.0 C 234.08319091796875 195.8199005126953 237.68063354492188 181.46170043945312 248.0 178.0 C 244.4811553955078 166.17552185058594 266.323974609375 168.0657501220703 258.0 158.0 C 263.21331787109375 155.0 260.92083740234375 152.0 258.0 148.0" stroke-width="2.0" fill="rgb(100, 126, 106)" opacity="1.0" stroke="rgb(0, 0, 0)" stroke-opacity="0.0" stroke-linecap="round" stroke-linejoin="round"/>
    <path d="M 317.0 276.0 C 310.1713562011719 269.15692138671875 296.64111328125 280.1813049316406 296.0 270.0 C 290.1662292480469 268.3670349121094 288.7357177734375 270.1315612792969 288.0 276.0 C 271.6666564941406 285.1673889160156 255.3333282470703 271.2295837402344 239.0 278.0 C 230.1577606201172 279.9588928222656 216.5755615234375 273.6662902832031 211.0 282.0 C 241.3333282470703 287.87054443359375 271.6666564941406 278.887451171875 302.0 282.0 C 307.0 279.5880432128906 312.0 281.6046142578125 317.0 276.0" stroke-width="2.0" fill="rgb(117, 149, 151)" opacity="1.0" stroke="rgb(0, 0, 0)" stroke-opacity="0.0" stroke-linecap="round" stroke-linejoin="round"/>
    <path d="M 266.0 58.0 C 261.1800537109375 58.657962799072266 252.53817749023438 63.40129852294922 262.0 64.0 C 239.3905487060547 76.31776428222656 234.097900390625 99.87128448486328 236.0 117.0 C 240.2124481201172 130.0 238.62432861328125 143.0 245.0 156.0 L 250.0 154.0 C 246.70404052734375 129.0 232.1466522216797 104.0 250.0 79.0 C 257.39892578125 70.23438262939453 270.6551818847656 69.59346008300781 266.0 58.0" stroke-width="2.0" fill="rgb(60, 75, 57)" opacity="1.0" stroke="rgb(0, 0, 0)" stroke-opacity="0.0" stroke-linecap="round" stroke-linejoin="round"/>
    <path d="M 331.0 70.0 C 318.79583740234375 68.04573059082031 304.61663818359375 88.99315643310547 294.0 99.0 C 292.1697082519531 112.18353271484375 309.5884094238281 103.15755462646484 317.0 98.0 C 325.7500305175781 89.0 334.04290771484375 80.0 331.0 70.0" stroke-width="2.0" fill="rgb(216, 203, 176)" opacity="1.0" stroke="rgb(0, 0, 0)" stroke-opacity="0.0" stroke-linecap="round" stroke-linejoin="round"/>
    <path d="M 373.0 274.0 C 371.1627502441406 279.9784240722656 379.970458984375 283.50909423828125 384.0 284.0 C 403.0 283.4582214355469 422.0 283.4918518066406 441.0 278.0 C 442.0267639160156 274.8094787597656 437.8899230957031 274.9071960449219 436.0 273.0 C 419.0 274.0291748046875 402.0 279.93267822265625 385.0 268.0 C 381.3252258300781 267.16552734375 376.1469421386719 269.2624816894531 373.0 274.0" stroke-width="2.0" fill="rgb(148, 149, 149)" opacity="1.0" stroke="rgb(0, 0, 0)" stroke-opacity="0.0" stroke-linecap="round" stroke-linejoin="round"/>
    <path d="M 252.0 242.0 C 238.0 240.8092803955078 224.0 243.2862548828125 210.0 243.0 C 205.51466369628906 246.28659057617188 201.9569854736328 253.12646484375 199.0 258.0 C 215.0 256.2729187011719 231.0 250.2622528076172 247.0 257.0 C 253.1084442138672 255.33279418945312 250.58889770507812 247.70436096191406 252.0 242.0" stroke-width="2.0" fill="rgb(182, 198, 193)" opacity="1.0" stroke="rgb(0, 0, 0)" stroke-opacity="0.0" stroke-linecap="round" stroke-linejoin="round"/>
    <path d="M 258.0 148.0 C 249.3333282470703 159.0434112548828 240.6666717529297 158.5139617919922 232.0 160.0 C 229.47950744628906 169.01284790039062 227.71653747558594 179.5113983154297 237.0 187.0 C 240.6666717529297 183.64112854003906 244.3333282470703 178.33154296875 248.0 179.0 C 243.35733032226562 166.83071899414062 266.4592590332031 168.01463317871094 258.0 158.0 C 262.724853515625 155.0 260.8605041503906 152.0 258.0 148.0" stroke-width="2.0" fill="rgb(105, 131, 111)" opacity="1.0" stroke="rgb(0, 0, 0)" stroke-opacity="0.0" stroke-linecap="round" stroke-linejoin="round"/>
    <path d="M 349.0 225.0 C 348.99920654296875 235.3333282470703 350.0426025390625 245.6666717529297 345.0 256.0 C 338.8617858886719 259.8974914550781 330.5232238769531 256.6149597167969 326.0 266.0 C 327.8937683105469 274.2060546875 337.8345947265625 275.8973693847656 343.0 275.0 C 336.2803649902344 263.7340393066406 356.4888610839844 263.1507873535156 359.0 253.0 C 362.9063415527344 242.893798828125 358.249267578125 235.83924865722656 349.0 225.0" stroke-width="2.0" fill="rgb(118, 119, 119)" opacity="1.0" stroke="rgb(0, 0, 0)" stroke-opacity="0.0" stroke-linecap="round" stroke-linejoin="round"/>
    <path d="M 125.0 281.0 C 116.51813507080078 260.9657897949219 99.7752456665039 284.5686340332031 88.0 282.0 C 76.66666412353516 281.5975036621094 65.33333587646484 279.7763977050781 54.0 278.0 C 63.55735778808594 288.1513977050781 80.27379608154297 284.82354736328125 93.0 288.0 C 103.00485229492188 285.5777587890625 115.66018676757812 293.6788635253906 125.0 281.0" stroke-width="2.0" fill="rgb(184, 162, 139)" opacity="1.0" stroke="rgb(0, 0, 0)" stroke-opacity="0.0" stroke-linecap="round" stroke-linejoin="round"/>
    <path d="M 282.0 251.0 C 300.3350524902344 255.61537170410156 322.9986877441406 251.7220458984375 343.0 253.0 C 344.45172119140625 248.17315673828125 338.8187255859375 248.82635498046875 336.0 249.0 C 329.85955810546875 237.0804901123047 321.64923095703125 246.14317321777344 313.0 241.0 C 303.3281555175781 246.16275024414062 291.00689697265625 242.38818359375 282.0 251.0" stroke-width="2.0" fill="rgb(198, 214, 211)" opacity="1.0" stroke="rgb(0, 0, 0)" stroke-opacity="0.0" stroke-linecap="round" stroke-linejoin="round"/>
    <path d="M 278.0 53.0 C 279.85089111328125 67.1563720703125 295.69952392578125 72.10125732421875 307.0 81.0 C 309.0 82.00785064697266 311.0 78.7720718383789 313.0 77.0 C 304.07537841796875 65.79045104980469 293.8021240234375 42.46578598022461 278.0 53.0" stroke-width="2.0" fill="rgb(187, 94, 62)" opacity="1.0" stroke="rgb(0, 0, 0)" stroke-opacity="0.0" stroke-linecap="round" stroke-linejoin="round"/>
    <path d="M 322.0 29.0 C 307.158935546875 39.04564666748047 316.5805969238281 57.632835388183594 320.0 71.0 C 330.2740478515625 65.83627319335938 326.6051330566406 53.352508544921875 331.0 45.0 C 331.64630126953125 40.12647247314453 329.49249267578125 33.286590576171875 322.0 29.0" stroke-width="2.0" fill="rgb(184, 93, 62)" opacity="1.0" stroke="rgb(0, 0, 0)" stroke-opacity="0.0" stroke-linecap="round" stroke-linejoin="round"/>
    <path d="M 259.0 79.0 C 269.3379211425781 90.61164855957031 283.9965515136719 82.78462219238281 296.0 91.0 C 298.6666564941406 92.26599884033203 301.3333435058594 88.64120483398438 304.0 86.0 C 291.3300476074219 75.47921752929688 274.3357849121094 69.46870422363281 259.0 79.0" stroke-width="2.0" fill="rgb(184, 96, 66)" opacity="1.0" stroke="rgb(0, 0, 0)" stroke-opacity="0.0" stroke-linecap="round" stroke-linejoin="round"/>
    <path d="M 147.0 128.0 C 131.1814422607422 117.73079681396484 109.01242065429688 116.62562561035156 98.0 138.0 C 96.04972839355469 144.6666717529297 94.76024627685547 151.3333282470703 97.0 158.0 L 98.0 141.0 C 100.8166275024414 137.75448608398438 108.42041778564453 126.40385437011719 111.0 132.0 C 107.46973419189453 136.6666717529297 103.98204040527344 141.3333282470703 105.0 146.0 C 109.95811462402344 141.41357421875 118.46688842773438 127.66636657714844 123.0 132.0 L 120.0 138.0 C 128.6666717529297 126.92634582519531 137.3333282470703 124.82464599609375 147.0 128.0" stroke-width="2.0" fill="rgb(147, 102, 85)" opacity="1.0" stroke="rgb(0, 0, 0)" stroke-opacity="0.0" stroke-linecap="round" stroke-linejoin="round"/>
    <path d="M 301.0 34.0 C 297.6451721191406 47.36751937866211 299.3876647949219 63.28713607788086 315.0 75.0 C 318.337646484375 73.81810760498047 318.2790222167969 71.46522521972656 318.0 69.0 C 312.1559753417969 57.66282653808594 315.2767333984375 43.671791076660156 301.0 34.0" stroke-width="2.0" fill="rgb(182, 94, 64)" opacity="1.0" stroke="rgb(0, 0, 0)" stroke-opacity="0.0" stroke-linecap="round" stroke-linejoin="round"/>
    <path d="M 260.0 93.0 C 265.556640625 107.84088897705078 282.6036682128906 99.0789566040039 293.0 99.0 C 300.3948059082031 91.01690673828125 289.01788330078125 90.67610931396484 284.0 88.0 C 276.3333435058594 86.45985412597656 268.6666564941406 91.24540710449219 260.0 93.0" stroke-width="2.0" fill="rgb(183, 96, 65)" opacity="1.0" stroke="rgb(0, 0, 0)" stroke-opacity="0.0" stroke-linecap="round" stroke-linejoin="round"/>
    <path d="M 160.0 127.0 C 152.5913543701172 125.34970092773438 135.51983642578125 133.28286743164062 136.0 143.0 C 143.9251251220703 147.69766235351562 155.49624633789062 151.31045532226562 159.0 138.0 L 160.0 127.0" stroke-width="2.0" fill="rgb(203, 184, 159)" opacity="1.0" stroke="rgb(0, 0, 0)" stroke-opacity="0.0" stroke-linecap="round" stroke-linejoin="round"/>
    <path d="M 352.0 45.0 L 334.0 45.0 C 330.6083679199219 54.33131408691406 322.47552490234375 65.89354705810547 333.0 71.0 C 341.5613708496094 62.817474365234375 339.30023193359375 48.03384017944336 352.0 45.0" stroke-width="2.0" fill="rgb(173, 90, 60)" opacity="1.0" stroke="rgb(0, 0, 0)" stroke-opacity="0.0" stroke-linecap="round" stroke-linejoin="round"/>
    <path d="M 292.0 102.0 C 280.0622253417969 99.2538833618164 261.2052307128906 104.70060729980469 264.0 121.0 C 274.0 113.66409301757812 284.0 114.1992416381836 294.0 106.0 L 292.0 102.0" stroke-width="2.0" fill="rgb(169, 90, 62)" opacity="1.0" stroke="rgb(0, 0, 0)" stroke-opacity="0.0" stroke-linecap="round" stroke-linejoin="round"/>
    <path d="M 256.0 279.0 C 253.95298767089844 277.8376159667969 256.008544921875 274.559814453125 253.0 275.0 C 240.3333282470703 279.4219665527344 227.6666717529297 277.60357666015625 215.0 278.0 L 212.0 282.0 C 226.3333282470703 283.5926818847656 240.6666717529297 284.1581115722656 255.0 284.0 L 256.0 279.0" stroke-width="2.0" fill="rgb(111, 146, 149)" opacity="1.0" stroke="rgb(0, 0, 0)" stroke-opacity="0.0" stroke-linecap="round" stroke-linejoin="round"/>
    <path d="M 149.0 303.0 C 143.50318908691406 310.46551513671875 147.23193359375 313.3130187988281 155.0 315.0 C 160.35975646972656 328.5561828613281 175.00816345214844 320.1210632324219 166.0 310.0 C 160.6666717529297 305.8951110839844 155.3333282470703 302.4270935058594 149.0 303.0" stroke-width="2.0" fill="rgb(198, 178, 153)" opacity="1.0" stroke="rgb(0, 0, 0)" stroke-opacity="0.0" stroke-linecap="round" stroke-linejoin="round"/>
    <path d="M 55.0 197.0 C 59.445068359375 211.38839721679688 75.67972564697266 206.9597625732422 85.0 204.0 C 79.64814758300781 201.8596954345703 67.35185241699219 200.2760009765625 62.0 190.0 L 55.0 197.0" stroke-width="2.0" fill="rgb(170, 117, 100)" opacity="1.0" stroke="rgb(0, 0, 0)" stroke-opacity="0.0" stroke-linecap="round" stroke-linejoin="round"/>
    <path d="M 169.0 248.0 C 170.99514770507812 255.499755859375 184.03713989257812 253.3190460205078 185.0 263.0 C 195.56329345703125 263.44293212890625 188.68899536132812 249.86595153808594 186.0 244.0 C 180.6666717529297 244.623046875 175.3333282470703 244.82809448242188 169.0 248.0" stroke-width="2.0" fill="rgb(182, 198, 194)" opacity="1.0" stroke="rgb(0, 0, 0)" stroke-opacity="0.0" stroke-linecap="round" stroke-linejoin="round"/>
    <path d="M 398.0 109.0 L 380.0 117.0 C 381.7602233886719 124.64257049560547 384.00433349609375 136.960205078125 394.0 123.0 C 396.624267578125 118.66666412353516 399.0171813964844 114.33333587646484 398.0 109.0" stroke-width="2.0" fill="rgb(168, 162, 167)" opacity="1.0" stroke="rgb(0, 0, 0)" stroke-opacity="0.0" stroke-linecap="round" stroke-linejoin="round"/>
    <path d="M 269.0 61.0 C 266.102783203125 73.28958892822266 278.2953186035156 73.07252502441406 287.0 74.0 L 305.0 83.0 C 295.2711181640625 71.94083404541016 281.3792724609375 67.77470397949219 269.0 61.0" stroke-width="2.0" fill="rgb(169, 97, 67)" opacity="1.0" stroke="rgb(0, 0, 0)" stroke-opacity="0.0" stroke-linecap="round" stroke-linejoin="round"/>
    <path d="M 69.0 185.0 C 75.21497344970703 197.35523986816406 89.51048278808594 196.0050048828125 99.0 196.0 C 94.320556640625 191.83668518066406 80.44766235351562 189.5800018310547 80.0 180.0 L 69.0 185.0" stroke-width="2.0" fill="rgb(168, 120, 102)" opacity="1.0" stroke="rgb(0, 0, 0)" stroke-opacity="0.0" stroke-linecap="round" stroke-linejoin="round"/>
    <path d="M 250.0 64.0 C 258.7918701171875 62.469051361083984 266.1859130859375 66.35098266601562 269.0 58.0 C 272.6952819824219 57.67353057861328 278.9615783691406 67.7872543334961 281.0 63.0 C 279.11260986328125 59.66666793823242 276.5671691894531 56.33333206176758 277.0 53.0 C 270.6666564941406 52.76563262939453 264.3333435058594 53.70152282714844 258.0 49.0 C 259.71826171875 53.564125061035156 263.17791748046875 54.668113708496094 267.0 58.0 C 261.6666564941406 58.04944610595703 256.3333435058594 61.01105499267578 250.0 64.0" stroke-width="2.0" fill="rgb(50, 61, 41)" opacity="1.0" stroke="rgb(0, 0, 0)" stroke-opacity="0.0" stroke-linecap="round" stroke-linejoin="round"/>
    <path d="M 428.0 182.0 C 418.4365539550781 170.67083740234375 412.080078125 189.68736267089844 405.0 195.0 C 412.3419189453125 192.86781311035156 422.32183837890625 191.3069610595703 428.0 182.0" stroke-width="2.0" fill="rgb(123, 122, 122)" opacity="1.0" stroke="rgb(0, 0, 0)" stroke-opacity="0.0" stroke-linecap="round" stroke-linejoin="round"/>
    <path d="M 99.0 114.0 C 97.09916687011719 120.0 97.46525573730469 126.0 101.0 132.0 L 111.0 122.0 C 107.33333587646484 118.5311050415039 103.66666412353516 114.31315612792969 99.0 114.0" stroke-width="2.0" fill="rgb(183, 166, 146)" opacity="1.0" stroke="rgb(0, 0, 0)" stroke-opacity="0.0" stroke-linecap="round" stroke-linejoin="round"/>
    <path d="M 404.0 173.0 C 391.6650695800781 168.3397674560547 401.3343505859375 184.04208374023438 389.0 191.0 C 395.791015625 190.84593200683594 406.2668762207031 180.883056640625 404.0 173.0" stroke-width="2.0" fill="rgb(114, 114, 114)" opacity="1.0" stroke="rgb(0, 0, 0)" stroke-opacity="0.0" stroke-linecap="round" stroke-linejoin="round"/>
    <path d="M 323.0 130.0 C 314.8582458496094 139.300048828125 333.3192138671875 153.61070251464844 333.0 138.0 C 324.606689453125 138.5817413330078 329.5843811035156 127.36784362792969 323.0 130.0" stroke-width="2.0" fill="rgb(144, 145, 145)" opacity="1.0" stroke="rgb(0, 0, 0)" stroke-opacity="0.0" stroke-linecap="round" stroke-linejoin="round"/>
    <path d="M 442.0 197.0 C 437.6397705078125 187.94285583496094 433.6873474121094 188.84689331054688 428.0 196.0 L 419.0 199.0 C 426.3333435058594 201.07359313964844 433.6666564941406 200.36012268066406 442.0 197.0" stroke-width="2.0" fill="rgb(125, 125, 125)" opacity="1.0" stroke="rgb(0, 0, 0)" stroke-opacity="0.0" stroke-linecap="round" stroke-linejoin="round"/>
    <path d="M 460.0 128.0 C 456.3047180175781 126.7350082397461 450.0384216308594 129.89244079589844 448.0 135.0 C 454.08782958984375 134.37069702148438 457.06842041015625 144.5894012451172 463.0 135.0 C 462.55657958984375 133.24197387695312 464.3600769042969 129.12469482421875 460.0 128.0" stroke-width="2.0" fill="rgb(222, 225, 224)" opacity="1.0" stroke="rgb(0, 0, 0)" stroke-opacity="0.0" stroke-linecap="round" stroke-linejoin="round"/>
    <path d="M 174.0 273.0 C 182.6666717529297 277.0528564453125 191.3333282470703 275.534423828125 200.0 276.0 C 189.6781463623047 267.00970458984375 183.65806579589844 271.3736572265625 174.0 273.0" stroke-width="2.0" fill="rgb(117, 147, 150)" opacity="1.0" stroke="rgb(0, 0, 0)" stroke-opacity="0.0" stroke-linecap="round" stroke-linejoin="round"/>
    <path d="M 122.0 246.0 C 117.81546020507812 242.5554962158203 107.14134979248047 249.8768310546875 103.0 250.0 C 109.25556182861328 252.732177734375 120.35846710205078 256.6523742675781 122.0 246.0" stroke-width="2.0" fill="rgb(147, 99, 82)" opacity="1.0" stroke="rgb(0, 0, 0)" stroke-opacity="0.0" stroke-linecap="round" stroke-linejoin="round"/>
    <path d="M 378.0 100.0 C 373.3333435058594 99.8450698852539 368.6666564941406 105.51416015625 364.0 109.0 C 370.17724609375 112.37078857421875 382.8051452636719 111.31071472167969 378.0 100.0" stroke-width="2.0" fill="rgb(152, 156, 155)" opacity="1.0" stroke="rgb(0, 0, 0)" stroke-opacity="0.0" stroke-linecap="round" stroke-linejoin="round"/>
    <path d="M 44.0 216.0 C 48.349815368652344 223.2406005859375 56.987674713134766 219.699462890625 63.0 217.0 C 57.311256408691406 221.16546630859375 45.98512268066406 203.8849334716797 44.0 216.0" stroke-width="2.0" fill="rgb(168, 119, 102)" opacity="1.0" stroke="rgb(0, 0, 0)" stroke-opacity="0.0" stroke-linecap="round" stroke-linejoin="round"/>
    <path d="M 130.0 300.0 C 121.55750274658203 293.9849548339844 115.31913757324219 314.55535888671875 127.0 310.0 L 130.0 300.0" stroke-width="2.0" fill="rgb(141, 95, 81)" opacity="1.0" stroke="rgb(0, 0, 0)" stroke-opacity="0.0" stroke-linecap="round" stroke-linejoin="round"/>
    <path d="M 147.0 301.0 C 139.45254516601562 297.6675720214844 135.08056640625 315.4770202636719 145.0 311.0 C 144.42617797851562 308.2860412597656 150.5440216064453 303.0638122558594 147.0 301.0" stroke-width="2.0" fill="rgb(144, 98, 83)" opacity="1.0" stroke="rgb(0, 0, 0)" stroke-opacity="0.0" stroke-linecap="round" stroke-linejoin="round"/>
    <path d="M 111.0 299.0 C 102.23184967041016 293.58056640625 97.2332763671875 314.0638122558594 108.0 308.0 C 107.52574157714844 305.3333435058594 109.24715423583984 302.6666564941406 111.0 299.0" stroke-width="2.0" fill="rgb(143, 98, 82)" opacity="1.0" stroke="rgb(0, 0, 0)" stroke-opacity="0.0" stroke-linecap="round" stroke-linejoin="round"/>
    <path d="M 442.0 154.0 C 438.4418029785156 162.6765899658203 455.5581970214844 162.08851623535156 452.0 154.0 L 442.0 154.0" stroke-width="2.0" fill="rgb(110, 111, 111)" opacity="1.0" stroke="rgb(0, 0, 0)" stroke-opacity="0.0" stroke-linecap="round" stroke-linejoin="round"/>
    <path d="M 145.0 230.0 C 141.67361450195312 231.4044647216797 134.1219024658203 235.59133911132812 134.0 240.0 C 138.654541015625 237.16795349121094 147.32798767089844 238.49520874023438 145.0 230.0" stroke-width="2.0" fill="rgb(150, 106, 87)" opacity="1.0" stroke="rgb(0, 0, 0)" stroke-opacity="0.0" stroke-linecap="round" stroke-linejoin="round"/>
    <path d="M 244.0 152.0 C 240.0299530029297 148.80938720703125 232.92330932617188 154.42437744140625 232.0 159.0 C 235.69529724121094 158.8061981201172 241.96157836914062 154.30445861816406 244.0 152.0" stroke-width="2.0" fill="rgb(70, 84, 68)" opacity="1.0" stroke="rgb(0, 0, 0)" stroke-opacity="0.0" stroke-linecap="round" stroke-linejoin="round"/>
    <path d="M 262.0 198.0 C 263.2043151855469 202.2100830078125 263.8123474121094 199.7399139404297 267.0 198.0 C 271.4881896972656 199.50782775878906 278.25689697265625 200.15603637695312 270.0 195.0 C 267.6666564941406 194.85287475585938 265.3333435058594 194.81378173828125 262.0 198.0" stroke-width="2.0" fill="rgb(66, 83, 69)" opacity="1.0" stroke="rgb(0, 0, 0)" stroke-opacity="0.0" stroke-linecap="round" stroke-linejoin="round"/>
    <path d="M 348.0 124.0 C 337.2368469238281 130.0342254638672 350.8696594238281 136.2920379638672 348.0 124.0" stroke-width="2.0" fill="rgb(72, 72, 72)" opacity="1.0" stroke="rgb(0, 0, 0)" stroke-opacity="0.0" stroke-linecap="round" stroke-linejoin="round"/>
    <path d="M 37.0 274.0 C 33.44524002075195 272.9921569824219 36.39645767211914 276.2279357910156 34.0 278.0 C 28.965850830078125 280.9853515625 28.97677230834961 270.356201171875 28.0 278.0 L 36.0 280.0 L 37.0 274.0" stroke-width="2.0" fill="rgb(199, 216, 212)" opacity="1.0" stroke="rgb(0, 0, 0)" stroke-opacity="0.0" stroke-linecap="round" stroke-linejoin="round"/>
  </g>
</svg>
