<?xml version="1.0" ?>
<svg xmlns="http://www.w3.org/2000/svg" version="1.1" width="512" height="512">
  <defs/>
  <g>
    <path d="M 0.1003747209906578 0.7066258788108826 L 511.9327697753906 0.44507044553756714 L 512.0025634765625 512.0006713867188 L 0.314535915851593 512.0098266601562 L 0.1003747209906578 0.7066258788108826" stroke-width="0.0" fill="rgb(246, 240, 269)" opacity="0.95730776" stroke="rgb(0, 0, 0)" stroke-opacity="0.0" stroke-linecap="round" stroke-linejoin="round"/>
    <path d="M -0.6376156806945801 -0.5410096049308777 L -0.6942548751831055 512.3709106445312 L 512.3370971679688 512.2861938476562 L 512.4108276367188 -0.6307998299598694 L -0.6376156806945801 -0.5410096049308777" stroke-width="2.0" fill="rgb(206, 215, 192)" opacity="1.0381469" stroke="rgb(0, 0, 0)" stroke-opacity="0.0" stroke-linecap="round" stroke-linejoin="round"/>
    <path d="M 231.54812622070312 108.384521484375 C 192.4752655029297 174.61785888671875 153.2422637939453 239.6751708984375 115.22411346435547 304.3521728515625 C 114.90419006347656 322.7012634277344 144.45068359375 331.7105407714844 156.6343994140625 342.456298828125 C 226.50018310546875 373.43475341796875 303.6825256347656 371.7572021484375 375.912353515625 350.71630859375 C 388.1620788574219 341.00347900390625 400.384521484375 329.82177734375 393.450927734375 315.45855712890625 C 349.1659851074219 247.1034393310547 303.6992492675781 178.6675262451172 259.2420959472656 110.61686706542969 C 250.4925994873047 106.42533111572266 241.6803436279297 110.2071304321289 231.54812622070312 108.384521484375" stroke-width="2.0" fill="rgb(78, 142, 105)" opacity="1.4366522" stroke="rgb(0, 0, 0)" stroke-opacity="0.0" stroke-linecap="round" stroke-linejoin="round"/>
    <path d="M 231.2903289794922 108.49203491210938 C 198.419921875 164.73776245117188 161.1508026123047 226.07177734375 127.22321319580078 283.70709228515625 C 188.7558135986328 325.1868591308594 258.12921142578125 320.4609069824219 320.6799621582031 308.87725830078125 L 321.5647277832031 299.9302062988281 C 292.2745361328125 236.32298278808594 263.7508239746094 172.78558349609375 231.2903289794922 108.49203491210938" stroke-width="2.0" fill="rgb(213, 29, 16)" opacity="0.9761345" stroke="rgb(0, 0, 0)" stroke-opacity="0.0" stroke-linecap="round" stroke-linejoin="round"/>
    <path d="M 111.67292785644531 307.9396667480469 C 131.41143798828125 325.33148193359375 159.9685821533203 334.89825439453125 181.5856170654297 341.0033874511719 C 256.6249694824219 362.07647705078125 324.43829345703125 344.52545166015625 395.1402893066406 322.1995849609375 C 388.26080322265625 311.0530700683594 382.539794921875 306.3089294433594 381.1076354980469 299.9712829589844 C 300.1187438964844 309.52801513671875 211.15931701660156 340.5288391113281 126.48714447021484 283.43988037109375 C 122.92965698242188 288.10382080078125 120.15737915039062 298.23101806640625 111.67292785644531 307.9396667480469" stroke-width="2.0" fill="rgb(242, 242, 209)" opacity="1.027073" stroke="rgb(0, 0, 0)" stroke-opacity="0.0" stroke-linecap="round" stroke-linejoin="round"/>
    <path d="M 231.50770568847656 108.43097686767578 C 261.5408935546875 175.17593383789062 292.98858642578125 237.39892578125 320.9693603515625 304.80487060546875 C 340.5597839355469 304.5049133300781 359.6740417480469 299.6546325683594 379.47479248046875 295.1429443359375 C 340.9305725097656 232.79150390625 297.34930419921875 170.1324005126953 258.10394287109375 107.9266357421875 L 231.50770568847656 108.43097686767578" stroke-width="2.0" fill="rgb(190, 15, 11)" opacity="0.9008321" stroke="rgb(0, 0, 0)" stroke-opacity="0.0" stroke-linecap="round" stroke-linejoin="round"/>
    <path d="M 123.06417846679688 392.85186767578125 C 147.85476684570312 405.5915832519531 180.64451599121094 399.8875732421875 207.71316528320312 403.470947265625 C 267.4943542480469 402.4990539550781 327.1979064941406 406.81201171875 388.0534362792969 395.62506103515625 C 364.32781982421875 383.0860900878906 332.7919616699219 388.9538269042969 307.04364013671875 385.360107421875 C 246.5936279296875 386.0364990234375 185.95513916015625 381.96722412109375 123.06417846679688 392.85186767578125" stroke-width="2.0" fill="rgb(175, 183, 162)" opacity="0.98985285" stroke="rgb(0, 0, 0)" stroke-opacity="0.0" stroke-linecap="round" stroke-linejoin="round"/>
    <path d="M 397.35272216796875 320.28729248046875 L 382.3518371582031 295.3208312988281 C 361.16632080078125 299.20599365234375 341.9174499511719 301.25128173828125 318.9432067871094 305.487060546875 L 336.5128173828125 335.3617858886719 C 355.9945983886719 330.66851806640625 378.183349609375 329.2646179199219 397.35272216796875 320.28729248046875" stroke-width="2.0" fill="rgb(222, 217, 179)" opacity="0.94762737" stroke="rgb(0, 0, 0)" stroke-opacity="0.0" stroke-linecap="round" stroke-linejoin="round"/>
    <path d="M 185.36451721191406 213.93849182128906 C 163.55068969726562 227.2802734375 138.0943145751953 266.06634521484375 157.2378387451172 284.0589599609375 C 165.3422088623047 264.37139892578125 179.70648193359375 237.30690002441406 185.36451721191406 213.93849182128906" stroke-width="2.0" fill="rgb(215, 56, 43)" opacity="0.9965944" stroke="rgb(0, 0, 0)" stroke-opacity="0.0" stroke-linecap="round" stroke-linejoin="round"/>
    <path d="M 381.920166015625 343.8384704589844 C 373.8822326660156 346.4576416015625 359.9253845214844 341.1903076171875 366.2796630859375 329.05859375 C 353.1285705566406 335.7834167480469 321.1673889160156 331.4115295410156 334.9626159667969 350.79217529296875 C 353.64093017578125 358.54144287109375 367.77593994140625 357.6471252441406 381.920166015625 343.8384704589844" stroke-width="2.0" fill="rgb(31, 59, 43)" opacity="0.9686518" stroke="rgb(0, 0, 0)" stroke-opacity="0.0" stroke-linecap="round" stroke-linejoin="round"/>
    <path d="M 307.4837646484375 362.3565368652344 C 298.66741943359375 338.8824157714844 269.2698059082031 354.7857971191406 249.79136657714844 351.64166259765625 C 265.7359619140625 363.1216125488281 283.8228454589844 368.8137512207031 307.4837646484375 362.3565368652344" stroke-width="2.0" fill="rgb(30, 63, 45)" opacity="1.0162166" stroke="rgb(0, 0, 0)" stroke-opacity="0.0" stroke-linecap="round" stroke-linejoin="round"/>
    <path d="M 262.6348571777344 151.30178833007812 C 266.68585205078125 170.3761749267578 274.46051025390625 204.18447875976562 295.5538635253906 213.8374786376953 C 287.0360412597656 193.0044403076172 273.8399963378906 170.13735961914062 262.6348571777344 151.30178833007812" stroke-width="2.0" fill="rgb(189, 49, 42)" opacity="0.9989583" stroke="rgb(0, 0, 0)" stroke-opacity="0.0" stroke-linecap="round" stroke-linejoin="round"/>
    <path d="M 397.9291687011719 322.48779296875 C 385.25067138671875 328.7998352050781 355.79205322265625 324.2743225097656 363.3636779785156 340.9214782714844 C 378.0354309082031 351.91015625 393.9269104003906 339.65478515625 397.9291687011719 322.48779296875" stroke-width="2.0" fill="rgb(22, 92, 55)" opacity="0.845171" stroke="rgb(0, 0, 0)" stroke-opacity="0.0" stroke-linecap="round" stroke-linejoin="round"/>
    <path d="M 194.5103302001953 189.8057098388672 C 181.2671661376953 193.83934020996094 186.61598205566406 220.56137084960938 196.37298583984375 197.0206756591797 L 194.5103302001953 189.8057098388672" stroke-width="2.0" fill="rgb(218, 54, 43)" opacity="1.0031757" stroke="rgb(0, 0, 0)" stroke-opacity="0.0" stroke-linecap="round" stroke-linejoin="round"/>
    <path d="M 245.03701782226562 192.8589630126953 C 234.35403442382812 212.25054931640625 256.8352966308594 207.8860626220703 245.03701782226562 192.8589630126953" stroke-width="2.0" fill="rgb(125, 29, 34)" opacity="1.041433" stroke="rgb(0, 0, 0)" stroke-opacity="0.0" stroke-linecap="round" stroke-linejoin="round"/>
    <path d="M 185.20492553710938 246.2310791015625 C 172.10035705566406 262.0915832519531 195.80726623535156 264.3349609375 185.20492553710938 246.2310791015625" stroke-width="2.0" fill="rgb(130, 28, 35)" opacity="1.0273186" stroke="rgb(0, 0, 0)" stroke-opacity="0.0" stroke-linecap="round" stroke-linejoin="round"/>
    <path d="M 250.44229125976562 129.75082397460938 C 249.763427734375 135.40753173828125 254.74374389648438 143.0117645263672 259.3358154296875 146.9913787841797 C 260.1358642578125 141.6471405029297 255.9371337890625 133.57679748535156 250.44229125976562 129.75082397460938" stroke-width="2.0" fill="rgb(191, 46, 39)" opacity="1.0052465" stroke="rgb(0, 0, 0)" stroke-opacity="0.0" stroke-linecap="round" stroke-linejoin="round"/>
    <path d="M 221.8727569580078 269.6154479980469 C 211.9215087890625 285.2017822265625 234.4206085205078 285.1969909667969 221.8727569580078 269.6154479980469" stroke-width="2.0" fill="rgb(125, 27, 36)" opacity="1.0310385" stroke="rgb(0, 0, 0)" stroke-opacity="0.0" stroke-linecap="round" stroke-linejoin="round"/>
    <path d="M 234.79750061035156 233.9187774658203 C 218.52464294433594 245.29409790039062 240.1744842529297 251.81858825683594 234.79750061035156 233.9187774658203" stroke-width="2.0" fill="rgb(123, 28, 36)" opacity="1.0331197" stroke="rgb(0, 0, 0)" stroke-opacity="0.0" stroke-linecap="round" stroke-linejoin="round"/>
    <path d="M 204.776123046875 211.84500122070312 C 193.784912109375 228.18356323242188 215.22076416015625 228.2576141357422 204.776123046875 211.84500122070312" stroke-width="2.0" fill="rgb(124, 28, 35)" opacity="1.0263265" stroke="rgb(0, 0, 0)" stroke-opacity="0.0" stroke-linecap="round" stroke-linejoin="round"/>
    <path d="M 268.7485656738281 255.1082763671875 C 254.57469177246094 266.5078125 274.1322326660156 273.4102783203125 268.7485656738281 255.1082763671875" stroke-width="2.0" fill="rgb(115, 30, 41)" opacity="1.0465516" stroke="rgb(0, 0, 0)" stroke-opacity="0.0" stroke-linecap="round" stroke-linejoin="round"/>
    <path d="M 222.46530151367188 159.74314880371094 C 205.0408935546875 168.2084197998047 223.4665069580078 178.97024536132812 222.46530151367188 159.74314880371094" stroke-width="2.0" fill="rgb(119, 31, 32)" opacity="1.030379" stroke="rgb(0, 0, 0)" stroke-opacity="0.0" stroke-linecap="round" stroke-linejoin="round"/>
  </g>
</svg>
