<?xml version="1.0" ?>
<svg xmlns="http://www.w3.org/2000/svg" version="1.1" width="512" height="352">
  <defs/>
  <g>
    <path d="M 148.95211791992188 217.75506591796875 C 144.14547729492188 260.9776306152344 150.7993927001953 248.8647003173828 137.08213806152344 254.51011657714844 C 73.31620025634766 262.8664245605469 69.39268493652344 254.5866241455078 43.12295150756836 241.12449645996094 C 45.87070083618164 196.75289916992188 55.71467971801758 183.62245178222656 101.12440490722656 175.6716766357422 C 153.1016082763672 177.7750244140625 147.48440551757812 165.92715454101562 148.95211791992188 217.75506591796875" stroke-width="0.0" fill="rgb(210, 177, 144)" opacity="0.8715371" stroke="rgb(145, 168, 160)" stroke-opacity="0.9252577" stroke-linecap="round" stroke-linejoin="round"/>
    <path d="M 255.55581665039062 168.68199157714844 C 227.2815399169922 208.432861328125 218.59396362304688 231.09152221679688 192.6898651123047 261.48583984375 C 190.16384887695312 233.4398193359375 180.99630737304688 238.20291137695312 175.24044799804688 192.95652770996094 C 197.03419494628906 156.5893096923828 165.39852905273438 193.39060974121094 172.791259765625 157.93150329589844 C 217.0290985107422 111.63760375976562 280.5282287597656 156.6708526611328 255.55581665039062 168.68199157714844" stroke-width="0.0" fill="rgb(53, 81, 55)" opacity="0.59914404" stroke="rgb(77, 212, 95)" stroke-opacity="0.06367725" stroke-linecap="round" stroke-linejoin="round"/>
    <path d="M 320.5230407714844 225.1526336669922 C 336.9818115234375 255.16534423828125 329.8190002441406 240.35414123535156 266.20941162109375 227.44171142578125 C 273.6003723144531 275.24822998046875 244.17544555664062 289.0885314941406 257.5283508300781 227.5079345703125 C 240.83816528320312 119.87657928466797 244.75985717773438 132.225341796875 262.7165832519531 196.38308715820312 C 290.92913818359375 196.81732177734375 310.87890625 169.84658813476562 320.5230407714844 225.1526336669922" stroke-width="0.0" fill="rgb(40, 65, 51)" opacity="0.7565047" stroke="rgb(243, 246, 138)" stroke-opacity="0.6706982" stroke-linecap="round" stroke-linejoin="round"/>
    <path d="M 410.0 262.0 C 409.33013916015625 264.5 407.5 266.33013916015625 405.0 267.0 C 402.5 266.33013916015625 400.66986083984375 264.5 400.0 262.0 C 400.66986083984375 259.5 402.5 257.66986083984375 405.0 257.0 C 407.5 257.66986083984375 409.33013916015625 259.5 410.0 262.0" stroke-width="0.0" fill="rgb(148, 148, 147)" opacity="1.0" stroke="rgb(76, 195, 232)" stroke-opacity="0.18533936" stroke-linecap="round" stroke-linejoin="round"/>
    <path d="M 283.0 218.0 C 282.33013916015625 220.5 280.5 222.3301239013672 278.0 223.0 C 275.5 222.3301239013672 273.66986083984375 220.5 273.0 218.0 C 273.66986083984375 215.5 275.5 213.6698760986328 278.0 213.0 C 280.5 213.6698760986328 282.33013916015625 215.5 283.0 218.0" stroke-width="0.0" fill="rgb(108, 145, 150)" opacity="1.0" stroke="rgb(230, 240, 212)" stroke-opacity="0.19447899" stroke-linecap="round" stroke-linejoin="round"/>
    <path d="M 328.0 48.0 C 327.33013916015625 50.5 325.5 52.33012771606445 323.0 53.0 C 320.5 52.33012771606445 318.66986083984375 50.5 318.0 48.0 C 318.66986083984375 45.5 320.5 43.66987228393555 323.0 43.0 C 325.5 43.66987228393555 327.33013916015625 45.5 328.0 48.0" stroke-width="0.0" fill="rgb(206, 96, 61)" opacity="1.0" stroke="rgb(109, 13, 46)" stroke-opacity="0.17681399" stroke-linecap="round" stroke-linejoin="round"/>
    <path d="M 238.0 144.0 C 237.3301239013672 146.5 235.5 148.3301239013672 233.0 149.0 C 230.5 148.3301239013672 228.6698760986328 146.5 228.0 144.0 C 228.6698760986328 141.5 230.5 139.6698760986328 233.0 139.0 C 235.5 139.6698760986328 237.3301239013672 141.5 238.0 144.0" stroke-width="0.0" fill="rgb(201, 216, 213)" opacity="1.0" stroke="rgb(149, 151, 118)" stroke-opacity="0.26673454" stroke-linecap="round" stroke-linejoin="round"/>
  </g>
</svg>
