<?xml version="1.0" ?>
<svg xmlns="http://www.w3.org/2000/svg" version="1.1" width="512" height="352">
  <defs/>
  <g>
    <path d="M 148.14785766601562 213.4280548095703 C 144.16432189941406 259.9388732910156 153.0439910888672 250.43576049804688 135.29678344726562 254.0846710205078 C 72.47296142578125 266.1976318359375 69.77210998535156 257.83514404296875 38.76470184326172 244.37193298339844 C 45.68376922607422 197.1275634765625 57.06493377685547 181.82308959960938 103.95211029052734 175.7980499267578 C 155.79180908203125 177.42376708984375 149.19944763183594 169.5830535888672 148.14785766601562 213.4280548095703" stroke-width="0.0" fill="rgb(219, 195, 161)" opacity="0.9510085" stroke="rgb(145, 168, 160)" stroke-opacity="0.9252577" stroke-linecap="round" stroke-linejoin="round"/>
    <path d="M 244.1104736328125 166.010009765625 C 234.29165649414062 210.98187255859375 224.84571838378906 215.01516723632812 193.35902404785156 262.9021301269531 C 186.74655151367188 224.19802856445312 183.05738830566406 244.64080810546875 175.02182006835938 192.6605682373047 C 203.19265747070312 157.65689086914062 148.56883239746094 190.22299194335938 182.07118225097656 159.02880859375 C 200.69029235839844 90.60540771484375 288.823974609375 185.0428924560547 244.1104736328125 166.010009765625" stroke-width="0.0" fill="rgb(24, 59, 27)" opacity="0.5799098" stroke="rgb(77, 212, 95)" stroke-opacity="0.06367725" stroke-linecap="round" stroke-linejoin="round"/>
    <path d="M 319.5487976074219 223.3456573486328 C 338.3584899902344 257.0162048339844 328.7789306640625 238.99513244628906 266.6147155761719 227.84974670410156 C 271.2448425292969 279.01385498046875 245.87350463867188 313.2972106933594 257.5551452636719 218.33717346191406 C 223.30723571777344 61.676513671875 233.3197021484375 86.47997283935547 262.31781005859375 195.64736938476562 C 291.89544677734375 199.48194885253906 319.08935546875 188.67970275878906 319.5487976074219 223.3456573486328" stroke-width="0.0" fill="rgb(30, 44, 20)" opacity="0.87305254" stroke="rgb(243, 246, 138)" stroke-opacity="0.6706982" stroke-linecap="round" stroke-linejoin="round"/>
    <path d="M 441.8533935546875 196.32249450683594 C 481.47021484375 275.5752868652344 461.40087890625 283.9422912597656 383.6826477050781 286.1127624511719 C 386.76995849609375 278.2508850097656 372.5142822265625 288.0120544433594 321.9912109375 272.2528991699219 C 383.48492431640625 187.7225799560547 350.7183837890625 146.29458618164062 433.57354736328125 182.94515991210938 C 483.4870910644531 267.5429992675781 426.9871826171875 242.6220703125 441.8533935546875 196.32249450683594" stroke-width="0.0" fill="rgb(83, 66, 72)" opacity="0.38265628" stroke="rgb(76, 195, 232)" stroke-opacity="0.18533936" stroke-linecap="round" stroke-linejoin="round"/>
    <path d="M 281.22479248046875 202.2102813720703 C 284.3639831542969 225.38389587402344 319.1802062988281 239.58258056640625 281.650146484375 229.3303985595703 C 275.09088134765625 230.56149291992188 256.197021484375 234.03485107421875 260.6814880371094 206.00901794433594 C 289.2301940917969 195.6021270751953 274.5173034667969 168.7950897216797 307.0766906738281 189.143310546875 C 336.88677978515625 255.1890106201172 301.9754638671875 246.6936492919922 281.22479248046875 202.2102813720703" stroke-width="0.0" fill="rgb(104, 136, 138)" opacity="1.0" stroke="rgb(230, 240, 212)" stroke-opacity="0.19447899" stroke-linecap="round" stroke-linejoin="round"/>
    <path d="M 348.5211181640625 43.84574890136719 C 317.9010925292969 114.8901596069336 353.3747253417969 21.018579483032227 287.3641052246094 113.1467514038086 C 246.02877807617188 120.92410278320312 275.1405944824219 150.28240966796875 261.12664794921875 52.72321319580078 C 334.1423645019531 52.264766693115234 302.0949401855469 48.47494888305664 321.17413330078125 28.10515022277832 C 347.43145751953125 47.10744857788086 314.45782470703125 44.886016845703125 348.5211181640625 43.84574890136719" stroke-width="0.0" fill="rgb(155, 42, 1)" opacity="0.6990396" stroke="rgb(109, 13, 46)" stroke-opacity="0.17681399" stroke-linecap="round" stroke-linejoin="round"/>
    <path d="M 240.45867919921875 139.09190368652344 C 244.65432739257812 160.38507080078125 243.61317443847656 143.6055450439453 232.21975708007812 158.1852264404297 C 230.23165893554688 156.86380004882812 235.529296875 143.0287322998047 212.495849609375 135.35009765625 C 205.20375061035156 133.26536560058594 205.36431884765625 134.31846618652344 246.85592651367188 133.9329376220703 C 235.8234405517578 134.7825469970703 240.22222900390625 132.71133422851562 240.45867919921875 139.09190368652344" stroke-width="0.0" fill="rgb(202, 217, 214)" opacity="1.0" stroke="rgb(149, 151, 118)" stroke-opacity="0.26673454" stroke-linecap="round" stroke-linejoin="round"/>
    <path d="M 347.79718017578125 247.04188537597656 C 346.4468078613281 253.96229553222656 342.8822021484375 259.468017578125 343.6112060546875 258.0556335449219 C 330.6081237792969 255.24197387695312 323.0028991699219 270.306884765625 335.1507568359375 253.227783203125 C 334.13568115234375 251.9179229736328 336.9332275390625 249.932861328125 345.7489929199219 232.27662658691406 C 348.12261962890625 228.0790252685547 350.3357849121094 226.96986389160156 347.79718017578125 247.04188537597656" stroke-width="0.0" fill="rgb(233, 255, 255)" opacity="0.5496038" stroke="rgb(10, 22, 47)" stroke-opacity="0.9079891" stroke-linecap="round" stroke-linejoin="round"/>
    <path d="M 115.48130798339844 286.7070617675781 C 71.26380157470703 310.84588623046875 -17.069856643676758 229.50363159179688 81.2083511352539 261.22589111328125 C 155.60171508789062 244.0765380859375 108.8235855102539 262.8233337402344 102.86914825439453 251.3627471923828 C 94.3006820678711 245.8482208251953 116.64068603515625 256.0444030761719 100.31564331054688 230.2262725830078 C 51.814937591552734 205.17933654785156 147.06948852539062 209.30978393554688 115.48130798339844 286.7070617675781" stroke-width="0.0" fill="rgb(191, 159, 127)" opacity="0.7152854" stroke="rgb(97, 139, 102)" stroke-opacity="0.5537696" stroke-linecap="round" stroke-linejoin="round"/>
    <path d="M 91.19608306884766 203.35546875 C 86.38371276855469 203.7689971923828 63.30244827270508 216.5254669189453 54.14918518066406 198.69822692871094 C 66.56170654296875 207.4364776611328 49.589229583740234 176.84661865234375 37.66096115112305 247.4781951904297 C 39.9141960144043 169.4214630126953 109.90768432617188 176.475830078125 71.16910552978516 185.47511291503906 C 47.16498947143555 192.63694763183594 83.55540466308594 206.05917358398438 91.19608306884766 203.35546875" stroke-width="0.0" fill="rgb(150, 101, 90)" opacity="1.0" stroke="rgb(23, 35, 180)" stroke-opacity="0.4552347" stroke-linecap="round" stroke-linejoin="round"/>
    <path d="M 311.1922607421875 43.838809967041016 C 319.0140686035156 69.40153503417969 323.2553405761719 91.14616394042969 305.4694519042969 59.837921142578125 C 294.9988708496094 44.67054748535156 300.7738037109375 57.07548904418945 300.8296813964844 33.706398010253906 C 303.4078063964844 56.36616134643555 300.14080810546875 33.27659225463867 301.12933349609375 33.28716278076172 C 304.37225341796875 34.590065002441406 308.20831298828125 37.96310806274414 311.1922607421875 43.838809967041016" stroke-width="0.0" fill="rgb(198, 96, 62)" opacity="1.0" stroke="rgb(159, 81, 247)" stroke-opacity="0.13474946" stroke-linecap="round" stroke-linejoin="round"/>
    <path d="M 327.0711975097656 130.50405883789062 C 334.86968994140625 136.85292053222656 301.7259521484375 139.06939697265625 355.0798645019531 168.4945068359375 C 319.9157409667969 154.34072875976562 323.56549072265625 142.17123413085938 321.2444763183594 136.81861877441406 C 320.59088134765625 128.12521362304688 323.5682678222656 130.99916076660156 334.0649108886719 125.57819366455078 C 361.16424560546875 97.62423706054688 338.4172058105469 127.21595001220703 327.0711975097656 130.50405883789062" stroke-width="0.0" fill="rgb(8, 0, 0)" opacity="0.57071847" stroke="rgb(110, 111, 208)" stroke-opacity="0.44544014" stroke-linecap="round" stroke-linejoin="round"/>
    <path d="M 243.4413299560547 94.14237213134766 C 241.4340057373047 106.22882843017578 238.6970672607422 104.6915283203125 249.02767944335938 145.99295043945312 C 238.72776794433594 149.7779541015625 234.25379943847656 106.73849487304688 237.06158447265625 100.42354583740234 C 236.98715209960938 97.87059783935547 242.45457458496094 69.34375 268.2669982910156 64.24839782714844 C 275.80023193359375 69.68939208984375 252.8711395263672 64.23604583740234 243.4413299560547 94.14237213134766" stroke-width="0.0" fill="rgb(41, 55, 31)" opacity="0.98933256" stroke="rgb(210, 144, 80)" stroke-opacity="0.9214174" stroke-linecap="round" stroke-linejoin="round"/>
    <path d="M 260.6129455566406 167.37420654296875 C 248.56137084960938 163.3263397216797 247.42556762695312 179.878662109375 249.52886962890625 180.1721954345703 C 228.232421875 187.6400909423828 246.56021118164062 203.3460693359375 235.1862335205078 158.5070037841797 C 241.22293090820312 153.16725158691406 237.83688354492188 155.38912963867188 248.81236267089844 157.61717224121094 C 262.0610046386719 143.46829223632812 262.09759521484375 145.12750244140625 260.6129455566406 167.37420654296875" stroke-width="0.0" fill="rgb(110, 135, 116)" opacity="1.0" stroke="rgb(44, 42, 115)" stroke-opacity="0.12036103" stroke-linecap="round" stroke-linejoin="round"/>
    <path d="M 440.2344970703125 266.42547607421875 C 429.3741455078125 279.3955078125 401.5502014160156 273.0926513671875 390.6200866699219 273.76922607421875 C 410.86676025390625 274.0321350097656 414.6711120605469 275.9482116699219 409.4120788574219 274.5038146972656 C 422.47247314453125 272.5435791015625 365.76458740234375 285.2768859863281 376.6054992675781 225.57852172851562 C 358.0531311035156 293.5545959472656 443.77679443359375 277.259521484375 440.2344970703125 266.42547607421875" stroke-width="0.0" fill="rgb(78, 79, 78)" opacity="0.9063838" stroke="rgb(123, 125, 14)" stroke-opacity="0.8611816" stroke-linecap="round" stroke-linejoin="round"/>
    <path d="M 460.4578857421875 248.53269958496094 C 467.6025390625 214.271484375 467.32855224609375 245.0223846435547 451.4351806640625 253.55697631835938 C 446.65704345703125 257.0426025390625 454.4247131347656 248.01092529296875 452.61956787109375 241.78387451171875 C 452.1308288574219 249.23095703125 455.8520202636719 239.3403778076172 453.1960754394531 221.9940643310547 C 467.5453796386719 221.4029998779297 467.1100769042969 227.95755004882812 460.4578857421875 248.53269958496094" stroke-width="0.0" fill="rgb(201, 216, 213)" opacity="1.0" stroke="rgb(219, 56, 101)" stroke-opacity="0.54295164" stroke-linecap="round" stroke-linejoin="round"/>
    <path d="M 94.64497375488281 193.2476806640625 C 108.19239044189453 199.43731689453125 99.42503356933594 195.7418975830078 84.36564636230469 196.26026916503906 C 88.21883392333984 197.1649169921875 69.06433868408203 193.6039276123047 69.96664428710938 185.45921325683594 C 72.68354034423828 184.06849670410156 86.56205749511719 178.94390869140625 81.52623748779297 181.97401428222656 C 81.604248046875 188.03244018554688 88.0330581665039 190.2480010986328 94.64497375488281 193.2476806640625" stroke-width="0.0" fill="rgb(182, 130, 115)" opacity="1.0" stroke="rgb(154, 10, 46)" stroke-opacity="0.8493712" stroke-linecap="round" stroke-linejoin="round"/>
    <path d="M 316.78173828125 274.98260498046875 C 323.7713317871094 278.78802490234375 309.409423828125 287.6929016113281 245.35948181152344 280.9743347167969 C 244.96319580078125 277.4744873046875 246.66444396972656 289.7894592285156 241.85464477539062 273.45660400390625 C 249.63829040527344 272.8022766113281 252.84564208984375 280.03436279296875 281.929931640625 275.0345764160156 C 298.7284240722656 265.9859924316406 259.1205749511719 263.49932861328125 316.78173828125 274.98260498046875" stroke-width="0.0" fill="rgb(0, 57, 74)" opacity="0.3605363" stroke="rgb(117, 218, 80)" stroke-opacity="0.9692899" stroke-linecap="round" stroke-linejoin="round"/>
    <path d="M 146.2196807861328 132.14190673828125 C 130.2481231689453 112.10295104980469 104.03312683105469 167.63330078125 125.72636413574219 128.51646423339844 C 89.20925903320312 150.72544860839844 105.87278747558594 180.10435485839844 95.94803619384766 158.0288543701172 C 92.47081756591797 128.68215942382812 117.24442291259766 119.59027099609375 121.93607330322266 121.22991180419922 C 134.0785369873047 119.34918975830078 158.93267822265625 131.1368865966797 146.2196807861328 132.14190673828125" stroke-width="0.0" fill="rgb(118, 20, 1)" opacity="0.6280555" stroke="rgb(17, 186, 153)" stroke-opacity="0.9278801" stroke-linecap="round" stroke-linejoin="round"/>
    <path d="M 156.091796875 303.2001953125 C 174.62416076660156 312.5464172363281 172.258544921875 315.1789245605469 95.11995697021484 309.67156982421875 C 4.033133506774902 304.865234375 51.08122253417969 235.57388305664062 65.7352066040039 291.84112548828125 C 127.76657104492188 304.8692626953125 105.6032943725586 297.1556091308594 78.72541809082031 296.5444030761719 C 153.12545776367188 299.6653747558594 141.9181671142578 299.694580078125 156.091796875 303.2001953125" stroke-width="0.0" fill="rgb(144, 113, 101)" opacity="1.0" stroke="rgb(201, 231, 112)" stroke-opacity="0.5699111" stroke-linecap="round" stroke-linejoin="round"/>
    <path d="M 349.93157958984375 126.01969909667969 C 350.2421569824219 130.43836975097656 348.22442626953125 134.33241271972656 343.3048095703125 134.1540985107422 C 343.3792724609375 130.66246032714844 346.65875244140625 120.20943450927734 347.4127502441406 121.83606719970703 C 341.4723815917969 124.95376586914062 350.7478942871094 134.76869201660156 347.3025817871094 127.17630767822266 C 347.50653076171875 117.46052551269531 346.6950378417969 124.73602294921875 349.93157958984375 126.01969909667969" stroke-width="0.0" fill="rgb(14, 12, 11)" opacity="0.9037246" stroke="rgb(10, 173, 189)" stroke-opacity="0.93524915" stroke-linecap="round" stroke-linejoin="round"/>
    <path d="M 103.08441925048828 196.63807678222656 C 93.00861358642578 196.98851013183594 82.09361267089844 197.85162353515625 76.46070098876953 193.30589294433594 C 89.13890075683594 190.78260803222656 85.70188903808594 191.82012939453125 78.88298797607422 192.7471466064453 C 75.17497253417969 193.768798828125 84.92664337158203 188.6377410888672 84.44721984863281 188.1170654296875 C 87.76665496826172 190.87570190429688 95.11994934082031 194.08070373535156 103.08441925048828 196.63807678222656" stroke-width="0.0" fill="rgb(156, 85, 65)" opacity="0.7172436" stroke="rgb(212, 140, 69)" stroke-opacity="0.20359582" stroke-linecap="round" stroke-linejoin="round"/>
    <path d="M 267.8576965332031 276.9100036621094 C 249.55172729492188 274.85955810546875 267.0058288574219 287.58160400390625 243.77536010742188 283.6325988769531 C 222.58309936523438 283.85638427734375 196.23390197753906 283.0531005859375 219.91964721679688 279.7565612792969 C 180.56924438476562 273.4778137207031 197.17538452148438 272.1867980957031 238.0030975341797 273.3498229980469 C 270.9080505371094 267.412841796875 271.1836242675781 250.96420288085938 267.8576965332031 276.9100036621094" stroke-width="0.0" fill="rgb(182, 182, 181)" opacity="1.0" stroke="rgb(40, 98, 27)" stroke-opacity="0.32844654" stroke-linecap="round" stroke-linejoin="round"/>
    <path d="M 398.8557434082031 108.74564361572266 C 381.56976318359375 190.35263061523438 412.6930847167969 267.69561767578125 334.95587158203125 216.7451934814453 C 381.1185302734375 133.54736328125 291.2278747558594 166.720947265625 338.8862609863281 122.38250732421875 C 347.55316162109375 143.26722717285156 355.385498046875 135.51573181152344 345.4749755859375 114.90335845947266 C 396.9624938964844 100.74142456054688 354.5762939453125 93.20682525634766 398.8557434082031 108.74564361572266" stroke-width="0.0" fill="rgb(177, 176, 177)" opacity="0.8921439" stroke="rgb(137, 143, 33)" stroke-opacity="0.0026657581" stroke-linecap="round" stroke-linejoin="round"/>
    <path d="M 120.79383087158203 255.6051788330078 C 118.057861328125 233.84646606445312 129.23556518554688 246.9057159423828 102.84335327148438 249.87460327148438 C 110.4453353881836 258.4689025878906 135.69937133789062 244.01100158691406 106.1688232421875 277.6748962402344 C 131.52975463867188 262.86474609375 132.72702026367188 216.26806640625 85.69872283935547 216.8716583251953 C 139.24366760253906 223.73655700683594 113.43587493896484 259.4779357910156 120.79383087158203 255.6051788330078" stroke-width="0.0" fill="rgb(119, 80, 75)" opacity="1.0" stroke="rgb(49, 155, 115)" stroke-opacity="0.8921503" stroke-linecap="round" stroke-linejoin="round"/>
    <path d="M 63.121368408203125 280.1496276855469 C 71.48388671875 278.35186767578125 78.8976821899414 284.6225891113281 100.29931640625 278.979736328125 C 83.68502807617188 283.4075622558594 70.71575164794922 278.6413269042969 63.863136291503906 280.4389343261719 C 85.29399108886719 284.0296936035156 105.62218475341797 283.6729736328125 111.4297866821289 271.6109313964844 C 86.9980239868164 295.13555908203125 39.84508514404297 267.3468322753906 63.121368408203125 280.1496276855469" stroke-width="0.0" fill="rgb(72, 47, 56)" opacity="0.9131473" stroke="rgb(101, 248, 187)" stroke-opacity="0.11472666" stroke-linecap="round" stroke-linejoin="round"/>
    <path d="M 203.73802185058594 135.5682830810547 C 204.4460906982422 140.38063049316406 204.58470153808594 141.99826049804688 196.166748046875 141.702880859375 C 187.56585693359375 141.1156463623047 170.6669921875 155.1514129638672 195.9737091064453 136.6368865966797 C 207.31861877441406 129.1789093017578 201.64248657226562 132.69813537597656 206.2361602783203 133.4558563232422 C 203.2415771484375 134.23451232910156 201.10791015625 131.67164611816406 203.73802185058594 135.5682830810547" stroke-width="0.0" fill="rgb(223, 236, 237)" opacity="0.8228608" stroke="rgb(33, 49, 94)" stroke-opacity="0.65153176" stroke-linecap="round" stroke-linejoin="round"/>
    <path d="M 295.5766296386719 51.94519805908203 C 259.9596252441406 47.49481201171875 272.4325866699219 69.45230865478516 268.51263427734375 64.64838409423828 C 258.4762268066406 62.150474548339844 265.5172424316406 66.33360290527344 247.9283905029297 64.54084014892578 C 252.63755798339844 65.03810119628906 254.28146362304688 65.34407043457031 246.04893493652344 64.89221954345703 C 254.3667755126953 66.111572265625 281.8889465332031 43.64686584472656 295.5766296386719 51.94519805908203" stroke-width="0.0" fill="rgb(45, 55, 31)" opacity="0.95672643" stroke="rgb(208, 44, 0)" stroke-opacity="0.05788712" stroke-linecap="round" stroke-linejoin="round"/>
    <path d="M 392.0948486328125 239.8713836669922 C 389.21710205078125 244.3968048095703 379.4056396484375 249.66807556152344 375.68646240234375 246.94508361816406 C 372.4245300292969 256.906982421875 368.6825256347656 224.8898162841797 397.0734558105469 212.7075958251953 C 370.12554931640625 220.0146484375 374.8033142089844 243.41641235351562 373.2303161621094 238.88815307617188 C 385.5055236816406 243.3605499267578 387.7205505371094 240.118896484375 392.0948486328125 239.8713836669922" stroke-width="0.0" fill="rgb(81, 81, 80)" opacity="0.82564175" stroke="rgb(56, 32, 192)" stroke-opacity="0.27719164" stroke-linecap="round" stroke-linejoin="round"/>
    <path d="M 327.22998046875 239.77479553222656 C 324.9305725097656 231.6585693359375 332.89013671875 248.39382934570312 322.1859130859375 241.1548309326172 C 293.4725036621094 233.01443481445312 296.6555480957031 215.3069610595703 328.2825622558594 244.46119689941406 C 294.9733581542969 211.62574768066406 302.11968994140625 187.27313232421875 320.0191650390625 227.84664916992188 C 323.7908630371094 231.71022033691406 324.4837951660156 235.07861328125 327.22998046875 239.77479553222656" stroke-width="0.0" fill="rgb(104, 140, 146)" opacity="0.90622914" stroke="rgb(120, 8, 36)" stroke-opacity="0.090497494" stroke-linecap="round" stroke-linejoin="round"/>
    <path d="M 255.85726928710938 285.1936340332031 C 247.87088012695312 285.725341796875 231.43585205078125 283.98992919921875 227.41383361816406 284.6176452636719 C 190.32241821289062 284.0345458984375 233.3377685546875 279.4287109375 200.61965942382812 274.9590759277344 C 188.24468994140625 263.0133056640625 137.78916931152344 278.9722900390625 216.3013458251953 277.3053894042969 C 244.88909912109375 279.4266052246094 268.3688049316406 267.2458801269531 255.85726928710938 285.1936340332031" stroke-width="0.0" fill="rgb(24, 95, 108)" opacity="0.46322054" stroke="rgb(48, 148, 62)" stroke-opacity="0.59337866" stroke-linecap="round" stroke-linejoin="round"/>
    <path d="M 119.88546752929688 233.66165161132812 C 117.6326904296875 233.1151123046875 115.529296875 236.24093627929688 105.0477523803711 239.04310607910156 C 96.1015625 241.98760986328125 105.31745147705078 239.89085388183594 108.12017059326172 234.5092315673828 C 108.77959442138672 232.64427185058594 111.8366470336914 228.2997283935547 108.85808563232422 222.4542999267578 C 113.88414001464844 225.9957275390625 116.54978942871094 228.23390197753906 119.88546752929688 233.66165161132812" stroke-width="0.0" fill="rgb(93, 22, 25)" opacity="0.54997617" stroke="rgb(37, 116, 252)" stroke-opacity="0.59026015" stroke-linecap="round" stroke-linejoin="round"/>
    <path d="M 465.5557861328125 184.78375244140625 C 486.806884765625 213.1842041015625 479.166748046875 255.54959106445312 457.21923828125 261.296142578125 C 482.1654052734375 193.01869201660156 442.89208984375 195.0192413330078 447.3017578125 166.6342010498047 C 444.35760498046875 174.83151245117188 458.1248474121094 178.36085510253906 451.49310302734375 155.22938537597656 C 454.60150146484375 160.8670196533203 453.5831298828125 168.83091735839844 465.5557861328125 184.78375244140625" stroke-width="0.0" fill="rgb(159, 159, 159)" opacity="1.0" stroke="rgb(98, 167, 85)" stroke-opacity="0.47978967" stroke-linecap="round" stroke-linejoin="round"/>
    <path d="M 104.56160736083984 147.24270629882812 C 178.22666931152344 92.6923599243164 184.90782165527344 176.5071258544922 113.29168701171875 197.27093505859375 C 96.20149993896484 157.43399047851562 95.06098175048828 152.51686096191406 98.51322174072266 144.33091735839844 C 97.08039093017578 148.31752014160156 96.01644897460938 140.6380615234375 111.18197631835938 129.5401153564453 C 126.04474639892578 123.46773529052734 107.39599609375 129.39968872070312 104.56160736083984 147.24270629882812" stroke-width="0.0" fill="rgb(214, 190, 158)" opacity="0.953612" stroke="rgb(177, 19, 150)" stroke-opacity="0.9923777" stroke-linecap="round" stroke-linejoin="round"/>
    <path d="M 147.6989288330078 176.94073486328125 C 161.94923400878906 151.5307159423828 167.9137420654297 146.64190673828125 158.81045532226562 168.21705627441406 C 167.282958984375 158.1395263671875 165.3072052001953 147.53335571289062 166.2809600830078 157.75997924804688 C 167.2247772216797 157.32838439941406 157.8140411376953 138.18455505371094 165.07223510742188 147.6007080078125 C 168.3931427001953 143.01382446289062 173.742431640625 165.57383728027344 147.6989288330078 176.94073486328125" stroke-width="0.0" fill="rgb(111, 82, 74)" opacity="0.8055847" stroke="rgb(111, 153, 11)" stroke-opacity="0.7688756" stroke-linecap="round" stroke-linejoin="round"/>
    <path d="M 391.204345703125 232.12335205078125 C 403.9552307128906 232.24888610839844 382.01318359375 233.44810485839844 390.626220703125 233.30091857910156 C 387.9107360839844 234.29563903808594 377.81927490234375 229.6067352294922 378.57708740234375 228.07083129882812 C 373.1414794921875 231.51089477539062 380.7585754394531 221.92037963867188 382.6835632324219 219.8796844482422 C 385.26678466796875 229.70127868652344 386.01214599609375 228.72549438476562 391.204345703125 232.12335205078125" stroke-width="0.0" fill="rgb(85, 84, 83)" opacity="0.85615385" stroke="rgb(241, 11, 80)" stroke-opacity="0.14287819" stroke-linecap="round" stroke-linejoin="round"/>
    <path d="M 150.03163146972656 214.29989624023438 C 138.88116455078125 252.3309326171875 151.4464111328125 267.78302001953125 144.27633666992188 237.8922576904297 C 133.88661193847656 238.350830078125 128.47972106933594 246.4466552734375 135.6060791015625 237.30709838867188 C 137.74766540527344 234.90960693359375 141.60618591308594 232.0384063720703 144.61448669433594 230.8523712158203 C 151.6223907470703 201.73135375976562 150.47467041015625 171.16085815429688 150.03163146972656 214.29989624023438" stroke-width="0.0" fill="rgb(103, 43, 40)" opacity="0.7005405" stroke="rgb(34, 74, 85)" stroke-opacity="0.098832004" stroke-linecap="round" stroke-linejoin="round"/>
    <path d="M 477.7271423339844 214.98976135253906 C 481.9815673828125 274.8560485839844 430.6554260253906 270.69677734375 441.2110595703125 265.5035095214844 C 442.9096374511719 269.09356689453125 441.158935546875 265.2309875488281 442.15338134765625 267.0205383300781 C 446.9018249511719 235.7176055908203 446.9486999511719 269.54302978515625 436.5867614746094 266.2040100097656 C 447.8607177734375 266.8689880371094 476.18609619140625 268.25775146484375 477.7271423339844 214.98976135253906" stroke-width="0.0" fill="rgb(66, 66, 65)" opacity="0.8718662" stroke="rgb(66, 131, 33)" stroke-opacity="0.1357411" stroke-linecap="round" stroke-linejoin="round"/>
    <path d="M 287.0435485839844 84.35660552978516 C 300.35443115234375 93.42969512939453 310.82037353515625 87.18930053710938 297.2123718261719 81.4232406616211 C 272.8593444824219 67.2560043334961 247.7178192138672 79.29363250732422 262.5970153808594 83.74032592773438 C 281.5508728027344 83.86688232421875 280.2110595703125 84.0550308227539 288.9306335449219 82.57749938964844 C 269.48919677734375 83.5959701538086 272.6466979980469 82.71058654785156 287.0435485839844 84.35660552978516" stroke-width="0.0" fill="rgb(206, 102, 69)" opacity="1.0" stroke="rgb(154, 210, 104)" stroke-opacity="0.6143485" stroke-linecap="round" stroke-linejoin="round"/>
    <path d="M 65.6147232055664 216.934326171875 C 58.418121337890625 221.60638427734375 50.342952728271484 222.05859375 49.8391227722168 221.16384887695312 C 52.37213134765625 220.52015686035156 42.324954986572266 221.52769470214844 45.92041015625 214.10525512695312 C 49.32423400878906 205.7279052734375 46.423606872558594 210.41824340820312 51.516265869140625 213.42025756835938 C 50.16415023803711 213.61203002929688 58.175498962402344 217.58993530273438 65.6147232055664 216.934326171875" stroke-width="0.0" fill="rgb(165, 102, 87)" opacity="0.8545912" stroke="rgb(3, 126, 77)" stroke-opacity="0.903165" stroke-linecap="round" stroke-linejoin="round"/>
    <path d="M 273.3590393066406 88.36105346679688 C 267.43524169921875 92.5609359741211 250.00686645507812 91.8463134765625 266.76519775390625 95.11543273925781 C 259.0040588378906 94.20512390136719 253.98654174804688 89.69660949707031 264.6616516113281 100.83840942382812 C 265.33184814453125 82.8155517578125 265.4138488769531 83.61712646484375 262.25994873046875 83.81501770019531 C 264.2049560546875 85.1401138305664 270.9870910644531 87.12122344970703 273.3590393066406 88.36105346679688" stroke-width="0.0" fill="rgb(187, 151, 133)" opacity="1.0" stroke="rgb(9, 237, 25)" stroke-opacity="0.48737273" stroke-linecap="round" stroke-linejoin="round"/>
    <path d="M 202.27342224121094 151.40077209472656 C 197.41018676757812 155.97955322265625 198.74404907226562 154.70680236816406 189.5666046142578 163.22561645507812 C 203.6589813232422 153.70921325683594 243.31430053710938 160.2505340576172 223.46778869628906 159.10426330566406 C 196.61367797851562 161.3655548095703 212.74745178222656 155.53964233398438 166.25831604003906 174.07833862304688 C 176.8618621826172 177.9351043701172 201.7653350830078 151.57057189941406 202.27342224121094 151.40077209472656" stroke-width="0.0" fill="rgb(48, 58, 38)" opacity="0.88912153" stroke="rgb(86, 75, 240)" stroke-opacity="0.2454683" stroke-linecap="round" stroke-linejoin="round"/>
    <path d="M 51.79098129272461 277.7229919433594 C 52.47012710571289 297.03436279296875 50.43837356567383 299.1819763183594 40.884403228759766 282.3713073730469 C 41.819297790527344 274.29351806640625 37.26091003417969 277.8880920410156 43.113712310791016 286.1253967285156 C 42.449974060058594 279.3335876464844 42.64116668701172 280.53167724609375 42.278282165527344 283.0255126953125 C 44.518733978271484 259.16705322265625 58.82778549194336 275.4340515136719 51.79098129272461 277.7229919433594" stroke-width="0.0" fill="rgb(239, 220, 180)" opacity="0.7466271" stroke="rgb(102, 186, 244)" stroke-opacity="0.8147794" stroke-linecap="round" stroke-linejoin="round"/>
    <path d="M 461.3284912109375 262.524169921875 C 456.5046081542969 273.00372314453125 454.97967529296875 273.66650390625 437.56378173828125 282.49652099609375 C 443.19818115234375 278.538330078125 446.6542663574219 275.22357177734375 434.75958251953125 272.49481201171875 C 443.0093688964844 265.994384765625 439.800537109375 268.1694641113281 440.4766540527344 267.9845275878906 C 440.4565734863281 267.0674133300781 450.61944580078125 269.77728271484375 461.3284912109375 262.524169921875" stroke-width="0.0" fill="rgb(234, 255, 253)" opacity="0.57456106" stroke="rgb(157, 18, 90)" stroke-opacity="0.8622161" stroke-linecap="round" stroke-linejoin="round"/>
    <path d="M 104.93944549560547 299.4251403808594 C 103.02064514160156 299.823974609375 100.3697509765625 308.5592346191406 101.90264129638672 307.672119140625 C 81.4189453125 309.7317199707031 65.99899291992188 295.52215576171875 71.13135528564453 295.04425048828125 C 93.95074462890625 300.9371337890625 96.819091796875 296.4242858886719 89.52263641357422 298.9415283203125 C 86.63749694824219 300.0924377441406 88.952880859375 298.26190185546875 104.93944549560547 299.4251403808594" stroke-width="0.0" fill="rgb(214, 192, 160)" opacity="0.9501888" stroke="rgb(62, 53, 87)" stroke-opacity="0.10356268" stroke-linecap="round" stroke-linejoin="round"/>
    <path d="M 453.5719299316406 149.67759704589844 C 452.90985107421875 180.0609130859375 470.9081726074219 179.66677856445312 454.7731628417969 176.82090759277344 C 446.03521728515625 185.77268981933594 439.8722229003906 166.3672637939453 440.9071960449219 151.2619171142578 C 441.0484619140625 150.43031311035156 440.37677001953125 151.22396850585938 442.65673828125 143.63040161132812 C 445.49322509765625 131.27810668945312 462.4491271972656 134.3322296142578 453.5719299316406 149.67759704589844" stroke-width="0.0" fill="rgb(29, 0, 11)" opacity="0.19617856" stroke="rgb(189, 244, 179)" stroke-opacity="0.029199498" stroke-linecap="round" stroke-linejoin="round"/>
    <path d="M 145.62875366210938 249.2447967529297 C 159.2374267578125 279.55706787109375 145.87413024902344 254.85813903808594 144.6434783935547 247.39158630371094 C 137.6365509033203 246.37254333496094 129.71543884277344 252.33865356445312 138.28909301757812 245.6595458984375 C 137.828125 245.9003143310547 143.5645294189453 242.67083740234375 143.72018432617188 243.99864196777344 C 146.961669921875 209.64529418945312 147.0864715576172 210.0528564453125 145.62875366210938 249.2447967529297" stroke-width="0.0" fill="rgb(71, 24, 33)" opacity="0.54535276" stroke="rgb(214, 123, 5)" stroke-opacity="0.08567878" stroke-linecap="round" stroke-linejoin="round"/>
    <path d="M 393.6672058105469 214.74151611328125 C 382.046630859375 221.033203125 393.79571533203125 213.13772583007812 396.8352355957031 212.21694946289062 C 413.3583068847656 211.27174377441406 411.3233947753906 213.57769775390625 407.16094970703125 212.82998657226562 C 407.29644775390625 211.8201904296875 408.58416748046875 214.6900177001953 414.5584411621094 213.25241088867188 C 393.39324951171875 211.8147735595703 392.94989013671875 217.03427124023438 393.6672058105469 214.74151611328125" stroke-width="0.0" fill="rgb(94, 95, 94)" opacity="0.8764869" stroke="rgb(107, 216, 152)" stroke-opacity="0.5667627" stroke-linecap="round" stroke-linejoin="round"/>
    <path d="M 184.551025390625 153.5982208251953 C 152.39781188964844 202.26022338867188 122.54998016357422 184.32205200195312 174.2490692138672 170.39622497558594 C 181.75436401367188 161.03314208984375 166.60598754882812 160.75868225097656 172.30027770996094 157.08682250976562 C 173.40235900878906 157.07781982421875 174.66029357910156 154.97691345214844 170.42977905273438 158.6552276611328 C 176.0814208984375 153.38731384277344 181.2188720703125 153.84750366210938 184.551025390625 153.5982208251953" stroke-width="0.0" fill="rgb(78, 53, 27)" opacity="0.581114" stroke="rgb(198, 170, 205)" stroke-opacity="0.82492363" stroke-linecap="round" stroke-linejoin="round"/>
    <path d="M 268.0517883300781 56.99612808227539 C 277.9414367675781 54.77315902709961 269.781005859375 55.6063232421875 279.6934814453125 57.159420013427734 C 268.62847900390625 54.34286880493164 258.69281005859375 51.39113235473633 257.21405029296875 48.13739776611328 C 262.9642333984375 62.7490348815918 277.74371337890625 55.97405242919922 268.64776611328125 54.09280014038086 C 261.48284912109375 53.717750549316406 265.37933349609375 54.52622985839844 268.0517883300781 56.99612808227539" stroke-width="0.0" fill="rgb(28, 59, 36)" opacity="0.9011134" stroke="rgb(236, 236, 156)" stroke-opacity="0.8634385" stroke-linecap="round" stroke-linejoin="round"/>
    <path d="M 72.98225402832031 284.7429504394531 C 50.384864807128906 289.5887756347656 52.00657653808594 270.5090637207031 59.70997619628906 279.1546936035156 C 47.7160530090332 279.8111877441406 50.169960021972656 299.7539367675781 56.955440521240234 295.4998474121094 C 47.82553482055664 278.63720703125 61.553855895996094 291.78173828125 53.320255279541016 282.1181640625 C 50.605838775634766 290.85260009765625 62.24476623535156 282.35955810546875 72.98225402832031 284.7429504394531" stroke-width="0.0" fill="rgb(185, 182, 166)" opacity="1.0" stroke="rgb(180, 16, 138)" stroke-opacity="0.91440475" stroke-linecap="round" stroke-linejoin="round"/>
    <path d="M 452.78582763671875 238.43597412109375 C 454.9923400878906 197.13153076171875 421.9478454589844 180.1149444580078 436.0271911621094 187.56857299804688 C 462.885986328125 216.89537048339844 450.4716491699219 251.44590759277344 454.2443542480469 234.41773986816406 C 451.8794250488281 244.15090942382812 451.6059265136719 254.426025390625 453.58642578125 239.1844024658203 C 454.2928466796875 238.8619384765625 454.5568542480469 238.3169708251953 452.78582763671875 238.43597412109375" stroke-width="0.0" fill="rgb(56, 53, 54)" opacity="0.7658388" stroke="rgb(104, 211, 117)" stroke-opacity="0.73319536" stroke-linecap="round" stroke-linejoin="round"/>
    <path d="M 288.19879150390625 69.07533264160156 C 315.2807922363281 84.56866455078125 321.2648010253906 93.35212707519531 285.25555419921875 68.27182006835938 C 271.3819885253906 63.24021911621094 272.8845520019531 58.35702896118164 267.9630432128906 58.118995666503906 C 249.81185913085938 45.097042083740234 262.11090087890625 54.56489181518555 277.3818664550781 52.718929290771484 C 278.33447265625 52.40727615356445 279.0523986816406 63.027740478515625 288.19879150390625 69.07533264160156" stroke-width="0.0" fill="rgb(37, 54, 31)" opacity="0.9651726" stroke="rgb(75, 157, 48)" stroke-opacity="0.87144226" stroke-linecap="round" stroke-linejoin="round"/>
    <path d="M 395.2358093261719 141.01763916015625 C 382.1093444824219 119.43383026123047 395.50634765625 147.52903747558594 392.1761169433594 131.08489990234375 C 392.7844543457031 134.23870849609375 385.58404541015625 131.11375427246094 378.0782165527344 134.20985412597656 C 399.9333801269531 128.5298614501953 399.90545654296875 98.42267608642578 398.5193176269531 116.58568572998047 C 387.2120361328125 139.676025390625 388.7178955078125 114.16730499267578 395.2358093261719 141.01763916015625" stroke-width="0.0" fill="rgb(87, 85, 85)" opacity="0.9285419" stroke="rgb(136, 2, 31)" stroke-opacity="0.8804207" stroke-linecap="round" stroke-linejoin="round"/>
    <path d="M 461.91375732421875 279.01959228515625 C 463.95306396484375 297.7851257324219 409.8962707519531 297.1255187988281 428.92919921875 281.9356994628906 C 450.342529296875 271.89263916015625 449.7477722167969 268.93487548828125 444.97900390625 273.43170166015625 C 436.6823425292969 279.2716979980469 439.8793640136719 274.5641784667969 431.702392578125 273.7423095703125 C 437.64208984375 270.45123291015625 451.7783203125 267.2765197753906 461.91375732421875 279.01959228515625" stroke-width="0.0" fill="rgb(95, 135, 126)" opacity="0.16037416" stroke="rgb(122, 214, 148)" stroke-opacity="0.2179993" stroke-linecap="round" stroke-linejoin="round"/>
    <path d="M 318.4054260253906 235.56573486328125 C 315.9159851074219 225.82899475097656 316.6043395996094 235.41168212890625 320.5167236328125 235.25860595703125 C 318.207763671875 235.2083740234375 313.3274230957031 227.7857208251953 295.1802673339844 208.70123291015625 C 263.30859375 192.0823516845703 295.0020446777344 206.2054443359375 306.7279052734375 224.58811950683594 C 312.527587890625 229.9351043701172 315.59515380859375 234.0709228515625 318.4054260253906 235.56573486328125" stroke-width="0.0" fill="rgb(43, 57, 35)" opacity="0.9995285" stroke="rgb(213, 244, 192)" stroke-opacity="0.517511" stroke-linecap="round" stroke-linejoin="round"/>
    <path d="M 442.3110046386719 278.1410827636719 C 410.11419677734375 285.0480041503906 402.6783142089844 282.1165771484375 396.0840759277344 284.25457763671875 C 402.91790771484375 282.4446105957031 410.4508972167969 279.75286865234375 417.32452392578125 285.0192565917969 C 406.1954345703125 276.8520812988281 396.745361328125 289.07135009765625 376.63323974609375 281.28997802734375 C 369.32562255859375 290.1719970703125 443.8458251953125 282.6517028808594 442.3110046386719 278.1410827636719" stroke-width="0.0" fill="rgb(56, 55, 54)" opacity="0.67104185" stroke="rgb(150, 153, 43)" stroke-opacity="0.5845976" stroke-linecap="round" stroke-linejoin="round"/>
    <path d="M 384.3768005371094 116.36369323730469 C 368.34381103515625 119.8895034790039 385.6729431152344 115.7267837524414 356.06158447265625 115.5908203125 C 350.74713134765625 115.34776306152344 377.56085205078125 110.74689483642578 353.26458740234375 112.17716979980469 C 335.7123107910156 119.0638198852539 357.8681335449219 103.96949005126953 375.66510009765625 112.59671020507812 C 374.0672607421875 107.23057556152344 374.3399658203125 117.09942626953125 384.3768005371094 116.36369323730469" stroke-width="0.0" fill="rgb(108, 107, 107)" opacity="0.99634033" stroke="rgb(202, 10, 5)" stroke-opacity="0.09760793" stroke-linecap="round" stroke-linejoin="round"/>
    <path d="M 66.92967987060547 291.7323913574219 C 51.55357360839844 282.5794372558594 47.433265686035156 288.50518798828125 80.4112548828125 298.0508728027344 C 84.5660171508789 309.90838623046875 46.217689514160156 297.2785949707031 49.10404968261719 285.9178771972656 C 65.45531463623047 288.5610046386719 57.36866760253906 288.2518615722656 56.11473846435547 284.93133544921875 C 76.06826782226562 287.3307189941406 78.26522827148438 286.62799072265625 66.92967987060547 291.7323913574219" stroke-width="0.0" fill="rgb(184, 200, 194)" opacity="1.0" stroke="rgb(84, 86, 60)" stroke-opacity="0.06604163" stroke-linecap="round" stroke-linejoin="round"/>
    <path d="M 390.9228210449219 173.2106170654297 C 388.3968505859375 127.236572265625 396.546630859375 141.08847045898438 392.5379333496094 144.5885772705078 C 392.92193603515625 135.6835479736328 386.0528869628906 137.7349853515625 384.3595886230469 138.84939575195312 C 396.2160339355469 140.88888549804688 395.9145202636719 143.86334228515625 389.5060729980469 137.75619506835938 C 395.8787536621094 135.09056091308594 397.0164489746094 131.19699096679688 390.9228210449219 173.2106170654297" stroke-width="0.0" fill="rgb(94, 92, 91)" opacity="0.7263321" stroke="rgb(227, 52, 95)" stroke-opacity="0.58814985" stroke-linecap="round" stroke-linejoin="round"/>
    <path d="M 87.65020751953125 301.1693115234375 C 101.07281494140625 297.85064697265625 91.31771850585938 309.1452941894531 82.43854522705078 306.3007507324219 C 56.131736755371094 302.6272888183594 38.217124938964844 289.8575744628906 51.26001739501953 284.4263610839844 C 74.04859161376953 303.8161315917969 97.4021224975586 294.1084289550781 101.66290283203125 303.1520690917969 C 80.02165985107422 299.4588623046875 83.00996398925781 300.19500732421875 87.65020751953125 301.1693115234375" stroke-width="0.0" fill="rgb(222, 196, 158)" opacity="0.83753616" stroke="rgb(253, 90, 84)" stroke-opacity="0.21375257" stroke-linecap="round" stroke-linejoin="round"/>
    <path d="M 445.2046203613281 164.68838500976562 C 439.72271728515625 154.9617462158203 455.44482421875 167.5922393798828 452.7841491699219 153.66098022460938 C 448.8674621582031 155.8201141357422 427.09893798828125 148.06443786621094 463.7063293457031 201.97373962402344 C 434.7431335449219 171.0102081298828 434.53094482421875 139.26268005371094 455.7690734863281 127.9852294921875 C 434.9018859863281 142.3140106201172 444.59869384765625 164.4829864501953 445.2046203613281 164.68838500976562" stroke-width="0.0" fill="rgb(59, 57, 57)" opacity="0.6659716" stroke="rgb(172, 135, 230)" stroke-opacity="0.10466042" stroke-linecap="round" stroke-linejoin="round"/>
    <path d="M 320.2408447265625 76.63306427001953 C 319.05712890625 51.65105056762695 306.0692138671875 46.548702239990234 319.066650390625 31.408748626708984 C 317.60546875 34.766441345214844 312.6517333984375 39.92974853515625 315.1090393066406 53.707096099853516 C 315.2362976074219 45.35810089111328 314.2300720214844 45.249595642089844 314.96124267578125 47.49836730957031 C 310.4748229980469 45.57426071166992 310.9840087890625 40.87030792236328 320.2408447265625 76.63306427001953" stroke-width="0.0" fill="rgb(18, 51, 30)" opacity="0.83884645" stroke="rgb(196, 198, 66)" stroke-opacity="0.09255308" stroke-linecap="round" stroke-linejoin="round"/>
    <path d="M 267.0 95.0 C 266.33013916015625 97.5 264.5 99.33012390136719 262.0 100.0 C 259.5 99.33012390136719 257.66986083984375 97.5 257.0 95.0 C 257.66986083984375 92.5 259.5 90.66987609863281 262.0 90.0 C 264.5 90.66987609863281 266.33013916015625 92.5 267.0 95.0" stroke-width="0.0" fill="rgb(199, 94, 60)" opacity="1.0" stroke="rgb(8, 173, 80)" stroke-opacity="0.62809455" stroke-linecap="round" stroke-linejoin="round"/>
  </g>
</svg>
