<?xml version="1.0" ?>
<svg xmlns="http://www.w3.org/2000/svg" version="1.1" width="512" height="352">
  <defs/>
  <g>
    <path d="M 133.845947265625 223.94879150390625 C 138.511962890625 244.1265411376953 140.34228515625 248.4146270751953 112.39613342285156 247.3853759765625 C 78.0634765625 236.51622009277344 75.30815124511719 236.58006286621094 54.95043182373047 226.57220458984375 C 57.59757614135742 184.1220245361328 58.14776611328125 186.60836791992188 97.87435150146484 176.460205078125 C 137.9117889404297 174.75213623046875 136.67750549316406 176.02151489257812 133.845947265625 223.94879150390625" stroke-width="0.0" fill="rgb(216, 181, 145)" opacity="0.46289757" stroke="rgb(145, 168, 160)" stroke-opacity="0.9252577" stroke-linecap="round" stroke-linejoin="round"/>
    <path d="M 200.0 205.0 C 199.3301239013672 207.5 197.5 209.3301239013672 195.0 210.0 C 192.5 209.3301239013672 190.6698760986328 207.5 190.0 205.0 C 190.6698760986328 202.5 192.5 200.6698760986328 195.0 200.0 C 197.5 200.6698760986328 199.3301239013672 202.5 200.0 205.0" stroke-width="0.0" fill="rgb(101, 132, 110)" opacity="1.0" stroke="rgb(77, 212, 95)" stroke-opacity="0.06367725" stroke-linecap="round" stroke-linejoin="round"/>
    <path d="M 283.0 217.0 C 282.33013916015625 219.5 280.5 221.3301239013672 278.0 222.0 C 275.5 221.3301239013672 273.66986083984375 219.5 273.0 217.0 C 273.66986083984375 214.5 275.5 212.6698760986328 278.0 212.0 C 280.5 212.6698760986328 282.33013916015625 214.5 283.0 217.0" stroke-width="0.0" fill="rgb(108, 145, 150)" opacity="1.0" stroke="rgb(243, 246, 138)" stroke-opacity="0.6706982" stroke-linecap="round" stroke-linejoin="round"/>
  </g>
</svg>
