<?xml version="1.0" ?>
<svg xmlns="http://www.w3.org/2000/svg" version="1.1" width="303" height="512">
  <defs/>
  <g>
    <path d="M 0.0 0.0 L 303.0 0.0 L 303.0 512.0 L 0.0 512.0 L 0.0 0.0" stroke-width="0.0" fill="rgb(255, 255, 255)" opacity="1.0" stroke="rgb(0, 0, 0)" stroke-opacity="0.0" stroke-linecap="round" stroke-linejoin="round"/>
    <path d="M 1.0 0.0 L 0.0 511.0 L 302.0 511.0 L 302.0 0.0 L 1.0 0.0" stroke-width="2.0" fill="rgb(255, 255, 255)" opacity="1.0" stroke="rgb(0, 0, 0)" stroke-opacity="0.0" stroke-linecap="round" stroke-linejoin="round"/>
    <path d="M 140.0 1.0 C 100.05978393554688 1.930945634841919 56.9468994140625 55.018314361572266 60.0 91.0 L 60.0 176.0 C 42.08946228027344 175.69833374023438 2.512049674987793 172.60031127929688 2.0 202.0 C 17.51816749572754 222.07203674316406 41.19766616821289 217.74267578125 60.0 219.0 C 68.00110626220703 276.3333435058594 44.205326080322266 333.6666564941406 75.0 391.0 C 86.0 403.6958923339844 97.0 409.94989013671875 108.0 413.0 C 110.6382064819336 444.3404235839844 110.70470428466797 480.9905090332031 131.0 509.0 C 143.8011474609375 486.3333435058594 143.90927124023438 463.6666564941406 151.0 441.0 C 159.0453338623047 463.0137023925781 156.5477294921875 490.3149108886719 173.0 509.0 C 189.85166931152344 477.3333435058594 191.65647888183594 445.6666564941406 194.0 414.0 C 217.23800659179688 406.8022155761719 238.7782440185547 380.49969482421875 241.0 359.0 L 242.0 219.0 C 260.3661193847656 217.3800048828125 293.8826904296875 222.77243041992188 301.0 195.0 C 286.6227722167969 170.87901306152344 261.17059326171875 178.3682403564453 242.0 175.0 C 236.30210876464844 122.63355255126953 261.6198425292969 67.71143341064453 203.0 17.0 C 182.3333282470703 3.4785473346710205 161.6666717529297 -0.38447627425193787 140.0 1.0" stroke-width="2.0" fill="rgb(98, 102, 109)" opacity="1.0" stroke="rgb(0, 0, 0)" stroke-opacity="0.0" stroke-linecap="round" stroke-linejoin="round"/>
    <path d="M 91.0 100.0 C 90.87294006347656 115.56452941894531 105.43284606933594 107.20474243164062 115.0 109.0 C 139.0 122.14408874511719 163.0 122.2557373046875 187.0 109.0 C 200.0111846923828 111.72586822509766 215.80355834960938 108.59638214111328 206.0 92.0 C 182.59017944335938 102.83938598632812 159.09349060058594 70.34114074707031 138.0 88.0 C 123.33333587646484 89.13787841796875 108.66666412353516 96.2784423828125 94.0 93.0 L 91.0 100.0" stroke-width="2.0" fill="rgb(104, 105, 109)" opacity="1.0" stroke="rgb(0, 0, 0)" stroke-opacity="0.0" stroke-linecap="round" stroke-linejoin="round"/>
    <path d="M 151.0 443.0 C 147.09292602539062 465.6666564941406 143.7146759033203 488.3333435058594 132.0 511.0 L 170.0 511.0 C 158.82835388183594 488.6666564941406 154.23463439941406 466.3333435058594 151.0 443.0" stroke-width="2.0" fill="rgb(250, 250, 251)" opacity="1.0" stroke="rgb(0, 0, 0)" stroke-opacity="0.0" stroke-linecap="round" stroke-linejoin="round"/>
    <path d="M 105.0 59.0 C 77.89196014404297 85.46794128417969 139.0590057373047 93.14273071289062 123.0 63.0 C 117.33333587646484 56.854209899902344 111.66666412353516 57.150577545166016 105.0 59.0" stroke-width="2.0" fill="rgb(51, 47, 50)" opacity="1.0" stroke="rgb(0, 0, 0)" stroke-opacity="0.0" stroke-linecap="round" stroke-linejoin="round"/>
    <path d="M 189.0 58.0 C 157.32595825195312 76.48224639892578 212.94573974609375 99.0426254272461 206.0 66.0 C 202.0221710205078 59.01093673706055 195.45147705078125 57.018280029296875 189.0 58.0" stroke-width="2.0" fill="rgb(50, 47, 49)" opacity="1.0" stroke="rgb(0, 0, 0)" stroke-opacity="0.0" stroke-linecap="round" stroke-linejoin="round"/>
    <path d="M 89.0 163.0 C 60.33522415161133 182.58544921875 113.20917510986328 200.30462646484375 105.0 170.0 C 101.71340942382812 162.84378051757812 94.87352752685547 162.26058959960938 89.0 163.0" stroke-width="2.0" fill="rgb(167, 170, 175)" opacity="1.0" stroke="rgb(0, 0, 0)" stroke-opacity="0.0" stroke-linecap="round" stroke-linejoin="round"/>
    <path d="M 178.0 375.0 C 149.4293975830078 392.5963439941406 201.0772247314453 413.2615051269531 194.0 382.0 C 190.71340942382812 375.4029541015625 183.87353515625 374.306884765625 178.0 375.0" stroke-width="2.0" fill="rgb(168, 171, 176)" opacity="1.0" stroke="rgb(0, 0, 0)" stroke-opacity="0.0" stroke-linecap="round" stroke-linejoin="round"/>
    <path d="M 141.0 84.0 C 131.49107360839844 103.53557586669922 172.16647338867188 103.1390151977539 159.0 83.0 C 153.3333282470703 82.34701538085938 147.6666717529297 80.3866958618164 141.0 84.0" stroke-width="2.0" fill="rgb(34, 31, 32)" opacity="1.0" stroke="rgb(0, 0, 0)" stroke-opacity="0.0" stroke-linecap="round" stroke-linejoin="round"/>
    <path d="M 168.0 114.0 C 162.3333282470703 112.85763549804688 156.6666717529297 111.19696044921875 151.0 106.0 C 145.3333282470703 111.33926391601562 139.6666717529297 112.4466552734375 134.0 114.0 C 145.0 123.26327514648438 156.0 122.94463348388672 168.0 114.0" stroke-width="2.0" fill="rgb(33, 30, 32)" opacity="1.0" stroke="rgb(0, 0, 0)" stroke-opacity="0.0" stroke-linecap="round" stroke-linejoin="round"/>
    <path d="M 216.0 364.0 C 195.7274932861328 356.2276611328125 201.80911254882812 394.3194885253906 219.0 377.0 C 220.38546752929688 373.0 221.30926513671875 369.0 216.0 364.0" stroke-width="2.0" fill="rgb(165, 169, 173)" opacity="1.0" stroke="rgb(0, 0, 0)" stroke-opacity="0.0" stroke-linecap="round" stroke-linejoin="round"/>
    <path d="M 150.0 387.0 C 138.60565185546875 405.016845703125 174.78123474121094 399.16192626953125 157.0 386.0 L 150.0 387.0" stroke-width="2.0" fill="rgb(163, 166, 171)" opacity="1.0" stroke="rgb(0, 0, 0)" stroke-opacity="0.0" stroke-linecap="round" stroke-linejoin="round"/>
    <path d="M 76.0 145.0 C 57.15678024291992 165.7849884033203 101.1113052368164 154.31890869140625 76.0 145.0" stroke-width="2.0" fill="rgb(163, 167, 172)" opacity="1.0" stroke="rgb(0, 0, 0)" stroke-opacity="0.0" stroke-linecap="round" stroke-linejoin="round"/>
    <path d="M 115.0 171.0 C 103.97123718261719 187.9522705078125 134.22279357910156 176.1683807373047 115.0 171.0" stroke-width="2.0" fill="rgb(154, 159, 163)" opacity="1.0" stroke="rgb(0, 0, 0)" stroke-opacity="0.0" stroke-linecap="round" stroke-linejoin="round"/>
    <path d="M 190.0 361.0 C 180.3688201904297 378.213134765625 209.44488525390625 363.67413330078125 190.0 361.0" stroke-width="2.0" fill="rgb(157, 162, 166)" opacity="1.0" stroke="rgb(0, 0, 0)" stroke-opacity="0.0" stroke-linecap="round" stroke-linejoin="round"/>
    <path d="M 91.0 100.0 C 98.40068054199219 104.59931945800781 114.28355407714844 100.71644592285156 125.0 102.0 C 115.99425506591797 100.18997955322266 102.67096710205078 100.21476745605469 91.0 100.0" stroke-width="2.0" fill="rgb(44, 46, 51)" opacity="1.0" stroke="rgb(0, 0, 0)" stroke-opacity="0.0" stroke-linecap="round" stroke-linejoin="round"/>
    <path d="M 210.0 100.0 L 176.0 102.0 L 210.0 100.0" stroke-width="2.0" fill="rgb(43, 45, 50)" opacity="1.0" stroke="rgb(0, 0, 0)" stroke-opacity="0.0" stroke-linecap="round" stroke-linejoin="round"/>
    <path d="M 193.0 62.0 C 188.78302001953125 77.64669799804688 209.14822387695312 60.32556915283203 193.0 62.0" stroke-width="2.0" fill="rgb(186, 185, 187)" opacity="1.0" stroke="rgb(0, 0, 0)" stroke-opacity="0.0" stroke-linecap="round" stroke-linejoin="round"/>
    <path d="M 225.0 349.0 C 210.08627319335938 353.48748779296875 233.97708129882812 362.7634582519531 225.0 349.0" stroke-width="2.0" fill="rgb(153, 158, 163)" opacity="1.0" stroke="rgb(0, 0, 0)" stroke-opacity="0.0" stroke-linecap="round" stroke-linejoin="round"/>
    <path d="M 114.0 61.0 C 102.69783782958984 70.43084716796875 127.33804321289062 70.151123046875 114.0 61.0" stroke-width="2.0" fill="rgb(201, 197, 200)" opacity="1.0" stroke="rgb(0, 0, 0)" stroke-opacity="0.0" stroke-linecap="round" stroke-linejoin="round"/>
  </g>
</svg>
