<?xml version="1.0" ?>
<svg xmlns="http://www.w3.org/2000/svg" version="1.1" width="512" height="352">
  <defs/>
  <g>
    <path d="M 142.41049194335938 182.91297912597656 C 160.84825134277344 239.3778076171875 157.03309631347656 249.01177978515625 110.84983825683594 251.8512420654297 C 73.9195785522461 242.41221618652344 71.36998748779297 245.55130004882812 41.498985290527344 240.65972900390625 C 40.26140594482422 199.2476348876953 62.28549575805664 181.53250122070312 96.91293334960938 176.98956298828125 C 130.00584411621094 151.39027404785156 132.8328094482422 153.51515197753906 142.41049194335938 182.91297912597656" stroke-width="0.0" fill="rgb(211, 185, 154)" opacity="1.0" stroke="rgb(33, 132, 159)" stroke-opacity="0.5576314" stroke-linecap="round" stroke-linejoin="round"/>
    <path d="M 231.30807495117188 207.78118896484375 C 210.1044464111328 235.2198028564453 204.1488494873047 251.36941528320312 192.7515869140625 260.071044921875 C 187.54440307617188 226.8338165283203 182.7628631591797 243.0833282470703 175.3407745361328 193.95970153808594 C 176.14840698242188 180.32350158691406 182.9950714111328 202.76409912109375 183.66387939453125 163.4448699951172 C 294.71746826171875 194.1951904296875 238.91236877441406 157.26950073242188 231.30807495117188 207.78118896484375" stroke-width="0.0" fill="rgb(45, 75, 49)" opacity="0.72786516" stroke="rgb(170, 243, 175)" stroke-opacity="0.27084035" stroke-linecap="round" stroke-linejoin="round"/>
    <path d="M 253.72821044921875 264.5931701660156 C 267.2945251464844 137.98435974121094 216.29257202148438 165.8004150390625 218.41317749023438 203.70494079589844 C 229.34515380859375 211.3795928955078 210.4273681640625 168.8184356689453 166.0751495361328 174.66932678222656 C 201.0210723876953 148.615234375 169.3277130126953 130.6435546875 243.20196533203125 151.93923950195312 C 209.4961395263672 -12.168067932128906 299.9596862792969 295.41583251953125 253.72821044921875 264.5931701660156" stroke-width="0.0" fill="rgb(49, 62, 39)" opacity="0.99773204" stroke="rgb(138, 105, 217)" stroke-opacity="0.21634126" stroke-linecap="round" stroke-linejoin="round"/>
    <path d="M 360.40277099609375 46.21512222290039 C 331.8333740234375 44.40309143066406 345.26263427734375 83.00668334960938 328.1105651855469 68.34626007080078 C 295.6757507324219 90.17640686035156 299.29071044921875 95.12982940673828 314.07025146484375 63.9733772277832 C 312.57672119140625 43.689388275146484 311.6860656738281 39.218563079833984 321.2518005371094 27.781837463378906 C 350.435302734375 51.43500518798828 306.3695373535156 39.665218353271484 360.40277099609375 46.21512222290039" stroke-width="0.0" fill="rgb(176, 91, 59)" opacity="1.0" stroke="rgb(135, 92, 173)" stroke-opacity="0.95296943" stroke-linecap="round" stroke-linejoin="round"/>
    <path d="M 320.0439758300781 224.28321838378906 C 334.86920166015625 251.8128662109375 335.34698486328125 244.21192932128906 272.16705322265625 228.4683074951172 C 266.8155822753906 241.22401428222656 253.0162353515625 208.87069702148438 263.3450012207031 205.12939453125 C 256.64288330078125 187.23809814453125 278.6905212402344 201.17376708984375 277.3914489746094 196.0046844482422 C 286.2702331542969 164.50106811523438 317.52423095703125 190.27459716796875 320.0439758300781 224.28321838378906" stroke-width="0.0" fill="rgb(97, 126, 123)" opacity="1.0" stroke="rgb(156, 212, 138)" stroke-opacity="0.3221882" stroke-linecap="round" stroke-linejoin="round"/>
    <path d="M 334.7302551269531 57.64744567871094 C 315.4291687011719 83.69674682617188 279.56671142578125 104.10733795166016 299.91949462890625 106.8201904296875 C 228.40545654296875 134.79513549804688 290.55133056640625 127.53128814697266 252.15048217773438 64.23554229736328 C 308.51806640625 27.107383728027344 295.103271484375 79.40790557861328 301.2906799316406 33.37651443481445 C 314.0412292480469 37.309288024902344 312.0976867675781 62.95284652709961 334.7302551269531 57.64744567871094" stroke-width="0.0" fill="rgb(143, 78, 47)" opacity="0.8580271" stroke="rgb(25, 126, 28)" stroke-opacity="0.2881396" stroke-linecap="round" stroke-linejoin="round"/>
    <path d="M 477.2618713378906 224.328125 C 473.8087463378906 206.43743896484375 486.9197692871094 271.1627197265625 432.6188659667969 266.5478820800781 C 485.0782165527344 279.06903076171875 478.6177978515625 199.75450134277344 477.16925048828125 236.150146484375 C 476.5158996582031 226.95703125 487.7528381347656 204.40435791015625 448.2208557128906 162.01112365722656 C 480.5030212402344 209.66864013671875 472.2870178222656 199.0948944091797 477.2618713378906 224.328125" stroke-width="0.0" fill="rgb(23, 15, 18)" opacity="0.5948864" stroke="rgb(210, 10, 61)" stroke-opacity="0.5139146" stroke-linecap="round" stroke-linejoin="round"/>
    <path d="M 473.8134460449219 249.1966552734375 C 438.3699645996094 275.5384826660156 437.45831298828125 272.77655029296875 445.58746337890625 279.6494445800781 C 388.6507873535156 290.0852355957031 386.1019287109375 287.5289001464844 318.6016540527344 271.8184509277344 C 345.1031799316406 244.94964599609375 373.324951171875 245.81826782226562 385.5609130859375 228.48776245117188 C 388.1678466796875 238.97866821289062 390.4842529296875 245.50335693359375 473.8134460449219 249.1966552734375" stroke-width="0.0" fill="rgb(84, 74, 80)" opacity="0.3983903" stroke="rgb(115, 140, 142)" stroke-opacity="0.3049261" stroke-linecap="round" stroke-linejoin="round"/>
    <path d="M 453.79754638671875 247.14813232421875 C 399.6665954589844 246.85240173339844 399.15264892578125 228.3965606689453 384.07354736328125 253.35606384277344 C 329.254150390625 261.7936706542969 349.69183349609375 272.4029846191406 349.3582763671875 225.79278564453125 C 331.8172302246094 194.2930145263672 358.466064453125 186.6128387451172 343.95123291015625 163.49655151367188 C 428.05340576171875 170.4026336669922 456.3548889160156 185.71934509277344 453.79754638671875 247.14813232421875" stroke-width="0.0" fill="rgb(142, 136, 139)" opacity="0.6290656" stroke="rgb(114, 48, 84)" stroke-opacity="0.26573107" stroke-linecap="round" stroke-linejoin="round"/>
    <path d="M 262.9012145996094 163.38844299316406 C 158.62254333496094 242.12611389160156 205.6470489501953 169.0240936279297 171.6380157470703 172.5041961669922 C 189.13278198242188 158.81199645996094 152.61497497558594 160.3412322998047 186.52842712402344 152.53451538085938 C 184.7907257080078 143.54025268554688 175.3187255859375 144.57907104492188 204.2550048828125 141.1281280517578 C 201.93324279785156 120.9726791381836 217.0697021484375 142.2340087890625 262.9012145996094 163.38844299316406" stroke-width="0.0" fill="rgb(109, 134, 114)" opacity="1.0" stroke="rgb(96, 11, 150)" stroke-opacity="0.98247635" stroke-linecap="round" stroke-linejoin="round"/>
    <path d="M 425.7062683105469 181.46788024902344 C 389.8777770996094 165.63250732421875 418.4706115722656 182.26686096191406 390.12841796875 192.37916564941406 C 379.29742431640625 193.2288818359375 402.816650390625 192.44602966308594 395.9864196777344 171.75360107421875 C 385.2741394042969 176.4524383544922 407.89434814453125 90.7700424194336 381.88140869140625 170.47921752929688 C 432.2281799316406 169.4749755859375 448.7813720703125 202.1362762451172 425.7062683105469 181.46788024902344" stroke-width="0.0" fill="rgb(78, 76, 76)" opacity="0.76362693" stroke="rgb(206, 61, 6)" stroke-opacity="0.9672725" stroke-linecap="round" stroke-linejoin="round"/>
    <path d="M 89.88634490966797 203.28724670410156 C 89.73221588134766 202.94415283203125 77.8279800415039 209.71881103515625 64.2529296875 207.59335327148438 C 47.826751708984375 200.0895538330078 61.548187255859375 188.9191131591797 43.326202392578125 216.8791046142578 C 56.79730224609375 172.7547607421875 106.94740295410156 176.4107208251953 68.20136260986328 186.6340789794922 C 49.96713638305664 192.62362670898438 83.15203094482422 205.92115783691406 89.88634490966797 203.28724670410156" stroke-width="0.0" fill="rgb(158, 106, 94)" opacity="1.0" stroke="rgb(189, 72, 84)" stroke-opacity="0.87099284" stroke-linecap="round" stroke-linejoin="round"/>
    <path d="M 327.6734313964844 129.8993682861328 C 331.5343322753906 145.9567413330078 313.95965576171875 127.21906280517578 330.5971984863281 153.40179443359375 C 368.58868408203125 176.2532501220703 329.0086975097656 158.78196716308594 324.4040222167969 146.91897583007812 C 316.3741455078125 125.72279357910156 324.6832580566406 131.7032470703125 334.5458984375 125.03507995605469 C 363.178466796875 95.95660400390625 338.2973327636719 128.17779541015625 327.6734313964844 129.8993682861328" stroke-width="0.0" fill="rgb(34, 29, 30)" opacity="0.6683753" stroke="rgb(243, 95, 74)" stroke-opacity="0.30625865" stroke-linecap="round" stroke-linejoin="round"/>
    <path d="M 393.61029052734375 132.91119384765625 C 390.3702087402344 196.85877990722656 381.6679992675781 195.1322479248047 363.3677673339844 156.14614868164062 C 337.18408203125 137.3372344970703 329.3825988769531 149.38795471191406 330.39013671875 128.968994140625 C 344.3346252441406 120.8380126953125 344.3692932128906 109.07186889648438 363.5482177734375 110.5743179321289 C 379.1800842285156 92.49079132080078 388.85595703125 97.89306640625 393.61029052734375 132.91119384765625" stroke-width="0.0" fill="rgb(165, 163, 165)" opacity="0.8192864" stroke="rgb(200, 0, 219)" stroke-opacity="0.2124021" stroke-linecap="round" stroke-linejoin="round"/>
    <path d="M 145.9664306640625 131.96299743652344 C 130.0926513671875 112.81627655029297 105.51451110839844 167.59793090820312 125.03661346435547 128.63377380371094 C 91.77798461914062 152.3392791748047 97.5119400024414 174.42324829101562 95.3806381225586 147.90512084960938 C 101.33428192138672 122.28378295898438 119.05714416503906 118.47468566894531 133.22373962402344 121.94378662109375 C 134.44760131835938 121.88926696777344 161.5792236328125 131.03515625 145.9664306640625 131.96299743652344" stroke-width="0.0" fill="rgb(131, 28, 0)" opacity="0.5163756" stroke="rgb(248, 81, 157)" stroke-opacity="0.9413752" stroke-linecap="round" stroke-linejoin="round"/>
  </g>
</svg>
