<?xml version="1.0" ?>
<svg xmlns="http://www.w3.org/2000/svg" version="1.1" width="512" height="352">
  <defs/>
  <g>
    <path d="M 141.93209838867188 179.88763427734375 C 154.3854217529297 238.69371032714844 150.93243408203125 242.66490173339844 101.9776382446289 242.9510498046875 C 73.9275894165039 243.01895141601562 71.38726806640625 244.48245239257812 46.238525390625 239.5740203857422 C 40.684776306152344 198.09629821777344 61.48341369628906 181.7970428466797 98.47488403320312 176.6446075439453 C 140.56646728515625 159.701171875 133.5162353515625 157.11695861816406 141.93209838867188 179.88763427734375" stroke-width="0.0" fill="rgb(215, 182, 147)" opacity="0.83969116" stroke="rgb(33, 132, 159)" stroke-opacity="0.5576314" stroke-linecap="round" stroke-linejoin="round"/>
    <path d="M 229.2755126953125 210.77963256835938 C 216.11631774902344 226.4335174560547 211.6461944580078 239.0704345703125 193.08717346191406 261.03759765625 C 189.32388305664062 232.0891571044922 181.8773193359375 238.44422912597656 175.98846435546875 196.90765380859375 C 173.08917236328125 183.72511291503906 185.32687377929688 197.88128662109375 183.69580078125 165.76673889160156 C 268.78900146484375 175.82489013671875 247.28048706054688 153.2796630859375 229.2755126953125 210.77963256835938" stroke-width="0.0" fill="rgb(65, 91, 68)" opacity="0.8278797" stroke="rgb(170, 243, 175)" stroke-opacity="0.27084035" stroke-linecap="round" stroke-linejoin="round"/>
    <path d="M 256.3043212890625 267.9412841796875 C 256.30194091796875 134.98594665527344 245.85720825195312 185.233154296875 211.2454833984375 220.768310546875 C 197.09986877441406 225.1497802734375 210.01307678222656 167.12173461914062 166.24595642089844 174.79910278320312 C 199.20811462402344 149.00296020507812 169.6554412841797 127.42002868652344 243.52822875976562 153.12261962890625 C 211.70199584960938 4.826601028442383 296.19818115234375 269.9217529296875 256.3043212890625 267.9412841796875" stroke-width="0.0" fill="rgb(77, 95, 76)" opacity="1.0" stroke="rgb(138, 105, 217)" stroke-opacity="0.21634126" stroke-linecap="round" stroke-linejoin="round"/>
  </g>
</svg>
