<?xml version="1.0" ?>
<svg xmlns="http://www.w3.org/2000/svg" version="1.1" width="412" height="512">
  <defs/>
  <g>
    <path d="M 2.2495369911193848 -0.41745883226394653 L 409.9486999511719 -0.27910587191581726 L 409.8638610839844 510.8255920410156 L 2.2080557346343994 510.7613830566406 L 2.2495369911193848 -0.41745883226394653" stroke-width="0.0" fill="rgb(37, 32, 58)" opacity="0.94880354" stroke="rgb(0, 0, 0)" stroke-opacity="0.0" stroke-linecap="round" stroke-linejoin="round"/>
    <path d="M 148.71832275390625 -0.16566134989261627 C 110.87073516845703 11.731121063232422 68.51148986816406 46.402984619140625 53.603248596191406 84.7276611328125 C 29.7913875579834 143.97201538085938 31.913406372070312 203.0396728515625 77.09039306640625 260.6775207519531 C 83.59593963623047 266.77520751953125 89.40364837646484 275.6849670410156 94.79051971435547 279.8898620605469 C 96.14871978759766 279.7462463378906 93.26119232177734 282.3422546386719 96.0167236328125 284.98089599609375 L 125.82759094238281 308.39630126953125 C 130.8388671875 312.1249084472656 124.72991180419922 315.77947998046875 129.99075317382812 320.94305419921875 C 188.4847869873047 349.63104248046875 243.66537475585938 396.46820068359375 301.81488037109375 450.1999816894531 C 288.3944091796875 414.5057373046875 260.623291015625 379.636474609375 234.21315002441406 354.8004455566406 C 233.8517303466797 349.66802978515625 222.5206756591797 348.9032287597656 223.98233032226562 343.2977294921875 C 202.0363311767578 328.9278869628906 223.4895782470703 310.0801086425781 222.28317260742188 292.291259765625 C 223.75643920898438 289.4514465332031 221.6249237060547 284.9881591796875 223.1682586669922 285.3623046875 C 234.7852783203125 295.21044921875 246.18319702148438 304.4496154785156 262.01519775390625 318.3590393066406 C 266.369873046875 321.4432373046875 277.7263488769531 309.277587890625 285.0633544921875 308.0205078125 C 297.540771484375 315.09521484375 307.1769714355469 331.1528625488281 323.4145812988281 336.0528564453125 C 315.25897216796875 320.7887268066406 298.8501892089844 311.6947021484375 291.1234130859375 303.4050598144531 C 329.08331298828125 278.30438232421875 353.4261474609375 239.50640869140625 362.29248046875 204.6326904296875 C 376.32275390625 151.59201049804688 368.56884765625 95.16463470458984 324.27191162109375 40.250389099121094 C 303.8765563964844 20.283355712890625 285.8310852050781 10.83672046661377 264.3436279296875 0.6662634015083313 C 227.70054626464844 -6.129122257232666 188.07662963867188 -0.42348164319992065 148.71832275390625 -0.16566134989261627" stroke-width="2.0" fill="rgb(280, 251, 181)" opacity="0.7705563" stroke="rgb(0, 0, 0)" stroke-opacity="0.0" stroke-linecap="round" stroke-linejoin="round"/>
    <path d="M -0.3695240914821625 300.28692626953125 L -0.33444762229919434 513.078857421875 L 410.25543212890625 513.0863647460938 C 408.2512512207031 497.33856201171875 412.02459716796875 483.66326904296875 413.5238952636719 464.1202087402344 L 307.3665771484375 426.6601257324219 L 292.7140808105469 434.00897216796875 L 307.7342529296875 455.8187561035156 C 309.7626953125 453.5532531738281 309.0108337402344 456.8271789550781 311.2064208984375 453.5508117675781 C 255.31297302246094 402.3206787109375 193.4742889404297 348.605224609375 131.55235290527344 317.46405029296875 C 127.85810852050781 315.1354064941406 131.3076171875 311.9562072753906 128.63951110839844 307.6270446777344 L 89.70270538330078 280.05230712890625 C 73.82518768310547 277.5431213378906 58.38986587524414 274.54315185546875 38.66248321533203 274.8589172363281 C 26.47233772277832 286.4051513671875 13.923192024230957 295.90435791015625 -0.3695240914821625 300.28692626953125" stroke-width="2.0" fill="rgb(25, 15, 39)" opacity="1.005082" stroke="rgb(0, 0, 0)" stroke-opacity="0.0" stroke-linecap="round" stroke-linejoin="round"/>
    <path d="M 191.82081604003906 58.30023193359375 C 167.2110137939453 63.30677032470703 128.1271514892578 93.68794250488281 130.01998901367188 124.88504791259766 L 123.25719451904297 121.002685546875 C 135.18341064453125 122.52274322509766 122.55865478515625 132.56529235839844 127.97421264648438 144.39889526367188 C 133.83653259277344 151.41830444335938 140.6304168701172 154.51783752441406 148.714599609375 158.33668518066406 C 143.61402893066406 191.00576782226562 133.989013671875 231.0959930419922 120.857666015625 266.7135314941406 C 119.27664184570312 279.7386779785156 100.2708969116211 255.85665893554688 106.30895233154297 268.05975341796875 C 101.74007415771484 272.6499938964844 93.58773803710938 279.1259765625 94.33883666992188 284.16162109375 L 126.99555206298828 307.9329528808594 C 132.07041931152344 312.0420837402344 125.34893035888672 315.8953857421875 130.84103393554688 319.1534118652344 C 160.00877380371094 332.87957763671875 189.89401245117188 355.99346923828125 219.28219604492188 376.88397216796875 C 248.67324829101562 398.1239318847656 274.62664794921875 424.9211120605469 304.3872375488281 451.3297424316406 C 289.2781982421875 409.5715026855469 261.49407958984375 373.9135437011719 228.9434356689453 343.1380920410156 C 227.68994140625 339.6007995605469 223.37387084960938 341.5733642578125 220.94863891601562 336.36212158203125 L 217.50021362304688 333.2749938964844 C 221.3020477294922 315.3836975097656 226.6709747314453 294.9726257324219 220.16795349121094 273.07855224609375 C 226.45782470703125 265.6529846191406 231.05517578125 268.7147521972656 233.49362182617188 266.5345153808594 C 235.39601135253906 256.10491943359375 229.578125 247.8802490234375 242.0578155517578 240.76258850097656 C 256.0914001464844 243.14552307128906 270.4014892578125 262.9240417480469 284.24920654296875 249.0422821044922 C 277.35919189453125 239.3354949951172 280.3112487792969 239.67669677734375 288.1442565917969 232.29559326171875 C 292.1395263671875 225.67254638671875 285.4003601074219 224.42080688476562 282.0643310546875 222.84320068359375 L 296.7093505859375 210.60635375976562 C 285.0823059082031 197.14637756347656 309.0035705566406 199.8883514404297 309.5598449707031 189.7911376953125 C 306.7358703613281 182.97105407714844 301.3407287597656 178.45330810546875 303.86956787109375 173.6980743408203 C 324.1676940917969 160.22406005859375 315.9590759277344 150.77041625976562 316.679443359375 135.43763732910156 C 313.1316223144531 109.86573028564453 296.73699951171875 80.6560287475586 267.5518798828125 64.97932434082031 C 242.59671020507812 51.80830764770508 216.90435791015625 49.096771240234375 191.82081604003906 58.30023193359375" stroke-width="2.0" fill="rgb(60, 29, 47)" opacity="1.0507194" stroke="rgb(0, 0, 0)" stroke-opacity="0.0" stroke-linecap="round" stroke-linejoin="round"/>
    <path d="M 264.53460693359375 1.2466824054718018 C 311.4543762207031 15.982831954956055 348.2703857421875 63.08771514892578 359.9369812011719 105.06420135498047 C 376.3304138183594 155.43148803710938 371.3684387207031 214.71852111816406 328.8797607421875 270.7588806152344 C 318.4340515136719 280.3461608886719 310.0555419921875 289.8873291015625 299.59161376953125 296.5782165527344 C 296.2047119140625 300.3191833496094 290.5161437988281 301.2908630371094 292.8005676269531 305.6169738769531 C 326.18963623046875 337.02777099609375 355.875 362.30560302734375 386.59161376953125 394.4095458984375 C 389.7925109863281 393.42034912109375 387.3514404296875 395.42340087890625 382.0753479003906 396.5567321777344 C 383.42279052734375 398.386474609375 389.0035705566406 403.2025451660156 379.58447265625 404.5828857421875 C 384.0272521972656 410.9122009277344 382.5169982910156 411.322021484375 376.2688293457031 411.28497314453125 C 377.07861328125 419.46697998046875 378.7771301269531 428.046630859375 370.3331298828125 426.67095947265625 C 373.8462219238281 434.4283447265625 363.46112060546875 433.8624572753906 363.0025634765625 437.8739318847656 L 349.6164245605469 449.00042724609375 L 412.4173889160156 471.06036376953125 L 413.14630126953125 -3.764939069747925 L 264.53460693359375 1.2466824054718018" stroke-width="2.0" fill="rgb(33, 30, 59)" opacity="0.912616" stroke="rgb(0, 0, 0)" stroke-opacity="0.0" stroke-linecap="round" stroke-linejoin="round"/>
    <path d="M 147.33758544921875 0.6876741051673889 L -0.5063715577125549 -3.488196611404419 L -0.5498626828193665 301.3670349121094 C 17.389841079711914 301.471435546875 31.64456558227539 281.6887512207031 45.65675354003906 275.7425537109375 C 57.26245880126953 276.0289001464844 73.0823974609375 283.7423400878906 95.599365234375 279.5936584472656 C 84.23309326171875 267.8866882324219 68.44149017333984 252.40179443359375 61.79974365234375 238.51712036132812 C 29.504072189331055 180.45692443847656 28.692367553710938 109.52246856689453 76.73223876953125 49.74798583984375 C 99.14790344238281 24.859010696411133 120.59970092773438 10.746193885803223 147.33758544921875 0.6876741051673889" stroke-width="2.0" fill="rgb(34, 31, 58)" opacity="0.97612274" stroke="rgb(0, 0, 0)" stroke-opacity="0.0" stroke-linecap="round" stroke-linejoin="round"/>
    <path d="M 303.5378723144531 429.29315185546875 C 301.4433898925781 440.7677307128906 308.04107666015625 446.720458984375 311.4866027832031 451.9085388183594 L 303.0281066894531 513.0704345703125 L 413.29937744140625 513.0775756835938 L 412.39013671875 468.5882263183594 C 376.8221740722656 454.44512939453125 341.1178283691406 440.473388671875 303.5378723144531 429.29315185546875" stroke-width="2.0" fill="rgb(26, 17, 41)" opacity="0.23063652" stroke="rgb(0, 0, 0)" stroke-opacity="0.0" stroke-linecap="round" stroke-linejoin="round"/>
    <path d="M 129.9914093017578 310.73614501953125 C 127.3653564453125 323.0672607421875 148.86236572265625 324.7136535644531 157.322998046875 332.7544250488281 C 191.94668579101562 353.9821472167969 224.99229431152344 381.4264221191406 258.5736389160156 408.2857666015625 C 276.043212890625 422.04998779296875 287.46783447265625 437.6622009277344 301.9933166503906 446.9464416503906 C 284.8865661621094 414.13983154296875 242.95660400390625 366.733642578125 207.75064086914062 340.4344177246094 C 214.20819091796875 322.9234313964844 216.7003936767578 304.1983337402344 222.53060913085938 284.0053405761719 C 221.40748596191406 277.839599609375 229.85076904296875 268.74139404296875 218.158935546875 263.8817138671875 C 208.64065551757812 282.3441467285156 214.33226013183594 303.7132263183594 195.2591552734375 317.8365783691406 C 189.841064453125 316.2801513671875 183.3251190185547 308.868408203125 171.26187133789062 308.2328186035156 C 172.49220275878906 312.77227783203125 182.2229461669922 315.5736389160156 178.401611328125 317.6055908203125 C 169.26121520996094 319.36431884765625 162.06802368164062 309.7987976074219 157.0852508544922 308.2557678222656 L 129.9914093017578 310.73614501953125" stroke-width="2.0" fill="rgb(177, 41, 70)" opacity="1.0059801" stroke="rgb(0, 0, 0)" stroke-opacity="0.0" stroke-linecap="round" stroke-linejoin="round"/>
    <path d="M 170.25099182128906 100.84248352050781 C 165.4135284423828 115.7665786743164 178.64198303222656 123.14508819580078 191.13059997558594 124.4683609008789 L 210.55250549316406 124.48957824707031 C 205.78347778320312 128.9908905029297 193.8815460205078 134.4109649658203 199.62135314941406 135.19189453125 C 215.2937469482422 134.6007537841797 240.61074829101562 139.4236297607422 249.07737731933594 120.90486907958984 C 251.06948852539062 112.2226791381836 245.54928588867188 105.33889770507812 237.8488311767578 100.58763122558594 C 228.05165100097656 96.1557388305664 218.83851623535156 97.48113250732422 207.7949981689453 97.60372161865234 C 214.14599609375 91.52518463134766 224.61241149902344 88.22479248046875 219.12564086914062 86.7033920288086 C 202.97967529296875 87.63361358642578 180.27369689941406 83.04584503173828 170.25099182128906 100.84248352050781" stroke-width="2.0" fill="rgb(236, 134, 63)" opacity="1.0158949" stroke="rgb(0, 0, 0)" stroke-opacity="0.0" stroke-linecap="round" stroke-linejoin="round"/>
    <path d="M 91.3818588256836 282.8680114746094 C 101.99688720703125 292.26239013671875 116.44515228271484 299.23907470703125 127.44290924072266 308.7523193359375 C 141.1994171142578 310.3242492675781 154.68728637695312 301.7054138183594 168.1103057861328 314.824462890625 L 176.51454162597656 317.06378173828125 C 175.4987335205078 312.6443786621094 168.7205047607422 307.081298828125 167.12054443359375 301.04986572265625 C 147.51527404785156 286.9624938964844 127.35295867919922 274.1920471191406 108.36343383789062 264.13690185546875 C 100.1970443725586 261.75518798828125 100.7012710571289 264.3590087890625 105.06756591796875 267.66363525390625 L 91.3818588256836 282.8680114746094" stroke-width="2.0" fill="rgb(53, 31, 51)" opacity="1.1146722" stroke="rgb(0, 0, 0)" stroke-opacity="0.0" stroke-linecap="round" stroke-linejoin="round"/>
    <path d="M 177.3500213623047 250.7420654296875 L 168.28488159179688 304.42791748046875 L 196.7441864013672 320.7929992675781 C 211.01268005371094 308.329345703125 209.83773803710938 290.5952453613281 213.34710693359375 277.1015930175781 L 177.3500213623047 250.7420654296875" stroke-width="2.0" fill="rgb(141, 30, 61)" opacity="0.8873434" stroke="rgb(0, 0, 0)" stroke-opacity="0.0" stroke-linecap="round" stroke-linejoin="round"/>
    <path d="M 263.31341552734375 68.6374282836914 C 258.013427734375 63.85450744628906 254.6803741455078 59.81676483154297 252.008544921875 57.99021911621094 C 220.4627227783203 46.87116241455078 190.257568359375 51.2620964050293 160.73162841796875 70.4285659790039 L 148.4448699951172 82.53314208984375 C 171.50091552734375 69.41632843017578 188.66749572753906 67.94131469726562 206.86927795410156 69.87256622314453 C 223.75628662109375 67.076904296875 239.9033203125 86.26569366455078 261.524658203125 85.96064758300781 L 263.31341552734375 68.6374282836914" stroke-width="2.0" fill="rgb(103, 29, 53)" opacity="1.0500008" stroke="rgb(0, 0, 0)" stroke-opacity="0.0" stroke-linecap="round" stroke-linejoin="round"/>
    <path d="M 232.4412841796875 159.64625549316406 L 232.2357177734375 180.64816284179688 C 244.18434143066406 188.62857055664062 253.43788146972656 198.82130432128906 249.94964599609375 211.0458526611328 C 255.059814453125 215.94931030273438 257.951171875 219.2770538330078 264.9137878417969 221.0308074951172 C 267.38555908203125 206.47132873535156 269.7808532714844 193.7057647705078 269.6131286621094 181.05003356933594 C 257.2161865234375 174.9063720703125 245.42677307128906 158.59349060058594 232.4412841796875 159.64625549316406" stroke-width="2.0" fill="rgb(25, 15, 36)" opacity="0.9905219" stroke="rgb(0, 0, 0)" stroke-opacity="0.0" stroke-linecap="round" stroke-linejoin="round"/>
    <path d="M 175.7346954345703 242.91502380371094 L 177.65188598632812 249.42726135253906 L 212.00477600097656 274.7906494140625 C 215.1361846923828 271.3944396972656 214.56907653808594 255.0773468017578 224.2707061767578 267.76495361328125 L 232.09567260742188 266.1827087402344 L 203.0597381591797 235.9519805908203 C 195.56271362304688 235.8314208984375 184.50454711914062 234.87350463867188 175.7346954345703 242.91502380371094" stroke-width="2.0" fill="rgb(25, 14, 37)" opacity="0.9961556" stroke="rgb(0, 0, 0)" stroke-opacity="0.0" stroke-linecap="round" stroke-linejoin="round"/>
    <path d="M 89.62609100341797 282.0820007324219 L 91.8176498413086 285.741455078125 L 126.84418487548828 309.4761962890625 L 153.1238250732422 306.7933654785156 L 107.51636505126953 271.6495666503906 L 89.62609100341797 282.0820007324219" stroke-width="2.0" fill="rgb(66, 3, 50)" opacity="0.40233552" stroke="rgb(0, 0, 0)" stroke-opacity="0.0" stroke-linecap="round" stroke-linejoin="round"/>
    <path d="M 164.2289581298828 136.28347778320312 C 160.4241485595703 146.1867218017578 177.14468383789062 142.98574829101562 186.74290466308594 148.34518432617188 C 179.49098205566406 160.4601287841797 194.45553588867188 176.7320556640625 210.91175842285156 166.3872833251953 C 208.19207763671875 156.56703186035156 217.18080139160156 149.8455352783203 205.06253051757812 143.2939453125 C 197.92953491210938 138.52833557128906 191.45045471191406 147.9440155029297 187.19488525390625 143.42282104492188 C 177.49197387695312 139.75157165527344 181.84829711914062 132.23695373535156 174.61184692382812 130.6710205078125 C 172.0902862548828 129.4127197265625 168.7869110107422 132.53689575195312 164.2289581298828 136.28347778320312" stroke-width="2.0" fill="rgb(152, 132, 130)" opacity="0.9921093" stroke="rgb(0, 0, 0)" stroke-opacity="0.0" stroke-linecap="round" stroke-linejoin="round"/>
    <path d="M 282.0432434082031 132.651123046875 C 278.2073059082031 141.27369689941406 275.109130859375 146.04458618164062 269.0565185546875 153.12623596191406 C 279.921875 158.7086639404297 287.89178466796875 176.56634521484375 297.4287414550781 173.46829223632812 C 302.44927978515625 168.2130889892578 311.8099060058594 164.15023803710938 315.9440002441406 154.93214416503906 L 282.0432434082031 132.651123046875" stroke-width="2.0" fill="rgb(68, 32, 58)" opacity="0.98852795" stroke="rgb(0, 0, 0)" stroke-opacity="0.0" stroke-linecap="round" stroke-linejoin="round"/>
    <path d="M 284.6483154296875 306.8258056640625 L 327.250244140625 344.6858215332031 L 386.9965515136719 392.5552062988281 L 292.5061340332031 304.3213195800781 L 284.6483154296875 306.8258056640625" stroke-width="2.0" fill="rgb(266, 245, 198)" opacity="0.7934324" stroke="rgb(0, 0, 0)" stroke-opacity="0.0" stroke-linecap="round" stroke-linejoin="round"/>
    <path d="M 186.30120849609375 146.8847198486328 C 181.54360961914062 158.79200744628906 187.92945861816406 173.2331085205078 203.85194396972656 168.52774047851562 C 218.24522399902344 160.8984832763672 213.23104858398438 137.74591064453125 194.5564727783203 141.5902557373047 L 186.30120849609375 146.8847198486328" stroke-width="2.0" fill="rgb(174, 173, 149)" opacity="0.97753674" stroke="rgb(0, 0, 0)" stroke-opacity="0.0" stroke-linecap="round" stroke-linejoin="round"/>
    <path d="M 271.2313537597656 171.83978271484375 L 270.4159851074219 209.0601806640625 C 291.1005554199219 212.19532775878906 297.9426574707031 199.24208068847656 309.72601318359375 192.6338653564453 C 307.9580383300781 174.26670837402344 294.0430603027344 169.16026306152344 271.2313537597656 171.83978271484375" stroke-width="2.0" fill="rgb(212, 45, 73)" opacity="0.43716207" stroke="rgb(0, 0, 0)" stroke-opacity="0.0" stroke-linecap="round" stroke-linejoin="round"/>
    <path d="M 205.3031005859375 237.27484130859375 L 232.4093780517578 264.708740234375 C 239.0415496826172 258.4693603515625 236.79115295410156 254.73776245117188 233.23880004882812 249.9364776611328 C 241.41256713867188 243.16671752929688 243.14736938476562 238.23423767089844 230.93577575683594 233.21839904785156 C 224.2338104248047 239.47589111328125 215.716064453125 236.7845001220703 205.3031005859375 237.27484130859375" stroke-width="2.0" fill="rgb(125, 31, 58)" opacity="1.0376639" stroke="rgb(0, 0, 0)" stroke-opacity="0.0" stroke-linecap="round" stroke-linejoin="round"/>
    <path d="M 247.6043243408203 229.4203643798828 C 251.81822204589844 234.890380859375 265.96600341796875 241.3384246826172 275.02593994140625 250.8359375 C 288.37945556640625 256.32257080078125 276.2240295410156 242.52105712890625 289.1307678222656 227.0135498046875 C 273.8926086425781 222.32223510742188 261.3448486328125 228.55152893066406 247.6043243408203 229.4203643798828" stroke-width="2.0" fill="rgb(299, 61, 79)" opacity="0.4328045" stroke="rgb(0, 0, 0)" stroke-opacity="0.0" stroke-linecap="round" stroke-linejoin="round"/>
    <path d="M 237.28500366210938 235.95169067382812 C 244.7111053466797 245.17880249023438 261.0999450683594 248.9296417236328 271.0965576171875 254.62600708007812 C 274.68133544921875 255.51953125 275.8585510253906 256.8702392578125 279.5665588378906 252.78897094726562 L 246.4508056640625 230.92471313476562 C 244.88551330566406 229.17034912109375 240.44754028320312 231.63706970214844 237.28500366210938 235.95169067382812" stroke-width="2.0" fill="rgb(27, 14, 34)" opacity="0.9788466" stroke="rgb(0, 0, 0)" stroke-opacity="0.0" stroke-linecap="round" stroke-linejoin="round"/>
    <path d="M 208.906005859375 163.0914306640625 C 219.358154296875 174.75730895996094 235.23196411132812 184.28643798828125 247.8141632080078 196.4559326171875 C 251.07215881347656 202.87962341308594 245.2327880859375 207.54136657714844 251.33755493164062 214.4009246826172 C 258.53759765625 219.93850708007812 267.96392822265625 226.577392578125 274.7359313964844 232.40884399414062 C 268.5008850097656 223.0276336669922 257.7880554199219 220.2677764892578 250.02593994140625 210.2391815185547 L 249.693359375 195.57464599609375 L 208.906005859375 163.0914306640625" stroke-width="2.0" fill="rgb(165, 152, 162)" opacity="1.145647" stroke="rgb(0, 0, 0)" stroke-opacity="0.0" stroke-linecap="round" stroke-linejoin="round"/>
    <path d="M 162.52737426757812 136.33023071289062 C 159.49876403808594 146.6229248046875 175.81198120117188 143.29481506347656 184.82742309570312 146.29598999023438 C 179.16152954101562 137.11480712890625 183.9447479248047 128.18609619140625 171.6576385498047 131.33428955078125 C 168.3835906982422 134.12733459472656 165.15774536132812 132.2267303466797 162.52737426757812 136.33023071289062" stroke-width="2.0" fill="rgb(163, 54, 75)" opacity="1.058541" stroke="rgb(0, 0, 0)" stroke-opacity="0.0" stroke-linecap="round" stroke-linejoin="round"/>
    <path d="M 135.0316925048828 104.7206802368164 C 142.56414794921875 108.90581512451172 155.51760864257812 121.63956451416016 166.71685791015625 130.43052673339844 C 167.9856719970703 131.3983154296875 169.8288116455078 134.05740356445312 170.93675231933594 131.38677978515625 C 158.447021484375 123.15302276611328 145.03712463378906 107.99285888671875 135.0316925048828 104.7206802368164" stroke-width="2.0" fill="rgb(190, 175, 174)" opacity="1.225885" stroke="rgb(0, 0, 0)" stroke-opacity="0.0" stroke-linecap="round" stroke-linejoin="round"/>
    <path d="M 157.7827911376953 307.2417907714844 C 162.86952209472656 311.268310546875 171.8128662109375 317.9566650390625 177.88412475585938 316.9431457519531 C 174.86549377441406 309.8399658203125 164.67434692382812 308.5427551269531 157.7827911376953 307.2417907714844" stroke-width="2.0" fill="rgb(33, 8, 30)" opacity="0.9572247" stroke="rgb(0, 0, 0)" stroke-opacity="0.0" stroke-linecap="round" stroke-linejoin="round"/>
    <path d="M 385.0079650878906 384.932861328125 C 380.49688720703125 387.3111267089844 380.8900146484375 392.4264221191406 378.11566162109375 404.43145751953125 C 393.6080017089844 406.5776672363281 392.8740539550781 385.3064270019531 385.0079650878906 384.932861328125" stroke-width="2.0" fill="rgb(45, 43, 62)" opacity="0.45809323" stroke="rgb(0, 0, 0)" stroke-opacity="0.0" stroke-linecap="round" stroke-linejoin="round"/>
  </g>
</svg>
