<?xml version="1.0" ?>
<svg xmlns="http://www.w3.org/2000/svg" version="1.1" width="508" height="512">
  <defs/>
  <g>
    <path d="M -0.7294881343841553 -0.7203934788703918 L 508.00018310546875 -0.7225688695907593 L 508.0 512.0 L -0.7522357106208801 512.0 L -0.7294881343841553 -0.7203934788703918" stroke-width="0.0" fill="rgb(236, 231, 223)" opacity="1.6024107" stroke="rgb(0, 0, 0)" stroke-opacity="0.0" stroke-linecap="round" stroke-linejoin="round"/>
    <path d="M 5.485781192779541 7.990018844604492 L 5.540450096130371 157.13336181640625 L 9.0416259765625 164.73377990722656 L 95.33614349365234 163.68296813964844 C 97.33222198486328 154.80809020996094 93.46017456054688 145.98968505859375 104.02330780029297 145.7054901123047 C 108.131103515625 134.06373596191406 95.7337875366211 120.6686019897461 109.71389770507812 121.65174102783203 C 113.43245697021484 102.92559051513672 109.44464874267578 87.1771469116211 114.58425903320312 70.13534545898438 L 123.61307525634766 62.47710037231445 C 124.13451385498047 60.118526458740234 124.45332336425781 47.023712158203125 124.27281188964844 54.422306060791016 L 123.64302062988281 62.845726013183594 L 138.09437561035156 74.45065307617188 L 139.47833251953125 121.03240966796875 C 153.78831481933594 121.87281799316406 146.2734375 135.22865295410156 138.0279083251953 152.94151306152344 C 143.631103515625 156.15847778320312 142.8867950439453 160.9140625 143.3529052734375 167.4253387451172 L 263.8273010253906 165.2812042236328 L 269.3511047363281 157.59725952148438 C 268.712890625 145.8273162841797 274.3262023925781 136.6726837158203 282.2507019042969 132.86082458496094 L 285.1310119628906 136.23072814941406 C 289.6199951171875 143.89739990234375 283.94805908203125 153.6824951171875 292.6844787597656 163.73300170898438 L 315.7397155761719 163.32489013671875 C 317.0468444824219 153.78619384765625 323.1883544921875 145.67160034179688 332.9183349609375 138.12538146972656 L 354.43780517578125 127.09156799316406 C 358.03778076171875 119.97662353515625 354.6031799316406 113.98377990722656 355.9952392578125 117.50758361816406 C 357.0028381347656 115.72119140625 355.188232421875 122.54801940917969 356.3805847167969 128.62115478515625 C 370.9132385253906 130.99497985839844 382.76251220703125 138.90042114257812 388.5906066894531 149.958251953125 L 396.2859191894531 160.50277709960938 L 502.4405822753906 160.4556884765625 L 502.46368408203125 8.00240421295166 L 5.485781192779541 7.990018844604492" stroke-width="2.0" fill="rgb(141, 173, 175)" opacity="1.0063702" stroke="rgb(0, 0, 0)" stroke-opacity="0.0" stroke-linecap="round" stroke-linejoin="round"/>
    <path d="M 5.760706901550293 424.033935546875 L 5.249906063079834 505.00189208984375 L 428.7264709472656 505.0090637207031 L 428.70318603515625 500.162841796875 L 486.5771179199219 500.2023620605469 L 487.3228759765625 504.9990234375 L 503.08087158203125 504.9989013671875 L 501.5504455566406 431.2489013671875 L 497.97857666015625 425.441162109375 L 232.36224365234375 425.579345703125 L 232.68682861328125 418.5682373046875 L 86.05123138427734 418.501953125 L 86.63121795654297 430.4666748046875 L 63.75384521484375 430.3017272949219 C 58.58693313598633 421.2535095214844 57.95548629760742 415.5173034667969 50.85336685180664 420.0082702636719 C 44.39606475830078 412.8369445800781 42.2755241394043 423.0540466308594 35.96376419067383 421.69207763671875 L 7.897260665893555 421.5121765136719 L 5.760706901550293 424.033935546875" stroke-width="2.0" fill="rgb(109, 147, 160)" opacity="0.9909998" stroke="rgb(0, 0, 0)" stroke-opacity="0.0" stroke-linecap="round" stroke-linejoin="round"/>
    <path d="M 259.07281494140625 253.16470336914062 L 202.63217163085938 254.88758850097656 C 190.7332763671875 246.4379119873047 180.85096740722656 251.4595184326172 170.34524536132812 250.36131286621094 L 169.568115234375 256.2575378417969 L 169.3519287109375 287.3739318847656 L 169.23654174804688 294.8448181152344 C 156.520263671875 290.8614196777344 145.74452209472656 293.49847412109375 134.48439025878906 292.079345703125 L 131.21519470214844 302.7649230957031 L 118.59061431884766 303.05169677734375 L 104.3179702758789 281.03350830078125 C 90.39207458496094 274.75421142578125 77.69546508789062 273.1885986328125 69.31432342529297 283.5966491699219 L 65.604248046875 315.9293212890625 L 35.489341735839844 316.9508056640625 C 37.024513244628906 310.6783142089844 32.68278503417969 308.3309326171875 30.016878128051758 309.80633544921875 L 11.275267601013184 311.19769287109375 L 4.579261302947998 397.4515380859375 L 21.104524612426758 398.1167907714844 L 20.051176071166992 382.0091247558594 C 19.007150650024414 386.7169189453125 15.375962257385254 384.4208679199219 13.894848823547363 381.2001953125 C 16.028579711914062 376.82769775390625 11.191909790039062 365.078125 13.140946388244629 356.22802734375 C 14.169249534606934 354.9326477050781 23.75774383544922 349.4676513671875 20.777162551879883 368.748291015625 L 43.91666793823242 356.1725769042969 L 42.71308135986328 400.8393249511719 L 240.63648986816406 402.0278015136719 L 242.55044555664062 327.04541015625 C 247.57479858398438 317.6713562011719 258.99267578125 325.3287658691406 272.3492126464844 320.8824768066406 L 267.61676025390625 281.7522888183594 C 253.2909698486328 283.5046081542969 262.340576171875 265.9533386230469 259.07281494140625 253.16470336914062" stroke-width="2.0" fill="rgb(140, 170, 180)" opacity="0.9280735" stroke="rgb(0, 0, 0)" stroke-opacity="0.0" stroke-linecap="round" stroke-linejoin="round"/>
    <path d="M 98.51069641113281 163.4796142578125 L 5.625903129577637 163.6466522216797 L 5.586795330047607 309.0122375488281 C 17.46478843688965 307.10443115234375 29.706315994262695 314.7569580078125 36.6505241394043 303.3179626464844 L 54.31291961669922 303.0786437988281 L 58.616275787353516 291.00054931640625 C 65.95613861083984 280.0560607910156 75.53994750976562 275.9798278808594 85.68364715576172 276.16339111328125 L 98.20982360839844 275.71905517578125 L 98.51069641113281 163.4796142578125" stroke-width="2.0" fill="rgb(230, 201, 182)" opacity="1.2527988" stroke="rgb(0, 0, 0)" stroke-opacity="0.0" stroke-linecap="round" stroke-linejoin="round"/>
    <path d="M 122.6720962524414 58.27263641357422 L 114.10551452636719 73.57313537597656 L 109.16432189941406 119.27986907958984 L 102.0738525390625 122.56815338134766 L 103.4784927368164 145.1775360107422 L 99.8702163696289 146.61569213867188 L 111.33543395996094 272.2491760253906 L 118.7535400390625 281.43865966796875 L 125.04964447021484 297.09735107421875 L 129.50450134277344 298.2737731933594 L 132.5540313720703 289.6863098144531 C 143.08782958984375 288.923828125 154.2911376953125 284.0210266113281 165.0926513671875 289.96734619140625 L 161.69412231445312 290.4427185058594 L 160.3088836669922 251.75872802734375 L 151.2759552001953 250.5912322998047 L 142.17013549804688 152.7888946533203 L 149.0188751220703 145.91873168945312 L 149.62081909179688 122.49073028564453 L 139.4449005126953 119.43885803222656 L 138.93414306640625 74.49767303466797 C 136.27432250976562 68.53376770019531 122.00713348388672 65.8712387084961 122.6720962524414 58.27263641357422" stroke-width="2.0" fill="rgb(132, 158, 149)" opacity="0.31559625" stroke="rgb(0, 0, 0)" stroke-opacity="0.0" stroke-linecap="round" stroke-linejoin="round"/>
    <path d="M 153.7052764892578 163.50404357910156 L 152.56161499023438 251.61082458496094 L 264.5818786621094 251.647216796875 L 264.8401184082031 163.460693359375 L 153.7052764892578 163.50404357910156" stroke-width="2.0" fill="rgb(229, 195, 175)" opacity="1.0983644" stroke="rgb(0, 0, 0)" stroke-opacity="0.0" stroke-linecap="round" stroke-linejoin="round"/>
    <path d="M 211.27723693847656 251.7139129638672 L 211.92359924316406 304.6773376464844 L 197.212158203125 305.6018981933594 L 198.5178680419922 402.5783996582031 L 240.5484619140625 402.0404052734375 L 244.29458618164062 324.3797302246094 L 269.6899719238281 324.41015625 L 267.242431640625 285.2169494628906 L 258.42584228515625 281.2841796875 L 258.7059326171875 251.75445556640625 L 211.27723693847656 251.7139129638672" stroke-width="2.0" fill="rgb(81, 140, 169)" opacity="0.81162304" stroke="rgb(0, 0, 0)" stroke-opacity="0.0" stroke-linecap="round" stroke-linejoin="round"/>
    <path d="M 463.4654541015625 296.8183288574219 L 460.5757141113281 327.7164611816406 L 428.9221496582031 328.1272888183594 L 425.4707336425781 406.8870544433594 L 429.9192810058594 408.2608337402344 L 425.77691650390625 387.6675109863281 C 431.7648620605469 384.668701171875 428.944091796875 378.2931213378906 435.7217712402344 378.6029357910156 C 435.5308837890625 383.5799865722656 445.01361083984375 390.0093078613281 437.9637451171875 392.9853820800781 L 438.8989562988281 407.01605224609375 L 474.1544494628906 404.96337890625 C 481.1004943847656 399.9098205566406 471.1604919433594 387.07513427734375 480.1956481933594 378.7339782714844 L 481.0246887207031 411.12518310546875 L 502.4949645996094 411.55255126953125 L 502.5196228027344 399.63909912109375 L 502.50628662109375 297.7192077636719 L 463.4654541015625 296.8183288574219" stroke-width="2.0" fill="rgb(95, 96, 109)" opacity="1.2305841" stroke="rgb(0, 0, 0)" stroke-opacity="0.0" stroke-linecap="round" stroke-linejoin="round"/>
    <path d="M 395.5227966308594 162.49603271484375 L 393.2632751464844 201.18345642089844 L 394.9509582519531 213.5237579345703 L 439.87799072265625 214.92930603027344 C 446.23291015625 218.83087158203125 451.44805908203125 210.2232666015625 455.3755798339844 211.5634002685547 L 455.0740661621094 249.79421997070312 L 459.8793029785156 263.68634033203125 L 493.753662109375 264.1750183105469 L 502.31365966796875 268.1244812011719 L 502.4365539550781 185.3789825439453 L 502.2037048339844 162.4078826904297 L 395.5227966308594 162.49603271484375" stroke-width="2.0" fill="rgb(229, 188, 165)" opacity="0.9715943" stroke="rgb(0, 0, 0)" stroke-opacity="0.0" stroke-linecap="round" stroke-linejoin="round"/>
    <path d="M 268.9219055175781 324.4301452636719 L 242.16818237304688 324.4570007324219 L 241.1302490234375 387.122802734375 L 241.113525390625 400.62359619140625 L 5.404980659484863 400.7261047363281 L 5.429232120513916 411.86566162109375 C 13.101119995117188 410.0508728027344 19.97059440612793 415.2021179199219 20.081329345703125 423.0855712890625 L 40.05437088012695 423.0856018066406 L 45.44227600097656 413.78924560546875 C 55.10047912597656 406.84326171875 63.48723602294922 415.0920104980469 63.40453338623047 423.8921203613281 C 74.4825439453125 421.94384765625 86.48126983642578 426.4338073730469 88.51048278808594 419.840576171875 L 235.34490966796875 420.63525390625 L 236.38961791992188 412.8064880371094 L 249.2935333251953 412.63153076171875 L 249.27247619628906 351.2529602050781 L 269.74163818359375 350.5574035644531 L 268.9219055175781 324.4301452636719" stroke-width="2.0" fill="rgb(51, 51, 69)" opacity="1.0270947" stroke="rgb(0, 0, 0)" stroke-opacity="0.0" stroke-linecap="round" stroke-linejoin="round"/>
    <path d="M 144.1119384765625 306.2469177246094 L 144.3697509765625 358.34039306640625 L 133.41188049316406 358.74847412109375 L 132.60147094726562 400.9046630859375 L 141.81851196289062 400.736328125 L 141.99752807617188 373.57342529296875 C 128.36434936523438 381.2535095214844 141.00350952148438 367.78411865234375 143.37840270996094 367.4814453125 L 153.1966552734375 375.5955505371094 L 144.99960327148438 374.3155517578125 L 144.97035217285156 401.2232666015625 L 167.32754516601562 401.2021789550781 L 170.60487365722656 380.1658935546875 L 172.65707397460938 401.2398376464844 L 196.8032989501953 401.21063232421875 L 197.40052795410156 307.4895324707031 L 144.1119384765625 306.2469177246094" stroke-width="2.0" fill="rgb(303, 272, 241)" opacity="0.5211635" stroke="rgb(0, 0, 0)" stroke-opacity="0.0" stroke-linecap="round" stroke-linejoin="round"/>
    <path d="M 236.2352752685547 425.263427734375 L 233.760986328125 431.285888671875 L 502.5345153808594 431.0345458984375 L 502.4862976074219 419.388427734375 L 239.3073272705078 419.5092468261719 L 236.2352752685547 425.263427734375" stroke-width="2.0" fill="rgb(43, 42, 61)" opacity="1.0100162" stroke="rgb(0, 0, 0)" stroke-opacity="0.0" stroke-linecap="round" stroke-linejoin="round"/>
    <path d="M 457.3370666503906 211.0611114501953 L 446.79742431640625 215.75628662109375 C 443.9880065917969 218.54550170898438 438.9512023925781 206.37347412109375 436.8079833984375 213.71224975585938 L 377.3271484375 213.28587341308594 L 377.3782958984375 249.53411865234375 C 384.25531005859375 256.24310302734375 388.15704345703125 263.6781311035156 387.2798767089844 266.6217346191406 L 365.4536437988281 264.4400634765625 L 365.38623046875 292.68994140625 L 402.0751037597656 293.2604064941406 L 402.2782897949219 264.6213684082031 L 457.4955139160156 263.80767822265625 L 457.3370666503906 211.0611114501953" stroke-width="2.0" fill="rgb(53, 57, 76)" opacity="1.0199257" stroke="rgb(0, 0, 0)" stroke-opacity="0.0" stroke-linecap="round" stroke-linejoin="round"/>
    <path d="M 366.32720947265625 284.7373962402344 L 361.2110900878906 369.267822265625 L 424.4755859375 369.0859375 L 428.9035339355469 294.33331298828125 L 366.32720947265625 284.7373962402344" stroke-width="2.0" fill="rgb(131, 111, 107)" opacity="0.59713495" stroke="rgb(0, 0, 0)" stroke-opacity="0.0" stroke-linecap="round" stroke-linejoin="round"/>
    <path d="M 429.3697204589844 330.2296447753906 L 425.6103820800781 336.6536865234375 L 423.876953125 405.7876281738281 C 435.8793029785156 413.0008850097656 430.169189453125 401.57830810546875 428.78582763671875 397.32275390625 L 425.5039367675781 389.35491943359375 L 433.7928161621094 378.2562255859375 L 433.6687316894531 389.04486083984375 C 432.0570983886719 395.3981628417969 433.9332580566406 404.00030517578125 432.2102966308594 413.0083923339844 L 465.66278076171875 404.9110107421875 L 467.1834716796875 329.2681579589844 L 429.3697204589844 330.2296447753906" stroke-width="2.0" fill="rgb(192, 189, 183)" opacity="1.2672373" stroke="rgb(0, 0, 0)" stroke-opacity="0.0" stroke-linecap="round" stroke-linejoin="round"/>
    <path d="M 401.2099304199219 262.783447265625 L 401.6698913574219 289.4953918457031 L 495.1915588378906 290.59515380859375 L 493.5726318359375 262.4209289550781 L 401.2099304199219 262.783447265625" stroke-width="2.0" fill="rgb(140, 166, 185)" opacity="1.3851042" stroke="rgb(0, 0, 0)" stroke-opacity="0.0" stroke-linecap="round" stroke-linejoin="round"/>
    <path d="M 465.3179931640625 330.8128356933594 L 465.28857421875 411.6803894042969 L 477.0306396484375 411.4439697265625 L 476.72467041015625 378.9703369140625 L 476.53240966796875 411.9112854003906 L 497.821044921875 411.26715087890625 L 497.66729736328125 330.1982421875 L 465.3179931640625 330.8128356933594" stroke-width="2.0" fill="rgb(90, 140, 167)" opacity="1.1079209" stroke="rgb(0, 0, 0)" stroke-opacity="0.0" stroke-linecap="round" stroke-linejoin="round"/>
    <path d="M 365.2242431640625 126.5444107055664 C 354.42529296875 117.01251220703125 342.7099914550781 128.4734344482422 332.78717041015625 138.25857543945312 C 316.04296875 150.69720458984375 314.7250671386719 162.9673309326172 315.3446960449219 178.25534057617188 L 375.0593566894531 178.4095916748047 L 373.6584167480469 150.8590850830078 L 365.2242431640625 126.5444107055664" stroke-width="2.0" fill="rgb(130, 174, 188)" opacity="1.1544126" stroke="rgb(0, 0, 0)" stroke-opacity="0.0" stroke-linecap="round" stroke-linejoin="round"/>
    <path d="M 374.3196105957031 322.58819580078125 L 374.25091552734375 368.5735168457031 L 427.10498046875 368.4390869140625 L 429.108154296875 322.3729248046875 L 374.3196105957031 322.58819580078125" stroke-width="2.0" fill="rgb(395, 255, 170)" opacity="0.23893172" stroke="rgb(0, 0, 0)" stroke-opacity="0.0" stroke-linecap="round" stroke-linejoin="round"/>
    <path d="M 127.5915756225586 166.36431884765625 L 127.6478500366211 251.6828155517578 L 153.5408935546875 251.64671325683594 L 153.5135498046875 166.32630920410156 L 127.5915756225586 166.36431884765625" stroke-width="2.0" fill="rgb(54, 55, 72)" opacity="1.0262681" stroke="rgb(0, 0, 0)" stroke-opacity="0.0" stroke-linecap="round" stroke-linejoin="round"/>
    <path d="M 270.3546142578125 45.625205993652344 C 248.9741973876953 58.140769958496094 253.4958038330078 84.47209167480469 273.327880859375 91.91165924072266 C 286.6477355957031 97.0459213256836 303.7519226074219 89.27090454101562 307.44189453125 73.33744812011719 C 308.3987731933594 64.08592224121094 307.3644104003906 55.69936752319336 295.79656982421875 47.04620361328125 C 288.0269470214844 42.0532341003418 279.2040100097656 42.19938659667969 270.3546142578125 45.625205993652344" stroke-width="2.0" fill="rgb(252, 245, 228)" opacity="1.002285" stroke="rgb(0, 0, 0)" stroke-opacity="0.0" stroke-linecap="round" stroke-linejoin="round"/>
    <path d="M 279.2935791015625 125.4594497680664 C 266.9980773925781 137.76846313476562 273.2438659667969 149.57577514648438 276.22027587890625 165.1933135986328 L 267.9659729003906 167.2758026123047 L 270.3190002441406 209.79852294921875 L 268.99835205078125 207.35455322265625 C 272.6925964355469 205.66079711914062 279.8541564941406 207.42227172851562 278.97125244140625 211.53431701660156 L 285.6587219238281 211.54046630859375 C 289.3017578125 217.1400146484375 292.6483459472656 217.58656311035156 293.7347106933594 211.16714477539062 L 292.7827453613281 162.393310546875 L 289.7259521484375 160.63648986816406 C 287.8507995605469 149.10736083984375 293.33221435546875 136.80979919433594 279.2935791015625 125.4594497680664" stroke-width="2.0" fill="rgb(81, 125, 129)" opacity="0.34782848" stroke="rgb(0, 0, 0)" stroke-opacity="0.0" stroke-linecap="round" stroke-linejoin="round"/>
    <path d="M 169.480712890625 252.56182861328125 L 171.6712188720703 305.09759521484375 L 210.9328155517578 307.26458740234375 L 207.70545959472656 274.2815856933594 L 194.8790740966797 252.50555419921875 L 169.480712890625 252.56182861328125" stroke-width="2.0" fill="rgb(78, 107, 131)" opacity="1.0763638" stroke="rgb(0, 0, 0)" stroke-opacity="0.0" stroke-linecap="round" stroke-linejoin="round"/>
    <path d="M 325.800048828125 306.3664855957031 L 309.1600036621094 370.0755310058594 L 373.7541198730469 369.51336669921875 L 373.5662841796875 306.4228820800781 L 325.800048828125 306.3664855957031" stroke-width="2.0" fill="rgb(-134, -50, 7)" opacity="0.48216507" stroke="rgb(0, 0, 0)" stroke-opacity="0.0" stroke-linecap="round" stroke-linejoin="round"/>
    <path d="M 401.8147888183594 262.5672302246094 L 400.46124267578125 306.1025085449219 L 458.804443359375 300.6452941894531 L 458.5299072265625 262.5550537109375 L 401.8147888183594 262.5672302246094" stroke-width="2.0" fill="rgb(279, 251, 220)" opacity="0.65092564" stroke="rgb(0, 0, 0)" stroke-opacity="0.0" stroke-linecap="round" stroke-linejoin="round"/>
    <path d="M 379.2337341308594 369.3326416015625 L 379.5160217285156 410.84765625 C 386.1277770996094 411.58868408203125 390.8860778808594 410.9727783203125 390.99755859375 404.0783996582031 L 395.693359375 410.6702575683594 L 416.2643127441406 412.7140808105469 L 415.1524353027344 391.60321044921875 L 409.7025451660156 391.0994567871094 L 415.6113586425781 384.4759216308594 L 421.19927978515625 391.53839111328125 C 408.98040771484375 389.545654296875 417.9957275390625 399.9858093261719 415.7739562988281 411.4620056152344 L 425.43316650390625 411.5957336425781 L 425.4568786621094 369.13568115234375 L 379.2337341308594 369.3326416015625" stroke-width="2.0" fill="rgb(65, 65, 81)" opacity="1.0671383" stroke="rgb(0, 0, 0)" stroke-opacity="0.0" stroke-linecap="round" stroke-linejoin="round"/>
    <path d="M 357.9485168457031 130.113525390625 C 367.3890075683594 135.4763946533203 370.19244384765625 144.3686981201172 373.9895324707031 155.903076171875 L 375.534423828125 213.0012664794922 L 377.1514892578125 215.36404418945312 L 394.8485107421875 213.76083374023438 L 394.6336669921875 160.12730407714844 C 387.4040222167969 143.7067413330078 373.5287170410156 129.601806640625 357.9485168457031 130.113525390625" stroke-width="2.0" fill="rgb(47, 49, 68)" opacity="1.0061479" stroke="rgb(0, 0, 0)" stroke-opacity="0.0" stroke-linecap="round" stroke-linejoin="round"/>
    <path d="M 463.681640625 295.64678955078125 L 459.3105163574219 331.4688415527344 L 502.4823303222656 330.5968017578125 L 502.4488220214844 290.8086853027344 L 463.681640625 295.64678955078125" stroke-width="2.0" fill="rgb(219, 213, 201)" opacity="1.042277" stroke="rgb(0, 0, 0)" stroke-opacity="0.0" stroke-linecap="round" stroke-linejoin="round"/>
    <path d="M 56.01079177856445 299.2605895996094 L 55.7926139831543 301.4227600097656 L 118.31442260742188 304.7112121582031 C 116.98309326171875 289.5578918457031 101.92770385742188 275.75909423828125 90.95889282226562 276.18017578125 C 78.12531280517578 273.63995361328125 58.68767166137695 282.1131591796875 56.01079177856445 299.2605895996094" stroke-width="2.0" fill="rgb(50, 86, 117)" opacity="0.6368343" stroke="rgb(0, 0, 0)" stroke-opacity="0.0" stroke-linecap="round" stroke-linejoin="round"/>
    <path d="M 168.821533203125 252.26834106445312 L 170.6510467529297 306.386474609375 L 191.4658203125 306.8479919433594 L 192.08705139160156 252.5880126953125 L 168.821533203125 252.26834106445312" stroke-width="2.0" fill="rgb(104, 173, 200)" opacity="0.7391306" stroke="rgb(0, 0, 0)" stroke-opacity="0.0" stroke-linecap="round" stroke-linejoin="round"/>
    <path d="M 354.0156555175781 90.29791259765625 L 434.2189025878906 90.32132720947266 L 413.3923645019531 81.02227020263672 C 403.5788879394531 84.78288269042969 412.0356750488281 74.83170318603516 405.8077697753906 68.88224029541016 C 393.50909423828125 53.976097106933594 372.2231750488281 66.5662841796875 374.939697265625 81.9694595336914 C 366.31695556640625 79.68598937988281 361.1021423339844 81.57222747802734 354.0156555175781 90.29791259765625" stroke-width="2.0" fill="rgb(249, 242, 222)" opacity="1.0113832" stroke="rgb(0, 0, 0)" stroke-opacity="0.0" stroke-linecap="round" stroke-linejoin="round"/>
    <path d="M 270.13140869140625 324.3487854003906 L 240.88514709472656 324.4122314453125 L 240.39442443847656 410.7092590332031 L 249.12399291992188 411.80023193359375 L 249.1015167236328 351.5499267578125 L 269.8382263183594 351.53155517578125 L 270.13140869140625 324.3487854003906" stroke-width="2.0" fill="rgb(52, 52, 74)" opacity="0.74191356" stroke="rgb(0, 0, 0)" stroke-opacity="0.0" stroke-linecap="round" stroke-linejoin="round"/>
    <path d="M 458.61358642578125 262.55609130859375 L 458.5830078125 290.4349060058594 L 458.2358093261719 295.4230651855469 L 496.6385803222656 295.6004638671875 L 496.61083984375 262.3970947265625 L 458.61358642578125 262.55609130859375" stroke-width="2.0" fill="rgb(44, 47, 67)" opacity="1.0016942" stroke="rgb(0, 0, 0)" stroke-opacity="0.0" stroke-linecap="round" stroke-linejoin="round"/>
    <path d="M 427.26568603515625 293.2191467285156 L 427.295654296875 330.36773681640625 L 459.4150085449219 330.27081298828125 L 459.4076843261719 293.626220703125 L 427.26568603515625 293.2191467285156" stroke-width="2.0" fill="rgb(43, 47, 67)" opacity="0.9925694" stroke="rgb(0, 0, 0)" stroke-opacity="0.0" stroke-linecap="round" stroke-linejoin="round"/>
    <path d="M 127.52198028564453 63.540035247802734 L 127.33488464355469 147.558837890625 L 148.6697998046875 147.1165771484375 L 148.53677368164062 122.35073852539062 L 139.98143005371094 121.56167602539062 L 140.55914306640625 82.30628967285156 C 137.79759216308594 74.71294403076172 139.17147827148438 67.141357421875 127.52198028564453 63.540035247802734" stroke-width="2.0" fill="rgb(49, 54, 74)" opacity="1.0142393" stroke="rgb(0, 0, 0)" stroke-opacity="0.0" stroke-linecap="round" stroke-linejoin="round"/>
    <path d="M 336.6673889160156 257.2873840332031 L 334.2903747558594 269.34906005859375 L 388.54473876953125 269.6370849609375 C 390.16424560546875 256.0950622558594 377.3798828125 250.2433319091797 357.5036926269531 232.7097625732422 L 350.0943908691406 246.18983459472656 L 336.6673889160156 257.2873840332031" stroke-width="2.0" fill="rgb(92, 153, 178)" opacity="0.9325296" stroke="rgb(0, 0, 0)" stroke-opacity="0.0" stroke-linecap="round" stroke-linejoin="round"/>
    <path d="M 9.350086212158203 258.38818359375 L 76.20258331298828 258.335205078125 C 70.29438781738281 249.0708770751953 64.4892578125 249.6131134033203 59.240966796875 249.47598266601562 C 64.14310455322266 234.85012817382812 46.652069091796875 226.04244995117188 36.29446792602539 233.8896942138672 C 29.882665634155273 238.65647888183594 28.54991912841797 243.8538818359375 28.709463119506836 247.741455078125 L 9.350086212158203 258.38818359375" stroke-width="2.0" fill="rgb(253, 243, 223)" opacity="0.997584" stroke="rgb(0, 0, 0)" stroke-opacity="0.0" stroke-linecap="round" stroke-linejoin="round"/>
    <path d="M 269.9285888671875 301.9997253417969 L 269.85882568359375 353.66650390625 L 289.9566650390625 353.64276123046875 L 291.2195739746094 302.00213623046875 L 269.9285888671875 301.9997253417969" stroke-width="2.0" fill="rgb(243, 238, 224)" opacity="1.0367947" stroke="rgb(0, 0, 0)" stroke-opacity="0.0" stroke-linecap="round" stroke-linejoin="round"/>
    <path d="M 391.1739807128906 152.5502471923828 L 394.0312194824219 163.54684448242188 L 502.5086975097656 163.50094604492188 L 502.164306640625 152.78448486328125 L 391.1739807128906 152.5502471923828" stroke-width="2.0" fill="rgb(157, 184, 183)" opacity="0.95941305" stroke="rgb(0, 0, 0)" stroke-opacity="0.0" stroke-linecap="round" stroke-linejoin="round"/>
    <path d="M 280.25634765625 126.77698516845703 L 280.1384582519531 214.65164184570312 L 284.30902099609375 210.09906005859375 C 290.97906494140625 216.585205078125 290.8939208984375 217.7206573486328 294.7880859375 211.87591552734375 L 294.169921875 162.41571044921875 L 288.8083190917969 161.5580291748047 L 287.6404724121094 134.75784301757812 L 280.25634765625 126.77698516845703" stroke-width="2.0" fill="rgb(36, 36, 56)" opacity="0.94580215" stroke="rgb(0, 0, 0)" stroke-opacity="0.0" stroke-linecap="round" stroke-linejoin="round"/>
    <path d="M 34.92750549316406 308.4662170410156 L 5.507070541381836 308.7428894042969 L 5.500045299530029 341.7743225097656 L 34.994625091552734 341.5419006347656 L 34.92750549316406 308.4662170410156" stroke-width="2.0" fill="rgb(94, 150, 175)" opacity="0.9923191" stroke="rgb(0, 0, 0)" stroke-opacity="0.0" stroke-linecap="round" stroke-linejoin="round"/>
    <path d="M 290.508544921875 297.6318054199219 L 290.3705139160156 350.06439208984375 L 309.37518310546875 353.9403381347656 L 309.2912292480469 297.5501708984375 L 290.508544921875 297.6318054199219" stroke-width="2.0" fill="rgb(64, 66, 84)" opacity="1.0564387" stroke="rgb(0, 0, 0)" stroke-opacity="0.0" stroke-linecap="round" stroke-linejoin="round"/>
    <path d="M 5.517120838165283 154.73915100097656 L 5.546634197235107 163.6466827392578 L 97.53907775878906 163.54869079589844 L 97.39869689941406 152.19345092773438 L 5.517120838165283 154.73915100097656" stroke-width="2.0" fill="rgb(154, 181, 181)" opacity="1.062117" stroke="rgb(0, 0, 0)" stroke-opacity="0.0" stroke-linecap="round" stroke-linejoin="round"/>
    <path d="M 283.7642822265625 231.0052032470703 C 274.638916015625 236.62448120117188 282.9595031738281 246.03709411621094 278.59661865234375 254.366455078125 L 290.0049133300781 254.61651611328125 L 291.74041748046875 296.5597839355469 L 311.2891540527344 296.63970947265625 L 311.26739501953125 281.45074462890625 L 302.2984924316406 281.6134948730469 L 299.3730773925781 250.25393676757812 C 290.18231201171875 249.1732940673828 289.4791259765625 234.46583557128906 283.7642822265625 231.0052032470703" stroke-width="2.0" fill="rgb(48, 93, 120)" opacity="0.93950456" stroke="rgb(0, 0, 0)" stroke-opacity="0.0" stroke-linecap="round" stroke-linejoin="round"/>
    <path d="M 294.1787414550781 163.90992736816406 L 294.3871154785156 208.2703094482422 C 301.0115966796875 216.90892028808594 306.18988037109375 209.461669921875 315.2669677734375 211.991943359375 L 315.0997314453125 163.65008544921875 L 294.1787414550781 163.90992736816406" stroke-width="2.0" fill="rgb(219, 148, 114)" opacity="0.6099263" stroke="rgb(0, 0, 0)" stroke-opacity="0.0" stroke-linecap="round" stroke-linejoin="round"/>
    <path d="M 351.4558410644531 176.53553771972656 L 351.479248046875 216.6160125732422 L 359.51947021484375 208.50120544433594 L 364.911376953125 216.2481689453125 L 370.8594970703125 208.85467529296875 L 375.60064697265625 213.29981994628906 L 374.54571533203125 177.87564086914062 L 351.4558410644531 176.53553771972656" stroke-width="2.0" fill="rgb(109, 143, 153)" opacity="0.8551116" stroke="rgb(0, 0, 0)" stroke-opacity="0.0" stroke-linecap="round" stroke-linejoin="round"/>
    <path d="M 317.08416748046875 431.6942138671875 L 317.7254638671875 440.380615234375 L 404.19903564453125 440.28717041015625 C 406.5475158691406 429.4390869140625 401.9205322265625 432.1112976074219 396.64654541015625 431.75390625 L 317.08416748046875 431.6942138671875" stroke-width="2.0" fill="rgb(244, 237, 220)" opacity="1.0139296" stroke="rgb(0, 0, 0)" stroke-opacity="0.0" stroke-linecap="round" stroke-linejoin="round"/>
    <path d="M 192.77142333984375 250.60484313964844 L 192.1842803955078 306.9591369628906 L 210.25552368164062 306.23602294921875 L 206.80967712402344 273.4350280761719 L 192.77142333984375 250.60484313964844" stroke-width="2.0" fill="rgb(36, 29, 50)" opacity="0.78748894" stroke="rgb(0, 0, 0)" stroke-opacity="0.0" stroke-linecap="round" stroke-linejoin="round"/>
    <path d="M 86.56918334960938 276.5574645996094 C 73.28202056884766 273.9532775878906 55.92947769165039 288.9947509765625 54.44483184814453 303.31781005859375 L 89.50799560546875 302.6761169433594 L 86.56918334960938 276.5574645996094" stroke-width="2.0" fill="rgb(114, 176, 193)" opacity="0.9442935" stroke="rgb(0, 0, 0)" stroke-opacity="0.0" stroke-linecap="round" stroke-linejoin="round"/>
    <path d="M 36.19947814941406 379.61749267578125 C 45.77181625366211 376.6204833984375 40.670616149902344 391.5211486816406 43.52061080932617 401.63128662109375 C 55.756690979003906 405.08612060546875 47.120330810546875 389.1849670410156 52.17543029785156 378.0509338378906 L 77.3099365234375 402.37176513671875 L 79.08012390136719 371.04119873046875 L 43.85946273803711 371.04534912109375 L 36.19947814941406 379.61749267578125" stroke-width="2.0" fill="rgb(54, 49, 60)" opacity="0.9848425" stroke="rgb(0, 0, 0)" stroke-opacity="0.0" stroke-linecap="round" stroke-linejoin="round"/>
    <path d="M 126.20604705810547 480.76922607421875 L 130.4676971435547 488.6253356933594 L 187.5199432373047 488.7597351074219 C 192.42796325683594 489.0244445800781 198.63748168945312 481.30731201171875 190.5814208984375 480.9029846191406 L 126.20604705810547 480.76922607421875" stroke-width="2.0" fill="rgb(233, 232, 215)" opacity="1.0509976" stroke="rgb(0, 0, 0)" stroke-opacity="0.0" stroke-linecap="round" stroke-linejoin="round"/>
    <path d="M 218.53298950195312 431.2771911621094 L 218.59861755371094 440.619384765625 L 264.9330749511719 440.5436096191406 L 282.2831726074219 444.6709899902344 C 284.4693603515625 437.6390380859375 278.8988342285156 430.6440734863281 274.6359558105469 431.6568298339844 L 218.53298950195312 431.2771911621094" stroke-width="2.0" fill="rgb(238, 234, 216)" opacity="0.99720305" stroke="rgb(0, 0, 0)" stroke-opacity="0.0" stroke-linecap="round" stroke-linejoin="round"/>
    <path d="M 87.6261978149414 276.460693359375 L 90.40763092041016 303.4329833984375 L 117.1208267211914 303.0126953125 C 116.22968292236328 288.11932373046875 99.55220794677734 275.2886657714844 87.6261978149414 276.460693359375" stroke-width="2.0" fill="rgb(39, 37, 56)" opacity="0.92686653" stroke="rgb(0, 0, 0)" stroke-opacity="0.0" stroke-linecap="round" stroke-linejoin="round"/>
    <path d="M 32.92704391479492 382.43963623046875 L 77.70726776123047 382.53045654296875 L 84.11689758300781 371.1310119628906 L 44.65070343017578 371.1871032714844 L 32.92704391479492 382.43963623046875" stroke-width="2.0" fill="rgb(99, 172, 190)" opacity="1.1261727" stroke="rgb(0, 0, 0)" stroke-opacity="0.0" stroke-linecap="round" stroke-linejoin="round"/>
    <path d="M 386.9292297363281 380.5242614746094 C 378.7298583984375 387.3623046875 382.1357727050781 400.6001892089844 381.4319763183594 411.8172302246094 C 387.8471984863281 408.9760437011719 392.1777648925781 417.1893310546875 402.8037109375 409.4866943359375 C 402.38519287109375 399.01715087890625 400.1095886230469 391.08404541015625 393.2721252441406 380.8285827636719 L 386.9292297363281 380.5242614746094" stroke-width="2.0" fill="rgb(118, 149, 161)" opacity="1.302807" stroke="rgb(0, 0, 0)" stroke-opacity="0.0" stroke-linecap="round" stroke-linejoin="round"/>
    <path d="M 401.7193298339844 457.75091552734375 L 406.7583312988281 463.244873046875 L 444.3608703613281 463.2645263671875 L 461.0421447753906 458.79833984375 L 460.61859130859375 458.5615539550781 L 415.3263854980469 457.0558166503906 L 401.7193298339844 457.75091552734375" stroke-width="2.0" fill="rgb(198, 207, 201)" opacity="1.090143" stroke="rgb(0, 0, 0)" stroke-opacity="0.0" stroke-linecap="round" stroke-linejoin="round"/>
    <path d="M 366.33575439453125 379.4730529785156 C 350.28680419921875 382.0054016113281 358.32757568359375 397.5460205078125 355.6089172363281 411.6106872558594 L 372.88970947265625 411.79583740234375 L 372.47247314453125 385.0836486816406 L 366.33575439453125 379.4730529785156" stroke-width="2.0" fill="rgb(48, 47, 66)" opacity="1.0003773" stroke="rgb(0, 0, 0)" stroke-opacity="0.0" stroke-linecap="round" stroke-linejoin="round"/>
    <path d="M 339.9311218261719 379.7234191894531 C 327.95166015625 383.686767578125 333.7738342285156 398.65460205078125 332.2807312011719 412.27996826171875 L 349.7903137207031 412.25067138671875 C 347.6479797363281 398.7390441894531 352.22869873046875 386.8661193847656 344.8355712890625 380.84771728515625 L 339.9311218261719 379.7234191894531" stroke-width="2.0" fill="rgb(46, 46, 64)" opacity="0.99246997" stroke="rgb(0, 0, 0)" stroke-opacity="0.0" stroke-linecap="round" stroke-linejoin="round"/>
    <path d="M 6.670639991760254 369.16156005859375 L 4.468722820281982 400.9976806640625 L 25.9024658203125 400.6935729980469 L 27.659908294677734 369.3760986328125 L 6.670639991760254 369.16156005859375" stroke-width="2.0" fill="rgb(217, 203, 189)" opacity="1.397303" stroke="rgb(0, 0, 0)" stroke-opacity="0.0" stroke-linecap="round" stroke-linejoin="round"/>
    <path d="M 291.3064880371094 240.46107482910156 L 289.3795166015625 281.29486083984375 L 303.5410461425781 291.463134765625 L 303.2457580566406 259.6423034667969 C 294.0908508300781 261.9732666015625 303.201904296875 252.7353057861328 297.0807800292969 245.1753692626953 L 291.3064880371094 240.46107482910156" stroke-width="2.0" fill="rgb(39, 38, 59)" opacity="0.9232447" stroke="rgb(0, 0, 0)" stroke-opacity="0.0" stroke-linecap="round" stroke-linejoin="round"/>
    <path d="M 104.46917724609375 127.70994567871094 L 104.11647033691406 146.72796630859375 L 127.30847930908203 146.53021240234375 L 127.33918762207031 127.63019561767578 L 104.46917724609375 127.70994567871094" stroke-width="2.0" fill="rgb(244, 204, 179)" opacity="1.0212151" stroke="rgb(0, 0, 0)" stroke-opacity="0.0" stroke-linecap="round" stroke-linejoin="round"/>
    <path d="M 314.3062438964844 380.0834655761719 C 300.7756652832031 389.4908752441406 317.6414489746094 397.9759826660156 299.2913818359375 411.1471862792969 L 317.8176574707031 413.43206787109375 L 314.2294616699219 402.0863952636719 C 322.731201171875 405.1783752441406 310.44195556640625 413.19219970703125 325.95556640625 411.2735290527344 C 323.71905517578125 398.4125061035156 328.5861511230469 386.45849609375 319.94061279296875 380.37322998046875 L 314.3062438964844 380.0834655761719" stroke-width="2.0" fill="rgb(49, 46, 63)" opacity="0.98268646" stroke="rgb(0, 0, 0)" stroke-opacity="0.0" stroke-linecap="round" stroke-linejoin="round"/>
    <path d="M 133.1855010986328 292.9836730957031 L 133.22239685058594 306.6884765625 L 161.63778686523438 306.7813720703125 L 161.6379852294922 292.2418212890625 L 133.1855010986328 292.9836730957031" stroke-width="2.0" fill="rgb(104, 168, 191)" opacity="0.85781074" stroke="rgb(0, 0, 0)" stroke-opacity="0.0" stroke-linecap="round" stroke-linejoin="round"/>
  </g>
</svg>
