<?xml version="1.0" ?>
<svg xmlns="http://www.w3.org/2000/svg" version="1.1" width="512" height="512">
  <defs/>
  <g>
    <path d="M 216.02845764160156 132.85496520996094 C 200.5421600341797 146.38345336914062 209.93850708007812 105.8041000366211 206.67471313476562 119.68462371826172 C 111.07533264160156 157.9340057373047 207.0042266845703 209.12147521972656 -2.850639820098877 324.80633544921875 C -4.189562797546387 -77.72296905517578 47.26610565185547 -60.44050216674805 427.8753967285156 8.48135757446289 C 343.4002685546875 148.48182678222656 253.506591796875 43.09386444091797 216.02845764160156 132.85496520996094" stroke-width="0.0" fill="rgb(46, 112, 182)" opacity="0.82033354" stroke="rgb(247, 92, 236)" stroke-opacity="0.40753144" stroke-linecap="round" stroke-linejoin="round"/>
    <path d="M 212.54861450195312 319.802978515625 C 224.8946990966797 501.2323303222656 273.1351013183594 465.5962829589844 104.0887680053711 448.45745849609375 C 103.06243133544922 448.0950012207031 91.27461242675781 418.15802001953125 53.912681579589844 302.2846374511719 C 127.2918930053711 325.09954833984375 33.58143615722656 288.34991455078125 121.1783218383789 166.3985137939453 C 118.77813720703125 328.5299072265625 126.56487274169922 320.7807312011719 212.54861450195312 319.802978515625" stroke-width="0.0" fill="rgb(191, 220, 254)" opacity="0.7608999" stroke="rgb(55, 240, 61)" stroke-opacity="0.3829383" stroke-linecap="round" stroke-linejoin="round"/>
    <path d="M 407.6124267578125 264.79931640625 C 386.7294616699219 349.11956787109375 242.53228759765625 330.2933654785156 363.9270324707031 418.2145690917969 C 180.0567626953125 410.6140441894531 243.77757263183594 479.0274353027344 185.07579040527344 302.0483093261719 C 135.45266723632812 397.39593505859375 138.4251708984375 93.73368835449219 226.95216369628906 181.45689392089844 C 304.34112548828125 335.93798828125 252.956298828125 23.814882278442383 407.6124267578125 264.79931640625" stroke-width="0.0" fill="rgb(0, 116, 142)" opacity="0.8971915" stroke="rgb(253, 36, 91)" stroke-opacity="0.6166896" stroke-linecap="round" stroke-linejoin="round"/>
    <path d="M 516.83203125 529.1144409179688 C 427.2462463378906 496.05023193359375 410.8396911621094 448.87396240234375 404.087890625 398.4219665527344 C 437.8201599121094 324.438232421875 432.25067138671875 323.02490234375 431.29144287109375 300.4994812011719 C 454.530029296875 272.9482727050781 417.1401672363281 374.3423156738281 266.4222106933594 33.78543472290039 C 653.0253295898438 22.283845901489258 559.8281860351562 59.476776123046875 516.83203125 529.1144409179688" stroke-width="0.0" fill="rgb(78, 124, 172)" opacity="0.9998467" stroke="rgb(199, 163, 7)" stroke-opacity="0.10454009" stroke-linecap="round" stroke-linejoin="round"/>
    <path d="M 430.84808349609375 214.9837646484375 C 436.49969482421875 323.7475891113281 434.7633056640625 367.1013488769531 405.79962158203125 361.59906005859375 C 369.7534484863281 231.46893310546875 364.44476318359375 214.88473510742188 348.48583984375 205.19210815429688 C 263.98736572265625 161.96246337890625 305.14263916015625 205.3561553955078 299.8335266113281 117.02574920654297 C 400.68701171875 136.2302703857422 406.5005798339844 197.0742645263672 430.84808349609375 214.9837646484375" stroke-width="0.0" fill="rgb(243, 239, 244)" opacity="0.9942067" stroke="rgb(71, 53, 35)" stroke-opacity="0.3497303" stroke-linecap="round" stroke-linejoin="round"/>
    <path d="M 229.51943969726562 161.73056030273438 C 233.9113006591797 190.45632934570312 184.306884765625 185.14865112304688 159.16835021972656 211.97669982910156 C 160.6326141357422 230.63014221191406 141.0980987548828 218.47787475585938 84.26361083984375 310.7201843261719 C 65.51935577392578 195.53189086914062 139.50082397460938 135.3187255859375 193.18702697753906 123.50016021728516 C 230.15447998046875 108.89402770996094 174.30804443359375 167.55699157714844 229.51943969726562 161.73056030273438" stroke-width="0.0" fill="rgb(244, 240, 244)" opacity="0.99070114" stroke="rgb(81, 170, 89)" stroke-opacity="0.9459461" stroke-linecap="round" stroke-linejoin="round"/>
    <path d="M 478.1790466308594 524.7339477539062 C 454.3562316894531 525.2432250976562 443.2378845214844 532.367919921875 184.77337646484375 510.4433898925781 C 259.265869140625 434.72528076171875 303.59564208984375 444.081787109375 347.85186767578125 429.3759765625 C 388.2986145019531 340.31890869140625 348.7733154296875 371.1177673339844 432.7142639160156 355.3150939941406 C 464.9923400878906 346.87744140625 468.57769775390625 350.8623352050781 478.1790466308594 524.7339477539062" stroke-width="0.0" fill="rgb(54, 42, 80)" opacity="0.99583685" stroke="rgb(164, 52, 65)" stroke-opacity="0.7148071" stroke-linecap="round" stroke-linejoin="round"/>
    <path d="M 103.84969329833984 449.05316162109375 C 254.1337432861328 458.1078186035156 283.67572021484375 519.8820190429688 8.231914520263672 526.6013793945312 C -17.913219451904297 450.2769470214844 -14.343338012695312 441.1075744628906 -12.548465728759766 284.2981872558594 C -3.2752935886383057 292.5911865234375 16.177034378051758 283.7368469238281 80.15791320800781 271.0286560058594 C 95.9952392578125 380.4027404785156 10.438555717468262 194.624755859375 103.84969329833984 449.05316162109375" stroke-width="0.0" fill="rgb(76, 124, 173)" opacity="0.96550626" stroke="rgb(171, 36, 239)" stroke-opacity="0.9743875" stroke-linecap="round" stroke-linejoin="round"/>
    <path d="M 420.80426025390625 435.5852355957031 C 416.6949768066406 531.8514404296875 412.5343322753906 527.7290649414062 404.0072326660156 524.552978515625 C 312.1600036621094 524.1492919921875 295.34857177734375 552.2845458984375 156.78140258789062 497.99578857421875 C 212.25389099121094 377.9441833496094 247.03005981445312 459.80157470703125 339.54022216796875 458.21453857421875 C 368.9658203125 449.10491943359375 410.76861572265625 443.12628173828125 420.80426025390625 435.5852355957031" stroke-width="0.0" fill="rgb(82, 131, 178)" opacity="0.9013561" stroke="rgb(189, 221, 201)" stroke-opacity="0.21404363" stroke-linecap="round" stroke-linejoin="round"/>
    <path d="M 497.41925048828125 500.2188415527344 C 500.8193054199219 518.814697265625 512.7515258789062 525.85791015625 393.87054443359375 525.3331909179688 C 383.0962219238281 481.91400146484375 378.5091247558594 440.189208984375 418.5862731933594 440.98779296875 C 433.3239440917969 411.9326477050781 446.6059265136719 380.03997802734375 457.16815185546875 355.314208984375 C 501.4222412109375 397.7644348144531 495.931884765625 409.18743896484375 497.41925048828125 500.2188415527344" stroke-width="0.0" fill="rgb(78, 124, 172)" opacity="1.0" stroke="rgb(117, 235, 125)" stroke-opacity="0.6547854" stroke-linecap="round" stroke-linejoin="round"/>
    <path d="M 524.76806640625 11.276191711425781 C 523.9021606445312 73.21726989746094 516.760009765625 63.41260528564453 489.57672119140625 58.75428009033203 C 416.1598815917969 59.85765838623047 405.03802490234375 69.3388671875 381.1482238769531 -0.016826361417770386 C 420.1167907714844 -13.943300247192383 428.5318603515625 -12.198512077331543 488.48779296875 -12.13613510131836 C 505.27813720703125 -13.629280090332031 517.1331787109375 -19.881404876708984 524.76806640625 11.276191711425781" stroke-width="0.0" fill="rgb(78, 124, 171)" opacity="0.99965966" stroke="rgb(146, 125, 167)" stroke-opacity="0.14139749" stroke-linecap="round" stroke-linejoin="round"/>
    <path d="M 300.88433837890625 134.51979064941406 C 309.42498779296875 166.21778869628906 304.0107727050781 158.757080078125 288.5796813964844 190.52906799316406 C 223.91343688964844 285.9712219238281 268.44830322265625 186.45034790039062 199.66990661621094 140.4435272216797 C 263.63604736328125 136.09796142578125 257.7596435546875 174.553955078125 251.20811462402344 91.74057006835938 C 315.0745544433594 69.71329498291016 254.7564697265625 150.42022705078125 300.88433837890625 134.51979064941406" stroke-width="0.0" fill="rgb(250, 178, 108)" opacity="0.835266" stroke="rgb(151, 68, 220)" stroke-opacity="0.4223858" stroke-linecap="round" stroke-linejoin="round"/>
    <path d="M 290.58758544921875 87.5035629272461 C 274.66400146484375 106.61802673339844 243.7903289794922 108.98527526855469 229.50750732421875 111.02526092529297 C 224.869384765625 154.10311889648438 196.6697998046875 144.7652130126953 200.58351135253906 81.98045349121094 C 209.6255645751953 96.6090316772461 207.2686767578125 64.6873550415039 253.59872436523438 61.423362731933594 C 296.1830749511719 63.91706085205078 292.4363098144531 82.79405212402344 290.58758544921875 87.5035629272461" stroke-width="0.0" fill="rgb(55, 37, 73)" opacity="0.9752929" stroke="rgb(88, 45, 93)" stroke-opacity="0.7019203" stroke-linecap="round" stroke-linejoin="round"/>
    <path d="M 351.1053161621094 417.954833984375 C 352.8168029785156 434.7395324707031 333.2464294433594 430.6465148925781 297.7672424316406 441.4903259277344 C 278.9058532714844 429.37713623046875 243.53851318359375 450.4890441894531 218.78343200683594 418.26556396484375 C 267.0884704589844 417.2477111816406 285.5989074707031 418.06549072265625 316.46392822265625 417.6595458984375 C 320.95684814453125 418.0160827636719 336.3419189453125 417.81634521484375 351.1053161621094 417.954833984375" stroke-width="0.0" fill="rgb(252, 189, 61)" opacity="0.98579264" stroke="rgb(62, 202, 63)" stroke-opacity="0.37601328" stroke-linecap="round" stroke-linejoin="round"/>
    <path d="M 320.909423828125 435.8814697265625 C 261.3360595703125 450.8469543457031 166.27597045898438 473.315185546875 268.3332824707031 441.477783203125 C 234.62918090820312 436.9226989746094 217.27601623535156 435.2046813964844 222.47348022460938 435.1214294433594 C 218.4460906982422 416.12579345703125 206.92140197753906 420.0234069824219 259.22100830078125 425.8926086425781 C 273.5683288574219 428.508056640625 286.3970031738281 428.03704833984375 320.909423828125 435.8814697265625" stroke-width="0.0" fill="rgb(240, 242, 247)" opacity="0.9727662" stroke="rgb(168, 224, 176)" stroke-opacity="0.87495995" stroke-linecap="round" stroke-linejoin="round"/>
    <path d="M 46.248512268066406 13.22605037689209 C 33.45391082763672 94.12777709960938 67.72991180419922 126.9964370727539 0.012670305557549 184.92662048339844 C -19.4626522064209 98.89917755126953 -11.746406555175781 89.8975830078125 -11.381942749023438 50.25286865234375 C -12.356130599975586 32.7523193359375 -21.793514251708984 17.054393768310547 5.909250736236572 -11.40422248840332 C 82.30903625488281 -13.938751220703125 69.87390899658203 -9.468887329101562 46.248512268066406 13.22605037689209" stroke-width="0.0" fill="rgb(78, 124, 171)" opacity="0.99999994" stroke="rgb(129, 228, 74)" stroke-opacity="0.6296875" stroke-linecap="round" stroke-linejoin="round"/>
    <path d="M 351.1690368652344 399.56597900390625 C 354.8863525390625 420.6748046875 358.6730651855469 417.145263671875 332.78094482421875 417.2666931152344 C 283.047119140625 417.54833984375 309.7842102050781 422.2948303222656 328.02203369140625 389.26129150390625 C 317.8462829589844 371.01251220703125 321.1338806152344 368.6837158203125 334.305419921875 362.60650634765625 C 342.8896179199219 369.87457275390625 344.3209533691406 381.4441833496094 351.1690368652344 399.56597900390625" stroke-width="0.0" fill="rgb(20, 94, 118)" opacity="0.98523396" stroke="rgb(213, 137, 190)" stroke-opacity="0.6998482" stroke-linecap="round" stroke-linejoin="round"/>
    <path d="M 277.233642578125 213.54571533203125 C 257.7179870605469 237.5511932373047 256.67816162109375 229.85940551757812 254.78309631347656 265.9522705078125 C 257.1510925292969 232.39932250976562 256.1143798828125 240.05294799804688 235.5271453857422 213.33348083496094 C 222.2045135498047 175.6294708251953 238.9005584716797 210.18173217773438 245.43997192382812 216.58212280273438 C 252.9971160888672 224.78256225585938 275.96917724609375 216.93695068359375 277.233642578125 213.54571533203125" stroke-width="0.0" fill="rgb(246, 251, 249)" opacity="0.9855334" stroke="rgb(199, 224, 60)" stroke-opacity="0.71545714" stroke-linecap="round" stroke-linejoin="round"/>
    <path d="M 339.53076171875 334.2311706542969 C 320.8441162109375 353.89337158203125 319.7286376953125 359.0702819824219 306.2460021972656 359.15264892578125 C 269.6758117675781 345.6978454589844 289.83697509765625 342.5830383300781 268.0232238769531 341.53887939453125 C 279.48577880859375 324.5989990234375 290.6253356933594 320.8460693359375 300.4637145996094 314.7861328125 C 320.7337341308594 319.70721435546875 327.5435791015625 320.394775390625 339.53076171875 334.2311706542969" stroke-width="0.0" fill="rgb(246, 187, 115)" opacity="0.9514906" stroke="rgb(192, 129, 171)" stroke-opacity="0.47729257" stroke-linecap="round" stroke-linejoin="round"/>
    <path d="M 366.94854736328125 331.1979064941406 C 366.1936950683594 397.05316162109375 374.587890625 373.23541259765625 317.7479248046875 359.0373229980469 C 286.95477294921875 359.46490478515625 296.29669189453125 360.30816650390625 292.50958251953125 343.3353271484375 C 297.212646484375 311.7989501953125 294.44989013671875 307.2091064453125 334.9967346191406 328.7146911621094 C 338.90167236328125 331.3763427734375 336.0313720703125 269.5307312011719 366.94854736328125 331.1979064941406" stroke-width="0.0" fill="rgb(251, 176, 112)" opacity="0.96016556" stroke="rgb(195, 2, 236)" stroke-opacity="0.17417713" stroke-linecap="round" stroke-linejoin="round"/>
    <path d="M 368.991943359375 375.1766052246094 C 363.55462646484375 388.7218017578125 358.80242919921875 404.5952453613281 353.4978332519531 415.9612121582031 C 352.2662658691406 397.65716552734375 344.97552490234375 381.2091369628906 338.885498046875 366.75518798828125 C 328.6265563964844 347.4762268066406 331.8338928222656 352.93560791015625 344.138671875 360.95245361328125 C 355.79083251953125 368.85870361328125 363.0760803222656 372.41522216796875 368.991943359375 375.1766052246094" stroke-width="0.0" fill="rgb(243, 244, 255)" opacity="0.9126419" stroke="rgb(4, 211, 73)" stroke-opacity="0.9347648" stroke-linecap="round" stroke-linejoin="round"/>
    <path d="M 271.7433166503906 341.48663330078125 C 261.053466796875 341.52105712890625 258.10888671875 343.86383056640625 248.1671142578125 345.6668701171875 C 226.4752960205078 349.5142822265625 238.04022216796875 349.5257263183594 233.23130798339844 343.0915222167969 C 253.9436492919922 338.4636535644531 263.9856262207031 338.8768005371094 233.11529541015625 338.7432861328125 C 272.1431579589844 341.70843505859375 269.98309326171875 328.53961181640625 271.7433166503906 341.48663330078125" stroke-width="0.0" fill="rgb(19, 195, 208)" opacity="1.0" stroke="rgb(149, 34, 198)" stroke-opacity="0.24135746" stroke-linecap="round" stroke-linejoin="round"/>
    <path d="M 341.555419921875 371.887451171875 C 350.67449951171875 393.44097900390625 350.126953125 395.46453857421875 340.22015380859375 401.8717041015625 C 321.77264404296875 391.998779296875 310.73980712890625 383.6507873535156 261.0614929199219 345.2388000488281 C 298.0868225097656 353.7283020019531 296.5315856933594 368.59613037109375 323.5977783203125 355.3739929199219 C 336.1041564941406 347.2117919921875 334.03851318359375 358.37921142578125 341.555419921875 371.887451171875" stroke-width="0.0" fill="rgb(21, 93, 115)" opacity="0.8168648" stroke="rgb(188, 52, 32)" stroke-opacity="0.76125145" stroke-linecap="round" stroke-linejoin="round"/>
    <path d="M 149.4877471923828 299.4401550292969 C 130.77389526367188 324.95477294921875 188.0174102783203 321.697021484375 85.0547866821289 311.6494140625 C 81.66234588623047 315.0774230957031 86.32327270507812 286.46356201171875 111.09249114990234 266.93658447265625 C 121.57913208007812 294.6483154296875 123.29266357421875 299.1773681640625 106.55624389648438 254.95651245117188 C 159.4065704345703 252.72137451171875 138.4688262939453 250.2191925048828 149.4877471923828 299.4401550292969" stroke-width="0.0" fill="rgb(242, 241, 243)" opacity="1.0" stroke="rgb(167, 185, 222)" stroke-opacity="0.07245055" stroke-linecap="round" stroke-linejoin="round"/>
    <path d="M 282.0312805175781 167.98092651367188 C 281.9490661621094 168.96539306640625 280.5903625488281 176.06588745117188 267.2735595703125 175.44454956054688 C 262.03668212890625 175.6971893310547 260.3301696777344 171.82546997070312 259.12371826171875 171.19105529785156 C 259.9355163574219 170.8284912109375 259.8359375 170.946533203125 266.78179931640625 172.14671325683594 C 252.22706604003906 169.53707885742188 274.36566162109375 173.9947052001953 282.0312805175781 167.98092651367188" stroke-width="0.0" fill="rgb(244, 246, 254)" opacity="0.9529345" stroke="rgb(249, 103, 153)" stroke-opacity="0.086431086" stroke-linecap="round" stroke-linejoin="round"/>
    <path d="M 237.1547088623047 451.071533203125 C 264.35394287109375 444.1091003417969 309.2122497558594 445.870361328125 258.027587890625 455.6581115722656 C 208.74916076660156 468.3133544921875 242.12498474121094 466.1094665527344 179.4006805419922 458.1952209472656 C 189.10903930664062 446.04559326171875 203.8762664794922 427.60003662109375 233.3084259033203 433.6280212402344 C 259.8877258300781 450.3985290527344 209.13645935058594 446.01983642578125 237.1547088623047 451.071533203125" stroke-width="0.0" fill="rgb(246, 240, 237)" opacity="0.660252" stroke="rgb(123, 157, 29)" stroke-opacity="0.74169147" stroke-linecap="round" stroke-linejoin="round"/>
    <path d="M 396.2528076171875 316.1490478515625 C 397.1947021484375 321.81585693359375 393.6989440917969 323.3896484375 372.21343994140625 330.0234069824219 C 360.2486267089844 331.2578125 362.07684326171875 329.16571044921875 333.036865234375 328.0755615234375 C 226.02658081054688 163.41455078125 307.8438720703125 147.75833129882812 372.3678894042969 246.58502197265625 C 391.45062255859375 302.9323425292969 393.0552062988281 307.0826416015625 396.2528076171875 316.1490478515625" stroke-width="0.0" fill="rgb(21, 98, 119)" opacity="0.99695027" stroke="rgb(23, 97, 32)" stroke-opacity="0.20797901" stroke-linecap="round" stroke-linejoin="round"/>
    <path d="M 160.25450134277344 210.68353271484375 C 152.45460510253906 259.89239501953125 168.0709228515625 249.63597106933594 147.29396057128906 244.0198974609375 C 139.23475646972656 243.8654327392578 143.26449584960938 244.83128356933594 141.4108123779297 240.82423400878906 C 140.52023315429688 231.2637939453125 144.95240783691406 197.39231872558594 145.94662475585938 171.1400146484375 C 151.98011779785156 278.8050842285156 138.537109375 246.07644653320312 160.25450134277344 210.68353271484375" stroke-width="0.0" fill="rgb(32, 168, 179)" opacity="1.0" stroke="rgb(141, 186, 46)" stroke-opacity="0.31182048" stroke-linecap="round" stroke-linejoin="round"/>
    <path d="M 302.5196228027344 113.3569564819336 C 301.1409912109375 116.94107055664062 311.2312316894531 115.45016479492188 299.8016357421875 116.98758697509766 C 301.1005554199219 104.53106689453125 295.2088928222656 95.21744537353516 293.24554443359375 93.92506408691406 C 274.72222900390625 79.40621185302734 280.1224365234375 64.79780578613281 291.6032409667969 84.79170227050781 C 304.0099792480469 86.30398559570312 308.14288330078125 95.19851684570312 302.5196228027344 113.3569564819336" stroke-width="0.0" fill="rgb(47, 31, 67)" opacity="0.9831745" stroke="rgb(103, 139, 176)" stroke-opacity="0.22673088" stroke-linecap="round" stroke-linejoin="round"/>
    <path d="M 143.1263427734375 252.2691192626953 C 137.19415283203125 254.50140380859375 132.03622436523438 260.7714538574219 131.36427307128906 258.6770324707031 C 128.26480102539062 260.4034423828125 134.34060668945312 260.62835693359375 131.2757110595703 258.7536926269531 C 136.7593994140625 251.71847534179688 136.12167358398438 255.65403747558594 135.9842071533203 252.6778106689453 C 137.1158905029297 252.4412841796875 133.18446350097656 251.5321044921875 143.1263427734375 252.2691192626953" stroke-width="0.0" fill="rgb(233, 68, 15)" opacity="0.6709817" stroke="rgb(159, 11, 151)" stroke-opacity="0.31172943" stroke-linecap="round" stroke-linejoin="round"/>
    <path d="M 152.75088500976562 309.76483154296875 C 199.08119201660156 319.1334533691406 179.036376953125 322.8810729980469 159.19723510742188 319.110107421875 C 140.33152770996094 315.8957824707031 129.17898559570312 315.32696533203125 121.93379211425781 314.35467529296875 C 137.48587036132812 275.8922424316406 102.41068267822266 246.1363525390625 141.71104431152344 255.84548950195312 C 170.91224670410156 306.1753234863281 145.43447875976562 296.7146911621094 152.75088500976562 309.76483154296875" stroke-width="0.0" fill="rgb(255, 168, 86)" opacity="0.7958306" stroke="rgb(54, 2, 246)" stroke-opacity="0.26514992" stroke-linecap="round" stroke-linejoin="round"/>
    <path d="M 193.4756317138672 330.26104736328125 C 214.63587951660156 398.17742919921875 211.72052001953125 403.6095886230469 189.0151824951172 327.0267333984375 C 176.9801483154297 319.09490966796875 173.11831665039062 327.8343505859375 180.47312927246094 310.1884460449219 C 178.77682495117188 319.7001953125 182.17454528808594 305.9468994140625 184.42581176757812 298.31201171875 C 184.4136962890625 297.769775390625 188.83724975585938 309.8386535644531 193.4756317138672 330.26104736328125" stroke-width="0.0" fill="rgb(243, 242, 244)" opacity="0.977038" stroke="rgb(150, 18, 253)" stroke-opacity="0.45233986" stroke-linecap="round" stroke-linejoin="round"/>
    <path d="M 436.5653381347656 269.1059265136719 C 437.8799743652344 290.7282409667969 436.8942565917969 292.5844421386719 434.9417419433594 297.4250793457031 C 412.68353271484375 294.8175048828125 413.09844970703125 291.05877685546875 429.0509338378906 269.8056945800781 C 414.775390625 252.30552673339844 408.89337158203125 243.35267639160156 430.8996276855469 235.8402862548828 C 435.77984619140625 256.7538757324219 435.7021789550781 263.6809997558594 436.5653381347656 269.1059265136719" stroke-width="0.0" fill="rgb(242, 238, 244)" opacity="0.99507624" stroke="rgb(133, 147, 152)" stroke-opacity="0.44616956" stroke-linecap="round" stroke-linejoin="round"/>
    <path d="M 249.6409454345703 438.7593078613281 C 251.12118530273438 451.3009948730469 255.51083374023438 447.54046630859375 229.8019256591797 445.8579406738281 C 218.68191528320312 439.8106994628906 277.3170166015625 451.3460693359375 223.673095703125 440.60540771484375 C 248.10691833496094 441.1283264160156 259.6814270019531 443.5577697753906 226.8826141357422 438.5438232421875 C 218.582275390625 432.1059265136719 251.98167419433594 441.8868103027344 249.6409454345703 438.7593078613281" stroke-width="0.0" fill="rgb(46, 49, 67)" opacity="1.0" stroke="rgb(211, 106, 88)" stroke-opacity="0.809385" stroke-linecap="round" stroke-linejoin="round"/>
    <path d="M 234.0806884765625 177.5467529296875 C 234.15921020507812 196.0797882080078 228.02516174316406 197.7738037109375 239.80990600585938 226.9015350341797 C 148.01687622070312 295.0574951171875 103.28101348876953 218.31980895996094 218.9993133544922 182.28543090820312 C 221.38243103027344 178.4681854248047 223.68226623535156 172.87896728515625 228.45751953125 170.95448303222656 C 229.7093963623047 174.07801818847656 234.6916961669922 179.5181121826172 234.0806884765625 177.5467529296875" stroke-width="0.0" fill="rgb(21, 134, 150)" opacity="0.9847473" stroke="rgb(186, 244, 151)" stroke-opacity="0.6333833" stroke-linecap="round" stroke-linejoin="round"/>
    <path d="M 205.1398468017578 517.0782470703125 C 194.0706024169922 519.837646484375 190.7277069091797 520.1007690429688 178.1767120361328 517.5835571289062 C 173.84542846679688 520.6326904296875 171.148193359375 519.06884765625 143.1272430419922 537.5950927734375 C 79.53468322753906 455.48895263671875 40.997467041015625 465.2836608886719 325.30682373046875 466.040283203125 C 288.77532958984375 583.940673828125 211.6894073486328 514.7988891601562 205.1398468017578 517.0782470703125" stroke-width="0.0" fill="rgb(77, 123, 172)" opacity="1.0" stroke="rgb(124, 99, 252)" stroke-opacity="0.33950275" stroke-linecap="round" stroke-linejoin="round"/>
    <path d="M 344.2304382324219 326.6421813964844 C 345.465087890625 329.9134216308594 348.00848388671875 327.9578552246094 336.0679626464844 328.6097106933594 C 335.1177062988281 332.5651550292969 336.57745361328125 322.02752685546875 338.3446960449219 315.78863525390625 C 336.6024169921875 323.4828186035156 336.6335144042969 322.3416442871094 338.9659729003906 311.3623352050781 C 341.05523681640625 318.4472351074219 342.88604736328125 322.37322998046875 344.2304382324219 326.6421813964844" stroke-width="0.0" fill="rgb(231, 235, 239)" opacity="0.99834985" stroke="rgb(178, 10, 186)" stroke-opacity="0.9922199" stroke-linecap="round" stroke-linejoin="round"/>
    <path d="M 255.96630859375 129.17799377441406 C 257.24163818359375 132.62936401367188 241.57693481445312 131.6727752685547 237.4100341796875 135.65792846679688 C 232.23062133789062 134.34915161132812 234.9818878173828 134.4345245361328 234.8167724609375 133.48236083984375 C 244.30178833007812 124.22119903564453 240.54721069335938 128.85153198242188 256.0680847167969 124.54840087890625 C 254.0796356201172 125.90367126464844 258.2536926269531 120.73490142822266 255.96630859375 129.17799377441406" stroke-width="0.0" fill="rgb(31, 7, 46)" opacity="0.88628346" stroke="rgb(239, 221, 130)" stroke-opacity="0.2278209" stroke-linecap="round" stroke-linejoin="round"/>
    <path d="M 267.36260986328125 217.8308563232422 C 256.4328308105469 220.11033630371094 249.02638244628906 221.63746643066406 238.1219024658203 212.99337768554688 C 232.38906860351562 206.99000549316406 233.02676391601562 207.56796264648438 234.34800720214844 209.77529907226562 C 230.84996032714844 206.6476287841797 230.3527069091797 185.78076171875 232.63685607910156 189.29660034179688 C 250.18923950195312 187.4185791015625 242.14724731445312 194.76669311523438 267.36260986328125 217.8308563232422" stroke-width="0.0" fill="rgb(252, 190, 118)" opacity="0.98790216" stroke="rgb(191, 79, 233)" stroke-opacity="0.5558398" stroke-linecap="round" stroke-linejoin="round"/>
    <path d="M 436.02655029296875 304.4190673828125 C 436.1892395019531 297.8167724609375 437.15228271484375 306.1218566894531 430.5280456542969 332.786376953125 C 413.4021301269531 324.4232482910156 419.7223815917969 315.8778991699219 430.27362060546875 287.6236267089844 C 418.51959228515625 280.39813232421875 414.5033264160156 277.3256530761719 435.59405517578125 276.5465393066406 C 437.5441589355469 281.74627685546875 437.1557922363281 289.75140380859375 436.02655029296875 304.4190673828125" stroke-width="0.0" fill="rgb(243, 239, 244)" opacity="0.997273" stroke="rgb(237, 230, 195)" stroke-opacity="0.030470211" stroke-linecap="round" stroke-linejoin="round"/>
    <path d="M 161.82923889160156 269.88641357421875 C 160.01805114746094 266.12664794921875 160.21676635742188 279.2749328613281 159.2601318359375 278.8061218261719 C 139.7461395263672 285.41119384765625 149.14683532714844 275.42169189453125 143.28497314453125 257.51812744140625 C 134.12135314941406 254.91444396972656 140.85922241210938 246.52525329589844 158.40707397460938 257.4586181640625 C 161.38543701171875 266.18389892578125 155.16583251953125 259.7156982421875 161.82923889160156 269.88641357421875" stroke-width="0.0" fill="rgb(251, 177, 111)" opacity="0.95448303" stroke="rgb(69, 45, 214)" stroke-opacity="0.4564444" stroke-linecap="round" stroke-linejoin="round"/>
    <path d="M 248.4909210205078 147.1015167236328 C 248.79844665527344 146.201904296875 241.2700958251953 147.72470092773438 239.8356170654297 146.89768981933594 C 239.79165649414062 145.06402587890625 240.16209411621094 148.58636474609375 240.51852416992188 143.8995361328125 C 242.21319580078125 138.35272216796875 248.99783325195312 135.3734588623047 254.1180419921875 144.0341796875 C 248.35171508789062 140.2883758544922 247.66001892089844 131.781982421875 248.4909210205078 147.1015167236328" stroke-width="0.0" fill="rgb(236, 233, 235)" opacity="1.0" stroke="rgb(243, 249, 227)" stroke-opacity="0.83823323" stroke-linecap="round" stroke-linejoin="round"/>
    <path d="M 130.22230529785156 294.9017333984375 C 130.1501007080078 294.7971496582031 131.01210021972656 301.71136474609375 121.66948699951172 311.25164794921875 C 99.59048461914062 318.26446533203125 118.46917724609375 311.4510803222656 124.48543548583984 293.6944580078125 C 121.02169036865234 295.2151794433594 120.25383758544922 284.6069030761719 123.9779281616211 274.35186767578125 C 127.00186920166016 281.8290710449219 131.3889923095703 299.0983581542969 130.22230529785156 294.9017333984375" stroke-width="0.0" fill="rgb(241, 239, 240)" opacity="0.9814008" stroke="rgb(41, 53, 128)" stroke-opacity="0.7381427" stroke-linecap="round" stroke-linejoin="round"/>
    <path d="M 299.08331298828125 122.90387725830078 C 296.4062194824219 126.02147674560547 290.6567077636719 124.97689819335938 296.47564697265625 124.45893859863281 C 284.1866149902344 123.19047546386719 279.4453430175781 129.1776580810547 280.49053955078125 118.96479034423828 C 276.9999084472656 119.38646697998047 292.67169189453125 118.31758117675781 294.37646484375 119.351318359375 C 289.6388854980469 117.7444839477539 292.2314453125 117.61544036865234 299.08331298828125 122.90387725830078" stroke-width="0.0" fill="rgb(21, 4, 48)" opacity="0.85303867" stroke="rgb(219, 168, 189)" stroke-opacity="0.42699894" stroke-linecap="round" stroke-linejoin="round"/>
    <path d="M 142.14971923828125 242.63641357421875 C 140.67947387695312 242.45318603515625 145.4514617919922 244.3563690185547 140.18617248535156 243.22109985351562 C 124.39859008789062 243.01220703125 125.60413360595703 243.36599731445312 129.53724670410156 241.89280700683594 C 137.83998107910156 238.1459197998047 142.17581176757812 237.16253662109375 141.93759155273438 213.4502716064453 C 142.9664764404297 216.44032287597656 142.0341033935547 233.7726593017578 142.14971923828125 242.63641357421875" stroke-width="0.0" fill="rgb(244, 247, 255)" opacity="0.8667352" stroke="rgb(26, 164, 154)" stroke-opacity="0.9341281" stroke-linecap="round" stroke-linejoin="round"/>
    <path d="M 288.10943603515625 130.4240264892578 C 288.71527099609375 137.95901489257812 289.4632568359375 143.19435119628906 289.4670104980469 139.069091796875 C 279.242431640625 141.79954528808594 283.6862487792969 141.7881622314453 282.003662109375 136.35610961914062 C 283.9490051269531 138.5661163330078 282.2492370605469 136.7642364501953 282.9482727050781 137.9044952392578 C 281.632080078125 138.919189453125 282.7479248046875 135.8062286376953 288.10943603515625 130.4240264892578" stroke-width="0.0" fill="rgb(236, 232, 232)" opacity="1.0" stroke="rgb(23, 224, 190)" stroke-opacity="0.33124435" stroke-linecap="round" stroke-linejoin="round"/>
    <path d="M 461.8397216796875 353.6990051269531 C 443.3540954589844 357.27978515625 427.7016296386719 357.8991394042969 459.3772888183594 354.4627380371094 C 448.4145202636719 353.8638000488281 441.848876953125 356.13861083984375 421.7550354003906 357.6962890625 C 431.1009826660156 335.6854248046875 432.6971740722656 321.82122802734375 432.6001892089844 325.02587890625 C 438.9486083984375 361.14337158203125 452.92718505859375 343.5939025878906 461.8397216796875 353.6990051269531" stroke-width="0.0" fill="rgb(77, 122, 170)" opacity="0.96666855" stroke="rgb(63, 118, 149)" stroke-opacity="0.91947365" stroke-linecap="round" stroke-linejoin="round"/>
    <path d="M 435.4966125488281 247.23300170898438 C 433.0728454589844 247.4041748046875 432.76336669921875 243.2701416015625 429.3564147949219 230.8585662841797 C 425.9634704589844 220.48883056640625 424.4105529785156 213.408447265625 427.03826904296875 224.77377319335938 C 426.2873229980469 220.5738525390625 419.06475830078125 202.66412353515625 414.428466796875 195.2266387939453 C 431.83929443359375 209.00807189941406 434.2008361816406 211.4558868408203 435.4966125488281 247.23300170898438" stroke-width="0.0" fill="rgb(77, 123, 171)" opacity="0.9980962" stroke="rgb(44, 164, 37)" stroke-opacity="0.44448486" stroke-linecap="round" stroke-linejoin="round"/>
    <path d="M 147.8990936279297 214.1620330810547 C 147.6034393310547 227.8275909423828 147.29745483398438 235.67398071289062 146.89918518066406 245.12338256835938 C 150.3962860107422 227.7080078125 156.46060180664062 222.0867919921875 152.78192138671875 218.33795166015625 C 151.8836669921875 235.40834045410156 151.8802490234375 230.4759063720703 152.610595703125 223.53631591796875 C 152.47520446777344 223.05474853515625 148.38180541992188 236.8814697265625 147.8990936279297 214.1620330810547" stroke-width="0.0" fill="rgb(243, 251, 255)" opacity="0.86260486" stroke="rgb(7, 88, 161)" stroke-opacity="0.31029406" stroke-linecap="round" stroke-linejoin="round"/>
    <path d="M 246.14498901367188 443.0596923828125 C 250.11390686035156 436.8667297363281 251.88063049316406 443.2464294433594 240.30125427246094 437.90057373046875 C 273.9552307128906 442.4730224609375 273.4671936035156 440.8792724609375 261.6202087402344 443.8297424316406 C 265.9052734375 442.423095703125 267.5010986328125 443.2290344238281 253.06600952148438 442.6324462890625 C 253.3061981201172 441.5356140136719 258.324462890625 439.2022399902344 246.14498901367188 443.0596923828125" stroke-width="0.0" fill="rgb(41, 45, 64)" opacity="0.9524371" stroke="rgb(194, 165, 214)" stroke-opacity="0.89892614" stroke-linecap="round" stroke-linejoin="round"/>
    <path d="M 114.10260772705078 455.10260009765625 C 106.45609283447266 450.7398986816406 114.31446838378906 449.74969482421875 108.5531997680664 448.4986572265625 C 125.98602294921875 451.8305969238281 125.55764770507812 449.94854736328125 124.47509002685547 453.0706481933594 C 123.68463134765625 452.97564697265625 126.15441131591797 454.4017333984375 110.2486572265625 451.0979919433594 C 111.16659545898438 453.5647277832031 112.9207992553711 454.2862243652344 114.10260772705078 455.10260009765625" stroke-width="0.0" fill="rgb(37, 48, 76)" opacity="0.93244493" stroke="rgb(68, 38, 60)" stroke-opacity="0.02034269" stroke-linecap="round" stroke-linejoin="round"/>
    <path d="M 257.4220886230469 258.59442138671875 C 258.61431884765625 256.1298828125 256.5409240722656 259.2705993652344 258.6360168457031 256.8528137207031 C 251.60736083984375 259.8038024902344 256.3360595703125 251.02992248535156 253.98191833496094 258.54595947265625 C 255.13865661621094 241.06988525390625 251.99301147460938 244.81280517578125 258.163330078125 243.6083984375 C 258.6809997558594 241.8068084716797 259.4958190917969 253.88304138183594 257.4220886230469 258.59442138671875" stroke-width="0.0" fill="rgb(255, 185, 41)" opacity="0.94546694" stroke="rgb(71, 153, 181)" stroke-opacity="0.5628607" stroke-linecap="round" stroke-linejoin="round"/>
    <path d="M 218.10316467285156 467.2490539550781 C 215.62948608398438 464.1971740722656 224.0726776123047 469.1784973144531 225.66831970214844 465.099365234375 C 216.5166778564453 463.7086181640625 204.7077178955078 460.1388854980469 210.37904357910156 465.04241943359375 C 219.42654418945312 466.304931640625 222.05194091796875 466.0851135253906 224.97314453125 467.0681457519531 C 211.397216796875 466.7078552246094 213.3018798828125 464.3153991699219 218.10316467285156 467.2490539550781" stroke-width="0.0" fill="rgb(45, 27, 57)" opacity="0.9050857" stroke="rgb(20, 99, 72)" stroke-opacity="0.41278383" stroke-linecap="round" stroke-linejoin="round"/>
  </g>
</svg>
