<?xml version="1.0" ?>
<svg xmlns="http://www.w3.org/2000/svg" version="1.1" width="512" height="512">
  <defs/>
  <g>
    <path d="M 219.0023193359375 136.56170654296875 C 197.59999084472656 139.73255920410156 208.05531311035156 104.71095275878906 206.35353088378906 119.78717041015625 C 102.55450439453125 152.0858917236328 183.3142547607422 186.92884826660156 1.6339393854141235 300.6659851074219 C 5.052141189575195 -73.34246826171875 53.43067169189453 -58.146400451660156 425.03387451171875 11.189053535461426 C 343.6545104980469 155.5432891845703 256.9965515136719 57.00918960571289 219.0023193359375 136.56170654296875" stroke-width="0.0" fill="rgb(50, 103, 167)" opacity="0.7590381" stroke="rgb(247, 92, 236)" stroke-opacity="0.40753144" stroke-linecap="round" stroke-linejoin="round"/>
    <path d="M 215.0456085205078 322.5782165527344 C 226.12095642089844 499.5615539550781 268.2323303222656 463.86358642578125 104.37103271484375 448.5205993652344 C 102.61045837402344 448.1744079589844 91.17632293701172 418.18682861328125 54.9860954284668 305.01849365234375 C 121.01406860351562 322.76727294921875 36.56917190551758 280.0751037597656 121.72930908203125 165.67337036132812 C 120.48272705078125 324.8502197265625 131.1171875 320.96868896484375 215.0456085205078 322.5782165527344" stroke-width="0.0" fill="rgb(219, 234, 255)" opacity="0.70886886" stroke="rgb(55, 240, 61)" stroke-opacity="0.3829383" stroke-linecap="round" stroke-linejoin="round"/>
    <path d="M 403.31787109375 265.0993347167969 C 380.5769348144531 352.04583740234375 247.19371032714844 351.8348083496094 366.3626403808594 419.1972351074219 C 160.61251831054688 407.3294372558594 241.66494750976562 458.6413269042969 184.38902282714844 300.4498291015625 C 151.75973510742188 383.3524475097656 121.22389221191406 101.22868347167969 223.7801513671875 189.44091796875 C 296.0779113769531 336.847412109375 242.98487854003906 59.51493835449219 403.31787109375 265.0993347167969" stroke-width="0.0" fill="rgb(0, 105, 128)" opacity="0.83501846" stroke="rgb(253, 36, 91)" stroke-opacity="0.6166896" stroke-linecap="round" stroke-linejoin="round"/>
    <path d="M 517.505615234375 525.8312377929688 C 430.4404602050781 493.9576721191406 409.4279479980469 448.7983703613281 405.28253173828125 398.4983825683594 C 437.84613037109375 324.87164306640625 427.8746337890625 320.34393310546875 429.8274230957031 313.2578125 C 434.14569091796875 313.7828674316406 414.4330749511719 396.8431701660156 296.08453369140625 41.216487884521484 C 644.3246459960938 35.34034729003906 557.3355102539062 72.47612762451172 517.505615234375 525.8312377929688" stroke-width="0.0" fill="rgb(76, 124, 173)" opacity="0.96372634" stroke="rgb(199, 163, 7)" stroke-opacity="0.10454009" stroke-linecap="round" stroke-linejoin="round"/>
    <path d="M 429.5609436035156 214.5094451904297 C 433.84197998046875 323.67864990234375 433.6531982421875 366.2020263671875 408.7430725097656 360.1242980957031 C 371.1083068847656 237.02301025390625 363.47210693359375 214.3973846435547 348.6308288574219 203.58387756347656 C 277.7281799316406 178.86935424804688 308.7257995605469 174.4553680419922 299.7757568359375 116.82159423828125 C 400.640869140625 136.427734375 405.8719482421875 197.2356719970703 429.5609436035156 214.5094451904297" stroke-width="0.0" fill="rgb(255, 246, 247)" opacity="0.90237844" stroke="rgb(71, 53, 35)" stroke-opacity="0.3497303" stroke-linecap="round" stroke-linejoin="round"/>
    <path d="M 229.03451538085938 167.66455078125 C 215.5021514892578 193.54637145996094 181.08448791503906 188.3320770263672 160.17864990234375 211.24998474121094 C 153.4571990966797 221.242919921875 156.3068084716797 232.82418823242188 81.9340591430664 290.68194580078125 C 75.68899536132812 188.73318481445312 139.32383728027344 137.92559814453125 189.6190185546875 124.25543212890625 C 227.25767517089844 109.87187194824219 177.21310424804688 159.64308166503906 229.03451538085938 167.66455078125" stroke-width="0.0" fill="rgb(243, 241, 244)" opacity="0.9680137" stroke="rgb(81, 170, 89)" stroke-opacity="0.9459461" stroke-linecap="round" stroke-linejoin="round"/>
    <path d="M 482.4251708984375 523.0036010742188 C 454.36419677734375 525.1989135742188 443.7230529785156 531.1643676757812 214.7996826171875 509.2921142578125 C 263.2445983886719 432.7254638671875 302.6391296386719 445.6668395996094 348.0840759277344 428.830810546875 C 387.8577575683594 343.72076416015625 347.9401550292969 369.7234802246094 431.7675476074219 355.647216796875 C 461.36627197265625 350.4215087890625 469.9869384765625 354.9432067871094 482.4251708984375 523.0036010742188" stroke-width="0.0" fill="rgb(31, 37, 93)" opacity="0.7717583" stroke="rgb(164, 52, 65)" stroke-opacity="0.7148071" stroke-linecap="round" stroke-linejoin="round"/>
  </g>
</svg>
