<?xml version="1.0" ?>
<svg xmlns="http://www.w3.org/2000/svg" version="1.1" width="512" height="512">
  <defs/>
  <g>
    <path d="M -10.0 -10.0 C -9.0 -10.0 512.0 0.0 513.0 0.0 C 514.0 0.0 512.0 512.0 513.0 512.0 C 513.0 513.0 0.0 512.0 0.0 513.0 C 0.0 512.0 0.0 513.0 -10.0 -10.0 L -10.0 -10.0" stroke-width="2.0" fill="rgb(244, 212, 166)" opacity="0.72947675"/>
    <path d="M 497.4752502441406 244.4014129638672 C 495.4228820800781 242.354248046875 498.29345703125 242.16586303710938 487.41497802734375 262.1183166503906 C 476.2112121582031 261.729248046875 487.8204040527344 258.21636962890625 480.9355773925781 269.2071228027344 C 476.1081848144531 211.3206787109375 477.9668273925781 193.5814666748047 479.467529296875 86.50283813476562 C 526.0294799804688 96.18202209472656 489.73638916015625 106.61359405517578 497.57012939453125 112.86910247802734 L 497.4752502441406 244.4014129638672" stroke-width="2.0" fill="rgb(15, 51, 70)" opacity="0.94651777"/>
    <path d="M 383.3567810058594 29.76905632019043 C 341.6230163574219 26.314701080322266 359.26947021484375 22.82143211364746 351.50732421875 67.4643783569336 C 353.8306579589844 65.82943725585938 353.5599365234375 45.092529296875 354.1926574707031 31.92572021484375 C 298.8200988769531 28.296600341796875 289.087158203125 34.26641082763672 288.608154296875 14.30234432220459 C 370.4545593261719 14.004085540771484 376.1333923339844 12.820438385009766 400.60498046875 17.616561889648438 L 383.3567810058594 29.76905632019043" stroke-width="2.0" fill="rgb(84, 81, 74)" opacity="0.57038444"/>
    <path d="M 209.3089599609375 355.6647644042969 C 208.9427947998047 348.84515380859375 211.58251953125 355.8929748535156 209.91139221191406 353.0005798339844 C 164.27651977539062 339.879150390625 158.43675231933594 338.9126281738281 118.13130187988281 327.36614990234375 C 118.54373931884766 262.74945068359375 119.4557876586914 250.9607696533203 133.300048828125 272.7348327636719 C 209.0849151611328 277.52276611328125 208.52890014648438 242.59701538085938 209.3376922607422 252.77554321289062 L 209.3089599609375 355.6647644042969" stroke-width="2.0" fill="rgb(11, 6, 15)" opacity="0.65330464"/>
    <path d="M 6.5870137214660645 247.90261840820312 C 6.919722080230713 249.12074279785156 6.2110819816589355 247.71560668945312 7.806637763977051 247.45584106445312 C 8.767510414123535 249.04000854492188 7.139405727386475 247.29299926757812 8.0252685546875 246.20668029785156 C 6.902153968811035 248.5038299560547 9.55859088897705 246.53334045410156 6.914994716644287 247.7852325439453 C 7.16949987411499 247.2976837158203 7.5111918449401855 248.78260803222656 7.075142860412598 247.59359741210938 L 6.5870137214660645 247.90261840820312" stroke-width="2.0" fill="rgb(254, 75, 240)" opacity="0.057829417"/>
    <path d="M 392.5935363769531 225.5238800048828 C 360.4073486328125 75.38748931884766 349.9981689453125 79.86788177490234 353.9952087402344 88.9976806640625 C 291.02569580078125 73.83270263671875 281.3165283203125 72.66292572021484 257.56915283203125 86.22208404541016 C 186.0819549560547 65.60743713378906 154.52027893066406 82.8447265625 141.30038452148438 16.61511993408203 C 330.0965270996094 13.008783340454102 360.3319091796875 6.849578857421875 544.3919677734375 45.41868591308594 L 392.5935363769531 225.5238800048828" stroke-width="2.0" fill="rgb(244, 106, 0)" opacity="0.51284224"/>
    <path d="M 302.3226013183594 187.73390197753906 C 306.1353759765625 196.05242919921875 263.3809509277344 190.60264587402344 255.87240600585938 191.95193481445312 C 168.37535095214844 191.96414184570312 163.05599975585938 191.8933868408203 221.67352294921875 214.1116943359375 C 223.4364013671875 175.84097290039062 206.47059631347656 160.16419982910156 204.07862854003906 128.40660095214844 C 252.9940185546875 124.38522338867188 210.7021484375 131.9931182861328 217.4217071533203 186.56790161132812 L 302.3226013183594 187.73390197753906" stroke-width="2.0" fill="rgb(221, 7, 14)" opacity="0.5356262"/>
    <path d="M 9.40965747833252 259.54815673828125 C 10.262588500976562 259.91326904296875 9.350295066833496 259.4919128417969 9.820180892944336 259.69256591796875 C 10.23811149597168 259.7110290527344 9.978859901428223 259.8847961425781 10.286534309387207 259.75048828125 C 9.51855182647705 259.79791259765625 11.144670486450195 259.79034423828125 10.127920150756836 259.7959289550781 C 9.812108039855957 259.47265625 9.877409934997559 259.9597473144531 9.113882064819336 259.2543640136719 L 9.40965747833252 259.54815673828125" stroke-width="2.0" fill="rgb(36, 73, 170)" opacity="0.01579387"/>
    <path d="M 33.61954879760742 323.5518798828125 C 31.85042381286621 307.46673583984375 32.70475387573242 306.6133117675781 32.557315826416016 347.2951965332031 C 8.324049949645996 348.3277587890625 16.83180046081543 343.2237243652344 14.42869758605957 340.37957763671875 C 14.65881633758545 279.8605041503906 13.96526050567627 276.8315734863281 15.568901062011719 252.04425048828125 C 41.16765213012695 254.0949249267578 29.345436096191406 260.3746337890625 33.85612487792969 262.0276184082031 L 33.61954879760742 323.5518798828125" stroke-width="2.0" fill="rgb(0, 34, 59)" opacity="0.8747452"/>
    <path d="M 466.5307922363281 496.8371887207031 C 400.0163879394531 496.7340087890625 398.77496337890625 497.2395324707031 419.7831726074219 496.24493408203125 C 404.7669677734375 497.1880798339844 381.4774169921875 496.7529296875 324.7818603515625 497.0170593261719 C 331.6860046386719 469.8193054199219 343.0365905761719 485.76715087890625 353.9616394042969 476.92681884765625 C 415.4497375488281 477.55914306640625 423.1942138671875 476.1781311035156 466.7408142089844 477.9687194824219 L 466.5307922363281 496.8371887207031" stroke-width="2.0" fill="rgb(7, 49, 72)" opacity="0.94084525"/>
    <path d="M 466.7684631347656 90.37995910644531 C 463.5601501464844 102.53184509277344 462.1476745605469 113.09249877929688 417.5865173339844 120.53569030761719 C 367.25701904296875 125.40845489501953 375.1186828613281 132.47508239746094 357.81842041015625 139.02667236328125 C 357.5431213378906 54.169761657714844 356.5242614746094 57.276241302490234 348.1346435546875 44.79240417480469 C 434.7615966796875 44.812339782714844 447.78851318359375 45.394378662109375 466.1838073730469 44.62375259399414 L 466.7684631347656 90.37995910644531" stroke-width="2.0" fill="rgb(15, 163, 201)" opacity="0.75172293"/>
    <path d="M 32.86319351196289 222.3963165283203 C 31.12590217590332 204.59217834472656 33.260684967041016 208.4759521484375 32.72917938232422 241.5102081298828 C 21.12984848022461 240.49107360839844 49.028682708740234 241.00570678710938 15.49822998046875 262.67205810546875 C 15.073970794677734 211.4843292236328 13.087835311889648 178.25152587890625 14.947071075439453 120.3309326171875 C 34.2501220703125 127.94747924804688 34.136314392089844 140.50393676757812 32.6844596862793 160.91331481933594 L 32.86319351196289 222.3963165283203" stroke-width="2.0" fill="rgb(0, 39, 63)" opacity="0.89191216"/>
    <path d="M 465.8956604003906 294.2109375 C 415.7898864746094 263.5486145019531 423.0899963378906 256.0401611328125 426.59906005859375 279.1541442871094 C 308.8775634765625 266.1420593261719 302.84771728515625 248.17530822753906 393.1930847167969 256.292724609375 C 388.74749755859375 213.58966064453125 408.8876037597656 228.9654083251953 377.49462890625 222.7429962158203 C 355.2828369140625 209.66897583007812 466.8929443359375 192.4755096435547 467.8274841308594 202.01919555664062 L 465.8956604003906 294.2109375" stroke-width="2.0" fill="rgb(244, 143, 62)" opacity="0.75320727"/>
    <path d="M 466.6591796875 143.1268768310547 C 417.1594543457031 151.7174835205078 418.9210510253906 149.62796020507812 414.5672607421875 153.54798889160156 C 384.2570495605469 171.77001953125 430.445556640625 182.66162109375 359.3584899902344 166.82508850097656 C 359.17706298828125 107.87065124511719 362.38238525390625 112.00397491455078 368.6652526855469 124.47169494628906 C 472.44647216796875 119.83417510986328 466.35626220703125 101.45073699951172 466.56427001953125 77.08584594726562 L 466.6591796875 143.1268768310547" stroke-width="2.0" fill="rgb(17, 156, 234)" opacity="0.81956136"/>
    <path d="M 152.65109252929688 436.96002197265625 C 228.023681640625 416.6822509765625 276.111083984375 419.4721374511719 273.94818115234375 416.1893310546875 C 269.86871337890625 423.11065673828125 257.5116882324219 409.9588317871094 313.1629638671875 419.6131896972656 C 314.3944091796875 443.58538818359375 308.1427917480469 440.7784118652344 288.16754150390625 441.77294921875 C 219.84902954101562 454.301513671875 239.58929443359375 475.2181091308594 144.43382263183594 463.78070068359375 L 152.65109252929688 436.96002197265625" stroke-width="2.0" fill="rgb(251, 229, 204)" opacity="0.7815972"/>
    <path d="M 181.39373779296875 364.2795104980469 C 179.53997802734375 373.16314697265625 185.2620391845703 375.1321105957031 176.2076416015625 373.9267272949219 C 173.9908905029297 371.77337646484375 166.6774444580078 370.3264465332031 60.0898551940918 329.05987548828125 C 65.64321899414062 320.0408935546875 142.5570526123047 353.814208984375 185.41664123535156 364.62982177734375 C 154.4898681640625 356.2275085449219 169.53878784179688 358.4028625488281 164.5941925048828 358.0090637207031 L 181.39373779296875 364.2795104980469" stroke-width="2.0" fill="rgb(206, 20, 62)" opacity="0.91768545"/>
    <path d="M 78.9841537475586 426.6788330078125 C 88.1133804321289 420.2969970703125 89.4013900756836 429.91845703125 80.45313262939453 464.6488037109375 C 40.971275329589844 464.3199157714844 47.61700439453125 473.6029968261719 48.91389465332031 439.7982177734375 C 46.90436553955078 383.7002258300781 41.08864212036133 366.57513427734375 54.39887619018555 355.4798278808594 C 96.93928527832031 390.6108703613281 86.15001678466797 419.27813720703125 79.01957702636719 426.2210998535156 L 78.9841537475586 426.6788330078125" stroke-width="2.0" fill="rgb(94, 66, 5)" opacity="0.4624795"/>
    <path d="M 278.2717590332031 32.19743347167969 C 202.6590576171875 32.38001251220703 196.69204711914062 32.11942672729492 184.30865478515625 32.16416931152344 C 206.8309783935547 32.28176498413086 205.68930053710938 32.137977600097656 107.15636444091797 32.335357666015625 C 114.47241973876953 0.22648878395557404 132.6604766845703 28.172067642211914 115.38275909423828 13.422563552856445 C 205.35189819335938 12.741903305053711 243.22125244140625 13.60854721069336 278.7798156738281 12.909051895141602 L 278.2717590332031 32.19743347167969" stroke-width="2.0" fill="rgb(0, 71, 115)" opacity="1.0"/>
    <path d="M 497.62103271484375 382.2409973144531 C 497.67462158203125 372.1834716796875 499.2998352050781 386.6823425292969 495.6322021484375 401.5538024902344 C 428.28485107421875 414.213134765625 448.79541015625 427.8446350097656 442.0128173828125 424.13916015625 C 436.80157470703125 350.5801696777344 470.08441162109375 352.1802978515625 482.4263916015625 350.7880554199219 C 473.7120666503906 319.65234375 489.7137756347656 319.17718505859375 497.8975524902344 325.8666076660156 L 497.62103271484375 382.2409973144531" stroke-width="2.0" fill="rgb(0, 39, 61)" opacity="0.8878454"/>
    <path d="M 37.903587341308594 217.56405639648438 C 36.682498931884766 244.61917114257812 37.07185745239258 236.38626098632812 43.16532516479492 207.77716064453125 C 28.1684513092041 261.67633056640625 45.790870666503906 267.5697326660156 14.366539001464844 270.40667724609375 C 14.61275577545166 169.96029663085938 11.745138168334961 156.29034423828125 34.28689193725586 150.58203125 C 34.307498931884766 194.75950622558594 34.30182647705078 241.77154541015625 34.40755081176758 262.1468505859375 L 37.903587341308594 217.56405639648438" stroke-width="2.0" fill="rgb(27, 59, 76)" opacity="0.73958206"/>
    <path d="M 239.6476287841797 400.2884826660156 C 241.1425018310547 406.5672302246094 235.14556884765625 396.9005432128906 217.25631713867188 421.6501770019531 C 260.04046630859375 416.3686218261719 267.38671875 418.5739440917969 268.3251037597656 414.0861511230469 C 250.98667907714844 415.0763854980469 249.63082885742188 415.48114013671875 249.4918212890625 414.7082214355469 C 260.37713623046875 415.7394714355469 263.9337463378906 416.5631408691406 262.73541259765625 397.2319030761719 L 239.6476287841797 400.2884826660156" stroke-width="2.0" fill="rgb(192, 139, 27)" opacity="0.42431393"/>
    <path d="M 132.86712646484375 334.87249755859375 C 89.73760986328125 301.918212890625 160.5469512939453 299.12249755859375 73.72860717773438 301.1388244628906 C 33.404720306396484 281.4388427734375 106.99736022949219 327.6970520019531 46.48862838745117 372.8269348144531 C 43.5572509765625 225.30606079101562 41.97099304199219 298.1007385253906 71.98709106445312 267.2101745605469 C 138.468505859375 265.7929382324219 43.3858642578125 293.5218505859375 131.3227081298828 250.12698364257812 L 132.86712646484375 334.87249755859375" stroke-width="2.0" fill="rgb(0, 41, 90)" opacity="1.0"/>
    <path d="M 417.6378479003906 274.4073791503906 C 408.62847900390625 263.22515869140625 412.380859375 276.9556579589844 411.1411437988281 314.891845703125 C 405.849853515625 315.7790832519531 406.0704040527344 319.4939270019531 393.00103759765625 311.4047546386719 C 393.6080322265625 283.9875793457031 392.82208251953125 258.332763671875 393.7474060058594 261.6595153808594 C 420.7642517089844 290.27520751953125 400.523193359375 282.791259765625 437.0435485839844 255.42735290527344 L 417.6378479003906 274.4073791503906" stroke-width="2.0" fill="rgb(14, 49, 68)" opacity="0.93444985"/>
    <path d="M 508.35968017578125 134.24591064453125 C 473.55841064453125 121.514404296875 479.6528625488281 157.84286499023438 479.3275451660156 43.47724151611328 C 478.320556640625 24.11252784729004 490.0964050292969 37.748321533203125 420.7407531738281 29.817495346069336 C 373.98907470703125 32.726905822753906 373.9839172363281 27.166093826293945 379.3811340332031 13.06583023071289 C 511.00347900390625 13.448675155639648 499.5408630371094 12.403131484985352 498.2059631347656 14.493425369262695 L 508.35968017578125 134.24591064453125" stroke-width="2.0" fill="rgb(25, 59, 77)" opacity="0.9964526"/>
    <path d="M 466.219482421875 95.64398956298828 C 456.3898010253906 117.8743896484375 432.222412109375 117.44335174560547 402.36053466796875 122.59819030761719 C 340.7901916503906 131.46389770507812 338.961669921875 135.58799743652344 326.2277526855469 135.62913513183594 C 329.31475830078125 37.37137985229492 332.2447814941406 55.56004333496094 338.73248291015625 44.2166633605957 C 410.8621520996094 44.45000076293945 421.3463134765625 43.6053581237793 467.134521484375 44.58684539794922 L 466.219482421875 95.64398956298828" stroke-width="2.0" fill="rgb(51, 153, 218)" opacity="0.62219197"/>
    <path d="M 364.9256286621094 173.89967346191406 C 437.5224304199219 173.43722534179688 376.6337585449219 176.343994140625 418.9632873535156 150.60951232910156 C 481.6820068359375 141.1797332763672 462.65936279296875 139.07403564453125 466.40972900390625 173.05191040039062 C 479.1360168457031 222.69970703125 447.939208984375 184.85963439941406 438.129638671875 206.96873474121094 C 403.3584289550781 204.144287109375 395.2656555175781 196.80677795410156 369.86639404296875 219.08180236816406 L 364.9256286621094 173.89967346191406" stroke-width="2.0" fill="rgb(250, 230, 200)" opacity="0.997911"/>
    <path d="M 236.7502899169922 362.7502136230469 C 237.6561279296875 359.0853576660156 219.82186889648438 364.39434814453125 196.8091583251953 358.8770446777344 C 184.92079162597656 323.1610412597656 187.44248962402344 395.3319396972656 187.14901733398438 264.9231262207031 C 206.8482208251953 265.10736083984375 190.07872009277344 208.53118896484375 195.87010192871094 374.5697326660156 C 246.0477294921875 293.91265869140625 236.025634765625 275.4642028808594 235.8684539794922 333.5354309082031 L 236.7502899169922 362.7502136230469" stroke-width="2.0" fill="rgb(255, 144, 72)" opacity="0.8478876"/>
    <path d="M 208.7747039794922 438.3442077636719 C 209.92169189453125 439.00897216796875 209.78810119628906 438.8961486816406 209.43557739257812 436.6240234375 C 210.1305694580078 436.0783996582031 210.82191467285156 432.31158447265625 221.89280700683594 439.08795166015625 C 213.62173461914062 445.32537841796875 214.6937255859375 440.2655334472656 213.9763946533203 445.4320068359375 C 209.7359619140625 442.6990051269531 211.74485778808594 445.9216003417969 202.14230346679688 448.119140625 L 208.7747039794922 438.3442077636719" stroke-width="2.0" fill="rgb(207, 0, 171)" opacity="0.013349406"/>
    <path d="M 371.0102844238281 267.8617858886719 C 370.3912048339844 340.8010559082031 372.845703125 354.7524719238281 366.1064453125 341.40966796875 C 369.2270202636719 285.05682373046875 373.5352478027344 260.5314025878906 364.7953796386719 307.3302307128906 C 362.2078857421875 332.9440612792969 363.42596435546875 312.1579895019531 363.2459716796875 270.0299377441406 C 383.4893798828125 261.2837219238281 355.3887634277344 305.0634765625 365.2731018066406 349.5081787109375 L 371.0102844238281 267.8617858886719" stroke-width="2.0" fill="rgb(238, 72, 11)" opacity="0.9504096"/>
    <path d="M 84.10710144042969 158.07717895507812 C 83.45272064208984 158.3114471435547 82.86113739013672 158.43983459472656 83.87569427490234 158.1190643310547 C 82.67987060546875 158.64366149902344 81.4847183227539 158.9654541015625 86.06585693359375 157.3620147705078 C 82.626220703125 158.49273681640625 84.9851303100586 157.58984375 84.44246673583984 157.77171325683594 C 86.60911560058594 155.34471130371094 85.25039672851562 157.02517700195312 83.9827651977539 158.19908142089844 L 84.10710144042969 158.07717895507812" stroke-width="2.0" fill="rgb(77, 174, 196)" opacity="0.093986765"/>
    <path d="M 249.29673767089844 213.8449249267578 C 243.43966674804688 215.54185485839844 274.2514953613281 210.78761291503906 298.2051696777344 220.4701690673828 C 173.8498077392578 212.19168090820312 -12.197823524475098 258.25592041015625 234.46408081054688 198.01515197753906 C 238.6995849609375 218.5191650390625 230.2194366455078 213.93492126464844 241.99497985839844 214.3482666015625 C 238.712158203125 189.17547607421875 250.01123046875 200.21156311035156 249.20338439941406 200.9250946044922 L 249.29673767089844 213.8449249267578" stroke-width="2.0" fill="rgb(0, 107, 157)" opacity="0.81060517"/>
    <path d="M 97.95306396484375 289.34881591796875 C 97.93956756591797 261.9851989746094 99.46736145019531 259.3749694824219 99.9342041015625 207.16688537597656 C 115.20018768310547 204.19021606445312 105.52131652832031 210.52786254882812 112.69501495361328 259.10430908203125 C 120.15483093261719 251.71258544921875 118.22025299072266 249.32235717773438 118.64595031738281 278.6529846191406 C 96.69994354248047 284.3088073730469 99.22552490234375 307.0504150390625 90.71651458740234 265.2855529785156 L 97.95306396484375 289.34881591796875" stroke-width="2.0" fill="rgb(245, 225, 191)" opacity="0.99569696"/>
    <path d="M 474.540283203125 318.8731384277344 C 495.7330017089844 355.3168029785156 437.0264892578125 356.54541015625 391.4869384765625 413.3432312011719 C 299.6654052734375 402.2988586425781 330.68878173828125 397.068603515625 384.8200378417969 364.0769958496094 C 400.1463928222656 343.22808837890625 409.5446472167969 339.0900573730469 382.7164001464844 352.6064147949219 C 388.8399963378906 342.6996765136719 409.2842102050781 332.0821838378906 406.27685546875 326.7677917480469 L 474.540283203125 318.8731384277344" stroke-width="2.0" fill="rgb(252, 164, 46)" opacity="0.53064775"/>
    <path d="M 32.2685546875 57.235782623291016 C 31.736604690551758 60.77800369262695 32.46038818359375 68.48213195800781 33.715553283691406 149.53868103027344 C 21.087841033935547 146.9300994873047 18.52055549621582 133.67462158203125 14.65192985534668 136.5726776123047 C 14.175860404968262 31.646923065185547 14.749349594116211 16.719877243041992 15.733540534973145 19.052961349487305 C 42.663551330566406 16.332683563232422 28.589950561523438 14.401976585388184 33.54071807861328 79.03862762451172 L 32.2685546875 57.235782623291016" stroke-width="2.0" fill="rgb(26, 58, 76)" opacity="0.98025876"/>
    <path d="M 531.4117431640625 192.59066772460938 C 490.09869384765625 159.58799743652344 498.45147705078125 216.727294921875 497.66552734375 -6.972383499145508 C 615.3837890625 43.3894157409668 537.067138671875 105.74081420898438 516.1345825195312 180.54942321777344 C 505.51324462890625 180.60232543945312 496.61578369140625 173.01126098632812 500.4050598144531 150.96803283691406 C 500.6075439453125 131.25904846191406 500.6778869628906 125.52758026123047 499.0389099121094 224.76356506347656 L 531.4117431640625 192.59066772460938" stroke-width="2.0" fill="rgb(250, 231, 201)" opacity="0.99739116"/>
    <path d="M 105.34647369384766 416.4815673828125 C 105.00910186767578 418.9213562011719 103.23506927490234 420.7724609375 101.3443832397461 421.05596923828125 C 97.61540985107422 419.567138671875 96.85381317138672 419.0788879394531 100.53092956542969 419.78924560546875 C 98.11510467529297 415.2461242675781 95.78768157958984 411.72576904296875 96.76191711425781 410.0821228027344 C 103.76532745361328 410.6305847167969 106.16018676757812 411.121337890625 103.76394653320312 411.4492492675781 L 105.34647369384766 416.4815673828125" stroke-width="2.0" fill="rgb(147, 117, 79)" opacity="0.03456635"/>
    <path d="M 216.1748504638672 164.07992553710938 C 147.22438049316406 174.40126037597656 145.9452667236328 174.90306091308594 160.99853515625 151.57919311523438 C 185.93882751464844 144.6542510986328 174.56643676757812 154.5398406982422 160.947265625 178.5830841064453 C 192.899658203125 172.6396026611328 197.30567932128906 131.29690551757812 198.8817596435547 215.20828247070312 C 83.63472747802734 226.63914489746094 149.81610107421875 239.15823364257812 190.50540161132812 119.74070739746094 L 216.1748504638672 164.07992553710938" stroke-width="2.0" fill="rgb(251, 229, 198)" opacity="0.9647017"/>
    <path d="M 467.3324279785156 143.91307067871094 C 440.45501708984375 147.70718383789062 433.60137939453125 148.68331909179688 437.550048828125 147.15139770507812 C 391.6035461425781 153.02078247070312 412.8905029296875 174.3774871826172 388.1456604003906 168.68356323242188 C 384.81207275390625 108.83699798583984 385.9977722167969 112.59669494628906 401.5282287597656 122.85714721679688 C 493.5380554199219 109.57921600341797 457.5285339355469 88.6067886352539 467.32781982421875 56.631553649902344 L 467.3324279785156 143.91307067871094" stroke-width="2.0" fill="rgb(59, 156, 189)" opacity="0.35163498"/>
    <path d="M 495.91632080078125 322.37591552734375 C 496.3201904296875 326.368408203125 497.90533447265625 336.8746032714844 494.1826171875 372.020263671875 C 491.1177673339844 373.016845703125 510.7960510253906 393.24676513671875 466.38970947265625 432.415283203125 C 471.8162841796875 280.27191162109375 458.1704406738281 252.6209259033203 473.5783996582031 247.72360229492188 C 499.8904724121094 295.51849365234375 497.2652282714844 331.90130615234375 496.2008361816406 345.20184326171875 L 495.91632080078125 322.37591552734375" stroke-width="2.0" fill="rgb(245, 138, 51)" opacity="0.68648195"/>
    <path d="M 32.72536087036133 376.4472351074219 C 33.52117156982422 354.1157531738281 33.18822479248047 353.76336669921875 33.30635452270508 462.1216125488281 C 27.344451904296875 448.6624755859375 33.28176498413086 450.889404296875 14.372075080871582 454.2129821777344 C 15.325981140136719 320.0643005371094 10.036345481872559 332.2782897949219 32.55821228027344 341.1969299316406 C 33.08259963989258 376.8265686035156 32.82875442504883 390.4362487792969 32.30115509033203 364.2544250488281 L 32.72536087036133 376.4472351074219" stroke-width="2.0" fill="rgb(9, 47, 69)" opacity="0.93371326"/>
    <path d="M 281.67535400390625 361.02008056640625 C 227.3892364501953 361.8903503417969 219.79684448242188 363.0398864746094 251.3260040283203 345.7818908691406 C 241.39170837402344 350.3880310058594 243.5049591064453 356.0774230957031 243.15496826171875 343.99298095703125 C 242.58438110351562 308.4722900390625 239.51400756835938 303.8993225097656 249.33224487304688 298.0900573730469 C 269.2464904785156 293.8772888183594 267.7777404785156 302.9379577636719 259.693603515625 334.9737548828125 L 281.67535400390625 361.02008056640625" stroke-width="2.0" fill="rgb(182, 91, 0)" opacity="0.53553766"/>
    <path d="M 100.19149017333984 287.14825439453125 C 90.16080474853516 309.4273681640625 98.8390121459961 258.01544189453125 80.93037414550781 269.4622497558594 C 67.32000732421875 343.3112487792969 51.21759796142578 249.86605834960938 81.79218292236328 261.8486633300781 C 85.68148803710938 221.75962829589844 65.5906982421875 282.3124694824219 85.2054672241211 204.8157196044922 C 102.92158508300781 267.6433410644531 86.14962768554688 173.41970825195312 101.83541870117188 142.17001342773438 L 100.19149017333984 287.14825439453125" stroke-width="2.0" fill="rgb(230, 148, 88)" opacity="1.0"/>
    <path d="M 350.8169250488281 93.63074493408203 C 340.7022399902344 103.59994506835938 343.6903381347656 108.99476623535156 340.5338134765625 111.7462158203125 C 298.8304443359375 102.3866958618164 296.718017578125 98.75931549072266 290.8765869140625 91.98576354980469 C 298.1602478027344 68.09883117675781 303.3235168457031 71.05755615234375 308.8188171386719 77.58275604248047 C 338.3716735839844 81.64964294433594 341.85089111328125 76.54705047607422 351.92816162109375 69.03341674804688 L 350.8169250488281 93.63074493408203" stroke-width="2.0" fill="rgb(145, 0, 147)" opacity="0.10427133"/>
    <path d="M 340.4413757324219 415.0294189453125 C 289.8442687988281 427.8187255859375 297.1363220214844 420.9780578613281 198.83810424804688 403.0608215332031 C 154.78109741210938 427.70098876953125 169.75604248046875 472.76141357421875 165.89450073242188 463.1786804199219 C 179.2805633544922 335.3090515136719 190.78846740722656 346.9134521484375 309.6634521484375 345.7593688964844 C 316.6565856933594 343.6363525390625 311.3373107910156 354.0677795410156 338.35498046875 357.27093505859375 L 340.4413757324219 415.0294189453125" stroke-width="2.0" fill="rgb(255, 243, 179)" opacity="0.39799836"/>
    <path d="M 264.91156005859375 295.1680908203125 C 273.3711242675781 304.5139465332031 272.4396667480469 302.13897705078125 272.3038330078125 350.7558898925781 C 268.8772277832031 352.20538330078125 282.4826965332031 352.06048583984375 242.36624145507812 351.8517150878906 C 242.74331665039062 305.03204345703125 238.53970336914062 298.61163330078125 257.2208251953125 292.280517578125 C 272.6458435058594 298.438720703125 260.70599365234375 293.9309387207031 264.7445983886719 295.9368591308594 L 264.91156005859375 295.1680908203125" stroke-width="2.0" fill="rgb(25, 75, 96)" opacity="0.95285815"/>
    <path d="M 398.3919982910156 471.8660888671875 C 371.6876525878906 478.4335632324219 337.4015197753906 476.9964599609375 326.8403625488281 486.63311767578125 C 343.5310363769531 485.9812927246094 345.8298034667969 475.34698486328125 296.47222900390625 484.0043029785156 C 291.2619323730469 472.8158874511719 293.7978515625 453.67889404296875 292.83612060546875 441.17230224609375 C 359.3876037597656 428.6231689453125 387.9171447753906 435.7851867675781 378.7678527832031 428.97698974609375 L 398.3919982910156 471.8660888671875" stroke-width="2.0" fill="rgb(242, 93, 20)" opacity="0.6728419"/>
    <path d="M 213.7873077392578 484.7273254394531 C 201.72584533691406 494.27215576171875 201.79840087890625 493.65399169921875 207.32484436035156 491.6603088378906 C 169.38272094726562 496.03460693359375 151.05029296875 499.84320068359375 124.8967056274414 495.7274169921875 C 127.90679168701172 472.66961669921875 133.29661560058594 477.6111755371094 129.5093231201172 477.837890625 C 200.97451782226562 480.8904113769531 213.62844848632812 479.29779052734375 212.39242553710938 476.7942810058594 L 213.7873077392578 484.7273254394531" stroke-width="2.0" fill="rgb(2, 20, 26)" opacity="0.48036295"/>
    <path d="M 145.32876586914062 31.96889877319336 C 182.1556854248047 139.30833435058594 262.2762756347656 76.98889923095703 266.2148742675781 83.12615203857422 C 195.63037109375 85.95686340332031 191.11598205566406 89.3262710571289 43.60854721069336 84.65897369384766 C -24.139833450317383 18.91145896911621 92.67525482177734 12.706245422363281 178.021484375 12.578932762145996 C 275.0699768066406 13.365431785583496 274.9836120605469 7.416672706604004 292.7250061035156 31.722209930419922 L 145.32876586914062 31.96889877319336" stroke-width="2.0" fill="rgb(161, 42, 0)" opacity="0.32880557"/>
    <path d="M 278.21942138671875 291.8385314941406 C 336.6086730957031 394.0269775390625 350.2796630859375 425.9455261230469 345.74603271484375 253.52281188964844 C 422.3914794921875 248.91336059570312 358.0762023925781 328.4576110839844 405.59796142578125 362.2974853515625 C 415.060302734375 411.2981872558594 402.9951477050781 386.0223083496094 405.79443359375 396.8345642089844 C 405.06390380859375 320.27777099609375 410.644287109375 380.3046569824219 277.7297058105469 373.0044250488281 L 278.21942138671875 291.8385314941406" stroke-width="2.0" fill="rgb(247, 167, 104)" opacity="0.6875211"/>
    <path d="M 103.015380859375 329.5996398925781 C 125.1589584350586 325.03009033203125 115.5518798828125 333.2868347167969 118.73445129394531 316.54962158203125 C 16.367250442504883 324.136474609375 127.5780258178711 327.29083251953125 73.23869323730469 337.6065673828125 C 64.42635345458984 306.1094970703125 81.0029525756836 328.3931579589844 70.32650756835938 323.36749267578125 C 101.13062286376953 333.23663330078125 80.33050537109375 332.3877868652344 107.37724304199219 329.1175537109375 L 103.015380859375 329.5996398925781" stroke-width="2.0" fill="rgb(225, 36, 4)" opacity="0.5559256"/>
    <path d="M 374.7637939453125 256.7174987792969 C 375.0956115722656 257.5448913574219 374.05084228515625 257.5971984863281 373.2669677734375 257.08746337890625 C 373.5663757324219 258.9323425292969 372.28900146484375 258.2320251464844 370.1920471191406 258.1820983886719 C 367.95751953125 258.9862976074219 362.5062561035156 261.4847412109375 359.8591613769531 247.7679443359375 C 362.0023498535156 254.72808837890625 363.70501708984375 262.2423095703125 369.97119140625 260.1060791015625 L 374.7637939453125 256.7174987792969" stroke-width="2.0" fill="rgb(87, 179, 110)" opacity="0.0"/>
    <path d="M 474.2325134277344 280.31854248046875 C 502.7919616699219 270.5474853515625 495.09613037109375 260.4193420410156 494.3506164550781 279.59539794921875 C 405.5516662597656 278.02117919921875 399.8834228515625 284.738037109375 447.7549133300781 257.41717529296875 C 444.7473449707031 217.77822875976562 452.49456787109375 190.25161743164062 457.0205078125 253.82493591308594 C 495.02252197265625 259.9204406738281 463.6044006347656 144.66810607910156 475.3760681152344 130.40272521972656 L 474.2325134277344 280.31854248046875" stroke-width="2.0" fill="rgb(0, 47, 74)" opacity="0.86968935"/>
    <path d="M 120.31686401367188 2.7666993141174316 C 119.90776062011719 4.894842624664307 120.27252960205078 3.3041656017303467 120.3256607055664 2.75354266166687 C 120.27546691894531 3.3137948513031006 120.21818542480469 3.0146052837371826 120.48828125 3.643401861190796 C 119.77517700195312 4.782739162445068 120.18489837646484 6.209144115447998 122.25012969970703 7.865050792694092 C 118.73925018310547 5.139074802398682 120.64955139160156 2.6720266342163086 120.12336730957031 5.541993141174316 L 120.31686401367188 2.7666993141174316" stroke-width="2.0" fill="rgb(138, 251, 89)" opacity="0.11241103"/>
    <path d="M 466.6634826660156 293.6129455566406 C 466.1273498535156 293.1439208984375 471.50787353515625 293.4333801269531 445.06451416015625 293.19879150390625 C 442.9205017089844 274.1180725097656 454.5911560058594 281.15277099609375 406.9669189453125 280.43646240234375 C 419.5786437988281 224.7399444580078 430.81231689453125 288.2999572753906 434.61962890625 228.3206024169922 C 451.6282653808594 282.4264221191406 415.8330993652344 283.79168701171875 466.6851501464844 234.6693115234375 L 466.6634826660156 293.6129455566406" stroke-width="2.0" fill="rgb(25, 59, 76)" opacity="0.9831508"/>
    <path d="M 466.0977783203125 335.6477966308594 C 475.3074035644531 395.07928466796875 524.91259765625 491.6422119140625 466.5386657714844 486.3465576171875 C 467.625732421875 291.134033203125 463.3201904296875 343.6703186035156 479.3408203125 387.7292785644531 C 474.454833984375 301.5454406738281 503.7566833496094 315.8793640136719 391.4533996582031 314.8070373535156 C 478.34796142578125 343.39593505859375 467.2200012207031 315.53302001953125 466.0498962402344 354.780517578125 L 466.0977783203125 335.6477966308594" stroke-width="2.0" fill="rgb(245, 162, 92)" opacity="0.98102283"/>
    <path d="M 497.6169128417969 279.1087646484375 C 497.80792236328125 282.79833984375 497.8101501464844 295.8796081542969 497.7225341796875 319.14801025390625 C 479.4413757324219 312.9016418457031 488.9322509765625 305.8747253417969 478.9438781738281 316.1296691894531 C 478.89923095703125 253.64736938476562 478.2949523925781 249.74497985839844 479.3177185058594 233.20846557617188 C 489.7112731933594 231.04083251953125 494.8818054199219 232.1604461669922 497.8967590332031 232.4730987548828 L 497.6169128417969 279.1087646484375" stroke-width="2.0" fill="rgb(27, 59, 76)" opacity="0.99760574"/>
    <path d="M 144.82386779785156 497.3106384277344 C 105.80683898925781 498.1341552734375 98.05699157714844 495.6972351074219 107.8777847290039 497.2608947753906 C 75.30545043945312 497.2956848144531 60.10698318481445 496.70599365234375 47.739505767822266 497.2680969238281 C 39.57579803466797 474.79156494140625 29.46540069580078 478.3775634765625 56.64436340332031 478.6390380859375 C 101.45426177978516 478.7743225097656 120.03278350830078 475.72052001953125 147.5348663330078 480.0659484863281 L 144.82386779785156 497.3106384277344" stroke-width="2.0" fill="rgb(30, 92, 89)" opacity="0.85898733"/>
    <path d="M 362.6981506347656 414.6294250488281 C 325.5234375 414.3042907714844 252.4331512451172 410.74383544921875 262.55340576171875 429.70477294921875 C 383.5054626464844 442.7958984375 429.1885986328125 419.260986328125 385.11767578125 410.6168212890625 C 278.4918518066406 431.6679992675781 255.634521484375 444.7018127441406 344.6095886230469 433.4154968261719 C 271.6047668457031 433.67376708984375 270.050048828125 429.31573486328125 288.8246765136719 432.6458435058594 L 362.6981506347656 414.6294250488281" stroke-width="2.0" fill="rgb(251, 231, 202)" opacity="0.8393032"/>
    <path d="M 74.59394073486328 372.8258056640625 C 101.22347259521484 408.6540832519531 143.62890625 384.9501647949219 119.60437774658203 382.3235168457031 C 56.10917663574219 343.46221923828125 40.38996887207031 358.3047790527344 20.088172912597656 374.4065856933594 C 12.175782203674316 347.3171691894531 28.066059112548828 387.7657775878906 72.46098327636719 334.61016845703125 C 66.14094543457031 298.4071044921875 65.15947723388672 304.6776123046875 74.19058990478516 333.1668701171875 L 74.59394073486328 372.8258056640625" stroke-width="2.0" fill="rgb(102, 19, 36)" opacity="0.722639"/>
    <path d="M 303.2899169921875 338.5461120605469 C 249.25106811523438 386.17987060546875 310.80853271484375 281.4683532714844 247.3433074951172 286.58831787109375 C 194.32183837890625 278.91278076171875 213.86688232421875 234.15455627441406 209.00927734375 362.30157470703125 C 250.34144592285156 240.06893920898438 283.128173828125 313.5904846191406 209.6124267578125 271.8879089355469 C 208.0571746826172 263.185546875 208.5554656982422 266.14117431640625 303.3953552246094 265.3829650878906 L 303.2899169921875 338.5461120605469" stroke-width="2.0" fill="rgb(247, 166, 89)" opacity="0.8783197"/>
    <path d="M 207.24374389648438 492.4380187988281 C 184.13442993164062 491.29034423828125 185.2287139892578 494.0211181640625 199.76609802246094 497.1453857421875 C 166.73472595214844 497.4453125 149.19859313964844 497.2261047363281 117.12914276123047 496.627685546875 C 130.53799438476562 497.14739990234375 141.1707000732422 492.0590515136719 135.07794189453125 479.41082763671875 C 185.54550170898438 478.482177734375 189.99136352539062 475.7866516113281 200.4105682373047 484.03436279296875 L 207.24374389648438 492.4380187988281" stroke-width="2.0" fill="rgb(7, 29, 57)" opacity="0.6001495"/>
    <path d="M 292.7179260253906 490.50103759765625 C 270.515625 495.4344787597656 264.9371032714844 492.21575927734375 258.85614013671875 494.4865417480469 C 221.16421508789062 495.19073486328125 217.0342559814453 494.3423767089844 205.50088500976562 494.81634521484375 C 207.9969482421875 485.6409912109375 206.0165252685547 489.6467590332031 200.21719360351562 477.4481506347656 C 248.37892150878906 447.7155456542969 279.0190734863281 444.9812927246094 293.0782470703125 440.9358215332031 L 292.7179260253906 490.50103759765625" stroke-width="2.0" fill="rgb(241, 81, 1)" opacity="0.6109006"/>
    <path d="M 276.6346435546875 506.40435791015625 C 275.9711608886719 505.4357604980469 275.99835205078125 506.8976745605469 276.2108154296875 507.104248046875 C 275.9927978515625 507.5356750488281 274.0775451660156 506.8791809082031 276.21124267578125 508.1696472167969 C 276.25946044921875 505.4598083496094 276.28692626953125 506.4444885253906 277.0325622558594 508.65234375 C 275.4958190917969 506.47406005859375 276.9241027832031 506.7315368652344 276.2511901855469 507.2761535644531 L 276.6346435546875 506.40435791015625" stroke-width="2.0" fill="rgb(58, 89, 214)" opacity="0.0"/>
    <path d="M 196.64971923828125 356.6874084472656 C 195.24562072753906 355.9186096191406 193.3423309326172 355.5150451660156 184.4199981689453 348.1336669921875 C 196.97750854492188 346.516845703125 196.4522705078125 347.4394836425781 198.19468688964844 346.569580078125 C 196.76206970214844 358.8156433105469 195.37632751464844 357.9115295410156 194.49256896972656 348.4823303222656 C 195.46754455566406 351.79541015625 194.74354553222656 353.83074951171875 194.2606658935547 354.59393310546875 L 196.64971923828125 356.6874084472656" stroke-width="2.0" fill="rgb(88, 0, 214)" opacity="0.0"/>
    <path d="M 146.78170776367188 31.89569664001465 C 39.645511627197266 33.72828674316406 33.18162155151367 30.99150276184082 28.360849380493164 34.33370590209961 C 35.89436340332031 29.832275390625 29.593719482421875 28.413118362426758 18.713428497314453 42.98386001586914 C 12.114971160888672 9.408051490783691 13.554940223693848 14.180474281311035 14.757050514221191 13.563981056213379 C 69.8662338256836 13.633209228515625 85.29740905761719 13.107603073120117 144.21636962890625 13.367640495300293 L 146.78170776367188 31.89569664001465" stroke-width="2.0" fill="rgb(27, 60, 77)" opacity="1.0"/>
    <path d="M 497.0150451660156 388.2831726074219 C 486.9802551269531 412.1387939453125 512.2032470703125 416.2243957519531 464.427734375 420.27130126953125 C 441.7170104980469 422.01531982421875 439.731201171875 405.2299499511719 439.5138244628906 368.0521545410156 C 447.9098205566406 387.1319274902344 450.8736267089844 367.4543762207031 465.0592346191406 355.8556213378906 C 479.5523376464844 393.4519958496094 477.189453125 394.2019958496094 496.9466857910156 366.2284851074219 L 497.0150451660156 388.2831726074219" stroke-width="2.0" fill="rgb(114, 0, 131)" opacity="0.0"/>
    <path d="M 497.9658508300781 477.8852233886719 C 434.0639953613281 439.3748474121094 260.6239013671875 499.7016296386719 295.3646240234375 432.3811950683594 C 286.57708740234375 451.2387390136719 288.95806884765625 460.066650390625 315.8195495605469 466.9202575683594 C 318.120849609375 464.8952331542969 317.79559326171875 469.9423828125 310.7171325683594 463.10015869140625 C 307.6042785644531 473.82012939453125 227.5542755126953 453.8934631347656 214.28646850585938 478.70892333984375 L 497.9658508300781 477.8852233886719" stroke-width="2.0" fill="rgb(247, 165, 91)" opacity="0.9187034"/>
    <path d="M 139.16026306152344 478.12506103515625 C 136.27911376953125 497.4525146484375 128.9640350341797 497.3536376953125 108.17699432373047 497.5747375488281 C 36.218807220458984 497.07257080078125 37.52550506591797 499.96551513671875 25.48456573486328 488.80377197265625 C 60.95614242553711 448.9135437011719 53.08896255493164 445.864013671875 50.95397186279297 432.7631530761719 C 110.67643737792969 433.134033203125 75.49495697021484 419.9536437988281 34.84119415283203 478.30303955078125 L 139.16026306152344 478.12506103515625" stroke-width="2.0" fill="rgb(2, 26, 60)" opacity="0.6122162"/>
    <path d="M 210.556884765625 161.04049682617188 C 198.04981994628906 136.6502685546875 161.34857177734375 134.48573303222656 144.398193359375 142.41978454589844 C 134.84483337402344 137.76483154296875 182.02146911621094 162.6755828857422 119.39250946044922 153.08460998535156 C 132.8147430419922 100.15130615234375 130.91688537597656 106.07093811035156 142.04510498046875 63.72779083251953 C 202.69540405273438 61.225685119628906 187.93931579589844 70.97219848632812 210.8577423095703 91.59231567382812 L 210.556884765625 161.04049682617188" stroke-width="2.0" fill="rgb(52, 156, 203)" opacity="0.96790695"/>
    <path d="M 115.06949615478516 143.38616943359375 C 119.29967498779297 145.21224975585938 120.44151306152344 141.99952697753906 117.00862121582031 145.07272338867188 C 117.30912017822266 145.29507446289062 115.51630401611328 143.8885955810547 112.52845001220703 139.83187866210938 C 117.07373046875 145.06533813476562 117.33313751220703 146.82394409179688 118.60939025878906 145.9608917236328 C 120.90376281738281 145.91030883789062 120.74580383300781 146.9206085205078 119.48551177978516 146.6964874267578 L 115.06949615478516 143.38616943359375" stroke-width="2.0" fill="rgb(218, 202, 69)" opacity="0.0"/>
    <path d="M 498.6148376464844 486.5660095214844 C 498.31573486328125 476.4913024902344 498.16546630859375 484.7169189453125 497.61553955078125 496.4472961425781 C 473.8236083984375 496.454833984375 480.80328369140625 497.2039794921875 479.49737548828125 492.4032287597656 C 479.62554931640625 441.7870178222656 479.931640625 435.1885681152344 479.05364990234375 435.3265380859375 C 499.179443359375 432.8338928222656 496.5281982421875 433.5921630859375 498.0941467285156 436.2947692871094 L 498.6148376464844 486.5660095214844" stroke-width="2.0" fill="rgb(7, 52, 74)" opacity="0.67772514"/>
    <path d="M 392.7727966308594 412.53216552734375 C 304.29803466796875 414.97796630859375 291.887939453125 415.9705505371094 294.8048400878906 416.1159973144531 C 270.5778503417969 416.8534240722656 250.05368041992188 418.3347473144531 219.21656799316406 422.5318908691406 C 213.83619689941406 372.3299560546875 211.1987762451172 376.9735107421875 249.0098114013672 378.08062744140625 C 390.84747314453125 379.47393798828125 312.7101745605469 371.96832275390625 351.3763122558594 397.62713623046875 L 392.7727966308594 412.53216552734375" stroke-width="2.0" fill="rgb(249, 191, 112)" opacity="0.9550258"/>
    <path d="M 300.83441162109375 365.5091247558594 C 311.2373962402344 373.04705810546875 292.14666748046875 284.5431823730469 316.2999267578125 308.88507080078125 C 366.1717224121094 367.63629150390625 380.2117614746094 346.60186767578125 341.07196044921875 365.64111328125 C 294.2490234375 366.0049743652344 360.6015930175781 392.7198181152344 361.4727783203125 373.6943359375 C 394.4387512207031 342.3443298339844 382.45147705078125 346.7455749511719 340.1436767578125 365.9937744140625 L 300.83441162109375 365.5091247558594" stroke-width="2.0" fill="rgb(251, 231, 200)" opacity="0.8594253"/>
    <path d="M 401.6497497558594 173.4910125732422 C 400.6200866699219 147.5736541748047 437.78076171875 144.61598205566406 431.05126953125 165.94647216796875 C 445.02667236328125 149.97183227539062 471.8459777832031 140.64645385742188 422.28936767578125 149.63169860839844 C 480.3075256347656 187.35287475585938 466.0729675292969 229.31663513183594 464.50457763671875 144.2073974609375 C 425.7002258300781 149.4259796142578 442.870849609375 157.36537170410156 429.9625549316406 197.61993408203125 L 401.6497497558594 173.4910125732422" stroke-width="2.0" fill="rgb(250, 231, 201)" opacity="0.80788565"/>
    <path d="M 219.19544982910156 422.3743591308594 C 192.7024688720703 427.10699462890625 182.48036193847656 428.09375 149.57215881347656 437.2398376464844 C 116.13906860351562 448.0298156738281 124.21153259277344 444.90380859375 82.23098754882812 461.70947265625 C 70.95332336425781 409.1827392578125 68.60321044921875 376.8302307128906 73.8092041015625 319.9027099609375 C 172.68104553222656 335.1072692871094 190.0148468017578 353.01483154296875 212.26937866210938 352.2558288574219 L 219.19544982910156 422.3743591308594" stroke-width="2.0" fill="rgb(251, 162, 73)" opacity="0.7605401"/>
    <path d="M 152.2596435546875 124.35718536376953 C 123.71843719482422 154.98670959472656 140.6092529296875 127.37496948242188 98.8394775390625 123.35984802246094 C 94.55400848388672 108.7738037109375 98.74029541015625 89.3559799194336 45.416404724121094 86.37870788574219 C 45.13210678100586 37.741947174072266 46.21090316772461 45.36819076538086 44.786781311035156 44.606807708740234 C 123.36164093017578 44.716609954833984 125.35128021240234 43.84416198730469 162.28318786621094 44.96884536743164 L 152.2596435546875 124.35718536376953" stroke-width="2.0" fill="rgb(55, 158, 204)" opacity="0.98672616"/>
    <path d="M 199.39393615722656 478.8295593261719 C 128.83140563964844 481.1204833984375 130.86241149902344 476.32379150390625 134.304931640625 481.2739562988281 C 130.44041442871094 490.72991943359375 140.40408325195312 474.92279052734375 127.4465560913086 478.4682312011719 C 51.608890533447266 476.2694396972656 -4.503044605255127 484.87542724609375 47.704898834228516 465.8868408203125 C 116.73870086669922 465.6404724121094 155.3774871826172 467.0700988769531 220.23719787597656 465.98846435546875 L 199.39393615722656 478.8295593261719" stroke-width="2.0" fill="rgb(246, 128, 33)" opacity="0.62999696"/>
    <path d="M 85.23643493652344 399.4437561035156 C 88.97323608398438 414.5092468261719 91.29624938964844 422.0721130371094 84.42314147949219 454.7920837402344 C 51.434085845947266 449.6156921386719 51.2796630859375 448.8997497558594 45.4151496887207 452.72119140625 C 45.419437408447266 365.5860900878906 45.234886169433594 365.1119384765625 45.04753494262695 318.2190856933594 C 85.78645324707031 296.0292053222656 72.7809829711914 381.9385986328125 76.42953491210938 378.424072265625 L 85.23643493652344 399.4437561035156" stroke-width="2.0" fill="rgb(24, 58, 76)" opacity="0.9921161"/>
    <path d="M 466.6455078125 375.7719421386719 C 466.7641296386719 475.25494384765625 466.8092346191406 465.9812927246094 465.6778259277344 466.4370422363281 C 358.5828552246094 459.8624572753906 376.7897644042969 483.181884765625 374.56170654296875 426.0143127441406 C 373.99530029296875 421.677490234375 420.26849365234375 432.1239929199219 408.2031555175781 413.5008544921875 C 414.1963195800781 427.759765625 387.4735412597656 424.1264343261719 442.88116455078125 424.7946472167969 L 466.6455078125 375.7719421386719" stroke-width="2.0" fill="rgb(23, 54, 70)" opacity="0.9550715"/>
    <path d="M 340.97967529296875 127.38105010986328 C 323.6789855957031 119.51991271972656 327.96209716796875 113.0838623046875 294.7464294433594 125.3438949584961 C 216.041748046875 130.4325408935547 295.98541259765625 110.87181091308594 246.49847412109375 93.1051254272461 C 229.30105590820312 51.23197937011719 222.94970703125 45.593387603759766 219.86106872558594 44.257591247558594 C 311.88665771484375 44.26923370361328 325.5452880859375 44.052635192871094 338.889892578125 44.378936767578125 L 340.97967529296875 127.38105010986328" stroke-width="2.0" fill="rgb(7, 153, 230)" opacity="0.77355635"/>
    <path d="M 288.21844482421875 191.9830780029297 C 308.2669677734375 195.88511657714844 357.30291748046875 207.9145050048828 314.4600524902344 189.6114959716797 C 190.41647338867188 198.09967041015625 177.55703735351562 184.5161895751953 285.2814025878906 186.9215087890625 C 276.83447265625 175.0109405517578 265.8455810546875 172.00399780273438 265.2817687988281 168.4439239501953 C 264.97540283203125 170.8549041748047 274.8602294921875 174.45196533203125 283.1339416503906 184.21368408203125 L 288.21844482421875 191.9830780029297" stroke-width="2.0" fill="rgb(226, 44, 85)" opacity="0.5819447"/>
    <path d="M 209.72695922851562 257.71240234375 C 209.33819580078125 247.7866668701172 210.80880737304688 257.01495361328125 196.8523712158203 261.77886962890625 C 157.8604736328125 281.8155212402344 112.51274108886719 281.45220947265625 118.87578582763672 233.6824493408203 C 108.59086608886719 220.0449676513672 111.09276580810547 227.34683227539062 183.43145751953125 216.6820068359375 C 173.7444610595703 178.94329833984375 215.60426330566406 209.60215759277344 208.6874542236328 201.88096618652344 L 209.72695922851562 257.71240234375" stroke-width="2.0" fill="rgb(84, 14, 0)" opacity="0.5788288"/>
    <path d="M 497.8160705566406 350.42962646484375 C 494.7170715332031 356.9027404785156 498.197998046875 355.8794860839844 496.42144775390625 394.7151184082031 C 482.13360595703125 390.3379211425781 479.49072265625 386.24444580078125 479.41461181640625 383.9142761230469 C 479.5687255859375 310.49774169921875 477.3967590332031 330.250732421875 480.88623046875 293.70654296875 C 485.76873779296875 299.9480895996094 482.7691345214844 305.4922790527344 498.1087646484375 308.227783203125 L 497.8160705566406 350.42962646484375" stroke-width="2.0" fill="rgb(25, 59, 77)" opacity="0.9951313"/>
    <path d="M 322.26031494140625 186.06520080566406 C 317.9982604980469 200.9077911376953 337.0716857910156 189.7504119873047 330.2812194824219 200.60365295410156 C 253.4759979248047 185.02354431152344 266.65045166015625 186.79588317871094 215.8131866455078 186.85220336914062 C 221.76014709472656 128.43997192382812 243.519287109375 129.4108123779297 245.273193359375 125.57323455810547 C 284.14129638671875 122.50791931152344 297.7910461425781 140.25592041015625 311.4803161621094 160.05984497070312 L 322.26031494140625 186.06520080566406" stroke-width="2.0" fill="rgb(255, 166, 29)" opacity="0.46680573"/>
    <path d="M 487.9997863769531 328.328857421875 C 498.50506591796875 316.62939453125 500.38104248046875 314.26416015625 488.5758056640625 327.7777099609375 C 487.0177307128906 327.7816467285156 487.0956726074219 319.37841796875 486.7061462402344 321.0478210449219 C 481.79266357421875 286.86944580078125 478.7793884277344 284.1084289550781 483.3935852050781 282.42181396484375 C 479.198974609375 283.6477966308594 481.44891357421875 286.7851867675781 485.5755615234375 313.87640380859375 L 487.9997863769531 328.328857421875" stroke-width="2.0" fill="rgb(45, 31, 77)" opacity="0.38213697"/>
    <path d="M 44.53260040283203 192.6378936767578 C 50.49503707885742 -16.497697830200195 27.240915298461914 -20.579069137573242 33.39053726196289 175.06976318359375 C 50.093292236328125 216.29429626464844 80.99419403076172 172.45254516601562 74.46513366699219 211.5560760498047 C 150.1357421875 215.26893615722656 38.61195755004883 211.18429565429688 45.582000732421875 369.4664611816406 C 26.56946563720703 377.49090576171875 34.850669860839844 343.7956848144531 32.68412399291992 175.6624755859375 L 44.53260040283203 192.6378936767578" stroke-width="2.0" fill="rgb(249, 167, 89)" opacity="0.8036091"/>
    <path d="M 410.9648742675781 392.7690734863281 C 407.87164306640625 383.7106018066406 414.77874755859375 398.1851806640625 409.15374755859375 429.1352233886719 C 404.38494873046875 431.6217346191406 399.9807434082031 430.2935791015625 399.2172546386719 407.291748046875 C 399.3519592285156 384.0702819824219 400.8870849609375 380.0065612792969 402.2848815917969 372.68402099609375 C 404.7750549316406 365.1158142089844 405.2327575683594 364.860595703125 408.28717041015625 376.26959228515625 L 410.9648742675781 392.7690734863281" stroke-width="2.0" fill="rgb(16, 53, 72)" opacity="0.9559459"/>
    <path d="M 450.5040283203125 32.51982498168945 C 378.8954162597656 32.731868743896484 356.7381286621094 31.89541244506836 368.118896484375 32.4661750793457 C 332.8880615234375 32.36160659790039 309.2462158203125 32.18653106689453 221.4342498779297 32.20302963256836 C 230.31954956054688 1.0675759315490723 247.51449584960938 18.924949645996094 247.29815673828125 13.239144325256348 C 302.3073425292969 12.905691146850586 384.12652587890625 12.952406883239746 443.87310791015625 13.591378211975098 L 450.5040283203125 32.51982498168945" stroke-width="2.0" fill="rgb(27, 60, 77)" opacity="0.99025023"/>
    <path d="M 63.77869415283203 495.9202880859375 C 45.663055419921875 498.23681640625 35.11656188964844 496.01409912109375 48.886600494384766 497.4268798828125 C 2.439626693725586 496.96240234375 16.23652458190918 497.5074462890625 14.415383338928223 497.2878723144531 C 14.347088813781738 467.2649230957031 13.934537887573242 444.09954833984375 15.78010082244873 425.352294921875 C 46.59893798828125 450.5714416503906 23.79609489440918 486.2829284667969 38.5410041809082 478.0014953613281 L 63.77869415283203 495.9202880859375" stroke-width="2.0" fill="rgb(25, 59, 77)" opacity="0.9929793"/>
    <path d="M 320.4273986816406 309.3998718261719 C 318.5530090332031 269.99188232421875 321.1185302734375 314.0372619628906 320.2677001953125 348.2512512207031 C 307.16033935546875 349.5389709472656 311.4141845703125 350.5622253417969 311.1907958984375 343.5140380859375 C 311.6291809082031 284.4023132324219 310.78472900390625 269.30328369140625 311.6928405761719 266.5950927734375 C 321.6652526855469 266.1520690917969 319.6949462890625 264.4574890136719 319.8826599121094 287.67755126953125 L 320.4273986816406 309.3998718261719" stroke-width="2.0" fill="rgb(255, 0, 55)" opacity="1.0"/>
    <path d="M 219.931884765625 398.7879638671875 C 219.95086669921875 376.0849914550781 228.03619384765625 366.44598388671875 216.44854736328125 387.0496826171875 C 211.2800750732422 385.3047180175781 201.26773071289062 380.6908264160156 199.7008514404297 380.81561279296875 C 221.35122680664062 387.3108215332031 213.8054656982422 392.55364990234375 213.478271484375 365.57830810546875 C 359.0404052734375 364.22479248046875 343.88116455078125 375.3509826660156 221.59848022460938 373.6797790527344 L 219.931884765625 398.7879638671875" stroke-width="2.0" fill="rgb(250, 189, 109)" opacity="0.9259545"/>
    <path d="M 467.1257019042969 326.6985778808594 C 476.2391662597656 322.1390380859375 477.07928466796875 318.58746337890625 474.16021728515625 337.12677001953125 C 446.69573974609375 301.3112487792969 385.05108642578125 350.0666809082031 393.69073486328125 312.6709289550781 C 480.96832275390625 298.4878845214844 483.1116943359375 408.9539489746094 477.0982666015625 27.79921531677246 C 453.5772399902344 223.87977600097656 478.3825988769531 392.9694519042969 461.892333984375 296.6155700683594 L 467.1257019042969 326.6985778808594" stroke-width="2.0" fill="rgb(246, 157, 86)" opacity="0.95248246"/>
    <path d="M 374.5251770019531 478.19915771484375 C 348.434326171875 492.84307861328125 338.9351501464844 491.6462097167969 349.73748779296875 496.52667236328125 C 278.6719665527344 498.2346496582031 275.7703552246094 496.0950927734375 257.3354797363281 493.5906982421875 C 288.024169921875 486.1855163574219 296.790283203125 488.2522277832031 288.7881774902344 459.1500244140625 C 291.71441650390625 469.2242736816406 293.2098388671875 481.8221130371094 289.03997802734375 478.294921875 L 374.5251770019531 478.19915771484375" stroke-width="2.0" fill="rgb(26, 59, 76)" opacity="0.9950124"/>
    <path d="M 81.34485626220703 464.3979187011719 C 84.81608581542969 463.2723693847656 79.72850799560547 465.327392578125 52.39058303833008 463.7532043457031 C 17.531414031982422 479.4901428222656 20.757356643676758 477.515625 32.94456481933594 472.6911926269531 C 31.986661911010742 437.8206481933594 33.32870864868164 431.0455322265625 33.38087463378906 363.73626708984375 C 90.9731674194336 400.0308532714844 50.54588317871094 423.74322509765625 87.65473937988281 429.40338134765625 L 81.34485626220703 464.3979187011719" stroke-width="2.0" fill="rgb(246, 110, 7)" opacity="0.5105907"/>
    <path d="M 271.4029235839844 304.4234924316406 C 273.527587890625 307.7806701660156 271.4802551269531 323.6168518066406 272.32562255859375 352.1484680175781 C 244.1745147705078 352.4398193359375 246.9560546875 352.0355529785156 241.6951446533203 352.1756591796875 C 242.17247009277344 301.2562255859375 241.61289978027344 312.39105224609375 242.92886352539062 304.3077697753906 C 253.9879608154297 285.1987609863281 263.8254699707031 293.5198974609375 268.7237243652344 300.2647399902344 L 271.4029235839844 304.4234924316406" stroke-width="2.0" fill="rgb(15, 37, 54)" opacity="0.48400736"/>
    <path d="M 82.81961822509766 466.36614990234375 C 59.797813415527344 466.293701171875 40.76506423950195 466.5163879394531 76.57141876220703 466.2381896972656 C 29.777629852294922 466.3174133300781 48.649681091308594 466.7350769042969 45.75841522216797 466.1672058105469 C 44.990760803222656 470.0496826171875 45.876548767089844 441.0966491699219 45.48677062988281 371.888427734375 C 101.65626525878906 413.5944519042969 81.54033660888672 419.4820556640625 88.13038635253906 430.0135803222656 L 82.81961822509766 466.36614990234375" stroke-width="2.0" fill="rgb(24, 59, 77)" opacity="1.0"/>
    <path d="M 263.8054504394531 202.69320678710938 C 260.53436279296875 214.12646484375 267.9830322265625 240.0592041015625 269.9193115234375 195.81736755371094 C 378.0775146484375 228.46621704101562 514.2328491210938 244.52828979492188 255.04806518554688 214.78216552734375 C 254.71554565429688 198.09115600585938 254.33526611328125 196.47091674804688 264.3598327636719 198.67645263671875 C 254.84957885742188 197.19615173339844 265.1060485839844 196.2184295654297 263.0133056640625 206.66831970214844 L 263.8054504394531 202.69320678710938" stroke-width="2.0" fill="rgb(85, 140, 159)" opacity="0.8691534"/>
    <path d="M 391.5399475097656 174.1103057861328 C 349.4229736328125 174.7938995361328 338.3846130371094 179.30093383789062 328.9778137207031 186.81736755371094 C 325.91046142578125 189.67445373535156 329.7886657714844 189.73841857910156 322.8166198730469 171.6000213623047 C 311.5364685058594 145.13951110839844 293.438232421875 130.61227416992188 255.03379821777344 119.90554809570312 C 357.1431884765625 104.72649383544922 375.3056945800781 103.13125610351562 396.29693603515625 104.0072250366211 L 391.5399475097656 174.1103057861328" stroke-width="2.0" fill="rgb(58, 157, 202)" opacity="0.9971378"/>
    <path d="M 22.431100845336914 459.96148681640625 C 49.752750396728516 510.9026184082031 69.4006118774414 490.49212646484375 47.19963073730469 497.7904968261719 C 11.669346809387207 497.7295227050781 15.18350887298584 498.44830322265625 15.010638236999512 497.5448303222656 C 14.840083122253418 444.369384765625 13.234795570373535 436.70574951171875 18.736371994018555 423.4466552734375 C 27.047176361083984 466.8026123046875 24.575754165649414 456.0872497558594 63.97697448730469 424.079833984375 L 22.431100845336914 459.96148681640625" stroke-width="2.0" fill="rgb(18, 54, 73)" opacity="0.2620186"/>
    <path d="M 373.080322265625 106.69996643066406 C 367.3652038574219 110.0770034790039 367.5433654785156 112.24951171875 338.5473937988281 117.12175750732422 C 285.2196044921875 105.29268646240234 308.4183044433594 77.84398651123047 311.09857177734375 78.15678405761719 C 315.9521179199219 68.4163818359375 320.4667663574219 68.51642608642578 310.7520751953125 63.46401596069336 C 300.8079833984375 44.17767333984375 314.7416687011719 43.566043853759766 377.05853271484375 44.761085510253906 L 373.080322265625 106.69996643066406" stroke-width="2.0" fill="rgb(58, 157, 202)" opacity="0.9635944"/>
    <path d="M 225.24240112304688 491.3037109375 C 150.6320037841797 485.8179931640625 152.10879516601562 481.6376953125 181.16574096679688 476.3951416015625 C 163.18687438964844 484.0060729980469 143.6961669921875 476.7742919921875 78.05734252929688 478.080322265625 C 95.8333740234375 425.5559387207031 84.96138000488281 397.5200500488281 83.51673889160156 397.6575927734375 C 163.6190948486328 382.47259521484375 136.33799743652344 398.04638671875 212.5192108154297 349.297607421875 L 225.24240112304688 491.3037109375" stroke-width="2.0" fill="rgb(249, 255, 191)" opacity="0.16519763"/>
    <path d="M 31.71253204345703 290.84600830078125 C 33.537105560302734 302.4432373046875 33.68484115600586 345.4684143066406 32.811729431152344 381.4635009765625 C 8.152616500854492 386.0194091796875 14.8322172164917 345.9739685058594 16.347074508666992 290.7735595703125 C 20.683433532714844 315.1407775878906 20.4982967376709 280.775390625 20.468875885009766 233.69656372070312 C 39.084564208984375 235.0814666748047 30.632835388183594 241.08505249023438 32.986454010009766 258.7417297363281 L 31.71253204345703 290.84600830078125" stroke-width="2.0" fill="rgb(25, 60, 77)" opacity="0.8100297"/>
    <path d="M 475.358642578125 496.12286376953125 C 417.1803283691406 496.72344970703125 409.7738952636719 493.35003662109375 400.8412780761719 497.64923095703125 C 376.6433410644531 497.7402648925781 375.3819274902344 494.06304931640625 345.18511962890625 498.0039978027344 C 372.81427001953125 464.41046142578125 415.1725158691406 493.2012939453125 386.18267822265625 435.8980407714844 C 428.6543884277344 435.01690673828125 430.0849914550781 437.61248779296875 451.9991149902344 436.5320739746094 L 475.358642578125 496.12286376953125" stroke-width="2.0" fill="rgb(121, 30, 0)" opacity="0.045183003"/>
    <path d="M 324.7219543457031 200.33544921875 C 325.22601318359375 191.87741088867188 321.50042724609375 193.3433074951172 284.4000244140625 187.23060607910156 C 295.6702575683594 195.92706298828125 268.7392883300781 190.39910888671875 218.1354522705078 192.72650146484375 C 217.44796752929688 125.87892150878906 222.55520629882812 123.04483795166016 259.14227294921875 96.07086181640625 C 262.3310241699219 138.04840087890625 300.9302062988281 121.36371612548828 320.2041015625 179.75927734375 L 324.7219543457031 200.33544921875" stroke-width="2.0" fill="rgb(248, 172, 67)" opacity="0.6460401"/>
    <path d="M 252.88433837890625 117.54533386230469 C 263.24505615234375 128.52601623535156 236.79225158691406 121.98333740234375 224.6519775390625 144.82183837890625 C 218.32763671875 155.03680419921875 217.06976318359375 148.2831573486328 182.03012084960938 128.106201171875 C 172.29464721679688 83.3795394897461 166.17361450195312 80.28783416748047 153.39125061035156 45.307884216308594 C 289.37664794921875 42.20819854736328 267.8790283203125 51.64776611328125 261.6604919433594 62.29664993286133 L 252.88433837890625 117.54533386230469" stroke-width="2.0" fill="rgb(58, 157, 202)" opacity="0.98512334"/>
    <path d="M 33.33361053466797 98.93993377685547 C 30.33576011657715 70.18407440185547 34.286903381347656 76.87101745605469 32.8323974609375 145.4792938232422 C 14.457469940185547 143.79031372070312 16.763166427612305 145.3411102294922 14.514678001403809 161.71534729003906 C 14.602099418640137 82.79376220703125 14.57669448852539 44.496604919433594 14.268280982971191 18.967639923095703 C 34.84746551513672 28.894529342651367 32.54570388793945 36.13864517211914 32.944087982177734 39.28755569458008 L 33.33361053466797 98.93993377685547" stroke-width="2.0" fill="rgb(23, 59, 77)" opacity="0.6714303"/>
    <path d="M 139.9991455078125 335.5632629394531 C 141.0767822265625 332.602294921875 140.99366760253906 329.72283935546875 48.9914436340332 317.81768798828125 C 34.369747161865234 315.16729736328125 60.41242218017578 350.39483642578125 32.38542556762695 421.5613708496094 C 31.884483337402344 296.07135009765625 36.62451171875 271.5595397949219 33.070430755615234 261.3888244628906 C 177.61788940429688 341.2840576171875 61.7166748046875 215.2451934814453 138.8671875 230.04588317871094 L 139.9991455078125 335.5632629394531" stroke-width="2.0" fill="rgb(249, 138, 29)" opacity="0.22740363"/>
    <path d="M 353.837646484375 381.4527282714844 C 356.58233642578125 345.57269287109375 365.2921447753906 367.5592041015625 370.15191650390625 355.6850891113281 C 377.6730041503906 354.42974853515625 379.1179504394531 351.31201171875 379.7790222167969 353.0770568847656 C 377.35321044921875 349.115234375 348.9541320800781 380.0445556640625 337.1676940917969 344.0069885253906 C 397.794677734375 324.3122253417969 398.2314147949219 326.4510498046875 437.2117004394531 334.6082763671875 L 353.837646484375 381.4527282714844" stroke-width="2.0" fill="rgb(250, 230, 200)" opacity="0.9880959"/>
    <path d="M 320.8582763671875 271.64306640625 C 320.9590759277344 267.6866455078125 320.724365234375 295.0270080566406 320.4427795410156 348.1119689941406 C 307.73736572265625 348.17694091796875 311.16119384765625 365.6927490234375 310.95587158203125 301.0050354003906 C 311.1637268066406 244.392578125 316.6490173339844 295.149169921875 283.21356201171875 251.84498596191406 C 432.7887268066406 246.0140380859375 327.2547912597656 294.3715515136719 349.3740539550781 272.1454772949219 L 320.8582763671875 271.64306640625" stroke-width="2.0" fill="rgb(239, 172, 83)" opacity="0.8199448"/>
    <path d="M 74.84371185302734 273.0566711425781 C 77.77092742919922 313.8635559082031 73.60087585449219 225.7722625732422 98.16556549072266 300.711669921875 C 11.14501953125 301.6380310058594 107.34951782226562 291.70220947265625 45.3535270690918 350.8634033203125 C 46.8786506652832 231.03854370117188 40.40943145751953 208.36434936523438 56.90059280395508 274.4605407714844 C 61.66326904296875 238.02117919921875 67.98011779785156 231.9879913330078 71.44703674316406 250.0316925048828 L 74.84371185302734 273.0566711425781" stroke-width="2.0" fill="rgb(24, 59, 76)" opacity="0.99090105"/>
    <path d="M 44.87102508544922 48.857032775878906 C 46.116329193115234 45.993736267089844 47.033843994140625 47.504486083984375 48.1577262878418 71.35978698730469 C 52.084861755371094 89.3119125366211 45.9845085144043 74.31745147705078 47.70792007446289 80.95303344726562 C 45.611167907714844 51.681583404541016 47.2620735168457 50.482669830322266 40.429969787597656 35.84686279296875 C 51.48676300048828 57.694400787353516 43.72492218017578 75.86776733398438 46.79718017578125 53.92376708984375 L 44.87102508544922 48.857032775878906" stroke-width="2.0" fill="rgb(124, 161, 191)" opacity="0.0012434772"/>
    <path d="M 171.7270965576172 203.5348358154297 C 206.23045349121094 169.9623565673828 207.50796508789062 153.51641845703125 187.13577270507812 156.7603302001953 C 183.70533752441406 144.19866943359375 186.27630615234375 153.64622497558594 194.08909606933594 146.23692321777344 C 161.47132873535156 128.46263122558594 122.90751647949219 145.18521118164062 156.49667358398438 148.80726623535156 C 103.24955749511719 184.25025939941406 106.78097534179688 68.80096435546875 108.7497787475586 210.5812530517578 L 171.7270965576172 203.5348358154297" stroke-width="2.0" fill="rgb(249, 231, 201)" opacity="0.91231155"/>
    <path d="M 134.63803100585938 190.8012237548828 C 135.4496307373047 187.486572265625 133.7172088623047 197.1677703857422 130.47084045410156 192.25155639648438 C 121.80690002441406 198.91275024414062 130.36289978027344 186.0297393798828 132.48402404785156 191.78155517578125 C 131.84617614746094 190.7400665283203 133.5142059326172 189.4351806640625 136.54188537597656 189.59555053710938 C 132.830810546875 190.19400024414062 138.9917755126953 188.41482543945312 133.90377807617188 191.23248291015625 L 134.63803100585938 190.8012237548828" stroke-width="2.0" fill="rgb(0, 32, 49)" opacity="0.78627807"/>
    <path d="M -44.63823699951172 -2.1614997386932373 C 13.201282501220703 -22.97699737548828 126.3252944946289 -83.24539947509766 219.27610778808594 13.179778099060059 C -2.3184802532196045 13.58289909362793 -6.0075907707214355 12.500761985778809 12.291340827941895 12.95716381072998 C 18.72205352783203 14.630671501159668 13.82080364227295 -12.29308795928955 14.714340209960938 55.439979553222656 C 12.873373031616211 141.66268920898438 18.633398056030273 202.31822204589844 9.87212085723877 287.9512939453125 L -44.63823699951172 -2.1614997386932373" stroke-width="2.0" fill="rgb(252, 240, 214)" opacity="0.47503042"/>
    <path d="M 337.83050537109375 343.32684326171875 C 332.3759460449219 344.3382873535156 334.83990478515625 344.1994934082031 340.3138427734375 342.2522277832031 C 340.034912109375 340.9712829589844 338.80364990234375 348.1097106933594 339.6798095703125 329.6901550292969 C 339.1900939941406 342.47216796875 339.5433654785156 345.5262451171875 339.38848876953125 268.51690673828125 C 323.3799133300781 267.259765625 329.89239501953125 255.4242401123047 327.7350769042969 345.75653076171875 L 337.83050537109375 343.32684326171875" stroke-width="2.0" fill="rgb(244, 134, 71)" opacity="0.9375544"/>
    <path d="M 287.0755920410156 496.829833984375 C 240.12522888183594 497.4760437011719 228.93283081054688 496.9636535644531 235.56631469726562 497.0051574707031 C 193.13050842285156 497.7111511230469 182.28721618652344 496.88983154296875 165.0437469482422 496.8538818359375 C 157.9226837158203 494.96356201171875 140.66932678222656 500.24481201171875 115.64385986328125 478.78057861328125 C 191.4382781982422 478.12615966796875 206.33340454101562 478.1918029785156 300.7885437011719 478.27789306640625 L 287.0755920410156 496.829833984375" stroke-width="2.0" fill="rgb(26, 59, 76)" opacity="0.9914675"/>
    <path d="M 208.83486938476562 137.40428161621094 C 188.15065002441406 110.11502075195312 193.69708251953125 111.72339630126953 206.77145385742188 113.25414276123047 C 146.8159942626953 124.54792785644531 140.61813354492188 168.1180419921875 118.0969467163086 124.95128631591797 C 112.13862609863281 50.460716247558594 118.40673828125 50.15102767944336 135.16542053222656 44.36114501953125 C 213.42605590820312 44.39350891113281 238.06980895996094 43.53769302368164 256.5677795410156 46.242374420166016 L 208.83486938476562 137.40428161621094" stroke-width="2.0" fill="rgb(58, 158, 203)" opacity="0.8675878"/>
    <path d="M 230.9563751220703 213.91915893554688 C 194.88519287109375 211.92967224121094 204.70521545410156 221.22613525390625 202.66159057617188 203.89588928222656 C 168.61500549316406 196.20704650878906 185.04660034179688 262.62713623046875 189.1913299560547 251.32559204101562 C 170.6726837158203 182.47763061523438 190.37733459472656 192.9954833984375 195.26812744140625 158.90313720703125 C 220.58950805664062 154.6349639892578 218.39508056640625 151.1842041015625 211.68785095214844 167.6999053955078 L 230.9563751220703 213.91915893554688" stroke-width="2.0" fill="rgb(245, 143, 73)" opacity="0.6464406"/>
    <path d="M 303.4293212890625 219.67416381835938 C 344.6783752441406 226.2091522216797 305.622802734375 213.32376098632812 313.8966369628906 244.93011474609375 C 205.00344848632812 236.14234924316406 271.8727722167969 286.70953369140625 182.77853393554688 223.39527893066406 C 199.37083435058594 216.67713928222656 343.6684265136719 218.79550170898438 313.06103515625 228.27976989746094 C 298.74664306640625 224.93789672851562 308.7364501953125 228.4774932861328 303.4996032714844 248.1041717529297 L 303.4293212890625 219.67416381835938" stroke-width="2.0" fill="rgb(195, 151, 97)" opacity="0.69651103"/>
    <path d="M 205.345458984375 231.2872772216797 C 202.13308715820312 255.7273406982422 220.1800079345703 250.55633544921875 185.7986602783203 252.8807373046875 C 152.70654296875 298.6681213378906 200.77757263183594 433.9639587402344 183.45265197753906 256.9886169433594 C 218.12960815429688 249.50575256347656 210.23031616210938 277.57781982421875 207.17660522460938 244.3260040283203 C 213.39328002929688 250.751220703125 200.6087188720703 184.3395233154297 212.8152313232422 204.4176483154297 L 205.345458984375 231.2872772216797" stroke-width="2.0" fill="rgb(14, 56, 77)" opacity="0.82154024"/>
    <path d="M 244.9536895751953 493.2748718261719 C 224.00404357910156 496.53082275390625 218.87315368652344 493.9430236816406 221.1817169189453 496.7607727050781 C 172.737060546875 497.1790466308594 163.4092254638672 497.84747314453125 125.56280517578125 496.0291748046875 C 113.93629455566406 472.21844482421875 130.82493591308594 479.5784606933594 184.63600158691406 477.59088134765625 C 210.6883544921875 479.7454528808594 219.39669799804688 477.4932556152344 243.44305419921875 479.53741455078125 L 244.9536895751953 493.2748718261719" stroke-width="2.0" fill="rgb(23, 58, 77)" opacity="0.59956044"/>
    <path d="M 238.10751342773438 135.88214111328125 C 225.57086181640625 153.02394104003906 222.50677490234375 171.19679260253906 221.4641876220703 187.16390991210938 C 175.77525329589844 195.42825317382812 184.60934448242188 198.869873046875 184.4743194580078 187.95762634277344 C 192.47779846191406 148.89207458496094 217.93756103515625 138.38999938964844 210.4156951904297 142.21873474121094 C 225.50543212890625 127.72212982177734 258.1906433105469 121.15538024902344 244.6134033203125 129.1124267578125 L 238.10751342773438 135.88214111328125" stroke-width="2.0" fill="rgb(24, 59, 76)" opacity="0.9942656"/>
    <path d="M 355.68060302734375 123.75604248046875 C 340.1681823730469 142.23629760742188 338.4215393066406 143.09622192382812 324.8143005371094 146.5165557861328 C 272.8587951660156 126.70004272460938 275.7752990722656 126.75611877441406 258.6455993652344 124.13633728027344 C 259.1325378417969 52.0597038269043 243.03468322753906 65.06072235107422 234.7880096435547 49.94698715209961 C 306.314208984375 44.36899948120117 296.7961120605469 45.39126968383789 357.9911193847656 46.69389343261719 L 355.68060302734375 123.75604248046875" stroke-width="2.0" fill="rgb(58, 156, 201)" opacity="0.853719"/>
    <path d="M 303.2679138183594 257.8863220214844 C 282.027587890625 264.2454833984375 254.90284729003906 260.1210021972656 218.5591583251953 261.6048583984375 C 219.87718200683594 266.23590087890625 205.8644256591797 277.1267395019531 209.86412048339844 251.44322204589844 C 129.703857421875 253.5511932373047 97.46104431152344 261.05145263671875 115.37228393554688 251.67495727539062 C 255.93003845214844 240.3595733642578 191.71951293945312 246.53933715820312 303.615234375 244.48776245117188 L 303.2679138183594 257.8863220214844" stroke-width="2.0" fill="rgb(252, 156, 74)" opacity="0.7432105"/>
    <path d="M 112.71593475341797 67.29226684570312 C 116.25901794433594 65.6392822265625 113.07746887207031 67.58649444580078 118.78770446777344 66.74746704101562 C 116.3535385131836 66.91850280761719 116.200439453125 66.95179748535156 114.93852233886719 66.77194213867188 C 108.89038848876953 63.86418151855469 111.40465545654297 61.07942199707031 114.97017669677734 62.91267395019531 C 109.2945785522461 60.68695831298828 110.47296905517578 64.85519409179688 114.5467300415039 66.52165985107422 L 112.71593475341797 67.29226684570312" stroke-width="2.0" fill="rgb(170, 98, 117)" opacity="0.11139288"/>
    <path d="M 446.15966796875 189.91339111328125 C 446.9482116699219 176.41726684570312 448.9521484375 194.02093505859375 446.74066162109375 200.52609252929688 C 453.3691711425781 191.12644958496094 440.3255310058594 204.58395385742188 437.9671630859375 207.28598022460938 C 437.4691162109375 168.5066680908203 438.65203857421875 199.70953369140625 442.9533386230469 176.2567596435547 C 446.0581359863281 189.8701934814453 450.9744873046875 200.798828125 440.7740783691406 177.15724182128906 L 446.15966796875 189.91339111328125" stroke-width="2.0" fill="rgb(198, 91, 13)" opacity="0.5367536"/>
    <path d="M 477.6763000488281 326.85394287109375 C 487.2860107421875 313.1265869140625 487.51287841796875 315.51007080078125 479.337890625 323.1920166015625 C 482.52001953125 319.12945556640625 474.5577087402344 313.17706298828125 479.83416748046875 287.9242858886719 C 472.57501220703125 279.14886474609375 463.4264221191406 278.9303283691406 461.4356384277344 277.9566650390625 C 488.0663146972656 284.5934143066406 476.813720703125 294.7713623046875 480.35137939453125 309.0049133300781 L 477.6763000488281 326.85394287109375" stroke-width="2.0" fill="rgb(137, 142, 62)" opacity="0.20924483"/>
    <path d="M 498.1092834472656 414.3658752441406 C 498.0687255859375 419.205322265625 498.08001708984375 441.54949951171875 498.41510009765625 476.1892395019531 C 475.1961669921875 478.0867919921875 480.6654968261719 471.73187255859375 479.31494140625 454.07080078125 C 479.239990234375 421.5540466308594 479.2196044921875 409.2223815917969 479.3047180175781 383.32177734375 C 503.5303649902344 383.0068664550781 496.08172607421875 382.1873474121094 498.632568359375 429.745361328125 L 498.1092834472656 414.3658752441406" stroke-width="2.0" fill="rgb(26, 59, 76)" opacity="1.0"/>
    <path d="M 466.04681396484375 449.88092041015625 C 467.0986328125 468.3945007324219 467.35528564453125 465.5381774902344 465.7256164550781 465.3486328125 C 422.451171875 466.80352783203125 407.6488952636719 465.3522033691406 374.5209045410156 466.29901123046875 C 375.06781005859375 406.40277099609375 384.14117431640625 428.8951416015625 444.43109130859375 428.2398376464844 C 444.11199951171875 392.1579284667969 440.59722900390625 381.50518798828125 465.93035888671875 375.2440185546875 L 466.04681396484375 449.88092041015625" stroke-width="2.0" fill="rgb(20, 58, 78)" opacity="0.72114325"/>
    <path d="M 117.87462615966797 466.25592041015625 C 219.76304626464844 465.5952453613281 246.73126220703125 463.3184814453125 188.5835723876953 478.6416320800781 C 67.46268463134766 477.07037353515625 64.93736267089844 484.78082275390625 82.47769165039062 467.1984558105469 C 113.60106658935547 467.0064392089844 131.613525390625 466.2643127441406 117.4957046508789 466.13885498046875 C 129.31814575195312 469.7163391113281 123.50619506835938 468.17059326171875 122.70962524414062 467.9877014160156 L 117.87462615966797 466.25592041015625" stroke-width="2.0" fill="rgb(244, 138, 59)" opacity="0.36262366"/>
    <path d="M 118.7303695678711 163.1105194091797 C 116.7812271118164 161.1656951904297 120.88247680664062 159.8386993408203 118.68909454345703 160.93154907226562 C 117.12223815917969 160.20497131347656 116.8258285522461 160.21876525878906 118.73210906982422 160.88998413085938 C 118.89498901367188 161.06942749023438 119.24879455566406 160.4463653564453 120.40948486328125 163.01910400390625 C 118.82024383544922 159.20071411132812 118.1341323852539 161.5953826904297 118.2101821899414 162.13987731933594 L 118.7303695678711 163.1105194091797" stroke-width="2.0" fill="rgb(109, 137, 255)" opacity="0.03195884"/>
    <path d="M 497.93426513671875 485.80987548828125 C 497.7132263183594 291.9906311035156 497.0093078613281 250.1428680419922 498.25714111328125 193.77435302734375 C 544.5897827148438 207.1840362548828 530.9335327148438 225.10955810546875 520.3719482421875 253.94076538085938 C 511.08135986328125 306.5960388183594 520.5068969726562 309.3648376464844 531.9203491210938 284.88134765625 C 523.1490478515625 248.6273956298828 508.02886962890625 264.48480224609375 590.1298217773438 386.8619079589844 L 497.93426513671875 485.80987548828125" stroke-width="2.0" fill="rgb(252, 234, 206)" opacity="0.6778979"/>
    <path d="M 82.93984985351562 319.3832702636719 C 82.27852630615234 323.9364929199219 89.31047058105469 317.53753662109375 118.65631103515625 317.4962463378906 C 121.07147216796875 285.84417724609375 99.04883575439453 307.5756530761719 95.61722564697266 310.0810241699219 C 87.49911499023438 313.7915344238281 74.16806030273438 338.3864440917969 65.6122055053711 303.7256774902344 C 51.070247650146484 297.3941650390625 121.08209228515625 301.5611572265625 105.2985610961914 302.83294677734375 L 82.93984985351562 319.3832702636719" stroke-width="2.0" fill="rgb(253, 178, 72)" opacity="0.49414837"/>
  </g>
</svg>
