<?xml version="1.0" ?>
<svg xmlns="http://www.w3.org/2000/svg" version="1.1" width="512" height="352">
  <defs/>
  <g>
    <path d="M 0.08276928216218948 0.15855111181735992 L 511.9878845214844 0.14977024495601654 L 511.9193420410156 351.83831787109375 L 0.138814777135849 351.8288269042969 L 0.08276928216218948 0.15855111181735992" stroke-width="0.0" fill="rgb(274, 254, 258)" opacity="1.0801957" stroke="rgb(0, 0, 0)" stroke-opacity="0.0" stroke-linecap="round" stroke-linejoin="round"/>
    <path d="M 0.4961131811141968 0.910310685634613 L 0.6252964735031128 351.19012451171875 L 511.6943664550781 351.1958312988281 L 511.8141174316406 0.8514620661735535 L 0.4961131811141968 0.910310685634613" stroke-width="2.0" fill="rgb(195, 209, 206)" opacity="1.1174439" stroke="rgb(0, 0, 0)" stroke-opacity="0.0" stroke-linecap="round" stroke-linejoin="round"/>
    <path d="M 345.73779296875 112.92349243164062 L 320.44921875 132.5893096923828 C 319.1806945800781 144.37115478515625 328.8058166503906 157.93966674804688 340.8282775878906 162.251708984375 C 352.2981262207031 173.49859619140625 346.7130126953125 184.735595703125 342.9917297363281 196.67083740234375 C 342.0428161621094 206.65866088867188 342.3968200683594 215.73829650878906 347.98828125 224.6565704345703 C 348.2322998046875 234.8526611328125 350.0212097167969 245.8628387451172 343.565185546875 256.1300964355469 C 335.9163818359375 256.3890380859375 316.68743896484375 262.44873046875 330.1972961425781 276.0052795410156 C 341.58392333984375 275.30535888671875 352.86712646484375 284.4252624511719 366.83721923828125 278.9911804199219 L 373.0925598144531 273.0317077636719 L 371.06591796875 279.8977355957031 L 383.0024719238281 286.3465576171875 L 440.8364562988281 281.1638488769531 C 445.7624816894531 273.61199951171875 438.3190002441406 273.0763854980469 436.6844787597656 273.6938781738281 C 443.242431640625 263.0722351074219 453.91644287109375 271.7325134277344 462.97381591796875 262.95574951171875 C 482.17681884765625 244.12823486328125 479.7096252441406 224.95291137695312 476.87384033203125 203.5529327392578 C 469.77899169921875 183.43846130371094 446.973876953125 163.39065551757812 455.8420715332031 144.8966827392578 C 456.9235534667969 139.2734375 463.7336120605469 134.98590087890625 460.2305603027344 129.97853088378906 C 449.9000244140625 123.75247955322266 441.99554443359375 140.6017303466797 440.3292236328125 150.38780212402344 C 438.141357421875 167.26260375976562 448.039306640625 184.1105194091797 459.18328857421875 198.80673217773438 C 465.6219177246094 212.01690673828125 466.76080322265625 225.43795776367188 463.23626708984375 239.59811401367188 L 453.3139953613281 253.3732452392578 L 454.1593933105469 219.67100524902344 C 450.47845458984375 205.76065063476562 442.46661376953125 188.19699096679688 425.2071533203125 177.89315795898438 L 393.7806396484375 167.71725463867188 C 391.7229919433594 155.52865600585938 400.2807922363281 140.972412109375 391.93798828125 128.5633544921875 C 396.8282165527344 123.14764404296875 400.8580627441406 116.6849365234375 399.8234558105469 108.01277160644531 C 390.1014709472656 108.9173355102539 382.296875 120.21015167236328 376.7812194824219 112.38066864013672 C 380.9981689453125 109.0969467163086 381.9258117675781 98.68595123291016 376.09954833984375 99.86891174316406 L 362.20062255859375 108.64192962646484 L 345.73779296875 112.92349243164062" stroke-width="2.0" fill="rgb(162, 163, 162)" opacity="0.9951568" stroke="rgb(0, 0, 0)" stroke-opacity="0.0" stroke-linecap="round" stroke-linejoin="round"/>
    <path d="M 100.71415710449219 112.99353790283203 L 99.75516510009766 132.8455810546875 C 94.2056884765625 144.22412109375 92.22998809814453 156.3911590576172 100.12138366699219 167.9082794189453 L 99.03274536132812 173.53292846679688 L 62.72123336791992 185.30245971679688 C 55.12390899658203 193.35780334472656 48.64842987060547 203.59486389160156 42.28343963623047 211.79385375976562 L 33.8840446472168 255.4819793701172 L 42.34202575683594 271.72796630859375 C 37.20976638793945 280.3013000488281 39.47273635864258 291.7237854003906 51.28859329223633 299.9690856933594 C 81.24089050292969 314.4791564941406 111.46976470947266 309.9018859863281 141.44412231445312 313.1770935058594 L 167.36801147460938 323.52783203125 C 175.1643829345703 312.2271728515625 160.58193969726562 302.8185119628906 152.89776611328125 301.21258544921875 C 122.95759582519531 294.7657165527344 93.55750274658203 300.63116455078125 64.41144561767578 289.5677490234375 C 60.76332092285156 287.1329345703125 50.26884078979492 282.5195617675781 55.022884368896484 281.8890380859375 C 61.05961227416992 289.7060546875 71.7185287475586 285.6989440917969 79.59443664550781 289.46331787109375 L 121.88688659667969 289.4187316894531 L 126.07788848876953 277.4998779296875 L 115.94441223144531 268.997802734375 C 121.6761703491211 266.4092712402344 119.2220687866211 250.5266571044922 124.81976318359375 256.65582275390625 C 126.421875 273.87542724609375 149.53587341308594 292.3923645019531 165.9953155517578 273.95428466796875 C 165.56143188476562 262.97369384765625 155.88241577148438 262.2992858886719 151.631103515625 259.72503662109375 C 141.04579162597656 242.1291046142578 150.25633239746094 224.36570739746094 151.08811950683594 205.83363342285156 C 158.7136688232422 200.32945251464844 166.5675811767578 192.43736267089844 174.60545349121094 196.17031860351562 C 180.33306884765625 188.50257873535156 187.78866577148438 182.3535614013672 180.60665893554688 172.5780029296875 C 167.73158264160156 169.33998107910156 156.31346130371094 174.16758728027344 147.16595458984375 182.7981414794922 C 145.98223876953125 176.5285186767578 158.82623291015625 173.47030639648438 163.9248809814453 166.74838256835938 C 168.6112518310547 157.887939453125 171.58290100097656 147.5851593017578 159.951416015625 141.6743927001953 C 159.33804321289062 138.09902954101562 165.8639678955078 128.96070861816406 158.70123291015625 124.46737670898438 C 149.06166076660156 131.68797302246094 141.16395568847656 122.03605651855469 132.33184814453125 120.28955841064453 L 112.53846740722656 121.03805541992188 L 100.71415710449219 112.99353790283203" stroke-width="2.0" fill="rgb(196, 172, 145)" opacity="0.9992173" stroke="rgb(0, 0, 0)" stroke-opacity="0.0" stroke-linecap="round" stroke-linejoin="round"/>
    <path d="M 117.7083969116211 292.1524353027344 L 149.4431610107422 293.5030822753906 L 159.40621948242188 300.3268737792969 L 277.6921691894531 303.40472412109375 L 290.7091064453125 295.96942138671875 L 447.7340393066406 293.1474609375 C 455.41644287109375 292.49951171875 467.96453857421875 282.68853759765625 458.03424072265625 273.3575134277344 C 451.5110168457031 272.3379211425781 445.72772216796875 268.3341064453125 439.1560363769531 271.3713073730469 C 442.12677001953125 274.88580322265625 443.9152526855469 277.9111328125 437.71112060546875 279.3473815917969 L 385.6523742675781 285.12225341796875 L 379.08270263671875 283.6908874511719 L 370.1140441894531 276.1349792480469 L 355.90509033203125 280.0784606933594 L 332.87579345703125 274.919189453125 C 319.6424560546875 269.8918151855469 327.8210144042969 258.58837890625 338.0809631347656 253.63427734375 L 285.1685791015625 251.93011474609375 L 283.4584045410156 250.49282836914062 L 293.7865295410156 245.4275665283203 L 308.8621520996094 242.50250244140625 L 296.42950439453125 238.21189880371094 L 269.5517272949219 238.1702880859375 L 266.4789733886719 260.1372985839844 C 274.2253112792969 260.9305419921875 287.9263916015625 264.70941162109375 288.1319580078125 272.44354248046875 C 280.9091491699219 280.3072204589844 273.4165344238281 277.3326110839844 267.3087463378906 277.9511413574219 L 253.48558044433594 272.82965087890625 C 233.70582580566406 277.8733215332031 216.36085510253906 277.2532958984375 198.66415405273438 272.8869934082031 C 189.81336975097656 269.26678466796875 193.64202880859375 265.4757995605469 200.18370056152344 261.59393310546875 L 227.44769287109375 255.7164306640625 L 251.27978515625 258.5968017578125 L 254.36477661132812 240.91305541992188 L 208.35372924804688 242.05715942382812 C 201.74342346191406 248.45606994628906 198.00743103027344 259.6870422363281 190.02943420410156 256.39544677734375 C 190.03872680664062 253.4976348876953 190.54417419433594 244.5123748779297 185.4916229248047 243.04135131835938 L 168.9585723876953 247.56163024902344 L 175.3880157470703 256.82623291015625 L 156.03103637695312 259.3186950683594 C 159.3722686767578 263.8230895996094 167.64944458007812 268.8687438964844 164.71127319335938 272.75628662109375 C 155.52976989746094 284.1350402832031 146.71603393554688 279.7888488769531 138.04135131835938 277.65423583984375 L 129.31675720214844 269.8847961425781 C 129.3751983642578 267.6297607421875 125.25408935546875 255.65843200683594 118.81317901611328 263.19244384765625 C 115.77302551269531 270.57391357421875 125.969482421875 276.6484375 125.203857421875 280.64923095703125 L 117.7083969116211 292.1524353027344" stroke-width="2.0" fill="rgb(174, 191, 187)" opacity="0.93075794" stroke="rgb(0, 0, 0)" stroke-opacity="0.0" stroke-linecap="round" stroke-linejoin="round"/>
    <path d="M 259.85247802734375 146.6106414794922 C 247.89576721191406 156.7509002685547 239.5279998779297 155.6842803955078 233.66676330566406 156.71658325195312 C 229.58963012695312 151.922119140625 231.67312622070312 145.77676391601562 222.63563537597656 139.11114501953125 L 204.91928100585938 132.49879455566406 L 202.2476806640625 141.29510498046875 L 184.34197998046875 143.7856903076172 L 185.43954467773438 152.2480926513672 L 170.1539306640625 157.6271209716797 L 175.7471466064453 164.69784545898438 L 170.0555877685547 172.93588256835938 L 183.28977966308594 176.24929809570312 C 182.7467041015625 180.47177124023438 182.83802795410156 185.57015991210938 175.9912109375 190.20193481445312 C 173.61611938476562 214.2749786376953 189.3708038330078 235.9022979736328 192.64430236816406 258.8822021484375 L 199.88023376464844 254.08253479003906 L 229.11692810058594 211.0038604736328 C 234.3079833984375 201.47438049316406 235.2436065673828 185.65731811523438 250.25538635253906 180.75193786621094 C 248.62770080566406 175.48939514160156 256.4638671875 167.70330810546875 261.8769836425781 167.11671447753906 L 259.85247802734375 146.6106414794922" stroke-width="2.0" fill="rgb(96, 123, 102)" opacity="0.99270326" stroke="rgb(0, 0, 0)" stroke-opacity="0.0" stroke-linecap="round" stroke-linejoin="round"/>
    <path d="M 354.6422424316406 44.37114715576172 L 333.1571350097656 43.300148010253906 C 332.26971435546875 38.15583038330078 328.392333984375 29.96349334716797 318.9978332519531 28.41571617126465 L 312.7677917480469 43.27864074707031 L 301.6295166015625 32.00200653076172 L 298.4140319824219 53.87904357910156 C 291.48004150390625 48.95264434814453 284.02410888671875 48.376564025878906 273.624755859375 53.53634262084961 L 273.2786865234375 59.62615966796875 L 267.6419677734375 54.63973617553711 L 267.462646484375 70.51715850830078 L 256.62646484375 80.3818588256836 L 270.96875 89.12582397460938 L 257.0897521972656 93.69825744628906 L 267.6295166015625 103.5975112915039 L 263.6890869140625 122.54129791259766 L 318.48388671875 97.90340423583984 L 327.9184265136719 87.43255615234375 L 343.9815673828125 54.679203033447266 L 354.6422424316406 44.37114715576172" stroke-width="2.0" fill="rgb(177, 108, 77)" opacity="0.99758446" stroke="rgb(0, 0, 0)" stroke-opacity="0.0" stroke-linecap="round" stroke-linejoin="round"/>
    <path d="M 113.85482788085938 228.22103881835938 C 97.39675903320312 214.2006378173828 77.73542022705078 214.057861328125 61.89206314086914 232.24111938476562 C 60.26982879638672 237.3499298095703 62.81336212158203 245.5748291015625 55.225521087646484 247.94874572753906 C 48.46712875366211 257.6048889160156 48.218841552734375 271.2853698730469 61.48040771484375 277.3291015625 C 79.8336181640625 281.2085876464844 103.42060852050781 285.2367248535156 120.03782653808594 264.580078125 C 124.49386596679688 252.3742218017578 124.41899871826172 240.15008544921875 113.85482788085938 228.22103881835938" stroke-width="2.0" fill="rgb(202, 177, 148)" opacity="1.183917" stroke="rgb(0, 0, 0)" stroke-opacity="0.0" stroke-linecap="round" stroke-linejoin="round"/>
  </g>
</svg>
