<?xml version="1.0" ?>
<svg xmlns="http://www.w3.org/2000/svg" version="1.1" width="512" height="352">
  <defs/>
  <g>
    <path d="M 0.052409447729587555 0.11454024910926819 L 511.90631103515625 0.11116436868906021 L 511.91522216796875 351.8520812988281 L 0.10796276479959488 351.82464599609375 L 0.052409447729587555 0.11454024910926819" stroke-width="0.0" fill="rgb(267, 244, 249)" opacity="1.060071" stroke="rgb(0, 0, 0)" stroke-opacity="0.0" stroke-linecap="round" stroke-linejoin="round"/>
    <path d="M 0.39168718457221985 0.8843839764595032 L 0.5680845379829407 351.2002258300781 L 511.5024719238281 351.2060546875 L 511.5391845703125 0.8572912812232971 L 0.39168718457221985 0.8843839764595032" stroke-width="2.0" fill="rgb(197, 213, 209)" opacity="1.0981258" stroke="rgb(0, 0, 0)" stroke-opacity="0.0" stroke-linecap="round" stroke-linejoin="round"/>
    <path d="M 345.52105712890625 112.79347229003906 L 320.25665283203125 132.44314575195312 C 319.0968017578125 144.4109649658203 328.7594299316406 157.98033142089844 340.7438049316406 162.3260955810547 C 352.1773681640625 173.5547332763672 346.58795166015625 184.68295288085938 342.8784484863281 196.57968139648438 C 341.9839782714844 206.67916870117188 342.310791015625 215.79379272460938 348.10272216796875 224.72015380859375 C 348.7326354980469 235.06239318847656 350.6775207519531 246.1944580078125 344.12542724609375 256.3390197753906 C 336.1493225097656 256.3058776855469 317.46331787109375 262.1379699707031 331.0572814941406 275.5688781738281 C 341.6453552246094 275.2803039550781 352.88507080078125 284.4371643066406 366.7915344238281 278.99285888671875 L 373.88641357421875 272.9647216796875 L 371.881591796875 278.3957824707031 L 383.9985046386719 284.22430419921875 L 440.60028076171875 280.5103454589844 C 445.7375183105469 273.5989685058594 438.282958984375 273.1744384765625 436.6294250488281 273.5238342285156 C 443.0838317871094 262.5726318359375 453.7632141113281 271.2375183105469 462.6397399902344 262.71514892578125 C 480.64935302734375 242.7301483154297 478.1956481933594 223.73439025878906 476.4049072265625 203.90472412109375 C 469.4988708496094 183.79322814941406 446.9393615722656 163.54953002929688 455.8802795410156 144.95594787597656 C 456.8895568847656 139.18670654296875 463.7934265136719 134.9506072998047 460.4481201171875 129.8287353515625 C 450.04583740234375 123.92179107666016 442.2342834472656 140.80508422851562 440.4637145996094 150.43252563476562 C 438.36187744140625 167.01290893554688 448.1806945800781 183.97239685058594 459.3851318359375 198.60670471191406 C 465.60919189453125 211.94003295898438 466.6614074707031 225.45362854003906 463.50439453125 239.9493865966797 L 453.32391357421875 253.3412628173828 L 454.21002197265625 219.62789916992188 C 450.5384521484375 205.70765686035156 442.5323791503906 188.13211059570312 425.2950439453125 177.78985595703125 L 393.84051513671875 167.49427795410156 C 391.7582702636719 155.53384399414062 400.3161315917969 140.99595642089844 391.9835205078125 128.65283203125 C 396.8621520996094 123.17615509033203 400.8871765136719 116.697265625 399.8389587402344 107.9489974975586 C 389.9952392578125 108.7780532836914 382.2530822753906 120.11454010009766 376.8083801269531 112.28914642333984 C 380.99041748046875 109.072509765625 381.9186706542969 98.71387481689453 375.9956359863281 99.73995208740234 L 362.081298828125 108.55645751953125 L 345.52105712890625 112.79347229003906" stroke-width="2.0" fill="rgb(167, 167, 167)" opacity="0.9695684" stroke="rgb(0, 0, 0)" stroke-opacity="0.0" stroke-linecap="round" stroke-linejoin="round"/>
    <path d="M 100.63487243652344 112.96328735351562 L 99.55438995361328 132.74473571777344 C 94.07978820800781 144.1276397705078 92.1583480834961 156.39698791503906 100.0025863647461 167.95870971679688 L 98.94266510009766 173.4551544189453 L 62.64793395996094 185.2523193359375 C 54.95137023925781 193.1924285888672 48.4870491027832 203.4476776123047 42.24311065673828 211.7277069091797 L 33.86205291748047 255.45428466796875 L 42.329708099365234 271.63568115234375 C 37.599674224853516 279.8190612792969 39.73842239379883 291.5314636230469 51.54956817626953 299.7703857421875 C 81.71985626220703 314.4366455078125 111.88298797607422 309.8778381347656 142.09976196289062 313.0089416503906 L 166.27040100097656 322.0749816894531 C 173.540771484375 313.529052734375 159.24176025390625 303.9301452636719 152.4828338623047 301.3085632324219 C 122.90647888183594 294.8121643066406 93.3915786743164 300.7318420410156 64.01814270019531 289.8162841796875 C 60.072845458984375 287.6387939453125 49.18125534057617 283.63262939453125 54.4965934753418 281.8352355957031 C 61.11573791503906 289.6631774902344 71.76856994628906 285.6670227050781 79.627197265625 289.4230041503906 L 121.143310546875 289.19793701171875 L 125.9393539428711 277.3849182128906 L 115.87410736083984 268.75128173828125 C 121.60609436035156 266.3377990722656 119.14363861083984 250.4585418701172 124.71961212158203 256.66162109375 C 126.41580963134766 273.87548828125 149.5620574951172 292.3892517089844 165.9916229248047 273.9358215332031 C 165.5498809814453 262.9792175292969 155.87554931640625 262.29022216796875 151.67140197753906 259.5721740722656 C 140.87974548339844 241.73223876953125 149.95623779296875 224.04273986816406 150.8140869140625 205.6112060546875 C 158.35336303710938 199.97476196289062 166.17556762695312 191.96234130859375 174.106689453125 195.6174774169922 C 178.8324737548828 187.2818603515625 186.33856201171875 181.43203735351562 179.80484008789062 173.49281311035156 C 168.193359375 170.13046264648438 156.5432586669922 174.55252075195312 147.2085723876953 183.2010955810547 C 145.9418487548828 176.49862670898438 158.81695556640625 173.46914672851562 163.9419708251953 166.7649383544922 C 168.59744262695312 157.85226440429688 171.55569458007812 147.59922790527344 159.94007873535156 141.5247039794922 C 159.320556640625 138.06185913085938 165.8485107421875 128.95220947265625 158.67750549316406 124.45214080810547 C 148.39865112304688 131.8119354248047 140.6533203125 122.42881774902344 132.30926513671875 121.77354431152344 L 112.67064666748047 121.2916488647461 L 100.63487243652344 112.96328735351562" stroke-width="2.0" fill="rgb(205, 181, 150)" opacity="0.9653815" stroke="rgb(0, 0, 0)" stroke-opacity="0.0" stroke-linecap="round" stroke-linejoin="round"/>
    <path d="M 117.66435241699219 292.2474060058594 L 149.36280822753906 293.5931091308594 L 159.31646728515625 300.5076599121094 L 277.6954040527344 303.58599853515625 L 290.78662109375 296.28802490234375 L 447.7955322265625 293.376953125 C 455.46728515625 292.54876708984375 468.02642822265625 282.7110290527344 458.1198425292969 273.2467956542969 C 451.53863525390625 272.1883239746094 445.7416076660156 268.0281982421875 439.1282958984375 271.1770324707031 C 442.116943359375 274.91937255859375 443.8832092285156 277.7958984375 437.6819763183594 279.31927490234375 L 385.8933410644531 285.07855224609375 L 379.0401916503906 283.63525390625 L 370.2518615722656 276.1845397949219 L 356.0250549316406 280.0965270996094 L 333.1446228027344 274.5662841796875 C 319.7293395996094 269.73297119140625 327.8624572753906 258.6015930175781 338.121826171875 253.5660400390625 L 285.22052001953125 251.72239685058594 L 283.55340576171875 250.58815002441406 L 293.8333435058594 245.47775268554688 L 308.8673400878906 242.51292419433594 L 296.4627380371094 238.0456085205078 L 269.3887023925781 238.0186309814453 L 266.18988037109375 260.00262451171875 C 274.34344482421875 260.82904052734375 288.2660217285156 264.4879150390625 289.10723876953125 274.7610778808594 C 281.9884338378906 282.1167907714844 273.9993591308594 279.168212890625 266.3341369628906 279.36212158203125 L 253.45758056640625 273.5075378417969 C 234.20919799804688 278.8323059082031 216.15301513671875 278.0452880859375 198.32632446289062 273.473876953125 C 189.72084045410156 269.4161682128906 193.592041015625 265.4555358886719 200.0596923828125 261.41265869140625 L 227.26756286621094 255.478759765625 L 251.3183135986328 258.5311279296875 L 254.4137725830078 240.76596069335938 L 208.34996032714844 241.8738555908203 C 201.89700317382812 248.60427856445312 198.1903533935547 259.8188171386719 190.45433044433594 256.4500732421875 C 190.1756591796875 253.4892120361328 190.58099365234375 244.50924682617188 185.53143310546875 243.07545471191406 L 169.14527893066406 247.59156799316406 L 175.59356689453125 256.6318359375 L 156.0258331298828 259.2869567871094 C 159.3310546875 263.85845947265625 167.6015167236328 268.9233093261719 164.6929168701172 272.752197265625 C 155.5511932373047 284.1126708984375 146.7454376220703 279.7399597167969 138.0832061767578 277.58184814453125 L 129.34219360351562 269.8662414550781 C 129.406005859375 267.60211181640625 125.2735824584961 255.61892700195312 118.7874984741211 263.1626892089844 C 115.7297592163086 270.6158752441406 125.92681884765625 276.6893310546875 125.28380584716797 280.8436584472656 L 117.66435241699219 292.2474060058594" stroke-width="2.0" fill="rgb(181, 198, 193)" opacity="0.93783295" stroke="rgb(0, 0, 0)" stroke-opacity="0.0" stroke-linecap="round" stroke-linejoin="round"/>
    <path d="M 259.80242919921875 147.04190063476562 C 249.139892578125 158.10733032226562 240.5312957763672 156.79766845703125 233.86834716796875 156.990478515625 C 229.5753631591797 151.9333953857422 231.6602783203125 145.78831481933594 222.61968994140625 139.1239013671875 L 204.8662872314453 132.4956817626953 L 202.408203125 141.2979278564453 L 184.32611083984375 143.7587432861328 L 185.43582153320312 152.2321319580078 L 170.13662719726562 157.607177734375 L 175.764404296875 164.71678161621094 L 170.1969757080078 172.55331420898438 L 182.75299072265625 177.09840393066406 C 182.57342529296875 180.3903350830078 182.7144317626953 185.4900360107422 176.017333984375 190.20126342773438 C 173.651123046875 214.25418090820312 189.37283325195312 235.9074249267578 192.63259887695312 258.9444580078125 L 199.8732452392578 254.08314514160156 L 229.1095428466797 210.99282836914062 C 234.3229522705078 201.4914093017578 235.2600860595703 185.67832946777344 249.55355834960938 180.53567504882812 C 247.80416870117188 174.5573272705078 255.5452880859375 166.66018676757812 261.60870361328125 164.35972595214844 L 259.80242919921875 147.04190063476562" stroke-width="2.0" fill="rgb(95, 121, 100)" opacity="1.0012064" stroke="rgb(0, 0, 0)" stroke-opacity="0.0" stroke-linecap="round" stroke-linejoin="round"/>
    <path d="M 354.3706359863281 44.45124053955078 L 332.8879089355469 43.46976852416992 C 332.1259765625 38.309303283691406 328.1955871582031 30.226638793945312 319.3345947265625 28.783226013183594 L 312.5809020996094 44.126853942871094 L 301.4994812011719 33.02296447753906 L 298.5338134765625 54.13610076904297 C 291.4040222167969 48.93747329711914 284.0121154785156 48.25834274291992 274.9400329589844 53.98845291137695 L 276.42779541015625 59.758872985839844 L 268.7043762207031 55.06159210205078 L 268.0686340332031 70.94586181640625 L 257.2282409667969 79.20497131347656 L 271.1557922363281 89.69779205322266 L 257.8290710449219 93.2517318725586 L 267.6119689941406 102.8805923461914 L 263.6916809082031 122.29374694824219 L 318.9994201660156 98.2828598022461 L 328.0436096191406 87.75445556640625 L 343.8388366699219 54.39883804321289 L 354.3706359863281 44.45124053955078" stroke-width="2.0" fill="rgb(139, 98, 73)" opacity="1.0633106" stroke="rgb(0, 0, 0)" stroke-opacity="0.0" stroke-linecap="round" stroke-linejoin="round"/>
    <path d="M 115.92715454101562 226.12628173828125 C 97.86933898925781 212.69656372070312 77.68972778320312 212.99362182617188 62.05338668823242 231.83714294433594 C 60.48222732543945 237.39439392089844 63.00233840942383 245.65875244140625 54.81153106689453 248.02313232421875 C 47.556758880615234 257.7387390136719 47.15048599243164 271.8360290527344 60.43043899536133 278.697998046875 C 79.92658233642578 281.7087097167969 103.99820709228516 286.0396423339844 120.15101623535156 264.85626220703125 C 124.80062866210938 252.3343505859375 125.7760238647461 239.70135498046875 115.92715454101562 226.12628173828125" stroke-width="2.0" fill="rgb(200, 176, 148)" opacity="1.192566" stroke="rgb(0, 0, 0)" stroke-opacity="0.0" stroke-linecap="round" stroke-linejoin="round"/>
    <path d="M 377.8714904785156 223.41319274902344 C 365.44561767578125 242.66644287109375 377.4089660644531 272.7921447753906 401.1788635253906 275.16876220703125 L 435.24749755859375 272.3482971191406 C 448.599365234375 261.28875732421875 447.5897216796875 246.78396606445312 433.0942077636719 239.91702270507812 L 428.7026062011719 223.80674743652344 C 412.7106018066406 207.48568725585938 396.0122375488281 206.7252960205078 377.8714904785156 223.41319274902344" stroke-width="2.0" fill="rgb(158, 158, 158)" opacity="0.98463213" stroke="rgb(0, 0, 0)" stroke-opacity="0.0" stroke-linecap="round" stroke-linejoin="round"/>
    <path d="M 258.47479248046875 206.423095703125 C 258.0719909667969 216.95025634765625 258.6455993652344 223.52825927734375 267.1867370605469 231.83839416503906 C 276.1510925292969 226.35670471191406 285.0710754394531 233.28775024414062 295.4869689941406 236.80624389648438 L 299.6376037597656 234.63214111328125 L 318.82647705078125 242.80894470214844 L 329.0080261230469 240.45823669433594 L 320.8128356933594 223.29026794433594 L 317.639892578125 206.3586883544922 C 308.947509765625 199.2418212890625 311.08526611328125 189.5500946044922 300.3603515625 183.79122924804688 L 284.4422607421875 181.0202178955078 L 276.3905944824219 194.95803833007812 C 268.4966735839844 197.3658447265625 263.2237243652344 197.36248779296875 258.47479248046875 206.423095703125" stroke-width="2.0" fill="rgb(99, 130, 130)" opacity="0.98739296" stroke="rgb(0, 0, 0)" stroke-opacity="0.0" stroke-linecap="round" stroke-linejoin="round"/>
    <path d="M 457.5635070800781 128.01449584960938 C 453.66986083984375 126.89412689208984 447.4981689453125 133.50511169433594 444.2021484375 139.18258666992188 C 438.8908996582031 150.76063537597656 439.9939880371094 162.7664794921875 444.32354736328125 174.67108154296875 L 462.9595031738281 205.0430145263672 C 466.87567138671875 222.39254760742188 468.92315673828125 244.83682250976562 445.9656066894531 256.9454650878906 L 442.2698669433594 268.1466979980469 C 452.4877014160156 269.793212890625 463.9238586425781 263.9561462402344 471.7507019042969 252.654541015625 C 481.06829833984375 235.0296630859375 480.39990234375 215.9900665283203 474.42803955078125 197.8076171875 C 465.3558349609375 180.3925323486328 448.5411376953125 163.07391357421875 454.2576599121094 145.805908203125 C 453.58154296875 139.43275451660156 468.04486083984375 133.64645385742188 457.5635070800781 128.01449584960938" stroke-width="2.0" fill="rgb(155, 156, 156)" opacity="1.2047917" stroke="rgb(0, 0, 0)" stroke-opacity="0.0" stroke-linecap="round" stroke-linejoin="round"/>
    <path d="M 174.57371520996094 194.81210327148438 C 165.52560424804688 191.5472869873047 155.5364990234375 198.53797912597656 149.90476989746094 205.7457275390625 C 150.58755493164062 223.3314208984375 139.95523071289062 240.6765594482422 150.9976806640625 259.0709228515625 L 177.4812469482422 256.7928771972656 L 168.73081970214844 248.2084503173828 L 187.28103637695312 242.54811096191406 L 177.70156860351562 214.74441528320312 L 174.57371520996094 194.81210327148438" stroke-width="2.0" fill="rgb(201, 216, 214)" opacity="0.8850414" stroke="rgb(0, 0, 0)" stroke-opacity="0.0" stroke-linecap="round" stroke-linejoin="round"/>
    <path d="M 41.14918899536133 274.0745849609375 C 39.9132080078125 280.3851623535156 39.69634246826172 285.6635437011719 42.79022979736328 291.4017639160156 C 57.215362548828125 307.07244873046875 71.77665710449219 306.4484558105469 86.31895446777344 310.0700988769531 C 108.91667938232422 312.3201599121094 130.72642517089844 309.99176025390625 153.0760498046875 315.8073425292969 C 158.01148986816406 321.1331481933594 164.65138244628906 328.1304626464844 170.2477264404297 317.96270751953125 C 169.4788818359375 310.13507080078125 162.24488830566406 305.1775207519531 155.53135681152344 302.4342956542969 C 123.43572998046875 294.2463073730469 91.75814819335938 302.32086181640625 60.12556457519531 287.8502197265625 L 47.027992248535156 269.9102478027344 L 41.14918899536133 274.0745849609375" stroke-width="2.0" fill="rgb(179, 155, 134)" opacity="1.0808964" stroke="rgb(0, 0, 0)" stroke-opacity="0.0" stroke-linecap="round" stroke-linejoin="round"/>
    <path d="M 193.6488037109375 266.63983154296875 L 196.6962127685547 275.9990234375 C 216.88539123535156 279.5140686035156 236.4064483642578 279.6126403808594 255.6631317138672 274.5624084472656 C 262.757568359375 281.7728576660156 270.917236328125 277.968505859375 279.3189392089844 278.7438659667969 C 283.6279602050781 277.9267272949219 291.9351501464844 275.3869934082031 288.0297546386719 268.32244873046875 C 277.01947021484375 258.16754150390625 266.4014892578125 261.42059326171875 257.6244201660156 266.3859558105469 C 241.4217071533203 250.90902709960938 224.58538818359375 255.17225646972656 207.6326141357422 258.3393249511719 L 193.6488037109375 266.63983154296875" stroke-width="2.0" fill="rgb(157, 168, 165)" opacity="1.1047682" stroke="rgb(0, 0, 0)" stroke-opacity="0.0" stroke-linecap="round" stroke-linejoin="round"/>
    <path d="M 193.16571044921875 271.33544921875 C 205.51608276367188 278.150390625 217.17286682128906 276.59539794921875 228.76995849609375 275.7808532714844 L 252.92831420898438 274.0550537109375 L 255.4282989501953 266.85430908203125 C 236.47808837890625 248.4409942626953 216.51792907714844 254.3162078857422 195.88653564453125 262.63836669921875 L 193.16571044921875 271.33544921875" stroke-width="2.0" fill="rgb(190, 192, 191)" opacity="1.0703136" stroke="rgb(0, 0, 0)" stroke-opacity="0.0" stroke-linecap="round" stroke-linejoin="round"/>
    <path d="M 254.0917510986328 166.84805297851562 L 248.5216064453125 177.81845092773438 C 257.99371337890625 206.49000549316406 257.76422119140625 234.50634765625 253.23512268066406 263.3962707519531 C 256.52783203125 270.0205993652344 262.2308044433594 266.7787780761719 266.4065856933594 263.64263916015625 L 267.5807800292969 229.10025024414062 C 259.7675476074219 221.77061462402344 259.4759521484375 214.58570861816406 260.4961853027344 209.56600952148438 L 264.7919616699219 198.92919921875 L 254.0917510986328 166.84805297851562" stroke-width="2.0" fill="rgb(48, 62, 40)" opacity="1.0128115" stroke="rgb(0, 0, 0)" stroke-opacity="0.0" stroke-linecap="round" stroke-linejoin="round"/>
    <path d="M 276.614501953125 53.329063415527344 L 258.97406005859375 51.343528747558594 L 264.92266845703125 57.667293548583984 L 250.2565460205078 64.51602172851562 L 259.7702941894531 66.27242279052734 C 237.68026733398438 81.31571960449219 234.931396484375 100.3726577758789 236.37448120117188 116.41975402832031 L 243.1657257080078 153.26051330566406 C 243.19766235351562 158.68373107910156 247.27296447753906 157.6621551513672 250.4175567626953 155.49142456054688 C 247.89212036132812 127.74466705322266 228.71446228027344 100.67875671386719 256.32061767578125 73.21945190429688 L 269.0467224121094 74.28247833251953 C 270.4483642578125 67.6113052368164 267.1256408691406 61.341251373291016 273.3382568359375 58.31400680541992 C 276.7747802734375 63.29555892944336 280.56329345703125 59.681312561035156 276.614501953125 53.329063415527344" stroke-width="2.0" fill="rgb(47, 60, 37)" opacity="0.9868164" stroke="rgb(0, 0, 0)" stroke-opacity="0.0" stroke-linecap="round" stroke-linejoin="round"/>
    <path d="M 182.89657592773438 176.6272735595703 C 169.12315368652344 167.94737243652344 156.93600463867188 174.623046875 144.98329162597656 183.60134887695312 L 150.255615234375 203.90626525878906 L 167.80718994140625 195.24940490722656 C 175.2200469970703 198.70574951171875 184.5284423828125 185.43411254882812 182.89657592773438 176.6272735595703" stroke-width="2.0" fill="rgb(192, 167, 141)" opacity="0.957527" stroke="rgb(0, 0, 0)" stroke-opacity="0.0" stroke-linecap="round" stroke-linejoin="round"/>
    <path d="M 318.5285949707031 277.4429931640625 C 308.8367004394531 270.0229187011719 300.4714050292969 276.5950622558594 291.8553466796875 278.1481018066406 L 298.1697998046875 271.0394287109375 L 289.34344482421875 269.0051574707031 L 288.2650451660156 274.15545654296875 C 279.94622802734375 280.51983642578125 271.5049743652344 277.05523681640625 263.7195739746094 277.7616882324219 C 255.79544067382812 273.1712341308594 247.48239135742188 274.1391296386719 239.49282836914062 276.582275390625 L 213.8994598388672 276.52178955078125 L 210.98834228515625 284.1903991699219 L 301.9048767089844 283.382080078125 L 318.5285949707031 277.4429931640625" stroke-width="2.0" fill="rgb(120, 151, 155)" opacity="1.0489686" stroke="rgb(0, 0, 0)" stroke-opacity="0.0" stroke-linecap="round" stroke-linejoin="round"/>
    <path d="M 331.0920715332031 68.20209503173828 L 321.5399475097656 72.39344787597656 L 293.0205078125 100.95183563232422 C 296.74359130859375 111.56698608398438 307.5579833984375 104.1721420288086 314.6573791503906 102.82527160644531 C 325.8274230957031 93.54232025146484 335.9805603027344 81.338134765625 331.0920715332031 68.20209503173828" stroke-width="2.0" fill="rgb(216, 200, 173)" opacity="1.0761733" stroke="rgb(0, 0, 0)" stroke-opacity="0.0" stroke-linecap="round" stroke-linejoin="round"/>
    <path d="M 371.7076416015625 274.42657470703125 C 369.9917907714844 281.1879577636719 378.7272644042969 285.46270751953125 383.29412841796875 286.2644348144531 C 404.1352233886719 285.9300231933594 423.4134826660156 285.46148681640625 442.9559631347656 280.0339050292969 L 436.8110656738281 271.1716003417969 C 418.906005859375 273.1703186035156 402.4775695800781 278.4872741699219 385.9401550292969 266.229248046875 C 381.1153259277344 266.7833251953125 377.2716369628906 267.7689208984375 371.7076416015625 274.42657470703125" stroke-width="2.0" fill="rgb(149, 151, 151)" opacity="1.247866" stroke="rgb(0, 0, 0)" stroke-opacity="0.0" stroke-linecap="round" stroke-linejoin="round"/>
    <path d="M 348.6269836425781 223.6856689453125 C 349.0783996582031 234.66268920898438 349.997802734375 245.47203063964844 345.3789978027344 255.73439025878906 L 326.6656494140625 262.5977478027344 C 324.2385559082031 268.0883483886719 327.4820556640625 271.38897705078125 331.1095886230469 275.80096435546875 L 344.56011962890625 277.0522155761719 C 337.6009826660156 269.010986328125 351.42041015625 262.71173095703125 356.8938293457031 261.8626708984375 C 361.1050109863281 253.78515625 363.6311340332031 246.18499755859375 362.4123229980469 239.0814208984375 L 348.6269836425781 223.6856689453125" stroke-width="2.0" fill="rgb(119, 120, 119)" opacity="0.9780383" stroke="rgb(0, 0, 0)" stroke-opacity="0.0" stroke-linecap="round" stroke-linejoin="round"/>
    <path d="M 259.8749694824219 147.1790771484375 C 249.27432250976562 158.9188995361328 240.86264038085938 159.29222106933594 231.7348175048828 159.4552001953125 L 232.9417266845703 182.9855499267578 C 240.50759887695312 182.6790313720703 251.550537109375 180.8673858642578 250.4595184326172 172.12542724609375 L 261.71636962890625 166.46754455566406 L 259.8749694824219 147.1790771484375" stroke-width="2.0" fill="rgb(106, 132, 113)" opacity="1.1143475" stroke="rgb(0, 0, 0)" stroke-opacity="0.0" stroke-linecap="round" stroke-linejoin="round"/>
    <path d="M 126.9071044921875 283.0073547363281 L 116.38353729248047 270.2462463378906 L 96.04459381103516 279.1803283691406 L 56.21446990966797 279.52716064453125 L 64.44395446777344 287.554931640625 L 119.1421127319336 290.5976257324219 L 126.9071044921875 283.0073547363281" stroke-width="2.0" fill="rgb(179, 158, 135)" opacity="1.0960715" stroke="rgb(0, 0, 0)" stroke-opacity="0.0" stroke-linecap="round" stroke-linejoin="round"/>
    <path d="M 278.462158203125 51.154815673828125 C 279.1910400390625 66.02790069580078 296.53814697265625 72.13160705566406 307.65777587890625 80.65719604492188 L 313.2649230957031 77.55707550048828 L 294.1507873535156 51.1456413269043 L 278.462158203125 51.154815673828125" stroke-width="2.0" fill="rgb(201, 95, 61)" opacity="0.9943313" stroke="rgb(0, 0, 0)" stroke-opacity="0.0" stroke-linecap="round" stroke-linejoin="round"/>
    <path d="M 321.2781066894531 28.573644638061523 L 313.99530029296875 39.04226303100586 L 320.980224609375 71.22457885742188 C 330.207763671875 66.11648559570312 327.0516052246094 53.547916412353516 331.24420166015625 45.11188507080078 C 331.3335266113281 39.84746551513672 328.6715393066406 33.68351745605469 321.2781066894531 28.573644638061523" stroke-width="2.0" fill="rgb(203, 95, 61)" opacity="1.0098177" stroke="rgb(0, 0, 0)" stroke-opacity="0.0" stroke-linecap="round" stroke-linejoin="round"/>
    <path d="M 256.1836853027344 81.5068130493164 L 296.9808654785156 89.4966812133789 L 304.7120361328125 86.19886779785156 C 290.7551574707031 75.96124267578125 272.9891662597656 68.74070739746094 256.1836853027344 81.5068130493164" stroke-width="2.0" fill="rgb(197, 99, 67)" opacity="1.1039202" stroke="rgb(0, 0, 0)" stroke-opacity="0.0" stroke-linecap="round" stroke-linejoin="round"/>
    <path d="M 332.9803466796875 139.4226837158203 L 333.5666809082031 142.70643615722656 L 367.6114501953125 159.85377502441406 C 369.0323181152344 155.59060668945312 371.8482360839844 155.05589294433594 375.08575439453125 157.27029418945312 L 380.1321105957031 153.0838623046875 L 379.1175842285156 147.85597229003906 C 371.6347961425781 149.64418029785156 364.3133544921875 141.80824279785156 357.0069580078125 140.47137451171875 L 332.9803466796875 139.4226837158203" stroke-width="2.0" fill="rgb(176, 176, 175)" opacity="1.0079848" stroke="rgb(0, 0, 0)" stroke-opacity="0.0" stroke-linecap="round" stroke-linejoin="round"/>
    <path d="M 254.35328674316406 270.7480163574219 C 253.2433624267578 276.6358642578125 260.5916442871094 276.4957580566406 263.958984375 277.1818542480469 C 271.95361328125 276.45562744140625 279.8172607421875 279.2769775390625 288.3489990234375 273.44378662109375 C 287.99749755859375 262.2688293457031 273.91448974609375 261.0185546875 266.8329162597656 262.2794494628906 L 254.35328674316406 270.7480163574219" stroke-width="2.0" fill="rgb(192, 193, 193)" opacity="1.033643" stroke="rgb(0, 0, 0)" stroke-opacity="0.0" stroke-linecap="round" stroke-linejoin="round"/>
    <path d="M 302.3218688964844 32.73043441772461 L 300.9129333496094 55.05320358276367 L 315.0810852050781 75.42938232421875 L 318.340087890625 70.2510757446289 C 312.6346130371094 58.09209442138672 315.8067932128906 43.04154586791992 302.3218688964844 32.73043441772461" stroke-width="2.0" fill="rgb(201, 97, 63)" opacity="0.994691" stroke="rgb(0, 0, 0)" stroke-opacity="0.0" stroke-linecap="round" stroke-linejoin="round"/>
    <path d="M 146.75054931640625 127.409423828125 C 131.39743041992188 120.52268981933594 115.99559783935547 115.2059097290039 100.74827575683594 133.12269592285156 L 97.05625915527344 143.33457946777344 C 103.60128784179688 136.48606872558594 109.66048431396484 128.91497802734375 114.57801055908203 128.83102416992188 L 108.11017608642578 136.34181213378906 L 104.45283508300781 146.54867553710938 L 124.04515075683594 128.3896942138672 L 120.77214050292969 139.7376251220703 C 127.55052947998047 128.62828063964844 137.89871215820312 126.05911254882812 146.75054931640625 127.409423828125" stroke-width="2.0" fill="rgb(150, 94, 79)" opacity="1.012578" stroke="rgb(0, 0, 0)" stroke-opacity="0.0" stroke-linecap="round" stroke-linejoin="round"/>
    <path d="M 258.4041442871094 94.6915054321289 C 269.3004150390625 108.276123046875 281.0703125 97.9408950805664 293.3145446777344 99.25629425048828 L 297.00604248046875 93.95368957519531 C 284.11578369140625 85.52999877929688 271.7304382324219 88.40335845947266 258.4041442871094 94.6915054321289" stroke-width="2.0" fill="rgb(194, 96, 63)" opacity="1.0637317" stroke="rgb(0, 0, 0)" stroke-opacity="0.0" stroke-linecap="round" stroke-linejoin="round"/>
  </g>
</svg>
