<?xml version="1.0" ?>
<svg xmlns="http://www.w3.org/2000/svg" version="1.1" width="512" height="352">
  <defs/>
  <g>
    <path d="M 146.9925079345703 235.94058227539062 C 147.16061401367188 251.3062744140625 150.3325958251953 251.14967346191406 92.90872192382812 252.167724609375 C 68.71391296386719 245.62376403808594 70.83076477050781 245.49620056152344 56.52701950073242 234.24252319335938 C 52.99917221069336 192.07940673828125 50.45652389526367 186.23806762695312 99.73683166503906 176.0565643310547 C 126.71554565429688 141.1708984375 149.5638885498047 168.7389373779297 146.9925079345703 235.94058227539062" stroke-width="0.0" fill="rgb(213, 188, 156)" opacity="0.9841079" stroke="rgb(240, 19, 91)" stroke-opacity="0.9183631" stroke-linecap="round" stroke-linejoin="round"/>
    <path d="M 230.0741424560547 209.69882202148438 C 210.160400390625 234.9147186279297 202.947265625 253.77734375 192.6321563720703 259.8240661621094 C 187.3650360107422 226.41348266601562 182.8131561279297 243.3815155029297 175.30723571777344 193.7190399169922 C 176.6788787841797 178.64260864257812 180.3434295654297 204.23060607910156 184.8086700439453 167.20199584960938 C 271.8038330078125 181.6188507080078 245.69171142578125 154.02049255371094 230.0741424560547 209.69882202148438" stroke-width="0.0" fill="rgb(31, 61, 33)" opacity="0.68176097" stroke="rgb(47, 123, 20)" stroke-opacity="0.8642723" stroke-linecap="round" stroke-linejoin="round"/>
    <path d="M 256.45172119140625 292.4530334472656 C 258.675048828125 131.28086853027344 248.03549194335938 180.10748291015625 214.11582946777344 221.17176818847656 C 180.2393341064453 218.06932067871094 215.0351104736328 159.97817993164062 154.53713989257812 177.38510131835938 C 186.90663146972656 165.8556365966797 155.05648803710938 179.61737060546875 206.88092041015625 133.86911010742188 C 233.73800659179688 138.91482543945312 290.7380065917969 187.1422882080078 256.45172119140625 292.4530334472656" stroke-width="0.0" fill="rgb(81, 103, 83)" opacity="1.0" stroke="rgb(243, 175, 213)" stroke-opacity="0.34748945" stroke-linecap="round" stroke-linejoin="round"/>
    <path d="M 356.6563415527344 46.410797119140625 C 334.5494079589844 50.45439147949219 347.458984375 61.32719421386719 331.8163146972656 74.68643951416016 C 336.91766357421875 62.09027099609375 300.1216735839844 72.28585815429688 310.1718444824219 56.40004348754883 C 315.1197204589844 36.22519302368164 317.8987121582031 18.135007858276367 331.329833984375 38.13168716430664 C 336.5137939453125 61.56950378417969 318.6679992675781 35.963157653808594 356.6563415527344 46.410797119140625" stroke-width="0.0" fill="rgb(174, 89, 57)" opacity="1.0" stroke="rgb(147, 79, 204)" stroke-opacity="0.04106817" stroke-linecap="round" stroke-linejoin="round"/>
    <path d="M 302.2218017578125 81.15826416015625 C 274.6838073730469 114.95071411132812 329.2279968261719 99.3189926147461 250.46041870117188 125.25495910644531 C 287.04205322265625 126.15946197509766 256.2916564941406 8.125775337219238 236.89300537109375 127.62926483154297 C 245.98898315429688 73.50235748291016 266.43634033203125 25.499120712280273 287.5292053222656 67.8473129272461 C 305.0306701660156 57.07203674316406 306.5416564941406 51.823760986328125 302.2218017578125 81.15826416015625" stroke-width="0.0" fill="rgb(29, 25, 0)" opacity="0.5955317" stroke="rgb(205, 224, 14)" stroke-opacity="0.17639852" stroke-linecap="round" stroke-linejoin="round"/>
    <path d="M 320.0583190917969 224.0997772216797 C 334.668701171875 251.6777801513672 335.2875061035156 244.48646545410156 273.8924255371094 228.57693481445312 C 264.002685546875 233.57069396972656 272.56744384765625 232.93594360351562 259.6268005371094 221.36366271972656 C 260.2037658691406 172.8701629638672 277.2821044921875 209.2788543701172 277.8871154785156 193.9512481689453 C 287.7576599121094 165.6023712158203 317.5833740234375 191.2544708251953 320.0583190917969 224.0997772216797" stroke-width="0.0" fill="rgb(98, 127, 125)" opacity="1.0" stroke="rgb(11, 65, 154)" stroke-opacity="0.102119565" stroke-linecap="round" stroke-linejoin="round"/>
    <path d="M 331.4198913574219 69.23335266113281 C 328.22821044921875 66.84675598144531 320.4382629394531 71.32746124267578 291.23382568359375 103.08740997314453 C 259.40576171875 119.9144287109375 261.60125732421875 26.708650588989258 300.0390930175781 55.068511962890625 C 296.86663818359375 52.2014274597168 301.0113525390625 48.748146057128906 300.88787841796875 33.19881057739258 C 313.61248779296875 38.39204788208008 309.3446044921875 50.8133659362793 331.4198913574219 69.23335266113281" stroke-width="0.0" fill="rgb(154, 83, 52)" opacity="0.9640468" stroke="rgb(124, 242, 187)" stroke-opacity="0.12589808" stroke-linecap="round" stroke-linejoin="round"/>
    <path d="M 416.0599670410156 215.83277893066406 C 406.3572082519531 273.3780517578125 430.8266296386719 248.54824829101562 441.3270568847656 280.0287780761719 C 416.23822021484375 285.4434814453125 323.7427062988281 286.16070556640625 315.7620544433594 262.3651428222656 C 381.20867919921875 259.2013244628906 321.0000305175781 208.60494995117188 367.5561218261719 192.81024169921875 C 473.6476135253906 231.75619506835938 459.7923889160156 225.65966796875 416.0599670410156 215.83277893066406" stroke-width="0.0" fill="rgb(83, 77, 81)" opacity="0.48116276" stroke="rgb(245, 193, 68)" stroke-opacity="0.3925021" stroke-linecap="round" stroke-linejoin="round"/>
    <path d="M 440.8548278808594 274.8180236816406 C 448.8541259765625 280.4551086425781 431.801513671875 284.0384521484375 381.6296081542969 286.2459411621094 C 394.4940185546875 284.2038879394531 373.8656311035156 285.474365234375 377.50262451171875 283.0552673339844 C 435.94061279296875 285.6490783691406 464.3978271484375 272.4237365722656 417.1997985839844 276.02545166015625 C 363.95733642578125 275.4056396484375 419.7252197265625 263.01422119140625 440.8548278808594 274.8180236816406" stroke-width="0.0" fill="rgb(49, 46, 47)" opacity="0.70323104" stroke="rgb(209, 155, 209)" stroke-opacity="0.25415927" stroke-linecap="round" stroke-linejoin="round"/>
    <path d="M 393.2127685546875 152.37220764160156 C 385.162109375 178.81236267089844 375.6318664550781 173.68405151367188 362.96624755859375 238.08120727539062 C 320.3567810058594 204.4980926513672 363.62359619140625 183.1527099609375 342.29998779296875 162.30264282226562 C 318.24560546875 107.92404174804688 310.9825439453125 154.58360290527344 348.5871887207031 163.65065002441406 C 378.8607482910156 166.55319213867188 368.2965393066406 142.3464813232422 393.2127685546875 152.37220764160156" stroke-width="0.0" fill="rgb(174, 173, 173)" opacity="1.0" stroke="rgb(136, 89, 133)" stroke-opacity="0.57007104" stroke-linecap="round" stroke-linejoin="round"/>
    <path d="M 305.0225524902344 85.8840560913086 C 295.29400634765625 94.12264251708984 306.838623046875 90.21510314941406 279.04852294921875 82.82695770263672 C 263.6551208496094 88.4905776977539 253.5326385498047 80.67820739746094 260.6285400390625 77.51256561279297 C 270.5664978027344 74.11417388916016 264.0851745605469 75.29512023925781 276.8912353515625 74.87847900390625 C 273.5911560058594 76.48861694335938 280.2861328125 70.4095230102539 305.0225524902344 85.8840560913086" stroke-width="0.0" fill="rgb(206, 101, 68)" opacity="1.0" stroke="rgb(72, 158, 185)" stroke-opacity="0.72836524" stroke-linecap="round" stroke-linejoin="round"/>
    <path d="M 392.85308837890625 165.967041015625 C 388.49505615234375 178.88693237304688 439.92718505859375 160.0193328857422 453.4617919921875 223.5623321533203 C 344.921630859375 214.6763458251953 359.8905029296875 235.69667053222656 375.92999267578125 183.14016723632812 C 406.4652404785156 140.30355834960938 378.6024475097656 132.58287048339844 390.2977294921875 127.02643585205078 C 399.8091735839844 140.81820678710938 391.186767578125 152.24656677246094 392.85308837890625 165.967041015625" stroke-width="0.0" fill="rgb(145, 146, 145)" opacity="1.0" stroke="rgb(87, 150, 143)" stroke-opacity="0.1977869" stroke-linecap="round" stroke-linejoin="round"/>
    <path d="M 470.033203125 187.8290557861328 C 501.7952880859375 274.1026306152344 424.9472961425781 269.0979919433594 439.05047607421875 275.66656494140625 C 395.3841857910156 276.8687438964844 394.4250183105469 266.9428405761719 403.36810302734375 257.67645263671875 C 403.1380920410156 253.7787628173828 404.74932861328125 268.75750732421875 423.0765686035156 210.73634338378906 C 475.34503173828125 218.68017578125 457.8868713378906 272.3702392578125 470.033203125 187.8290557861328" stroke-width="0.0" fill="rgb(162, 161, 162)" opacity="0.90757054" stroke="rgb(12, 227, 159)" stroke-opacity="0.9107071" stroke-linecap="round" stroke-linejoin="round"/>
    <path d="M 391.8547058105469 119.12757873535156 C 398.2635498046875 172.2084503173828 396.9932861328125 140.06724548339844 360.1005859375 154.14236450195312 C 336.8807678222656 139.3594207763672 331.8096618652344 148.7068634033203 327.49884033203125 130.62818908691406 C 365.3103942871094 97.70681762695312 339.4303283691406 127.38423156738281 383.53546142578125 95.20506286621094 C 361.0721130371094 142.44590759277344 421.44873046875 85.041748046875 391.8547058105469 119.12757873535156" stroke-width="0.0" fill="rgb(113, 91, 106)" opacity="0.31051034" stroke="rgb(75, 223, 197)" stroke-opacity="0.11202632" stroke-linecap="round" stroke-linejoin="round"/>
    <path d="M 356.7022705078125 141.1449737548828 C 383.12872314453125 152.67279052734375 371.52801513671875 146.5154266357422 328.0366516113281 128.43743896484375 C 330.4974365234375 149.16107177734375 305.0278625488281 130.71560668945312 337.5277404785156 125.64405059814453 C 314.8502502441406 131.99330139160156 362.04620361328125 137.34474182128906 346.7074890136719 126.31321716308594 C 347.7605285644531 116.90703582763672 347.9871520996094 129.6453399658203 356.7022705078125 141.1449737548828" stroke-width="0.0" fill="rgb(88, 88, 87)" opacity="0.9710321" stroke="rgb(195, 1, 150)" stroke-opacity="0.3160099" stroke-linecap="round" stroke-linejoin="round"/>
    <path d="M 226.91195678710938 145.74105834960938 C 234.483154296875 161.42227172851562 238.99530029296875 156.72348022460938 203.79371643066406 157.8273162841797 C 175.24871826171875 163.97406005859375 187.3884735107422 174.82594299316406 170.09605407714844 157.4012908935547 C 209.2245635986328 146.36119079589844 156.36715698242188 148.34584045410156 206.7753143310547 139.23904418945312 C 200.3662109375 130.2406768798828 226.14108276367188 142.7652587890625 226.91195678710938 145.74105834960938" stroke-width="0.0" fill="rgb(117, 143, 124)" opacity="1.0" stroke="rgb(171, 190, 221)" stroke-opacity="0.49972332" stroke-linecap="round" stroke-linejoin="round"/>
    <path d="M 260.64990234375 167.0250244140625 C 246.96731567382812 167.07168579101562 261.6800842285156 175.97218322753906 250.7991485595703 170.3461456298828 C 221.30650329589844 201.3668975830078 227.27406311035156 158.9630126953125 240.77967834472656 155.26165771484375 C 232.56312561035156 146.54598999023438 239.67491149902344 148.62014770507812 250.91748046875 156.511474609375 C 261.87451171875 141.37684631347656 261.96392822265625 148.96243286132812 260.64990234375 167.0250244140625" stroke-width="0.0" fill="rgb(110, 137, 117)" opacity="0.945689" stroke="rgb(214, 159, 140)" stroke-opacity="0.815357" stroke-linecap="round" stroke-linejoin="round"/>
    <path d="M 294.736083984375 106.95708465576172 C 285.367919921875 112.9410400390625 281.01885986328125 111.99513244628906 272.7543029785156 115.63261413574219 C 264.1715087890625 125.20028686523438 262.50091552734375 122.82649230957031 264.0860290527344 121.04859924316406 C 268.5263977050781 98.2523422241211 274.9980163574219 105.10951232910156 290.55303955078125 101.45960998535156 C 295.05511474609375 99.87931060791016 289.71826171875 103.4061050415039 294.736083984375 106.95708465576172" stroke-width="0.0" fill="rgb(194, 94, 61)" opacity="1.0" stroke="rgb(201, 226, 38)" stroke-opacity="0.046436273" stroke-linecap="round" stroke-linejoin="round"/>
    <path d="M 91.28828430175781 203.06790161132812 C 83.81645202636719 205.14256286621094 60.98532485961914 215.741943359375 54.806312561035156 197.8382568359375 C 72.7513427734375 194.06219482421875 42.315914154052734 185.97164916992188 38.179935455322266 252.77394104003906 C 34.676883697509766 182.35699462890625 95.97055053710938 172.2050018310547 79.17437744140625 185.69332885742188 C 41.202457427978516 187.22982788085938 79.9368896484375 206.9029998779297 91.28828430175781 203.06790161132812" stroke-width="0.0" fill="rgb(157, 106, 95)" opacity="1.0" stroke="rgb(148, 243, 141)" stroke-opacity="0.8771365" stroke-linecap="round" stroke-linejoin="round"/>
    <path d="M 110.65254974365234 274.6663513183594 C 131.30776977539062 247.5105743408203 115.88346099853516 226.96868896484375 116.51688385009766 235.18348693847656 C 89.6598892211914 244.4581298828125 112.16311645507812 239.56564331054688 110.09434509277344 224.6170196533203 C 87.83999633789062 208.36669921875 61.857666015625 230.93544006347656 75.42182922363281 220.9110107421875 C 111.08172607421875 205.11216735839844 142.1544189453125 244.1497802734375 110.65254974365234 274.6663513183594" stroke-width="0.0" fill="rgb(85, 43, 48)" opacity="0.7536018" stroke="rgb(30, 121, 213)" stroke-opacity="0.51690656" stroke-linecap="round" stroke-linejoin="round"/>
    <path d="M 471.1435852050781 192.8363037109375 C 425.2790222167969 180.55740356445312 469.6175231933594 151.8238525390625 466.9242858886719 239.2393341064453 C 466.4239807128906 178.3144989013672 438.69757080078125 195.03195190429688 440.89447021484375 146.1922149658203 C 456.1470642089844 154.80239868164062 428.281005859375 181.32286071777344 455.6976013183594 141.50518798828125 C 448.676025390625 162.34490966796875 458.37744140625 172.94638061523438 471.1435852050781 192.8363037109375" stroke-width="0.0" fill="rgb(12, 0, 6)" opacity="0.43738568" stroke="rgb(242, 146, 86)" stroke-opacity="0.9857213" stroke-linecap="round" stroke-linejoin="round"/>
    <path d="M 249.20928955078125 150.8904266357422 C 235.86483764648438 149.64492797851562 236.47068786621094 154.8401336669922 226.59080505371094 163.4649200439453 C 234.61866760253906 158.39857482910156 231.6123046875 154.07533264160156 229.9855194091797 148.1862030029297 C 226.80043029785156 141.90599060058594 223.13925170898438 140.47116088867188 224.1620330810547 141.95584106445312 C 247.7041015625 142.4640350341797 246.40591430664062 139.7657928466797 249.20928955078125 150.8904266357422" stroke-width="0.0" fill="rgb(202, 217, 214)" opacity="1.0" stroke="rgb(124, 47, 187)" stroke-opacity="0.96133107" stroke-linecap="round" stroke-linejoin="round"/>
    <path d="M 251.2005615234375 154.81686401367188 C 259.67108154296875 146.3948974609375 257.78302001953125 155.1743927001953 244.43128967285156 158.20005798339844 C 243.38319396972656 154.0366973876953 241.1486053466797 141.59774780273438 240.0106964111328 136.36448669433594 C 236.86135864257812 119.556884765625 234.7848663330078 111.43868255615234 240.57781982421875 108.60078430175781 C 243.75686645507812 123.01683807373047 246.8302459716797 138.07135009765625 251.2005615234375 154.81686401367188" stroke-width="0.0" fill="rgb(32, 45, 20)" opacity="0.92942494" stroke="rgb(11, 161, 160)" stroke-opacity="0.5718392" stroke-linecap="round" stroke-linejoin="round"/>
    <path d="M 259.7032165527344 281.9432678222656 C 252.301513671875 305.34259033203125 256.1387634277344 281.06494140625 254.54405212402344 285.2413635253906 C 171.81214904785156 285.014892578125 249.3807373046875 279.4207763671875 170.77081298828125 275.14129638671875 C 192.98048400878906 260.23089599609375 189.162841796875 282.87091064453125 248.26332092285156 271.2041931152344 C 252.8390350341797 256.677734375 304.8520812988281 289.7986145019531 259.7032165527344 281.9432678222656" stroke-width="0.0" fill="rgb(121, 149, 153)" opacity="0.87582386" stroke="rgb(192, 217, 130)" stroke-opacity="0.73019075" stroke-linecap="round" stroke-linejoin="round"/>
    <path d="M 155.01914978027344 131.44003295898438 C 131.9649658203125 126.11370849609375 117.27542114257812 139.75205993652344 118.3747329711914 133.8843994140625 C 87.72724151611328 159.84632873535156 101.35000610351562 172.14137268066406 95.30386352539062 154.8383331298828 C 95.16815948486328 129.2067108154297 114.12909698486328 117.19580841064453 131.5305633544922 121.79086303710938 C 139.69700622558594 122.43311309814453 151.8889617919922 130.57949829101562 155.01914978027344 131.44003295898438" stroke-width="0.0" fill="rgb(135, 32, 0)" opacity="0.48433065" stroke="rgb(75, 182, 212)" stroke-opacity="0.4453568" stroke-linecap="round" stroke-linejoin="round"/>
    <path d="M 378.74859619140625 115.37957763671875 C 386.4425354003906 120.69817352294922 370.31011962890625 114.47154998779297 350.9474182128906 115.3956298828125 C 375.80560302734375 114.9598388671875 352.44781494140625 100.84449768066406 333.77667236328125 128.5648651123047 C 345.3189697265625 105.2037582397461 367.9107360839844 109.11956787109375 375.4793701171875 112.61685180664062 C 369.1143493652344 110.76873779296875 372.706298828125 110.3573226928711 378.74859619140625 115.37957763671875" stroke-width="0.0" fill="rgb(107, 107, 107)" opacity="1.0" stroke="rgb(113, 250, 76)" stroke-opacity="0.820842" stroke-linecap="round" stroke-linejoin="round"/>
    <path d="M 283.4310302734375 231.66673278808594 C 344.1216735839844 242.86427307128906 341.088623046875 309.1968688964844 282.014892578125 292.21923828125 C 248.44752502441406 263.55731201171875 211.15086364746094 262.61968994140625 251.9539337158203 240.03343200683594 C 259.3798828125 265.737060546875 252.69532775878906 273.2364501953125 261.8175048828125 264.899169921875 C 273.23077392578125 264.32696533203125 253.2014617919922 246.0975799560547 283.4310302734375 231.66673278808594" stroke-width="0.0" fill="rgb(184, 199, 196)" opacity="0.70769787" stroke="rgb(132, 190, 77)" stroke-opacity="0.75132936" stroke-linecap="round" stroke-linejoin="round"/>
    <path d="M 253.09286499023438 263.9609375 C 279.00634765625 281.9667053222656 261.0824279785156 195.98301696777344 256.3636169433594 225.5466766357422 C 258.9674987792969 215.03958129882812 259.2683410644531 218.5482635498047 259.3729553222656 222.38453674316406 C 259.1589050292969 182.86570739746094 273.21826171875 233.86729431152344 254.31893920898438 166.843017578125 C 239.0027618408203 176.9185791015625 265.0428771972656 193.09091186523438 253.09286499023438 263.9609375" stroke-width="0.0" fill="rgb(41, 53, 30)" opacity="0.95173746" stroke="rgb(100, 250, 78)" stroke-opacity="0.99327743" stroke-linecap="round" stroke-linejoin="round"/>
    <path d="M 442.5593566894531 160.6673126220703 C 467.0560302734375 159.32582092285156 445.2567443847656 186.60838317871094 443.4676208496094 163.52755737304688 C 450.0232238769531 144.42782592773438 441.81280517578125 164.79710388183594 442.5061340332031 143.66542053222656 C 449.94287109375 130.32803344726562 444.4179992675781 133.1038360595703 458.61590576171875 141.2420196533203 C 456.22021484375 136.18324279785156 456.740966796875 147.57025146484375 442.5593566894531 160.6673126220703" stroke-width="0.0" fill="rgb(173, 173, 173)" opacity="1.0" stroke="rgb(167, 80, 190)" stroke-opacity="0.97048825" stroke-linecap="round" stroke-linejoin="round"/>
    <path d="M 249.5795135498047 80.49024963378906 C 229.9812469482422 112.79148864746094 255.44007873535156 137.3675079345703 237.53628540039062 121.87102508544922 C 234.487548828125 107.08231353759766 237.7542724609375 100.67106628417969 236.0388946533203 100.72599029541016 C 241.75006103515625 114.68065643310547 241.22152709960938 113.12973022460938 236.85035705566406 102.6832275390625 C 238.8240966796875 71.52387237548828 275.3346862792969 56.20764923095703 249.5795135498047 80.49024963378906" stroke-width="0.0" fill="rgb(41, 54, 31)" opacity="0.99238515" stroke="rgb(164, 149, 152)" stroke-opacity="0.47961885" stroke-linecap="round" stroke-linejoin="round"/>
    <path d="M 115.32000732421875 272.0055847167969 C 107.91409301757812 261.31689453125 166.91717529296875 301.6967468261719 70.05208587646484 287.0810241699219 C 21.41324806213379 285.6044921875 25.7778263092041 192.92922973632812 69.9508285522461 273.6729431152344 C 122.9320068359375 231.18870544433594 110.1826171875 257.5199279785156 128.45794677734375 233.6068572998047 C 115.89163208007812 233.31080627441406 128.9295654296875 235.497802734375 115.32000732421875 272.0055847167969" stroke-width="0.0" fill="rgb(143, 49, 0)" opacity="0.3057087" stroke="rgb(62, 154, 197)" stroke-opacity="0.7362807" stroke-linecap="round" stroke-linejoin="round"/>
    <path d="M 66.37571716308594 217.99505615234375 C 62.92355728149414 217.258056640625 63.34724044799805 219.28952026367188 52.58674240112305 221.62904357910156 C 45.427974700927734 221.3388671875 40.600040435791016 213.99966430664062 45.52072525024414 214.03709411621094 C 42.30577087402344 217.082275390625 48.60127258300781 199.749267578125 60.05805969238281 191.76425170898438 C 41.1852912902832 213.58250427246094 48.6203727722168 214.00755310058594 66.37571716308594 217.99505615234375" stroke-width="0.0" fill="rgb(108, 3, 0)" opacity="0.4442701" stroke="rgb(50, 184, 206)" stroke-opacity="0.9907417" stroke-linecap="round" stroke-linejoin="round"/>
  </g>
</svg>
