<?xml version="1.0" ?>
<svg xmlns="http://www.w3.org/2000/svg" version="1.1" width="512" height="352">
  <defs/>
  <g>
    <path d="M 142.40313720703125 182.82302856445312 C 160.7471466064453 239.3429718017578 156.95028686523438 249.08140563964844 110.84410095214844 251.81468200683594 C 73.9377212524414 242.38377380371094 71.37047576904297 245.5504913330078 41.51898956298828 241.0229034423828 C 40.56740188598633 199.48870849609375 62.48994445800781 181.58689880371094 97.47301483154297 176.81919860839844 C 128.4654083251953 150.42825317382812 132.73724365234375 153.1405792236328 142.40313720703125 182.82302856445312" stroke-width="0.0" fill="rgb(212, 188, 157)" opacity="1.0" stroke="rgb(33, 132, 159)" stroke-opacity="0.5576314" stroke-linecap="round" stroke-linejoin="round"/>
    <path d="M 231.24728393554688 207.85317993164062 C 209.16761779785156 236.5861053466797 202.95578002929688 253.51602172851562 192.66835021972656 259.8475646972656 C 187.4305877685547 226.5717010498047 182.78211975097656 243.3054656982422 175.2904510498047 193.5542755126953 C 178.2698516845703 180.16868591308594 180.44229125976562 203.77218627929688 186.1064910888672 160.9153289794922 C 295.9644470214844 194.80453491210938 239.14012145996094 156.36276245117188 231.24728393554688 207.85317993164062" stroke-width="0.0" fill="rgb(43, 73, 46)" opacity="0.71570086" stroke="rgb(170, 243, 175)" stroke-opacity="0.27084035" stroke-linecap="round" stroke-linejoin="round"/>
    <path d="M 253.64028930664062 264.5179443359375 C 268.19073486328125 138.454833984375 213.0315704345703 161.29820251464844 218.6806182861328 198.72463989257812 C 226.65939331054688 208.56809997558594 210.95986938476562 169.31996154785156 166.15260314941406 174.6401824951172 C 200.3181610107422 148.86849975585938 169.63922119140625 131.91275024414062 243.2490234375 151.873046875 C 209.4350128173828 -12.023234367370605 300.0788879394531 295.74774169921875 253.64028930664062 264.5179443359375" stroke-width="0.0" fill="rgb(48, 61, 38)" opacity="0.99117684" stroke="rgb(138, 105, 217)" stroke-opacity="0.21634126" stroke-linecap="round" stroke-linejoin="round"/>
    <path d="M 360.73297119140625 46.22004318237305 C 331.7598571777344 44.18429183959961 345.1612243652344 83.07064056396484 328.0350646972656 68.33708953857422 C 296.9408874511719 89.16694641113281 298.604736328125 108.21763610839844 312.7500305175781 60.12217330932617 C 313.3838195800781 44.0265998840332 311.5068359375 39.25139236450195 321.4031677246094 27.912839889526367 C 350.3498229980469 51.48418045043945 306.1833801269531 39.578067779541016 360.73297119140625 46.22004318237305" stroke-width="0.0" fill="rgb(175, 91, 59)" opacity="1.0" stroke="rgb(135, 92, 173)" stroke-opacity="0.95296943" stroke-linecap="round" stroke-linejoin="round"/>
    <path d="M 320.0217590332031 224.25979614257812 C 334.69451904296875 251.70037841796875 335.38238525390625 244.4656524658203 272.2274169921875 228.3955841064453 C 267.2425231933594 241.15866088867188 252.96743774414062 209.59951782226562 263.15777587890625 205.0687713623047 C 256.33935546875 186.84190368652344 281.7528381347656 200.5010528564453 276.52349853515625 199.06179809570312 C 284.3315734863281 162.8088836669922 317.4801940917969 189.44337463378906 320.0217590332031 224.25979614257812" stroke-width="0.0" fill="rgb(97, 125, 123)" opacity="1.0" stroke="rgb(156, 212, 138)" stroke-opacity="0.3221882" stroke-linecap="round" stroke-linejoin="round"/>
    <path d="M 334.5184020996094 59.16053009033203 C 314.1607666015625 82.90116882324219 277.7232360839844 106.93132781982422 301.5019226074219 106.3082046508789 C 227.155029296875 134.6044921875 291.0284423828125 128.40057373046875 252.1519012451172 64.20622253417969 C 309.7837219238281 26.477991104125977 294.7783203125 80.70210266113281 301.29925537109375 33.38036346435547 C 314.5957946777344 38.03237533569336 312.2545471191406 62.82594299316406 334.5184020996094 59.16053009033203" stroke-width="0.0" fill="rgb(141, 74, 43)" opacity="0.8261888" stroke="rgb(25, 126, 28)" stroke-opacity="0.2881396" stroke-linecap="round" stroke-linejoin="round"/>
    <path d="M 477.36444091796875 225.38111877441406 C 473.9840393066406 204.28823852539062 486.4728698730469 271.8927917480469 433.130126953125 266.5057067871094 C 484.3683776855469 279.05670166015625 478.9268493652344 199.7581024169922 476.6481018066406 240.265869140625 C 476.9999694824219 225.62696838378906 487.6139221191406 205.39686584472656 448.4233703613281 161.7681427001953 C 477.6536865234375 207.8029327392578 472.2602233886719 194.0020751953125 477.36444091796875 225.38111877441406" stroke-width="0.0" fill="rgb(17, 8, 11)" opacity="0.57672685" stroke="rgb(210, 10, 61)" stroke-opacity="0.5139146" stroke-linecap="round" stroke-linejoin="round"/>
    <path d="M 470.39837646484375 242.5545196533203 C 451.96185302734375 286.37506103515625 426.8594665527344 254.24920654296875 444.54632568359375 279.9822082519531 C 388.3352966308594 289.3765869140625 390.1171875 288.0660095214844 323.5172119140625 273.1977844238281 C 331.13739013671875 240.80381774902344 376.1286926269531 267.7303161621094 390.2109375 232.57687377929688 C 385.650390625 255.20883178710938 392.5238952636719 274.5151672363281 470.39837646484375 242.5545196533203" stroke-width="0.0" fill="rgb(73, 64, 69)" opacity="0.42043376" stroke="rgb(115, 140, 142)" stroke-opacity="0.3049261" stroke-linecap="round" stroke-linejoin="round"/>
    <path d="M 452.4300231933594 253.5387420654297 C 396.09124755859375 262.620361328125 395.99298095703125 249.65908813476562 379.9211120605469 250.51600646972656 C 327.6614990234375 252.48178100585938 352.8128967285156 268.45953369140625 349.1931457519531 224.30865478515625 C 332.4217224121094 196.4949188232422 357.8427429199219 185.3327178955078 344.5151672363281 164.3804473876953 C 424.56842041015625 168.2974395751953 461.3913879394531 188.5185089111328 452.4300231933594 253.5387420654297" stroke-width="0.0" fill="rgb(168, 168, 168)" opacity="1.0" stroke="rgb(114, 48, 84)" stroke-opacity="0.26573107" stroke-linecap="round" stroke-linejoin="round"/>
    <path d="M 264.1183776855469 163.1068878173828 C 152.44659423828125 238.43045043945312 210.25778198242188 175.33738708496094 171.989990234375 172.0823516845703 C 188.53903198242188 159.15994262695312 152.65158081054688 160.0517120361328 186.25308227539062 152.70948791503906 C 185.7206573486328 144.54957580566406 173.7357177734375 144.2882843017578 204.338134765625 141.16717529296875 C 200.92025756835938 119.35082244873047 223.46499633789062 147.369140625 264.1183776855469 163.1068878173828" stroke-width="0.0" fill="rgb(110, 135, 115)" opacity="1.0" stroke="rgb(96, 11, 150)" stroke-opacity="0.98247635" stroke-linecap="round" stroke-linejoin="round"/>
    <path d="M 433.9710693359375 187.10569763183594 C 388.2537536621094 158.8644256591797 414.8180236816406 187.7919158935547 395.75799560546875 192.26451110839844 C 378.4879150390625 193.10006713867188 402.0211181640625 190.7921142578125 396.3341064453125 172.00234985351562 C 383.7896728515625 174.36058044433594 412.77471923828125 87.19685363769531 372.3564758300781 170.9907989501953 C 446.1197204589844 164.88995361328125 450.8139953613281 218.61997985839844 433.9710693359375 187.10569763183594" stroke-width="0.0" fill="rgb(82, 81, 80)" opacity="0.80425256" stroke="rgb(206, 61, 6)" stroke-opacity="0.9672725" stroke-linecap="round" stroke-linejoin="round"/>
    <path d="M 87.17354583740234 203.44192504882812 C 94.5777359008789 201.97120666503906 71.66360473632812 211.60606384277344 62.28445053100586 206.58297729492188 C 51.499351501464844 202.1501922607422 59.57644271850586 184.5078125 40.0576057434082 227.88356018066406 C 51.45705032348633 171.4879608154297 106.33965301513672 176.9747314453125 70.6906967163086 185.52923583984375 C 47.139808654785156 193.2141876220703 84.86125946044922 205.3182373046875 87.17354583740234 203.44192504882812" stroke-width="0.0" fill="rgb(154, 103, 91)" opacity="1.0" stroke="rgb(189, 72, 84)" stroke-opacity="0.87099284" stroke-linecap="round" stroke-linejoin="round"/>
    <path d="M 327.4414367675781 129.87713623046875 C 331.466552734375 146.11131286621094 314.1548767089844 127.31396484375 330.4285583496094 153.14039611816406 C 368.55450439453125 176.59144592285156 329.01220703125 158.54176330566406 324.87060546875 147.89889526367188 C 315.2845458984375 125.26952362060547 326.1150207519531 131.59617614746094 334.6474914550781 124.92410278320312 C 363.45538330078125 95.70844268798828 337.32086181640625 129.11312866210938 327.4414367675781 129.87713623046875" stroke-width="0.0" fill="rgb(22, 15, 18)" opacity="0.6306052" stroke="rgb(243, 95, 74)" stroke-opacity="0.30625865" stroke-linecap="round" stroke-linejoin="round"/>
    <path d="M 392.3420715332031 124.60018157958984 C 394.7200622558594 210.785400390625 370.1659240722656 212.46920776367188 355.4725036621094 150.89723205566406 C 331.36004638671875 137.66769409179688 330.84771728515625 147.86550903320312 330.7159423828125 129.16650390625 C 342.7825012207031 121.8047866821289 344.962158203125 108.74658966064453 363.20001220703125 110.6580581665039 C 382.41058349609375 94.04862976074219 385.4433898925781 94.83179473876953 392.3420715332031 124.60018157958984" stroke-width="0.0" fill="rgb(170, 169, 170)" opacity="0.85356486" stroke="rgb(200, 0, 219)" stroke-opacity="0.2124021" stroke-linecap="round" stroke-linejoin="round"/>
    <path d="M 145.88479614257812 131.86024475097656 C 129.77398681640625 112.3641357421875 104.6084976196289 169.30776977539062 125.1319808959961 128.64820861816406 C 85.69672393798828 157.45326232910156 101.90751647949219 173.87637329101562 95.20198822021484 153.95411682128906 C 96.7735595703125 123.5311279296875 119.586669921875 117.98011016845703 132.26251220703125 121.9996566772461 C 131.82150268554688 120.7963638305664 162.17747497558594 131.16587829589844 145.88479614257812 131.86024475097656" stroke-width="0.0" fill="rgb(132, 28, 0)" opacity="0.5171979" stroke="rgb(248, 81, 157)" stroke-opacity="0.9413752" stroke-linecap="round" stroke-linejoin="round"/>
    <path d="M 102.91425323486328 196.81317138671875 C 108.91348266601562 196.8833770751953 104.14095306396484 197.04299926757812 90.63214874267578 197.02017211914062 C 82.99293518066406 197.23165893554688 73.14404296875 193.53770446777344 69.91686248779297 186.78639221191406 C 72.24615478515625 182.63775634765625 82.27525329589844 180.36985778808594 81.3735122680664 182.9860076904297 C 81.9183349609375 187.65911865234375 85.39990997314453 189.6702423095703 102.91425323486328 196.81317138671875" stroke-width="0.0" fill="rgb(173, 115, 98)" opacity="1.0" stroke="rgb(194, 36, 126)" stroke-opacity="0.85370433" stroke-linecap="round" stroke-linejoin="round"/>
  </g>
</svg>
