<?xml version="1.0" ?>
<svg xmlns="http://www.w3.org/2000/svg" version="1.1" width="512" height="352">
  <defs/>
  <g>
    <path d="M -10.0 -10.0 C -9.0 -10.0 512.0 0.0 513.0 0.0 C 514.0 0.0 512.0 352.0 513.0 352.0 C 513.0 353.0 0.0 352.0 0.0 353.0 C 0.0 352.0 0.0 353.0 -10.0 -10.0 L -10.0 -10.0" stroke-width="2.0" fill="rgb(186, 198, 194)" opacity="0.9484764"/>
    <path d="M 537.6250610351562 287.4496765136719 C 366.108642578125 294.2841491699219 539.0731201171875 300.8073425292969 452.29937744140625 135.98828125 C 431.4194030761719 131.9936065673828 434.3431701660156 77.41110229492188 515.9354858398438 -2.8226864337921143 C 553.2473754882812 165.54281616210938 523.9757690429688 158.54588317871094 515.7638549804688 160.6007537841797 C 547.535888671875 260.1706848144531 544.9948120117188 629.17724609375 158.5177001953125 303.11724853515625 L 537.6250610351562 287.4496765136719" stroke-width="2.0" fill="rgb(225, 248, 245)" opacity="0.31420177"/>
    <path d="M 343.44842529296875 30.098495483398438 C 344.0000915527344 29.420549392700195 343.7447509765625 29.287700653076172 344.2279052734375 29.50959587097168 C 343.8485412597656 30.652793884277344 344.3553466796875 29.274587631225586 344.1512756347656 29.894418716430664 C 343.58990478515625 30.52213478088379 344.76025390625 29.318986892700195 343.8524169921875 29.428754806518555 C 344.1063537597656 29.083284378051758 342.6723327636719 31.457908630371094 344.10723876953125 29.080415725708008 L 343.44842529296875 30.098495483398438" stroke-width="2.0" fill="rgb(254, 109, 56)" opacity="0.20223491"/>
    <path d="M 202.79278564453125 249.77699279785156 C 181.23678588867188 282.7897033691406 180.9907989501953 215.3213348388672 176.9275665283203 203.9025421142578 C 182.51327514648438 226.26976013183594 191.36019897460938 250.75082397460938 180.4692840576172 221.9213104248047 C 176.00613403320312 195.55227661132812 184.24073791503906 274.3830261230469 192.60650634765625 254.77606201171875 C 157.70071411132812 157.41639709472656 164.2791748046875 121.90133666992188 262.32208251953125 157.95806884765625 L 202.79278564453125 249.77699279785156" stroke-width="2.0" fill="rgb(6, 46, 7)" opacity="0.4881346"/>
    <path d="M 7.481052875518799 171.42137145996094 C 7.636559963226318 171.2866668701172 7.642196178436279 170.86863708496094 7.501275539398193 171.5074920654297 C 6.598616123199463 173.9573974609375 7.761079788208008 170.76382446289062 8.42481517791748 168.7150421142578 C 7.566834449768066 171.3114013671875 8.705946922302246 167.861572265625 7.672712802886963 170.96568298339844 C 7.78902530670166 170.5375518798828 7.226779460906982 172.3411102294922 6.777622699737549 173.76104736328125 L 7.481052875518799 171.42137145996094" stroke-width="2.0" fill="rgb(255, 54, 194)" opacity="0.07146467"/>
    <path d="M 307.7496032714844 33.598514556884766 C 306.2740478515625 31.59819984436035 306.1166076660156 31.516813278198242 306.5650329589844 32.061805725097656 C 307.5612487792969 33.319942474365234 306.51690673828125 32.01225662231445 307.3822021484375 33.06398010253906 C 306.8081359863281 32.36872482299805 305.8648376464844 31.22395896911621 307.1153259277344 32.79019546508789 C 305.6058044433594 30.851228713989258 307.38385009765625 33.19159698486328 305.9727783203125 31.289823532104492 L 307.7496032714844 33.598514556884766" stroke-width="2.0" fill="rgb(208, 120, 213)" opacity="0.13330393"/>
    <path d="M 259.7363586425781 70.83061218261719 C 231.78721618652344 95.86004638671875 240.0831756591797 111.91593933105469 263.41412353515625 199.1593780517578 C 267.62249755859375 168.2901153564453 274.4662170410156 297.82879638671875 252.96234130859375 262.17828369140625 C 277.647705078125 142.12608337402344 144.17047119140625 65.49356079101562 373.56317138671875 24.356460571289062 C 191.4755401611328 199.35653686523438 299.7730712890625 87.81623840332031 259.294677734375 83.09478759765625 L 259.7363586425781 70.83061218261719" stroke-width="2.0" fill="rgb(133, 88, 61)" opacity="1.0"/>
    <path d="M 10.208602905273438 178.05990600585938 C 8.44011116027832 178.39410400390625 7.39119291305542 178.45217895507812 9.326557159423828 178.2274169921875 C 10.378737449645996 178.05859375 9.339383125305176 178.22401428222656 10.050918579101562 178.0789337158203 C 10.69123649597168 177.91314697265625 10.795313835144043 177.78831481933594 10.116044998168945 178.09523010253906 C 9.863676071166992 178.1312713623047 10.808432579040527 178.00294494628906 8.575764656066895 178.3292999267578 L 10.208602905273438 178.05990600585938" stroke-width="2.0" fill="rgb(31, 70, 164)" opacity="0.02187676"/>
    <path d="M 27.861642837524414 208.21835327148438 C 27.586294174194336 209.4967498779297 27.826679229736328 208.0645294189453 27.735471725463867 208.89862060546875 C 27.798873901367188 208.45059204101562 28.144351959228516 207.04177856445312 28.213741302490234 206.5205078125 C 27.859119415283203 208.01368713378906 28.47920799255371 205.2041473388672 27.701454162597656 208.92730712890625 C 28.111501693725586 207.13516235351562 27.70281982421875 208.75669860839844 27.594165802001953 209.45310974121094 L 27.861642837524414 208.21835327148438" stroke-width="2.0" fill="rgb(101, 224, 105)" opacity="0.22558005"/>
    <path d="M 394.8967590332031 337.64093017578125 C 395.22802734375 337.6449279785156 393.7972106933594 337.05718994140625 394.4194030761719 336.3294982910156 C 396.3343200683594 336.4649963378906 396.17120361328125 336.6294250488281 395.4622497558594 337.8999328613281 C 395.432373046875 337.1138916015625 396.6631774902344 335.38580322265625 396.0848388671875 337.6120300292969 C 395.4009094238281 336.75701904296875 394.4338073730469 337.9607849121094 392.63037109375 339.5852966308594 L 394.8967590332031 337.64093017578125" stroke-width="2.0" fill="rgb(66, 111, 41)" opacity="0.0"/>
    <path d="M 414.5607604980469 63.41354751586914 C 413.474365234375 61.88127517700195 413.2756042480469 61.11640167236328 415.44140625 64.93994140625 C 414.19091796875 62.74127197265625 413.6274108886719 61.80753707885742 413.8751220703125 62.55099868774414 C 413.9967956542969 63.238624572753906 413.2418518066406 61.03742599487305 414.9715881347656 64.12157440185547 C 413.5724792480469 61.256935119628906 415.0171813964844 65.0817642211914 414.1839599609375 62.33296585083008 L 414.5607604980469 63.41354751586914" stroke-width="2.0" fill="rgb(85, 255, 89)" opacity="0.23489027"/>
    <path d="M 19.75710678100586 136.23085021972656 C 20.78791618347168 135.11936950683594 21.377958297729492 134.45065307617188 19.690988540649414 136.3175811767578 C 21.290119171142578 134.224609375 21.248661041259766 135.3584442138672 22.21977996826172 135.7870330810547 C 20.263269424438477 134.5399932861328 21.80156135559082 135.3123779296875 22.40043067932129 136.03021240234375 C 20.608566284179688 134.18667602539062 20.552398681640625 135.513427734375 19.326061248779297 136.8126983642578 L 19.75710678100586 136.23085021972656" stroke-width="2.0" fill="rgb(147, 156, 255)" opacity="0.03699451"/>
    <path d="M 392.9618225097656 163.75978088378906 C 401.2828063964844 108.4242172241211 382.89306640625 151.5153045654297 402.07476806640625 109.88215637207031 C 307.2112121582031 17.767953872680664 200.62986755371094 -83.3769302368164 511.66107177734375 0.8594350814819336 C 365.3505859375 220.1622314453125 496.4476623535156 161.34548950195312 457.2286071777344 249.71560668945312 C 453.44830322265625 185.46336364746094 428.219482421875 175.4795684814453 394.18829345703125 169.79141235351562 L 392.9618225097656 163.75978088378906" stroke-width="2.0" fill="rgb(202, 218, 215)" opacity="0.8597705"/>
    <path d="M 415.8018798828125 102.95558166503906 C 416.4467468261719 102.9685287475586 416.1537780761719 103.23822021484375 416.29034423828125 101.87139129638672 C 417.956787109375 103.72466278076172 417.7480773925781 103.34483337402344 419.31390380859375 102.73899841308594 C 417.3334045410156 104.59806060791016 417.8543395996094 104.51378631591797 418.3081359863281 105.56040954589844 C 415.9801025390625 104.48229217529297 416.2330322265625 105.15106201171875 415.656005859375 105.8637466430664 L 415.8018798828125 102.95558166503906" stroke-width="2.0" fill="rgb(54, 70, 133)" opacity="0.0"/>
    <path d="M 317.6417541503906 278.9959411621094 C 306.8915710449219 284.4813232421875 238.96591186523438 287.8168029785156 260.277099609375 282.2751770019531 C 290.4263916015625 283.4419860839844 315.43206787109375 283.9033203125 247.36077880859375 285.3189392089844 C 185.3811492919922 282.5243225097656 256.6170349121094 290.0823059082031 153.792236328125 269.14324951171875 C 390.9540100097656 289.428466796875 220.96994018554688 254.36680603027344 318.4348449707031 275.41326904296875 L 317.6417541503906 278.9959411621094" stroke-width="2.0" fill="rgb(62, 107, 116)" opacity="0.49526775"/>
    <path d="M 118.09537506103516 271.37615966796875 C 131.33651733398438 217.67112731933594 115.59282684326172 304.8238830566406 169.78451538085938 274.56866455078125 C 142.74713134765625 259.31317138671875 158.73768615722656 250.7340545654297 177.3956298828125 290.12908935546875 C 153.7899932861328 240.42127990722656 123.4604721069336 290.1449279785156 171.2232666015625 143.78443908691406 C 25.45867156982422 133.09519958496094 -37.07657241821289 346.23248291015625 156.4595489501953 309.1981201171875 L 118.09537506103516 271.37615966796875" stroke-width="2.0" fill="rgb(214, 138, 77)" opacity="0.38167006"/>
  </g>
</svg>
