<?xml version="1.0" ?>
<svg xmlns="http://www.w3.org/2000/svg" version="1.1" width="512" height="352">
  <defs/>
  <g>
    <path d="M 146.14151000976562 233.65756225585938 C 137.19151306152344 265.56280517578125 155.44651794433594 248.2295379638672 97.12589263916016 269.73809814453125 C 61.4927864074707 250.07228088378906 66.89529418945312 243.36041259765625 57.927978515625 228.88771057128906 C 55.8523063659668 191.2634735107422 52.751163482666016 185.8639373779297 97.14884948730469 176.63693237304688 C 163.12098693847656 178.40966796875 152.93861389160156 166.08421325683594 146.14151000976562 233.65756225585938" stroke-width="0.0" fill="rgb(218, 194, 161)" opacity="0.93954736" stroke="rgb(152, 59, 232)" stroke-opacity="0.008471028" stroke-linecap="round" stroke-linejoin="round"/>
    <path d="M 243.32272338867188 167.13754272460938 C 232.87535095214844 216.06185913085938 221.87034606933594 217.37478637695312 193.74783325195312 262.99835205078125 C 185.11233520507812 221.0386505126953 183.3195037841797 244.6726837158203 175.05960083007812 193.1138916015625 C 203.39793395996094 151.6776123046875 141.59732055664062 201.8097686767578 192.45449829101562 143.77513122558594 C 233.44737243652344 130.0113983154297 289.4341125488281 175.2158660888672 243.32272338867188 167.13754272460938" stroke-width="0.0" fill="rgb(0, 42, 8)" opacity="0.52470833" stroke="rgb(96, 55, 23)" stroke-opacity="0.49800745" stroke-linecap="round" stroke-linejoin="round"/>
    <path d="M 319.5689392089844 223.6199951171875 C 336.1202087402344 252.9127960205078 332.50537109375 241.83712768554688 265.59307861328125 226.78123474121094 C 274.3914489746094 267.0522766113281 246.20376586914062 299.5328674316406 257.5982360839844 218.66371154785156 C 223.67367553710938 61.42459487915039 232.75234985351562 92.56524658203125 262.5777282714844 195.6716766357422 C 293.9440612792969 199.5161895751953 319.1809997558594 189.68783569335938 319.5689392089844 223.6199951171875" stroke-width="0.0" fill="rgb(34, 48, 24)" opacity="0.89506006" stroke="rgb(71, 91, 210)" stroke-opacity="0.8430703" stroke-linecap="round" stroke-linejoin="round"/>
    <path d="M 358.1114807128906 47.25550842285156 C 333.4890441894531 44.02440643310547 343.3048095703125 82.18437957763672 329.101318359375 68.28785705566406 C 296.3937683105469 86.48551177978516 299.22332763671875 88.51976776123047 307.2958068847656 74.6972885131836 C 315.7397155761719 33.95310974121094 317.0085754394531 17.306549072265625 331.2831726074219 38.54912567138672 C 336.6200866699219 62.706787109375 318.5228271484375 34.41768264770508 358.1114807128906 47.25550842285156" stroke-width="0.0" fill="rgb(203, 94, 60)" opacity="0.98814017" stroke="rgb(49, 21, 64)" stroke-opacity="0.7991378" stroke-linecap="round" stroke-linejoin="round"/>
    <path d="M 277.26336669921875 200.4301300048828 C 294.9158020019531 233.06893920898438 312.1568603515625 239.2567901611328 275.7182922363281 227.09669494628906 C 265.7677917480469 239.41925048828125 253.62193298339844 211.3224334716797 263.1180114746094 204.77528381347656 C 287.88623046875 195.22378540039062 275.4016418457031 169.1282958984375 306.79510498046875 188.9920196533203 C 335.2649230957031 255.63433837890625 309.93377685546875 243.92599487304688 277.26336669921875 200.4301300048828" stroke-width="0.0" fill="rgb(107, 140, 143)" opacity="1.0" stroke="rgb(98, 139, 102)" stroke-opacity="0.89339685" stroke-linecap="round" stroke-linejoin="round"/>
    <path d="M 333.8460998535156 59.85375213623047 C 315.35943603515625 81.32154846191406 275.5474548339844 109.6162338256836 302.38360595703125 105.41411590576172 C 229.0659637451172 133.62750244140625 286.72857666015625 121.79106903076172 262.9445495605469 79.03975677490234 C 284.8276672363281 16.8080997467041 304.32177734375 80.68319702148438 300.5916748046875 34.57170486450195 C 309.779052734375 30.576200485229492 312.89727783203125 61.923946380615234 333.8460998535156 59.85375213623047" stroke-width="0.0" fill="rgb(198, 91, 57)" opacity="0.96165615" stroke="rgb(68, 114, 199)" stroke-opacity="0.605329" stroke-linecap="round" stroke-linejoin="round"/>
    <path d="M 319.8136901855469 277.2494201660156 C 300.0810546875 290.4320373535156 251.37033081054688 277.1068115234375 256.8939208984375 285.4420166015625 C 144.8070831298828 283.5000915527344 285.0281982421875 279.58404541015625 149.3776092529297 274.7593688964844 C 203.31072998046875 260.2283020019531 257.2640075683594 297.26324462890625 254.11273193359375 247.50747680664062 C 258.0162353515625 310.3970031738281 276.1830139160156 251.44798278808594 319.8136901855469 277.2494201660156" stroke-width="0.0" fill="rgb(0, 48, 66)" opacity="0.3360804" stroke="rgb(167, 187, 76)" stroke-opacity="0.868" stroke-linecap="round" stroke-linejoin="round"/>
    <path d="M 466.866455078125 185.90586853027344 C 507.4346618652344 248.6485137939453 427.30218505859375 301.4053649902344 381.2882080078125 284.2708740234375 C 381.6493835449219 288.12310791015625 367.73345947265625 276.8819274902344 372.99530029296875 274.58984375 C 373.32757568359375 200.00830078125 373.9077453613281 230.49835205078125 441.7273254394531 198.09747314453125 C 449.50360107421875 230.02459716796875 465.3509826660156 295.4726257324219 466.866455078125 185.90586853027344" stroke-width="0.0" fill="rgb(92, 73, 83)" opacity="0.21120168" stroke="rgb(5, 253, 15)" stroke-opacity="0.9279504" stroke-linecap="round" stroke-linejoin="round"/>
    <path d="M 148.76876831054688 131.07257080078125 C 128.86990356445312 114.51956176757812 103.11875915527344 168.33245849609375 125.89804077148438 128.16505432128906 C 85.61344909667969 155.98391723632812 112.8064193725586 161.193603515625 103.10527038574219 171.3113555908203 C 79.91498565673828 141.74032592773438 116.23148345947266 112.06129455566406 127.63314056396484 123.59835815429688 C 113.3024673461914 115.9831314086914 154.79087829589844 126.3051528930664 148.76876831054688 131.07257080078125" stroke-width="0.0" fill="rgb(116, 20, 1)" opacity="0.63016486" stroke="rgb(41, 168, 154)" stroke-opacity="0.09973988" stroke-linecap="round" stroke-linejoin="round"/>
    <path d="M 241.6057891845703 104.97840881347656 C 242.72055053710938 111.69821166992188 237.9886474609375 101.89627075195312 251.63587951660156 156.46697998046875 C 238.32972717285156 149.81689453125 239.32801818847656 126.69766998291016 236.5579833984375 113.30571746826172 C 234.21363830566406 97.5418930053711 243.54200744628906 67.64286041259766 270.15118408203125 63.91634750366211 C 256.76654052734375 73.36417388916016 244.4855194091797 78.72197723388672 241.6057891845703 104.97840881347656" stroke-width="0.0" fill="rgb(41, 55, 31)" opacity="0.9884534" stroke="rgb(85, 221, 187)" stroke-opacity="0.39412436" stroke-linecap="round" stroke-linejoin="round"/>
    <path d="M 124.5561752319336 238.79185485839844 C 125.41492462158203 328.81793212890625 -35.962318420410156 260.74090576171875 83.11853790283203 258.1680603027344 C 134.79241943359375 247.4697723388672 120.73888397216797 260.9157409667969 100.71356201171875 250.08956909179688 C 107.25635528564453 243.88731384277344 124.7999496459961 236.04421997070312 119.63017272949219 239.19366455078125 C 94.48008728027344 254.91726684570312 91.15242004394531 190.91807556152344 124.5561752319336 238.79185485839844" stroke-width="0.0" fill="rgb(179, 120, 74)" opacity="0.3758516" stroke="rgb(234, 8, 0)" stroke-opacity="0.80803746" stroke-linecap="round" stroke-linejoin="round"/>
    <path d="M 261.52117919921875 167.28082275390625 C 250.3081512451172 162.17266845703125 246.80242919921875 178.33258056640625 249.5982666015625 180.3721466064453 C 232.0620574951172 183.69480895996094 241.17063903808594 206.17532348632812 237.4262237548828 162.13922119140625 C 223.2858123779297 161.30955505371094 256.29815673828125 156.640380859375 251.60733032226562 155.07684326171875 C 265.1142883300781 139.61981201171875 257.9886474609375 154.55966186523438 261.52117919921875 167.28082275390625" stroke-width="0.0" fill="rgb(109, 135, 115)" opacity="1.0" stroke="rgb(5, 61, 36)" stroke-opacity="0.5226483" stroke-linecap="round" stroke-linejoin="round"/>
    <path d="M 453.2097473144531 246.39097595214844 C 454.0237731933594 208.4911346435547 439.1593017578125 194.3714599609375 440.97869873046875 198.6492156982422 C 429.9053955078125 205.07223510742188 409.0746154785156 197.50050354003906 416.7061462402344 200.13873291015625 C 445.5482482910156 193.43429565429688 438.1009826660156 179.8869171142578 391.97479248046875 171.3579559326172 C 434.1602478027344 171.58116149902344 459.2657775878906 204.42762756347656 453.2097473144531 246.39097595214844" stroke-width="0.0" fill="rgb(37, 26, 31)" opacity="0.4728755" stroke="rgb(101, 186, 217)" stroke-opacity="0.2249338" stroke-linecap="round" stroke-linejoin="round"/>
    <path d="M 377.9599304199219 271.6399841308594 C 366.00872802734375 275.4216613769531 371.3270263671875 278.146728515625 358.168212890625 280.42694091796875 C 325.29132080078125 276.71514892578125 318.6524963378906 268.3089904785156 333.4898681640625 258.982421875 C 338.60498046875 254.97454833984375 351.57305908203125 269.2968444824219 348.2662048339844 219.9281005859375 C 352.8191833496094 233.56936645507812 374.0164489746094 249.55825805664062 377.9599304199219 271.6399841308594" stroke-width="0.0" fill="rgb(58, 52, 54)" opacity="0.57260084" stroke="rgb(95, 133, 179)" stroke-opacity="0.9018501" stroke-linecap="round" stroke-linejoin="round"/>
    <path d="M 390.9552307128906 229.48887634277344 C 388.893798828125 263.12347412109375 415.8126220703125 248.64149475097656 445.8493957519531 281.1878662109375 C 354.6496887207031 288.3767395019531 366.9466857910156 295.76385498046875 354.3784484863281 223.22897338867188 C 340.0668029785156 149.44654846191406 343.2207946777344 137.96873474121094 427.80731201171875 188.20761108398438 C 451.4739990234375 216.78456115722656 393.1903991699219 206.70985412597656 390.9552307128906 229.48887634277344" stroke-width="0.0" fill="rgb(90, 62, 76)" opacity="0.20624022" stroke="rgb(29, 36, 128)" stroke-opacity="0.5769518" stroke-linecap="round" stroke-linejoin="round"/>
    <path d="M 406.291015625 174.48245239257812 C 405.240966796875 180.8255157470703 400.5375671386719 192.84344482421875 382.008544921875 192.54043579101562 C 393.20550537109375 193.48614501953125 399.20574951171875 180.28306579589844 396.0469970703125 175.82948303222656 C 398.3880615234375 183.1071014404297 398.0408020019531 160.39151000976562 381.4534606933594 170.32286071777344 C 404.5548095703125 168.990234375 422.9260559082031 179.67111206054688 406.291015625 174.48245239257812" stroke-width="0.0" fill="rgb(57, 54, 55)" opacity="0.5462702" stroke="rgb(144, 212, 195)" stroke-opacity="0.28150797" stroke-linecap="round" stroke-linejoin="round"/>
    <path d="M 392.59375 232.4585418701172 C 402.3560485839844 230.68824768066406 386.9610595703125 237.60269165039062 378.5478210449219 228.4278564453125 C 379.5390625 224.8431854248047 362.87030029296875 253.00759887695312 395.1179504394531 274.5702819824219 C 358.3314514160156 258.3387145996094 370.6116027832031 205.76416015625 411.311767578125 212.36537170410156 C 388.4496765136719 213.44029235839844 372.422119140625 222.98556518554688 392.59375 232.4585418701172" stroke-width="0.0" fill="rgb(62, 63, 61)" opacity="0.6912925" stroke="rgb(90, 45, 12)" stroke-opacity="0.966945" stroke-linecap="round" stroke-linejoin="round"/>
    <path d="M 242.9967803955078 150.77853393554688 C 236.74819946289062 152.2651824951172 234.71847534179688 154.6394805908203 230.55117797851562 160.66416931152344 C 232.151123046875 160.89779663085938 232.8465118408203 152.40199279785156 228.1754913330078 145.3998565673828 C 223.49920654296875 139.60433959960938 222.67727661132812 142.06362915039062 241.312744140625 147.6240997314453 C 243.0812530517578 142.35739135742188 239.322998046875 140.7673797607422 242.9967803955078 150.77853393554688" stroke-width="0.0" fill="rgb(244, 254, 255)" opacity="0.72213745" stroke="rgb(71, 205, 140)" stroke-opacity="0.44604528" stroke-linecap="round" stroke-linejoin="round"/>
    <path d="M 226.5736083984375 143.32077026367188 C 235.93743896484375 159.83517456054688 226.55055236816406 140.1113739013672 209.86013793945312 136.6358184814453 C 193.7556915283203 150.4330291748047 209.17312622070312 140.9643096923828 202.56605529785156 133.4889373779297 C 212.27359008789062 134.32432556152344 209.78225708007812 136.01707458496094 215.27198791503906 134.8665008544922 C 207.7947998046875 136.45355224609375 214.4932861328125 133.38754272460938 226.5736083984375 143.32077026367188" stroke-width="0.0" fill="rgb(20, 33, 6)" opacity="0.8885409" stroke="rgb(188, 50, 179)" stroke-opacity="0.9567198" stroke-linecap="round" stroke-linejoin="round"/>
    <path d="M 65.56214141845703 217.4859161376953 C 57.62910079956055 220.44361877441406 49.970184326171875 225.2687530517578 43.53432083129883 216.38967895507812 C 48.49475860595703 202.68408203125 27.931852340698242 245.12533569335938 44.92747116088867 269.1965026855469 C 30.968961715698242 235.11605834960938 46.27241134643555 191.88327026367188 73.84891510009766 182.17739868164062 C 42.98331069946289 203.3915557861328 40.27849578857422 214.81619262695312 65.56214141845703 217.4859161376953" stroke-width="0.0" fill="rgb(134, 51, 35)" opacity="0.61041474" stroke="rgb(95, 96, 152)" stroke-opacity="0.19404416" stroke-linecap="round" stroke-linejoin="round"/>
    <path d="M 381.51409912109375 117.70645141601562 C 389.672607421875 125.70085144042969 391.0201721191406 117.44003295898438 362.4562072753906 115.69977569580078 C 337.84759521484375 117.90442657470703 388.44537353515625 107.71607208251953 344.9418029785156 113.79266357421875 C 378.4544982910156 102.20697021484375 346.21551513671875 121.0987319946289 379.63897705078125 98.2975082397461 C 352.5314025878906 122.4476318359375 364.00225830078125 99.3973388671875 381.51409912109375 117.70645141601562" stroke-width="0.0" fill="rgb(13, 0, 5)" opacity="0.47672597" stroke="rgb(164, 80, 29)" stroke-opacity="0.27169463" stroke-linecap="round" stroke-linejoin="round"/>
    <path d="M 89.46109771728516 202.84371948242188 C 91.05036163330078 203.75387573242188 80.36652374267578 206.75526428222656 77.8728256225586 207.2047576904297 C 62.624446868896484 210.7970733642578 56.36663055419922 204.03822326660156 54.0798454284668 197.56700134277344 C 66.74620819091797 176.98818969726562 107.02665710449219 174.32228088378906 68.43119812011719 186.18605041503906 C 49.037052154541016 192.23464965820312 84.3646469116211 206.37924194335938 89.46109771728516 202.84371948242188" stroke-width="0.0" fill="rgb(96, 0, 2)" opacity="0.4131495" stroke="rgb(185, 86, 217)" stroke-opacity="0.012220794" stroke-linecap="round" stroke-linejoin="round"/>
    <path d="M 370.84295654296875 263.0545959472656 C 367.9830627441406 272.0963439941406 355.27056884765625 264.18768310546875 350.0206298828125 276.67645263671875 C 339.1761779785156 278.3076171875 356.4654846191406 261.80902099609375 343.2549133300781 274.10443115234375 C 337.1218566894531 267.2181396484375 359.8565979003906 257.23028564453125 359.35137939453125 265.48333740234375 C 360.46246337890625 252.6342315673828 368.8888244628906 255.11865234375 370.84295654296875 263.0545959472656" stroke-width="0.0" fill="rgb(197, 196, 196)" opacity="0.7760348" stroke="rgb(40, 216, 194)" stroke-opacity="0.5864512" stroke-linecap="round" stroke-linejoin="round"/>
    <path d="M 106.11363983154297 142.00680541992188 C 94.53921508789062 163.4315643310547 157.091552734375 227.8151092529297 169.12303161621094 142.97079467773438 C 79.83121490478516 125.11707305908203 107.25299835205078 160.5902557373047 111.97315216064453 180.08364868164062 C 84.44325256347656 152.2685089111328 100.59081268310547 135.92420959472656 112.3257064819336 128.6762237548828 C 123.6641616821289 124.783203125 110.56615447998047 128.95166015625 106.11363983154297 142.00680541992188" stroke-width="0.0" fill="rgb(186, 168, 145)" opacity="1.0" stroke="rgb(244, 28, 21)" stroke-opacity="0.32996857" stroke-linecap="round" stroke-linejoin="round"/>
    <path d="M 349.93658447265625 126.14471435546875 C 350.868408203125 129.81915283203125 346.3643798828125 137.0356903076172 342.4377746582031 132.34303283691406 C 345.3452453613281 139.6917266845703 340.9296569824219 122.72645568847656 349.4742736816406 124.79830932617188 C 342.3064270019531 124.70938110351562 347.7532958984375 130.84434509277344 348.20147705078125 130.2487030029297 C 344.951171875 117.01876068115234 347.4583435058594 124.25199890136719 349.93658447265625 126.14471435546875" stroke-width="0.0" fill="rgb(18, 18, 16)" opacity="0.9604896" stroke="rgb(77, 237, 152)" stroke-opacity="0.2735447" stroke-linecap="round" stroke-linejoin="round"/>
    <path d="M 271.2325439453125 57.325714111328125 C 265.44256591796875 73.81741333007812 277.2261657714844 61.96390914916992 259.205078125 71.67597198486328 C 272.182861328125 58.33741760253906 264.0837097167969 66.37834167480469 249.46734619140625 64.95673370361328 C 277.0935363769531 51.0421028137207 263.4246826171875 63.36196517944336 257.5872802734375 48.51279067993164 C 265.50006103515625 58.15863800048828 290.6501159667969 47.182640075683594 271.2325439453125 57.325714111328125" stroke-width="0.0" fill="rgb(33, 45, 20)" opacity="0.9253499" stroke="rgb(52, 25, 135)" stroke-opacity="0.28656027" stroke-linecap="round" stroke-linejoin="round"/>
    <path d="M 326.8800048828125 130.64358520507812 C 336.24285888671875 138.39254760742188 302.9276428222656 135.48690795898438 349.541259765625 166.26734924316406 C 320.8862609863281 152.62442016601562 323.8250732421875 144.2964630126953 321.1804504394531 136.43765258789062 C 320.53692626953125 127.4565200805664 326.0850830078125 130.85797119140625 334.7920227050781 124.89652252197266 C 359.5945739746094 99.02462768554688 339.76177978515625 126.21975708007812 326.8800048828125 130.64358520507812" stroke-width="0.0" fill="rgb(36, 30, 31)" opacity="0.67081106" stroke="rgb(141, 156, 2)" stroke-opacity="0.96343255" stroke-linecap="round" stroke-linejoin="round"/>
    <path d="M 279.1659240722656 55.051212310791016 C 279.6363220214844 70.66852569580078 309.2126770019531 77.1171646118164 309.4614562988281 84.6578369140625 C 274.58868408203125 59.22820281982422 270.95257568359375 66.14950561523438 269.594970703125 52.85608673095703 C 274.5150146484375 54.50117874145508 277.6958312988281 57.9355583190918 266.1383056640625 53.12836837768555 C 267.490478515625 56.17884826660156 271.92437744140625 49.7973747253418 279.1659240722656 55.051212310791016" stroke-width="0.0" fill="rgb(42, 56, 33)" opacity="0.9945381" stroke="rgb(115, 99, 93)" stroke-opacity="0.44094145" stroke-linecap="round" stroke-linejoin="round"/>
    <path d="M 322.3886413574219 230.33831787109375 C 329.59576416015625 245.47113037109375 326.828125 235.75692749023438 327.9688415527344 242.4934844970703 C 315.1583557128906 233.8929443359375 316.4527587890625 222.70860290527344 283.6451721191406 201.59359741210938 C 336.37115478515625 211.4208984375 306.27972412109375 220.0717315673828 325.38409423828125 232.88815307617188 C 318.74493408203125 222.19967651367188 327.3340148925781 236.251220703125 322.3886413574219 230.33831787109375" stroke-width="0.0" fill="rgb(108, 145, 150)" opacity="1.0" stroke="rgb(46, 179, 110)" stroke-opacity="0.51773804" stroke-linecap="round" stroke-linejoin="round"/>
    <path d="M 374.3079528808594 259.072021484375 C 381.1737976074219 261.74261474609375 373.4724426269531 273.1183776855469 362.99169921875 277.5323791503906 C 345.9290771484375 282.0648498535156 351.1045227050781 272.5673522949219 358.117431640625 268.6902770996094 C 371.5318908691406 239.3819580078125 372.4305419921875 285.6156311035156 373.9315185546875 233.64361572265625 C 373.5810852050781 256.81182861328125 375.86370849609375 248.2176055908203 374.3079528808594 259.072021484375" stroke-width="0.0" fill="rgb(153, 153, 152)" opacity="0.8865352" stroke="rgb(189, 106, 169)" stroke-opacity="0.14594768" stroke-linecap="round" stroke-linejoin="round"/>
    <path d="M 373.7287902832031 254.8087615966797 C 373.5016174316406 261.9429016113281 376.6419982910156 263.51141357421875 361.98480224609375 275.1376037597656 C 345.9053039550781 280.3619689941406 352.9181823730469 276.1672058105469 357.8287658691406 257.57904052734375 C 385.0529479980469 255.28182983398438 350.0154724121094 254.9670867919922 363.2702331542969 249.28024291992188 C 378.3722839355469 249.6487579345703 371.79144287109375 250.70004272460938 373.7287902832031 254.8087615966797" stroke-width="0.0" fill="rgb(178, 178, 178)" opacity="0.9764386" stroke="rgb(185, 229, 188)" stroke-opacity="0.13085178" stroke-linecap="round" stroke-linejoin="round"/>
    <path d="M 395.01263427734375 123.47019958496094 C 395.6181335449219 186.9223175048828 381.3144226074219 173.16026306152344 373.81610107421875 162.7846221923828 C 361.3331604003906 151.67152404785156 325.2860412597656 141.78729248046875 344.6023864746094 134.19219970703125 C 361.3411560058594 128.73118591308594 327.732421875 106.81368255615234 362.1809997558594 115.5101318359375 C 396.0708923339844 126.52143859863281 405.5868835449219 88.24849700927734 395.01263427734375 123.47019958496094" stroke-width="0.0" fill="rgb(167, 161, 165)" opacity="0.59244925" stroke="rgb(176, 57, 35)" stroke-opacity="0.82202125" stroke-linecap="round" stroke-linejoin="round"/>
    <path d="M 458.9009704589844 174.32568359375 C 448.5818786621094 186.258056640625 442.9752502441406 166.7759246826172 461.2850646972656 199.60321044921875 C 454.8546447753906 190.54556274414062 430.629638671875 164.9120330810547 445.4938049316406 136.6795196533203 C 456.728271484375 167.13296508789062 439.21875 192.90139770507812 455.2362060546875 140.6448974609375 C 450.06304931640625 159.1581573486328 456.2027893066406 167.4884033203125 458.9009704589844 174.32568359375" stroke-width="0.0" fill="rgb(22, 13, 17)" opacity="0.5636705" stroke="rgb(142, 194, 16)" stroke-opacity="0.91583794" stroke-linecap="round" stroke-linejoin="round"/>
    <path d="M 446.84954833984375 204.32733154296875 C 422.8440246582031 170.54246520996094 434.73406982421875 190.72451782226562 407.49517822265625 195.28565979003906 C 396.04376220703125 197.38336181640625 400.8451232910156 198.2861328125 408.4990539550781 191.90257263183594 C 414.7899169921875 186.00677490234375 415.5870056152344 183.09226989746094 419.7605895996094 177.85891723632812 C 396.2116394042969 173.00390625 432.8323974609375 170.14108276367188 446.84954833984375 204.32733154296875" stroke-width="0.0" fill="rgb(6, 0, 0)" opacity="0.35538366" stroke="rgb(74, 64, 141)" stroke-opacity="0.70899653" stroke-linecap="round" stroke-linejoin="round"/>
    <path d="M 132.33470153808594 299.9120788574219 C 117.7816162109375 316.2880554199219 149.33401489257812 306.14471435546875 158.50802612304688 317.6319885253906 C 144.0859832763672 307.9874267578125 94.8598861694336 312.3007507324219 119.30316925048828 310.2663879394531 C 127.25091552734375 289.4096984863281 120.72486114501953 306.9089050292969 124.71552276611328 299.3016052246094 C 157.1564483642578 299.4126281738281 173.01910400390625 309.5146484375 132.33470153808594 299.9120788574219" stroke-width="0.0" fill="rgb(114, 39, 26)" opacity="0.6470258" stroke="rgb(125, 88, 91)" stroke-opacity="0.3944759" stroke-linecap="round" stroke-linejoin="round"/>
    <path d="M 144.63619995117188 311.59814453125 C 61.8846321105957 311.5736083984375 56.20638656616211 299.8959655761719 76.75325012207031 306.4112854003906 C 128.3009796142578 310.4753112792969 131.56088256835938 306.230712890625 101.48532104492188 308.1664123535156 C 100.8901596069336 300.70391845703125 114.41072845458984 293.9729919433594 108.27011108398438 308.69232177734375 C 107.09918975830078 308.86968994140625 119.2323989868164 308.5412902832031 144.63619995117188 311.59814453125" stroke-width="0.0" fill="rgb(76, 13, 11)" opacity="0.6489867" stroke="rgb(3, 78, 14)" stroke-opacity="0.9326141" stroke-linecap="round" stroke-linejoin="round"/>
    <path d="M 101.64423370361328 196.79974365234375 C 95.024169921875 195.26185607910156 91.29946899414062 196.8551483154297 97.70211791992188 195.9630584716797 C 88.03099060058594 199.09640502929688 71.38512420654297 193.7408905029297 69.99580383300781 186.92431640625 C 68.58635711669922 185.02670288085938 82.9640121459961 179.44387817382812 81.689453125 183.22793579101562 C 82.78535461425781 190.17630004882812 92.94684600830078 191.97195434570312 101.64423370361328 196.79974365234375" stroke-width="0.0" fill="rgb(182, 129, 115)" opacity="1.0" stroke="rgb(193, 0, 53)" stroke-opacity="0.5027652" stroke-linecap="round" stroke-linejoin="round"/>
    <path d="M 443.9325256347656 162.01702880859375 C 453.11248779296875 144.97608947753906 453.7221984863281 174.34786987304688 455.0465393066406 168.18365478515625 C 443.451416015625 181.5916290283203 442.6039733886719 162.42677307128906 442.3800048828125 149.61944580078125 C 447.45654296875 125.71369934082031 459.4247131347656 128.06187438964844 445.0469055175781 136.37936401367188 C 454.17547607421875 135.46365356445312 463.7179870605469 136.82240295410156 443.9325256347656 162.01702880859375" stroke-width="0.0" fill="rgb(178, 178, 178)" opacity="0.9987501" stroke="rgb(0, 103, 231)" stroke-opacity="0.2983339" stroke-linecap="round" stroke-linejoin="round"/>
    <path d="M 122.30158996582031 285.705322265625 C 126.07313537597656 291.13818359375 86.76924133300781 290.5733947753906 106.79994201660156 289.20489501953125 C 88.03262329101562 290.39801025390625 81.6542739868164 287.2331848144531 70.0072250366211 288.1853332519531 C 119.59537506103516 281.403076171875 52.46411895751953 292.1116027832031 54.05292892456055 276.2758483886719 C 55.04296112060547 291.95050048828125 82.94039154052734 285.9122619628906 122.30158996582031 285.705322265625" stroke-width="0.0" fill="rgb(54, 19, 27)" opacity="0.7428748" stroke="rgb(235, 15, 129)" stroke-opacity="0.23419334" stroke-linecap="round" stroke-linejoin="round"/>
    <path d="M 145.66221618652344 234.05426025390625 C 148.13812255859375 276.9391174316406 144.42205810546875 244.8279266357422 143.8535614013672 237.70980834960938 C 132.9888458251953 239.35939025878906 129.23011779785156 245.98196411132812 135.230712890625 237.84669494628906 C 137.02867126464844 236.00125122070312 140.34083557128906 232.95523071289062 144.68397521972656 230.73580932617188 C 150.83514404296875 194.8544921875 153.20408630371094 200.9112091064453 145.66221618652344 234.05426025390625" stroke-width="0.0" fill="rgb(74, 12, 16)" opacity="0.6199376" stroke="rgb(96, 101, 11)" stroke-opacity="0.05746356" stroke-linecap="round" stroke-linejoin="round"/>
    <path d="M 168.59165954589844 323.0298767089844 C 153.4703369140625 322.63812255859375 168.5413818359375 330.6170349121094 154.7459716796875 314.051513671875 C 126.6078109741211 305.36151123046875 123.9079818725586 316.865966796875 131.11776733398438 299.9047546386719 C 164.76632690429688 305.6196594238281 161.89898681640625 304.17828369140625 136.71957397460938 299.19561767578125 C 145.1588134765625 300.1377868652344 175.1613311767578 304.7783508300781 168.59165954589844 323.0298767089844" stroke-width="0.0" fill="rgb(216, 180, 140)" opacity="0.7516436" stroke="rgb(133, 138, 235)" stroke-opacity="0.5114673" stroke-linecap="round" stroke-linejoin="round"/>
    <path d="M 216.00860595703125 138.60728454589844 C 231.14466857910156 144.17929077148438 240.23504638671875 158.5364990234375 192.78396606445312 147.7976837158203 C 189.41444396972656 137.5648956298828 209.2815704345703 149.32009887695312 205.41549682617188 135.1615753173828 C 214.74815368652344 137.27764892578125 217.05227661132812 140.15579223632812 214.95236206054688 138.46961975097656 C 206.96705627441406 135.1675567626953 209.1077423095703 135.96018981933594 216.00860595703125 138.60728454589844" stroke-width="0.0" fill="rgb(127, 154, 135)" opacity="0.9278178" stroke="rgb(208, 87, 250)" stroke-opacity="0.05088872" stroke-linecap="round" stroke-linejoin="round"/>
    <path d="M 478.44610595703125 226.1726837158203 C 460.6425476074219 284.0719299316406 461.8188781738281 244.5748291015625 396.618408203125 270.3893127441406 C 468.86383056640625 272.0543518066406 489.8137512207031 250.32359313964844 414.4774475097656 263.936767578125 C 404.3435974121094 259.07489013671875 456.02947998046875 266.8622741699219 437.9839782714844 242.83233642578125 C 449.0791015625 247.4011993408203 466.3217468261719 287.2130432128906 478.44610595703125 226.1726837158203" stroke-width="0.0" fill="rgb(144, 144, 143)" opacity="0.87612426" stroke="rgb(191, 54, 56)" stroke-opacity="0.1238836" stroke-linecap="round" stroke-linejoin="round"/>
    <path d="M 470.5401916503906 252.9465789794922 C 487.3211975097656 214.59034729003906 462.1808166503906 164.47665405273438 467.53497314453125 230.444580078125 C 455.21563720703125 257.9610595703125 477.9966735839844 218.6134796142578 453.37060546875 188.94296264648438 C 468.5433654785156 181.7118377685547 459.4787902832031 184.77786254882812 456.0591735839844 170.04603576660156 C 458.5296630859375 177.46900939941406 493.4287414550781 207.8335723876953 470.5401916503906 252.9465789794922" stroke-width="0.0" fill="rgb(25, 18, 20)" opacity="0.5717218" stroke="rgb(72, 15, 89)" stroke-opacity="0.5494902" stroke-linecap="round" stroke-linejoin="round"/>
    <path d="M 325.0794372558594 238.84422302246094 C 331.9227294921875 244.67503356933594 325.1247253417969 244.01234436035156 309.29754638671875 238.1480712890625 C 338.8221130371094 246.32310485839844 316.17120361328125 239.67576599121094 306.9521179199219 235.3755645751953 C 318.6330261230469 231.4862060546875 275.002685546875 192.77285766601562 303.3201904296875 215.10618591308594 C 323.937744140625 237.13095092773438 323.68841552734375 237.22589111328125 325.0794372558594 238.84422302246094" stroke-width="0.0" fill="rgb(91, 122, 124)" opacity="1.0" stroke="rgb(253, 93, 92)" stroke-opacity="0.52762306" stroke-linecap="round" stroke-linejoin="round"/>
    <path d="M 362.5228271484375 120.98033142089844 C 365.21551513671875 149.7717742919922 364.7491760253906 150.540283203125 350.2553405761719 162.431640625 C 333.2971496582031 160.2317657470703 317.71527099609375 143.91571044921875 328.17657470703125 135.49761962890625 C 327.2292785644531 134.2650909423828 324.8370666503906 128.8229522705078 354.2318115234375 116.89214324951172 C 340.2203369140625 128.4456024169922 338.9354553222656 144.81005859375 362.5228271484375 120.98033142089844" stroke-width="0.0" fill="rgb(170, 162, 166)" opacity="0.47770473" stroke="rgb(242, 90, 209)" stroke-opacity="0.8731099" stroke-linecap="round" stroke-linejoin="round"/>
    <path d="M 103.10157775878906 298.40789794921875 C 115.90257263183594 297.92840576171875 95.4245376586914 302.2380676269531 139.12950134277344 299.1092224121094 C 77.10303497314453 299.0202331542969 49.18205642700195 287.7052917480469 74.096435546875 295.950439453125 C 107.59551239013672 302.9684753417969 111.60337829589844 294.9849548339844 101.6450424194336 304.4296569824219 C 103.15799713134766 297.993408203125 107.32450103759766 300.7472839355469 103.10157775878906 298.40789794921875" stroke-width="0.0" fill="rgb(79, 20, 10)" opacity="0.44942567" stroke="rgb(91, 106, 204)" stroke-opacity="0.018729024" stroke-linecap="round" stroke-linejoin="round"/>
    <path d="M 325.9525451660156 242.2229766845703 C 328.5808410644531 244.5939483642578 314.3991394042969 230.27760314941406 309.949462890625 224.7731170654297 C 314.9407958984375 237.2679901123047 313.2197570800781 223.87107849121094 291.7099304199219 206.33949279785156 C 257.3074951171875 190.62184143066406 299.6912536621094 207.86712646484375 304.5556335449219 223.12103271484375 C 300.9205627441406 215.43402099609375 309.46435546875 229.22598266601562 325.9525451660156 242.2229766845703" stroke-width="0.0" fill="rgb(34, 44, 16)" opacity="0.86333513" stroke="rgb(226, 138, 74)" stroke-opacity="0.8173759" stroke-linecap="round" stroke-linejoin="round"/>
    <path d="M 120.81001281738281 236.85548400878906 C 130.02902221679688 252.34400939941406 77.1405029296875 248.20388793945312 120.63427734375 254.42970275878906 C 116.70542907714844 209.56988525390625 138.71568298339844 274.25054931640625 89.32029724121094 281.5387268066406 C 120.35697937011719 282.825439453125 127.38264465332031 246.1776123046875 121.94945526123047 242.43508911132812 C 123.68494415283203 249.19271850585938 117.02398681640625 268.5628967285156 120.81001281738281 236.85548400878906" stroke-width="0.0" fill="rgb(85, 36, 44)" opacity="0.6861461" stroke="rgb(87, 107, 46)" stroke-opacity="0.9176304" stroke-linecap="round" stroke-linejoin="round"/>
    <path d="M 393.071533203125 239.07632446289062 C 387.6901550292969 245.74624633789062 379.19805908203125 249.81869506835938 374.1246643066406 246.47608947753906 C 378.62530517578125 247.98484802246094 370.6989440917969 258.6510009765625 375.2559509277344 233.30508422851562 C 370.8183898925781 240.4281768798828 379.21990966796875 240.7552490234375 383.0296325683594 240.929443359375 C 377.6529846191406 241.0233154296875 385.0328369140625 242.33470153808594 393.071533203125 239.07632446289062" stroke-width="0.0" fill="rgb(77, 77, 75)" opacity="0.7699709" stroke="rgb(156, 94, 238)" stroke-opacity="0.75876254" stroke-linecap="round" stroke-linejoin="round"/>
    <path d="M 102.88472747802734 279.4845886230469 C 54.34002685546875 285.1875915527344 43.85319137573242 272.8002624511719 56.22589111328125 246.0945587158203 C 32.849239349365234 280.5594787597656 84.0394287109375 285.1297912597656 58.75657272338867 278.6605529785156 C 70.46434783935547 284.10302734375 81.7055892944336 280.5880432128906 89.71961975097656 283.9524841308594 C 77.54219818115234 280.2582092285156 88.29950714111328 284.9923095703125 102.88472747802734 279.4845886230469" stroke-width="0.0" fill="rgb(34, 0, 13)" opacity="0.55125004" stroke="rgb(196, 241, 9)" stroke-opacity="0.088345565" stroke-linecap="round" stroke-linejoin="round"/>
    <path d="M 308.5499572753906 233.5858154296875 C 319.185546875 242.30491638183594 302.92938232421875 233.10931396484375 300.6946716308594 231.7874755859375 C 289.9061584472656 232.77110290527344 287.9511413574219 234.30564880371094 289.2502746582031 218.71144104003906 C 300.7582092285156 239.00933837890625 296.4617004394531 225.43551635742188 284.7941589355469 208.58657836914062 C 295.9057922363281 221.61412048339844 298.3854064941406 226.8116912841797 308.5499572753906 233.5858154296875" stroke-width="0.0" fill="rgb(93, 124, 127)" opacity="1.0" stroke="rgb(122, 98, 122)" stroke-opacity="0.65260464" stroke-linecap="round" stroke-linejoin="round"/>
    <path d="M 395.2242431640625 274.03948974609375 C 408.1953125 277.5976257324219 399.522705078125 273.7290344238281 412.8018798828125 274.88604736328125 C 417.4371337890625 275.66534423828125 406.75836181640625 272.20965576171875 402.2418212890625 276.0173645019531 C 432.0641174316406 276.2901916503906 429.9055480957031 275.55328369140625 398.0027160644531 273.34765625 C 374.7095947265625 263.0252380371094 387.9706115722656 270.3678894042969 395.2242431640625 274.03948974609375" stroke-width="0.0" fill="rgb(69, 71, 69)" opacity="0.8125484" stroke="rgb(160, 16, 230)" stroke-opacity="0.1925685" stroke-linecap="round" stroke-linejoin="round"/>
    <path d="M 146.41014099121094 310.9873962402344 C 145.45716857910156 299.3662414550781 163.37843322753906 299.6875915527344 170.1687774658203 317.3941955566406 C 159.1754150390625 296.3237609863281 136.030029296875 303.7674255371094 94.9957504272461 297.5683288574219 C 149.09768676757812 298.1769714355469 160.88319396972656 303.4357604980469 148.939208984375 303.5732116699219 C 139.4512939453125 295.0243225097656 134.32362365722656 318.7009582519531 146.41014099121094 310.9873962402344" stroke-width="0.0" fill="rgb(46, 0, 11)" opacity="0.46869048" stroke="rgb(79, 204, 172)" stroke-opacity="0.20284739" stroke-linecap="round" stroke-linejoin="round"/>
    <path d="M 298.5834655761719 54.885948181152344 C 302.2316589355469 26.98238182067871 302.521240234375 29.47831153869629 299.7406921386719 59.853248596191406 C 304.8679504394531 50.457725524902344 290.0080871582031 51.78308868408203 315.4485778808594 78.63311767578125 C 316.8585510253906 74.54650115966797 297.9969177246094 59.642330169677734 303.1468200683594 56.33980178833008 C 302.50640869140625 63.08409881591797 284.287841796875 42.18229675292969 298.5834655761719 54.885948181152344" stroke-width="0.0" fill="rgb(38, 54, 32)" opacity="0.9189998" stroke="rgb(105, 94, 28)" stroke-opacity="0.9363191" stroke-linecap="round" stroke-linejoin="round"/>
    <path d="M 37.15373229980469 245.78250122070312 C 41.4819221496582 218.45172119140625 40.292362213134766 225.88926696777344 41.92398452758789 220.24134826660156 C 46.51081848144531 201.2813720703125 67.1051254272461 181.58908081054688 50.38055419921875 204.8008575439453 C 41.9695930480957 219.8409881591797 44.578834533691406 219.59376525878906 44.08844757080078 218.6182403564453 C 38.135009765625 236.05613708496094 41.63679122924805 238.0260009765625 37.15373229980469 245.78250122070312" stroke-width="0.0" fill="rgb(49, 21, 33)" opacity="0.73200417" stroke="rgb(77, 77, 249)" stroke-opacity="0.63462234" stroke-linecap="round" stroke-linejoin="round"/>
    <path d="M 271.72918701171875 73.96171569824219 C 266.61865234375 73.48616790771484 263.5877685546875 77.13538360595703 266.8008117675781 73.58256530761719 C 276.13031005859375 74.35154724121094 269.32916259765625 72.96266174316406 258.1887512207031 76.12498474121094 C 260.6931457519531 69.29792785644531 273.70281982421875 69.8188247680664 269.79998779296875 67.76298522949219 C 262.21649169921875 61.0048942565918 272.62457275390625 69.81029510498047 271.72918701171875 73.96171569824219" stroke-width="0.0" fill="rgb(44, 58, 35)" opacity="1.0" stroke="rgb(145, 72, 239)" stroke-opacity="0.41867852" stroke-linecap="round" stroke-linejoin="round"/>
    <path d="M 105.63511657714844 298.23797607421875 C 134.60008239746094 304.10382080078125 44.07211685180664 321.484619140625 40.22963333129883 279.59429931640625 C 51.847904205322266 262.66461181640625 18.413501739501953 302.6044921875 94.93041229248047 307.25958251953125 C 146.7003631591797 293.838623046875 53.919395446777344 305.767333984375 51.63302230834961 280.0403747558594 C 62.999691009521484 304.1260986328125 148.45162963867188 296.99920654296875 105.63511657714844 298.23797607421875" stroke-width="0.0" fill="rgb(46, 0, 7)" opacity="0.6455006" stroke="rgb(53, 233, 181)" stroke-opacity="0.3196088" stroke-linecap="round" stroke-linejoin="round"/>
    <path d="M 297.0243835449219 79.09514617919922 C 324.2672119140625 96.88982391357422 289.84906005859375 75.82121276855469 287.976318359375 77.15721130371094 C 264.8014221191406 67.78936767578125 251.4663543701172 86.56825256347656 264.0550231933594 74.3125991821289 C 262.6270446777344 80.92294311523438 266.54638671875 70.94632720947266 258.69952392578125 74.3100814819336 C 264.3648681640625 76.68080139160156 274.3794860839844 66.61389923095703 297.0243835449219 79.09514617919922" stroke-width="0.0" fill="rgb(19, 49, 28)" opacity="0.8336842" stroke="rgb(23, 212, 91)" stroke-opacity="0.71484005" stroke-linecap="round" stroke-linejoin="round"/>
    <path d="M 422.6724548339844 275.5005798339844 C 415.4300231933594 277.7373962402344 411.3556213378906 269.2019958496094 414.3529968261719 272.123046875 C 434.7255859375 272.3400573730469 436.072509765625 271.6621398925781 414.2558898925781 271.92279052734375 C 412.938232421875 278.7155456542969 448.01068115234375 278.2272644042969 444.730712890625 251.30873107910156 C 443.9361877441406 284.8360290527344 400.9421691894531 269.71258544921875 422.6724548339844 275.5005798339844" stroke-width="0.0" fill="rgb(77, 79, 76)" opacity="0.76822376" stroke="rgb(197, 235, 145)" stroke-opacity="0.55274117" stroke-linecap="round" stroke-linejoin="round"/>
    <path d="M 192.54891967773438 142.08370971679688 C 219.10995483398438 179.3558349609375 138.66358947753906 158.922607421875 187.22445678710938 153.14801025390625 C 178.26724243164062 137.20323181152344 186.84262084960938 149.12698364257812 202.02931213378906 138.86390686035156 C 191.45115661621094 145.8994598388672 184.24746704101562 142.1155548095703 196.5166473388672 143.01931762695312 C 205.08480834960938 139.21311950683594 184.06057739257812 145.22508239746094 192.54891967773438 142.08370971679688" stroke-width="0.0" fill="rgb(121, 146, 126)" opacity="1.0" stroke="rgb(83, 39, 203)" stroke-opacity="0.5532043" stroke-linecap="round" stroke-linejoin="round"/>
    <path d="M 102.88490295410156 196.4345245361328 C 98.54898071289062 197.7664337158203 90.3877944946289 196.23585510253906 83.31890106201172 196.4274444580078 C 95.73233032226562 196.538330078125 82.811767578125 198.036865234375 76.95216369628906 193.58792114257812 C 87.7797622680664 185.9815216064453 83.90453338623047 188.4326629638672 85.0457763671875 188.42404174804688 C 88.52994537353516 190.85952758789062 94.99039459228516 194.1436767578125 102.88490295410156 196.4345245361328" stroke-width="0.0" fill="rgb(151, 77, 56)" opacity="0.6071717" stroke="rgb(130, 48, 19)" stroke-opacity="0.42808887" stroke-linecap="round" stroke-linejoin="round"/>
    <path d="M 225.78904724121094 176.56536865234375 C 225.82275390625 185.21473693847656 223.61962890625 183.57032775878906 231.25326538085938 209.72796630859375 C 228.62252807617188 184.19552612304688 224.5449981689453 195.5932159423828 231.0406036376953 160.28529357910156 C 220.76539611816406 188.11654663085938 228.3703155517578 187.70407104492188 233.4978485107422 182.74647521972656 C 227.917236328125 186.55992126464844 225.59805297851562 186.8839111328125 225.78904724121094 176.56536865234375" stroke-width="0.0" fill="rgb(25, 31, 9)" opacity="0.6409184" stroke="rgb(117, 202, 80)" stroke-opacity="0.12986518" stroke-linecap="round" stroke-linejoin="round"/>
    <path d="M 151.14695739746094 191.57920837402344 C 150.27000427246094 183.46383666992188 149.87506103515625 188.31912231445312 151.31130981445312 190.09898376464844 C 150.7621307373047 188.1549835205078 147.281005859375 183.18490600585938 146.88099670410156 184.0519561767578 C 145.8099822998047 184.90426635742188 148.65269470214844 180.4163360595703 155.86106872558594 178.12010192871094 C 149.8596954345703 177.49758911132812 155.60186767578125 183.21697998046875 151.14695739746094 191.57920837402344" stroke-width="0.0" fill="rgb(149, 74, 56)" opacity="0.8299243" stroke="rgb(83, 9, 133)" stroke-opacity="0.9510301" stroke-linecap="round" stroke-linejoin="round"/>
    <path d="M 148.13861083984375 276.87554931640625 C 176.6796417236328 267.7393798828125 156.7333984375 287.98187255859375 139.45506286621094 277.9557189941406 C 132.73141479492188 273.2721252441406 127.92391967773438 265.3501892089844 135.75071716308594 270.50006103515625 C 125.04949188232422 244.34710693359375 121.67361450195312 248.98622131347656 131.0899200439453 269.4259033203125 C 137.85621643066406 265.8342590332031 136.00546264648438 273.64190673828125 148.13861083984375 276.87554931640625" stroke-width="0.0" fill="rgb(70, 44, 55)" opacity="0.8695231" stroke="rgb(48, 46, 127)" stroke-opacity="0.30893323" stroke-linecap="round" stroke-linejoin="round"/>
    <path d="M 384.96466064453125 168.66432189941406 C 393.0740966796875 147.51939392089844 393.26702880859375 143.67596435546875 392.5323486328125 169.77334594726562 C 367.03277587890625 174.77264404296875 388.5340270996094 168.57650756835938 389.7705383300781 168.00254821777344 C 393.01861572265625 156.0789337158203 387.4611511230469 147.67774963378906 392.3807067871094 154.47006225585938 C 388.1865539550781 165.88137817382812 393.31640625 168.92921447753906 384.96466064453125 168.66432189941406" stroke-width="0.0" fill="rgb(147, 148, 146)" opacity="0.98424464" stroke="rgb(9, 106, 123)" stroke-opacity="0.6389376" stroke-linecap="round" stroke-linejoin="round"/>
    <path d="M 471.9915466308594 198.72059631347656 C 469.6447448730469 199.07159423828125 469.85418701171875 200.38258361816406 467.1712341308594 224.93414306640625 C 466.5655517578125 200.37376403808594 457.7314758300781 196.23475646972656 462.68402099609375 201.07835388183594 C 459.0447082519531 194.65895080566406 456.61083984375 190.04434204101562 458.0068054199219 192.86956787109375 C 469.08837890625 191.2709197998047 462.30084228515625 179.7020721435547 471.9915466308594 198.72059631347656" stroke-width="0.0" fill="rgb(183, 183, 183)" opacity="0.9442014" stroke="rgb(219, 63, 175)" stroke-opacity="0.60320765" stroke-linecap="round" stroke-linejoin="round"/>
    <path d="M 388.0379943847656 284.40936279296875 C 387.3321838378906 282.9128723144531 386.2648010253906 284.864990234375 388.4251708984375 285.8621520996094 C 396.447265625 284.1120300292969 395.77691650390625 283.5788269042969 391.1128234863281 282.4823913574219 C 394.142822265625 284.2213439941406 404.884521484375 284.1376037597656 390.8580017089844 285.90411376953125 C 366.99212646484375 275.17596435546875 376.1568603515625 287.5033874511719 388.0379943847656 284.40936279296875" stroke-width="0.0" fill="rgb(105, 109, 106)" opacity="0.9157592" stroke="rgb(0, 30, 41)" stroke-opacity="0.9400812" stroke-linecap="round" stroke-linejoin="round"/>
    <path d="M 384.7793273925781 138.35556030273438 C 396.36883544921875 141.78379821777344 394.4426574707031 139.06959533691406 393.26116943359375 132.631103515625 C 376.39044189453125 132.69815063476562 382.4640197753906 133.09800720214844 387.1568603515625 130.12127685546875 C 395.9953918457031 98.99638366699219 406.6852111816406 113.0163345336914 390.49456787109375 128.25570678710938 C 395.7438659667969 134.28350830078125 393.57666015625 138.34033203125 384.7793273925781 138.35556030273438" stroke-width="0.0" fill="rgb(76, 76, 75)" opacity="0.8659997" stroke="rgb(36, 178, 46)" stroke-opacity="0.14992355" stroke-linecap="round" stroke-linejoin="round"/>
    <path d="M 115.88836669921875 285.6133117675781 C 112.01716613769531 285.4815368652344 123.21286010742188 289.7964782714844 120.33222961425781 278.78765869140625 C 125.97454071044922 292.4818115234375 114.52234649658203 289.1972351074219 73.4189224243164 285.65020751953125 C 80.23209381103516 277.9591369628906 96.04462432861328 289.6011962890625 114.44168090820312 271.1720886230469 C 126.5407485961914 275.2362060546875 131.6457977294922 287.7121887207031 115.88836669921875 285.6133117675781" stroke-width="0.0" fill="rgb(210, 185, 152)" opacity="0.9332086" stroke="rgb(82, 190, 189)" stroke-opacity="0.5163411" stroke-linecap="round" stroke-linejoin="round"/>
    <path d="M 392.0456848144531 137.4698486328125 C 394.7972412109375 136.7346649169922 392.3979187011719 139.93223571777344 390.1661682128906 139.37704467773438 C 395.0600891113281 139.130615234375 390.0376892089844 142.21510314941406 383.3055725097656 137.6918182373047 C 395.4112243652344 138.675537109375 386.9037170410156 136.22535705566406 391.5643615722656 138.49664306640625 C 390.0673522949219 136.1277313232422 390.8798828125 143.14231872558594 392.0456848144531 137.4698486328125" stroke-width="0.0" fill="rgb(117, 116, 116)" opacity="0.7765657" stroke="rgb(48, 174, 115)" stroke-opacity="0.484182" stroke-linecap="round" stroke-linejoin="round"/>
    <path d="M 168.27310180664062 148.23141479492188 C 166.2915496826172 147.1969451904297 167.48046875 149.5629119873047 167.0144500732422 147.29086303710938 C 169.56503295898438 147.36721801757812 164.55404663085938 148.53370666503906 159.02322387695312 141.33091735839844 C 158.66098022460938 136.8233184814453 159.17774963378906 134.72239685058594 159.01414489746094 141.11993408203125 C 174.22647094726562 144.21240234375 167.72528076171875 142.1233673095703 168.27310180664062 148.23141479492188" stroke-width="0.0" fill="rgb(194, 228, 238)" opacity="0.69051874" stroke="rgb(14, 158, 21)" stroke-opacity="0.603296" stroke-linecap="round" stroke-linejoin="round"/>
    <path d="M 145.79367065429688 242.84848022460938 C 144.22869873046875 243.0059814453125 143.86656188964844 245.56138610839844 145.60726928710938 247.9412078857422 C 138.95956420898438 245.77749633789062 128.14825439453125 253.4825897216797 138.64744567871094 245.26763916015625 C 138.52178955078125 247.18650817871094 138.461181640625 244.6973114013672 137.8956298828125 246.7165985107422 C 137.89852905273438 245.04159545898438 140.04286193847656 244.34469604492188 145.79367065429688 242.84848022460938" stroke-width="0.0" fill="rgb(156, 83, 65)" opacity="0.89301085" stroke="rgb(149, 205, 200)" stroke-opacity="0.8087883" stroke-linecap="round" stroke-linejoin="round"/>
    <path d="M 417.43341064453125 282.7732849121094 C 408.65325927734375 283.3846130371094 399.81005859375 283.0795593261719 409.58319091796875 283.97784423828125 C 415.7176513671875 279.4290771484375 397.1600646972656 288.6233215332031 382.52880859375 284.2897644042969 C 400.03240966796875 283.75457763671875 408.51507568359375 283.3819274902344 402.6947021484375 283.3517761230469 C 396.8117370605469 283.5238037109375 400.26678466796875 284.23052978515625 417.43341064453125 282.7732849121094" stroke-width="0.0" fill="rgb(81, 80, 80)" opacity="0.88357127" stroke="rgb(88, 226, 31)" stroke-opacity="0.08669825" stroke-linecap="round" stroke-linejoin="round"/>
    <path d="M 406.1838684082031 284.3759765625 C 410.8509521484375 281.64178466796875 405.8780517578125 284.13543701171875 425.07171630859375 282.2257995605469 C 416.7515869140625 281.6905517578125 415.0354919433594 281.2947082519531 417.0505676269531 282.6585388183594 C 413.38751220703125 282.9200744628906 417.28179931640625 282.7502136230469 420.58673095703125 283.27789306640625 C 407.1675109863281 285.05389404296875 410.60650634765625 284.1827697753906 406.1838684082031 284.3759765625" stroke-width="0.0" fill="rgb(105, 104, 102)" opacity="0.8765358" stroke="rgb(108, 65, 85)" stroke-opacity="0.8997011" stroke-linecap="round" stroke-linejoin="round"/>
    <path d="M 340.15948486328125 140.38381958007812 C 334.52801513671875 143.51431274414062 380.9037170410156 162.8026885986328 347.92657470703125 146.02627563476562 C 332.6062927246094 143.88551330566406 331.83160400390625 140.59156799316406 335.2813415527344 139.10812377929688 C 362.9714050292969 138.05316162109375 387.4116516113281 158.18605041503906 369.1579284667969 145.6865692138672 C 345.6761474609375 134.13755798339844 320.4093322753906 138.5961456298828 340.15948486328125 140.38381958007812" stroke-width="0.0" fill="rgb(115, 116, 115)" opacity="0.79930335" stroke="rgb(147, 244, 13)" stroke-opacity="0.54862773" stroke-linecap="round" stroke-linejoin="round"/>
    <path d="M 279.49267578125 90.2750015258789 C 260.1820983886719 95.60050964355469 275.6093444824219 106.8436050415039 264.788330078125 100.6998062133789 C 258.8707275390625 96.09333038330078 256.4588623046875 91.18252563476562 260.7793884277344 97.18124389648438 C 257.8553771972656 91.6009521484375 255.33592224121094 94.3591079711914 271.1105651855469 90.13685607910156 C 274.7809753417969 89.00370788574219 283.9649658203125 83.8109130859375 279.49267578125 90.2750015258789" stroke-width="0.0" fill="rgb(201, 102, 70)" opacity="1.0" stroke="rgb(243, 201, 134)" stroke-opacity="0.5696627" stroke-linecap="round" stroke-linejoin="round"/>
    <path d="M 396.701904296875 285.3218994140625 C 389.8477478027344 285.7286376953125 389.15130615234375 284.5870056152344 392.1585388183594 282.7781982421875 C 401.7722473144531 282.5834045410156 398.2607727050781 282.8054504394531 392.084716796875 283.0726318359375 C 384.0206604003906 285.1950378417969 404.3591613769531 286.69989013671875 431.8738098144531 281.6730651855469 C 377.2002258300781 283.3620910644531 376.56494140625 287.7734680175781 396.701904296875 285.3218994140625" stroke-width="0.0" fill="rgb(80, 83, 80)" opacity="0.62505186" stroke="rgb(147, 25, 252)" stroke-opacity="0.9128271" stroke-linecap="round" stroke-linejoin="round"/>
    <path d="M 238.74462890625 155.5399932861328 C 248.8631591796875 151.9200897216797 245.83660888671875 163.55230712890625 243.65078735351562 152.08055114746094 C 248.83680725097656 151.05552673339844 250.60501098632812 158.0548095703125 235.4965362548828 160.48806762695312 C 242.18325805664062 157.0145721435547 248.26058959960938 156.44549560546875 247.1824188232422 152.79653930664062 C 237.26272583007812 145.89984130859375 224.29885864257812 168.7139129638672 238.74462890625 155.5399932861328" stroke-width="0.0" fill="rgb(37, 47, 24)" opacity="1.0" stroke="rgb(160, 36, 133)" stroke-opacity="0.8374874" stroke-linecap="round" stroke-linejoin="round"/>
    <path d="M 452.0741882324219 154.30857849121094 C 455.22991943359375 162.1701202392578 447.54180908203125 162.6334686279297 441.5074462890625 160.0159149169922 C 441.67828369140625 149.91043090820312 440.3026428222656 148.54827880859375 443.4307556152344 156.95774841308594 C 442.7130432128906 153.73765563964844 440.4758605957031 154.35498046875 442.4778137207031 145.76979064941406 C 437.45391845703125 152.98263549804688 446.284423828125 155.29226684570312 452.0741882324219 154.30857849121094" stroke-width="0.0" fill="rgb(99, 98, 98)" opacity="0.8477079" stroke="rgb(72, 229, 19)" stroke-opacity="0.52233356" stroke-linecap="round" stroke-linejoin="round"/>
    <path d="M 351.1974792480469 227.0449676513672 C 329.4842529296875 191.33522033691406 369.62762451171875 170.35069274902344 347.2967224121094 166.5009765625 C 359.3872375488281 171.48599243164062 356.0480651855469 177.79052734375 356.3558349609375 168.48287963867188 C 342.31011962890625 202.9854736328125 358.5855712890625 166.06503295898438 340.65350341796875 159.84112548828125 C 362.6328430175781 183.23898315429688 328.46099853515625 196.8550567626953 351.1974792480469 227.0449676513672" stroke-width="0.0" fill="rgb(54, 50, 51)" opacity="0.65573007" stroke="rgb(227, 54, 135)" stroke-opacity="0.09690992" stroke-linecap="round" stroke-linejoin="round"/>
    <path d="M 239.99136352539062 153.0182647705078 C 232.6514434814453 157.16307067871094 231.96946716308594 160.67672729492188 233.80398559570312 159.3483123779297 C 238.63723754882812 154.61090087890625 234.8480682373047 155.6870880126953 234.9367218017578 159.8797149658203 C 233.01739501953125 161.18612670898438 236.6649932861328 159.10760498046875 235.83694458007812 160.78819274902344 C 226.5952911376953 158.83465576171875 235.97348022460938 158.8974609375 239.99136352539062 153.0182647705078" stroke-width="0.0" fill="rgb(46, 59, 36)" opacity="0.9253499" stroke="rgb(109, 230, 231)" stroke-opacity="0.65851706" stroke-linecap="round" stroke-linejoin="round"/>
    <path d="M 325.08966064453125 31.306434631347656 C 339.0227966308594 40.663516998291016 327.98114013671875 52.42085266113281 330.58197021484375 54.13290023803711 C 334.167236328125 42.065425872802734 334.2080383300781 45.564788818359375 335.2669677734375 44.95041275024414 C 337.5103454589844 47.24992370605469 339.8306579589844 40.301204681396484 334.6322326660156 45.884071350097656 C 326.1094665527344 45.8052978515625 336.7669677734375 42.59565353393555 325.08966064453125 31.306434631347656" stroke-width="0.0" fill="rgb(13, 52, 31)" opacity="0.6543459" stroke="rgb(184, 43, 222)" stroke-opacity="0.32100216" stroke-linecap="round" stroke-linejoin="round"/>
    <path d="M 202.8805389404297 216.12318420410156 C 207.2000274658203 206.015380859375 201.09706115722656 218.4571533203125 202.09523010253906 229.46405029296875 C 204.2855224609375 195.006591796875 221.22764587402344 164.72422790527344 217.052490234375 169.43441772460938 C 198.0609130859375 211.19696044921875 205.02772521972656 220.91197204589844 203.37338256835938 212.21902465820312 C 205.50247192382812 210.47181701660156 205.90394592285156 211.62330627441406 202.8805389404297 216.12318420410156" stroke-width="0.0" fill="rgb(38, 48, 24)" opacity="0.91126984" stroke="rgb(159, 159, 174)" stroke-opacity="0.9406518" stroke-linecap="round" stroke-linejoin="round"/>
    <path d="M 393.16082763671875 135.36373901367188 C 397.10675048828125 135.5625762939453 393.3888244628906 155.88021850585938 391.9913330078125 160.31900024414062 C 392.52362060546875 139.26438903808594 395.32330322265625 154.41690063476562 385.0049133300781 144.1267547607422 C 397.526611328125 147.2316436767578 388.85418701171875 142.0603790283203 392.7573547363281 136.41558837890625 C 395.2655334472656 144.73582458496094 390.8314208984375 150.4481201171875 393.16082763671875 135.36373901367188" stroke-width="0.0" fill="rgb(87, 86, 85)" opacity="0.7097534" stroke="rgb(53, 62, 88)" stroke-opacity="0.69219404" stroke-linecap="round" stroke-linejoin="round"/>
    <path d="M 202.77565002441406 212.7523651123047 C 202.4032745361328 213.85951232910156 202.8638916015625 218.58645629882812 202.45462036132812 228.38331604003906 C 207.4042205810547 210.04661560058594 204.10325622558594 202.926513671875 207.5155029296875 194.00437927246094 C 197.43875122070312 222.2892303466797 206.7200469970703 221.128662109375 209.97613525390625 213.85665893554688 C 205.2139434814453 220.5922088623047 203.03550720214844 218.05906677246094 202.77565002441406 212.7523651123047" stroke-width="0.0" fill="rgb(44, 56, 35)" opacity="0.5667687" stroke="rgb(108, 182, 74)" stroke-opacity="0.9009991" stroke-linecap="round" stroke-linejoin="round"/>
    <path d="M 272.2828063964844 87.0251235961914 C 273.7764587402344 87.43384552001953 273.5938720703125 91.41612243652344 267.4109802246094 90.4147720336914 C 264.4430847167969 92.8752670288086 269.57550048828125 86.09550476074219 261.9642639160156 80.49439239501953 C 259.1894226074219 80.45187377929688 269.1746520996094 91.37442016601562 288.3478698730469 89.01542663574219 C 263.61328125 88.62857818603516 276.6223449707031 87.59078216552734 272.2828063964844 87.0251235961914" stroke-width="0.0" fill="rgb(213, 252, 255)" opacity="0.75616276" stroke="rgb(74, 51, 100)" stroke-opacity="0.3764633" stroke-linecap="round" stroke-linejoin="round"/>
    <path d="M 170.55941772460938 172.3496856689453 C 150.89630126953125 177.0199737548828 164.51467895507812 172.653564453125 158.2908477783203 186.00540161132812 C 155.50100708007812 174.6529998779297 156.96786499023438 178.76358032226562 144.99037170410156 184.6674346923828 C 156.9556427001953 175.05612182617188 160.8426971435547 176.0635986328125 155.66624450683594 176.2158660888672 C 180.61331176757812 175.81040954589844 173.8459930419922 164.38462829589844 170.55941772460938 172.3496856689453" stroke-width="0.0" fill="rgb(68, 44, 50)" opacity="1.0" stroke="rgb(171, 56, 122)" stroke-opacity="0.6238533" stroke-linecap="round" stroke-linejoin="round"/>
    <path d="M 333.7845153808594 52.42146301269531 C 331.8474426269531 45.2907600402832 330.6333923339844 43.13713836669922 346.6267395019531 44.18442153930664 C 364.9958190917969 47.303890228271484 350.15771484375 45.511260986328125 346.1653747558594 44.66761779785156 C 351.6278381347656 46.91966247558594 356.72174072265625 44.39656448364258 337.8061828613281 45.07944869995117 C 329.7005310058594 48.233482360839844 333.86395263671875 47.994422912597656 333.7845153808594 52.42146301269531" stroke-width="0.0" fill="rgb(42, 58, 35)" opacity="0.7392834" stroke="rgb(22, 30, 108)" stroke-opacity="0.633853" stroke-linecap="round" stroke-linejoin="round"/>
    <path d="M 394.36907958984375 144.20616149902344 C 393.770751953125 148.04193115234375 394.8985290527344 147.40188598632812 394.7554626464844 138.18341064453125 C 393.4660339355469 130.64291381835938 394.0942077636719 137.65072631835938 391.50213623046875 136.71063232421875 C 391.25238037109375 137.56556701660156 390.08892822265625 136.809814453125 389.3655090332031 132.90914916992188 C 394.6676940917969 128.1101837158203 394.14630126953125 136.24232482910156 394.36907958984375 144.20616149902344" stroke-width="0.0" fill="rgb(141, 141, 140)" opacity="0.8077214" stroke="rgb(126, 172, 137)" stroke-opacity="0.6109833" stroke-linecap="round" stroke-linejoin="round"/>
    <path d="M 433.6056213378906 280.233154296875 C 432.1284484863281 273.99591064453125 434.4675598144531 272.8887634277344 433.20361328125 276.46484375 C 433.039794921875 275.6954040527344 431.64569091796875 267.55145263671875 433.6644592285156 280.8703918457031 C 443.16851806640625 281.8309326171875 448.2704162597656 274.1850280761719 431.7337646484375 272.5249328613281 C 444.89178466796875 277.52032470703125 442.3333435058594 278.1908264160156 433.6056213378906 280.233154296875" stroke-width="0.0" fill="rgb(76, 80, 77)" opacity="0.90508133" stroke="rgb(162, 202, 196)" stroke-opacity="0.72921234" stroke-linecap="round" stroke-linejoin="round"/>
    <path d="M 197.5454559326172 161.0437774658203 C 181.8701934814453 157.2930145263672 191.84365844726562 162.5819854736328 230.61155700683594 158.0005645751953 C 209.16647338867188 158.34873962402344 211.81092834472656 157.34568786621094 198.15736389160156 159.40264892578125 C 205.0666046142578 161.38491821289062 207.85211181640625 160.7332000732422 192.9295654296875 161.12258911132812 C 154.22039794921875 183.52552795410156 171.1159210205078 174.13804626464844 197.5454559326172 161.0437774658203" stroke-width="0.0" fill="rgb(45, 56, 34)" opacity="0.93472177" stroke="rgb(75, 59, 17)" stroke-opacity="0.57418555" stroke-linecap="round" stroke-linejoin="round"/>
    <path d="M 282.8634948730469 82.95563507080078 C 275.28857421875 85.32649993896484 277.0076904296875 91.22623443603516 261.7937316894531 92.06158447265625 C 279.56903076171875 86.85746765136719 273.1158447265625 88.60755157470703 263.37591552734375 83.36492919921875 C 263.9993591308594 81.74920654296875 269.6193542480469 87.85862731933594 290.9268493652344 88.95140075683594 C 272.53173828125 81.8992691040039 272.1340026855469 90.9541015625 282.8634948730469 82.95563507080078" stroke-width="0.0" fill="rgb(54, 60, 40)" opacity="0.5647817" stroke="rgb(194, 148, 101)" stroke-opacity="0.2702937" stroke-linecap="round" stroke-linejoin="round"/>
    <path d="M 198.9661102294922 229.95706176757812 C 202.61785888671875 215.7135009765625 201.37246704101562 236.66400146484375 193.33941650390625 259.19879150390625 C 206.0995635986328 236.39132690429688 204.65728759765625 197.5283203125 204.43484497070312 202.9796905517578 C 201.38076782226562 233.18528747558594 198.12411499023438 223.32557678222656 209.06617736816406 229.64788818359375 C 199.92970275878906 226.7689971923828 200.96157836914062 222.00999450683594 198.9661102294922 229.95706176757812" stroke-width="0.0" fill="rgb(35, 44, 22)" opacity="0.67586154" stroke="rgb(85, 64, 29)" stroke-opacity="0.6204092" stroke-linecap="round" stroke-linejoin="round"/>
    <path d="M 295.3956298828125 100.50606536865234 C 268.0330810546875 104.62694549560547 272.824462890625 101.4330825805664 264.4800109863281 115.26032257080078 C 267.3529052734375 100.02497100830078 277.1658935546875 105.38563537597656 263.51409912109375 99.4153060913086 C 267.71368408203125 102.8594970703125 279.2671203613281 107.17681121826172 260.70098876953125 97.09030151367188 C 271.2109680175781 106.61963653564453 277.8614807128906 98.4360122680664 295.3956298828125 100.50606536865234" stroke-width="0.0" fill="rgb(27, 51, 30)" opacity="0.8751177" stroke="rgb(73, 40, 45)" stroke-opacity="0.9766626" stroke-linecap="round" stroke-linejoin="round"/>
    <path d="M 53.39038848876953 280.6535949707031 C 50.94599151611328 289.7781677246094 50.491580963134766 273.803466796875 56.79090118408203 275.00958251953125 C 45.4534797668457 287.7751770019531 71.02672576904297 276.4664611816406 53.96485137939453 280.2601623535156 C 52.21706771850586 287.37066650390625 52.18165588378906 282.610595703125 54.09770584106445 286.490478515625 C 60.60508346557617 286.0414123535156 57.00185012817383 293.5617370605469 53.39038848876953 280.6535949707031" stroke-width="0.0" fill="rgb(61, 41, 48)" opacity="0.87380886" stroke="rgb(158, 48, 17)" stroke-opacity="0.6649355" stroke-linecap="round" stroke-linejoin="round"/>
    <path d="M 330.6820983886719 47.29945373535156 C 327.35345458984375 38.939659118652344 329.0685119628906 43.14073181152344 330.8060607910156 47.5956916809082 C 324.2440185546875 78.33216094970703 321.9069519042969 70.69129943847656 326.7440185546875 69.53671264648438 C 331.469482421875 53.79006576538086 332.176025390625 48.74418640136719 332.8719482421875 46.56222152709961 C 329.7847900390625 42.42403793334961 331.7418212890625 45.512840270996094 330.6820983886719 47.29945373535156" stroke-width="0.0" fill="rgb(40, 55, 33)" opacity="0.9324459" stroke="rgb(216, 224, 40)" stroke-opacity="0.83483094" stroke-linecap="round" stroke-linejoin="round"/>
    <path d="M 165.4530487060547 270.77801513671875 C 162.60205078125 283.0487365722656 169.4781494140625 264.19091796875 151.85598754882812 263.5020446777344 C 155.29078674316406 264.4427490234375 145.70880126953125 261.6248474121094 145.12551879882812 262.76849365234375 C 149.729248046875 268.8934631347656 149.48345947265625 268.4457702636719 145.18360900878906 262.84515380859375 C 140.18275451660156 264.2591857910156 159.08419799804688 257.09912109375 165.4530487060547 270.77801513671875" stroke-width="0.0" fill="rgb(83, 54, 59)" opacity="0.8708909" stroke="rgb(187, 41, 85)" stroke-opacity="0.31874663" stroke-linecap="round" stroke-linejoin="round"/>
    <path d="M 376.3469543457031 100.08070373535156 C 381.274658203125 97.35186767578125 380.80926513671875 112.87320709228516 374.3889465332031 112.39808654785156 C 380.9589538574219 110.88127899169922 375.64056396484375 96.3347396850586 378.3936462402344 105.86114501953125 C 376.92889404296875 102.5606460571289 379.3913269042969 99.83164978027344 374.90081787109375 103.19290924072266 C 358.3137512207031 113.54685974121094 367.88128662109375 106.02008056640625 376.3469543457031 100.08070373535156" stroke-width="0.0" fill="rgb(49, 44, 46)" opacity="0.6535226" stroke="rgb(83, 165, 104)" stroke-opacity="0.6035245" stroke-linecap="round" stroke-linejoin="round"/>
    <path d="M 155.4540557861328 126.49517822265625 C 162.0292205810547 128.85438537597656 162.7944793701172 125.8671875 147.0911865234375 161.5803680419922 C 165.14138793945312 138.49191284179688 163.61000061035156 119.69820404052734 155.560791015625 127.80679321289062 C 137.50979614257812 136.9105987548828 131.66537475585938 137.73495483398438 157.112548828125 125.74663543701172 C 158.16043090820312 127.83879089355469 157.17063903808594 130.35528564453125 155.4540557861328 126.49517822265625" stroke-width="0.0" fill="rgb(69, 43, 49)" opacity="0.92397875" stroke="rgb(1, 15, 215)" stroke-opacity="0.90936863" stroke-linecap="round" stroke-linejoin="round"/>
    <path d="M 415.01617431640625 283.553955078125 C 417.289306640625 282.9185791015625 418.2825012207031 282.26458740234375 416.62762451171875 282.8166809082031 C 422.9920349121094 284.083740234375 411.4532165527344 281.10205078125 401.31024169921875 285.0805358886719 C 437.92059326171875 283.07354736328125 446.75177001953125 277.5898742675781 426.6241760253906 281.1789855957031 C 416.1544494628906 282.12921142578125 416.93365478515625 282.8852844238281 415.01617431640625 283.553955078125" stroke-width="0.0" fill="rgb(74, 76, 74)" opacity="0.7682891" stroke="rgb(213, 118, 8)" stroke-opacity="0.995716" stroke-linecap="round" stroke-linejoin="round"/>
    <path d="M 156.5623321533203 143.1565399169922 C 142.41600036621094 159.4669647216797 181.25148010253906 130.53115844726562 151.4737548828125 163.0543212890625 C 91.22468566894531 242.22193908691406 92.3832015991211 125.16231536865234 121.63231658935547 138.77696228027344 C 131.0527801513672 120.37837982177734 157.1050567626953 128.039306640625 136.56373596191406 136.43016052246094 C 153.19200134277344 130.23202514648438 166.33387756347656 117.49979400634766 156.5623321533203 143.1565399169922" stroke-width="0.0" fill="rgb(221, 197, 163)" opacity="0.9203023" stroke="rgb(116, 194, 221)" stroke-opacity="0.607667" stroke-linecap="round" stroke-linejoin="round"/>
    <path d="M 186.0192108154297 143.24346923828125 C 197.23611450195312 144.36004638671875 195.06561279296875 143.08566284179688 191.67779541015625 141.98753356933594 C 213.72982788085938 142.11044311523438 201.6927490234375 138.43052673339844 201.9149932861328 142.2462615966797 C 202.842529296875 140.1645050048828 205.1929931640625 143.20559692382812 201.49771118164062 143.05946350097656 C 191.65386962890625 143.0032196044922 191.2848358154297 142.89234924316406 186.0192108154297 143.24346923828125" stroke-width="0.0" fill="rgb(38, 50, 26)" opacity="0.8398391" stroke="rgb(85, 65, 61)" stroke-opacity="0.43039498" stroke-linecap="round" stroke-linejoin="round"/>
    <path d="M 335.1820373535156 68.84075927734375 C 331.11981201171875 70.76679229736328 331.5416259765625 66.54235076904297 325.3624572753906 68.45169830322266 C 340.0314636230469 71.2801742553711 334.46783447265625 69.16386413574219 343.75439453125 50.04875564575195 C 336.7479248046875 84.02727508544922 323.04376220703125 72.75067901611328 339.62249755859375 66.16104125976562 C 330.05059814453125 69.96646118164062 332.8655090332031 73.14517974853516 335.1820373535156 68.84075927734375" stroke-width="0.0" fill="rgb(6, 37, 12)" opacity="0.76279575" stroke="rgb(252, 216, 148)" stroke-opacity="0.6786204" stroke-linecap="round" stroke-linejoin="round"/>
    <path d="M 123.23605346679688 248.08375549316406 C 119.83100891113281 240.36679077148438 121.11701965332031 221.24749755859375 105.24039459228516 239.79051208496094 C 110.48632049560547 230.12911987304688 115.41626739501953 223.16726684570312 107.48528289794922 239.19970703125 C 112.19365692138672 230.51226806640625 120.42045593261719 223.03260803222656 89.21817779541016 216.9112548828125 C 108.27272033691406 216.82696533203125 124.42858123779297 229.57057189941406 123.23605346679688 248.08375549316406" stroke-width="0.0" fill="rgb(73, 51, 61)" opacity="0.92079973" stroke="rgb(83, 190, 14)" stroke-opacity="0.8367845" stroke-linecap="round" stroke-linejoin="round"/>
    <path d="M 389.7967834472656 155.0141143798828 C 391.07659912109375 148.8409423828125 390.0172424316406 151.551513671875 393.1578063964844 155.6824188232422 C 391.1016845703125 133.96275329589844 392.0694885253906 135.81661987304688 391.1883544921875 167.17076110839844 C 397.46710205078125 179.50221252441406 389.4025573730469 167.72616577148438 394.8140563964844 142.1198272705078 C 386.8393249511719 149.5850372314453 392.80267333984375 164.35533142089844 389.7967834472656 155.0141143798828" stroke-width="0.0" fill="rgb(85, 86, 85)" opacity="0.73504937" stroke="rgb(143, 154, 125)" stroke-opacity="0.8001568" stroke-linecap="round" stroke-linejoin="round"/>
    <path d="M 116.85688018798828 234.22434997558594 C 111.16203308105469 238.6966552734375 93.59429931640625 242.12261962890625 107.09766387939453 237.46424865722656 C 107.16220092773438 235.92234802246094 106.96109008789062 234.637451171875 107.23896026611328 237.472900390625 C 98.84234619140625 239.8486328125 111.08196258544922 238.63702392578125 110.1277084350586 224.09974670410156 C 106.95130157470703 222.11172485351562 121.25659942626953 231.87318420410156 116.85688018798828 234.22434997558594" stroke-width="0.0" fill="rgb(148, 91, 77)" opacity="0.9949162" stroke="rgb(238, 242, 184)" stroke-opacity="0.34093255" stroke-linecap="round" stroke-linejoin="round"/>
    <path d="M 306.0755920410156 195.6772003173828 C 305.1426696777344 194.61236572265625 307.04510498046875 197.06626892089844 310.4143981933594 198.81419372558594 C 310.6903381347656 201.84266662597656 312.6029357910156 193.9538116455078 308.5418701171875 195.1186065673828 C 317.09686279296875 211.94886779785156 312.0245056152344 205.18150329589844 310.1388854980469 201.99989318847656 C 309.5343322753906 196.28956604003906 311.45306396484375 200.66358947753906 306.0755920410156 195.6772003173828" stroke-width="0.0" fill="rgb(47, 60, 37)" opacity="0.933729" stroke="rgb(64, 136, 115)" stroke-opacity="0.563157" stroke-linecap="round" stroke-linejoin="round"/>
    <path d="M 447.1035461425781 266.5081481933594 C 437.19085693359375 263.9389953613281 457.2522277832031 272.7127380371094 471.14288330078125 248.44496154785156 C 480.9955749511719 221.7741241455078 476.5313415527344 248.88858032226562 463.5420227050781 260.57342529296875 C 451.1218566894531 269.7053527832031 453.23931884765625 264.123779296875 453.4813232421875 266.46392822265625 C 440.4346618652344 270.2889404296875 433.4210205078125 265.3395080566406 447.1035461425781 266.5081481933594" stroke-width="0.0" fill="rgb(62, 61, 61)" opacity="0.8050201" stroke="rgb(144, 178, 220)" stroke-opacity="0.58335125" stroke-linecap="round" stroke-linejoin="round"/>
    <path d="M 268.8093566894531 210.85833740234375 C 278.0188903808594 190.7318878173828 276.5503234863281 200.99655151367188 273.68115234375 204.02432250976562 C 271.4164733886719 209.38284301757812 272.0246276855469 201.735107421875 264.6304016113281 236.7957000732422 C 273.15228271484375 224.59483337402344 267.075439453125 208.9017791748047 268.4406433105469 225.7600860595703 C 272.85247802734375 237.4191131591797 262.5150451660156 232.20806884765625 268.8093566894531 210.85833740234375" stroke-width="0.0" fill="rgb(35, 50, 30)" opacity="0.6902542" stroke="rgb(92, 148, 144)" stroke-opacity="0.29915175" stroke-linecap="round" stroke-linejoin="round"/>
    <path d="M 158.41021728515625 274.5927429199219 C 164.9749298095703 278.17279052734375 153.11672973632812 278.06390380859375 161.6160430908203 279.7055358886719 C 150.77322387695312 278.02264404296875 137.2236328125 286.1832580566406 126.31938934326172 254.29566955566406 C 122.32909393310547 253.77059936523438 145.71803283691406 237.15036010742188 150.5416259765625 262.4797668457031 C 169.55665588378906 266.24871826171875 165.88302612304688 279.29559326171875 158.41021728515625 274.5927429199219" stroke-width="0.0" fill="rgb(217, 189, 152)" opacity="0.8021536" stroke="rgb(196, 92, 135)" stroke-opacity="0.68786865" stroke-linecap="round" stroke-linejoin="round"/>
    <path d="M 438.2884216308594 278.9235534667969 C 431.3238830566406 281.7156066894531 419.6595153808594 280.8165283203125 410.9787292480469 282.69775390625 C 413.50445556640625 283.06365966796875 401.9327087402344 282.509033203125 398.1046142578125 282.90460205078125 C 396.79376220703125 285.66168212890625 422.5751953125 281.03179931640625 416.7621765136719 283.151611328125 C 414.2802429199219 283.44647216796875 421.8504943847656 281.11553955078125 438.2884216308594 278.9235534667969" stroke-width="0.0" fill="rgb(112, 113, 110)" opacity="0.5704833" stroke="rgb(11, 50, 159)" stroke-opacity="0.41662672" stroke-linecap="round" stroke-linejoin="round"/>
    <path d="M 90.99691009521484 217.2766571044922 C 114.89820098876953 221.49887084960938 95.25322723388672 223.0211639404297 87.99664306640625 219.5374755859375 C 98.67499542236328 214.82675170898438 76.84162139892578 216.4210662841797 65.27972412109375 227.53465270996094 C 88.7807388305664 213.08035278320312 88.19882202148438 222.93980407714844 103.90989685058594 220.3612060546875 C 79.24729919433594 216.3519744873047 88.41717529296875 222.09849548339844 90.99691009521484 217.2766571044922" stroke-width="0.0" fill="rgb(105, 79, 77)" opacity="0.6208783" stroke="rgb(149, 215, 197)" stroke-opacity="0.8126367" stroke-linecap="round" stroke-linejoin="round"/>
    <path d="M 313.50848388671875 52.94322204589844 C 313.76690673828125 40.635311126708984 321.67279052734375 50.86771774291992 314.23565673828125 53.98842239379883 C 311.8161315917969 37.80268096923828 300.2753601074219 29.999834060668945 316.4718933105469 54.044864654541016 C 316.72039794921875 44.12031936645508 316.54132080078125 37.07662582397461 317.55072021484375 46.697906494140625 C 308.341552734375 48.763397216796875 311.9099426269531 42.593868255615234 313.50848388671875 52.94322204589844" stroke-width="0.0" fill="rgb(58, 68, 48)" opacity="0.75113565" stroke="rgb(251, 92, 48)" stroke-opacity="0.48906416" stroke-linecap="round" stroke-linejoin="round"/>
    <path d="M 360.18609619140625 253.54884338378906 C 366.7264709472656 231.5372314453125 354.5320739746094 208.8740997314453 361.1001281738281 227.7538299560547 C 360.8590087890625 231.11383056640625 360.9894714355469 227.96157836914062 361.26031494140625 228.9656219482422 C 359.9932861328125 228.941650390625 362.96490478515625 232.36866760253906 359.35272216796875 222.14356994628906 C 359.50445556640625 226.55433654785156 361.6078186035156 236.02687072753906 360.18609619140625 253.54884338378906" stroke-width="0.0" fill="rgb(78, 80, 78)" opacity="0.86409736" stroke="rgb(254, 130, 110)" stroke-opacity="0.1935997" stroke-linecap="round" stroke-linejoin="round"/>
    <path d="M 102.4302978515625 116.35392761230469 C 97.7086181640625 113.29772186279297 100.48014831542969 128.27500915527344 101.04425811767578 132.17404174804688 C 97.44001770019531 128.30690002441406 99.87861633300781 117.69570922851562 98.09601593017578 128.80355834960938 C 99.03431701660156 124.59976959228516 95.17597961425781 109.86465454101562 103.80254364013672 115.60164642333984 C 108.41826629638672 118.68513488769531 117.68978118896484 127.75020599365234 102.4302978515625 116.35392761230469" stroke-width="0.0" fill="rgb(75, 46, 54)" opacity="0.8757676" stroke="rgb(18, 2, 147)" stroke-opacity="0.434441" stroke-linecap="round" stroke-linejoin="round"/>
    <path d="M 317.5028381347656 38.36171340942383 C 309.6347351074219 51.0352897644043 324.71173095703125 73.19657897949219 319.3691101074219 74.09182739257812 C 312.0997314453125 45.986915588378906 309.427001953125 43.75996398925781 320.3029479980469 28.98592758178711 C 309.9363708496094 46.79496765136719 317.9581298828125 49.723567962646484 313.3049011230469 47.937808990478516 C 311.5981750488281 41.39931106567383 310.7204895019531 58.66026306152344 317.5028381347656 38.36171340942383" stroke-width="0.0" fill="rgb(9, 46, 26)" opacity="0.71061057" stroke="rgb(111, 122, 230)" stroke-opacity="0.4584852" stroke-linecap="round" stroke-linejoin="round"/>
    <path d="M 265.5174865722656 84.81721496582031 C 262.38720703125 85.18772888183594 270.5876159667969 74.9283218383789 295.027099609375 80.10279083251953 C 271.6636962890625 66.68631744384766 251.494140625 82.65401458740234 262.62896728515625 77.54096984863281 C 267.8629455566406 89.63204956054688 260.18994140625 76.75415802001953 289.4850769042969 78.65908813476562 C 252.15455627441406 75.20938873291016 254.03555297851562 80.41336822509766 265.5174865722656 84.81721496582031" stroke-width="0.0" fill="rgb(217, 122, 91)" opacity="1.0" stroke="rgb(75, 239, 153)" stroke-opacity="0.32570168" stroke-linecap="round" stroke-linejoin="round"/>
    <path d="M 426.0732421875 280.5173034667969 C 422.10833740234375 281.10516357421875 426.2952880859375 277.9441223144531 419.96759033203125 281.00018310546875 C 437.3338317871094 276.0426025390625 436.27264404296875 275.85736083984375 424.5785217285156 279.435302734375 C 420.9840393066406 284.7401123046875 441.6044006347656 282.4152526855469 443.3084716796875 276.2483825683594 C 423.3642578125 284.8939514160156 420.90924072265625 279.71484375 426.0732421875 280.5173034667969" stroke-width="0.0" fill="rgb(76, 77, 75)" opacity="0.50252306" stroke="rgb(167, 48, 42)" stroke-opacity="0.40228465" stroke-linecap="round" stroke-linejoin="round"/>
    <path d="M 304.11578369140625 83.1455078125 C 303.6261901855469 84.10675811767578 303.6925354003906 84.13641357421875 300.0083923339844 82.30644989013672 C 304.14166259765625 84.97803497314453 306.7523193359375 79.50543975830078 291.0867919921875 103.28569793701172 C 304.1685485839844 88.41785430908203 312.1405334472656 81.41264343261719 328.1736145019531 66.62303161621094 C 300.9434509277344 85.71431732177734 291.2054443359375 104.94953155517578 304.11578369140625 83.1455078125" stroke-width="0.0" fill="rgb(18, 46, 22)" opacity="0.89733374" stroke="rgb(151, 16, 62)" stroke-opacity="0.18299142" stroke-linecap="round" stroke-linejoin="round"/>
    <path d="M 268.72113037109375 102.3210220336914 C 270.1351013183594 104.6093978881836 267.1590576171875 116.04878997802734 263.8954162597656 116.27314758300781 C 271.9753723144531 104.22047424316406 267.692626953125 103.44914245605469 269.5898132324219 108.40536499023438 C 269.59588623046875 111.21066284179688 271.0173645019531 108.8829574584961 268.2608337402344 105.45674133300781 C 275.35748291015625 100.93868255615234 264.86358642578125 103.68312072753906 268.72113037109375 102.3210220336914" stroke-width="0.0" fill="rgb(184, 176, 162)" opacity="0.9248562" stroke="rgb(98, 52, 163)" stroke-opacity="0.3599906" stroke-linecap="round" stroke-linejoin="round"/>
    <path d="M 300.56787109375 92.71932983398438 C 296.0077819824219 95.89107513427734 280.8579406738281 81.46549987792969 267.71429443359375 91.26332092285156 C 283.7251281738281 85.1498794555664 272.85662841796875 92.64164733886719 257.19757080078125 80.3287582397461 C 277.1289367675781 89.4040756225586 281.94268798828125 87.06360626220703 280.41058349609375 86.68256378173828 C 261.15411376953125 84.54979705810547 284.49658203125 84.95208740234375 300.56787109375 92.71932983398438" stroke-width="0.0" fill="rgb(21, 47, 25)" opacity="0.7987661" stroke="rgb(34, 193, 135)" stroke-opacity="0.87877685" stroke-linecap="round" stroke-linejoin="round"/>
    <path d="M 397.39642333984375 110.86744689941406 C 399.5619812011719 111.5906753540039 391.3070983886719 115.89205932617188 397.4360656738281 113.99919128417969 C 377.8963928222656 118.70217895507812 380.5545959472656 141.2343292236328 393.27593994140625 122.95867919921875 C 397.14697265625 118.52278137207031 394.5124206542969 118.51251983642578 395.5892333984375 119.71431732177734 C 400.1871643066406 108.96863555908203 398.2796936035156 109.16646575927734 397.39642333984375 110.86744689941406" stroke-width="0.0" fill="rgb(224, 202, 221)" opacity="1.0" stroke="rgb(100, 104, 91)" stroke-opacity="0.32562545" stroke-linecap="round" stroke-linejoin="round"/>
    <path d="M 263.8308410644531 117.50667572021484 C 266.2723083496094 105.84268951416016 264.7451171875 120.36310577392578 265.3380432128906 111.4725112915039 C 270.891357421875 101.55097961425781 269.9582824707031 101.06867218017578 263.222412109375 123.18479919433594 C 264.8584289550781 116.11827850341797 310.0570068359375 102.1225814819336 285.19061279296875 113.44385528564453 C 258.4812927246094 120.51060485839844 265.7235107421875 129.41937255859375 263.8308410644531 117.50667572021484" stroke-width="0.0" fill="rgb(39, 43, 18)" opacity="0.84342456" stroke="rgb(169, 56, 73)" stroke-opacity="0.30726653" stroke-linecap="round" stroke-linejoin="round"/>
    <path d="M 388.8009338378906 120.02533721923828 C 396.9560241699219 109.95648956298828 386.6661376953125 122.36911010742188 382.5158996582031 121.47488403320312 C 391.4832763671875 120.39000701904297 387.36297607421875 119.67823791503906 396.897216796875 111.20584869384766 C 371.886474609375 120.82968139648438 376.5704650878906 117.39913940429688 395.06072998046875 110.21533966064453 C 402.2698669433594 104.68451690673828 400.85821533203125 111.668701171875 388.8009338378906 120.02533721923828" stroke-width="0.0" fill="rgb(63, 63, 61)" opacity="0.8234524" stroke="rgb(170, 40, 205)" stroke-opacity="0.62345934" stroke-linecap="round" stroke-linejoin="round"/>
    <path d="M 99.79785919189453 131.16209411621094 C 101.58353424072266 136.0899658203125 101.70622253417969 129.01144409179688 112.47382354736328 123.37434387207031 C 107.7689208984375 120.28569030761719 99.05265808105469 112.90103912353516 99.8638916015625 117.03536224365234 C 97.33776092529297 136.70230102539062 97.56100463867188 124.26193237304688 99.89910125732422 119.38565826416016 C 98.81279754638672 129.7003173828125 102.58502960205078 135.39894104003906 99.79785919189453 131.16209411621094" stroke-width="0.0" fill="rgb(241, 196, 145)" opacity="0.5724404" stroke="rgb(36, 0, 78)" stroke-opacity="0.9399238" stroke-linecap="round" stroke-linejoin="round"/>
    <path d="M 170.64060974121094 147.9063262939453 C 167.53089904785156 151.75392150878906 166.35894775390625 144.35118103027344 158.10511779785156 142.56182861328125 C 167.123291015625 149.9666290283203 148.45651245117188 150.77578735351562 161.36346435546875 137.88067626953125 C 158.14117431640625 139.14154052734375 161.99554443359375 133.8744659423828 165.84059143066406 135.4137420654297 C 164.665283203125 137.3151397705078 172.8425750732422 133.964111328125 170.64060974121094 147.9063262939453" stroke-width="0.0" fill="rgb(222, 238, 232)" opacity="0.3171309" stroke="rgb(21, 232, 53)" stroke-opacity="0.25820422" stroke-linecap="round" stroke-linejoin="round"/>
    <path d="M 172.92433166503906 195.9182586669922 C 164.53060913085938 192.0353546142578 169.12452697753906 193.6249542236328 163.42881774902344 196.5426788330078 C 147.47116088867188 203.1543731689453 148.34201049804688 212.4046630859375 145.3427734375 192.52606201171875 C 161.3203582763672 191.48226928710938 140.19503784179688 180.77149963378906 167.43795776367188 174.18321228027344 C 189.3762664794922 172.2061309814453 188.23269653320312 179.910400390625 172.92433166503906 195.9182586669922" stroke-width="0.0" fill="rgb(202, 166, 131)" opacity="0.7520392" stroke="rgb(115, 163, 146)" stroke-opacity="0.1589001" stroke-linecap="round" stroke-linejoin="round"/>
  </g>
</svg>
