<?xml version="1.0" ?>
<svg xmlns="http://www.w3.org/2000/svg" version="1.1" width="508" height="512">
  <defs/>
  <g>
    <path d="M 392.9125061035156 7.9284491539001465 C 180.11141967773438 77.07671356201172 298.606689453125 13.215753555297852 237.35621643066406 179.14723205566406 C 56.78288269042969 294.9269714355469 217.04693603515625 262.818115234375 5.631265163421631 169.26023864746094 C 5.324578285217285 -60.864158630371094 5.760802268981934 27.29705047607422 5.425421714782715 7.929086208343506 C 166.15872192382812 7.922590732574463 178.8041534423828 7.939724445343018 392.9125061035156 7.9284491539001465" stroke-width="0.0" fill="rgb(32, 98, 111)" opacity="0.46175414" stroke="rgb(67, 120, 236)" stroke-opacity="0.18485513" stroke-linecap="round" stroke-linejoin="round"/>
    <path d="M 500.39886474609375 168.0724639892578 C 504.84478759765625 346.93890380859375 552.757080078125 348.8789367675781 91.60124206542969 333.77435302734375 C 151.4602508544922 29.682065963745117 320.79327392578125 121.72008514404297 306.80523681640625 67.72420501708984 C 310.23809814453125 33.069114685058594 249.02572631835938 46.87942123413086 299.0433654785156 38.41885757446289 C 338.0009460449219 154.1341552734375 452.24945068359375 16.818994522094727 500.39886474609375 168.0724639892578" stroke-width="0.0" fill="rgb(92, 118, 125)" opacity="0.5292278" stroke="rgb(115, 233, 49)" stroke-opacity="0.20424166" stroke-linecap="round" stroke-linejoin="round"/>
    <path d="M 502.2535095214844 164.98782348632812 C 362.9474182128906 32.51626205444336 409.8489074707031 53.027706146240234 358.86920166015625 85.63755798339844 C 334.2942199707031 106.01278686523438 317.7247009277344 67.14514923095703 265.2664489746094 9.717070579528809 C 299.7509460449219 6.812999725341797 305.2945861816406 8.54448413848877 502.35418701171875 7.910199165344238 C 502.2248840332031 14.38336181640625 502.39111328125 -32.49673843383789 502.2535095214844 164.98782348632812" stroke-width="0.0" fill="rgb(129, 166, 169)" opacity="0.8904732" stroke="rgb(40, 207, 78)" stroke-opacity="0.51973474" stroke-linecap="round" stroke-linejoin="round"/>
    <path d="M 371.017822265625 276.22900390625 C 301.47344970703125 280.7549743652344 318.10076904296875 286.62713623046875 369.8326721191406 283.219970703125 C 237.58871459960938 348.911865234375 338.1523742675781 304.7593994140625 305.1585998535156 276.57525634765625 C 269.1512451171875 119.57167053222656 331.8490905761719 317.903076171875 310.50225830078125 222.24855041503906 C 356.71929931640625 230.43846130371094 294.93023681640625 263.9894714355469 371.017822265625 276.22900390625" stroke-width="0.0" fill="rgb(255, 248, 230)" opacity="0.88187844" stroke="rgb(227, 81, 56)" stroke-opacity="0.9346501" stroke-linecap="round" stroke-linejoin="round"/>
    <path d="M 376.59423828125 249.7130126953125 C 340.6941223144531 209.77313232421875 367.0697326660156 244.95054626464844 344.9136962890625 248.0863494873047 C 329.6973571777344 272.8255920410156 347.6102294921875 216.24769592285156 328.3288879394531 234.997314453125 C 234.5933380126953 229.8753662109375 233.68527221679688 230.26902770996094 334.2664489746094 200.88609313964844 C 375.3388977050781 230.3497314453125 379.39666748046875 182.59124755859375 376.59423828125 249.7130126953125" stroke-width="0.0" fill="rgb(255, 248, 231)" opacity="0.9327781" stroke="rgb(225, 186, 61)" stroke-opacity="0.9791398" stroke-linecap="round" stroke-linejoin="round"/>
    <path d="M 168.7396240234375 293.9825134277344 C 74.75300598144531 284.270751953125 187.55979919433594 291.9837951660156 159.51681518554688 267.6394348144531 C 97.8926773071289 247.76116943359375 174.7234344482422 329.6488342285156 91.53760528564453 294.3109130859375 C 139.92691040039062 234.59475708007812 97.33661651611328 259.0011291503906 189.26724243164062 249.6809539794922 C 157.26617431640625 254.55078125 173.49903869628906 238.45098876953125 168.7396240234375 293.9825134277344" stroke-width="0.0" fill="rgb(255, 248, 231)" opacity="0.95485115" stroke="rgb(59, 48, 99)" stroke-opacity="0.08912784" stroke-linecap="round" stroke-linejoin="round"/>
    <path d="M 374.2606201171875 369.3586120605469 C 366.24810791015625 369.3909606933594 351.1932067871094 369.38623046875 303.5775146484375 369.4307861328125 C 294.00421142578125 399.5405578613281 331.0466003417969 303.0433044433594 289.0805358886719 237.0564727783203 C 301.12493896484375 386.87591552734375 257.0132141113281 344.38641357421875 364.5445556640625 351.0239562988281 C 363.22021484375 270.3746032714844 374.60455322265625 229.1953887939453 374.2606201171875 369.3586120605469" stroke-width="0.0" fill="rgb(54, 61, 81)" opacity="1.0" stroke="rgb(66, 126, 60)" stroke-opacity="0.07902328" stroke-linecap="round" stroke-linejoin="round"/>
    <path d="M 115.99018096923828 294.5521545410156 C 54.098636627197266 308.5692443847656 27.747417449951172 298.951171875 36.4036865234375 307.6828918457031 C -4.048046588897705 310.9013366699219 7.521918296813965 327.3302307128906 5.31239128112793 253.5145721435547 C 4.399240016937256 260.975830078125 0.6482758522033691 257.56097412109375 75.83132934570312 258.2454528808594 C 76.93903350830078 258.5965576171875 67.48124694824219 252.86048889160156 115.99018096923828 294.5521545410156" stroke-width="0.0" fill="rgb(206, 100, 50)" opacity="0.33663744" stroke="rgb(92, 59, 212)" stroke-opacity="0.50154555" stroke-linecap="round" stroke-linejoin="round"/>
    <path d="M 127.73956298828125 157.80372619628906 C 124.62044525146484 292.7001037597656 137.38687133789062 265.80438232421875 100.85929107666016 243.54600524902344 C 49.762290954589844 221.2986602783203 43.08713912963867 216.82635498046875 33.390869140625 202.26971435546875 C 6.340543746948242 160.1154022216797 -21.710132598876953 161.86497497558594 60.97306823730469 164.16473388671875 C 120.30599212646484 160.29000854492188 122.66136169433594 162.8230438232422 127.73956298828125 157.80372619628906" stroke-width="0.0" fill="rgb(248, 244, 229)" opacity="1.0" stroke="rgb(41, 34, 15)" stroke-opacity="0.6276863" stroke-linecap="round" stroke-linejoin="round"/>
    <path d="M 250.65040588378906 352.0255432128906 C 235.5025177001953 430.4109802246094 281.3036193847656 471.1911315917969 245.8138427734375 411.9762878417969 C 180.64613342285156 428.0824279785156 172.70877075195312 423.5118103027344 4.7181901931762695 424.451904296875 C 47.63566589355469 301.4701232910156 80.80416870117188 419.19500732421875 200.7695770263672 398.7377624511719 C 169.04002380371094 250.5680389404297 322.7532043457031 350.4735107421875 250.65040588378906 352.0255432128906" stroke-width="0.0" fill="rgb(88, 123, 128)" opacity="0.50476336" stroke="rgb(151, 227, 226)" stroke-opacity="0.9581098" stroke-linecap="round" stroke-linejoin="round"/>
    <path d="M 98.38819885253906 278.49444580078125 C 58.306060791015625 250.10528564453125 47.3161506652832 204.18792724609375 26.452037811279297 249.6124267578125 C 3.395045518875122 255.595458984375 5.4972758293151855 282.088134765625 5.511850833892822 213.61231994628906 C 5.995092391967773 139.6533203125 2.292362689971924 184.57473754882812 19.66157341003418 173.78863525390625 C 109.36383819580078 174.0085906982422 97.66285705566406 147.0207061767578 98.38819885253906 278.49444580078125" stroke-width="0.0" fill="rgb(198, 59, 0)" opacity="0.29618543" stroke="rgb(251, 142, 112)" stroke-opacity="0.8719731" stroke-linecap="round" stroke-linejoin="round"/>
    <path d="M 24.11859893798828 307.89971923828125 C 39.191837310791016 312.2694396972656 34.66592025756836 294.72113037109375 35.5476188659668 342.47894287109375 C -5.152013778686523 340.0135803222656 7.966518878936768 352.8727722167969 5.236504554748535 308.5090637207031 C 39.05585479736328 312.3860168457031 16.38656234741211 273.5075988769531 19.601547241210938 277.87017822265625 C 22.929168701171875 291.94525146484375 24.203271865844727 280.9538269042969 24.11859893798828 307.89971923828125" stroke-width="0.0" fill="rgb(0, 96, 141)" opacity="0.6002971" stroke="rgb(1, 151, 248)" stroke-opacity="0.16250825" stroke-linecap="round" stroke-linejoin="round"/>
    <path d="M 502.9419250488281 504.699951171875 C 388.2789001464844 502.8566589355469 432.5231018066406 505.88726806640625 119.99984741210938 504.8487243652344 C 89.42063903808594 502.4332275390625 66.2666015625 523.3307495117188 79.6291732788086 419.5094299316406 C 201.31243896484375 454.2838439941406 213.3939666748047 381.82244873046875 292.4989318847656 388.3725280761719 C 543.4510498046875 352.46221923828125 497.1248779296875 221.11183166503906 502.9419250488281 504.699951171875" stroke-width="0.0" fill="rgb(131, 157, 160)" opacity="0.72753346" stroke="rgb(32, 195, 144)" stroke-opacity="0.993289" stroke-linecap="round" stroke-linejoin="round"/>
    <path d="M 138.09539794921875 165.428955078125 C 32.803585052490234 209.3361053466797 34.69414138793945 216.00344848632812 11.259024620056152 241.39744567871094 C 3.104584217071533 235.43585205078125 8.708970069885254 238.60205078125 5.890383243560791 167.93479919433594 C 9.023112297058105 161.927734375 -12.108222007751465 163.387451171875 86.66083526611328 162.98207092285156 C 118.4760513305664 160.02369689941406 65.60847473144531 168.78689575195312 138.09539794921875 165.428955078125" stroke-width="0.0" fill="rgb(212, 183, 164)" opacity="0.8023048" stroke="rgb(131, 64, 184)" stroke-opacity="0.11268463" stroke-linecap="round" stroke-linejoin="round"/>
    <path d="M 144.1444091796875 385.18267822265625 C 69.71832275390625 436.88116455078125 90.72870635986328 389.0380554199219 86.79784393310547 303.2827453613281 C 26.08371353149414 302.2518005371094 73.66880798339844 310.5998840332031 50.19979476928711 265.65655517578125 C 24.522192001342773 271.210693359375 24.5240478515625 273.6718444824219 46.847450256347656 256.3512268066406 C 19.530071258544922 272.9065246582031 164.09521484375 262.2431640625 144.1444091796875 385.18267822265625" stroke-width="0.0" fill="rgb(82, 155, 184)" opacity="0.7354161" stroke="rgb(172, 178, 102)" stroke-opacity="0.085812464" stroke-linecap="round" stroke-linejoin="round"/>
    <path d="M 502.8922119140625 431.24078369140625 C 465.0976867675781 431.4367370605469 452.84375 431.17266845703125 427.8812255859375 431.48907470703125 C 405.1973876953125 430.8199462890625 401.0711975097656 431.905517578125 233.0373992919922 431.0575866699219 C 246.16244506835938 414.9320373535156 209.6715850830078 421.0269470214844 383.2809753417969 419.20184326171875 C 531.0573120117188 421.266357421875 497.6628723144531 413.9388427734375 502.8922119140625 431.24078369140625" stroke-width="0.0" fill="rgb(23, 20, 42)" opacity="0.8715184" stroke="rgb(178, 101, 231)" stroke-opacity="0.2893465" stroke-linecap="round" stroke-linejoin="round"/>
    <path d="M 152.22691345214844 135.82232666015625 C 154.4326171875 233.1012420654297 154.3874053955078 241.2608184814453 153.88787841796875 251.94728088378906 C 116.89292907714844 250.48455810546875 131.89585876464844 253.55267333984375 127.35550689697266 251.42416381835938 C 129.06045532226562 191.1560516357422 125.65164947509766 112.41143798828125 128.8097686767578 50.938751220703125 C 151.57864379882812 123.00101470947266 158.36859130859375 215.3623809814453 152.22691345214844 135.82232666015625" stroke-width="0.0" fill="rgb(4, 0, 28)" opacity="0.61882293" stroke="rgb(220, 112, 1)" stroke-opacity="0.3278554" stroke-linecap="round" stroke-linejoin="round"/>
    <path d="M 119.51235961914062 420.5730285644531 C 52.256080627441406 419.05950927734375 120.29261016845703 423.16534423828125 62.43136978149414 423.3876953125 C 69.25194549560547 419.05535888671875 38.23716354370117 382.7833251953125 35.63071823120117 457.20928955078125 C -10.205751419067383 378.50732421875 -19.32318115234375 407.12158203125 106.90538787841797 400.06951904296875 C 125.41898345947266 405.5049133300781 131.43748474121094 378.0569763183594 119.51235961914062 420.5730285644531" stroke-width="0.0" fill="rgb(43, 43, 61)" opacity="0.99977905" stroke="rgb(1, 218, 39)" stroke-opacity="0.3746213" stroke-linecap="round" stroke-linejoin="round"/>
    <path d="M 289.7169189453125 254.5301971435547 C 290.0157165527344 299.8940124511719 283.9178161621094 289.1776428222656 285.4017639160156 268.7635498046875 C 264.7392272949219 260.85089111328125 265.5836486816406 267.8408508300781 264.3289794921875 257.08978271484375 C 265.27484130859375 202.26727294921875 259.4735412597656 202.64486694335938 293.1324462890625 210.20042419433594 C 269.82867431640625 225.80145263671875 279.7152099609375 284.62249755859375 289.7169189453125 254.5301971435547" stroke-width="0.0" fill="rgb(253, 255, 242)" opacity="0.9838439" stroke="rgb(93, 102, 171)" stroke-opacity="0.032208826" stroke-linecap="round" stroke-linejoin="round"/>
    <path d="M 404.62664794921875 432.4525451660156 C 402.87359619140625 441.5614929199219 415.8727722167969 438.9820556640625 354.5299377441406 439.87689208984375 C 311.6919250488281 438.9955749511719 319.2927551269531 443.05780029296875 317.0525817871094 432.00799560546875 C 328.8871765136719 430.94708251953125 352.3291931152344 432.9251708984375 337.1108703613281 431.2179260253906 C 352.5548400878906 432.5531005859375 377.15802001953125 431.0710144042969 404.62664794921875 432.4525451660156" stroke-width="0.0" fill="rgb(255, 244, 226)" opacity="0.9551966" stroke="rgb(63, 120, 87)" stroke-opacity="0.47868872" stroke-linecap="round" stroke-linejoin="round"/>
    <path d="M 458.42041015625 220.26351928710938 C 521.384521484375 262.6824951171875 515.6104736328125 328.2868347167969 370.65728759765625 288.9394836425781 C 376.1260070800781 284.9305114746094 388.0073547363281 221.28494262695312 359.2198181152344 128.93319702148438 C 406.6641845703125 142.68124389648438 392.0113525390625 179.250244140625 395.08392333984375 213.1983642578125 C 483.0485534667969 218.59640502929688 450.6184997558594 204.66064453125 458.42041015625 220.26351928710938" stroke-width="0.0" fill="rgb(49, 55, 74)" opacity="0.99175495" stroke="rgb(150, 10, 177)" stroke-opacity="0.2360537" stroke-linecap="round" stroke-linejoin="round"/>
    <path d="M 280.2184753417969 152.9937744140625 C 280.8005065917969 286.48486328125 278.47802734375 245.76675415039062 151.8718719482422 252.53878784179688 C 155.2179412841797 255.39987182617188 151.7917938232422 246.41331481933594 154.21868896484375 161.5438690185547 C 164.54283142089844 178.06858825683594 130.9996337890625 142.43984985351562 249.1942901611328 155.1669464111328 C 233.43527221679688 153.77212524414062 245.79672241210938 177.51004028320312 280.2184753417969 152.9937744140625" stroke-width="0.0" fill="rgb(255, 212, 183)" opacity="0.6180327" stroke="rgb(54, 212, 35)" stroke-opacity="0.65173703" stroke-linecap="round" stroke-linejoin="round"/>
    <path d="M 458.80792236328125 283.30206298828125 C 445.7751159667969 267.5121154785156 490.34869384765625 315.83135986328125 427.5677185058594 293.7047119140625 C 438.2823486328125 308.61871337890625 439.9087219238281 304.0093994140625 372.2891845703125 306.0150451660156 C 469.4864196777344 256.19757080078125 450.5171813964844 270.64715576171875 588.3519897460938 255.1980438232422 C 445.7304382324219 139.45611572265625 455.0257568359375 190.14840698242188 458.80792236328125 283.30206298828125" stroke-width="0.0" fill="rgb(249, 216, 194)" opacity="0.8592402" stroke="rgb(63, 96, 150)" stroke-opacity="0.023848712" stroke-linecap="round" stroke-linejoin="round"/>
    <path d="M 307.97442626953125 383.3975830078125 C 308.9962463378906 430.3058776855469 305.4062805175781 385.40057373046875 301.1560974121094 412.95947265625 C 479.1153869628906 408.5928955078125 519.2779541015625 423.0442199707031 294.9515075683594 418.7820129394531 C 297.1111755371094 406.23834228515625 295.2224426269531 380.20623779296875 296.3428955078125 381.86236572265625 C 357.5330505371094 383.44732666015625 347.8598937988281 384.0694885253906 307.97442626953125 383.3975830078125" stroke-width="0.0" fill="rgb(247, 208, 190)" opacity="1.0" stroke="rgb(105, 40, 21)" stroke-opacity="0.72319067" stroke-linecap="round" stroke-linejoin="round"/>
    <path d="M 186.49539184570312 408.9931945800781 C 224.95751953125 424.2579345703125 268.7814636230469 419.7955322265625 155.70773315429688 420.58587646484375 C 100.00480651855469 418.6349182128906 119.17707824707031 429.8263244628906 116.10771942138672 383.6065979003906 C 134.9379119873047 375.7535400390625 118.9244384765625 403.5993957519531 128.17398071289062 400.3660888671875 C 200.69114685058594 405.3744812011719 147.76210021972656 388.4425354003906 186.49539184570312 408.9931945800781" stroke-width="0.0" fill="rgb(37, 38, 58)" opacity="0.9688779" stroke="rgb(199, 17, 34)" stroke-opacity="0.058350466" stroke-linecap="round" stroke-linejoin="round"/>
    <path d="M 284.0608825683594 265.16949462890625 C 275.283935546875 279.3353271484375 286.84454345703125 269.7903137207031 291.7340087890625 286.56390380859375 C 246.71261596679688 290.4551696777344 283.9010009765625 278.78466796875 258.671142578125 282.33026123046875 C 259.01397705078125 249.65467834472656 261.8468322753906 249.04913330078125 260.4565734863281 250.462646484375 C 290.6079406738281 261.3423156738281 294.7786865234375 247.48291015625 284.0608825683594 265.16949462890625" stroke-width="0.0" fill="rgb(254, 243, 223)" opacity="0.963136" stroke="rgb(28, 151, 205)" stroke-opacity="0.20668499" stroke-linecap="round" stroke-linejoin="round"/>
    <path d="M 147.7111358642578 497.0453796386719 C 90.9116439819336 507.3047180175781 89.75636291503906 504.6999206542969 84.18637084960938 504.94561767578125 C 6.038384437561035 504.5700988769531 4.544447422027588 505.77398681640625 5.321797847747803 503.5347900390625 C 6.656142234802246 417.9180603027344 1.410536766052246 392.27813720703125 22.314456939697266 423.63104248046875 C 63.738731384277344 421.50238037109375 111.51854705810547 426.0097961425781 147.7111358642578 497.0453796386719" stroke-width="0.0" fill="rgb(154, 182, 184)" opacity="1.0" stroke="rgb(126, 74, 150)" stroke-opacity="0.4311886" stroke-linecap="round" stroke-linejoin="round"/>
    <path d="M 248.2212371826172 412.7572021484375 C 216.1959686279297 409.76348876953125 262.97711181640625 429.9126281738281 201.058837890625 415.50201416015625 C 178.7154541015625 406.5792541503906 175.1573028564453 420.07562255859375 172.84417724609375 400.8926086425781 C 170.10052490234375 401.2649841308594 170.20469665527344 401.3538818359375 240.53622436523438 400.6517333984375 C 238.9447784423828 258.865478515625 253.5514678955078 343.9976501464844 248.2212371826172 412.7572021484375" stroke-width="0.0" fill="rgb(38, 35, 54)" opacity="0.9078851" stroke="rgb(64, 99, 80)" stroke-opacity="0.8672947" stroke-linecap="round" stroke-linejoin="round"/>
    <path d="M 372.6452331542969 397.99700927734375 C 371.8019714355469 417.5208740234375 377.8434143066406 410.18463134765625 356.5313720703125 411.76397705078125 C 356.62530517578125 411.8106384277344 355.96636962890625 420.3111572265625 356.34771728515625 390.025146484375 C 356.11187744140625 388.4989013671875 358.0019836425781 379.66790771484375 365.76025390625 380.0837097167969 C 373.0700988769531 382.35107421875 372.6391296386719 387.7972106933594 372.6452331542969 397.99700927734375" stroke-width="0.0" fill="rgb(31, 26, 47)" opacity="0.8792779" stroke="rgb(249, 44, 209)" stroke-opacity="0.74371547" stroke-linecap="round" stroke-linejoin="round"/>
    <path d="M 114.2259292602539 292.56988525390625 C 120.01387023925781 308.0179138183594 117.6943359375 302.2669982910156 110.48291778564453 303.5234680175781 C 80.2747573852539 302.3750305175781 92.4300765991211 308.5516662597656 88.53695678710938 287.6405334472656 C 88.73971557617188 275.5307922363281 80.62318420410156 274.7296142578125 89.41594696044922 276.1162109375 C 101.99717712402344 277.5997314453125 108.20720672607422 283.1753845214844 114.2259292602539 292.56988525390625" stroke-width="0.0" fill="rgb(34, 33, 54)" opacity="0.9209748" stroke="rgb(237, 226, 199)" stroke-opacity="0.4126483" stroke-linecap="round" stroke-linejoin="round"/>
    <path d="M 240.15049743652344 355.9715881347656 C 230.78607177734375 326.8272399902344 270.42431640625 433.15704345703125 195.42111206054688 398.1859436035156 C 226.37481689453125 329.4427185058594 208.14527893066406 371.0227355957031 195.51260375976562 397.4860534667969 C 216.67489624023438 273.392333984375 87.73290252685547 251.24383544921875 257.2832946777344 251.8012237548828 C 284.5336608886719 392.06439208984375 262.9502258300781 336.55987548828125 240.15049743652344 355.9715881347656" stroke-width="0.0" fill="rgb(0, 129, 197)" opacity="0.34785187" stroke="rgb(117, 12, 158)" stroke-opacity="0.15597242" stroke-linecap="round" stroke-linejoin="round"/>
    <path d="M 472.12786865234375 420.824462890625 C 472.4654846191406 413.712158203125 391.5426940917969 433.9865417480469 467.6374206542969 389.9873046875 C 402.66802978515625 373.46929931640625 395.733642578125 481.0072021484375 404.67706298828125 295.3047180175781 C 444.3839111328125 390.60845947265625 436.9255676269531 375.57781982421875 440.1414794921875 340.1422119140625 C 468.67022705078125 333.61224365234375 427.8989562988281 352.5731201171875 472.12786865234375 420.824462890625" stroke-width="0.0" fill="rgb(242, 216, 196)" opacity="1.0" stroke="rgb(83, 220, 53)" stroke-opacity="0.9435705" stroke-linecap="round" stroke-linejoin="round"/>
    <path d="M 502.431640625 475.3781433105469 C 499.6112365722656 494.9464111328125 510.804931640625 515.9502563476562 484.34649658203125 499.48388671875 C 451.1261901855469 499.6000671386719 449.6787414550781 497.2062072753906 441.4806213378906 481.67938232421875 C 438.8465881347656 465.0335998535156 444.2959899902344 473.8916015625 480.8147277832031 470.5503845214844 C 507.49896240234375 471.0169677734375 501.1994934082031 469.5088195800781 502.431640625 475.3781433105469" stroke-width="0.0" fill="rgb(20, 73, 109)" opacity="0.6473785" stroke="rgb(234, 152, 48)" stroke-opacity="0.84356755" stroke-linecap="round" stroke-linejoin="round"/>
    <path d="M 505.0666809082031 321.8604431152344 C 484.3231506347656 323.59320068359375 469.813232421875 327.04559326171875 474.3074035644531 312.7823486328125 C 457.075927734375 299.1641540527344 479.6269226074219 363.5472717285156 452.37152099609375 309.9986572265625 C 453.2454833984375 294.85638427734375 451.59765625 295.4650573730469 477.3790283203125 295.5544128417969 C 510.8472595214844 300.4777526855469 504.1957092285156 285.6421203613281 505.0666809082031 321.8604431152344" stroke-width="0.0" fill="rgb(241, 234, 219)" opacity="1.0" stroke="rgb(39, 36, 139)" stroke-opacity="0.14792854" stroke-linecap="round" stroke-linejoin="round"/>
    <path d="M 279.74200439453125 361.3376159667969 C 278.6889953613281 381.5732421875 282.1879577636719 375.02569580078125 273.5732727050781 376.60504150390625 C 273.4584045410156 379.6006774902344 273.2690734863281 368.82965087890625 273.44677734375 362.71820068359375 C 272.5723876953125 366.4825744628906 274.08441162109375 360.1877746582031 273.13153076171875 361.83392333984375 C 283.7509460449219 361.2165222167969 276.7491455078125 363.2895202636719 279.74200439453125 361.3376159667969" stroke-width="0.0" fill="rgb(20, 24, 48)" opacity="0.9092162" stroke="rgb(132, 94, 207)" stroke-opacity="0.30620262" stroke-linecap="round" stroke-linejoin="round"/>
    <path d="M 209.88182067871094 303.48089599609375 C 209.19085693359375 307.9874572753906 213.66734313964844 306.3721923828125 190.90614318847656 306.6993408203125 C 190.74351501464844 311.1906433105469 191.59335327148438 313.04168701171875 193.05311584472656 276.43035888671875 C 193.35720825195312 282.5846862792969 190.33143615722656 280.57403564453125 207.96005249023438 276.57537841796875 C 206.31903076171875 274.4744873046875 210.2878875732422 292.2236328125 209.88182067871094 303.48089599609375" stroke-width="0.0" fill="rgb(36, 35, 58)" opacity="0.96434283" stroke="rgb(161, 81, 167)" stroke-opacity="0.95367825" stroke-linecap="round" stroke-linejoin="round"/>
    <path d="M 464.9116516113281 321.7885437011719 C 464.0521240234375 358.67828369140625 465.489990234375 394.5562438964844 463.9930419921875 414.56884765625 C 454.6329650878906 363.1488342285156 419.5207824707031 363.8922119140625 456.3764343261719 365.8309326171875 C 460.6191711425781 347.0447998046875 445.9842834472656 340.9176940917969 464.43505859375 317.0119323730469 C 467.72979736328125 342.028564453125 461.9775390625 344.16864013671875 464.9116516113281 321.7885437011719" stroke-width="0.0" fill="rgb(255, 248, 230)" opacity="0.9640163" stroke="rgb(179, 200, 71)" stroke-opacity="0.29763386" stroke-linecap="round" stroke-linejoin="round"/>
    <path d="M 256.5636901855469 503.95306396484375 C 246.21385192871094 504.6230163574219 229.77001953125 504.66845703125 203.42251586914062 504.4633483886719 C 187.9990234375 503.8399353027344 182.4482421875 508.4386901855469 164.12831115722656 483.7140197753906 C 125.32264709472656 469.2502136230469 98.54292297363281 502.1646423339844 68.38279724121094 471.12469482421875 C 251.5375518798828 473.1847229003906 260.810791015625 458.9915466308594 256.5636901855469 503.95306396484375" stroke-width="0.0" fill="rgb(65, 105, 128)" opacity="0.981453" stroke="rgb(117, 138, 215)" stroke-opacity="0.39457825" stroke-linecap="round" stroke-linejoin="round"/>
    <path d="M 381.786376953125 503.89923095703125 C 353.43670654296875 505.006103515625 335.21417236328125 504.4577941894531 305.5301208496094 504.5212707519531 C 298.48046875 503.42181396484375 290.8288879394531 506.5906982421875 283.22650146484375 498.8876953125 C 278.36553955078125 460.3607177734375 277.9200439453125 476.1098937988281 332.0257873535156 471.81414794921875 C 371.36651611328125 471.6466369628906 377.7928466796875 463.8830261230469 381.786376953125 503.89923095703125" stroke-width="0.0" fill="rgb(53, 94, 117)" opacity="0.94960636" stroke="rgb(249, 65, 181)" stroke-opacity="0.24769036" stroke-linecap="round" stroke-linejoin="round"/>
    <path d="M 195.6649169921875 307.6094970703125 C 197.73167419433594 327.93280029296875 194.85354614257812 318.9664001464844 167.9767608642578 321.1894226074219 C 157.1456756591797 387.9927062988281 160.62648010253906 249.07357788085938 144.75140380859375 373.8330993652344 C 143.53321838378906 294.5643005371094 145.30133056640625 307.8155822753906 143.65809631347656 307.1482849121094 C 186.5399169921875 307.4532775878906 191.2122344970703 306.9437255859375 195.6649169921875 307.6094970703125" stroke-width="0.0" fill="rgb(255, 253, 237)" opacity="0.91881186" stroke="rgb(14, 87, 135)" stroke-opacity="0.23992845" stroke-linecap="round" stroke-linejoin="round"/>
    <path d="M 425.57421875 378.3136291503906 C 424.9680480957031 429.09521484375 427.1178283691406 404.4707946777344 415.3457946777344 412.935546875 C 397.9903564453125 407.0747375488281 404.38763427734375 421.6863098144531 401.336669921875 392.94903564453125 C 389.47943115234375 385.95819091796875 406.5934753417969 365.03839111328125 403.4847106933594 389.18798828125 C 438.6102600097656 398.0580749511719 417.3482360839844 378.4631652832031 425.57421875 378.3136291503906" stroke-width="0.0" fill="rgb(42, 42, 60)" opacity="0.93691224" stroke="rgb(166, 237, 115)" stroke-opacity="0.6434418" stroke-linecap="round" stroke-linejoin="round"/>
    <path d="M 316.0531921386719 471.399658203125 C 286.94110107421875 499.7123718261719 276.6480407714844 497.9327697753906 238.70477294921875 499.07025146484375 C 239.4954071044922 502.6139221191406 238.36251831054688 502.2618408203125 223.56204223632812 471.0072937011719 C 232.72802734375 469.5904235839844 242.18186950683594 472.6336364746094 293.2581481933594 470.1495056152344 C 277.27459716796875 464.69525146484375 283.1426086425781 472.860595703125 316.0531921386719 471.399658203125" stroke-width="0.0" fill="rgb(90, 129, 152)" opacity="0.7661676" stroke="rgb(116, 179, 37)" stroke-opacity="0.6535675" stroke-linecap="round" stroke-linejoin="round"/>
    <path d="M 126.82231140136719 64.04341888427734 C 127.03986358642578 95.52498626708984 128.08547973632812 87.96586608886719 125.56340026855469 89.66961669921875 C 106.73418426513672 88.72066497802734 112.36676025390625 92.9560317993164 111.28271484375 80.91923522949219 C 114.91423034667969 81.45402526855469 109.75634002685547 68.02568054199219 123.88028717041016 63.89035415649414 C 130.57009887695312 63.963165283203125 124.80451965332031 67.60399627685547 126.82231140136719 64.04341888427734" stroke-width="0.0" fill="rgb(255, 246, 225)" opacity="0.9683204" stroke="rgb(128, 148, 34)" stroke-opacity="0.114848986" stroke-linecap="round" stroke-linejoin="round"/>
    <path d="M 198.4239044189453 494.5144348144531 C 195.9483184814453 507.7546691894531 192.29920959472656 503.2648620605469 171.2042694091797 504.60308837890625 C 138.79441833496094 504.5252990722656 121.5161361694336 504.7745666503906 7.470488548278809 504.515380859375 C -9.883695602416992 423.30694580078125 80.83164978027344 494.51806640625 153.80899047851562 489.5372009277344 C 161.67930603027344 490.34490966796875 182.59213256835938 487.57489013671875 198.4239044189453 494.5144348144531" stroke-width="0.0" fill="rgb(64, 103, 127)" opacity="1.0" stroke="rgb(253, 63, 197)" stroke-opacity="0.45392868" stroke-linecap="round" stroke-linejoin="round"/>
    <path d="M 334.8642272949219 500.2200927734375 C 301.27813720703125 503.492919921875 275.77252197265625 502.7095642089844 315.6148986816406 504.5575866699219 C 269.0632629394531 504.4810485839844 247.9717254638672 504.77044677734375 232.92933654785156 504.5032958984375 C 244.86761474609375 476.6195373535156 251.85150146484375 479.88104248046875 258.4293212890625 478.43450927734375 C 323.74298095703125 484.0574035644531 359.38262939453125 499.5068664550781 334.8642272949219 500.2200927734375" stroke-width="0.0" fill="rgb(62, 101, 124)" opacity="0.9754893" stroke="rgb(125, 169, 166)" stroke-opacity="0.4618401" stroke-linecap="round" stroke-linejoin="round"/>
    <path d="M 287.9936828613281 471.2361755371094 C 303.8863220214844 504.6261291503906 294.3559875488281 498.2849426269531 293.7295837402344 501.9130554199219 C 314.1384582519531 484.7264709472656 241.60910034179688 500.1943054199219 249.6331024169922 464.1268310546875 C 308.84393310546875 452.6876525878906 268.9231262207031 506.5045166015625 488.5282897949219 468.936767578125 C 314.3699035644531 454.3187255859375 251.5503692626953 436.5784912109375 287.9936828613281 471.2361755371094" stroke-width="0.0" fill="rgb(40, 133, 163)" opacity="0.27760217" stroke="rgb(249, 242, 184)" stroke-opacity="0.4718356" stroke-linecap="round" stroke-linejoin="round"/>
    <path d="M 485.2540283203125 499.22906494140625 C 474.38201904296875 500.0020446777344 461.5120544433594 499.538330078125 473.44769287109375 499.6894836425781 C 424.07037353515625 499.4720764160156 418.8058166503906 499.6823425292969 421.52496337890625 498.5552978515625 C 425.4063720703125 474.62567138671875 433.532958984375 476.45916748046875 439.6424865722656 475.58624267578125 C 455.7394714355469 481.1564636230469 469.4572448730469 490.5663146972656 485.2540283203125 499.22906494140625" stroke-width="0.0" fill="rgb(59, 96, 120)" opacity="1.0" stroke="rgb(215, 94, 93)" stroke-opacity="0.04304218" stroke-linecap="round" stroke-linejoin="round"/>
    <path d="M 196.989013671875 327.41119384765625 C 201.34353637695312 349.0924377441406 181.65985107421875 358.943359375 189.7944793701172 309.1593017578125 C 172.38217163085938 325.2748107910156 191.54660034179688 346.35699462890625 172.82594299316406 336.67559814453125 C 175.50315856933594 303.8083801269531 160.12518310546875 308.74920654296875 190.73179626464844 307.7353210449219 C 199.22914123535156 308.3711853027344 195.91433715820312 300.4866638183594 196.989013671875 327.41119384765625" stroke-width="0.0" fill="rgb(255, 250, 234)" opacity="0.940716" stroke="rgb(57, 147, 167)" stroke-opacity="0.7173483" stroke-linecap="round" stroke-linejoin="round"/>
    <path d="M 201.13516235351562 483.8526306152344 C 197.27471923828125 492.8280334472656 193.7845001220703 487.9637145996094 144.75022888183594 488.68731689453125 C 127.56045532226562 486.9913024902344 132.0509490966797 491.2214660644531 126.06340789794922 479.9891662597656 C 143.82737731933594 482.83538818359375 161.14376831054688 479.43048095703125 155.42184448242188 480.671875 C 166.7763671875 480.2518005371094 187.29539489746094 480.53857421875 201.13516235351562 483.8526306152344" stroke-width="0.0" fill="rgb(242, 236, 220)" opacity="0.991975" stroke="rgb(206, 112, 52)" stroke-opacity="0.39184135" stroke-linecap="round" stroke-linejoin="round"/>
    <path d="M 206.3944091796875 285.9296875 C 200.9813232421875 296.7544250488281 205.28782653808594 296.0762023925781 196.0758056640625 298.6957702636719 C 191.43341064453125 298.6487731933594 194.80471801757812 293.1741943359375 191.879638671875 307.3384094238281 C 193.29898071289062 241.7471160888672 190.37408447265625 250.9394073486328 195.0033416748047 252.8451690673828 C 198.86732482910156 263.3211364746094 211.6988983154297 273.0796203613281 206.3944091796875 285.9296875" stroke-width="0.0" fill="rgb(47, 48, 69)" opacity="1.0" stroke="rgb(157, 219, 1)" stroke-opacity="0.46749595" stroke-linecap="round" stroke-linejoin="round"/>
    <path d="M 348.9503173828125 393.0813903808594 C 347.94964599609375 417.45794677734375 353.9585266113281 410.494873046875 338.89306640625 411.6318664550781 C 330.8511657714844 410.49639892578125 332.9635925292969 417.1773376464844 332.31964111328125 394.73870849609375 C 332.0726623535156 384.7897033691406 334.7887268066406 381.8251647949219 340.2228698730469 379.935302734375 C 347.4798583984375 380.70489501953125 349.1863098144531 387.08782958984375 348.9503173828125 393.0813903808594" stroke-width="0.0" fill="rgb(28, 24, 45)" opacity="0.8709029" stroke="rgb(101, 204, 225)" stroke-opacity="0.927375" stroke-linecap="round" stroke-linejoin="round"/>
    <path d="M 425.53192138671875 395.7071533203125 C 403.7495422363281 372.26971435546875 431.2895202636719 386.9029541015625 398.116455078125 393.18170166015625 C 401.5283203125 383.8561706542969 376.16510009765625 359.77130126953125 382.0315856933594 418.2439880371094 C 374.4076232910156 372.1954345703125 386.25250244140625 367.8149719238281 373.201171875 369.1171875 C 440.02996826171875 371.385986328125 424.2441101074219 358.4136657714844 425.53192138671875 395.7071533203125" stroke-width="0.0" fill="rgb(17, 16, 38)" opacity="0.8334099" stroke="rgb(109, 122, 16)" stroke-opacity="0.81986135" stroke-linecap="round" stroke-linejoin="round"/>
    <path d="M 293.716552734375 161.1699981689453 C 293.3951110839844 201.29312133789062 298.9257507324219 227.25120544433594 284.6702575683594 210.3975372314453 C 272.2931213378906 218.26943969726562 281.3436584472656 227.33029174804688 280.27935791015625 190.3240966796875 C 279.9414367675781 144.6313018798828 281.1892395019531 130.1742401123047 278.3788757324219 125.87969207763672 C 298.3404541015625 134.94161987304688 280.6805114746094 169.015869140625 293.716552734375 161.1699981689453" stroke-width="0.0" fill="rgb(37, 36, 56)" opacity="0.91667837" stroke="rgb(249, 56, 148)" stroke-opacity="0.8360293" stroke-linecap="round" stroke-linejoin="round"/>
    <path d="M 459.51397705078125 330.3555603027344 C 459.11175537109375 330.4547119140625 467.8385314941406 330.5314636230469 427.3440246582031 329.96185302734375 C 427.1126403808594 329.4520568847656 427.4521789550781 336.7533874511719 427.2320861816406 292.5680236816406 C 427.9136962890625 293.9949951171875 419.3664855957031 293.01995849609375 460.7646484375 293.8717041015625 C 458.9887390136719 294.00384521484375 459.23712158203125 289.7464904785156 459.51397705078125 330.3555603027344" stroke-width="0.0" fill="rgb(45, 49, 69)" opacity="1.0" stroke="rgb(237, 20, 64)" stroke-opacity="0.08388959" stroke-linecap="round" stroke-linejoin="round"/>
    <path d="M 314.80731201171875 251.66197204589844 C 314.1814880371094 257.3453369140625 317.1129455566406 255.43865966796875 306.8399353027344 255.64810180664062 C 307.4875183105469 242.62066650390625 307.2055969238281 232.76812744140625 307.076904296875 235.91275024414062 C 308.2047119140625 241.28359985351562 305.4881591796875 231.21522521972656 310.8189392089844 231.44033813476562 C 317.1694641113281 232.57852172851562 313.09539794921875 240.50729370117188 314.80731201171875 251.66197204589844" stroke-width="0.0" fill="rgb(18, 21, 45)" opacity="0.89955497" stroke="rgb(170, 11, 39)" stroke-opacity="0.5570488" stroke-linecap="round" stroke-linejoin="round"/>
    <path d="M 496.8634948730469 262.4281005859375 C 493.1225891113281 308.99945068359375 510.43255615234375 292.023193359375 458.4595947265625 295.75103759765625 C 458.7874450683594 275.4591369628906 458.4121398925781 270.4585876464844 461.8116455078125 269.3432922363281 C 459.3041076660156 268.19525146484375 467.2083740234375 276.6578063964844 447.30853271484375 262.7846374511719 C 460.5970764160156 262.4776306152344 483.950439453125 262.5042724609375 496.8634948730469 262.4281005859375" stroke-width="0.0" fill="rgb(45, 47, 67)" opacity="1.0" stroke="rgb(144, 61, 167)" stroke-opacity="0.3331863" stroke-linecap="round" stroke-linejoin="round"/>
    <path d="M 344.8194885253906 245.66375732421875 C 341.74468994140625 131.81480407714844 337.4036865234375 208.68911743164062 323.82208251953125 225.5587921142578 C 338.17071533203125 166.8179473876953 309.6492004394531 181.39813232421875 325.9170227050781 216.88381958007812 C 306.2430725097656 222.32626342773438 319.2948303222656 164.6494140625 311.8359069824219 178.47894287109375 C 341.7124938964844 163.70394897460938 363.05731201171875 146.73126220703125 344.8194885253906 245.66375732421875" stroke-width="0.0" fill="rgb(254, 247, 231)" opacity="0.98686206" stroke="rgb(145, 150, 196)" stroke-opacity="0.9454577" stroke-linecap="round" stroke-linejoin="round"/>
    <path d="M 249.20892333984375 464.1911926269531 C 248.80259704589844 502.7944030761719 246.8502655029297 500.5321044921875 248.37738037109375 494.38330078125 C 164.4512939453125 421.7630615234375 73.80758666992188 548.7762451171875 3.1891367435455322 463.54150390625 C 61.93122863769531 445.99365234375 307.26739501953125 452.5287780761719 212.40211486816406 459.6877136230469 C 247.23785400390625 470.72247314453125 267.7032470703125 454.9288024902344 249.20892333984375 464.1911926269531" stroke-width="0.0" fill="rgb(93, 141, 161)" opacity="0.6251332" stroke="rgb(15, 133, 111)" stroke-opacity="0.19678429" stroke-linecap="round" stroke-linejoin="round"/>
    <path d="M 84.97176361083984 276.4919128417969 C 72.8802719116211 275.2328186035156 61.088584899902344 284.2726745605469 57.15887451171875 294.70538330078125 C 45.639278411865234 299.0253601074219 38.3778190612793 307.7932434082031 6.801214694976807 299.2790222167969 C 3.994899272918701 244.78216552734375 4.479285717010498 262.8772888183594 77.36669921875 258.9443664550781 C 85.24275207519531 273.2497863769531 78.04608154296875 257.8777160644531 84.97176361083984 276.4919128417969" stroke-width="0.0" fill="rgb(228, 185, 161)" opacity="0.9905389" stroke="rgb(22, 139, 49)" stroke-opacity="0.7285795" stroke-linecap="round" stroke-linejoin="round"/>
    <path d="M 458.1355285644531 262.0001525878906 C 463.5255432128906 296.8245849609375 416.2124328613281 251.82586669921875 422.956787109375 298.2705383300781 C 400.5240478515625 230.62246704101562 417.1960144042969 334.0864562988281 401.4466857910156 291.0639343261719 C 401.09326171875 255.28591918945312 401.79473876953125 263.86669921875 402.9322814941406 262.6629333496094 C 454.7706604003906 262.4903869628906 462.9325256347656 262.8067321777344 458.1355285644531 262.0001525878906" stroke-width="0.0" fill="rgb(247, 240, 225)" opacity="1.0" stroke="rgb(198, 185, 115)" stroke-opacity="0.64309084" stroke-linecap="round" stroke-linejoin="round"/>
    <path d="M 454.81829833984375 491.1009521484375 C 439.5716857910156 491.461669921875 437.14349365234375 490.4825744628906 435.5733947753906 490.7569580078125 C 403.9855651855469 508.00439453125 374.2033386230469 516.4292602539062 351.4356384277344 471.3083801269531 C 395.2541198730469 471.6691589355469 403.6783142089844 470.3976135253906 454.8634338378906 470.6968994140625 C 452.5668640136719 461.7922058105469 454.8018493652344 447.9414367675781 454.81829833984375 491.1009521484375" stroke-width="0.0" fill="rgb(80, 120, 143)" opacity="0.903095" stroke="rgb(249, 147, 161)" stroke-opacity="0.8721345" stroke-linecap="round" stroke-linejoin="round"/>
    <path d="M 374.654296875 164.542236328125 C 374.7280578613281 203.95700073242188 376.62298583984375 206.77655029296875 371.8888244628906 179.70831298828125 C 352.1498718261719 177.90097045898438 341.9358825683594 178.4797821044922 315.1853942871094 178.45069885253906 C 317.74896240234375 123.70794677734375 342.74163818359375 151.9512176513672 364.3374938964844 104.09642028808594 C 348.0737609863281 148.3211212158203 368.6228942871094 115.1526107788086 374.654296875 164.542236328125" stroke-width="0.0" fill="rgb(93, 151, 174)" opacity="0.9309477" stroke="rgb(100, 115, 252)" stroke-opacity="0.46929348" stroke-linecap="round" stroke-linejoin="round"/>
    <path d="M 428.7110595703125 499.595703125 C 424.489990234375 506.43548583984375 439.3594665527344 504.4981994628906 409.15350341796875 504.7229309082031 C 383.441650390625 504.59075927734375 372.0879821777344 504.9698486328125 355.6285400390625 504.38641357421875 C 356.9687194824219 467.0165100097656 364.5589904785156 480.9694519042969 379.42071533203125 494.42431640625 C 435.19476318359375 481.4599609375 441.486083984375 479.238525390625 428.7110595703125 499.595703125" stroke-width="0.0" fill="rgb(53, 90, 114)" opacity="0.9018166" stroke="rgb(53, 164, 171)" stroke-opacity="0.093350664" stroke-linecap="round" stroke-linejoin="round"/>
    <path d="M 269.68603515625 350.5711669921875 C 271.0436706542969 351.3498840332031 270.7870178222656 351.3124694824219 249.9714813232422 351.07769775390625 C 241.72987365722656 364.9890441894531 241.55044555664062 363.89599609375 241.2144012451172 324.6921081542969 C 238.85679626464844 324.607666015625 237.5913543701172 324.5210876464844 269.47430419921875 324.3232727050781 C 269.1762390136719 317.47314453125 269.32696533203125 324.2422790527344 269.68603515625 350.5711669921875" stroke-width="0.0" fill="rgb(48, 47, 69)" opacity="0.9690854" stroke="rgb(186, 95, 141)" stroke-opacity="0.9093541" stroke-linecap="round" stroke-linejoin="round"/>
  </g>
</svg>
