<?xml version="1.0" ?>
<svg xmlns="http://www.w3.org/2000/svg" version="1.1" width="508" height="512">
  <defs/>
  <g>
    <path d="M -10.0 -10.0 C -9.0 -10.0 508.0 0.0 509.0 0.0 C 510.0 0.0 508.0 512.0 509.0 512.0 C 509.0 513.0 0.0 512.0 0.0 513.0 C 0.0 512.0 0.0 513.0 -10.0 -10.0 L -10.0 -10.0" stroke-width="2.0" fill="rgb(146, 162, 168)" opacity="0.9999053"/>
    <path d="M 491.0081481933594 226.44815063476562 C 490.8510437011719 225.02490234375 491.0150146484375 225.99497985839844 490.7862854003906 224.7219696044922 C 490.92236328125 225.3433837890625 490.8880920410156 225.6397705078125 490.7787780761719 224.51510620117188 C 491.015869140625 226.14463806152344 491.03167724609375 226.51278686523438 491.1025085449219 227.2349090576172 C 491.06622314453125 226.39671325683594 491.0653991699219 226.73953247070312 491.07037353515625 227.11216735839844 L 491.0081481933594 226.44815063476562" stroke-width="2.0" fill="rgb(55, 205, 204)" opacity="0.008103088"/>
    <path d="M 490.87945556640625 215.50636291503906 C 380.8319396972656 25.052474975585938 388.5705261230469 40.149845123291016 463.54833984375 167.75360107421875 C 141.0595245361328 146.04042053222656 253.93679809570312 141.404296875 309.74462890625 69.7977523803711 C 269.9930114746094 30.895463943481445 187.97763061523438 440.64263916015625 -137.38345336914062 14.52490520477295 C 356.3136901855469 -11.293733596801758 370.90087890625 -4.878682613372803 535.304931640625 13.53499984741211 L 490.87945556640625 215.50636291503906" stroke-width="2.0" fill="rgb(123, 254, 227)" opacity="0.12695378"/>
    <path d="M 179.46902465820312 319.46868896484375 C 178.83851623535156 320.8165588378906 177.8235626220703 321.6167907714844 176.357421875 321.08233642578125 C 175.08778381347656 321.2333068847656 174.06776428222656 320.5748596191406 174.6746063232422 319.6833190917969 C 173.76918029785156 318.4253845214844 173.85301208496094 317.2443542480469 174.81707763671875 316.0464172363281 C 176.1947784423828 316.18035888671875 177.39990234375 316.74188232421875 178.51126098632812 317.671875 L 179.46902465820312 319.46868896484375" stroke-width="2.0" fill="rgb(188, 68, 19)" opacity="0.0"/>
    <path d="M 82.91716766357422 264.7422180175781 C 3.66953182220459 358.0397644042969 111.0680923461914 235.75978088378906 83.98859405517578 370.82427978515625 C -24.885183334350586 363.3562927246094 106.22880554199219 410.69354248046875 -6.317893981933594 398.7232666015625 C -20.109161376953125 252.70489501953125 -17.041425704956055 237.0155029296875 -3.080622673034668 161.1031951904297 C 92.70352172851562 176.0862579345703 114.30663299560547 112.92687225341797 137.69593811035156 308.98602294921875 L 82.91716766357422 264.7422180175781" stroke-width="2.0" fill="rgb(254, 240, 215)" opacity="0.8451455"/>
    <path d="M 295.7331848144531 17.113712310791016 C 300.85101318359375 40.19623947143555 310.9093933105469 50.6690559387207 279.0621032714844 116.42063903808594 C 331.4099426269531 69.58260345458984 297.28387451171875 -120.05949401855469 124.34191131591797 19.98157501220703 C 200.30657958984375 290.09326171875 100.92565155029297 378.30316162109375 133.66526794433594 -1.1479909420013428 C 348.3150329589844 -1.9984370470046997 349.2559814453125 1.8534960746765137 284.2121276855469 -8.067290306091309 L 295.7331848144531 17.113712310791016" stroke-width="2.0" fill="rgb(3, 21, 51)" opacity="0.6387366"/>
    <path d="M 279.7145690917969 216.45375061035156 C 684.8515625 27.330318450927734 516.7216186523438 377.4367370605469 255.7708740234375 278.84954833984375 C 289.8764953613281 236.26083374023438 138.06849670410156 237.72247314453125 146.42105102539062 296.5242004394531 C 165.3439483642578 187.561767578125 140.50999450683594 157.60028076171875 166.42575073242188 163.3167266845703 C 360.621337890625 164.7332305908203 229.06231689453125 144.07057189941406 280.025146484375 142.86758422851562 L 279.7145690917969 216.45375061035156" stroke-width="2.0" fill="rgb(219, 196, 179)" opacity="0.97838473"/>
    <path d="M 88.32559967041016 258.6023864746094 C 36.43227005004883 315.35888671875 62.801361083984375 300.15277099609375 35.80204391479492 303.3927307128906 C -3.0507519245147705 372.9046630859375 8.005510330200195 364.5896301269531 5.0964202880859375 133.85626220703125 C -31.451641082763672 214.33604431152344 172.67855834960938 93.9332046508789 153.3497772216797 243.2602081298828 C 40.855865478515625 317.8009033203125 79.02074432373047 172.9437255859375 12.835349082946777 258.3567810058594 L 88.32559967041016 258.6023864746094" stroke-width="2.0" fill="rgb(150, 2, 0)" opacity="0.20363776"/>
    <path d="M 24.781814575195312 291.2081604003906 C 37.42903137207031 317.95526123046875 35.13138961791992 289.5765075683594 35.43712615966797 342.1941833496094 C -3.411233425140381 339.091064453125 7.229304790496826 354.35455322265625 5.317320823669434 308.6542663574219 C 50.573577880859375 307.661376953125 33.159332275390625 312.9291076660156 24.564971923828125 290.07476806640625 C 25.411884307861328 292.4962158203125 24.86030387878418 291.5806884765625 25.218585968017578 290.3497009277344 L 24.781814575195312 291.2081604003906" stroke-width="2.0" fill="rgb(86, 148, 175)" opacity="0.9351041"/>
    <path d="M 502.00079345703125 501.4887390136719 C 395.94903564453125 494.8677978515625 438.2528076171875 504.0954284667969 425.9192810058594 504.79559326171875 C 356.8119201660156 503.9597473144531 275.78619384765625 505.2861328125 -88.00969696044922 503.837646484375 C 215.48583984375 443.4638671875 316.7635192871094 557.3277587890625 166.92922973632812 470.5465087890625 C 400.8148498535156 470.9169921875 419.4520263671875 470.5320739746094 501.9625549316406 470.84136962890625 L 502.00079345703125 501.4887390136719" stroke-width="2.0" fill="rgb(8, 69, 107)" opacity="0.53210694"/>
    <path d="M 502.573974609375 -11.080572128295898 C 656.9398803710938 521.1111450195312 478.12115478515625 200.9497833251953 365.1010437011719 170.93238830566406 C 249.1700439453125 392.09320068359375 385.68048095703125 280.1629943847656 248.25648498535156 53.24229431152344 C 418.545166015625 0.08115194737911224 141.73333740234375 233.8445587158203 392.71258544921875 60.42106628417969 C 531.5437622070312 149.49526977539062 117.19930267333984 -15.781018257141113 502.17791748046875 264.7261962890625 L 502.573974609375 -11.080572128295898" stroke-width="2.0" fill="rgb(245, 237, 224)" opacity="0.8711802"/>
    <path d="M 126.32608032226562 310.173583984375 C 109.36087036132812 144.65966796875 95.79118347167969 418.91864013671875 98.7502670288086 166.70660400390625 C -20.132801055908203 149.54519653320312 10.427814483642578 233.90103149414062 4.9318647384643555 8.142073631286621 C 756.5692138671875 5.39548921585083 633.4403686523438 22.763309478759766 127.52564239501953 -55.621273040771484 C -384.7741394042969 158.78085327148438 -221.55897521972656 188.41140747070312 127.50886535644531 160.0713653564453 L 126.32608032226562 310.173583984375" stroke-width="2.0" fill="rgb(252, 249, 244)" opacity="0.9197816"/>
    <path d="M 457.4322204589844 262.3050231933594 C 391.2348937988281 263.105712890625 402.12322998046875 260.61676025390625 401.43914794921875 266.7689514160156 C 397.5060119628906 302.2900085449219 414.03692626953125 290.9778747558594 365.84930419921875 292.7807922363281 C 360.11370849609375 238.1010284423828 399.2314758300781 298.530517578125 359.9961242675781 127.33861541748047 C 443.9473876953125 166.50657653808594 334.4547119140625 228.13427734375 457.32611083984375 212.23036193847656 L 457.4322204589844 262.3050231933594" stroke-width="2.0" fill="rgb(42, 50, 71)" opacity="0.9495868"/>
    <path d="M 441.4500732421875 136.76791381835938 C 415.6373596191406 136.56336975097656 388.861572265625 126.1492691040039 359.0981750488281 118.85598754882812 C 357.52581787109375 149.10586547851562 378.55633544921875 113.33370971679688 374.63983154296875 211.04954528808594 C 195.12094116210938 115.92686462402344 344.4708251953125 77.46659088134766 361.97357177734375 119.02079772949219 C 441.77679443359375 144.04690551757812 444.0028076171875 134.59811401367188 442.5133972167969 136.09742736816406 L 441.4500732421875 136.76791381835938" stroke-width="2.0" fill="rgb(115, 162, 175)" opacity="0.81591976"/>
    <path d="M 353.5859069824219 453.6885986328125 C 340.4382629394531 455.8938293457031 333.81170654296875 457.1055603027344 485.3956298828125 431.1950988769531 C 297.2326965332031 431.2149353027344 223.83599853515625 431.34375 233.5800018310547 430.5718078613281 C 243.51870727539062 414.8247985839844 230.31785583496094 422.95684814453125 273.1898498535156 418.5915222167969 C 223.31671142578125 422.14569091796875 595.0567016601562 415.60125732421875 520.55908203125 425.14501953125 L 353.5859069824219 453.6885986328125" stroke-width="2.0" fill="rgb(27, 24, 46)" opacity="0.8677721"/>
    <path d="M 171.89149475097656 366.3117980957031 C 172.93394470214844 362.77996826171875 172.10829162597656 365.08135986328125 172.3933868408203 365.1000061035156 C 173.41946411132812 365.3815612792969 167.41195678710938 367.1292724609375 167.63278198242188 364.9273376464844 C 168.32899475097656 351.4178771972656 166.75755310058594 350.7725830078125 172.54396057128906 352.87359619140625 C 172.6041259765625 366.6263732910156 171.32533264160156 364.1430969238281 172.7987823486328 364.58453369140625 L 171.89149475097656 366.3117980957031" stroke-width="2.0" fill="rgb(1, 5, 28)" opacity="0.794079"/>
  </g>
</svg>
