<?xml version="1.0" ?>
<svg xmlns="http://www.w3.org/2000/svg" version="1.1" width="512" height="341">
  <defs/>
  <g>
    <path d="M 0.08393243700265884 0.44311729073524475 L 512.0 0.4483453631401062 L 512.0 341.0 L 0.28466910123825073 341.0 L 0.08393243700265884 0.44311729073524475" stroke-width="0.0" fill="rgb(260, 259, 256)" opacity="1.1200982" stroke="rgb(0, 0, 0)" stroke-opacity="0.0" stroke-linecap="round" stroke-linejoin="round"/>
    <path d="M 512.02099609375 0.9488193988800049 L -0.013474218547344208 0.9492518305778503 L -0.06768646091222763 341.0459289550781 L 512.051025390625 341.0465087890625 L 512.02099609375 0.9488193988800049" stroke-width="2.0" fill="rgb(138, 187, 166)" opacity="1.2116144" stroke="rgb(0, 0, 0)" stroke-opacity="0.0" stroke-linecap="round" stroke-linejoin="round"/>
    <path d="M -0.3027934432029724 288.700927734375 L -0.0066131288185715675 341.04583740234375 L 512.010986328125 341.04669189453125 L 512.0219116210938 287.8665771484375 L 140.65304565429688 287.7969970703125 C 139.24295043945312 292.82525634765625 135.29931640625 290.2630310058594 132.2714080810547 287.7894287109375 L 4.21598482131958 288.2980651855469 C 1.7956799268722534 285.5830078125 2.7393312454223633 285.55517578125 -0.3027934432029724 288.700927734375" stroke-width="2.0" fill="rgb(175, 210, 180)" opacity="0.9938855" stroke="rgb(0, 0, 0)" stroke-opacity="0.0" stroke-linecap="round" stroke-linejoin="round"/>
    <path d="M 361.6131896972656 240.5791473388672 L 361.2609558105469 285.9466857910156 L 440.0167541503906 286.1009826660156 L 440.8606262207031 240.3158721923828 C 427.4966125488281 231.12342834472656 410.7679748535156 217.65855407714844 397.6503601074219 214.04933166503906 L 361.6131896972656 240.5791473388672" stroke-width="2.0" fill="rgb(276, 241, 203)" opacity="0.8239743" stroke="rgb(0, 0, 0)" stroke-opacity="0.0" stroke-linecap="round" stroke-linejoin="round"/>
    <path d="M 176.6845703125 245.10342407226562 L 176.49288940429688 286.81378173828125 L 244.87562561035156 286.8451843261719 L 244.7897491455078 244.649169921875 C 230.90463256835938 238.42025756835938 217.55564880371094 222.9895782470703 204.27769470214844 223.8932647705078 L 176.6845703125 245.10342407226562" stroke-width="2.0" fill="rgb(225, 134, 109)" opacity="0.91176" stroke="rgb(0, 0, 0)" stroke-opacity="0.0" stroke-linecap="round" stroke-linejoin="round"/>
    <path d="M 285.9176025390625 244.4923858642578 L 286.06744384765625 288.19287109375 L 346.65380859375 287.14453125 L 346.5936584472656 243.97943115234375 C 335.5117492675781 237.95521545410156 324.6849365234375 228.7034149169922 314.580078125 223.775146484375 L 285.9176025390625 244.4923858642578" stroke-width="2.0" fill="rgb(55, 25, 55)" opacity="1.1298276" stroke="rgb(0, 0, 0)" stroke-opacity="0.0" stroke-linecap="round" stroke-linejoin="round"/>
    <path d="M 30.29290008544922 242.56668090820312 L 30.225282669067383 288.186767578125 L 88.09858703613281 287.13299560546875 L 88.0775375366211 248.4862823486328 L 54.181053161621094 225.7198028564453 C 46.96653366088867 228.2722930908203 39.63369369506836 238.08740234375 30.29290008544922 242.56668090820312" stroke-width="2.0" fill="rgb(48, 17, 50)" opacity="1.0624865" stroke="rgb(0, 0, 0)" stroke-opacity="0.0" stroke-linecap="round" stroke-linejoin="round"/>
    <path d="M 96.4280014038086 158.26736450195312 C 71.67672729492188 159.6868896484375 60.01527404785156 192.84368896484375 83.07012939453125 208.20565795898438 C 88.19591522216797 212.43084716796875 93.49199676513672 209.64991760253906 99.63872528076172 213.48187255859375 L 98.55979919433594 286.440673828125 C 109.07999420166016 291.6881408691406 108.85050201416016 279.68145751953125 100.75965881347656 272.97576904296875 L 100.96087646484375 212.35470581054688 C 135.81008911132812 211.30123901367188 131.84063720703125 155.5806121826172 96.4280014038086 158.26736450195312" stroke-width="2.0" fill="rgb(202, 218, 194)" opacity="0.8249051" stroke="rgb(0, 0, 0)" stroke-opacity="0.0" stroke-linecap="round" stroke-linejoin="round"/>
    <path d="M 464.3756408691406 158.4365997314453 C 430.5686950683594 164.20111083984375 437.69781494140625 216.77125549316406 470.7828674316406 213.81150817871094 C 474.3711242675781 203.65667724609375 468.5084228515625 191.63926696777344 473.4376525878906 183.90753173828125 C 478.1927185058594 193.04586791992188 470.5365295410156 207.38987731933594 477.1002502441406 213.7565155029297 C 505.6326904296875 204.89305114746094 504.27630615234375 164.9796142578125 475.2113037109375 158.2086639404297 L 464.3756408691406 158.4365997314453" stroke-width="2.0" fill="rgb(190, 212, 189)" opacity="0.9453062" stroke="rgb(0, 0, 0)" stroke-opacity="0.0" stroke-linecap="round" stroke-linejoin="round"/>
    <path d="M 148.354248046875 186.02638244628906 C 123.09384155273438 180.4042510986328 112.8482437133789 224.25791931152344 141.30320739746094 227.56150817871094 C 139.83599853515625 247.74818420410156 136.84872436523438 268.3563232421875 137.69586181640625 289.0217590332031 C 140.4754638671875 270.8262634277344 141.0121307373047 248.1669921875 142.5576629638672 228.4763946533203 C 165.2240447998047 230.78802490234375 175.8007354736328 192.41632080078125 148.354248046875 186.02638244628906" stroke-width="2.0" fill="rgb(159, 179, 165)" opacity="1.0185841" stroke="rgb(0, 0, 0)" stroke-opacity="0.0" stroke-linecap="round" stroke-linejoin="round"/>
    <path d="M 263.38372802734375 200.47409057617188 C 230.32838439941406 212.9659881591797 269.6597900390625 258.4657287597656 286.25115966796875 224.5133056640625 C 291.0242614746094 212.45217895507812 276.94873046875 195.2747344970703 263.38372802734375 200.47409057617188" stroke-width="2.0" fill="rgb(184, 211, 187)" opacity="1.0012056" stroke="rgb(0, 0, 0)" stroke-opacity="0.0" stroke-linecap="round" stroke-linejoin="round"/>
    <path d="M 322.0257568359375 246.43763732910156 L 322.045166015625 287.7852783203125 L 346.8849792480469 287.81292724609375 L 346.6446228027344 246.17910766601562 L 322.0257568359375 246.43763732910156" stroke-width="2.0" fill="rgb(210, 137, 115)" opacity="1.0162884" stroke="rgb(0, 0, 0)" stroke-opacity="0.0" stroke-linecap="round" stroke-linejoin="round"/>
    <path d="M 124.36293029785156 203.29774475097656 L 124.90403747558594 205.99493408203125 L 165.45286560058594 209.4249267578125 C 169.50152587890625 185.71099853515625 129.4969482421875 175.51246643066406 124.36293029785156 203.29774475097656" stroke-width="2.0" fill="rgb(193, 219, 190)" opacity="0.8385783" stroke="rgb(0, 0, 0)" stroke-opacity="0.0" stroke-linecap="round" stroke-linejoin="round"/>
    <path d="M 5.796553134918213 233.3584747314453 L -0.05109168216586113 235.9247283935547 L -0.0048382640816271305 283.7626037597656 L 14.870318412780762 283.7569274902344 C 11.033220291137695 267.4052734375 24.117549896240234 241.28717041015625 5.796553134918213 233.3584747314453" stroke-width="2.0" fill="rgb(175, 210, 180)" opacity="1.006785" stroke="rgb(0, 0, 0)" stroke-opacity="0.0" stroke-linecap="round" stroke-linejoin="round"/>
    <path d="M 471.0417175292969 181.99269104003906 C 463.1705017089844 184.3058319091797 460.92919921875 196.6017608642578 471.8993835449219 198.90548706054688 C 472.8544006347656 224.02879333496094 469.79461669921875 249.04324340820312 469.3433532714844 274.63812255859375 C 457.8167419433594 282.9525451660156 473.2113952636719 292.927001953125 477.74212646484375 282.4259033203125 C 476.4322509765625 277.71368408203125 475.3466796875 273.79852294921875 470.9475402832031 269.84197998046875 C 473.3894958496094 246.9016571044922 474.35101318359375 223.5454559326172 474.0301818847656 200.32217407226562 C 482.5902404785156 194.75987243652344 480.682373046875 182.08746337890625 471.0417175292969 181.99269104003906" stroke-width="2.0" fill="rgb(111, 69, 89)" opacity="0.85978895" stroke="rgb(0, 0, 0)" stroke-opacity="0.0" stroke-linecap="round" stroke-linejoin="round"/>
    <path d="M 17.57932472229004 238.68614196777344 L 16.53661346435547 285.2096862792969 C 20.587465286254883 289.26397705078125 24.342947006225586 286.3152770996094 28.38668441772461 287.24212646484375 L 29.43999671936035 240.6926727294922 L 17.57932472229004 238.68614196777344" stroke-width="2.0" fill="rgb(110, 170, 145)" opacity="0.98519486" stroke="rgb(0, 0, 0)" stroke-opacity="0.0" stroke-linecap="round" stroke-linejoin="round"/>
    <path d="M 379.8816223144531 243.8634490966797 L 380.02349853515625 277.7976989746094 L 395.91571044921875 277.8997497558594 L 396.982666015625 244.4685821533203 L 379.8816223144531 243.8634490966797" stroke-width="2.0" fill="rgb(147, 135, 128)" opacity="0.9575881" stroke="rgb(0, 0, 0)" stroke-opacity="0.0" stroke-linecap="round" stroke-linejoin="round"/>
    <path d="M 96.17808532714844 182.32321166992188 C 86.51335906982422 187.4217529296875 88.9027099609375 198.7331085205078 98.98846435546875 202.3366241455078 L 98.61567687988281 286.9318542480469 C 107.29034423828125 291.7701721191406 110.4970474243164 280.8695983886719 100.82994842529297 274.185791015625 L 100.83255004882812 201.48204040527344 C 113.86309814453125 199.83236694335938 109.92598724365234 178.86183166503906 96.17808532714844 182.32321166992188" stroke-width="2.0" fill="rgb(56, 64, 62)" opacity="1.2190976" stroke="rgb(0, 0, 0)" stroke-opacity="0.0" stroke-linecap="round" stroke-linejoin="round"/>
    <path d="M 188.26455688476562 247.2398223876953 L 187.6068572998047 277.8129577636719 L 203.93325805664062 277.8733825683594 L 203.91770935058594 247.599365234375 L 188.26455688476562 247.2398223876953" stroke-width="2.0" fill="rgb(167, 194, 170)" opacity="0.99300224" stroke="rgb(0, 0, 0)" stroke-opacity="0.0" stroke-linecap="round" stroke-linejoin="round"/>
    <path d="M 41.7006721496582 246.00704956054688 L 41.742156982421875 275.0688781738281 L 57.17655944824219 275.0914611816406 L 58.15393829345703 245.9124755859375 L 41.7006721496582 246.00704956054688" stroke-width="2.0" fill="rgb(104, 89, 106)" opacity="1.0372496" stroke="rgb(0, 0, 0)" stroke-opacity="0.0" stroke-linecap="round" stroke-linejoin="round"/>
    <path d="M 361.3481750488281 282.4422912597656 L 361.5498962402344 287.51507568359375 L 439.9383544921875 287.5049133300781 C 441.6785888671875 279.6131286621094 435.1912536621094 283.7056884765625 431.22222900390625 282.3455810546875 L 361.3481750488281 282.4422912597656" stroke-width="2.0" fill="rgb(47, 5, 40)" opacity="0.96517587" stroke="rgb(0, 0, 0)" stroke-opacity="0.0" stroke-linecap="round" stroke-linejoin="round"/>
    <path d="M 69.09455871582031 254.1637420654297 L 69.36116790771484 286.6194152832031 C 78.34605407714844 289.61737060546875 90.34344482421875 288.9412841796875 86.04975891113281 276.4710693359375 C 67.87368774414062 281.3127746582031 87.12532806396484 249.63442993164062 69.09455871582031 254.1637420654297" stroke-width="2.0" fill="rgb(151, 134, 135)" opacity="0.94445145" stroke="rgb(0, 0, 0)" stroke-opacity="0.0" stroke-linecap="round" stroke-linejoin="round"/>
    <path d="M 234.49789428710938 116.62345123291016 C 209.51702880859375 120.18180847167969 224.5602264404297 160.0579833984375 243.94203186035156 144.1432647705078 C 229.34014892578125 145.92567443847656 222.84674072265625 122.04121398925781 240.44381713867188 119.36898803710938 C 240.1627960205078 115.6359634399414 236.41561889648438 118.5553970336914 234.49789428710938 116.62345123291016" stroke-width="2.0" fill="rgb(233, 229, 194)" opacity="0.97614646" stroke="rgb(0, 0, 0)" stroke-opacity="0.0" stroke-linecap="round" stroke-linejoin="round"/>
    <path d="M 473.48980712890625 184.80836486816406 C 471.79541015625 218.83741760253906 471.861083984375 252.5489501953125 467.201171875 286.8480529785156 C 477.1319274902344 289.90447998046875 480.2890319824219 278.1375427246094 471.0664367675781 271.0357971191406 C 472.8417663574219 242.86685180664062 475.0272216796875 214.43475341796875 473.48980712890625 184.80836486816406" stroke-width="2.0" fill="rgb(17, 16, 32)" opacity="0.99802196" stroke="rgb(0, 0, 0)" stroke-opacity="0.0" stroke-linecap="round" stroke-linejoin="round"/>
    <path d="M 444.1162109375 23.641035079956055 C 424.9810485839844 21.83100700378418 428.99786376953125 55.967308044433594 447.3288879394531 46.3282585144043 C 447.447265625 39.2423210144043 447.18426513671875 29.878475189208984 444.1162109375 23.641035079956055" stroke-width="2.0" fill="rgb(110, 170, 145)" opacity="1.0652441" stroke="rgb(0, 0, 0)" stroke-opacity="0.0" stroke-linecap="round" stroke-linejoin="round"/>
    <path d="M 226.02938842773438 247.73670959472656 L 226.02467346191406 267.99945068359375 L 237.49110412597656 268.0005798339844 C 240.118408203125 257.3260192871094 240.78660583496094 242.40765380859375 226.02938842773438 247.73670959472656" stroke-width="2.0" fill="rgb(128, 113, 113)" opacity="1.0179759" stroke="rgb(0, 0, 0)" stroke-opacity="0.0" stroke-linecap="round" stroke-linejoin="round"/>
    <path d="M 143.71420288085938 227.33328247070312 C 152.83883666992188 229.08360290527344 165.1162109375 219.8826141357422 164.65353393554688 210.5565643310547 L 145.3796844482422 209.41571044921875 L 143.71420288085938 227.33328247070312" stroke-width="2.0" fill="rgb(181, 204, 181)" opacity="1.2139689" stroke="rgb(0, 0, 0)" stroke-opacity="0.0" stroke-linecap="round" stroke-linejoin="round"/>
    <path d="M 96.40298461914062 182.28004455566406 C 86.82499694824219 186.3357696533203 88.060302734375 200.46998596191406 98.80641174316406 201.81646728515625 L 99.11922454833984 189.2045135498047 C 101.50472259521484 195.37168884277344 98.82533264160156 207.92164611816406 108.47190856933594 196.57318115234375 C 112.65277099609375 188.9930419921875 104.883544921875 179.6521453857422 96.40298461914062 182.28004455566406" stroke-width="2.0" fill="rgb(192, 129, 108)" opacity="1.0645039" stroke="rgb(0, 0, 0)" stroke-opacity="0.0" stroke-linecap="round" stroke-linejoin="round"/>
    <path d="M 124.0053482055664 207.10069274902344 C 122.26675415039062 214.25149536132812 130.3018035888672 225.711669921875 139.38792419433594 227.43064880371094 L 141.4223175048828 208.33438110351562 L 124.0053482055664 207.10069274902344" stroke-width="2.0" fill="rgb(184, 209, 184)" opacity="1.0853417" stroke="rgb(0, 0, 0)" stroke-opacity="0.0" stroke-linecap="round" stroke-linejoin="round"/>
    <path d="M 58.93730163574219 123.19717407226562 C 61.32456970214844 128.1046905517578 68.53981018066406 134.52110290527344 64.26177215576172 142.24090576171875 C 51.590274810791016 152.8187255859375 72.3419189453125 148.55101013183594 73.6220474243164 140.3391571044922 C 76.04983520507812 132.83248901367188 69.88127136230469 120.033203125 58.93730163574219 123.19717407226562" stroke-width="2.0" fill="rgb(179, 209, 185)" opacity="0.98826766" stroke="rgb(0, 0, 0)" stroke-opacity="0.0" stroke-linecap="round" stroke-linejoin="round"/>
    <path d="M 144.1822967529297 207.79510498046875 C 139.13502502441406 233.46365356445312 139.25357055664062 262.6310729980469 136.2667999267578 289.65728759765625 C 140.85169982910156 290.4023742675781 136.90972900390625 285.3363952636719 139.1563720703125 283.3716735839844 C 139.7753448486328 258.7436218261719 143.16358947753906 234.01406860351562 144.1822967529297 207.79510498046875" stroke-width="2.0" fill="rgb(45, 54, 64)" opacity="1.2013593" stroke="rgb(0, 0, 0)" stroke-opacity="0.0" stroke-linecap="round" stroke-linejoin="round"/>
    <path d="M 469.42620849609375 182.34707641601562 C 460.82867431640625 186.34800720214844 461.9517822265625 199.6857147216797 471.6084899902344 199.57374572753906 C 472.80926513671875 194.58993530273438 469.3369140625 187.74354553222656 473.5297546386719 184.95066833496094 C 476.8520202636719 188.9392852783203 470.0120544433594 204.3089141845703 479.61114501953125 196.44686889648438 C 483.3066101074219 190.367919921875 477.8596496582031 179.8721160888672 469.42620849609375 182.34707641601562" stroke-width="2.0" fill="rgb(197, 136, 113)" opacity="1.0381329" stroke="rgb(0, 0, 0)" stroke-opacity="0.0" stroke-linecap="round" stroke-linejoin="round"/>
    <path d="M 69.93687438964844 254.04934692382812 C 71.08126068115234 261.6482238769531 63.93314743041992 279.138427734375 77.93067932128906 276.5644836425781 C 75.98631286621094 268.1375732421875 83.60733032226562 250.45359802246094 69.93687438964844 254.04934692382812" stroke-width="2.0" fill="rgb(127, 112, 113)" opacity="1.8900194" stroke="rgb(0, 0, 0)" stroke-opacity="0.0" stroke-linecap="round" stroke-linejoin="round"/>
    <path d="M 86.05357360839844 275.8089294433594 C 78.41968536376953 276.593994140625 66.3990478515625 274.7081298828125 69.677734375 285.8227844238281 C 77.19355773925781 288.3435974121094 90.04925537109375 288.8789367675781 86.05357360839844 275.8089294433594" stroke-width="2.0" fill="rgb(163, 127, 114)" opacity="0.9009172" stroke="rgb(0, 0, 0)" stroke-opacity="0.0" stroke-linecap="round" stroke-linejoin="round"/>
    <path d="M 331.9322204589844 251.8492431640625 C 332.72589111328125 259.7780456542969 327.8279113769531 275.0898742675781 341.71856689453125 271.5806884765625 C 340.40130615234375 263.1724548339844 346.4081726074219 247.9583740234375 331.9322204589844 251.8492431640625" stroke-width="2.0" fill="rgb(206, 192, 164)" opacity="0.9814931" stroke="rgb(0, 0, 0)" stroke-opacity="0.0" stroke-linecap="round" stroke-linejoin="round"/>
    <path d="M 301.4622802734375 246.83328247070312 C 299.9244384765625 254.5029754638672 295.62286376953125 270.8424987792969 309.0176086425781 267.82696533203125 C 307.1525573730469 260.0929260253906 314.055419921875 244.16629028320312 301.4622802734375 246.83328247070312" stroke-width="2.0" fill="rgb(113, 98, 101)" opacity="0.99510086" stroke="rgb(0, 0, 0)" stroke-opacity="0.0" stroke-linecap="round" stroke-linejoin="round"/>
    <path d="M 443.55755615234375 27.494375228881836 C 438.68267822265625 38.0850830078125 429.5968933105469 23.72405242919922 432.3183288574219 36.05464172363281 C 438.4054260253906 48.75279998779297 450.6539611816406 36.041378021240234 443.55755615234375 27.494375228881836" stroke-width="2.0" fill="rgb(162, 201, 180)" opacity="1.185364" stroke="rgb(0, 0, 0)" stroke-opacity="0.0" stroke-linecap="round" stroke-linejoin="round"/>
    <path d="M 470.65093994140625 272.52410888671875 C 464.0963439941406 279.7231750488281 463.8926696777344 290.02020263671875 475.8194885253906 286.764404296875 C 477.89337158203125 281.86138916015625 476.8122253417969 274.7107238769531 470.65093994140625 272.52410888671875" stroke-width="2.0" fill="rgb(32, 14, 51)" opacity="1.1093454" stroke="rgb(0, 0, 0)" stroke-opacity="0.0" stroke-linecap="round" stroke-linejoin="round"/>
    <path d="M 100.521240234375 276.4494323730469 C 92.24443054199219 285.85955810546875 108.92579650878906 293.9230651855469 107.98139953613281 281.7568359375 C 104.21529388427734 278.8333435058594 103.45513916015625 274.864501953125 100.521240234375 276.4494323730469" stroke-width="2.0" fill="rgb(30, 22, 48)" opacity="1.0301815" stroke="rgb(0, 0, 0)" stroke-opacity="0.0" stroke-linecap="round" stroke-linejoin="round"/>
    <path d="M 429.50653076171875 245.82455444335938 C 428.4613342285156 251.19235229492188 425.5630798339844 262.81463623046875 431.5308837890625 263.57452392578125 C 432.4830017089844 257.6437683105469 434.17083740234375 249.46070861816406 429.50653076171875 245.82455444335938" stroke-width="2.0" fill="rgb(151, 185, 165)" opacity="1.0307797" stroke="rgb(0, 0, 0)" stroke-opacity="0.0" stroke-linecap="round" stroke-linejoin="round"/>
    <path d="M 44.657005310058594 255.65762329101562 C 43.956302642822266 261.1756896972656 40.545082092285156 273.3927307128906 47.85668182373047 272.6750183105469 C 46.665748596191406 267.11846923828125 50.196598052978516 257.3493347167969 44.657005310058594 255.65762329101562" stroke-width="2.0" fill="rgb(36, 16, 45)" opacity="1.0166689" stroke="rgb(0, 0, 0)" stroke-opacity="0.0" stroke-linecap="round" stroke-linejoin="round"/>
    <path d="M 197.3297576904297 263.0252990722656 C 195.95497131347656 267.43670654296875 193.9268341064453 277.744873046875 201.34906005859375 276.2131652832031 C 200.11593627929688 271.9305419921875 204.34829711914062 262.291015625 197.3297576904297 263.0252990722656" stroke-width="2.0" fill="rgb(105, 169, 137)" opacity="1.0071931" stroke="rgb(0, 0, 0)" stroke-opacity="0.0" stroke-linecap="round" stroke-linejoin="round"/>
    <path d="M 390.39373779296875 265.9999084472656 C 386.9195251464844 279.4909362792969 398.8107604980469 279.537109375 396.92681884765625 266.00018310546875 L 390.39373779296875 265.9999084472656" stroke-width="2.0" fill="rgb(111, 93, 90)" opacity="0.7912563" stroke="rgb(0, 0, 0)" stroke-opacity="0.0" stroke-linecap="round" stroke-linejoin="round"/>
    <path d="M 196.5885009765625 249.12588500976562 C 193.14842224121094 262.6979064941406 204.49896240234375 262.7232971191406 201.44723510742188 249.1129608154297 L 196.5885009765625 249.12588500976562" stroke-width="2.0" fill="rgb(106, 167, 140)" opacity="0.9932561" stroke="rgb(0, 0, 0)" stroke-opacity="0.0" stroke-linecap="round" stroke-linejoin="round"/>
    <path d="M 380.5014343261719 254.95872497558594 C 375.9137268066406 272.2348327636719 397.1190490722656 255.57037353515625 380.5014343261719 254.95872497558594" stroke-width="2.0" fill="rgb(100, 81, 83)" opacity="0.691778" stroke="rgb(0, 0, 0)" stroke-opacity="0.0" stroke-linecap="round" stroke-linejoin="round"/>
    <path d="M 390.413330078125 254.9993438720703 C 386.9159240722656 265.84002685546875 400.1672668457031 266.2705993652344 396.74853515625 255.01913452148438 L 390.413330078125 254.9993438720703" stroke-width="2.0" fill="rgb(109, 104, 98)" opacity="1.1140927" stroke="rgb(0, 0, 0)" stroke-opacity="0.0" stroke-linecap="round" stroke-linejoin="round"/>
    <path d="M 479.0 291.0 C 474.3142395019531 291.416015625 467.0256042480469 288.73626708984375 464.0 293.0 C 468.535888671875 294.1798400878906 477.7207946777344 295.7377624511719 479.0 291.0" stroke-width="2.0" fill="rgb(175, 210, 180)" opacity="1.0003002" stroke="rgb(0, 0, 0)" stroke-opacity="0.0" stroke-linecap="round" stroke-linejoin="round"/>
    <path d="M 390.5224914550781 244.0630340576172 C 386.91510009765625 254.80421447753906 400.1085205078125 254.9472198486328 396.672607421875 244.0703125 L 390.5224914550781 244.0630340576172" stroke-width="2.0" fill="rgb(111, 105, 95)" opacity="1.1274337" stroke="rgb(0, 0, 0)" stroke-opacity="0.0" stroke-linecap="round" stroke-linejoin="round"/>
    <path d="M 227.5522003173828 257.9980773925781 C 222.98077392578125 269.19891357421875 233.85311889648438 269.2578430175781 230.47158813476562 258.00628662109375 L 227.5522003173828 257.9980773925781" stroke-width="2.0" fill="rgb(65, 41, 39)" opacity="1.0294167" stroke="rgb(0, 0, 0)" stroke-opacity="0.0" stroke-linecap="round" stroke-linejoin="round"/>
    <path d="M 226.86624145507812 248.1920623779297 C 223.49427795410156 261.57196044921875 236.82452392578125 250.4684600830078 226.86624145507812 248.1920623779297" stroke-width="2.0" fill="rgb(76, 64, 61)" opacity="1.0010421" stroke="rgb(0, 0, 0)" stroke-opacity="0.0" stroke-linecap="round" stroke-linejoin="round"/>
    <path d="M 43.88139343261719 247.90432739257812 C 41.124610900878906 258.8790588378906 53.47915267944336 248.68898010253906 43.88139343261719 247.90432739257812" stroke-width="2.0" fill="rgb(28, 13, 30)" opacity="1.0317694" stroke="rgb(0, 0, 0)" stroke-opacity="0.0" stroke-linecap="round" stroke-linejoin="round"/>
  </g>
</svg>
