<?xml version="1.0" ?>
<svg xmlns="http://www.w3.org/2000/svg" version="1.1" width="512" height="512">
  <defs/>
  <g>
    <path d="M 493.0 393.0 C 492.33013916015625 395.5 490.5 397.33013916015625 488.0 398.0 C 485.5 397.33013916015625 483.66986083984375 395.5 483.0 393.0 C 483.66986083984375 390.5 485.5 388.66986083984375 488.0 388.0 C 490.5 388.66986083984375 492.33013916015625 390.5 493.0 393.0" stroke-width="0.0" fill="rgb(24, 59, 78)" opacity="1.0" stroke="rgb(222, 204, 67)" stroke-opacity="0.7145846" stroke-linecap="round" stroke-linejoin="round"/>
    <path d="M 493.0 393.0 C 492.33013916015625 395.5 490.5 397.33013916015625 488.0 398.0 C 485.5 397.33013916015625 483.66986083984375 395.5 483.0 393.0 C 483.66986083984375 390.5 485.5 388.66986083984375 488.0 388.0 C 490.5 388.66986083984375 492.33013916015625 390.5 493.0 393.0" stroke-width="0.0" fill="rgb(24, 59, 78)" opacity="1.0" stroke="rgb(123, 160, 171)" stroke-opacity="0.4398993" stroke-linecap="round" stroke-linejoin="round"/>
    <path d="M 494.0 44.0 C 493.33013916015625 46.5 491.5 48.33012771606445 489.0 49.0 C 486.5 48.33012771606445 484.66986083984375 46.5 484.0 44.0 C 484.66986083984375 41.5 486.5 39.66987228393555 489.0 39.0 C 491.5 39.66987228393555 493.33013916015625 41.5 494.0 44.0" stroke-width="0.0" fill="rgb(24, 59, 78)" opacity="1.0" stroke="rgb(249, 18, 234)" stroke-opacity="0.3720794" stroke-linecap="round" stroke-linejoin="round"/>
  </g>
</svg>
