<?xml version="1.0" ?>
<svg xmlns="http://www.w3.org/2000/svg" version="1.1" width="512" height="512">
  <defs/>
  <g>
    <path d="M 497.0100402832031 397.02880859375 C 496.6918640136719 406.43414306640625 499.22308349609375 415.4875793457031 489.4313049316406 420.77764892578125 C 480.1952819824219 417.8887023925781 481.6776428222656 412.02459716796875 480.88677978515625 386.23260498046875 C 480.3085632324219 374.5252685546875 479.01708984375 371.77691650390625 479.09735107421875 361.2191162109375 C 496.4122314453125 367.25140380859375 496.6590576171875 377.9778137207031 497.0100402832031 397.02880859375" stroke-width="0.0" fill="rgb(30, 73, 99)" opacity="0.8716824" stroke="rgb(222, 204, 67)" stroke-opacity="0.7145846" stroke-linecap="round" stroke-linejoin="round"/>
    <path d="M 497.85272216796875 445.0169677734375 C 491.1351013183594 447.3063049316406 511.6533203125 465.80657958984375 479.7139587402344 469.8574523925781 C 478.6051025390625 429.0250244140625 480.1309509277344 413.6354064941406 478.982421875 384.2593688964844 C 483.2870178222656 334.2933654785156 467.0321044921875 312.84283447265625 497.5063781738281 317.15631103515625 C 497.48162841796875 351.8622741699219 497.42279052734375 364.94622802734375 497.85272216796875 445.0169677734375" stroke-width="0.0" fill="rgb(23, 55, 74)" opacity="0.9675052" stroke="rgb(123, 160, 171)" stroke-opacity="0.4398993" stroke-linecap="round" stroke-linejoin="round"/>
    <path d="M 497.9624328613281 74.66970825195312 C 493.2560729980469 103.91712188720703 508.36114501953125 117.53279113769531 480.30767822265625 118.25390625 C 472.44964599609375 54.786136627197266 498.0802917480469 22.654565811157227 445.8287048339844 34.63675308227539 C 404.98968505859375 17.02971076965332 408.74005126953125 11.815887451171875 484.47412109375 13.41938304901123 C 505.7041015625 10.524747848510742 494.72564697265625 17.411930084228516 497.9624328613281 74.66970825195312" stroke-width="0.0" fill="rgb(28, 58, 71)" opacity="0.95589674" stroke="rgb(249, 18, 234)" stroke-opacity="0.3720794" stroke-linecap="round" stroke-linejoin="round"/>
    <path d="M 511.0 439.0 C 510.33013916015625 441.5 508.5 443.33013916015625 506.0 444.0 C 503.5 443.33013916015625 501.66986083984375 441.5 501.0 439.0 C 501.66986083984375 436.5 503.5 434.66986083984375 506.0 434.0 C 508.5 434.66986083984375 510.33013916015625 436.5 511.0 439.0" stroke-width="0.0" fill="rgb(251, 232, 202)" opacity="1.0" stroke="rgb(65, 71, 73)" stroke-opacity="0.51379424" stroke-linecap="round" stroke-linejoin="round"/>
    <path d="M 510.0 216.0 C 509.33013916015625 218.5 507.5 220.3301239013672 505.0 221.0 C 502.5 220.3301239013672 500.66986083984375 218.5 500.0 216.0 C 500.66986083984375 213.5 502.5 211.6698760986328 505.0 211.0 C 507.5 211.6698760986328 509.33013916015625 213.5 510.0 216.0" stroke-width="0.0" fill="rgb(251, 232, 202)" opacity="1.0" stroke="rgb(118, 27, 234)" stroke-opacity="0.101909176" stroke-linecap="round" stroke-linejoin="round"/>
    <path d="M 511.0 280.0 C 510.33013916015625 282.5 508.5 284.33013916015625 506.0 285.0 C 503.5 284.33013916015625 501.66986083984375 282.5 501.0 280.0 C 501.66986083984375 277.5 503.5 275.66986083984375 506.0 275.0 C 508.5 275.66986083984375 510.33013916015625 277.5 511.0 280.0" stroke-width="0.0" fill="rgb(251, 232, 202)" opacity="1.0" stroke="rgb(206, 222, 73)" stroke-opacity="0.70751214" stroke-linecap="round" stroke-linejoin="round"/>
    <path d="M 511.0 37.0 C 510.33013916015625 39.5 508.5 41.33012771606445 506.0 42.0 C 503.5 41.33012771606445 501.66986083984375 39.5 501.0 37.0 C 501.66986083984375 34.5 503.5 32.66987228393555 506.0 32.0 C 508.5 32.66987228393555 510.33013916015625 34.5 511.0 37.0" stroke-width="0.0" fill="rgb(251, 232, 202)" opacity="1.0" stroke="rgb(42, 84, 168)" stroke-opacity="0.926123" stroke-linecap="round" stroke-linejoin="round"/>
  </g>
</svg>
