<?xml version="1.0" ?>
<svg xmlns="http://www.w3.org/2000/svg" version="1.1" width="512" height="365">
  <defs/>
  <g>
    <path d="M 239.03472900390625 -80.7655258178711 C 209.46075439453125 -13.105680465698242 206.84661865234375 49.15924835205078 223.45115661621094 257.8024597167969 C 106.75202178955078 239.5301971435547 167.94651794433594 187.43179321289062 167.3827362060547 125.12176513671875 C 234.97335815429688 36.67798614501953 204.6017608642578 161.237548828125 216.23707580566406 0.39463016390800476 C 250.79953002929688 -5.51468563079834 255.44700622558594 -2.6951308250427246 239.03472900390625 -80.7655258178711" stroke-width="0.0" fill="rgb(2, 21, 54)" opacity="0.7386023" stroke="rgb(18, 157, 30)" stroke-opacity="0.06094129" stroke-linecap="round" stroke-linejoin="round"/>
    <path d="M 309.9616394042969 250.46701049804688 C 258.43853759765625 164.0958251953125 439.66558837890625 74.11849975585938 543.3104858398438 360.21466064453125 C 32.14090347290039 433.59619140625 16.68216323852539 358.1133117675781 126.05052185058594 226.02960205078125 C 308.1231384277344 392.2177734375 214.01388549804688 145.92982482910156 279.3162536621094 188.42111206054688 C 292.2475280761719 283.01776123046875 266.5596618652344 202.3282928466797 309.9616394042969 250.46701049804688" stroke-width="0.0" fill="rgb(32, 33, 56)" opacity="1.0" stroke="rgb(197, 6, 74)" stroke-opacity="0.9180779" stroke-linecap="round" stroke-linejoin="round"/>
    <path d="M 318.98236083984375 120.2890853881836 C 320.09063720703125 148.24554443359375 296.9105529785156 170.766845703125 269.3776550292969 170.64193725585938 C 241.20335388183594 169.62025451660156 221.38462829589844 147.87911987304688 220.6960906982422 122.63736724853516 C 223.06503295898438 93.02303314208984 237.33827209472656 77.61898040771484 263.3179016113281 72.4106216430664 C 296.1637878417969 68.74720764160156 319.3002624511719 94.19978332519531 318.98236083984375 120.2890853881836" stroke-width="0.0" fill="rgb(255, 255, 207)" opacity="0.83738625" stroke="rgb(93, 253, 203)" stroke-opacity="0.60944885" stroke-linecap="round" stroke-linejoin="round"/>
    <path d="M 115.79203796386719 260.7027893066406 C 91.87413024902344 368.3288269042969 93.87288665771484 374.28802490234375 90.66751098632812 377.75469970703125 C -1.85761296749115 378.4929504394531 -6.272696018218994 378.4834899902344 -12.289057731628418 371.9661560058594 C -14.309046745300293 271.61883544921875 -22.282655715942383 229.12603759765625 42.562923431396484 241.03424072265625 C 158.61978149414062 183.94927978515625 188.7491455078125 204.1267852783203 115.79203796386719 260.7027893066406" stroke-width="0.0" fill="rgb(98, 45, 63)" opacity="0.790823" stroke="rgb(72, 118, 220)" stroke-opacity="0.45609048" stroke-linecap="round" stroke-linejoin="round"/>
    <path d="M 525.4867553710938 237.72723388671875 C 524.7061157226562 311.4346618652344 489.2048645019531 272.38970947265625 448.4103698730469 299.2922668457031 C 404.056640625 304.40576171875 431.4716491699219 317.296630859375 419.9181823730469 251.78892517089844 C 418.5950012207031 188.02203369140625 437.7257995605469 248.5669403076172 429.4851989746094 188.34503173828125 C 452.7385559082031 208.44427490234375 515.2158813476562 191.5757598876953 525.4867553710938 237.72723388671875" stroke-width="0.0" fill="rgb(216, 75, 70)" opacity="0.81719685" stroke="rgb(156, 111, 48)" stroke-opacity="0.23960486" stroke-linecap="round" stroke-linejoin="round"/>
    <path d="M 320.1686706542969 301.0274353027344 C 324.55908203125 316.12548828125 321.29278564453125 318.0052185058594 291.43243408203125 314.0091552734375 C 261.82061767578125 325.561767578125 283.4409484863281 296.4396667480469 276.8675231933594 257.8658752441406 C 264.501953125 195.80059814453125 281.1631164550781 267.048095703125 304.03826904296875 232.89569091796875 C 326.1780090332031 185.44383239746094 306.2828674316406 215.56069946289062 320.1686706542969 301.0274353027344" stroke-width="0.0" fill="rgb(193, 78, 69)" opacity="1.0" stroke="rgb(92, 199, 225)" stroke-opacity="0.33074307" stroke-linecap="round" stroke-linejoin="round"/>
    <path d="M 435.7196960449219 165.6428680419922 C 427.77764892578125 201.48239135742188 447.50244140625 213.5179443359375 365.30035400390625 193.66551208496094 C 394.7315673828125 140.1796112060547 368.61041259765625 140.18841552734375 391.09307861328125 127.02608489990234 C 337.7561950683594 97.46224975585938 398.6614074707031 68.8154525756836 403.095458984375 100.15019226074219 C 397.17523193359375 134.2795867919922 426.7820129394531 100.87202453613281 435.7196960449219 165.6428680419922" stroke-width="0.0" fill="rgb(25, 31, 56)" opacity="0.96820617" stroke="rgb(234, 154, 95)" stroke-opacity="0.379373" stroke-linecap="round" stroke-linejoin="round"/>
    <path d="M 104.25089263916016 306.1402893066406 C 113.75205993652344 347.5556945800781 104.65807342529297 363.6131896972656 102.09142303466797 375.57781982421875 C -1.8575835227966309 376.29296875 -4.872289180755615 374.33197021484375 -10.978874206542969 366.7200927734375 C -10.114079475402832 291.7955017089844 -9.013568878173828 289.06488037109375 0.19983084499835968 269.2020263671875 C 130.0747528076172 279.97064208984375 30.206804275512695 288.8000183105469 104.25089263916016 306.1402893066406" stroke-width="0.0" fill="rgb(8, 26, 54)" opacity="0.6200632" stroke="rgb(222, 71, 152)" stroke-opacity="0.079819575" stroke-linecap="round" stroke-linejoin="round"/>
    <path d="M 384.66851806640625 286.6483154296875 C 383.6204528808594 309.996826171875 391.27545166015625 308.45013427734375 356.8194274902344 308.6293640136719 C 356.5107116699219 285.8800354003906 354.48876953125 270.0572204589844 351.8067932128906 267.1397399902344 C 353.476806640625 240.06314086914062 340.9489440917969 239.29710388183594 368.603515625 236.5264892578125 C 370.1863708496094 247.2823486328125 383.0438232421875 254.97071838378906 384.66851806640625 286.6483154296875" stroke-width="0.0" fill="rgb(194, 64, 74)" opacity="0.95623523" stroke="rgb(249, 211, 117)" stroke-opacity="0.05713615" stroke-linecap="round" stroke-linejoin="round"/>
    <path d="M 195.0631866455078 235.55210876464844 C 175.48336791992188 306.0792236328125 165.1064453125 305.50311279296875 165.89659118652344 311.9037780761719 C 118.38106536865234 305.37249755859375 124.98783874511719 322.8329772949219 128.46250915527344 293.8791198730469 C 131.57730102539062 249.9462890625 148.69158935546875 317.3197326660156 133.99745178222656 226.7313232421875 C 189.68817138671875 254.30633544921875 197.3180389404297 242.21109008789062 195.0631866455078 235.55210876464844" stroke-width="0.0" fill="rgb(226, 84, 70)" opacity="0.84154373" stroke="rgb(86, 29, 83)" stroke-opacity="0.8309075" stroke-linecap="round" stroke-linejoin="round"/>
    <path d="M 206.71742248535156 277.1373596191406 C 200.03717041015625 289.59893798828125 207.63931274414062 290.0984191894531 182.64019775390625 285.076904296875 C 170.3636016845703 303.1212158203125 172.9911346435547 298.1221618652344 180.70460510253906 266.14501953125 C 195.4944305419922 245.0062255859375 192.01480102539062 266.3685607910156 172.5130157470703 192.1411895751953 C 239.50997924804688 169.87684631347656 215.0010223388672 217.0138397216797 206.71742248535156 277.1373596191406" stroke-width="0.0" fill="rgb(26, 32, 56)" opacity="1.0" stroke="rgb(232, 48, 230)" stroke-opacity="0.040185127" stroke-linecap="round" stroke-linejoin="round"/>
    <path d="M 347.1881103515625 158.85134887695312 C 345.0235290527344 170.7763214111328 339.6259765625 172.89768981933594 325.1041564941406 176.03677368164062 C 327.35125732421875 169.76541137695312 313.7572937011719 179.69775390625 319.8320617675781 156.84295654296875 C 316.1251525878906 151.20993041992188 320.3130798339844 145.3882598876953 334.25946044921875 145.3816680908203 C 342.1282958984375 146.0452117919922 346.0910949707031 150.25241088867188 347.1881103515625 158.85134887695312" stroke-width="0.0" fill="rgb(22, 30, 56)" opacity="0.9805602" stroke="rgb(13, 227, 147)" stroke-opacity="0.7920937" stroke-linecap="round" stroke-linejoin="round"/>
    <path d="M 253.29493713378906 315.5655517578125 C 233.68438720703125 304.2884216308594 266.12335205078125 315.90545654296875 214.06358337402344 313.0538330078125 C 218.4866943359375 317.8957824707031 193.40621948242188 314.5787048339844 198.58868408203125 301.41253662109375 C 218.1517791748047 252.18443298339844 193.2693328857422 222.4633331298828 246.8141632080078 255.8511505126953 C 241.93319702148438 323.32806396484375 252.48670959472656 254.92166137695312 253.29493713378906 315.5655517578125" stroke-width="0.0" fill="rgb(226, 87, 70)" opacity="0.8105802" stroke="rgb(78, 159, 107)" stroke-opacity="0.15574282" stroke-linecap="round" stroke-linejoin="round"/>
    <path d="M 383.686279296875 191.98300170898438 C 381.162109375 246.38055419921875 374.9542236328125 252.49794006347656 378.78546142578125 256.715087890625 C 349.5762634277344 246.6284637451172 352.6855163574219 246.23355102539062 348.8115539550781 221.46624755859375 C 347.0933837890625 184.5143585205078 349.41748046875 217.04774475097656 358.2089538574219 204.9579315185547 C 375.1573791503906 238.35227966308594 371.5487060546875 194.42514038085938 383.686279296875 191.98300170898438" stroke-width="0.0" fill="rgb(212, 96, 67)" opacity="1.0" stroke="rgb(224, 196, 70)" stroke-opacity="0.15038237" stroke-linecap="round" stroke-linejoin="round"/>
    <path d="M 379.6867370605469 170.1189727783203 C 373.0924987792969 180.35751342773438 374.7731628417969 186.86968994140625 366.72906494140625 201.04762268066406 C 344.0790710449219 178.5049285888672 356.7102355957031 184.3420867919922 336.33758544921875 175.18179321289062 C 343.7213439941406 164.8919677734375 352.50189208984375 164.61306762695312 375.64434814453125 165.13040161132812 C 372.46759033203125 160.4982147216797 371.5362548828125 159.75375366210938 379.6867370605469 170.1189727783203" stroke-width="0.0" fill="rgb(255, 134, 62)" opacity="0.9228207" stroke="rgb(205, 138, 220)" stroke-opacity="0.83860964" stroke-linecap="round" stroke-linejoin="round"/>
    <path d="M 127.0 224.0 C 126.33012390136719 226.5 124.5 228.3301239013672 122.0 229.0 C 119.5 228.3301239013672 117.66987609863281 226.5 117.0 224.0 C 117.66987609863281 221.5 119.5 219.6698760986328 122.0 219.0 C 124.5 219.6698760986328 126.33012390136719 221.5 127.0 224.0" stroke-width="0.0" fill="rgb(26, 32, 56)" opacity="1.0" stroke="rgb(71, 129, 106)" stroke-opacity="0.7780236" stroke-linecap="round" stroke-linejoin="round"/>
    <path d="M 123.0 196.0 C 122.33012390136719 198.5 120.5 200.3301239013672 118.0 201.0 C 115.5 200.3301239013672 113.66987609863281 198.5 113.0 196.0 C 113.66987609863281 193.5 115.5 191.6698760986328 118.0 191.0 C 120.5 191.6698760986328 122.33012390136719 193.5 123.0 196.0" stroke-width="0.0" fill="rgb(26, 32, 56)" opacity="1.0" stroke="rgb(10, 100, 73)" stroke-opacity="0.87185395" stroke-linecap="round" stroke-linejoin="round"/>
    <path d="M 171.0 198.0 C 170.3301239013672 200.5 168.5 202.3301239013672 166.0 203.0 C 163.5 202.3301239013672 161.6698760986328 200.5 161.0 198.0 C 161.6698760986328 195.5 163.5 193.6698760986328 166.0 193.0 C 168.5 193.6698760986328 170.3301239013672 195.5 171.0 198.0" stroke-width="0.0" fill="rgb(238, 126, 62)" opacity="1.0" stroke="rgb(229, 132, 26)" stroke-opacity="0.40659502" stroke-linecap="round" stroke-linejoin="round"/>
    <path d="M 342.0 294.0 C 341.33013916015625 296.5 339.5 298.33013916015625 337.0 299.0 C 334.5 298.33013916015625 332.66986083984375 296.5 332.0 294.0 C 332.66986083984375 291.5 334.5 289.66986083984375 337.0 289.0 C 339.5 289.66986083984375 341.33013916015625 291.5 342.0 294.0" stroke-width="0.0" fill="rgb(191, 64, 74)" opacity="1.0" stroke="rgb(227, 175, 219)" stroke-opacity="0.97473806" stroke-linecap="round" stroke-linejoin="round"/>
    <path d="M 105.0 278.0 C 104.33012390136719 280.5 102.5 282.33013916015625 100.0 283.0 C 97.5 282.33013916015625 95.66987609863281 280.5 95.0 278.0 C 95.66987609863281 275.5 97.5 273.66986083984375 100.0 273.0 C 102.5 273.66986083984375 104.33012390136719 275.5 105.0 278.0" stroke-width="0.0" fill="rgb(191, 64, 74)" opacity="1.0" stroke="rgb(4, 221, 124)" stroke-opacity="0.9511675" stroke-linecap="round" stroke-linejoin="round"/>
    <path d="M 147.0 212.0 C 146.3301239013672 214.5 144.5 216.3301239013672 142.0 217.0 C 139.5 216.3301239013672 137.6698760986328 214.5 137.0 212.0 C 137.6698760986328 209.5 139.5 207.6698760986328 142.0 207.0 C 144.5 207.6698760986328 146.3301239013672 209.5 147.0 212.0" stroke-width="0.0" fill="rgb(238, 126, 62)" opacity="1.0" stroke="rgb(130, 65, 64)" stroke-opacity="0.38521272" stroke-linecap="round" stroke-linejoin="round"/>
    <path d="M 89.0 231.0 C 88.33012390136719 233.5 86.5 235.3301239013672 84.0 236.0 C 81.5 235.3301239013672 79.66987609863281 233.5 79.0 231.0 C 79.66987609863281 228.5 81.5 226.6698760986328 84.0 226.0 C 86.5 226.6698760986328 88.33012390136719 228.5 89.0 231.0" stroke-width="0.0" fill="rgb(223, 89, 65)" opacity="1.0" stroke="rgb(172, 233, 188)" stroke-opacity="0.05581938" stroke-linecap="round" stroke-linejoin="round"/>
    <path d="M 238.0 203.0 C 237.3301239013672 205.5 235.5 207.3301239013672 233.0 208.0 C 230.5 207.3301239013672 228.6698760986328 205.5 228.0 203.0 C 228.6698760986328 200.5 230.5 198.6698760986328 233.0 198.0 C 235.5 198.6698760986328 237.3301239013672 200.5 238.0 203.0" stroke-width="0.0" fill="rgb(26, 32, 56)" opacity="1.0" stroke="rgb(17, 152, 166)" stroke-opacity="0.65013146" stroke-linecap="round" stroke-linejoin="round"/>
    <path d="M 222.0 247.0 C 221.3301239013672 249.5 219.5 251.3301239013672 217.0 252.0 C 214.5 251.3301239013672 212.6698760986328 249.5 212.0 247.0 C 212.6698760986328 244.5 214.5 242.6698760986328 217.0 242.0 C 219.5 242.6698760986328 221.3301239013672 244.5 222.0 247.0" stroke-width="0.0" fill="rgb(248, 156, 67)" opacity="1.0" stroke="rgb(251, 83, 66)" stroke-opacity="0.51949656" stroke-linecap="round" stroke-linejoin="round"/>
    <path d="M 100.0 293.0 C 99.33012390136719 295.5 97.5 297.33013916015625 95.0 298.0 C 92.5 297.33013916015625 90.66987609863281 295.5 90.0 293.0 C 90.66987609863281 290.5 92.5 288.66986083984375 95.0 288.0 C 97.5 288.66986083984375 99.33012390136719 290.5 100.0 293.0" stroke-width="0.0" fill="rgb(203, 66, 75)" opacity="1.0" stroke="rgb(74, 133, 130)" stroke-opacity="0.11428371" stroke-linecap="round" stroke-linejoin="round"/>
    <path d="M 106.0 218.0 C 105.33012390136719 220.5 103.5 222.3301239013672 101.0 223.0 C 98.5 222.3301239013672 96.66987609863281 220.5 96.0 218.0 C 96.66987609863281 215.5 98.5 213.6698760986328 101.0 213.0 C 103.5 213.6698760986328 105.33012390136719 215.5 106.0 218.0" stroke-width="0.0" fill="rgb(250, 160, 67)" opacity="1.0" stroke="rgb(103, 78, 67)" stroke-opacity="0.4901292" stroke-linecap="round" stroke-linejoin="round"/>
    <path d="M 95.0 279.0 C 94.33012390136719 281.5 92.5 283.33013916015625 90.0 284.0 C 87.5 283.33013916015625 85.66987609863281 281.5 85.0 279.0 C 85.66987609863281 276.5 87.5 274.66986083984375 90.0 274.0 C 92.5 274.66986083984375 94.33012390136719 276.5 95.0 279.0" stroke-width="0.0" fill="rgb(201, 66, 75)" opacity="1.0" stroke="rgb(142, 161, 116)" stroke-opacity="0.007837975" stroke-linecap="round" stroke-linejoin="round"/>
    <path d="M 49.0 259.0 C 48.33012771606445 261.5 46.5 263.33013916015625 44.0 264.0 C 41.5 263.33013916015625 39.66987228393555 261.5 39.0 259.0 C 39.66987228393555 256.5 41.5 254.6698760986328 44.0 254.0 C 46.5 254.6698760986328 48.33012771606445 256.5 49.0 259.0" stroke-width="0.0" fill="rgb(13, 30, 55)" opacity="1.0" stroke="rgb(32, 85, 178)" stroke-opacity="0.38075906" stroke-linecap="round" stroke-linejoin="round"/>
    <path d="M 57.0 281.0 C 56.33012771606445 283.5 54.5 285.33013916015625 52.0 286.0 C 49.5 285.33013916015625 47.66987228393555 283.5 47.0 281.0 C 47.66987228393555 278.5 49.5 276.66986083984375 52.0 276.0 C 54.5 276.66986083984375 56.33012771606445 278.5 57.0 281.0" stroke-width="0.0" fill="rgb(198, 65, 75)" opacity="1.0" stroke="rgb(205, 108, 121)" stroke-opacity="0.84897476" stroke-linecap="round" stroke-linejoin="round"/>
    <path d="M 315.0 227.0 C 314.33013916015625 229.5 312.5 231.3301239013672 310.0 232.0 C 307.5 231.3301239013672 305.66986083984375 229.5 305.0 227.0 C 305.66986083984375 224.5 307.5 222.6698760986328 310.0 222.0 C 312.5 222.6698760986328 314.33013916015625 224.5 315.0 227.0" stroke-width="0.0" fill="rgb(248, 156, 67)" opacity="1.0" stroke="rgb(248, 31, 217)" stroke-opacity="0.85562015" stroke-linecap="round" stroke-linejoin="round"/>
    <path d="M 12.0 263.0 C 11.330126762390137 265.5 9.5 267.33013916015625 7.0 268.0 C 4.5 267.33013916015625 2.669872999191284 265.5 2.0 263.0 C 2.669872999191284 260.5 4.5 258.66986083984375 7.0 258.0 C 9.5 258.66986083984375 11.330126762390137 260.5 12.0 263.0" stroke-width="0.0" fill="rgb(13, 29, 55)" opacity="1.0" stroke="rgb(88, 165, 11)" stroke-opacity="0.0043362738" stroke-linecap="round" stroke-linejoin="round"/>
  </g>
</svg>
