<?xml version="1.0" ?>
<svg xmlns="http://www.w3.org/2000/svg" version="1.1" width="512" height="352">
  <defs/>
  <g>
    <path d="M 145.9287872314453 233.03176879882812 C 136.22927856445312 265.03387451171875 155.0233917236328 248.33126831054688 97.10006713867188 269.8954772949219 C 61.411964416503906 250.15435791015625 66.94046783447266 243.342041015625 57.982261657714844 228.66207885742188 C 55.83150100708008 191.21885681152344 52.668453216552734 185.69488525390625 96.9217758178711 176.70155334472656 C 162.51246643066406 178.4681396484375 153.0558624267578 166.29586791992188 145.9287872314453 233.03176879882812" stroke-width="0.0" fill="rgb(214, 191, 159)" opacity="0.9490318" stroke="rgb(152, 59, 232)" stroke-opacity="0.008471028" stroke-linecap="round" stroke-linejoin="round"/>
    <path d="M 243.28878784179688 167.15347290039062 C 232.90701293945312 216.14695739746094 221.40432739257812 217.8668670654297 193.75875854492188 262.9373474121094 C 185.197265625 221.29566955566406 183.29454040527344 244.4104461669922 175.1403045654297 193.36013793945312 C 202.76870727539062 150.4859619140625 142.01126098632812 202.95220947265625 191.40606689453125 143.6301727294922 C 233.74099731445312 129.6860809326172 289.23419189453125 175.27854919433594 243.28878784179688 167.15347290039062" stroke-width="0.0" fill="rgb(0, 37, 5)" opacity="0.54321915" stroke="rgb(96, 55, 23)" stroke-opacity="0.49800745" stroke-linecap="round" stroke-linejoin="round"/>
    <path d="M 319.5343017578125 223.505126953125 C 336.3575134277344 253.60604858398438 332.62969970703125 241.60690307617188 265.85498046875 226.8295135498047 C 273.9686584472656 267.26300048828125 246.41421508789062 299.45159912109375 257.6134948730469 218.50674438476562 C 223.4602813720703 61.48657989501953 233.00634765625 92.43477630615234 262.51947021484375 195.6830291748047 C 293.1626281738281 199.48373413085938 319.1684875488281 189.19268798828125 319.5343017578125 223.505126953125" stroke-width="0.0" fill="rgb(36, 49, 26)" opacity="0.90076184" stroke="rgb(71, 91, 210)" stroke-opacity="0.8430703" stroke-linecap="round" stroke-linejoin="round"/>
    <path d="M 358.2904052734375 47.24369430541992 C 334.0989074707031 43.3751335144043 343.6284484863281 83.19886016845703 328.7842712402344 68.43505096435547 C 296.5469055175781 86.62832641601562 299.321044921875 88.57987213134766 306.6832275390625 74.35875701904297 C 314.7904052734375 34.31303405761719 317.2735290527344 17.79523277282715 331.41668701171875 38.15879440307617 C 336.2149353027344 62.78335952758789 318.5806579589844 34.321163177490234 358.2904052734375 47.24369430541992" stroke-width="0.0" fill="rgb(174, 89, 57)" opacity="1.0" stroke="rgb(49, 21, 64)" stroke-opacity="0.7991378" stroke-linecap="round" stroke-linejoin="round"/>
    <path d="M 277.436767578125 200.51162719726562 C 293.94482421875 232.65492248535156 314.2972717285156 239.54029846191406 274.2036437988281 226.83587646484375 C 266.7464599609375 241.4276885986328 253.99249267578125 211.41815185546875 262.68255615234375 205.05575561523438 C 288.2970886230469 195.1513671875 275.13983154296875 168.77430725097656 307.4778137207031 189.45152282714844 C 334.8465881347656 256.96075439453125 309.7773742675781 244.1795654296875 277.436767578125 200.51162719726562" stroke-width="0.0" fill="rgb(105, 138, 139)" opacity="1.0" stroke="rgb(98, 139, 102)" stroke-opacity="0.89339685" stroke-linecap="round" stroke-linejoin="round"/>
    <path d="M 333.9676208496094 59.98725128173828 C 315.23919677734375 81.24974822998047 275.26171875 109.57318878173828 302.890380859375 105.46919250488281 C 230.38345336914062 134.68414306640625 284.2665100097656 123.00176239013672 259.50262451171875 80.06126403808594 C 285.5234375 18.150489807128906 303.7757873535156 78.03582763671875 300.6141357421875 34.70005798339844 C 310.2802734375 30.529090881347656 312.48150634765625 61.81907653808594 333.9676208496094 59.98725128173828" stroke-width="0.0" fill="rgb(182, 88, 55)" opacity="0.91695297" stroke="rgb(68, 114, 199)" stroke-opacity="0.605329" stroke-linecap="round" stroke-linejoin="round"/>
    <path d="M 319.77178955078125 277.2252502441406 C 299.8942565917969 290.4024353027344 251.46124267578125 277.0960998535156 256.884521484375 285.3872985839844 C 145.07830810546875 283.7212219238281 285.6268615722656 278.9264221191406 148.37306213378906 275.1193542480469 C 201.93252563476562 259.5687561035156 257.2712097167969 297.7605895996094 254.13441467285156 247.67356872558594 C 258.22796630859375 310.32666015625 276.1327209472656 251.53634643554688 319.77178955078125 277.2252502441406" stroke-width="0.0" fill="rgb(0, 50, 69)" opacity="0.33166963" stroke="rgb(167, 187, 76)" stroke-opacity="0.868" stroke-linecap="round" stroke-linejoin="round"/>
    <path d="M 465.4561462402344 183.6262969970703 C 509.2104187011719 249.33657836914062 430.5381164550781 304.4715270996094 382.37310791015625 284.6405029296875 C 379.2254943847656 287.8612976074219 368.4731140136719 276.580322265625 372.97418212890625 274.50146484375 C 374.08099365234375 202.08120727539062 372.047119140625 229.7066650390625 439.60003662109375 199.39915466308594 C 453.120361328125 233.77532958984375 465.6305847167969 300.1100769042969 465.4561462402344 183.6262969970703" stroke-width="0.0" fill="rgb(72, 58, 72)" opacity="0.19746386" stroke="rgb(5, 253, 15)" stroke-opacity="0.9279504" stroke-linecap="round" stroke-linejoin="round"/>
    <path d="M 147.78367614746094 131.5855712890625 C 127.43415069580078 112.85921478271484 105.84439849853516 168.993408203125 125.48089599609375 128.115478515625 C 85.2650146484375 158.17291259765625 110.72822570800781 159.41070556640625 102.99222564697266 171.49874877929688 C 79.94407653808594 140.59194946289062 116.73450469970703 112.36198425292969 127.53741455078125 123.55499267578125 C 112.8372573852539 115.32694244384766 160.09019470214844 128.24685668945312 147.78367614746094 131.5855712890625" stroke-width="0.0" fill="rgb(115, 19, 2)" opacity="0.6194604" stroke="rgb(41, 168, 154)" stroke-opacity="0.09973988" stroke-linecap="round" stroke-linejoin="round"/>
    <path d="M 241.53651428222656 105.32676696777344 C 242.74578857421875 112.11639404296875 237.9094696044922 101.41515350341797 251.25694274902344 155.2751007080078 C 237.52108764648438 146.99102783203125 239.3826446533203 126.27333068847656 236.67808532714844 112.63929748535156 C 234.045654296875 98.08300018310547 243.75465393066406 67.07292175292969 270.3998107910156 63.97868728637695 C 256.489013671875 73.4994125366211 244.45455932617188 78.81644439697266 241.53651428222656 105.32676696777344" stroke-width="0.0" fill="rgb(41, 54, 31)" opacity="0.99060106" stroke="rgb(85, 221, 187)" stroke-opacity="0.39412436" stroke-linecap="round" stroke-linejoin="round"/>
    <path d="M 123.48685455322266 238.330078125 C 127.78125762939453 324.4907531738281 -22.68263053894043 270.97271728515625 96.32267761230469 265.06134033203125 C 130.9308319091797 242.44252014160156 118.93959045410156 263.0207824707031 100.34274291992188 249.39659118652344 C 113.30774688720703 248.19000244140625 128.30043029785156 242.19874572753906 117.15624237060547 236.28099060058594 C 94.0198745727539 255.46139526367188 96.26946258544922 191.37338256835938 123.48685455322266 238.330078125" stroke-width="0.0" fill="rgb(146, 65, 18)" opacity="0.28696665" stroke="rgb(234, 8, 0)" stroke-opacity="0.80803746" stroke-linecap="round" stroke-linejoin="round"/>
    <path d="M 261.4137268066406 167.35491943359375 C 250.26687622070312 162.151611328125 246.81109619140625 178.67526245117188 249.6098175048828 180.3411865234375 C 231.8973388671875 183.85589599609375 241.57843017578125 206.1517333984375 237.0916290283203 162.0409698486328 C 224.0380096435547 161.86123657226562 255.65924072265625 156.4615020751953 251.57339477539062 155.1237030029297 C 265.0062255859375 139.7480926513672 258.0182800292969 153.84823608398438 261.4137268066406 167.35491943359375" stroke-width="0.0" fill="rgb(108, 134, 114)" opacity="1.0" stroke="rgb(5, 61, 36)" stroke-opacity="0.5226483" stroke-linecap="round" stroke-linejoin="round"/>
    <path d="M 453.33331298828125 246.3646697998047 C 454.0059509277344 208.5442657470703 439.32464599609375 194.2840576171875 440.9331970214844 199.10101318359375 C 426.5785217285156 204.70921325683594 409.551025390625 197.20741271972656 417.02227783203125 200.24864196777344 C 445.43084716796875 192.86427307128906 438.4644470214844 180.28411865234375 392.0438232421875 171.375 C 434.0003967285156 171.79702758789062 458.9461975097656 203.47715759277344 453.33331298828125 246.3646697998047" stroke-width="0.0" fill="rgb(43, 35, 41)" opacity="0.5156474" stroke="rgb(101, 186, 217)" stroke-opacity="0.2249338" stroke-linecap="round" stroke-linejoin="round"/>
    <path d="M 377.8106384277344 271.70367431640625 C 367.11260986328125 274.1395568847656 372.66912841796875 277.8556213378906 358.1163635253906 280.4331970214844 C 325.794677734375 276.62200927734375 318.8380126953125 268.6949462890625 333.0781555175781 259.25225830078125 C 338.39202880859375 254.80886840820312 351.88140869140625 269.5107116699219 348.1510009765625 219.53866577148438 C 352.282958984375 233.97998046875 374.16619873046875 246.09580993652344 377.8106384277344 271.70367431640625" stroke-width="0.0" fill="rgb(58, 53, 56)" opacity="0.5821098" stroke="rgb(95, 133, 179)" stroke-opacity="0.9018501" stroke-linecap="round" stroke-linejoin="round"/>
    <path d="M 390.8851013183594 229.8187255859375 C 388.5829772949219 262.72625732421875 415.8226623535156 248.32167053222656 446.8948059082031 280.8146667480469 C 356.6387939453125 289.9869079589844 377.54254150390625 296.16400146484375 354.471923828125 219.46363830566406 C 335.34716796875 147.21302795410156 342.7947692871094 135.52908325195312 426.3307189941406 187.89662170410156 C 450.2184753417969 216.54452514648438 393.2544860839844 206.25621032714844 390.8851013183594 229.8187255859375" stroke-width="0.0" fill="rgb(78, 56, 72)" opacity="0.2116596" stroke="rgb(29, 36, 128)" stroke-opacity="0.5769518" stroke-linecap="round" stroke-linejoin="round"/>
    <path d="M 406.1309509277344 174.38058471679688 C 405.21783447265625 180.71798706054688 400.3967590332031 192.80126953125 382.0373229980469 192.4044189453125 C 393.4327087402344 193.3793182373047 397.5848388671875 180.75662231445312 396.3144226074219 180.3779296875 C 397.6544494628906 183.11306762695312 398.554443359375 159.3943634033203 381.8875427246094 170.52468872070312 C 409.0641174316406 169.5694580078125 416.7823486328125 178.4329071044922 406.1309509277344 174.38058471679688" stroke-width="0.0" fill="rgb(67, 64, 65)" opacity="0.577116" stroke="rgb(144, 212, 195)" stroke-opacity="0.28150797" stroke-linecap="round" stroke-linejoin="round"/>
    <path d="M 392.4252624511719 232.4462890625 C 402.3081970214844 230.48170471191406 387.1795349121094 237.63961791992188 378.4588623046875 228.4731903076172 C 379.51776123046875 224.87765502929688 362.86285400390625 253.15988159179688 394.9822692871094 274.57440185546875 C 357.88677978515625 257.6092834472656 371.3213195800781 205.84555053710938 410.8783264160156 212.4683380126953 C 387.22039794921875 213.62022399902344 373.1352233886719 223.35562133789062 392.4252624511719 232.4462890625" stroke-width="0.0" fill="rgb(67, 68, 66)" opacity="0.7258246" stroke="rgb(90, 45, 12)" stroke-opacity="0.966945" stroke-linecap="round" stroke-linejoin="round"/>
    <path d="M 243.06871032714844 150.8147430419922 C 236.86056518554688 152.19422912597656 234.6479034423828 154.6070098876953 230.3729248046875 160.61322021484375 C 232.03045654296875 160.75888061523438 232.59925842285156 152.2172088623047 228.4643096923828 145.60748291015625 C 223.5465545654297 139.5785369873047 222.9004364013672 142.29635620117188 241.62295532226562 147.59230041503906 C 242.16250610351562 140.6876220703125 239.26266479492188 142.07305908203125 243.06871032714844 150.8147430419922" stroke-width="0.0" fill="rgb(244, 255, 255)" opacity="0.7374565" stroke="rgb(71, 205, 140)" stroke-opacity="0.44604528" stroke-linecap="round" stroke-linejoin="round"/>
    <path d="M 226.2974395751953 143.01715087890625 C 235.7039031982422 157.7613525390625 225.8979949951172 140.3917236328125 209.8460693359375 136.5384979248047 C 194.24952697753906 150.03720092773438 208.992431640625 139.6404571533203 202.44940185546875 133.43348693847656 C 212.6575469970703 134.5302276611328 210.42637634277344 136.24502563476562 215.0509490966797 135.10108947753906 C 208.73182678222656 136.70001220703125 214.1117401123047 133.40609741210938 226.2974395751953 143.01715087890625" stroke-width="0.0" fill="rgb(22, 36, 10)" opacity="0.9021372" stroke="rgb(188, 50, 179)" stroke-opacity="0.9567198" stroke-linecap="round" stroke-linejoin="round"/>
    <path d="M 65.4605941772461 217.5509490966797 C 58.07638168334961 220.54278564453125 49.73048782348633 225.37049865722656 43.36909484863281 216.1747589111328 C 48.72797775268555 202.96043395996094 28.71417999267578 242.3843994140625 43.95694351196289 267.9216003417969 C 31.83102035522461 229.52430725097656 45.9416389465332 195.00344848632812 71.92324829101562 182.76646423339844 C 43.937374114990234 204.47686767578125 40.953453063964844 215.13710021972656 65.4605941772461 217.5509490966797" stroke-width="0.0" fill="rgb(146, 76, 60)" opacity="0.71824765" stroke="rgb(95, 96, 152)" stroke-opacity="0.19404416" stroke-linecap="round" stroke-linejoin="round"/>
    <path d="M 381.7608642578125 117.69791412353516 C 390.39532470703125 125.61125946044922 392.9585266113281 117.46949005126953 360.85491943359375 115.79036712646484 C 340.3699645996094 116.85568237304688 388.04840087890625 108.23545837402344 344.9091796875 113.5167236328125 C 381.641357421875 102.5839614868164 343.69378662109375 121.07405853271484 382.6628723144531 96.39653778076172 C 353.3946533203125 122.61690521240234 362.7546691894531 99.38114166259766 381.7608642578125 117.69791412353516" stroke-width="0.0" fill="rgb(25, 15, 22)" opacity="0.51980865" stroke="rgb(164, 80, 29)" stroke-opacity="0.27169463" stroke-linecap="round" stroke-linejoin="round"/>
    <path d="M 89.18411254882812 203.00730895996094 C 90.9437026977539 203.629150390625 80.71430969238281 206.71356201171875 77.90620422363281 207.08204650878906 C 62.22660827636719 210.79388427734375 56.5927848815918 204.03009033203125 53.910099029541016 197.5878143310547 C 67.08126068115234 176.81695556640625 106.01371765136719 174.458984375 68.33404541015625 186.37220764160156 C 49.024452209472656 192.27159118652344 84.41654205322266 206.27072143554688 89.18411254882812 203.00730895996094" stroke-width="0.0" fill="rgb(95, 0, 2)" opacity="0.40276003" stroke="rgb(185, 86, 217)" stroke-opacity="0.012220794" stroke-linecap="round" stroke-linejoin="round"/>
    <path d="M 370.7919921875 262.5066223144531 C 367.8111267089844 271.7867736816406 355.3374938964844 263.99114990234375 349.9553527832031 276.686767578125 C 339.0671081542969 278.2577209472656 356.4564514160156 261.7253723144531 343.1847229003906 274.1297607421875 C 337.3910217285156 266.6520690917969 360.1556091308594 257.5297546386719 360.2115173339844 265.2872314453125 C 364.54925537109375 254.19444274902344 370.82928466796875 255.18685913085938 370.7919921875 262.5066223144531" stroke-width="0.0" fill="rgb(193, 192, 193)" opacity="0.8176936" stroke="rgb(40, 216, 194)" stroke-opacity="0.5864512" stroke-linecap="round" stroke-linejoin="round"/>
    <path d="M 105.76463317871094 142.6840362548828 C 92.97787475585938 182.5443572998047 157.43740844726562 240.9444122314453 168.9161376953125 141.45135498046875 C 81.1561279296875 123.1976089477539 106.33655548095703 162.85545349121094 110.8180160522461 181.7458038330078 C 85.32539367675781 148.42001342773438 100.93643951416016 137.64234924316406 111.5647964477539 129.16038513183594 C 125.45757293701172 124.2926254272461 110.94548797607422 127.38902282714844 105.76463317871094 142.6840362548828" stroke-width="0.0" fill="rgb(205, 184, 156)" opacity="1.0" stroke="rgb(244, 28, 21)" stroke-opacity="0.32996857" stroke-linecap="round" stroke-linejoin="round"/>
    <path d="M 349.90228271484375 126.42179107666016 C 350.6937561035156 129.9226531982422 346.69488525390625 136.27626037597656 342.72308349609375 132.76124572753906 C 344.9952087402344 138.46620178222656 341.3752136230469 123.09404754638672 349.1888122558594 124.81150817871094 C 342.4913024902344 124.92743682861328 347.4378662109375 130.4566192626953 348.23712158203125 130.28567504882812 C 344.88861083984375 117.34307861328125 347.36639404296875 123.88691711425781 349.90228271484375 126.42179107666016" stroke-width="0.0" fill="rgb(14, 14, 12)" opacity="0.9424524" stroke="rgb(77, 237, 152)" stroke-opacity="0.2735447" stroke-linecap="round" stroke-linejoin="round"/>
    <path d="M 271.06951904296875 57.8421516418457 C 265.0373840332031 71.4729232788086 277.5079650878906 62.18988037109375 260.1979064941406 71.24394226074219 C 271.50592041015625 58.63801193237305 263.8183288574219 66.25312042236328 249.5135040283203 64.89810943603516 C 277.07208251953125 51.029788970947266 263.3734130859375 63.40757369995117 257.595703125 48.61652374267578 C 266.0072326660156 58.21351623535156 290.2054748535156 46.940521240234375 271.06951904296875 57.8421516418457" stroke-width="0.0" fill="rgb(35, 48, 24)" opacity="0.9415566" stroke="rgb(52, 25, 135)" stroke-opacity="0.28656027" stroke-linecap="round" stroke-linejoin="round"/>
    <path d="M 327.1122741699219 130.68075561523438 C 335.431640625 139.5868377685547 302.6568603515625 134.5769500732422 351.01300048828125 167.204345703125 C 318.7942199707031 152.18426513671875 323.6614685058594 141.6825714111328 321.1589660644531 136.1876983642578 C 320.8450012207031 127.48515319824219 326.1081848144531 130.75564575195312 334.7662353515625 124.8654556274414 C 358.4434814453125 100.07221221923828 341.9729309082031 124.13041687011719 327.1122741699219 130.68075561523438" stroke-width="0.0" fill="rgb(38, 34, 36)" opacity="0.68361026" stroke="rgb(141, 156, 2)" stroke-opacity="0.96343255" stroke-linecap="round" stroke-linejoin="round"/>
    <path d="M 278.7152404785156 54.3077507019043 C 280.119384765625 71.41524505615234 309.9195251464844 77.54964447021484 309.6862487792969 84.68921661376953 C 273.6213684082031 58.77915573120117 268.0639343261719 64.33535766601562 271.5535888671875 53.04737091064453 C 274.7561950683594 54.14262008666992 277.5289611816406 58.242584228515625 265.9039306640625 53.87647247314453 C 267.8691711425781 55.611900329589844 268.8861083984375 51.567203521728516 278.7152404785156 54.3077507019043" stroke-width="0.0" fill="rgb(40, 55, 32)" opacity="0.98335457" stroke="rgb(115, 99, 93)" stroke-opacity="0.44094145" stroke-linecap="round" stroke-linejoin="round"/>
    <path d="M 322.39764404296875 230.44432067871094 C 329.1427307128906 245.17857360839844 327.9510498046875 236.4103240966797 327.2052917480469 242.7240753173828 C 315.1620788574219 233.86561584472656 316.9653015136719 221.69786071777344 284.0760192871094 202.28768920898438 C 335.60040283203125 210.3369903564453 306.7268371582031 220.55152893066406 325.2938537597656 232.84091186523438 C 319.51171875 222.47047424316406 327.06298828125 236.02960205078125 322.39764404296875 230.44432067871094" stroke-width="0.0" fill="rgb(108, 145, 151)" opacity="1.0" stroke="rgb(46, 179, 110)" stroke-opacity="0.51773804" stroke-linecap="round" stroke-linejoin="round"/>
    <path d="M 374.3223876953125 259.1029357910156 C 380.6714172363281 262.29400634765625 373.7832946777344 272.7159423828125 362.9681396484375 277.52008056640625 C 345.91351318359375 281.82965087890625 351.2107849121094 273.0491638183594 358.4601745605469 269.2937316894531 C 369.835205078125 242.16839599609375 372.9507141113281 286.2964782714844 373.93438720703125 234.01638793945312 C 373.7851867675781 250.52928161621094 375.2310791015625 250.86700439453125 374.3223876953125 259.1029357910156" stroke-width="0.0" fill="rgb(158, 159, 157)" opacity="0.7836554" stroke="rgb(189, 106, 169)" stroke-opacity="0.14594768" stroke-linecap="round" stroke-linejoin="round"/>
    <path d="M 373.66717529296875 254.7080841064453 C 373.5508728027344 262.7480773925781 376.53192138671875 263.2879638671875 362.0364074707031 275.06085205078125 C 344.96044921875 280.67132568359375 353.748046875 275.34613037109375 357.7494201660156 257.5965270996094 C 384.10986328125 255.3333740234375 351.7540283203125 255.18582153320312 363.232177734375 249.1978302001953 C 378.845947265625 249.8794708251953 371.4883117675781 250.40525817871094 373.66717529296875 254.7080841064453" stroke-width="0.0" fill="rgb(178, 178, 178)" opacity="0.9770978" stroke="rgb(185, 229, 188)" stroke-opacity="0.13085178" stroke-linecap="round" stroke-linejoin="round"/>
    <path d="M 395.1531982421875 124.41999053955078 C 392.9325866699219 190.42236328125 391.0574645996094 174.30699157714844 375.9059143066406 158.63882446289062 C 357.54852294921875 156.62022399902344 329.1001892089844 136.7482147216797 344.21905517578125 133.80931091308594 C 360.74267578125 130.54652404785156 332.0413513183594 105.09536743164062 358.6123352050781 116.19149017333984 C 393.5758972167969 124.55996704101562 408.2126159667969 89.02006530761719 395.1531982421875 124.41999053955078" stroke-width="0.0" fill="rgb(158, 152, 157)" opacity="0.70179" stroke="rgb(176, 57, 35)" stroke-opacity="0.82202125" stroke-linecap="round" stroke-linejoin="round"/>
    <path d="M 459.8735656738281 176.6781463623047 C 459.77215576171875 179.19955444335938 439.8823547363281 171.34237670898438 460.6979064941406 197.19879150390625 C 454.0768127441406 192.0084991455078 431.7268371582031 163.41659545898438 444.8697509765625 137.98777770996094 C 457.4850769042969 166.527099609375 431.3398742675781 189.5804901123047 455.2122802734375 143.36700439453125 C 449.74969482421875 158.49349975585938 456.79022216796875 168.65985107421875 459.8735656738281 176.6781463623047" stroke-width="0.0" fill="rgb(44, 38, 42)" opacity="0.60320485" stroke="rgb(142, 194, 16)" stroke-opacity="0.91583794" stroke-linecap="round" stroke-linejoin="round"/>
    <path d="M 441.03125 194.66822814941406 C 420.20489501953125 175.43389892578125 438.118896484375 188.0050811767578 407.6629943847656 195.4405059814453 C 396.3486633300781 197.00009155273438 400.2960205078125 198.74447631835938 408.61279296875 191.66136169433594 C 414.23406982421875 186.58340454101562 415.4750061035156 183.91537475585938 419.49310302734375 177.90762329101562 C 397.3677673339844 171.66651916503906 429.96722412109375 173.53977966308594 441.03125 194.66822814941406" stroke-width="0.0" fill="rgb(6, 0, 2)" opacity="0.35004863" stroke="rgb(74, 64, 141)" stroke-opacity="0.70899653" stroke-linecap="round" stroke-linejoin="round"/>
    <path d="M 131.79713439941406 300.14263916015625 C 120.60138702392578 317.43536376953125 141.20384216308594 305.6566467285156 160.0016632080078 316.9443664550781 C 125.44960021972656 305.5140380859375 99.95499420166016 313.9497985839844 119.12589263916016 309.9443664550781 C 128.4408416748047 289.78314208984375 119.3166275024414 303.8486328125 122.87008666992188 299.88348388671875 C 148.00149536132812 298.29949951171875 155.8316192626953 304.83673095703125 131.79713439941406 300.14263916015625" stroke-width="0.0" fill="rgb(130, 58, 42)" opacity="0.7178865" stroke="rgb(125, 88, 91)" stroke-opacity="0.3944759" stroke-linecap="round" stroke-linejoin="round"/>
    <path d="M 149.13528442382812 312.0521240234375 C 72.6346435546875 310.7994384765625 63.349449157714844 304.6582946777344 86.26961517333984 307.5326232910156 C 126.57072448730469 308.57562255859375 130.60433959960938 306.1658020019531 101.6684341430664 307.88470458984375 C 100.48451232910156 299.316650390625 113.97754669189453 291.68927001953125 108.35078430175781 308.58367919921875 C 103.78684997558594 308.7535095214844 120.98340606689453 308.03765869140625 149.13528442382812 312.0521240234375" stroke-width="0.0" fill="rgb(87, 28, 25)" opacity="0.6781353" stroke="rgb(3, 78, 14)" stroke-opacity="0.9326141" stroke-linecap="round" stroke-linejoin="round"/>
    <path d="M 100.51889038085938 196.31515502929688 C 94.24274444580078 195.980224609375 90.11151885986328 196.0531768798828 97.71223449707031 196.25392150878906 C 87.95652770996094 198.75308227539062 72.71627044677734 194.4313201904297 69.97171020507812 187.25967407226562 C 68.72613525390625 184.52761840820312 83.2274169921875 179.4873809814453 81.62588500976562 183.4935302734375 C 83.470947265625 190.59239196777344 92.83744812011719 191.992919921875 100.51889038085938 196.31515502929688" stroke-width="0.0" fill="rgb(182, 129, 114)" opacity="1.0" stroke="rgb(193, 0, 53)" stroke-opacity="0.5027652" stroke-linecap="round" stroke-linejoin="round"/>
    <path d="M 440.7412414550781 161.1385955810547 C 458.9767761230469 156.9453125 453.5904846191406 172.1287078857422 451.92694091796875 171.65103149414062 C 441.3287658691406 176.966064453125 444.1275939941406 161.92825317382812 442.83172607421875 148.01014709472656 C 446.7113952636719 126.54841613769531 455.2301940917969 132.60739135742188 442.3387451171875 139.5496826171875 C 455.42999267578125 131.1243438720703 464.5182189941406 140.57383728027344 440.7412414550781 161.1385955810547" stroke-width="0.0" fill="rgb(175, 175, 175)" opacity="0.94401103" stroke="rgb(0, 103, 231)" stroke-opacity="0.2983339" stroke-linecap="round" stroke-linejoin="round"/>
    <path d="M 123.19992065429688 286.6605224609375 C 119.31306457519531 292.107177734375 91.25328826904297 289.90106201171875 102.00248718261719 288.887451171875 C 94.43428802490234 290.6059875488281 82.51998901367188 287.7046203613281 70.58524322509766 287.8686828613281 C 117.56690216064453 282.2389831542969 56.89104080200195 293.45355224609375 51.21089553833008 274.2327880859375 C 54.5093879699707 292.07159423828125 78.4319839477539 285.6049499511719 123.19992065429688 286.6605224609375" stroke-width="0.0" fill="rgb(77, 38, 35)" opacity="0.6020129" stroke="rgb(235, 15, 129)" stroke-opacity="0.23419334" stroke-linecap="round" stroke-linejoin="round"/>
    <path d="M 145.44688415527344 237.46861267089844 C 149.01255798339844 271.45404052734375 142.97665405273438 244.19773864746094 144.02207946777344 237.70578002929688 C 131.82020568847656 239.4945068359375 129.15408325195312 246.09019470214844 135.5999298095703 237.26930236816406 C 137.37391662597656 235.56002807617188 140.39120483398438 232.7906036376953 144.70045471191406 230.8753204345703 C 151.2763214111328 193.1502227783203 153.65692138671875 191.05833435058594 145.44688415527344 237.46861267089844" stroke-width="0.0" fill="rgb(103, 49, 47)" opacity="0.7658124" stroke="rgb(96, 101, 11)" stroke-opacity="0.05746356" stroke-linecap="round" stroke-linejoin="round"/>
    <path d="M 169.0786895751953 321.98895263671875 C 152.38706970214844 324.0421142578125 168.96798706054688 330.0065612792969 154.22450256347656 314.0013427734375 C 126.02621459960938 304.96875 123.75167083740234 316.9712829589844 131.0893096923828 300.15020751953125 C 151.23199462890625 303.7403259277344 148.63461303710938 300.3566589355469 134.83865356445312 299.1901550292969 C 145.43080139160156 299.6362609863281 173.48040771484375 304.39312744140625 169.0786895751953 321.98895263671875" stroke-width="0.0" fill="rgb(213, 180, 141)" opacity="0.7698795" stroke="rgb(133, 138, 235)" stroke-opacity="0.5114673" stroke-linecap="round" stroke-linejoin="round"/>
    <path d="M 215.7951202392578 138.45155334472656 C 231.80482482910156 144.74859619140625 239.27490234375 158.36863708496094 193.3313446044922 148.1115264892578 C 189.447021484375 137.15716552734375 209.28187561035156 149.70143127441406 205.42147827148438 135.2652130126953 C 214.48141479492188 136.61953735351562 216.2617645263672 141.42112731933594 214.68260192871094 138.44166564941406 C 204.04212951660156 134.0609130859375 207.26431274414062 135.87376403808594 215.7951202392578 138.45155334472656" stroke-width="0.0" fill="rgb(128, 154, 136)" opacity="0.9214847" stroke="rgb(208, 87, 250)" stroke-opacity="0.05088872" stroke-linecap="round" stroke-linejoin="round"/>
    <path d="M 478.6459655761719 227.72654724121094 C 458.9576721191406 283.4355773925781 461.7630920410156 245.32595825195312 419.9674072265625 267.5086669921875 C 468.1863098144531 273.1141052246094 482.1805419921875 248.1134796142578 418.5711975097656 265.6302185058594 C 420.4017333984375 259.4302978515625 453.12579345703125 262.77178955078125 438.3370056152344 242.91648864746094 C 449.28607177734375 249.9451446533203 465.151611328125 286.56585693359375 478.6459655761719 227.72654724121094" stroke-width="0.0" fill="rgb(136, 136, 135)" opacity="1.0" stroke="rgb(191, 54, 56)" stroke-opacity="0.1238836" stroke-linecap="round" stroke-linejoin="round"/>
    <path d="M 474.43701171875 244.2772674560547 C 484.1211853027344 195.05738830566406 451.2631530761719 161.79367065429688 467.9002685546875 220.162841796875 C 462.240234375 248.58299255371094 473.29473876953125 211.21815490722656 451.6485290527344 186.42637634277344 C 463.25201416015625 187.0302734375 464.4169921875 186.837890625 452.3296203613281 163.63597106933594 C 459.3592834472656 180.4569091796875 488.5297546386719 200.45518493652344 474.43701171875 244.2772674560547" stroke-width="0.0" fill="rgb(4, 0, 1)" opacity="0.43924138" stroke="rgb(72, 15, 89)" stroke-opacity="0.5494902" stroke-linecap="round" stroke-linejoin="round"/>
    <path d="M 325.2103271484375 238.81817626953125 C 331.4458312988281 244.602783203125 324.7989807128906 243.52175903320312 310.25787353515625 238.50811767578125 C 337.8358154296875 245.79443359375 316.4694519042969 239.69000244140625 308.16668701171875 235.8310089111328 C 315.9454040527344 231.2088165283203 278.93212890625 193.87567138671875 306.01641845703125 217.8940887451172 C 323.7286682128906 237.48387145996094 323.8072814941406 236.95639038085938 325.2103271484375 238.81817626953125" stroke-width="0.0" fill="rgb(92, 122, 126)" opacity="1.0" stroke="rgb(253, 93, 92)" stroke-opacity="0.52762306" stroke-linecap="round" stroke-linejoin="round"/>
    <path d="M 357.8056945800781 129.7533721923828 C 355.3106689453125 153.79563903808594 361.4327697753906 147.48753356933594 348.8052062988281 159.77426147460938 C 334.68048095703125 163.35089111328125 316.974853515625 141.77175903320312 327.99029541015625 135.9835205078125 C 327.2532653808594 134.11239624023438 325.0951232910156 128.84896850585938 354.2257995605469 116.70962524414062 C 342.407958984375 128.0670623779297 337.69451904296875 139.79176330566406 357.8056945800781 129.7533721923828" stroke-width="0.0" fill="rgb(171, 164, 169)" opacity="0.51322734" stroke="rgb(242, 90, 209)" stroke-opacity="0.8731099" stroke-linecap="round" stroke-linejoin="round"/>
    <path d="M 104.80841827392578 299.0502014160156 C 106.80091857910156 295.4439697265625 97.94679260253906 302.6874694824219 138.53482055664062 299.0951843261719 C 79.57422637939453 299.2720947265625 53.4547233581543 287.7733154296875 74.49842834472656 295.85009765625 C 106.99347686767578 302.00750732421875 106.384033203125 296.45648193359375 103.62654876708984 302.3535461425781 C 103.78469848632812 301.4234619140625 104.95764923095703 300.4262390136719 104.80841827392578 299.0502014160156" stroke-width="0.0" fill="rgb(76, 46, 49)" opacity="0.67191577" stroke="rgb(91, 106, 204)" stroke-opacity="0.018729024" stroke-linecap="round" stroke-linejoin="round"/>
    <path d="M 325.2396240234375 241.64613342285156 C 328.8863830566406 244.7152557373047 314.7886657714844 230.83656311035156 311.1849060058594 226.01675415039062 C 315.9423522949219 235.78341674804688 315.86444091796875 229.08680725097656 293.6943359375 207.6687774658203 C 261.7552185058594 192.24290466308594 297.9135437011719 206.4209442138672 310.2275695800781 229.82318115234375 C 303.4412536621094 218.744873046875 312.49322509765625 231.89132690429688 325.2396240234375 241.64613342285156" stroke-width="0.0" fill="rgb(39, 51, 27)" opacity="0.93387675" stroke="rgb(226, 138, 74)" stroke-opacity="0.8173759" stroke-linecap="round" stroke-linejoin="round"/>
    <path d="M 120.15447998046875 238.3706512451172 C 129.0868377685547 252.3158721923828 77.4473876953125 248.4466094970703 120.86595153808594 254.17776489257812 C 114.00579071044922 202.30435180664062 140.7093048095703 267.6447448730469 94.7154312133789 280.7225036621094 C 123.48902130126953 278.34423828125 126.26016998291016 242.64608764648438 122.3998794555664 240.21011352539062 C 123.00695037841797 254.26023864746094 118.15211486816406 264.09564208984375 120.15447998046875 238.3706512451172" stroke-width="0.0" fill="rgb(94, 50, 55)" opacity="0.75797194" stroke="rgb(87, 107, 46)" stroke-opacity="0.9176304" stroke-linecap="round" stroke-linejoin="round"/>
    <path d="M 393.1146545410156 239.21083068847656 C 387.58782958984375 245.57142639160156 379.8392639160156 249.02520751953125 375.4424743652344 246.96218872070312 C 375.620849609375 245.39273071289062 371.7976989746094 260.1601867675781 374.8159484863281 234.85772705078125 C 370.861572265625 239.38270568847656 378.9740905761719 241.1162109375 380.5575256347656 240.52426147460938 C 379.5465087890625 241.04957580566406 385.2050476074219 242.30319213867188 393.1146545410156 239.21083068847656" stroke-width="0.0" fill="rgb(75, 75, 73)" opacity="0.7390237" stroke="rgb(156, 94, 238)" stroke-opacity="0.75876254" stroke-linecap="round" stroke-linejoin="round"/>
    <path d="M 103.47634887695312 279.2324523925781 C 54.84819793701172 285.50982666015625 45.54573440551758 273.5630798339844 54.767982482910156 247.73513793945312 C 34.49120330810547 284.5908508300781 84.262451171875 281.7684631347656 68.9521255493164 281.7660827636719 C 82.92997741699219 282.4485778808594 85.57987213134766 282.1125183105469 88.95862579345703 283.4429016113281 C 76.58281707763672 279.9855041503906 88.5664291381836 285.40264892578125 103.47634887695312 279.2324523925781" stroke-width="0.0" fill="rgb(60, 26, 33)" opacity="0.64423823" stroke="rgb(196, 241, 9)" stroke-opacity="0.088345565" stroke-linecap="round" stroke-linejoin="round"/>
    <path d="M 306.8369445800781 232.5772247314453 C 318.9400329589844 242.10333251953125 303.0755310058594 232.89320373535156 301.56988525390625 232.08590698242188 C 292.367431640625 230.21023559570312 287.9277648925781 237.86656188964844 289.25927734375 218.77505493164062 C 300.8221130371094 237.65235900878906 295.8857116699219 226.34033203125 287.60479736328125 212.52455139160156 C 296.33428955078125 222.96253967285156 299.972412109375 227.52645874023438 306.8369445800781 232.5772247314453" stroke-width="0.0" fill="rgb(92, 123, 126)" opacity="1.0" stroke="rgb(122, 98, 122)" stroke-opacity="0.65260464" stroke-linecap="round" stroke-linejoin="round"/>
    <path d="M 396.1004638671875 274.19732666015625 C 406.82513427734375 276.52703857421875 401.1457214355469 274.62017822265625 408.70928955078125 274.8101806640625 C 414.10296630859375 275.53173828125 411.0812072753906 272.41943359375 400.8365783691406 275.9576110839844 C 431.3298645019531 276.05499267578125 433.2779235839844 276.3564758300781 397.54217529296875 273.36053466796875 C 375.1757507324219 263.30572509765625 387.5368957519531 270.8396911621094 396.1004638671875 274.19732666015625" stroke-width="0.0" fill="rgb(78, 79, 77)" opacity="0.88460165" stroke="rgb(160, 16, 230)" stroke-opacity="0.1925685" stroke-linecap="round" stroke-linejoin="round"/>
    <path d="M 146.58297729492188 310.2025146484375 C 144.2415771484375 304.2917785644531 157.51260375976562 295.40380859375 169.52896118164062 315.1165771484375 C 156.79922485351562 298.10186767578125 140.09542846679688 303.3189697265625 103.21533203125 297.7111511230469 C 150.13168334960938 298.8109130859375 161.04486083984375 303.5537109375 148.8484344482422 303.4503173828125 C 137.56590270996094 295.95086669921875 135.68743896484375 319.8111877441406 146.58297729492188 310.2025146484375" stroke-width="0.0" fill="rgb(71, 21, 30)" opacity="0.58377993" stroke="rgb(79, 204, 172)" stroke-opacity="0.20284739" stroke-linecap="round" stroke-linejoin="round"/>
    <path d="M 298.6567077636719 54.73687744140625 C 302.3592529296875 28.52126121520996 302.14617919921875 29.737136840820312 299.7914733886719 59.76119613647461 C 304.3942565917969 48.91278076171875 290.030517578125 53.25801467895508 316.7748718261719 79.68677520751953 C 308.1010437011719 64.95147705078125 297.1689147949219 57.72166061401367 303.3485412597656 54.969146728515625 C 299.6309509277344 59.68907165527344 296.53546142578125 55.45513916015625 298.6567077636719 54.73687744140625" stroke-width="0.0" fill="rgb(28, 49, 27)" opacity="0.87817687" stroke="rgb(105, 94, 28)" stroke-opacity="0.9363191" stroke-linecap="round" stroke-linejoin="round"/>
    <path d="M 37.24684524536133 245.54336547851562 C 41.33523941040039 217.08740234375 41.93574905395508 221.4677734375 41.38851547241211 222.0475311279297 C 47.90003967285156 199.61082458496094 64.96747589111328 184.09690856933594 48.68783950805664 207.0598907470703 C 41.83415222167969 222.1947021484375 44.00966262817383 219.95631408691406 44.08104705810547 218.054931640625 C 38.70878219604492 233.7505340576172 41.31840515136719 240.3490753173828 37.24684524536133 245.54336547851562" stroke-width="0.0" fill="rgb(60, 33, 44)" opacity="0.80859655" stroke="rgb(77, 77, 249)" stroke-opacity="0.63462234" stroke-linecap="round" stroke-linejoin="round"/>
    <path d="M 271.6014709472656 73.48281860351562 C 266.1224670410156 74.33721923828125 263.3155517578125 75.16610717773438 266.0370788574219 74.48936462402344 C 275.6429748535156 74.99844360351562 267.6958923339844 72.35424041748047 258.39532470703125 76.1966781616211 C 259.8547668457031 69.74994659423828 272.7906494140625 70.01222229003906 269.9931640625 67.77291870117188 C 262.8580627441406 61.337955474853516 272.9756774902344 71.20494842529297 271.6014709472656 73.48281860351562" stroke-width="0.0" fill="rgb(34, 56, 34)" opacity="0.9355555" stroke="rgb(145, 72, 239)" stroke-opacity="0.41867852" stroke-linecap="round" stroke-linejoin="round"/>
    <path d="M 106.25360870361328 299.16168212890625 C 130.0617218017578 300.1164855957031 65.342529296875 323.9761657714844 40.90213394165039 286.7937316894531 C 42.344783782958984 265.0655822753906 32.08829116821289 309.34112548828125 99.42445373535156 306.67608642578125 C 140.73350524902344 292.7723693847656 53.536170959472656 306.1390075683594 51.27415466308594 279.29046630859375 C 64.98009490966797 306.59564208984375 149.471923828125 295.0029602050781 106.25360870361328 299.16168212890625" stroke-width="0.0" fill="rgb(57, 16, 22)" opacity="0.6983278" stroke="rgb(53, 233, 181)" stroke-opacity="0.3196088" stroke-linecap="round" stroke-linejoin="round"/>
    <path d="M 295.86285400390625 78.59886932373047 C 326.7432861328125 97.67621612548828 288.9064636230469 75.65960693359375 287.0618591308594 76.5696029663086 C 262.42083740234375 68.68817138671875 255.0504608154297 85.71492767333984 265.0912780761719 72.99121856689453 C 262.4915466308594 76.42454528808594 262.88568115234375 70.48043823242188 258.0731201171875 75.3398666381836 C 263.1225280761719 76.56713104248047 273.8809509277344 66.95574951171875 295.86285400390625 78.59886932373047" stroke-width="0.0" fill="rgb(26, 51, 29)" opacity="0.8816895" stroke="rgb(23, 212, 91)" stroke-opacity="0.71484005" stroke-linecap="round" stroke-linejoin="round"/>
    <path d="M 423.2000732421875 275.6618347167969 C 414.8052673339844 275.9953308105469 412.7450256347656 271.31915283203125 414.86785888671875 272.4803161621094 C 422.5796813964844 272.2713623046875 419.0668029785156 271.9680480957031 413.7522277832031 272.30572509765625 C 413.33258056640625 275.853271484375 439.861328125 280.2525939941406 444.6900634765625 258.5777587890625 C 435.2035827636719 283.9863586425781 402.2375183105469 269.0973815917969 423.2000732421875 275.6618347167969" stroke-width="0.0" fill="rgb(81, 82, 80)" opacity="0.8519805" stroke="rgb(197, 235, 145)" stroke-opacity="0.55274117" stroke-linecap="round" stroke-linejoin="round"/>
    <path d="M 190.9283905029297 142.47581481933594 C 223.6754913330078 173.74057006835938 140.2894744873047 162.703125 184.239990234375 153.32749938964844 C 181.83700561523438 134.46348571777344 196.89169311523438 149.58912658691406 197.70730590820312 139.35585021972656 C 196.154541015625 147.15724182128906 190.5341796875 141.94976806640625 195.10093688964844 142.85658264160156 C 201.6444091796875 140.62855529785156 185.10791015625 143.56417846679688 190.9283905029297 142.47581481933594" stroke-width="0.0" fill="rgb(120, 144, 126)" opacity="1.0" stroke="rgb(83, 39, 203)" stroke-opacity="0.5532043" stroke-linecap="round" stroke-linejoin="round"/>
    <path d="M 102.7204360961914 196.48013305664062 C 98.64505004882812 197.4709014892578 90.72078704833984 196.5294952392578 80.4314193725586 195.97293090820312 C 93.63681030273438 196.83619689941406 82.96888732910156 197.58851623535156 77.18498992919922 193.43031311035156 C 87.14372253417969 185.92466735839844 84.01807403564453 188.38958740234375 85.50920104980469 188.53126525878906 C 88.7020263671875 191.35142517089844 94.47775268554688 194.08192443847656 102.7204360961914 196.48013305664062" stroke-width="0.0" fill="rgb(157, 88, 67)" opacity="0.7673414" stroke="rgb(130, 48, 19)" stroke-opacity="0.42808887" stroke-linecap="round" stroke-linejoin="round"/>
    <path d="M 225.5014190673828 177.93936157226562 C 225.84695434570312 181.6920928955078 223.7162628173828 184.44386291503906 231.29673767089844 209.71958923339844 C 226.11817932128906 176.26300048828125 226.34237670898438 191.03842163085938 230.54652404785156 161.16427612304688 C 221.74282836914062 188.8488311767578 227.97669982910156 185.4598388671875 228.6969451904297 183.8228302001953 C 227.30918884277344 186.0326385498047 224.94461059570312 185.18344116210938 225.5014190673828 177.93936157226562" stroke-width="0.0" fill="rgb(35, 45, 22)" opacity="0.7622543" stroke="rgb(117, 202, 80)" stroke-opacity="0.12986518" stroke-linecap="round" stroke-linejoin="round"/>
  </g>
</svg>
