<?xml version="1.0" ?>
<svg xmlns="http://www.w3.org/2000/svg" version="1.1" width="512" height="352">
  <defs/>
  <g>
    <path d="M 146.1103515625 233.59788513183594 C 137.02767944335938 265.5212097167969 155.42079162597656 248.2926483154297 97.0888671875 269.8075866699219 C 61.39984130859375 250.15621948242188 66.9000244140625 243.3697967529297 57.93935012817383 228.80654907226562 C 55.84873580932617 191.2410430908203 52.72315216064453 185.8104248046875 97.09532928466797 176.6628875732422 C 163.0072784423828 178.42591857910156 152.8905792236328 166.07554626464844 146.1103515625 233.59788513183594" stroke-width="0.0" fill="rgb(217, 194, 161)" opacity="0.94053066" stroke="rgb(152, 59, 232)" stroke-opacity="0.008471028" stroke-linecap="round" stroke-linejoin="round"/>
    <path d="M 243.31985473632812 167.12991333007812 C 232.8837890625 216.08004760742188 221.73497009277344 217.527587890625 193.75469970703125 262.9858093261719 C 185.12181091308594 221.1300506591797 183.3247833251953 244.59515380859375 175.06564331054688 193.20352172851562 C 203.3594207763672 151.4078826904297 141.50404357910156 201.78311157226562 192.37083435058594 143.78024291992188 C 233.4918212890625 129.91830444335938 289.3536071777344 175.26478576660156 243.31985473632812 167.12991333007812" stroke-width="0.0" fill="rgb(0, 42, 8)" opacity="0.5242388" stroke="rgb(96, 55, 23)" stroke-opacity="0.49800745" stroke-linecap="round" stroke-linejoin="round"/>
    <path d="M 319.5662536621094 223.6095733642578 C 336.16644287109375 253.1044921875 332.53594970703125 241.76425170898438 265.6327209472656 226.79745483398438 C 274.30975341796875 267.14764404296875 246.28424072265625 299.49859619140625 257.60308837890625 218.58847045898438 C 223.62002563476562 61.44806671142578 232.82696533203125 92.54467010498047 262.5565185546875 195.67059326171875 C 293.6828308105469 199.52255249023438 319.1696472167969 189.5780029296875 319.5662536621094 223.6095733642578" stroke-width="0.0" fill="rgb(35, 48, 25)" opacity="0.89694357" stroke="rgb(71, 91, 210)" stroke-opacity="0.8430703" stroke-linecap="round" stroke-linejoin="round"/>
    <path d="M 358.2859802246094 47.302486419677734 C 333.5478210449219 43.72097396850586 343.3327331542969 82.17411041259766 329.0805358886719 68.29914093017578 C 296.44073486328125 86.5416030883789 299.2462158203125 88.57357788085938 307.283447265625 74.70092010498047 C 315.5649108886719 34.0194206237793 316.9998779296875 17.39603614807129 331.3201599121094 38.49121856689453 C 336.6191101074219 62.69577407836914 318.6039733886719 34.32220458984375 358.2859802246094 47.302486419677734" stroke-width="0.0" fill="rgb(201, 94, 60)" opacity="0.9892166" stroke="rgb(49, 21, 64)" stroke-opacity="0.7991378" stroke-linecap="round" stroke-linejoin="round"/>
    <path d="M 277.3080749511719 200.4981231689453 C 294.7191467285156 232.95266723632812 312.7435607910156 239.33917236328125 275.3782958984375 227.02638244628906 C 266.1335144042969 239.7215118408203 253.6138916015625 211.25633239746094 263.0188903808594 204.8787078857422 C 287.9516906738281 195.21974182128906 275.3548583984375 169.07595825195312 306.85931396484375 189.04354858398438 C 335.2245178222656 256.0086669921875 310.0537414550781 243.86517333984375 277.3080749511719 200.4981231689453" stroke-width="0.0" fill="rgb(107, 140, 143)" opacity="1.0" stroke="rgb(98, 139, 102)" stroke-opacity="0.89339685" stroke-linecap="round" stroke-linejoin="round"/>
    <path d="M 333.8875427246094 59.8938102722168 C 315.294189453125 81.28147888183594 275.3846740722656 109.53762817382812 302.5770263671875 105.47077178955078 C 229.54391479492188 133.59915161132812 286.5737609863281 121.96245574951172 262.49725341796875 79.44029235839844 C 284.80206298828125 17.166399002075195 304.02142333984375 79.91352844238281 300.6580505371094 34.65731430053711 C 309.9644470214844 30.66771697998047 312.8726501464844 61.85700607299805 333.8875427246094 59.8938102722168" stroke-width="0.0" fill="rgb(197, 90, 56)" opacity="0.9526906" stroke="rgb(68, 114, 199)" stroke-opacity="0.605329" stroke-linecap="round" stroke-linejoin="round"/>
    <path d="M 319.7984313964844 277.2514343261719 C 300.0645446777344 290.41058349609375 251.38504028320312 277.10406494140625 256.8811340332031 285.4398193359375 C 144.84739685058594 283.5420837402344 285.1548767089844 279.50616455078125 149.1663055419922 274.7688293457031 C 203.0649871826172 260.15985107421875 257.29339599609375 297.3185729980469 254.1280975341797 247.50294494628906 C 258.072021484375 310.38543701171875 276.2277526855469 251.50157165527344 319.7984313964844 277.2514343261719" stroke-width="0.0" fill="rgb(0, 49, 67)" opacity="0.33642355" stroke="rgb(167, 187, 76)" stroke-opacity="0.868" stroke-linecap="round" stroke-linejoin="round"/>
    <path d="M 466.5423278808594 185.5308380126953 C 507.9015197753906 248.05970764160156 427.78424072265625 301.83221435546875 381.42822265625 284.2342224121094 C 381.23193359375 288.0419616699219 367.8215637207031 276.6275634765625 372.97796630859375 274.62982177734375 C 373.4920959472656 200.57456970214844 373.18115234375 230.3277587890625 441.64361572265625 198.089599609375 C 449.8578186035156 231.16665649414062 465.4171447753906 296.8174743652344 466.5423278808594 185.5308380126953" stroke-width="0.0" fill="rgb(88, 69, 81)" opacity="0.20488682" stroke="rgb(5, 253, 15)" stroke-opacity="0.9279504" stroke-linecap="round" stroke-linejoin="round"/>
    <path d="M 148.70616149902344 131.22784423828125 C 128.76002502441406 113.89199829101562 103.75357055664062 168.50430297851562 125.79226684570312 128.11569213867188 C 85.55673217773438 156.58248901367188 112.2890853881836 160.67437744140625 103.0584487915039 171.26004028320312 C 79.9166259765625 141.44261169433594 116.45501708984375 111.9699478149414 127.63945007324219 123.68943786621094 C 113.13951873779297 115.63605499267578 156.05528259277344 126.94625854492188 148.70616149902344 131.22784423828125" stroke-width="0.0" fill="rgb(116, 20, 2)" opacity="0.6281442" stroke="rgb(41, 168, 154)" stroke-opacity="0.09973988" stroke-linecap="round" stroke-linejoin="round"/>
    <path d="M 241.6140594482422 105.05857849121094 C 242.75865173339844 111.83472442626953 237.98385620117188 101.74424743652344 251.584228515625 156.31617736816406 C 238.08383178710938 148.77662658691406 239.3231964111328 126.51789093017578 236.61891174316406 113.13912963867188 C 234.18643188476562 97.7045669555664 243.5949249267578 67.4476089477539 270.236572265625 63.93320846557617 C 256.67169189453125 73.42399597167969 244.4755096435547 78.69392395019531 241.6140594482422 105.05857849121094" stroke-width="0.0" fill="rgb(41, 55, 31)" opacity="0.9888009" stroke="rgb(85, 221, 187)" stroke-opacity="0.39412436" stroke-linecap="round" stroke-linejoin="round"/>
    <path d="M 123.87874603271484 239.1459503173828 C 126.24103546142578 327.3280944824219 -32.57862091064453 262.3115234375 86.35249328613281 260.9053649902344 C 132.3996124267578 245.24171447753906 119.8712387084961 262.0258483886719 100.81896209716797 249.88992309570312 C 107.5479736328125 244.3193359375 124.56443786621094 235.90451049804688 119.82215881347656 239.1400909423828 C 94.7431411743164 255.14151000976562 92.90467834472656 191.05992126464844 123.87874603271484 239.1459503173828" stroke-width="0.0" fill="rgb(174, 107, 56)" opacity="0.32623732" stroke="rgb(234, 8, 0)" stroke-opacity="0.80803746" stroke-linecap="round" stroke-linejoin="round"/>
    <path d="M 261.50250244140625 167.303466796875 C 250.24957275390625 162.19618225097656 246.77659606933594 178.42910766601562 249.59194946289062 180.33709716796875 C 232.0234375 183.78746032714844 241.2862091064453 206.19717407226562 237.3809356689453 162.11521911621094 C 223.4767303466797 161.53236389160156 256.2152404785156 156.57884216308594 251.59603881835938 155.11273193359375 C 265.06805419921875 139.65945434570312 257.9697570800781 154.4175262451172 261.50250244140625 167.303466796875" stroke-width="0.0" fill="rgb(109, 135, 115)" opacity="1.0" stroke="rgb(5, 61, 36)" stroke-opacity="0.5226483" stroke-linecap="round" stroke-linejoin="round"/>
    <path d="M 453.24420166015625 246.44451904296875 C 453.9950256347656 208.4876251220703 439.2945251464844 194.43914794921875 440.9372253417969 198.77513122558594 C 428.6352844238281 205.0380859375 409.3176574707031 197.4017791748047 416.7986755371094 200.13201904296875 C 445.4179992675781 193.28976440429688 438.18115234375 179.93710327148438 391.8848571777344 171.3366241455078 C 434.1194763183594 171.67544555664062 459.1764221191406 204.10281372070312 453.24420166015625 246.44451904296875" stroke-width="0.0" fill="rgb(39, 29, 34)" opacity="0.48532978" stroke="rgb(101, 186, 217)" stroke-opacity="0.2249338" stroke-linecap="round" stroke-linejoin="round"/>
    <path d="M 377.9515686035156 271.6806640625 C 366.230224609375 275.09503173828125 371.7135925292969 278.025146484375 358.2008361816406 280.4208679199219 C 325.4499816894531 276.7490539550781 318.72991943359375 268.44293212890625 333.32379150390625 259.0409240722656 C 338.34967041015625 254.9615478515625 351.8086853027344 269.2397155761719 348.2170715332031 219.57339477539062 C 352.7196350097656 233.71334838867188 373.7735900878906 248.99066162109375 377.9515686035156 271.6806640625" stroke-width="0.0" fill="rgb(58, 52, 55)" opacity="0.5760894" stroke="rgb(95, 133, 179)" stroke-opacity="0.9018501" stroke-linecap="round" stroke-linejoin="round"/>
    <path d="M 390.9560852050781 229.61376953125 C 388.827392578125 262.8202209472656 415.7682800292969 248.34283447265625 445.70611572265625 281.0089111328125 C 355.8565368652344 289.1551208496094 371.10247802734375 296.0195617675781 354.5497741699219 223.02639770507812 C 339.7874755859375 148.45494079589844 343.8311462402344 137.2388458251953 427.1556396484375 188.11178588867188 C 450.961669921875 216.7720947265625 393.1934814453125 206.62332153320312 390.9560852050781 229.61376953125" stroke-width="0.0" fill="rgb(88, 61, 76)" opacity="0.20306566" stroke="rgb(29, 36, 128)" stroke-opacity="0.5769518" stroke-linecap="round" stroke-linejoin="round"/>
    <path d="M 406.2693176269531 174.5167236328125 C 405.286376953125 180.84774780273438 400.54876708984375 192.80108642578125 382.0348205566406 192.49807739257812 C 393.2486267089844 193.47789001464844 399.111328125 180.3081817626953 396.05804443359375 175.9164581298828 C 398.375 182.7589569091797 397.8936767578125 160.30810546875 381.2629699707031 170.5653533935547 C 405.5767822265625 168.89361572265625 420.8547668457031 179.3961181640625 406.2693176269531 174.5167236328125" stroke-width="0.0" fill="rgb(59, 56, 57)" opacity="0.553106" stroke="rgb(144, 212, 195)" stroke-opacity="0.28150797" stroke-linecap="round" stroke-linejoin="round"/>
    <path d="M 392.58758544921875 232.465087890625 C 402.3294982910156 230.70518493652344 387.0348815917969 237.5851287841797 378.63592529296875 228.377197265625 C 379.46759033203125 224.76654052734375 362.89788818359375 252.9076690673828 395.06597900390625 274.60260009765625 C 358.2257995605469 258.0796813964844 370.7554626464844 205.8076934814453 411.2594299316406 212.3723907470703 C 388.15606689453125 213.49375915527344 372.74932861328125 223.05227661132812 392.58758544921875 232.465087890625" stroke-width="0.0" fill="rgb(63, 64, 62)" opacity="0.6984552" stroke="rgb(90, 45, 12)" stroke-opacity="0.966945" stroke-linecap="round" stroke-linejoin="round"/>
    <path d="M 242.97825622558594 150.8253936767578 C 236.76852416992188 152.1231231689453 234.717041015625 154.64186096191406 230.45079040527344 160.63165283203125 C 232.08786010742188 160.6124725341797 232.77976989746094 152.45681762695312 228.28541564941406 145.34849548339844 C 223.49990844726562 139.61209106445312 222.6826629638672 142.0060577392578 241.50857543945312 147.5766143798828 C 242.50538635253906 141.60365295410156 239.63290405273438 141.20970153808594 242.97825622558594 150.8253936767578" stroke-width="0.0" fill="rgb(243, 254, 255)" opacity="0.7206005" stroke="rgb(71, 205, 140)" stroke-opacity="0.44604528" stroke-linecap="round" stroke-linejoin="round"/>
    <path d="M 226.45236206054688 143.2744903564453 C 235.85977172851562 159.3416748046875 226.4059295654297 140.18966674804688 210.10830688476562 136.66043090820312 C 193.64224243164062 150.04177856445312 209.19581604003906 140.84986877441406 202.54867553710938 133.50555419921875 C 212.32630920410156 134.29495239257812 209.7148895263672 136.06658935546875 215.09585571289062 134.75665283203125 C 208.0547332763672 136.37554931640625 214.28988647460938 133.4049530029297 226.45236206054688 143.2744903564453" stroke-width="0.0" fill="rgb(20, 34, 7)" opacity="0.89132303" stroke="rgb(188, 50, 179)" stroke-opacity="0.9567198" stroke-linecap="round" stroke-linejoin="round"/>
    <path d="M 65.61346435546875 217.5130615234375 C 57.755306243896484 220.48202514648438 49.84324264526367 225.30355834960938 43.4609375 216.32261657714844 C 48.56727981567383 202.88014221191406 27.906604766845703 244.56089782714844 44.88869094848633 269.27496337890625 C 30.937679290771484 233.7220458984375 46.29453659057617 192.81591796875 73.39596557617188 182.2593231201172 C 43.21778106689453 203.85032653808594 40.310604095458984 214.711669921875 65.61346435546875 217.5130615234375" stroke-width="0.0" fill="rgb(137, 58, 41)" opacity="0.636159" stroke="rgb(95, 96, 152)" stroke-opacity="0.19404416" stroke-linecap="round" stroke-linejoin="round"/>
    <path d="M 381.4297180175781 117.67854309082031 C 390.10247802734375 125.75106811523438 391.3497619628906 117.42979431152344 361.9834289550781 115.67652893066406 C 338.4664001464844 117.84486389160156 388.0527038574219 107.68921661376953 344.9359130859375 113.80413055419922 C 379.5032653808594 102.03103637695312 345.3118896484375 121.67745208740234 379.6796569824219 97.99503326416016 C 352.9223327636719 122.65078735351562 363.9397888183594 99.36296081542969 381.4297180175781 117.67854309082031" stroke-width="0.0" fill="rgb(14, 0, 7)" opacity="0.47895747" stroke="rgb(164, 80, 29)" stroke-opacity="0.27169463" stroke-linecap="round" stroke-linejoin="round"/>
    <path d="M 89.40616607666016 202.91612243652344 C 91.0533447265625 203.7225341796875 80.48542785644531 206.7794647216797 77.97953033447266 207.20286560058594 C 62.48524475097656 210.75808715820312 56.50598907470703 204.03753662109375 53.95252227783203 197.61788940429688 C 66.87313079833984 176.93560791015625 106.86143493652344 174.3426971435547 68.40205383300781 186.2906494140625 C 48.97484588623047 192.2059326171875 84.29224395751953 206.43357849121094 89.40616607666016 202.91612243652344" stroke-width="0.0" fill="rgb(96, 0, 2)" opacity="0.41142365" stroke="rgb(185, 86, 217)" stroke-opacity="0.012220794" stroke-linecap="round" stroke-linejoin="round"/>
    <path d="M 370.86724853515625 262.682861328125 C 367.9324035644531 272.0141906738281 355.25274658203125 264.1224060058594 350.1103820800781 276.6709289550781 C 339.2280578613281 278.25396728515625 356.52886962890625 261.6763000488281 343.2922668457031 274.119384765625 C 337.1905212402344 267.09344482421875 359.9096984863281 257.2742614746094 359.67132568359375 265.545166015625 C 363.29693603515625 253.63174438476562 370.3135070800781 255.20382690429688 370.86724853515625 262.682861328125" stroke-width="0.0" fill="rgb(195, 195, 195)" opacity="0.78922004" stroke="rgb(40, 216, 194)" stroke-opacity="0.5864512" stroke-linecap="round" stroke-linejoin="round"/>
    <path d="M 105.90418243408203 142.10655212402344 C 95.09912872314453 170.31793212890625 159.40203857421875 235.8897247314453 168.5433349609375 143.18528747558594 C 80.149658203125 124.74212646484375 106.95915985107422 161.31349182128906 111.75520324707031 180.11160278320312 C 84.5790023803711 151.80758666992188 100.69483184814453 136.32057189941406 112.00765991210938 128.8619384765625 C 123.79593658447266 124.5213394165039 110.94878387451172 128.51669311523438 105.90418243408203 142.10655212402344" stroke-width="0.0" fill="rgb(190, 172, 148)" opacity="1.0" stroke="rgb(244, 28, 21)" stroke-opacity="0.32996857" stroke-linecap="round" stroke-linejoin="round"/>
    <path d="M 349.9615478515625 126.20989227294922 C 350.6880798339844 129.88726806640625 346.5201110839844 136.9559326171875 342.468505859375 132.39390563964844 C 345.1504821777344 139.52391052246094 341.06719970703125 122.72505950927734 349.4002685546875 124.79791259765625 C 342.3721923828125 124.72654724121094 347.6890563964844 130.7128448486328 348.25701904296875 130.29127502441406 C 344.97906494140625 117.21726989746094 347.29962158203125 124.24946594238281 349.9615478515625 126.20989227294922" stroke-width="0.0" fill="rgb(17, 16, 14)" opacity="0.9538824" stroke="rgb(77, 237, 152)" stroke-opacity="0.2735447" stroke-linecap="round" stroke-linejoin="round"/>
    <path d="M 271.20947265625 57.2928466796875 C 265.26007080078125 73.4486083984375 277.3389892578125 62.08851623535156 259.6453857421875 71.44661712646484 C 271.9483947753906 58.499366760253906 264.0014953613281 66.33203125 249.4556121826172 64.95152282714844 C 277.1087646484375 50.982391357421875 263.4468688964844 63.33510208129883 257.6063232421875 48.52312088012695 C 265.79754638671875 58.1856689453125 290.61395263671875 47.10490417480469 271.20947265625 57.2928466796875" stroke-width="0.0" fill="rgb(34, 46, 21)" opacity="0.92957944" stroke="rgb(52, 25, 135)" stroke-opacity="0.28656027" stroke-linecap="round" stroke-linejoin="round"/>
    <path d="M 326.9120178222656 130.66622924804688 C 336.1913146972656 138.6822052001953 302.6579895019531 135.23670959472656 350.0887451171875 166.47433471679688 C 320.2607727050781 152.54537963867188 323.8063659667969 143.52598571777344 321.1409912109375 136.3360595703125 C 320.5921936035156 127.3620834350586 326.07501220703125 130.86566162109375 334.8253479003906 124.87504577636719 C 359.3179626464844 99.35235595703125 340.275390625 125.69471740722656 326.9120178222656 130.66622924804688" stroke-width="0.0" fill="rgb(38, 33, 35)" opacity="0.6796346" stroke="rgb(141, 156, 2)" stroke-opacity="0.96343255" stroke-linecap="round" stroke-linejoin="round"/>
    <path d="M 279.232666015625 54.960079193115234 C 279.5097961425781 70.640625 309.2856750488281 77.14707946777344 309.5020751953125 84.62140655517578 C 274.49029541015625 59.12623596191406 270.0789794921875 65.75914764404297 270.05718994140625 52.968650817871094 C 274.5445861816406 54.463802337646484 277.6385803222656 58.066951751708984 266.2778625488281 53.41917037963867 C 267.7173156738281 56.03920364379883 270.9535217285156 50.11701202392578 279.232666015625 54.960079193115234" stroke-width="0.0" fill="rgb(42, 56, 33)" opacity="0.99173796" stroke="rgb(115, 99, 93)" stroke-opacity="0.44094145" stroke-linecap="round" stroke-linejoin="round"/>
    <path d="M 322.3766784667969 230.4267120361328 C 329.4825744628906 245.3564910888672 327.02520751953125 235.81700134277344 327.93402099609375 242.47183227539062 C 315.1691589355469 233.87445068359375 316.5060119628906 222.6287384033203 283.7165222167969 201.68190002441406 C 336.2256774902344 211.20567321777344 306.3569030761719 220.31427001953125 325.3830261230469 232.9049530029297 C 318.8858642578125 222.28817749023438 327.1394958496094 236.17015075683594 322.3766784667969 230.4267120361328" stroke-width="0.0" fill="rgb(108, 145, 150)" opacity="1.0" stroke="rgb(46, 179, 110)" stroke-opacity="0.51773804" stroke-linecap="round" stroke-linejoin="round"/>
    <path d="M 374.3258361816406 259.0719909667969 C 381.0145263671875 261.8486022949219 373.53973388671875 273.0050964355469 362.98126220703125 277.5043029785156 C 346.0038146972656 282.15814208984375 351.08203125 272.5444030761719 358.1025085449219 268.68194580078125 C 371.3403625488281 240.90997314453125 372.86871337890625 286.2229309082031 373.8721008300781 233.80239868164062 C 373.6965637207031 254.9149932861328 375.63031005859375 249.5598602294922 374.3258361816406 259.0719909667969" stroke-width="0.0" fill="rgb(154, 154, 153)" opacity="0.86049503" stroke="rgb(189, 106, 169)" stroke-opacity="0.14594768" stroke-linecap="round" stroke-linejoin="round"/>
    <path d="M 373.7440490722656 254.7819061279297 C 373.5583801269531 262.0539245605469 376.6738586425781 263.5832824707031 361.9927062988281 275.14617919921875 C 345.8681945800781 280.5471496582031 353.2320861816406 275.9921875 357.87957763671875 257.57318115234375 C 384.49896240234375 255.16041564941406 350.6977233886719 255.07479858398438 363.0588684082031 249.27291870117188 C 378.4842529296875 249.6085968017578 371.8729553222656 250.83912658691406 373.7440490722656 254.7819061279297" stroke-width="0.0" fill="rgb(178, 178, 178)" opacity="0.9784096" stroke="rgb(185, 229, 188)" stroke-opacity="0.13085178" stroke-linecap="round" stroke-linejoin="round"/>
    <path d="M 395.10577392578125 123.75594329833984 C 394.5783386230469 188.81976318359375 383.8046875 173.8958740234375 374.3765869140625 160.52020263671875 C 360.5199890136719 154.49476623535156 325.1937255859375 139.94943237304688 344.5103454589844 134.2757568359375 C 361.33209228515625 128.98878479003906 328.4546813964844 106.5342025756836 361.75689697265625 115.62439727783203 C 395.4202880859375 126.64349365234375 405.58453369140625 88.27203369140625 395.10577392578125 123.75594329833984" stroke-width="0.0" fill="rgb(165, 159, 162)" opacity="0.5648538" stroke="rgb(176, 57, 35)" stroke-opacity="0.82202125" stroke-linecap="round" stroke-linejoin="round"/>
    <path d="M 458.8556823730469 174.39414978027344 C 449.52130126953125 185.16688537597656 443.43304443359375 168.71263122558594 462.0494079589844 200.4873504638672 C 454.5419616699219 190.6348876953125 430.4813232421875 164.179443359375 445.6507873535156 136.55899047851562 C 456.15130615234375 167.02694702148438 439.00543212890625 193.0766143798828 455.26153564453125 140.93560791015625 C 450.0422668457031 159.1573486328125 456.4643249511719 167.90965270996094 458.8556823730469 174.39414978027344" stroke-width="0.0" fill="rgb(24, 15, 19)" opacity="0.56679004" stroke="rgb(142, 194, 16)" stroke-opacity="0.91583794" stroke-linecap="round" stroke-linejoin="round"/>
    <path d="M 445.35028076171875 201.5133056640625 C 421.5877685546875 171.47296142578125 436.2662353515625 189.9392852783203 407.2617492675781 195.39979553222656 C 395.841796875 197.39198303222656 400.8095397949219 198.3253631591797 408.5180969238281 191.9131622314453 C 414.6521301269531 186.19081115722656 415.4857482910156 183.26287841796875 419.62188720703125 177.84693908691406 C 395.9422302246094 172.89122009277344 431.4939270019531 170.4170684814453 445.35028076171875 201.5133056640625" stroke-width="0.0" fill="rgb(6, 0, 0)" opacity="0.3570388" stroke="rgb(74, 64, 141)" stroke-opacity="0.70899653" stroke-linecap="round" stroke-linejoin="round"/>
    <path d="M 132.14813232421875 299.95623779296875 C 118.90790557861328 316.3189392089844 145.3760223388672 305.75994873046875 159.0465087890625 317.3948059082031 C 138.0143585205078 307.4091491699219 95.71310424804688 312.72747802734375 119.35462951660156 310.1824645996094 C 127.37403106689453 289.24639892578125 120.73835754394531 306.7973937988281 124.93474578857422 299.3999938964844 C 158.38357543945312 299.7281188964844 171.680908203125 309.0715026855469 132.14813232421875 299.95623779296875" stroke-width="0.0" fill="rgb(117, 44, 31)" opacity="0.6726158" stroke="rgb(125, 88, 91)" stroke-opacity="0.3944759" stroke-linecap="round" stroke-linejoin="round"/>
    <path d="M 146.29391479492188 311.7137451171875 C 65.35458374023438 311.378173828125 59.018524169921875 301.65972900390625 78.27338409423828 306.65728759765625 C 127.94549560546875 310.0730895996094 132.36363220214844 306.4031066894531 101.42533874511719 308.0580749511719 C 100.95236206054688 299.3029479980469 114.64346313476562 294.63433837890625 108.1688232421875 308.6795654296875 C 106.41523742675781 308.6307678222656 119.51826477050781 308.6786804199219 146.29391479492188 311.7137451171875" stroke-width="0.0" fill="rgb(77, 14, 11)" opacity="0.6465832" stroke="rgb(3, 78, 14)" stroke-opacity="0.9326141" stroke-linecap="round" stroke-linejoin="round"/>
    <path d="M 101.81426239013672 196.53208923339844 C 95.13009643554688 195.3614044189453 91.04086303710938 196.6919403076172 97.78175354003906 195.9905242919922 C 87.99568939208984 199.10586547851562 71.82841491699219 193.84498596191406 70.04490661621094 187.04551696777344 C 68.66741943359375 184.9275360107422 83.11202239990234 179.5146026611328 81.66478729248047 183.2340545654297 C 82.88041687011719 190.21253967285156 93.02398681640625 191.92417907714844 101.81426239013672 196.53208923339844" stroke-width="0.0" fill="rgb(182, 130, 115)" opacity="1.0" stroke="rgb(193, 0, 53)" stroke-opacity="0.5027652" stroke-linecap="round" stroke-linejoin="round"/>
    <path d="M 443.6199035644531 161.3731231689453 C 454.0704650878906 147.27255249023438 453.6111755371094 175.36190795898438 455.0320739746094 168.3565216064453 C 443.4248352050781 181.5570068359375 442.6404724121094 162.00396728515625 442.3638916015625 149.23670959472656 C 447.7972106933594 125.22040557861328 459.28521728515625 128.34230041503906 444.6165466308594 136.77069091796875 C 453.7603454589844 134.16444396972656 464.25445556640625 138.5276336669922 443.6199035644531 161.3731231689453" stroke-width="0.0" fill="rgb(177, 177, 177)" opacity="0.9973912" stroke="rgb(0, 103, 231)" stroke-opacity="0.2983339" stroke-linecap="round" stroke-linejoin="round"/>
    <path d="M 122.21845245361328 286.1728210449219 C 125.03414916992188 290.8547668457031 87.5915298461914 290.6656494140625 107.00812530517578 289.2351379394531 C 90.65816497802734 290.4765930175781 81.0283203125 287.236083984375 70.38278198242188 288.0263977050781 C 118.6119613647461 281.6116943359375 52.48878479003906 292.29705810546875 53.6868782043457 276.0335998535156 C 55.461700439453125 292.1132507324219 81.82949829101562 285.6313171386719 122.21845245361328 286.1728210449219" stroke-width="0.0" fill="rgb(51, 16, 25)" opacity="0.72398895" stroke="rgb(235, 15, 129)" stroke-opacity="0.23419334" stroke-linecap="round" stroke-linejoin="round"/>
    <path d="M 145.60501098632812 235.761474609375 C 148.57701110839844 275.7926940917969 144.25047302246094 244.5985870361328 143.99598693847656 237.7017364501953 C 133.31333923339844 239.26942443847656 129.345458984375 245.98501586914062 135.27099609375 237.67686462402344 C 137.08926391601562 235.89376831054688 140.14892578125 232.88209533691406 144.69915771484375 230.9079132080078 C 151.5033721923828 191.2660369873047 153.45619201660156 194.98170471191406 145.60501098632812 235.761474609375" stroke-width="0.0" fill="rgb(81, 22, 25)" opacity="0.647382" stroke="rgb(96, 101, 11)" stroke-opacity="0.05746356" stroke-linecap="round" stroke-linejoin="round"/>
    <path d="M 168.6403045654297 323.0919494628906 C 153.0609130859375 322.6385192871094 168.4595489501953 330.4154052734375 154.4095916748047 314.03948974609375 C 126.83329772949219 305.19781494140625 123.99383544921875 316.9129943847656 131.09385681152344 300.0191345214844 C 163.93316650390625 305.353515625 161.1387176513672 304.0205993652344 136.5739288330078 299.0828857421875 C 145.15402221679688 300.3377990722656 175.0540771484375 304.708740234375 168.6403045654297 323.0919494628906" stroke-width="0.0" fill="rgb(216, 180, 140)" opacity="0.76082724" stroke="rgb(133, 138, 235)" stroke-opacity="0.5114673" stroke-linecap="round" stroke-linejoin="round"/>
    <path d="M 215.90948486328125 138.66795349121094 C 231.2584228515625 144.19329833984375 239.7901611328125 158.52325439453125 192.89315795898438 147.71890258789062 C 190.0670928955078 137.53927612304688 209.1228790283203 149.42201232910156 205.3837127685547 135.20465087890625 C 214.67156982421875 137.0825958251953 217.22935485839844 140.21554565429688 214.77664184570312 138.5016632080078 C 206.61447143554688 134.87518310546875 208.39495849609375 136.40512084960938 215.90948486328125 138.66795349121094" stroke-width="0.0" fill="rgb(127, 154, 135)" opacity="0.9303935" stroke="rgb(208, 87, 250)" stroke-opacity="0.05088872" stroke-linecap="round" stroke-linejoin="round"/>
    <path d="M 478.4083251953125 226.4357147216797 C 461.22442626953125 283.79400634765625 460.9454650878906 245.5447998046875 402.0168762207031 269.4947814941406 C 469.235107421875 272.1516418457031 488.21685791015625 249.7550506591797 414.87860107421875 264.1988525390625 C 407.4303283691406 259.1942138671875 455.3345642089844 266.2733154296875 438.12701416015625 242.9407196044922 C 449.29449462890625 247.51809692382812 466.1174011230469 287.299560546875 478.4083251953125 226.4357147216797" stroke-width="0.0" fill="rgb(147, 147, 146)" opacity="0.9748586" stroke="rgb(191, 54, 56)" stroke-opacity="0.1238836" stroke-linecap="round" stroke-linejoin="round"/>
    <path d="M 470.92572021484375 251.9856414794922 C 489.0726623535156 207.85667419433594 454.6405944824219 159.26976013183594 468.12506103515625 225.65623474121094 C 457.2577209472656 260.22607421875 476.6888122558594 213.728515625 452.60247802734375 188.1791534423828 C 466.5031433105469 184.71897888183594 461.9117736816406 184.70254516601562 453.7201843261719 167.8994598388672 C 459.0224304199219 176.63897705078125 492.982177734375 208.1963653564453 470.92572021484375 251.9856414794922" stroke-width="0.0" fill="rgb(14, 7, 9)" opacity="0.53078556" stroke="rgb(72, 15, 89)" stroke-opacity="0.5494902" stroke-linecap="round" stroke-linejoin="round"/>
    <path d="M 325.01470947265625 238.84487915039062 C 331.91656494140625 244.7873077392578 325.1538391113281 243.9633331298828 309.3056945800781 238.218017578125 C 338.6669006347656 246.47178649902344 316.3505554199219 239.6103973388672 307.00634765625 235.43609619140625 C 318.3634338378906 231.82949829101562 275.8563232421875 192.74862670898438 303.9194030761719 215.67886352539062 C 323.8984069824219 237.21441650390625 323.7882385253906 237.07676696777344 325.01470947265625 238.84487915039062" stroke-width="0.0" fill="rgb(92, 121, 124)" opacity="1.0" stroke="rgb(253, 93, 92)" stroke-opacity="0.52762306" stroke-linecap="round" stroke-linejoin="round"/>
    <path d="M 362.0093688964844 122.04712677001953 C 365.359130859375 152.37725830078125 364.98974609375 148.90652465820312 350.577392578125 162.37184143066406 C 334.1766357421875 160.82667541503906 317.2974548339844 143.70480346679688 327.7919921875 135.87254333496094 C 327.19500732421875 133.85487365722656 324.7929992675781 128.82650756835938 353.8263854980469 116.9469985961914 C 340.89471435546875 128.4956817626953 338.4529113769531 143.9639434814453 362.0093688964844 122.04712677001953" stroke-width="0.0" fill="rgb(171, 164, 168)" opacity="0.48684633" stroke="rgb(242, 90, 209)" stroke-opacity="0.8731099" stroke-linecap="round" stroke-linejoin="round"/>
    <path d="M 104.73020935058594 298.4706115722656 C 111.0181655883789 296.4921569824219 95.75602722167969 302.4541015625 139.35458374023438 299.2207946777344 C 77.8305892944336 298.834716796875 49.594120025634766 287.81396484375 74.15850067138672 295.966552734375 C 107.190185546875 302.7959899902344 110.87335968017578 295.451171875 102.44869995117188 303.3250427246094 C 102.27835845947266 299.9684143066406 105.63139343261719 300.13397216796875 104.73020935058594 298.4706115722656" stroke-width="0.0" fill="rgb(77, 33, 27)" opacity="0.48498413" stroke="rgb(91, 106, 204)" stroke-opacity="0.018729024" stroke-linecap="round" stroke-linejoin="round"/>
    <path d="M 325.6690673828125 241.8887939453125 C 328.6051940917969 244.5353546142578 314.478759765625 230.34197998046875 310.9028625488281 225.81507873535156 C 315.5646057128906 236.9545135498047 314.3340148925781 225.64578247070312 291.95306396484375 206.4279022216797 C 258.246337890625 191.3013458251953 299.8116760253906 207.326416015625 306.1748046875 225.28932189941406 C 301.4301452636719 215.96095275878906 310.1651916503906 230.04269409179688 325.6690673828125 241.8887939453125" stroke-width="0.0" fill="rgb(36, 46, 20)" opacity="0.88385427" stroke="rgb(226, 138, 74)" stroke-opacity="0.8173759" stroke-linecap="round" stroke-linejoin="round"/>
    <path d="M 120.32536315917969 238.14683532714844 C 128.99278259277344 252.35304260253906 77.3886947631836 248.06895446777344 120.67823791503906 254.4522247314453 C 115.68081665039062 206.9767608642578 139.8087921142578 272.3614807128906 90.60184478759766 281.45684814453125 C 120.61145782470703 281.86248779296875 127.3330078125 245.92352294921875 122.06187438964844 240.6143341064453 C 123.5302505493164 250.08828735351562 117.75924682617188 268.3553161621094 120.32536315917969 238.14683532714844" stroke-width="0.0" fill="rgb(85, 38, 46)" opacity="0.6996593" stroke="rgb(87, 107, 46)" stroke-opacity="0.9176304" stroke-linecap="round" stroke-linejoin="round"/>
    <path d="M 393.0244140625 239.11819458007812 C 387.6247863769531 245.8165740966797 379.6214904785156 249.7940673828125 374.2621765136719 246.49545288085938 C 377.9569091796875 246.9053955078125 371.14361572265625 259.4777526855469 375.1833190917969 234.21060180664062 C 370.74554443359375 239.81044006347656 379.48248291015625 240.82823181152344 382.1819152832031 240.94541931152344 C 377.77728271484375 240.9168701171875 385.140625 242.3972930908203 393.0244140625 239.11819458007812" stroke-width="0.0" fill="rgb(76, 76, 74)" opacity="0.75764847" stroke="rgb(156, 94, 238)" stroke-opacity="0.75876254" stroke-linecap="round" stroke-linejoin="round"/>
    <path d="M 102.94378662109375 279.42327880859375 C 54.18418884277344 285.1927490234375 44.016998291015625 272.98291015625 56.06389236450195 246.2924346923828 C 32.72416305541992 281.2535705566406 84.21981048583984 284.4336242675781 60.63176727294922 279.39727783203125 C 73.87570190429688 283.9741516113281 84.296142578125 280.93780517578125 90.78946685791016 283.8984375 C 77.27171325683594 280.4421081542969 88.6016845703125 284.97637939453125 102.94378662109375 279.42327880859375" stroke-width="0.0" fill="rgb(38, 1, 13)" opacity="0.55439436" stroke="rgb(196, 241, 9)" stroke-opacity="0.088345565" stroke-linecap="round" stroke-linejoin="round"/>
    <path d="M 307.8652038574219 233.13462829589844 C 319.3186950683594 242.3007049560547 302.9493103027344 233.11871337890625 300.6894226074219 231.78501892089844 C 290.4793395996094 232.01051330566406 288.0068664550781 235.56480407714844 289.2591857910156 218.7760467529297 C 300.79144287109375 238.58441162109375 296.2643127441406 225.9539794921875 285.630126953125 209.5915985107422 C 296.014892578125 222.06373596191406 299.01641845703125 227.178466796875 307.8652038574219 233.13462829589844" stroke-width="0.0" fill="rgb(93, 124, 127)" opacity="1.0" stroke="rgb(122, 98, 122)" stroke-opacity="0.65260464" stroke-linecap="round" stroke-linejoin="round"/>
    <path d="M 395.2406311035156 274.0149230957031 C 407.754150390625 277.4462890625 398.6200256347656 273.775390625 411.6824035644531 274.75616455078125 C 414.4385070800781 276.0146789550781 408.120849609375 271.8837890625 400.9770202636719 275.9598388671875 C 432.2901916503906 276.24176025390625 430.42694091796875 275.9831237792969 397.7024841308594 273.2806396484375 C 374.6248779296875 263.05743408203125 388.04290771484375 270.2369384765625 395.2406311035156 274.0149230957031" stroke-width="0.0" fill="rgb(72, 74, 71)" opacity="0.8297892" stroke="rgb(160, 16, 230)" stroke-opacity="0.1925685" stroke-linecap="round" stroke-linejoin="round"/>
    <path d="M 146.57908630371094 310.8045959472656 C 145.08062744140625 300.760986328125 161.60928344726562 298.101318359375 170.10073852539062 316.9328918457031 C 158.25816345214844 296.708984375 137.26943969726562 303.7272644042969 96.03108978271484 297.6248474121094 C 148.786865234375 298.0413818359375 160.9547882080078 303.75872802734375 148.9897918701172 303.55657958984375 C 139.08970642089844 294.93505859375 134.46510314941406 319.1679382324219 146.57908630371094 310.8045959472656" stroke-width="0.0" fill="rgb(48, 0, 11)" opacity="0.47112662" stroke="rgb(79, 204, 172)" stroke-opacity="0.20284739" stroke-linecap="round" stroke-linejoin="round"/>
    <path d="M 298.6639709472656 54.952396392822266 C 302.3896789550781 27.05510139465332 302.2910461425781 28.75132179260254 299.7919006347656 59.88093948364258 C 304.73516845703125 49.80055618286133 290.01898193359375 52.545162200927734 315.8705749511719 78.9244384765625 C 313.8077697753906 70.99955749511719 297.4674987792969 58.528934478759766 303.64349365234375 56.57040786743164 C 301.67694091796875 62.731021881103516 284.6581115722656 42.432430267333984 298.6639709472656 54.952396392822266" stroke-width="0.0" fill="rgb(31, 53, 31)" opacity="0.8885564" stroke="rgb(105, 94, 28)" stroke-opacity="0.9363191" stroke-linecap="round" stroke-linejoin="round"/>
    <path d="M 37.13636779785156 245.63233947753906 C 41.40303421020508 217.70132446289062 40.78778076171875 224.54232788085938 41.80659866333008 220.69435119628906 C 46.74388885498047 201.59127807617188 65.91641998291016 182.37326049804688 49.35908889770508 206.38897705078125 C 42.045074462890625 219.9513397216797 44.72574996948242 219.45936584472656 44.067569732666016 218.6171875 C 38.17631912231445 235.6710968017578 41.47871017456055 239.04164123535156 37.13636779785156 245.63233947753906" stroke-width="0.0" fill="rgb(52, 25, 36)" opacity="0.74713326" stroke="rgb(77, 77, 249)" stroke-opacity="0.63462234" stroke-linecap="round" stroke-linejoin="round"/>
    <path d="M 271.7322692871094 73.9371566772461 C 265.9998779296875 73.9811782836914 263.1680908203125 76.54336547851562 267.39532470703125 73.51995086669922 C 275.9469299316406 74.48646545410156 268.8354797363281 72.67359161376953 258.2184143066406 76.22076416015625 C 260.5057373046875 69.52998352050781 273.53594970703125 69.84124755859375 269.9605712890625 67.52848052978516 C 262.37799072265625 61.25125503540039 272.75604248046875 70.2361068725586 271.7322692871094 73.9371566772461" stroke-width="0.0" fill="rgb(42, 58, 35)" opacity="0.98926824" stroke="rgb(145, 72, 239)" stroke-opacity="0.41867852" stroke-linecap="round" stroke-linejoin="round"/>
    <path d="M 105.2574691772461 298.42388916015625 C 134.17770385742188 302.7927551269531 50.61947250366211 322.6726379394531 40.04460525512695 281.9364929199219 C 49.48976516723633 263.4306945800781 21.618898391723633 304.175537109375 96.07360076904297 307.17828369140625 C 145.3091583251953 293.77178955078125 53.81452560424805 305.8668212890625 51.600921630859375 279.8338928222656 C 63.04185104370117 304.6973876953125 150.18191528320312 296.6295471191406 105.2574691772461 298.42388916015625" stroke-width="0.0" fill="rgb(48, 3, 10)" opacity="0.6489812" stroke="rgb(53, 233, 181)" stroke-opacity="0.3196088" stroke-linecap="round" stroke-linejoin="round"/>
    <path d="M 296.7900695800781 78.9914779663086 C 324.8946838378906 96.9641342163086 289.93719482421875 75.7141342163086 287.99151611328125 77.12796020507812 C 263.9622497558594 67.69688415527344 252.5088348388672 86.95549774169922 264.4374084472656 73.947265625 C 260.959228515625 79.24356842041016 264.6348571777344 69.71469116210938 258.5628662109375 74.7732162475586 C 263.6541442871094 76.29891967773438 274.5381774902344 66.93541717529297 296.7900695800781 78.9914779663086" stroke-width="0.0" fill="rgb(22, 50, 29)" opacity="0.8465366" stroke="rgb(23, 212, 91)" stroke-opacity="0.71484005" stroke-linecap="round" stroke-linejoin="round"/>
    <path d="M 422.29522705078125 275.5711975097656 C 414.9474182128906 277.2369689941406 411.944091796875 270.2488708496094 414.6048278808594 272.1597595214844 C 430.04058837890625 272.3981018066406 429.13336181640625 271.6711120605469 414.0054626464844 271.9510803222656 C 412.5537109375 277.8113098144531 445.8102111816406 279.11126708984375 445.00244140625 253.05084228515625 C 441.6619567871094 284.6376953125 401.5000305175781 269.6527099609375 422.29522705078125 275.5711975097656" stroke-width="0.0" fill="rgb(78, 80, 77)" opacity="0.7877936" stroke="rgb(197, 235, 145)" stroke-opacity="0.55274117" stroke-linecap="round" stroke-linejoin="round"/>
    <path d="M 192.2650909423828 141.88612365722656 C 219.26979064941406 179.4449920654297 138.18861389160156 158.85096740722656 187.43553161621094 153.1180877685547 C 177.0817413330078 137.55892944335938 189.47984313964844 148.54127502441406 201.39810180664062 138.234130859375 C 192.78855895996094 145.64540100097656 185.59393310546875 141.5213165283203 197.47373962402344 142.82603454589844 C 205.026123046875 139.6560821533203 184.5072479248047 144.0961456298828 192.2650909423828 141.88612365722656" stroke-width="0.0" fill="rgb(120, 145, 126)" opacity="1.0" stroke="rgb(83, 39, 203)" stroke-opacity="0.5532043" stroke-linecap="round" stroke-linejoin="round"/>
    <path d="M 102.71208953857422 196.49269104003906 C 98.55735778808594 197.5605010986328 90.36326599121094 196.47186279296875 82.85285186767578 196.14736938476562 C 95.23167419433594 196.77394104003906 82.67613983154297 197.97447204589844 76.98674774169922 193.5376434326172 C 87.93014526367188 186.12820434570312 83.95416259765625 188.2817840576172 85.1889419555664 188.3540496826172 C 88.43878173828125 191.0437469482422 94.92280578613281 194.09388732910156 102.71208953857422 196.49269104003906" stroke-width="0.0" fill="rgb(153, 81, 60)" opacity="0.64975053" stroke="rgb(130, 48, 19)" stroke-opacity="0.42808887" stroke-linecap="round" stroke-linejoin="round"/>
    <path d="M 225.509521484375 176.8902587890625 C 226.20062255859375 183.7479705810547 223.54180908203125 184.28244018554688 231.32443237304688 209.68116760253906 C 227.8955841064453 181.21568298339844 225.07077026367188 194.93629455566406 230.93040466308594 160.50563049316406 C 221.0640106201172 188.2393341064453 227.91107177734375 186.29351806640625 233.005859375 183.24267578125 C 227.502685546875 185.89199829101562 225.66407775878906 186.71372985839844 225.509521484375 176.8902587890625" stroke-width="0.0" fill="rgb(28, 36, 14)" opacity="0.67456096" stroke="rgb(117, 202, 80)" stroke-opacity="0.12986518" stroke-linecap="round" stroke-linejoin="round"/>
    <path d="M 151.9900665283203 192.5441436767578 C 149.47377014160156 184.23460388183594 150.71627807617188 185.89068603515625 150.3351287841797 189.98922729492188 C 151.1661834716797 186.60955810546875 147.76483154296875 183.490478515625 146.17474365234375 183.49407958984375 C 145.40728759765625 184.8992156982422 148.7509765625 180.52806091308594 156.11395263671875 178.4921875 C 151.975830078125 176.37718200683594 153.24766540527344 179.87802124023438 151.9900665283203 192.5441436767578" stroke-width="0.0" fill="rgb(154, 79, 60)" opacity="0.81087935" stroke="rgb(83, 9, 133)" stroke-opacity="0.9510301" stroke-linecap="round" stroke-linejoin="round"/>
    <path d="M 147.87493896484375 276.9836730957031 C 176.63832092285156 268.0393981933594 156.4822998046875 288.0226745605469 139.68141174316406 277.9009094238281 C 132.59707641601562 273.1732482910156 127.9013900756836 265.6457824707031 135.90757751464844 270.0200500488281 C 122.86834716796875 247.1870574951172 122.59485626220703 248.3422393798828 131.14556884765625 269.64044189453125 C 137.91607666015625 265.4552307128906 135.3592071533203 273.39453125 147.87493896484375 276.9836730957031" stroke-width="0.0" fill="rgb(78, 54, 63)" opacity="0.9173126" stroke="rgb(48, 46, 127)" stroke-opacity="0.30893323" stroke-linecap="round" stroke-linejoin="round"/>
    <path d="M 386.0536804199219 166.75059509277344 C 392.42303466796875 147.17279052734375 393.9305114746094 145.7162628173828 391.9075012207031 169.97427368164062 C 375.8517150878906 174.49002075195312 386.3096618652344 162.19271850585938 389.2354736328125 169.7648468017578 C 392.9969482421875 156.2766876220703 388.2957458496094 148.40135192871094 392.5584716796875 154.07156372070312 C 388.5351257324219 165.9986572265625 392.1770324707031 171.03195190429688 386.0536804199219 166.75059509277344" stroke-width="0.0" fill="rgb(147, 147, 146)" opacity="0.999979" stroke="rgb(9, 106, 123)" stroke-opacity="0.6389376" stroke-linecap="round" stroke-linejoin="round"/>
    <path d="M 471.049560546875 196.39761352539062 C 469.87066650390625 195.72711181640625 466.9188232421875 200.01654052734375 466.83819580078125 218.70013427734375 C 464.4803771972656 198.2236328125 458.81396484375 197.37086486816406 462.7380065917969 200.80953979492188 C 458.90509033203125 194.90499877929688 457.0213623046875 190.3266143798828 458.4930419921875 192.88807678222656 C 468.7668762207031 190.51434326171875 462.6053771972656 181.1798858642578 471.049560546875 196.39761352539062" stroke-width="0.0" fill="rgb(179, 179, 179)" opacity="0.9802116" stroke="rgb(219, 63, 175)" stroke-opacity="0.60320765" stroke-linecap="round" stroke-linejoin="round"/>
    <path d="M 387.9349365234375 284.60528564453125 C 386.5696105957031 283.6712341308594 386.03656005859375 283.3261413574219 391.4045104980469 285.27386474609375 C 394.3935852050781 283.4237060546875 393.59320068359375 284.2052001953125 389.7679138183594 282.4078674316406 C 393.1255798339844 283.9189147949219 400.7464599609375 285.9122619628906 391.12762451171875 285.8914794921875 C 367.3628845214844 275.35821533203125 375.5965881347656 286.9606628417969 387.9349365234375 284.60528564453125" stroke-width="0.0" fill="rgb(104, 107, 105)" opacity="0.9225454" stroke="rgb(0, 30, 41)" stroke-opacity="0.9400812" stroke-linecap="round" stroke-linejoin="round"/>
    <path d="M 386.09808349609375 138.55213928222656 C 395.9840393066406 141.7161865234375 394.68731689453125 139.09629821777344 393.21014404296875 132.60684204101562 C 378.7918701171875 133.01828002929688 381.0126037597656 132.86119079589844 387.4303894042969 130.1433563232422 C 392.9296569824219 102.52847290039062 408.26123046875 109.71072387695312 390.62744140625 128.41485595703125 C 395.5157775878906 134.62107849121094 393.81292724609375 137.84295654296875 386.09808349609375 138.55213928222656" stroke-width="0.0" fill="rgb(83, 82, 82)" opacity="0.91957676" stroke="rgb(36, 178, 46)" stroke-opacity="0.14992355" stroke-linecap="round" stroke-linejoin="round"/>
    <path d="M 116.32784271240234 285.3026123046875 C 111.1224365234375 286.0067443847656 120.9898452758789 289.054931640625 121.28980255126953 280.7738342285156 C 124.9229965209961 292.56561279296875 110.17052459716797 288.59619140625 73.5394287109375 285.8028564453125 C 80.84427642822266 278.04827880859375 95.79874420166016 289.3824462890625 114.40272521972656 271.20269775390625 C 126.18693542480469 274.58056640625 131.6576385498047 288.039306640625 116.32784271240234 285.3026123046875" stroke-width="0.0" fill="rgb(210, 184, 152)" opacity="0.9326555" stroke="rgb(82, 190, 189)" stroke-opacity="0.5163411" stroke-linecap="round" stroke-linejoin="round"/>
    <path d="M 392.2568054199219 139.29896545410156 C 395.21527099609375 136.7629852294922 392.45941162109375 139.54237365722656 388.52520751953125 140.5200958251953 C 392.24493408203125 138.97479248046875 389.22216796875 141.43995666503906 383.5580749511719 137.65435791015625 C 396.4153137207031 138.48062133789062 387.66668701171875 137.22012329101562 392.013427734375 138.85513305664062 C 389.83160400390625 136.8751220703125 390.39862060546875 142.76080322265625 392.2568054199219 139.29896545410156" stroke-width="0.0" fill="rgb(114, 113, 113)" opacity="0.8399009" stroke="rgb(48, 174, 115)" stroke-opacity="0.484182" stroke-linecap="round" stroke-linejoin="round"/>
    <path d="M 168.20632934570312 148.9075927734375 C 167.8422393798828 146.910400390625 168.30409240722656 150.9155731201172 168.11428833007812 146.97589111328125 C 170.63966369628906 148.4844512939453 164.16688537597656 148.3506317138672 158.7509002685547 140.90084838867188 C 160.48434448242188 136.0055389404297 161.55955505371094 133.9896240234375 159.49172973632812 141.9271240234375 C 172.25335693359375 142.9141845703125 166.47671508789062 143.20811462402344 168.20632934570312 148.9075927734375" stroke-width="0.0" fill="rgb(198, 229, 236)" opacity="0.6702686" stroke="rgb(14, 158, 21)" stroke-opacity="0.603296" stroke-linecap="round" stroke-linejoin="round"/>
    <path d="M 146.2506561279297 243.20701599121094 C 144.3578643798828 243.3771514892578 144.01255798339844 244.8291778564453 145.41387939453125 247.70445251464844 C 139.27076721191406 245.36279296875 129.18624877929688 252.9832305908203 138.88026428222656 244.6283721923828 C 137.70162963867188 248.12889099121094 138.1363983154297 244.8425750732422 138.9257354736328 248.79879760742188 C 137.02101135253906 246.23867797851562 139.99554443359375 243.3257293701172 146.2506561279297 243.20701599121094" stroke-width="0.0" fill="rgb(158, 86, 68)" opacity="0.91317695" stroke="rgb(149, 205, 200)" stroke-opacity="0.8087883" stroke-linecap="round" stroke-linejoin="round"/>
    <path d="M 417.84307861328125 283.6327819824219 C 409.08502197265625 283.62774658203125 400.56451416015625 282.97186279296875 406.3810119628906 283.9859619140625 C 415.047607421875 281.6966857910156 407.46417236328125 286.6411437988281 382.139892578125 284.8013916015625 C 399.80755615234375 283.0098876953125 407.5957946777344 285.0049133300781 401.125244140625 283.4957580566406 C 397.05078125 283.5274658203125 400.3395690917969 284.7149963378906 417.84307861328125 283.6327819824219" stroke-width="0.0" fill="rgb(98, 100, 98)" opacity="0.89913976" stroke="rgb(88, 226, 31)" stroke-opacity="0.08669825" stroke-linecap="round" stroke-linejoin="round"/>
    <path d="M 406.04486083984375 283.6514892578125 C 410.8616638183594 282.0917053222656 405.7480773925781 284.1220397949219 421.37481689453125 282.0881042480469 C 417.8943786621094 281.4040222167969 417.1823425292969 281.88232421875 416.7180480957031 283.1419982910156 C 413.14752197265625 282.681640625 417.2013854980469 283.11407470703125 419.6886901855469 283.41094970703125 C 406.6874084472656 283.8182067871094 410.68829345703125 283.4895935058594 406.04486083984375 283.6514892578125" stroke-width="0.0" fill="rgb(102, 103, 101)" opacity="0.8870141" stroke="rgb(108, 65, 85)" stroke-opacity="0.8997011" stroke-linecap="round" stroke-linejoin="round"/>
    <path d="M 339.6937255859375 139.88189697265625 C 335.94525146484375 142.5897979736328 372.6954345703125 160.39405822753906 352.6347351074219 148.1112060546875 C 332.62109375 142.7474365234375 331.6407470703125 142.3799591064453 334.9369812011719 139.07363891601562 C 359.3212585449219 137.85391235351562 389.40478515625 157.50094604492188 364.6818542480469 143.45433044433594 C 336.88153076171875 133.66197204589844 323.80059814453125 139.94886779785156 339.6937255859375 139.88189697265625" stroke-width="0.0" fill="rgb(123, 124, 123)" opacity="0.87412345" stroke="rgb(147, 244, 13)" stroke-opacity="0.54862773" stroke-linecap="round" stroke-linejoin="round"/>
    <path d="M 281.4633483886719 87.1120834350586 C 268.3836669921875 98.63615417480469 270.8805236816406 105.31944274902344 264.04888916015625 99.97429656982422 C 258.85650634765625 95.68722534179688 256.9335632324219 91.33898162841797 261.5833740234375 97.01136779785156 C 256.8706970214844 91.49169921875 256.4511413574219 94.16959381103516 270.1278381347656 90.4873275756836 C 274.0024108886719 89.92288208007812 283.78558349609375 85.50531768798828 281.4633483886719 87.1120834350586" stroke-width="0.0" fill="rgb(201, 100, 68)" opacity="1.0" stroke="rgb(243, 201, 134)" stroke-opacity="0.5696627" stroke-linecap="round" stroke-linejoin="round"/>
    <path d="M 396.9031982421875 285.6470947265625 C 390.7337341308594 286.3653869628906 388.65594482421875 283.7779235839844 391.5284118652344 282.95941162109375 C 401.5379638671875 281.23114013671875 398.3919372558594 282.66705322265625 391.9659118652344 282.6078796386719 C 385.6731262207031 285.80340576171875 403.4790954589844 285.7913513183594 429.7497253417969 281.9198303222656 C 377.6523742675781 283.3442687988281 377.01904296875 287.1759033203125 396.9031982421875 285.6470947265625" stroke-width="0.0" fill="rgb(79, 81, 79)" opacity="0.7807956" stroke="rgb(147, 25, 252)" stroke-opacity="0.9128271" stroke-linecap="round" stroke-linejoin="round"/>
    <path d="M 239.1586456298828 155.2087860107422 C 252.43276977539062 153.27389526367188 244.18609619140625 160.8163299560547 245.47357177734375 153.61915588378906 C 248.61009216308594 151.17616271972656 250.15512084960938 158.09921264648438 235.3496551513672 160.5631561279297 C 241.84571838378906 157.19232177734375 247.25657653808594 156.8064422607422 248.4293975830078 152.86314392089844 C 236.50387573242188 146.39755249023438 225.1513671875 167.71717834472656 239.1586456298828 155.2087860107422" stroke-width="0.0" fill="rgb(40, 51, 28)" opacity="1.0" stroke="rgb(160, 36, 133)" stroke-opacity="0.8374874" stroke-linecap="round" stroke-linejoin="round"/>
    <path d="M 451.73895263671875 154.20152282714844 C 454.7088317871094 161.45529174804688 448.61065673828125 162.81236267089844 441.4236145019531 160.1187286376953 C 441.84796142578125 151.97149658203125 439.6156005859375 149.83248901367188 444.0665283203125 157.64230346679688 C 443.0065612792969 155.40524291992188 442.1297607421875 155.3357391357422 442.405029296875 150.560791015625 C 441.3254699707031 153.4933319091797 445.92938232421875 154.8998260498047 451.73895263671875 154.20152282714844" stroke-width="0.0" fill="rgb(103, 102, 102)" opacity="0.8852707" stroke="rgb(72, 229, 19)" stroke-opacity="0.52233356" stroke-linecap="round" stroke-linejoin="round"/>
    <path d="M 349.37213134765625 224.6382293701172 C 331.90789794921875 187.53965759277344 369.2138671875 172.55255126953125 347.20770263671875 166.29261779785156 C 359.3190612792969 172.1825408935547 355.7264404296875 176.65684509277344 356.5842590332031 168.3873291015625 C 342.451171875 202.90316772460938 357.5596618652344 166.16111755371094 341.91326904296875 160.62213134765625 C 360.59307861328125 184.4832763671875 330.8431091308594 195.78762817382812 349.37213134765625 224.6382293701172" stroke-width="0.0" fill="rgb(64, 61, 62)" opacity="0.71205425" stroke="rgb(227, 54, 135)" stroke-opacity="0.09690992" stroke-linecap="round" stroke-linejoin="round"/>
    <path d="M 238.03878784179688 154.39547729492188 C 232.7480926513672 157.40432739257812 231.99722290039062 159.38780212402344 234.2901611328125 158.76669311523438 C 238.2122039794922 154.63807678222656 235.529541015625 154.90879821777344 234.6223907470703 160.21627807617188 C 233.251953125 161.3268585205078 237.0924835205078 159.55612182617188 235.6476287841797 160.8450469970703 C 226.6376953125 158.47457885742188 235.4534454345703 158.10362243652344 238.03878784179688 154.39547729492188" stroke-width="0.0" fill="rgb(43, 55, 32)" opacity="0.92379194" stroke="rgb(109, 230, 231)" stroke-opacity="0.65851706" stroke-linecap="round" stroke-linejoin="round"/>
    <path d="M 326.4377746582031 31.7928466796875 C 338.55242919921875 43.570335388183594 327.5780029296875 46.977664947509766 330.79266357421875 53.353389739990234 C 334.10162353515625 42.15465545654297 334.44622802734375 45.24970245361328 335.641845703125 44.99922180175781 C 336.6280822753906 47.32410430908203 338.0526428222656 41.11954879760742 335.1344909667969 45.898681640625 C 325.4402160644531 46.17898178100586 336.9781799316406 45.42873001098633 326.4377746582031 31.7928466796875" stroke-width="0.0" fill="rgb(21, 58, 38)" opacity="0.7785074" stroke="rgb(184, 43, 222)" stroke-opacity="0.32100216" stroke-linecap="round" stroke-linejoin="round"/>
    <path d="M 202.49758911132812 212.993408203125 C 206.1781005859375 206.96807861328125 201.531005859375 213.4987335205078 202.38916015625 227.63507080078125 C 205.09254455566406 193.9033966064453 220.69920349121094 166.77487182617188 217.1127471923828 169.08860778808594 C 198.16404724121094 211.8933868408203 205.5373992919922 218.1122589111328 203.20645141601562 211.6155548095703 C 204.72198486328125 208.89068603515625 204.91256713867188 209.3426055908203 202.49758911132812 212.993408203125" stroke-width="0.0" fill="rgb(40, 50, 27)" opacity="0.9304481" stroke="rgb(159, 159, 174)" stroke-opacity="0.9406518" stroke-linecap="round" stroke-linejoin="round"/>
    <path d="M 393.16326904296875 135.17713928222656 C 396.8522644042969 135.21759033203125 393.55023193359375 156.0306396484375 392.11328125 158.69837951660156 C 392.588623046875 140.49569702148438 395.3971252441406 154.3065185546875 384.7908630371094 144.06459045410156 C 396.1097412109375 147.45584106445312 388.2900390625 143.29531860351562 393.0455322265625 136.70716857910156 C 395.0777587890625 144.69430541992188 390.9908447265625 149.3275604248047 393.16326904296875 135.17713928222656" stroke-width="0.0" fill="rgb(90, 89, 88)" opacity="0.7355473" stroke="rgb(53, 62, 88)" stroke-opacity="0.69219404" stroke-linecap="round" stroke-linejoin="round"/>
    <path d="M 203.12496948242188 213.7251739501953 C 202.5196990966797 213.93328857421875 203.08920288085938 218.46395874023438 203.3619384765625 225.52066040039062 C 206.8748779296875 210.33445739746094 204.63092041015625 202.94480895996094 207.60702514648438 193.67027282714844 C 197.83653259277344 221.18115234375 206.43814086914062 219.1721954345703 209.53485107421875 213.1282501220703 C 207.12136840820312 219.80894470214844 202.38021850585938 215.4105987548828 203.12496948242188 213.7251739501953" stroke-width="0.0" fill="rgb(43, 54, 32)" opacity="0.6891479" stroke="rgb(108, 182, 74)" stroke-opacity="0.9009991" stroke-linecap="round" stroke-linejoin="round"/>
    <path d="M 273.5226745605469 87.54452514648438 C 275.3676452636719 87.59580993652344 273.2422180175781 89.71809387207031 265.8912353515625 90.72669982910156 C 262.56951904296875 92.96598052978516 268.5782775878906 86.02034759521484 261.6842346191406 80.23649597167969 C 257.9686279296875 80.22468566894531 270.2505798339844 89.80703735351562 288.6695251464844 88.86418151855469 C 264.38323974609375 89.02141571044922 276.175537109375 87.50985717773438 273.5226745605469 87.54452514648438" stroke-width="0.0" fill="rgb(211, 244, 246)" opacity="0.7928799" stroke="rgb(74, 51, 100)" stroke-opacity="0.3764633" stroke-linecap="round" stroke-linejoin="round"/>
    <path d="M 168.366943359375 172.6175537109375 C 153.27345275878906 176.36346435546875 163.56265258789062 173.22457885742188 157.73455810546875 187.0400390625 C 158.05296325683594 173.31817626953125 155.66671752929688 179.65505981445312 144.80667114257812 184.98843383789062 C 155.63790893554688 175.70208740234375 160.76307678222656 175.99371337890625 154.7604217529297 176.2416229248047 C 179.5956573486328 175.51473999023438 186.4300537109375 165.34927368164062 168.366943359375 172.6175537109375" stroke-width="0.0" fill="rgb(89, 50, 49)" opacity="0.7940064" stroke="rgb(171, 56, 122)" stroke-opacity="0.6238533" stroke-linecap="round" stroke-linejoin="round"/>
    <path d="M 334.1613464355469 52.27357864379883 C 331.1660461425781 45.735984802246094 331.9745788574219 42.603275299072266 347.027099609375 44.403751373291016 C 364.15509033203125 47.18345642089844 350.409912109375 45.580562591552734 346.76300048828125 44.8966178894043 C 351.6961669921875 47.02729034423828 356.2330017089844 44.385581970214844 337.9990234375 45.08766174316406 C 329.2796936035156 48.68317413330078 333.5986022949219 48.118343353271484 334.1613464355469 52.27357864379883" stroke-width="0.0" fill="rgb(55, 61, 37)" opacity="0.8383696" stroke="rgb(22, 30, 108)" stroke-opacity="0.633853" stroke-linecap="round" stroke-linejoin="round"/>
    <path d="M 394.551513671875 143.4698944091797 C 394.2658386230469 147.4217529296875 393.8677978515625 146.4456329345703 394.66973876953125 137.90879821777344 C 393.4378356933594 131.87539672851562 394.39862060546875 136.4767608642578 389.8694763183594 136.9459686279297 C 391.3929138183594 138.9756317138672 390.64898681640625 136.81430053710938 389.2649230957031 132.68760681152344 C 395.0524597167969 127.73492431640625 394.19293212890625 136.33865356445312 394.551513671875 143.4698944091797" stroke-width="0.0" fill="rgb(138, 138, 137)" opacity="0.7461368" stroke="rgb(126, 172, 137)" stroke-opacity="0.6109833" stroke-linecap="round" stroke-linejoin="round"/>
    <path d="M 434.2391662597656 280.29180908203125 C 432.8572998046875 274.85723876953125 433.37152099609375 274.16741943359375 432.4364929199219 276.7391662597656 C 434.4529113769531 274.6501159667969 430.6507263183594 266.1544189453125 434.1732482910156 280.7997741699219 C 443.11334228515625 281.61932373046875 448.2523498535156 274.04998779296875 432.08123779296875 272.4348449707031 C 444.59124755859375 277.3133239746094 441.920654296875 278.33929443359375 434.2391662597656 280.29180908203125" stroke-width="0.0" fill="rgb(81, 84, 82)" opacity="0.9176349" stroke="rgb(162, 202, 196)" stroke-opacity="0.72921234" stroke-linecap="round" stroke-linejoin="round"/>
    <path d="M 197.6181640625 161.06214904785156 C 182.52822875976562 157.39215087890625 192.31533813476562 162.3726806640625 230.4127655029297 158.1468963623047 C 210.70045471191406 158.1687774658203 208.6707763671875 157.5209503173828 198.1710968017578 159.4315948486328 C 203.48411560058594 160.74850463867188 207.0533905029297 160.92054748535156 193.10562133789062 161.07864379882812 C 160.08114624023438 180.37112426757812 172.72454833984375 172.75233459472656 197.6181640625 161.06214904785156" stroke-width="0.0" fill="rgb(45, 59, 36)" opacity="0.9602181" stroke="rgb(75, 59, 17)" stroke-opacity="0.57418555" stroke-linecap="round" stroke-linejoin="round"/>
    <path d="M 280.2075500488281 82.5727767944336 C 276.00592041015625 86.20350646972656 276.32904052734375 91.57711791992188 261.84368896484375 91.9974594116211 C 279.30438232421875 86.93649291992188 273.3407897949219 89.57891082763672 263.147705078125 83.6738510131836 C 263.0531311035156 82.23059844970703 269.5820617675781 88.15989685058594 289.54779052734375 88.28239440917969 C 271.0406494140625 82.14657592773438 274.2339172363281 91.76837921142578 280.2075500488281 82.5727767944336" stroke-width="0.0" fill="rgb(50, 69, 49)" opacity="0.6695257" stroke="rgb(194, 148, 101)" stroke-opacity="0.2702937" stroke-linecap="round" stroke-linejoin="round"/>
    <path d="M 199.03616333007812 232.5870819091797 C 202.50955200195312 217.18087768554688 201.28805541992188 235.9469757080078 193.31471252441406 259.4658203125 C 207.0081329345703 232.0106964111328 203.4390869140625 202.6080322265625 205.02914428710938 202.50502014160156 C 201.11972045898438 233.7812957763672 198.63467407226562 225.65289306640625 208.149658203125 223.81361389160156 C 201.19137573242188 226.359130859375 199.86769104003906 225.14002990722656 199.03616333007812 232.5870819091797" stroke-width="0.0" fill="rgb(40, 50, 29)" opacity="0.7597127" stroke="rgb(85, 64, 29)" stroke-opacity="0.6204092" stroke-linecap="round" stroke-linejoin="round"/>
    <path d="M 295.1614074707031 100.52429962158203 C 268.538818359375 104.40410614013672 273.12103271484375 101.80308532714844 265.0267639160156 113.4717025756836 C 270.13616943359375 97.90037536621094 276.9423522949219 104.31321716308594 267.1656494140625 101.4192123413086 C 268.36834716796875 103.98726654052734 277.4618225097656 105.10017395019531 262.2279357910156 98.28221130371094 C 269.0963134765625 105.9044418334961 277.4444274902344 98.73190307617188 295.1614074707031 100.52429962158203" stroke-width="0.0" fill="rgb(37, 54, 31)" opacity="0.9243545" stroke="rgb(73, 40, 45)" stroke-opacity="0.9766626" stroke-linecap="round" stroke-linejoin="round"/>
    <path d="M 53.49869155883789 281.4964904785156 C 50.71540451049805 288.43212890625 50.749176025390625 274.2262878417969 56.897682189941406 275.1137390136719 C 45.55809783935547 288.04205322265625 70.62910461425781 276.52972412109375 54.07618713378906 280.26666259765625 C 50.91197204589844 287.2472839355469 52.74488830566406 281.5245361328125 53.880008697509766 286.5389099121094 C 60.450843811035156 285.8819580078125 56.437252044677734 292.3433532714844 53.49869155883789 281.4964904785156" stroke-width="0.0" fill="rgb(63, 44, 51)" opacity="0.8964547" stroke="rgb(158, 48, 17)" stroke-opacity="0.6649355" stroke-linecap="round" stroke-linejoin="round"/>
    <path d="M 330.59326171875 47.85358428955078 C 327.4263610839844 38.16569519042969 328.8527526855469 42.559242248535156 330.6605224609375 48.222904205322266 C 324.07196044921875 78.5973892211914 322.0773620605469 70.49551391601562 326.7669982910156 69.43985748291016 C 331.355224609375 53.88682556152344 332.2553405761719 49.60496139526367 332.28271484375 47.012001037597656 C 331.821533203125 44.77814865112305 330.57684326171875 47.927310943603516 330.59326171875 47.85358428955078" stroke-width="0.0" fill="rgb(46, 56, 34)" opacity="0.9763232" stroke="rgb(216, 224, 40)" stroke-opacity="0.83483094" stroke-linecap="round" stroke-linejoin="round"/>
    <path d="M 165.12506103515625 269.88873291015625 C 165.70156860351562 279.56536865234375 163.64759826660156 262.03546142578125 152.1991424560547 264.1137390136719 C 153.4545135498047 262.9252624511719 146.37744140625 262.62066650390625 145.24301147460938 263.4740295410156 C 150.19639587402344 268.8787536621094 149.7939910888672 268.64300537109375 145.82569885253906 264.1090087890625 C 141.7489013671875 264.0799865722656 156.853515625 257.245849609375 165.12506103515625 269.88873291015625" stroke-width="0.0" fill="rgb(94, 69, 73)" opacity="0.9373687" stroke="rgb(187, 41, 85)" stroke-opacity="0.31874663" stroke-linecap="round" stroke-linejoin="round"/>
    <path d="M 376.7368469238281 100.16163635253906 C 380.8763732910156 98.10535430908203 381.2271423339844 111.92874908447266 374.4524841308594 112.44264221191406 C 381.2980651855469 109.3636703491211 375.3234558105469 97.52918243408203 378.6872253417969 105.26868438720703 C 376.7559814453125 101.53474426269531 378.6741638183594 100.17828369140625 375.0022888183594 103.13439178466797 C 358.95281982421875 113.25518798828125 367.944580078125 105.63944244384766 376.7368469238281 100.16163635253906" stroke-width="0.0" fill="rgb(64, 60, 62)" opacity="0.74124" stroke="rgb(83, 165, 104)" stroke-opacity="0.6035245" stroke-linecap="round" stroke-linejoin="round"/>
    <path d="M 155.5330352783203 127.31169128417969 C 160.94198608398438 126.7214584350586 163.21986389160156 127.62327575683594 147.591552734375 159.71864318847656 C 165.1107177734375 139.49319458007812 163.5099334716797 119.41004180908203 155.79603576660156 127.97291564941406 C 139.11996459960938 136.42884826660156 131.46437072753906 137.5355987548828 156.3719482421875 126.00970458984375 C 157.9635009765625 127.16905975341797 158.31674194335938 130.88922119140625 155.5330352783203 127.31169128417969" stroke-width="0.0" fill="rgb(71, 45, 51)" opacity="0.9244077" stroke="rgb(1, 15, 215)" stroke-opacity="0.90936863" stroke-linecap="round" stroke-linejoin="round"/>
    <path d="M 414.9734191894531 283.2372131347656 C 417.21551513671875 282.74273681640625 418.2779846191406 282.2685241699219 416.028564453125 282.6728210449219 C 423.4439697265625 283.2437744140625 412.1308288574219 281.7041015625 401.99041748046875 285.10528564453125 C 437.3411865234375 282.98260498046875 443.4752197265625 278.1591796875 424.8817443847656 281.68646240234375 C 416.11346435546875 282.08349609375 417.0205993652344 282.2194519042969 414.9734191894531 283.2372131347656" stroke-width="0.0" fill="rgb(76, 78, 76)" opacity="0.8084412" stroke="rgb(213, 118, 8)" stroke-opacity="0.995716" stroke-linecap="round" stroke-linejoin="round"/>
    <path d="M 156.30905151367188 143.44422912597656 C 142.53419494628906 159.0941162109375 181.8654327392578 129.42808532714844 149.36019897460938 165.5285186767578 C 90.9051284790039 241.0650634765625 93.30855560302734 124.87958526611328 121.69104766845703 138.9678192138672 C 130.13784790039062 121.08451843261719 157.34039306640625 127.69145202636719 137.1599884033203 136.3909149169922 C 154.56976318359375 129.1618194580078 166.15318298339844 118.36136627197266 156.30905151367188 143.44422912597656" stroke-width="0.0" fill="rgb(221, 197, 163)" opacity="0.89853925" stroke="rgb(116, 194, 221)" stroke-opacity="0.607667" stroke-linecap="round" stroke-linejoin="round"/>
    <path d="M 185.234375 144.31317138671875 C 197.07557678222656 143.37779235839844 194.39913940429688 144.3047637939453 192.80995178222656 142.0210723876953 C 214.56520080566406 142.19607543945312 200.76760864257812 139.5269317626953 202.40789794921875 141.54306030273438 C 202.83290100097656 140.62310791015625 204.56533813476562 142.8588409423828 200.57093811035156 142.98670959472656 C 191.8642578125 143.1548614501953 192.9759521484375 142.32029724121094 185.234375 144.31317138671875" stroke-width="0.0" fill="rgb(40, 53, 29)" opacity="0.88670236" stroke="rgb(85, 65, 61)" stroke-opacity="0.43039498" stroke-linecap="round" stroke-linejoin="round"/>
    <path d="M 335.02899169921875 69.17453002929688 C 331.37335205078125 70.96635437011719 331.4473876953125 66.3239517211914 325.0392761230469 68.6739273071289 C 339.3999938964844 69.67366027832031 333.5203552246094 73.39993286132812 343.6930847167969 49.71562194824219 C 336.8845520019531 84.33615112304688 323.052978515625 72.53202819824219 339.6590270996094 66.56749725341797 C 330.6256103515625 70.16568756103516 332.6642150878906 72.90116882324219 335.02899169921875 69.17453002929688" stroke-width="0.0" fill="rgb(25, 46, 21)" opacity="0.83592004" stroke="rgb(252, 216, 148)" stroke-opacity="0.6786204" stroke-linecap="round" stroke-linejoin="round"/>
    <path d="M 123.09905242919922 243.08978271484375 C 118.1523666381836 239.23251342773438 122.1318130493164 223.28228759765625 105.69493865966797 239.7179718017578 C 111.40985870361328 231.5885772705078 115.07605743408203 222.87802124023438 109.52448272705078 238.04835510253906 C 113.90931701660156 230.453857421875 119.99317169189453 225.3577423095703 93.37760162353516 217.21505737304688 C 109.41130828857422 218.9152069091797 121.26915740966797 228.8725128173828 123.09905242919922 243.08978271484375" stroke-width="0.0" fill="rgb(77, 54, 63)" opacity="0.9738285" stroke="rgb(83, 190, 14)" stroke-opacity="0.8367845" stroke-linecap="round" stroke-linejoin="round"/>
    <path d="M 390.35791015625 156.21176147460938 C 391.3831481933594 149.43307495117188 390.4579772949219 151.75100708007812 392.933349609375 153.81678771972656 C 391.29974365234375 138.3898162841797 391.6954345703125 137.4053192138672 391.3385314941406 167.4803466796875 C 397.0480041503906 179.7074737548828 389.4608459472656 167.77439880371094 394.74884033203125 141.44712829589844 C 386.7341613769531 152.0670166015625 393.1702880859375 163.49343872070312 390.35791015625 156.21176147460938" stroke-width="0.0" fill="rgb(91, 91, 90)" opacity="0.823025" stroke="rgb(143, 154, 125)" stroke-opacity="0.8001568" stroke-linecap="round" stroke-linejoin="round"/>
    <path d="M 116.80439758300781 234.1397705078125 C 109.2202377319336 239.35272216796875 93.0091781616211 242.07044982910156 108.24827575683594 237.1244659423828 C 109.08194732666016 235.65121459960938 109.2389907836914 234.93954467773438 108.28948211669922 236.7511749267578 C 99.3455810546875 239.63687133789062 111.02916717529297 238.39208984375 110.23076629638672 224.27735900878906 C 107.05430603027344 222.1365203857422 121.31841278076172 231.4386444091797 116.80439758300781 234.1397705078125" stroke-width="0.0" fill="rgb(148, 90, 77)" opacity="0.9900604" stroke="rgb(238, 242, 184)" stroke-opacity="0.34093255" stroke-linecap="round" stroke-linejoin="round"/>
    <path d="M 305.4728698730469 197.0485382080078 C 304.0106201171875 195.2733154296875 305.5989990234375 197.9749755859375 307.92919921875 198.93765258789062 C 311.67919921875 201.2528839111328 313.1809997558594 194.2767791748047 308.629150390625 194.91514587402344 C 317.0427551269531 211.79420471191406 312.0035400390625 205.75587463378906 310.2462158203125 201.89198303222656 C 310.1719055175781 196.4962921142578 310.04266357421875 202.2493896484375 305.4728698730469 197.0485382080078" stroke-width="0.0" fill="rgb(49, 62, 39)" opacity="0.9488933" stroke="rgb(64, 136, 115)" stroke-opacity="0.563157" stroke-linecap="round" stroke-linejoin="round"/>
    <path d="M 446.88726806640625 266.4226989746094 C 440.4404602050781 263.34552001953125 451.30224609375 272.5426025390625 468.0894470214844 253.74334716796875 C 479.4674987792969 229.4957733154297 475.6181945800781 248.9863739013672 463.6299743652344 260.5650634765625 C 450.2225341796875 270.1073303222656 454.8216552734375 263.7762756347656 453.6380310058594 266.3392333984375 C 440.4577941894531 270.213134765625 433.4139099121094 265.2890625 446.88726806640625 266.4226989746094" stroke-width="0.0" fill="rgb(66, 66, 65)" opacity="0.8319382" stroke="rgb(144, 178, 220)" stroke-opacity="0.58335125" stroke-linecap="round" stroke-linejoin="round"/>
    <path d="M 269.12017822265625 210.19467163085938 C 278.15106201171875 190.92294311523438 276.9786071777344 200.9966583251953 273.0978698730469 205.37841796875 C 273.07177734375 206.46864318847656 271.2860107421875 202.27987670898438 264.9466857910156 236.5902557373047 C 273.2480773925781 222.913330078125 267.02850341796875 210.11463928222656 268.2663269042969 225.59600830078125 C 272.6063537597656 238.25875854492188 262.31976318359375 230.6165771484375 269.12017822265625 210.19467163085938" stroke-width="0.0" fill="rgb(43, 59, 42)" opacity="0.7435617" stroke="rgb(92, 148, 144)" stroke-opacity="0.29915175" stroke-linecap="round" stroke-linejoin="round"/>
    <path d="M 157.6167449951172 274.7171630859375 C 165.36407470703125 276.5478515625 154.2911376953125 278.2536926269531 160.8314971923828 279.8128356933594 C 151.74916076660156 277.6686096191406 138.49183654785156 285.77630615234375 127.96696472167969 258.7001647949219 C 123.25862884521484 250.7095489501953 146.18724060058594 238.09744262695312 150.516845703125 262.32012939453125 C 166.76919555664062 265.24371337890625 167.99131774902344 278.0904235839844 157.6167449951172 274.7171630859375" stroke-width="0.0" fill="rgb(218, 189, 152)" opacity="0.79803514" stroke="rgb(196, 92, 135)" stroke-opacity="0.68786865" stroke-linecap="round" stroke-linejoin="round"/>
    <path d="M 439.62322998046875 279.431884765625 C 432.7457275390625 283.43377685546875 420.40740966796875 280.4009704589844 411.8138122558594 283.0840759277344 C 413.6295166015625 283.6543273925781 402.67498779296875 283.09783935546875 400.17254638671875 283.8437194824219 C 398.70068359375 284.9138488769531 423.3866882324219 281.0861511230469 417.6290588378906 283.9570617675781 C 413.2769470214844 283.0535888671875 421.544189453125 280.9580993652344 439.62322998046875 279.431884765625" stroke-width="0.0" fill="rgb(102, 103, 101)" opacity="0.69500124" stroke="rgb(11, 50, 159)" stroke-opacity="0.41662672" stroke-linecap="round" stroke-linejoin="round"/>
    <path d="M 91.43289184570312 216.95394897460938 C 117.83201599121094 219.84429931640625 96.74143981933594 224.34405517578125 89.7795639038086 218.3189239501953 C 96.42823028564453 215.0005645751953 75.48751831054688 217.6563720703125 65.62157440185547 227.3085479736328 C 88.48235321044922 212.41400146484375 93.7834243774414 222.92434692382812 103.4593505859375 220.72283935546875 C 80.92427825927734 216.15350341796875 88.8267593383789 221.6114959716797 91.43289184570312 216.95394897460938" stroke-width="0.0" fill="rgb(103, 78, 77)" opacity="0.6922594" stroke="rgb(149, 215, 197)" stroke-opacity="0.8126367" stroke-linecap="round" stroke-linejoin="round"/>
    <path d="M 314.238037109375 50.06109619140625 C 311.6355895996094 41.3208122253418 322.7989501953125 48.710975646972656 313.6274108886719 53.061492919921875 C 311.02105712890625 35.815826416015625 301.32958984375 32.97417449951172 316.2303466796875 52.75469970703125 C 317.7286376953125 45.7236328125 315.33502197265625 42.57368850708008 317.7030334472656 46.23543167114258 C 308.465576171875 46.3848991394043 310.2213134765625 45.209983825683594 314.238037109375 50.06109619140625" stroke-width="0.0" fill="rgb(63, 75, 55)" opacity="0.82448155" stroke="rgb(251, 92, 48)" stroke-opacity="0.48906416" stroke-linecap="round" stroke-linejoin="round"/>
    <path d="M 360.2003173828125 253.86192321777344 C 366.4295654296875 230.63067626953125 354.7942810058594 210.2445068359375 361.12872314453125 227.86912536621094 C 360.2245788574219 230.93072509765625 361.8281555175781 228.77972412109375 361.56365966796875 229.67449951171875 C 360.6004333496094 227.67884826660156 362.8421325683594 232.2113494873047 359.0706787109375 222.7289276123047 C 359.62237548828125 226.7071533203125 361.4710388183594 236.791748046875 360.2003173828125 253.86192321777344" stroke-width="0.0" fill="rgb(81, 83, 81)" opacity="0.8935779" stroke="rgb(254, 130, 110)" stroke-opacity="0.1935997" stroke-linecap="round" stroke-linejoin="round"/>
    <path d="M 102.34728240966797 116.25017547607422 C 97.72195434570312 114.1923599243164 100.57906341552734 128.1790313720703 100.79842376708984 132.7030792236328 C 97.4641342163086 127.04135131835938 98.69822692871094 116.18235778808594 98.51551055908203 126.79498291015625 C 98.69268798828125 126.33452606201172 95.39564514160156 109.82686614990234 103.69715118408203 115.52629852294922 C 108.91024017333984 119.02268981933594 117.4846420288086 127.64407348632812 102.34728240966797 116.25017547607422" stroke-width="0.0" fill="rgb(77, 51, 59)" opacity="0.9099866" stroke="rgb(18, 2, 147)" stroke-opacity="0.434441" stroke-linecap="round" stroke-linejoin="round"/>
    <path d="M 318.3309020996094 37.88660430908203 C 310.0814208984375 53.359920501708984 320.8841247558594 60.14244079589844 319.9332275390625 75.52986907958984 C 311.2987365722656 45.64852523803711 310.37896728515625 42.327720642089844 319.7388000488281 30.236234664916992 C 310.6432800292969 47.035701751708984 317.0321350097656 47.36982727050781 314.6091003417969 46.968544006347656 C 311.03326416015625 44.359710693359375 311.4964904785156 57.850101470947266 318.3309020996094 37.88660430908203" stroke-width="0.0" fill="rgb(13, 47, 26)" opacity="0.7143389" stroke="rgb(111, 122, 230)" stroke-opacity="0.4584852" stroke-linecap="round" stroke-linejoin="round"/>
    <path d="M 266.0169372558594 84.77561950683594 C 263.40472412109375 86.96197509765625 261.893798828125 76.11241149902344 293.7201232910156 79.55355072021484 C 270.41058349609375 66.65017700195312 250.98561096191406 83.29802703857422 262.5130310058594 77.69164276123047 C 265.3717346191406 88.06828308105469 262.25799560546875 78.37732696533203 288.5273742675781 78.19087219238281 C 251.91978454589844 75.04200744628906 253.50341796875 80.8705825805664 266.0169372558594 84.77561950683594" stroke-width="0.0" fill="rgb(216, 121, 91)" opacity="1.0" stroke="rgb(75, 239, 153)" stroke-opacity="0.32570168" stroke-linecap="round" stroke-linejoin="round"/>
    <path d="M 425.189697265625 280.2483825683594 C 421.80145263671875 282.4018249511719 425.81103515625 278.2386779785156 421.4986877441406 280.2825927734375 C 436.1355285644531 274.43585205078125 435.730224609375 275.4533996582031 424.2415771484375 279.578125 C 420.5992126464844 284.61895751953125 440.4115295410156 282.26507568359375 442.6241760253906 277.2558898925781 C 421.27679443359375 283.5861511230469 423.1820983886719 281.0838928222656 425.189697265625 280.2483825683594" stroke-width="0.0" fill="rgb(77, 79, 77)" opacity="0.64826286" stroke="rgb(167, 48, 42)" stroke-opacity="0.40228465" stroke-linecap="round" stroke-linejoin="round"/>
    <path d="M 303.94415283203125 83.672607421875 C 303.3956604003906 83.44649505615234 303.5142822265625 84.0904769897461 300.5984802246094 83.70216369628906 C 303.45574951171875 84.46623229980469 307.2693786621094 79.7715835571289 291.0950622558594 103.19219970703125 C 304.7688903808594 87.82026672363281 311.8887634277344 81.54624938964844 327.9839172363281 66.50765228271484 C 299.65093994140625 86.80995178222656 291.83770751953125 104.47874450683594 303.94415283203125 83.672607421875" stroke-width="0.0" fill="rgb(22, 47, 23)" opacity="0.91287154" stroke="rgb(151, 16, 62)" stroke-opacity="0.18299142" stroke-linecap="round" stroke-linejoin="round"/>
    <path d="M 268.8702087402344 102.37188720703125 C 270.075439453125 105.36587524414062 265.9766845703125 112.8231201171875 264.493408203125 117.8429183959961 C 272.2048034667969 101.83724975585938 267.7799072265625 99.30606842041016 269.5589294433594 108.2837905883789 C 270.24322509765625 111.23885345458984 268.76849365234375 109.53889465332031 269.16754150390625 104.72891998291016 C 274.4864501953125 102.09367370605469 264.6329040527344 103.29854583740234 268.8702087402344 102.37188720703125" stroke-width="0.0" fill="rgb(130, 165, 153)" opacity="0.92094916" stroke="rgb(98, 52, 163)" stroke-opacity="0.3599906" stroke-linecap="round" stroke-linejoin="round"/>
    <path d="M 300.60845947265625 92.67559051513672 C 295.6279602050781 95.24822235107422 282.34613037109375 83.09439849853516 269.7040710449219 90.30986022949219 C 285.27618408203125 86.11651611328125 273.57086181640625 92.65573120117188 257.19488525390625 80.49139404296875 C 277.3833923339844 89.06864929199219 279.0997619628906 87.02398681640625 280.1836242675781 86.03628540039062 C 264.66058349609375 84.66679382324219 284.53759765625 84.88941955566406 300.60845947265625 92.67559051513672" stroke-width="0.0" fill="rgb(30, 49, 27)" opacity="0.8384134" stroke="rgb(34, 193, 135)" stroke-opacity="0.87877685" stroke-linecap="round" stroke-linejoin="round"/>
    <path d="M 397.0661926269531 111.3084487915039 C 399.80963134765625 110.96857452392578 393.006591796875 114.44640350341797 399.0914306640625 111.96017456054688 C 377.938232421875 119.09271240234375 380.4046630859375 141.67404174804688 393.392578125 122.69908142089844 C 397.2502136230469 117.89794921875 394.71368408203125 119.52252197265625 395.61981201171875 119.55965423583984 C 399.84454345703125 109.18231964111328 398.1714782714844 110.53644561767578 397.0661926269531 111.3084487915039" stroke-width="0.0" fill="rgb(223, 202, 220)" opacity="1.0" stroke="rgb(100, 104, 91)" stroke-opacity="0.32562545" stroke-linecap="round" stroke-linejoin="round"/>
    <path d="M 263.7802734375 119.2292709350586 C 265.20330810546875 105.9405288696289 264.6998596191406 121.70795440673828 265.12725830078125 111.54509735107422 C 269.83868408203125 102.13685607910156 270.5951232910156 101.57891082763672 262.7877197265625 124.02831268310547 C 264.0312194824219 117.99623107910156 290.3027038574219 107.9529037475586 289.5632629394531 111.98857879638672 C 257.3992004394531 120.69681549072266 266.1922912597656 128.29649353027344 263.7802734375 119.2292709350586" stroke-width="0.0" fill="rgb(42, 47, 22)" opacity="0.85991526" stroke="rgb(169, 56, 73)" stroke-opacity="0.30726653" stroke-linecap="round" stroke-linejoin="round"/>
    <path d="M 388.90216064453125 119.84455108642578 C 396.0559387207031 109.7717056274414 387.2225341796875 122.05241394042969 382.8548583984375 120.84405517578125 C 390.7368469238281 121.07860565185547 387.3382263183594 119.31226348876953 396.7601318359375 111.05265808105469 C 371.6573181152344 121.21324157714844 377.5221862792969 117.36404418945312 394.91455078125 110.2925033569336 C 402.0819396972656 104.64769744873047 401.0252380371094 111.41767883300781 388.90216064453125 119.84455108642578" stroke-width="0.0" fill="rgb(70, 71, 69)" opacity="0.87502337" stroke="rgb(170, 40, 205)" stroke-opacity="0.62345934" stroke-linecap="round" stroke-linejoin="round"/>
    <path d="M 101.27989959716797 132.2583465576172 C 101.09992218017578 135.73468017578125 101.51895141601562 129.4442138671875 112.09878540039062 123.11468505859375 C 107.47622680664062 120.43989562988281 99.05896759033203 111.82064819335938 99.594482421875 118.78761291503906 C 96.0557861328125 136.08688354492188 98.6089859008789 123.4497299194336 99.85467529296875 117.72882843017578 C 99.45863342285156 128.6693878173828 101.8201904296875 134.5699462890625 101.27989959716797 132.2583465576172" stroke-width="0.0" fill="rgb(247, 194, 136)" opacity="0.48809692" stroke="rgb(36, 0, 78)" stroke-opacity="0.9399238" stroke-linecap="round" stroke-linejoin="round"/>
    <path d="M 170.62342834472656 150.16470336914062 C 168.59327697753906 150.28665161132812 165.87208557128906 145.76617431640625 159.64146423339844 143.0212860107422 C 162.4998779296875 146.08453369140625 150.40823364257812 151.38803100585938 161.4171142578125 137.21331787109375 C 158.34103393554688 139.03912353515625 162.3407745361328 134.8847198486328 166.14300537109375 133.9520721435547 C 164.09371948242188 135.9568328857422 172.82005310058594 134.90269470214844 170.62342834472656 150.16470336914062" stroke-width="0.0" fill="rgb(219, 243, 244)" opacity="0.24348076" stroke="rgb(21, 232, 53)" stroke-opacity="0.25820422" stroke-linecap="round" stroke-linejoin="round"/>
  </g>
</svg>
