<?xml version="1.0" ?>
<svg xmlns="http://www.w3.org/2000/svg" version="1.1" width="512" height="352">
  <defs/>
  <g>
    <path d="M 143.61778259277344 234.4608612060547 C 135.48770141601562 266.68841552734375 154.82728576660156 251.21136474609375 104.76868438720703 258.4364318847656 C 67.01317596435547 244.82766723632812 68.19615173339844 242.22145080566406 58.10246658325195 227.02359008789062 C 55.001522064208984 189.89744567871094 55.01167678833008 186.0227508544922 96.67840576171875 176.621826171875 C 157.88392639160156 179.267333984375 149.83518981933594 164.23410034179688 143.61778259277344 234.4608612060547" stroke-width="0.0" fill="rgb(211, 179, 145)" opacity="0.87755674" stroke="rgb(152, 59, 232)" stroke-opacity="0.008471028" stroke-linecap="round" stroke-linejoin="round"/>
    <path d="M 254.208251953125 168.7977752685547 C 225.20138549804688 214.0385284423828 216.84962463378906 232.31558227539062 192.7522430419922 261.7650451660156 C 190.69644165039062 234.80332946777344 180.75233459472656 237.65020751953125 175.2528839111328 192.9147186279297 C 202.88027954101562 151.24932861328125 144.1023712158203 202.29713439941406 188.39773559570312 143.39512634277344 C 257.05462646484375 127.62413024902344 272.62469482421875 165.11215209960938 254.208251953125 168.7977752685547" stroke-width="0.0" fill="rgb(44, 74, 47)" opacity="0.5727818" stroke="rgb(96, 55, 23)" stroke-opacity="0.49800745" stroke-linecap="round" stroke-linejoin="round"/>
    <path d="M 320.59100341796875 225.29656982421875 C 336.7040100097656 255.0331268310547 330.3679504394531 240.5964813232422 266.16473388671875 227.37818908691406 C 273.5572204589844 275.154052734375 244.13922119140625 289.59625244140625 257.6120910644531 226.55470275878906 C 240.30287170410156 120.61383819580078 246.06898498535156 136.22547912597656 262.6173095703125 196.0516357421875 C 288.68853759765625 199.31568908691406 310.0945739746094 167.42098999023438 320.59100341796875 225.29656982421875" stroke-width="0.0" fill="rgb(47, 71, 59)" opacity="0.7902818" stroke="rgb(71, 91, 210)" stroke-opacity="0.8430703" stroke-linecap="round" stroke-linejoin="round"/>
  </g>
</svg>
