<?xml version="1.0" ?>
<svg xmlns="http://www.w3.org/2000/svg" version="1.1" width="512" height="509">
  <defs/>
  <g>
    <path d="M 365.0682373046875 42.30088806152344 C 364.3062744140625 90.00538635253906 370.0321350097656 93.45344543457031 336.1855163574219 97.73738861083984 C 287.1917419433594 96.45225524902344 281.63623046875 94.74030303955078 284.8491516113281 23.004297256469727 C 305.5912780761719 24.753835678100586 302.6907958984375 24.607526779174805 313.62152099609375 14.965680122375488 C 363.7101135253906 8.935940742492676 368.7997131347656 16.79965591430664 365.0682373046875 42.30088806152344" stroke-width="0.0" fill="rgb(74, 181, 191)" opacity="0.23154825" stroke="rgb(221, 110, 17)" stroke-opacity="0.91160524" stroke-linecap="round" stroke-linejoin="round"/>
    <path d="M 526.7064819335938 260.455810546875 C 516.41015625 263.13946533203125 522.7111206054688 284.004638671875 518.005126953125 316.50482177734375 C 499.1833801269531 326.37298583984375 503.723388671875 331.96392822265625 503.0622863769531 243.00904846191406 C 504.5295715332031 247.41200256347656 503.8892517089844 250.84222412109375 504.0185852050781 160.51168823242188 C 562.1882934570312 182.1715850830078 522.6659545898438 232.79953002929688 526.7064819335938 260.455810546875" stroke-width="0.0" fill="rgb(255, 255, 255)" opacity="0.8454264" stroke="rgb(104, 20, 8)" stroke-opacity="0.08330974" stroke-linecap="round" stroke-linejoin="round"/>
    <path d="M 418.6400451660156 466.6494445800781 C 415.0958557128906 454.1943359375 419.06756591796875 503.0464782714844 415.1239318847656 491.6040344238281 C 397.6350402832031 486.4073791503906 401.3767395019531 504.3996887207031 400.9208068847656 465.5947570800781 C 292.8121032714844 464.990478515625 280.8028869628906 467.07403564453125 419.30511474609375 466.5286865234375 C 420.23529052734375 411.34735107421875 418.00750732421875 376.7408447265625 418.6400451660156 466.6494445800781" stroke-width="0.0" fill="rgb(222, 219, 202)" opacity="1.0" stroke="rgb(187, 41, 111)" stroke-opacity="0.7266004" stroke-linecap="round" stroke-linejoin="round"/>
  </g>
</svg>
