<?xml version="1.0" ?>
<svg xmlns="http://www.w3.org/2000/svg" version="1.1" width="508" height="512">
  <defs/>
  <g>
    <path d="M 373.5299072265625 8.003131866455078 C 141.35800170898438 81.88408660888672 329.89117431640625 42.81340408325195 288.9628601074219 232.91441345214844 C 97.09923553466797 275.1186218261719 52.66911315917969 244.18450927734375 5.846026420593262 183.76681518554688 C 5.458968162536621 -68.51513671875 5.963504791259766 -2.544555902481079 5.649578094482422 8.057843208312988 C 166.47950744628906 8.046708106994629 179.04933166503906 7.978375434875488 373.5299072265625 8.003131866455078" stroke-width="0.0" fill="rgb(111, 107, 100)" opacity="0.4920505" stroke="rgb(163, 184, 129)" stroke-opacity="0.5939664" stroke-linecap="round" stroke-linejoin="round"/>
    <path d="M 466.62158203125 88.06629943847656 C 486.14239501953125 221.08201599121094 549.779052734375 278.4890441894531 436.72601318359375 363.7681579589844 C 76.14043426513672 369.6747131347656 127.77833557128906 266.6163330078125 307.6155700683594 76.56719970703125 C 311.6867980957031 19.720983505249023 270.7471618652344 27.503942489624023 367.2635192871094 72.72026824951172 C 393.4320373535156 81.67855072021484 276.2203063964844 97.2450942993164 466.62158203125 88.06629943847656" stroke-width="0.0" fill="rgb(151, 156, 158)" opacity="1.0" stroke="rgb(40, 157, 219)" stroke-opacity="0.9114181" stroke-linecap="round" stroke-linejoin="round"/>
    <path d="M 502.0948791503906 174.41905212402344 C 418.87469482421875 103.63349914550781 399.37017822265625 22.606369018554688 371.089111328125 81.92135620117188 C 273.24163818359375 85.36063385009766 324.5308532714844 -15.60904598236084 212.09765625 92.28634643554688 C 112.51766967773438 -14.279214859008789 117.7369384765625 12.444221496582031 502.27471923828125 7.957744121551514 C 501.9344787597656 15.244977951049805 502.385986328125 -34.17836380004883 502.0948791503906 174.41905212402344" stroke-width="0.0" fill="rgb(132, 169, 172)" opacity="0.89040375" stroke="rgb(228, 242, 245)" stroke-opacity="0.17199986" stroke-linecap="round" stroke-linejoin="round"/>
    <path d="M 263.7605285644531 326.9306335449219 C 209.47157287597656 454.2039794921875 347.8589782714844 409.58380126953125 20.490568161010742 425.9617919921875 C -41.870361328125 355.80987548828125 100.9483642578125 476.5261535644531 86.76998138427734 273.3277587890625 C 179.88809204101562 307.5152893066406 104.37464141845703 417.5312805175781 143.3916015625 398.58929443359375 C 260.0238037109375 458.3381652832031 130.32131958007812 286.5885009765625 263.7605285644531 326.9306335449219" stroke-width="0.0" fill="rgb(0, 38, 73)" opacity="0.52542824" stroke="rgb(254, 73, 88)" stroke-opacity="0.34953937" stroke-linecap="round" stroke-linejoin="round"/>
    <path d="M 368.9504089355469 275.3685607910156 C 264.3675537109375 301.9742431640625 382.2522277832031 248.8603973388672 362.8211669921875 311.5928039550781 C 311.5709228515625 237.2412872314453 307.340087890625 458.16156005859375 310.8145751953125 284.3052673339844 C 280.5164489746094 231.5596160888672 351.1251220703125 287.24127197265625 292.6344299316406 202.46717834472656 C 486.9986877441406 201.26904296875 235.99530029296875 230.08056640625 368.9504089355469 275.3685607910156" stroke-width="0.0" fill="rgb(239, 235, 221)" opacity="0.9087967" stroke="rgb(183, 104, 1)" stroke-opacity="0.74067336" stroke-linecap="round" stroke-linejoin="round"/>
    <path d="M 543.3519287109375 336.2184753417969 C 489.4632568359375 425.296142578125 475.3597106933594 396.68341064453125 433.5441589355469 345.6082458496094 C 420.7488098144531 452.4263000488281 414.5194091796875 458.2572021484375 418.54876708984375 334.8310852050781 C 332.7667541503906 349.2144775390625 388.7704162597656 299.6484375 429.00299072265625 328.72906494140625 C 510.6444396972656 353.7851257324219 387.2552185058594 218.844970703125 543.3519287109375 336.2184753417969" stroke-width="0.0" fill="rgb(194, 190, 183)" opacity="1.0" stroke="rgb(117, 218, 235)" stroke-opacity="0.27286473" stroke-linecap="round" stroke-linejoin="round"/>
    <path d="M 117.91079711914062 321.5643005371094 C 109.97288513183594 149.86973571777344 121.17378234863281 189.79444885253906 111.7327651977539 181.32838439941406 C 104.59777069091797 237.06300354003906 133.00502014160156 269.2190246582031 97.20770263671875 247.97325134277344 C 102.86930084228516 153.07461547851562 82.379150390625 174.70741271972656 128.35708618164062 171.0487060546875 C 123.63838195800781 163.75689697265625 133.61912536621094 274.6416931152344 117.91079711914062 321.5643005371094" stroke-width="0.0" fill="rgb(255, 250, 232)" opacity="0.9305088" stroke="rgb(58, 196, 15)" stroke-opacity="0.109088555" stroke-linecap="round" stroke-linejoin="round"/>
    <path d="M 250.22901916503906 400.2799072265625 C 230.18544006347656 429.1871643066406 237.9744110107422 418.05010986328125 89.04364776611328 420.1169128417969 C 76.6575698852539 426.7249450683594 97.59667205810547 425.9051208496094 17.0681095123291 401.760986328125 C 140.67681884765625 399.7006530761719 155.2068634033203 402.2864074707031 170.2588653564453 400.50152587890625 C 180.87193298339844 401.9111328125 218.28550720214844 401.08599853515625 250.22901916503906 400.2799072265625" stroke-width="0.0" fill="rgb(44, 44, 62)" opacity="0.9915168" stroke="rgb(127, 56, 188)" stroke-opacity="0.5364975" stroke-linecap="round" stroke-linejoin="round"/>
  </g>
</svg>
