<?xml version="1.0" ?>
<svg xmlns="http://www.w3.org/2000/svg" version="1.1" width="512" height="512">
  <defs/>
  <g>
    <path d="M 290.55340576171875 288.7702331542969 C 361.25030517578125 333.1615905761719 362.0916442871094 346.44158935546875 203.26837158203125 348.1921691894531 C 193.5151824951172 306.5198059082031 190.45074462890625 215.44415283203125 204.21485900878906 179.17510986328125 C 261.78155517578125 175.8961944580078 242.95005798339844 207.06663513183594 233.86123657226562 164.25953674316406 C 309.01300048828125 159.99818420410156 264.53582763671875 195.39154052734375 290.55340576171875 288.7702331542969" stroke-width="0.0" fill="rgb(255, 227, 0)" opacity="0.12730527" stroke="rgb(221, 217, 158)" stroke-opacity="0.9339558" stroke-linecap="round" stroke-linejoin="round"/>
    <path d="M 288.0 245.0 C 287.33013916015625 247.5 285.5 249.3301239013672 283.0 250.0 C 280.5 249.3301239013672 278.66986083984375 247.5 278.0 245.0 C 278.66986083984375 242.5 280.5 240.6698760986328 283.0 240.0 C 285.5 240.6698760986328 287.33013916015625 242.5 288.0 245.0" stroke-width="0.0" fill="rgb(98, 168, 205)" opacity="1.0" stroke="rgb(162, 39, 110)" stroke-opacity="0.67693174" stroke-linecap="round" stroke-linejoin="round"/>
    <path d="M 124.0 198.0 C 123.33012390136719 200.5 121.5 202.3301239013672 119.0 203.0 C 116.5 202.3301239013672 114.66987609863281 200.5 114.0 198.0 C 114.66987609863281 195.5 116.5 193.6698760986328 119.0 193.0 C 121.5 193.6698760986328 123.33012390136719 195.5 124.0 198.0" stroke-width="0.0" fill="rgb(241, 86, 35)" opacity="1.0" stroke="rgb(90, 6, 98)" stroke-opacity="0.37507588" stroke-linecap="round" stroke-linejoin="round"/>
  </g>
</svg>
