<?xml version="1.0" ?>
<svg xmlns="http://www.w3.org/2000/svg" version="1.1" width="512" height="512">
  <defs/>
  <g>
    <path d="M 359.61395263671875 193.94845581054688 C 430.6929016113281 318.74981689453125 406.0973815917969 359.495361328125 191.50392150878906 361.337890625 C 179.55743408203125 311.78167724609375 177.539794921875 200.2703857421875 191.10960388183594 166.1547088623047 C 241.9711456298828 160.619140625 223.70989990234375 188.77452087402344 218.92442321777344 146.01390075683594 C 356.1144714355469 129.86781311035156 303.89556884765625 145.17208862304688 359.61395263671875 193.94845581054688" stroke-width="0.0" fill="rgb(254, 220, 0)" opacity="0.9974289" stroke="rgb(221, 217, 158)" stroke-opacity="0.9339558" stroke-linecap="round" stroke-linejoin="round"/>
    <path d="M 393.4540710449219 97.0564193725586 C 403.62353515625 243.98463439941406 372.00299072265625 254.98162841796875 334.7496643066406 269.0057373046875 C 279.5689392089844 273.7284240722656 274.8057556152344 239.0154266357422 287.66546630859375 242.00949096679688 C 279.2080993652344 241.10336303710938 282.7964782714844 244.93519592285156 300.9945373535156 224.54244995117188 C 363.7614440917969 140.63502502441406 225.08216857910156 119.5739517211914 393.4540710449219 97.0564193725586" stroke-width="0.0" fill="rgb(96, 167, 208)" opacity="0.9692741" stroke="rgb(162, 39, 110)" stroke-opacity="0.67693174" stroke-linecap="round" stroke-linejoin="round"/>
    <path d="M 118.79714965820312 219.2742919921875 C 130.91807556152344 226.1573486328125 109.60934448242188 248.3690643310547 69.45240783691406 329.5567626953125 C -16.472087860107422 337.1982116699219 -10.818207740783691 326.6601867675781 -4.348875522613525 11.49720287322998 C 43.300315856933594 31.323989868164062 70.62435913085938 35.39069747924805 252.11143493652344 52.359710693359375 C 48.816993713378906 214.50897216796875 51.77911376953125 181.15452575683594 118.79714965820312 219.2742919921875" stroke-width="0.0" fill="rgb(69, 168, 240)" opacity="0.4523403" stroke="rgb(90, 6, 98)" stroke-opacity="0.37507588" stroke-linecap="round" stroke-linejoin="round"/>
    <path d="M 187.0 291.0 C 186.3301239013672 293.5 184.5 295.33013916015625 182.0 296.0 C 179.5 295.33013916015625 177.6698760986328 293.5 177.0 291.0 C 177.6698760986328 288.5 179.5 286.66986083984375 182.0 286.0 C 184.5 286.66986083984375 186.3301239013672 288.5 187.0 291.0" stroke-width="0.0" fill="rgb(254, 220, 0)" opacity="1.0" stroke="rgb(51, 123, 91)" stroke-opacity="0.36698323" stroke-linecap="round" stroke-linejoin="round"/>
    <path d="M 124.0 196.0 C 123.33012390136719 198.5 121.5 200.3301239013672 119.0 201.0 C 116.5 200.3301239013672 114.66987609863281 198.5 114.0 196.0 C 114.66987609863281 193.5 116.5 191.6698760986328 119.0 191.0 C 121.5 191.6698760986328 123.33012390136719 193.5 124.0 196.0" stroke-width="0.0" fill="rgb(241, 86, 35)" opacity="1.0" stroke="rgb(181, 205, 30)" stroke-opacity="0.5012865" stroke-linecap="round" stroke-linejoin="round"/>
    <path d="M 136.0 217.0 C 135.3301239013672 219.5 133.5 221.3301239013672 131.0 222.0 C 128.5 221.3301239013672 126.66987609863281 219.5 126.0 217.0 C 126.66987609863281 214.5 128.5 212.6698760986328 131.0 212.0 C 133.5 212.6698760986328 135.3301239013672 214.5 136.0 217.0" stroke-width="0.0" fill="rgb(159, 54, 14)" opacity="1.0" stroke="rgb(144, 150, 127)" stroke-opacity="0.8712446" stroke-linecap="round" stroke-linejoin="round"/>
    <path d="M 262.0 407.0 C 261.33013916015625 409.5 259.5 411.33013916015625 257.0 412.0 C 254.5 411.33013916015625 252.6698760986328 409.5 252.0 407.0 C 252.6698760986328 404.5 254.5 402.66986083984375 257.0 402.0 C 259.5 402.66986083984375 261.33013916015625 404.5 262.0 407.0" stroke-width="0.0" fill="rgb(246, 218, 10)" opacity="1.0" stroke="rgb(168, 20, 223)" stroke-opacity="0.045824315" stroke-linecap="round" stroke-linejoin="round"/>
  </g>
</svg>
