<?xml version="1.0" ?>
<svg xmlns="http://www.w3.org/2000/svg" version="1.1" width="511" height="512">
  <defs/>
  <g>
    <path d="M -10.0 -10.0 C -9.0 -10.0 511.0 0.0 512.0 0.0 C 513.0 0.0 511.0 512.0 512.0 512.0 C 512.0 513.0 0.0 512.0 0.0 513.0 C 0.0 512.0 0.0 513.0 -10.0 -10.0 L -10.0 -10.0" stroke-width="2.0" fill="rgb(149, 154, 164)" opacity="0.9372815"/>
    <path d="M 566.248291015625 255.33396911621094 C 481.2921447753906 212.76109313964844 467.208251953125 258.70458984375 489.681884765625 246.55833435058594 C 545.380615234375 244.7794647216797 532.5338134765625 203.5316925048828 526.0676879882812 226.76895141601562 C 504.275634765625 272.3682556152344 525.6024169921875 278.2917785644531 547.6840209960938 237.98992919921875 C 470.5854187011719 234.49720764160156 470.3189392089844 234.13426208496094 487.4495544433594 298.4624938964844 L 566.248291015625 255.33396911621094" stroke-width="2.0" fill="rgb(250, 242, 238)" opacity="0.7601384"/>
    <path d="M 343.1675720214844 43.23317337036133 C 342.6842041015625 42.909759521484375 342.9411315917969 42.71126937866211 344.5895080566406 45.12444305419922 C 342.5916748046875 42.28311538696289 342.88323974609375 43.154396057128906 343.2012634277344 43.243614196777344 C 341.7982177734375 42.0181770324707 341.1445007324219 43.54958724975586 341.7372131347656 42.806907653808594 C 343.1110534667969 42.599456787109375 343.271240234375 43.46439743041992 344.07293701171875 44.32965850830078 L 343.1675720214844 43.23317337036133" stroke-width="2.0" fill="rgb(177, 103, 48)" opacity="0.23996563"/>
    <path d="M 175.04623413085938 317.5266418457031 C 175.4954071044922 317.2989196777344 175.014892578125 317.6470031738281 175.54263305664062 316.4906005859375 C 178.4656524658203 318.3144836425781 178.24620056152344 317.7325439453125 179.50338745117188 317.4353942871094 C 177.79058837890625 320.48663330078125 178.42767333984375 320.3189392089844 178.80894470214844 322.2500915527344 C 175.56947326660156 320.0848388671875 175.79660034179688 320.3186340332031 174.92056274414062 321.4945373535156 L 175.04623413085938 317.5266418457031" stroke-width="2.0" fill="rgb(177, 58, 66)" opacity="0.0"/>
    <path d="M 82.3552017211914 306.1133728027344 C 64.44840240478516 231.31228637695312 -20.80375862121582 248.80267333984375 29.028160095214844 229.82620239257812 C 14.069953918457031 252.5100860595703 38.69707107543945 254.10787963867188 7.5005903244018555 234.2779541015625 C -8.813115119934082 223.80221557617188 27.745141983032227 247.50650024414062 63.173622131347656 215.5050811767578 C -46.67622756958008 189.65966796875 -49.73992156982422 208.23805236816406 -14.261093139648438 274.7611389160156 L 82.3552017211914 306.1133728027344" stroke-width="2.0" fill="rgb(234, 225, 248)" opacity="0.20993072"/>
    <path d="M 279.9472961425781 140.57725524902344 C 248.9152374267578 42.50996017456055 271.7705993652344 19.596025466918945 530.5921630859375 19.29747200012207 C 513.0916748046875 -51.92434310913086 464.0007019042969 -38.75627517700195 -22.557268142700195 -7.514992713928223 C -48.62002944946289 173.08152770996094 5.498847007751465 35.149810791015625 270.8503112792969 102.53203582763672 C 247.9746551513672 12.253108978271484 411.05010986328125 80.9081039428711 435.3974914550781 47.49802017211914 L 279.9472961425781 140.57725524902344" stroke-width="2.0" fill="rgb(10, 108, 195)" opacity="0.28698203"/>
    <path d="M 325.2112121582031 126.52136993408203 C 113.51342010498047 35.61994934082031 75.80390930175781 114.32605743408203 196.64569091796875 201.43540954589844 C 291.7261962890625 204.39346313476562 193.1338348388672 166.10562133789062 283.7571105957031 182.43263244628906 C 337.1232604980469 119.77690124511719 235.4367218017578 195.70645141601562 230.41766357421875 179.9469451904297 C 312.9619445800781 157.74560546875 220.3045196533203 173.26510620117188 274.5257263183594 196.0219268798828 L 325.2112121582031 126.52136993408203" stroke-width="2.0" fill="rgb(215, 245, 254)" opacity="0.5437832"/>
    <path d="M 69.86155700683594 231.19580078125 C 1.4421223402023315 234.6839141845703 20.81991958618164 229.52981567382812 5.273858070373535 252.09693908691406 C 21.65740203857422 259.7967834472656 15.463374137878418 255.7108917236328 47.803619384765625 271.3130798339844 C 28.766403198242188 274.25250244140625 22.46495246887207 271.706298828125 -13.817906379699707 273.1293640136719 C -21.75469207763672 281.3163146972656 18.49539566040039 275.9888610839844 58.16603088378906 309.36187744140625 L 69.86155700683594 231.19580078125" stroke-width="2.0" fill="rgb(50, 86, 134)" opacity="0.22045293"/>
    <path d="M 11.897204399108887 305.36102294921875 C 16.412378311157227 303.2057189941406 27.271060943603516 306.91455078125 25.049060821533203 285.07318115234375 C 23.27649688720703 295.26947021484375 28.00103759765625 307.8376770019531 25.99654197692871 284.8479309082031 C 27.937780380249023 303.241455078125 34.01713180541992 289.7241516113281 16.62489891052246 285.8278503417969 C 8.060468673706055 280.39910888671875 2.8832318782806396 305.89788818359375 25.688182830810547 305.0906677246094 L 11.897204399108887 305.36102294921875" stroke-width="2.0" fill="rgb(48, 57, 81)" opacity="0.51257616"/>
    <path d="M 392.40850830078125 488.9065856933594 C 392.313232421875 489.6275939941406 392.47662353515625 489.77410888671875 392.24884033203125 489.4112854003906 C 395.035400390625 489.48651123046875 395.02117919921875 487.6404724121094 396.5985107421875 486.8057861328125 C 393.8970642089844 489.6435241699219 394.0804748535156 488.8154602050781 395.787109375 488.7419738769531 C 393.37530517578125 488.12066650390625 393.79931640625 490.86419677734375 392.0827941894531 491.2023010253906 L 392.40850830078125 488.9065856933594" stroke-width="2.0" fill="rgb(71, 113, 43)" opacity="0.0"/>
    <path d="M 430.6366271972656 94.82058715820312 C 445.8269958496094 102.95984649658203 444.32916259765625 116.93242645263672 422.73565673828125 95.20809173583984 C 317.616455078125 109.33546447753906 485.1191711425781 92.11396026611328 362.0791931152344 142.3140411376953 C 328.6587829589844 67.32320404052734 360.796875 63.960330963134766 402.1362609863281 87.94924926757812 C 422.6603698730469 94.0467300415039 427.406494140625 95.71509552001953 410.847900390625 90.39368438720703 L 430.6366271972656 94.82058715820312" stroke-width="2.0" fill="rgb(0, 0, 11)" opacity="1.0"/>
    <path d="M 53.29127883911133 208.5225372314453 C 30.13161849975586 209.8677978515625 21.431488037109375 206.99090576171875 92.9713134765625 213.1029815673828 C 165.2875518798828 88.77767944335938 153.62315368652344 165.47080993652344 4.621663570404053 132.21791076660156 C -69.69318389892578 248.53469848632812 -24.835750579833984 163.78651428222656 148.33612060546875 248.1101531982422 C 177.64793395996094 202.75848388671875 -9.001072883605957 210.6069793701172 20.966676712036133 208.59910583496094 L 53.29127883911133 208.5225372314453" stroke-width="2.0" fill="rgb(246, 240, 243)" opacity="0.5868623"/>
    <path d="M 399.1328125 245.47450256347656 C 417.724853515625 281.5740966796875 396.4598388671875 226.3495635986328 417.7093200683594 264.6342468261719 C 401.0262451171875 259.24859619140625 404.26806640625 242.7500457763672 424.75152587890625 293.4980163574219 C 461.9990234375 253.01904296875 433.1613464355469 352.2607116699219 459.2668762207031 309.5811767578125 C 462.92266845703125 205.99046325683594 391.71600341796875 229.18002319335938 399.7579650878906 221.79458618164062 L 399.1328125 245.47450256347656" stroke-width="2.0" fill="rgb(240, 235, 244)" opacity="0.40046164"/>
    <path d="M 509.28485107421875 153.6436309814453 C 436.9423828125 157.79107666015625 480.89312744140625 196.451171875 391.66900634765625 193.39833068847656 C 422.42041015625 270.39044189453125 330.1582946777344 181.0355987548828 394.14251708984375 183.53501892089844 C 335.1204833984375 136.52305603027344 358.93182373046875 158.4876251220703 405.5285949707031 103.55908966064453 C 510.270263671875 110.67989349365234 235.49563598632812 67.75055694580078 516.5792236328125 61.781307220458984 L 509.28485107421875 153.6436309814453" stroke-width="2.0" fill="rgb(28, 91, 138)" opacity="0.35980076"/>
    <path d="M 307.4690246582031 330.72210693359375 C 221.0852508544922 340.9488525390625 255.3363494873047 365.30902099609375 262.8741149902344 436.7850646972656 C 261.3840637207031 431.08062744140625 268.33441162109375 426.0880432128906 263.6607666015625 427.7342834472656 C 259.4030456542969 463.4418029785156 267.34197998046875 414.1139831542969 250.10060119628906 394.867919921875 C 271.4560241699219 444.18780517578125 257.8898010253906 461.0982666015625 280.1225280761719 455.6260986328125 L 307.4690246582031 330.72210693359375" stroke-width="2.0" fill="rgb(234, 225, 208)" opacity="0.66337687"/>
    <path d="M 76.79315948486328 307.4819641113281 C 191.8309783935547 307.0228576660156 117.00993347167969 286.6340637207031 160.28677368164062 309.5951843261719 C 156.0405731201172 354.0837707519531 153.40679931640625 328.6527099609375 250.45716857910156 350.88885498046875 C 245.7788543701172 368.33917236328125 214.82550048828125 349.8666687011719 105.20281219482422 357.07373046875 C 213.63021850585938 347.7841491699219 196.681396484375 365.6205139160156 52.8525390625 357.3708801269531 L 76.79315948486328 307.4819641113281" stroke-width="2.0" fill="rgb(239, 236, 250)" opacity="0.34627095"/>
    <path d="M 214.982177734375 436.74798583984375 C 102.26664733886719 493.8446960449219 146.7988739013672 510.4434509277344 111.2746353149414 535.623779296875 C -4.286900520324707 526.544189453125 -9.967591285705566 528.6787719726562 -24.263280868530273 509.7420654296875 C -18.686885833740234 365.7535400390625 -4.8613057136535645 385.9552307128906 19.084699630737305 384.5316162109375 C 115.86177825927734 383.1865234375 127.2025146484375 384.3822021484375 248.28634643554688 381.1700439453125 L 214.982177734375 436.74798583984375" stroke-width="2.0" fill="rgb(214, 215, 254)" opacity="0.27439055"/>
    <path d="M 242.86981201171875 2.053091287612915 C 204.99066162109375 2.2028234004974365 116.78265380859375 1.9534928798675537 47.00444793701172 2.190871477127075 C 61.807472229003906 3.793395757675171 78.9696044921875 6.008262634277344 69.0011978149414 35.862117767333984 C 87.98854064941406 -23.034210205078125 9.693532943725586 19.826793670654297 -51.455902099609375 -9.508909225463867 C 219.31036376953125 -30.849857330322266 336.9848937988281 -97.322998046875 531.6019897460938 2.1110358238220215 L 242.86981201171875 2.053091287612915" stroke-width="2.0" fill="rgb(6, 8, 17)" opacity="1.0"/>
    <path d="M 476.4647216796875 357.6730651855469 C 475.8673400878906 357.1663513183594 475.6102600097656 356.9975280761719 476.28717041015625 357.7821960449219 C 478.70428466796875 358.9240417480469 478.08599853515625 356.4527587890625 478.87603759765625 355.8365173339844 C 476.4367370605469 358.7091064453125 478.22698974609375 357.9018249511719 477.766845703125 360.18878173828125 C 475.5522766113281 356.55596923828125 475.5353698730469 358.0788269042969 475.8700256347656 360.1761474609375 L 476.4647216796875 357.6730651855469" stroke-width="2.0" fill="rgb(120, 255, 52)" opacity="0.0"/>
    <path d="M 36.07333755493164 218.77821350097656 C 36.71776580810547 217.83892822265625 37.019187927246094 217.4717254638672 36.05681610107422 218.83631896972656 C 36.13878631591797 219.09422302246094 35.82480239868164 218.4564208984375 36.125667572021484 220.070068359375 C 35.87540817260742 218.6413116455078 35.939048767089844 218.95477294921875 36.09891891479492 219.88198852539062 C 35.90776443481445 218.17799377441406 36.01956558227539 219.520263671875 36.153587341308594 218.60601806640625 L 36.07333755493164 218.77821350097656" stroke-width="2.0" fill="rgb(98, 146, 232)" opacity="0.2980608"/>
    <path d="M 257.57318115234375 407.00140380859375 C 264.1307067871094 451.6836242675781 250.18765258789062 423.0555725097656 263.5920104980469 440.8633117675781 C 214.7330780029297 430.80712890625 247.35740661621094 429.70660400390625 213.98133850097656 461.999267578125 C 234.02320861816406 394.2518005371094 240.3485565185547 414.2268371582031 233.9528045654297 356.99896240234375 C 253.70069885253906 360.2164611816406 255.98574829101562 378.8992004394531 257.003662109375 418.2077941894531 L 257.57318115234375 407.00140380859375" stroke-width="2.0" fill="rgb(51, 49, 48)" opacity="0.7073355"/>
    <path d="M 69.27629852294922 273.4277038574219 C 73.38929748535156 269.601806640625 94.0858154296875 277.5199890136719 66.59576416015625 328.9991149902344 C 64.98141479492188 334.9015197753906 45.76325988769531 367.9988708496094 -31.36172866821289 316.1578674316406 C 103.94940185546875 293.669677734375 47.85073471069336 338.8758850097656 61.47035598754883 272.3006286621094 C 93.10737609863281 274.03338623046875 80.90878295898438 271.81561279296875 85.49967193603516 272.88092041015625 L 69.27629852294922 273.4277038574219" stroke-width="2.0" fill="rgb(251, 242, 239)" opacity="0.40131736"/>
    <path d="M 432.4111022949219 318.13555908203125 C 430.7785339355469 349.8092956542969 411.2095031738281 342.0763244628906 390.8774719238281 314.1070251464844 C 399.83294677734375 283.9290771484375 400.44482421875 238.982421875 397.09625244140625 246.60316467285156 C 391.5877990722656 243.39901733398438 395.6922912597656 264.9084777832031 395.9196472167969 271.1619567871094 C 394.93988037109375 262.829833984375 385.47998046875 213.14178466796875 420.31329345703125 282.3184814453125 L 432.4111022949219 318.13555908203125" stroke-width="2.0" fill="rgb(43, 43, 33)" opacity="0.81685597"/>
    <path d="M 399.335693359375 76.74702453613281 C 400.6658630371094 35.09541702270508 351.1090087890625 96.93750762939453 250.0189971923828 10.986639022827148 C 370.9540710449219 0.29169249534606934 414.5052490234375 28.146961212158203 550.5866088867188 -1.560385823249817 C 508.3141784667969 169.56385803222656 490.5187683105469 107.6000747680664 217.33799743652344 14.694626808166504 C 79.51620483398438 119.91836547851562 342.8055114746094 17.57200050354004 468.4990539550781 115.5734634399414 L 399.335693359375 76.74702453613281" stroke-width="2.0" fill="rgb(128, 155, 187)" opacity="0.73538905"/>
    <path d="M 457.6950988769531 113.29370880126953 C 421.1835632324219 92.53064727783203 361.0790710449219 111.46538543701172 382.9800109863281 160.30300903320312 C 360.7308654785156 168.59559631347656 368.4413757324219 141.4839630126953 334.5620422363281 104.4845199584961 C 287.968017578125 213.2652130126953 301.873291015625 184.06849670410156 318.55401611328125 121.4161148071289 C 337.4810791015625 50.13074493408203 392.4060974121094 79.78484344482422 395.54638671875 84.63825988769531 L 457.6950988769531 113.29370880126953" stroke-width="2.0" fill="rgb(36, 12, 0)" opacity="0.64838576"/>
    <path d="M 389.58123779296875 178.9395751953125 C 386.3279113769531 212.71600341796875 427.7196350097656 193.8794403076172 397.3645935058594 199.45506286621094 C 412.84210205078125 203.89991760253906 434.30889892578125 186.7646484375 512.2926025390625 184.52052307128906 C 478.40313720703125 216.67738342285156 464.4722900390625 219.7132110595703 442.9136962890625 256.2110900878906 C 395.7587585449219 223.50071716308594 394.98443603515625 212.24208068847656 402.6432189941406 236.19915771484375 L 389.58123779296875 178.9395751953125" stroke-width="2.0" fill="rgb(195, 196, 208)" opacity="0.8199343"/>
    <path d="M 237.0594940185547 312.20465087890625 C 173.91714477539062 266.7107238769531 192.26040649414062 290.87652587890625 171.26841735839844 301.06011962890625 C 204.26026916503906 355.51251220703125 204.62545776367188 356.3026428222656 160.46644592285156 283.0889892578125 C 164.1633758544922 355.5784606933594 131.9426727294922 330.077880859375 232.9406280517578 346.7574768066406 C 248.5939178466797 368.75579833984375 197.0487060546875 358.9813232421875 234.64266967773438 360.66070556640625 L 237.0594940185547 312.20465087890625" stroke-width="2.0" fill="rgb(237, 231, 238)" opacity="0.492775"/>
    <path d="M 217.2121124267578 450.51116943359375 C 249.4763946533203 442.1174621582031 239.62379455566406 445.70208740234375 205.65994262695312 466.726806640625 C 173.78591918945312 464.1741638183594 157.83604431152344 464.2793884277344 155.5272674560547 466.4939270019531 C 212.83763122558594 445.9923095703125 227.3710479736328 420.4213562011719 220.19607543945312 428.7135009765625 C 201.87109375 445.65789794921875 208.08541870117188 429.16876220703125 231.53146362304688 410.7369079589844 L 217.2121124267578 450.51116943359375" stroke-width="2.0" fill="rgb(3, 0, 0)" opacity="0.7146384"/>
    <path d="M 369.5066833496094 470.21343994140625 C 152.22930908203125 336.5439453125 480.5583801269531 529.722900390625 317.3017272949219 222.35626220703125 C 393.28851318359375 311.5589294433594 362.3069152832031 266.2532958984375 358.1463928222656 84.68688201904297 C 437.5572814941406 305.0441589355469 382.3102722167969 233.5986785888672 347.5482482910156 276.9715270996094 C 379.2186584472656 379.91619873046875 351.2364196777344 385.02960205078125 383.38800048828125 343.560302734375 L 369.5066833496094 470.21343994140625" stroke-width="2.0" fill="rgb(40, 41, 0)" opacity="0.26102707"/>
    <path d="M 84.70792388916016 159.71060180664062 C 84.45341491699219 157.07391357421875 84.11940002441406 156.90708923339844 84.55072784423828 158.3479766845703 C 84.73880004882812 160.0220489501953 84.65458679199219 159.0587615966797 84.65282440185547 159.3253631591797 C 84.49909210205078 157.46348571777344 84.34746551513672 157.39686584472656 83.53997039794922 155.53640747070312 C 83.13188171386719 154.30931091308594 84.48863220214844 157.8669891357422 84.43183135986328 157.7591552734375 L 84.70792388916016 159.71060180664062" stroke-width="2.0" fill="rgb(69, 152, 161)" opacity="0.15356046"/>
    <path d="M 274.1634826660156 256.16558837890625 C 248.3997039794922 114.79783630371094 418.09307861328125 122.78004455566406 321.9469299316406 220.82418823242188 C 153.1045379638672 235.9863739013672 134.7027587890625 352.3055419921875 130.60231018066406 148.6416015625 C 199.29925537109375 234.682861328125 261.25335693359375 213.6822052001953 244.99053955078125 209.57655334472656 C 262.53668212890625 175.03262329101562 256.9699401855469 191.00047302246094 239.533447265625 215.64283752441406 L 274.1634826660156 256.16558837890625" stroke-width="2.0" fill="rgb(0, 2, 6)" opacity="0.6778676"/>
    <path d="M 102.20103454589844 236.50015258789062 C 8.46928596496582 224.82247924804688 16.721040725708008 267.1778869628906 102.53602600097656 238.23316955566406 C 134.6177215576172 278.3118591308594 120.87632751464844 277.7588806152344 161.41049194335938 277.6459655761719 C 169.7423858642578 290.8636169433594 202.43313598632812 311.470947265625 200.54702758789062 247.92276000976562 C 32.08580017089844 219.60556030273438 20.354398727416992 281.38623046875 128.7224578857422 274.0484619140625 L 102.20103454589844 236.50015258789062" stroke-width="2.0" fill="rgb(91, 115, 153)" opacity="0.6280345"/>
    <path d="M 427.03594970703125 354.6670227050781 C 419.2298583984375 375.9953308105469 405.1994934082031 368.88232421875 416.16925048828125 371.38397216796875 C 407.41802978515625 369.35260009765625 410.3851623535156 375.0668640136719 410.5296630859375 370.35601806640625 C 400.2804260253906 371.8435363769531 414.79931640625 348.3357849121094 393.62921142578125 318.1894226074219 C 433.47503662109375 364.0632629394531 430.47161865234375 311.11102294921875 429.8434753417969 341.53369140625 L 427.03594970703125 354.6670227050781" stroke-width="2.0" fill="rgb(25, 26, 25)" opacity="1.0"/>
    <path d="M -23.644237518310547 91.25619506835938 C 18.038108825683594 82.07637786865234 147.7418212890625 70.25383758544922 263.8648681640625 100.3887710571289 C 68.86589813232422 121.91277313232422 22.42080307006836 72.60103607177734 44.69744873046875 80.05934143066406 C 35.68251419067383 76.85734558105469 36.42264175415039 83.83170318603516 65.8241195678711 93.19348907470703 C 93.5914077758789 100.52295684814453 108.70341491699219 94.04145050048828 53.130672454833984 95.78939819335938 L -23.644237518310547 91.25619506835938" stroke-width="2.0" fill="rgb(193, 185, 191)" opacity="1.0"/>
    <path d="M 513.20361328125 152.37062072753906 C 517.9810791015625 158.6802520751953 532.1401977539062 172.2125701904297 580.7507934570312 181.11846923828125 C 425.33074951171875 173.53622436523438 384.39007568359375 210.24098205566406 378.78826904296875 133.29547119140625 C 416.0069885253906 74.92833709716797 465.95416259765625 136.78411865234375 525.3575439453125 77.96263122558594 C 552.6187744140625 97.5247802734375 527.251708984375 126.56674194335938 514.9066772460938 145.5436248779297 L 513.20361328125 152.37062072753906" stroke-width="2.0" fill="rgb(103, 160, 198)" opacity="0.8607589"/>
    <path d="M 93.01488494873047 418.1551208496094 C 96.80659484863281 406.21392822265625 142.32870483398438 427.9244384765625 154.1613006591797 407.5357971191406 C 104.61986541748047 407.54827880859375 100.66265106201172 407.78863525390625 95.45928955078125 414.8984680175781 C 97.87442779541016 417.21075439453125 87.5869369506836 421.0467834472656 95.0973129272461 415.40924072265625 C 107.11904907226562 415.08880615234375 105.40446472167969 418.2847595214844 119.72813415527344 413.5735168457031 L 93.01488494873047 418.1551208496094" stroke-width="2.0" fill="rgb(70, 94, 117)" opacity="0.30090183"/>
    <path d="M 224.92608642578125 181.67794799804688 C 300.92864990234375 175.4234161376953 222.090087890625 335.71661376953125 211.11585998535156 287.3025207519531 C 70.1661376953125 262.2851257324219 163.3840789794922 234.9810333251953 112.77691650390625 195.12591552734375 C 163.1745147705078 85.67777252197266 122.73320007324219 177.1520233154297 -78.57905578613281 105.75267791748047 C 57.602230072021484 55.86287307739258 342.3615417480469 86.9710464477539 329.1302185058594 150.05918884277344 L 224.92608642578125 181.67794799804688" stroke-width="2.0" fill="rgb(44, 115, 169)" opacity="0.5801459"/>
    <path d="M 420.1997985839844 134.82968139648438 C 421.27740478515625 131.23101806640625 423.3124084472656 133.7339630126953 421.4665832519531 136.59393310546875 C 422.9728088378906 131.4167938232422 423.1966247558594 133.1741180419922 421.83013916015625 132.3973846435547 C 421.90509033203125 131.99847412109375 420.3196105957031 135.16986083984375 420.6522216796875 136.5839385986328 C 421.9730224609375 134.88014221191406 420.4546203613281 132.19984436035156 422.55657958984375 131.61050415039062 L 420.1997985839844 134.82968139648438" stroke-width="2.0" fill="rgb(0, 86, 100)" opacity="0.11072116"/>
    <path d="M 496.19842529296875 301.4500427246094 C 396.42926025390625 324.2564697265625 433.1638488769531 257.2738342285156 430.37615966796875 350.71527099609375 C 424.1601257324219 375.9263916015625 440.6869201660156 362.3782653808594 541.9322509765625 368.05755615234375 C 501.091796875 346.600341796875 485.6493225097656 356.0340576171875 521.0048828125 331.6864318847656 C 525.6762084960938 346.80841064453125 499.77923583984375 370.59942626953125 554.4825439453125 353.0975646972656 L 496.19842529296875 301.4500427246094" stroke-width="2.0" fill="rgb(187, 188, 200)" opacity="0.9833469"/>
    <path d="M 30.728351593017578 398.6887512207031 C 29.311962127685547 379.044677734375 29.993085861206055 385.9722595214844 -15.422388076782227 424.6566162109375 C -16.98212242126465 383.068115234375 -16.313220977783203 379.726318359375 -8.929706573486328 385.8334045410156 C 48.94794845581055 385.1315002441406 49.56684494018555 388.241455078125 30.91790199279785 387.1899719238281 C 34.745399475097656 382.2259521484375 25.722688674926758 392.53533935546875 19.336931228637695 384.4941711425781 L 30.728351593017578 398.6887512207031" stroke-width="2.0" fill="rgb(198, 195, 207)" opacity="0.3166647"/>
    <path d="M 274.14849853515625 332.9956970214844 C 282.4532165527344 347.2555847167969 252.80369567871094 359.8392333984375 250.3604278564453 384.1798400878906 C 261.9884033203125 359.0770263671875 259.6143493652344 425.8157653808594 239.99505615234375 414.1865234375 C 226.7784881591797 333.0502014160156 238.40628051757812 292.2943115234375 253.98635864257812 238.4243927001953 C 302.1028747558594 241.4233856201172 299.6911926269531 257.1755065917969 277.1942138671875 303.1997985839844 L 274.14849853515625 332.9956970214844" stroke-width="2.0" fill="rgb(23, 21, 20)" opacity="0.74182874"/>
    <path d="M 82.5226058959961 255.9879608154297 C 82.96478271484375 256.1338806152344 81.79595947265625 256.18206787109375 82.8221435546875 256.0435485839844 C 83.50088500976562 256.9516296386719 84.0279769897461 255.73875427246094 83.6858901977539 256.28179931640625 C 83.02651977539062 256.72003173828125 82.4494400024414 255.5769500732422 82.74501037597656 256.0129089355469 C 82.50422668457031 255.97508239746094 83.20642852783203 256.296630859375 82.96286010742188 256.12823486328125 L 82.5226058959961 255.9879608154297" stroke-width="2.0" fill="rgb(206, 209, 50)" opacity="0.122665085"/>
    <path d="M 316.7288513183594 74.5218276977539 C 316.3101806640625 73.2975082397461 315.3070983886719 72.48450469970703 315.7486267089844 73.47282409667969 C 317.0183410644531 75.4964599609375 316.24554443359375 74.58563995361328 316.0315856933594 72.57440948486328 C 317.0132141113281 74.5947494506836 318.6959533691406 75.30167388916016 320.4567565917969 77.03711700439453 C 315.72320556640625 75.17408752441406 316.0770263671875 74.68277740478516 316.4508056640625 75.5352783203125 L 316.7288513183594 74.5218276977539" stroke-width="2.0" fill="rgb(212, 137, 95)" opacity="0.041567896"/>
    <path d="M 337.3661804199219 250.30438232421875 C 246.91087341308594 266.2857666015625 302.5438232421875 321.78179931640625 252.64137268066406 381.0653991699219 C 254.99049377441406 406.31744384765625 265.5413513183594 410.15814208984375 260.3686218261719 386.9276123046875 C 265.0075988769531 385.7586669921875 252.95703125 444.65216064453125 278.8640441894531 459.3079833984375 C 270.2392578125 353.6011962890625 311.64154052734375 361.70855712890625 302.3304443359375 383.65985107421875 L 337.3661804199219 250.30438232421875" stroke-width="2.0" fill="rgb(252, 244, 231)" opacity="0.7672026"/>
    <path d="M 274.5147705078125 250.76300048828125 C 262.3909912109375 279.4582824707031 265.50531005859375 269.751953125 251.34912109375 345.0624694824219 C 251.69204711914062 384.8318176269531 254.81724548339844 385.08917236328125 234.24295043945312 355.2716369628906 C 237.92315673828125 281.8410949707031 242.34727478027344 259.1537170410156 272.87615966796875 203.48866271972656 C 353.24700927734375 215.66793823242188 322.91571044921875 243.5070343017578 309.10711669921875 279.48297119140625 L 274.5147705078125 250.76300048828125" stroke-width="2.0" fill="rgb(40, 40, 44)" opacity="0.9020773"/>
    <path d="M 533.4820556640625 469.8858947753906 C 285.5848083496094 474.7111511230469 363.45013427734375 467.16448974609375 349.3923645019531 458.2444152832031 C 345.07891845703125 467.96002197265625 347.9526672363281 455.0388488769531 341.36517333984375 442.0859680175781 C 358.2004089355469 414.4115905761719 268.60638427734375 474.021728515625 298.3641662597656 423.0285949707031 C 311.54718017578125 451.24578857421875 390.87152099609375 417.1676330566406 374.2800598144531 455.8934631347656 L 533.4820556640625 469.8858947753906" stroke-width="2.0" fill="rgb(0, 8, 21)" opacity="0.6568136"/>
    <path d="M 536.706298828125 474.8128662109375 C 408.9442443847656 722.4179077148438 239.10409545898438 538.2315673828125 202.7382354736328 534.2291870117188 C 122.2264404296875 534.2608642578125 110.44956970214844 539.7675170898438 113.5006332397461 520.5914916992188 C 166.8768768310547 463.4597473144531 139.85792541503906 475.7474365234375 195.02032470703125 452.4206237792969 C 112.64832305908203 491.1233215332031 236.85000610351562 445.4125671386719 215.9740447998047 470.0829772949219 L 536.706298828125 474.8128662109375" stroke-width="2.0" fill="rgb(200, 200, 225)" opacity="0.4795239"/>
    <path d="M 229.44802856445312 38.47474670410156 C 229.170654296875 39.32535934448242 229.1306915283203 39.20526885986328 228.96495056152344 40.00971603393555 C 229.14979553222656 39.1214599609375 229.6099853515625 37.9539680480957 230.28048706054688 36.95186996459961 C 227.59776306152344 41.3954963684082 229.29345703125 42.7097053527832 230.2366485595703 44.09714126586914 C 228.77125549316406 41.99938201904297 228.9349822998047 42.314727783203125 228.85745239257812 40.35977554321289 L 229.44802856445312 38.47474670410156" stroke-width="2.0" fill="rgb(181, 208, 95)" opacity="0.12632528"/>
    <path d="M 355.2998046875 302.9138488769531 C 365.5804138183594 361.06732177734375 340.29931640625 375.6762390136719 340.10662841796875 362.75384521484375 C 341.81964111328125 365.44964599609375 336.2705078125 357.48486328125 338.8983154296875 335.6628723144531 C 331.49420166015625 383.5137939453125 355.23553466796875 314.57794189453125 282.45428466796875 250.74899291992188 C 313.3014831542969 225.24131774902344 329.595458984375 219.28297424316406 352.9661865234375 291.8738098144531 L 355.2998046875 302.9138488769531" stroke-width="2.0" fill="rgb(36, 33, 33)" opacity="0.92895025"/>
    <path d="M 89.37083435058594 328.71673583984375 C 87.59970092773438 327.2140197753906 88.30679321289062 327.85369873046875 88.14915466308594 327.7343444824219 C 87.37057495117188 326.63958740234375 87.64061737060547 327.45367431640625 89.07156372070312 328.429443359375 C 87.59317016601562 327.2535705566406 88.92829132080078 328.3937683105469 89.0413589477539 328.458251953125 C 87.09000396728516 326.9499206542969 89.15806579589844 328.33465576171875 90.82939910888672 330.05731201171875 L 89.37083435058594 328.71673583984375" stroke-width="2.0" fill="rgb(111, 103, 255)" opacity="0.1411071"/>
    <path d="M 376.12469482421875 155.7412109375 C 341.724609375 237.28602600097656 370.78790283203125 209.837646484375 356.6758728027344 262.0564880371094 C 356.80206298828125 261.80914306640625 371.5588073730469 246.8907470703125 371.1318664550781 278.39520263671875 C 370.8260803222656 243.20977783203125 355.3233642578125 259.2283630371094 383.1245422363281 265.2869567871094 C 297.9090881347656 242.0494842529297 319.2685852050781 215.84458923339844 362.8623046875 136.08627319335938 L 376.12469482421875 155.7412109375" stroke-width="2.0" fill="rgb(255, 232, 140)" opacity="0.67557275"/>
    <path d="M 448.7581787109375 293.54052734375 C 426.18017578125 245.72935485839844 463.32086181640625 228.81858825683594 528.3118896484375 170.67440795898438 C 528.965576171875 267.7885437011719 498.4605407714844 230.5264434814453 475.0926513671875 278.4768981933594 C 492.81536865234375 299.6929016113281 549.0939331054688 265.96917724609375 502.5868835449219 294.7364807128906 C 437.3771057128906 359.73797607421875 503.4082946777344 224.8530731201172 522.243408203125 239.9813995361328 L 448.7581787109375 293.54052734375" stroke-width="2.0" fill="rgb(210, 207, 214)" opacity="0.77361834"/>
  </g>
</svg>
