<?xml version="1.0" ?>
<svg xmlns="http://www.w3.org/2000/svg" version="1.1" width="512" height="512">
  <defs/>
  <g>
    <path d="M 483.2892761230469 138.22763061523438 C 293.45965576171875 170.47613525390625 209.8306427001953 204.01312255859375 194.37673950195312 210.85719299316406 C 44.26342010498047 269.3551940917969 189.5989990234375 198.0800323486328 67.12701416015625 428.2433776855469 C -34.796043395996094 319.53570556640625 -25.187210083007812 126.25736236572266 128.24891662597656 33.83094787597656 C 265.6973571777344 -42.072452545166016 420.26409912109375 16.818462371826172 483.2892761230469 138.22763061523438" stroke-width="0.0" fill="rgb(0, 143, 252)" opacity="0.8317406" stroke="rgb(213, 253, 105)" stroke-opacity="0.46103457" stroke-linecap="round" stroke-linejoin="round"/>
    <path d="M 487.0479736328125 121.77880859375 C 558.8949584960938 352.0259704589844 452.6279602050781 432.65631103515625 370.8756103515625 486.75848388671875 C 277.50653076171875 527.3330688476562 161.6427459716797 525.8729248046875 67.13666534423828 429.681396484375 C 76.53083801269531 173.8363037109375 134.867431640625 259.2813415527344 259.415283203125 321.61456298828125 C 383.3964538574219 367.9234313964844 138.46693420410156 211.98912048339844 487.0479736328125 121.77880859375" stroke-width="0.0" fill="rgb(34, 155, 247)" opacity="0.8176708" stroke="rgb(114, 186, 231)" stroke-opacity="0.11080943" stroke-linecap="round" stroke-linejoin="round"/>
    <path d="M 351.64263916015625 307.2831115722656 C 356.4493103027344 304.50091552734375 387.12432861328125 346.6096496582031 343.47381591796875 376.6658630371094 C 237.60618591308594 300.5979309082031 200.7115936279297 296.8683776855469 199.01873779296875 219.28091430664062 C 230.45748901367188 191.67970275878906 241.76580810546875 194.2495880126953 365.0902404785156 144.93365478515625 C 424.2947692871094 117.71659088134766 384.1658020019531 193.5634307861328 351.64263916015625 307.2831115722656" stroke-width="0.0" fill="rgb(255, 253, 252)" opacity="0.98567384" stroke="rgb(236, 144, 214)" stroke-opacity="0.0154203875" stroke-linecap="round" stroke-linejoin="round"/>
  </g>
</svg>
