<?xml version="1.0" ?>
<svg xmlns="http://www.w3.org/2000/svg" version="1.1" width="508" height="512">
  <defs/>
  <g>
    <path d="M -0.6805918216705322 -0.6711981296539307 L 508.00018310546875 -0.6714542508125305 L 508.0 512.0 L -0.700927197933197 512.0 L -0.6805918216705322 -0.6711981296539307" stroke-width="0.0" fill="rgb(156, 155, 155)" opacity="1.0200254" stroke="rgb(0, 0, 0)" stroke-opacity="0.0" stroke-linecap="round" stroke-linejoin="round"/>
    <path d="M 6.21331262588501 8.259594917297363 L 6.335989475250244 157.7663116455078 L 7.700981140136719 164.43553161621094 L 95.87657928466797 163.51368713378906 C 96.64884948730469 155.25717163085938 93.92410278320312 147.31857299804688 102.9765396118164 144.528564453125 C 106.21365356445312 135.2338104248047 96.62950897216797 122.78193664550781 110.10881042480469 120.3740463256836 C 112.79638671875 103.23883056640625 108.541748046875 87.55752563476562 114.2210693359375 72.48462677001953 L 122.6987075805664 63.15671920776367 C 123.46723175048828 59.61539077758789 123.48442840576172 46.31725311279297 126.87554931640625 52.89033126831055 L 128.11349487304688 63.156951904296875 L 137.59242248535156 75.3644027709961 L 139.50973510742188 119.60404205322266 C 153.6920623779297 121.7695083618164 146.6321563720703 135.51487731933594 148.24267578125 145.2633514404297 C 155.6878204345703 148.87982177734375 155.4781494140625 156.1090545654297 155.28114318847656 163.5589141845703 L 261.38604736328125 164.45245361328125 L 268.4029541015625 154.30433654785156 C 268.2798156738281 144.3076629638672 268.9163513183594 132.6089324951172 276.6832275390625 125.95594787597656 L 285.8880615234375 136.809814453125 C 290.4190979003906 143.61712646484375 285.4311828613281 152.84201049804688 295.207763671875 163.1560516357422 L 314.7620849609375 163.02105712890625 C 317.60345458984375 154.3054962158203 323.8638610839844 146.28048706054688 333.7191467285156 139.01272583007812 L 352.388427734375 128.47303771972656 C 353.5337829589844 121.32581329345703 348.6923522949219 113.77210998535156 356.03460693359375 113.11248779296875 C 362.6191711425781 113.633544921875 360.0486755371094 121.56382751464844 359.7799072265625 128.1016845703125 C 370.18487548828125 131.4981231689453 381.6430969238281 140.18597412109375 388.29461669921875 150.46878051757812 L 395.10955810546875 162.87794494628906 L 502.2342529296875 163.5211639404297 L 502.3142395019531 6.761724472045898 L 6.21331262588501 8.259594917297363" stroke-width="2.0" fill="rgb(147, 177, 178)" opacity="0.99501705" stroke="rgb(0, 0, 0)" stroke-opacity="0.0" stroke-linecap="round" stroke-linejoin="round"/>
    <path d="M 6.337825298309326 425.07421875 L 5.461981296539307 504.6170349121094 L 422.9287414550781 504.62982177734375 L 434.4554138183594 500.71343994140625 L 485.1962585449219 499.66070556640625 L 487.3487548828125 505.0580749511719 L 502.7143249511719 505.20526123046875 L 501.85400390625 432.414306640625 L 498.9107666015625 426.6115417480469 L 232.8631134033203 425.62957763671875 L 233.98829650878906 416.74493408203125 L 86.28656005859375 416.7666320800781 L 84.5141830444336 427.3306579589844 L 62.89365768432617 428.3309020996094 C 59.17098617553711 420.8211669921875 59.03003692626953 414.6021728515625 52.118629455566406 415.9268493652344 C 43.63703918457031 410.57373046875 41.3058967590332 421.45941162109375 37.646018981933594 419.859619140625 L 11.301750183105469 417.28607177734375 L 6.337825298309326 425.07421875" stroke-width="2.0" fill="rgb(116, 148, 159)" opacity="1.0281152" stroke="rgb(0, 0, 0)" stroke-opacity="0.0" stroke-linecap="round" stroke-linejoin="round"/>
    <path d="M 259.8974914550781 252.69593811035156 L 199.19984436035156 253.54156494140625 C 190.02874755859375 248.0826873779297 180.821044921875 251.7638397216797 170.57225036621094 250.47921752929688 L 168.97706604003906 256.1579895019531 L 169.7808837890625 287.26031494140625 L 168.2176513671875 294.5647888183594 C 156.50022888183594 290.1282653808594 145.68055725097656 293.16748046875 134.0684814453125 292.0685119628906 L 130.35496520996094 303.4625244140625 L 121.5159912109375 302.8992919921875 L 104.18816375732422 279.0856018066406 C 90.70913696289062 274.26055908203125 77.6285629272461 272.50616455078125 63.56952667236328 281.78570556640625 L 52.196590423583984 304.84051513671875 L 37.341270446777344 305.8688659667969 C 38.03997802734375 308.4895935058594 32.6023063659668 307.6429138183594 29.172142028808594 307.6400451660156 L 6.7520904541015625 308.43634033203125 L 6.858847141265869 396.3168640136719 L 19.46844482421875 396.4195861816406 L 19.60345458984375 382.4787902832031 C 19.103408813476562 387.31927490234375 14.92221450805664 385.03863525390625 13.09611701965332 381.4086608886719 C 15.84825325012207 376.4232482910156 8.974066734313965 365.2659606933594 17.074819564819336 364.5291442871094 C 15.932060241699219 362.3037414550781 22.03861427307129 356.0052795410156 20.108121871948242 365.3179931640625 L 34.474212646484375 368.46856689453125 L 34.77568435668945 402.54327392578125 L 242.38198852539062 403.6200256347656 L 242.3798370361328 328.1918029785156 C 247.90618896484375 319.1067810058594 259.0669250488281 326.6990966796875 270.927978515625 322.5084533691406 L 268.65728759765625 282.6357727050781 C 254.04885864257812 279.46514892578125 261.6833190917969 264.53125 259.8974914550781 252.69593811035156" stroke-width="2.0" fill="rgb(157, 178, 184)" opacity="0.93292993" stroke="rgb(0, 0, 0)" stroke-opacity="0.0" stroke-linecap="round" stroke-linejoin="round"/>
    <path d="M 97.57598114013672 163.23709106445312 L 3.5915281772613525 163.67227172851562 L 4.324673652648926 308.6415100097656 C 17.284500122070312 306.2851257324219 29.03318214416504 313.1751403808594 37.316837310791016 303.4593200683594 L 51.881351470947266 303.4014892578125 L 58.41643142700195 291.1101379394531 C 66.3414077758789 280.4517517089844 75.6629409790039 276.0130920410156 85.65177154541016 275.5198059082031 L 99.71922302246094 275.56781005859375 L 97.57598114013672 163.23709106445312" stroke-width="2.0" fill="rgb(231, 193, 170)" opacity="0.9788233" stroke="rgb(0, 0, 0)" stroke-opacity="0.0" stroke-linecap="round" stroke-linejoin="round"/>
    <path d="M 126.86622619628906 53.17953109741211 L 111.30934143066406 72.9374008178711 L 109.43114471435547 119.07160186767578 L 101.78125 124.17752838134766 L 102.69120788574219 144.01934814453125 L 100.18250274658203 147.35194396972656 L 102.32779693603516 274.33770751953125 L 115.25904846191406 283.8878173828125 L 122.80963897705078 299.137939453125 L 128.27752685546875 299.2423095703125 L 131.49090576171875 290.4152526855469 C 143.27012634277344 290.76788330078125 154.46397399902344 286.0461120605469 165.28663635253906 291.2580261230469 L 165.3792724609375 290.3692932128906 L 164.41036987304688 252.70887756347656 L 154.78103637695312 250.7033233642578 L 155.6687469482422 149.27206420898438 L 150.3054656982422 144.64279174804688 L 149.448974609375 121.40611267089844 L 141.51902770996094 118.45677185058594 L 140.44187927246094 73.8023910522461 C 138.5934295654297 66.71703338623047 127.07103729248047 62.26918411254883 126.86622619628906 53.17953109741211" stroke-width="2.0" fill="rgb(160, 161, 161)" opacity="0.91635835" stroke="rgb(0, 0, 0)" stroke-opacity="0.0" stroke-linecap="round" stroke-linejoin="round"/>
    <path d="M 154.1932830810547 163.71937561035156 L 153.96810913085938 252.5234832763672 L 265.5484313964844 252.36444091796875 L 264.2972717285156 163.34962463378906 L 154.1932830810547 163.71937561035156" stroke-width="2.0" fill="rgb(232, 192, 168)" opacity="0.9499686" stroke="rgb(0, 0, 0)" stroke-opacity="0.0" stroke-linecap="round" stroke-linejoin="round"/>
    <path d="M 212.1474609375 251.91969299316406 L 211.0514373779297 301.5765380859375 L 197.47230529785156 303.5354309082031 L 198.23709106445312 402.6974182128906 L 242.4099578857422 403.98907470703125 L 246.37054443359375 328.1008605957031 L 269.7229919433594 327.0313415527344 L 267.1866455078125 286.2937927246094 L 258.5569763183594 279.6459045410156 L 258.03204345703125 251.85403442382812 L 212.1474609375 251.91969299316406" stroke-width="2.0" fill="rgb(102, 146, 168)" opacity="1.1769333" stroke="rgb(0, 0, 0)" stroke-opacity="0.0" stroke-linecap="round" stroke-linejoin="round"/>
  </g>
</svg>
