<?xml version="1.0" ?>
<svg xmlns="http://www.w3.org/2000/svg" version="1.1" width="508" height="512">
  <defs/>
  <g>
    <path d="M 0.0 0.0 L 508.0 0.0 L 508.0 512.0 L 0.0 512.0 L 0.0 0.0" stroke-width="0.0" fill="rgb(255, 255, 255)" opacity="1.0" stroke="rgb(0, 0, 0)" stroke-opacity="0.0" stroke-linecap="round" stroke-linejoin="round"/>
    <path d="M 6.0 12.0 L 6.0 157.0 L 9.0 162.0 L 94.0 161.0 C 94.8565444946289 154.7274932861328 92.2684097290039 146.34999084472656 101.0 143.0 C 104.71061706542969 135.1641082763672 95.28463745117188 122.19025421142578 108.0 119.0 C 110.69815826416016 103.0 106.27069854736328 87.0 112.0 71.0 L 121.0 62.0 C 121.66407775878906 58.72342300415039 121.93649291992188 44.98682403564453 129.0 51.0 L 130.0 62.0 L 140.0 74.0 L 142.0 118.0 C 155.32472229003906 120.78839111328125 148.24566650390625 135.1893768310547 150.0 144.0 C 157.17391967773438 147.89752197265625 157.07066345214844 155.49923706054688 157.0 161.0 L 260.0 162.0 L 266.0 153.0 C 266.07049560546875 143.2722930908203 266.7059631347656 131.08291625976562 278.0 123.0 L 289.0 134.0 C 292.5364685058594 143.0 287.4664611816406 152.0 297.0 161.0 L 313.0 161.0 C 315.6290283203125 152.6666717529297 321.7533264160156 144.3333282470703 331.0 136.0 L 350.0 126.0 C 351.9969787597656 121.02958679199219 347.1965026855469 112.90097045898438 356.0 111.0 C 364.25390625 112.66720581054688 361.7168884277344 121.1982192993164 362.0 126.0 C 372.0635070800781 129.29537963867188 383.7749328613281 137.92941284179688 391.0 148.0 L 397.0 160.0 L 499.0 161.0 L 499.0 10.0 L 6.0 12.0" stroke-width="2.0" fill="rgb(146, 177, 178)" opacity="1.0" stroke="rgb(0, 0, 0)" stroke-opacity="0.0" stroke-linecap="round" stroke-linejoin="round"/>
    <path d="M 6.0 424.0 L 8.0 503.0 L 421.0 504.0 L 433.0 498.0 L 486.0 496.0 L 488.0 502.0 L 500.0 502.0 L 501.0 434.0 L 496.0 431.0 L 232.0 430.0 L 232.0 421.0 L 89.0 421.0 L 86.0 424.0 L 63.0 425.0 C 59.715232849121094 420.3254699707031 59.864097595214844 413.467041015625 53.0 413.0 C 44.73570251464844 410.35345458984375 43.75386428833008 423.99310302734375 37.0 424.0 L 9.0 420.0 L 6.0 424.0" stroke-width="2.0" fill="rgb(119, 153, 165)" opacity="1.0" stroke="rgb(0, 0, 0)" stroke-opacity="0.0" stroke-linecap="round" stroke-linejoin="round"/>
    <path d="M 258.0 254.0 L 198.0 255.0 C 189.3333282470703 249.61683654785156 180.6666717529297 252.93673706054688 172.0 252.0 L 168.0 257.0 L 170.0 287.0 L 167.0 295.0 C 156.3333282470703 290.8509826660156 145.6666717529297 293.8293151855469 135.0 293.0 L 130.0 302.0 L 121.0 303.0 L 103.0 280.0 C 90.33333587646484 275.1605224609375 77.66666412353516 273.416259765625 65.0 283.0 L 53.0 303.0 L 36.0 304.0 C 37.406497955322266 308.4181213378906 32.709354400634766 308.10626220703125 30.0 310.0 L 10.0 311.0 L 8.0 398.0 L 21.0 398.0 L 20.0 382.0 C 18.99982261657715 386.709228515625 15.375024795532227 384.4177551269531 15.0 381.0 C 17.638872146606445 376.40606689453125 10.7197847366333 365.8356628417969 19.0 366.0 C 17.01340103149414 363.00762939453125 22.3265323638916 356.721435546875 21.0 363.0 L 32.0 368.0 L 32.0 399.0 L 239.0 400.0 L 240.0 327.0 C 247.42752075195312 318.34112548828125 258.9307556152344 326.066650390625 268.0 322.0 L 266.0 284.0 C 252.66868591308594 279.34112548828125 259.8243408203125 264.36834716796875 258.0 254.0" stroke-width="2.0" fill="rgb(143, 171, 181)" opacity="1.0" stroke="rgb(0, 0, 0)" stroke-opacity="0.0" stroke-linecap="round" stroke-linejoin="round"/>
    <path d="M 94.0 164.0 L 7.0 165.0 L 8.0 307.0 C 17.180721282958984 305.08599853515625 28.41672134399414 311.9164123535156 36.0 301.0 L 50.0 301.0 L 56.0 289.0 C 65.15772247314453 278.95343017578125 74.69597625732422 274.37249755859375 85.0 273.0 L 96.0 274.0 L 94.0 164.0" stroke-width="2.0" fill="rgb(229, 191, 167)" opacity="1.0" stroke="rgb(0, 0, 0)" stroke-opacity="0.0" stroke-linecap="round" stroke-linejoin="round"/>
    <path d="M 126.0 56.0 L 113.0 74.0 L 111.0 120.0 L 103.0 124.0 L 104.0 145.0 L 97.0 148.0 L 99.0 277.0 L 112.0 287.0 L 120.0 302.0 L 130.0 301.0 L 133.0 292.0 C 143.6666717529297 293.4248962402344 154.3333282470703 288.8788146972656 165.0 294.0 L 169.0 291.0 L 168.0 252.0 L 152.0 251.0 L 153.0 150.0 L 148.0 146.0 L 147.0 123.0 L 139.0 120.0 L 138.0 75.0 C 137.25511169433594 67.8921127319336 125.02727508544922 63.845455169677734 126.0 56.0" stroke-width="2.0" fill="rgb(167, 167, 166)" opacity="1.0" stroke="rgb(0, 0, 0)" stroke-opacity="0.0" stroke-linecap="round" stroke-linejoin="round"/>
    <path d="M 156.0 165.0 L 157.0 250.0 L 262.0 250.0 L 261.0 164.0 L 156.0 165.0" stroke-width="2.0" fill="rgb(228, 189, 167)" opacity="1.0" stroke="rgb(0, 0, 0)" stroke-opacity="0.0" stroke-linecap="round" stroke-linejoin="round"/>
    <path d="M 212.0 253.0 L 210.0 305.0 L 196.0 307.0 L 197.0 399.0 L 238.0 400.0 L 242.0 324.0 L 267.0 323.0 L 266.0 286.0 L 258.0 278.0 L 256.0 253.0 L 212.0 253.0" stroke-width="2.0" fill="rgb(96, 148, 172)" opacity="1.0" stroke="rgb(0, 0, 0)" stroke-opacity="0.0" stroke-linecap="round" stroke-linejoin="round"/>
  </g>
</svg>
