<?xml version="1.0" ?>
<svg xmlns="http://www.w3.org/2000/svg" version="1.1" width="512" height="384">
  <defs/>
  <g>
    <path d="M 171.47216796875 174.22288513183594 C 175.0001678466797 224.1997528076172 181.55213928222656 228.58155822753906 301.9091796875 288.6533203125 C 172.00164794921875 300.9573974609375 172.08375549316406 312.7113952636719 91.35859680175781 377.7509765625 C 91.36646270751953 92.24320220947266 106.48565673828125 79.3165283203125 191.85716247558594 73.96753692626953 C 193.35801696777344 159.1355743408203 185.81036376953125 157.5364532470703 171.47216796875 174.22288513183594" stroke-width="0.0" fill="rgb(141, 79, 30)" opacity="0.33315018" stroke="rgb(160, 176, 221)" stroke-opacity="0.2800755" stroke-linecap="round" stroke-linejoin="round"/>
    <path d="M 199.0 105.0 C 198.3301239013672 107.5 196.5 109.33012390136719 194.0 110.0 C 191.5 109.33012390136719 189.6698760986328 107.5 189.0 105.0 C 189.6698760986328 102.5 191.5 100.66987609863281 194.0 100.0 C 196.5 100.66987609863281 198.3301239013672 102.5 199.0 105.0" stroke-width="0.0" fill="rgb(221, 130, 59)" opacity="1.0" stroke="rgb(170, 7, 48)" stroke-opacity="0.7213941" stroke-linecap="round" stroke-linejoin="round"/>
    <path d="M 275.0 332.0 C 274.33013916015625 334.5 272.5 336.33013916015625 270.0 337.0 C 267.5 336.33013916015625 265.66986083984375 334.5 265.0 332.0 C 265.66986083984375 329.5 267.5 327.66986083984375 270.0 327.0 C 272.5 327.66986083984375 274.33013916015625 329.5 275.0 332.0" stroke-width="0.0" fill="rgb(0, 0, 0)" opacity="1.0" stroke="rgb(24, 211, 135)" stroke-opacity="0.23530583" stroke-linecap="round" stroke-linejoin="round"/>
  </g>
</svg>
