<?xml version="1.0" ?>
<svg xmlns="http://www.w3.org/2000/svg" version="1.1" width="512" height="384">
  <defs/>
  <g>
    <path d="M 239.2582244873047 204.09609985351562 C 259.0425720214844 209.8009490966797 191.64820861816406 285.8059387207031 247.2668914794922 281.4766845703125 C 141.71437072753906 267.9388732910156 128.0265655517578 262.757568359375 115.40608215332031 304.15985107421875 C 48.625953674316406 87.27601623535156 59.922393798828125 66.29380798339844 222.09698486328125 41.748817443847656 C 218.65707397460938 169.30511474609375 226.3013153076172 200.097412109375 239.2582244873047 204.09609985351562" stroke-width="0.0" fill="rgb(222, 129, 56)" opacity="0.6979263" stroke="rgb(160, 176, 221)" stroke-opacity="0.2800755" stroke-linecap="round" stroke-linejoin="round"/>
    <path d="M 310.0732116699219 191.6925048828125 C 361.3749694824219 263.8241882324219 306.45831298828125 253.04971313476562 253.15899658203125 231.36195373535156 C 156.091552734375 165.8822479248047 209.59463500976562 67.0231704711914 203.4094696044922 87.86444854736328 C 182.5863800048828 120.57579803466797 239.66824340820312 -54.57807922363281 390.75811767578125 33.37764358520508 C 467.14202880859375 129.34902954101562 430.0714111328125 151.98797607421875 310.0732116699219 191.6925048828125" stroke-width="0.0" fill="rgb(253, 255, 238)" opacity="0.82611704" stroke="rgb(170, 7, 48)" stroke-opacity="0.7213941" stroke-linecap="round" stroke-linejoin="round"/>
    <path d="M 422.4864196777344 263.9817199707031 C 540.7135009765625 493.86676025390625 484.59478759765625 431.0679016113281 -19.37701416015625 382.7967834472656 C 51.66122817993164 217.09849548339844 104.17418670654297 270.5475769042969 168.62046813964844 279.91473388671875 C 350.4322509765625 163.8120880126953 283.07635498046875 408.8406677246094 277.8646240234375 311.0904846191406 C 222.33587646484375 322.33782958984375 364.7631530761719 380.8634948730469 422.4864196777344 263.9817199707031" stroke-width="0.0" fill="rgb(2, 0, 0)" opacity="0.8187458" stroke="rgb(24, 211, 135)" stroke-opacity="0.23530583" stroke-linecap="round" stroke-linejoin="round"/>
    <path d="M 362.80718994140625 219.80270385742188 C 361.1315612792969 332.4946594238281 369.83380126953125 194.54232788085938 365.6542663574219 341.2127990722656 C 325.28570556640625 359.7532958984375 319.76116943359375 350.9341125488281 330.7489929199219 246.72280883789062 C 325.9574890136719 159.5516357421875 335.5928039550781 257.2992858886719 335.3797912597656 170.0095672607422 C 363.79376220703125 144.3607940673828 384.3150634765625 227.3676300048828 362.80718994140625 219.80270385742188" stroke-width="0.0" fill="rgb(0, 0, 0)" opacity="0.982086" stroke="rgb(213, 118, 50)" stroke-opacity="0.55632883" stroke-linecap="round" stroke-linejoin="round"/>
    <path d="M 523.318115234375 335.9107360839844 C 524.182373046875 387.67974853515625 525.1502075195312 392.8675842285156 479.4532470703125 396.4594421386719 C 383.1574401855469 403.43365478515625 341.1299133300781 449.9659729003906 390.58544921875 288.89154052734375 C 430.1166687011719 246.78700256347656 465.6062316894531 289.47216796875 461.1484680175781 328.1882629394531 C 523.248291015625 329.64404296875 525.3984375 325.403076171875 523.318115234375 335.9107360839844" stroke-width="0.0" fill="rgb(3, 1, 0)" opacity="1.0" stroke="rgb(63, 71, 213)" stroke-opacity="0.5215637" stroke-linecap="round" stroke-linejoin="round"/>
    <path d="M 427.5346374511719 159.6739044189453 C 417.6502685546875 190.6329803466797 400.55572509765625 215.56361389160156 364.6325378417969 235.00987243652344 C 354.1250305175781 222.03103637695312 387.71221923828125 217.88925170898438 358.4727478027344 205.15272521972656 C 360.2915344238281 123.57221984863281 333.6927795410156 128.54502868652344 388.51739501953125 124.31705474853516 C 430.379150390625 95.04607391357422 438.43975830078125 105.5151138305664 427.5346374511719 159.6739044189453" stroke-width="0.0" fill="rgb(253, 244, 217)" opacity="0.9759581" stroke="rgb(108, 30, 215)" stroke-opacity="0.1829604" stroke-linecap="round" stroke-linejoin="round"/>
    <path d="M 185.2119903564453 301.61907958984375 C 184.13656616210938 337.398681640625 190.5972900390625 326.4639892578125 169.19534301757812 328.6500549316406 C 156.92152404785156 326.22369384765625 161.24513244628906 338.8805236816406 160.2567596435547 294.6795959472656 C 163.1613006591797 280.5782470703125 137.33274841308594 305.24603271484375 151.6217041015625 270.8241271972656 C 184.5486297607422 256.5718994140625 185.82608032226562 284.1639404296875 185.2119903564453 301.61907958984375" stroke-width="0.0" fill="rgb(221, 130, 58)" opacity="0.9966442" stroke="rgb(17, 202, 106)" stroke-opacity="0.031726554" stroke-linecap="round" stroke-linejoin="round"/>
    <path d="M 272.0 272.0 C 271.33013916015625 274.5 269.5 276.33013916015625 267.0 277.0 C 264.5 276.33013916015625 262.66986083984375 274.5 262.0 272.0 C 262.66986083984375 269.5 264.5 267.66986083984375 267.0 267.0 C 269.5 267.66986083984375 271.33013916015625 269.5 272.0 272.0" stroke-width="0.0" fill="rgb(221, 130, 58)" opacity="1.0" stroke="rgb(39, 92, 36)" stroke-opacity="0.5979083" stroke-linecap="round" stroke-linejoin="round"/>
    <path d="M 214.0 288.0 C 213.3301239013672 290.5 211.5 292.33013916015625 209.0 293.0 C 206.5 292.33013916015625 204.6698760986328 290.5 204.0 288.0 C 204.6698760986328 285.5 206.5 283.66986083984375 209.0 283.0 C 211.5 283.66986083984375 213.3301239013672 285.5 214.0 288.0" stroke-width="0.0" fill="rgb(221, 130, 58)" opacity="1.0" stroke="rgb(230, 120, 190)" stroke-opacity="0.28595436" stroke-linecap="round" stroke-linejoin="round"/>
    <path d="M 243.0 316.0 C 242.3301239013672 318.5 240.5 320.33013916015625 238.0 321.0 C 235.5 320.33013916015625 233.6698760986328 318.5 233.0 316.0 C 233.6698760986328 313.5 235.5 311.66986083984375 238.0 311.0 C 240.5 311.66986083984375 242.3301239013672 313.5 243.0 316.0" stroke-width="0.0" fill="rgb(221, 130, 58)" opacity="1.0" stroke="rgb(153, 15, 146)" stroke-opacity="0.13265742" stroke-linecap="round" stroke-linejoin="round"/>
    <path d="M 144.0 257.0 C 143.3301239013672 259.5 141.5 261.33013916015625 139.0 262.0 C 136.5 261.33013916015625 134.6698760986328 259.5 134.0 257.0 C 134.6698760986328 254.5 136.5 252.6698760986328 139.0 252.0 C 141.5 252.6698760986328 143.3301239013672 254.5 144.0 257.0" stroke-width="0.0" fill="rgb(0, 0, 0)" opacity="1.0" stroke="rgb(136, 43, 226)" stroke-opacity="0.67617595" stroke-linecap="round" stroke-linejoin="round"/>
    <path d="M 67.0 279.0 C 66.33012390136719 281.5 64.5 283.33013916015625 62.0 284.0 C 59.5 283.33013916015625 57.66987228393555 281.5 57.0 279.0 C 57.66987228393555 276.5 59.5 274.66986083984375 62.0 274.0 C 64.5 274.66986083984375 66.33012390136719 276.5 67.0 279.0" stroke-width="0.0" fill="rgb(221, 130, 58)" opacity="1.0" stroke="rgb(62, 5, 199)" stroke-opacity="0.15880196" stroke-linecap="round" stroke-linejoin="round"/>
    <path d="M 50.0 262.0 C 49.33012771606445 264.5 47.5 266.33013916015625 45.0 267.0 C 42.5 266.33013916015625 40.66987228393555 264.5 40.0 262.0 C 40.66987228393555 259.5 42.5 257.66986083984375 45.0 257.0 C 47.5 257.66986083984375 49.33012771606445 259.5 50.0 262.0" stroke-width="0.0" fill="rgb(0, 0, 0)" opacity="1.0" stroke="rgb(92, 1, 13)" stroke-opacity="0.13030717" stroke-linecap="round" stroke-linejoin="round"/>
    <path d="M 351.0 150.0 C 350.33013916015625 152.5 348.5 154.3301239013672 346.0 155.0 C 343.5 154.3301239013672 341.66986083984375 152.5 341.0 150.0 C 341.66986083984375 147.5 343.5 145.6698760986328 346.0 145.0 C 348.5 145.6698760986328 350.33013916015625 147.5 351.0 150.0" stroke-width="0.0" fill="rgb(0, 0, 0)" opacity="1.0" stroke="rgb(155, 203, 115)" stroke-opacity="0.5143361" stroke-linecap="round" stroke-linejoin="round"/>
    <path d="M 24.0 318.0 C 23.330127716064453 320.5 21.5 322.33013916015625 19.0 323.0 C 16.5 322.33013916015625 14.669873237609863 320.5 14.0 318.0 C 14.669873237609863 315.5 16.5 313.66986083984375 19.0 313.0 C 21.5 313.66986083984375 23.330127716064453 315.5 24.0 318.0" stroke-width="0.0" fill="rgb(221, 130, 58)" opacity="1.0" stroke="rgb(218, 162, 162)" stroke-opacity="0.9966265" stroke-linecap="round" stroke-linejoin="round"/>
  </g>
</svg>
