<?xml version="1.0" ?>
<svg xmlns="http://www.w3.org/2000/svg" version="1.1" width="508" height="512">
  <defs/>
  <g>
    <path d="M 388.0363464355469 7.997691631317139 C 174.83482360839844 72.6457290649414 301.5854187011719 25.430837631225586 239.8813018798828 186.0026092529297 C 79.30146026611328 284.2734069824219 206.0067901611328 238.71255493164062 5.677186012268066 165.26426696777344 C 5.524933815002441 -60.43852615356445 5.631230354309082 28.522581100463867 5.525101184844971 8.01347541809082 C 164.9077911376953 7.9979047775268555 178.01931762695312 8.088889122009277 388.0363464355469 7.997691631317139" stroke-width="0.0" fill="rgb(26, 97, 113)" opacity="0.48490837" stroke="rgb(119, 81, 41)" stroke-opacity="0.16812682" stroke-linecap="round" stroke-linejoin="round"/>
    <path d="M 496.34649658203125 134.7123260498047 C 501.78173828125 347.12774658203125 528.7700805664062 362.699462890625 118.8003158569336 348.7278747558594 C 131.71119689941406 -19.256887435913086 290.9073791503906 141.18368530273438 307.4745788574219 74.29783630371094 C 313.931396484375 25.351783752441406 242.0520477294922 52.873321533203125 300.7519226074219 34.496482849121094 C 322.7822265625 147.6991424560547 432.269775390625 37.2521858215332 496.34649658203125 134.7123260498047" stroke-width="0.0" fill="rgb(131, 158, 167)" opacity="1.0" stroke="rgb(41, 151, 200)" stroke-opacity="0.67778635" stroke-linecap="round" stroke-linejoin="round"/>
    <path d="M 502.1690979003906 177.6292724609375 C 366.283935546875 26.472402572631836 409.662841796875 54.53938293457031 356.6610107421875 86.80239868164062 C 332.0258483886719 120.75191497802734 324.6322937011719 68.37793731689453 278.0549621582031 26.85160255432129 C 298.76409912109375 2.3905491828918457 302.0822448730469 9.26019287109375 502.4443664550781 7.986632347106934 C 501.9934387207031 13.878593444824219 502.4500427246094 -31.382150650024414 502.1690979003906 177.6292724609375" stroke-width="0.0" fill="rgb(134, 169, 172)" opacity="0.9261914" stroke="rgb(40, 214, 80)" stroke-opacity="0.76732224" stroke-linecap="round" stroke-linejoin="round"/>
    <path d="M 456.7115783691406 304.5688781738281 C 432.68670654296875 230.9297332763672 450.5932312011719 312.0463562011719 433.21466064453125 295.1864013671875 C 429.52655029296875 266.3299560546875 443.6712341308594 277.8686218261719 401.0047912597656 275.568603515625 C 406.24945068359375 253.91073608398438 383.88177490234375 266.3551330566406 460.79058837890625 262.1681213378906 C 453.5157165527344 266.1770935058594 461.38848876953125 248.42604064941406 456.7115783691406 304.5688781738281" stroke-width="0.0" fill="rgb(253, 246, 229)" opacity="0.97160405" stroke="rgb(101, 173, 254)" stroke-opacity="0.005443705" stroke-linecap="round" stroke-linejoin="round"/>
    <path d="M 197.44114685058594 389.68853759765625 C 175.337890625 359.1127624511719 198.7865753173828 302.8306579589844 179.72264099121094 325.7400817871094 C 120.11808776855469 303.1943054199219 179.5240478515625 362.4134826660156 144.00067138671875 349.3312683105469 C 147.88890075683594 291.27752685546875 125.12936401367188 310.295166015625 199.88140869140625 307.01123046875 C 193.74566650390625 308.3467102050781 198.1145477294922 294.78924560546875 197.44114685058594 389.68853759765625" stroke-width="0.0" fill="rgb(249, 246, 232)" opacity="0.997083" stroke="rgb(89, 187, 20)" stroke-opacity="0.34411958" stroke-linecap="round" stroke-linejoin="round"/>
    <path d="M 353.23748779296875 205.69732666015625 C 301.3912048339844 263.1113586425781 356.19622802734375 205.90713500976562 310.08721923828125 380.0880432128906 C 301.783935546875 130.5176544189453 377.6010437011719 275.2799377441406 148.25173950195312 249.59317016601562 C 131.46072387695312 63.0264892578125 253.55738830566406 187.58197021484375 341.5177917480469 235.8202667236328 C 339.2789306640625 150.3878936767578 355.93035888671875 174.99273681640625 353.23748779296875 205.69732666015625" stroke-width="0.0" fill="rgb(252, 210, 183)" opacity="0.7543671" stroke="rgb(201, 223, 142)" stroke-opacity="0.43204027" stroke-linecap="round" stroke-linejoin="round"/>
    <path d="M 376.3798522949219 250.36495971679688 C 341.2712097167969 209.19515991210938 366.13671875 246.57408142089844 345.71832275390625 247.68576049804688 C 327.7460632324219 274.9325256347656 350.3790283203125 212.7984161376953 325.4626159667969 236.48193359375 C 325.1565246582031 164.23983764648438 339.53253173828125 165.6180877685547 335.6146545410156 202.03504943847656 C 373.7053527832031 225.79190063476562 380.5260314941406 185.48046875 376.3798522949219 250.36495971679688" stroke-width="0.0" fill="rgb(255, 250, 233)" opacity="0.93407387" stroke="rgb(160, 135, 16)" stroke-opacity="0.53036314" stroke-linecap="round" stroke-linejoin="round"/>
    <path d="M 290.2696533203125 302.18743896484375 C 289.2543029785156 339.3504638671875 291.3482971191406 336.96630859375 289.7138366699219 353.196533203125 C 262.6796569824219 350.86981201171875 272.3193054199219 364.75885009765625 269.607421875 307.589111328125 C 268.12042236328125 296.3878479003906 281.2524108886719 299.7010803222656 277.2530517578125 321.4499816894531 C 300.1136779785156 311.7803955078125 251.97361755371094 298.7272033691406 290.2696533203125 302.18743896484375" stroke-width="0.0" fill="rgb(255, 250, 234)" opacity="0.9773044" stroke="rgb(151, 107, 193)" stroke-opacity="0.24440451" stroke-linecap="round" stroke-linejoin="round"/>
    <path d="M 169.64328002929688 295.4515380859375 C 139.15345764160156 296.68280029296875 183.88125610351562 259.63177490234375 144.87318420410156 266.45025634765625 C 145.11976623535156 360.5619201660156 134.8960418701172 187.79043579101562 133.2917938232422 302.070556640625 C 91.47999572753906 312.2328796386719 117.95166015625 239.36105346679688 123.19324493408203 250.86793518066406 C 180.1889190673828 258.2666320800781 167.31964111328125 229.8492889404297 169.64328002929688 295.4515380859375" stroke-width="0.0" fill="rgb(248, 242, 227)" opacity="1.0" stroke="rgb(8, 81, 64)" stroke-opacity="0.5904746" stroke-linecap="round" stroke-linejoin="round"/>
    <path d="M 312.953857421875 352.3260803222656 C 408.52386474609375 341.15802001953125 411.51177978515625 378.3348388671875 304.07049560546875 368.2828369140625 C 309.1249084472656 331.8597717285156 289.8531799316406 365.8700866699219 290.1687927246094 341.66082763671875 C 294.5062561035156 269.0094299316406 285.2144775390625 261.8609619140625 292.4627685546875 240.81907653808594 C 322.5003662109375 287.1902770996094 300.1307067871094 354.3062438964844 312.953857421875 352.3260803222656" stroke-width="0.0" fill="rgb(49, 54, 74)" opacity="1.0" stroke="rgb(155, 52, 242)" stroke-opacity="0.87713534" stroke-linecap="round" stroke-linejoin="round"/>
    <path d="M 496.3735656738281 430.6461486816406 C 390.6564636230469 431.8682556152344 379.5936584472656 431.2899475097656 270.73126220703125 431.5300598144531 C 292.87445068359375 420.5167236328125 232.879150390625 453.8012390136719 236.7390899658203 419.63140869140625 C 323.2542724609375 419.0707092285156 331.2154235839844 419.74017333984375 454.4623107910156 419.402099609375 C 433.09271240234375 426.3013610839844 469.72735595703125 409.13751220703125 496.3735656738281 430.6461486816406" stroke-width="0.0" fill="rgb(14, 13, 36)" opacity="0.8784224" stroke="rgb(134, 130, 3)" stroke-opacity="0.909177" stroke-linecap="round" stroke-linejoin="round"/>
    <path d="M 451.29791259765625 434.3927917480469 C 430.6268005371094 519.5965576171875 433.72802734375 502.6843566894531 96.4830551147461 505.09918212890625 C 49.32474899291992 498.1031799316406 32.05828857421875 535.71533203125 41.2160530090332 402.5188903808594 C 269.73052978515625 447.0564880371094 245.81703186035156 434.9840087890625 194.26222229003906 422.8794250488281 C 304.63720703125 417.0498046875 288.2940673828125 454.3667907714844 451.29791259765625 434.3927917480469" stroke-width="0.0" fill="rgb(43, 119, 134)" opacity="0.43149287" stroke="rgb(173, 69, 49)" stroke-opacity="0.28538007" stroke-linecap="round" stroke-linejoin="round"/>
    <path d="M 249.94102478027344 412.0746154785156 C 200.51202392578125 419.25286865234375 310.9664611816406 423.5408935546875 99.37937927246094 420.3389892578125 C 162.37220764160156 405.1191101074219 16.822223663330078 447.55401611328125 3.3542957305908203 401.3795166015625 C 225.82188415527344 392.82708740234375 212.59962463378906 423.67645263671875 196.7405548095703 356.4833679199219 C 312.10882568359375 307.4769592285156 238.07823181152344 296.4349060058594 249.94102478027344 412.0746154785156" stroke-width="0.0" fill="rgb(63, 73, 91)" opacity="1.0" stroke="rgb(76, 184, 206)" stroke-opacity="0.18732761" stroke-linecap="round" stroke-linejoin="round"/>
    <path d="M 503.0313415527344 260.93072509765625 C 387.0893859863281 276.4996643066406 505.2477722167969 194.03961181640625 431.33709716796875 214.84298706054688 C 373.99945068359375 204.7553253173828 397.3415832519531 234.7742462158203 394.77423095703125 158.82139587402344 C 396.7981872558594 160.1048583984375 381.24676513671875 159.5509033203125 480.824951171875 159.67108154296875 C 506.65972900390625 176.8868865966797 502.54119873046875 121.30794525146484 503.0313415527344 260.93072509765625" stroke-width="0.0" fill="rgb(232, 194, 170)" opacity="0.89037174" stroke="rgb(219, 39, 69)" stroke-opacity="0.45702457" stroke-linecap="round" stroke-linejoin="round"/>
    <path d="M 503.105712890625 419.9143371582031 C 496.34613037109375 501.4296875 515.1892700195312 514.7930297851562 483.7039794921875 500.386474609375 C 404.09063720703125 494.8722839355469 362.4139404296875 517.744873046875 363.12933349609375 492.8572692871094 C 450.8442077636719 489.5536804199219 472.2113037109375 440.1720886230469 467.1368408203125 419.37188720703125 C 495.6706848144531 419.02069091796875 503.05059814453125 419.2266540527344 503.105712890625 419.9143371582031" stroke-width="0.0" fill="rgb(17, 52, 82)" opacity="0.7673058" stroke="rgb(54, 52, 244)" stroke-opacity="0.60040283" stroke-linecap="round" stroke-linejoin="round"/>
    <path d="M 364.88995361328125 305.2376403808594 C 355.572021484375 322.3800354003906 358.68328857421875 268.8575439453125 349.97161865234375 310.2459716796875 C 323.8001403808594 274.15338134765625 378.9523620605469 276.8971252441406 303.67138671875 281.68798828125 C 294.1629333496094 239.18429565429688 351.4021301269531 253.65870666503906 332.52105712890625 268.49224853515625 C 375.0433349609375 274.28790283203125 362.3004150390625 253.70664978027344 364.88995361328125 305.2376403808594" stroke-width="0.0" fill="rgb(254, 248, 230)" opacity="0.9372491" stroke="rgb(66, 37, 114)" stroke-opacity="0.5104439" stroke-linecap="round" stroke-linejoin="round"/>
    <path d="M 153.70379638671875 192.90792846679688 C 151.60794067382812 274.392333984375 162.33663940429688 245.54957580566406 127.56487274169922 252.52301025390625 C 127.31697845458984 226.71522521972656 128.08644104003906 202.3347930908203 127.79696655273438 172.4107208251953 C 130.214111328125 177.93814086914062 124.28709411621094 166.1359405517578 129.4432830810547 166.3642578125 C 162.08096313476562 168.5173797607422 151.57945251464844 156.61485290527344 153.70379638671875 192.90792846679688" stroke-width="0.0" fill="rgb(43, 44, 63)" opacity="0.9598841" stroke="rgb(138, 2, 82)" stroke-opacity="0.12725346" stroke-linecap="round" stroke-linejoin="round"/>
    <path d="M 457.8192443847656 214.39459228515625 C 453.8777160644531 282.8003234863281 474.4025573730469 256.26556396484375 400.4184265136719 263.2601318359375 C 407.2005920410156 333.7779541015625 367.62322998046875 282.6561279296875 377.70281982421875 269.2076721191406 C 379.6151123046875 125.6768569946289 349.89422607421875 111.74418640136719 391.4167175292969 151.1210174560547 C 406.7323303222656 236.26242065429688 364.6879577636719 209.12818908691406 457.8192443847656 214.39459228515625" stroke-width="0.0" fill="rgb(41, 44, 64)" opacity="0.90332496" stroke="rgb(43, 240, 162)" stroke-opacity="0.2617996" stroke-linecap="round" stroke-linejoin="round"/>
    <path d="M 127.30272674560547 231.56890869140625 C 128.66622924804688 228.51963806152344 113.6097412109375 239.0039520263672 115.30925750732422 203.17245483398438 C 101.4526596069336 223.1952667236328 109.92866516113281 215.03163146972656 84.8142318725586 200.71739196777344 C 105.7449722290039 170.28492736816406 89.7750473022461 185.55982971191406 115.72230529785156 189.03054809570312 C 117.88689422607422 161.9837188720703 129.18333435058594 159.0771026611328 127.30272674560547 231.56890869140625" stroke-width="0.0" fill="rgb(255, 249, 231)" opacity="0.9597771" stroke="rgb(190, 33, 139)" stroke-opacity="0.3770221" stroke-linecap="round" stroke-linejoin="round"/>
    <path d="M 442.80621337890625 316.8269348144531 C 494.7027893066406 385.3753356933594 361.6206359863281 297.0499267578125 405.62799072265625 358.77001953125 C 360.01861572265625 308.8934326171875 396.0971984863281 343.0406799316406 380.39715576171875 421.6402587890625 C 356.16400146484375 205.78965759277344 401.908935546875 392.0241394042969 384.1948547363281 293.7597961425781 C 524.8555297851562 270.8849792480469 305.38519287109375 341.89141845703125 442.80621337890625 316.8269348144531" stroke-width="0.0" fill="rgb(227, 203, 185)" opacity="1.0" stroke="rgb(150, 175, 127)" stroke-opacity="0.31688747" stroke-linecap="round" stroke-linejoin="round"/>
    <path d="M 502.0527648925781 431.90838623046875 C 502.7659912109375 506.3475646972656 502.1332702636719 493.8085021972656 501.74591064453125 471.57196044921875 C 400.37646484375 471.0057678222656 373.7686462402344 475.89044189453125 405.364013671875 436.9721374511719 C 395.83746337890625 425.0818176269531 437.3745422363281 435.9103698730469 416.88519287109375 431.33026123046875 C 502.2708435058594 431.54083251953125 504.0249328613281 430.8451843261719 502.0527648925781 431.90838623046875" stroke-width="0.0" fill="rgb(146, 179, 183)" opacity="0.93527174" stroke="rgb(134, 210, 23)" stroke-opacity="0.7921892" stroke-linecap="round" stroke-linejoin="round"/>
    <path d="M 181.4971160888672 502.9289855957031 C 67.93287658691406 506.2962951660156 54.71213150024414 504.4363098144531 5.997206211090088 505.0688781738281 C 5.186598300933838 503.8728332519531 5.099211692810059 511.8233947753906 5.708105564117432 444.421630859375 C 7.170041561126709 437.17596435546875 -3.0169930458068848 413.0478210449219 42.41238784790039 417.7972412109375 C 20.843713760375977 495.23883056640625 84.64486694335938 407.8504638671875 181.4971160888672 502.9289855957031" stroke-width="0.0" fill="rgb(7, 56, 91)" opacity="0.524472" stroke="rgb(99, 97, 36)" stroke-opacity="0.20020472" stroke-linecap="round" stroke-linejoin="round"/>
    <path d="M 88.90807342529297 170.70089721679688 C 113.53951263427734 242.99742126464844 93.42427062988281 210.0930633544922 5.811271667480469 296.3890075683594 C 5.882887840270996 262.1242370605469 5.850502014160156 242.5475311279297 5.805451393127441 165.21359252929688 C 7.5020952224731445 162.83908081054688 -3.123243570327759 163.23968505859375 47.45621109008789 163.09107971191406 C 57.879310607910156 163.8424072265625 96.3077163696289 160.3587188720703 88.90807342529297 170.70089721679688" stroke-width="0.0" fill="rgb(226, 188, 165)" opacity="1.0" stroke="rgb(148, 217, 229)" stroke-opacity="0.075615376" stroke-linecap="round" stroke-linejoin="round"/>
    <path d="M 132.37286376953125 356.53594970703125 C 131.71046447753906 421.7428283691406 136.2861785888672 393.8312683105469 111.462158203125 401.05755615234375 C 76.60708618164062 394.0892028808594 90.7833480834961 432.9263000488281 87.00784301757812 300.163330078125 C 92.15524291992188 314.04583740234375 40.22538375854492 288.95501708984375 84.05741882324219 264.0206604003906 C 134.2191162109375 299.20947265625 159.86676025390625 374.6368103027344 132.37286376953125 356.53594970703125" stroke-width="0.0" fill="rgb(94, 141, 164)" opacity="1.0" stroke="rgb(150, 117, 48)" stroke-opacity="0.36895722" stroke-linecap="round" stroke-linejoin="round"/>
    <path d="M 355.45318603515625 186.8914794921875 C 287.2341003417969 185.6331329345703 341.86773681640625 184.48834228515625 327.4320983886719 273.50634765625 C 288.65594482421875 148.5072479248047 322.8551330566406 329.0968933105469 293.59002685546875 234.50955200195312 C 300.5293884277344 137.4430389404297 282.1056213378906 171.53375244140625 316.43310546875 161.66943359375 C 307.1216125488281 195.9578857421875 333.7370300292969 163.35549926757812 355.45318603515625 186.8914794921875" stroke-width="0.0" fill="rgb(255, 240, 219)" opacity="0.8292921" stroke="rgb(210, 196, 97)" stroke-opacity="0.55245095" stroke-linecap="round" stroke-linejoin="round"/>
    <path d="M 193.76524353027344 484.26812744140625 C 197.04190063476562 494.00555419921875 202.08250427246094 485.9445495605469 149.70046997070312 489.6655578613281 C 126.45402526855469 486.5876159667969 131.9996337890625 492.5276794433594 125.96771240234375 480.6073913574219 C 146.0627899169922 479.9323425292969 175.98312377929688 481.79840087890625 181.5832061767578 480.2571716308594 C 168.13015747070312 481.690185546875 198.60105895996094 476.0631103515625 193.76524353027344 484.26812744140625" stroke-width="0.0" fill="rgb(250, 243, 224)" opacity="0.9108261" stroke="rgb(53, 248, 236)" stroke-opacity="0.2279028" stroke-linecap="round" stroke-linejoin="round"/>
    <path d="M 290.3246765136719 255.42649841308594 C 287.36968994140625 303.0702819824219 291.24444580078125 268.4382629394531 291.6871032714844 288.60638427734375 C 245.9906768798828 286.6388854980469 283.46173095703125 282.74859619140625 259.7689514160156 281.3540954589844 C 257.99627685546875 255.33135986328125 262.64727783203125 204.05264282226562 278.7301025390625 203.55767822265625 C 282.75408935546875 268.00543212890625 272.0234680175781 252.60385131835938 290.3246765136719 255.42649841308594" stroke-width="0.0" fill="rgb(252, 242, 223)" opacity="0.91898674" stroke="rgb(78, 167, 9)" stroke-opacity="0.05587332" stroke-linecap="round" stroke-linejoin="round"/>
    <path d="M 127.177001953125 195.090087890625 C 103.1666030883789 168.3206024169922 114.11541748046875 188.5021514892578 109.26622009277344 204.5166473388672 C 86.63410949707031 199.74449157714844 86.5408935546875 195.87332153320312 87.484375 176.7749786376953 C 87.65118408203125 169.661376953125 86.31117248535156 171.73382568359375 126.49616241455078 171.3291473388672 C 127.51918029785156 171.93344116210938 127.10606384277344 166.06297302246094 127.177001953125 195.090087890625" stroke-width="0.0" fill="rgb(253, 247, 230)" opacity="0.9895514" stroke="rgb(141, 35, 83)" stroke-opacity="0.6696125" stroke-linecap="round" stroke-linejoin="round"/>
    <path d="M 502.6759948730469 326.22808837890625 C 502.9123840332031 340.83966064453125 502.6514892578125 362.8161926269531 502.809326171875 411.14825439453125 C 447.395263671875 418.2445373535156 470.5474548339844 412.6521911621094 464.4332580566406 331.34466552734375 C 484.33416748046875 331.1581726074219 483.4820556640625 331.3389892578125 494.9636535644531 331.26873779296875 C 506.8526916503906 327.2201232910156 502.29071044921875 337.5417175292969 502.6759948730469 326.22808837890625" stroke-width="0.0" fill="rgb(8, 73, 114)" opacity="0.665796" stroke="rgb(131, 59, 113)" stroke-opacity="0.6858561" stroke-linecap="round" stroke-linejoin="round"/>
    <path d="M 425.96148681640625 504.8268737792969 C 349.0133972167969 504.6841735839844 334.7960510253906 504.95355224609375 318.67144775390625 504.6518859863281 C 294.0047607421875 504.7238464355469 281.7123107910156 504.42950439453125 119.45703887939453 504.55548095703125 C 286.8253479003906 466.5211486816406 132.25831604003906 491.4581604003906 135.52676391601562 470.6059265136719 C 550.3028564453125 474.7256774902344 472.5301818847656 459.4476623535156 425.96148681640625 504.8268737792969" stroke-width="0.0" fill="rgb(63, 105, 130)" opacity="0.8912989" stroke="rgb(119, 240, 94)" stroke-opacity="0.98377174" stroke-linecap="round" stroke-linejoin="round"/>
    <path d="M 99.23751068115234 170.91424560546875 C 93.6882095336914 288.18499755859375 117.73973846435547 347.4420471191406 5.710345268249512 341.3688659667969 C 1.3965510129928589 191.4183807373047 60.28052520751953 256.2918701171875 99.11798858642578 216.8201446533203 C 78.40670013427734 139.28201293945312 48.6478157043457 171.58799743652344 126.47686004638672 158.83546447753906 C 138.4735565185547 176.12432861328125 89.88795471191406 159.76641845703125 99.23751068115234 170.91424560546875" stroke-width="0.0" fill="rgb(195, 191, 184)" opacity="1.0" stroke="rgb(126, 75, 213)" stroke-opacity="0.8151507" stroke-linecap="round" stroke-linejoin="round"/>
    <path d="M 458.73675537109375 260.5825500488281 C 458.3803405761719 350.779541015625 462.3428649902344 325.9454650878906 451.21258544921875 330.5726013183594 C 416.34466552734375 328.5316467285156 429.7951965332031 340.1560363769531 427.18316650390625 297.4066162109375 C 428.341064453125 291.11279296875 416.2910461425781 292.98944091796875 496.10760498046875 295.846923828125 C 504.8628845214844 239.3145751953125 468.41143798828125 273.2159423828125 458.73675537109375 260.5825500488281" stroke-width="0.0" fill="rgb(30, 31, 53)" opacity="0.86967856" stroke="rgb(106, 165, 39)" stroke-opacity="0.5479936" stroke-linecap="round" stroke-linejoin="round"/>
  </g>
</svg>
