<?xml version="1.0" ?>
<svg xmlns="http://www.w3.org/2000/svg" version="1.1" width="508" height="512">
  <defs/>
  <g>
    <path d="M 387.7910461425781 8.052484512329102 C 178.8677978515625 80.1527099609375 300.6735534667969 8.72927188873291 235.24819946289062 181.15155029296875 C 96.33271789550781 278.4905700683594 190.60791015625 240.48565673828125 5.786277770996094 159.66641235351562 C 5.723838806152344 -60.39595413208008 5.656384468078613 28.551185607910156 5.5838727951049805 7.998480319976807 C 164.90603637695312 8.0947847366333 178.00985717773438 8.034280776977539 387.7910461425781 8.052484512329102" stroke-width="0.0" fill="rgb(46, 97, 106)" opacity="0.46986946" stroke="rgb(119, 81, 41)" stroke-opacity="0.16812682" stroke-linecap="round" stroke-linejoin="round"/>
    <path d="M 483.7520446777344 144.1558074951172 C 534.3220825195312 331.31036376953125 553.6091918945312 332.63677978515625 140.822265625 316.5599670410156 C 167.077880859375 -8.316131591796875 288.9148864746094 139.187744140625 307.9921569824219 73.785400390625 C 311.3126525878906 26.318437576293945 245.8131561279297 50.79358673095703 305.6639709472656 37.523948669433594 C 330.6817321777344 148.37586975097656 416.8431396484375 32.29578399658203 483.7520446777344 144.1558074951172" stroke-width="0.0" fill="rgb(181, 182, 176)" opacity="0.9313727" stroke="rgb(41, 151, 200)" stroke-opacity="0.67778635" stroke-linecap="round" stroke-linejoin="round"/>
    <path d="M 501.4318542480469 170.36521911621094 C 364.0914611816406 30.55565643310547 410.6185607910156 52.427085876464844 360.04815673828125 84.31942749023438 C 331.0491638183594 110.51214599609375 319.0824279785156 72.07852935791016 280.7616271972656 24.728252410888672 C 301.1258544921875 4.5206780433654785 304.9023742675781 9.24428653717041 494.98992919921875 7.9791765213012695 C 504.97222900390625 14.729426383972168 502.0539855957031 -31.579608917236328 501.4318542480469 170.36521911621094" stroke-width="0.0" fill="rgb(128, 167, 170)" opacity="0.8395531" stroke="rgb(40, 214, 80)" stroke-opacity="0.76732224" stroke-linecap="round" stroke-linejoin="round"/>
  </g>
</svg>
