<?xml version="1.0" ?>
<svg xmlns="http://www.w3.org/2000/svg" version="1.1" width="512" height="512">
  <defs/>
  <g>
    <path d="M 281.5683288574219 253.65077209472656 C 316.9499206542969 361.6266784667969 292.3904724121094 325.9204406738281 220.16932678222656 337.38916015625 C 211.8671112060547 218.83335876464844 246.7168731689453 246.0417022705078 208.31593322753906 216.482177734375 C 61.955265045166016 234.5033721923828 223.09768676757812 53.71554946899414 345.5295715332031 163.94110107421875 C 444.77728271484375 283.05072021484375 259.3570251464844 162.78257751464844 281.5683288574219 253.65077209472656" stroke-width="0.0" fill="rgb(191, 143, 0)" opacity="0.7728039" stroke="rgb(181, 68, 134)" stroke-opacity="0.17347337" stroke-linecap="round" stroke-linejoin="round"/>
    <path d="M 275.173095703125 129.47491455078125 C 222.75173950195312 122.48882293701172 195.7374267578125 145.97792053222656 210.6545867919922 138.1141357421875 C 168.67515563964844 154.68405151367188 177.7672119140625 196.07737731933594 104.27465057373047 173.478515625 C 96.24552154541016 9.428731918334961 86.57725524902344 34.76910400390625 281.7544250488281 31.80854034423828 C 285.3907775878906 113.89849090576172 285.7513122558594 132.6987762451172 275.173095703125 129.47491455078125" stroke-width="0.0" fill="rgb(255, 255, 247)" opacity="0.19655678" stroke="rgb(240, 140, 152)" stroke-opacity="0.4638614" stroke-linecap="round" stroke-linejoin="round"/>
    <path d="M 189.81845092773438 254.4287872314453 C 185.80430603027344 365.33538818359375 190.77357482910156 394.599609375 188.3807373046875 364.5314025878906 C 144.7295684814453 338.1099853515625 116.87822723388672 281.0594177246094 132.19021606445312 224.96192932128906 C 139.4458770751953 175.16819763183594 225.64413452148438 77.7787857055664 341.5005798339844 160.03065490722656 C 248.4497833251953 218.18899536132812 149.48292541503906 204.7434539794922 189.81845092773438 254.4287872314453" stroke-width="0.0" fill="rgb(247, 196, 46)" opacity="1.0" stroke="rgb(177, 187, 34)" stroke-opacity="0.37765652" stroke-linecap="round" stroke-linejoin="round"/>
    <path d="M 381.3616027832031 282.16650390625 C 373.3825378417969 318.9332580566406 352.2098083496094 346.7071533203125 321.5146179199219 366.3825378417969 C 324.4019470214844 333.26885986328125 323.2735290527344 322.6951599121094 324.005126953125 250.7030029296875 C 314.8747863769531 198.71739196777344 269.370361328125 172.3553924560547 361.3796691894531 183.1103515625 C 385.79425048828125 221.71763610839844 386.79620361328125 253.8460235595703 381.3616027832031 282.16650390625" stroke-width="0.0" fill="rgb(250, 192, 28)" opacity="0.88172007" stroke="rgb(254, 71, 162)" stroke-opacity="0.90440094" stroke-linecap="round" stroke-linejoin="round"/>
    <path d="M 324.3756103515625 260.3704528808594 C 313.64117431640625 399.4189758300781 432.275146484375 386.5025939941406 212.9202880859375 391.67236328125 C 74.59231567382812 364.07806396484375 236.29754638671875 414.978271484375 175.57662963867188 245.56019592285156 C 271.587890625 241.80381774902344 191.6764373779297 344.5351867675781 218.24664306640625 355.1500244140625 C 257.7197570800781 339.41241455078125 268.4245910644531 278.7544860839844 324.3756103515625 260.3704528808594" stroke-width="0.0" fill="rgb(0, 74, 191)" opacity="0.5753801" stroke="rgb(19, 33, 168)" stroke-opacity="0.37980086" stroke-linecap="round" stroke-linejoin="round"/>
    <path d="M 295.82843017578125 338.8077392578125 C 286.8440856933594 363.19464111328125 276.8569030761719 362.961669921875 217.94778442382812 361.3088073730469 C 211.48867797851562 358.49896240234375 212.81507873535156 386.5277404785156 212.9125518798828 269.15673828125 C 315.8525695800781 288.7997131347656 161.0058135986328 349.53704833984375 269.6825866699219 322.9158630371094 C 236.0665740966797 224.62603759765625 317.0766906738281 207.74871826171875 295.82843017578125 338.8077392578125" stroke-width="0.0" fill="rgb(247, 197, 47)" opacity="0.94476527" stroke="rgb(53, 206, 124)" stroke-opacity="0.71719486" stroke-linecap="round" stroke-linejoin="round"/>
    <path d="M 330.5052795410156 261.28485107421875 C 299.7538757324219 295.0622863769531 345.5851135253906 231.74029541015625 307.39764404296875 257.3480529785156 C 348.1594543457031 284.22320556640625 262.6866455078125 285.0758361816406 276.49163818359375 233.1901397705078 C 292.3376770019531 282.9129638671875 353.33099365234375 211.41648864746094 289.6854248046875 216.72654724121094 C 328.39935302734375 200.43365478515625 343.9278869628906 242.12762451171875 330.5052795410156 261.28485107421875" stroke-width="0.0" fill="rgb(68, 70, 75)" opacity="0.94474334" stroke="rgb(157, 38, 117)" stroke-opacity="0.08977982" stroke-linecap="round" stroke-linejoin="round"/>
    <path d="M 333.0 339.0 C 332.33013916015625 341.5 330.5 343.33013916015625 328.0 344.0 C 325.5 343.33013916015625 323.66986083984375 341.5 323.0 339.0 C 323.66986083984375 336.5 325.5 334.66986083984375 328.0 334.0 C 330.5 334.66986083984375 332.33013916015625 336.5 333.0 339.0" stroke-width="0.0" fill="rgb(250, 200, 50)" opacity="1.0" stroke="rgb(218, 245, 71)" stroke-opacity="0.5743141" stroke-linecap="round" stroke-linejoin="round"/>
    <path d="M 232.0 239.0 C 231.3301239013672 241.5 229.5 243.3301239013672 227.0 244.0 C 224.5 243.3301239013672 222.6698760986328 241.5 222.0 239.0 C 222.6698760986328 236.5 224.5 234.6698760986328 227.0 234.0 C 229.5 234.6698760986328 231.3301239013672 236.5 232.0 239.0" stroke-width="0.0" fill="rgb(77, 77, 77)" opacity="1.0" stroke="rgb(52, 227, 198)" stroke-opacity="0.036462102" stroke-linecap="round" stroke-linejoin="round"/>
    <path d="M 223.0 241.0 C 222.3301239013672 243.5 220.5 245.3301239013672 218.0 246.0 C 215.5 245.3301239013672 213.6698760986328 243.5 213.0 241.0 C 213.6698760986328 238.5 215.5 236.6698760986328 218.0 236.0 C 220.5 236.6698760986328 222.3301239013672 238.5 223.0 241.0" stroke-width="0.0" fill="rgb(77, 77, 77)" opacity="1.0" stroke="rgb(39, 254, 181)" stroke-opacity="0.35675168" stroke-linecap="round" stroke-linejoin="round"/>
    <path d="M 207.0 262.0 C 206.3301239013672 264.5 204.5 266.33013916015625 202.0 267.0 C 199.5 266.33013916015625 197.6698760986328 264.5 197.0 262.0 C 197.6698760986328 259.5 199.5 257.66986083984375 202.0 257.0 C 204.5 257.66986083984375 206.3301239013672 259.5 207.0 262.0" stroke-width="0.0" fill="rgb(77, 77, 77)" opacity="1.0" stroke="rgb(104, 188, 73)" stroke-opacity="0.7857497" stroke-linecap="round" stroke-linejoin="round"/>
    <path d="M 298.0 350.0 C 297.33013916015625 352.5 295.5 354.33013916015625 293.0 355.0 C 290.5 354.33013916015625 288.66986083984375 352.5 288.0 350.0 C 288.66986083984375 347.5 290.5 345.66986083984375 293.0 345.0 C 295.5 345.66986083984375 297.33013916015625 347.5 298.0 350.0" stroke-width="0.0" fill="rgb(250, 200, 50)" opacity="1.0" stroke="rgb(231, 47, 104)" stroke-opacity="0.51189" stroke-linecap="round" stroke-linejoin="round"/>
    <path d="M 250.0 320.0 C 249.3301239013672 322.5 247.5 324.33013916015625 245.0 325.0 C 242.5 324.33013916015625 240.6698760986328 322.5 240.0 320.0 C 240.6698760986328 317.5 242.5 315.66986083984375 245.0 315.0 C 247.5 315.66986083984375 249.3301239013672 317.5 250.0 320.0" stroke-width="0.0" fill="rgb(77, 77, 77)" opacity="1.0" stroke="rgb(138, 100, 32)" stroke-opacity="0.9094899" stroke-linecap="round" stroke-linejoin="round"/>
    <path d="M 278.0 323.0 C 277.33013916015625 325.5 275.5 327.33013916015625 273.0 328.0 C 270.5 327.33013916015625 268.66986083984375 325.5 268.0 323.0 C 268.66986083984375 320.5 270.5 318.66986083984375 273.0 318.0 C 275.5 318.66986083984375 277.33013916015625 320.5 278.0 323.0" stroke-width="0.0" fill="rgb(77, 77, 77)" opacity="1.0" stroke="rgb(58, 107, 24)" stroke-opacity="0.6408593" stroke-linecap="round" stroke-linejoin="round"/>
    <path d="M 341.0 361.0 C 340.33013916015625 363.5 338.5 365.33013916015625 336.0 366.0 C 333.5 365.33013916015625 331.66986083984375 363.5 331.0 361.0 C 331.66986083984375 358.5 333.5 356.66986083984375 336.0 356.0 C 338.5 356.66986083984375 340.33013916015625 358.5 341.0 361.0" stroke-width="0.0" fill="rgb(247, 247, 247)" opacity="1.0" stroke="rgb(193, 230, 159)" stroke-opacity="0.042373154" stroke-linecap="round" stroke-linejoin="round"/>
  </g>
</svg>
