<?xml version="1.0" ?>
<svg xmlns="http://www.w3.org/2000/svg" version="1.1" width="512" height="512">
  <defs/>
  <g>
    <path d="M 282.2306823730469 263.9225769042969 C 317.7975769042969 324.1669921875 301.0546569824219 316.4493103027344 214.5415496826172 315.9333190917969 C 201.18919372558594 253.5702362060547 257.4277648925781 277.18548583984375 228.26470947265625 217.5625762939453 C 100.88453674316406 207.7484130859375 185.08453369140625 77.59630584716797 342.7965393066406 157.54351806640625 C 401.3150939941406 261.63818359375 239.73585510253906 168.9954071044922 282.2306823730469 263.9225769042969" stroke-width="0.0" fill="rgb(255, 197, 20)" opacity="0.712265" stroke="rgb(181, 68, 134)" stroke-opacity="0.17347337" stroke-linecap="round" stroke-linejoin="round"/>
    <path d="M 213.0 136.0 C 212.3301239013672 138.5 210.5 140.3301239013672 208.0 141.0 C 205.5 140.3301239013672 203.6698760986328 138.5 203.0 136.0 C 203.6698760986328 133.5 205.5 131.6698760986328 208.0 131.0 C 210.5 131.6698760986328 212.3301239013672 133.5 213.0 136.0" stroke-width="0.0" fill="rgb(247, 248, 248)" opacity="1.0" stroke="rgb(240, 140, 152)" stroke-opacity="0.4638614" stroke-linecap="round" stroke-linejoin="round"/>
    <path d="M 165.0 268.0 C 164.3301239013672 270.5 162.5 272.33013916015625 160.0 273.0 C 157.5 272.33013916015625 155.6698760986328 270.5 155.0 268.0 C 155.6698760986328 265.5 157.5 263.66986083984375 160.0 263.0 C 162.5 263.66986083984375 164.3301239013672 265.5 165.0 268.0" stroke-width="0.0" fill="rgb(250, 200, 50)" opacity="1.0" stroke="rgb(177, 187, 34)" stroke-opacity="0.37765652" stroke-linecap="round" stroke-linejoin="round"/>
  </g>
</svg>
