<?xml version="1.0" ?>
<svg xmlns="http://www.w3.org/2000/svg" version="1.1" width="512" height="512">
  <defs/>
  <g>
    <path d="M 292.6142272949219 240.42623901367188 C 313.4651794433594 359.21929931640625 294.9242858886719 321.86456298828125 214.2042236328125 332.7996520996094 C 203.6136474609375 219.40670776367188 243.58547973632812 249.65939331054688 210.18446350097656 216.31517028808594 C 63.81065368652344 234.25880432128906 221.5915069580078 53.740692138671875 344.9755859375 163.53956604003906 C 454.9742126464844 288.2240295410156 247.78555297851562 174.67115783691406 292.6142272949219 240.42623901367188" stroke-width="0.0" fill="rgb(210, 157, 8)" opacity="0.79994017" stroke="rgb(181, 68, 134)" stroke-opacity="0.17347337" stroke-linecap="round" stroke-linejoin="round"/>
    <path d="M 266.8554382324219 128.560791015625 C 223.33697509765625 125.17682647705078 192.3871307373047 145.54843139648438 210.0257568359375 136.69558715820312 C 166.4765625 151.18394470214844 171.05580139160156 191.55596923828125 104.32118225097656 176.8781280517578 C 94.09249114990234 22.691614151000977 95.70165252685547 31.910898208618164 281.8620910644531 32.12546920776367 C 286.99517822265625 109.42292785644531 283.455078125 134.50987243652344 266.8554382324219 128.560791015625" stroke-width="0.0" fill="rgb(255, 255, 250)" opacity="0.58347076" stroke="rgb(240, 140, 152)" stroke-opacity="0.4638614" stroke-linecap="round" stroke-linejoin="round"/>
    <path d="M 188.53192138671875 251.49542236328125 C 188.03785705566406 365.8565979003906 188.9563446044922 390.2762756347656 187.32305908203125 363.9342041015625 C 145.4792938232422 337.42718505859375 118.85110473632812 285.73870849609375 130.90428161621094 227.71737670898438 C 143.33274841308594 179.60305786132812 191.7729034423828 95.8123550415039 331.3638916015625 150.19956970214844 C 233.6835479736328 216.3584442138672 153.99554443359375 211.71763610839844 188.53192138671875 251.49542236328125" stroke-width="0.0" fill="rgb(240, 192, 47)" opacity="0.9734248" stroke="rgb(177, 187, 34)" stroke-opacity="0.37765652" stroke-linecap="round" stroke-linejoin="round"/>
    <path d="M 355.0 283.0 C 354.33013916015625 285.5 352.5 287.33013916015625 350.0 288.0 C 347.5 287.33013916015625 345.66986083984375 285.5 345.0 283.0 C 345.66986083984375 280.5 347.5 278.66986083984375 350.0 278.0 C 352.5 278.66986083984375 354.33013916015625 280.5 355.0 283.0" stroke-width="0.0" fill="rgb(250, 200, 50)" opacity="1.0" stroke="rgb(254, 71, 162)" stroke-opacity="0.90440094" stroke-linecap="round" stroke-linejoin="round"/>
    <path d="M 261.0 363.0 C 260.33013916015625 365.5 258.5 367.33013916015625 256.0 368.0 C 253.5 367.33013916015625 251.6698760986328 365.5 251.0 363.0 C 251.6698760986328 360.5 253.5 358.66986083984375 256.0 358.0 C 258.5 358.66986083984375 260.33013916015625 360.5 261.0 363.0" stroke-width="0.0" fill="rgb(61, 140, 242)" opacity="1.0" stroke="rgb(19, 33, 168)" stroke-opacity="0.37980086" stroke-linecap="round" stroke-linejoin="round"/>
    <path d="M 262.0 344.0 C 261.33013916015625 346.5 259.5 348.33013916015625 257.0 349.0 C 254.5 348.33013916015625 252.6698760986328 346.5 252.0 344.0 C 252.6698760986328 341.5 254.5 339.66986083984375 257.0 339.0 C 259.5 339.66986083984375 261.33013916015625 341.5 262.0 344.0" stroke-width="0.0" fill="rgb(250, 200, 50)" opacity="1.0" stroke="rgb(53, 206, 124)" stroke-opacity="0.71719486" stroke-linecap="round" stroke-linejoin="round"/>
    <path d="M 321.0 248.0 C 320.33013916015625 250.5 318.5 252.3301239013672 316.0 253.0 C 313.5 252.3301239013672 311.66986083984375 250.5 311.0 248.0 C 311.66986083984375 245.5 313.5 243.6698760986328 316.0 243.0 C 318.5 243.6698760986328 320.33013916015625 245.5 321.0 248.0" stroke-width="0.0" fill="rgb(77, 77, 77)" opacity="1.0" stroke="rgb(157, 38, 117)" stroke-opacity="0.08977982" stroke-linecap="round" stroke-linejoin="round"/>
  </g>
</svg>
