<?xml version="1.0" ?>
<svg xmlns="http://www.w3.org/2000/svg" version="1.1" width="512" height="512">
  <defs/>
  <g>
    <path d="M -10.0 -10.0 C -9.0 -10.0 512.0 0.0 513.0 0.0 C 514.0 0.0 512.0 512.0 513.0 512.0 C 513.0 513.0 0.0 512.0 0.0 513.0 C 0.0 512.0 0.0 513.0 -10.0 -10.0 L -10.0 -10.0" stroke-width="2.0" fill="rgb(221, 211, 183)" opacity="0.8009248"/>
    <path d="M 506.07257080078125 185.19993591308594 C 507.7939453125 270.8671875 510.1147155761719 293.58868408203125 502.4955749511719 291.9311828613281 C 501.21588134765625 186.96493530273438 502.98388671875 182.6054229736328 498.348388671875 208.1452178955078 C 502.43798828125 210.14588928222656 508.2117919921875 198.8986053466797 518.0420532226562 152.531982421875 C 506.4770202636719 259.4771423339844 484.5234680175781 108.15972900390625 507.47705078125 96.2373275756836 L 506.07257080078125 185.19993591308594" stroke-width="2.0" fill="rgb(198, 137, 61)" opacity="0.3076536"/>
    <path d="M 373.2093505859375 52.13065719604492 C 360.4205017089844 59.362613677978516 356.7680358886719 52.01598358154297 357.7804260253906 74.8087387084961 C 327.4905700683594 73.55118560791016 312.79730224609375 60.3277473449707 311.6236572265625 60.957725524902344 C 322.38836669921875 22.888654708862305 328.389404296875 17.29155731201172 324.7454833984375 22.06458854675293 C 361.1357421875 21.553024291992188 370.50048828125 25.05377960205078 368.1001281738281 22.662189483642578 L 373.2093505859375 52.13065719604492" stroke-width="2.0" fill="rgb(85, 110, 108)" opacity="0.28109115"/>
    <path d="M 209.38844299316406 298.63226318359375 C 163.23487854003906 334.8824768066406 191.56192016601562 312.19256591796875 181.77235412597656 366.2867126464844 C 176.88351440429688 306.7785949707031 183.0458221435547 361.426025390625 131.34613037109375 341.317138671875 C 82.22030639648438 217.43580627441406 119.5505142211914 290.4457092285156 149.6707000732422 274.6465148925781 C 196.44711303710938 229.9180145263672 152.3393096923828 364.13238525390625 209.2807159423828 278.9361572265625 L 209.38844299316406 298.63226318359375" stroke-width="2.0" fill="rgb(12, 26, 33)" opacity="0.44683602"/>
    <path d="M 19.618375778198242 237.89645385742188 C 19.447877883911133 285.1422119140625 22.94194984436035 269.9622802734375 8.05029010772705 271.6773986816406 C 5.097650527954102 280.12713623046875 7.27894401550293 265.227294921875 8.562931060791016 237.7930450439453 C 6.76142692565918 267.27203369140625 6.29746150970459 267.85662841796875 7.702186584472656 208.6911163330078 C 92.88969421386719 200.14846801757812 26.383337020874023 219.42544555664062 19.42757797241211 213.78369140625 L 19.618375778198242 237.89645385742188" stroke-width="2.0" fill="rgb(142, 71, 41)" opacity="0.3792636"/>
    <path d="M 320.1749267578125 33.86294174194336 C 308.4285583496094 67.48119354248047 311.725341796875 65.06128692626953 310.3545837402344 49.9085807800293 C 272.0685119628906 52.70832824707031 267.5534973144531 45.365665435791016 269.2595520019531 47.05968475341797 C 253.98580932617188 38.816078186035156 260.7519226074219 33.69820785522461 267.26702880859375 4.044057846069336 C 351.5306701660156 10.253193855285645 339.2713623046875 6.000713348388672 333.5304870605469 1.388797402381897 L 320.1749267578125 33.86294174194336" stroke-width="2.0" fill="rgb(99, 118, 113)" opacity="0.31912705"/>
    <path d="M 254.3927001953125 184.00973510742188 C 261.2725524902344 163.39988708496094 265.4668273925781 246.61703491210938 242.52236938476562 220.35340881347656 C 227.57073974609375 225.81002807617188 233.91799926757812 234.03042602539062 232.02719116210938 184.24241638183594 C 246.15164184570312 165.80101013183594 231.20201110839844 236.37606811523438 243.56263732910156 222.56396484375 C 239.025146484375 197.78892517089844 248.8780059814453 126.45655059814453 249.7196502685547 246.1804656982422 L 254.3927001953125 184.00973510742188" stroke-width="2.0" fill="rgb(21, 34, 41)" opacity="0.88550377"/>
    <path d="M 43.23393249511719 273.9441833496094 C 13.466516494750977 273.12457275390625 20.749935150146484 263.8539123535156 19.98328399658203 292.072021484375 C 18.800493240356445 309.7228088378906 25.406827926635742 334.877197265625 7.714095592498779 343.7775573730469 C 5.931654930114746 276.7143859863281 7.400175094604492 261.6363525390625 7.043694496154785 223.67901611328125 C 42.624755859375 249.00674438476562 2.290205240249634 241.33383178710938 43.305355072021484 238.6402130126953 L 43.23393249511719 273.9441833496094" stroke-width="2.0" fill="rgb(72, 37, 8)" opacity="0.4335802"/>
    <path d="M 43.27385711669922 302.40325927734375 C 43.557369232177734 308.74517822265625 43.352745056152344 329.359130859375 43.04256057739258 329.3693542480469 C -1.4210349321365356 316.85394287109375 36.64837646484375 336.0162658691406 6.863340377807617 358.78558349609375 C 8.452086448669434 275.3193359375 7.110239028930664 271.7523193359375 6.051135540008545 272.71087646484375 C 25.911035537719727 269.4200439453125 30.017759323120117 274.5224304199219 43.2591552734375 273.970703125 L 43.27385711669922 302.40325927734375" stroke-width="2.0" fill="rgb(133, 107, 79)" opacity="0.6937639"/>
    <path d="M 406.1442565917969 493.4906921386719 C 404.0408020019531 497.5391845703125 402.9917297363281 499.3498229980469 400.38262939453125 501.437744140625 C 388.53497314453125 498.96893310546875 386.7900085449219 497.9068908691406 385.9150390625 496.14434814453125 C 388.3861083984375 484.0379943847656 392.6286926269531 479.27667236328125 390.552490234375 474.05609130859375 C 403.6593322753906 470.7076110839844 405.2203063964844 472.958251953125 405.4208984375 478.18206787109375 L 406.1442565917969 493.4906921386719" stroke-width="2.0" fill="rgb(96, 137, 0)" opacity="0.0"/>
    <path d="M 478.8984375 129.6089630126953 C 455.5747375488281 159.76632690429688 488.9888916015625 73.37339782714844 453.63311767578125 134.84030151367188 C 409.51287841796875 131.93589782714844 356.7214050292969 135.2723846435547 363.2159423828125 133.08560180664062 C 391.79168701171875 78.26256561279297 393.6565856933594 71.33609008789062 401.15625 55.33282470703125 C 433.06640625 50.645843505859375 440.2647705078125 56.56041717529297 481.65582275390625 70.62913513183594 L 478.8984375 129.6089630126953" stroke-width="2.0" fill="rgb(99, 116, 111)" opacity="0.30062193"/>
    <path d="M 48.45686721801758 212.79119873046875 C 51.087806701660156 214.55239868164062 20.65176010131836 214.19549560546875 7.773916721343994 214.4029083251953 C 12.072526931762695 228.40087890625 11.046243667602539 225.39215087890625 7.142121315002441 212.74560546875 C 7.217121124267578 184.28448486328125 7.396223545074463 176.5453643798828 7.393040657043457 155.83572387695312 C 65.94652557373047 173.41226196289062 25.404071807861328 159.70523071289062 72.9084701538086 104.73989868164062 L 48.45686721801758 212.79119873046875" stroke-width="2.0" fill="rgb(0, 41, 61)" opacity="0.8641475"/>
    <path d="M 449.86761474609375 251.1727752685547 C 453.6974182128906 247.4777374267578 431.63238525390625 261.8460998535156 374.27117919921875 300.33087158203125 C 408.56719970703125 256.4990234375 449.6900329589844 275.8634948730469 350.8907775878906 241.34829711914062 C 341.7626037597656 153.77816772460938 327.4228820800781 274.7523498535156 344.19110107421875 174.37246704101562 C 461.24383544921875 171.08151245117188 340.7123718261719 219.50428771972656 447.4579162597656 223.15101623535156 L 449.86761474609375 251.1727752685547" stroke-width="2.0" fill="rgb(92, 129, 137)" opacity="0.53515035"/>
    <path d="M 423.7982177734375 156.916259765625 C 425.343505859375 160.66720581054688 422.0806884765625 158.14480590820312 424.2047119140625 159.12071228027344 C 400.8398132324219 160.52606201171875 414.2397155761719 154.8842315673828 397.21136474609375 167.12660217285156 C 418.9034423828125 143.75685119628906 407.3011779785156 159.7937774658203 415.575927734375 149.4843292236328 C 419.11474609375 149.72972106933594 408.0732116699219 151.9933319091797 413.27972412109375 156.74789428710938 L 423.7982177734375 156.916259765625" stroke-width="2.0" fill="rgb(0, 8, 15)" opacity="0.723421"/>
    <path d="M 293.6470031738281 457.5644226074219 C 330.90069580078125 453.3900451660156 340.1922912597656 464.27325439453125 246.6141815185547 457.4420166015625 C 171.72271728515625 460.7910461425781 357.98736572265625 457.8437194824219 268.84527587890625 455.1354064941406 C 273.6182556152344 316.88330078125 279.3564453125 468.91680908203125 269.0622253417969 400.7734375 C 281.8125305175781 385.80120849609375 304.8821105957031 408.95159912109375 279.5372314453125 394.0626220703125 L 293.6470031738281 457.5644226074219" stroke-width="2.0" fill="rgb(131, 109, 83)" opacity="0.6201318"/>
    <path d="M 186.9861602783203 360.0047912597656 C 99.61085510253906 319.91400146484375 202.7355194091797 383.474609375 177.68960571289062 401.0920104980469 C 157.93899536132812 387.8530578613281 160.1833953857422 406.3728332519531 161.70956420898438 361.33612060546875 C 126.61286926269531 325.2443542480469 160.31446838378906 359.8590393066406 160.65188598632812 313.501953125 C 199.4449005126953 387.3470458984375 157.55638122558594 274.7550964355469 173.03323364257812 275.0710754394531 L 186.9861602783203 360.0047912597656" stroke-width="2.0" fill="rgb(17, 5, 0)" opacity="0.43951687"/>
    <path d="M 99.0692367553711 477.191650390625 C 99.45057678222656 471.1974792480469 103.5751724243164 480.9216003417969 81.9837646484375 479.4953918457031 C 79.77474212646484 378.6775817871094 92.35248565673828 460.44549560546875 56.55677795410156 448.4642028808594 C 58.06951904296875 361.3532409667969 51.43036651611328 385.6067199707031 69.64601135253906 385.1046447753906 C 70.61830139160156 452.2484130859375 63.285736083984375 478.7731628417969 97.87472534179688 393.6979064941406 L 99.0692367553711 477.191650390625" stroke-width="2.0" fill="rgb(0, 11, 16)" opacity="0.8134583"/>
    <path d="M 206.26104736328125 58.399105072021484 C 204.5197296142578 35.80526351928711 206.93838500976562 34.17009353637695 199.74261474609375 69.77207946777344 C 186.4431610107422 62.34835433959961 172.6077423095703 59.63628387451172 143.6768035888672 55.968833923339844 C 144.4349822998047 -11.219481468200684 142.6051483154297 3.9852490425109863 188.11378479003906 4.508290767669678 C 215.6326141357422 26.796634674072266 210.0413360595703 2.041971206665039 205.41661071777344 41.70155715942383 L 206.26104736328125 58.399105072021484" stroke-width="2.0" fill="rgb(27, 60, 66)" opacity="0.20561355"/>
    <path d="M 503.59832763671875 427.97332763671875 C 479.82293701171875 448.834228515625 504.2836608886719 421.3596496582031 499.8292541503906 388.28643798828125 C 458.1082763671875 404.06243896484375 448.1593933105469 411.5085144042969 448.51336669921875 344.1265563964844 C 426.4362487792969 348.5476989746094 440.9900207519531 362.9504089355469 437.25079345703125 290.251220703125 C 516.992431640625 242.1192626953125 500.41119384765625 332.0879821777344 513.5225830078125 328.29095458984375 L 503.59832763671875 427.97332763671875" stroke-width="2.0" fill="rgb(127, 71, 26)" opacity="0.3771358"/>
    <path d="M 46.07393264770508 215.3137664794922 C 42.66193771362305 205.804931640625 44.044586181640625 223.37344360351562 43.3784294128418 238.75193786621094 C 3.780473232269287 242.05409240722656 34.557003021240234 248.5789031982422 7.501272678375244 232.96334838867188 C 5.417289733886719 191.0379180908203 8.686248779296875 181.94549560546875 13.473237991333008 186.40692138671875 C 73.05197143554688 185.52352905273438 49.13600158691406 183.21261596679688 49.71733474731445 189.00900268554688 L 46.07393264770508 215.3137664794922" stroke-width="2.0" fill="rgb(38, 13, 0)" opacity="0.40839252"/>
    <path d="M 272.82794189453125 452.6786193847656 C 261.0033264160156 451.7284851074219 268.3450622558594 437.7298278808594 269.6495666503906 453.720703125 C 205.3521270751953 454.2396240234375 190.9481201171875 451.9148864746094 273.2138671875 452.1365966796875 C 228.21043395996094 431.62530517578125 235.86904907226562 469.30023193359375 235.47637939453125 411.66522216796875 C 255.71070861816406 397.82891845703125 260.02850341796875 411.7883605957031 256.6938171386719 446.29827880859375 L 272.82794189453125 452.6786193847656" stroke-width="2.0" fill="rgb(0, 43, 56)" opacity="0.87706554"/>
    <path d="M 101.34032440185547 299.3602600097656 C 101.74925994873047 372.1736145019531 103.99541473388672 356.6409912109375 93.52928924560547 354.3713073730469 C 89.24989318847656 269.6654968261719 101.73812866210938 329.5311584472656 76.93514251708984 339.26947021484375 C 74.53521728515625 274.0717468261719 75.47460174560547 304.64166259765625 81.31327056884766 283.9331970214844 C 94.14329528808594 281.705078125 75.51705169677734 376.623291015625 96.49744415283203 301.9375 L 101.34032440185547 299.3602600097656" stroke-width="2.0" fill="rgb(78, 82, 74)" opacity="0.52414984"/>
    <path d="M 454.025390625 247.4708251953125 C 400.247314453125 282.5335998535156 394.7704162597656 288.6570739746094 371.8684997558594 300.5256042480469 C 368.439208984375 311.01751708984375 373.491943359375 313.78753662109375 366.7248229980469 307.6041564941406 C 355.39556884765625 263.0497131347656 354.2303161621094 247.37460327148438 353.03948974609375 245.526123046875 C 478.61566162109375 223.82342529296875 377.8575439453125 292.3182067871094 446.4519958496094 244.84988403320312 L 454.025390625 247.4708251953125" stroke-width="2.0" fill="rgb(0, 27, 45)" opacity="0.42764366"/>
    <path d="M 504.8923645019531 107.98751068115234 C 480.71746826171875 94.94547271728516 476.2959289550781 59.606746673583984 469.32818603515625 66.88232421875 C 429.1009826660156 49.225215911865234 413.8985900878906 54.760467529296875 417.32220458984375 53.62187957763672 C 417.1177673339844 16.991060256958008 416.9311218261719 12.828568458557129 416.83367919921875 7.394251346588135 C 456.1018371582031 4.787759304046631 466.6829833984375 5.302084922790527 510.54351806640625 6.039534568786621 L 504.8923645019531 107.98751068115234" stroke-width="2.0" fill="rgb(61, 88, 89)" opacity="0.2556918"/>
    <path d="M 400.7272644042969 55.47412109375 C 391.2552795410156 76.98985290527344 389.2181701660156 81.79157257080078 374.99407958984375 109.68907928466797 C 363.8859558105469 131.85479736328125 356.89959716796875 144.46533203125 361.94622802734375 133.89205932617188 C 355.8976745605469 42.68303680419922 353.929931640625 62.37519836425781 371.9616394042969 52.72026062011719 C 377.67779541015625 55.157901763916016 404.00921630859375 55.08696746826172 408.9620361328125 54.18245315551758 L 400.7272644042969 55.47412109375" stroke-width="2.0" fill="rgb(80, 107, 106)" opacity="0.2620389"/>
    <path d="M 447.2465515136719 241.25584411621094 C 447.52020263671875 234.5081024169922 453.5692138671875 238.67617797851562 415.57855224609375 247.06744384765625 C 430.64764404296875 273.2820739746094 345.2323303222656 267.6985168457031 405.8846435546875 221.8235321044922 C 415.3990783691406 196.0598602294922 403.5643005371094 231.95018005371094 412.0027160644531 179.5449676513672 C 395.02569580078125 183.8784942626953 432.013427734375 212.1438446044922 449.2929382324219 183.67649841308594 L 447.2465515136719 241.25584411621094" stroke-width="2.0" fill="rgb(152, 157, 150)" opacity="0.7531353"/>
    <path d="M 221.5383758544922 360.77716064453125 C 220.17697143554688 365.7094421386719 204.05941772460938 356.76031494140625 211.36610412597656 370.76318359375 C 208.4978485107422 361.65753173828125 237.74710083007812 371.96087646484375 209.3145751953125 374.16363525390625 C 210.36672973632812 260.1379089355469 199.4925537109375 187.697509765625 221.9218292236328 231.6743621826172 C 221.5652618408203 326.94744873046875 222.31546020507812 344.9016418457031 221.35336303710938 337.51025390625 L 221.5383758544922 360.77716064453125" stroke-width="2.0" fill="rgb(159, 119, 85)" opacity="0.5307601"/>
    <path d="M 303.8505859375 450.9222106933594 C 139.8740997314453 447.2796630859375 317.60906982421875 456.9607849121094 185.32669067382812 453.7228088378906 C 163.39523315429688 464.66986083984375 98.57270050048828 447.43963623046875 208.8245391845703 449.5987548828125 C 208.54086303710938 461.0281066894531 209.9341583251953 420.7227783203125 209.18800354003906 407.3848876953125 C 224.70970153808594 408.5104675292969 221.45452880859375 399.65130615234375 221.391357421875 446.0596008300781 L 303.8505859375 450.9222106933594" stroke-width="2.0" fill="rgb(145, 105, 75)" opacity="0.5017336"/>
    <path d="M 383.78460693359375 293.9351501464844 C 382.1405029296875 334.16912841796875 382.6533508300781 290.46929931640625 367.14349365234375 325.6332092285156 C 364.77001953125 346.30511474609375 365.7712707519531 356.75860595703125 365.11212158203125 299.0279541015625 C 362.2446594238281 296.04595947265625 362.98687744140625 293.3310852050781 358.39117431640625 278.99066162109375 C 360.201904296875 288.9604797363281 370.1494140625 296.0060729980469 422.7806091308594 267.0696105957031 L 383.78460693359375 293.9351501464844" stroke-width="2.0" fill="rgb(5, 34, 37)" opacity="0.40851942"/>
    <path d="M 96.66312408447266 162.673095703125 C 105.40016174316406 221.69017028808594 115.18607330322266 267.2745666503906 108.82384490966797 280.03289794921875 C 86.51060485839844 153.1153106689453 91.06934356689453 161.53253173828125 85.58023071289062 159.1112518310547 C 90.93224334716797 162.19383239746094 86.70044708251953 157.3338623046875 89.3939437866211 163.64747619628906 C 76.42412567138672 78.12320709228516 76.75387573242188 80.17091369628906 82.64956665039062 61.419715881347656 L 96.66312408447266 162.673095703125" stroke-width="2.0" fill="rgb(5, 20, 29)" opacity="0.90435123"/>
    <path d="M 258.7903137207031 195.41226196289062 C 263.0378723144531 236.06748962402344 258.8283996582031 219.95054626464844 225.7640838623047 225.09188842773438 C 239.74172973632812 226.96864318847656 221.26446533203125 167.11660766601562 239.65394592285156 181.30584716796875 C 235.69033813476562 240.21986389160156 246.25686645507812 231.23631286621094 241.3731689453125 181.66709899902344 C 271.9436340332031 180.3511199951172 229.12933349609375 194.25180053710938 262.3900146484375 175.0590362548828 L 258.7903137207031 195.41226196289062" stroke-width="2.0" fill="rgb(3, 0, 0)" opacity="0.20117722"/>
    <path d="M 150.671630859375 313.3536071777344 C 103.8685073852539 230.4030303955078 115.19377899169922 277.06207275390625 113.24198150634766 393.6701354980469 C 106.15131378173828 414.0220031738281 110.35323333740234 322.6530456542969 108.62018585205078 302.080322265625 C 112.37784576416016 254.81272888183594 104.67689514160156 296.85443115234375 96.5619125366211 192.7930145263672 C 146.08062744140625 252.0475616455078 126.38957977294922 139.15423583984375 136.7500762939453 218.3482208251953 L 150.671630859375 313.3536071777344" stroke-width="2.0" fill="rgb(41, 52, 54)" opacity="0.6547923"/>
    <path d="M 445.12127685546875 363.394287109375 C 486.2633972167969 364.15380859375 430.51727294921875 371.0037841796875 365.1266784667969 397.17254638671875 C 393.1677551269531 373.0147705078125 418.56109619140625 379.7601623535156 404.6691589355469 370.988037109375 C 413.3276062011719 376.04833984375 405.8448181152344 377.1655578613281 404.08441162109375 375.7312316894531 C 405.5384521484375 377.2449645996094 412.00201416015625 373.3245849609375 405.85699462890625 376.0312194824219 L 445.12127685546875 363.394287109375" stroke-width="2.0" fill="rgb(151, 89, 45)" opacity="0.5953242"/>
    <path d="M 58.670528411865234 102.95310974121094 C 72.1573715209961 110.98951721191406 64.58425903320312 115.5959243774414 60.6966552734375 126.8895263671875 C -3.9936769008636475 121.7977523803711 31.009544372558594 125.39099884033203 7.733509063720703 147.93223571777344 C 6.683413028717041 41.675376892089844 7.521634578704834 61.059818267822266 10.50342845916748 59.49388122558594 C 56.35082244873047 59.8364143371582 69.46287536621094 59.65107727050781 68.50198364257812 60.1589469909668 L 58.670528411865234 102.95310974121094" stroke-width="2.0" fill="rgb(184, 127, 105)" opacity="0.6657421"/>
    <path d="M 506.77044677734375 132.89370727539062 C 507.2276306152344 138.69503784179688 507.6025085449219 134.1314697265625 504.49847412109375 133.3382568359375 C 503.7971496582031 160.54856872558594 594.212158203125 83.13220977783203 505.84326171875 -15.227171897888184 C 509.43060302734375 158.81243896484375 501.7887268066406 138.9669952392578 511.695068359375 138.21432495117188 C 527.45654296875 181.76657104492188 676.9173583984375 284.1356506347656 506.50250244140625 526.1190185546875 L 506.77044677734375 132.89370727539062" stroke-width="2.0" fill="rgb(249, 248, 249)" opacity="0.98975414"/>
    <path d="M 123.35295867919922 451.587890625 C 115.84187316894531 462.0382995605469 102.04569244384766 457.5865173339844 83.31283569335938 447.9054870605469 C 87.54649353027344 460.4515380859375 59.136207580566406 454.15435791015625 77.66584777832031 465.5830078125 C 82.25872802734375 466.451171875 91.90557861328125 422.1021728515625 44.12199020385742 457.8172912597656 C 91.76671600341797 460.9153747558594 17.330881118774414 360.65740966796875 123.22472381591797 350.61669921875 L 123.35295867919922 451.587890625" stroke-width="2.0" fill="rgb(210, 203, 180)" opacity="0.50289005"/>
    <path d="M 177.3670654296875 163.5415496826172 C 180.105712890625 161.3649139404297 178.00929260253906 161.26962280273438 165.77645874023438 157.6013641357422 C 165.37643432617188 164.6629180908203 166.1004638671875 163.11984252929688 169.0941925048828 160.75332641601562 C 170.39724731445312 159.25575256347656 168.9025421142578 156.4266815185547 166.45323181152344 158.4385223388672 C 170.92430114746094 160.9160614013672 172.9905242919922 161.77854919433594 173.40560913085938 163.43824768066406 L 177.3670654296875 163.5415496826172" stroke-width="2.0" fill="rgb(150, 233, 89)" opacity="0.00435026"/>
    <path d="M 430.9360046386719 129.1983184814453 C 425.03546142578125 130.9655303955078 414.5936584472656 128.33782958984375 415.1553649902344 129.34771728515625 C 432.1970520019531 133.0679168701172 428.6965637207031 132.54087829589844 414.5263671875 129.1460723876953 C 428.3168029785156 129.18272399902344 417.17535400390625 133.29498291015625 416.17230224609375 117.67987823486328 C 418.0130920410156 134.61227416992188 425.0705871582031 129.1142578125 435.9064636230469 128.86326599121094 L 430.9360046386719 129.1983184814453" stroke-width="2.0" fill="rgb(134, 117, 122)" opacity="0.02352672"/>
    <path d="M 506.5701904296875 363.5955810546875 C 500.43829345703125 348.58135986328125 514.4421997070312 375.4801330566406 498.87091064453125 432.92291259765625 C 498.43505859375 421.1390075683594 503.8695983886719 379.5868225097656 495.8230895996094 318.3592224121094 C 474.7322082519531 319.9356689453125 475.17303466796875 313.7005920410156 477.5018615722656 311.63494873046875 C 506.4548645019531 311.165771484375 505.8158264160156 308.9561767578125 506.13861083984375 311.7642517089844 L 506.5701904296875 363.5955810546875" stroke-width="2.0" fill="rgb(128, 78, 45)" opacity="0.6237357"/>
    <path d="M 39.44794464111328 430.97711181640625 C 45.43901062011719 426.2072448730469 42.89746856689453 387.14044189453125 43.43416213989258 436.5782165527344 C 43.58037567138672 417.3367919921875 26.99278450012207 454.76385498046875 7.201591491699219 463.83233642578125 C 6.240900993347168 346.9444885253906 7.639945983886719 340.2131652832031 8.353873252868652 322.21417236328125 C 23.942907333374023 327.21710205078125 19.597206115722656 376.66778564453125 20.05129623413086 454.5256652832031 L 39.44794464111328 430.97711181640625" stroke-width="2.0" fill="rgb(178, 88, 41)" opacity="0.6439926"/>
    <path d="M 277.133544921875 335.0126953125 C 288.9188537597656 341.5276184082031 247.62353515625 391.8420715332031 278.1893005371094 337.81982421875 C 201.6733856201172 337.1273498535156 216.73223876953125 338.79840087890625 182.47650146484375 338.3885498046875 C 162.07630920410156 336.8922119140625 224.46749877929688 333.0647277832031 281.7373962402344 335.08795166015625 C 254.03631591796875 337.8634338378906 287.21966552734375 330.2155456542969 279.7391357421875 341.5726623535156 L 277.133544921875 335.0126953125" stroke-width="2.0" fill="rgb(17, 15, 16)" opacity="0.74740297"/>
    <path d="M 94.4991455078125 273.5215759277344 C 126.2635498046875 268.32861328125 93.9788589477539 331.7942199707031 117.98896789550781 273.0988464355469 C 73.81547546386719 280.9958801269531 107.88658905029297 252.7220916748047 86.31941986083984 239.33163452148438 C 86.96849822998047 187.9633331298828 77.04507446289062 295.3385314941406 78.90227508544922 174.57395935058594 C 91.66893768310547 198.1240997314453 101.96943664550781 189.78817749023438 92.57780456542969 190.7096405029297 L 94.4991455078125 273.5215759277344" stroke-width="2.0" fill="rgb(3, 0, 0)" opacity="0.3390244"/>
    <path d="M 361.8115234375 134.0891876220703 C 333.4137268066406 132.04165649414062 380.7528076171875 134.8795623779297 341.8875732421875 134.20620727539062 C 316.5523681640625 130.1448516845703 310.31689453125 99.84683990478516 287.4515380859375 95.5909194946289 C 295.2241516113281 73.46730041503906 302.09515380859375 68.41758728027344 311.3847961425781 60.54001998901367 C 339.51458740234375 77.93517303466797 360.3062744140625 73.1380386352539 357.8636779785156 75.20891571044922 L 361.8115234375 134.0891876220703" stroke-width="2.0" fill="rgb(102, 125, 124)" opacity="0.29631892"/>
    <path d="M 260.3693542480469 401.9300537109375 C 268.0765380859375 414.9294738769531 263.48468017578125 406.95562744140625 266.3677062988281 450.162841796875 C 210.3904571533203 447.7632141113281 232.6472930908203 462.565673828125 227.23141479492188 413.1429748535156 C 244.78565979003906 380.3463439941406 246.54144287109375 409.01318359375 251.54605102539062 408.1714782714844 C 242.7264404296875 396.1201171875 238.0355682373047 394.5114440917969 254.36729431152344 397.54547119140625 L 260.3693542480469 401.9300537109375" stroke-width="2.0" fill="rgb(56, 11, 0)" opacity="0.3413539"/>
    <path d="M 300.9919738769531 342.51300048828125 C 271.0747375488281 302.9167785644531 320.5077819824219 263.3930358886719 268.2123718261719 364.7156982421875 C 285.1800537109375 304.0386962890625 303.1346740722656 304.73651123046875 268.4353332519531 305.80560302734375 C 293.78253173828125 307.8356018066406 293.3211975097656 300.3371276855469 282.6662902832031 324.4780578613281 C 283.6187438964844 230.7979736328125 272.7969055175781 249.4531707763672 299.7315368652344 247.74192810058594 L 300.9919738769531 342.51300048828125" stroke-width="2.0" fill="rgb(0, 25, 35)" opacity="0.81956506"/>
    <path d="M 337.9764099121094 455.9253845214844 C 394.7167053222656 463.5007629394531 380.2948913574219 435.2520751953125 383.0047302246094 478.34454345703125 C 319.2742614746094 470.44134521484375 341.2735290527344 474.1142883300781 335.3811950683594 410.2816162109375 C 347.8493347167969 365.0986022949219 339.6781005859375 467.720703125 343.5279235839844 457.6155090332031 C 376.46307373046875 458.79754638671875 308.25994873046875 457.4609680175781 367.67523193359375 456.0775451660156 L 337.9764099121094 455.9253845214844" stroke-width="2.0" fill="rgb(10, 32, 43)" opacity="0.61145025"/>
    <path d="M 202.55992126464844 501.737060546875 C 215.7704620361328 506.8638610839844 206.57579040527344 503.7743225097656 224.03057861328125 505.8687438964844 C 158.7709503173828 506.30047607421875 127.61119842529297 505.6968078613281 129.3315887451172 506.7249450683594 C 221.598876953125 480.6858825683594 133.41586303710938 474.2684020996094 128.2012939453125 463.06365966796875 C 218.1207733154297 437.31207275390625 179.20391845703125 490.4874267578125 139.28501892089844 464.32330322265625 L 202.55992126464844 501.737060546875" stroke-width="2.0" fill="rgb(27, 42, 48)" opacity="0.3970576"/>
    <path d="M 244.51385498046875 89.93739318847656 C 243.4887237548828 91.74443817138672 250.70608520507812 71.79488372802734 222.34234619140625 101.34349060058594 C 220.11871337890625 81.36784362792969 230.0732879638672 89.21186065673828 199.94027709960938 69.34874725341797 C 214.0683135986328 0.8115022778511047 204.4585723876953 18.000797271728516 217.43389892578125 20.02666473388672 C 237.80975341796875 2.6468520164489746 225.10888671875 0.09639955312013626 268.7644958496094 0.17968273162841797 L 244.51385498046875 89.93739318847656" stroke-width="2.0" fill="rgb(112, 131, 124)" opacity="0.33653632"/>
    <path d="M 343.16534423828125 360.5363464355469 C 346.6424560546875 367.62261962890625 335.26226806640625 372.4151306152344 328.7225341796875 350.42926025390625 C 333.07330322265625 384.2453918457031 326.0312194824219 361.970458984375 327.6120910644531 372.79412841796875 C 328.9251708984375 343.6773376464844 324.48162841796875 347.4505920410156 338.3323059082031 368.3548889160156 C 342.3206481933594 316.03662109375 333.0079040527344 329.96917724609375 343.1620178222656 322.8851623535156 L 343.16534423828125 360.5363464355469" stroke-width="2.0" fill="rgb(5, 16, 20)" opacity="0.7558471"/>
    <path d="M 93.89725494384766 350.3315734863281 C 106.24302673339844 351.06878662109375 111.5770492553711 371.3588562011719 83.4012222290039 343.87225341796875 C 70.12564086914062 344.0677185058594 123.99063110351562 361.92327880859375 76.19768524169922 346.0297546386719 C 77.89886474609375 276.10601806640625 72.94479370117188 274.2628479003906 80.96595001220703 283.6678466796875 C 74.36422729492188 362.723388671875 81.86014556884766 345.41552734375 104.34811401367188 353.59246826171875 L 93.89725494384766 350.3315734863281" stroke-width="2.0" fill="rgb(0, 18, 32)" opacity="0.76277655"/>
    <path d="M 413.08294677734375 275.3136901855469 C 361.8385925292969 300.5539855957031 401.42950439453125 303.1849670410156 361.63275146484375 298.4461364746094 C 437.97265625 260.5592041015625 363.3670349121094 301.5629577636719 359.6836853027344 282.0059814453125 C 326.3777770996094 121.46833801269531 361.314697265625 289.4543762207031 318.1773376464844 196.3107147216797 C 449.98046875 141.25323486328125 373.1653747558594 230.8606414794922 412.6144104003906 208.6009979248047 L 413.08294677734375 275.3136901855469" stroke-width="2.0" fill="rgb(0, 15, 24)" opacity="0.30701828"/>
    <path d="M 487.8762512207031 183.37002563476562 C 488.75445556640625 276.47589111328125 488.2125549316406 222.50836181640625 450.0130615234375 251.69305419921875 C 360.25750732421875 303.5648193359375 459.9595031738281 236.36581420898438 431.9420166015625 255.9437713623047 C 425.95526123046875 249.01492309570312 433.5485534667969 267.1255187988281 452.3677062988281 235.70436096191406 C 451.492919921875 212.11749267578125 433.8172302246094 113.05225372314453 493.14892578125 98.62702941894531 L 487.8762512207031 183.37002563476562" stroke-width="2.0" fill="rgb(146, 56, 0)" opacity="0.25748172"/>
    <path d="M 123.57511901855469 9.199170112609863 C 146.6818389892578 19.88658332824707 175.3565216064453 -20.729228973388672 149.15333557128906 46.81951141357422 C 82.7404556274414 53.9091796875 81.04010009765625 17.950199127197266 79.64720916748047 9.978799819946289 C 109.56210327148438 2.1208622455596924 115.44457244873047 3.000819683074951 153.10044860839844 5.245075702667236 C 126.8124771118164 15.400679588317871 122.25841522216797 9.39904499053955 128.37661743164062 11.322310447692871 L 123.57511901855469 9.199170112609863" stroke-width="2.0" fill="rgb(160, 158, 142)" opacity="0.26966113"/>
    <path d="M 474.88531494140625 302.1231384277344 C 443.18206787109375 314.92327880859375 490.2290954589844 301.98480224609375 459.1488037109375 346.4544372558594 C 454.54296875 236.92083740234375 481.5308837890625 248.34805297851562 371.92022705078125 311.2063903808594 C 363.18121337890625 276.6730651855469 443.3916015625 284.6454162597656 420.4956359863281 218.43783569335938 C 466.4969787597656 191.30662536621094 436.6318054199219 238.7468719482422 453.89959716796875 272.2215576171875 L 474.88531494140625 302.1231384277344" stroke-width="2.0" fill="rgb(43, 0, 0)" opacity="0.40324563"/>
    <path d="M 506.3580627441406 368.30706787109375 C 504.7406311035156 365.0880126953125 489.6201171875 370.2957458496094 461.68505859375 378.6601867675781 C 444.8087158203125 382.7140808105469 449.0703430175781 386.6562805175781 448.53106689453125 378.10015869140625 C 448.71624755859375 374.831787109375 447.8439025878906 362.6606140136719 448.38470458984375 374.62701416015625 C 446.6718444824219 376.09771728515625 455.006591796875 372.8833923339844 505.9566955566406 356.07745361328125 L 506.3580627441406 368.30706787109375" stroke-width="2.0" fill="rgb(22, 35, 42)" opacity="0.95566446"/>
    <path d="M 506.1632385253906 312.645751953125 C 502.0715637207031 301.6248474121094 505.4432373046875 326.6357727050781 500.868408203125 312.79345703125 C 503.4300842285156 263.137939453125 485.6846923828125 300.5252685546875 471.1993103027344 280.9862365722656 C 450.96923828125 266.0752868652344 446.5680236816406 304.7696533203125 457.70697021484375 279.5955505371094 C 505.6475830078125 174.8905029296875 447.275390625 167.20053100585938 506.2274475097656 143.46646118164062 L 506.1632385253906 312.645751953125" stroke-width="2.0" fill="rgb(3, 0, 2)" opacity="0.6274413"/>
    <path d="M 127.55077362060547 482.47998046875 C 92.2532730102539 490.357177734375 108.33123016357422 485.3663024902344 86.56333923339844 490.69610595703125 C 68.07949829101562 494.1741027832031 70.86744689941406 488.4896545410156 56.85530090332031 490.77825927734375 C 54.30242156982422 472.93560791015625 65.84147644042969 497.175537109375 99.94538879394531 465.20562744140625 C 146.16561889648438 458.0849914550781 124.37620544433594 465.5797119140625 130.76173400878906 457.68902587890625 L 127.55077362060547 482.47998046875" stroke-width="2.0" fill="rgb(106, 115, 119)" opacity="0.3409371"/>
    <path d="M 318.4620666503906 449.1185302734375 C 319.7875671386719 455.76031494140625 318.49822998046875 470.4197998046875 319.6083679199219 459.60443115234375 C 105.23431396484375 461.1579895019531 105.37065887451172 457.8269958496094 280.75848388671875 457.0574951171875 C 279.2441101074219 395.9658508300781 288.9880676269531 460.91162109375 285.73828125 395.5998229980469 C 333.72808837890625 402.9214172363281 289.306640625 353.7311706542969 318.6651611328125 324.2076416015625 L 318.4620666503906 449.1185302734375" stroke-width="2.0" fill="rgb(56, 7, 0)" opacity="0.33295"/>
    <path d="M 69.10737609863281 342.0480651855469 C 33.1119499206543 323.33721923828125 44.625057220458984 324.4687805175781 43.62952423095703 360.6257019042969 C 42.62892532348633 450.4068298339844 49.48955154418945 417.5315246582031 7.22504997253418 467.8161315917969 C 9.392403602600098 331.8377685546875 -4.6999688148498535 309.3894958496094 56.30718231201172 334.67401123046875 C 60.08932876586914 274.9870300292969 70.78108978271484 249.6959991455078 67.99562072753906 293.0644226074219 L 69.10737609863281 342.0480651855469" stroke-width="2.0" fill="rgb(99, 74, 52)" opacity="0.58693725"/>
    <path d="M 250.67929077148438 282.7477111816406 C 248.45663452148438 280.04388427734375 248.95339965820312 280.3944396972656 251.3948974609375 283.7927551269531 C 248.66580200195312 280.1007080078125 249.8504180908203 281.842041015625 250.25106811523438 281.903564453125 C 252.0081024169922 283.22723388671875 251.66690063476562 282.97802734375 250.95254516601562 282.4507751464844 C 249.41600036621094 281.3651123046875 250.5951690673828 282.3693542480469 249.31893920898438 281.091064453125 L 250.67929077148438 282.7477111816406" stroke-width="2.0" fill="rgb(100, 255, 155)" opacity="0.052374136"/>
    <path d="M 188.58460998535156 485.7919616699219 C 201.8864288330078 477.3231201171875 198.78097534179688 477.3821105957031 191.4529571533203 483.5583190917969 C 135.17425537109375 512.1609497070312 159.8867950439453 505.4101257324219 123.14997863769531 505.7890625 C 173.7441864013672 482.7454833984375 129.09112548828125 449.71112060546875 154.35952758789062 456.2294921875 C 150.24786376953125 510.5130310058594 96.49475860595703 508.17510986328125 221.00161743164062 465.1222839355469 L 188.58460998535156 485.7919616699219" stroke-width="2.0" fill="rgb(6, 27, 38)" opacity="0.91299266"/>
    <path d="M 364.9129638671875 505.8187255859375 C 255.5892791748047 457.9247741699219 257.710693359375 508.41619873046875 247.04342651367188 490.3511962890625 C 230.2161102294922 466.3946228027344 294.6666259765625 499.7247619628906 221.44407653808594 462.03118896484375 C 195.2629852294922 499.94964599609375 198.16488647460938 439.07916259765625 247.8043212890625 451.2939147949219 C 157.34176635742188 422.1383361816406 248.75413513183594 496.9305114746094 284.0247497558594 466.9471435546875 L 364.9129638671875 505.8187255859375" stroke-width="2.0" fill="rgb(72, 81, 82)" opacity="0.20094042"/>
    <path d="M 372.25958251953125 506.59625244140625 C 251.79519653320312 501.30291748046875 292.6959228515625 505.3487854003906 283.71551513671875 505.9999084472656 C 257.67041015625 506.11572265625 288.41082763671875 504.1034240722656 257.7098693847656 503.9223937988281 C 236.6743621826172 513.906494140625 264.0135192871094 486.130126953125 247.71649169921875 491.1136474609375 C 316.3056335449219 485.5851745605469 248.51980590820312 495.49639892578125 325.7579040527344 487.3387756347656 L 372.25958251953125 506.59625244140625" stroke-width="2.0" fill="rgb(14, 3, 4)" opacity="0.2134543"/>
    <path d="M 194.6422119140625 353.6349792480469 C 197.1762237548828 355.2991638183594 196.15658569335938 356.05145263671875 194.10032653808594 356.5592041015625 C 195.93658447265625 355.4800720214844 196.89956665039062 356.8155822753906 190.36358642578125 358.7210388183594 C 193.7822265625 353.32464599609375 195.6095428466797 354.81396484375 193.2828369140625 353.1955261230469 C 194.9264373779297 352.4466552734375 196.5669403076172 351.9935607910156 195.7863006591797 353.0318603515625 L 194.6422119140625 353.6349792480469" stroke-width="2.0" fill="rgb(100, 55, 203)" opacity="0.0"/>
    <path d="M 88.11892700195312 58.8886833190918 C 80.8177261352539 60.00796890258789 77.23125457763672 59.64020538330078 62.25038528442383 59.737064361572266 C 29.613828659057617 59.76496505737305 36.94184112548828 61.24248123168945 36.011444091796875 54.823158264160156 C 33.915374755859375 6.839666843414307 34.909202575683594 9.764477729797363 28.499174118041992 6.565176010131836 C 60.4851188659668 6.845506191253662 70.37183380126953 6.114851951599121 89.81353759765625 6.787464618682861 L 88.11892700195312 58.8886833190918" stroke-width="2.0" fill="rgb(123, 136, 128)" opacity="0.40345612"/>
    <path d="M 500.0833435058594 361.6590576171875 C 484.4450378417969 369.3207702636719 480.5010070800781 369.2994079589844 470.5102844238281 372.93731689453125 C 453.9502258300781 372.8898620605469 445.5764465332031 374.83587646484375 451.4132995605469 391.9077453613281 C 471.2921142578125 378.01812744140625 465.71868896484375 369.9582824707031 468.27679443359375 351.03125 C 480.8475036621094 365.848388671875 483.35430908203125 368.18084716796875 494.9092712402344 366.01678466796875 L 500.0833435058594 361.6590576171875" stroke-width="2.0" fill="rgb(120, 0, 136)" opacity="0.0"/>
    <path d="M 323.6491394042969 482.80157470703125 C 392.526611328125 511.8405456542969 396.9906311035156 504.276611328125 354.43585205078125 506.3333740234375 C 321.3164367675781 491.0676574707031 295.1413269042969 479.50689697265625 267.09259033203125 465.0064392089844 C 271.5643005371094 460.254638671875 320.95263671875 486.1629333496094 309.7337646484375 477.8150939941406 C 328.8720397949219 485.4842529296875 319.01141357421875 482.80780029296875 281.2542724609375 467.3428039550781 L 323.6491394042969 482.80157470703125" stroke-width="2.0" fill="rgb(0, 10, 22)" opacity="0.70333785"/>
    <path d="M 109.15602111816406 480.4318542480469 C 110.08182525634766 490.2328796386719 73.83216094970703 464.6547546386719 83.96183776855469 490.2667541503906 C 33.50166702270508 496.07757568359375 32.546302795410156 500.3153381347656 37.40633010864258 480.0380554199219 C 30.965835571289062 464.4140625 31.61069679260254 470.4176330566406 83.00462341308594 466.048828125 C 79.85549926757812 423.92376708984375 86.989501953125 423.63519287109375 94.06854248046875 456.8866882324219 L 109.15602111816406 480.4318542480469" stroke-width="2.0" fill="rgb(25, 43, 49)" opacity="0.7696248"/>
    <path d="M 193.5101318359375 127.00505065917969 C 172.8969268798828 131.15625 169.786865234375 133.64154052734375 167.4779052734375 137.11915588378906 C 176.7674560546875 136.15576171875 176.42897033691406 131.419921875 158.88291931152344 121.74774169921875 C 144.05435180664062 118.37564086914062 144.38687133789062 116.39964294433594 148.15069580078125 117.10737609863281 C 187.73451232910156 116.96347045898438 191.27598571777344 115.69831085205078 204.29901123046875 116.3087387084961 L 193.5101318359375 127.00505065917969" stroke-width="2.0" fill="rgb(229, 201, 128)" opacity="0.0"/>
    <path d="M 194.54949951171875 163.15634155273438 C 133.6031036376953 173.06341552734375 145.54763793945312 172.89627075195312 130.82293701171875 190.44546508789062 C 133.94314575195312 220.55137634277344 95.24530029296875 204.61195373535156 100.88408660888672 186.14947509765625 C 90.19066619873047 113.56048583984375 93.01240539550781 139.63180541992188 101.38777923583984 141.44390869140625 C 77.72579193115234 140.6239471435547 141.4040069580078 129.91258239746094 237.2040252685547 151.5046844482422 L 194.54949951171875 163.15634155273438" stroke-width="2.0" fill="rgb(255, 255, 230)" opacity="0.39155295"/>
    <path d="M 506.68414306640625 501.8399963378906 C 505.52471923828125 500.31695556640625 515.6976928710938 503.0777282714844 473.56689453125 494.9072265625 C 496.24884033203125 493.0684509277344 502.3304443359375 490.4974365234375 439.7138366699219 486.77691650390625 C 466.8583068847656 404.9877624511719 485.057373046875 573.7205200195312 481.0414733886719 413.88800048828125 C 513.1918334960938 442.7202453613281 481.2321472167969 494.8251953125 506.412841796875 403.2636413574219 L 506.68414306640625 501.8399963378906" stroke-width="2.0" fill="rgb(6, 28, 42)" opacity="0.63805234"/>
    <path d="M 318.9967956542969 458.9479675292969 C 295.9248352050781 463.5076599121094 317.5218200683594 448.18115234375 303.9085693359375 354.67425537109375 C 295.51483154296875 436.7771911621094 313.8193054199219 402.249755859375 275.8028564453125 412.2788391113281 C 272.6787109375 308.42864990234375 288.10418701171875 419.91815185546875 286.2906188964844 344.218017578125 C 328.25634765625 346.9253234863281 317.797119140625 333.0543212890625 319.2168884277344 353.1689453125 L 318.9967956542969 458.9479675292969" stroke-width="2.0" fill="rgb(76, 25, 0)" opacity="0.33718735"/>
    <path d="M 328.064208984375 356.33935546875 C 330.2452697753906 373.89117431640625 336.9185485839844 366.4822998046875 324.6129150390625 373.5503845214844 C 324.75360107421875 368.8001708984375 322.48150634765625 374.8847351074219 324.30718994140625 370.56304931640625 C 329.6874084472656 364.4488830566406 330.1669616699219 380.4851379394531 327.1796569824219 333.716552734375 C 333.8824157714844 330.45947265625 329.646240234375 325.002685546875 330.4251708984375 367.4989013671875 L 328.064208984375 356.33935546875" stroke-width="2.0" fill="rgb(22, 26, 35)" opacity="0.92004234"/>
    <path d="M 410.7174072265625 221.30494689941406 C 423.5293273925781 195.4050750732422 412.8064270019531 193.28395080566406 418.1206359863281 189.07489013671875 C 414.8175048828125 194.63693237304688 413.48583984375 199.88320922851562 409.043212890625 208.08042907714844 C 413.2017822265625 133.7805633544922 397.58697509765625 146.72471618652344 420.85528564453125 145.4556121826172 C 419.4801940917969 161.3661651611328 424.61944580078125 156.4014129638672 408.85791015625 156.727294921875 L 410.7174072265625 221.30494689941406" stroke-width="2.0" fill="rgb(129, 84, 62)" opacity="0.85501605"/>
    <path d="M 182.5861358642578 371.9870910644531 C 179.30807495117188 413.744873046875 188.44180297851562 484.5993347167969 174.34713745117188 434.2578125 C 80.12646484375 495.1927795410156 149.762939453125 319.871826171875 122.51151275634766 457.3617248535156 C 84.66859436035156 236.71226501464844 146.16354370117188 449.3267517089844 137.6885986328125 343.9725341796875 C 199.17755126953125 347.5048522949219 195.3682403564453 412.5460205078125 166.41053771972656 246.2636260986328 L 182.5861358642578 371.9870910644531" stroke-width="2.0" fill="rgb(25, 3, 0)" opacity="0.36583254"/>
    <path d="M 86.41056060791016 93.19529724121094 C 83.62806701660156 85.74175262451172 88.7021713256836 60.98814010620117 83.30200958251953 90.99646759033203 C 71.05304718017578 77.62320709228516 84.34805297851562 117.18950653076172 44.85821533203125 151.5083465576172 C 60.913265228271484 86.26533508300781 68.4937744140625 61.93375015258789 68.4520034790039 60.34492874145508 C 69.7500991821289 60.08970260620117 89.34330749511719 60.759334564208984 83.49037170410156 60.53546905517578 L 86.41056060791016 93.19529724121094" stroke-width="2.0" fill="rgb(16, 35, 41)" opacity="0.75423026"/>
    <path d="M 162.858642578125 471.019287109375 C 233.4591522216797 465.9603271484375 213.61073303222656 466.0082092285156 133.5780792236328 505.78570556640625 C 118.52254486083984 491.5272216796875 116.70712280273438 489.47705078125 107.78760528564453 484.1075134277344 C 109.881103515625 387.388916015625 106.38542175292969 452.45587158203125 137.28656005859375 472.61505126953125 C 152.7036895751953 432.8981628417969 120.0669937133789 362.4631652832031 183.3889923095703 403.8473205566406 L 162.858642578125 471.019287109375" stroke-width="2.0" fill="rgb(206, 177, 144)" opacity="0.6637848"/>
    <path d="M 98.84944152832031 395.78778076171875 C 87.45490264892578 407.7453308105469 95.72180938720703 408.8207702636719 94.2881088256836 453.80322265625 C 76.0212173461914 449.1514587402344 84.21749114990234 443.59893798828125 82.43417358398438 447.167236328125 C 82.01739501953125 392.6427307128906 82.65689849853516 390.9867858886719 81.56383514404297 391.581787109375 C 104.20662689208984 397.7938537597656 97.97201538085938 396.41729736328125 95.09505462646484 401.62738037109375 L 98.84944152832031 395.78778076171875" stroke-width="2.0" fill="rgb(31, 43, 47)" opacity="0.9699282"/>
    <path d="M 429.1810302734375 441.52825927734375 C 429.33392333984375 450.30657958984375 433.6439208984375 449.0960693359375 418.79229736328125 448.6843566894531 C 427.0462341308594 444.0055236816406 398.9018859863281 455.4362487792969 405.7556457519531 443.27813720703125 C 406.1500549316406 387.3568115234375 403.4393005371094 405.41217041015625 412.88372802734375 398.40509033203125 C 414.85498046875 542.4268798828125 422.2828369140625 351.2213439941406 429.23974609375 400.7713317871094 L 429.1810302734375 441.52825927734375" stroke-width="2.0" fill="rgb(56, 31, 20)" opacity="0.54999286"/>
    <path d="M 311.00628662109375 60.87875747680664 C 295.6447448730469 72.61824035644531 291.68115234375 84.45264434814453 287.4819641113281 95.14994812011719 C 225.4911346435547 83.89998626708984 309.2077331542969 107.6512451171875 246.16351318359375 119.3360824584961 C 239.6355743408203 84.7920150756836 252.5709991455078 70.4248046875 259.7186279296875 30.93952751159668 C 257.2181396484375 53.37642288208008 291.01397705078125 50.696903228759766 310.6379699707031 49.962669372558594 L 311.00628662109375 60.87875747680664" stroke-width="2.0" fill="rgb(136, 148, 139)" opacity="0.39445344"/>
    <path d="M 282.7953796386719 194.44125366210938 C 269.62890625 183.4588165283203 271.1417541503906 193.2931671142578 271.86798095703125 168.00100708007812 C 281.31622314453125 173.36148071289062 282.0777893066406 161.29571533203125 282.1292724609375 180.54122924804688 C 272.8631896972656 179.584716796875 270.64178466796875 180.4984130859375 271.167724609375 165.57521057128906 C 282.2097473144531 189.89927673339844 253.86680603027344 108.11908721923828 283.0608825683594 117.31504821777344 L 282.7953796386719 194.44125366210938" stroke-width="2.0" fill="rgb(0, 19, 30)" opacity="0.7077416"/>
    <path d="M 187.60784912109375 226.02040100097656 C 184.42523193359375 224.9263153076172 187.74400329589844 227.1602325439453 187.14520263671875 224.04327392578125 C 182.53858947753906 227.7972412109375 183.2587890625 225.5653076171875 184.05972290039062 223.55421447753906 C 183.14736938476562 224.3867645263672 181.99969482421875 223.0666046142578 176.8961181640625 226.2612762451172 C 179.05506896972656 229.73727416992188 178.8041229248047 228.77035522460938 178.2103271484375 230.1947784423828 L 187.60784912109375 226.02040100097656" stroke-width="2.0" fill="rgb(238, 63, 57)" opacity="0.025057742"/>
    <path d="M 484.22857666015625 317.97216796875 C 499.6637268066406 338.8775634765625 475.714599609375 344.6777038574219 476.343994140625 335.23126220703125 C 480.89892578125 332.79852294921875 451.53179931640625 355.1269226074219 457.1354064941406 342.77166748046875 C 466.9869689941406 334.8100280761719 464.3492431640625 353.6819763183594 462.91888427734375 279.81646728515625 C 517.9304809570312 292.78887939453125 481.1658935546875 304.0337829589844 490.6973571777344 298.3405456542969 L 484.22857666015625 317.97216796875" stroke-width="2.0" fill="rgb(0, 14, 23)" opacity="0.7929289"/>
    <path d="M 281.3743591308594 136.6202850341797 C 280.2585754394531 155.036865234375 277.74578857421875 153.00927734375 280.64886474609375 131.66378784179688 C 280.90032958984375 178.67303466796875 296.997802734375 173.94448852539062 252.3387451171875 139.1771240234375 C 223.98057556152344 67.90899658203125 291.2059631347656 195.99996948242188 269.05963134765625 117.88623809814453 C 296.390869140625 111.54460144042969 270.646240234375 159.16798400878906 282.676513671875 159.11163330078125 L 281.3743591308594 136.6202850341797" stroke-width="2.0" fill="rgb(48, 57, 57)" opacity="1.0"/>
    <path d="M 506.8274841308594 314.6917419433594 C 496.5505676269531 315.6096496582031 488.9927062988281 309.89263916015625 503.7247314453125 323.12139892578125 C 498.27685546875 304.23944091796875 475.66339111328125 313.0296936035156 475.51153564453125 317.26409912109375 C 471.1672668457031 284.64801025390625 474.8699645996094 269.86090087890625 487.9736328125 286.4676818847656 C 503.6086120605469 300.0563049316406 500.980712890625 278.87261962890625 505.7528076171875 251.5373077392578 L 506.8274841308594 314.6917419433594" stroke-width="2.0" fill="rgb(123, 94, 64)" opacity="0.50000775"/>
    <path d="M 72.83221435546875 224.47927856445312 C 84.47356414794922 230.88409423828125 59.56748962402344 217.99917602539062 64.05618286132812 209.2891387939453 C 56.62331008911133 209.49574279785156 47.673221588134766 209.9340057373047 63.865966796875 209.29515075683594 C 64.21305084228516 143.5019073486328 66.34153747558594 159.4274444580078 63.91494369506836 163.58016967773438 C 66.4914779663086 155.04736328125 63.49867248535156 153.9694061279297 72.27403259277344 164.48541259765625 L 72.83221435546875 224.47927856445312" stroke-width="2.0" fill="rgb(84, 88, 83)" opacity="0.8906868"/>
    <path d="M 413.545654296875 378.53839111328125 C 407.39117431640625 385.3955078125 389.8776550292969 386.0822448730469 378.4895935058594 387.4153137207031 C 385.4743957519531 305.3513488769531 382.36114501953125 380.56805419921875 382.54449462890625 477.4580078125 C 342.7743225097656 344.0908203125 387.2940979003906 341.51812744140625 378.214599609375 387.2443542480469 C 417.8717041015625 384.86273193359375 413.1075134277344 377.4720458984375 417.7161560058594 372.145263671875 L 413.545654296875 378.53839111328125" stroke-width="2.0" fill="rgb(47, 57, 52)" opacity="0.42108193"/>
    <path d="M 370.0463562011719 7.354809761047363 C 365.7487487792969 7.054774284362793 366.3582458496094 12.356208801269531 368.1888427734375 23.848207473754883 C 314.562744140625 18.754152297973633 324.00347900390625 29.684885025024414 330.6269836425781 7.580729961395264 C 296.66534423828125 5.441037178039551 287.9706726074219 12.24654483795166 312.5188903808594 6.3604254722595215 C 339.4681701660156 5.827826499938965 364.3822021484375 6.678134918212891 409.8797302246094 7.210543632507324 L 370.0463562011719 7.354809761047363" stroke-width="2.0" fill="rgb(118, 131, 124)" opacity="0.3898564"/>
    <path d="M 65.38671112060547 492.79156494140625 C 41.641788482666016 498.57073974609375 5.3379926681518555 496.7582702636719 2.4447927474975586 494.6544494628906 C 27.312211990356445 489.4610290527344 13.506489753723145 490.5461730957031 8.346953392028809 500.97564697265625 C 4.236390590667725 461.69232177734375 7.341640949249268 468.8832092285156 21.41345977783203 455.046875 C 0.17848099768161774 469.1553955078125 2.576439619064331 477.6171569824219 66.2634048461914 493.3940734863281 L 65.38671112060547 492.79156494140625" stroke-width="2.0" fill="rgb(0, 58, 96)" opacity="0.4709702"/>
    <path d="M 320.75677490234375 318.4000244140625 C 314.2623596191406 337.5852966308594 321.1255798339844 294.69482421875 318.2854919433594 361.479248046875 C 305.365478515625 368.91619873046875 298.2412414550781 336.8531188964844 287.2701110839844 314.5599060058594 C 269.1761779785156 174.35186767578125 245.63070678710938 253.6045684814453 253.70150756835938 202.51348876953125 C 335.6714782714844 405.43731689453125 304.80743408203125 309.22216796875 350.83587646484375 167.59506225585938 L 320.75677490234375 318.4000244140625" stroke-width="2.0" fill="rgb(60, 70, 68)" opacity="1.0"/>
    <path d="M 221.8337860107422 402.5671691894531 C 218.54885864257812 401.5102233886719 223.0478057861328 396.37860107421875 221.427734375 414.2904357910156 C 184.93472290039062 410.9901123046875 246.53915405273438 405.60711669921875 209.46786499023438 406.7002868652344 C 208.47882080078125 374.2193603515625 210.5708770751953 357.3863830566406 208.46429443359375 358.7152404785156 C 221.01693725585938 357.96466064453125 219.56227111816406 358.8950500488281 221.67657470703125 357.9501647949219 L 221.8337860107422 402.5671691894531" stroke-width="2.0" fill="rgb(179, 144, 111)" opacity="0.68246657"/>
    <path d="M 499.7320556640625 356.52294921875 C 401.6908874511719 398.2948913574219 466.74114990234375 333.13165283203125 495.2132263183594 333.6793212890625 C 471.2833251953125 305.0251159667969 466.3970031738281 399.1959533691406 467.8352355957031 286.30682373046875 C 469.9010314941406 269.949951171875 434.8753967285156 336.3610534667969 452.693603515625 219.72813415527344 C 516.8079223632812 229.70042419433594 467.9882507324219 205.31768798828125 501.18585205078125 75.50196838378906 L 499.7320556640625 356.52294921875" stroke-width="2.0" fill="rgb(217, 186, 149)" opacity="0.9996045"/>
    <path d="M 339.5045166015625 470.7923278808594 C 311.228271484375 470.4894104003906 315.20147705078125 464.3759765625 330.1300354003906 469.1062927246094 C 313.0823669433594 466.6329040527344 327.79351806640625 463.6127014160156 319.6344299316406 467.5538330078125 C 315.1929626464844 452.6635437011719 355.13751220703125 465.4927978515625 120.60071563720703 457.3108215332031 C 426.6199951171875 458.52801513671875 242.65365600585938 454.89599609375 342.041015625 453.5718994140625 L 339.5045166015625 470.7923278808594" stroke-width="2.0" fill="rgb(0, 20, 36)" opacity="0.4823464"/>
    <path d="M 43.78292465209961 486.693603515625 C 94.29998779296875 511.2169189453125 68.24707794189453 441.0892639160156 133.18548583984375 505.82830810546875 C 10.966597557067871 506.4017639160156 -6.10878324508667 505.5975341796875 6.589401721954346 506.9198913574219 C 6.156081676483154 417.1148681640625 8.432891845703125 405.1094055175781 3.945124387741089 398.4449157714844 C 11.145204544067383 431.21490478515625 27.35134506225586 403.58551025390625 43.46317672729492 396.7419738769531 L 43.78292465209961 486.693603515625" stroke-width="2.0" fill="rgb(140, 106, 74)" opacity="0.34519964"/>
    <path d="M 311.49383544921875 389.4742126464844 C 302.8252868652344 384.6262512207031 314.99993896484375 368.41064453125 301.434814453125 326.1379699707031 C 264.5968017578125 414.3838195800781 268.2061462402344 421.3551330566406 270.7034912109375 351.337890625 C 269.6053466796875 326.1934814453125 269.8698425292969 330.1828918457031 270.0960388183594 244.2523956298828 C 318.1763000488281 253.80992126464844 294.5627746582031 269.0545654296875 296.0375671386719 270.7200927734375 L 311.49383544921875 389.4742126464844" stroke-width="2.0" fill="rgb(105, 35, 0)" opacity="0.25288433"/>
    <path d="M 64.54380798339844 466.97705078125 C 35.45939636230469 472.4733581542969 46.294857025146484 454.94085693359375 43.617218017578125 495.3013000488281 C -4.45565938949585 494.6063232421875 10.280449867248535 507.2850341796875 6.9120941162109375 467.1385192871094 C 96.02383422851562 468.2137451171875 70.93582153320312 463.7996520996094 59.00267791748047 468.10272216796875 C 36.816795349121094 468.8435974121094 46.19630813598633 466.15240478515625 58.435752868652344 467.43121337890625 L 64.54380798339844 466.97705078125" stroke-width="2.0" fill="rgb(0, 49, 71)" opacity="0.9965618"/>
    <path d="M 262.9238586425781 200.3948974609375 C 262.4766540527344 202.00694274902344 262.6093444824219 202.21385192871094 262.1637268066406 203.55145263671875 C 262.74041748046875 201.60633850097656 262.6234436035156 201.24407958984375 262.65069580078125 201.5808563232422 C 262.7447814941406 201.44700622558594 262.54827880859375 201.56138610839844 262.6077575683594 201.7634735107422 C 262.128173828125 203.88485717773438 262.9006652832031 200.74993896484375 262.1705627441406 203.502685546875 L 262.9238586425781 200.3948974609375" stroke-width="2.0" fill="rgb(135, 196, 255)" opacity="0.29028612"/>
    <path d="M 339.9529724121094 187.53260803222656 C 338.24407958984375 190.21380615234375 348.3542175292969 167.92007446289062 326.752197265625 260.1331481933594 C 249.79238891601562 227.27590942382812 279.95452880859375 235.13113403320312 242.991455078125 126.51844787597656 C 274.55133056640625 151.4369659423828 274.56787109375 193.8158721923828 281.1670837402344 175.1929168701172 C 407.5686950683594 175.1630859375 410.502197265625 142.13055419921875 410.29656982421875 187.21630859375 L 339.9529724121094 187.53260803222656" stroke-width="2.0" fill="rgb(239, 230, 206)" opacity="0.9960979"/>
    <path d="M 59.661468505859375 485.9152526855469 C 28.405214309692383 492.9900207519531 55.72087478637695 493.7685852050781 37.65284729003906 495.91778564453125 C -3.7521469593048096 496.4268798828125 19.26671028137207 496.9145202636719 6.617118835449219 497.7245178222656 C 7.795511722564697 444.8555908203125 5.811905384063721 472.3872375488281 15.788312911987305 457.0239562988281 C 51.42479705810547 427.5981750488281 41.15467834472656 405.47222900390625 44.20767593383789 490.3363342285156 L 59.661468505859375 485.9152526855469" stroke-width="2.0" fill="rgb(71, 25, 0)" opacity="0.38330773"/>
    <path d="M 324.547607421875 50.60115432739258 C 320.7994689941406 62.992149353027344 322.37255859375 73.02409362792969 306.80657958984375 68.9429702758789 C 288.81439208984375 64.56355285644531 289.8177795410156 67.71286010742188 299.7929382324219 74.78617858886719 C 306.24395751953125 56.808074951171875 308.6765441894531 51.93497085571289 310.415771484375 55.61390686035156 C 333.55517578125 49.8796501159668 336.21099853515625 39.338443756103516 330.9159851074219 34.422271728515625 L 324.547607421875 50.60115432739258" stroke-width="2.0" fill="rgb(167, 182, 130)" opacity="0.0047216425"/>
    <path d="M 178.4046173095703 449.41766357421875 C 154.8701171875 450.21685791015625 162.8173065185547 443.3691711425781 171.22145080566406 471.03399658203125 C 116.2203598022461 447.0420837402344 146.6543426513672 470.2342834472656 107.64347076416016 478.42144775390625 C 108.35198974609375 361.4748229980469 111.38565826416016 243.15707397460938 113.49411010742188 371.2967224121094 C 105.1767578125 426.1873474121094 147.1669158935547 389.51776123046875 180.7228240966797 415.4637451171875 L 178.4046173095703 449.41766357421875" stroke-width="2.0" fill="rgb(0, 1, 7)" opacity="0.3254687"/>
    <path d="M 14.360745429992676 266.1619567871094 C 13.273553848266602 379.78509521484375 20.94601821899414 264.4839782714844 20.071062088012695 354.1153869628906 C 3.535221815109253 366.03826904296875 8.098670959472656 337.970703125 6.618109226226807 306.2691955566406 C 7.701038837432861 303.52301025390625 6.9595818519592285 260.0598449707031 6.698418617248535 260.21478271484375 C 15.297962188720703 267.7963562011719 9.692660331726074 264.6454772949219 39.336387634277344 273.2660827636719 L 14.360745429992676 266.1619567871094" stroke-width="2.0" fill="rgb(46, 9, 3)" opacity="0.43017903"/>
    <path d="M 463.6608581542969 493.427978515625 C 414.2110595703125 485.2448425292969 403.26025390625 482.49786376953125 395.5025634765625 480.31988525390625 C 424.2564697265625 485.02734375 392.51458740234375 477.2526550292969 364.5519104003906 477.1865539550781 C 365.87872314453125 442.8469543457031 363.0406188964844 394.5696105957031 387.2964782714844 474.7440185546875 C 400.37603759765625 286.91815185546875 398.6941833496094 510.2828369140625 398.1287841796875 462.7989501953125 L 463.6608581542969 493.427978515625" stroke-width="2.0" fill="rgb(11, 10, 10)" opacity="0.71877706"/>
    <path d="M 285.1131896972656 166.5588836669922 C 282.2300720214844 157.81375122070312 282.9884338378906 160.17703247070312 282.9897155761719 282.01220703125 C 260.6197204589844 226.6652069091797 272.6493835449219 260.5650634765625 270.0919494628906 168.6763153076172 C 281.7564697265625 164.40603637695312 253.88665771484375 144.29808044433594 240.23501586914062 116.64070129394531 C 270.7059631347656 146.81967163085938 290.21136474609375 183.3280487060547 281.6881408691406 156.9266357421875 L 285.1131896972656 166.5588836669922" stroke-width="2.0" fill="rgb(191, 163, 134)" opacity="0.9984025"/>
    <path d="M 273.8554992675781 155.85720825195312 C 229.85086059570312 104.72757720947266 255.06944274902344 125.83914184570312 240.62921142578125 134.26112365722656 C 214.63189697265625 166.72836303710938 231.86985778808594 156.84457397460938 221.4785919189453 134.6992950439453 C 204.0418243408203 94.59580993652344 226.68453979492188 136.02867126464844 220.66964721679688 102.10054016113281 C 254.95309448242188 72.7907485961914 237.3643035888672 71.51707458496094 269.4356384277344 100.24004364013672 L 273.8554992675781 155.85720825195312" stroke-width="2.0" fill="rgb(0, 20, 29)" opacity="0.3649133"/>
    <path d="M 64.13617706298828 78.05419158935547 C 52.09880065917969 114.3832015991211 68.08861541748047 100.98233032226562 26.480825424194336 109.2031478881836 C -0.5585122108459473 118.85065460205078 19.031057357788086 123.14997863769531 7.01480770111084 133.6390380859375 C 7.292102336883545 37.530479431152344 6.488168716430664 63.21442413330078 7.980226516723633 60.00009536743164 C 4.379680156707764 61.0698127746582 14.967398643493652 59.8007698059082 69.39706420898438 60.6988525390625 L 64.13617706298828 78.05419158935547" stroke-width="2.0" fill="rgb(130, 66, 17)" opacity="0.52713615"/>
    <path d="M 84.73131561279297 331.1087646484375 C 77.65492248535156 364.79656982421875 77.47161102294922 255.96824645996094 86.98493194580078 351.7455139160156 C 66.47490692138672 339.5585021972656 78.70137023925781 346.77862548828125 75.97843170166016 336.3663635253906 C 75.9023666381836 299.7503356933594 75.80514526367188 305.4508056640625 77.58023834228516 280.943603515625 C 101.3812026977539 296.413818359375 67.83409118652344 278.958251953125 82.44147491455078 315.0950927734375 L 84.73131561279297 331.1087646484375" stroke-width="2.0" fill="rgb(0, 5, 17)" opacity="0.4568267"/>
    <path d="M 397.3110046386719 365.0849304199219 C 377.434814453125 350.3235778808594 382.82550048828125 357.83355712890625 382.89703369140625 455.5957946777344 C 386.34027099609375 457.1966857910156 360.2885437011719 455.2281494140625 364.6357727050781 457.1434326171875 C 366.5513916015625 290.677734375 360.90643310546875 341.636962890625 382.1121520996094 298.8827209472656 C 385.4368591308594 373.98150634765625 374.7415466308594 362.6877746582031 397.14251708984375 355.379150390625 L 397.3110046386719 365.0849304199219" stroke-width="2.0" fill="rgb(119, 124, 118)" opacity="0.8680038"/>
    <path d="M 325.9422302246094 293.7669982910156 C 327.3360595703125 300.1213073730469 313.64263916015625 317.8757629394531 318.9937438964844 360.1792297363281 C 294.71441650390625 374.62030029296875 310.03704833984375 324.4488220214844 282.2375793457031 315.1709899902344 C 282.6618347167969 223.26968383789062 279.61041259765625 252.38177490234375 288.3389892578125 247.22439575195312 C 361.2889099121094 246.25900268554688 314.90875244140625 258.1606750488281 345.5002136230469 199.999267578125 L 325.9422302246094 293.7669982910156" stroke-width="2.0" fill="rgb(24, 46, 56)" opacity="0.58937526"/>
    <path d="M 56.13472366333008 261.3495178222656 C 85.58654022216797 292.74395751953125 52.19659423828125 234.9853973388672 62.6769905090332 338.5678405761719 C 51.94619369506836 329.2859191894531 57.47916030883789 343.3774108886719 56.6142578125 318.0130310058594 C 56.4665412902832 247.78134155273438 56.82761001586914 261.03094482421875 56.352909088134766 265.1190490722656 C 57.647361755371094 254.1151885986328 55.64739990234375 266.52496337890625 56.630313873291016 258.0594177246094 L 56.13472366333008 261.3495178222656" stroke-width="2.0" fill="rgb(17, 32, 39)" opacity="0.91985595"/>
    <path d="M 69.74417114257812 59.507957458496094 C 68.13199615478516 63.457847595214844 66.8208999633789 69.02688598632812 54.681217193603516 118.5316390991211 C 51.54315185546875 116.69790649414062 32.67983627319336 102.96530151367188 55.99317169189453 106.2195816040039 C 65.2701187133789 62.836063385009766 72.93692779541016 56.83304214477539 52.947200775146484 60.99604797363281 C 74.48904418945312 59.58194351196289 90.71713256835938 57.049072265625 85.3241958618164 58.09706497192383 L 69.74417114257812 59.507957458496094" stroke-width="2.0" fill="rgb(184, 137, 100)" opacity="0.41068313"/>
    <path d="M 222.86627197265625 157.29745483398438 C 169.6115264892578 115.34575653076172 157.8256072998047 139.9919891357422 181.2489776611328 140.08839416503906 C 143.8772430419922 138.44212341308594 148.8105010986328 140.6683349609375 197.08583068847656 128.60137939453125 C 106.6208724975586 154.2881317138672 10.771539688110352 75.02143096923828 29.248830795288086 257.213623046875 C 194.46224975585938 424.3177185058594 61.43950271606445 137.8091583251953 113.49958801269531 178.09817504882812 L 222.86627197265625 157.29745483398438" stroke-width="2.0" fill="rgb(86, 51, 0)" opacity="0.05569"/>
    <path d="M 134.8271026611328 203.1340789794922 C 133.75299072265625 194.8094940185547 162.4920654296875 403.2248840332031 140.3028106689453 282.91534423828125 C 123.77247619628906 157.1776885986328 135.6942901611328 246.45074462890625 94.48973846435547 189.83790588378906 C 67.86444854736328 191.60842895507812 109.74867248535156 187.2733917236328 173.93319702148438 190.8975067138672 C 131.27125549316406 189.749267578125 129.78903198242188 189.55020141601562 138.09085083007812 186.25747680664062 L 134.8271026611328 203.1340789794922" stroke-width="2.0" fill="rgb(0, 6, 18)" opacity="0.544647"/>
    <path d="M 522.7420043945312 6.591902732849121 C 181.1521759033203 -169.1868133544922 3.101339340209961 -24.09483528137207 -13.627455711364746 10.775474548339844 C -15.137554168701172 18.33085060119629 -16.77827262878418 5.412331581115723 6.12137508392334 6.565364360809326 C 7.913120746612549 4.841457843780518 5.032047748565674 26.431827545166016 6.810253620147705 527.3095092773438 C -234.47891235351562 154.5617218017578 -19.898818969726562 27.4674072265625 -9.385695457458496 6.481814861297607 L 522.7420043945312 6.591902732849121" stroke-width="2.0" fill="rgb(250, 249, 250)" opacity="0.9871197"/>
    <path d="M 329.3213195800781 342.87347412109375 C 332.52545166015625 332.3041076660156 326.3344421386719 344.3563232421875 331.18377685546875 333.8192138671875 C 330.2569885253906 383.93328857421875 332.9130859375 362.1397705078125 326.67620849609375 370.5194396972656 C 327.8752746582031 322.75518798828125 324.4336853027344 337.1867370605469 330.4400329589844 330.6318664550781 C 325.9304504394531 341.989013671875 331.0182189941406 342.8414001464844 328.05584716796875 336.70587158203125 L 329.3213195800781 342.87347412109375" stroke-width="2.0" fill="rgb(43, 60, 66)" opacity="0.6465347"/>
    <path d="M 244.3814239501953 503.0399169921875 C 268.8017578125 506.823486328125 251.2840576171875 506.2122802734375 233.97909545898438 506.0599670410156 C 206.04428100585938 505.9584045410156 210.8455352783203 507.016845703125 179.13768005371094 487.8287353515625 C 195.376708984375 466.7770080566406 209.013427734375 470.90728759765625 223.46226501464844 461.0057067871094 C 120.34534454345703 460.81512451171875 107.18045043945312 453.1623840332031 244.47103881835938 458.6312255859375 L 244.3814239501953 503.0399169921875" stroke-width="2.0" fill="rgb(0, 24, 40)" opacity="0.33793914"/>
    <path d="M 222.00851440429688 179.1961669921875 C 195.89126586914062 130.0972137451172 222.0369873046875 117.54784393310547 207.7296600341797 133.7647247314453 C 162.06283569335938 133.1307830810547 153.82290649414062 134.27670288085938 98.59933471679688 133.5196990966797 C 139.508544921875 107.63375854492188 138.33236694335938 90.02223205566406 147.67938232421875 56.437374114990234 C 183.79066467285156 62.1255989074707 193.13827514648438 62.507442474365234 221.83770751953125 84.85275268554688 L 222.00851440429688 179.1961669921875" stroke-width="2.0" fill="rgb(0, 46, 59)" opacity="0.16328315"/>
    <path d="M 221.6496124267578 232.1558380126953 C 161.81503295898438 235.9025421142578 304.4021911621094 228.74241638183594 281.8871765136719 236.88328552246094 C 180.09149169921875 239.31761169433594 181.1333465576172 229.7917938232422 207.69500732421875 249.8818359375 C 215.12384033203125 128.3385009765625 191.50994873046875 186.9652862548828 244.06446838378906 118.42793273925781 C 257.24432373046875 124.18421936035156 210.9126434326172 165.39013671875 221.69407653808594 164.02528381347656 L 221.6496124267578 232.1558380126953" stroke-width="2.0" fill="rgb(44, 33, 28)" opacity="0.93352014"/>
    <path d="M 311.9082946777344 233.08334350585938 C 312.98443603515625 233.28018188476562 311.9796142578125 234.25364685058594 312.55224609375 233.3187713623047 C 311.8048400878906 232.77362060546875 310.197265625 232.41397094726562 311.1752014160156 232.7294464111328 C 311.06585693359375 232.6775360107422 310.9320373535156 231.3218536376953 311.4515075683594 232.80369567871094 C 311.0557556152344 231.8023223876953 312.4020080566406 231.923583984375 311.356689453125 233.57601928710938 L 311.9082946777344 233.08334350585938" stroke-width="2.0" fill="rgb(144, 156, 189)" opacity="0.0"/>
    <path d="M 209.51234436035156 284.6312255859375 C 208.47625732421875 278.68768310546875 218.95863342285156 275.472412109375 180.11944580078125 317.3634033203125 C 169.7451629638672 258.5023193359375 185.96839904785156 279.1728820800781 145.40643310546875 274.3833312988281 C 131.70404052734375 179.57632446289062 131.31454467773438 172.7873077392578 135.3483123779297 175.06329345703125 C 222.3293914794922 176.46896362304688 209.93194580078125 172.1101531982422 207.7980194091797 181.01478576660156 L 209.51234436035156 284.6312255859375" stroke-width="2.0" fill="rgb(239, 230, 206)" opacity="1.0"/>
    <path d="M 221.12026977539062 465.4535217285156 C 195.03187561035156 484.71466064453125 179.24562072753906 485.89324951171875 200.66574096679688 477.4219665527344 C 170.84913635253906 489.8636169433594 183.69552612304688 500.0592956542969 181.3416748046875 467.8141174316406 C 161.88037109375 484.7540283203125 144.42657470703125 383.69061279296875 181.44056701660156 426.0477294921875 C 183.58493041992188 510.7849426269531 172.11720275878906 485.6583557128906 216.6704864501953 464.8691101074219 L 221.12026977539062 465.4535217285156" stroke-width="2.0" fill="rgb(54, 15, 0)" opacity="0.36797813"/>
    <path d="M 218.9854736328125 156.1095428466797 C 237.18214416503906 136.9927978515625 220.86773681640625 154.40374755859375 223.5572509765625 153.11338806152344 C 201.99514770507812 163.91412353515625 220.3562774658203 169.07931518554688 209.85638427734375 169.15768432617188 C 202.3950958251953 40.877708435058594 234.82557678222656 189.211181640625 223.69471740722656 143.10496520996094 C 270.75189208984375 84.53350830078125 230.1990203857422 142.63156127929688 241.87478637695312 125.86197662353516 L 218.9854736328125 156.1095428466797" stroke-width="2.0" fill="rgb(10, 33, 41)" opacity="0.60756314"/>
    <path d="M 319.9367370605469 121.71599578857422 C 317.431884765625 114.73981475830078 318.8203125 127.04225158691406 340.66339111328125 134.55462646484375 C 230.5612335205078 130.74610900878906 274.8484191894531 143.78753662109375 246.76129150390625 118.09291076660156 C 244.4347381591797 67.89374542236328 241.3334503173828 78.20680236816406 262.26141357421875 92.05122375488281 C 290.2904357910156 93.05891418457031 297.4532165527344 99.00559997558594 304.1728820800781 104.21063232421875 L 319.9367370605469 121.71599578857422" stroke-width="2.0" fill="rgb(58, 84, 89)" opacity="0.19964658"/>
    <path d="M 255.9084930419922 266.86175537109375 C 255.14161682128906 226.37474060058594 208.95462036132812 275.8553161621094 257.7130432128906 265.0030212402344 C 244.62538146972656 286.8244934082031 223.03060913085938 256.03460693359375 241.0220184326172 259.3236999511719 C 232.39590454101562 269.71356201171875 230.81565856933594 250.87109375 242.5455322265625 248.65081787109375 C 229.44602966308594 252.94654846191406 258.1256103515625 238.18836975097656 258.5498046875 261.95428466796875 L 255.9084930419922 266.86175537109375" stroke-width="2.0" fill="rgb(0, 18, 34)" opacity="0.67416793"/>
    <path d="M 136.00099182128906 98.04827117919922 C 131.9138946533203 93.28929901123047 143.07723999023438 96.16914367675781 115.4487533569336 121.74899291992188 C 94.05752563476562 135.50726318359375 92.09785461425781 147.6529083251953 88.04637145996094 99.83389282226562 C 79.33890533447266 48.34310531616211 83.9856948852539 34.76298522949219 82.94145202636719 45.998931884765625 C 122.67098999023438 48.97205352783203 124.98360443115234 50.52088165283203 153.46295166015625 44.5529670715332 L 136.00099182128906 98.04827117919922" stroke-width="2.0" fill="rgb(169, 175, 163)" opacity="0.630985"/>
    <path d="M 468.1781921386719 229.13206481933594 C 433.6598205566406 259.2011413574219 478.8786315917969 203.6863250732422 423.2801208496094 256.27899169921875 C 421.9247741699219 196.32669067382812 428.5396728515625 235.68206787109375 402.9836730957031 230.8007049560547 C 421.2962646484375 175.3193817138672 416.73046875 190.1025390625 446.35931396484375 186.43154907226562 C 464.1561279296875 326.84259033203125 451.2120056152344 152.0986785888672 468.03338623046875 174.1445770263672 L 468.1781921386719 229.13206481933594" stroke-width="2.0" fill="rgb(0, 0, 6)" opacity="0.51418287"/>
    <path d="M 488.88873291015625 285.7674255371094 C 473.7082824707031 303.4243469238281 501.3931579589844 323.096923828125 477.8603515625 333.441650390625 C 477.1827087402344 322.6744689941406 478.043212890625 310.105712890625 477.6230163574219 279.29840087890625 C 477.70562744140625 273.6440124511719 488.30010986328125 277.14276123046875 475.2621154785156 278.9793701171875 C 488.3807067871094 276.342529296875 485.0338439941406 270.6344909667969 481.46697998046875 276.4257507324219 L 488.88873291015625 285.7674255371094" stroke-width="2.0" fill="rgb(137, 98, 74)" opacity="0.9450846"/>
    <path d="M 506.34893798828125 472.5411376953125 C 502.18792724609375 471.7626647949219 509.0489501953125 474.19439697265625 489.576171875 470.0571594238281 C 482.0116882324219 450.2743225097656 478.2411804199219 464.6620788574219 480.45208740234375 492.88653564453125 C 482.01397705078125 386.46044921875 486.1002502441406 397.6466064453125 471.7059020996094 393.30267333984375 C 508.1773376464844 389.83197021484375 503.5485534667969 385.0665588378906 506.6295471191406 392.4690856933594 L 506.34893798828125 472.5411376953125" stroke-width="2.0" fill="rgb(140, 104, 71)" opacity="0.8295374"/>
    <path d="M 466.0787353515625 474.5517883300781 C 300.9310302734375 430.6889953613281 490.77984619140625 575.07275390625 452.4459533691406 384.70941162109375 C 435.79638671875 461.3204345703125 462.63153076171875 447.73687744140625 436.2920837402344 449.03082275390625 C 437.5601501464844 429.2026672363281 439.0218200683594 474.0238037109375 438.1351013183594 394.2361755371094 C 453.9718933105469 380.80194091796875 467.50885009765625 423.261962890625 469.1220703125 376.7387390136719 L 466.0787353515625 474.5517883300781" stroke-width="2.0" fill="rgb(136, 110, 88)" opacity="1.0"/>
    <path d="M 182.22671508789062 466.6357421875 C 138.20034790039062 483.35595703125 126.14423370361328 460.6409606933594 129.88790893554688 478.2206115722656 C 99.2647933959961 478.0906677246094 110.84233093261719 480.24639892578125 99.88025665283203 466.119873046875 C 111.77372741699219 461.152099609375 107.15044403076172 486.8026428222656 110.21112823486328 372.38677978515625 C 124.10823822021484 484.00933837890625 83.01953887939453 466.1484680175781 181.76596069335938 456.1045837402344 L 182.22671508789062 466.6357421875" stroke-width="2.0" fill="rgb(14, 33, 41)" opacity="0.7745317"/>
    <path d="M 116.97821807861328 158.43484497070312 C 118.89701080322266 154.3720703125 118.23944854736328 153.41207885742188 113.30228424072266 154.8553466796875 C 116.35782623291016 152.3952178955078 95.45503234863281 161.26571655273438 94.94773864746094 138.82728576660156 C 129.7294921875 139.46685791015625 163.29104614257812 132.6924591064453 182.3794708251953 150.55471801757812 C 114.71283721923828 155.9485626220703 116.46993255615234 157.5624237060547 114.06291961669922 160.71730041503906 L 116.97821807861328 158.43484497070312" stroke-width="2.0" fill="rgb(132, 137, 118)" opacity="0.044349894"/>
    <path d="M 499.5503234863281 206.05194091796875 C 499.9549560546875 330.5511169433594 497.6672058105469 349.5265197753906 505.7222595214844 312.34295654296875 C 505.78009033203125 279.2810974121094 507.5865783691406 258.0550231933594 506.3222961425781 244.41944885253906 C 509.43939208984375 231.27992248535156 493.80780029296875 235.82382202148438 502.4918212890625 101.29238891601562 C 510.3645935058594 169.77845764160156 501.4373779296875 229.10731506347656 508.0025634765625 252.6383056640625 L 499.5503234863281 206.05194091796875" stroke-width="2.0" fill="rgb(165, 120, 82)" opacity="0.8622214"/>
    <path d="M 95.67858123779297 304.9993896484375 C 95.17240905761719 315.30950927734375 96.53873443603516 308.0868835449219 96.3778076171875 354.2386169433594 C 89.36859130859375 354.5437927246094 96.53450012207031 348.8322448730469 93.50606536865234 351.6761779785156 C 93.73400115966797 300.84149169921875 91.77533721923828 320.0256652832031 93.22710418701172 293.0196533203125 C 100.2140121459961 299.9940185546875 103.56002044677734 299.254150390625 98.93640899658203 301.638427734375 L 95.67858123779297 304.9993896484375" stroke-width="2.0" fill="rgb(11, 23, 35)" opacity="0.8665847"/>
    <path d="M 247.169921875 82.55070495605469 C 247.07875061035156 81.5591049194336 256.2648620605469 92.76371765136719 261.9258117675781 106.00579071044922 C 253.59571838378906 88.4759292602539 243.72828674316406 73.3831787109375 222.01844787597656 66.15792846679688 C 214.593017578125 64.33528900146484 231.2179718017578 66.3166732788086 244.2232666015625 79.24552154541016 C 245.66639709472656 30.8358097076416 240.2762451171875 37.657371520996094 247.136962890625 36.447601318359375 L 247.169921875 82.55070495605469" stroke-width="2.0" fill="rgb(32, 41, 49)" opacity="1.0"/>
    <path d="M 56.52994918823242 175.69952392578125 C 47.22224044799805 216.47120666503906 56.3813591003418 205.5880889892578 28.294681549072266 208.08998107910156 C 36.606815338134766 181.0105743408203 22.631813049316406 182.9095001220703 10.954362869262695 180.75181579589844 C 5.931764602661133 176.7880096435547 7.199785232543945 122.88512420654297 8.580187797546387 111.68033599853516 C 85.89527893066406 101.01307678222656 75.43028259277344 93.4704360961914 68.81373596191406 126.01780700683594 L 56.52994918823242 175.69952392578125" stroke-width="2.0" fill="rgb(73, 83, 82)" opacity="0.88295853"/>
    <path d="M 230.20887756347656 7.415956974029541 C 213.32501220703125 27.438459396362305 215.3929901123047 17.8887882232666 219.16845703125 21.650970458984375 C 205.8806610107422 14.375115394592285 209.1248321533203 18.388166427612305 190.8375244140625 7.29208517074585 C 185.9171905517578 17.71381187438965 186.33343505859375 16.60397720336914 191.4490966796875 6.624817848205566 C 214.20089721679688 6.9858927726745605 223.9204864501953 6.0909247398376465 243.0762176513672 7.445607662200928 L 230.20887756347656 7.415956974029541" stroke-width="2.0" fill="rgb(135, 143, 133)" opacity="0.46616647"/>
    <path d="M 36.265380859375 59.241554260253906 C 56.631656646728516 63.038230895996094 68.3523941040039 59.31722640991211 70.50646209716797 61.01179504394531 C 8.229236602783203 59.04447937011719 6.657691955566406 61.42308807373047 7.198564052581787 59.78466033935547 C 7.050921440124512 3.5374844074249268 6.749122619628906 7.305480480194092 7.908311367034912 6.515334129333496 C 29.601587295532227 7.250617027282715 34.074073791503906 3.6977133750915527 34.49700164794922 16.30611801147461 L 36.265380859375 59.241554260253906" stroke-width="2.0" fill="rgb(137, 148, 139)" opacity="0.47199336"/>
    <path d="M -4.426751613616943 418.4071044921875 C -2.643017530441284 417.72540283203125 -3.640878200531006 417.62158203125 -4.045295715332031 417.7414245605469 C -0.47562655806541443 422.4193115234375 -1.7628148794174194 422.8458557128906 -2.3598217964172363 421.8923645019531 C -2.360764741897583 420.67138671875 -1.7913410663604736 419.58642578125 -1.9342536926269531 420.98858642578125 C -2.771799325942993 423.1187438964844 -2.795217752456665 424.4275207519531 -5.188168525695801 424.8359375 L -4.426751613616943 418.4071044921875" stroke-width="2.0" fill="rgb(177, 191, 240)" opacity="0.32507288"/>
    <path d="M 43.35646438598633 161.28445434570312 C 45.34085464477539 141.428955078125 53.10333251953125 149.9900360107422 47.50796127319336 147.46311950683594 C 24.441024780273438 221.4347381591797 44.437232971191406 205.04673767089844 7.077377796173096 207.39395141601562 C 6.502845287322998 102.07810974121094 7.308270454406738 110.89955139160156 13.38147258758545 111.12956237792969 C 73.05785369873047 101.3232650756836 65.6848373413086 101.9742202758789 57.78891372680664 103.63390350341797 L 43.35646438598633 161.28445434570312" stroke-width="2.0" fill="rgb(181, 111, 66)" opacity="0.7418563"/>
    <path d="M 417.38861083984375 51.49666976928711 C 416.7485656738281 43.61159896850586 417.7702941894531 48.3119010925293 417.1485595703125 53.911094665527344 C 383.0372314453125 56.38712692260742 367.7420959472656 52.9223518371582 373.27203369140625 52.31019592285156 C 365.8568115234375 11.761860847473145 365.0067138671875 7.912204742431641 368.9253845214844 7.037156581878662 C 432.3916015625 5.641905784606934 436.7216491699219 7.561894416809082 416.9434814453125 7.352210521697998 L 417.38861083984375 51.49666976928711" stroke-width="2.0" fill="rgb(99, 118, 114)" opacity="0.32627296"/>
    <path d="M 241.78651428222656 326.9609375 C 244.0270538330078 325.351318359375 242.69004821777344 326.4099426269531 242.37989807128906 326.5679016113281 C 242.66940307617188 326.2884216308594 242.7755584716797 326.4284973144531 242.56729125976562 326.2313232421875 C 244.88307189941406 329.7539367675781 243.68092346191406 327.9736022949219 242.67860412597656 326.3508605957031 C 243.62229919433594 325.6776123046875 241.62046813964844 327.0172119140625 238.53005981445312 329.5354309082031 L 241.78651428222656 326.9609375" stroke-width="2.0" fill="rgb(72, 194, 224)" opacity="0.0946159"/>
    <path d="M 142.76504516601562 376.5215148925781 C 105.20226287841797 368.9088439941406 115.98363494873047 316.37530517578125 112.91532897949219 392.2010803222656 C 113.26541900634766 453.17864990234375 109.80155181884766 540.9346923828125 110.0560073852539 412.7872619628906 C 107.02989959716797 408.4254455566406 108.85763549804688 396.3114318847656 108.28484344482422 279.5703430175781 C 121.40229797363281 317.9839172363281 135.90740966796875 365.597412109375 142.18374633789062 330.0195617675781 L 142.76504516601562 376.5215148925781" stroke-width="2.0" fill="rgb(0, 10, 24)" opacity="0.516224"/>
    <path d="M 326.630859375 238.9813690185547 C 327.0865173339844 238.58209228515625 327.5433044433594 238.10775756835938 327.78802490234375 238.7389678955078 C 328.43408203125 240.56820678710938 326.68267822265625 239.44139099121094 329.4573974609375 239.5575714111328 C 326.7663269042969 239.66490173339844 328.88543701171875 239.76287841796875 327.9461975097656 239.1490020751953 C 327.5168762207031 237.0019989013672 325.85052490234375 240.14073181152344 324.3913269042969 242.0586395263672 L 326.630859375 238.9813690185547" stroke-width="2.0" fill="rgb(117, 242, 228)" opacity="0.09756134"/>
    <path d="M 42.062660217285156 331.9013671875 C 43.166648864746094 315.69866943359375 44.52184295654297 321.018310546875 43.55917739868164 347.2082214355469 C 3.9326417446136475 360.49951171875 12.241949081420898 359.26953125 7.359757423400879 349.0849609375 C 4.239856243133545 295.5482482910156 16.133079528808594 348.84088134765625 14.159578323364258 307.7848205566406 C 26.583288192749023 335.7530822753906 29.537944793701172 328.0574951171875 41.978424072265625 302.88873291015625 L 42.062660217285156 331.9013671875" stroke-width="2.0" fill="rgb(164, 136, 106)" opacity="0.6359801"/>
    <path d="M 506.5726623535156 138.20701599121094 C 492.5325012207031 136.11558532714844 495.9936828613281 136.39089965820312 499.0747985839844 148.44520568847656 C 476.51922607421875 72.82554626464844 462.9389343261719 33.799678802490234 479.63653564453125 60.40763854980469 C 449.49835205078125 16.48224639892578 463.2685241699219 36.63112258911133 454.2225341796875 24.953594207763672 C 484.4352111816406 61.11537551879883 458.7432556152344 49.812095642089844 506.50958251953125 51.39274597167969 L 506.5726623535156 138.20701599121094" stroke-width="2.0" fill="rgb(27, 38, 41)" opacity="0.9550833"/>
    <path d="M 489.02239990234375 478.7541809082031 C 489.62646484375 506.7126159667969 467.0960693359375 481.433837890625 457.57843017578125 446.0840759277344 C 469.4523620605469 455.6476745605469 455.4964599609375 408.39862060546875 467.8814392089844 416.120361328125 C 456.54779052734375 424.00018310546875 468.6842956542969 405.3761291503906 457.79388427734375 397.7026062011719 C 491.8116760253906 389.38555908203125 487.61444091796875 391.7832336425781 488.03173828125 389.4177551269531 L 489.02239990234375 478.7541809082031" stroke-width="2.0" fill="rgb(0, 0, 2)" opacity="0.59376496"/>
    <path d="M 487.6961364746094 497.38006591796875 C 454.86273193359375 492.7011413574219 436.726806640625 485.58416748046875 480.5527038574219 494.2321472167969 C 447.1375732421875 488.1156311035156 483.4456787109375 501.9542541503906 487.11456298828125 496.6988830566406 C 408.7783508300781 492.8218078613281 375.7986755371094 469.6650390625 450.31768798828125 469.65093994140625 C 450.04547119140625 475.38043212890625 433.50201416015625 497.9526062011719 488.72027587890625 492.51678466796875 L 487.6961364746094 497.38006591796875" stroke-width="2.0" fill="rgb(153, 112, 79)" opacity="0.84972566"/>
    <path d="M 224.47100830078125 222.63653564453125 C 280.3914794921875 215.0689239501953 268.14453125 231.1121063232422 270.4962463378906 233.50291442871094 C 159.05062866210938 235.15875244140625 209.47943115234375 226.0130157470703 208.33108520507812 237.7514190673828 C 206.5145721435547 168.2749481201172 215.27166748046875 169.35008239746094 185.95643615722656 166.36843872070312 C 219.79611206054688 164.16546630859375 182.50375366210938 197.25442504882812 246.75685119628906 121.30912017822266 L 224.47100830078125 222.63653564453125" stroke-width="2.0" fill="rgb(255, 235, 201)" opacity="0.6285398"/>
    <path d="M 424.4688720703125 194.84352111816406 C 389.63250732421875 194.3333740234375 475.3733215332031 173.6380615234375 439.7505187988281 243.22914123535156 C 405.3791809082031 265.6170654296875 440.5892333984375 200.78350830078125 409.1719970703125 201.2779541015625 C 407.6872253417969 169.79660034179688 409.9707946777344 154.96209716796875 407.1021728515625 146.98495483398438 C 411.36285400390625 160.2962188720703 401.7684326171875 154.8229522705078 424.5489196777344 156.61106872558594 L 424.4688720703125 194.84352111816406" stroke-width="2.0" fill="rgb(4, 29, 36)" opacity="0.5500898"/>
    <path d="M 256.3769836425781 506.0835876464844 C 239.0984344482422 505.81390380859375 229.49037170410156 506.4509582519531 243.7024383544922 506.40765380859375 C 209.81541442871094 505.27569580078125 190.03683471679688 506.9142761230469 189.2845001220703 505.6615905761719 C 207.97630310058594 454.1513366699219 225.14283752441406 470.9950256347656 178.8406982421875 467.0103759765625 C 217.92498779296875 488.0101013183594 249.72152709960938 473.9451599121094 242.96437072753906 484.01080322265625 L 256.3769836425781 506.0835876464844" stroke-width="2.0" fill="rgb(107, 111, 103)" opacity="0.22070651"/>
    <path d="M 488.2731018066406 293.8545227050781 C 479.4763488769531 316.3588562011719 491.0249938964844 262.2845764160156 487.5333557128906 333.0625305175781 C 481.5103454589844 338.3500671386719 484.5932922363281 317.30731201171875 483.2794189453125 284.3498229980469 C 483.6495361328125 273.327392578125 470.5382080078125 281.34588623046875 485.408935546875 272.05963134765625 C 485.0263671875 270.9459228515625 482.2953186035156 274.8224182128906 488.0614318847656 270.2566223144531 L 488.2731018066406 293.8545227050781" stroke-width="2.0" fill="rgb(15, 27, 34)" opacity="0.93825835"/>
    <path d="M 450.5585632324219 176.38031005859375 C 442.8479309082031 174.71974182128906 442.6517028808594 185.11277770996094 453.67962646484375 134.7874755859375 C 459.62451171875 110.29930877685547 458.128173828125 112.46328735351562 462.4162292480469 98.82843780517578 C 459.5069274902344 110.75064849853516 460.880126953125 104.36898040771484 454.0064392089844 130.4220733642578 C 474.14697265625 51.29121398925781 471.5869445800781 37.04819107055664 475.2127380371094 66.39315795898438 L 450.5585632324219 176.38031005859375" stroke-width="2.0" fill="rgb(28, 36, 40)" opacity="1.0"/>
    <path d="M 499.1943664550781 473.3221740722656 C 504.978759765625 379.3341064453125 486.01409912109375 296.7740783691406 488.6793212890625 472.51617431640625 C 470.3935852050781 469.62835693359375 477.17364501953125 480.0710754394531 476.1634826660156 438.1484375 C 473.25885009765625 391.7018127441406 483.033935546875 365.5793762207031 468.088134765625 378.5276184082031 C 462.91851806640625 499.8397216796875 488.678466796875 421.7073669433594 397.7052307128906 465.21514892578125 L 499.1943664550781 473.3221740722656" stroke-width="2.0" fill="rgb(247, 213, 173)" opacity="0.687396"/>
    <path d="M 231.80979919433594 294.1299133300781 C 232.45822143554688 293.1652526855469 233.0232391357422 293.2765808105469 232.29598999023438 293.5310363769531 C 233.3659210205078 293.0400390625 232.4071502685547 293.3516540527344 232.11941528320312 293.6863098144531 C 230.67311096191406 295.5110168457031 233.1126708984375 298.4759826660156 237.00543212890625 300.75555419921875 C 230.53932189941406 296.840576171875 231.46971130371094 294.1640319824219 232.24862670898438 293.5410461425781 L 231.80979919433594 294.1299133300781" stroke-width="2.0" fill="rgb(152, 100, 245)" opacity="0.0049556335"/>
    <path d="M 281.1971435546875 164.6676483154297 C 292.2980651855469 174.412841796875 252.79881286621094 155.65274047851562 283.75347900390625 168.65789794921875 C 237.5603790283203 168.40171813964844 232.53004455566406 167.82229614257812 210.9676971435547 168.8434600830078 C 195.40185546875 160.15806579589844 263.70098876953125 169.46878051757812 242.30239868164062 160.1503143310547 C 241.68601989746094 120.13680267333984 263.33868408203125 171.3087921142578 234.47637939453125 164.7681427001953 L 281.1971435546875 164.6676483154297" stroke-width="2.0" fill="rgb(125, 99, 79)" opacity="0.99296874"/>
    <path d="M 156.24288940429688 75.85863494873047 C 124.71866607666016 78.91968536376953 122.53504180908203 70.24048614501953 124.85887908935547 77.09223937988281 C 106.30084228515625 93.9415283203125 118.32389068603516 82.6919174194336 79.9304428100586 57.17938995361328 C 61.494606018066406 31.65536117553711 72.3410415649414 28.98548126220703 83.14826965332031 6.469443321228027 C 142.14971923828125 6.789112091064453 153.92710876464844 5.861441612243652 158.87416076660156 8.886404991149902 L 156.24288940429688 75.85863494873047" stroke-width="2.0" fill="rgb(187, 187, 170)" opacity="1.0"/>
    <path d="M 413.7316589355469 354.0325012207031 C 414.4190368652344 353.1916198730469 412.5439453125 358.7030334472656 413.274658203125 356.37347412109375 C 411.8707580566406 358.1400146484375 417.618896484375 355.1335144042969 404.38262939453125 361.22406005859375 C 402.0016784667969 348.0232849121094 408.62554931640625 377.8409118652344 405.47064208984375 307.7319641113281 C 415.7259216308594 307.0239562988281 412.3846130371094 285.1141052246094 413.236083984375 355.27081298828125 L 413.7316589355469 354.0325012207031" stroke-width="2.0" fill="rgb(97, 82, 70)" opacity="0.91968703"/>
    <path d="M 397.74566650390625 351.35174560546875 C 397.73089599609375 337.1319274902344 397.98016357421875 352.4853210449219 398.0169982910156 363.3698425292969 C 384.7884521484375 371.1807556152344 387.9888610839844 362.23199462890625 393.29254150390625 360.04571533203125 C 386.9695739746094 367.3997802734375 393.4744873046875 309.2673034667969 388.6204833984375 318.7683410644531 C 392.2593078613281 314.9210510253906 401.0089416503906 310.9826354980469 398.16259765625 312.4474182128906 L 397.74566650390625 351.35174560546875" stroke-width="2.0" fill="rgb(85, 69, 59)" opacity="0.8732404"/>
  </g>
</svg>
