<?xml version="1.0" ?>
<svg xmlns="http://www.w3.org/2000/svg" version="1.1" width="508" height="512">
  <defs/>
  <g>
    <path d="M -10.0 -10.0 C -9.0 -10.0 508.0 0.0 509.0 0.0 C 510.0 0.0 508.0 512.0 509.0 512.0 C 509.0 513.0 0.0 512.0 0.0 513.0 C 0.0 512.0 0.0 513.0 -10.0 -10.0 L -10.0 -10.0" stroke-width="2.0" fill="rgb(140, 160, 165)" opacity="0.9990114"/>
    <path d="M 489.69830322265625 225.92794799804688 C 490.6932678222656 225.30397033691406 491.139404296875 225.36663818359375 491.7687683105469 225.39442443847656 C 491.4826354980469 225.32757568359375 491.1203918457031 225.35845947265625 491.9671630859375 225.3904266357422 C 491.2956237792969 225.35121154785156 490.4717712402344 225.32041931152344 489.1295471191406 226.333251953125 C 490.23248291015625 225.64730834960938 489.8879089355469 225.89468383789062 489.2633972167969 226.3927764892578 L 489.69830322265625 225.92794799804688" stroke-width="2.0" fill="rgb(54, 210, 209)" opacity="0.06924907"/>
    <path d="M 399.9106140136719 59.30007553100586 C 410.5422668457031 100.65924072265625 485.6419677734375 88.07298278808594 364.77801513671875 90.50809478759766 C 325.24017333984375 93.22347259521484 438.002685546875 39.288516998291016 512.3088989257812 8.239131927490234 C 349.97845458984375 7.751355171203613 314.6214599609375 7.597409725189209 -28.157215118408203 8.236960411071777 C 163.44740295410156 -89.20328521728516 357.7247619628906 -23.489356994628906 522.7178955078125 2.077420234680176 L 399.9106140136719 59.30007553100586" stroke-width="2.0" fill="rgb(254, 252, 247)" opacity="0.93637925"/>
    <path d="M 179.42965698242188 319.3809814453125 C 178.73291015625 320.72625732421875 177.73159790039062 321.5484619140625 176.33477783203125 321.1339416503906 C 175.1095733642578 321.23382568359375 174.0784912109375 320.5695495605469 174.67138671875 319.69952392578125 C 173.8193359375 318.45074462890625 173.94398498535156 317.2860107421875 174.86402893066406 316.0041198730469 C 176.2119903564453 316.1324462890625 177.42337036132812 316.6989440917969 178.56353759765625 317.6438903808594 L 179.42965698242188 319.3809814453125" stroke-width="2.0" fill="rgb(188, 68, 19)" opacity="0.0"/>
    <path d="M 90.70723724365234 269.520263671875 C 31.002363204956055 300.0752868652344 57.126033782958984 306.7016296386719 86.67658996582031 302.2947692871094 C 103.32556915283203 361.273681640625 -72.39680480957031 229.447998046875 44.362831115722656 398.9508361816406 C -134.1064910888672 414.133056640625 -25.344175338745117 332.8294372558594 -1.2272148132324219 157.89227294921875 C 185.5812530517578 185.13514709472656 102.90206909179688 92.37735748291016 135.56385803222656 310.1550598144531 L 90.70723724365234 269.520263671875" stroke-width="2.0" fill="rgb(253, 241, 226)" opacity="0.87988466"/>
    <path d="M 308.9073486328125 62.27613067626953 C 298.16436767578125 113.33830261230469 315.6187744140625 65.42821502685547 294.2893981933594 92.09368896484375 C 318.0738525390625 86.42439270019531 237.82623291015625 112.64662170410156 260.7887268066406 49.361629486083984 C 280.26922607421875 56.947601318359375 363.5137939453125 -34.3938102722168 -49.59635543823242 -9.374053001403809 C 378.9079895019531 -82.50669860839844 456.3695983886719 14.82960033416748 254.39830017089844 -2.6508593559265137 L 308.9073486328125 62.27613067626953" stroke-width="2.0" fill="rgb(255, 249, 231)" opacity="0.8962463"/>
    <path d="M 279.656494140625 215.5513458251953 C 441.4698791503906 150.33303833007812 381.3258972167969 316.4724426269531 255.1586456298828 280.35308837890625 C 293.9834899902344 230.23077392578125 115.61637115478516 245.0872802734375 153.7505645751953 297.7180480957031 C 154.70677185058594 129.23455810546875 152.76217651367188 169.1551055908203 157.03482055664062 163.37911987304688 C 369.8600158691406 164.49388122558594 222.94017028808594 143.96864318847656 280.015380859375 142.77842712402344 L 279.656494140625 215.5513458251953" stroke-width="2.0" fill="rgb(246, 214, 191)" opacity="0.7381239"/>
    <path d="M 106.19503021240234 258.8396301269531 C 21.720365524291992 306.333740234375 68.77473449707031 300.7406311035156 60.18358612060547 303.3658752441406 C -11.460020065307617 296.463134765625 9.062536239624023 370.11810302734375 5.296579360961914 165.43299865722656 C 11.283761024475098 147.91485595703125 -26.73755645751953 165.82546997070312 97.19575500488281 163.1538543701172 C 108.34077453613281 380.39886474609375 56.0882568359375 159.55419921875 19.785036087036133 258.2708740234375 L 106.19503021240234 258.8396301269531" stroke-width="2.0" fill="rgb(199, 93, 50)" opacity="0.32818046"/>
  </g>
</svg>
