<?xml version="1.0" ?>
<svg xmlns="http://www.w3.org/2000/svg" version="1.1" width="407" height="512">
  <defs/>
  <g>
    <path d="M -0.3941911458969116 0.48422935605049133 L 407.2104187011719 0.10032685101032257 L 406.5457763671875 510.3672180175781 L -0.25412410497665405 511.8127746582031 L -0.3941911458969116 0.48422935605049133" stroke-width="0.0" fill="rgb(244, 240, 226)" opacity="0.7553278" stroke="rgb(0, 0, 0)" stroke-opacity="0.0" stroke-linecap="round" stroke-linejoin="round"/>
    <path d="M -0.671922504901886 0.1356332004070282 L -0.9372886419296265 114.65802001953125 L 33.258644104003906 117.57164764404297 C 31.48588752746582 101.10357666015625 35.960819244384766 85.05818939208984 51.19895935058594 80.06381225585938 C 61.0851936340332 86.23550415039062 67.15959167480469 97.71647644042969 80.27388000488281 101.45401763916016 L 80.3656234741211 118.81932067871094 C 91.81088256835938 121.92335510253906 110.10105895996094 115.373291015625 104.06757354736328 132.6167755126953 L 122.85819244384766 143.80929565429688 C 129.62767028808594 123.7970962524414 157.8092041015625 123.62258911132812 155.52061462402344 109.4863052368164 C 158.6462860107422 107.21221923828125 157.28749084472656 114.4469985961914 157.5913848876953 118.00747680664062 C 171.32855224609375 118.31487274169922 181.96304321289062 128.06008911132812 189.5173797607422 143.62686157226562 C 198.9068603515625 131.4488983154297 196.29135131835938 121.02092742919922 196.36444091796875 112.48545837402344 C 203.21556091308594 104.10762786865234 208.9296417236328 91.38302612304688 212.95762634277344 86.13851928710938 C 219.44094848632812 100.57029724121094 230.8465576171875 113.93714904785156 226.48397827148438 133.1095428466797 C 233.75778198242188 137.8980255126953 231.99017333984375 144.2875213623047 231.82334899902344 154.44058227539062 C 291.53143310546875 135.4178009033203 347.3933410644531 166.11917114257812 407.1721496582031 171.22621154785156 L 408.969970703125 0.14139287173748016 L -0.671922504901886 0.1356332004070282" stroke-width="2.0" fill="rgb(157, 170, 188)" opacity="0.7863267" stroke="rgb(0, 0, 0)" stroke-opacity="0.0" stroke-linecap="round" stroke-linejoin="round"/>
    <path d="M -0.6638948917388916 418.66021728515625 L -0.274844765663147 475.48046875 C 78.21371459960938 460.12554931640625 154.8181610107422 442.8025207519531 229.08177185058594 422.69671630859375 C 234.19415283203125 428.3266296386719 230.515380859375 439.411865234375 228.0841064453125 447.6427001953125 L 184.640625 513.3934936523438 L 356.95831298828125 511.3077087402344 C 321.9132080078125 466.2024230957031 285.6248474121094 425.7932434082031 252.42147827148438 389.087890625 C 248.6568603515625 380.71820068359375 224.80857849121094 373.9444885253906 226.22154235839844 359.3957824707031 C 210.10972595214844 349.56787109375 189.51292419433594 340.95208740234375 192.2775421142578 322.5675964355469 L 147.13697814941406 322.4942321777344 C 148.0321044921875 337.4256286621094 145.25033569335938 349.9845886230469 149.3127899169922 363.0791931152344 C 158.6192626953125 367.4513854980469 171.24749755859375 361.5439147949219 176.0089111328125 366.083984375 C 164.1699676513672 375.3060607910156 152.38951110839844 381.925537109375 137.36477661132812 393.5897521972656 C 153.7556610107422 398.6302795410156 178.5638427734375 391.6027526855469 193.91539001464844 397.483154296875 L 177.4669189453125 409.2265319824219 C 142.2459716796875 421.22222900390625 107.32172393798828 427.2306823730469 72.39717102050781 437.1718444824219 C 63.74140548706055 439.9900207519531 69.90757751464844 426.43560791015625 67.33092498779297 417.93963623046875 L -0.6638948917388916 418.66021728515625" stroke-width="2.0" fill="rgb(115, 122, 136)" opacity="0.96725535" stroke="rgb(0, 0, 0)" stroke-opacity="0.0" stroke-linecap="round" stroke-linejoin="round"/>
    <path d="M 104.9151382446289 268.3941955566406 C 69.6465835571289 274.6932678222656 35.32743453979492 269.3291320800781 -0.47276005148887634 270.9932556152344 L 0.2068851739168167 417.52838134765625 C 32.04634475708008 412.01373291015625 68.70893859863281 432.6194152832031 97.9302978515625 401.8160400390625 C 114.94696044921875 409.8021545410156 128.65809631347656 380.71063232421875 147.69223022460938 370.6162414550781 C 147.15060424804688 350.6575622558594 147.84616088867188 332.2938232421875 146.05645751953125 314.5538635253906 C 138.5640106201172 316.1617431640625 131.4249725341797 321.4143371582031 124.15814971923828 318.2815246582031 C 127.1732177734375 317.77288818359375 131.87136840820312 322.3527526855469 127.86619567871094 322.1619567871094 C 134.9972686767578 325.5348205566406 132.9818572998047 341.8571472167969 127.4530029296875 344.8533935546875 C 129.97853088378906 347.9172668457031 131.8087615966797 348.45025634765625 126.99744415283203 350.0 C 129.0968017578125 357.66644287109375 124.642822265625 365.3260498046875 131.0599365234375 372.9127502441406 C 127.03999328613281 376.3003234863281 125.18907165527344 385.4823303222656 119.3859634399414 380.9189453125 L 119.75955963134766 352.1756286621094 C 112.40440368652344 354.5811767578125 112.8267593383789 347.39031982421875 108.92224884033203 354.49542236328125 L 106.08704376220703 351.9563293457031 C 106.36890411376953 325.0107421875 105.79232788085938 297.9850769042969 104.9151382446289 268.3941955566406" stroke-width="2.0" fill="rgb(249, 241, 224)" opacity="0.6347006" stroke="rgb(0, 0, 0)" stroke-opacity="0.0" stroke-linecap="round" stroke-linejoin="round"/>
    <path d="M 231.75018310546875 422.3217468261719 C 200.92637634277344 429.20953369140625 168.93954467773438 437.8649597167969 137.66458129882812 446.01092529296875 L 0.11981935054063797 475.37261962890625 L 0.00818460900336504 513.0347290039062 L 185.44444274902344 513.2297973632812 C 200.4178924560547 481.94482421875 235.08807373046875 453.7084655761719 231.75018310546875 422.3217468261719" stroke-width="2.0" fill="rgb(197, 182, 165)" opacity="0.920558" stroke="rgb(0, 0, 0)" stroke-opacity="0.0" stroke-linecap="round" stroke-linejoin="round"/>
    <path d="M 245.2532501220703 183.26612854003906 C 263.19171142578125 186.3395538330078 265.2209167480469 198.25840759277344 276.6172790527344 193.46368408203125 C 282.0711669921875 196.13912963867188 281.30438232421875 201.07862854003906 280.0932312011719 208.845703125 L 309.4233093261719 209.18060302734375 C 306.47235107421875 219.9736785888672 312.6667175292969 215.9013214111328 316.6593322753906 216.30026245117188 L 317.6358642578125 245.6916961669922 C 337.8929443359375 248.20632934570312 352.4154968261719 278.1600341796875 372.2492370605469 291.56939697265625 C 378.819580078125 305.2124938964844 374.2472839355469 320.22979736328125 374.5735168457031 337.1578063964844 C 394.3600769042969 339.500244140625 391.4425354003906 333.0276184082031 393.3482360839844 326.572265625 C 396.02716064453125 324.28070068359375 398.4797058105469 334.1168212890625 407.31158447265625 334.670166015625 L 407.6505432128906 176.7137451171875 L 245.2532501220703 183.26612854003906" stroke-width="2.0" fill="rgb(69, 104, 151)" opacity="0.7372145" stroke="rgb(0, 0, 0)" stroke-opacity="0.0" stroke-linecap="round" stroke-linejoin="round"/>
    <path d="M 72.01441192626953 181.87747192382812 C 42.22947311401367 195.8270263671875 40.12358856201172 225.23121643066406 42.323341369628906 246.00486755371094 C 30.175212860107422 248.49880981445312 34.907814025878906 259.688720703125 34.53352355957031 271.52130126953125 L 105.32166290283203 270.2717590332031 C 105.4858627319336 282.64129638671875 105.76806640625 297.4325256347656 106.09071350097656 315.61846923828125 C 115.76250457763672 313.1761474609375 135.0880126953125 320.07708740234375 133.0022430419922 309.5425109863281 C 134.78671264648438 302.8497009277344 135.95152282714844 298.8340148925781 134.74404907226562 292.36090087890625 C 140.5304718017578 287.9981994628906 146.25917053222656 289.8618469238281 152.26487731933594 286.7381286621094 C 152.7357940673828 271.8197937011719 150.8328094482422 257.48272705078125 142.09255981445312 244.33706665039062 C 122.17427062988281 246.6746368408203 140.2281494140625 218.45216369628906 126.53072357177734 211.43910217285156 C 123.86860656738281 185.8343963623047 91.50321197509766 171.38214111328125 72.01441192626953 181.87747192382812" stroke-width="2.0" fill="rgb(155, 162, 175)" opacity="0.8989996" stroke="rgb(0, 0, 0)" stroke-opacity="0.0" stroke-linecap="round" stroke-linejoin="round"/>
    <path d="M -0.9501773715019226 275.80938720703125 L -0.4169286787509918 418.6905517578125 L 67.41865539550781 419.576904296875 C 66.98989868164062 371.3946838378906 67.30001068115234 324.0770263671875 67.27859497070312 275.98028564453125 L -0.9501773715019226 275.80938720703125" stroke-width="2.0" fill="rgb(142, 152, 171)" opacity="0.83158535" stroke="rgb(0, 0, 0)" stroke-opacity="0.0" stroke-linecap="round" stroke-linejoin="round"/>
    <path d="M 257.0677185058594 352.34271240234375 C 252.59176635742188 361.3350524902344 253.2365264892578 369.2189025878906 253.40530395507812 376.5985107421875 C 249.38368225097656 377.0366516113281 256.98785400390625 386.7029113769531 247.72659301757812 387.04248046875 C 256.3443298339844 384.94439697265625 250.20404052734375 395.8400573730469 253.81842041015625 400.48504638671875 C 282.5024719238281 435.1945495605469 313.78631591796875 473.59429931640625 350.053955078125 507.95562744140625 C 355.2223815917969 491.2700500488281 350.652099609375 476.67840576171875 356.262939453125 452.59393310546875 C 367.4908142089844 446.02532958984375 382.6242980957031 455.2823181152344 388.43597412109375 464.0971374511719 C 343.9758605957031 436.0634460449219 299.0821533203125 399.7406311035156 265.4154052734375 362.8814697265625 L 257.0677185058594 352.34271240234375" stroke-width="2.0" fill="rgb(163, 168, 178)" opacity="0.90472335" stroke="rgb(0, 0, 0)" stroke-opacity="0.0" stroke-linecap="round" stroke-linejoin="round"/>
    <path d="M 129.8900146484375 308.3377990722656 C 128.22560119628906 318.3506164550781 139.46670532226562 316.67047119140625 145.3433074951172 312.9010314941406 C 150.34007263183594 314.1097717285156 143.1365203857422 321.24847412109375 149.75213623046875 323.3507995605469 L 192.45533752441406 322.9809265136719 C 187.6202392578125 337.6800537109375 197.1768035888672 342.90777587890625 212.0956268310547 351.94757080078125 C 219.30007934570312 356.8026428222656 228.34141540527344 359.0959167480469 225.84304809570312 368.2193908691406 C 234.95733642578125 373.0400695800781 242.6688995361328 384.9142150878906 249.3931884765625 384.11297607421875 C 252.34144592285156 372.3456726074219 246.6886444091797 360.65582275390625 258.32855224609375 354.1278991699219 C 268.42816162109375 353.9249267578125 277.2144470214844 356.10870361328125 289.0129699707031 369.62579345703125 C 301.0080261230469 352.8843994140625 320.2065124511719 359.41455078125 335.8096618652344 357.0391845703125 C 337.049072265625 337.606201171875 314.4898986816406 341.3690185546875 304.4977722167969 342.4326477050781 C 299.8027038574219 333.89984130859375 304.6017761230469 327.9856872558594 299.8121643066406 325.3164978027344 C 274.7409362792969 335.32965087890625 250.5504913330078 332.0338439941406 226.6989288330078 317.3182067871094 C 214.9246826171875 303.2403869628906 212.86663818359375 285.0699768066406 198.17530822753906 281.98760986328125 C 184.98446655273438 277.94244384765625 173.4663848876953 284.0592346191406 160.2518768310547 286.0992126464844 C 159.67245483398438 293.16888427734375 162.7650146484375 308.1905212402344 152.4488525390625 300.1237487792969 C 154.08477783203125 297.48822021484375 151.9662322998047 288.42791748046875 158.77706909179688 287.1148376464844 L 137.66558837890625 289.9749450683594 C 132.450927734375 293.8691711425781 140.65487670898438 302.8554382324219 129.8900146484375 308.3377990722656" stroke-width="2.0" fill="rgb(165, 170, 179)" opacity="0.9177073" stroke="rgb(0, 0, 0)" stroke-opacity="0.0" stroke-linecap="round" stroke-linejoin="round"/>
    <path d="M 273.27825927734375 262.2596740722656 C 272.82763671875 267.8319091796875 277.5057067871094 264.0868835449219 281.30755615234375 268.34625244140625 C 279.2135314941406 279.0570983886719 276.091064453125 288.3609619140625 291.3602600097656 298.5392761230469 C 300.6712951660156 311.4609069824219 305.83099365234375 324.654052734375 305.9833984375 338.396240234375 C 315.7830810546875 340.97125244140625 336.7760009765625 336.3082580566406 335.8938903808594 355.073974609375 C 348.4662780761719 344.4799499511719 359.6839904785156 340.54058837890625 371.4131164550781 352.4455871582031 C 369.2394714355469 344.4587707519531 370.05438232421875 329.018310546875 382.52471923828125 343.846435546875 C 387.03472900390625 320.93853759765625 386.379150390625 304.86993408203125 372.80352783203125 290.8628234863281 C 353.8951110839844 279.2337951660156 341.1396179199219 254.03231811523438 320.94488525390625 245.32716369628906 C 306.1673278808594 253.3424530029297 291.44671630859375 249.2126007080078 273.27825927734375 262.2596740722656" stroke-width="2.0" fill="rgb(36, 16, 8)" opacity="0.50216866" stroke="rgb(0, 0, 0)" stroke-opacity="0.0" stroke-linecap="round" stroke-linejoin="round"/>
    <path d="M 54.17213821411133 193.83389282226562 C 43.46316146850586 212.36300659179688 40.273231506347656 230.18618774414062 46.58120346069336 249.58811950683594 C 72.26234436035156 250.11856079101562 96.51982879638672 248.99766540527344 121.87488555908203 254.54391479492188 C 124.84272003173828 265.71392822265625 137.7996063232422 258.9316101074219 145.68690490722656 260.5890197753906 C 150.66993713378906 247.96559143066406 142.0369415283203 248.59312438964844 132.63307189941406 244.7431182861328 C 130.016845703125 234.01470947265625 136.3424835205078 218.45034790039062 126.58905792236328 211.87765502929688 C 122.98816680908203 177.0633544921875 79.34373474121094 164.4526824951172 54.17213821411133 193.83389282226562" stroke-width="2.0" fill="rgb(186, 190, 195)" opacity="0.70919466" stroke="rgb(0, 0, 0)" stroke-opacity="0.0" stroke-linecap="round" stroke-linejoin="round"/>
    <path d="M 138.50135803222656 125.9771499633789 C 108.61750030517578 148.69203186035156 116.47593688964844 174.53311157226562 117.45487213134766 203.82284545898438 C 146.0029754638672 189.684326171875 162.00953674316406 182.55593872070312 179.45729064941406 200.26516723632812 C 195.7213897705078 202.6502685546875 195.89939880371094 176.35354614257812 189.96142578125 169.815673828125 C 200.09747314453125 145.21945190429688 169.5182342529297 100.58928680419922 138.50135803222656 125.9771499633789" stroke-width="2.0" fill="rgb(160, 170, 185)" opacity="0.84857005" stroke="rgb(0, 0, 0)" stroke-opacity="0.0" stroke-linecap="round" stroke-linejoin="round"/>
    <path d="M 233.26564025878906 153.95285034179688 L 234.07400512695312 179.4490203857422 C 238.74188232421875 181.68214416503906 243.86585998535156 177.098388671875 248.55276489257812 182.80543518066406 L 407.19683837890625 177.040771484375 C 406.2670593261719 167.65711975097656 385.6834411621094 169.1363525390625 374.9593200683594 166.4540252685547 C 327.28076171875 154.95985412597656 283.69464111328125 140.79432678222656 233.26564025878906 153.95285034179688" stroke-width="2.0" fill="rgb(110, 117, 131)" opacity="1.2432579" stroke="rgb(0, 0, 0)" stroke-opacity="0.0" stroke-linecap="round" stroke-linejoin="round"/>
    <path d="M 212.18356323242188 90.3995361328125 C 195.78952026367188 106.36869049072266 197.27041625976562 117.87507629394531 196.61094665527344 131.8862762451172 C 186.3023223876953 136.56565856933594 192.22335815429688 147.34149169921875 189.55389404296875 155.83287048339844 C 197.9641571044922 169.9883575439453 194.601318359375 184.2571563720703 190.3212890625 205.7282257080078 C 206.95458984375 207.49217224121094 220.356689453125 204.2729949951172 229.814453125 204.79666137695312 C 229.07870483398438 180.29029846191406 230.6678466796875 158.62139892578125 230.74281311035156 136.52650451660156 C 212.68113708496094 130.46498107910156 229.8359375 111.25210571289062 223.4120330810547 98.89139556884766 C 218.94552612304688 97.58877563476562 215.2034454345703 90.79154968261719 212.18356323242188 90.3995361328125" stroke-width="2.0" fill="rgb(144, 153, 163)" opacity="0.6610192" stroke="rgb(0, 0, 0)" stroke-opacity="0.0" stroke-linecap="round" stroke-linejoin="round"/>
    <path d="M -1.980695128440857 114.52598571777344 L -0.27168115973472595 189.05181884765625 C 17.663816452026367 186.6128692626953 37.464359283447266 188.06373596191406 50.209449768066406 192.4578094482422 C 59.7150993347168 188.27549743652344 68.75800323486328 180.4978790283203 78.0819091796875 177.41737365722656 L 77.14851379394531 158.75335693359375 C 62.165679931640625 158.8591766357422 42.38840866088867 153.7276153564453 43.0053596496582 136.28164672851562 C 30.568296432495117 127.73831176757812 7.691804885864258 132.89688110351562 7.835160732269287 116.32182312011719 L -1.980695128440857 114.52598571777344" stroke-width="2.0" fill="rgb(242, 238, 225)" opacity="0.7336656" stroke="rgb(0, 0, 0)" stroke-opacity="0.0" stroke-linecap="round" stroke-linejoin="round"/>
    <path d="M 50.21146774291992 80.75068664550781 C 34.46316146850586 82.45124816894531 26.37289810180664 99.6817398071289 30.599365234375 111.07635498046875 C 26.127552032470703 122.08929443359375 2.947730779647827 107.62073516845703 8.712936401367188 125.81399536132812 C 21.643430709838867 131.4383087158203 48.162723541259766 131.19522094726562 43.61686706542969 147.11534118652344 C 56.43349838256836 155.2985382080078 74.51966857910156 166.8463134765625 69.22520446777344 143.6859893798828 C 72.90043640136719 139.1151885986328 72.79107666015625 132.40602111816406 79.39549255371094 122.33361053466797 C 94.99925994873047 122.11407470703125 105.63365173339844 132.89431762695312 99.7452621459961 119.25101470947266 C 96.7667007446289 119.32823944091797 89.36907958984375 122.16949462890625 75.91864013671875 121.59143829345703 C 72.24016571044922 112.82770538330078 79.4629135131836 99.77571868896484 71.98837280273438 97.59092712402344 C 69.5198974609375 89.9764633178711 60.110015869140625 82.90026092529297 50.21146774291992 80.75068664550781" stroke-width="2.0" fill="rgb(165, 170, 177)" opacity="0.5243058" stroke="rgb(0, 0, 0)" stroke-opacity="0.0" stroke-linecap="round" stroke-linejoin="round"/>
    <path d="M 349.3233947753906 346.93280029296875 C 346.1770324707031 346.16796875 340.44097900390625 350.3429870605469 336.34686279296875 355.68310546875 L 336.772216796875 410.1546936035156 C 351.158203125 424.4537658691406 371.934814453125 440.8766784667969 384.4115905761719 452.5041809082031 C 392.42950439453125 446.40081787109375 393.27099609375 460.955810546875 393.543212890625 448.78466796875 C 382.76287841796875 445.6513977050781 390.6515808105469 430.6610107421875 368.88720703125 419.5133361816406 C 367.947265625 404.203857421875 369.2528076171875 382.1256103515625 368.72760009765625 363.4592590332031 C 364.14739990234375 359.6557922363281 356.3587951660156 349.0271911621094 349.3233947753906 346.93280029296875" stroke-width="2.0" fill="rgb(148, 154, 169)" opacity="0.74117684" stroke="rgb(0, 0, 0)" stroke-opacity="0.0" stroke-linecap="round" stroke-linejoin="round"/>
    <path d="M 195.39085388183594 395.7660217285156 C 174.11146545410156 394.7898864746094 155.99588012695312 394.3355407714844 137.44833374023438 393.772216796875 C 146.9078369140625 383.3786926269531 163.75436401367188 376.8466491699219 176.96104431152344 365.54364013671875 C 168.40200805664062 361.4041442871094 157.7646942138672 367.635009765625 149.52481079101562 359.7267150878906 C 150.25946044921875 374.4197692871094 130.53683471679688 379.8492431640625 123.46179962158203 393.1617431640625 C 126.71949005126953 393.9199523925781 130.34083557128906 393.4325866699219 134.5044403076172 396.43902587890625 C 129.73020935058594 400.7382507324219 124.67938995361328 405.6928405761719 115.4317626953125 407.1688232421875 C 98.6672134399414 402.45977783203125 85.28333282470703 416.09869384765625 68.00337982177734 419.2370300292969 C 66.80802154541016 425.6703796386719 67.72320556640625 431.874267578125 67.10411834716797 438.6478271484375 C 104.07588195800781 428.434814453125 141.0786590576172 421.5270690917969 177.84434509277344 409.3281555175781 C 182.3956298828125 406.7894592285156 189.22946166992188 401.8983154296875 195.39085388183594 395.7660217285156" stroke-width="2.0" fill="rgb(193, 180, 162)" opacity="0.9474308" stroke="rgb(0, 0, 0)" stroke-opacity="0.0" stroke-linecap="round" stroke-linejoin="round"/>
    <path d="M 125.26836395263672 200.6450653076172 C 125.60185241699219 207.56427001953125 125.52862548828125 212.86940002441406 132.74473571777344 216.4351806640625 C 134.0143585205078 223.60385131835938 130.2569580078125 231.70220947265625 133.77992248535156 240.63720703125 C 153.25045776367188 243.63363647460938 172.18267822265625 233.24610900878906 186.45118713378906 248.831298828125 C 190.0522918701172 246.99176025390625 200.64080810546875 250.2748260498047 196.62547302246094 244.83123779296875 C 199.51637268066406 224.3793487548828 202.69920349121094 203.85147094726562 177.53021240234375 194.72340393066406 C 160.1627655029297 179.59315490722656 143.58815002441406 186.61744689941406 125.26836395263672 200.6450653076172" stroke-width="2.0" fill="rgb(85, 93, 109)" opacity="0.4368171" stroke="rgb(0, 0, 0)" stroke-opacity="0.0" stroke-linecap="round" stroke-linejoin="round"/>
    <path d="M 350.917236328125 462.9823303222656 L 350.6413879394531 512.9969482421875 L 408.2818298339844 513.0984497070312 L 406.41864013671875 465.7742004394531 C 388.65283203125 463.60003662109375 371.32940673828125 464.8711853027344 350.917236328125 462.9823303222656" stroke-width="2.0" fill="rgb(125, 139, 157)" opacity="1.1172416" stroke="rgb(0, 0, 0)" stroke-opacity="0.0" stroke-linecap="round" stroke-linejoin="round"/>
    <path d="M 126.2132568359375 208.8466796875 C 116.946044921875 174.2275848388672 75.10556030273438 165.97000122070312 52.255592346191406 197.3975067138672 C 49.94218444824219 202.91326904296875 46.54658508300781 208.41976928710938 45.58235168457031 215.19369506835938 L 127.82991027832031 215.4160919189453 L 126.2132568359375 208.8466796875" stroke-width="2.0" fill="rgb(64, 111, 154)" opacity="0.9523354" stroke="rgb(0, 0, 0)" stroke-opacity="0.0" stroke-linecap="round" stroke-linejoin="round"/>
    <path d="M 135.0545654296875 241.1034698486328 C 135.5889129638672 249.59552001953125 143.9653778076172 243.91696166992188 148.44789123535156 248.20555114746094 C 147.6705322265625 255.2913818359375 145.60218811035156 262.3687744140625 152.8503875732422 266.8952331542969 L 152.70492553710938 288.036376953125 C 169.4515838623047 287.11407470703125 184.5830841064453 272.9314880371094 201.92477416992188 278.76605224609375 C 191.4286346435547 270.5132141113281 207.17984008789062 244.5501708984375 187.0762176513672 250.31704711914062 C 172.97276306152344 232.3995819091797 153.380859375 243.55567932128906 135.0545654296875 241.1034698486328" stroke-width="2.0" fill="rgb(179, 180, 181)" opacity="0.8533754" stroke="rgb(0, 0, 0)" stroke-opacity="0.0" stroke-linecap="round" stroke-linejoin="round"/>
    <path d="M 232.7335662841797 314.9021911621094 C 235.47254943847656 317.7301940917969 251.08688354492188 319.6380310058594 260.2573547363281 324.152099609375 C 273.6968688964844 323.8382873535156 287.7056884765625 325.6180114746094 302.5797119140625 321.3172607421875 C 294.84271240234375 292.5871887207031 264.99591064453125 265.1333923339844 239.42352294921875 298.7811279296875 L 232.7335662841797 314.9021911621094" stroke-width="2.0" fill="rgb(70, 100, 131)" opacity="1.0009292" stroke="rgb(0, 0, 0)" stroke-opacity="0.0" stroke-linecap="round" stroke-linejoin="round"/>
    <path d="M 72.12029266357422 143.37249755859375 C 67.37506866455078 152.41140747070312 66.45357513427734 159.80853271484375 77.78995513916016 157.68060302734375 L 77.92396545410156 178.49188232421875 L 101.8465347290039 179.30796813964844 C 99.45640563964844 169.4132080078125 111.92448425292969 177.89100646972656 119.58070373535156 177.0010528564453 C 119.74330139160156 157.05587768554688 127.5002670288086 140.20126342773438 109.86416625976562 134.5661163330078 C 97.38021087646484 132.4341583251953 82.62451934814453 125.63387298583984 79.16693115234375 142.57980346679688 L 72.12029266357422 143.37249755859375" stroke-width="2.0" fill="rgb(166, 171, 181)" opacity="0.89020514" stroke="rgb(0, 0, 0)" stroke-opacity="0.0" stroke-linecap="round" stroke-linejoin="round"/>
    <path d="M 283.1086730957031 158.50277709960938 C 283.13409423828125 167.08399963378906 287.35784912109375 173.70668029785156 297.6098327636719 181.7470703125 C 332.5743103027344 179.35948181152344 369.6390380859375 181.72535705566406 408.4300537109375 179.42779541015625 L 406.96356201171875 170.94244384765625 C 364.5086975097656 169.1937255859375 324.5293273925781 163.9234161376953 283.1086730957031 158.50277709960938" stroke-width="2.0" fill="rgb(131, 125, 126)" opacity="0.99567395" stroke="rgb(0, 0, 0)" stroke-opacity="0.0" stroke-linecap="round" stroke-linejoin="round"/>
    <path d="M 194.6508026123047 205.4102020263672 C 192.43112182617188 233.11505126953125 199.94764709472656 253.3836212158203 198.3828125 276.36358642578125 C 206.94036865234375 278.51141357421875 215.12060546875 276.7820739746094 225.49896240234375 277.0107421875 L 225.70529174804688 208.433837890625 L 194.6508026123047 205.4102020263672" stroke-width="2.0" fill="rgb(147, 162, 181)" opacity="1.1476505" stroke="rgb(0, 0, 0)" stroke-opacity="0.0" stroke-linecap="round" stroke-linejoin="round"/>
    <path d="M 390.7806396484375 325.8412170410156 L 389.1892395019531 335.1886291503906 C 385.2176818847656 331.97125244140625 380.3752746582031 338.059326171875 383.1465759277344 340.6685791015625 C 372.878173828125 323.2054443359375 364.8359680175781 341.399658203125 368.03411865234375 352.9256896972656 C 380.61639404296875 361.765380859375 382.79638671875 368.36663818359375 390.9477844238281 370.8662414550781 L 392.31103515625 411.2300720214844 C 396.2921142578125 420.3553466796875 403.5592041015625 413.1907958984375 407.98956298828125 408.1015319824219 C 408.40350341796875 382.3636779785156 408.1495666503906 357.73272705078125 407.3153076171875 331.5896301269531 C 401.8560791015625 331.64093017578125 401.4349670410156 322.4039306640625 390.7806396484375 325.8412170410156" stroke-width="2.0" fill="rgb(55, 70, -6)" opacity="0.6343809" stroke="rgb(0, 0, 0)" stroke-opacity="0.0" stroke-linecap="round" stroke-linejoin="round"/>
    <path d="M 103.6009292602539 209.88430786132812 C 101.42466735839844 195.9169921875 80.83834838867188 173.4972381591797 67.81037139892578 182.7633819580078 C 53.9156379699707 189.39453125 47.99538803100586 203.7557373046875 45.53105163574219 215.46958923339844 L 104.73682403564453 214.96505737304688 L 103.6009292602539 209.88430786132812" stroke-width="2.0" fill="rgb(8, 46, 107)" opacity="0.7549765" stroke="rgb(0, 0, 0)" stroke-opacity="0.0" stroke-linecap="round" stroke-linejoin="round"/>
    <path d="M 293.0311279296875 361.5491027832031 C 290.8719787597656 362.93780517578125 291.8504638671875 366.1458740234375 290.01641845703125 369.5884704589844 L 335.93963623046875 408.6770935058594 C 335.4311218261719 391.699462890625 341.1436462402344 374.73455810546875 334.0954284667969 357.7600402832031 C 320.2781982421875 357.3211975097656 307.7174377441406 359.38531494140625 293.0311279296875 361.5491027832031" stroke-width="2.0" fill="rgb(112, 80, 59)" opacity="1.0041461" stroke="rgb(0, 0, 0)" stroke-opacity="0.0" stroke-linecap="round" stroke-linejoin="round"/>
    <path d="M 33.24374771118164 189.05877685546875 L -1.728764533996582 188.5706024169922 L -0.8927373886108398 239.8197784423828 C 6.642480850219727 240.19505310058594 12.180859565734863 240.3539276123047 25.036415100097656 237.34906005859375 C 20.62166404724121 223.57269287109375 24.115402221679688 207.38497924804688 42.00531005859375 195.53195190429688 C 40.270668029785156 192.9278106689453 36.11628341674805 190.35678100585938 33.24374771118164 189.05877685546875" stroke-width="2.0" fill="rgb(169, 174, 181)" opacity="1.0290674" stroke="rgb(0, 0, 0)" stroke-opacity="0.0" stroke-linecap="round" stroke-linejoin="round"/>
    <path d="M 125.24010467529297 142.93869018554688 L 124.15342712402344 146.28988647460938 C 145.69078063964844 146.1327362060547 166.58424377441406 144.36302185058594 188.28001403808594 147.9983673095703 C 181.8363037109375 114.59088897705078 139.3465118408203 107.91329193115234 125.24010467529297 142.93869018554688" stroke-width="2.0" fill="rgb(8, 60, 123)" opacity="0.8150867" stroke="rgb(0, 0, 0)" stroke-opacity="0.0" stroke-linecap="round" stroke-linejoin="round"/>
    <path d="M 354.874267578125 462.04351806640625 L 383.107421875 496.8536376953125 L 408.1624450683594 496.7113342285156 L 408.09649658203125 464.72998046875 C 389.3298034667969 460.677490234375 372.770751953125 463.1075134277344 354.874267578125 462.04351806640625" stroke-width="2.0" fill="rgb(248, 244, 230)" opacity="1.0308421" stroke="rgb(0, 0, 0)" stroke-opacity="0.0" stroke-linecap="round" stroke-linejoin="round"/>
    <path d="M 198.6144561767578 247.38003540039062 C 186.0631866455078 255.81369018554688 181.7622833251953 236.9166717529297 177.16165161132812 240.6283721923828 C 161.76502990722656 256.6925354003906 163.04681396484375 269.8079833984375 165.1696014404297 286.6097412109375 C 177.05108642578125 286.3429260253906 187.64503479003906 274.4878234863281 199.01370239257812 276.4085693359375 L 198.6144561767578 247.38003540039062" stroke-width="2.0" fill="rgb(251, 246, 230)" opacity="0.9328312" stroke="rgb(0, 0, 0)" stroke-opacity="0.0" stroke-linecap="round" stroke-linejoin="round"/>
    <path d="M 304.3553771972656 470.8615417480469 L 304.2404479980469 512.93212890625 L 354.88018798828125 511.7859802246094 C 341.7698974609375 497.384521484375 322.43048095703125 485.5428161621094 312.9454345703125 469.8412780761719 L 304.3553771972656 470.8615417480469" stroke-width="2.0" fill="rgb(115, 121, 134)" opacity="1.0825834" stroke="rgb(0, 0, 0)" stroke-opacity="0.0" stroke-linecap="round" stroke-linejoin="round"/>
    <path d="M 110.17947387695312 215.40887451171875 C 115.2325210571289 230.53042602539062 102.7119369506836 255.536376953125 122.28877258300781 254.06063842773438 C 121.4305648803711 267.0114440917969 136.9541015625 258.2461853027344 147.2457275390625 262.1368408203125 C 149.98544311523438 246.71153259277344 144.45932006835938 245.20010375976562 133.5418701171875 247.50799560546875 L 133.0463409423828 214.64552307128906 L 110.17947387695312 215.40887451171875" stroke-width="2.0" fill="rgb(261, 252, 232)" opacity="0.8523129" stroke="rgb(0, 0, 0)" stroke-opacity="0.0" stroke-linecap="round" stroke-linejoin="round"/>
    <path d="M 116.8706283569336 319.3846130371094 C 97.63421630859375 322.5414123535156 111.86878967285156 340.760009765625 110.81205749511719 354.6263122558594 C 131.019287109375 343.1028747558594 117.73910522460938 372.11962890625 120.30859375 385.18218994140625 L 132.5610809326172 377.5773010253906 C 131.6322479248047 358.34039306640625 133.20472717285156 338.39910888671875 130.48008728027344 321.72711181640625 L 116.8706283569336 319.3846130371094" stroke-width="2.0" fill="rgb(116, 128, 141)" opacity="0.89949894" stroke="rgb(0, 0, 0)" stroke-opacity="0.0" stroke-linecap="round" stroke-linejoin="round"/>
    <path d="M 295.6883850097656 360.9049987792969 C 292.8929443359375 368.13482666015625 307.4483337402344 371.8764343261719 312.724609375 385.8948669433594 L 337.92254638671875 386.4039611816406 C 335.68212890625 375.59002685546875 340.9754638671875 365.5608825683594 334.80535888671875 357.63482666015625 C 319.630615234375 357.3491516113281 306.3823547363281 358.1661682128906 295.6883850097656 360.9049987792969" stroke-width="2.0" fill="rgb(180, 122, 79)" opacity="0.7980063" stroke="rgb(0, 0, 0)" stroke-opacity="0.0" stroke-linecap="round" stroke-linejoin="round"/>
    <path d="M 287.54443359375 263.8241271972656 L 287.63397216796875 286.8427429199219 C 300.0514831542969 295.02264404296875 307.36114501953125 310.7784423828125 319.2171325683594 314.60302734375 C 325.32183837890625 309.5870666503906 330.90179443359375 304.75244140625 337.9201354980469 302.9166259765625 C 322.45489501953125 288.46630859375 304.3616027832031 276.5237121582031 287.54443359375 263.8241271972656" stroke-width="2.0" fill="rgb(176, 150, 122)" opacity="0.99946195" stroke="rgb(0, 0, 0)" stroke-opacity="0.0" stroke-linecap="round" stroke-linejoin="round"/>
    <path d="M 377.169921875 390.8058776855469 C 377.0012512207031 402.0930480957031 377.1669616699219 415.16192626953125 376.90179443359375 425.24188232421875 C 387.4120788574219 444.1838073730469 390.67742919921875 442.2479553222656 407.8717346191406 439.69146728515625 L 406.5831298828125 406.4742736816406 C 392.3550109863281 429.58258056640625 392.811279296875 399.3044128417969 395.20867919921875 389.2804870605469 L 377.169921875 390.8058776855469" stroke-width="2.0" fill="rgb(69, 78, 56)" opacity="1.0482473" stroke="rgb(0, 0, 0)" stroke-opacity="0.0" stroke-linecap="round" stroke-linejoin="round"/>
    <path d="M 349.9352111816406 457.92340087890625 C 342.6292419433594 478.4416198730469 346.4927062988281 495.1931457519531 353.00701904296875 512.0427856445312 L 383.7843322753906 511.966552734375 C 388.9496154785156 495.596435546875 364.12945556640625 478.8071594238281 349.9352111816406 457.92340087890625" stroke-width="2.0" fill="rgb(151, 162, 177)" opacity="1.229351" stroke="rgb(0, 0, 0)" stroke-opacity="0.0" stroke-linecap="round" stroke-linejoin="round"/>
    <path d="M 238.27066040039062 301.34991455078125 C 225.37945556640625 319.3184509277344 247.48248291015625 318.8548278808594 262.39111328125 324.96575927734375 L 277.7465515136719 324.4093322753906 C 273.21197509765625 309.9340515136719 262.468505859375 297.5302734375 265.1038818359375 283.8272399902344 C 255.64047241210938 284.4881591796875 244.9831085205078 290.857666015625 238.27066040039062 301.34991455078125" stroke-width="2.0" fill="rgb(-5, 41, 112)" opacity="0.6759458" stroke="rgb(0, 0, 0)" stroke-opacity="0.0" stroke-linecap="round" stroke-linejoin="round"/>
    <path d="M 35.04408645629883 249.67173767089844 C 22.539779663085938 232.1575164794922 11.012144088745117 238.9985809326172 -0.43111327290534973 237.87899780273438 L -0.12387020140886307 270.7807312011719 L 34.752960205078125 271.0673828125 L 35.04408645629883 249.67173767089844" stroke-width="2.0" fill="rgb(123, 123, 130)" opacity="0.4327437" stroke="rgb(0, 0, 0)" stroke-opacity="0.0" stroke-linecap="round" stroke-linejoin="round"/>
    <path d="M 280.8398742675781 208.58978271484375 C 281.4208679199219 216.23641967773438 278.01190185546875 223.5970916748047 282.6370544433594 231.91995239257812 C 289.91015625 233.22869873046875 302.7076721191406 232.96786499023438 303.1164245605469 244.1432647705078 L 315.95477294921875 243.12149047851562 C 313.5824279785156 234.5069580078125 322.4752197265625 214.7652130126953 305.9859313964844 217.27487182617188 C 307.5596008300781 203.97569274902344 290.7346496582031 211.4517059326172 280.8398742675781 208.58978271484375" stroke-width="2.0" fill="rgb(189, 196, 198)" opacity="0.6694743" stroke="rgb(0, 0, 0)" stroke-opacity="0.0" stroke-linecap="round" stroke-linejoin="round"/>
    <path d="M 153.31353759765625 265.10040283203125 L 118.51119995117188 265.07568359375 C 110.1373519897461 283.43768310546875 133.51109313964844 286.6619567871094 128.52455139160156 303.6953430175781 C 139.2850799560547 306.5458984375 132.65870666503906 295.869384765625 136.4114227294922 292.2673645019531 L 152.83929443359375 288.3465270996094 L 153.31353759765625 265.10040283203125" stroke-width="2.0" fill="rgb(247, 237, 218)" opacity="0.92698395" stroke="rgb(0, 0, 0)" stroke-opacity="0.0" stroke-linecap="round" stroke-linejoin="round"/>
    <path d="M 265.8060607910156 283.2483825683594 C 261.5702209472656 296.8406677246094 270.7638854980469 308.6235046386719 276.58880615234375 321.72064208984375 C 283.8448181152344 324.0981750488281 292.1768493652344 321.6930847167969 300.65057373046875 319.781494140625 C 299.2472839355469 305.24652099609375 283.1133117675781 281.7557678222656 265.8060607910156 283.2483825683594" stroke-width="2.0" fill="rgb(53, 118, 175)" opacity="0.84234416" stroke="rgb(0, 0, 0)" stroke-opacity="0.0" stroke-linecap="round" stroke-linejoin="round"/>
    <path d="M 251.33277893066406 256.05145263671875 L 223.1949920654297 256.41583251953125 C 223.81353759765625 266.3664245605469 217.91236877441406 278.8277282714844 233.07150268554688 277.2314758300781 L 233.35195922851562 309.6688232421875 C 238.8863067626953 297.3791809082031 244.3955535888672 290.9390869140625 252.78736877441406 286.09942626953125 L 251.33277893066406 256.05145263671875" stroke-width="2.0" fill="rgb(127, 145, 169)" opacity="0.6719813" stroke="rgb(0, 0, 0)" stroke-opacity="0.0" stroke-linecap="round" stroke-linejoin="round"/>
    <path d="M 79.30733489990234 181.45382690429688 C 90.10173797607422 187.52003479003906 105.87174224853516 200.63980102539062 103.9139633178711 214.20632934570312 L 127.07337951660156 211.707763671875 C 127.46048736572266 188.27255249023438 100.90349578857422 168.4148712158203 79.30733489990234 181.45382690429688" stroke-width="2.0" fill="rgb(84, 156, 221)" opacity="0.26473847" stroke="rgb(0, 0, 0)" stroke-opacity="0.0" stroke-linecap="round" stroke-linejoin="round"/>
    <path d="M 176.92039489746094 364.9039611816406 C 166.45016479492188 362.1787109375 157.93826293945312 368.1733093261719 147.50048828125 360.6195373535156 C 153.20999145507812 378.531982421875 113.37013244628906 388.8759460449219 114.15605926513672 407.4252014160156 C 134.22607421875 399.7350769042969 155.06761169433594 377.4515075683594 176.92039489746094 364.9039611816406" stroke-width="2.0" fill="rgb(195, 182, 164)" opacity="0.86374027" stroke="rgb(0, 0, 0)" stroke-opacity="0.0" stroke-linecap="round" stroke-linejoin="round"/>
    <path d="M 42.612693786621094 237.81381225585938 C 32.560325622558594 238.62672424316406 23.02646827697754 235.38233947753906 13.49312973022461 240.01011657714844 L 13.914422035217285 270.6860046386719 L 34.697444915771484 270.6983642578125 C 34.89383316040039 261.6144104003906 27.669452667236328 245.6706085205078 42.77952194213867 249.45509338378906 L 42.612693786621094 237.81381225585938" stroke-width="2.0" fill="rgb(100, 116, 141)" opacity="1.3990809" stroke="rgb(0, 0, 0)" stroke-opacity="0.0" stroke-linecap="round" stroke-linejoin="round"/>
    <path d="M 13.021100044250488 313.7846374511719 L 12.937822341918945 355.4399719238281 L 31.52149772644043 355.6588439941406 L 31.02323341369629 314.11651611328125 L 13.021100044250488 313.7846374511719" stroke-width="2.0" fill="rgb(21, 61, 113)" opacity="0.9966302" stroke="rgb(0, 0, 0)" stroke-opacity="0.0" stroke-linecap="round" stroke-linejoin="round"/>
    <path d="M 54.99082565307617 191.5982208251953 C 43.186378479003906 189.64111328125 24.00983428955078 205.78807067871094 21.103622436523438 219.3880157470703 C 32.446815490722656 214.65365600585938 23.163284301757812 230.822509765625 25.496782302856445 236.80918884277344 L 43.05400085449219 236.5565948486328 C 43.95814895629883 221.59780883789062 44.7774772644043 207.61575317382812 54.99082565307617 191.5982208251953" stroke-width="2.0" fill="rgb(174, 177, 183)" opacity="0.9064963" stroke="rgb(0, 0, 0)" stroke-opacity="0.0" stroke-linecap="round" stroke-linejoin="round"/>
    <path d="M 127.40874481201172 320.0651550292969 L 119.72225952148438 318.4842224121094 L 120.11216735839844 384.978271484375 L 130.875 377.3765563964844 C 128.02235412597656 358.65753173828125 134.224365234375 337.5075988769531 127.40874481201172 320.0651550292969" stroke-width="2.0" fill="rgb(129, 146, 164)" opacity="1.0106336" stroke="rgb(0, 0, 0)" stroke-opacity="0.0" stroke-linecap="round" stroke-linejoin="round"/>
    <path d="M 223.83807373046875 211.9257354736328 L 225.92123413085938 256.1124267578125 C 230.03366088867188 255.20596313476562 238.48976135253906 258.6780090332031 241.114013671875 252.00355529785156 L 240.21897888183594 212.45855712890625 L 223.83807373046875 211.9257354736328" stroke-width="2.0" fill="rgb(249, 247, 234)" opacity="0.98528004" stroke="rgb(0, 0, 0)" stroke-opacity="0.0" stroke-linecap="round" stroke-linejoin="round"/>
    <path d="M 200.28323364257812 275.8330383300781 C 210.43751525878906 284.5318298339844 215.83401489257812 305.4488830566406 232.3671417236328 314.78369140625 L 224.13230895996094 276.9085998535156 L 200.28323364257812 275.8330383300781" stroke-width="2.0" fill="rgb(195, 194, 191)" opacity="0.88094807" stroke="rgb(0, 0, 0)" stroke-opacity="0.0" stroke-linecap="round" stroke-linejoin="round"/>
    <path d="M 241.27113342285156 232.96224975585938 C 239.00277709960938 243.90296936035156 239.84024047851562 255.9876251220703 254.38845825195312 250.76991271972656 C 260.2738342285156 256.59368896484375 251.2616424560547 269.1869812011719 264.1557312011719 270.81787109375 C 261.8641662597656 258.3197021484375 269.38372802734375 242.6589813232422 247.99667358398438 239.8726806640625 C 259.4734191894531 236.18887329101562 272.0940856933594 241.92466735839844 281.5081787109375 236.54373168945312 C 267.7401428222656 229.6690216064453 255.35992431640625 233.40415954589844 241.27113342285156 232.96224975585938" stroke-width="2.0" fill="rgb(207, 209, 199)" opacity="0.78857553" stroke="rgb(0, 0, 0)" stroke-opacity="0.0" stroke-linecap="round" stroke-linejoin="round"/>
    <path d="M 14.769497871398926 237.14915466308594 C 11.705596923828125 248.16246032714844 15.044878005981445 258.6825866699219 14.098638534545898 270.7612609863281 L 34.04939651489258 270.7354431152344 C 37.18406677246094 255.91439819335938 35.799564361572266 240.78712463378906 14.769497871398926 237.14915466308594" stroke-width="2.0" fill="rgb(125, 147, 171)" opacity="0.97728837" stroke="rgb(0, 0, 0)" stroke-opacity="0.0" stroke-linecap="round" stroke-linejoin="round"/>
    <path d="M 193.0189666748047 283.2279357910156 L 206.55410766601562 311.7574157714844 C 214.239013671875 312.8527526855469 220.8770294189453 318.3399658203125 231.03253173828125 319.4492492675781 C 218.15548706054688 300.7772216796875 210.29324340820312 279.1300354003906 193.0189666748047 283.2279357910156" stroke-width="2.0" fill="rgb(251, 246, 231)" opacity="0.9890493" stroke="rgb(0, 0, 0)" stroke-opacity="0.0" stroke-linecap="round" stroke-linejoin="round"/>
    <path d="M 133.61831665039062 243.7168426513672 C 138.6803741455078 248.24594116210938 143.3210906982422 243.17271423339844 148.16140747070312 247.02590942382812 C 144.9500274658203 258.65838623046875 150.4101104736328 264.32763671875 162.04595947265625 261.35113525390625 L 174.9805908203125 240.00624084472656 L 133.1946258544922 239.99826049804688 L 133.61831665039062 243.7168426513672" stroke-width="2.0" fill="rgb(191, 194, 196)" opacity="1.020578" stroke="rgb(0, 0, 0)" stroke-opacity="0.0" stroke-linecap="round" stroke-linejoin="round"/>
    <path d="M 304.0995788574219 319.9361267089844 L 302.4848937988281 338.91949462890625 C 314.7960510253906 339.58428955078125 328.47552490234375 340.4485778808594 338.8651428222656 346.8188171386719 C 349.7543640136719 329.1880187988281 328.0098571777344 326.9573059082031 316.5550842285156 326.5085754394531 L 304.0995788574219 319.9361267089844" stroke-width="2.0" fill="rgb(19, 27, 54)" opacity="0.54055166" stroke="rgb(0, 0, 0)" stroke-opacity="0.0" stroke-linecap="round" stroke-linejoin="round"/>
    <path d="M 373.7336730957031 443.0400390625 C 389.6701354980469 453.65008544921875 396.0937194824219 468.4116516113281 406.0411682128906 464.097900390625 L 405.6806945800781 438.8939208984375 C 394.11151123046875 439.166748046875 383.2474365234375 435.0256652832031 373.7336730957031 443.0400390625" stroke-width="2.0" fill="rgb(136, 145, 157)" opacity="1.1200452" stroke="rgb(0, 0, 0)" stroke-opacity="0.0" stroke-linecap="round" stroke-linejoin="round"/>
    <path d="M 305.2293395996094 342.5382385253906 C 301.8463439941406 334.24041748046875 304.9176940917969 327.4440612792969 302.60302734375 322.3155212402344 C 288.7905578613281 325.0964660644531 275.4687805175781 321.0312194824219 258.7036437988281 332.5815124511719 C 279.8600158691406 329.9015808105469 285.5101013183594 326.67901611328125 281.57904052734375 344.17327880859375 L 305.2293395996094 342.5382385253906" stroke-width="2.0" fill="rgb(249, 245, 230)" opacity="0.9593488" stroke="rgb(0, 0, 0)" stroke-opacity="0.0" stroke-linecap="round" stroke-linejoin="round"/>
    <path d="M 259.61553955078125 192.09649658203125 C 255.6710968017578 203.92454528808594 267.0264892578125 211.1553955078125 264.45745849609375 222.4222412109375 L 279.801025390625 221.68667602539062 C 280.6710205078125 212.14991760253906 280.4142761230469 203.04359436035156 280.74822998046875 193.50294494628906 L 259.61553955078125 192.09649658203125" stroke-width="2.0" fill="rgb(225, 198, 168)" opacity="0.8329493" stroke="rgb(0, 0, 0)" stroke-opacity="0.0" stroke-linecap="round" stroke-linejoin="round"/>
    <path d="M 282.9776916503906 344.1587219238281 C 296.69036865234375 358.3072204589844 317.75042724609375 347.98565673828125 334.98504638671875 351.9029235839844 C 339.1315612792969 342.2142333984375 328.86895751953125 342.9065246582031 324.09320068359375 340.59783935546875 C 309.88031005859375 339.3692321777344 297.2915954589844 343.1778869628906 282.9776916503906 344.1587219238281" stroke-width="2.0" fill="rgb(241, 239, 233)" opacity="0.63257796" stroke="rgb(0, 0, 0)" stroke-opacity="0.0" stroke-linecap="round" stroke-linejoin="round"/>
    <path d="M 104.25713348388672 140.94529724121094 L 104.30500793457031 168.090087890625 L 122.22187805175781 169.3145751953125 L 122.25149536132812 145.61241149902344 L 104.25713348388672 140.94529724121094" stroke-width="2.0" fill="rgb(246, 241, 226)" opacity="1.0527691" stroke="rgb(0, 0, 0)" stroke-opacity="0.0" stroke-linecap="round" stroke-linejoin="round"/>
    <path d="M 228.64877319335938 156.86898803710938 C 225.72036743164062 158.30091857910156 223.722900390625 155.14572143554688 222.3643798828125 158.3569793701172 L 224.41183471679688 200.46035766601562 L 233.67422485351562 201.31739807128906 L 234.0458221435547 156.02096557617188 L 228.64877319335938 156.86898803710938" stroke-width="2.0" fill="rgb(289, 286, 270)" opacity="0.1926574" stroke="rgb(0, 0, 0)" stroke-opacity="0.0" stroke-linecap="round" stroke-linejoin="round"/>
    <path d="M 350.92633056640625 367.5532531738281 C 344.4795227050781 372.47705078125 349.40032958984375 392.5702819824219 347.1905517578125 408.29986572265625 L 359.6913146972656 412.7405090332031 C 356.16510009765625 393.40423583984375 364.52020263671875 373.4034729003906 350.92633056640625 367.5532531738281" stroke-width="2.0" fill="rgb(19, 54, 101)" opacity="0.9963578" stroke="rgb(0, 0, 0)" stroke-opacity="0.0" stroke-linecap="round" stroke-linejoin="round"/>
    <path d="M 194.2427978515625 113.14558410644531 L 229.10580444335938 113.68526458740234 C 225.61741638183594 104.94410705566406 215.36048889160156 81.89097595214844 206.01092529296875 97.12781524658203 C 199.56126403808594 102.50088500976562 203.16336059570312 110.03217315673828 194.2427978515625 113.14558410644531" stroke-width="2.0" fill="rgb(67, 99, 138)" opacity="1.0606874" stroke="rgb(0, 0, 0)" stroke-opacity="0.0" stroke-linecap="round" stroke-linejoin="round"/>
    <path d="M 30.860645294189453 97.59259033203125 L 71.7166748046875 96.60760498046875 C 62.28741455078125 80.3027572631836 40.5164909362793 76.01476287841797 30.860645294189453 97.59259033203125" stroke-width="2.0" fill="rgb(43, 84, 134)" opacity="1.0520476" stroke="rgb(0, 0, 0)" stroke-opacity="0.0" stroke-linecap="round" stroke-linejoin="round"/>
    <path d="M 279.08953857421875 265.4486999511719 C 269.44952392578125 263.4933166503906 247.74722290039062 268.98834228515625 253.23516845703125 286.7958679199219 C 261.8695983886719 280.2462463378906 270.92291259765625 279.9395446777344 280.2287902832031 286.233642578125 L 279.08953857421875 265.4486999511719" stroke-width="2.0" fill="rgb(100, 102, 106)" opacity="0.96244466" stroke="rgb(0, 0, 0)" stroke-opacity="0.0" stroke-linecap="round" stroke-linejoin="round"/>
    <path d="M 280.54296875 210.46368408203125 L 280.5506896972656 231.27474975585938 L 298.00250244140625 236.4739990234375 L 297.9986572265625 210.69874572753906 L 280.54296875 210.46368408203125" stroke-width="2.0" fill="rgb(185, 186, 186)" opacity="0.9688627" stroke="rgb(0, 0, 0)" stroke-opacity="0.0" stroke-linecap="round" stroke-linejoin="round"/>
    <path d="M 173.28976440429688 146.67108154296875 L 173.36927795410156 171.6322784423828 L 189.90992736816406 171.60235595703125 L 190.56617736816406 149.47476196289062 L 173.28976440429688 146.67108154296875" stroke-width="2.0" fill="rgb(243, 241, 232)" opacity="1.0631309" stroke="rgb(0, 0, 0)" stroke-opacity="0.0" stroke-linecap="round" stroke-linejoin="round"/>
    <path d="M -0.29433536529541016 239.8292236328125 L 0.11560627818107605 270.22784423828125 C 20.926658630371094 276.5416564941406 10.295275688171387 252.21412658691406 13.916938781738281 240.15460205078125 L -0.29433536529541016 239.8292236328125" stroke-width="2.0" fill="rgb(220, 199, 169)" opacity="0.8739477" stroke="rgb(0, 0, 0)" stroke-opacity="0.0" stroke-linecap="round" stroke-linejoin="round"/>
    <path d="M 119.84971618652344 320.44732666015625 C 98.53109741210938 320.4560852050781 109.98267364501953 342.6347961425781 110.25309753417969 353.13604736328125 C 127.95756530761719 356.34979248046875 115.60562896728516 335.2980041503906 119.84971618652344 320.44732666015625" stroke-width="2.0" fill="rgb(33, 75, 130)" opacity="0.7018105" stroke="rgb(0, 0, 0)" stroke-opacity="0.0" stroke-linecap="round" stroke-linejoin="round"/>
    <path d="M 208.51393127441406 156.9998016357422 L 211.81707763671875 198.4396514892578 L 216.41351318359375 199.85128784179688 L 215.88882446289062 156.99632263183594 L 208.51393127441406 156.9998016357422" stroke-width="2.0" fill="rgb(199, 198, 191)" opacity="0.83000404" stroke="rgb(0, 0, 0)" stroke-opacity="0.0" stroke-linecap="round" stroke-linejoin="round"/>
    <path d="M 330.55743408203125 246.59976196289062 C 315.77532958984375 244.98008728027344 301.10626220703125 252.8442840576172 286.2956237792969 253.6968994140625 C 278.8199768066406 252.25070190429688 263.53656005859375 262.7720031738281 278.2203063964844 268.54901123046875 C 295.47705078125 254.65663146972656 314.1492919921875 262.0950927734375 330.55743408203125 246.59976196289062" stroke-width="2.0" fill="rgb(141, 155, 78)" opacity="0.40135518" stroke="rgb(0, 0, 0)" stroke-opacity="0.0" stroke-linecap="round" stroke-linejoin="round"/>
    <path d="M 240.9706573486328 237.1199493408203 C 239.22714233398438 251.96954345703125 246.5292510986328 252.45677185058594 256.6822509765625 252.12771606445312 C 258.6522521972656 258.2278137207031 254.36973571777344 269.6894226074219 259.98760986328125 273.4608154296875 L 262.70745849609375 244.37413024902344 C 255.2256622314453 244.48463439941406 248.32022094726562 239.2277069091797 240.9706573486328 237.1199493408203" stroke-width="2.0" fill="rgb(114, 116, 101)" opacity="1.0951334" stroke="rgb(0, 0, 0)" stroke-opacity="0.0" stroke-linecap="round" stroke-linejoin="round"/>
    <path d="M 195.92190551757812 172.7425079345703 C 196.38406372070312 182.26071166992188 189.50439453125 204.96229553222656 206.712158203125 201.41815185546875 C 204.11651611328125 189.89930725097656 213.25047302246094 170.66415405273438 195.92190551757812 172.7425079345703" stroke-width="2.0" fill="rgb(186, 188, 191)" opacity="0.9088445" stroke="rgb(0, 0, 0)" stroke-opacity="0.0" stroke-linecap="round" stroke-linejoin="round"/>
    <path d="M 77.67289733886719 141.28677368164062 C 90.7493667602539 144.46165466308594 107.09374237060547 140.82948303222656 123.17890930175781 144.1982421875 C 110.00016021728516 133.54405212402344 87.97676086425781 123.96971130371094 77.67289733886719 141.28677368164062" stroke-width="2.0" fill="rgb(225, 189, 150)" opacity="0.77923244" stroke="rgb(0, 0, 0)" stroke-opacity="0.0" stroke-linecap="round" stroke-linejoin="round"/>
    <path d="M 310.8312683105469 387.2754821777344 C 318.6370544433594 395.0600280761719 328.1053771972656 402.8669128417969 337.6260070800781 411.0774841308594 L 337.59759521484375 385.2228088378906 L 310.8312683105469 387.2754821777344" stroke-width="2.0" fill="rgb(79, 58, 49)" opacity="1.0738276" stroke="rgb(0, 0, 0)" stroke-opacity="0.0" stroke-linecap="round" stroke-linejoin="round"/>
    <path d="M 260.5141296386719 269.53778076171875 C 256.06927490234375 290.0401306152344 269.611572265625 279.7214050292969 281.2069396972656 286.2853088378906 L 280.79962158203125 266.8442077636719 C 273.5534973144531 268.1356506347656 266.164306640625 263.75823974609375 260.5141296386719 269.53778076171875" stroke-width="2.0" fill="rgb(203, 188, 168)" opacity="0.9470199" stroke="rgb(0, 0, 0)" stroke-opacity="0.0" stroke-linecap="round" stroke-linejoin="round"/>
    <path d="M 357.2735900878906 321.8585510253906 L 353.089599609375 341.7004699707031 L 369.8741455078125 353.4341735839844 C 373.71337890625 338.5115661621094 374.4478454589844 325.1221008300781 357.2735900878906 321.8585510253906" stroke-width="2.0" fill="rgb(61, 62, 71)" opacity="1.0309772" stroke="rgb(0, 0, 0)" stroke-opacity="0.0" stroke-linecap="round" stroke-linejoin="round"/>
    <path d="M 248.84066772460938 346.80181884765625 L 247.28555297851562 392.4313659667969 L 253.35015869140625 397.9858703613281 L 255.50125122070312 352.5670471191406 L 248.84066772460938 346.80181884765625" stroke-width="2.0" fill="rgb(130, 146, 166)" opacity="1.0272067" stroke="rgb(0, 0, 0)" stroke-opacity="0.0" stroke-linecap="round" stroke-linejoin="round"/>
    <path d="M 146.9925994873047 261.9035339355469 C 146.145751953125 266.8479309082031 151.4909210205078 262.254150390625 153.38587951660156 266.63580322265625 C 155.21054077148438 273.6782531738281 148.07994079589844 290.5643005371094 162.3673095703125 286.8560791015625 C 167.04449462890625 279.1781921386719 164.01483154296875 270.8470458984375 164.7423858642578 262.0337829589844 C 158.06637573242188 261.14727783203125 153.01438903808594 262.3945007324219 146.9925994873047 261.9035339355469" stroke-width="2.0" fill="rgb(156, 164, 180)" opacity="0.69819057" stroke="rgb(0, 0, 0)" stroke-opacity="0.0" stroke-linecap="round" stroke-linejoin="round"/>
    <path d="M 345.4754638671875 320.7674255371094 C 342.9700927734375 330.4083557128906 337.1917419433594 342.5793762207031 336.4620666503906 356.697265625 C 342.521484375 353.99212646484375 346.2206726074219 345.01702880859375 356.55377197265625 345.1010437011719 C 346.8624267578125 335.5658874511719 356.18524169921875 323.6042785644531 345.4754638671875 320.7674255371094" stroke-width="2.0" fill="rgb(61, 63, 75)" opacity="1.1314945" stroke="rgb(0, 0, 0)" stroke-opacity="0.0" stroke-linecap="round" stroke-linejoin="round"/>
    <path d="M 240.3319854736328 211.37078857421875 L 240.52174377441406 232.19931030273438 L 255.36474609375 232.15589904785156 L 255.29022216796875 211.89080810546875 L 240.3319854736328 211.37078857421875" stroke-width="2.0" fill="rgb(134, 153, 169)" opacity="0.9207733" stroke="rgb(0, 0, 0)" stroke-opacity="0.0" stroke-linecap="round" stroke-linejoin="round"/>
    <path d="M 252.52992248535156 188.36598205566406 C 241.46385192871094 186.985595703125 232.1427001953125 189.1359405517578 234.8186492919922 203.32591247558594 C 246.15182495117188 206.15016174316406 259.27459716796875 205.49755859375 252.52992248535156 188.36598205566406" stroke-width="2.0" fill="rgb(195, 194, 191)" opacity="0.9876746" stroke="rgb(0, 0, 0)" stroke-opacity="0.0" stroke-linecap="round" stroke-linejoin="round"/>
    <path d="M 39.34143829345703 196.66488647460938 L 17.071256637573242 195.56541442871094 L 17.85865592956543 220.89564514160156 C 22.577600479125977 213.77438354492188 28.508512496948242 203.22418212890625 39.34143829345703 196.66488647460938" stroke-width="2.0" fill="rgb(250, 247, 237)" opacity="1.0165311" stroke="rgb(0, 0, 0)" stroke-opacity="0.0" stroke-linecap="round" stroke-linejoin="round"/>
    <path d="M 382.6780700683594 438.8283996582031 C 387.6258544921875 444.0720520019531 398.85760498046875 451.0321960449219 408.1325988769531 458.0059509277344 L 408.13519287109375 438.932373046875 L 382.6780700683594 438.8283996582031" stroke-width="2.0" fill="rgb(245, 241, 228)" opacity="0.985032" stroke="rgb(0, 0, 0)" stroke-opacity="0.0" stroke-linecap="round" stroke-linejoin="round"/>
    <path d="M 303.8780517578125 319.39361572265625 L 304.1852111816406 340.413818359375 L 319.8606872558594 340.53594970703125 C 320.4771423339844 329.7413635253906 314.5523376464844 324.8849182128906 303.8780517578125 319.39361572265625" stroke-width="2.0" fill="rgb(55, 54, 68)" opacity="1.1839921" stroke="rgb(0, 0, 0)" stroke-opacity="0.0" stroke-linecap="round" stroke-linejoin="round"/>
    <path d="M 240.4607391357422 233.9178466796875 C 250.07284545898438 241.9597625732422 267.7892761230469 237.99462890625 282.2397155761719 238.01141357421875 C 269.4947814941406 228.0250244140625 254.4801025390625 233.42263793945312 240.4607391357422 233.9178466796875" stroke-width="2.0" fill="rgb(197, 195, 189)" opacity="1.0639879" stroke="rgb(0, 0, 0)" stroke-opacity="0.0" stroke-linecap="round" stroke-linejoin="round"/>
    <path d="M 243.86724853515625 238.2487335205078 C 237.32525634765625 253.6499786376953 240.41387939453125 254.45516967773438 253.89981079101562 249.0282745361328 C 260.0096740722656 258.9324035644531 263.06268310546875 246.3290252685547 257.8063659667969 243.19483947753906 L 243.86724853515625 238.2487335205078" stroke-width="2.0" fill="rgb(107, 110, 87)" opacity="0.943553" stroke="rgb(0, 0, 0)" stroke-opacity="0.0" stroke-linecap="round" stroke-linejoin="round"/>
    <path d="M 186.7379150390625 170.95384216308594 C 189.992919921875 181.3141326904297 182.38668823242188 202.84625244140625 194.2852325439453 201.12400817871094 L 195.0626678466797 172.3833770751953 L 186.7379150390625 170.95384216308594" stroke-width="2.0" fill="rgb(249, 248, 235)" opacity="0.987784" stroke="rgb(0, 0, 0)" stroke-opacity="0.0" stroke-linecap="round" stroke-linejoin="round"/>
    <path d="M 377.75164794921875 377.558349609375 L 375.7039489746094 390.1007385253906 L 393.50555419921875 389.43438720703125 C 391.9860534667969 378.1142578125 390.60858154296875 371.8527526855469 377.75164794921875 377.558349609375" stroke-width="2.0" fill="rgb(241, 237, 225)" opacity="0.9669594" stroke="rgb(0, 0, 0)" stroke-opacity="0.0" stroke-linecap="round" stroke-linejoin="round"/>
    <path d="M 9.674506187438965 115.56117248535156 C 5.2324137687683105 129.19020080566406 15.30032730102539 126.4948501586914 26.705785751342773 130.65618896484375 L 26.521560668945312 115.46346282958984 L 9.674506187438965 115.56117248535156" stroke-width="2.0" fill="rgb(127, 144, 162)" opacity="0.92310065" stroke="rgb(0, 0, 0)" stroke-opacity="0.0" stroke-linecap="round" stroke-linejoin="round"/>
    <path d="M 91.20706939697266 290.76593017578125 C 76.81233978271484 286.7081298828125 85.7977294921875 304.3577880859375 82.57889556884766 318.3257751464844 C 96.7907943725586 321.65399169921875 88.2110595703125 303.2609558105469 91.20706939697266 290.76593017578125" stroke-width="2.0" fill="rgb(52, 82, 122)" opacity="1.0130401" stroke="rgb(0, 0, 0)" stroke-opacity="0.0" stroke-linecap="round" stroke-linejoin="round"/>
    <path d="M 119.59910583496094 319.04345703125 L 113.95838165283203 319.9776916503906 L 114.03478240966797 353.6243591308594 C 123.7080078125 349.9081115722656 116.47151184082031 331.2453308105469 119.59910583496094 319.04345703125" stroke-width="2.0" fill="rgb(12, 46, 98)" opacity="0.88110346" stroke="rgb(0, 0, 0)" stroke-opacity="0.0" stroke-linecap="round" stroke-linejoin="round"/>
    <path d="M 113.17616271972656 320.2673645019531 C 102.88243103027344 325.5813293457031 108.67350769042969 343.2703552246094 106.99662780761719 356.8169860839844 L 113.6144790649414 353.7718200683594 L 113.17616271972656 320.2673645019531" stroke-width="2.0" fill="rgb(125, 144, 163)" opacity="1.053989" stroke="rgb(0, 0, 0)" stroke-opacity="0.0" stroke-linecap="round" stroke-linejoin="round"/>
    <path d="M 137.78384399414062 393.82830810546875 C 129.01243591308594 390.0692443847656 111.53663635253906 395.3966369628906 114.23833465576172 409.5876159667969 C 121.4131851196289 407.6612548828125 128.86927795410156 401.4951171875 137.78384399414062 393.82830810546875" stroke-width="2.0" fill="rgb(253, 245, 228)" opacity="0.84328055" stroke="rgb(0, 0, 0)" stroke-opacity="0.0" stroke-linecap="round" stroke-linejoin="round"/>
    <path d="M 216.8625946044922 333.78814697265625 C 219.2603302001953 344.55548095703125 211.39109802246094 357.6242370605469 226.7276153564453 359.66912841796875 C 224.01556396484375 347.5869140625 232.08692932128906 334.7791442871094 216.8625946044922 333.78814697265625" stroke-width="2.0" fill="rgb(48, 73, 108)" opacity="1.1921686" stroke="rgb(0, 0, 0)" stroke-opacity="0.0" stroke-linecap="round" stroke-linejoin="round"/>
    <path d="M 237.30311584472656 203.21835327148438 L 205.99403381347656 205.39520263671875 C 209.64102172851562 217.265380859375 229.53933715820312 209.63304138183594 237.89064025878906 212.7980194091797 L 237.30311584472656 203.21835327148438" stroke-width="2.0" fill="rgb(222, 218, 207)" opacity="0.6082385" stroke="rgb(0, 0, 0)" stroke-opacity="0.0" stroke-linecap="round" stroke-linejoin="round"/>
    <path d="M 215.65298461914062 175.7339630126953 C 218.1015625 182.88970947265625 212.258544921875 201.3803253173828 223.26309204101562 199.9605255126953 C 220.96400451660156 192.22242736816406 229.19207763671875 174.45758056640625 215.65298461914062 175.7339630126953" stroke-width="2.0" fill="rgb(178, 177, 179)" opacity="0.97772896" stroke="rgb(0, 0, 0)" stroke-opacity="0.0" stroke-linecap="round" stroke-linejoin="round"/>
    <path d="M 15.14489459991455 163.81723022460938 C 18.004924774169922 174.1784210205078 9.744946479797363 192.30921936035156 24.639446258544922 186.09776306152344 C 21.27682876586914 175.15814208984375 30.231876373291016 157.76580810546875 15.14489459991455 163.81723022460938" stroke-width="2.0" fill="rgb(90, 107, 132)" opacity="0.99550396" stroke="rgb(0, 0, 0)" stroke-opacity="0.0" stroke-linecap="round" stroke-linejoin="round"/>
    <path d="M 211.1566925048828 168.03713989257812 L 211.2911376953125 201.4898223876953 L 216.32852172851562 201.3953857421875 L 214.714599609375 166.2584228515625 L 211.1566925048828 168.03713989257812" stroke-width="2.0" fill="rgb(249, 247, 238)" opacity="1.0163319" stroke="rgb(0, 0, 0)" stroke-opacity="0.0" stroke-linecap="round" stroke-linejoin="round"/>
    <path d="M 211.59999084472656 290.98773193359375 C 216.9215850830078 297.64202880859375 222.6533660888672 307.3541564941406 230.52320861816406 314.5467224121094 C 233.3178253173828 297.40960693359375 228.5009002685547 293.86260986328125 211.59999084472656 290.98773193359375" stroke-width="2.0" fill="rgb(107, 75, 50)" opacity="0.9117812" stroke="rgb(0, 0, 0)" stroke-opacity="0.0" stroke-linecap="round" stroke-linejoin="round"/>
    <path d="M 285.9289245605469 260.776123046875 C 279.7752685546875 268.8193054199219 277.4121398925781 286.2436828613281 286.71435546875 291.21649169921875 C 286.6792297363281 280.3105163574219 288.9632568359375 268.8424987792969 285.9289245605469 260.776123046875" stroke-width="2.0" fill="rgb(165, 139, 102)" opacity="0.6656508" stroke="rgb(0, 0, 0)" stroke-opacity="0.0" stroke-linecap="round" stroke-linejoin="round"/>
    <path d="M 308.87451171875 216.22308349609375 C 313.7568359375 224.570556640625 304.7851257324219 240.29457092285156 317.72955322265625 241.60423278808594 C 315.9016418457031 233.9429931640625 321.2001647949219 215.64085388183594 308.87451171875 216.22308349609375" stroke-width="2.0" fill="rgb(231, 211, 178)" opacity="0.8591534" stroke="rgb(0, 0, 0)" stroke-opacity="0.0" stroke-linecap="round" stroke-linejoin="round"/>
    <path d="M 90.80799865722656 226.9986572265625 C 92.82459259033203 236.4728546142578 85.18556213378906 250.93377685546875 100.31786346435547 245.15206909179688 C 97.42205047607422 236.6833038330078 104.89666748046875 222.18260192871094 90.80799865722656 226.9986572265625" stroke-width="2.0" fill="rgb(37, 70, 116)" opacity="1.0023876" stroke="rgb(0, 0, 0)" stroke-opacity="0.0" stroke-linecap="round" stroke-linejoin="round"/>
    <path d="M 359.85516357421875 95.80573272705078 C 352.8680725097656 110.418701171875 382.73046875 110.41322326660156 374.0940856933594 95.84567260742188 L 359.85516357421875 95.80573272705078" stroke-width="2.0" fill="rgb(178, 184, 196)" opacity="1.0002394" stroke="rgb(0, 0, 0)" stroke-opacity="0.0" stroke-linecap="round" stroke-linejoin="round"/>
    <path d="M 30.12870216369629 162.0759735107422 C 38.99833297729492 169.3858642578125 28.313526153564453 186.35948181152344 39.936744689941406 187.59715270996094 C 37.23672103881836 176.35911560058594 47.687538146972656 156.37530517578125 30.12870216369629 162.0759735107422" stroke-width="2.0" fill="rgb(120, 133, 153)" opacity="0.81191784" stroke="rgb(0, 0, 0)" stroke-opacity="0.0" stroke-linecap="round" stroke-linejoin="round"/>
    <path d="M 22.261760711669922 237.6040496826172 C 33.078304290771484 249.74441528320312 46.331687927246094 256.72607421875 41.649845123291016 237.42507934570312 L 22.261760711669922 237.6040496826172" stroke-width="2.0" fill="rgb(-8, 37, 98)" opacity="0.6329249" stroke="rgb(0, 0, 0)" stroke-opacity="0.0" stroke-linecap="round" stroke-linejoin="round"/>
    <path d="M 259.0638732910156 243.1015167236328 C 260.3502502441406 253.13482666015625 252.6385498046875 267.12066650390625 261.38153076171875 274.21044921875 C 261.67596435546875 262.8275146484375 265.55865478515625 248.43605041503906 259.0638732910156 243.1015167236328" stroke-width="2.0" fill="rgb(142, 153, 164)" opacity="1.0025313" stroke="rgb(0, 0, 0)" stroke-opacity="0.0" stroke-linecap="round" stroke-linejoin="round"/>
    <path d="M 214.17750549316406 154.52418518066406 C 220.4816131591797 163.573974609375 209.42369079589844 179.68003845214844 222.94393920898438 174.13067626953125 C 220.45985412597656 165.5635223388672 227.73263549804688 149.2082061767578 214.17750549316406 154.52418518066406" stroke-width="2.0" fill="rgb(56, 68, 89)" opacity="0.9338894" stroke="rgb(0, 0, 0)" stroke-opacity="0.0" stroke-linecap="round" stroke-linejoin="round"/>
    <path d="M 384.064453125 505.184814453125 C 381.571533203125 518.3553466796875 398.9859313964844 511.4050598144531 409.92254638671875 511.9631652832031 C 411.1874084472656 500.82958984375 393.35443115234375 508.4539489746094 384.064453125 505.184814453125" stroke-width="2.0" fill="rgb(4, 46, 102)" opacity="0.92804295" stroke="rgb(0, 0, 0)" stroke-opacity="0.0" stroke-linecap="round" stroke-linejoin="round"/>
    <path d="M 55.47565841674805 224.73941040039062 C 54.623382568359375 231.36622619628906 50.23628616333008 247.19131469726562 61.0520133972168 244.96575927734375 C 59.59960174560547 237.9644775390625 65.42076873779297 224.8196563720703 55.47565841674805 224.73941040039062" stroke-width="2.0" fill="rgb(127, 143, 163)" opacity="0.99649924" stroke="rgb(0, 0, 0)" stroke-opacity="0.0" stroke-linecap="round" stroke-linejoin="round"/>
    <path d="M 199.97906494140625 31.84592628479004 C 194.73751831054688 43.73830032348633 220.16014099121094 42.10062026977539 215.0424346923828 31.852630615234375 L 199.97906494140625 31.84592628479004" stroke-width="2.0" fill="rgb(168, 180, 194)" opacity="0.9997903" stroke="rgb(0, 0, 0)" stroke-opacity="0.0" stroke-linecap="round" stroke-linejoin="round"/>
    <path d="M 335.8962707519531 96.90081024169922 C 333.24249267578125 106.4554672241211 356.24359130859375 106.11164093017578 351.0547790527344 95.95023345947266 L 335.8962707519531 96.90081024169922" stroke-width="2.0" fill="rgb(178, 184, 196)" opacity="1.0008217" stroke="rgb(0, 0, 0)" stroke-opacity="0.0" stroke-linecap="round" stroke-linejoin="round"/>
    <path d="M 289.1347351074219 262.00054931640625 C 289.8473815917969 265.3138732910156 297.6092224121094 272.59161376953125 302.9306335449219 271.1091613769531 C 303.7293701171875 260.9859924316406 299.1065979003906 255.28932189941406 289.1347351074219 262.00054931640625" stroke-width="2.0" fill="rgb(101, 101, 88)" opacity="0.9647975" stroke="rgb(0, 0, 0)" stroke-opacity="0.0" stroke-linecap="round" stroke-linejoin="round"/>
    <path d="M 155.78599548339844 154.83273315429688 C 155.14683532714844 160.84530639648438 151.65354919433594 177.89755249023438 162.5447540283203 171.00807189941406 C 160.55105590820312 164.0567626953125 166.10284423828125 151.2748565673828 155.78599548339844 154.83273315429688" stroke-width="2.0" fill="rgb(28, 62, 104)" opacity="0.99795943" stroke="rgb(0, 0, 0)" stroke-opacity="0.0" stroke-linecap="round" stroke-linejoin="round"/>
    <path d="M 378.27008056640625 361.4613037109375 C 376.421630859375 385.1954040527344 379.4225769042969 372.5391540527344 394.2091369628906 376.9597473144531 C 399.08111572265625 364.3705749511719 387.2255859375 372.07073974609375 378.27008056640625 361.4613037109375" stroke-width="2.0" fill="rgb(80, 87, 57)" opacity="1.008941" stroke="rgb(0, 0, 0)" stroke-opacity="0.0" stroke-linecap="round" stroke-linejoin="round"/>
    <path d="M 32.58322525024414 167.92640686035156 C 34.98067092895508 176.7501678466797 28.495023727416992 192.36761474609375 39.201446533203125 185.7705535888672 C 36.851905822753906 178.77635192871094 42.51144790649414 162.77659606933594 32.58322525024414 167.92640686035156" stroke-width="2.0" fill="rgb(15, 41, 91)" opacity="0.9150642" stroke="rgb(0, 0, 0)" stroke-opacity="0.0" stroke-linecap="round" stroke-linejoin="round"/>
    <path d="M 199.94407653808594 154.63980102539062 C 205.45953369140625 162.47743225097656 195.9142303466797 176.30490112304688 208.09234619140625 172.18484497070312 C 206.01919555664062 164.362548828125 212.9517059326172 149.57411193847656 199.94407653808594 154.63980102539062" stroke-width="2.0" fill="rgb(71, 81, 108)" opacity="1.0118167" stroke="rgb(0, 0, 0)" stroke-opacity="0.0" stroke-linecap="round" stroke-linejoin="round"/>
    <path d="M 94.08698272705078 403.3064880371094 C 89.07211303710938 414.8785705566406 117.84285736083984 413.5311279296875 113.54308319091797 403.3941345214844 L 94.08698272705078 403.3064880371094" stroke-width="2.0" fill="rgb(160, 161, 168)" opacity="1.201178" stroke="rgb(0, 0, 0)" stroke-opacity="0.0" stroke-linecap="round" stroke-linejoin="round"/>
    <path d="M 153.89669799804688 289.4128112792969 C 154.750244140625 296.9601135253906 149.85723876953125 307.01361083984375 161.874267578125 302.2386169433594 C 159.6389923095703 293.9475402832031 165.93923950195312 283.796142578125 153.89669799804688 289.4128112792969" stroke-width="2.0" fill="rgb(-10, 24, 76)" opacity="0.8400545" stroke="rgb(0, 0, 0)" stroke-opacity="0.0" stroke-linecap="round" stroke-linejoin="round"/>
    <path d="M 204.96788024902344 233.54527282714844 C 206.9182586669922 238.73509216308594 201.67929077148438 250.45480346679688 212.74066162109375 245.83126831054688 C 211.00436401367188 239.25230407714844 216.12844848632812 229.14259338378906 204.96788024902344 233.54527282714844" stroke-width="2.0" fill="rgb(19, 53, 100)" opacity="1.0381005" stroke="rgb(0, 0, 0)" stroke-opacity="0.0" stroke-linecap="round" stroke-linejoin="round"/>
    <path d="M 261.069580078125 271.7627258300781 C 246.294677734375 270.709228515625 252.33511352539062 289.4370422363281 261.0397644042969 284.2646179199219 L 261.069580078125 271.7627258300781" stroke-width="2.0" fill="rgb(84, 73, 66)" opacity="0.8987217" stroke="rgb(0, 0, 0)" stroke-opacity="0.0" stroke-linecap="round" stroke-linejoin="round"/>
    <path d="M 218.4830322265625 141.3452606201172 C 204.91580200195312 153.80972290039062 229.9166717529297 155.76902770996094 223.95965576171875 142.41270446777344 C 222.31883239746094 140.0668487548828 220.51116943359375 140.0370330810547 218.4830322265625 141.3452606201172" stroke-width="2.0" fill="rgb(167, 166, 171)" opacity="0.8343194" stroke="rgb(0, 0, 0)" stroke-opacity="0.0" stroke-linecap="round" stroke-linejoin="round"/>
    <path d="M 281.3603210449219 192.10317993164062 C 280.716796875 198.14845275878906 277.4730529785156 211.15322875976562 286.37139892578125 208.7529754638672 C 285.91412353515625 202.40330505371094 289.09417724609375 191.90000915527344 281.3603210449219 192.10317993164062" stroke-width="2.0" fill="rgb(121, 131, 147)" opacity="0.72813904" stroke="rgb(0, 0, 0)" stroke-opacity="0.0" stroke-linecap="round" stroke-linejoin="round"/>
    <path d="M 132.44107055664062 153.23069763183594 C 131.3502655029297 159.22671508789062 128.0515899658203 176.01242065429688 137.01675415039062 170.3515167236328 C 135.2857666015625 163.25286865234375 139.98483276367188 152.59666442871094 132.44107055664062 153.23069763183594" stroke-width="2.0" fill="rgb(43, 73, 119)" opacity="1.0162361" stroke="rgb(0, 0, 0)" stroke-opacity="0.0" stroke-linecap="round" stroke-linejoin="round"/>
    <path d="M 39.89926528930664 177.56222534179688 C 33.68075180053711 190.4109344482422 57.29304885864258 192.01707458496094 49.87012481689453 179.8573455810547 L 39.89926528930664 177.56222534179688" stroke-width="2.0" fill="rgb(182, 181, 181)" opacity="0.99184155" stroke="rgb(0, 0, 0)" stroke-opacity="0.0" stroke-linecap="round" stroke-linejoin="round"/>
    <path d="M 90.2975845336914 151.41567993164062 C 91.0235366821289 157.52542114257812 86.8088150024414 172.22998046875 95.92774963378906 167.22547912597656 C 93.73624420166016 160.4668731689453 99.37146759033203 148.404541015625 90.2975845336914 151.41567993164062" stroke-width="2.0" fill="rgb(53, 81, 119)" opacity="1.0309547" stroke="rgb(0, 0, 0)" stroke-opacity="0.0" stroke-linecap="round" stroke-linejoin="round"/>
    <path d="M 233.56463623046875 179.66578674316406 C 232.62295532226562 189.18336486816406 254.4287872314453 189.00173950195312 247.5686492919922 179.46157836914062 L 233.56463623046875 179.66578674316406" stroke-width="2.0" fill="rgb(218, 203, 185)" opacity="1.0104786" stroke="rgb(0, 0, 0)" stroke-opacity="0.0" stroke-linecap="round" stroke-linejoin="round"/>
    <path d="M 217.65489196777344 187.1964874267578 C 217.17652893066406 192.56524658203125 215.1654052734375 202.9426727294922 223.2391357421875 200.3004608154297 C 222.23817443847656 195.8782958984375 226.56260681152344 186.29202270507812 217.65489196777344 187.1964874267578" stroke-width="2.0" fill="rgb(165, 166, 172)" opacity="0.9945301" stroke="rgb(0, 0, 0)" stroke-opacity="0.0" stroke-linecap="round" stroke-linejoin="round"/>
    <path d="M 1.8915214538574219 160.70785522460938 C 4.266783237457275 168.25767517089844 -2.0380568504333496 178.29978942871094 8.134185791015625 175.1759033203125 C 6.081315994262695 168.10089111328125 11.691847801208496 156.5711212158203 1.8915214538574219 160.70785522460938" stroke-width="2.0" fill="rgb(56, 83, 118)" opacity="1.030523" stroke="rgb(0, 0, 0)" stroke-opacity="0.0" stroke-linecap="round" stroke-linejoin="round"/>
    <path d="M 295.9271240234375 100.897216796875 C 291.8125915527344 114.01573181152344 307.2078857421875 114.01718139648438 303.1218566894531 100.89401245117188 L 295.9271240234375 100.897216796875" stroke-width="2.0" fill="rgb(179, 185, 197)" opacity="1.000544" stroke="rgb(0, 0, 0)" stroke-opacity="0.0" stroke-linecap="round" stroke-linejoin="round"/>
    <path d="M 22.626392364501953 218.929443359375 C 23.814064025878906 224.6197967529297 19.759111404418945 237.84535217285156 28.178739547729492 232.19773864746094 C 26.412212371826172 226.16505432128906 31.38517189025879 214.46450805664062 22.626392364501953 218.929443359375" stroke-width="2.0" fill="rgb(47, 76, 112)" opacity="1.0948207" stroke="rgb(0, 0, 0)" stroke-opacity="0.0" stroke-linecap="round" stroke-linejoin="round"/>
    <path d="M 88.80692291259766 4.972882270812988 C 82.1875991821289 17.050203323364258 99.43370819091797 18.825231552124023 95.1475830078125 5.94377326965332 L 88.80692291259766 4.972882270812988" stroke-width="2.0" fill="rgb(165, 179, 194)" opacity="1.0004809" stroke="rgb(0, 0, 0)" stroke-opacity="0.0" stroke-linecap="round" stroke-linejoin="round"/>
    <path d="M 348.2874450683594 284.48681640625 C 350.95489501953125 290.7590637207031 367.3668518066406 300.6376037597656 360.06365966796875 288.8887634277344 L 348.2874450683594 284.48681640625" stroke-width="2.0" fill="rgb(106, 96, 96)" opacity="1.0018268" stroke="rgb(0, 0, 0)" stroke-opacity="0.0" stroke-linecap="round" stroke-linejoin="round"/>
    <path d="M 15.926783561706543 63.929386138916016 C 14.897518157958984 69.09000396728516 16.227563858032227 75.52172088623047 23.0616512298584 74.04563903808594 C 23.31031036376953 66.41676330566406 24.21722412109375 62.41710662841797 15.926783561706543 63.929386138916016" stroke-width="2.0" fill="rgb(168, 180, 194)" opacity="1.0003234" stroke="rgb(0, 0, 0)" stroke-opacity="0.0" stroke-linecap="round" stroke-linejoin="round"/>
    <path d="M 196.13037109375 111.80875396728516 C 199.78309631347656 120.81558990478516 194.55697631835938 133.58847045898438 200.69158935546875 139.4375762939453 C 199.86026000976562 127.29346466064453 203.24806213378906 116.64181518554688 196.13037109375 111.80875396728516" stroke-width="2.0" fill="rgb(92, 112, 134)" opacity="0.91206056" stroke="rgb(0, 0, 0)" stroke-opacity="0.0" stroke-linecap="round" stroke-linejoin="round"/>
    <path d="M 208.5189666748047 140.1071014404297 C 201.5103759765625 141.75897216796875 199.34718322753906 158.92306518554688 210.3736114501953 148.6527862548828 C 215.19496154785156 148.8585205078125 212.80453491210938 144.11691284179688 208.5189666748047 140.1071014404297" stroke-width="2.0" fill="rgb(89, 110, 134)" opacity="1.0087028" stroke="rgb(0, 0, 0)" stroke-opacity="0.0" stroke-linecap="round" stroke-linejoin="round"/>
    <path d="M 207.85606384277344 118.7011947631836 C 209.5159149169922 124.58617401123047 204.73895263671875 138.38111877441406 212.7455596923828 133.6648712158203 C 211.18983459472656 126.68737030029297 215.76513671875 114.9603042602539 207.85606384277344 118.7011947631836" stroke-width="2.0" fill="rgb(53, 60, 87)" opacity="1.0336531" stroke="rgb(0, 0, 0)" stroke-opacity="0.0" stroke-linecap="round" stroke-linejoin="round"/>
    <path d="M 240.18299865722656 215.84320068359375 C 242.37608337402344 222.18618774414062 236.93472290039062 235.4722137451172 245.66200256347656 231.54432678222656 C 244.17564392089844 225.67388916015625 248.422119140625 214.9206085205078 240.18299865722656 215.84320068359375" stroke-width="2.0" fill="rgb(76, 80, 81)" opacity="0.9770515" stroke="rgb(0, 0, 0)" stroke-opacity="0.0" stroke-linecap="round" stroke-linejoin="round"/>
    <path d="M 266.6449890136719 255.90713500976562 C 263.4861145019531 272.0780944824219 276.6263427734375 271.4696044921875 274.3957824707031 255.33914184570312 L 266.6449890136719 255.90713500976562" stroke-width="2.0" fill="rgb(136, 150, 166)" opacity="0.95166665" stroke="rgb(0, 0, 0)" stroke-opacity="0.0" stroke-linecap="round" stroke-linejoin="round"/>
    <path d="M 233.3370819091797 232.21498107910156 C 232.36842346191406 238.6822967529297 230.05067443847656 251.25103759765625 235.0079803466797 253.7769775390625 C 234.65435791015625 245.5127410888672 236.7007598876953 234.06161499023438 233.3370819091797 232.21498107910156" stroke-width="2.0" fill="rgb(103, 124, 148)" opacity="1.067998" stroke="rgb(0, 0, 0)" stroke-opacity="0.0" stroke-linecap="round" stroke-linejoin="round"/>
    <path d="M 217.855224609375 117.9229965209961 C 219.36151123046875 124.2168960571289 215.34654235839844 137.35011291503906 221.89288330078125 135.15614318847656 C 221.62413024902344 127.91211700439453 225.2487030029297 115.13609313964844 217.855224609375 117.9229965209961" stroke-width="2.0" fill="rgb(49, 68, 112)" opacity="0.99526215" stroke="rgb(0, 0, 0)" stroke-opacity="0.0" stroke-linecap="round" stroke-linejoin="round"/>
    <path d="M 259.28314208984375 205.3419647216797 C 262.9404296875 211.6517791748047 257.2587585449219 224.15249633789062 264.7844543457031 222.31243896484375 C 264.2486572265625 216.1342010498047 268.29620361328125 205.72857666015625 259.28314208984375 205.3419647216797" stroke-width="2.0" fill="rgb(162, 160, 160)" opacity="1.0826949" stroke="rgb(0, 0, 0)" stroke-opacity="0.0" stroke-linecap="round" stroke-linejoin="round"/>
    <path d="M 172.92828369140625 263.7293701171875 C 174.76304626464844 269.9046325683594 169.73130798339844 281.61572265625 177.56797790527344 277.0187072753906 C 175.96372985839844 270.3026123046875 180.0858612060547 258.89678955078125 172.92828369140625 263.7293701171875" stroke-width="2.0" fill="rgb(59, 81, 111)" opacity="1.074373" stroke="rgb(0, 0, 0)" stroke-opacity="0.0" stroke-linecap="round" stroke-linejoin="round"/>
    <path d="M 187.14825439453125 260.73663330078125 C 188.6768341064453 266.71966552734375 184.1649627685547 279.8828125 191.7073516845703 276.104736328125 C 189.79946899414062 268.4541931152344 193.72337341308594 256.9479064941406 187.14825439453125 260.73663330078125" stroke-width="2.0" fill="rgb(86, 111, 133)" opacity="1.050127" stroke="rgb(0, 0, 0)" stroke-opacity="0.0" stroke-linecap="round" stroke-linejoin="round"/>
    <path d="M 43.59286880493164 103.65726470947266 C 45.22966384887695 109.02386474609375 40.13721466064453 119.4229736328125 49.34599685668945 115.02339935302734 C 47.29203796386719 109.24537658691406 52.91182327270508 99.23917388916016 43.59286880493164 103.65726470947266" stroke-width="2.0" fill="rgb(45, 68, 107)" opacity="0.9974635" stroke="rgb(0, 0, 0)" stroke-opacity="0.0" stroke-linecap="round" stroke-linejoin="round"/>
    <path d="M 215.94073486328125 144.3267822265625 C 211.73394775390625 156.43768310546875 220.25645446777344 139.09388732910156 225.87368774414062 150.36984252929688 C 226.9754638671875 144.55255126953125 221.50326538085938 135.45309448242188 215.94073486328125 144.3267822265625" stroke-width="2.0" fill="rgb(72, 93, 126)" opacity="1.0617447" stroke="rgb(0, 0, 0)" stroke-opacity="0.0" stroke-linecap="round" stroke-linejoin="round"/>
    <path d="M 139.98143005371094 39.97465896606445 C 141.32498168945312 44.59269714355469 136.7572784423828 55.1711311340332 142.97315979003906 55.01868438720703 C 141.9111785888672 50.46272659301758 145.43899536132812 41.270103454589844 139.98143005371094 39.97465896606445" stroke-width="2.0" fill="rgb(167, 181, 194)" opacity="1.0002552" stroke="rgb(0, 0, 0)" stroke-opacity="0.0" stroke-linecap="round" stroke-linejoin="round"/>
    <path d="M 183.28514099121094 153.12490844726562 C 178.0605926513672 155.5546417236328 179.2448272705078 172.81057739257812 183.54478454589844 169.94229125976562 L 183.28514099121094 153.12490844726562" stroke-width="2.0" fill="rgb(102, 125, 141)" opacity="1.0518348" stroke="rgb(0, 0, 0)" stroke-opacity="0.0" stroke-linecap="round" stroke-linejoin="round"/>
    <path d="M 360.9639892578125 72.00525665283203 C 354.7137451171875 86.73395538330078 377.07708740234375 73.86894989013672 360.9639892578125 72.00525665283203" stroke-width="2.0" fill="rgb(177, 181, 193)" opacity="1.0002756" stroke="rgb(0, 0, 0)" stroke-opacity="0.0" stroke-linecap="round" stroke-linejoin="round"/>
    <path d="M 231.98983764648438 231.87277221679688 C 235.20594787597656 238.44334411621094 229.25868225097656 250.90338134765625 233.47344970703125 254.09912109375 L 231.98983764648438 231.87277221679688" stroke-width="2.0" fill="rgb(111, 125, 156)" opacity="1.0906454" stroke="rgb(0, 0, 0)" stroke-opacity="0.0" stroke-linecap="round" stroke-linejoin="round"/>
    <path d="M 36.245872497558594 101.4184341430664 C 32.62165832519531 103.31293487548828 31.09746742248535 112.92707061767578 35.179786682128906 117.84968566894531 C 37.61362075805664 113.08673858642578 35.42139434814453 107.91312408447266 36.245872497558594 101.4184341430664" stroke-width="2.0" fill="rgb(103, 116, 137)" opacity="1.0495683" stroke="rgb(0, 0, 0)" stroke-opacity="0.0" stroke-linecap="round" stroke-linejoin="round"/>
    <path d="M 371.136962890625 298.98828125 C 365.6649169921875 306.3770751953125 377.22222900390625 319.6964416503906 377.0124206542969 308.5831604003906 L 371.136962890625 298.98828125" stroke-width="2.0" fill="rgb(65, 64, 70)" opacity="1.0357972" stroke="rgb(0, 0, 0)" stroke-opacity="0.0" stroke-linecap="round" stroke-linejoin="round"/>
    <path d="M 152.7698211669922 108.38714599609375 C 147.33209228515625 121.43885803222656 162.09698486328125 121.22582244873047 152.7698211669922 108.38714599609375" stroke-width="2.0" fill="rgb(177, 184, 188)" opacity="0.9088306" stroke="rgb(0, 0, 0)" stroke-opacity="0.0" stroke-linecap="round" stroke-linejoin="round"/>
    <path d="M 234.65980529785156 189.1428680419922 C 235.46051025390625 194.29908752441406 233.03536987304688 200.47596740722656 236.72181701660156 204.15542602539062 C 238.59425354003906 198.83731079101562 240.876953125 189.6543426513672 234.65980529785156 189.1428680419922" stroke-width="2.0" fill="rgb(187, 188, 183)" opacity="1.2373298" stroke="rgb(0, 0, 0)" stroke-opacity="0.0" stroke-linecap="round" stroke-linejoin="round"/>
    <path d="M 62.874141693115234 169.2822265625 C 57.34450149536133 187.39161682128906 72.40975952148438 180.82171630859375 62.874141693115234 169.2822265625" stroke-width="2.0" fill="rgb(78, 94, 115)" opacity="1.0739657" stroke="rgb(0, 0, 0)" stroke-opacity="0.0" stroke-linecap="round" stroke-linejoin="round"/>
    <path d="M 112.84966278076172 150.990966796875 C 108.58631896972656 170.07899475097656 120.56490325927734 160.08547973632812 112.84966278076172 150.990966796875" stroke-width="2.0" fill="rgb(181, 179, 174)" opacity="1.0310546" stroke="rgb(0, 0, 0)" stroke-opacity="0.0" stroke-linecap="round" stroke-linejoin="round"/>
    <path d="M 20.680866241455078 135.115478515625 C 16.30377197265625 150.644775390625 29.65406036376953 141.38250732421875 20.680866241455078 135.115478515625" stroke-width="2.0" fill="rgb(110, 128, 143)" opacity="1.0871323" stroke="rgb(0, 0, 0)" stroke-opacity="0.0" stroke-linecap="round" stroke-linejoin="round"/>
    <path d="M 375.79913330078125 219.69798278808594 C 376.28277587890625 229.34072875976562 389.5308837890625 217.07876586914062 375.79913330078125 219.69798278808594" stroke-width="2.0" fill="rgb(121, 139, 168)" opacity="1.0006424" stroke="rgb(0, 0, 0)" stroke-opacity="0.0" stroke-linecap="round" stroke-linejoin="round"/>
    <path d="M 74.42584228515625 103.82962799072266 C 72.16426849365234 120.49807739257812 77.5857925415039 115.63750457763672 74.42584228515625 103.82962799072266" stroke-width="2.0" fill="rgb(119, 119, 125)" opacity="1.1331023" stroke="rgb(0, 0, 0)" stroke-opacity="0.0" stroke-linecap="round" stroke-linejoin="round"/>
    <path d="M 195.1863250732422 263.9357604980469 C 192.9105987548828 267.3209228515625 191.34396362304688 270.7061767578125 195.9807586669922 274.0760498046875 L 195.1863250732422 263.9357604980469" stroke-width="2.0" fill="rgb(248, 240, 219)" opacity="1.005656" stroke="rgb(0, 0, 0)" stroke-opacity="0.0" stroke-linecap="round" stroke-linejoin="round"/>
    <path d="M 191.94020080566406 161.87286376953125 C 186.06216430664062 176.70074462890625 198.94894409179688 173.0478057861328 191.94020080566406 161.87286376953125" stroke-width="2.0" fill="rgb(91, 91, 94)" opacity="1.1367701" stroke="rgb(0, 0, 0)" stroke-opacity="0.0" stroke-linecap="round" stroke-linejoin="round"/>
    <path d="M 210.33766174316406 85.01351928710938 C 206.52920532226562 93.01496124267578 218.00865173339844 93.36813354492188 210.33766174316406 85.01351928710938" stroke-width="2.0" fill="rgb(174, 177, 178)" opacity="1.1400163" stroke="rgb(0, 0, 0)" stroke-opacity="0.0" stroke-linecap="round" stroke-linejoin="round"/>
    <path d="M 37.688934326171875 139.54330444335938 C 32.545066833496094 152.17514038085938 45.64519500732422 147.2504119873047 37.688934326171875 139.54330444335938" stroke-width="2.0" fill="rgb(162, 164, 154)" opacity="1.0232745" stroke="rgb(0, 0, 0)" stroke-opacity="0.0" stroke-linecap="round" stroke-linejoin="round"/>
    <path d="M 402.7333068847656 295.8197937011719 C 393.7352294921875 302.6334228515625 391.8297119140625 311.1177978515625 402.7055969238281 319.2986145019531 L 402.7333068847656 295.8197937011719" stroke-width="2.0" fill="rgb(32, 92, 150)" opacity="1.0070236" stroke="rgb(0, 0, 0)" stroke-opacity="0.0" stroke-linecap="round" stroke-linejoin="round"/>
    <path d="M 391.9865417480469 103.91175079345703 C 394.2401428222656 110.2618179321289 404.3304138183594 102.1641616821289 391.9865417480469 103.91175079345703" stroke-width="2.0" fill="rgb(179, 184, 196)" opacity="1.0001996" stroke="rgb(0, 0, 0)" stroke-opacity="0.0" stroke-linecap="round" stroke-linejoin="round"/>
    <path d="M 184.10816955566406 265.98333740234375 C 182.29962158203125 275.9005432128906 186.38600158691406 275.8885192871094 184.10816955566406 265.98333740234375" stroke-width="2.0" fill="rgb(253, 241, 219)" opacity="1.0072995" stroke="rgb(0, 0, 0)" stroke-opacity="0.0" stroke-linecap="round" stroke-linejoin="round"/>
    <path d="M 29.79510498046875 136.84759521484375 C 25.467655181884766 150.7587890625 37.6798095703125 144.908935546875 29.79510498046875 136.84759521484375" stroke-width="2.0" fill="rgb(141, 150, 158)" opacity="0.9980297" stroke="rgb(0, 0, 0)" stroke-opacity="0.0" stroke-linecap="round" stroke-linejoin="round"/>
    <path d="M 216.26382446289062 289.1427307128906 C 216.0546875 293.2035217285156 226.1675262451172 288.7845458984375 216.26382446289062 289.1427307128906" stroke-width="2.0" fill="rgb(186, 182, 175)" opacity="1.0059034" stroke="rgb(0, 0, 0)" stroke-opacity="0.0" stroke-linecap="round" stroke-linejoin="round"/>
  </g>
</svg>
