<?xml version="1.0" ?>
<svg xmlns="http://www.w3.org/2000/svg" version="1.1" width="359" height="512">
  <defs/>
  <g>
    <path d="M 223.79994201660156 429.2054748535156 C 224.0034942626953 401.9316101074219 223.9542694091797 426.5375671386719 223.01353454589844 470.70867919921875 C 222.64871215820312 448.3768615722656 222.1581573486328 412.87213134765625 220.3721466064453 476.0179443359375 C 221.9250946044922 350.1861572265625 215.61219787597656 272.3312072753906 222.7796173095703 329.1163635253906 C 222.96983337402344 386.5166931152344 223.2159881591797 410.9867248535156 223.79994201660156 429.2054748535156" stroke-width="0.0" fill="rgb(0, 0, 0)" opacity="0.9574223" stroke="rgb(243, 233, 65)" stroke-opacity="0.8161581" stroke-linecap="round" stroke-linejoin="round"/>
    <path d="M 366.2825012207031 93.90016174316406 C 363.6798095703125 107.67743682861328 361.4784240722656 109.42555236816406 250.96920776367188 130.69903564453125 C 228.34765625 270.9935607910156 224.79588317871094 302.3424987792969 177.31222534179688 87.46475982666016 C 147.66050720214844 -63.49850845336914 199.331787109375 -42.656803131103516 381.3506164550781 1.6333584785461426 C 377.9929504394531 51.54071044921875 373.88916015625 55.911258697509766 366.2825012207031 93.90016174316406" stroke-width="0.0" fill="rgb(245, 252, 255)" opacity="0.8031167" stroke="rgb(141, 71, 219)" stroke-opacity="0.46461618" stroke-linecap="round" stroke-linejoin="round"/>
    <path d="M 369.51043701171875 125.84063720703125 C 365.5655517578125 129.40806579589844 385.4785461425781 138.5055389404297 351.2120666503906 150.7737274169922 C 256.79547119140625 190.29351806640625 214.0882568359375 207.2982177734375 248.86962890625 156.39083862304688 C 329.9790954589844 86.92464447021484 336.3468322753906 92.07332611083984 348.2220764160156 91.09153747558594 C 366.5530090332031 96.58690643310547 368.2418518066406 94.99659729003906 369.51043701171875 125.84063720703125" stroke-width="0.0" fill="rgb(253, 254, 255)" opacity="0.81854975" stroke="rgb(4, 243, 38)" stroke-opacity="0.6887928" stroke-linecap="round" stroke-linejoin="round"/>
    <path d="M 249.5497589111328 300.8368225097656 C 250.89598083496094 314.804443359375 249.862548828125 334.4266357421875 251.58767700195312 399.2699890136719 C 246.036376953125 383.4256286621094 247.79103088378906 340.29888916015625 247.651123046875 339.6954345703125 C 246.31405639648438 367.5828552246094 247.97799682617188 335.82012939453125 246.42718505859375 292.54168701171875 C 304.3963623046875 288.19671630859375 249.0234832763672 310.0533447265625 249.5497589111328 300.8368225097656" stroke-width="0.0" fill="rgb(5, 6, 5)" opacity="1.0" stroke="rgb(227, 73, 67)" stroke-opacity="0.9633885" stroke-linecap="round" stroke-linejoin="round"/>
    <path d="M 247.38710021972656 525.5343017578125 C 245.1710968017578 442.8112487792969 250.06951904296875 453.6910095214844 241.683349609375 451.0953063964844 C 241.9072723388672 383.8016662597656 239.37673950195312 385.8062438964844 236.2363739013672 429.6202392578125 C 223.7045135498047 372.6750793457031 248.11575317382812 408.84539794921875 240.56942749023438 401.75323486328125 C 247.62974548339844 387.02020263671875 246.56243896484375 372.43182373046875 247.38710021972656 525.5343017578125" stroke-width="0.0" fill="rgb(0, 0, 1)" opacity="0.9423527" stroke="rgb(43, 30, 82)" stroke-opacity="0.53430307" stroke-linecap="round" stroke-linejoin="round"/>
    <path d="M 252.4861297607422 444.3108215332031 C 253.72181701660156 454.5498352050781 246.75051879882812 478.6799011230469 249.72447204589844 396.1378479003906 C 243.22349548339844 381.3910217285156 241.84788513183594 425.46630859375 241.01382446289062 394.77239990234375 C 252.83383178710938 389.8787536621094 248.92996215820312 395.1906433105469 249.2054901123047 416.6708679199219 C 245.55189514160156 341.4602966308594 251.88931274414062 354.8790283203125 252.4861297607422 444.3108215332031" stroke-width="0.0" fill="rgb(0, 3, 2)" opacity="0.9844293" stroke="rgb(198, 188, 199)" stroke-opacity="0.1877008" stroke-linecap="round" stroke-linejoin="round"/>
    <path d="M 152.4056854248047 421.2186279296875 C 152.0193328857422 427.52264404296875 154.85618591308594 426.5796203613281 144.12704467773438 423.4249572753906 C 144.3632049560547 399.7140197753906 144.799072265625 393.14019775390625 144.34523010253906 383.0997009277344 C 145.42396545410156 404.31640625 144.67861938476562 399.10791015625 144.808349609375 384.812744140625 C 155.86300659179688 392.79364013671875 151.6505126953125 377.80877685546875 152.4056854248047 421.2186279296875" stroke-width="0.0" fill="rgb(0, 2, 3)" opacity="0.98529315" stroke="rgb(103, 112, 233)" stroke-opacity="0.66743803" stroke-linecap="round" stroke-linejoin="round"/>
    <path d="M 113.22703552246094 36.063167572021484 C 106.12184143066406 53.65742492675781 105.89480590820312 60.30324172973633 85.1278305053711 67.05364990234375 C 64.37056732177734 65.703369140625 59.93906784057617 63.717041015625 61.77094650268555 42.901512145996094 C 70.41575622558594 24.678102493286133 75.61741638183594 22.722681045532227 100.92144012451172 19.035762786865234 C 108.92682647705078 18.971555709838867 113.6512680053711 19.89739418029785 113.22703552246094 36.063167572021484" stroke-width="0.0" fill="rgb(238, 239, 241)" opacity="0.7575546" stroke="rgb(95, 249, 184)" stroke-opacity="0.15187533" stroke-linecap="round" stroke-linejoin="round"/>
    <path d="M 110.72926330566406 15.678564071655273 C 100.67317962646484 35.756038665771484 97.39225769042969 40.3848876953125 56.26320266723633 50.44304656982422 C 49.40903854370117 55.66900634765625 49.558372497558594 49.5864372253418 21.33600425720215 -1.3790357112884521 C 33.08290100097656 -21.3062801361084 47.977230072021484 -13.07102108001709 85.67416381835938 -11.528449058532715 C 109.27423858642578 -7.245523452758789 111.01002502441406 -4.422598361968994 110.72926330566406 15.678564071655273" stroke-width="0.0" fill="rgb(237, 241, 245)" opacity="0.9302231" stroke="rgb(242, 228, 129)" stroke-opacity="0.032927465" stroke-linecap="round" stroke-linejoin="round"/>
    <path d="M 162.89857482910156 73.84050750732422 C 156.01402282714844 120.25565338134766 160.6822967529297 98.3016357421875 146.16305541992188 104.1254653930664 C 103.30001831054688 92.45989227294922 102.54131317138672 88.92976379394531 96.3666000366211 76.1765365600586 C 99.96739959716797 45.87108612060547 105.09293365478516 41.54412841796875 162.83663940429688 26.416316986083984 C 167.55618286132812 12.327241897583008 173.02215576171875 15.162562370300293 162.89857482910156 73.84050750732422" stroke-width="0.0" fill="rgb(237, 240, 242)" opacity="0.92269206" stroke="rgb(42, 214, 11)" stroke-opacity="0.15816084" stroke-linecap="round" stroke-linejoin="round"/>
    <path d="M 133.15966796875 45.57781982421875 C 128.16586303710938 69.53961944580078 125.32293701171875 71.44803619384766 103.22635650634766 79.13603973388672 C 85.79280853271484 78.46439361572266 87.25051879882812 73.8493423461914 79.94670104980469 62.6854248046875 C 89.14727783203125 35.23943328857422 91.62425231933594 32.42009735107422 114.96895599365234 23.308740615844727 C 133.07078552246094 25.662994384765625 134.40403747558594 27.273038864135742 133.15966796875 45.57781982421875" stroke-width="0.0" fill="rgb(237, 240, 241)" opacity="0.7967199" stroke="rgb(185, 201, 139)" stroke-opacity="0.7362044" stroke-linecap="round" stroke-linejoin="round"/>
    <path d="M 166.6564483642578 23.155975341796875 C 155.18386840820312 47.60607147216797 150.1624755859375 46.29194259643555 132.5475616455078 46.340972900390625 C 97.84585571289062 44.02271270751953 95.85356140136719 41.19461441040039 90.41287231445312 17.5062313079834 C 90.16425323486328 -10.94127368927002 94.18387603759766 -9.728731155395508 112.45832061767578 -10.843608856201172 C 180.68716430664062 -13.67500114440918 179.9527130126953 -28.181949615478516 166.6564483642578 23.155975341796875" stroke-width="0.0" fill="rgb(226, 227, 227)" opacity="0.9915062" stroke="rgb(215, 131, 217)" stroke-opacity="0.006271648" stroke-linecap="round" stroke-linejoin="round"/>
    <path d="M 150.1876983642578 104.91095733642578 C 129.55044555664062 265.5680847167969 179.15443420410156 298.2194519042969 75.4203872680664 166.46798706054688 C 93.13333129882812 146.43572998046875 117.8313217163086 118.1251220703125 71.107421875 65.97034454345703 C 84.4015121459961 66.56745147705078 87.15403747558594 63.973812103271484 101.72006225585938 62.89417266845703 C 124.92607879638672 67.68168640136719 136.50283813476562 69.09093475341797 150.1876983642578 104.91095733642578" stroke-width="0.0" fill="rgb(252, 255, 255)" opacity="0.7939277" stroke="rgb(215, 188, 81)" stroke-opacity="0.28891227" stroke-linecap="round" stroke-linejoin="round"/>
    <path d="M 108.91919708251953 72.54904174804688 C 107.2856674194336 113.81924438476562 116.05509185791016 104.31202697753906 81.52896881103516 108.59715270996094 C 70.32926940917969 88.65461730957031 67.0981674194336 82.39717102050781 53.596588134765625 58.11668014526367 C 38.06583023071289 30.014760971069336 34.580509185791016 26.778209686279297 65.94268035888672 38.78239440917969 C 99.44967651367188 50.58811950683594 102.33189392089844 53.083099365234375 108.91919708251953 72.54904174804688" stroke-width="0.0" fill="rgb(232, 233, 235)" opacity="1.0" stroke="rgb(63, 51, 70)" stroke-opacity="0.57215846" stroke-linecap="round" stroke-linejoin="round"/>
    <path d="M 366.80303955078125 500.5809020996094 C 374.91162109375 509.6171875 383.44000244140625 520.0152587890625 348.3633728027344 522.3438720703125 C 349.2720947265625 506.0678405761719 348.2527770996094 497.78741455078125 347.18463134765625 409.4033203125 C 357.7080383300781 418.2461853027344 332.3303527832031 405.0855407714844 359.6905822753906 388.0350036621094 C 431.3267822265625 392.3676452636719 376.4190979003906 449.6529541015625 366.80303955078125 500.5809020996094" stroke-width="0.0" fill="rgb(2, 0, 0)" opacity="0.9765985" stroke="rgb(141, 119, 92)" stroke-opacity="0.5967398" stroke-linecap="round" stroke-linejoin="round"/>
  </g>
</svg>
