<?xml version="1.0" ?>
<svg xmlns="http://www.w3.org/2000/svg" version="1.1" width="359" height="512">
  <defs/>
  <g>
    <path d="M 223.771728515625 429.09844970703125 C 224.0786590576172 401.94415283203125 224.02854919433594 426.5628967285156 222.9448699951172 471.0433044433594 C 222.89892578125 448.86456298828125 221.89743041992188 413.77935791015625 220.3009796142578 477.3965759277344 C 221.8850555419922 346.8017578125 215.57913208007812 272.58514404296875 222.8812255859375 328.562255859375 C 222.8697052001953 386.5417175292969 223.331298828125 410.224609375 223.771728515625 429.09844970703125" stroke-width="0.0" fill="rgb(0, 0, 0)" opacity="0.96729875" stroke="rgb(243, 233, 65)" stroke-opacity="0.8161581" stroke-linecap="round" stroke-linejoin="round"/>
    <path d="M 366.2827453613281 93.85347747802734 C 363.6452941894531 107.53648376464844 361.7622375488281 110.08291625976562 251.4341278076172 132.17201232910156 C 231.12103271484375 274.12774658203125 220.74923706054688 305.6181945800781 176.17584228515625 88.95757293701172 C 148.9607696533203 -63.23533248901367 201.38929748535156 -43.32434844970703 381.7193908691406 1.566953420639038 C 377.9929504394531 51.54071044921875 373.88916015625 55.911258697509766 366.2827453613281 93.85347747802734" stroke-width="0.0" fill="rgb(244, 250, 255)" opacity="0.81131923" stroke="rgb(141, 71, 219)" stroke-opacity="0.46461618" stroke-linecap="round" stroke-linejoin="round"/>
    <path d="M 369.5127258300781 125.89924621582031 C 365.86456298828125 129.87661743164062 385.56719970703125 138.3863525390625 351.1202392578125 150.79627990722656 C 256.918212890625 190.32855224609375 215.38951110839844 208.18092346191406 246.7958526611328 154.7611541748047 C 329.1496887207031 86.05078125 336.2391357421875 91.98680877685547 348.2794494628906 91.10430145263672 C 366.5530090332031 96.58690643310547 368.2418518066406 94.99659729003906 369.5127258300781 125.89924621582031" stroke-width="0.0" fill="rgb(244, 247, 251)" opacity="0.82591796" stroke="rgb(4, 243, 38)" stroke-opacity="0.6887928" stroke-linecap="round" stroke-linejoin="round"/>
    <path d="M 249.6823272705078 302.35052490234375 C 250.69493103027344 310.87335205078125 249.9974365234375 337.915771484375 251.63674926757812 399.8711853027344 C 246.01364135742188 385.088623046875 247.7064666748047 340.0671081542969 247.5211181640625 336.573486328125 C 246.2016143798828 368.672119140625 248.01412963867188 327.72113037109375 246.360107421875 292.3123779296875 C 314.4044189453125 289.3006896972656 253.56321716308594 306.3415832519531 249.6823272705078 302.35052490234375" stroke-width="0.0" fill="rgb(4, 5, 5)" opacity="1.0" stroke="rgb(227, 73, 67)" stroke-opacity="0.9633885" stroke-linecap="round" stroke-linejoin="round"/>
    <path d="M 247.18203735351562 527.0882568359375 C 245.89051818847656 438.9450988769531 250.3032989501953 455.72705078125 241.68186950683594 450.84002685546875 C 241.81629943847656 384.1595153808594 239.62832641601562 385.06085205078125 236.2696990966797 429.9339599609375 C 223.82777404785156 372.79742431640625 248.03860473632812 408.5978088378906 240.49850463867188 401.10211181640625 C 247.6708526611328 388.1302185058594 246.74105834960938 370.49468994140625 247.18203735351562 527.0882568359375" stroke-width="0.0" fill="rgb(0, 0, 1)" opacity="0.9572505" stroke="rgb(43, 30, 82)" stroke-opacity="0.53430307" stroke-linecap="round" stroke-linejoin="round"/>
    <path d="M 252.6148223876953 455.4419250488281 C 249.03964233398438 447.55615234375 249.15469360351562 477.93975830078125 248.9351043701172 395.5896911621094 C 243.82614135742188 382.53662109375 241.92599487304688 425.3343505859375 241.0310516357422 394.8006896972656 C 251.5828857421875 390.15570068359375 248.29855346679688 394.0330810546875 249.09176635742188 415.60687255859375 C 245.50633239746094 337.3838806152344 252.2587127685547 351.94952392578125 252.6148223876953 455.4419250488281" stroke-width="0.0" fill="rgb(1, 3, 2)" opacity="0.9850691" stroke="rgb(198, 188, 199)" stroke-opacity="0.1877008" stroke-linecap="round" stroke-linejoin="round"/>
    <path d="M 152.4049835205078 420.3788757324219 C 151.84524536132812 428.1349182128906 154.9459991455078 426.5513610839844 144.02149963378906 423.4969177246094 C 144.4273223876953 400.1225280761719 144.88848876953125 394.1007385253906 144.09451293945312 383.2281188964844 C 145.25540161132812 403.7792053222656 144.45574951171875 398.6724548339844 144.7084503173828 384.7403259277344 C 155.81314086914062 392.71270751953125 151.7468719482422 377.9958190917969 152.4049835205078 420.3788757324219" stroke-width="0.0" fill="rgb(0, 1, 2)" opacity="0.98914844" stroke="rgb(103, 112, 233)" stroke-opacity="0.66743803" stroke-linecap="round" stroke-linejoin="round"/>
    <path d="M 113.2340316772461 36.07548141479492 C 106.10408782958984 53.649879455566406 105.88898468017578 60.29287338256836 85.13592529296875 67.05760192871094 C 64.37056732177734 65.703369140625 59.93906784057617 63.717041015625 61.77094650268555 42.901512145996094 C 70.41575622558594 24.678102493286133 75.61741638183594 22.722681045532227 100.92144012451172 19.035762786865234 C 108.92682647705078 18.971555709838867 113.6512680053711 19.89739418029785 113.2340316772461 36.07548141479492" stroke-width="0.0" fill="rgb(238, 239, 241)" opacity="0.7575546" stroke="rgb(95, 249, 184)" stroke-opacity="0.15187533" stroke-linecap="round" stroke-linejoin="round"/>
    <path d="M 110.72926330566406 15.678564071655273 C 100.67317962646484 35.756038665771484 97.39225769042969 40.3848876953125 54.78590774536133 51.06858825683594 C 50.12968444824219 55.531227111816406 49.486080169677734 49.885379791259766 21.370925903320312 -1.4939873218536377 C 33.08290100097656 -21.3062801361084 47.977230072021484 -13.07102108001709 85.67416381835938 -11.528449058532715 C 109.27423858642578 -7.245523452758789 111.01002502441406 -4.422598361968994 110.72926330566406 15.678564071655273" stroke-width="0.0" fill="rgb(234, 237, 240)" opacity="0.9638236" stroke="rgb(242, 228, 129)" stroke-opacity="0.032927465" stroke-linecap="round" stroke-linejoin="round"/>
    <path d="M 162.7225799560547 74.95930480957031 C 152.4644012451172 148.69961547851562 156.23008728027344 89.01901245117188 153.06082153320312 105.38731384277344 C 102.7540512084961 93.4487533569336 102.65142822265625 88.43421173095703 96.3666000366211 76.15442657470703 C 99.96739959716797 45.87108612060547 105.0929183959961 41.54396057128906 160.29173278808594 25.6358699798584 C 168.54295349121094 13.38564395904541 172.93309020996094 13.821808815002441 162.7225799560547 74.95930480957031" stroke-width="0.0" fill="rgb(233, 234, 235)" opacity="0.9782798" stroke="rgb(42, 214, 11)" stroke-opacity="0.15816084" stroke-linecap="round" stroke-linejoin="round"/>
    <path d="M 133.15966796875 45.57781982421875 C 128.16586303710938 69.53961944580078 125.32293701171875 71.44803619384766 103.22635650634766 79.13603973388672 C 85.79280853271484 78.46439361572266 87.25051879882812 73.8493423461914 79.94670104980469 62.6854248046875 C 89.14727783203125 35.23943328857422 91.62425231933594 32.42009735107422 114.96895599365234 23.308740615844727 C 133.07078552246094 25.662994384765625 134.40403747558594 27.273038864135742 133.15966796875 45.57781982421875" stroke-width="0.0" fill="rgb(237, 240, 241)" opacity="0.7967199" stroke="rgb(185, 201, 139)" stroke-opacity="0.7362044" stroke-linecap="round" stroke-linejoin="round"/>
    <path d="M 166.5275115966797 23.00771713256836 C 155.85641479492188 48.195804595947266 150.39077758789062 46.43844223022461 132.57772827148438 46.345149993896484 C 97.84585571289062 44.02271270751953 95.85356140136719 41.19461441040039 90.41287231445312 17.5062313079834 C 90.16425323486328 -10.94127368927002 94.18387603759766 -9.728731155395508 113.09504699707031 -10.828470230102539 C 183.07443237304688 -13.223834991455078 180.31198120117188 -28.00152015686035 166.5275115966797 23.00771713256836" stroke-width="0.0" fill="rgb(225, 226, 226)" opacity="1.0" stroke="rgb(215, 131, 217)" stroke-opacity="0.006271648" stroke-linecap="round" stroke-linejoin="round"/>
    <path d="M 151.08511352539062 105.60991668701172 C 125.695556640625 253.89553833007812 185.08355712890625 307.5940856933594 72.00418090820312 161.83309936523438 C 93.288330078125 160.3218994140625 112.50359344482422 114.53022766113281 77.0191421508789 40.80332946777344 C 84.40481567382812 66.59004974365234 87.15522766113281 63.99097442626953 101.65518188476562 62.891239166259766 C 122.75834655761719 68.31441497802734 128.8738555908203 74.30549621582031 151.08511352539062 105.60991668701172" stroke-width="0.0" fill="rgb(248, 252, 255)" opacity="0.80618453" stroke="rgb(215, 188, 81)" stroke-opacity="0.28891227" stroke-linecap="round" stroke-linejoin="round"/>
    <path d="M 108.91576385498047 72.13977813720703 C 107.28449249267578 114.61919403076172 115.03579711914062 104.42109680175781 81.70228576660156 108.37019348144531 C 70.8287582397461 88.4601058959961 67.01963806152344 82.47966003417969 53.316287994384766 57.94649887084961 C 38.02273941040039 29.981996536254883 36.44450759887695 25.56905746459961 66.51043701171875 38.69239807128906 C 99.44967651367188 50.58811950683594 102.33189392089844 53.083099365234375 108.91576385498047 72.13977813720703" stroke-width="0.0" fill="rgb(232, 233, 235)" opacity="1.0" stroke="rgb(63, 51, 70)" stroke-opacity="0.57215846" stroke-linecap="round" stroke-linejoin="round"/>
    <path d="M 366.80303955078125 500.5809020996094 C 374.91162109375 509.6171875 383.44000244140625 520.0152587890625 350.8960266113281 522.2704467773438 C 347.68780517578125 505.9967346191406 348.9540710449219 498.2057189941406 346.9937438964844 402.322998046875 C 354.4112243652344 399.82196044921875 334.8267822265625 408.7311096191406 359.7572326660156 387.4009094238281 C 431.3267822265625 392.3676452636719 376.4190979003906 449.6529541015625 366.80303955078125 500.5809020996094" stroke-width="0.0" fill="rgb(3, 2, 3)" opacity="1.0" stroke="rgb(141, 119, 92)" stroke-opacity="0.5967398" stroke-linecap="round" stroke-linejoin="round"/>
    <path d="M 51.230690002441406 269.8371276855469 C 51.3584098815918 297.3377685546875 49.31352233886719 300.07257080078125 37.669883728027344 294.8022155761719 C 22.47808074951172 292.7794189453125 19.782024383544922 289.55328369140625 16.343433380126953 273.4156799316406 C 14.79643726348877 256.1377868652344 15.268182754516602 255.2949981689453 33.46989822387695 238.69998168945312 C 55.19206237792969 231.45877075195312 55.022178649902344 240.9126739501953 51.230690002441406 269.8371276855469" stroke-width="0.0" fill="rgb(203, 168, 114)" opacity="1.0" stroke="rgb(237, 235, 252)" stroke-opacity="0.5323768" stroke-linecap="round" stroke-linejoin="round"/>
    <path d="M 56.916656494140625 343.6749572753906 C 50.8501091003418 438.2248840332031 47.19735336303711 491.8662414550781 42.14452362060547 537.4061279296875 C -41.261810302734375 460.0337219238281 7.987011432647705 402.8335876464844 -9.245574951171875 385.8382263183594 C 59.316490173339844 217.5235137939453 -6.249927043914795 127.1474380493164 76.56977081298828 238.26722717285156 C 75.40467834472656 349.25360107421875 63.3250732421875 242.81332397460938 56.916656494140625 343.6749572753906" stroke-width="0.0" fill="rgb(3, 2, 2)" opacity="0.995036" stroke="rgb(242, 155, 55)" stroke-opacity="0.71489346" stroke-linecap="round" stroke-linejoin="round"/>
    <path d="M 60.722835540771484 161.47247314453125 C 52.76042175292969 246.30862426757812 55.731143951416016 252.05978393554688 42.57001876831055 250.2027587890625 C -17.97698402404785 241.84564208984375 -11.393889427185059 234.35586547851562 -9.193431854248047 212.6961212158203 C -11.856739044189453 167.84420776367188 -43.63623046875 141.24679565429688 4.124542713165283 71.05352020263672 C 91.9677505493164 135.78692626953125 78.01797485351562 118.19942474365234 60.722835540771484 161.47247314453125" stroke-width="0.0" fill="rgb(220, 172, 107)" opacity="0.99684304" stroke="rgb(178, 64, 125)" stroke-opacity="0.41358563" stroke-linecap="round" stroke-linejoin="round"/>
    <path d="M 35.52504348754883 462.3392639160156 C 31.369197845458984 545.2740478515625 28.349445343017578 530.5355224609375 -2.060262680053711 478.17852783203125 C -35.07861328125 478.55828857421875 -15.933712005615234 463.6161804199219 -9.716623306274414 427.408935546875 C -9.30703067779541 407.354736328125 -8.781248092651367 403.3709716796875 -3.6579649448394775 400.42962646484375 C 33.263694763183594 407.9133605957031 36.15929412841797 411.1501770019531 35.52504348754883 462.3392639160156" stroke-width="0.0" fill="rgb(156, 175, 192)" opacity="0.7133244" stroke="rgb(92, 243, 186)" stroke-opacity="0.9291784" stroke-linecap="round" stroke-linejoin="round"/>
    <path d="M 43.389896392822266 375.8315734863281 C 40.561866760253906 395.5593566894531 38.89466857910156 383.1239013671875 13.678691864013672 384.7373352050781 C -2.96083664894104 391.2155456542969 -9.01572036743164 391.0155334472656 -12.01366901397705 356.4033508300781 C -9.81536865234375 336.13433837890625 -10.084941864013672 330.39013671875 20.1960506439209 332.62054443359375 C 43.65854263305664 341.30877685546875 46.4612922668457 342.9808044433594 43.389896392822266 375.8315734863281" stroke-width="0.0" fill="rgb(254, 223, 184)" opacity="0.7054798" stroke="rgb(216, 111, 212)" stroke-opacity="0.2871188" stroke-linecap="round" stroke-linejoin="round"/>
    <path d="M 50.857242584228516 280.10687255859375 C 47.41679763793945 320.42205810546875 52.60146713256836 310.4501953125 25.686779022216797 309.9608154296875 C 13.181291580200195 309.1646728515625 16.60799789428711 306.9844970703125 14.921235084533691 306.051513671875 C 7.646320343017578 299.8662109375 2.9292733669281006 282.59930419921875 17.959951400756836 263.7029113769531 C 57.821163177490234 233.05723571777344 54.615848541259766 230.71522521972656 50.857242584228516 280.10687255859375" stroke-width="0.0" fill="rgb(224, 179, 117)" opacity="0.99240744" stroke="rgb(131, 66, 123)" stroke-opacity="0.59309167" stroke-linecap="round" stroke-linejoin="round"/>
    <path d="M 54.239959716796875 238.1711883544922 C 50.063262939453125 284.2337951660156 29.681997299194336 278.0511474609375 9.853863716125488 291.9187927246094 C -9.572104454040527 291.1238708496094 -11.378159523010254 286.1766357421875 -11.088500022888184 247.8272705078125 C -12.007895469665527 235.589111328125 -9.975983619689941 236.46072387695312 7.604406833648682 221.84068298339844 C 63.14344024658203 213.16543579101562 56.5672721862793 200.42465209960938 54.239959716796875 238.1711883544922" stroke-width="0.0" fill="rgb(223, 177, 111)" opacity="0.82570004" stroke="rgb(134, 209, 120)" stroke-opacity="0.22455476" stroke-linecap="round" stroke-linejoin="round"/>
    <path d="M 44.201168060302734 359.4888000488281 C 39.4607048034668 396.2745361328125 46.43451690673828 406.6097717285156 29.730342864990234 391.4615478515625 C 19.295507431030273 384.00347900390625 15.692071914672852 385.45074462890625 11.6577730178833 371.539794921875 C 20.752269744873047 369.6408386230469 18.252933502197266 364.05889892578125 28.875629425048828 360.69879150390625 C 32.145530700683594 359.39239501953125 27.908994674682617 361.0950012207031 44.201168060302734 359.4888000488281" stroke-width="0.0" fill="rgb(227, 182, 114)" opacity="0.9994567" stroke="rgb(127, 154, 219)" stroke-opacity="0.8794903" stroke-linecap="round" stroke-linejoin="round"/>
    <path d="M 303.8406982421875 442.2488098144531 C 337.228759765625 424.1003112792969 317.1669006347656 547.14306640625 299.3813171386719 536.2588500976562 C 296.4867858886719 426.69415283203125 296.28582763671875 419.8324279785156 296.6335754394531 443.6990966796875 C 295.2305603027344 430.1691589355469 301.45391845703125 421.90386962890625 276.4744567871094 184.88235473632812 C 311.53466796875 208.1898651123047 292.87713623046875 252.23541259765625 303.8406982421875 442.2488098144531" stroke-width="0.0" fill="rgb(4, 3, 4)" opacity="1.0" stroke="rgb(176, 184, 81)" stroke-opacity="0.998894" stroke-linecap="round" stroke-linejoin="round"/>
    <path d="M 214.9519500732422 271.5208435058594 C 207.0235595703125 340.5624084472656 208.98355102539062 338.8966369628906 207.25425720214844 337.01983642578125 C 203.8928680419922 271.2818603515625 215.86143493652344 292.8634338378906 175.72425842285156 290.1380920410156 C 188.9572296142578 325.7325134277344 225.16952514648438 360.2248229980469 100.3783187866211 217.10157775878906 C 236.44839477539062 320.14599609375 122.35797882080078 252.45828247070312 214.9519500732422 271.5208435058594" stroke-width="0.0" fill="rgb(0, 1, 3)" opacity="0.95524013" stroke="rgb(189, 2, 183)" stroke-opacity="0.8916084" stroke-linecap="round" stroke-linejoin="round"/>
    <path d="M 39.640438079833984 417.26263427734375 C 35.29758834838867 466.36492919921875 34.937747955322266 476.8010559082031 35.96205520629883 452.2849426269531 C 8.174349784851074 438.2513732910156 -3.255145311355591 441.2987060546875 -3.900127649307251 414.46337890625 C -9.935872077941895 389.5216979980469 -8.64438533782959 388.80780029296875 23.66221046447754 389.3001403808594 C 47.16850280761719 387.6058654785156 41.625614166259766 385.92132568359375 39.640438079833984 417.26263427734375" stroke-width="0.0" fill="rgb(222, 178, 115)" opacity="1.0" stroke="rgb(129, 177, 172)" stroke-opacity="0.5122846" stroke-linecap="round" stroke-linejoin="round"/>
    <path d="M 111.02690887451172 260.2797546386719 C 110.8656234741211 283.6277160644531 113.60210418701172 283.9038391113281 98.71686553955078 285.64398193359375 C 98.86095428466797 264.68438720703125 99.92076873779297 257.9424133300781 101.20063018798828 256.91717529296875 C 98.00248718261719 272.3528137207031 98.43204498291016 268.1973876953125 98.96820831298828 250.61154174804688 C 98.17207336425781 251.37539672851562 111.11383819580078 258.4938049316406 111.02690887451172 260.2797546386719" stroke-width="0.0" fill="rgb(0, 0, 2)" opacity="0.9727708" stroke="rgb(240, 58, 101)" stroke-opacity="0.7885275" stroke-linecap="round" stroke-linejoin="round"/>
    <path d="M 109.94097900390625 273.7392883300781 C 109.45964050292969 264.1728515625 112.46900177001953 272.6380310058594 110.05615234375 304.18426513671875 C 100.5953140258789 298.2894592285156 95.73188018798828 297.03466796875 97.8975830078125 295.4869384765625 C 98.42022705078125 255.08583068847656 97.15935516357422 249.1963653564453 111.93143463134766 259.94329833984375 C 111.3037109375 270.9767761230469 111.31880187988281 278.30999755859375 109.94097900390625 273.7392883300781" stroke-width="0.0" fill="rgb(2, 2, 3)" opacity="0.9959063" stroke="rgb(166, 155, 41)" stroke-opacity="0.33711562" stroke-linecap="round" stroke-linejoin="round"/>
    <path d="M 48.154266357421875 316.7070007324219 C 44.25278091430664 342.81744384765625 43.81201934814453 366.8369445800781 43.28338623046875 359.83868408203125 C 9.449053764343262 354.34283447265625 6.917628765106201 360.47235107421875 -4.293631553649902 336.02996826171875 C 6.791828155517578 306.0759582519531 15.737760543823242 306.42962646484375 26.721399307250977 296.2125549316406 C 51.49749755859375 294.6967468261719 49.982242584228516 301.7611083984375 48.154266357421875 316.7070007324219" stroke-width="0.0" fill="rgb(222, 174, 109)" opacity="0.9989292" stroke="rgb(231, 165, 29)" stroke-opacity="0.7263322" stroke-linecap="round" stroke-linejoin="round"/>
    <path d="M 181.83692932128906 158.0986785888672 C 180.81141662597656 157.97509765625 184.91110229492188 159.37852478027344 176.4787139892578 157.30908203125 C 176.3608856201172 141.2539825439453 176.19834899902344 137.62965393066406 177.20216369628906 148.7913360595703 C 177.10006713867188 147.12762451171875 175.8807830810547 140.94378662109375 177.02227783203125 132.76393127441406 C 183.32220458984375 132.8949737548828 181.41632080078125 130.489990234375 181.83692932128906 158.0986785888672" stroke-width="0.0" fill="rgb(5, 5, 6)" opacity="1.0" stroke="rgb(128, 236, 135)" stroke-opacity="0.18974614" stroke-linecap="round" stroke-linejoin="round"/>
    <path d="M 36.05904769897461 301.10345458984375 C 38.61158752441406 327.2410583496094 32.70942687988281 325.44866943359375 11.51268482208252 337.3078918457031 C -14.02700424194336 339.90557861328125 -8.594162940979004 327.7873840332031 -10.833131790161133 310.6356201171875 C -8.668274879455566 282.5069580078125 -6.972987174987793 278.18768310546875 18.798625946044922 278.52740478515625 C 28.034690856933594 286.8507385253906 27.51014518737793 288.96832275390625 36.05904769897461 301.10345458984375" stroke-width="0.0" fill="rgb(225, 176, 114)" opacity="0.70791423" stroke="rgb(180, 108, 26)" stroke-opacity="0.35128894" stroke-linecap="round" stroke-linejoin="round"/>
    <path d="M 297.1474914550781 485.2197265625 C 295.4111022949219 526.6448364257812 301.3501281738281 518.7899780273438 328.0489196777344 510.7594909667969 C 271.8905029296875 510.0169372558594 276.102783203125 517.1150512695312 274.8556823730469 508.5137939453125 C 278.8699645996094 484.6857604980469 278.2797546386719 480.27703857421875 279.8212585449219 486.53643798828125 C 295.9995422363281 488.6380615234375 296.057373046875 485.9342956542969 297.1474914550781 485.2197265625" stroke-width="0.0" fill="rgb(97, 88, 92)" opacity="1.0" stroke="rgb(86, 60, 177)" stroke-opacity="0.66486746" stroke-linecap="round" stroke-linejoin="round"/>
    <path d="M 326.0556335449219 345.4697265625 C 327.0933532714844 360.671875 326.0055847167969 363.7173767089844 307.5631103515625 368.6703186035156 C 300.5042419433594 371.89971923828125 299.84051513671875 360.7850341796875 298.5084533691406 309.8575744628906 C 302.6667785644531 332.0658874511719 299.99267578125 330.70135498046875 307.9814758300781 331.3243103027344 C 312.3607177734375 337.0768737792969 319.8199462890625 331.7431335449219 326.0556335449219 345.4697265625" stroke-width="0.0" fill="rgb(244, 192, 108)" opacity="0.4331973" stroke="rgb(151, 181, 90)" stroke-opacity="0.7381122" stroke-linecap="round" stroke-linejoin="round"/>
    <path d="M 368.2319030761719 348.2168273925781 C 354.0543518066406 352.4989318847656 343.89288330078125 353.9017028808594 331.60980224609375 364.9095153808594 C 312.6593322753906 373.0083923339844 308.77349853515625 374.1155700683594 310.1858825683594 350.6623229980469 C 313.829833984375 322.0970458984375 312.52130126953125 319.8052673339844 333.3565979003906 320.284912109375 C 359.4189453125 327.819091796875 364.82672119140625 327.1951599121094 368.2319030761719 348.2168273925781" stroke-width="0.0" fill="rgb(252, 195, 99)" opacity="0.8638116" stroke="rgb(58, 46, 187)" stroke-opacity="0.15987454" stroke-linecap="round" stroke-linejoin="round"/>
    <path d="M 340.69268798828125 280.7040100097656 C 328.04376220703125 313.5069580078125 303.0601806640625 290.2240295410156 300.22833251953125 330.8846740722656 C 298.45587158203125 318.4655456542969 298.7801818847656 303.9664001464844 297.82366943359375 286.8052978515625 C 296.8613586425781 246.25140380859375 295.05316162109375 240.68942260742188 298.8027038574219 250.3942413330078 C 345.0413818359375 251.80184936523438 338.4632568359375 257.0256652832031 340.69268798828125 280.7040100097656" stroke-width="0.0" fill="rgb(244, 202, 123)" opacity="0.9403572" stroke="rgb(118, 110, 121)" stroke-opacity="0.87205565" stroke-linecap="round" stroke-linejoin="round"/>
    <path d="M 331.3408508300781 365.361328125 C 312.41973876953125 384.4764709472656 325.88818359375 398.7912292480469 314.39520263671875 441.897216796875 C 296.9140930175781 438.618408203125 306.3121643066406 460.4703674316406 300.0364074707031 354.8860168457031 C 300.4813537597656 387.0094909667969 304.16339111328125 364.0299072265625 321.65423583984375 357.2089538574219 C 333.10107421875 356.3835144042969 339.0935363769531 356.4040832519531 331.3408508300781 365.361328125" stroke-width="0.0" fill="rgb(255, 196, 90)" opacity="0.7833792" stroke="rgb(47, 72, 49)" stroke-opacity="0.62714446" stroke-linecap="round" stroke-linejoin="round"/>
    <path d="M 296.63958740234375 440.7391357421875 C 296.52960205078125 456.8298034667969 298.328369140625 468.1958923339844 295.6349792480469 466.3855285644531 C 271.10064697265625 472.9736022949219 279.98388671875 459.39599609375 276.5971984863281 437.17095947265625 C 276.322021484375 358.4959411621094 265.7939453125 359.1196594238281 293.4331970214844 361.0488586425781 C 295.7554626464844 387.9145202636719 295.0729675292969 403.163330078125 296.63958740234375 440.7391357421875" stroke-width="0.0" fill="rgb(255, 196, 88)" opacity="0.7448626" stroke="rgb(26, 240, 11)" stroke-opacity="0.884436" stroke-linecap="round" stroke-linejoin="round"/>
    <path d="M 366.81585693359375 322.0513610839844 C 366.32537841796875 340.47149658203125 368.9153137207031 345.0997009277344 349.3743591308594 345.6522521972656 C 336.7088623046875 341.9067077636719 329.9302673339844 343.63726806640625 316.320556640625 313.284912109375 C 327.94866943359375 302.2115173339844 333.6795349121094 304.06683349609375 354.7456970214844 308.8990478515625 C 365.7626647949219 311.0526428222656 367.2695007324219 312.2291564941406 366.81585693359375 322.0513610839844" stroke-width="0.0" fill="rgb(235, 182, 96)" opacity="0.7462564" stroke="rgb(149, 222, 29)" stroke-opacity="0.4198571" stroke-linecap="round" stroke-linejoin="round"/>
    <path d="M 315.4747314453125 383.04986572265625 C 317.3359375 382.5523376464844 316.1656188964844 385.1127624511719 308.64923095703125 388.5093994140625 C 301.1141662597656 390.31378173828125 303.4490051269531 389.97247314453125 303.0125427246094 380.2136535644531 C 303.09063720703125 368.3625793457031 300.3605041503906 364.6587829589844 321.423828125 357.95745849609375 C 327.2210998535156 360.6156311035156 327.7431945800781 366.7867126464844 315.4747314453125 383.04986572265625" stroke-width="0.0" fill="rgb(234, 179, 90)" opacity="0.8544767" stroke="rgb(208, 36, 95)" stroke-opacity="0.5301252" stroke-linecap="round" stroke-linejoin="round"/>
    <path d="M 47.09286880493164 282.19573974609375 C 47.01512908935547 276.1333923339844 49.461124420166016 287.9871520996094 47.78486633300781 298.0384216308594 C 40.268150329589844 301.4438781738281 40.97936248779297 305.44744873046875 41.81310272216797 265.2843933105469 C 56.132240295410156 266.41937255859375 38.141544342041016 263.6380310058594 50.23399353027344 262.9618835449219 C 49.53947830200195 281.612060546875 48.700660705566406 290.344482421875 47.09286880493164 282.19573974609375" stroke-width="0.0" fill="rgb(222, 175, 106)" opacity="0.89749026" stroke="rgb(93, 120, 13)" stroke-opacity="0.7277767" stroke-linecap="round" stroke-linejoin="round"/>
    <path d="M 339.4139404296875 311.5701599121094 C 339.12518310546875 329.025146484375 334.5779724121094 331.0465393066406 318.3597106933594 331.2618103027344 C 296.425048828125 333.2530517578125 300.77056884765625 329.7391662597656 299.9495849609375 301.6116638183594 C 298.6831359863281 274.5918273925781 295.4078674316406 223.98182678222656 316.0621032714844 279.83258056640625 C 331.65362548828125 281.46319580078125 333.4264221191406 279.141357421875 339.4139404296875 311.5701599121094" stroke-width="0.0" fill="rgb(230, 162, 60)" opacity="0.49371567" stroke="rgb(159, 227, 164)" stroke-opacity="0.8897159" stroke-linecap="round" stroke-linejoin="round"/>
    <path d="M 347.4087219238281 468.0036926269531 C 345.4458923339844 478.9277038574219 347.6293640136719 476.0915832519531 326.5577087402344 477.9905700683594 C 320.4071044921875 484.2755432128906 313.469970703125 476.7752685546875 315.4109802246094 440.9708251953125 C 312.6385803222656 443.12158203125 319.3327941894531 427.6207580566406 322.28656005859375 420.94232177734375 C 351.5559997558594 387.80535888671875 345.9933776855469 382.0160827636719 347.4087219238281 468.0036926269531" stroke-width="0.0" fill="rgb(255, 175, 150)" opacity="0.7447205" stroke="rgb(17, 246, 187)" stroke-opacity="0.4320075" stroke-linecap="round" stroke-linejoin="round"/>
    <path d="M 113.40923309326172 408.8691711425781 C 210.97579956054688 452.6657409667969 307.6752624511719 438.8175048828125 297.45196533203125 511.52001953125 C 76.39686584472656 516.2926025390625 68.59930419921875 490.4878234863281 73.82722473144531 472.0669860839844 C 71.66413879394531 426.7432861328125 71.05186462402344 420.6316223144531 87.15950012207031 424.028076171875 C 126.98021697998047 437.4473571777344 124.66194152832031 440.3128356933594 113.40923309326172 408.8691711425781" stroke-width="0.0" fill="rgb(41, 72, 119)" opacity="0.42062336" stroke="rgb(155, 146, 62)" stroke-opacity="0.13301755" stroke-linecap="round" stroke-linejoin="round"/>
    <path d="M 108.63536071777344 413.27197265625 C 89.6643295288086 457.7822265625 63.7134895324707 443.7231140136719 78.11720275878906 471.1247253417969 C 59.522789001464844 478.2583312988281 47.19076919555664 479.1341552734375 47.68667984008789 475.9605407714844 C 55.90441131591797 394.8807067871094 49.95562744140625 365.690673828125 71.42450714111328 359.0727233886719 C 75.42005920410156 419.561767578125 54.815093994140625 387.6820068359375 108.63536071777344 413.27197265625" stroke-width="0.0" fill="rgb(245, 66, 29)" opacity="0.7289991" stroke="rgb(236, 26, 3)" stroke-opacity="0.7862999" stroke-linecap="round" stroke-linejoin="round"/>
    <path d="M 128.67599487304688 323.22760009765625 C 128.95846557617188 355.5520324707031 130.2904815673828 369.22747802734375 105.00702667236328 356.6797790527344 C 44.111541748046875 315.67718505859375 97.69792938232422 364.2203063964844 53.456302642822266 394.8082275390625 C 68.64480590820312 212.0727081298828 48.816585540771484 302.240234375 93.82289123535156 277.29644775390625 C 95.18492126464844 316.85980224609375 84.67595672607422 286.7686767578125 128.67599487304688 323.22760009765625" stroke-width="0.0" fill="rgb(224, 96, 64)" opacity="1.0" stroke="rgb(55, 152, 251)" stroke-opacity="0.4573952" stroke-linecap="round" stroke-linejoin="round"/>
    <path d="M 347.5660400390625 465.4617614746094 C 349.29852294921875 503.1979064941406 349.01751708984375 517.7324829101562 346.9941101074219 514.4977416992188 C 324.3181457519531 512.725341796875 333.0924987792969 510.6446533203125 315.9772033691406 510.5652160644531 C 314.5638732910156 442.6222839355469 315.40716552734375 437.9442443847656 316.7615966796875 446.4193115234375 C 342.1253662109375 461.3701171875 342.7320861816406 461.2756652832031 347.5660400390625 465.4617614746094" stroke-width="0.0" fill="rgb(221, 84, 53)" opacity="1.0" stroke="rgb(122, 146, 202)" stroke-opacity="0.5763471" stroke-linecap="round" stroke-linejoin="round"/>
    <path d="M 346.6219482421875 400.3266906738281 C 348.6825866699219 471.3655700683594 347.0837097167969 472.30718994140625 348.31048583984375 465.94097900390625 C 309.4794006347656 437.2930908203125 314.8056335449219 460.6131591796875 317.1050720214844 412.60394287109375 C 323.8891296386719 379.58233642578125 285.1605529785156 349.4695739746094 389.7535705566406 346.8317565917969 C 342.4664306640625 412.2702331542969 343.3222351074219 398.42633056640625 346.6219482421875 400.3266906738281" stroke-width="0.0" fill="rgb(215, 37, 0)" opacity="0.6388766" stroke="rgb(175, 215, 191)" stroke-opacity="0.03610481" stroke-linecap="round" stroke-linejoin="round"/>
    <path d="M 127.32100677490234 443.71685791015625 C 126.57703399658203 437.7103576660156 129.19273376464844 442.0929870605469 105.12531280517578 440.5346374511719 C 80.42362213134766 445.9316711425781 74.62310791015625 446.2307434082031 92.57608032226562 432.64141845703125 C 107.491943359375 357.7509460449219 81.54890441894531 336.7017517089844 128.77113342285156 348.92926025390625 C 127.64356231689453 376.17840576171875 127.41524505615234 401.5676574707031 127.32100677490234 443.71685791015625" stroke-width="0.0" fill="rgb(237, 69, 34)" opacity="0.74944025" stroke="rgb(17, 176, 233)" stroke-opacity="0.35309324" stroke-linecap="round" stroke-linejoin="round"/>
    <path d="M 375.4657287597656 220.69818115234375 C 366.9330749511719 226.61862182617188 370.10546875 236.04473876953125 361.585693359375 243.07266235351562 C 329.3204040527344 242.40602111816406 325.11279296875 247.87155151367188 323.07696533203125 234.32699584960938 C 315.5550231933594 190.82919311523438 314.2885437011719 201.20188903808594 359.3409118652344 193.8133087158203 C 374.8550720214844 194.50534057617188 369.75726318359375 202.85360717773438 375.4657287597656 220.69818115234375" stroke-width="0.0" fill="rgb(239, 184, 94)" opacity="0.9914684" stroke="rgb(194, 12, 32)" stroke-opacity="0.44647756" stroke-linecap="round" stroke-linejoin="round"/>
    <path d="M 298.1388244628906 492.8918151855469 C 297.37921142578125 516.7035522460938 302.851318359375 509.6688537597656 289.029296875 510.801025390625 C 272.42095947265625 509.42999267578125 283.09735107421875 518.089599609375 277.304443359375 480.75152587890625 C 281.542724609375 462.051025390625 269.8875427246094 450.9143981933594 288.4094543457031 445.6080627441406 C 298.7943115234375 450.7248840332031 296.78570556640625 464.43243408203125 298.1388244628906 492.8918151855469" stroke-width="0.0" fill="rgb(234, 183, 95)" opacity="1.0" stroke="rgb(117, 137, 208)" stroke-opacity="0.63591987" stroke-linecap="round" stroke-linejoin="round"/>
    <path d="M 292.5648498535156 314.0764465332031 C 293.0575866699219 325.5837707519531 293.6275634765625 339.41973876953125 294.9924011230469 385.4332275390625 C 267.5320739746094 387.8843078613281 277.1862487792969 376.9214782714844 272.37066650390625 317.8001403808594 C 275.6533508300781 280.2846984863281 257.6994323730469 267.6407775878906 289.6549072265625 228.30140686035156 C 291.39215087890625 280.0531005859375 292.1120300292969 302.12017822265625 292.5648498535156 314.0764465332031" stroke-width="0.0" fill="rgb(233, 181, 95)" opacity="1.0" stroke="rgb(45, 56, 195)" stroke-opacity="0.86767924" stroke-linecap="round" stroke-linejoin="round"/>
    <path d="M 93.61476135253906 357.6736145019531 C 92.19860076904297 391.42535400390625 92.95293426513672 401.43634033203125 91.33370971679688 399.93878173828125 C 72.91692352294922 393.237060546875 76.26211547851562 395.3900146484375 75.60224914550781 395.01025390625 C 77.71751403808594 358.6230773925781 78.2017593383789 346.9869689941406 77.95524597167969 348.2302551269531 C 96.26608276367188 357.87841796875 94.06631469726562 356.2077941894531 93.61476135253906 357.6736145019531" stroke-width="0.0" fill="rgb(2, 3, 3)" opacity="1.0" stroke="rgb(126, 171, 157)" stroke-opacity="0.3221593" stroke-linecap="round" stroke-linejoin="round"/>
    <path d="M 366.04083251953125 320.6813659667969 C 364.18408203125 319.5376281738281 362.0951843261719 321.8115539550781 353.6736145019531 325.9437255859375 C 341.5330505371094 326.5216979980469 338.314208984375 329.41192626953125 323.4375 310.8487548828125 C 328.7147216796875 301.32720947265625 336.2899475097656 307.7176513671875 361.6434020996094 300.06707763671875 C 365.55633544921875 296.60711669921875 365.4420471191406 301.5276184082031 366.04083251953125 320.6813659667969" stroke-width="0.0" fill="rgb(237, 179, 89)" opacity="0.77730817" stroke="rgb(123, 180, 63)" stroke-opacity="0.20944567" stroke-linecap="round" stroke-linejoin="round"/>
    <path d="M 124.68083953857422 426.9969177246094 C 128.11045837402344 439.1557312011719 126.04428100585938 453.99786376953125 126.61715698242188 467.1194152832031 C 74.32112121582031 474.0978698730469 83.31334686279297 479.1058044433594 77.3686294555664 438.4850158691406 C 83.62013244628906 401.1606140136719 91.67900848388672 406.0231628417969 125.39908599853516 407.6624755859375 C 126.06564331054688 420.16748046875 125.62100982666016 426.2475891113281 124.68083953857422 426.9969177246094" stroke-width="0.0" fill="rgb(221, 85, 53)" opacity="0.94775355" stroke="rgb(42, 32, 97)" stroke-opacity="0.46902025" stroke-linecap="round" stroke-linejoin="round"/>
    <path d="M 333.4999084472656 329.9144287109375 C 322.2104187011719 351.5244445800781 320.4759521484375 350.46368408203125 311.97918701171875 347.2529602050781 C 298.29803466796875 354.46710205078125 300.9344177246094 354.0541076660156 299.3201904296875 323.8492736816406 C 301.9148864746094 318.4336853027344 302.9411315917969 315.3208923339844 307.18695068359375 308.2711181640625 C 335.4576721191406 308.1694641113281 337.8183288574219 310.8989562988281 333.4999084472656 329.9144287109375" stroke-width="0.0" fill="rgb(247, 190, 92)" opacity="0.7398269" stroke="rgb(138, 20, 215)" stroke-opacity="0.102065876" stroke-linecap="round" stroke-linejoin="round"/>
    <path d="M 81.64889526367188 107.85574340820312 C 105.78479766845703 103.47311401367188 101.8281478881836 166.59634399414062 69.79924011230469 132.36538696289062 C 18.465579986572266 100.58638000488281 6.959872722625732 95.77983093261719 -23.15585708618164 35.4128303527832 C 67.66106414794922 43.39729690551758 3.9961776733398438 36.05964660644531 13.898764610290527 -14.905101776123047 C 56.62705993652344 64.51441192626953 63.373260498046875 77.2829818725586 81.64889526367188 107.85574340820312" stroke-width="0.0" fill="rgb(3, 15, 36)" opacity="0.6937761" stroke="rgb(36, 223, 146)" stroke-opacity="0.6711417" stroke-linecap="round" stroke-linejoin="round"/>
    <path d="M 324.6281433105469 364.7298583984375 C 313.51666259765625 376.3511962890625 310.75445556640625 376.47412109375 301.9808044433594 382.0203857421875 C 303.5162658691406 383.7478332519531 304.6789855957031 378.6393127441406 300.91998291015625 369.5682373046875 C 301.27825927734375 350.697998046875 300.2043762207031 338.5707092285156 304.06488037109375 349.4840393066406 C 328.2484130859375 345.8288879394531 325.7060852050781 349.8642578125 324.6281433105469 364.7298583984375" stroke-width="0.0" fill="rgb(235, 182, 95)" opacity="1.0" stroke="rgb(181, 224, 195)" stroke-opacity="0.53879756" stroke-linecap="round" stroke-linejoin="round"/>
    <path d="M 289.8333740234375 229.7653350830078 C 290.26861572265625 247.07504272460938 289.0137939453125 196.79515075683594 271.43841552734375 289.4126281738281 C 227.9414825439453 296.93341064453125 259.6664733886719 293.25360107421875 234.5571746826172 236.54689025878906 C 282.859619140625 231.49563598632812 264.41424560546875 243.57501220703125 269.1003112792969 183.77378845214844 C 290.4632263183594 227.57354736328125 289.01885986328125 208.85919189453125 289.8333740234375 229.7653350830078" stroke-width="0.0" fill="rgb(231, 149, 79)" opacity="1.0" stroke="rgb(101, 101, 226)" stroke-opacity="0.05938383" stroke-linecap="round" stroke-linejoin="round"/>
    <path d="M 339.0204772949219 214.40489196777344 C 340.00140380859375 265.22198486328125 339.053955078125 271.08905029296875 329.12310791015625 271.8526611328125 C 294.54998779296875 273.2089538574219 297.5319519042969 276.7546691894531 295.8301696777344 223.94329833984375 C 297.26312255859375 216.18421936035156 272.11688232421875 188.4697265625 303.69964599609375 190.73423767089844 C 351.44647216796875 184.87826538085938 347.716064453125 185.3267059326172 339.0204772949219 214.40489196777344" stroke-width="0.0" fill="rgb(234, 183, 96)" opacity="1.0" stroke="rgb(167, 70, 196)" stroke-opacity="0.62343395" stroke-linecap="round" stroke-linejoin="round"/>
    <path d="M 78.6719741821289 449.9422912597656 C 108.35794067382812 469.9321594238281 158.46612548828125 457.0625305175781 199.55902099609375 512.2057495117188 C 23.567089080810547 532.7568359375 44.21921157836914 533.1858520507812 47.752220153808594 476.9403076171875 C 63.458900451660156 475.5586242675781 66.23938751220703 474.1297607421875 66.2342758178711 476.5953369140625 C 67.0920181274414 428.23876953125 69.38909149169922 449.24517822265625 78.6719741821289 449.9422912597656" stroke-width="0.0" fill="rgb(45, 64, 94)" opacity="0.5457672" stroke="rgb(79, 240, 194)" stroke-opacity="0.6091615" stroke-linecap="round" stroke-linejoin="round"/>
    <path d="M 369.9012145996094 236.1478271484375 C 363.6098937988281 265.7839660644531 358.6347961425781 266.1050720214844 337.5215759277344 273.5379943847656 C 332.61224365234375 274.4142761230469 330.73236083984375 270.12603759765625 328.98016357421875 240.7777862548828 C 333.4705505371094 235.419189453125 324.76300048828125 238.88710021972656 338.48919677734375 239.62449645996094 C 357.7508544921875 232.7018585205078 366.8857116699219 234.00758361816406 369.9012145996094 236.1478271484375" stroke-width="0.0" fill="rgb(77, 84, 91)" opacity="0.9268261" stroke="rgb(183, 156, 77)" stroke-opacity="0.63438106" stroke-linecap="round" stroke-linejoin="round"/>
    <path d="M 367.74334716796875 273.3332824707031 C 373.7185363769531 298.9038391113281 386.8332214355469 309.87298583984375 337.00592041015625 312.36444091796875 C 325.6152038574219 309.98089599609375 333.3128967285156 300.2232971191406 332.9420471191406 279.29010009765625 C 337.1727294921875 247.27059936523438 339.9576721191406 244.47750854492188 367.39447021484375 235.4433135986328 C 373.255859375 239.8064727783203 369.6906433105469 246.31402587890625 367.74334716796875 273.3332824707031" stroke-width="0.0" fill="rgb(89, 92, 91)" opacity="0.8948559" stroke="rgb(229, 74, 54)" stroke-opacity="0.81558436" stroke-linecap="round" stroke-linejoin="round"/>
    <path d="M 130.5926513671875 261.3320617675781 C 127.57218933105469 343.27325439453125 132.6368408203125 323.5426940917969 119.29219055175781 316.0382385253906 C 111.4827880859375 321.12982177734375 114.37828826904297 297.241455078125 113.41925811767578 259.7161560058594 C 125.0955581665039 257.6994934082031 53.43644714355469 223.4320831298828 58.87840270996094 201.12811279296875 C 140.8184814453125 263.9912414550781 129.3415985107422 250.77333068847656 130.5926513671875 261.3320617675781" stroke-width="0.0" fill="rgb(238, 58, 23)" opacity="0.684125" stroke="rgb(188, 245, 115)" stroke-opacity="0.7238023" stroke-linecap="round" stroke-linejoin="round"/>
    <path d="M 172.6796417236328 108.36866760253906 C 171.70664978027344 130.15673828125 180.1435546875 132.39993286132812 157.4877471923828 132.8905792236328 C 152.8218231201172 119.97795867919922 149.52359008789062 93.1746826171875 155.14727783203125 111.26325225830078 C 158.9716339111328 110.27638244628906 159.544677734375 94.95594787597656 167.05479431152344 49.90306091308594 C 179.10104370117188 95.04495239257812 164.9940643310547 106.2065200805664 172.6796417236328 108.36866760253906" stroke-width="0.0" fill="rgb(5, 5, 7)" opacity="1.0" stroke="rgb(121, 79, 238)" stroke-opacity="0.25733784" stroke-linecap="round" stroke-linejoin="round"/>
    <path d="M 39.227142333984375 400.6117248535156 C 35.277671813964844 466.9466552734375 24.985708236694336 464.39111328125 3.187180280685425 469.89825439453125 C -12.059521675109863 469.73797607421875 -9.62582015991211 465.3292541503906 -7.886495113372803 453.7713928222656 C -11.722651481628418 424.5228576660156 -17.358749389648438 414.6142272949219 1.7764997482299805 409.97894287109375 C 32.10908508300781 413.0959167480469 32.67409896850586 411.4085693359375 39.227142333984375 400.6117248535156" stroke-width="0.0" fill="rgb(224, 176, 109)" opacity="0.9740957" stroke="rgb(225, 92, 247)" stroke-opacity="0.41899812" stroke-linecap="round" stroke-linejoin="round"/>
    <path d="M 212.06114196777344 222.8341522216797 C 217.1808319091797 239.8761444091797 222.69395446777344 232.29190063476562 191.45248413085938 234.44488525390625 C 185.40220642089844 236.64898681640625 201.21353149414062 210.84112548828125 169.25306701660156 218.87648010253906 C 123.3639144897461 226.92591857910156 144.8000030517578 202.4417724609375 185.91229248046875 213.67498779296875 C 215.702392578125 214.3660888671875 205.2044677734375 208.53213500976562 212.06114196777344 222.8341522216797" stroke-width="0.0" fill="rgb(4, 6, 15)" opacity="0.9063906" stroke="rgb(126, 137, 64)" stroke-opacity="0.41614398" stroke-linecap="round" stroke-linejoin="round"/>
    <path d="M 30.96852684020996 469.5639953613281 C 32.58433151245117 476.71978759765625 32.617855072021484 475.4860534667969 34.903472900390625 476.8218078613281 C -5.4745988845825195 476.233642578125 -8.310033798217773 476.6412048339844 -10.671298027038574 477.0118408203125 C -5.948431968688965 445.1136779785156 -0.9951773285865784 444.5769348144531 24.974451065063477 439.61737060546875 C 32.68193817138672 441.1660461425781 32.67721939086914 444.83056640625 30.96852684020996 469.5639953613281" stroke-width="0.0" fill="rgb(228, 180, 109)" opacity="1.0" stroke="rgb(208, 53, 193)" stroke-opacity="0.84472317" stroke-linecap="round" stroke-linejoin="round"/>
    <path d="M 35.77716064453125 444.193115234375 C 36.67338180541992 459.3286437988281 34.86098861694336 476.3023986816406 34.40139389038086 476.9451599121094 C 15.694829940795898 472.3961181640625 14.577795028686523 474.01702880859375 11.814214706420898 442.8387451171875 C 9.460411071777344 432.8232727050781 12.002335548400879 430.2991027832031 37.26685333251953 429.34161376953125 C 34.89070510864258 442.5390930175781 36.65849304199219 450.85333251953125 35.77716064453125 444.193115234375" stroke-width="0.0" fill="rgb(225, 178, 109)" opacity="0.99485075" stroke="rgb(49, 164, 115)" stroke-opacity="0.012507696" stroke-linecap="round" stroke-linejoin="round"/>
    <path d="M 186.8616180419922 270.5252380371094 C 183.37571716308594 270.63580322265625 189.7520294189453 266.4989318847656 168.5335235595703 260.3353271484375 C 159.60147094726562 263.5882263183594 164.2535400390625 258.38916015625 163.64242553710938 244.0853729248047 C 122.56385803222656 248.77854919433594 132.3402099609375 219.86019897460938 176.86561584472656 237.35182189941406 C 191.01748657226562 210.2158660888672 185.53207397460938 207.57232666015625 186.8616180419922 270.5252380371094" stroke-width="0.0" fill="rgb(254, 233, 211)" opacity="0.7431133" stroke="rgb(16, 225, 233)" stroke-opacity="0.64852494" stroke-linecap="round" stroke-linejoin="round"/>
    <path d="M 96.46766662597656 452.04400634765625 C 97.9630126953125 474.71038818359375 95.48796844482422 470.13885498046875 70.68508911132812 474.2315979003906 C 61.171878814697266 475.2623291015625 67.75831604003906 476.45458984375 66.72234344482422 474.09588623046875 C 68.6789779663086 442.2164001464844 68.43272399902344 434.7406921386719 68.4444808959961 441.3161926269531 C 89.8973617553711 447.3932189941406 93.45164489746094 445.78070068359375 96.46766662597656 452.04400634765625" stroke-width="0.0" fill="rgb(1, 1, 2)" opacity="0.9727032" stroke="rgb(93, 253, 82)" stroke-opacity="0.7227047" stroke-linecap="round" stroke-linejoin="round"/>
    <path d="M 206.8908233642578 269.4722595214844 C 203.5786590576172 290.1031799316406 217.3339080810547 282.4317932128906 171.97265625 286.2992248535156 C 173.5821533203125 288.3534851074219 168.51686096191406 282.6708984375 156.2245635986328 265.9971008300781 C 173.84841918945312 270.26483154296875 190.2433319091797 267.22943115234375 212.3934783935547 266.5916748046875 C 210.3255157470703 269.9340515136719 212.4737548828125 271.64044189453125 206.8908233642578 269.4722595214844" stroke-width="0.0" fill="rgb(73, 76, 85)" opacity="1.0" stroke="rgb(41, 114, 94)" stroke-opacity="0.4438826" stroke-linecap="round" stroke-linejoin="round"/>
    <path d="M 78.64933013916016 200.13194274902344 C 129.9145050048828 238.21311950683594 154.79908752441406 269.8941650390625 68.52983093261719 200.3749237060547 C 67.88821411132812 189.0365447998047 64.5793685913086 285.4963073730469 56.66590118408203 206.457763671875 C 65.14253234863281 140.23182678222656 49.20942687988281 170.0581817626953 93.0147933959961 138.80584716796875 C 50.61338424682617 185.0009765625 74.63941192626953 198.354736328125 78.64933013916016 200.13194274902344" stroke-width="0.0" fill="rgb(2, 0, 2)" opacity="0.9574214" stroke="rgb(24, 220, 241)" stroke-opacity="0.078922436" stroke-linecap="round" stroke-linejoin="round"/>
    <path d="M 367.292724609375 183.82522583007812 C 372.3888244628906 198.89877319335938 375.5145263671875 194.50485229492188 372.6668395996094 180.3931427001953 C 324.2064514160156 177.63412475585938 293.2652587890625 200.9093475341797 276.95440673828125 182.71043395996094 C 329.1158447265625 173.0719451904297 336.8817443847656 170.6449737548828 365.3044738769531 165.2343292236328 C 368.5284729003906 161.62933349609375 369.4429016113281 162.58126831054688 367.292724609375 183.82522583007812" stroke-width="0.0" fill="rgb(4, 2, 3)" opacity="0.98918587" stroke="rgb(35, 37, 194)" stroke-opacity="0.46450922" stroke-linecap="round" stroke-linejoin="round"/>
    <path d="M 383.07501220703125 172.08226013183594 C 391.63311767578125 193.68692016601562 353.6176452636719 193.7595672607422 288.9253845214844 205.88424682617188 C 287.40106201171875 208.90365600585938 296.9353332519531 201.898193359375 281.0452575683594 186.5426788330078 C 294.5683288574219 174.26963806152344 308.4850769042969 168.1696014404297 285.59747314453125 177.29209899902344 C 278.0995178222656 197.44850158691406 304.1254577636719 187.56011962890625 383.07501220703125 172.08226013183594" stroke-width="0.0" fill="rgb(161, 59, 22)" opacity="0.7953107" stroke="rgb(249, 74, 123)" stroke-opacity="0.58393735" stroke-linecap="round" stroke-linejoin="round"/>
    <path d="M 66.83262634277344 116.56376647949219 C 81.982177734375 123.81893920898438 72.18585205078125 151.94464111328125 67.12355041503906 141.9014892578125 C -4.26012659072876 80.74049377441406 -9.853964805603027 77.4992446899414 -18.472753524780273 66.0199966430664 C -4.197754859924316 56.58827209472656 -12.87492561340332 49.572509765625 -7.159411907196045 46.616947174072266 C 8.26880168914795 61.16490936279297 15.527094841003418 65.44227600097656 66.83262634277344 116.56376647949219" stroke-width="0.0" fill="rgb(189, 71, 35)" opacity="1.0" stroke="rgb(108, 168, 205)" stroke-opacity="0.10721451" stroke-linecap="round" stroke-linejoin="round"/>
    <path d="M 94.94644927978516 249.75340270996094 C 94.08101654052734 275.668701171875 98.14944458007812 286.9347229003906 79.21775817871094 293.7484436035156 C 80.7097396850586 282.8205261230469 79.65090942382812 246.6220245361328 80.96878051757812 255.99856567382812 C 81.4047622680664 230.12989807128906 81.56351470947266 221.44241333007812 81.19803619384766 232.27850341796875 C 104.09516906738281 249.20065307617188 94.35582733154297 238.0891876220703 94.94644927978516 249.75340270996094" stroke-width="0.0" fill="rgb(227, 83, 49)" opacity="0.92696846" stroke="rgb(177, 110, 26)" stroke-opacity="0.6797489" stroke-linecap="round" stroke-linejoin="round"/>
    <path d="M 268.2464904785156 192.705810546875 C 268.5496826171875 220.27342224121094 270.84442138671875 246.00274658203125 269.173095703125 241.51402282714844 C 263.8655090332031 231.57199096679688 258.2712097167969 223.735107421875 248.12269592285156 206.8172149658203 C 234.2088165283203 185.48081970214844 233.31427001953125 193.00120544433594 251.39370727539062 187.62551879882812 C 305.6710205078125 170.90264892578125 296.2690734863281 198.1916046142578 268.2464904785156 192.705810546875" stroke-width="0.0" fill="rgb(86, 49, 32)" opacity="1.0" stroke="rgb(101, 209, 221)" stroke-opacity="0.6785343" stroke-linecap="round" stroke-linejoin="round"/>
    <path d="M 231.25733947753906 259.7096862792969 C 227.0828094482422 327.4771728515625 234.90328979492188 319.0180358886719 221.8970489501953 319.59088134765625 C 219.73690795898438 320.62982177734375 219.1805877685547 294.8486633300781 213.32728576660156 285.84478759765625 C 204.32765197753906 254.77464294433594 201.73745727539062 277.3246765136719 229.78956604003906 233.85658264160156 C 286.5927429199219 227.1619873046875 283.3372802734375 270.34576416015625 231.25733947753906 259.7096862792969" stroke-width="0.0" fill="rgb(230, 92, 47)" opacity="1.0" stroke="rgb(55, 156, 61)" stroke-opacity="0.058809467" stroke-linecap="round" stroke-linejoin="round"/>
    <path d="M 181.2913360595703 110.43037414550781 C 187.6371307373047 115.21639251708984 198.2017364501953 187.8708038330078 180.75540161132812 112.42705535888672 C 161.27902221679688 155.93429565429688 160.6746826171875 128.64599609375 167.63890075683594 46.39498519897461 C 161.9293212890625 79.06948852539062 162.54525756835938 79.10138702392578 168.38877868652344 36.119781494140625 C 171.66456604003906 43.611122131347656 170.9710693359375 55.01255416870117 181.2913360595703 110.43037414550781" stroke-width="0.0" fill="rgb(62, 61, 65)" opacity="1.0" stroke="rgb(118, 102, 212)" stroke-opacity="0.81938416" stroke-linecap="round" stroke-linejoin="round"/>
    <path d="M 186.023681640625 220.5894012451172 C 181.3351593017578 242.52383422851562 180.13812255859375 245.71495056152344 169.41757202148438 248.15467834472656 C 162.9819793701172 247.4365234375 162.3166961669922 249.07513427734375 162.61427307128906 220.7721405029297 C 155.30685424804688 212.20399475097656 170.9711151123047 269.4938049316406 139.01907348632812 223.55076599121094 C 159.88780212402344 205.88414001464844 196.1852569580078 221.14402770996094 186.023681640625 220.5894012451172" stroke-width="0.0" fill="rgb(230, 208, 185)" opacity="1.0" stroke="rgb(173, 225, 147)" stroke-opacity="0.22954756" stroke-linecap="round" stroke-linejoin="round"/>
    <path d="M 185.93963623046875 267.854736328125 C 177.7064208984375 268.48126220703125 167.48155212402344 269.1662902832031 159.1389923095703 269.835693359375 C 160.63536071777344 271.213134765625 158.82359313964844 269.5882568359375 144.97813415527344 252.9394989013672 C 130.6538543701172 240.22833251953125 163.3074951171875 228.1134796142578 159.06576538085938 251.58876037597656 C 185.38409423828125 252.05844116210938 186.3070526123047 245.36070251464844 185.93963623046875 267.854736328125" stroke-width="0.0" fill="rgb(237, 215, 191)" opacity="1.0" stroke="rgb(252, 237, 237)" stroke-opacity="0.89304996" stroke-linecap="round" stroke-linejoin="round"/>
    <path d="M 125.75282287597656 466.1589050292969 C 112.05598449707031 468.0334167480469 104.54767608642578 469.1282958984375 96.28287506103516 470.5058288574219 C 84.96107482910156 472.11651611328125 89.44136047363281 475.0545349121094 88.57042694091797 459.81683349609375 C 89.09004211425781 456.3727111816406 90.09124755859375 445.0987548828125 88.81143188476562 434.9742431640625 C 116.2381362915039 439.8687438964844 120.12527465820312 440.1012268066406 125.75282287597656 466.1589050292969" stroke-width="0.0" fill="rgb(220, 84, 54)" opacity="1.0" stroke="rgb(231, 123, 206)" stroke-opacity="0.8501405" stroke-linecap="round" stroke-linejoin="round"/>
    <path d="M 308.7415466308594 117.23023223876953 C 282.64349365234375 156.33155822753906 284.53765869140625 159.32968139648438 239.59124755859375 175.078125 C 233.9763946533203 164.61753845214844 235.28163146972656 159.82052612304688 236.89218139648438 141.58087158203125 C 240.63404846191406 119.4255599975586 246.05801391601562 120.1571273803711 264.5466613769531 119.18424224853516 C 289.7925109863281 113.13340759277344 301.69378662109375 103.20026397705078 308.7415466308594 117.23023223876953" stroke-width="0.0" fill="rgb(227, 227, 227)" opacity="0.9933809" stroke="rgb(1, 228, 222)" stroke-opacity="0.2026955" stroke-linecap="round" stroke-linejoin="round"/>
    <path d="M 111.98114013671875 259.27911376953125 C 117.17894744873047 242.1664276123047 114.28032684326172 295.2381591796875 112.35298156738281 312.4724426269531 C 107.67665100097656 294.8658752441406 113.77873992919922 278.7628479003906 114.7688217163086 294.0758056640625 C 114.29562377929688 286.6524963378906 112.29769897460938 285.8404846191406 110.77518463134766 292.897216796875 C 110.63788604736328 289.3384094238281 111.00435638427734 299.0545654296875 111.98114013671875 259.27911376953125" stroke-width="0.0" fill="rgb(255, 255, 255)" opacity="0.9165394" stroke="rgb(132, 51, 100)" stroke-opacity="0.7068912" stroke-linecap="round" stroke-linejoin="round"/>
  </g>
</svg>
