<?xml version="1.0" ?>
<svg xmlns="http://www.w3.org/2000/svg" version="1.1" width="359" height="512">
  <defs/>
  <g>
    <path d="M 0.0 0.0 L 359.0 0.0 L 359.0 512.0 L 0.0 512.0 L 0.0 0.0" stroke-width="0.0" fill="rgb(255, 255, 255)" opacity="1.0" stroke="rgb(0, 0, 0)" stroke-opacity="0.0" stroke-linecap="round" stroke-linejoin="round"/>
    <path d="M 24.0 0.0 C 41.342933654785156 35.0 62.26079177856445 70.0 81.0 105.0 C 86.66666412353516 106.25289154052734 92.33333587646484 102.73465728759766 98.0 107.0 L 98.0 135.0 L 78.0 166.0 C 99.06998443603516 191.8828887939453 115.8393325805664 222.36685180664062 141.0 245.0 C 145.8772430419922 198.0 135.8705596923828 151.0 151.0 104.0 C 155.2230224609375 100.97279357910156 156.6472625732422 100.4273452758789 158.0 96.0 C 159.3460235595703 71.33333587646484 166.90664672851562 46.66666793823242 166.0 22.0 C 160.01353454589844 19.63341522216797 168.5395050048828 13.024791717529297 169.0 9.0 C 171.49539184570312 12.833635330200195 179.01419067382812 18.979103088378906 172.0 23.0 C 171.47947692871094 62.66666793823242 181.1500244140625 102.33333587646484 192.0 142.0 C 191.25912475585938 165.0 188.83689880371094 188.0 193.0 211.0 C 213.03607177734375 204.53970336914062 217.38487243652344 231.51075744628906 218.0 245.0 C 222.62722778320312 240.78306579589844 224.57095336914062 232.61370849609375 232.0 230.0 C 240.68995666503906 229.19874572753906 262.683349609375 236.82559204101562 254.0 220.0 C 246.63970947265625 213.87484741210938 242.82725524902344 203.30763244628906 236.0 193.0 C 234.9956817626953 190.6666717529297 237.3876495361328 188.3333282470703 240.0 186.0 C 279.0 178.3575897216797 318.0 161.34170532226562 357.0 144.0 L 358.0 0.0 L 24.0 0.0" stroke-width="2.0" fill="rgb(229, 229, 229)" opacity="1.0" stroke="rgb(0, 0, 0)" stroke-opacity="0.0" stroke-linecap="round" stroke-linejoin="round"/>
    <path d="M 357.0 0.0 L 176.0 0.0 C 179.2757110595703 25.836193084716797 169.82742309570312 56.43303298950195 180.0 79.0 L 180.0 96.0 C 181.0 87.83333587646484 182.0 94.66666412353516 183.0 94.0 C 180.73561096191406 101.53253173828125 185.78721618652344 106.22991180419922 185.0 114.0 C 185.75491333007812 101.50791931152344 188.094970703125 112.45067596435547 190.0 114.0 C 193.24688720703125 146.0 188.17294311523438 178.0 193.0 210.0 C 211.54165649414062 203.1981964111328 217.90863037109375 229.82972717285156 219.0 241.0 C 223.204833984375 240.22897338867188 224.59811401367188 231.48214721679688 230.0 230.0 C 239.3333282470703 228.74697875976562 248.6666717529297 232.55751037597656 258.0 228.0 C 250.4810791015625 217.38035583496094 241.343505859375 205.1737823486328 237.0 189.0 C 277.0 180.0618896484375 317.0 161.32394409179688 357.0 145.0 L 357.0 0.0" stroke-width="2.0" fill="rgb(229, 229, 229)" opacity="1.0" stroke="rgb(0, 0, 0)" stroke-opacity="0.0" stroke-linecap="round" stroke-linejoin="round"/>
    <path d="M 357.0 149.0 C 318.0 162.99594116210938 279.0 183.0079803466797 240.0 191.0 C 246.75540161132812 207.0 258.80340576171875 223.0 270.0 239.0 C 274.285400390625 328.0 275.987060546875 417.0 279.0 506.0 C 288.17962646484375 516.8839111328125 305.5348815917969 503.0858459472656 318.0 511.0 L 358.0 511.0 L 357.0 149.0" stroke-width="2.0" fill="rgb(177, 120, 68)" opacity="1.0" stroke="rgb(0, 0, 0)" stroke-opacity="0.0" stroke-linecap="round" stroke-linejoin="round"/>
    <path d="M 71.0 196.0 C 65.53301239013672 208.00360107421875 67.96875 224.3306427001953 64.0 238.0 C 61.12894058227539 317.0 51.54091262817383 396.0 49.0 475.0 C 91.0 471.4471740722656 133.0 464.14337158203125 175.0 455.0 L 179.0 451.0 L 179.0 320.0 C 192.8148956298828 312.0984802246094 175.4521484375 300.5033874511719 174.0 291.0 C 149.26023864746094 250.7245635986328 106.0020523071289 222.21279907226562 71.0 196.0" stroke-width="2.0" fill="rgb(159, 95, 82)" opacity="1.0" stroke="rgb(0, 0, 0)" stroke-opacity="0.0" stroke-linecap="round" stroke-linejoin="round"/>
    <path d="M 0.0 0.0 C 1.3325040340423584 158.6666717529297 -2.6655588150024414 317.3333435058594 2.0 476.0 C 11.349925994873047 479.302734375 29.051462173461914 471.97601318359375 32.0 484.0 C 44.246585845947266 373.0044860839844 48.37223434448242 266.3299865722656 61.0 157.0 C 81.55238342285156 147.58750915527344 67.48245239257812 126.33246612548828 80.0 114.0 C 76.46769714355469 109.33333587646484 80.32456970214844 104.66666412353516 77.0 100.0 C 56.723777770996094 66.66666412353516 38.93339920043945 33.33333206176758 22.0 0.0 L 0.0 0.0" stroke-width="2.0" fill="rgb(198, 147, 96)" opacity="1.0" stroke="rgb(0, 0, 0)" stroke-opacity="0.0" stroke-linecap="round" stroke-linejoin="round"/>
    <path d="M 275.0 457.0 C 244.0 460.4681091308594 213.0 432.02850341796875 182.0 434.0 C 178.6508026123047 441.3333435058594 183.89785766601562 448.6666564941406 179.0 456.0 C 136.0 465.74176025390625 93.0 472.13421630859375 50.0 478.0 C 46.25161361694336 489.0 48.2991828918457 500.0 46.0 511.0 L 276.0 511.0 L 275.0 457.0" stroke-width="2.0" fill="rgb(99, 100, 112)" opacity="1.0" stroke="rgb(0, 0, 0)" stroke-opacity="0.0" stroke-linecap="round" stroke-linejoin="round"/>
    <path d="M 169.0 34.0 C 162.84873962402344 59.33333206176758 164.7271270751953 84.66666412353516 155.0 110.0 C 152.21604919433594 108.8172836303711 155.78395080566406 102.91604614257812 153.0 105.0 C 150.82275390625 115.33333587646484 148.19932556152344 125.66666412353516 144.0 136.0 L 144.0 248.0 C 157.46035766601562 278.5821228027344 182.41897583007812 264.2214660644531 204.0 266.0 C 220.3845672607422 248.3333282470703 216.7806854248047 230.6666717529297 206.0 213.0 L 188.0 212.0 C 186.21885681152344 174.6666717529297 194.67794799804688 137.3333282470703 178.0 100.0 C 175.46994018554688 78.33333587646484 170.42396545410156 56.66666793823242 169.0 34.0" stroke-width="2.0" fill="rgb(152, 132, 117)" opacity="1.0" stroke="rgb(0, 0, 0)" stroke-opacity="0.0" stroke-linecap="round" stroke-linejoin="round"/>
    <path d="M 133.0 257.0 C 127.79048156738281 263.6757507324219 133.57154846191406 274.65985107421875 130.0 283.0 L 127.0 464.0 C 140.3333282470703 462.6863098144531 153.6666717529297 459.1914978027344 167.0 456.0 L 169.0 300.0 C 160.88995361328125 284.1331481933594 147.38497924804688 273.0056457519531 133.0 257.0" stroke-width="2.0" fill="rgb(114, 130, 142)" opacity="1.0" stroke="rgb(0, 0, 0)" stroke-opacity="0.0" stroke-linecap="round" stroke-linejoin="round"/>
    <path d="M 169.0 40.0 C 163.6319122314453 62.33333206176758 162.0636749267578 84.66666412353516 158.0 107.0 C 153.6422119140625 113.39429473876953 154.38217163085938 103.60570526123047 152.0 110.0 C 139.65528869628906 144.0 147.45716857910156 178.0 144.0 212.0 C 158.6666717529297 207.20382690429688 173.3333282470703 210.05259704589844 188.0 211.0 C 185.64492797851562 176.0 194.7761688232422 141.0 179.0 106.0 L 169.0 40.0" stroke-width="2.0" fill="rgb(136, 117, 104)" opacity="1.0" stroke="rgb(0, 0, 0)" stroke-opacity="0.0" stroke-linecap="round" stroke-linejoin="round"/>
    <path d="M 357.0 350.0 C 339.14300537109375 353.9978332519531 318.8752136230469 375.8576354980469 316.0 393.0 C 316.6408386230469 432.0 313.8103332519531 471.0 318.0 510.0 C 327.5421447753906 505.51617431640625 341.7134704589844 514.3272094726562 348.0 506.0 L 346.0 399.0 C 365.9254150390625 384.1477355957031 355.4350280761719 367.2530517578125 357.0 350.0" stroke-width="2.0" fill="rgb(210, 79, 46)" opacity="1.0" stroke="rgb(0, 0, 0)" stroke-opacity="0.0" stroke-linecap="round" stroke-linejoin="round"/>
    <path d="M 95.0 108.0 C 78.43563842773438 102.06614685058594 75.1304702758789 123.92424011230469 75.0 136.0 C 89.52864074707031 143.23382568359375 68.5536117553711 153.27320861816406 61.0 159.0 L 32.0 511.0 L 44.0 511.0 C 54.10009765625 395.0 57.95577621459961 279.0 71.0 163.0 C 82.64253997802734 157.87899780273438 90.14710998535156 148.8243408203125 89.0 138.0 C 100.30236053466797 134.69606018066406 94.1041030883789 118.48252868652344 95.0 108.0" stroke-width="2.0" fill="rgb(16, 12, 12)" opacity="1.0" stroke="rgb(0, 0, 0)" stroke-opacity="0.0" stroke-linecap="round" stroke-linejoin="round"/>
    <path d="M 162.0 270.0 C 173.38804626464844 285.1876220703125 180.99148559570312 299.02593994140625 189.0 315.0 L 180.0 324.0 L 181.0 432.0 L 206.0 434.0 C 207.88677978515625 378.3333435058594 207.53016662597656 322.6666564941406 204.0 267.0 L 162.0 270.0" stroke-width="2.0" fill="rgb(115, 137, 121)" opacity="1.0" stroke="rgb(0, 0, 0)" stroke-opacity="0.0" stroke-linecap="round" stroke-linejoin="round"/>
    <path d="M 232.0 261.0 C 230.00697326660156 280.0 229.89273071289062 299.0 230.0 318.0 C 227.3333282470703 322.2087097167969 224.6666717529297 318.1588134765625 222.0 321.0 L 224.0 442.0 C 231.3333282470703 446.0712890625 238.6666717529297 448.4472961425781 246.0 451.0 L 246.0 302.0 L 242.0 262.0 L 232.0 261.0" stroke-width="2.0" fill="rgb(170, 165, 160)" opacity="1.0" stroke="rgb(0, 0, 0)" stroke-opacity="0.0" stroke-linecap="round" stroke-linejoin="round"/>
    <path d="M 270.0 300.0 L 249.0 303.0 C 248.58493041992188 352.6666564941406 250.8992156982422 402.3333435058594 252.0 452.0 C 259.7581481933594 455.0947265625 269.8751220703125 455.44097900390625 276.0 452.0 C 273.1040344238281 401.6666564941406 273.67022705078125 351.3333435058594 270.0 300.0" stroke-width="2.0" fill="rgb(110, 137, 114)" opacity="1.0" stroke="rgb(0, 0, 0)" stroke-opacity="0.0" stroke-linecap="round" stroke-linejoin="round"/>
    <path d="M 318.0 399.0 C 315.34320068359375 435.3333435058594 316.154296875 471.6666564941406 316.0 508.0 C 324.0829162597656 510.8516845703125 336.27227783203125 508.24932861328125 346.0 510.0 C 347.8326416015625 473.0 347.436279296875 436.0 344.0 399.0 L 318.0 399.0" stroke-width="2.0" fill="rgb(220, 83, 52)" opacity="1.0" stroke="rgb(0, 0, 0)" stroke-opacity="0.0" stroke-linecap="round" stroke-linejoin="round"/>
    <path d="M 281.0 181.0 C 269.6891784667969 183.6955108642578 283.7950134277344 190.4606170654297 275.0 192.0 C 278.5682678222656 202.0 284.74578857421875 212.0 289.0 222.0 C 292.2985534667969 317.6666564941406 293.8651123046875 413.3333435058594 300.0 509.0 C 304.87353515625 508.6595458984375 311.7134094238281 510.42254638671875 315.0 506.0 L 314.0 444.0 C 309.98370361328125 440.5354919433594 301.1122741699219 443.4590759277344 302.0 434.0 C 300.92498779296875 362.3333435058594 297.5956726074219 290.6666564941406 295.0 219.0 C 284.0828857421875 206.95933532714844 291.9171142578125 189.72158813476562 281.0 181.0" stroke-width="2.0" fill="rgb(34, 25, 18)" opacity="1.0" stroke="rgb(0, 0, 0)" stroke-opacity="0.0" stroke-linecap="round" stroke-linejoin="round"/>
    <path d="M 263.0 234.0 L 231.0 233.0 L 208.0 263.0 C 212.28939819335938 281.3522644042969 218.35507202148438 302.3078308105469 223.0 319.0 C 225.46522521972656 319.2790222167969 227.81809997558594 319.337646484375 229.0 316.0 C 229.5365753173828 297.3333435058594 227.7390594482422 278.6666564941406 232.0 260.0 C 250.8214111328125 255.83555603027344 242.3432159423828 280.2314147949219 246.0 291.0 L 271.0 291.0 C 267.3806457519531 272.3333435058594 274.5743103027344 253.6666717529297 263.0 234.0" stroke-width="2.0" fill="rgb(224, 95, 51)" opacity="1.0" stroke="rgb(0, 0, 0)" stroke-opacity="0.0" stroke-linecap="round" stroke-linejoin="round"/>
    <path d="M 229.0 455.0 L 182.0 440.0 C 178.92141723632812 445.5279846191406 184.75599670410156 454.592041015625 175.0 457.0 C 134.6666717529297 465.2813415527344 94.33333587646484 472.5469665527344 54.0 477.0 C 47.3854866027832 476.61822509765625 47.03544235229492 486.03997802734375 54.0 484.0 L 147.0 480.0 L 229.0 455.0" stroke-width="2.0" fill="rgb(75, 80, 96)" opacity="1.0" stroke="rgb(0, 0, 0)" stroke-opacity="0.0" stroke-linecap="round" stroke-linejoin="round"/>
    <path d="M 1.0 55.0 L 1.0 85.0 L 72.0 145.0 L 74.0 123.0 C 50.38676452636719 101.50231170654297 27.131505966186523 75.88512420654297 1.0 55.0" stroke-width="2.0" fill="rgb(186, 72, 37)" opacity="1.0" stroke="rgb(0, 0, 0)" stroke-opacity="0.0" stroke-linecap="round" stroke-linejoin="round"/>
    <path d="M 213.0 288.0 C 205.34970092773438 337.0 208.6839141845703 386.0 208.0 435.0 C 212.0 438.5797424316406 216.0 439.8116149902344 220.0 440.0 C 218.67337036132812 389.3333435058594 223.37913513183594 338.6666564941406 213.0 288.0" stroke-width="2.0" fill="rgb(199, 157, 91)" opacity="1.0" stroke="rgb(0, 0, 0)" stroke-opacity="0.0" stroke-linecap="round" stroke-linejoin="round"/>
    <path d="M 357.0 236.0 L 332.0 240.0 L 334.0 301.0 L 358.0 299.0 L 357.0 236.0" stroke-width="2.0" fill="rgb(83, 89, 100)" opacity="1.0" stroke="rgb(0, 0, 0)" stroke-opacity="0.0" stroke-linecap="round" stroke-linejoin="round"/>
    <path d="M 172.0 304.0 L 168.0 456.0 L 179.0 454.0 L 179.0 317.0 L 172.0 304.0" stroke-width="2.0" fill="rgb(194, 84, 61)" opacity="1.0" stroke="rgb(0, 0, 0)" stroke-opacity="0.0" stroke-linecap="round" stroke-linejoin="round"/>
    <path d="M 357.0 350.0 C 337.31756591796875 354.2547302246094 315.0183410644531 379.96630859375 316.0 398.0 C 330.0 396.3153076171875 344.0 404.23931884765625 358.0 387.0 L 357.0 350.0" stroke-width="2.0" fill="rgb(188, 68, 33)" opacity="1.0" stroke="rgb(0, 0, 0)" stroke-opacity="0.0" stroke-linecap="round" stroke-linejoin="round"/>
    <path d="M 9.0 0.0 C 31.539180755615234 36.62722396850586 43.06663131713867 79.4795150756836 79.0 110.0 C 80.85991668701172 106.66666412353516 78.24038696289062 103.33333587646484 77.0 100.0 C 56.828277587890625 66.66666412353516 38.906044006347656 33.33333206176758 22.0 0.0 L 9.0 0.0" stroke-width="2.0" fill="rgb(82, 83, 95)" opacity="1.0" stroke="rgb(0, 0, 0)" stroke-opacity="0.0" stroke-linecap="round" stroke-linejoin="round"/>
    <path d="M 75.0 342.0 C 73.36116790771484 361.0 71.82904815673828 380.0 72.0 399.0 C 79.33333587646484 398.31671142578125 86.66666412353516 403.6695556640625 94.0 406.0 C 97.69365692138672 388.0 96.67073059082031 370.0 97.0 352.0 L 75.0 342.0" stroke-width="2.0" fill="rgb(114, 110, 105)" opacity="1.0" stroke="rgb(0, 0, 0)" stroke-opacity="0.0" stroke-linecap="round" stroke-linejoin="round"/>
    <path d="M 169.0 38.0 C 163.9060821533203 59.00135803222656 161.936279296875 84.33231353759766 158.0 107.0 C 148.04493713378906 115.12508392333984 155.56893920898438 137.61151123046875 170.0 131.0 L 180.0 113.0 C 177.28163146972656 88.33333587646484 171.47610473632812 63.66666793823242 169.0 38.0" stroke-width="2.0" fill="rgb(52, 51, 54)" opacity="1.0" stroke="rgb(0, 0, 0)" stroke-opacity="0.0" stroke-linecap="round" stroke-linejoin="round"/>
    <path d="M 69.0 193.0 L 69.0 202.0 C 89.66666412353516 213.1474151611328 110.33333587646484 233.17807006835938 131.0 248.0 C 134.5158233642578 262.2450256347656 157.90142822265625 278.3757019042969 168.0 294.0 C 170.81369018554688 302.6666564941406 178.55636596679688 311.3333435058594 180.0 320.0 C 195.82008361816406 315.2792053222656 175.874267578125 300.4009704589844 175.0 291.0 C 149.3700408935547 249.51463317871094 106.6714096069336 222.32699584960938 69.0 193.0" stroke-width="2.0" fill="rgb(15, 11, 11)" opacity="1.0" stroke="rgb(0, 0, 0)" stroke-opacity="0.0" stroke-linecap="round" stroke-linejoin="round"/>
    <path d="M 0.0 0.0 L 1.0 36.0 C 18.455223083496094 50.99187088012695 34.556453704833984 69.37003326416016 51.0 81.0 L 8.0 0.0 L 0.0 0.0" stroke-width="2.0" fill="rgb(209, 93, 63)" opacity="1.0" stroke="rgb(0, 0, 0)" stroke-opacity="0.0" stroke-linecap="round" stroke-linejoin="round"/>
    <path d="M 1.0 37.0 L 0.0 52.0 C 26.056188583374023 73.63288879394531 49.55733108520508 101.02143859863281 76.0 122.0 C 74.9613265991211 117.74250793457031 80.9485092163086 115.38591003417969 80.0 112.0 C 55.396610260009766 86.36506652832031 28.82233428955078 64.37845611572266 1.0 37.0" stroke-width="2.0" fill="rgb(11, 6, 6)" opacity="1.0" stroke="rgb(0, 0, 0)" stroke-opacity="0.0" stroke-linecap="round" stroke-linejoin="round"/>
    <path d="M 190.0 213.0 C 189.59396362304688 230.3333282470703 189.02542114257812 247.6666717529297 187.0 265.0 C 204.44204711914062 274.38482666015625 219.95169067382812 248.80238342285156 215.0 234.0 L 207.0 213.0 L 190.0 213.0" stroke-width="2.0" fill="rgb(116, 95, 84)" opacity="1.0" stroke="rgb(0, 0, 0)" stroke-opacity="0.0" stroke-linecap="round" stroke-linejoin="round"/>
    <path d="M 358.0 390.0 C 353.9002990722656 391.2185974121094 349.8033447265625 396.14239501953125 347.0 400.0 L 349.0 508.0 C 352.0 510.1921081542969 355.0 509.826171875 358.0 509.0 L 358.0 390.0" stroke-width="2.0" fill="rgb(6, 2, 3)" opacity="1.0" stroke="rgb(0, 0, 0)" stroke-opacity="0.0" stroke-linecap="round" stroke-linejoin="round"/>
    <path d="M 1.0 477.0 L 0.0 511.0 L 30.0 511.0 L 33.0 478.0 L 1.0 477.0" stroke-width="2.0" fill="rgb(114, 127, 139)" opacity="1.0" stroke="rgb(0, 0, 0)" stroke-opacity="0.0" stroke-linecap="round" stroke-linejoin="round"/>
    <path d="M 358.0 177.0 C 334.9876708984375 181.55056762695312 309.34991455078125 183.64537048339844 288.0 192.0 C 289.4811706542969 198.9887237548828 290.5498352050781 205.6337432861328 299.0 203.0 L 357.0 193.0 L 358.0 177.0" stroke-width="2.0" fill="rgb(170, 84, 39)" opacity="1.0" stroke="rgb(0, 0, 0)" stroke-opacity="0.0" stroke-linecap="round" stroke-linejoin="round"/>
    <path d="M 72.0 164.0 C 69.32609558105469 173.0 70.15177154541016 182.0 69.0 191.0 L 128.0 237.0 C 112.04647064208984 212.6666717529297 92.2823257446289 188.3333282470703 72.0 164.0" stroke-width="2.0" fill="rgb(225, 112, 78)" opacity="1.0" stroke="rgb(0, 0, 0)" stroke-opacity="0.0" stroke-linecap="round" stroke-linejoin="round"/>
    <path d="M 96.0 245.0 L 94.0 299.0 L 112.0 308.0 L 114.0 257.0 L 96.0 245.0" stroke-width="2.0" fill="rgb(106, 102, 97)" opacity="1.0" stroke="rgb(0, 0, 0)" stroke-opacity="0.0" stroke-linecap="round" stroke-linejoin="round"/>
    <path d="M 303.0 442.0 L 302.0 468.0 C 297.9456481933594 468.89373779296875 300.89862060546875 461.4122619628906 300.0 459.0 L 298.0 476.0 C 302.22296142578125 488.533203125 290.8166809082031 514.9437866210938 313.0 510.0 L 314.0 443.0 L 303.0 442.0" stroke-width="2.0" fill="rgb(6, 3, 3)" opacity="1.0" stroke="rgb(0, 0, 0)" stroke-opacity="0.0" stroke-linecap="round" stroke-linejoin="round"/>
    <path d="M 161.0 270.0 C 164.3479461669922 275.1870422363281 170.5887451171875 284.9951477050781 176.0 290.0 C 186.3333282470703 288.3398742675781 196.6666717529297 287.8542175292969 207.0 288.0 L 209.0 310.0 C 211.02882385253906 290.18682861328125 214.04306030273438 281.9575500488281 205.0 267.0 L 161.0 270.0" stroke-width="2.0" fill="rgb(55, 56, 62)" opacity="1.0" stroke="rgb(0, 0, 0)" stroke-opacity="0.0" stroke-linecap="round" stroke-linejoin="round"/>
    <path d="M 67.0 224.0 C 60.00050354003906 242.6666717529297 64.45207214355469 261.3333435058594 62.0 280.0 L 77.0 287.0 L 80.0 233.0 C 77.58319854736328 229.291015625 71.96442413330078 227.14456176757812 67.0 224.0" stroke-width="2.0" fill="rgb(79, 77, 73)" opacity="1.0" stroke="rgb(0, 0, 0)" stroke-opacity="0.0" stroke-linecap="round" stroke-linejoin="round"/>
    <path d="M 358.0 148.0 L 281.0 179.0 C 306.3333435058594 178.77316284179688 331.6666564941406 168.95236206054688 357.0 166.0 L 358.0 148.0" stroke-width="2.0" fill="rgb(227, 116, 80)" opacity="1.0" stroke="rgb(0, 0, 0)" stroke-opacity="0.0" stroke-linecap="round" stroke-linejoin="round"/>
    <path d="M 78.0 348.0 L 75.0 393.0 L 91.0 399.0 L 93.0 356.0 L 78.0 348.0" stroke-width="2.0" fill="rgb(8, 9, 8)" opacity="1.0" stroke="rgb(0, 0, 0)" stroke-opacity="0.0" stroke-linecap="round" stroke-linejoin="round"/>
    <path d="M 206.0 283.0 L 205.0 267.0 L 161.0 270.0 C 169.93157958984375 293.6564025878906 189.21719360351562 282.42962646484375 206.0 283.0" stroke-width="2.0" fill="rgb(72, 75, 83)" opacity="1.0" stroke="rgb(0, 0, 0)" stroke-opacity="0.0" stroke-linecap="round" stroke-linejoin="round"/>
    <path d="M 144.0 215.0 C 144.63523864746094 221.03692626953125 156.54452514648438 213.111572265625 162.0 214.0 C 173.50030517578125 213.16822814941406 195.34344482421875 216.1798858642578 190.0 233.0 L 215.0 233.0 L 207.0 213.0 C 186.3333282470703 215.9698486328125 165.6666717529297 204.92465209960938 144.0 215.0" stroke-width="2.0" fill="rgb(29, 27, 31)" opacity="1.0" stroke="rgb(0, 0, 0)" stroke-opacity="0.0" stroke-linecap="round" stroke-linejoin="round"/>
    <path d="M 358.0 167.0 L 289.0 180.0 C 285.19842529296875 181.4537811279297 287.7283935546875 185.119384765625 287.0 188.0 C 310.3333435058594 186.02398681640625 333.6666564941406 178.82872009277344 357.0 176.0 L 358.0 167.0" stroke-width="2.0" fill="rgb(14, 5, 4)" opacity="1.0" stroke="rgb(0, 0, 0)" stroke-opacity="0.0" stroke-linecap="round" stroke-linejoin="round"/>
    <path d="M 66.0 227.0 C 61.39854431152344 242.6666717529297 63.9041748046875 258.3333435058594 62.0 274.0 C 64.41680145263672 277.67681884765625 70.03557586669922 278.98004150390625 74.0 281.0 L 76.0 233.0 L 66.0 227.0" stroke-width="2.0" fill="rgb(7, 7, 7)" opacity="1.0" stroke="rgb(0, 0, 0)" stroke-opacity="0.0" stroke-linecap="round" stroke-linejoin="round"/>
    <path d="M 274.0 455.0 C 269.4353942871094 462.3412170410156 273.2581787109375 473.99407958984375 272.0 483.0 L 256.0 484.0 C 258.32403564453125 495.96875 261.18377685546875 516.873779296875 277.0 511.0 L 274.0 455.0" stroke-width="2.0" fill="rgb(83, 88, 102)" opacity="1.0" stroke="rgb(0, 0, 0)" stroke-opacity="0.0" stroke-linecap="round" stroke-linejoin="round"/>
    <path d="M 68.0 442.0 L 67.0 473.0 L 87.0 471.0 C 88.99657440185547 462.6666564941406 87.81078338623047 454.3333435058594 88.0 446.0 C 81.66666412353516 444.0918273925781 75.33333587646484 442.094482421875 68.0 442.0" stroke-width="2.0" fill="rgb(15, 5, 6)" opacity="1.0" stroke="rgb(0, 0, 0)" stroke-opacity="0.0" stroke-linecap="round" stroke-linejoin="round"/>
    <path d="M 99.0 251.0 L 97.0 296.0 L 109.0 303.0 L 111.0 259.0 L 99.0 251.0" stroke-width="2.0" fill="rgb(12, 13, 13)" opacity="1.0" stroke="rgb(0, 0, 0)" stroke-opacity="0.0" stroke-linecap="round" stroke-linejoin="round"/>
    <path d="M 245.0 198.0 C 248.17404174804688 211.0 259.0989685058594 224.0 268.0 237.0 C 268.3684997558594 222.6666717529297 268.3531188964844 208.3333282470703 267.0 194.0 L 245.0 198.0" stroke-width="2.0" fill="rgb(141, 72, 36)" opacity="1.0" stroke="rgb(0, 0, 0)" stroke-opacity="0.0" stroke-linecap="round" stroke-linejoin="round"/>
    <path d="M 256.0 485.0 C 259.47064208984375 496.87017822265625 261.1603088378906 516.7936401367188 277.0 511.0 L 276.0 485.0 L 256.0 485.0" stroke-width="2.0" fill="rgb(79, 85, 100)" opacity="1.0" stroke="rgb(0, 0, 0)" stroke-opacity="0.0" stroke-linecap="round" stroke-linejoin="round"/>
    <path d="M 189.0 214.0 L 190.0 233.0 L 215.0 233.0 L 207.0 213.0 L 189.0 214.0" stroke-width="2.0" fill="rgb(28, 27, 35)" opacity="1.0" stroke="rgb(0, 0, 0)" stroke-opacity="0.0" stroke-linecap="round" stroke-linejoin="round"/>
    <path d="M 95.0 107.0 C 88.73250579833984 109.15352630615234 77.32261657714844 104.74363708496094 82.0 115.0 C 75.9455795288086 118.46161651611328 77.51949310302734 124.11613464355469 77.0 129.0 L 95.0 129.0 L 95.0 107.0" stroke-width="2.0" fill="rgb(82, 84, 97)" opacity="1.0" stroke="rgb(0, 0, 0)" stroke-opacity="0.0" stroke-linecap="round" stroke-linejoin="round"/>
    <path d="M 142.0 287.0 L 142.0 328.0 L 150.0 331.0 C 146.6073760986328 316.51593017578125 157.54345703125 299.8744201660156 142.0 287.0" stroke-width="2.0" fill="rgb(6, 8, 10)" opacity="1.0" stroke="rgb(0, 0, 0)" stroke-opacity="0.0" stroke-linecap="round" stroke-linejoin="round"/>
    <path d="M 276.0 182.0 C 261.33819580078125 184.42869567871094 250.99636840820312 187.08985900878906 238.0 191.0 C 246.02305603027344 205.11160278320312 261.7424011230469 189.8411102294922 273.0 192.0 L 276.0 182.0" stroke-width="2.0" fill="rgb(15, 11, 10)" opacity="1.0" stroke="rgb(0, 0, 0)" stroke-opacity="0.0" stroke-linecap="round" stroke-linejoin="round"/>
    <path d="M 244.0 393.0 L 241.0 394.0 L 242.0 450.0 L 246.0 451.0 L 244.0 393.0" stroke-width="2.0" fill="rgb(20, 20, 18)" opacity="1.0" stroke="rgb(0, 0, 0)" stroke-opacity="0.0" stroke-linecap="round" stroke-linejoin="round"/>
    <path d="M 145.0 385.0 L 144.0 423.0 L 151.0 425.0 C 147.57870483398438 412.638916015625 159.4600372314453 393.5018615722656 145.0 385.0" stroke-width="2.0" fill="rgb(11, 13, 16)" opacity="1.0" stroke="rgb(0, 0, 0)" stroke-opacity="0.0" stroke-linecap="round" stroke-linejoin="round"/>
    <path d="M 297.0 69.0 L 296.0 86.0 L 311.0 87.0 C 313.62933349609375 75.63687896728516 312.2039489746094 64.70602416992188 297.0 69.0" stroke-width="2.0" fill="rgb(233, 233, 233)" opacity="1.0" stroke="rgb(0, 0, 0)" stroke-opacity="0.0" stroke-linecap="round" stroke-linejoin="round"/>
    <path d="M 176.0 290.0 C 179.11309814453125 305.84246826171875 195.656005859375 295.39178466796875 205.0 298.0 C 208.73985290527344 281.28326416015625 186.7093048095703 292.4849853515625 176.0 290.0" stroke-width="2.0" fill="rgb(100, 109, 109)" opacity="1.0" stroke="rgb(0, 0, 0)" stroke-opacity="0.0" stroke-linecap="round" stroke-linejoin="round"/>
    <path d="M 144.0 215.0 C 143.3218536376953 221.8828125 156.40089416503906 212.78494262695312 162.0 214.0 C 171.0 212.1562042236328 180.0 217.61648559570312 189.0 218.0 C 182.2670440673828 206.86766052246094 163.62326049804688 211.0388946533203 152.0 211.0 L 144.0 215.0" stroke-width="2.0" fill="rgb(30, 25, 23)" opacity="1.0" stroke="rgb(0, 0, 0)" stroke-opacity="0.0" stroke-linecap="round" stroke-linejoin="round"/>
    <path d="M 271.0 293.0 C 261.9504699707031 291.24078369140625 239.47457885742188 290.0298767089844 249.0 303.0 C 255.8772430419922 298.4817810058594 271.94677734375 303.5479431152344 271.0 293.0" stroke-width="2.0" fill="rgb(8, 5, 4)" opacity="1.0" stroke="rgb(0, 0, 0)" stroke-opacity="0.0" stroke-linecap="round" stroke-linejoin="round"/>
    <path d="M 357.0 63.0 L 344.0 64.0 C 341.8173828125 73.76473999023438 345.1278381347656 83.7695083618164 357.0 78.0 L 357.0 63.0" stroke-width="2.0" fill="rgb(229, 230, 232)" opacity="1.0" stroke="rgb(0, 0, 0)" stroke-opacity="0.0" stroke-linecap="round" stroke-linejoin="round"/>
    <path d="M 248.0 64.0 C 246.5753936767578 74.42459869384766 247.5547332763672 82.44525909423828 260.0 79.0 C 259.93450927734375 75.000244140625 262.4419250488281 65.18622589111328 256.0 71.0 C 254.56747436523438 65.80428314208984 255.5305633544922 62.440818786621094 248.0 64.0" stroke-width="2.0" fill="rgb(232, 232, 232)" opacity="1.0" stroke="rgb(0, 0, 0)" stroke-opacity="0.0" stroke-linecap="round" stroke-linejoin="round"/>
    <path d="M 162.0 171.0 C 160.3087921142578 179.15528869628906 155.11795043945312 198.2154541015625 166.0 197.0 C 164.4539031982422 188.6598663330078 169.36244201660156 177.67575073242188 162.0 171.0" stroke-width="2.0" fill="rgb(15, 8, 6)" opacity="1.0" stroke="rgb(0, 0, 0)" stroke-opacity="0.0" stroke-linecap="round" stroke-linejoin="round"/>
    <path d="M 239.0 322.0 L 235.0 323.0 L 236.0 355.0 C 245.1379852294922 348.07757568359375 235.99497985839844 333.1867370605469 239.0 322.0" stroke-width="2.0" fill="rgb(19, 18, 16)" opacity="1.0" stroke="rgb(0, 0, 0)" stroke-opacity="0.0" stroke-linecap="round" stroke-linejoin="round"/>
    <path d="M 178.0 172.0 C 175.93360900878906 180.56666564941406 171.8535919189453 196.7305450439453 181.0 199.0 C 179.87876892089844 190.0 183.37277221679688 181.0 178.0 172.0" stroke-width="2.0" fill="rgb(23, 16, 13)" opacity="1.0" stroke="rgb(0, 0, 0)" stroke-opacity="0.0" stroke-linecap="round" stroke-linejoin="round"/>
    <path d="M 237.0 396.0 C 228.38604736328125 399.96978759765625 235.14891052246094 415.2099609375 233.0 424.0 C 243.77056884765625 422.2806091308594 233.8505401611328 405.1844177246094 237.0 396.0" stroke-width="2.0" fill="rgb(13, 11, 10)" opacity="1.0" stroke="rgb(0, 0, 0)" stroke-opacity="0.0" stroke-linecap="round" stroke-linejoin="round"/>
    <path d="M 178.0 132.0 C 175.69342041015625 139.58216857910156 172.11134338378906 155.85516357421875 181.0 157.0 C 179.75901794433594 148.91497802734375 183.5409393310547 138.4492645263672 178.0 132.0" stroke-width="2.0" fill="rgb(28, 22, 19)" opacity="1.0" stroke="rgb(0, 0, 0)" stroke-opacity="0.0" stroke-linecap="round" stroke-linejoin="round"/>
    <path d="M 150.0 176.0 C 139.85316467285156 177.14483642578125 147.2580108642578 193.41783142089844 145.0 201.0 C 154.94677734375 198.08673095703125 147.8772430419922 184.6523895263672 150.0 176.0" stroke-width="2.0" fill="rgb(180, 142, 118)" opacity="1.0" stroke="rgb(0, 0, 0)" stroke-opacity="0.0" stroke-linecap="round" stroke-linejoin="round"/>
    <path d="M 285.0 181.0 C 270.89569091796875 177.41650390625 272.63287353515625 198.27487182617188 286.0 192.0 L 285.0 181.0" stroke-width="2.0" fill="rgb(90, 93, 98)" opacity="1.0" stroke="rgb(0, 0, 0)" stroke-opacity="0.0" stroke-linecap="round" stroke-linejoin="round"/>
    <path d="M 312.0 16.0 C 313.2742614746094 21.27301025390625 309.90069580078125 33.16453552246094 318.0 31.0 C 318.9872741699219 23.039392471313477 327.6846923828125 13.406989097595215 312.0 16.0" stroke-width="2.0" fill="rgb(234, 234, 234)" opacity="1.0" stroke="rgb(0, 0, 0)" stroke-opacity="0.0" stroke-linecap="round" stroke-linejoin="round"/>
    <path d="M 167.0 143.0 C 153.2034149169922 139.3184814453125 160.56292724609375 163.94363403320312 169.0 151.0 C 169.12757873535156 148.6666717529297 170.2057647705078 146.3333282470703 167.0 143.0" stroke-width="2.0" fill="rgb(30, 26, 25)" opacity="1.0" stroke="rgb(0, 0, 0)" stroke-opacity="0.0" stroke-linecap="round" stroke-linejoin="round"/>
    <path d="M 255.0 490.0 C 259.00408935546875 497.39605712890625 250.18667602539062 514.0057373046875 263.0 511.0 L 255.0 490.0" stroke-width="2.0" fill="rgb(103, 106, 117)" opacity="1.0" stroke="rgb(0, 0, 0)" stroke-opacity="0.0" stroke-linecap="round" stroke-linejoin="round"/>
    <path d="M 145.0 167.0 C 159.0 155.80577087402344 173.0 162.34478759765625 187.0 164.0 C 173.3306427001953 158.20529174804688 157.00360107421875 155.39111328125 145.0 167.0" stroke-width="2.0" fill="rgb(88, 67, 54)" opacity="1.0" stroke="rgb(0, 0, 0)" stroke-opacity="0.0" stroke-linecap="round" stroke-linejoin="round"/>
    <path d="M 196.0 240.0 C 193.4929962158203 245.89981079101562 190.64151000976562 259.74383544921875 199.0 258.0 C 198.0931854248047 252.0 201.06185913085938 246.0 196.0 240.0" stroke-width="2.0" fill="rgb(18, 11, 8)" opacity="1.0" stroke="rgb(0, 0, 0)" stroke-opacity="0.0" stroke-linecap="round" stroke-linejoin="round"/>
    <path d="M 3.0 498.0 C 1.9606547355651855 505.22222900390625 1.031978726387024 511.66021728515625 10.0 506.0 C 19.471622467041016 514.1417236328125 14.276382446289062 495.05316162109375 13.0 506.0 C 2.542712926864624 504.71185302734375 11.30898666381836 496.3366394042969 3.0 498.0" stroke-width="2.0" fill="rgb(115, 128, 142)" opacity="1.0" stroke="rgb(0, 0, 0)" stroke-opacity="0.0" stroke-linecap="round" stroke-linejoin="round"/>
    <path d="M 336.0 96.0 C 331.83343505859375 108.95536804199219 347.16656494140625 108.95536804199219 343.0 96.0 L 336.0 96.0" stroke-width="2.0" fill="rgb(230, 230, 230)" opacity="1.0" stroke="rgb(0, 0, 0)" stroke-opacity="0.0" stroke-linecap="round" stroke-linejoin="round"/>
    <path d="M 169.0 11.0 C 170.31304931640625 17.176088333129883 159.812744140625 20.015125274658203 168.0 21.0 L 168.0 38.0 C 171.81405639648438 33.52427673339844 165.06613159179688 19.466453552246094 175.0 18.0 C 171.49301147460938 19.49351692199707 167.50648498535156 15.506983757019043 169.0 11.0" stroke-width="2.0" fill="rgb(129, 130, 130)" opacity="1.0" stroke="rgb(0, 0, 0)" stroke-opacity="0.0" stroke-linecap="round" stroke-linejoin="round"/>
    <path d="M 79.0 138.0 C 71.13160705566406 133.41883850097656 69.93050384521484 154.7816925048828 78.0 147.0 L 79.0 138.0" stroke-width="2.0" fill="rgb(236, 232, 228)" opacity="1.0" stroke="rgb(0, 0, 0)" stroke-opacity="0.0" stroke-linecap="round" stroke-linejoin="round"/>
    <path d="M 181.0 112.0 C 182.7988739013672 119.67459106445312 183.75631713867188 129.98941040039062 188.0 136.0 L 181.0 112.0" stroke-width="2.0" fill="rgb(43, 37, 35)" opacity="1.0" stroke="rgb(0, 0, 0)" stroke-opacity="0.0" stroke-linecap="round" stroke-linejoin="round"/>
    <path d="M 152.0 133.0 C 147.14715576171875 140.306396484375 151.12193298339844 161.6885223388672 153.0 144.0 L 152.0 133.0" stroke-width="2.0" fill="rgb(95, 74, 60)" opacity="1.0" stroke="rgb(0, 0, 0)" stroke-opacity="0.0" stroke-linecap="round" stroke-linejoin="round"/>
    <path d="M 215.0 389.0 C 212.79795837402344 394.3485107421875 213.95474243164062 402.31304931640625 216.0 406.0 L 215.0 389.0" stroke-width="2.0" fill="rgb(115, 85, 55)" opacity="1.0" stroke="rgb(0, 0, 0)" stroke-opacity="0.0" stroke-linecap="round" stroke-linejoin="round"/>
    <path d="M 214.0 336.0 L 215.0 359.0 L 214.0 336.0" stroke-width="2.0" fill="rgb(78, 45, 13)" opacity="1.0" stroke="rgb(0, 0, 0)" stroke-opacity="0.0" stroke-linecap="round" stroke-linejoin="round"/>
    <path d="M 162.0 220.0 C 157.78855895996094 222.03842163085938 161.0069580078125 228.30470275878906 160.0 232.0 C 163.82594299316406 231.8780975341797 161.5788116455078 224.32638549804688 162.0 220.0" stroke-width="2.0" fill="rgb(38, 30, 21)" opacity="1.0" stroke="rgb(0, 0, 0)" stroke-opacity="0.0" stroke-linecap="round" stroke-linejoin="round"/>
    <path d="M 159.0 244.0 C 156.58441162109375 257.0863952636719 169.16812133789062 245.87619018554688 159.0 244.0" stroke-width="2.0" fill="rgb(69, 60, 50)" opacity="1.0" stroke="rgb(0, 0, 0)" stroke-opacity="0.0" stroke-linecap="round" stroke-linejoin="round"/>
    <path d="M 154.0 103.0 C 147.6647491455078 110.14823913574219 155.64891052246094 116.80651092529297 154.0 103.0" stroke-width="2.0" fill="rgb(55, 53, 53)" opacity="1.0" stroke="rgb(0, 0, 0)" stroke-opacity="0.0" stroke-linecap="round" stroke-linejoin="round"/>
    <path d="M 23.0 504.0 C 21.96622657775879 511.4073486328125 34.65766525268555 504.3913269042969 23.0 504.0" stroke-width="2.0" fill="rgb(117, 129, 143)" opacity="1.0" stroke="rgb(0, 0, 0)" stroke-opacity="0.0" stroke-linecap="round" stroke-linejoin="round"/>
    <path d="M 178.0 446.0 C 177.78665161132812 445.271728515625 175.09304809570312 457.0191955566406 178.0 446.0" stroke-width="2.0" fill="rgb(197, 85, 65)" opacity="1.0" stroke="rgb(0, 0, 0)" stroke-opacity="0.0" stroke-linecap="round" stroke-linejoin="round"/>
  </g>
</svg>
