<?xml version="1.0" ?>
<svg xmlns="http://www.w3.org/2000/svg" version="1.1" width="512" height="362">
  <defs/>
  <g>
    <path d="M 217.59580993652344 98.35960388183594 C 213.02151489257812 103.19527435302734 228.69969177246094 103.9771728515625 179.1244659423828 111.50239562988281 C 160.92526245117188 114.11451721191406 183.52903747558594 79.74546813964844 137.97999572753906 32.25165939331055 C 134.51068115234375 28.31212615966797 126.15351867675781 25.390270233154297 155.32244873046875 30.7941837310791 C 190.49769592285156 39.23412322998047 214.2308807373047 67.0048599243164 217.59580993652344 98.35960388183594" stroke-width="0.0" fill="rgb(235, 37, 33)" opacity="0.72563136" stroke="rgb(101, 132, 198)" stroke-opacity="0.76298857" stroke-linecap="round" stroke-linejoin="round"/>
    <path d="M 279.0191650390625 287.39794921875 C 273.58343505859375 259.63494873046875 297.257568359375 326.9393005371094 236.16030883789062 342.2693786621094 C 199.0286407470703 342.5944519042969 239.9296875 349.8160705566406 255.89468383789062 313.3723449707031 C 282.9516296386719 247.7056121826172 224.3104248046875 233.28927612304688 253.2023468017578 245.90863037109375 C 273.4835205078125 258.4957580566406 278.1170349121094 276.279052734375 279.0191650390625 287.39794921875" stroke-width="0.0" fill="rgb(245, 181, 0)" opacity="0.598372" stroke="rgb(135, 222, 94)" stroke-opacity="0.30391696" stroke-linecap="round" stroke-linejoin="round"/>
    <path d="M 163.28433227539062 69.18035888671875 C 179.4936981201172 123.87129211425781 165.70034790039062 98.43465423583984 138.228759765625 108.44718933105469 C 104.71659088134766 112.927978515625 110.44627380371094 115.66385650634766 110.0140609741211 111.71424865722656 C 110.00007629394531 31.36005973815918 110.01483917236328 33.36054992675781 109.99878692626953 33.88505935668945 C 138.59742736816406 35.35355758666992 141.28802490234375 26.24144744873047 163.28433227539062 69.18035888671875" stroke-width="0.0" fill="rgb(255, 255, 216)" opacity="0.7823798" stroke="rgb(48, 112, 79)" stroke-opacity="0.8279588" stroke-linecap="round" stroke-linejoin="round"/>
    <path d="M 91.30587768554688 134.57992553710938 C 316.1567077636719 56.60472869873047 302.3471984863281 179.3203887939453 60.50003433227539 227.62828063964844 C -42.70440673828125 182.9064483642578 -20.352930068969727 214.87864685058594 -13.92187213897705 6.560751914978027 C -12.818439483642578 -13.870800971984863 -5.952267169952393 -24.532854080200195 340.2362365722656 1.6750342845916748 C 250.4345245361328 211.39276123046875 73.9965591430664 -149.55279541015625 91.30587768554688 134.57992553710938" stroke-width="0.0" fill="rgb(0, 166, 194)" opacity="0.5310071" stroke="rgb(24, 92, 206)" stroke-opacity="0.91258454" stroke-linecap="round" stroke-linejoin="round"/>
    <path d="M 243.9793701171875 265.6029357910156 C 240.32986450195312 296.2921142578125 230.53268432617188 324.7119445800781 221.54331970214844 336.6689758300781 C 212.07235717773438 348.87969970703125 207.4995880126953 334.92462158203125 212.23202514648438 305.70965576171875 C 214.5168914794922 290.85089111328125 221.91668701171875 259.5569152832031 233.931640625 244.005615234375 C 245.1826629638672 250.603759765625 244.34597778320312 237.43524169921875 243.9793701171875 265.6029357910156" stroke-width="0.0" fill="rgb(242, 181, 0)" opacity="0.60132" stroke="rgb(128, 228, 193)" stroke-opacity="0.47842476" stroke-linecap="round" stroke-linejoin="round"/>
    <path d="M 421.0439147949219 248.85409545898438 C 418.82135009765625 254.4462127685547 417.7398681640625 252.40122985839844 385.2808837890625 262.24951171875 C 370.2058410644531 264.10821533203125 382.7890625 241.20657348632812 366.263427734375 246.54747009277344 C 376.07659912109375 238.4517059326172 367.75543212890625 230.41546630859375 411.58197021484375 224.36302185058594 C 401.31915283203125 219.9675750732422 410.67431640625 190.971923828125 421.0439147949219 248.85409545898438" stroke-width="0.0" fill="rgb(218, 0, 0)" opacity="0.59558135" stroke="rgb(196, 79, 125)" stroke-opacity="0.53789616" stroke-linecap="round" stroke-linejoin="round"/>
    <path d="M 200.93019104003906 264.6997985839844 C 188.52549743652344 284.8631286621094 185.5520782470703 327.15911865234375 211.0498046875 340.0824279785156 C 183.6739501953125 330.5490417480469 175.1500701904297 305.357666015625 175.88339233398438 292.151123046875 C 174.16824340820312 282.4649658203125 181.26571655273438 243.37799072265625 225.3557891845703 238.817626953125 C 251.3281707763672 240.95700073242188 217.2371063232422 231.9253692626953 200.93019104003906 264.6997985839844" stroke-width="0.0" fill="rgb(243, 181, 0)" opacity="0.59876615" stroke="rgb(195, 235, 233)" stroke-opacity="0.061261944" stroke-linecap="round" stroke-linejoin="round"/>
    <path d="M 523.2078247070312 10.387962341308594 C 505.0935363769531 185.62124633789062 512.6867065429688 173.6161346435547 269.190185546875 217.8292694091797 C 190.49754333496094 191.4769744873047 192.1944122314453 189.03775024414062 244.18362426757812 -66.24259948730469 C 442.0280456542969 -35.45061111450195 442.94384765625 -11.045560836791992 405.7607116699219 30.56945037841797 C 450.56500244140625 -38.536537170410156 490.4488830566406 -33.63388442993164 523.2078247070312 10.387962341308594" stroke-width="0.0" fill="rgb(130, 207, 214)" opacity="0.694428" stroke="rgb(179, 32, 122)" stroke-opacity="0.68156433" stroke-linecap="round" stroke-linejoin="round"/>
    <path d="M 524.36962890625 135.7006378173828 C 517.2648315429688 179.8179473876953 504.27587890625 165.09556579589844 448.96160888671875 196.44810485839844 C 438.32196044921875 195.00437927246094 424.0704650878906 193.41848754882812 391.01934814453125 196.34634399414062 C 456.8311462402344 132.2154998779297 466.58343505859375 135.1513214111328 506.8714599609375 103.36387634277344 C 523.0802001953125 106.7436294555664 523.557373046875 113.72467803955078 524.36962890625 135.7006378173828" stroke-width="0.0" fill="rgb(85, 207, 234)" opacity="0.57983387" stroke="rgb(9, 18, 217)" stroke-opacity="0.9893796" stroke-linecap="round" stroke-linejoin="round"/>
    <path d="M 225.50723266601562 36.04619598388672 C 71.44344329833984 26.023088455200195 -1.7356317043304443 -0.4772554039955139 9.981770515441895 91.28121185302734 C 7.140957832336426 103.57622528076172 -0.42779383063316345 112.10336303710938 -11.505703926086426 112.17554473876953 C 20.671627044677734 46.65713119506836 32.3231315612793 49.096595764160156 71.6177978515625 24.45905876159668 C 100.41024780273438 -7.279033660888672 192.48158264160156 -81.29747772216797 225.50723266601562 36.04619598388672" stroke-width="0.0" fill="rgb(78, 187, 194)" opacity="0.9169649" stroke="rgb(77, 24, 129)" stroke-opacity="0.32327315" stroke-linecap="round" stroke-linejoin="round"/>
    <path d="M 149.33197021484375 309.1559753417969 C 138.88819885253906 331.0825500488281 117.32879638671875 295.5332336425781 123.72174072265625 348.6678161621094 C 94.23912811279297 308.930908203125 122.08484649658203 327.8948974609375 75.47149658203125 329.4413757324219 C 129.88479614257812 305.6565246582031 44.46611404418945 271.8665466308594 109.26963806152344 297.1701965332031 C 152.54718017578125 247.50375366210938 98.4701156616211 313.82977294921875 149.33197021484375 309.1559753417969" stroke-width="0.0" fill="rgb(237, 0, 0)" opacity="0.52613884" stroke="rgb(6, 105, 64)" stroke-opacity="0.5248977" stroke-linecap="round" stroke-linejoin="round"/>
    <path d="M 522.3366088867188 194.71202087402344 C 514.7183227539062 199.71852111816406 514.0294799804688 185.38427734375 493.8114013671875 201.73626708984375 C 470.06903076171875 216.96824645996094 477.060791015625 200.89500427246094 450.1075439453125 196.86619567871094 C 461.7008361816406 162.25389099121094 469.8866271972656 159.11123657226562 495.8448181152344 152.47312927246094 C 528.60302734375 151.20240783691406 525.1822509765625 154.32568359375 522.3366088867188 194.71202087402344" stroke-width="0.0" fill="rgb(25, 195, 246)" opacity="0.49427235" stroke="rgb(50, 127, 209)" stroke-opacity="0.5761377" stroke-linecap="round" stroke-linejoin="round"/>
    <path d="M 88.06160736083984 -3.716029167175293 C 43.82542419433594 52.109256744384766 43.27642059326172 59.412254333496094 -3.026777744293213 78.40127563476562 C -11.099392890930176 71.05982208251953 -12.00607681274414 67.27944946289062 -12.256271362304688 -4.772917747497559 C -13.24124526977539 -9.517712593078613 -13.623351097106934 -12.150252342224121 73.34503936767578 -12.813422203063965 C 75.8680648803711 -7.918949127197266 83.8957290649414 -10.44571304321289 88.06160736083984 -3.716029167175293" stroke-width="0.0" fill="rgb(28, 168, 184)" opacity="0.98747206" stroke="rgb(238, 246, 241)" stroke-opacity="0.38724467" stroke-linecap="round" stroke-linejoin="round"/>
    <path d="M 110.81939697265625 2.1248371601104736 C 60.396602630615234 75.05902099609375 47.62043380737305 65.80224609375 -5.405524730682373 101.11064910888672 C -10.434196472167969 97.8733901977539 -11.640854835510254 93.67866516113281 -10.045464515686035 76.08773803710938 C 16.252666473388672 34.94285202026367 19.08016586303711 33.873779296875 62.09309387207031 7.509230613708496 C 80.9682388305664 -6.1093926429748535 91.84575653076172 -15.29466724395752 110.81939697265625 2.1248371601104736" stroke-width="0.0" fill="rgb(10, 162, 185)" opacity="1.0" stroke="rgb(247, 186, 180)" stroke-opacity="0.35386214" stroke-linecap="round" stroke-linejoin="round"/>
    <path d="M 103.29141235351562 32.6251220703125 C 80.76102447509766 92.88743591308594 84.20015716552734 86.48847198486328 123.63345336914062 209.73092651367188 C -91.55531311035156 218.8814239501953 -46.69904708862305 194.9788055419922 -16.226577758789062 162.5711212158203 C 11.495293617248535 46.881080627441406 36.61931610107422 57.134029388427734 95.16487121582031 15.033419609069824 C 109.52984619140625 23.382625579833984 121.43716430664062 30.54439926147461 103.29141235351562 32.6251220703125" stroke-width="0.0" fill="rgb(83, 186, 190)" opacity="0.9498161" stroke="rgb(102, 36, 46)" stroke-opacity="0.3377208" stroke-linecap="round" stroke-linejoin="round"/>
    <path d="M 439.0 37.0 C 438.33013916015625 39.5 436.5 41.33012771606445 434.0 42.0 C 431.5 41.33012771606445 429.66986083984375 39.5 429.0 37.0 C 429.66986083984375 34.5 431.5 32.66987228393555 434.0 32.0 C 436.5 32.66987228393555 438.33013916015625 34.5 439.0 37.0" stroke-width="0.0" fill="rgb(254, 253, 253)" opacity="1.0" stroke="rgb(228, 87, 38)" stroke-opacity="0.2831555" stroke-linecap="round" stroke-linejoin="round"/>
    <path d="M 374.0 231.0 C 373.33013916015625 233.5 371.5 235.3301239013672 369.0 236.0 C 366.5 235.3301239013672 364.66986083984375 233.5 364.0 231.0 C 364.66986083984375 228.5 366.5 226.6698760986328 369.0 226.0 C 371.5 226.6698760986328 373.33013916015625 228.5 374.0 231.0" stroke-width="0.0" fill="rgb(232, 90, 80)" opacity="1.0" stroke="rgb(79, 22, 51)" stroke-opacity="0.6674244" stroke-linecap="round" stroke-linejoin="round"/>
    <path d="M 148.0 148.0 C 147.3301239013672 150.5 145.5 152.3301239013672 143.0 153.0 C 140.5 152.3301239013672 138.6698760986328 150.5 138.0 148.0 C 138.6698760986328 145.5 140.5 143.6698760986328 143.0 143.0 C 145.5 143.6698760986328 147.3301239013672 145.5 148.0 148.0" stroke-width="0.0" fill="rgb(235, 235, 235)" opacity="1.0" stroke="rgb(179, 36, 163)" stroke-opacity="0.2359771" stroke-linecap="round" stroke-linejoin="round"/>
    <path d="M 438.0 309.0 C 437.33013916015625 311.5 435.5 313.33013916015625 433.0 314.0 C 430.5 313.33013916015625 428.66986083984375 311.5 428.0 309.0 C 428.66986083984375 306.5 430.5 304.66986083984375 433.0 304.0 C 435.5 304.66986083984375 437.33013916015625 306.5 438.0 309.0" stroke-width="0.0" fill="rgb(227, 173, 64)" opacity="1.0" stroke="rgb(4, 67, 135)" stroke-opacity="0.4591658" stroke-linecap="round" stroke-linejoin="round"/>
    <path d="M 209.0 186.0 C 208.3301239013672 188.5 206.5 190.3301239013672 204.0 191.0 C 201.5 190.3301239013672 199.6698760986328 188.5 199.0 186.0 C 199.6698760986328 183.5 201.5 181.6698760986328 204.0 181.0 C 206.5 181.6698760986328 208.3301239013672 183.5 209.0 186.0" stroke-width="0.0" fill="rgb(138, 209, 209)" opacity="1.0" stroke="rgb(28, 121, 114)" stroke-opacity="0.7859377" stroke-linecap="round" stroke-linejoin="round"/>
    <path d="M 207.0 223.0 C 206.3301239013672 225.5 204.5 227.3301239013672 202.0 228.0 C 199.5 227.3301239013672 197.6698760986328 225.5 197.0 223.0 C 197.6698760986328 220.5 199.5 218.6698760986328 202.0 218.0 C 204.5 218.6698760986328 206.3301239013672 220.5 207.0 223.0" stroke-width="0.0" fill="rgb(119, 79, 56)" opacity="1.0" stroke="rgb(92, 53, 214)" stroke-opacity="0.16311233" stroke-linecap="round" stroke-linejoin="round"/>
    <path d="M 75.0 252.0 C 74.33012390136719 254.5 72.5 256.33013916015625 70.0 257.0 C 67.5 256.33013916015625 65.66987609863281 254.5 65.0 252.0 C 65.66987609863281 249.5 67.5 247.6698760986328 70.0 247.0 C 72.5 247.6698760986328 74.33012390136719 249.5 75.0 252.0" stroke-width="0.0" fill="rgb(119, 79, 56)" opacity="1.0" stroke="rgb(253, 14, 229)" stroke-opacity="0.8301944" stroke-linecap="round" stroke-linejoin="round"/>
    <path d="M 109.0 128.0 C 108.33012390136719 130.5 106.5 132.3301239013672 104.0 133.0 C 101.5 132.3301239013672 99.66987609863281 130.5 99.0 128.0 C 99.66987609863281 125.5 101.5 123.66987609863281 104.0 123.0 C 106.5 123.66987609863281 108.33012390136719 125.5 109.0 128.0" stroke-width="0.0" fill="rgb(79, 187, 195)" opacity="1.0" stroke="rgb(190, 164, 67)" stroke-opacity="0.29536974" stroke-linecap="round" stroke-linejoin="round"/>
    <path d="M 320.0 342.0 C 319.33013916015625 344.5 317.5 346.33013916015625 315.0 347.0 C 312.5 346.33013916015625 310.66986083984375 344.5 310.0 342.0 C 310.66986083984375 339.5 312.5 337.66986083984375 315.0 337.0 C 317.5 337.66986083984375 319.33013916015625 339.5 320.0 342.0" stroke-width="0.0" fill="rgb(119, 79, 56)" opacity="1.0" stroke="rgb(157, 23, 35)" stroke-opacity="0.34679374" stroke-linecap="round" stroke-linejoin="round"/>
    <path d="M 42.0 252.0 C 41.33012771606445 254.5 39.5 256.33013916015625 37.0 257.0 C 34.5 256.33013916015625 32.66987228393555 254.5 32.0 252.0 C 32.66987228393555 249.5 34.5 247.6698760986328 37.0 247.0 C 39.5 247.6698760986328 41.33012771606445 249.5 42.0 252.0" stroke-width="0.0" fill="rgb(119, 79, 56)" opacity="1.0" stroke="rgb(51, 79, 107)" stroke-opacity="0.7211845" stroke-linecap="round" stroke-linejoin="round"/>
    <path d="M 215.0 65.0 C 214.3301239013672 67.5 212.5 69.33012390136719 210.0 70.0 C 207.5 69.33012390136719 205.6698760986328 67.5 205.0 65.0 C 205.6698760986328 62.5 207.5 60.66987228393555 210.0 60.0 C 212.5 60.66987228393555 214.3301239013672 62.5 215.0 65.0" stroke-width="0.0" fill="rgb(104, 197, 201)" opacity="1.0" stroke="rgb(214, 250, 221)" stroke-opacity="0.6512265" stroke-linecap="round" stroke-linejoin="round"/>
    <path d="M 427.0 229.0 C 426.33013916015625 231.5 424.5 233.3301239013672 422.0 234.0 C 419.5 233.3301239013672 417.66986083984375 231.5 417.0 229.0 C 417.66986083984375 226.5 419.5 224.6698760986328 422.0 224.0 C 424.5 224.6698760986328 426.33013916015625 226.5 427.0 229.0" stroke-width="0.0" fill="rgb(232, 91, 81)" opacity="1.0" stroke="rgb(148, 217, 98)" stroke-opacity="0.101166785" stroke-linecap="round" stroke-linejoin="round"/>
    <path d="M 422.0 218.0 C 421.33013916015625 220.5 419.5 222.3301239013672 417.0 223.0 C 414.5 222.3301239013672 412.66986083984375 220.5 412.0 218.0 C 412.66986083984375 215.5 414.5 213.6698760986328 417.0 213.0 C 419.5 213.6698760986328 421.33013916015625 215.5 422.0 218.0" stroke-width="0.0" fill="rgb(232, 93, 83)" opacity="1.0" stroke="rgb(42, 116, 34)" stroke-opacity="0.35571638" stroke-linecap="round" stroke-linejoin="round"/>
    <path d="M 281.0 72.0 C 280.33013916015625 74.5 278.5 76.33012390136719 276.0 77.0 C 273.5 76.33012390136719 271.66986083984375 74.5 271.0 72.0 C 271.66986083984375 69.5 273.5 67.66987609863281 276.0 67.0 C 278.5 67.66987609863281 280.33013916015625 69.5 281.0 72.0" stroke-width="0.0" fill="rgb(251, 252, 252)" opacity="1.0" stroke="rgb(254, 36, 245)" stroke-opacity="0.82577807" stroke-linecap="round" stroke-linejoin="round"/>
    <path d="M 314.0 72.0 C 313.33013916015625 74.5 311.5 76.33012390136719 309.0 77.0 C 306.5 76.33012390136719 304.66986083984375 74.5 304.0 72.0 C 304.66986083984375 69.5 306.5 67.66987609863281 309.0 67.0 C 311.5 67.66987609863281 313.33013916015625 69.5 314.0 72.0" stroke-width="0.0" fill="rgb(251, 252, 252)" opacity="1.0" stroke="rgb(30, 233, 219)" stroke-opacity="0.8194968" stroke-linecap="round" stroke-linejoin="round"/>
    <path d="M 308.0 66.0 C 307.33013916015625 68.5 305.5 70.33012390136719 303.0 71.0 C 300.5 70.33012390136719 298.66986083984375 68.5 298.0 66.0 C 298.66986083984375 63.5 300.5 61.66987228393555 303.0 61.0 C 305.5 61.66987228393555 307.33013916015625 63.5 308.0 66.0" stroke-width="0.0" fill="rgb(251, 252, 252)" opacity="1.0" stroke="rgb(50, 113, 200)" stroke-opacity="0.0016563482" stroke-linecap="round" stroke-linejoin="round"/>
  </g>
</svg>
