<?xml version="1.0" ?>
<svg xmlns="http://www.w3.org/2000/svg" version="1.1" width="512" height="362">
  <defs/>
  <g>
    <path d="M 217.09046936035156 94.6307144165039 C 215.21932983398438 103.45030212402344 226.51348876953125 104.80948638916016 175.7323455810547 111.90504455566406 C 164.7928009033203 107.9915771484375 178.8916473388672 75.63578796386719 139.40296936035156 33.650081634521484 C 133.33868408203125 28.419540405273438 129.2193603515625 25.687591552734375 158.46475219726562 31.497434616088867 C 191.25218200683594 41.75185012817383 212.0050048828125 65.2396240234375 217.09046936035156 94.6307144165039" stroke-width="0.0" fill="rgb(255, 54, 44)" opacity="0.76066494" stroke="rgb(101, 132, 198)" stroke-opacity="0.76298857" stroke-linecap="round" stroke-linejoin="round"/>
    <path d="M 284.0 279.0 C 283.33013916015625 281.5 281.5 283.33013916015625 279.0 284.0 C 276.5 283.33013916015625 274.66986083984375 281.5 274.0 279.0 C 274.66986083984375 276.5 276.5 274.66986083984375 279.0 274.0 C 281.5 274.66986083984375 283.33013916015625 276.5 284.0 279.0" stroke-width="0.0" fill="rgb(236, 229, 206)" opacity="1.0" stroke="rgb(135, 222, 94)" stroke-opacity="0.30391696" stroke-linecap="round" stroke-linejoin="round"/>
    <path d="M 131.0 74.0 C 130.3301239013672 76.5 128.5 78.33012390136719 126.0 79.0 C 123.5 78.33012390136719 121.66987609863281 76.5 121.0 74.0 C 121.66987609863281 71.5 123.5 69.66987609863281 126.0 69.0 C 128.5 69.66987609863281 130.3301239013672 71.5 131.0 74.0" stroke-width="0.0" fill="rgb(254, 255, 214)" opacity="1.0" stroke="rgb(48, 112, 79)" stroke-opacity="0.8279588" stroke-linecap="round" stroke-linejoin="round"/>
  </g>
</svg>
