<?xml version="1.0" ?>
<svg xmlns="http://www.w3.org/2000/svg" version="1.1" width="512" height="362">
  <defs/>
  <g>
    <path d="M 217.44427490234375 98.03692626953125 C 213.01576232910156 103.20088958740234 228.43295288085938 103.83684539794922 179.0991668701172 111.67567443847656 C 161.20001220703125 113.5639877319336 183.30279541015625 79.27987670898438 137.91650390625 32.21001052856445 C 134.6476287841797 28.41269874572754 125.86616516113281 25.259464263916016 155.38906860351562 30.57999610900879 C 190.65350341796875 39.502559661865234 213.91183471679688 66.7374267578125 217.44427490234375 98.03692626953125" stroke-width="0.0" fill="rgb(252, 40, 32)" opacity="0.74211127" stroke="rgb(101, 132, 198)" stroke-opacity="0.76298857" stroke-linecap="round" stroke-linejoin="round"/>
    <path d="M 279.47711181640625 287.0867004394531 C 272.80328369140625 260.0577697753906 297.56634521484375 325.7223205566406 236.80386352539062 342.1097717285156 C 199.09625244140625 342.8533020019531 240.0039520263672 349.3685302734375 255.58778381347656 313.9164123535156 C 283.4571533203125 248.2722625732422 223.9582061767578 232.89930725097656 254.4432830810547 246.5972442626953 C 273.6842346191406 259.59234619140625 277.3834533691406 275.4271240234375 279.47711181640625 287.0867004394531" stroke-width="0.0" fill="rgb(255, 183, 0)" opacity="0.59749126" stroke="rgb(135, 222, 94)" stroke-opacity="0.30391696" stroke-linecap="round" stroke-linejoin="round"/>
    <path d="M 163.2609405517578 69.09329986572266 C 179.41046142578125 123.86471557617188 165.7109832763672 98.2645034790039 137.93548583984375 108.62748718261719 C 104.95941162109375 112.89134979248047 110.64128875732422 115.57743835449219 110.00157165527344 111.56156921386719 C 109.9968490600586 31.5812931060791 110.0312728881836 33.57319259643555 110.05326080322266 33.971988677978516 C 138.85317993164062 35.24603271484375 141.26844787597656 26.25310516357422 163.2609405517578 69.09329986572266" stroke-width="0.0" fill="rgb(255, 255, 215)" opacity="0.85123867" stroke="rgb(48, 112, 79)" stroke-opacity="0.8279588" stroke-linecap="round" stroke-linejoin="round"/>
    <path d="M 93.83499145507812 130.45462036132812 C 280.87872314453125 69.51570129394531 274.2784118652344 212.57090759277344 44.49434280395508 224.23731994628906 C -32.49515914916992 200.59005737304688 -16.78679656982422 178.2106170654297 -13.694554328918457 4.044981002807617 C -12.820855140686035 -13.859386444091797 -6.136358261108398 -24.266618728637695 334.2720947265625 2.1427056789398193 C 259.39776611328125 206.5515594482422 68.95875549316406 -127.8774642944336 93.83499145507812 130.45462036132812" stroke-width="0.0" fill="rgb(0, 155, 186)" opacity="0.3950107" stroke="rgb(24, 92, 206)" stroke-opacity="0.91258454" stroke-linecap="round" stroke-linejoin="round"/>
    <path d="M 243.15008544921875 272.8707580566406 C 239.09596252441406 296.90228271484375 231.47686767578125 323.66644287109375 221.0752716064453 337.2417297363281 C 211.8599395751953 348.3468322753906 207.48155212402344 334.393310546875 212.1888885498047 305.83819580078125 C 214.93785095214844 289.03765869140625 221.19557189941406 262.3198547363281 233.63055419921875 244.208740234375 C 243.93553161621094 249.27264404296875 245.87918090820312 238.1380615234375 243.15008544921875 272.8707580566406" stroke-width="0.0" fill="rgb(254, 183, 0)" opacity="0.5998054" stroke="rgb(128, 228, 193)" stroke-opacity="0.47842476" stroke-linecap="round" stroke-linejoin="round"/>
    <path d="M 420.819580078125 248.90054321289062 C 419.44146728515625 254.34078979492188 414.5574951171875 253.31922912597656 385.46575927734375 262.2038879394531 C 373.1197814941406 265.1473083496094 378.1837463378906 244.0675048828125 372.33917236328125 246.37457275390625 C 371.90386962890625 235.40017700195312 374.501953125 230.39698791503906 410.33685302734375 224.67990112304688 C 401.6692810058594 211.25021362304688 413.2655029296875 200.2522430419922 420.819580078125 248.90054321289062" stroke-width="0.0" fill="rgb(229, 9, 6)" opacity="0.6147636" stroke="rgb(196, 79, 125)" stroke-opacity="0.53789616" stroke-linecap="round" stroke-linejoin="round"/>
    <path d="M 200.43463134765625 265.73443603515625 C 188.8643035888672 285.2585754394531 185.66354370117188 326.8033752441406 210.98922729492188 340.01397705078125 C 183.77076721191406 330.5250244140625 175.3135986328125 305.2611999511719 175.88751220703125 292.97271728515625 C 174.01869201660156 283.4092102050781 180.22933959960938 244.998779296875 223.4602813720703 238.97789001464844 C 253.09767150878906 240.2866668701172 216.2560577392578 231.96986389160156 200.43463134765625 265.73443603515625" stroke-width="0.0" fill="rgb(255, 183, 0)" opacity="0.5965403" stroke="rgb(195, 235, 233)" stroke-opacity="0.061261944" stroke-linecap="round" stroke-linejoin="round"/>
  </g>
</svg>
