<?xml version="1.0" ?>
<svg xmlns="http://www.w3.org/2000/svg" version="1.1" width="512" height="362">
  <defs/>
  <g>
    <path d="M 217.59580993652344 98.35960388183594 C 213.02151489257812 103.19527435302734 228.69969177246094 103.9771728515625 179.1244659423828 111.50239562988281 C 160.92526245117188 114.11451721191406 183.52903747558594 79.74546813964844 137.97999572753906 32.25165939331055 C 134.51068115234375 28.31212615966797 126.15351867675781 25.390270233154297 155.32244873046875 30.7941837310791 C 190.49769592285156 39.23412322998047 214.2308807373047 67.0048599243164 217.59580993652344 98.35960388183594" stroke-width="0.0" fill="rgb(235, 37, 33)" opacity="0.72563136" stroke="rgb(101, 132, 198)" stroke-opacity="0.76298857" stroke-linecap="round" stroke-linejoin="round"/>
    <path d="M 279.0191650390625 287.39794921875 C 273.58343505859375 259.63494873046875 297.257568359375 326.9393005371094 236.16030883789062 342.2693786621094 C 199.0286407470703 342.5944519042969 239.9296875 349.8160705566406 255.89468383789062 313.3723449707031 C 282.9516296386719 247.7056121826172 224.3104248046875 233.28927612304688 253.2023468017578 245.90863037109375 C 273.4835205078125 258.4957580566406 278.1170349121094 276.279052734375 279.0191650390625 287.39794921875" stroke-width="0.0" fill="rgb(245, 181, 0)" opacity="0.598372" stroke="rgb(135, 222, 94)" stroke-opacity="0.30391696" stroke-linecap="round" stroke-linejoin="round"/>
    <path d="M 163.28433227539062 69.18035888671875 C 179.4936981201172 123.87129211425781 165.70034790039062 98.43465423583984 138.228759765625 108.44718933105469 C 104.71659088134766 112.927978515625 110.44627380371094 115.66385650634766 110.0140609741211 111.71424865722656 C 110.00007629394531 31.36005973815918 110.01483917236328 33.36054992675781 109.99878692626953 33.88505935668945 C 138.59742736816406 35.35355758666992 141.28802490234375 26.24144744873047 163.28433227539062 69.18035888671875" stroke-width="0.0" fill="rgb(255, 255, 216)" opacity="0.7823798" stroke="rgb(48, 112, 79)" stroke-opacity="0.8279588" stroke-linecap="round" stroke-linejoin="round"/>
    <path d="M 91.30587768554688 134.57992553710938 C 316.1567077636719 56.60472869873047 302.3471984863281 179.3203887939453 60.50003433227539 227.62828063964844 C -42.70440673828125 182.9064483642578 -20.352930068969727 214.87864685058594 -13.92187213897705 6.560751914978027 C -12.818439483642578 -13.870800971984863 -5.952267169952393 -24.532854080200195 340.2362365722656 1.6750342845916748 C 250.4345245361328 211.39276123046875 73.9965591430664 -149.55279541015625 91.30587768554688 134.57992553710938" stroke-width="0.0" fill="rgb(0, 166, 194)" opacity="0.5310071" stroke="rgb(24, 92, 206)" stroke-opacity="0.91258454" stroke-linecap="round" stroke-linejoin="round"/>
    <path d="M 243.9793701171875 265.6029357910156 C 240.32986450195312 296.2921142578125 230.53268432617188 324.7119445800781 221.54331970214844 336.6689758300781 C 212.07235717773438 348.87969970703125 207.4995880126953 334.92462158203125 212.23202514648438 305.70965576171875 C 214.5168914794922 290.85089111328125 221.91668701171875 259.5569152832031 233.931640625 244.005615234375 C 245.1826629638672 250.603759765625 244.34597778320312 237.43524169921875 243.9793701171875 265.6029357910156" stroke-width="0.0" fill="rgb(242, 181, 0)" opacity="0.60132" stroke="rgb(128, 228, 193)" stroke-opacity="0.47842476" stroke-linecap="round" stroke-linejoin="round"/>
    <path d="M 421.0439147949219 248.85409545898438 C 418.82135009765625 254.4462127685547 417.7398681640625 252.40122985839844 385.2808837890625 262.24951171875 C 370.2058410644531 264.10821533203125 382.7890625 241.20657348632812 366.263427734375 246.54747009277344 C 376.07659912109375 238.4517059326172 367.75543212890625 230.41546630859375 411.58197021484375 224.36302185058594 C 401.31915283203125 219.9675750732422 410.67431640625 190.971923828125 421.0439147949219 248.85409545898438" stroke-width="0.0" fill="rgb(218, 0, 0)" opacity="0.59558135" stroke="rgb(196, 79, 125)" stroke-opacity="0.53789616" stroke-linecap="round" stroke-linejoin="round"/>
    <path d="M 200.93019104003906 264.6997985839844 C 188.52549743652344 284.8631286621094 185.5520782470703 327.15911865234375 211.0498046875 340.0824279785156 C 183.6739501953125 330.5490417480469 175.1500701904297 305.357666015625 175.88339233398438 292.151123046875 C 174.16824340820312 282.4649658203125 181.26571655273438 243.37799072265625 225.3557891845703 238.817626953125 C 251.3281707763672 240.95700073242188 217.2371063232422 231.9253692626953 200.93019104003906 264.6997985839844" stroke-width="0.0" fill="rgb(243, 181, 0)" opacity="0.59876615" stroke="rgb(195, 235, 233)" stroke-opacity="0.061261944" stroke-linecap="round" stroke-linejoin="round"/>
    <path d="M 523.2078247070312 10.387962341308594 C 505.0935363769531 185.62124633789062 512.6867065429688 173.6161346435547 269.190185546875 217.8292694091797 C 190.49754333496094 191.4769744873047 192.1944122314453 189.03775024414062 244.18362426757812 -66.24259948730469 C 442.0280456542969 -35.45061111450195 442.94384765625 -11.045560836791992 405.7607116699219 30.56945037841797 C 450.56500244140625 -38.536537170410156 490.4488830566406 -33.63388442993164 523.2078247070312 10.387962341308594" stroke-width="0.0" fill="rgb(130, 207, 214)" opacity="0.694428" stroke="rgb(179, 32, 122)" stroke-opacity="0.68156433" stroke-linecap="round" stroke-linejoin="round"/>
    <path d="M 524.36962890625 135.7006378173828 C 517.2648315429688 179.8179473876953 504.27587890625 165.09556579589844 448.96160888671875 196.44810485839844 C 438.32196044921875 195.00437927246094 424.0704650878906 193.41848754882812 391.01934814453125 196.34634399414062 C 456.8311462402344 132.2154998779297 466.58343505859375 135.1513214111328 506.8714599609375 103.36387634277344 C 523.0802001953125 106.7436294555664 523.557373046875 113.72467803955078 524.36962890625 135.7006378173828" stroke-width="0.0" fill="rgb(85, 207, 234)" opacity="0.57983387" stroke="rgb(9, 18, 217)" stroke-opacity="0.9893796" stroke-linecap="round" stroke-linejoin="round"/>
    <path d="M 225.50723266601562 36.04619598388672 C 71.44344329833984 26.023088455200195 -1.7356317043304443 -0.4772554039955139 9.981770515441895 91.28121185302734 C 7.140957832336426 103.57622528076172 -0.42779383063316345 112.10336303710938 -11.505703926086426 112.17554473876953 C 20.671627044677734 46.65713119506836 32.3231315612793 49.096595764160156 71.6177978515625 24.45905876159668 C 100.41024780273438 -7.279033660888672 192.48158264160156 -81.29747772216797 225.50723266601562 36.04619598388672" stroke-width="0.0" fill="rgb(78, 187, 194)" opacity="0.9169649" stroke="rgb(77, 24, 129)" stroke-opacity="0.32327315" stroke-linecap="round" stroke-linejoin="round"/>
    <path d="M 149.33197021484375 309.1559753417969 C 138.88819885253906 331.0825500488281 117.32879638671875 295.5332336425781 123.72174072265625 348.6678161621094 C 94.23912811279297 308.930908203125 122.08484649658203 327.8948974609375 75.47149658203125 329.4413757324219 C 129.88479614257812 305.6565246582031 44.46611404418945 271.8665466308594 109.26963806152344 297.1701965332031 C 152.54718017578125 247.50375366210938 98.4701156616211 313.82977294921875 149.33197021484375 309.1559753417969" stroke-width="0.0" fill="rgb(237, 0, 0)" opacity="0.52613884" stroke="rgb(6, 105, 64)" stroke-opacity="0.5248977" stroke-linecap="round" stroke-linejoin="round"/>
    <path d="M 522.3366088867188 194.71202087402344 C 514.7183227539062 199.71852111816406 514.0294799804688 185.38427734375 493.8114013671875 201.73626708984375 C 470.06903076171875 216.96824645996094 477.060791015625 200.89500427246094 450.1075439453125 196.86619567871094 C 461.7008361816406 162.25389099121094 469.8866271972656 159.11123657226562 495.8448181152344 152.47312927246094 C 528.60302734375 151.20240783691406 525.1822509765625 154.32568359375 522.3366088867188 194.71202087402344" stroke-width="0.0" fill="rgb(25, 195, 246)" opacity="0.49427235" stroke="rgb(50, 127, 209)" stroke-opacity="0.5761377" stroke-linecap="round" stroke-linejoin="round"/>
    <path d="M 88.06160736083984 -3.716029167175293 C 43.82542419433594 52.109256744384766 43.27642059326172 59.412254333496094 -3.026777744293213 78.40127563476562 C -11.099392890930176 71.05982208251953 -12.00607681274414 67.27944946289062 -12.256271362304688 -4.772917747497559 C -13.24124526977539 -9.517712593078613 -13.623351097106934 -12.150252342224121 73.34503936767578 -12.813422203063965 C 75.8680648803711 -7.918949127197266 83.8957290649414 -10.44571304321289 88.06160736083984 -3.716029167175293" stroke-width="0.0" fill="rgb(28, 168, 184)" opacity="0.98747206" stroke="rgb(238, 246, 241)" stroke-opacity="0.38724467" stroke-linecap="round" stroke-linejoin="round"/>
    <path d="M 110.81939697265625 2.1248371601104736 C 60.396602630615234 75.05902099609375 47.62043380737305 65.80224609375 -5.405524730682373 101.11064910888672 C -10.434196472167969 97.8733901977539 -11.640854835510254 93.67866516113281 -10.045464515686035 76.08773803710938 C 16.252666473388672 34.94285202026367 19.08016586303711 33.873779296875 62.09309387207031 7.509230613708496 C 80.9682388305664 -6.1093926429748535 91.84575653076172 -15.29466724395752 110.81939697265625 2.1248371601104736" stroke-width="0.0" fill="rgb(10, 162, 185)" opacity="1.0" stroke="rgb(247, 186, 180)" stroke-opacity="0.35386214" stroke-linecap="round" stroke-linejoin="round"/>
    <path d="M 103.29141235351562 32.6251220703125 C 80.76102447509766 92.88743591308594 84.20015716552734 86.48847198486328 123.63345336914062 209.73092651367188 C -91.55531311035156 218.8814239501953 -46.69904708862305 194.9788055419922 -16.226577758789062 162.5711212158203 C 11.495293617248535 46.881080627441406 36.61931610107422 57.134029388427734 95.16487121582031 15.033419609069824 C 109.52984619140625 23.382625579833984 121.43716430664062 30.54439926147461 103.29141235351562 32.6251220703125" stroke-width="0.0" fill="rgb(83, 186, 190)" opacity="0.9498161" stroke="rgb(102, 36, 46)" stroke-opacity="0.3377208" stroke-linecap="round" stroke-linejoin="round"/>
  </g>
</svg>
