<?xml version="1.0" ?>
<svg xmlns="http://www.w3.org/2000/svg" version="1.1" width="512" height="512">
  <defs/>
  <g>
    <path d="M 0.0 0.0 L 512.0 0.0 L 512.0 512.0 L 0.0 512.0 L 0.0 0.0" stroke-width="0.0" fill="rgb(255, 255, 255)" opacity="1.0" stroke="rgb(0, 0, 0)" stroke-opacity="0.0" stroke-linecap="round" stroke-linejoin="round"/>
    <path d="M 88.0 63.0 C 49.11739730834961 98.26661682128906 29.197755813598633 132.8024444580078 15.0 169.0 L 4.0 208.0 L 0.0 244.0 L 0.0 511.0 L 511.0 511.0 L 511.0 245.0 C 506.1500549316406 192.3333282470703 492.3668212890625 139.6666717529297 447.0 87.0 C 391.6666564941406 27.544836044311523 336.3333435058594 8.68564224243164 281.0 2.0 C 217.2919158935547 -2.418637990951538 151.0561065673828 9.28165054321289 88.0 63.0" stroke-width="2.0" fill="rgb(96, 183, 250)" opacity="1.0" stroke="rgb(0, 0, 0)" stroke-opacity="0.0" stroke-linecap="round" stroke-linejoin="round"/>
    <path d="M 394.0 146.0 C 389.15997314453125 136.9281005859375 380.459716796875 138.9672088623047 374.0 141.0 C 292.0 173.86827087402344 210.0 204.39804077148438 128.0 236.0 C 122.61643981933594 238.5410919189453 114.41277313232422 243.9823760986328 117.0 250.0 C 121.0 254.97476196289062 125.0 253.9582061767578 129.0 257.0 C 149.0 262.79638671875 169.0 268.4525146484375 189.0 276.0 C 200.35557556152344 303.0 203.7598876953125 330.0 216.0 357.0 C 220.6666717529297 358.74591064453125 225.3333282470703 358.1230163574219 230.0 355.0 L 265.0 322.0 C 288.6666564941406 337.5180969238281 312.3333435058594 359.4310302734375 336.0 372.0 C 345.9064025878906 375.019775390625 351.21649169921875 362.698974609375 353.0 355.0 C 365.8221435546875 290.3333435058594 379.4157409667969 225.6666717529297 394.0 161.0 L 394.0 146.0" stroke-width="2.0" fill="rgb(245, 247, 247)" opacity="1.0" stroke="rgb(0, 0, 0)" stroke-opacity="0.0" stroke-linecap="round" stroke-linejoin="round"/>
    <path d="M 387.0 140.0 C 372.0 139.3390655517578 357.0 150.63218688964844 342.0 154.0 C 339.4530029296875 156.04701232910156 344.3418884277344 153.991455078125 345.0 157.0 C 346.6208801269531 160.9810028076172 337.62420654296875 166.91395568847656 346.0 168.0 C 344.1072998046875 169.46649169921875 347.7449645996094 176.18307495117188 343.0 173.0 L 346.0 184.0 L 228.0 291.0 C 227.7209930419922 293.3333435058594 227.66233825683594 295.6666564941406 231.0 298.0 C 265.72735595703125 320.8336486816406 300.23675537109375 350.1587219238281 336.0 372.0 C 340.3333435058594 372.0849304199219 344.6666564941406 371.8310241699219 349.0 367.0 C 366.03533935546875 297.0 378.56927490234375 227.0 394.0 157.0 C 394.1788635253906 151.9830322265625 394.4322509765625 144.35604858398438 387.0 140.0" stroke-width="2.0" fill="rgb(253, 254, 254)" opacity="1.0" stroke="rgb(0, 0, 0)" stroke-opacity="0.0" stroke-linecap="round" stroke-linejoin="round"/>
    <path d="M 344.0 182.0 C 336.2139587402344 181.48065185546875 334.2669982910156 173.7093505859375 327.0 170.0 C 330.6512756347656 168.1074981689453 331.49078369140625 163.39523315429688 334.0 160.0 L 328.0 160.0 L 128.0 236.0 C 118.9615707397461 239.0490264892578 113.08931732177734 249.59706115722656 124.0 255.0 L 188.0 275.0 L 194.0 287.0 L 212.0 350.0 C 214.6064910888672 357.44464111328125 220.6835174560547 357.75860595703125 226.0 357.0 C 237.04847717285156 348.8724060058594 250.60098266601562 335.11114501953125 260.0 324.0 C 261.2659912109375 321.3333435058594 257.6412048339844 318.6666564941406 255.0 316.0 C 252.3333282470703 315.98480224609375 249.6666717529297 316.55487060546875 247.0 314.0 C 244.0353546142578 319.7614440917969 237.57666015625 316.3369445800781 239.0 312.0 L 245.0 310.0 C 235.54229736328125 303.5155944824219 236.41966247558594 317.82684326171875 235.0 323.0 C 233.3333282470703 326.44873046875 231.6666717529297 321.1153869628906 230.0 322.0 C 228.73077392578125 322.6581115722656 228.23077392578125 327.5469970703125 226.0 325.0 L 225.0 298.0 L 228.0 289.0 L 330.0 198.0 C 334.5166015625 192.51434326171875 342.5937805175781 187.22586059570312 344.0 182.0" stroke-width="2.0" fill="rgb(239, 241, 241)" opacity="1.0" stroke="rgb(0, 0, 0)" stroke-opacity="0.0" stroke-linecap="round" stroke-linejoin="round"/>
    <path d="M 288.0 0.0 C 327.3333435058594 6.292830944061279 366.6666564941406 19.44632339477539 406.0 47.0 C 419.42510986328125 57.8517951965332 435.20794677734375 71.47681427001953 447.0 84.0 C 487.7004699707031 131.6666717529297 505.38031005859375 179.3333282470703 511.0 227.0 L 511.0 0.0 L 288.0 0.0" stroke-width="2.0" fill="rgb(253, 254, 254)" opacity="1.0" stroke="rgb(0, 0, 0)" stroke-opacity="0.0" stroke-linecap="round" stroke-linejoin="round"/>
    <path d="M 0.0 224.0 L 9.0 181.0 C 17.98619842529297 154.3333282470703 30.698760986328125 127.66666412353516 50.0 101.0 C 88.09153747558594 51.859230041503906 137.05079650878906 23.27307891845703 181.0 9.0 C 196.3333282470703 6.043039798736572 211.6666717529297 1.1301946640014648 227.0 0.0 L 0.0 0.0 L 0.0 224.0" stroke-width="2.0" fill="rgb(253, 254, 254)" opacity="1.0" stroke="rgb(0, 0, 0)" stroke-opacity="0.0" stroke-linecap="round" stroke-linejoin="round"/>
    <path d="M 511.0 294.0 L 504.0 327.0 C 496.381591796875 345.3333435058594 489.4867248535156 363.6666564941406 480.0 382.0 L 459.0 413.0 L 426.0 448.0 C 407.6304626464844 463.445068359375 385.930908203125 477.45050048828125 366.0 488.0 C 338.3333435058594 500.0013122558594 310.6666564941406 508.0010070800781 283.0 511.0 L 511.0 511.0 L 511.0 294.0" stroke-width="2.0" fill="rgb(253, 254, 254)" opacity="1.0" stroke="rgb(0, 0, 0)" stroke-opacity="0.0" stroke-linecap="round" stroke-linejoin="round"/>
    <path d="M 0.0 300.0 L 0.0 511.0 L 229.0 511.0 L 187.0 504.0 L 144.0 488.0 L 108.0 467.0 L 80.0 444.0 L 53.0 415.0 C 45.059452056884766 404.6124572753906 37.81969451904297 391.740234375 31.0 383.0 C 23.89925193786621 369.3333435058594 18.590599060058594 355.6666564941406 12.0 342.0 C 9.11594009399414 328.6666564941406 2.3615591526031494 315.3333435058594 0.0 300.0" stroke-width="2.0" fill="rgb(254, 254, 254)" opacity="1.0" stroke="rgb(0, 0, 0)" stroke-opacity="0.0" stroke-linecap="round" stroke-linejoin="round"/>
    <path d="M 342.0 183.0 L 336.0 184.0 C 287.6666564941406 215.64816284179688 239.3333282470703 243.06854248046875 191.0 276.0 C 195.95925903320312 300.3333435058594 206.20982360839844 324.6666564941406 212.0 349.0 C 214.21188354492188 358.154052734375 223.5293731689453 360.20733642578125 230.0 355.0 L 262.0 323.0 C 251.3516082763672 312.55670166015625 238.53126525878906 304.1226501464844 227.0 297.0 C 224.19454956054688 294.3333435058594 226.89825439453125 291.6666564941406 228.0 289.0 L 337.0 191.0 L 342.0 183.0" stroke-width="2.0" fill="rgb(218, 219, 219)" opacity="1.0" stroke="rgb(0, 0, 0)" stroke-opacity="0.0" stroke-linecap="round" stroke-linejoin="round"/>
    <path d="M 228.0 296.0 L 222.0 357.0 L 230.0 355.0 L 262.0 324.0 C 254.92889404296875 313.3365173339844 239.3858642578125 305.431884765625 228.0 296.0" stroke-width="2.0" fill="rgb(181, 183, 184)" opacity="1.0" stroke="rgb(0, 0, 0)" stroke-opacity="0.0" stroke-linecap="round" stroke-linejoin="round"/>
    <path d="M 299.0 509.0 L 291.0 510.0 L 299.0 509.0" stroke-width="2.0" fill="rgb(242, 254, 252)" opacity="1.0" stroke="rgb(0, 0, 0)" stroke-opacity="0.0" stroke-linecap="round" stroke-linejoin="round"/>
  </g>
</svg>
