<?xml version="1.0" ?>
<svg xmlns="http://www.w3.org/2000/svg" version="1.1" width="359" height="512">
  <defs/>
  <g>
    <path d="M 223.73553466796875 429.5411682128906 C 223.8047332763672 401.9478454589844 224.01272583007812 426.547607421875 223.08848571777344 469.5532531738281 C 222.2227020263672 448.65972900390625 222.70965576171875 415.1942443847656 220.3488311767578 471.6294860839844 C 221.7886199951172 354.51031494140625 215.5267333984375 269.8980407714844 222.79763793945312 328.7039794921875 C 222.9522705078125 386.3491516113281 223.44346618652344 411.56866455078125 223.73553466796875 429.5411682128906" stroke-width="0.0" fill="rgb(4, 0, 0)" opacity="0.96413267" stroke="rgb(243, 233, 65)" stroke-opacity="0.8161581" stroke-linecap="round" stroke-linejoin="round"/>
    <path d="M 366.2825012207031 93.90016174316406 C 363.6798095703125 107.67743682861328 361.4784240722656 109.42555236816406 254.29122924804688 131.6025390625 C 223.63612365722656 267.7991027832031 225.84373474121094 300.3446044921875 177.36944580078125 88.43743133544922 C 148.35459899902344 -68.01445770263672 195.81790161132812 -42.26771926879883 379.8298034667969 1.7091842889785767 C 377.9929504394531 51.54071044921875 373.88916015625 55.911258697509766 366.2825012207031 93.90016174316406" stroke-width="0.0" fill="rgb(247, 251, 255)" opacity="0.7765401" stroke="rgb(141, 71, 219)" stroke-opacity="0.46461618" stroke-linecap="round" stroke-linejoin="round"/>
    <path d="M 369.5069274902344 125.76920318603516 C 365.1914978027344 128.80738830566406 385.2508544921875 138.68357849121094 351.25311279296875 150.79205322265625 C 256.9535217285156 190.4779815673828 214.2885284423828 206.77047729492188 250.87388610839844 157.6708984375 C 329.9790954589844 86.92464447021484 336.3468322753906 92.07332611083984 348.2220764160156 91.09153747558594 C 366.5530090332031 96.58690643310547 368.2418518066406 94.99659729003906 369.5069274902344 125.76920318603516" stroke-width="0.0" fill="rgb(254, 253, 255)" opacity="0.79345196" stroke="rgb(4, 243, 38)" stroke-opacity="0.6887928" stroke-linecap="round" stroke-linejoin="round"/>
    <path d="M 249.54132080078125 301.5313720703125 C 251.03321838378906 318.0311279296875 249.9471435546875 332.82965087890625 251.62789916992188 397.872314453125 C 245.4899444580078 379.4220886230469 248.0160675048828 340.6788330078125 247.8689727783203 342.895263671875 C 246.2711944580078 364.9721984863281 247.96849060058594 343.11566162109375 246.4713592529297 292.3758239746094 C 304.7731628417969 288.1595458984375 249.9727783203125 309.68927001953125 249.54132080078125 301.5313720703125" stroke-width="0.0" fill="rgb(7, 7, 6)" opacity="0.99952704" stroke="rgb(227, 73, 67)" stroke-opacity="0.9633885" stroke-linecap="round" stroke-linejoin="round"/>
    <path d="M 247.4681396484375 509.0383605957031 C 244.8749237060547 451.2229919433594 250.0374298095703 452.0252685546875 241.64071655273438 451.4638977050781 C 241.73130798339844 383.3449401855469 239.61041259765625 385.5216979980469 236.3171844482422 430.0782470703125 C 223.47532653808594 371.91180419921875 248.50990295410156 409.22210693359375 240.57296752929688 401.6813659667969 C 247.97848510742188 385.61383056640625 246.37347412109375 377.25286865234375 247.4681396484375 509.0383605957031" stroke-width="0.0" fill="rgb(0, 0, 1)" opacity="0.9423797" stroke="rgb(43, 30, 82)" stroke-opacity="0.53430307" stroke-linecap="round" stroke-linejoin="round"/>
    <path d="M 252.45489501953125 434.5567932128906 C 254.19534301757812 464.0497131347656 247.07647705078125 481.5887145996094 249.57675170898438 395.29278564453125 C 240.9801788330078 384.39910888671875 242.08963012695312 426.3063659667969 241.16159057617188 394.6415100097656 C 253.01295471191406 389.3813171386719 248.32130432128906 399.8982238769531 249.19427490234375 415.604248046875 C 245.4626007080078 347.6553955078125 251.96421813964844 358.2044982910156 252.45489501953125 434.5567932128906" stroke-width="0.0" fill="rgb(4, 6, 6)" opacity="0.98293895" stroke="rgb(198, 188, 199)" stroke-opacity="0.1877008" stroke-linecap="round" stroke-linejoin="round"/>
    <path d="M 152.5455780029297 420.39630126953125 C 151.93307495117188 427.76568603515625 154.84942626953125 426.41082763671875 143.8524169921875 423.40386962890625 C 144.52523803710938 399.71820068359375 144.8463592529297 392.86572265625 144.81182861328125 385.1966857910156 C 143.09176635742188 405.2217102050781 144.2581329345703 400.4085998535156 144.64503479003906 384.7158508300781 C 156.01246643066406 393.10479736328125 151.6593475341797 377.6280822753906 152.5455780029297 420.39630126953125" stroke-width="0.0" fill="rgb(0, 2, 3)" opacity="0.9824838" stroke="rgb(103, 112, 233)" stroke-opacity="0.66743803" stroke-linecap="round" stroke-linejoin="round"/>
    <path d="M 95.0 39.0 C 94.33012390136719 41.5 92.5 43.33012771606445 90.0 44.0 C 87.5 43.33012771606445 85.66987609863281 41.5 85.0 39.0 C 85.66987609863281 36.5 87.5 34.66987228393555 90.0 34.0 C 92.5 34.66987228393555 94.33012390136719 36.5 95.0 39.0" stroke-width="0.0" fill="rgb(231, 231, 232)" opacity="1.0" stroke="rgb(95, 249, 184)" stroke-opacity="0.15187533" stroke-linecap="round" stroke-linejoin="round"/>
    <path d="M 89.0 22.0 C 88.33012390136719 24.5 86.5 26.330127716064453 84.0 27.0 C 81.5 26.330127716064453 79.66987609863281 24.5 79.0 22.0 C 79.66987609863281 19.5 81.5 17.669872283935547 84.0 17.0 C 86.5 17.669872283935547 88.33012390136719 19.5 89.0 22.0" stroke-width="0.0" fill="rgb(231, 231, 231)" opacity="1.0" stroke="rgb(242, 228, 129)" stroke-opacity="0.032927465" stroke-linecap="round" stroke-linejoin="round"/>
    <path d="M 131.0 66.0 C 130.3301239013672 68.5 128.5 70.33012390136719 126.0 71.0 C 123.5 70.33012390136719 121.66987609863281 68.5 121.0 66.0 C 121.66987609863281 63.5 123.5 61.66987228393555 126.0 61.0 C 128.5 61.66987228393555 130.3301239013672 63.5 131.0 66.0" stroke-width="0.0" fill="rgb(231, 231, 232)" opacity="1.0" stroke="rgb(42, 214, 11)" stroke-opacity="0.15816084" stroke-linecap="round" stroke-linejoin="round"/>
    <path d="M 113.0 52.0 C 112.33012390136719 54.5 110.5 56.33012771606445 108.0 57.0 C 105.5 56.33012771606445 103.66987609863281 54.5 103.0 52.0 C 103.66987609863281 49.5 105.5 47.66987228393555 108.0 47.0 C 110.5 47.66987228393555 112.33012390136719 49.5 113.0 52.0" stroke-width="0.0" fill="rgb(231, 231, 231)" opacity="1.0" stroke="rgb(185, 201, 139)" stroke-opacity="0.7362044" stroke-linecap="round" stroke-linejoin="round"/>
    <path d="M 127.0 15.0 C 126.33012390136719 17.5 124.5 19.330127716064453 122.0 20.0 C 119.5 19.330127716064453 117.66987609863281 17.5 117.0 15.0 C 117.66987609863281 12.5 119.5 10.669873237609863 122.0 10.0 C 124.5 10.669873237609863 126.33012390136719 12.5 127.0 15.0" stroke-width="0.0" fill="rgb(228, 228, 228)" opacity="1.0" stroke="rgb(215, 131, 217)" stroke-opacity="0.006271648" stroke-linecap="round" stroke-linejoin="round"/>
    <path d="M 114.0 89.0 C 113.33012390136719 91.5 111.5 93.33012390136719 109.0 94.0 C 106.5 93.33012390136719 104.66987609863281 91.5 104.0 89.0 C 104.66987609863281 86.5 106.5 84.66987609863281 109.0 84.0 C 111.5 84.66987609863281 113.33012390136719 86.5 114.0 89.0" stroke-width="0.0" fill="rgb(231, 231, 231)" opacity="1.0" stroke="rgb(215, 188, 81)" stroke-opacity="0.28891227" stroke-linecap="round" stroke-linejoin="round"/>
    <path d="M 83.0 75.0 C 82.33012390136719 77.5 80.5 79.33012390136719 78.0 80.0 C 75.5 79.33012390136719 73.66987609863281 77.5 73.0 75.0 C 73.66987609863281 72.5 75.5 70.66987609863281 78.0 70.0 C 80.5 70.66987609863281 82.33012390136719 72.5 83.0 75.0" stroke-width="0.0" fill="rgb(227, 228, 229)" opacity="1.0" stroke="rgb(63, 51, 70)" stroke-opacity="0.57215846" stroke-linecap="round" stroke-linejoin="round"/>
    <path d="M 360.0 480.0 C 359.33013916015625 482.5 357.5 484.33013916015625 355.0 485.0 C 352.5 484.33013916015625 350.66986083984375 482.5 350.0 480.0 C 350.66986083984375 477.5 352.5 475.66986083984375 355.0 475.0 C 357.5 475.66986083984375 359.33013916015625 477.5 360.0 480.0" stroke-width="0.0" fill="rgb(2, 2, 2)" opacity="1.0" stroke="rgb(141, 119, 92)" stroke-opacity="0.5967398" stroke-linecap="round" stroke-linejoin="round"/>
  </g>
</svg>
