<?xml version="1.0" ?>
<svg xmlns="http://www.w3.org/2000/svg" version="1.1" width="359" height="512">
  <defs/>
  <g>
    <path d="M 224.02366638183594 435.156494140625 C 223.76321411132812 401.7105407714844 224.11351013183594 424.5836486816406 223.37611389160156 465.9356994628906 C 216.8343048095703 448.70184326171875 223.91380310058594 401.71649169921875 220.03562927246094 436.6350402832031 C 222.09645080566406 379.0427551269531 215.2601318359375 271.9005432128906 222.72976684570312 324.44525146484375 C 223.08412170410156 384.72576904296875 223.38241577148438 413.7467041015625 224.02366638183594 435.156494140625" stroke-width="0.0" fill="rgb(19, 15, 16)" opacity="0.9965338" stroke="rgb(243, 233, 65)" stroke-opacity="0.8161581" stroke-linecap="round" stroke-linejoin="round"/>
    <path d="M 350.0 91.0 C 349.33013916015625 93.5 347.5 95.33012390136719 345.0 96.0 C 342.5 95.33012390136719 340.66986083984375 93.5 340.0 91.0 C 340.66986083984375 88.5 342.5 86.66987609863281 345.0 86.0 C 347.5 86.66987609863281 349.33013916015625 88.5 350.0 91.0" stroke-width="0.0" fill="rgb(231, 231, 231)" opacity="1.0" stroke="rgb(141, 71, 219)" stroke-opacity="0.46461618" stroke-linecap="round" stroke-linejoin="round"/>
    <path d="M 356.0 111.0 C 355.33013916015625 113.5 353.5 115.33012390136719 351.0 116.0 C 348.5 115.33012390136719 346.66986083984375 113.5 346.0 111.0 C 346.66986083984375 108.5 348.5 106.66987609863281 351.0 106.0 C 353.5 106.66987609863281 355.33013916015625 108.5 356.0 111.0" stroke-width="0.0" fill="rgb(229, 229, 229)" opacity="1.0" stroke="rgb(4, 243, 38)" stroke-opacity="0.6887928" stroke-linecap="round" stroke-linejoin="round"/>
  </g>
</svg>
