<?xml version="1.0" ?>
<svg xmlns="http://www.w3.org/2000/svg" version="1.1" width="359" height="512">
  <defs/>
  <g>
    <path d="M 223.8300323486328 429.041015625 C 224.09054565429688 401.93658447265625 223.9702606201172 426.5410461425781 222.9971923828125 470.94171142578125 C 222.6900634765625 448.3598937988281 222.09288024902344 412.83428955078125 220.3717041015625 476.8706359863281 C 221.9092559814453 348.2585754394531 215.5860595703125 273.0952453613281 222.78358459472656 329.1822814941406 C 223.00108337402344 386.52935791015625 223.15782165527344 410.5487060546875 223.8300323486328 429.041015625" stroke-width="0.0" fill="rgb(0, 0, 0)" opacity="0.95785534" stroke="rgb(243, 233, 65)" stroke-opacity="0.8161581" stroke-linecap="round" stroke-linejoin="round"/>
    <path d="M 366.2825012207031 93.90016174316406 C 363.6798095703125 107.67743682861328 361.4784240722656 109.42555236816406 248.9251708984375 130.31800842285156 C 231.01504516601562 272.5886535644531 224.24298095703125 303.3444519042969 177.2836151123047 87.21593475341797 C 147.5511016845703 -62.5988655090332 200.10313415527344 -42.90794372558594 381.5173034667969 1.6020565032958984 C 377.9929504394531 51.54071044921875 373.88916015625 55.911258697509766 366.2825012207031 93.90016174316406" stroke-width="0.0" fill="rgb(241, 249, 255)" opacity="0.82070345" stroke="rgb(141, 71, 219)" stroke-opacity="0.46461618" stroke-linecap="round" stroke-linejoin="round"/>
    <path d="M 369.51202392578125 125.87091827392578 C 365.71185302734375 129.63230895996094 385.39910888671875 138.2733917236328 351.22381591796875 150.83067321777344 C 256.7998352050781 190.2571563720703 214.19143676757812 207.6273651123047 247.77093505859375 155.8167724609375 C 329.9790954589844 86.92464447021484 336.3468322753906 92.07332611083984 348.2220764160156 91.09153747558594 C 366.5530090332031 96.58690643310547 368.2418518066406 94.99659729003906 369.51202392578125 125.87091827392578" stroke-width="0.0" fill="rgb(249, 252, 255)" opacity="0.8357462" stroke="rgb(4, 243, 38)" stroke-opacity="0.6887928" stroke-linecap="round" stroke-linejoin="round"/>
    <path d="M 249.44358825683594 300.7234802246094 C 250.8711395263672 312.5074768066406 249.9328155517578 336.57879638671875 251.63502502441406 399.6147155761719 C 246.0848388671875 384.23748779296875 247.7319793701172 340.16131591796875 247.5801239013672 337.8128356933594 C 246.21583557128906 368.3583679199219 247.9980010986328 331.1168518066406 246.4379119873047 292.48907470703125 C 304.7773742675781 288.2646789550781 248.35873413085938 310.3855895996094 249.44358825683594 300.7234802246094" stroke-width="0.0" fill="rgb(4, 6, 6)" opacity="1.0" stroke="rgb(227, 73, 67)" stroke-opacity="0.9633885" stroke-linecap="round" stroke-linejoin="round"/>
    <path d="M 247.38229370117188 526.046875 C 245.18017578125 439.2209167480469 249.9963836669922 454.7502746582031 241.68621826171875 451.01397705078125 C 241.83363342285156 384.1861877441406 239.5017852783203 385.3909606933594 236.21604919433594 430.0157165527344 C 223.90548706054688 372.7147521972656 248.0122833251953 408.7064208984375 240.51210021972656 401.6895751953125 C 247.58604431152344 387.56585693359375 246.60130310058594 371.0129699707031 247.38229370117188 526.046875" stroke-width="0.0" fill="rgb(0, 0, 4)" opacity="0.9463764" stroke="rgb(43, 30, 82)" stroke-opacity="0.53430307" stroke-linecap="round" stroke-linejoin="round"/>
    <path d="M 252.58729553222656 451.9059143066406 C 252.57003784179688 450.96258544921875 247.2357177734375 478.6987609863281 249.61798095703125 395.9419860839844 C 243.27362060546875 381.72161865234375 241.91392517089844 425.23382568359375 241.02276611328125 394.7816162109375 C 252.53660583496094 389.98626708984375 249.10086059570312 394.5955810546875 249.16644287109375 415.9402770996094 C 245.51609802246094 338.7818908691406 252.03948974609375 352.8907165527344 252.58729553222656 451.9059143066406" stroke-width="0.0" fill="rgb(0, 4, 4)" opacity="0.98625493" stroke="rgb(198, 188, 199)" stroke-opacity="0.1877008" stroke-linecap="round" stroke-linejoin="round"/>
    <path d="M 152.3948516845703 420.97802734375 C 151.93734741210938 427.8196105957031 154.972900390625 426.57586669921875 144.10165405273438 423.4089660644531 C 144.40707397460938 399.9458923339844 144.93112182617188 393.67742919921875 144.1710968017578 383.3575439453125 C 145.3173828125 404.00543212890625 144.42042541503906 398.87542724609375 144.78814697265625 384.8286437988281 C 155.80116271972656 392.69488525390625 151.71560668945312 377.87335205078125 152.3948516845703 420.97802734375" stroke-width="0.0" fill="rgb(0, 2, 4)" opacity="0.9872068" stroke="rgb(103, 112, 233)" stroke-opacity="0.66743803" stroke-linecap="round" stroke-linejoin="round"/>
    <path d="M 113.2340316772461 36.07548141479492 C 106.10408782958984 53.649879455566406 105.88898468017578 60.29287338256836 85.13592529296875 67.05760192871094 C 64.37056732177734 65.703369140625 59.93906784057617 63.717041015625 61.77094650268555 42.901512145996094 C 70.41575622558594 24.678102493286133 75.61741638183594 22.722681045532227 100.92144012451172 19.035762786865234 C 108.92682647705078 18.971555709838867 113.6512680053711 19.89739418029785 113.2340316772461 36.07548141479492" stroke-width="0.0" fill="rgb(238, 239, 241)" opacity="0.7575546" stroke="rgb(95, 249, 184)" stroke-opacity="0.15187533" stroke-linecap="round" stroke-linejoin="round"/>
    <path d="M 110.72926330566406 15.678564071655273 C 100.67317962646484 35.756038665771484 97.39225769042969 40.3848876953125 55.18299102783203 50.8617057800293 C 49.89271545410156 55.627315521240234 49.459102630615234 49.8632926940918 21.36846160888672 -1.4739404916763306 C 33.08290100097656 -21.3062801361084 47.977230072021484 -13.07102108001709 85.67416381835938 -11.528449058532715 C 109.27423858642578 -7.245523452758789 111.01002502441406 -4.422598361968994 110.72926330566406 15.678564071655273" stroke-width="0.0" fill="rgb(233, 236, 239)" opacity="0.98175126" stroke="rgb(242, 228, 129)" stroke-opacity="0.032927465" stroke-linecap="round" stroke-linejoin="round"/>
    <path d="M 162.64862060546875 75.94293212890625 C 153.254638671875 143.99468994140625 156.34262084960938 91.01155853271484 153.0677490234375 105.28399658203125 C 101.51040649414062 95.13706970214844 102.58241271972656 88.75680541992188 96.3666000366211 76.16781616210938 C 99.96739959716797 45.87108612060547 105.0929183959961 41.54396057128906 161.75729370117188 26.100616455078125 C 167.9427032470703 12.697035789489746 173.04627990722656 14.401613235473633 162.64862060546875 75.94293212890625" stroke-width="0.0" fill="rgb(233, 235, 236)" opacity="0.9718211" stroke="rgb(42, 214, 11)" stroke-opacity="0.15816084" stroke-linecap="round" stroke-linejoin="round"/>
    <path d="M 133.15966796875 45.57781982421875 C 128.16586303710938 69.53961944580078 125.32293701171875 71.44803619384766 103.22635650634766 79.13603973388672 C 85.79280853271484 78.46439361572266 87.25051879882812 73.8493423461914 79.94670104980469 62.6854248046875 C 89.14727783203125 35.23943328857422 91.62425231933594 32.42009735107422 114.96895599365234 23.308740615844727 C 133.07078552246094 25.662994384765625 134.40403747558594 27.273038864135742 133.15966796875 45.57781982421875" stroke-width="0.0" fill="rgb(237, 240, 241)" opacity="0.7967199" stroke="rgb(185, 201, 139)" stroke-opacity="0.7362044" stroke-linecap="round" stroke-linejoin="round"/>
    <path d="M 166.579833984375 23.085285186767578 C 155.5343780517578 47.91242980957031 150.27642822265625 46.365135192871094 132.56231689453125 46.34286117553711 C 97.84585571289062 44.02271270751953 95.85356140136719 41.19461441040039 90.41287231445312 17.5062313079834 C 90.16425323486328 -10.94127368927002 94.18387603759766 -9.728731155395508 112.78949737548828 -10.835712432861328 C 181.85287475585938 -13.475089073181152 179.9441680908203 -28.31208038330078 166.579833984375 23.085285186767578" stroke-width="0.0" fill="rgb(226, 226, 226)" opacity="1.0" stroke="rgb(215, 131, 217)" stroke-opacity="0.006271648" stroke-linecap="round" stroke-linejoin="round"/>
    <path d="M 151.04464721679688 105.48591613769531 C 125.96697998046875 255.97486877441406 184.7205352783203 306.4919738769531 72.44867706298828 162.4914093017578 C 94.54776000976562 156.6731414794922 113.64708709716797 118.81554412841797 74.80888366699219 46.86726760864258 C 84.40481567382812 66.59004974365234 87.15522766113281 63.99097442626953 101.68587493896484 62.888267517089844 C 123.8219985961914 67.9552993774414 136.3956298828125 69.73480224609375 151.04464721679688 105.48591613769531" stroke-width="0.0" fill="rgb(247, 253, 255)" opacity="0.81915265" stroke="rgb(215, 188, 81)" stroke-opacity="0.28891227" stroke-linecap="round" stroke-linejoin="round"/>
    <path d="M 108.91645050048828 72.14794921875 C 107.2570571899414 113.51492309570312 115.6191635131836 104.33301544189453 81.75733184814453 108.47296905517578 C 70.63841247558594 88.49864196777344 67.00506591796875 82.48192596435547 53.21460723876953 58.135154724121094 C 37.91908264160156 30.061643600463867 35.70681381225586 26.0505428314209 66.30722045898438 38.729026794433594 C 99.44967651367188 50.58811950683594 102.33189392089844 53.083099365234375 108.91645050048828 72.14794921875" stroke-width="0.0" fill="rgb(232, 233, 235)" opacity="1.0" stroke="rgb(63, 51, 70)" stroke-opacity="0.57215846" stroke-linecap="round" stroke-linejoin="round"/>
    <path d="M 366.80303955078125 500.5809020996094 C 374.91162109375 509.6171875 383.44000244140625 520.0152587890625 348.8228454589844 522.3037109375 C 349.13201904296875 505.8679504394531 348.2998962402344 498.5497741699219 347.0921936035156 404.0564880371094 C 355.2197570800781 403.6606140136719 334.14263916015625 408.1553649902344 359.838134765625 387.5292663574219 C 431.3267822265625 392.3676452636719 376.4190979003906 449.6529541015625 366.80303955078125 500.5809020996094" stroke-width="0.0" fill="rgb(2, 0, 0)" opacity="0.97743857" stroke="rgb(141, 119, 92)" stroke-opacity="0.5967398" stroke-linecap="round" stroke-linejoin="round"/>
    <path d="M 52.03746032714844 270.25738525390625 C 50.43480682373047 295.5042724609375 47.49219512939453 298.9202575683594 36.51747512817383 294.6822204589844 C 22.478199005126953 292.7794189453125 19.782024383544922 289.55328369140625 16.343433380126953 273.4156799316406 C 14.79643726348877 256.1377868652344 15.268182754516602 255.2949981689453 33.437252044677734 238.69949340820312 C 55.14994430541992 231.4554443359375 55.16779327392578 241.098876953125 52.03746032714844 270.25738525390625" stroke-width="0.0" fill="rgb(201, 166, 111)" opacity="1.0" stroke="rgb(237, 235, 252)" stroke-opacity="0.5323768" stroke-linecap="round" stroke-linejoin="round"/>
    <path d="M 55.52786636352539 368.10247802734375 C 50.341739654541016 438.5763244628906 47.777259826660156 491.07464599609375 42.556793212890625 532.2069702148438 C -20.160968780517578 433.82330322265625 6.648223876953125 398.0843200683594 -10.428342819213867 389.6420593261719 C -4.4270243644714355 320.8336486816406 -105.81426239013672 215.0751953125 79.29871368408203 231.73394775390625 C 58.58958435058594 310.1058044433594 60.33599853515625 278.2909851074219 55.52786636352539 368.10247802734375" stroke-width="0.0" fill="rgb(7, 3, 5)" opacity="0.9712039" stroke="rgb(242, 155, 55)" stroke-opacity="0.71489346" stroke-linecap="round" stroke-linejoin="round"/>
    <path d="M 60.29365921020508 170.05899047851562 C 53.32362365722656 245.4224395751953 56.707969665527344 250.1798553466797 39.46479034423828 249.78665161132812 C -17.97698402404785 241.84564208984375 -11.393889427185059 234.35586547851562 -9.188129425048828 212.6977081298828 C -11.650970458984375 168.1255645751953 -33.464744567871094 145.82130432128906 0.4801470935344696 84.07835388183594 C 72.16888427734375 148.8842010498047 64.91014862060547 126.89248657226562 60.29365921020508 170.05899047851562" stroke-width="0.0" fill="rgb(218, 168, 105)" opacity="1.0" stroke="rgb(178, 64, 125)" stroke-opacity="0.41358563" stroke-linecap="round" stroke-linejoin="round"/>
    <path d="M 35.06747817993164 465.06036376953125 C 29.721771240234375 537.1083984375 35.25875473022461 517.47021484375 12.172536849975586 477.45574951171875 C -35.09195327758789 479.3383483886719 -15.931325912475586 463.78466796875 -9.716584205627441 427.41571044921875 C -9.30703067779541 407.354736328125 -8.781248092651367 403.3709716796875 -4.467524528503418 400.4421081542969 C 25.573793411254883 410.7994384765625 27.555313110351562 418.45233154296875 35.06747817993164 465.06036376953125" stroke-width="0.0" fill="rgb(188, 187, 174)" opacity="0.69830835" stroke="rgb(92, 243, 186)" stroke-opacity="0.9291784" stroke-linecap="round" stroke-linejoin="round"/>
    <path d="M 43.389896392822266 375.8315734863281 C 40.561866760253906 395.5593566894531 38.89466857910156 383.1239013671875 13.678691864013672 384.7373352050781 C -2.96083664894104 391.2155456542969 -9.01572036743164 391.0155334472656 -12.01342487335205 356.4033508300781 C -9.816008567810059 336.13433837890625 -10.0849027633667 330.3898620605469 20.19599151611328 332.62060546875 C 43.65854263305664 341.30877685546875 46.4612922668457 342.9808044433594 43.389896392822266 375.8315734863281" stroke-width="0.0" fill="rgb(254, 223, 184)" opacity="0.7054798" stroke="rgb(216, 111, 212)" stroke-opacity="0.2871188" stroke-linecap="round" stroke-linejoin="round"/>
    <path d="M 47.76817321777344 275.09588623046875 C 46.4810791015625 318.1217956542969 50.36403274536133 308.7717590332031 22.36419105529785 309.7053527832031 C 13.181291580200195 309.1646728515625 16.60799789428711 306.9844970703125 14.921235084533691 306.051513671875 C 7.646320343017578 299.8662109375 2.9292733669281006 282.59930419921875 17.600801467895508 263.6919250488281 C 56.83283996582031 233.05517578125 55.57783508300781 230.9571075439453 47.76817321777344 275.09588623046875" stroke-width="0.0" fill="rgb(217, 175, 113)" opacity="0.9635125" stroke="rgb(131, 66, 123)" stroke-opacity="0.59309167" stroke-linecap="round" stroke-linejoin="round"/>
    <path d="M 53.61167907714844 242.54457092285156 C 48.888431549072266 281.8478088378906 28.136938095092773 276.84039306640625 9.570731163024902 291.86517333984375 C -9.572104454040527 291.1238708496094 -11.378159523010254 286.1766357421875 -11.088500022888184 247.8272705078125 C -12.007895469665527 235.589111328125 -9.975983619689941 236.46072387695312 5.522622585296631 222.60299682617188 C 55.016841888427734 218.65789794921875 56.19755172729492 213.13922119140625 53.61167907714844 242.54457092285156" stroke-width="0.0" fill="rgb(222, 176, 109)" opacity="0.9358851" stroke="rgb(134, 209, 120)" stroke-opacity="0.22455476" stroke-linecap="round" stroke-linejoin="round"/>
    <path d="M 44.25810623168945 359.5305480957031 C 39.636295318603516 396.4994201660156 46.705345153808594 406.72467041015625 30.061458587646484 391.46044921875 C 19.22235679626465 384.074462890625 15.57085132598877 385.4903259277344 11.688531875610352 371.5162353515625 C 20.752269744873047 369.6408386230469 18.252933502197266 364.05889892578125 28.875629425048828 360.69879150390625 C 32.145530700683594 359.39239501953125 27.908994674682617 361.0950012207031 44.25810623168945 359.5305480957031" stroke-width="0.0" fill="rgb(227, 182, 114)" opacity="1.0" stroke="rgb(127, 154, 219)" stroke-opacity="0.8794903" stroke-linecap="round" stroke-linejoin="round"/>
    <path d="M 303.72943115234375 445.5899658203125 C 320.3848876953125 412.9073486328125 321.8401794433594 549.0391845703125 299.8912048339844 536.1729736328125 C 295.5788269042969 429.3785705566406 297.6907653808594 423.60162353515625 296.0274963378906 449.6393737792969 C 297.5125427246094 431.98602294921875 296.4248962402344 430.6286315917969 289.8892517089844 226.01358032226562 C 300.7913818359375 243.8280029296875 295.254150390625 281.32537841796875 303.72943115234375 445.5899658203125" stroke-width="0.0" fill="rgb(6, 4, 4)" opacity="1.0" stroke="rgb(176, 184, 81)" stroke-opacity="0.998894" stroke-linecap="round" stroke-linejoin="round"/>
    <path d="M 213.35745239257812 284.38531494140625 C 208.15565490722656 338.3133544921875 208.10751342773438 339.0281677246094 207.1591339111328 336.8536682128906 C 204.0425567626953 272.15753173828125 215.24618530273438 292.90814208984375 174.62548828125 290.1499938964844 C 186.2276153564453 307.61688232421875 215.2623748779297 370.1828918457031 125.48149871826172 240.32147216796875 C 189.15484619140625 305.360107421875 199.34202575683594 238.80294799804688 213.35745239257812 284.38531494140625" stroke-width="0.0" fill="rgb(13, 19, 27)" opacity="0.86925864" stroke="rgb(189, 2, 183)" stroke-opacity="0.8916084" stroke-linecap="round" stroke-linejoin="round"/>
    <path d="M 39.393463134765625 415.58245849609375 C 37.0611686706543 463.5415954589844 40.53754425048828 484.0225524902344 36.28403091430664 450.2320556640625 C 19.346982955932617 427.4140319824219 10.04555606842041 429.0314636230469 -1.6082624197006226 407.52508544921875 C -9.935872077941895 389.5216979980469 -8.64438533782959 388.80780029296875 24.627962112426758 389.32122802734375 C 48.459049224853516 387.95916748046875 40.42749786376953 385.6379089355469 39.393463134765625 415.58245849609375" stroke-width="0.0" fill="rgb(186, 149, 85)" opacity="0.9999744" stroke="rgb(129, 177, 172)" stroke-opacity="0.5122846" stroke-linecap="round" stroke-linejoin="round"/>
    <path d="M 111.3720932006836 261.3590393066406 C 111.2435073852539 281.33172607421875 111.52690887451172 282.5929870605469 98.78508758544922 285.52435302734375 C 98.97681427001953 264.6973571777344 99.96717071533203 257.9583435058594 101.25434112548828 256.65277099609375 C 98.09444427490234 272.0413818359375 98.27960205078125 267.8790588378906 99.02201080322266 250.58836364746094 C 98.20829772949219 251.69503784179688 111.03743743896484 258.0963439941406 111.3720932006836 261.3590393066406" stroke-width="0.0" fill="rgb(0, 0, 3)" opacity="0.97134733" stroke="rgb(240, 58, 101)" stroke-opacity="0.7885275" stroke-linecap="round" stroke-linejoin="round"/>
    <path d="M 109.45669555664062 275.4466552734375 C 110.10438537597656 264.4847106933594 112.20878601074219 272.1867980957031 110.02989959716797 304.1427001953125 C 101.17079162597656 298.6623229980469 95.6434326171875 297.0589294433594 97.96871948242188 295.5415954589844 C 98.2983627319336 254.9141845703125 97.2643051147461 249.09979248046875 111.89546203613281 259.9314270019531 C 111.72933959960938 270.36468505859375 110.70708465576172 277.8860778808594 109.45669555664062 275.4466552734375" stroke-width="0.0" fill="rgb(2, 3, 3)" opacity="1.0" stroke="rgb(166, 155, 41)" stroke-opacity="0.33711562" stroke-linecap="round" stroke-linejoin="round"/>
    <path d="M 47.96341323852539 317.3246765136719 C 44.24795913696289 342.81097412109375 43.816898345947266 366.8336181640625 43.2767219543457 359.8384094238281 C 9.446991920471191 354.3475036621094 6.9088945388793945 360.47576904296875 -4.291687488555908 336.0260009765625 C 6.791828155517578 306.0759582519531 15.737760543823242 306.42962646484375 25.55684471130371 296.8445129394531 C 49.6799430847168 297.4114990234375 48.75728225708008 304.3920593261719 47.96341323852539 317.3246765136719" stroke-width="0.0" fill="rgb(222, 176, 111)" opacity="1.0" stroke="rgb(231, 165, 29)" stroke-opacity="0.7263322" stroke-linecap="round" stroke-linejoin="round"/>
    <path d="M 181.82217407226562 157.76217651367188 C 180.54393005371094 157.76014709472656 185.4690704345703 159.16893005371094 176.5223388671875 157.42694091796875 C 176.39401245117188 141.19664001464844 175.963134765625 137.29342651367188 176.98861694335938 150.919189453125 C 176.64520263671875 147.44497680664062 176.17584228515625 144.17355346679688 177.0008087158203 132.8197479248047 C 183.3432159423828 132.76681518554688 181.36671447753906 131.03579711914062 181.82217407226562 157.76217651367188" stroke-width="0.0" fill="rgb(4, 5, 6)" opacity="1.0" stroke="rgb(128, 236, 135)" stroke-opacity="0.18974614" stroke-linecap="round" stroke-linejoin="round"/>
    <path d="M 36.45328140258789 299.83367919921875 C 38.609588623046875 327.2410583496094 32.70942687988281 325.44866943359375 11.51268482208252 337.3078918457031 C -14.02700424194336 339.90557861328125 -8.594162940979004 327.7873840332031 -10.833131790161133 310.6356201171875 C -8.668274879455566 282.5069580078125 -6.972987174987793 278.18768310546875 18.801593780517578 278.52740478515625 C 28.112838745117188 286.823974609375 27.862606048583984 288.72454833984375 36.45328140258789 299.83367919921875" stroke-width="0.0" fill="rgb(236, 189, 107)" opacity="0.7104099" stroke="rgb(180, 108, 26)" stroke-opacity="0.35128894" stroke-linecap="round" stroke-linejoin="round"/>
    <path d="M 295.0 501.0 C 294.33013916015625 503.5 292.5 505.33013916015625 290.0 506.0 C 287.5 505.33013916015625 285.66986083984375 503.5 285.0 501.0 C 285.66986083984375 498.5 287.5 496.66986083984375 290.0 496.0 C 292.5 496.66986083984375 294.33013916015625 498.5 295.0 501.0" stroke-width="0.0" fill="rgb(235, 181, 95)" opacity="1.0" stroke="rgb(86, 60, 177)" stroke-opacity="0.66486746" stroke-linecap="round" stroke-linejoin="round"/>
    <path d="M 313.0 344.0 C 312.33013916015625 346.5 310.5 348.33013916015625 308.0 349.0 C 305.5 348.33013916015625 303.66986083984375 346.5 303.0 344.0 C 303.66986083984375 341.5 305.5 339.66986083984375 308.0 339.0 C 310.5 339.66986083984375 312.33013916015625 341.5 313.0 344.0" stroke-width="0.0" fill="rgb(235, 181, 95)" opacity="1.0" stroke="rgb(151, 181, 90)" stroke-opacity="0.7381122" stroke-linecap="round" stroke-linejoin="round"/>
    <path d="M 344.0 348.0 C 343.33013916015625 350.5 341.5 352.33013916015625 339.0 353.0 C 336.5 352.33013916015625 334.66986083984375 350.5 334.0 348.0 C 334.66986083984375 345.5 336.5 343.66986083984375 339.0 343.0 C 341.5 343.66986083984375 343.33013916015625 345.5 344.0 348.0" stroke-width="0.0" fill="rgb(235, 181, 95)" opacity="1.0" stroke="rgb(58, 46, 187)" stroke-opacity="0.15987454" stroke-linecap="round" stroke-linejoin="round"/>
    <path d="M 312.0 294.0 C 311.33013916015625 296.5 309.5 298.33013916015625 307.0 299.0 C 304.5 298.33013916015625 302.66986083984375 296.5 302.0 294.0 C 302.66986083984375 291.5 304.5 289.66986083984375 307.0 289.0 C 309.5 289.66986083984375 311.33013916015625 291.5 312.0 294.0" stroke-width="0.0" fill="rgb(235, 181, 95)" opacity="1.0" stroke="rgb(118, 110, 121)" stroke-opacity="0.87205565" stroke-linecap="round" stroke-linejoin="round"/>
    <path d="M 319.0 378.0 C 318.33013916015625 380.5 316.5 382.33013916015625 314.0 383.0 C 311.5 382.33013916015625 309.66986083984375 380.5 309.0 378.0 C 309.66986083984375 375.5 311.5 373.66986083984375 314.0 373.0 C 316.5 373.66986083984375 318.33013916015625 375.5 319.0 378.0" stroke-width="0.0" fill="rgb(235, 181, 95)" opacity="1.0" stroke="rgb(47, 72, 49)" stroke-opacity="0.62714446" stroke-linecap="round" stroke-linejoin="round"/>
    <path d="M 292.0 434.0 C 291.33013916015625 436.5 289.5 438.33013916015625 287.0 439.0 C 284.5 438.33013916015625 282.66986083984375 436.5 282.0 434.0 C 282.66986083984375 431.5 284.5 429.66986083984375 287.0 429.0 C 289.5 429.66986083984375 291.33013916015625 431.5 292.0 434.0" stroke-width="0.0" fill="rgb(235, 181, 95)" opacity="1.0" stroke="rgb(26, 240, 11)" stroke-opacity="0.884436" stroke-linecap="round" stroke-linejoin="round"/>
    <path d="M 358.0 325.0 C 357.33013916015625 327.5 355.5 329.33013916015625 353.0 330.0 C 350.5 329.33013916015625 348.66986083984375 327.5 348.0 325.0 C 348.66986083984375 322.5 350.5 320.66986083984375 353.0 320.0 C 355.5 320.66986083984375 357.33013916015625 322.5 358.0 325.0" stroke-width="0.0" fill="rgb(236, 182, 96)" opacity="1.0" stroke="rgb(149, 222, 29)" stroke-opacity="0.4198571" stroke-linecap="round" stroke-linejoin="round"/>
    <path d="M 313.0 378.0 C 312.33013916015625 380.5 310.5 382.33013916015625 308.0 383.0 C 305.5 382.33013916015625 303.66986083984375 380.5 303.0 378.0 C 303.66986083984375 375.5 305.5 373.66986083984375 308.0 373.0 C 310.5 373.66986083984375 312.33013916015625 375.5 313.0 378.0" stroke-width="0.0" fill="rgb(235, 181, 95)" opacity="1.0" stroke="rgb(208, 36, 95)" stroke-opacity="0.5301252" stroke-linecap="round" stroke-linejoin="round"/>
    <path d="M 54.0 280.0 C 53.33012771606445 282.5 51.5 284.33013916015625 49.0 285.0 C 46.5 284.33013916015625 44.66987228393555 282.5 44.0 280.0 C 44.66987228393555 277.5 46.5 275.66986083984375 49.0 275.0 C 51.5 275.66986083984375 53.33012771606445 277.5 54.0 280.0" stroke-width="0.0" fill="rgb(230, 186, 124)" opacity="1.0" stroke="rgb(93, 120, 13)" stroke-opacity="0.7277767" stroke-linecap="round" stroke-linejoin="round"/>
    <path d="M 313.0 302.0 C 312.33013916015625 304.5 310.5 306.33013916015625 308.0 307.0 C 305.5 306.33013916015625 303.66986083984375 304.5 303.0 302.0 C 303.66986083984375 299.5 305.5 297.66986083984375 308.0 297.0 C 310.5 297.66986083984375 312.33013916015625 299.5 313.0 302.0" stroke-width="0.0" fill="rgb(235, 181, 95)" opacity="1.0" stroke="rgb(159, 227, 164)" stroke-opacity="0.8897159" stroke-linecap="round" stroke-linejoin="round"/>
    <path d="M 334.0 454.0 C 333.33013916015625 456.5 331.5 458.33013916015625 329.0 459.0 C 326.5 458.33013916015625 324.66986083984375 456.5 324.0 454.0 C 324.66986083984375 451.5 326.5 449.66986083984375 329.0 449.0 C 331.5 449.66986083984375 333.33013916015625 451.5 334.0 454.0" stroke-width="0.0" fill="rgb(222, 83, 50)" opacity="1.0" stroke="rgb(17, 246, 187)" stroke-opacity="0.4320075" stroke-linecap="round" stroke-linejoin="round"/>
    <path d="M 113.0 460.0 C 112.33012390136719 462.5 110.5 464.33013916015625 108.0 465.0 C 105.5 464.33013916015625 103.66987609863281 462.5 103.0 460.0 C 103.66987609863281 457.5 105.5 455.66986083984375 108.0 455.0 C 110.5 455.66986083984375 112.33012390136719 457.5 113.0 460.0" stroke-width="0.0" fill="rgb(220, 83, 51)" opacity="1.0" stroke="rgb(155, 146, 62)" stroke-opacity="0.13301755" stroke-linecap="round" stroke-linejoin="round"/>
    <path d="M 64.0 440.0 C 63.33012771606445 442.5 61.5 444.33013916015625 59.0 445.0 C 56.5 444.33013916015625 54.66987228393555 442.5 54.0 440.0 C 54.66987228393555 437.5 56.5 435.66986083984375 59.0 435.0 C 61.5 435.66986083984375 63.33012771606445 437.5 64.0 440.0" stroke-width="0.0" fill="rgb(223, 84, 53)" opacity="1.0" stroke="rgb(236, 26, 3)" stroke-opacity="0.7862999" stroke-linecap="round" stroke-linejoin="round"/>
    <path d="M 107.0 315.0 C 106.33012390136719 317.5 104.5 319.33013916015625 102.0 320.0 C 99.5 319.33013916015625 97.66987609863281 317.5 97.0 315.0 C 97.66987609863281 312.5 99.5 310.66986083984375 102.0 310.0 C 104.5 310.66986083984375 106.33012390136719 312.5 107.0 315.0" stroke-width="0.0" fill="rgb(223, 89, 54)" opacity="1.0" stroke="rgb(55, 152, 251)" stroke-opacity="0.4573952" stroke-linecap="round" stroke-linejoin="round"/>
    <path d="M 339.0 477.0 C 338.33013916015625 479.5 336.5 481.33013916015625 334.0 482.0 C 331.5 481.33013916015625 329.66986083984375 479.5 329.0 477.0 C 329.66986083984375 474.5 331.5 472.66986083984375 334.0 472.0 C 336.5 472.66986083984375 338.33013916015625 474.5 339.0 477.0" stroke-width="0.0" fill="rgb(222, 83, 53)" opacity="1.0" stroke="rgb(122, 146, 202)" stroke-opacity="0.5763471" stroke-linecap="round" stroke-linejoin="round"/>
    <path d="M 341.0 446.0 C 340.33013916015625 448.5 338.5 450.33013916015625 336.0 451.0 C 333.5 450.33013916015625 331.66986083984375 448.5 331.0 446.0 C 331.66986083984375 443.5 333.5 441.66986083984375 336.0 441.0 C 338.5 441.66986083984375 340.33013916015625 443.5 341.0 446.0" stroke-width="0.0" fill="rgb(222, 83, 50)" opacity="1.0" stroke="rgb(175, 215, 191)" stroke-opacity="0.03610481" stroke-linecap="round" stroke-linejoin="round"/>
    <path d="M 127.0 423.0 C 126.33012390136719 425.5 124.5 427.33013916015625 122.0 428.0 C 119.5 427.33013916015625 117.66987609863281 425.5 117.0 423.0 C 117.66987609863281 420.5 119.5 418.66986083984375 122.0 418.0 C 124.5 418.66986083984375 126.33012390136719 420.5 127.0 423.0" stroke-width="0.0" fill="rgb(219, 84, 54)" opacity="1.0" stroke="rgb(17, 176, 233)" stroke-opacity="0.35309324" stroke-linecap="round" stroke-linejoin="round"/>
    <path d="M 361.0 216.0 C 360.33013916015625 218.5 358.5 220.3301239013672 356.0 221.0 C 353.5 220.3301239013672 351.66986083984375 218.5 351.0 216.0 C 351.66986083984375 213.5 353.5 211.6698760986328 356.0 211.0 C 358.5 211.6698760986328 360.33013916015625 213.5 361.0 216.0" stroke-width="0.0" fill="rgb(235, 181, 93)" opacity="1.0" stroke="rgb(194, 12, 32)" stroke-opacity="0.44647756" stroke-linecap="round" stroke-linejoin="round"/>
    <path d="M 292.0 488.0 C 291.33013916015625 490.5 289.5 492.33013916015625 287.0 493.0 C 284.5 492.33013916015625 282.66986083984375 490.5 282.0 488.0 C 282.66986083984375 485.5 284.5 483.66986083984375 287.0 483.0 C 289.5 483.66986083984375 291.33013916015625 485.5 292.0 488.0" stroke-width="0.0" fill="rgb(233, 179, 91)" opacity="1.0" stroke="rgb(117, 137, 208)" stroke-opacity="0.63591987" stroke-linecap="round" stroke-linejoin="round"/>
    <path d="M 290.0 312.0 C 289.33013916015625 314.5 287.5 316.33013916015625 285.0 317.0 C 282.5 316.33013916015625 280.66986083984375 314.5 280.0 312.0 C 280.66986083984375 309.5 282.5 307.66986083984375 285.0 307.0 C 287.5 307.66986083984375 289.33013916015625 309.5 290.0 312.0" stroke-width="0.0" fill="rgb(235, 181, 94)" opacity="1.0" stroke="rgb(45, 56, 195)" stroke-opacity="0.86767924" stroke-linecap="round" stroke-linejoin="round"/>
    <path d="M 89.0 379.0 C 88.33012390136719 381.5 86.5 383.33013916015625 84.0 384.0 C 81.5 383.33013916015625 79.66987609863281 381.5 79.0 379.0 C 79.66987609863281 376.5 81.5 374.66986083984375 84.0 374.0 C 86.5 374.66986083984375 88.33012390136719 376.5 89.0 379.0" stroke-width="0.0" fill="rgb(3, 3, 3)" opacity="1.0" stroke="rgb(126, 171, 157)" stroke-opacity="0.3221593" stroke-linecap="round" stroke-linejoin="round"/>
    <path d="M 359.0 312.0 C 358.33013916015625 314.5 356.5 316.33013916015625 354.0 317.0 C 351.5 316.33013916015625 349.66986083984375 314.5 349.0 312.0 C 349.66986083984375 309.5 351.5 307.66986083984375 354.0 307.0 C 356.5 307.66986083984375 358.33013916015625 309.5 359.0 312.0" stroke-width="0.0" fill="rgb(236, 182, 94)" opacity="1.0" stroke="rgb(123, 180, 63)" stroke-opacity="0.20944567" stroke-linecap="round" stroke-linejoin="round"/>
    <path d="M 127.0 435.0 C 126.33012390136719 437.5 124.5 439.33013916015625 122.0 440.0 C 119.5 439.33013916015625 117.66987609863281 437.5 117.0 435.0 C 117.66987609863281 432.5 119.5 430.66986083984375 122.0 430.0 C 124.5 430.66986083984375 126.33012390136719 432.5 127.0 435.0" stroke-width="0.0" fill="rgb(218, 83, 53)" opacity="1.0" stroke="rgb(42, 32, 97)" stroke-opacity="0.46902025" stroke-linecap="round" stroke-linejoin="round"/>
    <path d="M 313.0 337.0 C 312.33013916015625 339.5 310.5 341.33013916015625 308.0 342.0 C 305.5 341.33013916015625 303.66986083984375 339.5 303.0 337.0 C 303.66986083984375 334.5 305.5 332.66986083984375 308.0 332.0 C 310.5 332.66986083984375 312.33013916015625 334.5 313.0 337.0" stroke-width="0.0" fill="rgb(235, 181, 95)" opacity="1.0" stroke="rgb(138, 20, 215)" stroke-opacity="0.102065876" stroke-linecap="round" stroke-linejoin="round"/>
    <path d="M 35.0 92.0 C 34.33012771606445 94.5 32.5 96.33012390136719 30.0 97.0 C 27.5 96.33012390136719 25.669872283935547 94.5 25.0 92.0 C 25.669872283935547 89.5 27.5 87.66987609863281 30.0 87.0 C 32.5 87.66987609863281 34.33012771606445 89.5 35.0 92.0" stroke-width="0.0" fill="rgb(192, 72, 37)" opacity="1.0" stroke="rgb(36, 223, 146)" stroke-opacity="0.6711417" stroke-linecap="round" stroke-linejoin="round"/>
    <path d="M 311.0 369.0 C 310.33013916015625 371.5 308.5 373.33013916015625 306.0 374.0 C 303.5 373.33013916015625 301.66986083984375 371.5 301.0 369.0 C 301.66986083984375 366.5 303.5 364.66986083984375 306.0 364.0 C 308.5 364.66986083984375 310.33013916015625 366.5 311.0 369.0" stroke-width="0.0" fill="rgb(234, 180, 94)" opacity="1.0" stroke="rgb(181, 224, 195)" stroke-opacity="0.53879756" stroke-linecap="round" stroke-linejoin="round"/>
    <path d="M 292.0 260.0 C 291.33013916015625 262.5 289.5 264.33013916015625 287.0 265.0 C 284.5 264.33013916015625 282.66986083984375 262.5 282.0 260.0 C 282.66986083984375 257.5 284.5 255.6698760986328 287.0 255.0 C 289.5 255.6698760986328 291.33013916015625 257.5 292.0 260.0" stroke-width="0.0" fill="rgb(233, 179, 91)" opacity="1.0" stroke="rgb(101, 101, 226)" stroke-opacity="0.05938383" stroke-linecap="round" stroke-linejoin="round"/>
    <path d="M 315.0 238.0 C 314.33013916015625 240.5 312.5 242.3301239013672 310.0 243.0 C 307.5 242.3301239013672 305.66986083984375 240.5 305.0 238.0 C 305.66986083984375 235.5 307.5 233.6698760986328 310.0 233.0 C 312.5 233.6698760986328 314.33013916015625 235.5 315.0 238.0" stroke-width="0.0" fill="rgb(233, 181, 96)" opacity="1.0" stroke="rgb(167, 70, 196)" stroke-opacity="0.62343395" stroke-linecap="round" stroke-linejoin="round"/>
    <path d="M 64.0 447.0 C 63.33012771606445 449.5 61.5 451.33013916015625 59.0 452.0 C 56.5 451.33013916015625 54.66987228393555 449.5 54.0 447.0 C 54.66987228393555 444.5 56.5 442.66986083984375 59.0 442.0 C 61.5 442.66986083984375 63.33012771606445 444.5 64.0 447.0" stroke-width="0.0" fill="rgb(223, 84, 53)" opacity="1.0" stroke="rgb(79, 240, 194)" stroke-opacity="0.6091615" stroke-linecap="round" stroke-linejoin="round"/>
    <path d="M 342.0 245.0 C 341.33013916015625 247.5 339.5 249.3301239013672 337.0 250.0 C 334.5 249.3301239013672 332.66986083984375 247.5 332.0 245.0 C 332.66986083984375 242.5 334.5 240.6698760986328 337.0 240.0 C 339.5 240.6698760986328 341.33013916015625 242.5 342.0 245.0" stroke-width="0.0" fill="rgb(82, 90, 100)" opacity="1.0" stroke="rgb(183, 156, 77)" stroke-opacity="0.63438106" stroke-linecap="round" stroke-linejoin="round"/>
    <path d="M 358.0 266.0 C 357.33013916015625 268.5 355.5 270.33013916015625 353.0 271.0 C 350.5 270.33013916015625 348.66986083984375 268.5 348.0 266.0 C 348.66986083984375 263.5 350.5 261.66986083984375 353.0 261.0 C 355.5 261.66986083984375 357.33013916015625 263.5 358.0 266.0" stroke-width="0.0" fill="rgb(85, 91, 105)" opacity="1.0" stroke="rgb(229, 74, 54)" stroke-opacity="0.81558436" stroke-linecap="round" stroke-linejoin="round"/>
    <path d="M 126.0 285.0 C 125.33012390136719 287.5 123.5 289.33013916015625 121.0 290.0 C 118.5 289.33013916015625 116.66987609863281 287.5 116.0 285.0 C 116.66987609863281 282.5 118.5 280.66986083984375 121.0 280.0 C 123.5 280.66986083984375 125.33012390136719 282.5 126.0 285.0" stroke-width="0.0" fill="rgb(222, 88, 53)" opacity="1.0" stroke="rgb(188, 245, 115)" stroke-opacity="0.7238023" stroke-linecap="round" stroke-linejoin="round"/>
  </g>
</svg>
