<?xml version="1.0" ?>
<svg xmlns="http://www.w3.org/2000/svg" version="1.1" width="512" height="512">
  <defs/>
  <g>
    <path d="M 488.4981384277344 148.2181854248047 C 541.612548828125 265.17327880859375 501.39361572265625 399.1049499511719 398.1663818359375 468.57159423828125 C 235.84182739257812 517.1242065429688 211.69158935546875 467.1148376464844 319.5144348144531 348.93194580078125 C 390.5687561035156 310.3858337402344 406.3037414550781 137.6875762939453 208.07473754882812 133.3815155029297 C 425.6763916015625 54.50223159790039 439.97418212890625 54.83501434326172 488.4981384277344 148.2181854248047" stroke-width="0.0" fill="rgb(226, 182, 0)" opacity="0.9046466" stroke="rgb(72, 32, 3)" stroke-opacity="0.76703906" stroke-linecap="round" stroke-linejoin="round"/>
    <path d="M 507.1081848144531 475.847412109375 C 531.3577880859375 512.2891235351562 521.6741943359375 504.93780517578125 447.1529846191406 506.0894470214844 C 397.0240783691406 504.5941467285156 408.9266357421875 515.2352294921875 406.8430480957031 462.6044616699219 C 433.7536926269531 442.3079528808594 446.6441345214844 427.1501159667969 459.68731689453125 410.9088439941406 C 524.0966796875 412.4288330078125 504.710205078125 399.7837219238281 507.1081848144531 475.847412109375" stroke-width="0.0" fill="rgb(255, 255, 255)" opacity="0.76253253" stroke="rgb(216, 65, 51)" stroke-opacity="0.10078566" stroke-linecap="round" stroke-linejoin="round"/>
    <path d="M 127.18916320800781 477.6080017089844 C 113.08214569091797 506.1943664550781 106.84485626220703 494.34649658203125 11.260123252868652 496.0999450683594 C 4.38694953918457 494.0211181640625 6.378878593444824 515.7380981445312 5.973210334777832 425.548583984375 C -8.29086685180664 410.4769592285156 -13.877678871154785 413.4109191894531 53.57144546508789 412.97198486328125 C 75.60400390625 438.947509765625 88.21063995361328 452.4269104003906 127.18916320800781 477.6080017089844" stroke-width="0.0" fill="rgb(255, 255, 255)" opacity="0.85410804" stroke="rgb(2, 190, 32)" stroke-opacity="0.7705097" stroke-linecap="round" stroke-linejoin="round"/>
    <path d="M 310.637451171875 357.0091552734375 C 278.11114501953125 536.9331665039062 332.2684020996094 545.2882690429688 153.32028198242188 491.404541015625 C 21.386363983154297 426.08306884765625 -1.2689241170883179 314.1942443847656 -0.9312085509300232 242.7880096435547 C 77.86922454833984 249.16954040527344 83.96297454833984 248.0699920654297 143.26150512695312 252.8033447265625 C 130.06280517578125 292.67840576171875 189.8835906982422 406.8603210449219 310.637451171875 357.0091552734375" stroke-width="0.0" fill="rgb(93, 164, 51)" opacity="0.91743284" stroke="rgb(249, 243, 97)" stroke-opacity="0.17435369" stroke-linecap="round" stroke-linejoin="round"/>
    <path d="M 241.78843688964844 142.69790649414062 C 143.66482543945312 161.88595581054688 162.92071533203125 234.67660522460938 133.0814666748047 203.04022216796875 C 64.6323013305664 180.22276306152344 42.761878967285156 191.34092712402344 44.154605865478516 111.22811126708984 C 81.80139923095703 59.31834030151367 145.4728240966797 1.3665176630020142 265.2220458984375 -1.1140495538711548 C 276.0639953613281 93.8416519165039 265.7186279296875 147.46839904785156 241.78843688964844 142.69790649414062" stroke-width="0.0" fill="rgb(225, 10, 11)" opacity="0.8157069" stroke="rgb(47, 240, 182)" stroke-opacity="0.8138323" stroke-linecap="round" stroke-linejoin="round"/>
    <path d="M 150.1559295654297 213.40789794921875 C 121.41207885742188 281.1139221191406 186.18260192871094 283.4853515625 48.2371711730957 292.6349182128906 C 5.127310276031494 299.3612365722656 -14.789372444152832 266.3549499511719 14.077239990234375 170.5440216064453 C 51.313743591308594 83.80996704101562 44.316795349121094 110.4684829711914 95.11115264892578 145.03228759765625 C 149.83872985839844 153.156005859375 163.9812774658203 159.27395629882812 150.1559295654297 213.40789794921875" stroke-width="0.0" fill="rgb(104, 103, 41)" opacity="0.89183205" stroke="rgb(139, 86, 167)" stroke-opacity="0.49756658" stroke-linecap="round" stroke-linejoin="round"/>
    <path d="M 485.87432861328125 142.4590301513672 C 464.58843994140625 142.6220703125 447.762451171875 141.8119354248047 232.78712463378906 142.71080017089844 C 247.4032440185547 108.3615951538086 242.37307739257812 212.97508239746094 250.262939453125 -0.4303354024887085 C 327.4224853515625 0.9833585619926453 370.7160339355469 25.139911651611328 402.313720703125 45.64624786376953 C 448.4146728515625 78.7367172241211 469.5412292480469 111.612060546875 485.87432861328125 142.4590301513672" stroke-width="0.0" fill="rgb(225, 23, 43)" opacity="0.8747342" stroke="rgb(87, 182, 58)" stroke-opacity="0.76451063" stroke-linecap="round" stroke-linejoin="round"/>
  </g>
</svg>
