<?xml version="1.0" ?>
<svg xmlns="http://www.w3.org/2000/svg" version="1.1" width="512" height="512">
  <defs/>
  <g>
    <path d="M 488.393798828125 147.90086364746094 C 541.7835693359375 264.7049865722656 501.2570495605469 399.4171142578125 398.19970703125 468.5257263183594 C 235.6332550048828 517.2332153320312 211.0225067138672 466.6874084472656 317.4486389160156 350.1332702636719 C 392.3525085449219 312.5919189453125 404.3232727050781 134.20953369140625 209.8224334716797 135.95314025878906 C 425.76019287109375 54.35023880004883 439.65997314453125 54.5952262878418 488.393798828125 147.90086364746094" stroke-width="0.0" fill="rgb(230, 183, 0)" opacity="0.9117115" stroke="rgb(72, 32, 3)" stroke-opacity="0.76703906" stroke-linecap="round" stroke-linejoin="round"/>
    <path d="M 507.1378173828125 474.76513671875 C 533.4510498046875 512.1825561523438 524.5440673828125 505.05511474609375 444.2310485839844 506.07098388671875 C 398.0190734863281 504.67303466796875 408.6134338378906 514.9462890625 406.8431396484375 462.677001953125 C 433.52105712890625 442.5646667480469 446.8758850097656 426.98150634765625 459.6637878417969 410.904296875 C 524.1868286132812 412.4538879394531 504.6383972167969 400.0201721191406 507.1378173828125 474.76513671875" stroke-width="0.0" fill="rgb(255, 255, 255)" opacity="0.5626158" stroke="rgb(216, 65, 51)" stroke-opacity="0.10078566" stroke-linecap="round" stroke-linejoin="round"/>
    <path d="M 127.38542938232422 477.5632629394531 C 112.55606842041016 506.3705139160156 107.26654815673828 494.1973876953125 7.61330509185791 496.10186767578125 C 5.5265583992004395 493.8303527832031 6.102326393127441 517.1522216796875 5.991926670074463 425.4008483886719 C -8.730422973632812 410.4763488769531 -15.139886856079102 413.38720703125 53.628421783447266 412.9707336425781 C 75.06387329101562 438.3920593261719 88.76762390136719 453.24957275390625 127.38542938232422 477.5632629394531" stroke-width="0.0" fill="rgb(255, 255, 255)" opacity="0.6861388" stroke="rgb(2, 190, 32)" stroke-opacity="0.7705097" stroke-linecap="round" stroke-linejoin="round"/>
    <path d="M 321.29327392578125 351.291748046875 C 240.9416961669922 531.4901123046875 377.6979675292969 547.6856689453125 171.10897827148438 498.0969543457031 C 22.29336166381836 439.7091064453125 -3.8517587184906006 306.4476623535156 0.2874164581298828 243.52658081054688 C 77.89746856689453 248.95802307128906 83.86398315429688 248.25650024414062 141.5699005126953 252.6812286376953 C 128.4279327392578 300.75225830078125 203.19012451171875 413.4461364746094 321.29327392578125 351.291748046875" stroke-width="0.0" fill="rgb(87, 168, 55)" opacity="0.931272" stroke="rgb(249, 243, 97)" stroke-opacity="0.17435369" stroke-linecap="round" stroke-linejoin="round"/>
    <path d="M 240.20245361328125 143.2398681640625 C 147.9365997314453 159.43026733398438 154.06369018554688 241.60235595703125 135.15252685546875 207.0523223876953 C 64.91378021240234 179.626708984375 42.97345733642578 189.89468383789062 43.29659652709961 113.01168060302734 C 78.19703674316406 60.12494659423828 151.52952575683594 -0.5439453721046448 260.1720275878906 0.05961916968226433 C 275.69561767578125 93.59285736083984 265.45281982421875 145.75291442871094 240.20245361328125 143.2398681640625" stroke-width="0.0" fill="rgb(222, 0, 0)" opacity="0.8028482" stroke="rgb(47, 240, 182)" stroke-opacity="0.8138323" stroke-linecap="round" stroke-linejoin="round"/>
    <path d="M 148.29269409179688 215.96444702148438 C 120.54090118408203 290.6596374511719 189.84727478027344 285.2767639160156 50.09722900390625 291.67266845703125 C 5.3579840660095215 300.0641174316406 -16.053722381591797 264.0320739746094 15.800310134887695 166.41859436035156 C 52.0043830871582 81.83248138427734 52.46586608886719 110.58684539794922 67.81777954101562 147.53623962402344 C 144.28524780273438 161.52517700195312 156.93014526367188 164.93429565429688 148.29269409179688 215.96444702148438" stroke-width="0.0" fill="rgb(73, 176, 72)" opacity="1.0" stroke="rgb(139, 86, 167)" stroke-opacity="0.49756658" stroke-linecap="round" stroke-linejoin="round"/>
    <path d="M 485.753173828125 142.38050842285156 C 465.3690185546875 142.654541015625 446.5041809082031 141.8582763671875 231.5076141357422 142.7257537841797 C 247.3253631591797 104.20646667480469 242.32388305664062 210.9886932373047 250.4475860595703 0.06466944515705109 C 322.479248046875 -0.6385542154312134 372.71856689453125 25.450937271118164 402.47161865234375 45.93450927734375 C 446.9791259765625 77.05364990234375 470.90679931640625 113.29753875732422 485.753173828125 142.38050842285156" stroke-width="0.0" fill="rgb(224, 23, 43)" opacity="0.8734998" stroke="rgb(87, 182, 58)" stroke-opacity="0.76451063" stroke-linecap="round" stroke-linejoin="round"/>
    <path d="M 155.51829528808594 201.73899841308594 C 130.22731018066406 248.9188232421875 146.62774658203125 289.32330322265625 146.63917541503906 291.31890869140625 C 85.59180450439453 185.06153869628906 80.91983795166016 177.3697052001953 61.81232833862305 144.52622985839844 C 40.17451858520508 102.75090789794922 29.873252868652344 116.15628051757812 89.74638366699219 80.56094360351562 C 166.14161682128906 114.02967834472656 174.556396484375 109.77526092529297 155.51829528808594 201.73899841308594" stroke-width="0.0" fill="rgb(218, 28, 36)" opacity="0.9469899" stroke="rgb(226, 238, 110)" stroke-opacity="0.3557687" stroke-linecap="round" stroke-linejoin="round"/>
    <path d="M 148.0561065673828 295.7780456542969 C 220.04412841796875 445.47869873046875 274.2062072753906 490.38616943359375 89.95663452148438 451.2436828613281 C 3.4883437156677246 360.42889404296875 -5.164449691772461 304.7795715332031 6.0195512771606445 200.30657958984375 C 10.65578556060791 171.56402587890625 21.514163970947266 176.81442260742188 71.55841064453125 198.1396026611328 C 99.9271011352539 248.92269897460938 126.46876525878906 244.2175750732422 148.0561065673828 295.7780456542969" stroke-width="0.0" fill="rgb(63, 166, 70)" opacity="0.8061287" stroke="rgb(110, 207, 123)" stroke-opacity="0.6325323" stroke-linecap="round" stroke-linejoin="round"/>
  </g>
</svg>
