<?xml version="1.0" ?>
<svg xmlns="http://www.w3.org/2000/svg" version="1.1" width="512" height="352">
  <defs/>
  <g>
    <path d="M 146.49632263183594 193.0251922607422 C 149.32369995117188 255.84918212890625 148.7766876220703 251.37588500976562 104.70899963378906 251.55868530273438 C 67.1139907836914 250.8226318359375 65.1050033569336 247.966796875 56.244441986083984 226.4305419921875 C 52.683258056640625 193.0071258544922 52.50431442260742 186.77015686035156 95.59480285644531 176.7168731689453 C 150.82168579101562 178.08193969726562 143.63050842285156 171.99314880371094 146.49632263183594 193.0251922607422" stroke-width="0.0" fill="rgb(209, 182, 152)" opacity="1.0" stroke="rgb(170, 138, 68)" stroke-opacity="0.89692384" stroke-linecap="round" stroke-linejoin="round"/>
    <path d="M 229.17666625976562 211.1226043701172 C 208.94668579101562 236.32369995117188 202.82452392578125 254.05593872070312 192.64686584472656 259.70501708984375 C 187.7471923828125 227.43162536621094 182.6773681640625 242.8799285888672 175.3588409423828 193.91990661621094 C 176.55654907226562 180.24502563476562 181.86427307128906 202.3629608154297 184.30734252929688 166.01026916503906 C 239.70835876464844 170.30979919433594 249.08761596679688 158.54739379882812 229.17666625976562 211.1226043701172" stroke-width="0.0" fill="rgb(32, 62, 33)" opacity="0.66548574" stroke="rgb(67, 169, 12)" stroke-opacity="0.27174112" stroke-linecap="round" stroke-linejoin="round"/>
    <path d="M 256.4449462890625 290.4962158203125 C 257.55023193359375 125.69230651855469 244.57920837402344 181.2386474609375 211.40394592285156 236.06378173828125 C 183.86734008789062 219.68492126464844 215.1082763671875 160.82955932617188 156.36019897460938 176.80311584472656 C 192.0542755126953 165.03286743164062 153.794677734375 170.72418212890625 207.0388641357422 133.80397033691406 C 231.4102020263672 139.75588989257812 294.2376403808594 180.6770477294922 256.4449462890625 290.4962158203125" stroke-width="0.0" fill="rgb(86, 104, 85)" opacity="0.99923104" stroke="rgb(99, 44, 94)" stroke-opacity="0.24130489" stroke-linecap="round" stroke-linejoin="round"/>
    <path d="M 356.6571350097656 46.22422409057617 C 334.35205078125 50.67784118652344 347.6114501953125 61.00887680053711 331.8778076171875 74.62332153320312 C 336.45941162109375 62.34315872192383 302.5182800292969 73.26504516601562 312.45782470703125 47.894439697265625 C 313.6531677246094 44.273193359375 317.0633850097656 15.408554077148438 331.195068359375 38.14958572387695 C 336.78558349609375 59.22748565673828 318.1300048828125 37.37232208251953 356.6571350097656 46.22422409057617" stroke-width="0.0" fill="rgb(176, 89, 57)" opacity="1.0" stroke="rgb(96, 212, 105)" stroke-opacity="0.20047244" stroke-linecap="round" stroke-linejoin="round"/>
    <path d="M 301.7689514160156 77.33809661865234 C 267.6944274902344 112.45905303955078 330.42919921875 97.05098724365234 265.2499694824219 121.15190887451172 C 262.26666259765625 149.059814453125 273.845458984375 -0.7502800226211548 232.60337829589844 124.58836364746094 C 240.53688049316406 47.26131820678711 286.0629577636719 46.51002883911133 295.8252868652344 51.941619873046875 C 301.4057922363281 59.826454162597656 310.10650634765625 51.40043258666992 301.7689514160156 77.33809661865234" stroke-width="0.0" fill="rgb(106, 41, 6)" opacity="0.6435166" stroke="rgb(122, 24, 119)" stroke-opacity="0.59005505" stroke-linecap="round" stroke-linejoin="round"/>
    <path d="M 319.996826171875 224.11045837402344 C 334.4040832519531 251.07008361816406 336.04931640625 244.77297973632812 273.4510498046875 228.58299255371094 C 267.8822937011719 232.14886474609375 267.71160888671875 232.56967163085938 259.83349609375 217.4754638671875 C 266.50042724609375 172.8267822265625 274.872802734375 212.14512634277344 278.86663818359375 191.56910705566406 C 289.6524658203125 167.17044067382812 317.70947265625 192.5233154296875 319.996826171875 224.11045837402344" stroke-width="0.0" fill="rgb(98, 127, 124)" opacity="1.0" stroke="rgb(76, 254, 40)" stroke-opacity="0.8972401" stroke-linecap="round" stroke-linejoin="round"/>
    <path d="M 332.3471374511719 69.85842895507812 C 329.3333435058594 66.10485076904297 322.0555114746094 69.35425567626953 293.134033203125 101.05615997314453 C 270.1396484375 99.21585845947266 292.0379333496094 74.54550170898438 296.9123840332031 65.5433120727539 C 299.68701171875 46.774696350097656 301.28265380859375 39.12419509887695 300.8587646484375 33.19000244140625 C 314.89447021484375 39.52220153808594 309.4049072265625 53.70885467529297 332.3471374511719 69.85842895507812" stroke-width="0.0" fill="rgb(157, 85, 54)" opacity="1.0" stroke="rgb(213, 222, 152)" stroke-opacity="0.35882425" stroke-linecap="round" stroke-linejoin="round"/>
    <path d="M 475.4578552246094 202.59133911132812 C 493.4944763183594 269.1263732910156 421.1847229003906 290.54388427734375 411.5582275390625 284.2776184082031 C 396.75213623046875 287.9632873535156 373.7149963378906 286.24139404296875 319.48602294921875 271.6404113769531 C 387.46502685546875 219.72528076171875 330.2536315917969 131.70037841796875 403.5376281738281 172.21353149414062 C 485.2250671386719 186.31988525390625 432.4151611328125 298.2498474121094 475.4578552246094 202.59133911132812" stroke-width="0.0" fill="rgb(111, 102, 108)" opacity="0.43953547" stroke="rgb(135, 142, 134)" stroke-opacity="0.103512235" stroke-linecap="round" stroke-linejoin="round"/>
  </g>
</svg>
