<?xml version="1.0" ?>
<svg xmlns="http://www.w3.org/2000/svg" version="1.1" width="512" height="352">
  <defs/>
  <g>
    <path d="M 146.3912811279297 195.18817138671875 C 148.96083068847656 254.72186279296875 147.4757843017578 251.78033447265625 103.13704681396484 251.46377563476562 C 67.2370376586914 251.374267578125 66.91451263427734 247.21299743652344 56.85456466674805 229.24868774414062 C 50.94255828857422 192.11839294433594 56.938621520996094 185.31048583984375 96.37678527832031 176.81329345703125 C 147.8349609375 178.16339111328125 142.545166015625 171.7737579345703 146.3912811279297 195.18817138671875" stroke-width="0.0" fill="rgb(213, 182, 149)" opacity="0.89993054" stroke="rgb(170, 138, 68)" stroke-opacity="0.89692384" stroke-linecap="round" stroke-linejoin="round"/>
    <path d="M 228.82420349121094 211.50338745117188 C 215.5877685546875 227.0196075439453 211.17739868164062 240.1909637451172 192.99549865722656 260.9957580566406 C 189.58987426757812 232.9359588623047 181.73025512695312 237.8992919921875 176.04421997070312 197.033935546875 C 173.03138732910156 183.29652404785156 185.23516845703125 197.72793579101562 183.6642303466797 165.4986114501953 C 252.3507843017578 172.09671020507812 248.03915405273438 157.54966735839844 228.82420349121094 211.50338745117188" stroke-width="0.0" fill="rgb(61, 88, 64)" opacity="0.80037755" stroke="rgb(67, 169, 12)" stroke-opacity="0.27174112" stroke-linecap="round" stroke-linejoin="round"/>
    <path d="M 256.38116455078125 284.024169921875 C 256.84722900390625 127.48654174804688 246.2445068359375 182.99256896972656 207.97618103027344 233.42955017089844 C 195.67266845703125 224.9222412109375 215.98513793945312 168.8442840576172 165.81536865234375 174.34060668945312 C 180.49185180664062 168.55335998535156 171.17437744140625 153.8289337158203 209.32032775878906 133.83779907226562 C 229.6078643798828 141.5442657470703 297.67510986328125 183.33700561523438 256.38116455078125 284.024169921875" stroke-width="0.0" fill="rgb(81, 101, 83)" opacity="0.90948653" stroke="rgb(99, 44, 94)" stroke-opacity="0.24130489" stroke-linecap="round" stroke-linejoin="round"/>
  </g>
</svg>
