<?xml version="1.0" ?>
<svg xmlns="http://www.w3.org/2000/svg" version="1.1" width="512" height="488">
  <defs/>
  <g>
    <path d="M 0.0 0.0 L 512.0 0.0 L 512.0 488.0 L 0.0 488.0 L 0.0 0.0" stroke-width="0.0" fill="rgb(255, 255, 255)" opacity="1.0" stroke="rgb(0, 0, 0)" stroke-opacity="0.0" stroke-linecap="round" stroke-linejoin="round"/>
    <path d="M 511.0 3.0 C 340.6666564941406 0.648885190486908 170.3333282470703 2.6798155307769775 0.0 2.0 L 0.0 487.0 L 511.0 487.0 L 511.0 3.0" stroke-width="2.0" fill="rgb(255, 255, 255)" opacity="1.0" stroke="rgb(0, 0, 0)" stroke-opacity="0.0" stroke-linecap="round" stroke-linejoin="round"/>
    <path d="M 425.0 169.0 C 404.5854797363281 161.1663360595703 384.1102600097656 157.47232055664062 365.0 132.0 C 324.47906494140625 89.1845932006836 270.4518127441406 136.7993621826172 270.0 182.0 C 222.0 193.2885284423828 174.0 241.09413146972656 126.0 202.0 C 102.71971893310547 192.0144500732422 102.94803619384766 222.84234619140625 107.0 236.0 C 82.6552963256836 238.86322021484375 53.015262603759766 226.2451934814453 32.0 236.0 C 55.680450439453125 251.05133056640625 83.65640258789062 249.8714599609375 109.0 261.0 C 90.98020935058594 270.8667907714844 67.69329071044922 270.4846496582031 53.0 279.0 C 108.66666412353516 288.59759521484375 164.3333282470703 309.1552429199219 220.0 339.0 C 222.90484619140625 360.0 228.55699157714844 381.0 231.0 402.0 C 225.9436798095703 410.5152282714844 214.95111083984375 409.8568420410156 210.0 419.0 C 225.3333282470703 416.3105773925781 240.6666717529297 406.4465026855469 256.0 408.0 C 222.48464965820312 404.9708251953125 235.07913208007812 365.4678039550781 227.0 342.0 C 246.3333282470703 340.7201843261719 265.6666564941406 333.90509033203125 285.0 341.0 C 280.2535400390625 363.3333435058594 296.8165588378906 385.6666564941406 281.0 408.0 C 294.6666564941406 401.8941345214844 308.3333435058594 408.8941650390625 322.0 414.0 C 314.3259582519531 403.0938415527344 302.3388671875 404.3395080566406 293.0 394.0 C 291.32684326171875 375.6666564941406 290.59808349609375 357.3333435058594 291.0 339.0 C 344.99383544921875 324.6287841796875 392.8070068359375 260.9793701171875 368.0 215.0 C 338.8699951171875 176.4911651611328 402.94207763671875 164.5696258544922 425.0 172.0 L 425.0 169.0" stroke-width="2.0" fill="rgb(187, 203, 217)" opacity="1.0" stroke="rgb(0, 0, 0)" stroke-opacity="0.0" stroke-linecap="round" stroke-linejoin="round"/>
    <path d="M 364.0 251.0 C 362.1416015625 234.59678649902344 342.2950744628906 231.00559997558594 337.0 213.0 C 314.6666564941406 191.4866485595703 292.3333435058594 188.98817443847656 270.0 183.0 C 222.0 192.15447998046875 174.0 241.77236938476562 126.0 202.0 C 102.64788818359375 191.70123291015625 103.04930877685547 223.0304412841797 107.0 236.0 C 81.66666412353516 237.4789276123047 56.33333206176758 228.98675537109375 31.0 234.0 C 63.68608856201172 256.5930480957031 104.98555755615234 250.99057006835938 141.0 275.0 C 212.3333282470703 295.05572509765625 283.6666564941406 326.8936462402344 355.0 281.0 C 359.7430114746094 271.3333435058594 363.4429626464844 261.6666564941406 364.0 251.0" stroke-width="2.0" fill="rgb(143, 176, 211)" opacity="1.0" stroke="rgb(0, 0, 0)" stroke-opacity="0.0" stroke-linecap="round" stroke-linejoin="round"/>
    <path d="M 227.0 341.0 L 219.0 340.0 C 217.39193725585938 364.5287780761719 248.10406494140625 401.3429870605469 211.0 415.0 C 209.27349853515625 416.6666564941406 207.1623992919922 418.3333435058594 208.0 420.0 C 224.6666717529297 417.3141174316406 241.3333282470703 406.59259033203125 258.0 408.0 C 252.56459045410156 401.431640625 240.4661407470703 406.06597900390625 235.0 398.0 L 227.0 341.0" stroke-width="2.0" fill="rgb(208, 149, 37)" opacity="1.0" stroke="rgb(0, 0, 0)" stroke-opacity="0.0" stroke-linecap="round" stroke-linejoin="round"/>
    <path d="M 284.0 341.0 C 280.6923522949219 363.6666564941406 296.4207458496094 386.3333435058594 280.0 409.0 C 294.6666564941406 399.9263610839844 309.3333435058594 411.4494323730469 324.0 415.0 C 317.9870300292969 403.9571533203125 303.3430480957031 403.5703125 294.0 395.0 C 290.8132019042969 376.6666564941406 292.3642578125 358.3333435058594 292.0 340.0 L 284.0 341.0" stroke-width="2.0" fill="rgb(206, 149, 42)" opacity="1.0" stroke="rgb(0, 0, 0)" stroke-opacity="0.0" stroke-linecap="round" stroke-linejoin="round"/>
    <path d="M 360.0 158.0 C 380.33477783203125 164.12954711914062 404.9989318847656 174.6250457763672 427.0 172.0 C 410.93255615234375 156.77708435058594 382.0499572753906 155.50564575195312 360.0 158.0" stroke-width="2.0" fill="rgb(218, 166, 57)" opacity="1.0" stroke="rgb(0, 0, 0)" stroke-opacity="0.0" stroke-linecap="round" stroke-linejoin="round"/>
    <path d="M 338.0 138.0 C 322.1275939941406 154.31358337402344 360.79180908203125 154.09872436523438 344.0 138.0 L 338.0 138.0" stroke-width="2.0" fill="rgb(19, 19, 21)" opacity="1.0" stroke="rgb(0, 0, 0)" stroke-opacity="0.0" stroke-linecap="round" stroke-linejoin="round"/>
  </g>
</svg>
