<?xml version="1.0" ?>
<svg xmlns="http://www.w3.org/2000/svg" version="1.1" width="508" height="512">
  <defs/>
  <g>
    <path d="M -10.0 -10.0 C -9.0 -10.0 508.0 0.0 509.0 0.0 C 510.0 0.0 508.0 512.0 509.0 512.0 C 509.0 513.0 0.0 512.0 0.0 513.0 C 0.0 512.0 0.0 513.0 -10.0 -10.0 L -10.0 -10.0" stroke-width="2.0" fill="rgb(212, 206, 193)" opacity="0.7541722"/>
    <path d="M 491.5600891113281 226.57916259765625 C 490.35321044921875 226.02723693847656 490.05963134765625 225.9241485595703 491.4705810546875 226.59471130371094 C 492.2353820800781 224.9942169189453 491.66473388671875 225.62889099121094 491.5111083984375 226.76573181152344 C 491.32232666015625 227.1973876953125 491.6138916015625 226.55911254882812 491.89886474609375 225.25567626953125 C 491.326171875 227.26611328125 491.6392517089844 226.40774536132812 491.22601318359375 228.67608642578125 L 491.5600891113281 226.57916259765625" stroke-width="2.0" fill="rgb(48, 202, 204)" opacity="0.06393223"/>
    <path d="M 399.659912109375 63.295066833496094 C 384.4877624511719 57.56721878051758 370.6702575683594 72.8449935913086 375.63580322265625 81.80315399169922 C 345.5960998535156 74.23503875732422 368.68939208984375 115.43768310546875 327.5298156738281 55.344703674316406 C 320.2478332519531 17.984424591064453 318.45416259765625 10.190109252929688 317.60528564453125 8.425450325012207 C 360.56658935546875 8.252690315246582 382.4068908691406 8.388547897338867 382.4384460449219 8.45133113861084 L 399.659912109375 63.295066833496094" stroke-width="2.0" fill="rgb(66, 133, 146)" opacity="0.5089982"/>
    <path d="M 179.57388305664062 319.49554443359375 C 178.80996704101562 320.7454528808594 177.7222442626953 321.5054931640625 176.28843688964844 321.08758544921875 C 175.0829315185547 321.2541809082031 174.04393005371094 320.5954895019531 174.64227294921875 319.7685546875 C 173.8130645751953 318.4295654296875 173.8570098876953 317.2090759277344 174.6563720703125 315.5284423828125 C 176.18629455566406 316.0777893066406 177.3957977294922 316.7184753417969 178.42568969726562 317.7340087890625 L 179.57388305664062 319.49554443359375" stroke-width="2.0" fill="rgb(188, 68, 19)" opacity="0.0"/>
    <path d="M 27.37302589416504 251.23553466796875 C 18.39121437072754 245.52923583984375 -5.999673366546631 271.58453369140625 25.395320892333984 279.81072998046875 C 18.105701446533203 299.8937683105469 16.787160873413086 301.60723876953125 5.491665840148926 304.5369873046875 C 5.5771307945251465 256.1513671875 5.541304588317871 243.5291748046875 5.585948467254639 175.61167907714844 C 84.23202514648438 173.29962158203125 64.41194915771484 189.28802490234375 41.296138763427734 203.5421142578125 L 27.37302589416504 251.23553466796875" stroke-width="2.0" fill="rgb(197, 53, 0)" opacity="0.9748371"/>
    <path d="M 327.4167175292969 54.31732940673828 C 358.6846923828125 105.333740234375 346.7569580078125 59.70040512084961 305.00115966796875 80.27935028076172 C 316.50848388671875 61.04201889038086 295.3354187011719 35.55386734008789 272.2813415527344 44.62474822998047 C 261.0606689453125 47.76290512084961 262.18603515625 65.66776275634766 270.0205383300781 8.04466724395752 C 332.8680725097656 8.17580795288086 321.9059753417969 7.9273362159729 318.1475524902344 8.771291732788086 L 327.4167175292969 54.31732940673828" stroke-width="2.0" fill="rgb(49, 122, 137)" opacity="0.5017356"/>
    <path d="M 258.2804260253906 184.68199157714844 C 258.0719909667969 191.54554748535156 253.24716186523438 194.82737731933594 243.76014709472656 188.4077606201172 C 234.6340789794922 184.08935546875 232.7473907470703 183.7960205078125 229.7356414794922 180.70960998535156 C 227.2251434326172 170.9426727294922 229.74098205566406 169.02333068847656 231.58120727539062 162.728515625 C 254.2284393310547 161.61795043945312 252.29537963867188 166.35877990722656 253.06788635253906 171.80003356933594 L 258.2804260253906 184.68199157714844" stroke-width="2.0" fill="rgb(156, 158, 29)" opacity="0.15283202"/>
    <path d="M 38.518653869628906 258.8346252441406 C 42.43021774291992 282.4867858886719 38.92900085449219 285.2362976074219 34.89487838745117 288.0859069824219 C 3.968743324279785 283.6195373535156 14.115742683410645 278.0697937011719 5.827157020568848 281.3233642578125 C 4.039245128631592 249.98095703125 7.712972640991211 241.5631561279297 9.728922843933105 256.7127685546875 C 6.376315593719482 261.49212646484375 6.73054313659668 262.7474365234375 7.785199165344238 259.2241516113281 L 38.518653869628906 258.8346252441406" stroke-width="2.0" fill="rgb(91, 0, 3)" opacity="0.17151608"/>
    <path d="M 29.83756446838379 297.5386962890625 C 36.81703186035156 316.5221252441406 35.13481140136719 290.68145751953125 35.5313835144043 342.0947265625 C -8.457206726074219 339.03009033203125 10.617695808410645 353.147705078125 4.536591529846191 308.8833312988281 C 53.25358200073242 307.5188903808594 29.58202362060547 312.83685302734375 29.303037643432617 292.10772705078125 C 36.28048324584961 281.7229309082031 34.28907775878906 284.19573974609375 30.243961334228516 286.5787353515625 L 29.83756446838379 297.5386962890625" stroke-width="2.0" fill="rgb(9, 110, 157)" opacity="0.5605831"/>
    <path d="M 447.7852478027344 493.3318786621094 C 427.30718994140625 505.6522216796875 428.136962890625 494.2794494628906 428.7347412109375 504.59759521484375 C 377.91802978515625 505.0680236816406 373.1304016113281 504.4035339355469 330.10430908203125 504.8646240234375 C 332.39410400390625 463.9967346191406 325.3466796875 470.1236572265625 344.6912536621094 470.1961364746094 C 377.6669921875 473.2961730957031 402.0128479003906 469.0617370605469 473.7818603515625 471.0625 L 447.7852478027344 493.3318786621094" stroke-width="2.0" fill="rgb(0, 44, 81)" opacity="0.7428761"/>
    <path d="M 462.53173828125 99.96776580810547 C 457.9483642578125 112.78549194335938 447.4623718261719 111.48387908935547 408.2489929199219 118.37413787841797 C 321.6343078613281 132.21356201171875 363.48895263671875 138.8801727294922 354.3820495605469 90.51663970947266 C 398.446044921875 89.91287994384766 421.3977355957031 91.03265380859375 437.1545715332031 90.04735565185547 C 429.90594482421875 84.35884857177734 444.62799072265625 95.19171142578125 430.3538818359375 87.84089660644531 L 462.53173828125 99.96776580810547" stroke-width="2.0" fill="rgb(5, 100, 123)" opacity="0.37263379"/>
    <path d="M 76.42613220214844 249.22711181640625 C 43.46813201904297 217.97386169433594 33.52027130126953 236.46697998046875 31.11103057861328 239.39669799804688 C -0.8925656080245972 251.05519104003906 8.116437911987305 256.0933837890625 5.545867443084717 237.1861114501953 C 5.523934841156006 192.446044921875 5.622066974639893 178.66456604003906 5.480321407318115 164.79510498046875 C 13.32536506652832 164.06036376953125 89.7634506225586 159.70083618164062 101.50550842285156 168.17286682128906 L 76.42613220214844 249.22711181640625" stroke-width="2.0" fill="rgb(153, 41, 0)" opacity="0.8029182"/>
    <path d="M 450.04290771484375 254.5321502685547 C 418.06982421875 270.325927734375 396.33294677734375 255.03173828125 389.49176025390625 270.3946228027344 C 387.9600524902344 261.347412109375 382.0569763183594 250.83067321777344 377.2510070800781 250.13536071777344 C 377.7123718261719 172.87709045410156 376.6471862792969 254.33349609375 373.4749450683594 180.24351501464844 C 416.3818664550781 202.0850830078125 396.0732727050781 222.56817626953125 450.1819152832031 224.3478240966797 L 450.04290771484375 254.5321502685547" stroke-width="2.0" fill="rgb(45, 48, 67)" opacity="0.98814356"/>
    <path d="M 433.416259765625 152.3507843017578 C 413.155517578125 159.70944213867188 405.8996887207031 166.76727294921875 390.48199462890625 150.5457305908203 C 407.2539367675781 210.59359741210938 394.5059814453125 191.03948974609375 359.0375061035156 204.20919799804688 C 364.6386413574219 153.8485870361328 327.544677734375 108.20289611816406 379.306640625 137.61399841308594 C 399.4728088378906 162.62831115722656 405.3340759277344 162.7088165283203 418.4884033203125 158.17857360839844 L 433.416259765625 152.3507843017578" stroke-width="2.0" fill="rgb(0, 3, 28)" opacity="0.81385446"/>
    <path d="M 318.9010009765625 431.41082763671875 C 294.3318176269531 432.0707702636719 288.20538330078125 431.6046447753906 308.2130432128906 431.7466125488281 C 279.42840576171875 432.0196533203125 266.6981506347656 431.44183349609375 232.01754760742188 431.4747314453125 C 242.8163299560547 414.83917236328125 233.7054443359375 422.88824462890625 243.42056274414062 419.551513671875 C 261.52618408203125 418.5888977050781 294.66986083984375 419.344482421875 328.5513916015625 419.6763916015625 L 318.9010009765625 431.41082763671875" stroke-width="2.0" fill="rgb(73, 57, 66)" opacity="0.6659275"/>
    <path d="M 167.19515991210938 364.8596496582031 C 168.73605346679688 365.7032165527344 167.11778259277344 365.22698974609375 169.12327575683594 364.8058776855469 C 167.22015380859375 366.44256591796875 170.32632446289062 364.0460205078125 167.5368194580078 366.2066650390625 C 167.72518920898438 358.4931335449219 165.65704345703125 348.3482971191406 172.57916259765625 352.8664855957031 C 172.50502014160156 372.5635986328125 173.03237915039062 363.831298828125 168.52828979492188 366.77862548828125 L 167.19515991210938 364.8596496582031" stroke-width="2.0" fill="rgb(0, 8, 33)" opacity="0.85102934"/>
    <path d="M 70.44003295898438 445.87567138671875 C 73.62993621826172 453.05035400390625 75.85418701171875 452.0841064453125 78.47755432128906 449.8533935546875 C 64.43854522705078 461.9320373535156 70.30136108398438 392.3422546386719 42.63765335083008 416.0311584472656 C 41.15607452392578 442.1316833496094 -3.5944664478302 401.0950927734375 4.232662677764893 401.0151062011719 C 132.2220458984375 397.2317199707031 157.5480194091797 416.6291198730469 64.36829376220703 423.9205627441406 L 70.44003295898438 445.87567138671875" stroke-width="2.0" fill="rgb(9, 5, 27)" opacity="0.81488067"/>
    <path d="M 219.56484985351562 9.188199043273926 C 206.30055236816406 22.021249771118164 199.53036499023438 26.76203727722168 185.8019561767578 69.07638549804688 C 192.51280212402344 69.123291015625 162.57379150390625 67.43807220458984 141.3109130859375 54.55609130859375 C 128.2705841064453 5.924365520477295 123.5064926147461 8.281712532043457 135.9977569580078 8.18679141998291 C 212.76708984375 8.372635841369629 217.88473510742188 7.454505443572998 235.89480590820312 9.341532707214355 L 219.56484985351562 9.188199043273926" stroke-width="2.0" fill="rgb(0, 93, 116)" opacity="0.3969174"/>
    <path d="M 502.55609130859375 411.6539306640625 C 496.23565673828125 409.9520263671875 498.2160949707031 420.85198974609375 497.44207763671875 377.5963439941406 C 501.4513854980469 334.54437255859375 486.64410400390625 385.4183654785156 487.5168151855469 355.5893249511719 C 473.3962097167969 348.6935119628906 479.4295349121094 352.753662109375 497.77630615234375 360.1047058105469 C 501.6902770996094 347.72216796875 496.962890625 341.73382568359375 502.4884948730469 309.42822265625 L 502.55609130859375 411.6539306640625" stroke-width="2.0" fill="rgb(1, 1, 31)" opacity="0.8307991"/>
    <path d="M 55.06862258911133 212.91314697265625 C 43.24530029296875 223.87266540527344 31.544235229492188 256.03253173828125 27.130306243896484 230.3393096923828 C 24.810945510864258 220.95761108398438 22.756202697753906 216.25733947753906 20.39773178100586 218.93641662597656 C 25.26765251159668 226.43748474121094 35.0084228515625 222.44723510742188 36.80445098876953 208.6670379638672 C 48.553688049316406 201.83595275878906 55.96401596069336 199.82984924316406 53.02073669433594 196.0248260498047 L 55.06862258911133 212.91314697265625" stroke-width="2.0" fill="rgb(156, 55, 51)" opacity="0.0"/>
    <path d="M 261.0428466796875 440.5186462402344 C 261.6602783203125 425.3754577636719 264.1068115234375 427.5351867675781 248.3796844482422 430.959228515625 C 251.2241668701172 429.6221008300781 270.9509582519531 421.1900939941406 196.95144653320312 419.0700988769531 C 214.95127868652344 401.5615234375 237.94090270996094 444.4034118652344 248.10546875 359.090576171875 C 245.78721618652344 470.4402770996094 271.7290954589844 418.70709228515625 263.3238830566406 399.97210693359375 L 261.0428466796875 440.5186462402344" stroke-width="2.0" fill="rgb(255, 86, 40)" opacity="0.28092676"/>
    <path d="M 126.23858642578125 320.9617004394531 C 124.37348937988281 336.1043395996094 134.115478515625 329.0764465332031 94.0838851928711 331.7238464355469 C 92.1580581665039 299.1348876953125 110.12736511230469 303.2934265136719 52.7499885559082 301.2834777832031 C 94.37471008300781 300.2126159667969 92.35639190673828 314.0606994628906 85.54383087158203 273.4873046875 C 98.24256896972656 278.0491027832031 103.9601821899414 278.40399169921875 113.697265625 291.5803527832031 L 126.23858642578125 320.9617004394531" stroke-width="2.0" fill="rgb(4, 3, 30)" opacity="0.8199059"/>
    <path d="M 401.335693359375 292.7377014160156 C 407.2703857421875 293.88568115234375 373.0142822265625 293.5190734863281 383.4653015136719 293.0268249511719 C 367.8202209472656 291.14031982421875 379.3233642578125 297.5029296875 369.7064514160156 283.85491943359375 C 371.1387939453125 250.7035369873047 401.0893859863281 294.52032470703125 397.0841064453125 233.27218627929688 C 444.73486328125 231.6937255859375 441.89642333984375 241.86900329589844 401.4046630859375 255.90756225585938 L 401.335693359375 292.7377014160156" stroke-width="2.0" fill="rgb(32, 36, 59)" opacity="0.8521792"/>
    <path d="M 502.4163818359375 144.44493103027344 C 453.2841491699219 89.94734191894531 460.955322265625 99.30536651611328 462.0707702636719 100.06270599365234 C 373.9352111816406 66.39259338378906 428.0146179199219 88.03147888183594 399.31256103515625 62.318973541259766 C 381.27874755859375 5.161783218383789 382.1652526855469 8.089637756347656 382.15771484375 8.086983680725098 C 450.8389587402344 7.989468097686768 461.5135498046875 8.062090873718262 502.4974670410156 8.040295600891113 L 502.4163818359375 144.44493103027344" stroke-width="2.0" fill="rgb(1, 95, 117)" opacity="0.38086092"/>
    <path d="M 383.320068359375 74.98939514160156 C 384.5519714355469 75.3211898803711 383.8567810058594 75.86860656738281 385.20880126953125 73.97145080566406 C 386.0597839355469 75.83824157714844 384.8738708496094 75.80921173095703 386.6128234863281 75.66278839111328 C 385.5799865722656 76.90064239501953 386.552001953125 76.6126480102539 386.99072265625 78.20003509521484 C 384.057861328125 76.001708984375 383.8250427246094 76.74848937988281 383.75616455078125 77.56510925292969 L 383.320068359375 74.98939514160156" stroke-width="2.0" fill="rgb(83, 138, 162)" opacity="0.0"/>
    <path d="M 452.77593994140625 226.54043579101562 C 444.5581970214844 226.08837890625 446.465576171875 229.24757385253906 447.8291320800781 214.3297576904297 C 353.8731689453125 219.3935089111328 442.1882629394531 216.9053497314453 372.8725891113281 180.04043579101562 C 341.1457214355469 238.29774475097656 378.077880859375 203.67393493652344 400.0144958496094 191.37887573242188 C 387.68780517578125 142.22219848632812 385.5604553222656 173.76470947265625 471.6950988769531 177.4773406982422 L 452.77593994140625 226.54043579101562" stroke-width="2.0" fill="rgb(107, 111, 117)" opacity="0.43729913"/>
    <path d="M 222.4501190185547 369.6179504394531 C 229.6643829345703 348.77001953125 236.11837768554688 341.851318359375 233.92584228515625 366.78875732421875 C 194.5465087890625 362.1556091308594 205.4415283203125 374.4460144042969 203.778076171875 351.4017639160156 C 188.5310516357422 341.40704345703125 207.31655883789062 388.66241455078125 188.85931396484375 244.8007354736328 C 223.6541290283203 262.0701904296875 196.89956665039062 345.03076171875 225.32810974121094 288.0762023925781 L 222.4501190185547 369.6179504394531" stroke-width="2.0" fill="rgb(39, 86, 116)" opacity="0.68377477"/>
    <path d="M 275.6725769042969 441.177001953125 C 304.4906005859375 459.05523681640625 273.8914489746094 458.8262634277344 224.7212371826172 458.7804260253906 C 144.9957733154297 451.6441955566406 127.546875 439.95391845703125 218.4459991455078 439.9861145019531 C 232.82704162597656 381.4654541015625 175.98204040527344 429.3624572753906 158.32826232910156 405.6502685546875 C 295.396728515625 407.7813415527344 149.45626831054688 385.5831298828125 198.59078979492188 439.7755126953125 L 275.6725769042969 441.177001953125" stroke-width="2.0" fill="rgb(0, 116, 143)" opacity="0.33416495"/>
    <path d="M 371.0552978515625 338.53643798828125 C 367.572509765625 347.57940673828125 389.5580749511719 339.31182861328125 337.2807922363281 331.9935607910156 C 379.50555419921875 304.4649963378906 339.0917053222656 344.2634582519531 370.9432067871094 335.7872009277344 C 360.8965148925781 310.5917663574219 365.7049560546875 318.04119873046875 365.2107238769531 286.3778381347656 C 366.07110595703125 266.34588623046875 360.8857421875 268.88568115234375 376.70098876953125 268.67095947265625 L 371.0552978515625 338.53643798828125" stroke-width="2.0" fill="rgb(89, 112, 134)" opacity="0.9998537"/>
    <path d="M 96.77951049804688 146.99952697753906 C 98.03227233886719 169.2565155029297 97.91966247558594 163.7235107421875 96.6142578125 164.5985870361328 C 69.4062271118164 164.56390380859375 74.78535461425781 163.76356506347656 6.015831470489502 164.44818115234375 C 24.237661361694336 132.01419067382812 29.408283233642578 128.32493591308594 50.54249572753906 110.17354583740234 C 150.12989807128906 125.32247924804688 91.3949203491211 97.3449478149414 105.35477447509766 146.08897399902344 L 96.77951049804688 146.99952697753906" stroke-width="2.0" fill="rgb(32, 116, 132)" opacity="0.38981017"/>
    <path d="M 264.94390869140625 184.8603973388672 C 266.5954284667969 224.4615478515625 261.74432373046875 244.15745544433594 264.79217529296875 251.2738037109375 C 225.1234588623047 251.3094940185547 255.23243713378906 231.11886596679688 220.8744659423828 202.3290252685547 C 210.6861572265625 193.51455688476562 208.53225708007812 207.7504425048828 151.61785888671875 164.44650268554688 C 236.91259765625 165.88938903808594 258.99114990234375 159.32772827148438 265.5807189941406 173.87289428710938 L 264.94390869140625 184.8603973388672" stroke-width="2.0" fill="rgb(228, 29, 0)" opacity="0.71925807"/>
    <path d="M 130.8987274169922 243.64393615722656 C 143.74197387695312 276.054443359375 107.08899688720703 310.22705078125 193.50796508789062 281.7064514160156 C 62.02315902709961 289.22686767578125 135.9824676513672 272.72454833984375 100.6982650756836 187.28135681152344 C 64.77214050292969 287.9960632324219 112.26576232910156 259.7227478027344 121.49671936035156 313.18646240234375 C 153.31141662597656 263.678466796875 119.93035888671875 295.5416564941406 110.66477966308594 269.9774475097656 L 130.8987274169922 243.64393615722656" stroke-width="2.0" fill="rgb(255, 247, 229)" opacity="0.9285525"/>
    <path d="M 425.4833984375 411.1333312988281 C 424.42132568359375 412.81640625 413.3920593261719 409.50958251953125 416.995361328125 413.0894775390625 C 400.4991455078125 421.1431579589844 394.8043212890625 347.0978088378906 379.2200622558594 397.208740234375 C 379.640869140625 359.5332336425781 377.80902099609375 369.9698486328125 384.28839111328125 369.5568542480469 C 395.55157470703125 368.2251892089844 433.4084167480469 369.08294677734375 425.5714111328125 369.0095520019531 L 425.4833984375 411.1333312988281" stroke-width="2.0" fill="rgb(56, 0, 2)" opacity="0.823197"/>
    <path d="M 106.23255920410156 116.81200408935547 C 63.51979064941406 163.95591735839844 40.83517837524414 116.01136779785156 17.285974502563477 150.03216552734375 C 0.9569025039672852 171.54994201660156 6.752063751220703 166.07212829589844 5.61526346206665 155.43917846679688 C 5.821518898010254 44.43395233154297 5.450921058654785 42.85890197753906 5.5002946853637695 47.909427642822266 C 51.22645950317383 52.32114028930664 53.353450775146484 60.26872253417969 73.45474243164062 45.606849670410156 L 106.23255920410156 116.81200408935547" stroke-width="2.0" fill="rgb(143, 175, 177)" opacity="1.0"/>
    <path d="M 502.14215087890625 -15.014049530029297 C 503.34161376953125 47.65897750854492 502.0026550292969 100.45380401611328 502.9078369140625 164.88514709472656 C 500.4464111328125 147.24740600585938 503.41424560546875 175.6929168701172 503.3302001953125 135.17791748046875 C 502.11187744140625 185.18789672851562 498.4224548339844 242.39170837402344 506.5390930175781 284.1070251464844 C 563.8521118164062 176.4916534423828 511.65814208984375 154.6009521484375 576.0645141601562 114.59217834472656 L 502.14215087890625 -15.014049530029297" stroke-width="2.0" fill="rgb(252, 252, 253)" opacity="0.8902083"/>
    <path d="M 132.37200927734375 423.4214172363281 C 96.29363250732422 424.5086669921875 109.72700500488281 416.4440002441406 116.56979370117188 427.2098083496094 C 115.05690002441406 419.4664001464844 122.6598892211914 422.0264892578125 88.30403900146484 420.3901672363281 C 68.3931655883789 390.0259704589844 88.94429016113281 436.0267333984375 87.42098236083984 389.2340393066406 C 89.95854949951172 379.4535827636719 105.8535385131836 376.61151123046875 132.62661743164062 358.3865661621094 L 132.37200927734375 423.4214172363281" stroke-width="2.0" fill="rgb(9, 97, 143)" opacity="0.573983"/>
    <path d="M 184.64024353027344 147.36744689941406 C 127.80773162841797 149.04196166992188 168.47817993164062 135.2322998046875 150.12518310546875 180.94989013671875 C 152.71473693847656 181.62135314941406 168.9984893798828 196.79051208496094 128.99691772460938 213.45494079589844 C 125.10884094238281 135.766845703125 130.41900634765625 142.9735565185547 130.580322265625 145.58877563476562 C 190.39910888671875 149.683349609375 193.3917236328125 144.5575714111328 199.63983154296875 143.55665588378906 L 184.64024353027344 147.36744689941406" stroke-width="2.0" fill="rgb(97, 237, 255)" opacity="0.7523073"/>
    <path d="M 502.66082763671875 144.5335235595703 C 498.6622619628906 174.97125244140625 526.4417724609375 160.9312744140625 397.181396484375 163.7444305419922 C 387.46966552734375 163.17718505859375 400.56842041015625 165.87161254882812 383.5482482910156 142.86874389648438 C 365.5865783691406 123.65453338623047 338.2498474121094 132.85365295410156 379.506103515625 123.46743774414062 C 454.5163879394531 109.31584930419922 455.183837890625 114.3866958618164 462.230224609375 99.9614486694336 L 502.66082763671875 144.5335235595703" stroke-width="2.0" fill="rgb(98, 153, 160)" opacity="0.5951824"/>
    <path d="M 502.0211181640625 373.6654357910156 C 502.3308410644531 345.2351989746094 495.2145690917969 351.66204833984375 499.005126953125 410.2845458984375 C 497.23602294921875 372.113037109375 498.0556945800781 353.3208312988281 489.5819396972656 360.38372802734375 C 484.3145751953125 359.7093200683594 488.4616394042969 326.85736083984375 497.7151184082031 372.2335205078125 C 497.5432434082031 327.4704284667969 495.86505126953125 325.2423095703125 501.9532470703125 324.2733154296875 L 502.0211181640625 373.6654357910156" stroke-width="2.0" fill="rgb(35, 23, 37)" opacity="1.0"/>
    <path d="M 35.708900451660156 388.775146484375 C 34.127384185791016 387.5955810546875 33.93379592895508 388.204345703125 35.029205322265625 389.5605773925781 C 36.41949462890625 388.6261901855469 36.20201110839844 387.61083984375 36.226402282714844 387.25323486328125 C 33.812496185302734 389.43670654296875 34.87638473510742 389.7144470214844 36.72832107543945 390.3493347167969 C 34.75351333618164 388.0473937988281 34.6957893371582 389.58929443359375 33.381141662597656 391.0611572265625 L 35.708900451660156 388.775146484375" stroke-width="2.0" fill="rgb(105, 209, 209)" opacity="0.0"/>
    <path d="M 269.58349609375 348.41864013671875 C 271.640380859375 349.7326354980469 254.1505889892578 351.7410583496094 248.33241271972656 351.4405822753906 C 254.18588256835938 444.2604675292969 233.83189392089844 429.417724609375 242.68301391601562 329.082763671875 C 212.45758056640625 357.9299621582031 237.94468688964844 293.568359375 234.09226989746094 336.35687255859375 C 258.10302734375 319.52130126953125 213.4769744873047 325.55950927734375 269.2506408691406 324.0229187011719 L 269.58349609375 348.41864013671875" stroke-width="2.0" fill="rgb(100, 0, 0)" opacity="0.9869732"/>
    <path d="M 98.45100402832031 278.2957763671875 C 87.59867095947266 271.7398681640625 97.69574737548828 273.835205078125 95.98326110839844 274.47314453125 C 74.51139831542969 261.3507080078125 54.91379928588867 279.332763671875 84.07266998291016 268.6361083984375 C 84.81299591064453 264.68798828125 59.92320251464844 243.28482055664062 7.0886735916137695 179.60324096679688 C 112.73555755615234 170.86444091796875 97.19212341308594 172.86805725097656 98.53748321533203 187.1985321044922 L 98.45100402832031 278.2957763671875" stroke-width="2.0" fill="rgb(168, 48, 0)" opacity="0.9634258"/>
    <path d="M 361.95904541015625 122.6544189453125 C 354.0340576171875 109.30339813232422 353.3353576660156 108.06673431396484 360.963623046875 121.0303726196289 C 255.31744384765625 122.0366439819336 244.22842407226562 94.31128692626953 293.4266357421875 92.20179748535156 C 310.7972412109375 75.46710968017578 310.2838439941406 75.5650863647461 325.9631042480469 73.58202362060547 C 352.3486022949219 71.5820083618164 350.75439453125 66.63571166992188 349.1424560546875 67.2563247680664 L 361.95904541015625 122.6544189453125" stroke-width="2.0" fill="rgb(117, 132, 140)" opacity="0.09670916"/>
    <path d="M 265.4618225097656 413.57757568359375 C 257.43829345703125 410.1726379394531 256.74078369140625 412.4623107910156 258.1859436035156 415.1752014160156 C 256.3974914550781 417.7377014160156 258.45904541015625 382.6890869140625 256.87310791015625 388.67462158203125 C 258.879150390625 390.0102844238281 262.4382019042969 388.3577880859375 256.7894287109375 388.927978515625 C 277.66845703125 395.9568786621094 243.60894775390625 358.5942077636719 264.3142395019531 361.722412109375 L 265.4618225097656 413.57757568359375" stroke-width="2.0" fill="rgb(16, 20, 45)" opacity="0.81118715"/>
    <path d="M 260.23419189453125 328.1358947753906 C 268.2008361816406 342.94195556640625 262.450927734375 334.30657958984375 267.6003723144531 331.2176818847656 C 269.7837829589844 337.0848388671875 260.3130798339844 311.2500915527344 222.3251495361328 355.4574890136719 C 229.09107971191406 287.0203857421875 206.03189086914062 283.775634765625 289.30194091796875 301.0041198730469 C 261.4328308105469 305.6899108886719 271.8244323730469 283.5179748535156 269.5263671875 352.7568054199219 L 260.23419189453125 328.1358947753906" stroke-width="2.0" fill="rgb(0, 116, 173)" opacity="0.5110613"/>
    <path d="M 387.8678894042969 461.5075378417969 C 394.8106384277344 496.972412109375 348.3033752441406 451.08245849609375 331.10321044921875 503.6670227050781 C 280.4950866699219 505.4522399902344 274.56048583984375 501.51544189453125 319.0667724609375 488.711669921875 C 328.3918762207031 416.5024719238281 274.97381591796875 489.19561767578125 279.55804443359375 418.7558898925781 C 317.0340881347656 432.81488037109375 315.47149658203125 459.3663024902344 482.1319274902344 421.0664367675781 L 387.8678894042969 461.5075378417969" stroke-width="2.0" fill="rgb(53, 139, 156)" opacity="0.3908809"/>
    <path d="M 195.39443969726562 485.1854248046875 C 195.65512084960938 475.9290466308594 175.406982421875 481.9812927246094 178.59437561035156 479.8321228027344 C 180.14300537109375 480.8594055175781 195.67001342773438 480.41107177734375 114.24859619140625 480.75372314453125 C 117.94924926757812 438.2210998535156 90.62739562988281 457.751220703125 160.1952667236328 452.3768310546875 C 131.21731567382812 474.24920654296875 94.94283294677734 474.75872802734375 222.71072387695312 470.9896240234375 L 195.39443969726562 485.1854248046875" stroke-width="2.0" fill="rgb(19, 63, 106)" opacity="0.46526772"/>
    <path d="M 263.534423828125 50.213966369628906 C 254.9880828857422 59.001216888427734 252.8935089111328 72.60710906982422 261.41448974609375 83.60322570800781 C 221.25100708007812 73.52954864501953 205.0764923095703 72.0081787109375 185.7993927001953 68.68132781982422 C 200.63265991210938 22.905363082885742 207.57081604003906 21.229684829711914 219.95181274414062 8.238953590393066 C 284.12225341796875 7.556915760040283 269.32080078125 9.122421264648438 270.21307373046875 7.893712043762207 L 263.534423828125 50.213966369628906" stroke-width="2.0" fill="rgb(29, 111, 129)" opacity="0.44151112"/>
    <path d="M 373.790283203125 368.4414978027344 C 361.360595703125 364.0839538574219 359.9010009765625 364.14801025390625 374.3870849609375 369.28466796875 C 318.3969421386719 370.3731689453125 302.60467529296875 368.1800842285156 304.8072509765625 369.3638916015625 C 304.7877197265625 335.7315673828125 303.7101135253906 357.9217224121094 320.810302734375 351.19732666015625 C 395.49737548828125 351.2008361816406 349.7207946777344 358.0018615722656 373.5865173339844 320.814453125 L 373.790283203125 368.4414978027344" stroke-width="2.0" fill="rgb(218, 19, 0)" opacity="1.0"/>
    <path d="M 144.76419067382812 302.3362121582031 C 138.64263916015625 397.93585205078125 161.1184844970703 330.6853332519531 106.04373931884766 376.765869140625 C 100.71504211425781 351.6905822753906 85.0149154663086 440.3812255859375 87.35527801513672 360.36517333984375 C 90.72611999511719 243.8435516357422 8.647409439086914 360.6614990234375 89.5284423828125 247.53269958496094 C 80.59242248535156 332.0510559082031 118.6773681640625 358.4255065917969 89.56942749023438 303.506103515625 L 144.76419067382812 302.3362121582031" stroke-width="2.0" fill="rgb(84, 146, 174)" opacity="0.8542863"/>
    <path d="M 392.5007629394531 243.39036560058594 C 365.0115966796875 253.16159057617188 382.06591796875 240.32992553710938 389.5066223144531 267.2203063964844 C 391.0781555175781 273.5574645996094 371.8648986816406 267.7848815917969 333.5813903808594 268.8472900390625 C 348.34796142578125 230.04844665527344 349.68731689453125 265.0398254394531 358.1621398925781 226.9645233154297 C 373.99737548828125 280.80157470703125 421.6902770996094 211.27798461914062 435.90087890625 209.5606689453125 L 392.5007629394531 243.39036560058594" stroke-width="2.0" fill="rgb(12, 111, 157)" opacity="0.5736507"/>
    <path d="M 465.9166259765625 223.99281311035156 C 455.5440368652344 201.05589294433594 457.6046142578125 200.55296325683594 457.526123046875 262.5467834472656 C 436.9405517578125 262.27569580078125 426.96380615234375 262.7178039550781 411.4242248535156 262.5148620605469 C 412.8272399902344 200.6265411376953 416.82720947265625 212.45404052734375 425.6370849609375 215.55995178222656 C 478.26348876953125 202.78875732421875 453.1615905761719 219.00389099121094 472.1405944824219 228.07643127441406 L 465.9166259765625 223.99281311035156" stroke-width="2.0" fill="rgb(45, 48, 68)" opacity="1.0"/>
    <path d="M 119.36384582519531 4.634904384613037 C 119.22940826416016 3.8851237297058105 119.25869750976562 3.7812588214874268 119.20592498779297 3.3241159915924072 C 119.34906005859375 4.195366859436035 119.09479522705078 4.068887710571289 119.75885009765625 6.337437629699707 C 119.24286651611328 4.7055535316467285 119.29475402832031 3.601067066192627 119.25311279296875 3.753153085708618 C 119.14459991455078 2.7478010654449463 119.26158142089844 4.429131507873535 119.17677307128906 3.010171413421631 L 119.36384582519531 4.634904384613037" stroke-width="2.0" fill="rgb(141, 255, 88)" opacity="0.06686004"/>
    <path d="M 439.3052062988281 274.0541687011719 C 439.2987060546875 273.99249267578125 439.3951416015625 273.7063293457031 439.3332214355469 273.0304260253906 C 439.2861633300781 272.8498229980469 439.292236328125 272.8856506347656 439.21270751953125 272.719482421875 C 439.56182861328125 273.3406066894531 439.2405090332031 273.6302185058594 439.30877685546875 273.95819091796875 C 439.34375 273.7569885253906 439.2828063964844 274.22967529296875 438.86578369140625 274.71234130859375 L 439.3052062988281 274.0541687011719" stroke-width="2.0" fill="rgb(189, 175, 119)" opacity="0.015852956"/>
    <path d="M 497.6811218261719 395.3604431152344 C 497.8206481933594 391.0357666015625 499.10302734375 406.205322265625 498.2420654296875 411.39984130859375 C 450.35101318359375 414.5712585449219 468.6374206542969 410.4136047363281 464.7933654785156 403.28033447265625 C 467.4141845703125 316.1993103027344 456.5816650390625 331.7698059082031 491.8702697753906 364.01031494140625 C 496.64453125 342.88140869140625 483.9737854003906 340.35211181640625 498.14593505859375 365.5191955566406 L 497.6811218261719 395.3604431152344" stroke-width="2.0" fill="rgb(17, 113, 163)" opacity="0.6099459"/>
    <path d="M 496.430908203125 303.0801696777344 C 497.8039855957031 294.1734313964844 495.4674072265625 296.2933044433594 496.6230773925781 298.60687255859375 C 418.7367858886719 282.3027038574219 530.7724609375 332.9747619628906 425.9566345214844 330.2504577636719 C 441.8092956542969 252.6698760986328 463.977294921875 332.78302001953125 457.85986328125 262.4397888183594 C 498.84051513671875 262.41400146484375 496.9853210449219 262.79144287109375 496.861572265625 260.9120178222656 L 496.430908203125 303.0801696777344" stroke-width="2.0" fill="rgb(0, 5, 31)" opacity="0.7927033"/>
    <path d="M 123.04473876953125 504.6791687011719 C 123.16191864013672 504.3607177734375 110.62899780273438 504.4353332519531 91.27704620361328 504.4101257324219 C 74.30104064941406 504.6920471191406 61.640480041503906 505.5455017089844 53.59658432006836 503.4735107421875 C 49.20310974121094 464.90911865234375 -4.494303226470947 472.5503234863281 89.93193817138672 471.22308349609375 C 137.81361389160156 467.6740417480469 125.61009979248047 479.3148193359375 130.23660278320312 455.59710693359375 L 123.04473876953125 504.6791687011719" stroke-width="2.0" fill="rgb(62, 98, 117)" opacity="0.77907276"/>
    <path d="M 343.416748046875 431.4494934082031 C 293.54022216796875 431.3601379394531 298.6606140136719 432.0768127441406 320.70196533203125 430.2481994628906 C 301.2808837890625 431.19317626953125 305.5607604980469 430.6834716796875 276.1325988769531 430.76678466796875 C 229.03260803222656 429.767578125 230.18336486816406 436.4852600097656 239.92559814453125 420.2918395996094 C 303.257568359375 419.2286682128906 340.07012939453125 419.42547607421875 374.2464599609375 419.5243835449219 L 343.416748046875 431.4494934082031" stroke-width="2.0" fill="rgb(39, 39, 58)" opacity="0.99199605"/>
    <path d="M 78.5926284790039 381.3675537109375 C 26.41667938232422 395.7697448730469 82.26618194580078 327.8868408203125 39.43350601196289 348.2129211425781 C 11.49705696105957 310.061767578125 134.14193725585938 355.8777160644531 60.14567565917969 303.2722473144531 C 96.82011413574219 305.311279296875 85.28251647949219 288.8563537597656 87.50953674316406 345.56622314453125 C 33.114295959472656 345.61724853515625 50.732643127441406 346.09246826171875 40.04258728027344 337.6692810058594 L 78.5926284790039 381.3675537109375" stroke-width="2.0" fill="rgb(253, 252, 237)" opacity="0.93867344"/>
    <path d="M 269.986083984375 297.3908996582031 C 230.2103271484375 281.838623046875 274.44085693359375 332.4603271484375 231.64871215820312 293.0904541015625 C 212.1292266845703 302.1064147949219 256.3981628417969 308.6471862792969 169.54222106933594 306.45819091796875 C 169.51637268066406 176.64236450195312 165.8649444580078 263.28350830078125 211.81399536132812 252.31398010253906 C 269.6809997558594 253.7965087890625 258.7726745605469 235.34939575195312 259.2774963378906 278.2489318847656 L 269.986083984375 297.3908996582031" stroke-width="2.0" fill="rgb(0, 73, 126)" opacity="0.51351655"/>
    <path d="M 226.3928985595703 504.01214599609375 C 194.3473663330078 505.4103088378906 193.3080291748047 498.445068359375 205.19313049316406 504.7301025390625 C 159.336181640625 504.5025634765625 131.37335205078125 504.99237060546875 123.33231353759766 504.7324523925781 C 123.60408020019531 507.107421875 124.02688598632812 476.21551513671875 129.365234375 487.6575622558594 C 128.71258544921875 490.8363952636719 187.62327575683594 488.2519836425781 227.63427734375 490.5653991699219 L 226.3928985595703 504.01214599609375" stroke-width="2.0" fill="rgb(0, 60, 100)" opacity="0.68935966"/>
    <path d="M 279.6102600097656 503.85540771484375 C 275.93548583984375 504.7044372558594 269.84051513671875 504.0107421875 255.79278564453125 504.8475341796875 C 209.2397918701172 504.37432861328125 192.59300231933594 506.3313903808594 187.69570922851562 500.902587890625 C 202.6107177734375 453.9945373535156 210.4663543701172 473.9007873535156 222.5198516845703 471.98931884765625 C 223.15382385253906 480.9599914550781 247.60055541992188 479.21270751953125 273.4726867675781 469.575439453125 L 279.6102600097656 503.85540771484375" stroke-width="2.0" fill="rgb(121, 101, 101)" opacity="0.2383998"/>
    <path d="M 289.5689697265625 504.505615234375 C 278.4678649902344 503.7572021484375 287.0708312988281 505.1552429199219 279.3677062988281 504.896240234375 C 289.4812927246094 503.36492919921875 291.53265380859375 504.8119812011719 233.5733642578125 504.7646484375 C 210.498291015625 503.3122863769531 237.92559814453125 514.1124267578125 222.30564880371094 470.5372619628906 C 329.3206787109375 474.6211242675781 331.7152099609375 461.1896667480469 335.35992431640625 504.6717224121094 L 289.5689697265625 504.505615234375" stroke-width="2.0" fill="rgb(23, 69, 100)" opacity="0.741515"/>
    <path d="M 191.00389099121094 355.2720642089844 C 189.76608276367188 354.95361328125 189.8421630859375 354.6851806640625 192.57496643066406 356.11376953125 C 191.49464416503906 357.9659118652344 193.07565307617188 356.0574645996094 192.83038330078125 355.29168701171875 C 191.9289093017578 357.11163330078125 192.31077575683594 357.2702331542969 192.79771423339844 356.46099853515625 C 191.4011993408203 355.87237548828125 191.25436401367188 355.558349609375 190.91001892089844 356.2704162597656 L 191.00389099121094 355.2720642089844" stroke-width="2.0" fill="rgb(85, 40, 241)" opacity="0.0"/>
    <path d="M 93.57205200195312 55.10822677612305 C 83.68299865722656 63.98876190185547 78.12129211425781 54.70541763305664 63.26081085205078 60.06459045410156 C 52.11789321899414 52.64558792114258 35.65045166015625 52.615966796875 24.486331939697266 50.06198501586914 C 24.992950439453125 -4.107738971710205 24.260831832885742 10.523409843444824 23.21005630493164 7.957338333129883 C 69.90296173095703 8.250819206237793 80.39986419677734 7.944549560546875 125.56121826171875 8.307445526123047 L 93.57205200195312 55.10822677612305" stroke-width="2.0" fill="rgb(88, 143, 153)" opacity="0.6638688"/>
    <path d="M 478.523193359375 348.7584533691406 C 478.5497131347656 372.90179443359375 478.95001220703125 364.15740966796875 478.11688232421875 366.0142517089844 C 479.95977783203125 365.58721923828125 472.2974853515625 365.0936279296875 473.1613464355469 365.73870849609375 C 473.09698486328125 350.5634765625 473.6388244628906 354.02899169921875 472.93316650390625 356.9915466308594 C 473.7602233886719 347.339111328125 472.5146484375 349.86456298828125 475.5083312988281 349.2067565917969 L 478.523193359375 348.7584533691406" stroke-width="2.0" fill="rgb(9, 0, 25)" opacity="0.78940856"/>
    <path d="M 361.6026611328125 490.4963073730469 C 327.1103820800781 491.65960693359375 330.61199951171875 485.9796142578125 335.2221374511719 503.2930603027344 C 326.07427978515625 485.28326416015625 356.721435546875 491.67425537109375 270.14093017578125 490.48175048828125 C 273.5245666503906 454.0168762207031 294.9810791015625 431.8222961425781 272.0351867675781 469.2884826660156 C 302.78387451171875 479.84539794921875 277.5409240722656 450.2947692871094 356.1795654296875 452.691162109375 L 361.6026611328125 490.4963073730469" stroke-width="2.0" fill="rgb(113, 154, 169)" opacity="0.8787394"/>
    <path d="M 124.271728515625 498.43121337890625 C 123.88015747070312 502.9990539550781 126.30862426757812 505.418212890625 117.87291717529297 504.77581787109375 C 41.12977600097656 505.9675598144531 75.8710708618164 501.6605529785156 32.396636962890625 494.2264709472656 C 47.47098922729492 427.55499267578125 50.78352737426758 474.1119079589844 22.880645751953125 455.14508056640625 C 105.9755859375 452.97137451171875 107.26595306396484 453.0029602050781 111.778564453125 453.49725341796875 L 124.271728515625 498.43121337890625" stroke-width="2.0" fill="rgb(0, 47, 100)" opacity="0.35528466"/>
    <path d="M 210.82626342773438 154.31410217285156 C 186.87794494628906 154.208984375 172.054931640625 151.30419921875 165.8070526123047 158.59991455078125 C 168.68141174316406 168.35702514648438 150.06546020507812 175.4114227294922 150.9681396484375 153.90272521972656 C 131.4386444091797 124.49632263183594 159.7303924560547 149.14227294921875 133.37005615234375 114.16136932373047 C 185.2552947998047 106.43287658691406 179.8817596435547 118.99165344238281 197.6380157470703 139.3408966064453 L 210.82626342773438 154.31410217285156" stroke-width="2.0" fill="rgb(74, 133, 149)" opacity="0.48761827"/>
    <path d="M 148.76821899414062 190.1741943359375 C 152.00082397460938 191.01368713378906 148.56390380859375 187.70071411132812 148.2786102294922 145.91177368164062 C 78.83295440673828 145.4837188720703 137.09144592285156 181.2549285888672 120.3362045288086 148.41799926757812 C 122.03337860107422 181.41819763183594 107.45037841796875 145.53445434570312 127.1146011352539 147.9720916748047 C 128.09896850585938 82.2976303100586 122.84013366699219 125.91419219970703 148.5943603515625 121.29090881347656 L 148.76821899414062 190.1741943359375" stroke-width="2.0" fill="rgb(50, 55, 58)" opacity="0.8382279"/>
    <path d="M 502.5264892578125 503.8072814941406 C 500.06036376953125 505.1144104003906 510.39239501953125 504.59722900390625 487.7947998046875 504.8978271484375 C 485.06256103515625 496.95074462890625 500.49114990234375 500.5182189941406 427.07525634765625 499.5010070800781 C 454.1011962890625 502.0700988769531 493.84564208984375 449.23046875 443.7247619628906 452.76123046875 C 508.92608642578125 479.6166076660156 502.4158020019531 476.51727294921875 502.1683349609375 451.5517272949219 L 502.5264892578125 503.8072814941406" stroke-width="2.0" fill="rgb(7, 57, 94)" opacity="0.7395678"/>
    <path d="M 279.7886962890625 396.5662536621094 C 280.4768371582031 417.9909973144531 282.73272705078125 411.55419921875 272.2907409667969 412.0657653808594 C 274.42767333984375 412.7823791503906 273.6568908691406 413.5409851074219 273.1233825683594 411.62646484375 C 273.7323303222656 378.4700927734375 272.2403259277344 393.1944885253906 273.00189208984375 388.3490905761719 C 273.3553466796875 389.64593505859375 269.66156005859375 388.8673400878906 279.98419189453125 389.1114196777344 L 279.7886962890625 396.5662536621094" stroke-width="2.0" fill="rgb(0, 2, 32)" opacity="0.8139232"/>
    <path d="M 374.5425720214844 368.419189453125 C 324.5969543457031 368.1119384765625 319.6259765625 368.3019714355469 341.98968505859375 366.16131591796875 C 271.9009704589844 378.3849182128906 329.1008605957031 345.3529968261719 291.6222839355469 351.35595703125 C 280.9691467285156 144.64068603515625 313.6882019042969 282.1443176269531 309.078369140625 351.3482360839844 C 375.23748779296875 351.3045959472656 368.2809753417969 349.2874450683594 364.37933349609375 357.1415710449219 L 374.5425720214844 368.419189453125" stroke-width="2.0" fill="rgb(0, 3, 30)" opacity="0.73589516"/>
    <path d="M 502.9623718261719 223.68106079101562 C 457.2749328613281 199.38560485839844 466.1158142089844 198.0615234375 469.9246826171875 212.99957275390625 C 383.3723449707031 210.26296997070312 396.1543273925781 219.16127014160156 394.6674499511719 207.3684844970703 C 395.05572509765625 142.35348510742188 392.83477783203125 169.7577667236328 404.9672546386719 163.63070678710938 C 464.00592041015625 163.28248596191406 501.9636535644531 163.7657012939453 487.0869140625 162.65505981445312 L 502.9623718261719 223.68106079101562" stroke-width="2.0" fill="rgb(229, 191, 168)" opacity="0.9468246"/>
    <path d="M 153.8784942626953 395.6184997558594 C 153.5789337158203 394.11346435546875 154.38827514648438 394.7182312011719 153.17660522460938 395.6485595703125 C 155.16928100585938 393.426025390625 155.5322723388672 393.1800537109375 155.3395233154297 393.24102783203125 C 153.75965881347656 395.14111328125 153.7711181640625 394.982177734375 153.83468627929688 394.73455810546875 C 153.87808227539062 395.1991882324219 153.8627471923828 396.28045654296875 153.84169006347656 394.7731018066406 L 153.8784942626953 395.6184997558594" stroke-width="2.0" fill="rgb(255, 176, 79)" opacity="0.0"/>
    <path d="M 103.25019073486328 90.43827056884766 C 150.25479125976562 85.9754867553711 154.55406188964844 99.70064544677734 111.81712341308594 98.43327331542969 C 105.80034637451172 125.15402221679688 104.87286376953125 98.82305145263672 50.208011627197266 107.41954040527344 C 42.60526657104492 36.03364944458008 40.409481048583984 38.792877197265625 57.4787483215332 35.38521957397461 C 115.0677490234375 22.629201889038086 129.6478729248047 12.49620532989502 135.2718505859375 11.56574821472168 L 103.25019073486328 90.43827056884766" stroke-width="2.0" fill="rgb(16, 144, 184)" opacity="0.5816575"/>
    <path d="M 152.50485229492188 458.1681823730469 C 121.85736846923828 476.4987487792969 133.889404296875 471.0014953613281 116.0457992553711 472.3359069824219 C 133.395751953125 489.0391540527344 138.9442138671875 491.232666015625 106.71485137939453 490.0439147949219 C 97.3941421508789 455.984375 72.64663696289062 425.17919921875 93.08935546875 394.1380920410156 C 106.55387115478516 441.1595764160156 143.3011016845703 442.1248474121094 224.23423767089844 399.12554931640625 L 152.50485229492188 458.1681823730469" stroke-width="2.0" fill="rgb(109, 164, 174)" opacity="0.59153694"/>
    <path d="M 119.97483825683594 410.5746765136719 C 103.97340393066406 419.92657470703125 84.4683609008789 413.0819396972656 88.26132202148438 423.23565673828125 C 44.787437438964844 425.8072204589844 74.62419128417969 417.3347473144531 69.33744049072266 392.7808532714844 C 26.38062858581543 375.0361328125 89.37615966796875 348.2441101074219 77.04692077636719 402.7753601074219 C 126.7193832397461 460.57861328125 101.17174530029297 307.88226318359375 105.39550018310547 400.1995849609375 L 119.97483825683594 410.5746765136719" stroke-width="2.0" fill="rgb(0, 36, 64)" opacity="0.5899504"/>
    <path d="M 483.8757629394531 431.3871154785156 C 409.4541320800781 431.60009765625 414.1268615722656 430.21649169921875 465.642333984375 433.6728515625 C 426.8597106933594 431.2442626953125 439.52130126953125 431.4201354980469 343.1822204589844 431.49346923828125 C 378.13330078125 403.9664001464844 413.94989013671875 437.975341796875 401.2504577636719 398.92132568359375 C 422.1961364746094 416.78424072265625 373.39080810546875 421.19427490234375 424.51995849609375 419.19256591796875 L 483.8757629394531 431.3871154785156" stroke-width="2.0" fill="rgb(38, 37, 58)" opacity="0.9779546"/>
    <path d="M 283.3197326660156 75.80923461914062 C 283.2652282714844 73.8576431274414 282.5565490722656 74.08565521240234 284.8592224121094 74.64546203613281 C 286.7884521484375 75.08883666992188 286.3744812011719 74.99344635009766 288.0023498535156 75.42767333984375 C 286.02227783203125 74.8979263305664 285.2490539550781 74.65220642089844 287.5450439453125 75.28235626220703 C 282.50433349609375 74.01856231689453 283.2699279785156 74.08750915527344 283.1771240234375 74.7750473022461 L 283.3197326660156 75.80923461914062" stroke-width="2.0" fill="rgb(163, 255, 255)" opacity="0.1068112"/>
    <path d="M 265.5987243652344 175.3218536376953 C 245.24237060546875 155.21070861816406 221.966796875 147.2483673095703 231.70199584960938 211.7962188720703 C 273.3296813964844 201.3780059814453 258.384521484375 188.40000915527344 257.4055480957031 177.92015075683594 C 256.1705627441406 165.82937622070312 240.43585205078125 181.958251953125 238.9951171875 149.40142822265625 C 273.7794494628906 146.04464721679688 248.56703186035156 152.5973663330078 263.09796142578125 151.97325134277344 L 265.5987243652344 175.3218536376953" stroke-width="2.0" fill="rgb(67, 29, 0)" opacity="0.21570764"/>
    <path d="M 263.8937072753906 251.3849334716797 C 201.40487670898438 251.8018035888672 195.60629272460938 250.1131134033203 193.10223388671875 251.20065307617188 C 152.4049835205078 250.28282165527344 148.8875732421875 256.5982360839844 132.23997497558594 247.2154541015625 C 127.31026458740234 190.5626678466797 127.17806243896484 181.60772705078125 128.2040557861328 174.15655517578125 C 237.01434326171875 178.40492248535156 233.19480895996094 173.52456665039062 259.89556884765625 174.40560913085938 L 263.8937072753906 251.3849334716797" stroke-width="2.0" fill="rgb(254, 42, 0)" opacity="0.70005065"/>
    <path d="M 498.6311950683594 368.20068359375 C 494.44720458984375 357.2975158691406 495.2140197753906 361.4384765625 499.08258056640625 359.2757568359375 C 477.9275817871094 363.89886474609375 480.89666748046875 345.1004333496094 463.9515686035156 337.7898864746094 C 463.70904541015625 328.82403564453125 460.3549499511719 328.8385009765625 463.199462890625 329.2438659667969 C 455.50634765625 332.2359924316406 519.5479125976562 330.00836181640625 497.6016540527344 332.3017883300781 L 498.6311950683594 368.20068359375" stroke-width="2.0" fill="rgb(0, 107, 164)" opacity="0.5392637"/>
    <path d="M 288.2300109863281 136.70994567871094 C 283.8035888671875 167.8954315185547 301.41558837890625 146.221435546875 293.3279113769531 214.03196716308594 C 278.43475341796875 218.15386962890625 280.2149658203125 184.61534118652344 279.8885498046875 167.94644165039062 C 279.776123046875 139.2836456298828 284.89544677734375 124.57256317138672 274.6634216308594 129.55677795410156 C 286.3309326171875 128.165283203125 286.5192565917969 128.96681213378906 290.3796691894531 146.4486541748047 L 288.2300109863281 136.70994567871094" stroke-width="2.0" fill="rgb(44, 37, 56)" opacity="0.37507263"/>
    <path d="M 491.9553527832031 292.5368347167969 C 486.3809814453125 294.7359313964844 510.0553894042969 300.49273681640625 501.4755859375 292.1139831542969 C 473.7143859863281 295.8901062011719 488.2987060546875 284.4317321777344 474.6874084472656 277.1497802734375 C 475.83734130859375 278.9540710449219 477.8116760253906 278.24365234375 476.3441467285156 278.0693359375 C 491.1470031738281 279.3355407714844 492.9702453613281 281.70867919921875 489.0329284667969 275.9803771972656 L 491.9553527832031 292.5368347167969" stroke-width="2.0" fill="rgb(40, 39, 53)" opacity="0.2663746"/>
    <path d="M 169.66197204589844 264.6606140136719 C 90.33838653564453 278.2907409667969 102.77938079833984 193.00706481933594 102.83629608154297 279.18096923828125 C -26.318466186523438 249.93850708007812 13.900287628173828 255.81423950195312 4.195718765258789 532.5239868164062 C -53.06178283691406 284.03106689453125 -17.59815788269043 175.8302764892578 0.5240163207054138 163.88356018066406 C 163.7266845703125 159.17539978027344 59.28635787963867 174.9172821044922 125.18490600585938 171.5853271484375 L 169.66197204589844 264.6606140136719" stroke-width="2.0" fill="rgb(255, 253, 241)" opacity="0.67101496"/>
    <path d="M 425.58343505859375 414.1565856933594 C 425.7955322265625 406.341796875 423.9068908691406 414.10028076171875 397.0263366699219 411.3257751464844 C 387.3126525878906 418.5370178222656 397.3198547363281 409.9744873046875 379.1876525878906 411.9384765625 C 378.82177734375 361.52142333984375 379.0625915527344 371.27142333984375 382.93853759765625 368.58319091796875 C 404.5390319824219 368.79742431640625 419.0714111328125 369.2762756347656 425.7898254394531 369.1630859375 L 425.58343505859375 414.1565856933594" stroke-width="2.0" fill="rgb(0, 78, 122)" opacity="0.40792915"/>
    <path d="M 390.26593017578125 61.889347076416016 C 383.36322021484375 61.739845275878906 376.62933349609375 45.516780853271484 364.8354797363281 66.06238555908203 C 305.5928649902344 71.8580093383789 336.36590576171875 46.226200103759766 314.40130615234375 10.94212532043457 C 301.004638671875 1.929578185081482 296.5385437011719 37.917720794677734 237.3240509033203 8.917597770690918 C 337.50177001953125 7.398123741149902 360.4316711425781 7.871859550476074 402.00286865234375 8.264897346496582 L 390.26593017578125 61.889347076416016" stroke-width="2.0" fill="rgb(126, 161, 165)" opacity="0.34724328"/>
    <path d="M 67.31096649169922 503.3956604003906 C 58.21366500854492 504.9510498046875 50.674102783203125 501.368896484375 62.02849197387695 504.75030517578125 C -2.353933811187744 504.25640869140625 6.340005397796631 504.99200439453125 5.796718597412109 505.0815124511719 C 5.013756275177002 460.3681335449219 6.169162273406982 445.6510925292969 4.833988189697266 454.46392822265625 C 113.57111358642578 450.6006164550781 104.40730285644531 463.3929443359375 19.26131820678711 459.2004089355469 L 67.31096649169922 503.3956604003906" stroke-width="2.0" fill="rgb(0, 48, 88)" opacity="0.6290697"/>
    <path d="M 313.3847961425781 293.27508544921875 C 313.3069152832031 293.21343994140625 313.5100402832031 295.3113708496094 314.0860290527344 295.652099609375 C 316.8277893066406 295.412353515625 314.98931884765625 295.66943359375 313.5859069824219 296.48565673828125 C 315.2781982421875 297.0639343261719 315.6257629394531 296.794921875 314.1166076660156 296.4413757324219 C 312.8949279785156 296.2771301269531 314.033203125 297.7384948730469 313.87939453125 299.4546813964844 L 313.3847961425781 293.27508544921875" stroke-width="2.0" fill="rgb(255, 93, 137)" opacity="0.0"/>
    <path d="M 249.3349151611328 412.99432373046875 C 228.78611755371094 413.3924560546875 237.6275634765625 410.58477783203125 235.62806701660156 421.7168884277344 C 153.76084899902344 418.86181640625 152.0511016845703 415.40576171875 197.0387420654297 404.4895324707031 C 197.91534423828125 359.80126953125 196.73272705078125 353.62713623046875 197.67010498046875 349.629150390625 C 237.8939666748047 359.2012023925781 218.9720458984375 346.6578369140625 249.3665771484375 332.82403564453125 L 249.3349151611328 412.99432373046875" stroke-width="2.0" fill="rgb(0, 91, 140)" opacity="0.5226083"/>
    <path d="M 515.97119140625 334.5021057128906 C 485.3687744140625 322.52581787109375 489.12530517578125 344.6401672363281 489.2596130371094 310.16259765625 C 448.6216125488281 316.0013122558594 483.2265625 296.2421569824219 456.48291015625 360.75628662109375 C 467.03265380859375 271.66119384765625 441.3960266113281 301.5865173339844 495.2607421875 295.3750305175781 C 502.6926574707031 300.99127197265625 506.035400390625 305.3566589355469 500.2052307128906 236.59381103515625 L 515.97119140625 334.5021057128906" stroke-width="2.0" fill="rgb(252, 246, 232)" opacity="0.9596809"/>
    <path d="M 361.59503173828125 471.30517578125 C 370.482421875 517.0208129882812 363.49603271484375 499.1935119628906 351.5269775390625 504.9761657714844 C 280.2640075683594 503.7774353027344 260.2144775390625 506.42340087890625 258.6923522949219 503.549560546875 C 280.1156921386719 473.3351745605469 274.3839111328125 446.6525573730469 291.8797912597656 452.46923828125 C 372.5794677734375 456.93499755859375 308.7682800292969 443.4613342285156 288.79986572265625 471.6225891113281 L 361.59503173828125 471.30517578125" stroke-width="2.0" fill="rgb(57, 104, 130)" opacity="0.5196455"/>
    <path d="M 85.78662872314453 433.3786926269531 C 130.47824096679688 541.2224731445312 77.68965911865234 457.01220703125 64.77936553955078 505.0741882324219 C -16.0579891204834 477.9764709472656 75.92314147949219 504.3096618652344 13.072428703308105 454.0849914550781 C 31.096477508544922 373.4559326171875 -0.4833603799343109 436.29266357421875 5.511239051818848 400.36102294921875 C 70.7486343383789 413.192138671875 44.52840042114258 435.1002502441406 85.45992279052734 428.3203430175781 L 85.78662872314453 433.3786926269531" stroke-width="2.0" fill="rgb(3, 12, 38)" opacity="0.29841414"/>
    <path d="M 232.482421875 306.8130798339844 C 218.15577697753906 350.30413818359375 272.5615539550781 296.8947448730469 269.7972106933594 350.88592529296875 C 214.9471435546875 357.0251770019531 260.8666076660156 314.963623046875 228.04315185546875 327.6796569824219 C 233.91424560546875 300.7433166503906 234.92404174804688 276.3147277832031 239.3336944580078 305.251708984375 C 287.7372741699219 290.1383972167969 337.2589416503906 305.3614196777344 266.34698486328125 299.24383544921875 L 232.482421875 306.8130798339844" stroke-width="2.0" fill="rgb(44, 51, 75)" opacity="0.9139221"/>
    <path d="M 106.67382049560547 491.5030822753906 C 41.919307708740234 486.8999938964844 90.12440490722656 497.5132141113281 54.22199249267578 499.7204895019531 C -28.156818389892578 475.50897216796875 19.890300750732422 507.6981506347656 6.342054843902588 463.97442626953125 C 6.70554256439209 396.1390075683594 -8.036670684814453 429.1922607421875 40.82429504394531 422.20635986328125 C 81.3304672241211 395.3331298828125 45.83889389038086 442.8190002441406 85.12018585205078 426.4925842285156 L 106.67382049560547 491.5030822753906" stroke-width="2.0" fill="rgb(141, 226, 235)" opacity="0.34703806"/>
    <path d="M 252.5150604248047 197.66885375976562 C 251.66783142089844 208.49253845214844 255.48118591308594 209.63194274902344 256.6573181152344 216.04147338867188 C 256.04693603515625 211.0443878173828 248.6173095703125 205.640625 254.65284729003906 191.0437774658203 C 260.3785095214844 190.46194458007812 264.79522705078125 192.50502014160156 263.4825134277344 188.3992156982422 C 291.8997497558594 187.72781372070312 289.90997314453125 191.64447021484375 254.48484802246094 191.02459716796875 L 252.5150604248047 197.66885375976562" stroke-width="2.0" fill="rgb(0, 111, 146)" opacity="0.9214979"/>
    <path d="M 375.3837585449219 214.7288360595703 C 354.5165710449219 165.911376953125 350.2660827636719 181.70187377929688 330.73577880859375 177.663330078125 C 304.44244384765625 177.66090393066406 319.26300048828125 181.73231506347656 314.2893981933594 158.61099243164062 C 309.445068359375 171.88421630859375 308.4789733886719 165.95652770996094 335.6862487792969 134.06227111816406 C 374.1141357421875 135.0592803955078 330.23162841796875 72.2607421875 374.20416259765625 153.08937072753906 L 375.3837585449219 214.7288360595703" stroke-width="2.0" fill="rgb(101, 159, 180)" opacity="0.9130211"/>
    <path d="M 32.7621955871582 491.4134521484375 C 95.1300277709961 488.7474365234375 59.963470458984375 492.3363037109375 68.52486419677734 505.000244140625 C -8.524587631225586 504.10272216796875 6.477859973907471 508.1330871582031 5.165037631988525 489.747802734375 C 32.80559539794922 398.1760559082031 -3.4687817096710205 404.6722106933594 7.05636739730835 460.9808349609375 C 76.51313781738281 440.5223388671875 126.29007720947266 466.09674072265625 41.93880844116211 458.6538391113281 L 32.7621955871582 491.4134521484375" stroke-width="2.0" fill="rgb(0, 26, 62)" opacity="0.21742812"/>
    <path d="M 356.6712341308594 96.57044982910156 C 346.03857421875 76.20317840576172 344.8767395019531 91.57119750976562 305.8577880859375 93.72864532470703 C 303.5075988769531 81.42800903320312 309.9335632324219 62.756744384765625 310.66705322265625 52.159690856933594 C 304.9952392578125 38.42692565917969 298.1195983886719 42.99388885498047 305.2041320800781 57.83439254760742 C 353.53515625 54.16055679321289 344.5374755859375 43.50040817260742 340.811767578125 35.116981506347656 L 356.6712341308594 96.57044982910156" stroke-width="2.0" fill="rgb(152, 184, 182)" opacity="0.13513564"/>
    <path d="M 181.70652770996094 420.5962219238281 C 121.49666595458984 421.33282470703125 84.9898681640625 417.4270935058594 179.44969177246094 424.1442565917969 C 109.50411987304688 417.21905517578125 97.35309600830078 423.4274597167969 61.48240280151367 415.8168029785156 C 52.074920654296875 395.9317932128906 98.92826843261719 402.2389221191406 117.57538604736328 400.29840087890625 C 281.1979675292969 403.0816650390625 252.60592651367188 393.3714904785156 232.14208984375 420.4535827636719 L 181.70652770996094 420.5962219238281" stroke-width="2.0" fill="rgb(43, 44, 62)" opacity="0.99187654"/>
    <path d="M 9.045249938964844 276.17230224609375 C -2.3206217288970947 321.9866943359375 31.19886589050293 298.3864440917969 36.441715240478516 340.61273193359375 C -2.937319278717041 347.6099853515625 5.361766815185547 337.6730651855469 5.639286041259766 297.0208740234375 C 9.603961944580078 283.8548583984375 6.831056594848633 277.11358642578125 6.711962699890137 280.85992431640625 C 31.503238677978516 279.9244689941406 33.16264343261719 277.1450500488281 33.737728118896484 263.2786865234375 L 9.045249938964844 276.17230224609375" stroke-width="2.0" fill="rgb(71, 132, 163)" opacity="0.31571105"/>
    <path d="M 426.0396728515625 490.9792785644531 C 411.8419189453125 490.1621398925781 433.3634338378906 491.6419677734375 458.40240478515625 491.311767578125 C 393.2193298339844 489.8489990234375 380.9360046386719 488.7055969238281 361.81500244140625 490.9261779785156 C 349.99530029296875 415.2406921386719 353.32568359375 484.3968505859375 456.5727233886719 431.5356750488281 C 531.0037231445312 377.2934265136719 490.7290344238281 520.6005249023438 499.77862548828125 490.3157958984375 L 426.0396728515625 490.9792785644531" stroke-width="2.0" fill="rgb(94, 147, 164)" opacity="0.5786678"/>
    <path d="M 292.84442138671875 200.65939331054688 C 294.06842041015625 165.15626525878906 294.1423034667969 200.93008422851562 294.82470703125 211.54055786132812 C 286.7913513183594 225.33892822265625 289.2218017578125 199.7001190185547 278.8238830566406 216.393798828125 C 280.87396240234375 210.8256378173828 281.0427551269531 125.90895080566406 278.7169494628906 124.65093994140625 C 299.6333312988281 142.62136840820312 279.2159118652344 169.5260009765625 294.5948181152344 160.6985626220703 L 292.84442138671875 200.65939331054688" stroke-width="2.0" fill="rgb(3, 2, 27)" opacity="0.7113987"/>
    <path d="M 282.0510559082031 142.613037109375 C 250.59237670898438 143.85205078125 288.2091064453125 142.060302734375 258.79119873046875 153.06201171875 C 187.8424072265625 156.23487854003906 216.85671997070312 154.71669006347656 184.4087371826172 124.20345306396484 C 165.4224090576172 105.69691467285156 173.5927734375 77.75187683105469 182.71823120117188 68.33560180664062 C 233.09823608398438 76.07357025146484 240.0928955078125 78.80240631103516 261.843994140625 83.4376449584961 L 282.0510559082031 142.613037109375" stroke-width="2.0" fill="rgb(40, 121, 139)" opacity="0.44030574"/>
    <path d="M 53.054588317871094 90.04773712158203 C 40.048126220703125 88.63921356201172 35.45257568359375 88.30101776123047 33.341461181640625 113.2066650390625 C -5.991457462310791 115.05657958984375 9.495837211608887 112.78942108154297 5.081206798553467 103.51885223388672 C 6.513862133026123 57.064720153808594 5.226306438446045 49.79529571533203 6.806570053100586 37.91976547241211 C 1.3519929647445679 45.22365188598633 13.956554412841797 49.69772720336914 50.72400665283203 53.9124755859375 L 53.054588317871094 90.04773712158203" stroke-width="2.0" fill="rgb(30, 101, 110)" opacity="0.04730207"/>
    <path d="M 80.70564270019531 316.57891845703125 C 80.04277038574219 315.6552734375 80.40506744384766 315.84539794921875 80.44358825683594 314.678466796875 C 80.21601104736328 316.1333923339844 80.17333221435547 315.69219970703125 80.5094985961914 316.3658752441406 C 82.08373260498047 318.7985534667969 82.9874267578125 320.3424377441406 83.93902587890625 321.6106872558594 C 81.18263244628906 317.4715270996094 80.78234100341797 316.83038330078125 82.09823608398438 318.88818359375 L 80.70564270019531 316.57891845703125" stroke-width="2.0" fill="rgb(222, 198, 76)" opacity="0.19617511"/>
    <path d="M 386.5334777832031 335.85418701171875 C 392.5801696777344 360.96490478515625 373.2048645019531 357.1434326171875 372.8021545410156 301.934326171875 C 371.1690979003906 386.8872375488281 382.8416442871094 369.6143798828125 350.9566955566406 361.5522155761719 C 374.0613098144531 367.572509765625 359.1239318847656 337.1100158691406 367.9349060058594 298.4652099609375 C 378.8352966308594 347.4657287597656 381.54168701171875 358.3763427734375 382.6643371582031 335.556884765625 L 386.5334777832031 335.85418701171875" stroke-width="2.0" fill="rgb(68, 31, 41)" opacity="0.8706568"/>
    <path d="M 316.1473388671875 293.5232849121094 C 316.8392028808594 293.5021667480469 315.5577697753906 292.780517578125 316.429443359375 292.9421081542969 C 320.34210205078125 293.268798828125 319.0098571777344 293.5658264160156 318.7374572753906 291.70550537109375 C 318.9590148925781 292.7100830078125 319.0001220703125 292.2622985839844 319.1669921875 293.1477966308594 C 315.5733642578125 293.0368957519531 315.9161071777344 292.6167297363281 316.34869384765625 293.4448547363281 L 316.1473388671875 293.5232849121094" stroke-width="2.0" fill="rgb(255, 97, 180)" opacity="0.0"/>
    <path d="M 99.08948516845703 279.8449401855469 C 98.7115707397461 274.4604187011719 61.85017776489258 269.5384521484375 55.1070556640625 301.6475524902344 C -9.041245460510254 310.1868591308594 5.6764631271362305 323.22100830078125 9.597620964050293 258.55609130859375 C 95.32374572753906 256.2025146484375 89.51092529296875 269.67327880859375 91.1811752319336 210.2750701904297 C 71.80167388916016 222.42135620117188 30.04368782043457 265.9771423339844 92.39543151855469 244.85789489746094 L 99.08948516845703 279.8449401855469" stroke-width="2.0" fill="rgb(228, 185, 161)" opacity="0.98462194"/>
    <path d="M 79.70014190673828 60.34089279174805 C 88.25264739990234 60.37094497680664 115.9658203125 38.60028839111328 110.84587097167969 122.59297180175781 C 52.670875549316406 92.30918884277344 50.36283874511719 116.62091827392578 48.908111572265625 102.30034637451172 C 44.346046447753906 37.88895034790039 38.958343505859375 38.18207931518555 56.05608367919922 35.5888786315918 C 137.37217712402344 15.904986381530762 133.65318298339844 8.979233741760254 85.00381469726562 60.24821853637695 L 79.70014190673828 60.34089279174805" stroke-width="2.0" fill="rgb(147, 174, 174)" opacity="0.8962906"/>
    <path d="M 144.39932250976562 123.06819915771484 C 155.1071319580078 114.76618194580078 139.915283203125 163.64134216308594 153.55526733398438 148.959716796875 C 159.80911254882812 177.5334930419922 132.19334411621094 182.64801025390625 127.06712341308594 170.4955596923828 C 128.586669921875 115.95590209960938 128.50714111328125 56.39999771118164 125.60468292236328 55.732696533203125 C 157.76089477539062 77.08903503417969 123.5173568725586 145.10189819335938 151.28448486328125 116.21662902832031 L 144.39932250976562 123.06819915771484" stroke-width="2.0" fill="rgb(14, 18, 54)" opacity="0.60620743"/>
    <path d="M 153.4689178466797 194.86520385742188 C 154.61106872558594 200.28306579589844 152.00596618652344 210.59625244140625 154.59263610839844 251.78465270996094 C 115.9101333618164 251.607177734375 130.63973999023438 252.4268341064453 127.37051391601562 252.05963134765625 C 127.73886108398438 146.02890014648438 126.7767105102539 169.60643005371094 129.5783233642578 167.02752685546875 C 166.79112243652344 166.856689453125 149.0410614013672 165.7485809326172 154.49307250976562 155.34414672851562 L 153.4689178466797 194.86520385742188" stroke-width="2.0" fill="rgb(41, 45, 64)" opacity="0.96713257"/>
    <path d="M 25.34091567993164 50.94761276245117 C 27.93415069580078 50.51361083984375 3.443769693374634 46.970001220703125 5.52022123336792 48.970481872558594 C 5.518221855163574 9.989975929260254 5.586594581604004 13.51590347290039 6.109283447265625 14.509449005126953 C 7.001158237457275 13.313685417175293 5.267529487609863 17.284229278564453 5.448381423950195 8.062947273254395 C 6.396059036254883 8.566462516784668 -2.0736427307128906 7.622955322265625 25.072383880615234 8.289494514465332 L 25.34091567993164 50.94761276245117" stroke-width="2.0" fill="rgb(117, 160, 166)" opacity="0.86166185"/>
    <path d="M 374.3745422363281 367.41998291015625 C 365.66619873046875 366.0080261230469 359.4276428222656 361.6365051269531 374.3230895996094 370.0473937988281 C 280.8381652832031 366.7572326660156 310.1204528808594 377.53192138671875 304.0858154296875 348.13555908203125 C 337.2127380371094 365.071044921875 307.44500732421875 325.6317443847656 328.72747802734375 296.883056640625 C 388.62359619140625 292.8313293457031 332.18878173828125 308.3075866699219 373.987548828125 308.50811767578125 L 374.3745422363281 367.41998291015625" stroke-width="2.0" fill="rgb(10, 99, 137)" opacity="0.44257918"/>
    <path d="M 269.6357727050781 490.2061767578125 C 238.27239990234375 490.916259765625 225.29763793945312 487.7025146484375 209.51553344726562 504.64599609375 C 182.04405212402344 504.9839782714844 188.9143829345703 504.3802490234375 184.71495056152344 503.8337707519531 C 201.23289489746094 480.85675048828125 194.38201904296875 456.490234375 205.71649169921875 479.64483642578125 C 252.00791931152344 458.8385925292969 173.08993530273438 463.5130920410156 277.7668151855469 462.22283935546875 L 269.6357727050781 490.2061767578125" stroke-width="2.0" fill="rgb(83, 135, 157)" opacity="0.66474503"/>
    <path d="M 178.97779846191406 69.62462615966797 C 163.43319702148438 87.15873718261719 181.9156951904297 125.2504653930664 170.73992919921875 113.84551239013672 C 114.86348724365234 96.28231048583984 159.7017364501953 137.99266052246094 126.97193145751953 112.38240814208984 C 127.12399291992188 30.890504837036133 131.13461303710938 87.99884796142578 110.7802963256836 45.77017593383789 C 173.1312713623047 71.43452453613281 185.33311462402344 70.16545867919922 193.15890502929688 71.70578002929688 L 178.97779846191406 69.62462615966797" stroke-width="2.0" fill="rgb(0, 2, 28)" opacity="0.410928"/>
    <path d="M 279.9056396484375 292.8727111816406 C 229.3572998046875 227.19801330566406 229.38986206054688 235.323974609375 281.14239501953125 292.4352111816406 C 212.4182586669922 244.031494140625 269.90234375 206.61221313476562 183.82337951660156 190.09083557128906 C 154.3557891845703 150.9241943359375 147.20721435546875 174.6607208251953 69.51488494873047 161.92330932617188 C 212.73118591308594 159.4510955810547 285.9164123535156 170.06781005859375 278.909912109375 148.6296844482422 L 279.9056396484375 292.8727111816406" stroke-width="2.0" fill="rgb(255, 255, 255)" opacity="0.25822306"/>
    <path d="M 314.5709228515625 257.04144287109375 C 314.9031677246094 253.48231506347656 314.4534606933594 256.3462829589844 314.936767578125 255.2772674560547 C 303.7500915527344 257.21453857421875 306.3563537597656 251.36968994140625 307.2746276855469 256.8773498535156 C 307.7406005859375 234.51242065429688 305.2062683105469 233.5719451904297 312.18255615234375 230.2473602294922 C 304.0064697265625 234.65579223632812 313.5252990722656 227.46591186523438 314.31787109375 235.82496643066406 L 314.5709228515625 257.04144287109375" stroke-width="2.0" fill="rgb(0, 5, 31)" opacity="0.83254856"/>
    <path d="M 265.042236328125 251.0447540283203 C 195.0056610107422 258.07781982421875 214.28256225585938 236.22720336914062 211.14761352539062 279.5789489746094 C 183.2324676513672 237.464599609375 210.9831085205078 256.9524230957031 153.4041748046875 251.5119171142578 C 153.87942504882812 199.58811950683594 152.4826202392578 165.93699645996094 154.60812377929688 163.1017303466797 C 259.1669616699219 162.78106689453125 251.64051818847656 159.4762420654297 265.24609375 170.96832275390625 L 265.042236328125 251.0447540283203" stroke-width="2.0" fill="rgb(224, 214, 193)" opacity="0.78183967"/>
    <path d="M 231.1720428466797 504.48468017578125 C 232.95237731933594 503.4428405761719 215.42282104492188 508.7381286621094 172.71510314941406 498.7578430175781 C 212.1654510498047 474.5280456542969 207.12608337402344 482.8861389160156 113.66392517089844 479.8078918457031 C 159.9531707763672 456.24755859375 169.2025146484375 444.1653747558594 162.50132751464844 449.8513488769531 C 164.2653350830078 450.18731689453125 178.5412139892578 455.7662353515625 218.6685791015625 454.28564453125 L 231.1720428466797 504.48468017578125" stroke-width="2.0" fill="rgb(50, 109, 136)" opacity="0.59835243"/>
    <path d="M 269.3359375 162.50828552246094 C 233.2306365966797 165.185791015625 204.8068084716797 162.18035888671875 210.27899169921875 162.97378540039062 C 228.24050903320312 164.4953155517578 228.25863647460938 163.1187286376953 152.09593200683594 163.70220947265625 C 187.6009521484375 113.14990997314453 126.15541076660156 143.86764526367188 142.49691772460938 82.5628433227539 C 252.10232543945312 118.89833068847656 243.10232543945312 129.15658569335938 269.7615661621094 115.40365600585938 L 269.3359375 162.50828552246094" stroke-width="2.0" fill="rgb(148, 179, 180)" opacity="0.85964507"/>
    <path d="M 305.95025634765625 79.71925354003906 C 368.9529113769531 52.80755615234375 366.0758361816406 140.96621704101562 335.3883972167969 133.76756286621094 C 291.0232849121094 199.24832153320312 285.7062683105469 150.0163116455078 261.4878234863281 83.88099670410156 C 275.8788146972656 100.42112731933594 296.2594299316406 92.49029541015625 301.5330810546875 84.74986267089844 C 292.0024108886719 93.77285766601562 293.51507568359375 93.47235870361328 285.9639892578125 101.39349365234375 L 305.95025634765625 79.71925354003906" stroke-width="2.0" fill="rgb(0, 101, 124)" opacity="0.3217325"/>
    <path d="M 252.10049438476562 241.17762756347656 C 224.348876953125 259.3741149902344 206.76405334472656 270.90277099609375 238.63998413085938 267.0864562988281 C 236.67152404785156 321.9633483886719 231.54164123535156 226.62893676757812 223.10226440429688 285.62713623046875 C 210.57786560058594 260.7308349609375 232.62338256835938 262.2020263671875 238.43601989746094 238.32659912109375 C 234.38772583007812 256.8069763183594 213.84027099609375 267.15179443359375 244.97633361816406 246.22006225585938 L 252.10049438476562 241.17762756347656" stroke-width="2.0" fill="rgb(0, 0, 11)" opacity="0.50204945"/>
    <path d="M 137.37176513671875 70.362548828125 C 120.48609161376953 50.77812576293945 108.45503997802734 76.25395965576172 111.91178894042969 91.40686798095703 C 93.82042694091797 91.55266571044922 95.93265533447266 86.98075866699219 84.55781555175781 85.8882827758789 C 76.0914535522461 47.69382095336914 83.97421264648438 43.534854888916016 116.59972381591797 8.034128189086914 C 179.9888153076172 7.3369460105896 226.53428649902344 17.592941284179688 153.7156219482422 121.8781967163086 L 137.37176513671875 70.362548828125" stroke-width="2.0" fill="rgb(138, 171, 174)" opacity="0.96480095"/>
    <path d="M 502.5853271484375 263.6396789550781 C 447.1836853027344 254.8618927001953 459.4902648925781 280.3864440917969 457.5155944824219 219.10983276367188 C 458.83782958984375 177.81871032714844 426.9267272949219 210.73275756835938 446.82537841796875 216.58006286621094 C 462.44097900390625 208.48428344726562 451.1168212890625 200.89158630371094 452.29522705078125 183.67918395996094 C 523.6962280273438 172.55467224121094 462.79779052734375 160.9137725830078 502.5340881347656 163.6278533935547 L 502.5853271484375 263.6396789550781" stroke-width="2.0" fill="rgb(232, 189, 163)" opacity="0.9386168"/>
    <path d="M 507.38525390625 280.72833251953125 C 419.1836242675781 281.0802917480469 457.95684814453125 305.2664489746094 445.4650573730469 271.51544189453125 C 424.5257873535156 321.0791015625 499.6391906738281 336.3439025878906 429.0675354003906 328.8901672363281 C 418.1228942871094 267.9712219238281 440.27001953125 314.1477966308594 488.57037353515625 260.168701171875 C 469.9252014160156 285.11737060546875 474.90948486328125 290.363037109375 479.2001037597656 280.89617919921875 L 507.38525390625 280.72833251953125" stroke-width="2.0" fill="rgb(45, 48, 68)" opacity="0.8773112"/>
    <path d="M 502.4308166503906 431.4136047363281 C 464.3644104003906 430.1676940917969 486.57122802734375 430.4618225097656 505.473876953125 432.91888427734375 C 480.5760498046875 429.41644287109375 483.3965759277344 433.98956298828125 417.27227783203125 426.3778381347656 C 419.2700500488281 416.83270263671875 431.77081298828125 420.24603271484375 446.4090576171875 419.3589782714844 C 499.7816162109375 419.9501647949219 504.4527587890625 417.92193603515625 502.3377685546875 420.8810729980469 L 502.4308166503906 431.4136047363281" stroke-width="2.0" fill="rgb(38, 38, 57)" opacity="0.9936696"/>
  </g>
</svg>
