<?xml version="1.0" ?>
<svg xmlns="http://www.w3.org/2000/svg" version="1.1" width="512" height="512">
  <defs/>
  <g>
    <path d="M -0.4740491509437561 -0.28567734360694885 L 512.3587036132812 -0.3565426468849182 L 512.0625 512.2936401367188 L -0.5885105729103088 512.2742309570312 L -0.4740491509437561 -0.28567734360694885" stroke-width="0.0" fill="rgb(263, 235, 255)" opacity="1.0743703" stroke="rgb(0, 0, 0)" stroke-opacity="0.0" stroke-linecap="round" stroke-linejoin="round"/>
    <path d="M 88.029296875 63.111183166503906 C 48.70341110229492 97.82088470458984 29.097959518432617 132.6212921142578 14.828215599060059 168.99525451660156 L 4.071744918823242 207.8175811767578 L -0.18319807946681976 244.00376892089844 L -0.40936869382858276 511.6091613769531 L 509.4378356933594 511.5347900390625 L 511.89434814453125 243.40533447265625 C 507.8477783203125 190.901123046875 493.6763916015625 138.55706787109375 447.9224548339844 86.12315368652344 C 392.4566650390625 26.799331665039062 336.9940185546875 7.955651760101318 281.7205810546875 0.8650853633880615 C 217.06964111328125 -3.453270435333252 151.25857543945312 9.146012306213379 88.029296875 63.111183166503906" stroke-width="2.0" fill="rgb(58, 170, 250)" opacity="1.1284869" stroke="rgb(0, 0, 0)" stroke-opacity="0.0" stroke-linecap="round" stroke-linejoin="round"/>
    <path d="M 395.1184997558594 146.29161071777344 C 389.03680419921875 136.5164031982422 380.4346008300781 138.50318908691406 374.1992492675781 141.15859985351562 C 291.8787536621094 173.7003936767578 210.36248779296875 204.79844665527344 128.8209686279297 236.92494201660156 C 122.49266052246094 238.43495178222656 114.19020080566406 243.8494415283203 116.56912231445312 250.3118133544922 C 120.69872283935547 255.42587280273438 124.8718032836914 254.16493225097656 129.08673095703125 256.78271484375 C 148.82818603515625 263.1564025878906 168.7159881591797 269.0807800292969 189.4193878173828 276.0218200683594 C 200.50572204589844 302.91290283203125 204.00038146972656 329.86151123046875 215.31459045410156 358.09716796875 C 220.58335876464844 359.15277099609375 225.39105224609375 358.3286437988281 230.77842712402344 355.8732604980469 L 265.1680603027344 322.1820068359375 C 288.8667297363281 337.3087463378906 312.1923522949219 359.69403076171875 335.1654357910156 373.0470275878906 C 346.773193359375 375.89093017578125 352.2392883300781 363.5146179199219 353.2135925292969 355.2961120605469 C 366.8948669433594 291.0833435058594 380.42950439453125 226.45542907714844 394.4750671386719 161.18856811523438 L 395.1184997558594 146.29161071777344" stroke-width="2.0" fill="rgb(242, 244, 244)" opacity="0.9847617" stroke="rgb(0, 0, 0)" stroke-opacity="0.0" stroke-linecap="round" stroke-linejoin="round"/>
    <path d="M 387.0149841308594 140.15750122070312 C 372.1450500488281 139.62034606933594 357.1654357910156 150.97418212890625 342.12384033203125 154.28346252441406 C 339.4508056640625 156.0605926513672 344.3319091796875 154.0156707763672 344.93719482421875 157.00730895996094 C 346.5495300292969 160.9558868408203 337.5483093261719 166.91494750976562 345.9003601074219 168.0310821533203 C 344.0593566894531 169.46095275878906 347.71417236328125 176.1644287109375 342.8872985839844 172.9888458251953 L 346.9226989746094 184.9784393310547 L 228.64675903320312 291.677001953125 C 227.7557373046875 293.3033447265625 227.7672119140625 295.5789489746094 231.257568359375 297.6734924316406 C 265.3162841796875 321.3065185546875 299.87115478515625 350.5865783691406 335.65203857421875 372.3681945800781 C 340.5191955566406 372.3175964355469 345.10040283203125 372.4697570800781 349.3593444824219 367.350830078125 C 366.616943359375 297.4427490234375 379.30859375 227.53099060058594 394.9203186035156 157.2724609375 C 394.9742431640625 151.92481994628906 394.7486877441406 144.35386657714844 387.0149841308594 140.15750122070312" stroke-width="2.0" fill="rgb(254, 254, 254)" opacity="0.96670747" stroke="rgb(0, 0, 0)" stroke-opacity="0.0" stroke-linecap="round" stroke-linejoin="round"/>
    <path d="M 343.86669921875 181.90782165527344 C 336.25628662109375 181.43446350097656 334.31915283203125 173.65162658691406 327.07476806640625 169.96316528320312 C 330.69512939453125 168.1363067626953 331.54449462890625 163.42579650878906 334.05401611328125 159.9648895263672 L 327.5248107910156 159.47073364257812 L 128.37539672851562 236.38522338867188 C 119.34124755859375 239.5712432861328 113.15377807617188 249.80303955078125 123.58805847167969 255.50592041015625 L 189.2107391357422 275.8507080078125 L 194.79397583007812 286.44183349609375 L 212.54168701171875 349.80535888671875 C 214.39837646484375 357.7579040527344 220.55697631835938 358.03314208984375 226.12841796875 357.43206787109375 C 237.09661865234375 348.9259033203125 250.6372833251953 335.14727783203125 260.0423278808594 323.99578857421875 C 261.35064697265625 321.26141357421875 257.7763671875 318.5389404296875 255.1633758544922 315.82171630859375 C 252.3333282470703 315.9840087890625 249.6666717529297 316.55487060546875 247.0 314.0 C 244.0353546142578 319.7614440917969 237.57666015625 316.3369445800781 239.0 312.0 L 245.0 310.0 C 235.54229736328125 303.5155944824219 236.41966247558594 317.82684326171875 235.0 323.0 C 233.3333282470703 326.44873046875 231.6666717529297 321.1153869628906 230.0 322.0 C 228.73077392578125 322.6581115722656 228.23077392578125 327.5469970703125 225.7205047607422 325.01202392578125 L 224.8125762939453 297.9884033203125 L 228.14944458007812 289.19903564453125 L 330.0389709472656 198.04263305664062 C 334.50927734375 192.5137481689453 342.5182800292969 187.17251586914062 343.86669921875 181.90782165527344" stroke-width="2.0" fill="rgb(251, 252, 252)" opacity="0.89468586" stroke="rgb(0, 0, 0)" stroke-opacity="0.0" stroke-linecap="round" stroke-linejoin="round"/>
    <path d="M 287.7040710449219 0.18848101794719696 C 327.16119384765625 6.705192565917969 366.5198974609375 19.73748016357422 405.8587646484375 47.20987319946289 C 419.6588439941406 57.604183197021484 435.4202880859375 71.2486343383789 447.25958251953125 83.80765533447266 C 488.1340637207031 131.32354736328125 505.6842346191406 179.1021270751953 511.45458984375 226.98114013671875 L 511.75946044921875 -0.3768109977245331 L 287.7040710449219 0.18848101794719696" stroke-width="2.0" fill="rgb(253, 255, 254)" opacity="0.9517032" stroke="rgb(0, 0, 0)" stroke-opacity="0.0" stroke-linecap="round" stroke-linejoin="round"/>
    <path d="M 0.23962940275669098 224.1403350830078 L 9.469683647155762 181.15985107421875 C 18.1364803314209 154.41258239746094 30.853466033935547 127.76141357421875 50.47755432128906 101.46226501464844 C 88.51915740966797 52.397369384765625 137.5992889404297 24.05865478515625 181.59979248046875 9.858769416809082 C 196.45448303222656 6.374474048614502 211.74945068359375 1.503668189048767 227.17665100097656 0.035274069756269455 L -0.384315550327301 -0.376304566860199 L 0.23962940275669098 224.1403350830078" stroke-width="2.0" fill="rgb(252, 255, 254)" opacity="0.94301146" stroke="rgb(0, 0, 0)" stroke-opacity="0.0" stroke-linecap="round" stroke-linejoin="round"/>
    <path d="M 511.2021789550781 292.38421630859375 L 502.0278015136719 325.34210205078125 C 496.3837585449219 345.31298828125 489.469482421875 363.5995178222656 479.3511962890625 381.4900207519531 L 458.9524841308594 413.15869140625 L 426.0874328613281 447.875732421875 C 407.38970947265625 463.24859619140625 386.22857666015625 477.8141174316406 365.5547180175781 487.4723815917969 C 338.613525390625 500.3520812988281 310.26788330078125 506.8456115722656 281.9960021972656 511.4612731933594 L 512.1314086914062 512.0633544921875 L 511.2021789550781 292.38421630859375" stroke-width="2.0" fill="rgb(252, 253, 254)" opacity="0.9983169" stroke="rgb(0, 0, 0)" stroke-opacity="0.0" stroke-linecap="round" stroke-linejoin="round"/>
    <path d="M 0.2751510739326477 298.4595947265625 L -1.0217680931091309 511.99078369140625 L 229.37632751464844 511.4314270019531 L 187.32554626464844 503.25494384765625 L 144.61656188964844 487.419189453125 L 108.94342803955078 466.0525817871094 L 80.72010040283203 443.25555419921875 L 54.21017837524414 413.8597412109375 C 46.39519119262695 403.38616943359375 39.109840393066406 390.5591125488281 32.844512939453125 381.282958984375 C 25.598234176635742 367.884765625 20.279319763183594 354.2381286621094 13.995388984680176 340.2286071777344 C 11.036046981811523 327.1235656738281 4.308032035827637 313.75872802734375 0.2751510739326477 298.4595947265625" stroke-width="2.0" fill="rgb(252, 253, 254)" opacity="0.9969608" stroke="rgb(0, 0, 0)" stroke-opacity="0.0" stroke-linecap="round" stroke-linejoin="round"/>
    <path d="M 342.1961975097656 182.94532775878906 L 335.9029235839844 183.8126983642578 C 287.6907958984375 215.67227172851562 239.49014282226562 243.26815795898438 190.55694580078125 276.1519775390625 C 195.43492126464844 300.5450744628906 205.80369567871094 324.8263854980469 211.65945434570312 349.4103698730469 C 213.75074768066406 358.50830078125 223.4366912841797 360.2937316894531 230.14505004882812 355.238525390625 L 262.2098083496094 322.6263732910156 C 251.437744140625 312.45013427734375 238.5966796875 304.0310363769531 227.14743041992188 296.8687744140625 C 224.2515106201172 294.3219299316406 226.9407196044922 291.6840515136719 228.76742553710938 289.8113708496094 L 337.9562683105469 191.97454833984375 L 342.1961975097656 182.94532775878906" stroke-width="2.0" fill="rgb(226, 227, 227)" opacity="0.96435106" stroke="rgb(0, 0, 0)" stroke-opacity="0.0" stroke-linecap="round" stroke-linejoin="round"/>
    <path d="M 226.631103515625 294.7381591796875 L 220.85911560058594 357.2712097167969 L 230.71424865722656 355.9598693847656 L 263.2888488769531 323.5508117675781 C 255.63282775878906 312.6364440917969 240.06625366210938 304.6478271484375 226.631103515625 294.7381591796875" stroke-width="2.0" fill="rgb(182, 183, 184)" opacity="0.997241" stroke="rgb(0, 0, 0)" stroke-opacity="0.0" stroke-linecap="round" stroke-linejoin="round"/>
    <path d="M 298.9824523925781 508.8962097167969 L 290.9359130859375 509.64056396484375 L 298.9824523925781 508.8962097167969" stroke-width="2.0" fill="rgb(242, 254, 252)" opacity="1.0" stroke="rgb(0, 0, 0)" stroke-opacity="0.0" stroke-linecap="round" stroke-linejoin="round"/>
  </g>
</svg>
