<?xml version="1.0" ?>
<svg xmlns="http://www.w3.org/2000/svg" version="1.1" width="508" height="512">
  <defs/>
  <g>
    <path d="M 375.0526123046875 7.9968390464782715 C 144.12413024902344 81.92476654052734 326.0021667480469 37.7417106628418 283.7464904785156 233.42921447753906 C 97.85919189453125 275.0116882324219 53.1705436706543 243.78640747070312 5.857937335968018 183.3047637939453 C 5.467357635498047 -68.51993560791016 5.930777072906494 -2.5368714332580566 5.644610404968262 8.037948608398438 C 166.47747802734375 8.063619613647461 179.0484161376953 7.96722412109375 375.0526123046875 7.9968390464782715" stroke-width="0.0" fill="rgb(107, 103, 96)" opacity="0.47500136" stroke="rgb(163, 184, 129)" stroke-opacity="0.5939664" stroke-linecap="round" stroke-linejoin="round"/>
    <path d="M 465.6965026855469 86.3478012084961 C 487.0567321777344 219.1022186279297 549.8018188476562 277.14984130859375 435.91168212890625 363.74664306640625 C 75.15927124023438 370.5664978027344 122.91083526611328 262.5924987792969 307.7323913574219 75.71649932861328 C 310.8224792480469 19.645450592041016 271.6365051269531 29.454669952392578 370.46405029296875 60.17424774169922 C 394.53448486328125 75.63444519042969 281.4365539550781 103.3150634765625 465.6965026855469 86.3478012084961" stroke-width="0.0" fill="rgb(155, 159, 160)" opacity="1.0" stroke="rgb(40, 157, 219)" stroke-opacity="0.9114181" stroke-linecap="round" stroke-linejoin="round"/>
    <path d="M 502.0700988769531 174.2354278564453 C 418.60137939453125 103.65635681152344 399.6398010253906 22.514081954956055 370.91949462890625 81.95738220214844 C 271.74176025390625 84.49591827392578 326.63946533203125 -14.760819435119629 210.70526123046875 91.4403076171875 C 118.69181823730469 -14.188779830932617 132.06982421875 12.466858863830566 502.11871337890625 7.9575419425964355 C 502.09844970703125 15.359173774719238 502.36163330078125 -34.110626220703125 502.0700988769531 174.2354278564453" stroke-width="0.0" fill="rgb(132, 169, 172)" opacity="0.8816532" stroke="rgb(228, 242, 245)" stroke-opacity="0.17199986" stroke-linecap="round" stroke-linejoin="round"/>
    <path d="M 254.99972534179688 328.33740234375 C 229.00436401367188 459.74664306640625 319.1364440917969 406.66986083984375 18.816442489624023 426.4170227050781 C -28.466724395751953 354.619384765625 57.12004470825195 479.0100402832031 93.45008087158203 277.5810852050781 C 169.58888244628906 298.87335205078125 108.27717590332031 411.1735534667969 143.4498291015625 396.920166015625 C 241.90318298339844 433.1570739746094 167.2506866455078 280.30194091796875 254.99972534179688 328.33740234375" stroke-width="0.0" fill="rgb(16, 43, 70)" opacity="0.589791" stroke="rgb(254, 73, 88)" stroke-opacity="0.34953937" stroke-linecap="round" stroke-linejoin="round"/>
    <path d="M 368.5019226074219 274.2493591308594 C 277.45318603515625 303.89556884765625 361.75347900390625 251.1063232421875 365.3502502441406 303.4047546386719 C 306.7073974609375 254.02505493164062 308.11859130859375 448.53399658203125 310.8981018066406 284.6611022949219 C 280.0171203613281 231.60134887695312 352.0626525878906 286.10540771484375 292.52294921875 204.9414520263672 C 449.71484375 191.71890258789062 249.125732421875 242.0361785888672 368.5019226074219 274.2493591308594" stroke-width="0.0" fill="rgb(242, 237, 222)" opacity="0.9173348" stroke="rgb(183, 104, 1)" stroke-opacity="0.74067336" stroke-linecap="round" stroke-linejoin="round"/>
    <path d="M 528.2295532226562 355.7870788574219 C 487.28857421875 405.13922119140625 462.58306884765625 381.81182861328125 433.95587158203125 345.59844970703125 C 421.9620361328125 439.41424560546875 412.9745788574219 442.40496826171875 419.3041687011719 334.6695251464844 C 337.14422607421875 349.7906799316406 381.54071044921875 298.5925598144531 431.1324462890625 329.8963623046875 C 496.43255615234375 342.1717224121094 413.92242431640625 270.76611328125 528.2295532226562 355.7870788574219" stroke-width="0.0" fill="rgb(199, 190, 182)" opacity="1.0" stroke="rgb(117, 218, 235)" stroke-opacity="0.27286473" stroke-linecap="round" stroke-linejoin="round"/>
    <path d="M 119.59275817871094 306.49652099609375 C 106.55448913574219 148.46775817871094 124.71958923339844 186.44239807128906 111.93109893798828 181.9482421875 C 104.02066802978516 234.7662353515625 134.87628173828125 269.79248046875 97.16549682617188 247.69622802734375 C 102.90852355957031 153.21827697753906 81.92831420898438 174.60302734375 129.06996154785156 171.1138458251953 C 122.72038269042969 164.17404174804688 133.5905303955078 247.7626495361328 119.59275817871094 306.49652099609375" stroke-width="0.0" fill="rgb(255, 251, 233)" opacity="0.932402" stroke="rgb(58, 196, 15)" stroke-opacity="0.109088555" stroke-linecap="round" stroke-linejoin="round"/>
    <path d="M 176.0 414.0 C 175.3301239013672 416.5 173.5 418.33013916015625 171.0 419.0 C 168.5 418.33013916015625 166.6698760986328 416.5 166.0 414.0 C 166.6698760986328 411.5 168.5 409.66986083984375 171.0 409.0 C 173.5 409.66986083984375 175.3301239013672 411.5 176.0 414.0" stroke-width="0.0" fill="rgb(41, 43, 62)" opacity="1.0" stroke="rgb(127, 56, 188)" stroke-opacity="0.5364975" stroke-linecap="round" stroke-linejoin="round"/>
  </g>
</svg>
