<?xml version="1.0" ?>
<svg xmlns="http://www.w3.org/2000/svg" version="1.1" width="508" height="512">
  <defs/>
  <g>
    <path d="M 367.55413818359375 8.794201850891113 C 179.72682189941406 104.15420532226562 306.3810729980469 -1.599290132522583 258.545166015625 221.60015869140625 C 92.09004211425781 259.59283447265625 59.92173767089844 226.68331909179688 5.786220550537109 162.87295532226562 C 5.593738555908203 -68.55152130126953 5.735930919647217 -2.527338743209839 5.706011772155762 7.9640278816223145 C 166.3992462158203 8.490630149841309 178.35604858398438 7.251074314117432 367.55413818359375 8.794201850891113" stroke-width="0.0" fill="rgb(76, 114, 112)" opacity="0.3864386" stroke="rgb(163, 184, 129)" stroke-opacity="0.5939664" stroke-linecap="round" stroke-linejoin="round"/>
    <path d="M 341.0 65.0 C 340.33013916015625 67.5 338.5 69.33012390136719 336.0 70.0 C 333.5 69.33012390136719 331.66986083984375 67.5 331.0 65.0 C 331.66986083984375 62.5 333.5 60.66987228393555 336.0 60.0 C 338.5 60.66987228393555 340.33013916015625 62.5 341.0 65.0" stroke-width="0.0" fill="rgb(139, 173, 175)" opacity="1.0" stroke="rgb(40, 157, 219)" stroke-opacity="0.9114181" stroke-linecap="round" stroke-linejoin="round"/>
    <path d="M 344.0 44.0 C 343.33013916015625 46.5 341.5 48.33012771606445 339.0 49.0 C 336.5 48.33012771606445 334.66986083984375 46.5 334.0 44.0 C 334.66986083984375 41.5 336.5 39.66987228393555 339.0 39.0 C 341.5 39.66987228393555 343.33013916015625 41.5 344.0 44.0" stroke-width="0.0" fill="rgb(139, 173, 175)" opacity="1.0" stroke="rgb(228, 242, 245)" stroke-opacity="0.17199986" stroke-linecap="round" stroke-linejoin="round"/>
  </g>
</svg>
