<?xml version="1.0" ?>
<svg xmlns="http://www.w3.org/2000/svg" version="1.1" width="508" height="512">
  <defs/>
  <g>
    <path d="M 377.8503723144531 7.978557586669922 C 149.7266387939453 87.47879028320312 319.3460693359375 16.221725463867188 272.4064636230469 231.2888946533203 C 99.61258697509766 271.5118103027344 53.62028884887695 239.16920471191406 5.791428565979004 180.85589599609375 C 5.361000061035156 -68.52876281738281 5.988256931304932 -2.5206234455108643 5.5966057777404785 8.037734985351562 C 166.47564697265625 8.005282402038574 179.02197265625 7.9614081382751465 377.8503723144531 7.978557586669922" stroke-width="0.0" fill="rgb(92, 104, 91)" opacity="0.38946623" stroke="rgb(163, 184, 129)" stroke-opacity="0.5939664" stroke-linecap="round" stroke-linejoin="round"/>
    <path d="M 462.84869384765625 83.0873031616211 C 499.7693176269531 199.5282440185547 550.9497680664062 264.2796325683594 433.0467529296875 349.9804382324219 C 90.84161376953125 347.74993896484375 134.93653869628906 239.4818572998047 306.2450866699219 80.3552474975586 C 312.0270080566406 14.396707534790039 279.3417053222656 33.6135139465332 340.8718566894531 38.74324035644531 C 388.1485595703125 59.65046691894531 295.69354248046875 111.9551010131836 462.84869384765625 83.0873031616211" stroke-width="0.0" fill="rgb(180, 180, 174)" opacity="1.0" stroke="rgb(40, 157, 219)" stroke-opacity="0.9114181" stroke-linecap="round" stroke-linejoin="round"/>
    <path d="M 502.139892578125 169.43251037597656 C 415.11865234375 103.15750885009766 400.9126892089844 22.691293716430664 370.51336669921875 82.2483901977539 C 265.3338317871094 74.66427612304688 333.48028564453125 -0.5881410837173462 210.94833374023438 78.77496337890625 C 144.93687438964844 -11.33495807647705 175.42730712890625 11.99431037902832 497.4945068359375 7.940642833709717 C 504.0030212402344 15.875465393066406 501.90155029296875 -34.823551177978516 502.139892578125 169.43251037597656" stroke-width="0.0" fill="rgb(127, 166, 170)" opacity="0.8463146" stroke="rgb(228, 242, 245)" stroke-opacity="0.17199986" stroke-linecap="round" stroke-linejoin="round"/>
    <path d="M 153.0 412.0 C 152.3301239013672 414.5 150.5 416.33013916015625 148.0 417.0 C 145.5 416.33013916015625 143.6698760986328 414.5 143.0 412.0 C 143.6698760986328 409.5 145.5 407.66986083984375 148.0 407.0 C 150.5 407.66986083984375 152.3301239013672 409.5 153.0 412.0" stroke-width="0.0" fill="rgb(41, 43, 63)" opacity="1.0" stroke="rgb(254, 73, 88)" stroke-opacity="0.34953937" stroke-linecap="round" stroke-linejoin="round"/>
    <path d="M 331.0 276.0 C 330.33013916015625 278.5 328.5 280.33013916015625 326.0 281.0 C 323.5 280.33013916015625 321.66986083984375 278.5 321.0 276.0 C 321.66986083984375 273.5 323.5 271.66986083984375 326.0 271.0 C 328.5 271.66986083984375 330.33013916015625 273.5 331.0 276.0" stroke-width="0.0" fill="rgb(254, 246, 225)" opacity="1.0" stroke="rgb(183, 104, 1)" stroke-opacity="0.74067336" stroke-linecap="round" stroke-linejoin="round"/>
    <path d="M 445.0 338.0 C 444.33013916015625 340.5 442.5 342.33013916015625 440.0 343.0 C 437.5 342.33013916015625 435.66986083984375 340.5 435.0 338.0 C 435.66986083984375 335.5 437.5 333.66986083984375 440.0 333.0 C 442.5 333.66986083984375 444.33013916015625 335.5 445.0 338.0" stroke-width="0.0" fill="rgb(253, 246, 229)" opacity="1.0" stroke="rgb(117, 218, 235)" stroke-opacity="0.27286473" stroke-linecap="round" stroke-linejoin="round"/>
    <path d="M 113.0 179.0 C 112.33012390136719 181.5 110.5 183.3301239013672 108.0 184.0 C 105.5 183.3301239013672 103.66987609863281 181.5 103.0 179.0 C 103.66987609863281 176.5 105.5 174.6698760986328 108.0 174.0 C 110.5 174.6698760986328 112.33012390136719 176.5 113.0 179.0" stroke-width="0.0" fill="rgb(254, 246, 230)" opacity="1.0" stroke="rgb(58, 196, 15)" stroke-opacity="0.109088555" stroke-linecap="round" stroke-linejoin="round"/>
  </g>
</svg>
