<?xml version="1.0" ?>
<svg xmlns="http://www.w3.org/2000/svg" version="1.1" width="512" height="352">
  <defs/>
  <g>
    <path d="M -0.1437501758337021 0.11172974109649658 L 512.001220703125 0.10915156453847885 L 512.0 352.0 L 0.01665557734668255 352.0018310546875 L -0.1437501758337021 0.11172974109649658" stroke-width="0.0" fill="rgb(267, 242, 247)" opacity="1.0597205" stroke="rgb(0, 0, 0)" stroke-opacity="0.0" stroke-linecap="round" stroke-linejoin="round"/>
    <path d="M -0.3377078175544739 0.8865801095962524 L -0.33780741691589355 352.54888916015625 L 512.5322265625 352.55072021484375 L 512.49755859375 0.8545897006988525 L -0.3377078175544739 0.8865801095962524" stroke-width="2.0" fill="rgb(197, 213, 209)" opacity="1.0982857" stroke="rgb(0, 0, 0)" stroke-opacity="0.0" stroke-linecap="round" stroke-linejoin="round"/>
    <path d="M 345.4109802246094 112.73825073242188 L 320.17047119140625 132.39254760742188 C 319.0632629394531 144.42762756347656 328.7381896972656 158.00148010253906 340.7025146484375 162.36187744140625 C 352.13116455078125 173.57333374023438 346.53582763671875 184.6639404296875 342.83123779296875 196.53860473632812 C 341.975341796875 206.6885528564453 342.2916564941406 215.81935119628906 348.0528259277344 224.77316284179688 C 348.7252197265625 235.0673065185547 350.6844787597656 246.20553588867188 344.1329040527344 256.2764892578125 C 336.1579284667969 256.2799072265625 317.48541259765625 262.1529541015625 331.054443359375 275.5632629394531 C 341.6503601074219 275.2693176269531 352.8907165527344 284.4242858886719 366.7691955566406 278.9724426269531 L 374.02886962890625 272.94110107421875 L 371.8736572265625 278.4513854980469 L 383.9968566894531 284.2221984863281 L 440.60369873046875 280.48785400390625 C 445.7359924316406 273.60125732421875 438.2820129394531 273.1754150390625 436.6261901855469 273.5167541503906 C 443.07891845703125 262.5717468261719 453.7536926269531 271.23291015625 462.623046875 262.70404052734375 C 480.6512145996094 242.72743225097656 478.1967468261719 223.74618530273438 476.3704833984375 203.9258270263672 C 469.4614562988281 183.81809997558594 446.8828430175781 163.58206176757812 455.7989196777344 145.1558380126953 C 457.9421081542969 139.9385528564453 465.5979919433594 136.16151428222656 461.7064514160156 129.63755798339844 C 449.894775390625 123.67778015136719 442.22186279296875 140.6901092529297 440.50689697265625 150.4117889404297 C 438.37371826171875 167.00694274902344 448.187744140625 183.96847534179688 459.3989562988281 198.58895874023438 C 465.6021728515625 211.92816162109375 466.6358337402344 225.44540405273438 463.4837951660156 239.8964080810547 L 453.30865478515625 253.2613067626953 L 454.209716796875 219.6200408935547 C 450.54974365234375 205.69725036621094 442.5464782714844 188.1161651611328 425.32708740234375 177.74632263183594 L 393.8564147949219 167.393310546875 C 391.77001953125 155.51596069335938 400.3270568847656 140.9588165283203 391.97479248046875 128.5723114013672 C 396.7923583984375 123.12095642089844 400.7985534667969 116.66240692138672 399.7041320800781 107.87562561035156 C 389.9829406738281 108.78510284423828 382.3087463378906 120.20147705078125 375.5719909667969 111.56205749511719 C 379.1583251953125 108.48159790039062 380.11212158203125 99.50662231445312 374.7803649902344 100.31224822998047 L 362.0684509277344 108.52526092529297 L 345.4109802246094 112.73825073242188" stroke-width="2.0" fill="rgb(170, 170, 170)" opacity="0.9584984" stroke="rgb(0, 0, 0)" stroke-opacity="0.0" stroke-linecap="round" stroke-linejoin="round"/>
    <path d="M 101.20948028564453 115.0015640258789 L 100.3915023803711 132.7816925048828 C 94.00011444091797 144.07830810546875 92.10204315185547 156.4042510986328 99.9471664428711 167.96322631835938 L 99.4155502319336 173.81517028808594 L 62.8638916015625 185.4460906982422 C 54.83824920654297 193.08807373046875 48.38618087768555 203.3538055419922 42.24771499633789 211.7113037109375 L 33.87281036376953 255.43824768066406 L 42.299591064453125 271.6276550292969 C 37.5495491027832 279.76263427734375 39.73740768432617 291.5086975097656 51.537967681884766 299.7789306640625 C 81.71247100830078 314.4308166503906 111.88725280761719 309.8744201660156 142.07794189453125 313.0140686035156 L 166.3287353515625 322.0834655761719 C 173.6073455810547 313.5312805175781 159.2716064453125 303.8994140625 152.5399932861328 301.2392272949219 C 122.9300308227539 294.7676086425781 93.42408752441406 300.6830139160156 64.05215454101562 289.7631530761719 C 60.09751892089844 287.6180725097656 49.21434020996094 283.626708984375 54.537017822265625 281.8299255371094 C 61.13358688354492 289.6571350097656 71.78275299072266 285.65679931640625 79.637451171875 289.4126892089844 L 121.1034164428711 289.17413330078125 L 125.92945861816406 277.3990478515625 L 115.86157989501953 268.6408996582031 C 121.57555389404297 266.3098449707031 119.13260650634766 250.45692443847656 124.71531677246094 256.64849853515625 C 126.44017028808594 273.85137939453125 149.5868682861328 292.3683166503906 165.97119140625 273.9225158691406 C 165.53472900390625 262.9884033203125 155.87786865234375 262.2863464355469 151.671630859375 259.56402587890625 C 140.8700714111328 241.8203582763672 149.9493408203125 224.04202270507812 150.82553100585938 205.5977020263672 C 158.32681274414062 199.94349670410156 166.1387939453125 191.9252166748047 173.97096252441406 195.58810424804688 C 178.8061981201172 187.2561492919922 186.35140991210938 181.42422485351562 179.824951171875 173.52235412597656 C 168.19052124023438 170.13803100585938 156.5445556640625 174.55104064941406 147.22137451171875 183.18524169921875 C 145.93521118164062 176.48907470703125 158.8088836669922 173.4600067138672 163.93792724609375 166.7638702392578 C 168.57916259765625 157.8480987548828 171.5330810546875 147.5812225341797 159.93170166015625 141.45358276367188 C 159.2847900390625 138.07325744628906 165.7982940673828 129.50482177734375 158.70938110351562 124.80345916748047 C 149.04531860351562 132.22406005859375 140.75753784179688 122.45166778564453 132.37152099609375 121.67036437988281 L 110.93511962890625 122.51163482666016 L 101.20948028564453 115.0015640258789" stroke-width="2.0" fill="rgb(210, 187, 155)" opacity="0.9488361" stroke="rgb(0, 0, 0)" stroke-opacity="0.0" stroke-linecap="round" stroke-linejoin="round"/>
    <path d="M 117.62168884277344 292.21197509765625 L 149.372314453125 293.5998840332031 L 159.31138610839844 300.548095703125 L 277.71453857421875 303.6232604980469 L 290.8084411621094 296.3414611816406 L 447.80633544921875 293.411376953125 C 455.4748840332031 292.5614013671875 468.02691650390625 282.7287292480469 458.12103271484375 273.23779296875 C 451.53839111328125 272.16644287109375 445.7374267578125 267.9431457519531 439.12451171875 271.0449523925781 C 442.1192321777344 274.8732604980469 443.8526611328125 277.74383544921875 437.66961669921875 279.315673828125 L 385.89227294921875 285.0918884277344 L 378.9828796386719 283.66552734375 L 370.1112060546875 276.1225280761719 L 355.864501953125 280.0541076660156 L 333.136474609375 274.5841064453125 C 319.7341613769531 269.73699951171875 327.8537902832031 258.58111572265625 338.1068420410156 253.54820251464844 L 285.2427062988281 251.69232177734375 L 283.55859375 250.59510803222656 L 293.8419189453125 245.48179626464844 L 308.8655090332031 242.52171325683594 L 296.4626770019531 238.01463317871094 L 269.3922119140625 237.9878387451172 L 266.1978454589844 260.03863525390625 C 274.3386535644531 260.8368225097656 288.27142333984375 264.4933166503906 289.1200256347656 274.7295227050781 C 281.9900817871094 282.11871337890625 273.99951171875 279.1683654785156 266.3126525878906 279.3890075683594 L 253.82272338867188 273.6319274902344 C 234.50852966308594 279.26556396484375 216.18118286132812 278.0926818847656 197.8065643310547 273.6033020019531 C 189.2360382080078 270.31298828125 193.4755096435547 265.6171875 200.0563201904297 261.4189758300781 L 227.2490692138672 255.48583984375 L 251.33738708496094 258.54620361328125 L 254.4145050048828 240.73789978027344 L 208.32260131835938 241.84432983398438 C 201.77516174316406 248.5015106201172 198.07815551757812 259.7456359863281 190.36778259277344 256.4171142578125 C 190.19602966308594 253.4903106689453 190.58041381835938 244.5955047607422 185.3225555419922 243.09579467773438 L 169.72760009765625 247.3749237060547 L 175.76197814941406 256.4668273925781 L 156.01580810546875 259.277587890625 C 159.3158416748047 263.8746032714844 167.5933837890625 268.934326171875 164.6598663330078 272.7078552246094 C 155.517333984375 284.0596008300781 146.73863220214844 279.69171142578125 138.08792114257812 277.5533142089844 L 129.33522033691406 269.8697204589844 C 129.37542724609375 267.6267395019531 125.24625396728516 255.64248657226562 118.77271270751953 263.1617126464844 C 115.72795104980469 270.61029052734375 125.91532897949219 276.69805908203125 125.25428771972656 280.798583984375 L 117.62168884277344 292.21197509765625" stroke-width="2.0" fill="rgb(181, 198, 193)" opacity="0.9391501" stroke="rgb(0, 0, 0)" stroke-opacity="0.0" stroke-linecap="round" stroke-linejoin="round"/>
    <path d="M 259.8139953613281 147.02774047851562 C 249.1200408935547 158.07752990722656 240.51419067382812 156.75210571289062 233.8994903564453 156.94268798828125 C 229.5572052001953 151.94821166992188 231.63931274414062 145.80992126464844 222.59024047851562 139.14410400390625 L 204.88490295410156 132.48031616210938 L 202.5497589111328 141.2616424560547 L 184.3386993408203 143.74908447265625 L 185.42819213867188 152.28550720214844 L 170.12579345703125 157.57858276367188 L 175.71414184570312 164.7166748046875 L 170.21189880371094 172.57823181152344 L 182.76998901367188 177.12269592285156 C 182.59446716308594 180.4122314453125 182.7313690185547 185.5042724609375 176.0039520263672 190.20602416992188 C 173.63751220703125 214.267578125 189.37710571289062 235.90310668945312 192.65139770507812 258.9512023925781 L 199.88320922851562 254.09619140625 L 229.10189819335938 210.98707580566406 C 234.3187713623047 201.49061584472656 235.26182556152344 185.6840057373047 249.5513916015625 180.54202270507812 C 247.74371337890625 174.5091552734375 255.50131225585938 166.62100219726562 261.59417724609375 164.33604431152344 L 259.8139953613281 147.02774047851562" stroke-width="2.0" fill="rgb(95, 121, 100)" opacity="1.0013753" stroke="rgb(0, 0, 0)" stroke-opacity="0.0" stroke-linecap="round" stroke-linejoin="round"/>
    <path d="M 352.9696044921875 45.61848449707031 L 332.7552490234375 44.997589111328125 C 332.23681640625 38.226688385009766 328.23638916015625 30.22273063659668 319.4703063964844 28.840261459350586 L 312.6686096191406 44.21989822387695 L 301.56072998046875 33.0794563293457 L 298.5622253417969 54.22465133666992 C 291.32891845703125 48.91318130493164 284.0298767089844 48.164485931396484 275.9463806152344 54.31227493286133 L 275.85546875 60.99800491333008 L 268.343017578125 56.289024353027344 L 268.064208984375 70.98722076416016 L 257.37969970703125 79.1826400756836 L 271.2314147949219 89.68248748779297 L 257.9214782714844 93.40866088867188 L 269.2762451171875 103.79093933105469 L 264.8348693847656 121.91266632080078 L 318.8560791015625 98.09788513183594 L 327.9994201660156 87.72561645507812 L 343.7544250488281 53.96052551269531 L 352.9696044921875 45.61848449707031" stroke-width="2.0" fill="rgb(112, 96, 77)" opacity="1.1529497" stroke="rgb(0, 0, 0)" stroke-opacity="0.0" stroke-linecap="round" stroke-linejoin="round"/>
    <path d="M 115.83386993408203 226.16317749023438 C 97.83065795898438 212.79222106933594 77.67576599121094 213.05909729003906 61.978309631347656 231.8316192626953 C 60.43284225463867 237.3839569091797 62.95855712890625 245.63873291015625 54.830810546875 247.98985290527344 C 47.65081024169922 257.7114562988281 47.28118133544922 271.7445983886719 60.59492492675781 278.4370422363281 C 79.90953063964844 281.5646667480469 103.88671875 285.8705749511719 120.14524841308594 264.82940673828125 C 124.7527847290039 252.31895446777344 125.63380432128906 239.7698974609375 115.83386993408203 226.16317749023438" stroke-width="2.0" fill="rgb(205, 182, 153)" opacity="1.2010652" stroke="rgb(0, 0, 0)" stroke-opacity="0.0" stroke-linecap="round" stroke-linejoin="round"/>
    <path d="M 377.92962646484375 223.41371154785156 C 365.4990234375 242.6042938232422 377.4810791015625 272.7013244628906 401.26776123046875 275.0630798339844 L 435.2297058105469 272.32666015625 C 448.5733337402344 261.29534912109375 447.5510559082031 246.794677734375 433.2011413574219 239.85287475585938 L 428.8580627441406 223.7170867919922 C 412.7210388183594 207.45547485351562 396.0140075683594 206.69439697265625 377.92962646484375 223.41371154785156" stroke-width="2.0" fill="rgb(163, 163, 162)" opacity="0.99300987" stroke="rgb(0, 0, 0)" stroke-opacity="0.0" stroke-linecap="round" stroke-linejoin="round"/>
    <path d="M 258.58599853515625 206.78854370117188 C 258.0654296875 216.9586181640625 258.65191650390625 223.56234741210938 267.1156005859375 231.84298706054688 C 276.1891174316406 226.33799743652344 285.0892333984375 233.2735137939453 295.4617004394531 236.80628967285156 L 299.6221618652344 234.63832092285156 L 318.82049560546875 242.81320190429688 L 329.0325927734375 240.5616455078125 L 320.8101501464844 223.28903198242188 L 317.6465148925781 206.3494110107422 C 308.8970642089844 199.28131103515625 311.0167541503906 189.58567810058594 300.35113525390625 183.81390380859375 L 284.35064697265625 181.00604248046875 L 276.6081237792969 195.90325927734375 C 270.0985107421875 199.6597900390625 263.94097900390625 198.41738891601562 258.58599853515625 206.78854370117188" stroke-width="2.0" fill="rgb(99, 130, 130)" opacity="0.9886461" stroke="rgb(0, 0, 0)" stroke-opacity="0.0" stroke-linecap="round" stroke-linejoin="round"/>
    <path d="M 458.92889404296875 127.8482894897461 C 453.63934326171875 126.83622741699219 447.46881103515625 133.45553588867188 444.24725341796875 139.2158660888672 C 438.9260559082031 150.7849578857422 440.0390319824219 162.76541137695312 444.3802795410156 174.61790466308594 L 462.9920349121094 204.98216247558594 C 466.83642578125 222.4291229248047 468.9811096191406 244.94683837890625 445.8836975097656 256.8300476074219 L 442.0428771972656 268.1448974609375 C 452.50537109375 269.7976379394531 463.9026184082031 263.9461364746094 471.71417236328125 252.6187744140625 C 481.04864501953125 235.02853393554688 480.3841857910156 216.08212280273438 474.3820495605469 197.86558532714844 C 465.26202392578125 180.47544860839844 448.4477844238281 163.16355895996094 454.459228515625 146.09547424316406 C 454.57684326171875 139.96424865722656 469.343017578125 133.81182861328125 458.92889404296875 127.8482894897461" stroke-width="2.0" fill="rgb(154, 154, 154)" opacity="1.2103314" stroke="rgb(0, 0, 0)" stroke-opacity="0.0" stroke-linecap="round" stroke-linejoin="round"/>
    <path d="M 174.59024047851562 194.80101013183594 C 165.48013305664062 191.51815795898438 155.4408721923828 198.4467315673828 149.81527709960938 205.64434814453125 C 150.51708984375 223.28790283203125 139.89500427246094 240.6629180908203 150.94554138183594 259.05389404296875 L 177.38595581054688 256.8547058105469 L 168.52891540527344 248.39669799804688 L 187.35406494140625 242.584228515625 L 177.71615600585938 214.7281951904297 L 174.59024047851562 194.80101013183594" stroke-width="2.0" fill="rgb(201, 216, 214)" opacity="0.8848955" stroke="rgb(0, 0, 0)" stroke-opacity="0.0" stroke-linecap="round" stroke-linejoin="round"/>
    <path d="M 41.106292724609375 274.03741455078125 C 39.888031005859375 280.3731994628906 39.65878677368164 285.6718444824219 42.74677276611328 291.4342956542969 C 57.2008171081543 307.09332275390625 71.77713012695312 306.46258544921875 86.3233642578125 310.0974426269531 C 108.93852996826172 312.3492126464844 130.74740600585938 310.0248107910156 153.05564880371094 315.84173583984375 C 158.38893127441406 320.45880126953125 165.44180297851562 327.6191711425781 170.45498657226562 318.6492919921875 C 169.41539001464844 310.20672607421875 162.26165771484375 305.09051513671875 155.6247100830078 302.32342529296875 C 123.44303131103516 294.23492431640625 91.79069519042969 302.2853698730469 60.34259796142578 287.7293395996094 L 47.58738327026367 269.7678527832031 L 41.106292724609375 274.03741455078125" stroke-width="2.0" fill="rgb(183, 165, 143)" opacity="1.0602725" stroke="rgb(0, 0, 0)" stroke-opacity="0.0" stroke-linecap="round" stroke-linejoin="round"/>
    <path d="M 193.72091674804688 266.69476318359375 L 197.2778778076172 275.578125 C 216.8616943359375 278.5940246582031 236.03131103515625 278.4597473144531 255.2054443359375 274.0489196777344 C 262.7464599609375 281.7898864746094 270.9000549316406 277.9268493652344 279.332763671875 278.7713928222656 C 283.6484069824219 277.9464416503906 291.97296142578125 275.3937072753906 288.0926208496094 268.2725830078125 C 277.0272216796875 258.10467529296875 266.36700439453125 261.3710021972656 257.4018249511719 266.3206481933594 C 241.4606475830078 250.82472229003906 224.60086059570312 255.09243774414062 207.66751098632812 258.3201904296875 L 193.72091674804688 266.69476318359375" stroke-width="2.0" fill="rgb(166, 174, 170)" opacity="1.0915638" stroke="rgb(0, 0, 0)" stroke-opacity="0.0" stroke-linecap="round" stroke-linejoin="round"/>
    <path d="M 193.4742431640625 271.21026611328125 C 205.5226287841797 278.5398254394531 217.1351318359375 277.3696594238281 228.964599609375 277.8779602050781 L 253.15415954589844 274.96429443359375 L 255.27536010742188 266.99896240234375 C 236.42723083496094 248.49530029296875 216.51405334472656 254.34432983398438 195.91177368164062 262.6529235839844 L 193.4742431640625 271.21026611328125" stroke-width="2.0" fill="rgb(191, 192, 191)" opacity="1.0733304" stroke="rgb(0, 0, 0)" stroke-opacity="0.0" stroke-linecap="round" stroke-linejoin="round"/>
    <path d="M 254.1386260986328 166.80435180664062 L 248.5063934326172 177.8122100830078 C 257.98724365234375 206.4636993408203 257.7552185058594 234.5377197265625 253.24864196777344 263.44671630859375 C 256.52166748046875 270.0249328613281 262.1783752441406 266.75970458984375 266.4007873535156 263.6012268066406 L 267.5804138183594 229.10699462890625 C 259.7264709472656 221.80557250976562 259.4830627441406 214.62841796875 260.46148681640625 209.38453674316406 L 264.403564453125 198.7949981689453 L 254.1386260986328 166.80435180664062" stroke-width="2.0" fill="rgb(48, 61, 39)" opacity="1.0161178" stroke="rgb(0, 0, 0)" stroke-opacity="0.0" stroke-linecap="round" stroke-linejoin="round"/>
    <path d="M 275.1489562988281 52.78108596801758 L 259.84271240234375 52.940704345703125 L 265.3180847167969 57.36909866333008 L 251.1045379638672 64.13174438476562 L 259.78912353515625 66.14946746826172 C 237.7174530029297 81.3720932006836 234.90370178222656 100.40583038330078 236.366455078125 116.49449157714844 L 243.1721649169922 153.07408142089844 C 243.21109008789062 158.6810302734375 247.3059844970703 157.65652465820312 250.43104553222656 155.51361083984375 C 247.90335083007812 127.76460266113281 228.72329711914062 100.70243072509766 256.3285827636719 73.2243881225586 L 268.9805603027344 74.2587890625 C 270.2878723144531 67.44890594482422 266.9696350097656 60.95918273925781 274.2506408691406 56.81121063232422 C 278.041748046875 61.65222930908203 279.4541015625 59.41305923461914 275.1489562988281 52.78108596801758" stroke-width="2.0" fill="rgb(53, 64, 42)" opacity="1.0233598" stroke="rgb(0, 0, 0)" stroke-opacity="0.0" stroke-linecap="round" stroke-linejoin="round"/>
    <path d="M 182.90296936035156 176.59036254882812 C 169.13478088378906 167.92405700683594 156.9254913330078 174.6135711669922 144.90628051757812 183.55870056152344 L 150.2567901611328 203.9544677734375 L 167.78103637695312 195.24659729003906 C 175.23330688476562 198.7114715576172 184.56480407714844 185.45260620117188 182.90296936035156 176.59036254882812" stroke-width="2.0" fill="rgb(192, 167, 141)" opacity="0.9490517" stroke="rgb(0, 0, 0)" stroke-opacity="0.0" stroke-linecap="round" stroke-linejoin="round"/>
    <path d="M 318.55029296875 277.4762878417969 C 308.8442687988281 269.9615783691406 300.4571533203125 276.54510498046875 291.83538818359375 278.13201904296875 L 298.1929931640625 271.0393981933594 L 289.3189392089844 268.9254150390625 L 288.2178955078125 274.1451110839844 C 279.9151611328125 280.5141296386719 271.4944152832031 277.05712890625 263.7179870605469 277.7694396972656 C 255.8520050048828 273.2951354980469 247.88082885742188 274.6560363769531 240.03985595703125 277.9460144042969 L 214.08352661132812 278.2306823730469 L 210.9879913330078 282.6484069824219 L 301.9577331542969 283.30712890625 L 318.55029296875 277.4762878417969" stroke-width="2.0" fill="rgb(117, 150, 154)" opacity="1.0336361" stroke="rgb(0, 0, 0)" stroke-opacity="0.0" stroke-linecap="round" stroke-linejoin="round"/>
    <path d="M 331.40740966796875 67.53477478027344 L 321.5285949707031 72.44468688964844 L 292.9259338378906 100.91987609863281 C 296.56109619140625 111.6958999633789 307.5079650878906 104.1761703491211 314.675048828125 102.82909393310547 C 325.8282470703125 93.56121063232422 335.977783203125 81.30809783935547 331.40740966796875 67.53477478027344" stroke-width="2.0" fill="rgb(214, 199, 172)" opacity="1.0736921" stroke="rgb(0, 0, 0)" stroke-opacity="0.0" stroke-linecap="round" stroke-linejoin="round"/>
    <path d="M 371.6876525878906 274.37933349609375 C 369.98077392578125 281.1971435546875 378.7218933105469 285.4674987792969 383.3182373046875 286.2593078613281 C 404.1447448730469 285.9325866699219 423.4238586425781 285.4642333984375 442.9764404296875 280.0307312011719 L 436.7920227050781 271.1275939941406 C 418.9054870605469 273.101806640625 402.5382080078125 278.4082336425781 386.00933837890625 266.1501770019531 C 381.10162353515625 266.7302551269531 377.26348876953125 267.7486572265625 371.6876525878906 274.37933349609375" stroke-width="2.0" fill="rgb(150, 152, 152)" opacity="1.2477076" stroke="rgb(0, 0, 0)" stroke-opacity="0.0" stroke-linecap="round" stroke-linejoin="round"/>
    <path d="M 348.6431884765625 223.61341857910156 C 349.0666809082031 234.6693878173828 350.004638671875 245.48194885253906 345.3932189941406 255.6605224609375 L 326.61138916015625 262.55938720703125 C 324.234619140625 268.08502197265625 327.468505859375 271.41583251953125 331.0794677734375 275.7890930175781 L 344.6085205078125 277.0690002441406 C 337.624755859375 269.02239990234375 351.4392395019531 262.7264404296875 356.9068603515625 261.8780822753906 C 361.13201904296875 253.81768798828125 363.6595153808594 246.22207641601562 362.4539794921875 239.04135131835938 L 348.6431884765625 223.61341857910156" stroke-width="2.0" fill="rgb(119, 119, 119)" opacity="0.9766088" stroke="rgb(0, 0, 0)" stroke-opacity="0.0" stroke-linecap="round" stroke-linejoin="round"/>
    <path d="M 259.6197204589844 147.09738159179688 C 249.22166442871094 158.84768676757812 240.83778381347656 159.35989379882812 231.83021545410156 159.68276977539062 L 232.91830444335938 182.93641662597656 C 240.45545959472656 182.59359741210938 251.525390625 180.79949951171875 250.468994140625 172.1494903564453 L 261.6765441894531 166.44122314453125 L 259.6197204589844 147.09738159179688" stroke-width="2.0" fill="rgb(106, 133, 113)" opacity="1.1170923" stroke="rgb(0, 0, 0)" stroke-opacity="0.0" stroke-linecap="round" stroke-linejoin="round"/>
    <path d="M 126.89521026611328 283.060546875 L 116.09478759765625 270.1322326660156 L 95.95372009277344 279.07366943359375 L 56.09456253051758 279.41363525390625 L 64.38831329345703 287.5697326660156 L 119.15699768066406 290.6058654785156 L 126.89521026611328 283.060546875" stroke-width="2.0" fill="rgb(180, 158, 136)" opacity="1.0982326" stroke="rgb(0, 0, 0)" stroke-opacity="0.0" stroke-linecap="round" stroke-linejoin="round"/>
    <path d="M 278.167724609375 51.12810516357422 C 278.86480712890625 66.2542724609375 296.376220703125 72.3002700805664 307.6410217285156 80.8578872680664 L 313.3924560546875 77.60442352294922 L 294.191650390625 50.97458267211914 L 278.167724609375 51.12810516357422" stroke-width="2.0" fill="rgb(202, 95, 61)" opacity="0.99031323" stroke="rgb(0, 0, 0)" stroke-opacity="0.0" stroke-linecap="round" stroke-linejoin="round"/>
    <path d="M 321.26849365234375 28.488130569458008 L 313.9576416015625 39.114776611328125 L 320.83502197265625 71.33140563964844 C 330.26995849609375 66.16242218017578 327.1189270019531 53.574012756347656 331.3287048339844 45.07271957397461 C 331.437255859375 39.81714630126953 328.7280578613281 33.65567398071289 321.26849365234375 28.488130569458008" stroke-width="2.0" fill="rgb(202, 95, 61)" opacity="1.0154508" stroke="rgb(0, 0, 0)" stroke-opacity="0.0" stroke-linecap="round" stroke-linejoin="round"/>
    <path d="M 256.1077880859375 81.46331787109375 L 296.9907531738281 89.60369110107422 L 304.80450439453125 86.17898559570312 C 290.76348876953125 75.85832214355469 272.9149169921875 68.56249237060547 256.1077880859375 81.46331787109375" stroke-width="2.0" fill="rgb(194, 98, 67)" opacity="1.1010134" stroke="rgb(0, 0, 0)" stroke-opacity="0.0" stroke-linecap="round" stroke-linejoin="round"/>
    <path d="M 332.9891662597656 139.31370544433594 L 333.69219970703125 142.51661682128906 L 367.718505859375 159.6373291015625 C 369.0115661621094 155.5587615966797 371.8462219238281 155.0189666748047 375.0635986328125 157.19349670410156 L 380.0920715332031 153.0610809326172 L 379.0819091796875 147.8958740234375 C 371.645751953125 149.6348876953125 364.32012939453125 141.79991149902344 357.0059509277344 140.3217315673828 L 332.9891662597656 139.31370544433594" stroke-width="2.0" fill="rgb(175, 175, 175)" opacity="1.0017719" stroke="rgb(0, 0, 0)" stroke-opacity="0.0" stroke-linecap="round" stroke-linejoin="round"/>
    <path d="M 254.3873291015625 270.7794189453125 C 253.19924926757812 276.675048828125 260.5959777832031 276.4352722167969 264.0327453613281 277.0048522949219 C 271.94708251953125 276.3509216308594 279.7934265136719 279.12091064453125 288.207275390625 273.31304931640625 C 287.95245361328125 262.3074951171875 273.8993835449219 261.0596008300781 266.8193664550781 262.2781677246094 L 254.3873291015625 270.7794189453125" stroke-width="2.0" fill="rgb(193, 193, 193)" opacity="1.0379374" stroke="rgb(0, 0, 0)" stroke-opacity="0.0" stroke-linecap="round" stroke-linejoin="round"/>
    <path d="M 302.2944030761719 32.753055572509766 L 300.5863037109375 55.220550537109375 L 314.9306945800781 75.56587982177734 L 318.4822998046875 70.29147338867188 C 312.6763610839844 58.06037902832031 315.8250732421875 43.0396842956543 302.2944030761719 32.753055572509766" stroke-width="2.0" fill="rgb(201, 96, 63)" opacity="0.9955203" stroke="rgb(0, 0, 0)" stroke-opacity="0.0" stroke-linecap="round" stroke-linejoin="round"/>
    <path d="M 146.8243865966797 127.48527526855469 C 131.4136962890625 120.5010757446289 115.95126342773438 115.19579315185547 100.74909210205078 133.13963317871094 L 97.09435272216797 143.3421173095703 C 103.62680053710938 136.52081298828125 109.69813537597656 128.97105407714844 114.50735473632812 128.84130859375 L 108.16118621826172 136.34474182128906 L 104.41140747070312 146.61878967285156 L 124.04034423828125 128.43275451660156 L 120.72865295410156 139.75144958496094 C 127.58660125732422 128.66896057128906 137.91603088378906 126.11334228515625 146.8243865966797 127.48527526855469" stroke-width="2.0" fill="rgb(151, 94, 79)" opacity="1.0176517" stroke="rgb(0, 0, 0)" stroke-opacity="0.0" stroke-linecap="round" stroke-linejoin="round"/>
    <path d="M 258.37896728515625 94.66854858398438 C 269.31060791015625 108.23041534423828 281.0776062011719 97.96837615966797 293.4080505371094 99.44540405273438 L 297.1291198730469 93.8567886352539 C 284.1098327636719 85.3293685913086 271.71875 88.23171997070312 258.37896728515625 94.66854858398438" stroke-width="2.0" fill="rgb(192, 95, 63)" opacity="1.0577126" stroke="rgb(0, 0, 0)" stroke-opacity="0.0" stroke-linecap="round" stroke-linejoin="round"/>
    <path d="M 160.9850616455078 126.9909896850586 C 154.7910614013672 123.08381652832031 149.86671447753906 129.81787109375 145.45277404785156 131.45101928710938 L 134.6724395751953 142.26292419433594 L 150.9112091064453 148.3066864013672 C 158.66436767578125 141.617431640625 159.2615966796875 135.24066162109375 160.9850616455078 126.9909896850586" stroke-width="2.0" fill="rgb(212, 192, 165)" opacity="1.1217057" stroke="rgb(0, 0, 0)" stroke-opacity="0.0" stroke-linecap="round" stroke-linejoin="round"/>
    <path d="M 354.7172546386719 44.62812423706055 L 335.3371276855469 43.39777374267578 L 327.71356201171875 67.4399185180664 L 334.1637268066406 71.8389663696289 L 345.268310546875 50.96393585205078 L 354.7172546386719 44.62812423706055" stroke-width="2.0" fill="rgb(174, 93, 61)" opacity="1.1105592" stroke="rgb(0, 0, 0)" stroke-opacity="0.0" stroke-linecap="round" stroke-linejoin="round"/>
    <path d="M 292.3822326660156 101.31188201904297 C 283.5941467285156 104.05221557617188 272.4310607910156 99.27713012695312 265.3661193847656 109.7021713256836 L 263.10858154296875 123.3617935180664 L 292.59332275390625 108.61351776123047 L 292.3822326660156 101.31188201904297" stroke-width="2.0" fill="rgb(168, 92, 62)" opacity="1.0842186" stroke="rgb(0, 0, 0)" stroke-opacity="0.0" stroke-linecap="round" stroke-linejoin="round"/>
    <path d="M 256.4547424316406 276.59332275390625 L 252.3022003173828 273.790771484375 L 213.51905822753906 276.55303955078125 L 210.62527465820312 284.0430908203125 L 255.70407104492188 285.809814453125 L 256.4547424316406 276.59332275390625" stroke-width="2.0" fill="rgb(114, 145, 150)" opacity="0.78412116" stroke="rgb(0, 0, 0)" stroke-opacity="0.0" stroke-linecap="round" stroke-linejoin="round"/>
    <path d="M 53.132938385009766 197.4961700439453 C 60.980918884277344 212.25985717773438 75.9605712890625 209.1713409423828 86.37185668945312 204.490478515625 L 66.80338287353516 197.9988555908203 L 62.032615661621094 188.48056030273438 L 53.132938385009766 197.4961700439453" stroke-width="2.0" fill="rgb(168, 112, 96)" opacity="1.013111" stroke="rgb(0, 0, 0)" stroke-opacity="0.0" stroke-linecap="round" stroke-linejoin="round"/>
    <path d="M 149.61233520507812 303.1059875488281 L 145.98953247070312 310.9169921875 C 151.53424072265625 312.01336669921875 158.4239044189453 314.7185363769531 159.66505432128906 323.1300354003906 C 169.07977294921875 326.4012756347656 172.26048278808594 313.90008544921875 165.6641845703125 308.61492919921875 L 149.61233520507812 303.1059875488281" stroke-width="2.0" fill="rgb(205, 182, 153)" opacity="1.1344236" stroke="rgb(0, 0, 0)" stroke-opacity="0.0" stroke-linecap="round" stroke-linejoin="round"/>
    <path d="M 65.31344604492188 185.18951416015625 L 80.60273742675781 196.01580810546875 L 100.73945617675781 197.25204467773438 C 94.2249755859375 191.67535400390625 81.02156066894531 190.22500610351562 79.83789825439453 179.25054931640625 L 65.31344604492188 185.18951416015625" stroke-width="2.0" fill="rgb(169, 117, 102)" opacity="1.0194561" stroke="rgb(0, 0, 0)" stroke-opacity="0.0" stroke-linecap="round" stroke-linejoin="round"/>
    <path d="M 399.3747863769531 108.09525299072266 L 379.7078552246094 116.19868469238281 C 386.21533203125 119.5345458984375 379.5770568847656 125.6171646118164 385.23828125 130.9610137939453 C 393.65863037109375 129.37234497070312 400.97064208984375 117.71929168701172 399.3747863769531 108.09525299072266" stroke-width="2.0" fill="rgb(128, 136, 130)" opacity="1.0501198" stroke="rgb(0, 0, 0)" stroke-opacity="0.0" stroke-linecap="round" stroke-linejoin="round"/>
    <path d="M 269.4034423828125 59.28498840332031 L 271.08251953125 71.67625427246094 C 283.521240234375 70.43621826171875 294.75762939453125 78.27422332763672 306.4503173828125 82.57272338867188 L 269.4034423828125 59.28498840332031" stroke-width="2.0" fill="rgb(206, 102, 69)" opacity="0.99722916" stroke="rgb(0, 0, 0)" stroke-opacity="0.0" stroke-linecap="round" stroke-linejoin="round"/>
    <path d="M 249.27774047851562 64.92330932617188 L 269.60888671875 65.33968353271484 C 269.6070861816406 62.576114654541016 267.4253845214844 57.411041259765625 269.6787414550781 59.50078582763672 L 282.02935791015625 66.78038024902344 L 277.7950439453125 52.73279571533203 C 270.77032470703125 53.234771728515625 264.90185546875 53.41119384765625 257.1845703125 49.39278030395508 L 265.3708190917969 57.65105056762695 L 249.27774047851562 64.92330932617188" stroke-width="2.0" fill="rgb(52, 63, 41)" opacity="1.0854663" stroke="rgb(0, 0, 0)" stroke-opacity="0.0" stroke-linecap="round" stroke-linejoin="round"/>
    <path d="M 190.07821655273438 256.9970703125 L 187.76353454589844 243.55007934570312 L 168.52772521972656 247.95094299316406 C 171.9136199951172 254.20608520507812 182.6591033935547 257.1281433105469 190.07821655273438 256.9970703125" stroke-width="2.0" fill="rgb(181, 198, 193)" opacity="1.03499" stroke="rgb(0, 0, 0)" stroke-opacity="0.0" stroke-linecap="round" stroke-linejoin="round"/>
    <path d="M 428.1261291503906 184.0410614013672 L 420.0373229980469 179.83840942382812 L 404.2464904785156 196.34446716308594 C 413.644287109375 194.01666259765625 419.65643310546875 193.74693298339844 428.1261291503906 184.0410614013672" stroke-width="2.0" fill="rgb(121, 120, 120)" opacity="1.0036328" stroke="rgb(0, 0, 0)" stroke-opacity="0.0" stroke-linecap="round" stroke-linejoin="round"/>
    <path d="M 100.57384490966797 112.55282592773438 C 94.6479721069336 119.5138168334961 98.19806671142578 126.52538299560547 99.78231811523438 132.35377502441406 L 111.89875793457031 120.62405395507812 L 100.57384490966797 112.55282592773438" stroke-width="2.0" fill="rgb(185, 170, 154)" opacity="1.2407947" stroke="rgb(0, 0, 0)" stroke-opacity="0.0" stroke-linecap="round" stroke-linejoin="round"/>
    <path d="M 405.7368469238281 172.59437561035156 L 395.4887390136719 170.66294860839844 C 398.9765930175781 178.42889404296875 396.29864501953125 186.9933624267578 388.6147155761719 191.71353149414062 C 396.1257629394531 192.77784729003906 407.46954345703125 182.1253662109375 405.7368469238281 172.59437561035156" stroke-width="2.0" fill="rgb(111, 110, 110)" opacity="1.0041837" stroke="rgb(0, 0, 0)" stroke-opacity="0.0" stroke-linecap="round" stroke-linejoin="round"/>
    <path d="M 398.0811462402344 112.32071685791016 L 380.896240234375 121.62884521484375 L 384.4605407714844 131.27676391601562 C 392.07965087890625 125.74900817871094 397.49017333984375 118.6295394897461 398.0811462402344 112.32071685791016" stroke-width="2.0" fill="rgb(203, 187, 201)" opacity="1.0343193" stroke="rgb(0, 0, 0)" stroke-opacity="0.0" stroke-linecap="round" stroke-linejoin="round"/>
    <path d="M 442.4866943359375 195.51171875 L 435.43927001953125 191.2554168701172 L 419.7196350097656 201.34715270996094 C 426.196533203125 200.74005126953125 436.0555114746094 203.2091522216797 442.4866943359375 195.51171875" stroke-width="2.0" fill="rgb(125, 124, 124)" opacity="1.0000852" stroke="rgb(0, 0, 0)" stroke-opacity="0.0" stroke-linecap="round" stroke-linejoin="round"/>
    <path d="M 460.51690673828125 127.74215698242188 C 456.8886413574219 127.22473907470703 451.1058044433594 131.13890075683594 448.7476806640625 135.6337432861328 L 457.3905029296875 140.11898803710938 C 461.5247497558594 137.49256896972656 466.557373046875 133.2152862548828 460.51690673828125 127.74215698242188" stroke-width="2.0" fill="rgb(225, 225, 225)" opacity="1.1088884" stroke="rgb(0, 0, 0)" stroke-opacity="0.0" stroke-linecap="round" stroke-linejoin="round"/>
    <path d="M 122.9999771118164 242.55917358398438 C 114.47466278076172 247.4064178466797 107.78793334960938 250.0684356689453 100.72921752929688 249.42001342773438 C 107.3448257446289 253.3358612060547 114.197998046875 255.29603576660156 123.112060546875 253.39932250976562 L 122.9999771118164 242.55917358398438" stroke-width="2.0" fill="rgb(142, 89, 78)" opacity="1.0201142" stroke="rgb(0, 0, 0)" stroke-opacity="0.0" stroke-linecap="round" stroke-linejoin="round"/>
    <path d="M 347.2840881347656 136.107666015625 L 375.14996337890625 133.810791015625 L 364.9540100097656 132.83392333984375 L 354.41925048828125 128.34881591796875 L 347.2840881347656 136.107666015625" stroke-width="2.0" fill="rgb(145, 145, 144)" opacity="1.0079001" stroke="rgb(0, 0, 0)" stroke-opacity="0.0" stroke-linecap="round" stroke-linejoin="round"/>
    <path d="M 200.59080505371094 277.7767028808594 L 192.1932373046875 269.4345397949219 L 172.70269775390625 274.5029602050781 L 200.59080505371094 277.7767028808594" stroke-width="2.0" fill="rgb(106, 144, 150)" opacity="1.0038315" stroke="rgb(0, 0, 0)" stroke-opacity="0.0" stroke-linecap="round" stroke-linejoin="round"/>
    <path d="M 379.1750183105469 98.40777587890625 L 363.688232421875 108.35472106933594 C 369.35931396484375 108.96991729736328 378.1206970214844 115.88003540039062 380.6553649902344 107.04280853271484 L 379.1750183105469 98.40777587890625" stroke-width="2.0" fill="rgb(159, 162, 161)" opacity="1.2276335" stroke="rgb(0, 0, 0)" stroke-opacity="0.0" stroke-linecap="round" stroke-linejoin="round"/>
    <path d="M 42.36367416381836 215.93463134765625 C 48.54283905029297 224.43386840820312 57.477996826171875 221.14617919921875 64.05756378173828 217.98504638671875 C 58.04983139038086 216.40455627441406 52.79298400878906 216.21749877929688 46.50335693359375 208.4912567138672 L 42.36367416381836 215.93463134765625" stroke-width="2.0" fill="rgb(163, 113, 98)" opacity="1.0089343" stroke="rgb(0, 0, 0)" stroke-opacity="0.0" stroke-linecap="round" stroke-linejoin="round"/>
    <path d="M 98.24217987060547 175.88119506835938 C 92.14696502685547 178.6053009033203 79.43112182617188 175.12921142578125 81.81372833251953 184.53883361816406 C 87.35494995117188 189.8114471435547 94.72010803222656 182.2515106201172 98.24217987060547 175.88119506835938" stroke-width="2.0" fill="rgb(211, 194, 172)" opacity="1.1215341" stroke="rgb(0, 0, 0)" stroke-opacity="0.0" stroke-linecap="round" stroke-linejoin="round"/>
    <path d="M 444.01885986328125 161.43313598632812 C 441.814697265625 166.4013671875 448.1900939941406 177.02099609375 454.07415771484375 168.41725158691406 L 451.9324035644531 161.36131286621094 L 444.01885986328125 161.43313598632812" stroke-width="2.0" fill="rgb(177, 177, 178)" opacity="1.0121354" stroke="rgb(0, 0, 0)" stroke-opacity="0.0" stroke-linecap="round" stroke-linejoin="round"/>
    <path d="M 111.67864227294922 222.11305236816406 C 109.68817901611328 228.61341857910156 109.50946044921875 233.39089965820312 104.85230255126953 239.78515625 L 119.18395233154297 233.80551147460938 L 111.67864227294922 222.11305236816406" stroke-width="2.0" fill="rgb(142, 88, 77)" opacity="1.0102817" stroke="rgb(0, 0, 0)" stroke-opacity="0.0" stroke-linecap="round" stroke-linejoin="round"/>
    <path d="M 372.63214111328125 245.5538330078125 C 378.030029296875 250.616455078125 386.3243408203125 246.20782470703125 391.977294921875 240.7544708251953 L 373.7314147949219 240.0711212158203 L 372.63214111328125 245.5538330078125" stroke-width="2.0" fill="rgb(97, 97, 96)" opacity="0.99445504" stroke="rgb(0, 0, 0)" stroke-opacity="0.0" stroke-linecap="round" stroke-linejoin="round"/>
    <path d="M 263.11529541015625 197.44284057617188 L 262.5214538574219 204.2369842529297 L 275.3697509765625 199.1170196533203 C 272.838134765625 195.36756896972656 267.1304931640625 193.7710723876953 263.11529541015625 197.44284057617188" stroke-width="2.0" fill="rgb(100, 115, 100)" opacity="1.2332374" stroke="rgb(0, 0, 0)" stroke-opacity="0.0" stroke-linecap="round" stroke-linejoin="round"/>
    <path d="M 142.96847534179688 299.717041015625 C 139.5270233154297 306.2864685058594 137.01930236816406 314.4239196777344 145.0428924560547 312.5918273925781 L 150.28773498535156 301.63037109375 L 142.96847534179688 299.717041015625" stroke-width="2.0" fill="rgb(146, 92, 79)" opacity="1.0089111" stroke="rgb(0, 0, 0)" stroke-opacity="0.0" stroke-linecap="round" stroke-linejoin="round"/>
    <path d="M 111.27034759521484 298.2018737792969 C 101.5341796875 294.7777404785156 97.59652709960938 314.805419921875 108.3861083984375 309.927490234375 L 111.27034759521484 298.2018737792969" stroke-width="2.0" fill="rgb(144, 90, 78)" opacity="1.0073736" stroke="rgb(0, 0, 0)" stroke-opacity="0.0" stroke-linecap="round" stroke-linejoin="round"/>
    <path d="M 131.14129638671875 299.1905822753906 C 121.48393249511719 295.5856018066406 115.92064666748047 314.1195373535156 127.42046356201172 310.94287109375 L 131.14129638671875 299.1905822753906" stroke-width="2.0" fill="rgb(145, 90, 76)" opacity="1.0091486" stroke="rgb(0, 0, 0)" stroke-opacity="0.0" stroke-linecap="round" stroke-linejoin="round"/>
    <path d="M 441.1421813964844 153.71067810058594 C 437.1296691894531 163.2825164794922 456.0177917480469 163.88377380371094 453.2593078613281 155.04061889648438 L 441.1421813964844 153.71067810058594" stroke-width="2.0" fill="rgb(108, 107, 107)" opacity="1.0122929" stroke="rgb(0, 0, 0)" stroke-opacity="0.0" stroke-linecap="round" stroke-linejoin="round"/>
    <path d="M 377.3179931640625 226.52163696289062 C 378.76739501953125 232.2672576904297 388.1489562988281 233.87353515625 392.83251953125 233.09783935546875 L 386.3560485839844 228.84510803222656 C 384.24859619140625 225.29336547851562 381.9385070800781 217.21641540527344 377.3179931640625 226.52163696289062" stroke-width="2.0" fill="rgb(96, 95, 94)" opacity="1.004775" stroke="rgb(0, 0, 0)" stroke-opacity="0.0" stroke-linecap="round" stroke-linejoin="round"/>
  </g>
</svg>
