<?xml version="1.0" ?>
<svg xmlns="http://www.w3.org/2000/svg" version="1.1" width="512" height="512">
  <defs/>
  <g>
    <path d="M -10.0 -10.0 C -9.0 -10.0 512.0 0.0 513.0 0.0 C 514.0 0.0 512.0 512.0 513.0 512.0 C 513.0 513.0 0.0 512.0 0.0 513.0 C 0.0 512.0 0.0 513.0 -10.0 -10.0 L -10.0 -10.0" stroke-width="2.0" fill="rgb(191, 203, 176)" opacity="0.9199597"/>
    <path d="M 492.6334228515625 212.80880737304688 C 491.30596923828125 221.42445373535156 495.6976318359375 224.14178466796875 491.0052185058594 225.92242431640625 C 495.8699951171875 225.5661163330078 497.2392883300781 222.021240234375 496.0234680175781 206.8848419189453 C 494.6706848144531 228.80540466308594 496.6070556640625 227.91903686523438 505.77227783203125 225.9453125 C 491.68756103515625 223.47921752929688 491.1147155761719 227.0462646484375 492.8525390625 235.68789672851562 L 492.6334228515625 212.80880737304688" stroke-width="2.0" fill="rgb(201, 253, 249)" opacity="0.0"/>
    <path d="M 343.7512512207031 42.683074951171875 C 343.1908874511719 42.753273010253906 342.26336669921875 41.957332611083984 343.4667663574219 42.7087287902832 C 345.4383850097656 43.09935760498047 345.9169616699219 43.002689361572266 346.1815490722656 43.12111282348633 C 344.9436950683594 42.91305160522461 347.46954345703125 43.24201583862305 345.0160827636719 42.95591354370117 C 341.38519287109375 42.262413024902344 344.759765625 42.96833801269531 343.3053283691406 42.79940414428711 L 343.7512512207031 42.683074951171875" stroke-width="2.0" fill="rgb(229, 105, 51)" opacity="0.2243178"/>
    <path d="M 175.2115020751953 317.548828125 C 175.4953155517578 316.9386901855469 175.28689575195312 317.4853210449219 176.37913513183594 316.67620849609375 C 179.27191162109375 317.9981689453125 178.84677124023438 317.0568542480469 180.63148498535156 317.0614318847656 C 178.8222198486328 321.0884094238281 179.52517700195312 320.9259033203125 180.00929260253906 322.4102783203125 C 175.40997314453125 320.23291015625 175.5845947265625 320.7806091308594 175.07582092285156 322.3330078125 L 175.2115020751953 317.548828125" stroke-width="2.0" fill="rgb(180, 58, 59)" opacity="0.012918478"/>
    <path d="M 7.188174247741699 247.9236297607422 C 7.161910533905029 247.649169921875 6.246985912322998 247.1275177001953 6.046304225921631 246.90982055664062 C 8.989668846130371 249.39096069335938 8.043132781982422 248.63983154296875 7.242901802062988 247.95689392089844 C 7.1172614097595215 247.88308715820312 7.30844783782959 247.89443969726562 7.377387523651123 248.09356689453125 C 5.947387218475342 246.54576110839844 7.767487049102783 248.61715698242188 7.099169731140137 247.7719268798828 L 7.188174247741699 247.9236297607422" stroke-width="2.0" fill="rgb(231, 58, 200)" opacity="0.05015166"/>
    <path d="M 307.9754638671875 46.171669006347656 C 307.7828063964844 44.31985092163086 307.70977783203125 42.88951873779297 307.9969177246094 46.92683029174805 C 307.8473815917969 44.708213806152344 307.9714660644531 46.039939880371094 307.9960021972656 47.04716873168945 C 307.95159912109375 45.42689895629883 307.6988220214844 43.87411880493164 308.02783203125 46.897483825683594 C 307.7979736328125 45.930877685546875 308.12109375 46.90507507324219 307.9530334472656 45.99734115600586 L 307.9754638671875 46.171669006347656" stroke-width="2.0" fill="rgb(185, 113, 200)" opacity="0.15688151"/>
    <path d="M 346.3868103027344 243.1129150390625 C 390.11199951171875 314.9308166503906 395.735595703125 288.8923645019531 322.69970703125 305.1346130371094 C 247.4805450439453 334.4053955078125 146.64834594726562 307.9453125 128.42381286621094 281.4508056640625 C 182.1156463623047 191.45399475097656 202.12452697753906 157.71066284179688 232.0113983154297 107.63954162597656 C 268.69903564453125 112.1456298828125 245.27650451660156 91.83169555664062 288.41290283203125 154.56265258789062 L 346.3868103027344 243.1129150390625" stroke-width="2.0" fill="rgb(199, 26, 15)" opacity="0.97811633"/>
    <path d="M 10.040641784667969 259.6134948730469 C 8.872962951660156 258.806396484375 8.155344009399414 258.3233642578125 8.731776237487793 258.6648864746094 C 10.309918403625488 259.89520263671875 8.436694145202637 258.5987548828125 11.399768829345703 260.3363037109375 C 9.701172828674316 259.59765625 10.71273422241211 259.25250244140625 11.252632141113281 261.166259765625 C 10.793325424194336 259.2657165527344 9.945966720581055 259.89544677734375 9.692781448364258 259.322265625 L 10.040641784667969 259.6134948730469" stroke-width="2.0" fill="rgb(31, 76, 171)" opacity="0.0"/>
    <path d="M 27.3791561126709 301.7340087890625 C 28.171049118041992 298.8414001464844 26.355939865112305 299.30487060546875 30.628673553466797 299.3634338378906 C 32.04347229003906 302.165771484375 30.991161346435547 299.7900085449219 30.421539306640625 299.1913146972656 C 30.55793571472168 299.7828063964844 32.0516357421875 299.1554870605469 27.72568702697754 299.2964782714844 C 28.236068725585938 296.80682373046875 27.345266342163086 300.6564025878906 27.223703384399414 303.82781982421875 L 27.3791561126709 301.7340087890625" stroke-width="2.0" fill="rgb(94, 207, 95)" opacity="0.25505883"/>
    <path d="M 396.6711730957031 491.59539794921875 C 393.6058349609375 489.26904296875 392.8941650390625 488.5511474609375 394.01019287109375 489.402587890625 C 396.4051818847656 491.1646728515625 395.33343505859375 489.3076477050781 395.8175048828125 489.21722412109375 C 393.8078308105469 490.39727783203125 395.8094787597656 489.15618896484375 395.48028564453125 490.8814697265625 C 395.5187683105469 488.9527282714844 396.1841735839844 491.0488586425781 394.4469299316406 490.92230224609375 L 396.6711730957031 491.59539794921875" stroke-width="2.0" fill="rgb(61, 113, 43)" opacity="0.0"/>
    <path d="M 411.8857421875 91.8546142578125 C 412.566162109375 92.11434936523438 411.47723388671875 91.75470733642578 410.3145751953125 91.34371185302734 C 413.9969482421875 92.6519775390625 411.9920654296875 91.85334014892578 408.2096862792969 90.64698028564453 C 410.3000793457031 91.53852844238281 412.0355224609375 91.438232421875 414.2790222167969 93.3158950805664 C 411.1585693359375 91.1584243774414 412.0821533203125 92.14295196533203 412.6385192871094 92.1906509399414 L 411.8857421875 91.8546142578125" stroke-width="2.0" fill="rgb(81, 255, 91)" opacity="0.2440302"/>
    <path d="M 20.1678466796875 197.08485412597656 C 19.77987289428711 196.26577758789062 19.54285430908203 196.61264038085938 19.914817810058594 196.64007568359375 C 21.257047653198242 198.84844970703125 20.418781280517578 197.8192901611328 20.045276641845703 196.7870635986328 C 20.7659854888916 198.8512420654297 22.037111282348633 198.5587615966797 23.326778411865234 199.314208984375 C 21.020299911499023 198.29270935058594 21.650989532470703 198.8311309814453 20.71672821044922 198.05947875976562 L 20.1678466796875 197.08485412597656" stroke-width="2.0" fill="rgb(133, 142, 255)" opacity="0.017051077"/>
    <path d="M 525.6262817382812 -42.75917053222656 C 56.75074768066406 -98.08226776123047 270.90185546875 114.66643524169922 371.42022705078125 282.0872802734375 C 536.5691528320312 343.4402770996094 577.2100830078125 308.900634765625 510.16912841796875 -3.5687179565429688 C 396.91729736328125 344.3165283203125 302.67230224609375 443.9278259277344 504.3241271972656 545.5186157226562 C 581.1146850585938 182.58590698242188 531.8947143554688 351.4122314453125 405.8928527832031 292.67645263671875 L 525.6262817382812 -42.75917053222656" stroke-width="2.0" fill="rgb(243, 241, 219)" opacity="0.22318444"/>
    <path d="M 416.63134765625 151.2279815673828 C 417.6060485839844 151.220947265625 417.1788330078125 151.5500030517578 416.9185791015625 149.87506103515625 C 417.46923828125 151.61793518066406 417.1046142578125 151.1053009033203 418.2677001953125 150.6631317138672 C 416.80987548828125 151.79188537597656 417.218017578125 151.3671112060547 417.9729309082031 152.6607208251953 C 416.4772033691406 151.34693908691406 416.9493408203125 151.8150634765625 416.45562744140625 152.7543487548828 L 416.63134765625 151.2279815673828" stroke-width="2.0" fill="rgb(53, 70, 133)" opacity="0.00022973456"/>
    <path d="M 6.1913299560546875 254.0763397216797 C 216.49952697753906 476.1983642578125 192.38316345214844 394.4456481933594 197.5558319091797 404.1092834472656 C 284.34661865234375 403.1441650390625 295.0572814941406 407.0075378417969 396.0942687988281 397.19439697265625 C 413.78143310546875 502.4484558105469 434.1712951660156 489.3998718261719 454.7100830078125 517.5164794921875 C 226.36752319335938 513.4866333007812 254.7245635986328 511.5662536621094 -6.294778823852539 554.4879150390625 L 6.1913299560546875 254.0763397216797" stroke-width="2.0" fill="rgb(208, 215, 191)" opacity="0.90861624"/>
    <path d="M 177.32199096679688 359.68353271484375 C 176.06494140625 358.8733825683594 175.83352661132812 358.9106140136719 176.2847442626953 359.0096130371094 C 177.7346649169922 360.31787109375 177.66744995117188 359.2413635253906 179.273681640625 358.4049072265625 C 176.30746459960938 360.3262634277344 176.57907104492188 360.3225402832031 177.7455596923828 361.75274658203125 C 176.4451141357422 359.8388671875 176.9071044921875 360.9217834472656 176.10118103027344 362.0350036621094 L 177.32199096679688 359.68353271484375" stroke-width="2.0" fill="rgb(225, 70, 238)" opacity="0.0"/>
    <path d="M 81.37127685546875 430.2992858886719 C 81.40178680419922 431.41180419921875 80.61567687988281 432.2974548339844 79.5420150756836 432.48333740234375 C 78.45366668701172 432.56451416015625 77.47433471679688 431.8953857421875 77.05374908447266 430.8616638183594 C 76.93270111083984 429.7667236328125 77.4817886352539 428.7024841308594 78.47018432617188 428.1835632324219 C 79.54126739501953 427.94537353515625 80.65593719482422 428.37750244140625 81.28154754638672 429.30987548828125 L 81.37127685546875 430.2992858886719" stroke-width="2.0" fill="rgb(195, 213, 129)" opacity="0.0"/>
    <path d="M 202.66696166992188 24.18109703063965 C 203.6067657470703 24.952272415161133 203.03221130371094 25.610149383544922 202.42759704589844 24.416460037231445 C 202.14967346191406 25.5128173828125 201.479736328125 25.007564544677734 202.16522216796875 24.30217933654785 C 201.1939697265625 24.394115447998047 201.58448791503906 23.58027458190918 202.39463806152344 24.490995407104492 C 202.2923126220703 23.46044921875 203.15374755859375 23.66240882873535 202.95394897460938 24.46710777282715 L 202.66696166992188 24.18109703063965" stroke-width="2.0" fill="rgb(91, 29, 146)" opacity="0.0"/>
    <path d="M 478.4564208984375 357.1001892089844 C 476.30279541015625 356.59710693359375 476.0589904785156 357.0260314941406 476.9288635253906 356.802001953125 C 478.9598693847656 357.5314025878906 478.6730041503906 356.72393798828125 479.7481689453125 356.0675354003906 C 476.99859619140625 358.87371826171875 477.64300537109375 358.61834716796875 479.5385437011719 360.02545166015625 C 477.20281982421875 358.1767578125 477.84014892578125 358.82550048828125 477.16204833984375 359.85858154296875 L 478.4564208984375 357.1001892089844" stroke-width="2.0" fill="rgb(104, 255, 47)" opacity="7.003645e-05"/>
    <path d="M 37.18983840942383 216.22193908691406 C 36.65958023071289 217.51644897460938 36.380577087402344 218.5906524658203 37.22559356689453 216.03330993652344 C 37.02022171020508 213.78213500976562 37.1057014465332 214.6693878173828 37.22551345825195 216.15260314941406 C 35.804283142089844 219.1736297607422 37.29125213623047 218.77549743652344 38.554107666015625 219.50784301757812 C 35.38108444213867 218.42359924316406 37.01445770263672 217.73721313476562 37.32630920410156 215.37197875976562 L 37.18983840942383 216.22193908691406" stroke-width="2.0" fill="rgb(104, 162, 255)" opacity="0.24093924"/>
    <path d="M 254.57077026367188 417.1621398925781 C 254.37579345703125 418.3257141113281 254.09461975097656 419.0304870605469 254.60272216796875 417.1717529296875 C 258.3222351074219 422.081298828125 257.45513916015625 419.1277160644531 257.8659973144531 417.402099609375 C 255.56739807128906 421.3204345703125 258.0579833984375 420.8764343261719 257.7696838378906 417.3994445800781 C 258.61181640625 415.29742431640625 257.6658630371094 418.7099914550781 256.6745300292969 419.6842346191406 L 254.57077026367188 417.1621398925781" stroke-width="2.0" fill="rgb(162, 249, 209)" opacity="0.14199738"/>
    <path d="M 127.03703308105469 283.606201171875 C 211.7506866455078 334.58428955078125 109.47731018066406 279.2789611816406 115.37080383300781 268.4689025878906 C 108.26020050048828 320.65789794921875 117.35731506347656 319.8884582519531 113.19666290283203 288.38104248046875 C 89.1499252319336 342.76507568359375 342.75653076171875 385.57208251953125 348.80889892578125 307.0783996582031 C 74.7746810913086 355.6710205078125 120.9884262084961 203.06430053710938 112.37322998046875 311.815673828125 L 127.03703308105469 283.606201171875" stroke-width="2.0" fill="rgb(254, 250, 216)" opacity="0.9030657"/>
  </g>
</svg>
