<?xml version="1.0" ?>
<svg xmlns="http://www.w3.org/2000/svg" version="1.1" width="512" height="352">
  <defs/>
  <g>
    <path d="M -10.0 -10.0 C -9.0 -10.0 512.0 0.0 513.0 0.0 C 514.0 0.0 512.0 352.0 513.0 352.0 C 513.0 353.0 0.0 352.0 0.0 353.0 C 0.0 352.0 0.0 353.0 -10.0 -10.0 L -10.0 -10.0" stroke-width="2.0" fill="rgb(193, 208, 205)" opacity="0.8956298"/>
    <path d="M 491.9682922363281 153.2273712158203 C 492.6087951660156 154.04498291015625 492.4123840332031 154.24908447265625 494.0133361816406 156.55015563964844 C 496.7464904785156 154.221435546875 495.9478454589844 152.60623168945312 498.1560974121094 151.0738525390625 C 495.9716796875 155.3169403076172 496.4754943847656 153.2187957763672 494.86199951171875 155.98501586914062 C 492.13665771484375 153.01620483398438 494.20526123046875 154.07208251953125 494.2047119140625 156.95018005371094 L 491.9682922363281 153.2273712158203" stroke-width="2.0" fill="rgb(66, 246, 247)" opacity="0.05624067"/>
    <path d="M 343.87200927734375 28.661148071289062 C 344.6623840332031 29.097620010375977 343.0516662597656 29.75214385986328 343.4917907714844 29.59677505493164 C 343.2247314453125 29.85870361328125 343.3566589355469 29.90654754638672 344.5164489746094 28.287113189697266 C 342.8412780761719 30.339187622070312 344.4018249511719 28.68633270263672 343.32171630859375 29.760162353515625 C 344.3720703125 28.628969192504883 344.584716796875 29.43900489807129 342.5697937011719 27.373929977416992 L 343.87200927734375 28.661148071289062" stroke-width="2.0" fill="rgb(255, 107, 54)" opacity="0.21114892"/>
    <path d="M 206.32620239257812 252.93606567382812 C 180.76181030273438 286.1935729980469 179.3005828857422 198.6097412109375 179.66552734375 208.51512145996094 C 180.59649658203125 224.7069854736328 181.07261657714844 223.46270751953125 187.29237365722656 238.8274383544922 C 192.14675903320312 249.77471923828125 195.040771484375 275.548828125 183.36236572265625 240.6630401611328 C 173.43898010253906 164.5628662109375 141.298583984375 127.67459106445312 253.9851837158203 162.18414306640625 L 206.32620239257812 252.93606567382812" stroke-width="2.0" fill="rgb(2, 40, 0)" opacity="0.51075906"/>
    <path d="M 6.572969436645508 170.0417938232422 C 7.1020684242248535 170.87057495117188 7.0168046951293945 171.265380859375 7.379618167877197 170.6722412109375 C 5.822086334228516 172.263671875 7.867069721221924 170.47152709960938 8.624317169189453 167.6758575439453 C 7.339744567871094 171.01573181152344 8.627800941467285 168.15687561035156 6.772613048553467 171.4149932861328 C 7.305744171142578 170.311767578125 7.245238304138184 171.51846313476562 8.41599178314209 173.0609588623047 L 6.572969436645508 170.0417938232422" stroke-width="2.0" fill="rgb(255, 57, 196)" opacity="0.022751044"/>
    <path d="M 307.2977294921875 29.2951717376709 C 307.0414123535156 31.000022888183594 307.0354309082031 31.2491455078125 307.22747802734375 30.011831283569336 C 307.1571044921875 30.60115623474121 307.0873107910156 30.847225189208984 307.2820739746094 29.325162887573242 C 307.1701354980469 30.251060485839844 307.54522705078125 28.117794036865234 307.0054931640625 31.165485382080078 C 307.46563720703125 28.913345336914062 306.94195556640625 31.53005027770996 307.1463317871094 30.403839111328125 L 307.2977294921875 29.2951717376709" stroke-width="2.0" fill="rgb(185, 102, 182)" opacity="0.19437656"/>
    <path d="M 253.27944946289062 76.91519165039062 C 236.69906616210938 95.8248062133789 238.5172576904297 118.76593017578125 258.1281433105469 170.60726928710938 C 234.8568115234375 135.97315979003906 250.47845458984375 190.53846740722656 237.66455078125 123.29632568359375 C 225.60894775390625 78.05086517333984 280.1489562988281 22.553926467895508 352.9972839355469 45.815399169921875 C 215.0152130126953 169.2701416015625 286.94268798828125 120.27294921875 257.3203125 72.84423065185547 L 253.27944946289062 76.91519165039062" stroke-width="2.0" fill="rgb(149, 48, 9)" opacity="0.7119058"/>
    <path d="M 9.641155242919922 179.0262908935547 C 9.652873992919922 179.3199005126953 9.501368522644043 178.96046447753906 9.913267135620117 179.0876922607422 C 10.132284164428711 178.96702575683594 9.94791316986084 178.99803161621094 10.123061180114746 179.004150390625 C 8.643269538879395 179.30079650878906 10.15790843963623 179.016845703125 9.948637008666992 179.08103942871094 C 9.272080421447754 178.9207305908203 9.84406852722168 179.4339141845703 10.108041763305664 181.650634765625 L 9.641155242919922 179.0262908935547" stroke-width="2.0" fill="rgb(29, 68, 160)" opacity="0.047864527"/>
    <path d="M 27.264554977416992 206.64247131347656 C 26.472396850585938 206.8552703857422 27.695016860961914 206.4665069580078 27.11309242248535 206.68299865722656 C 27.127662658691406 206.84024047851562 26.388568878173828 207.76402282714844 27.21965789794922 206.61038208007812 C 27.5021915435791 206.52291870117188 27.388818740844727 206.1778564453125 27.445077896118164 206.2814483642578 C 27.29448890686035 206.77618408203125 27.26934242248535 206.618896484375 25.692800521850586 206.83084106445312 L 27.264554977416992 206.64247131347656" stroke-width="2.0" fill="rgb(83, 192, 81)" opacity="0.30466154"/>
    <path d="M 394.1581726074219 336.82330322265625 C 395.02667236328125 337.4195861816406 393.6293640136719 336.74481201171875 395.5262145996094 337.1197814941406 C 395.9543151855469 337.0503234863281 395.4803466796875 336.6651916503906 396.3647155761719 338.76129150390625 C 395.664306640625 337.411865234375 396.6039733886719 335.7261657714844 396.4251708984375 337.01373291015625 C 394.7825622558594 335.5931396484375 394.4563293457031 337.10235595703125 392.2748718261719 339.7147216796875 L 394.1581726074219 336.82330322265625" stroke-width="2.0" fill="rgb(64, 110, 40)" opacity="0.0"/>
    <path d="M 413.96832275390625 63.11247634887695 C 414.3490295410156 63.289920806884766 414.8318786621094 62.120487213134766 413.6744384765625 64.81800079345703 C 414.3404235839844 63.74312973022461 413.65997314453125 61.2940788269043 414.3383483886719 63.49022674560547 C 414.44091796875 62.641780853271484 414.5980224609375 60.59809494018555 413.9081726074219 63.23238754272461 C 413.6872863769531 61.631690979003906 415.52056884765625 64.70999145507812 413.3850402832031 61.18933868408203 L 413.96832275390625 63.11247634887695" stroke-width="2.0" fill="rgb(88, 247, 91)" opacity="0.22168724"/>
    <path d="M 21.276813507080078 134.98524475097656 C 20.621335983276367 134.3762664794922 21.854246139526367 135.6243438720703 21.13010597229004 134.87876892089844 C 22.84942626953125 133.92359924316406 21.411727905273438 134.76564025878906 21.2093563079834 134.81263732910156 C 20.323383331298828 135.24293518066406 21.402782440185547 134.22486877441406 21.49125099182129 135.68499755859375 C 21.185535430908203 134.70993041992188 21.73940086364746 136.70828247070312 22.635751724243164 139.080810546875 L 21.276813507080078 134.98524475097656" stroke-width="2.0" fill="rgb(130, 132, 255)" opacity="0.07365706"/>
    <path d="M 432.4487609863281 177.56585693359375 C 412.62127685546875 167.443115234375 419.26373291015625 170.57675170898438 426.9464111328125 174.71473693847656 C 435.89215087890625 178.00775146484375 429.6058349609375 183.64524841308594 439.89434814453125 153.5850372314453 C 435.3096008300781 169.3838348388672 495.9989318847656 262.5254821777344 424.690673828125 174.09251403808594 C 392.84698486328125 193.0037841796875 367.6650085449219 65.96701049804688 445.25390625 134.0412139892578 L 432.4487609863281 177.56585693359375" stroke-width="2.0" fill="rgb(239, 255, 255)" opacity="1.0"/>
    <path d="M 415.2229919433594 102.65692901611328 C 416.5928039550781 102.82087707519531 415.99249267578125 103.05901336669922 416.5282897949219 100.98743438720703 C 418.1330871582031 103.49197387695312 417.6565246582031 103.3236083984375 419.8642272949219 103.06830596923828 C 417.8812255859375 105.00656127929688 418.4554138183594 104.71365356445312 418.62115478515625 106.1629409790039 C 415.9323425292969 104.81843566894531 416.3074951171875 105.45389556884766 415.17681884765625 106.02493286132812 L 415.2229919433594 102.65692901611328" stroke-width="2.0" fill="rgb(55, 72, 126)" opacity="0.006430351"/>
    <path d="M 319.6388244628906 277.5069580078125 C 260.1675720214844 276.9045715332031 261.5787048339844 286.88922119140625 265.4863586425781 264.48321533203125 C 262.5620422363281 263.32049560546875 252.50564575195312 267.6636962890625 242.76718139648438 306.1163330078125 C 275.5876159667969 196.38629150390625 235.78440856933594 178.93634033203125 253.9483184814453 165.07177734375 C 291.4107971191406 287.5943603515625 229.36260986328125 282.5574035644531 299.20587158203125 283.0606994628906 L 319.6388244628906 277.5069580078125" stroke-width="2.0" fill="rgb(19, 30, 4)" opacity="0.81824636"/>
    <path d="M 190.97866821289062 258.5989990234375 C 190.97015380859375 268.67669677734375 190.82672119140625 246.49911499023438 188.05995178222656 243.94447326660156 C 155.1928253173828 248.9297332763672 171.91329956054688 250.53994750976562 183.1042938232422 258.427734375 C 118.33462524414062 254.0387420654297 159.95095825195312 282.8703918457031 219.5540008544922 269.6434326171875 C 177.27694702148438 253.31260681152344 178.9277801513672 255.09622192382812 182.8949737548828 255.72262573242188 L 190.97866821289062 258.5989990234375" stroke-width="2.0" fill="rgb(176, 190, 183)" opacity="0.7878228"/>
    <path d="M 156.25222778320312 300.9372253417969 C 167.17276000976562 341.39935302734375 179.24612426757812 311.1673278808594 118.70600891113281 311.25689697265625 C 73.06038665771484 311.16412353515625 15.540000915527344 300.7832946777344 52.519012451171875 255.9346466064453 C 44.09135437011719 286.08624267578125 142.0560760498047 265.33544921875 121.22022247314453 288.8125 C 88.31295776367188 295.9259033203125 21.662919998168945 273.29693603515625 77.44606018066406 294.9779052734375 L 156.25222778320312 300.9372253417969" stroke-width="2.0" fill="rgb(137, 67, 31)" opacity="0.4688848"/>
    <path d="M 202.01022338867188 16.337244033813477 C 202.9010772705078 16.87091064453125 202.4413299560547 17.515880584716797 202.27789306640625 16.488012313842773 C 202.53347778320312 17.43632698059082 201.86634826660156 16.949722290039062 202.69479370117188 16.467390060424805 C 201.67959594726562 17.099517822265625 202.1610107421875 16.43997573852539 203.0174560546875 17.263723373413086 C 202.30699157714844 15.716066360473633 202.87692260742188 16.07206916809082 202.19085693359375 17.2254638671875 L 202.01022338867188 16.337244033813477" stroke-width="2.0" fill="rgb(93, 31, 149)" opacity="0.0"/>
    <path d="M 478.44384765625 245.99710083007812 C 476.69976806640625 245.0730743408203 476.27593994140625 244.44046020507812 476.0390625 244.37828063964844 C 478.2904968261719 247.02032470703125 478.5909118652344 246.63441467285156 476.80316162109375 245.07763671875 C 478.8359375 246.0421142578125 478.715087890625 246.64453125 479.3108215332031 247.31613159179688 C 477.58740234375 245.17010498046875 478.3646545410156 246.456298828125 476.9677429199219 247.5363006591797 L 478.44384765625 245.99710083007812" stroke-width="2.0" fill="rgb(109, 255, 45)" opacity="0.0"/>
    <path d="M 38.660552978515625 151.868408203125 C 36.554744720458984 148.01577758789062 36.845943450927734 147.7649383544922 37.04639434814453 148.6082000732422 C 37.90135192871094 150.6029052734375 37.87891387939453 150.5684356689453 36.764244079589844 147.9110107421875 C 37.13166427612305 148.8772430419922 37.63534164428711 149.9447479248047 37.38743209838867 149.4378204345703 C 37.060630798339844 148.2535400390625 37.33161926269531 149.7517547607422 37.75814437866211 150.09324645996094 L 38.660552978515625 151.868408203125" stroke-width="2.0" fill="rgb(100, 155, 251)" opacity="0.26421142"/>
    <path d="M 256.2164001464844 287.3440246582031 C 253.33828735351562 287.4919128417969 261.11566162109375 275.241455078125 255.59315490722656 287.2807922363281 C 330.8241271972656 281.07305908203125 241.76258850097656 280.5788879394531 257.627685546875 285.044921875 C 194.1029815673828 284.2824401855469 240.31321716308594 285.8825378417969 158.05206298828125 270.27496337890625 C 314.7189636230469 284.2913818359375 322.4496154785156 265.4126892089844 315.98712158203125 280.30706787109375 L 256.2164001464844 287.3440246582031" stroke-width="2.0" fill="rgb(0, 63, 86)" opacity="0.8312199"/>
    <path d="M 76.58541870117188 207.91111755371094 C 84.01790618896484 204.83982849121094 84.53389739990234 199.75592041015625 83.4521713256836 207.98358154296875 C 84.85310363769531 194.49095153808594 83.05128479003906 214.7787628173828 59.914798736572266 205.76731872558594 C 56.84409713745117 196.84800720214844 42.70565414428711 204.83554077148438 68.88884735107422 184.38026428222656 C 47.603248596191406 200.15725708007812 100.07832336425781 204.68023681640625 85.2203140258789 204.95681762695312 L 76.58541870117188 207.91111755371094" stroke-width="2.0" fill="rgb(74, 0, 2)" opacity="1.0"/>
    <path d="M 432.264404296875 183.83729553222656 C 376.99786376953125 215.3568878173828 437.7952575683594 170.42393493652344 390.9700927734375 170.59811401367188 C 402.4576416015625 170.79373168945312 396.0935974121094 189.65098571777344 388.419677734375 191.17324829101562 C 387.81988525390625 193.06863403320312 404.0998840332031 190.36087036132812 406.9083251953125 172.45928955078125 C 419.7972412109375 182.6733856201172 387.7462463378906 218.172119140625 420.8091735839844 176.9223175048828 L 432.264404296875 183.83729553222656" stroke-width="2.0" fill="rgb(67, 69, 71)" opacity="0.5033423"/>
    <path d="M 431.2179870605469 22.762985229492188 C 431.8016662597656 24.703508377075195 431.7214050292969 24.418855667114258 431.8276672363281 24.797426223754883 C 431.14501953125 26.46893310546875 431.2263488769531 25.19817543029785 430.57623291015625 28.554285049438477 C 431.0687561035156 26.049585342407227 432.4290466308594 23.681270599365234 431.8153381347656 24.829559326171875 C 430.6507263183594 20.857851028442383 431.03973388671875 22.372695922851562 431.4669189453125 23.59443473815918 L 431.2179870605469 22.762985229492188" stroke-width="2.0" fill="rgb(132, 49, 240)" opacity="0.1142594"/>
    <path d="M 387.9430847167969 52.0966796875 C 386.22576904296875 50.72832107543945 386.3634948730469 50.72248840332031 386.74139404296875 50.83891677856445 C 388.8627014160156 53.336570739746094 389.32672119140625 51.915287017822266 390.03106689453125 50.53807830810547 C 387.4443054199219 52.85294723510742 388.34429931640625 53.05141830444336 390.13946533203125 53.3791389465332 C 387.75177001953125 50.95359802246094 387.02996826171875 52.18660354614258 387.1868591308594 54.05609130859375 L 387.9430847167969 52.0966796875" stroke-width="2.0" fill="rgb(81, 138, 221)" opacity="0.0"/>
    <path d="M 412.070068359375 -7.3251142501831055 C 541.3120727539062 -16.499523162841797 544.0616455078125 1.0033105611801147 525.4074096679688 211.29391479492188 C 432.5399475097656 208.4813690185547 441.05426025390625 96.11185455322266 479.10809326171875 117.56217193603516 C 421.5582275390625 132.81793212890625 434.5037841796875 153.45314025878906 443.7176513671875 129.26673889160156 C 428.8750305175781 213.8579864501953 473.3296203613281 185.2990264892578 392.3210144042969 170.0958251953125 L 412.070068359375 -7.3251142501831055" stroke-width="2.0" fill="rgb(226, 255, 255)" opacity="0.06842856"/>
    <path d="M 214.94094848632812 249.2544708251953 C 213.1199188232422 249.70834350585938 217.0529327392578 294.7263488769531 192.27088928222656 259.224365234375 C 200.02676391601562 258.2134094238281 206.4123992919922 240.94825744628906 225.69151306152344 215.63241577148438 C 249.2341766357422 257.4940185546875 266.7592468261719 271.8807678222656 211.90225219726562 270.12738037109375 C 218.23692321777344 251.06787109375 207.31922912597656 223.79920959472656 236.8693389892578 221.244140625 L 214.94094848632812 249.2544708251953" stroke-width="2.0" fill="rgb(192, 203, 200)" opacity="1.0"/>
    <path d="M 177.358154296875 301.25311279296875 C 203.1392059326172 307.62457275390625 201.06744384765625 307.63653564453125 197.4981689453125 306.4559631347656 C 200.81471252441406 307.9488220214844 193.02206420898438 305.2142028808594 206.39923095703125 309.2680969238281 C 82.09757232666016 269.6903991699219 6.736049652099609 299.49591064453125 169.09481811523438 268.9292297363281 C 374.1103820800781 287.31640625 352.4684753417969 150.12171936035156 451.859375 290.37841796875 L 177.358154296875 301.25311279296875" stroke-width="2.0" fill="rgb(170, 184, 180)" opacity="0.69088155"/>
    <path d="M 457.58599853515625 140.6724853515625 C 347.7327880859375 59.327083587646484 300.88079833984375 138.0917205810547 347.5962219238281 189.12020874023438 C 352.24652099609375 299.906494140625 338.6568603515625 233.08900451660156 323.782470703125 272.2604064941406 C 433.12091064453125 312.336181640625 329.5250244140625 188.70384216308594 313.325927734375 110.76114654541016 C 417.1854248046875 294.8795166015625 313.1033020019531 297.2822265625 457.57696533203125 278.8050231933594 L 457.58599853515625 140.6724853515625" stroke-width="2.0" fill="rgb(39, 0, 2)" opacity="0.19039646"/>
    <path d="M 84.15709686279297 104.37158203125 C 84.34375 106.44605255126953 84.26946258544922 106.31504821777344 84.18302154541016 104.82893371582031 C 84.2978515625 105.56513977050781 84.26019287109375 105.94244384765625 84.54716491699219 108.79263305664062 C 84.7699966430664 110.43346405029297 84.12982940673828 110.78577423095703 85.69898223876953 111.15409088134766 C 84.09783935546875 110.92191314697266 84.7834243774414 109.66132354736328 84.7072525024414 111.04058074951172 L 84.15709686279297 104.37158203125" stroke-width="2.0" fill="rgb(62, 154, 167)" opacity="0.14038764"/>
    <path d="M 250.9252471923828 154.31703186035156 C 175.271240234375 222.6289825439453 316.7245178222656 119.44586944580078 326.0660400390625 242.5542449951172 C 216.26914978027344 233.75039672851562 161.0441131591797 80.77236938476562 236.08270263671875 152.00466918945312 C 257.66064453125 156.92477416992188 207.39016723632812 93.48089599609375 264.4526672363281 64.06028747558594 C 290.5663757324219 67.51610565185547 238.71658325195312 61.26964569091797 242.10882568359375 113.97403717041016 L 250.9252471923828 154.31703186035156" stroke-width="2.0" fill="rgb(35, 77, 69)" opacity="0.4713802"/>
    <path d="M 183.76600646972656 187.4493408203125 C 132.42913818359375 199.54376220703125 137.66802978515625 275.4525146484375 174.09664916992188 276.07275390625 C 25.811538696289062 306.9696350097656 23.824878692626953 264.65380859375 46.26785659790039 208.80711364746094 C 72.73334503173828 156.3715057373047 118.90886688232422 197.4202880859375 93.90580749511719 155.72439575195312 C 110.0419692993164 95.13623809814453 67.6727294921875 115.43446350097656 159.83230590820312 126.226318359375 L 183.76600646972656 187.4493408203125" stroke-width="2.0" fill="rgb(203, 167, 131)" opacity="0.7301523"/>
  </g>
</svg>
