<?xml version="1.0" ?>
<svg xmlns="http://www.w3.org/2000/svg" version="1.1" width="512" height="512">
  <defs/>
  <g>
    <path d="M 338.3392639160156 230.83822631835938 C 330.5043640136719 219.10096740722656 341.1307373046875 234.81585693359375 381.4625549316406 296.83685302734375 C 353.97869873046875 291.2110900878906 225.79713439941406 353.95648193359375 126.54293060302734 282.8290710449219 C 202.1043243408203 167.54026794433594 231.30209350585938 81.14434814453125 259.16845703125 110.38223266601562 C 321.44183349609375 204.62596130371094 327.369873046875 214.80763244628906 338.3392639160156 230.83822631835938" stroke-width="0.0" fill="rgb(191, 8, 0)" opacity="0.88343036" stroke="rgb(98, 245, 139)" stroke-opacity="0.18110318" stroke-linecap="round" stroke-linejoin="round"/>
    <path d="M 398.4595031738281 322.3092041015625 C 389.43890380859375 346.47491455078125 372.5699768066406 353.6045227050781 348.1890563964844 358.4104919433594 C 305.7208251953125 365.26763916015625 283.41021728515625 369.6591796875 279.88751220703125 349.2887878417969 C 320.7582092285156 346.2010498046875 333.2521057128906 335.5356140136719 353.84979248046875 332.5433044433594 C 393.3437194824219 323.41278076171875 403.9683532714844 320.9756774902344 398.4595031738281 322.3092041015625" stroke-width="0.0" fill="rgb(0, 77, 40)" opacity="0.9005884" stroke="rgb(164, 185, 230)" stroke-opacity="0.7763985" stroke-linecap="round" stroke-linejoin="round"/>
    <path d="M 307.4833679199219 364.0535888671875 C 271.9010009765625 367.44598388671875 249.18223571777344 365.7508239746094 226.02255249023438 362.87213134765625 C 225.6388702392578 362.1661071777344 169.19395446777344 358.76629638671875 121.64356231689453 318.7238464355469 C 98.2728271484375 293.4894714355469 134.3040313720703 340.41119384765625 226.98477172851562 349.28057861328125 C 302.8051452636719 355.47967529296875 306.7439270019531 334.29132080078125 307.4833679199219 364.0535888671875" stroke-width="0.0" fill="rgb(10, 88, 51)" opacity="0.89055645" stroke="rgb(20, 58, 80)" stroke-opacity="0.79533815" stroke-linecap="round" stroke-linejoin="round"/>
  </g>
</svg>
