<?xml version="1.0" ?>
<svg xmlns="http://www.w3.org/2000/svg" version="1.1" width="398" height="512">
  <defs/>
  <g>
    <path d="M -0.5039619207382202 -0.35744014382362366 L 398.00006103515625 -0.35172683000564575 L 398.0 512.0 L -0.4883263111114502 512.0 L -0.5039619207382202 -0.35744014382362366" stroke-width="0.0" fill="rgb(254, 255, 255)" opacity="0.9679803" stroke="rgb(0, 0, 0)" stroke-opacity="0.0" stroke-linecap="round" stroke-linejoin="round"/>
    <path d="M 0.5608744025230408 -0.558657705783844 L 1.8465933799743652 510.54034423828125 L 396.5073547363281 510.5394592285156 L 396.50823974609375 -0.5585242509841919 L 0.5608744025230408 -0.558657705783844" stroke-width="2.0" fill="rgb(254, 254, 254)" opacity="0.95129406" stroke="rgb(0, 0, 0)" stroke-opacity="0.0" stroke-linecap="round" stroke-linejoin="round"/>
    <path d="M 229.76705932617188 106.39541625976562 C 207.9921875 102.24836730957031 189.7795867919922 124.36756134033203 190.30355834960938 144.33963012695312 C 179.8895263671875 145.5047607421875 182.488525390625 135.606689453125 174.40463256835938 130.12025451660156 C 162.84532165527344 124.35630798339844 144.5208740234375 136.438232421875 154.93968200683594 150.14907836914062 C 141.22433471679688 155.9732208251953 121.8769302368164 160.85281372070312 114.87503051757812 178.1886749267578 C 113.9679183959961 183.64584350585938 116.56875610351562 189.26426696777344 118.37845611572266 195.79931640625 C 105.95471954345703 201.84393310546875 97.65316009521484 212.0948028564453 86.38504791259766 210.77415466308594 C 79.8651123046875 213.03448486328125 78.74517822265625 217.5948944091797 81.31640625 222.8784942626953 C 89.65205383300781 230.48193359375 85.95832061767578 238.41513061523438 97.04120635986328 247.04884338378906 C 95.64025115966797 253.3997039794922 79.45340728759766 258.72821044921875 77.81316375732422 268.2205810546875 C 85.41944885253906 322.4648742675781 90.93814086914062 375.5995178222656 95.34227752685547 432.6766357421875 C 156.11277770996094 464.0555419921875 219.17510986328125 461.2869567871094 286.16558837890625 448.4239501953125 C 300.59979248046875 443.07440185546875 314.7457275390625 438.89141845703125 328.2095031738281 430.8763427734375 C 333.7724609375 376.6071472167969 340.12200927734375 323.4857482910156 345.9825744628906 270.51141357421875 C 342.96331787109375 258.0792541503906 331.83099365234375 253.2777099609375 323.5473937988281 247.35574340820312 C 335.40863037109375 233.98550415039062 336.0898132324219 216.73028564453125 315.5565490722656 203.73072814941406 L 295.5197448730469 193.4121856689453 C 303.47393798828125 182.06764221191406 302.072021484375 166.30543518066406 285.4552307128906 157.67137145996094 C 284.2236328125 142.07350158691406 265.9459228515625 139.32577514648438 256.0202331542969 147.59368896484375 C 256.4902648925781 132.67808532714844 249.88841247558594 109.70182800292969 229.76705932617188 106.39541625976562" stroke-width="2.0" fill="rgb(227, 143, 123)" opacity="0.90995073" stroke="rgb(0, 0, 0)" stroke-opacity="0.0" stroke-linecap="round" stroke-linejoin="round"/>
    <path d="M 76.97860717773438 269.6223449707031 C 73.29777526855469 286.24127197265625 93.45097351074219 293.84576416015625 106.82115173339844 299.4737548828125 C 176.2284393310547 323.7171630859375 246.41455078125 324.6180419921875 316.7703857421875 300.0591735839844 C 330.010986328125 292.8736267089844 350.2218017578125 283.5725402832031 344.03607177734375 267.1938171386719 C 337.03662109375 256.5120544433594 329.6380615234375 254.8615264892578 324.04058837890625 247.10772705078125 C 333.43988037109375 234.4167022705078 337.6394958496094 221.1258544921875 322.1280517578125 208.64662170410156 C 312.6025085449219 201.94549560546875 303.5210266113281 197.32574462890625 295.8219299316406 193.34461975097656 C 306.3134765625 183.52865600585938 301.7616882324219 162.16250610351562 284.9274597167969 159.07205200195312 C 275.6739501953125 170.9512176513672 260.43707275390625 169.6894073486328 252.8827667236328 156.34381103515625 C 237.1901397705078 176.94993591308594 214.3625030517578 179.41452026367188 196.52740478515625 159.1295166015625 C 191.57119750976562 152.14462280273438 192.19967651367188 140.0825653076172 183.10476684570312 144.9600830078125 C 173.4973602294922 159.47244262695312 160.6851043701172 150.54266357421875 150.5724639892578 151.1317138671875 C 133.32594299316406 156.09310913085938 104.67687225341797 176.2046356201172 118.31464385986328 194.92864990234375 C 110.90898132324219 200.4775390625 103.74002075195312 200.0971221923828 95.33740997314453 209.52963256835938 C 103.55438232421875 212.43128967285156 105.00971984863281 227.74981689453125 96.0785903930664 224.31008911132812 C 102.1379623413086 211.88719177246094 92.0469741821289 222.62533569335938 96.51099395751953 227.18136596679688 L 90.06731414794922 229.61447143554688 C 87.09065246582031 225.79022216796875 95.10069274902344 224.2453155517578 90.03631591796875 224.01116943359375 C 89.74522399902344 224.64987182617188 88.81388854980469 229.8839569091797 85.46878814697266 229.38711547851562 C 84.29473114013672 237.2841033935547 94.7129135131836 243.5762939453125 96.35392761230469 248.898681640625 C 89.21775817871094 254.38143920898438 80.49624633789062 258.9277648925781 76.97860717773438 269.6223449707031" stroke-width="2.0" fill="rgb(250, 168, 154)" opacity="0.9823462" stroke="rgb(0, 0, 0)" stroke-opacity="0.0" stroke-linecap="round" stroke-linejoin="round"/>
    <path d="M 342.5594177246094 288.1872863769531 C 275.3839416503906 326.17822265625 208.19131469726562 323.2900390625 142.1129913330078 311.8357238769531 C 122.28598022460938 306.5151672363281 102.42780303955078 298.94976806640625 82.24881744384766 287.4683532714844 C 86.46119689941406 335.3417663574219 92.59249114990234 382.4910888671875 95.64291381835938 432.6150817871094 C 173.43357849121094 467.8623046875 252.17958068847656 464.8546447753906 328.1972961425781 431.2808837890625 C 332.1596984863281 382.27789306640625 338.7385559082031 335.2552795410156 342.5594177246094 288.1872863769531" stroke-width="2.0" fill="rgb(195, 121, 83)" opacity="1.151485" stroke="rgb(0, 0, 0)" stroke-opacity="0.0" stroke-linecap="round" stroke-linejoin="round"/>
    <path d="M 338.8829345703125 334.3804626464844 C 273.0141296386719 366.26971435546875 207.25755310058594 364.44561767578125 143.3311767578125 355.91912841796875 C 124.11724853515625 353.15289306640625 105.57567596435547 348.7425842285156 87.3479232788086 338.3003845214844 C 85.99432373046875 353.4466247558594 89.87358856201172 367.79119873046875 90.44956970214844 382.9112548828125 C 116.31786346435547 403.20684814453125 146.94668579101562 403.0606689453125 174.99053955078125 407.763916015625 C 226.92953491210938 408.15509033203125 280.1949462890625 411.6976013183594 333.8127746582031 381.79681396484375 L 338.8829345703125 334.3804626464844" stroke-width="2.0" fill="rgb(231, 173, 134)" opacity="0.99439305" stroke="rgb(0, 0, 0)" stroke-opacity="0.0" stroke-linecap="round" stroke-linejoin="round"/>
    <path d="M 342.03387451171875 286.7982177734375 C 278.0570983886719 324.26318359375 213.082275390625 321.3325500488281 150.0116424560547 314.6885070800781 C 127.96080017089844 307.6424255371094 105.71353149414062 302.0225830078125 82.45372009277344 287.3080749511719 C 81.19273376464844 302.3610534667969 85.28907775878906 321.19976806640625 86.11490631103516 337.87030029296875 C 154.7556915283203 368.1090087890625 223.20986938476562 364.7730407714844 291.8116149902344 352.31640625 C 306.9648742675781 346.6674499511719 326.58282470703125 343.5325012207031 339.0736389160156 328.6815490722656 C 339.21942138671875 315.2781677246094 343.468994140625 301.8912658691406 342.03387451171875 286.7982177734375" stroke-width="2.0" fill="rgb(168, 62, -6)" opacity="0.89455676" stroke="rgb(0, 0, 0)" stroke-opacity="0.0" stroke-linecap="round" stroke-linejoin="round"/>
    <path d="M 331.5597839355469 384.6617736816406 C 264.4267883300781 417.5899353027344 196.81097412109375 410.3911437988281 130.05690002441406 402.0407409667969 C 117.8330307006836 395.9012756347656 104.44358825683594 391.3111877441406 93.48867797851562 385.8381042480469 L 96.01481628417969 432.49066162109375 C 170.92904663085938 468.0663757324219 251.10263061523438 464.4314880371094 328.2224426269531 431.2651062011719 L 331.5597839355469 384.6617736816406" stroke-width="2.0" fill="rgb(161, 62, -1)" opacity="0.94816697" stroke="rgb(0, 0, 0)" stroke-opacity="0.0" stroke-linecap="round" stroke-linejoin="round"/>
    <path d="M 114.08594512939453 179.58059692382812 C 112.13033294677734 194.92686462402344 134.38043212890625 207.27175903320312 145.9960174560547 202.21762084960938 C 150.3333282470703 202.71070861816406 154.6666717529297 207.61422729492188 159.0 210.0 C 180.6666717529297 213.3580780029297 202.3336181640625 214.67266845703125 224.01107788085938 214.17018127441406 C 228.33338928222656 211.79019165039062 232.66683959960938 213.8319854736328 237.00767517089844 209.00448608398438 C 241.4380340576172 216.4670867919922 250.09361267089844 204.2719268798828 240.92799377441406 198.06930541992188 C 238.6306610107422 183.41664123535156 258.5399169921875 174.1724853515625 269.084716796875 182.9904022216797 C 277.0133972167969 188.45040893554688 272.70257568359375 198.77468872070312 276.3710021972656 201.0181121826172 C 297.8183898925781 198.6205596923828 313.2240905761719 170.6354217529297 287.6317138671875 158.61700439453125 C 277.0201721191406 168.54153442382812 261.9199523925781 172.3684539794922 252.447265625 157.56167602539062 C 233.0238494873047 179.01490783691406 213.37811279296875 178.7445831298828 194.5481414794922 156.61190795898438 C 190.63458251953125 151.2190704345703 191.58982849121094 140.4867706298828 183.29461669921875 143.1417999267578 C 174.43917846679688 158.6424560546875 161.5638885498047 151.8339080810547 150.83570861816406 151.23484802246094 C 139.5706024169922 154.99317932128906 118.77461242675781 162.82369995117188 114.08594512939453 179.58059692382812" stroke-width="2.0" fill="rgb(253, 168, 154)" opacity="0.75393116" stroke="rgb(0, 0, 0)" stroke-opacity="0.0" stroke-linecap="round" stroke-linejoin="round"/>
    <path d="M 234.2347869873047 49.9814567565918 L 232.94955444335938 52.34964370727539 C 251.94593811035156 71.72224426269531 257.1489562988281 90.37102508544922 235.46351623535156 109.81121826171875 C 210.91371154785156 96.04829406738281 182.6119384765625 124.60708618164062 192.85528564453125 149.9769744873047 C 198.573486328125 172.33282470703125 226.28167724609375 179.9377899169922 245.2792510986328 165.1440887451172 C 261.6426696777344 146.2305450439453 260.6079406738281 124.89976501464844 239.3810577392578 109.71717071533203 C 255.8633270263672 92.52672576904297 253.87916564941406 74.97835540771484 239.9530029296875 56.22233581542969 C 251.01661682128906 58.227176666259766 261.67071533203125 68.1396484375 271.7919921875 69.16413879394531 C 261.4290466308594 61.976173400878906 247.23721313476562 57.709529876708984 234.2347869873047 49.9814567565918" stroke-width="2.0" fill="rgb(206, -5, -6)" opacity="0.94256586" stroke="rgb(0, 0, 0)" stroke-opacity="0.0" stroke-linecap="round" stroke-linejoin="round"/>
    <path d="M 95.24880981445312 228.5205078125 C 117.43203735351562 254.9843292236328 146.68263244628906 259.8716735839844 171.13095092773438 263.2250671386719 C 203.63357543945312 263.7508850097656 236.22848510742188 263.8570251464844 269.1331481933594 245.58372497558594 L 221.72938537597656 255.14410400390625 C 182.27200317382812 250.107666015625 142.59303283691406 257.9327087402344 103.16070556640625 222.5475616455078 L 95.24880981445312 228.5205078125" stroke-width="2.0" fill="rgb(253, 217, 203)" opacity="1.0201557" stroke="rgb(0, 0, 0)" stroke-opacity="0.0" stroke-linecap="round" stroke-linejoin="round"/>
    <path d="M 333.3186950683594 384.2593994140625 C 318.8827209472656 390.8029479980469 306.1637878417969 396.2189025878906 293.00836181640625 401.1087341308594 C 291.2375793457031 414.6629333496094 285.3751220703125 428.333251953125 289.29840087890625 444.5078125 C 303.0611877441406 443.3586730957031 316.0921325683594 436.31219482421875 329.3182067871094 429.4888916015625 C 328.67059326171875 414.13165283203125 330.6921691894531 399.8755187988281 333.3186950683594 384.2593994140625" stroke-width="2.0" fill="rgb(141, 57, 3)" opacity="1.0688212" stroke="rgb(0, 0, 0)" stroke-opacity="0.0" stroke-linecap="round" stroke-linejoin="round"/>
    <path d="M 343.33160400390625 287.3105163574219 L 302.57025146484375 307.7566223144531 L 301.39794921875 347.38507080078125 C 312.0594482421875 342.58843994140625 325.9588317871094 340.0245056152344 338.1529541015625 332.3028259277344 L 343.33160400390625 287.3105163574219" stroke-width="2.0" fill="rgb(148, 59, 0)" opacity="1.017959" stroke="rgb(0, 0, 0)" stroke-opacity="0.0" stroke-linecap="round" stroke-linejoin="round"/>
    <path d="M 82.54452514648438 289.087158203125 C 81.83636474609375 304.6689453125 85.43128967285156 320.3437194824219 86.64949798583984 336.07452392578125 C 97.3229751586914 342.42828369140625 107.64302062988281 344.7875671386719 117.9836196899414 347.061279296875 C 122.18006896972656 334.0 119.14305114746094 321.0 122.0602035522461 307.889892578125 L 82.54452514648438 289.087158203125" stroke-width="2.0" fill="rgb(170, 67, 2)" opacity="0.9595466" stroke="rgb(0, 0, 0)" stroke-opacity="0.0" stroke-linecap="round" stroke-linejoin="round"/>
    <path d="M 114.59645080566406 179.70167541503906 C 110.556640625 195.92225646972656 135.71255493164062 207.83517456054688 147.3272247314453 204.34315490722656 C 151.63844299316406 205.6748046875 156.06939697265625 211.29978942871094 160.7233123779297 211.5727996826172 C 190.8506622314453 214.9936065673828 220.96507263183594 217.7617645263672 251.76507568359375 210.43511962890625 L 248.34658813476562 207.8976287841797 C 210.67581176757812 210.83126831054688 173.09719848632812 212.9065704345703 135.6191864013672 190.51504516601562 C 127.42493438720703 183.11183166503906 126.7106704711914 176.0419158935547 128.0161590576172 169.37051391601562 C 123.83695983886719 170.75779724121094 117.33222961425781 175.0167999267578 114.59645080566406 179.70167541503906" stroke-width="2.0" fill="rgb(252, 218, 204)" opacity="1.0151083" stroke="rgb(0, 0, 0)" stroke-opacity="0.0" stroke-linecap="round" stroke-linejoin="round"/>
    <path d="M 123.94296264648438 308.14666748046875 C 120.08352661132812 321.6681213378906 122.8336181640625 335.33404541015625 121.92974853515625 349.2406921386719 C 130.95924377441406 352.21844482421875 139.97860717773438 353.9995422363281 149.45419311523438 354.1369934082031 L 151.63092041015625 315.29449462890625 C 142.6156463623047 310.2647399902344 133.76181030273438 310.8352355957031 123.94296264648438 308.14666748046875" stroke-width="2.0" fill="rgb(187, 75, 1)" opacity="1.0048698" stroke="rgb(0, 0, 0)" stroke-opacity="0.0" stroke-linecap="round" stroke-linejoin="round"/>
    <path d="M 121.50226593017578 400.10321044921875 L 120.67424774169922 436.1650390625 C 128.61566162109375 440.5105285644531 136.29627990722656 440.6253967285156 144.32489013671875 443.162109375 C 148.65245056152344 430.3465270996094 144.45086669921875 417.6768493652344 147.39402770996094 404.840087890625 C 138.9759521484375 402.4122009277344 130.95907592773438 404.13946533203125 121.50226593017578 400.10321044921875" stroke-width="2.0" fill="rgb(188, 76, 1)" opacity="0.9997859" stroke="rgb(0, 0, 0)" stroke-opacity="0.0" stroke-linecap="round" stroke-linejoin="round"/>
    <path d="M 248.12582397460938 184.07870483398438 C 228.11614990234375 201.71392822265625 263.04779052734375 224.19869995117188 274.01068115234375 199.09347534179688 C 277.3764343261719 184.27175903320312 259.54443359375 174.92823791503906 248.12582397460938 184.07870483398438" stroke-width="2.0" fill="rgb(247, 92, 90)" opacity="1.0281842" stroke="rgb(0, 0, 0)" stroke-opacity="0.0" stroke-linecap="round" stroke-linejoin="round"/>
    <path d="M 258.332763671875 145.8141632080078 C 238.38052368164062 166.91648864746094 287.7440185546875 177.01573181152344 285.7830505371094 152.34942626953125 C 280.771484375 140.8538818359375 268.2706298828125 139.7789306640625 258.332763671875 145.8141632080078" stroke-width="2.0" fill="rgb(235, 17, 157)" opacity="1.0043933" stroke="rgb(0, 0, 0)" stroke-opacity="0.0" stroke-linecap="round" stroke-linejoin="round"/>
    <path d="M 166.9794158935547 168.75511169433594 C 158.8143310546875 186.65834045410156 191.09478759765625 194.9054412841797 198.1790008544922 175.6861114501953 C 196.54293823242188 160.1829071044922 177.4327392578125 157.3257598876953 166.9794158935547 168.75511169433594" stroke-width="2.0" fill="rgb(235, 18, 155)" opacity="0.99575496" stroke="rgb(0, 0, 0)" stroke-opacity="0.0" stroke-linecap="round" stroke-linejoin="round"/>
    <path d="M 150.62326049804688 138.27635192871094 C 149.05410766601562 159.4630126953125 187.9134521484375 156.0836639404297 182.1973419189453 135.99095153808594 C 172.34030151367188 124.96994018554688 157.2431182861328 126.09058380126953 150.62326049804688 138.27635192871094" stroke-width="2.0" fill="rgb(244, 79, 82)" opacity="0.90368825" stroke="rgb(0, 0, 0)" stroke-opacity="0.0" stroke-linecap="round" stroke-linejoin="round"/>
    <path d="M 164.48426818847656 222.30184936523438 C 163.2493896484375 241.2000732421875 206.71920776367188 235.53997802734375 190.29837036132812 216.45225524902344 C 181.14207458496094 213.20391845703125 169.334228515625 211.80714416503906 164.48426818847656 222.30184936523438" stroke-width="2.0" fill="rgb(244, 95, 93)" opacity="1.0674931" stroke="rgb(0, 0, 0)" stroke-opacity="0.0" stroke-linecap="round" stroke-linejoin="round"/>
    <path d="M 299.10052490234375 200.9750518798828 C 276.506591796875 206.9202423095703 296.53399658203125 233.53042602539062 312.2582702636719 217.93055725097656 C 317.41656494140625 209.1597137451172 310.2579650878906 197.86996459960938 299.10052490234375 200.9750518798828" stroke-width="2.0" fill="rgb(245, 92, 88)" opacity="1.0583255" stroke="rgb(0, 0, 0)" stroke-opacity="0.0" stroke-linecap="round" stroke-linejoin="round"/>
    <path d="M 232.9498291015625 49.345115661621094 C 236.9272918701172 59.589046478271484 247.8776397705078 69.38946533203125 248.85162353515625 80.86331176757812 C 250.96307373046875 90.1239013671875 242.560791015625 99.29235076904297 232.9575653076172 109.50474548339844 C 241.1672821044922 115.87068939208984 247.72622680664062 96.78463745117188 252.13018798828125 91.71568298339844 C 253.35765075683594 79.29023742675781 249.06771850585938 68.51446533203125 239.89996337890625 56.2093391418457 C 248.1859893798828 58.39513397216797 258.07818603515625 65.46045684814453 268.38726806640625 68.84817504882812 C 268.6875305175781 69.9305191040039 273.2803039550781 72.92869567871094 272.95281982421875 68.33213806152344 L 232.9498291015625 49.345115661621094" stroke-width="2.0" fill="rgb(12, 135, 26)" opacity="0.9241884" stroke="rgb(0, 0, 0)" stroke-opacity="0.0" stroke-linecap="round" stroke-linejoin="round"/>
    <path d="M 207.0715789794922 238.8391571044922 C 195.15464782714844 261.9879150390625 243.3286895751953 258.2430725097656 224.3042755126953 236.54983520507812 C 217.99668884277344 234.62718200683594 212.6005401611328 233.33026123046875 207.0715789794922 238.8391571044922" stroke-width="2.0" fill="rgb(235, 20, 155)" opacity="1.0045006" stroke="rgb(0, 0, 0)" stroke-opacity="0.0" stroke-linecap="round" stroke-linejoin="round"/>
    <path d="M 135.7467498779297 206.7263641357422 C 118.68037414550781 229.41656494140625 169.69967651367188 229.4571533203125 152.2484588623047 206.60150146484375 C 146.51129150390625 203.58990478515625 141.92404174804688 202.4363250732422 135.7467498779297 206.7263641357422" stroke-width="2.0" fill="rgb(234, 23, 154)" opacity="0.9982909" stroke="rgb(0, 0, 0)" stroke-opacity="0.0" stroke-linecap="round" stroke-linejoin="round"/>
    <path d="M 80.18234252929688 214.3103790283203 C 72.50892639160156 234.1239776611328 110.27980041503906 232.78955078125 101.03229522705078 213.71066284179688 C 93.89871978759766 207.3988037109375 87.11524200439453 206.8056182861328 80.18234252929688 214.3103790283203" stroke-width="2.0" fill="rgb(233, 17, 154)" opacity="0.99781317" stroke="rgb(0, 0, 0)" stroke-opacity="0.0" stroke-linecap="round" stroke-linejoin="round"/>
    <path d="M 236.07879638671875 218.9775390625 C 223.9364013671875 235.95504760742188 259.29541015625 242.42453002929688 256.8458251953125 222.73133850097656 C 252.4013671875 213.3635711669922 243.42759704589844 213.01919555664062 236.07879638671875 218.9775390625" stroke-width="2.0" fill="rgb(234, 18, 154)" opacity="1.000283" stroke="rgb(0, 0, 0)" stroke-opacity="0.0" stroke-linecap="round" stroke-linejoin="round"/>
    <path d="M 297.567626953125 233.95472717285156 C 287.5848083496094 228.65817260742188 271.62042236328125 239.0650634765625 283.4198303222656 249.6653289794922 C 292.39208984375 258.24517822265625 313.17041015625 245.69586181640625 297.567626953125 233.95472717285156" stroke-width="2.0" fill="rgb(233, 17, 151)" opacity="0.9987622" stroke="rgb(0, 0, 0)" stroke-opacity="0.0" stroke-linecap="round" stroke-linejoin="round"/>
    <path d="M 165.796875 221.97801208496094 C 171.31793212890625 232.55894470214844 194.74624633789062 227.25234985351562 183.5993194580078 216.2991485595703 C 177.85906982421875 214.43026733398438 168.03094482421875 213.60800170898438 165.796875 221.97801208496094" stroke-width="2.0" fill="rgb(253, 146, 145)" opacity="1.0083613" stroke="rgb(0, 0, 0)" stroke-opacity="0.0" stroke-linecap="round" stroke-linejoin="round"/>
    <path d="M 154.69534301757812 135.4622802734375 C 154.24217224121094 150.3473358154297 187.16818237304688 142.2920684814453 170.7687530517578 131.51441955566406 C 165.0548858642578 131.82383728027344 160.1601104736328 129.01336669921875 154.69534301757812 135.4622802734375" stroke-width="2.0" fill="rgb(252, 146, 143)" opacity="1.0091562" stroke="rgb(0, 0, 0)" stroke-opacity="0.0" stroke-linecap="round" stroke-linejoin="round"/>
    <path d="M 246.1493377685547 187.19918823242188 C 245.87718200683594 201.61392211914062 275.63958740234375 192.99884033203125 259.7685852050781 182.8337860107422 C 255.0406494140625 182.51556396484375 248.5360565185547 181.57061767578125 246.1493377685547 187.19918823242188" stroke-width="2.0" fill="rgb(253, 146, 145)" opacity="1.0129617" stroke="rgb(0, 0, 0)" stroke-opacity="0.0" stroke-linecap="round" stroke-linejoin="round"/>
    <path d="M 290.2652282714844 207.22640991210938 C 294.7529296875 217.35800170898438 309.86956787109375 213.89076232910156 306.6624755859375 204.76187133789062 C 301.67120361328125 198.60101318359375 293.9365539550781 199.7728271484375 290.2652282714844 207.22640991210938" stroke-width="2.0" fill="rgb(253, 146, 144)" opacity="1.0208124" stroke="rgb(0, 0, 0)" stroke-opacity="0.0" stroke-linecap="round" stroke-linejoin="round"/>
    <path d="M 160.98643493652344 136.96372985839844 C 159.96890258789062 140.10580444335938 164.106201171875 136.50071716308594 165.99734497070312 141.0084686279297 C 163.734375 143.1540069580078 167.68653869628906 137.1008758544922 167.01512145996094 136.9744110107422 L 160.98643493652344 136.96372985839844" stroke-width="2.0" fill="rgb(253, 150, 154)" opacity="1.0012351" stroke="rgb(0, 0, 0)" stroke-opacity="0.0" stroke-linecap="round" stroke-linejoin="round"/>
  </g>
</svg>
