<?xml version="1.0" ?>
<svg xmlns="http://www.w3.org/2000/svg" version="1.1" width="398" height="512">
  <defs/>
  <g>
    <path d="M 0.0 0.0 L 398.0 0.0 L 398.0 512.0 L 0.0 512.0 L 0.0 0.0" stroke-width="0.0" fill="rgb(255, 255, 255)" opacity="1.0" stroke="rgb(0, 0, 0)" stroke-opacity="0.0" stroke-linecap="round" stroke-linejoin="round"/>
    <path d="M 1.0 0.0 L 2.0 511.0 L 397.0 511.0 L 397.0 0.0 L 1.0 0.0" stroke-width="2.0" fill="rgb(255, 255, 255)" opacity="1.0" stroke="rgb(0, 0, 0)" stroke-opacity="0.0" stroke-linecap="round" stroke-linejoin="round"/>
    <path d="M 229.0 107.0 C 208.03155517578125 101.9389877319336 189.34613037109375 124.32562255859375 190.0 144.0 C 179.5330352783203 145.55992126464844 181.97445678710938 135.9156951904297 174.0 130.0 C 163.0885009765625 124.11048126220703 145.1703643798828 136.3546905517578 154.0 149.0 C 141.06588745117188 155.65318298339844 121.8294906616211 160.7932891845703 115.0 178.0 C 114.13440704345703 183.6666717529297 116.26981353759766 189.3333282470703 117.0 195.0 C 105.56582641601562 201.1786346435547 97.20040130615234 211.22677612304688 86.0 210.0 C 79.8647232055664 213.03451538085938 78.7439956665039 217.59507751464844 81.0 223.0 C 89.35106658935547 230.6666717529297 86.14979553222656 238.3333282470703 96.0 246.0 C 95.08584594726562 253.2283935546875 79.44656372070312 259.0354919433594 78.0 268.0 C 86.26467895507812 322.0 89.94255065917969 376.0 96.0 430.0 C 158.6666717529297 461.26800537109375 221.3333282470703 458.4533996582031 284.0 446.0 C 298.3333435058594 440.62982177734375 312.6666564941406 436.6366271972656 327.0 429.0 C 332.7278137207031 375.6666564941406 338.80755615234375 322.3333435058594 344.0 269.0 C 341.7391662597656 259.2286071777344 330.7981262207031 254.37010192871094 323.0 247.0 C 332.9438781738281 232.75421142578125 334.2496337890625 216.67625427246094 315.0 204.0 L 295.0 194.0 C 302.7623291015625 181.8048553466797 301.887451171875 166.08045959472656 285.0 157.0 C 284.1688537597656 142.06288146972656 265.8433837890625 139.1611328125 256.0 147.0 C 255.78433227539062 133.06312561035156 249.25808715820312 110.36062622070312 229.0 107.0" stroke-width="2.0" fill="rgb(219, 124, 98)" opacity="1.0" stroke="rgb(0, 0, 0)" stroke-opacity="0.0" stroke-linecap="round" stroke-linejoin="round"/>
    <path d="M 78.0 269.0 C 74.63023376464844 285.025146484375 94.34097290039062 293.1244201660156 107.0 299.0 C 176.6666717529297 322.7828063964844 246.3333282470703 323.9969177246094 316.0 299.0 C 329.5025329589844 292.5478515625 349.1585693359375 283.14874267578125 343.0 267.0 C 336.60443115234375 256.96197509765625 329.240478515625 255.30270385742188 322.0 247.0 C 331.0291442871094 234.3333282470703 335.2601623535156 221.6666717529297 321.0 209.0 C 312.0 202.84231567382812 303.0 198.16001892089844 294.0 194.0 C 304.36041259765625 183.03866577148438 300.52239990234375 162.03102111816406 284.0 159.0 C 275.41265869140625 169.81573486328125 260.68402099609375 168.6875 252.0 156.0 C 236.55552673339844 176.4365997314453 214.5384979248047 178.98619079589844 196.0 159.0 C 191.3699951171875 152.5154571533203 191.80282592773438 140.78785705566406 182.0 144.0 C 172.96791076660156 157.75819396972656 160.59481811523438 149.28622436523438 150.0 151.0 C 133.2589569091797 155.87831115722656 104.43359375 176.3778076171875 118.0 195.0 C 111.0 200.63058471679688 104.0 200.3330078125 97.0 209.0 C 103.65123748779297 211.9564666748047 104.76834869384766 227.60873413085938 96.0 224.0 C 102.13796997070312 211.88719177246094 92.0489501953125 222.62355041503906 96.0 226.0 L 90.0 228.0 C 87.20708465576172 225.7205352783203 95.1095199584961 224.24085998535156 90.0 224.0 C 89.66239166259766 224.6752166748047 88.94017028808594 230.2863311767578 87.0 230.0 C 85.61917877197266 236.3333282470703 95.84398651123047 242.6666717529297 97.0 249.0 C 89.83727264404297 255.01097106933594 81.30545806884766 259.6946716308594 78.0 269.0" stroke-width="2.0" fill="rgb(250, 159, 155)" opacity="1.0" stroke="rgb(0, 0, 0)" stroke-opacity="0.0" stroke-linecap="round" stroke-linejoin="round"/>
    <path d="M 341.0 287.0 C 274.6666564941406 325.5258483886719 208.3333282470703 323.061279296875 142.0 312.0 C 122.0 307.0111083984375 102.0 299.63470458984375 82.0 288.0 C 86.29784393310547 335.3333435058594 91.6991195678711 382.6666564941406 96.0 430.0 C 173.0 465.1428527832031 250.0 462.1829833984375 327.0 429.0 C 331.4744567871094 382.0 337.73126220703125 335.0 341.0 287.0" stroke-width="2.0" fill="rgb(188, 103, 48)" opacity="1.0" stroke="rgb(0, 0, 0)" stroke-opacity="0.0" stroke-linecap="round" stroke-linejoin="round"/>
    <path d="M 337.0 334.0 C 272.3333435058594 365.9339599609375 207.6666717529297 363.7366943359375 143.0 356.0 C 124.66666412353516 352.36920166015625 106.33333587646484 347.4344177246094 88.0 339.0 C 86.61839294433594 353.3333435058594 90.50956726074219 367.6666564941406 91.0 382.0 C 117.01164245605469 401.734130859375 147.3246612548828 403.186279296875 175.0 407.0 C 227.3333282470703 408.0928039550781 279.6666564941406 411.99847412109375 332.0 381.0 L 337.0 334.0" stroke-width="2.0" fill="rgb(230, 171, 132)" opacity="1.0" stroke="rgb(0, 0, 0)" stroke-opacity="0.0" stroke-linecap="round" stroke-linejoin="round"/>
    <path d="M 341.0 287.0 C 277.3333435058594 324.9215087890625 213.6666717529297 322.0897216796875 150.0 314.0 C 127.66666412353516 308.2922058105469 105.33333587646484 302.5668640136719 83.0 288.0 C 81.27293395996094 302.33599853515625 85.74242401123047 320.9980163574219 87.0 337.0 C 155.0 366.9178161621094 223.0 362.97845458984375 291.0 351.0 C 306.0941467285156 344.9721984863281 326.2054748535156 342.74932861328125 338.0 328.0 C 337.8406677246094 314.6666564941406 342.1377868652344 301.3333435058594 341.0 287.0" stroke-width="2.0" fill="rgb(169, 67, 2)" opacity="1.0" stroke="rgb(0, 0, 0)" stroke-opacity="0.0" stroke-linecap="round" stroke-linejoin="round"/>
    <path d="M 331.0 384.0 C 264.0 417.8177795410156 197.0 410.49444580078125 130.0 402.0 C 117.33333587646484 396.6397705078125 104.66666412353516 390.9640197753906 92.0 386.0 L 96.0 430.0 C 173.0 465.3982238769531 250.0 461.76580810546875 327.0 429.0 L 331.0 384.0" stroke-width="2.0" fill="rgb(163, 65, 2)" opacity="1.0" stroke="rgb(0, 0, 0)" stroke-opacity="0.0" stroke-linecap="round" stroke-linejoin="round"/>
    <path d="M 115.0 180.0 C 112.19207763671875 194.8749542236328 134.40301513671875 207.12301635742188 146.0 202.0 C 150.3333282470703 202.71070861816406 154.6666717529297 207.61422729492188 159.0 210.0 C 180.6666717529297 213.3577423095703 202.3333282470703 214.65994262695312 224.0 214.0 C 228.3333282470703 211.79002380371094 232.6666717529297 213.83181762695312 237.0 209.0 C 241.45242309570312 216.4592742919922 250.1614990234375 204.2401123046875 241.0 198.0 C 238.60838317871094 183.40740966796875 258.5354919433594 174.16336059570312 269.0 183.0 C 276.8480529785156 188.48387145996094 272.574462890625 198.79364013671875 276.0 201.0 C 296.6399841308594 198.67018127441406 311.710205078125 170.78192138671875 287.0 159.0 C 276.9862365722656 168.19549560546875 261.9616394042969 171.993408203125 252.0 157.0 C 232.6666717529297 178.61863708496094 213.3333282470703 178.5369873046875 194.0 157.0 C 190.65589904785156 151.43016052246094 191.23114013671875 141.23036193847656 183.0 144.0 C 174.1363983154297 158.03448486328125 161.47642517089844 151.39187622070312 151.0 151.0 C 139.9105224609375 155.46397399902344 119.2313461303711 163.3213348388672 115.0 180.0" stroke-width="2.0" fill="rgb(251, 163, 160)" opacity="1.0" stroke="rgb(0, 0, 0)" stroke-opacity="0.0" stroke-linecap="round" stroke-linejoin="round"/>
    <path d="M 235.0 50.0 L 233.0 52.0 C 250.4293670654297 70.66666412353516 255.43634033203125 89.33333587646484 234.0 108.0 C 212.8944549560547 96.68688201904297 182.27444458007812 126.59098815917969 192.0 148.0 C 199.88059997558594 171.12094116210938 226.9076690673828 178.67459106445312 244.0 164.0 C 260.5101318359375 146.27804565429688 259.52862548828125 126.07506561279297 239.0 110.0 C 255.38636779785156 92.33333587646484 253.2222137451172 74.66666412353516 241.0 57.0 C 251.3333282470703 58.17417907714844 261.6666564941406 68.27293395996094 272.0 69.0 C 261.9951477050781 61.22940444946289 247.67030334472656 57.10514450073242 235.0 50.0" stroke-width="2.0" fill="rgb(191, 18, 8)" opacity="1.0" stroke="rgb(0, 0, 0)" stroke-opacity="0.0" stroke-linecap="round" stroke-linejoin="round"/>
    <path d="M 96.0 229.0 C 117.17903137207031 255.38719177246094 146.536376953125 260.0032653808594 171.0 263.0 C 203.6666717529297 263.1901550292969 236.3333282470703 264.03619384765625 269.0 245.0 L 222.0 255.0 C 182.6666717529297 249.4641571044922 143.3333282470703 256.651123046875 104.0 223.0 L 96.0 229.0" stroke-width="2.0" fill="rgb(252, 212, 198)" opacity="1.0" stroke="rgb(0, 0, 0)" stroke-opacity="0.0" stroke-linecap="round" stroke-linejoin="round"/>
    <path d="M 332.0 384.0 C 319.0 391.0210266113281 306.0 395.8738098144531 293.0 401.0 C 291.2896423339844 414.6666564941406 285.5299072265625 428.3333435058594 288.0 442.0 C 301.3333435058594 440.94232177734375 314.6666564941406 434.3457946777344 328.0 428.0 C 327.93804931640625 413.6666564941406 329.6561279296875 399.3333435058594 332.0 384.0" stroke-width="2.0" fill="rgb(141, 57, 2)" opacity="1.0" stroke="rgb(0, 0, 0)" stroke-opacity="0.0" stroke-linecap="round" stroke-linejoin="round"/>
    <path d="M 342.0 287.0 L 302.0 307.0 L 302.0 347.0 C 311.83416748046875 342.0794372558594 325.54461669921875 339.2615966796875 337.0 331.0 L 342.0 287.0" stroke-width="2.0" fill="rgb(148, 60, 1)" opacity="1.0" stroke="rgb(0, 0, 0)" stroke-opacity="0.0" stroke-linecap="round" stroke-linejoin="round"/>
    <path d="M 83.0 289.0 C 82.05803680419922 304.6666564941406 85.54557037353516 320.3333435058594 87.0 336.0 C 97.33333587646484 342.3846740722656 107.66666412353516 344.7051696777344 118.0 347.0 C 122.18099975585938 334.0 119.14403533935547 321.0 122.0 308.0 L 83.0 289.0" stroke-width="2.0" fill="rgb(170, 67, 2)" opacity="1.0" stroke="rgb(0, 0, 0)" stroke-opacity="0.0" stroke-linecap="round" stroke-linejoin="round"/>
    <path d="M 115.0 179.0 C 111.06290435791016 195.59898376464844 135.9310302734375 207.17652893066406 148.0 203.0 C 152.3333282470703 204.78042602539062 156.6666717529297 210.56690979003906 161.0 211.0 C 191.0 214.0298614501953 221.0 217.1991729736328 251.0 210.0 L 248.0 207.0 C 210.6666717529297 210.13482666015625 173.3333282470703 212.45785522460938 136.0 190.0 C 127.5145034790039 183.0 126.4065170288086 176.0 127.0 169.0 C 123.28813171386719 170.0289764404297 116.70767211914062 174.2945556640625 115.0 179.0" stroke-width="2.0" fill="rgb(252, 214, 199)" opacity="1.0" stroke="rgb(0, 0, 0)" stroke-opacity="0.0" stroke-linecap="round" stroke-linejoin="round"/>
    <path d="M 124.0 308.0 C 120.072021484375 321.6666564941406 122.820068359375 335.3333435058594 122.0 349.0 C 131.0 352.0540771484375 140.0 353.8763732910156 149.0 354.0 L 151.0 316.0 C 142.3333282470703 310.9206237792969 133.6666717529297 311.0812072753906 124.0 308.0" stroke-width="2.0" fill="rgb(187, 75, 1)" opacity="1.0" stroke="rgb(0, 0, 0)" stroke-opacity="0.0" stroke-linecap="round" stroke-linejoin="round"/>
    <path d="M 122.0 400.0 L 121.0 436.0 C 128.6666717529297 440.34912109375 136.3333282470703 440.4820556640625 144.0 443.0 C 148.27809143066406 430.3333435058594 144.05064392089844 417.6666564941406 147.0 405.0 C 139.0 402.1223449707031 131.0 403.84698486328125 122.0 400.0" stroke-width="2.0" fill="rgb(186, 76, 2)" opacity="1.0" stroke="rgb(0, 0, 0)" stroke-opacity="0.0" stroke-linecap="round" stroke-linejoin="round"/>
    <path d="M 248.0 183.0 C 229.1605987548828 200.0631561279297 263.8590087890625 222.44300842285156 273.0 198.0 C 276.0910339355469 185.4953155517578 258.5310363769531 175.69667053222656 248.0 183.0" stroke-width="2.0" fill="rgb(249, 102, 101)" opacity="1.0" stroke="rgb(0, 0, 0)" stroke-opacity="0.0" stroke-linecap="round" stroke-linejoin="round"/>
    <path d="M 259.0 145.0 C 239.36904907226562 165.5043182373047 287.17413330078125 175.58761596679688 285.0 152.0 C 280.0382080078125 141.431396484375 268.11376953125 139.760009765625 259.0 145.0" stroke-width="2.0" fill="rgb(234, 19, 156)" opacity="1.0" stroke="rgb(0, 0, 0)" stroke-opacity="0.0" stroke-linecap="round" stroke-linejoin="round"/>
    <path d="M 167.0 168.0 C 159.7884063720703 185.3379364013672 190.84873962402344 193.62167358398438 197.0 175.0 C 195.37551879882812 160.93084716796875 177.3623809814453 157.7600555419922 167.0 168.0" stroke-width="2.0" fill="rgb(235, 19, 154)" opacity="1.0" stroke="rgb(0, 0, 0)" stroke-opacity="0.0" stroke-linecap="round" stroke-linejoin="round"/>
    <path d="M 151.0 138.0 C 149.67095947265625 158.23046875 186.67031860351562 154.911376953125 181.0 136.0 C 171.8345489501953 125.33155059814453 157.89466857910156 126.45530700683594 151.0 138.0" stroke-width="2.0" fill="rgb(246, 109, 109)" opacity="1.0" stroke="rgb(0, 0, 0)" stroke-opacity="0.0" stroke-linecap="round" stroke-linejoin="round"/>
    <path d="M 165.0 221.0 C 162.9171142578125 239.3893585205078 204.8997039794922 233.72218322753906 188.0 216.0 C 181.22601318359375 213.27122497558594 169.47970581054688 212.07481384277344 165.0 221.0" stroke-width="2.0" fill="rgb(247, 117, 116)" opacity="1.0" stroke="rgb(0, 0, 0)" stroke-opacity="0.0" stroke-linecap="round" stroke-linejoin="round"/>
    <path d="M 299.0 200.0 C 278.10784912109375 205.3595733642578 298.1815185546875 231.85047912597656 311.0 217.0 C 315.5425720214844 210.04922485351562 308.83795166015625 198.74493408203125 299.0 200.0" stroke-width="2.0" fill="rgb(248, 111, 108)" opacity="1.0" stroke="rgb(0, 0, 0)" stroke-opacity="0.0" stroke-linecap="round" stroke-linejoin="round"/>
    <path d="M 234.0 50.0 C 236.9667205810547 60.0 247.89735412597656 70.0 249.0 80.0 C 250.53421020507812 89.33333587646484 241.9091339111328 98.66666412353516 234.0 108.0 C 240.6895751953125 114.08576202392578 246.92327880859375 95.90530395507812 251.0 91.0 C 252.23974609375 79.66666412353516 248.77171325683594 68.33333587646484 240.0 57.0 C 249.3333282470703 57.414615631103516 258.6666564941406 64.78890991210938 268.0 69.0 C 269.1623840332031 68.28205108642578 272.440185546875 71.28205108642578 272.0 68.0 L 234.0 50.0" stroke-width="2.0" fill="rgb(59, 149, 58)" opacity="1.0" stroke="rgb(0, 0, 0)" stroke-opacity="0.0" stroke-linecap="round" stroke-linejoin="round"/>
    <path d="M 207.0 238.0 C 194.5468292236328 259.92889404296875 242.3645477294922 256.2760009765625 223.0 236.0 C 218.0 234.8812255859375 213.0 233.8283233642578 207.0 238.0" stroke-width="2.0" fill="rgb(235, 23, 154)" opacity="1.0" stroke="rgb(0, 0, 0)" stroke-opacity="0.0" stroke-linecap="round" stroke-linejoin="round"/>
    <path d="M 136.0 206.0 C 118.18629455566406 227.26222229003906 168.81370544433594 227.26222229003906 151.0 206.0 C 146.3333282470703 203.8866424560547 141.6666717529297 202.35519409179688 136.0 206.0" stroke-width="2.0" fill="rgb(234, 25, 154)" opacity="1.0" stroke="rgb(0, 0, 0)" stroke-opacity="0.0" stroke-linecap="round" stroke-linejoin="round"/>
    <path d="M 80.0 214.0 C 72.01993560791016 232.37106323242188 109.52426147460938 230.99774169921875 100.0 213.0 C 93.66666412353516 207.63172912597656 87.33333587646484 206.96127319335938 80.0 214.0" stroke-width="2.0" fill="rgb(232, 22, 154)" opacity="1.0" stroke="rgb(0, 0, 0)" stroke-opacity="0.0" stroke-linecap="round" stroke-linejoin="round"/>
    <path d="M 236.0 218.0 C 224.5539093017578 234.22125244140625 259.076416015625 240.66358947753906 256.0 222.0 C 251.47679138183594 213.94342041015625 243.13821411132812 212.68150329589844 236.0 218.0" stroke-width="2.0" fill="rgb(234, 21, 154)" opacity="1.0" stroke="rgb(0, 0, 0)" stroke-opacity="0.0" stroke-linecap="round" stroke-linejoin="round"/>
    <path d="M 296.0 233.0 C 288.2114562988281 229.04734802246094 272.1734313964844 239.51768493652344 283.0 249.0 C 290.7233581542969 256.8486022949219 311.26629638671875 244.3132781982422 296.0 233.0" stroke-width="2.0" fill="rgb(232, 19, 151)" opacity="1.0" stroke="rgb(0, 0, 0)" stroke-opacity="0.0" stroke-linecap="round" stroke-linejoin="round"/>
    <path d="M 165.0 222.0 C 170.83795166015625 232.1659698486328 193.8728790283203 226.6734161376953 183.0 215.0 C 177.83457946777344 213.6760711669922 167.89378356933594 213.10385131835938 165.0 222.0" stroke-width="2.0" fill="rgb(250, 140, 139)" opacity="1.0" stroke="rgb(0, 0, 0)" stroke-opacity="0.0" stroke-linecap="round" stroke-linejoin="round"/>
    <path d="M 154.0 135.0 C 153.79592895507812 150.1093292236328 186.347900390625 141.8271942138672 170.0 131.0 C 165.0 131.61093139648438 160.0 128.6126708984375 154.0 135.0" stroke-width="2.0" fill="rgb(251, 140, 138)" opacity="1.0" stroke="rgb(0, 0, 0)" stroke-opacity="0.0" stroke-linecap="round" stroke-linejoin="round"/>
    <path d="M 245.0 187.0 C 245.16453552246094 201.05374145507812 274.7073974609375 192.20864868164062 259.0 182.0 C 254.97520446777344 181.97817993164062 248.36659240722656 181.1237335205078 245.0 187.0" stroke-width="2.0" fill="rgb(251, 140, 138)" opacity="1.0" stroke="rgb(0, 0, 0)" stroke-opacity="0.0" stroke-linecap="round" stroke-linejoin="round"/>
    <path d="M 290.0 208.0 C 294.5494384765625 217.27505493164062 309.6467590332031 213.67755126953125 307.0 204.0 C 301.9830322265625 198.5372772216797 294.3560485839844 200.20123291015625 290.0 208.0" stroke-width="2.0" fill="rgb(251, 138, 135)" opacity="1.0" stroke="rgb(0, 0, 0)" stroke-opacity="0.0" stroke-linecap="round" stroke-linejoin="round"/>
    <path d="M 161.0 137.0 C 159.97325134277344 140.10350036621094 164.11007690429688 136.4965057373047 166.0 141.0 C 163.72650146484375 143.14956665039062 167.6709442138672 137.09402465820312 167.0 137.0 L 161.0 137.0" stroke-width="2.0" fill="rgb(253, 149, 152)" opacity="1.0" stroke="rgb(0, 0, 0)" stroke-opacity="0.0" stroke-linecap="round" stroke-linejoin="round"/>
  </g>
</svg>
