<?xml version="1.0" ?>
<svg xmlns="http://www.w3.org/2000/svg" version="1.1" width="512" height="512">
  <defs/>
  <g>
    <path d="M 0.0 0.0 L 512.0 0.0 L 512.0 512.0 L 0.0 512.0 L 0.0 0.0" stroke-width="0.0" fill="rgb(255, 255, 255)" opacity="1.0" stroke="rgb(0, 0, 0)" stroke-opacity="0.0" stroke-linecap="round" stroke-linejoin="round"/>
    <path d="M 0.0 0.0 L 0.0 511.0 L 511.0 511.0 L 511.0 0.0 L 0.0 0.0" stroke-width="2.0" fill="rgb(255, 255, 255)" opacity="1.0" stroke="rgb(0, 0, 0)" stroke-opacity="0.0" stroke-linecap="round" stroke-linejoin="round"/>
    <path d="M 378.0 152.0 C 352.3333435058594 132.11795043945312 326.6666564941406 122.32347106933594 301.0 118.0 C 296.7890319824219 109.62147521972656 298.69024658203125 94.52851867675781 287.0 91.0 C 267.3333435058594 108.2392578125 247.6666717529297 107.90591430664062 228.0 111.0 C 233.84219360351562 122.04766845703125 219.7511444091797 129.67160034179688 222.0 139.0 C 204.39398193359375 146.31483459472656 207.35012817382812 115.7278060913086 193.0 123.0 C 150.3396453857422 130.25900268554688 97.37081146240234 181.7014923095703 88.0 225.0 C 80.85269165039062 253.0 79.76554870605469 281.0 85.0 309.0 C 76.35015869140625 314.70733642578125 56.6844482421875 301.5238037109375 60.0 318.0 C 74.71580505371094 360.6666564941406 85.59471893310547 403.3333435058594 104.0 446.0 C 144.3333282470703 457.58526611328125 184.6666717529297 457.6383056640625 225.0 464.0 L 281.0 448.0 C 299.3333435058594 452.53240966796875 317.6666564941406 455.67913818359375 336.0 457.0 C 364.3333435058594 448.1381530761719 392.6666564941406 447.4461669921875 421.0 432.0 C 432.1695861816406 407.3333435058594 444.1316223144531 382.6666564941406 453.0 358.0 C 439.0 358.56048583984375 425.0 360.36224365234375 411.0 359.0 C 426.99090576171875 357.4223327636719 426.8592529296875 335.2355041503906 432.0 322.0 C 441.0400390625 265.9938049316406 435.884033203125 207.34164428710938 378.0 152.0" stroke-width="2.0" fill="rgb(144, 168, 170)" opacity="1.0" stroke="rgb(0, 0, 0)" stroke-opacity="0.0" stroke-linecap="round" stroke-linejoin="round"/>
    <path d="M 164.0 207.0 C 154.4461212158203 217.6666717529297 152.40579223632812 228.3333282470703 149.0 239.0 C 152.38934326171875 251.56341552734375 168.7102508544922 267.97259521484375 155.0 281.0 C 161.91294860839844 290.9119873046875 141.90065002441406 307.2080078125 160.0 311.0 C 170.04554748535156 315.1172790527344 181.94818115234375 315.6049499511719 183.0 301.0 C 184.0 298.3333435058594 185.0 301.6666564941406 186.0 302.0 C 198.15634155273438 339.6666564941406 208.9639129638672 377.3333435058594 220.0 415.0 L 226.0 418.0 L 350.0 416.0 C 353.7162780761719 396.0 340.7668762207031 376.0 334.0 356.0 C 321.3333435058594 357.5340576171875 308.6666564941406 360.42828369140625 296.0 359.0 C 274.51080322265625 325.7643737792969 238.91513061523438 358.4078674316406 219.0 349.0 C 224.954345703125 348.5361328125 219.14321899414062 348.52484130859375 224.0 344.0 C 246.08084106445312 335.647216796875 268.5779724121094 341.5660400390625 288.0 320.0 C 302.6666564941406 310.30841064453125 317.3333435058594 316.2203369140625 332.0 326.0 C 337.61669921875 325.6017150878906 333.9117431640625 317.6199645996094 339.0 314.0 C 344.99853515625 338.01605224609375 374.0166931152344 328.0669250488281 392.0 323.0 L 395.0 318.0 C 383.1528625488281 282.6666564941406 374.88555908203125 247.3333282470703 356.0 212.0 C 335.3333435058594 196.45948791503906 314.6666564941406 190.4847869873047 294.0 181.0 C 286.9300537109375 189.7140655517578 280.703857421875 195.88912963867188 282.0 205.0 C 276.7209167480469 217.0 261.3824157714844 229.0 256.0 241.0 C 248.7552490234375 231.25131225585938 239.7765350341797 219.8226318359375 232.0 208.0 C 225.2352294921875 196.0 238.85693359375 184.0 227.0 172.0 C 209.7231903076172 192.85069274902344 185.43675231933594 189.50616455078125 164.0 207.0" stroke-width="2.0" fill="rgb(23, 118, 136)" opacity="1.0" stroke="rgb(0, 0, 0)" stroke-opacity="0.0" stroke-linecap="round" stroke-linejoin="round"/>
    <path d="M 58.0 312.0 C 73.27080535888672 357.0 84.26534271240234 402.0 105.0 447.0 C 146.0 454.55731201171875 187.0 460.5582275390625 228.0 463.0 C 253.6666717529297 455.9326171875 279.3333435058594 441.4178771972656 305.0 454.0 C 342.6666564941406 460.717041015625 380.3333435058594 446.0913391113281 418.0 436.0 C 434.42987060546875 411.0 440.2185974121094 386.0 454.0 361.0 L 453.0 356.0 C 426.3333435058594 356.95709228515625 399.6666564941406 357.638427734375 373.0 365.0 C 363.7485046386719 384.63641357421875 360.9931945800781 401.4570007324219 351.0 418.0 C 306.6666564941406 419.0797119140625 262.3333435058594 420.179931640625 218.0 417.0 C 207.5481719970703 386.6666564941406 203.19557189941406 356.3333435058594 187.0 326.0 C 145.0 315.38037109375 103.0 315.23529052734375 61.0 308.0 L 58.0 312.0" stroke-width="2.0" fill="rgb(162, 163, 175)" opacity="1.0" stroke="rgb(0, 0, 0)" stroke-opacity="0.0" stroke-linecap="round" stroke-linejoin="round"/>
    <path d="M 58.0 310.0 C 71.8993911743164 355.6666564941406 84.253662109375 401.3333435058594 105.0 447.0 C 146.0 453.6495361328125 187.0 460.3670349121094 228.0 462.0 C 231.2252655029297 439.26043701171875 214.03456115722656 419.1099548339844 212.0 396.0 C 200.1318359375 372.3333435058594 198.17385864257812 348.6666564941406 185.0 325.0 C 146.3333282470703 314.8582458496094 107.66666412353516 317.005126953125 69.0 308.0 L 58.0 310.0" stroke-width="2.0" fill="rgb(198, 209, 221)" opacity="1.0" stroke="rgb(0, 0, 0)" stroke-opacity="0.0" stroke-linecap="round" stroke-linejoin="round"/>
    <path d="M 302.0 118.0 C 300.49627685546875 138.3333282470703 311.53741455078125 158.6666717529297 297.0 179.0 C 322.3865966796875 193.94552612304688 362.20623779296875 201.5704345703125 370.0 237.0 C 381.800048828125 277.0 400.5914001464844 317.0 403.0 357.0 C 420.6645202636719 362.3731384277344 426.197265625 345.51080322265625 430.0 331.0 C 442.6962890625 271.49969482421875 438.002685546875 207.22845458984375 377.0 151.0 C 352.3333435058594 131.938232421875 327.6666564941406 122.8298110961914 302.0 118.0" stroke-width="2.0" fill="rgb(242, 239, 244)" opacity="1.0" stroke="rgb(0, 0, 0)" stroke-opacity="0.0" stroke-linecap="round" stroke-linejoin="round"/>
    <path d="M 202.0 122.0 C 150.9587860107422 123.41883087158203 88.47723388671875 190.55816650390625 84.0 240.0 C 80.87531280517578 263.0 78.51116180419922 286.0 86.0 309.0 C 100.626220703125 310.1868591308594 120.96378326416016 320.9307861328125 127.0 300.0 C 129.8600616455078 281.0 110.59007263183594 262.0 130.0 243.0 C 147.08865356445312 244.04476928710938 138.0269775390625 221.96116638183594 140.0 211.0 C 144.44642639160156 200.3333282470703 140.39122009277344 189.6666717529297 145.0 179.0 C 152.37893676757812 192.67132568359375 144.97329711914062 213.32867431640625 150.0 227.0 C 160.4943389892578 196.95156860351562 194.47508239746094 190.59906005859375 217.0 181.0 C 227.84432983398438 172.84197998046875 224.66636657714844 160.64944458007812 212.0 163.0 C 191.08847045898438 151.5354461669922 208.866455078125 136.09597778320312 202.0 122.0" stroke-width="2.0" fill="rgb(241, 239, 242)" opacity="1.0" stroke="rgb(0, 0, 0)" stroke-opacity="0.0" stroke-linecap="round" stroke-linejoin="round"/>
    <path d="M 290.0 91.0 C 269.3333435058594 103.7008056640625 248.6666717529297 109.42596435546875 228.0 111.0 C 232.18089294433594 121.2801284790039 219.62083435058594 129.54811096191406 220.0 139.0 C 214.49923706054688 138.5547637939453 206.89752197265625 130.66665649414062 203.0 141.0 C 199.8704071044922 150.41932678222656 210.35549926757812 164.73031616210938 221.0 161.0 C 245.66587829589844 179.37783813476562 216.77078247070312 204.4750213623047 246.0 218.0 C 261.39031982421875 224.48489379882812 285.1873779296875 212.75311279296875 283.0 193.0 C 314.403564453125 166.1398162841797 298.6045227050781 135.47390747070312 299.0 107.0 C 296.20709228515625 102.0 296.8507385253906 97.0 290.0 91.0" stroke-width="2.0" fill="rgb(237, 178, 116)" opacity="1.0" stroke="rgb(0, 0, 0)" stroke-opacity="0.0" stroke-linecap="round" stroke-linejoin="round"/>
    <path d="M 454.0 355.0 C 427.6666564941406 356.72607421875 401.3333435058594 358.9335021972656 375.0 364.0 C 362.7415771484375 386.0 358.9242248535156 408.0 347.0 430.0 C 325.66552734375 436.4259948730469 301.6681823730469 438.7492980957031 282.0 447.0 C 327.3333435058594 467.3496398925781 372.6666564941406 447.892333984375 418.0 436.0 C 433.6025695800781 409.3333435058594 445.4018249511719 382.6666564941406 454.0 355.0" stroke-width="2.0" fill="rgb(54, 41, 77)" opacity="1.0" stroke="rgb(0, 0, 0)" stroke-opacity="0.0" stroke-linecap="round" stroke-linejoin="round"/>
    <path d="M 274.0 337.0 C 276.57489013671875 344.56182861328125 290.57672119140625 349.7530517578125 297.0 358.0 C 309.6666564941406 358.650634765625 322.3333435058594 358.2811584472656 335.0 353.0 C 345.3333435058594 361.1007385253906 355.6666564941406 366.900146484375 366.0 372.0 C 374.8337707519531 354.27130126953125 389.1883239746094 362.64544677734375 401.0 356.0 C 401.1947937011719 345.0 398.9927062988281 334.0 393.0 323.0 C 365.0 335.1549987792969 337.0 330.9610595703125 309.0 316.0 C 297.6648864746094 313.4411315917969 280.24603271484375 322.52008056640625 274.0 337.0" stroke-width="2.0" fill="rgb(244, 177, 115)" opacity="1.0" stroke="rgb(0, 0, 0)" stroke-opacity="0.0" stroke-linecap="round" stroke-linejoin="round"/>
    <path d="M 302.0 90.0 C 287.0266418457031 85.87374877929688 292.25567626953125 69.85773468017578 276.0 65.0 C 253.0726776123047 58.309932708740234 225.6931610107422 60.611427307128906 206.0 85.0 C 191.6547393798828 78.17427062988281 207.66810607910156 90.3076400756836 199.0 97.0 C 201.4549102783203 112.55963134765625 202.0702362060547 132.55543518066406 220.0 141.0 C 216.38461303710938 133.9056396484375 222.51502990722656 129.57533264160156 227.0 123.0 C 228.32733154296875 118.66666412353516 225.10963439941406 114.33333587646484 226.0 110.0 C 247.3333282470703 108.7346420288086 268.6666564941406 102.48773956298828 290.0 90.0 C 299.7576904296875 97.67459106445312 298.8020324707031 107.98941040039062 301.0 114.0 C 302.8575134277344 106.33333587646484 306.6880798339844 98.66666412353516 302.0 90.0" stroke-width="2.0" fill="rgb(55, 40, 75)" opacity="1.0" stroke="rgb(0, 0, 0)" stroke-opacity="0.0" stroke-linecap="round" stroke-linejoin="round"/>
    <path d="M 220.0 426.0 C 228.4988555908203 436.3333435058594 226.85623168945312 446.6666564941406 233.0 457.0 C 235.20352172851562 456.370361328125 238.5166473388672 447.5589294433594 239.0 454.0 C 275.0 447.6822509765625 311.0 435.8180847167969 347.0 428.0 L 350.0 418.0 L 220.0 418.0 L 220.0 426.0" stroke-width="2.0" fill="rgb(225, 201, 151)" opacity="1.0" stroke="rgb(0, 0, 0)" stroke-opacity="0.0" stroke-linecap="round" stroke-linejoin="round"/>
    <path d="M 262.0 347.0 L 261.0 415.0 L 304.0 415.0 L 324.0 394.0 L 262.0 347.0" stroke-width="2.0" fill="rgb(21, 133, 149)" opacity="1.0" stroke="rgb(0, 0, 0)" stroke-opacity="0.0" stroke-linecap="round" stroke-linejoin="round"/>
    <path d="M 131.0 244.0 C 116.4275894165039 260.3333435058594 125.35456848144531 276.6666564941406 130.0 293.0 C 131.2529754638672 299.6666564941406 123.22203063964844 306.3333435058594 124.0 313.0 C 141.0 314.92913818359375 158.0 318.02215576171875 175.0 318.0 C 171.8802032470703 311.06024169921875 140.17276000976562 311.7005615234375 155.0 294.0 C 150.76742553710938 280.04931640625 167.99505615234375 268.4324035644531 153.0 254.0 C 155.18035888671875 242.3771209716797 138.95240783691406 243.89292907714844 131.0 244.0" stroke-width="2.0" fill="rgb(243, 180, 116)" opacity="1.0" stroke="rgb(0, 0, 0)" stroke-opacity="0.0" stroke-linecap="round" stroke-linejoin="round"/>
    <path d="M 220.0 421.0 C 223.4192352294922 434.6666564941406 230.39556884765625 448.3333435058594 230.0 462.0 C 258.1566467285156 455.3983459472656 281.4294738769531 446.96484375 306.0 436.0 C 317.0553894042969 437.7732849121094 314.69476318359375 433.63922119140625 305.0 432.0 L 220.0 421.0" stroke-width="2.0" fill="rgb(207, 208, 211)" opacity="1.0" stroke="rgb(0, 0, 0)" stroke-opacity="0.0" stroke-linecap="round" stroke-linejoin="round"/>
    <path d="M 221.0 418.0 C 251.3340301513672 427.0703125 285.9994812011719 424.7977600097656 318.0 435.0 C 329.08477783203125 431.66839599609375 347.467529296875 434.39862060546875 351.0 419.0 L 221.0 418.0" stroke-width="2.0" fill="rgb(244, 189, 70)" opacity="1.0" stroke="rgb(0, 0, 0)" stroke-opacity="0.0" stroke-linecap="round" stroke-linejoin="round"/>
    <path d="M 172.0 257.0 C 172.11038208007812 261.4130554199219 166.57818603515625 270.88787841796875 161.0 267.0 C 161.07568359375 272.1641540527344 162.06309509277344 278.2860412597656 155.0 282.0 C 158.69664001464844 290.0 153.70411682128906 298.0 152.0 306.0 C 161.06924438476562 309.7540588378906 172.57247924804688 317.760986328125 180.0 310.0 C 187.14752197265625 292.3333435058594 175.6501007080078 274.6666564941406 172.0 257.0" stroke-width="2.0" fill="rgb(25, 103, 122)" opacity="1.0" stroke="rgb(0, 0, 0)" stroke-opacity="0.0" stroke-linecap="round" stroke-linejoin="round"/>
    <path d="M 339.0 370.0 C 331.709228515625 383.2138671875 319.87298583984375 402.70477294921875 306.0 416.0 L 351.0 415.0 C 351.8728332519531 400.3333435058594 346.3869323730469 385.6666564941406 339.0 370.0" stroke-width="2.0" fill="rgb(22, 92, 115)" opacity="1.0" stroke="rgb(0, 0, 0)" stroke-opacity="0.0" stroke-linecap="round" stroke-linejoin="round"/>
    <path d="M 348.0 431.0 C 326.33221435546875 434.51513671875 302.0014953613281 439.71392822265625 282.0 447.0 C 301.3333435058594 453.871826171875 320.6666564941406 457.4839172363281 340.0 456.0 C 338.4679260253906 449.0959167480469 346.4661560058594 440.2864685058594 348.0 431.0" stroke-width="2.0" fill="rgb(58, 54, 95)" opacity="1.0" stroke="rgb(0, 0, 0)" stroke-opacity="0.0" stroke-linecap="round" stroke-linejoin="round"/>
    <path d="M 334.0 354.0 C 341.9883728027344 372.66815185546875 349.8955383300781 393.9980163574219 354.0 411.0 C 359.169921875 398.6666564941406 364.75823974609375 386.3333435058594 367.0 374.0 L 334.0 354.0" stroke-width="2.0" fill="rgb(235, 234, 236)" opacity="1.0" stroke="rgb(0, 0, 0)" stroke-opacity="0.0" stroke-linecap="round" stroke-linejoin="round"/>
    <path d="M 201.0 105.0 C 202.50564575195312 118.1427001953125 203.35528564453125 133.26011657714844 220.0 141.0 C 213.9102325439453 130.4666290283203 233.09051513671875 124.51929473876953 226.0 113.0 C 220.20387268066406 103.31676483154297 210.52371215820312 104.34866333007812 201.0 105.0" stroke-width="2.0" fill="rgb(56, 40, 73)" opacity="1.0" stroke="rgb(0, 0, 0)" stroke-opacity="0.0" stroke-linecap="round" stroke-linejoin="round"/>
    <path d="M 340.0 361.0 L 355.0 407.0 C 359.3576354980469 396.3333435058594 363.1969299316406 385.6666564941406 366.0 375.0 L 340.0 361.0" stroke-width="2.0" fill="rgb(241, 239, 242)" opacity="1.0" stroke="rgb(0, 0, 0)" stroke-opacity="0.0" stroke-linecap="round" stroke-linejoin="round"/>
    <path d="M 242.0 186.0 C 252.31507873535156 195.99429321289062 263.03875732421875 228.63058471679688 278.0 210.0 C 280.39898681640625 204.6666717529297 281.8861999511719 199.3333282470703 282.0 194.0 C 269.0 197.3824462890625 256.0 193.67437744140625 242.0 186.0" stroke-width="2.0" fill="rgb(239, 149, 91)" opacity="1.0" stroke="rgb(0, 0, 0)" stroke-opacity="0.0" stroke-linecap="round" stroke-linejoin="round"/>
    <path d="M 235.0 210.0 C 244.06422424316406 225.3333282470703 260.5054626464844 240.6666717529297 254.0 256.0 C 262.3160400390625 257.4021911621094 256.10791015625 243.09669494628906 257.0 238.0 C 259.7883605957031 230.6666717529297 268.2091979980469 223.3333282470703 274.0 216.0 C 261.3333435058594 221.0850067138672 248.6666717529297 222.92640686035156 235.0 210.0" stroke-width="2.0" fill="rgb(224, 230, 212)" opacity="1.0" stroke="rgb(0, 0, 0)" stroke-opacity="0.0" stroke-linecap="round" stroke-linejoin="round"/>
    <path d="M 226.0 436.0 L 231.0 452.0 C 243.0 447.95562744140625 255.0 444.7254333496094 267.0 441.0 L 226.0 436.0" stroke-width="2.0" fill="rgb(90, 94, 108)" opacity="1.0" stroke="rgb(0, 0, 0)" stroke-opacity="0.0" stroke-linecap="round" stroke-linejoin="round"/>
    <path d="M 137.0 369.0 C 136.94386291503906 377.5536804199219 125.8836441040039 374.9272766113281 129.0 384.0 C 128.76976013183594 398.518310546875 157.22610473632812 400.6849670410156 145.0 385.0 C 147.93397521972656 377.10552978515625 136.51852416992188 374.866943359375 137.0 369.0" stroke-width="2.0" fill="rgb(240, 245, 246)" opacity="1.0" stroke="rgb(0, 0, 0)" stroke-opacity="0.0" stroke-linecap="round" stroke-linejoin="round"/>
    <path d="M 271.0 335.0 L 209.0 350.0 C 229.6666717529297 348.1551208496094 250.3333282470703 345.86865234375 271.0 341.0 L 271.0 335.0" stroke-width="2.0" fill="rgb(25, 151, 164)" opacity="1.0" stroke="rgb(0, 0, 0)" stroke-opacity="0.0" stroke-linecap="round" stroke-linejoin="round"/>
    <path d="M 146.0 180.0 C 142.1305694580078 199.0016326904297 141.76695251464844 222.3321075439453 142.0 243.0 L 147.0 242.0 L 146.0 180.0" stroke-width="2.0" fill="rgb(68, 174, 181)" opacity="1.0" stroke="rgb(0, 0, 0)" stroke-opacity="0.0" stroke-linecap="round" stroke-linejoin="round"/>
    <path d="M 271.0 335.0 L 235.0 342.0 L 234.0 347.0 C 246.3333282470703 347.28240966796875 258.6666564941406 341.9392395019531 271.0 341.0 L 271.0 335.0" stroke-width="2.0" fill="rgb(29, 180, 192)" opacity="1.0" stroke="rgb(0, 0, 0)" stroke-opacity="0.0" stroke-linecap="round" stroke-linejoin="round"/>
    <path d="M 145.0 315.0 C 155.38755798339844 317.32794189453125 168.25978088378906 321.71551513671875 177.0 317.0 C 169.99154663085938 311.8592529296875 158.67300415039062 313.0886535644531 150.0 306.0 L 145.0 315.0" stroke-width="2.0" fill="rgb(228, 150, 100)" opacity="1.0" stroke="rgb(0, 0, 0)" stroke-opacity="0.0" stroke-linecap="round" stroke-linejoin="round"/>
    <path d="M 291.0 85.0 C 285.6811218261719 90.33333587646484 297.85491943359375 95.66666412353516 298.0 101.0 L 300.0 115.0 C 306.087158203125 105.47306060791016 307.55902099609375 86.71258544921875 291.0 85.0" stroke-width="2.0" fill="rgb(49, 36, 67)" opacity="1.0" stroke="rgb(0, 0, 0)" stroke-opacity="0.0" stroke-linecap="round" stroke-linejoin="round"/>
    <path d="M 143.0 206.0 L 142.0 243.0 L 146.0 243.0 L 147.0 206.0 L 143.0 206.0" stroke-width="2.0" fill="rgb(55, 196, 204)" opacity="1.0" stroke="rgb(0, 0, 0)" stroke-opacity="0.0" stroke-linecap="round" stroke-linejoin="round"/>
    <path d="M 283.0 167.0 C 274.0 168.66452026367188 265.0 170.70301818847656 256.0 170.0 C 262.79461669921875 178.38980102539062 277.7472229003906 179.2894744873047 283.0 167.0" stroke-width="2.0" fill="rgb(208, 176, 155)" opacity="1.0" stroke="rgb(0, 0, 0)" stroke-opacity="0.0" stroke-linecap="round" stroke-linejoin="round"/>
    <path d="M 304.0 306.0 C 302.7095642089844 315.3253479003906 313.14239501953125 316.2197570800781 320.0 318.0 C 321.03814697265625 306.9821472167969 315.1413879394531 304.0053405761719 304.0 306.0" stroke-width="2.0" fill="rgb(21, 98, 118)" opacity="1.0" stroke="rgb(0, 0, 0)" stroke-opacity="0.0" stroke-linecap="round" stroke-linejoin="round"/>
    <path d="M 256.0 125.0 C 248.89315795898438 125.29313659667969 239.4794921875 125.15911865234375 234.0 134.0 C 240.99407958984375 132.85414123535156 253.7342529296875 133.5663604736328 256.0 125.0" stroke-width="2.0" fill="rgb(78, 44, 47)" opacity="1.0" stroke="rgb(0, 0, 0)" stroke-opacity="0.0" stroke-linecap="round" stroke-linejoin="round"/>
    <path d="M 185.0 307.0 C 175.72117614746094 315.64019775390625 180.13050842285156 322.4661865234375 190.0 326.0 C 191.40423583984375 319.6666564941406 186.106201171875 313.3333435058594 185.0 307.0" stroke-width="2.0" fill="rgb(239, 242, 244)" opacity="1.0" stroke="rgb(0, 0, 0)" stroke-opacity="0.0" stroke-linecap="round" stroke-linejoin="round"/>
    <path d="M 240.0 142.0 C 237.31076049804688 149.49546813964844 260.63226318359375 147.72100830078125 251.0 138.0 C 247.96054077148438 137.8397674560547 242.38645935058594 137.4033966064453 240.0 142.0" stroke-width="2.0" fill="rgb(160, 139, 133)" opacity="1.0" stroke="rgb(0, 0, 0)" stroke-opacity="0.0" stroke-linecap="round" stroke-linejoin="round"/>
    <path d="M 259.0 444.0 C 265.7897644042969 449.9189147949219 273.3404541015625 452.3241882324219 280.0 443.0 C 273.70086669921875 446.53521728515625 268.11138916015625 447.08306884765625 268.0 439.0 C 270.8333435058594 441.5 264.8333435058594 439.5 261.0 438.0 C 263.78900146484375 440.4228820800781 269.5727233886719 442.383056640625 259.0 444.0" stroke-width="2.0" fill="rgb(222, 224, 230)" opacity="1.0" stroke="rgb(0, 0, 0)" stroke-opacity="0.0" stroke-linecap="round" stroke-linejoin="round"/>
    <path d="M 280.0 119.0 C 276.3933410644531 127.48299407958984 303.9903869628906 125.73665618896484 294.0 119.0 L 280.0 119.0" stroke-width="2.0" fill="rgb(78, 46, 50)" opacity="1.0" stroke="rgb(0, 0, 0)" stroke-opacity="0.0" stroke-linecap="round" stroke-linejoin="round"/>
    <path d="M 293.0 132.0 C 280.5389404296875 124.49716186523438 280.24481201171875 146.8111114501953 293.0 137.0 L 293.0 132.0" stroke-width="2.0" fill="rgb(145, 124, 117)" opacity="1.0" stroke="rgb(0, 0, 0)" stroke-opacity="0.0" stroke-linecap="round" stroke-linejoin="round"/>
    <path d="M 352.0 390.0 C 354.2606201171875 395.0169677734375 350.49224853515625 402.6439514160156 355.0 406.0 C 355.32220458984375 399.300537109375 363.82171630859375 390.5818786621094 352.0 390.0" stroke-width="2.0" fill="rgb(242, 238, 244)" opacity="1.0" stroke="rgb(0, 0, 0)" stroke-opacity="0.0" stroke-linecap="round" stroke-linejoin="round"/>
    <path d="M 108.0 450.0 C 108.17463684082031 457.514404296875 131.31150817871094 454.54437255859375 121.0 450.0 L 108.0 450.0" stroke-width="2.0" fill="rgb(69, 97, 132)" opacity="1.0" stroke="rgb(0, 0, 0)" stroke-opacity="0.0" stroke-linecap="round" stroke-linejoin="round"/>
    <path d="M 233.0 344.0 C 225.70867919921875 346.8082580566406 211.4018096923828 344.889404296875 209.0 351.0 C 216.67459106445312 347.744140625 226.98941040039062 349.47186279296875 233.0 344.0" stroke-width="2.0" fill="rgb(16, 69, 85)" opacity="1.0" stroke="rgb(0, 0, 0)" stroke-opacity="0.0" stroke-linecap="round" stroke-linejoin="round"/>
    <path d="M 338.0 313.0 C 337.4085998535156 320.1382751464844 332.48016357421875 330.3276062011719 344.0 327.0 L 338.0 313.0" stroke-width="2.0" fill="rgb(204, 227, 231)" opacity="1.0" stroke="rgb(0, 0, 0)" stroke-opacity="0.0" stroke-linecap="round" stroke-linejoin="round"/>
    <path d="M 248.0 139.0 C 237.54319763183594 135.897216796875 237.3099365234375 150.65769958496094 248.0 146.0 L 248.0 139.0" stroke-width="2.0" fill="rgb(215, 197, 190)" opacity="1.0" stroke="rgb(0, 0, 0)" stroke-opacity="0.0" stroke-linecap="round" stroke-linejoin="round"/>
    <path d="M 146.0 180.0 C 142.9990234375 186.34312438964844 144.44635009765625 196.99266052246094 144.0 205.0 C 148.5409393310547 200.874267578125 144.75901794433594 188.42568969726562 146.0 180.0" stroke-width="2.0" fill="rgb(99, 100, 105)" opacity="1.0" stroke="rgb(0, 0, 0)" stroke-opacity="0.0" stroke-linecap="round" stroke-linejoin="round"/>
    <path d="M 209.0 462.0 C 210.58448791503906 466.46630859375 220.15074157714844 466.9380798339844 225.0 465.0 L 209.0 462.0" stroke-width="2.0" fill="rgb(63, 76, 104)" opacity="1.0" stroke="rgb(0, 0, 0)" stroke-opacity="0.0" stroke-linecap="round" stroke-linejoin="round"/>
    <path d="M 232.0 90.0 C 226.36424255371094 89.53582000732422 210.24237060546875 94.58439636230469 224.0 94.0 L 232.0 90.0" stroke-width="2.0" fill="rgb(85, 69, 102)" opacity="1.0" stroke="rgb(0, 0, 0)" stroke-opacity="0.0" stroke-linecap="round" stroke-linejoin="round"/>
    <path d="M 248.0 138.0 C 245.93357849121094 150.95516967773438 259.31610107421875 142.90908813476562 248.0 138.0" stroke-width="2.0" fill="rgb(64, 36, 29)" opacity="1.0" stroke="rgb(0, 0, 0)" stroke-opacity="0.0" stroke-linecap="round" stroke-linejoin="round"/>
    <path d="M 110.0 449.0 C 112.69571685791016 453.2484436035156 119.64498901367188 451.6390380859375 124.0 452.0 C 121.63341522216797 448.3297119140625 115.02478790283203 450.3050842285156 110.0 449.0" stroke-width="2.0" fill="rgb(56, 78, 106)" opacity="1.0" stroke="rgb(0, 0, 0)" stroke-opacity="0.0" stroke-linecap="round" stroke-linejoin="round"/>
    <path d="M 231.0 95.0 C 230.47549438476562 88.35840606689453 225.11134338378906 96.47212982177734 221.0 94.0 L 231.0 95.0" stroke-width="2.0" fill="rgb(60, 42, 77)" opacity="1.0" stroke="rgb(0, 0, 0)" stroke-opacity="0.0" stroke-linecap="round" stroke-linejoin="round"/>
    <path d="M 305.0 435.0 C 300.4361572265625 433.068115234375 298.7721862792969 438.6794128417969 294.0 440.0 C 297.9109191894531 440.32159423828125 302.65576171875 433.695068359375 305.0 435.0" stroke-width="2.0" fill="rgb(240, 240, 243)" opacity="1.0" stroke="rgb(0, 0, 0)" stroke-opacity="0.0" stroke-linecap="round" stroke-linejoin="round"/>
    <path d="M 396.0 144.0 C 393.1048889160156 151.6416778564453 403.9524841308594 144.1725311279297 396.0 144.0" stroke-width="2.0" fill="rgb(73, 125, 177)" opacity="1.0" stroke="rgb(0, 0, 0)" stroke-opacity="0.0" stroke-linecap="round" stroke-linejoin="round"/>
    <path d="M 224.0 88.0 C 222.66917419433594 92.52462005615234 232.9014892578125 88.31586456298828 224.0 88.0" stroke-width="2.0" fill="rgb(55, 39, 75)" opacity="1.0" stroke="rgb(0, 0, 0)" stroke-opacity="0.0" stroke-linecap="round" stroke-linejoin="round"/>
  </g>
</svg>
