<?xml version="1.0" ?>
<svg xmlns="http://www.w3.org/2000/svg" version="1.1" width="512" height="512">
  <defs/>
  <g>
    <path d="M -0.4740508198738098 -0.28568023443222046 L 512.3587036132812 -0.35654646158218384 L 512.0625 512.2936401367188 L -0.5885108709335327 512.2742309570312 L -0.4740508198738098 -0.28568023443222046" stroke-width="0.0" fill="rgb(263, 235, 255)" opacity="1.0743704" stroke="rgb(0, 0, 0)" stroke-opacity="0.0" stroke-linecap="round" stroke-linejoin="round"/>
    <path d="M 88.02925872802734 63.111148834228516 C 48.703426361083984 97.82089233398438 29.09796905517578 132.62130737304688 14.828221321105957 168.99525451660156 L 4.071742534637451 207.81756591796875 L -0.18319548666477203 244.00376892089844 L -0.40936893224716187 511.6090087890625 L 509.4378356933594 511.53460693359375 L 511.89434814453125 243.40533447265625 C 507.8478088378906 190.9010772705078 493.6764221191406 138.55702209472656 447.9224548339844 86.12313842773438 C 392.4566955566406 26.799331665039062 336.9940185546875 7.955660343170166 281.7205810546875 0.8650788068771362 C 217.06964111328125 -3.453244209289551 151.25857543945312 9.146027565002441 88.02925872802734 63.111148834228516" stroke-width="2.0" fill="rgb(58, 170, 250)" opacity="1.1284866" stroke="rgb(0, 0, 0)" stroke-opacity="0.0" stroke-linecap="round" stroke-linejoin="round"/>
    <path d="M 395.11859130859375 146.29150390625 C 389.03680419921875 136.51638793945312 380.4346008300781 138.50318908691406 374.1992492675781 141.1586151123047 C 291.87884521484375 173.7003631591797 210.36251831054688 204.79844665527344 128.821044921875 236.9250030517578 C 122.49290466308594 238.43528747558594 114.1903305053711 243.8496551513672 116.5691909790039 250.3118133544922 C 120.69876861572266 255.42579650878906 124.87183380126953 254.16485595703125 129.08676147460938 256.7826843261719 C 148.8281707763672 263.1565246582031 168.7158203125 269.0811767578125 189.41915893554688 276.0224914550781 C 200.50592041015625 302.912841796875 204.00071716308594 329.8613586425781 215.31480407714844 358.0970153808594 C 220.5833282470703 359.1526184082031 225.3911895751953 358.32879638671875 230.7784423828125 355.87335205078125 L 265.1680908203125 322.1820373535156 C 288.8667297363281 337.3086853027344 312.1923828125 359.69390869140625 335.1658630371094 373.04620361328125 C 346.77301025390625 375.8904113769531 352.2392272949219 363.5144348144531 353.2134704589844 355.2959899902344 C 366.8948059082031 291.0833435058594 380.4294738769531 226.45542907714844 394.47515869140625 161.1885986328125 L 395.11859130859375 146.29150390625" stroke-width="2.0" fill="rgb(242, 244, 244)" opacity="0.9847635" stroke="rgb(0, 0, 0)" stroke-opacity="0.0" stroke-linecap="round" stroke-linejoin="round"/>
    <path d="M 387.01495361328125 140.15750122070312 C 372.1449890136719 139.62026977539062 357.165283203125 150.97396850585938 342.12371826171875 154.28321838378906 C 339.4508056640625 156.0605926513672 344.3319091796875 154.0156707763672 344.93719482421875 157.00730895996094 C 346.5495300292969 160.9558868408203 337.54827880859375 166.91494750976562 345.9003601074219 168.0310821533203 C 344.0593566894531 169.46096801757812 347.71417236328125 176.1644287109375 342.8872985839844 172.9888458251953 L 346.9227294921875 184.9784393310547 L 228.64675903320312 291.6770324707031 C 227.7557373046875 293.3033447265625 227.7672119140625 295.5789489746094 231.25765991210938 297.6733703613281 C 265.31646728515625 321.3063659667969 299.8713073730469 350.5863342285156 335.6522216796875 372.367919921875 C 340.5191955566406 372.3175964355469 345.1004333496094 372.4697570800781 349.3595275878906 367.3509216308594 C 366.61688232421875 297.4426574707031 379.30859375 227.5309600830078 394.92041015625 157.27255249023438 C 394.9742431640625 151.92481994628906 394.7486877441406 144.35386657714844 387.01495361328125 140.15750122070312" stroke-width="2.0" fill="rgb(254, 254, 254)" opacity="0.96678746" stroke="rgb(0, 0, 0)" stroke-opacity="0.0" stroke-linecap="round" stroke-linejoin="round"/>
    <path d="M 343.86669921875 181.90782165527344 C 336.25628662109375 181.43446350097656 334.31915283203125 173.65162658691406 327.07476806640625 169.96316528320312 C 330.69512939453125 168.1363067626953 331.54449462890625 163.42579650878906 334.05401611328125 159.9648895263672 L 327.5248107910156 159.47073364257812 L 128.37542724609375 236.38523864746094 C 119.34125518798828 239.5712432861328 113.15380859375 249.80300903320312 123.5881118774414 255.5059051513672 L 189.2107391357422 275.85076904296875 L 194.79379272460938 286.4418640136719 L 212.54144287109375 349.8056335449219 C 214.3981475830078 357.7580871582031 220.55691528320312 358.033203125 226.12847900390625 357.43212890625 C 237.0966339111328 348.9259338378906 250.6372833251953 335.14727783203125 260.0423278808594 323.99578857421875 C 261.35064697265625 321.26141357421875 257.7763671875 318.5389404296875 255.1633758544922 315.82171630859375 C 252.3333282470703 315.9840087890625 249.6666717529297 316.55487060546875 247.0 314.0 C 244.0353546142578 319.7614440917969 237.57666015625 316.3369445800781 239.0 312.0 L 245.0 310.0 C 235.54229736328125 303.5155944824219 236.41966247558594 317.82684326171875 235.0 323.0 C 233.3333282470703 326.44873046875 231.6666717529297 321.1153869628906 230.0 322.0 C 228.73077392578125 322.6581115722656 228.23077392578125 327.5469970703125 225.7205047607422 325.01202392578125 L 224.81259155273438 297.9884033203125 L 228.14944458007812 289.1990661621094 L 330.0389709472656 198.04263305664062 C 334.50927734375 192.5137481689453 342.5182800292969 187.17251586914062 343.86669921875 181.90782165527344" stroke-width="2.0" fill="rgb(251, 252, 252)" opacity="0.8946844" stroke="rgb(0, 0, 0)" stroke-opacity="0.0" stroke-linecap="round" stroke-linejoin="round"/>
    <path d="M 287.7041320800781 0.18944692611694336 C 327.16131591796875 6.705040454864502 366.51995849609375 19.737382888793945 405.8587646484375 47.20986557006836 C 419.6588439941406 57.60419845581055 435.42022705078125 71.24864959716797 447.2596130371094 83.80763244628906 C 488.134033203125 131.32354736328125 505.6841735839844 179.1021728515625 511.4544982910156 226.9811553955078 L 511.7594299316406 -0.3768408000469208 L 287.7041320800781 0.18944692611694336" stroke-width="2.0" fill="rgb(253, 255, 254)" opacity="0.9516981" stroke="rgb(0, 0, 0)" stroke-opacity="0.0" stroke-linecap="round" stroke-linejoin="round"/>
    <path d="M 0.2396237999200821 224.1403350830078 L 9.469669342041016 181.15985107421875 C 18.1364688873291 154.41258239746094 30.853450775146484 127.76141357421875 50.47739028930664 101.46210479736328 C 88.51898956298828 52.39720153808594 137.59927368164062 24.058618545532227 181.5998077392578 9.858760833740234 C 196.4543914794922 6.374335289001465 211.74937438964844 1.5035356283187866 227.1766357421875 0.035179998725652695 L -0.38431602716445923 -0.3763069212436676 L 0.2396237999200821 224.1403350830078" stroke-width="2.0" fill="rgb(252, 255, 254)" opacity="0.94302434" stroke="rgb(0, 0, 0)" stroke-opacity="0.0" stroke-linecap="round" stroke-linejoin="round"/>
    <path d="M 511.2021179199219 292.38421630859375 L 502.0278015136719 325.34210205078125 C 496.3835754394531 345.31292724609375 489.469482421875 363.5995178222656 479.35162353515625 381.4904479980469 L 458.95257568359375 413.15875244140625 L 426.08758544921875 447.8760070800781 C 407.3918151855469 463.2513122558594 386.2325744628906 477.8195495605469 365.55047607421875 487.46600341796875 C 338.6128234863281 500.3509521484375 310.2680969238281 506.8460388183594 281.9960021972656 511.4612731933594 L 512.1314086914062 512.0634155273438 L 511.2021179199219 292.38421630859375" stroke-width="2.0" fill="rgb(252, 253, 254)" opacity="0.9983246" stroke="rgb(0, 0, 0)" stroke-opacity="0.0" stroke-linecap="round" stroke-linejoin="round"/>
    <path d="M 0.27514681220054626 298.4595947265625 L -1.0217690467834473 511.99078369140625 L 229.37632751464844 511.4313659667969 L 187.32554626464844 503.25494384765625 L 144.61656188964844 487.419189453125 L 108.94342803955078 466.0525817871094 L 80.72010040283203 443.25555419921875 L 54.21017837524414 413.8597412109375 C 46.39519119262695 403.38616943359375 39.109840393066406 390.5591125488281 32.844512939453125 381.282958984375 C 25.598234176635742 367.884765625 20.279319763183594 354.2381286621094 13.995388984680176 340.2286071777344 C 11.036046981811523 327.1235656738281 4.308032512664795 313.75872802734375 0.27514681220054626 298.4595947265625" stroke-width="2.0" fill="rgb(252, 253, 254)" opacity="0.99696153" stroke="rgb(0, 0, 0)" stroke-opacity="0.0" stroke-linecap="round" stroke-linejoin="round"/>
    <path d="M 342.1961975097656 182.94532775878906 L 335.90234375 183.8120574951172 C 287.69073486328125 215.67221069335938 239.49024963378906 243.268310546875 190.55630493164062 276.15234375 C 195.43487548828125 300.5450134277344 205.80384826660156 324.8263244628906 211.659912109375 349.4100646972656 C 213.75082397460938 358.5081481933594 223.4364776611328 360.293212890625 230.14491271972656 355.23785400390625 L 262.2101745605469 322.6266784667969 C 251.437744140625 312.45013427734375 238.5966796875 304.031005859375 227.14744567871094 296.8687744140625 C 224.2515106201172 294.3219299316406 226.9407196044922 291.6840515136719 228.76744079589844 289.81134033203125 L 337.9562072753906 191.97454833984375 L 342.1961975097656 182.94532775878906" stroke-width="2.0" fill="rgb(226, 227, 227)" opacity="0.9643552" stroke="rgb(0, 0, 0)" stroke-opacity="0.0" stroke-linecap="round" stroke-linejoin="round"/>
    <path d="M 226.63111877441406 294.7381591796875 L 220.85911560058594 357.2712097167969 L 230.7142333984375 355.9598083496094 L 263.2887878417969 323.5508117675781 C 255.63279724121094 312.636474609375 240.0662384033203 304.6478271484375 226.63111877441406 294.7381591796875" stroke-width="2.0" fill="rgb(182, 183, 184)" opacity="0.99724203" stroke="rgb(0, 0, 0)" stroke-opacity="0.0" stroke-linecap="round" stroke-linejoin="round"/>
    <path d="M 298.9824523925781 508.8965148925781 L 290.9359436035156 509.6407165527344 L 298.9824523925781 508.8965148925781" stroke-width="2.0" fill="rgb(242, 254, 252)" opacity="1.0" stroke="rgb(0, 0, 0)" stroke-opacity="0.0" stroke-linecap="round" stroke-linejoin="round"/>
  </g>
</svg>
