<?xml version="1.0" ?>
<svg xmlns="http://www.w3.org/2000/svg" version="1.1" width="512" height="512">
  <defs/>
  <g>
    <path d="M 0.0 0.0 L 512.0 0.0 L 512.0 512.0 L 0.0 512.0 L 0.0 0.0" stroke-width="0.0" fill="rgb(255, 255, 255)" opacity="1.0" stroke="rgb(0, 0, 0)" stroke-opacity="0.0" stroke-linecap="round" stroke-linejoin="round"/>
    <path d="M 0.0 0.0 L 0.0 511.0 L 511.0 511.0 L 511.0 0.0 L 0.0 0.0" stroke-width="2.0" fill="rgb(255, 255, 255)" opacity="1.0" stroke="rgb(0, 0, 0)" stroke-opacity="0.0" stroke-linecap="round" stroke-linejoin="round"/>
    <path d="M 80.0 186.0 C 75.68426513671875 206.0395965576172 107.32649230957031 206.54270935058594 120.0 219.0 C 127.71253204345703 227.05792236328125 134.8385772705078 229.19546508789062 138.0 238.0 C 105.130859375 254.45884704589844 83.98350524902344 290.1839599609375 90.0 317.0 C 90.2538833618164 348.51654052734375 128.06369018554688 394.632080078125 163.0 400.0 C 234.0 403.7720642089844 305.0 423.63177490234375 376.0 374.0 C 415.15411376953125 332.6666564941406 431.9776916503906 291.3333435058594 431.0 250.0 C 416.90576171875 216.6045379638672 382.6002502441406 229.02706909179688 362.0 256.0 C 335.83367919921875 272.5541687011719 302.2270202636719 278.43768310546875 281.0 249.0 C 283.7024230957031 233.23883056640625 307.46600341796875 220.86727905273438 312.0 204.0 C 325.32379150390625 174.82373046875 314.4512939453125 134.83030700683594 276.0 115.0 C 232.6666717529297 97.74724578857422 189.3333282470703 99.63154602050781 146.0 134.0 C 131.9502716064453 145.23599243164062 130.29835510253906 158.33787536621094 120.0 168.0 C 107.0 176.2539520263672 94.0 177.1459197998047 80.0 186.0" stroke-width="2.0" fill="rgb(250, 213, 3)" opacity="1.0" stroke="rgb(0, 0, 0)" stroke-opacity="0.0" stroke-linecap="round" stroke-linejoin="round"/>
    <path d="M 80.0 185.0 C 73.12260437011719 201.3333740234375 97.4673843383789 205.1606903076172 108.0 211.0 C 123.69205474853516 221.27215576171875 141.96575927734375 243.59239196777344 156.0 221.0 C 161.25057983398438 210.6666717529297 150.19735717773438 200.3333282470703 139.0 190.0 C 132.7670135498047 181.5874481201172 132.86500549316406 170.7745819091797 126.0 164.0 C 111.0 175.0657196044922 96.0 176.05752563476562 80.0 185.0" stroke-width="2.0" fill="rgb(232, 85, 33)" opacity="1.0" stroke="rgb(0, 0, 0)" stroke-opacity="0.0" stroke-linecap="round" stroke-linejoin="round"/>
    <path d="M 175.0 153.0 C 151.10476684570312 160.45724487304688 175.57717895507812 195.1732635498047 190.0 173.0 C 195.10678100585938 164.3800811767578 186.51095581054688 151.00582885742188 175.0 153.0" stroke-width="2.0" fill="rgb(70, 66, 57)" opacity="1.0" stroke="rgb(0, 0, 0)" stroke-opacity="0.0" stroke-linecap="round" stroke-linejoin="round"/>
    <path d="M 107.0 210.0 C 119.37274169921875 213.1721649169922 134.28001403808594 228.6972198486328 145.0 220.0 C 134.61061096191406 209.8030242919922 120.04141998291016 213.25135803222656 107.0 210.0" stroke-width="2.0" fill="rgb(168, 54, 12)" opacity="1.0" stroke="rgb(0, 0, 0)" stroke-opacity="0.0" stroke-linecap="round" stroke-linejoin="round"/>
    <path d="M 177.0 156.0 C 168.8302459716797 151.43963623046875 164.44384765625 168.1057891845703 175.0 162.0 L 177.0 156.0" stroke-width="2.0" fill="rgb(194, 194, 193)" opacity="1.0" stroke="rgb(0, 0, 0)" stroke-opacity="0.0" stroke-linecap="round" stroke-linejoin="round"/>
  </g>
</svg>
