<?xml version="1.0" ?>
<svg xmlns="http://www.w3.org/2000/svg" version="1.1" width="512" height="512">
  <defs/>
  <g>
    <path d="M 1.376400113105774 1.397579550743103 L 512.0533447265625 1.3166561126708984 L 512.029541015625 511.9880065917969 L 1.3000069856643677 512.079345703125 L 1.376400113105774 1.397579550743103" stroke-width="0.0" fill="rgb(324, 280, 259)" opacity="1.1476259" stroke="rgb(0, 0, 0)" stroke-opacity="0.0" stroke-linecap="round" stroke-linejoin="round"/>
    <path d="M 0.12583394348621368 0.12404341250658035 L 0.11780351400375366 512.5038452148438 L 512.4015502929688 512.4258422851562 L 512.5046997070312 0.09860660880804062 L 0.12583394348621368 0.12404341250658035" stroke-width="2.0" fill="rgb(147, 186, 217)" opacity="1.2271652" stroke="rgb(0, 0, 0)" stroke-opacity="0.0" stroke-linecap="round" stroke-linejoin="round"/>
    <path d="M 80.36563873291016 186.00379943847656 C 75.56768798828125 205.88690185546875 107.07789611816406 206.64427185058594 120.27262878417969 218.96234130859375 C 127.53298950195312 227.13937377929688 133.84217834472656 230.0511932373047 138.4035186767578 239.5804443359375 C 103.72563171386719 253.3746337890625 84.08326721191406 288.38848876953125 90.41226196289062 317.0820617675781 C 89.24687957763672 350.3186950683594 126.63607788085938 394.440185546875 163.892578125 402.12823486328125 C 231.72608947753906 405.7799072265625 308.51318359375 424.1617126464844 378.005126953125 376.0852966308594 C 415.4176940917969 333.94476318359375 432.7611999511719 290.474853515625 433.66400146484375 251.89781188964844 C 416.39508056640625 214.91815185546875 384.0140686035156 227.94956970214844 363.2679138183594 255.90782165527344 C 336.9718322753906 272.5261535644531 301.6157531738281 277.83203125 280.54583740234375 249.4789581298828 C 284.96282958984375 235.272705078125 308.5843505859375 222.77880859375 312.848388671875 204.1534423828125 C 327.0887451171875 173.61978149414062 315.6552429199219 134.71839904785156 276.0232238769531 114.49978637695312 C 235.4228973388672 96.73661804199219 188.64413452148438 99.34576416015625 146.02691650390625 133.69857788085938 C 132.2342071533203 146.0033416748047 128.98428344726562 157.5253448486328 120.32937622070312 168.93386840820312 C 107.69881439208984 177.63360595703125 94.17357635498047 177.65354919433594 80.36563873291016 186.00379943847656" stroke-width="2.0" fill="rgb(254, 220, 0)" opacity="0.99205786" stroke="rgb(0, 0, 0)" stroke-opacity="0.0" stroke-linecap="round" stroke-linejoin="round"/>
    <path d="M 79.239013671875 185.11244201660156 C 71.21946716308594 202.80194091796875 96.35723876953125 205.70669555664062 107.00248718261719 212.16726684570312 C 123.24390411376953 222.16685485839844 141.00552368164062 245.56626892089844 156.79290771484375 222.55177307128906 C 162.7094268798828 209.3712921142578 150.6665496826172 200.6344451904297 139.72264099121094 190.2267303466797 C 133.36865234375 181.03875732421875 133.80616760253906 169.95425415039062 126.01600646972656 162.80809020996094 C 111.12818908691406 175.60765075683594 95.77893829345703 175.98876953125 79.239013671875 185.11244201660156" stroke-width="2.0" fill="rgb(232, 24, 48)" opacity="0.6689018" stroke="rgb(0, 0, 0)" stroke-opacity="0.0" stroke-linecap="round" stroke-linejoin="round"/>
    <path d="M 175.31866455078125 153.04019165039062 C 150.0708465576172 162.5322723388672 173.8398895263672 195.6756591796875 190.92510986328125 173.85691833496094 C 196.050048828125 163.2289276123047 187.59539794921875 150.91488647460938 175.31866455078125 153.04019165039062" stroke-width="2.0" fill="rgb(60, 55, 39)" opacity="1.031809" stroke="rgb(0, 0, 0)" stroke-opacity="0.0" stroke-linecap="round" stroke-linejoin="round"/>
    <path d="M 105.81792449951172 210.10374450683594 C 119.29704284667969 213.79901123046875 134.9425048828125 229.77935791015625 147.48377990722656 221.2149200439453 C 135.23727416992188 209.886474609375 120.1302490234375 212.81739807128906 105.81792449951172 210.10374450683594" stroke-width="2.0" fill="rgb(164, 52, 11)" opacity="1.000176" stroke="rgb(0, 0, 0)" stroke-opacity="0.0" stroke-linecap="round" stroke-linejoin="round"/>
    <path d="M 178.49195861816406 156.86767578125 C 169.20628356933594 152.53590393066406 163.08441162109375 169.12237548828125 176.01332092285156 161.7228546142578 L 178.49195861816406 156.86767578125" stroke-width="2.0" fill="rgb(223, 224, 224)" opacity="1.1223034" stroke="rgb(0, 0, 0)" stroke-opacity="0.0" stroke-linecap="round" stroke-linejoin="round"/>
  </g>
</svg>
