<?xml version="1.0" ?>
<svg xmlns="http://www.w3.org/2000/svg" version="1.1" width="511" height="512">
  <defs/>
  <g>
    <path d="M 522.1099853515625 164.1898651123047 C 520.1023559570312 175.40896606445312 517.7868041992188 175.03689575195312 447.9964904785156 183.58848571777344 C 430.58184814453125 193.9365692138672 416.47265625 202.53521728515625 422.3027648925781 87.22532653808594 C 446.5443420410156 92.52066040039062 447.9494323730469 87.46942901611328 517.0479125976562 92.2729721069336 C 523.2100219726562 125.45967864990234 522.2627563476562 131.36256408691406 522.1099853515625 164.1898651123047" stroke-width="0.0" fill="rgb(8, 132, 204)" opacity="0.2602416" stroke="rgb(43, 26, 224)" stroke-opacity="0.52777123" stroke-linecap="round" stroke-linejoin="round"/>
    <path d="M 281.5912170410156 197.96644592285156 C 277.4993896484375 392.89105224609375 309.4727783203125 383.2747802734375 17.695371627807617 379.2201843261719 C 21.506637573242188 354.001953125 104.8660888671875 370.94085693359375 224.04287719726562 369.1599426269531 C 207.75668334960938 360.7036437988281 196.53640747070312 347.43707275390625 189.59410095214844 343.6446838378906 C 281.2494812011719 417.84991455078125 187.85350036621094 336.33795166015625 281.5912170410156 197.96644592285156" stroke-width="0.0" fill="rgb(24, 26, 30)" opacity="0.5521946" stroke="rgb(78, 188, 231)" stroke-opacity="0.19148955" stroke-linecap="round" stroke-linejoin="round"/>
    <path d="M 88.78070831298828 228.74508666992188 C 57.57619857788086 208.6510009765625 58.90391159057617 220.90921020507812 22.159513473510742 208.9208221435547 C -14.561043739318848 207.5638885498047 -8.894014358520508 217.95135498046875 -6.754966735839844 161.0854034423828 C -9.183893203735352 133.9282989501953 -29.825153350830078 123.970458984375 76.31310272216797 143.0924072265625 C 156.71664428710938 134.22633361816406 137.37721252441406 130.89837646484375 88.78070831298828 228.74508666992188" stroke-width="0.0" fill="rgb(255, 242, 238)" opacity="0.45244494" stroke="rgb(163, 80, 79)" stroke-opacity="0.7642911" stroke-linecap="round" stroke-linejoin="round"/>
    <path d="M 232.47447204589844 238.5698699951172 C 190.0148468017578 285.4085388183594 232.91729736328125 242.1728515625 230.03684997558594 296.3533935546875 C 172.50291442871094 298.0429992675781 154.71109008789062 268.9023132324219 132.78509521484375 265.4615783691406 C 131.4619598388672 166.52621459960938 96.02227020263672 217.47291564941406 139.87158203125 142.0774688720703 C 186.921875 209.04994201660156 209.2932586669922 222.45419311523438 232.47447204589844 238.5698699951172" stroke-width="0.0" fill="rgb(0, 51, 101)" opacity="0.35600764" stroke="rgb(12, 118, 82)" stroke-opacity="0.39722192" stroke-linecap="round" stroke-linejoin="round"/>
    <path d="M 234.35818481445312 338.8208923339844 C 240.41851806640625 386.9838562011719 212.76905822753906 347.71905517578125 151.70635986328125 362.2486572265625 C 111.3454360961914 349.9403381347656 34.219757080078125 382.4820251464844 -13.370862007141113 325.76947021484375 C 81.01014709472656 261.18988037109375 83.05168151855469 310.6478576660156 156.0617218017578 302.06201171875 C 183.62457275390625 278.982177734375 248.07846069335938 287.6259765625 234.35818481445312 338.8208923339844" stroke-width="0.0" fill="rgb(255, 227, 213)" opacity="0.28157836" stroke="rgb(152, 162, 196)" stroke-opacity="0.795363" stroke-linecap="round" stroke-linejoin="round"/>
    <path d="M 248.40512084960938 403.866943359375 C 200.93252563476562 374.84912109375 280.72283935546875 235.54193115234375 213.22337341308594 231.21839904785156 C 190.68222045898438 260.7020263671875 196.9816131591797 233.1999969482422 172.4522705078125 169.00570678710938 C 182.55259704589844 188.66673278808594 171.00936889648438 209.94131469726562 239.4381561279297 207.84254455566406 C 269.70440673828125 194.43466186523438 311.2608947753906 171.94139099121094 248.40512084960938 403.866943359375" stroke-width="0.0" fill="rgb(0, 0, 0)" opacity="0.40944585" stroke="rgb(131, 209, 164)" stroke-opacity="0.7299145" stroke-linecap="round" stroke-linejoin="round"/>
    <path d="M 519.4290771484375 2.133624792098999 C 416.27099609375 2.1630475521087646 411.6587219238281 1.9453586339950562 428.84393310546875 2.0897796154022217 C 423.2329406738281 2.2202250957489014 418.4886474609375 2.1267940998077393 193.86636352539062 2.1182332038879395 C 341.09588623046875 -139.5092010498047 391.69598388671875 -28.554189682006836 429.00445556640625 -0.38763538002967834 C 441.466796875 -25.681631088256836 465.13519287109375 -72.58494567871094 519.4290771484375 2.133624792098999" stroke-width="0.0" fill="rgb(0, 0, 7)" opacity="0.9357483" stroke="rgb(167, 20, 136)" stroke-opacity="0.41720742" stroke-linecap="round" stroke-linejoin="round"/>
    <path d="M 366.0 107.0 C 365.33013916015625 109.5 363.5 111.33012390136719 361.0 112.0 C 358.5 111.33012390136719 356.66986083984375 109.5 356.0 107.0 C 356.66986083984375 104.5 358.5 102.66987609863281 361.0 102.0 C 363.5 102.66987609863281 365.33013916015625 104.5 366.0 107.0" stroke-width="0.0" fill="rgb(1, 3, 2)" opacity="1.0" stroke="rgb(187, 78, 78)" stroke-opacity="0.8644204" stroke-linecap="round" stroke-linejoin="round"/>
    <path d="M 282.0 358.0 C 281.33013916015625 360.5 279.5 362.33013916015625 277.0 363.0 C 274.5 362.33013916015625 272.66986083984375 360.5 272.0 358.0 C 272.66986083984375 355.5 274.5 353.66986083984375 277.0 353.0 C 279.5 353.66986083984375 281.33013916015625 355.5 282.0 358.0" stroke-width="0.0" fill="rgb(247, 244, 233)" opacity="1.0" stroke="rgb(55, 144, 154)" stroke-opacity="0.22603998" stroke-linecap="round" stroke-linejoin="round"/>
    <path d="M 293.0 342.0 C 292.33013916015625 344.5 290.5 346.33013916015625 288.0 347.0 C 285.5 346.33013916015625 283.66986083984375 344.5 283.0 342.0 C 283.66986083984375 339.5 285.5 337.66986083984375 288.0 337.0 C 290.5 337.66986083984375 292.33013916015625 339.5 293.0 342.0" stroke-width="0.0" fill="rgb(245, 234, 228)" opacity="1.0" stroke="rgb(138, 128, 238)" stroke-opacity="0.4535837" stroke-linecap="round" stroke-linejoin="round"/>
    <path d="M 407.0 298.0 C 406.33013916015625 300.5 404.5 302.33013916015625 402.0 303.0 C 399.5 302.33013916015625 397.66986083984375 300.5 397.0 298.0 C 397.66986083984375 295.5 399.5 293.66986083984375 402.0 293.0 C 404.5 293.66986083984375 406.33013916015625 295.5 407.0 298.0" stroke-width="0.0" fill="rgb(60, 60, 58)" opacity="1.0" stroke="rgb(67, 94, 119)" stroke-opacity="0.3995831" stroke-linecap="round" stroke-linejoin="round"/>
    <path d="M 499.0 261.0 C 498.33013916015625 263.5 496.5 265.33013916015625 494.0 266.0 C 491.5 265.33013916015625 489.66986083984375 263.5 489.0 261.0 C 489.66986083984375 258.5 491.5 256.66986083984375 494.0 256.0 C 496.5 256.66986083984375 498.33013916015625 258.5 499.0 261.0" stroke-width="0.0" fill="rgb(226, 222, 221)" opacity="1.0" stroke="rgb(61, 247, 70)" stroke-opacity="0.83066064" stroke-linecap="round" stroke-linejoin="round"/>
    <path d="M 510.0 267.0 C 509.33013916015625 269.5 507.5 271.33013916015625 505.0 272.0 C 502.5 271.33013916015625 500.66986083984375 269.5 500.0 267.0 C 500.66986083984375 264.5 502.5 262.66986083984375 505.0 262.0 C 507.5 262.66986083984375 509.33013916015625 264.5 510.0 267.0" stroke-width="0.0" fill="rgb(233, 228, 228)" opacity="1.0" stroke="rgb(172, 134, 57)" stroke-opacity="0.07404385" stroke-linecap="round" stroke-linejoin="round"/>
    <path d="M 101.0 1.0 C 100.33012390136719 3.5 98.5 5.330127239227295 96.0 6.0 C 93.5 5.330127239227295 91.66987609863281 3.5 91.0 1.0 C 91.66987609863281 -1.5 93.5 -3.330127000808716 96.0 -4.0 C 98.5 -3.330127000808716 100.33012390136719 -1.5 101.0 1.0" stroke-width="0.0" fill="rgb(12, 11, 29)" opacity="1.0" stroke="rgb(210, 137, 249)" stroke-opacity="0.6354131" stroke-linecap="round" stroke-linejoin="round"/>
    <path d="M 465.0 273.0 C 464.33013916015625 275.5 462.5 277.33013916015625 460.0 278.0 C 457.5 277.33013916015625 455.66986083984375 275.5 455.0 273.0 C 455.66986083984375 270.5 457.5 268.66986083984375 460.0 268.0 C 462.5 268.66986083984375 464.33013916015625 270.5 465.0 273.0" stroke-width="0.0" fill="rgb(211, 208, 215)" opacity="1.0" stroke="rgb(29, 214, 162)" stroke-opacity="0.832391" stroke-linecap="round" stroke-linejoin="round"/>
  </g>
</svg>
