<?xml version="1.0" ?>
<svg xmlns="http://www.w3.org/2000/svg" version="1.1" width="512" height="488">
  <defs/>
  <g>
    <path d="M -10.0 -10.0 C -9.0 -10.0 512.0 0.0 513.0 0.0 C 514.0 0.0 512.0 488.0 513.0 488.0 C 513.0 489.0 0.0 488.0 0.0 489.0 C 0.0 488.0 0.0 489.0 -10.0 -10.0 L -10.0 -10.0" stroke-width="2.0" fill="rgb(149, 153, 188)" opacity="0.97260576"/>
    <path d="M 492.21337890625 212.31362915039062 C 493.59698486328125 213.04640197753906 492.35284423828125 213.82278442382812 492.4267272949219 213.48512268066406 C 498.01318359375 215.89321899414062 496.4904479980469 214.23532104492188 496.24993896484375 213.5446014404297 C 494.817626953125 217.675048828125 497.2223205566406 217.86163330078125 496.33367919921875 215.3380889892578 C 492.2196960449219 211.64015197753906 492.5484313964844 215.04690551757812 493.6815185546875 218.40220642089844 L 492.21337890625 212.31362915039062" stroke-width="2.0" fill="rgb(25, 178, 190)" opacity="0.1640589"/>
    <path d="M 347.5404052734375 39.943809509277344 C 341.6246032714844 38.726173400878906 339.97186279296875 39.955814361572266 341.3146057128906 38.29966354370117 C 346.6932678222656 40.44528579711914 344.8018798828125 39.1783332824707 346.65057373046875 41.48063659667969 C 343.06317138671875 41.169593811035156 346.0316467285156 41.09058380126953 342.7536315917969 40.618797302246094 C 343.67388916015625 40.071861267089844 344.8051452636719 42.88254928588867 341.571533203125 42.316505432128906 L 347.5404052734375 39.943809509277344" stroke-width="2.0" fill="rgb(137, 77, 45)" opacity="0.2518048"/>
    <path d="M 174.98776245117188 302.1714782714844 C 174.96055603027344 301.5812683105469 174.45956420898438 302.0189514160156 175.68260192871094 301.6825866699219 C 180.34059143066406 302.4092712402344 179.66043090820312 301.403076171875 180.25811767578125 301.6182861328125 C 178.87925720214844 306.6781005859375 179.7232666015625 306.26861572265625 180.14453125 306.9934387207031 C 174.9263458251953 305.33843994140625 174.9011993408203 306.2707824707031 174.5255584716797 307.5080261230469 L 174.98776245117188 302.1714782714844" stroke-width="2.0" fill="rgb(178, 59, 67)" opacity="0.0"/>
    <path d="M 6.369771957397461 234.83963012695312 C 4.961611270904541 234.5192413330078 5.347665786743164 235.5272674560547 6.828631401062012 238.2488250732422 C 11.311005592346191 236.02182006835938 11.7968168258667 234.37142944335938 9.651017189025879 231.83660888671875 C 9.561627388000488 239.6702423095703 9.488704681396484 239.319091796875 11.289982795715332 239.06942749023438 C 4.200728893280029 236.20538330078125 4.851418495178223 237.28929138183594 2.879948854446411 240.23829650878906 L 6.369771957397461 234.83963012695312" stroke-width="2.0" fill="rgb(175, 32, 133)" opacity="0.09733412"/>
    <path d="M 313.9390869140625 13.656560897827148 C 296.0394287109375 37.60636901855469 305.4322814941406 40.58063888549805 298.9927673339844 48.113731384277344 C 308.320068359375 50.213809967041016 307.69244384765625 45.888973236083984 304.2618103027344 44.882747650146484 C 296.9355163574219 42.92588424682617 297.5668029785156 35.389495849609375 301.99505615234375 34.86342239379883 C 302.0753173828125 49.06490707397461 307.60809326171875 56.60441970825195 336.43438720703125 46.524253845214844 L 313.9390869140625 13.656560897827148" stroke-width="2.0" fill="rgb(113, 98, 161)" opacity="0.19797958"/>
    <path d="M 244.39462280273438 172.0725555419922 C 244.715576171875 171.50572204589844 244.7523651123047 171.43380737304688 245.43678283691406 172.48291015625 C 247.62158203125 174.7206268310547 247.31333923339844 171.8654022216797 247.25804138183594 170.61708068847656 C 245.47010803222656 173.56332397460938 248.04421997070312 172.9424591064453 248.4949188232422 175.0292510986328 C 244.8606414794922 171.73036193847656 246.330078125 173.3228302001953 246.77447509765625 175.88858032226562 L 244.39462280273438 172.0725555419922" stroke-width="2.0" fill="rgb(78, 180, 131)" opacity="0.14249673"/>
    <path d="M 11.230498313903809 232.70037841796875 C 2.724304437637329 232.7203826904297 -1.9808290004730225 233.83767700195312 -6.044073104858398 252.35206604003906 C 24.056764602661133 255.1439208984375 31.002365112304688 246.68629455566406 17.669898986816406 224.73504638671875 C 2.288196086883545 248.2946014404297 14.180495262145996 245.49539184570312 18.732311248779297 260.0594787597656 C -0.0037123262882232666 248.75038146972656 -4.294445991516113 250.4846649169922 9.505435943603516 266.0021667480469 L 11.230498313903809 232.70037841796875" stroke-width="2.0" fill="rgb(58, 24, 118)" opacity="0.087650806"/>
  </g>
</svg>
