<?xml version="1.0" ?>
<svg xmlns="http://www.w3.org/2000/svg" version="1.1" width="412" height="512">
  <defs/>
  <g>
    <path d="M -10.0 -10.0 C -9.0 -10.0 412.0 0.0 413.0 0.0 C 414.0 0.0 412.0 512.0 413.0 512.0 C 413.0 513.0 0.0 512.0 0.0 513.0 C 0.0 512.0 0.0 513.0 -10.0 -10.0 L -10.0 -10.0" stroke-width="2.0" fill="rgb(98, 24, 34)" opacity="0.89969486"/>
    <path d="M 399.21221923828125 228.52560424804688 C 399.26812744140625 223.10704040527344 399.3219909667969 224.6938018798828 397.4426574707031 224.55096435546875 C 399.23779296875 223.81239318847656 400.8077697753906 226.03475952148438 398.427978515625 226.97137451171875 C 396.4869384765625 223.1454315185547 398.06829833984375 225.81991577148438 399.21295166015625 222.229736328125 C 397.14361572265625 224.67938232421875 398.1935119628906 226.99380493164062 398.3670349121094 226.45358276367188 L 399.21221923828125 228.52560424804688" stroke-width="2.0" fill="rgb(0, 145, 176)" opacity="0.051573012"/>
    <path d="M 331.08709716796875 49.111698150634766 C 320.58056640625 87.93289184570312 322.77215576171875 85.25677490234375 312.8221130371094 98.6361312866211 C 277.766845703125 83.60417175292969 286.224853515625 55.15376663208008 255.07443237304688 43.79025650024414 C 226.4943389892578 46.65092468261719 221.61302185058594 33.592037200927734 211.38343811035156 -13.777586936950684 C 270.958740234375 -0.35525232553482056 296.8301086425781 15.488640785217285 323.0997314453125 33.246986389160156 L 331.08709716796875 49.111698150634766" stroke-width="2.0" fill="rgb(231, 208, 158)" opacity="0.96688455"/>
    <path d="M 349.8128356933594 479.5652160644531 C 172.4285125732422 355.1348876953125 172.2880096435547 331.0832824707031 152.24009704589844 335.3851013183594 C 147.7112274169922 332.57257080078125 137.34754943847656 319.6632995605469 128.34312438964844 317.3570251464844 C 138.0849609375 302.7291259765625 114.62398529052734 313.6522216796875 157.43316650390625 308.5606384277344 C 193.60333251953125 332.45599365234375 171.98941040039062 308.1192932128906 175.4878692626953 304.42681884765625 L 349.8128356933594 479.5652160644531" stroke-width="2.0" fill="rgb(235, 34, 77)" opacity="0.5494836"/>
    <path d="M 5.620491027832031 249.74331665039062 C 4.556956768035889 250.03610229492188 6.562937259674072 249.69717407226562 6.868835926055908 249.1790008544922 C 5.915935039520264 249.13253784179688 7.8475165367126465 249.0565643310547 8.209212303161621 248.75436401367188 C 5.874975204467773 249.81805419921875 5.97824764251709 247.88230895996094 6.7152419090271 249.5125274658203 C 6.564919948577881 248.5579376220703 6.777377128601074 249.69754028320312 5.601220607757568 249.83314514160156 L 5.620491027832031 249.74331665039062" stroke-width="2.0" fill="rgb(205, 0, 95)" opacity="0.08681702"/>
    <path d="M 290.501220703125 82.3619384765625 C 282.83502197265625 73.98945617675781 276.24102783203125 69.81302642822266 266.9003601074219 64.26988220214844 C 247.6667938232422 55.8575439453125 218.4949493408203 42.535518646240234 176.4174346923828 61.59218215942383 C 184.36851501464844 26.587247848510742 184.64019775390625 0.5543282628059387 185.85061645507812 -14.527341842651367 C 269.4548034667969 -9.395933151245117 271.8215637207031 8.640231132507324 291.0121154785156 14.226691246032715 L 290.501220703125 82.3619384765625" stroke-width="2.0" fill="rgb(227, 203, 154)" opacity="1.0"/>
    <path d="M 245.64109802246094 207.10557556152344 C 244.0040740966797 209.71484375 247.87644958496094 196.64418029785156 261.9738464355469 247.01272583007812 C -27.875268936157227 367.89581298828125 141.89654541015625 404.25408935546875 159.4842071533203 54.923118591308594 C 155.78846740722656 300.8871154785156 275.734375 49.2729377746582 267.2108459472656 224.7218475341797 C 219.8258056640625 186.4051971435547 200.54307556152344 167.65647888183594 219.4329376220703 184.77867126464844 L 245.64109802246094 207.10557556152344" stroke-width="2.0" fill="rgb(0, 5, 35)" opacity="0.6642606"/>
    <path d="M 101.8818588256836 297.9736633300781 C 66.03253173828125 326.2900390625 53.6934700012207 303.7522277832031 51.36457824707031 301.7038269042969 C -16.63505744934082 313.635009765625 -15.305749893188477 315.62298583984375 -11.880487442016602 293.9284973144531 C -10.814042091369629 246.71348571777344 -12.492239952087402 242.74110412597656 4.599417209625244 207.51504516601562 C 41.136863708496094 207.93679809570312 40.57502365112305 216.92857360839844 66.68305969238281 243.5821533203125 L 101.8818588256836 297.9736633300781" stroke-width="2.0" fill="rgb(0, 24, 56)" opacity="0.71114767"/>
    <path d="M 140.51841735839844 422.1944580078125 C 135.03634643554688 209.59799194335938 39.12675476074219 288.2233581542969 -3.8094253540039062 304.1782531738281 C 29.36304473876953 234.3809051513672 38.154823303222656 264.2695617675781 83.36846160888672 279.5521240234375 C 124.67414855957031 276.04254150390625 154.050537109375 403.8133239746094 118.54118347167969 280.6479187011719 C 25.49673080444336 197.51998901367188 -38.65198516845703 298.92376708984375 -6.275760173797607 468.53448486328125 L 140.51841735839844 422.1944580078125" stroke-width="2.0" fill="rgb(29, 15, 40)" opacity="0.95753163"/>
    <path d="M 431.0608215332031 507.87017822265625 C 353.26483154296875 525.6862182617188 350.4669494628906 524.5863647460938 342.7400817871094 525.9775390625 C 288.83404541015625 525.0902099609375 286.267578125 525.0676879882812 227.5525665283203 506.0232849121094 C 228.79461669921875 400.23895263671875 230.12400817871094 380.13787841796875 309.35809326171875 458.6820068359375 C 239.3883514404297 324.949951171875 92.66583251953125 328.5805969238281 406.90228271484375 195.87974548339844 L 431.0608215332031 507.87017822265625" stroke-width="2.0" fill="rgb(29, 30, 56)" opacity="0.94894"/>
    <path d="M 361.658203125 109.03255462646484 C 365.66583251953125 123.47903442382812 368.0339660644531 138.83578491210938 368.92047119140625 161.02639770507812 C 288.8940734863281 165.42544555664062 333.4831848144531 162.96334838867188 308.716796875 108.50442504882812 C 289.3575744628906 68.11784362792969 287.9822692871094 108.02577209472656 310.82452392578125 36.21560287475586 C 328.55322265625 41.545284271240234 341.5610656738281 56.60065460205078 352.6575012207031 84.51210021972656 L 361.658203125 109.03255462646484" stroke-width="2.0" fill="rgb(228, 201, 154)" opacity="1.0"/>
    <path d="M 19.786237716674805 194.74359130859375 C 4.821671009063721 193.65164184570312 9.066055297851562 221.09046936035156 -3.8818891048431396 216.54180908203125 C -71.72686767578125 50.485931396484375 -148.34951782226562 -10.757963180541992 152.59385681152344 -9.604493141174316 C 52.988861083984375 251.75576782226562 23.927736282348633 218.85386657714844 32.647361755371094 208.85671997070312 C 10.104864120483398 208.05450439453125 13.469855308532715 215.91041564941406 8.27398681640625 222.54888916015625 L 19.786237716674805 194.74359130859375" stroke-width="2.0" fill="rgb(2, 24, 56)" opacity="0.73046684"/>
    <path d="M 353.5177001953125 228.96820068359375 C 346.19036865234375 246.27114868164062 334.08880615234375 264.6773681640625 321.8804626464844 277.19842529296875 C 312.9604797363281 285.793701171875 302.2353515625 298.66424560546875 261.9299621582031 320.4638977050781 C 297.11614990234375 165.52439880371094 300.26617431640625 228.65713500976562 293.5164489746094 202.65618896484375 C 346.0038757324219 171.7679443359375 292.7279052734375 189.56964111328125 362.8406677246094 206.62693786621094 L 353.5177001953125 228.96820068359375" stroke-width="2.0" fill="rgb(226, 201, 152)" opacity="1.0"/>
    <path d="M 366.53497314453125 129.80160522460938 C 370.4362487792969 173.19764709472656 367.5032043457031 183.8214874267578 357.1773681640625 212.35118103027344 C 321.21728515625 198.93894958496094 282.596923828125 179.03964233398438 318.95880126953125 165.02284240722656 C 316.26580810546875 141.40782165527344 321.3014221191406 125.108154296875 311.7223815917969 113.37055969238281 C 341.3353576660156 119.37495422363281 330.0566711425781 122.60028076171875 357.8717346191406 131.87835693359375 L 366.53497314453125 129.80160522460938" stroke-width="2.0" fill="rgb(226, 203, 153)" opacity="0.69575447"/>
    <path d="M 220.97451782226562 426.8968505859375 C 218.800048828125 424.6142578125 218.69635009765625 425.0338134765625 220.2744598388672 425.19171142578125 C 219.60751342773438 425.3253479003906 216.22509765625 423.363037109375 218.61575317382812 423.2511291503906 C 217.19500732421875 423.9592590332031 216.7452850341797 422.9364929199219 215.73435974121094 423.2409973144531 C 217.8975372314453 422.917236328125 217.8722686767578 424.6752624511719 217.74571228027344 423.7343444824219 L 220.97451782226562 426.8968505859375" stroke-width="2.0" fill="rgb(64, 161, 122)" opacity="0.1499902"/>
    <path d="M 142.72360229492188 360.11981201171875 C 141.90188598632812 358.8961486816406 141.92750549316406 358.861328125 141.10812377929688 358.9978942871094 C 142.46327209472656 361.77349853515625 141.2066192626953 360.5357666015625 142.18267822265625 361.3689270019531 C 142.41012573242188 360.1663513183594 142.5858612060547 359.50372314453125 143.0697784423828 360.1478271484375 C 142.85760498046875 357.56060791015625 143.82044982910156 358.3686218261719 143.23883056640625 358.6904602050781 L 142.72360229492188 360.11981201171875" stroke-width="2.0" fill="rgb(167, 0, 198)" opacity="0.0"/>
    <path d="M 62.654823303222656 429.57598876953125 C 63.279842376708984 429.5462951660156 63.009361267089844 429.89801025390625 63.05448532104492 428.83355712890625 C 64.28944396972656 430.2425537109375 64.0829086303711 429.80224609375 65.32916259765625 429.5256042480469 C 63.98755645751953 430.9844665527344 64.3549575805664 430.7250061035156 64.90311431884766 432.04010009765625 C 63.18450927734375 430.6982727050781 63.390541076660156 430.9240417480469 62.71480941772461 431.760498046875 L 62.654823303222656 429.57598876953125" stroke-width="2.0" fill="rgb(166, 184, 95)" opacity="8.510614e-06"/>
    <path d="M 198.9994659423828 37.59966278076172 C 234.0921630859375 55.432411193847656 122.23739624023438 47.43970489501953 126.91986083984375 150.78781127929688 C 160.53515625 130.9560546875 148.69625854492188 292.5490417480469 46.3034782409668 293.3991394042969 C -9.005827903747559 33.35279846191406 140.05023193359375 3.9987354278564453 180.0979766845703 -11.690144538879395 C 188.4091339111328 -12.599565505981445 190.4283905029297 -12.35422420501709 205.9877471923828 -21.8785457611084 L 198.9994659423828 37.59966278076172" stroke-width="2.0" fill="rgb(226, 202, 153)" opacity="0.99993026"/>
    <path d="M 384.8410949707031 357.2715148925781 C 383.2774353027344 356.6920471191406 382.9528503417969 356.368408203125 382.71612548828125 356.9263000488281 C 384.7637634277344 358.85736083984375 384.5244140625 357.86090087890625 385.58428955078125 357.51495361328125 C 383.194091796875 358.24713134765625 384.2305908203125 357.8868103027344 385.7498779296875 359.35406494140625 C 384.9150695800781 357.557861328125 385.3682861328125 358.5709533691406 383.92828369140625 357.7918701171875 L 384.8410949707031 357.2715148925781" stroke-width="2.0" fill="rgb(25, 208, 15)" opacity="0.0013496084"/>
    <path d="M 37.95001220703125 119.51852416992188 C 61.91836929321289 82.49259948730469 22.740312576293945 129.30613708496094 47.564125061035156 206.6027069091797 C 63.12644577026367 252.16909790039062 50.73551559448242 216.4868927001953 45.598087310791016 200.01202392578125 C 67.34295654296875 273.1720275878906 111.55037689208984 279.06597900390625 87.62773895263672 283.2786560058594 C 3.1706550121307373 325.1313781738281 46.69688415527344 235.368408203125 0.36673277616500854 216.99685668945312 L 37.95001220703125 119.51852416992188" stroke-width="2.0" fill="rgb(32, 29, 55)" opacity="1.0"/>
    <path d="M 207.39529418945312 420.3115234375 C 207.59628295898438 420.1807556152344 205.74844360351562 419.690673828125 207.3307647705078 419.8284912109375 C 207.2771453857422 420.26593017578125 208.6721649169922 418.8832092285156 207.6671142578125 419.8511657714844 C 205.63880920410156 419.9900817871094 206.63365173339844 419.17919921875 206.2174835205078 420.2818603515625 C 206.20396423339844 419.4010009765625 206.4982147216797 420.52850341796875 206.08767700195312 419.48797607421875 L 207.39529418945312 420.3115234375" stroke-width="2.0" fill="rgb(20, 166, 78)" opacity="0.17424409"/>
    <path d="M 72.38218688964844 300.6907958984375 C 71.64570617675781 300.4434814453125 70.93701171875 299.7715148925781 72.29454040527344 300.67578125 C 72.71388244628906 301.0068664550781 71.1565170288086 299.2654724121094 73.40728759765625 302.4746398925781 C 70.95030975341797 299.34185791015625 71.94488525390625 297.1305847167969 71.90030670166016 300.8880615234375 C 72.05429077148438 298.193115234375 71.86505126953125 300.34442138671875 72.22261047363281 300.6842041015625 L 72.38218688964844 300.6907958984375" stroke-width="2.0" fill="rgb(1, 155, 85)" opacity="0.07430623"/>
    <path d="M 278.57806396484375 269.17791748046875 C 258.7963562011719 288.6452941894531 341.27239990234375 341.55938720703125 379.5715026855469 388.2403259277344 C 167.34417724609375 203.6258544921875 340.5677795410156 390.793212890625 220.52459716796875 282.61676025390625 C 254.25845336914062 230.60867309570312 215.8142852783203 233.8604736328125 281.90997314453125 258.5791015625 C 321.3936462402344 278.8495788574219 310.3292541503906 264.5565185546875 327.4200134277344 265.6998291015625 L 278.57806396484375 269.17791748046875" stroke-width="2.0" fill="rgb(226, 202, 154)" opacity="0.97793096"/>
    <path d="M 369.2220458984375 146.05877685546875 C 387.23919677734375 41.69369125366211 386.5177917480469 44.323333740234375 347.1966552734375 274.4214782714844 C 472.9881286621094 266.4093017578125 439.91680908203125 209.9132537841797 427.2010803222656 -12.374568939208984 C 305.7518005371094 -10.882259368896484 385.57977294921875 -8.641408920288086 255.87911987304688 -3.3293795585632324 C 279.156005859375 9.292682647705078 331.644287109375 22.65005111694336 360.499267578125 105.10490417480469 L 369.2220458984375 146.05877685546875" stroke-width="2.0" fill="rgb(32, 30, 57)" opacity="0.9978468"/>
    <path d="M 357.6612854003906 97.52680206298828 C 373.7238464355469 144.99649047851562 366.76910400390625 148.14759826660156 342.0431823730469 127.3211669921875 C 306.8586120605469 121.00968170166016 308.3372497558594 97.718017578125 286.4359130859375 77.38748931884766 C 277.765869140625 31.62983512878418 280.8858337402344 44.579864501953125 287.13397216796875 14.83884334564209 C 307.5393981933594 23.945735931396484 321.9998779296875 44.56731414794922 339.569580078125 61.0780029296875 L 357.6612854003906 97.52680206298828" stroke-width="2.0" fill="rgb(226, 203, 153)" opacity="0.6194314"/>
    <path d="M 367.8437194824219 175.908203125 C 363.79400634765625 210.6536865234375 352.95159912109375 229.88815307617188 350.873779296875 234.44790649414062 C 304.8948059082031 230.41183471679688 302.2961120605469 228.97055053710938 313.10235595703125 208.77284240722656 C 305.6961669921875 154.29119873046875 288.47723388671875 198.15953063964844 328.91082763671875 147.1421356201172 C 365.030517578125 132.9556427001953 369.0320129394531 130.8170166015625 368.43365478515625 163.96343994140625 L 367.8437194824219 175.908203125" stroke-width="2.0" fill="rgb(227, 203, 154)" opacity="1.0"/>
    <path d="M 175.59584045410156 350.57745361328125 C 173.4659881591797 349.733642578125 173.5992431640625 349.3130798339844 173.5552215576172 351.2969665527344 C 174.7620086669922 350.3147277832031 173.171142578125 350.58880615234375 175.73023986816406 351.8853454589844 C 174.15176391601562 349.2453308105469 174.70542907714844 348.00164794921875 173.6309356689453 349.8758850097656 C 174.79835510253906 348.95709228515625 174.57498168945312 350.71063232421875 173.81997680664062 351.7549133300781 L 175.59584045410156 350.57745361328125" stroke-width="2.0" fill="rgb(179, 178, 0)" opacity="0.0"/>
    <path d="M 268.0691223144531 415.9681701660156 C 362.77447509765625 524.996826171875 381.8087463378906 386.3948059082031 437.6120910644531 526.7215576171875 C 47.91571807861328 541.0720825195312 23.448972702026367 564.1943359375 -14.603157043457031 486.3896179199219 C -4.485526084899902 287.3146667480469 40.598751068115234 267.5499267578125 158.02589416503906 332.94879150390625 C 225.4300537109375 378.49224853515625 215.38037109375 374.62554931640625 180.608154296875 346.2719421386719 L 268.0691223144531 415.9681701660156" stroke-width="2.0" fill="rgb(25, 16, 39)" opacity="0.9999977"/>
  </g>
</svg>
