<?xml version="1.0" ?>
<svg xmlns="http://www.w3.org/2000/svg" version="1.1" width="512" height="512">
  <defs/>
  <g>
    <path d="M 1.3609942197799683 1.383206844329834 L 512.251708984375 1.3610751628875732 L 512.2444458007812 512.229736328125 L 1.3279047012329102 512.2252807617188 L 1.3609942197799683 1.383206844329834" stroke-width="0.0" fill="rgb(344, 255, 255)" opacity="1.3519777" stroke="rgb(0, 0, 0)" stroke-opacity="0.0" stroke-linecap="round" stroke-linejoin="round"/>
    <path d="M 0.1514596939086914 0.14872995018959045 L 0.15384246408939362 512.6738891601562 L 512.6890869140625 512.6692504882812 L 512.673583984375 0.15035130083560944 L 0.1514596939086914 0.14872995018959045" stroke-width="2.0" fill="rgb(133, 220, 220)" opacity="1.4039941" stroke="rgb(0, 0, 0)" stroke-opacity="0.0" stroke-linecap="round" stroke-linejoin="round"/>
    <path d="M 121.47103118896484 80.52900695800781 C 103.91922760009766 96.40347290039062 110.43840026855469 112.0382308959961 118.76611328125 128.84556579589844 C 100.57793426513672 138.72064208984375 88.91817474365234 156.14979553222656 96.62835693359375 173.10955810546875 C 82.64955139160156 175.78384399414062 88.82295989990234 184.66896057128906 96.3627700805664 192.60699462890625 C 79.87324523925781 197.2752685546875 52.75479507446289 186.35781860351562 48.679786682128906 215.24520874023438 C 56.61396789550781 232.03713989257812 46.08243942260742 263.54473876953125 73.81625366210938 265.33465576171875 L 81.74303436279297 286.08258056640625 C 71.23358154296875 301.75421142578125 55.006168365478516 294.2298278808594 45.03877639770508 304.5273132324219 C 42.631004333496094 318.2220764160156 47.751258850097656 327.6629943847656 50.87919998168945 336.6224060058594 C 46.860843658447266 345.075439453125 31.45650863647461 365.9989013671875 51.35918045043945 356.8516540527344 C 58.727073669433594 351.8653259277344 65.33634185791016 345.61627197265625 71.7390365600586 342.6943359375 C 68.84761047363281 353.55474853515625 67.96756744384766 365.234130859375 69.0116195678711 376.5871887207031 C 62.93201446533203 381.6669616699219 56.206153869628906 374.38360595703125 47.75825881958008 378.01190185546875 C 50.03717041015625 393.4667663574219 66.09986877441406 406.02740478515625 77.7842788696289 401.5948181152344 C 110.31583404541016 444.5249938964844 156.17218017578125 444.0537109375 188.53018188476562 402.9997253417969 C 224.0623779296875 397.0471496582031 259.01123046875 405.9102783203125 292.76739501953125 397.33258056640625 C 300.9314270019531 382.5929260253906 310.5022277832031 383.78570556640625 321.1389465332031 377.1859436035156 L 321.4964294433594 400.76910400390625 C 330.5049743652344 399.59124755859375 335.40020751953125 388.74627685546875 337.5350036621094 389.37579345703125 C 354.18701171875 428.8023376464844 396.1719665527344 442.9836730957031 427.9549255371094 427.4083251953125 C 472.79547119140625 397.3181457519531 478.8826904296875 348.7286682128906 438.873779296875 311.1552429199219 C 440.7627258300781 306.5486755371094 454.53662109375 309.0286560058594 454.9629821777344 300.28509521484375 C 424.9896545410156 275.08148193359375 396.712158203125 272.88262939453125 367.61920166015625 280.4964904785156 C 357.5533447265625 267.1754455566406 355.32086181640625 254.35848999023438 346.884765625 241.3362274169922 C 360.29229736328125 235.08592224121094 366.83453369140625 210.68247985839844 352.75091552734375 200.19711303710938 C 341.055908203125 196.0862579345703 321.27764892578125 209.84945678710938 316.52642822265625 195.36338806152344 C 317.39923095703125 187.16896057128906 321.7411804199219 178.97291564941406 310.5695495605469 173.3892059326172 C 309.5212707519531 164.265380859375 305.7026062011719 138.6455535888672 291.91314697265625 155.22698974609375 C 287.16796875 164.46438598632812 288.8693542480469 173.48544311523438 290.8515319824219 184.371826171875 C 299.1866760253906 187.23187255859375 318.3572692871094 180.31092834472656 310.0123596191406 194.4736785888672 C 292.6876220703125 200.33279418945312 276.90130615234375 202.24957275390625 260.2104187011719 188.97926330566406 C 245.18260192871094 189.71629333496094 227.11349487304688 176.76370239257812 228.3547821044922 158.83497619628906 C 228.4857940673828 154.8310089111328 232.59251403808594 148.97048950195312 229.03878784179688 141.73236083984375 C 234.3272247314453 134.27432250976562 240.33755493164062 141.47093200683594 245.31268310546875 133.0441131591797 C 252.8794403076172 121.52123260498047 242.06570434570312 107.07999420166016 260.80291748046875 100.24083709716797 C 251.0557098388672 69.33628845214844 206.58993530273438 57.52935791015625 190.61502075195312 91.89178466796875 C 189.4349365234375 104.59268951416016 194.20289611816406 116.39622497558594 190.5780487060547 128.27325439453125 C 177.3762664794922 136.6685333251953 166.31190490722656 147.93858337402344 161.9125213623047 160.9897003173828 C 152.9790802001953 151.99514770507812 152.32435607910156 134.3026885986328 166.46429443359375 136.86553955078125 C 170.93887329101562 127.44985961914062 172.88014221191406 117.56389617919922 168.88934326171875 106.60137939453125 C 192.81732177734375 97.37957763671875 163.87535095214844 78.20822143554688 151.0680389404297 74.30980682373047 C 141.44859313964844 73.83522033691406 131.80731201171875 72.47078704833984 121.47103118896484 80.52900695800781" stroke-width="2.0" fill="rgb(15, 67, 97)" opacity="1.1716051" stroke="rgb(0, 0, 0)" stroke-opacity="0.0" stroke-linecap="round" stroke-linejoin="round"/>
    <path d="M 391.2239990234375 300.8439025878906 C 386.07293701171875 300.87255859375 376.1913757324219 301.6319274902344 380.3165283203125 308.52557373046875 C 385.02178955078125 324.3241882324219 396.09637451171875 342.74462890625 398.5517272949219 355.91571044921875 C 402.08770751953125 351.1629333496094 412.4693603515625 358.3492126464844 405.3601989746094 353.24273681640625 C 410.6088562011719 351.0697937011719 413.48529052734375 359.94696044921875 416.6447448730469 363.72808837890625 C 415.73138427734375 365.8003845214844 418.7664794921875 374.719482421875 414.7306823730469 368.90704345703125 C 416.6571044921875 380.9835510253906 413.15216064453125 369.0744934082031 407.89117431640625 365.9028625488281 C 408.3614196777344 374.68548583984375 399.13726806640625 376.4830322265625 393.0011291503906 374.03448486328125 C 396.94024658203125 379.791015625 393.2751159667969 385.6119079589844 389.0711364746094 379.8709716796875 C 386.7978515625 372.8242492675781 394.154296875 365.26202392578125 383.41864013671875 362.02337646484375 C 387.5461120605469 360.6470947265625 381.71832275390625 359.9662780761719 384.2821044921875 357.3272399902344 C 375.60223388671875 344.5508728027344 369.2877502441406 332.7925109863281 364.2286376953125 320.7758483886719 C 380.4496154785156 315.5447692871094 372.1197814941406 303.6488952636719 358.496826171875 311.158935546875 C 336.8798522949219 333.5120849609375 338.1805725097656 358.5190124511719 335.3018798828125 385.14154052734375 C 340.8157653808594 402.8123779296875 363.11285400390625 427.76068115234375 381.50274658203125 429.7135009765625 C 407.6832275390625 430.90985107421875 438.2879333496094 431.7156982421875 457.3188171386719 399.2217102050781 C 472.2976379394531 369.1011657714844 468.03338623046875 332.7129821777344 430.3551940917969 304.2857666015625 C 417.5087585449219 300.5069885253906 402.55914306640625 307.8317565917969 391.2239990234375 300.8439025878906" stroke-width="2.0" fill="rgb(35, 105, 128)" opacity="0.90159553" stroke="rgb(0, 0, 0)" stroke-opacity="0.0" stroke-linecap="round" stroke-linejoin="round"/>
    <path d="M 215.05274963378906 70.30514526367188 C 190.27015686035156 76.9100570678711 185.279541015625 106.19563293457031 192.31576538085938 120.94100952148438 C 187.63034057617188 138.7628936767578 160.9579315185547 153.46304321289062 165.0684356689453 171.25567626953125 C 171.72109985351562 188.5138702392578 189.2403106689453 192.1215362548828 207.92538452148438 199.7609100341797 C 216.6273193359375 209.89498901367188 211.79742431640625 218.5301971435547 216.3245849609375 223.54852294921875 C 219.9093475341797 224.98989868164062 224.67822265625 226.66217041015625 228.00140380859375 229.20692443847656 C 232.5972137451172 226.7185821533203 233.40882873535156 222.55438232421875 236.1582794189453 216.1361846923828 C 247.21624755859375 221.92759704589844 256.116455078125 220.49134826660156 265.44244384765625 212.9442596435547 C 265.6487731933594 211.44189453125 258.4624328613281 220.62982177734375 255.91856384277344 212.79750061035156 C 256.1037902832031 191.05020141601562 276.7715759277344 199.21075439453125 285.021484375 204.24240112304688 C 267.77105712890625 199.12693786621094 257.3546142578125 182.60791015625 244.37911987304688 184.61634826660156 C 222.5735626220703 174.12356567382812 232.13653564453125 153.6444854736328 228.06007385253906 136.52503967285156 C 229.7019500732422 128.02346801757812 237.70814514160156 137.06344604492188 241.01646423339844 131.99740600585938 C 243.71075439453125 124.71163940429688 247.2918243408203 117.09112548828125 243.21844482421875 107.63099670410156 C 250.93020629882812 103.4953842163086 259.7685852050781 107.146484375 261.6772155761719 97.9017105102539 C 251.1656036376953 79.72327423095703 233.04782104492188 66.53791046142578 215.05274963378906 70.30514526367188" stroke-width="2.0" fill="rgb(50, 131, 146)" opacity="0.9177758" stroke="rgb(0, 0, 0)" stroke-opacity="0.0" stroke-linecap="round" stroke-linejoin="round"/>
    <path d="M 148.08338928222656 75.34028625488281 C 119.5224838256836 66.2711410522461 93.20747375488281 111.68670654296875 124.25048828125 128.57125854492188 C 106.7802734375 137.13563537597656 82.28844451904297 151.4725341796875 97.851806640625 171.06900024414062 C 95.67802429199219 180.50250244140625 85.60456848144531 170.68716430664062 87.17776489257812 178.0043487548828 C 93.25362396240234 197.4483184814453 112.49510192871094 192.70794677734375 125.03360748291016 199.99227905273438 C 124.07769012451172 183.34043884277344 119.02534484863281 166.76351928710938 132.4258270263672 149.97154235839844 C 153.0071258544922 139.92015075683594 150.06080627441406 124.17273712158203 152.86936950683594 110.68189239501953 C 159.30270385742188 101.80120086669922 179.07138061523438 108.68938446044922 180.22836303710938 95.48023223876953 C 168.4852752685547 85.23883819580078 158.75389099121094 75.35430908203125 148.08338928222656 75.34028625488281" stroke-width="2.0" fill="rgb(4, 13, 47)" opacity="1.0582364" stroke="rgb(0, 0, 0)" stroke-opacity="0.0" stroke-linecap="round" stroke-linejoin="round"/>
    <path d="M 150.4602813720703 299.6162414550781 C 118.60057067871094 287.86798095703125 76.10075378417969 310.4223937988281 71.81527709960938 347.1288757324219 C 69.3067855834961 356.9683837890625 66.97477722167969 366.77752685546875 70.06859588623047 377.50848388671875 C 89.92127990722656 377.35052490234375 109.94685363769531 376.54937744140625 130.05848693847656 374.603271484375 C 116.78092956542969 366.67852783203125 143.25262451171875 360.0830383300781 134.083984375 349.839599609375 C 139.2322998046875 332.7398681640625 149.0981903076172 316.3189392089844 150.4602813720703 299.6162414550781" stroke-width="2.0" fill="rgb(16, 32, 66)" opacity="1.1142181" stroke="rgb(0, 0, 0)" stroke-opacity="0.0" stroke-linecap="round" stroke-linejoin="round"/>
    <path d="M 321.76995849609375 241.2764129638672 C 316.1897277832031 242.96372985839844 323.82769775390625 251.0303497314453 320.61663818359375 257.9416198730469 C 310.0345764160156 285.87237548828125 299.12933349609375 313.5273132324219 266.1417541503906 318.6783142089844 C 265.2498474121094 330.2093200683594 261.37420654296875 336.9286193847656 261.64849853515625 343.0437927246094 C 270.77142333984375 340.17181396484375 288.588623046875 339.0066223144531 298.5809020996094 354.7203674316406 C 303.1869201660156 361.2330017089844 301.77899169921875 376.2314453125 310.34014892578125 365.31829833984375 C 313.3305969238281 375.7485046386719 321.42803955078125 366.43804931640625 310.12506103515625 366.7558288574219 C 313.81988525390625 354.116943359375 322.17694091796875 364.36724853515625 315.22259521484375 359.2090759277344 C 326.6974182128906 334.86273193359375 332.5565185546875 312.7760314941406 338.4084167480469 292.2304992675781 C 337.5962829589844 276.4483947753906 330.78924560546875 259.4710388183594 321.76995849609375 241.2764129638672" stroke-width="2.0" fill="rgb(198, 228, 219)" opacity="1.1068321" stroke="rgb(0, 0, 0)" stroke-opacity="0.0" stroke-linecap="round" stroke-linejoin="round"/>
    <path d="M 276.53515625 243.6258087158203 C 262.6417541503906 241.4485321044922 248.7408447265625 239.48680114746094 235.19253540039062 243.39231872558594 C 237.64309692382812 266.77520751953125 223.97152709960938 291.5313720703125 226.50450134277344 313.8097839355469 C 232.1312255859375 325.6184387207031 245.6627960205078 334.051513671875 257.3025207519531 331.575439453125 C 264.7445373535156 304.1170959472656 287.79376220703125 276.5647277832031 289.66522216796875 252.5792236328125 C 286.6445617675781 249.13092041015625 282.095947265625 244.02073669433594 276.53515625 243.6258087158203" stroke-width="2.0" fill="rgb(-7, 17, 39)" opacity="0.63934773" stroke="rgb(0, 0, 0)" stroke-opacity="0.0" stroke-linecap="round" stroke-linejoin="round"/>
    <path d="M 293.85723876953125 357.0486145019531 C 284.18402099609375 344.1139831542969 268.19390869140625 339.3728942871094 255.08209228515625 354.42352294921875 C 243.6517791748047 344.3480224609375 228.42088317871094 338.1063537597656 224.9749755859375 351.9132995605469 C 222.92581176757812 368.1225280761719 213.4464874267578 383.19549560546875 218.28627014160156 398.0787658691406 C 243.5712890625 393.36865234375 269.5166931152344 404.02325439453125 296.2915954589844 389.9103088378906 C 298.5246276855469 378.0079345703125 302.3553771972656 367.3730773925781 293.85723876953125 357.0486145019531" stroke-width="2.0" fill="rgb(67, 97, 122)" opacity="1.147714" stroke="rgb(0, 0, 0)" stroke-opacity="0.0" stroke-linecap="round" stroke-linejoin="round"/>
    <path d="M 116.415771484375 201.1307830810547 C 97.88029479980469 196.96302795410156 79.79080963134766 195.23089599609375 59.717994689941406 193.9569091796875 C 38.03730392456055 212.045654296875 56.55682373046875 234.82801818847656 53.796077728271484 254.75096130371094 C 58.64738082885742 269.1413879394531 71.78028869628906 263.8887634277344 78.69625854492188 253.41665649414062 C 92.01464080810547 253.01596069335938 102.87175750732422 255.3386993408203 114.18504333496094 253.0060272216797 C 118.03693389892578 240.56192016601562 111.44097137451172 223.54103088378906 129.1138153076172 214.2911376953125 C 118.1310043334961 214.8026885986328 107.26937866210938 215.77122497558594 96.11766815185547 214.6947479248047 C 91.41250610351562 197.11216735839844 118.5556869506836 207.26292419433594 116.415771484375 201.1307830810547" stroke-width="2.0" fill="rgb(58, 112, 131)" opacity="0.94677037" stroke="rgb(0, 0, 0)" stroke-opacity="0.0" stroke-linecap="round" stroke-linejoin="round"/>
    <path d="M 234.5886993408203 241.66989135742188 C 236.68121337890625 249.8205108642578 226.92832946777344 274.17327880859375 243.00689697265625 262.9674987792969 C 240.2965850830078 275.1473388671875 245.16122436523438 274.05706787109375 251.70240783691406 263.3660888671875 C 258.7624816894531 262.04498291015625 249.03524780273438 270.4051818847656 253.29873657226562 274.3717346191406 C 244.2162628173828 292.9892883300781 239.0146026611328 309.72900390625 235.10421752929688 325.24334716796875 C 242.23561096191406 324.74578857421875 247.44728088378906 330.7567443847656 255.0520782470703 333.74456787109375 C 265.66143798828125 304.6455383300781 289.00640869140625 274.5271301269531 289.32989501953125 251.93014526367188 C 274.5592346191406 236.20230102539062 252.7523651123047 242.24464416503906 234.5886993408203 241.66989135742188" stroke-width="2.0" fill="rgb(74, 209, 207)" opacity="0.9779745" stroke="rgb(0, 0, 0)" stroke-opacity="0.0" stroke-linecap="round" stroke-linejoin="round"/>
    <path d="M 136.50892639160156 239.13284301757812 C 129.60821533203125 248.36349487304688 134.5725555419922 257.9627685546875 144.24560546875 257.9034118652344 C 166.56204223632812 256.4151306152344 192.57830810546875 258.45013427734375 213.72227478027344 244.1324005126953 C 214.7238311767578 254.956298828125 207.03236389160156 265.4483337402344 209.92431640625 276.0915832519531 C 212.4258270263672 285.68804931640625 201.65585327148438 309.6994934082031 222.4257049560547 306.440185546875 C 222.68682861328125 283.40716552734375 232.8790740966797 257.0979309082031 229.1985321044922 236.89816284179688 C 199.9288787841797 224.58709716796875 174.01565551757812 230.38731384277344 148.29302978515625 229.92092895507812 L 136.50892639160156 239.13284301757812" stroke-width="2.0" fill="rgb(81, 201, 201)" opacity="1.0172204" stroke="rgb(0, 0, 0)" stroke-opacity="0.0" stroke-linecap="round" stroke-linejoin="round"/>
    <path d="M 53.38054275512695 434.2725524902344 C 56.53884506225586 437.78460693359375 64.83223724365234 434.0721740722656 70.47608184814453 438.525390625 C 190.08242797851562 436.8878479003906 312.0775451660156 439.9324035644531 436.2265319824219 437.4981994628906 L 434.7961730957031 430.3122253417969 C 335.579833984375 433.2308349609375 239.71115112304688 428.25537109375 142.87986755371094 432.0882873535156 C 115.76408386230469 432.28363037109375 85.14453125 428.3885498046875 53.38054275512695 434.2725524902344" stroke-width="2.0" fill="rgb(2, 10, 53)" opacity="1.01144" stroke="rgb(0, 0, 0)" stroke-opacity="0.0" stroke-linecap="round" stroke-linejoin="round"/>
    <path d="M 238.07421875 219.9815216064453 C 237.00418090820312 227.74478149414062 227.42959594726562 234.9501190185547 233.76414489746094 237.35946655273438 C 254.49317932128906 238.66822814941406 274.4021301269531 231.3341064453125 290.8009033203125 247.69322204589844 C 302.64404296875 267.5616149902344 270.2452087402344 290.3594970703125 284.4157409667969 307.6187438964844 C 305.38787841796875 294.53106689453125 307.09356689453125 273.5641174316406 316.6720275878906 258.50537109375 C 320.44525146484375 225.923583984375 282.18292236328125 206.119384765625 256.5335388183594 225.04396057128906 C 250.31117248535156 222.9300537109375 244.6887969970703 226.17669677734375 238.07421875 219.9815216064453" stroke-width="2.0" fill="rgb(35, 199, 200)" opacity="0.99988025" stroke="rgb(0, 0, 0)" stroke-opacity="0.0" stroke-linecap="round" stroke-linejoin="round"/>
    <path d="M 146.38916015625 121.08092498779297 C 124.04869842529297 128.47096252441406 78.24293518066406 141.7345428466797 97.70758056640625 170.76400756835938 C 95.28949737548828 181.11212158203125 84.39354705810547 169.64208984375 86.88882446289062 179.51275634765625 C 93.9749755859375 199.11532592773438 111.40217590332031 194.25906372070312 126.55840301513672 203.5215301513672 C 126.26927185058594 184.02679443359375 119.8851318359375 167.55564880371094 132.9954071044922 150.9015350341797 C 143.88525390625 142.52081298828125 152.2775115966797 131.59754943847656 146.38916015625 121.08092498779297" stroke-width="2.0" fill="rgb(24, 27, 66)" opacity="1.1417938" stroke="rgb(0, 0, 0)" stroke-opacity="0.0" stroke-linecap="round" stroke-linejoin="round"/>
    <path d="M 80.47745513916016 400.8031311035156 C 96.86405944824219 433.5326843261719 132.63644409179688 437.38018798828125 158.83389282226562 428.0212707519531 C 168.0910186767578 422.8739318847656 179.24942016601562 415.4450988769531 185.53903198242188 403.72979736328125 C 176.1378173828125 392.71160888671875 157.20230102539062 400.1300964355469 144.5952911376953 400.3585510253906 C 124.36075592041016 401.3102722167969 103.22547149658203 395.87005615234375 80.47745513916016 400.8031311035156" stroke-width="2.0" fill="rgb(4, 6, 49)" opacity="1.1404003" stroke="rgb(0, 0, 0)" stroke-opacity="0.0" stroke-linecap="round" stroke-linejoin="round"/>
    <path d="M 132.3495330810547 151.8115692138672 C 122.13351440429688 169.25881958007812 125.12676239013672 183.73976135253906 127.68902587890625 199.224609375 C 136.98875427246094 201.3944549560547 145.32765197753906 191.28082275390625 152.7744598388672 188.48109436035156 C 169.38380432128906 213.1399688720703 190.08641052246094 211.26495361328125 210.12120056152344 216.22052001953125 C 204.10348510742188 195.45840454101562 179.7821807861328 202.32891845703125 171.4920196533203 189.86941528320312 C 157.52345275878906 175.73252868652344 153.5574951171875 129.84193420410156 132.3495330810547 151.8115692138672" stroke-width="2.0" fill="rgb(76, 189, 191)" opacity="1.0186039" stroke="rgb(0, 0, 0)" stroke-opacity="0.0" stroke-linecap="round" stroke-linejoin="round"/>
    <path d="M 65.02040100097656 381.87139892578125 C 68.32823944091797 386.8379211425781 73.07604217529297 396.05340576171875 79.14027404785156 396.7023010253906 L 203.92022705078125 396.6418151855469 C 222.90977478027344 393.04278564453125 201.97669982910156 385.05377197265625 191.6200408935547 385.1138916015625 C 151.02012634277344 380.6592102050781 108.33430480957031 382.4240417480469 65.02040100097656 381.87139892578125" stroke-width="2.0" fill="rgb(171, 227, 221)" opacity="1.0627828" stroke="rgb(0, 0, 0)" stroke-opacity="0.0" stroke-linecap="round" stroke-linejoin="round"/>
    <path d="M 178.7623748779297 92.03075408935547 C 156.75904846191406 63.630523681640625 110.09944915771484 75.71589660644531 113.84797668457031 109.24259948730469 C 115.34739685058594 121.43009948730469 131.7236785888672 130.3795166015625 142.16371154785156 118.91232299804688 C 144.78103637695312 92.8880386352539 170.3424530029297 107.2893295288086 178.7623748779297 92.03075408935547" stroke-width="2.0" fill="rgb(134, 153, 164)" opacity="1.1132877" stroke="rgb(0, 0, 0)" stroke-opacity="0.0" stroke-linecap="round" stroke-linejoin="round"/>
    <path d="M 189.0382843017578 92.42858123779297 C 186.86514282226562 107.97920227050781 205.21124267578125 129.7751007080078 221.40419006347656 118.70171356201172 C 223.42625427246094 103.54773712158203 235.81265258789062 96.79307556152344 250.81304931640625 106.98617553710938 C 268.66387939453125 106.94933319091797 253.5566864013672 89.2536849975586 245.58338928222656 76.20632934570312 C 227.87228393554688 64.35729217529297 199.57484436035156 68.43061828613281 189.0382843017578 92.42858123779297" stroke-width="2.0" fill="rgb(66, 144, 156)" opacity="1.1353174" stroke="rgb(0, 0, 0)" stroke-opacity="0.0" stroke-linecap="round" stroke-linejoin="round"/>
    <path d="M 76.55451965332031 257.978759765625 C 77.46491241455078 267.60675048828125 77.78651428222656 281.87493896484375 90.15675354003906 285.7614440917969 C 114.67910766601562 284.3898620605469 142.01126098632812 288.2933654785156 164.93222045898438 284.7913818359375 L 163.6222686767578 270.40203857421875 C 148.2362060546875 270.03900146484375 132.56832885742188 266.9435119628906 117.06633758544922 263.21026611328125 L 115.43905639648438 258.05450439453125 L 76.55451965332031 257.978759765625" stroke-width="2.0" fill="rgb(52, 62, 96)" opacity="1.1796063" stroke="rgb(0, 0, 0)" stroke-opacity="0.0" stroke-linecap="round" stroke-linejoin="round"/>
    <path d="M 103.3355941772461 293.92413330078125 C 92.73246765136719 296.7686767578125 88.54991912841797 293.78924560546875 82.70369720458984 287.7010192871094 C 70.3156509399414 299.03564453125 58.22332000732422 297.2727355957031 44.610252380371094 300.6705627441406 C 45.424041748046875 313.5559387207031 38.57432174682617 326.2814025878906 49.84021759033203 334.5672607421875 C 52.30695343017578 339.7991943359375 41.77952575683594 347.4946594238281 38.53093338012695 355.82733154296875 C 58.43922424316406 350.7710876464844 79.28278350830078 330.3587341308594 84.34959411621094 318.42144775390625 C 88.68651580810547 312.37347412109375 92.45304870605469 301.02685546875 96.49594116210938 302.9665832519531 C 96.53856658935547 297.5362243652344 100.91024780273438 298.4566955566406 103.3355941772461 293.92413330078125" stroke-width="2.0" fill="rgb(94, 177, 182)" opacity="1.1633933" stroke="rgb(0, 0, 0)" stroke-opacity="0.0" stroke-linecap="round" stroke-linejoin="round"/>
    <path d="M 369.5086669921875 284.7591552734375 C 368.17718505859375 288.1011657714844 375.309814453125 296.74267578125 379.1982727050781 307.36114501953125 C 406.7908935546875 290.1583557128906 431.21856689453125 312.13909912109375 451.0251770019531 302.9233093261719 C 427.02508544921875 280.1062927246094 394.3316650390625 276.0406799316406 369.5086669921875 284.7591552734375" stroke-width="2.0" fill="rgb(119, 191, 196)" opacity="1.1093168" stroke="rgb(0, 0, 0)" stroke-opacity="0.0" stroke-linecap="round" stroke-linejoin="round"/>
    <path d="M 144.23468017578125 323.9367980957031 C 114.27622985839844 313.3916015625 80.33493041992188 349.5314025878906 93.64421844482422 378.0334777832031 L 119.4296646118164 377.79925537109375 C 112.87469482421875 367.64398193359375 119.80622100830078 350.66156005859375 133.8849334716797 351.1699523925781 C 138.66758728027344 342.39886474609375 139.7058563232422 329.8533935546875 144.23468017578125 323.9367980957031" stroke-width="2.0" fill="rgb(34, 197, 197)" opacity="1.021881" stroke="rgb(0, 0, 0)" stroke-opacity="0.0" stroke-linecap="round" stroke-linejoin="round"/>
    <path d="M 358.50225830078125 203.58099365234375 C 346.529296875 195.5518798828125 333.8040771484375 201.8490753173828 321.39117431640625 203.27317810058594 C 317.8160705566406 210.82286071777344 325.6509704589844 224.60093688964844 312.1544494628906 222.1895294189453 L 313.2447204589844 236.01150512695312 C 327.65093994140625 239.30471801757812 341.3758239746094 236.72515869140625 356.18499755859375 236.48219299316406 C 362.195068359375 226.08485412597656 359.2249450683594 215.46243286132812 358.50225830078125 203.58099365234375" stroke-width="2.0" fill="rgb(0, 7, 44)" opacity="0.9795856" stroke="rgb(0, 0, 0)" stroke-opacity="0.0" stroke-linecap="round" stroke-linejoin="round"/>
    <path d="M 169.12083435058594 313.49786376953125 C 172.25088500976562 328.1635437011719 194.9188995361328 345.14404296875 192.7565155029297 364.8771057128906 L 216.13003540039062 364.7237548828125 L 223.662841796875 342.07672119140625 C 208.49771118164062 344.9501037597656 196.43527221679688 334.91229248046875 205.7358856201172 322.5894775390625 C 193.728515625 308.7262268066406 183.22422790527344 311.4525146484375 169.12083435058594 313.49786376953125" stroke-width="2.0" fill="rgb(20, 175, 174)" opacity="0.9519719" stroke="rgb(0, 0, 0)" stroke-opacity="0.0" stroke-linecap="round" stroke-linejoin="round"/>
    <path d="M 162.3611602783203 325.14251708984375 C 154.17047119140625 338.6379699707031 154.48399353027344 347.0569763183594 150.42352294921875 358.8813781738281 C 156.47540283203125 369.1429748535156 176.80816650390625 365.8106384277344 189.2600555419922 363.7012634277344 C 188.2333526611328 352.4551696777344 178.74559020996094 337.54638671875 167.34429931640625 326.6642150878906 C 166.29661560058594 327.8699951171875 164.0760955810547 320.81671142578125 162.3611602783203 325.14251708984375" stroke-width="2.0" fill="rgb(21, 104, 125)" opacity="1.0331181" stroke="rgb(0, 0, 0)" stroke-opacity="0.0" stroke-linecap="round" stroke-linejoin="round"/>
    <path d="M 319.32452392578125 208.3490753173828 C 308.1083068847656 195.46499633789062 302.3922119140625 199.80860900878906 291.8348388671875 204.79457092285156 C 278.6380615234375 202.80953979492188 253.78407287597656 191.87646484375 256.4991760253906 213.75482177734375 C 270.50518798828125 216.85414123535156 286.5889892578125 207.89495849609375 301.2904052734375 219.89370727539062 C 306.9661865234375 209.82687377929688 321.1026611328125 218.97769165039062 319.32452392578125 208.3490753173828" stroke-width="2.0" fill="rgb(101, 101, 125)" opacity="0.7899441" stroke="rgb(0, 0, 0)" stroke-opacity="0.0" stroke-linecap="round" stroke-linejoin="round"/>
    <path d="M 157.45701599121094 298.667236328125 C 150.8860626220703 308.4489440917969 149.18508911132812 327.0531311035156 142.8382568359375 341.1712341308594 C 137.1300048828125 348.70623779296875 143.13014221191406 359.7791442871094 126.633544921875 364.5970458984375 C 127.26821899414062 381.93389892578125 168.68716430664062 373.08770751953125 140.766357421875 368.76708984375 C 148.56884765625 346.55377197265625 155.6015625 324.18603515625 165.6912384033203 301.5015563964844 L 157.45701599121094 298.667236328125" stroke-width="2.0" fill="rgb(125, 158, 167)" opacity="1.1075575" stroke="rgb(0, 0, 0)" stroke-opacity="0.0" stroke-linecap="round" stroke-linejoin="round"/>
    <path d="M 314.7941589355469 209.02488708496094 C 315.3500061035156 208.77801513671875 315.674072265625 202.24020385742188 306.8435974121094 198.36642456054688 C 291.5379943847656 207.896728515625 278.38226318359375 202.26507568359375 263.2487487792969 198.12506103515625 C 257.5108947753906 202.75128173828125 255.68344116210938 209.6549835205078 254.6028594970703 215.56100463867188 C 268.7021789550781 213.92120361328125 286.49114990234375 216.05511474609375 301.2168273925781 208.896728515625 C 304.9022521972656 211.7570037841797 310.5086975097656 212.39141845703125 314.7941589355469 209.02488708496094" stroke-width="2.0" fill="rgb(200, 231, 223)" opacity="1.0593528" stroke="rgb(0, 0, 0)" stroke-opacity="0.0" stroke-linecap="round" stroke-linejoin="round"/>
    <path d="M 156.2098388671875 88.4368896484375 C 133.58291625976562 70.7447280883789 102.27144622802734 110.39563751220703 126.46959686279297 123.369140625 C 145.048095703125 127.91799926757812 136.41839599609375 112.4130859375 144.16510009765625 102.30883026123047 C 136.61354064941406 95.03102111816406 148.86790466308594 93.78113555908203 156.2098388671875 88.4368896484375" stroke-width="2.0" fill="rgb(22, 182, 183)" opacity="0.9636353" stroke="rgb(0, 0, 0)" stroke-opacity="0.0" stroke-linecap="round" stroke-linejoin="round"/>
    <path d="M 83.92837524414062 286.5971984863281 C 79.37527465820312 284.70257568359375 72.54956817626953 295.39630126953125 65.28520965576172 299.66229248046875 C 43.67668151855469 289.3101501464844 34.80557632446289 327.0383605957031 55.779502868652344 335.4592590332031 C 60.972442626953125 328.9276123046875 66.61742401123047 308.0320739746094 65.56077575683594 314.0433349609375 C 67.17071533203125 303.11248779296875 82.10279083251953 296.2452087402344 83.92837524414062 286.5971984863281" stroke-width="2.0" fill="rgb(62, 106, 125)" opacity="1.3553607" stroke="rgb(0, 0, 0)" stroke-opacity="0.0" stroke-linecap="round" stroke-linejoin="round"/>
    <path d="M 345.1627197265625 203.04605102539062 C 337.2917175292969 203.9434356689453 331.35577392578125 204.1109161376953 324.2063903808594 206.77073669433594 C 344.0727844238281 222.45767211914062 303.1051330566406 223.5242156982422 317.7431335449219 235.8836212158203 L 344.1833190917969 230.37939453125 L 345.1627197265625 203.04605102539062" stroke-width="2.0" fill="rgb(55, 179, 182)" opacity="1.0324812" stroke="rgb(0, 0, 0)" stroke-opacity="0.0" stroke-linecap="round" stroke-linejoin="round"/>
    <path d="M 248.34634399414062 185.97601318359375 C 236.49615478515625 200.0528564453125 233.0264129638672 229.97079467773438 257.16387939453125 223.30824279785156 C 267.01556396484375 216.65357971191406 249.116943359375 215.6556854248047 256.44580078125 208.1958770751953 C 257.0652770996094 198.27926635742188 269.24554443359375 199.6192626953125 269.6363830566406 192.8972930908203 C 262.0026550292969 189.6666259765625 255.68612670898438 187.03912353515625 248.34634399414062 185.97601318359375" stroke-width="2.0" fill="rgb(5, 25, 57)" opacity="1.1121801" stroke="rgb(0, 0, 0)" stroke-opacity="0.0" stroke-linecap="round" stroke-linejoin="round"/>
    <path d="M 396.0 351.3266296386719 C 393.85675048828125 360.3998107910156 410.1050720214844 361.86004638671875 406.5949401855469 371.204345703125 C 394.0749206542969 385.83050537109375 391.36163330078125 351.79461669921875 385.2109680175781 360.8482971191406 C 376.169189453125 376.9329833984375 400.6784362792969 395.22802734375 414.57513427734375 376.6366271972656 C 421.981201171875 365.2443542480469 411.1742858886719 348.5435791015625 396.0 351.3266296386719" stroke-width="2.0" fill="rgb(3, 4, 49)" opacity="0.98705953" stroke="rgb(0, 0, 0)" stroke-opacity="0.0" stroke-linecap="round" stroke-linejoin="round"/>
    <path d="M 298.7409973144531 148.3506622314453 C 280.6873779296875 156.99522399902344 290.5660705566406 198.480712890625 308.4827575683594 176.3230743408203 C 320.1201171875 183.05067443847656 308.8179931640625 192.79798889160156 315.9466552734375 198.4752960205078 C 318.4418640136719 188.2289276123047 320.7086181640625 179.05322265625 308.91986083984375 169.61679077148438 C 308.8912048339844 162.51678466796875 309.9471435546875 149.64724731445312 298.7409973144531 148.3506622314453" stroke-width="2.0" fill="rgb(21, 47, 73)" opacity="0.78534156" stroke="rgb(0, 0, 0)" stroke-opacity="0.0" stroke-linecap="round" stroke-linejoin="round"/>
    <path d="M 211.2884063720703 309.22088623046875 C 214.265869140625 318.33056640625 204.1432647705078 327.9355163574219 207.7276153564453 335.3971862792969 C 218.41171264648438 337.03521728515625 234.067626953125 343.12738037109375 241.08851623535156 338.48724365234375 C 227.51605224609375 330.1405334472656 211.72508239746094 321.3966979980469 219.53030395507812 309.0741882324219 L 211.2884063720703 309.22088623046875" stroke-width="2.0" fill="rgb(108, 168, 179)" opacity="1.0037636" stroke="rgb(0, 0, 0)" stroke-opacity="0.0" stroke-linecap="round" stroke-linejoin="round"/>
    <path d="M 301.0882568359375 147.9668426513672 C 286.1485290527344 151.9431915283203 283.8136901855469 174.20956420898438 292.89788818359375 186.48779296875 C 307.64337158203125 179.50694274902344 308.13690185546875 159.7270965576172 301.0882568359375 147.9668426513672" stroke-width="2.0" fill="rgb(66, 129, 142)" opacity="1.1076326" stroke="rgb(0, 0, 0)" stroke-opacity="0.0" stroke-linecap="round" stroke-linejoin="round"/>
    <path d="M 347.49462890625 198.7781524658203 C 351.526123046875 211.5211181640625 337.5258483886719 236.65475463867188 354.96435546875 236.4583740234375 C 361.2102355957031 223.69517517089844 363.69134521484375 198.27671813964844 347.49462890625 198.7781524658203" stroke-width="2.0" fill="rgb(76, 87, 113)" opacity="1.0316329" stroke="rgb(0, 0, 0)" stroke-opacity="0.0" stroke-linecap="round" stroke-linejoin="round"/>
    <path d="M 314.65850830078125 316.9001770019531 C 308.0906677246094 313.3244934082031 281.8542175292969 326.03387451171875 287.0048522949219 334.7416076660156 C 301.7542419433594 347.4114074707031 323.6518249511719 337.47216796875 314.65850830078125 316.9001770019531" stroke-width="2.0" fill="rgb(48, 50, 81)" opacity="0.9944603" stroke="rgb(0, 0, 0)" stroke-opacity="0.0" stroke-linecap="round" stroke-linejoin="round"/>
    <path d="M 152.77197265625 211.27731323242188 C 139.9640655517578 211.90830993652344 127.67300415039062 228.3928985595703 130.9028778076172 240.47142028808594 C 136.50685119628906 231.74789428710938 148.99078369140625 223.40655517578125 162.93338012695312 226.2555389404297 L 152.77197265625 211.27731323242188" stroke-width="2.0" fill="rgb(71, 179, 184)" opacity="1.058207" stroke="rgb(0, 0, 0)" stroke-opacity="0.0" stroke-linecap="round" stroke-linejoin="round"/>
    <path d="M 242.86715698242188 108.96896362304688 C 222.3509521484375 100.06159973144531 225.1785888671875 148.07266235351562 241.60670471191406 130.48912048339844 C 245.0687255859375 123.53617095947266 248.27908325195312 114.2143783569336 242.86715698242188 108.96896362304688" stroke-width="2.0" fill="rgb(60, 40, 57)" opacity="0.80509347" stroke="rgb(0, 0, 0)" stroke-opacity="0.0" stroke-linecap="round" stroke-linejoin="round"/>
    <path d="M 223.30665588378906 358.8206787109375 C 231.8376922607422 369.2717590332031 252.8750762939453 356.88677978515625 250.11529541015625 347.34722900390625 C 237.37979125976562 343.6536865234375 224.30532836914062 340.3127746582031 223.30665588378906 358.8206787109375" stroke-width="2.0" fill="rgb(172, 226, 216)" opacity="1.0479369" stroke="rgb(0, 0, 0)" stroke-opacity="0.0" stroke-linecap="round" stroke-linejoin="round"/>
    <path d="M 210.96212768554688 318.60498046875 C 199.53599548339844 339.71087646484375 223.0155487060547 335.7152404785156 237.2835693359375 339.1368103027344 C 243.1714630126953 333.8514099121094 215.7102508544922 328.0971374511719 218.87210083007812 318.0069274902344 L 210.96212768554688 318.60498046875" stroke-width="2.0" fill="rgb(219, 246, 234)" opacity="1.0284284" stroke="rgb(0, 0, 0)" stroke-opacity="0.0" stroke-linecap="round" stroke-linejoin="round"/>
    <path d="M 159.33261108398438 107.84062957763672 C 145.8689727783203 109.90545654296875 149.78680419921875 134.54820251464844 163.70919799804688 131.8563690185547 C 167.81871032714844 125.25675201416016 168.4720458984375 109.10609436035156 159.33261108398438 107.84062957763672" stroke-width="2.0" fill="rgb(205, 213, 212)" opacity="1.1231" stroke="rgb(0, 0, 0)" stroke-opacity="0.0" stroke-linecap="round" stroke-linejoin="round"/>
    <path d="M 162.015869140625 210.51136779785156 C 162.87936401367188 238.6077880859375 193.89598083496094 226.34994506835938 209.16697692871094 226.8818817138672 C 195.95651245117188 215.16079711914062 182.39195251464844 209.91648864746094 162.015869140625 210.51136779785156" stroke-width="2.0" fill="rgb(3, 2, 49)" opacity="1.0247751" stroke="rgb(0, 0, 0)" stroke-opacity="0.0" stroke-linecap="round" stroke-linejoin="round"/>
    <path d="M 88.1599349975586 266.26483154296875 C 110.19757843017578 274.8006896972656 137.53814697265625 270.163818359375 161.8997039794922 271.83819580078125 C 139.20059204101562 268.9327697753906 114.31488037109375 261.2440490722656 88.1599349975586 266.26483154296875" stroke-width="2.0" fill="rgb(165, 219, 220)" opacity="1.1147941" stroke="rgb(0, 0, 0)" stroke-opacity="0.0" stroke-linecap="round" stroke-linejoin="round"/>
    <path d="M 97.00041961669922 401.93890380859375 C 117.54032897949219 422.09552001953125 148.01478576660156 423.8634338378906 169.9552001953125 402.1549377441406 C 157.72909545898438 405.5605773925781 144.12396240234375 418.2338562011719 125.70851135253906 413.194091796875 C 114.92124938964844 413.66766357421875 107.71878814697266 403.25274658203125 97.00041961669922 401.93890380859375" stroke-width="2.0" fill="rgb(203, 204, 215)" opacity="1.164463" stroke="rgb(0, 0, 0)" stroke-opacity="0.0" stroke-linecap="round" stroke-linejoin="round"/>
    <path d="M 236.44638061523438 107.76607513427734 C 226.19198608398438 111.31046295166016 228.02549743652344 137.41030883789062 240.42503356933594 133.87167358398438 C 242.15187072753906 124.1606674194336 249.30661010742188 105.99974822998047 236.44638061523438 107.76607513427734" stroke-width="2.0" fill="rgb(219, 221, 216)" opacity="1.0819271" stroke="rgb(0, 0, 0)" stroke-opacity="0.0" stroke-linecap="round" stroke-linejoin="round"/>
    <path d="M 249.55584716796875 189.5740966796875 C 243.53173828125 198.79507446289062 238.0062255859375 218.25718688964844 251.8875274658203 219.41259765625 C 248.75445556640625 209.16748046875 252.6555938720703 200.4436798095703 263.73944091796875 194.34744262695312 L 249.55584716796875 189.5740966796875" stroke-width="2.0" fill="rgb(108, 191, 196)" opacity="1.1111693" stroke="rgb(0, 0, 0)" stroke-opacity="0.0" stroke-linecap="round" stroke-linejoin="round"/>
    <path d="M 261.93109130859375 268.28509521484375 C 242.943603515625 282.8558654785156 243.14244079589844 305.4163513183594 235.4502716064453 322.671875 C 234.396484375 326.6807861328125 234.725830078125 328.7496032714844 240.47586059570312 329.06768798828125 C 243.56048583984375 308.5916748046875 249.27183532714844 290.2135314941406 261.93109130859375 268.28509521484375" stroke-width="2.0" fill="rgb(240, 247, 249)" opacity="0.9915679" stroke="rgb(0, 0, 0)" stroke-opacity="0.0" stroke-linecap="round" stroke-linejoin="round"/>
    <path d="M 169.61073303222656 287.9848937988281 C 172.80984497070312 302.5785217285156 191.17848205566406 297.7030334472656 201.6349334716797 298.8682861328125 L 203.04827880859375 288.0171203613281 L 169.61073303222656 287.9848937988281" stroke-width="2.0" fill="rgb(161, 218, 217)" opacity="1.0383191" stroke="rgb(0, 0, 0)" stroke-opacity="0.0" stroke-linecap="round" stroke-linejoin="round"/>
    <path d="M 134.4083709716797 351.9636535644531 C 120.31153869628906 351.0314636230469 112.19468688964844 371.04168701171875 122.01386260986328 380.6046142578125 C 129.75962829589844 380.285888671875 138.76698303222656 378.6455383300781 126.62112426757812 371.61163330078125 C 126.4474868774414 362.70001220703125 138.27073669433594 359.1979064941406 134.4083709716797 351.9636535644531" stroke-width="2.0" fill="rgb(2, 2, 48)" opacity="0.9925762" stroke="rgb(0, 0, 0)" stroke-opacity="0.0" stroke-linecap="round" stroke-linejoin="round"/>
    <path d="M 166.5777587890625 370.7771301269531 L 167.8934783935547 377.2101135253906 C 180.0606689453125 374.5437316894531 197.58738708496094 381.73638916015625 206.7338104248047 374.1110534667969 L 204.90789794921875 370.7757263183594 L 166.5777587890625 370.7771301269531" stroke-width="2.0" fill="rgb(137, 214, 213)" opacity="1.070413" stroke="rgb(0, 0, 0)" stroke-opacity="0.0" stroke-linecap="round" stroke-linejoin="round"/>
    <path d="M 279.7113342285156 287.0486755371094 C 271.6086120605469 295.9669189453125 267.93634033203125 310.83978271484375 262.23309326171875 322.1893615722656 C 270.32354736328125 319.0334777832031 276.9726867675781 316.6881103515625 284.1457214355469 310.4765625 L 279.7113342285156 287.0486755371094" stroke-width="2.0" fill="rgb(2, 4, 48)" opacity="0.9938158" stroke="rgb(0, 0, 0)" stroke-opacity="0.0" stroke-linecap="round" stroke-linejoin="round"/>
    <path d="M 154.04782104492188 199.99368286132812 L 150.4610137939453 196.50006103515625 C 136.29150390625 202.29112243652344 120.10901641845703 206.7530975341797 104.60924530029297 212.14117431640625 C 121.70960998535156 214.2089080810547 136.2174530029297 208.58477783203125 154.04782104492188 199.99368286132812" stroke-width="2.0" fill="rgb(97, 197, 199)" opacity="1.0915948" stroke="rgb(0, 0, 0)" stroke-opacity="0.0" stroke-linecap="round" stroke-linejoin="round"/>
    <path d="M 87.1494369506836 171.15664672851562 C 80.27922058105469 191.0120849609375 120.46678924560547 197.15550231933594 107.15949249267578 179.2675323486328 C 100.81639862060547 175.46017456054688 94.71334075927734 177.34014892578125 87.1494369506836 171.15664672851562" stroke-width="2.0" fill="rgb(78, 88, 114)" opacity="0.7964672" stroke="rgb(0, 0, 0)" stroke-opacity="0.0" stroke-linecap="round" stroke-linejoin="round"/>
    <path d="M 107.27662658691406 402.51214599609375 C 124.17953491210938 413.1755676269531 142.7086639404297 414.0789794921875 159.60887145996094 402.5247802734375 L 107.27662658691406 402.51214599609375" stroke-width="2.0" fill="rgb(42, 188, 193)" opacity="1.0391216" stroke="rgb(0, 0, 0)" stroke-opacity="0.0" stroke-linecap="round" stroke-linejoin="round"/>
    <path d="M 198.43312072753906 125.02903747558594 L 195.02468872070312 130.19790649414062 C 207.47665405273438 129.19888305664062 216.5519561767578 159.4717559814453 223.845703125 146.0361785888672 C 217.45298767089844 137.60800170898438 206.5348358154297 127.86479949951172 198.43312072753906 125.02903747558594" stroke-width="2.0" fill="rgb(126, 210, 213)" opacity="1.0867351" stroke="rgb(0, 0, 0)" stroke-opacity="0.0" stroke-linecap="round" stroke-linejoin="round"/>
    <path d="M 96.12126922607422 212.44985961914062 C 104.96013641357422 211.97084045410156 134.20590209960938 200.79519653320312 113.08507537841797 198.8539276123047 C 100.88380432128906 196.21176147460938 92.13236236572266 198.38571166992188 96.12126922607422 212.44985961914062" stroke-width="2.0" fill="rgb(66, 236, 228)" opacity="0.8017274" stroke="rgb(0, 0, 0)" stroke-opacity="0.0" stroke-linecap="round" stroke-linejoin="round"/>
    <path d="M 47.39333724975586 378.7002868652344 C 51.20588302612305 388.3245544433594 60.30636978149414 403.1078186035156 68.99523162841797 401.1350402832031 C 66.82117462158203 391.4598693847656 58.01951217651367 373.7379455566406 47.39333724975586 378.7002868652344" stroke-width="2.0" fill="rgb(0, 11, 49)" opacity="0.9718475" stroke="rgb(0, 0, 0)" stroke-opacity="0.0" stroke-linecap="round" stroke-linejoin="round"/>
    <path d="M 82.72689056396484 194.42066955566406 C 79.94403076171875 207.1272735595703 81.99658966064453 218.9650115966797 94.71398162841797 214.5159149169922 C 98.0866470336914 200.92234802246094 97.9692611694336 191.2211151123047 82.72689056396484 194.42066955566406" stroke-width="2.0" fill="rgb(15, 33, 66)" opacity="1.0201491" stroke="rgb(0, 0, 0)" stroke-opacity="0.0" stroke-linecap="round" stroke-linejoin="round"/>
    <path d="M 385.8525695800781 333.9447937011719 C 369.3201599121094 333.84698486328125 389.63983154296875 361.18890380859375 392.7580871582031 347.8415222167969 L 385.8525695800781 333.9447937011719" stroke-width="2.0" fill="rgb(155, 160, 172)" opacity="1.1029979" stroke="rgb(0, 0, 0)" stroke-opacity="0.0" stroke-linecap="round" stroke-linejoin="round"/>
    <path d="M 154.3061981201172 297.45538330078125 C 152.66722106933594 306.2073059082031 145.79061889648438 315.7423400878906 159.7858123779297 317.09552001953125 C 162.6612091064453 309.085205078125 167.92633056640625 299.71282958984375 154.3061981201172 297.45538330078125" stroke-width="2.0" fill="rgb(122, 152, 162)" opacity="1.3313116" stroke="rgb(0, 0, 0)" stroke-opacity="0.0" stroke-linecap="round" stroke-linejoin="round"/>
    <path d="M 167.59690856933594 278.19598388671875 C 178.36524963378906 276.640869140625 189.01023864746094 279.96771240234375 199.87315368652344 272.2566833496094 C 188.8116912841797 272.731201171875 175.76785278320312 266.47039794921875 167.59690856933594 278.19598388671875" stroke-width="2.0" fill="rgb(16, 152, 157)" opacity="1.01554" stroke="rgb(0, 0, 0)" stroke-opacity="0.0" stroke-linecap="round" stroke-linejoin="round"/>
    <path d="M 82.33167266845703 199.25755310058594 C 70.83550262451172 194.95863342285156 48.687503814697266 200.16505432128906 60.319427490234375 213.68276977539062 C 62.024688720703125 196.554931640625 82.04124450683594 209.363037109375 82.33167266845703 199.25755310058594" stroke-width="2.0" fill="rgb(226, 238, 240)" opacity="1.0679213" stroke="rgb(0, 0, 0)" stroke-opacity="0.0" stroke-linecap="round" stroke-linejoin="round"/>
    <path d="M 222.2454376220703 217.0018310546875 C 210.62088012695312 226.94998168945312 235.9738006591797 236.10484313964844 235.37451171875 219.88157653808594 L 222.2454376220703 217.0018310546875" stroke-width="2.0" fill="rgb(15, 20, 40)" opacity="0.8847494" stroke="rgb(0, 0, 0)" stroke-opacity="0.0" stroke-linecap="round" stroke-linejoin="round"/>
    <path d="M 149.60704040527344 317.5410461425781 C 145.87203979492188 325.77423095703125 139.9205780029297 337.7982482910156 152.30604553222656 338.601806640625 C 154.25755310058594 331.02130126953125 161.6322479248047 318.7322998046875 149.60704040527344 317.5410461425781" stroke-width="2.0" fill="rgb(122, 128, 145)" opacity="1.2585515" stroke="rgb(0, 0, 0)" stroke-opacity="0.0" stroke-linecap="round" stroke-linejoin="round"/>
    <path d="M 340.37615966796875 369.0736389160156 C 354.77081298828125 372.9470520019531 369.05938720703125 372.2876892089844 383.78985595703125 372.62286376953125 L 382.2371520996094 368.49676513671875 C 368.4944763183594 371.5955505371094 355.2652893066406 366.4460754394531 340.37615966796875 369.0736389160156" stroke-width="2.0" fill="rgb(0, 11, 53)" opacity="1.0999249" stroke="rgb(0, 0, 0)" stroke-opacity="0.0" stroke-linecap="round" stroke-linejoin="round"/>
    <path d="M 81.38333129882812 200.069091796875 C 73.40869903564453 196.89376831054688 85.249267578125 199.58279418945312 80.40991973876953 203.5274200439453 C 72.3893051147461 202.9519500732422 60.43303298950195 199.931640625 61.40511703491211 212.20411682128906 C 71.94764709472656 210.02894592285156 87.20935821533203 217.62106323242188 81.38333129882812 200.069091796875" stroke-width="2.0" fill="rgb(39, 219, 212)" opacity="0.79764503" stroke="rgb(0, 0, 0)" stroke-opacity="0.0" stroke-linecap="round" stroke-linejoin="round"/>
    <path d="M 468.09375 348.552734375 C 467.41180419921875 360.60638427734375 465.21600341796875 373.8018798828125 478.4520263671875 378.4022521972656 C 479.6593322753906 367.1783752441406 485.4073181152344 347.5792541503906 468.09375 348.552734375" stroke-width="2.0" fill="rgb(34, 201, 200)" opacity="0.99826556" stroke="rgb(0, 0, 0)" stroke-opacity="0.0" stroke-linecap="round" stroke-linejoin="round"/>
    <path d="M 180.86239624023438 321.47821044921875 L 194.0416259765625 340.4458312988281 C 198.1392364501953 331.47589111328125 195.97866821289062 318.4309997558594 180.86239624023438 321.47821044921875" stroke-width="2.0" fill="rgb(197, 246, 237)" opacity="1.0326557" stroke="rgb(0, 0, 0)" stroke-opacity="0.0" stroke-linecap="round" stroke-linejoin="round"/>
    <path d="M 52.56732940673828 381.416748046875 C 54.87042999267578 386.36639404296875 63.17900085449219 399.79901123046875 69.91986083984375 396.34405517578125 C 64.4792709350586 391.4986877441406 61.35444259643555 378.1102600097656 52.56732940673828 381.416748046875" stroke-width="2.0" fill="rgb(155, 214, 216)" opacity="1.1395532" stroke="rgb(0, 0, 0)" stroke-opacity="0.0" stroke-linecap="round" stroke-linejoin="round"/>
    <path d="M 96.59087371826172 198.1422119140625 C 96.28243255615234 205.04049682617188 129.06483459472656 205.67416381835938 116.63878631591797 198.16387939453125 L 96.59087371826172 198.1422119140625" stroke-width="2.0" fill="rgb(247, 251, 251)" opacity="0.97754395" stroke="rgb(0, 0, 0)" stroke-opacity="0.0" stroke-linecap="round" stroke-linejoin="round"/>
    <path d="M 117.7567138671875 226.34510803222656 C 108.50971221923828 229.1647491455078 113.61555480957031 245.28158569335938 111.77161407470703 254.4474334716797 C 117.50589752197266 246.87901306152344 115.91769409179688 235.61817932128906 117.7567138671875 226.34510803222656" stroke-width="2.0" fill="rgb(41, 195, 196)" opacity="1.0340416" stroke="rgb(0, 0, 0)" stroke-opacity="0.0" stroke-linecap="round" stroke-linejoin="round"/>
    <path d="M 218.06422424316406 377.3415222167969 C 226.47377014160156 379.9687805175781 237.5655059814453 390.1351013183594 245.98727416992188 387.7524108886719 C 236.15182495117188 385.5401306152344 228.3107452392578 374.5090026855469 218.06422424316406 377.3415222167969" stroke-width="2.0" fill="rgb(130, 207, 213)" opacity="1.1506526" stroke="rgb(0, 0, 0)" stroke-opacity="0.0" stroke-linecap="round" stroke-linejoin="round"/>
    <path d="M 249.67066955566406 91.95500183105469 C 246.5833740234375 85.47543334960938 219.38287353515625 97.65865325927734 235.00877380371094 95.02490234375 L 249.67066955566406 91.95500183105469" stroke-width="2.0" fill="rgb(203, 216, 224)" opacity="1.2754928" stroke="rgb(0, 0, 0)" stroke-opacity="0.0" stroke-linecap="round" stroke-linejoin="round"/>
    <path d="M 223.2947998046875 217.39556884765625 C 214.98776245117188 227.12686157226562 233.1573944091797 234.1006622314453 233.1248016357422 219.45932006835938 C 229.691162109375 218.96688842773438 225.7919158935547 217.09075927734375 223.2947998046875 217.39556884765625" stroke-width="2.0" fill="rgb(168, 229, 220)" opacity="1.0913478" stroke="rgb(0, 0, 0)" stroke-opacity="0.0" stroke-linecap="round" stroke-linejoin="round"/>
    <path d="M 307.7718811035156 172.12583923339844 C 304.7023010253906 174.88925170898438 311.59515380859375 177.9254150390625 314.6173095703125 181.6654052734375 C 314.7898254394531 187.71656799316406 310.48675537109375 195.9430389404297 315.492919921875 200.17120361328125 C 315.05206298828125 190.5999298095703 322.9581298828125 179.88357543945312 307.7718811035156 172.12583923339844" stroke-width="2.0" fill="rgb(0, 13, 51)" opacity="1.0663325" stroke="rgb(0, 0, 0)" stroke-opacity="0.0" stroke-linecap="round" stroke-linejoin="round"/>
    <path d="M 199.4536895751953 220.2064971923828 C 198.3797149658203 230.52059936523438 223.98825073242188 227.89991760253906 211.2648162841797 221.0929412841797 C 206.73031616210938 222.41090393066406 202.69869995117188 218.4809112548828 199.4536895751953 220.2064971923828" stroke-width="2.0" fill="rgb(18, 151, 158)" opacity="1.0002278" stroke="rgb(0, 0, 0)" stroke-opacity="0.0" stroke-linecap="round" stroke-linejoin="round"/>
    <path d="M 221.627197265625 308.6708068847656 C 207.98440551757812 302.8984680175781 205.29010009765625 323.27459716796875 221.1132049560547 317.2488098144531 L 221.627197265625 308.6708068847656" stroke-width="2.0" fill="rgb(25, 36, 73)" opacity="1.2954298" stroke="rgb(0, 0, 0)" stroke-opacity="0.0" stroke-linecap="round" stroke-linejoin="round"/>
    <path d="M 200.2389678955078 328.2049255371094 C 195.6381378173828 338.4937438964844 206.28904724121094 348.0517883300781 215.0216522216797 340.6512756347656 C 204.13485717773438 343.5247802734375 202.3603973388672 331.0281982421875 200.2389678955078 328.2049255371094" stroke-width="2.0" fill="rgb(206, 239, 242)" opacity="1.1166077" stroke="rgb(0, 0, 0)" stroke-opacity="0.0" stroke-linecap="round" stroke-linejoin="round"/>
    <path d="M 176.32916259765625 316.80609130859375 C 178.52940368652344 321.5001220703125 180.15878295898438 316.7784729003906 182.3584442138672 315.5763244628906 C 188.17576599121094 312.1531982421875 196.27674865722656 316.4790344238281 199.88563537597656 311.77691650390625 C 191.11175537109375 313.2727355957031 177.1270294189453 308.6238708496094 176.32916259765625 316.80609130859375" stroke-width="2.0" fill="rgb(158, 237, 238)" opacity="1.0907937" stroke="rgb(0, 0, 0)" stroke-opacity="0.0" stroke-linecap="round" stroke-linejoin="round"/>
    <path d="M 339.16259765625 285.3038330078125 C 324.56121826171875 288.3206787109375 317.2139892578125 294.80596923828125 320.98101806640625 307.1613464355469 C 320.24468994140625 297.4843444824219 326.6341552734375 293.67706298828125 339.16259765625 285.3038330078125" stroke-width="2.0" fill="rgb(34, 37, 53)" opacity="1.0790496" stroke="rgb(0, 0, 0)" stroke-opacity="0.0" stroke-linecap="round" stroke-linejoin="round"/>
    <path d="M 271.1379089355469 212.28001403808594 C 279.3618469238281 212.72100830078125 288.3718566894531 215.0703887939453 297.8221740722656 212.54733276367188 L 271.1379089355469 212.28001403808594" stroke-width="2.0" fill="rgb(163, 239, 241)" opacity="1.0363302" stroke="rgb(0, 0, 0)" stroke-opacity="0.0" stroke-linecap="round" stroke-linejoin="round"/>
    <path d="M 243.0809783935547 334.9075012207031 C 243.45252990722656 352.8236999511719 264.90411376953125 335.5867004394531 243.0809783935547 334.9075012207031" stroke-width="2.0" fill="rgb(47, 187, 195)" opacity="1.0605524" stroke="rgb(0, 0, 0)" stroke-opacity="0.0" stroke-linecap="round" stroke-linejoin="round"/>
    <path d="M 211.2607421875 127.6510009765625 C 216.19593811035156 132.27589416503906 225.21324157714844 143.40707397460938 221.98651123046875 132.17372131347656 C 220.59164428710938 125.94137573242188 216.00784301757812 126.68988800048828 211.2607421875 127.6510009765625" stroke-width="2.0" fill="rgb(177, 236, 230)" opacity="1.0935723" stroke="rgb(0, 0, 0)" stroke-opacity="0.0" stroke-linecap="round" stroke-linejoin="round"/>
    <path d="M 210.68348693847656 309.7641296386719 C 208.7893829345703 316.0700378417969 226.25819396972656 317.3219909667969 220.5050811767578 307.6916198730469 L 210.68348693847656 309.7641296386719" stroke-width="2.0" fill="rgb(136, 212, 215)" opacity="1.0030317" stroke="rgb(0, 0, 0)" stroke-opacity="0.0" stroke-linecap="round" stroke-linejoin="round"/>
    <path d="M 52.165767669677734 380.8746337890625 C 52.133663177490234 383.1257019042969 61.848140716552734 397.70343017578125 59.38761520385742 390.2079772949219 C 52.587894439697266 389.798828125 54.09516525268555 378.8141784667969 59.136497497558594 381.857421875 L 52.165767669677734 380.8746337890625" stroke-width="2.0" fill="rgb(145, 166, 181)" opacity="0.5447132" stroke="rgb(0, 0, 0)" stroke-opacity="0.0" stroke-linecap="round" stroke-linejoin="round"/>
    <path d="M 210.534912109375 370.09033203125 C 206.1579132080078 385.6180114746094 223.15420532226562 372.9878845214844 210.534912109375 370.09033203125" stroke-width="2.0" fill="rgb(84, 172, 178)" opacity="1.1065102" stroke="rgb(0, 0, 0)" stroke-opacity="0.0" stroke-linecap="round" stroke-linejoin="round"/>
    <path d="M 322.8313293457031 209.68624877929688 C 314.17352294921875 222.60275268554688 333.4757080078125 218.56173706054688 322.8313293457031 209.68624877929688" stroke-width="2.0" fill="rgb(149, 196, 205)" opacity="1.1456901" stroke="rgb(0, 0, 0)" stroke-opacity="0.0" stroke-linecap="round" stroke-linejoin="round"/>
    <path d="M 205.35818481445312 259.2090759277344 C 202.446044921875 252.69500732421875 187.43759155273438 260.98297119140625 201.81570434570312 262.5613708496094 L 205.35818481445312 259.2090759277344" stroke-width="2.0" fill="rgb(4, 46, 78)" opacity="1.0203757" stroke="rgb(0, 0, 0)" stroke-opacity="0.0" stroke-linecap="round" stroke-linejoin="round"/>
    <path d="M 85.15452575683594 198.39271545410156 C 86.5150375366211 210.99234008789062 103.63314819335938 195.24404907226562 85.15452575683594 198.39271545410156" stroke-width="2.0" fill="rgb(233, 234, 241)" opacity="1.0366614" stroke="rgb(0, 0, 0)" stroke-opacity="0.0" stroke-linecap="round" stroke-linejoin="round"/>
    <path d="M 195.37037658691406 259.5602111816406 C 208.44268798828125 265.4195861816406 206.59271240234375 254.4336700439453 195.37037658691406 259.5602111816406" stroke-width="2.0" fill="rgb(23, 146, 155)" opacity="1.0522623" stroke="rgb(0, 0, 0)" stroke-opacity="0.0" stroke-linecap="round" stroke-linejoin="round"/>
    <path d="M 160.33163452148438 293.5174865722656 C 158.0304718017578 303.2191162109375 172.44009399414062 294.3511962890625 160.33163452148438 293.5174865722656" stroke-width="2.0" fill="rgb(52, 178, 185)" opacity="1.1099844" stroke="rgb(0, 0, 0)" stroke-opacity="0.0" stroke-linecap="round" stroke-linejoin="round"/>
    <path d="M 228.52537536621094 320.6239929199219 C 226.1183319091797 329.54296875 236.6172637939453 321.7466125488281 228.52537536621094 320.6239929199219" stroke-width="2.0" fill="rgb(77, 170, 195)" opacity="1.1012775" stroke="rgb(0, 0, 0)" stroke-opacity="0.0" stroke-linecap="round" stroke-linejoin="round"/>
    <path d="M 439.00836181640625 431.9402770996094 C 441.2509765625 442.1523742675781 455.1096496582031 433.2029724121094 439.00836181640625 431.9402770996094" stroke-width="2.0" fill="rgb(3, 0, 38)" opacity="1.0640988" stroke="rgb(0, 0, 0)" stroke-opacity="0.0" stroke-linecap="round" stroke-linejoin="round"/>
    <path d="M 300.72119140625 223.3759002685547 C 300.29888916015625 229.9075469970703 307.13232421875 224.9300994873047 300.72119140625 223.3759002685547" stroke-width="2.0" fill="rgb(-1, -3, 48)" opacity="1.0542563" stroke="rgb(0, 0, 0)" stroke-opacity="0.0" stroke-linecap="round" stroke-linejoin="round"/>
    <path d="M 434.6173400878906 432.5440673828125 C 433.44287109375 440.5768737792969 448.5584411621094 434.8294982910156 434.6173400878906 432.5440673828125" stroke-width="2.0" fill="rgb(5, -8, 41)" opacity="1.0735477" stroke="rgb(0, 0, 0)" stroke-opacity="0.0" stroke-linecap="round" stroke-linejoin="round"/>
    <path d="M 450.0 434.0 L 450.0 434.0" stroke-width="2.0" fill="rgb(0, 8, 48)" opacity="1.0" stroke="rgb(0, 0, 0)" stroke-opacity="0.0" stroke-linecap="round" stroke-linejoin="round"/>
    <path d="M 246.94615173339844 336.227294921875 C 244.40557861328125 334.1957702636719 244.43333435058594 339.5154724121094 246.94615173339844 336.227294921875" stroke-width="2.0" fill="rgb(57, 192, 198)" opacity="1.0010136" stroke="rgb(0, 0, 0)" stroke-opacity="0.0" stroke-linecap="round" stroke-linejoin="round"/>
    <path d="M 178.0 296.0 L 178.0 296.0" stroke-width="2.0" fill="rgb(58, 191, 187)" opacity="1.0" stroke="rgb(0, 0, 0)" stroke-opacity="0.0" stroke-linecap="round" stroke-linejoin="round"/>
  </g>
</svg>
