<?xml version="1.0" ?>
<svg xmlns="http://www.w3.org/2000/svg" version="1.1" width="508" height="512">
  <defs/>
  <g>
    <path d="M 0.0 0.0 L 508.0 0.0 L 508.0 512.0 L 0.0 512.0 L 0.0 0.0" stroke-width="0.0" fill="rgb(255, 255, 255)" opacity="1.0" stroke="rgb(0, 0, 0)" stroke-opacity="0.0" stroke-linecap="round" stroke-linejoin="round"/>
    <path d="M 6.0 12.0 L 6.0 157.0 L 9.0 162.0 L 94.0 161.0 C 94.8565444946289 154.7274932861328 92.2684097290039 146.34999084472656 101.0 143.0 C 104.71061706542969 135.1641082763672 95.28463745117188 122.19025421142578 108.0 119.0 C 110.69815826416016 103.0 106.27069854736328 87.0 112.0 71.0 L 121.0 62.0 C 121.66407775878906 58.72342300415039 121.93649291992188 44.98682403564453 129.0 51.0 L 130.0 62.0 L 140.0 74.0 L 142.0 118.0 C 155.32472229003906 120.78839111328125 148.24566650390625 135.1893768310547 150.0 144.0 C 157.17391967773438 147.89752197265625 157.07066345214844 155.49923706054688 157.0 161.0 L 260.0 162.0 L 266.0 153.0 C 266.07049560546875 143.2722930908203 266.7059631347656 131.08291625976562 278.0 123.0 L 289.0 134.0 C 292.5364685058594 143.0 287.4664611816406 152.0 297.0 161.0 L 313.0 161.0 C 315.6290283203125 152.6666717529297 321.7533264160156 144.3333282470703 331.0 136.0 L 350.0 126.0 C 351.9969787597656 121.02958679199219 347.1965026855469 112.90097045898438 356.0 111.0 C 364.25390625 112.66720581054688 361.7168884277344 121.1982192993164 362.0 126.0 C 372.0635070800781 129.29537963867188 383.7749328613281 137.92941284179688 391.0 148.0 L 397.0 160.0 L 499.0 161.0 L 499.0 10.0 L 6.0 12.0" stroke-width="2.0" fill="rgb(146, 177, 178)" opacity="1.0" stroke="rgb(0, 0, 0)" stroke-opacity="0.0" stroke-linecap="round" stroke-linejoin="round"/>
    <path d="M 6.0 424.0 L 8.0 503.0 L 421.0 504.0 L 433.0 498.0 L 486.0 496.0 L 488.0 502.0 L 500.0 502.0 L 501.0 434.0 L 496.0 431.0 L 232.0 430.0 L 232.0 421.0 L 89.0 421.0 L 86.0 424.0 L 63.0 425.0 C 59.715232849121094 420.3254699707031 59.864097595214844 413.467041015625 53.0 413.0 C 44.73570251464844 410.35345458984375 43.75386428833008 423.99310302734375 37.0 424.0 L 9.0 420.0 L 6.0 424.0" stroke-width="2.0" fill="rgb(119, 153, 165)" opacity="1.0" stroke="rgb(0, 0, 0)" stroke-opacity="0.0" stroke-linecap="round" stroke-linejoin="round"/>
    <path d="M 258.0 254.0 L 198.0 255.0 C 189.3333282470703 249.61683654785156 180.6666717529297 252.93673706054688 172.0 252.0 L 168.0 257.0 L 170.0 287.0 L 167.0 295.0 C 156.3333282470703 290.8509826660156 145.6666717529297 293.8293151855469 135.0 293.0 L 130.0 302.0 L 121.0 303.0 L 103.0 280.0 C 90.33333587646484 275.1605224609375 77.66666412353516 273.416259765625 65.0 283.0 L 53.0 303.0 L 36.0 304.0 C 37.406497955322266 308.4181213378906 32.709354400634766 308.10626220703125 30.0 310.0 L 10.0 311.0 L 8.0 398.0 L 21.0 398.0 L 20.0 382.0 C 18.99982261657715 386.709228515625 15.375024795532227 384.4177551269531 15.0 381.0 C 17.638872146606445 376.40606689453125 10.7197847366333 365.8356628417969 19.0 366.0 C 17.01340103149414 363.00762939453125 22.3265323638916 356.721435546875 21.0 363.0 L 32.0 368.0 L 32.0 399.0 L 239.0 400.0 L 240.0 327.0 C 247.42752075195312 318.34112548828125 258.9307556152344 326.066650390625 268.0 322.0 L 266.0 284.0 C 252.66868591308594 279.34112548828125 259.8243408203125 264.36834716796875 258.0 254.0" stroke-width="2.0" fill="rgb(143, 171, 181)" opacity="1.0" stroke="rgb(0, 0, 0)" stroke-opacity="0.0" stroke-linecap="round" stroke-linejoin="round"/>
    <path d="M 94.0 164.0 L 7.0 165.0 L 8.0 307.0 C 17.180721282958984 305.08599853515625 28.41672134399414 311.9164123535156 36.0 301.0 L 50.0 301.0 L 56.0 289.0 C 65.15772247314453 278.95343017578125 74.69597625732422 274.37249755859375 85.0 273.0 L 96.0 274.0 L 94.0 164.0" stroke-width="2.0" fill="rgb(229, 191, 167)" opacity="1.0" stroke="rgb(0, 0, 0)" stroke-opacity="0.0" stroke-linecap="round" stroke-linejoin="round"/>
    <path d="M 126.0 56.0 L 113.0 74.0 L 111.0 120.0 L 103.0 124.0 L 104.0 145.0 L 97.0 148.0 L 99.0 277.0 L 112.0 287.0 L 120.0 302.0 L 130.0 301.0 L 133.0 292.0 C 143.6666717529297 293.4248962402344 154.3333282470703 288.8788146972656 165.0 294.0 L 169.0 291.0 L 168.0 252.0 L 152.0 251.0 L 153.0 150.0 L 148.0 146.0 L 147.0 123.0 L 139.0 120.0 L 138.0 75.0 C 137.25511169433594 67.8921127319336 125.02727508544922 63.845455169677734 126.0 56.0" stroke-width="2.0" fill="rgb(167, 167, 166)" opacity="1.0" stroke="rgb(0, 0, 0)" stroke-opacity="0.0" stroke-linecap="round" stroke-linejoin="round"/>
    <path d="M 156.0 165.0 L 157.0 250.0 L 262.0 250.0 L 261.0 164.0 L 156.0 165.0" stroke-width="2.0" fill="rgb(228, 189, 167)" opacity="1.0" stroke="rgb(0, 0, 0)" stroke-opacity="0.0" stroke-linecap="round" stroke-linejoin="round"/>
    <path d="M 212.0 253.0 L 210.0 305.0 L 196.0 307.0 L 197.0 399.0 L 238.0 400.0 L 242.0 324.0 L 267.0 323.0 L 266.0 286.0 L 258.0 278.0 L 256.0 253.0 L 212.0 253.0" stroke-width="2.0" fill="rgb(96, 148, 172)" opacity="1.0" stroke="rgb(0, 0, 0)" stroke-opacity="0.0" stroke-linecap="round" stroke-linejoin="round"/>
    <path d="M 461.0 296.0 L 460.0 329.0 L 428.0 330.0 L 426.0 409.0 L 430.0 409.0 L 429.0 389.0 C 434.00238037109375 385.9584655761719 429.7012634277344 378.8584899902344 436.0 379.0 C 435.5830383300781 383.5652770996094 445.0304260253906 390.01104736328125 438.0 393.0 L 439.0 410.0 L 475.0 410.0 C 480.0712890625 399.9951477050781 468.873779296875 387.3398132324219 479.0 379.0 L 481.0 410.0 L 498.0 410.0 L 501.0 397.0 L 501.0 297.0 L 461.0 296.0" stroke-width="2.0" fill="rgb(174, 190, 192)" opacity="1.0" stroke="rgb(0, 0, 0)" stroke-opacity="0.0" stroke-linecap="round" stroke-linejoin="round"/>
    <path d="M 397.0 165.0 L 397.0 200.0 L 400.0 210.0 L 440.0 210.0 C 445.6666564941406 215.89596557617188 451.3333435058594 209.0364990234375 457.0 211.0 L 459.0 248.0 L 464.0 260.0 L 495.0 260.0 L 500.0 263.0 L 501.0 186.0 L 498.0 164.0 L 397.0 165.0" stroke-width="2.0" fill="rgb(229, 190, 167)" opacity="1.0" stroke="rgb(0, 0, 0)" stroke-opacity="0.0" stroke-linecap="round" stroke-linejoin="round"/>
    <path d="M 268.0 326.0 L 242.0 327.0 L 244.0 388.0 L 241.0 401.0 L 7.0 401.0 L 6.0 410.0 C 13.433028221130371 408.7415466308594 18.66449737548828 415.2209167480469 22.0 422.0 L 39.0 422.0 L 49.0 410.0 C 54.84286117553711 407.47235107421875 63.6915168762207 415.66912841796875 64.0 422.0 C 72.33333587646484 420.6851806640625 80.66666412353516 425.2950134277344 89.0 418.0 L 233.0 419.0 L 237.0 411.0 L 247.0 410.0 L 248.0 351.0 L 268.0 348.0 L 268.0 326.0" stroke-width="2.0" fill="rgb(44, 44, 63)" opacity="1.0" stroke="rgb(0, 0, 0)" stroke-opacity="0.0" stroke-linecap="round" stroke-linejoin="round"/>
    <path d="M 146.0 307.0 L 144.0 357.0 L 133.0 360.0 L 133.0 399.0 L 140.0 399.0 L 140.0 374.0 C 131.6448516845703 378.9932556152344 141.8304901123047 366.1786804199219 144.0 367.0 L 151.0 373.0 L 145.0 375.0 L 146.0 400.0 L 167.0 400.0 L 169.0 393.0 L 173.0 400.0 L 195.0 400.0 L 196.0 309.0 L 146.0 307.0" stroke-width="2.0" fill="rgb(227, 224, 212)" opacity="1.0" stroke="rgb(0, 0, 0)" stroke-opacity="0.0" stroke-linecap="round" stroke-linejoin="round"/>
    <path d="M 234.0 426.0 L 235.0 430.0 L 500.0 430.0 L 501.0 413.0 L 238.0 413.0 L 234.0 426.0" stroke-width="2.0" fill="rgb(117, 98, 104)" opacity="1.0" stroke="rgb(0, 0, 0)" stroke-opacity="0.0" stroke-linecap="round" stroke-linejoin="round"/>
    <path d="M 456.0 213.0 L 448.0 216.0 C 443.7381896972656 218.06185913085938 437.6983642578125 207.53347778320312 435.0 215.0 L 378.0 213.0 L 378.0 248.0 C 385.8437805175781 255.0 390.4554748535156 262.0 389.0 269.0 L 379.0 271.0 L 377.0 290.0 L 399.0 291.0 L 400.0 263.0 L 456.0 261.0 L 456.0 213.0" stroke-width="2.0" fill="rgb(46, 49, 69)" opacity="1.0" stroke="rgb(0, 0, 0)" stroke-opacity="0.0" stroke-linecap="round" stroke-linejoin="round"/>
    <path d="M 374.0 294.0 L 374.0 366.0 L 423.0 368.0 L 426.0 294.0 L 374.0 294.0" stroke-width="2.0" fill="rgb(219, 189, 171)" opacity="1.0" stroke="rgb(0, 0, 0)" stroke-opacity="0.0" stroke-linecap="round" stroke-linejoin="round"/>
    <path d="M 429.0 330.0 L 426.0 336.0 L 426.0 410.0 C 436.4939270019531 415.10626220703125 432.1877136230469 401.1734619140625 434.0 396.0 L 430.0 389.0 L 435.0 380.0 L 440.0 389.0 C 434.8310852050781 396.3333435058594 437.2485046386719 403.6666564941406 438.0 411.0 L 463.0 411.0 L 463.0 332.0 L 429.0 330.0" stroke-width="2.0" fill="rgb(230, 224, 211)" opacity="1.0" stroke="rgb(0, 0, 0)" stroke-opacity="0.0" stroke-linecap="round" stroke-linejoin="round"/>
    <path d="M 401.0 265.0 L 403.0 292.0 L 495.0 293.0 L 494.0 263.0 L 401.0 265.0" stroke-width="2.0" fill="rgb(147, 145, 147)" opacity="1.0" stroke="rgb(0, 0, 0)" stroke-opacity="0.0" stroke-linecap="round" stroke-linejoin="round"/>
    <path d="M 466.0 331.0 L 465.0 410.0 L 476.0 410.0 L 478.0 379.0 L 480.0 410.0 L 497.0 410.0 L 497.0 332.0 L 466.0 331.0" stroke-width="2.0" fill="rgb(94, 150, 177)" opacity="1.0" stroke="rgb(0, 0, 0)" stroke-opacity="0.0" stroke-linecap="round" stroke-linejoin="round"/>
    <path d="M 363.0 134.0 C 352.6666564941406 124.63792419433594 342.3333435058594 132.41929626464844 332.0 138.0 C 316.27423095703125 150.6666717529297 315.73834228515625 163.3333282470703 315.0 176.0 L 373.0 177.0 L 372.0 152.0 L 363.0 134.0" stroke-width="2.0" fill="rgb(100, 158, 179)" opacity="1.0" stroke="rgb(0, 0, 0)" stroke-opacity="0.0" stroke-linecap="round" stroke-linejoin="round"/>
    <path d="M 374.0 326.0 L 375.0 367.0 L 424.0 367.0 L 424.0 327.0 L 374.0 326.0" stroke-width="2.0" fill="rgb(225, 185, 163)" opacity="1.0" stroke="rgb(0, 0, 0)" stroke-opacity="0.0" stroke-linecap="round" stroke-linejoin="round"/>
    <path d="M 129.0 167.0 L 128.0 250.0 L 152.0 250.0 L 152.0 167.0 L 129.0 167.0" stroke-width="2.0" fill="rgb(47, 48, 66)" opacity="1.0" stroke="rgb(0, 0, 0)" stroke-opacity="0.0" stroke-linecap="round" stroke-linejoin="round"/>
    <path d="M 270.0 45.0 C 248.31163024902344 58.35136413574219 253.0970458984375 83.27824401855469 274.0 92.0 C 285.2182922363281 96.31293487548828 303.24652099609375 87.94115447998047 307.0 73.0 C 307.58331298828125 64.33333587646484 306.9056701660156 55.66666793823242 296.0 47.0 C 287.6666564941406 41.98392868041992 279.3333435058594 41.89316940307617 270.0 45.0" stroke-width="2.0" fill="rgb(250, 243, 227)" opacity="1.0" stroke="rgb(0, 0, 0)" stroke-opacity="0.0" stroke-linecap="round" stroke-linejoin="round"/>
    <path d="M 278.0 126.0 C 265.6921081542969 138.0 270.29534912109375 150.0 269.0 162.0 L 264.0 164.0 L 266.0 212.0 L 267.0 206.0 C 272.2318115234375 203.21414184570312 276.9112243652344 207.9540252685547 275.0 213.0 L 285.0 210.0 C 288.1289978027344 215.00050354003906 292.34112548828125 215.00050354003906 294.0 210.0 L 293.0 163.0 L 288.0 161.0 C 286.61871337890625 149.3333282470703 292.0710754394531 137.6666717529297 278.0 126.0" stroke-width="2.0" fill="rgb(129, 133, 137)" opacity="1.0" stroke="rgb(0, 0, 0)" stroke-opacity="0.0" stroke-linecap="round" stroke-linejoin="round"/>
    <path d="M 171.0 252.0 L 170.0 305.0 L 209.0 305.0 L 207.0 274.0 L 195.0 253.0 L 171.0 252.0" stroke-width="2.0" fill="rgb(78, 115, 139)" opacity="1.0" stroke="rgb(0, 0, 0)" stroke-opacity="0.0" stroke-linecap="round" stroke-linejoin="round"/>
    <path d="M 321.0 308.0 L 321.0 350.0 L 364.0 349.0 L 364.0 308.0 L 321.0 308.0" stroke-width="2.0" fill="rgb(114, 164, 182)" opacity="1.0" stroke="rgb(0, 0, 0)" stroke-opacity="0.0" stroke-linecap="round" stroke-linejoin="round"/>
    <path d="M 402.0 263.0 L 402.0 292.0 L 457.0 292.0 L 457.0 263.0 L 402.0 263.0" stroke-width="2.0" fill="rgb(219, 215, 204)" opacity="1.0" stroke="rgb(0, 0, 0)" stroke-opacity="0.0" stroke-linecap="round" stroke-linejoin="round"/>
    <path d="M 380.0 370.0 L 381.0 410.0 C 386.1114501953125 410.5651550292969 390.8449401855469 410.5779113769531 391.0 404.0 L 396.0 410.0 L 412.0 410.0 L 413.0 394.0 L 409.0 389.0 L 414.0 379.0 L 421.0 390.0 C 413.36383056640625 396.3333435058594 418.4836120605469 402.6666564941406 417.0 409.0 L 424.0 410.0 L 424.0 370.0 L 380.0 370.0" stroke-width="2.0" fill="rgb(72, 86, 103)" opacity="1.0" stroke="rgb(0, 0, 0)" stroke-opacity="0.0" stroke-linecap="round" stroke-linejoin="round"/>
    <path d="M 359.0 130.0 C 367.0093994140625 135.1588897705078 370.4639587402344 144.2173309326172 373.0 151.0 L 375.0 210.0 L 378.0 214.0 L 392.0 213.0 L 392.0 157.0 C 387.2366027832031 144.6727752685547 371.6786804199219 129.92991638183594 359.0 130.0" stroke-width="2.0" fill="rgb(46, 49, 67)" opacity="1.0" stroke="rgb(0, 0, 0)" stroke-opacity="0.0" stroke-linecap="round" stroke-linejoin="round"/>
    <path d="M 459.0 297.0 L 460.0 329.0 L 501.0 329.0 L 501.0 296.0 L 459.0 297.0" stroke-width="2.0" fill="rgb(226, 219, 206)" opacity="1.0" stroke="rgb(0, 0, 0)" stroke-opacity="0.0" stroke-linecap="round" stroke-linejoin="round"/>
    <path d="M 55.0 299.0 L 56.0 302.0 L 116.0 302.0 C 116.84278106689453 290.3209533691406 100.89646911621094 276.3708190917969 90.0 276.0 C 78.24003601074219 273.67034912109375 58.99245834350586 282.5843505859375 55.0 299.0" stroke-width="2.0" fill="rgb(83, 115, 133)" opacity="1.0" stroke="rgb(0, 0, 0)" stroke-opacity="0.0" stroke-linecap="round" stroke-linejoin="round"/>
    <path d="M 171.0 252.0 L 170.0 305.0 L 189.0 306.0 L 191.0 253.0 L 171.0 252.0" stroke-width="2.0" fill="rgb(97, 156, 182)" opacity="1.0" stroke="rgb(0, 0, 0)" stroke-opacity="0.0" stroke-linecap="round" stroke-linejoin="round"/>
    <path d="M 355.0 88.0 L 431.0 89.0 L 415.0 81.0 C 405.4638366699219 83.7696304321289 409.5441589355469 73.56983947753906 405.0 68.0 C 392.9403991699219 53.52969741821289 373.8092956542969 66.63529205322266 373.0 81.0 C 366.9723205566406 79.8853530883789 360.6885070800781 81.88002014160156 355.0 88.0" stroke-width="2.0" fill="rgb(243, 238, 219)" opacity="1.0" stroke="rgb(0, 0, 0)" stroke-opacity="0.0" stroke-linecap="round" stroke-linejoin="round"/>
    <path d="M 268.0 325.0 L 241.0 325.0 L 243.0 410.0 L 247.0 410.0 L 248.0 351.0 L 268.0 350.0 L 268.0 325.0" stroke-width="2.0" fill="rgb(50, 51, 71)" opacity="1.0" stroke="rgb(0, 0, 0)" stroke-opacity="0.0" stroke-linecap="round" stroke-linejoin="round"/>
    <path d="M 459.0 264.0 L 459.0 288.0 L 463.0 294.0 L 495.0 293.0 L 495.0 263.0 L 459.0 264.0" stroke-width="2.0" fill="rgb(44, 47, 67)" opacity="1.0" stroke="rgb(0, 0, 0)" stroke-opacity="0.0" stroke-linecap="round" stroke-linejoin="round"/>
    <path d="M 428.0 294.0 L 427.0 328.0 L 458.0 329.0 L 458.0 295.0 L 428.0 294.0" stroke-width="2.0" fill="rgb(46, 50, 69)" opacity="1.0" stroke="rgb(0, 0, 0)" stroke-opacity="0.0" stroke-linecap="round" stroke-linejoin="round"/>
    <path d="M 127.0 64.0 L 128.0 145.0 L 146.0 146.0 L 147.0 122.0 L 139.0 121.0 L 140.0 82.0 C 136.78012084960938 75.64456939697266 137.10696411132812 66.05349731445312 127.0 64.0" stroke-width="2.0" fill="rgb(47, 51, 71)" opacity="1.0" stroke="rgb(0, 0, 0)" stroke-opacity="0.0" stroke-linecap="round" stroke-linejoin="round"/>
    <path d="M 335.0 263.0 L 336.0 269.0 L 388.0 268.0 C 387.9355163574219 258.7068786621094 378.0526123046875 246.6901397705078 368.0 244.0 L 347.0 247.0 L 335.0 263.0" stroke-width="2.0" fill="rgb(103, 162, 185)" opacity="1.0" stroke="rgb(0, 0, 0)" stroke-opacity="0.0" stroke-linecap="round" stroke-linejoin="round"/>
    <path d="M 13.0 256.0 L 75.0 257.0 C 69.66666412353516 249.85995483398438 64.33333587646484 249.6614532470703 59.0 248.0 C 62.9047737121582 235.4501495361328 45.79254150390625 225.61160278320312 36.0 233.0 C 29.402956008911133 238.3333282470703 28.306894302368164 243.6666717529297 29.0 249.0 L 13.0 256.0" stroke-width="2.0" fill="rgb(251, 240, 220)" opacity="1.0" stroke="rgb(0, 0, 0)" stroke-opacity="0.0" stroke-linecap="round" stroke-linejoin="round"/>
    <path d="M 271.0 301.0 L 270.0 350.0 L 289.0 350.0 L 289.0 301.0 L 271.0 301.0" stroke-width="2.0" fill="rgb(241, 237, 223)" opacity="1.0" stroke="rgb(0, 0, 0)" stroke-opacity="0.0" stroke-linecap="round" stroke-linejoin="round"/>
    <path d="M 393.0 154.0 L 395.0 162.0 L 501.0 161.0 L 500.0 153.0 L 393.0 154.0" stroke-width="2.0" fill="rgb(159, 185, 183)" opacity="1.0" stroke="rgb(0, 0, 0)" stroke-opacity="0.0" stroke-linecap="round" stroke-linejoin="round"/>
    <path d="M 279.0 126.0 L 280.0 212.0 L 285.0 210.0 C 288.1289978027344 215.00050354003906 292.34112548828125 215.00050354003906 294.0 210.0 L 293.0 162.0 L 288.0 161.0 L 287.0 136.0 L 279.0 126.0" stroke-width="2.0" fill="rgb(51, 52, 69)" opacity="1.0" stroke="rgb(0, 0, 0)" stroke-opacity="0.0" stroke-linecap="round" stroke-linejoin="round"/>
    <path d="M 33.0 308.0 L 6.0 309.0 L 6.0 341.0 L 34.0 341.0 L 33.0 308.0" stroke-width="2.0" fill="rgb(95, 151, 175)" opacity="1.0" stroke="rgb(0, 0, 0)" stroke-opacity="0.0" stroke-linecap="round" stroke-linejoin="round"/>
    <path d="M 292.0 299.0 L 291.0 349.0 L 308.0 348.0 L 308.0 300.0 L 292.0 299.0" stroke-width="2.0" fill="rgb(46, 48, 68)" opacity="1.0" stroke="rgb(0, 0, 0)" stroke-opacity="0.0" stroke-linecap="round" stroke-linejoin="round"/>
    <path d="M 6.0 154.0 L 7.0 162.0 L 96.0 161.0 L 95.0 153.0 L 6.0 154.0" stroke-width="2.0" fill="rgb(154, 181, 180)" opacity="1.0" stroke="rgb(0, 0, 0)" stroke-opacity="0.0" stroke-linecap="round" stroke-linejoin="round"/>
    <path d="M 285.0 241.0 C 279.3775939941406 243.41680908203125 278.9963684082031 249.03558349609375 279.0 253.0 L 290.0 256.0 L 292.0 296.0 L 308.0 297.0 L 309.0 282.0 L 302.0 281.0 L 299.0 250.0 C 296.5110778808594 244.08351135253906 291.7995300292969 239.3333740234375 285.0 241.0" stroke-width="2.0" fill="rgb(58, 82, 103)" opacity="1.0" stroke="rgb(0, 0, 0)" stroke-opacity="0.0" stroke-linecap="round" stroke-linejoin="round"/>
    <path d="M 297.0 164.0 L 296.0 206.0 C 301.0 214.07704162597656 306.0 207.3897705078125 311.0 208.0 L 313.0 165.0 L 297.0 164.0" stroke-width="2.0" fill="rgb(228, 189, 168)" opacity="1.0" stroke="rgb(0, 0, 0)" stroke-opacity="0.0" stroke-linecap="round" stroke-linejoin="round"/>
    <path d="M 352.0 178.0 L 351.0 213.0 L 359.0 208.0 L 365.0 214.0 L 369.0 209.0 L 374.0 209.0 L 374.0 180.0 L 352.0 178.0" stroke-width="2.0" fill="rgb(139, 164, 169)" opacity="1.0" stroke="rgb(0, 0, 0)" stroke-opacity="0.0" stroke-linecap="round" stroke-linejoin="round"/>
    <path d="M 317.0 432.0 L 318.0 439.0 L 404.0 438.0 C 405.9617919921875 431.4694519042969 400.4107666015625 432.4325256347656 396.0 431.0 L 317.0 432.0" stroke-width="2.0" fill="rgb(237, 230, 215)" opacity="1.0" stroke="rgb(0, 0, 0)" stroke-opacity="0.0" stroke-linecap="round" stroke-linejoin="round"/>
    <path d="M 192.0 252.0 L 191.0 305.0 L 209.0 305.0 L 207.0 275.0 L 192.0 252.0" stroke-width="2.0" fill="rgb(46, 49, 71)" opacity="1.0" stroke="rgb(0, 0, 0)" stroke-opacity="0.0" stroke-linecap="round" stroke-linejoin="round"/>
    <path d="M 85.0 276.0 C 72.94812774658203 274.0691833496094 54.96467590332031 288.46124267578125 55.0 302.0 L 88.0 302.0 L 85.0 276.0" stroke-width="2.0" fill="rgb(114, 172, 189)" opacity="1.0" stroke="rgb(0, 0, 0)" stroke-opacity="0.0" stroke-linecap="round" stroke-linejoin="round"/>
    <path d="M 35.0 382.0 C 46.140018463134766 379.3218994140625 42.54465866088867 392.8476257324219 43.0 399.0 C 55.34688949584961 401.6781005859375 46.26988983154297 388.1523742675781 50.0 382.0 L 76.0 383.0 L 84.0 371.0 L 43.0 370.0 L 35.0 382.0" stroke-width="2.0" fill="rgb(95, 155, 172)" opacity="1.0" stroke="rgb(0, 0, 0)" stroke-opacity="0.0" stroke-linecap="round" stroke-linejoin="round"/>
    <path d="M 127.0 480.0 L 130.0 488.0 L 187.0 489.0 C 191.67044067382812 488.4628601074219 197.70233154296875 481.3935852050781 190.0 480.0 L 127.0 480.0" stroke-width="2.0" fill="rgb(215, 219, 209)" opacity="1.0" stroke="rgb(0, 0, 0)" stroke-opacity="0.0" stroke-linecap="round" stroke-linejoin="round"/>
    <path d="M 219.0 432.0 L 220.0 440.0 L 264.0 440.0 L 282.0 443.0 C 283.28265380859375 439.01898193359375 277.0156555175781 433.0860595703125 273.0 432.0 L 219.0 432.0" stroke-width="2.0" fill="rgb(233, 231, 214)" opacity="1.0" stroke="rgb(0, 0, 0)" stroke-opacity="0.0" stroke-linecap="round" stroke-linejoin="round"/>
    <path d="M 86.0 276.0 L 90.0 302.0 L 116.0 302.0 C 116.68933868408203 288.96063232421875 98.48535919189453 274.55328369140625 86.0 276.0" stroke-width="2.0" fill="rgb(46, 46, 66)" opacity="1.0" stroke="rgb(0, 0, 0)" stroke-opacity="0.0" stroke-linecap="round" stroke-linejoin="round"/>
    <path d="M 35.0 381.0 L 77.0 382.0 L 84.0 370.0 L 44.0 370.0 L 35.0 381.0" stroke-width="2.0" fill="rgb(106, 182, 199)" opacity="1.0" stroke="rgb(0, 0, 0)" stroke-opacity="0.0" stroke-linecap="round" stroke-linejoin="round"/>
    <path d="M 387.0 380.0 C 377.0492248535156 388.0829162597656 382.3495178222656 400.27227783203125 381.0 410.0 C 386.18560791015625 408.5207214355469 393.4101867675781 414.5123291015625 397.0 407.0 C 395.4638671875 398.3333435058594 401.07916259765625 389.6666564941406 393.0 381.0 L 387.0 380.0" stroke-width="2.0" fill="rgb(126, 172, 186)" opacity="1.0" stroke="rgb(0, 0, 0)" stroke-opacity="0.0" stroke-linecap="round" stroke-linejoin="round"/>
    <path d="M 405.0 459.0 L 408.0 462.0 L 443.0 462.0 L 462.0 457.0 L 462.0 453.0 L 415.0 453.0 L 405.0 459.0" stroke-width="2.0" fill="rgb(160, 184, 185)" opacity="1.0" stroke="rgb(0, 0, 0)" stroke-opacity="0.0" stroke-linecap="round" stroke-linejoin="round"/>
    <path d="M 363.0 380.0 C 351.2882385253906 387.4275207519531 357.6416320800781 398.9307556152344 356.0 408.0 L 371.0 410.0 L 371.0 385.0 L 363.0 380.0" stroke-width="2.0" fill="rgb(49, 48, 67)" opacity="1.0" stroke="rgb(0, 0, 0)" stroke-opacity="0.0" stroke-linecap="round" stroke-linejoin="round"/>
    <path d="M 339.0 380.0 C 327.5023193359375 388.0829162597656 335.2666931152344 400.27227783203125 333.0 410.0 L 348.0 410.0 C 346.4043884277344 400.3333435058594 351.78857421875 390.6666564941406 344.0 381.0 L 339.0 380.0" stroke-width="2.0" fill="rgb(45, 45, 64)" opacity="1.0" stroke="rgb(0, 0, 0)" stroke-opacity="0.0" stroke-linecap="round" stroke-linejoin="round"/>
    <path d="M 6.0 374.0 L 6.0 400.0 L 22.0 400.0 L 21.0 376.0 L 6.0 374.0" stroke-width="2.0" fill="rgb(248, 209, 182)" opacity="1.0" stroke="rgb(0, 0, 0)" stroke-opacity="0.0" stroke-linecap="round" stroke-linejoin="round"/>
    <path d="M 289.0 241.0 L 290.0 280.0 L 301.0 281.0 L 302.0 261.0 C 296.0117492675781 257.7134094238281 300.90325927734375 250.87353515625 297.0 246.0 L 289.0 241.0" stroke-width="2.0" fill="rgb(48, 51, 71)" opacity="1.0" stroke="rgb(0, 0, 0)" stroke-opacity="0.0" stroke-linecap="round" stroke-linejoin="round"/>
    <path d="M 104.0 128.0 L 105.0 146.0 L 126.0 145.0 L 126.0 128.0 L 104.0 128.0" stroke-width="2.0" fill="rgb(244, 204, 180)" opacity="1.0" stroke="rgb(0, 0, 0)" stroke-opacity="0.0" stroke-linecap="round" stroke-linejoin="round"/>
    <path d="M 314.0 380.0 C 304.1280212402344 389.6666564941406 311.0815734863281 399.3333435058594 309.0 409.0 L 314.0 411.0 L 315.0 401.0 C 321.1438903808594 404.738037109375 317.1095886230469 411.88800048828125 324.0 410.0 C 322.4043884277344 400.3333435058594 327.78857421875 390.6666564941406 320.0 381.0 L 314.0 380.0" stroke-width="2.0" fill="rgb(44, 44, 62)" opacity="1.0" stroke="rgb(0, 0, 0)" stroke-opacity="0.0" stroke-linecap="round" stroke-linejoin="round"/>
    <path d="M 133.0 294.0 L 134.0 303.0 L 161.0 305.0 L 161.0 293.0 L 133.0 294.0" stroke-width="2.0" fill="rgb(112, 170, 190)" opacity="1.0" stroke="rgb(0, 0, 0)" stroke-opacity="0.0" stroke-linecap="round" stroke-linejoin="round"/>
  </g>
</svg>
