<?xml version="1.0" ?>
<svg xmlns="http://www.w3.org/2000/svg" version="1.1" width="512" height="512">
  <defs/>
  <g>
    <path d="M 180.0735626220703 295.9486389160156 C 250.0143585205078 372.9796142578125 239.46923828125 429.9041748046875 177.64991760253906 355.242919921875 C 81.91987609863281 363.13507080078125 154.74142456054688 349.7987060546875 127.28661346435547 317.3924560546875 C 208.3550567626953 180.8329315185547 233.2908172607422 304.32196044921875 350.5779724121094 200.0415496826172 C 357.4700622558594 443.0170593261719 347.5952453613281 242.40444946289062 180.0735626220703 295.9486389160156" stroke-width="0.0" fill="rgb(48, 121, 86)" opacity="0.8632679" stroke="rgb(178, 101, 20)" stroke-opacity="0.96374935" stroke-linecap="round" stroke-linejoin="round"/>
    <path d="M 229.9521942138672 241.17214965820312 C 229.75259399414062 257.718994140625 248.40261840820312 242.4675750732422 236.15452575683594 261.8724365234375 C 186.75914001464844 238.7801513671875 197.33023071289062 225.50833129882812 60.62064743041992 222.01641845703125 C 65.27860260009766 49.39159393310547 157.86746215820312 122.24705505371094 195.71005249023438 234.01419067382812 C 238.56027221679688 234.16265869140625 226.26937866210938 232.6828155517578 229.9521942138672 241.17214965820312" stroke-width="0.0" fill="rgb(251, 242, 204)" opacity="0.92127436" stroke="rgb(41, 48, 155)" stroke-opacity="0.21345732" stroke-linecap="round" stroke-linejoin="round"/>
    <path d="M 342.91705322265625 176.39756774902344 C 285.73748779296875 331.0399169921875 298.99505615234375 268.9632263183594 297.5346984863281 234.98703002929688 C 307.9661560058594 192.220458984375 207.25941467285156 211.38400268554688 249.9882354736328 258.1341857910156 C 112.9206771850586 136.53085327148438 313.6107177734375 172.97711181640625 262.9339599609375 58.47346115112305 C 352.57281494140625 54.1746826171875 217.3054656982422 66.90241241455078 342.91705322265625 176.39756774902344" stroke-width="0.0" fill="rgb(9, 0, 0)" opacity="0.8234757" stroke="rgb(163, 34, 221)" stroke-opacity="0.95677835" stroke-linecap="round" stroke-linejoin="round"/>
    <path d="M 213.84153747558594 294.5732727050781 C 173.37127685546875 379.71319580078125 339.0476379394531 302.41259765625 296.80059814453125 345.3807373046875 C 36.83785629272461 340.4158020019531 176.68797302246094 341.4952392578125 136.6046142578125 301.2381286621094 C 168.05552673339844 258.667724609375 187.44442749023438 234.21658325195312 243.42010498046875 288.418212890625 C 235.863525390625 280.3249206542969 468.5681457519531 296.9099426269531 213.84153747558594 294.5732727050781" stroke-width="0.0" fill="rgb(232, 153, 12)" opacity="1.0" stroke="rgb(60, 178, 96)" stroke-opacity="0.9491888" stroke-linecap="round" stroke-linejoin="round"/>
    <path d="M 367.6313171386719 323.1842346191406 C 282.6424255371094 264.06768798828125 337.2781677246094 187.10617065429688 291.99176025390625 167.69070434570312 C 257.3630676269531 159.20343017578125 289.8771057128906 182.75924682617188 192.22695922851562 196.4953155517578 C 198.6515655517578 123.317626953125 259.9317321777344 143.32763671875 261.2727966308594 128.74021911621094 C 391.1427001953125 144.9871826171875 363.1766662597656 131.61178588867188 367.6313171386719 323.1842346191406" stroke-width="0.0" fill="rgb(232, 145, 0)" opacity="0.9790342" stroke="rgb(124, 120, 250)" stroke-opacity="0.4740567" stroke-linecap="round" stroke-linejoin="round"/>
    <path d="M 406.36431884765625 386.2563171386719 C 347.9388732910156 386.7469482421875 420.01202392578125 383.3011169433594 362.3944091796875 441.5998229980469 C 264.7674865722656 420.3756103515625 403.9425964355469 383.7033386230469 217.0506134033203 391.5404968261719 C 225.70269775390625 360.2308044433594 293.5705261230469 336.3559265136719 367.0071105957031 337.1438293457031 C 417.2838134765625 340.1935119628906 404.1716003417969 322.766357421875 406.36431884765625 386.2563171386719" stroke-width="0.0" fill="rgb(43, 124, 91)" opacity="0.88272357" stroke="rgb(98, 235, 106)" stroke-opacity="0.44761392" stroke-linecap="round" stroke-linejoin="round"/>
    <path d="M 171.93185424804688 366.4543762207031 C 215.62103271484375 411.2218017578125 169.44021606445312 447.7063903808594 159.0514678955078 446.3970642089844 C 119.46808624267578 457.7478332519531 90.48060607910156 416.3074645996094 107.64484405517578 384.41522216796875 C 127.76560974121094 343.096923828125 202.9994354248047 362.8924865722656 131.6472625732422 388.40936279296875 C 126.9373779296875 400.8054504394531 103.60986328125 408.5596923828125 171.93185424804688 366.4543762207031" stroke-width="0.0" fill="rgb(42, 37, 26)" opacity="0.9967543" stroke="rgb(176, 65, 191)" stroke-opacity="0.4581402" stroke-linecap="round" stroke-linejoin="round"/>
    <path d="M 382.6953125 386.32000732421875 C 397.6926574707031 423.3747863769531 365.0365905761719 455.04339599609375 333.1301574707031 447.1750183105469 C 319.8232116699219 445.9443054199219 291.3846740722656 426.0240173339844 300.89910888671875 391.17877197265625 C 355.1120910644531 389.1150207519531 294.280517578125 391.221923828125 339.2703552246094 426.1119384765625 C 390.2465515136719 412.5318603515625 331.79736328125 390.1890563964844 382.6953125 386.32000732421875" stroke-width="0.0" fill="rgb(41, 37, 26)" opacity="1.0" stroke="rgb(131, 52, 105)" stroke-opacity="0.28330377" stroke-linecap="round" stroke-linejoin="round"/>
    <path d="M 258.40087890625 261.0509338378906 C 245.02853393554688 268.53765869140625 281.9143371582031 275.2607421875 246.56922912597656 274.08831787109375 C 221.27288818359375 283.4768981933594 209.67218017578125 278.1443786621094 222.59349060058594 266.4109191894531 C 262.93341064453125 243.91021728515625 212.99717712402344 256.59844970703125 285.0306701660156 238.1832275390625 C 342.7954406738281 220.0410919189453 297.90966796875 275.6052551269531 258.40087890625 261.0509338378906" stroke-width="0.0" fill="rgb(42, 37, 25)" opacity="1.0" stroke="rgb(184, 61, 99)" stroke-opacity="0.45022273" stroke-linecap="round" stroke-linejoin="round"/>
    <path d="M 400.52935791015625 321.0545349121094 C 400.3470153808594 323.47662353515625 404.70733642578125 321.7654113769531 339.7864074707031 322.58636474609375 C 339.2187805175781 330.5203857421875 281.23956298828125 357.3130187988281 295.6394348144531 296.2738037109375 C 388.39959716796875 228.23104858398438 369.0152587890625 261.0508117675781 344.57110595703125 304.1398620605469 C 377.310302734375 308.0984191894531 392.5501708984375 297.53802490234375 400.52935791015625 321.0545349121094" stroke-width="0.0" fill="rgb(214, 95, 8)" opacity="1.0" stroke="rgb(248, 63, 30)" stroke-opacity="0.527195" stroke-linecap="round" stroke-linejoin="round"/>
    <path d="M 168.0847625732422 403.2043762207031 C 169.0231475830078 415.8966979980469 157.77713012695312 428.1855163574219 142.63893127441406 425.8409423828125 C 134.5109100341797 424.2667236328125 127.06421661376953 418.4255065917969 125.06365203857422 408.0453796386719 C 122.92357635498047 392.78765869140625 135.67469787597656 381.8760070800781 147.469482421875 382.8998718261719 C 159.4543914794922 383.0275573730469 168.0800323486328 393.7265930175781 168.0847625732422 403.2043762207031" stroke-width="0.0" fill="rgb(144, 190, 151)" opacity="0.7834182" stroke="rgb(146, 110, 96)" stroke-opacity="0.7508414" stroke-linecap="round" stroke-linejoin="round"/>
    <path d="M 298.90679931640625 265.0458068847656 C 298.7187805175781 271.5444030761719 293.8375549316406 275.4844970703125 284.0606689453125 273.91302490234375 C 281.27801513671875 275.224609375 282.58880615234375 274.219482421875 278.35882568359375 259.9137878417969 C 277.26177978515625 260.555908203125 283.5446472167969 258.5408630371094 291.8593444824219 256.5357971191406 C 290.6529541015625 255.6084442138672 294.8797607421875 244.178955078125 298.90679931640625 265.0458068847656" stroke-width="0.0" fill="rgb(255, 252, 240)" opacity="0.98398477" stroke="rgb(105, 142, 40)" stroke-opacity="0.6959049" stroke-linecap="round" stroke-linejoin="round"/>
    <path d="M 239.22438049316406 207.15701293945312 C 250.72030639648438 218.44737243652344 239.30758666992188 240.48023986816406 221.44546508789062 234.97996520996094 C 208.06881713867188 230.04859924316406 203.8745574951172 214.65646362304688 205.8540802001953 205.12368774414062 C 204.9175567626953 197.64271545410156 217.3793182373047 175.00502014160156 237.6343994140625 184.126953125 C 321.40087890625 144.2532501220703 347.5982360839844 229.66954040527344 239.22438049316406 207.15701293945312" stroke-width="0.0" fill="rgb(33, 30, 21)" opacity="0.9707319" stroke="rgb(157, 203, 165)" stroke-opacity="0.8467032" stroke-linecap="round" stroke-linejoin="round"/>
    <path d="M 294.7143249511719 343.27667236328125 C 277.3893737792969 389.7303466796875 300.1750793457031 372.3297424316406 256.78076171875 375.2074890136719 C 200.59434509277344 370.9119873046875 203.6927947998047 396.859375 206.33709716796875 294.18109130859375 C 217.33416748046875 407.58197021484375 261.56085205078125 368.97705078125 260.5481262207031 342.3029479980469 C 290.9535217285156 335.3179931640625 299.6553039550781 346.3331604003906 294.7143249511719 343.27667236328125" stroke-width="0.0" fill="rgb(237, 150, 4)" opacity="0.95788676" stroke="rgb(242, 102, 220)" stroke-opacity="0.335247" stroke-linecap="round" stroke-linejoin="round"/>
    <path d="M 294.28192138671875 119.9380111694336 C 289.4109802246094 123.79740142822266 317.00250244140625 113.27900695800781 308.63922119140625 136.62464904785156 C 216.34640502929688 150.15902709960938 251.41168212890625 111.47431945800781 263.35968017578125 122.53541564941406 C 264.9650573730469 91.20586395263672 258.4390563964844 91.00871276855469 278.7513732910156 91.32088470458984 C 298.3638000488281 91.09544372558594 293.49493408203125 90.40968322753906 294.28192138671875 119.9380111694336" stroke-width="0.0" fill="rgb(180, 38, 11)" opacity="0.9715485" stroke="rgb(235, 84, 31)" stroke-opacity="0.62372607" stroke-linecap="round" stroke-linejoin="round"/>
    <path d="M 290.9073791503906 460.97021484375 C 291.24615478515625 461.0276794433594 282.0335388183594 461.02142333984375 219.4378662109375 460.9710998535156 C 216.99212646484375 458.75653076171875 229.96548461914062 464.9696044921875 231.69216918945312 428.3755798339844 C 214.5284881591797 421.3319396972656 222.1510772705078 423.4841613769531 265.7619323730469 422.95794677734375 C 296.6173095703125 424.5224304199219 284.5816650390625 413.90423583984375 290.9073791503906 460.97021484375" stroke-width="0.0" fill="rgb(201, 186, 74)" opacity="0.25880626" stroke="rgb(125, 69, 206)" stroke-opacity="0.6654405" stroke-linecap="round" stroke-linejoin="round"/>
    <path d="M 164.9252471923828 253.51931762695312 C 152.18798828125 198.39236450195312 129.13270568847656 289.2278747558594 168.0467529296875 274.5982971191406 C 155.20230102539062 296.6137390136719 143.10984802246094 277.2182922363281 141.5897674560547 263.97259521484375 C 137.16676330566406 222.4849395751953 169.5525665283203 213.14450073242188 171.62916564941406 256.6816711425781 C 169.1027069091797 293.51025390625 150.20855712890625 270.7524108886719 164.9252471923828 253.51931762695312" stroke-width="0.0" fill="rgb(193, 36, 12)" opacity="0.98015374" stroke="rgb(84, 177, 17)" stroke-opacity="0.08488731" stroke-linecap="round" stroke-linejoin="round"/>
    <path d="M 357.1752624511719 206.81704711914062 C 355.4110412597656 241.5618438720703 355.45361328125 241.25230407714844 334.68280029296875 232.85284423828125 C 334.5564880371094 214.06849670410156 336.3946533203125 210.4064178466797 337.316650390625 199.55038452148438 C 333.9708251953125 209.90187072753906 330.3135070800781 206.13491821289062 333.46441650390625 198.9324493408203 C 348.6376037597656 196.90628051757812 350.2231140136719 201.3326416015625 357.1752624511719 206.81704711914062" stroke-width="0.0" fill="rgb(195, 97, 50)" opacity="0.8161072" stroke="rgb(220, 159, 43)" stroke-opacity="0.11913625" stroke-linecap="round" stroke-linejoin="round"/>
    <path d="M 333.0773010253906 225.7937469482422 C 334.41241455078125 234.36097717285156 346.9573974609375 231.41697692871094 353.0240783691406 259.7742614746094 C 328.91357421875 265.05194091796875 322.76318359375 253.65158081054688 326.5318603515625 229.0482177734375 C 329.48834228515625 224.14564514160156 316.0571594238281 190.2227020263672 344.81439208984375 191.8352508544922 C 347.7732238769531 226.2473907470703 337.7152099609375 237.8466339111328 333.0773010253906 225.7937469482422" stroke-width="0.0" fill="rgb(251, 227, 116)" opacity="0.96673834" stroke="rgb(206, 151, 223)" stroke-opacity="0.41728717" stroke-linecap="round" stroke-linejoin="round"/>
    <path d="M 188.5517120361328 357.35198974609375 C 183.23658752441406 365.5536804199219 180.3634033203125 372.44110107421875 170.4672088623047 381.3119201660156 C 116.08879852294922 354.3741455078125 159.0060272216797 358.4435729980469 170.23602294921875 367.8419189453125 C 179.12109375 350.8133544921875 189.12631225585938 355.6956787109375 146.3672637939453 357.4207458496094 C 212.22705078125 356.9398498535156 183.89459228515625 358.69769287109375 188.5517120361328 357.35198974609375" stroke-width="0.0" fill="rgb(48, 56, 38)" opacity="0.9249865" stroke="rgb(84, 180, 220)" stroke-opacity="0.74180716" stroke-linecap="round" stroke-linejoin="round"/>
    <path d="M 351.09637451171875 239.1736602783203 C 356.2810974121094 248.0623321533203 354.9792785644531 255.41761779785156 339.3345947265625 254.22540283203125 C 333.29217529296875 252.7933349609375 332.8142395019531 247.29969787597656 332.800048828125 246.8109588623047 C 332.7679748535156 201.7100372314453 332.28179931640625 199.12747192382812 334.5641784667969 207.6052703857422 C 349.38836669921875 215.17861938476562 347.0791931152344 222.63626098632812 351.09637451171875 239.1736602783203" stroke-width="0.0" fill="rgb(191, 40, 14)" opacity="0.98741627" stroke="rgb(163, 62, 146)" stroke-opacity="0.6997362" stroke-linecap="round" stroke-linejoin="round"/>
    <path d="M 360.9491882324219 206.3910369873047 C 360.1382751464844 246.43968200683594 365.32159423828125 252.963623046875 347.8994445800781 262.8219909667969 C 357.3124694824219 229.12144470214844 352.3406982421875 233.70376586914062 353.9457702636719 236.3115692138672 C 353.59368896484375 203.1898956298828 357.53143310546875 207.22927856445312 333.1844787597656 193.27589416503906 C 344.6754150390625 186.4873504638672 361.6023254394531 194.55722045898438 360.9491882324219 206.3910369873047" stroke-width="0.0" fill="rgb(251, 227, 112)" opacity="0.9889973" stroke="rgb(127, 173, 142)" stroke-opacity="0.92954195" stroke-linecap="round" stroke-linejoin="round"/>
    <path d="M 283.7569580078125 301.2377014160156 C 283.0458984375 309.2416687011719 296.6722106933594 306.1652526855469 219.1505584716797 306.9144287109375 C 228.888671875 308.2381286621094 215.0752410888672 309.0035705566406 219.47634887695312 301.22406005859375 C 240.5531463623047 300.965576171875 259.11834716796875 301.5555114746094 270.1646728515625 300.5610656738281 C 245.97901916503906 301.6709899902344 259.50439453125 300.811767578125 283.7569580078125 301.2377014160156" stroke-width="0.0" fill="rgb(241, 54, 2)" opacity="0.73553556" stroke="rgb(100, 98, 246)" stroke-opacity="0.90335834" stroke-linecap="round" stroke-linejoin="round"/>
    <path d="M 284.2422790527344 307.9068603515625 C 282.1645202636719 324.37371826171875 285.1448059082031 308.8570861816406 283.91290283203125 320.3595275878906 C 197.04156494140625 319.507568359375 224.0482940673828 324.3717346191406 218.46499633789062 309.2515869140625 C 217.59536743164062 306.29107666015625 243.01693725585938 308.7610168457031 276.5716857910156 306.93670654296875 C 242.61146545410156 308.5119323730469 262.961181640625 307.4137878417969 284.2422790527344 307.9068603515625" stroke-width="0.0" fill="rgb(0, 107, 75)" opacity="0.72104007" stroke="rgb(217, 64, 51)" stroke-opacity="0.5588799" stroke-linecap="round" stroke-linejoin="round"/>
    <path d="M 302.5179748535156 461.110107421875 C 261.30255126953125 461.8055725097656 265.4822692871094 461.67022705078125 272.2177429199219 461.5333557128906 C 266.4978332519531 461.67498779296875 256.9844055175781 461.9224853515625 215.8722381591797 461.10302734375 C 220.67340087890625 434.3649597167969 230.6511993408203 439.21490478515625 249.14796447753906 440.4249572753906 C 272.41668701171875 456.59149169921875 279.8551330566406 460.1576232910156 302.5179748535156 461.110107421875" stroke-width="0.0" fill="rgb(180, 140, 0)" opacity="0.3629586" stroke="rgb(96, 40, 148)" stroke-opacity="0.40370935" stroke-linecap="round" stroke-linejoin="round"/>
    <path d="M 354.1178283691406 241.69989013671875 C 350.00390625 224.50979614257812 357.21917724609375 247.38894653320312 351.44610595703125 251.61021423339844 C 336.28729248046875 264.5917053222656 337.2875671386719 227.73692321777344 333.58428955078125 216.05648803710938 C 332.1769104003906 203.3917999267578 332.1755065917969 196.6114959716797 348.2308044433594 198.68878173828125 C 358.37493896484375 203.85316467285156 350.9034423828125 209.21127319335938 354.1178283691406 241.69989013671875" stroke-width="0.0" fill="rgb(195, 39, 14)" opacity="0.9995788" stroke="rgb(90, 163, 132)" stroke-opacity="0.9283453" stroke-linecap="round" stroke-linejoin="round"/>
    <path d="M 258.7228088378906 423.8134460449219 C 260.8559875488281 442.96484375 251.2293243408203 440.3851013183594 218.30853271484375 461.04693603515625 C 208.72019958496094 458.0130920410156 208.3578643798828 433.8680725097656 194.137939453125 424.1056823730469 C 231.63748168945312 423.808349609375 239.5911102294922 424.28741455078125 229.9302978515625 424.15985107421875 C 227.0995635986328 424.2796630859375 229.3289031982422 423.8290100097656 258.7228088378906 423.8134460449219" stroke-width="0.0" fill="rgb(212, 190, 91)" opacity="0.84608006" stroke="rgb(101, 228, 45)" stroke-opacity="0.3170875" stroke-linecap="round" stroke-linejoin="round"/>
    <path d="M 305.7677307128906 428.6679992675781 C 335.09967041015625 467.7694396972656 378.8037109375 430.8517150878906 327.12908935546875 459.6426696777344 C 256.0128479003906 467.3204345703125 258.75830078125 440.77447509765625 258.8703918457031 423.8367004394531 C 310.2779846191406 424.7792053222656 298.81536865234375 421.2054748535156 282.8002014160156 430.0561828613281 C 282.74456787109375 430.7938232421875 303.6005554199219 416.92279052734375 305.7677307128906 428.6679992675781" stroke-width="0.0" fill="rgb(204, 178, 67)" opacity="0.70467544" stroke="rgb(161, 218, 227)" stroke-opacity="0.40493566" stroke-linecap="round" stroke-linejoin="round"/>
    <path d="M 284.39208984375 324.4137268066406 C 283.1880798339844 329.18304443359375 291.92169189453125 327.0956726074219 222.2211456298828 327.6757507324219 C 223.7178955078125 328.2073669433594 210.7042999267578 328.4798278808594 226.32522583007812 313.73028564453125 C 211.92047119140625 310.0328063964844 204.10508728027344 312.4107360839844 285.349365234375 311.51690673828125 C 284.814453125 312.56781005859375 279.0007019042969 312.6355895996094 284.39208984375 324.4137268066406" stroke-width="0.0" fill="rgb(69, 107, 78)" opacity="0.33443704" stroke="rgb(7, 185, 8)" stroke-opacity="0.6184387" stroke-linecap="round" stroke-linejoin="round"/>
    <path d="M 216.8877716064453 461.16802978515625 C 146.97332763671875 458.9363098144531 187.61949157714844 459.70428466796875 199.3988494873047 462.2296447753906 C 184.44712829589844 458.3311767578125 75.72565460205078 458.1792907714844 62.63211441040039 442.2492370605469 C 114.1119384765625 409.68988037109375 139.02557373046875 483.1953125 186.4264373779297 425.231689453125 C 205.40921020507812 419.87371826171875 203.1040496826172 446.1104431152344 216.8877716064453 461.16802978515625" stroke-width="0.0" fill="rgb(185, 152, 15)" opacity="0.50714475" stroke="rgb(210, 86, 144)" stroke-opacity="0.83745885" stroke-linecap="round" stroke-linejoin="round"/>
    <path d="M 440.9668884277344 447.2286682128906 C 419.8805236816406 454.4549865722656 383.5394287109375 456.051025390625 394.62127685546875 455.7648620605469 C 411.8897705078125 453.3142395019531 386.2208251953125 457.75634765625 326.4386901855469 460.18902587890625 C 355.41650390625 441.5740661621094 366.1661071777344 448.4053955078125 379.777099609375 428.0995178222656 C 438.3504638671875 433.0589904785156 458.6416015625 440.7701416015625 440.9668884277344 447.2286682128906" stroke-width="0.0" fill="rgb(179, 143, 0)" opacity="0.46724835" stroke="rgb(35, 156, 174)" stroke-opacity="0.3238473" stroke-linecap="round" stroke-linejoin="round"/>
    <path d="M 166.120849609375 256.9668273925781 C 165.8827667236328 271.233154296875 160.13023376464844 277.7590637207031 156.10838317871094 277.70391845703125 C 150.85598754882812 277.9367370605469 145.63043212890625 267.364990234375 146.7943572998047 253.1287384033203 C 147.04623413085938 242.48878479003906 151.93153381347656 233.6684112548828 157.74696350097656 235.2039337158203 C 162.9476318359375 237.40048217773438 166.37838745117188 247.44384765625 166.120849609375 256.9668273925781" stroke-width="0.0" fill="rgb(187, 184, 150)" opacity="0.9979211" stroke="rgb(228, 138, 135)" stroke-opacity="0.19816683" stroke-linecap="round" stroke-linejoin="round"/>
    <path d="M 299.9554138183594 61.00526428222656 C 292.485595703125 83.57759857177734 285.9227294921875 65.89436340332031 287.6865539550781 91.23480224609375 C 250.93104553222656 92.64737701416016 287.37774658203125 88.91630554199219 257.8712463378906 67.02779388427734 C 257.2873229980469 47.127933502197266 269.8250427246094 38.720787048339844 276.8885498046875 39.50627899169922 C 285.056640625 38.81308364868164 295.3479919433594 40.322505950927734 299.9554138183594 61.00526428222656" stroke-width="0.0" fill="rgb(155, 143, 107)" opacity="0.7504407" stroke="rgb(108, 162, 169)" stroke-opacity="0.57867986" stroke-linecap="round" stroke-linejoin="round"/>
    <path d="M 327.9501037597656 223.9701385498047 C 325.1775207519531 241.00210571289062 318.6891174316406 245.2434844970703 305.2539367675781 264.1230773925781 C 287.5647277832031 258.5623779296875 291.6811218261719 238.87527465820312 306.13153076171875 220.39317321777344 C 312.10235595703125 224.98939514160156 314.1980895996094 215.1455078125 319.1959533691406 220.7678680419922 C 324.1064758300781 215.50291442871094 327.6025085449219 219.05430603027344 327.9501037597656 223.9701385498047" stroke-width="0.0" fill="rgb(40, 37, 26)" opacity="1.0" stroke="rgb(101, 136, 13)" stroke-opacity="0.01515242" stroke-linecap="round" stroke-linejoin="round"/>
    <path d="M 279.84814453125 271.1578369140625 C 280.85418701171875 276.9185791015625 281.7182312011719 272.0542907714844 280.94549560546875 274.2566223144531 C 260.3548889160156 273.0877990722656 259.09674072265625 278.161865234375 260.3524475097656 265.782958984375 C 246.40103149414062 264.0690612792969 259.9423828125 266.34527587890625 273.3779296875 261.3444519042969 C 279.4568786621094 260.336669921875 275.723388671875 257.9084167480469 279.84814453125 271.1578369140625" stroke-width="0.0" fill="rgb(255, 250, 234)" opacity="0.98766756" stroke="rgb(132, 70, 29)" stroke-opacity="0.30081788" stroke-linecap="round" stroke-linejoin="round"/>
    <path d="M 358.2908935546875 387.9383850097656 C 380.6568908691406 424.7162170410156 331.70086669921875 429.66961669921875 343.6235656738281 425.5118713378906 C 347.58355712890625 430.5283203125 303.83013916015625 419.3529968261719 329.1819152832031 386.54132080078125 C 309.7623596191406 425.6439514160156 356.44775390625 434.833251953125 361.2867736816406 406.3877258300781 C 364.823974609375 426.3143615722656 364.11773681640625 422.3366394042969 358.2908935546875 387.9383850097656" stroke-width="0.0" fill="rgb(186, 185, 152)" opacity="0.9815336" stroke="rgb(153, 99, 161)" stroke-opacity="0.5366647" stroke-linecap="round" stroke-linejoin="round"/>
    <path d="M 334.82135009765625 360.7311706542969 C 334.90740966796875 364.7686767578125 331.2182312011719 368.69415283203125 326.9947814941406 368.5970764160156 C 322.48223876953125 368.64794921875 318.42138671875 364.0270080566406 318.77911376953125 359.9259338378906 C 319.2896728515625 356.30169677734375 322.2561950683594 352.8382263183594 326.4346008300781 352.7446594238281 C 330.57611083984375 352.8518981933594 334.81854248046875 355.9104309082031 334.82135009765625 360.7311706542969" stroke-width="0.0" fill="rgb(93, 27, 9)" opacity="0.9737868" stroke="rgb(190, 145, 179)" stroke-opacity="0.048120774" stroke-linecap="round" stroke-linejoin="round"/>
    <path d="M 206.6587677001953 200.48355102539062 C 204.02017211914062 207.35879516601562 209.72314453125 206.23789978027344 193.53884887695312 205.70396423339844 C 185.1415557861328 205.78610229492188 181.17306518554688 207.12576293945312 182.1976776123047 199.647216796875 C 181.9365692138672 190.51986694335938 184.53421020507812 193.75701904296875 199.16932678222656 192.9525909423828 C 214.45230102539062 193.99905395507812 208.84596252441406 191.0438690185547 206.6587677001953 200.48355102539062" stroke-width="0.0" fill="rgb(68, 139, 104)" opacity="0.98819214" stroke="rgb(41, 189, 216)" stroke-opacity="0.8864603" stroke-linecap="round" stroke-linejoin="round"/>
    <path d="M 350.0295715332031 404.70233154296875 C 350.47747802734375 407.78253173828125 347.2424621582031 411.8495788574219 342.0220642089844 411.76300048828125 C 338.3016357421875 411.67645263671875 335.4008483886719 408.366455078125 335.4770202636719 403.86981201171875 C 335.42022705078125 400.86810302734375 338.8092346191406 397.37286376953125 342.29656982421875 397.0857849121094 C 346.36334228515625 396.72894287109375 350.4500732421875 399.99029541015625 350.0295715332031 404.70233154296875" stroke-width="0.0" fill="rgb(189, 186, 153)" opacity="0.970309" stroke="rgb(6, 51, 5)" stroke-opacity="0.053232618" stroke-linecap="round" stroke-linejoin="round"/>
    <path d="M 360.40557861328125 249.35641479492188 C 359.90673828125 285.8429870605469 377.1361083984375 273.03466796875 319.8690185546875 276.6490173339844 C 323.6548156738281 286.3200378417969 319.0029602050781 254.88385009765625 324.6811828613281 274.3372802734375 C 323.0849304199219 223.6332244873047 326.41217041015625 228.5421600341797 325.93719482421875 245.32814025878906 C 324.4189758300781 263.8721008300781 354.98431396484375 268.0723876953125 360.40557861328125 249.35641479492188" stroke-width="0.0" fill="rgb(196, 43, 14)" opacity="1.0" stroke="rgb(189, 45, 108)" stroke-opacity="0.2390074" stroke-linecap="round" stroke-linejoin="round"/>
    <path d="M 314.0169372558594 219.19052124023438 C 312.08221435546875 226.37306213378906 319.25091552734375 221.4733123779297 307.29351806640625 230.82763671875 C 306.94647216796875 226.8994598388672 304.9797668457031 220.22972106933594 303.5137939453125 214.5595245361328 C 301.2320251464844 210.42430114746094 311.1761169433594 211.33424377441406 311.4338073730469 193.66661071777344 C 323.2221984863281 192.02670288085938 331.1313171386719 202.8914794921875 314.0169372558594 219.19052124023438" stroke-width="0.0" fill="rgb(231, 148, 2)" opacity="0.99428135" stroke="rgb(217, 120, 235)" stroke-opacity="0.064949915" stroke-linecap="round" stroke-linejoin="round"/>
    <path d="M 240.66448974609375 382.4198913574219 C 219.94766235351562 393.19464111328125 215.1584014892578 390.4964294433594 203.42266845703125 390.95648193359375 C 191.03955078125 390.9864196777344 190.83004760742188 391.5760192871094 191.0099334716797 379.2479553222656 C 190.75938415527344 371.5741271972656 191.1724853515625 368.01922607421875 191.3245391845703 329.12969970703125 C 218.49070739746094 357.9757385253906 194.6478271484375 374.2629699707031 240.66448974609375 382.4198913574219" stroke-width="0.0" fill="rgb(58, 129, 96)" opacity="0.99140954" stroke="rgb(5, 185, 15)" stroke-opacity="0.3775822" stroke-linecap="round" stroke-linejoin="round"/>
    <path d="M 287.2579345703125 370.3814392089844 C 281.6678771972656 378.0908508300781 303.6699523925781 375.6690979003906 230.4558563232422 376.2348937988281 C 200.36207580566406 375.3656005859375 206.08384704589844 381.2880554199219 205.12741088867188 353.32049560546875 C 217.62071228027344 357.1514892578125 206.51722717285156 376.4913635253906 211.02017211914062 366.2756652832031 C 214.33993530273438 372.3828125 203.62879943847656 369.76605224609375 287.2579345703125 370.3814392089844" stroke-width="0.0" fill="rgb(193, 36, 15)" opacity="0.95764005" stroke="rgb(129, 17, 220)" stroke-opacity="0.9893551" stroke-linecap="round" stroke-linejoin="round"/>
    <path d="M 232.76393127441406 315.0028991699219 C 250.98741149902344 314.7695007324219 244.32688903808594 315.59075927734375 248.2869415283203 313.6799011230469 C 249.48056030273438 312.8336486816406 250.90658569335938 311.73236083984375 245.672119140625 315.5011901855469 C 243.7649383544922 314.0697021484375 280.9771423339844 316.2376403808594 303.1324462890625 313.7875671386719 C 195.08380126953125 312.259033203125 192.0243377685547 315.2713317871094 232.76393127441406 315.0028991699219" stroke-width="0.0" fill="rgb(255, 255, 181)" opacity="0.7485088" stroke="rgb(15, 213, 208)" stroke-opacity="0.9001363" stroke-linecap="round" stroke-linejoin="round"/>
    <path d="M 288.334716796875 343.7961120605469 C 285.1347961425781 353.6230773925781 281.6805419921875 369.9496765136719 280.7403869628906 368.0320739746094 C 271.3532409667969 368.616943359375 274.5285339355469 370.0448913574219 279.842041015625 347.4626159667969 C 281.68719482421875 342.155517578125 279.9054260253906 345.3240051269531 282.589111328125 342.39300537109375 C 287.69610595703125 342.5269775390625 287.50445556640625 342.0219421386719 288.334716796875 343.7961120605469" stroke-width="0.0" fill="rgb(194, 40, 14)" opacity="0.9910299" stroke="rgb(80, 170, 63)" stroke-opacity="0.18899442" stroke-linecap="round" stroke-linejoin="round"/>
    <path d="M 384.13262939453125 360.6371154785156 C 383.99249267578125 366.40594482421875 379.7119445800781 367.6034851074219 379.220458984375 368.0554504394531 C 372.3543395996094 370.19921875 368.0343017578125 364.43408203125 368.3913879394531 360.8933410644531 C 367.9777526855469 356.7569885253906 372.23651123046875 351.3759460449219 378.14727783203125 352.8305969238281 C 380.01959228515625 353.4900207519531 384.0061950683594 354.7865905761719 384.13262939453125 360.6371154785156" stroke-width="0.0" fill="rgb(93, 27, 10)" opacity="0.97734827" stroke="rgb(91, 193, 47)" stroke-opacity="0.21452066" stroke-linecap="round" stroke-linejoin="round"/>
    <path d="M 115.75540924072266 436.15509033203125 C 132.22604370117188 446.5249328613281 111.99716186523438 441.1424560546875 104.92510986328125 430.8075866699219 C 90.11322021484375 433.0875244140625 80.06278228759766 433.3594970703125 97.84529113769531 433.9033203125 C 115.68470001220703 438.9515686035156 112.51078796386719 440.2776184082031 104.43033599853516 429.3013610839844 C 107.77949523925781 433.79248046875 107.95133209228516 424.6048583984375 115.75540924072266 436.15509033203125" stroke-width="0.0" fill="rgb(204, 177, 63)" opacity="0.6612546" stroke="rgb(57, 130, 189)" stroke-opacity="0.7081465" stroke-linecap="round" stroke-linejoin="round"/>
    <path d="M 360.2409362792969 277.5019226074219 C 361.0855407714844 198.0246124267578 359.23004150390625 184.11659240722656 362.09130859375 212.20037841796875 C 362.04229736328125 223.60902404785156 362.258056640625 220.7812042236328 361.9828186035156 244.3350372314453 C 362.22222900390625 237.3875732421875 362.46112060546875 236.52610778808594 363.5492248535156 236.9750518798828 C 360.23846435546875 235.9813232421875 364.3452453613281 253.1089630126953 360.2409362792969 277.5019226074219" stroke-width="0.0" fill="rgb(186, 30, 9)" opacity="0.92058945" stroke="rgb(99, 6, 239)" stroke-opacity="0.7072797" stroke-linecap="round" stroke-linejoin="round"/>
    <path d="M 361.43682861328125 226.77938842773438 C 366.32537841796875 183.1287841796875 340.3996887207031 189.2540283203125 325.4607238769531 197.12022399902344 C 350.0382385253906 175.7581329345703 367.9423522949219 202.75732421875 360.1754150390625 209.91368103027344 C 363.20074462890625 214.18621826171875 361.55902099609375 215.03158569335938 361.5090026855469 215.9726104736328 C 362.2528991699219 212.99993896484375 361.68731689453125 221.43753051757812 361.43682861328125 226.77938842773438" stroke-width="0.0" fill="rgb(180, 20, 12)" opacity="0.82296336" stroke="rgb(54, 66, 9)" stroke-opacity="0.8412847" stroke-linecap="round" stroke-linejoin="round"/>
    <path d="M 261.0326843261719 366.4418640136719 C 264.1498718261719 366.1192321777344 245.4052734375 366.8981018066406 259.6570129394531 365.9605712890625 C 255.99041748046875 365.78887939453125 248.13934326171875 367.2970886230469 239.02325439453125 365.6748962402344 C 234.66348266601562 348.19305419921875 241.18484497070312 347.4374694824219 246.1876678466797 340.3459777832031 C 265.3714294433594 344.6319885253906 259.8848876953125 336.337158203125 261.0326843261719 366.4418640136719" stroke-width="0.0" fill="rgb(253, 242, 168)" opacity="0.99337316" stroke="rgb(152, 127, 222)" stroke-opacity="0.7976045" stroke-linecap="round" stroke-linejoin="round"/>
    <path d="M 298.7261047363281 255.0453643798828 C 299.2138366699219 260.0293273925781 294.7752990722656 258.07354736328125 298.5341491699219 258.5373229980469 C 295.8078308105469 258.327880859375 288.1998596191406 255.5017547607422 293.9259948730469 259.0727233886719 C 296.5369873046875 259.91217041015625 299.8935241699219 258.53656005859375 292.05865478515625 257.14300537109375 C 290.1728210449219 251.78990173339844 296.53436279296875 249.8348388671875 298.7261047363281 255.0453643798828" stroke-width="0.0" fill="rgb(220, 203, 108)" opacity="0.9970766" stroke="rgb(96, 158, 117)" stroke-opacity="0.35069954" stroke-linecap="round" stroke-linejoin="round"/>
    <path d="M 211.36557006835938 342.55633544921875 C 154.74928283691406 289.21478271484375 126.39167785644531 338.4165954589844 165.433837890625 338.326904296875 C 148.56349182128906 336.3593444824219 145.11895751953125 329.9184875488281 137.4447784423828 337.2945861816406 C 134.39627075195312 344.7418212890625 136.0747833251953 340.58489990234375 135.41043090820312 342.3759765625 C 124.33116912841797 342.4481506347656 136.95718383789062 342.5915222167969 211.36557006835938 342.55633544921875" stroke-width="0.0" fill="rgb(231, 147, 0)" opacity="1.0" stroke="rgb(178, 38, 251)" stroke-opacity="0.115281746" stroke-linecap="round" stroke-linejoin="round"/>
    <path d="M 137.7884063720703 342.5736999511719 C 131.5812530517578 344.6502380371094 132.80361938476562 337.6767578125 125.02739715576172 355.035400390625 C 141.57366943359375 359.98187255859375 120.97408294677734 358.7823486328125 123.37667846679688 352.6786804199219 C 121.20692443847656 331.6127014160156 136.67568969726562 355.2158508300781 133.6661834716797 326.95831298828125 C 142.613525390625 331.9143371582031 136.16429138183594 319.3183288574219 137.7884063720703 342.5736999511719" stroke-width="0.0" fill="rgb(154, 186, 149)" opacity="1.0" stroke="rgb(108, 161, 59)" stroke-opacity="0.51740295" stroke-linecap="round" stroke-linejoin="round"/>
    <path d="M 244.81114196777344 363.3801574707031 C 244.37881469726562 366.19549560546875 271.0363464355469 372.1535949707031 222.29818725585938 369.67254638671875 C 240.47918701171875 358.30987548828125 236.5596923828125 380.8754577636719 237.11480712890625 344.555419921875 C 198.9907684326172 330.9512023925781 191.68504333496094 333.5213623046875 280.3070068359375 333.27508544921875 C 251.38796997070312 358.3597106933594 242.1835174560547 327.0415954589844 244.81114196777344 363.3801574707031" stroke-width="0.0" fill="rgb(233, 146, 0)" opacity="0.9588352" stroke="rgb(54, 66, 146)" stroke-opacity="0.5491591" stroke-linecap="round" stroke-linejoin="round"/>
    <path d="M 235.8451385498047 238.89218139648438 C 243.49557495117188 226.3828582763672 232.22268676757812 235.8770294189453 245.92828369140625 248.81436157226562 C 233.753662109375 251.662109375 230.65994262695312 253.18109130859375 227.36183166503906 231.1484375 C 223.8837890625 188.31329345703125 256.13262939453125 149.65370178222656 238.5193634033203 234.94448852539062 C 236.86827087402344 231.88233947753906 236.69180297851562 239.77426147460938 235.8451385498047 238.89218139648438" stroke-width="0.0" fill="rgb(45, 37, 25)" opacity="1.0" stroke="rgb(26, 196, 126)" stroke-opacity="0.9562151" stroke-linecap="round" stroke-linejoin="round"/>
  </g>
</svg>
