<?xml version="1.0" ?>
<svg xmlns="http://www.w3.org/2000/svg" version="1.1" width="512" height="512">
  <defs/>
  <g>
    <path d="M 180.85511779785156 295.8653869628906 C 251.76864624023438 372.9088134765625 237.8565673828125 432.2285461425781 173.53700256347656 357.02166748046875 C 84.4322509765625 360.3995666503906 155.59719848632812 348.59686279296875 128.14881896972656 318.12506103515625 C 206.10260009765625 180.95501708984375 232.66421508789062 303.00830078125 350.6578674316406 199.0402069091797 C 357.88720703125 443.1994934082031 347.7205505371094 242.8007049560547 180.85511779785156 295.8653869628906" stroke-width="0.0" fill="rgb(53, 122, 89)" opacity="0.82916725" stroke="rgb(178, 101, 20)" stroke-opacity="0.96374935" stroke-linecap="round" stroke-linejoin="round"/>
    <path d="M 230.48248291015625 241.79945373535156 C 229.2269287109375 257.9276428222656 248.83753967285156 242.628173828125 235.90248107910156 261.67071533203125 C 186.95606994628906 239.07708740234375 198.1063995361328 225.42721557617188 60.67559814453125 221.9827117919922 C 65.29519653320312 49.48690414428711 157.80984497070312 122.37797546386719 196.0688934326172 233.99046325683594 C 238.56704711914062 234.1590118408203 226.3503875732422 232.74969482421875 230.48248291015625 241.79945373535156" stroke-width="0.0" fill="rgb(251, 243, 205)" opacity="0.91617644" stroke="rgb(41, 48, 155)" stroke-opacity="0.21345732" stroke-linecap="round" stroke-linejoin="round"/>
    <path d="M 344.3730773925781 177.55349731445312 C 286.8394470214844 331.4681091308594 299.9319763183594 269.1148376464844 297.52679443359375 234.33319091796875 C 307.6142272949219 194.08030700683594 208.64505004882812 208.7786865234375 249.67982482910156 259.66943359375 C 109.4036636352539 141.9234161376953 311.8860778808594 174.5534210205078 263.07391357421875 57.88254928588867 C 351.51910400390625 54.52341079711914 217.92576599121094 68.8555679321289 344.3730773925781 177.55349731445312" stroke-width="0.0" fill="rgb(29, 13, 0)" opacity="0.699987" stroke="rgb(163, 34, 221)" stroke-opacity="0.95677835" stroke-linecap="round" stroke-linejoin="round"/>
    <path d="M 214.71578979492188 294.4105529785156 C 171.12863159179688 371.5096435546875 322.15380859375 305.11138916015625 303.5306091308594 345.67376708984375 C 37.703392028808594 338.6590576171875 172.9462127685547 352.1100158691406 137.44424438476562 298.9827880859375 C 172.49600219726562 258.85931396484375 187.8760223388672 234.7340850830078 243.63401794433594 288.61370849609375 C 231.62954711914062 280.00445556640625 462.37530517578125 297.6549987792969 214.71578979492188 294.4105529785156" stroke-width="0.0" fill="rgb(231, 153, 13)" opacity="0.99122113" stroke="rgb(60, 178, 96)" stroke-opacity="0.9491888" stroke-linecap="round" stroke-linejoin="round"/>
    <path d="M 367.3723449707031 323.6350402832031 C 285.50250244140625 257.8578186035156 328.01947021484375 179.74362182617188 292.8641357421875 168.21063232421875 C 261.201171875 158.8441619873047 291.0343322753906 178.26092529296875 191.35830688476562 196.70791625976562 C 201.46661376953125 122.19752502441406 255.08372497558594 145.4087677001953 263.1174621582031 127.26505279541016 C 388.3811340332031 148.39178466796875 364.19586181640625 125.60714721679688 367.3723449707031 323.6350402832031" stroke-width="0.0" fill="rgb(220, 129, 0)" opacity="0.907454" stroke="rgb(124, 120, 250)" stroke-opacity="0.4740567" stroke-linecap="round" stroke-linejoin="round"/>
    <path d="M 406.36993408203125 386.1803283691406 C 348.5678405761719 386.3520202636719 419.89837646484375 385.2259826660156 362.2995910644531 441.8868408203125 C 263.7225646972656 424.1224670410156 400.78021240234375 382.4728088378906 215.15777587890625 391.74139404296875 C 229.08737182617188 370.2522277832031 299.5800476074219 334.18414306640625 360.48974609375 337.27606201171875 C 418.8099365234375 340.0292053222656 403.91473388671875 322.23077392578125 406.36993408203125 386.1803283691406" stroke-width="0.0" fill="rgb(54, 126, 95)" opacity="0.8787487" stroke="rgb(98, 235, 106)" stroke-opacity="0.44761392" stroke-linecap="round" stroke-linejoin="round"/>
    <path d="M 171.90988159179688 366.2997131347656 C 216.15386962890625 412.2068786621094 168.38717651367188 448.24920654296875 158.49769592285156 446.5464172363281 C 119.08708190917969 457.55780029296875 90.51793670654297 415.8535461425781 107.80504608154297 384.3428649902344 C 127.2860107421875 343.26324462890625 204.74331665039062 362.68994140625 131.45211791992188 388.5799255371094 C 127.35337829589844 401.3173828125 104.39463806152344 409.5614318847656 171.90988159179688 366.2997131347656" stroke-width="0.0" fill="rgb(42, 37, 26)" opacity="0.99904525" stroke="rgb(176, 65, 191)" stroke-opacity="0.4581402" stroke-linecap="round" stroke-linejoin="round"/>
    <path d="M 382.93939208984375 386.83251953125 C 397.4198913574219 424.3489685058594 364.42633056640625 454.6830139160156 333.61077880859375 447.2460021972656 C 320.1540832519531 446.1876525878906 291.78021240234375 426.6630859375 300.7699890136719 391.7430725097656 C 351.1794128417969 384.7974853515625 295.0175476074219 404.2770080566406 339.5670471191406 427.6232604980469 C 390.0024108886719 416.6090087890625 339.52764892578125 383.3585510253906 382.93939208984375 386.83251953125" stroke-width="0.0" fill="rgb(42, 38, 26)" opacity="1.0" stroke="rgb(131, 52, 105)" stroke-opacity="0.28330377" stroke-linecap="round" stroke-linejoin="round"/>
    <path d="M 258.218505859375 261.380859375 C 246.2129364013672 265.948974609375 276.72216796875 276.1979675292969 246.63613891601562 274.0455322265625 C 220.11695861816406 283.8083190917969 209.61842346191406 277.59295654296875 222.72325134277344 266.3437805175781 C 262.2324523925781 243.76380920410156 215.95498657226562 255.96728515625 284.155517578125 238.42420959472656 C 341.1386413574219 220.84132385253906 298.53228759765625 266.94805908203125 258.218505859375 261.380859375" stroke-width="0.0" fill="rgb(41, 36, 25)" opacity="1.0" stroke="rgb(184, 61, 99)" stroke-opacity="0.45022273" stroke-linecap="round" stroke-linejoin="round"/>
    <path d="M 400.5063781738281 321.0321960449219 C 400.4897766113281 323.56634521484375 402.87615966796875 321.7640380859375 339.6745910644531 322.5965881347656 C 339.9642028808594 329.8020324707031 280.7350769042969 357.5340881347656 295.931884765625 298.8874816894531 C 380.32244873046875 216.40945434570312 373.45721435546875 256.00677490234375 346.1340637207031 304.1854553222656 C 377.7593994140625 307.9355773925781 392.5466613769531 297.7644348144531 400.5063781738281 321.0321960449219" stroke-width="0.0" fill="rgb(210, 86, 10)" opacity="1.0" stroke="rgb(248, 63, 30)" stroke-opacity="0.527195" stroke-linecap="round" stroke-linejoin="round"/>
    <path d="M 168.13597106933594 403.0120544433594 C 168.974853515625 415.9949645996094 157.69717407226562 428.1260986328125 142.675048828125 425.8544921875 C 134.55670166015625 424.1351318359375 127.09033203125 418.4371643066406 125.01790618896484 407.9171142578125 C 123.08455657958984 392.50732421875 135.64381408691406 381.85211181640625 147.89315795898438 382.81927490234375 C 159.88430786132812 383.6742858886719 167.81813049316406 393.4850769042969 168.13597106933594 403.0120544433594" stroke-width="0.0" fill="rgb(136, 178, 142)" opacity="0.8505269" stroke="rgb(146, 110, 96)" stroke-opacity="0.7508414" stroke-linecap="round" stroke-linejoin="round"/>
    <path d="M 298.8478698730469 267.1265563964844 C 296.8725280761719 271.7862548828125 294.802001953125 275.3006286621094 283.91290283203125 273.8285217285156 C 281.60205078125 275.18536376953125 282.242431640625 274.3558044433594 278.5104064941406 259.71734619140625 C 277.2623291015625 260.8134765625 283.3067626953125 258.39434814453125 291.3165588378906 256.910888671875 C 291.493896484375 254.7261962890625 296.85369873046875 242.34315490722656 298.8478698730469 267.1265563964844" stroke-width="0.0" fill="rgb(255, 249, 228)" opacity="0.9513564" stroke="rgb(105, 142, 40)" stroke-opacity="0.6959049" stroke-linecap="round" stroke-linejoin="round"/>
    <path d="M 242.26376342773438 207.05531311035156 C 248.03878784179688 219.44895935058594 241.12362670898438 241.47952270507812 220.80906677246094 234.73431396484375 C 208.73709106445312 230.40902709960938 203.773681640625 214.272216796875 206.33033752441406 209.10595703125 C 203.62889099121094 197.9117889404297 217.4160614013672 174.42898559570312 238.2354278564453 184.52333068847656 C 319.67462158203125 140.27857971191406 348.94439697265625 231.47393798828125 242.26376342773438 207.05531311035156" stroke-width="0.0" fill="rgb(35, 31, 21)" opacity="0.96915275" stroke="rgb(157, 203, 165)" stroke-opacity="0.8467032" stroke-linecap="round" stroke-linejoin="round"/>
    <path d="M 294.683837890625 343.6303405761719 C 277.3238525390625 388.1175537109375 301.6065979003906 373.0973815917969 254.270751953125 376.3914489746094 C 191.8843994140625 372.616455078125 204.7907257080078 397.7571105957031 208.0955352783203 296.5089416503906 C 207.74139404296875 399.66864013671875 274.5293884277344 363.7781677246094 259.493896484375 346.01678466796875 C 291.1569519042969 336.8255615234375 299.44366455078125 347.834228515625 294.683837890625 343.6303405761719" stroke-width="0.0" fill="rgb(232, 112, 4)" opacity="0.87078196" stroke="rgb(242, 102, 220)" stroke-opacity="0.335247" stroke-linecap="round" stroke-linejoin="round"/>
    <path d="M 294.20501708984375 119.83222198486328 C 289.2771911621094 123.9996109008789 316.5849609375 113.15696716308594 308.8099060058594 136.19610595703125 C 215.415283203125 150.70106506347656 252.29867553710938 110.61165618896484 263.365478515625 122.84913635253906 C 264.9967956542969 91.12090301513672 258.56744384765625 90.97925567626953 278.7751770019531 91.380615234375 C 298.2535705566406 91.04763793945312 293.6042785644531 90.3449478149414 294.20501708984375 119.83222198486328" stroke-width="0.0" fill="rgb(180, 37, 11)" opacity="0.96903545" stroke="rgb(235, 84, 31)" stroke-opacity="0.62372607" stroke-linecap="round" stroke-linejoin="round"/>
    <path d="M 289.8107604980469 460.84405517578125 C 291.04052734375 461.0705261230469 281.8916931152344 460.76226806640625 236.1777801513672 460.9233093261719 C 226.71322631835938 459.73797607421875 231.4510040283203 468.1378173828125 232.91287231445312 433.0572204589844 C 223.9296112060547 419.3010559082031 228.3702392578125 424.1258239746094 260.6528625488281 422.96820068359375 C 289.2447509765625 424.1428527832031 282.1978454589844 415.6374816894531 289.8107604980469 460.84405517578125" stroke-width="0.0" fill="rgb(210, 192, 83)" opacity="0.28256017" stroke="rgb(125, 69, 206)" stroke-opacity="0.6654405" stroke-linecap="round" stroke-linejoin="round"/>
    <path d="M 166.29043579101562 251.94448852539062 C 151.32965087890625 197.3646697998047 130.10055541992188 294.4786682128906 168.1425018310547 274.70758056640625 C 153.94049072265625 297.39697265625 142.7100830078125 274.8006896972656 141.6549835205078 264.5230407714844 C 136.51162719726562 224.6446075439453 169.05030822753906 210.8950958251953 171.80538940429688 257.5162353515625 C 164.8351593017578 296.27532958984375 162.2613067626953 271.12921142578125 166.29043579101562 251.94448852539062" stroke-width="0.0" fill="rgb(190, 27, 6)" opacity="0.9226355" stroke="rgb(84, 177, 17)" stroke-opacity="0.08488731" stroke-linecap="round" stroke-linejoin="round"/>
    <path d="M 356.0915832519531 206.1926727294922 C 355.2195129394531 241.10096740722656 355.3398132324219 240.60279846191406 334.6358947753906 232.68911743164062 C 334.5853271484375 214.07489013671875 336.4831237792969 210.41629028320312 336.74029541015625 197.9462127685547 C 333.8106384277344 209.67929077148438 330.1703186035156 205.86050415039062 333.3708190917969 199.17153930664062 C 349.1347351074219 196.76243591308594 350.6530456542969 200.83685302734375 356.0915832519531 206.1926727294922" stroke-width="0.0" fill="rgb(195, 82, 38)" opacity="0.84670466" stroke="rgb(220, 159, 43)" stroke-opacity="0.11913625" stroke-linecap="round" stroke-linejoin="round"/>
    <path d="M 333.19598388671875 225.7653350830078 C 334.44635009765625 234.3369598388672 346.5263671875 231.923583984375 352.5058288574219 259.79888916015625 C 328.5802917480469 265.0599670410156 321.42828369140625 253.5952606201172 328.4165344238281 221.78533935546875 C 328.28662109375 228.63726806640625 316.8530578613281 189.0955352783203 344.3092041015625 192.07730102539062 C 347.75628662109375 226.2375946044922 337.6549987792969 237.85264587402344 333.19598388671875 225.7653350830078" stroke-width="0.0" fill="rgb(252, 227, 115)" opacity="0.97163475" stroke="rgb(206, 151, 223)" stroke-opacity="0.41728717" stroke-linecap="round" stroke-linejoin="round"/>
    <path d="M 188.14857482910156 358.8050537109375 C 182.27197265625 365.46038818359375 180.70216369628906 373.19207763671875 170.44935607910156 381.3045654296875 C 125.21271514892578 352.9596862792969 160.98709106445312 360.1013488769531 170.21815490722656 367.7857666015625 C 176.65478515625 355.4395446777344 185.01145935058594 356.529052734375 161.98062133789062 355.9276123046875 C 207.39682006835938 359.96148681640625 187.59027099609375 353.9278259277344 188.14857482910156 358.8050537109375" stroke-width="0.0" fill="rgb(50, 57, 38)" opacity="0.93939364" stroke="rgb(84, 180, 220)" stroke-opacity="0.74180716" stroke-linecap="round" stroke-linejoin="round"/>
    <path d="M 351.30828857421875 238.8544921875 C 356.1319885253906 248.85435485839844 355.6459655761719 255.41368103027344 339.29876708984375 254.254150390625 C 333.5840148925781 252.68011474609375 332.93389892578125 247.21359252929688 332.80133056640625 246.61827087402344 C 332.7283020019531 203.25181579589844 332.3887634277344 199.6662139892578 333.8799743652344 207.58755493164062 C 349.4143371582031 215.15306091308594 347.0826721191406 222.62461853027344 351.30828857421875 238.8544921875" stroke-width="0.0" fill="rgb(192, 40, 14)" opacity="0.99244547" stroke="rgb(163, 62, 146)" stroke-opacity="0.6997362" stroke-linecap="round" stroke-linejoin="round"/>
    <path d="M 360.2952575683594 207.82920837402344 C 359.3460388183594 249.4776611328125 364.6636657714844 255.2790985107422 347.4556579589844 261.1981506347656 C 356.48101806640625 226.85264587402344 355.2027893066406 229.441650390625 353.8008117675781 237.11087036132812 C 353.1376647949219 207.74563598632812 358.8458557128906 207.7440185546875 335.65032958984375 195.58541870117188 C 346.2085266113281 187.33212280273438 360.68731689453125 194.23681640625 360.2952575683594 207.82920837402344" stroke-width="0.0" fill="rgb(251, 226, 113)" opacity="0.99517626" stroke="rgb(127, 173, 142)" stroke-opacity="0.92954195" stroke-linecap="round" stroke-linejoin="round"/>
    <path d="M 283.6620178222656 301.2230529785156 C 283.4794921875 309.32470703125 295.4620056152344 306.09356689453125 218.4764404296875 306.81939697265625 C 225.30816650390625 304.517578125 215.98187255859375 309.55291748046875 219.62759399414062 301.1877136230469 C 240.01661682128906 301.009521484375 258.36212158203125 301.1173400878906 268.5473937988281 300.643310546875 C 246.79513549804688 302.4961853027344 259.09716796875 300.70208740234375 283.6620178222656 301.2230529785156" stroke-width="0.0" fill="rgb(243, 58, 6)" opacity="0.73768485" stroke="rgb(100, 98, 246)" stroke-opacity="0.90335834" stroke-linecap="round" stroke-linejoin="round"/>
    <path d="M 284.29248046875 308.1090087890625 C 281.3450927734375 325.1094055175781 284.2765808105469 307.042236328125 284.19134521484375 320.28472900390625 C 196.1116180419922 320.4147644042969 224.65841674804688 324.49609375 218.60362243652344 308.8318176269531 C 217.4366455078125 306.6925048828125 249.44557189941406 308.78741455078125 276.48291015625 307.00244140625 C 245.22254943847656 308.6808166503906 260.586181640625 307.5184020996094 284.29248046875 308.1090087890625" stroke-width="0.0" fill="rgb(32, 122, 87)" opacity="0.8252843" stroke="rgb(217, 64, 51)" stroke-opacity="0.5588799" stroke-linecap="round" stroke-linejoin="round"/>
    <path d="M 301.5845642089844 461.0091857910156 C 261.3054504394531 461.6094055175781 265.4129333496094 461.5434875488281 272.2001647949219 461.4109191894531 C 266.83465576171875 461.5419921875 257.0360107421875 461.96624755859375 214.1330108642578 461.0227966308594 C 221.9110565185547 435.6810302734375 230.71922302246094 439.2242431640625 245.59934997558594 441.5726013183594 C 279.3739013671875 443.5637512207031 286.58642578125 450.8119812011719 301.5845642089844 461.0091857910156" stroke-width="0.0" fill="rgb(182, 142, 0)" opacity="0.35110134" stroke="rgb(96, 40, 148)" stroke-opacity="0.40370935" stroke-linecap="round" stroke-linejoin="round"/>
    <path d="M 354.23321533203125 240.79840087890625 C 349.93353271484375 220.37551879882812 357.3418273925781 247.9981689453125 351.2576904296875 251.80162048339844 C 335.5119323730469 264.1971130371094 339.7095031738281 227.87835693359375 333.6973876953125 214.09140014648438 C 331.66192626953125 203.6501922607422 332.2084045410156 196.76034545898438 348.0271301269531 198.64569091796875 C 358.9574279785156 203.44937133789062 350.1600341796875 212.18798828125 354.23321533203125 240.79840087890625" stroke-width="0.0" fill="rgb(194, 39, 14)" opacity="0.99854726" stroke="rgb(90, 163, 132)" stroke-opacity="0.9283453" stroke-linecap="round" stroke-linejoin="round"/>
    <path d="M 258.27850341796875 424.0086364746094 C 261.57525634765625 443.1676330566406 252.1498260498047 442.067138671875 226.68447875976562 461.1666564941406 C 205.0432586669922 456.29754638671875 200.087890625 442.3799743652344 197.36769104003906 424.54510498046875 C 231.2300262451172 423.1866149902344 239.00640869140625 424.61798095703125 230.97695922851562 424.15234375 C 228.19833374023438 423.9852600097656 229.73391723632812 423.9675598144531 258.27850341796875 424.0086364746094" stroke-width="0.0" fill="rgb(211, 187, 83)" opacity="0.75574815" stroke="rgb(101, 228, 45)" stroke-opacity="0.3170875" stroke-linecap="round" stroke-linejoin="round"/>
    <path d="M 306.5243835449219 429.96990966796875 C 336.7686462402344 466.78643798828125 375.71673583984375 431.6514892578125 331.34954833984375 459.30499267578125 C 266.37127685546875 469.4405822753906 257.3986511230469 431.6005859375 258.3804626464844 423.79681396484375 C 306.0816650390625 424.76263427734375 297.917724609375 421.483642578125 280.48681640625 428.91510009765625 C 280.0711364746094 429.9881896972656 303.1402587890625 416.4529724121094 306.5243835449219 429.96990966796875" stroke-width="0.0" fill="rgb(207, 181, 71)" opacity="0.71182084" stroke="rgb(161, 218, 227)" stroke-opacity="0.40493566" stroke-linecap="round" stroke-linejoin="round"/>
    <path d="M 284.4173278808594 326.40447998046875 C 283.3780517578125 328.07476806640625 279.8260498046875 327.0865783691406 232.57911682128906 327.3056640625 C 221.9993438720703 327.1265563964844 210.51385498046875 328.93438720703125 226.6152801513672 317.7958984375 C 214.34835815429688 310.8080749511719 206.88088989257812 313.47845458984375 282.114501953125 312.92877197265625 C 286.0412292480469 314.1147766113281 279.3363037109375 311.33953857421875 284.4173278808594 326.40447998046875" stroke-width="0.0" fill="rgb(155, 166, 130)" opacity="0.60686916" stroke="rgb(7, 185, 8)" stroke-opacity="0.6184387" stroke-linecap="round" stroke-linejoin="round"/>
    <path d="M 216.11741638183594 460.9897766113281 C 154.0032958984375 459.6110534667969 185.4766845703125 458.946044921875 196.14840698242188 463.9881896972656 C 180.4634246826172 455.4844970703125 101.40015411376953 461.9097595214844 61.53091049194336 443.3694763183594 C 129.79603576660156 403.01904296875 125.62543487548828 486.9197998046875 187.97877502441406 425.18743896484375 C 202.76707458496094 419.7562255859375 208.2359619140625 443.8090515136719 216.11741638183594 460.9897766113281" stroke-width="0.0" fill="rgb(182, 145, 0)" opacity="0.44187433" stroke="rgb(210, 86, 144)" stroke-opacity="0.83745885" stroke-linecap="round" stroke-linejoin="round"/>
    <path d="M 441.885009765625 446.906982421875 C 415.7644348144531 455.5596618652344 385.19036865234375 454.9123229980469 393.6861572265625 455.9095153808594 C 411.0085754394531 453.18060302734375 386.3761291503906 457.6560363769531 329.0546875 460.0177001953125 C 355.8539733886719 442.1506652832031 370.240966796875 445.92401123046875 379.4765930175781 428.247802734375 C 438.11773681640625 433.1145324707031 457.4851989746094 440.324951171875 441.885009765625 446.906982421875" stroke-width="0.0" fill="rgb(183, 146, 0)" opacity="0.4497913" stroke="rgb(35, 156, 174)" stroke-opacity="0.3238473" stroke-linecap="round" stroke-linejoin="round"/>
  </g>
</svg>
