<?xml version="1.0" ?>
<svg xmlns="http://www.w3.org/2000/svg" version="1.1" width="512" height="512">
  <defs/>
  <g>
    <path d="M 179.2678985595703 295.991455078125 C 250.90243530273438 376.3858947753906 243.5241241455078 430.5572509765625 166.0867462158203 357.1190490722656 C 88.88265991210938 359.4621276855469 153.93844604492188 351.3430480957031 128.78128051757812 316.6363220214844 C 198.24102783203125 182.0595703125 231.81515502929688 302.6067810058594 352.0710144042969 198.74832153320312 C 358.59442138671875 442.4328308105469 347.85980224609375 242.45712280273438 179.2678985595703 295.991455078125" stroke-width="0.0" fill="rgb(56, 120, 90)" opacity="0.8131235" stroke="rgb(178, 101, 20)" stroke-opacity="0.96374935" stroke-linecap="round" stroke-linejoin="round"/>
    <path d="M 230.5361785888672 241.8898468017578 C 228.73892211914062 257.1900329589844 249.93434143066406 243.68946838378906 235.0526580810547 261.1661071777344 C 187.5772705078125 239.9044647216797 200.16848754882812 225.32664489746094 60.83102798461914 221.93023681640625 C 65.206298828125 49.85125732421875 156.90228271484375 123.12566375732422 196.3356475830078 234.01878356933594 C 238.3681640625 234.00802612304688 226.2239227294922 233.07225036621094 230.5361785888672 241.8898468017578" stroke-width="0.0" fill="rgb(252, 244, 206)" opacity="0.9049037" stroke="rgb(41, 48, 155)" stroke-opacity="0.21345732" stroke-linecap="round" stroke-linejoin="round"/>
    <path d="M 343.8716735839844 176.98275756835938 C 287.6523132324219 331.6064758300781 299.6428527832031 269.4385681152344 297.6392822265625 233.98138427734375 C 307.0851745605469 194.3515625 209.49986267089844 208.5478057861328 249.12161254882812 259.3508605957031 C 114.88194274902344 146.1391143798828 308.9692687988281 173.70257568359375 263.96490478515625 58.40087127685547 C 347.3647155761719 52.38276672363281 220.59982299804688 72.54755401611328 343.8716735839844 176.98275756835938" stroke-width="0.0" fill="rgb(24, 11, 0)" opacity="0.68470746" stroke="rgb(163, 34, 221)" stroke-opacity="0.95677835" stroke-linecap="round" stroke-linejoin="round"/>
    <path d="M 213.8913116455078 294.49554443359375 C 179.02928161621094 369.7284240722656 298.7571105957031 307.88031005859375 310.4278869628906 346.91278076171875 C 38.594642639160156 335.5157775878906 170.17872619628906 356.6961975097656 138.178466796875 299.5852966308594 C 165.09658813476562 254.93865966796875 192.74771118164062 236.72584533691406 244.39202880859375 289.7445373535156 C 223.5543670654297 278.5060729980469 447.3923645019531 298.0819091796875 213.8913116455078 294.49554443359375" stroke-width="0.0" fill="rgb(231, 148, 13)" opacity="0.9757389" stroke="rgb(60, 178, 96)" stroke-opacity="0.9491888" stroke-linecap="round" stroke-linejoin="round"/>
    <path d="M 366.7193298339844 324.4111022949219 C 282.0513610839844 238.66143798828125 324.6645202636719 187.71009826660156 299.1610107421875 171.7707977294922 C 266.1206359863281 153.5691680908203 289.0001525878906 178.6453094482422 191.20126342773438 197.11590576171875 C 202.78807067871094 123.63179016113281 244.5354766845703 149.10238647460938 267.958251953125 122.4198989868164 C 381.3055419921875 158.620849609375 366.7411804199219 109.98780822753906 366.7193298339844 324.4111022949219" stroke-width="0.0" fill="rgb(227, 128, 0)" opacity="0.83391607" stroke="rgb(124, 120, 250)" stroke-opacity="0.4740567" stroke-linecap="round" stroke-linejoin="round"/>
    <path d="M 406.14501953125 386.3305358886719 C 350.3353576660156 385.19915771484375 418.6317138671875 390.083251953125 363.3229675292969 442.4861145019531 C 267.65069580078125 431.932373046875 396.179443359375 380.866455078125 217.00929260253906 391.7906188964844 C 231.4938507080078 369.019775390625 301.8977355957031 334.8873291015625 357.9644775390625 337.26361083984375 C 420.2527160644531 340.1641540527344 403.5670471191406 322.2655334472656 406.14501953125 386.3305358886719" stroke-width="0.0" fill="rgb(61, 131, 99)" opacity="0.9062263" stroke="rgb(98, 235, 106)" stroke-opacity="0.44761392" stroke-linecap="round" stroke-linejoin="round"/>
    <path d="M 173.67312622070312 363.99725341796875 C 214.81959533691406 420.69921875 166.96139526367188 446.603759765625 156.51898193359375 447.19976806640625 C 119.65282440185547 455.9306945800781 90.50984954833984 417.061279296875 107.76126861572266 384.48992919921875 C 125.18354034423828 344.1292724609375 209.34011840820312 362.00799560546875 133.6833038330078 386.589599609375 C 123.90031433105469 405.63946533203125 104.95352172851562 412.3589172363281 173.67312622070312 363.99725341796875" stroke-width="0.0" fill="rgb(45, 40, 28)" opacity="1.0" stroke="rgb(176, 65, 191)" stroke-opacity="0.4581402" stroke-linecap="round" stroke-linejoin="round"/>
    <path d="M 383.0506591796875 386.92626953125 C 397.13531494140625 427.1573181152344 362.46319580078125 453.83856201171875 334.9459228515625 447.50347900390625 C 320.90289306640625 446.3314514160156 292.1697998046875 427.9438171386719 300.7440490722656 391.61090087890625 C 351.76904296875 384.881103515625 294.5859069824219 403.4117126464844 339.4053039550781 427.6231994628906 C 390.0933532714844 416.7377624511719 339.28973388671875 383.3168640136719 383.0506591796875 386.92626953125" stroke-width="0.0" fill="rgb(43, 38, 26)" opacity="1.0" stroke="rgb(131, 52, 105)" stroke-opacity="0.28330377" stroke-linecap="round" stroke-linejoin="round"/>
    <path d="M 258.1947937011719 261.5172119140625 C 246.3711395263672 265.9229736328125 276.6226501464844 276.3257141113281 246.99131774902344 273.9526672363281 C 218.69744873046875 284.40545654296875 210.0618896484375 276.39849853515625 223.47142028808594 266.134521484375 C 257.0188293457031 246.9358367919922 223.3638458251953 253.5117645263672 282.6742248535156 238.94825744628906 C 334.0962219238281 221.94076538085938 301.82958984375 266.3144836425781 258.1947937011719 261.5172119140625" stroke-width="0.0" fill="rgb(41, 36, 25)" opacity="0.99600637" stroke="rgb(184, 61, 99)" stroke-opacity="0.45022273" stroke-linecap="round" stroke-linejoin="round"/>
    <path d="M 400.45556640625 320.9365539550781 C 399.97918701171875 323.6216735839844 399.6614990234375 321.6821594238281 339.6506042480469 322.7431335449219 C 341.2274475097656 328.367431640625 280.5679626464844 359.2500305175781 296.1955871582031 297.02593994140625 C 378.6822204589844 226.08804321289062 371.7291259765625 263.184814453125 347.38494873046875 304.519287109375 C 383.9067687988281 307.06201171875 392.04010009765625 299.8652038574219 400.45556640625 320.9365539550781" stroke-width="0.0" fill="rgb(211, 88, 10)" opacity="1.0" stroke="rgb(248, 63, 30)" stroke-opacity="0.527195" stroke-linecap="round" stroke-linejoin="round"/>
    <path d="M 168.13539123535156 403.3950500488281 C 168.93179321289062 416.0015869140625 157.7315673828125 428.158935546875 142.58424377441406 425.8368835449219 C 134.33706665039062 424.0130920410156 127.35944366455078 418.66058349609375 125.02043151855469 408.1617736816406 C 123.26240539550781 391.1842956542969 135.69654846191406 383.1785583496094 146.83050537109375 382.4259338378906 C 159.81117248535156 383.8169860839844 167.60804748535156 392.9910583496094 168.13539123535156 403.3950500488281" stroke-width="0.0" fill="rgb(132, 173, 138)" opacity="0.8788306" stroke="rgb(146, 110, 96)" stroke-opacity="0.7508414" stroke-linecap="round" stroke-linejoin="round"/>
    <path d="M 298.9046936035156 266.83001708984375 C 297.28948974609375 271.1759338378906 295.01849365234375 275.3620910644531 284.0456237792969 273.9394226074219 C 281.542724609375 275.48321533203125 282.11181640625 273.3537902832031 278.57342529296875 259.937255859375 C 276.7152099609375 260.7111511230469 283.0337219238281 258.4281311035156 291.3658142089844 256.9169921875 C 291.8804016113281 253.8328857421875 296.6263732910156 242.87197875976562 298.9046936035156 266.83001708984375" stroke-width="0.0" fill="rgb(255, 249, 228)" opacity="0.94978374" stroke="rgb(105, 142, 40)" stroke-opacity="0.6959049" stroke-linecap="round" stroke-linejoin="round"/>
    <path d="M 242.31869506835938 206.99168395996094 C 247.9065704345703 219.7583770751953 240.56336975097656 241.45330810546875 220.81080627441406 234.76177978515625 C 209.01515197753906 230.2316436767578 203.6908721923828 215.16744995117188 206.1639404296875 207.4009552001953 C 204.01034545898438 199.65890502929688 216.05885314941406 173.9972381591797 238.2978973388672 184.549072265625 C 317.05963134765625 140.5103302001953 351.1808776855469 231.28004455566406 242.31869506835938 206.99168395996094" stroke-width="0.0" fill="rgb(36, 32, 21)" opacity="0.9771039" stroke="rgb(157, 203, 165)" stroke-opacity="0.8467032" stroke-linecap="round" stroke-linejoin="round"/>
    <path d="M 294.6661682128906 342.6055908203125 C 279.3872375488281 386.257080078125 294.4641418457031 373.7914733886719 271.7803649902344 376.26861572265625 C 189.60186767578125 372.4920349121094 204.15513610839844 395.11578369140625 208.1470489501953 315.6745300292969 C 215.8974151611328 394.4046325683594 273.23309326171875 364.4779052734375 259.6955871582031 345.88348388671875 C 295.3796691894531 339.2201843261719 299.8124694824219 342.4196472167969 294.6661682128906 342.6055908203125" stroke-width="0.0" fill="rgb(230, 109, 4)" opacity="0.88124084" stroke="rgb(242, 102, 220)" stroke-opacity="0.335247" stroke-linecap="round" stroke-linejoin="round"/>
    <path d="M 294.2010498046875 119.57759094238281 C 288.82379150390625 124.48233032226562 317.1917724609375 112.85413360595703 308.41754150390625 136.73435974121094 C 211.1353759765625 149.33998107910156 256.9449768066406 108.00090789794922 263.5186767578125 123.99635314941406 C 264.4351806640625 89.59252166748047 259.3988342285156 91.55052947998047 278.0367431640625 91.46585845947266 C 298.3529357910156 91.0484390258789 293.4922790527344 89.8537368774414 294.2010498046875 119.57759094238281" stroke-width="0.0" fill="rgb(180, 36, 10)" opacity="0.96120316" stroke="rgb(235, 84, 31)" stroke-opacity="0.62372607" stroke-linecap="round" stroke-linejoin="round"/>
  </g>
</svg>
