<?xml version="1.0" ?>
<svg xmlns="http://www.w3.org/2000/svg" version="1.1" width="512" height="512">
  <defs/>
  <g>
    <path d="M 203.34878540039062 299.4057922363281 C 235.10630798339844 393.234130859375 256.8600769042969 422.158203125 166.16262817382812 357.3981018066406 C 121.57079315185547 352.5610656738281 145.23048400878906 374.771240234375 133.87588500976562 309.36602783203125 C 188.41734313964844 198.168701171875 237.66940307617188 291.00384521484375 354.0043029785156 200.95480346679688 C 353.8537292480469 431.0914611816406 351.0506286621094 259.54022216796875 203.34878540039062 299.4057922363281" stroke-width="0.0" fill="rgb(133, 84, 0)" opacity="0.6771777" stroke="rgb(178, 101, 20)" stroke-opacity="0.96374935" stroke-linecap="round" stroke-linejoin="round"/>
    <path d="M 230.9279327392578 241.58627319335938 C 227.53990173339844 256.09149169921875 253.06356811523438 245.63253784179688 232.61166381835938 260.1895446777344 C 200.50425720214844 245.382080078125 210.71246337890625 238.00442504882812 74.50678253173828 210.9547882080078 C 70.33724212646484 72.50126647949219 151.28277587890625 145.85707092285156 209.20506286621094 234.25193786621094 C 236.3746337890625 232.22601318359375 226.0463409423828 240.83782958984375 230.9279327392578 241.58627319335938" stroke-width="0.0" fill="rgb(255, 255, 226)" opacity="0.7314352" stroke="rgb(41, 48, 155)" stroke-opacity="0.21345732" stroke-linecap="round" stroke-linejoin="round"/>
    <path d="M 370.65631103515625 168.48187255859375 C 279.6451416015625 318.6995544433594 297.65399169921875 253.7102813720703 298.2184753417969 222.9891357421875 C 293.20758056640625 212.68820190429688 251.05125427246094 190.2545928955078 230.14622497558594 253.14614868164062 C 128.12710571289062 113.451171875 280.3432312011719 187.76988220214844 271.1151123046875 54.88401794433594 C 319.5412292480469 61.891693115234375 235.0147247314453 98.50296020507812 370.65631103515625 168.48187255859375" stroke-width="0.0" fill="rgb(111, 50, 0)" opacity="0.6668435" stroke="rgb(163, 34, 221)" stroke-opacity="0.95677835" stroke-linecap="round" stroke-linejoin="round"/>
  </g>
</svg>
