<?xml version="1.0" ?>
<svg xmlns="http://www.w3.org/2000/svg" version="1.1" width="512" height="512">
  <defs/>
  <g>
    <path d="M 521.9307250976562 378.4322204589844 C 532.9981689453125 419.85833740234375 560.823486328125 426.408447265625 469.8918762207031 425.5291748046875 C 464.809814453125 349.710205078125 458.7491760253906 394.7583312988281 499.7713928222656 383.5148010253906 C 448.86651611328125 310.1329650878906 519.4138793945312 341.24554443359375 424.9200134277344 170.48634338378906 C 641.2040405273438 180.02674865722656 544.808349609375 270.2923889160156 521.9307250976562 378.4322204589844" stroke-width="0.0" fill="rgb(55, 90, 153)" opacity="0.5537018" stroke="rgb(103, 195, 245)" stroke-opacity="0.549224" stroke-linecap="round" stroke-linejoin="round"/>
    <path d="M 494.0 112.0 C 493.33013916015625 114.5 491.5 116.33012390136719 489.0 117.0 C 486.5 116.33012390136719 484.66986083984375 114.5 484.0 112.0 C 484.66986083984375 109.5 486.5 107.66987609863281 489.0 107.0 C 491.5 107.66987609863281 493.33013916015625 109.5 494.0 112.0" stroke-width="0.0" fill="rgb(79, 139, 215)" opacity="1.0" stroke="rgb(125, 24, 6)" stroke-opacity="0.92294955" stroke-linecap="round" stroke-linejoin="round"/>
    <path d="M 229.0 61.0 C 228.3301239013672 63.5 226.5 65.33012390136719 224.0 66.0 C 221.5 65.33012390136719 219.6698760986328 63.5 219.0 61.0 C 219.6698760986328 58.5 221.5 56.66987228393555 224.0 56.0 C 226.5 56.66987228393555 228.3301239013672 58.5 229.0 61.0" stroke-width="0.0" fill="rgb(79, 139, 215)" opacity="1.0" stroke="rgb(27, 136, 28)" stroke-opacity="0.9867076" stroke-linecap="round" stroke-linejoin="round"/>
  </g>
</svg>
