<?xml version="1.0" ?>
<svg xmlns="http://www.w3.org/2000/svg" version="1.1" width="508" height="512">
  <defs/>
  <g>
    <path d="M -0.7288026809692383 -0.7330017685890198 L 508.0002136230469 -0.7304297089576721 L 508.0 512.0 L -0.7513654828071594 512.0 L -0.7288026809692383 -0.7330017685890198" stroke-width="0.0" fill="rgb(215, 213, 207)" opacity="2.4879029" stroke="rgb(0, 0, 0)" stroke-opacity="0.0" stroke-linecap="round" stroke-linejoin="round"/>
    <path d="M 5.656575679779053 8.004974365234375 L 5.722842693328857 158.07972717285156 L 5.83057165145874 164.58724975585938 L 97.23037719726562 163.49099731445312 C 98.53115844726562 154.09829711914062 92.74078369140625 145.28453063964844 102.78038024902344 146.54904174804688 C 106.99654388427734 134.29771423339844 96.27045440673828 121.12063598632812 109.79805755615234 121.07050323486328 C 113.50670623779297 102.84815216064453 109.47269439697266 87.13066864013672 114.07218170166016 70.4247817993164 L 124.55950164794922 62.11983871459961 C 121.71259307861328 60.451961517333984 121.9097671508789 47.60935592651367 121.40496063232422 58.324317932128906 L 127.43174743652344 65.80868530273438 L 127.46028137207031 82.53497314453125 L 127.24894714355469 139.61924743652344 C 133.89410400390625 135.41448974609375 125.54005432128906 136.29930114746094 127.12361907958984 161.5849151611328 C 142.2427978515625 163.1114501953125 143.3912811279297 166.37875366210938 145.5450439453125 165.48069763183594 L 263.6042785644531 164.98109436035156 L 267.721435546875 154.7097930908203 C 270.2901611328125 146.2759246826172 278.2951965332031 139.16452026367188 284.79852294921875 130.1842498779297 L 286.67431640625 135.71519470214844 C 290.1311950683594 143.73072814941406 283.994140625 153.37667846679688 294.0409851074219 162.8380126953125 L 315.7445983886719 162.63746643066406 C 317.15069580078125 153.8661346435547 323.30499267578125 145.7519989013672 333.053955078125 138.2727508544922 L 353.98388671875 127.63121795654297 C 356.17071533203125 121.72969818115234 351.5632019042969 115.69078826904297 354.3426818847656 120.87531280517578 C 355.0484924316406 117.5656509399414 353.1864318847656 123.43798828125 355.9340515136719 128.7057647705078 C 370.4698486328125 131.46299743652344 382.5230712890625 139.44320678710938 388.9721984863281 149.76055908203125 L 392.97406005859375 162.75782775878906 L 502.2220458984375 162.63674926757812 L 502.3498229980469 8.007545471191406 L 5.656575679779053 8.004974365234375" stroke-width="2.0" fill="rgb(207, 209, 203)" opacity="1.5653521" stroke="rgb(0, 0, 0)" stroke-opacity="0.0" stroke-linecap="round" stroke-linejoin="round"/>
    <path d="M 6.370784282684326 424.3082580566406 L 5.017003536224365 504.9974060058594 L 428.7253723144531 505.0040588378906 L 428.8011474609375 500.01409912109375 L 486.66888427734375 500.0094909667969 L 487.3185729980469 504.9960632324219 L 503.0172119140625 505.0081481933594 L 501.4457092285156 431.0252380371094 L 498.0060119628906 426.2357177734375 L 232.299560546875 426.6598205566406 L 232.64329528808594 418.5617980957031 L 86.10609436035156 418.51007080078125 L 86.77613830566406 430.48846435546875 L 59.466217041015625 430.443359375 C 55.240997314453125 423.5867004394531 56.434688568115234 418.42681884765625 49.99592208862305 424.62744140625 C 44.00102233886719 412.8766174316406 42.285335540771484 422.86309814453125 36.04806900024414 421.60321044921875 L 9.461527824401855 421.7071228027344 L 6.370784282684326 424.3082580566406" stroke-width="2.0" fill="rgb(113, 149, 162)" opacity="0.97827584" stroke="rgb(0, 0, 0)" stroke-opacity="0.0" stroke-linecap="round" stroke-linejoin="round"/>
    <path d="M 259.4400634765625 257.7189025878906 L 204.51893615722656 267.7174072265625 C 191.83837890625 245.56199645996094 181.1631622314453 251.32760620117188 170.1089630126953 250.47764587402344 L 169.72203063964844 256.23486328125 L 169.61387634277344 287.3961181640625 L 169.27398681640625 296.394287109375 C 157.14608764648438 289.19873046875 146.17318725585938 294.17901611328125 133.43983459472656 292.31103515625 L 132.25265502929688 302.9505615234375 L 118.86376190185547 303.0444641113281 L 104.2204360961914 280.7615661621094 C 90.485595703125 273.9020690917969 77.81680297851562 272.5830993652344 55.25999069213867 280.990478515625 L 65.88793182373047 315.17999267578125 L 35.12876510620117 319.68072509765625 C 37.32310485839844 309.4183654785156 34.06731033325195 306.69384765625 29.839675903320312 307.3064270019531 L 4.7492265701293945 308.8684997558594 L 9.181402206420898 388.419921875 L 14.201388359069824 389.2291259765625 L 16.173030853271484 384.7859802246094 C 15.266796112060547 389.6556701660156 10.56718635559082 390.8860168457031 8.944369316101074 386.5508728027344 C 7.153531551361084 376.70458984375 13.213020324707031 368.207275390625 12.904797554016113 354.4846496582031 C 13.552085876464844 351.5122375488281 24.74120330810547 346.24664306640625 21.051979064941406 368.78192138671875 L 43.35074996948242 349.8333435058594 L 41.81635284423828 400.8677673339844 L 241.705322265625 400.0550537109375 L 241.25796508789062 327.1359558105469 C 247.6415252685547 317.4186706542969 258.7278747558594 324.02880859375 270.20086669921875 318.0003662109375 L 267.6750183105469 281.9001770019531 C 250.54733276367188 283.6971740722656 260.7254943847656 265.87322998046875 259.4400634765625 257.7189025878906" stroke-width="2.0" fill="rgb(149, 176, 184)" opacity="1.0590377" stroke="rgb(0, 0, 0)" stroke-opacity="0.0" stroke-linecap="round" stroke-linejoin="round"/>
    <path d="M 98.32247924804688 163.4362030029297 L 5.792511463165283 163.42242431640625 L 5.6497907638549805 309.0631408691406 C 17.63880157470703 305.9957275390625 30.038557052612305 313.06396484375 37.04452133178711 303.229248046875 L 54.329402923583984 302.88555908203125 L 58.603355407714844 291.00433349609375 C 65.78096008300781 279.7708435058594 75.43716430664062 276.4246520996094 86.14334106445312 275.4173278808594 L 98.1617202758789 276.80804443359375 L 98.32247924804688 163.4362030029297" stroke-width="2.0" fill="rgb(228, 192, 170)" opacity="1.0276972" stroke="rgb(0, 0, 0)" stroke-opacity="0.0" stroke-linecap="round" stroke-linejoin="round"/>
    <path d="M 126.21820831298828 50.19422912597656 L 120.53308868408203 77.0914306640625 L 111.9938735961914 119.71659851074219 L 103.17491149902344 124.31965637207031 L 103.97103881835938 144.22161865234375 L 107.34661865234375 145.69580078125 L 113.1004409790039 268.1058654785156 L 124.84042358398438 276.45068359375 L 128.26182556152344 294.9872741699219 L 126.4583740234375 296.4798889160156 L 127.68732452392578 283.2494812011719 C 142.64935302734375 283.8004455566406 154.49134826660156 279.4220275878906 164.3426513671875 286.4930725097656 L 163.424072265625 289.12353515625 L 157.3998565673828 252.380615234375 L 154.9361572265625 250.2354736328125 L 154.2455596923828 150.70106506347656 L 148.47576904296875 150.49349975585938 L 148.74758911132812 121.94453430175781 L 140.26272583007812 121.99312591552734 L 140.4374542236328 77.4664306640625 C 137.11508178710938 67.54747009277344 126.54264068603516 64.1207504272461 126.21820831298828 50.19422912597656" stroke-width="2.0" fill="rgb(-216, -258, -178)" opacity="0.048166424" stroke="rgb(0, 0, 0)" stroke-opacity="0.0" stroke-linecap="round" stroke-linejoin="round"/>
    <path d="M 153.62115478515625 163.37344360351562 L 152.97354125976562 251.64010620117188 L 264.5461120605469 251.50106811523438 L 264.62493896484375 163.40093994140625 L 153.62115478515625 163.37344360351562" stroke-width="2.0" fill="rgb(222, 200, 184)" opacity="1.2196329" stroke="rgb(0, 0, 0)" stroke-opacity="0.0" stroke-linecap="round" stroke-linejoin="round"/>
    <path d="M 210.09024047851562 251.80490112304688 L 218.15145874023438 304.3371276855469 L 197.13803100585938 305.6466979980469 L 198.69351196289062 399.7789001464844 L 241.56076049804688 399.7178955078125 L 244.91329956054688 326.6839294433594 L 269.8589782714844 325.754638671875 L 266.914794921875 286.70831298828125 L 258.8493957519531 281.9143371582031 L 258.8201904296875 251.7713165283203 L 210.09024047851562 251.80490112304688" stroke-width="2.0" fill="rgb(89, 144, 170)" opacity="0.90047026" stroke="rgb(0, 0, 0)" stroke-opacity="0.0" stroke-linecap="round" stroke-linejoin="round"/>
    <path d="M 449.9423522949219 290.5591735839844 L 439.850341796875 302.00030517578125 L 426.6303405761719 302.86492919921875 L 431.8018798828125 408.613037109375 L 431.8920593261719 408.5235900878906 L 430.0265808105469 388.5986022949219 C 432.2471923828125 385.4028625488281 428.0194396972656 377.96630859375 434.8827819824219 377.227783203125 C 436.4070739746094 382.9739685058594 446.5184326171875 389.3665466308594 442.4889221191406 393.612060546875 L 442.8768615722656 405.5887756347656 L 475.03509521484375 409.13177490234375 C 480.5849914550781 400.0224609375 470.3249816894531 387.4049377441406 479.7883605957031 379.05780029296875 L 481.02435302734375 410.9174499511719 L 502.4541015625 411.62530517578125 L 502.508544921875 399.45574951171875 L 502.4420166015625 297.77880859375 L 449.9423522949219 290.5591735839844" stroke-width="2.0" fill="rgb(158, 158, 161)" opacity="1.3758402" stroke="rgb(0, 0, 0)" stroke-opacity="0.0" stroke-linecap="round" stroke-linejoin="round"/>
    <path d="M 396.72552490234375 164.32772827148438 L 393.88494873046875 201.1462860107422 L 395.3501892089844 213.5694122314453 L 439.15521240234375 213.9470977783203 C 446.1120300292969 219.29046630859375 451.544189453125 210.5753173828125 455.3129577636719 211.38656616210938 L 454.1307373046875 249.82908630371094 L 460.0928039550781 263.17034912109375 L 494.0215148925781 264.0829772949219 L 502.1580810546875 267.3421630859375 L 502.2742614746094 185.4306640625 L 502.00360107421875 164.44232177734375 L 396.72552490234375 164.32772827148438" stroke-width="2.0" fill="rgb(231, 188, 163)" opacity="0.9609611" stroke="rgb(0, 0, 0)" stroke-opacity="0.0" stroke-linecap="round" stroke-linejoin="round"/>
    <path d="M 269.4886779785156 324.4148864746094 L 241.401611328125 324.45770263671875 L 240.559326171875 386.52764892578125 L 240.77169799804688 400.43701171875 L 5.4936089515686035 400.76934814453125 L 5.531907081604004 411.8795166015625 C 12.965038299560547 409.8681640625 20.174606323242188 415.2631530761719 20.21017074584961 423.19384765625 L 40.456787109375 423.1301574707031 L 44.69112014770508 414.5665283203125 C 54.504940032958984 406.0720520019531 63.7646484375 415.1865234375 63.439571380615234 423.90264892578125 C 74.65929412841797 422.0271911621094 87.28860473632812 426.0636291503906 88.27703094482422 420.0317687988281 L 235.2539520263672 420.5442199707031 L 236.3985595703125 412.8985290527344 L 248.82289123535156 412.6886901855469 L 248.86813354492188 351.44866943359375 L 269.6877136230469 351.2400207519531 L 269.4886779785156 324.4148864746094" stroke-width="2.0" fill="rgb(49, 50, 68)" opacity="1.0134215" stroke="rgb(0, 0, 0)" stroke-opacity="0.0" stroke-linecap="round" stroke-linejoin="round"/>
    <path d="M 144.10418701171875 306.6492614746094 L 144.3509521484375 358.31658935546875 L 132.8098907470703 358.6825256347656 L 132.5453643798828 400.8726501464844 L 141.80245971679688 400.8177185058594 L 142.00123596191406 373.405029296875 C 127.8531265258789 381.6251220703125 141.086181640625 368.25518798828125 143.19517517089844 367.46563720703125 L 153.20111083984375 375.6176452636719 L 144.9130096435547 374.2192077636719 L 144.9253692626953 401.1730041503906 L 167.4104461669922 401.1829833984375 L 170.6698760986328 374.96875 L 172.6681671142578 401.2391662597656 L 196.83993530273438 401.17303466796875 L 197.4605712890625 307.355712890625 L 144.10418701171875 306.6492614746094" stroke-width="2.0" fill="rgb(308, 274, 243)" opacity="0.51106465" stroke="rgb(0, 0, 0)" stroke-opacity="0.0" stroke-linecap="round" stroke-linejoin="round"/>
    <path d="M 236.30545043945312 425.2164611816406 L 233.76039123535156 430.87335205078125 L 502.49420166015625 430.8641052246094 L 502.4747314453125 419.4552917480469 L 239.9259796142578 419.5635986328125 L 236.30545043945312 425.2164611816406" stroke-width="2.0" fill="rgb(39, 38, 58)" opacity="0.99812686" stroke="rgb(0, 0, 0)" stroke-opacity="0.0" stroke-linecap="round" stroke-linejoin="round"/>
    <path d="M 457.3380126953125 211.2862091064453 L 447.0302734375 215.89280700683594 C 443.6718444824219 218.67262268066406 438.8734436035156 206.37074279785156 436.98236083984375 213.67141723632812 L 377.37152099609375 213.31874084472656 L 377.38507080078125 251.1889190673828 C 384.7577819824219 255.41348266601562 387.7996826171875 263.7572021484375 387.7461242675781 268.521728515625 L 365.505126953125 268.4624938964844 L 365.4656982421875 292.50030517578125 L 401.899169921875 292.9739990234375 L 402.1573486328125 264.83489990234375 L 457.4183044433594 263.6719055175781 L 457.3380126953125 211.2862091064453" stroke-width="2.0" fill="rgb(39, 44, 66)" opacity="0.9787134" stroke="rgb(0, 0, 0)" stroke-opacity="0.0" stroke-linecap="round" stroke-linejoin="round"/>
    <path d="M 365.6595458984375 282.0743713378906 L 363.45037841796875 369.0957336425781 L 438.12451171875 368.8014221191406 L 442.5138854980469 297.00567626953125 L 365.6595458984375 282.0743713378906" stroke-width="2.0" fill="rgb(80, 71, 81)" opacity="0.45044038" stroke="rgb(0, 0, 0)" stroke-opacity="0.0" stroke-linecap="round" stroke-linejoin="round"/>
    <path d="M 425.4178161621094 330.3261413574219 L 424.21673583984375 335.0545349121094 L 425.01727294921875 411.8150329589844 C 436.1072692871094 416.54974365234375 431.0679626464844 401.53802490234375 433.1826477050781 394.8938293457031 L 431.04974365234375 389.7759704589844 L 435.3080139160156 378.2920837402344 L 440.6177978515625 390.61224365234375 C 436.0069885253906 395.62481689453125 439.0462951660156 403.3701171875 437.92938232421875 412.3211669921875 L 466.59234619140625 411.8589782714844 L 466.9870910644531 330.3483581542969 L 425.4178161621094 330.3261413574219" stroke-width="2.0" fill="rgb(362, 350, 312)" opacity="0.39322764" stroke="rgb(0, 0, 0)" stroke-opacity="0.0" stroke-linecap="round" stroke-linejoin="round"/>
    <path d="M 400.73638916015625 262.59765625 L 404.4589538574219 296.6549072265625 L 496.6817321777344 314.1322937011719 L 496.6119079589844 262.3941955566406 L 400.73638916015625 262.59765625" stroke-width="2.0" fill="rgb(53, 56, 75)" opacity="1.0216845" stroke="rgb(0, 0, 0)" stroke-opacity="0.0" stroke-linecap="round" stroke-linejoin="round"/>
    <path d="M 465.3380126953125 331.31866455078125 L 465.2501220703125 411.5766906738281 L 477.1560974121094 411.2956848144531 L 476.834228515625 377.8269348144531 L 476.450439453125 411.6755676269531 L 497.8654479980469 411.0898742675781 L 497.7022705078125 330.8423156738281 L 465.3380126953125 331.31866455078125" stroke-width="2.0" fill="rgb(92, 144, 170)" opacity="1.1250644" stroke="rgb(0, 0, 0)" stroke-opacity="0.0" stroke-linecap="round" stroke-linejoin="round"/>
    <path d="M 364.8232421875 126.33013916015625 C 354.2746887207031 116.5682144165039 342.883544921875 128.9316864013672 332.8877868652344 138.4975128173828 C 316.0151062011719 150.68359375 314.8609313964844 162.9412841796875 315.32781982421875 177.05731201171875 L 374.16595458984375 180.72500610351562 L 374.452880859375 150.62196350097656 L 364.8232421875 126.33013916015625" stroke-width="2.0" fill="rgb(126, 170, 185)" opacity="1.096801" stroke="rgb(0, 0, 0)" stroke-opacity="0.0" stroke-linecap="round" stroke-linejoin="round"/>
    <path d="M 373.39276123046875 322.6036071777344 L 371.2925720214844 369.11798095703125 L 425.6274108886719 369.2098388671875 L 426.4537048339844 322.4035949707031 L 373.39276123046875 322.6036071777344" stroke-width="2.0" fill="rgb(266, 195, 155)" opacity="0.67068744" stroke="rgb(0, 0, 0)" stroke-opacity="0.0" stroke-linecap="round" stroke-linejoin="round"/>
    <path d="M 127.60894775390625 166.3902587890625 L 127.63651275634766 251.63876342773438 L 153.58676147460938 251.6680145263672 L 153.5699462890625 166.17849731445312 L 127.60894775390625 166.3902587890625" stroke-width="2.0" fill="rgb(66, 67, 82)" opacity="1.0525651" stroke="rgb(0, 0, 0)" stroke-opacity="0.0" stroke-linecap="round" stroke-linejoin="round"/>
    <path d="M 270.3911437988281 45.63564682006836 C 248.90090942382812 58.0882682800293 253.56495666503906 84.40777587890625 273.2899475097656 91.88460540771484 C 286.7247009277344 96.99263000488281 303.69842529296875 89.26438903808594 307.4049377441406 73.36933135986328 C 308.41650390625 64.0134506225586 307.4552917480469 55.72321319580078 295.7853698730469 46.99332809448242 C 288.13250732421875 42.05165481567383 279.12451171875 42.189422607421875 270.3911437988281 45.63564682006836" stroke-width="2.0" fill="rgb(253, 245, 228)" opacity="1.0044272" stroke="rgb(0, 0, 0)" stroke-opacity="0.0" stroke-linecap="round" stroke-linejoin="round"/>
    <path d="M 280.5461730957031 127.02049255371094 C 277.90350341796875 133.6869659423828 281.3279113769531 144.33444213867188 279.8752746582031 175.26487731933594 L 280.6808166503906 184.27786254882812 L 271.34259033203125 208.9188995361328 L 275.26116943359375 200.9231719970703 C 275.807373046875 188.9850616455078 284.0240783691406 191.6611328125 278.6301574707031 215.25531005859375 L 284.6220703125 210.21615600585938 C 290.8985900878906 216.57972717285156 290.7128601074219 217.67999267578125 294.562255859375 211.92874145507812 L 294.2913818359375 161.87913513183594 L 288.7424011230469 161.61282348632812 C 287.93408203125 148.5747528076172 291.9331359863281 135.2228546142578 280.5461730957031 127.02049255371094" stroke-width="2.0" fill="rgb(67, 68, 83)" opacity="1.0453463" stroke="rgb(0, 0, 0)" stroke-opacity="0.0" stroke-linecap="round" stroke-linejoin="round"/>
    <path d="M 169.6363067626953 253.76629638671875 L 174.2123565673828 306.281005859375 L 210.5543212890625 306.7949523925781 L 207.3961639404297 274.5984802246094 L 194.6727294921875 252.04412841796875 L 169.6363067626953 253.76629638671875" stroke-width="2.0" fill="rgb(40, 40, 63)" opacity="0.95615345" stroke="rgb(0, 0, 0)" stroke-opacity="0.0" stroke-linecap="round" stroke-linejoin="round"/>
    <path d="M 329.220703125 306.4899597167969 L 303.2973937988281 369.5920715332031 L 373.739990234375 369.5683288574219 L 373.6402282714844 306.3723449707031 L 329.220703125 306.4899597167969" stroke-width="2.0" fill="rgb(-266, -153, -69)" opacity="0.43998656" stroke="rgb(0, 0, 0)" stroke-opacity="0.0" stroke-linecap="round" stroke-linejoin="round"/>
    <path d="M 401.3056335449219 262.6238708496094 L 401.1363525390625 304.5235900878906 L 458.6062927246094 291.0207824707031 L 458.5835266113281 262.43536376953125 L 401.3056335449219 262.6238708496094" stroke-width="2.0" fill="rgb(284, 273, 250)" opacity="0.71661884" stroke="rgb(0, 0, 0)" stroke-opacity="0.0" stroke-linecap="round" stroke-linejoin="round"/>
    <path d="M 379.0140686035156 369.20294189453125 L 379.6255187988281 413.5630798339844 C 382.4919738769531 407.7652587890625 380.3533630371094 406.70147705078125 388.17724609375 395.13800048828125 L 390.7664489746094 411.7127380371094 L 414.88446044921875 411.6271667480469 L 415.554931640625 391.47039794921875 L 409.837158203125 391.0583801269531 L 415.6643981933594 384.5067443847656 L 420.9790954589844 390.9157409667969 C 411.0497131347656 389.4061584472656 416.7774353027344 400.43768310546875 414.6327819824219 411.8348083496094 L 425.6861572265625 411.4142761230469 L 425.7696228027344 368.8152160644531 L 379.0140686035156 369.20294189453125" stroke-width="2.0" fill="rgb(75, 86, 101)" opacity="1.020908" stroke="rgb(0, 0, 0)" stroke-opacity="0.0" stroke-linecap="round" stroke-linejoin="round"/>
    <path d="M 356.9395751953125 129.48867797851562 C 367.8387756347656 135.6869659423828 370.69622802734375 144.2639923095703 374.32891845703125 158.65977478027344 L 374.62786865234375 211.5854949951172 L 377.326171875 215.48602294921875 L 394.78082275390625 213.75230407714844 L 394.6411437988281 165.5533447265625 C 390.1881408691406 142.63685607910156 373.1363830566406 130.60719299316406 356.9395751953125 129.48867797851562" stroke-width="2.0" fill="rgb(43, 46, 65)" opacity="0.99646544" stroke="rgb(0, 0, 0)" stroke-opacity="0.0" stroke-linecap="round" stroke-linejoin="round"/>
    <path d="M 459.3979797363281 295.5718688964844 L 459.3701171875 331.471923828125 L 502.5215759277344 330.7386169433594 L 502.4617919921875 295.72698974609375 L 459.3979797363281 295.5718688964844" stroke-width="2.0" fill="rgb(198, 194, 186)" opacity="1.3127723" stroke="rgb(0, 0, 0)" stroke-opacity="0.0" stroke-linecap="round" stroke-linejoin="round"/>
    <path d="M 65.43630981445312 298.64373779296875 L 68.75727081298828 296.34808349609375 L 117.39990234375 306.32611083984375 C 118.15619659423828 290.14215087890625 101.67425537109375 274.72137451171875 86.43659973144531 276.4665222167969 C 93.07967376708984 289.8304443359375 73.87721252441406 298.6513671875 65.43630981445312 298.64373779296875" stroke-width="2.0" fill="rgb(60, 72, 91)" opacity="1.0555016" stroke="rgb(0, 0, 0)" stroke-opacity="0.0" stroke-linecap="round" stroke-linejoin="round"/>
    <path d="M 169.0040740966797 252.4677276611328 L 170.6822509765625 306.1817626953125 L 192.0694580078125 306.4870910644531 L 192.41220092773438 252.34970092773438 L 169.0040740966797 252.4677276611328" stroke-width="2.0" fill="rgb(102, 167, 194)" opacity="0.89157164" stroke="rgb(0, 0, 0)" stroke-opacity="0.0" stroke-linecap="round" stroke-linejoin="round"/>
    <path d="M 353.9421691894531 90.25424194335938 L 434.3438720703125 90.31236267089844 L 413.24542236328125 81.02603149414062 C 403.24169921875 84.80240631103516 412.38165283203125 75.33668518066406 405.6901550292969 68.88287353515625 C 393.8370361328125 53.868473052978516 372.0095520019531 66.59300231933594 374.989013671875 81.90511322021484 C 366.09423828125 79.72117614746094 361.2614440917969 81.49481964111328 353.9421691894531 90.25424194335938" stroke-width="2.0" fill="rgb(250, 242, 222)" opacity="1.0160037" stroke="rgb(0, 0, 0)" stroke-opacity="0.0" stroke-linecap="round" stroke-linejoin="round"/>
  </g>
</svg>
