<?xml version="1.0" ?>
<svg xmlns="http://www.w3.org/2000/svg" version="1.1" width="512" height="359">
  <defs/>
  <g>
    <path d="M 271.0122375488281 341.6611328125 C 135.15663146972656 273.6044006347656 249.44784545898438 123.4031982421875 136.35452270507812 125.98628997802734 C 143.96714782714844 275.50982666015625 53.02702331542969 288.1106262207031 75.68408203125 52.59489059448242 C 98.30542755126953 47.341331481933594 122.88837432861328 43.468955993652344 245.3828582763672 20.15027618408203 C 274.28057861328125 21.326744079589844 278.9015808105469 -44.44045639038086 271.0122375488281 341.6611328125" stroke-width="0.0" fill="rgb(38, 113, 74)" opacity="0.88971317" stroke="rgb(215, 125, 141)" stroke-opacity="0.7351484" stroke-linecap="round" stroke-linejoin="round"/>
    <path d="M 280.0 45.0 C 279.33013916015625 47.5 277.5 49.33012771606445 275.0 50.0 C 272.5 49.33012771606445 270.66986083984375 47.5 270.0 45.0 C 270.66986083984375 42.5 272.5 40.66987228393555 275.0 40.0 C 277.5 40.66987228393555 279.33013916015625 42.5 280.0 45.0" stroke-width="0.0" fill="rgb(255, 255, 255)" opacity="1.0" stroke="rgb(232, 145, 250)" stroke-opacity="0.08685491" stroke-linecap="round" stroke-linejoin="round"/>
    <path d="M 363.0 164.0 C 362.33013916015625 166.5 360.5 168.3301239013672 358.0 169.0 C 355.5 168.3301239013672 353.66986083984375 166.5 353.0 164.0 C 353.66986083984375 161.5 355.5 159.6698760986328 358.0 159.0 C 360.5 159.6698760986328 362.33013916015625 161.5 363.0 164.0" stroke-width="0.0" fill="rgb(255, 255, 255)" opacity="1.0" stroke="rgb(66, 14, 85)" stroke-opacity="0.34752163" stroke-linecap="round" stroke-linejoin="round"/>
  </g>
</svg>
