<?xml version="1.0" ?>
<svg xmlns="http://www.w3.org/2000/svg" version="1.1" width="512" height="359">
  <defs/>
  <g>
    <path d="M 270.3021545410156 349.06488037109375 C 113.37832641601562 290.635498046875 247.0016632080078 112.14290618896484 124.72654724121094 125.07991027832031 C 192.7012939453125 294.88916015625 39.60142517089844 345.10479736328125 72.47846221923828 53.235660552978516 C 98.1014404296875 47.457950592041016 122.93067932128906 43.52405548095703 274.5484619140625 15.467977523803711 C 266.3349609375 20.818363189697266 280.353515625 -44.51897430419922 270.3021545410156 349.06488037109375" stroke-width="0.0" fill="rgb(18, 102, 59)" opacity="0.6219555" stroke="rgb(215, 125, 141)" stroke-opacity="0.7351484" stroke-linecap="round" stroke-linejoin="round"/>
    <path d="M 522.1832275390625 47.98767852783203 C 314.26922607421875 48.017486572265625 282.1650390625 47.974273681640625 280.0664367675781 47.9908332824707 C 267.1026611328125 50.16554260253906 274.0895080566406 48.57880401611328 271.4635925292969 28.80666160583496 C 280.1119079589844 -12.761571884155273 229.6492462158203 56.61325454711914 119.38585662841797 8.619532585144043 C 422.58404541015625 -57.254390716552734 484.44891357421875 -124.98953247070312 522.1832275390625 47.98767852783203" stroke-width="0.0" fill="rgb(255, 255, 255)" opacity="0.99499077" stroke="rgb(232, 145, 250)" stroke-opacity="0.08685491" stroke-linecap="round" stroke-linejoin="round"/>
    <path d="M 408.495849609375 166.7593231201172 C 388.513671875 167.193603515625 375.1578063964844 166.86131286621094 327.2767333984375 167.0498504638672 C 408.0616149902344 171.1559295654297 328.42535400390625 166.31033325195312 271.68280029296875 167.69361877441406 C 276.90057373046875 150.51776123046875 242.75379943847656 156.64743041992188 389.17657470703125 155.21864318847656 C 377.6004943847656 55.023460388183594 420.30670166015625 2.6735119819641113 408.495849609375 166.7593231201172" stroke-width="0.0" fill="rgb(255, 255, 255)" opacity="0.99068594" stroke="rgb(66, 14, 85)" stroke-opacity="0.34752163" stroke-linecap="round" stroke-linejoin="round"/>
    <path d="M 521.6898803710938 314.7007141113281 C 496.7394714355469 478.94256591796875 439.0518798828125 391.0234069824219 247.28038024902344 354.8963317871094 C 281.1144104003906 335.2813415527344 267.2094421386719 361.5205078125 271.90869140625 346.7074890136719 C 270.9945983886719 303.3994140625 273.57354736328125 308.3360900878906 271.8598937988281 316.0047302246094 C 269.788818359375 314.4740295410156 271.8171081542969 315.9712219238281 521.6898803710938 314.7007141113281" stroke-width="0.0" fill="rgb(255, 255, 255)" opacity="0.99303347" stroke="rgb(110, 231, 174)" stroke-opacity="0.29299298" stroke-linecap="round" stroke-linejoin="round"/>
    <path d="M 335.1778564453125 280.7923889160156 C 279.3198547363281 290.21392822265625 411.84283447265625 262.8073425292969 410.3957824707031 298.8286437988281 C 193.88406372070312 315.7252197265625 283.08026123046875 267.466064453125 320.1871643066406 282.2566223144531 C 320.26025390625 258.3771057128906 320.22076416015625 259.50390625 320.2987976074219 124.34783935546875 C 342.8623046875 124.62736511230469 327.53155517578125 292.9972229003906 335.1778564453125 280.7923889160156" stroke-width="0.0" fill="rgb(255, 255, 255)" opacity="0.9696954" stroke="rgb(7, 21, 144)" stroke-opacity="0.74298483" stroke-linecap="round" stroke-linejoin="round"/>
    <path d="M 177.46864318847656 178.87608337402344 C 240.2726593017578 274.9413757324219 176.9034423828125 227.9278106689453 168.7144012451172 227.44544982910156 C 108.92122650146484 239.96951293945312 118.19805908203125 241.64288330078125 151.27468872070312 177.90174865722656 C 103.30628204345703 107.24478149414062 154.13433837890625 108.57328796386719 165.3257598876953 168.5462646484375 C 177.57667541503906 107.1361083984375 235.58644104003906 95.17308044433594 177.46864318847656 178.87608337402344" stroke-width="0.0" fill="rgb(255, 255, 255)" opacity="0.9799229" stroke="rgb(168, 59, 55)" stroke-opacity="0.13983247" stroke-linecap="round" stroke-linejoin="round"/>
    <path d="M 332.8452453613281 83.76361083984375 C 332.24261474609375 156.19581604003906 337.4660949707031 175.9925079345703 321.965087890625 167.25958251953125 C 317.1766357421875 82.74369812011719 324.0585021972656 82.65721130371094 316.09442138671875 82.77716064453125 C 268.39923095703125 90.66773223876953 210.0861358642578 50.73606872558594 409.818603515625 64.1059799194336 C 413.7522277832031 95.41571807861328 404.54095458984375 79.3316421508789 332.8452453613281 83.76361083984375" stroke-width="0.0" fill="rgb(255, 255, 255)" opacity="0.9785679" stroke="rgb(156, 162, 194)" stroke-opacity="0.33360702" stroke-linecap="round" stroke-linejoin="round"/>
    <path d="M 73.21607208251953 49.93764114379883 C 70.66783142089844 296.34759521484375 70.76094055175781 153.85302734375 168.03701782226562 358.5177307128906 C -71.5145034790039 370.68817138671875 -29.365726470947266 353.7438049316406 -11.234256744384766 305.1161804199219 C -10.079106330871582 119.44744110107422 -20.287574768066406 109.82018280029297 2.9527876377105713 -13.442242622375488 C 244.97218322753906 -13.421213150024414 209.31576538085938 40.306068420410156 73.21607208251953 49.93764114379883" stroke-width="0.0" fill="rgb(255, 255, 255)" opacity="0.9836658" stroke="rgb(238, 39, 35)" stroke-opacity="0.2699616" stroke-linecap="round" stroke-linejoin="round"/>
    <path d="M 523.8226928710938 85.31053161621094 C 525.4663696289062 236.28915405273438 528.7565307617188 248.85958862304688 509.0172424316406 325.72027587890625 C 380.1289367675781 327.8955078125 423.67413330078125 324.6271057128906 424.4195251464844 296.3951416015625 C 423.2796630859375 101.28406524658203 426.2884826660156 87.00220489501953 421.4889831542969 37.75017166137695 C 559.4204711914062 34.97639465332031 537.688720703125 44.954097747802734 523.8226928710938 85.31053161621094" stroke-width="0.0" fill="rgb(255, 255, 255)" opacity="0.98370796" stroke="rgb(7, 180, 152)" stroke-opacity="0.0022307765" stroke-linecap="round" stroke-linejoin="round"/>
    <path d="M 410.2792663574219 286.7912292480469 C 408.23443603515625 306.6287841796875 419.1024475097656 300.31689453125 385.2685852050781 302.2890930175781 C 389.7439880371094 262.15692138671875 387.6103820800781 255.86863708496094 387.77313232421875 211.3542938232422 C 389.40313720703125 169.29586791992188 380.81182861328125 150.455810546875 410.2400207519531 147.43338012695312 C 410.20806884765625 191.21334838867188 409.65252685546875 211.45497131347656 410.2792663574219 286.7912292480469" stroke-width="0.0" fill="rgb(254, 254, 254)" opacity="0.9888221" stroke="rgb(115, 63, 41)" stroke-opacity="0.38712826" stroke-linecap="round" stroke-linejoin="round"/>
    <path d="M 331.84033203125 113.48282623291016 C 330.6974182128906 127.04454040527344 322.263671875 124.90103149414062 310.52154541015625 125.20015716552734 C 281.6807861328125 125.01545715332031 270.1625061035156 125.56910705566406 272.0640869140625 124.62660217285156 C 271.65179443359375 107.8498306274414 272.0775146484375 115.23397064208984 273.0685119628906 113.94844055175781 C 321.4205017089844 114.02778625488281 322.9169616699219 113.73451232910156 331.84033203125 113.48282623291016" stroke-width="0.0" fill="rgb(253, 254, 253)" opacity="0.99834126" stroke="rgb(16, 148, 120)" stroke-opacity="0.891691" stroke-linecap="round" stroke-linejoin="round"/>
    <path d="M 192.13583374023438 264.57073974609375 C 211.98304748535156 303.7780456542969 228.87879943847656 306.754638671875 261.2762451171875 346.4171447753906 C 45.68449401855469 300.41265869140625 45.57683181762695 338.8698425292969 73.60221862792969 182.1057891845703 C 123.76561737060547 228.81796264648438 123.4537124633789 297.31744384765625 164.58505249023438 191.52938842773438 C 165.7431182861328 203.33309936523438 181.61480712890625 225.44564819335938 192.13583374023438 264.57073974609375" stroke-width="0.0" fill="rgb(33, 111, 70)" opacity="1.0" stroke="rgb(196, 8, 93)" stroke-opacity="0.1273392" stroke-linecap="round" stroke-linejoin="round"/>
    <path d="M 397.7010803222656 122.49317932128906 C 390.9635925292969 126.20030212402344 387.17181396484375 124.90550231933594 330.9504089355469 125.18791198730469 C 332.1895446777344 124.19499206542969 322.45306396484375 129.4119110107422 323.0693054199219 114.12126159667969 C 331.3935852050781 113.70520782470703 338.9144287109375 114.10210418701172 367.51641845703125 113.86217498779297 C 388.0704040527344 114.28157806396484 394.1778564453125 111.68588256835938 397.7010803222656 122.49317932128906" stroke-width="0.0" fill="rgb(254, 254, 254)" opacity="0.99384385" stroke="rgb(137, 178, 44)" stroke-opacity="0.9772718" stroke-linecap="round" stroke-linejoin="round"/>
    <path d="M 397.67315673828125 208.54144287109375 C 390.366455078125 209.60354614257812 377.26995849609375 209.02490234375 357.53106689453125 209.20095825195312 C 331.478271484375 208.7545623779297 324.5006103515625 211.636474609375 321.9613342285156 199.1011199951172 C 333.19451904296875 197.2150421142578 342.6825256347656 197.82012939453125 365.14349365234375 197.96656799316406 C 393.7187194824219 198.55789184570312 397.2666931152344 194.9095001220703 397.67315673828125 208.54144287109375" stroke-width="0.0" fill="rgb(254, 254, 254)" opacity="0.9973004" stroke="rgb(48, 26, 181)" stroke-opacity="0.54470706" stroke-linecap="round" stroke-linejoin="round"/>
    <path d="M 398.1308898925781 241.8361053466797 C 396.2171325683594 251.9534912109375 388.66265869140625 249.95401000976562 373.29571533203125 249.76376342773438 C 346.20098876953125 250.2157745361328 333.3457336425781 249.38902282714844 322.1514587402344 250.4940948486328 C 321.1324768066406 237.7854461669922 328.5565185546875 239.5791473388672 342.3899841308594 239.22976684570312 C 391.1183166503906 239.40402221679688 398.8121337890625 238.6294708251953 398.1308898925781 241.8361053466797" stroke-width="0.0" fill="rgb(255, 255, 255)" opacity="0.9809003" stroke="rgb(204, 121, 95)" stroke-opacity="0.43858048" stroke-linecap="round" stroke-linejoin="round"/>
    <path d="M 205.0 347.0 C 204.3301239013672 349.5 202.5 351.33013916015625 200.0 352.0 C 197.5 351.33013916015625 195.6698760986328 349.5 195.0 347.0 C 195.6698760986328 344.5 197.5 342.66986083984375 200.0 342.0 C 202.5 342.66986083984375 204.3301239013672 344.5 205.0 347.0" stroke-width="0.0" fill="rgb(255, 255, 255)" opacity="1.0" stroke="rgb(222, 18, 20)" stroke-opacity="0.28883278" stroke-linecap="round" stroke-linejoin="round"/>
    <path d="M 300.0 203.0 C 299.33013916015625 205.5 297.5 207.3301239013672 295.0 208.0 C 292.5 207.3301239013672 290.66986083984375 205.5 290.0 203.0 C 290.66986083984375 200.5 292.5 198.6698760986328 295.0 198.0 C 297.5 198.6698760986328 299.33013916015625 200.5 300.0 203.0" stroke-width="0.0" fill="rgb(255, 255, 255)" opacity="1.0" stroke="rgb(40, 174, 37)" stroke-opacity="0.9875636" stroke-linecap="round" stroke-linejoin="round"/>
    <path d="M 301.0 49.0 C 300.33013916015625 51.5 298.5 53.33012771606445 296.0 54.0 C 293.5 53.33012771606445 291.66986083984375 51.5 291.0 49.0 C 291.66986083984375 46.5 293.5 44.66987228393555 296.0 44.0 C 298.5 44.66987228393555 300.33013916015625 46.5 301.0 49.0" stroke-width="0.0" fill="rgb(7, 82, 46)" opacity="1.0" stroke="rgb(24, 116, 130)" stroke-opacity="0.27351394" stroke-linecap="round" stroke-linejoin="round"/>
  </g>
</svg>
