<?xml version="1.0" ?>
<svg xmlns="http://www.w3.org/2000/svg" version="1.1" width="512" height="359">
  <defs/>
  <g>
    <path d="M 271.1578674316406 357.2925720214844 C 119.16558837890625 287.3643798828125 266.42236328125 100.55095672607422 129.24801635742188 126.79407501220703 C 178.26806640625 294.8719787597656 46.22635269165039 334.9495849609375 76.7614974975586 51.83903121948242 C 98.2227783203125 47.796504974365234 122.6953353881836 43.220115661621094 268.7398376464844 15.704562187194824 C 266.8023681640625 21.47196388244629 280.6813659667969 -44.496681213378906 271.1578674316406 357.2925720214844" stroke-width="0.0" fill="rgb(4, 91, 46)" opacity="0.72531474" stroke="rgb(215, 125, 141)" stroke-opacity="0.7351484" stroke-linecap="round" stroke-linejoin="round"/>
    <path d="M 511.49468994140625 47.94375228881836 C 314.9269714355469 47.94588088989258 287.37286376953125 49.026695251464844 271.1084289550781 47.87405776977539 C 274.7176513671875 46.92171096801758 272.6625061035156 52.941383361816406 271.6490173339844 44.00302505493164 C 276.0025634765625 -28.355066299438477 257.98614501953125 56.09941101074219 174.64744567871094 4.142647743225098 C 425.4739074707031 -35.86026382446289 477.3082580566406 -112.8865737915039 511.49468994140625 47.94375228881836" stroke-width="0.0" fill="rgb(255, 255, 255)" opacity="0.98223096" stroke="rgb(232, 145, 250)" stroke-opacity="0.08685491" stroke-linecap="round" stroke-linejoin="round"/>
    <path d="M 409.35565185546875 167.09986877441406 C 390.23095703125 166.57591247558594 374.0038146972656 167.92630004882812 328.9407043457031 167.0078125 C 392.3167724609375 172.33250427246094 331.1761779785156 166.00730895996094 272.0267028808594 167.3384246826172 C 273.21795654296875 147.79025268554688 254.9665985107422 158.96701049804688 389.9569396972656 155.18299865722656 C 376.1439208984375 61.21559524536133 418.3186340332031 6.218317031860352 409.35565185546875 167.09986877441406" stroke-width="0.0" fill="rgb(255, 255, 255)" opacity="0.9839865" stroke="rgb(66, 14, 85)" stroke-opacity="0.34752163" stroke-linecap="round" stroke-linejoin="round"/>
    <path d="M 278.0 318.0 C 277.33013916015625 320.5 275.5 322.33013916015625 273.0 323.0 C 270.5 322.33013916015625 268.66986083984375 320.5 268.0 318.0 C 268.66986083984375 315.5 270.5 313.66986083984375 273.0 313.0 C 275.5 313.66986083984375 277.33013916015625 315.5 278.0 318.0" stroke-width="0.0" fill="rgb(255, 255, 255)" opacity="1.0" stroke="rgb(110, 231, 174)" stroke-opacity="0.29299298" stroke-linecap="round" stroke-linejoin="round"/>
    <path d="M 336.0 261.0 C 335.33013916015625 263.5 333.5 265.33013916015625 331.0 266.0 C 328.5 265.33013916015625 326.66986083984375 263.5 326.0 261.0 C 326.66986083984375 258.5 328.5 256.66986083984375 331.0 256.0 C 333.5 256.66986083984375 335.33013916015625 258.5 336.0 261.0" stroke-width="0.0" fill="rgb(255, 255, 255)" opacity="1.0" stroke="rgb(7, 21, 144)" stroke-opacity="0.74298483" stroke-linecap="round" stroke-linejoin="round"/>
    <path d="M 169.0 180.0 C 168.3301239013672 182.5 166.5 184.3301239013672 164.0 185.0 C 161.5 184.3301239013672 159.6698760986328 182.5 159.0 180.0 C 159.6698760986328 177.5 161.5 175.6698760986328 164.0 175.0 C 166.5 175.6698760986328 168.3301239013672 177.5 169.0 180.0" stroke-width="0.0" fill="rgb(255, 255, 255)" opacity="1.0" stroke="rgb(168, 59, 55)" stroke-opacity="0.13983247" stroke-linecap="round" stroke-linejoin="round"/>
    <path d="M 334.0 89.0 C 333.33013916015625 91.5 331.5 93.33012390136719 329.0 94.0 C 326.5 93.33012390136719 324.66986083984375 91.5 324.0 89.0 C 324.66986083984375 86.5 326.5 84.66987609863281 329.0 84.0 C 331.5 84.66987609863281 333.33013916015625 86.5 334.0 89.0" stroke-width="0.0" fill="rgb(255, 255, 255)" opacity="1.0" stroke="rgb(156, 162, 194)" stroke-opacity="0.33360702" stroke-linecap="round" stroke-linejoin="round"/>
  </g>
</svg>
