<?xml version="1.0" ?>
<svg xmlns="http://www.w3.org/2000/svg" version="1.1" width="512" height="512">
  <defs/>
  <g>
    <path d="M -10.0 -10.0 C -9.0 -10.0 512.0 0.0 513.0 0.0 C 514.0 0.0 512.0 512.0 513.0 512.0 C 513.0 513.0 0.0 512.0 0.0 513.0 C 0.0 512.0 0.0 513.0 -10.0 -10.0 L -10.0 -10.0" stroke-width="2.0" fill="rgb(231, 231, 184)" opacity="0.06994597"/>
    <path d="M 497.5994567871094 170.07862854003906 C 556.587646484375 338.5531005859375 429.889892578125 523.330322265625 234.7752685546875 511.302001953125 C 339.5356750488281 27.152400970458984 224.19097900390625 56.723228454589844 422.79083251953125 171.74557495117188 C 475.3393859863281 203.48330688476562 475.9707946777344 204.28782653808594 438.9465637207031 181.55783081054688 C 353.7363586425781 129.701171875 313.1449890136719 112.21756744384766 486.2677917480469 142.39151000976562 L 497.5994567871094 170.07862854003906" stroke-width="2.0" fill="rgb(253, 204, 10)" opacity="0.97667134"/>
    <path d="M 415.2919921875 55.213905334472656 C 437.64117431640625 72.61931610107422 466.0498046875 102.43940734863281 485.03546142578125 140.7613983154297 C -52.914215087890625 151.25294494628906 -115.53855895996094 129.62586975097656 333.041015625 88.17436981201172 C 354.3040466308594 4.7047648429870605 359.9076232910156 23.529041290283203 317.25982666015625 7.420894622802734 C 341.8439636230469 13.806689262390137 371.73406982421875 24.422618865966797 404.5697326660156 47.05574417114258 L 415.2919921875 55.213905334472656" stroke-width="2.0" fill="rgb(225, 40, 39)" opacity="0.91414016"/>
    <path d="M 350.9010925292969 241.86598205566406 C 341.3039855957031 397.5781555175781 180.9395751953125 331.5024108886719 250.20748901367188 350.1268005371094 C 192.9851531982422 341.65875244140625 172.046630859375 305.5378723144531 162.7853240966797 273.5747375488281 C 186.58447265625 333.18817138671875 113.68839263916016 203.5144500732422 237.09902954101562 164.0892791748047 C 419.6944580078125 205.3692169189453 148.32699584960938 126.0343246459961 323.1007995605469 187.74868774414062 L 350.9010925292969 241.86598205566406" stroke-width="2.0" fill="rgb(40, 110, 167)" opacity="0.9796946"/>
    <path d="M 138.91796875 406.0945129394531 C 108.80451965332031 542.7337646484375 -23.043729782104492 325.84619140625 6.886003017425537 254.31088256835938 C -4.727131366729736 304.63055419921875 18.2342529296875 295.9908142089844 -10.92444896697998 245.70155334472656 C 8.43851375579834 270.64239501953125 -6.941193103790283 240.27406311035156 10.840858459472656 185.48782348632812 C 18.521928787231445 148.80612182617188 54.068870544433594 67.88928985595703 147.53343200683594 23.882078170776367 L 138.91796875 406.0945129394531" stroke-width="2.0" fill="rgb(216, 33, 38)" opacity="0.9923491"/>
    <path d="M 329.5875244140625 111.35985565185547 C 402.7232971191406 60.784000396728516 418.649658203125 26.291141510009766 486.0392150878906 142.08395385742188 C 336.2046203613281 149.0410614013672 179.13217163085938 94.71337127685547 142.8533477783203 236.11233520507812 C 116.66297912597656 -59.629703521728516 140.05213928222656 62.03740310668945 143.88809204101562 25.523103713989258 C 260.6943054199219 -30.37116241455078 362.17852783203125 23.854934692382812 351.1618347167969 19.134965896606445 L 329.5875244140625 111.35985565185547" stroke-width="2.0" fill="rgb(226, 42, 40)" opacity="0.8809739"/>
    <path d="M 276.17974853515625 442.43115234375 C 53.49580001831055 329.09429931640625 261.0243835449219 388.4506530761719 325.7775573730469 317.9886779785156 C 412.172607421875 174.8097686767578 228.5207061767578 273.61322021484375 188.1351318359375 217.54464721679688 C 162.42269897460938 216.2754669189453 204.35462951660156 143.88259887695312 289.866943359375 167.81773376464844 C 247.25387573242188 116.4028091430664 406.3258361816406 175.23524475097656 359.909423828125 301.4652404785156 L 276.17974853515625 442.43115234375" stroke-width="2.0" fill="rgb(133, 194, 236)" opacity="0.704672"/>
    <path d="M 167.25912475585938 331.0124816894531 C 480.9156188964844 561.9489135742188 60.92512893676758 580.6821899414062 4.145748138427734 303.2154541015625 C 7.914886474609375 326.37249755859375 -2.9606902599334717 265.2210693359375 -2.931889772415161 215.79705810546875 C 8.187054634094238 299.3183288574219 -18.326892852783203 206.27783203125 41.540775299072266 115.74600219726562 C 46.51752853393555 113.50121307373047 27.149051666259766 86.63497161865234 118.45436096191406 241.8339385986328 L 167.25912475585938 331.0124816894531" stroke-width="2.0" fill="rgb(71, 175, 71)" opacity="0.9925033"/>
    <path d="M 469.1771545410156 398.633544921875 C 314.2732849121094 609.6785888671875 25.884307861328125 466.97711181640625 283.2969970703125 454.7190246582031 C 196.23110961914062 291.1280822753906 94.5405044555664 377.90887451171875 26.63365364074707 308.93096923828125 C -12.15192985534668 314.4871520996094 -16.965993881225586 255.89208984375 -27.80525779724121 271.1078186035156 C 54.69485855102539 244.3930206298828 -122.25468444824219 285.2070007324219 117.13626861572266 344.1740417480469 L 469.1771545410156 398.633544921875" stroke-width="2.0" fill="rgb(153, 150, 7)" opacity="0.37666026"/>
  </g>
</svg>
