<?xml version="1.0" ?>
<svg xmlns="http://www.w3.org/2000/svg" version="1.1" width="512" height="512">
  <defs/>
  <g>
    <path d="M -0.40665727853775024 -0.29691222310066223 L 512.0 -0.3123028576374054 L 512.0 512.0 L -0.3135676383972168 512.0 L -0.40665727853775024 -0.29691222310066223" stroke-width="0.0" fill="rgb(254, 254, 254)" opacity="0.9836669" stroke="rgb(0, 0, 0)" stroke-opacity="0.0" stroke-linecap="round" stroke-linejoin="round"/>
    <path d="M 87.70453643798828 62.808372497558594 C 23.05883026123047 121.8406753540039 5.287894248962402 183.44900512695312 -0.46098798513412476 244.08047485351562 L -1.3111636638641357 512.8845825195312 L 512.3243408203125 510.0992431640625 C 497.10382080078125 367.2530517578125 559.6548461914062 225.2466583251953 449.2013854980469 85.79542541503906 C 342.93701171875 -17.61951446533203 233.99578857421875 -17.22252655029297 131.76022338867188 30.645597457885742 C 117.66987609863281 41.79878616333008 102.3407974243164 49.770992279052734 87.70453643798828 62.808372497558594" stroke-width="2.0" fill="rgb(61, 167, 250)" opacity="1.103178" stroke="rgb(0, 0, 0)" stroke-opacity="0.0" stroke-linecap="round" stroke-linejoin="round"/>
    <path d="M 394.6468811035156 146.30654907226562 C 389.2093811035156 136.40625 380.8488464355469 139.12149047851562 374.15386962890625 141.07301330566406 C 287.4944763183594 176.7174835205078 204.73623657226562 204.78509521484375 116.28997039794922 242.18402099609375 C 114.4950180053711 252.13548278808594 122.8000717163086 255.7701416015625 128.8293914794922 256.9062805175781 C 148.71536254882812 263.2569274902344 168.45428466796875 269.3272399902344 189.64793395996094 275.97125244140625 C 200.47259521484375 302.99310302734375 204.62588500976562 329.6507263183594 215.4582977294922 358.2757873535156 C 234.83428955078125 363.10650634765625 249.31787109375 330.8836975097656 265.4149475097656 321.88653564453125 C 292.6032409667969 335.2875671386719 319.0585632324219 371.1778869628906 344.7744140625 371.8880920410156 C 368.98419189453125 300.67718505859375 375.8965148925781 231.44268798828125 394.3976745605469 161.3220672607422 L 394.6468811035156 146.30654907226562" stroke-width="2.0" fill="rgb(249, 252, 253)" opacity="1.0124968" stroke="rgb(0, 0, 0)" stroke-opacity="0.0" stroke-linecap="round" stroke-linejoin="round"/>
    <path d="M 387.2383728027344 140.48728942871094 C 372.4056091308594 140.1757049560547 357.30670166015625 151.24545288085938 342.0718078613281 153.99037170410156 C 346.7716979980469 164.51901245117188 342.1629638671875 172.11846923828125 346.8120422363281 184.8559112548828 L 228.77085876464844 291.8331604003906 C 227.7127227783203 293.326171875 227.68597412109375 295.64117431640625 230.66049194335938 298.4048767089844 C 265.420654296875 321.1754150390625 300.2962646484375 350.15887451171875 334.6640930175781 373.1723937988281 C 340.8476257324219 373.28106689453125 344.8051452636719 372.7236022949219 350.2549133300781 367.38287353515625 C 366.2004699707031 297.1671142578125 379.77655029296875 227.88258361816406 395.3226318359375 157.6906280517578 C 395.7406005859375 151.76622009277344 395.0914306640625 144.31092834472656 387.2383728027344 140.48728942871094" stroke-width="2.0" fill="rgb(254, 254, 254)" opacity="0.86096853" stroke="rgb(0, 0, 0)" stroke-opacity="0.0" stroke-linecap="round" stroke-linejoin="round"/>
    <path d="M 511.18072509765625 290.9458312988281 C 503.49920654296875 396.4931945800781 382.9206237792969 512.30517578125 280.4693298339844 510.05731201171875 L 514.3070068359375 513.9285278320312 L 511.18072509765625 290.9458312988281" stroke-width="2.0" fill="rgb(255, 255, 254)" opacity="0.9913553" stroke="rgb(0, 0, 0)" stroke-opacity="0.0" stroke-linecap="round" stroke-linejoin="round"/>
    <path d="M 0.8545590043067932 296.5467224121094 L -2.9404962062835693 512.3816528320312 L 228.76332092285156 511.9580993652344 L 188.2889404296875 502.1383972167969 C 98.62967681884766 485.11590576171875 14.018379211425781 385.9055480957031 0.8545590043067932 296.5467224121094" stroke-width="2.0" fill="rgb(254, 254, 254)" opacity="0.9959965" stroke="rgb(0, 0, 0)" stroke-opacity="0.0" stroke-linecap="round" stroke-linejoin="round"/>
    <path d="M 343.11834716796875 183.15000915527344 C 291.6025695800781 209.37451171875 241.70181274414062 244.08876037597656 189.72137451171875 276.3560485839844 C 198.16262817382812 303.0728759765625 205.0584259033203 329.7268981933594 216.4280242919922 357.9969787597656 C 232.689208984375 361.683349609375 247.7216033935547 334.14117431640625 263.36932373046875 321.9339599609375 C 253.60914611816406 308.4037170410156 223.88931274414062 303.875 229.2846221923828 290.4488525390625 C 266.9064025878906 255.2360382080078 309.8902893066406 221.4442138671875 343.11834716796875 183.15000915527344" stroke-width="2.0" fill="rgb(223, 224, 224)" opacity="0.82186335" stroke="rgb(0, 0, 0)" stroke-opacity="0.0" stroke-linecap="round" stroke-linejoin="round"/>
    <path d="M 227.31922912597656 294.649169921875 C 223.781494140625 314.2715759277344 223.35594177246094 337.01629638671875 221.5396270751953 358.4297790527344 C 236.61390686035156 355.3985290527344 250.6811981201172 336.753173828125 264.3570251464844 323.70831298828125 C 253.61505126953125 312.45947265625 240.1376953125 304.6289367675781 227.31922912597656 294.649169921875" stroke-width="2.0" fill="rgb(156, 157, 158)" opacity="0.6530717" stroke="rgb(0, 0, 0)" stroke-opacity="0.0" stroke-linecap="round" stroke-linejoin="round"/>
  </g>
</svg>
