<?xml version="1.0" ?>
<svg xmlns="http://www.w3.org/2000/svg" version="1.1" width="508" height="512">
  <defs/>
  <g>
    <path d="M 403.2815856933594 8.133039474487305 C 154.13638305664062 97.57650756835938 307.72882080078125 -12.86749267578125 254.6110076904297 229.39825439453125 C 58.95062255859375 263.2593688964844 3.1217081546783447 226.6083984375 5.712590217590332 182.23739624023438 C 5.071991443634033 -56.026092529296875 6.051682949066162 28.20254135131836 5.31473970413208 7.947755336761475 C 166.79150390625 8.093306541442871 179.163818359375 7.7954792976379395 403.2815856933594 8.133039474487305" stroke-width="0.0" fill="rgb(68, 85, 86)" opacity="0.40024462" stroke="rgb(196, 150, 217)" stroke-opacity="0.76551455" stroke-linecap="round" stroke-linejoin="round"/>
    <path d="M 504.3973083496094 8.682790756225586 C 491.0105895996094 322.6929016113281 547.2701416015625 334.5614929199219 376.2737731933594 332.9313049316406 C 319.0330810546875 117.1175765991211 373.887451171875 49.16683578491211 381.0772399902344 33.77571105957031 C 384.1598205566406 2.5783684253692627 401.3688049316406 9.200896263122559 437.410400390625 8.230740547180176 C 468.6609191894531 9.479985237121582 483.4325866699219 6.768194198608398 504.3973083496094 8.682790756225586" stroke-width="0.0" fill="rgb(128, 118, 108)" opacity="0.4426616" stroke="rgb(132, 108, 241)" stroke-opacity="0.247607" stroke-linecap="round" stroke-linejoin="round"/>
    <path d="M 488.6098327636719 20.655162811279297 C 423.903564453125 45.863792419433594 398.23455810546875 18.250022888183594 382.22088623046875 183.326171875 C 254.61871337890625 244.2483673095703 242.48016357421875 223.6795654296875 275.2804260253906 7.989962577819824 C 367.2603759765625 7.9552903175354 376.0822448730469 7.995395660400391 439.8782653808594 7.964619159698486 C 477.8321533203125 9.50386905670166 518.534912109375 2.629870891571045 488.6098327636719 20.655162811279297" stroke-width="0.0" fill="rgb(119, 156, 162)" opacity="0.7052877" stroke="rgb(247, 74, 75)" stroke-opacity="0.6924899" stroke-linecap="round" stroke-linejoin="round"/>
    <path d="M 270.0703430175781 319.98309326171875 C 181.52169799804688 442.3556213378906 353.9479064941406 424.9227600097656 23.515899658203125 422.6941833496094 C -12.129112243652344 401.0880432128906 2.984354257583618 410.8607482910156 67.3618392944336 366.7336120605469 C 193.78482055664062 392.2526550292969 54.24788284301758 406.27545166015625 199.70242309570312 400.5544128417969 C 179.99269104003906 283.32958984375 253.7528839111328 165.12225341796875 270.0703430175781 319.98309326171875" stroke-width="0.0" fill="rgb(0, 76, 116)" opacity="0.5447214" stroke="rgb(27, 254, 142)" stroke-opacity="0.2324643" stroke-linecap="round" stroke-linejoin="round"/>
    <path d="M 457.5154113769531 306.7250671386719 C 432.468017578125 225.6762237548828 450.9144287109375 312.49322509765625 432.494384765625 295.2995300292969 C 430.82672119140625 269.1563415527344 443.9787292480469 275.19842529296875 399.525634765625 277.07305908203125 C 407.6579895019531 254.43307495117188 389.29180908203125 263.2354736328125 428.6399230957031 263.1884460449219 C 462.47662353515625 263.0162048339844 459.20843505859375 250.1416015625 457.5154113769531 306.7250671386719" stroke-width="0.0" fill="rgb(255, 249, 232)" opacity="0.93892705" stroke="rgb(42, 155, 121)" stroke-opacity="0.34083197" stroke-linecap="round" stroke-linejoin="round"/>
    <path d="M 458.034912109375 206.84109497070312 C 452.35516357421875 284.5899353027344 477.438720703125 256.2230529785156 399.3841552734375 263.6042785644531 C 413.9027404785156 301.221435546875 357.7041931152344 318.9768981933594 377.918701171875 226.00022888183594 C 358.93359375 81.32605743408203 405.40777587890625 144.5459747314453 393.5609436035156 213.48309326171875 C 437.55511474609375 212.32936096191406 459.6623229980469 219.60133361816406 458.034912109375 206.84109497070312" stroke-width="0.0" fill="rgb(10, 15, 42)" opacity="0.77172524" stroke="rgb(57, 35, 238)" stroke-opacity="0.42043397" stroke-linecap="round" stroke-linejoin="round"/>
    <path d="M 502.5351867675781 419.5816650390625 C 502.5404968261719 442.8267517089844 501.17254638671875 433.2321472167969 501.75689697265625 431.2991027832031 C 456.2867431640625 430.6203918457031 438.3782043457031 431.82586669921875 241.85427856445312 431.4137268066406 C 222.0553741455078 415.996337890625 226.26177978515625 419.95721435546875 380.0915222167969 419.44427490234375 C 502.9720153808594 419.4817810058594 504.3666687011719 419.27557373046875 502.5351867675781 419.5816650390625" stroke-width="0.0" fill="rgb(4, 4, 28)" opacity="0.8413641" stroke="rgb(14, 49, 44)" stroke-opacity="0.5513878" stroke-linecap="round" stroke-linejoin="round"/>
    <path d="M 143.60020446777344 306.8302917480469 C 148.16488647460938 416.5328063964844 131.32345581054688 303.93060302734375 133.09031677246094 400.6507263183594 C 80.6575927734375 404.70904541015625 87.4146499633789 393.0835876464844 87.07771301269531 305.9166564941406 C 90.68998718261719 295.5738830566406 19.634567260742188 318.28912353515625 71.80818176269531 278.90667724609375 C 348.5679016113281 199.8662567138672 334.00537109375 315.4363098144531 143.60020446777344 306.8302917480469" stroke-width="0.0" fill="rgb(82, 146, 174)" opacity="0.69605374" stroke="rgb(68, 93, 157)" stroke-opacity="0.7189008" stroke-linecap="round" stroke-linejoin="round"/>
    <path d="M 303.49591064453125 259.390380859375 C 300.2513122558594 321.552734375 320.1201171875 223.27536010742188 305.1305236816406 351.7828063964844 C 282.6750793457031 347.06878662109375 293.0561218261719 373.47467041015625 290.0764465332031 266.1730041503906 C 290.42816162109375 267.7554931640625 288.90447998046875 247.06556701660156 289.7790222167969 240.36978149414062 C 308.0361022949219 248.2101593017578 293.3574523925781 263.012939453125 303.49591064453125 259.390380859375" stroke-width="0.0" fill="rgb(0, 10, 38)" opacity="0.7847386" stroke="rgb(120, 153, 50)" stroke-opacity="0.475983" stroke-linecap="round" stroke-linejoin="round"/>
    <path d="M 404.2589416503906 440.64874267578125 C 407.92901611328125 524.0586547851562 437.02392578125 466.1529846191406 428.2566833496094 504.92181396484375 C 302.7649230957031 505.0252380371094 295.84515380859375 504.7980651855469 63.849002838134766 504.8978576660156 C 98.16275787353516 355.4109802246094 157.9893798828125 485.130859375 324.0957336425781 427.7903747558594 C 287.1137390136719 449.2500305175781 375.50262451171875 436.5586242675781 404.2589416503906 440.64874267578125" stroke-width="0.0" fill="rgb(24, 83, 114)" opacity="0.6786087" stroke="rgb(203, 145, 219)" stroke-opacity="0.25115016" stroke-linecap="round" stroke-linejoin="round"/>
    <path d="M 306.8941345214844 74.24726104736328 C 307.1866455078125 81.97409057617188 287.5666198730469 105.28724670410156 263.5276184082031 86.02503204345703 C 263.16455078125 126.2719497680664 261.3263244628906 92.98308563232422 269.3234558105469 48.77714157104492 C 275.7679138183594 47.633583068847656 256.80706787109375 52.00556564331055 272.40576171875 44.74678421020508 C 296.43377685546875 36.77615737915039 311.82501220703125 59.70899200439453 306.8941345214844 74.24726104736328" stroke-width="0.0" fill="rgb(255, 247, 229)" opacity="0.9707759" stroke="rgb(153, 250, 186)" stroke-opacity="0.69291335" stroke-linecap="round" stroke-linejoin="round"/>
    <path d="M 244.78358459472656 401.3221435546875 C 224.61073303222656 428.42059326171875 265.160400390625 418.5657653808594 90.34134674072266 420.29034423828125 C 39.05674743652344 437.6608581542969 53.84329605102539 388.7884826660156 37.27556610107422 434.1607666015625 C -17.043710708618164 387.4416198730469 9.435355186462402 404.9629211425781 24.93183135986328 400.1382141113281 C 35.80251693725586 402.766357421875 76.7328109741211 399.24847412109375 244.78358459472656 401.3221435546875" stroke-width="0.0" fill="rgb(15, 0, 18)" opacity="0.70682067" stroke="rgb(110, 49, 213)" stroke-opacity="0.3808889" stroke-linecap="round" stroke-linejoin="round"/>
    <path d="M 503.2104187011719 505.0589599609375 C 453.4111633300781 505.5714416503906 536.166748046875 498.4582824707031 428.15350341796875 500.42193603515625 C 423.4069519042969 505.0198669433594 450.33172607421875 504.1737060546875 354.9862365722656 503.9922790527344 C 382.5953674316406 439.2819519042969 408.807373046875 502.83221435546875 405.15411376953125 429.3379211425781 C 522.7639770507812 440.9332580566406 498.4568176269531 391.85406494140625 503.2104187011719 505.0589599609375" stroke-width="0.0" fill="rgb(4, 66, 93)" opacity="0.47657558" stroke="rgb(1, 249, 7)" stroke-opacity="0.18424913" stroke-linecap="round" stroke-linejoin="round"/>
    <path d="M 374.3221740722656 266.07666015625 C 370.38519287109375 393.0400390625 384.1877746582031 365.62713623046875 356.744384765625 369.7482604980469 C 279.6601257324219 365.97515869140625 312.07501220703125 388.2982177734375 305.88397216796875 302.7342224121094 C 319.1946716308594 370.67535400390625 284.15631103515625 346.3426513671875 363.689453125 351.1172790527344 C 366.57073974609375 334.5379638671875 359.7414245605469 285.9934387207031 374.3221740722656 266.07666015625" stroke-width="0.0" fill="rgb(34, 36, 57)" opacity="0.9064793" stroke="rgb(26, 206, 185)" stroke-opacity="0.35683858" stroke-linecap="round" stroke-linejoin="round"/>
    <path d="M 35.35533905029297 305.7315368652344 C 35.62208938598633 349.29876708984375 35.3538703918457 341.46038818359375 35.30184555053711 342.2510986328125 C -1.552355408668518 342.109619140625 7.186241626739502 342.50628662109375 5.553308963775635 341.6487731933594 C 5.506007194519043 308.1213684082031 5.568061828613281 306.78546142578125 5.728438854217529 308.60693359375 C 42.77811050415039 309.2324523925781 34.353328704833984 308.7317199707031 35.35533905029297 305.7315368652344" stroke-width="0.0" fill="rgb(0, 96, 144)" opacity="0.5919845" stroke="rgb(103, 122, 237)" stroke-opacity="0.9746059" stroke-linecap="round" stroke-linejoin="round"/>
    <path d="M 127.52710723876953 170.74049377441406 C 125.96048736572266 266.04022216796875 129.34629821777344 238.1590576171875 124.41928100585938 245.02017211914062 C 89.13121032714844 241.9102783203125 99.12733459472656 267.5859069824219 98.30303192138672 173.02655029296875 C 124.71704864501953 155.64718627929688 101.14134216308594 233.34808349609375 115.27963256835938 219.6045684814453 C 116.03945922851562 154.90667724609375 107.10945129394531 175.4425811767578 127.52710723876953 170.74049377441406" stroke-width="0.0" fill="rgb(255, 249, 231)" opacity="0.95156777" stroke="rgb(100, 129, 92)" stroke-opacity="0.55766606" stroke-linecap="round" stroke-linejoin="round"/>
    <path d="M 153.0494384765625 251.80935668945312 C 152.60340881347656 251.73678588867188 170.60348510742188 251.5777587890625 127.49178314208984 251.81004333496094 C 127.81494140625 221.0199737548828 128.10202026367188 207.4099578857422 127.36945343017578 169.34486389160156 C 124.36042022705078 176.87405395507812 131.53282165527344 150.85195922851562 123.96221160888672 52.796932220458984 C 151.12936401367188 78.8023452758789 156.01199340820312 195.7173309326172 153.0494384765625 251.80935668945312" stroke-width="0.0" fill="rgb(52, 58, 77)" opacity="1.0" stroke="rgb(59, 178, 29)" stroke-opacity="0.4464602" stroke-linecap="round" stroke-linejoin="round"/>
    <path d="M 460.8298645019531 327.1610412597656 C 458.087158203125 333.1838684082031 469.97314453125 329.3022766113281 430.90936279296875 330.3856201171875 C 425.6872863769531 328.2586975097656 427.7718505859375 339.91705322265625 427.1562805175781 296.4991455078125 C 428.57098388671875 291.852783203125 419.1924743652344 293.7421875 459.9369812011719 293.4731140136719 C 443.6501159667969 225.614501953125 551.7416381835938 278.2019958496094 460.8298645019531 327.1610412597656" stroke-width="0.0" fill="rgb(19, 24, 49)" opacity="0.84336925" stroke="rgb(156, 26, 187)" stroke-opacity="0.38512826" stroke-linecap="round" stroke-linejoin="round"/>
    <path d="M 61.62889862060547 432.7435607910156 C 68.59487915039062 462.1094665527344 66.0733642578125 462.7509460449219 59.68455123901367 460.7176818847656 C 5.668548107147217 457.0417785644531 5.67785120010376 506.24761962890625 6.061948299407959 422.7077941894531 C 33.82952117919922 418.2301330566406 10.227752685546875 425.28375244140625 41.374847412109375 423.66387939453125 C 43.17244338989258 402.2313537597656 70.95162200927734 409.87127685546875 61.62889862060547 432.7435607910156" stroke-width="0.0" fill="rgb(178, 197, 191)" opacity="1.0" stroke="rgb(94, 125, 83)" stroke-opacity="0.32856157" stroke-linecap="round" stroke-linejoin="round"/>
    <path d="M 425.9347229003906 388.1954650878906 C 423.5043029785156 415.6857604980469 433.3341064453125 412.4399719238281 406.11474609375 412.25079345703125 C 369.4263916015625 412.7779541015625 382.38275146484375 414.3012390136719 378.6455078125 389.53564453125 C 382.07220458984375 361.8606872558594 370.3573913574219 370.3335876464844 401.2588806152344 368.5513610839844 C 435.0441589355469 370.07904052734375 423.38330078125 362.3038330078125 425.9347229003906 388.1954650878906" stroke-width="0.0" fill="rgb(30, 38, 59)" opacity="0.79917103" stroke="rgb(115, 33, 228)" stroke-opacity="0.95468795" stroke-linecap="round" stroke-linejoin="round"/>
    <path d="M 349.1350402832031 210.2478485107422 C 329.5756530761719 147.43466186523438 341.5973205566406 226.3015594482422 328.7204895019531 205.6950225830078 C 322.2693176269531 143.66650390625 319.93402099609375 232.53628540039062 315.96533203125 216.55703735351562 C 309.4822692871094 168.70494079589844 327.607666015625 178.43582153320312 286.4223327636719 177.71090698242188 C 361.7509460449219 182.20533752441406 353.24554443359375 165.69883728027344 349.1350402832031 210.2478485107422" stroke-width="0.0" fill="rgb(255, 250, 233)" opacity="0.93040544" stroke="rgb(79, 182, 54)" stroke-opacity="0.29356122" stroke-linecap="round" stroke-linejoin="round"/>
    <path d="M 269.9322204589844 343.36895751953125 C 268.1410217285156 354.093994140625 276.4035949707031 350.6451721191406 249.31712341308594 351.4368896484375 C 248.84059143066406 435.3516845703125 251.77120971679688 407.52520751953125 240.02200317382812 413.4626770019531 C 242.80967712402344 301.79510498046875 236.1516876220703 328.5476379394531 250.96548461914062 324.1270751953125 C 276.03131103515625 327.08868408203125 267.8210754394531 313.7842712402344 269.9322204589844 343.36895751953125" stroke-width="0.0" fill="rgb(45, 45, 67)" opacity="0.9562058" stroke="rgb(95, 207, 156)" stroke-opacity="0.33680773" stroke-linecap="round" stroke-linejoin="round"/>
    <path d="M 128.0415802001953 503.0585021972656 C 103.02970123291016 505.729248046875 86.59043884277344 502.6265869140625 61.45177459716797 504.8663330078125 C 7.820324420928955 504.2001037597656 1.662483811378479 504.9749450683594 5.559017658233643 504.7144775390625 C 5.533078193664551 447.672119140625 6.515295028686523 445.6475830078125 6.6635637283325195 452.3465881347656 C 54.45553970336914 464.0191345214844 76.78202819824219 467.7338562011719 128.0415802001953 503.0585021972656" stroke-width="0.0" fill="rgb(64, 103, 127)" opacity="1.0" stroke="rgb(55, 87, 40)" stroke-opacity="0.10704914" stroke-linecap="round" stroke-linejoin="round"/>
    <path d="M 292.6495056152344 469.9244689941406 C 49.99440002441406 445.1793212890625 74.93302917480469 448.2431640625 64.08366394042969 476.0254211425781 C 47.79782485961914 476.0558776855469 46.082359313964844 475.1267395019531 45.36294174194336 459.44122314453125 C 50.05583572387695 426.9730224609375 55.30759048461914 435.14349365234375 41.620235443115234 421.3024597167969 C 161.0626983642578 432.3190002441406 231.26463317871094 391.6554870605469 292.6495056152344 469.9244689941406" stroke-width="0.0" fill="rgb(170, 200, 196)" opacity="0.71858984" stroke="rgb(68, 148, 141)" stroke-opacity="0.35648462" stroke-linecap="round" stroke-linejoin="round"/>
    <path d="M 503.0085754394531 379.7784729003906 C 502.570556640625 350.6147155761719 502.8921203613281 359.4032287597656 502.6884460449219 411.72442626953125 C 449.1941833496094 409.0469665527344 469.3172607421875 434.3842468261719 464.7134094238281 331.3925476074219 C 479.0380554199219 330.8976745605469 474.67559814453125 332.0745544433594 502.71697998046875 330.2712707519531 C 502.9978332519531 351.097900390625 502.6561279296875 363.4916687011719 503.0085754394531 379.7784729003906" stroke-width="0.0" fill="rgb(30, 91, 129)" opacity="0.7489672" stroke="rgb(24, 105, 106)" stroke-opacity="0.612553" stroke-linecap="round" stroke-linejoin="round"/>
    <path d="M 111.18708038330078 419.21832275390625 C 175.87216186523438 507.6929016113281 58.5865364074707 452.7386169433594 6.178487300872803 471.7144470214844 C 6.11231803894043 488.1501770019531 5.065104007720947 488.6380615234375 4.976387023925781 462.8309020996094 C 5.943650722503662 413.9639892578125 -0.016841372475028038 413.827392578125 24.99710464477539 423.3512268066406 C 98.38777160644531 419.64764404296875 25.65900993347168 442.8258361816406 111.18708038330078 419.21832275390625" stroke-width="0.0" fill="rgb(143, 180, 185)" opacity="0.5521359" stroke="rgb(173, 206, 110)" stroke-opacity="0.35303" stroke-linecap="round" stroke-linejoin="round"/>
    <path d="M 66.02404022216797 467.6426086425781 C 66.95635223388672 473.0335693359375 64.38764953613281 473.0387878417969 38.05308532714844 471.6239929199219 C 1.718310832977295 474.04632568359375 5.980642318725586 478.7149963378906 5.8629069328308105 454.1802673339844 C 34.9216194152832 458.0514221191406 32.731651306152344 440.1338806152344 35.43227767944336 436.4520568847656 C 51.83259201049805 435.00042724609375 62.10025405883789 430.0429382324219 66.02404022216797 467.6426086425781" stroke-width="0.0" fill="rgb(91, 134, 156)" opacity="0.93138695" stroke="rgb(196, 134, 230)" stroke-opacity="0.21096563" stroke-linecap="round" stroke-linejoin="round"/>
    <path d="M 358.5570983886719 312.3465881347656 C 356.5139465332031 341.1993713378906 361.5617980957031 333.0589599609375 351.1101379394531 337.2683410644531 C 332.3496398925781 315.7938537597656 326.64483642578125 356.35223388671875 325.72943115234375 319.9762268066406 C 330.8975524902344 281.5809326171875 316.2044677734375 301.30828857421875 357.42901611328125 295.8421630859375 C 358.5855407714844 316.3525390625 355.45330810546875 323.15972900390625 358.5570983886719 312.3465881347656" stroke-width="0.0" fill="rgb(95, 96, 104)" opacity="0.7148468" stroke="rgb(162, 17, 46)" stroke-opacity="0.90818053" stroke-linecap="round" stroke-linejoin="round"/>
    <path d="M 365.3188781738281 347.2747802734375 C 364.14959716796875 353.3444519042969 371.18572998046875 350.8086853027344 326.5296936035156 351.406005859375 C 317.50579833984375 350.772216796875 321.235107421875 353.6161193847656 320.4200439453125 344.2044982910156 C 322.05389404296875 292.5763244628906 311.9848937988281 312.58782958984375 337.9258117675781 306.5708312988281 C 372.2784423828125 314.4244384765625 364.4098815917969 289.3482666015625 365.3188781738281 347.2747802734375" stroke-width="0.0" fill="rgb(78, 154, 183)" opacity="0.72098213" stroke="rgb(129, 209, 137)" stroke-opacity="0.36627367" stroke-linecap="round" stroke-linejoin="round"/>
    <path d="M 389.01153564453125 263.6038513183594 C 358.6015930175781 330.8290710449219 365.46282958984375 307.73309326171875 365.1757507324219 269.2687072753906 C 326.13360595703125 268.43804931640625 334.19244384765625 273.60443115234375 337.2669372558594 257.2305603027344 C 363.0435791015625 229.44818115234375 349.4632873535156 264.60162353515625 357.6939392089844 219.4563751220703 C 369.3315124511719 266.6682434082031 366.9759826660156 225.1396026611328 389.01153564453125 263.6038513183594" stroke-width="0.0" fill="rgb(76, 135, 164)" opacity="0.7790818" stroke="rgb(151, 102, 184)" stroke-opacity="0.568833" stroke-linecap="round" stroke-linejoin="round"/>
    <path d="M 407.1717224121094 80.11750030517578 C 446.3665466308594 94.12886047363281 437.2092590332031 88.58113861083984 392.19775390625 90.35714721679688 C 351.76922607421875 89.68675231933594 346.75555419921875 93.98844909667969 365.8269958496094 80.34973907470703 C 385.9956970214844 84.8624267578125 364.1248474121094 76.09841918945312 385.34844970703125 63.486778259277344 C 405.3010559082031 56.48232650756836 411.74658203125 78.36802673339844 407.1717224121094 80.11750030517578" stroke-width="0.0" fill="rgb(252, 245, 225)" opacity="0.9658234" stroke="rgb(83, 115, 11)" stroke-opacity="0.17565387" stroke-linecap="round" stroke-linejoin="round"/>
    <path d="M 56.638160705566406 283.7499084472656 C 55.37472915649414 317.0213623046875 51.47550582885742 293.7278747558594 11.242441177368164 308.8659362792969 C 4.652977466583252 309.878173828125 7.7237229347229 309.55908203125 5.505252838134766 307.1158142089844 C 6.9178242683410645 241.5293731689453 -0.18246646225452423 262.4879455566406 31.135204315185547 258.55877685546875 C 47.886146545410156 260.58526611328125 47.69649887084961 267.89910888671875 56.638160705566406 283.7499084472656" stroke-width="0.0" fill="rgb(215, 111, 69)" opacity="0.3925187" stroke="rgb(27, 252, 9)" stroke-opacity="0.415664" stroke-linecap="round" stroke-linejoin="round"/>
    <path d="M 377.4624938964844 216.58692932128906 C 376.61737060546875 265.4635314941406 381.669677734375 242.76419067382812 362.8665771484375 243.57220458984375 C 363.8409423828125 219.27870178222656 352.2732238769531 241.46798706054688 354.0992126464844 227.94346618652344 C 352.76483154296875 213.03985595703125 358.2252197265625 202.6934051513672 364.8798522949219 217.17225646972656 C 371.0462646484375 203.4381561279297 377.5381774902344 216.64825439453125 377.4624938964844 216.58692932128906" stroke-width="0.0" fill="rgb(255, 252, 236)" opacity="0.94642115" stroke="rgb(184, 54, 164)" stroke-opacity="0.46750906" stroke-linecap="round" stroke-linejoin="round"/>
    <path d="M 123.42700958251953 138.1932373046875 C 124.25990295410156 126.0877456665039 123.29287719726562 124.27365112304688 124.40474700927734 128.9636688232422 C 106.73212432861328 127.41170501708984 100.19685363769531 131.5891876220703 103.567626953125 122.22039031982422 C 122.36978912353516 134.74574279785156 97.08261108398438 78.12761688232422 127.64024353027344 105.6802749633789 C 113.13130950927734 108.4001693725586 108.76164245605469 93.6980972290039 123.42700958251953 138.1932373046875" stroke-width="0.0" fill="rgb(255, 251, 233)" opacity="0.8938853" stroke="rgb(82, 54, 102)" stroke-opacity="0.9560418" stroke-linecap="round" stroke-linejoin="round"/>
    <path d="M 174.6458740234375 292.73419189453125 C 92.13903045654297 288.9817810058594 159.07139587402344 301.845458984375 118.33682250976562 303.32843017578125 C 114.60017395019531 287.16668701171875 103.8599624633789 277.125732421875 87.57787322998047 274.8373107910156 C 99.20263671875 266.8641052246094 91.26021575927734 261.7237243652344 134.35952758789062 261.97198486328125 C 131.96340942382812 307.9022216796875 134.18276977539062 260.61627197265625 174.6458740234375 292.73419189453125" stroke-width="0.0" fill="rgb(249, 243, 227)" opacity="1.0" stroke="rgb(146, 247, 92)" stroke-opacity="0.3187021" stroke-linecap="round" stroke-linejoin="round"/>
    <path d="M 293.6897277832031 173.69691467285156 C 294.72503662109375 206.4311981201172 297.1313781738281 225.805419921875 284.9421081542969 210.32383728027344 C 273.9035949707031 216.04779052734375 280.63726806640625 228.4185028076172 280.4021911621094 194.3417205810547 C 279.8485107421875 166.3032989501953 280.1473083496094 164.01150512695312 285.0495910644531 163.9248046875 C 292.35955810546875 166.1936798095703 290.4168395996094 172.52896118164062 293.6897277832031 173.69691467285156" stroke-width="0.0" fill="rgb(38, 35, 54)" opacity="0.9068101" stroke="rgb(52, 113, 24)" stroke-opacity="0.62147295" stroke-linecap="round" stroke-linejoin="round"/>
    <path d="M 279.780517578125 171.46929931640625 C 278.58441162109375 195.54833984375 285.0068359375 185.68414306640625 263.2462463378906 188.52484130859375 C 264.51446533203125 261.3138427734375 261.8471374511719 302.9987487792969 262.5979919433594 172.05601501464844 C 275.7448425292969 167.89630126953125 258.66851806640625 180.24794006347656 276.9411315917969 178.1295166015625 C 273.6477966308594 153.0172882080078 279.9244689941406 147.5681915283203 279.780517578125 171.46929931640625" stroke-width="0.0" fill="rgb(255, 249, 229)" opacity="0.9460976" stroke="rgb(208, 247, 99)" stroke-opacity="0.48059374" stroke-linecap="round" stroke-linejoin="round"/>
    <path d="M 325.3076171875 400.88519287109375 C 324.77978515625 411.1421203613281 331.1387939453125 413.010009765625 308.9691467285156 412.1842041015625 C 297.7668151855469 419.2694396972656 301.9226989746094 393.85931396484375 308.48785400390625 408.9566955566406 C 308.710693359375 387.20111083984375 306.543212890625 383.8387451171875 316.01104736328125 379.4532165527344 C 324.6885986328125 381.4669494628906 325.52081298828125 386.162353515625 325.3076171875 400.88519287109375" stroke-width="0.0" fill="rgb(31, 26, 45)" opacity="0.87415946" stroke="rgb(252, 133, 131)" stroke-opacity="0.9886961" stroke-linecap="round" stroke-linejoin="round"/>
    <path d="M 456.33642578125 347.82073974609375 C 456.0667724609375 369.8666076660156 458.4912109375 364.4055480957031 450.9430236816406 365.3369445800781 C 451.15582275390625 367.01947021484375 450.5074768066406 364.60345458984375 450.5771789550781 366.3883972167969 C 450.2852478027344 363.3543701171875 450.3357238769531 346.2140808105469 450.91973876953125 348.4653625488281 C 458.35003662109375 345.1449890136719 455.7109680175781 353.8836669921875 456.33642578125 347.82073974609375" stroke-width="0.0" fill="rgb(0, 2, 23)" opacity="0.83001775" stroke="rgb(90, 127, 82)" stroke-opacity="0.71349186" stroke-linecap="round" stroke-linejoin="round"/>
    <path d="M 99.071044921875 247.54664611816406 C 21.279251098632812 217.33883666992188 40.57965850830078 244.3914337158203 6.4214959144592285 260.27532958984375 C 6.145570278167725 255.89744567871094 2.951289176940918 232.92620849609375 7.020662784576416 235.76966857910156 C 5.719397068023682 245.118896484375 6.531651496887207 222.40234375 5.925281524658203 163.60362243652344 C 121.98042297363281 167.63589477539062 94.02483367919922 139.3955535888672 99.071044921875 247.54664611816406" stroke-width="0.0" fill="rgb(234, 190, 164)" opacity="0.85477227" stroke="rgb(125, 101, 46)" stroke-opacity="0.20675234" stroke-linecap="round" stroke-linejoin="round"/>
    <path d="M 481.92169189453125 311.68408203125 C 483.4159851074219 327.20611572265625 482.2165832519531 335.3306884765625 474.128662109375 322.1950378417969 C 467.4267883300781 284.4483642578125 474.9353942871094 306.2742614746094 459.05572509765625 349.1793518066406 C 459.9161682128906 291.2085266113281 458.6343078613281 296.83477783203125 461.87237548828125 297.0084228515625 C 503.5427551269531 295.8329772949219 502.9446105957031 299.3550720214844 481.92169189453125 311.68408203125" stroke-width="0.0" fill="rgb(255, 245, 225)" opacity="0.93905425" stroke="rgb(62, 105, 105)" stroke-opacity="0.19599734" stroke-linecap="round" stroke-linejoin="round"/>
    <path d="M 133.1431884765625 160.65716552734375 C 167.51686096191406 160.99493408203125 154.1697235107422 157.75347900390625 153.7218017578125 166.43637084960938 C 107.314208984375 166.4433135986328 117.92839050292969 167.9191436767578 130.11349487304688 160.38162231445312 C 137.72506713867188 145.421875 99.1707992553711 144.626220703125 178.3857421875 148.72215270996094 C 123.31049346923828 157.39932250976562 134.63389587402344 142.1898193359375 133.1431884765625 160.65716552734375" stroke-width="0.0" fill="rgb(99, 167, 195)" opacity="0.8301408" stroke="rgb(110, 34, 18)" stroke-opacity="0.98034614" stroke-linecap="round" stroke-linejoin="round"/>
    <path d="M 42.3911247253418 381.91094970703125 C 41.39215850830078 407.4444274902344 49.417537689208984 399.8012390136719 26.60576820373535 400.6844482421875 C 26.418338775634766 398.50927734375 25.486114501953125 406.1631164550781 26.037765502929688 393.95648193359375 C 6.2093586921691895 372.5741271972656 15.173592567443848 367.635498046875 47.725276947021484 367.9619445800781 C 69.20549011230469 373.58099365234375 44.082733154296875 382.35302734375 42.3911247253418 381.91094970703125" stroke-width="0.0" fill="rgb(209, 217, 205)" opacity="1.0" stroke="rgb(2, 181, 21)" stroke-opacity="0.24835739" stroke-linecap="round" stroke-linejoin="round"/>
    <path d="M 194.5137176513672 482.4417724609375 C 193.208251953125 492.2128601074219 184.05459594726562 488.7276306152344 147.20755004882812 489.4114990234375 C 127.66138458251953 486.90362548828125 132.002685546875 492.754150390625 126.03855895996094 480.5572204589844 C 137.32852172851562 480.2145080566406 173.78622436523438 482.1475524902344 131.05953979492188 479.83636474609375 C 168.68238830566406 481.675048828125 193.7523193359375 479.29638671875 194.5137176513672 482.4417724609375" stroke-width="0.0" fill="rgb(254, 246, 227)" opacity="0.88323563" stroke="rgb(132, 69, 179)" stroke-opacity="0.18659382" stroke-linecap="round" stroke-linejoin="round"/>
    <path d="M 207.29624938964844 274.5303039550781 C 210.9265594482422 306.69769287109375 210.02041625976562 307.22955322265625 208.8062286376953 306.75701904296875 C 184.12518310546875 309.5729675292969 191.22549438476562 303.2250061035156 191.52940368652344 306.72064208984375 C 192.09320068359375 253.61502075195312 191.9656982421875 242.5758514404297 191.76461791992188 247.98594665527344 C 202.36712646484375 265.68743896484375 209.58657836914062 277.3858642578125 207.29624938964844 274.5303039550781" stroke-width="0.0" fill="rgb(20, 11, 35)" opacity="0.7663194" stroke="rgb(181, 240, 49)" stroke-opacity="0.85936004" stroke-linecap="round" stroke-linejoin="round"/>
    <path d="M 293.8223876953125 161.13909912109375 C 293.67291259765625 183.99398803710938 295.7230529785156 184.8309783935547 281.41925048828125 186.81649780273438 C 280.5453796386719 184.47970581054688 279.5743713378906 160.33993530273438 280.5472412109375 142.48399353027344 C 278.69769287109375 160.5672607421875 282.3081970214844 130.62033081054688 278.2662353515625 125.81206512451172 C 298.4688720703125 135.02261352539062 280.70556640625 168.78726196289062 293.8223876953125 161.13909912109375" stroke-width="0.0" fill="rgb(46, 46, 65)" opacity="0.9944183" stroke="rgb(231, 250, 22)" stroke-opacity="0.08989736" stroke-linecap="round" stroke-linejoin="round"/>
    <path d="M 403.8433532714844 323.0586242675781 C 401.3026428222656 320.6691589355469 408.0726013183594 322.752685546875 398.1124572753906 322.5740661621094 C 397.1607666015625 325.104736328125 397.6128845214844 309.24554443359375 397.88238525390625 306.740966796875 C 397.0051574707031 314.1495361328125 397.27227783203125 303.7093200683594 401.2375183105469 304.69158935546875 C 405.2093505859375 305.42724609375 402.24749755859375 315.8877868652344 403.8433532714844 323.0586242675781" stroke-width="0.0" fill="rgb(34, 38, 61)" opacity="0.9835219" stroke="rgb(194, 82, 143)" stroke-opacity="0.94157815" stroke-linecap="round" stroke-linejoin="round"/>
    <path d="M 68.61648559570312 257.98785400390625 C 51.03070831298828 285.56561279296875 43.49140930175781 282.6102600097656 15.5787935256958 285.75262451171875 C 8.214912414550781 284.87939453125 7.148146629333496 280.1759338378906 4.962274074554443 273.9604797363281 C 5.823007583618164 235.9749755859375 1.9883124828338623 248.7765655517578 13.055952072143555 258.01605224609375 C 44.24582290649414 258.16119384765625 48.745697021484375 258.3053894042969 68.61648559570312 257.98785400390625" stroke-width="0.0" fill="rgb(226, 172, 149)" opacity="0.3579185" stroke="rgb(126, 197, 211)" stroke-opacity="0.38466337" stroke-linecap="round" stroke-linejoin="round"/>
    <path d="M 372.6914978027344 391.52703857421875 C 371.9659423828125 416.40380859375 376.3578796386719 411.49560546875 365.2341613769531 412.13421630859375 C 353.1855163574219 409.63189697265625 358.26953125 415.5380859375 355.6356201171875 409.6925964355469 C 355.7882080078125 388.78057861328125 354.6959228515625 383.2865905761719 363.80645751953125 379.77252197265625 C 370.2289123535156 380.0650329589844 373.03363037109375 384.7988586425781 372.6914978027344 391.52703857421875" stroke-width="0.0" fill="rgb(32, 31, 52)" opacity="0.9103162" stroke="rgb(132, 139, 32)" stroke-opacity="0.9898701" stroke-linecap="round" stroke-linejoin="round"/>
    <path d="M 501.97454833984375 287.7281188964844 C 491.3032531738281 312.0735778808594 495.3464660644531 308.2195129394531 491.5820007324219 312.1968688964844 C 452.5406494140625 304.4790344238281 460.9233093261719 334.1288757324219 459.3155212402344 295.5702819824219 C 456.0951843261719 295.8542785644531 463.454833984375 295.1846923828125 491.3537292480469 295.75201416015625 C 501.1932373046875 294.3996887207031 493.8280944824219 302.142578125 501.97454833984375 287.7281188964844" stroke-width="0.0" fill="rgb(252, 247, 231)" opacity="0.8509653" stroke="rgb(182, 144, 14)" stroke-opacity="0.92638564" stroke-linecap="round" stroke-linejoin="round"/>
    <path d="M 280.4053955078125 279.77862548828125 C 295.96533203125 296.12603759765625 289.7615661621094 294.6728820800781 271.45672607421875 293.5490417480469 C 269.2241516113281 285.65728759765625 279.2819519042969 270.7596740722656 264.4278259277344 270.90142822265625 C 260.31512451171875 265.0069885253906 261.5279541015625 264.6575927734375 276.0771789550781 270.7154541015625 C 284.50689697265625 266.1778259277344 290.21575927734375 268.7181091308594 280.4053955078125 279.77862548828125" stroke-width="0.0" fill="rgb(48, 61, 75)" opacity="0.6387522" stroke="rgb(109, 121, 134)" stroke-opacity="0.13712972" stroke-linecap="round" stroke-linejoin="round"/>
    <path d="M 117.82642364501953 304.5738525390625 C 120.23072052001953 302.9916687011719 117.61346435546875 303.6837463378906 94.03144073486328 303.476318359375 C 85.82294464111328 303.142333984375 91.7110824584961 307.5240478515625 87.7896499633789 282.4906005859375 C 85.942626953125 273.0267333984375 81.1515121459961 274.3932189941406 96.21964263916016 277.5567626953125 C 104.24452209472656 279.8819885253906 115.96504974365234 289.4857177734375 117.82642364501953 304.5738525390625" stroke-width="0.0" fill="rgb(39, 38, 58)" opacity="0.95892364" stroke="rgb(123, 52, 58)" stroke-opacity="0.003012337" stroke-linecap="round" stroke-linejoin="round"/>
    <path d="M 127.38672637939453 79.53206634521484 C 127.35867309570312 95.20838928222656 128.091064453125 88.861328125 125.77185821533203 89.33397674560547 C 108.12935638427734 88.89911651611328 111.93797302246094 92.02154541015625 111.40452575683594 84.23107147216797 C 114.31278991699219 71.47655487060547 113.31141662597656 68.45323181152344 123.05450439453125 64.20713806152344 C 127.52047729492188 62.924957275390625 127.4865951538086 61.68655014038086 127.38672637939453 79.53206634521484" stroke-width="0.0" fill="rgb(255, 249, 227)" opacity="0.9354381" stroke="rgb(206, 156, 103)" stroke-opacity="0.96850485" stroke-linecap="round" stroke-linejoin="round"/>
    <path d="M 438.7255554199219 365.8031921386719 C 437.3985290527344 363.8477478027344 441.814453125 365.7295227050781 432.9391784667969 365.6487121582031 C 432.2412109375 369.8989562988281 432.9681396484375 341.5390930175781 432.7519226074219 350.1781921386719 C 435.65191650390625 356.74853515625 427.6255798339844 346.6076354980469 438.3061218261719 348.72174072265625 C 438.52001953125 345.1702575683594 438.4452819824219 361.0653991699219 438.7255554199219 365.8031921386719" stroke-width="0.0" fill="rgb(0, 2, 32)" opacity="0.833851" stroke="rgb(162, 152, 89)" stroke-opacity="0.21539699" stroke-linecap="round" stroke-linejoin="round"/>
    <path d="M 281.41314697265625 264.36834716796875 C 282.28546142578125 290.8107604980469 298.3816223144531 306.3126525878906 265.1325378417969 281.69439697265625 C 248.69862365722656 286.7928466796875 269.81298828125 249.2078857421875 264.292236328125 157.1880645751953 C 204.1063690185547 184.2602081298828 212.3330078125 138.38807678222656 152.44464111328125 251.80392456054688 C 262.7928161621094 255.40707397460938 263.3113708496094 245.40589904785156 281.41314697265625 264.36834716796875" stroke-width="0.0" fill="rgb(229, 196, 174)" opacity="0.99177504" stroke="rgb(78, 153, 111)" stroke-opacity="0.46703455" stroke-linecap="round" stroke-linejoin="round"/>
    <path d="M 387.63128662109375 305.257080078125 C 387.01336669921875 328.6124267578125 389.9471130371094 321.41522216796875 382.4114990234375 322.69171142578125 C 382.1624450683594 323.959716796875 382.529296875 307.0365295410156 381.90771484375 306.0108642578125 C 383.4972229003906 312.5869445800781 380.34527587890625 305.801025390625 384.4835205078125 304.95697021484375 C 389.3025817871094 305.2713317871094 386.9757385253906 310.6952819824219 387.63128662109375 305.257080078125" stroke-width="0.0" fill="rgb(36, 39, 62)" opacity="1.0" stroke="rgb(94, 50, 32)" stroke-opacity="0.095245644" stroke-linecap="round" stroke-linejoin="round"/>
    <path d="M 97.85028076171875 277.7592468261719 C 95.20852661132812 277.7110900878906 69.82926940917969 267.10150146484375 55.218833923339844 297.3663635253906 C 30.959617614746094 291.62298583984375 29.713443756103516 287.264404296875 28.746829986572266 274.4037170410156 C 26.791906356811523 252.08953857421875 28.756322860717773 261.6059875488281 76.87056732177734 257.8781433105469 C 13.492756843566895 213.42774963378906 111.04060363769531 186.6945343017578 97.85028076171875 277.7592468261719" stroke-width="0.0" fill="rgb(228, 178, 152)" opacity="0.7695413" stroke="rgb(252, 111, 248)" stroke-opacity="0.9567855" stroke-linecap="round" stroke-linejoin="round"/>
    <path d="M 125.38360595703125 129.55015563964844 C 130.8214874267578 175.31687927246094 124.05025482177734 166.1669921875 128.27777099609375 166.6649627685547 C 97.16374206542969 165.32240295410156 95.32393646240234 169.33489990234375 97.9903564453125 161.2991943359375 C 90.02786254882812 159.3214874267578 122.3109130859375 165.28176879882812 117.27218627929688 158.9415740966797 C 129.8048095703125 169.1846160888672 118.9370346069336 152.48129272460938 125.38360595703125 129.55015563964844" stroke-width="0.0" fill="rgb(255, 251, 236)" opacity="0.91690767" stroke="rgb(8, 4, 17)" stroke-opacity="0.16757208" stroke-linecap="round" stroke-linejoin="round"/>
    <path d="M 278.6064453125 140.06887817382812 C 283.09765625 176.8323211669922 274.5560607910156 171.2041778564453 264.9236145019531 171.12960815429688 C 266.4391784667969 165.84132385253906 260.13836669921875 160.9842987060547 270.3252868652344 162.91635131835938 C 267.7442932128906 166.36109924316406 269.2554016113281 124.54588317871094 278.8431396484375 151.7235565185547 C 266.1217956542969 145.502685546875 277.642578125 175.97457885742188 278.6064453125 140.06887817382812" stroke-width="0.0" fill="rgb(255, 244, 223)" opacity="0.9059018" stroke="rgb(4, 43, 67)" stroke-opacity="0.7139401" stroke-linecap="round" stroke-linejoin="round"/>
    <path d="M 87.30099487304688 373.95355224609375 C 87.5201416015625 408.0023193359375 89.111572265625 399.7481384277344 78.41883087158203 400.9478759765625 C 77.743896484375 406.8879089355469 78.98245239257812 382.27728271484375 79.00617218017578 384.42718505859375 C 77.37646484375 377.16888427734375 77.01487731933594 383.0380859375 87.02104949951172 369.3191223144531 C 87.1372299194336 363.282470703125 86.5205078125 367.9523620605469 87.30099487304688 373.95355224609375" stroke-width="0.0" fill="rgb(255, 250, 232)" opacity="0.95038533" stroke="rgb(225, 131, 172)" stroke-opacity="0.20707238" stroke-linecap="round" stroke-linejoin="round"/>
    <path d="M 314.40423583984375 231.67503356933594 C 314.2059326171875 242.79811096191406 314.949462890625 259.78240966796875 314.6747131347656 255.97789001464844 C 303.5973815917969 254.01779174804688 307.95257568359375 261.42706298828125 307.29339599609375 235.8397216796875 C 306.8124694824219 233.1501007080078 309.07513427734375 231.15158081054688 311.56463623046875 231.63644409179688 C 316.19451904296875 233.43264770507812 314.22967529296875 243.80789184570312 314.40423583984375 231.67503356933594" stroke-width="0.0" fill="rgb(35, 39, 60)" opacity="0.98611903" stroke="rgb(215, 63, 134)" stroke-opacity="0.5109356" stroke-linecap="round" stroke-linejoin="round"/>
    <path d="M 127.4754409790039 98.63130187988281 C 126.94081115722656 136.6377410888672 129.25070190429688 129.3201904296875 117.29351806640625 127.87716674804688 C 100.4791030883789 124.96208190917969 99.06338500976562 119.79322052001953 115.38823699951172 123.82662963867188 C 105.60423278808594 114.0796127319336 117.97735595703125 117.29048156738281 118.125732421875 112.69683074951172 C 137.89727783203125 118.68096923828125 107.0277328491211 91.78582000732422 127.4754409790039 98.63130187988281" stroke-width="0.0" fill="rgb(255, 250, 233)" opacity="0.88248044" stroke="rgb(62, 162, 232)" stroke-opacity="0.59128255" stroke-linecap="round" stroke-linejoin="round"/>
    <path d="M 55.778038024902344 296.57098388671875 C 55.25330352783203 316.15380859375 37.036739349365234 283.125732421875 34.26599884033203 308.5774230957031 C 13.581391334533691 308.3394470214844 9.400129318237305 308.92303466796875 6.0067524909973145 306.8443298339844 C 14.06267261505127 276.725830078125 25.711206436157227 282.8128967285156 56.86142349243164 275.7055969238281 C 71.67338562011719 271.1788330078125 70.69245147705078 269.1565856933594 55.778038024902344 296.57098388671875" stroke-width="0.0" fill="rgb(231, 185, 160)" opacity="0.7875091" stroke="rgb(183, 197, 47)" stroke-opacity="0.4402247" stroke-linecap="round" stroke-linejoin="round"/>
  </g>
</svg>
