<?xml version="1.0" ?>
<svg xmlns="http://www.w3.org/2000/svg" version="1.1" width="508" height="512">
  <defs/>
  <g>
    <path d="M 401.9026184082031 8.05327033996582 C 155.0002899169922 97.69380187988281 308.89044189453125 -24.03873634338379 256.9798278808594 226.08580017089844 C 56.45781707763672 261.9341735839844 2.548255681991577 226.3253173828125 6.000569820404053 181.3905029296875 C 5.1955084800720215 -56.005149841308594 6.311649322509766 28.230344772338867 5.517310619354248 8.043089866638184 C 166.6995849609375 8.015887260437012 179.0335235595703 7.977584362030029 401.9026184082031 8.05327033996582" stroke-width="0.0" fill="rgb(94, 96, 80)" opacity="0.31604487" stroke="rgb(196, 150, 217)" stroke-opacity="0.76551455" stroke-linecap="round" stroke-linejoin="round"/>
    <path d="M 503.2877502441406 8.597946166992188 C 492.029541015625 309.87933349609375 542.75732421875 331.7815246582031 366.4873962402344 334.4903259277344 C 336.3270263671875 119.4921875 399.13531494140625 45.73575973510742 383.4993896484375 31.15328025817871 C 383.84356689453125 4.341317653656006 395.9240417480469 8.805795669555664 437.4732971191406 8.436573028564453 C 468.3631286621094 8.683015823364258 482.76513671875 7.274723529815674 503.2877502441406 8.597946166992188" stroke-width="0.0" fill="rgb(116, 111, 109)" opacity="0.5191318" stroke="rgb(132, 108, 241)" stroke-opacity="0.247607" stroke-linecap="round" stroke-linejoin="round"/>
    <path d="M 466.0116271972656 15.830872535705566 C 410.3499450683594 35.41306686401367 385.33111572265625 12.833598136901855 377.4235534667969 182.88755798339844 C 246.34642028808594 242.83477783203125 240.58555603027344 224.90399169921875 306.1031494140625 8.065408706665039 C 367.2748718261719 8.003483772277832 376.081787109375 7.9873247146606445 419.2552490234375 8.039493560791016 C 452.86968994140625 8.946050643920898 484.0397644042969 4.889965534210205 466.0116271972656 15.830872535705566" stroke-width="0.0" fill="rgb(57, 134, 151)" opacity="0.2884399" stroke="rgb(247, 74, 75)" stroke-opacity="0.6924899" stroke-linecap="round" stroke-linejoin="round"/>
    <path d="M 254.88333129882812 349.7456359863281 C 238.49468994140625 454.6756896972656 280.23291015625 407.8653564453125 32.40815353393555 425.8690490722656 C -22.447914123535156 402.15777587890625 7.55959415435791 401.9972839355469 89.57916259765625 377.9947509765625 C 173.23631286621094 372.08203125 64.51080322265625 412.11700439453125 210.99365234375 398.4952087402344 C 157.34117126464844 336.34661865234375 275.3315734863281 193.59092712402344 254.88333129882812 349.7456359863281" stroke-width="0.0" fill="rgb(27, 52, 77)" opacity="0.6680509" stroke="rgb(27, 254, 142)" stroke-opacity="0.2324643" stroke-linecap="round" stroke-linejoin="round"/>
    <path d="M 457.3764953613281 296.1505432128906 C 429.9774475097656 241.26210021972656 452.9610900878906 305.6032409667969 432.47564697265625 291.3349914550781 C 431.0580749511719 270.2760314941406 442.5364074707031 275.0636291503906 399.9073791503906 277.0188903808594 C 405.58270263671875 253.54388427734375 393.48931884765625 264.29693603515625 429.4053955078125 263.0522155761719 C 461.9189453125 264.3247375488281 458.9682922363281 250.54220581054688 457.3764953613281 296.1505432128906" stroke-width="0.0" fill="rgb(255, 249, 232)" opacity="0.9551824" stroke="rgb(42, 155, 121)" stroke-opacity="0.34083197" stroke-linecap="round" stroke-linejoin="round"/>
    <path d="M 457.7547302246094 208.0198211669922 C 452.5818786621094 285.2817687988281 477.01361083984375 255.6544952392578 399.6685791015625 263.4884338378906 C 411.2538146972656 289.50469970703125 369.1737976074219 331.6329345703125 378.5444030761719 226.21937561035156 C 358.2751770019531 91.20741271972656 403.68109130859375 134.51402282714844 393.8878173828125 213.296875 C 447.63092041015625 214.48992919921875 458.54608154296875 217.1400604248047 457.7547302246094 208.0198211669922" stroke-width="0.0" fill="rgb(23, 30, 54)" opacity="0.79678607" stroke="rgb(57, 35, 238)" stroke-opacity="0.42043397" stroke-linecap="round" stroke-linejoin="round"/>
    <path d="M 502.3561706542969 420.110107421875 C 503.3695373535156 439.4855041503906 499.4100341796875 430.2712707519531 503.1678466796875 431.2768859863281 C 454.9403381347656 431.9502258300781 438.1865234375 430.85235595703125 272.45281982421875 431.6603698730469 C 238.77322387695312 416.8050537109375 233.99459838867188 419.7428894042969 404.8361511230469 419.48779296875 C 502.3556823730469 419.6200866699219 504.33807373046875 419.206787109375 502.3561706542969 420.110107421875" stroke-width="0.0" fill="rgb(10, 10, 34)" opacity="0.8506155" stroke="rgb(14, 49, 44)" stroke-opacity="0.5513878" stroke-linecap="round" stroke-linejoin="round"/>
  </g>
</svg>
