<?xml version="1.0" ?>
<svg xmlns="http://www.w3.org/2000/svg" version="1.1" width="508" height="512">
  <defs/>
  <g>
    <path d="M 0.0 0.0 L 508.0 0.0 L 508.0 512.0 L 0.0 512.0 L 0.0 0.0" stroke-width="0.0" fill="rgb(255, 255, 255)" opacity="1.0" stroke="rgb(0, 0, 0)" stroke-opacity="0.0" stroke-linecap="round" stroke-linejoin="round"/>
    <path d="M 6.0 12.0 C 7.894362926483154 61.66946029663086 2.1445438861846924 113.99626159667969 9.0 162.0 L 93.0 161.0 C 93.34518432617188 148.05838012695312 103.21867370605469 138.07666015625 100.0 125.0 C 118.73140716552734 105.72435760498047 95.82666015625 80.2240219116211 121.0 61.0 C 120.99580383300781 57.0 121.52481842041016 53.0 126.0 49.0 C 131.98728942871094 56.55406951904297 127.08448791503906 62.35296630859375 138.0 69.0 C 144.7205047607422 85.0 141.09637451171875 101.0 142.0 117.0 C 158.38926696777344 122.90518951416016 143.09890747070312 140.07098388671875 155.0 149.0 L 157.0 161.0 L 262.0 161.0 C 268.1009826660156 148.3333282470703 263.109130859375 135.6666717529297 278.0 123.0 C 297.0316162109375 131.72158813476562 285.36712646484375 148.95933532714844 296.0 161.0 L 312.0 161.0 C 317.6763000488281 145.8914794921875 335.2583312988281 129.56744384765625 350.0 126.0 C 348.23797607421875 119.37744903564453 353.75042724609375 104.14564514160156 362.0 115.0 C 356.06951904296875 131.48904418945312 377.0828857421875 127.8800048828125 388.0 144.0 L 397.0 161.0 L 500.0 160.0 L 500.0 12.0 L 495.0 9.0 L 10.0 9.0 L 6.0 12.0" stroke-width="2.0" fill="rgb(146, 177, 178)" opacity="1.0" stroke="rgb(0, 0, 0)" stroke-opacity="0.0" stroke-linecap="round" stroke-linejoin="round"/>
    <path d="M 8.0 423.0 C 7.661574363708496 449.6666564941406 3.1485817432403564 476.3333435058594 8.0 503.0 L 425.0 504.0 C 427.3477783203125 500.76385498046875 428.7535705566406 498.969970703125 432.0 498.0 L 484.0 498.0 C 489.15802001953125 503.6922302246094 494.6948547363281 505.02838134765625 501.0 501.0 L 500.0 432.0 L 235.0 432.0 C 228.5214385986328 430.3460388183594 231.19354248046875 426.1656494140625 231.0 422.0 L 152.0 423.0 C 145.17227172851562 429.5076599121094 167.48927307128906 423.6312561035156 159.0 430.0 C 144.6666717529297 428.06646728515625 130.3333282470703 433.97174072265625 116.0 429.0 C 122.51103973388672 416.5336608886719 97.64920043945312 424.033203125 90.0 422.0 C 75.66666412353516 434.3763732910156 61.33333206176758 425.4013671875 47.0 425.0 C 44.33333206176758 424.3333435058594 47.66666793823242 422.1666564941406 48.0 423.0 C 33.00460433959961 425.3528137207031 22.329883575439453 423.55792236328125 8.0 423.0" stroke-width="2.0" fill="rgb(117, 152, 164)" opacity="1.0" stroke="rgb(0, 0, 0)" stroke-opacity="0.0" stroke-linecap="round" stroke-linejoin="round"/>
    <path d="M 94.0 164.0 L 7.0 165.0 C 5.901442527770996 212.0 4.623919486999512 259.0 8.0 306.0 C 21.66666603088379 309.5717468261719 35.33333206176758 300.28253173828125 49.0 301.0 C 57.4522590637207 281.9256286621094 78.32360076904297 268.6769104003906 96.0 273.0 L 94.0 164.0" stroke-width="2.0" fill="rgb(229, 190, 168)" opacity="1.0" stroke="rgb(0, 0, 0)" stroke-opacity="0.0" stroke-linecap="round" stroke-linejoin="round"/>
    <path d="M 126.0 56.0 C 125.84416961669922 61.747554779052734 116.41085052490234 65.83744049072266 113.0 73.0 C 110.24635314941406 88.66666412353516 111.93477630615234 104.33333587646484 111.0 120.0 C 94.04844665527344 122.61656951904297 113.30968475341797 144.012939453125 97.0 148.0 L 98.0 275.0 C 115.1421127319336 281.67193603515625 112.9530029296875 305.2109069824219 128.0 302.0 C 133.7677001953125 281.5684814453125 154.6207733154297 295.5860290527344 168.0 291.0 L 168.0 253.0 L 152.0 251.0 L 153.0 152.0 C 140.2924346923828 141.2806396484375 155.5359649658203 123.1186294555664 139.0 120.0 C 135.4872589111328 101.01458740234375 148.81015014648438 77.77745056152344 127.0 62.0 L 126.0 56.0" stroke-width="2.0" fill="rgb(167, 167, 166)" opacity="1.0" stroke="rgb(0, 0, 0)" stroke-opacity="0.0" stroke-linecap="round" stroke-linejoin="round"/>
    <path d="M 156.0 165.0 C 154.92208862304688 193.0 153.12762451171875 221.0 157.0 249.0 C 192.0 248.78173828125 227.0 252.69546508789062 262.0 248.0 C 261.3719177246094 220.0 265.4820556640625 192.0 261.0 164.0 L 156.0 165.0" stroke-width="2.0" fill="rgb(228, 189, 167)" opacity="1.0" stroke="rgb(0, 0, 0)" stroke-opacity="0.0" stroke-linecap="round" stroke-linejoin="round"/>
    <path d="M 127.0 63.0 C 120.98236846923828 62.11468505859375 115.54109191894531 67.92410278320312 113.0 74.0 L 111.0 120.0 C 94.92811584472656 123.29730987548828 113.07188415527344 141.1130828857422 97.0 149.0 C 98.61785888671875 190.0 98.71113586425781 231.0 99.0 272.0 C 100.45056915283203 276.42364501953125 107.55084991455078 281.8254089355469 112.0 278.0 C 110.2176284790039 273.9752197265625 110.69256591796875 267.3665771484375 115.0 265.0 C 106.16876983642578 254.14344787597656 118.98831939697266 255.43260192871094 126.0 251.0 L 152.0 250.0 L 153.0 151.0 C 139.3515167236328 142.51657104492188 155.47898864746094 124.00040435791016 139.0 120.0 C 135.104736328125 101.94853973388672 147.79080200195312 78.73644256591797 127.0 63.0" stroke-width="2.0" fill="rgb(150, 152, 153)" opacity="1.0" stroke="rgb(0, 0, 0)" stroke-opacity="0.0" stroke-linecap="round" stroke-linejoin="round"/>
    <path d="M 257.0 253.0 L 211.0 253.0 C 212.14549255371094 270.6666564941406 212.80677795410156 288.3333435058594 209.0 306.0 L 197.0 308.0 L 198.0 399.0 C 212.0 397.6223449707031 226.0 402.0467529296875 240.0 398.0 L 240.0 325.0 C 249.35348510742188 320.2619934082031 267.76873779296875 330.9779357910156 268.0 316.0 C 263.1199645996094 304.35064697265625 273.4072265625 285.3793640136719 258.0 280.0 L 257.0 253.0" stroke-width="2.0" fill="rgb(96, 147, 171)" opacity="1.0" stroke="rgb(0, 0, 0)" stroke-opacity="0.0" stroke-linecap="round" stroke-linejoin="round"/>
    <path d="M 397.0 165.0 C 399.7852478027344 180.0 394.7882385253906 195.0 401.0 210.0 C 419.3333435058594 210.5961456298828 437.6666564941406 210.79324340820312 456.0 210.0 C 464.9500427246094 226.60301208496094 452.16033935546875 244.9559783935547 465.0 260.0 L 499.0 261.0 C 499.9285583496094 228.6666717529297 502.0482177734375 196.3333282470703 498.0 164.0 L 397.0 165.0" stroke-width="2.0" fill="rgb(229, 190, 167)" opacity="1.0" stroke="rgb(0, 0, 0)" stroke-opacity="0.0" stroke-linecap="round" stroke-linejoin="round"/>
    <path d="M 146.0 307.0 C 141.36892700195312 323.6666564941406 145.30691528320312 340.3333435058594 144.0 357.0 L 133.0 360.0 L 133.0 399.0 C 145.9404296875 401.4537353515625 140.12294006347656 382.2274169921875 140.0 374.0 C 132.46435546875 377.29766845703125 142.02374267578125 366.4757385253906 144.0 367.0 C 145.98924255371094 371.5739440917969 154.94580078125 374.60986328125 145.0 375.0 L 146.0 400.0 C 154.27711486816406 398.0627136230469 167.6768035888672 405.3390808105469 170.0 393.0 C 171.11383056640625 405.7605895996094 186.4102325439453 397.79388427734375 195.0 400.0 L 196.0 309.0 C 179.6666717529297 304.9497375488281 163.3333282470703 308.1330871582031 146.0 307.0" stroke-width="2.0" fill="rgb(226, 224, 213)" opacity="1.0" stroke="rgb(0, 0, 0)" stroke-opacity="0.0" stroke-linecap="round" stroke-linejoin="round"/>
    <path d="M 235.0 417.0 L 236.0 430.0 L 501.0 429.0 L 500.0 412.0 C 412.3333435058594 413.8240966796875 324.6666564941406 411.6903991699219 237.0 413.0 L 235.0 417.0" stroke-width="2.0" fill="rgb(116, 98, 103)" opacity="1.0" stroke="rgb(0, 0, 0)" stroke-opacity="0.0" stroke-linecap="round" stroke-linejoin="round"/>
    <path d="M 88.0 303.0 L 87.0 398.0 L 104.0 398.0 C 104.61998748779297 388.6611328125 99.46074676513672 376.6740417480469 106.0 369.0 C 112.31895446777344 378.6666564941406 105.89278411865234 388.3333435058594 108.0 398.0 L 130.0 399.0 L 131.0 360.0 C 134.96441650390625 353.845947265625 140.58319091796875 359.8809509277344 143.0 354.0 L 143.0 305.0 L 149.0 304.0 L 88.0 303.0" stroke-width="2.0" fill="rgb(97, 147, 171)" opacity="1.0" stroke="rgb(0, 0, 0)" stroke-opacity="0.0" stroke-linecap="round" stroke-linejoin="round"/>
    <path d="M 332.0 138.0 C 315.6181640625 151.0 315.18328857421875 164.0 316.0 177.0 C 328.0 180.19615173339844 340.0 172.34310913085938 352.0 180.0 L 352.0 212.0 C 357.6666564941406 204.4761199951172 363.3333435058594 214.9443817138672 369.0 209.0 C 377.0 212.41587829589844 385.0 211.68019104003906 393.0 212.0 C 389.22216796875 186.30569458007812 405.2923278808594 158.03732299804688 373.0 134.0 C 359.6666564941406 127.91606140136719 346.3333435058594 126.8223648071289 332.0 138.0" stroke-width="2.0" fill="rgb(90, 124, 141)" opacity="1.0" stroke="rgb(0, 0, 0)" stroke-opacity="0.0" stroke-linecap="round" stroke-linejoin="round"/>
    <path d="M 6.0 402.0 C 1.7730098962783813 412.7900390625 17.99984359741211 409.3426208496094 22.0 422.0 C 33.706119537353516 423.9250183105469 39.91351318359375 421.7379455566406 49.0 410.0 C 55.49589157104492 407.47235107421875 62.37642288208008 415.66912841796875 65.0 422.0 C 121.0 416.4184875488281 177.0 419.9955749511719 233.0 419.0 C 232.87033081054688 412.154541015625 244.6757049560547 408.1078796386719 239.0 401.0 L 6.0 402.0" stroke-width="2.0" fill="rgb(42, 43, 61)" opacity="1.0" stroke="rgb(0, 0, 0)" stroke-opacity="0.0" stroke-linecap="round" stroke-linejoin="round"/>
    <path d="M 455.0 213.0 C 448.3333435058594 219.1418914794922 441.6666564941406 210.40562438964844 435.0 215.0 C 416.3333435058594 213.56390380859375 397.6666564941406 213.36932373046875 379.0 214.0 C 378.9234313964844 229.11276245117188 372.1607971191406 244.1711883544922 387.0 258.0 C 392.84759521484375 265.80853271484375 387.5785827636719 272.5232238769531 379.0 272.0 C 379.1292724609375 277.6666564941406 378.82476806640625 283.3333435058594 377.0 289.0 C 384.0 293.4783630371094 391.0 289.80426025390625 398.0 291.0 C 401.7243347167969 281.0 394.2323303222656 271.0 401.0 261.0 L 455.0 261.0 L 455.0 213.0" stroke-width="2.0" fill="rgb(46, 49, 68)" opacity="1.0" stroke="rgb(0, 0, 0)" stroke-opacity="0.0" stroke-linecap="round" stroke-linejoin="round"/>
    <path d="M 375.0 293.0 L 375.0 367.0 L 424.0 367.0 C 422.0172424316406 342.6666564941406 428.5775451660156 318.3333435058594 425.0 294.0 L 375.0 293.0" stroke-width="2.0" fill="rgb(218, 189, 172)" opacity="1.0" stroke="rgb(0, 0, 0)" stroke-opacity="0.0" stroke-linecap="round" stroke-linejoin="round"/>
    <path d="M 212.0 253.0 L 210.0 304.0 C 221.73692321777344 308.9046325683594 245.08628845214844 301.8602294921875 241.0 322.0 C 241.82293701171875 317.1360168457031 259.57867431640625 318.59197998046875 257.0 322.0 C 263.3878173828125 323.9866027832031 262.51239013671875 318.6734619140625 267.0 320.0 C 264.53485107421875 306.2369079589844 273.7522277832031 285.18450927734375 258.0 279.0 L 258.0 254.0 C 243.0 249.3144989013672 228.0 255.0144500732422 212.0 253.0" stroke-width="2.0" fill="rgb(98, 150, 175)" opacity="1.0" stroke="rgb(0, 0, 0)" stroke-opacity="0.0" stroke-linecap="round" stroke-linejoin="round"/>
    <path d="M 236.0 427.0 L 239.0 430.0 L 500.0 430.0 L 501.0 420.0 L 241.0 420.0 C 238.38478088378906 421.181884765625 236.6985626220703 423.5347595214844 236.0 427.0" stroke-width="2.0" fill="rgb(48, 46, 62)" opacity="1.0" stroke="rgb(0, 0, 0)" stroke-opacity="0.0" stroke-linecap="round" stroke-linejoin="round"/>
    <path d="M 428.0 330.0 C 423.37078857421875 356.6666564941406 427.3055725097656 383.3333435058594 426.0 410.0 C 435.84429931640625 415.084716796875 431.92059326171875 402.91680908203125 435.0 398.0 C 439.1977233886719 402.3333435058594 435.4591369628906 406.6666564941406 438.0 411.0 L 463.0 411.0 L 463.0 332.0 C 451.6666564941406 328.64874267578125 440.3333435058594 332.9894714355469 428.0 330.0" stroke-width="2.0" fill="rgb(226, 221, 209)" opacity="1.0" stroke="rgb(0, 0, 0)" stroke-opacity="0.0" stroke-linecap="round" stroke-linejoin="round"/>
    <path d="M 465.0 332.0 L 465.0 409.0 L 500.0 410.0 L 501.0 332.0 L 465.0 332.0" stroke-width="2.0" fill="rgb(87, 135, 160)" opacity="1.0" stroke="rgb(0, 0, 0)" stroke-opacity="0.0" stroke-linecap="round" stroke-linejoin="round"/>
    <path d="M 367.0 139.0 C 345.0972900390625 110.6738052368164 307.9429931640625 156.3072052001953 316.0 176.0 L 373.0 177.0 C 375.2328186035156 164.6666717529297 373.2081604003906 152.3333282470703 367.0 139.0" stroke-width="2.0" fill="rgb(102, 158, 178)" opacity="1.0" stroke="rgb(0, 0, 0)" stroke-opacity="0.0" stroke-linecap="round" stroke-linejoin="round"/>
    <path d="M 276.0 43.0 C 242.75682067871094 49.21650695800781 255.84384155273438 98.29719543457031 285.0 93.0 C 319.4022521972656 90.27357482910156 309.11260986328125 35.8477668762207 276.0 43.0" stroke-width="2.0" fill="rgb(248, 243, 226)" opacity="1.0" stroke="rgb(0, 0, 0)" stroke-opacity="0.0" stroke-linecap="round" stroke-linejoin="round"/>
    <path d="M 129.0 167.0 L 128.0 250.0 L 152.0 250.0 L 152.0 167.0 L 129.0 167.0" stroke-width="2.0" fill="rgb(48, 48, 66)" opacity="1.0" stroke="rgb(0, 0, 0)" stroke-opacity="0.0" stroke-linecap="round" stroke-linejoin="round"/>
    <path d="M 171.0 252.0 L 170.0 305.0 L 208.0 305.0 C 209.82888793945312 288.0 208.45091247558594 271.0 195.0 254.0 C 187.3333282470703 250.20628356933594 179.6666717529297 252.77569580078125 171.0 252.0" stroke-width="2.0" fill="rgb(78, 114, 138)" opacity="1.0" stroke="rgb(0, 0, 0)" stroke-opacity="0.0" stroke-linecap="round" stroke-linejoin="round"/>
    <path d="M 321.0 308.0 L 321.0 350.0 L 364.0 349.0 L 364.0 308.0 L 321.0 308.0" stroke-width="2.0" fill="rgb(115, 164, 181)" opacity="1.0" stroke="rgb(0, 0, 0)" stroke-opacity="0.0" stroke-linecap="round" stroke-linejoin="round"/>
    <path d="M 380.0 370.0 L 381.0 410.0 L 424.0 409.0 L 424.0 370.0 L 380.0 370.0" stroke-width="2.0" fill="rgb(73, 88, 103)" opacity="1.0" stroke="rgb(0, 0, 0)" stroke-opacity="0.0" stroke-linecap="round" stroke-linejoin="round"/>
    <path d="M 279.0 126.0 C 270.6402282714844 132.0 275.6073303222656 138.0 269.0 144.0 L 264.0 189.0 L 278.0 190.0 C 285.2787170410156 196.11709594726562 272.6102600097656 214.80809020996094 285.0 210.0 C 288.1289978027344 214.52044677734375 292.34112548828125 214.52044677734375 294.0 210.0 L 293.0 163.0 C 280.5985107421875 154.94091796875 295.31591796875 136.74826049804688 279.0 126.0" stroke-width="2.0" fill="rgb(116, 120, 126)" opacity="1.0" stroke="rgb(0, 0, 0)" stroke-opacity="0.0" stroke-linecap="round" stroke-linejoin="round"/>
    <path d="M 402.0 263.0 L 402.0 291.0 C 420.3333435058594 289.98992919921875 438.6666564941406 293.1470947265625 457.0 292.0 L 457.0 263.0 L 402.0 263.0" stroke-width="2.0" fill="rgb(218, 214, 204)" opacity="1.0" stroke="rgb(0, 0, 0)" stroke-opacity="0.0" stroke-linecap="round" stroke-linejoin="round"/>
    <path d="M 359.0 130.0 C 386.30267333984375 155.67857360839844 368.9218444824219 185.6577911376953 377.0 213.0 L 393.0 212.0 C 391.69451904296875 186.6666717529297 404.05841064453125 161.3333282470703 376.0 136.0 C 370.6666564941406 132.9896697998047 365.3333435058594 130.20755004882812 359.0 130.0" stroke-width="2.0" fill="rgb(46, 49, 67)" opacity="1.0" stroke="rgb(0, 0, 0)" stroke-opacity="0.0" stroke-linecap="round" stroke-linejoin="round"/>
    <path d="M 459.0 297.0 C 458.8556213378906 307.6666564941406 458.9599304199219 318.3333435058594 461.0 329.0 L 501.0 329.0 C 500.4109191894531 318.0 503.6622314453125 307.0 500.0 296.0 L 459.0 297.0" stroke-width="2.0" fill="rgb(225, 219, 207)" opacity="1.0" stroke="rgb(0, 0, 0)" stroke-opacity="0.0" stroke-linecap="round" stroke-linejoin="round"/>
    <path d="M 55.0 300.0 C 73.33506774902344 304.643310546875 95.99870300292969 300.6840515136719 116.0 302.0 C 112.51575469970703 269.6571044921875 62.607791900634766 266.51519775390625 55.0 300.0" stroke-width="2.0" fill="rgb(84, 115, 132)" opacity="1.0" stroke="rgb(0, 0, 0)" stroke-opacity="0.0" stroke-linecap="round" stroke-linejoin="round"/>
    <path d="M 355.0 88.0 C 378.3344421386719 92.65140533447266 405.9991455078125 88.67803955078125 431.0 90.0 C 422.7028503417969 81.05187225341797 404.96197509765625 84.1772689819336 406.0 69.0 C 396.3548889160156 53.98021697998047 373.86578369140625 64.11482238769531 373.0 80.0 C 366.6618347167969 81.18252563476562 359.9121398925781 80.86627960205078 355.0 88.0" stroke-width="2.0" fill="rgb(239, 237, 220)" opacity="1.0" stroke="rgb(0, 0, 0)" stroke-opacity="0.0" stroke-linecap="round" stroke-linejoin="round"/>
    <path d="M 171.0 252.0 L 170.0 305.0 C 177.0 304.9707336425781 184.0 308.2145690917969 191.0 304.0 L 191.0 253.0 L 171.0 252.0" stroke-width="2.0" fill="rgb(99, 155, 180)" opacity="1.0" stroke="rgb(0, 0, 0)" stroke-opacity="0.0" stroke-linecap="round" stroke-linejoin="round"/>
    <path d="M 268.0 325.0 L 241.0 325.0 C 242.24349975585938 353.3333435058594 238.4575653076172 381.6666564941406 243.0 410.0 L 247.0 410.0 L 248.0 351.0 L 268.0 349.0 L 268.0 325.0" stroke-width="2.0" fill="rgb(49, 51, 72)" opacity="1.0" stroke="rgb(0, 0, 0)" stroke-opacity="0.0" stroke-linecap="round" stroke-linejoin="round"/>
    <path d="M 428.0 294.0 L 427.0 328.0 L 457.0 329.0 L 458.0 295.0 L 428.0 294.0" stroke-width="2.0" fill="rgb(46, 50, 67)" opacity="1.0" stroke="rgb(0, 0, 0)" stroke-opacity="0.0" stroke-linecap="round" stroke-linejoin="round"/>
    <path d="M 460.0 264.0 C 461.4404296875 273.9579162597656 457.03204345703125 285.5915222167969 463.0 294.0 L 495.0 293.0 L 494.0 263.0 L 460.0 264.0" stroke-width="2.0" fill="rgb(44, 47, 66)" opacity="1.0" stroke="rgb(0, 0, 0)" stroke-opacity="0.0" stroke-linecap="round" stroke-linejoin="round"/>
    <path d="M 127.0 64.0 L 128.0 145.0 L 146.0 146.0 C 147.7097625732422 138.9478302001953 151.57080078125 119.39923858642578 139.0 121.0 C 135.1417999267578 102.61685180664062 148.8108673095703 79.06752014160156 127.0 64.0" stroke-width="2.0" fill="rgb(46, 51, 70)" opacity="1.0" stroke="rgb(0, 0, 0)" stroke-opacity="0.0" stroke-linecap="round" stroke-linejoin="round"/>
    <path d="M 335.0 263.0 L 335.0 268.0 L 388.0 268.0 C 386.2095642089844 241.41287231445312 345.1313781738281 232.70582580566406 335.0 263.0" stroke-width="2.0" fill="rgb(105, 161, 183)" opacity="1.0" stroke="rgb(0, 0, 0)" stroke-opacity="0.0" stroke-linecap="round" stroke-linejoin="round"/>
    <path d="M 75.0 257.0 C 65.58106231689453 246.9272918701172 56.355533599853516 249.66146850585938 58.0 237.0 C 47.60537338256836 222.44769287109375 26.26314926147461 233.78150939941406 29.0 248.0 C 23.66666603088379 251.7673797607422 18.33333396911621 248.84388732910156 13.0 256.0 L 75.0 257.0" stroke-width="2.0" fill="rgb(251, 238, 217)" opacity="1.0" stroke="rgb(0, 0, 0)" stroke-opacity="0.0" stroke-linecap="round" stroke-linejoin="round"/>
    <path d="M 271.0 301.0 L 270.0 350.0 L 288.0 351.0 L 290.0 302.0 L 271.0 301.0" stroke-width="2.0" fill="rgb(239, 236, 225)" opacity="1.0" stroke="rgb(0, 0, 0)" stroke-opacity="0.0" stroke-linecap="round" stroke-linejoin="round"/>
    <path d="M 279.0 127.0 L 280.0 212.0 C 284.5652770996094 205.485107421875 291.01104736328125 220.03497314453125 294.0 210.0 L 293.0 162.0 C 280.47113037109375 158.69349670410156 295.5310363769531 134.58963012695312 279.0 127.0" stroke-width="2.0" fill="rgb(51, 52, 68)" opacity="1.0" stroke="rgb(0, 0, 0)" stroke-opacity="0.0" stroke-linecap="round" stroke-linejoin="round"/>
    <path d="M 33.0 308.0 L 6.0 309.0 L 7.0 341.0 L 34.0 340.0 L 33.0 308.0" stroke-width="2.0" fill="rgb(98, 151, 173)" opacity="1.0" stroke="rgb(0, 0, 0)" stroke-opacity="0.0" stroke-linecap="round" stroke-linejoin="round"/>
    <path d="M 307.0 298.0 L 291.0 299.0 C 292.3088684082031 315.6893005371094 288.3663024902344 334.9695129394531 293.0 350.0 L 308.0 349.0 L 307.0 298.0" stroke-width="2.0" fill="rgb(46, 49, 67)" opacity="1.0" stroke="rgb(0, 0, 0)" stroke-opacity="0.0" stroke-linecap="round" stroke-linejoin="round"/>
    <path d="M 282.0 241.0 C 276.3461608886719 250.92457580566406 279.8503723144531 254.53768920898438 290.0 256.0 C 288.9257507324219 268.6666564941406 291.072509765625 281.3333435058594 292.0 294.0 C 301.74371337890625 296.9212341308594 314.3282165527344 296.2582092285156 310.0 283.0 C 294.11865234375 284.2514343261719 307.917236328125 263.50909423828125 299.0 259.0 C 302.2447509765625 250.9705810546875 292.7228088378906 236.69998168945312 282.0 241.0" stroke-width="2.0" fill="rgb(58, 78, 97)" opacity="1.0" stroke="rgb(0, 0, 0)" stroke-opacity="0.0" stroke-linecap="round" stroke-linejoin="round"/>
    <path d="M 317.0 432.0 C 316.72967529296875 435.4380798339844 316.7498779296875 439.18218994140625 321.0 440.0 C 348.6666564941406 438.2188415527344 376.3333435058594 440.6624450683594 404.0 438.0 C 405.9112243652344 430.78021240234375 401.2318115234375 432.73492431640625 396.0 431.0 L 317.0 432.0" stroke-width="2.0" fill="rgb(232, 228, 215)" opacity="1.0" stroke="rgb(0, 0, 0)" stroke-opacity="0.0" stroke-linecap="round" stroke-linejoin="round"/>
    <path d="M 312.0 164.0 L 296.0 165.0 C 298.6294860839844 179.36326599121094 290.3230895996094 196.2929229736328 301.0 209.0 L 311.0 207.0 C 312.0733947753906 193.0 313.2969055175781 179.0 312.0 164.0" stroke-width="2.0" fill="rgb(228, 189, 169)" opacity="1.0" stroke="rgb(0, 0, 0)" stroke-opacity="0.0" stroke-linecap="round" stroke-linejoin="round"/>
    <path d="M 192.0 252.0 L 192.0 306.0 L 208.0 305.0 C 209.76388549804688 287.3333435058594 208.04086303710938 269.6666564941406 192.0 252.0" stroke-width="2.0" fill="rgb(44, 49, 71)" opacity="1.0" stroke="rgb(0, 0, 0)" stroke-opacity="0.0" stroke-linecap="round" stroke-linejoin="round"/>
    <path d="M 218.0 436.0 L 220.0 441.0 C 241.0 438.9360656738281 262.0 444.1667785644531 283.0 442.0 C 282.3454895019531 434.4279479980469 274.8260498046875 431.24859619140625 269.0 431.0 L 220.0 431.0 L 218.0 436.0" stroke-width="2.0" fill="rgb(219, 222, 209)" opacity="1.0" stroke="rgb(0, 0, 0)" stroke-opacity="0.0" stroke-linecap="round" stroke-linejoin="round"/>
    <path d="M 85.0 276.0 C 73.15910339355469 274.19573974609375 56.24932861328125 287.61309814453125 55.0 301.0 L 88.0 302.0 C 87.83137512207031 293.6666564941406 88.9113540649414 285.3333435058594 85.0 276.0" stroke-width="2.0" fill="rgb(117, 171, 187)" opacity="1.0" stroke="rgb(0, 0, 0)" stroke-opacity="0.0" stroke-linecap="round" stroke-linejoin="round"/>
    <path d="M 289.0 241.0 C 291.10504150390625 258.6666564941406 288.42364501953125 276.3333435058594 293.0 294.0 C 301.5330505371094 295.0731201171875 313.0196533203125 295.7876281738281 310.0 284.0 C 294.6376647949219 282.5099182128906 307.57159423828125 265.0986022949219 299.0 259.0 C 299.5301208496094 253.30908203125 298.55743408203125 243.50338745117188 289.0 241.0" stroke-width="2.0" fill="rgb(48, 56, 75)" opacity="1.0" stroke="rgb(0, 0, 0)" stroke-opacity="0.0" stroke-linecap="round" stroke-linejoin="round"/>
    <path d="M 278.0 141.0 C 261.13018798828125 139.73129272460938 275.9622802734375 159.50723266601562 264.0 164.0 L 265.0 190.0 L 279.0 190.0 L 278.0 141.0" stroke-width="2.0" fill="rgb(215, 217, 206)" opacity="1.0" stroke="rgb(0, 0, 0)" stroke-opacity="0.0" stroke-linecap="round" stroke-linejoin="round"/>
    <path d="M 127.0 481.0 C 126.11995697021484 486.8337707519531 130.19937133789062 488.2642822265625 135.0 489.0 L 189.0 489.0 C 192.77127075195312 487.37890625 196.64402770996094 481.62109375 192.0 480.0 L 127.0 481.0" stroke-width="2.0" fill="rgb(212, 217, 209)" opacity="1.0" stroke="rgb(0, 0, 0)" stroke-opacity="0.0" stroke-linecap="round" stroke-linejoin="round"/>
    <path d="M 416.0 379.0 C 399.3670654296875 379.0679626464844 401.0370788574219 399.4412536621094 403.0 410.0 L 424.0 410.0 C 425.48016357421875 398.4520263671875 423.4300231933594 389.50146484375 416.0 379.0" stroke-width="2.0" fill="rgb(58, 66, 84)" opacity="1.0" stroke="rgb(0, 0, 0)" stroke-opacity="0.0" stroke-linecap="round" stroke-linejoin="round"/>
    <path d="M 375.0 73.0 C 371.6844482421875 87.84264373779297 391.35015869140625 80.12005615234375 400.0 82.0 C 420.9106140136719 80.66790008544922 394.8470458984375 51.56117248535156 383.0 64.0 C 380.1712646484375 66.39505767822266 376.13970947265625 68.562255859375 375.0 73.0" stroke-width="2.0" fill="rgb(246, 240, 222)" opacity="1.0" stroke="rgb(0, 0, 0)" stroke-opacity="0.0" stroke-linecap="round" stroke-linejoin="round"/>
    <path d="M 86.0 277.0 C 91.10986328125 285.3333435058594 87.23766326904297 293.6666564941406 90.0 302.0 C 98.41009521484375 299.6650390625 122.0358657836914 308.6154479980469 114.0 293.0 C 107.76686096191406 281.6891174316406 96.18365478515625 275.9155578613281 86.0 277.0" stroke-width="2.0" fill="rgb(45, 47, 65)" opacity="1.0" stroke="rgb(0, 0, 0)" stroke-opacity="0.0" stroke-linecap="round" stroke-linejoin="round"/>
    <path d="M 35.0 381.0 C 51.05931854248047 377.98468017578125 75.65031433105469 391.8899230957031 84.0 370.0 C 67.87559509277344 374.0643310546875 49.5041618347168 360.5406188964844 35.0 381.0" stroke-width="2.0" fill="rgb(111, 182, 196)" opacity="1.0" stroke="rgb(0, 0, 0)" stroke-opacity="0.0" stroke-linecap="round" stroke-linejoin="round"/>
    <path d="M 405.0 461.0 C 423.3333435058594 464.2922668457031 441.6666564941406 463.9445495605469 460.0 459.0 C 463.0078430175781 457.0 461.7720642089844 455.0 462.0 453.0 C 443.6666564941406 452.2848205566406 425.3333435058594 453.20263671875 407.0 456.0 L 405.0 461.0" stroke-width="2.0" fill="rgb(160, 184, 186)" opacity="1.0" stroke="rgb(0, 0, 0)" stroke-opacity="0.0" stroke-linecap="round" stroke-linejoin="round"/>
    <path d="M 386.0 380.0 C 377.5625 390.0 382.1993408203125 400.0 381.0 410.0 C 402.1886901855469 420.23614501953125 406.1882629394531 382.9716796875 386.0 380.0" stroke-width="2.0" fill="rgb(128, 170, 182)" opacity="1.0" stroke="rgb(0, 0, 0)" stroke-opacity="0.0" stroke-linecap="round" stroke-linejoin="round"/>
    <path d="M 363.0 380.0 C 351.1589660644531 386.4640808105469 357.6878356933594 400.3334045410156 356.0 410.0 L 371.0 411.0 C 371.2705078125 401.3628845214844 377.1177062988281 384.7549133300781 363.0 380.0" stroke-width="2.0" fill="rgb(53, 51, 67)" opacity="1.0" stroke="rgb(0, 0, 0)" stroke-opacity="0.0" stroke-linecap="round" stroke-linejoin="round"/>
    <path d="M 339.0 380.0 C 327.5023193359375 388.0829162597656 335.2666931152344 400.27227783203125 333.0 410.0 L 348.0 410.0 C 346.0794982910156 400.6797180175781 353.5531005859375 384.445068359375 339.0 380.0" stroke-width="2.0" fill="rgb(46, 45, 63)" opacity="1.0" stroke="rgb(0, 0, 0)" stroke-opacity="0.0" stroke-linecap="round" stroke-linejoin="round"/>
    <path d="M 290.0 241.0 L 290.0 280.0 C 305.0960998535156 288.45758056640625 304.95208740234375 266.74859619140625 299.0 259.0 C 299.2395324707031 253.18154907226562 299.0999450683594 245.20887756347656 290.0 241.0" stroke-width="2.0" fill="rgb(48, 51, 68)" opacity="1.0" stroke="rgb(0, 0, 0)" stroke-opacity="0.0" stroke-linecap="round" stroke-linejoin="round"/>
    <path d="M 220.0 462.0 C 239.35047912597656 462.4388122558594 261.3102722167969 466.1885070800781 279.0 460.0 C 276.9530029296875 457.76922607421875 279.008544921875 457.26922607421875 276.0 456.0 L 222.0 457.0 L 220.0 462.0" stroke-width="2.0" fill="rgb(184, 204, 201)" opacity="1.0" stroke="rgb(0, 0, 0)" stroke-opacity="0.0" stroke-linecap="round" stroke-linejoin="round"/>
    <path d="M 7.0 373.0 L 6.0 399.0 L 22.0 399.0 C 21.849971771240234 388.50115966796875 24.2731876373291 371.1363830566406 7.0 373.0" stroke-width="2.0" fill="rgb(246, 211, 186)" opacity="1.0" stroke="rgb(0, 0, 0)" stroke-opacity="0.0" stroke-linecap="round" stroke-linejoin="round"/>
    <path d="M 315.0 380.0 C 303.64129638671875 387.75494384765625 311.1764831542969 399.6017150878906 309.0 409.0 C 317.0497131347656 412.771240234375 309.2568054199219 394.104736328125 319.0 405.0 C 318.0414123535156 409.29193115234375 319.70806884765625 410.9585876464844 324.0 410.0 C 322.0794982910156 400.6797180175781 329.5531005859375 384.445068359375 315.0 380.0" stroke-width="2.0" fill="rgb(45, 44, 59)" opacity="1.0" stroke="rgb(0, 0, 0)" stroke-opacity="0.0" stroke-linecap="round" stroke-linejoin="round"/>
    <path d="M 104.0 128.0 L 105.0 146.0 L 126.0 145.0 L 126.0 128.0 L 104.0 128.0" stroke-width="2.0" fill="rgb(241, 203, 180)" opacity="1.0" stroke="rgb(0, 0, 0)" stroke-opacity="0.0" stroke-linecap="round" stroke-linejoin="round"/>
    <path d="M 498.0 331.0 L 498.0 410.0 L 501.0 410.0 L 502.0 333.0 C 500.4248352050781 331.23529052734375 501.2026062011719 330.5686340332031 498.0 331.0" stroke-width="2.0" fill="rgb(48, 56, 73)" opacity="1.0" stroke="rgb(0, 0, 0)" stroke-opacity="0.0" stroke-linecap="round" stroke-linejoin="round"/>
    <path d="M 47.0 412.0 C 24.552278518676758 433.5709533691406 74.77188110351562 439.7835998535156 61.0 416.0 C 56.66666793823242 410.8193054199219 52.33333206176758 409.5154113769531 47.0 412.0" stroke-width="2.0" fill="rgb(170, 194, 192)" opacity="1.0" stroke="rgb(0, 0, 0)" stroke-opacity="0.0" stroke-linecap="round" stroke-linejoin="round"/>
    <path d="M 125.0 63.0 C 112.76333618164062 65.03384399414062 111.09674835205078 79.81747436523438 111.0 88.0 L 127.0 88.0 L 125.0 63.0" stroke-width="2.0" fill="rgb(237, 234, 218)" opacity="1.0" stroke="rgb(0, 0, 0)" stroke-opacity="0.0" stroke-linecap="round" stroke-linejoin="round"/>
    <path d="M 117.0 424.0 L 118.0 430.0 C 132.6666717529297 428.82623291015625 147.3333282470703 432.4466857910156 162.0 428.0 L 161.0 423.0 L 117.0 424.0" stroke-width="2.0" fill="rgb(217, 226, 215)" opacity="1.0" stroke="rgb(0, 0, 0)" stroke-opacity="0.0" stroke-linecap="round" stroke-linejoin="round"/>
    <path d="M 428.0 500.0 L 429.0 504.0 L 487.0 503.0 L 486.0 499.0 L 428.0 500.0" stroke-width="2.0" fill="rgb(210, 212, 199)" opacity="1.0" stroke="rgb(0, 0, 0)" stroke-opacity="0.0" stroke-linecap="round" stroke-linejoin="round"/>
    <path d="M 133.0 294.0 C 129.65103149414062 308.1280517578125 153.7711181640625 306.4322204589844 161.0 303.0 C 164.63302612304688 286.4228515625 143.6578826904297 295.115966796875 133.0 294.0" stroke-width="2.0" fill="rgb(114, 169, 187)" opacity="1.0" stroke="rgb(0, 0, 0)" stroke-opacity="0.0" stroke-linecap="round" stroke-linejoin="round"/>
    <path d="M 278.0 457.0 L 220.0 458.0 L 219.0 461.0 C 238.3333282470703 466.375 257.6666564941406 460.33392333984375 277.0 462.0 L 278.0 457.0" stroke-width="2.0" fill="rgb(197, 212, 208)" opacity="1.0" stroke="rgb(0, 0, 0)" stroke-opacity="0.0" stroke-linecap="round" stroke-linejoin="round"/>
    <path d="M 26.0 455.0 C 24.99215316772461 458.1453552246094 28.227924346923828 457.429931640625 30.0 459.0 L 82.0 459.0 L 82.0 454.0 C 63.66666793823242 454.153564453125 45.33333206176758 452.5525817871094 26.0 455.0" stroke-width="2.0" fill="rgb(60, 87, 111)" opacity="1.0" stroke="rgb(0, 0, 0)" stroke-opacity="0.0" stroke-linecap="round" stroke-linejoin="round"/>
    <path d="M 258.0 362.0 C 252.76641845703125 371.6185607910156 272.7655944824219 386.6593322753906 257.0 389.0 C 258.9372863769531 396.1778259277344 251.66091918945312 413.0122375488281 264.0 411.0 C 264.64910888671875 394.6666564941406 264.3334045410156 378.3333435058594 263.0 362.0 L 258.0 362.0" stroke-width="2.0" fill="rgb(64, 65, 76)" opacity="1.0" stroke="rgb(0, 0, 0)" stroke-opacity="0.0" stroke-linecap="round" stroke-linejoin="round"/>
    <path d="M 10.0 411.0 C 0.9651880860328674 413.6375427246094 8.3610200881958 427.5461120605469 6.0 435.0 C 19.250648498535156 438.9027404785156 24.938175201416016 415.8686828613281 10.0 411.0" stroke-width="2.0" fill="rgb(186, 195, 190)" opacity="1.0" stroke="rgb(0, 0, 0)" stroke-opacity="0.0" stroke-linecap="round" stroke-linejoin="round"/>
    <path d="M 292.0 282.0 C 284.2544250488281 299.64495849609375 319.43853759765625 300.158935546875 309.0 282.0 L 292.0 282.0" stroke-width="2.0" fill="rgb(47, 67, 89)" opacity="1.0" stroke="rgb(0, 0, 0)" stroke-opacity="0.0" stroke-linecap="round" stroke-linejoin="round"/>
    <path d="M 195.0 252.0 C 200.55691528320312 263.6666564941406 211.27049255371094 275.3333435058594 209.0 287.0 L 210.0 252.0 L 195.0 252.0" stroke-width="2.0" fill="rgb(188, 212, 218)" opacity="1.0" stroke="rgb(0, 0, 0)" stroke-opacity="0.0" stroke-linecap="round" stroke-linejoin="round"/>
    <path d="M 42.0 417.0 C 40.62803268432617 428.3769226074219 55.62794876098633 419.98822021484375 62.0 424.0 C 65.17527770996094 415.0296325683594 50.04037857055664 403.8187561035156 42.0 417.0" stroke-width="2.0" fill="rgb(177, 194, 191)" opacity="1.0" stroke="rgb(0, 0, 0)" stroke-opacity="0.0" stroke-linecap="round" stroke-linejoin="round"/>
    <path d="M 22.0 357.0 C 18.00092124938965 363.2724914550781 27.161611557006836 371.6500244140625 18.0 375.0 C 29.581403732299805 375.4522705078125 18.050872802734375 396.3924255371094 25.0 400.0 C 28.495698928833008 391.2714538574219 20.840961456298828 373.6172180175781 33.0 374.0 C 20.008081436157227 372.7151794433594 30.5706787109375 357.7095031738281 22.0 357.0" stroke-width="2.0" fill="rgb(118, 115, 113)" opacity="1.0" stroke="rgb(0, 0, 0)" stroke-opacity="0.0" stroke-linecap="round" stroke-linejoin="round"/>
    <path d="M 392.0 232.0 C 386.1112365722656 237.37344360351562 384.7921447753906 253.8836669921875 394.0 256.0 C 397.8101501464844 248.43984985351562 399.80035400390625 236.31480407714844 392.0 232.0" stroke-width="2.0" fill="rgb(57, 61, 81)" opacity="1.0" stroke="rgb(0, 0, 0)" stroke-opacity="0.0" stroke-linecap="round" stroke-linejoin="round"/>
    <path d="M 418.0 232.0 C 406.4609375 230.01663208007812 409.89593505859375 263.635986328125 420.0 251.0 L 418.0 232.0" stroke-width="2.0" fill="rgb(55, 56, 75)" opacity="1.0" stroke="rgb(0, 0, 0)" stroke-opacity="0.0" stroke-linecap="round" stroke-linejoin="round"/>
    <path d="M 104.0 370.0 C 98.99949645996094 372.8013610839844 98.99949645996094 375.1986389160156 104.0 378.0 C 105.64010620117188 384.77398681640625 100.49876403808594 396.5202941894531 107.0 400.0 C 110.00914001464844 391.2486572265625 104.5580825805664 379.3900146484375 113.0 375.0 C 109.562255859375 375.58868408203125 107.39505767822266 369.0271911621094 104.0 370.0" stroke-width="2.0" fill="rgb(97, 129, 147)" opacity="1.0" stroke="rgb(0, 0, 0)" stroke-opacity="0.0" stroke-linecap="round" stroke-linejoin="round"/>
    <path d="M 438.0 232.0 C 433.83563232421875 238.8772430419922 431.3820495605469 254.94677734375 442.0 254.0 C 442.33795166015625 247.22601318359375 446.62939453125 235.47970581054688 438.0 232.0" stroke-width="2.0" fill="rgb(60, 70, 94)" opacity="1.0" stroke="rgb(0, 0, 0)" stroke-opacity="0.0" stroke-linecap="round" stroke-linejoin="round"/>
    <path d="M 332.0 232.0 C 329.69049072265625 239.4115753173828 325.7611999511719 256.8302917480469 336.0 255.0 C 336.8152770996094 247.90057373046875 339.9748229980469 235.8021240234375 332.0 232.0" stroke-width="2.0" fill="rgb(54, 57, 71)" opacity="1.0" stroke="rgb(0, 0, 0)" stroke-opacity="0.0" stroke-linecap="round" stroke-linejoin="round"/>
    <path d="M 415.0 379.0 C 414.6332702636719 384.0258483886719 404.2992248535156 390.8208923339844 413.0 393.0 L 414.0 412.0 C 420.38897705078125 407.30389404296875 410.2085266113281 394.16253662109375 421.0 391.0 C 421.3070983886719 387.3333435058594 414.0098571777344 383.6666564941406 415.0 379.0" stroke-width="2.0" fill="rgb(77, 100, 118)" opacity="1.0" stroke="rgb(0, 0, 0)" stroke-opacity="0.0" stroke-linecap="round" stroke-linejoin="round"/>
    <path d="M 308.0 232.0 C 307.9228515625 239.14002990722656 302.24713134765625 255.71803283691406 313.0 255.0 C 313.9954833984375 248.02149963378906 315.956298828125 234.097412109375 308.0 232.0" stroke-width="2.0" fill="rgb(52, 54, 70)" opacity="1.0" stroke="rgb(0, 0, 0)" stroke-opacity="0.0" stroke-linecap="round" stroke-linejoin="round"/>
    <path d="M 144.0 367.0 C 142.42071533203125 367.93743896484375 131.58055114746094 376.4566955566406 141.0 375.0 L 142.0 401.0 C 149.23367309570312 394.5160217285156 136.2925262451172 372.7593078613281 151.0 374.0 C 150.15521240234375 370.6765441894531 144.62527465820312 372.9149169921875 144.0 367.0" stroke-width="2.0" fill="rgb(122, 124, 123)" opacity="1.0" stroke="rgb(0, 0, 0)" stroke-opacity="0.0" stroke-linecap="round" stroke-linejoin="round"/>
    <path d="M 117.0 383.0 C 115.25653076171875 389.7341003417969 113.38521575927734 403.25146484375 124.0 400.0 C 124.23603820800781 393.8476257324219 128.94834899902344 380.3218994140625 117.0 383.0" stroke-width="2.0" fill="rgb(37, 43, 66)" opacity="1.0" stroke="rgb(0, 0, 0)" stroke-opacity="0.0" stroke-linecap="round" stroke-linejoin="round"/>
    <path d="M 63.0 424.0 C 63.547420501708984 432.8886413574219 81.65696716308594 429.30657958984375 87.0 427.0 C 86.41098022460938 418.5890197753906 70.9925308227539 425.0074768066406 63.0 424.0" stroke-width="2.0" fill="rgb(200, 203, 193)" opacity="1.0" stroke="rgb(0, 0, 0)" stroke-opacity="0.0" stroke-linecap="round" stroke-linejoin="round"/>
    <path d="M 434.0 380.0 C 430.57159423828125 390.2215576171875 433.9908142089844 400.6609191894531 433.0 412.0 C 442.7585754394531 410.1856384277344 431.9057922363281 394.0658874511719 440.0 389.0 C 434.0020446777344 388.2407531738281 437.3913879394531 380.7592468261719 434.0 380.0" stroke-width="2.0" fill="rgb(108, 111, 113)" opacity="1.0" stroke="rgb(0, 0, 0)" stroke-opacity="0.0" stroke-linecap="round" stroke-linejoin="round"/>
    <path d="M 273.0 389.0 C 275.1554870605469 396.1778259277344 267.6544494628906 413.0122375488281 279.0 411.0 C 276.87725830078125 404.12274169921875 283.94677734375 388.05322265625 273.0 389.0" stroke-width="2.0" fill="rgb(49, 48, 66)" opacity="1.0" stroke="rgb(0, 0, 0)" stroke-opacity="0.0" stroke-linecap="round" stroke-linejoin="round"/>
    <path d="M 477.0 380.0 C 479.7674865722656 386.3982238769531 465.68365478515625 388.800048828125 477.0 393.0 C 478.2071228027344 399.126220703125 474.505859375 410.1607971191406 479.0 413.0 C 479.9590148925781 404.87542724609375 475.53411865234375 392.6028747558594 485.0 389.0 C 480.1164855957031 386.2413024902344 479.2769775390625 381.977294921875 477.0 380.0" stroke-width="2.0" fill="rgb(88, 116, 137)" opacity="1.0" stroke="rgb(0, 0, 0)" stroke-opacity="0.0" stroke-linecap="round" stroke-linejoin="round"/>
    <path d="M 289.0 389.0 C 288.48681640625 395.87725830078125 285.4190368652344 411.94677734375 294.0 411.0 C 294.9954833984375 404.2965393066406 296.956298828125 389.3197326660156 289.0 389.0" stroke-width="2.0" fill="rgb(56, 53, 67)" opacity="1.0" stroke="rgb(0, 0, 0)" stroke-opacity="0.0" stroke-linecap="round" stroke-linejoin="round"/>
    <path d="M 69.0 371.0 C 62.30905532836914 366.37237548828125 53.79501724243164 373.037109375 51.0 381.0 C 59.3609619140625 381.5542907714844 64.686767578125 382.4703674316406 69.0 371.0" stroke-width="2.0" fill="rgb(103, 185, 202)" opacity="1.0" stroke="rgb(0, 0, 0)" stroke-opacity="0.0" stroke-linecap="round" stroke-linejoin="round"/>
    <path d="M 290.0 241.0 C 277.03582763671875 237.07862854003906 274.8223876953125 260.1666564941406 289.0 254.0 L 290.0 241.0" stroke-width="2.0" fill="rgb(104, 176, 195)" opacity="1.0" stroke="rgb(0, 0, 0)" stroke-opacity="0.0" stroke-linecap="round" stroke-linejoin="round"/>
    <path d="M 171.0 372.0 C 169.86712646484375 372.5545349121094 160.30233764648438 379.518310546875 168.0 380.0 L 169.0 401.0 C 174.80528259277344 396.0329284667969 166.54689025878906 379.741943359375 176.0 378.0 L 171.0 372.0" stroke-width="2.0" fill="rgb(132, 131, 130)" opacity="1.0" stroke="rgb(0, 0, 0)" stroke-opacity="0.0" stroke-linecap="round" stroke-linejoin="round"/>
    <path d="M 49.0 382.0 C 37.675350189208984 377.93218994140625 39.96647644042969 405.4737243652344 50.0 398.0 L 49.0 382.0" stroke-width="2.0" fill="rgb(52, 55, 67)" opacity="1.0" stroke="rgb(0, 0, 0)" stroke-opacity="0.0" stroke-linecap="round" stroke-linejoin="round"/>
    <path d="M 175.0 437.0 C 176.87380981445312 441.39288330078125 200.872314453125 443.7528381347656 195.0 434.0 C 188.9876708984375 434.97576904296875 180.3498077392578 431.83673095703125 175.0 437.0" stroke-width="2.0" fill="rgb(226, 229, 215)" opacity="1.0" stroke="rgb(0, 0, 0)" stroke-opacity="0.0" stroke-linecap="round" stroke-linejoin="round"/>
    <path d="M 77.0 382.0 C 65.43258666992188 379.2783508300781 66.88516235351562 403.364990234375 77.0 399.0 L 77.0 382.0" stroke-width="2.0" fill="rgb(36, 32, 43)" opacity="1.0" stroke="rgb(0, 0, 0)" stroke-opacity="0.0" stroke-linecap="round" stroke-linejoin="round"/>
    <path d="M 98.0 167.0 C 103.7564926147461 173.027587890625 117.93377685546875 169.5529327392578 127.0 169.0 C 121.57100677490234 163.7888641357422 107.73714447021484 167.39743041992188 98.0 167.0" stroke-width="2.0" fill="rgb(107, 153, 169)" opacity="1.0" stroke="rgb(0, 0, 0)" stroke-opacity="0.0" stroke-linecap="round" stroke-linejoin="round"/>
    <path d="M 5.0 413.0 C 0.5744629502296448 424.3258972167969 29.321815490722656 425.3306884765625 15.0 413.0 C 12.0 412.2827453613281 9.0 409.0953063964844 5.0 413.0" stroke-width="2.0" fill="rgb(217, 199, 187)" opacity="1.0" stroke="rgb(0, 0, 0)" stroke-opacity="0.0" stroke-linecap="round" stroke-linejoin="round"/>
    <path d="M 111.0 90.0 C 107.00333404541016 100.40180206298828 131.77418518066406 100.40180206298828 126.0 90.0 L 111.0 90.0" stroke-width="2.0" fill="rgb(101, 172, 187)" opacity="1.0" stroke="rgb(0, 0, 0)" stroke-opacity="0.0" stroke-linecap="round" stroke-linejoin="round"/>
    <path d="M 278.0 127.0 C 269.2530517578125 130.87940979003906 266.7040100097656 146.94570922851562 279.0 142.0 L 278.0 127.0" stroke-width="2.0" fill="rgb(120, 172, 189)" opacity="1.0" stroke="rgb(0, 0, 0)" stroke-opacity="0.0" stroke-linecap="round" stroke-linejoin="round"/>
    <path d="M 399.0 305.0 C 396.0523986816406 310.3399658203125 394.14959716796875 322.9012756347656 402.0 322.0 C 403.1219482421875 316.8345947265625 405.1822204589844 306.8937683105469 399.0 305.0" stroke-width="2.0" fill="rgb(71, 70, 81)" opacity="1.0" stroke="rgb(0, 0, 0)" stroke-opacity="0.0" stroke-linecap="round" stroke-linejoin="round"/>
    <path d="M 437.0 348.0 C 429.7693786621094 347.6082763671875 428.7620849609375 368.7104797363281 438.0 364.0 L 437.0 348.0" stroke-width="2.0" fill="rgb(71, 73, 86)" opacity="1.0" stroke="rgb(0, 0, 0)" stroke-opacity="0.0" stroke-linecap="round" stroke-linejoin="round"/>
    <path d="M 451.0 348.0 C 450.2123718261719 353.4692687988281 446.60931396484375 366.0461730957031 455.0 364.0 C 456.5145568847656 359.12506103515625 457.69354248046875 348.0928649902344 451.0 348.0" stroke-width="2.0" fill="rgb(67, 67, 75)" opacity="1.0" stroke="rgb(0, 0, 0)" stroke-opacity="0.0" stroke-linecap="round" stroke-linejoin="round"/>
    <path d="M 66.0 499.0 C 60.544525146484375 497.5643310546875 48.63523864746094 496.9159240722656 48.0 503.0 C 53.455474853515625 503.54608154296875 65.36476135253906 506.60223388671875 66.0 499.0" stroke-width="2.0" fill="rgb(49, 66, 88)" opacity="1.0" stroke="rgb(0, 0, 0)" stroke-opacity="0.0" stroke-linecap="round" stroke-linejoin="round"/>
    <path d="M 289.0 362.0 C 286.8780212402344 366.38446044921875 286.6539001464844 379.9319763183594 295.0 374.0 C 294.3211975097656 369.7908630371094 297.66131591796875 360.25201416015625 289.0 362.0" stroke-width="2.0" fill="rgb(78, 78, 90)" opacity="1.0" stroke="rgb(0, 0, 0)" stroke-opacity="0.0" stroke-linecap="round" stroke-linejoin="round"/>
    <path d="M 414.0 305.0 C 413.4335021972656 310.1624755859375 409.75146484375 321.64007568359375 417.0 322.0 C 418.27178955078125 316.8375244140625 420.78076171875 305.35992431640625 414.0 305.0" stroke-width="2.0" fill="rgb(62, 59, 69)" opacity="1.0" stroke="rgb(0, 0, 0)" stroke-opacity="0.0" stroke-linecap="round" stroke-linejoin="round"/>
    <path d="M 383.0 305.0 C 382.4801940917969 310.6786804199219 378.3124084472656 323.9049377441406 387.0 322.0 C 385.5416259765625 316.8345947265625 390.2404479980469 306.8937683105469 383.0 305.0" stroke-width="2.0" fill="rgb(60, 60, 71)" opacity="1.0" stroke="rgb(0, 0, 0)" stroke-opacity="0.0" stroke-linecap="round" stroke-linejoin="round"/>
    <path d="M 219.0 321.0 C 214.21405029296875 323.9906921386719 213.9302215576172 334.56109619140625 220.0 336.0 C 223.2471160888672 332.7134094238281 223.2471160888672 325.87353515625 219.0 321.0" stroke-width="2.0" fill="rgb(43, 65, 90)" opacity="1.0" stroke="rgb(0, 0, 0)" stroke-opacity="0.0" stroke-linecap="round" stroke-linejoin="round"/>
    <path d="M 338.0 187.0 C 335.2303771972656 192.27301025390625 333.1445617675781 204.16453552246094 341.0 202.0 C 341.4455261230469 197.31422424316406 344.0867919921875 190.0255889892578 338.0 187.0" stroke-width="2.0" fill="rgb(70, 70, 77)" opacity="1.0" stroke="rgb(0, 0, 0)" stroke-opacity="0.0" stroke-linecap="round" stroke-linejoin="round"/>
    <path d="M 222.0 376.0 C 216.0237274169922 380.4503479003906 217.70297241210938 393.247314453125 219.0 401.0 C 223.78021240234375 394.9894104003906 219.0271453857422 384.6745910644531 222.0 376.0" stroke-width="2.0" fill="rgb(79, 126, 150)" opacity="1.0" stroke="rgb(0, 0, 0)" stroke-opacity="0.0" stroke-linecap="round" stroke-linejoin="round"/>
    <path d="M 273.0 362.0 C 273.76348876953125 367.5698547363281 269.89703369140625 377.7696228027344 279.0 375.0 C 278.1138000488281 370.5926513671875 282.01025390625 360.3742980957031 273.0 362.0" stroke-width="2.0" fill="rgb(63, 62, 75)" opacity="1.0" stroke="rgb(0, 0, 0)" stroke-opacity="0.0" stroke-linecap="round" stroke-linejoin="round"/>
    <path d="M 156.0 266.0 C 155.01577758789062 271.0897216796875 152.11915588378906 283.1103210449219 160.0 282.0 C 158.5939483642578 277.1507263183594 163.16433715820312 267.58447265625 156.0 266.0" stroke-width="2.0" fill="rgb(84, 89, 99)" opacity="1.0" stroke="rgb(0, 0, 0)" stroke-opacity="0.0" stroke-linecap="round" stroke-linejoin="round"/>
    <path d="M 217.0 352.0 C 210.67410278320312 366.14666748046875 226.15113830566406 368.360107421875 222.0 353.0 L 217.0 352.0" stroke-width="2.0" fill="rgb(43, 62, 87)" opacity="1.0" stroke="rgb(0, 0, 0)" stroke-opacity="0.0" stroke-linecap="round" stroke-linejoin="round"/>
    <path d="M 361.0 187.0 C 360.0768127441406 192.27301025390625 356.8231506347656 204.16453552246094 365.0 202.0 C 363.654052734375 197.46409606933594 368.0763244628906 188.27919006347656 361.0 187.0" stroke-width="2.0" fill="rgb(35, 44, 55)" opacity="1.0" stroke="rgb(0, 0, 0)" stroke-opacity="0.0" stroke-linecap="round" stroke-linejoin="round"/>
    <path d="M 134.0 266.0 C 135.48361206054688 270.87493896484375 130.3638458251953 281.9071350097656 138.0 282.0 C 139.63125610351562 277.12506103515625 140.0753173828125 266.0928649902344 134.0 266.0" stroke-width="2.0" fill="rgb(72, 74, 84)" opacity="1.0" stroke="rgb(0, 0, 0)" stroke-opacity="0.0" stroke-linecap="round" stroke-linejoin="round"/>
    <path d="M 178.0 266.0 C 177.07681274414062 271.27301025390625 173.82313537597656 283.16455078125 182.0 281.0 C 180.654052734375 276.464111328125 185.07632446289062 267.2792053222656 178.0 266.0" stroke-width="2.0" fill="rgb(36, 59, 84)" opacity="1.0" stroke="rgb(0, 0, 0)" stroke-opacity="0.0" stroke-linecap="round" stroke-linejoin="round"/>
    <path d="M 483.0 311.0 C 481.9486999511719 315.4073486328125 479.3573303222656 325.6257019042969 486.0 324.0 C 489.23028564453125 319.9432067871094 489.9739685058594 310.3594665527344 483.0 311.0" stroke-width="2.0" fill="rgb(65, 63, 76)" opacity="1.0" stroke="rgb(0, 0, 0)" stroke-opacity="0.0" stroke-linecap="round" stroke-linejoin="round"/>
    <path d="M 488.0 349.0 C 487.1172790527344 353.8497314453125 483.9250793457031 365.3028259277344 492.0 364.0 C 490.59393310546875 359.40606689453125 495.1643371582031 348.8356628417969 488.0 349.0" stroke-width="2.0" fill="rgb(33, 55, 82)" opacity="1.0" stroke="rgb(0, 0, 0)" stroke-opacity="0.0" stroke-linecap="round" stroke-linejoin="round"/>
    <path d="M 323.0 187.0 C 319.933349609375 192.27301025390625 318.3515930175781 204.16453552246094 326.0 202.0 C 324.89263916015625 197.31422424316406 328.3544921875 190.0255889892578 323.0 187.0" stroke-width="2.0" fill="rgb(65, 63, 69)" opacity="1.0" stroke="rgb(0, 0, 0)" stroke-opacity="0.0" stroke-linecap="round" stroke-linejoin="round"/>
    <path d="M 120.0 316.0 C 121.44707489013672 320.6216125488281 115.3923568725586 331.475830078125 124.0 330.0 C 125.0512924194336 325.6792907714844 127.64266967773438 315.5903625488281 120.0 316.0" stroke-width="2.0" fill="rgb(41, 60, 87)" opacity="1.0" stroke="rgb(0, 0, 0)" stroke-opacity="0.0" stroke-linecap="round" stroke-linejoin="round"/>
    <path d="M 414.0 380.0 C 416.1128845214844 383.3333435058594 410.2374572753906 386.6666564941406 409.0 390.0 C 413.0 393.27227783203125 417.0 391.3505859375 421.0 391.0 C 419.48150634765625 387.6332702636719 415.04852294921875 381.7115783691406 414.0 380.0" stroke-width="2.0" fill="rgb(100, 136, 152)" opacity="1.0" stroke="rgb(0, 0, 0)" stroke-opacity="0.0" stroke-linecap="round" stroke-linejoin="round"/>
    <path d="M 74.0 315.0 C 70.96286010742188 319.59393310546875 69.67491149902344 330.1643371582031 76.0 330.0 C 77.20037841796875 325.12646484375 78.70692443847656 318.2865905761719 74.0 315.0" stroke-width="2.0" fill="rgb(66, 65, 68)" opacity="1.0" stroke="rgb(0, 0, 0)" stroke-opacity="0.0" stroke-linecap="round" stroke-linejoin="round"/>
    <path d="M 355.0 113.0 C 350.6290588378906 116.04096221923828 353.59716796875 127.62110137939453 357.0 129.0 C 353.83660888671875 123.90681457519531 364.3914794921875 114.93814849853516 355.0 113.0" stroke-width="2.0" fill="rgb(63, 83, 99)" opacity="1.0" stroke="rgb(0, 0, 0)" stroke-opacity="0.0" stroke-linecap="round" stroke-linejoin="round"/>
    <path d="M 229.0 321.0 C 227.92665100097656 326.0915832519531 225.06321716308594 337.2564697265625 233.0 335.0 C 231.7234649658203 330.7740173339844 235.97386169433594 321.9788513183594 229.0 321.0" stroke-width="2.0" fill="rgb(39, 58, 82)" opacity="1.0" stroke="rgb(0, 0, 0)" stroke-opacity="0.0" stroke-linecap="round" stroke-linejoin="round"/>
    <path d="M 168.0 321.0 C 166.92665100097656 326.0915832519531 164.06321716308594 337.2564697265625 172.0 335.0 C 170.7234649658203 330.7740173339844 174.97386169433594 321.9788513183594 168.0 321.0" stroke-width="2.0" fill="rgb(64, 69, 82)" opacity="1.0" stroke="rgb(0, 0, 0)" stroke-opacity="0.0" stroke-linecap="round" stroke-linejoin="round"/>
    <path d="M 357.0 232.0 C 346.6711730957031 249.1025390625 371.8758850097656 241.2160186767578 357.0 232.0" stroke-width="2.0" fill="rgb(58, 63, 71)" opacity="1.0" stroke="rgb(0, 0, 0)" stroke-opacity="0.0" stroke-linecap="round" stroke-linejoin="round"/>
    <path d="M 184.0 321.0 C 180.933349609375 324.1295471191406 179.35157775878906 337.6929931640625 187.0 335.0 C 185.9202880859375 330.6449890136719 189.31532287597656 323.6957092285156 184.0 321.0" stroke-width="2.0" fill="rgb(67, 69, 80)" opacity="1.0" stroke="rgb(0, 0, 0)" stroke-opacity="0.0" stroke-linecap="round" stroke-linejoin="round"/>
    <path d="M 221.0 266.0 C 217.99053955078125 269.1429748535156 216.9864044189453 279.35052490234375 222.0 281.0 C 225.25669860839844 277.8912658691406 225.25669860839844 269.1087341308594 221.0 266.0" stroke-width="2.0" fill="rgb(42, 64, 84)" opacity="1.0" stroke="rgb(0, 0, 0)" stroke-opacity="0.0" stroke-linecap="round" stroke-linejoin="round"/>
    <path d="M 428.0 275.0 C 424.80218505859375 277.7252502441406 423.5780944824219 290.8177185058594 431.0 289.0 C 429.9202880859375 284.6449890136719 433.3153381347656 277.6957092285156 428.0 275.0" stroke-width="2.0" fill="rgb(61, 61, 71)" opacity="1.0" stroke="rgb(0, 0, 0)" stroke-opacity="0.0" stroke-linecap="round" stroke-linejoin="round"/>
    <path d="M 120.0 346.0 C 119.1824722290039 350.3207092285156 116.1886978149414 360.4096374511719 123.0 360.0 C 124.18746185302734 355.7740173339844 126.48255920410156 346.9788513183594 120.0 346.0" stroke-width="2.0" fill="rgb(41, 57, 81)" opacity="1.0" stroke="rgb(0, 0, 0)" stroke-opacity="0.0" stroke-linecap="round" stroke-linejoin="round"/>
    <path d="M 59.0 316.0 C 57.94870376586914 320.3207092285156 55.357330322265625 330.4096374511719 62.0 330.0 C 63.031211853027344 325.7740173339844 65.32630920410156 316.9788513183594 59.0 316.0" stroke-width="2.0" fill="rgb(67, 68, 78)" opacity="1.0" stroke="rgb(0, 0, 0)" stroke-opacity="0.0" stroke-linecap="round" stroke-linejoin="round"/>
    <path d="M 415.0 335.0 C 411.80218505859375 340.0915832519531 410.5780944824219 351.2564697265625 418.0 349.0 C 416.9202880859375 344.4347229003906 420.3153381347656 337.98895263671875 415.0 335.0" stroke-width="2.0" fill="rgb(67, 58, 66)" opacity="1.0" stroke="rgb(0, 0, 0)" stroke-opacity="0.0" stroke-linecap="round" stroke-linejoin="round"/>
    <path d="M 206.0 321.0 C 202.933349609375 324.1295471191406 201.35157775878906 337.6929931640625 209.0 335.0 C 207.9202880859375 331.0797119140625 211.31532287597656 322.6846618652344 206.0 321.0" stroke-width="2.0" fill="rgb(31, 53, 76)" opacity="1.0" stroke="rgb(0, 0, 0)" stroke-opacity="0.0" stroke-linecap="round" stroke-linejoin="round"/>
    <path d="M 44.0 316.0 C 45.37837600708008 320.6216125488281 40.524173736572266 331.475830078125 48.0 330.0 C 49.33399200439453 325.6792907714844 50.83890151977539 315.5903625488281 44.0 316.0" stroke-width="2.0" fill="rgb(58, 58, 68)" opacity="1.0" stroke="rgb(0, 0, 0)" stroke-opacity="0.0" stroke-linecap="round" stroke-linejoin="round"/>
    <path d="M 289.0 362.0 C 290.0732421875 366.9267578125 285.68218994140625 377.31781005859375 294.0 375.0 C 292.7406921386719 370.5926513671875 297.2923583984375 360.3742980957031 289.0 362.0" stroke-width="2.0" fill="rgb(46, 46, 60)" opacity="1.0" stroke="rgb(0, 0, 0)" stroke-opacity="0.0" stroke-linecap="round" stroke-linejoin="round"/>
    <path d="M 258.0 362.0 C 259.0732421875 366.9267578125 254.68218994140625 377.31781005859375 263.0 375.0 C 261.7406921386719 370.5926513671875 266.2923583984375 360.3742980957031 258.0 362.0" stroke-width="2.0" fill="rgb(51, 51, 62)" opacity="1.0" stroke="rgb(0, 0, 0)" stroke-opacity="0.0" stroke-linecap="round" stroke-linejoin="round"/>
    <path d="M 398.0 336.0 C 396.97076416015625 340.9267578125 394.1814270019531 351.31781005859375 402.0 349.0 C 401.7222595214844 344.9432067871094 404.43408203125 335.3594665527344 398.0 336.0" stroke-width="2.0" fill="rgb(69, 59, 66)" opacity="1.0" stroke="rgb(0, 0, 0)" stroke-opacity="0.0" stroke-linecap="round" stroke-linejoin="round"/>
    <path d="M 108.0 316.0 C 107.57048034667969 320.3207092285156 103.92281341552734 330.4096374511719 111.0 330.0 C 112.03121185302734 325.7740173339844 114.32630920410156 316.9788513183594 108.0 316.0" stroke-width="2.0" fill="rgb(32, 48, 71)" opacity="1.0" stroke="rgb(0, 0, 0)" stroke-opacity="0.0" stroke-linecap="round" stroke-linejoin="round"/>
    <path d="M 97.0 346.0 C 93.8718490600586 350.3207092285156 92.8384017944336 360.4096374511719 99.0 360.0 C 100.22457885742188 355.6449890136719 101.67033386230469 348.6957092285156 97.0 346.0" stroke-width="2.0" fill="rgb(34, 50, 71)" opacity="1.0" stroke="rgb(0, 0, 0)" stroke-opacity="0.0" stroke-linecap="round" stroke-linejoin="round"/>
    <path d="M 229.0 352.0 C 227.76019287109375 356.9267578125 225.3336944580078 367.31781005859375 233.0 365.0 C 231.7234649658203 360.9432067871094 235.97386169433594 351.3594665527344 229.0 352.0" stroke-width="2.0" fill="rgb(36, 56, 82)" opacity="1.0" stroke="rgb(0, 0, 0)" stroke-opacity="0.0" stroke-linecap="round" stroke-linejoin="round"/>
    <path d="M 145.0 266.0 C 146.4060516357422 270.8492736816406 141.83566284179688 280.41552734375 148.0 282.0 C 148.85670471191406 277.12506103515625 151.58743286132812 266.0928649902344 145.0 266.0" stroke-width="2.0" fill="rgb(72, 75, 84)" opacity="1.0" stroke="rgb(0, 0, 0)" stroke-opacity="0.0" stroke-linecap="round" stroke-linejoin="round"/>
    <path d="M 168.0 352.0 C 166.76019287109375 356.9267578125 164.3336944580078 367.31781005859375 172.0 365.0 C 170.7234649658203 360.9432067871094 174.97386169433594 351.3594665527344 168.0 352.0" stroke-width="2.0" fill="rgb(63, 66, 79)" opacity="1.0" stroke="rgb(0, 0, 0)" stroke-opacity="0.0" stroke-linecap="round" stroke-linejoin="round"/>
    <path d="M 73.0 346.0 C 71.76018524169922 350.9267578125 69.33369445800781 361.31781005859375 77.0 359.0 C 75.72347259521484 354.9432067871094 79.97386932373047 345.3594665527344 73.0 346.0" stroke-width="2.0" fill="rgb(64, 62, 73)" opacity="1.0" stroke="rgb(0, 0, 0)" stroke-opacity="0.0" stroke-linecap="round" stroke-linejoin="round"/>
    <path d="M 204.0 352.0 C 205.2593231201172 356.4073486328125 200.70762634277344 366.6257019042969 208.0 365.0 C 209.18353271484375 360.9432067871094 211.43377685546875 351.3594665527344 204.0 352.0" stroke-width="2.0" fill="rgb(36, 54, 77)" opacity="1.0" stroke="rgb(0, 0, 0)" stroke-opacity="0.0" stroke-linecap="round" stroke-linejoin="round"/>
    <path d="M 246.0 293.0 C 247.07322692871094 297.9267578125 242.68218994140625 308.31781005859375 251.0 306.0 C 250.16888427734375 301.9432067871094 253.55386352539062 292.3594665527344 246.0 293.0" stroke-width="2.0" fill="rgb(27, 42, 67)" opacity="1.0" stroke="rgb(0, 0, 0)" stroke-opacity="0.0" stroke-linecap="round" stroke-linejoin="round"/>
    <path d="M 248.0 266.0 C 244.933349609375 268.4752197265625 243.35157775878906 284.00982666015625 251.0 279.0 C 250.3785400390625 275.3047180175781 252.62567138671875 269.0384216308594 248.0 266.0" stroke-width="2.0" fill="rgb(36, 60, 85)" opacity="1.0" stroke="rgb(0, 0, 0)" stroke-opacity="0.0" stroke-linecap="round" stroke-linejoin="round"/>
    <path d="M 450.0 388.0 C 445.88970947265625 400.40606689453125 458.9780578613281 402.46734619140625 456.0 389.0 L 450.0 388.0" stroke-width="2.0" fill="rgb(75, 76, 79)" opacity="1.0" stroke="rgb(0, 0, 0)" stroke-opacity="0.0" stroke-linecap="round" stroke-linejoin="round"/>
    <path d="M 285.0 232.0 C 275.5226745605469 232.15843200683594 277.8356018066406 248.45840454101562 287.0 240.0 L 285.0 232.0" stroke-width="2.0" fill="rgb(52, 60, 81)" opacity="1.0" stroke="rgb(0, 0, 0)" stroke-opacity="0.0" stroke-linecap="round" stroke-linejoin="round"/>
    <path d="M 153.0 352.0 C 151.57557678222656 356.4073486328125 149.6394500732422 366.6257019042969 157.0 365.0 C 155.7234649658203 360.9432067871094 159.97386169433594 351.3594665527344 153.0 352.0" stroke-width="2.0" fill="rgb(64, 67, 82)" opacity="1.0" stroke="rgb(0, 0, 0)" stroke-opacity="0.0" stroke-linecap="round" stroke-linejoin="round"/>
    <path d="M 108.0 346.0 C 106.76018524169922 350.9267578125 104.33369445800781 361.31781005859375 112.0 359.0 C 110.80416107177734 355.0797119140625 114.85371398925781 346.6846618652344 108.0 346.0" stroke-width="2.0" fill="rgb(27, 37, 59)" opacity="1.0" stroke="rgb(0, 0, 0)" stroke-opacity="0.0" stroke-linecap="round" stroke-linejoin="round"/>
    <path d="M 182.0 352.0 C 183.2593231201172 356.4073486328125 178.70762634277344 366.6257019042969 186.0 365.0 C 187.18353271484375 360.9432067871094 189.43377685546875 351.3594665527344 182.0 352.0" stroke-width="2.0" fill="rgb(61, 62, 74)" opacity="1.0" stroke="rgb(0, 0, 0)" stroke-opacity="0.0" stroke-linecap="round" stroke-linejoin="round"/>
    <path d="M 154.0 321.0 C 152.37648010253906 325.6216125488281 148.79318237304688 336.475830078125 157.0 335.0 C 155.9202880859375 330.6449890136719 159.31532287597656 323.6957092285156 154.0 321.0" stroke-width="2.0" fill="rgb(57, 60, 71)" opacity="1.0" stroke="rgb(0, 0, 0)" stroke-opacity="0.0" stroke-linecap="round" stroke-linejoin="round"/>
    <path d="M 59.0 346.0 C 57.94870376586914 350.4073486328125 55.357330322265625 360.6257019042969 62.0 359.0 C 63.10844421386719 355.0797119140625 65.2087173461914 346.6846618652344 59.0 346.0" stroke-width="2.0" fill="rgb(67, 71, 83)" opacity="1.0" stroke="rgb(0, 0, 0)" stroke-opacity="0.0" stroke-linecap="round" stroke-linejoin="round"/>
    <path d="M 220.0 293.0 C 213.9852294921875 305.40606689453125 229.35057067871094 307.46734619140625 225.0 294.0 L 220.0 293.0" stroke-width="2.0" fill="rgb(40, 62, 80)" opacity="1.0" stroke="rgb(0, 0, 0)" stroke-opacity="0.0" stroke-linecap="round" stroke-linejoin="round"/>
    <path d="M 383.0 336.0 C 377.2298583984375 345.3935852050781 388.2005310058594 355.6730651855469 387.0 341.0 C 384.6035461425781 339.5469055175781 387.55474853515625 335.8314514160156 383.0 336.0" stroke-width="2.0" fill="rgb(75, 62, 69)" opacity="1.0" stroke="rgb(0, 0, 0)" stroke-opacity="0.0" stroke-linecap="round" stroke-linejoin="round"/>
    <path d="M 111.0 207.0 C 109.80138397216797 211.02479553222656 107.93022918701172 217.63340759277344 113.0 220.0 C 116.1194839477539 216.0797119140625 116.77400207519531 207.68467712402344 111.0 207.0" stroke-width="2.0" fill="rgb(94, 97, 105)" opacity="1.0" stroke="rgb(0, 0, 0)" stroke-opacity="0.0" stroke-linecap="round" stroke-linejoin="round"/>
    <path d="M 328.0 322.0 C 326.81646728515625 326.2091369628906 324.56622314453125 335.74798583984375 331.0 334.0 C 332.1986083984375 330.3800354003906 334.06976318359375 322.3982849121094 328.0 322.0" stroke-width="2.0" fill="rgb(45, 63, 87)" opacity="1.0" stroke="rgb(0, 0, 0)" stroke-opacity="0.0" stroke-linecap="round" stroke-linejoin="round"/>
    <path d="M 353.0 322.0 C 351.81646728515625 326.2091369628906 349.56622314453125 335.74798583984375 356.0 334.0 C 357.1986083984375 330.3800354003906 359.06976318359375 322.3982849121094 353.0 322.0" stroke-width="2.0" fill="rgb(47, 68, 89)" opacity="1.0" stroke="rgb(0, 0, 0)" stroke-opacity="0.0" stroke-linecap="round" stroke-linejoin="round"/>
    <path d="M 66.0 383.0 C 56.01443862915039 376.1077575683594 56.01443862915039 401.38677978515625 66.0 388.0 L 66.0 383.0" stroke-width="2.0" fill="rgb(64, 61, 67)" opacity="1.0" stroke="rgb(0, 0, 0)" stroke-opacity="0.0" stroke-linecap="round" stroke-linejoin="round"/>
    <path d="M 471.0 311.0 C 466.00128173828125 311.3225402832031 465.8685607910156 327.51507568359375 473.0 322.0 L 471.0 311.0" stroke-width="2.0" fill="rgb(64, 60, 71)" opacity="1.0" stroke="rgb(0, 0, 0)" stroke-opacity="0.0" stroke-linecap="round" stroke-linejoin="round"/>
    <path d="M 234.0 293.0 C 228.2611541748047 304.47320556640625 241.11996459960938 308.955322265625 238.0 295.0 C 236.42483520507812 293.23529052734375 237.20262145996094 292.5686340332031 234.0 293.0" stroke-width="2.0" fill="rgb(35, 57, 87)" opacity="1.0" stroke="rgb(0, 0, 0)" stroke-opacity="0.0" stroke-linecap="round" stroke-linejoin="round"/>
    <path d="M 233.0 267.0 C 234.2593231201172 271.4073486328125 229.70762634277344 281.6257019042969 237.0 280.0 C 235.7234649658203 275.9432067871094 239.97386169433594 266.3594665527344 233.0 267.0" stroke-width="2.0" fill="rgb(29, 49, 79)" opacity="1.0" stroke="rgb(0, 0, 0)" stroke-opacity="0.0" stroke-linecap="round" stroke-linejoin="round"/>
    <path d="M 220.0 378.0 C 218.4197235107422 385.6666564941406 216.61544799804688 393.3333435058594 219.0 401.0 C 222.9761199951172 395.6541748046875 219.5120086669922 386.00933837890625 220.0 378.0" stroke-width="2.0" fill="rgb(66, 112, 137)" opacity="1.0" stroke="rgb(0, 0, 0)" stroke-opacity="0.0" stroke-linecap="round" stroke-linejoin="round"/>
    <path d="M 353.0 296.0 C 345.9704895019531 312.598876953125 364.70391845703125 304.4057312011719 353.0 296.0" stroke-width="2.0" fill="rgb(75, 79, 86)" opacity="1.0" stroke="rgb(0, 0, 0)" stroke-opacity="0.0" stroke-linecap="round" stroke-linejoin="round"/>
    <path d="M 44.0 346.0 C 45.25932312011719 350.4073486328125 40.7076301574707 360.6257019042969 48.0 359.0 C 46.80415725708008 355.0797119140625 50.85371017456055 346.6846618652344 44.0 346.0" stroke-width="2.0" fill="rgb(44, 46, 56)" opacity="1.0" stroke="rgb(0, 0, 0)" stroke-opacity="0.0" stroke-linecap="round" stroke-linejoin="round"/>
    <path d="M 7.0 357.0 C 2.6297171115875244 374.7122802734375 20.112642288208008 362.6104736328125 7.0 357.0" stroke-width="2.0" fill="rgb(82, 80, 87)" opacity="1.0" stroke="rgb(0, 0, 0)" stroke-opacity="0.0" stroke-linecap="round" stroke-linejoin="round"/>
    <path d="M 330.0 295.0 C 325.21405029296875 295.5597839355469 324.93023681640625 309.38262939453125 331.0 307.0 L 330.0 295.0" stroke-width="2.0" fill="rgb(77, 77, 91)" opacity="1.0" stroke="rgb(0, 0, 0)" stroke-opacity="0.0" stroke-linecap="round" stroke-linejoin="round"/>
    <path d="M 341.0 323.0 C 332.53314208984375 337.6089782714844 351.1240234375 333.36260986328125 341.0 323.0" stroke-width="2.0" fill="rgb(72, 100, 122)" opacity="1.0" stroke="rgb(0, 0, 0)" stroke-opacity="0.0" stroke-linecap="round" stroke-linejoin="round"/>
    <path d="M 434.0 380.0 C 434.3879089355469 386.07647705078125 427.0152893066406 392.95343017578125 438.0 391.0 C 441.343994140625 389.2018737792969 433.8244323730469 382.559814453125 434.0 380.0" stroke-width="2.0" fill="rgb(141, 157, 154)" opacity="1.0" stroke="rgb(0, 0, 0)" stroke-opacity="0.0" stroke-linecap="round" stroke-linejoin="round"/>
    <path d="M 314.0 401.0 C 308.25823974609375 410.21026611328125 319.33154296875 416.73291015625 318.0 404.0 L 314.0 401.0" stroke-width="2.0" fill="rgb(107, 88, 95)" opacity="1.0" stroke="rgb(0, 0, 0)" stroke-opacity="0.0" stroke-linecap="round" stroke-linejoin="round"/>
    <path d="M 26.0 357.0 C 18.75541877746582 353.8904724121094 18.75541877746582 370.60302734375 26.0 366.0 L 26.0 357.0" stroke-width="2.0" fill="rgb(77, 78, 88)" opacity="1.0" stroke="rgb(0, 0, 0)" stroke-opacity="0.0" stroke-linecap="round" stroke-linejoin="round"/>
    <path d="M 340.0 296.0 C 335.08062744140625 308.8128356933594 347.6198425292969 308.8128356933594 343.0 296.0 L 340.0 296.0" stroke-width="2.0" fill="rgb(70, 69, 83)" opacity="1.0" stroke="rgb(0, 0, 0)" stroke-opacity="0.0" stroke-linecap="round" stroke-linejoin="round"/>
    <path d="M 271.0 196.0 C 265.1127014160156 209.17625427246094 279.9453430175781 204.8834991455078 271.0 196.0" stroke-width="2.0" fill="rgb(90, 92, 97)" opacity="1.0" stroke="rgb(0, 0, 0)" stroke-opacity="0.0" stroke-linecap="round" stroke-linejoin="round"/>
    <path d="M 145.0 151.0 C 139.11268615722656 164.17625427246094 153.94534301757812 159.8834991455078 145.0 151.0" stroke-width="2.0" fill="rgb(33, 62, 93)" opacity="1.0" stroke="rgb(0, 0, 0)" stroke-opacity="0.0" stroke-linecap="round" stroke-linejoin="round"/>
    <path d="M 111.0 254.0 C 107.55156707763672 269.77105712890625 121.50540924072266 258.1969909667969 111.0 254.0" stroke-width="2.0" fill="rgb(62, 68, 79)" opacity="1.0" stroke="rgb(0, 0, 0)" stroke-opacity="0.0" stroke-linecap="round" stroke-linejoin="round"/>
    <path d="M 278.0 310.0 C 274.2811279296875 325.501708984375 288.4046630859375 313.7431335449219 278.0 310.0" stroke-width="2.0" fill="rgb(73, 72, 79)" opacity="1.0" stroke="rgb(0, 0, 0)" stroke-opacity="0.0" stroke-linecap="round" stroke-linejoin="round"/>
    <path d="M 303.0 404.0 C 297.0777893066406 415.6448059082031 314.1291198730469 411.6015930175781 303.0 404.0" stroke-width="2.0" fill="rgb(70, 64, 67)" opacity="1.0" stroke="rgb(0, 0, 0)" stroke-opacity="0.0" stroke-linecap="round" stroke-linejoin="round"/>
    <path d="M 391.0 405.0 C 385.296630859375 416.050048828125 399.83197021484375 411.7952575683594 391.0 405.0" stroke-width="2.0" fill="rgb(64, 75, 80)" opacity="1.0" stroke="rgb(0, 0, 0)" stroke-opacity="0.0" stroke-linecap="round" stroke-linejoin="round"/>
    <path d="M 133.0 151.0 C 130.19932556152344 165.08047485351562 140.7392120361328 156.92123413085938 133.0 151.0" stroke-width="2.0" fill="rgb(29, 53, 79)" opacity="1.0" stroke="rgb(0, 0, 0)" stroke-opacity="0.0" stroke-linecap="round" stroke-linejoin="round"/>
    <path d="M 103.0 151.0 C 98.62032318115234 150.85848999023438 98.71726989746094 157.95848083496094 102.0 161.0 L 103.0 151.0" stroke-width="2.0" fill="rgb(80, 89, 91)" opacity="1.0" stroke="rgb(0, 0, 0)" stroke-opacity="0.0" stroke-linecap="round" stroke-linejoin="round"/>
    <path d="M 122.0 151.0 C 114.63070678710938 157.5979766845703 126.64427947998047 164.1171417236328 122.0 151.0" stroke-width="2.0" fill="rgb(89, 96, 104)" opacity="1.0" stroke="rgb(0, 0, 0)" stroke-opacity="0.0" stroke-linecap="round" stroke-linejoin="round"/>
    <path d="M 153.0 150.0 C 146.96746826171875 158.68331909179688 155.32302856445312 165.27249145507812 153.0 150.0" stroke-width="2.0" fill="rgb(28, 59, 80)" opacity="1.0" stroke="rgb(0, 0, 0)" stroke-opacity="0.0" stroke-linecap="round" stroke-linejoin="round"/>
    <path d="M 341.0 278.0 C 332.8912353515625 285.4668273925781 350.1087646484375 285.4668273925781 341.0 278.0" stroke-width="2.0" fill="rgb(91, 103, 112)" opacity="1.0" stroke="rgb(0, 0, 0)" stroke-opacity="0.0" stroke-linecap="round" stroke-linejoin="round"/>
    <path d="M 352.0 278.0 C 349.5323181152344 288.6748962402344 363.38787841796875 279.0707702636719 352.0 278.0" stroke-width="2.0" fill="rgb(102, 110, 119)" opacity="1.0" stroke="rgb(0, 0, 0)" stroke-opacity="0.0" stroke-linecap="round" stroke-linejoin="round"/>
    <path d="M 328.0 278.0 C 323.42633056640625 287.52728271484375 338.8569641113281 280.411376953125 328.0 278.0" stroke-width="2.0" fill="rgb(113, 124, 141)" opacity="1.0" stroke="rgb(0, 0, 0)" stroke-opacity="0.0" stroke-linecap="round" stroke-linejoin="round"/>
    <path d="M 108.0 373.0 C 104.85939025878906 382.57977294921875 119.59846496582031 376.2923583984375 108.0 373.0" stroke-width="2.0" fill="rgb(186, 212, 224)" opacity="1.0" stroke="rgb(0, 0, 0)" stroke-opacity="0.0" stroke-linecap="round" stroke-linejoin="round"/>
    <path d="M 112.0 182.0 C 106.6209945678711 190.68435668945312 120.60719299316406 187.0048065185547 112.0 182.0" stroke-width="2.0" fill="rgb(73, 74, 93)" opacity="1.0" stroke="rgb(0, 0, 0)" stroke-opacity="0.0" stroke-linecap="round" stroke-linejoin="round"/>
    <path d="M 480.0 386.0 C 477.1210632324219 394.0187072753906 490.4935607910156 390.0807189941406 480.0 386.0" stroke-width="2.0" fill="rgb(164, 191, 210)" opacity="1.0" stroke="rgb(0, 0, 0)" stroke-opacity="0.0" stroke-linecap="round" stroke-linejoin="round"/>
    <path d="M 121.0 151.0 C 117.21867370605469 160.1103515625 123.8568344116211 162.3970184326172 121.0 151.0" stroke-width="2.0" fill="rgb(63, 71, 82)" opacity="1.0" stroke="rgb(0, 0, 0)" stroke-opacity="0.0" stroke-linecap="round" stroke-linejoin="round"/>
    <path d="M 476.0 386.0 C 466.7950134277344 387.78741455078125 477.6734313964844 395.3404235839844 476.0 386.0" stroke-width="2.0" fill="rgb(172, 207, 218)" opacity="1.0" stroke="rgb(0, 0, 0)" stroke-opacity="0.0" stroke-linecap="round" stroke-linejoin="round"/>
    <path d="M 282.0 268.0 C 277.3822021484375 277.1606140136719 288.0816955566406 273.121826171875 282.0 268.0" stroke-width="2.0" fill="rgb(107, 106, 97)" opacity="1.0" stroke="rgb(0, 0, 0)" stroke-opacity="0.0" stroke-linecap="round" stroke-linejoin="round"/>
    <path d="M 101.0 372.0 C 97.3516616821289 380.3848571777344 109.39903259277344 373.1739501953125 101.0 372.0" stroke-width="2.0" fill="rgb(179, 215, 225)" opacity="1.0" stroke="rgb(0, 0, 0)" stroke-opacity="0.0" stroke-linecap="round" stroke-linejoin="round"/>
    <path d="M 121.0 106.0 C 119.17166137695312 115.9775161743164 125.78235626220703 111.75237274169922 121.0 106.0" stroke-width="2.0" fill="rgb(90, 88, 87)" opacity="1.0" stroke="rgb(0, 0, 0)" stroke-opacity="0.0" stroke-linecap="round" stroke-linejoin="round"/>
    <path d="M 271.0 287.0 C 269.2096862792969 295.8946228027344 275.7814636230469 291.7115783691406 271.0 287.0" stroke-width="2.0" fill="rgb(106, 116, 113)" opacity="1.0" stroke="rgb(0, 0, 0)" stroke-opacity="0.0" stroke-linecap="round" stroke-linejoin="round"/>
  </g>
</svg>
