<?xml version="1.0" ?>
<svg xmlns="http://www.w3.org/2000/svg" version="1.1" width="512" height="512">
  <defs/>
  <g>
    <path d="M -0.3563254773616791 -0.4143618047237396 L 512.0003051757812 -0.6339347958564758 L 512.0 512.245361328125 L -0.7335888743400574 512.3014526367188 L -0.3563254773616791 -0.4143618047237396" stroke-width="0.0" fill="rgb(253, 252, 251)" opacity="1.0170487" stroke="rgb(0, 0, 0)" stroke-opacity="0.0" stroke-linecap="round" stroke-linejoin="round"/>
    <path d="M 0.5496115684509277 0.5490533113479614 L 0.5493338108062744 511.5308532714844 L 511.52972412109375 511.52984619140625 L 511.5293273925781 0.5486472249031067 L 0.5496115684509277 0.5490533113479614" stroke-width="2.0" fill="rgb(246, 246, 246)" opacity="1.0235968" stroke="rgb(0, 0, 0)" stroke-opacity="0.0" stroke-linecap="round" stroke-linejoin="round"/>
    <path d="M 240.649169921875 128.82652282714844 C 208.66590881347656 132.33230590820312 167.15667724609375 153.60484313964844 144.8547821044922 192.238525390625 C 118.38836669921875 245.37808227539062 118.92369842529297 302.74853515625 173.63519287109375 355.7109680175781 C 233.27781677246094 396.5874938964844 298.68292236328125 397.53228759765625 356.90924072265625 336.93267822265625 C 394.2511291503906 282.5938415527344 394.00445556640625 225.84715270996094 354.0406188964844 172.4320526123047 C 315.9121398925781 132.54112243652344 278.68988037109375 126.38784790039062 240.649169921875 128.82652282714844" stroke-width="2.0" fill="rgb(250, 205, 65)" opacity="1.114236" stroke="rgb(0, 0, 0)" stroke-opacity="0.0" stroke-linecap="round" stroke-linejoin="round"/>
    <path d="M 169.08987426757812 272.0257873535156 C 169.2726593017578 288.24530029296875 175.6912078857422 303.58740234375 188.30612182617188 319.82916259765625 C 200.65817260742188 326.54217529296875 205.64869689941406 333.9988708496094 218.00079345703125 340.7340393066406 C 257.9445495605469 355.4333801269531 307.2808532714844 347.72509765625 335.4937744140625 304.6947326660156 C 338.9369201660156 292.88922119140625 344.605712890625 282.6573791503906 342.6689147949219 271.62005615234375 C 284.0488586425781 260.8064270019531 226.86756896972656 260.8355407714844 169.08987426757812 272.0257873535156" stroke-width="2.0" fill="rgb(242, 236, 228)" opacity="0.92934763" stroke="rgb(0, 0, 0)" stroke-opacity="0.0" stroke-linecap="round" stroke-linejoin="round"/>
    <path d="M 208.36990356445312 266.19586181640625 L 207.72218322753906 334.1548767089844 C 221.79669189453125 341.2961120605469 235.88958740234375 345.9059143066406 251.01953125 345.6462097167969 L 250.96897888183594 264.5719909667969 C 236.30015563964844 264.19073486328125 222.60812377929688 264.20001220703125 208.36990356445312 266.19586181640625" stroke-width="2.0" fill="rgb(252, 251, 250)" opacity="0.98679084" stroke="rgb(0, 0, 0)" stroke-opacity="0.0" stroke-linecap="round" stroke-linejoin="round"/>
    <path d="M 302.7498779296875 267.15411376953125 C 288.30670166015625 265.541259765625 274.65460205078125 264.6104736328125 260.8119812011719 264.7463684082031 L 260.965576171875 345.8503723144531 C 275.160400390625 346.6554260253906 288.9988098144531 341.404541015625 303.3730163574219 335.4325256347656 L 302.7498779296875 267.15411376953125" stroke-width="2.0" fill="rgb(252, 251, 250)" opacity="1.0033077" stroke="rgb(0, 0, 0)" stroke-opacity="0.0" stroke-linecap="round" stroke-linejoin="round"/>
    <path d="M 341.4819030761719 271.8312072753906 L 313.17950439453125 268.18994140625 L 315.2467346191406 327.30328369140625 C 335.4725341796875 311.4299011230469 345.6041564941406 288.8856506347656 341.4819030761719 271.8312072753906" stroke-width="2.0" fill="rgb(251, 251, 246)" opacity="1.0096294" stroke="rgb(0, 0, 0)" stroke-opacity="0.0" stroke-linecap="round" stroke-linejoin="round"/>
    <path d="M 168.18287658691406 271.6195373535156 C 168.25331115722656 289.8855285644531 176.23025512695312 310.4816589355469 196.80381774902344 327.205810546875 L 198.6388702392578 268.56817626953125 C 188.7284698486328 266.9723205566406 179.3595428466797 270.5000915527344 168.18287658691406 271.6195373535156" stroke-width="2.0" fill="rgb(254, 255, 254)" opacity="0.81476754" stroke="rgb(0, 0, 0)" stroke-opacity="0.0" stroke-linecap="round" stroke-linejoin="round"/>
    <path d="M 185.2360382080078 228.12501525878906 C 186.4013671875 241.28671264648438 199.7583770751953 233.50662231445312 202.0253143310547 223.90533447265625 C 214.06436157226562 214.54750061035156 226.85545349121094 219.6716766357422 232.90213012695312 235.54458618164062 C 247.65618896484375 237.1653594970703 243.61663818359375 220.7615966796875 233.02748107910156 213.44761657714844 C 217.3353271484375 200.33111572265625 192.17282104492188 206.0406951904297 185.2360382080078 228.12501525878906" stroke-width="2.0" fill="rgb(85, 80, 68)" opacity="1.0097057" stroke="rgb(0, 0, 0)" stroke-opacity="0.0" stroke-linecap="round" stroke-linejoin="round"/>
    <path d="M 269.18817138671875 228.33580017089844 C 270.6117248535156 241.7975616455078 282.9986267089844 233.15065002441406 286.9737854003906 222.92274475097656 C 298.5603332519531 214.90042114257812 310.5303039550781 220.69406127929688 317.8615417480469 235.78358459472656 C 337.2143249511719 234.78472900390625 319.17437744140625 207.86346435546875 304.5032653808594 207.7084503173828 C 293.2638244628906 203.8563690185547 274.2977294921875 209.4533233642578 269.18817138671875 228.33580017089844" stroke-width="2.0" fill="rgb(83, 78, 68)" opacity="1.0066073" stroke="rgb(0, 0, 0)" stroke-opacity="0.0" stroke-linecap="round" stroke-linejoin="round"/>
    <path d="M 251.8358154296875 264.0762939453125 L 251.6778106689453 345.3423767089844 L 259.9837341308594 346.3316650390625 L 260.6974182128906 264.8709716796875 L 251.8358154296875 264.0762939453125" stroke-width="2.0" fill="rgb(217, 216, 217)" opacity="0.9989205" stroke="rgb(0, 0, 0)" stroke-opacity="0.0" stroke-linecap="round" stroke-linejoin="round"/>
    <path d="M 199.94480895996094 266.468505859375 C 196.16830444335938 287.0053405761719 199.3245086669922 306.98175048828125 197.8052215576172 328.2414245605469 L 206.99220275878906 333.2960510253906 L 207.85496520996094 266.14837646484375 L 199.94480895996094 266.468505859375" stroke-width="2.0" fill="rgb(220, 219, 217)" opacity="1.0545893" stroke="rgb(0, 0, 0)" stroke-opacity="0.0" stroke-linecap="round" stroke-linejoin="round"/>
    <path d="M 310.9546203613281 266.43463134765625 L 304.34423828125 266.7502136230469 L 304.413330078125 332.118408203125 L 313.0393981933594 327.2771301269531 L 310.9546203613281 266.43463134765625" stroke-width="2.0" fill="rgb(216, 216, 216)" opacity="0.9983365" stroke="rgb(0, 0, 0)" stroke-opacity="0.0" stroke-linecap="round" stroke-linejoin="round"/>
  </g>
</svg>
