<?xml version="1.0" ?>
<svg xmlns="http://www.w3.org/2000/svg" version="1.1" width="512" height="352">
  <defs/>
  <g>
    <path d="M -10.0 -10.0 C -9.0 -10.0 512.0 0.0 513.0 0.0 C 514.0 0.0 512.0 352.0 513.0 352.0 C 513.0 353.0 0.0 352.0 0.0 353.0 C 0.0 352.0 0.0 353.0 -10.0 -10.0 L -10.0 -10.0" stroke-width="2.0" fill="rgb(194, 210, 207)" opacity="0.8910514"/>
    <path d="M 494.676025390625 153.78302001953125 C 494.9009094238281 153.75814819335938 493.94708251953125 152.9956512451172 495.9657897949219 155.84353637695312 C 496.4900207519531 155.4408721923828 496.6444091796875 152.5299530029297 497.98150634765625 151.4298858642578 C 495.0498046875 156.18885803222656 496.45880126953125 155.6701202392578 495.88116455078125 155.6787109375 C 493.7695007324219 152.15367126464844 495.1214294433594 154.09095764160156 495.89202880859375 155.83148193359375 L 494.676025390625 153.78302001953125" stroke-width="2.0" fill="rgb(51, 252, 253)" opacity="0.0930595"/>
    <path d="M 344.72784423828125 32.4185676574707 C 344.38201904296875 31.296167373657227 344.7465515136719 31.063188552856445 344.3234558105469 31.034692764282227 C 344.8454895019531 31.57194709777832 343.8313903808594 28.030126571655273 344.3369445800781 29.77728843688965 C 343.6718444824219 31.598974227905273 344.5564270019531 29.244766235351562 344.2566223144531 29.675756454467773 C 343.9649353027344 27.726699829101562 344.226318359375 29.688323974609375 344.0621337890625 28.25695037841797 L 344.72784423828125 32.4185676574707" stroke-width="2.0" fill="rgb(245, 112, 59)" opacity="0.18116869"/>
    <path d="M 220.37359619140625 222.30174255371094 C 172.96810913085938 299.8709716796875 200.48011779785156 230.6776580810547 212.5966033935547 168.68728637695312 C 150.89495849609375 207.08399963378906 207.71409606933594 266.4004211425781 194.7504425048828 243.09500122070312 C 201.98345947265625 257.1589660644531 181.6403350830078 246.2854461669922 175.89968872070312 196.2754669189453 C 180.3057861328125 157.8637237548828 134.0477752685547 149.92227172851562 245.95521545410156 151.9805450439453 L 220.37359619140625 222.30174255371094" stroke-width="2.0" fill="rgb(43, 57, 24)" opacity="0.404286"/>
    <path d="M 6.984354496002197 170.21990966796875 C 7.503477573394775 171.21670532226562 7.3151960372924805 171.472412109375 7.360989093780518 171.0930938720703 C 7.065617561340332 173.94203186035156 7.213962078094482 170.59280395507812 7.841575622558594 168.60780334472656 C 7.093197822570801 171.6791534423828 7.991704940795898 167.85748291015625 7.310125350952148 170.93296813964844 C 6.872818946838379 169.76287841796875 7.5228590965271 171.65756225585938 8.2037353515625 173.31985473632812 L 6.984354496002197 170.21990966796875" stroke-width="2.0" fill="rgb(248, 54, 187)" opacity="0.06561623"/>
    <path d="M 308.5766906738281 33.259700775146484 C 308.43792724609375 31.057519912719727 308.3612060546875 30.173723220825195 307.8311767578125 31.465900421142578 C 308.6291198730469 30.274803161621094 307.59228515625 30.943511962890625 308.5931091308594 30.952428817749023 C 307.55322265625 31.073291778564453 308.7587890625 29.73145866394043 308.531005859375 33.75762939453125 C 308.92919921875 32.65436935424805 307.3380126953125 34.109619140625 308.1502380371094 33.444374084472656 L 308.5766906738281 33.259700775146484" stroke-width="2.0" fill="rgb(184, 102, 182)" opacity="0.19259016"/>
    <path d="M 244.0645294189453 125.84693145751953 C 243.5602264404297 118.87141418457031 242.97589111328125 123.26290893554688 251.98365783691406 156.3695526123047 C 242.14808654785156 156.76708984375 246.37667846679688 169.30477905273438 237.37255859375 121.6957015991211 C 231.01806640625 90.95743560791016 250.29214477539062 62.66028594970703 273.34765625 64.53087615966797 C 226.0093536376953 80.30009460449219 247.3883514404297 133.4501190185547 242.36300659179688 116.62176513671875 L 244.0645294189453 125.84693145751953" stroke-width="2.0" fill="rgb(15, 28, 3)" opacity="0.86920995"/>
    <path d="M 8.930696487426758 178.75494384765625 C 8.993009567260742 178.78842163085938 9.377214431762695 178.7838134765625 9.669416427612305 178.92324829101562 C 11.457918167114258 178.39907836914062 11.10263442993164 178.61837768554688 10.889265060424805 178.61485290527344 C 8.956311225891113 179.03756713867188 9.887496948242188 178.92713928222656 10.92370891571045 178.5843505859375 C 10.63071346282959 178.60531616210938 9.843950271606445 179.0403594970703 9.422938346862793 178.8404998779297 L 8.930696487426758 178.75494384765625" stroke-width="2.0" fill="rgb(29, 67, 160)" opacity="0.053468365"/>
    <path d="M 28.856637954711914 205.8772430419922 C 28.1623477935791 205.93896484375 29.874765396118164 205.66297912597656 27.36052703857422 206.21798706054688 C 27.39344596862793 206.5716552734375 26.53290557861328 206.53553771972656 27.180702209472656 206.51962280273438 C 26.099720001220703 206.4456024169922 25.802825927734375 206.25604248046875 27.472126007080078 206.62144470214844 C 25.92022132873535 206.21136474609375 27.210309982299805 206.89906311035156 27.435728073120117 206.16949462890625 L 28.856637954711914 205.8772430419922" stroke-width="2.0" fill="rgb(84, 190, 82)" opacity="0.29789153"/>
    <path d="M 394.5663146972656 337.958740234375 C 395.1409912109375 337.4603271484375 394.5567932128906 336.2415771484375 395.6795349121094 336.71319580078125 C 396.2589111328125 336.2534484863281 395.9300842285156 336.0787658691406 395.397216796875 337.4897155761719 C 395.55938720703125 336.7724914550781 396.604248046875 335.3546142578125 394.5610656738281 337.56732177734375 C 394.8669738769531 336.3978576660156 394.345458984375 337.50506591796875 392.5006408691406 338.5553894042969 L 394.5663146972656 337.958740234375" stroke-width="2.0" fill="rgb(65, 110, 40)" opacity="0.0"/>
    <path d="M 414.1665954589844 63.32865905761719 C 414.0467529296875 62.7822380065918 413.467529296875 61.70685958862305 415.06866455078125 63.68790054321289 C 415.791748046875 64.33568572998047 414.1211853027344 62.63815689086914 415.0903015136719 63.661197662353516 C 412.6729736328125 61.17595672607422 413.8039245605469 62.21455383300781 414.4420166015625 63.010807037353516 C 413.35040283203125 61.34148406982422 414.7849426269531 65.14079284667969 413.2067565917969 59.885311126708984 L 414.1665954589844 63.32865905761719" stroke-width="2.0" fill="rgb(85, 254, 89)" opacity="0.2340778"/>
    <path d="M 20.695852279663086 135.300048828125 C 20.9387149810791 134.85179138183594 19.63357162475586 135.46983337402344 21.27853775024414 134.96597290039062 C 23.23493766784668 134.98040771484375 21.71118927001953 135.00894165039062 21.46279525756836 134.92340087890625 C 21.000368118286133 135.15737915039062 22.052291870117188 134.0047149658203 21.1602840423584 135.0481719970703 C 20.22464370727539 134.87794494628906 20.907835006713867 136.07656860351562 20.91054916381836 138.2774200439453 L 20.695852279663086 135.300048828125" stroke-width="2.0" fill="rgb(126, 127, 254)" opacity="0.09575997"/>
    <path d="M 398.7886047363281 165.66773986816406 C 398.92901611328125 165.31622314453125 398.49359130859375 166.40821838378906 400.57806396484375 164.60574340820312 C 402.0240478515625 167.6533660888672 401.025146484375 165.13385009765625 401.7088317871094 164.42669677734375 C 397.4361267089844 166.01072692871094 398.9531555175781 166.09791564941406 395.9019470214844 163.6903839111328 C 402.043212890625 169.09620666503906 397.8961486816406 165.2824249267578 399.1978759765625 166.16668701171875 L 398.7886047363281 165.66773986816406" stroke-width="2.0" fill="rgb(212, 236, 225)" opacity="0.16958508"/>
    <path d="M 415.81951904296875 103.02935791015625 C 416.572021484375 102.97689056396484 416.16375732421875 103.13034057617188 416.17144775390625 101.60861206054688 C 417.91094970703125 103.75235748291016 417.7396240234375 103.38214874267578 419.58563232421875 102.9017562866211 C 417.6067810058594 104.82333374023438 418.1766357421875 104.63613891601562 418.350341796875 105.84231567382812 C 415.91961669921875 104.60417938232422 416.2201232910156 105.291015625 415.6015930175781 106.0103988647461 L 415.81951904296875 103.02935791015625" stroke-width="2.0" fill="rgb(54, 70, 132)" opacity="0.0"/>
    <path d="M 320.4140625 276.2377624511719 C 270.5770263671875 305.2366943359375 287.735595703125 299.1195373535156 280.4717712402344 302.73101806640625 C 265.8051452636719 303.1089782714844 246.49847412109375 301.1374206542969 236.34017944335938 301.3213806152344 C 232.32652282714844 259.6409606933594 257.7353515625 245.57704162597656 269.127197265625 267.9334716796875 C 233.35267639160156 277.2471618652344 286.766845703125 287.04046630859375 285.5782165527344 268.0408630371094 L 320.4140625 276.2377624511719" stroke-width="2.0" fill="rgb(130, 151, 144)" opacity="0.28350148"/>
    <path d="M 201.2629852294922 261.0443115234375 C 199.91864013671875 245.64036560058594 195.7545928955078 240.08819580078125 169.97695922851562 247.63314819335938 C 166.55816650390625 250.56192016601562 173.29611206054688 252.1772918701172 168.88214111328125 252.32080078125 C 153.75494384765625 243.53636169433594 121.7511215209961 266.52862548828125 182.03421020507812 256.7362976074219 C 129.49757385253906 233.95213317871094 142.21942138671875 279.54620361328125 201.6019287109375 277.4029846191406 L 201.2629852294922 261.0443115234375" stroke-width="2.0" fill="rgb(76, 97, 89)" opacity="0.15757701"/>
    <path d="M 163.6829833984375 307.0544738769531 C 162.95675659179688 342.2975769042969 165.97543334960938 314.132568359375 144.23648071289062 313.2146911621094 C 112.35474395751953 309.0077209472656 54.03963088989258 315.7303771972656 40.618675231933594 285.824951171875 C 40.751285552978516 254.62660217285156 51.77983474731445 285.100830078125 61.1989631652832 288.81927490234375 C 91.17915344238281 302.9120788574219 133.17654418945312 293.6104736328125 157.98609924316406 303.6649475097656 L 163.6829833984375 307.0544738769531" stroke-width="2.0" fill="rgb(147, 71, 30)" opacity="0.45958683"/>
    <path d="M 202.115478515625 16.283206939697266 C 202.8682098388672 16.806995391845703 202.3826446533203 17.43474578857422 202.19912719726562 16.555879592895508 C 202.5369873046875 17.451723098754883 201.8709259033203 16.9421329498291 202.66981506347656 16.496337890625 C 201.72491455078125 17.12773895263672 202.19894409179688 16.433237075805664 202.99891662597656 17.217884063720703 C 202.28857421875 15.697059631347656 202.8396453857422 16.09170913696289 202.16761779785156 17.297183990478516 L 202.115478515625 16.283206939697266" stroke-width="2.0" fill="rgb(93, 30, 149)" opacity="0.0"/>
    <path d="M 476.1458740234375 240.9648895263672 C 473.14996337890625 238.9207763671875 473.4322814941406 238.66419982910156 476.6965637207031 240.7099151611328 C 472.3129577636719 239.9391326904297 474.6887512207031 242.88829040527344 476.3004150390625 234.58370971679688 C 473.7491149902344 242.69573974609375 474.06524658203125 239.574951171875 476.040283203125 242.2709503173828 C 481.0508728027344 195.5508575439453 478.9959411621094 232.60597229003906 467.8694152832031 256.8234558105469 L 476.1458740234375 240.9648895263672" stroke-width="2.0" fill="rgb(0, 9, 4)" opacity="0.6498242"/>
    <path d="M 37.456600189208984 153.57762145996094 C 35.17610168457031 148.35179138183594 36.8336067199707 148.5237579345703 36.245643615722656 148.7974395751953 C 36.39308547973633 149.85528564453125 35.76520919799805 148.36001586914062 36.6320686340332 151.4879913330078 C 35.730918884277344 149.49270629882812 37.412879943847656 149.56744384765625 33.964820861816406 149.91360473632812 C 37.4073371887207 149.56459045410156 35.94163513183594 149.7390899658203 36.4039306640625 150.77059936523438 L 37.456600189208984 153.57762145996094" stroke-width="2.0" fill="rgb(99, 153, 245)" opacity="0.26521796"/>
    <path d="M 256.6552429199219 290.3568115234375 C 269.3695373535156 288.2254943847656 264.0940856933594 289.1375427246094 300.9286193847656 282.625244140625 C 279.6492919921875 285.302734375 253.07546997070312 278.6914978027344 256.7802429199219 285.2958068847656 C 151.3712158203125 282.5771789550781 274.83880615234375 282.4955139160156 161.1150360107422 272.8519287109375 C 329.29827880859375 277.6517028808594 320.4300537109375 269.8369140625 316.1585998535156 279.9930419921875 L 256.6552429199219 290.3568115234375" stroke-width="2.0" fill="rgb(23, 83, 99)" opacity="0.42631686"/>
    <path d="M 88.40001678466797 205.024169921875 C 84.89034271240234 204.33352661132812 89.24891662597656 206.2889862060547 85.31111907958984 204.55357360839844 C 96.19647979736328 196.7357635498047 69.34599304199219 220.43377685546875 53.056766510009766 198.92684936523438 C 30.932130813598633 265.12554931640625 37.753849029541016 205.7205352783203 63.15009307861328 187.9828338623047 C 56.68104553222656 201.94183349609375 109.29325103759766 207.37594604492188 87.60725402832031 204.3705596923828 L 88.40001678466797 205.024169921875" stroke-width="2.0" fill="rgb(67, 9, 31)" opacity="0.8311582"/>
    <path d="M 431.65679931640625 183.27304077148438 C 389.20989990234375 210.40713500976562 417.951416015625 183.90835571289062 406.84783935546875 172.44883728027344 C 402.4892883300781 198.09336853027344 377.655517578125 189.976318359375 391.517578125 191.5615997314453 C 376.83551025390625 195.1731414794922 404.4082336425781 189.54270935058594 395.1379699707031 171.0009307861328 C 432.2023010253906 169.53787231445312 381.7273254394531 225.7555389404297 420.989501953125 176.87245178222656 L 431.65679931640625 183.27304077148438" stroke-width="2.0" fill="rgb(44, 54, 51)" opacity="0.5843472"/>
    <path d="M 431.4933166503906 23.6761474609375 C 432.0111083984375 24.41283416748047 431.9367370605469 23.73833656311035 431.83502197265625 24.07251739501953 C 428.55255126953125 27.735857009887695 428.7951965332031 27.68478012084961 430.1915588378906 25.909385681152344 C 430.7555847167969 25.621318817138672 431.8381652832031 23.459209442138672 432.0816650390625 24.281085968017578 C 429.9183349609375 21.962560653686523 431.3099365234375 23.50257110595703 432.1836242675781 24.370132446289062 L 431.4933166503906 23.6761474609375" stroke-width="2.0" fill="rgb(126, 43, 234)" opacity="0.1457201"/>
    <path d="M 387.95074462890625 52.05820083618164 C 385.9936828613281 50.68911361694336 386.2146911621094 50.84101104736328 386.5707702636719 51.03595733642578 C 388.84759521484375 53.28147888183594 389.4246520996094 52.1165657043457 389.9954528808594 50.60392379760742 C 387.59490966796875 52.72678756713867 388.3809814453125 52.95321273803711 390.15667724609375 53.02042770385742 C 387.58349609375 50.84602355957031 386.754150390625 52.25239181518555 386.8675537109375 54.1058464050293 L 387.95074462890625 52.05820083618164" stroke-width="2.0" fill="rgb(81, 138, 221)" opacity="0.0"/>
    <path d="M 408.72900390625 85.22730255126953 C 457.0749206542969 83.85206604003906 454.8164367675781 101.22811126708984 441.3793640136719 122.79207611083984 C 448.5345458984375 134.64303588867188 454.7864990234375 122.9411849975586 458.8516845703125 153.82565307617188 C 423.87542724609375 176.0669708251953 449.9811706542969 181.75869750976562 451.6006164550781 119.26846313476562 C 434.2931213378906 121.40410614013672 481.378662109375 186.52392578125 397.89739990234375 169.3668212890625 L 408.72900390625 85.22730255126953" stroke-width="2.0" fill="rgb(197, 219, 228)" opacity="0.0"/>
    <path d="M 249.20037841796875 241.31568908691406 C 223.86988830566406 248.7823028564453 218.52467346191406 257.2998352050781 219.7489471435547 258.5696716308594 C 227.93743896484375 263.8740539550781 238.31394958496094 264.0014953613281 312.7373962402344 241.02854919433594 C 223.2870635986328 230.09471130371094 232.43568420410156 259.5422058105469 200.7993621826172 260.72186279296875 C 194.829345703125 204.1852569580078 217.781982421875 156.27674865722656 204.99159240722656 243.2332000732422 L 249.20037841796875 241.31568908691406" stroke-width="2.0" fill="rgb(0, 17, 0)" opacity="0.08283646"/>
    <path d="M 202.3946075439453 300.6308288574219 C 204.98692321777344 300.49639892578125 187.3779296875 301.7082824707031 166.519775390625 299.5826416015625 C 194.60386657714844 311.1123352050781 197.79888916015625 315.09332275390625 204.2542266845703 318.5863037109375 C 114.12162780761719 261.2475891113281 87.13729858398438 327.17864990234375 125.39885711669922 254.5587158203125 C 268.8148498535156 295.41424560546875 231.07635498046875 257.4566650390625 236.50050354003906 301.24261474609375 L 202.3946075439453 300.6308288574219" stroke-width="2.0" fill="rgb(21, 56, 42)" opacity="0.110223256"/>
    <path d="M 406.2088317871094 232.56956481933594 C 359.6662292480469 230.19554138183594 363.26611328125 239.98094177246094 362.34539794921875 223.5355987548828 C 364.8793029785156 245.93856811523438 348.5347900390625 256.6512756347656 407.6908874511719 233.0878143310547 C 388.08428955078125 228.58982849121094 321.5377197265625 256.07940673828125 353.9058837890625 168.01402282714844 C 325.2299499511719 234.0558319091797 364.2990417480469 200.50721740722656 341.528564453125 268.6426086425781 L 406.2088317871094 232.56956481933594" stroke-width="2.0" fill="rgb(43, 30, 32)" opacity="0.48262158"/>
    <path d="M 85.0002212524414 109.00765228271484 C 84.30970764160156 108.23321533203125 83.20384216308594 105.84638977050781 82.03968811035156 104.82388305664062 C 83.95597839355469 106.96137237548828 84.59236145019531 108.6755599975586 84.08068084716797 107.4141845703125 C 84.24420928955078 108.4030532836914 85.24889373779297 109.40023803710938 85.96637725830078 109.36033630371094 C 83.57579040527344 108.80115509033203 87.14531707763672 108.86798858642578 82.69792175292969 109.32041931152344 L 85.0002212524414 109.00765228271484" stroke-width="2.0" fill="rgb(60, 148, 160)" opacity="0.16322212"/>
    <path d="M 252.3890380859375 166.52085876464844 C 244.27220153808594 137.3957061767578 283.98809814453125 147.0347900390625 245.88218688964844 182.06845092773438 C 122.23487091064453 213.43984985351562 203.55177307128906 85.21354675292969 233.45147705078125 155.62823486328125 C 262.13409423828125 141.76039123535156 236.9577178955078 130.93519592285156 238.27304077148438 92.84164428710938 C 252.85427856445312 89.91448974609375 233.65882873535156 98.13300323486328 244.60777282714844 127.53142547607422 L 252.3890380859375 166.52085876464844" stroke-width="2.0" fill="rgb(61, 96, 68)" opacity="0.54306525"/>
    <path d="M 188.03497314453125 207.77587890625 C 148.6868133544922 156.6907196044922 125.81586456298828 277.525146484375 171.22244262695312 271.23150634765625 C 118.03973388671875 308.78680419921875 142.185791015625 233.196533203125 61.948387145996094 188.048583984375 C 93.9953384399414 166.8793182373047 111.5412826538086 189.6468963623047 94.10645294189453 154.6583251953125 C 109.99874114990234 94.90369415283203 67.79927062988281 115.9817123413086 159.80767822265625 126.13261413574219 L 188.03497314453125 207.77587890625" stroke-width="2.0" fill="rgb(203, 170, 137)" opacity="0.80747175"/>
    <path d="M 442.7395935058594 246.6722869873047 C 462.9503173828125 273.7519226074219 458.4877624511719 220.65428161621094 441.2076721191406 281.25408935546875 C 402.00885009765625 285.0390930175781 392.366455078125 293.45050048828125 316.90533447265625 269.78326416015625 C 384.8831787109375 234.06283569335938 409.8221740722656 178.94662475585938 393.83099365234375 223.8818359375 C 386.0904235839844 231.5150146484375 387.7714538574219 268.035400390625 439.2113037109375 260.0783386230469 L 442.7395935058594 246.6722869873047" stroke-width="2.0" fill="rgb(127, 123, 123)" opacity="0.66690063"/>
    <path d="M -13.114667892456055 -7.912169456481934 C 49.7956428527832 -6.218898773193359 20.40586280822754 -3.8676259517669678 87.32254791259766 -10.834834098815918 C 96.55668640136719 19.19572639465332 99.25635528564453 22.09247398376465 105.2635498046875 81.1422119140625 C 65.28827667236328 91.28546142578125 70.3636703491211 95.26607513427734 88.08690643310547 83.91972351074219 C 72.38523864746094 92.30416107177734 87.60262298583984 117.87266540527344 -4.536486625671387 122.35297393798828 L -13.114667892456055 -7.912169456481934" stroke-width="2.0" fill="rgb(206, 241, 249)" opacity="0.019990087"/>
    <path d="M 509.86566162109375 104.5121841430664 C 509.5399475097656 104.21107482910156 509.0910949707031 103.69800567626953 508.6907653808594 102.7890396118164 C 510.3238220214844 105.56626892089844 510.44415283203125 105.76219177246094 511.36553955078125 104.33674621582031 C 509.7325744628906 105.41668701171875 511.1879577636719 105.70658111572266 512.2406616210938 106.831787109375 C 509.5477294921875 104.1584701538086 509.3968811035156 105.1925277709961 509.1038513183594 106.79605865478516 L 509.86566162109375 104.5121841430664" stroke-width="2.0" fill="rgb(233, 127, 255)" opacity="0.00038640524"/>
    <path d="M 125.04553985595703 276.99468994140625 C 131.16090393066406 292.692626953125 102.17122650146484 289.29022216796875 103.91478729248047 290.7293701171875 C 123.14490509033203 288.13818359375 27.63530158996582 292.6287841796875 63.093379974365234 271.2046203613281 C 32.0338134765625 282.99658203125 71.45642852783203 284.71441650390625 95.82847595214844 287.7674865722656 C 109.28974151611328 287.2076110839844 99.69961547851562 290.2580871582031 120.1378402709961 286.8445739746094 L 125.04553985595703 276.99468994140625" stroke-width="2.0" fill="rgb(43, 14, 25)" opacity="0.7512403"/>
    <path d="M 171.22055053710938 113.68644714355469 C 170.1170196533203 111.91213989257812 170.87229919433594 111.8051528930664 170.55592346191406 112.02506256103516 C 170.9169464111328 113.65702819824219 170.658203125 112.3594970703125 170.44927978515625 111.1709213256836 C 170.85140991210938 114.1732177734375 171.67059326171875 113.81246185302734 171.2391815185547 113.83712005615234 C 171.4702606201172 112.77361297607422 172.0146484375 114.12353515625 169.92469787597656 113.42652130126953 L 171.22055053710938 113.68644714355469" stroke-width="2.0" fill="rgb(99, 249, 193)" opacity="0.1577815"/>
    <path d="M 422.5009460449219 92.4950180053711 C 421.8429870605469 92.0765380859375 421.74224853515625 91.54273223876953 421.4297790527344 91.53620910644531 C 423.6168518066406 93.05946350097656 421.2904052734375 91.94512939453125 421.0723876953125 90.3757553100586 C 421.4242858886719 91.67056274414062 421.873291015625 91.16897583007812 421.39337158203125 92.09518432617188 C 421.6030578613281 91.02948760986328 422.2111511230469 92.26730346679688 421.89447021484375 91.9368667602539 L 422.5009460449219 92.4950180053711" stroke-width="2.0" fill="rgb(81, 55, 58)" opacity="0.30358902"/>
    <path d="M 498.3121337890625 235.88583374023438 C 499.01934814453125 234.76492309570312 498.2752380371094 234.28427124023438 498.66839599609375 234.85256958007812 C 500.5865783691406 234.3928985595703 500.9474182128906 233.32659912109375 501.32464599609375 233.1312713623047 C 499.0094299316406 235.5543670654297 498.4273376464844 234.3373260498047 498.6140441894531 235.15032958984375 C 498.6697082519531 234.33155822753906 498.6164855957031 235.59402465820312 497.9584045410156 236.7417449951172 L 498.3121337890625 235.88583374023438" stroke-width="2.0" fill="rgb(252, 175, 153)" opacity="0.1237988"/>
    <path d="M 27.79258918762207 265.1349792480469 C 34.269901275634766 265.2872314453125 33.554107666015625 266.35675048828125 34.209922790527344 262.7291259765625 C 31.686294555664062 260.3626403808594 31.78018569946289 255.91006469726562 34.51224899291992 265.1806640625 C 37.7775764465332 268.1551513671875 38.40556335449219 267.9317626953125 36.23872375488281 273.3578186035156 C 33.36600112915039 269.3685302734375 35.28490447998047 269.4596252441406 30.458093643188477 273.76007080078125 L 27.79258918762207 265.1349792480469" stroke-width="2.0" fill="rgb(205, 233, 238)" opacity="0.033347037"/>
    <path d="M 267.5311584472656 227.18003845214844 C 267.045166015625 206.40017700195312 267.5583801269531 268.31689453125 264.5479431152344 264.02410888671875 C 252.16683959960938 270.2497863769531 262.4981384277344 269.96435546875 253.1355743408203 263.8157958984375 C 257.3100891113281 235.15963745117188 257.1243896484375 220.10321044921875 253.72280883789062 199.43057250976562 C 273.3687438964844 192.9222869873047 269.74969482421875 196.0968017578125 275.95703125 198.57562255859375 L 267.5311584472656 227.18003845214844" stroke-width="2.0" fill="rgb(23, 36, 11)" opacity="0.8807673"/>
    <path d="M 84.33915710449219 176.6436767578125 C 83.36585235595703 174.6080322265625 82.21891784667969 175.4781951904297 83.14161682128906 175.25160217285156 C 84.51980590820312 176.25814819335938 84.14810180664062 176.62464904785156 83.97581481933594 175.95565795898438 C 84.02127838134766 175.39671325683594 83.88026428222656 176.2076873779297 84.41064453125 176.75843811035156 C 83.80365753173828 176.0133514404297 84.58287048339844 176.56683349609375 84.23240661621094 177.19439697265625 L 84.33915710449219 176.6436767578125" stroke-width="2.0" fill="rgb(244, 254, 77)" opacity="0.11220121"/>
    <path d="M 348.74371337890625 44.1700325012207 C 317.0840148925781 111.8653564453125 353.6783142089844 31.98066520690918 297.5877380371094 97.15081787109375 C 283.7506103515625 123.46440124511719 258.39910888671875 137.74493408203125 260.5091552734375 63.31620407104492 C 261.65435791015625 28.09537696838379 240.5915985107422 71.60154724121094 313.12457275390625 41.00352096557617 C 327.1266174316406 9.493634223937988 320.6549377441406 48.34817123413086 357.52801513671875 46.958744049072266 L 348.74371337890625 44.1700325012207" stroke-width="2.0" fill="rgb(152, 40, 0)" opacity="0.68850327"/>
    <path d="M 279.0194396972656 273.61102294921875 C 253.010498046875 268.93475341796875 337.3169250488281 264.69232177734375 274.299560546875 279.68603515625 C 250.70091247558594 271.0873718261719 158.90390014648438 289.5612487792969 215.45082092285156 256.91680908203125 C 273.6302185058594 284.8828430175781 277.65924072265625 246.4550018310547 274.8437805175781 274.7885437011719 C 280.84454345703125 275.0479431152344 251.7248992919922 274.74468994140625 253.12432861328125 273.73773193359375 L 279.0194396972656 273.61102294921875" stroke-width="2.0" fill="rgb(192, 174, 175)" opacity="0.4895855"/>
    <path d="M 329.6148376464844 244.5287322998047 C 272.5506591796875 227.41928100585938 295.37890625 238.56614685058594 282.1923828125 230.62518310546875 C 264.47869873046875 223.31846618652344 274.4017028808594 243.5882110595703 259.72021484375 219.09860229492188 C 264.4221496582031 157.1889190673828 237.25225830078125 143.78567504882812 253.2957305908203 193.6915283203125 C 293.55413818359375 215.71340942382812 265.8543701171875 161.63719177246094 309.0570373535156 190.1226043701172 L 329.6148376464844 244.5287322998047" stroke-width="2.0" fill="rgb(100, 130, 129)" opacity="0.9994359"/>
    <path d="M 348.22265625 311.3727722167969 C 345.4477844238281 310.5893859863281 346.2763366699219 310.5397644042969 351.4355163574219 312.6170349121094 C 346.54425048828125 310.63629150390625 346.4192810058594 310.9040222167969 346.2012939453125 310.81787109375 C 345.8264465332031 310.7236022949219 346.8788146972656 310.84527587890625 349.1221618652344 311.7171630859375 C 349.5744934082031 311.1803894042969 349.3641052246094 312.3010559082031 347.83953857421875 311.0585021972656 L 348.22265625 311.3727722167969" stroke-width="2.0" fill="rgb(204, 65, 107)" opacity="0.21184032"/>
    <path d="M 179.31216430664062 330.6810302734375 C 179.296875 331.785888671875 178.5297393798828 332.6666259765625 177.50108337402344 332.8055419921875 C 176.4735870361328 332.8973388671875 175.5032501220703 332.2364501953125 175.16917419433594 331.2540283203125 C 175.02511596679688 330.2540588378906 175.5962371826172 329.23358154296875 176.56895446777344 328.92620849609375 C 177.48106384277344 328.50091552734375 178.57186889648438 328.9015197753906 179.15545654296875 329.8228454589844 L 179.31216430664062 330.6810302734375" stroke-width="2.0" fill="rgb(184, 109, 137)" opacity="0.0"/>
    <path d="M 229.2359619140625 27.483734130859375 C 229.02139282226562 26.593942642211914 229.26194763183594 26.764766693115234 229.11337280273438 26.952699661254883 C 229.64224243164062 27.257286071777344 227.76040649414062 27.651830673217773 227.19471740722656 27.26255226135254 C 228.8546142578125 27.817291259765625 229.2759246826172 26.613147735595703 229.1995086669922 27.559598922729492 C 228.93682861328125 23.974502563476562 228.96514892578125 26.983369827270508 229.5684356689453 29.124361038208008 L 229.2359619140625 27.483734130859375" stroke-width="2.0" fill="rgb(112, 255, 76)" opacity="0.19154538"/>
    <path d="M 333.0133972167969 244.48104858398438 C 331.495849609375 243.10287475585938 331.73236083984375 242.43804931640625 331.39373779296875 242.2758026123047 C 333.5282287597656 245.8186798095703 333.27679443359375 244.54783630371094 333.7537841796875 243.24786376953125 C 333.13134765625 244.74935913085938 334.644775390625 244.57656860351562 335.1741943359375 246.005615234375 C 333.1562805175781 243.37351989746094 333.4524230957031 244.1336212158203 333.2281494140625 244.87026977539062 L 333.0133972167969 244.48104858398438" stroke-width="2.0" fill="rgb(254, 255, 140)" opacity="0.020294344"/>
    <path d="M 107.46886444091797 280.63446044921875 C 99.29310607910156 239.1780242919922 122.61190795898438 216.3832550048828 65.64413452148438 219.74464416503906 C 108.11437225341797 217.3480224609375 117.67601013183594 222.32809448242188 105.38314819335938 236.71383666992188 C 104.18189239501953 210.6638641357422 71.8328857421875 227.49168395996094 100.73637390136719 220.83294677734375 C 40.34031677246094 221.46463012695312 137.8312530517578 197.24191284179688 121.6161117553711 261.02850341796875 L 107.46886444091797 280.63446044921875" stroke-width="2.0" fill="rgb(39, 0, 19)" opacity="0.5381129"/>
    <path d="M 392.48321533203125 169.652587890625 C 464.5998840332031 177.6461181640625 458.62738037109375 242.84671020507812 447.3990783691406 268.8318786621094 C 304.79071044921875 235.28977966308594 373.1866149902344 196.87847900390625 347.03131103515625 190.46157836914062 C 353.6299743652344 146.6143035888672 324.65447998046875 172.7818603515625 320.127685546875 132.21493530273438 C 297.5521240234375 166.96347045898438 335.7641296386719 89.72624206542969 399.1728515625 109.26258850097656 L 392.48321533203125 169.652587890625" stroke-width="2.0" fill="rgb(124, 101, 106)" opacity="0.36978242"/>
    <path d="M 468.54083251953125 164.3378448486328 C 467.8941345214844 163.90042114257812 467.8164978027344 163.9235076904297 467.6486511230469 163.6457977294922 C 468.28216552734375 164.37538146972656 468.61419677734375 164.1083526611328 468.8404541015625 164.95648193359375 C 468.4811096191406 163.89747619628906 468.6548767089844 165.15895080566406 469.8041687011719 165.76242065429688 C 468.40374755859375 164.84242248535156 468.85174560546875 164.63107299804688 468.79638671875 164.85926818847656 L 468.54083251953125 164.3378448486328" stroke-width="2.0" fill="rgb(190, 129, 137)" opacity="0.26068902"/>
    <path d="M 121.78321838378906 2.6058149337768555 C 121.64105987548828 1.8595519065856934 121.60404968261719 1.971299409866333 122.20201873779297 4.454497337341309 C 121.5527572631836 1.8649041652679443 121.78137969970703 1.970829963684082 121.24772644042969 1.0973066091537476 C 121.79900360107422 1.9955013990402222 121.53514862060547 1.9885329008102417 122.19049835205078 4.351756572723389 C 121.28887176513672 0.41649100184440613 121.50970458984375 1.6541730165481567 121.95954132080078 3.308706283569336 L 121.78321838378906 2.6058149337768555" stroke-width="2.0" fill="rgb(110, 255, 62)" opacity="0.18166962"/>
    <path d="M 442.5572814941406 187.29800415039062 C 443.0401306152344 185.948486328125 442.0163879394531 186.57345581054688 442.6567077636719 186.41285705566406 C 442.6856994628906 188.07534790039062 442.2745666503906 187.35658264160156 442.6861877441406 187.47039794921875 C 443.14642333984375 188.6670379638672 443.4710693359375 189.0074920654297 444.4446716308594 190.1334686279297 C 443.04083251953125 188.41163635253906 444.09515380859375 189.82862854003906 443.12017822265625 188.429931640625 L 442.5572814941406 187.29800415039062" stroke-width="2.0" fill="rgb(191, 177, 118)" opacity="0.006600762"/>
    <path d="M 444.27117919921875 138.22735595703125 C 422.21502685546875 189.29942321777344 502.150634765625 199.93438720703125 443.4648742675781 267.95965576171875 C 488.7377624511719 269.497802734375 495.8365478515625 240.96878051757812 475.2415466308594 202.36087036132812 C 484.1982421875 230.12576293945312 473.7270202636719 263.6042785644531 449.18634033203125 267.8604431152344 C 478.1331481933594 267.6490783691406 497.34991455078125 251.0070343017578 478.9742126464844 210.00035095214844 L 444.27117919921875 138.22735595703125" stroke-width="2.0" fill="rgb(95, 80, 83)" opacity="0.4734685"/>
    <path d="M 495.79791259765625 191.60267639160156 C 495.895751953125 191.22621154785156 494.2659606933594 190.77865600585938 497.1832580566406 190.4804229736328 C 495.0265808105469 190.77481079101562 495.2198486328125 190.7566375732422 495.8352966308594 191.55369567871094 C 494.7126159667969 190.47256469726562 497.43505859375 193.32232666015625 498.8951110839844 194.3747100830078 C 495.3387451171875 191.31492614746094 495.955810546875 191.9225311279297 495.0348815917969 190.13096618652344 L 495.79791259765625 191.60267639160156" stroke-width="2.0" fill="rgb(150, 97, 119)" opacity="0.2472732"/>
    <path d="M 101.88275909423828 352.7305603027344 C 87.83892822265625 330.5097961425781 88.78041076660156 331.426025390625 105.70091247558594 358.8628845214844 C 127.7614517211914 352.6895751953125 135.4537353515625 328.00341796875 123.59088897705078 311.4104919433594 C 69.71615600585938 308.8203430175781 91.94161987304688 326.6998291015625 86.46382141113281 311.8483581542969 C 48.71031188964844 302.51715087890625 39.77505111694336 325.33697509765625 57.924583435058594 366.4621276855469 L 101.88275909423828 352.7305603027344" stroke-width="2.0" fill="rgb(201, 216, 214)" opacity="0.35903093"/>
    <path d="M 469.055419921875 284.7586364746094 C 431.54461669921875 303.1384582519531 275.12103271484375 284.2032165527344 283.1092224121094 303.109619140625 C 306.791748046875 275.38787841796875 332.79541015625 282.943115234375 303.6211853027344 271.89581298828125 C 282.7278747558594 274.7386474609375 304.4443359375 283.6666564941406 260.7393493652344 253.33502197265625 C 345.9095153808594 254.61782836914062 343.86456298828125 246.3584442138672 344.9189758300781 277.5838928222656 L 469.055419921875 284.7586364746094" stroke-width="2.0" fill="rgb(0, 30, 13)" opacity="0.09613481"/>
    <path d="M 116.70565795898438 271.1269836425781 C 132.98497009277344 280.1102294921875 125.20979309082031 293.0799865722656 99.60650634765625 287.71484375 C 68.31327056884766 286.675537109375 43.45671844482422 285.2435302734375 34.715694427490234 254.2102508544922 C 33.48713684082031 258.4080505371094 41.41573715209961 216.1595458984375 39.5708122253418 230.21302795410156 C 62.99726486206055 165.9638671875 66.78994750976562 191.75270080566406 121.38661193847656 237.8507537841797 L 116.70565795898438 271.1269836425781" stroke-width="2.0" fill="rgb(211, 167, 125)" opacity="0.654636"/>
    <path d="M 263.82611083984375 200.16444396972656 C 262.92877197265625 217.01406860351562 256.5859069824219 193.63092041015625 236.77200317382812 203.04591369628906 C 267.2515869140625 179.40171813964844 240.857666015625 166.67567443847656 231.5418701171875 205.58897399902344 C 256.6719970703125 190.58209228515625 256.5439147949219 217.41998291015625 251.25128173828125 186.0396270751953 C 235.89498901367188 216.5861053466797 197.8323516845703 213.4232635498047 254.46444702148438 167.03001403808594 L 263.82611083984375 200.16444396972656" stroke-width="2.0" fill="rgb(42, 55, 31)" opacity="0.87475866"/>
    <path d="M 170.14208984375 335.4035339355469 C 170.75885009765625 335.3414611816406 170.40301513671875 335.8715515136719 170.97659301757812 334.8116149902344 C 172.66200256347656 336.4548645019531 172.25820922851562 336.0189208984375 174.099853515625 335.6691589355469 C 171.951171875 337.06207275390625 171.89724731445312 336.7537536621094 172.6345672607422 339.0046691894531 C 171.40907287597656 337.525390625 171.81399536132812 337.45916748046875 171.38453674316406 337.8501281738281 L 170.14208984375 335.4035339355469" stroke-width="2.0" fill="rgb(208, 117, 167)" opacity="0.0"/>
    <path d="M 241.917236328125 326.96685791015625 C 240.5937957763672 327.3463439941406 240.2572021484375 326.147216796875 242.593994140625 328.55291748046875 C 242.18844604492188 328.4695129394531 243.01446533203125 327.87054443359375 242.21923828125 328.7919921875 C 242.07164001464844 329.873779296875 241.9024658203125 328.984619140625 242.56581115722656 328.4620666503906 C 241.4517364501953 327.4615478515625 240.36456298828125 326.4598388671875 240.9839324951172 327.05853271484375 L 241.917236328125 326.96685791015625" stroke-width="2.0" fill="rgb(241, 117, 153)" opacity="0.124941"/>
    <path d="M 276.6025390625 349.0460205078125 C 275.171875 346.69696044921875 274.80206298828125 345.9945983886719 276.5650634765625 349.0026550292969 C 276.9169921875 346.03717041015625 276.72698974609375 347.884521484375 276.6536865234375 348.55218505859375 C 273.9672546386719 348.1344299316406 276.6321716308594 348.5924072265625 276.6659851074219 348.58636474609375 C 276.6705322265625 346.3861389160156 276.858642578125 349.0134582519531 276.27752685546875 349.5364685058594 L 276.6025390625 349.0460205078125" stroke-width="2.0" fill="rgb(50, 81, 198)" opacity="0.029202355"/>
    <path d="M 211.1075897216797 236.25650024414062 C 201.4150848388672 252.02276611328125 198.4892578125 256.7410888671875 193.4702606201172 259.07037353515625 C 191.6439971923828 258.4072570800781 191.85855102539062 261.6771545410156 191.53428649902344 252.84439086914062 C 184.7001190185547 224.92576599121094 182.4173126220703 239.8230743408203 175.1083984375 193.28541564941406 C 200.02627563476562 160.2482147216797 253.69972229003906 162.2559356689453 228.5854034423828 211.71665954589844 L 211.1075897216797 236.25650024414062" stroke-width="2.0" fill="rgb(80, 109, 87)" opacity="0.8387794"/>
  </g>
</svg>
