<?xml version="1.0" ?>
<svg xmlns="http://www.w3.org/2000/svg" version="1.1" width="512" height="380">
  <defs/>
  <g>
    <path d="M 412.382080078125 356.39276123046875 C 252.10145568847656 135.00363159179688 257.261474609375 86.6422119140625 312.3609619140625 106.4302978515625 C 259.8048400878906 60.131011962890625 245.0337371826172 39.131980895996094 161.62088012695312 59.124229431152344 C 170.52023315429688 2.830350637435913 199.3512725830078 30.03635025024414 348.3320617675781 23.16554832458496 C 420.7989807128906 -63.443241119384766 450.46221923828125 -63.076873779296875 412.382080078125 356.39276123046875" stroke-width="0.0" fill="rgb(21, 58, 85)" opacity="0.4014537" stroke="rgb(83, 103, 87)" stroke-opacity="0.67086846" stroke-linecap="round" stroke-linejoin="round"/>
    <path d="M 206.75833129882812 319.443115234375 C 274.70404052734375 272.82452392578125 331.169189453125 246.60536193847656 391.9157409667969 353.5430908203125 C -7.534436225891113 354.39178466796875 -12.709264755249023 353.4915771484375 -13.226358413696289 353.93231201171875 C -17.32093620300293 147.03753662109375 -24.62209129333496 140.7236328125 26.75282096862793 183.2866668701172 C 88.28911590576172 211.6543426513672 97.09053039550781 266.72418212890625 206.75833129882812 319.443115234375" stroke-width="0.0" fill="rgb(85, 64, 64)" opacity="0.7819821" stroke="rgb(163, 136, 244)" stroke-opacity="0.61469936" stroke-linecap="round" stroke-linejoin="round"/>
    <path d="M 255.61077880859375 75.77592468261719 C 250.0411834716797 145.9437713623047 203.30409240722656 123.01400756835938 185.2984619140625 179.93431091308594 C 183.30447387695312 122.4854736328125 192.37063598632812 151.4772491455078 173.00314331054688 136.30828857421875 C 185.1935272216797 148.03884887695312 175.62989807128906 131.60873413085938 205.36219787597656 116.49457550048828 C 185.14097595214844 88.17707061767578 190.86477661132812 42.213130950927734 255.61077880859375 75.77592468261719" stroke-width="0.0" fill="rgb(255, 255, 244)" opacity="0.7458492" stroke="rgb(189, 18, 205)" stroke-opacity="0.36236367" stroke-linecap="round" stroke-linejoin="round"/>
    <path d="M 117.0 54.0 C 116.33012390136719 56.5 114.5 58.33012771606445 112.0 59.0 C 109.5 58.33012771606445 107.66987609863281 56.5 107.0 54.0 C 107.66987609863281 51.5 109.5 49.66987228393555 112.0 49.0 C 114.5 49.66987228393555 116.33012390136719 51.5 117.0 54.0" stroke-width="0.0" fill="rgb(114, 137, 150)" opacity="1.0" stroke="rgb(3, 171, 163)" stroke-opacity="0.95321476" stroke-linecap="round" stroke-linejoin="round"/>
    <path d="M 89.0 272.0 C 88.33012390136719 274.5 86.5 276.33013916015625 84.0 277.0 C 81.5 276.33013916015625 79.66987609863281 274.5 79.0 272.0 C 79.66987609863281 269.5 81.5 267.66986083984375 84.0 267.0 C 86.5 267.66986083984375 88.33012390136719 269.5 89.0 272.0" stroke-width="0.0" fill="rgb(27, 36, 47)" opacity="1.0" stroke="rgb(60, 141, 184)" stroke-opacity="0.120888054" stroke-linecap="round" stroke-linejoin="round"/>
    <path d="M 475.0 82.0 C 474.33013916015625 84.5 472.5 86.33012390136719 470.0 87.0 C 467.5 86.33012390136719 465.66986083984375 84.5 465.0 82.0 C 465.66986083984375 79.5 467.5 77.66987609863281 470.0 77.0 C 472.5 77.66987609863281 474.33013916015625 79.5 475.0 82.0" stroke-width="0.0" fill="rgb(114, 137, 150)" opacity="1.0" stroke="rgb(5, 227, 92)" stroke-opacity="0.10091384" stroke-linecap="round" stroke-linejoin="round"/>
    <path d="M 261.0 370.0 C 260.33013916015625 372.5 258.5 374.33013916015625 256.0 375.0 C 253.5 374.33013916015625 251.6698760986328 372.5 251.0 370.0 C 251.6698760986328 367.5 253.5 365.66986083984375 256.0 365.0 C 258.5 365.66986083984375 260.33013916015625 367.5 261.0 370.0" stroke-width="0.0" fill="rgb(85, 114, 130)" opacity="1.0" stroke="rgb(182, 85, 205)" stroke-opacity="0.7828274" stroke-linecap="round" stroke-linejoin="round"/>
  </g>
</svg>
