<?xml version="1.0" ?>
<svg xmlns="http://www.w3.org/2000/svg" version="1.1" width="512" height="380">
  <defs/>
  <g>
    <path d="M 405.26165771484375 326.4363708496094 C 257.9068298339844 141.2898712158203 285.5388488769531 114.60676574707031 305.8104248046875 99.61943817138672 C 264.99029541015625 66.96666717529297 262.4266662597656 48.66763687133789 177.57479858398438 43.180747985839844 C 202.8137664794922 13.985631942749023 227.7517852783203 27.907474517822266 355.18792724609375 23.930660247802734 C 413.52337646484375 -35.052833557128906 436.67724609375 -52.984886169433594 405.26165771484375 326.4363708496094" stroke-width="0.0" fill="rgb(69, 99, 122)" opacity="0.3141666" stroke="rgb(83, 103, 87)" stroke-opacity="0.67086846" stroke-linecap="round" stroke-linejoin="round"/>
    <path d="M 89.0 273.0 C 88.33012390136719 275.5 86.5 277.33013916015625 84.0 278.0 C 81.5 277.33013916015625 79.66987609863281 275.5 79.0 273.0 C 79.66987609863281 270.5 81.5 268.66986083984375 84.0 268.0 C 86.5 268.66986083984375 88.33012390136719 270.5 89.0 273.0" stroke-width="0.0" fill="rgb(27, 36, 47)" opacity="1.0" stroke="rgb(163, 136, 244)" stroke-opacity="0.61469936" stroke-linecap="round" stroke-linejoin="round"/>
    <path d="M 190.0 136.0 C 189.3301239013672 138.5 187.5 140.3301239013672 185.0 141.0 C 182.5 140.3301239013672 180.6698760986328 138.5 180.0 136.0 C 180.6698760986328 133.5 182.5 131.6698760986328 185.0 131.0 C 187.5 131.6698760986328 189.3301239013672 133.5 190.0 136.0" stroke-width="0.0" fill="rgb(249, 243, 234)" opacity="1.0" stroke="rgb(189, 18, 205)" stroke-opacity="0.36236367" stroke-linecap="round" stroke-linejoin="round"/>
  </g>
</svg>
