<?xml version="1.0" ?>
<svg xmlns="http://www.w3.org/2000/svg" version="1.1" width="512" height="380">
  <defs/>
  <g>
    <path d="M 409.3977966308594 355.3654479980469 C 231.46778869628906 155.6526641845703 254.373291015625 71.34490203857422 314.92462158203125 109.21593475341797 C 257.6165466308594 56.653995513916016 213.6408233642578 30.361797332763672 162.47874450683594 58.74348449707031 C 164.08480834960938 10.516249656677246 188.5419158935547 27.622955322265625 341.3983459472656 23.094511032104492 C 436.15667724609375 -88.33302307128906 468.4593200683594 -75.19364929199219 409.3977966308594 355.3654479980469" stroke-width="0.0" fill="rgb(11, 53, 83)" opacity="0.49839038" stroke="rgb(83, 103, 87)" stroke-opacity="0.67086846" stroke-linecap="round" stroke-linejoin="round"/>
    <path d="M 192.53656005859375 297.3945617675781 C 280.3502502441406 287.43505859375 354.6028747558594 226.4337921142578 412.38134765625 354.21624755859375 C -7.500147342681885 353.679443359375 -12.80005931854248 353.70721435546875 -13.137812614440918 356.7159423828125 C -14.042158126831055 134.1768341064453 -15.201821327209473 127.08223724365234 25.241552352905273 189.47206115722656 C 96.78931427001953 196.19252014160156 79.3493881225586 289.0434265136719 192.53656005859375 297.3945617675781" stroke-width="0.0" fill="rgb(90, 73, 77)" opacity="0.7807697" stroke="rgb(163, 136, 244)" stroke-opacity="0.61469936" stroke-linecap="round" stroke-linejoin="round"/>
    <path d="M 250.32664489746094 78.21880340576172 C 254.06002807617188 145.20892333984375 201.8750457763672 122.14250946044922 185.3958740234375 181.6383819580078 C 182.79151916503906 126.05094146728516 194.4740447998047 147.78616333007812 166.47860717773438 137.58689880371094 C 189.0122833251953 147.8803253173828 174.23716735839844 132.57154846191406 204.22085571289062 117.36161041259766 C 182.2730255126953 88.32445526123047 200.19015502929688 39.738365173339844 250.32664489746094 78.21880340576172" stroke-width="0.0" fill="rgb(255, 251, 241)" opacity="0.6424218" stroke="rgb(189, 18, 205)" stroke-opacity="0.36236367" stroke-linecap="round" stroke-linejoin="round"/>
    <path d="M 182.33978271484375 82.65140533447266 C 64.35771179199219 171.59994506835938 -70.00244903564453 136.01882934570312 -37.70817947387695 60.394325256347656 C 212.13323974609375 83.15058135986328 69.10995483398438 24.33751678466797 0.9769327640533447 59.55840301513672 C -12.293787002563477 -44.43125534057617 15.092815399169922 -54.69402313232422 412.4715576171875 8.845735549926758 C 291.4128723144531 24.766035079956055 303.1568298339844 0.6179416179656982 182.33978271484375 82.65140533447266" stroke-width="0.0" fill="rgb(111, 134, 147)" opacity="0.778584" stroke="rgb(3, 171, 163)" stroke-opacity="0.95321476" stroke-linecap="round" stroke-linejoin="round"/>
    <path d="M 186.38717651367188 316.818115234375 C 314.3659973144531 315.798095703125 185.7501220703125 383.3620910644531 86.89759826660156 312.4870910644531 C 81.51211547851562 378.79547119140625 -29.193023681640625 332.9844970703125 -30.893203735351562 277.2566223144531 C 3.354757070541382 114.89197540283203 -27.35622787475586 158.23028564453125 59.44345474243164 202.70591735839844 C 92.04742431640625 237.75677490234375 113.70996856689453 258.5111389160156 186.38717651367188 316.818115234375" stroke-width="0.0" fill="rgb(34, 40, 49)" opacity="1.0" stroke="rgb(60, 141, 184)" stroke-opacity="0.120888054" stroke-linecap="round" stroke-linejoin="round"/>
    <path d="M 521.0213623046875 174.4095001220703 C 521.26123046875 196.44924926757812 528.4275512695312 194.8017578125 472.9225769042969 152.54539489746094 C 430.725830078125 177.01329040527344 407.4324951171875 146.32159423828125 397.4664611816406 38.86667251586914 C 410.5847473144531 18.70529556274414 403.8467102050781 24.72145652770996 519.5546264648438 23.360092163085938 C 525.4407348632812 27.462047576904297 524.0513305664062 31.99167251586914 521.0213623046875 174.4095001220703" stroke-width="0.0" fill="rgb(113, 136, 149)" opacity="0.9652371" stroke="rgb(5, 227, 92)" stroke-opacity="0.10091384" stroke-linecap="round" stroke-linejoin="round"/>
    <path d="M 525.7684936523438 359.6478271484375 C 403.67205810546875 554.725830078125 287.4688415527344 396.7066955566406 244.906982421875 390.8722839355469 C 218.00685119628906 400.7872009277344 94.19818115234375 565.6528930664062 -11.708542823791504 359.6102294921875 C 89.64459991455078 359.1900329589844 127.78955078125 359.3083801269531 411.3912353515625 359.44451904296875 C 403.0981750488281 359.6314392089844 444.29144287109375 359.00909423828125 525.7684936523438 359.6478271484375" stroke-width="0.0" fill="rgb(4, 52, 82)" opacity="0.6367325" stroke="rgb(182, 85, 205)" stroke-opacity="0.7828274" stroke-linecap="round" stroke-linejoin="round"/>
    <path d="M 100.97567749023438 175.1986083984375 C 98.31836700439453 188.01644897460938 109.27188873291016 179.0679473876953 73.66305541992188 216.96368408203125 C 59.45700454711914 201.5733184814453 48.29539489746094 194.91336059570312 40.16212463378906 192.25267028808594 C 97.94540405273438 131.6582794189453 123.69776916503906 155.5784912109375 -35.766048431396484 87.47930145263672 C 116.06392669677734 23.52676773071289 137.76699829101562 106.71125030517578 100.97567749023438 175.1986083984375" stroke-width="0.0" fill="rgb(108, 131, 144)" opacity="0.8089796" stroke="rgb(251, 156, 40)" stroke-opacity="0.07750438" stroke-linecap="round" stroke-linejoin="round"/>
    <path d="M 174.1637725830078 151.42494201660156 C 194.06776428222656 119.66450500488281 199.4477996826172 166.9938201904297 128.6251220703125 216.57855224609375 C 112.7818603515625 178.47402954101562 135.57810974121094 176.2101593017578 153.5546112060547 142.12269592285156 C 151.56629943847656 129.4561309814453 147.90110778808594 129.2745819091797 190.20204162597656 85.17772674560547 C 216.34494018554688 136.51332092285156 194.72703552246094 103.79580688476562 174.1637725830078 151.42494201660156" stroke-width="0.0" fill="rgb(10, 47, 79)" opacity="0.42749923" stroke="rgb(128, 186, 17)" stroke-opacity="0.6614984" stroke-linecap="round" stroke-linejoin="round"/>
    <path d="M 524.735107421875 285.6373596191406 C 526.5568237304688 368.826171875 528.5338134765625 351.96905517578125 469.05633544921875 354.3401794433594 C 404.0606384277344 352.62347412109375 391.32720947265625 361.4601135253906 399.1778869628906 328.9493408203125 C 478.165771484375 294.9046325683594 433.686767578125 333.063232421875 494.0140075683594 312.1938781738281 C 488.0599365234375 291.361328125 498.9477844238281 268.88665771484375 524.735107421875 285.6373596191406" stroke-width="0.0" fill="rgb(135, 91, 79)" opacity="0.93689704" stroke="rgb(187, 184, 113)" stroke-opacity="0.15223697" stroke-linecap="round" stroke-linejoin="round"/>
    <path d="M 504.94964599609375 202.18878173828125 C 488.3282775878906 238.08065795898438 487.13848876953125 240.21304321289062 475.2182922363281 253.30067443847656 C 382.68560791015625 274.359130859375 336.5311584472656 309.50018310546875 352.68328857421875 179.2340087890625 C 489.586669921875 218.17678833007812 408.7912902832031 186.29176330566406 467.4698791503906 183.22227478027344 C 478.8128662109375 161.3589324951172 479.9206848144531 183.27438354492188 504.94964599609375 202.18878173828125" stroke-width="0.0" fill="rgb(101, 118, 131)" opacity="0.9327995" stroke="rgb(39, 111, 86)" stroke-opacity="0.61462826" stroke-linecap="round" stroke-linejoin="round"/>
    <path d="M 313.8151550292969 113.22258758544922 C 378.8326721191406 222.94219970703125 322.5625305175781 207.84625244140625 246.87088012695312 247.76634216308594 C 229.66845703125 244.51515197753906 228.6984405517578 243.41297912597656 227.29580688476562 205.322021484375 C 251.49424743652344 164.0377655029297 246.646240234375 169.90731811523438 197.7320556640625 211.2309112548828 C 143.19903564453125 256.5326843261719 133.6373748779297 152.66571044921875 313.8151550292969 113.22258758544922" stroke-width="0.0" fill="rgb(91, 107, 120)" opacity="0.41733786" stroke="rgb(17, 140, 209)" stroke-opacity="0.12865883" stroke-linecap="round" stroke-linejoin="round"/>
    <path d="M 523.4835815429688 205.74961853027344 C 523.5899047851562 258.0621337890625 528.786865234375 265.42669677734375 510.8376159667969 291.4938049316406 C 445.7900695800781 282.0827941894531 454.9904479980469 269.2611389160156 460.0802001953125 259.11651611328125 C 466.2392578125 213.02906799316406 477.21923828125 221.04505920410156 509.56842041015625 189.5217742919922 C 527.4279174804688 188.96530151367188 524.8529052734375 190.63682556152344 523.4835815429688 205.74961853027344" stroke-width="0.0" fill="rgb(30, 41, 52)" opacity="1.0" stroke="rgb(146, 84, 10)" stroke-opacity="0.57415825" stroke-linecap="round" stroke-linejoin="round"/>
    <path d="M 304.9100036621094 222.00897216796875 C 256.070068359375 241.0586395263672 246.20558166503906 259.7862243652344 197.2427215576172 278.56890869140625 C 134.6129150390625 269.7377624511719 143.3293914794922 296.02490234375 177.97149658203125 260.9966735839844 C 202.0340576171875 251.54458618164062 203.4990234375 237.13583374023438 230.6025848388672 203.61663818359375 C 249.38711547851562 212.21189880371094 272.27099609375 180.8736114501953 304.9100036621094 222.00897216796875" stroke-width="0.0" fill="rgb(47, 75, 98)" opacity="0.5039813" stroke="rgb(62, 155, 181)" stroke-opacity="0.8101746" stroke-linecap="round" stroke-linejoin="round"/>
    <path d="M 507.25616455078125 281.4528503417969 C 518.428955078125 301.87841796875 514.0715942382812 309.8401184082031 500.1555480957031 312.55126953125 C 396.2148742675781 317.7005310058594 385.4337158203125 313.9703369140625 327.1365966796875 305.4795837402344 C 415.1776123046875 262.1590881347656 435.00164794921875 239.10382080078125 477.47650146484375 217.61328125 C 478.8454895019531 219.5990447998047 469.890869140625 228.55789184570312 507.25616455078125 281.4528503417969" stroke-width="0.0" fill="rgb(73, 87, 105)" opacity="0.8520392" stroke="rgb(118, 153, 169)" stroke-opacity="0.11564158" stroke-linecap="round" stroke-linejoin="round"/>
    <path d="M 523.033935546875 28.40094757080078 C 517.0913696289062 41.4697265625 516.192138671875 10.970190048217773 455.75177001953125 20.400054931640625 C 430.42742919921875 18.30950927734375 426.0749816894531 38.02593231201172 423.58489990234375 4.82268762588501 C 434.2174987792969 -17.224498748779297 450.9913024902344 -10.247055053710938 475.81414794921875 -9.720464706420898 C 498.483642578125 -11.907631874084473 517.3427124023438 -22.919279098510742 523.033935546875 28.40094757080078" stroke-width="0.0" fill="rgb(110, 134, 148)" opacity="0.9085128" stroke="rgb(178, 46, 107)" stroke-opacity="0.29312608" stroke-linecap="round" stroke-linejoin="round"/>
    <path d="M 523.4183959960938 344.8216857910156 C 469.8227233886719 324.32916259765625 510.38531494140625 343.9143371582031 463.6124572753906 340.8001708984375 C 389.9073791503906 365.2577819824219 551.1718139648438 299.4499206542969 389.717529296875 339.4590148925781 C 467.4751892089844 295.9480285644531 455.5168151855469 325.2694091796875 470.1333312988281 319.2197265625 C 521.6910400390625 308.7931823730469 525.6594848632812 291.2823181152344 523.4183959960938 344.8216857910156" stroke-width="0.0" fill="rgb(15, 29, 43)" opacity="0.88325316" stroke="rgb(83, 47, 65)" stroke-opacity="0.23530021" stroke-linecap="round" stroke-linejoin="round"/>
    <path d="M 505.1256103515625 302.22235107421875 C 407.8003234863281 290.4617919921875 414.0382995605469 310.9414978027344 420.5880432128906 291.38055419921875 C 409.097900390625 296.2449035644531 400.9244079589844 297.73272705078125 371.43853759765625 305.7557678222656 C 327.3332824707031 297.919677734375 396.7535400390625 272.49542236328125 469.6665344238281 220.41737365722656 C 506.54937744140625 196.7840118408203 507.42181396484375 202.75640869140625 505.1256103515625 302.22235107421875" stroke-width="0.0" fill="rgb(28, 31, 41)" opacity="0.5289586" stroke="rgb(15, 48, 220)" stroke-opacity="0.8126516" stroke-linecap="round" stroke-linejoin="round"/>
    <path d="M 338.6427307128906 335.1125793457031 C 297.0599670410156 354.9169006347656 312.9258728027344 342.1776123046875 273.8158264160156 342.7104187011719 C 247.17713928222656 342.89654541015625 246.14199829101562 328.0481262207031 218.55767822265625 318.2149353027344 C 257.4075927734375 315.1514892578125 249.6558380126953 325.1835632324219 280.8160705566406 327.5660095214844 C 319.3668518066406 339.2913818359375 309.6407165527344 339.0341796875 338.6427307128906 335.1125793457031" stroke-width="0.0" fill="rgb(25, 34, 45)" opacity="0.9763942" stroke="rgb(3, 195, 187)" stroke-opacity="0.8137034" stroke-linecap="round" stroke-linejoin="round"/>
    <path d="M 383.5522155761719 271.68896484375 C 377.45111083984375 297.51202392578125 328.3367004394531 258.45367431640625 346.1907958984375 278.7849426269531 C 314.26824951171875 266.7051086425781 343.2689514160156 304.1601867675781 263.2105712890625 265.5220031738281 C 286.5401916503906 239.2035675048828 311.3296813964844 211.650146484375 317.3561706542969 218.91049194335938 C 353.5519104003906 261.7806091308594 362.8932800292969 256.90234375 383.5522155761719 271.68896484375" stroke-width="0.0" fill="rgb(194, 190, 180)" opacity="1.0" stroke="rgb(19, 33, 107)" stroke-opacity="0.80903184" stroke-linecap="round" stroke-linejoin="round"/>
    <path d="M 291.8128662109375 277.2792663574219 C 259.436279296875 307.2323913574219 200.19686889648438 305.49822998046875 230.51698303222656 317.9311828613281 C 187.18942260742188 318.361572265625 190.49530029296875 321.20233154296875 142.98081970214844 282.5712585449219 C 198.4339141845703 263.844482421875 201.8880615234375 283.0017395019531 225.733642578125 279.40167236328125 C 241.2859344482422 275.14068603515625 243.7095947265625 256.68548583984375 291.8128662109375 277.2792663574219" stroke-width="0.0" fill="rgb(148, 162, 167)" opacity="0.668708" stroke="rgb(44, 155, 42)" stroke-opacity="0.8063995" stroke-linecap="round" stroke-linejoin="round"/>
    <path d="M 438.6101989746094 198.578369140625 C 433.926513671875 218.40492248535156 439.6541442871094 221.79298400878906 423.50982666015625 206.53211975097656 C 417.0437927246094 200.54196166992188 413.2506408691406 198.0531005859375 408.8663330078125 191.75845336914062 C 408.76654052734375 188.07568359375 408.2456359863281 170.688232421875 443.9209899902344 156.18775939941406 C 415.5872802734375 178.7343292236328 428.5959777832031 184.4573974609375 438.6101989746094 198.578369140625" stroke-width="0.0" fill="rgb(255, 241, 222)" opacity="0.6824394" stroke="rgb(102, 15, 135)" stroke-opacity="0.5985229" stroke-linecap="round" stroke-linejoin="round"/>
    <path d="M 521.4865112304688 300.96051025390625 C 512.9978637695312 309.9591369628906 509.197265625 311.51239013671875 488.47381591796875 315.0517272949219 C 468.8783264160156 315.1407165527344 445.7138671875 317.25225830078125 460.0535888671875 309.7221984863281 C 488.9983215332031 291.7381896972656 483.455078125 301.5444030761719 514.9920654296875 292.847412109375 C 520.37744140625 282.4731750488281 521.6610107421875 284.2646789550781 521.4865112304688 300.96051025390625" stroke-width="0.0" fill="rgb(102, 116, 130)" opacity="0.65582746" stroke="rgb(16, 134, 252)" stroke-opacity="0.27792066" stroke-linecap="round" stroke-linejoin="round"/>
    <path d="M 169.6669158935547 218.5408935546875 C 156.77459716796875 239.84832763671875 146.26953125 251.33555603027344 134.22372436523438 239.8524932861328 C 148.31451416015625 257.928466796875 101.9638900756836 274.09466552734375 116.29228973388672 242.9983367919922 C 133.06210327148438 226.00059509277344 142.18670654296875 208.88673400878906 170.85345458984375 185.23098754882812 C 227.6411895751953 144.2608184814453 203.23678588867188 181.9033966064453 169.6669158935547 218.5408935546875" stroke-width="0.0" fill="rgb(111, 130, 143)" opacity="0.7223579" stroke="rgb(82, 108, 226)" stroke-opacity="0.6696785" stroke-linecap="round" stroke-linejoin="round"/>
    <path d="M 278.3883056640625 343.6865234375 C 340.5787353515625 355.24658203125 342.6202697753906 355.1830139160156 42.85795974731445 352.591064453125 C 231.81155395507812 336.2741394042969 229.8562774658203 358.99560546875 149.2664337158203 322.3634948730469 C 224.6533660888672 330.7279968261719 141.11309814453125 326.688720703125 193.75181579589844 333.2012023925781 C 245.04714965820312 334.8856201171875 192.24168395996094 332.400390625 278.3883056640625 343.6865234375" stroke-width="0.0" fill="rgb(142, 99, 87)" opacity="1.0" stroke="rgb(58, 1, 187)" stroke-opacity="0.33661827" stroke-linecap="round" stroke-linejoin="round"/>
    <path d="M 519.1614990234375 239.55142211914062 C 511.67181396484375 240.58172607421875 508.83331298828125 241.89773559570312 486.8277282714844 256.58502197265625 C 427.0814208984375 292.4148864746094 453.2835388183594 270.9790344238281 493.1273498535156 247.62071228027344 C 503.5343017578125 240.04954528808594 504.23583984375 239.44435119628906 508.6387634277344 234.04620361328125 C 515.1292114257812 224.20718383789062 518.7880859375 219.38294982910156 519.1614990234375 239.55142211914062" stroke-width="0.0" fill="rgb(102, 118, 134)" opacity="0.94524163" stroke="rgb(192, 125, 242)" stroke-opacity="0.93974215" stroke-linecap="round" stroke-linejoin="round"/>
    <path d="M 22.427026748657227 161.18560791015625 C 22.162824630737305 165.70159912109375 17.882089614868164 169.2835235595703 14.172497749328613 173.60865783691406 C 1.7638202905654907 164.96148681640625 -10.212940216064453 156.60336303710938 1.2573257684707642 159.7788848876953 C -5.0181121826171875 157.98895263671875 4.597561836242676 155.82484436035156 12.031696319580078 147.46847534179688 C 21.83732032775879 155.44140625 16.483396530151367 152.1243438720703 22.427026748657227 161.18560791015625" stroke-width="0.0" fill="rgb(122, 136, 148)" opacity="0.9643626" stroke="rgb(247, 168, 35)" stroke-opacity="0.5930642" stroke-linecap="round" stroke-linejoin="round"/>
    <path d="M 141.57455444335938 124.27978515625 C 141.2762451171875 133.84010314941406 138.97105407714844 130.25413513183594 128.73683166503906 143.71730041503906 C 118.85542297363281 152.6346893310547 127.68159484863281 143.86624145507812 128.11634826660156 136.153076171875 C 130.16152954101562 128.0303192138672 131.28341674804688 125.34685516357422 143.13922119140625 116.248779296875 C 148.6173095703125 113.04627227783203 141.3323211669922 119.1363296508789 141.57455444335938 124.27978515625" stroke-width="0.0" fill="rgb(11, 58, 84)" opacity="0.521119" stroke="rgb(75, 4, 132)" stroke-opacity="0.86613876" stroke-linecap="round" stroke-linejoin="round"/>
    <path d="M 304.967529296875 183.07652282714844 C 303.8363342285156 190.89642333984375 304.3587646484375 202.28768920898438 305.2730407714844 202.57679748535156 C 296.9456481933594 188.1598358154297 292.5599060058594 188.67227172851562 290.970947265625 168.32931518554688 C 286.56689453125 153.32122802734375 250.0010223388672 127.17330169677734 271.9026794433594 140.4363555908203 C 300.16461181640625 174.83367919921875 306.08990478515625 173.81288146972656 304.967529296875 183.07652282714844" stroke-width="0.0" fill="rgb(218, 208, 191)" opacity="0.81175303" stroke="rgb(65, 171, 175)" stroke-opacity="0.3057919" stroke-linecap="round" stroke-linejoin="round"/>
    <path d="M 435.04058837890625 315.67169189453125 C 419.91229248046875 325.96710205078125 425.4104919433594 319.6287841796875 256.5955505371094 321.8690185546875 C 238.60235595703125 317.71392822265625 267.7470397949219 320.17791748046875 199.21893310546875 315.34332275390625 C 284.2801513671875 313.03521728515625 316.51959228515625 316.99896240234375 332.1742248535156 313.2114562988281 C 308.49749755859375 316.70416259765625 322.6871032714844 313.23089599609375 435.04058837890625 315.67169189453125" stroke-width="0.0" fill="rgb(196, 190, 182)" opacity="0.95556056" stroke="rgb(235, 221, 103)" stroke-opacity="0.9236859" stroke-linecap="round" stroke-linejoin="round"/>
    <path d="M 421.59320068359375 167.92474365234375 C 415.6232604980469 181.76449584960938 409.0058288574219 188.15077209472656 411.2652282714844 194.73187255859375 C 402.6948547363281 186.29200744628906 402.5185241699219 188.74362182617188 405.5867614746094 184.75555419921875 C 407.0831298828125 181.28118896484375 411.7204895019531 175.1060333251953 414.71063232421875 166.77288818359375 C 424.9687194824219 170.01161193847656 421.5752868652344 174.05662536621094 421.59320068359375 167.92474365234375" stroke-width="0.0" fill="rgb(254, 249, 237)" opacity="0.95420414" stroke="rgb(128, 235, 206)" stroke-opacity="0.13874698" stroke-linecap="round" stroke-linejoin="round"/>
    <path d="M 310.0 250.0 C 309.33013916015625 252.5 307.5 254.3301239013672 305.0 255.0 C 302.5 254.3301239013672 300.66986083984375 252.5 300.0 250.0 C 300.66986083984375 247.5 302.5 245.6698760986328 305.0 245.0 C 307.5 245.6698760986328 309.33013916015625 247.5 310.0 250.0" stroke-width="0.0" fill="rgb(130, 142, 151)" opacity="1.0" stroke="rgb(222, 202, 214)" stroke-opacity="0.7986057" stroke-linecap="round" stroke-linejoin="round"/>
    <path d="M 357.0 339.0 C 356.33013916015625 341.5 354.5 343.33013916015625 352.0 344.0 C 349.5 343.33013916015625 347.66986083984375 341.5 347.0 339.0 C 347.66986083984375 336.5 349.5 334.66986083984375 352.0 334.0 C 354.5 334.66986083984375 356.33013916015625 336.5 357.0 339.0" stroke-width="0.0" fill="rgb(27, 36, 47)" opacity="1.0" stroke="rgb(4, 131, 41)" stroke-opacity="0.51463014" stroke-linecap="round" stroke-linejoin="round"/>
    <path d="M 138.0 160.0 C 137.3301239013672 162.5 135.5 164.3301239013672 133.0 165.0 C 130.5 164.3301239013672 128.6698760986328 162.5 128.0 160.0 C 128.6698760986328 157.5 130.5 155.6698760986328 133.0 155.0 C 135.5 155.6698760986328 137.3301239013672 157.5 138.0 160.0" stroke-width="0.0" fill="rgb(124, 138, 149)" opacity="1.0" stroke="rgb(224, 247, 44)" stroke-opacity="0.99270093" stroke-linecap="round" stroke-linejoin="round"/>
    <path d="M 344.0 135.0 C 343.33013916015625 137.5 341.5 139.3301239013672 339.0 140.0 C 336.5 139.3301239013672 334.66986083984375 137.5 334.0 135.0 C 334.66986083984375 132.5 336.5 130.6698760986328 339.0 130.0 C 341.5 130.6698760986328 343.33013916015625 132.5 344.0 135.0" stroke-width="0.0" fill="rgb(197, 192, 181)" opacity="1.0" stroke="rgb(68, 19, 86)" stroke-opacity="0.7870176" stroke-linecap="round" stroke-linejoin="round"/>
    <path d="M 141.0 265.0 C 140.3301239013672 267.5 138.5 269.33013916015625 136.0 270.0 C 133.5 269.33013916015625 131.6698760986328 267.5 131.0 265.0 C 131.6698760986328 262.5 133.5 260.66986083984375 136.0 260.0 C 138.5 260.66986083984375 140.3301239013672 262.5 141.0 265.0" stroke-width="0.0" fill="rgb(115, 134, 147)" opacity="1.0" stroke="rgb(9, 84, 65)" stroke-opacity="0.30413443" stroke-linecap="round" stroke-linejoin="round"/>
    <path d="M 268.0 181.0 C 267.33013916015625 183.5 265.5 185.3301239013672 263.0 186.0 C 260.5 185.3301239013672 258.66986083984375 183.5 258.0 181.0 C 258.66986083984375 178.5 260.5 176.6698760986328 263.0 176.0 C 265.5 176.6698760986328 267.33013916015625 178.5 268.0 181.0" stroke-width="0.0" fill="rgb(102, 120, 134)" opacity="1.0" stroke="rgb(161, 47, 38)" stroke-opacity="0.5102457" stroke-linecap="round" stroke-linejoin="round"/>
    <path d="M 51.0 131.0 C 50.33012771606445 133.5 48.5 135.3301239013672 46.0 136.0 C 43.5 135.3301239013672 41.66987228393555 133.5 41.0 131.0 C 41.66987228393555 128.5 43.5 126.66987609863281 46.0 126.0 C 48.5 126.66987609863281 50.33012771606445 128.5 51.0 131.0" stroke-width="0.0" fill="rgb(250, 245, 234)" opacity="1.0" stroke="rgb(21, 112, 239)" stroke-opacity="0.7660894" stroke-linecap="round" stroke-linejoin="round"/>
    <path d="M 275.0 163.0 C 274.33013916015625 165.5 272.5 167.3301239013672 270.0 168.0 C 267.5 167.3301239013672 265.66986083984375 165.5 265.0 163.0 C 265.66986083984375 160.5 267.5 158.6698760986328 270.0 158.0 C 272.5 158.6698760986328 274.33013916015625 160.5 275.0 163.0" stroke-width="0.0" fill="rgb(101, 119, 132)" opacity="1.0" stroke="rgb(17, 192, 50)" stroke-opacity="0.07959237" stroke-linecap="round" stroke-linejoin="round"/>
    <path d="M 73.0 336.0 C 72.33012390136719 338.5 70.5 340.33013916015625 68.0 341.0 C 65.5 340.33013916015625 63.66987228393555 338.5 63.0 336.0 C 63.66987228393555 333.5 65.5 331.66986083984375 68.0 331.0 C 70.5 331.66986083984375 72.33012390136719 333.5 73.0 336.0" stroke-width="0.0" fill="rgb(147, 102, 89)" opacity="1.0" stroke="rgb(32, 3, 154)" stroke-opacity="0.736153" stroke-linecap="round" stroke-linejoin="round"/>
    <path d="M 325.0 162.0 C 324.33013916015625 164.5 322.5 166.3301239013672 320.0 167.0 C 317.5 166.3301239013672 315.66986083984375 164.5 315.0 162.0 C 315.66986083984375 159.5 317.5 157.6698760986328 320.0 157.0 C 322.5 157.6698760986328 324.33013916015625 159.5 325.0 162.0" stroke-width="0.0" fill="rgb(202, 197, 186)" opacity="1.0" stroke="rgb(114, 78, 231)" stroke-opacity="0.9978283" stroke-linecap="round" stroke-linejoin="round"/>
    <path d="M 309.0 211.0 C 308.33013916015625 213.5 306.5 215.3301239013672 304.0 216.0 C 301.5 215.3301239013672 299.66986083984375 213.5 299.0 211.0 C 299.66986083984375 208.5 301.5 206.6698760986328 304.0 206.0 C 306.5 206.6698760986328 308.33013916015625 208.5 309.0 211.0" stroke-width="0.0" fill="rgb(196, 191, 181)" opacity="1.0" stroke="rgb(135, 242, 247)" stroke-opacity="0.46074417" stroke-linecap="round" stroke-linejoin="round"/>
    <path d="M 56.0 329.0 C 55.33012771606445 331.5 53.5 333.33013916015625 51.0 334.0 C 48.5 333.33013916015625 46.66987228393555 331.5 46.0 329.0 C 46.66987228393555 326.5 48.5 324.66986083984375 51.0 324.0 C 53.5 324.66986083984375 55.33012771606445 326.5 56.0 329.0" stroke-width="0.0" fill="rgb(147, 102, 89)" opacity="1.0" stroke="rgb(147, 3, 26)" stroke-opacity="0.24516977" stroke-linecap="round" stroke-linejoin="round"/>
    <path d="M 71.0 347.0 C 70.33012390136719 349.5 68.5 351.33013916015625 66.0 352.0 C 63.5 351.33013916015625 61.66987228393555 349.5 61.0 347.0 C 61.66987228393555 344.5 63.5 342.66986083984375 66.0 342.0 C 68.5 342.66986083984375 70.33012390136719 344.5 71.0 347.0" stroke-width="0.0" fill="rgb(27, 36, 47)" opacity="1.0" stroke="rgb(26, 162, 91)" stroke-opacity="0.34126633" stroke-linecap="round" stroke-linejoin="round"/>
    <path d="M 117.0 61.0 C 116.33012390136719 63.5 114.5 65.33012390136719 112.0 66.0 C 109.5 65.33012390136719 107.66987609863281 63.5 107.0 61.0 C 107.66987609863281 58.5 109.5 56.66987228393555 112.0 56.0 C 114.5 56.66987228393555 116.33012390136719 58.5 117.0 61.0" stroke-width="0.0" fill="rgb(202, 197, 186)" opacity="1.0" stroke="rgb(113, 139, 28)" stroke-opacity="0.80270004" stroke-linecap="round" stroke-linejoin="round"/>
    <path d="M 353.0 21.0 C 352.33013916015625 23.5 350.5 25.330127716064453 348.0 26.0 C 345.5 25.330127716064453 343.66986083984375 23.5 343.0 21.0 C 343.66986083984375 18.5 345.5 16.669872283935547 348.0 16.0 C 350.5 16.669872283935547 352.33013916015625 18.5 353.0 21.0" stroke-width="0.0" fill="rgb(204, 200, 187)" opacity="1.0" stroke="rgb(245, 213, 253)" stroke-opacity="0.7530596" stroke-linecap="round" stroke-linejoin="round"/>
    <path d="M 11.0 296.0 C 10.330126762390137 298.5 8.5 300.33013916015625 6.0 301.0 C 3.5 300.33013916015625 1.6698729991912842 298.5 1.0 296.0 C 1.6698729991912842 293.5 3.5 291.66986083984375 6.0 291.0 C 8.5 291.66986083984375 10.330126762390137 293.5 11.0 296.0" stroke-width="0.0" fill="rgb(147, 102, 89)" opacity="1.0" stroke="rgb(167, 56, 178)" stroke-opacity="0.9493854" stroke-linecap="round" stroke-linejoin="round"/>
    <path d="M 321.0 204.0 C 320.33013916015625 206.5 318.5 208.3301239013672 316.0 209.0 C 313.5 208.3301239013672 311.66986083984375 206.5 311.0 204.0 C 311.66986083984375 201.5 313.5 199.6698760986328 316.0 199.0 C 318.5 199.6698760986328 320.33013916015625 201.5 321.0 204.0" stroke-width="0.0" fill="rgb(196, 192, 184)" opacity="1.0" stroke="rgb(117, 61, 20)" stroke-opacity="0.3551327" stroke-linecap="round" stroke-linejoin="round"/>
    <path d="M 388.0 334.0 C 387.33013916015625 336.5 385.5 338.33013916015625 383.0 339.0 C 380.5 338.33013916015625 378.66986083984375 336.5 378.0 334.0 C 378.66986083984375 331.5 380.5 329.66986083984375 383.0 329.0 C 385.5 329.66986083984375 387.33013916015625 331.5 388.0 334.0" stroke-width="0.0" fill="rgb(39, 46, 56)" opacity="1.0" stroke="rgb(56, 40, 83)" stroke-opacity="0.60219085" stroke-linecap="round" stroke-linejoin="round"/>
    <path d="M 216.0 209.0 C 215.3301239013672 211.5 213.5 213.3301239013672 211.0 214.0 C 208.5 213.3301239013672 206.6698760986328 211.5 206.0 209.0 C 206.6698760986328 206.5 208.5 204.6698760986328 211.0 204.0 C 213.5 204.6698760986328 215.3301239013672 206.5 216.0 209.0" stroke-width="0.0" fill="rgb(108, 132, 149)" opacity="1.0" stroke="rgb(24, 208, 180)" stroke-opacity="0.9687208" stroke-linecap="round" stroke-linejoin="round"/>
    <path d="M 340.0 144.0 C 339.33013916015625 146.5 337.5 148.3301239013672 335.0 149.0 C 332.5 148.3301239013672 330.66986083984375 146.5 330.0 144.0 C 330.66986083984375 141.5 332.5 139.6698760986328 335.0 139.0 C 337.5 139.6698760986328 339.33013916015625 141.5 340.0 144.0" stroke-width="0.0" fill="rgb(206, 199, 185)" opacity="1.0" stroke="rgb(76, 209, 129)" stroke-opacity="0.20415296" stroke-linecap="round" stroke-linejoin="round"/>
    <path d="M 406.0 173.0 C 405.33013916015625 175.5 403.5 177.3301239013672 401.0 178.0 C 398.5 177.3301239013672 396.66986083984375 175.5 396.0 173.0 C 396.66986083984375 170.5 398.5 168.6698760986328 401.0 168.0 C 403.5 168.6698760986328 405.33013916015625 170.5 406.0 173.0" stroke-width="0.0" fill="rgb(250, 245, 234)" opacity="1.0" stroke="rgb(104, 178, 220)" stroke-opacity="0.77625114" stroke-linecap="round" stroke-linejoin="round"/>
    <path d="M 127.0 216.0 C 126.33012390136719 218.5 124.5 220.3301239013672 122.0 221.0 C 119.5 220.3301239013672 117.66987609863281 218.5 117.0 216.0 C 117.66987609863281 213.5 119.5 211.6698760986328 122.0 211.0 C 124.5 211.6698760986328 126.33012390136719 213.5 127.0 216.0" stroke-width="0.0" fill="rgb(129, 143, 153)" opacity="1.0" stroke="rgb(177, 250, 223)" stroke-opacity="0.9199425" stroke-linecap="round" stroke-linejoin="round"/>
    <path d="M 249.0 160.0 C 248.3301239013672 162.5 246.5 164.3301239013672 244.0 165.0 C 241.5 164.3301239013672 239.6698760986328 162.5 239.0 160.0 C 239.6698760986328 157.5 241.5 155.6698760986328 244.0 155.0 C 246.5 155.6698760986328 248.3301239013672 157.5 249.0 160.0" stroke-width="0.0" fill="rgb(247, 241, 233)" opacity="1.0" stroke="rgb(26, 40, 181)" stroke-opacity="0.54346687" stroke-linecap="round" stroke-linejoin="round"/>
    <path d="M 186.0 210.0 C 185.3301239013672 212.5 183.5 214.3301239013672 181.0 215.0 C 178.5 214.3301239013672 176.6698760986328 212.5 176.0 210.0 C 176.6698760986328 207.5 178.5 205.6698760986328 181.0 205.0 C 183.5 205.6698760986328 185.3301239013672 207.5 186.0 210.0" stroke-width="0.0" fill="rgb(249, 243, 234)" opacity="1.0" stroke="rgb(189, 41, 247)" stroke-opacity="0.8271845" stroke-linecap="round" stroke-linejoin="round"/>
    <path d="M 369.0 170.0 C 368.33013916015625 172.5 366.5 174.3301239013672 364.0 175.0 C 361.5 174.3301239013672 359.66986083984375 172.5 359.0 170.0 C 359.66986083984375 167.5 361.5 165.6698760986328 364.0 165.0 C 366.5 165.6698760986328 368.33013916015625 167.5 369.0 170.0" stroke-width="0.0" fill="rgb(211, 203, 188)" opacity="1.0" stroke="rgb(88, 164, 92)" stroke-opacity="0.46626166" stroke-linecap="round" stroke-linejoin="round"/>
    <path d="M 213.0 149.0 C 212.3301239013672 151.5 210.5 153.3301239013672 208.0 154.0 C 205.5 153.3301239013672 203.6698760986328 151.5 203.0 149.0 C 203.6698760986328 146.5 205.5 144.6698760986328 208.0 144.0 C 210.5 144.6698760986328 212.3301239013672 146.5 213.0 149.0" stroke-width="0.0" fill="rgb(124, 138, 149)" opacity="1.0" stroke="rgb(14, 218, 151)" stroke-opacity="0.62093" stroke-linecap="round" stroke-linejoin="round"/>
    <path d="M 463.0 185.0 C 462.33013916015625 187.5 460.5 189.3301239013672 458.0 190.0 C 455.5 189.3301239013672 453.66986083984375 187.5 453.0 185.0 C 453.66986083984375 182.5 455.5 180.6698760986328 458.0 180.0 C 460.5 180.6698760986328 462.33013916015625 182.5 463.0 185.0" stroke-width="0.0" fill="rgb(198, 193, 181)" opacity="1.0" stroke="rgb(185, 227, 91)" stroke-opacity="0.86295754" stroke-linecap="round" stroke-linejoin="round"/>
    <path d="M 261.0 19.0 C 260.33013916015625 21.5 258.5 23.330127716064453 256.0 24.0 C 253.5 23.330127716064453 251.6698760986328 21.5 251.0 19.0 C 251.6698760986328 16.5 253.5 14.669873237609863 256.0 14.0 C 258.5 14.669873237609863 260.33013916015625 16.5 261.0 19.0" stroke-width="0.0" fill="rgb(205, 201, 188)" opacity="1.0" stroke="rgb(122, 148, 195)" stroke-opacity="0.8110844" stroke-linecap="round" stroke-linejoin="round"/>
    <path d="M 247.0 137.0 C 246.3301239013672 139.5 244.5 141.3301239013672 242.0 142.0 C 239.5 141.3301239013672 237.6698760986328 139.5 237.0 137.0 C 237.6698760986328 134.5 239.5 132.6698760986328 242.0 132.0 C 244.5 132.6698760986328 246.3301239013672 134.5 247.0 137.0" stroke-width="0.0" fill="rgb(247, 242, 233)" opacity="1.0" stroke="rgb(67, 185, 3)" stroke-opacity="0.52102786" stroke-linecap="round" stroke-linejoin="round"/>
    <path d="M 350.0 197.0 C 349.33013916015625 199.5 347.5 201.3301239013672 345.0 202.0 C 342.5 201.3301239013672 340.66986083984375 199.5 340.0 197.0 C 340.66986083984375 194.5 342.5 192.6698760986328 345.0 192.0 C 347.5 192.6698760986328 349.33013916015625 194.5 350.0 197.0" stroke-width="0.0" fill="rgb(202, 197, 186)" opacity="1.0" stroke="rgb(219, 36, 159)" stroke-opacity="0.43881333" stroke-linecap="round" stroke-linejoin="round"/>
    <path d="M 190.0 173.0 C 189.3301239013672 175.5 187.5 177.3301239013672 185.0 178.0 C 182.5 177.3301239013672 180.6698760986328 175.5 180.0 173.0 C 180.6698760986328 170.5 182.5 168.6698760986328 185.0 168.0 C 187.5 168.6698760986328 189.3301239013672 170.5 190.0 173.0" stroke-width="0.0" fill="rgb(248, 242, 233)" opacity="1.0" stroke="rgb(250, 228, 72)" stroke-opacity="0.42558092" stroke-linecap="round" stroke-linejoin="round"/>
    <path d="M 432.0 332.0 C 431.33013916015625 334.5 429.5 336.33013916015625 427.0 337.0 C 424.5 336.33013916015625 422.66986083984375 334.5 422.0 332.0 C 422.66986083984375 329.5 424.5 327.66986083984375 427.0 327.0 C 429.5 327.66986083984375 431.33013916015625 329.5 432.0 332.0" stroke-width="0.0" fill="rgb(27, 36, 47)" opacity="1.0" stroke="rgb(251, 8, 80)" stroke-opacity="0.9116875" stroke-linecap="round" stroke-linejoin="round"/>
  </g>
</svg>
