<svg xmlns="http://www.w3.org/2000/svg" xmlns:xlink="http://www.w3.org/1999/xlink" width="160" height="80" viewBox="0 0 160 80" fill="none">
<rect x="0" y="0" width="0" height="0" fill="rgba(249, 249, 249, 1)" />
<path     fill="#8F8F8F" fill-opacity="0" d="M0 67L0 13C0 5.8203 5.8203 0 13 0L147 0C154.18 0 160 5.8203 160 13L160 67C160 74.1797 154.18 80 147 80L13 80C5.8203 80 0 74.1797 0 67Z">
</path>
<rect  x="33" y="24" width="20" height="20" rx="6"    fill="#C8E7ED" >
</rect>
<rect  x="33" y="47" width="20" height="20" rx="6"    fill="#C8E7ED" >
</rect>
<rect  x="10" y="47" width="20" height="20" rx="6"    fill="#C8E7ED" >
</rect>
<rect  x="6" y="27.17638397216797" width="20" height="20" transform="rotate(-14.999998880907768 6 27.17638397216797)" rx="6"    fill="#C8E7ED" >
</rect>
<path d="M43 5L51.6603 20L34.3397 20L43 5Z"   fill="#FFA5A5" >
</path>
<g >
<path     fill="#000000"  d="M71.57 39.36Q72.13 39.36 72.7 39.77Q73.27 40.18 73.27 40.56Q73.27 40.94 73.12 41.4Q72.97 41.86 72.64 42.55Q72.31 43.24 71.98 43.89Q71.65 44.54 71.11 45.59Q70.57 46.64 70.17 47.46Q69.77 48.28 69.28 49.4Q68.79 50.52 68.47 51.23Q68.15 51.94 67.79 52.62Q67.09 53.98 66.43 53.98Q66.13 53.98 65.6 53.54Q65.07 53.1 64.89 52.66Q64.31 51.12 63.35 46.24Q62.39 41.36 62.39 40.36Q62.39 39.36 62.93 39.36Q63.61 39.36 64.33 39.94Q65.05 40.52 65.45 41.48Q65.61 41.88 65.76 43.17Q65.91 44.46 66.12 46.37Q66.33 48.28 66.57 49.64Q68.59 44.16 69.76 41.76Q70.93 39.36 71.57 39.36ZM84.73 54Q84.33 54 83.65 53.17Q82.97 52.34 82.97 51.96Q82.97 51.58 83.96 46.39Q84.95 41.2 84.99 40.02Q85.03 39.36 85.61 39.36Q86.09 39.36 86.89 40.32Q87.69 41.28 87.69 42.12Q87.69 42.48 87.14 44.83Q86.59 47.18 86.4 48.11Q86.21 49.04 86.07 49.77Q85.93 50.5 85.85 50.92Q85.29 53.48 84.97 53.86Q84.85 54 84.73 54ZM108.13 49.86Q108.13 51.56 106.51 52.78Q104.89 54 102.81 54Q100.73 54 99.46 52.97Q98.19 51.94 98.19 50.84Q98.19 49.74 98.81 49.74Q99.29 49.74 99.81 50.22Q100.33 50.7 100.98 51.18Q101.63 51.66 102.45 51.66Q103.27 51.66 104.31 50.98Q105.35 50.3 105.35 49.84Q105.35 49.38 104.22 48.3Q103.09 47.22 101.96 46.07Q100.83 44.92 100.83 44.29Q100.83 43.66 101.06 42.92Q101.29 42.18 101.63 41.9Q102.71 40.84 104.42 40.07Q106.13 39.3 107.43 39.3Q108.19 39.3 108.69 39.95Q109.19 40.6 109.19 41.3Q109.19 41.58 108.74 41.75Q108.29 41.92 107.44 42.1Q106.59 42.28 105.71 42.62Q103.67 43.38 103.67 43.9Q103.67 44.14 104.37 44.77Q105.07 45.4 105.9 46.09Q106.73 46.78 107.43 47.83Q108.13 48.88 108.13 49.86ZM124.09 42.2Q121.93 42.32 121.73 42.32Q121.25 42.32 120.77 41.73Q120.29 41.14 120.29 40.5Q120.29 39.52 125.99 39.52Q128.91 39.52 130.29 40.12Q131.67 40.72 131.67 41.58Q131.67 41.84 131.37 42.07Q131.07 42.3 130.61 42.3Q130.15 42.3 128.93 42.24Q127.71 42.18 126.71 42.16Q126.79 42.4 126.79 42.72Q126.79 43.04 126.56 43.98Q126.33 44.92 125.91 46.59Q125.49 48.26 124.99 50.63Q124.49 53 124.3 53.45Q124.11 53.9 123.93 53.9Q123.51 53.9 122.88 53.13Q122.25 52.36 122.25 51.88Q122.25 51.4 123.07 47.91Q123.89 44.42 124.09 42.2ZM150.25 46.5Q151.05 46.5 151.4 46.65Q151.75 46.8 151.75 47.2Q151.75 47.74 150.01 48.3Q150.05 49.82 150.05 51.21Q150.05 52.6 149.83 53.29Q149.61 53.98 149.13 53.98Q148.65 53.98 148.38 53.49Q148.11 53 147.94 51.88Q147.77 50.76 147.59 48.92Q145.55 49.38 144.65 49.66Q143.09 53.98 142.57 53.98Q142.15 53.98 141.46 53.42Q140.77 52.86 140.77 52.26Q140.77 51.92 141.55 50.14Q141.21 49.92 140.96 49.51Q140.71 49.1 140.71 48.72Q140.71 48.06 142.69 47.46Q142.85 47.06 143.02 46.55Q143.19 46.04 143.88 44.16Q144.57 42.28 144.97 41.02Q145.15 40.42 146.22 39.9Q147.29 39.38 147.89 39.38Q148.59 39.38 149.14 41.32Q149.69 43.26 149.91 46.5L150.25 46.5ZM145.63 46.84Q146.23 46.76 147.37 46.64Q147.31 46.06 147.18 44.66Q147.05 43.26 146.99 42.64Q146.65 43.76 145.63 46.84Z">
</path>
</g>
</svg>
