<?xml version="1.0" ?>
<svg xmlns="http://www.w3.org/2000/svg" version="1.1" width="512" height="485">
  <defs/>
  <g>
    <path d="M 370.4994201660156 303.0226135253906 C 331.9537048339844 380.6515197753906 328.4166259765625 392.4287109375 175.3924560546875 373.17218017578125 C 187.76869201660156 313.6889953613281 197.41812133789062 309.64410400390625 214.22894287109375 158.2694091796875 C 251.32852172851562 178.8021240234375 256.6568603515625 173.683837890625 378.5895080566406 191.53611755371094 C 383.33941650390625 225.85728454589844 387.878173828125 238.6778564453125 370.4994201660156 303.0226135253906" stroke-width="0.0" fill="rgb(216, 2, 4)" opacity="0.7176883" stroke="rgb(34, 229, 218)" stroke-opacity="0.2306138" stroke-linecap="round" stroke-linejoin="round"/>
    <path d="M 241.06048583984375 153.3169708251953 C 221.81019592285156 146.91305541992188 233.04684448242188 159.017822265625 250.7802734375 156.2877655029297 C 179.62860107421875 156.21942138671875 239.60037231445312 130.05857849121094 84.36392974853516 134.3355712890625 C 64.26016998291016 -0.7775239944458008 54.98936080932617 -1.9976167678833008 253.85610961914062 4.081884384155273 C 214.25360107421875 159.35772705078125 230.0115203857422 154.50828552246094 241.06048583984375 153.3169708251953" stroke-width="0.0" fill="rgb(248, 244, 218)" opacity="0.59085274" stroke="rgb(253, 138, 129)" stroke-opacity="0.27324507" stroke-linecap="round" stroke-linejoin="round"/>
    <path d="M 385.22894287109375 392.9472961425781 C 391.6394348144531 481.75836181640625 387.23211669921875 489.7525634765625 365.14544677734375 493.6580505371094 C 111.7659912109375 509.015380859375 68.05339050292969 532.36376953125 62.40713882446289 372.3141174316406 C 133.44300842285156 376.7569580078125 184.41131591796875 442.98046875 233.1803741455078 389.4066467285156 C 254.74867248535156 395.11572265625 244.2152099609375 393.76580810546875 385.22894287109375 392.9472961425781" stroke-width="0.0" fill="rgb(234, 234, 215)" opacity="0.3981166" stroke="rgb(229, 55, 115)" stroke-opacity="0.19410668" stroke-linecap="round" stroke-linejoin="round"/>
    <path d="M 232.6602325439453 284.499755859375 C 228.60667419433594 302.6851806640625 222.92352294921875 303.98992919921875 186.87594604492188 305.3894958496094 C 116.7315902709961 333.8617858886719 131.13021850585938 351.2981262207031 108.65603637695312 301.9630432128906 C 110.84432983398438 213.3338165283203 136.77835083007812 205.570556640625 213.3170166015625 176.72097778320312 C 235.5847930908203 194.47935485839844 235.20333862304688 201.0911102294922 232.6602325439453 284.499755859375" stroke-width="0.0" fill="rgb(231, 69, 56)" opacity="1.0" stroke="rgb(21, 151, 108)" stroke-opacity="0.6664307" stroke-linecap="round" stroke-linejoin="round"/>
    <path d="M 176.0258026123047 367.4781494140625 C 252.72470092773438 401.8258056640625 389.0502014160156 339.3189392089844 291.45416259765625 392.955078125 C 182.72769165039062 389.9111328125 169.5447235107422 404.3506164550781 122.06127166748047 331.3380432128906 C 117.76519012451172 261.74615478515625 140.17665100097656 267.2509460449219 150.8606414794922 266.2956237792969 C 205.99598693847656 265.76458740234375 201.6870880126953 269.98193359375 176.0258026123047 367.4781494140625" stroke-width="0.0" fill="rgb(166, 54, 58)" opacity="0.95664525" stroke="rgb(149, 163, 152)" stroke-opacity="0.074760586" stroke-linecap="round" stroke-linejoin="round"/>
    <path d="M 377.6654968261719 191.49559020996094 C 320.6748046875 182.8645782470703 317.3957214355469 183.5861358642578 261.844970703125 175.6122283935547 C 247.4873504638672 171.33694458007812 227.97119140625 174.3082275390625 208.09390258789062 147.98562622070312 C 240.194091796875 166.32522583007812 268.3963928222656 143.78012084960938 312.7778015136719 146.9319610595703 C 342.8979187011719 150.80699157714844 369.5248718261719 166.27459716796875 377.6654968261719 191.49559020996094" stroke-width="0.0" fill="rgb(188, 25, 33)" opacity="0.83681047" stroke="rgb(128, 19, 30)" stroke-opacity="0.14890455" stroke-linecap="round" stroke-linejoin="round"/>
    <path d="M 223.1581573486328 160.84422302246094 C 165.77572631835938 239.42723083496094 177.85113525390625 255.01763916015625 112.12094116210938 309.45452880859375 C 104.7331314086914 292.8868713378906 87.25299072265625 249.53038024902344 96.79375457763672 206.31752014160156 C 101.21902465820312 183.4141387939453 119.52146911621094 144.62588500976562 159.76783752441406 137.8772430419922 C 196.46759033203125 132.91783142089844 223.45361328125 159.5412139892578 223.1581573486328 160.84422302246094" stroke-width="0.0" fill="rgb(207, 54, 55)" opacity="0.97582245" stroke="rgb(55, 178, 242)" stroke-opacity="0.28628093" stroke-linecap="round" stroke-linejoin="round"/>
    <path d="M 384.0886535644531 106.59449005126953 C 372.4355163574219 130.24691772460938 370.0869140625 146.69529724121094 326.49981689453125 143.80142211914062 C 309.3597717285156 138.2639617919922 304.94085693359375 141.64173889160156 306.4674072265625 127.85382843017578 C 336.18328857421875 85.12008666992188 336.38714599609375 54.4226188659668 408.435302734375 65.35852813720703 C 408.9468688964844 67.7968978881836 395.8150939941406 79.80762481689453 384.0886535644531 106.59449005126953" stroke-width="0.0" fill="rgb(154, 173, 11)" opacity="0.640819" stroke="rgb(137, 22, 75)" stroke-opacity="0.30760986" stroke-linecap="round" stroke-linejoin="round"/>
    <path d="M 389.9465026855469 64.25177764892578 C 340.31878662109375 87.59126281738281 326.4869689941406 61.032196044921875 321.6183776855469 84.75607299804688 C 299.7184753417969 92.5948257446289 297.8414611816406 93.41132354736328 306.2906188964844 91.41448974609375 C 313.38330078125 65.98003387451172 307.4252014160156 58.1805534362793 349.7801818847656 55.070804595947266 C 372.076904296875 57.07123565673828 407.7957763671875 67.0146255493164 389.9465026855469 64.25177764892578" stroke-width="0.0" fill="rgb(190, 199, 39)" opacity="0.7489512" stroke="rgb(229, 28, 17)" stroke-opacity="0.08237533" stroke-linecap="round" stroke-linejoin="round"/>
    <path d="M 396.98291015625 103.4400405883789 C 389.54913330078125 123.63146209716797 379.9057312011719 131.72344970703125 362.6695861816406 139.11264038085938 C 339.1535339355469 145.49122619628906 338.87982177734375 145.14724731445312 351.05877685546875 121.15642547607422 C 357.6533203125 100.88753509521484 351.7769775390625 88.53062438964844 409.9649658203125 64.72745513916016 C 404.558349609375 70.77701568603516 403.0425109863281 82.36839294433594 396.98291015625 103.4400405883789" stroke-width="0.0" fill="rgb(169, 180, 60)" opacity="0.8989973" stroke="rgb(177, 17, 137)" stroke-opacity="0.6608232" stroke-linecap="round" stroke-linejoin="round"/>
    <path d="M 302.959228515625 123.33161163330078 C 314.7146301269531 149.70587158203125 289.1161193847656 92.06437683105469 221.80233764648438 151.38246154785156 C 253.7797393798828 100.36076354980469 296.987548828125 137.40432739257812 286.2007141113281 97.928955078125 C 289.2027587890625 90.63679504394531 293.69757080078125 79.50013732910156 308.9455871582031 67.22787475585938 C 328.9289855957031 55.95084762573242 303.43914794921875 60.44630432128906 302.959228515625 123.33161163330078" stroke-width="0.0" fill="rgb(138, 151, 0)" opacity="0.6023985" stroke="rgb(85, 146, 37)" stroke-opacity="0.74342525" stroke-linecap="round" stroke-linejoin="round"/>
    <path d="M 355.17742919921875 87.75704193115234 C 345.7112731933594 131.43099975585938 350.9198913574219 146.8052978515625 318.73944091796875 142.08343505859375 C 287.7766418457031 131.95008850097656 279.95733642578125 116.81904602050781 285.2397155761719 101.18256378173828 C 298.2279052734375 71.98241424560547 308.15484619140625 62.0327033996582 314.8753967285156 87.0525131225586 C 356.1957092285156 72.74333953857422 359.4478759765625 54.49367141723633 355.17742919921875 87.75704193115234" stroke-width="0.0" fill="rgb(185, 193, 63)" opacity="0.83186954" stroke="rgb(88, 27, 49)" stroke-opacity="0.5190465" stroke-linecap="round" stroke-linejoin="round"/>
  </g>
</svg>
