<?xml version="1.0" ?>
<svg xmlns="http://www.w3.org/2000/svg" version="1.1" width="512" height="512">
  <defs/>
  <g>
    <path d="M 453.17999267578125 326.180908203125 C 511.1942443847656 518.6846313476562 446.8296813964844 495.96087646484375 289.9893493652344 467.4239501953125 C 232.20059204101562 443.5201416015625 256.55926513671875 464.9483337402344 319.6961669921875 362.212158203125 C 340.45428466796875 440.3147277832031 361.1370849609375 394.21856689453125 419.1522521972656 360.1274719238281 C 334.1468200683594 221.9814910888672 498.7882385253906 169.3862762451172 453.17999267578125 326.180908203125" stroke-width="0.0" fill="rgb(250, 192, 0)" opacity="0.53834534" stroke="rgb(206, 151, 82)" stroke-opacity="0.80179554" stroke-linecap="round" stroke-linejoin="round"/>
    <path d="M 276.75372314453125 338.8013916015625 C 260.394287109375 368.78240966796875 278.1860656738281 441.2782287597656 254.9398193359375 451.3697204589844 C 214.39276123046875 424.00689697265625 212.7451171875 386.0956115722656 215.94798278808594 358.99212646484375 C 227.29641723632812 297.7301025390625 263.619384765625 263.3854064941406 287.9951171875 240.82400512695312 C 348.74658203125 301.93707275390625 359.6187438964844 374.3539123535156 276.75372314453125 338.8013916015625" stroke-width="0.0" fill="rgb(254, 187, 0)" opacity="0.48758033" stroke="rgb(35, 135, 13)" stroke-opacity="0.92424965" stroke-linecap="round" stroke-linejoin="round"/>
    <path d="M 451.55560302734375 203.2040557861328 C 456.65411376953125 269.7633361816406 436.2036437988281 222.2130126953125 395.9341125488281 271.9032287597656 C 388.6131896972656 240.72540283203125 357.298095703125 253.6722412109375 362.6158447265625 253.334228515625 C 404.6324768066406 346.0551452636719 289.86376953125 350.28912353515625 256.68585205078125 116.413330078125 C 406.930908203125 220.77191162109375 402.4656677246094 201.14500427246094 451.55560302734375 203.2040557861328" stroke-width="0.0" fill="rgb(249, 209, 105)" opacity="0.8818599" stroke="rgb(237, 97, 174)" stroke-opacity="0.8620345" stroke-linecap="round" stroke-linejoin="round"/>
    <path d="M 317.6881103515625 143.34474182128906 C 238.89341735839844 197.0260009765625 289.4461364746094 281.77911376953125 206.87359619140625 283.5943603515625 C 147.7509002685547 263.8528747558594 127.73283386230469 276.5217590332031 97.95915985107422 223.40411376953125 C 156.1783447265625 193.40579223632812 180.15936279296875 182.34825134277344 225.31480407714844 174.05421447753906 C 298.09027099609375 113.00092315673828 232.48150634765625 46.708194732666016 317.6881103515625 143.34474182128906" stroke-width="0.0" fill="rgb(96, 203, 12)" opacity="0.53622484" stroke="rgb(141, 188, 248)" stroke-opacity="0.78885543" stroke-linecap="round" stroke-linejoin="round"/>
    <path d="M 163.79542541503906 191.15037536621094 C 163.63169860839844 247.69110107421875 172.7539520263672 276.9467468261719 121.41607666015625 266.67071533203125 C 8.686756134033203 220.52130126953125 13.183905601501465 119.21648406982422 28.357881546020508 96.94512939453125 C 83.9916763305664 8.813274383544922 94.13441467285156 84.15829467773438 242.2643585205078 26.182788848876953 C 306.62408447265625 184.93417358398438 187.84580993652344 179.44882202148438 163.79542541503906 191.15037536621094" stroke-width="0.0" fill="rgb(101, 176, 32)" opacity="0.34013867" stroke="rgb(199, 234, 70)" stroke-opacity="0.1828624" stroke-linecap="round" stroke-linejoin="round"/>
    <path d="M 411.9685974121094 202.3600311279297 C 420.503173828125 215.1397247314453 393.4130554199219 189.4295196533203 330.40972900390625 215.18637084960938 C 275.5050354003906 241.3479461669922 290.03228759765625 255.5523681640625 287.2917175292969 219.52174377441406 C 324.91986083984375 174.92257690429688 313.60107421875 188.96177673339844 318.26031494140625 147.1044158935547 C 363.88336181640625 144.91995239257812 371.18206787109375 162.96266174316406 411.9685974121094 202.3600311279297" stroke-width="0.0" fill="rgb(255, 255, 255)" opacity="0.9847664" stroke="rgb(99, 181, 49)" stroke-opacity="0.10601829" stroke-linecap="round" stroke-linejoin="round"/>
    <path d="M 303.8242492675781 197.34613037109375 C 307.228271484375 218.21897888183594 316.9720458984375 219.4194793701172 285.74420166015625 222.78646850585938 C 252.70611572265625 221.3722381591797 262.82489013671875 219.61936950683594 266.4566345214844 193.65335083007812 C 275.34918212890625 155.7190704345703 245.39697265625 157.08297729492188 262.06396484375 176.70091247558594 C 313.83709716796875 190.8400115966797 293.80841064453125 158.97021484375 303.8242492675781 197.34613037109375" stroke-width="0.0" fill="rgb(252, 187, 6)" opacity="0.9636264" stroke="rgb(179, 254, 243)" stroke-opacity="0.37640095" stroke-linecap="round" stroke-linejoin="round"/>
    <path d="M 434.63714599609375 388.5631103515625 C 447.35595703125 392.80718994140625 432.18487548828125 440.10430908203125 402.3657531738281 435.00445556640625 C 394.5508117675781 436.4880065917969 355.4772033691406 409.4280700683594 406.1432189941406 388.34320068359375 C 358.2777099609375 433.26202392578125 437.88818359375 423.6825866699219 424.314697265625 394.00201416015625 C 429.0050964355469 394.38873291015625 354.0780029296875 383.1287536621094 434.63714599609375 388.5631103515625" stroke-width="0.0" fill="rgb(254, 191, 0)" opacity="0.94197834" stroke="rgb(229, 78, 241)" stroke-opacity="0.31567502" stroke-linecap="round" stroke-linejoin="round"/>
    <path d="M 421.01690673828125 358.944580078125 C 374.9604187011719 396.5931091308594 363.1476135253906 401.0687255859375 349.34576416015625 400.6618957519531 C 326.4306640625 438.6325378417969 305.39947509765625 504.71612548828125 264.345947265625 432.0635986328125 C 329.2888488769531 274.66070556640625 306.67230224609375 324.6577453613281 380.7174987792969 330.4640808105469 C 327.2283020019531 383.33642578125 379.2158203125 378.8720703125 421.01690673828125 358.944580078125" stroke-width="0.0" fill="rgb(39, 121, 3)" opacity="0.38413477" stroke="rgb(231, 46, 211)" stroke-opacity="0.96733046" stroke-linecap="round" stroke-linejoin="round"/>
    <path d="M 353.9734802246094 407.19293212890625 C 334.65850830078125 416.2899169921875 358.8373107910156 443.58978271484375 295.7623596191406 467.8984375 C 244.08251953125 454.4472961425781 310.62115478515625 461.0391540527344 328.2857360839844 436.3707580566406 C 347.14520263671875 392.4180603027344 292.1524658203125 411.85211181640625 320.34674072265625 364.8677673339844 C 326.7265625 397.4239807128906 499.8641052246094 356.5611267089844 353.9734802246094 407.19293212890625" stroke-width="0.0" fill="rgb(254, 193, 6)" opacity="0.9835364" stroke="rgb(144, 93, 21)" stroke-opacity="0.023456737" stroke-linecap="round" stroke-linejoin="round"/>
    <path d="M 156.24423217773438 194.5380859375 C 155.48265075683594 255.0730438232422 159.2056884765625 233.27171325683594 146.60899353027344 242.29673767089844 C 129.41983032226562 245.2702178955078 123.21856689453125 222.36941528320312 122.55123138427734 177.10903930664062 C 125.12850189208984 106.2071304321289 118.80152893066406 161.00418090820312 142.46694946289062 125.81085968017578 C 177.5881805419922 135.8496856689453 131.24276733398438 177.18963623046875 156.24423217773438 194.5380859375" stroke-width="0.0" fill="rgb(255, 219, 109)" opacity="0.9729812" stroke="rgb(37, 39, 229)" stroke-opacity="0.16608784" stroke-linecap="round" stroke-linejoin="round"/>
    <path d="M 390.9752502441406 293.2858581542969 C 374.9051513671875 339.69073486328125 407.7476501464844 362.589599609375 364.6921081542969 352.39599609375 C 365.4543151855469 331.62506103515625 371.62506103515625 315.61260986328125 351.9415283203125 294.2830810546875 C 387.92694091796875 226.20054626464844 303.75189208984375 270.3189392089844 342.293701171875 238.22337341308594 C 386.1311950683594 282.3100280761719 384.5211486816406 242.28492736816406 390.9752502441406 293.2858581542969" stroke-width="0.0" fill="rgb(100, 50, 83)" opacity="0.6461387" stroke="rgb(170, 216, 41)" stroke-opacity="0.96410084" stroke-linecap="round" stroke-linejoin="round"/>
    <path d="M 178.90078735351562 147.88333129882812 C 179.0399932861328 167.28216552734375 172.52748107910156 150.91226196289062 148.467041015625 174.46737670898438 C 149.2779541015625 172.82049560546875 139.88230895996094 139.55340576171875 144.0084228515625 127.40635681152344 C 155.1904296875 104.77788543701172 150.17718505859375 132.42098999023438 163.75965881347656 116.83636474609375 C 166.27516174316406 113.84166717529297 187.6873321533203 161.9325408935547 178.90078735351562 147.88333129882812" stroke-width="0.0" fill="rgb(41, 173, 165)" opacity="0.92609054" stroke="rgb(52, 90, 127)" stroke-opacity="0.034934487" stroke-linecap="round" stroke-linejoin="round"/>
    <path d="M 264.5172119140625 154.08331298828125 C 263.3229675292969 168.2134552001953 276.570556640625 190.53985595703125 261.214599609375 186.0604248046875 C 248.7028045654297 127.94756317138672 264.5626525878906 218.8466033935547 249.6291046142578 198.64218139648438 C 251.16555786132812 126.66410064697266 246.8129119873047 156.73507690429688 256.2459716796875 137.19448852539062 C 257.71954345703125 163.874267578125 252.94424438476562 150.80381774902344 264.5172119140625 154.08331298828125" stroke-width="0.0" fill="rgb(62, 90, 50)" opacity="0.84657246" stroke="rgb(71, 165, 50)" stroke-opacity="0.2735031" stroke-linecap="round" stroke-linejoin="round"/>
    <path d="M 213.13540649414062 197.96063232421875 C 214.38343811035156 226.54283142089844 196.3468017578125 216.2173309326172 184.57904052734375 233.3347930908203 C 166.47328186035156 242.61471557617188 174.39930725097656 242.11502075195312 196.69081115722656 223.04910278320312 C 158.45059204101562 157.8728790283203 170.73403930664062 242.1569061279297 146.96693420410156 179.42041015625 C 221.355224609375 181.2337646484375 194.8777618408203 173.1260528564453 213.13540649414062 197.96063232421875" stroke-width="0.0" fill="rgb(143, 54, 2)" opacity="0.971164" stroke="rgb(130, 152, 131)" stroke-opacity="0.5733281" stroke-linecap="round" stroke-linejoin="round"/>
    <path d="M 122.97587585449219 146.15542602539062 C 116.52883911132812 164.27610778808594 114.61223602294922 189.3433380126953 110.94213104248047 187.0452423095703 C 81.50334167480469 184.5692901611328 92.74812316894531 197.74676513671875 82.142822265625 154.94813537597656 C 90.20690155029297 141.46209716796875 21.406063079833984 156.6136474609375 74.90440368652344 135.12710571289062 C 152.60275268554688 133.7434844970703 128.3401641845703 113.94634246826172 122.97587585449219 146.15542602539062" stroke-width="0.0" fill="rgb(125, 204, 39)" opacity="0.80491424" stroke="rgb(119, 134, 227)" stroke-opacity="0.048663076" stroke-linecap="round" stroke-linejoin="round"/>
    <path d="M 385.7969055175781 378.6012878417969 C 373.6712646484375 392.5641174316406 356.93255615234375 403.492919921875 345.084228515625 401.0340881347656 C 340.2930603027344 395.3757629394531 334.48626708984375 398.1921691894531 333.5306701660156 375.1365966796875 C 332.0799560546875 360.46832275390625 341.0995788574219 364.0539245605469 361.4862060546875 350.7300109863281 C 353.0912780761719 387.048095703125 375.3114013671875 379.4524230957031 385.7969055175781 378.6012878417969" stroke-width="0.0" fill="rgb(233, 16, 255)" opacity="0.99519986" stroke="rgb(110, 161, 35)" stroke-opacity="0.45054334" stroke-linecap="round" stroke-linejoin="round"/>
    <path d="M 404.1283264160156 309.9464416503906 C 403.11822509765625 349.1883544921875 409.8852844238281 325.615234375 384.1001892089844 337.9481201171875 C 366.9680480957031 350.9957580566406 367.0144958496094 318.797119140625 374.1258850097656 311.0165710449219 C 370.0993347167969 254.56382751464844 360.2648620605469 250.84637451171875 362.57598876953125 252.55471801757812 C 393.92498779296875 241.37802124023438 399.58221435546875 277.54443359375 404.1283264160156 309.9464416503906" stroke-width="0.0" fill="rgb(240, 85, 255)" opacity="0.98284405" stroke="rgb(53, 217, 221)" stroke-opacity="0.34084827" stroke-linecap="round" stroke-linejoin="round"/>
    <path d="M 334.3917236328125 425.5886535644531 C 329.12872314453125 445.0926818847656 312.1822509765625 455.9783630371094 289.2740783691406 458.4344177246094 C 275.9744567871094 458.83294677734375 272.7895202636719 463.57232666015625 260.9773254394531 419.83660888671875 C 278.6134948730469 416.20928955078125 294.40069580078125 417.0226135253906 269.5104675292969 430.9594421386719 C 339.8834533691406 420.5205383300781 328.3701171875 405.89324951171875 334.3917236328125 425.5886535644531" stroke-width="0.0" fill="rgb(40, 144, 133)" opacity="1.0" stroke="rgb(179, 148, 208)" stroke-opacity="0.5729279" stroke-linecap="round" stroke-linejoin="round"/>
    <path d="M 425.8640441894531 403.2759094238281 C 425.43463134765625 406.74676513671875 419.6234436035156 416.734130859375 404.205810546875 418.7452697753906 C 391.5442199707031 420.3091735839844 387.92431640625 412.451904296875 392.2529602050781 403.44317626953125 C 400.0124816894531 391.9717102050781 410.8038330078125 395.22808837890625 410.140380859375 392.65655517578125 C 421.7433776855469 389.9064636230469 428.3518371582031 394.9435729980469 425.8640441894531 403.2759094238281" stroke-width="0.0" fill="rgb(147, 157, 174)" opacity="0.9228003" stroke="rgb(118, 162, 64)" stroke-opacity="0.30664665" stroke-linecap="round" stroke-linejoin="round"/>
    <path d="M 286.64190673828125 249.01971435546875 C 286.4737243652344 269.9644470214844 286.7570495605469 313.8204650878906 286.389892578125 338.4471740722656 C 273.2720642089844 352.4488220214844 290.5664367675781 305.1529846191406 281.97003173828125 331.2065124511719 C 282.60699462890625 310.2766418457031 281.8592834472656 216.2535400390625 282.3111267089844 210.2935333251953 C 291.7929992675781 221.86383056640625 283.0946044921875 278.74346923828125 286.64190673828125 249.01971435546875" stroke-width="0.0" fill="rgb(246, 176, 12)" opacity="0.94129187" stroke="rgb(99, 153, 213)" stroke-opacity="0.74221414" stroke-linecap="round" stroke-linejoin="round"/>
    <path d="M 361.8163146972656 311.6410217285156 C 379.3180236816406 310.66912841796875 332.9147644042969 352.67718505859375 341.76080322265625 334.7300720214844 C 321.19232177734375 316.4842224121094 341.89410400390625 326.8644104003906 333.1698303222656 310.2221984863281 C 323.639404296875 302.0094299316406 342.01458740234375 275.1510314941406 340.71466064453125 285.5142822265625 C 367.6064758300781 291.76580810546875 349.2334899902344 255.59849548339844 361.8163146972656 311.6410217285156" stroke-width="0.0" fill="rgb(209, 211, 213)" opacity="1.0" stroke="rgb(57, 90, 253)" stroke-opacity="0.54495776" stroke-linecap="round" stroke-linejoin="round"/>
    <path d="M 225.13450622558594 250.4098358154297 C 214.38638305664062 248.40713500976562 217.91761779785156 257.594970703125 217.15597534179688 228.5153045654297 C 183.32644653320312 244.19692993164062 209.83106994628906 210.688720703125 223.17324829101562 226.40309143066406 C 181.51181030273438 183.16087341308594 225.0775146484375 238.98773193359375 216.44082641601562 179.40451049804688 C 228.52005004882812 183.95408630371094 223.85560607910156 158.52528381347656 225.13450622558594 250.4098358154297" stroke-width="0.0" fill="rgb(64, 86, 91)" opacity="1.0" stroke="rgb(90, 50, 49)" stroke-opacity="0.40506625" stroke-linecap="round" stroke-linejoin="round"/>
    <path d="M 412.1101379394531 386.3428649902344 C 412.3072204589844 406.9220886230469 415.24029541015625 405.7098693847656 406.7637023925781 409.5360107421875 C 402.54364013671875 405.5911560058594 397.752197265625 396.606201171875 389.6323547363281 378.442138671875 C 384.0335693359375 378.7305603027344 397.1805725097656 379.2709045410156 410.2791442871094 370.2008361816406 C 411.6534118652344 359.9676818847656 411.3778991699219 368.1457824707031 412.1101379394531 386.3428649902344" stroke-width="0.0" fill="rgb(59, 61, 65)" opacity="1.0" stroke="rgb(163, 146, 201)" stroke-opacity="0.639837" stroke-linecap="round" stroke-linejoin="round"/>
    <path d="M 384.9055480957031 336.7299499511719 C 384.4399719238281 338.36102294921875 384.0814208984375 330.3909912109375 365.4234619140625 345.63067626953125 C 368.20458984375 324.48046875 360.86578369140625 332.2974548339844 369.9064636230469 306.3142395019531 C 365.8510437011719 303.92401123046875 368.1230163574219 320.207275390625 367.1379089355469 262.1871032714844 C 392.4421691894531 267.80596923828125 390.2972106933594 296.9096374511719 384.9055480957031 336.7299499511719" stroke-width="0.0" fill="rgb(218, 0, 244)" opacity="0.7925443" stroke="rgb(147, 139, 190)" stroke-opacity="0.37580872" stroke-linecap="round" stroke-linejoin="round"/>
    <path d="M 365.26531982421875 324.96881103515625 C 374.809326171875 372.9066162109375 321.76263427734375 352.6887512207031 286.0595397949219 380.2598876953125 C 301.98370361328125 340.4324645996094 299.0954895019531 344.54705810546875 303.27874755859375 343.53302001953125 C 301.740234375 306.6434326171875 291.6617431640625 317.2958679199219 328.44903564453125 318.2950439453125 C 340.7791442871094 322.06207275390625 310.2312316894531 368.3558044433594 365.26531982421875 324.96881103515625" stroke-width="0.0" fill="rgb(3, 49, 123)" opacity="0.6300541" stroke="rgb(236, 240, 51)" stroke-opacity="0.44545847" stroke-linecap="round" stroke-linejoin="round"/>
    <path d="M 347.31146240234375 360.20660400390625 C 338.68487548828125 408.44500732421875 352.84954833984375 401.03387451171875 340.2632141113281 401.21893310546875 C 323.70220947265625 397.5557861328125 327.7967529296875 388.6907653808594 323.145263671875 374.4001770019531 C 316.72882080078125 354.0667724609375 323.5095520019531 367.0462646484375 359.8023376464844 353.14739990234375 C 369.95367431640625 337.482177734375 362.3455810546875 364.3423767089844 347.31146240234375 360.20660400390625" stroke-width="0.0" fill="rgb(183, 0, 203)" opacity="0.98968893" stroke="rgb(169, 175, 107)" stroke-opacity="0.7947773" stroke-linecap="round" stroke-linejoin="round"/>
    <path d="M 300.5915222167969 392.1649169921875 C 256.4929504394531 408.4423522949219 294.08355712890625 393.1628723144531 276.16900634765625 439.7804260253906 C 264.45672607421875 434.4712829589844 254.79891967773438 420.68914794921875 261.072509765625 404.1882629394531 C 263.0480041503906 397.0061950683594 272.6045837402344 384.2137756347656 275.3260498046875 383.0057373046875 C 314.9329528808594 359.81927490234375 323.3219909667969 351.3874816894531 300.5915222167969 392.1649169921875" stroke-width="0.0" fill="rgb(49, 186, 177)" opacity="0.9468791" stroke="rgb(73, 6, 146)" stroke-opacity="0.0784281" stroke-linecap="round" stroke-linejoin="round"/>
    <path d="M 317.9034729003906 155.59397888183594 C 305.93133544921875 244.36679077148438 304.1298828125 150.4401092529297 286.8580627441406 180.56727600097656 C 290.8149108886719 148.634765625 297.2756042480469 154.47140502929688 284.8373718261719 153.91567993164062 C 290.780517578125 148.59661865234375 294.7326965332031 147.7469482421875 303.4758605957031 146.05857849121094 C 319.4837951660156 143.22251892089844 310.5445251464844 158.6717529296875 317.9034729003906 155.59397888183594" stroke-width="0.0" fill="rgb(200, 238, 167)" opacity="0.9677525" stroke="rgb(16, 166, 213)" stroke-opacity="0.32166207" stroke-linecap="round" stroke-linejoin="round"/>
    <path d="M 328.7977294921875 407.18194580078125 C 336.18341064453125 430.4736633300781 327.7073059082031 400.60992431640625 305.134033203125 436.43597412109375 C 246.7637939453125 416.3935852050781 313.9570617675781 422.1083679199219 300.4860534667969 404.5325012207031 C 269.2874755859375 411.5951843261719 288.0600280761719 316.69134521484375 325.3163757324219 352.1097717285156 C 303.60736083984375 404.000244140625 311.4530334472656 364.9281311035156 328.7977294921875 407.18194580078125" stroke-width="0.0" fill="rgb(19, 144, 197)" opacity="0.7998292" stroke="rgb(254, 54, 118)" stroke-opacity="0.0187721" stroke-linecap="round" stroke-linejoin="round"/>
    <path d="M 450.1292724609375 230.8707733154297 C 448.3749084472656 197.66432189941406 458.6080627441406 217.0955352783203 416.6732177734375 227.29632568359375 C 418.8092956542969 212.56146240234375 414.84332275390625 178.64703369140625 414.80419921875 230.9776611328125 C 435.30633544921875 231.0235595703125 437.99530029296875 230.98269653320312 418.74847412109375 230.9801483154297 C 425.39263916015625 230.95462036132812 454.75543212890625 231.05331420898438 450.1292724609375 230.8707733154297" stroke-width="0.0" fill="rgb(243, 248, 252)" opacity="0.9404943" stroke="rgb(31, 27, 170)" stroke-opacity="0.58370876" stroke-linecap="round" stroke-linejoin="round"/>
    <path d="M 192.9070281982422 218.61085510253906 C 196.37998962402344 215.94833374023438 197.5039520263672 233.44190979003906 180.07904052734375 238.6199951171875 C 144.77871704101562 240.73257446289062 170.57508850097656 226.52328491210938 151.29335021972656 189.81797790527344 C 158.52886962890625 201.56173706054688 180.5677490234375 187.94435119628906 185.29751586914062 199.68927001953125 C 190.43472290039062 214.76812744140625 195.14785766601562 218.6144256591797 192.9070281982422 218.61085510253906" stroke-width="0.0" fill="rgb(255, 201, 39)" opacity="0.96495646" stroke="rgb(228, 182, 123)" stroke-opacity="0.018507699" stroke-linecap="round" stroke-linejoin="round"/>
    <path d="M 171.0865478515625 99.56437683105469 C 171.76486206054688 100.66908264160156 170.87319946289062 108.85568237304688 154.48924255371094 101.81033325195312 C 156.6338653564453 109.15523529052734 152.1532440185547 105.82212829589844 150.1800079345703 108.34087371826172 C 139.54571533203125 96.8051986694336 150.530517578125 89.91596984863281 155.66696166992188 89.5217056274414 C 165.00048828125 86.7799072265625 170.41131591796875 90.58524322509766 171.0865478515625 99.56437683105469" stroke-width="0.0" fill="rgb(52, 52, 60)" opacity="0.9380612" stroke="rgb(118, 57, 189)" stroke-opacity="0.0005318069" stroke-linecap="round" stroke-linejoin="round"/>
    <path d="M 120.59147644042969 69.04656219482422 C 127.9727554321289 81.72136688232422 114.48677825927734 87.95489501953125 112.85488891601562 89.31957244873047 C 104.8705825805664 89.80921173095703 98.05130004882812 83.23434448242188 99.11125183105469 74.97252655029297 C 103.60205078125 61.30184555053711 97.77310943603516 71.6404800415039 111.7233657836914 78.3285140991211 C 111.33259582519531 68.13726806640625 109.4145278930664 56.77320098876953 120.59147644042969 69.04656219482422" stroke-width="0.0" fill="rgb(245, 246, 248)" opacity="0.96866477" stroke="rgb(75, 79, 123)" stroke-opacity="0.9521509" stroke-linecap="round" stroke-linejoin="round"/>
    <path d="M 388.2867126464844 350.4417419433594 C 400.0473327636719 354.70916748046875 363.06805419921875 355.25836181640625 372.7096252441406 351.8089599609375 C 379.59130859375 354.2842102050781 356.7746276855469 355.2977600097656 371.817626953125 349.9445495605469 C 365.0453796386719 339.6245422363281 371.0943298339844 338.5001525878906 378.29742431640625 335.8475341796875 C 390.5693054199219 336.3100280761719 389.4748229980469 339.3738098144531 388.2867126464844 350.4417419433594" stroke-width="0.0" fill="rgb(222, 37, 51)" opacity="0.88308173" stroke="rgb(161, 17, 66)" stroke-opacity="0.74122584" stroke-linecap="round" stroke-linejoin="round"/>
    <path d="M 448.26385498046875 214.94049072265625 C 448.50164794921875 233.23681640625 447.94268798828125 227.21754455566406 447.6373596191406 228.03970336914062 C 410.8399658203125 227.45364379882812 416.5708923339844 229.97540283203125 427.1183776855469 214.28814697265625 C 425.7104187011719 211.64280700683594 436.65545654296875 223.19732666015625 434.99468994140625 221.33255004882812 C 445.232421875 204.98570251464844 438.38519287109375 210.05589294433594 448.26385498046875 214.94049072265625" stroke-width="0.0" fill="rgb(252, 175, 23)" opacity="0.99604714" stroke="rgb(247, 143, 101)" stroke-opacity="0.23427065" stroke-linecap="round" stroke-linejoin="round"/>
    <path d="M 164.11917114257812 225.5629119873047 C 162.49200439453125 257.6533203125 167.21713256835938 248.65310668945312 157.1758270263672 250.06500244140625 C 155.87969970703125 248.12315368652344 156.1162109375 260.3758850097656 156.3266143798828 210.22402954101562 C 156.160400390625 239.98178100585938 156.4759979248047 211.24072265625 155.8756866455078 184.43145751953125 C 167.68197631835938 198.09478759765625 156.3346710205078 217.81137084960938 164.11917114257812 225.5629119873047" stroke-width="0.0" fill="rgb(64, 68, 75)" opacity="0.98333114" stroke="rgb(204, 102, 9)" stroke-opacity="0.49644688" stroke-linecap="round" stroke-linejoin="round"/>
    <path d="M 399.5859069824219 218.43736267089844 C 400.9151306152344 256.6470031738281 413.8916320800781 245.43426513671875 354.0608215332031 247.13914489746094 C 368.67083740234375 245.4747314453125 362.9732971191406 254.56092834472656 365.3043518066406 216.74905395507812 C 371.8110046386719 252.26400756835938 354.18231201171875 240.54852294921875 389.3421936035156 243.62583923339844 C 403.525390625 247.7489013671875 394.6597900390625 227.74383544921875 399.5859069824219 218.43736267089844" stroke-width="0.0" fill="rgb(243, 247, 250)" opacity="0.95726967" stroke="rgb(189, 140, 95)" stroke-opacity="0.3939948" stroke-linecap="round" stroke-linejoin="round"/>
    <path d="M 428.0564270019531 358.02545166015625 C 430.60162353515625 345.9493103027344 425.00482177734375 373.921630859375 385.4239807128906 379.0350646972656 C 347.99072265625 388.66656494140625 351.8472595214844 337.6473388671875 381.8963928222656 356.3578186035156 C 404.72796630859375 335.9607238769531 367.9032897949219 337.15557861328125 398.6864929199219 334.02685546875 C 420.4284362792969 329.76190185546875 431.2676086425781 344.723876953125 428.0564270019531 358.02545166015625" stroke-width="0.0" fill="rgb(184, 191, 208)" opacity="0.75073445" stroke="rgb(251, 112, 203)" stroke-opacity="0.27717876" stroke-linecap="round" stroke-linejoin="round"/>
    <path d="M 455.3869323730469 340.4613037109375 C 460.6617736816406 349.87066650390625 450.9001159667969 340.72674560546875 437.0016784667969 344.5174255371094 C 455.3690185546875 340.60980224609375 422.8309020996094 346.0634765625 420.404296875 336.32415771484375 C 421.7819519042969 336.9549255371094 446.16510009765625 339.5352783203125 453.7735595703125 340.1418151855469 C 434.1498718261719 338.2309265136719 443.2032775878906 339.19073486328125 455.3869323730469 340.4613037109375" stroke-width="0.0" fill="rgb(255, 192, 5)" opacity="0.9903029" stroke="rgb(170, 115, 18)" stroke-opacity="0.029937366" stroke-linecap="round" stroke-linejoin="round"/>
    <path d="M 241.0052947998047 30.17793846130371 C 245.58108520507812 160.8268585205078 239.80372619628906 122.29974365234375 102.4617691040039 57.73599624633789 C 159.75758361816406 50.112098693847656 169.4239044189453 52.742340087890625 188.05941772460938 37.43214416503906 C 200.02951049804688 30.345542907714844 206.0938262939453 28.182662963867188 207.52171325683594 27.948680877685547 C 203.27783203125 28.844778060913086 228.9695281982422 18.913021087646484 241.0052947998047 30.17793846130371" stroke-width="0.0" fill="rgb(195, 236, 153)" opacity="0.842133" stroke="rgb(111, 181, 248)" stroke-opacity="0.08408108" stroke-linecap="round" stroke-linejoin="round"/>
    <path d="M 451.7613525390625 203.01605224609375 C 423.8352355957031 203.65829467773438 407.7151794433594 201.88433837890625 414.6965637207031 205.08486938476562 C 449.1098327636719 204.4730987548828 442.10675048828125 206.30484008789062 436.5599365234375 202.8675079345703 C 435.8511962890625 202.8362579345703 436.5001220703125 204.54647827148438 436.4285888671875 203.32200622558594 C 433.1726989746094 199.96649169921875 456.6304931640625 215.51319885253906 451.7613525390625 203.01605224609375" stroke-width="0.0" fill="rgb(230, 96, 4)" opacity="0.6897805" stroke="rgb(30, 63, 156)" stroke-opacity="0.9774686" stroke-linecap="round" stroke-linejoin="round"/>
    <path d="M 397.9497375488281 231.71957397460938 C 397.00518798828125 248.4135284423828 401.6375732421875 243.04489135742188 388.910888671875 244.1464080810547 C 363.24853515625 243.7467041015625 365.75994873046875 245.07081604003906 368.0513916015625 241.78515625 C 380.7511291503906 226.26519775390625 373.88482666015625 228.0297393798828 384.4776306152344 237.1231231689453 C 394.0052185058594 222.6914520263672 388.7970275878906 224.01527404785156 397.9497375488281 231.71957397460938" stroke-width="0.0" fill="rgb(252, 168, 6)" opacity="0.86241525" stroke="rgb(113, 95, 97)" stroke-opacity="0.6362982" stroke-linecap="round" stroke-linejoin="round"/>
    <path d="M 278.5455017089844 94.01305389404297 C 306.7444152832031 117.5673828125 315.96319580078125 149.93272399902344 275.2276306152344 113.261962890625 C 237.84091186523438 110.64177703857422 243.0069580078125 129.6567840576172 242.293701171875 38.1948356628418 C 241.39285278320312 26.67967987060547 254.20135498046875 32.80363082885742 253.3157196044922 57.30289077758789 C 261.7861633300781 84.26074981689453 270.5293884277344 85.6081771850586 278.5455017089844 94.01305389404297" stroke-width="0.0" fill="rgb(189, 230, 146)" opacity="0.7799275" stroke="rgb(104, 58, 247)" stroke-opacity="0.59710014" stroke-linecap="round" stroke-linejoin="round"/>
    <path d="M 301.392822265625 323.4034118652344 C 305.24554443359375 331.47271728515625 297.15850830078125 323.8926086425781 235.1761932373047 321.9169921875 C 283.6805725097656 324.09100341796875 253.573974609375 322.6349182128906 227.97671508789062 319.220703125 C 232.0740966796875 313.3000793457031 222.20828247070312 314.7813720703125 262.78302001953125 318.68499755859375 C 245.47589111328125 316.8550109863281 255.23423767089844 317.9026184082031 301.392822265625 323.4034118652344" stroke-width="0.0" fill="rgb(254, 192, 9)" opacity="1.0" stroke="rgb(71, 99, 2)" stroke-opacity="0.12574895" stroke-linecap="round" stroke-linejoin="round"/>
    <path d="M 369.8602294921875 309.10638427734375 C 363.134033203125 314.38983154296875 377.0992126464844 323.48681640625 332.68994140625 346.04351806640625 C 350.133056640625 324.208984375 368.25225830078125 327.3943786621094 355.4543151855469 302.0783996582031 C 359.6481018066406 277.6260070800781 354.0968322753906 307.15020751953125 367.6859130859375 291.4416809082031 C 365.8451843261719 283.38348388671875 374.2630920410156 297.89007568359375 369.8602294921875 309.10638427734375" stroke-width="0.0" fill="rgb(245, 128, 102)" opacity="0.8651358" stroke="rgb(205, 240, 204)" stroke-opacity="0.42283922" stroke-linecap="round" stroke-linejoin="round"/>
    <path d="M 183.3814239501953 40.729713439941406 C 169.24676513671875 51.18056869506836 171.46263122558594 53.43415069580078 161.88327026367188 54.195884704589844 C 156.2014923095703 56.20815658569336 137.64915466308594 54.252662658691406 122.43353271484375 51.770530700683594 C 143.9581298828125 47.094825744628906 158.97283935546875 51.28025436401367 167.48822021484375 39.9417839050293 C 183.50155639648438 41.90755844116211 174.27488708496094 31.348421096801758 183.3814239501953 40.729713439941406" stroke-width="0.0" fill="rgb(255, 255, 255)" opacity="0.7893265" stroke="rgb(200, 206, 46)" stroke-opacity="0.63104105" stroke-linecap="round" stroke-linejoin="round"/>
    <path d="M 265.5124816894531 217.57215881347656 C 257.5251159667969 313.5780944824219 185.49606323242188 276.87127685546875 162.84381103515625 271.1808776855469 C 143.72593688964844 269.1351623535156 124.1631851196289 267.2365417480469 99.69625854492188 228.09896850585938 C 127.0196304321289 249.58355712890625 112.0754165649414 249.09957885742188 143.76583862304688 255.65396118164062 C 282.54034423828125 273.3616027832031 211.39785766601562 255.40785217285156 265.5124816894531 217.57215881347656" stroke-width="0.0" fill="rgb(218, 243, 185)" opacity="0.6771324" stroke="rgb(95, 187, 186)" stroke-opacity="0.2176109" stroke-linecap="round" stroke-linejoin="round"/>
    <path d="M 161.44509887695312 228.7803955078125 C 157.64749145507812 218.60562133789062 160.3812713623047 223.72552490234375 159.0251922607422 224.89930725097656 C 161.11001586914062 221.89527893066406 160.9132843017578 220.73875427246094 156.4749755859375 226.44302368164062 C 168.25067138671875 184.05337524414062 144.14810180664062 178.14283752441406 163.65879821777344 179.72386169433594 C 163.80718994140625 234.54275512695312 164.45457458496094 241.04165649414062 161.44509887695312 228.7803955078125" stroke-width="0.0" fill="rgb(65, 70, 75)" opacity="1.0" stroke="rgb(105, 99, 111)" stroke-opacity="0.3450439" stroke-linecap="round" stroke-linejoin="round"/>
    <path d="M 221.38333129882812 147.68405151367188 C 223.07687377929688 141.6968994140625 222.86578369140625 148.5087890625 205.6561279296875 158.3777313232422 C 205.87274169921875 162.91531372070312 205.12924194335938 163.9701690673828 207.6534423828125 132.77774047851562 C 207.28712463378906 131.4642333984375 205.07229614257812 133.35792541503906 225.51870727539062 120.64685821533203 C 225.97640991210938 114.99556732177734 226.60740661621094 113.79460144042969 221.38333129882812 147.68405151367188" stroke-width="0.0" fill="rgb(55, 56, 79)" opacity="0.8078908" stroke="rgb(74, 24, 62)" stroke-opacity="0.728457" stroke-linecap="round" stroke-linejoin="round"/>
    <path d="M 369.21380615234375 290.70794677734375 C 348.80255126953125 317.29107666015625 382.7164611816406 309.6510009765625 358.9920959472656 313.6607360839844 C 358.3722229003906 308.0286560058594 354.73040771484375 302.244384765625 355.5687255859375 298.2702941894531 C 358.0665283203125 289.010498046875 357.4886169433594 290.8616638183594 360.3222351074219 294.1109924316406 C 373.5179138183594 270.7537841796875 373.21685791015625 326.2856140136719 369.21380615234375 290.70794677734375" stroke-width="0.0" fill="rgb(215, 28, 69)" opacity="0.5701612" stroke="rgb(153, 232, 192)" stroke-opacity="0.1888703" stroke-linecap="round" stroke-linejoin="round"/>
    <path d="M 246.267822265625 67.91700744628906 C 212.07577514648438 63.66071319580078 225.90586853027344 82.00594329833984 220.95005798339844 88.95172119140625 C 217.85140991210938 59.38655090332031 234.94749450683594 73.25234985351562 197.2450408935547 68.15640258789062 C 229.18551635742188 62.97978973388672 215.4278564453125 80.36878967285156 222.6290283203125 46.4629020690918 C 225.07760620117188 56.57453155517578 221.4748077392578 74.36725616455078 246.267822265625 67.91700744628906" stroke-width="0.0" fill="rgb(78, 125, 26)" opacity="0.99477375" stroke="rgb(18, 11, 206)" stroke-opacity="0.9267756" stroke-linecap="round" stroke-linejoin="round"/>
    <path d="M 298.6258850097656 336.12225341796875 C 296.8433837890625 339.92852783203125 302.155029296875 335.6143798828125 287.393798828125 336.6091613769531 C 288.35540771484375 347.906005859375 283.9460754394531 330.3902282714844 286.72198486328125 339.31085205078125 C 289.0597839355469 325.48150634765625 283.383056640625 322.4940490722656 284.5383605957031 328.43267822265625 C 290.644287109375 328.3559875488281 297.79913330078125 330.9763488769531 298.6258850097656 336.12225341796875" stroke-width="0.0" fill="rgb(255, 193, 9)" opacity="0.9979328" stroke="rgb(232, 182, 154)" stroke-opacity="0.37976548" stroke-linecap="round" stroke-linejoin="round"/>
    <path d="M 399.87005615234375 221.34237670898438 C 403.32012939453125 207.65782165527344 401.01556396484375 249.07345581054688 402.0618896484375 248.5227508544922 C 405.3464050292969 238.42227172851562 400.8277282714844 247.37469482421875 398.1386413574219 254.23086547851562 C 402.73974609375 243.11476135253906 404.48406982421875 240.876708984375 402.1248474121094 248.332763671875 C 399.4375 248.4602813720703 399.9200744628906 252.87477111816406 399.87005615234375 221.34237670898438" stroke-width="0.0" fill="rgb(234, 131, 39)" opacity="0.99987507" stroke="rgb(151, 94, 69)" stroke-opacity="0.890179" stroke-linecap="round" stroke-linejoin="round"/>
    <path d="M 146.34539794921875 182.04673767089844 C 148.64273071289062 184.08038330078125 148.3295440673828 182.3705596923828 155.86708068847656 199.76351928710938 C 138.1657257080078 194.9697723388672 139.62747192382812 205.9509735107422 132.2288360595703 153.36793518066406 C 129.3396453857422 138.3369903564453 136.94679260253906 129.96897888183594 142.96890258789062 126.93000030517578 C 142.30433654785156 149.20913696289062 154.23143005371094 192.1928253173828 146.34539794921875 182.04673767089844" stroke-width="0.0" fill="rgb(254, 181, 0)" opacity="0.66416514" stroke="rgb(27, 113, 250)" stroke-opacity="0.9051764" stroke-linecap="round" stroke-linejoin="round"/>
    <path d="M 280.225830078125 332.15875244140625 C 277.3897705078125 343.4657897949219 280.9171447753906 335.325439453125 273.81842041015625 342.5348815917969 C 272.9762268066406 340.6195068359375 270.40960693359375 340.5387268066406 270.1759033203125 336.27288818359375 C 270.1659240722656 333.42578125 272.693359375 330.3573913574219 279.8164367675781 328.4826965332031 C 283.9555969238281 328.4132995605469 282.8843994140625 329.3514404296875 280.225830078125 332.15875244140625" stroke-width="0.0" fill="rgb(250, 182, 0)" opacity="0.9093793" stroke="rgb(52, 33, 56)" stroke-opacity="0.58282137" stroke-linecap="round" stroke-linejoin="round"/>
    <path d="M 364.1929016113281 221.24656677246094 C 365.835693359375 234.51109313964844 361.1488952636719 257.9075012207031 362.9339599609375 218.93780517578125 C 394.44281005859375 218.9340362548828 369.5745544433594 218.12547302246094 366.4915771484375 221.20211791992188 C 372.634521484375 220.53347778320312 411.0586242675781 222.26492309570312 400.3452453613281 219.12925720214844 C 368.5086975097656 218.75680541992188 375.5110778808594 219.20567321777344 364.1929016113281 221.24656677246094" stroke-width="0.0" fill="rgb(233, 121, 30)" opacity="0.95051104" stroke="rgb(26, 59, 88)" stroke-opacity="0.3921453" stroke-linecap="round" stroke-linejoin="round"/>
    <path d="M 368.84637451171875 274.5162353515625 C 371.5539245605469 289.4000549316406 357.93408203125 303.73919677734375 356.66473388671875 283.5686340332031 C 347.524658203125 276.41107177734375 351.6855163574219 264.7381591796875 349.49884033203125 272.4233093261719 C 362.3162536621094 247.69207763671875 354.95977783203125 257.1825256347656 337.36846923828125 246.63641357421875 C 352.77685546875 219.45123291015625 366.4388732910156 256.48626708984375 368.84637451171875 274.5162353515625" stroke-width="0.0" fill="rgb(62, 64, 68)" opacity="1.0" stroke="rgb(118, 211, 91)" stroke-opacity="0.5168" stroke-linecap="round" stroke-linejoin="round"/>
    <path d="M 76.57293701171875 78.91681671142578 C 70.73358154296875 71.7581558227539 78.88595581054688 99.70870971679688 72.23457336425781 95.03926849365234 C 43.94316101074219 98.68949127197266 57.54911804199219 86.4700927734375 50.891929626464844 99.71294403076172 C 51.9783821105957 66.24591827392578 44.54020309448242 90.64480590820312 77.91435241699219 79.40678405761719 C 78.76900482177734 110.30789184570312 74.4897689819336 101.39000701904297 76.57293701171875 78.91681671142578" stroke-width="0.0" fill="rgb(145, 201, 85)" opacity="1.0" stroke="rgb(55, 171, 246)" stroke-opacity="0.24195774" stroke-linecap="round" stroke-linejoin="round"/>
    <path d="M 386.4918518066406 340.53070068359375 C 387.3745422363281 343.830810546875 381.5276184082031 345.8853759765625 377.8791809082031 346.0306701660156 C 369.4460144042969 346.7178649902344 370.300537109375 338.118408203125 370.7008361816406 342.9307556152344 C 369.485107421875 340.3280334472656 373.95013427734375 337.173583984375 377.40216064453125 337.1684265136719 C 382.86993408203125 335.7187194824219 386.05242919921875 338.5094909667969 386.4918518066406 340.53070068359375" stroke-width="0.0" fill="rgb(153, 61, 0)" opacity="0.97026294" stroke="rgb(75, 246, 238)" stroke-opacity="0.3052649" stroke-linecap="round" stroke-linejoin="round"/>
    <path d="M 190.42901611328125 224.90264892578125 C 184.593017578125 239.357177734375 170.42672729492188 235.73239135742188 163.88584899902344 234.7590789794922 C 163.68385314941406 233.7295379638672 163.7832794189453 249.84542846679688 163.7804718017578 201.08509826660156 C 168.93145751953125 193.35438537597656 156.01295471191406 205.74806213378906 179.56411743164062 197.6598358154297 C 191.90281677246094 222.50692749023438 191.59979248046875 232.79489135742188 190.42901611328125 224.90264892578125" stroke-width="0.0" fill="rgb(255, 223, 128)" opacity="0.83340347" stroke="rgb(125, 8, 246)" stroke-opacity="0.90753096" stroke-linecap="round" stroke-linejoin="round"/>
    <path d="M 277.0218200683594 120.9863052368164 C 264.2120361328125 103.11956024169922 261.5476379394531 147.05157470703125 270.46527099609375 151.06016540527344 C 256.75469970703125 129.1546630859375 258.01812744140625 130.56813049316406 227.78057861328125 132.35865783691406 C 216.39373779296875 79.62777709960938 202.75462341308594 88.02449798583984 253.22019958496094 85.4122085571289 C 332.6063537597656 113.79434204101562 277.3208923339844 151.05294799804688 277.0218200683594 120.9863052368164" stroke-width="0.0" fill="rgb(201, 236, 164)" opacity="1.0" stroke="rgb(249, 218, 191)" stroke-opacity="0.43001446" stroke-linecap="round" stroke-linejoin="round"/>
    <path d="M 429.60205078125 220.43556213378906 C 427.2486267089844 221.5531463623047 424.4902038574219 224.06698608398438 439.9127197265625 224.5613250732422 C 439.27618408203125 226.14498901367188 435.08612060546875 228.17153930664062 416.7136535644531 228.07810974121094 C 418.0909423828125 226.11497497558594 425.9606628417969 216.63002014160156 429.01959228515625 214.4760284423828 C 421.47991943359375 231.00474548339844 425.9849853515625 222.6383819580078 429.60205078125 220.43556213378906" stroke-width="0.0" fill="rgb(252, 174, 22)" opacity="0.8863927" stroke="rgb(118, 8, 70)" stroke-opacity="0.78625363" stroke-linecap="round" stroke-linejoin="round"/>
    <path d="M 446.9679260253906 203.36358642578125 C 432.55059814453125 205.14768981933594 432.80975341796875 205.69630432128906 448.14984130859375 204.8038787841797 C 430.661865234375 205.93460083007812 401.3926696777344 203.5045928955078 414.3798828125 207.54737854003906 C 457.3492431640625 205.6468963623047 449.57574462890625 210.78933715820312 450.1175231933594 205.0133056640625 C 429.3863220214844 205.6304473876953 436.276123046875 205.28439331054688 446.9679260253906 203.36358642578125" stroke-width="0.0" fill="rgb(243, 248, 252)" opacity="0.94860977" stroke="rgb(129, 197, 24)" stroke-opacity="0.39558095" stroke-linecap="round" stroke-linejoin="round"/>
    <path d="M 341.6400451660156 271.7923583984375 C 340.11578369140625 284.5817565917969 347.23260498046875 282.8646545410156 340.85992431640625 292.93377685546875 C 335.3532409667969 279.032958984375 332.7375183105469 270.8920593261719 331.8558654785156 265.2792053222656 C 326.19305419921875 240.57147216796875 348.3446960449219 232.6434783935547 344.6370544433594 246.31021118164062 C 319.765625 261.74609375 345.61407470703125 270.36456298828125 341.6400451660156 271.7923583984375" stroke-width="0.0" fill="rgb(72, 76, 82)" opacity="1.0" stroke="rgb(213, 44, 61)" stroke-opacity="0.17235792" stroke-linecap="round" stroke-linejoin="round"/>
    <path d="M 377.44476318359375 223.55665588378906 C 366.2333984375 220.1703643798828 364.560791015625 230.18441772460938 365.525634765625 221.1033172607422 C 415.47430419921875 219.70089721679688 400.3453369140625 223.8426971435547 387.69598388671875 222.9304656982422 C 388.56903076171875 222.89715576171875 392.3652038574219 223.09812927246094 366.8313293457031 223.09898376464844 C 365.5025634765625 225.92173767089844 370.97515869140625 221.14561462402344 377.44476318359375 223.55665588378906" stroke-width="0.0" fill="rgb(243, 246, 255)" opacity="0.90205264" stroke="rgb(165, 51, 244)" stroke-opacity="0.6021393" stroke-linecap="round" stroke-linejoin="round"/>
    <path d="M 287.1236877441406 378.5287170410156 C 272.1300354003906 380.79754638671875 274.48406982421875 388.6186828613281 257.9347839355469 392.08612060546875 C 255.88059997558594 383.8036804199219 253.40382385253906 385.1161804199219 253.99794006347656 378.7347412109375 C 258.5963134765625 371.3424377441406 261.5439453125 376.0160827636719 262.15533447265625 370.8070068359375 C 270.9608154296875 357.10308837890625 290.7025146484375 361.3936767578125 287.1236877441406 378.5287170410156" stroke-width="0.0" fill="rgb(208, 214, 226)" opacity="0.9001968" stroke="rgb(7, 194, 36)" stroke-opacity="0.66461694" stroke-linecap="round" stroke-linejoin="round"/>
    <path d="M 342.9103088378906 332.14739990234375 C 339.3000793457031 339.3511657714844 314.73272705078125 357.3297424316406 365.0798645019531 328.6298522949219 C 372.45745849609375 348.33551025390625 326.7521667480469 383.0185852050781 331.61785888671875 331.19207763671875 C 332.9515380859375 331.9363098144531 336.4819641113281 332.1947937011719 330.36383056640625 332.3912353515625 C 335.91241455078125 331.5007629394531 333.47674560546875 330.2615966796875 342.9103088378906 332.14739990234375" stroke-width="0.0" fill="rgb(38, 135, 177)" opacity="1.0" stroke="rgb(91, 234, 218)" stroke-opacity="0.09085042" stroke-linecap="round" stroke-linejoin="round"/>
    <path d="M 61.07976531982422 97.11849975585938 C 75.18814849853516 97.79598999023438 65.33723449707031 99.30302429199219 80.0481185913086 98.95936584472656 C 69.27952575683594 98.57329559326172 66.44822692871094 100.36528778076172 73.8178482055664 97.4447021484375 C 75.22795867919922 100.85682678222656 78.18839263916016 92.92305755615234 73.43932342529297 95.4080810546875 C 43.465599060058594 94.63385772705078 52.03084945678711 98.27379608154297 61.07976531982422 97.11849975585938" stroke-width="0.0" fill="rgb(255, 253, 255)" opacity="0.963887" stroke="rgb(240, 231, 59)" stroke-opacity="0.48455173" stroke-linecap="round" stroke-linejoin="round"/>
    <path d="M 44.78547668457031 100.69780731201172 C 43.0187873840332 129.76910400390625 49.931640625 120.41031646728516 30.70461082458496 116.41791534423828 C 19.332866668701172 118.88983154296875 21.200441360473633 124.32925415039062 21.053234100341797 104.7104263305664 C 20.790550231933594 103.06954956054688 22.834976196289062 105.11528778076172 43.597293853759766 104.18359375 C 36.70780563354492 97.45836639404297 43.99333572387695 104.70072174072266 44.78547668457031 100.69780731201172" stroke-width="0.0" fill="rgb(149, 219, 73)" opacity="0.7797076" stroke="rgb(135, 58, 230)" stroke-opacity="0.3767867" stroke-linecap="round" stroke-linejoin="round"/>
    <path d="M 364.0812072753906 319.84332275390625 C 346.34710693359375 342.8675842285156 332.757080078125 340.3983459472656 342.16424560546875 340.5821228027344 C 329.795654296875 346.17144775390625 333.1143493652344 353.5535888671875 332.236328125 337.4037780761719 C 335.7383728027344 338.3276672363281 335.2433776855469 336.4583435058594 342.07354736328125 334.36029052734375 C 339.0030517578125 335.7915344238281 366.8052978515625 298.6206359863281 364.0812072753906 319.84332275390625" stroke-width="0.0" fill="rgb(255, 206, 164)" opacity="0.80916137" stroke="rgb(251, 197, 69)" stroke-opacity="0.5493881" stroke-linecap="round" stroke-linejoin="round"/>
    <path d="M 282.11090087890625 346.8207092285156 C 282.5495300292969 359.2379150390625 260.8396301269531 348.4124450683594 260.5536804199219 345.3069763183594 C 268.96112060546875 340.8917236328125 269.9202575683594 340.0913391113281 263.5216064453125 343.57568359375 C 262.44232177734375 344.9132995605469 269.40313720703125 350.8185119628906 276.0166931152344 345.037353515625 C 253.92945861816406 347.4874267578125 264.9301452636719 339.57049560546875 282.11090087890625 346.8207092285156" stroke-width="0.0" fill="rgb(204, 197, 221)" opacity="0.919558" stroke="rgb(155, 88, 186)" stroke-opacity="0.6290507" stroke-linecap="round" stroke-linejoin="round"/>
    <path d="M 43.90714645385742 100.64173889160156 C 12.942872047424316 103.37081146240234 18.348154067993164 92.82268524169922 18.238075256347656 121.86051940917969 C 24.27931785583496 93.82879638671875 9.985733985900879 107.16697692871094 35.787925720214844 100.9103775024414 C 26.82566261291504 102.99100494384766 19.122419357299805 103.09383392333984 42.820709228515625 102.83245849609375 C 40.03459548950195 113.76318359375 46.49416732788086 122.0742416381836 43.90714645385742 100.64173889160156" stroke-width="0.0" fill="rgb(93, 133, 50)" opacity="0.8813407" stroke="rgb(163, 50, 67)" stroke-opacity="0.2076859" stroke-linecap="round" stroke-linejoin="round"/>
    <path d="M 303.6477966308594 406.3661193847656 C 283.5100402832031 431.33038330078125 272.53875732421875 420.2927551269531 282.92071533203125 409.4173889160156 C 290.6252136230469 409.877685546875 268.3353271484375 413.31475830078125 277.339111328125 402.2516784667969 C 277.7176208496094 406.43377685546875 291.51080322265625 400.0984802246094 276.1300048828125 403.164794921875 C 303.5816650390625 383.4679870605469 277.1434631347656 415.78076171875 303.6477966308594 406.3661193847656" stroke-width="0.0" fill="rgb(132, 204, 49)" opacity="0.896453" stroke="rgb(72, 242, 116)" stroke-opacity="0.5884321" stroke-linecap="round" stroke-linejoin="round"/>
    <path d="M 87.69615173339844 102.01378631591797 C 93.45194244384766 102.87361907958984 91.01513671875 102.91801452636719 109.01526641845703 102.64376831054688 C 110.76544952392578 100.59564971923828 104.24254608154297 101.18838500976562 102.8005142211914 100.97490692138672 C 111.0542221069336 101.40022277832031 95.70687866210938 100.41303253173828 86.76718139648438 101.38662719726562 C 85.5594482421875 137.0342559814453 88.93230438232422 121.2306900024414 87.69615173339844 102.01378631591797" stroke-width="0.0" fill="rgb(73, 117, 24)" opacity="0.99377316" stroke="rgb(102, 124, 98)" stroke-opacity="0.4807276" stroke-linecap="round" stroke-linejoin="round"/>
    <path d="M 365.5453186035156 252.311767578125 C 362.6217346191406 250.48387145996094 365.992919921875 220.63897705078125 361.5983581542969 247.55577087402344 C 393.9533996582031 245.7502899169922 421.93634033203125 248.10809326171875 385.2285461425781 248.75184631347656 C 390.4039306640625 248.6847686767578 395.23876953125 248.33714294433594 364.84368896484375 248.47494506835938 C 363.7065734863281 251.46640014648438 367.4212951660156 253.5172576904297 365.5453186035156 252.311767578125" stroke-width="0.0" fill="rgb(230, 111, 23)" opacity="0.8317887" stroke="rgb(146, 68, 76)" stroke-opacity="0.10516024" stroke-linecap="round" stroke-linejoin="round"/>
    <path d="M 109.98536682128906 109.02554321289062 C 110.09014129638672 121.35013580322266 109.95634460449219 117.13895416259766 109.9705581665039 117.98841094970703 C 94.82935333251953 117.52149200439453 87.28092956542969 118.3707275390625 89.84608459472656 117.4649658203125 C 92.11766052246094 99.52030181884766 86.78038024902344 105.37554168701172 96.3969497680664 104.58587646484375 C 116.51318359375 105.08881378173828 107.50312042236328 102.59078216552734 109.98536682128906 109.02554321289062" stroke-width="0.0" fill="rgb(129, 193, 59)" opacity="0.95490414" stroke="rgb(73, 74, 153)" stroke-opacity="0.16563645" stroke-linecap="round" stroke-linejoin="round"/>
    <path d="M 414.2000427246094 233.66629028320312 C 405.5193176269531 222.4893798828125 407.52178955078125 226.69635009765625 414.89794921875 233.5098876953125 C 414.4248962402344 217.35269165039062 416.48193359375 197.14358520507812 413.326904296875 204.47756958007812 C 412.4134826660156 222.60118103027344 412.96417236328125 215.7484130859375 413.0139465332031 217.68040466308594 C 412.8182678222656 230.0546112060547 412.0844421386719 230.26699829101562 414.2000427246094 233.66629028320312" stroke-width="0.0" fill="rgb(233, 125, 33)" opacity="0.93908453" stroke="rgb(37, 141, 133)" stroke-opacity="0.13265517" stroke-linecap="round" stroke-linejoin="round"/>
    <path d="M 208.2625732421875 224.49281311035156 C 207.06826782226562 226.50900268554688 211.25558471679688 223.0490264892578 206.04209899902344 226.21292114257812 C 198.81446838378906 227.2698211669922 201.91575622558594 226.21466064453125 198.49795532226562 222.49160766601562 C 208.61026000976562 218.25723266601562 204.6260528564453 216.84725952148438 209.06689453125 222.787353515625 C 207.18655395507812 221.811767578125 211.36306762695312 222.39512634277344 208.2625732421875 224.49281311035156" stroke-width="0.0" fill="rgb(251, 179, 131)" opacity="1.0" stroke="rgb(169, 63, 76)" stroke-opacity="0.24958113" stroke-linecap="round" stroke-linejoin="round"/>
    <path d="M 192.74526977539062 148.8468017578125 C 193.1531982421875 161.6835174560547 179.45138549804688 153.2266845703125 202.32009887695312 158.21435546875 C 175.62060546875 152.1569366455078 178.3192596435547 161.3925323486328 176.69781494140625 149.3087158203125 C 186.02696228027344 153.38365173339844 181.6501007080078 151.51373291015625 186.82887268066406 141.81149291992188 C 190.425537109375 141.12974548339844 203.25987243652344 147.13565063476562 192.74526977539062 148.8468017578125" stroke-width="0.0" fill="rgb(255, 172, 121)" opacity="0.95796794" stroke="rgb(243, 177, 175)" stroke-opacity="0.8242546" stroke-linecap="round" stroke-linejoin="round"/>
    <path d="M 295.84661865234375 355.115966796875 C 290.33453369140625 368.4060974121094 290.08343505859375 372.5887145996094 285.15325927734375 360.4948425292969 C 272.0850830078125 368.51708984375 269.9226379394531 371.28350830078125 277.70550537109375 361.9700622558594 C 266.6020202636719 355.8979797363281 270.5745849609375 344.8332214355469 293.99212646484375 343.3280334472656 C 308.3983459472656 327.8580322265625 302.4693298339844 339.6205139160156 295.84661865234375 355.115966796875" stroke-width="0.0" fill="rgb(253, 231, 162)" opacity="0.9921044" stroke="rgb(195, 43, 69)" stroke-opacity="0.2380697" stroke-linecap="round" stroke-linejoin="round"/>
    <path d="M 300.01116943359375 177.59567260742188 C 289.7034606933594 181.8440399169922 276.3769226074219 180.88711547851562 271.165283203125 178.44142150878906 C 276.3274230957031 180.9141082763672 269.1710205078125 177.18771362304688 273.2650451660156 178.8372344970703 C 271.41729736328125 178.86964416503906 268.35125732421875 178.07504272460938 270.7667236328125 176.42405700683594 C 274.2550964355469 174.14840698242188 296.188720703125 172.2308349609375 300.01116943359375 177.59567260742188" stroke-width="0.0" fill="rgb(255, 226, 144)" opacity="1.0" stroke="rgb(111, 46, 168)" stroke-opacity="0.9310329" stroke-linecap="round" stroke-linejoin="round"/>
    <path d="M 289.6584167480469 356.1784362792969 C 295.4573059082031 361.9054870605469 287.39398193359375 383.5528259277344 278.8289794921875 379.38818359375 C 270.0022888183594 366.42498779296875 262.2778015136719 371.956298828125 270.3415222167969 356.84136962890625 C 276.91888427734375 351.9273681640625 263.4595947265625 343.9176330566406 284.708740234375 337.8341979980469 C 294.746337890625 347.3700256347656 285.3811950683594 349.88885498046875 289.6584167480469 356.1784362792969" stroke-width="0.0" fill="rgb(207, 211, 216)" opacity="0.9292509" stroke="rgb(153, 71, 150)" stroke-opacity="0.16010518" stroke-linecap="round" stroke-linejoin="round"/>
    <path d="M 270.3742370605469 386.7916564941406 C 272.94195556640625 390.5489196777344 256.8568115234375 391.9120178222656 264.44598388671875 392.3555603027344 C 262.9170227050781 391.5356750488281 255.1103973388672 396.2619323730469 253.7093048095703 382.7843933105469 C 257.4827575683594 391.98779296875 261.52374267578125 389.13018798828125 269.90216064453125 389.0673828125 C 258.49822998046875 389.5210266113281 256.6950378417969 390.77337646484375 270.3742370605469 386.7916564941406" stroke-width="0.0" fill="rgb(252, 190, 0)" opacity="0.9535061" stroke="rgb(131, 188, 178)" stroke-opacity="0.8341937" stroke-linecap="round" stroke-linejoin="round"/>
    <path d="M 77.10977935791016 96.93000030517578 C 83.56587982177734 100.3467025756836 49.35765075683594 97.44043731689453 52.358280181884766 99.05585479736328 C 52.1230583190918 95.65306091308594 40.76641845703125 97.73284149169922 79.26834106445312 96.83049774169922 C 64.86859130859375 94.82854461669922 60.61610794067383 77.41036987304688 59.88459777832031 88.04959106445312 C 68.51882934570312 86.38543701171875 55.19670867919922 83.906982421875 77.10977935791016 96.93000030517578" stroke-width="0.0" fill="rgb(79, 127, 25)" opacity="0.67053026" stroke="rgb(23, 83, 90)" stroke-opacity="0.53243613" stroke-linecap="round" stroke-linejoin="round"/>
    <path d="M 284.6544189453125 176.22181701660156 C 267.05120849609375 175.87049865722656 268.26190185546875 181.6151885986328 283.4704284667969 179.7117462158203 C 276.3373107910156 181.257568359375 265.3553466796875 178.0745391845703 271.64013671875 176.34873962402344 C 275.5702209472656 177.09750366210938 298.18060302734375 172.83096313476562 318.8079528808594 177.9600372314453 C 282.060791015625 187.6429443359375 287.5140380859375 159.4886932373047 284.6544189453125 176.22181701660156" stroke-width="0.0" fill="rgb(172, 206, 30)" opacity="0.3885633" stroke="rgb(85, 132, 63)" stroke-opacity="0.8222635" stroke-linecap="round" stroke-linejoin="round"/>
    <path d="M 116.36946868896484 131.67849731445312 C 111.0930404663086 136.3345184326172 108.39070892333984 137.40126037597656 107.79778289794922 146.40548706054688 C 107.86286163330078 145.62432861328125 105.6170883178711 133.43869018554688 106.03157043457031 131.12062072753906 C 92.9477310180664 134.8112030029297 89.64569091796875 130.9666748046875 97.17897033691406 118.42628479003906 C 147.55238342285156 121.67228698730469 166.20132446289062 117.87765502929688 116.36946868896484 131.67849731445312" stroke-width="0.0" fill="rgb(199, 235, 160)" opacity="0.9365847" stroke="rgb(88, 186, 236)" stroke-opacity="0.4831009" stroke-linecap="round" stroke-linejoin="round"/>
    <path d="M 25.174301147460938 111.58349609375 C 23.498449325561523 122.628662109375 -4.402128219604492 120.98108673095703 44.040470123291016 121.13430786132812 C 46.70103454589844 110.16912078857422 36.15597915649414 123.73271179199219 31.549951553344727 118.0041275024414 C 21.147886276245117 117.86540222167969 20.13101577758789 120.81184387207031 37.27326202392578 117.60655975341797 C 42.228641510009766 126.2884292602539 56.17618942260742 100.0920639038086 25.174301147460938 111.58349609375" stroke-width="0.0" fill="rgb(93, 152, 29)" opacity="0.8416332" stroke="rgb(135, 92, 66)" stroke-opacity="0.5794104" stroke-linecap="round" stroke-linejoin="round"/>
    <path d="M 206.51193237304688 155.2600555419922 C 202.1349639892578 163.76034545898438 205.45034790039062 160.9060821533203 199.41697692871094 161.64198303222656 C 199.3296661376953 161.4112091064453 181.97793579101562 161.65843200683594 180.4724884033203 161.51724243164062 C 175.97235107421875 153.96571350097656 192.93548583984375 161.95578002929688 192.7440185546875 149.223388671875 C 209.90179443359375 142.1534423828125 206.26901245117188 146.4018096923828 206.51193237304688 155.2600555419922" stroke-width="0.0" fill="rgb(110, 90, 184)" opacity="0.40904817" stroke="rgb(151, 199, 99)" stroke-opacity="0.00033892438" stroke-linecap="round" stroke-linejoin="round"/>
    <path d="M 98.8338623046875 131.25503540039062 C 99.50233459472656 158.0507354736328 99.49622344970703 153.19390869140625 92.56070709228516 144.7476043701172 C 68.55577850341797 146.94508361816406 47.398414611816406 118.62066650390625 91.15982818603516 135.0332794189453 C 106.74050903320312 113.76651000976562 61.31449508666992 121.85885620117188 106.34251403808594 119.6228256225586 C 109.2633285522461 172.94029235839844 94.36997985839844 117.86288452148438 98.8338623046875 131.25503540039062" stroke-width="0.0" fill="rgb(164, 222, 102)" opacity="1.0" stroke="rgb(248, 179, 191)" stroke-opacity="0.08184496" stroke-linecap="round" stroke-linejoin="round"/>
    <path d="M 284.26715087890625 336.0877380371094 C 292.13055419921875 348.4263000488281 292.9350280761719 351.58795166015625 281.0772705078125 355.3404235839844 C 276.608154296875 352.36871337890625 284.1164245605469 349.0955810546875 273.4074401855469 347.3247375488281 C 271.231201171875 339.67059326171875 280.0174255371094 342.6605224609375 279.8183288574219 332.8852233886719 C 284.70001220703125 325.32342529296875 279.66357421875 342.33941650390625 284.26715087890625 336.0877380371094" stroke-width="0.0" fill="rgb(213, 209, 222)" opacity="0.6118419" stroke="rgb(13, 97, 247)" stroke-opacity="0.18284218" stroke-linecap="round" stroke-linejoin="round"/>
    <path d="M 273.65521240234375 384.7352294921875 C 255.8692169189453 383.370361328125 269.6516418457031 385.83404541015625 262.0495910644531 386.0339660644531 C 257.584228515625 382.6190185546875 263.994140625 377.7236022949219 264.4405212402344 379.5411682128906 C 262.756103515625 378.2165222167969 260.6053466796875 375.93768310546875 265.8145446777344 380.4572448730469 C 267.879150390625 382.7114562988281 273.9892578125 381.9548034667969 273.65521240234375 384.7352294921875" stroke-width="0.0" fill="rgb(254, 195, 14)" opacity="0.9324618" stroke="rgb(198, 7, 32)" stroke-opacity="0.7238987" stroke-linecap="round" stroke-linejoin="round"/>
    <path d="M 19.581804275512695 117.50639343261719 C 14.490947723388672 117.62308502197266 18.935001373291016 101.56660461425781 17.852500915527344 121.96868896484375 C 34.251792907714844 130.6468048095703 7.993760108947754 125.86007690429688 12.576887130737305 116.66265106201172 C 36.149139404296875 119.72868347167969 43.74735641479492 115.8521957397461 42.966102600097656 120.30364227294922 C 16.560035705566406 119.55863189697266 20.420654296875 121.0467529296875 19.581804275512695 117.50639343261719" stroke-width="0.0" fill="rgb(255, 255, 255)" opacity="0.8758288" stroke="rgb(91, 236, 51)" stroke-opacity="0.17776522" stroke-linecap="round" stroke-linejoin="round"/>
    <path d="M 370.2273254394531 343.9127502441406 C 364.3706970214844 341.1455078125 359.5614318847656 351.2299499511719 368.156494140625 353.48553466796875 C 367.3704528808594 353.7923889160156 360.8301086425781 354.9186706542969 371.6404724121094 352.907958984375 C 369.7662048339844 352.2476501464844 362.78863525390625 347.2779541015625 366.1370544433594 349.759765625 C 364.9378662109375 344.7491760253906 371.04205322265625 346.8928527832031 370.2273254394531 343.9127502441406" stroke-width="0.0" fill="rgb(220, 32, 55)" opacity="0.9068406" stroke="rgb(22, 169, 238)" stroke-opacity="0.47144896" stroke-linecap="round" stroke-linejoin="round"/>
    <path d="M 288.91351318359375 368.881591796875 C 289.0184020996094 378.1372985839844 286.1675720214844 380.3424072265625 278.9294128417969 379.276123046875 C 269.8473205566406 388.6548767089844 274.5400695800781 383.59967041015625 284.32550048828125 373.830078125 C 279.9937438964844 371.6233215332031 282.82470703125 372.23333740234375 286.22906494140625 375.3218688964844 C 286.9659118652344 382.3763427734375 292.6763000488281 361.7878112792969 288.91351318359375 368.881591796875" stroke-width="0.0" fill="rgb(243, 191, 18)" opacity="0.9865994" stroke="rgb(49, 233, 140)" stroke-opacity="0.3080104" stroke-linecap="round" stroke-linejoin="round"/>
    <path d="M 41.475982666015625 107.31378936767578 C 42.721588134765625 103.52818298339844 38.506900787353516 102.04659271240234 43.39537811279297 103.30928039550781 C 42.69837951660156 103.58140563964844 43.14826583862305 99.22379302978516 42.938438415527344 119.12675476074219 C 44.20204162597656 118.91028594970703 45.52015686035156 117.86270904541016 50.629573822021484 115.71527099609375 C 39.223419189453125 119.82552337646484 42.61884689331055 124.50066375732422 41.475982666015625 107.31378936767578" stroke-width="0.0" fill="rgb(249, 248, 250)" opacity="0.9696897" stroke="rgb(163, 95, 22)" stroke-opacity="0.38338807" stroke-linecap="round" stroke-linejoin="round"/>
    <path d="M 22.39232635498047 148.34783935546875 C 23.423532485961914 141.90928649902344 23.634658813476562 154.11683654785156 21.941848754882812 142.4447784423828 C 17.46101188659668 128.2200164794922 19.289220809936523 132.35037231445312 15.746790885925293 131.6933135986328 C 16.398244857788086 134.28228759765625 15.56312370300293 124.00647735595703 16.398380279541016 120.87853240966797 C 30.745542526245117 122.09923553466797 19.826213836669922 115.5101547241211 22.39232635498047 148.34783935546875" stroke-width="0.0" fill="rgb(255, 255, 255)" opacity="0.6826052" stroke="rgb(250, 115, 157)" stroke-opacity="0.7294453" stroke-linecap="round" stroke-linejoin="round"/>
    <path d="M 98.56078338623047 102.03265380859375 C 92.20989227294922 101.6850357055664 83.21768188476562 100.96788024902344 113.23672485351562 100.96043395996094 C 111.20989227294922 107.26172637939453 121.1144790649414 101.01263427734375 88.33800506591797 102.92985534667969 C 82.17323303222656 98.86382293701172 104.27227020263672 103.54984283447266 96.55249786376953 101.39766693115234 C 100.2995376586914 102.7992172241211 95.63809967041016 100.99848175048828 98.56078338623047 102.03265380859375" stroke-width="0.0" fill="rgb(107, 145, 64)" opacity="0.9575348" stroke="rgb(186, 44, 4)" stroke-opacity="0.88535434" stroke-linecap="round" stroke-linejoin="round"/>
    <path d="M 112.76960754394531 62.0712890625 C 110.3340072631836 86.3897933959961 117.24681854248047 80.15099334716797 100.8802719116211 71.72694396972656 C 109.58526611328125 71.33304595947266 100.41236877441406 74.09329986572266 104.73169708251953 69.77241516113281 C 110.28892517089844 68.9949951171875 87.98844146728516 96.38257598876953 122.02626037597656 87.25299835205078 C 97.56417083740234 102.53555297851562 86.39239501953125 63.729984283447266 112.76960754394531 62.0712890625" stroke-width="0.0" fill="rgb(72, 118, 22)" opacity="0.98363054" stroke="rgb(217, 21, 142)" stroke-opacity="0.7428544" stroke-linecap="round" stroke-linejoin="round"/>
    <path d="M 243.33453369140625 86.17658996582031 C 248.6054229736328 89.27217102050781 233.93179321289062 87.4680404663086 197.7098388671875 88.0521011352539 C 199.40771484375 90.84690856933594 197.44900512695312 73.03922271728516 199.05694580078125 42.947261810302734 C 204.22381591796875 100.95603942871094 188.94918823242188 82.47434997558594 221.37576293945312 87.307373046875 C 204.35870361328125 85.58265686035156 223.98095703125 86.79728698730469 243.33453369140625 86.17658996582031" stroke-width="0.0" fill="rgb(77, 122, 26)" opacity="0.9425337" stroke="rgb(122, 26, 214)" stroke-opacity="0.028598253" stroke-linecap="round" stroke-linejoin="round"/>
    <path d="M 326.2133483886719 403.306884765625 C 320.7500305175781 434.08526611328125 300.8924255371094 437.7994079589844 292.0462646484375 441.0108947753906 C 274.6725769042969 443.156005859375 267.53997802734375 436.6185302734375 266.4498596191406 422.6709289550781 C 273.7348937988281 420.4816589355469 269.0162658691406 431.8604736328125 300.8454284667969 416.48291015625 C 316.1203918457031 386.65435791015625 322.2464904785156 389.3776550292969 326.2133483886719 403.306884765625" stroke-width="0.0" fill="rgb(55, 187, 172)" opacity="1.0" stroke="rgb(226, 207, 158)" stroke-opacity="0.20157379" stroke-linecap="round" stroke-linejoin="round"/>
    <path d="M 113.98219299316406 68.80460357666016 C 109.3326644897461 59.49079132080078 111.37361907958984 72.17535400390625 110.82176971435547 76.6482162475586 C 102.91071319580078 70.73604583740234 106.44387817382812 69.58518981933594 102.83454895019531 85.83047485351562 C 92.15873718261719 72.801513671875 106.45142364501953 60.0444221496582 115.06279754638672 64.75192260742188 C 105.00140380859375 59.82570266723633 118.65985107421875 65.14881134033203 113.98219299316406 68.80460357666016" stroke-width="0.0" fill="rgb(245, 246, 247)" opacity="0.9933623" stroke="rgb(30, 87, 64)" stroke-opacity="0.09245618" stroke-linecap="round" stroke-linejoin="round"/>
  </g>
</svg>
