<?xml version="1.0" ?>
<svg xmlns="http://www.w3.org/2000/svg" version="1.1" width="512" height="341">
  <defs/>
  <g>
    <path d="M 317.4620666503906 94.5782470703125 C 311.82464599609375 166.31719970703125 308.6442565917969 170.11793518066406 263.5851745605469 174.4452362060547 C 235.7665252685547 157.56883239746094 247.04180908203125 139.1005096435547 227.7717742919922 104.22215270996094 C 210.81637573242188 81.98507690429688 211.83840942382812 74.0838394165039 224.5220184326172 63.646705627441406 C 305.3335266113281 65.48095703125 308.937255859375 68.54634094238281 317.4620666503906 94.5782470703125" stroke-width="0.0" fill="rgb(70, 152, 131)" opacity="0.05078935" stroke="rgb(25, 15, 155)" stroke-opacity="0.45297226" stroke-linecap="round" stroke-linejoin="round"/>
    <path d="M 473.0 180.0 C 472.33013916015625 182.5 470.5 184.3301239013672 468.0 185.0 C 465.5 184.3301239013672 463.66986083984375 182.5 463.0 180.0 C 463.66986083984375 177.5 465.5 175.6698760986328 468.0 175.0 C 470.5 175.6698760986328 472.33013916015625 177.5 473.0 180.0" stroke-width="0.0" fill="rgb(186, 211, 186)" opacity="1.0" stroke="rgb(72, 163, 237)" stroke-opacity="0.6167224" stroke-linecap="round" stroke-linejoin="round"/>
    <path d="M 407.0 251.0 C 406.33013916015625 253.5 404.5 255.3301239013672 402.0 256.0 C 399.5 255.3301239013672 397.66986083984375 253.5 397.0 251.0 C 397.66986083984375 248.5 399.5 246.6698760986328 402.0 246.0 C 404.5 246.6698760986328 406.33013916015625 248.5 407.0 251.0" stroke-width="0.0" fill="rgb(249, 230, 193)" opacity="1.0" stroke="rgb(101, 81, 91)" stroke-opacity="0.15326877" stroke-linecap="round" stroke-linejoin="round"/>
  </g>
</svg>
