<?xml version="1.0" encoding="UTF-8"?>
<svg id="_图层_1" data-name="图层 1" xmlns="http://www.w3.org/2000/svg" viewBox="0 0 591.13 560.62">
  <defs>
    <style>
      .cls-1 {
        opacity: .82;
      }

      .cls-1, .cls-2, .cls-3, .cls-4, .cls-5, .cls-6, .cls-7, .cls-8, .cls-9, .cls-10, .cls-11, .cls-12, .cls-13, .cls-14, .cls-15, .cls-16, .cls-17, .cls-18, .cls-19, .cls-20, .cls-21, .cls-22, .cls-23, .cls-24, .cls-25, .cls-26, .cls-27, .cls-28, .cls-29, .cls-30, .cls-31, .cls-32, .cls-33, .cls-34, .cls-35, .cls-36, .cls-37, .cls-38, .cls-39, .cls-40, .cls-41, .cls-42, .cls-43, .cls-44, .cls-45, .cls-46, .cls-47, .cls-48, .cls-49, .cls-50, .cls-51, .cls-52, .cls-53, .cls-54, .cls-55, .cls-56, .cls-57, .cls-58, .cls-59, .cls-60, .cls-61, .cls-62, .cls-63, .cls-64, .cls-65, .cls-66, .cls-67, .cls-68, .cls-69, .cls-70, .cls-71, .cls-72, .cls-73, .cls-74, .cls-75, .cls-76, .cls-77, .cls-78, .cls-79, .cls-80, .cls-81, .cls-82, .cls-83, .cls-84, .cls-85, .cls-86, .cls-87, .cls-88, .cls-89, .cls-90, .cls-91, .cls-92, .cls-93, .cls-94, .cls-95, .cls-96, .cls-97, .cls-98, .cls-99, .cls-100, .cls-101, .cls-102, .cls-103, .cls-104, .cls-105, .cls-106, .cls-107, .cls-108, .cls-109, .cls-110, .cls-111, .cls-112, .cls-113, .cls-114, .cls-115, .cls-116, .cls-117, .cls-118, .cls-119, .cls-120, .cls-121, .cls-122, .cls-123, .cls-124, .cls-125, .cls-126, .cls-127, .cls-128, .cls-129, .cls-130, .cls-131, .cls-132, .cls-133, .cls-134, .cls-135, .cls-136, .cls-137, .cls-138, .cls-139, .cls-140, .cls-141, .cls-142, .cls-143, .cls-144, .cls-145, .cls-146, .cls-147, .cls-148, .cls-149, .cls-150, .cls-151, .cls-152, .cls-153, .cls-154, .cls-155, .cls-156, .cls-157, .cls-158, .cls-159 {
        fill: none;
        stroke: #000;
        stroke-miterlimit: 10;
      }

      .cls-1, .cls-2, .cls-3, .cls-4, .cls-5, .cls-6, .cls-8, .cls-9, .cls-10, .cls-11, .cls-12, .cls-13, .cls-14, .cls-15, .cls-16, .cls-17, .cls-18, .cls-19, .cls-20, .cls-21, .cls-22, .cls-23, .cls-24, .cls-25, .cls-26, .cls-27, .cls-28, .cls-29, .cls-30, .cls-31, .cls-32, .cls-33, .cls-34, .cls-35, .cls-36, .cls-37, .cls-38, .cls-39, .cls-40, .cls-41, .cls-42, .cls-43, .cls-44, .cls-45, .cls-46, .cls-47, .cls-48, .cls-49, .cls-50, .cls-51, .cls-52, .cls-53, .cls-54, .cls-55, .cls-56, .cls-57, .cls-58, .cls-59, .cls-60, .cls-61, .cls-62, .cls-63, .cls-64, .cls-65, .cls-66, .cls-67, .cls-68, .cls-69, .cls-70, .cls-71, .cls-72, .cls-73, .cls-74, .cls-75, .cls-76, .cls-77, .cls-78, .cls-79, .cls-80, .cls-81, .cls-82, .cls-83, .cls-84, .cls-85, .cls-86, .cls-87, .cls-88, .cls-89, .cls-90, .cls-91, .cls-92, .cls-93, .cls-94, .cls-95, .cls-96, .cls-97, .cls-98, .cls-99, .cls-100, .cls-101, .cls-102, .cls-103, .cls-104, .cls-105, .cls-106, .cls-107, .cls-108, .cls-109, .cls-110, .cls-111, .cls-112, .cls-113, .cls-114, .cls-115, .cls-116, .cls-117, .cls-118, .cls-119, .cls-120, .cls-121, .cls-122, .cls-123, .cls-124, .cls-125, .cls-126, .cls-127, .cls-128, .cls-129, .cls-130, .cls-131, .cls-132, .cls-133, .cls-134, .cls-135, .cls-136, .cls-137, .cls-138, .cls-139, .cls-140, .cls-141, .cls-142, .cls-143, .cls-144, .cls-145, .cls-146, .cls-147, .cls-148, .cls-149, .cls-150, .cls-151, .cls-152, .cls-153, .cls-154, .cls-155, .cls-156, .cls-157, .cls-158, .cls-159 {
        isolation: isolate;
      }

      .cls-2 {
        opacity: .82;
      }

      .cls-3 {
        opacity: .71;
      }

      .cls-4 {
        opacity: .91;
      }

      .cls-5 {
        opacity: .89;
      }

      .cls-6 {
        opacity: .49;
      }

      .cls-8 {
        opacity: .28;
      }

      .cls-9 {
        opacity: .82;
      }

      .cls-10 {
        opacity: .59;
      }

      .cls-11 {
        opacity: 1;
      }

      .cls-12 {
        opacity: .37;
      }

      .cls-13 {
        opacity: .41;
      }

      .cls-14 {
        opacity: .1;
      }

      .cls-15 {
        opacity: .51;
      }

      .cls-16 {
        opacity: .52;
      }

      .cls-17 {
        opacity: .03;
      }

      .cls-18 {
        opacity: .27;
      }

      .cls-19 {
        opacity: .12;
      }

      .cls-20 {
        opacity: .06;
      }

      .cls-21 {
        opacity: .95;
      }

      .cls-22 {
        opacity: .76;
      }

      .cls-23 {
        opacity: .24;
      }

      .cls-24 {
        opacity: .03;
      }

      .cls-25 {
        opacity: .54;
      }

      .cls-26 {
        opacity: .42;
      }

      .cls-27 {
        opacity: .46;
      }

      .cls-28 {
        opacity: .74;
      }

      .cls-29 {
        opacity: .03;
      }

      .cls-30 {
        opacity: .98;
      }

      .cls-31 {
        opacity: .89;
      }

      .cls-32 {
        opacity: .2;
      }

      .cls-33 {
        opacity: .73;
      }

      .cls-34 {
        opacity: .74;
      }

      .cls-35 {
        opacity: .84;
      }

      .cls-36 {
        opacity: .33;
      }

      .cls-37 {
        opacity: .68;
      }

      .cls-38 {
        opacity: .34;
      }

      .cls-39 {
        opacity: .48;
      }

      .cls-40 {
        opacity: .74;
      }

      .cls-41 {
        opacity: .27;
      }

      .cls-42 {
        opacity: .17;
      }

      .cls-43 {
        opacity: .06;
      }

      .cls-44 {
        opacity: .33;
      }

      .cls-45 {
        opacity: .83;
      }

      .cls-46 {
        opacity: .13;
      }

      .cls-47 {
        opacity: .11;
      }

      .cls-48 {
        opacity: .41;
      }

      .cls-49 {
        opacity: .57;
      }

      .cls-50 {
        opacity: .42;
      }

      .cls-51 {
        opacity: .12;
      }

      .cls-52 {
        opacity: .42;
      }

      .cls-53 {
        opacity: .28;
      }

      .cls-54 {
        opacity: .55;
      }

      .cls-55 {
        opacity: .74;
      }

      .cls-56 {
        opacity: .74;
      }

      .cls-57 {
        opacity: .89;
      }

      .cls-58 {
        opacity: .91;
      }

      .cls-59 {
        opacity: .45;
      }

      .cls-60 {
        opacity: .45;
      }

      .cls-61 {
        opacity: .54;
      }

      .cls-62 {
        opacity: .65;
      }

      .cls-63 {
        opacity: .33;
      }

      .cls-64 {
        opacity: .39;
      }

      .cls-65 {
        opacity: .35;
      }

      .cls-66 {
        opacity: .82;
      }

      .cls-67 {
        opacity: .34;
      }

      .cls-68 {
        opacity: .32;
      }

      .cls-69 {
        opacity: .3;
      }

      .cls-70 {
        opacity: .87;
      }

      .cls-71 {
        opacity: .54;
      }

      .cls-72 {
        opacity: .35;
      }

      .cls-73 {
        opacity: .52;
      }

      .cls-74 {
        opacity: .28;
      }

      .cls-75 {
        opacity: .68;
      }

      .cls-76 {
        opacity: 1;
      }

      .cls-77 {
        opacity: .03;
      }

      .cls-78 {
        opacity: .33;
      }

      .cls-79 {
        opacity: .72;
      }

      .cls-80 {
        opacity: .34;
      }

      .cls-81 {
        opacity: .68;
      }

      .cls-82 {
        opacity: .63;
      }

      .cls-83 {
        opacity: .91;
      }

      .cls-84 {
        opacity: .62;
      }

      .cls-85 {
        opacity: .35;
      }

      .cls-86 {
        opacity: .31;
      }

      .cls-87 {
        opacity: .4;
      }

      .cls-88 {
        opacity: .29;
      }

      .cls-89 {
        opacity: 1;
      }

      .cls-90 {
        opacity: .34;
      }

      .cls-91 {
        opacity: .19;
      }

      .cls-92 {
        opacity: .86;
      }

      .cls-93 {
        opacity: .58;
      }

      .cls-94 {
        opacity: .66;
      }

      .cls-95 {
        opacity: .19;
      }

      .cls-96 {
        opacity: .12;
      }

      .cls-97 {
        opacity: .33;
      }

      .cls-98 {
        opacity: .3;
      }

      .cls-99 {
        opacity: .35;
      }

      .cls-100 {
        opacity: .23;
      }

      .cls-101 {
        opacity: .85;
      }

      .cls-102 {
        opacity: .55;
      }

      .cls-103 {
        opacity: .52;
      }

      .cls-104 {
        opacity: .69;
      }

      .cls-105 {
        opacity: .4;
      }

      .cls-106 {
        opacity: .55;
      }

      .cls-107 {
        opacity: .44;
      }

      .cls-108 {
        opacity: .81;
      }

      .cls-109 {
        opacity: .42;
      }

      .cls-110 {
        opacity: .81;
      }

      .cls-111 {
        opacity: .32;
      }

      .cls-112 {
        opacity: .62;
      }

      .cls-113 {
        opacity: .87;
      }

      .cls-114 {
        opacity: .84;
      }

      .cls-115 {
        opacity: .76;
      }

      .cls-116 {
        opacity: .41;
      }

      .cls-117 {
        opacity: .33;
      }

      .cls-118 {
        opacity: .52;
      }

      .cls-119 {
        opacity: .9;
      }

      .cls-120 {
        opacity: .54;
      }

      .cls-121 {
        opacity: .34;
      }

      .cls-122 {
        opacity: .32;
      }

      .cls-123 {
        opacity: .17;
      }

      .cls-124 {
        opacity: .18;
      }

      .cls-125 {
        opacity: .97;
      }

      .cls-126 {
        opacity: .46;
      }

      .cls-127 {
        opacity: .59;
      }

      .cls-128 {
        opacity: .64;
      }

      .cls-129 {
        opacity: .72;
      }

      .cls-130 {
        opacity: .76;
      }

      .cls-131 {
        opacity: .32;
      }

      .cls-132 {
        opacity: .89;
      }

      .cls-133 {
        opacity: .64;
      }

      .cls-134 {
        opacity: .95;
      }

      .cls-135 {
        opacity: .53;
      }

      .cls-136 {
        opacity: .69;
      }

      .cls-137 {
        opacity: .92;
      }

      .cls-138 {
        opacity: .16;
      }

      .cls-139 {
        opacity: .28;
      }

      .cls-140 {
        opacity: .46;
      }

      .cls-141 {
        opacity: .68;
      }

      .cls-142 {
        opacity: .34;
      }

      .cls-143 {
        opacity: .08;
      }

      .cls-144 {
        opacity: .32;
      }

      .cls-145 {
        opacity: .54;
      }

      .cls-146 {
        opacity: .6;
      }

      .cls-147 {
        opacity: 0;
      }

      .cls-148 {
        opacity: .63;
      }

      .cls-149 {
        opacity: .44;
      }

      .cls-150 {
        opacity: .79;
      }

      .cls-151 {
        opacity: .56;
      }

      .cls-152 {
        opacity: .05;
      }

      .cls-153 {
        opacity: .85;
      }

      .cls-154 {
        opacity: .81;
      }

      .cls-155 {
        opacity: .69;
      }

      .cls-156 {
        opacity: .69;
      }

      .cls-157 {
        opacity: .84;
      }

      .cls-158 {
        opacity: .31;
      }

      .cls-159 {
        opacity: .03;
      }
    </style>
  </defs>
  <path class="cls-79" d="M20.6.5c1,0,522,10,523,10s-1,509,0,509c0,1-513,0-513,1,0-1,0,0-10-520h0"/>
  <path class="cls-7" d="M524.78,235.02c-.62,1.06-.12-.42,1.22-.61.71.15.3-.03.71.08-.78-.1-.24,0-.57-.05-1.22-.06-1.67,1.02-1.92,1.4l.56-.83"/>
  <path class="cls-68" d="M400.16,52.31c-22.22,19.68,22.47,37.82-17.36,14.82-20.75,20.07-27.42,10.83-28.25,9.68,3.85-41.59,4.16-45.57,4.95-54.11,4.61,10.24,27.89,18.57,50.08,27.07l-9.42,2.54"/>
  <path class="cls-39" d="M226.75,364.42c21.04-21.12-14.9-37.17-17.89-15.76-57.75-52.02,3.22,68.63-44.64,47.14-4.02-136.47-.61-141.14,40.46-116.82,44.34-42.68-28.49,72.3,30.3,33.82l-8.25,51.62"/>
  <path class="cls-121" d="M78.78,303.75c-40.15-19.52-36.39-14.74-31.93-15.71-13.59.89-7.38-10.81-9.71-34.31,1.25,14.44-.24,8.97,1.2-62.55,83.04,31.32,26.29,4.96,38.98,25.26l1.47,87.3"/>
  <path class="cls-85" d="M354.86,75.69c7.02-1.36-14.67,5.56-32.8-4.41-6.05-4.89-4.56-.1-9.36-9.73-16.3-12.16-23.74-18.65-35.88-44.47,102.96-.15,83.42.1,83.22-.53l-5.17,59.14"/>
  <path class="cls-86" d="M281.84,195.49c-3.33,8.41-15.37,3.79-25.83,7.73,7.8-3.2,6.64,2.39,6.36-11.48,7.65-54.5-5.8,3.85-52.41-28.9,109.58-.25,98.17-1.72,72.21,9.16l-.34,23.48"/>
  <path class="cls-152" d="M68.16,283.27c-6.47-10.28-10.35,6.44-17.03,5.67-18.2.85-13.04-1.08-13.25-18.15.07-61.74,3.69-77.84,15.62-9.13-5.03,32.34,6.43,35.65,2.28,4.55l12.37,17.06"/>
  <path class="cls-46" d="M64.12,305.05c-2.74-.16-3.4-.3-2.44-.12-3.42-.59-7.12.32-14.25-.49,7.01-1.11,10.21,4.14,5.55-5.44,3.28,4.15,1.69,8.68,2.46,5.32l8.67.73"/>
  <path class="cls-48" d="M413.38,509.04c125.55.19,77.34-1.9,43.68,3.1-93.13,1.55-97.51-4.61-60.54-3.04,27.5-.41,28.82.8,48,1.12-20.21.31-23.87-3.77-20.32-1.77l-10.83.58"/>
  <path class="cls-19" d="M443.96,101.44c-.19-.55-.51,1.18.67-2.07-.31.98.22-.43-.25.59-1.78,4.69-.56,1.76-.56,1.32-.06.15.53.47-1.79-1.71l1.93,1.88"/>
  <path class="cls-144" d="M67.75,208.03c29.89,4.4-33.35-19.44-28.98-15.87.5,50.71-.28,52.21-.32,36.92-.84-31.16-.4-34.35-.78-102.77,54.95-22.32,42.72,42.38,28.04,50.45l2.04,31.26"/>
  <path class="cls-89" d="M445.81,246.8c45.79-1.97,40.69,33.74-89.41,9.14,161.72,35.67,26.95,38.79,33.88,25.05,35.73-57.81,6.46-24.92,36.9-35.45.17,10.57,6.42,4.49,12.71,21.18l5.92-19.92"/>
  <path class="cls-158" d="M456.79,144.55c-.18,90.24,5.61,76.39-13.62,57.65-18.68-37.35,42.83-23.75-139.3-26.32,86.59-81.34,38.01-61.49,150.98-60.29,12.57,23.19-.78-4.36,2.66,44.77l-.72-15.82"/>
  <path class="cls-59" d="M326.23,444.9c.48-2-8.42-.56-5.36-1.15-28.63.53-46.23.18-66.56.58-15.81-26.38,85.78-1.44,59.14-22.45,14.43,7.14-3.66,9.93,12.3-20.64l.47,43.66"/>
  <path class="cls-55" d="M234.27,393.84c-3.02,24.26-11.93-54.77-26.91,2.43-32,7.9,26.53-26.45-41.67-18.52,5.38-26.54,39.22,19.87,27.21-52.55,42.65,59.66-66.13,39.47,41.14,43.3l.22,25.33"/>
  <path class="cls-94" d="M126.45,445.33c8.66,53.34,1.11,32.69-.21,19.82-47.7-13.3-25.37,41.61-27.25-20.76-7.25-21.83-14.83-73.44,2.58,3.17,6.77-16.71-9.88-42.31,1.98-2.44l22.9.21"/>
  <path class="cls-41" d="M244.18,63.28c1.32-3.92,9.34.43-37.55,5.81-9.68.16-2.77,18.95-5.32,9.13,1.43-77.58-4.28-57.66,7.66-61.27,20.87,15.78,22.33,19.82,37.87,19.69l-2.66,26.64"/>
  <path class="cls-25" d="M534.64,372.89c-1.05,31.87.63,48.85-2.46,41.48-68.62-12.99-17.18-12.05-53.29-46.08-4.6-25.11,9.41-23.42-24.39-28.88,76.49,2.36,38.6,22.93,79.36-1.77l.77,35.25"/>
  <path class="cls-57" d="M80.42,209.23c-3.29-10.49,1.12,112.02-4.13,143.04-.92-123.04-.64-137.17,1.39-117.9-5.65-41.58,2.78-19.3-10.78-28.24,24.32-.3,14.85-.69,18.97,1.23l-5.45,1.88"/>
  <path class="cls-97" d="M313.21,424.65c-60.91,1-58.98.19,8.66,3.42-38.57,5.85-68.84-6.67-67.98,17.93-2.8-135.57-6.97-133.17,3.23-47.67,75.55-5.38,53.6-.93,55.51-2.15l.59,28.47"/>
  <path class="cls-140" d="M138.68,409.9c-6.37-115.98,13.09-99.54-23.88-106.57,7.73.92-3.87,2.03,10.96-5.35-23.98,11.89,12.36.13,12.41,15.96-.91-47.76-1.84-79.17,11.13-23.17l-10.63,119.13"/>
  <path class="cls-155" d="M457.38,298c-33.13.63-18.55-2.34-21.85,8.72-36.04-8.69-41.21,15.94-41.27-37.41,5.24-17.67-2.14-36.81-54.39-2.77,101.73-21.94,124.15-9.34,117.33-3.17l.18,34.63"/>
  <path class="cls-69" d="M491.25,58.3c-6.17,14.28-2.21,9.27-31.31,13.1.32-21.48,2.07-17.77-5.95-11.25.85-44.17,1.82-44.16-.36-42.55,9.49-2.57,6.43.54,8.28,33.58l29.34,7.12"/>
  <path class="cls-98" d="M438.22,79.91c-.88,21.71,3.94,23.03-1.19,23.28-35.37.44-43.07-.28-60.6.22-2.56-68.11,16.95-16.04,37.56-24.63,13.85-8.32,14.07-5.37,4.45-3.68l19.79,4.81"/>
  <path class="cls-153" d="M474.76,220.98c3.82,20.01-14.41,8.63,20.24,42-49.86,50.19-48.41-34.33-51.47-38.53,8,52.78,15.96,75.79,11.48-55.63-.76-59.79,8.36-91.01,6.84,32.19l12.91,19.96"/>
  <path class="cls-3" d="M264.58,351.56c61.15-7.24-16.85,13.43-12.19,112.94,5.98-113.23-8.54-160.11,5.31-70.76-9.98,25.46-6.04-12.01-6.74-96.59,13.03-10.42-6.51,34.16,17.31-18.53l-3.68,72.95"/>
  <path class="cls-26" d="M258.13,443.33c-20.93,3.21,6.61,8.81-16.55,21.14-48.41,56.2,17.69-26.11-29.48-10.95-20.01-44.06,2.54-9.07,1.84-51.47,52.39-2.39,43.87,11.65,40.62-35.63l3.57,76.91"/>
  <path class="cls-7" d="M408.94,310.74c34.4,17.74,23.03-75.28,27.17,3.34-40.79.42-71.26.22-73.53.05,19.37-27.73,25.11,29.61,48.99-30.94-60.34,1.36-5.32-8.66-9.15,18.33l6.52,9.22"/>
  <path class="cls-111" d="M142.78,175.63c-22.16,39.89-17.76,74.26-18.74-2.7-7.85.48-5.72-.75-2.12-.15,9.72-8.61,3.57-2.54,6.72-.1,32.28-12.82-.41-1.65,11.55-47.3l2.59,50.24"/>
  <path class="cls-63" d="M281.21,258.88c.25,8.92-2.85-21.24,27.9,10.4-129.89.89-84.56-20.74-46.1-15.56-.16-59.45,2.27-51.9-4.14-51.95,16.94-1.24,18.34.48,22.56-4.76l-.22,61.87"/>
  <path class="cls-7" d="M182.19,324.14c-22.9-58.83-33.38-49.45-27.2-2.21-23.96,2.22-7.4-40.08-16.85-71.2,1.4,218.76-3.41-64.64,5.39,17.48,58.61,10.55-34.46-42.07,39.98-12.7l-1.33,68.63"/>
  <path class="cls-10" d="M452.87,398.94c-17.32.39-7.71,1.53-10.8-19.07-3.03,17.55-10.47-54.05-1.79,19.09-7.24-33.72-8.06-95.03-3.31-78-.06,72.03.59,75.76,16,35.95l-.1,42.03"/>
  <path class="cls-132" d="M107.71,74.29c12.5,44.54-13.05,1.06,46.5,65.73-143.91-7.12-110.73.84-116.46-5.7.62-80.67-2.03-69.43,4.2-67.67,49.61,15.11,39.61,7.72,38.63,12.42l27.12-4.78"/>
  <path class="cls-76" d="M577.8,61.17c-10.19-47.81-66.96-77.72-77.96-44.22,51.08-11.29,29.88,130.69,35.34,232.86-6.25-4.86-89.87-43.24-8.27,67.25,128.91-51.82,23.55-146.99,16.37-150.5l34.52-105.4"/>
  <path class="cls-72" d="M156.02,446.67c22.67,37.61,13.49,37.33.27.49-50.94,77.89,9-5.37-30.68,19.9.11-74.32-72.7-64.54,86.38-65.24,25.4,14.89-223.92,15.39-40.37,20.71l-15.6,24.14"/>
  <path class="cls-114" d="M246.29,178.89c-42.68-21.5-32.75-1.35-34.41-4.08-1.3,2.76,10.45.46-17.73,1.38,3.64-11.65-16.15-.86-20.37-8.61,57.62-1.94,37.92.42,72.76-.68l-.25,12"/>
  <path class="cls-34" d="M460.51,156.41c1.3-35.67-3.84-34.34-.45-15.72-.61-15.93-8.43-6.09,16.25-14.26-2.58-17.02-153.51,5.16-80.03-17.99,72.82,2.47,72.21-5.01,64.82,16.55l-.59,31.42"/>
  <path class="cls-136" d="M533.67,331.4c-6.11,38.85-8.29,37.16.18,66.16-8.75-42.02,8.63-60.95-19.6-46.02-15.06-22.96,28.41-2.63,17.92-23.28-22.13,8.35-54.62-2.01-2.36-7.39l3.86,10.53"/>
  <path class="cls-157" d="M83.23,430.95c-7.47-25.63-8.27-9.07-2.61,12.76-10.06-41.54-3.11-73.07-7.66-31.37,3.79,18.11-2.17-20.71,2.17-17.21,2.6-110.62,4.54-101.99,3.77-17.23l4.33,53.05"/>
  <path class="cls-28" d="M314.19,377.01c-.08,7.32,4.32,4.4-23.15,5.12,3.07-4.52-16.68,2.73-25.73-1.45-.31-88.55-1.97-64.34,13.37-52.29,42.1,20.73-77.74,23.93,35.45,22.37l.06,26.25"/>
  <path class="cls-18" d="M123.26,333.88c-1.99,13.9-34.54-33.53-5.61,12.31-8.6-23.36-42.26-39.82-36.7-41.64-1.77,2.23-2.78,16.26-1.47-99.36,58.69-110.22,39.04-24.1,45.58,14.11l-1.79,114.59"/>
  <path class="cls-7" d="M376.25,108.58c79.35-2.06,178.58,8.63-33.77,6.14-29.16-26.01-17.39,45.3-22.47-6.1,16.63-1.94,15.32-24.7,18.91-31.82,32.09,4.24,44.65-4.84,38.29-5.41l-.96,37.19"/>
  <path class="cls-7" d="M298.75,395.27c-42.71-3.03-47.44-.28,8.35,2.04-57.32,4.55-28.64-15.52-41.84,38.68.09-65.65-4.66-35.58,18.23-46.31,58.99-2.92,6.95,5.02,18.09-4.81l-2.84,10.4"/>
  <path class="cls-125" d="M291.52,314.88c29.51,7.02,21.04-16.46,22.73,33.09-28.74.64-21.73.12-23.31-.55-.64-75.29,2.39,11.61.12-66.7,37.85.66,19.29-2.27,35.93,11.74l-35.48,22.43"/>
  <path class="cls-6" d="M422.55,463.36c-58.57-.09-49.37.34-50.94-1.85,5.14,18.86.15,28.41-2.73-.09-8.31-15.2-57.89-16.53,2.61-15.85-1.59-36.35-15.76-18.88,56.15-24.61l-5.09,42.4"/>
  <path class="cls-17" d="M208.72,488.13c.86.98-.07,2.15-.61,2.02-.1-.45-1.39-1-1.16-1.44-.44-.12.06-1.71,2.03-1.54-1.12.45.02.73-1.23,2.3l.98-1.34"/>
  <path class="cls-135" d="M288.06,61.24c-9.9,3.27-16.82,3.99-24.84,3.89-20.21-1.89-16.86-2.37-21.31-8.43-.43-20.14-3.03-13.57,17.65-23.38,23.46-8.48,19.1-13.68,21.65-5.25l6.85,33.17"/>
  <path class="cls-60" d="M441.48,365.42c-133.04,5.56-111.73-11.22-1.67,31.83-110.63.38-97.1-1.57-97.15,9.39-5.27-119.39,12.18-93.11,13.59-65.49-31.84,11.07,77.61-7.85,44.65,20.34l40.59,3.92"/>
  <path class="cls-51" d="M116.58,335.04c1.21.68.92.83-1.37-1.16,2.42,1.92.92.88,1.96,1.53,1.19.7,1.55.92,3.49,1.73-2.96-1.18-1.39-.68-1.97-.86l-2.12-1.24"/>
  <path class="cls-129" d="M436.13,314.63c-25.56,3.44,24.39-32-49.23-29.77-25.19,1.77,4.12,61.3-23.2-14.69,138.68-3.74,9.15,4.2,9.99-24.88,17.26,19.88,76.03-2.81,62.47,17.93l-.03,51.41"/>
  <path class="cls-7" d="M533.71,251.72c-29.71.19-27.1-.38-36.93.16-14.99-3.93,6.57,28.07-8.32,21.79-21.94-46.24-20.53-42.33-4.86-9.7,17.29-18.69-27.95-16.5,49.37-16.61l.73,4.36"/>
  <path class="cls-42" d="M143.69,16.43c-19.11,2.61-28.8-9.7-34.04,44.08,73.89,11.36,46.76-40.62,129.82-43.06-75.61-2-89.1.54-72.73-1.12-9.14,1.64-19.47-.37-38.45,1.89l15.4-1.78"/>
  <path class="cls-61" d="M506.43,284.21c-39.54,2.64-25.42-8.54-39.31,8.82-38.96,44.8-21.66,51.32-24.69,7.71-24.69-72.21,14.07-19.6-.7-81.63,19.8,75.52,59.32,19.71,52.03,51.25l12.67,13.85"/>
  <path class="cls-113" d="M534.76,417.02c-23.53-2.86-3.66-1.32,8.71,2.2-101.07-25.69-73.89-36.19-86.2,46.38-3.27-157.5-3.07-105.39,14.51-117.7,41.45,3.28,9.51,3.02,63.06-2.49l-.07,71.61"/>
  <path class="cls-7" d="M528.01,290.74c.27,3.17-8.36,5.38-4.66,17.23,1.71-20.89,1.11-21.34,3.41-23.5-1.11,5.41-.85,8.71-15.65,1.35,5.35,5.64,13.02,10.7,17.64,6.36l-.74-1.44"/>
  <path class="cls-82" d="M31.88,380.21c70.08,174.86,59.01,42.57,92.74,79.13,16.99,50.35-57.86-21.13,297.15,39.51-321.14,4.23-290.96-5.12-244.57,7.29-48.18-13.22-40.72-1.94-176.55-7.28l31.24-118.65"/>
  <path class="cls-80" d="M373.45,480.08c-10.71-21.26,10.51-16.58-36.93-16.64-14.17-10.91-5.6,2.76-7.59-58.5-12.54-13.05-12.87,69.68-13.85.81,28.72-5.7,29.53-3.26,52.93-4.31l5.45,78.63"/>
  <path class="cls-73" d="M81.59,350.54c-3.6.9-3.09-19.77-2.62,45.9-15.75-24.02,7.98-.38-3.91-13.55.35-9.28.3-42.52.43-91.03,9.13,23.36-2.46,64.24,7.83,58l-1.74.68"/>
  <path class="cls-146" d="M314.33,311.72c.8,4.22-43.07-2.36-27.42,1.11-23.68.73-22.58,2.8-21.35-17.76-.38-54.75-15.63-5-10.87-31.3,35.63-.06,73.34-34.96,60.44-6.23l-.8,54.18"/>
  <path class="cls-50" d="M215.97,494.3c-3.93,22.08-1.97,15.27,55.89,16.8-120.09,4.48-162.79-4.27-141.24-2.17,105.97.04,78.92.7,84.01-1.06-1.6-1.67,1.42-1.02,1.36-11.84l-.02-1.73"/>
  <path class="cls-14" d="M270.62,484.92c-.93.27-1.04.38-.41.12,4.46-1.51,4.25-1.39-.21.07.7-.23,2.35-.76.93-.33-.41.23-.96.31-1.37.5l1.06-.36"/>
  <path class="cls-81" d="M306.72,512.37c6.84-.86.4-1.38,4.79-5.64-5.68,4.84,6.74,4.99-14.82,5.84-57.34-.78-77.59,1.01-79.66-3.69,168.73,1.13,130.63-2.52,189.72,3.39l-100.03.09"/>
  <path class="cls-31" d="M234.03,363.39c-34.85-1-5.92.11-18.13.3,10.6-1.52,12.24,1.09-10.75-.72,4.74-69.59-6.73,15.55,20.65-3.79,24.92-25.84-64.27-31.29,8.46-32.14l-.24,36.35"/>
  <path class="cls-52" d="M116.58,23.08c-7.32,32.97-9.62,49.89-10.19,50.57-42.51-10.17-35.21-8.66-35.86-11.71-4.8-61.02-.97-39.81-15.47-44.87,33.48-.05,54.86-.5,77.89.19l-16.37,5.83"/>
  <path class="cls-88" d="M533.38,416.01c-30.91-5.04-21.74-10.49-37.61-30.48,3.3-17.26,8.9-7.75,2.16-9.76,4.34-8.59,6.48-8.93-3.41,6.39,10.54-19.19.17-56.46,39.53-41.56l-.67,75.4"/>
  <path class="cls-7" d="M341.68,476.94c-9.18,1.8,2.93-4.18-5.78-12.32,3.72,4.27,3.9,10,4.99-3.99,2.8-5.85.86,1.58,2.25-15.84,1.51,15.61-21.72-93.52,2.35,4.17l-3.81,27.97"/>
  <path class="cls-104" d="M144.38,477.43c-71.18.95-55.61,2.41-25.63-.63-22.12,2.75-72.22.27-21.82-.38-3.26-1.19,11.74-72.05,1.34-.49-12.62-1.67,58.67.26,37.1-2.48l9.01,3.98"/>
  <path class="cls-64" d="M299.91,161.04c-71.28.16-92.11-.69-86,.2,2.86-1.68-19.8-1.01-70.05-1.25,47.15-46.6,12.57-11.14-3.24-35.44-29.42-27.69,90.06-9.62,95.18-17.44l64.1,53.93"/>
  <path class="cls-36" d="M193.14,171.93c7.69,7.86-13.77,1.65-17.44,4.86-50.08-2.73-24.36,1.47-52.72-.76,2.39-47.66-8.85-40.82,32.13-31.3,20.21-28.7-4.15,30.62-32.07,15.77l70.1,11.43"/>
  <path class="cls-40" d="M540.77,476.75c-30.12,1.23-38.2-1.76.07-.08,18.77-1.39-32.93,4.2-152.08.05.85-4.22,51.13-.04,105.64-2.65,56.15,2.6,52.28-.88,11.83.32l34.53,2.35"/>
  <path class="cls-90" d="M325.28,403.9c-14.21-1.54-9.73,17.72-8.68-37.13,2.62,40.83-12.55,30.59-25.71,32.39,46.02-15.26-37.58,9.36-2.33-16.17,51.67,43.21,11.48-75.84,36.83-107.15l-.11,128.06"/>
  <path class="cls-35" d="M432.62,375.07c-90.3,3.56-77.06-5.32-77.5,10.56,67.11-2.06,144.95,2.8-6.82,2.44,1.15-26.97,3.96-14.21-6.45-16.6,31.99-2.88,77.11.42,89.29-.99l1.47,4.6"/>
  <path class="cls-21" d="M455.3,175.05c-21.47.24-15.66-.2-10.94,22.57-11.91-45.47,13.01-15.43-81.38-29.34,31.04-2.02,76.36-1.08,50.5-1.2,64.6-.4,39.65.7,42.67-.19l-.85,8.18"/>
  <path class="cls-112" d="M236.55,408.87c-45.89.37-34.8-2.52-36.77,19.11-7.45-28.54,30.47-16.6-61.88-19.1,4.68-2.7-16.6-2.02,59.48-2.46-8.63-.24,4.25.88,38.12.1l1.04,2.35"/>
  <path class="cls-95" d="M167.52,89.83c11.41,21.5.97,12.32-18.01,14.72-56.7-.76-80.01,6.24-75.1-17.2,39.71-6.53,37.1-29.65,28.7-29.02,25.13,6.76,37.49,1.8,36.58,5.28l27.83,26.21"/>
  <path class="cls-110" d="M178.59,478.76c-8.47.17-7.31-3.55-4.1-.12-5.41-.45,17.95-.45-54.2-.71,60.79-9.71,61.61,24.24,16.8-61.54,51.48,74.74,30.9,82.7,45.79,21.95l-4.29,40.41"/>
  <path class="cls-91" d="M121.5,412.69c-5.74.31-6.77.04-9.23.07,6.13.15,3.62.07,4.35.1-1.8-.06.23-.04.32-.01-.49,0-1.54-.02.26,0l4.32-.15"/>
  <path class="cls-107" d="M461.45,405.75c8.35,100.31-18.23,26.74-7.56,76.93-11.11-32.6-39.62-29.48-36.09,14.52-6.17-92.72,60.77-78.09-83.06-89.59,187.89-14.79,196-4.08,133.98,23.38l-7.27-25.24"/>
  <path class="cls-120" d="M338.62,88.25c-7.43,27.17-22.22,2.08-7.94,22.22-43.35,5.62-41.01-25.44-37.41,34.94-33.15,4.12,22.3-32.19-16.68-116.44,32.93,38.49,34.26,43.8,64.6,47.79l-2.57,11.48"/>
  <path class="cls-117" d="M310.93,169.71c-3.72,20.76,11.08,144.23,5.12,7.86-8.89-47.31-9.44,70.29,12.57,93.16-36.16-7.4-27.83-2.06-29.67-109.29-29.18-36.61-102.33-43.97,66.58-46.94l-54.59,55.21"/>
  <path class="cls-77" d="M216.11,234.13c.44-.06.1-.03.18,0,.46-.27-.37.39,1.51-.57-1.46.71-.92.4-.69.34.26,0-.69.17-.36.16l-.63.07"/>
  <path class="cls-54" d="M535.05,344.62c3.33,1.34-21.59,6.63-61.33,4.82-2.13-1.64,14.74-1.57-16.14-9.55,18.29,1.2,27.06,3.93,67.11-.88,17.01-2.7,4.71-4.14,10.28-1.22l.08,6.84"/>
  <path class="cls-44" d="M392.32,265.29c-70.94-6.21-51.07,27.78-59.73-97.42-41.85,8.75-30.3,10.76-63.96,3.66,22.83-7.51,47.49-4.32,60.59-4.1,65.77-4.83,56.6,23.39,54.28-29.12l8.82,126.99"/>
  <path class="cls-141" d="M535.03,317.77c-3.3,98.8,5.8,196.82-10.29,242.64,120.85-261.88-5.64-267.91,10.57-229.47-18.01-33.7-29.14-33.04-48.46-88.67,72.78-7.45,36.8,9.27,55.86,71.11l-7.69,4.39"/>
  <path class="cls-101" d="M75.5,213.97c13.82-1.49-.78,16.05,3.01-6.52.88,41.46-.58,71.76-3.32,11.2-4.16,4.81-16.65-55.71-10.31-37.81,11.22,38.21.69,36.72,14.61,30.95l-4,2.18"/>
  <path class="cls-131" d="M417.93,388.57c29.42,3.08,7.79-6.29,15.34,10.78-9.58-14.23,23.13-7.41-54.04-13.24,26.75,3.5,17.62-1.11,16.77-16.55,48.57,2.22,32.98-11.05,39.35,26.01l-17.41-6.99"/>
  <path class="cls-43" d="M379.51,28.54c33.51,23.67,31.46,16.04-6.7,45.56-10.72-2.76,31.61-47.5-50.36-47.45-20.95-12.59-3.53-9.51,95.58-8.01,47.37-2.51,3.32,14.51-60.74,9.5l22.22.4"/>
  <path class="cls-7" d="M54.51,492.24c-2.32-.99-2.83-1.04-2.33-.64,2.1.91,1.19-.83,2.76-.71-2.13,1.5-.98.14.05,2.48-2.18-2.57-.98-.35-3.32,1.02l2.84-2.16"/>
  <path class="cls-75" d="M357.8,318.52c157.44,4.48,35.55-8.58,43.86,23.7-64.75-2.66-64.37,10.58-56.74-36.96-45.61-20.93-26.54,18.36-32.12-28.88,69.39,72.58-4.05-34.48,62.03-.67l-17.03,42.81"/>
  <path class="cls-139" d="M249.24,393.17c-.98,3.74,2.11,8.61-4.26,6.32,1.69.69,1.61.55-4.99.7-.06-38.64-1.37,19.85-.63-106.17,11.37,7.87,10.18-20.87,9.57,58.61l.31,40.55"/>
  <path class="cls-87" d="M533.63,329.84c-28.67.25-14.06,4.56-15.93,2.29-80.04,4.86-98.6-15.6-41.79-7.49,74.81.49,62.09-12.51,4.73-14.94,47.17-3.19,35.93-8.72,41.7.14l11.29,20"/>
  <path class="cls-128" d="M332.11,476.48c141.08,5.12,108.62-2.42,17.16-1.6-15.51-1.78-5.77,9.98-14.22-.04,1.93-27.53-8.47-5.78-5.59-20.64,65.15-6.49,5.75-8.04,14.4,21.15l-11.75,1.12"/>
  <path class="cls-108" d="M83.47,462.46c-1.88,25.25,16.66,4.56,14.7,16.05-38.54-3.43-24.46,3.03-22.88-2.95,2.42-69.67.04-57.77-.68-62.78,6.64,2.54-3.03-11.24,7.55-3.73l1.31,53.4"/>
  <path class="cls-154" d="M312.59,337.99c-15.12-14.41-3.76-1.01-2.66-11.84-51.9-35.28,5.85,30.96-42.64,21.36-12.79-95.78,29.85-72.11,19.15-34.41-19.03-2.38-53.59,4.04,26.91,1.82l-.77,23.07"/>
  <path class="cls-106" d="M86.16,476.35c4.15-2.22-8.55-1.92,67.81,2.94-87.67-4.76-89.72,4.55-82.85-9.7,2.24-56.85-.53-68.26,10.03-60.99,5.81,27.4-3.43,66.46,4.68,61.93l.33,5.83"/>
  <path class="cls-100" d="M295.53,210.78c0-.27,0,.08-.08.11-.36.25,0,.41-2.85.44,2.7-.04,1.95-.05,1.09-.01-.59.03.81.07,1.53-.27l.32-.27"/>
  <path class="cls-9" d="M361.25,174.86c44.56-2.38,19.31-.79,8.59-1.81,13.08,1.67-7.3,2.2-.61-.61-20.33-6.2,36.34,17.04-61.6-5.42,118.51.14,72.53-2.18,78.21,8.32l-24.59-.48"/>
  <path class="cls-109" d="M87.93,478.94c-3.65-5.42-4.45-5,2.06-.28-31.85-1.29-16.33,1.36-21.44-5.99,5.41-9.71.85,27.18,3.1-56.34,9.98,2.03,12.87.34,12.41,53.86l3.86,8.75"/>
  <path class="cls-147" d="M372.1,88.26c-8.77.2-11.21-.41-19.82-5.42-25.34-10.35-33.14-10.38-21.56,5.19,8.11-12.84,15.2-17.91,20.81-22.29,10.39-4.62,15.69-11.96,10.23-15.06l10.34,37.58"/>
  <path class="cls-116" d="M209.83,480.54c-10.26-22.6,9.56-16.3-34.82-17.33-42.05.27-21.37-3.13-42.36,17.33,26.48-45.24,28.41-45.54,37.31-60.03,19.95,15.24,20.49-44.84,40.61,8.95l-.74,51.08"/>
  <path class="cls-74" d="M37.37,287.48c30.24,68.93,23.92-23.06,28.18,168.84-43.18,8.79-22.99-1.55-27.95-155.62,7.68-9.41,10.5-6.79-.45-15.22,12.28,4.58,26.02,5.44,18.88,4.23l-18.66-2.24"/>
  <path class="cls-159" d="M425.37,485.8c-.29-.17-.6-1.14-2.57-2.91,2.24,2.15,2.94,3.5,1.31,1.3,3.45,4.51,2.45,3.27,3.14,4.26-.41-.57-2.15-3.06-.25-.39l-1.63-2.26"/>
  <path class="cls-102" d="M299.23,176.99c.8,5.5,4.37,17.19,6.55,30.46.54.18-1.49.24-.02.09-5.46-33.6-16.23-44.29,8.23-39.42,103.38-2.4,81.73,2.69,2.81,3.44l-17.58,5.43"/>
  <path class="cls-1" d="M287.63,122.93c-104.86-3.09,18.48,15.46-25.24,23.47-4.55-33.83.47,6.71-16.85-2.11,1.89-18.83-3.71-57.36,5.92-22.2,12.8-47.24,15.35,33.79,27.83-18.43l8.34,19.27"/>
  <path class="cls-20" d="M69.08,98.22c.56,5.75-9.79,2.13-10.15,22.6-33.6,10.86-16.95-.19-21.46-12.62-.73-37.16-.7-42.75,1.39-60.45,8.95,17.12-14.56,16.95,35.68,27.43l-5.46,23.03"/>
  <path class="cls-7" d="M123.11,442.76c-39.76,21.7-19.06-117.72-26.64-119.74,12.16,4.1.09-11.05,14.63,6.53-3.21-3.96-2.59-1.09-6.19-10.67,9.18,14.17-7.05-3.85,18.76.5l-.55,123.39"/>
  <path class="cls-130" d="M431.83,337.79c-16.7-5.29,16.8,35.16-11.93,27.35,23.26-14.42-29.99-24.91-11.84.26-26.75-2.85-.23,13.95-8.06-38.36,26.27-19.84-30.75,54.33,31.54,13.3l.29-2.54"/>
  <path class="cls-65" d="M393.84,316.19c-17.7-22.24-34.02,2-20.51-.78-56.03-5.07-17.11,16.82-31.48-68,14.18-1.47-27.99,35.48-4.9.06,85.05,2.23,39.82-7.78,58.53,6.1l-1.63,62.63"/>
  <path class="cls-29" d="M106.1,307.48c-5-20.68-3.38-28.42-.46-4.25-11.94,36.72-3.25,10.51-49.62-36.63,2.8-45.77-6.12-47.03,16.92,23.48,6.66-38.83-12.5-98.25,27.6-89.95l5.56,107.35"/>
  <path class="cls-11" d="M111.18,83.74c-1.55.63-4.17.36,15.13-.91-20.95,1.93-51.56.6-57.14.97,19.58-15.25,12.55-13.11,5.83-6.12,19.83-20.8,36.58-3.11,35.42,3.82l.76,2.24"/>
  <path class="cls-16" d="M214.01,155.12c-12.42,137.6,1.37,104.28-26.42,110.02,6.43-129.2,21.37-90.45-40.85-94.47-20.85-50.74,2.15-44.74-12.18-54.55,140.2-8.07,17.08,12.21,13.83,38.85l65.62.16"/>
  <path class="cls-38" d="M172.05,231.67c3.87-8.06-11.41,17,13.81,39.95-43.51-3.47-63.39-16.36-33.08-18.06,5.45-66.11,8.17-86.84,5.75-83.38,29.84,2.28,14.51-1.23,18.9,3.21l-5.38,58.29"/>
  <path class="cls-138" d="M38.65,23.86c-1.43,4.81-2.39,3.95-2.81,5.03.48-.75,2.44-3.07,2.75-.56-.51,15.82-2.39,16.24,28.61-12.09-31.79,1.51-32.45-3.35-27.83,9.54l-.71-1.92"/>
  <path class="cls-30" d="M376.07,352.33c-4.91,17.52,5.69,19.42,3.16-.38-1.11,4.05-36.63-7.75-20.16,13.77-12.69-1.84-10.34,8.23-8.52-19.85,99.16.67,75.4-3.33,80.7,6.25l-55.18.21"/>
  <path class="cls-143" d="M244.29,486.32c.34-.1-1.02.62-1.18.58,1.38-.56.51-.21,1.17-.52.12.15-.03.77,1.08,1.36-1.43-.83-.88-1.17-1.31-3.47l.23,2.05"/>
  <path class="cls-45" d="M223.8,124.13c-39.14-6.18,43.98-5.85-91.4-3.92,110.88,16.26,59.48,7.92-7.11-.9-21.63-10.45,100.51,2.28,93.84-9.61,5.81,13.9-20.34-6.16,4.5-.11l.17,14.54"/>
  <path class="cls-150" d="M247.83,179.86c-9.64,12.37,6.08,8.07,15.1,70.83-2.95,2.02,1.98-68.61.99-73.95-46.12-1.96-6.8,2.96-1.5,77.19-24.03,11.94-17.08,3.72-16.9-32.53l2.31-41.55"/>
  <path class="cls-145" d="M386.99,247.26c4.9-13.45,25.01,57-32.39,38.34-8.65,53.81-81.51-60.23-45.75-36.91,39.61,21.42,24.07-16.18,34.05-38.67-5.32,12.02-3.19,27.82-6.54,36.83l50.63.41"/>
  <path class="cls-33" d="M235.09,253.13c-4.01,161.75,3.7-12.74-51.94,32.15-12.12-59.32,42.96-40.12,34.02-8.46,2.58-29.94-14.93-19.78,2.76-22.13,21.93-19.63,20.87-24.83,25.41-.25l-10.25-1.31"/>
  <path class="cls-115" d="M250.37,477.36c-38.69,1.83-22.36.08-31.02,1.1,12.51-2.05,4.96,1.91,8.38.54-98.22-3.22-103.84-3.25-17.33-4.19,17.41,1.99,38.4-2.95,32.36,2.23l7.61.32"/>
  <path class="cls-137" d="M273.12,172.35c33.57,6.35-33.75,3.29-5.13.03-28.83-3.03-40.94,23.5-39.08-3.11-1.53,1.64-12.07,6.58-12.14-2.29,20.44-.19,113.27,0,98.75,2.88l-42.39,2.5"/>
  <path class="cls-13" d="M365.49,131.92c5.87-23.14-57.59,4.76-43.62-20.32-21.43,31.03-3.68-9.42-49.53,11.58,19.5-56.93,35.05,19.95,15.89-19.71,103.98-7.56,20.54,41.07,76.58,1.63l.69,26.82"/>
  <path class="cls-83" d="M314.81,246.68c32.99,32.19-8.26,10-62.7,17.56,11.04-7.41-24.82-7.72-31.83,1.17,15.22-65.36,21.24,13.21,44.2-17.77-14.12,1.25,23.41-6.63,20.76,10.41l29.57-11.37"/>
  <path class="cls-133" d="M172.66,100.39c4.27,13.09-7.72-15.25,1.54,2.89-68.36.17-41.22-.15-45.31-1.77-2.21-24.08,16.49-20.27,5.75-19.1,6.62-7.3,17.33-10.33,32.08,5.95l5.94,12.04"/>
  <path class="cls-127" d="M454.94,305.33c69.05-53.48,18.42-144.99,38.25-128.44-69.79,43.27,48.62,115.78,27.93,9.72-52.33,10.76-92.69-71.98-42.14-146.26,62.7,123.89,5.31,132.2-22.83,177.27l-1.2,87.71"/>
  <path class="cls-7" d="M518.82,304.13c-.1,5.87,15.32,10.24-16.69,11.12-2.75-15.38,26.68-.96,11.13-17.39-25.35,4.77-10.74-5.16-18.83-5.93,18.2,1.03,9.75-10.65,24.6,14.34l-.22-2.15"/>
  <path class="cls-78" d="M534.15,456.51c2.19,1.71-8.86-.95-11.54,1.97,9.59-2.56-19.24-.34-26.56-1.48,2.09-19.75-11.04-7.93,5.32-49.63,44.68,13.78,29.07,5.2,32.73,10.23l.05,38.9"/>
  <path class="cls-22" d="M468.05,401.8c-25.84-24.19-5.01,68.26-14.55,60.17,17.98,6.76,2.57-7.18,13.87-3.49,3.44-1.54,9.5,1.76-12.41,5.06,18.66-2.54,16.55-.32,16.33-18.6l-3.25-43.14"/>
  <path class="cls-103" d="M175.13,476.74c68.74,3.31,67.96,1.64-91.73,2.3,44.58-7.1,50.11-3.58,43.2-1.82,25.51-4.39,26-2.75.03.66,35.34-6.29,57.6-1.06,51.4-5.37l-2.89,4.23"/>
  <path class="cls-62" d="M177.08,175.92c-17.96-.78-19.1,2.42-15.58-5.07-41.47-2.03,3.74,6.06-36.76,4.24-3.03-4.04.36-7.87-2.72-8.07,29.78-1.09,12.58,2.11,55.08.08v8.81"/>
  <path class="cls-32" d="M506,284.4c-22.56-38.29-9.68,48.48-14.46-228.28,106.07-36.71-28.04,122.94,62.99,228.02-28.14-27.9-18.25-68.32-20.74,51.64-12.9,30.99-53.59-84.99-36.38-65.17l8.58,13.79"/>
  <path class="cls-67" d="M135.35,340.59c-1.03-20,.83,2.5-.15,60.5-14.24-7.23-10.58,28.68-11.12-95.12.38-3.56,13.93,5.52,9.82,1.13,2.29-17.58-2.51-12.13,1.2-6.44l.25,39.93"/>
  <path class="cls-119" d="M284.87,106.36c23.4,12.9,18.23,31.97-2.96-8.83-17.26-20.32-25.49-25.13-24.06-27.89-11.1-11.57-16.16-17.95-6.45-7.57,19.99,4.53,32.4-1.16,33.37-1.43l.1,45.72"/>
  <path class="cls-58" d="M94.1,181.03c-8.69,1.27-1.32-1.09-12.15,31.55,4.66-44.38,16.14-25.59-23.69-31.67,30.01-25.82,3.71-8.89,16.53-25.44,13.93.18,1.92,18.34,4.94,10.37l14.37,15.19"/>
  <path class="cls-84" d="M277.73,32.06c-24.06,4.4-24.23,3.82-18.38,3.29-24.16,3.18-25.72,1-40.98-10.92-11.27-9.88-13.14-6.71,6.22-7.51,31.62.36,41.63-.28,54.55.37l-1.42,14.76"/>
  <path class="cls-93" d="M70.9,64.4c22.52,8.19,17.16.09,6.88,12.05-44.58-10.79-37.03-12.4-39.93-9.8-.86-50.14.16-50.95.12-49.47,34.29.01,26.89-1.27,29.74,4.22l3.19,43"/>
  <path class="cls-122" d="M25.85,426.81c2.57-.55,1.41-.35,1.27.83,2.69,4.06,1.69,3.37,1.12,2.28,0-1.23.57-2.31-.05.43-.97,1.85-1,2.89-3.15,2.8l.8-6.34"/>
  <path class="cls-12" d="M94.21,177.96c-.57-.91,2.29,4.12-4.89,7.1-42.39.44-16.13-1.59-31.07-3.19,19.97-20.03,19.79-36.57,19.58-43.71,4.25,2.01-13.78,46.81,8.79,37.32l7.59,2.48"/>
  <path class="cls-105" d="M453.84,60.97c-3.55.69,2.06.73-16.17,18.54-34.74-5.8-2.09-5.02-20.2-27.28-1.56-47.5,9.49-30.88-21.87-35.03,61.42-.54,58.52-.24,59.53.87l-1.29,42.89"/>
  <path class="cls-66" d="M288.29,348.36c-23.55-.53-.48-3.4-.05,33.68-29.19.04-26.28-1.2-22.98-.43,23.48-77.75,23.99,30.73-.53-79.88,39.13,5.29-28.62,15.27,23.45,14.74l.11,31.89"/>
  <path class="cls-70" d="M169,398.48c12.07-51.11-60.3,3.02,4.43-2.63-53.44,4.99-31-1.52-33.6,3,5.02-44.67-1.36-69.68,4.89-130.81,31.2,137.88-30.63,87.98,38.63,103.43l-14.35,27.01"/>
  <path class="cls-4" d="M362.11,254.93c-6.18-1.75,7.78,4.79,10.98-7.06-7.68-87.44,1.08-74.64-22.04-76.21,3.92,99.56,3.37,72.73,4.6,78.88,2.47,3.69,3.07,2.52,1.86,2.77l4.61,1.62"/>
  <path class="cls-123" d="M101.32,323.62c2.42,2.38,4.06-35.28,2.53,109.66,4.4,35.76-20.25,19.71-66.19,24.29.04-188.59-.59-185.36,2.18-169.17,6.23,4.86-18.62-12.81,34.96,13.59l26.51,21.63"/>
  <path class="cls-5" d="M534.38,71.33c-12.16.23-8.21.85-6.46.32-79.13.05-66.23.07-67.4.42.97-53.83,4.01-51.38-14.46-55.16,55.2.02,62.28-.08,88.2-.11l.12,54.53"/>
  <path class="cls-92" d="M502.81,423.18c-13.33-2.74-8.05-17.57-13.26,52.38-7.2,16.1,3.73-66.2-7.4-47.27,44.1-28.05-22.92-29.72,5.83-26.43,6.93,2.64,11.92,5.09,11.44,8.13l3.4,13.19"/>
  <path class="cls-27" d="M534.12,512.43c.29-.12-19.97-.1-7.8-.44-9.19.59-40.6.21-76.09.11,39.33-4.65,101.49-.06,33.18-3.85,44.9,1.64,27.2,1,51.1.46l-.39,3.72"/>
  <path class="cls-134" d="M244.11,238.21c.62,5.72,1.21,5.81-5.74,9.66-9.37,2.12-19.09-7.84-12.89-2.35-.12-19.87,2.69-50.05,3.36-70,72.22,1.77,13.04-6.2,18.39-5.18l-3.12,67.87"/>
  <path class="cls-142" d="M455.31,188.13c-2.35-14.02,2.49-4.58,1.44,65.1-31.21-41.69-.64-97.17-36.97-81.91,16.16,87.16-2.69,198.54-16.71,1.51,49.57-10.99,67.54,6.86,41.21,3.52l11.03,11.79"/>
  <path class="cls-124" d="M519.98,511.37c-241.85,1.68-253.97-.25-260.72.75-9.88-1.05-20.6,1-50.72-1.49,31.48-.63,4.33,6.75,5.06-10.86,14.15,1.33,95.45.1,335.33.96l-28.95,10.64"/>
  <path class="cls-151" d="M517.94,309.41c14.9,3.67-4.59,3.2.78,4.7.2,2.92-55.75,4.32-66.17-3.33,32.91-34.46-1.02-14.32,46.12-19.24,13.21,21.32-52.04-6.16-37.55,15.19l56.82,2.67"/>
  <path class="cls-7" d="M471.99,147.26c1.17,1,.48,2.09.89,1.53-1.19-1.2-2.81-1.65-3.08-1.06.47-.16.86-1.55,1.04-.42.62-.59,2.36-1.45,1.15-.52v.46"/>
  <path class="cls-47" d="M521.4,454.7c1.3-1.03,1.36-.57-1.13.44-5.92,2.47-8.57.06-6.09,1.74-3.51-1.65-6.43-8.75-6.15-8.96,4.26,10.62,6.65,8.58,9.93,8.06l3.44-1.28"/>
  <path class="cls-15" d="M287.44,310.94c8.61,37.62-33.46.72,4.07,4.08-48.46-19.85-30.43-61.82-37,148.95-2.2-158.11-1.28-117.65-1.04-195.94,10.17,17.47,9.65,11.45,35.27,12.81l-1.29,30.1"/>
  <path class="cls-148" d="M316.69,176.07c-52.04-12.81-28.41.65-38.02-2.7,14.15.15-20.36.94-13.78-1.78-26.99-2.41-14.75,6.46-61.3-3.78,89.58-.72,106.56-1.92,113.15,1.14l-.05,7.12"/>
  <path class="cls-37" d="M201.77,102.81c-62.55,8.07-2.97-29.79-65.52-2.33-34.99,11.33-18.76-12.6-29.98-27.32,14.23-81.21,20.45-44.68-48.31-55.34,100.61-1.88,105.23-.16,143.53-.67l.27,85.65"/>
  <path class="cls-71" d="M455.41,347.95c-2.56,93.69,14.76,52.15-26.98,57.7,31.74-6.31-3.36-89.85,13.61-35.03.33-42.11-.24-16.76-5.43-35.01,85.24,7.77,89.3,19.2,25.08,12.33h-6.27"/>
  <path class="cls-56" d="M437.27,342.45c-3.94-26.27-22.25-11.74-12.84-15.04,10.58,12.63-15.04,22.14-18.95,8.15-28.38,5.41,43.54,15.57,22.81-9.2-90.91,4.07-140.5-9.95,7.12-7.28l1.86,23.38"/>
  <path class="cls-24" d="M47.23,229.77c4.92,20.25,6.79,43.5,6.29,12-11.43,12.47-18.63,20.95-14.08,1.83,11.26,1.88.11.83,13.77-28.78,1.2,33.04.06,29.09-9.52,34.3l3.55-19.35"/>
  <path class="cls-2" d="M135.56,242.85c-.9,89.48,2.24,62.31-11.39,62.04-.54-26.7.41-59.87,1.23-28.53-.23,27.1-.92,22.5.3-.75-7.85-56.22,1.43-64.25,17.37-102.79l-7.51,70.02"/>
  <path class="cls-8" d="M303.04,62.65c6.83,11.76,4.78,13.02-13.68,19.24-19.82-13.13-12.79-22.81-11.89-32.06-3.17-28.34-7-25.7-57.07-32.04,80.01-1.05,84.85-.45,95.89-.33l-13.25,45.2"/>
  <path class="cls-7" d="M289.06,108.93c168.19,2.77,110.77-28.63,2.97-84.59.54,38.07-3.17,57.33-3.2,109.01-22.95-82.58-66.98-60.84-51.03-97.51,70.04-11.08,21.25-25.6,54.71-1.76l-3.46,74.84"/>
  <path class="cls-118" d="M105.75,509.12c24.38-.8,8.3-.02,65.52,3.08-166.52-.28-124.41.78-133.51-.26,1.73-15.72-4.7-7.78,36.95-12.02-47.05,5.23-34.68-5.64-36.58,8.87l67.62.33"/>
  <path class="cls-96" d="M135.27,155.06c21.02,8.02-21.81,5.7-12.79,2.92-3.85-10.62-9.64-10.59-30.36,24.06-33.74,9.43-5.53-41.6-15.64-44.79,111.01,2.59,26.09,5.91,58.7-12.65l.09,30.45"/>
  <path class="cls-49" d="M262.78,266.21c7.4,40.08-11.38-19.67-6.22,30.8-56.28-6.83,11.14,8.46-50.62,8.11-1.83-107.62-7.02-39.12,15.38-52.03,57.74,21.17,23.44-27.3,80.2,9.83l-38.73,3.28"/>
  <path class="cls-23" d="M462.14,395.82c-25.07,45.84.65,126.48-19.33,58.33,24.61-71.62,2.45-126.74,12.39-101.53-27.83,68.84,2.04-14.12-22.91-16.82,50.29,6.33,56.27,14.97,29.62,12.82l.23,47.2"/>
  <path class="cls-7" d="M490.98,398.6c21.71,9.88,14.61,37.62-6.1,33.76-41.05-1.54,30.28-13.25,6.46-26.38-5.75-9.15-2.24,3.5-4.17-56.69,7.29,3.52,3.37-16.97,4.92,84.54l-1.12-35.23"/>
  <path class="cls-149" d="M418.4,17.29c-.92,19.69-1.94,35.15.39,36.05-45.54-17.21-53.72-21.52-59.58-30.68,3.65-8.03-13.7-5.14,38.42-5.71-23.16-.4-11.69.08-18.08.14l38.86.19"/>
  <path class="cls-156" d="M231.27,169.24c-51.35,9.08-32.05-1.1-37.51,2.39-44-.29-34.23,3.14-33.74.23-25.98-1.5-39.24,6.01-36.11-4.11,62.39-1.46,75.13-.78,96.3.87l11.07.61"/>
  <path class="cls-126" d="M271.31,91.21c20.8,38.72-5.22-4.26,12.2,31.69-153.94,1.74-8.58.82-83.33-4.27,6.99-66.76-15.51-41.62,43.34-55.84,4.84,3.74,11.5,8.78,20.24,18.37l7.54,10.05"/>
  <path class="cls-99" d="M205.75,110.5c-110.17,1.17-48.63-8.09-68.76,47.76,6.43-76.71-13.67-19.45-14.99-44.29,14.83,1.38,2.57-3.79-3.23-4.4,16.55.31-21.42-2.04,65.08.06l21.89.88"/>
  <path class="cls-53" d="M230.43,512.35c-20.84-1.11-53.61-.28-57.8.33-47.81-2.21-.07-4.1-132.54-3.53-22.68-18.94,104.39-1.17,35.16-9.04,193.43,1.42,125.87-2.77,144.56,10.77l10.62,1.46"/>
</svg>