<?xml version="1.0" encoding="UTF-8"?>
<svg id="_图层_1" data-name=" 图层 1" xmlns="http://www.w3.org/2000/svg" viewBox="0 0 586.84 579.77">
  <defs>
    <style>
      .cls-1, .cls-2, .cls-3, .cls-4, .cls-5, .cls-6, .cls-7, .cls-8, .cls-9, .cls-10 {
        fill: none;
        stroke: #000;
        stroke-miterlimit: 10;
      }

      .cls-2 {
        opacity: .8;
      }

      .cls-2, .cls-3, .cls-4, .cls-5, .cls-6, .cls-7, .cls-8, .cls-9, .cls-10 {
        isolation: isolate;
      }

      .cls-3 {
        opacity: .5;
      }

      .cls-4 {
        opacity: .3;
      }

      .cls-5 {
        opacity: .7;
      }

      .cls-6 {
        opacity: .1;
      }

      .cls-7 {
        opacity: .6;
      }

      .cls-8 {
        opacity: .9;
      }

      .cls-10 {
        opacity: .4;
      }
    </style>
  </defs>
  <path class="cls-6" d="M414.76,77.43c0,46.2,3.8,49.9-29,54-52.5-2.7-58-4.5-54.8-76.3,20.7,1.7,17.8,1.6,28.3-8.8,51-6.4,57,2,55.5,31.1"/>
  <path class="cls-8" d="M572.86,292.63c-10.3,2.7-4,23.6-8.7,64.6-17.5,17.2-14.4,34.1-14.9-82.8,1.5-3.1.7,20.4,1-96.4,67.4,28.7,19,86.1,22.6,114.5"/>
  <path class="cls-9" d="M458.26,483.43c4.7-18.3,8,37.4,5.6,36.4-21.3-4.7-16,14.7-9.1-23-136.6-1.7-142.7,1.8,11,3.1.4-64.6,4.8-74.5-7.6-16.5"/>
  <path class="cls-8" d="M53.06,291.13c0-18.5,0-1.9,0,132.7-96.4-45.9-29.4-100.7-36-142.7,16.4-7.2-6.4-33.6,35.9-61.1.2,47.1,0,62.5.1,71.2"/>
  <path class="cls-8" d="M206.66,38.13c-109,.1-121.7-.7-47.1,2.9.5-.5-14.9-3-120.5-2,32.9-71.6,80.5-21.8,139.1-20,25.7-6.3,28.3-3.5,28.5,19.1"/>
  <path class="cls-7" d="M311.76,413.23c-46.2-3.4-17.4-35.5-14.5-86.9-30-17.2,11-21.7-141.5,87.1,1.7-207.4-56.8-128.2,316.2-147.4,7.9,157.4-97.1,72.7-160.2,147.1"/>
  <path class="cls-8" d="M53.16,154.63c-.3-23.4,0,1.9-.1,82.7-53.4-19-20.7-55-18.5-77.2,5.5-11-.4-16.6,10.2-91.9,11.1-14.6,7.6-26,8.4,86.4"/>
  <path class="cls-9" d="M344.66,533.13c.3,26,.2,17.9-21.4,13.3-6.6,7.2-13.2,14-11.3-14.7-22.9-1-70,1.8,113.9.9-151.1,2.2-124.2-.3-81.2.5"/>
  <path class="cls-8" d="M539.96,38.13c-68.9,0-53,0-48.5,0h-161.8c39.8-68.9,88.2-24.3,118.9-12.1,20.2-13,70-53.2,91.5,12.1"/>
  <path class="cls-8" d="M278.96,240.73c-.9,35.6,3.2,33.7-10.9,35.9-14.6-4.5-6.5-6.8-6.6-69.8,4.1-10.8-8-8.2,17.6-8.7.2-2,0,13.3,0,42.6"/>
  <path class="cls-8" d="M272.26,499.73c-10.5,39.3-99.6,14.9-145.9,23.2-67.3-4.7-94.5,11.8-97.4-23.4,70.4-1.5,115.2,3.6,71,.7,14.6-2.9,45.5,0,172.3-.5"/>
  <path class="cls-8" d="M437.46,93.13c2.8-3.5-.7,5.2-10.4,8.6-15.3,1.8-21.9-14.7-15.2-23.8,5.6-5.2,3.9-5.9,13.3-5.7,6.8-.8,18.1,8.5,12.2,20.9"/>
  <path class="cls-8" d="M349.16,229.33c2.6-1.6.3,6-2.7,10.5-21.3-12.9-10.9-.2-15.5-53.1.8,14.8-5.4,9.5,17.7,10.8.7-7,.5,24.3.5,31.8"/>
  <path class="cls-8" d="M351.06,241.93c-.4,28.9,3.6,34.2-10.6,35.1-12.9-7.7-2.3.7-7.3-6.8.2-50.6-2.1-62.9,8.9-54.1,4.8,11.8,8.8,11.1,8.9,25.8"/>
  <path class="cls-9" d="M527.46,522.03c-76.7,0-126.8-.3-118.5.7-23.3.1-81,0-129.5,0,7.8-40.3,27.7-19.9,167.3-23.3,111.8,3.3,104.3-9.8,80.8,22.6"/>
  <path class="cls-8" d="M565.96,533.63c-20.9,44.3-41.2,20.9-55,17.7-15.5-.9-21-1.6-48.9-9.1-14.8-11.5-5-7.8,53-8.8-17.8.3-2.7.1,51,.2"/>
  <path class="cls-8" d="M193.06,533.53c-15.2,8.9-14.5,14.2-40.3,16.5-12.4,13.3-64.9,66.9-113.9-16.4,133.6,0,123.2-.2,111.9,0,22.6-.2,36.9.3,42.3,0"/>
  <path class="cls-8" d="M568.96,102.13c-6.5,2.7,1.1,2.5-28.3,3,12.5-1.6,8.8,15.1,9.6-70.1-8.6,88.7-2.7,65.6-1.1-10.2,40.2,17.4,23.1,47.4,19.8,77.3"/>
  <path class="cls-8" d="M421.66,229.63c1.4,32.5,8.6,43.4-4.3,46.7-17.5.6-9.2-18.7-13.5-41.3-2.6-46.1-3.1-36.4,4.7-37.8,18.1,1.4,7.5-7.1,13.1,32.5"/>
  <path class="cls-8" d="M316.66,533.53c-50.2,82.2-109.5,24.6-139.4,16.1-2.9-9.1-8.3-5.8-14.3-13.8,35.9-1,40.5-2.7,9.1-2.9,13.1.7,14,.9,144.6.7"/>
  <path class="cls-8" d="M334.16,38.93h-83.8c-33.4-.4-40.5,1.3-50.2-2.8C246.06-1.87,265.46,15.23,298.56,2.33c-1.2,15.2,32-7.6,35.7,36.6"/>
  <path class="cls-8" d="M456.56,166.93c-4,96,14.7,105.8-4.4,109.9-13.2-3.7-6.8,1.6-13.9-58.5.8-26.4-10.6-20.1,15.8-21.1,4.3,48.5.7,14.1,2.5-30.3"/>
  <path class="cls-8" d="M210.76,197.13c-1.6,4-4.1,36.5-6.5,77.7-33.4,9.5-9-25.8-13.2-90.1-.1,24.4-4,7.8,19.9,13.9,1.7,3.9-.2-24.6-.1-1.5"/>
  <path class="cls-2" d="M525.16,338.23c-2,10.1,12.3,5-14,8.5-43,0-53.7-6-48.4-7.5,11.3-12.8,0-1.4,28.6-2.8-3.9,3-3.3,1.1,33.8,1.8"/>
  <path class="cls-9" d="M465.26,533.73c-.1,3.5,1.1,21.1-8.4,20.7-15.7-5.2-17.4-2.9-16.2-22.9-2.5,2.8,10.1,1.8-29.4,1.7,44.7.5,56.3.1,54.1.4"/>
  <path class="cls-8" d="M315.16,260.53c2.8,12.6-3.5,16.6-12.1,16.8-9.8-8.7-5.6-9.2-5.9-7.2,0,8.5-.1-44.2.3-73.4,22.5,5.1,16.4-22.2,17.8,63.9"/>
  <path class="cls-8" d="M298.76,507.83c-11.9,16.9-12.2,14.9-33.8,15-10.4-1.8-32.3.9-33.3-2.3,24.5-20.5,27.3-24.5,40-23.2,35.6.7,29.3-2.8,27.2,10.6"/>
  <path class="cls-5" d="M507.56,110.13c27.7,28.3,34,19.4-113.8,20.5-11.6-8.7,20.6-5.6,60.5-6.4.7-39.4-5-12,18.9-47.6,13,.1-17.6,50.4,34.5,33.5"/>
  <path class="cls-9" d="M452.46,317.23c-54.7,3.1-62.3,8.4-61.9,2.1-46.8-29.5,11.3,28.1-30.8,17,6.1-61.3-15.6-41.4,41.3-45.7,70.1,3.2,46.9-9.7,51.4,26.5"/>
  <path class="cls-2" d="M320.26,465.33c-.8,9.6,4.3,3.7-21,6.5-24.4.1-57.6-.5-33.4.9,1.9-8.5-6.8-6.3,31.2-6.7,2-1-7.7-.7,23.2-.8"/>
  <path class="cls-9" d="M534.26,479.63c.2,31.4-3,19.1-.5,16.8-39.6-.5-26.5,6.8-27.2-21.6.4-69.9,0-9.9.5,4.3,32.8.2,26.9-.2,27.2.5"/>
  <path class="cls-8" d="M577.16,440.73c-2.4,50.6,34,88-28.2,97.5-2.2-56.8,3.4-81.6.5-80.4.5-16.7-2.3-6.5,8.6-22.6,8.1,2.5,12.3,2.1,19.2,5.5"/>
  <path class="cls-2" d="M243.16,204.83c0,30.4.4,42.6-12.7,49.8-5.5-1.6-5.7-3.9-4.9-32.6,3.9-29.8-6.5-24,19.4-24.7-1.9.5.3,9.6-1.8,7.6"/>
  <path class="cls-8" d="M571.66,151.63c-7.3,2.6-4.3,7.5-14.1,14.5-9.1-10.4-9.5-19.3-7.7-21.6.8-3.6-2.4-24,1.2-52.3,35.6,19.8,19.3,38.5,20.7,59.5"/>
  <path class="cls-7" d="M174.26,207.83c-5.2,76.5-11.4,62.1,10.2,83.3-27,50.7-28.9-53.2-34.3-25.4,10.5-74.3,7.6-95.9,8.3-72.6,19.6-.6,19-6.5,15.9,14.7"/>
  <path class="cls-9" d="M87.76,493.33c-5.9-4.4-1.1,5.1-3.7,14.9-35.9,16.1-42.1,28.3-51.9-21.9,12.5-37.3,21.8-21.1,19.7-8.1,59.6.1,31.3-2.4,35.9,15"/>
  <path class="cls-8" d="M388.06,257.73c-1.2,13.9,4.8,17.3-11.9,19.4-11.2-9-3.8-5.8-8.9-45.8,1-41.5-8.5-34,16.3-35,.6,4.9,1.8,27.3,4.4,61.3"/>
  <path class="cls-8" d="M443.26,534.33c-6.4,36-26.2,17.2-45.8,15-22.8-.8-45.5,23.5-59.7-15.2,11.5-.3,44.1.3,54.6-1.1-23.3,2.2,1.2-.7,50.8,1.3"/>
  <path class="cls-5" d="M568.66,167.83c-7.7,32.7-20.7-9-18.2,37.2-13.1-25.8-9.7-18.7-10.3-73.9.8-25.8-5.7-24.3,31.4,1.5-8.2,17.1-6.6,21-2.9,35.2"/>
  <path class="cls-8" d="M304.56,339.23c-9.8,16.8-8.3,20-20.3,26.1,2.8,4.8-4.8,4.3-3.4,4.1.4-43.1-1.2-31.4,2-32.2,31.8.2,19.7-.5,21.7,1.9"/>
  <path class="cls-9" d="M303.36,350.83c-1.4,19.5,3.2,17,5.3,18.7-24.7-1.5-31.1,3.2-24.3-4.5,12.4-5.2,10.3-13.5,18.2-24.1,2.2-.4.3,0,.9,10"/>
  <path class="cls-8" d="M505.76,495.63c44.2.7,55,5.2-61.5,3.8,55.7-11.8,44.6,20.5,44.3-52.7,36.9-6.4,3.4-43.4,31.2-15.8-.6,42.5-14.9-9.6-14.1,64.7"/>
  <path class="cls-7" d="M424.96,272.33c4.5,17.1-2.5,13.1,8.2,14.7-57.2-3.6-88.9,8.7-80.4-19.7,51.9,19.2,13.4,4.5,53.8.5-3.3,1.4,6.4,16.3,18.4,4.5"/>
  <path class="cls-9" d="M240.66,265.23c2.2,7.5-5,12.1-9,10.8-4.3.6-8.1-2-9.7-9.3,3,5,.5-6.8,4.2-32.4,21.1-9.3,14.6,1.2,14.5,31"/>
  <path class="cls-5" d="M99.06,474.23c-5.5,33.7-4,18.2,182.4,24-224.5,5.2-197.4-.2-195.1-3.2,1.5-51.8-.1-55.1,6.9-75.2,7,19.5,5,26.3,5.8,54.5"/>
  <path class="cls-5" d="M139.26,319.93c-1.2,96.2,5.1,82.8-5.5,84.2-19.3-.9-13.3,4.7-14.4-19.7-1.1,5.5,0,.3-.7,3.9,7.1-35.1-12-55.7,20.7-68.5"/>
  <path class="cls-8" d="M502.26,494.83c.2,1.7-4.5,1.8-34.2,1.4-6.3-21.5,8.5-4.7,18.2-16.8,2.9-47.1-.2-56.2.7-27.8,19.2,8.4,16.3-16.3,15.3,43.1"/>
  <path class="cls-1" d="M448.16,276.73c12.1-3.4-.5,10.7,7.6,9.8-42.2.8-31-1.6-41.2-8,19.2-7.3,4.6-15.6,16.5-8.3,21.7-2.7,2.4-4.9,17.1,6.6"/>
  <path class="cls-1" d="M359.06,320.33c-4.7,50.2,7,42.6-26,37.3-7.6-4.1-4.3-13.2-3.6-13.1,1.6-42.6-2.1-14.8,13.5-26.2,10.6,4.4,22,.5,16,2"/>
  <path class="cls-5" d="M360.86,364.93c-2.4-3,2.4-12.1.4,55.5-6.3-67.1-21.4-62.6-30.9-74.6,4.3-34.9-5.2-24.3,11.4-26.3,26.4.2,17.1-12.8,19.1,45.4"/>
  <path class="cls-7" d="M539.26,334.43c-4.9.4-6.1,3.3-26,2.2-46.8-1.3,32,1.3-10.2-5.9,12-.6,18-1,31.1-3.9,1.1.3.5.5,5.1,7.6"/>
  <path class="cls-7" d="M551.06,362.63c.3,4.7,2.1,4.3-12.9,6.8-39.7,4.6-4.2-5.3-32.5-5.1,27.6-1.9,41.1-5.6,42.5-4.4-5.4-.2,4.5-3.7,2.9,2.6"/>
  <path class="cls-2" d="M97.56,435.13c2.3,66.7,3.7,66.2-6.5,63.8,2.7-81.3-1.3-88.3-3.8-52.1-.9-20.9,3.7,16.1,4.3-93.1.3,43.3,7.4,78.3,6,81.3"/>
  <path class="cls-8" d="M340.56,355.33c4.3,8.3,15.2,22.7,9.9,15.1-38.3-5.4,8.9,3.9-48.1,1.7,16.7-80.9-67.9-27.6,174.7-36.8-26.9,14.3-186.5-7.3-136.5,20.1"/>
  <path class="cls-8" d="M249.66,422.33c-15.9-63.3-35,11.9-37-5.8,16-18.5-21.9-32.4-24.3,2.5-41.8-4.2-30.1,14.5-31-29.9,112.7,6,88.8-18.3,92.4,33.2"/>
  <path class="cls-2" d="M94.56,293.63c-.7-45.2.3,16.9-.2,110.2-5.2-16.1-1.4-161.2-3.8-131.3,4.1-24.6-7.1-50.7,10-44.6-5,10.8-6.5-28.2-6,65.8"/>
  <path class="cls-9" d="M506.96,380.03c.4,55.9-1.4,71.8-1.3,40.6-3.9,15.1-.2-12.8-3.5-52.2,1.8,31.8,1.4,28.2,1.2,3,5.1,0,4.1-.9,3.6,8.6"/>
  <path class="cls-4" d="M242.16,248.73c-1.7,26.9,4,15.4-15.8,17.9-24.2,8.9-29.7-6.4-4.2,1.1,3.7-32.4-3.6-33,15.3-36.7,8.9-6.8,4.6,1.8,4.7,17.8"/>
  <path class="cls-9" d="M330.06,359.33c-2.9,13.8,8.6,9.6-25.1,10.6,2.4,1.7,1.5,4.5,1.8-33.6,1.6.5-7.8.5,22.7.6.4,1-.5-7.9.5,22.4"/>
  <path class="cls-8" d="M570.16,419.73c-5,16-6.7,18.2-19.9,29.6-.2,4-.1-18.2-.1-53.9-.3-3.5-1.3,11.7-.4-36.1,28.4,4.9,20.9,17.6,20.4,60.3"/>
  <path class="cls-9" d="M303.96,308.63c-1.3,31.9,1.6,23.7-1.1,25.3-26.6.6-21.6,0-21.9-2-1.1-35.3,2.5-28.8-3.2-29.5,35,.5,24.3-2.3,26.3,6.2"/>
  <path class="cls-9" d="M357.86,388.73c25.5-3.5,6.9-8.3-28.2,15.9-.7-85.9,4.6-35.7,2.9-14.5,13.6,10.9-9.1-37.6,25.3-70.2-.5,32.9.2,37.5,0,68.8"/>
  <path class="cls-1" d="M267.86,319.33c-1,34.2,11.1,29.7-123.8,28.6,7.3-9,115.5-.2,105.4-5.4.5-31.6-2.5-28.4,7.5-24.1,9.7,1.6,10.9-5.7,10.9.9"/>
  <path class="cls-2" d="M126.36,105.93c1.2-2.6-1.3,0,3-.8-32.8,0-48.9,0-43.9,0,16-14.7,10.4-12.6,22.2-15.7,7.1-1.1,16.6,3.8,18.7,16.6"/>
  <path class="cls-2" d="M303.06,415.53c29.2,5.7-.8-18.7-17.1-11.8-4-.9-2.2-2.8-5-1,0-35.2-.5-34.2,1.9-25.7,34,25.4.5,42.2,20.2,38.5"/>
  <path class="cls-7" d="M339.56,277.23c1.8-7.2,6,23.1-8.5,8.6-59.2-2.1-78.4,10.3-49.1-18.1,49.3,24.2,23.7-9.9,40.4,2.4,18.8-4.4,2.4-3.1,17.1,7.1"/>
  <path class="cls-8" d="M515.76,313.33c36.2-1.5-20.9,1.1-46.9-1.2,28.6-2.3,21.3,3.5,13.4,1.1,10.3-7.9,5.9-10.5,15.5-8,46.6,2.3,2.1-6.8,18,8.1"/>
  <path class="cls-8" d="M445.26,412.93c7.1-26.1-46.7-16-27.6-4.8-.5-15.7-.3-9.1-53.3-11.1,4.2-6.7-20.4-4.1,85.6-4.9-13.8,1.4,5.6-7.6-4.7,20.8"/>
  <path class="cls-8" d="M315.66,130.63c-.9,21,2,15-9.1,5.3.3-1,2.1,12.9-1.9,7.6.6-17.9-2.8-16.7,7.8-5.7,1.6-5.4-2.2-9.3,3.1-7.3"/>
  <path class="cls-9" d="M329.06,404.23c-2.8-3.5,4.9,1.2-5.6-1.2-21-.2-15.5,2.6-15.7-4.6,7.5-22.1,3.4-22.6,24.7-25.9-6.4-3.5-1.6,9.3-3.5,31.8"/>
  <path class="cls-4" d="M54.86,470.03c.9,4.7-.6,8.3-10.1,5.3-10.4-18.8-8.9-24-8.3-30.7-6-18.8-7.8-24.5,12.8-27.8,5.9,3.9,6.1-1.1,5.5,53.2"/>
  <path class="cls-1" d="M49.76,438.43c-1.1,2.1-5.8,5-10,15.6,2-7.2-9.6-16.2,11.5-86.6,1.2,49.2,2.1,102.8,1.8,182.9-69.1-57.4-9-103.1-3.3-111.8"/>
  <path class="cls-2" d="M464.06,203.03c10,10.4,6.6,5.8,7.8,27.9-21.4-15.1-11.6-7.4-18.2-36.5-228,1.9-251.6-8.5,17.8-5.5,3.3,19-21.8.7-7.4,14.1"/>
  <path class="cls-5" d="M330.16,406.33c-30.1-1.7,6.6,8-36,4.5,1.6-8.4,7.4-8.9-3-8.6-18.4,2.5,24.2,7.1-1.2.6,49.1,2.6,46-2.1,40.2,3.5"/>
  <path class="cls-7" d="M548.36,351.43c-.8-3.9-4.9,5.8-58.8.3,37.9,6.5,37.6-9.4,7.3-2.7,31.9-3.4,42.3-5.4,46.8-7.1-.8.7,0-4.8,4.7,9.5"/>
  <path class="cls-9" d="M468.86,334.23c-7,2.9-6.8,13.1-16,26-1.3-32.2-.7-33.6-1.2-41.1,1,8-1.5-.9,2.4-.3,16,5.1,17.4-5.8,14.7,15.4"/>
  <path class="cls-8" d="M429.06,363.73c1.5,7.7-36.1.9-63.2,4.3-3,15.4-3.4,39-3.1-6.4,13.5,13.5,49.2-10.9,11.3-15.8-16,23.7,13.7,15.5,55,17.9"/>
  <path class="cls-2" d="M105.16,203.83c-7,29-2,27.9-21.1,25.7.6-2.4-3-17-6-29.1,17.6,23.6,44.4-2.4,1.6,2.8,20.3-5.1,36.4-3.3,25.5.6"/>
  <path class="cls-9" d="M169.46,297.23c-3.8,57.7,4.3,44.7-1.5,45.7-15.8.9-9.1,2.4-10.5.1.2-35.1-5.3-29.3,27.6-42.5,6.9,31.2-10.2-3.3-15.7-3.4"/>
  <path class="cls-1" d="M317.96,376.43c10.2,30.9,12.5,27.5-11.9,25.3-3.2,1.7,2.7-2.9,1.2,2.3,0-28.4-.1-33.6-.2-31.2,34.9.4,23.8-.4,10.8,3.7"/>
  <path class="cls-2" d="M223.36,278.53c-18.7,10.2,6.5,7.3-26.2,8.3-9.9-5.7-18.7-10.8.8-9.6,11-5.8,5.3-11.2,9.8-9.4,15,9.6,13.2-11.3,15.5,10.7"/>
  <path class="cls-8" d="M416.66,325.93c.2,11.1-26.4,11.7-25.7-7.6,35.3,21.4,11.8-21.8,8.1,4-16.8-4-.7-15.4,1.6-15.5,15.1-2.6,19.5,12.1,15.9,19.1"/>
  <path class="cls-8" d="M306.76,405.73c-13.9.6-21.5,1.6-11-.2-6.6,11.2,6.3-.9-15.1.7-5.8-6.3,24.6,2.7,23.1-13.7.9-67.4,2.7-42.5,2.9,13.2"/>
  <path class="cls-8" d="M418.56,363.23c12.5,8.6-7-2.9-60.6.6,46.2,6.9,52.5,1.3,55.6-3.2-28.2,9.6-21.6-20.2-.2-11.9,14.7,13.8-29.5,25.5,5.3,14.5"/>
  <path class="cls-8" d="M447.26,386.13c-25,7.6,17.2-16.7-26.3-11.9-8.3,16.5,20.8,11.5-9.5,13,24.4-26.5-49.9-2.9-44.8-19.8,92.9,3.7,76.3-12.4,80.6,18.6"/>
  <path class="cls-8" d="M214.76,137.03c10.8,7.1-35.4,1.7-21.9,4.5-68.7,0-51.5,1.3-54.5-5,43.6.1,59.4-.3,68.2.6-17.7-.5-9,.3,8.2-.1"/>
  <path class="cls-8" d="M247.06,301.23c-24.9,10.3-14.5.4-14.1,42.5-17.8-1.2-11,5.4-11.3-23.9-.6-34.9.5-26.5-2.2-28.9,30.1,0,28.6-1.2,27.6,10.3"/>
  <path class="cls-9" d="M187.46,342.43c-23.4,12,14.1-61.4-27.6-26.7-3.6,8.1-1.9,4.4-2.7-14.9,1.8-12.2-6.1-8.9,21-10.3,12.6,2,7.8-11.2,9.3,51.8"/>
  <path class="cls-1" d="M241.56,324.13c6.5,14.9-1.6,17.6-6.2,19.6-7.2-1.7-10.9-5.6-10.6-10.5.9-7,6.6-8.4,10.8-8.7,5,19.8-12.9,8.4,6-.3"/>
  <path class="cls-10" d="M520.16,326.43c.3,6.8-1.1,3.8-29.9,4.1,30.7,8.5,24.7,3.1-18.3-3,4.9-10.9,11.7-6.6,36.8-6.9,39,.9,10-2.3,11.4,5.7"/>
  <path class="cls-9" d="M329.16,329.33c.1,7,5.4,4.7-20.2,5.1-5.1,1.1-.2-5.9-2.3-18.8,2.2-17.3-6.7-12.2,17.6-13.2,5.6,1.8,6-7.1,4.8,26.9"/>
  <path class="cls-9" d="M303.46,373.43c.8,33.7.2,30.9.2,30.1-39-.3-14.6,4.5-22.2-23.8,1.6-6.7-6.7-7.6,10.3-6.7,17.2.2,9.7-.2,11.7.4"/>
  <path class="cls-1" d="M249.76,295.63c-2.1,91.2,1,27.4-13.5,29.5,8.7-21.2-2.1-21-13.2-23.4-1.8-12.6-.5-9.8,7.3-10.3,24.4.6,18.5-2.4,19.4,4.2"/>
  <path class="cls-4" d="M523.96,212.03c-18.5,81.6,48.6,55.4-30.6,62.3,20.5-13.6,13.6-.3,15.2-45.7,4.1,11.9-9.3-17.6,12.9-20.9,36.1,2.1,1.8,43.8,2.5,4.2"/>
  <path class="cls-4" d="M262.06,478.33c6.4.9-23,20.7-14.7-4.7-30.1-.3-25.3-29.2-21.3,28.1-61-22.7-41.2-19,12.9-74.2,32.5-2.2-9.8.8,23.2,50.8"/>
  <path class="cls-2" d="M105.86,199.33c5.2-2.1,3.2,6.7,0,3.6-45.3,3.1-29.3-4.8-27.5-3.8,21.6-22.5-1-5.4,13-22.8,15.6,9.8-5.7,3.3,14.5,23"/>
  <path class="cls-3" d="M221.46,350.23c-.6-10.4-5.3-6.8-8.3-.3,5.5-15.1,7.2-20.6,6.7-6.3.7-9.2-6.1-16.4.5-57.7.8,47.8,2.2,53,1,64.3"/>
  <path class="cls-2" d="M556.56,272.63c-29.9-4.1-48.5-4.5-55.4-2.9.9-9.4-2.8-5.7,8.4-6.8-4.1-1,30.8-1.9,34.1,5.2-29-.5-32.2.8,13,4.4"/>
  <path class="cls-9" d="M186.46,271.23c20,16.9,20.2,15.7-4.2,15.4-11.4-11.2-14.9-21.6-12.6-2.3-1-16.8.9-16.6,1.5-16.8,14.1,7.3,14.1-6,15.2,3.7"/>
  <path class="cls-7" d="M216.16,136.03c.4,6.6,0,5.6,0,5.6-29,.2-22.2.5-27.9-2.4,10.6-2.2,21.6-.4,20.3.8-21.2-4-28.9-2.9,7.5-4"/>
  <path class="cls-3" d="M520.56,94.93c27-3.5,69.3,27.5-47.8,17.1,5.8-23,16.9-24.9,20.5-26.6-10.6,4.7-11.8,8-17.5,15.3,8.2-3.9,32.9,3.8,44.8-5.7"/>
  <path class="cls-8" d="M209.96,400.03c-4.3-80-25.2-22.1-5.7-14.1-21.7,0-8.1,6.1-15.7-37.1-2,.2-3.1-1,61.3-.2-3.3,118.6,4.4-67-39.8,51.3"/>
  <path class="cls-8" d="M258.46,269.53c24.7,24.4-13.8-1.2-7.1,17.4-52.8-.8-49.5-.5-36.1-.9-22.2-26.3-1.8-12.3,4.5-17.4,19.6,20.3,11.5-2,38.7,1"/>
  <path class="cls-8" d="M187.66,335.63c0-10.7-.2-3.4-.5-.7.8-7.5-.1-15,.9,52.9,4.2,13.8,2.3-40.9,2.7-73.9-4.5-14.1-2,17.5-3.1,21.6"/>
  <path class="cls-7" d="M260.16,429.13c-77.8,4.1-118.4-.4-74.6,2.4-12.8-.3-17.7-1-31.6-.7-3.8-6.2,21.1,1.2.5-3.3-2.2,1.2,50-.6,105.7,1.6"/>
  <path class="cls-2" d="M240.66,140.03c-5.1,8.5-1.8-8.4-10,1.8,19.9-.3-.9,4.8-1.8,2,1-16.6-3.6-13.1,8.3-13.3,6.2,7.5-2.8,3.1,3.5,9.6"/>
  <path class="cls-8" d="M102.96,203.93c-6.3,30.5-3.9,22.3-8.5,23.7-11.8-2.3-5.7,7.6-13.4-23.6,1.2.6,1.2,2.9,7,2.3,22.3,3.4,8.3-4.5,14.9-2.4"/>
  <path class="cls-10" d="M549.26,533.63c12.7-5.3-61.1-.8-62.3-3.8,41.5,3.8,13.1,4.7-138,3.4,152.3-5.8,174.2.9,159.9-1.4-21.2,3-17.2,1.4,40.4,1.8"/>
  <path class="cls-5" d="M50.96,453.83c1.5-9.6.3-9.5-4.9-3.2,1.4-2.5,4.1-11.5,7.1,20.9-.6-25.4,1.1-61.6-2.1-49.1-1.1,16.4-1.9,27.6-.1,31.5"/>
  <path class="cls-8" d="M442.16,356.23c-4.5,15.6,15.2,9.8-21.8,11.4,1-8.6,13.5-1,1.5-7.3-5.4-16.7,10.7-11,2.6-11.8,4.9-.5,23.6-2.3,17.7,7.7"/>
  <path class="cls-1" d="M114.16,477.73c-2.9,23.5.8,18.2-12.8,19.2,2.7,1.5-2.8-2.8-1.3-16.8-2-18.5.7-.7-.2-2,39.2,1.1,31.6-.8,14.3-.4"/>
  <path class="cls-9" d="M517.66,321.43c1.7,10.7,7.7,7.9-26.3,7.8-7.4-1.1-13.6-1.3-17.3-3.2,12.1-12.4-4.3-5,8.7-5.9,8.1.5,11.6,2.8,34.9,1.3"/>
  <path class="cls-3" d="M479.26,227.43c-1.5-4,17.3,19.4,20.4,77.2-33.2,14.2-40.9-89.1-46.7-107.8,38.3-1.4,17.3,11.2,25.7-56-.5-20-27.1-25.3.6,86.6"/>
  <path class="cls-2" d="M388.66,318.43c4,4.3-5.1,19.2-15.5,13.4-14-6.1-5.7-30.7,3.9-6.3,19.7-18.8-22.5-3.1-5.3-15.4,13.8-6.7,20.4,11.5,16.9,8.3"/>
  <path class="cls-3" d="M470.96,288.03c1.1,68.1,2.3,24.7-13.1,66.3-.6-51.1,5.2-91.2-5.7-75.2-1.6,42.4-3.6,42.6,7.2,40.2,35.3-2-23.7-41.4,11.6-31.3"/>
  <path class="cls-9" d="M185.06,413.53c-10.5,8.6.1,3.4-27.4,6.2,23.3-2.1,2.7.8,4.1-11-.6-8.3,10-11.9,6-8.5.9-3.8,22.8-5.7,17.4,13.3"/>
  <path class="cls-7" d="M544.76,269.03c10.7,1.8-31.5-.8-42.8-1.6,28.8-9.8,38.3-3.7,34.6-6.8-.4,8.4,6.4-16-6.2-1.8,9.2-3.8,16.9-23.9,14.4,10.3"/>
  <path class="cls-1" d="M386.56,486.93c-.9,13.4,6,8.7-18.7,10-4.5-9.3-11.2,2.6-8.8-10.3-27.6,0,15.7-2.3,41-2.3-15.8-.7-20.1-1.7-13.5,2.6"/>
  <path class="cls-2" d="M441.46,439.03c2,8.5-16.7.4-9.1,6.7-.6-4.4-12.7,0-50.1-2.8-9-10.7,21.7-4.4,61.7-7.9-39.4,4.6-3.6-.5-2.6,4"/>
  <path class="cls-2" d="M544.96,99.93c-48,0-69.8-.2-72.3,0,18.3,29.4-21.7,49.7-18,.8,20.7-20.6,21.4-34.8,20.2-7.9,49.1,2.1,82-3.3,70.1,7"/>
  <path class="cls-9" d="M221.26,314.13c-3.7,12.6,4.9,96.5-3.4,70.8-.1-15.7-.2-72.8.6-72,5.2,17.5-1.1-5.3.4-25.3,3.5,98,2.2,81.1,2.4,26.4"/>
  <path class="cls-2" d="M516.46,365.33c19.2-6.7,2.9,0-35.8-1.9,29.8-.2,12.1-1.4-20.8-4.8,20.9-8,39.1-3,69-3.4,4.7,18.1-68.6,6.4-12.3,10.1"/>
  <path class="cls-8" d="M177.86,391.33c-4.9-4.8,97.3,3.3,74.2-6.4-133.1-1.7-32.2,6.9-98.9,4.8,29.7-16.3,12.9,13.4,15.3-30,3.7-14.1,17.1-9.8,9.4,31.6"/>
  <path class="cls-10" d="M418.96,530.73c-163.9-.4-158.2,1.6-118.1-1.6-44.5,4.3-105.1-.9-279.9,3.1,198.9,4,262.6-.8,229.7,1.9-17.7-2.8,40.1,2.8,168.3-3.4"/>
  <path class="cls-8" d="M545.56,499.43c8.3-1.2,2.6,9.9,4.7,23.2-30.4.3-21.9.7-25.7-7.5,6.5-2.6,6.5-4.4,14.6-13.5-7.7-2.9-6-4.2,6.4-2.2"/>
  <path class="cls-8" d="M55.16,54.93c-3.8-13.9-.8,17.6-3.2,10.4-12,3.4-13.1-2.2-14.5-12,2.8-12.6,4.2-14.3,15.5-18,.1,5.6-.8,16.6,2.2,19.6"/>
  <path class="cls-5" d="M494.36,357.33c6.6,6.2-5.6,5.6-30.2,3.1-10.1-1.6-8.5-2.9-9.8-.4,2.5-10.9,4.8-12.5,6.2-10.9,13.6,4,24.1,3.1,33.8,8.2"/>
  <path class="cls-1" d="M142.86,476.33c-2,31.8,8.8,15.5-1.1,20.5-30.9-1.6-31,5.4-25.3-12.5-23.8,3,14.3,7.2-8.1,1.8,28.2-3.7,38.9,4.6,34.5-9.8"/>
  <path class="cls-8" d="M168.96,356.53c-6.1,21.2-3.7,21.4-2.1,26.3-11.3,5.3-8.3,1.6-9.2-32.2,1.2-2.4-10.2-.4,29.4-2.2,3.3,6.4-11.9-4.1-18,8.2"/>
  <path class="cls-2" d="M200.56,435.63c1.8,12.2-2.5,6.4-35.6,9.3,12.9-1.9-11.3-1-3-3.7-2.6-5.3,3.1-2.3,4.5-5.4,30.5,1.4,90.7.2,34-.2"/>
  <path class="cls-9" d="M450.96,311.13c.2,7.4.5,26.1-.2,24.5-37.7-.2-8.1,2.3-5.8-9.7-6.3-14.7-28.3-16.3-9.1-24.8,16.7,10,14,24.5,15.1,10"/>
  <path class="cls-3" d="M271.86,356.03c.4-.6-1.4,33.2.5,50.3-7.3-38-1-42.9-3.7-35.2.5-2.1-.6-11.1,1.2-96.2,2.7,34.6,2.4,95.6,2,81"/>
  <path class="cls-3" d="M272.46,413.43c-.9-3.5,0,.8-.1,43.5-6.8-14.7.9-30.1-1.1-7.3-3.6,4-2.2-12.4-2.5-66.8,4.8,28.1,3.6,47.8,3.7,30.5"/>
  <path class="cls-5" d="M530.46,320.13c-1.7-2.4-6.7,4-25.6-1.9,17.4,3,6.7,1.6,9.6-4-23.7,5.4-5.4,0,7.9-1.9,2.1-2.1,1.2-1,8.1,7.8"/>
  <path class="cls-5" d="M306.06,188.63c-30.6,23.6-15.6-7.9-54.4,10.3-5.7-15.5-94.4,9-117.9-9,69.3-4,140.2,2,80-1.5,15.9.4,72.2.4,92.3.3"/>
  <path class="cls-2" d="M373.86,406.63c85.5.8,75.3-2.4,75.1,3-114.5,0-75.2-1.7-83.8,9-4-19.7,1.7-29.3,5.7-22.3-.3,4.9-1.7,12,3,10.3"/>
  <path class="cls-9" d="M217.66,291.53c-.7,25.5.6,38.3-.4,52.1-36.4-3.7-23.1,13.5-26.7-36,2.3-24.1-8.1-13.7,18.6-17.8-15.6,2.1,5.6.3,8.5,1.7"/>
  <path class="cls-2" d="M292.06,487.33c-.9,0,2.6-.6-8.6-.1-6.2,1.3-29.2.4-24.9.4-2.8-9.2,17.2-3.7,27-6,7.4,2.3,6.4-3.3,6.4,5.7"/>
  <path class="cls-7" d="M445.66,341.03c1.3,59.5,4.8-15.9-25.9,11.9,5.4,9.6-16.9-15.6-26.4-11.4,36.5-1.8,40.9-.7,48.6-.8-19-1-17.9-1.8,3.7.3"/>
  <path class="cls-8" d="M179.16,316.53c-2.8,4.4-17.8-9.7-.5,8.9-9.9-2.1-9.8-1.5-9.7-13.2,1.8-5.8,4-8,5.5-7.6.6-.8,8.4,2.7,4.7,11.9"/>
  <path class="cls-2" d="M212.26,370.23c1.4,6.4-2.4,13.2-7.1,14.9-4.6,0-10-5.8-9.2-13.4,3.2-10.1,1.9-12.7,9.6-15.5,7.9,2.6,4.6,11.2,6.7,14"/>
  <path class="cls-8" d="M549.16,484.83c5.2,7.1-4.4.6-17.3,5.1.2-1.2-16.7,6.3-20.7.8-8.4-16.1,14.8-9.5,23.6-11.6,18.9.3,16.4-1.5,14.3,5.7"/>
  <path class="cls-9" d="M409.76,341.43c4.3,14.9-11.8-8.9-18.2,24.2,2.7-39.1-33.7.4-30.5-24.4,38.4,0,39.1-.3,44.2.3-19.5-1.1-18.7-1.1,4.5,0"/>
  <path class="cls-5" d="M432.46,327.43c17.1-23.8,16.1,4,3.4,7.1-16.6,1.6-15.6-11.3-15.5-16.2-.6,5.2-1.4-13.9,18.5-7.6,21.3,18.7-26.6-5.3-6.4,16.7"/>
  <path class="cls-2" d="M271.66,439.33c0,20.6,6,26.6-3,26.3.6-19.9-.1-27.3,1.2-11.7-.6-3.4-.3-15.4,0-32.2,3.9,40.9,1.4,35.9,1.7,17.6"/>
  <path class="cls-8" d="M180.46,310.43c-.6,21.5,2.5,28.2-5.5,36.6-1,2.8-7-1.1-5.4-27.5,2.8-7.5-2.4-8.8,3.2-7.9,4.9,2.7,6.5,1.3,7.7-1.1"/>
  <path class="cls-8" d="M416.96,482.43c.7,17.1-1.3,14.6,2.6,14.1-20.9,0-21.7,1.9-23.6.2,7.7-19.7,13.6-8.6-1.1-14,25.9,3.6,22.1,3.4,22-.3"/>
  <path class="cls-9" d="M556.96,40.13c2.4-2-1.1-2.1-17.9-2.1-.7-1.6-6.8-6.6-7.4-4.9,8.6-5.2,7.5-9.2,20.1-20.7,1.7,16.6,1.6,18.7,5.1,27.6"/>
  <path class="cls-9" d="M308.36,161.03c-6.9-4.1,8.5,16.3-7,.5.3,8.1-3.4,10.2-3-5.6-4.4-8.3,24.4,1.7,2-.6,2.8,15.8,10.9-13.1,8.1,5.7"/>
  <path class="cls-3" d="M253.46,460.43c2.1,13.6-5,11-7.1,14.2-7-2.3-9.3-2.3.3-10.1-1.6-2.7-5.1,4.6-1.8-10.4,8.1-27.3-2.3-.2,8.6,6.2"/>
  <path class="cls-5" d="M411.16,419.23c13.3-3.3,32.4,7-10.6,4.1-71.1,2-50-2.1-24.9-4.8,30.6,2,33.7-1.7,27.1.5,2.3-8.8-5.9,2.5,8.4.2"/>
  <path class="cls-4" d="M523.06,131.83c-6.4,53.7,8.5,49.9-14.9,50.3.8-37.3-2.5-41.2,6.4-8.2-.2-6.8-16.6-39.3,3.7-46,36.5-2.2,10.5,50.7,4.8,3.9"/>
  <path class="cls-3" d="M253.96,468.33c-3.5,3.3-.5,4.8-4.9,5-12.1-.1-26.8-2-10.5-1.5,5.3-12.2,2.8-6.7,10.3-8.7-1.1-3.1,2.8-8.4,5.1,5.3"/>
  <path class="cls-1" d="M221.26,484.83c.6,15.6,11.4,11.4-28.9,11.1,3.5,4.6-1.2-17,3-2.2-2.1-8,4.8-10.3.7-9.3,20.1,0,27.2.3,25.1.3"/>
  <path class="cls-8" d="M460.66,492.63c2.3,4.9-12.4-3.7-12.8,0,0,.5-5.8-.9-14.8,7.8,3.6-31.3,5.5-52.8,8.4-12.9,21.2.8,19-4.6,19.2,5"/>
  <path class="cls-7" d="M465.76,428.93c2.7,2.7-8.9.7-52.7,2.6-42-2.4-56.4,1.5-56.7-2.8,31.1-2.7,52.8,1.8,69.2-2-33.6,6.5-9.4-1.7,40.2,2.2"/>
  <path class="cls-8" d="M168.06,379.23c1.3,6.5,11.7,5.2-10.2,5.8-.8.5-.1-18-.5-35.5,5,26.9.4,15.4,4.6,7.7,8.2-5.9,4-.6,6.1,22"/>
  <path class="cls-2" d="M238.46,306.23c-.4-.9,2.9,15.2-3.9,18.1.3,1.6-1.5.9-3.9-5.8-1.5-13.4,5.9-11.5,8.6-12.4-8.6-2.2.5,3.7-.8,0"/>
  <path class="cls-2" d="M174.76,439.93c-3.2,4.8-15.7,2.3-37.2,4.2,28.5,2.4,8.3-1.5,11.9,2.2-10.5-7.8-5.2-7.7-.6-9.7,15.4-.7,21-.4,25.8,3.3"/>
  <path class="cls-8" d="M209.76,328.53c-3.2-10,4.4,7-4.6,17.8-7.6-7.9-6.4-4.4-6.7-28.7,0-15.3,4.7-13.8,5.9-12.8,3.7,1.4,6-3.9,5.3,23.7"/>
  <path class="cls-8" d="M471.56,141.23c-20.5,1.1-33-2.6-21.7-.4-5.9.3-14.6-1.1-50.7-1.1,17-4.8,24.6-2.7,71.4-3.4,1.8-.2.9.9,1,4.8"/>
  <path class="cls-5" d="M206.86,131.73c-39,2.5-78-1.9-51.8.6-12.9.5-38.8,0,1.9-1.4-5.1-8.9-3.3-4.8,15.4-6-11,8.4-25.6,6.3,34.5,6.9"/>
  <path class="cls-4" d="M454.86,149.93c12.5-21.5-38.5-7.1-15,.8-38.8-1.4-31.2,2.8-32-3.6,16.1-1.3,33.5,3.6,27.6-9-13.9-2.5-1.6,19.2,19.4,11.9"/>
  <path class="cls-8" d="M209.76,366.33c3.8,9.1.2,15.1-8.5,16.9-4.1-4.8-6-10.2-3.5-15.4-1.9-4.2,2.8-11,5.7-11.7,2-1.3,7.7,1.5,6.3,10.3"/>
  <path class="cls-9" d="M462.36,486.93c1,13.9,8.2,8.3-26.6,9.9,3.8,4.5-4.2,1.5,4.7-18.6,1.7,7.6-2.7,6.8,7.4,6.8,16.8,1.3,12.7-2.7,14.6,1.8"/>
  <path class="cls-8" d="M187.56,376.03c-1.7,12.4,3.3,8.1-10.9,9,4.7-.7,2-8.7,3.4-25.7.5,14.6,2.5-7-7.6-8.3,18.2-2.9,13.9-7,15,25"/>
  <path class="cls-7" d="M419.56,323.93c1.2,18.2,50.1,8.8-61.9,12.5,4.8-4.8,17.3,0,24.2-4.4,4.4-3.1,7.3-4.3,7.8-10.8-3.3-12.9,6.8,32.4,29.9,2.8"/>
  <path class="cls-2" d="M392.06,382.93c-9.6-11.6,25.6,9-18.4,3.9-15.1,3.8-6.3-4.4-7.8-18.8,1.1,7.2-4.2-2.5,6.5,6.8,1.6-10.8-13.7,22.3,19.7,8.1"/>
  <path class="cls-8" d="M358.76,138.63c-5,1.6,6.5,6.8-1.4,6.1-9-14.3-1.8,5.3-8-1.3.5-14.5-2.2-12.6,4-13.1,4.7-.8,8.3,5.4,5.4,8.3"/>
  <path class="cls-2" d="M217.46,132.33c-11.9.7-63.3.2,6.6-.9,2.2-1.4-48.9-.3-81-.9-2.1-10,36-4.2,73.1-5.5,3.2,1,1-3,1.2,7.4"/>
  <path class="cls-2" d="M448.76,137.63c-7.4,5.7-14.4,1.9-20.3,3.9-44.2-.7-34.2,2-36-4.9,39.9-.2,45.3,0,32.9.8-4.1-.5,1.2-1.4,23.3.1"/>
  <path class="cls-10" d="M286.46,412.63c-4.4,31.7,2.6,24.5-5.7,43.6.4-9.5-1.3-35.6.2-29.3,1.2,7.5-1.5-2.7,0-12.8,16.6-2.8,4.6,14.7,5.4-1.5"/>
</svg>