<?xml version="1.0" encoding="UTF-8"?>
<svg id="_图层_1" data-name="图层_1" xmlns="http://www.w3.org/2000/svg" version="1.1" viewBox="0 0 512 509">
  <!-- Generator: Adobe Illustrator 29.0.0, SVG Export Plug-In . SVG Version: 2.1.0 Build 186)  -->
  <defs>
    <style>
      .st0 {
        fill: #fbeacb;
      }

      .st1 {
        fill: #fff5dd;
        opacity: .9;
      }

      .st1, .st2, .st3, .st4, .st5, .st6, .st7, .st8, .st9, .st10, .st11, .st12, .st13, .st14, .st15, .st16, .st17, .st18, .st19, .st20, .st21, .st22, .st23, .st24, .st25, .st26, .st27, .st28, .st29, .st30, .st31, .st32, .st33, .st34, .st35, .st36, .st37, .st38, .st39, .st40, .st41, .st42, .st43, .st44, .st45, .st46, .st47, .st48, .st49, .st50, .st51, .st52, .st53, .st54, .st55, .st56, .st57, .st58, .st59, .st60, .st61, .st62, .st63, .st64, .st65, .st66, .st67, .st68, .st69, .st70, .st71, .st72, .st73, .st74, .st75, .st76, .st77, .st78, .st79, .st80, .st81, .st82, .st83, .st84, .st85, .st86, .st87, .st88, .st89, .st90, .st91, .st92, .st93, .st94, .st95, .st96, .st97, .st98, .st99, .st100, .st101, .st102, .st103, .st104, .st105, .st106, .st107, .st108, .st109, .st110, .st111, .st112, .st113, .st114, .st115, .st116, .st117, .st118, .st119, .st120, .st121, .st122, .st123, .st124, .st125, .st126, .st127, .st128, .st129, .st130, .st131, .st132, .st133, .st134, .st135, .st136, .st137, .st138, .st139, .st140, .st141, .st142, .st143, .st144, .st145, .st146, .st147, .st148, .st149, .st150, .st151, .st152, .st153, .st154, .st155, .st156, .st157, .st158, .st159, .st160, .st161 {
        isolation: isolate;
      }

      .st2 {
        fill: #fffef0;
        opacity: .9;
      }

      .st3 {
        fill: #000717;
        opacity: .6;
      }

      .st4 {
        fill: #283a45;
        opacity: 1;
      }

      .st5 {
        fill: #fcfbfb;
        opacity: .9;
      }

      .st6 {
        opacity: .9;
      }

      .st6, .st155 {
        fill: #fffae5;
      }

      .st7 {
        fill: #00152a;
        opacity: .8;
      }

      .st8 {
        fill: #243540;
        opacity: 1;
      }

      .st9 {
        opacity: .9;
      }

      .st9, .st16, .st124, .st125 {
        fill: #fffeff;
      }

      .st10 {
        fill: #223641;
        opacity: .9;
      }

      .st11 {
        fill: #ffedd0;
        opacity: .9;
      }

      .st12 {
        fill: #d54e00;
        opacity: .3;
      }

      .st13 {
        fill: #00122a;
        opacity: .8;
      }

      .st14 {
        fill: #14283a;
        opacity: .8;
      }

      .st15 {
        fill: #c6d8d2;
        opacity: 1;
      }

      .st16 {
        opacity: .9;
      }

      .st162 {
        fill: #283a42;
      }

      .st17 {
        opacity: .9;
      }

      .st17, .st33, .st93, .st108, .st138, .st158 {
        fill: #fff;
      }

      .st18 {
        fill: #fff0d0;
        opacity: .7;
      }

      .st19 {
        fill: #202f39;
        opacity: .9;
      }

      .st20 {
        fill: #fff2dd;
        opacity: 1;
      }

      .st21 {
        fill: #fbead3;
        opacity: .8;
      }

      .st22 {
        fill: #24363f;
        opacity: 1;
      }

      .st163 {
        fill: #f6ecd7;
      }

      .st23 {
        fill: #22545c;
        opacity: .5;
      }

      .st164 {
        fill: #dddccb;
      }

      .st24 {
        fill: #293c46;
        opacity: 1;
      }

      .st25 {
        opacity: .9;
      }

      .st25, .st90 {
        fill: #fffce7;
      }

      .st26 {
        fill: #0a101c;
        opacity: 1;
      }

      .st165 {
        fill: #f9f2e1;
      }

      .st27 {
        fill: #fffde2;
        opacity: .8;
      }

      .st28 {
        fill: #fff4d9;
        opacity: .7;
      }

      .st29 {
        fill: #132c3b;
        opacity: .8;
      }

      .st30 {
        fill: #bf5011;
        opacity: .3;
      }

      .st31 {
        fill: #faf9f9;
        opacity: 1;
      }

      .st32 {
        fill: #c5e4dc;
        opacity: .4;
      }

      .st33 {
        opacity: .9;
      }

      .st34 {
        fill: #002f57;
        opacity: .6;
      }

      .st35 {
        fill: #fcfbfc;
        opacity: .9;
      }

      .st36 {
        fill: #001727;
        opacity: .6;
      }

      .st166 {
        fill: #fbf9f8;
      }

      .st37 {
        fill: #efa474;
        opacity: .8;
      }

      .st38 {
        fill: #1f2a36;
        opacity: .9;
      }

      .st39 {
        fill: #fffaea;
        opacity: .9;
      }

      .st40 {
        fill: #b4a388;
        opacity: .5;
      }

      .st41 {
        fill: #253841;
        opacity: .9;
      }

      .st42 {
        fill: #ffffe9;
        opacity: .8;
      }

      .st43 {
        fill: #fffff1;
        opacity: .7;
      }

      .st44 {
        fill: #f2d2b5;
        opacity: 1;
      }

      .st45 {
        fill: #1e3642;
        opacity: .9;
      }

      .st167 {
        fill: #213641;
      }

      .st46 {
        fill: #f0fffa;
        opacity: .7;
      }

      .st47 {
        fill: #000613;
        opacity: .6;
      }

      .st48 {
        fill: #e4a677;
        opacity: 1;
      }

      .st49 {
        fill: #0f2b3d;
        opacity: .6;
      }

      .st50 {
        fill: #21343f;
        opacity: 1;
      }

      .st51 {
        fill: #fff7e2;
        opacity: .9;
      }

      .st52 {
        fill: #203643;
        opacity: 1;
      }

      .st53 {
        fill: #fffff2;
        opacity: .6;
      }

      .st54 {
        fill: #80e9ee;
        opacity: .1;
      }

      .st55 {
        fill: #023;
        opacity: .7;
      }

      .st56 {
        fill: #dfe7d9;
        opacity: 1;
      }

      .st57 {
        fill: #be763d;
        opacity: .5;
      }

      .st58 {
        opacity: .9;
      }

      .st58, .st153 {
        fill: #fffbe5;
      }

      .st59 {
        fill: #253844;
        opacity: 1;
      }

      .st60 {
        fill: #fef7e4;
        opacity: 1;
      }

      .st61 {
        fill: #314f59;
        opacity: .6;
      }

      .st62 {
        fill: #00081b;
        opacity: .8;
      }

      .st63 {
        fill: #046d76;
        opacity: .4;
      }

      .st64 {
        opacity: .8;
      }

      .st64, .st130 {
        fill: #ffffed;
      }

      .st65 {
        fill: #22353f;
        opacity: 1;
      }

      .st66 {
        opacity: .9;
      }

      .st66, .st157 {
        fill: #fffbe4;
      }

      .st67 {
        fill: #05142a;
        opacity: .8;
      }

      .st68 {
        fill: #fffff9;
        opacity: .7;
      }

      .st69 {
        fill: #fbf8f9;
        opacity: .7;
      }

      .st70 {
        fill: #fffdfe;
        opacity: .9;
      }

      .st71 {
        fill: #293b45;
        opacity: 1;
      }

      .st72 {
        fill: #273b46;
        opacity: 1;
      }

      .st73 {
        fill: #1a2d39;
        opacity: .9;
      }

      .st74 {
        fill: #ffdfb0;
        opacity: .3;
      }

      .st75 {
        fill: #fefdfe;
        opacity: .9;
      }

      .st76 {
        fill: #75a0a4;
        opacity: .5;
      }

      .st77 {
        fill: #00384d;
        opacity: .5;
      }

      .st78 {
        fill: #ffbc93;
        opacity: .5;
      }

      .st79 {
        fill: #001222;
        opacity: .5;
      }

      .st80 {
        fill: #034867;
        opacity: .3;
      }

      .st81 {
        fill: #001530;
        opacity: .9;
      }

      .st82 {
        fill: #f7ae81;
        opacity: .8;
      }

      .st83 {
        fill: #fff4dd;
        opacity: 1;
      }

      .st84 {
        fill: #ffdcba;
        opacity: .9;
      }

      .st85 {
        fill: #fbfafa;
        opacity: 1;
      }

      .st86 {
        fill: #97aba5;
        opacity: .7;
      }

      .st87 {
        fill: #213440;
        opacity: .9;
      }

      .st88 {
        fill: #fed5ae;
        opacity: .9;
      }

      .st89 {
        fill: #f2e5cf;
        opacity: .9;
      }

      .st90 {
        opacity: .9;
      }

      .st91 {
        opacity: .8;
      }

      .st91, .st145 {
        fill: #ffffec;
      }

      .st92 {
        fill: #1d2e3b;
        opacity: .9;
      }

      .st93 {
        opacity: .9;
      }

      .st94 {
        fill: #eabb99;
        opacity: .8;
      }

      .st95 {
        fill: #ffcca0;
        opacity: .9;
      }

      .st96 {
        fill: #243640;
        opacity: 1;
      }

      .st97 {
        fill: #fff1d3;
        opacity: .7;
      }

      .st98 {
        fill: #fff3d4;
        opacity: .6;
      }

      .st99 {
        fill: #fff2d7;
        opacity: .9;
      }

      .st168 {
        fill: #fbf2df;
      }

      .st100 {
        fill: #001a29;
        opacity: .6;
      }

      .st101 {
        fill: #192933;
        opacity: .9;
      }

      .st102 {
        fill: #006e77;
        opacity: .4;
      }

      .st103 {
        fill: #fffae7;
        opacity: 1;
      }

      .st104 {
        fill: #ffd9ae;
        opacity: .9;
      }

      .st105 {
        fill: #fff4dc;
        opacity: 1;
      }

      .st106 {
        fill: #fff3d9;
        opacity: .9;
      }

      .st107 {
        fill: #203a47;
        opacity: .9;
      }

      .st108 {
        opacity: .9;
      }

      .st169 {
        fill: #283e49;
      }

      .st109 {
        fill: #ffffeb;
        opacity: .8;
      }

      .st110 {
        fill: #040c17;
        opacity: .8;
      }

      .st111 {
        fill: #ede1cb;
        opacity: 1;
      }

      .st112 {
        fill: #001327;
        opacity: .8;
      }

      .st113 {
        fill: #00315a;
        opacity: .6;
      }

      .st114 {
        fill: #263943;
        opacity: 1;
      }

      .st115 {
        fill: #728f9c;
        opacity: .7;
      }

      .st116 {
        fill: #41575f;
        opacity: 1;
      }

      .st117 {
        fill: #fffdff;
        opacity: .9;
      }

      .st118 {
        fill: #ffc597;
        opacity: .9;
      }

      .st119 {
        fill: #ffe;
        opacity: .9;
      }

      .st120 {
        fill: #fff5de;
        opacity: .9;
      }

      .st121 {
        fill: #003450;
        opacity: .5;
      }

      .st122 {
        fill: #13222d;
        opacity: .8;
      }

      .st123 {
        fill: #fedbb3;
        opacity: .9;
      }

      .st124 {
        opacity: .9;
      }

      .st125 {
        opacity: .9;
      }

      .st126 {
        fill: #233d4a;
        opacity: .9;
      }

      .st170 {
        fill: #efffff;
      }

      .st127 {
        opacity: .8;
      }

      .st127, .st160 {
        fill: #ffffef;
      }

      .st128 {
        fill: #253e4e;
        opacity: 1;
      }

      .st129 {
        fill: #174f6e;
        opacity: .4;
      }

      .st130 {
        opacity: .8;
      }

      .st131 {
        fill: #f6d5b1;
        opacity: .9;
      }

      .st132 {
        fill: #fffce3;
        opacity: .8;
      }

      .st133 {
        fill: #162429;
        opacity: .8;
      }

      .st134 {
        fill: #14242f;
        opacity: 1;
      }

      .st135 {
        fill: #004759;
        opacity: .6;
      }

      .st136 {
        fill: #202936;
        opacity: .9;
      }

      .st137 {
        fill: #001126;
        opacity: .7;
      }

      .st138 {
        opacity: .9;
      }

      .st139 {
        fill: #00485b;
        opacity: .6;
      }

      .st140 {
        fill: #00010d;
        opacity: .9;
      }

      .st141 {
        fill: #ffbf8a;
        opacity: .7;
      }

      .st142 {
        fill: #152b40;
        opacity: .9;
      }

      .st143 {
        fill: #004c5f;
        opacity: .6;
      }

      .st144 {
        fill: #f0fff3;
        opacity: .3;
      }

      .st145 {
        opacity: .8;
      }

      .st146 {
        fill: #fff1d6;
        opacity: .9;
      }

      .st147 {
        fill: #ffdeb8;
        opacity: .9;
      }

      .st148 {
        fill: #295667;
        opacity: .8;
      }

      .st149 {
        fill: #f9fafa;
        opacity: 1;
      }

      .st150 {
        fill: #12202f;
        opacity: .9;
      }

      .st151 {
        fill: #ffe4be;
        opacity: .9;
      }

      .st152 {
        fill: #132a37;
        opacity: .8;
      }

      .st153 {
        opacity: .9;
      }

      .st154 {
        fill: #003f50;
        opacity: .7;
      }

      .st155 {
        opacity: .9;
      }

      .st156 {
        fill: #fff5db;
        opacity: .9;
      }

      .st157 {
        opacity: .9;
      }

      .st158 {
        opacity: .9;
      }

      .st159 {
        fill: #00496a;
        opacity: .3;
      }

      .st160 {
        opacity: .8;
      }

      .st161 {
        fill: #fff3dc;
        opacity: .8;
      }
    </style>
  </defs>
  <path class="st54" d="M368.6,45.3c0,46.2,3.8,49.9-29,54-52.5-2.7-58-4.5-54.8-76.3,20.7,1.7,17.8,1.6,28.3-8.8,51-6.4,57,2,55.5,31.1"/>
  <path class="st108" d="M526.7,260.5c-10.3,2.7-4,23.6-8.7,64.6-17.5,17.2-14.4,34.1-14.9-82.8,1.5-3.1.7,20.4,1-96.4,67.4,28.7,19,86.1,22.6,114.5"/>
  <path class="st116" d="M412.1,451.3c4.7-18.3,8,37.4,5.6,36.4-21.3-4.7-16,14.7-9.1-23-136.6-1.7-142.7,1.8,11,3.1.4-64.6,4.8-74.5-7.6-16.5"/>
  <path class="st158" d="M6.9,259c0-18.5,0-1.9,0,132.7-96.4-45.9-29.4-100.7-36-142.7,16.4-7.2-6.4-33.6,35.9-61.1.2,47.1,0,62.5.1,71.2"/>
  <path class="st33" d="M160.5,6c-109,.1-121.7-.7-47.1,2.9.5-.5-14.9-3-120.5-2C25.8-64.7,73.4-14.9,132-13.1c25.7-6.3,28.3-3.5,28.5,19.1"/>
  <path class="st61" d="M265.6,381.1c-46.2-3.4-17.4-35.5-14.5-86.9-30-17.2,11-21.7-141.5,87.1,1.7-207.4-56.8-128.2,316.2-147.4,7.9,157.4-97.1,72.7-160.2,147.1"/>
  <path class="st17" d="M7,122.5c-.3-23.4,0,1.9-.1,82.7-53.4-19-20.7-55-18.5-77.2,5.5-11-.4-16.6,10.2-91.9C9.7,21.5,6.2,10.1,7,122.5"/>
  <path class="st149" d="M298.5,501c.3,26,.2,17.9-21.4,13.3-6.6,7.2-13.2,14-11.3-14.7-22.9-1-70,1.8,113.9.9-151.1,2.2-124.2-.3-81.2.5"/>
  <path class="st70" d="M493.8,6c-68.9,0-53,0-48.5,0-58,0-85.8,0-161.8,0,39.8-68.9,88.2-24.3,118.9-12.1,20.2-13,70-53.2,91.5,12.1"/>
  <path class="st25" d="M232.8,208.6c-.9,35.6,3.2,33.7-10.9,35.9-14.6-4.5-6.5-6.8-6.6-69.8,4.1-10.8-8-8.2,17.6-8.7.2-2,0,13.3,0,42.6"/>
  <path class="st120" d="M226.1,467.6c-10.5,39.3-99.6,14.9-145.9,23.2-67.3-4.7-94.5,11.8-97.4-23.4,70.4-1.5,115.2,3.6,71,.7,14.6-2.9,45.5,0,172.3-.5"/>
  <path class="st157" d="M391.3,61c2.8-3.5-.7,5.2-10.4,8.6-15.3,1.8-21.9-14.7-15.2-23.8,5.6-5.2,3.9-5.9,13.3-5.7,6.8-.8,18.1,8.5,12.2,20.9"/>
  <path class="st66" d="M303,197.2c2.6-1.6.3,6-2.7,10.5-21.3-12.9-10.9-.2-15.5-53.1.8,14.8-5.4,9.5,17.7,10.8.7-7,.5,24.3.5,31.8"/>
  <path class="st51" d="M304.9,209.8c-.4,28.9,3.6,34.2-10.6,35.1-12.9-7.7-2.3.7-7.3-6.8.2-50.6-2.1-62.9,8.9-54.1,4.8,11.8,8.8,11.1,8.9,25.8"/>
  <path class="st83" d="M481.3,489.9c-76.7,0-126.8-.3-118.5.7-23.3.1-81,0-129.5,0,7.8-40.3,27.7-19.9,167.3-23.3,111.8,3.3,104.3-9.8,80.8,22.6"/>
  <path class="st117" d="M519.8,501.5c-20.9,44.3-41.2,20.9-55,17.7-15.5-.9-21-1.6-48.9-9.1-14.8-11.5-5-7.8,53-8.8-17.8.3-2.7.1,51,.2"/>
  <path class="st9" d="M146.9,501.4c-15.2,8.9-14.5,14.2-40.3,16.5-12.4,13.3-64.9,66.9-113.9-16.4,133.6,0,123.2-.2,111.9,0,22.6-.2,36.9.3,42.3,0"/>
  <path class="st138" d="M522.8,70c-6.5,2.7,1.1,2.5-28.3,3,12.5-1.6,8.8,15.1,9.6-70.1-8.6,88.7-2.7,65.6-1.1-10.2,40.2,17.4,23.1,47.4,19.8,77.3"/>
  <path class="st153" d="M375.5,197.5c1.4,32.5,8.6,43.4-4.3,46.7-17.5.6-9.2-18.7-13.5-41.3-2.6-46.1-3.1-36.4,4.7-37.8,18.1,1.4,7.5-7.1,13.1,32.5"/>
  <path class="st35" d="M270.5,501.4c-50.2,82.2-109.5,24.6-139.4,16.1-2.9-9.1-8.3-5.8-14.3-13.8,35.9-1,40.5-2.7,9.1-2.9,13.1.7,14,.9,144.6.7"/>
  <path class="st93" d="M288,6.8c-34.9,0-60.2,0-83.8,0-33.4-.4-40.5,1.3-50.2-2.8,45.9-38,65.3-20.9,98.4-33.8-1.2,15.2,32-7.6,35.7,36.6"/>
  <path class="st155" d="M410.4,134.8c-4,96,14.7,105.8-4.4,109.9-13.2-3.7-6.8,1.6-13.9-58.5.8-26.4-10.6-20.1,15.8-21.1,4.3,48.5.7,14.1,2.5-30.3"/>
  <path class="st90" d="M164.6,165c-1.6,4-4.1,36.5-6.5,77.7-33.4,9.5-9-25.8-13.2-90.1-.1,24.4-4,7.8,19.9,13.9,1.7,3.9-.2-24.6-.1-1.5"/>
  <path class="st145" d="M479,306.1c-2,10.1,12.3,5-14,8.5-43,0-53.7-6-48.4-7.5,11.3-12.8,0-1.4,28.6-2.8-3.9,3-3.3,1.1,33.8,1.8"/>
  <path class="st31" d="M419.1,501.6c-.1,3.5,1.1,21.1-8.4,20.7-15.7-5.2-17.4-2.9-16.2-22.9-2.5,2.8,10.1,1.8-29.4,1.7,44.7.5,56.3.1,54.1.4"/>
  <path class="st6" d="M269,228.4c2.8,12.6-3.5,16.6-12.1,16.8-9.8-8.7-5.6-9.2-5.9-7.2,0,8.5-.1-44.2.3-73.4,22.5,5.1,16.4-22.2,17.8,63.9"/>
  <path class="st1" d="M252.6,475.7c-11.9,16.9-12.2,14.9-33.8,15-10.4-1.8-32.3.9-33.3-2.3,24.5-20.5,27.3-24.5,40-23.2,35.6.7,29.3-2.8,27.2,10.6"/>
  <path class="st28" d="M461.4,78c27.7,28.3,34,19.4-113.8,20.5-11.6-8.7,20.6-5.6,60.5-6.4.7-39.4-5-12,18.9-47.6,13,.1-17.6,50.4,34.5,33.5"/>
  <path class="st59" d="M406.3,285.1c-54.7,3.1-62.3,8.4-61.9,2.1-46.8-29.5,11.3,28.1-30.8,17,6.1-61.3-15.6-41.4,41.3-45.7,70.1,3.2,46.9-9.7,51.4,26.5"/>
  <path class="st130" d="M274.1,433.2c-.8,9.6,4.3,3.7-21,6.5-24.4.1-57.6-.5-33.4.9,1.9-8.5-6.8-6.3,31.2-6.7,2-1-7.7-.7,23.2-.8"/>
  <path class="st111" d="M488.1,447.5c.2,31.4-3,19.1-.5,16.8-39.6-.5-26.5,6.8-27.2-21.6.4-69.9,0-9.9.5,4.3,32.8.2,26.9-.2,27.2.5"/>
  <path class="st16" d="M531,408.6c-2.4,50.6,34,88-28.2,97.5-2.2-56.8,3.4-81.6.5-80.4.5-16.7-2.3-6.5,8.6-22.6,8.1,2.5,12.3,2.1,19.2,5.5"/>
  <path class="st42" d="M197,172.7c0,30.4.4,42.6-12.7,49.8-5.5-1.6-5.7-3.9-4.9-32.6,3.9-29.8-6.5-24,19.4-24.7-1.9.5.3,9.6-1.8,7.6"/>
  <path class="st5" d="M525.5,119.5c-7.3,2.6-4.3,7.5-14.1,14.5-9.1-10.4-9.5-19.3-7.7-21.6.8-3.6-2.4-24,1.2-52.3,35.6,19.8,19.3,38.5,20.7,59.5"/>
  <path class="st53" d="M128.1,175.7c-5.2,76.5-11.4,62.1,10.2,83.3-27,50.7-28.9-53.2-34.3-25.4,10.5-74.3,7.6-95.9,8.3-72.6,19.6-.6,19-6.5,15.9,14.7"/>
  <path class="st105" d="M41.6,461.2c-5.9-4.4-1.1,5.1-3.7,14.9-35.9,16.1-42.1,28.3-51.9-21.9,12.5-37.3,21.8-21.1,19.7-8.1,59.6.1,31.3-2.4,35.9,15"/>
  <path class="st58" d="M341.9,225.6c-1.2,13.9,4.8,17.3-11.9,19.4-11.2-9-3.8-5.8-8.9-45.8,1-41.5-8.5-34,16.3-35,.6,4.9,1.8,27.3,4.4,61.3"/>
  <path class="st75" d="M397.1,502.2c-6.4,36-26.2,17.2-45.8,15-22.8-.8-45.5,23.5-59.7-15.2,11.5-.3,44.1.3,54.6-1.1-23.3,2.2,1.2-.7,50.8,1.3"/>
  <path class="st97" d="M522.5,135.7c-7.7,32.7-20.7-9-18.2,37.2-13.1-25.8-9.7-18.7-10.3-73.9.8-25.8-5.7-24.3,31.4,1.5-8.2,17.1-6.6,21-2.9,35.2"/>
  <path class="st73" d="M258.4,307.1c-9.8,16.8-8.3,20-20.3,26.1,2.8,4.8-4.8,4.3-3.4,4.1.4-43.1-1.2-31.4,2-32.2,31.8.2,19.7-.5,21.7,1.9"/>
  <path class="st65" d="M257.2,318.7c-1.4,19.5,3.2,17,5.3,18.7-24.7-1.5-31.1,3.2-24.3-4.5,12.4-5.2,10.3-13.5,18.2-24.1,2.2-.4.3,0,.9,10"/>
  <path class="st107" d="M459.6,463.5c44.2.7,55,5.2-61.5,3.8,55.7-11.8,44.6,20.5,44.3-52.7,36.9-6.4,3.4-43.4,31.2-15.8-.6,42.5-14.9-9.6-14.1,64.7"/>
  <path class="st36" d="M378.8,240.2c4.5,17.1-2.5,13.1,8.2,14.7-57.2-3.6-88.9,8.7-80.4-19.7,51.9,19.2,13.4,4.5,53.8.5-3.3,1.4,6.4,16.3,18.4,4.5"/>
  <path class="st20" d="M194.5,233.1c2.2,7.5-5,12.1-9,10.8-4.3.6-8.1-2-9.7-9.3,3,5,.5-6.8,4.2-32.4,21.1-9.3,14.6,1.2,14.5,31"/>
  <path class="st55" d="M52.9,442.1c-5.5,33.7-4,18.2,182.4,24-224.5,5.2-197.4-.2-195.1-3.2,1.5-51.8-.1-55.1,6.9-75.2,7,19.5,5,26.3,5.8,54.5"/>
  <path class="st18" d="M93.1,287.8c-1.2,96.2,5.1,82.8-5.5,84.2-19.3-.9-13.3,4.7-14.4-19.7-1.1,5.5,0,.3-.7,3.9,7.1-35.1-12-55.7,20.7-68.5"/>
  <path class="st106" d="M456.1,462.7c.2,1.7-4.5,1.8-34.2,1.4-6.3-21.5,8.5-4.7,18.2-16.8,2.9-47.1-.2-56.2.7-27.8,19.2,8.4,16.3-16.3,15.3,43.1"/>
  <path class="st167" d="M402,244.6c12.1-3.4-.5,10.7,7.6,9.8-42.2.8-31-1.6-41.2-8,19.2-7.3,4.6-15.6,16.5-8.3,21.7-2.7,2.4-4.9,17.1,6.6"/>
  <path class="st170" d="M312.9,288.2c-4.7,50.2,7,42.6-26,37.3-7.6-4.1-4.3-13.2-3.6-13.1,1.6-42.6-2.1-14.8,13.5-26.2,10.6,4.4,22,.5,16,2"/>
  <path class="st86" d="M314.7,332.8c-2.4-3,2.4-12.1.4,55.5-6.3-67.1-21.4-62.6-30.9-74.6,4.3-34.9-5.2-24.3,11.4-26.3,26.4.2,17.1-12.8,19.1,45.4"/>
  <path class="st143" d="M493.1,302.3c-4.9.4-6.1,3.3-26,2.2-46.8-1.3,32,1.3-10.2-5.9,12-.6,18-1,31.1-3.9,1.1.3.5.5,5.1,7.6"/>
  <path class="st135" d="M504.9,330.5c.3,4.7,2.1,4.3-12.9,6.8-39.7,4.6-4.2-5.3-32.5-5.1,27.6-1.9,41.1-5.6,42.5-4.4-5.4-.2,4.5-3.7,2.9,2.6"/>
  <path class="st122" d="M51.4,403c2.3,66.7,3.7,66.2-6.5,63.8,2.7-81.3-1.3-88.3-3.8-52.1-.9-20.9,3.7,16.1,4.3-93.1.3,43.3,7.4,78.3,6,81.3"/>
  <path class="st89" d="M294.4,323.2c4.3,8.3,15.2,22.7,9.9,15.1-38.3-5.4,8.9,3.9-48.1,1.7,16.7-80.9-67.9-27.6,174.7-36.8-26.9,14.3-186.5-7.3-136.5,20.1"/>
  <path class="st92" d="M203.5,390.2c-15.9-63.3-35,11.9-37-5.8,16-18.5-21.9-32.4-24.3,2.5-41.8-4.2-30.1,14.5-31-29.9,112.7,6,88.8-18.3,92.4,33.2"/>
  <path class="st112" d="M48.4,261.5c-.7-45.2.3,16.9-.2,110.2-5.2-16.1-1.4-161.2-3.8-131.3,4.1-24.6-7.1-50.7,10-44.6-5,10.8-6.5-28.2-6,65.8"/>
  <path class="st134" d="M460.8,347.9c.4,55.9-1.4,71.8-1.3,40.6-3.9,15.1-.2-12.8-3.5-52.2,1.8,31.8,1.4,28.2,1.2,3,5.1,0,4.1-.9,3.6,8.6"/>
  <path class="st144" d="M196,216.6c-1.7,26.9,4,15.4-15.8,17.9-24.2,8.9-29.7-6.4-4.2,1.1,3.7-32.4-3.6-33,15.3-36.7,8.9-6.8,4.6,1.8,4.7,17.8"/>
  <path class="st114" d="M283.9,327.2c-2.9,13.8,8.6,9.6-25.1,10.6,2.4,1.7,1.5,4.5,1.8-33.6,1.6.5-7.8.5,22.7.6.4,1-.5-7.9.5,22.4"/>
  <path class="st125" d="M524,387.6c-5,16-6.7,18.2-19.9,29.6-.2,4-.1-18.2-.1-53.9-.3-3.5-1.3,11.7-.4-36.1,28.4,4.9,20.9,17.6,20.4,60.3"/>
  <path class="st50" d="M257.8,276.5c-1.3,31.9,1.6,23.7-1.1,25.3-26.6.6-21.6,0-21.9-2-1.1-35.3,2.5-28.8-3.2-29.5,35,.5,24.3-2.3,26.3,6.2"/>
  <path class="st15" d="M311.7,356.6c25.5-3.5,6.9-8.3-28.2,15.9-.7-85.9,4.6-35.7,2.9-14.5,13.6,10.9-9.1-37.6,25.3-70.2-.5,32.9.2,37.5,0,68.8"/>
  <path class="st164" d="M221.7,287.2c-1,34.2,11.1,29.7-123.8,28.6,7.3-9,115.5-.2,105.4-5.4.5-31.6-2.5-28.4,7.5-24.1,9.7,1.6,10.9-5.7,10.9.9"/>
  <path class="st27" d="M80.2,73.8c1.2-2.6-1.3,0,3-.8-32.8,0-48.9,0-43.9,0,16-14.7,10.4-12.6,22.2-15.7,7.1-1.1,16.6,3.8,18.7,16.6"/>
  <path class="st13" d="M256.9,383.4c29.2,5.7-.8-18.7-17.1-11.8-4-.9-2.2-2.8-5-1,0-35.2-.5-34.2,1.9-25.7,34,25.4.5,42.2,20.2,38.5"/>
  <path class="st100" d="M293.4,245.1c1.8-7.2,6,23.1-8.5,8.6-59.2-2.1-78.4,10.3-49.1-18.1,49.3,24.2,23.7-9.9,40.4,2.4,18.8-4.4,2.4-3.1,17.1,7.1"/>
  <path class="st119" d="M469.6,281.2c36.2-1.5-20.9,1.1-46.9-1.2,28.6-2.3,21.3,3.5,13.4,1.1,10.3-7.9,5.9-10.5,15.5-8,46.6,2.3,2.1-6.8,18,8.1"/>
  <path class="st150" d="M399.1,380.8c7.1-26.1-46.7-16-27.6-4.8-.5-15.7-.3-9.1-53.3-11.1,4.2-6.7-20.4-4.1,85.6-4.9-13.8,1.4,5.6-7.6-4.7,20.8"/>
  <path class="st140" d="M269.5,98.5c-.9,21,2,15-9.1,5.3.3-1,2.1,12.9-1.9,7.6.6-17.9-2.8-16.7,7.8-5.7,1.6-5.4-2.2-9.3,3.1-7.3"/>
  <path class="st24" d="M282.9,372.1c-2.8-3.5,4.9,1.2-5.6-1.2-21-.2-15.5,2.6-15.7-4.6,7.5-22.1,3.4-22.6,24.7-25.9-6.4-3.5-1.6,9.3-3.5,31.8"/>
  <path class="st74" d="M8.7,437.9c.9,4.7-.6,8.3-10.1,5.3-10.4-18.8-8.9-24-8.3-30.7-6-18.8-7.8-24.5,12.8-27.8,5.9,3.9,6.1-1.1,5.5,53.2"/>
  <path class="st166" d="M3.6,406.3c-1.1,2.1-5.8,5-10,15.6,2-7.2-9.6-16.2,11.5-86.6,1.2,49.2,2.1,102.8,1.8,182.9-69.1-57.4-9-103.1-3.3-111.8"/>
  <path class="st7" d="M417.9,170.9c10,10.4,6.6,5.8,7.8,27.9-21.4-15.1-11.6-7.4-18.2-36.5-228,1.9-251.6-8.5,17.8-5.5,3.3,19-21.8.7-7.4,14.1"/>
  <path class="st46" d="M284,374.2c-30.1-1.7,6.6,8-36,4.5,1.6-8.4,7.4-8.9-3-8.6-18.4,2.5,24.2,7.1-1.2.6,49.1,2.6,46-2.1,40.2,3.5"/>
  <path class="st139" d="M502.2,319.3c-.8-3.9-4.9,5.8-58.8.3,37.9,6.5,37.6-9.4,7.3-2.7,31.9-3.4,42.3-5.4,46.8-7.1-.8.7,0-4.8,4.7,9.5"/>
  <path class="st56" d="M422.7,302.1c-7,2.9-6.8,13.1-16,26-1.3-32.2-.7-33.6-1.2-41.1,1,8-1.5-.9,2.4-.3,16,5.1,17.4-5.8,14.7,15.4"/>
  <path class="st88" d="M382.9,331.6c1.5,7.7-36.1.9-63.2,4.3-3,15.4-3.4,39-3.1-6.4,13.5,13.5,49.2-10.9,11.3-15.8-16,23.7,13.7,15.5,55,17.9"/>
  <path class="st133" d="M59,171.7c-7,29-2,27.9-21.1,25.7.6-2.4-3-17-6-29.1,17.6,23.6,44.4-2.4,1.6,2.8,20.3-5.1,36.4-3.3,25.5.6"/>
  <path class="st128" d="M123.3,265.1c-3.8,57.7,4.3,44.7-1.5,45.7-15.8.9-9.1,2.4-10.5.1.2-35.1-5.3-29.3,27.6-42.5,6.9,31.2-10.2-3.3-15.7-3.4"/>
  <path class="st162" d="M271.8,344.3c10.2,30.9,12.5,27.5-11.9,25.3-3.2,1.7,2.7-2.9,1.2,2.3,0-28.4-.1-33.6-.2-31.2,34.9.4,23.8-.4,10.8,3.7"/>
  <path class="st152" d="M177.2,246.4c-18.7,10.2,6.5,7.3-26.2,8.3-9.9-5.7-18.7-10.8.8-9.6,11-5.8,5.3-11.2,9.8-9.4,15,9.6,13.2-11.3,15.5,10.7"/>
  <path class="st95" d="M370.5,293.8c.2,11.1-26.4,11.7-25.7-7.6,35.3,21.4,11.8-21.8,8.1,4-16.8-4-.7-15.4,1.6-15.5,15.1-2.6,19.5,12.1,15.9,19.1"/>
  <path class="st2" d="M260.6,373.6c-13.9.6-21.5,1.6-11-.2-6.6,11.2,6.3-.9-15.1.7-5.8-6.3,24.6,2.7,23.1-13.7.9-67.4,2.7-42.5,2.9,13.2"/>
  <path class="st84" d="M372.4,331.1c12.5,8.6-7-2.9-60.6.6,46.2,6.9,52.5,1.3,55.6-3.2-28.2,9.6-21.6-20.2-.2-11.9,14.7,13.8-29.5,25.5,5.3,14.5"/>
  <path class="st19" d="M401.1,354c-25,7.6,17.2-16.7-26.3-11.9-8.3,16.5,20.8,11.5-9.5,13,24.4-26.5-49.9-2.9-44.8-19.8,92.9,3.7,76.3-12.4,80.6,18.6"/>
  <path class="st81" d="M168.6,104.9c10.8,7.1-35.4,1.7-21.9,4.5-68.7,0-51.5,1.3-54.5-5,43.6.1,59.4-.3,68.2.6-17.7-.5-9,.3,8.2-.1"/>
  <path class="st41" d="M200.9,269.1c-24.9,10.3-14.5.4-14.1,42.5-17.8-1.2-11,5.4-11.3-23.9-.6-34.9.5-26.5-2.2-28.9,30.1,0,28.6-1.2,27.6,10.3"/>
  <path class="st22" d="M141.3,310.3c-23.4,12,14.1-61.4-27.6-26.7-3.6,8.1-1.9,4.4-2.7-14.9,1.8-12.2-6.1-8.9,21-10.3,12.6,2,7.8-11.2,9.3,51.8"/>
  <path class="st0" d="M195.4,292c6.5,14.9-1.6,17.6-6.2,19.6-7.2-1.7-10.9-5.6-10.6-10.5.9-7,6.6-8.4,10.8-8.7,5,19.8-12.9,8.4,6-.3"/>
  <path class="st32" d="M474,294.3c.3,6.8-1.1,3.8-29.9,4.1,30.7,8.5,24.7,3.1-18.3-3,4.9-10.9,11.7-6.6,36.8-6.9,39,.9,10-2.3,11.4,5.7"/>
  <path class="st96" d="M283,297.2c.1,7,5.4,4.7-20.2,5.1-5.1,1.1-.2-5.9-2.3-18.8,2.2-17.3-6.7-12.2,17.6-13.2,5.6,1.8,6-7.1,4.8,26.9"/>
  <path class="st71" d="M257.3,341.3c.8,33.7.2,30.9.2,30.1-39-.3-14.6,4.5-22.2-23.8,1.6-6.7-6.7-7.6,10.3-6.7,17.2.2,9.7-.2,11.7.4"/>
  <path class="st169" d="M203.6,263.5c-2.1,91.2,1,27.4-13.5,29.5,8.7-21.2-2.1-21-13.2-23.4-1.8-12.6-.5-9.8,7.3-10.3,24.4.6,18.5-2.4,19.4,4.2"/>
  <path class="st12" d="M477.8,179.9c-18.5,81.6,48.6,55.4-30.6,62.3,20.5-13.6,13.6-.3,15.2-45.7,4.1,11.9-9.3-17.6,12.9-20.9,36.1,2.1,1.8,43.8,2.5,4.2"/>
  <path class="st80" d="M215.9,446.2c6.4.9-23,20.7-14.7-4.7-30.1-.3-25.3-29.2-21.3,28.1-61-22.7-41.2-19,12.9-74.2,32.5-2.2-9.8.8,23.2,50.8"/>
  <path class="st29" d="M59.7,167.2c5.2-2.1,3.2,6.7,0,3.6-45.3,3.1-29.3-4.8-27.5-3.8,21.6-22.5-1-5.4,13-22.8,15.6,9.8-5.7,3.3,14.5,23"/>
  <path class="st78" d="M175.3,318.1c-.6-10.4-5.3-6.8-8.3-.3,5.5-15.1,7.2-20.6,6.7-6.3.7-9.2-6.1-16.4.5-57.7.8,47.8,2.2,53,1,64.3"/>
  <path class="st21" d="M510.4,240.5c-29.9-4.1-48.5-4.5-55.4-2.9.9-9.4-2.8-5.7,8.4-6.8-4.1-1,30.8-1.9,34.1,5.2-29-.5-32.2.8,13,4.4"/>
  <path class="st52" d="M140.3,239.1c20,16.9,20.2,15.7-4.2,15.4-11.4-11.2-14.9-21.6-12.6-2.3-1-16.8.9-16.6,1.5-16.8,14.1,7.3,14.1-6,15.2,3.7"/>
  <path class="st49" d="M170,103.9c.4,6.6,0,5.6,0,5.6-29,.2-22.2.5-27.9-2.4,10.6-2.2,21.6-.4,20.3.8-21.2-4-28.9-2.9,7.5-4"/>
  <path class="st57" d="M474.4,62.8c27-3.5,69.3,27.5-47.8,17.1,5.8-23,16.9-24.9,20.5-26.6-10.6,4.7-11.8,8-17.5,15.3,8.2-3.9,32.9,3.8,44.8-5.7"/>
  <path class="st87" d="M163.8,367.9c-4.3-80-25.2-22.1-5.7-14.1-21.7,0-8.1,6.1-15.7-37.1-2,.2-3.1-1,61.3-.2-3.3,118.6,4.4-67-39.8,51.3"/>
  <path class="st45" d="M212.3,237.4c24.7,24.4-13.8-1.2-7.1,17.4-52.8-.8-49.5-.5-36.1-.9-22.2-26.3-1.8-12.3,4.5-17.4,19.6,20.3,11.5-2,38.7,1"/>
  <path class="st151" d="M141.5,303.5c0-10.7-.2-3.4-.5-.7.8-7.5-.1-15,.9,52.9,4.2,13.8,2.3-40.9,2.7-73.9-4.5-14.1-2,17.5-3.1,21.6"/>
  <path class="st113" d="M214,397c-77.8,4.1-118.4-.4-74.6,2.4-12.8-.3-17.7-1-31.6-.7-3.8-6.2,21.1,1.2.5-3.3-2.2,1.2,50-.6,105.7,1.6"/>
  <path class="st62" d="M194.5,107.9c-5.1,8.5-1.8-8.4-10,1.8,19.9-.3-.9,4.8-1.8,2,1-16.6-3.6-13.1,8.3-13.3,6.2,7.5-2.8,3.1,3.5,9.6"/>
  <path class="st146" d="M56.8,171.8c-6.3,30.5-3.9,22.3-8.5,23.7-11.8-2.3-5.7,7.6-13.4-23.6,1.2.6,1.2,2.9,7,2.3,22.3,3.4,8.3-4.5,14.9-2.4"/>
  <path class="st102" d="M503.1,501.5c12.7-5.3-61.1-.8-62.3-3.8,41.5,3.8,13.1,4.7-138,3.4,152.3-5.8,174.2.9,159.9-1.4-21.2,3-17.2,1.4,40.4,1.8"/>
  <path class="st69" d="M4.8,421.7c1.5-9.6.3-9.5-4.9-3.2,1.4-2.5,4.1-11.5,7.1,20.9-.6-25.4,1.1-61.6-2.1-49.1-1.1,16.4-1.9,27.6-.1,31.5"/>
  <path class="st131" d="M396,324.1c-4.5,15.6,15.2,9.8-21.8,11.4,1-8.6,13.5-1,1.5-7.3-5.4-16.7,10.7-11,2.6-11.8,4.9-.5,23.6-2.3,17.7,7.7"/>
  <path class="st168" d="M68,445.6c-2.9,23.5.8,18.2-12.8,19.2,2.7,1.5-2.8-2.8-1.3-16.8-2-18.5.7-.7-.2-2,39.2,1.1,31.6-.8,14.3-.4"/>
  <path class="st103" d="M471.5,289.3c1.7,10.7,7.7,7.9-26.3,7.8-7.4-1.1-13.6-1.3-17.3-3.2,12.1-12.4-4.3-5,8.7-5.9,8.1.5,11.6,2.8,34.9,1.3"/>
  <path class="st40" d="M433.1,195.3c-1.5-4,17.3,19.4,20.4,77.2-33.2,14.2-40.9-89.1-46.7-107.8,38.3-1.4,17.3,11.2,25.7-56-.5-20-27.1-25.3.6,86.6"/>
  <path class="st37" d="M342.5,286.3c4,4.3-5.1,19.2-15.5,13.4-14-6.1-5.7-30.7,3.9-6.3,19.7-18.8-22.5-3.1-5.3-15.4,13.8-6.7,20.4,11.5,16.9,8.3"/>
  <path class="st76" d="M424.8,255.9c1.1,68.1,2.3,24.7-13.1,66.3-.6-51.1,5.2-91.2-5.7-75.2-1.6,42.4-3.6,42.6,7.2,40.2,35.3-2-23.7-41.4,11.6-31.3"/>
  <path class="st48" d="M138.9,381.4c-10.5,8.6.1,3.4-27.4,6.2,23.3-2.1,2.7.8,4.1-11-.6-8.3,10-11.9,6-8.5.9-3.8,22.8-5.7,17.4,13.3"/>
  <path class="st98" d="M498.6,236.9c10.7,1.8-31.5-.8-42.8-1.6,28.8-9.8,38.3-3.7,34.6-6.8-.4,8.4,6.4-16-6.2-1.8,9.2-3.8,16.9-23.9,14.4,10.3"/>
  <path class="st163" d="M340.4,454.8c-.9,13.4,6,8.7-18.7,10-4.5-9.3-11.2,2.6-8.8-10.3-27.6,0,15.7-2.3,41-2.3-15.8-.7-20.1-1.7-13.5,2.6"/>
  <path class="st160" d="M395.3,406.9c2,8.5-16.7.4-9.1,6.7-.6-4.4-12.7,0-50.1-2.8-9-10.7,21.7-4.4,61.7-7.9-39.4,4.6-3.6-.5-2.6,4"/>
  <path class="st161" d="M498.8,67.8c-48,0-69.8-.2-72.3,0,18.3,29.4-21.7,49.7-18,.8,20.7-20.6,21.4-34.8,20.2-7.9,49.1,2.1,82-3.3,70.1,7"/>
  <path class="st44" d="M175.1,282c-3.7,12.6,4.9,96.5-3.4,70.8-.1-15.7-.2-72.8.6-72,5.2,17.5-1.1-5.3.4-25.3,3.5,98,2.2,81.1,2.4,26.4"/>
  <path class="st109" d="M470.3,333.2c19.2-6.7,2.9,0-35.8-1.9,29.8-.2,12.1-1.4-20.8-4.8,20.9-8,39.1-3,69-3.4,4.7,18.1-68.6,6.4-12.3,10.1"/>
  <path class="st147" d="M131.7,359.2c-4.9-4.8,97.3,3.3,74.2-6.4-133.1-1.7-32.2,6.9-98.9,4.8,29.7-16.3,12.9,13.4,15.3-30,3.7-14.1,17.1-9.8,9.4,31.6"/>
  <path class="st63" d="M372.8,498.6c-163.9-.4-158.2,1.6-118.1-1.6-44.5,4.3-105.1-.9-279.9,3.1,198.9,4,262.6-.8,229.7,1.9-17.7-2.8,40.1,2.8,168.3-3.4"/>
  <path class="st156" d="M499.4,467.3c8.3-1.2,2.6,9.9,4.7,23.2-30.4.3-21.9.7-25.7-7.5,6.5-2.6,6.5-4.4,14.6-13.5-7.7-2.9-6-4.2,6.4-2.2"/>
  <path class="st124" d="M9,22.8c-3.8-13.9-.8,17.6-3.2,10.4-12,3.4-13.1-2.2-14.5-12C-5.9,8.6-4.5,6.9,6.8,3.2c.1,5.6-.8,16.6,2.2,19.6"/>
  <path class="st43" d="M448.2,325.2c6.6,6.2-5.6,5.6-30.2,3.1-10.1-1.6-8.5-2.9-9.8-.4,2.5-10.9,4.8-12.5,6.2-10.9,13.6,4,24.1,3.1,33.8,8.2"/>
  <path class="st165" d="M96.7,444.2c-2,31.8,8.8,15.5-1.1,20.5-30.9-1.6-31,5.4-25.3-12.5-23.8,3,14.3,7.2-8.1,1.8,28.2-3.7,38.9,4.6,34.5-9.8"/>
  <path class="st10" d="M122.8,324.4c-6.1,21.2-3.7,21.4-2.1,26.3-11.3,5.3-8.3,1.6-9.2-32.2,1.2-2.4-10.2-.4,29.4-2.2,3.3,6.4-11.9-4.1-18,8.2"/>
  <path class="st91" d="M154.4,403.5c1.8,12.2-2.5,6.4-35.6,9.3,12.9-1.9-11.3-1-3-3.7-2.6-5.3,3.1-2.3,4.5-5.4,30.5,1.4,90.7.2,34-.2"/>
  <path class="st8" d="M404.8,279c.2,7.4.5,26.1-.2,24.5-37.7-.2-8.1,2.3-5.8-9.7-6.3-14.7-28.3-16.3-9.1-24.8,16.7,10,14,24.5,15.1,10"/>
  <path class="st77" d="M225.7,323.9c.4-.6-1.4,33.2.5,50.3-7.3-38-1-42.9-3.7-35.2.5-2.1-.6-11.1,1.2-96.2,2.7,34.6,2.4,95.6,2,81"/>
  <path class="st121" d="M226.3,381.3c-.9-3.5,0,.8-.1,43.5-6.8-14.7.9-30.1-1.1-7.3-3.6,4-2.2-12.4-2.5-66.8,4.8,28.1,3.6,47.8,3.7,30.5"/>
  <path class="st154" d="M484.3,288c-1.7-2.4-6.7,4-25.6-1.9,17.4,3,6.7,1.6,9.6-4-23.7,5.4-5.4,0,7.9-1.9,2.1-2.1,1.2-1,8.1,7.8"/>
  <path class="st137" d="M259.9,156.5c-30.6,23.6-15.6-7.9-54.4,10.3-5.7-15.5-94.4,9-117.9-9,69.3-4,140.2,2,80-1.5,15.9.4,72.2.4,92.3.3"/>
  <path class="st110" d="M327.7,374.5c85.5.8,75.3-2.4,75.1,3-114.5,0-75.2-1.7-83.8,9-4-19.7,1.7-29.3,5.7-22.3-.3,4.9-1.7,12,3,10.3"/>
  <path class="st72" d="M171.5,259.4c-.7,25.5.6,38.3-.4,52.1-36.4-3.7-23.1,13.5-26.7-36,2.3-24.1-8.1-13.7,18.6-17.8-15.6,2.1,5.6.3,8.5,1.7"/>
  <path class="st64" d="M245.9,455.2c-.9,0,2.6-.6-8.6-.1-6.2,1.3-29.2.4-24.9.4-2.8-9.2,17.2-3.7,27-6,7.4,2.3,6.4-3.3,6.4,5.7"/>
  <path class="st47" d="M399.5,308.9c1.3,59.5,4.8-15.9-25.9,11.9,5.4,9.6-16.9-15.6-26.4-11.4,36.5-1.8,40.9-.7,48.6-.8-19-1-17.9-1.8,3.7.3"/>
  <path class="st118" d="M133,284.4c-2.8,4.4-17.8-9.7-.5,8.9-9.9-2.1-9.8-1.5-9.7-13.2,1.8-5.8,4-8,5.5-7.6.6-.8,8.4,2.7,4.7,11.9"/>
  <path class="st94" d="M166.1,338.1c1.4,6.4-2.4,13.2-7.1,14.9-4.6,0-10-5.8-9.2-13.4,3.2-10.1,1.9-12.7,9.6-15.5,7.9,2.6,4.6,11.2,6.7,14"/>
  <path class="st99" d="M503,452.7c5.2,7.1-4.4.6-17.3,5.1.2-1.2-16.7,6.3-20.7.8-8.4-16.1,14.8-9.5,23.6-11.6,18.9.3,16.4-1.5,14.3,5.7"/>
  <path class="st4" d="M363.6,309.3c4.3,14.9-11.8-8.9-18.2,24.2,2.7-39.1-33.7.4-30.5-24.4,38.4,0,39.1-.3,44.2.3-19.5-1.1-18.7-1.1,4.5,0"/>
  <path class="st141" d="M386.3,295.3c17.1-23.8,16.1,4,3.4,7.1-16.6,1.6-15.6-11.3-15.5-16.2-.6,5.2-1.4-13.9,18.5-7.6,21.3,18.7-26.6-5.3-6.4,16.7"/>
  <path class="st148" d="M225.5,407.2c0,20.6,6,26.6-3,26.3.6-19.9-.1-27.3,1.2-11.7-.6-3.4-.3-15.4,0-32.2,3.9,40.9,1.4,35.9,1.7,17.6"/>
  <path class="st104" d="M134.3,278.3c-.6,21.5,2.5,28.2-5.5,36.6-1,2.8-7-1.1-5.4-27.5,2.8-7.5-2.4-8.8,3.2-7.9,4.9,2.7,6.5,1.3,7.7-1.1"/>
  <path class="st39" d="M370.8,450.3c.7,17.1-1.3,14.6,2.6,14.1-20.9,0-21.7,1.9-23.6.2,7.7-19.7,13.6-8.6-1.1-14,25.9,3.6,22.1,3.4,22-.3"/>
  <path class="st85" d="M510.8,8c2.4-2-1.1-2.1-17.9-2.1-.7-1.6-6.8-6.6-7.4-4.9,8.6-5.2,7.5-9.2,20.1-20.7,1.7,16.6,1.6,18.7,5.1,27.6"/>
  <path class="st26" d="M262.2,128.9c-6.9-4.1,8.5,16.3-7,.5.3,8.1-3.4,10.2-3-5.6-4.4-8.3,24.4,1.7,2-.6,2.8,15.8,10.9-13.1,8.1,5.7"/>
  <path class="st23" d="M207.3,428.3c2.1,13.6-5,11-7.1,14.2-7-2.3-9.3-2.3.3-10.1-1.6-2.7-5.1,4.6-1.8-10.4,8.1-27.3-2.3-.2,8.6,6.2"/>
  <path class="st68" d="M365,387.1c13.3-3.3,32.4,7-10.6,4.1-71.1,2-50-2.1-24.9-4.8,30.6,2,33.7-1.7,27.1.5,2.3-8.8-5.9,2.5,8.4.2"/>
  <path class="st30" d="M476.9,99.7c-6.4,53.7,8.5,49.9-14.9,50.3.8-37.3-2.5-41.2,6.4-8.2-.2-6.8-16.6-39.3,3.7-46,36.5-2.2,10.5,50.7,4.8,3.9"/>
  <path class="st79" d="M207.8,436.2c-3.5,3.3-.5,4.8-4.9,5-12.1-.1-26.8-2-10.5-1.5,5.3-12.2,2.8-6.7,10.3-8.7-1.1-3.1,2.8-8.4,5.1,5.3"/>
  <path class="st165" d="M175.1,452.7c.6,15.6,11.4,11.4-28.9,11.1,3.5,4.6-1.2-17,3-2.2-2.1-8,4.8-10.3.7-9.3,20.1,0,27.2.3,25.1.3"/>
  <path class="st101" d="M414.5,460.5c2.3,4.9-12.4-3.7-12.8,0,0,.5-5.8-.9-14.8,7.8,3.6-31.3,5.5-52.8,8.4-12.9,21.2.8,19-4.6,19.2,5"/>
  <path class="st34" d="M419.6,396.8c2.7,2.7-8.9.7-52.7,2.6-42-2.4-56.4,1.5-56.7-2.8,31.1-2.7,52.8,1.8,69.2-2-33.6,6.5-9.4-1.7,40.2,2.2"/>
  <path class="st126" d="M121.9,347.1c1.3,6.5,11.7,5.2-10.2,5.8-.8.5-.1-18-.5-35.5,5,26.9.4,15.4,4.6,7.7,8.2-5.9,4-.6,6.1,22"/>
  <path class="st82" d="M192.3,274.1c-.4-.9,2.9,15.2-3.9,18.1.3,1.6-1.5.9-3.9-5.8-1.5-13.4,5.9-11.5,8.6-12.4-8.6-2.2.5,3.7-.8,0"/>
  <path class="st127" d="M128.6,407.8c-3.2,4.8-15.7,2.3-37.2,4.2,28.5,2.4,8.3-1.5,11.9,2.2-10.5-7.8-5.2-7.7-.6-9.7,15.4-.7,21-.4,25.8,3.3"/>
  <path class="st123" d="M163.6,296.4c-3.2-10,4.4,7-4.6,17.8-7.6-7.9-6.4-4.4-6.7-28.7,0-15.3,4.7-13.8,5.9-12.8,3.7,1.4,6-3.9,5.3,23.7"/>
  <path class="st142" d="M425.4,109.1c-20.5,1.1-33-2.6-21.7-.4-5.9.3-14.6-1.1-50.7-1.1,17-4.8,24.6-2.7,71.4-3.4,1.8-.2.9.9,1,4.8"/>
  <path class="st115" d="M160.7,99.6c-39,2.5-78-1.9-51.8.6-12.9.5-38.8,0,1.9-1.4-5.1-8.9-3.3-4.8,15.4-6-11,8.4-25.6,6.3,34.5,6.9"/>
  <path class="st159" d="M408.7,117.8c12.5-21.5-38.5-7.1-15,.8-38.8-1.4-31.2,2.8-32-3.6,16.1-1.3,33.5,3.6,27.6-9-13.9-2.5-1.6,19.2,19.4,11.9"/>
  <path class="st11" d="M163.6,334.2c3.8,9.1.2,15.1-8.5,16.9-4.1-4.8-6-10.2-3.5-15.4-1.9-4.2,2.8-11,5.7-11.7,2-1.3,7.7,1.5,6.3,10.3"/>
  <path class="st60" d="M416.2,454.8c1,13.9,8.2,8.3-26.6,9.9,3.8,4.5-4.2,1.5,4.7-18.6,1.7,7.6-2.7,6.8,7.4,6.8,16.8,1.3,12.7-2.7,14.6,1.8"/>
  <path class="st38" d="M141.4,343.9c-1.7,12.4,3.3,8.1-10.9,9,4.7-.7,2-8.7,3.4-25.7.5,14.6,2.5-7-7.6-8.3,18.2-2.9,13.9-7,15,25"/>
  <path class="st3" d="M373.4,291.8c1.2,18.2,50.1,8.8-61.9,12.5,4.8-4.8,17.3,0,24.2-4.4,4.4-3.1,7.3-4.3,7.8-10.8-3.3-12.9,6.8,32.4,29.9,2.8"/>
  <path class="st67" d="M345.9,350.8c-9.6-11.6,25.6,9-18.4,3.9-15.1,3.8-6.3-4.4-7.8-18.8,1.1,7.2-4.2-2.5,6.5,6.8,1.6-10.8-13.7,22.3,19.7,8.1"/>
  <path class="st136" d="M312.6,106.5c-5,1.6,6.5,6.8-1.4,6.1-9-14.3-1.8,5.3-8-1.3.5-14.5-2.2-12.6,4-13.1,4.7-.8,8.3,5.4,5.4,8.3"/>
  <path class="st132" d="M171.3,100.2c-11.9.7-63.3.2,6.6-.9,2.2-1.4-48.9-.3-81-.9-2.1-10,36-4.2,73.1-5.5,3.2,1,1-3,1.2,7.4"/>
  <path class="st14" d="M402.6,105.5c-7.4,5.7-14.4,1.9-20.3,3.9-44.2-.7-34.2,2-36-4.9,39.9-.2,45.3,0,32.9.8-4.1-.5,1.2-1.4,23.3.1"/>
  <path class="st129" d="M240.3,380.5c-4.4,31.7,2.6,24.5-5.7,43.6.4-9.5-1.3-35.6.2-29.3,1.2,7.5-1.5-2.7,0-12.8,16.6-2.8,4.6,14.7,5.4-1.5"/>
</svg>