<?xml version="1.0" ?>
<svg xmlns="http://www.w3.org/2000/svg" version="1.1" width="512" height="512">
  <defs/>
  <g>
    <path d="M 374.95550537109375 207.5439910888672 C 409.4052429199219 303.6946105957031 335.01788330078125 360.0918273925781 324.43707275390625 363.4728088378906 C 263.6114807128906 408.45965576171875 133.30282592773438 382.5433044433594 126.78492736816406 251.38743591308594 C 151.1025390625 136.2720489501953 105.01243591308594 312.6373291015625 231.93186950683594 259.03173828125 C 260.5512390136719 115.2409439086914 274.6076965332031 367.6742858886719 374.95550537109375 207.5439910888672" stroke-width="0.0" fill="rgb(246, 182, 0)" opacity="0.8035755" stroke="rgb(0, 161, 84)" stroke-opacity="0.64534724" stroke-linecap="round" stroke-linejoin="round"/>
    <path d="M 376.3748474121094 209.63539123535156 C 364.2579650878906 235.52781677246094 331.4325866699219 165.5220184326172 276.9119873046875 233.13172912597656 C 249.7490692138672 229.9838104248047 246.0325469970703 188.7503204345703 129.76925659179688 207.99020385742188 C 157.474609375 182.32655334472656 160.5227813720703 152.13401794433594 222.16493225097656 132.39114379882812 C 260.0620422363281 121.54220581054688 337.3537902832031 125.30484008789062 376.3748474121094 209.63539123535156" stroke-width="0.0" fill="rgb(245, 179, 0)" opacity="0.8090461" stroke="rgb(158, 37, 168)" stroke-opacity="0.013310659" stroke-linecap="round" stroke-linejoin="round"/>
    <path d="M 375.6544494628906 212.29190063476562 C 368.71337890625 264.7678527832031 374.8895263671875 274.1478576660156 319.93524169921875 275.28448486328125 C 264.361328125 273.37481689453125 278.4045715332031 262.40155029296875 260.6493835449219 221.2919464111328 C 226.7537078857422 191.940673828125 255.84933471679688 222.9561309814453 291.7165222167969 191.53128051757812 C 377.4935302734375 198.83995056152344 394.4347229003906 188.93638610839844 375.6544494628906 212.29190063476562" stroke-width="0.0" fill="rgb(28, 41, 83)" opacity="0.77702206" stroke="rgb(108, 253, 145)" stroke-opacity="0.20277667" stroke-linecap="round" stroke-linejoin="round"/>
    <path d="M 251.8286590576172 220.5916290283203 C 236.1045379638672 257.0823669433594 243.76324462890625 269.4742431640625 213.4024658203125 273.80938720703125 C 174.60971069335938 278.7908020019531 145.12074279785156 271.7246398925781 146.6169891357422 260.4624938964844 C 128.71096801757812 197.95108032226562 160.4650115966797 192.36122131347656 192.8308868408203 194.51112365722656 C 237.0848388671875 194.4727783203125 267.25537109375 213.97940063476562 251.8286590576172 220.5916290283203" stroke-width="0.0" fill="rgb(0, 71, 169)" opacity="0.50867534" stroke="rgb(52, 100, 67)" stroke-opacity="0.8300037" stroke-linecap="round" stroke-linejoin="round"/>
    <path d="M 157.25718688964844 201.41510009765625 C 127.84949493408203 206.32237243652344 151.73016357421875 274.3127136230469 168.66354370117188 271.9053955078125 C 137.84478759765625 271.2254638671875 142.15365600585938 252.97665405273438 136.32400512695312 211.8424072265625 C 119.46748352050781 191.74232482910156 137.16384887695312 197.20980834960938 162.3000946044922 194.49734497070312 C 238.716064453125 191.2303009033203 234.70123291015625 209.41122436523438 157.25718688964844 201.41510009765625" stroke-width="0.0" fill="rgb(3, 36, 82)" opacity="0.6961114" stroke="rgb(85, 242, 140)" stroke-opacity="0.76226175" stroke-linecap="round" stroke-linejoin="round"/>
    <path d="M 366.93951416015625 237.46514892578125 C 360.12408447265625 264.0609130859375 360.7194519042969 266.97314453125 315.9532775878906 268.21307373046875 C 281.1578063964844 265.354248046875 282.5473937988281 268.0957336425781 269.9488220214844 220.32568359375 C 267.2803649902344 214.49427795410156 278.04119873046875 202.78411865234375 341.677001953125 202.85572814941406 C 363.60552978515625 205.6879425048828 370.88165283203125 200.07827758789062 366.93951416015625 237.46514892578125" stroke-width="0.0" fill="rgb(124, 219, 246)" opacity="1.0" stroke="rgb(56, 35, 54)" stroke-opacity="0.39406362" stroke-linecap="round" stroke-linejoin="round"/>
    <path d="M 308.65802001953125 299.9245910644531 C 335.73046875 298.455810546875 298.102294921875 339.9444274902344 268.84332275390625 342.05810546875 C 219.03990173339844 353.0235595703125 177.50843811035156 299.6797790527344 200.8745880126953 300.0553283691406 C 204.7575225830078 293.5852355957031 217.66473388671875 342.0542297363281 276.2036437988281 327.63165283203125 C 258.9073791503906 325.0726623535156 284.8486022949219 336.5953674316406 308.65802001953125 299.9245910644531" stroke-width="0.0" fill="rgb(67, 70, 78)" opacity="0.9548464" stroke="rgb(134, 36, 94)" stroke-opacity="0.5111708" stroke-linecap="round" stroke-linejoin="round"/>
  </g>
</svg>
