<?xml version="1.0" encoding="UTF-8"?>
<svg id="_图层_1" data-name="图层 1" xmlns="http://www.w3.org/2000/svg" viewBox="0 0 524.29 523.5">
  <defs>
    <style>
      .cls-1 {
        opacity: .78;
      }

      .cls-1, .cls-2, .cls-3, .cls-4, .cls-5, .cls-6, .cls-7 {
        fill: none;
        isolation: isolate;
        stroke: #000;
        stroke-miterlimit: 10;
      }

      .cls-2 {
        opacity: .19;
      }

      .cls-3 {
        opacity: .76;
      }

      .cls-4 {
        opacity: .11;
      }

      .cls-5 {
        opacity: .99;
      }

      .cls-6 {
        opacity: .08;
      }

      .cls-7 {
        opacity: .17;
      }
    </style>
  </defs>
  <path class="cls-3" d="M.5.5c1,0,522,10,523,10s-1,512,0,512c0,1-513,0-513,1,0-1,0,0-10-523H.5"/>
  <path class="cls-4" d="M506.39,235.56c-.41-.56-2.29-1.06-1.84-.94,3.19,1.34,1.03.59,1.77.79.35,2.64.06,1.48,2.28,2.99-3.05-1.79-1.54-.92-2.08-1.52l-.13-1.33"/>
  <path class="cls-7" d="M353.01,51.96c-.34,1.03-1.13,1.94.18,1.16,2.48.39,2.16.62,2.41.53-.41.05,1.33.19-2.37-.48-.31-.78.44.28-.74.19l.53-1.4"/>
  <path class="cls-1" d="M383.26,204.37c55.09,171.64-121.14,195.73-91.38,187.67-85.68,14.98-127.96-47.88-132.16-55.1-20-30.17-33.1-78.06-4.98-135.99,2.5,106.86-11.61,68.71,215.16,77.16l13.36-73.74"/>
  <path class="cls-6" d="M17.85,258.59c-.12.86.56,1.11-1.27.55,1.62.69,1.38-.16,1.54-.04-.47.53,1.23-1.3-.3.24.21-.51-.2.5-.04,1.12l.06-1.87"/>
  <path class="cls-2" d="M318.04,56.02c-.78.03-1.73-.04,0,.04,2-.39,1.82-.17,1.59-.34-1.29.96-.92.61.19-.08-1.49.82.16-.17-.34.2l-1.45.17"/>
  <path class="cls-5" d="M397.75,217.39c-152.49-10.89-118.02,11.15-99.25,62.1-165.98,36.3,82.62-90.72-162.5-61.05,35.48-27.17,30.95-48.29,82.92-70.82,45.38-18.59,118.07-12.45,159.22,55.74l19.62,14.03"/>
</svg>