<?xml version="1.0" encoding="UTF-8"?>
<svg id="_图层_1" data-name="图层 1" xmlns="http://www.w3.org/2000/svg" viewBox="0 0 258.21 256.88">
  <defs>
    <style>
      .cls-1, .cls-2, .cls-3, .cls-4, .cls-5, .cls-6, .cls-7 {
        fill: none;
        stroke: #000;
        stroke-miterlimit: 10;
      }

      .cls-2 {
        opacity: .81;
      }

      .cls-2, .cls-3, .cls-4, .cls-5, .cls-6, .cls-7 {
        isolation: isolate;
      }

      .cls-3 {
        opacity: .78;
      }

      .cls-4 {
        opacity: .7;
      }

      .cls-5 {
        opacity: .51;
      }

      .cls-6 {
        opacity: .8;
      }

      .cls-7 {
        opacity: .95;
      }
    </style>
  </defs>
  <path class="cls-6" d="M248.67,80.03c34.45,96.15-39.94,152.55-50.52,155.93C137.33,280.94,7.02,255.03.5,123.87c24.32-115.12-21.77,61.25,105.15,7.64,28.62-143.79,42.68,108.64,143.02-51.49"/>
  <path class="cls-2" d="M250.09,82.12c-12.12,25.89-44.94-44.11-99.46,23.5-27.16-3.15-30.88-44.38-147.14-25.14C31.19,54.81,34.24,24.62,95.88,4.87c37.9-10.85,115.19-7.09,154.21,77.24"/>
  <path class="cls-3" d="M249.37,84.78c-6.94,52.48-.76,61.86-55.72,62.99-55.57-1.91-41.53-12.88-59.29-53.99-33.9-29.35-4.8,1.66,31.07-29.76,85.78,7.31,102.72-2.59,83.94,20.76"/>
  <path class="cls-5" d="M125.55,93.08c-15.72,36.49-8.07,48.88-38.43,53.22-38.79,4.98-68.28-2.08-66.79-13.35-17.91-62.51,13.85-68.1,46.21-65.95,44.25-.04,74.42,19.47,59,26.08"/>
  <path class="cls-4" d="M30.97,73.9c-29.41,4.91-5.53,72.9,11.41,70.49-30.82-.68-26.51-18.93-32.34-60.06-16.86-20.1.84-14.63,25.98-17.35,76.42-3.27,72.4,14.91-5.04,6.92"/>
  <path class="cls-1" d="M240.66,109.95c-6.82,26.6-6.22,29.51-50.99,30.75-34.8-2.86-33.41-.12-46-47.89-2.67-5.83,8.09-17.54,71.73-17.47,21.93,2.83,29.2-2.78,25.26,34.61"/>
  <path class="cls-7" d="M182.38,172.41c27.07-1.47-10.56,40.02-39.81,42.13-49.8,10.97-91.33-42.38-67.97-42,3.88-6.47,16.79,42,75.33,27.58-17.3-2.56,8.64,8.96,32.45-27.71"/>
</svg>