<?xml version="1.0" encoding="UTF-8"?>
<svg id="_图层_1" data-name="图层 1" xmlns="http://www.w3.org/2000/svg" viewBox="0 0 531.88 523.5">
  <defs>
    <style>
      .cls-1, .cls-2, .cls-3, .cls-4, .cls-5, .cls-6 {
        fill: none;
        stroke: #000;
        stroke-miterlimit: 10;
      }

      .cls-2 {
        opacity: 1;
      }

      .cls-2, .cls-3, .cls-4, .cls-5, .cls-6 {
        isolation: isolate;
      }

      .cls-3 {
        opacity: 1;
      }

      .cls-4 {
        opacity: 1;
      }

      .cls-5 {
        opacity: .12;
      }

      .cls-6 {
        opacity: .85;
      }
    </style>
  </defs>
  <path class="cls-5" d="M7.1.5c1,0,522,10,523,10s-1,512,0,512c0,1-513,0-513,1,0-1,0,0-10-523h0"/>
  <path class="cls-6" d="M531.38,270.62c-5.84-61.13,3.85,7.63-9.38,55.79-.69,4.66-29.39,147.21-188.73,189.44,58.95-231.44,71.6-328.48,89.46-390.48,67.23-.12,84.96,14.38,102.95,97.32l5.69,47.93"/>
  <path class="cls-1" d="M454.29,85.38c25.83,26.89,39.25,48.76,51.85,74.66-201.67-24.11-138.77-65.35-155.21-87.59-3.05-41.04-7.09-31.24-41.47-59.45,39.9,5.91,85.58,21.57,129.47,58.22l15.37,14.16"/>
  <path class="cls-4" d="M234.39,375.66c44.78-88.21,99.66,7.28,207.47,83.56-136.62,112.23-295.88,57.79-361.96-26.22-.84-185.52,12.15-181.62,21.9-180.91,110.18,38.21,106.33,31.97,105.94,37.21l26.65,86.36"/>
  <path class="cls-1" d="M17.03,207.07c-10.25,27.58-5.3,32.94-12.27,41.59.31,12.26,3.05,20.81,2.89,24.12.69-24.84,1.49-26.88-7.06-52.48,16.36-12.56,46.32-13.49,59.68-11.72l-43.24-1.52"/>
  <path class="cls-3" d="M400.79,58.85c12.15,35.04,35.2,34.05,11.93,105.03,2.27-35.75-128.05-29.23-241.35-36.07-44.59-71.01-54.68-77.37,23.88-105.35,100-31.31,176.63,7.25,194.84,17.52l10.71,18.87"/>
  <path class="cls-1" d="M402.96,147.7c-130.83,50.49-133.09,51.26-139.55,53.75-18.27,7.23-27.04,10.11-122.96,47.63-15.49,17.53-38.53,11.14-1.9-199.05,266.21-7.72,200.38,45.36,214.97,58.16l49.44,39.51"/>
  <path class="cls-2" d="M120.79,472.45c-57.97-43.19-77.12-96-65.7-71.47-32.85-53.8-44.61-115.13-34.54-176.87-14.38,71.71-8.96,45.02,3.7-18.55,12.48-50.13,45.31-117.66,123.7-162.64l-27.15,429.52"/>
</svg>