<?xml version="1.0" ?>
<svg xmlns="http://www.w3.org/2000/svg" version="1.1" width="512" height="512">
  <defs/>
  <g>
    <path d="M -10.0 -10.0 C -9.0 -10.0 512.0 0.0 513.0 0.0 C 514.0 0.0 512.0 512.0 513.0 512.0 C 513.0 513.0 0.0 512.0 0.0 513.0 C 0.0 512.0 0.0 513.0 -10.0 -10.0 L -10.0 -10.0" stroke-width="2.0" fill="rgb(206, 240, 235)" opacity="0.121844046"/>
    <path d="M 514.2798461914062 260.1211242675781 C 508.44189453125 198.9942169189453 518.1345825195312 267.74737548828125 504.9004821777344 315.90765380859375 C 504.2149658203125 320.5686950683594 475.5063171386719 463.1191101074219 316.17413330078125 505.3446960449219 C 375.11981201171875 273.9073181152344 387.7767028808594 176.86505126953125 405.6303405761719 114.86443328857422 C 472.8631591796875 114.7418212890625 490.5941467285156 129.24375915527344 508.5849914550781 212.18838500976562 L 514.2798461914062 260.1211242675781" stroke-width="2.0" fill="rgb(0, 140, 246)" opacity="0.84742343"/>
    <path d="M 437.1872253417969 74.88314056396484 C 463.0179748535156 101.77208709716797 476.43426513671875 123.64766693115234 489.0362243652344 149.5403594970703 C 287.3668212890625 125.43486022949219 350.2629089355469 84.19084167480469 333.82330322265625 61.948707580566406 C 330.7733154296875 20.905534744262695 326.7359924316406 30.704526901245117 292.3522644042969 2.4969747066497803 C 332.25225830078125 8.403997421264648 377.93597412109375 24.065452575683594 421.8190612792969 60.71852111816406 L 437.1872253417969 74.88314056396484" stroke-width="2.0" fill="rgb(38, 161, 252)" opacity="1.0"/>
    <path d="M 217.28250122070312 365.1560363769531 C 262.0582580566406 276.94427490234375 316.94622802734375 372.4364318847656 424.7497253417969 448.71282958984375 C 288.1327209472656 560.9437255859375 128.86508178710938 506.5066833496094 62.794212341308594 422.4900207519531 C 61.95591735839844 236.96725463867188 74.94302368164062 240.8670654296875 84.69317626953125 241.58421325683594 C 194.8690948486328 279.79180908203125 191.02166748046875 273.55029296875 190.62991333007812 278.79498291015625 L 217.28250122070312 365.1560363769531" stroke-width="2.0" fill="rgb(39, 160, 250)" opacity="0.99726534"/>
    <path d="M -0.07651867717504501 196.5654754638672 C -10.328047752380371 224.1437225341797 -5.374929428100586 229.51025390625 -12.343841552734375 238.15745544433594 C -12.030259132385254 250.41452026367188 -9.29674243927002 258.9649353027344 -9.457508087158203 262.2767028808594 C -8.764500617980957 237.4393768310547 -7.970404148101807 235.4007568359375 -16.51645851135254 209.79873657226562 C -0.154309943318367 197.24244689941406 29.806047439575195 196.31137084960938 43.16006851196289 198.0818328857422 L -0.07651867717504501 196.5654754638672" stroke-width="2.0" fill="rgb(141, 75, 234)" opacity="0.0"/>
    <path d="M 383.68804931640625 48.35409927368164 C 395.8343811035156 83.39091491699219 418.88861083984375 82.39952087402344 395.61309814453125 153.38595581054688 C 397.8857421875 117.64029693603516 267.5600891113281 124.15709686279297 154.26170349121094 117.31470489501953 C 109.67615509033203 46.30061340332031 99.5769271850586 39.945613861083984 178.13766479492188 11.96221923828125 C 278.13751220703125 -19.343299865722656 354.7672424316406 19.21462059020996 372.9747009277344 29.483741760253906 L 383.68804931640625 48.35409927368164" stroke-width="2.0" fill="rgb(38, 160, 251)" opacity="0.9998516"/>
    <path d="M 385.8610534667969 137.1968536376953 C 255.03256225585938 187.68809509277344 252.77276611328125 188.459228515625 246.31602478027344 190.94374084472656 C 228.05001831054688 198.17698669433594 219.27734375 201.04891967773438 123.35609436035156 238.57611083984375 C 107.87035369873047 256.105712890625 84.82209777832031 249.71177673339844 121.45233154296875 39.522762298583984 C 387.65875244140625 31.799680709838867 321.83587646484375 84.8818130493164 336.4194641113281 97.68486785888672 L 385.8610534667969 137.1968536376953" stroke-width="2.0" fill="rgb(38, 160, 252)" opacity="1.0"/>
    <path d="M 103.68195343017578 461.9521179199219 C 45.712669372558594 418.75970458984375 26.56581687927246 365.9543762207031 37.97914505004883 390.4864501953125 C 5.131588935852051 336.68914794921875 -6.629559516906738 275.35614013671875 3.4407145977020264 213.61767578125 C -10.934700012207031 285.33062744140625 -5.522679328918457 258.63427734375 7.1403093338012695 195.07188415527344 C 19.620731353759766 144.94595336914062 52.44621658325195 77.41609954833984 130.83636474609375 32.42805862426758 L 103.68195343017578 461.9521179199219" stroke-width="2.0" fill="rgb(38, 160, 252)" opacity="0.9999893"/>
  </g>
</svg>
