<?xml version="1.0" ?>
<svg xmlns="http://www.w3.org/2000/svg" version="1.1" width="512" height="512">
  <defs/>
  <g>
    <path d="M 484.1213073730469 140.1449432373047 C 292.5459289550781 169.99098205566406 211.62062072753906 204.60824584960938 190.10922241210938 212.49118041992188 C 37.871337890625 272.3394470214844 193.64422607421875 194.39710998535156 68.3129653930664 429.8149108886719 C -36.565555572509766 318.5096130371094 -23.496915817260742 125.09298706054688 127.66387176513672 34.21334457397461 C 263.5355224609375 -42.064884185791016 421.62939453125 15.83686637878418 484.1213073730469 140.1449432373047" stroke-width="0.0" fill="rgb(0, 143, 251)" opacity="0.84339595" stroke="rgb(213, 253, 105)" stroke-opacity="0.46103457" stroke-linecap="round" stroke-linejoin="round"/>
    <path d="M 480.91229248046875 130.8952178955078 C 568.1798706054688 309.9193115234375 452.70013427734375 447.8101501464844 371.48193359375 483.99017333984375 C 288.7004699707031 528.5834350585938 155.4312286376953 525.61328125 66.45458221435547 427.9689025878906 C 68.95503234863281 172.9109344482422 110.51863098144531 270.25762939453125 273.5704650878906 298.2557373046875 C 383.3726501464844 367.0384826660156 137.68214416503906 211.0533905029297 480.91229248046875 130.8952178955078" stroke-width="0.0" fill="rgb(31, 152, 244)" opacity="0.9702677" stroke="rgb(114, 186, 231)" stroke-opacity="0.11080943" stroke-linecap="round" stroke-linejoin="round"/>
    <path d="M 361.4486999511719 345.8582458496094 C 347.0052185058594 358.3659362792969 356.3872985839844 374.2436828613281 334.0455322265625 373.11163330078125 C 239.0627899169922 295.9171447753906 193.2993621826172 298.3381652832031 198.20455932617188 209.4232635498047 C 230.37222290039062 197.05780029296875 239.72894287109375 193.34280395507812 368.95294189453125 143.5468292236328 C 420.5274353027344 119.3545913696289 386.2506103515625 196.66070556640625 361.4486999511719 345.8582458496094" stroke-width="0.0" fill="rgb(254, 254, 254)" opacity="0.99289685" stroke="rgb(236, 144, 214)" stroke-opacity="0.0154203875" stroke-linecap="round" stroke-linejoin="round"/>
    <path d="M 265.176513671875 322.5627746582031 C 256.6109924316406 330.5587158203125 246.69854736328125 340.6090087890625 229.80862426757812 356.6978759765625 C 217.982177734375 362.2789001464844 211.55682373046875 356.3459167480469 214.91513061523438 353.1747741699219 C 214.1255645751953 308.93218994140625 214.10923767089844 303.901123046875 224.41664123535156 292.4823913574219 C 246.7959442138672 308.9068603515625 252.0619659423828 312.9278259277344 265.176513671875 322.5627746582031" stroke-width="0.0" fill="rgb(183, 182, 181)" opacity="0.9972946" stroke="rgb(169, 122, 201)" stroke-opacity="0.4497735" stroke-linecap="round" stroke-linejoin="round"/>
    <path d="M 226.54734802246094 297.53680419921875 C 220.05844116210938 347.8386535644531 226.25096130371094 366.34747314453125 214.13015747070312 356.14617919921875 C 207.02198791503906 333.2867736816406 204.78765869140625 325.614501953125 193.1275177001953 287.2996826171875 C 188.01849365234375 264.6922302246094 169.45443725585938 275.4042053222656 328.0630798339844 199.3659210205078 C 248.9700469970703 277.25994873046875 222.83245849609375 290.57373046875 226.54734802246094 297.53680419921875" stroke-width="0.0" fill="rgb(232, 231, 230)" opacity="0.9751663" stroke="rgb(55, 116, 70)" stroke-opacity="0.0068398914" stroke-linecap="round" stroke-linejoin="round"/>
    <path d="M 369.1128845214844 273.87103271484375 C 366.7645263671875 294.68267822265625 361.40380859375 303.5827941894531 358.02301025390625 311.9720764160156 C 342.3509216308594 302.8954772949219 340.8556213378906 301.3402404785156 317.19757080078125 293.01580810546875 C 289.239990234375 243.78335571289062 337.1236877441406 249.2412109375 370.0017395019531 249.58033752441406 C 374.4740295410156 258.5818786621094 372.5323486328125 262.06597900390625 369.1128845214844 273.87103271484375" stroke-width="0.0" fill="rgb(255, 255, 255)" opacity="0.9344661" stroke="rgb(183, 98, 233)" stroke-opacity="0.8650466" stroke-linecap="round" stroke-linejoin="round"/>
    <path d="M 387.1151428222656 235.5911865234375 C 364.4132385253906 332.81243896484375 360.2745056152344 384.8863830566406 348.8790588378906 375.27032470703125 C 373.0063171386719 263.0728759765625 374.84771728515625 252.62339782714844 376.6632080078125 245.0110321044922 C 379.24896240234375 232.25588989257812 380.64312744140625 226.8511199951172 397.3431701660156 147.0923309326172 C 409.7742614746094 152.56182861328125 397.33355712890625 177.61585998535156 387.1151428222656 235.5911865234375" stroke-width="0.0" fill="rgb(26, 110, 178)" opacity="1.0" stroke="rgb(178, 30, 226)" stroke-opacity="0.9233862" stroke-linecap="round" stroke-linejoin="round"/>
    <path d="M 462.2833251953125 407.70458984375 C 373.2895202636719 519.2571411132812 255.24888610839844 525.9016723632812 173.5758056640625 498.4688415527344 C 147.1848602294922 479.3126525878906 125.30477142333984 479.38909912109375 71.0885238647461 425.861328125 C 35.54987335205078 228.7921600341797 132.21340942382812 197.6309051513672 201.78102111816406 345.297119140625 C 229.6205291748047 388.22125244140625 288.56866455078125 345.35302734375 462.2833251953125 407.70458984375" stroke-width="0.0" fill="rgb(40, 164, 255)" opacity="0.6263994" stroke="rgb(4, 17, 30)" stroke-opacity="0.15531006" stroke-linecap="round" stroke-linejoin="round"/>
  </g>
</svg>
