<?xml version="1.0" encoding="UTF-8"?>
<svg id="_图层_1" data-name="图层 1" xmlns="http://www.w3.org/2000/svg" viewBox="0 0 572.97 403.61">
  <defs>
    <style>
      .cls-1 {
        opacity: .7;
      }

      .cls-1, .cls-2, .cls-3, .cls-4, .cls-5, .cls-6, .cls-7, .cls-8, .cls-9, .cls-10, .cls-11, .cls-12, .cls-13, .cls-14, .cls-15, .cls-16, .cls-17, .cls-18, .cls-19, .cls-20, .cls-21, .cls-22, .cls-23, .cls-24, .cls-25, .cls-26, .cls-27, .cls-28, .cls-29, .cls-30, .cls-31, .cls-32, .cls-33, .cls-34, .cls-35, .cls-36, .cls-37, .cls-38, .cls-39, .cls-40, .cls-41 {
        fill: none;
        stroke: #000;
        stroke-miterlimit: 10;
      }

      .cls-1, .cls-2, .cls-4, .cls-5, .cls-6, .cls-7, .cls-8, .cls-9, .cls-10, .cls-11, .cls-12, .cls-13, .cls-14, .cls-15, .cls-16, .cls-17, .cls-18, .cls-19, .cls-20, .cls-21, .cls-22, .cls-23, .cls-24, .cls-25, .cls-26, .cls-27, .cls-28, .cls-29, .cls-30, .cls-31, .cls-32, .cls-33, .cls-34, .cls-35, .cls-36, .cls-37, .cls-38, .cls-39, .cls-40, .cls-41 {
        isolation: isolate;
      }

      .cls-2 {
        opacity: .6;
      }

      .cls-4 {
        opacity: .68;
      }

      .cls-5 {
        opacity: .46;
      }

      .cls-6 {
        opacity: .6;
      }

      .cls-7 {
        opacity: .8;
      }

      .cls-8 {
        opacity: .62;
      }

      .cls-9 {
        opacity: .98;
      }

      .cls-10 {
        opacity: .82;
      }

      .cls-11 {
        opacity: .97;
      }

      .cls-12 {
        opacity: .72;
      }

      .cls-13 {
        opacity: .79;
      }

      .cls-14 {
        opacity: .63;
      }

      .cls-15 {
        opacity: .6;
      }

      .cls-16 {
        opacity: .99;
      }

      .cls-17 {
        opacity: .48;
      }

      .cls-18 {
        opacity: .69;
      }

      .cls-19 {
        opacity: .6;
      }

      .cls-20 {
        opacity: .61;
      }

      .cls-21 {
        opacity: .99;
      }

      .cls-22 {
        opacity: .58;
      }

      .cls-23 {
        opacity: .82;
      }

      .cls-24 {
        opacity: .56;
      }

      .cls-25 {
        opacity: .97;
      }

      .cls-26 {
        opacity: .73;
      }

      .cls-27 {
        opacity: .98;
      }

      .cls-28 {
        opacity: .64;
      }

      .cls-29 {
        opacity: .77;
      }

      .cls-30 {
        opacity: .79;
      }

      .cls-31 {
        opacity: .79;
      }

      .cls-32 {
        opacity: .85;
      }

      .cls-33 {
        opacity: .72;
      }

      .cls-34 {
        opacity: .78;
      }

      .cls-35 {
        opacity: .85;
      }

      .cls-36 {
        opacity: .92;
      }

      .cls-37 {
        opacity: .87;
      }

      .cls-38 {
        opacity: .58;
      }

      .cls-39 {
        opacity: .82;
      }

      .cls-40 {
        opacity: .62;
      }

      .cls-41 {
        opacity: .6;
      }
    </style>
  </defs>
  <path class="cls-12" d="M265.53,152.6c-3.52,4.03,11.35,4.83-37.99,13.02-18.37,2.43,3.98-32-41.47-79.41-3.55-3.96-11.72-6.84,17.61-1.43,34.46,8.3,58.57,36.62,61.84,67.82"/>
  <path class="cls-19" d="M326.85,341.12c-4.9-27.91,18.41,40.32-43.1,55.16-36.29-.04,4.38,7.72,20.46-29.46,26.47-65.5-31.62-79.3-3.46-67.32,20.6,12.35,25.86,31.33,26.09,41.62"/>
  <path class="cls-4" d="M211.32,123.12c16.28,54.75,2.5,29.21-24.01,39.26-34.86,4.76-29.2,7.22-29.21,3.91,0-81.05,0-79.05,0-78.46,28.15,1.39,31.58-7.67,53.22,35.28"/>
  <path class="cls-22" d="M138.02,195.46c227.94-94.75,206.58,29.87-25.86,87.27C5.14,237.4,27.78,267.43,34.17,60.5c1.11-20.44,7.99-31.13,354.5-5.53-86.52,208.43-264.65-151.15-250.66,140.49"/>
  <path class="cls-41" d="M292.09,318.82c-3.32,30.89-13.8,60.41-22.29,71.65-9.59,12.66-14.23-1.57-9.54-30.81,2.16-14.46,10.08-46.92,21.72-61.7,11.08,6.22,10.55-5.71,10.11,20.86"/>
  <path class="cls-14" d="M469.97,302.18c-4.89,6.7-.99,3.25-37.36,14.24-14.64.24.02-23.52-21.66-14.96,25.22-7.5,7.29-21.27,48.63-22.33-5.16-5.51-5.67-28.05,10.4,23.05"/>
  <path class="cls-2" d="M249.21,318.22c-12.82,21.07-15.47,63.1,10.21,75.93-27.6-9.7-36.83-35.06-35.52-50.74-1.24-7.52,6.21-47.76,51.61-50.67,21.87,3.21-9.23-7.3-26.29,25.48"/>
  <path class="cls-35" d="M570.99,62.73c-20.82,163.88-10.58,163.77-254.46,210.45-77.11-33.55-73.69-37.6-15.43-272.64,195.99,19.02,185.43,29.73,143.25,75.61,49.72-64.2,86.52-59.44,126.64-13.42"/>
  <path class="cls-20" d="M572.47,189.59c-7.42,43.1-30.05,14.37-78.22,60.5-3.37-.3-24.62-4.12-73.74,2.55,103.64-26.19,96.27-61.04,134.49-95.33,16.18,3.37,16.65,10.35,17.47,32.28"/>
  <path class="cls-3" d="M266.32,90.22c-139.52-12.77-218.39-29.91-203.18,69.47-4.96,1.47-13.78,9.07-26.35,7.62,31.76-66.9,43.58-64.32,83.31-88.97,32.38-32.85,128.25-109.54,146.22,11.87"/>
  <path class="cls-24" d="M198.48,364.94c-20.47,17.8-30.39-12.16-26.88,37.07-27.84-35.72-1.92-23.57-44.82-18.03,35.46-26.57-23.55-57.77,30.93-31.89,34.32-47.53-.82,10.25,40.77,12.86"/>
  <path class="cls-5" d="M570.13,250.68c-10.42,2.59-6.77-11.4-28.49,5.08-24.44,15.69-15.36-1.74-47.65-5.7,23.46-19.66,25.99-35.54,50.18-43.64,32.54-1.29,29.12,1.84,25.96,44.26"/>
  <path class="cls-21" d="M136.16,50.21c-44.29,55.75-44.86,63.1-90.96,82.21-8.2-7.43-9.11-11.21-9.36-83.26-.98-4.74-1.37-7.38,85.6-8.04,2.52,4.89,10.55,2.37,14.72,9.1"/>
  <path class="cls-36" d="M166.85,68.51c-59.54,64.44-57.76,74.95-116.88,98.35-12.52-14.67-13.53-19.24-11.93-36.85,26.3-41.15,29.13-42.21,72.13-68.58,18.93-13.62,30.06-23,56.68,7.08"/>
  <path class="cls-39" d="M151.56,86.89c-22.22,55.28-15.44,50.34,7.53,169.42-211.3,19.5-162.72,3.15-126.83-26.42,44.25-102.21,81.93-87.57,127.37-167.4-2.5,24.75,8.85,19.9-8.08,24.39"/>
  <path class="cls-25" d="M527.16,104.71c-4.91.96-17.62-15.84-43.42-5.19-20.8-5.68-22.65-5.22-44.87,6.25,14.99-21.98,42.38-28.7,44-14.75-3.11,4.06,11.74-24.66,44.29,13.69"/>
  <path class="cls-6" d="M419.45,290.83c25.52-15.66-6.45,19.6,3.21-2.95-7.83,4.02-11.28-.63-15.53-3.17,14.12-.7,6.94,3.18,12.43-10.22-3.23,5.37,9.96,5.76-.11,16.33"/>
  <path class="cls-37" d="M195.39,205.01c7.13,37.79,14.45,58.18,5.79,58.92-12.42-60.48-13.69-69.97-11.81-55.35-2.7-25.42-10.32-35.31-.1-33.3,1.34,7.5,4.78,23.61,6.12,29.72"/>
  <path class="cls-40" d="M513.36,365.87c-41.14,12.72-12.54,25.07-28.67,27.31-8.49-39.1-29.95,4.05-28.88-19.5,35.44-9.65-31.3-46.35,22.53-21.42,28.24-39.54-.17,1.94,35.03,13.62"/>
  <path class="cls-32" d="M266.84,241.73c17.06,19.77,11.97,6.57-16.91,3.35-12.97-.5-21.57.13-45.15,7.87,2.74-40.28,15.48-95.96,66.49-94.8,14.2,54.16-7.72,60.42-4.43,83.58"/>
  <path class="cls-29" d="M255.09,277.3c.88.76-1.09,4.24-4.7,3.64-2.08-.45-3.79-2.58-3.59-3.27.02-.13,1.34-2.94.08.29,1.05-5.1,7.68-3.73,8.2-.65"/>
  <path class="cls-30" d="M123.32,306.25c.48,3.62-6.28,5.17-7.71.88,2.16,4.22-.37,1.19-.62-.42.84-1.57.24-1.59.04.19-.19-4.01,7.19-5.18,8.29-.65"/>
  <path class="cls-27" d="M183.75,176.96c-2.76.34-28.34,148.05-108.78,87.71,75.67-83.12,82.12-50.81,39.45-89.92,33.54-7.51,25.15,4.68,34,6.71-10.2-3.53,9.13.76,35.34-4.49"/>
  <path class="cls-31" d="M367.72,394.95c2.79,2.71-3.29,6.77-6.67,3.28-1.89-2.03-.4-4.83,3.16-4.99-3.33,1.31-.58-1.62-1.14.61-.76-1.4,4.07-.58,4.66,1.09"/>
  <path class="cls-34" d="M89.38,307.17c.69.19-3.02,4.76-7.85.9,1.35,1.54,1.22-.06,1.42,1.08-3.7-3.39.8-6.22,2.78-5.7.99-.52,4.76,1.11,3.65,3.72"/>
  <path class="cls-3" d="M343.28,54.67c-36.19,118.4-32.6,114.49-78.88,104.69,3.77-21.87-12.07-42.63-18.15-49.6-18.36-18.64-29.37-17.29,25.59,6.01,20.48-58.84,6.7-101.44,71.43-61.1"/>
  <path class="cls-8" d="M479.25,288.93c-9.71-7.55-4.13-7.25-12.45-2.46-3.41,3.52-1.03-3.62-4.32-1.06,5.69-3.97,13.58-6.43,8.13-3.55,3.38-1.63,2.46-3.43,8.64,7.08"/>
  <path class="cls-23" d="M470.08,266.95c-1.34,4.15-3.43,9.91-9.19,10.09-4.12-2.4-6.58,2.04-4.83-10.83,3.41,3.29,6.24,5.82,6.36,5.76-1.4,1.06,4.65-3.15,7.66-5.03"/>
  <path class="cls-9" d="M342.2,130.87c2.21,3.03-9.25-3.04-19.45-2.34-8.79.52-28.32,12.82-21.56,7.67,12.28-14.48,21.03-18.38,33.38-18.66,3.2.46,6.97,4.31,7.63,13.33"/>
  <path class="cls-11" d="M381.94,138.01c-10.23-5.94-22.33-11.81-29.15-9.14,13.08-2.83-8.18,1.57-13,2.97-1.96-10.75,8.83-13.97,12.1-13.26,6.16-1.07,18.14,3.56,30.05,19.42"/>
  <path class="cls-15" d="M365.57,125.25c10.54,5-3.27,1.96-28.15,5.14-4.8-4.98-4.55-4.75-1.58-1.53,11.91-12.6,15.13-11.02,8.73-5.24-.93-4.16,10.17-10.57,21.01,1.64"/>
  <path class="cls-3" d="M443.45,282.67c1.02,0,.22-.1-6.09,1.29,2.37.1,3.87.12,2.54.32-5.85-1.24,4.76-1.95-10.12-.68,31-5.65,11.66-6.15,13.66-.93"/>
  <path class="cls-16" d="M169.62,82.3c1.59.05,24.8.18-8.78.31-2.08,2.88,1.23-.64-.4,2.19.22.09-.58-15.75.69-17.4,3.14,3.3,4.55,9.64,8.48,14.91"/>
  <path class="cls-26" d="M217.53,165.01c17.57.57,17.14-1.52-6.97,5.68,3.54.43,8.01-4.73,6.37-5.35,10.04-.88,1.54,2.07,2.44-9.85-2.99,13.24.04,6.5-1.84,9.52"/>
  <path class="cls-17" d="M350.05,266.9c-21.98,9.4-22.37,10.1-24.14,7.56-11.13,3.16-12.6-1.64-29.86-8.22,16.43-2.32,30.94,1.24.47-.54,14.69,3.89,24.9,5.09,53.53,1.2"/>
  <path class="cls-18" d="M499.56,355.79c4.83,6.53,10.5,8.09-5.72,3.4-5.23-4.02-2.54-3.54.17-24.78.51,8.32-4.87,19.67-3.74,13.86,7.79-9.69-.71-8.34,9.29,7.52"/>
  <path class="cls-28" d="M414.97,299.9c-2.79-1.18-1.6.99-4.16,8.5-1.25-11.24-1-7.56-.13-4.25.19-6.52-.2,2.34-.23-5.36,3.31-2.88,19.09-3.44,4.53,1.11"/>
  <path class="cls-13" d="M141.79,356.34c8.08,9.6,4.96,7.89-9.33,21.98,8.97-12.14,6.77-21.8,1.9-27.18,1.48,3.19,2.65.91,2.98,5.24-4.85-13.15,3.65-.72,4.45-.04"/>
  <path class="cls-38" d="M493.48,370.18c20.29-2.07,7.08-1.44-1.84,7.82-1.28,6.55-1.42-3.44-4.39.92,4.29,4.05,1.79.51,2.32-3.97-6.15-1.64,5.45-10.06,3.91-4.78"/>
  <path class="cls-33" d="M59.16,262.91c-2.35,1.86-9.95,1.23-13.03,12.88-1.77-7.71-2.93-9.18-34.93-54.95,16.19-49.34,62.85-68.5,78.11-96.37,10.16,161.08-11.49,142.38-30.15,138.44"/>
  <path class="cls-1" d="M117.35,281.82c-3.99,2.08,1.23.09-3.12,1.92,5-3.37,10.3-3.61,5.96,3.76,14.5-16.16,13.33-6.67-14.51-7.9,2.47,5.54,11.32,3.11,11.68,2.22"/>
  <path class="cls-10" d="M421.04,308.58c-4.39,6.34-1.97-4.21,2.7-1.5,3.24-1.93,5.38-3.94-4.42,3.21.69-1.46,6.25-.63,8.37-4.99-11.22,3.89-12.77,13.7-6.66,3.28"/>
  <path class="cls-7" d="M180.74,355.91c6.67,6.73,7.16,6.56-4.41,3.66-.42,1.08.74-1.5.89.43-8.5-3.88-2.55-7.74-1.24-25.81-.49,19.39,3.42,16.45,4.76,21.73"/>
</svg>