<?xml version="1.0" encoding="UTF-8"?>
<svg id="_图层_1" data-name="图层 1" xmlns="http://www.w3.org/2000/svg" viewBox="0 0 617.58 420.93">
  <defs>
    <style>
      .cls-1 {
        opacity: .75;
      }

      .cls-1, .cls-2, .cls-3, .cls-4, .cls-5, .cls-6, .cls-7, .cls-8, .cls-9, .cls-10, .cls-11, .cls-12, .cls-13, .cls-14, .cls-15, .cls-16, .cls-17, .cls-18, .cls-19, .cls-20, .cls-21, .cls-22, .cls-23, .cls-24, .cls-25, .cls-26, .cls-27, .cls-28, .cls-29, .cls-30, .cls-31, .cls-32, .cls-33, .cls-34, .cls-35, .cls-36, .cls-37, .cls-38, .cls-39, .cls-40, .cls-41, .cls-42, .cls-43, .cls-44, .cls-45, .cls-46, .cls-47, .cls-48, .cls-49, .cls-50, .cls-51, .cls-52, .cls-53, .cls-54, .cls-55, .cls-56, .cls-57, .cls-58, .cls-59, .cls-60, .cls-61, .cls-62, .cls-63, .cls-64, .cls-65, .cls-66, .cls-67, .cls-68, .cls-69, .cls-70, .cls-71, .cls-72, .cls-73, .cls-74, .cls-75, .cls-76, .cls-77, .cls-78, .cls-79, .cls-80, .cls-81, .cls-82, .cls-83, .cls-84, .cls-85, .cls-86, .cls-87, .cls-88, .cls-89, .cls-90, .cls-91, .cls-92, .cls-93, .cls-94, .cls-95, .cls-96, .cls-97, .cls-98, .cls-99, .cls-100, .cls-101, .cls-102, .cls-103, .cls-104, .cls-105, .cls-106, .cls-107, .cls-108, .cls-109, .cls-110, .cls-111, .cls-112, .cls-113, .cls-114, .cls-115, .cls-116, .cls-117, .cls-118, .cls-119, .cls-120, .cls-121, .cls-122, .cls-123, .cls-124, .cls-125, .cls-126, .cls-127, .cls-128, .cls-129, .cls-130, .cls-131, .cls-132, .cls-133, .cls-134, .cls-135, .cls-136, .cls-137, .cls-138, .cls-139, .cls-140, .cls-141, .cls-142, .cls-143, .cls-144, .cls-145, .cls-146, .cls-147, .cls-148, .cls-149, .cls-150, .cls-151, .cls-152, .cls-153, .cls-154, .cls-155, .cls-156, .cls-157, .cls-158, .cls-159, .cls-160, .cls-161, .cls-162, .cls-163, .cls-164, .cls-165, .cls-166, .cls-167, .cls-168, .cls-169, .cls-170, .cls-171, .cls-172, .cls-173, .cls-174, .cls-175, .cls-176, .cls-177, .cls-178, .cls-179, .cls-180 {
        fill: none;
        stroke: #000;
        stroke-miterlimit: 10;
      }

      .cls-1, .cls-2, .cls-3, .cls-4, .cls-5, .cls-6, .cls-7, .cls-8, .cls-9, .cls-11, .cls-12, .cls-13, .cls-14, .cls-15, .cls-16, .cls-17, .cls-18, .cls-19, .cls-20, .cls-21, .cls-22, .cls-23, .cls-24, .cls-25, .cls-26, .cls-27, .cls-28, .cls-29, .cls-30, .cls-31, .cls-32, .cls-33, .cls-34, .cls-35, .cls-36, .cls-37, .cls-38, .cls-39, .cls-40, .cls-41, .cls-42, .cls-43, .cls-44, .cls-45, .cls-46, .cls-47, .cls-48, .cls-49, .cls-50, .cls-51, .cls-52, .cls-53, .cls-54, .cls-55, .cls-56, .cls-57, .cls-58, .cls-59, .cls-60, .cls-61, .cls-62, .cls-63, .cls-64, .cls-65, .cls-66, .cls-67, .cls-68, .cls-69, .cls-70, .cls-71, .cls-72, .cls-73, .cls-74, .cls-75, .cls-76, .cls-77, .cls-78, .cls-79, .cls-80, .cls-81, .cls-82, .cls-83, .cls-84, .cls-85, .cls-86, .cls-87, .cls-88, .cls-89, .cls-90, .cls-91, .cls-92, .cls-93, .cls-94, .cls-95, .cls-96, .cls-97, .cls-98, .cls-99, .cls-100, .cls-101, .cls-102, .cls-103, .cls-104, .cls-105, .cls-106, .cls-107, .cls-108, .cls-109, .cls-110, .cls-111, .cls-112, .cls-113, .cls-114, .cls-115, .cls-116, .cls-117, .cls-118, .cls-119, .cls-120, .cls-121, .cls-122, .cls-123, .cls-124, .cls-125, .cls-126, .cls-127, .cls-128, .cls-129, .cls-130, .cls-131, .cls-132, .cls-133, .cls-134, .cls-135, .cls-136, .cls-137, .cls-138, .cls-139, .cls-140, .cls-141, .cls-142, .cls-143, .cls-144, .cls-145, .cls-146, .cls-147, .cls-148, .cls-149, .cls-150, .cls-151, .cls-152, .cls-153, .cls-154, .cls-155, .cls-156, .cls-157, .cls-158, .cls-159, .cls-160, .cls-161, .cls-162, .cls-163, .cls-164, .cls-165, .cls-166, .cls-167, .cls-168, .cls-169, .cls-170, .cls-171, .cls-172, .cls-173, .cls-174, .cls-175, .cls-176, .cls-177, .cls-178, .cls-179, .cls-180 {
        isolation: isolate;
      }

      .cls-2 {
        opacity: .73;
      }

      .cls-3 {
        opacity: .82;
      }

      .cls-4 {
        opacity: .88;
      }

      .cls-5 {
        opacity: .96;
      }

      .cls-6 {
        opacity: .81;
      }

      .cls-7 {
        opacity: .47;
      }

      .cls-8 {
        opacity: .89;
      }

      .cls-9 {
        opacity: .96;
      }

      .cls-11 {
        opacity: .8;
      }

      .cls-12 {
        opacity: .84;
      }

      .cls-13 {
        opacity: .55;
      }

      .cls-14 {
        opacity: .47;
      }

      .cls-15 {
        opacity: .92;
      }

      .cls-16 {
        opacity: .93;
      }

      .cls-17 {
        opacity: .91;
      }

      .cls-18 {
        opacity: .99;
      }

      .cls-19 {
        opacity: .65;
      }

      .cls-20 {
        opacity: .33;
      }

      .cls-21 {
        opacity: .64;
      }

      .cls-22 {
        opacity: .82;
      }

      .cls-23 {
        opacity: .89;
      }

      .cls-24 {
        opacity: .85;
      }

      .cls-25 {
        opacity: .84;
      }

      .cls-26 {
        opacity: .36;
      }

      .cls-27 {
        opacity: .58;
      }

      .cls-28 {
        opacity: .71;
      }

      .cls-29 {
        opacity: .49;
      }

      .cls-30 {
        opacity: .76;
      }

      .cls-31 {
        opacity: .75;
      }

      .cls-32 {
        opacity: .96;
      }

      .cls-33 {
        opacity: .91;
      }

      .cls-34 {
        opacity: .82;
      }

      .cls-35 {
        opacity: .76;
      }

      .cls-36 {
        opacity: .62;
      }

      .cls-37 {
        opacity: .67;
      }

      .cls-38 {
        opacity: .47;
      }

      .cls-39 {
        opacity: .87;
      }

      .cls-40 {
        opacity: .73;
      }

      .cls-41 {
        opacity: .4;
      }

      .cls-42 {
        opacity: .99;
      }

      .cls-43 {
        opacity: .86;
      }

      .cls-44 {
        opacity: .55;
      }

      .cls-45 {
        opacity: .89;
      }

      .cls-46 {
        opacity: .78;
      }

      .cls-47 {
        opacity: .9;
      }

      .cls-48 {
        opacity: .84;
      }

      .cls-49 {
        opacity: .44;
      }

      .cls-50 {
        opacity: .8;
      }

      .cls-51 {
        opacity: .95;
      }

      .cls-52 {
        opacity: .63;
      }

      .cls-53 {
        opacity: .4;
      }

      .cls-54 {
        opacity: 1;
      }

      .cls-55 {
        opacity: .45;
      }

      .cls-56 {
        opacity: .85;
      }

      .cls-57 {
        opacity: .54;
      }

      .cls-58 {
        opacity: .92;
      }

      .cls-59 {
        opacity: .88;
      }

      .cls-60 {
        opacity: .67;
      }

      .cls-61 {
        opacity: .63;
      }

      .cls-62 {
        opacity: .68;
      }

      .cls-63 {
        opacity: .89;
      }

      .cls-64 {
        opacity: .58;
      }

      .cls-65 {
        opacity: 1;
      }

      .cls-66 {
        opacity: .95;
      }

      .cls-67 {
        opacity: .96;
      }

      .cls-68 {
        opacity: .93;
      }

      .cls-69 {
        opacity: .95;
      }

      .cls-70 {
        opacity: .75;
      }

      .cls-71 {
        opacity: .92;
      }

      .cls-72 {
        opacity: .94;
      }

      .cls-73 {
        opacity: .86;
      }

      .cls-74 {
        opacity: .92;
      }

      .cls-75 {
        opacity: .87;
      }

      .cls-76 {
        opacity: .98;
      }

      .cls-77 {
        opacity: .54;
      }

      .cls-78 {
        opacity: .87;
      }

      .cls-79 {
        opacity: .82;
      }

      .cls-80 {
        opacity: .98;
      }

      .cls-81 {
        opacity: .49;
      }

      .cls-82 {
        opacity: .27;
      }

      .cls-83 {
        opacity: .86;
      }

      .cls-84 {
        opacity: .48;
      }

      .cls-85 {
        opacity: .52;
      }

      .cls-86 {
        opacity: .57;
      }

      .cls-87 {
        opacity: .97;
      }

      .cls-88 {
        opacity: .99;
      }

      .cls-89 {
        opacity: .83;
      }

      .cls-90 {
        opacity: .96;
      }

      .cls-91 {
        opacity: .49;
      }

      .cls-92 {
        opacity: .66;
      }

      .cls-93 {
        opacity: .6;
      }

      .cls-94 {
        opacity: .74;
      }

      .cls-95 {
        opacity: .82;
      }

      .cls-96 {
        opacity: .71;
      }

      .cls-97 {
        opacity: .73;
      }

      .cls-98 {
        opacity: .58;
      }

      .cls-99 {
        opacity: .92;
      }

      .cls-100 {
        opacity: .53;
      }

      .cls-101 {
        opacity: .81;
      }

      .cls-102 {
        opacity: .71;
      }

      .cls-103 {
        opacity: .85;
      }

      .cls-104 {
        opacity: .9;
      }

      .cls-105 {
        opacity: .95;
      }

      .cls-106 {
        opacity: .99;
      }

      .cls-107 {
        opacity: .92;
      }

      .cls-108 {
        opacity: 1;
      }

      .cls-109 {
        opacity: .32;
      }

      .cls-110 {
        opacity: .84;
      }

      .cls-111 {
        opacity: .79;
      }

      .cls-112 {
        opacity: .57;
      }

      .cls-113 {
        opacity: .51;
      }

      .cls-114 {
        opacity: .68;
      }

      .cls-115 {
        opacity: .94;
      }

      .cls-116 {
        opacity: .92;
      }

      .cls-117 {
        opacity: .83;
      }

      .cls-118 {
        opacity: .75;
      }

      .cls-119 {
        opacity: .87;
      }

      .cls-120 {
        opacity: .99;
      }

      .cls-121 {
        opacity: .63;
      }

      .cls-122 {
        opacity: .94;
      }

      .cls-123 {
        opacity: .95;
      }

      .cls-124 {
        opacity: .77;
      }

      .cls-125 {
        opacity: 1;
      }

      .cls-126 {
        opacity: .64;
      }

      .cls-127 {
        opacity: .85;
      }

      .cls-128 {
        opacity: .67;
      }

      .cls-129 {
        opacity: .98;
      }

      .cls-130 {
        opacity: 1;
      }

      .cls-131 {
        opacity: .81;
      }

      .cls-132 {
        opacity: .81;
      }

      .cls-133 {
        opacity: .64;
      }

      .cls-134 {
        opacity: .81;
      }

      .cls-135 {
        opacity: .45;
      }

      .cls-136 {
        opacity: .58;
      }

      .cls-137 {
        opacity: .14;
      }

      .cls-138 {
        opacity: .72;
      }

      .cls-139 {
        opacity: .97;
      }

      .cls-140 {
        opacity: .5;
      }

      .cls-141 {
        opacity: .69;
      }

      .cls-142 {
        opacity: .8;
      }

      .cls-143 {
        opacity: .94;
      }

      .cls-144 {
        opacity: .98;
      }

      .cls-145 {
        opacity: .62;
      }

      .cls-146 {
        opacity: .58;
      }

      .cls-147 {
        opacity: .46;
      }

      .cls-148 {
        opacity: .83;
      }

      .cls-149 {
        opacity: .91;
      }

      .cls-150 {
        opacity: .51;
      }

      .cls-151 {
        opacity: .95;
      }

      .cls-152 {
        opacity: .54;
      }

      .cls-153 {
        opacity: .66;
      }

      .cls-154 {
        opacity: .59;
      }

      .cls-155 {
        opacity: .51;
      }

      .cls-156 {
        opacity: .75;
      }

      .cls-157 {
        opacity: .84;
      }

      .cls-158 {
        opacity: .84;
      }

      .cls-159 {
        opacity: .94;
      }

      .cls-160 {
        opacity: .86;
      }

      .cls-161 {
        opacity: .99;
      }

      .cls-162 {
        opacity: .61;
      }

      .cls-163 {
        opacity: .72;
      }

      .cls-164 {
        opacity: .71;
      }

      .cls-165 {
        opacity: .93;
      }

      .cls-166 {
        opacity: .86;
      }

      .cls-167 {
        opacity: .5;
      }

      .cls-168 {
        opacity: .72;
      }

      .cls-169 {
        opacity: .77;
      }

      .cls-170 {
        opacity: .74;
      }

      .cls-171 {
        opacity: .94;
      }

      .cls-172 {
        opacity: .5;
      }

      .cls-173 {
        opacity: .48;
      }

      .cls-174 {
        opacity: .69;
      }

      .cls-175 {
        opacity: .75;
      }

      .cls-176 {
        opacity: .79;
      }

      .cls-177 {
        opacity: .89;
      }

      .cls-178 {
        opacity: .83;
      }

      .cls-179 {
        opacity: .71;
      }

      .cls-180 {
        opacity: .52;
      }
    </style>
  </defs>
  <path class="cls-44" d="M569.69,39.53c-2.47,100.28-7.03,100.52,11.72,129.21-119.69,17.59-126.18,20.43-163.84,26.69-21.96-134.01-21.33-145.9-21.84-159,142.58-2.14,145.41-.35,173.97,3.11"/>
  <path class="cls-71" d="M224.78,119.73c47.54,59.58-89.29,43.78-140.32,1.53,34.76-25.34,7.52-13.17-25.18-62.78-5.33-37.79.81-29.68,16.43-17.63,67.95,26.51,61.19,47.34,149.07,78.88"/>
  <path class="cls-90" d="M52.65,67.25c104.54,60.76,116.92,124.94,27.38,142.21-39.7-72.36-46.91-78.35-38.43-98.64-3.67-54.08-19.55-72.99,9.84-73.56,55.04,34.14,26.46,18.05,1.2,29.99"/>
  <path class="cls-86" d="M412.88,156.16c22.31-18.16,20.49-25.68-99.81-31.96-109.25,7.46-127.46,59.8-108.25-123.63,162.22,24.83,170.04,29.05,189.86,30.12,1.25,3.02-3.12,9.59,18.2,125.47"/>
  <path class="cls-92" d="M120.59,394.01c-11.97,15.61-25.49,7.85-36.67,5.51-37.91.43-41.06.85-45.7-70.24-7.95,19.95-15.3-28.92,202.24-17.79,16.77,159.19-36.31,102.84-119.86,82.52"/>
  <path class="cls-65" d="M401.62,119.06c74.34,37.19,22.64-26.82,79.6,110.88-160.24-38.68-92.07-49.17-197.3-96.79,40.58-65.4,93.4-49.13,90.2-56.82,24.59-4.35,5.58-7.8,27.5,42.74"/>
  <path class="cls-180" d="M577.28,258.92c14.74,29.52,16.78,32.76-41.43,64.36-72.38-97.55-47.8-103.92-91.06-183.34,28.12,12.6,10.38,25.39,102.16,31.9,46.57-1.88,31.9,16.27,30.32,87.09"/>
  <path class="cls-139" d="M372.76,106.81c.34,4.52-3.58,17.24-57.68,17.06-45.87,6.11-36.56,2.06-31.78-37.57,14.62-40.16,24.82-36.1,45.79-28.44,39.73,15.07,41.38,17.47,43.67,48.95"/>
  <path class="cls-129" d="M461.06,136.27c-52.21-7.03-58.87-15.32-73.21-20.94-35.01-3.13-36.23-5.6-36.32-14.09,3.93-27.26,6.45-29.34,45.59-64.52-7.29,23.92,15.44,17.68,63.94,99.55"/>
  <path class="cls-137" d="M465.46,46.54c-33.12,85.69-69.68,40.7-109.55,45.91-4.82,4.13-6.86,2.49-21.65-13.4-26.85,10.17-81.56,77.9-130.95-33.26,194.34-20.57,201.99-19.78,262.15.76"/>
  <path class="cls-75" d="M377.47,229.74c2.86-.71,1.46,5.15-4.49,2.71,3-1.85-17.95-.15-14.61-2.02-.27-24.46-1.11-20.82,10.33-21.61,7.71,3.7,9.74,5.32,8.76,20.92"/>
  <path class="cls-88" d="M423.33,129.17c-24.43-4.71-53.95-6.29-51.48-5-16.31-2.47-42.62.59-41.82-4.89,12.37-25.86,18.27-26.76,54.79-26.94,1.07,16.86,5.59,28.93,38.51,36.83"/>
  <path class="cls-160" d="M344.99,232.23c2.03.77,2.17.11-16.14.57-11.27-1.05-4.65,2.2-6.89,1.42,2.86-24.74-2.34-22.89,13.14-26.1,9.95,4.27,9.34,1.39,9.89,24.11"/>
  <path class="cls-156" d="M234.93,135.45c37.85.26-14.29,1.27-33.15.93-32.5-44.32-25.93,23.58-122.88-94.52,42.49-21.74,60.26-16.17,88.4-4.23,40.38,24.6,27.01,36.97,67.63,97.82"/>
  <path class="cls-31" d="M237.06,97.66c-16.78-9.06-19.18-21.16-26.07-8.82-13.88,53.3-29.58,11.69-36.32-17.53-15.34-24.46-19.25-31.19,1.84-42.64,63.63,3.18,72.31,7.93,60.55,68.98"/>
  <path class="cls-40" d="M98.54,234.94c-.77,24.18-11.39,6.28-25.43,9.82,27.4,7.36-41.79,8.6-29.09-17.04,1.14-10.24,1.53-15.04,11.78-15.88,25.73.74,32.93-3.16,42.74,23.11"/>
  <path class="cls-142" d="M346.33,279.65c.3,9.69,3.99,8.87-8.97,8.05-19.9,2.26-10.4,0-13.02.39-2-35.04,5.67-21.02,5.16-30.17,11.82-4.46,17.61-.91,16.83,21.73"/>
  <path class="cls-73" d="M239.57,324.88c-2.15,27.37,3.56,32.35-10.68,29.46-37.95,6.98,4.74-4.73-7.4-19.1-7.1-16.45,4.43-13.84,4.79-17.11,9.06-1.13,10.6,1.53,13.29,6.75"/>
  <path class="cls-166" d="M103.18,201.26c-.12.69,16.49,19.03-6.62,35.64-11.26-42.93-27.13-28.64-51.04-86.37,23.26,32.8,40.52,22.22,25.46,29.49,12.81,16.16,8.09,8.11,32.2,21.24"/>
  <path class="cls-121" d="M100.39,311.29c3.71,14.68-15.44,8.47-10.33,14.63,1.43,5.95-24.57,26.22-50.63-11.83.96-69.19-2.26-50.81,43.19-38.2,23.32,9.23,18.43,23.73,17.76,35.4"/>
  <path class="cls-53" d="M95.61,244.21c-6.67,17.35-24.08,8.91-39.07,5.3-8.5.78-9.78-1.25-18.31-5.12,8.03-15.32,8.83-17.52,10.04-21.54.81,15.52,20.69,6.91,47.34,21.36"/>
  <path class="cls-10" d="M175.6,156.71c-19.74,11.74-35.56,18.89-43.27,27.66C149.45,162.69-14.51,115.55,1.62,35.32c115.28,30.19,85.63,66.32,140.88,114.46,20.51,5.81,24.56,5.82,33.11,6.93"/>
  <path class="cls-54" d="M477.57,273.48c1.63,24.58,4.11,13.21-1.95,18.47-17.24-.52-11.59,1.79-14.7-23.18,2.07-7.39,6.47-4.24,5.39-9.12,1.48,4.86,7.85.47,11.26,13.83"/>
  <path class="cls-157" d="M410.62,315.79c27.04,4.62,32.01,46.44-75.81,44.45,44-3.17,11.41-14.4,27.79-19.08.72-14.25-2.91-20.98,9.47-26.69,29.17.81-1.27,27.31,38.55,1.32"/>
  <path class="cls-69" d="M525.72,298.77c90.31,16.85,88.91,133.08-209.99,103.64,79.87-95.99,130.1-113.44,140.16-82.2,38.66-5.37-9.97-8.4,18.41-10.85-35.66-24.54-12.47-15.37,51.42-10.59"/>
  <path class="cls-10" d="M105.2,264.55c9.45,22.18-1.5,8.71-5.74,25.5-46.92-4.4-2.35-12.57-20.28-14.92-.09-38.46-1.97-18.72,23.8-31.14,20.37,1.56-.45-3.4,2.22,20.55"/>
  <path class="cls-82" d="M47.01,186.09c29.51,32.19,28.37,29.78,24.59,28.44-1.62-2.2-15.76,6.17-24.65-5.59,1.01-33.14-6.23-42.29,3.25-57.48,50.66,47.88,62.8,24.8-3.18,34.63"/>
  <path class="cls-176" d="M102.07,212.64c-1.02,1.92.55,10.01-15.38,16.85-25.51-12.33-38.42-18.67-36.96-31.46,24.92-23.72,2.31-19.29,45.85,1.77,9.78,6.29-7.67,7.72,6.48,12.85"/>
  <path class="cls-12" d="M337.77,161.62c-1.44,3.85,3.44,6.12-6.45,3.68-4.14.4-3.97,6.27-4.84-10.45-3.11-2.91,7.84.1,3.12-3.86,10.31,1.92,6.04,3.85,8.17,10.63"/>
  <path class="cls-37" d="M66.56,215.13c12.97,7.28,10.05,12.89,4.34,17.64-33.04-1.44-29.2-8.19-32.78-23.57-.55-.13,15.4-.82,27.86.68-4.96.19-4.84,3.03.58,5.24"/>
  <path class="cls-4" d="M109.05,220.63c-3.47-7.4,6.56,37.21-5.76,29.09-18.58-7.27-23.14-11.88,2.09-21.52,23.3-40.33-81.82-43.34,21.26-39.87,3.03,1.78-11.86,6.73-17.59,32.3"/>
  <path class="cls-72" d="M349.41,342.18c3.43,14.43-24.19,14.6-28.65,8.17,4.63,9.57,5.2,0,4.17-17.6-.08-12.14,4.92-19.17,16.74-17.63,11.28,7.32,7.1,2.47,7.74,27.06"/>
  <path class="cls-58" d="M547.72,323.27c-.9,8.43-6,2.99-8.2-3.15-7.01,10.35-5.65,5.44,1.49-3.09-10.83,10.99-15.6-6.17-5.54-20.37,25.46,13.31,1.79,24.29,12.25,26.62"/>
  <path class="cls-105" d="M536.68,325.56c6.64-1.67,3.46,3.06-9.44,3.29,10.47-.95,2.63-4.48,2.41-2.9.05-11.34,6.29,13.02,28.12-23.07-24.66,12.66-14.13,6.46-21.09,22.69"/>
  <path class="cls-33" d="M218.1,244.07c-5.71-2.38,11.79,1.6-6.89-.28-16.76,6.37-16.76,3.51-7.17,3.87.12-16.39-.15-22.42,10.55-26.37.88,37.67-6.68,20.02,3.51,22.78"/>
  <path class="cls-23" d="M241.04,266.43c-.37,23.6,1.73,26.85-3.79,26.22-15.53,1.42-15.89-.42-9.34-.22,5.22-8.56-6.7-22.14,11.82-27.21,4.49,3.22.88,9.57,1.3,1.21"/>
  <path class="cls-126" d="M132.15,262.89c13.28.23,11.19-14.11,6.45,96.55-68.5,9.78-25.96-75.11-31.82-109.12,57.01-56.76,17.27-.54,39.45,14.51,12.88-72.64-9.77-28.65-14.08-1.93"/>
  <path class="cls-1" d="M275.19,351.79c.74-.33,3.17-5.42-17.17-3.15,1.55,16.72-16.27,18.74-1.76-15.42-7.86,17.17-11.75-24.33,13.54-15.33,9.76,9.8,3.8,11.06,5.39,33.89"/>
  <path class="cls-134" d="M381.55,287.58c1.81-4.45,16.32,3.39-19.67.33-1.25,8.26,2.06,10.24-1.04-19.51-1.31-5.49,5.25-13.04,14.13-12.23,10.14,5.4,2.86-2.71,6.58,31.41"/>
  <path class="cls-8" d="M450.22,138.81c-8.48,6.15-131.8-13.21-117.71-4.35,10.9-5.55-32.17-.92-8.11-7.91,11.84,20.56-4.58-3.43,12.4,1.19-11.92,7.21-2.84-11.84,113.42,11.07"/>
  <path class="cls-119" d="M575.74,313.77c-18,2.79-32.06,4.7-37.26,5.32-6.34,3.17-.5-3.14-18.61-24.29-10.21,27.77-49.64-103.28,49.89-39.12,4.01,30,6.23,30.4,5.98,58.08"/>
  <path class="cls-10" d="M583.01,290.11c-45.19,14.39-29.33,24.09-56.19,26.68,3.75-5.99,3.63-9.34-2.14-13.5.24-2.3-17.79-32.02,18.87-20.26,12,12.46,26.36,6.86,39.45,7.09"/>
  <path class="cls-93" d="M580.48,307.46c-33.9,18.28-41.93,7.88-52.14,6.9,17.49,2.18,10-4.1-6.95,5.53,14.36-17.58,6.74-14.3-15.81-35.35,48.62,19.4,41.53,9.48,74.91,22.93"/>
  <path class="cls-10" d="M555.88,301.18c-23.13,7.71-28.61,3.84-25.66,10.09-2.84,15.9-7.95,28.52,1.85-7.85-16.39,10.99-13.68-20.5,28.15-26.59,20.75,4.45-5.92,17.29-4.34,24.34"/>
  <path class="cls-113" d="M538.17,322.83c-9.29-13.51-2.02,5.95-8.5-1.54-3.6,9.48-6.2-16.93-3.02,27.08-10.86-37.32,2.49-37.26,6.67-32.81-.57-.63-8.48-1.63,4.85,7.27"/>
  <path class="cls-122" d="M181.41,333.9c-.57,8.92-1.68,13.81-1.62,19.97-31.13,1.38-6.62,1.99-14.86-12.03-1.88-19.01,6.42-21.55,11.52-20.58,1.94-.06,6.53,6.81,4.95,12.64"/>
  <path class="cls-35" d="M236.37,352.21c1.36,1.06-30.87-1.71-14.9-3.16-3.81,4.77,22.57,2.61,3.73,3.82-.03-6.33-1.89-3.65,14.16-4.07-12.46.21-3.69-8.7-2.99,3.41"/>
  <path class="cls-117" d="M497.17,311.15c20.45,53.19-1.84,41.56-21.66,40.91-37.07,1.94-25.68.99-27.97-6.78,34.74-.09,10.36-17.75,22.65-28.03,23.95-12.01,5.31,75.5,26.98-6.09"/>
  <path class="cls-16" d="M158.75,332.96c-1.01-4.42-.07,8.59-2.2,21.32-21.1-1.45-7.59,6.78-11.95-21.08,4.72-10.76,2.16-11.99,2.69-7.07,3.74-5.51,11.81-5.07,11.46,6.82"/>
  <path class="cls-125" d="M317,348.93c-15.67,12.67-28.28,5.29-77.63,9.06,151.77,1.46,93.74-.16,13.24.61,24.33-10.34-8.38-10.89,28.03-9.97-10.8-1.29,6.97,2.42,36.37.3"/>
  <path class="cls-162" d="M240.94,270.7c1.1,29.73,1.27,19.59-13.05,23.14-.93,0-.19-2.96.43-20.28-2.75,4.54-10.95-13.59,8.13-10.5,5.61,1.55,6.66,7.62,4.48,7.63"/>
  <path class="cls-66" d="M455.86,322.84c2.04-5.86-14.39,13.45-17.97,31.17-2.21-11.36-4.09-27.56-3.4-26.57-.06-11.05,3.33-9.58,8.86-12.36,10.28-.49,10.62,5.83,12.51,7.75"/>
  <path class="cls-177" d="M458.89,344.85c4.89-.88,3.52-1.81-8.25,3.42-23.48,4-13.41-13.09-8.58-6.76,5.56-9.12,3.25-8.72,3.37-25.35,17.66,7.23,7.4,3.83,13.47,28.69"/>
  <path class="cls-89" d="M211.23,278.05c-3.6.87.59,18.41-4.6,16.88-9.26,2.14-3.5-1.42-4.17-20.07-6.46-4.69-11.16-1.66-2.92-7.66,13.49-2.26,9.24,6.07,11.7,10.85"/>
  <path class="cls-63" d="M208.77,330.74c-.73,13.69-3,26.81-.78,23.66-46.87-2.13,1.18,11.41-13.86-31.92-8.55,16.01-4.88-.36,2.55-2.55,15.49-1.74,10.12,12.87,12.09,10.81"/>
  <path class="cls-131" d="M310.72,234.97c3.8-3.64-1.41-1.63-23.1.25-1.02.56-1.22-1.59,2.77-1.68-.48-21.29.85-20.85,11.19-23.83,9.49.01,9.53,5.9,9.14,25.26"/>
  <path class="cls-149" d="M244.95,233.25c-1.5,9.85,3.46,3.74-14.61,8.13,1.36-.12-1.98-10.79,1.51,10.28-3.29-28.76-1.18-30.12,7.01-34.15,7.43,1.11,4.98-6.12,6.09,15.74"/>
  <path class="cls-164" d="M573.17,288.33c.8,7.66.84,10.82-4.38,8.62-19.95-7.43-29.62-6.81-38.29-6.33,14.1-10.69,24.61-13.08,30.44-14.86,13.28-2.76,12.64-.04,12.23,12.57"/>
  <path class="cls-85" d="M546.09,280.76c-15.7,12.13-24.45,1.28-20.16,62.37-2.6-7.76-.88-10.42-.34-47.15-28.83,1.82,2.94,28.95-67.51-161.68,208.75,30.24,182.71,119.58,88.02,146.46"/>
  <path class="cls-10" d="M547.64,316.66c-8.06,9.41-12.17,13.13-14.45,6.62-2.96,1.08,3.74-7.04-11.45-5.76,11.57-7.61,20.07-4.09,7.63,1.5,13.69-11.86,9.16,2.37,18.27-2.35"/>
  <path class="cls-10" d="M534.91,319.76c-2.55-12.85-5.67-7.52-1.48.34.52,3.16-4.89-2.28-6.59,3.16-.36-16.62-9.25-9.12,5.05-19.02-5.6,9.21-.65,7.75,3.02,15.53"/>
  <path class="cls-45" d="M456.1,346.37c7.24-15.47-5.23,8.04-45.65,6.43-45.47,6.39,6.61-17.64,26.66.17-38.27-.68,3.18,2.47-1.24-9.36,30.3-.26,31.62-9.43,20.24,2.76"/>
  <path class="cls-78" d="M311.3,280.41c-8.86-2.36.7,6.32-3.76,8.3-34.07,1.26-14.43.39-16.68-2.04.82-34.51-.18-26.63,8.32-29.56,12.74,2.04,11.29,7.73,12.13,23.3"/>
  <path class="cls-79" d="M311.2,342.83c-2.45-.48-4.82-.71-13.43-.06,2.88,10.13-11.28,11.98-8.04-13.12-7.4-15.61,3.96-11.15,7.51-15.51,21.56,3.73,12.45,3.2,13.96,28.69"/>
  <path class="cls-124" d="M215.73,299.87c8.72,3.57-16.76,1.89-60.51,8.69,41.16-4.74,71.96-.94,11.74-.64-.2-9.79,3.95-6.18-17.19-6.62,16.61-1.25,25.15-1.37,65.95-1.43"/>
  <path class="cls-101" d="M106.2,238.97c9.7,9.7-8.55,3.5-34.84,3.05,2.37-5.17-21.3,18.06-33.63-24.78,13.73-10.19,13.24-3.91,25.01.53,16.76,2.13,19.14,2.81,43.46,21.2"/>
  <path class="cls-5" d="M496.3,286.87c3.66.96-2.76,4.26-8.67-7.46,1.31,15.88-.57,12-2.16-7.07-.85-12.27,37.79-6.25-1.32-14.14,7.06,13.53,15.49,4.32,12.15,28.67"/>
  <path class="cls-147" d="M229.59,239.26c43.7-.94,33.17,4.46-4.04,6.77-21.24,4.59-15.78,2.25-12.5,4.59,3.04-16.93.34-15.44,4.1-21.66,6.26,8.55,16.7-6.3,12.44,10.31"/>
  <path class="cls-148" d="M99.51,310.45c2.18-4.31,1.16,12.98-6.42,12.01,4.53-2.09-27.26-5.99-34.08-7.39,30.3-13.22,26.26-4.47,47.63-2.43-19.04-2.8-10.95-3.02-7.12-2.19"/>
  <path class="cls-32" d="M405.06,159.05c1.81,14.17-2.01,17.75-1.82,3.88-7.17,2.12,6.44-2.17-6.73,17.18-.95-25.12-.68-28.6,1.96-22.82-1.24-9.13,14.94,4.74,6.59,1.76"/>
  <path class="cls-10" d="M261.54,170.2c-2.11,18.12,3.78,12.81-12.52,14.59,14.88-.11,1.82,9.2,5.86-9.17,3.19,2.2,2.09-1.32,8-3.54-5.85-5.25,10.7-1.34-1.34-1.88"/>
  <path class="cls-55" d="M102.44,227.35c-20.46,1.58-21.61,9.41-16.59,9.11-13.12,2.18-9.39.61-42.97-18.21,17.74-9.26,20.59-.42,27.43-.8,7.76-.57,13.43,7.64,32.13,9.9"/>
  <path class="cls-130" d="M99.87,293.08c1.71,2.11-5.54-2.94-14.86,4.4-13.67-13.11,4.32,5.38-45.4-1.49,38.27-.23,39.56-11.24,47.27-8.44-2.06.66,1.76,1.19,13,5.53"/>
  <path class="cls-18" d="M94.97,226.8c-5.91,9.78-8.44,11.37-12.16,13.67-5.73-4.67-17.09.5-40.58-26.89,12.85-.78,15.64,8.74,44.97,8.32-12.76-1.61-9.01,2.28,7.78,4.9"/>
  <path class="cls-10" d="M296.97,241.22c-43.2-.12-61.52,3.67,59.1,1.38-140.43-1.39-84.28,4.45-102.74-4.07-6.92-23.67,2.97.69,21.41-22.59-2.04-.56,16.71,14.82,22.23,25.28"/>
  <path class="cls-10" d="M108.56,241.64c-36.71-10.01,2.5,5.6-22.84,2.47-11.7-8.85.55-.26-18.85-4.85-6.91-15.41,3.32-19.85,24.15-5.12.53-10.22,11.6-10.13,17.54,7.5"/>
  <path class="cls-127" d="M419.11,279.47c4.67,11.79,7.76,9.11-20.18,9.42.06.93.12-7.06-.7-8.81-.37-19.85-2.12-23.74,12.91-13.63-1.18-10.82,11.18-8.9,7.98,13.02"/>
  <path class="cls-170" d="M109.13,250.51c-37.66-14.76-26.91-8.19-47.7-12.5,0-2.21-2.7-2.54-11.52-4.43,2.55-6.48,5.01-7.08,2.74-17.03-3.2,21.29,48.91,19.66,56.48,33.97"/>
  <path class="cls-76" d="M271.32,265.12c-15.26,5.85-.51,28.83-13.12,25.51-.37,5.09.97-18.26-.27-17.62-2.19,1.95,2.66,3.11,7.94-2.55-3.47-5.15,1.15-3.38,5.45-5.34"/>
  <path class="cls-169" d="M451.93,273.03c-3.74-3.85,8.09,14.05-16.51,17.18-6.62-5.43-.68-20.91-5.57-25.21,5.71-4.14,6.47-6.77,5.15-5.3,2.48-.43,14.42-4.03,16.93,13.33"/>
  <path class="cls-42" d="M275.87,267.76c-11.97,1.79-22.84-7.55-8.69.73-10.12,13.43,2.68,20.8.72,8.86-8.92-7.28-12.11-10.2-.83-14.15,8.74.26,7.03-.91,8.79,4.55"/>
  <path class="cls-80" d="M382.92,176.92c10.96-2.8-11.91,2.5-27.21-1.68.53-10.63-9.04,18.71-6.67-17.24-.36.3,7.37,13.58,26.56,10.26-20.91-2.35,4.67-4.18,7.32,8.67"/>
  <path class="cls-133" d="M451.82,281.38c.15,4.23,3.37,16.62.42,9.1-30.05-.08-16.83-4.62-19.61-4.52.38-18.5-9.56-24.92,10.05-26.41.19,9.89-5.51,41.31,9.14,21.83"/>
  <path class="cls-60" d="M411.48,261.4c-.5,36.89,10.43,25.25-13.01,27.62,17.3-14.49-2.83-6.33-.3-20.32-2.34-4.61,2.36-11.96,10.37-11.18,6.09.74,11.03,3.28,2.93,3.88"/>
  <path class="cls-110" d="M276.52,230.89c-.44,5.99,1.05,4.27-1.25,5.68-18.57-.4-14.58,7.08-15.39-10.77,2.93.01-5.49-6.05,8.39-15.31,10.24,1.02,7.58,1.48,8.25,20.4"/>
  <path class="cls-74" d="M456.89,179c.9,12.06,6.01,7.55,8.74,11.14-24.69-8.06-24.03-7.14-16.18-11.34-6.5-6.93-12.02-34.98,3.78-6.87-.84,3.29.63,11.9,3.67,7.07"/>
  <path class="cls-11" d="M81.19,237.82c1.71,1.04,1.29.72-1.22-2.19-9.77,1.05-7.22,1.71,5.16-.76-15.28-8.04-27.87-6.03-15.56-3.06-8.14-.47-7.77-.83,11.62,6.02"/>
  <path class="cls-77" d="M90.92,288.24c-20.01,16.72,15.06,9.61-11.54-.23,19.01,35.32-53.62,10.64-30.81,1.84,31.21,5.8,36-13.48,16.01,2.1,13.95-3.96,11.07-8.82,26.34-3.71"/>
  <path class="cls-167" d="M567.56,308.94c-7.7,48.59-8.38,42.03-23.05,43.15-88.56,8.01-4.45-31.17-25.89-9.16,11.82-29.61-3.27-12.08,28.6-14.57,4.71-12.79,3.57,19.39,20.34-19.42"/>
  <path class="cls-25" d="M63.18,351.57c18.31-.67,15.04,3.63-8.41,3.01,4.19-2.53,4.98-6.8,3.66-1.92-5.63-9.62.35-1.27-.37-9.24,7.34-.4,6.55-2.38,5.12,8.15"/>
  <path class="cls-143" d="M275.46,270.47c.96,9.76-.68,22.76-.36,20.32-36.13.38,14.24-2.29-16.76-18.32,2.35-6.68,2.41-7.56,13.07-9.66.19-.78-.91,1.71,4.05,7.65"/>
  <path class="cls-128" d="M311.71,341.42c-1.56,10.19,6.83,9.07-18.26,8.53-7.69-.01-1.86-2.12-4.53-6.78,2.6-16.63-2.04-18.28,9.65-27.58,15.93,4,11.78,5.59,13.14,25.83"/>
  <path class="cls-10" d="M421.84,330.41c-10.19-1.86,4.85,36.27,2.48,9.58-23.43,14.2-21.5,12.52-23.09-9.39-1.15-14.45,8.12-17.4,17.28-13.7,10.03,6.51,5.45,20.77,3.33,13.51"/>
  <path class="cls-94" d="M481.74,200.3c-14.8,18.59,6.82-4.14-51.51-1.85,37.53,4.87-8.53-15.89-153.33-5.01-29.76-2.9,62.75-13.7,127.57-6.05,5.78-1.84,54.68,6.68,77.26,12.91"/>
  <path class="cls-51" d="M575.4,364.62c-1.23,33.66-10.05,29.25-33.02,29.34-20.8-25.1-30.73-7.47-68.32-29.13,35.98-9.38,51.56.16,79.44-.98,4.64,1.67,17.25.82,21.9.78"/>
  <path class="cls-10" d="M436.23,162.66c16.78,35.53,3.6,14.95-35.21,16.28-33.24-5.58-38.64-.53-18.11-10.37,1.17-11.69-6.29-38.52,12.97-5.7,15.01-.29-14.89,14.24,40.35-.21"/>
  <path class="cls-159" d="M386.51,154.28c-1.09-5.44,1.6-4.64,1.04-1.47,6.15,1.16,3.61-.21,4.46,1.47-4.54,5.36-3.22-3.57-3.69,19.26-3.7-32.05,7.57-7.96-1.8-19.26"/>
  <path class="cls-30" d="M277.07,290.73c1.13-.04,3.64-.11-23.01.16.4-1.87-.28-31.77,2.79-.93,9.79,9.22-4.43-23.95,10.76-16.62-4.47-3.23,7.86,21.82,9.45,17.39"/>
  <path class="cls-165" d="M409.93,148.33c12.21,9.12-4.34-3.18-5.54,8.1,1.3-12.17-5.38.21-20.55-10.39,30.83-1.49,19.44-4.8,22.81,2.46,5.11-5.11-1.1-12.04,3.29-.17"/>
  <path class="cls-97" d="M503.75,257.93c-1.44,16.03,9.3,131.36-5.25,8.41-18.68-4.69-26.62-5.74,1.41-6.23-60.07-12.02-44.58-20.78.93-12.66-7.23,7.58,17.86,3.43,2.91,10.47"/>
  <path class="cls-115" d="M580.3,357.43c9.43,13.74-42.33,3.29-76.39,5.36,29.21-1.04,9.07.24-35.51-2.95,47.48-1.48,65.28-1.05,73.25-.12-19.87-2.19-7.05.95,38.65-2.3"/>
  <path class="cls-109" d="M252.42,181.29c5.48.33-6.72,5.06-21.06,6.99-19.16,3.58-32.55.24-6.99-7.01-.87-7.84,2.64-18.25,10.07-7.94,31.71-8.57,27.89-2.17,17.98,7.96"/>
  <path class="cls-46" d="M420.32,214.31c-21.72,10.56-10.92,8.75-22.21,3.65-1.67-7.02,5.09-7.4,1.03-8.8-9.71,6.75-4.58-8.6,8.01-4.64,14.94,9.33-1.79,9.02,13.16,9.79"/>
  <path class="cls-29" d="M108.17,236.17c-4.17,1-19.76-1.69-15.28-4.08-2.19-4.16,5.86-.46-20.11-9.9-15.78-8.59-.11-9.5,13.16-2.35,25.53,11.47,21.24-1.34,22.24,16.32"/>
  <path class="cls-10" d="M462.96,289.65c6.09,14.6,12.86,9.68-7.13,9.78,5.44,3.59,4.54-6.93,4.77,20.17,3.24-2.87-3.54-44.9-1.72-26.09-18.1-2.35,13.36.68,4.08-3.86"/>
  <path class="cls-87" d="M498.99,286.84c3.3,11.53-2.4,3.92-1.64,7.57-7.62.53-7.86-3.16-10.33-2.53-1.05-29.07,12.55-19.26,3.93-24.9,8.97,5.1,7.62,12.12,8.03,19.86"/>
  <path class="cls-59" d="M303.86,191.84c-122.14,10.2-165.13,39.06-153.55,32.67-26.42,6.37-58.23,46-36.59,16.27,32.8-27.6,60.7-27.06,44.05-24.81,9.38-6.07,110.46-34.18,146.08-24.13"/>
  <path class="cls-10" d="M345.59,175.72c.34-8.93-4.87-14.47-2.61-7.42-24.81-.13-14.09-.98-3.81-1.07,2.48-13.66-3.9-.71-.23-9.27,8.62,2.24,5.23-7.03,6.64,17.76"/>
  <path class="cls-28" d="M503.75,258.17c-10.19-4.93-44.85-12.23-21.29,3.17-146.34-23.02,41.03,5.1-18-13.49-116.23-7.95-214.72-8.81-16.23-6.04,46.15,11.68,62.75,12.28,55.51,16.36"/>
  <path class="cls-104" d="M276.55,213.84c-2.63-1.78-11.02-3.12-14.71,1.48-5.44-2.53-10.11,7.51-1.86-8.65-.27,4.01,1.43.48,9.37.56-5.02,2.08,4.19-2.67,7.21,6.62"/>
  <path class="cls-2" d="M575.09,337.5c-2.5,34.41-1.11,29.95-16.82,14.88-27.95-1.66.39-3.65-.66-1.54,15.52-37.95-2.55-18.78-13.98-29.95,10.62-8.95,50.32-2.64,31.47,16.61"/>
  <path class="cls-9" d="M441.45,196.28c21.51,12.22,28.18,7.18-6.26,5.24.27,1.06-7.24-4.91,4.44-.99,19.04,1,25.28,0,5.61-3.29-7.32,5.32-20.16-3.74-3.79-.95"/>
  <path class="cls-34" d="M151.22,202.02c4.32,9.76.92,11.17-7.43,14.42-3.91,3.46-5.16-3.13,1.69-11.12-7.85-13.98-7.18-12.11-1.21.02,10.98-8.37,18.48,1.55,6.95-3.31"/>
  <path class="cls-114" d="M353.94,161.52c29.08,1.6-.12,4.82-.33,14.42-10.29.06-10.5,5.68-9.04-11.2,4.4,7.3,3.61-16.98,3.66-23.98,39.24,4.76-2.14-2.67,5.72,20.76"/>
  <path class="cls-100" d="M496.72,289.37c3.58-23.17,5.43-24.32-.05,2.77,4.57-9.43-9.07-.42-5.52-8.17,26.15-25.12-32.5-15.92-13.86-24.18,26.63,5.57,18.03-2.83,19.43,29.58"/>
  <path class="cls-175" d="M296.47,288.32c-.58-34.84-5.42-3.49-5.88.54-6.04,3.66-1.37-5.2-3.26.07,2.02-1.26-1.7-27.81,4.81-17.89,1.78-.19-6.7,8.81,4.33,17.28"/>
  <path class="cls-67" d="M151.27,135.19c12.91,2.4,20.67,10.53-3,9.05.79-14.04.14-26.52-5.46-18.36,3.68-13.59,8.33-1.12,7.6-5.66-.37,7.92,4.94-.55.86,14.97"/>
  <path class="cls-52" d="M285.39,285.9c2.48,1,2.73-2.94,2.27,4.82-11.82-1.15-16.15,2.27-8.58-4.13.18-48.19,1.02-54.62,5.42-16.56-1.46,15.69-1.19,22.91.9,15.86"/>
  <path class="cls-56" d="M135.18,274.71c-1.94.25,11.07-4.26,7.68,4.24,4.1-8.3.08-6.98-3.98-5.58,8.65,2.43,6.14-1.23-10.47,5.54-31.35,14.71-21.79,5.49,6.77-4.21"/>
  <path class="cls-132" d="M377.86,162.81c-24.04,10.44,12.25,6.02-14.29-2.42,15.5,14.66-29.95,13.88-3.27-.93-4.28-45.74,35.82-3.54,3.71-11.43,7.19,30.46,2.67-18.99,13.85,14.77"/>
  <path class="cls-38" d="M269.97,275.29c1.32,9.1-5.81,13.02-8.07,9.29,5.61-12.03-3.26,1.8,2.63-8.13,6.58-.1,12.26-4.09-9.76-8.74,10.68,8.73,7.72,10.28,15.21,7.58"/>
  <path class="cls-64" d="M406.64,146.07c-8.44,7.36-10.04,4.63-8.56,8.56-10.62,2.02,4.9-7.53-15.73-4.18-2.63-12.63,7.73-10.29,14.81-10.59-1.97,5.58,16.26-3.97,9.48,6.22"/>
  <path class="cls-151" d="M440.98,203.11c-15.23-2.85-12.22-3.39,7.02-.33,45.41,8.77,42.57,14.05-26.1-4.31,76.8,10.86-112.91-24.15-247.98,22.96,173.49-44.21,269.49-12.33,267.06-18.32"/>
  <path class="cls-140" d="M330.19,130.65c-28.51,9.7-29.03.45-33.11,9.28-48.8,12.84,19.92-6.19-61.64,10.56-5.94-21.02,14.92-15.76,73.3-27.35-63.07,14.95-.54,1.28,21.46,7.51"/>
  <path class="cls-26" d="M67.68,235.97c-.94,7.63.83,3.21-17.4-1.28-3.4,2.41-5.27,2.71-8.39-10.14,2.88-3.31,3.31-1.45,15.78,1.09,9.49,2.22,11.53-2.44,10.02,10.33"/>
  <path class="cls-13" d="M409.41,238.53c-.57-1.9-7.86.86,50.42,6.71-37.57-6.38-65.98-6.01-134.54-7.69-33.76-5.54,103.25-4.6,118.98,2.06-42.78,1.32-54.89-.77-34.86-1.07"/>
  <path class="cls-21" d="M274.8,270.3c5.32,14.62-11.12,4.09-11.35,9.15.09-1.83-10.04-6.29.92-8.95-12.51-6.19-9.52-9.52,1.17-11.59,10.34,2.69,7.64,2.63,9.26,11.39"/>
  <path class="cls-135" d="M415.18,217.59c-2.06-4.47-2.12.82.73,13.92,0-12.38.61-19.37-1.36-14.39,6.45-1.56,1.71,4.92,4.55,2.91-3.03-.53,2.61-4.16-3.91-2.45"/>
  <path class="cls-39" d="M408.74,225.36c-1.31,7.25,6.69,9.61-7.44,8.48-15.27-.27-7.16-1.68-7.87,1.09-.76-24.97.25-27.34-.25-24.83,12.66-2.38,16.29,6.69,15.56,15.26"/>
  <path class="cls-10" d="M471.44,223.08c6.88.71,2.36-.14-10.87,5.97,1.04-7.36-5.61-12.44-6.36-11.56,2.98-4.31,2.47-4.8,4.16-4.41,6.94-1.27,7.04-.64,13.07,10.01"/>
  <path class="cls-22" d="M569.28,289.38c1.89,16.66.49,19.28-4.39,16.01-27.86,3.44-43.75-.3-8.56-6.14.24-9.88-6.6-5.18,11.52-6.05,6.61-1.38,8.75-3.12,1.43-3.82"/>
  <path class="cls-96" d="M471.76,213.26c1.77,35.72-2.94,35.27-9.19,32.53-1.96-32.77-8.09-34.59-6.29-32.5,20-1.43,6.63-9.92-11.68-.99,14.27,13.56,19.58-9.95,27.16.96"/>
  <path class="cls-7" d="M362.2,230.89c4.47,5.98-10.51-1.77-13.98,2.3-11.76.93-1.57-.98-3.01-5.63,2.08,6.76-4.34-11.2,7.95-29.84,4.14,15.59-2.58,28.35,9.04,33.17"/>
  <path class="cls-47" d="M211.39,302.86c16.69,2.98-.49,1.99-22.95,7.02-24.71-1.58-15.73-1.09-6.17-3.09,16.79.48,17.92-.68-5.82-1.66,7.73-.76,11.25.6,34.94-2.27"/>
  <path class="cls-144" d="M341.52,176.93c-3.7-.55.49.27-.85.19,2.41-1.58-3.71,1.12,9.18-1.37-6.47,5.22,9.43,1-24.95,2.03,12.8,2.05-2.72-1.5,16.62-.84"/>
  <path class="cls-43" d="M160.6,300.88c4.87-2.14,11.97,2.84-3.48-1.43,7.26,3.49-22.08,2.69-9.75,4.63,3.03-13.31.21-23.8,6.8-28.87,11.02-3.59,7.3,11.2,6.43,25.67"/>
  <path class="cls-158" d="M187.9,240.1c.69,9.64-1.38,7.3-10.9,11,6.54,2.55,3.41-8.65,5.75-11.92,1.92,4.56-1.59-2.7-.94.15-.41-1.9,2.33-.94,6.09.77"/>
  <path class="cls-27" d="M410.12,292.73c7.19,6.33.54,4.97-17.48,5.47-5.79-.1,5.1-.99-2.87-.74,4.69-6.67-4.91-9.75,8.69-7.1,10.96-.56,19.66.91,11.67,2.38"/>
  <path class="cls-123" d="M180.25,273.4c3.52,12.95,1.19,7.27-1.06-.97-3.24.41-9.52,2.16-6.02,1.75,1.11-2.71,7.48.04,6.61,3.69-12.63-4.51-5.61-5.23.47-4.47"/>
  <path class="cls-163" d="M400.96,307.56c4.25,3.65-74.46-3.2-174.48,5.26,161.69-5.32,179.12-1.64,154.64-1.01,13.73-1.97,66.97-.08,125.97,2.27-100.15-11.58-136.5.11-106.14-6.52"/>
  <path class="cls-68" d="M468.3,217.92c3.52,2.92-16.91,4.09-8.27-1.1-.53-1.78-.68-3.53.28,5.02-.34-3.41-.41-6.21-2.77-2.67-7.63-1.88,3.44-14.74,10.75-1.25"/>
  <path class="cls-83" d="M419.99,290.5c-.42,8.16,6.77,7.37,10.68,8.02-31.19-1.32-34.73,1.26-32.13-2.18,11.31,1.07,15.39-.65,11.84-1.74-1.61-5.67,2.03-4.02,9.6-4.1"/>
  <path class="cls-36" d="M150.97,275.79c15.84,14.64,9.76,29.13-13.73,27.02,16.87,3.38,13.9,1.71,11.03-20.36-7.52,26.7,2.2-6.54,9.31-10.54,13.53,6.32,13.75-2.53-6.62,3.87"/>
  <path class="cls-108" d="M184.67,276.8c-4.65,4.49,1.76-5.82-1.92,19.29-11.59,12.57,7.02-33.89-12.59-19.98,1.02-4.39,6.61-5.45,7.2-5.88,4.18,0,6.21,1.07,7.31,6.57"/>
  <path class="cls-103" d="M435.06,222.36c6.69,12.71-4.5,3.85,2.95,13.48-11.43,2.08-12.79-7.11-11.58,1.8-.56-30.89-3.08-24.33,3.04-23.74,1.38-.59,10.33,8.05,5.6,8.45"/>
  <path class="cls-84" d="M219.41,263c-.1,5.47-4.64,0-6.47,15.8.16-17.27.31-11.05-29.65-12.23,24.62-4.7,38.07-7.45,26.48-2.93,7.91-4.08.56-7.52,9.64-.64"/>
  <path class="cls-141" d="M195.77,305.92c-23.43-1.41-18.15,3.8,6.18-2.71-9.22,1.85-85.18,6.66-106.66,18.78,85.2-16.18,95.66-11.7,89.93-12.61-12.33-.54-5.82,1.17,10.55-3.46"/>
  <path class="cls-146" d="M363.17,179.86c-5.53,5.07-16.1,3.57-16.03,3.32,3.21-7.18-2.46-5.4,6.76-5.7.82,9.41-2.41,5.91,13.55,1.52-20.54.56-33.74-.65-4.28.85"/>
  <path class="cls-173" d="M286.01,185.97c-12.52,6-14.31-7.74-.74,1.97-16.05,1.99-36.24,4.43-30.98,4.46-1.18-9.05,8.71-7.52,12.97-7.56,8.05-1.04,18.78-.96,18.76,1.13"/>
  <path class="cls-172" d="M328.71,184.27c-6.95,1.32-8.43-.14-9.73,1.59,3.77-1.31-.56-1.73.56-2.08,1.78-7.25-5.03-3.25,6.85-3.88-.29-1.38,3.14,5.95,2.33,4.36"/>
  <path class="cls-57" d="M375.95,179.4c-12.49,5-12.91,7.35-.92,6.42-21.9-1.56-17.98-2.62-19.25-.84.03-8.57-1.85-6.52,7.48-7.07-17.07.76.22.64,12.69,1.49"/>
  <path class="cls-10" d="M208.23,264.26c-16.24-.77-14.29,9.2-18.85,11.67,2.99-14.43-5.23-15.1,19.03-14.35-24.84,2.13-17.63-1.65-16.77,3.16-11.08-.16,4.91,2.66,16.59-.48"/>
  <path class="cls-15" d="M121.97,387.36c9.68,11,3.14,12.61-7.26,3.66-.4-3.22-7.09-4.27-50.16-25.62-6.26-7.23,38.24,14.75,52.45,19.85-11.63-4.94-4.06-1.47,4.96,2.11"/>
  <path class="cls-10" d="M63.51,339.24c8.82-3.98,26.9,19.7,23.94-6.73-18.31,22.21-29.58,7.53-47.12-.34,22.88-6.48,16.52,13.06,21.05-10.3,3.94-7.18,3.39,18.58,2.12,17.37"/>
  <path class="cls-62" d="M252.33,192.54c-26.06,2.98-15.6,9.63-12.12-4.89,11.04.4,5.6-.25,7.94-3.48-2.82,4.39-6.85,2.36,2.94.92,2.12-1.73,3.16,3,1.23,7.44"/>
  <path class="cls-116" d="M400.6,179.96c32.08,1.91,49.18,12.23-11.16,5.24-9.78,1.88-5.28-2.57-6.53-7.74-.71,1.24,8.14-.12,5.54,1.22,2.73.72-5.56,1.36,12.15,1.28"/>
  <path class="cls-145" d="M392.02,134.23c-5.5-10.6-7.82-11.42-68.13-11.04,71.94,4.76,80.45-3.56,74.47,9.58,11.09,4.48,9.82-7.37-13.98-6.75,5.65,6.73,15.44-.43,7.63,8.21"/>
  <path class="cls-49" d="M283.42,179.47c3.58,14.02,2.74,7.15-14.3,6.7,12.1-1.7,20.79-4.53,12.91-14.94-8.38,2.69-.53,5.88-4.2,8.72,7.73-.04.85.64,5.59-.48"/>
  <path class="cls-168" d="M381.68,185.08c-5.76.23-10.92.69-10.19-2.21,8.8-.54,4.09-.16-11.89.33-1.58-3.9,8.52,2.02,4.58-4.3,26.53.07,11.83-.83,17.5,6.19"/>
  <path class="cls-107" d="M283.61,134.6c18.75-.31,1.44-8.33-3.88.98-33.15,6.71-7.78-6.13-9.85.88,5.77-1.41,13.98,2.85,8.91-3.61-8.13-1.79-8.88,7.95,4.82,1.75"/>
  <path class="cls-10" d="M374.24,252.3c21.67-2.2,13.54,8.78,13.53,11.84-4.89,3.03-2.57-1.37-13.69-11.31,74.78-.34,79-1.52-29.75-1.59,63.58-2.75,61.98,1.94,29.91,1.07"/>
  <path class="cls-102" d="M458.48,216.85c12.96-1.96,14.93,7.21,1.72,6.5-6.45-9.44-3.48-5.88-1.17-7.33,4.98,1.01,7.66.63,6.15-.39-11.44.65-9.52,1.35-6.7,1.23"/>
  <path class="cls-120" d="M412.74,289.5c-4.42,2.54-9.55,3.97-6.96,4.13,4.48,1.27-2.77,2.67-10.63,1.46,9.18.96,13.54.36,6.02-2.09-1.69,4.44,2.48.53,11.57-3.5"/>
  <path class="cls-95" d="M128.48,323.51c8.7.58,5.46-4.25.71,11.16,2.9,17.37-8.15,40.2-3.38-12.18,4.59,4.12,10.12-3.41,13.99,1.85-.75,23.46,21.73-10.72-11.32-.83"/>
  <path class="cls-6" d="M466.42,218.12c6.82,6.86-.3-4.17-4.92-4.64,2.39,6.66-.66,1.7.37,5.6,1.05-3.02.84-8.56-4.65-4.98-4,4.82,1.02,4.86,9.2,4.01"/>
  <path class="cls-61" d="M271.35,245.65c-11.08,3.75-45.3-.44-137.48,24.38-50.27,24.49-29.11,1.92,24.48-11.27,42.67-9.97,50.06-9.18,28.81-4.15-8.02,5.68,10.39-12.12,84.19-8.95"/>
  <path class="cls-112" d="M421.51,289.74c5.85,3.77-.69-10.26,3.51-8.18-5.75,3.67,2.08-19.28-4.48-1.08.75,3.62-1.53-14,.83-11.14,4.27,6.49-2.53,5.02.14,20.41"/>
  <path class="cls-136" d="M250.85,246.22c3.35-13.63-12.92-7.26,1.38-3.82-16.33,5.18-.82-5.7-7.71-8.52,2.82,9.48.73-8.18,3.36-23.71,7.27-.29,2.15.87,2.97,36.05"/>
  <path class="cls-24" d="M283.18,186.37c-1.42,2.03-8.97,1.39-7.3-.63,6.3-3.93,3.13,3.94-5.71,2.92,9.67-6.43,13.12-3.5,10.11-3.68-6.49-6.65,6.34-3.92,2.9,1.4"/>
  <path class="cls-10" d="M372.99,181.52c-1.26,9.6,3.4,9.48,7.41,4.95-13.83,4.89-5.18-7-9.93.81-1.29-.03,5.52-3.93-3.95-2.69-1.22-4.64.09-3.26,6.47-3.06"/>
  <path class="cls-81" d="M287.23,193.76c-9.81-11.14-8.3-3.54-11.79-7.15-5.53-2.3-13.64,8.05-22.07-.42,26.02-7.01,28.53,1.52,23.83,1.31,9.9-.54,3.86,7.19,10.03,6.27"/>
  <path class="cls-50" d="M339.68,360.24c.63,5.91,5.92,1.87-10.34.37.9,9.28.82-7.82-2.05,8.05,4.5-8.04,1.46-26.64,8.59-22.82-3.45,5.44,1.21,6.7,3.8,14.39"/>
  <path class="cls-91" d="M330.33,293.01c4.59,7.22,3.19,12.68,2.71,4.95-18.57.93-11.39-1.1,3.67-2.13-12.91,6.67-13.86,3.03-11.46-5.66,24.6.03,38.41,1.8,5.08,2.85"/>
  <path class="cls-153" d="M64.8,363.48c49.37,22.66,48.58-9.34,9.38-8.63-.26-3.38-1.12-1.26.55-1.91,2.13-11.63-3.04-1.62,27.65-8.82-54.9,5.26-35-5.88-37.58,19.36"/>
  <path class="cls-118" d="M356.86,241.9c.47,15.6-.04,4.46-14.24,7.87-19.28-.55-32.21-.43-22.25-2.9-3.94-6.04,1.5-.83,40.54-4.38-60.1-3.33-29.97-.53-4.05-.59"/>
  <path class="cls-161" d="M487.12,294.79c-.7-2.97-2.15,5.67-.12,5.31-12.45-.54-4.18.31-8.9-6.11,9.76,2.21,18.61-.58,2.21-.02-12.66,1.01-3.99,1.52,6.82.82"/>
  <path class="cls-150" d="M570.01,301.55c-16.14-1.32-26.51-5.4,4.59.9-46.74-15.92-63.63,12.43-53.14-21.51,23.92,18.85,20.32-.8,33.63,10.23,15.27,3.37,20.1,7.92,14.91,10.38"/>
  <path class="cls-111" d="M127.1,351.74c-11.36-2.51,16.55,9.98,11.2-6.09-19.54,18.15-27.22,11.54-14.21-2.9-.85,10.99-7.47,6.16-5.7,1.21-1.05-2.78,5.93,2.15,8.71,7.77"/>
  <path class="cls-41" d="M349.36,289.19c3.43,8.95-12.8,12.34-25.4,7.95,5.35-4.67,4.81-7.96,12.86-8.85-9.79,5.48-2.66,1.02,3.81-.17-10.48,1.27-10.13,1.33,8.72,1.07"/>
  <path class="cls-10" d="M142.47,300.47c.47.58-3.07,3.94-8.97,4.48-2.15-2.08-3.96-26.92-6.63.41-38.9,11.68-1.59-28.26,8.74-23.84,11.96-9.3,7.67,4.65,6.87,18.95"/>
  <path class="cls-70" d="M248.37,292.79c-3.6,12.46,11.15,5.15-12.67,7.55-19.62,3.53-11.12-12.45-12.24.81,9.41-4.77,25.6.63,21.41-6-21.18-3.3-16.41.63,3.5-2.36"/>
  <path class="cls-179" d="M486.01,289.9c-9.05-.09,3.52,2.83-3.78,3.37,2.97-4.71-1.08-1.06-.9-4.14.56,7.34-.38-16.44-4.09-31.84,5.93-4.04,3.52,12.44,8.77,32.62"/>
  <path class="cls-48" d="M310.02,213.24c-6.87-8.13-11.51-.76-11.74-3.91,1.53,2.23-18.94,6.64-8.93,1.98,1.38-7.46,11.86-6.51,13.52-7.42-7.1,1.91,7.3-2.11,7.16,9.35"/>
  <path class="cls-138" d="M346.96,124.73c-1.67-1.79-.71.52,1.33,5.03,3.97.34,3.47-4.11-2.46-3.06,11.03-6.03,9.97,3.62,2.04-2.89-73.4,4.13-60.09,5.67-.9.92"/>
  <path class="cls-106" d="M108.95,272.09c4.93-16.92-9.09-19.22,39.24-43.51,75.02-24.39,23.61-7.48-22.65,13.21-17.39,22.12-20.72,7.71-18.24,26.46-6.66-6.12,3.18-37.78,1.65,3.84"/>
  <path class="cls-14" d="M324.61,297.48c-95.95,2.99-113.64,4.39-113.61,7.09,6.31-3.21,7.34-2.1,5.44.15,6.33-11.42-1.34-11.93,8.08-10.9-7.73,6.79,92.75-11.4,100.09,3.66"/>
  <path class="cls-20" d="M183.07,274.99c-1.28,25.75,6.97,22.51-16.03,24.18.37-8.69,21.42,8.22-4.21-20.59,18.78,1.74,15.97,9.04,6.26-7.6,16.56,13.59,17.98,3.15,13.97,4.02"/>
  <path class="cls-178" d="M213.64,221.73c-3.07-.48-9.42,4.67-13.96,12.26,2.99,4.31,5.73-23.78-1.68-5.77-.09-9.59,8.59-9.93,5.91-10,6.39-1.2,9.69.44,9.73,3.5"/>
  <path class="cls-98" d="M201.25,163.07c-24.62.96-30.84,13.56-49.74,20.58-42.8,20.76-48.08,80.08-39.77,25.4,26.25-39.05,40.91-36.17,56.99-48.91,22.32-6.72,14.48-16.02,32.51,2.93"/>
  <path class="cls-171" d="M353.07,253.65c-.38-7.26-10.92-2.55-6.39-4.81-.04-.07-3.42,2.02-9.12.65,8.12.95,10.53.38-20.59.07,9.61,4.73,34.66-1.1,36.11,4.09"/>
  <path class="cls-152" d="M247.07,258.7c1.47,6.23,4.32,39.49-3.29,32.75.62,2.5.4-29.23.11-30.3-1.69,9.83,2.08,4.8-.36-12.91,8.55,12.82,8.91,18.43,3.54,10.46"/>
  <path class="cls-3" d="M380.68,210.35c-4.78,6.46-11.29-3.23-12.07-2.8,5.55,2.86-4.48-1.23-10.07,3,2.66-9.17,8.75-5.44,14.2-10.08-.32,5.83-.14-2.15,7.94,9.88"/>
  <path class="cls-17" d="M290.11,143.01c-9.37-5.81,2.27-7.77-2.15,2.46,7.21,9.89-2.64-17.99-2.8,2.66,6.48-15.38,3.68-5.38,22.21-11.56-35.52,1.61-24.57.13-17.26,6.44"/>
  <path class="cls-154" d="M345.4,301.25c-75.71,1.11-110.85,4.46-155.53,7.22,29.03-1.04,2.91-2.86,15-3.19,4.87-3.56,8.45-2.45-24.3.91,15.52,7.23,24.53-12.88,164.83-4.94"/>
  <path class="cls-174" d="M524.61,307.26c6.57,6.42-28.93-4.87-97.92-4.24,4.87-1.69-67.39.33-110.04-4.11,112.43,1.36,120.2.53,95.57-.51,4.66,3.61,28.5-1.94,112.38,8.86"/>
  <path class="cls-10" d="M309.39,177.5c5.17,10.54,3.89,7.77-13.73,6.67,14.15,4.99-1.8-7.51,26.99-5.93-20.25-4.36-7.76,7.37-10.22,1.84-1.14,4.85-2.89,3.11-3.04-2.58"/>
  <path class="cls-19" d="M220.58,206.33c3.2-14.55-1.76,14.8-2.89,35.98-.45-26.36-1.64-38.78,2.01-33.07-6.83,5.92,3.08,2.82-10.56,4.54,15.06-3.8,12.17,3.14,11.44-7.46"/>
  <path class="cls-99" d="M321.23,356.66c92.21,26.53,79.78,41.17-132.15,42.39-7.4-41.65,11.46-45.47,94.48-41.82,33.13,1.72,15.88-14.23,25.2-.62-12.74-.49-6.48,1.67,12.47.05"/>
  <path class="cls-155" d="M220.3,288.43c-1.01,9.98,2.63,4.61-1.7,6.72-6.84.15-11.39.34-8.4-.2.76.42-3.64-16.61,5.81-20.72,1.42,6.68-3.31,20.15,4.29,14.2"/>
</svg>