<?xml version="1.0" ?>
<svg xmlns="http://www.w3.org/2000/svg" version="1.1" width="512" height="347">
  <defs/>
  <g>
    <path d="M -0.055716801434755325 0.210434690117836 L 511.04071044921875 0.686262845993042 L 511.08758544921875 345.5813293457031 L 0.7637487053871155 345.61749267578125 L -0.055716801434755325 0.210434690117836" stroke-width="0.0" fill="rgb(255, 255, 255)" opacity="1.0" stroke="rgb(0, 0, 0)" stroke-opacity="1.0" stroke-linecap="round" stroke-linejoin="round"/>
    <path d="M -0.2427249699831009 -0.1294451206922531 L 0.6665819883346558 348.24072265625 L 513.040771484375 347.9224548339844 L 513.0830078125 0.950681209564209 C 340.9871826171875 -0.5198157429695129 170.96560668945312 0.5119941830635071 -0.2427249699831009 -0.1294451206922531" stroke-width="2.0" fill="rgb(255, 255, 255)" opacity="1.0" stroke="rgb(0, 0, 0)" stroke-opacity="1.0" stroke-linecap="round" stroke-linejoin="round"/>
    <path d="M 475.0256652832031 266.414794921875 C 469.3873291015625 254.67332458496094 459.3842468261719 259.7870788574219 455.4588928222656 250.13670349121094 C 448.77825927734375 237.09449768066406 447.0244445800781 223.81961059570312 455.1197204589844 212.54071044921875 C 443.2295227050781 206.68527221679688 437.6210632324219 205.50926208496094 431.79827880859375 200.88885498046875 C 428.8457336425781 186.18775939941406 419.363037109375 173.71768188476562 429.0514831542969 158.98806762695312 C 408.49200439453125 140.30499267578125 400.92962646484375 113.94420623779297 396.453369140625 90.28765869140625 C 324.8599548339844 75.67913055419922 251.7841339111328 78.3442153930664 180.74832153320312 94.57098388671875 C 184.60934448242188 111.29182434082031 155.49301147460938 112.66494750976562 146.61434936523438 118.78145599365234 C 128.34588623046875 103.21073913574219 107.20002746582031 125.92536163330078 90.99642944335938 132.45570373535156 C 63.007568359375 152.09503173828125 49.04011154174805 176.0611114501953 57.02153015136719 204.15916442871094 C 43.68982696533203 217.78048706054688 62.340023040771484 231.82553100585938 45.665855407714844 244.8813934326172 C 53.814449310302734 267.03839111328125 38.02742385864258 287.8843688964844 43.36993408203125 313.2520751953125 L 159.38206481933594 314.4512939453125 C 170.77574157714844 303.7471008300781 189.93539428710938 321.5662841796875 202.86729431152344 310.3876647949219 C 209.24188232421875 309.72894287109375 208.66976928710938 310.7130126953125 213.0436553955078 307.0646057128906 C 228.19354248046875 310.2238464355469 243.34048461914062 307.5177001953125 259.254150390625 309.5965881347656 C 269.5830078125 325.9681701660156 281.2099609375 293.4290466308594 284.9124450683594 307.9242858886719 C 302.9851989746094 305.2139892578125 322.61181640625 318.43731689453125 341.7509460449219 309.7065124511719 C 369.16998291015625 315.8066101074219 395.36065673828125 307.52410888671875 420.3193359375 311.53564453125 C 439.76861572265625 307.3040771484375 462.2429504394531 315.3175354003906 475.6394958496094 304.09210205078125 C 475.50006103515625 287.31573486328125 471.2934875488281 276.5560302734375 475.0256652832031 266.414794921875" stroke-width="2.0" fill="rgb(255, 255, 255)" opacity="1.0" stroke="rgb(0, 0, 0)" stroke-opacity="1.0" stroke-linecap="round" stroke-linejoin="round"/>
    <path d="M 192.1983642578125 -0.7740175724029541 C 197.98773193359375 5.007201194763184 204.11671447753906 13.382709503173828 211.21755981445312 7.575010299682617 C 211.32701110839844 6.046205520629883 223.33416748046875 6.152267932891846 213.21849060058594 9.112866401672363 C 219.61740112304688 12.567811965942383 213.7351531982422 11.260765075683594 210.7733917236328 16.345041275024414 C 213.62680053710938 23.429887771606445 213.6078338623047 37.16409683227539 214.47671508789062 33.0438232421875 C 229.794189453125 45.787567138671875 240.565673828125 67.20403289794922 234.8389129638672 82.57333374023438 C 290.6983642578125 80.49407196044922 342.6018371582031 77.75383758544922 395.9270935058594 93.68970489501953 C 394.3505859375 109.1543960571289 407.2376403808594 127.04830932617188 412.5426940917969 147.92019653320312 C 417.89007568359375 150.10751342773438 419.2646484375 156.10743713378906 428.1499328613281 158.4337615966797 C 418.7857971191406 171.73675537109375 426.6817626953125 200.9765625 448.7288818359375 201.1732940673828 C 456.31817626953125 209.6152801513672 459.8831787109375 216.28988647460938 455.6541748046875 224.31541442871094 C 455.5557556152344 236.8655242919922 453.4901123046875 253.24034118652344 473.27044677734375 256.58270263671875 C 478.0602722167969 265.6354064941406 469.94091796875 280.6260986328125 485.2792663574219 281.1328125 C 491.9506530761719 274.6955871582031 501.678466796875 270.6910095214844 513.0982055664062 271.0217590332031 L 513.070068359375 -2.0864267349243164 L 192.1983642578125 -0.7740175724029541" stroke-width="2.0" fill="rgb(255, 255, 255)" opacity="1.0" stroke="rgb(0, 0, 0)" stroke-opacity="1.0" stroke-linecap="round" stroke-linejoin="round"/>
    <path d="M 194.27426147460938 8.946281433105469 L -0.4406391382217407 2.9530439376831055 L 0.5536396503448486 278.72161865234375 C 7.326284408569336 278.6866149902344 11.400533676147461 274.43609619140625 19.911348342895508 280.69915771484375 C 21.35369873046875 297.00604248046875 34.593605041503906 280.8672180175781 46.31461715698242 276.4807434082031 C 42.773311614990234 242.19529724121094 53.65705490112305 209.3321075439453 55.68742370605469 177.4237060546875 C 64.0406723022461 143.4687042236328 106.5014877319336 121.36627197265625 133.75582885742188 110.4806137084961 C 137.9918670654297 111.85363006591797 145.72811889648438 122.4015884399414 155.1468505859375 114.4767074584961 L 178.84129333496094 108.29286193847656 C 184.41847229003906 100.25739288330078 179.0580596923828 94.78507232666016 181.60968017578125 93.94914245605469 L 244.16079711914062 82.26356506347656 C 233.6238250732422 78.7220687866211 245.57266235351562 75.42218780517578 243.72030639648438 68.66978454589844 C 232.99472045898438 59.27684783935547 239.58554077148438 46.46722412109375 225.10865783691406 44.390357971191406 C 224.91073608398438 33.74540710449219 208.0173797607422 44.210845947265625 198.71009826660156 29.203065872192383 C 201.2534637451172 17.470951080322266 194.3431396484375 12.8570556640625 185.6148681640625 7.478244304656982 C 189.80804443359375 3.7093589305877686 191.36962890625 5.2260026931762695 194.27426147460938 8.946281433105469" stroke-width="2.0" fill="rgb(255, 255, 255)" opacity="1.0" stroke="rgb(0, 0, 0)" stroke-opacity="1.0" stroke-linecap="round" stroke-linejoin="round"/>
    <path d="M 12.915390968322754 320.67620849609375 C 30.32056999206543 333.189697265625 51.01036834716797 335.83984375 69.94632720947266 347.5919494628906 L 512.595458984375 347.88214111328125 L 512.60205078125 321.15234375 C 483.5882568359375 318.5255126953125 454.908203125 316.3493957519531 427.5118103027344 315.8089294433594 L 420.6779479980469 308.8124084472656 C 376.367431640625 311.10992431640625 332.85369873046875 307.4094543457031 296.2882080078125 316.4647216796875 C 294.2196044921875 312.82879638671875 275.4804382324219 311.3995361328125 289.61529541015625 319.75958251953125 C 291.1662292480469 322.44830322265625 275.50848388671875 319.49822998046875 278.5338134765625 308.0574951171875 L 268.2570495605469 310.96209716796875 C 189.1959991455078 313.0320129394531 106.20242309570312 307.5190734863281 22.707584381103516 306.35223388671875 C 17.041654586791992 315.20306396484375 12.052331924438477 313.1769714355469 12.915390968322754 320.67620849609375" stroke-width="2.0" fill="rgb(255, 255, 255)" opacity="1.0" stroke="rgb(0, 0, 0)" stroke-opacity="1.0" stroke-linecap="round" stroke-linejoin="round"/>
    <path d="M -0.15968860685825348 122.44471740722656 L 1.7450599670410156 279.27142333984375 C 8.507122039794922 275.51318359375 14.010193824768066 276.92181396484375 22.094755172729492 278.7535705566406 C 27.341760635375977 282.36431884765625 22.538265228271484 287.1138000488281 25.540950775146484 288.6609191894531 C 30.511987686157227 280.9430847167969 41.41803741455078 276.57830810546875 42.95219421386719 267.9923095703125 C 41.51167297363281 236.63194274902344 60.46514129638672 205.18394470214844 54.654998779296875 174.93710327148438 L 51.384910583496094 169.6338653564453 C 41.454166412353516 151.9834747314453 12.067283630371094 149.43421936035156 9.37729263305664 127.58473205566406 L -0.15968860685825348 122.44471740722656" stroke-width="2.0" fill="rgb(255, 255, 255)" opacity="1.0" stroke="rgb(0, 0, 0)" stroke-opacity="1.0" stroke-linecap="round" stroke-linejoin="round"/>
    <path d="M 0.9639455676078796 192.97825622558594 L -0.8617206811904907 283.9801025390625 C 7.477379322052002 288.0000915527344 9.247232437133789 274.4535827636719 15.39303970336914 281.9483337402344 C 18.73650550842285 284.05133056640625 11.228647232055664 292.934814453125 20.607675552368164 294.04608154296875 C 34.32146453857422 291.9740905761719 36.89213943481445 281.6053771972656 46.12031555175781 277.7528076171875 C 51.56788635253906 257.53009033203125 40.61325454711914 242.39259338378906 53.71147537231445 231.7716522216797 C 51.510963439941406 222.26263427734375 50.093990325927734 215.83889770507812 51.670509338378906 207.97727966308594 C 34.823177337646484 199.21453857421875 15.779749870300293 199.94798278808594 0.9639455676078796 192.97825622558594" stroke-width="2.0" fill="rgb(255, 255, 255)" opacity="1.0" stroke="rgb(0, 0, 0)" stroke-opacity="1.0" stroke-linecap="round" stroke-linejoin="round"/>
    <path d="M -0.20157232880592346 79.57007598876953 C 2.3176381587982178 97.80852508544922 -10.47862720489502 119.82099914550781 11.678466796875 127.7975845336914 C 18.823890686035156 147.616943359375 39.054630279541016 154.5859832763672 58.199344635009766 163.54168701171875 C 59.24937057495117 150.33096313476562 82.53022766113281 149.69882202148438 82.88887786865234 131.44834899902344 C 67.22598266601562 132.08120727539062 59.063087463378906 117.62194061279297 50.89530944824219 103.51741790771484 C 33.26554489135742 97.83687591552734 17.997087478637695 87.01239013671875 -0.20157232880592346 79.57007598876953" stroke-width="2.0" fill="rgb(255, 255, 255)" opacity="1.0" stroke="rgb(0, 0, 0)" stroke-opacity="1.0" stroke-linecap="round" stroke-linejoin="round"/>
    <path d="M 512.8340454101562 225.6768798828125 C 493.6849060058594 236.26844787597656 470.896484375 217.23391723632812 450.87890625 227.6786651611328 C 449.8427734375 245.36785888671875 454.0007629394531 259.51123046875 466.64215087890625 256.1291198730469 C 467.85150146484375 263.722900390625 478.8896179199219 264.3762512207031 472.2034912109375 266.728515625 C 469.2252502441406 277.9928894042969 477.11627197265625 291.4955749511719 488.49090576171875 284.121826171875 C 497.9604797363281 287.6648254394531 488.74072265625 278.3269348144531 493.3755798339844 276.0704040527344 L 512.7430419921875 272.9849548339844 L 512.8340454101562 225.6768798828125" stroke-width="2.0" fill="rgb(255, 255, 255)" opacity="1.0" stroke="rgb(0, 0, 0)" stroke-opacity="1.0" stroke-linecap="round" stroke-linejoin="round"/>
    <path d="M -1.028157114982605 -1.6963802576065063 C -3.238657236099243 8.518950462341309 6.452377796173096 21.788087844848633 17.57482147216797 20.671104431152344 C 28.29685401916504 23.68461799621582 33.97397994995117 31.54887580871582 26.606475830078125 41.16997146606445 C 37.10761642456055 57.41661071777344 53.88847732543945 39.667572021484375 69.38956451416016 49.752750396728516 C 81.04386901855469 45.477378845214844 70.87476348876953 34.941734313964844 63.64092254638672 31.318513870239258 C 63.557186126708984 13.445215225219727 43.10497283935547 9.743685722351074 27.84316062927246 0.1991773098707199 L -1.028157114982605 -1.6963802576065063" stroke-width="2.0" fill="rgb(255, 255, 255)" opacity="1.0" stroke="rgb(0, 0, 0)" stroke-opacity="1.0" stroke-linecap="round" stroke-linejoin="round"/>
    <path d="M 55.647430419921875 69.66506958007812 L 50.94470977783203 75.03099060058594 C 69.01249694824219 86.76496887207031 81.63729095458984 90.8894271850586 85.08800506591797 111.64176940917969 C 95.17394256591797 110.07511138916016 95.04755401611328 120.98141479492188 103.2256088256836 121.4271240234375 C 111.30061340332031 116.57787322998047 128.6799774169922 111.15037536621094 111.86000061035156 106.06793212890625 C 112.11204528808594 94.35669708251953 96.08164978027344 84.03400421142578 107.52938079833984 72.44960021972656 C 98.8406982421875 63.50777816772461 83.24503326416016 52.759578704833984 77.82608795166016 64.37921905517578 C 70.24325561523438 65.03814697265625 63.468360900878906 63.912689208984375 55.647430419921875 69.66506958007812" stroke-width="2.0" fill="rgb(255, 255, 255)" opacity="1.0" stroke="rgb(0, 0, 0)" stroke-opacity="1.0" stroke-linecap="round" stroke-linejoin="round"/>
    <path d="M 0.2648050785064697 168.65975952148438 L -0.5590466856956482 197.77291870117188 C 17.657480239868164 196.58026123046875 35.19681930541992 201.56387329101562 54.153682708740234 208.7022247314453 C 56.9864501953125 199.05767822265625 58.8475341796875 190.4310760498047 49.19169998168945 186.70413208007812 C 30.740224838256836 181.0987091064453 15.428933143615723 178.3882293701172 0.2648050785064697 168.65975952148438" stroke-width="2.0" fill="rgb(255, 255, 255)" opacity="1.0" stroke="rgb(0, 0, 0)" stroke-opacity="1.0" stroke-linecap="round" stroke-linejoin="round"/>
    <path d="M 462.6973876953125 252.00564575195312 C 475.8337707519531 255.63002014160156 475.8542175292969 265.8772888183594 470.9759521484375 275.7823791503906 C 471.7225646972656 286.71337890625 494.23193359375 290.7715148925781 491.5558776855469 280.046142578125 C 497.3005065917969 272.3543701171875 504.45843505859375 276.1600341796875 512.492431640625 273.3411865234375 L 512.063720703125 252.8525848388672 C 497.3039855957031 252.46673583984375 479.34686279296875 244.1396942138672 470.2733154296875 256.4373474121094 C 466.5425109863281 252.40147399902344 466.0468444824219 252.4629669189453 462.6973876953125 252.00564575195312" stroke-width="2.0" fill="rgb(255, 255, 255)" opacity="1.0" stroke="rgb(0, 0, 0)" stroke-opacity="1.0" stroke-linecap="round" stroke-linejoin="round"/>
    <path d="M 0.5790210366249084 330.0115051269531 L -1.1232707500457764 347.64617919921875 L 69.12380981445312 346.0815734863281 C 52.751060485839844 337.2790832519531 36.672454833984375 323.8045654296875 19.863462448120117 312.42010498046875 C 6.069408893585205 321.38140869140625 15.907173156738281 328.61968994140625 12.619990348815918 329.97088623046875 L 0.5790210366249084 330.0115051269531" stroke-width="2.0" fill="rgb(255, 255, 255)" opacity="1.0" stroke="rgb(0, 0, 0)" stroke-opacity="1.0" stroke-linecap="round" stroke-linejoin="round"/>
    <path d="M 471.6691589355469 283.9073486328125 L 474.4360656738281 309.56268310546875 C 486.2453308105469 309.607421875 499.9146423339844 311.5594177246094 512.9111328125 308.252197265625 L 512.7785034179688 286.2639465332031 C 498.53900146484375 285.45941162109375 485.9674377441406 289.02862548828125 471.6691589355469 283.9073486328125" stroke-width="2.0" fill="rgb(255, 255, 255)" opacity="1.0" stroke="rgb(0, 0, 0)" stroke-opacity="1.0" stroke-linecap="round" stroke-linejoin="round"/>
    <path d="M 512.8765258789062 322.60589599609375 C 514.8809814453125 312.8597717285156 511.8662414550781 308.9430847167969 502.4300537109375 306.2561950683594 L 419.0489196777344 307.6192932128906 L 421.5886535644531 318.7662048339844 L 512.8765258789062 322.60589599609375" stroke-width="2.0" fill="rgb(255, 255, 255)" opacity="1.0" stroke="rgb(0, 0, 0)" stroke-opacity="1.0" stroke-linecap="round" stroke-linejoin="round"/>
    <path d="M 315.0884704589844 274.51629638671875 C 303.08489990234375 282.93194580078125 320.4878845214844 298.9941711425781 305.0995178222656 300.67095947265625 L 305.71624755859375 314.69659423828125 C 316.5498046875 308.7387390136719 343.06646728515625 316.78643798828125 331.9866943359375 296.4568176269531 C 333.2745361328125 285.92730712890625 336.1933288574219 267.2410888671875 315.0884704589844 274.51629638671875" stroke-width="2.0" fill="rgb(255, 255, 255)" opacity="1.0" stroke="rgb(0, 0, 0)" stroke-opacity="1.0" stroke-linecap="round" stroke-linejoin="round"/>
    <path d="M 513.071044921875 251.57249450683594 L 511.6966247558594 215.10025024414062 C 493.4056701660156 223.7103271484375 478.2193908691406 214.21592712402344 456.74761962890625 220.0736083984375 C 465.8292236328125 236.85157775878906 481.86749267578125 235.46414184570312 488.3940734863281 239.20761108398438 C 486.0977783203125 243.53689575195312 475.71258544921875 243.31802368164062 480.9293212890625 250.9488067626953 C 490.80853271484375 247.31231689453125 500.3094177246094 249.9563446044922 513.071044921875 251.57249450683594" stroke-width="2.0" fill="rgb(255, 255, 255)" opacity="1.0" stroke="rgb(0, 0, 0)" stroke-opacity="1.0" stroke-linecap="round" stroke-linejoin="round"/>
    <path d="M 512.8424072265625 273.5382385253906 L 491.4945068359375 276.9750061035156 C 491.9642639160156 278.9379577636719 499.64111328125 293.6786193847656 487.9708557128906 282.1377868652344 C 483.8181457519531 290.508544921875 477.9089050292969 284.9300537109375 473.4356994628906 280.4205322265625 L 475.2511291503906 295.9301452636719 L 512.7769775390625 296.8588562011719 L 512.8424072265625 273.5382385253906" stroke-width="2.0" fill="rgb(255, 255, 255)" opacity="1.0" stroke="rgb(0, 0, 0)" stroke-opacity="1.0" stroke-linecap="round" stroke-linejoin="round"/>
    <path d="M 288.2276916503906 272.9881591796875 C 268.2299499511719 273.2500915527344 273.1960144042969 298.06695556640625 272.1928405761719 311.7115783691406 C 282.6766052246094 312.39892578125 276.6100158691406 304.9197998046875 279.15191650390625 300.5567932128906 C 284.35870361328125 302.4244079589844 280.5658264160156 307.8311462402344 287.634033203125 312.54815673828125 C 302.9955749511719 312.2005920410156 293.4405822753906 293.1669006347656 295.4959411621094 278.1972961425781 L 288.2276916503906 272.9881591796875" stroke-width="2.0" fill="rgb(255, 255, 255)" opacity="1.0" stroke="rgb(0, 0, 0)" stroke-opacity="1.0" stroke-linecap="round" stroke-linejoin="round"/>
    <path d="M 0.3422648310661316 331.9360656738281 L -1.1889927387237549 348.170654296875 L 60.208953857421875 346.8787841796875 L 13.611166954040527 324.6368713378906 C 9.072969436645508 327.83123779296875 19.134897232055664 330.0499572753906 15.141714096069336 330.9002990722656 L 0.3422648310661316 331.9360656738281" stroke-width="2.0" fill="rgb(255, 255, 255)" opacity="1.0" stroke="rgb(0, 0, 0)" stroke-opacity="1.0" stroke-linecap="round" stroke-linejoin="round"/>
    <path d="M 356.05035400390625 274.4992980957031 C 341.7308349609375 291.42840576171875 343.23004150390625 317.7009582519531 375.0828857421875 309.9306945800781 C 367.9204406738281 296.621337890625 378.8768615722656 270.1344909667969 356.05035400390625 274.4992980957031" stroke-width="2.0" fill="rgb(255, 255, 255)" opacity="1.0" stroke="rgb(0, 0, 0)" stroke-opacity="1.0" stroke-linecap="round" stroke-linejoin="round"/>
    <path d="M 243.8129425048828 275.6065979003906 C 233.92279052734375 283.4543151855469 236.83363342285156 295.72113037109375 236.80039978027344 306.57476806640625 C 242.93775939941406 308.3019104003906 249.37692260742188 308.3074951171875 258.1859436035156 308.4171447753906 C 258.0390319824219 297.07598876953125 262.25567626953125 271.4224853515625 243.8129425048828 275.6065979003906" stroke-width="2.0" fill="rgb(255, 255, 255)" opacity="1.0" stroke="rgb(0, 0, 0)" stroke-opacity="1.0" stroke-linecap="round" stroke-linejoin="round"/>
    <path d="M 391.02496337890625 272.3516540527344 C 375.2739562988281 278.98956298828125 383.9863586425781 293.9947814941406 382.32373046875 308.6547546386719 C 406.8758239746094 325.4368591308594 413.898193359375 273.4103088378906 391.02496337890625 272.3516540527344" stroke-width="2.0" fill="rgb(255, 255, 255)" opacity="1.0" stroke="rgb(0, 0, 0)" stroke-opacity="1.0" stroke-linecap="round" stroke-linejoin="round"/>
    <path d="M 215.79153442382812 276.58203125 C 186.69204711914062 267.0120544433594 206.47633361816406 304.8968505859375 191.07894897460938 307.07958984375 C 189.6291961669922 313.85498046875 204.87901306152344 313.97418212890625 205.9989471435547 306.88934326171875 L 220.94822692871094 306.8973083496094 C 221.4973602294922 295.6666259765625 225.0395050048828 285.54803466796875 215.79153442382812 276.58203125" stroke-width="2.0" fill="rgb(255, 255, 255)" opacity="1.0" stroke="rgb(0, 0, 0)" stroke-opacity="1.0" stroke-linecap="round" stroke-linejoin="round"/>
    <path d="M 347.98101806640625 217.2404327392578 C 341.87579345703125 225.68624877929688 347.4063720703125 236.2036590576172 345.1637878417969 246.99244689941406 L 365.755615234375 247.00576782226562 C 367.6216735839844 233.319091796875 369.33355712890625 209.08981323242188 347.98101806640625 217.2404327392578" stroke-width="2.0" fill="rgb(255, 255, 255)" opacity="1.0" stroke="rgb(0, 0, 0)" stroke-opacity="1.0" stroke-linecap="round" stroke-linejoin="round"/>
    <path d="M 144.91366577148438 277.39971923828125 C 127.81429290771484 284.2749328613281 142.32522583007812 298.15313720703125 136.12342834472656 312.86004638671875 L 153.79251098632812 312.159912109375 C 153.11672973632812 300.2842102050781 164.02487182617188 278.9581604003906 144.91366577148438 277.39971923828125" stroke-width="2.0" fill="rgb(255, 255, 255)" opacity="1.0" stroke="rgb(0, 0, 0)" stroke-opacity="1.0" stroke-linecap="round" stroke-linejoin="round"/>
    <path d="M 174.29330444335938 275.88165283203125 C 158.71820068359375 281.03363037109375 170.94773864746094 298.5464782714844 167.6394500732422 313.0445556640625 L 186.32424926757812 312.7046813964844 C 183.85398864746094 299.9216003417969 192.55201721191406 275.7383728027344 174.29330444335938 275.88165283203125" stroke-width="2.0" fill="rgb(255, 255, 255)" opacity="1.0" stroke="rgb(0, 0, 0)" stroke-opacity="1.0" stroke-linecap="round" stroke-linejoin="round"/>
    <path d="M 511.9888610839844 314.4088134765625 C 482.5970458984375 302.1533508300781 456.4847412109375 308.4072570800781 430.43701171875 305.3604431152344 C 425.6583557128906 310.2685546875 426.6202392578125 313.31494140625 425.8601379394531 317.2897644042969 C 454.9332275390625 315.44677734375 485.7799072265625 320.160888671875 511.9888610839844 314.4088134765625" stroke-width="2.0" fill="rgb(255, 255, 255)" opacity="1.0" stroke="rgb(0, 0, 0)" stroke-opacity="1.0" stroke-linecap="round" stroke-linejoin="round"/>
    <path d="M 205.48239135742188 219.197265625 L 205.22772216796875 246.6410675048828 C 208.9356689453125 250.82485961914062 215.00579833984375 247.40623474121094 220.94927978515625 248.98927307128906 C 223.1427001953125 236.11663818359375 227.69442749023438 210.30120849609375 205.48239135742188 219.197265625" stroke-width="2.0" fill="rgb(255, 255, 255)" opacity="1.0" stroke="rgb(0, 0, 0)" stroke-opacity="1.0" stroke-linecap="round" stroke-linejoin="round"/>
    <path d="M 381.17041015625 218.7210693359375 C 372.3783874511719 223.5793914794922 383.0172119140625 235.42251586914062 378.7004699707031 247.2511444091797 L 398.8072814941406 248.92984008789062 C 398.36846923828125 235.427978515625 401.0091552734375 211.65272521972656 381.17041015625 218.7210693359375" stroke-width="2.0" fill="rgb(255, 255, 255)" opacity="1.0" stroke="rgb(0, 0, 0)" stroke-opacity="1.0" stroke-linecap="round" stroke-linejoin="round"/>
    <path d="M 472.026611328125 286.88385009765625 L 473.2221984863281 298.3691101074219 L 512.6112060546875 299.3227233886719 C 513.9520263671875 290.3212890625 512.6976318359375 279.80157470703125 502.74578857421875 290.3000183105469 C 491.94903564453125 285.4378967285156 482.90679931640625 292.46240234375 472.026611328125 286.88385009765625" stroke-width="2.0" fill="rgb(255, 255, 255)" opacity="1.0" stroke="rgb(0, 0, 0)" stroke-opacity="1.0" stroke-linecap="round" stroke-linejoin="round"/>
    <path d="M 184.9315643310547 221.9047393798828 C 167.9466552734375 214.61814880371094 172.37205505371094 238.552001953125 175.89471435546875 249.16494750976562 C 175.57286071777344 249.1772918701172 181.73573303222656 252.99488830566406 188.1454620361328 249.89727783203125 C 186.88804626464844 239.52806091308594 190.42413330078125 230.73992919921875 184.9315643310547 221.9047393798828" stroke-width="2.0" fill="rgb(255, 255, 255)" opacity="1.0" stroke="rgb(0, 0, 0)" stroke-opacity="1.0" stroke-linecap="round" stroke-linejoin="round"/>
    <path d="M 210.9024200439453 174.2119140625 C 201.2718963623047 178.32644653320312 211.62208557128906 183.38768005371094 205.2611541748047 196.97048950195312 L 231.397216796875 193.7141876220703 C 232.33766174316406 184.77438354492188 230.0432586669922 162.7539825439453 210.9024200439453 174.2119140625" stroke-width="2.0" fill="rgb(255, 255, 255)" opacity="1.0" stroke="rgb(0, 0, 0)" stroke-opacity="1.0" stroke-linecap="round" stroke-linejoin="round"/>
    <path d="M 274.6319885253906 219.8399200439453 C 268.9164123535156 227.85218811035156 272.0919494628906 237.39483642578125 271.1747741699219 246.54248046875 L 293.6263427734375 245.93829345703125 C 293.21014404296875 232.86927795410156 295.0802001953125 209.73451232910156 274.6319885253906 219.8399200439453" stroke-width="2.0" fill="rgb(255, 255, 255)" opacity="1.0" stroke="rgb(0, 0, 0)" stroke-opacity="1.0" stroke-linecap="round" stroke-linejoin="round"/>
    <path d="M 419.6019592285156 272.8079528808594 C 407.0030212402344 284.0017395019531 412.3179626464844 294.3152770996094 405.91278076171875 307.4356689453125 C 416.6775207519531 311.1757507324219 428.13372802734375 310.70892333984375 436.7116394042969 310.1180419921875 C 426.63519287109375 295.1783142089844 435.1556701660156 276.3785400390625 419.6019592285156 272.8079528808594" stroke-width="2.0" fill="rgb(255, 255, 255)" opacity="1.0" stroke="rgb(0, 0, 0)" stroke-opacity="1.0" stroke-linecap="round" stroke-linejoin="round"/>
    <path d="M 240.75572204589844 216.38699340820312 C 235.67906188964844 228.43399047851562 238.86790466308594 236.7613525390625 237.2142333984375 248.812255859375 L 256.9151916503906 247.11138916015625 C 258.2203063964844 233.21180725097656 262.1238708496094 210.96237182617188 240.75572204589844 216.38699340820312" stroke-width="2.0" fill="rgb(255, 255, 255)" opacity="1.0" stroke="rgb(0, 0, 0)" stroke-opacity="1.0" stroke-linecap="round" stroke-linejoin="round"/>
    <path d="M 271.60943603515625 169.47703552246094 C 269.9069519042969 174.38734436035156 269.20849609375 182.62091064453125 269.5202331542969 191.28793334960938 L 291.6347961425781 190.55418395996094 C 292.7557067871094 175.79994201660156 291.4989013671875 160.08432006835938 271.60943603515625 169.47703552246094" stroke-width="2.0" fill="rgb(255, 255, 255)" opacity="1.0" stroke="rgb(0, 0, 0)" stroke-opacity="1.0" stroke-linecap="round" stroke-linejoin="round"/>
    <path d="M 453.1981506347656 3.6085267066955566 C 460.3275451660156 25.053743362426758 501.0118408203125 28.35784339904785 495.6113586425781 0.6981293559074402 C 478.7044677734375 -0.5885926485061646 464.9982604980469 -4.271084785461426 453.1981506347656 3.6085267066955566" stroke-width="2.0" fill="rgb(255, 255, 255)" opacity="1.0" stroke="rgb(0, 0, 0)" stroke-opacity="1.0" stroke-linecap="round" stroke-linejoin="round"/>
    <path d="M 117.34334564208984 280.0807189941406 C 105.34934997558594 290.4615173339844 116.41743469238281 300.9100646972656 111.39016723632812 311.8249206542969 C 130.2792510986328 317.5667419433594 128.57992553710938 296.60870361328125 128.59490966796875 285.95941162109375 C 126.20733642578125 279.7854919433594 123.55322265625 277.4759216308594 117.34334564208984 280.0807189941406" stroke-width="2.0" fill="rgb(255, 255, 255)" opacity="1.0" stroke="rgb(0, 0, 0)" stroke-opacity="1.0" stroke-linecap="round" stroke-linejoin="round"/>
    <path d="M 308.54034423828125 218.974609375 L 309.06280517578125 246.09664916992188 L 328.6502990722656 246.95458984375 C 326.1880798339844 231.86532592773438 331.3888854980469 207.85165405273438 308.54034423828125 218.974609375" stroke-width="2.0" fill="rgb(255, 255, 255)" opacity="1.0" stroke="rgb(0, 0, 0)" stroke-opacity="1.0" stroke-linecap="round" stroke-linejoin="round"/>
    <path d="M 153.64785766601562 224.64871215820312 C 138.78529357910156 222.5183563232422 142.79006958007812 242.80108642578125 146.53207397460938 252.55810546875 C 157.65699768066406 258.5800476074219 159.83859252929688 235.2062530517578 153.64785766601562 224.64871215820312" stroke-width="2.0" fill="rgb(255, 255, 255)" opacity="1.0" stroke="rgb(0, 0, 0)" stroke-opacity="1.0" stroke-linecap="round" stroke-linejoin="round"/>
    <path d="M 426.74951171875 -0.10612814128398895 L 427.0993347167969 21.144941329956055 C 442.9612731933594 19.20673942565918 469.803466796875 27.859155654907227 463.514404296875 6.778106689453125 C 455.7685546875 2.102238655090332 461.0207214355469 6.893070220947266 458.3370361328125 9.297560691833496 C 458.5165710449219 -6.471762657165527 443.4461975097656 0.41882944107055664 426.74951171875 -0.10612814128398895" stroke-width="2.0" fill="rgb(255, 255, 255)" opacity="1.0" stroke="rgb(0, 0, 0)" stroke-opacity="1.0" stroke-linecap="round" stroke-linejoin="round"/>
    <path d="M 352.29290771484375 275.4040222167969 C 344.8805847167969 282.1217346191406 350.0510559082031 289.5533447265625 348.9751892089844 297.4089660644531 L 363.3979797363281 297.964599609375 C 370.1064758300781 287.6120300292969 370.1651306152344 266.61175537109375 352.29290771484375 275.4040222167969" stroke-width="2.0" fill="rgb(255, 255, 255)" opacity="1.0" stroke="rgb(0, 0, 0)" stroke-opacity="1.0" stroke-linecap="round" stroke-linejoin="round"/>
    <path d="M 100.03214263916016 2.686218023300171 C 97.37683868408203 15.082437515258789 113.23316955566406 32.24007034301758 125.42680358886719 31.437301635742188 C 132.33583068847656 18.311492919921875 114.88655090332031 1.8866480588912964 100.03214263916016 2.686218023300171" stroke-width="2.0" fill="rgb(255, 255, 255)" opacity="1.0" stroke="rgb(0, 0, 0)" stroke-opacity="1.0" stroke-linecap="round" stroke-linejoin="round"/>
    <path d="M 210.7943878173828 274.6927185058594 C 198.7401885986328 283.5703430175781 206.4953155517578 295.58868408203125 205.1284637451172 306.91412353515625 L 220.71902465820312 306.7734680175781 C 218.988037109375 295.5347595214844 227.47857666015625 276.3857727050781 210.7943878173828 274.6927185058594" stroke-width="2.0" fill="rgb(255, 255, 255)" opacity="1.0" stroke="rgb(0, 0, 0)" stroke-opacity="1.0" stroke-linecap="round" stroke-linejoin="round"/>
    <path d="M 46.98563003540039 278.6438903808594 C 29.282434463500977 280.064208984375 40.06447982788086 304.8204040527344 24.24171257019043 303.4275207519531 C 15.606937408447266 316.1100769042969 37.30514144897461 310.7423095703125 44.997196197509766 310.3724365234375 C 42.9586296081543 300.5559997558594 46.79924774169922 290.1052551269531 46.98563003540039 278.6438903808594" stroke-width="2.0" fill="rgb(255, 255, 255)" opacity="1.0" stroke="rgb(0, 0, 0)" stroke-opacity="1.0" stroke-linecap="round" stroke-linejoin="round"/>
    <path d="M 202.7835693359375 305.8101501464844 L 202.1605987548828 316.3377380371094 L 260.5858459472656 316.4204406738281 L 260.0951232910156 307.6139221191406 L 202.7835693359375 305.8101501464844" stroke-width="2.0" fill="rgb(255, 255, 255)" opacity="1.0" stroke="rgb(0, 0, 0)" stroke-opacity="1.0" stroke-linecap="round" stroke-linejoin="round"/>
    <path d="M 314.12481689453125 275.7797546386719 C 308.00543212890625 282.43310546875 312.0462951660156 289.3915710449219 310.4442138671875 296.9983215332031 C 316.98077392578125 300.46392822265625 323.0419006347656 296.7972412109375 329.1009216308594 296.03131103515625 C 330.9518737792969 289.1375732421875 329.489501953125 266.961669921875 314.12481689453125 275.7797546386719" stroke-width="2.0" fill="rgb(255, 255, 255)" opacity="1.0" stroke="rgb(0, 0, 0)" stroke-opacity="1.0" stroke-linecap="round" stroke-linejoin="round"/>
    <path d="M 209.3162384033203 222.95101928710938 C 203.04095458984375 230.77911376953125 206.663330078125 239.5669708251953 204.75674438476562 249.00723266601562 L 222.1815185546875 248.79287719726562 C 222.46310424804688 238.2743682861328 227.27760314941406 214.03761291503906 209.3162384033203 222.95101928710938" stroke-width="2.0" fill="rgb(255, 255, 255)" opacity="1.0" stroke="rgb(0, 0, 0)" stroke-opacity="1.0" stroke-linecap="round" stroke-linejoin="round"/>
    <path d="M 413.499267578125 219.8544464111328 C 401.36712646484375 231.07456970214844 403.51708984375 257.571533203125 426.6089782714844 248.06443786621094 C 423.58636474609375 238.0707550048828 427.83294677734375 222.3041229248047 413.499267578125 219.8544464111328" stroke-width="2.0" fill="rgb(255, 255, 255)" opacity="1.0" stroke="rgb(0, 0, 0)" stroke-opacity="1.0" stroke-linecap="round" stroke-linejoin="round"/>
    <path d="M 275.5578918457031 276.8764343261719 C 271.42474365234375 282.2751159667969 272.3512268066406 287.947021484375 271.9576416015625 292.6587829589844 L 295.4698791503906 292.1656799316406 C 300.36077880859375 281.1007385253906 289.6371765136719 265.52459716796875 275.5578918457031 276.8764343261719" stroke-width="2.0" fill="rgb(255, 255, 255)" opacity="1.0" stroke="rgb(0, 0, 0)" stroke-opacity="1.0" stroke-linecap="round" stroke-linejoin="round"/>
    <path d="M 255.27235412597656 169.4973907470703 C 236.3367919921875 163.6146240234375 237.14927673339844 179.62982177734375 236.3575897216797 192.99749755859375 C 258.3038330078125 190.76463317871094 260.707275390625 194.25022888183594 257.3143005371094 176.35989379882812 L 255.27235412597656 169.4973907470703" stroke-width="2.0" fill="rgb(255, 255, 255)" opacity="1.0" stroke="rgb(0, 0, 0)" stroke-opacity="1.0" stroke-linecap="round" stroke-linejoin="round"/>
    <path d="M 237.99143981933594 289.89935302734375 L 237.00604248046875 308.7667541503906 L 258.7120666503906 307.5674133300781 L 256.39178466796875 290.0314025878906 L 237.99143981933594 289.89935302734375" stroke-width="2.0" fill="rgb(255, 255, 255)" opacity="1.0" stroke="rgb(0, 0, 0)" stroke-opacity="1.0" stroke-linecap="round" stroke-linejoin="round"/>
    <path d="M 306.8532409667969 167.9654541015625 C 303.94427490234375 173.75689697265625 306.3705749511719 181.13194274902344 305.2587585449219 190.40382385253906 L 325.5882263183594 190.83843994140625 C 324.5782775878906 178.57789611816406 325.27777099609375 163.1853485107422 306.8532409667969 167.9654541015625" stroke-width="2.0" fill="rgb(255, 255, 255)" opacity="1.0" stroke="rgb(0, 0, 0)" stroke-opacity="1.0" stroke-linecap="round" stroke-linejoin="round"/>
    <path d="M 214.28964233398438 170.67434692382812 C 205.2349853515625 172.66151428222656 207.06605529785156 186.3957977294922 206.59906005859375 194.7066650390625 L 223.80535888671875 194.84678649902344 C 221.91299438476562 184.99742126464844 227.63604736328125 168.00035095214844 214.28964233398438 170.67434692382812" stroke-width="2.0" fill="rgb(255, 255, 255)" opacity="1.0" stroke="rgb(0, 0, 0)" stroke-opacity="1.0" stroke-linecap="round" stroke-linejoin="round"/>
    <path d="M 305.5635986328125 301.5147399902344 C 301.7279052734375 318.70794677734375 324.86956787109375 307.8492736816406 337.8724670410156 313.05035400390625 C 338.9271240234375 294.5511474609375 317.4460144042969 296.4953918457031 305.5635986328125 301.5147399902344" stroke-width="2.0" fill="rgb(255, 255, 255)" opacity="1.0" stroke="rgb(0, 0, 0)" stroke-opacity="1.0" stroke-linecap="round" stroke-linejoin="round"/>
    <path d="M 154.77853393554688 184.11911010742188 C 133.0894775390625 183.06146240234375 139.62039184570312 217.7483367919922 162.06214904785156 203.78298950195312 C 161.92161560058594 193.4637451171875 167.4468231201172 183.582275390625 154.77853393554688 184.11911010742188" stroke-width="2.0" fill="rgb(255, 255, 255)" opacity="1.0" stroke="rgb(0, 0, 0)" stroke-opacity="1.0" stroke-linecap="round" stroke-linejoin="round"/>
    <path d="M 129.03228759765625 228.8891143798828 C 111.83906555175781 225.70089721679688 118.30367279052734 244.4987335205078 123.33566284179688 254.36590576171875 C 133.54852294921875 261.87689208984375 136.7360382080078 240.7252960205078 129.03228759765625 228.8891143798828" stroke-width="2.0" fill="rgb(255, 255, 255)" opacity="1.0" stroke="rgb(0, 0, 0)" stroke-opacity="1.0" stroke-linecap="round" stroke-linejoin="round"/>
    <path d="M 42.638710021972656 278.8319396972656 C 35.085289001464844 279.8536682128906 33.03157043457031 298.6021423339844 18.488723754882812 295.28662109375 C 18.26832389831543 307.3420715332031 36.158180236816406 299.2033386230469 42.04853820800781 299.31103515625 C 45.91775131225586 294.5914306640625 44.80952072143555 288.5337829589844 42.638710021972656 278.8319396972656" stroke-width="2.0" fill="rgb(255, 255, 255)" opacity="1.0" stroke="rgb(0, 0, 0)" stroke-opacity="1.0" stroke-linecap="round" stroke-linejoin="round"/>
    <path d="M 97.51368713378906 280.643310546875 C 88.67952728271484 288.6268310546875 89.8844985961914 315.75762939453125 104.19606018066406 311.99676513671875 C 102.48888397216797 300.9115905761719 111.95481872558594 280.765869140625 97.51368713378906 280.643310546875" stroke-width="2.0" fill="rgb(255, 255, 255)" opacity="1.0" stroke="rgb(0, 0, 0)" stroke-opacity="1.0" stroke-linecap="round" stroke-linejoin="round"/>
    <path d="M 441.9346008300781 275.5555419921875 C 433.4488525390625 281.5866394042969 442.14794921875 295.8296813964844 439.32513427734375 309.644287109375 C 452.4348449707031 317.5887451171875 454.081298828125 301.27789306640625 452.16925048828125 297.5659484863281 C 449.86737060546875 288.7707824707031 453.5205993652344 276.83984375 441.9346008300781 275.5555419921875" stroke-width="2.0" fill="rgb(255, 255, 255)" opacity="1.0" stroke="rgb(0, 0, 0)" stroke-opacity="1.0" stroke-linecap="round" stroke-linejoin="round"/>
    <path d="M 266.2321472167969 267.1803894042969 C 257.031494140625 282.3756408691406 255.15164184570312 297.1360168457031 264.3411865234375 311.32177734375 L 268.0803527832031 311.7900085449219 C 267.288818359375 297.37359619140625 270.98138427734375 280.55059814453125 266.2321472167969 267.1803894042969" stroke-width="2.0" fill="rgb(255, 255, 255)" opacity="1.0" stroke="rgb(0, 0, 0)" stroke-opacity="1.0" stroke-linecap="round" stroke-linejoin="round"/>
    <path d="M 43.5589599609375 302.3594055175781 C 32.835968017578125 302.7468566894531 3.437007427215576 296.80194091796875 12.241518020629883 317.50982666015625 C 23.623321533203125 318.0701599121094 33.97890853881836 315.2263488769531 44.0556526184082 312.79449462890625 L 43.5589599609375 302.3594055175781" stroke-width="2.0" fill="rgb(255, 255, 255)" opacity="1.0" stroke="rgb(0, 0, 0)" stroke-opacity="1.0" stroke-linecap="round" stroke-linejoin="round"/>
    <path d="M 512.6553344726562 233.41824340820312 C 500.40521240234375 234.79489135742188 487.04400634765625 240.54026794433594 479.7145690917969 248.48715209960938 C 490.6882629394531 245.88636779785156 500.39593505859375 249.62628173828125 512.4042358398438 251.95140075683594 L 512.6553344726562 233.41824340820312" stroke-width="2.0" fill="rgb(255, 255, 255)" opacity="1.0" stroke="rgb(0, 0, 0)" stroke-opacity="1.0" stroke-linecap="round" stroke-linejoin="round"/>
    <path d="M 202.999267578125 306.8648376464844 L 205.27658081054688 315.0504150390625 L 248.7920684814453 314.75421142578125 L 248.8953094482422 308.1124267578125 C 234.00830078125 308.3194885253906 219.90890502929688 305.5848083496094 202.999267578125 306.8648376464844" stroke-width="2.0" fill="rgb(255, 255, 255)" opacity="1.0" stroke="rgb(0, 0, 0)" stroke-opacity="1.0" stroke-linecap="round" stroke-linejoin="round"/>
    <path d="M 345.8043518066406 219.2213134765625 C 343.8735656738281 229.64930725097656 344.0807189941406 251.1375732421875 360.5022888183594 246.36668395996094 C 357.71453857421875 236.4142608642578 363.5147705078125 219.1559600830078 345.8043518066406 219.2213134765625" stroke-width="2.0" fill="rgb(255, 255, 255)" opacity="1.0" stroke="rgb(0, 0, 0)" stroke-opacity="1.0" stroke-linecap="round" stroke-linejoin="round"/>
    <path d="M 340.4407043457031 168.46788024902344 C 341.3009338378906 181.7451629638672 332.2327575683594 196.6736602783203 356.3260803222656 191.208740234375 C 355.9257507324219 182.8429718017578 357.85260009765625 165.14599609375 340.4407043457031 168.46788024902344" stroke-width="2.0" fill="rgb(255, 255, 255)" opacity="1.0" stroke="rgb(0, 0, 0)" stroke-opacity="1.0" stroke-linecap="round" stroke-linejoin="round"/>
    <path d="M 468.8351745605469 297.3025207519531 L 470.5884704589844 310.3444519042969 C 486.491943359375 308.97418212890625 498.7509765625 308.39111328125 510.6514587402344 305.0765075683594 L 511.2861633300781 298.9874572753906 L 468.8351745605469 297.3025207519531" stroke-width="2.0" fill="rgb(255, 255, 255)" opacity="1.0" stroke="rgb(0, 0, 0)" stroke-opacity="1.0" stroke-linecap="round" stroke-linejoin="round"/>
    <path d="M 180.77499389648438 276.11407470703125 C 170.03688049316406 283.8795166015625 175.448974609375 296.0186462402344 172.13528442382812 306.9932861328125 C 177.20199584960938 306.17974853515625 180.4764404296875 302.1379699707031 186.1410675048828 305.7031555175781 C 183.32626342773438 295.7311096191406 191.50381469726562 282.18988037109375 180.77499389648438 276.11407470703125" stroke-width="2.0" fill="rgb(255, 255, 255)" opacity="1.0" stroke="rgb(0, 0, 0)" stroke-opacity="1.0" stroke-linecap="round" stroke-linejoin="round"/>
    <path d="M 132.9825897216797 180.59011840820312 C 113.97914123535156 183.1787567138672 125.88819122314453 198.29859924316406 125.87989807128906 204.2838134765625 C 134.33529663085938 211.1946563720703 138.56365966796875 188.93020629882812 132.9825897216797 180.59011840820312" stroke-width="2.0" fill="rgb(255, 255, 255)" opacity="1.0" stroke="rgb(0, 0, 0)" stroke-opacity="1.0" stroke-linecap="round" stroke-linejoin="round"/>
    <path d="M 404.10186767578125 168.4624786376953 C 396.4649658203125 179.35118103027344 411.0334167480469 186.295166015625 411.6567687988281 193.94744873046875 C 424.5281066894531 203.57757568359375 420.1373291015625 168.03453063964844 404.10186767578125 168.4624786376953" stroke-width="2.0" fill="rgb(255, 255, 255)" opacity="1.0" stroke="rgb(0, 0, 0)" stroke-opacity="1.0" stroke-linecap="round" stroke-linejoin="round"/>
    <path d="M 273.2908935546875 293.97930908203125 C 274.271240234375 302.76861572265625 276.18646240234375 316.7431640625 280.5791015625 301.4315185546875 C 283.5700988769531 300.7971496582031 282.1758117675781 306.6246643066406 281.4124755859375 312.85955810546875 C 292.2510070800781 312.2399597167969 297.87225341796875 301.81732177734375 292.4523010253906 294.14599609375 L 273.2908935546875 293.97930908203125" stroke-width="2.0" fill="rgb(255, 255, 255)" opacity="1.0" stroke="rgb(0, 0, 0)" stroke-opacity="1.0" stroke-linecap="round" stroke-linejoin="round"/>
    <path d="M 376.81353759765625 163.76341247558594 C 367.4090576171875 173.0445098876953 378.532958984375 172.42767333984375 383.302490234375 177.95838928222656 C 384.0281982421875 183.63339233398438 379.5097961425781 194.8921661376953 383.1973571777344 185.0712127685547 C 393.19696044921875 181.7882080078125 397.3367919921875 163.58790588378906 376.81353759765625 163.76341247558594" stroke-width="2.0" fill="rgb(255, 255, 255)" opacity="1.0" stroke="rgb(0, 0, 0)" stroke-opacity="1.0" stroke-linecap="round" stroke-linejoin="round"/>
    <path d="M 188.135498046875 223.67800903320312 C 170.82553100585938 223.25112915039062 177.6728057861328 241.14907836914062 174.8834991455078 250.9069061279297 C 194.51760864257812 254.8080291748047 186.35919189453125 236.87619018554688 188.135498046875 223.67800903320312" stroke-width="2.0" fill="rgb(255, 255, 255)" opacity="1.0" stroke="rgb(0, 0, 0)" stroke-opacity="1.0" stroke-linecap="round" stroke-linejoin="round"/>
    <path d="M 191.4562225341797 176.0802459716797 C 175.27679443359375 174.32984924316406 177.4248809814453 188.26663208007812 177.56478881835938 198.98452758789062 C 197.90145874023438 200.72840881347656 190.1410675048828 191.3849639892578 191.4562225341797 176.0802459716797" stroke-width="2.0" fill="rgb(255, 255, 255)" opacity="1.0" stroke="rgb(0, 0, 0)" stroke-opacity="1.0" stroke-linecap="round" stroke-linejoin="round"/>
    <path d="M 113.12098693847656 188.5685272216797 C 97.13594818115234 188.36224365234375 94.8724136352539 230.02781677246094 110.36371612548828 208.99600219726562 L 113.12098693847656 188.5685272216797" stroke-width="2.0" fill="rgb(255, 255, 255)" opacity="1.0" stroke="rgb(0, 0, 0)" stroke-opacity="1.0" stroke-linecap="round" stroke-linejoin="round"/>
    <path d="M 435.0997314453125 223.6270751953125 C 431.0187683105469 231.2158203125 431.0829162597656 260.7630920410156 447.3173522949219 250.79623413085938 C 443.8939514160156 240.55612182617188 448.6920166015625 227.16078186035156 435.0997314453125 223.6270751953125" stroke-width="2.0" fill="rgb(255, 255, 255)" opacity="1.0" stroke="rgb(0, 0, 0)" stroke-opacity="1.0" stroke-linecap="round" stroke-linejoin="round"/>
    <path d="M 106.3441162109375 231.48287963867188 C 91.97161102294922 234.9601287841797 97.91070556640625 249.8302459716797 94.6480712890625 259.98834228515625 C 112.69535827636719 264.8087463378906 110.37383270263672 241.0491943359375 106.3441162109375 231.48287963867188" stroke-width="2.0" fill="rgb(255, 255, 255)" opacity="1.0" stroke="rgb(0, 0, 0)" stroke-opacity="1.0" stroke-linecap="round" stroke-linejoin="round"/>
    <path d="M 221.84732055664062 288.65386962890625 C 207.13282775878906 285.06988525390625 201.8011016845703 293.0016784667969 203.61639404296875 306.8533020019531 L 221.7032470703125 305.7757263183594 L 221.84732055664062 288.65386962890625" stroke-width="2.0" fill="rgb(255, 255, 255)" opacity="1.0" stroke="rgb(0, 0, 0)" stroke-opacity="1.0" stroke-linecap="round" stroke-linejoin="round"/>
    <path d="M 154.57376098632812 278.7887878417969 C 143.4125213623047 287.0837097167969 136.4431915283203 315.65069580078125 154.32412719726562 312.0653076171875 L 154.57376098632812 278.7887878417969" stroke-width="2.0" fill="rgb(255, 255, 255)" opacity="1.0" stroke="rgb(0, 0, 0)" stroke-opacity="1.0" stroke-linecap="round" stroke-linejoin="round"/>
    <path d="M 7.0728583335876465 320.6869201660156 C 28.78303337097168 331.7151794433594 52.87834548950195 345.5772705078125 71.99937438964844 347.1798400878906 C 51.27776336669922 339.4694519042969 31.45488929748535 327.7374572753906 7.0728583335876465 320.6869201660156" stroke-width="2.0" fill="rgb(255, 255, 255)" opacity="1.0" stroke="rgb(0, 0, 0)" stroke-opacity="1.0" stroke-linecap="round" stroke-linejoin="round"/>
    <path d="M 511.60992431640625 225.43109130859375 C 494.55419921875 236.4552764892578 476.1370849609375 224.84573364257812 461.0260009765625 232.1469268798828 C 471.8796081542969 232.40066528320312 478.97674560546875 244.64588928222656 489.12884521484375 233.62928771972656 C 495.9249267578125 230.92738342285156 510.0105895996094 236.06642150878906 511.60992431640625 225.43109130859375" stroke-width="2.0" fill="rgb(255, 255, 255)" opacity="1.0" stroke="rgb(0, 0, 0)" stroke-opacity="1.0" stroke-linecap="round" stroke-linejoin="round"/>
    <path d="M 85.55744171142578 280.46942138671875 C 71.31427764892578 286.2459716796875 78.95036315917969 301.5638122558594 77.03361511230469 311.9299011230469 C 89.91197204589844 316.79132080078125 87.20101165771484 292.9264831542969 85.55744171142578 280.46942138671875" stroke-width="2.0" fill="rgb(255, 255, 255)" opacity="1.0" stroke="rgb(0, 0, 0)" stroke-opacity="1.0" stroke-linecap="round" stroke-linejoin="round"/>
    <path d="M 435.884521484375 318.1398010253906 L 510.7943420410156 323.1322937011719 L 511.0128479003906 316.703125 L 435.884521484375 318.1398010253906" stroke-width="2.0" fill="rgb(255, 255, 255)" opacity="1.0" stroke="rgb(0, 0, 0)" stroke-opacity="1.0" stroke-linecap="round" stroke-linejoin="round"/>
    <path d="M 383.6570129394531 273.89788818359375 C 378.19097900390625 286.7110595703125 380.67364501953125 303.9500732421875 395.97900390625 297.93133544921875 C 394.5269775390625 290.1891174316406 395.1614990234375 278.0837707519531 383.6570129394531 273.89788818359375" stroke-width="2.0" fill="rgb(255, 255, 255)" opacity="1.0" stroke="rgb(0, 0, 0)" stroke-opacity="1.0" stroke-linecap="round" stroke-linejoin="round"/>
    <path d="M 403.01776123046875 213.7056884765625 L 405.11236572265625 246.66624450683594 C 415.2211608886719 250.3799591064453 401.7371520996094 223.79644775390625 413.96142578125 218.713134765625 L 403.01776123046875 213.7056884765625" stroke-width="2.0" fill="rgb(255, 255, 255)" opacity="1.0" stroke="rgb(0, 0, 0)" stroke-opacity="1.0" stroke-linecap="round" stroke-linejoin="round"/>
    <path d="M 226.80490112304688 202.65025329589844 C 225.16883850097656 225.09226989746094 229.159423828125 240.9019012451172 221.8439178466797 257.1622314453125 L 231.89971923828125 256.7286071777344 C 227.9008026123047 240.6554412841797 234.07313537597656 219.29849243164062 226.80490112304688 202.65025329589844" stroke-width="2.0" fill="rgb(255, 255, 255)" opacity="1.0" stroke="rgb(0, 0, 0)" stroke-opacity="1.0" stroke-linecap="round" stroke-linejoin="round"/>
    <path d="M 274.41119384765625 280.35003662109375 C 267.74658203125 295.2877502441406 280.9908447265625 293.5885314941406 291.9309387207031 293.4241943359375 C 290.564697265625 284.3246154785156 285.7050476074219 271.7142333984375 274.41119384765625 280.35003662109375" stroke-width="2.0" fill="rgb(255, 255, 255)" opacity="1.0" stroke="rgb(0, 0, 0)" stroke-opacity="1.0" stroke-linecap="round" stroke-linejoin="round"/>
    <path d="M 279.947265625 219.4616241455078 C 279.1369934082031 228.59243774414062 274.1854248046875 248.2259979248047 287.405517578125 245.34718322753906 C 289.5107421875 235.1446533203125 289.17388916015625 221.91278076171875 279.947265625 219.4616241455078" stroke-width="2.0" fill="rgb(255, 255, 255)" opacity="1.0" stroke="rgb(0, 0, 0)" stroke-opacity="1.0" stroke-linecap="round" stroke-linejoin="round"/>
    <path d="M 299.6434631347656 207.71917724609375 L 300.65093994140625 254.50233459472656 L 308.72991943359375 255.25491333007812 C 301.67413330078125 237.9306640625 305.2442626953125 223.56211853027344 303.2923889160156 209.0312042236328 L 299.6434631347656 207.71917724609375" stroke-width="2.0" fill="rgb(255, 255, 255)" opacity="1.0" stroke="rgb(0, 0, 0)" stroke-opacity="1.0" stroke-linecap="round" stroke-linejoin="round"/>
    <path d="M 459.2010192871094 276.2713928222656 C 454.1499938964844 286.854736328125 452.8169250488281 309.40130615234375 471.01287841796875 310.7555847167969 C 464.95770263671875 297.6399841308594 469.80474853515625 280.0630187988281 459.2010192871094 276.2713928222656" stroke-width="2.0" fill="rgb(255, 255, 255)" opacity="1.0" stroke="rgb(0, 0, 0)" stroke-opacity="1.0" stroke-linecap="round" stroke-linejoin="round"/>
    <path d="M 269.0799865722656 248.65028381347656 C 271.54736328125 264.42401123046875 289.7649841308594 252.89498901367188 298.1513366699219 255.3037567138672 C 300.5902099609375 241.6459197998047 279.2056579589844 249.8143768310547 269.0799865722656 248.65028381347656" stroke-width="2.0" fill="rgb(255, 255, 255)" opacity="1.0" stroke="rgb(0, 0, 0)" stroke-opacity="1.0" stroke-linecap="round" stroke-linejoin="round"/>
    <path d="M 371.2442932128906 205.6730499267578 L 372.7957458496094 245.0084228515625 C 372.8899230957031 248.71202087402344 374.8606262207031 247.6007843017578 379.3750915527344 248.02992248535156 C 380.2793273925781 234.37188720703125 370.7170104980469 222.21595764160156 375.5328063964844 207.33709716796875 L 371.2442932128906 205.6730499267578" stroke-width="2.0" fill="rgb(255, 255, 255)" opacity="1.0" stroke="rgb(0, 0, 0)" stroke-opacity="1.0" stroke-linecap="round" stroke-linejoin="round"/>
    <path d="M 11.200080871582031 313.81781005859375 C -4.458263397216797 307.2693786621094 -1.138502836227417 321.4061584472656 -0.4888331890106201 332.0298156738281 C 5.323962211608887 331.8458251953125 21.38081169128418 331.238525390625 10.780997276306152 323.3440246582031 L 11.200080871582031 313.81781005859375" stroke-width="2.0" fill="rgb(255, 255, 255)" opacity="1.0" stroke="rgb(0, 0, 0)" stroke-opacity="1.0" stroke-linecap="round" stroke-linejoin="round"/>
    <path d="M 234.3713836669922 280.14324951171875 C 233.89183044433594 293.2399597167969 267.7073059082031 291.3321533203125 256.91802978515625 277.431884765625 C 249.41537475585938 270.5319519042969 239.80014038085938 271.3443298339844 234.3713836669922 280.14324951171875" stroke-width="2.0" fill="rgb(255, 255, 255)" opacity="1.0" stroke="rgb(0, 0, 0)" stroke-opacity="1.0" stroke-linecap="round" stroke-linejoin="round"/>
    <path d="M 37.87621307373047 280.1268005371094 C 35.89213180541992 286.9283752441406 28.967185974121094 306.19140625 43.015411376953125 298.7103576660156 C 46.942256927490234 294.5439758300781 47.173187255859375 281.6021423339844 37.87621307373047 280.1268005371094" stroke-width="2.0" fill="rgb(255, 255, 255)" opacity="1.0" stroke="rgb(0, 0, 0)" stroke-opacity="1.0" stroke-linecap="round" stroke-linejoin="round"/>
    <path d="M 192.9968719482422 205.99212646484375 C 190.6888427734375 225.30116271972656 189.8662109375 241.04373168945312 192.6405029296875 260.7943115234375 C 199.08450317382812 246.6000213623047 196.42991638183594 222.9962158203125 192.9968719482422 205.99212646484375" stroke-width="2.0" fill="rgb(255, 255, 255)" opacity="1.0" stroke="rgb(0, 0, 0)" stroke-opacity="1.0" stroke-linecap="round" stroke-linejoin="round"/>
    <path d="M 295.1978759765625 157.2806396484375 L 288.3983154296875 196.2781524658203 L 310.9758605957031 196.3478546142578 C 302.8609924316406 181.18003845214844 302.93499755859375 163.69607543945312 295.1978759765625 157.2806396484375" stroke-width="2.0" fill="rgb(255, 255, 255)" opacity="1.0" stroke="rgb(0, 0, 0)" stroke-opacity="1.0" stroke-linecap="round" stroke-linejoin="round"/>
    <path d="M 406.7014465332031 265.3143005371094 C 403.3370056152344 274.66424560546875 407.9603576660156 287.06768798828125 405.57403564453125 300.37994384765625 C 422.16412353515625 302.1336975097656 409.1394348144531 279.8868713378906 411.6504211425781 272.1116027832031 C 411.4240417480469 274.4141845703125 410.4006652832031 270.56610107421875 406.7014465332031 265.3143005371094" stroke-width="2.0" fill="rgb(255, 255, 255)" opacity="1.0" stroke="rgb(0, 0, 0)" stroke-opacity="1.0" stroke-linecap="round" stroke-linejoin="round"/>
    <path d="M 342.1164855957031 164.51329040527344 C 340.74151611328125 169.8441619873047 350.56048583984375 165.52410888671875 353.64031982421875 172.58816528320312 C 362.8030090332031 177.2098846435547 352.9278564453125 191.64073181152344 355.6091613769531 185.3292999267578 C 360.5130615234375 177.48939514160156 366.0732116699219 153.9966278076172 342.1164855957031 164.51329040527344" stroke-width="2.0" fill="rgb(255, 255, 255)" opacity="1.0" stroke="rgb(0, 0, 0)" stroke-opacity="1.0" stroke-linecap="round" stroke-linejoin="round"/>
    <path d="M 127.185302734375 281.60009765625 C 121.14990234375 289.0372619628906 113.5970230102539 317.1058349609375 126.8516616821289 311.509033203125 L 127.185302734375 281.60009765625" stroke-width="2.0" fill="rgb(255, 255, 255)" opacity="1.0" stroke="rgb(0, 0, 0)" stroke-opacity="1.0" stroke-linecap="round" stroke-linejoin="round"/>
    <path d="M 378.9195251464844 220.53375244140625 C 381.10333251953125 231.21505737304688 373.59954833984375 251.2193145751953 389.915771484375 247.9298553466797 C 387.8815612792969 238.7093048095703 390.8245849609375 224.71107482910156 378.9195251464844 220.53375244140625" stroke-width="2.0" fill="rgb(255, 255, 255)" opacity="1.0" stroke="rgb(0, 0, 0)" stroke-opacity="1.0" stroke-linecap="round" stroke-linejoin="round"/>
    <path d="M 266.1070861816406 337.65972900390625 C 257.6621398925781 338.39923095703125 240.5039825439453 335.1392517089844 240.37132263183594 347.1902160644531 C 249.30702209472656 345.9070739746094 262.79144287109375 352.51031494140625 266.1070861816406 337.65972900390625" stroke-width="2.0" fill="rgb(255, 255, 255)" opacity="1.0" stroke="rgb(0, 0, 0)" stroke-opacity="1.0" stroke-linecap="round" stroke-linejoin="round"/>
    <path d="M 91.76995086669922 236.55169677734375 C 72.7855453491211 234.6963348388672 72.21971130371094 271.2859802246094 88.88060760498047 261.0604553222656 L 91.76995086669922 236.55169677734375" stroke-width="2.0" fill="rgb(255, 255, 255)" opacity="1.0" stroke="rgb(0, 0, 0)" stroke-opacity="1.0" stroke-linecap="round" stroke-linejoin="round"/>
    <path d="M 373.0457458496094 171.02264404296875 C 374.3793029785156 179.9512939453125 367.4002380371094 196.41159057617188 383.745361328125 193.945068359375 C 382.8385009765625 185.0423583984375 386.5149230957031 173.2047576904297 373.0457458496094 171.02264404296875" stroke-width="2.0" fill="rgb(255, 255, 255)" opacity="1.0" stroke="rgb(0, 0, 0)" stroke-opacity="1.0" stroke-linecap="round" stroke-linejoin="round"/>
    <path d="M 435.1781921386719 269.9240417480469 C 434.91217041015625 268.87933349609375 432.6072998046875 269.13189697265625 427.46356201171875 269.1464538574219 C 435.8398132324219 283.8438720703125 431.9742431640625 296.74810791015625 434.984619140625 312.7259521484375 C 442.6025695800781 301.50372314453125 430.77923583984375 283.742919921875 435.1781921386719 269.9240417480469" stroke-width="2.0" fill="rgb(255, 255, 255)" opacity="1.0" stroke="rgb(0, 0, 0)" stroke-opacity="1.0" stroke-linecap="round" stroke-linejoin="round"/>
    <path d="M 107.50393676757812 188.165283203125 C 98.73600769042969 192.61422729492188 98.70488739013672 208.07907104492188 112.48526000976562 204.8704071044922 C 114.6994857788086 203.34774780273438 116.62657928466797 189.64010620117188 107.50393676757812 188.165283203125" stroke-width="2.0" fill="rgb(255, 255, 255)" opacity="1.0" stroke="rgb(0, 0, 0)" stroke-opacity="1.0" stroke-linecap="round" stroke-linejoin="round"/>
    <path d="M 419.70849609375 170.0557861328125 C 417.0415344238281 181.8678436279297 414.0780944824219 198.715087890625 431.8785705566406 199.42828369140625 C 427.5910339355469 190.2503204345703 426.71380615234375 177.70843505859375 419.70849609375 170.0557861328125" stroke-width="2.0" fill="rgb(255, 255, 255)" opacity="1.0" stroke="rgb(0, 0, 0)" stroke-opacity="1.0" stroke-linecap="round" stroke-linejoin="round"/>
    <path d="M 500.60113525390625 -0.035270508378744125 C 500.5776062011719 10.102293014526367 494.76422119140625 31.045625686645508 511.21893310546875 33.53936004638672 L 513.0591430664062 0.5287476778030396 L 500.60113525390625 -0.035270508378744125" stroke-width="2.0" fill="rgb(255, 255, 255)" opacity="1.0" stroke="rgb(0, 0, 0)" stroke-opacity="1.0" stroke-linecap="round" stroke-linejoin="round"/>
    <path d="M 10.887651443481445 279.411376953125 C 7.037891387939453 286.6716613769531 2.7102675437927246 302.41754150390625 2.2043073177337646 314.11639404296875 C 7.571926593780518 311.96832275390625 9.58385944366455 313.8833923339844 10.43552017211914 311.69525146484375 L 10.887651443481445 279.411376953125" stroke-width="2.0" fill="rgb(255, 255, 255)" opacity="1.0" stroke="rgb(0, 0, 0)" stroke-opacity="1.0" stroke-linecap="round" stroke-linejoin="round"/>
    <path d="M 296.0018615722656 107.52996063232422 L 294.9589538574219 141.67019653320312 L 301.71783447265625 141.93289184570312 C 298.5958251953125 130.25643920898438 303.20770263671875 116.24715423583984 296.0018615722656 107.52996063232422" stroke-width="2.0" fill="rgb(255, 255, 255)" opacity="1.0" stroke="rgb(0, 0, 0)" stroke-opacity="1.0" stroke-linecap="round" stroke-linejoin="round"/>
    <path d="M 451.6841735839844 267.2325134277344 C 449.2659912109375 282.0535583496094 458.0941162109375 293.9383544921875 451.602294921875 308.5380859375 L 456.1134338378906 309.8562927246094 C 460.07611083984375 297.22979736328125 457.7335510253906 280.53118896484375 451.6841735839844 267.2325134277344" stroke-width="2.0" fill="rgb(255, 255, 255)" opacity="1.0" stroke="rgb(0, 0, 0)" stroke-opacity="1.0" stroke-linecap="round" stroke-linejoin="round"/>
    <path d="M 19.2023983001709 312.8861389160156 C 30.692873001098633 311.6881103515625 48.56511688232422 318.7269592285156 45.3464469909668 305.3820495605469 C 35.43534469604492 305.20452880859375 20.244428634643555 303.1124267578125 19.2023983001709 312.8861389160156" stroke-width="2.0" fill="rgb(255, 255, 255)" opacity="1.0" stroke="rgb(0, 0, 0)" stroke-opacity="1.0" stroke-linecap="round" stroke-linejoin="round"/>
    <path d="M 320.11761474609375 322.3565979003906 C 320.38702392578125 328.96307373046875 315.6542663574219 351.6731872558594 328.0931396484375 343.42767333984375 C 324.02294921875 336.03802490234375 332.59613037109375 319.9007873535156 320.11761474609375 322.3565979003906" stroke-width="2.0" fill="rgb(255, 255, 255)" opacity="1.0" stroke="rgb(0, 0, 0)" stroke-opacity="1.0" stroke-linecap="round" stroke-linejoin="round"/>
    <path d="M 414.7057800292969 251.99957275390625 C 419.86651611328125 261.39166259765625 435.843994140625 256.7703552246094 447.6246032714844 257.49017333984375 C 449.2356262207031 251.27867126464844 440.1173400878906 256.37408447265625 435.3565368652344 251.98863220214844 L 414.7057800292969 251.99957275390625" stroke-width="2.0" fill="rgb(255, 255, 255)" opacity="1.0" stroke="rgb(0, 0, 0)" stroke-opacity="1.0" stroke-linecap="round" stroke-linejoin="round"/>
    <path d="M 503.5995178222656 70.44103240966797 C 504.1214294433594 79.4792709350586 499.02911376953125 97.2257308959961 511.5981140136719 96.03890991210938 C 510.3196105957031 87.93640899658203 518.3365478515625 67.4982681274414 503.5995178222656 70.44103240966797" stroke-width="2.0" fill="rgb(255, 255, 255)" opacity="1.0" stroke="rgb(0, 0, 0)" stroke-opacity="1.0" stroke-linecap="round" stroke-linejoin="round"/>
    <path d="M 87.3935775756836 12.916954040527344 C 80.7377700805664 21.49020767211914 86.49343872070312 36.451393127441406 97.07855987548828 37.20710372924805 C 95.16878509521484 29.11674690246582 101.5713119506836 14.529407501220703 87.3935775756836 12.916954040527344" stroke-width="2.0" fill="rgb(255, 255, 255)" opacity="1.0" stroke="rgb(0, 0, 0)" stroke-opacity="1.0" stroke-linecap="round" stroke-linejoin="round"/>
    <path d="M 310.0497131347656 249.23846435546875 C 306.6234130859375 260.89996337890625 325.2566833496094 252.43409729003906 336.7068176269531 256.0311584472656 C 334.3708190917969 241.67926025390625 315.9100646972656 247.705078125 310.0497131347656 249.23846435546875" stroke-width="2.0" fill="rgb(255, 255, 255)" opacity="1.0" stroke="rgb(0, 0, 0)" stroke-opacity="1.0" stroke-linecap="round" stroke-linejoin="round"/>
    <path d="M 232.6326446533203 248.26222229003906 C 230.61260986328125 261.7457580566406 265.3992919921875 259.6783752441406 258.8970947265625 246.5666046142578 L 232.6326446533203 248.26222229003906" stroke-width="2.0" fill="rgb(255, 255, 255)" opacity="1.0" stroke="rgb(0, 0, 0)" stroke-opacity="1.0" stroke-linecap="round" stroke-linejoin="round"/>
    <path d="M 425.5669860839844 213.05076599121094 C 424.4914245605469 224.7938690185547 428.93414306640625 236.23963928222656 428.1037902832031 248.23915100097656 L 432.83917236328125 247.95530700683594 C 429.6916809082031 237.706298828125 430.6097717285156 224.05859375 425.5669860839844 213.05076599121094" stroke-width="2.0" fill="rgb(255, 255, 255)" opacity="1.0" stroke="rgb(0, 0, 0)" stroke-opacity="1.0" stroke-linecap="round" stroke-linejoin="round"/>
    <path d="M 299.7353210449219 205.43563842773438 L 299.8771057128906 244.6508331298828 L 302.7083740234375 244.16790771484375 L 303.57684326171875 205.62442016601562 L 299.7353210449219 205.43563842773438" stroke-width="2.0" fill="rgb(255, 255, 255)" opacity="1.0" stroke="rgb(0, 0, 0)" stroke-opacity="1.0" stroke-linecap="round" stroke-linejoin="round"/>
    <path d="M 161.4190673828125 179.41099548339844 C 147.0694580078125 184.01002502441406 147.79788208007812 213.1300048828125 161.10302734375 199.52310180664062 L 161.4190673828125 179.41099548339844" stroke-width="2.0" fill="rgb(255, 255, 255)" opacity="1.0" stroke="rgb(0, 0, 0)" stroke-opacity="1.0" stroke-linecap="round" stroke-linejoin="round"/>
    <path d="M 96.82455444335938 195.02517700195312 C 81.85172271728516 191.41326904296875 81.98633575439453 223.10801696777344 95.36614227294922 214.261474609375 L 96.82455444335938 195.02517700195312" stroke-width="2.0" fill="rgb(255, 255, 255)" opacity="1.0" stroke="rgb(0, 0, 0)" stroke-opacity="1.0" stroke-linecap="round" stroke-linejoin="round"/>
    <path d="M 135.313720703125 218.3002471923828 C 130.2316131591797 229.30343627929688 130.85458374023438 243.9547576904297 131.2481231689453 256.8619079589844 C 148.5111083984375 251.08226013183594 142.0202178955078 231.5306854248047 135.313720703125 218.3002471923828" stroke-width="2.0" fill="rgb(255, 255, 255)" opacity="1.0" stroke="rgb(0, 0, 0)" stroke-opacity="1.0" stroke-linecap="round" stroke-linejoin="round"/>
    <path d="M 337.3891906738281 209.21002197265625 L 337.7401123046875 246.86032104492188 L 346.5729064941406 247.50209045410156 C 341.5522155761719 233.20872497558594 345.0197448730469 216.9138641357422 337.3891906738281 209.21002197265625" stroke-width="2.0" fill="rgb(255, 255, 255)" opacity="1.0" stroke="rgb(0, 0, 0)" stroke-opacity="1.0" stroke-linecap="round" stroke-linejoin="round"/>
    <path d="M 157.09658813476562 227.30624389648438 C 146.8575897216797 229.561767578125 146.6750030517578 258.04766845703125 156.05015563964844 252.34637451171875 L 157.09658813476562 227.30624389648438" stroke-width="2.0" fill="rgb(255, 255, 255)" opacity="1.0" stroke="rgb(0, 0, 0)" stroke-opacity="1.0" stroke-linecap="round" stroke-linejoin="round"/>
    <path d="M 300.31439208984375 155.5899200439453 C 296.1100158691406 163.56173706054688 297.6820068359375 177.87925720214844 296.0988464355469 189.99916076660156 L 302.58135986328125 189.99105834960938 L 300.31439208984375 155.5899200439453" stroke-width="2.0" fill="rgb(255, 255, 255)" opacity="1.0" stroke="rgb(0, 0, 0)" stroke-opacity="1.0" stroke-linecap="round" stroke-linejoin="round"/>
    <path d="M 82.84466552734375 199.2586212158203 C 69.34201049804688 198.9317169189453 68.77700805664062 230.3389434814453 78.89100646972656 222.78968811035156 L 82.84466552734375 199.2586212158203" stroke-width="2.0" fill="rgb(255, 255, 255)" opacity="1.0" stroke="rgb(0, 0, 0)" stroke-opacity="1.0" stroke-linecap="round" stroke-linejoin="round"/>
    <path d="M 447.240966796875 218.5360565185547 C 447.8033447265625 232.08616638183594 442.958740234375 250.66807556152344 457.0137939453125 253.62635803222656 L 447.240966796875 218.5360565185547" stroke-width="2.0" fill="rgb(255, 255, 255)" opacity="1.0" stroke="rgb(0, 0, 0)" stroke-opacity="1.0" stroke-linecap="round" stroke-linejoin="round"/>
    <path d="M 340.7869873046875 265.7390441894531 C 335.8737487792969 273.4068603515625 342.9396667480469 288.759521484375 337.64031982421875 296.3140869140625 C 345.0681457519531 290.5071105957031 340.3888854980469 277.52130126953125 340.7869873046875 265.7390441894531" stroke-width="2.0" fill="rgb(255, 255, 255)" opacity="1.0" stroke="rgb(0, 0, 0)" stroke-opacity="1.0" stroke-linecap="round" stroke-linejoin="round"/>
    <path d="M 368.18896484375 160.62916564941406 C 369.0721130371094 171.10853576660156 357.9236755371094 192.80726623535156 373.01812744140625 192.34384155273438 L 368.18896484375 160.62916564941406" stroke-width="2.0" fill="rgb(255, 255, 255)" opacity="1.0" stroke="rgb(0, 0, 0)" stroke-opacity="1.0" stroke-linecap="round" stroke-linejoin="round"/>
    <path d="M 36.439937591552734 289.5418395996094 C 25.211071014404297 295.1219482421875 10.030829429626465 291.46392822265625 14.622714042663574 302.4939270019531 C 27.5035343170166 306.4905090332031 38.34219741821289 303.8345642089844 36.439937591552734 289.5418395996094" stroke-width="2.0" fill="rgb(255, 255, 255)" opacity="1.0" stroke="rgb(0, 0, 0)" stroke-opacity="1.0" stroke-linecap="round" stroke-linejoin="round"/>
    <path d="M 199.98707580566406 133.21717834472656 C 199.82333374023438 144.65414428710938 233.3562774658203 144.4024200439453 226.1114959716797 128.7487335205078 L 199.98707580566406 133.21717834472656" stroke-width="2.0" fill="rgb(255, 255, 255)" opacity="1.0" stroke="rgb(0, 0, 0)" stroke-opacity="1.0" stroke-linecap="round" stroke-linejoin="round"/>
    <path d="M 0.6512736678123474 316.7057189941406 C -1.1162095069885254 320.83148193359375 -4.214179039001465 330.490478515625 5.685129165649414 327.60748291015625 C 10.772476196289062 321.5737609863281 13.688603401184082 312.94921875 0.6512736678123474 316.7057189941406" stroke-width="2.0" fill="rgb(255, 255, 255)" opacity="1.0" stroke="rgb(0, 0, 0)" stroke-opacity="1.0" stroke-linecap="round" stroke-linejoin="round"/>
    <path d="M 72.3054428100586 282.62579345703125 C 61.44012451171875 284.0332336425781 62.711936950683594 312.27886962890625 70.85971069335938 307.34967041015625 L 72.3054428100586 282.62579345703125" stroke-width="2.0" fill="rgb(255, 255, 255)" opacity="1.0" stroke="rgb(0, 0, 0)" stroke-opacity="1.0" stroke-linecap="round" stroke-linejoin="round"/>
    <path d="M 227.7790985107422 282.89324951171875 C 226.0039825439453 290.4241027832031 221.2078399658203 307.8812255859375 234.2583770751953 307.0188293457031 C 234.9205780029297 299.0953674316406 239.7158203125 287.7758483886719 227.7790985107422 282.89324951171875" stroke-width="2.0" fill="rgb(255, 255, 255)" opacity="1.0" stroke="rgb(0, 0, 0)" stroke-opacity="1.0" stroke-linecap="round" stroke-linejoin="round"/>
    <path d="M 134.2644805908203 186.58511352539062 C 124.91519165039062 191.18223571777344 120.5372085571289 211.43089294433594 130.65219116210938 205.20260620117188 L 134.2644805908203 186.58511352539062" stroke-width="2.0" fill="rgb(255, 255, 255)" opacity="1.0" stroke="rgb(0, 0, 0)" stroke-opacity="1.0" stroke-linecap="round" stroke-linejoin="round"/>
    <path d="M 278.8380432128906 232.17401123046875 C 279.6202697753906 238.589111328125 276.017333984375 248.68125915527344 287.218994140625 245.634765625 C 290.04296875 238.6212921142578 289.4875793457031 228.95989990234375 278.8380432128906 232.17401123046875" stroke-width="2.0" fill="rgb(255, 255, 255)" opacity="1.0" stroke="rgb(0, 0, 0)" stroke-opacity="1.0" stroke-linecap="round" stroke-linejoin="round"/>
    <path d="M 61.4069938659668 282.0274353027344 C 54.35866928100586 291.18505859375 53.149261474609375 318.9953918457031 61.240867614746094 310.07012939453125 L 61.4069938659668 282.0274353027344" stroke-width="2.0" fill="rgb(255, 255, 255)" opacity="1.0" stroke="rgb(0, 0, 0)" stroke-opacity="1.0" stroke-linecap="round" stroke-linejoin="round"/>
    <path d="M 81.25792694091797 236.02919006347656 C 61.5999755859375 242.50157165527344 64.03280639648438 276.51727294921875 73.81334686279297 262.1748046875 L 81.25792694091797 236.02919006347656" stroke-width="2.0" fill="rgb(255, 255, 255)" opacity="1.0" stroke="rgb(0, 0, 0)" stroke-opacity="1.0" stroke-linecap="round" stroke-linejoin="round"/>
    <path d="M 343.84747314453125 112.88513946533203 C 340.9399719238281 117.6203384399414 343.59625244140625 129.79371643066406 353.23358154296875 126.29410552978516 C 352.9978332519531 118.51074981689453 356.95623779296875 110.1390380859375 343.84747314453125 112.88513946533203" stroke-width="2.0" fill="rgb(255, 255, 255)" opacity="1.0" stroke="rgb(0, 0, 0)" stroke-opacity="1.0" stroke-linecap="round" stroke-linejoin="round"/>
    <path d="M 411.08074951171875 221.7244415283203 C 404.9192199707031 225.36181640625 409.6437072753906 243.23629760742188 413.1732177734375 250.54783630371094 C 414.5898742675781 240.11221313476562 414.12298583984375 231.73126220703125 411.08074951171875 221.7244415283203" stroke-width="2.0" fill="rgb(255, 255, 255)" opacity="1.0" stroke="rgb(0, 0, 0)" stroke-opacity="1.0" stroke-linecap="round" stroke-linejoin="round"/>
    <path d="M 275.9007568359375 109.26250457763672 C 266.1001281738281 127.82083892822266 291.7845764160156 130.64503479003906 282.9740905761719 110.72821807861328 L 275.9007568359375 109.26250457763672" stroke-width="2.0" fill="rgb(255, 255, 255)" opacity="1.0" stroke="rgb(0, 0, 0)" stroke-opacity="1.0" stroke-linecap="round" stroke-linejoin="round"/>
    <path d="M 272.37432861328125 165.57676696777344 C 273.9942321777344 168.4534912109375 284.8787841796875 163.81039428710938 291.8504943847656 168.8311004638672 C 291.88079833984375 159.19631958007812 276.4515075683594 157.44888305664062 272.37432861328125 165.57676696777344" stroke-width="2.0" fill="rgb(255, 255, 255)" opacity="1.0" stroke="rgb(0, 0, 0)" stroke-opacity="1.0" stroke-linecap="round" stroke-linejoin="round"/>
    <path d="M 81.17211151123047 199.4436798095703 C 72.44408416748047 202.3022918701172 72.1516342163086 221.67800903320312 79.94017028808594 219.4977264404297 L 81.17211151123047 199.4436798095703" stroke-width="2.0" fill="rgb(255, 255, 255)" opacity="1.0" stroke="rgb(0, 0, 0)" stroke-opacity="1.0" stroke-linecap="round" stroke-linejoin="round"/>
    <path d="M 71.21900177001953 206.7368621826172 C 61.19304275512695 208.76309204101562 64.05938720703125 231.21121215820312 69.56504821777344 224.3616485595703 L 71.21900177001953 206.7368621826172" stroke-width="2.0" fill="rgb(255, 255, 255)" opacity="1.0" stroke="rgb(0, 0, 0)" stroke-opacity="1.0" stroke-linecap="round" stroke-linejoin="round"/>
    <path d="M 402.216552734375 176.30943298339844 C 402.9207763671875 183.27793884277344 399.420654296875 199.2293243408203 408.5957946777344 197.33729553222656 C 406.5037841796875 189.4257049560547 408.936279296875 182.14366149902344 402.216552734375 176.30943298339844" stroke-width="2.0" fill="rgb(255, 255, 255)" opacity="1.0" stroke="rgb(0, 0, 0)" stroke-opacity="1.0" stroke-linecap="round" stroke-linejoin="round"/>
    <path d="M 211.0096893310547 116.4960708618164 C 205.3367919921875 123.76457214355469 211.12730407714844 131.85406494140625 216.93783569335938 128.02630615234375 C 218.58175659179688 123.46521759033203 221.2949981689453 114.09630584716797 211.0096893310547 116.4960708618164" stroke-width="2.0" fill="rgb(255, 255, 255)" opacity="1.0" stroke="rgb(0, 0, 0)" stroke-opacity="1.0" stroke-linecap="round" stroke-linejoin="round"/>
    <path d="M 64.89474487304688 244.19847106933594 C 50.39241027832031 251.64306640625 54.87510299682617 277.349365234375 68.50382232666016 262.2198181152344 L 64.89474487304688 244.19847106933594" stroke-width="2.0" fill="rgb(255, 255, 255)" opacity="1.0" stroke="rgb(0, 0, 0)" stroke-opacity="1.0" stroke-linecap="round" stroke-linejoin="round"/>
    <path d="M 245.72157287597656 300.83465576171875 C 240.79718017578125 308.7938537597656 261.955078125 309.5298767089844 258.9859619140625 300.7215881347656 L 245.72157287597656 300.83465576171875" stroke-width="2.0" fill="rgb(255, 255, 255)" opacity="1.0" stroke="rgb(0, 0, 0)" stroke-opacity="1.0" stroke-linecap="round" stroke-linejoin="round"/>
    <path d="M 324.6073913574219 104.57799530029297 C 321.3097229003906 112.0604476928711 320.8155822753906 125.96773529052734 327.9864501953125 128.0901336669922 C 325.95269775390625 119.67159271240234 328.8899230957031 110.25146484375 324.6073913574219 104.57799530029297" stroke-width="2.0" fill="rgb(255, 255, 255)" opacity="1.0" stroke="rgb(0, 0, 0)" stroke-opacity="1.0" stroke-linecap="round" stroke-linejoin="round"/>
    <path d="M 336.8069152832031 310.7784423828125 C 341.9670104980469 317.0850830078125 364.6538391113281 313.3616638183594 352.7818298339844 309.4222412109375 L 336.8069152832031 310.7784423828125" stroke-width="2.0" fill="rgb(255, 255, 255)" opacity="1.0" stroke="rgb(0, 0, 0)" stroke-opacity="1.0" stroke-linecap="round" stroke-linejoin="round"/>
    <path d="M 115.2059555053711 144.8004608154297 C 105.01475524902344 142.75119018554688 106.78398132324219 163.6378936767578 114.31600189208984 155.90284729003906 L 115.2059555053711 144.8004608154297" stroke-width="2.0" fill="rgb(255, 255, 255)" opacity="1.0" stroke="rgb(0, 0, 0)" stroke-opacity="1.0" stroke-linecap="round" stroke-linejoin="round"/>
    <path d="M 249.3168182373047 307.9981689453125 C 246.4730987548828 315.3355407714844 268.93402099609375 318.9846496582031 260.89788818359375 308.3386535644531 L 249.3168182373047 307.9981689453125" stroke-width="2.0" fill="rgb(255, 255, 255)" opacity="1.0" stroke="rgb(0, 0, 0)" stroke-opacity="1.0" stroke-linecap="round" stroke-linejoin="round"/>
    <path d="M 1.6413593292236328 288.9844665527344 C 0.6943742036819458 291.74188232421875 -4.201944351196289 302.4853515625 2.264563798904419 307.5443420410156 C 8.553939819335938 298.23785400390625 8.538289070129395 292.029541015625 1.6413593292236328 288.9844665527344" stroke-width="2.0" fill="rgb(255, 255, 255)" opacity="1.0" stroke="rgb(0, 0, 0)" stroke-opacity="1.0" stroke-linecap="round" stroke-linejoin="round"/>
    <path d="M 152.7093505859375 129.61370849609375 C 147.8875274658203 143.6553955078125 159.4327850341797 144.89744567871094 159.0181121826172 130.83216857910156 L 152.7093505859375 129.61370849609375" stroke-width="2.0" fill="rgb(255, 255, 255)" opacity="1.0" stroke="rgb(0, 0, 0)" stroke-opacity="1.0" stroke-linecap="round" stroke-linejoin="round"/>
    <path d="M 4.61414098739624 303.3477783203125 C -6.012488842010498 315.979248046875 12.697325706481934 316.16265869140625 11.152887344360352 300.3297424316406 L 4.61414098739624 303.3477783203125" stroke-width="2.0" fill="rgb(255, 255, 255)" opacity="1.0" stroke="rgb(0, 0, 0)" stroke-opacity="1.0" stroke-linecap="round" stroke-linejoin="round"/>
    <path d="M 57.32577133178711 247.73355102539062 C 45.89370346069336 251.58474731445312 47.62126922607422 275.2804260253906 58.0560302734375 264.8200988769531 L 57.32577133178711 247.73355102539062" stroke-width="2.0" fill="rgb(255, 255, 255)" opacity="1.0" stroke="rgb(0, 0, 0)" stroke-opacity="1.0" stroke-linecap="round" stroke-linejoin="round"/>
    <path d="M 172.7488250732422 306.4725036621094 C 167.52259826660156 314.661376953125 186.93710327148438 314.62908935546875 182.33934020996094 306.1333923339844 L 172.7488250732422 306.4725036621094" stroke-width="2.0" fill="rgb(255, 255, 255)" opacity="1.0" stroke="rgb(0, 0, 0)" stroke-opacity="1.0" stroke-linecap="round" stroke-linejoin="round"/>
    <path d="M 376.5561218261719 308.5942687988281 C 401.3414611816406 319.5860290527344 398.26080322265625 299.8065490722656 376.5561218261719 308.5942687988281" stroke-width="2.0" fill="rgb(255, 255, 255)" opacity="1.0" stroke="rgb(0, 0, 0)" stroke-opacity="1.0" stroke-linecap="round" stroke-linejoin="round"/>
    <path d="M 255.6999969482422 238.3466796875 C 251.77085876464844 254.6852569580078 271.5173645019531 239.6869659423828 255.6999969482422 238.3466796875" stroke-width="2.0" fill="rgb(255, 255, 255)" opacity="1.0" stroke="rgb(0, 0, 0)" stroke-opacity="1.0" stroke-linecap="round" stroke-linejoin="round"/>
    <path d="M 231.6044158935547 109.9898681640625 C 228.61007690429688 122.01273345947266 237.26075744628906 124.21114349365234 236.67916870117188 110.01203155517578 L 231.6044158935547 109.9898681640625" stroke-width="2.0" fill="rgb(255, 255, 255)" opacity="1.0" stroke="rgb(0, 0, 0)" stroke-opacity="1.0" stroke-linecap="round" stroke-linejoin="round"/>
    <path d="M 171.83839416503906 309.73907470703125 C 155.02915954589844 304.8359375 155.66664123535156 319.1932067871094 172.7115936279297 316.2540283203125 L 171.83839416503906 309.73907470703125" stroke-width="2.0" fill="rgb(255, 255, 255)" opacity="1.0" stroke="rgb(0, 0, 0)" stroke-opacity="1.0" stroke-linecap="round" stroke-linejoin="round"/>
    <path d="M 72.5394287109375 305.74786376953125 C 60.21436309814453 305.0362548828125 60.21926498413086 317.739990234375 72.65399932861328 315.03485107421875 L 72.5394287109375 305.74786376953125" stroke-width="2.0" fill="rgb(255, 255, 255)" opacity="1.0" stroke="rgb(0, 0, 0)" stroke-opacity="1.0" stroke-linecap="round" stroke-linejoin="round"/>
    <path d="M 135.4777069091797 185.88107299804688 C 128.03515625 191.70037841796875 125.99341583251953 197.5384521484375 136.45718383789062 196.60923767089844 L 135.4777069091797 185.88107299804688" stroke-width="2.0" fill="rgb(255, 255, 255)" opacity="1.0" stroke="rgb(0, 0, 0)" stroke-opacity="1.0" stroke-linecap="round" stroke-linejoin="round"/>
    <path d="M 392.45751953125 305.0009460449219 C 397.54937744140625 315.145751953125 410.26007080078125 309.6329345703125 418.2067565917969 308.7710876464844 C 412.5893249511719 300.7412414550781 402.02557373046875 302.7353515625 392.45751953125 305.0009460449219" stroke-width="2.0" fill="rgb(255, 255, 255)" opacity="1.0" stroke="rgb(0, 0, 0)" stroke-opacity="1.0" stroke-linecap="round" stroke-linejoin="round"/>
    <path d="M 385.3354187011719 307.4742431640625 C 388.076904296875 317.7290344238281 405.9691467285156 304.1109619140625 385.3354187011719 307.4742431640625" stroke-width="2.0" fill="rgb(255, 255, 255)" opacity="1.0" stroke="rgb(0, 0, 0)" stroke-opacity="1.0" stroke-linecap="round" stroke-linejoin="round"/>
    <path d="M 232.19248962402344 115.23302459716797 C 226.8057861328125 128.20635986328125 240.01580810546875 116.42039489746094 232.19248962402344 115.23302459716797" stroke-width="2.0" fill="rgb(255, 255, 255)" opacity="1.0" stroke="rgb(0, 0, 0)" stroke-opacity="1.0" stroke-linecap="round" stroke-linejoin="round"/>
    <path d="M 1.2539374828338623 329.41363525390625 C 0.6614862680435181 333.24468994140625 10.58056354522705 330.61834716796875 16.303586959838867 331.0335388183594 C 12.839994430541992 327.269775390625 5.311347961425781 332.0834655761719 1.2539374828338623 329.41363525390625" stroke-width="2.0" fill="rgb(255, 255, 255)" opacity="1.0" stroke="rgb(0, 0, 0)" stroke-opacity="1.0" stroke-linecap="round" stroke-linejoin="round"/>
    <path d="M 18.83624839782715 280.971435546875 C 8.641493797302246 277.9331359863281 15.339885711669922 289.9461669921875 12.283746719360352 297.888916015625 C 18.455198287963867 295.8735656738281 13.299107551574707 287.3034973144531 18.83624839782715 280.971435546875" stroke-width="2.0" fill="rgb(255, 255, 255)" opacity="1.0" stroke="rgb(0, 0, 0)" stroke-opacity="1.0" stroke-linecap="round" stroke-linejoin="round"/>
    <path d="M 12.246965408325195 312.99920654296875 C 8.673209190368652 316.2184753417969 9.909585952758789 323.94970703125 8.333216667175293 331.64617919921875 C 11.185147285461426 326.569091796875 11.533963203430176 318.6955261230469 12.246965408325195 312.99920654296875" stroke-width="2.0" fill="rgb(255, 255, 255)" opacity="1.0" stroke="rgb(0, 0, 0)" stroke-opacity="1.0" stroke-linecap="round" stroke-linejoin="round"/>
    <path d="M 84.05729675292969 162.82159423828125 C 79.493408203125 159.32550048828125 79.9139175415039 177.4918670654297 82.67430114746094 172.0234375 L 84.05729675292969 162.82159423828125" stroke-width="2.0" fill="rgb(255, 255, 255)" opacity="1.0" stroke="rgb(0, 0, 0)" stroke-opacity="1.0" stroke-linecap="round" stroke-linejoin="round"/>
    <path d="M 512.2240600585938 313.9535827636719 C 515.66455078125 298.75787353515625 492.53924560546875 309.1522521972656 512.2240600585938 313.9535827636719" stroke-width="2.0" fill="rgb(255, 255, 255)" opacity="1.0" stroke="rgb(0, 0, 0)" stroke-opacity="1.0" stroke-linecap="round" stroke-linejoin="round"/>
    <path d="M 414.6121520996094 148.59275817871094 C 410.7021484375 160.7239532470703 430.93707275390625 149.41122436523438 414.6121520996094 148.59275817871094" stroke-width="2.0" fill="rgb(255, 255, 255)" opacity="1.0" stroke="rgb(0, 0, 0)" stroke-opacity="1.0" stroke-linecap="round" stroke-linejoin="round"/>
    <path d="M 461.7250061035156 257.53692626953125 C 464.614501953125 271.40142822265625 479.10284423828125 251.76405334472656 461.7250061035156 257.53692626953125" stroke-width="2.0" fill="rgb(255, 255, 255)" opacity="1.0" stroke="rgb(0, 0, 0)" stroke-opacity="1.0" stroke-linecap="round" stroke-linejoin="round"/>
    <path d="M 385.2597351074219 113.08148193359375 C 377.00518798828125 126.76353454589844 399.7209777832031 121.73410034179688 385.2597351074219 113.08148193359375" stroke-width="2.0" fill="rgb(255, 255, 255)" opacity="1.0" stroke="rgb(0, 0, 0)" stroke-opacity="1.0" stroke-linecap="round" stroke-linejoin="round"/>
    <path d="M 147.70327758789062 129.30441284179688 C 136.82064819335938 136.3248748779297 148.37046813964844 142.67483520507812 147.70327758789062 129.30441284179688" stroke-width="2.0" fill="rgb(255, 255, 255)" opacity="1.0" stroke="rgb(0, 0, 0)" stroke-opacity="1.0" stroke-linecap="round" stroke-linejoin="round"/>
    <path d="M 199.01528930664062 115.21660614013672 C 198.27774047851562 126.3548812866211 210.76596069335938 119.64822387695312 199.01528930664062 115.21660614013672" stroke-width="2.0" fill="rgb(255, 255, 255)" opacity="1.0" stroke="rgb(0, 0, 0)" stroke-opacity="1.0" stroke-linecap="round" stroke-linejoin="round"/>
    <path d="M 267.089111328125 106.7208023071289 C 261.7614440917969 121.10234069824219 279.75079345703125 109.00560760498047 267.089111328125 106.7208023071289" stroke-width="2.0" fill="rgb(255, 255, 255)" opacity="1.0" stroke="rgb(0, 0, 0)" stroke-opacity="1.0" stroke-linecap="round" stroke-linejoin="round"/>
    <path d="M 356.055908203125 109.29756927490234 C 351.40167236328125 125.77017974853516 371.4919738769531 112.68976593017578 356.055908203125 109.29756927490234" stroke-width="2.0" fill="rgb(255, 255, 255)" opacity="1.0" stroke="rgb(0, 0, 0)" stroke-opacity="1.0" stroke-linecap="round" stroke-linejoin="round"/>
    <path d="M 333.5414123535156 107.73761749267578 C 332.1808776855469 123.66130065917969 347.81439208984375 107.04918670654297 333.5414123535156 107.73761749267578" stroke-width="2.0" fill="rgb(255, 255, 255)" opacity="1.0" stroke="rgb(0, 0, 0)" stroke-opacity="1.0" stroke-linecap="round" stroke-linejoin="round"/>
    <path d="M 242.7816619873047 141.78729248046875 C 243.76113891601562 150.91448974609375 258.5500793457031 138.65882873535156 242.7816619873047 141.78729248046875" stroke-width="2.0" fill="rgb(255, 255, 255)" opacity="1.0" stroke="rgb(0, 0, 0)" stroke-opacity="1.0" stroke-linecap="round" stroke-linejoin="round"/>
    <path d="M 312.8720397949219 139.80958557128906 C 314.3231506347656 149.26254272460938 328.37506103515625 137.98138427734375 312.8720397949219 139.80958557128906" stroke-width="2.0" fill="rgb(255, 255, 255)" opacity="1.0" stroke="rgb(0, 0, 0)" stroke-opacity="1.0" stroke-linecap="round" stroke-linejoin="round"/>
    <path d="M 221.93069458007812 110.58313751220703 C 218.02650451660156 123.93376922607422 233.83717346191406 114.98797607421875 221.93069458007812 110.58313751220703" stroke-width="2.0" fill="rgb(255, 255, 255)" opacity="1.0" stroke="rgb(0, 0, 0)" stroke-opacity="1.0" stroke-linecap="round" stroke-linejoin="round"/>
    <path d="M 438.2312927246094 206.15257263183594 C 448.27203369140625 213.39439392089844 451.282958984375 200.6755828857422 438.2312927246094 206.15257263183594" stroke-width="2.0" fill="rgb(255, 255, 255)" opacity="1.0" stroke="rgb(0, 0, 0)" stroke-opacity="1.0" stroke-linecap="round" stroke-linejoin="round"/>
    <path d="M 123.10013580322266 135.92724609375 C 117.02730560302734 141.71475219726562 125.84833526611328 148.0234375 123.10013580322266 135.92724609375" stroke-width="2.0" fill="rgb(255, 255, 255)" opacity="1.0" stroke="rgb(0, 0, 0)" stroke-opacity="1.0" stroke-linecap="round" stroke-linejoin="round"/>
    <path d="M 365.67401123046875 111.06256866455078 C 362.0005798339844 126.80485534667969 380.064208984375 113.43563079833984 365.67401123046875 111.06256866455078" stroke-width="2.0" fill="rgb(255, 255, 255)" opacity="1.0" stroke="rgb(0, 0, 0)" stroke-opacity="1.0" stroke-linecap="round" stroke-linejoin="round"/>
    <path d="M 401.8857727050781 117.56684875488281 C 386.4260559082031 116.85368347167969 398.55621337890625 131.03895568847656 401.8857727050781 117.56684875488281" stroke-width="2.0" fill="rgb(255, 255, 255)" opacity="1.0" stroke="rgb(0, 0, 0)" stroke-opacity="1.0" stroke-linecap="round" stroke-linejoin="round"/>
    <path d="M 179.25112915039062 150.5753631591797 C 180.9380340576172 158.48712158203125 192.56845092773438 145.21701049804688 179.25112915039062 150.5753631591797" stroke-width="2.0" fill="rgb(255, 255, 255)" opacity="1.0" stroke="rgb(0, 0, 0)" stroke-opacity="1.0" stroke-linecap="round" stroke-linejoin="round"/>
    <path d="M 375.76275634765625 112.04627990722656 C 369.8570861816406 126.67559814453125 386.79229736328125 117.2065658569336 375.76275634765625 112.04627990722656" stroke-width="2.0" fill="rgb(255, 255, 255)" opacity="1.0" stroke="rgb(0, 0, 0)" stroke-opacity="1.0" stroke-linecap="round" stroke-linejoin="round"/>
    <path d="M 66.75678253173828 177.17140197753906 C 61.11115264892578 183.16915893554688 68.5180435180664 189.9706573486328 66.75678253173828 177.17140197753906" stroke-width="2.0" fill="rgb(255, 255, 255)" opacity="1.0" stroke="rgb(0, 0, 0)" stroke-opacity="1.0" stroke-linecap="round" stroke-linejoin="round"/>
    <path d="M 448.2282409667969 254.7343292236328 C 447.226318359375 267.7039794921875 461.7270812988281 254.8389892578125 448.2282409667969 254.7343292236328" stroke-width="2.0" fill="rgb(255, 255, 255)" opacity="1.0" stroke="rgb(0, 0, 0)" stroke-opacity="1.0" stroke-linecap="round" stroke-linejoin="round"/>
    <path d="M 288.8333740234375 105.2822265625 C 285.3113708496094 119.2639389038086 299.4825134277344 107.47969818115234 288.8333740234375 105.2822265625" stroke-width="2.0" fill="rgb(255, 255, 255)" opacity="1.0" stroke="rgb(0, 0, 0)" stroke-opacity="1.0" stroke-linecap="round" stroke-linejoin="round"/>
    <path d="M 136.57339477539062 130.84104919433594 C 133.00558471679688 138.62991333007812 145.28317260742188 138.9316864013672 136.57339477539062 130.84104919433594" stroke-width="2.0" fill="rgb(255, 255, 255)" opacity="1.0" stroke="rgb(0, 0, 0)" stroke-opacity="1.0" stroke-linecap="round" stroke-linejoin="round"/>
    <path d="M 171.74810791015625 341.5212707519531 C 177.09103393554688 349.90826416015625 184.69503784179688 339.7716064453125 171.74810791015625 341.5212707519531" stroke-width="2.0" fill="rgb(255, 255, 255)" opacity="1.0" stroke="rgb(0, 0, 0)" stroke-opacity="1.0" stroke-linecap="round" stroke-linejoin="round"/>
    <path d="M 193.10362243652344 116.62649536132812 C 188.42823791503906 124.48145294189453 195.28282165527344 127.16361236572266 193.10362243652344 116.62649536132812" stroke-width="2.0" fill="rgb(255, 255, 255)" opacity="1.0" stroke="rgb(0, 0, 0)" stroke-opacity="1.0" stroke-linecap="round" stroke-linejoin="round"/>
    <path d="M 376.11566162109375 144.23736572265625 C 377.6303405761719 151.5183868408203 389.64239501953125 144.83609008789062 376.11566162109375 144.23736572265625" stroke-width="2.0" fill="rgb(255, 255, 255)" opacity="1.0" stroke="rgb(0, 0, 0)" stroke-opacity="1.0" stroke-linecap="round" stroke-linejoin="round"/>
  </g>
</svg>
