<?xml version="1.0" ?>
<svg xmlns="http://www.w3.org/2000/svg" version="1.1" width="512" height="352">
  <defs/>
  <g>
    <path d="M 146.9966583251953 235.1573944091797 C 147.015869140625 250.3575897216797 149.97149658203125 252.1665802001953 99.74169921875 251.46522521972656 C 72.5104751586914 241.5919647216797 73.87368774414062 241.57748413085938 56.852516174316406 231.77401733398438 C 52.36941909790039 192.07130432128906 50.74470901489258 186.69357299804688 99.81234741210938 175.81494140625 C 128.4768524169922 142.09654235839844 149.5653076171875 168.72805786132812 146.9966583251953 235.1573944091797" stroke-width="0.0" fill="rgb(208, 182, 152)" opacity="1.0" stroke="rgb(240, 19, 91)" stroke-opacity="0.9183631" stroke-linecap="round" stroke-linejoin="round"/>
    <path d="M 230.1361846923828 209.6695098876953 C 211.564208984375 232.8769989013672 204.7568359375 250.45672607421875 192.79803466796875 260.1927185058594 C 187.4723663330078 226.84336853027344 182.9766387939453 243.04248046875 175.59286499023438 195.6692352294922 C 174.77891540527344 179.90805053710938 182.6294708251953 202.09085083007812 183.95887756347656 166.435302734375 C 272.7881164550781 181.72740173339844 245.15744018554688 154.22732543945312 230.1361846923828 209.6695098876953" stroke-width="0.0" fill="rgb(38, 67, 39)" opacity="0.70051134" stroke="rgb(47, 123, 20)" stroke-opacity="0.8642723" stroke-linecap="round" stroke-linejoin="round"/>
    <path d="M 256.5015563964844 292.7033996582031 C 257.3210754394531 131.3025665283203 246.28250122070312 179.93130493164062 216.03182983398438 223.19113159179688 C 183.4908905029297 220.02523803710938 214.5087890625 161.10899353027344 156.67857360839844 176.76026916503906 C 192.08135986328125 165.0120849609375 153.6689453125 170.6850128173828 206.744873046875 133.73680114746094 C 235.80589294433594 141.45901489257812 292.5186767578125 181.99295043945312 256.5015563964844 292.7033996582031" stroke-width="0.0" fill="rgb(87, 105, 86)" opacity="0.99863493" stroke="rgb(243, 175, 213)" stroke-opacity="0.34748945" stroke-linecap="round" stroke-linejoin="round"/>
    <path d="M 356.5323791503906 46.43435287475586 C 334.5721130371094 50.32828903198242 347.3353576660156 61.60708236694336 331.8730773925781 74.51190948486328 C 336.6016540527344 61.95145797729492 300.4365234375 73.038330078125 310.2978515625 55.27009201049805 C 315.1943054199219 36.921600341796875 317.7307434082031 17.80565071105957 331.3310546875 38.16640090942383 C 336.4753723144531 61.446590423583984 318.74114990234375 36.0969123840332 356.5323791503906 46.43435287475586" stroke-width="0.0" fill="rgb(175, 89, 57)" opacity="1.0" stroke="rgb(147, 79, 204)" stroke-opacity="0.04106817" stroke-linecap="round" stroke-linejoin="round"/>
    <path d="M 298.067626953125 77.49767303466797 C 275.9640808105469 116.77928161621094 329.4875793457031 96.8894271850586 251.02166748046875 126.4898910522461 C 287.8943786621094 123.9783935546875 250.69393920898438 8.282319068908691 239.08555603027344 131.2291259765625 C 221.64892578125 72.00303649902344 287.03936767578125 30.493602752685547 301.98858642578125 59.02136993408203 C 303.8515930175781 56.58750534057617 305.76446533203125 52.031497955322266 298.067626953125 77.49767303466797" stroke-width="0.0" fill="rgb(61, 34, 4)" opacity="0.67035717" stroke="rgb(205, 224, 14)" stroke-opacity="0.17639852" stroke-linecap="round" stroke-linejoin="round"/>
    <path d="M 320.05316162109375 224.23910522460938 C 334.5794677734375 251.33404541015625 335.6616516113281 244.6945343017578 273.2012023925781 228.584716796875 C 267.5094299316406 233.7013397216797 265.74658203125 229.13832092285156 259.8531494140625 217.0216827392578 C 266.6514587402344 173.11544799804688 274.8714904785156 212.10430908203125 278.857666015625 191.58876037597656 C 289.5029296875 167.20249938964844 317.61138916015625 192.08084106445312 320.05316162109375 224.23910522460938" stroke-width="0.0" fill="rgb(98, 127, 124)" opacity="1.0" stroke="rgb(11, 65, 154)" stroke-opacity="0.102119565" stroke-linecap="round" stroke-linejoin="round"/>
    <path d="M 331.2616882324219 69.25907135009766 C 328.5633544921875 66.80843353271484 320.07757568359375 71.2078857421875 292.1517028808594 102.1378173828125 C 255.72607421875 101.20829772949219 272.8929443359375 27.164865493774414 299.4685974121094 56.68628692626953 C 298.19024658203125 48.0722541809082 301.4200439453125 43.065521240234375 300.7717590332031 33.19216537475586 C 314.0035705566406 38.68598937988281 309.3036193847656 51.66670608520508 331.2616882324219 69.25907135009766" stroke-width="0.0" fill="rgb(156, 85, 55)" opacity="1.0" stroke="rgb(124, 242, 187)" stroke-opacity="0.12589808" stroke-linecap="round" stroke-linejoin="round"/>
    <path d="M 414.06732177734375 243.98416137695312 C 405.31939697265625 277.07220458984375 413.76336669921875 266.8582458496094 437.8703308105469 282.0461730957031 C 391.2400207519531 282.1990661621094 365.241943359375 287.9720764160156 318.4918212890625 270.1148681640625 C 360.37713623046875 247.62513732910156 344.4295654296875 193.078857421875 403.5545349121094 192.90122985839844 C 471.1526184082031 222.50123596191406 451.57861328125 227.3341827392578 414.06732177734375 243.98416137695312" stroke-width="0.0" fill="rgb(112, 101, 106)" opacity="0.41023108" stroke="rgb(245, 193, 68)" stroke-opacity="0.3925021" stroke-linecap="round" stroke-linejoin="round"/>
    <path d="M 441.015625 275.0888977050781 C 448.8680419921875 280.59332275390625 431.3294372558594 284.035400390625 383.0509948730469 286.0718078613281 C 390.9700927734375 283.94769287109375 377.1400451660156 285.875244140625 376.7906188964844 283.04058837890625 C 442.3575439453125 285.5804443359375 456.508056640625 270.6807556152344 418.96221923828125 276.0712890625 C 361.7317199707031 276.4342041015625 423.1767578125 263.2670593261719 441.015625 275.0888977050781" stroke-width="0.0" fill="rgb(65, 63, 62)" opacity="0.75805956" stroke="rgb(209, 155, 209)" stroke-opacity="0.25415927" stroke-linecap="round" stroke-linejoin="round"/>
    <path d="M 392.86602783203125 151.63479614257812 C 385.2166442871094 178.83221435546875 375.23150634765625 173.57870483398438 360.322509765625 211.92877197265625 C 322.09259033203125 224.96311950683594 361.8943786621094 174.9134063720703 343.1225280761719 163.01930236816406 C 314.2692565917969 111.7617416381836 315.14788818359375 154.3271942138672 347.1850891113281 163.3261260986328 C 377.13946533203125 167.91429138183594 369.94488525390625 139.31129455566406 392.86602783203125 151.63479614257812" stroke-width="0.0" fill="rgb(172, 172, 172)" opacity="1.0" stroke="rgb(136, 89, 133)" stroke-opacity="0.57007104" stroke-linecap="round" stroke-linejoin="round"/>
    <path d="M 302.9704895019531 84.5674819946289 C 304.43218994140625 85.00918579101562 306.38751220703125 96.00721740722656 282.8815612792969 82.65991973876953 C 265.16729736328125 87.77523040771484 253.32308959960938 81.56102752685547 260.6528625488281 77.73530578613281 C 270.9552001953125 73.1961441040039 269.4954833984375 75.73621368408203 275.91925048828125 74.50618743896484 C 272.03314208984375 76.71338653564453 279.75299072265625 70.50658416748047 302.9704895019531 84.5674819946289" stroke-width="0.0" fill="rgb(206, 101, 68)" opacity="1.0" stroke="rgb(72, 158, 185)" stroke-opacity="0.72836524" stroke-linecap="round" stroke-linejoin="round"/>
    <path d="M 392.8471984863281 165.39378356933594 C 388.1343688964844 179.66140747070312 439.7808837890625 159.26348876953125 453.5693664550781 224.04135131835938 C 335.7316589355469 225.46597290039062 347.46099853515625 234.00225830078125 367.5790710449219 180.68917846679688 C 405.79840087890625 160.04122924804688 383.931884765625 134.78799438476562 389.4387512207031 126.79853057861328 C 400.3954162597656 137.82078552246094 390.6500244140625 153.83914184570312 392.8471984863281 165.39378356933594" stroke-width="0.0" fill="rgb(152, 152, 151)" opacity="1.0" stroke="rgb(87, 150, 143)" stroke-opacity="0.1977869" stroke-linecap="round" stroke-linejoin="round"/>
    <path d="M 472.76629638671875 191.7744903564453 C 494.5851135253906 276.82843017578125 436.06298828125 261.10736083984375 438.9006652832031 279.8523254394531 C 398.3249816894531 272.3221435546875 397.163818359375 269.05133056640625 403.5455627441406 256.8299255371094 C 404.3880615234375 253.74082946777344 410.2004699707031 269.2079772949219 412.9793395996094 247.33518981933594 C 409.6199035644531 237.27047729492188 446.911865234375 247.83090209960938 472.76629638671875 191.7744903564453" stroke-width="0.0" fill="rgb(144, 139, 141)" opacity="0.58781135" stroke="rgb(12, 227, 159)" stroke-opacity="0.9107071" stroke-linecap="round" stroke-linejoin="round"/>
    <path d="M 391.7751770019531 119.05133819580078 C 396.34619140625 167.29368591308594 402.4320068359375 141.9761962890625 356.9201965332031 151.78570556640625 C 340.6268310546875 143.42489624023438 326.7917785644531 142.3647918701172 327.835693359375 135.0019073486328 C 351.1614685058594 99.64430236816406 352.06463623046875 120.68701171875 382.8116149902344 95.72036743164062 C 361.8648376464844 142.2721405029297 420.86083984375 85.53748321533203 391.7751770019531 119.05133819580078" stroke-width="0.0" fill="rgb(116, 98, 107)" opacity="0.3930551" stroke="rgb(75, 223, 197)" stroke-opacity="0.11202632" stroke-linecap="round" stroke-linejoin="round"/>
    <path d="M 356.81231689453125 141.34812927246094 C 371.8514099121094 145.83621215820312 368.89312744140625 145.21633911132812 328.1688232421875 134.5340576171875 C 322.18756103515625 144.93829345703125 312.9574890136719 130.25506591796875 333.7929382324219 126.35118865966797 C 328.0677185058594 150.59120178222656 346.84686279296875 133.8942413330078 347.23687744140625 123.73329162597656 C 355.3830871582031 121.25426483154297 354.7329406738281 127.8990478515625 356.81231689453125 141.34812927246094" stroke-width="0.0" fill="rgb(126, 127, 126)" opacity="1.0" stroke="rgb(195, 1, 150)" stroke-opacity="0.3160099" stroke-linecap="round" stroke-linejoin="round"/>
    <path d="M 206.0 148.0 C 205.3301239013672 150.5 203.5 152.3301239013672 201.0 153.0 C 198.5 152.3301239013672 196.6698760986328 150.5 196.0 148.0 C 196.6698760986328 145.5 198.5 143.6698760986328 201.0 143.0 C 203.5 143.6698760986328 205.3301239013672 145.5 206.0 148.0" stroke-width="0.0" fill="rgb(132, 157, 139)" opacity="1.0" stroke="rgb(171, 190, 221)" stroke-opacity="0.49972332" stroke-linecap="round" stroke-linejoin="round"/>
    <path d="M 259.0 158.0 C 258.33013916015625 160.5 256.5 162.3301239013672 254.0 163.0 C 251.5 162.3301239013672 249.6698760986328 160.5 249.0 158.0 C 249.6698760986328 155.5 251.5 153.6698760986328 254.0 153.0 C 256.5 153.6698760986328 258.33013916015625 155.5 259.0 158.0" stroke-width="0.0" fill="rgb(132, 157, 139)" opacity="1.0" stroke="rgb(214, 159, 140)" stroke-opacity="0.815357" stroke-linecap="round" stroke-linejoin="round"/>
    <path d="M 284.0 107.0 C 283.33013916015625 109.5 281.5 111.33012390136719 279.0 112.0 C 276.5 111.33012390136719 274.66986083984375 109.5 274.0 107.0 C 274.66986083984375 104.5 276.5 102.66987609863281 279.0 102.0 C 281.5 102.66987609863281 283.33013916015625 104.5 284.0 107.0" stroke-width="0.0" fill="rgb(206, 96, 61)" opacity="1.0" stroke="rgb(201, 226, 38)" stroke-opacity="0.046436273" stroke-linecap="round" stroke-linejoin="round"/>
    <path d="M 76.0 204.0 C 75.33012390136719 206.5 73.5 208.3301239013672 71.0 209.0 C 68.5 208.3301239013672 66.66987609863281 206.5 66.0 204.0 C 66.66987609863281 201.5 68.5 199.6698760986328 71.0 199.0 C 73.5 199.6698760986328 75.33012390136719 201.5 76.0 204.0" stroke-width="0.0" fill="rgb(164, 99, 80)" opacity="1.0" stroke="rgb(148, 243, 141)" stroke-opacity="0.8771365" stroke-linecap="round" stroke-linejoin="round"/>
    <path d="M 117.0 232.0 C 116.33012390136719 234.5 114.5 236.3301239013672 112.0 237.0 C 109.5 236.3301239013672 107.66987609863281 234.5 107.0 232.0 C 107.66987609863281 229.5 109.5 227.6698760986328 112.0 227.0 C 114.5 227.6698760986328 116.33012390136719 229.5 117.0 232.0" stroke-width="0.0" fill="rgb(148, 91, 77)" opacity="1.0" stroke="rgb(30, 121, 213)" stroke-opacity="0.51690656" stroke-linecap="round" stroke-linejoin="round"/>
    <path d="M 457.0 174.0 C 456.33013916015625 176.5 454.5 178.3301239013672 452.0 179.0 C 449.5 178.3301239013672 447.66986083984375 176.5 447.0 174.0 C 447.66986083984375 171.5 449.5 169.6698760986328 452.0 169.0 C 454.5 169.6698760986328 456.33013916015625 171.5 457.0 174.0" stroke-width="0.0" fill="rgb(112, 111, 111)" opacity="1.0" stroke="rgb(242, 146, 86)" stroke-opacity="0.9857213" stroke-linecap="round" stroke-linejoin="round"/>
    <path d="M 238.0 150.0 C 237.3301239013672 152.5 235.5 154.3301239013672 233.0 155.0 C 230.5 154.3301239013672 228.6698760986328 152.5 228.0 150.0 C 228.6698760986328 147.5 230.5 145.6698760986328 233.0 145.0 C 235.5 145.6698760986328 237.3301239013672 147.5 238.0 150.0" stroke-width="0.0" fill="rgb(201, 216, 213)" opacity="1.0" stroke="rgb(124, 47, 187)" stroke-opacity="0.96133107" stroke-linecap="round" stroke-linejoin="round"/>
    <path d="M 249.0 140.0 C 248.3301239013672 142.5 246.5 144.3301239013672 244.0 145.0 C 241.5 144.3301239013672 239.6698760986328 142.5 239.0 140.0 C 239.6698760986328 137.5 241.5 135.6698760986328 244.0 135.0 C 246.5 135.6698760986328 248.3301239013672 137.5 249.0 140.0" stroke-width="0.0" fill="rgb(44, 57, 34)" opacity="1.0" stroke="rgb(11, 161, 160)" stroke-opacity="0.5718392" stroke-linecap="round" stroke-linejoin="round"/>
    <path d="M 243.0 280.0 C 242.3301239013672 282.5 240.5 284.33013916015625 238.0 285.0 C 235.5 284.33013916015625 233.6698760986328 282.5 233.0 280.0 C 233.6698760986328 277.5 235.5 275.66986083984375 238.0 275.0 C 240.5 275.66986083984375 242.3301239013672 277.5 243.0 280.0" stroke-width="0.0" fill="rgb(109, 146, 151)" opacity="1.0" stroke="rgb(192, 217, 130)" stroke-opacity="0.73019075" stroke-linecap="round" stroke-linejoin="round"/>
    <path d="M 124.0 130.0 C 123.33012390136719 132.5 121.5 134.3301239013672 119.0 135.0 C 116.5 134.3301239013672 114.66987609863281 132.5 114.0 130.0 C 114.66987609863281 127.5 116.5 125.66987609863281 119.0 125.0 C 121.5 125.66987609863281 123.33012390136719 127.5 124.0 130.0" stroke-width="0.0" fill="rgb(165, 101, 82)" opacity="1.0" stroke="rgb(75, 182, 212)" stroke-opacity="0.4453568" stroke-linecap="round" stroke-linejoin="round"/>
    <path d="M 374.0 113.0 C 373.33013916015625 115.5 371.5 117.33012390136719 369.0 118.0 C 366.5 117.33012390136719 364.66986083984375 115.5 364.0 113.0 C 364.66986083984375 110.5 366.5 108.66987609863281 369.0 108.0 C 371.5 108.66987609863281 373.33013916015625 110.5 374.0 113.0" stroke-width="0.0" fill="rgb(112, 111, 111)" opacity="1.0" stroke="rgb(113, 250, 76)" stroke-opacity="0.820842" stroke-linecap="round" stroke-linejoin="round"/>
    <path d="M 264.0 271.0 C 263.33013916015625 273.5 261.5 275.33013916015625 259.0 276.0 C 256.5 275.33013916015625 254.6698760986328 273.5 254.0 271.0 C 254.6698760986328 268.5 256.5 266.66986083984375 259.0 266.0 C 261.5 266.66986083984375 263.33013916015625 268.5 264.0 271.0" stroke-width="0.0" fill="rgb(198, 198, 198)" opacity="1.0" stroke="rgb(132, 190, 77)" stroke-opacity="0.75132936" stroke-linecap="round" stroke-linejoin="round"/>
    <path d="M 263.0 214.0 C 262.33013916015625 216.5 260.5 218.3301239013672 258.0 219.0 C 255.5 218.3301239013672 253.6698760986328 216.5 253.0 214.0 C 253.6698760986328 211.5 255.5 209.6698760986328 258.0 209.0 C 260.5 209.6698760986328 262.33013916015625 211.5 263.0 214.0" stroke-width="0.0" fill="rgb(41, 54, 29)" opacity="1.0" stroke="rgb(100, 250, 78)" stroke-opacity="0.99327743" stroke-linecap="round" stroke-linejoin="round"/>
    <path d="M 452.0 157.0 C 451.33013916015625 159.5 449.5 161.3301239013672 447.0 162.0 C 444.5 161.3301239013672 442.66986083984375 159.5 442.0 157.0 C 442.66986083984375 154.5 444.5 152.6698760986328 447.0 152.0 C 449.5 152.6698760986328 451.33013916015625 154.5 452.0 157.0" stroke-width="0.0" fill="rgb(112, 111, 111)" opacity="1.0" stroke="rgb(167, 80, 190)" stroke-opacity="0.97048825" stroke-linecap="round" stroke-linejoin="round"/>
    <path d="M 242.0 109.0 C 241.3301239013672 111.5 239.5 113.33012390136719 237.0 114.0 C 234.5 113.33012390136719 232.6698760986328 111.5 232.0 109.0 C 232.6698760986328 106.5 234.5 104.66987609863281 237.0 104.0 C 239.5 104.66987609863281 241.3301239013672 106.5 242.0 109.0" stroke-width="0.0" fill="rgb(39, 52, 28)" opacity="1.0" stroke="rgb(164, 149, 152)" stroke-opacity="0.47961885" stroke-linecap="round" stroke-linejoin="round"/>
    <path d="M 121.0 248.0 C 120.33012390136719 250.5 118.5 252.3301239013672 116.0 253.0 C 113.5 252.3301239013672 111.66987609863281 250.5 111.0 248.0 C 111.66987609863281 245.5 113.5 243.6698760986328 116.0 243.0 C 118.5 243.6698760986328 120.33012390136719 245.5 121.0 248.0" stroke-width="0.0" fill="rgb(148, 92, 78)" opacity="1.0" stroke="rgb(62, 154, 197)" stroke-opacity="0.7362807" stroke-linecap="round" stroke-linejoin="round"/>
  </g>
</svg>
