<?xml version="1.0" ?>
<svg xmlns="http://www.w3.org/2000/svg" version="1.1" width="508" height="512">
  <defs/>
  <g>
    <path d="M 292.2652587890625 8.00590991973877 C 176.69371032714844 158.75958251953125 373.25860595703125 23.908344268798828 435.2292785644531 203.74427795410156 C 97.90111541748047 249.07888793945312 105.27469635009766 214.36219787597656 5.736773490905762 179.2744140625 C 5.167911052703857 -56.78400421142578 6.019998550415039 25.57601547241211 5.427490234375 7.999131679534912 C 165.2436065673828 8.00584888458252 176.2970733642578 8.00389289855957 292.2652587890625 8.00590991973877" stroke-width="0.0" fill="rgb(76, 102, 100)" opacity="0.4072262" stroke="rgb(111, 73, 72)" stroke-opacity="0.29985738" stroke-linecap="round" stroke-linejoin="round"/>
    <path d="M 481.4359130859375 83.92491912841797 C 535.5817260742188 376.9904479980469 506.5747985839844 350.0036926269531 174.88047790527344 317.950927734375 C 267.994140625 37.88962936401367 326.4073486328125 112.63753509521484 302.6845703125 49.280757904052734 C 250.32818603515625 7.072934150695801 209.26693725585938 177.55398559570312 72.82147216796875 10.054492950439453 C 439.9334411621094 -9.87210750579834 191.87667846679688 121.92928314208984 481.4359130859375 83.92491912841797" stroke-width="0.0" fill="rgb(155, 167, 167)" opacity="1.0" stroke="rgb(194, 11, 39)" stroke-opacity="0.025216106" stroke-linecap="round" stroke-linejoin="round"/>
    <path d="M 502.08685302734375 170.99588012695312 C 358.9195556640625 16.496522903442383 408.3280944824219 62.858184814453125 354.5621643066406 87.15825653076172 C 316.1374816894531 98.27239990234375 337.33935546875 42.54206848144531 207.62893676757812 8.789225578308105 C 288.03533935546875 7.179896831512451 293.22198486328125 8.618399620056152 502.3114013671875 7.987372875213623 C 502.1149597167969 9.761162757873535 502.4361877441406 108.39012145996094 502.08685302734375 170.99588012695312" stroke-width="0.0" fill="rgb(122, 161, 165)" opacity="0.83146256" stroke="rgb(32, 230, 13)" stroke-opacity="0.20473954" stroke-linecap="round" stroke-linejoin="round"/>
    <path d="M 364.280517578125 278.3188171386719 C 276.1959533691406 298.383544921875 361.4471740722656 251.9686737060547 370.5148010253906 307.7361755371094 C 304.7793884277344 249.0584259033203 306.7779235839844 423.2491455078125 311.326904296875 281.3592529296875 C 264.84625244140625 279.7203369140625 320.35284423828125 264.8973693847656 331.1362609863281 225.5644989013672 C 320.27691650390625 301.6403503417969 371.54150390625 250.11175537109375 364.280517578125 278.3188171386719" stroke-width="0.0" fill="rgb(255, 249, 230)" opacity="0.8663205" stroke="rgb(225, 139, 19)" stroke-opacity="0.62207425" stroke-linecap="round" stroke-linejoin="round"/>
    <path d="M 153.5316162109375 168.71595764160156 C 153.2345733642578 215.87680053710938 153.70762634277344 228.5839080810547 153.67697143554688 251.7722625732422 C 122.13085174560547 251.57461547851562 128.12258911132812 251.7921600341797 127.49957275390625 252.86216735839844 C 127.73724365234375 172.41476440429688 127.65186309814453 161.92919921875 127.85065460205078 150.36497497558594 C 164.30055236816406 152.38002014160156 152.46485900878906 143.4591522216797 153.5316162109375 168.71595764160156" stroke-width="0.0" fill="rgb(50, 57, 76)" opacity="1.0" stroke="rgb(8, 126, 232)" stroke-opacity="0.4005716" stroke-linecap="round" stroke-linejoin="round"/>
    <path d="M 374.03289794921875 295.6230773925781 C 368.3687744140625 391.84698486328125 398.08489990234375 364.79833984375 310.84539794921875 369.92889404296875 C 293.7827453613281 371.3169860839844 319.10064697265625 344.6974182128906 290.9530334472656 351.68756103515625 C 285.9034423828125 182.35653686523438 305.47882080078125 235.95846557617188 309.8146057128906 351.40301513671875 C 398.4256896972656 355.2948913574219 347.4172668457031 271.2257080078125 374.03289794921875 295.6230773925781" stroke-width="0.0" fill="rgb(54, 59, 79)" opacity="1.0" stroke="rgb(221, 31, 106)" stroke-opacity="0.7651842" stroke-linecap="round" stroke-linejoin="round"/>
    <path d="M 376.95782470703125 247.22691345214844 C 297.6028747558594 218.24147033691406 347.6930847167969 235.8046417236328 314.2655334472656 252.07542419433594 C 324.3257751464844 179.65277099609375 259.0808410644531 339.6670227050781 217.6085662841797 145.8402862548828 C 340.1963806152344 316.3059387207031 293.97930908203125 96.87906646728516 322.9824523925781 202.7615203857422 C 394.4972229003906 201.55093383789062 377.080322265625 223.70098876953125 376.95782470703125 247.22691345214844" stroke-width="0.0" fill="rgb(254, 225, 203)" opacity="0.75199276" stroke="rgb(207, 164, 228)" stroke-opacity="0.2958349" stroke-linecap="round" stroke-linejoin="round"/>
    <path d="M 256.2255859375 260.609375 C 253.9573211669922 452.7874450683594 242.52366638183594 417.9376525878906 210.0288543701172 421.2981262207031 C 92.94735717773438 420.6347351074219 80.00626373291016 425.8548583984375 80.90327453613281 396.9155578613281 C 113.41950225830078 370.1514892578125 130.2998504638672 374.8045654296875 124.67280578613281 399.1202392578125 C 288.0832214355469 411.9189147949219 117.89956665039062 371.9932861328125 256.2255859375 260.609375" stroke-width="0.0" fill="rgb(80, 107, 127)" opacity="1.0" stroke="rgb(97, 246, 52)" stroke-opacity="0.960442" stroke-linecap="round" stroke-linejoin="round"/>
    <path d="M 99.95044708251953 250.4811248779297 C 98.99913024902344 251.30874633789062 102.16146087646484 249.211181640625 95.55084228515625 260.083984375 C 13.109055519104004 261.7005920410156 5.228754997253418 257.31829833984375 6.024139404296875 233.4490966796875 C 6.270705699920654 151.35369873046875 5.8327107429504395 160.51248168945312 6.277578353881836 164.0322265625 C 113.25836944580078 163.96224975585938 115.6566390991211 148.17037963867188 99.95044708251953 250.4811248779297" stroke-width="0.0" fill="rgb(225, 191, 170)" opacity="1.0" stroke="rgb(128, 80, 87)" stroke-opacity="0.027228057" stroke-linecap="round" stroke-linejoin="round"/>
    <path d="M 353.7489318847656 504.4675598144531 C 134.49049377441406 505.7266845703125 122.62999725341797 504.3887939453125 65.36946105957031 505.09552001953125 C 46.25330352783203 505.0097351074219 36.109031677246094 504.2247619628906 10.970307350158691 504.2212829589844 C 40.84514617919922 441.7887268066406 49.10672378540039 431.0845031738281 166.85458374023438 429.5118408203125 C 258.8909606933594 431.609130859375 327.3977355957031 286.9559326171875 353.7489318847656 504.4675598144531" stroke-width="0.0" fill="rgb(83, 116, 132)" opacity="0.8215785" stroke="rgb(148, 231, 253)" stroke-opacity="0.8373891" stroke-linecap="round" stroke-linejoin="round"/>
    <path d="M 113.16382598876953 201.83082580566406 C 95.6855239868164 262.716796875 107.0958023071289 269.0929870605469 57.9343376159668 257.88958740234375 C 29.512231826782227 236.9515838623047 5.265289783477783 251.75662231445312 13.10629940032959 273.813720703125 C 86.50338745117188 259.70416259765625 108.77338409423828 291.5470886230469 96.5540542602539 178.5778350830078 C 145.38392639160156 136.80792236328125 125.16764831542969 270.993408203125 113.16382598876953 201.83082580566406" stroke-width="0.0" fill="rgb(255, 252, 233)" opacity="0.9014871" stroke="rgb(175, 30, 65)" stroke-opacity="0.12611479" stroke-linecap="round" stroke-linejoin="round"/>
    <path d="M 143.22618103027344 398.8775634765625 C 30.632186889648438 318.11431884765625 40.31025314331055 191.31661987304688 35.10490036010742 342.38409423828125 C -6.484506130218506 340.3942565917969 8.15816879272461 351.6355895996094 5.166388988494873 308.6455993652344 C 36.90593719482422 309.000732421875 21.20053482055664 283.49493408203125 47.416900634765625 253.42539978027344 C 61.22281265258789 283.98944091796875 162.0432891845703 254.1100616455078 143.22618103027344 398.8775634765625" stroke-width="0.0" fill="rgb(64, 118, 142)" opacity="0.5742146" stroke="rgb(197, 152, 216)" stroke-opacity="0.012623639" stroke-linecap="round" stroke-linejoin="round"/>
    <path d="M 132.34713745117188 404.51226806640625 C 75.9494857788086 485.9284362792969 77.75827026367188 483.9599304199219 137.37771606445312 504.09417724609375 C -24.10731315612793 502.9086608886719 9.69633960723877 511.9391174316406 4.718751907348633 492.0104064941406 C 10.234468460083008 368.20025634765625 -10.139631271362305 418.9297790527344 39.12300491333008 376.7786865234375 C 134.5555419921875 348.9746398925781 131.3415985107422 318.1373291015625 132.34713745117188 404.51226806640625" stroke-width="0.0" fill="rgb(12, 69, 95)" opacity="0.40985847" stroke="rgb(203, 243, 105)" stroke-opacity="0.65378577" stroke-linecap="round" stroke-linejoin="round"/>
    <path d="M 457.6968688964844 260.4326477050781 C 440.42706298828125 269.5510559082031 391.7310485839844 245.45761108398438 396.9180908203125 287.0160827636719 C 361.1912841796875 241.33795166015625 390.8800048828125 246.6118621826172 364.9515380859375 131.12368774414062 C 416.2802429199219 146.27651977539062 382.45135498046875 221.9822998046875 399.704345703125 213.09494018554688 C 478.2416687011719 221.4649200439453 452.12811279296875 190.86244201660156 457.6968688964844 260.4326477050781" stroke-width="0.0" fill="rgb(29, 34, 57)" opacity="0.831778" stroke="rgb(113, 253, 223)" stroke-opacity="0.18252671" stroke-linecap="round" stroke-linejoin="round"/>
    <path d="M 82.00215911865234 285.2430725097656 C 45.393375396728516 304.54931640625 33.95984649658203 311.9362487792969 5.965689182281494 308.5985107421875 C 5.691048622131348 306.5570983886719 5.9367899894714355 296.57568359375 5.750656604766846 234.3701171875 C 4.043288230895996 213.30287170410156 15.640401840209961 218.66067504882812 14.124428749084473 258.7430114746094 C 90.88505554199219 246.8641357421875 123.41791534423828 247.89495849609375 82.00215911865234 285.2430725097656" stroke-width="0.0" fill="rgb(231, 163, 133)" opacity="0.5921543" stroke="rgb(109, 242, 34)" stroke-opacity="0.7519534" stroke-linecap="round" stroke-linejoin="round"/>
  </g>
</svg>
