<?xml version="1.0" ?>
<svg xmlns="http://www.w3.org/2000/svg" version="1.1" width="512" height="512">
  <defs/>
  <g>
    <path d="M 0.0 0.0 L 512.0 0.0 L 512.0 512.0 L 0.0 512.0 L 0.0 0.0" stroke-width="0.0" fill="rgb(255, 255, 255)" opacity="1.0" stroke="rgb(0, 0, 0)" stroke-opacity="0.0" stroke-linecap="round" stroke-linejoin="round"/>
    <path d="M 0.0 0.0 C 1.2848411798477173 170.3333282470703 -2.60088849067688 340.6666564941406 2.0 511.0 L 511.0 511.0 L 511.0 0.0 L 0.0 0.0" stroke-width="2.0" fill="rgb(255, 255, 255)" opacity="1.0" stroke="rgb(0, 0, 0)" stroke-opacity="0.0" stroke-linecap="round" stroke-linejoin="round"/>
    <path d="M 286.0 41.0 C 273.0119323730469 34.402992248535156 256.70391845703125 50.93112564086914 260.0 64.0 C 263.0558166503906 70.4130859375 267.7159729003906 71.23877716064453 273.0 77.0 C 269.27410888671875 84.02757263183594 276.9626159667969 92.1943588256836 265.0 94.0 L 264.0 120.0 C 259.0 123.70185089111328 254.0 119.03882598876953 249.0 126.0 C 247.39356994628906 129.6666717529297 251.57638549804688 133.3333282470703 250.0 137.0 C 224.92681884765625 132.13296508789062 189.27114868164062 164.85731506347656 194.0 191.0 C 190.32521057128906 196.59295654296875 185.1469268798828 191.39088439941406 183.0 196.0 C 181.434814453125 209.55084228515625 196.67221069335938 200.50892639160156 204.0 206.0 C 204.4611358642578 217.64207458496094 212.2842254638672 233.6891326904297 227.0 237.0 C 226.89202880859375 246.59645080566406 241.11656188964844 254.1654052734375 230.0 260.0 C 215.0 248.46185302734375 200.0 244.63575744628906 185.0 244.0 C 179.42013549804688 248.3333282470703 183.2073211669922 252.6666717529297 184.0 257.0 C 177.21212768554688 265.3333435058594 173.33251953125 273.6666564941406 164.0 282.0 C 162.79148864746094 276.6666564941406 167.91354370117188 271.3333435058594 169.0 266.0 C 169.08816528320312 254.0 170.8586883544922 242.0 161.0 230.0 C 143.31443786621094 226.8059844970703 140.7470245361328 252.2388458251953 142.0 264.0 C 145.082763671875 271.77008056640625 145.8831024169922 276.46746826171875 153.0 284.0 C 139.87081909179688 291.0394592285156 138.6822052001953 303.2193603515625 130.0 311.0 C 129.41395568847656 317.0428771972656 129.4826202392578 324.4675598144531 138.0 329.0 L 137.0 342.0 C 125.93235778808594 338.7947998046875 116.17560577392578 354.0860595703125 131.0 357.0 L 170.0 357.0 C 176.69956970214844 359.1469421386719 171.93051147460938 364.3252258300781 169.0 368.0 C 148.52838134765625 352.9454650878906 120.13107299804688 360.944580078125 106.0 387.0 C 97.7056884765625 406.23602294921875 105.98973083496094 434.9123840332031 132.0 445.0 C 151.21461486816406 452.51678466796875 182.05177307128906 439.6695556640625 188.0 414.0 C 190.26658630371094 404.6666564941406 188.10751342773438 395.3333435058594 186.0 386.0 C 177.0344696044922 377.6666564941406 176.3312530517578 369.3333435058594 186.0 361.0 C 197.00962829589844 366.2769775390625 184.25686645507812 384.67071533203125 196.0 390.0 L 299.0 390.0 C 298.6761474609375 406.8183288574219 298.5902099609375 427.3125915527344 320.0 441.0 C 339.8953857421875 451.5690612792969 364.3511962890625 448.76544189453125 381.0 424.0 C 385.2497863769531 411.6666564941406 387.1119384765625 399.3333435058594 382.0 387.0 C 389.6666564941406 381.32012939453125 397.3333435058594 389.2085876464844 405.0 382.0 L 405.0 341.0 C 393.5531005859375 334.1109924316406 401.9588317871094 324.3916320800781 398.0 316.0 C 389.1363830566406 301.8824462890625 376.4764404296875 306.6163024902344 366.0 304.0 C 363.0391845703125 258.0 369.96954345703125 212.0 363.0 166.0 C 352.46978759765625 140.72879028320312 325.3009033203125 134.32296752929688 307.0 137.0 C 309.2889099121094 129.01431274414062 306.2342834472656 118.39710235595703 296.0 122.0 C 284.6317138671875 113.519287109375 300.9272766113281 95.44444274902344 284.0 90.0 C 286.4666748046875 82.85929870605469 282.5023193359375 73.17858123779297 294.0 69.0 C 298.33038330078125 59.448455810546875 297.67327880859375 50.339805603027344 286.0 41.0" stroke-width="2.0" fill="rgb(147, 118, 56)" opacity="1.0" stroke="rgb(0, 0, 0)" stroke-opacity="0.0" stroke-linecap="round" stroke-linejoin="round"/>
    <path d="M 298.0 171.0 C 286.6367492675781 164.5623779296875 273.84722900390625 162.75621032714844 264.0 176.0 C 256.0 176.46026611328125 248.0 177.4561004638672 240.0 184.0 C 230.0 181.91622924804688 220.0 179.17486572265625 210.0 192.0 C 204.6570281982422 205.3333282470703 201.71922302246094 218.6666717529297 217.0 232.0 C 224.8373565673828 232.18951416015625 231.21365356445312 237.9322509765625 231.0 246.0 C 235.1896209716797 250.2467041015625 244.51280212402344 248.39915466308594 238.0 256.0 C 230.0370330810547 265.0159606933594 212.93814086914062 264.1380615234375 220.0 277.0 C 227.6666717529297 276.92156982421875 235.3333282470703 278.1248779296875 243.0 273.0 L 305.0 273.0 C 313.16375732421875 269.10247802734375 307.6329650878906 261.5007629394531 308.0 256.0 C 321.2630615234375 244.0 326.8984680175781 232.0 326.0 220.0 C 316.0714111328125 213.18612670898438 314.64312744140625 227.64749145507812 306.0 229.0 C 306.5959167480469 221.0 298.0869445800781 213.0 308.0 205.0 C 311.82952880859375 194.0 310.4806213378906 183.0 298.0 171.0" stroke-width="2.0" fill="rgb(85, 80, 67)" opacity="1.0" stroke="rgb(0, 0, 0)" stroke-opacity="0.0" stroke-linecap="round" stroke-linejoin="round"/>
    <path d="M 65.0 441.0 C 72.07111358642578 451.9087219238281 87.6141357421875 448.6927795410156 98.0 453.0 C 204.6666717529297 462.8644104003906 311.3333435058594 463.5931091308594 418.0 452.0 C 427.0 448.1734619140625 436.0 450.8686218261719 445.0 443.0 C 444.9071350097656 435.8981018066406 433.87493896484375 436.73388671875 429.0 434.0 L 382.0 428.0 C 355.3436584472656 458.4793701171875 322.93634033203125 455.0986328125 301.0 424.0 L 188.0 425.0 C 178.3859405517578 437.7992858886719 161.89141845703125 449.92681884765625 148.0 449.0 C 135.0 448.78863525390625 122.0 445.8832092285156 109.0 431.0 C 94.66666412353516 431.6230163574219 80.33333587646484 432.6409606933594 65.0 441.0" stroke-width="2.0" fill="rgb(216, 196, 106)" opacity="1.0" stroke="rgb(0, 0, 0)" stroke-opacity="0.0" stroke-linecap="round" stroke-linejoin="round"/>
    <path d="M 405.0 382.0 L 405.0 341.0 C 403.8393249511719 337.8546447753906 402.3190002441406 338.570068359375 400.0 337.0 C 367.0 335.84210205078125 334.0 337.7577819824219 301.0 341.0 C 285.9343566894531 349.0230407714844 292.935302734375 364.7424011230469 284.0 376.0 L 208.0 375.0 C 198.20033264160156 364.6124572753906 209.26475524902344 351.740234375 201.0 343.0 L 125.0 343.0 C 121.6172866821289 347.3333435058594 122.64741516113281 351.6666564941406 125.0 356.0 L 175.0 357.0 C 178.3333282470703 362.1468811035156 181.6666717529297 355.4330749511719 185.0 361.0 L 189.0 359.0 C 195.97671508789062 368.7683410644531 183.95062255859375 385.06451416015625 197.0 390.0 L 367.0 389.0 C 379.3333435058594 381.3977966308594 391.6666564941406 388.5142822265625 405.0 382.0" stroke-width="2.0" fill="rgb(70, 131, 96)" opacity="1.0" stroke="rgb(0, 0, 0)" stroke-opacity="0.0" stroke-linecap="round" stroke-linejoin="round"/>
    <path d="M 142.0 361.0 C 119.07597351074219 360.9287414550781 97.14472961425781 391.67596435546875 103.0 411.0 C 108.12420654296875 440.7749328613281 145.3822784423828 456.1634826660156 167.0 442.0 C 194.8511962890625 421.7660827636719 196.68508911132812 393.5038757324219 173.0 370.0 C 163.0 363.4075622558594 153.0 360.3483581542969 142.0 361.0" stroke-width="2.0" fill="rgb(61, 68, 50)" opacity="1.0" stroke="rgb(0, 0, 0)" stroke-opacity="0.0" stroke-linecap="round" stroke-linejoin="round"/>
    <path d="M 405.0 341.0 C 403.10748291015625 336.61083984375 398.3952331542969 337.00115966796875 395.0 337.0 C 363.3333435058594 337.72052001953125 331.6666564941406 338.9372253417969 300.0 342.0 C 286.7998352050781 354.37554931640625 287.66473388671875 370.96875 287.0 385.0 C 294.6666564941406 391.1235656738281 302.3333435058594 386.9635009765625 310.0 390.0 L 361.0 390.0 C 374.3333435058594 384.25238037109375 387.6666564941406 384.7879333496094 401.0 385.0 L 405.0 382.0 L 405.0 341.0" stroke-width="2.0" fill="rgb(70, 131, 98)" opacity="1.0" stroke="rgb(0, 0, 0)" stroke-opacity="0.0" stroke-linecap="round" stroke-linejoin="round"/>
    <path d="M 383.0 389.0 C 375.3333435058594 382.4500732421875 367.6666564941406 392.3298034667969 360.0 392.0 L 302.0 391.0 C 287.2814636230469 415.9259033203125 321.4280700683594 453.69879150390625 348.0 447.0 C 363.1361999511719 446.1243896484375 383.09478759765625 427.8214416503906 385.0 412.0 C 384.75390625 404.6666564941406 386.0165710449219 397.3333435058594 383.0 389.0" stroke-width="2.0" fill="rgb(62, 73, 54)" opacity="1.0" stroke="rgb(0, 0, 0)" stroke-opacity="0.0" stroke-linecap="round" stroke-linejoin="round"/>
    <path d="M 180.0 372.0 C 180.73843383789062 376.6666564941406 184.5697784423828 381.3333435058594 189.0 386.0 C 190.0457000732422 398.3333435058594 193.0283203125 410.6666564941406 187.0 423.0 L 301.0 422.0 C 296.23370361328125 411.6666564941406 297.4385070800781 401.3333435058594 298.0 391.0 L 193.0 391.0 C 184.07044982910156 379.7083435058594 187.96766662597656 370.8401794433594 189.0 361.0 C 186.2142791748047 360.8584899902344 183.0565185546875 367.9584655761719 180.0 372.0" stroke-width="2.0" fill="rgb(248, 242, 202)" opacity="1.0" stroke="rgb(0, 0, 0)" stroke-opacity="0.0" stroke-linecap="round" stroke-linejoin="round"/>
    <path d="M 271.0 40.0 C 256.3758544921875 48.476951599121094 253.3013153076172 67.64148712158203 270.0 76.0 C 268.68780517578125 82.47350311279297 274.1406555175781 91.84139251708984 264.0 94.0 L 264.0 120.0 C 254.99893188476562 118.05349731445312 239.35804748535156 128.0005645751953 253.0 137.0 L 304.0 137.0 C 317.26019287109375 128.0005645751953 302.1122131347656 118.05349731445312 293.0 120.0 C 290.5607604980469 110.23956298828125 299.12042236328125 96.59454345703125 286.0 90.0 C 282.1666564941406 79.36239624023438 291.8779602050781 73.4386215209961 298.0 64.0 C 302.1515197753906 51.59778594970703 284.5547790527344 33.049888610839844 271.0 40.0" stroke-width="2.0" fill="rgb(168, 86, 56)" opacity="1.0" stroke="rgb(0, 0, 0)" stroke-opacity="0.0" stroke-linecap="round" stroke-linejoin="round"/>
    <path d="M 209.0 302.0 C 211.1764678955078 312.0 203.64129638671875 322.0 215.0 332.0 L 287.0 332.0 C 296.3690185546875 321.7505187988281 296.3690185546875 305.2494812011719 287.0 295.0 C 262.3333435058594 294.3731384277344 237.6666717529297 291.89923095703125 213.0 296.0 L 209.0 302.0" stroke-width="2.0" fill="rgb(199, 193, 133)" opacity="1.0" stroke="rgb(0, 0, 0)" stroke-opacity="0.0" stroke-linecap="round" stroke-linejoin="round"/>
    <path d="M 336.0 191.0 C 314.33587646484375 201.0041961669922 333.56005859375 222.18963623046875 325.0 237.0 C 326.7623596191406 249.37274169921875 321.3279113769531 264.280029296875 328.0 275.0 L 360.0 274.0 C 362.240966796875 249.0 360.5379943847656 224.0 359.0 199.0 C 353.286376953125 189.4199676513672 344.2719421386719 190.42465209960938 336.0 191.0" stroke-width="2.0" fill="rgb(213, 107, 50)" opacity="1.0" stroke="rgb(0, 0, 0)" stroke-opacity="0.0" stroke-linecap="round" stroke-linejoin="round"/>
    <path d="M 325.0 219.0 C 313.5484924316406 216.0890350341797 313.6364440917969 229.24951171875 302.0 234.0 C 282.3333435058594 237.43568420410156 262.6666564941406 246.21142578125 243.0 248.0 C 238.68043518066406 250.49227905273438 243.27975463867188 253.35760498046875 237.0 257.0 C 230.03733825683594 264.07537841796875 217.81275939941406 265.2452087402344 218.0 275.0 C 231.6666717529297 281.40374755859375 245.3333282470703 270.1156311035156 259.0 272.0 C 259.1468505859375 268.3333435058594 251.41323852539062 264.6666564941406 257.0 261.0 C 260.2464294433594 259.39453125 261.6522216796875 262.5346374511719 264.0 263.0 C 274.578125 257.97308349609375 285.8275146484375 260.97869873046875 295.0 251.0 C 301.7655334472656 256.15887451171875 299.4307861328125 265.2173156738281 296.0 272.0 C 308.6899108886719 277.0020751953125 310.8531188964844 264.197998046875 308.0 255.0 C 320.4902038574219 244.6428680419922 327.4146423339844 231.81460571289062 325.0 219.0" stroke-width="2.0" fill="rgb(44, 39, 25)" opacity="1.0" stroke="rgb(0, 0, 0)" stroke-opacity="0.0" stroke-linecap="round" stroke-linejoin="round"/>
    <path d="M 266.0 92.0 C 261.4425048828125 101.33333587646484 265.2530212402344 110.66666412353516 264.0 120.0 C 254.99893188476562 117.83513641357422 239.35804748535156 128.0565643310547 253.0 137.0 L 306.0 136.0 C 316.01287841796875 124.93585968017578 301.12664794921875 119.04156494140625 293.0 120.0 L 292.0 93.0 C 283.6666564941406 90.0123062133789 275.3333435058594 90.49488067626953 266.0 92.0" stroke-width="2.0" fill="rgb(179, 41, 15)" opacity="1.0" stroke="rgb(0, 0, 0)" stroke-opacity="0.0" stroke-linecap="round" stroke-linejoin="round"/>
    <path d="M 297.0 223.0 C 282.5075378417969 203.9875946044922 259.7832946777344 207.4373779296875 242.0 225.0 C 237.8380584716797 232.3333282470703 237.22088623046875 239.6666717529297 244.0 247.0 C 261.6666564941406 243.74072265625 279.3333435058594 239.79776000976562 297.0 233.0 L 297.0 223.0" stroke-width="2.0" fill="rgb(233, 232, 219)" opacity="1.0" stroke="rgb(0, 0, 0)" stroke-opacity="0.0" stroke-linecap="round" stroke-linejoin="round"/>
    <path d="M 305.0 332.0 L 324.0 333.0 C 331.0 330.3708801269531 338.0 321.4479064941406 345.0 321.0 L 399.0 321.0 C 399.86260986328125 313.9496765136719 389.1388244628906 305.6751403808594 383.0 305.0 C 362.0 306.542724609375 341.0 299.9797668457031 320.0 314.0 C 314.117431640625 319.6666564941406 308.6258544921875 325.3333435058594 305.0 332.0" stroke-width="2.0" fill="rgb(192, 43, 14)" opacity="1.0" stroke="rgb(0, 0, 0)" stroke-opacity="0.0" stroke-linecap="round" stroke-linejoin="round"/>
    <path d="M 138.0 384.0 C 109.94573974609375 396.154296875 132.04916381835938 434.02386474609375 154.0 424.0 C 181.23927307128906 412.51947021484375 161.0777587890625 374.26959228515625 138.0 384.0" stroke-width="2.0" fill="rgb(111, 154, 122)" opacity="1.0" stroke="rgb(0, 0, 0)" stroke-opacity="0.0" stroke-linecap="round" stroke-linejoin="round"/>
    <path d="M 274.0 39.0 C 256.5308837890625 44.75900650024414 252.05990600585938 68.13008117675781 271.0 77.0 L 271.0 90.0 L 286.0 90.0 C 285.92181396484375 83.41099548339844 283.85894775390625 74.69513702392578 294.0 71.0 C 306.22418212890625 58.249576568603516 290.69305419921875 35.0270881652832 274.0 39.0" stroke-width="2.0" fill="rgb(155, 144, 110)" opacity="1.0" stroke="rgb(0, 0, 0)" stroke-opacity="0.0" stroke-linecap="round" stroke-linejoin="round"/>
    <path d="M 154.0 228.0 C 136.08352661132812 242.11074829101562 135.51992797851562 267.24041748046875 153.0 283.0 C 160.5643768310547 285.7880859375 167.24496459960938 275.52410888671875 169.0 269.0 C 169.6704864501953 255.6666717529297 174.3920135498047 242.3333282470703 160.0 229.0 L 154.0 228.0" stroke-width="2.0" fill="rgb(187, 113, 83)" opacity="1.0" stroke="rgb(0, 0, 0)" stroke-opacity="0.0" stroke-linecap="round" stroke-linejoin="round"/>
    <path d="M 323.0 394.0 C 313.234375 409.24981689453125 333.94403076171875 431.8531494140625 350.0 424.0 C 364.20941162109375 416.60552978515625 367.0002746582031 401.6177978515625 359.0 391.0 C 347.3333435058594 392.2807922363281 335.6666564941406 388.4044494628906 323.0 394.0" stroke-width="2.0" fill="rgb(107, 154, 121)" opacity="1.0" stroke="rgb(0, 0, 0)" stroke-opacity="0.0" stroke-linecap="round" stroke-linejoin="round"/>
    <path d="M 302.0 341.0 C 334.3333435058594 337.139404296875 366.6666564941406 334.55096435546875 399.0 336.0 L 399.0 323.0 L 346.0 322.0 C 338.6666564941406 322.0344543457031 331.3333435058594 331.1124267578125 324.0 334.0 C 317.14959716796875 335.8033142089844 304.0632019042969 329.1982421875 302.0 341.0" stroke-width="2.0" fill="rgb(248, 237, 167)" opacity="1.0" stroke="rgb(0, 0, 0)" stroke-opacity="0.0" stroke-linecap="round" stroke-linejoin="round"/>
    <path d="M 319.0 257.0 C 317.41949462890625 250.4406280517578 314.5674743652344 248.444580078125 309.0 256.0 C 309.08062744140625 262.0 314.3542785644531 268.0 307.0 274.0 C 283.0 276.73138427734375 259.0 268.49786376953125 235.0 279.0 L 240.0 285.0 L 309.0 285.0 C 321.4781188964844 280.7453918457031 322.158203125 266.87200927734375 319.0 257.0" stroke-width="2.0" fill="rgb(73, 138, 102)" opacity="1.0" stroke="rgb(0, 0, 0)" stroke-opacity="0.0" stroke-linecap="round" stroke-linejoin="round"/>
    <path d="M 338.0 199.0 C 334.8123474121094 200.18190002441406 334.2043151855469 202.53477478027344 333.0 205.0 C 334.7415466308594 220.3333282470703 329.3583984375 235.6666717529297 336.0 251.0 C 341.18560791015625 253.60086059570312 348.4101867675781 254.20037841796875 352.0 248.0 L 353.0 207.0 C 352.3150939941406 199.60621643066406 344.0570373535156 197.84494018554688 338.0 199.0" stroke-width="2.0" fill="rgb(192, 42, 14)" opacity="1.0" stroke="rgb(0, 0, 0)" stroke-opacity="0.0" stroke-linecap="round" stroke-linejoin="round"/>
    <path d="M 248.0 125.0 C 248.31765747070312 128.96441650390625 246.38401794433594 134.58319091796875 252.0 137.0 L 304.0 137.0 C 311.1439514160156 135.10691833496094 311.1439514160156 124.40351867675781 304.0 121.0 L 253.0 121.0 L 248.0 125.0" stroke-width="2.0" fill="rgb(192, 41, 16)" opacity="1.0" stroke="rgb(0, 0, 0)" stroke-opacity="0.0" stroke-linecap="round" stroke-linejoin="round"/>
    <path d="M 231.0 182.0 C 210.43260192871094 179.88352966308594 199.8779754638672 207.9341583251953 208.0 222.0 C 212.3718719482422 229.59349060058594 219.9890899658203 235.48548889160156 227.0 234.0 C 221.4503936767578 218.0 219.26480102539062 202.0 236.0 186.0 C 237.00784301757812 183.8185272216797 233.77207946777344 182.8185272216797 231.0 182.0" stroke-width="2.0" fill="rgb(30, 26, 16)" opacity="1.0" stroke="rgb(0, 0, 0)" stroke-opacity="0.0" stroke-linecap="round" stroke-linejoin="round"/>
    <path d="M 258.0 58.0 C 258.0510559082031 65.01090240478516 263.0577697753906 72.62813568115234 271.0 77.0 L 271.0 90.0 L 286.0 90.0 C 285.92181396484375 83.52619171142578 283.85894775390625 74.53675079345703 294.0 71.0 L 299.0 59.0 L 258.0 58.0" stroke-width="2.0" fill="rgb(133, 117, 84)" opacity="1.0" stroke="rgb(0, 0, 0)" stroke-opacity="0.0" stroke-linecap="round" stroke-linejoin="round"/>
    <path d="M 264.0 94.0 L 264.0 120.0 L 293.0 120.0 L 292.0 93.0 C 283.0 90.18061065673828 274.0 91.6269302368164 264.0 94.0" stroke-width="2.0" fill="rgb(163, 41, 13)" opacity="1.0" stroke="rgb(0, 0, 0)" stroke-opacity="0.0" stroke-linecap="round" stroke-linejoin="round"/>
    <path d="M 268.0 171.0 L 266.0 175.0 C 281.5935974121094 174.27035522460938 301.71270751953125 194.30621337890625 303.0 210.0 C 325.8867492675781 192.69692993164062 290.392333984375 151.03773498535156 268.0 171.0" stroke-width="2.0" fill="rgb(33, 27, 15)" opacity="1.0" stroke="rgb(0, 0, 0)" stroke-opacity="0.0" stroke-linecap="round" stroke-linejoin="round"/>
    <path d="M 154.0 235.0 C 143.8675994873047 246.48435974121094 142.54457092285156 267.1529541015625 156.0 277.0 C 169.02828979492188 268.0245666503906 165.40077209472656 251.223876953125 162.0 239.0 C 159.6666717529297 236.38478088378906 157.3333282470703 234.6985626220703 154.0 235.0" stroke-width="2.0" fill="rgb(192, 179, 146)" opacity="1.0" stroke="rgb(0, 0, 0)" stroke-opacity="0.0" stroke-linecap="round" stroke-linejoin="round"/>
    <path d="M 325.0 251.0 C 326.22601318359375 259.0 322.4797058105469 267.0 327.0 275.0 C 338.3333435058594 273.7221984863281 349.6666564941406 277.5914611816406 361.0 273.0 L 361.0 252.0 C 351.6410217285156 264.5352783203125 333.7317199707031 266.46978759765625 325.0 251.0" stroke-width="2.0" fill="rgb(193, 41, 12)" opacity="1.0" stroke="rgb(0, 0, 0)" stroke-opacity="0.0" stroke-linecap="round" stroke-linejoin="round"/>
    <path d="M 182.0 246.0 L 183.0 255.0 C 198.3333282470703 253.756103515625 213.6666717529297 270.8682556152344 229.0 261.0 C 224.2241668701172 252.1548614501953 211.08030700683594 249.91073608398438 203.0 246.0 C 196.3333282470703 246.3429412841797 189.6666717529297 241.88204956054688 182.0 246.0" stroke-width="2.0" fill="rgb(78, 140, 102)" opacity="1.0" stroke="rgb(0, 0, 0)" stroke-opacity="0.0" stroke-linecap="round" stroke-linejoin="round"/>
    <path d="M 259.0 55.0 C 267.7215881347656 59.61174011230469 284.9593505859375 55.70732498168945 297.0 57.0 C 298.2466735839844 35.87031555175781 263.14251708984375 31.797277450561523 259.0 55.0" stroke-width="2.0" fill="rgb(187, 183, 149)" opacity="1.0" stroke="rgb(0, 0, 0)" stroke-opacity="0.0" stroke-linecap="round" stroke-linejoin="round"/>
    <path d="M 205.0 355.0 C 205.99949645996094 361.6666564941406 202.4854736328125 368.3333435058594 208.0 375.0 L 285.0 374.0 L 285.0 370.0 L 214.0 370.0 C 205.8927764892578 366.75396728515625 214.1072235107422 357.1877136230469 205.0 355.0" stroke-width="2.0" fill="rgb(184, 51, 16)" opacity="1.0" stroke="rgb(0, 0, 0)" stroke-opacity="0.0" stroke-linecap="round" stroke-linejoin="round"/>
    <path d="M 298.0 261.0 C 287.94097900390625 252.65565490722656 273.71026611328125 261.6775207519531 262.0 265.0 C 260.8710021972656 267.3333435058594 259.14569091796875 269.6666564941406 260.0 272.0 C 272.4386291503906 271.7617492675781 287.1891784667969 277.9282531738281 298.0 268.0 L 298.0 261.0" stroke-width="2.0" fill="rgb(236, 236, 222)" opacity="1.0" stroke="rgb(0, 0, 0)" stroke-opacity="0.0" stroke-linecap="round" stroke-linejoin="round"/>
    <path d="M 373.0 387.0 C 370.7630310058594 395.0829162597656 374.45684814453125 407.27227783203125 373.0 417.0 C 379.1755676269531 421.3668212890625 384.8656311035156 419.95166015625 385.0 412.0 C 384.5476989746094 403.7725830078125 388.48309326171875 384.5462646484375 373.0 387.0" stroke-width="2.0" fill="rgb(54, 47, 33)" opacity="1.0" stroke="rgb(0, 0, 0)" stroke-opacity="0.0" stroke-linecap="round" stroke-linejoin="round"/>
    <path d="M 246.0 344.0 C 241.53968811035156 350.6666564941406 245.1827850341797 357.3333435058594 244.0 364.0 C 249.3333282470703 367.9271240234375 254.6666717529297 365.18328857421875 260.0 366.0 L 260.0 344.0 L 246.0 344.0" stroke-width="2.0" fill="rgb(250, 233, 150)" opacity="1.0" stroke="rgb(0, 0, 0)" stroke-opacity="0.0" stroke-linecap="round" stroke-linejoin="round"/>
    <path d="M 219.0 322.0 C 219.22792053222656 324.3190002441406 217.99215698242188 325.8393249511719 221.0 327.0 L 283.0 326.0 L 283.0 322.0 L 219.0 322.0" stroke-width="2.0" fill="rgb(189, 186, 146)" opacity="1.0" stroke="rgb(0, 0, 0)" stroke-opacity="0.0" stroke-linecap="round" stroke-linejoin="round"/>
    <path d="M 221.0 345.0 L 221.0 364.0 C 225.6666717529297 367.41156005859375 230.3333282470703 365.5404052734375 235.0 366.0 C 238.03419494628906 359.0 236.44503784179688 352.0 237.0 345.0 L 221.0 345.0" stroke-width="2.0" fill="rgb(250, 234, 152)" opacity="1.0" stroke="rgb(0, 0, 0)" stroke-opacity="0.0" stroke-linecap="round" stroke-linejoin="round"/>
    <path d="M 219.0 305.0 L 277.0 305.0 L 278.0 301.0 L 220.0 301.0 L 219.0 305.0" stroke-width="2.0" fill="rgb(228, 115, 61)" opacity="1.0" stroke="rgb(0, 0, 0)" stroke-opacity="0.0" stroke-linecap="round" stroke-linejoin="round"/>
    <path d="M 219.0 315.0 C 219.22792053222656 317.3190002441406 217.99215698242188 318.8393249511719 221.0 320.0 L 283.0 319.0 L 283.0 315.0 L 219.0 315.0" stroke-width="2.0" fill="rgb(76, 136, 97)" opacity="1.0" stroke="rgb(0, 0, 0)" stroke-opacity="0.0" stroke-linecap="round" stroke-linejoin="round"/>
    <path d="M 182.0 195.0 C 178.47537231445312 209.87548828125 196.72776794433594 203.89378356933594 205.0 205.0 L 208.0 193.0 L 182.0 195.0" stroke-width="2.0" fill="rgb(77, 138, 100)" opacity="1.0" stroke="rgb(0, 0, 0)" stroke-opacity="0.0" stroke-linecap="round" stroke-linejoin="round"/>
    <path d="M 134.0 304.0 C 122.8245849609375 310.8743591308594 132.27149963378906 337.6123046875 143.0 321.0 C 143.29420471191406 315.6600341796875 144.2555694580078 303.0987243652344 134.0 304.0" stroke-width="2.0" fill="rgb(81, 139, 98)" opacity="1.0" stroke="rgb(0, 0, 0)" stroke-opacity="0.0" stroke-linecap="round" stroke-linejoin="round"/>
    <path d="M 327.0 280.0 C 327.605224609375 282.6563720703125 325.38623046875 285.7111511230469 329.0 287.0 L 358.0 286.0 L 358.0 280.0 L 327.0 280.0" stroke-width="2.0" fill="rgb(194, 47, 9)" opacity="1.0" stroke="rgb(0, 0, 0)" stroke-opacity="0.0" stroke-linecap="round" stroke-linejoin="round"/>
    <path d="M 381.0 354.0 C 364.1254577636719 344.6906433105469 366.16058349609375 376.859375 382.0 365.0 L 381.0 354.0" stroke-width="2.0" fill="rgb(85, 37, 18)" opacity="1.0" stroke="rgb(0, 0, 0)" stroke-opacity="0.0" stroke-linecap="round" stroke-linejoin="round"/>
    <path d="M 285.0 342.0 C 276.6260681152344 344.93109130859375 276.6219177246094 359.24017333984375 275.0 367.0 C 285.02801513671875 367.89532470703125 286.0820007324219 348.3565368652344 285.0 342.0" stroke-width="2.0" fill="rgb(195, 51, 10)" opacity="1.0" stroke="rgb(0, 0, 0)" stroke-opacity="0.0" stroke-linecap="round" stroke-linejoin="round"/>
    <path d="M 321.0 354.0 C 309.21429443359375 371.315185546875 345.86798095703125 369.3009948730469 330.0 353.0 L 321.0 354.0" stroke-width="2.0" fill="rgb(85, 36, 18)" opacity="1.0" stroke="rgb(0, 0, 0)" stroke-opacity="0.0" stroke-linecap="round" stroke-linejoin="round"/>
    <path d="M 141.0 398.0 C 130.36587524414062 410.6810607910156 156.92945861816406 416.6432189941406 153.0 401.0 C 150.1966552734375 396.41986083984375 146.09970092773438 395.8321228027344 141.0 398.0" stroke-width="2.0" fill="rgb(169, 181, 148)" opacity="1.0" stroke="rgb(0, 0, 0)" stroke-opacity="0.0" stroke-linecap="round" stroke-linejoin="round"/>
    <path d="M 339.0 397.0 C 324.6292724609375 409.4678649902344 353.07293701171875 417.514404296875 349.0 401.0 C 347.34112548828125 396.7498779296875 343.1289978027344 396.72967529296875 339.0 397.0" stroke-width="2.0" fill="rgb(172, 181, 151)" opacity="1.0" stroke="rgb(0, 0, 0)" stroke-opacity="0.0" stroke-linecap="round" stroke-linejoin="round"/>
    <path d="M 187.0 358.0 C 178.69715881347656 350.6718444824219 162.71315002441406 369.0639343261719 178.0 372.0 L 187.0 358.0" stroke-width="2.0" fill="rgb(56, 85, 56)" opacity="1.0" stroke="rgb(0, 0, 0)" stroke-opacity="0.0" stroke-linecap="round" stroke-linejoin="round"/>
    <path d="M 273.0 246.0 C 264.1159362792969 254.8007354736328 282.7165222167969 258.8393859863281 279.0 248.0 C 277.3333435058594 245.4957275390625 275.6666564941406 245.94017028808594 273.0 246.0" stroke-width="2.0" fill="rgb(110, 94, 63)" opacity="1.0" stroke="rgb(0, 0, 0)" stroke-opacity="0.0" stroke-linecap="round" stroke-linejoin="round"/>
    <path d="M 295.0 251.0 C 282.4502258300781 256.4651794433594 304.9472351074219 261.3724060058594 295.0 251.0" stroke-width="2.0" fill="rgb(185, 176, 111)" opacity="1.0" stroke="rgb(0, 0, 0)" stroke-opacity="0.0" stroke-linecap="round" stroke-linejoin="round"/>
    <path d="M 257.0 261.0 C 250.0599822998047 267.4947814941406 263.6302795410156 270.8225402832031 262.0 263.0 L 257.0 261.0" stroke-width="2.0" fill="rgb(191, 180, 110)" opacity="1.0" stroke="rgb(0, 0, 0)" stroke-opacity="0.0" stroke-linecap="round" stroke-linejoin="round"/>
    <path d="M 398.0 323.0 C 391.45135498046875 321.4408264160156 392.39459228515625 324.8042907714844 392.0 330.0 C 397.14630126953125 331.4343566894531 391.87359619140625 322.5656433105469 398.0 323.0" stroke-width="2.0" fill="rgb(252, 242, 169)" opacity="1.0" stroke="rgb(0, 0, 0)" stroke-opacity="0.0" stroke-linecap="round" stroke-linejoin="round"/>
    <path d="M 277.0 260.0 C 278.0165100097656 264.0247802734375 278.3872375488281 270.6334228515625 281.0 273.0 L 277.0 260.0" stroke-width="2.0" fill="rgb(125, 125, 112)" opacity="1.0" stroke="rgb(0, 0, 0)" stroke-opacity="0.0" stroke-linecap="round" stroke-linejoin="round"/>
    <path d="M 255.0 228.0 C 250.48838806152344 237.39620971679688 265.3709716796875 229.98179626464844 255.0 228.0" stroke-width="2.0" fill="rgb(50, 48, 36)" opacity="1.0" stroke="rgb(0, 0, 0)" stroke-opacity="0.0" stroke-linecap="round" stroke-linejoin="round"/>
    <path d="M 239.0 201.0 C 231.96144104003906 207.37254333496094 246.5105438232422 207.37254333496094 239.0 201.0" stroke-width="2.0" fill="rgb(132, 77, 63)" opacity="1.0" stroke="rgb(0, 0, 0)" stroke-opacity="0.0" stroke-linecap="round" stroke-linejoin="round"/>
    <path d="M 305.0 335.0 C 308.3333435058594 337.1368713378906 311.6666564941406 336.4634704589844 315.0 335.0 L 305.0 335.0" stroke-width="2.0" fill="rgb(253, 240, 169)" opacity="1.0" stroke="rgb(0, 0, 0)" stroke-opacity="0.0" stroke-linecap="round" stroke-linejoin="round"/>
  </g>
</svg>
