<?xml version="1.0" ?>
<svg xmlns="http://www.w3.org/2000/svg" version="1.1" width="512" height="512">
  <defs/>
  <g>
    <path d="M 333.0525817871094 349.8436584472656 C 305.0410461425781 345.5583801269531 301.0226135253906 335.6473693847656 177.86656188964844 339.3404846191406 C 168.647705078125 304.677734375 172.17076110839844 294.004150390625 181.49354553222656 170.91738891601562 C 200.4893341064453 177.7310028076172 200.92996215820312 170.519287109375 268.9154968261719 179.1767120361328 C 316.539794921875 207.1098175048828 337.124755859375 201.9385528564453 333.0525817871094 349.8436584472656" stroke-width="0.0" fill="rgb(208, 156, 1)" opacity="0.7382089" stroke="rgb(121, 59, 132)" stroke-opacity="0.30844238" stroke-linecap="round" stroke-linejoin="round"/>
    <path d="M 141.4949493408203 271.7012634277344 C 130.10025024414062 335.06689453125 165.35687255859375 331.9130554199219 211.7474365234375 399.7389221191406 C 47.22126770019531 400.4013366699219 52.32643508911133 408.47821044921875 53.130435943603516 247.26544189453125 C 156.64627075195312 242.0106964111328 114.45165252685547 249.8491973876953 138.9722442626953 307.4140930175781 C 153.81192016601562 323.2777404785156 135.2382049560547 323.1369934082031 141.4949493408203 271.7012634277344" stroke-width="0.0" fill="rgb(248, 255, 255)" opacity="0.6031387" stroke="rgb(242, 254, 254)" stroke-opacity="0.8123324" stroke-linecap="round" stroke-linejoin="round"/>
    <path d="M 478.0791015625 60.773677825927734 C 476.5094909667969 267.4887390136719 491.7615051269531 263.5708923339844 383.7008056640625 252.52735900878906 C 373.9008483886719 169.13990783691406 375.98663330078125 160.4519805908203 360.01336669921875 173.04942321777344 C 293.0770568847656 127.0624771118164 271.3484191894531 118.50353240966797 264.9165954589844 60.95709991455078 C 453.7806091308594 60.93325424194336 457.57708740234375 61.04045486450195 478.0791015625 60.773677825927734" stroke-width="0.0" fill="rgb(242, 242, 255)" opacity="0.5636931" stroke="rgb(186, 89, 203)" stroke-opacity="0.40753222" stroke-linecap="round" stroke-linejoin="round"/>
    <path d="M 293.0 189.0 C 292.33013916015625 191.5 290.5 193.3301239013672 288.0 194.0 C 285.5 193.3301239013672 283.66986083984375 191.5 283.0 189.0 C 283.66986083984375 186.5 285.5 184.6698760986328 288.0 184.0 C 290.5 184.6698760986328 292.33013916015625 186.5 293.0 189.0" stroke-width="0.0" fill="rgb(250, 200, 50)" opacity="1.0" stroke="rgb(2, 40, 164)" stroke-opacity="0.48995277" stroke-linecap="round" stroke-linejoin="round"/>
    <path d="M 261.0 321.0 C 260.33013916015625 323.5 258.5 325.33013916015625 256.0 326.0 C 253.5 325.33013916015625 251.6698760986328 323.5 251.0 321.0 C 251.6698760986328 318.5 253.5 316.66986083984375 256.0 316.0 C 258.5 316.66986083984375 260.33013916015625 318.5 261.0 321.0" stroke-width="0.0" fill="rgb(77, 77, 77)" opacity="1.0" stroke="rgb(173, 230, 40)" stroke-opacity="0.4914751" stroke-linecap="round" stroke-linejoin="round"/>
    <path d="M 387.0 149.0 C 386.33013916015625 151.5 384.5 153.3301239013672 382.0 154.0 C 379.5 153.3301239013672 377.66986083984375 151.5 377.0 149.0 C 377.66986083984375 146.5 379.5 144.6698760986328 382.0 144.0 C 384.5 144.6698760986328 386.33013916015625 146.5 387.0 149.0" stroke-width="0.0" fill="rgb(182, 78, 207)" opacity="1.0" stroke="rgb(133, 235, 210)" stroke-opacity="0.37640232" stroke-linecap="round" stroke-linejoin="round"/>
    <path d="M 260.0 345.0 C 259.33013916015625 347.5 257.5 349.33013916015625 255.0 350.0 C 252.5 349.33013916015625 250.6698760986328 347.5 250.0 345.0 C 250.6698760986328 342.5 252.5 340.66986083984375 255.0 340.0 C 257.5 340.66986083984375 259.33013916015625 342.5 260.0 345.0" stroke-width="0.0" fill="rgb(77, 77, 77)" opacity="1.0" stroke="rgb(42, 88, 252)" stroke-opacity="0.05114604" stroke-linecap="round" stroke-linejoin="round"/>
  </g>
</svg>
