<?xml version="1.0" ?>
<svg xmlns="http://www.w3.org/2000/svg" version="1.1" width="512" height="512">
  <defs/>
  <g>
    <path d="M 321.90386962890625 317.8432312011719 C 306.0003967285156 324.35650634765625 304.0408020019531 325.5825500488281 196.12185668945312 323.8439025878906 C 182.1525115966797 303.9537658691406 184.73252868652344 298.0201110839844 191.1401824951172 192.19427490234375 C 201.65316772460938 189.93170166015625 201.5908966064453 181.9844207763672 246.1292724609375 188.3587646484375 C 304.4295654296875 214.97933959960938 323.8248596191406 213.26675415039062 321.90386962890625 317.8432312011719" stroke-width="0.0" fill="rgb(209, 174, 49)" opacity="0.30209464" stroke="rgb(121, 59, 132)" stroke-opacity="0.30844238" stroke-linecap="round" stroke-linejoin="round"/>
    <path d="M 146.0 314.0 C 145.3301239013672 316.5 143.5 318.33013916015625 141.0 319.0 C 138.5 318.33013916015625 136.6698760986328 316.5 136.0 314.0 C 136.6698760986328 311.5 138.5 309.66986083984375 141.0 309.0 C 143.5 309.66986083984375 145.3301239013672 311.5 146.0 314.0" stroke-width="0.0" fill="rgb(247, 248, 248)" opacity="1.0" stroke="rgb(242, 254, 254)" stroke-opacity="0.8123324" stroke-linecap="round" stroke-linejoin="round"/>
    <path d="M 383.0 164.0 C 382.33013916015625 166.5 380.5 168.3301239013672 378.0 169.0 C 375.5 168.3301239013672 373.66986083984375 166.5 373.0 164.0 C 373.66986083984375 161.5 375.5 159.6698760986328 378.0 159.0 C 380.5 159.6698760986328 382.33013916015625 161.5 383.0 164.0" stroke-width="0.0" fill="rgb(182, 78, 207)" opacity="1.0" stroke="rgb(186, 89, 203)" stroke-opacity="0.40753222" stroke-linecap="round" stroke-linejoin="round"/>
  </g>
</svg>
