<?xml version="1.0" ?>
<svg xmlns="http://www.w3.org/2000/svg" version="1.1" width="512" height="341">
  <defs/>
  <g>
    <path d="M -10.0 -10.0 C -9.0 -10.0 512.0 0.0 513.0 0.0 C 514.0 0.0 512.0 341.0 513.0 341.0 C 513.0 342.0 0.0 341.0 0.0 342.0 C 0.0 341.0 0.0 342.0 -10.0 -10.0 L -10.0 -10.0" stroke-width="2.0" fill="rgb(86, 134, 128)" opacity="0.9999455"/>
    <path d="M 264.2490539550781 81.81472778320312 C 206.582763671875 46.938087463378906 206.45901489257812 91.50275421142578 134.3015899658203 94.74754333496094 C 106.75112915039062 114.36241912841797 130.19244384765625 89.66632080078125 82.30817413330078 82.69497680664062 C 86.09622192382812 21.702062606811523 144.65928649902344 58.807823181152344 179.62754821777344 42.21564865112305 C 174.02685546875 1.8218361139297485 216.6743621826172 12.802428245544434 280.918701171875 9.039175033569336 L 264.2490539550781 81.81472778320312" stroke-width="2.0" fill="rgb(255, 231, 158)" opacity="1.0"/>
    <path d="M 152.50148010253906 424.42633056640625 C 149.47239685058594 436.7158203125 141.07904052734375 446.1899719238281 129.2442626953125 450.6783142089844 C 116.67924499511719 449.1526184082031 106.26248931884766 441.96246337890625 100.38034057617188 430.7549743652344 C 100.3803482055664 418.09765625 106.26248931884766 406.89019775390625 116.67923736572266 399.70001220703125 C 129.2442626953125 398.1743469238281 141.0790557861328 402.6626892089844 149.47239685058594 412.1368103027344 L 152.50148010253906 424.42633056640625" stroke-width="2.0" fill="rgb(113, 167, 169)" opacity="1.0"/>
    <path d="M 180.4683837890625 242.92884826660156 C 138.54010009765625 275.2707824707031 118.43318176269531 254.25210571289062 111.5149154663086 265.2752685546875 C 63.563018798828125 260.267578125 37.83806610107422 257.2921447753906 42.44765090942383 250.22610473632812 C 55.16971206665039 242.98611450195312 87.77146911621094 244.1494903564453 91.59871673583984 237.108154296875 C 70.4284439086914 244.4806365966797 76.0317153930664 243.58241271972656 89.90687561035156 237.3835906982422 L 180.4683837890625 242.92884826660156" stroke-width="2.0" fill="rgb(68, 113, 72)" opacity="0.900119"/>
    <path d="M 229.91856384277344 279.9233703613281 C 177.3612060546875 192.22459411621094 249.14605712890625 191.3384552001953 103.73905944824219 192.15476989746094 C 78.2260971069336 191.97608947753906 51.74931716918945 192.02093505859375 -15.345261573791504 191.96945190429688 C -1.2266390323638916 39.82380294799805 13.591828346252441 142.91549682617188 46.580787658691406 117.01197814941406 C 191.1729736328125 170.374267578125 47.021644592285156 148.32611083984375 190.2565155029297 143.57711791992188 L 229.91856384277344 279.9233703613281" stroke-width="2.0" fill="rgb(42, 78, 72)" opacity="0.93109703"/>
    <path d="M 447.9368896484375 236.96109008789062 C 206.17469787597656 242.0653839111328 230.1425018310547 243.523193359375 379.4912109375 251.15426635742188 C 304.4211730957031 253.44332885742188 262.13726806640625 251.1941375732422 270.9197692871094 249.7177276611328 C 268.5425720214844 236.64463806152344 232.64161682128906 216.1623992919922 266.183349609375 201.081298828125 C 360.2511291503906 198.43247985839844 324.352783203125 194.51034545898438 346.5159606933594 219.3676300048828 L 447.9368896484375 236.96109008789062" stroke-width="2.0" fill="rgb(38, 63, 68)" opacity="0.9258245"/>
    <path d="M 228.4344024658203 207.22732543945312 C 225.00448608398438 194.0387420654297 222.83364868164062 194.5313720703125 222.57432556152344 195.39334106445312 C 222.73123168945312 192.10894775390625 226.08953857421875 190.53570556640625 227.20755004882812 189.44297790527344 C 221.00181579589844 192.6399688720703 224.36585998535156 196.6492156982422 226.4931182861328 200.0500946044922 C 222.97384643554688 186.92587280273438 222.3716583251953 193.72691345214844 240.04525756835938 191.65103149414062 L 228.4344024658203 207.22732543945312" stroke-width="2.0" fill="rgb(106, 182, 235)" opacity="0.8988099"/>
    <path d="M 232.41876220703125 423.6291809082031 C 231.3431854248047 427.992919921875 228.36288452148438 431.3569641113281 224.16061401367188 432.95068359375 C 219.69903564453125 432.4089660644531 216.00025939941406 429.85589599609375 213.91163635253906 425.8763427734375 C 213.91163635253906 421.3819885253906 216.00027465820312 417.4024658203125 219.69903564453125 414.8493957519531 C 224.16061401367188 414.3076477050781 228.36289978027344 415.9013671875 231.3431854248047 419.2654113769531 L 232.41876220703125 423.6291809082031" stroke-width="2.0" fill="rgb(29, 41, 61)" opacity="1.0"/>
    <path d="M 123.31419372558594 380.1976318359375 C 122.24837493896484 384.5218200683594 119.29509735107422 387.8553771972656 115.13091278076172 389.4346618652344 C 110.70979309082031 388.8978271484375 107.0445556640625 386.367919921875 104.97486877441406 382.4244384765625 C 104.97486877441406 377.9708557128906 107.0445556640625 374.0273742675781 110.70979309082031 371.4974670410156 C 115.13091278076172 370.96063232421875 119.29509735107422 372.5399169921875 122.24837493896484 375.87347412109375 L 123.31419372558594 380.1976318359375" stroke-width="2.0" fill="rgb(71, 118, 77)" opacity="1.0"/>
    <path d="M 265.6756591796875 385.7145080566406 C 264.72149658203125 389.5857238769531 262.07757568359375 392.570068359375 258.349609375 393.9839172363281 C 254.39158630371094 393.5033264160156 251.11029052734375 391.2384033203125 249.2574005126953 387.7080383300781 C 249.2574005126953 383.720947265625 251.11029052734375 380.1905822753906 254.39158630371094 377.9256591796875 C 258.349609375 377.445068359375 262.07757568359375 378.8589172363281 264.72149658203125 381.8432922363281 L 265.6756591796875 385.7145080566406" stroke-width="2.0" fill="rgb(106, 150, 97)" opacity="1.0"/>
    <path d="M 271.4714660644531 346.03594970703125 C 272.882568359375 344.17919921875 269.70635986328125 347.4644470214844 268.037353515625 350.2165222167969 C 274.2705078125 349.1572570800781 273.1922302246094 344.8506164550781 265.7936706542969 348.4933166503906 C 270.7099609375 347.0723876953125 272.12322998046875 342.2430725097656 272.7580261230469 346.28173828125 C 261.0189208984375 344.238525390625 263.1180419921875 343.3489074707031 263.947998046875 345.4054260253906 L 271.4714660644531 346.03594970703125" stroke-width="2.0" fill="rgb(56, 73, 100)" opacity="0.87570006"/>
    <path d="M 376.1392822265625 331.59698486328125 C 337.5879211425781 331.73504638671875 326.05908203125 330.0258483886719 318.577392578125 331.6064147949219 C 318.48046875 333.76708984375 301.5789489746094 332.740966796875 304.4822692871094 332.989990234375 C 303.23309326171875 315.4156799316406 304.8302917480469 318.4084167480469 303.3868408203125 317.5099792480469 C 322.6767578125 318.2932434082031 328.37249755859375 315.4879150390625 379.0230712890625 318.54339599609375 L 376.1392822265625 331.59698486328125" stroke-width="2.0" fill="rgb(84, 133, 173)" opacity="0.8456576"/>
    <path d="M 45.65373611450195 60.27138137817383 C -16.834138870239258 103.85550689697266 34.56605529785156 60.36670684814453 54.58916091918945 65.52730560302734 C 196.0481719970703 128.42250061035156 91.88345336914062 129.51597595214844 84.42578125 131.74412536621094 C 105.09468078613281 130.2052001953125 101.03457641601562 125.35224151611328 116.1313247680664 135.19561767578125 C 25.21282196044922 142.6033172607422 135.62879943847656 128.8498077392578 -16.324871063232422 106.5448989868164 L 45.65373611450195 60.27138137817383" stroke-width="2.0" fill="rgb(122, 179, 183)" opacity="0.7409063"/>
    <path d="M 396.57757568359375 207.94630432128906 C 356.727783203125 122.82669067382812 406.8119812011719 163.55999755859375 342.05010986328125 211.97592163085938 C 340.2896728515625 207.08340454101562 326.5460510253906 203.3004608154297 279.7056884765625 181.83241271972656 C 284.07830810546875 211.52685546875 274.2431640625 124.00009155273438 289.1282958984375 108.24568939208984 C 317.6404724121094 71.8835678100586 396.60382080078125 74.91578674316406 396.74505615234375 133.85781860351562 L 396.57757568359375 207.94630432128906" stroke-width="2.0" fill="rgb(246, 233, 198)" opacity="0.961632"/>
    <path d="M 287.6293640136719 143.50210571289062 C 313.4681701660156 146.2632598876953 303.9682922363281 133.11477661132812 303.25592041015625 183.8821563720703 C 291.8679504394531 135.11468505859375 323.1278991699219 152.74783325195312 252.3002471923828 145.7394561767578 C 262.5430908203125 148.57933044433594 285.4185485839844 134.37974548339844 281.6016845703125 139.020263671875 C 279.9480895996094 134.08010864257812 282.2560729980469 151.0933074951172 275.3409729003906 143.0529022216797 L 287.6293640136719 143.50210571289062" stroke-width="2.0" fill="rgb(146, 15, 0)" opacity="0.5796364"/>
    <path d="M 217.15611267089844 266.50372314453125 C 215.88784790039062 250.10586547851562 230.18206787109375 244.41346740722656 226.49781799316406 251.78123474121094 C 224.07191467285156 259.96136474609375 210.2685089111328 264.04681396484375 241.5652618408203 257.1861572265625 C 302.68841552734375 250.67662048339844 262.17889404296875 254.43997192382812 233.0492401123047 247.5646209716797 C 227.70843505859375 249.46656799316406 226.17214965820312 247.70086669921875 227.41952514648438 251.00926208496094 L 217.15611267089844 266.50372314453125" stroke-width="2.0" fill="rgb(158, 237, 107)" opacity="1.0"/>
    <path d="M 274.1134033203125 11.228570938110352 C 324.94635009765625 435.8338317871094 415.47900390625 -39.47529983520508 394.90948486328125 230.85598754882812 C 271.6786193847656 196.26612854003906 171.6384735107422 138.72767639160156 299.3805236816406 148.2075653076172 C 295.2557067871094 127.80432891845703 262.972900390625 40.44314193725586 329.9223937988281 88.53113555908203 C 282.4305725097656 40.1082878112793 416.0031433105469 5.214595794677734 342.15277099609375 115.61537170410156 L 274.1134033203125 11.228570938110352" stroke-width="2.0" fill="rgb(231, 121, 86)" opacity="0.7780198"/>
    <path d="M 209.49803161621094 345.5639343261719 C 208.9534912109375 347.7732238769531 207.4446258544922 349.47637939453125 205.31710815429688 350.2832336425781 C 203.05831909179688 350.00897216796875 201.18569946289062 348.7164001464844 200.12828063964844 346.7016296386719 C 200.12828063964844 344.4262390136719 201.18569946289062 342.4114990234375 203.05831909179688 341.1189270019531 C 205.31710815429688 340.84466552734375 207.44464111328125 341.6515197753906 208.9534912109375 343.35467529296875 L 209.49803161621094 345.5639343261719" stroke-width="2.0" fill="rgb(29, 41, 61)" opacity="1.0"/>
    <path d="M 188.9833526611328 330.108154296875 C 189.1954803466797 316.8972473144531 177.7821044921875 318.54351806640625 183.29205322265625 330.1700134277344 C 189.2836151123047 320.03802490234375 182.05307006835938 314.01690673828125 191.04641723632812 321.02691650390625 C 186.6641845703125 330.8105163574219 191.85890197753906 329.9298400878906 194.9871826171875 322.9941711425781 C 173.70437622070312 324.8064880371094 173.8505401611328 324.9269714355469 180.66986083984375 318.8556823730469 L 188.9833526611328 330.108154296875" stroke-width="2.0" fill="rgb(64, 106, 142)" opacity="0.8773115"/>
    <path d="M 261.0724182128906 445.8529052734375 C 260.5635681152344 447.91741943359375 259.1535949707031 449.5089416503906 257.16546630859375 450.262939453125 C 255.0546875 450.00665283203125 253.30479431152344 448.79876708984375 252.316650390625 446.9160461425781 C 252.316650390625 444.7897644042969 253.30479431152344 442.9070129394531 255.0546875 441.69915771484375 C 257.16546630859375 441.44287109375 259.1535949707031 442.19683837890625 260.5635681152344 443.78839111328125 L 261.0724182128906 445.8529052734375" stroke-width="2.0" fill="rgb(45, 82, 76)" opacity="1.0"/>
    <path d="M 274.9378356933594 314.84112548828125 C 171.5078582763672 316.50982666015625 165.4712677001953 317.8092956542969 174.8132781982422 318.16595458984375 C 171.6177215576172 313.3133850097656 154.84603881835938 325.5882568359375 151.63165283203125 322.20489501953125 C 117.09671020507812 331.2767333984375 -4.8610663414001465 353.8762512207031 54.030906677246094 260.48291015625 C 192.4183807373047 271.1079406738281 220.98883056640625 267.842041015625 262.07159423828125 268.24066162109375 L 274.9378356933594 314.84112548828125" stroke-width="2.0" fill="rgb(85, 135, 180)" opacity="0.72169274"/>
    <path d="M 198.59278869628906 261.9129333496094 C 197.66836547851562 266.7879333496094 199.02218627929688 266.7984313964844 207.58444213867188 265.6488342285156 C 202.07852172851562 266.8392028808594 197.0201873779297 268.8959045410156 198.49691772460938 262.7042541503906 C 199.1981201171875 262.833740234375 198.71734619140625 258.3553466796875 198.8799591064453 262.0929870605469 C 192.37046813964844 263.9903259277344 198.20155334472656 262.45098876953125 200.95272827148438 261.09918212890625 L 198.59278869628906 261.9129333496094" stroke-width="2.0" fill="rgb(179, 98, 32)" opacity="0.77649707"/>
    <path d="M 231.3754425048828 466.96490478515625 C 230.92308044433594 468.80023193359375 229.6696014404297 470.2151184082031 227.90216064453125 470.88543701171875 C 226.02566528320312 470.6575927734375 224.47000122070312 469.58380126953125 223.591552734375 467.9100341796875 C 223.591552734375 466.019775390625 224.4700164794922 464.34600830078125 226.02566528320312 463.272216796875 C 227.90216064453125 463.04437255859375 229.6696014404297 463.71466064453125 230.92308044433594 465.1295471191406 L 231.3754425048828 466.96490478515625" stroke-width="2.0" fill="rgb(71, 118, 77)" opacity="1.0"/>
    <path d="M 269.45025634765625 254.1875 C 286.4708557128906 247.3174591064453 275.80023193359375 257.8504943847656 326.7391052246094 254.30694580078125 C 283.36846923828125 257.9181213378906 286.11614990234375 265.927978515625 228.16087341308594 269.08038330078125 C 273.05206298828125 267.5124206542969 329.4787902832031 272.4615783691406 360.7672424316406 263.7157897949219 C 322.1948547363281 230.94224548339844 273.0831604003906 283.7729187011719 222.6593780517578 259.6081237792969 L 269.45025634765625 254.1875" stroke-width="2.0" fill="rgb(95, 158, 129)" opacity="0.74495625"/>
    <path d="M 225.95423889160156 124.20140838623047 C 226.91029357910156 120.07015228271484 224.7040252685547 121.63814544677734 224.99093627929688 120.46543884277344 C 229.37335205078125 125.84568786621094 228.58995056152344 122.88231658935547 224.7266387939453 126.26383209228516 C 224.3097381591797 126.59952545166016 227.27552795410156 124.12931823730469 227.0447235107422 125.01615905761719 C 226.0058135986328 124.32274627685547 230.4323272705078 124.55006408691406 226.1773681640625 122.38726806640625 L 225.95423889160156 124.20140838623047" stroke-width="2.0" fill="rgb(196, 192, 156)" opacity="0.8479172"/>
    <path d="M 229.3343048095703 342.33770751953125 C 228.8812255859375 341.8253173828125 232.53375244140625 343.8271179199219 220.65966796875 343.6562194824219 C 234.02880859375 344.5792541503906 236.0000762939453 339.3794860839844 225.8582305908203 342.8806457519531 C 226.948486328125 339.9874572753906 231.68807983398438 343.2037048339844 252.38104248046875 346.27166748046875 C 236.03330993652344 345.2557678222656 233.4895782470703 347.4225158691406 230.30752563476562 344.8202209472656 L 229.3343048095703 342.33770751953125" stroke-width="2.0" fill="rgb(28, 57, 115)" opacity="0.8245482"/>
    <path d="M 110.16065979003906 369.23077392578125 C 109.83113861083984 370.56768798828125 108.91806030273438 371.59832763671875 107.63060760498047 372.08660888671875 C 106.26371002197266 371.9206237792969 105.13052368164062 371.1384582519531 104.49063110351562 369.91925048828125 C 104.49063110351562 368.54229736328125 105.13052368164062 367.3230895996094 106.26371002197266 366.5408935546875 C 107.63060760498047 366.37493896484375 108.91806030273438 366.8631896972656 109.83113861083984 367.89385986328125 L 110.16065979003906 369.23077392578125" stroke-width="2.0" fill="rgb(106, 150, 97)" opacity="1.0"/>
    <path d="M 226.04989624023438 55.02678680419922 C 224.28497314453125 53.34524917602539 223.0026397705078 53.34442901611328 227.3892059326172 55.03929901123047 C 225.65933227539062 56.19428253173828 223.234619140625 55.49953842163086 227.15281677246094 55.424930572509766 C 227.2602081298828 51.14574432373047 227.4421844482422 51.641780853271484 221.2446746826172 53.823768615722656 C 229.18374633789062 53.098812103271484 226.9617156982422 54.97959899902344 226.16114807128906 52.44609832763672 L 226.04989624023438 55.02678680419922" stroke-width="2.0" fill="rgb(75, 90, 111)" opacity="0.8226619"/>
    <path d="M 274.4679260253906 372.6469421386719 C 274.1579895019531 373.9043884277344 273.2992248535156 374.8737487792969 272.08831787109375 375.3329772949219 C 270.8027038574219 375.1768798828125 269.73687744140625 374.4411926269531 269.1350402832031 373.29449462890625 C 269.1350402832031 371.9994201660156 269.73687744140625 370.8526916503906 270.8027038574219 370.1170349121094 C 272.08831787109375 369.9609375 273.2992248535156 370.420166015625 274.1579895019531 371.3895263671875 L 274.4679260253906 372.6469421386719" stroke-width="2.0" fill="rgb(45, 82, 76)" opacity="1.0"/>
    <path d="M 191.921630859375 361.3257141113281 C 191.62548828125 362.5272216796875 190.8048858642578 363.4534912109375 189.6478271484375 363.8923034667969 C 188.41937255859375 363.7431335449219 187.4009552001953 363.0401916503906 186.8258819580078 361.9444580078125 C 186.8258819580078 360.70697021484375 187.4009552001953 359.6112365722656 188.41937255859375 358.9082946777344 C 189.6478271484375 358.7591247558594 190.8048858642578 359.19793701171875 191.62548828125 360.12420654296875 L 191.921630859375 361.3257141113281" stroke-width="2.0" fill="rgb(10, 14, 23)" opacity="1.0"/>
    <path d="M 128.7554473876953 360.8381042480469 C 128.45928955078125 362.03961181640625 127.6386947631836 362.96588134765625 126.48164367675781 363.4046936035156 C 125.25318908691406 363.2555236816406 124.23477172851562 362.55255126953125 123.65968322753906 361.4568176269531 C 123.65968322753906 360.2193603515625 124.23477172851562 359.1236267089844 125.25318908691406 358.420654296875 C 126.48164367675781 358.2715148925781 127.63870239257812 358.7103271484375 128.45928955078125 359.6365661621094 L 128.7554473876953 360.8381042480469" stroke-width="2.0" fill="rgb(253, 243, 205)" opacity="1.0"/>
    <path d="M 182.91213989257812 372.2239990234375 C 182.6231231689453 373.39654541015625 181.82229614257812 374.3005065917969 180.69313049316406 374.7287292480469 C 179.49427795410156 374.5831604003906 178.5004119873047 373.89715576171875 177.93917846679688 372.82781982421875 C 177.93917846679688 371.62017822265625 178.5004119873047 370.55084228515625 179.49427795410156 369.8648376464844 C 180.69313049316406 369.7192687988281 181.82229614257812 370.1474914550781 182.6231231689453 371.05145263671875 L 182.91213989257812 372.2239990234375" stroke-width="2.0" fill="rgb(45, 82, 76)" opacity="1.0"/>
    <path d="M 244.97634887695312 83.80289459228516 C 224.44375610351562 60.35071563720703 220.4436492919922 52.0805778503418 201.37962341308594 67.3828353881836 C 254.4719696044922 50.00846481323242 277.469970703125 20.540037155151367 236.21572875976562 12.630855560302734 C 207.43626403808594 49.037052154541016 274.0880126953125 90.80313110351562 371.78680419921875 -5.947910785675049 C 171.78749084472656 -17.361644744873047 210.30938720703125 58.12185287475586 223.92684936523438 101.65315246582031 L 244.97634887695312 83.80289459228516" stroke-width="2.0" fill="rgb(204, 255, 246)" opacity="0.5380862"/>
    <path d="M 174.26736450195312 76.67512512207031 C 90.50548553466797 132.19601440429688 176.10382080078125 116.03114318847656 56.622032165527344 66.31233215332031 C 1.7946996688842773 69.20146942138672 108.49579620361328 63.229148864746094 54.28044128417969 66.10552215576172 C 5.144259929656982 60.07850646972656 -8.425287246704102 163.06411743164062 -17.650474548339844 -1.6809710264205933 C 156.54269409179688 -14.108404159545898 162.38922119140625 -12.363697052001953 172.220947265625 -10.09858226776123 L 174.26736450195312 76.67512512207031" stroke-width="2.0" fill="rgb(220, 255, 252)" opacity="0.5039726"/>
    <path d="M 198.33175659179688 488.9599914550781 C 198.07325744628906 490.0087585449219 197.3569793701172 490.8172607421875 196.34701538085938 491.2003173828125 C 195.27474975585938 491.0700988769531 194.3857879638672 490.4565124511719 193.88381958007812 489.5000915527344 C 193.88381958007812 488.419921875 194.3857879638672 487.4635009765625 195.27474975585938 486.8498840332031 C 196.34701538085938 486.7196960449219 197.3569793701172 487.10272216796875 198.07325744628906 487.9112243652344 L 198.33175659179688 488.9599914550781" stroke-width="2.0" fill="rgb(71, 118, 77)" opacity="1.0"/>
    <path d="M 148.0342559814453 349.44000244140625 C 147.7757568359375 350.48876953125 147.05947875976562 351.2972717285156 146.0495147705078 351.6802978515625 C 144.9772491455078 351.55010986328125 144.08828735351562 350.9364929199219 143.58631896972656 349.9800720214844 C 143.58631896972656 348.8999328613281 144.08828735351562 347.9434814453125 144.9772491455078 347.32989501953125 C 146.0495147705078 347.19970703125 147.05947875976562 347.5827331542969 147.7757568359375 348.3912353515625 L 148.0342559814453 349.44000244140625" stroke-width="2.0" fill="rgb(45, 82, 76)" opacity="1.0"/>
    <path d="M 260.2967224121094 489.6914367675781 C 260.0549011230469 490.6724548339844 259.3848876953125 491.4287414550781 258.4401550292969 491.78704833984375 C 257.4371337890625 491.6652526855469 256.6055908203125 491.0912780761719 256.13604736328125 490.1966247558594 C 256.13604736328125 489.18621826171875 256.6055908203125 488.29156494140625 257.4371337890625 487.71759033203125 C 258.4401550292969 487.5958251953125 259.3848876953125 487.9541015625 260.0549011230469 488.71038818359375 L 260.2967224121094 489.6914367675781" stroke-width="2.0" fill="rgb(71, 118, 77)" opacity="1.0"/>
    <path d="M 235.85000610351562 289.6142272949219 C 234.143798828125 279.6884460449219 238.7607879638672 299.4331970214844 238.58804321289062 303.3370666503906 C 226.28443908691406 296.0208740234375 231.05978393554688 285.7148132324219 227.59783935546875 300.47186279296875 C 234.4468536376953 271.6549072265625 220.58580017089844 328.14105224609375 207.56300354003906 316.99822998046875 C 235.61009216308594 284.78070068359375 200.14328002929688 262.9107360839844 233.80227661132812 263.6523132324219 L 235.85000610351562 289.6142272949219" stroke-width="2.0" fill="rgb(68, 114, 56)" opacity="0.80718374"/>
    <path d="M 585.7311401367188 218.47532653808594 C 410.63037109375 621.6112670898438 186.49044799804688 369.651611328125 162.1787109375 353.1186218261719 C 151.13186645507812 353.3524475097656 105.989501953125 367.91888427734375 -19.92496109008789 336.21856689453125 C 9.316099166870117 153.26644897460938 17.226058959960938 264.5197448730469 66.0710678100586 259.75128173828125 C 143.67788696289062 291.1966247558594 155.33709716796875 306.11431884765625 315.4945373535156 336.5107116699219 L 585.7311401367188 218.47532653808594" stroke-width="2.0" fill="rgb(87, 137, 166)" opacity="0.9092669"/>
    <path d="M 188.21340942382812 258.2390441894531 C 314.29498291015625 221.3037872314453 341.1604919433594 257.4672546386719 278.0424499511719 254.60455322265625 C 200.21682739257812 257.37652587890625 222.68511962890625 265.4679260253906 220.65921020507812 295.8454284667969 C 221.22647094726562 284.51318359375 219.9025115966797 281.69744873046875 220.00485229492188 280.51593017578125 C 221.81619262695312 285.7174072265625 216.5985565185547 272.634033203125 221.5030975341797 260.876220703125 L 188.21340942382812 258.2390441894531" stroke-width="2.0" fill="rgb(2, 59, 100)" opacity="0.72122544"/>
    <path d="M 375.2572937011719 188.46495056152344 C 367.28485107421875 221.36856079101562 358.4706115722656 188.69903564453125 342.706298828125 204.12637329101562 C 311.5445251464844 183.79217529296875 320.0869140625 191.63848876953125 311.1911926269531 174.40589904785156 C 320.51922607421875 197.7710723876953 320.64404296875 182.88587951660156 318.3997497558594 188.74969482421875 C 341.235595703125 185.28587341308594 394.2761535644531 174.95156860351562 318.3118896484375 188.7287139892578 L 375.2572937011719 188.46495056152344" stroke-width="2.0" fill="rgb(22, 30, 44)" opacity="1.0"/>
    <path d="M 230.0604248046875 42.663726806640625 C 232.29051208496094 -3.0107407569885254 238.11703491210938 32.950347900390625 240.29531860351562 92.9620132446289 C 123.80548095703125 68.38410186767578 129.19627380371094 71.08137512207031 114.31132507324219 -9.8346586227417 C 149.57244873046875 -18.801790237426758 155.4001007080078 -14.183133125305176 160.98223876953125 -10.68425464630127 C 213.24388122558594 -12.2003173828125 222.2382049560547 -17.954416275024414 265.7276916503906 -8.996809005737305 L 230.0604248046875 42.663726806640625" stroke-width="2.0" fill="rgb(151, 201, 192)" opacity="0.9565058"/>
    <path d="M 201.6713409423828 237.60394287109375 C 199.5884246826172 218.85887145996094 208.9429168701172 224.83584594726562 189.01983642578125 236.97552490234375 C 199.25088500976562 226.02236938476562 200.72300720214844 248.90130615234375 202.66165161132812 227.4609375 C 201.5773162841797 240.529052734375 201.6949920654297 252.0166473388672 190.8754119873047 254.5673370361328 C 188.4608917236328 253.9535675048828 172.27108764648438 254.41526794433594 179.7928009033203 224.8511505126953 L 201.6713409423828 237.60394287109375" stroke-width="2.0" fill="rgb(245, 243, 207)" opacity="0.9606598"/>
    <path d="M 203.33221435546875 293.9147644042969 C 202.51837158203125 295.6385803222656 201.2541046142578 295.3863220214844 203.34017944335938 293.55950927734375 C 206.87330627441406 295.5361633300781 207.48626708984375 294.54583740234375 208.8872528076172 293.2225646972656 C 207.14523315429688 295.75970458984375 201.71701049804688 296.5851135253906 199.2395782470703 296.4335632324219 C 201.74163818359375 287.828369140625 202.1829833984375 295.9151916503906 204.67027282714844 303.0307312011719 L 203.33221435546875 293.9147644042969" stroke-width="2.0" fill="rgb(92, 137, 133)" opacity="0.7631558"/>
    <path d="M 245.6441192626953 139.59251403808594 C 243.4510955810547 142.2172393798828 244.3479461669922 143.824462890625 243.4001007080078 139.06138610839844 C 244.2591094970703 143.0171356201172 243.99476623535156 144.51878356933594 241.8923797607422 146.64515686035156 C 243.37600708007812 144.96481323242188 244.94512939453125 142.3697509765625 243.18466186523438 144.68634033203125 C 245.90640258789062 142.4535675048828 244.3131561279297 142.6512908935547 242.93548583984375 143.29074096679688 L 245.6441192626953 139.59251403808594" stroke-width="2.0" fill="rgb(155, 141, 123)" opacity="0.8501232"/>
    <path d="M 174.05203247070312 315.1181945800781 C 135.3679962158203 315.3263244628906 136.29254150390625 323.3123474121094 142.0618133544922 317.7312316894531 C 133.16229248046875 319.0938720703125 127.37520599365234 315.75555419921875 129.85394287109375 322.25958251953125 C 151.197265625 318.864013671875 153.09275817871094 323.4134826660156 135.95875549316406 322.5074157714844 C 138.37384033203125 318.9178466796875 134.95530700683594 322.8957214355469 118.1459732055664 322.8927917480469 L 174.05203247070312 315.1181945800781" stroke-width="2.0" fill="rgb(100, 140, 177)" opacity="0.825711"/>
    <path d="M 166.481201171875 360.7272644042969 C 166.26687622070312 361.59686279296875 165.67295837402344 362.2672424316406 164.83555603027344 362.5848388671875 C 163.9464569091797 362.47686767578125 163.20938110351562 361.9681091308594 162.7931671142578 361.1750793457031 C 162.7931671142578 360.2794494628906 163.20938110351562 359.4864196777344 163.9464569091797 358.9776611328125 C 164.83555603027344 358.8697204589844 165.6729736328125 359.1872863769531 166.26687622070312 359.857666015625 L 166.481201171875 360.7272644042969" stroke-width="2.0" fill="rgb(106, 150, 97)" opacity="1.0"/>
    <path d="M 75.09912109375 435.20001220703125 C 74.89476013183594 436.02911376953125 74.32849884033203 436.6683044433594 73.5300521850586 436.97113037109375 C 72.68234252929688 436.8681945800781 71.97956085205078 436.3830871582031 71.58271789550781 435.6269836425781 C 71.58271789550781 434.7730407714844 71.97956085205078 434.01690673828125 72.68234252929688 433.5318298339844 C 73.5300521850586 433.42889404296875 74.32849884033203 433.731689453125 74.89476013183594 434.3708801269531 L 75.09912109375 435.20001220703125" stroke-width="2.0" fill="rgb(149, 200, 191)" opacity="1.0"/>
    <path d="M 296.8470153808594 413.58221435546875 C 296.65313720703125 414.3688049316406 296.1159362792969 414.9751892089844 295.35845947265625 415.262451171875 C 294.55426025390625 415.164794921875 293.8875427246094 414.70458984375 293.51104736328125 413.9872741699219 C 293.51104736328125 413.1771545410156 293.8875427246094 412.4598388671875 294.55426025390625 411.9996337890625 C 295.35845947265625 411.9020080566406 296.1159362792969 412.18927001953125 296.65313720703125 412.795654296875 L 296.8470153808594 413.58221435546875" stroke-width="2.0" fill="rgb(71, 118, 77)" opacity="1.0"/>
    <path d="M 101.76993560791016 318.2622985839844 C 6.6022820472717285 317.0079040527344 136.89633178710938 312.3973083496094 392.6781311035156 315.2628479003906 C 375.5734558105469 325.2851257324219 259.59228515625 307.1296081542969 39.26184844970703 334.2590637207031 C 399.7624206542969 337.1010437011719 516.6849365234375 333.25860595703125 353.0746765136719 330.77484130859375 C 219.14501953125 331.1979675292969 228.20362854003906 332.81378173828125 224.9750213623047 319.7541809082031 L 101.76993560791016 318.2622985839844" stroke-width="2.0" fill="rgb(114, 168, 169)" opacity="1.0"/>
    <path d="M 321.50445556640625 299.393310546875 C 277.3385925292969 312.74285888671875 283.1267395019531 311.1470947265625 296.3192443847656 306.4944152832031 C 272.1910400390625 305.29693603515625 263.1387634277344 310.16741943359375 253.20408630371094 295.5268859863281 C 249.20370483398438 289.5650329589844 250.22579956054688 276.6065979003906 264.029052734375 268.4656677246094 C 323.9895324707031 267.90570068359375 372.8699951171875 268.8480529785156 321.67681884765625 269.31903076171875 L 321.50445556640625 299.393310546875" stroke-width="2.0" fill="rgb(50, 64, 81)" opacity="0.8970185"/>
    <path d="M 237.73826599121094 461.44000244140625 C 237.55548095703125 462.18157958984375 237.0489959716797 462.7532958984375 236.33485412597656 463.0241394042969 C 235.57662963867188 462.93206787109375 234.9480438232422 462.4981994628906 234.5930938720703 461.8218994140625 C 234.5930938720703 461.05810546875 234.9480438232422 460.3818054199219 235.57662963867188 459.94793701171875 C 236.33485412597656 459.8558654785156 237.0489959716797 460.126708984375 237.55548095703125 460.6983947753906 L 237.73826599121094 461.44000244140625" stroke-width="2.0" fill="rgb(29, 41, 61)" opacity="1.0"/>
    <path d="M 248.82077026367188 396.1600036621094 C 248.6379852294922 396.9015808105469 248.13150024414062 397.4732971191406 247.41734313964844 397.744140625 C 246.6591339111328 397.6520690917969 246.03054809570312 397.21820068359375 245.67559814453125 396.5419006347656 C 245.67559814453125 395.7781066894531 246.03054809570312 395.101806640625 246.6591339111328 394.6679382324219 C 247.41734313964844 394.57586669921875 248.13150024414062 394.8467102050781 248.6379852294922 395.41839599609375 L 248.82077026367188 396.1600036621094" stroke-width="2.0" fill="rgb(71, 118, 77)" opacity="1.0"/>
    <path d="M 102.19076538085938 399.3599853515625 C 102.00798034667969 400.1015930175781 101.50150299072266 400.67327880859375 100.78734588623047 400.9441223144531 C 100.02912902832031 400.8520812988281 99.40055084228516 400.4181823730469 99.04560089111328 399.74188232421875 C 99.04560089111328 398.9781188964844 99.40055084228516 398.30181884765625 100.02912902832031 397.867919921875 C 100.78734588623047 397.77587890625 101.50150299072266 398.0467224121094 102.00798034667969 398.618408203125 L 102.19076538085938 399.3599853515625" stroke-width="2.0" fill="rgb(45, 82, 76)" opacity="1.0"/>
    <path d="M 229.71981811523438 133.98101806640625 C 230.46304321289062 127.84856414794922 231.49041748046875 127.01052856445312 228.95343017578125 135.54092407226562 C 232.3210906982422 132.23716735839844 232.14430236816406 130.681884765625 228.4762725830078 137.85340881347656 C 231.9865264892578 134.19619750976562 231.4397430419922 130.50685119628906 233.3983154296875 133.7756805419922 C 229.92221069335938 133.69277954101562 230.94833374023438 133.29444885253906 233.4743194580078 130.809326171875 L 229.71981811523438 133.98101806640625" stroke-width="2.0" fill="rgb(117, 178, 176)" opacity="0.81275463"/>
    <path d="M 222.6555633544922 367.9085693359375 C 222.48458862304688 368.6022644042969 222.01080322265625 369.1370544433594 221.34278869628906 369.390380859375 C 220.63352966308594 369.30426025390625 220.04554748535156 368.8984069824219 219.71353149414062 368.26580810546875 C 219.71353149414062 367.55133056640625 220.04554748535156 366.9187316894531 220.63352966308594 366.51287841796875 C 221.34278869628906 366.4267578125 222.01080322265625 366.6800842285156 222.48458862304688 367.2148742675781 L 222.6555633544922 367.9085693359375" stroke-width="2.0" fill="rgb(195, 105, 78)" opacity="1.0"/>
    <path d="M 207.90733337402344 311.46124267578125 C 204.2622528076172 309.55230712890625 204.4918670654297 307.92022705078125 198.440185546875 310.1159362792969 C 208.77093505859375 312.8469543457031 209.68869018554688 312.2596130371094 207.78530883789062 308.4427185058594 C 207.16607666015625 313.5668029785156 210.55137634277344 314.6925964355469 201.8180694580078 313.92840576171875 C 204.856689453125 308.9712829589844 205.5377655029297 309.19976806640625 208.50672912597656 312.28887939453125 L 207.90733337402344 311.46124267578125" stroke-width="2.0" fill="rgb(83, 131, 166)" opacity="0.7472"/>
    <path d="M 321.3536376953125 393.38665771484375 C 321.1953430175781 394.0289001464844 320.7567138671875 394.5240173339844 320.13824462890625 394.7585754394531 C 319.4815979003906 394.6788330078125 318.937255859375 394.3031005859375 318.6298522949219 393.7174072265625 C 318.6298522949219 393.0559387207031 318.937255859375 392.4702453613281 319.4815979003906 392.094482421875 C 320.13824462890625 392.0147705078125 320.7567138671875 392.24932861328125 321.1953430175781 392.7444152832031 L 321.3536376953125 393.38665771484375" stroke-width="2.0" fill="rgb(71, 118, 77)" opacity="1.0"/>
    <path d="M 293.19647216796875 343.40960693359375 C 296.9020690917969 344.44610595703125 296.67572021484375 342.50152587890625 297.60540771484375 341.1814270019531 C 297.6678161621094 341.8388671875 299.75457763671875 341.1085205078125 302.0375671386719 343.0215148925781 C 300.9908752441406 345.3209228515625 300.7089538574219 344.2690124511719 301.0356140136719 343.8191833496094 C 293.43780517578125 343.6072082519531 292.72222900390625 344.2973327636719 293.5555419921875 344.9748229980469 L 293.19647216796875 343.40960693359375" stroke-width="2.0" fill="rgb(66, 105, 103)" opacity="0.9073"/>
    <path d="M 122.85904693603516 291.11798095703125 C 167.01364135742188 292.2424011230469 263.4593505859375 290.6126708984375 171.67408752441406 292.2785339355469 C 124.81857299804688 292.028564453125 161.43783569335938 293.3332824707031 81.19938659667969 292.39227294921875 C 86.0291976928711 276.9593200683594 46.47878646850586 272.4621887207031 180.81227111816406 278.63873291015625 C 20.783458709716797 278.84698486328125 53.39054870605469 293.0965270996094 206.07421875 288.6988220214844 L 122.85904693603516 291.11798095703125" stroke-width="2.0" fill="rgb(175, 205, 191)" opacity="1.0"/>
    <path d="M 258.4447021484375 289.9607849121094 C 508.5054931640625 291.03839111328125 472.8528137207031 305.4994201660156 317.7571716308594 302.393798828125 C 273.37646484375 309.3224792480469 262.59405517578125 306.7237548828125 255.12063598632812 298.545166015625 C 264.93841552734375 257.7375793457031 282.0159606933594 273.3880920410156 235.67202758789062 266.32769775390625 C 477.1245422363281 277.3761901855469 412.4224548339844 249.47682189941406 450.8861389160156 287.1038513183594 L 258.4447021484375 289.9607849121094" stroke-width="2.0" fill="rgb(14, 24, 48)" opacity="0.6561757"/>
    <path d="M 259.8564758300781 298.57476806640625 C 258.00152587890625 287.75592041015625 249.81134033203125 278.0254211425781 256.03900146484375 295.09967041015625 C 253.9652099609375 289.8394470214844 251.13015747070312 291.3569030761719 253.5637969970703 282.6461486816406 C 266.3037109375 289.8957214355469 241.52655029296875 289.30975341796875 262.5071105957031 271.98309326171875 C 268.6487731933594 267.796630859375 259.8885498046875 271.2264404296875 253.87454223632812 280.49884033203125 L 259.8564758300781 298.57476806640625" stroke-width="2.0" fill="rgb(91, 14, 45)" opacity="0.56061864"/>
    <path d="M 440.29974365234375 301.8326416015625 C 312.3463134765625 306.79425048828125 508.20843505859375 322.35736083984375 286.5689697265625 313.2174987792969 C 290.24102783203125 307.8049011230469 326.6816101074219 301.0992736816406 263.369873046875 313.70965576171875 C 292.78131103515625 293.0231628417969 398.48394775390625 318.5995788574219 430.4576416015625 296.1265869140625 C 310.1820983886719 273.36395263671875 244.60238647460938 264.38671875 447.8280944824219 265.00543212890625 L 440.29974365234375 301.8326416015625" stroke-width="2.0" fill="rgb(9, 14, 0)" opacity="0.29449263"/>
    <path d="M 136.9795684814453 375.8080139160156 C 136.83506774902344 376.394287109375 136.4346466064453 376.84625244140625 135.8700714111328 377.06036376953125 C 135.27064514160156 376.9875793457031 134.77369689941406 376.6445617675781 134.4930877685547 376.10992431640625 C 134.4930877685547 375.5060729980469 134.77369689941406 374.971435546875 135.27064514160156 374.62841796875 C 135.8700714111328 374.5556335449219 136.4346466064453 374.7697448730469 136.83506774902344 375.2217102050781 L 136.9795684814453 375.8080139160156" stroke-width="2.0" fill="rgb(106, 150, 97)" opacity="1.0"/>
    <path d="M 127.29837799072266 371.20001220703125 C 127.16912841796875 371.7243957519531 126.81098937988281 372.1286315917969 126.3060073852539 372.3201599121094 C 125.7698745727539 372.25506591796875 125.32539367675781 371.9482421875 125.07440948486328 371.47003173828125 C 125.07440948486328 370.9299621582031 125.32539367675781 370.4517517089844 125.7698745727539 370.14495849609375 C 126.3060073852539 370.079833984375 126.81098937988281 370.2713623046875 127.16912841796875 370.6756286621094 L 127.29837799072266 371.20001220703125" stroke-width="2.0" fill="rgb(187, 220, 202)" opacity="1.0"/>
    <path d="M 292.6833801269531 363.5199890136719 C 292.55413818359375 364.04437255859375 292.19598388671875 364.4486389160156 291.6910095214844 364.6401672363281 C 291.1548767089844 364.5750427246094 290.71038818359375 364.26824951171875 290.45941162109375 363.7900390625 C 290.45941162109375 363.2499694824219 290.71038818359375 362.7717590332031 291.1548767089844 362.4649353027344 C 291.6910095214844 362.39984130859375 292.19598388671875 362.59136962890625 292.55413818359375 362.99560546875 L 292.6833801269531 363.5199890136719" stroke-width="2.0" fill="rgb(71, 118, 77)" opacity="1.0"/>
    <path d="M 233.38800048828125 60.521427154541016 C 233.54515075683594 61.42621612548828 232.91697692871094 59.57976531982422 232.5782928466797 59.90543746948242 C 233.3510284423828 60.23479080200195 232.70208740234375 59.2121696472168 233.0614471435547 60.12510299682617 C 232.96563720703125 59.02251052856445 231.1420135498047 59.7515983581543 230.0430145263672 59.98866653442383 C 230.88800048828125 59.87040710449219 234.10494995117188 62.115325927734375 231.970458984375 58.403255462646484 L 233.38800048828125 60.521427154541016" stroke-width="2.0" fill="rgb(65, 72, 81)" opacity="0.7933213"/>
    <path d="M 284.9082946777344 184.64456176757812 C 286.5585021972656 194.6145477294922 288.23870849609375 190.7604217529297 294.80133056640625 191.74234008789062 C 216.3974151611328 191.73829650878906 225.48020935058594 191.92071533203125 178.89430236816406 192.13876342773438 C 177.8870086669922 97.22747802734375 188.63333129882812 178.27267456054688 229.8086395263672 123.36052703857422 C 268.5484924316406 168.7294921875 268.71112060546875 124.2530746459961 283.68988037109375 145.8542938232422 L 284.9082946777344 184.64456176757812" stroke-width="2.0" fill="rgb(45, 82, 76)" opacity="1.0"/>
    <path d="M 253.59109497070312 282.0193176269531 C 255.65687561035156 279.5614929199219 255.63128662109375 282.7156677246094 253.81130981445312 280.0231018066406 C 253.6570587158203 273.20623779296875 279.59912109375 254.05430603027344 261.6280517578125 287.4459533691406 C 263.728271484375 313.5990295410156 245.14186096191406 294.137451171875 253.64564514160156 278.2336730957031 C 254.2436981201172 280.4738464355469 254.41839599609375 280.1532897949219 253.9206085205078 281.9622497558594 L 253.59109497070312 282.0193176269531" stroke-width="2.0" fill="rgb(28, 41, 61)" opacity="0.9991405"/>
    <path d="M 139.23338317871094 360.9599914550781 C 139.1041259765625 361.484375 138.74598693847656 361.8886413574219 138.2410125732422 362.08013916015625 C 137.70486450195312 362.0150451660156 137.26039123535156 361.708251953125 137.00941467285156 361.23004150390625 C 137.00941467285156 360.6899719238281 137.26039123535156 360.21173095703125 137.70486450195312 359.9049377441406 C 138.2410125732422 359.83984375 138.74598693847656 360.0313720703125 139.1041259765625 360.43560791015625 L 139.23338317871094 360.9599914550781" stroke-width="2.0" fill="rgb(106, 150, 97)" opacity="1.0"/>
    <path d="M 296.0933837890625 358.3999938964844 C 295.9641418457031 358.92437744140625 295.6059875488281 359.3286437988281 295.10101318359375 359.5201416015625 C 294.56488037109375 359.4550476074219 294.1203918457031 359.14825439453125 293.8694152832031 358.6700439453125 C 293.8694152832031 358.1299743652344 294.1203918457031 357.6517333984375 294.56488037109375 357.3449401855469 C 295.10101318359375 357.27984619140625 295.6059875488281 357.47137451171875 295.9641418457031 357.8756103515625 L 296.0933837890625 358.3999938964844" stroke-width="2.0" fill="rgb(106, 150, 97)" opacity="1.0"/>
    <path d="M 189.70358276367188 255.44357299804688 C 210.34652709960938 248.3011474609375 190.76174926757812 256.03302001953125 256.70892333984375 268.5009460449219 C 130.9134063720703 267.0191650390625 99.95355987548828 264.8294372558594 90.23047637939453 261.5846862792969 C 105.56377410888672 249.40586853027344 125.0234146118164 265.58209228515625 130.10633850097656 249.9788818359375 C 129.57618713378906 249.1264190673828 162.93910217285156 254.7550811767578 176.67459106445312 250.05410766601562 L 189.70358276367188 255.44357299804688" stroke-width="2.0" fill="rgb(68, 112, 78)" opacity="1.0"/>
    <path d="M 137.37721252441406 435.20001220703125 C 137.26527404785156 435.6541442871094 136.95510864257812 436.00421142578125 136.51779174804688 436.1700744628906 C 136.05348205566406 436.11370849609375 135.66854858398438 435.8479919433594 135.45118713378906 435.4338684082031 C 135.45118713378906 434.96612548828125 135.66854858398438 434.552001953125 136.05348205566406 434.2862854003906 C 136.51779174804688 434.22991943359375 136.95510864257812 434.3957824707031 137.26527404785156 434.7458801269531 L 137.37721252441406 435.20001220703125" stroke-width="2.0" fill="rgb(71, 118, 77)" opacity="1.0"/>
    <path d="M 301.05718994140625 445.44000244140625 C 300.9452819824219 445.8941345214844 300.6351013183594 446.2442321777344 300.1977844238281 446.41009521484375 C 299.7334899902344 446.35369873046875 299.3485412597656 446.0880126953125 299.1311950683594 445.6738586425781 C 299.1311950683594 445.2061462402344 299.3485412597656 444.7919921875 299.7334899902344 444.52630615234375 C 300.1977844238281 444.46990966796875 300.6351013183594 444.6357727050781 300.9452819824219 444.9858703613281 L 301.05718994140625 445.44000244140625" stroke-width="2.0" fill="rgb(71, 118, 77)" opacity="1.0"/>
    <path d="M 238.26077270507812 47.58186721801758 C 237.07537841796875 47.5506477355957 239.03875732421875 45.435516357421875 238.81529235839844 47.00221252441406 C 238.25942993164062 47.05112838745117 237.75929260253906 48.629276275634766 237.5959014892578 47.50199890136719 C 237.95199584960938 50.76445007324219 235.72323608398438 48.714393615722656 238.04742431640625 47.87156677246094 C 237.33267211914062 46.942745208740234 237.66192626953125 47.53641128540039 238.14564514160156 46.27192306518555 L 238.26077270507812 47.58186721801758" stroke-width="2.0" fill="rgb(80, 87, 96)" opacity="0.747806"/>
    <path d="M 215.8072052001953 363.5199890136719 C 215.6952667236328 363.97412109375 215.38511657714844 364.32421875 214.94778442382812 364.4900817871094 C 214.4834747314453 364.4337158203125 214.0985565185547 364.1679992675781 213.88119506835938 363.7538757324219 C 213.88119506835938 363.2861328125 214.0985565185547 362.8719787597656 214.4834747314453 362.6062927246094 C 214.94778442382812 362.5499267578125 215.38511657714844 362.7157897949219 215.6952667236328 363.06585693359375 L 215.8072052001953 363.5199890136719" stroke-width="2.0" fill="rgb(241, 143, 105)" opacity="1.0"/>
    <path d="M 256.8348388671875 227.25955200195312 C 313.6846923828125 255.15615844726562 330.9019775390625 225.565185546875 307.4560546875 248.11256408691406 C 242.27603149414062 246.43771362304688 251.91278076171875 214.61911010742188 252.4175262451172 216.79234313964844 C 248.15000915527344 215.5094451904297 259.9454040527344 236.73666381835938 253.9846649169922 218.53782653808594 C 254.55416870117188 220.1379852294922 255.33895874023438 222.4056854248047 252.62448120117188 213.7067108154297 L 256.8348388671875 227.25955200195312" stroke-width="2.0" fill="rgb(0, 0, 26)" opacity="1.0"/>
    <path d="M 272.98199462890625 118.76458740234375 C 272.9230651855469 119.27085876464844 272.9049377441406 118.0036392211914 273.05010986328125 119.04764556884766 C 272.91253662109375 117.78196716308594 272.68707275390625 118.98690795898438 273.307861328125 119.3730697631836 C 272.3211975097656 117.63529968261719 273.8709411621094 118.76136016845703 274.6948547363281 120.2701644897461 C 271.8672180175781 118.75586700439453 272.4253845214844 117.89106750488281 272.92999267578125 118.64954376220703 L 272.98199462890625 118.76458740234375" stroke-width="2.0" fill="rgb(98, 151, 147)" opacity="0.828897"/>
    <path d="M 561.4638061523438 242.10659790039062 C 548.729736328125 278.2997741699219 345.174560546875 258.3885192871094 270.2933654785156 272.32568359375 C 365.2942810058594 258.4457092285156 252.48330688476562 283.0355529785156 196.34915161132812 249.95184326171875 C 270.07232666015625 201.11822509765625 182.53489685058594 188.29541015625 240.74078369140625 192.6875762939453 C 230.55880737304688 233.20236206054688 236.328857421875 240.50328063964844 234.6129150390625 235.66712951660156 L 561.4638061523438 242.10659790039062" stroke-width="2.0" fill="rgb(146, 143, 0)" opacity="0.24510929"/>
    <path d="M 96.45720672607422 363.5199890136719 C 96.34527587890625 363.97412109375 96.03511810302734 364.32421875 95.59778594970703 364.4900817871094 C 95.13347625732422 364.4337158203125 94.74855041503906 364.1679992675781 94.53118896484375 363.7538757324219 C 94.53118896484375 363.2861328125 94.74855041503906 362.8719787597656 95.13347625732422 362.6062927246094 C 95.59778594970703 362.5499267578125 96.03511810302734 362.7157897949219 96.34527587890625 363.06585693359375 L 96.45720672607422 363.5199890136719" stroke-width="2.0" fill="rgb(45, 82, 76)" opacity="1.0"/>
    <path d="M 297.647216796875 399.3599853515625 C 297.5352783203125 399.8141174316406 297.2251281738281 400.1642150878906 296.78778076171875 400.330078125 C 296.323486328125 400.2737121582031 295.93853759765625 400.00799560546875 295.72119140625 399.5938720703125 C 295.72119140625 399.1261291503906 295.93853759765625 398.7120056152344 296.323486328125 398.4462890625 C 296.78778076171875 398.3899230957031 297.2251281738281 398.5557861328125 297.5352783203125 398.9058837890625 L 297.647216796875 399.3599853515625" stroke-width="2.0" fill="rgb(45, 82, 76)" opacity="1.0"/>
    <path d="M 126.96788787841797 350.7200012207031 C 126.87649536132812 351.0907897949219 126.62325286865234 351.37664794921875 126.26617431640625 351.5120544433594 C 125.88706970214844 351.4660339355469 125.5727767944336 351.24908447265625 125.39530181884766 350.91094970703125 C 125.39530181884766 350.529052734375 125.5727767944336 350.19091796875 125.88706970214844 349.9739685058594 C 126.26617431640625 349.9279479980469 126.62325286865234 350.0633544921875 126.87649536132812 350.3492126464844 L 126.96788787841797 350.7200012207031" stroke-width="2.0" fill="rgb(187, 220, 202)" opacity="1.0"/>
    <path d="M 446.3007507324219 249.28192138671875 C 258.38134765625 257.7111511230469 428.8429260253906 236.04742431640625 279.5479736328125 240.59884643554688 C 207.44049072265625 231.89947509765625 354.68646240234375 221.35629272460938 314.9668273925781 213.71176147460938 C 291.7236328125 204.64007568359375 290.9892578125 208.87118530273438 301.9674987792969 197.99761962890625 C 414.8541564941406 260.43524169921875 356.851318359375 182.6809539794922 457.9906921386719 105.70074462890625 L 446.3007507324219 249.28192138671875" stroke-width="2.0" fill="rgb(11, 26, 43)" opacity="0.58450246"/>
    <path d="M 177.83612060546875 237.96505737304688 C 176.6995391845703 256.8560485839844 201.61154174804688 253.3260040283203 157.0405731201172 252.90586853027344 C 94.85862731933594 248.3016815185547 164.58140563964844 244.4451141357422 122.27782440185547 247.2945556640625 C 136.98207092285156 245.37457275390625 227.42434692382812 244.63722229003906 145.56613159179688 241.85726928710938 C 85.04862976074219 237.33131408691406 144.7521209716797 239.25326538085938 175.78012084960938 234.88543701171875 L 177.83612060546875 237.96505737304688" stroke-width="2.0" fill="rgb(106, 150, 97)" opacity="1.0"/>
    <path d="M 176.4128875732422 363.5199890136719 C 176.3214874267578 363.89080810546875 176.06825256347656 364.1766357421875 175.711181640625 364.31207275390625 C 175.33206176757812 364.2660217285156 175.0177764892578 364.0491027832031 174.84030151367188 363.7109375 C 174.84030151367188 363.32904052734375 175.0177764892578 362.99090576171875 175.33206176757812 362.7739562988281 C 175.711181640625 362.7279357910156 176.06825256347656 362.86334228515625 176.3214874267578 363.1492004394531 L 176.4128875732422 363.5199890136719" stroke-width="2.0" fill="rgb(71, 118, 77)" opacity="1.0"/>
    <path d="M 138.9028778076172 368.6400146484375 C 138.81149291992188 369.01080322265625 138.55824279785156 369.2966613769531 138.201171875 369.43206787109375 C 137.8220672607422 369.38604736328125 137.50778198242188 369.1690979003906 137.33030700683594 368.8309326171875 C 137.33030700683594 368.4490661621094 137.50778198242188 368.11090087890625 137.8220672607422 367.8939514160156 C 138.201171875 367.8479309082031 138.55824279785156 367.9833679199219 138.81149291992188 368.2691955566406 L 138.9028778076172 368.6400146484375" stroke-width="2.0" fill="rgb(71, 118, 77)" opacity="1.0"/>
    <path d="M 133.7878875732422 453.1199951171875 C 133.6964874267578 453.49078369140625 133.44325256347656 453.7766418457031 133.086181640625 453.9120788574219 C 132.70706176757812 453.86602783203125 132.3927764892578 453.64910888671875 132.21530151367188 453.3109436035156 C 132.21530151367188 452.9290466308594 132.3927764892578 452.5909118652344 132.70706176757812 452.37396240234375 C 133.086181640625 452.32794189453125 133.44325256347656 452.4633483886719 133.6964874267578 452.74920654296875 L 133.7878875732422 453.1199951171875" stroke-width="2.0" fill="rgb(71, 118, 77)" opacity="1.0"/>
    <path d="M 258.10406494140625 107.07049560546875 C 238.20187377929688 87.3796157836914 222.4949188232422 103.84709167480469 217.5788116455078 90.45256805419922 C 253.15078735351562 105.13352966308594 261.0147399902344 108.93302154541016 271.4047546386719 111.49420166015625 C 295.3275451660156 88.25101470947266 227.18167114257812 35.91643524169922 390.7906494140625 14.290374755859375 C 163.77383422851562 3.3805370330810547 175.19674682617188 24.168947219848633 177.1123046875 74.0118637084961 L 258.10406494140625 107.07049560546875" stroke-width="2.0" fill="rgb(149, 200, 191)" opacity="1.0"/>
    <path d="M 234.64366149902344 156.07083129882812 C 234.46006774902344 156.44845581054688 234.49267578125 156.43487548828125 234.7947235107422 155.5799102783203 C 234.5295867919922 156.4959716796875 234.4373016357422 155.89697265625 234.63226318359375 156.9948272705078 C 234.4883270263672 155.61532592773438 234.59912109375 156.4044952392578 234.692626953125 155.92770385742188 C 234.31871032714844 156.739013671875 234.67210388183594 156.19679260253906 234.64480590820312 155.92616271972656 L 234.64366149902344 156.07083129882812" stroke-width="2.0" fill="rgb(157, 153, 123)" opacity="0.5724373"/>
    <path d="M 246.34579467773438 314.05389404296875 C 303.87384033203125 313.5275573730469 271.6539001464844 317.588134765625 298.0362548828125 306.1871032714844 C 210.28018188476562 309.87451171875 244.68698120117188 279.0708312988281 239.03497314453125 300.8360900878906 C 252.47662353515625 323.98724365234375 256.5897216796875 308.4060363769531 256.2225036621094 307.9781188964844 C 255.91172790527344 311.76885986328125 257.9662170410156 313.3460388183594 254.88430786132812 312.3623046875 L 246.34579467773438 314.05389404296875" stroke-width="2.0" fill="rgb(85, 134, 166)" opacity="1.0"/>
    <path d="M 223.1831817626953 312.9835205078125 C 224.7597198486328 311.0753173828125 224.5624237060547 312.4635925292969 223.90576171875 311.6050720214844 C 223.63021850585938 310.1104431152344 223.80584716796875 311.2245788574219 223.6699676513672 310.6044006347656 C 222.8779296875 309.9754333496094 223.63229370117188 310.5279846191406 223.0308380126953 310.1347961425781 C 224.36911010742188 310.9249267578125 223.48309326171875 311.52178955078125 224.2792205810547 311.87506103515625 L 223.1831817626953 312.9835205078125" stroke-width="2.0" fill="rgb(124, 115, 151)" opacity="0.7867412"/>
    <path d="M 283.5108642578125 330.3358154296875 C 268.3045654296875 315.087646484375 232.32492065429688 320.45904541015625 248.41712951660156 319.3233642578125 C 292.0079345703125 320.7920227050781 282.22332763671875 344.044921875 284.22222900390625 318.3506774902344 C 251.3159942626953 318.73846435546875 247.85264587402344 318.80279541015625 265.49664306640625 318.5848083496094 C 153.0255584716797 319.8980407714844 108.4126968383789 314.52874755859375 37.37507247924805 331.3073425292969 L 283.5108642578125 330.3358154296875" stroke-width="2.0" fill="rgb(85, 134, 166)" opacity="0.99417275"/>
    <path d="M 244.1083984375 328.6553039550781 C 244.21092224121094 327.9461364746094 244.8778839111328 327.2665710449219 243.27024841308594 329.8902282714844 C 243.8621368408203 328.78338623046875 243.65892028808594 329.56707763671875 242.5782012939453 330.6462707519531 C 238.19552612304688 329.5238037109375 236.23208618164062 331.6995544433594 247.62881469726562 330.97332763671875 C 241.71957397460938 329.15460205078125 243.31565856933594 331.01239013671875 244.21835327148438 327.7470397949219 L 244.1083984375 328.6553039550781" stroke-width="2.0" fill="rgb(87, 136, 165)" opacity="0.7239115"/>
    <path d="M 311.9476318359375 106.0431137084961 C 311.19183349609375 107.01776123046875 311.5713195800781 106.60005950927734 311.52996826171875 106.53933715820312 C 311.41864013671875 106.78877258300781 311.4408874511719 106.22077178955078 314.2124328613281 104.28031158447266 C 312.19329833984375 105.8500747680664 311.4887390136719 106.02151489257812 310.801513671875 108.22298431396484 C 311.48187255859375 106.20099639892578 311.7685241699219 106.23440551757812 314.234130859375 104.23980712890625 L 311.9476318359375 106.0431137084961" stroke-width="2.0" fill="rgb(178, 224, 206)" opacity="0.4029594"/>
    <path d="M 265.0728759765625 399.3599853515625 C 264.98150634765625 399.7308044433594 264.7282409667969 400.0166320800781 264.3711853027344 400.1520690917969 C 263.9920654296875 400.1060485839844 263.6777648925781 399.88909912109375 263.50030517578125 399.5509338378906 C 263.50030517578125 399.1690673828125 263.6777648925781 398.8309020996094 263.9920654296875 398.61395263671875 C 264.3711853027344 398.56793212890625 264.7282409667969 398.703369140625 264.98150634765625 398.98919677734375 L 265.0728759765625 399.3599853515625" stroke-width="2.0" fill="rgb(45, 82, 76)" opacity="1.0"/>
    <path d="M 261.72967529296875 159.53311157226562 C 261.4591979980469 158.5106658935547 261.30694580078125 159.91014099121094 262.4617004394531 157.20449829101562 C 262.0498046875 158.82418823242188 260.94549560546875 158.5532989501953 263.4798278808594 158.20306396484375 C 260.7270202636719 158.7169189453125 264.0909118652344 158.0811767578125 261.5747375488281 158.56956481933594 C 262.2593994140625 158.4490203857422 261.3829650878906 158.59434509277344 261.6308898925781 159.36929321289062 L 261.72967529296875 159.53311157226562" stroke-width="2.0" fill="rgb(61, 108, 104)" opacity="0.64612675"/>
    <path d="M 226.58840942382812 85.79449462890625 C 225.1306915283203 85.298095703125 224.89871215820312 84.46464538574219 226.12307739257812 86.06983184814453 C 227.2124786376953 85.65631103515625 225.92514038085938 86.15410614013672 223.25955200195312 83.21311950683594 C 225.2486114501953 86.01017761230469 227.71934509277344 85.73312377929688 225.07545471191406 87.06002044677734 C 224.65501403808594 86.9429702758789 224.94308471679688 86.92959594726562 222.92578125 88.61997985839844 L 226.58840942382812 85.79449462890625" stroke-width="2.0" fill="rgb(144, 182, 180)" opacity="0.564592"/>
    <path d="M 201.8553466796875 301.71221923828125 C 200.95997619628906 301.3080749511719 204.019287109375 300.3465270996094 190.96527099609375 314.2271423339844 C 186.92494201660156 315.3991394042969 190.75515747070312 314.2269287109375 195.79159545898438 302.88995361328125 C 196.58209228515625 301.78448486328125 196.1991424560547 303.22607421875 201.75308227539062 292.0416259765625 C 208.30345153808594 290.2764587402344 209.0908660888672 290.0126647949219 201.40171813964844 301.39935302734375 L 201.8553466796875 301.71221923828125" stroke-width="2.0" fill="rgb(68, 114, 49)" opacity="0.77663517"/>
    <path d="M 242.6741943359375 440.32000732421875 C 242.60955810546875 440.5821838378906 242.4304962158203 440.7843322753906 242.17800903320312 440.88006591796875 C 241.90994262695312 440.8475341796875 241.6876983642578 440.6941223144531 241.5622100830078 440.45501708984375 C 241.5622100830078 440.1849670410156 241.6876983642578 439.94586181640625 241.90994262695312 439.79248046875 C 242.17800903320312 439.7599182128906 242.4304962158203 439.8556823730469 242.60955810546875 440.05780029296875 L 242.6741943359375 440.32000732421875" stroke-width="2.0" fill="rgb(29, 41, 61)" opacity="1.0"/>
    <path d="M 321.74627685546875 -37.48997116088867 C 450.7270202636719 114.30503845214844 196.70648193359375 95.27999877929688 564.3068237304688 84.7569351196289 C 433.84814453125 -206.9788818359375 291.8562927246094 -87.22505187988281 327.0406799316406 94.48196411132812 C 334.3034362792969 31.206235885620117 320.6026306152344 102.24662780761719 256.8950500488281 99.13872528076172 C 243.9747314453125 -22.68385124206543 249.15646362304688 -22.490249633789062 311.3442687988281 -36.39078140258789 L 321.74627685546875 -37.48997116088867" stroke-width="2.0" fill="rgb(150, 201, 190)" opacity="0.86059076"/>
    <path d="M 329.6414794921875 96.06657409667969 C 320.2895202636719 82.33990478515625 331.0231018066406 81.33876037597656 266.4710388183594 117.6054458618164 C 271.3321533203125 111.7274398803711 265.18072509765625 105.42509460449219 278.3083190917969 111.50055694580078 C 284.9945373535156 96.60193634033203 277.22509765625 94.86619567871094 276.4386901855469 105.1124496459961 C 280.8880615234375 62.9307861328125 256.0518493652344 72.83920288085938 318.1519775390625 23.13326644897461 L 329.6414794921875 96.06657409667969" stroke-width="2.0" fill="rgb(149, 204, 198)" opacity="0.6084356"/>
    <path d="M 330.7367858886719 165.52432250976562 C 330.60943603515625 165.17063903808594 330.9783630371094 164.886962890625 330.48236083984375 163.8554229736328 C 330.8926086425781 164.66690063476562 330.69677734375 164.9794464111328 330.7177429199219 165.33021545410156 C 330.6865539550781 167.3929443359375 330.8927001953125 165.6473846435547 330.73077392578125 167.38375854492188 C 330.8818054199219 165.94586181640625 330.7365417480469 166.7123260498047 330.713134765625 166.28451538085938 L 330.7367858886719 165.52432250976562" stroke-width="2.0" fill="rgb(129, 172, 132)" opacity="0.75435126"/>
    <path d="M 198.02056884765625 192.08349609375 C 218.57720947265625 263.9748229980469 228.89422607421875 206.09750366210938 10.99797534942627 250.8806915283203 C 177.70648193359375 229.72482299804688 180.43605041503906 242.4379425048828 177.82626342773438 231.44281005859375 C 125.7792739868164 232.007568359375 97.827392578125 235.02944946289062 11.0800199508667 249.9997100830078 C -32.120914459228516 263.9596252441406 -31.8824462890625 189.8332061767578 6.57371711730957 192.27395629882812 L 198.02056884765625 192.08349609375" stroke-width="2.0" fill="rgb(114, 169, 171)" opacity="0.9475348"/>
    <path d="M 201.7541961669922 378.8800048828125 C 201.68955993652344 379.1421813964844 201.510498046875 379.3443298339844 201.2580108642578 379.4400634765625 C 200.98992919921875 379.40753173828125 200.7677001953125 379.2541198730469 200.6422119140625 379.0150146484375 C 200.6422119140625 378.7449951171875 200.7677001953125 378.505859375 200.98992919921875 378.35247802734375 C 201.2580108642578 378.3199157714844 201.510498046875 378.4156799316406 201.68955993652344 378.6177978515625 L 201.7541961669922 378.8800048828125" stroke-width="2.0" fill="rgb(71, 118, 77)" opacity="1.0"/>
    <path d="M 235.85418701171875 430.0799865722656 C 235.78956604003906 430.3421936035156 235.61048889160156 430.5443115234375 235.35800170898438 430.64007568359375 C 235.08993530273438 430.6075134277344 234.86769104003906 430.4541320800781 234.74220275878906 430.21502685546875 C 234.74220275878906 429.9449768066406 234.86769104003906 429.70587158203125 235.08993530273438 429.5524597167969 C 235.35800170898438 429.5199279785156 235.61048889160156 429.6156921386719 235.78956604003906 429.81781005859375 L 235.85418701171875 430.0799865722656" stroke-width="2.0" fill="rgb(71, 118, 77)" opacity="1.0"/>
    <path d="M 130.14419555664062 460.79998779296875 C 130.07955932617188 461.06219482421875 129.90049743652344 461.2643127441406 129.64801025390625 461.3600769042969 C 129.3799285888672 461.3275146484375 129.15769958496094 461.17413330078125 129.03221130371094 460.9350280761719 C 129.03221130371094 460.66497802734375 129.15769958496094 460.4258728027344 129.3799285888672 460.2724609375 C 129.64801025390625 460.23992919921875 129.90049743652344 460.335693359375 130.07955932617188 460.5378112792969 L 130.14419555664062 460.79998779296875" stroke-width="2.0" fill="rgb(71, 118, 77)" opacity="1.0"/>
    <path d="M 227.10472106933594 55.76224136352539 C 229.58551025390625 54.02597427368164 227.4264373779297 56.31978225708008 225.1998748779297 55.427616119384766 C 227.10565185546875 55.69962692260742 226.0063934326172 55.94493103027344 228.69105529785156 55.00703048706055 C 227.7650146484375 55.50934600830078 226.81224060058594 55.29740905761719 226.7703094482422 56.249515533447266 C 226.15365600585938 57.3780632019043 225.9158935546875 57.99034881591797 227.2144775390625 55.0588264465332 L 227.10472106933594 55.76224136352539" stroke-width="2.0" fill="rgb(132, 165, 167)" opacity="0.49833825"/>
    <path d="M 205.02828979492188 298.4786071777344 C 216.98245239257812 300.1222839355469 191.27537536621094 288.5494079589844 208.34405517578125 289.8290100097656 C 202.44776916503906 296.3352355957031 194.74661254882812 305.79107666015625 193.17959594726562 324.7200927734375 C 194.37481689453125 294.9019775390625 244.84523010253906 220.35195922851562 199.81564331054688 155.43780517578125 C 282.174072265625 250.81680297851562 170.92678833007812 281.7253112792969 227.4852752685547 302.9371032714844 L 205.02828979492188 298.4786071777344" stroke-width="2.0" fill="rgb(67, 112, 78)" opacity="1.0"/>
    <path d="M 206.8605194091797 305.2349548339844 C 207.89955139160156 310.01068115234375 211.81240844726562 308.1933288574219 208.5213165283203 305.2996520996094 C 217.0886993408203 303.231201171875 221.44277954101562 302.1177062988281 213.50433349609375 281.33807373046875 C 209.0490264892578 284.2294616699219 205.55044555664062 296.142822265625 196.59027099609375 314.1012268066406 C 209.15257263183594 314.6775207519531 209.06149291992188 306.694091796875 207.95274353027344 308.33551025390625 L 206.8605194091797 305.2349548339844" stroke-width="2.0" fill="rgb(85, 134, 165)" opacity="0.99720997"/>
    <path d="M 241.35963439941406 317.23681640625 C 240.80946350097656 314.789794921875 242.08460998535156 317.85260009765625 240.35049438476562 316.46502685546875 C 241.38327026367188 316.6607360839844 234.32110595703125 315.7109069824219 240.90574645996094 316.544921875 C 242.3455047607422 313.58599853515625 244.33863830566406 313.3688049316406 242.69912719726562 315.031982421875 C 239.8837127685547 314.54632568359375 242.1567840576172 319.7209777832031 241.9754638671875 322.9947204589844 L 241.35963439941406 317.23681640625" stroke-width="2.0" fill="rgb(97, 148, 168)" opacity="0.5990064"/>
    <path d="M 171.06419372558594 343.0400085449219 C 170.9995574951172 343.30218505859375 170.82049560546875 343.50433349609375 170.56800842285156 343.6000671386719 C 170.29994201660156 343.5675354003906 170.07769775390625 343.41412353515625 169.95220947265625 343.1750183105469 C 169.95220947265625 342.90496826171875 170.07769775390625 342.6658630371094 170.29994201660156 342.5124816894531 C 170.56800842285156 342.47991943359375 170.82049560546875 342.57568359375 170.9995574951172 342.7778015136719 L 171.06419372558594 343.0400085449219" stroke-width="2.0" fill="rgb(10, 14, 23)" opacity="1.0"/>
    <path d="M 112.24603271484375 153.86151123046875 C 141.31973266601562 34.51142883300781 175.70712280273438 89.64920806884766 206.77146911621094 83.30015563964844 C 218.05224609375 89.9154052734375 217.48275756835938 98.55526733398438 217.78778076171875 82.9998779296875 C 217.0293426513672 96.14347839355469 221.43682861328125 107.78217315673828 238.65321350097656 95.70658111572266 C 222.6210479736328 63.16897964477539 220.84642028808594 59.874542236328125 257.7638854980469 135.1584930419922 L 112.24603271484375 153.86151123046875" stroke-width="2.0" fill="rgb(89, 142, 255)" opacity="0.26980925"/>
    <path d="M 237.1547088623047 299.93701171875 C 230.85989379882812 297.73992919921875 233.1573028564453 296.90478515625 234.67245483398438 298.7386779785156 C 234.65835571289062 298.74517822265625 234.5608367919922 302.71392822265625 235.0229949951172 299.1495666503906 C 239.72596740722656 298.0767822265625 239.33908081054688 297.189208984375 235.76840209960938 297.8319396972656 C 238.3805389404297 306.3062744140625 241.43060302734375 302.8799743652344 236.06065368652344 291.8985900878906 L 237.1547088623047 299.93701171875" stroke-width="2.0" fill="rgb(77, 119, 60)" opacity="0.48800558"/>
    <path d="M 211.89181518554688 142.45199584960938 C 260.0691223144531 122.44841766357422 203.91647338867188 89.99764251708984 240.47935485839844 96.90992736816406 C 204.31219482421875 84.85359191894531 220.55247497558594 90.56452178955078 221.32582092285156 117.78451538085938 C 239.09823608398438 114.22187042236328 297.28436279296875 109.69644927978516 209.90887451171875 88.56432342529297 C 85.16510772705078 53.87977981567383 166.32177734375 47.6822395324707 132.3985595703125 99.07462310791016 L 211.89181518554688 142.45199584960938" stroke-width="2.0" fill="rgb(124, 185, 176)" opacity="0.68066293"/>
    <path d="M 260.3446350097656 148.1746063232422 C 199.66262817382812 111.0013656616211 198.91220092773438 201.30905151367188 192.3642120361328 80.5625228881836 C 253.50120544433594 88.19115447998047 225.39691162109375 131.9001007080078 235.98805236816406 106.92704772949219 C 242.01124572753906 108.79517364501953 240.76707458496094 115.80360412597656 239.84951782226562 83.33428192138672 C 238.00393676757812 138.27198791503906 279.309814453125 86.73656463623047 310.9658203125 79.25212097167969 L 260.3446350097656 148.1746063232422" stroke-width="2.0" fill="rgb(113, 168, 169)" opacity="0.9773199"/>
  </g>
</svg>
