<?xml version="1.0" ?>
<svg xmlns="http://www.w3.org/2000/svg" version="1.1" width="512" height="320">
  <defs/>
  <g>
    <path d="M 216.96144104003906 196.73951721191406 C 181.31065368652344 271.5111999511719 172.9034881591797 215.4792938232422 133.54112243652344 236.42144775390625 C 107.1557388305664 249.99545288085938 63.441951751708984 169.654296875 94.1272964477539 128.7003936767578 C 125.16082000732422 95.96475219726562 135.09292602539062 134.23040771484375 178.82308959960938 112.98047637939453 C 257.36029052734375 128.94154357910156 149.51345825195312 144.5194854736328 216.96144104003906 196.73951721191406" stroke-width="0.0" fill="rgb(1, 1, 1)" opacity="0.993474" stroke="rgb(99, 167, 235)" stroke-opacity="0.51644367" stroke-linecap="round" stroke-linejoin="round"/>
    <path d="M 180.28500366210938 87.88143920898438 C 177.99229431152344 101.57991790771484 164.97708129882812 116.39755249023438 152.52728271484375 116.21092224121094 C 148.44158935546875 116.80160522460938 148.81851196289062 119.3580322265625 149.92059326171875 107.50052642822266 C 153.78335571289062 92.5624008178711 160.6142120361328 82.42359161376953 182.04632568359375 77.63874053955078 C 177.34130859375 79.04469299316406 182.7369384765625 73.89323425292969 180.28500366210938 87.88143920898438" stroke-width="0.0" fill="rgb(2, 2, 2)" opacity="0.99989176" stroke="rgb(43, 116, 16)" stroke-opacity="0.1117477" stroke-linecap="round" stroke-linejoin="round"/>
    <path d="M 357.09674072265625 108.23953247070312 C 361.6844177246094 141.7533416748047 357.87457275390625 155.2041778564453 357.502685546875 171.69744873046875 C 349.8638916015625 161.64222717285156 333.0118103027344 134.79832458496094 329.3285827636719 120.00299072265625 C 324.44140625 105.7757797241211 330.1593322753906 90.24747467041016 348.45050048828125 88.49130249023438 C 350.328369140625 85.45765686035156 353.5389404296875 90.552490234375 357.09674072265625 108.23953247070312" stroke-width="0.0" fill="rgb(178, 0, 22)" opacity="0.91417253" stroke="rgb(42, 229, 146)" stroke-opacity="0.3876855" stroke-linecap="round" stroke-linejoin="round"/>
    <path d="M 423.7002868652344 125.65088653564453 C 426.0071716308594 140.07351684570312 421.176513671875 147.1781005859375 388.115234375 166.12229919433594 C 365.5569152832031 177.7973175048828 369.43206787109375 179.00765991210938 379.9884948730469 156.72900390625 C 396.5970153808594 127.26764678955078 403.7259216308594 119.06917572021484 412.36944580078125 107.38265228271484 C 414.36004638671875 109.63475799560547 421.25054931640625 116.8353271484375 423.7002868652344 125.65088653564453" stroke-width="0.0" fill="rgb(175, 0, 22)" opacity="0.91473675" stroke="rgb(144, 4, 178)" stroke-opacity="0.8447739" stroke-linecap="round" stroke-linejoin="round"/>
    <path d="M 392.4347839355469 123.20308685302734 C 388.1082763671875 135.855712890625 378.5386047363281 152.9855499267578 365.6938171386719 171.24440002441406 C 366.092529296875 173.6153106689453 362.5891418457031 159.95814514160156 363.81744384765625 123.38003540039062 C 366.414306640625 90.20323944091797 374.2378845214844 85.06491088867188 373.2088623046875 88.17363739013672 C 391.70904541015625 90.63623046875 399.3266296386719 103.6187973022461 392.4347839355469 123.20308685302734" stroke-width="0.0" fill="rgb(177, 0, 22)" opacity="0.9182682" stroke="rgb(222, 100, 36)" stroke-opacity="0.4037084" stroke-linecap="round" stroke-linejoin="round"/>
    <path d="M 345.79400634765625 162.63467407226562 C 352.822998046875 178.2717742919922 356.4435119628906 177.22434997558594 337.0020751953125 167.43740844726562 C 305.96142578125 149.9488983154297 296.9198303222656 142.04544067382812 298.6138000488281 127.49835968017578 C 300.7405700683594 117.57750701904297 308.08184814453125 109.74690246582031 310.2723693847656 107.2104263305664 C 322.2101135253906 123.92700958251953 328.6865234375 131.02212524414062 345.79400634765625 162.63467407226562" stroke-width="0.0" fill="rgb(178, 0, 21)" opacity="0.9195844" stroke="rgb(240, 47, 168)" stroke-opacity="0.51327276" stroke-linecap="round" stroke-linejoin="round"/>
    <path d="M 309.17559814453125 213.15232849121094 C 311.2855529785156 276.38458251953125 301.0458068847656 200.2056884765625 292.010009765625 238.55279541015625 C 286.18341064453125 236.8783721923828 288.1147155761719 245.76065063476562 287.7467041015625 213.1775360107422 C 294.7687072753906 213.68603515625 292.5815124511719 210.01797485351562 293.16107177734375 223.08197021484375 C 315.4329528808594 226.9421844482422 295.2389221191406 211.41737365722656 309.17559814453125 213.15232849121094" stroke-width="0.0" fill="rgb(0, 0, 0)" opacity="0.9150028" stroke="rgb(6, 188, 98)" stroke-opacity="0.6259077" stroke-linecap="round" stroke-linejoin="round"/>
    <path d="M 400.91058349609375 212.98574829101562 C 384.1698303222656 277.22174072265625 387.1128234863281 197.0492706298828 379.1512756347656 233.15512084960938 C 374.2165832519531 255.93055725097656 358.7890625 199.1280517578125 370.5943908691406 215.59046936035156 C 379.06121826171875 245.6049346923828 372.45703125 220.0890350341797 384.5461120605469 211.73899841308594 C 396.5236511230469 251.9567108154297 387.4128112792969 211.3831024169922 400.91058349609375 212.98574829101562" stroke-width="0.0" fill="rgb(8, 8, 8)" opacity="0.9951533" stroke="rgb(28, 221, 84)" stroke-opacity="0.4951603" stroke-linecap="round" stroke-linejoin="round"/>
    <path d="M 435.08355712890625 150.93580627441406 C 435.13641357421875 175.04530334472656 414.5401916503906 180.9225616455078 407.9647216796875 179.85137939453125 C 378.2102966308594 180.32167053222656 374.2455139160156 180.13589477539062 375.2989196777344 179.03793334960938 C 396.7094421386719 165.14315795898438 404.8023376464844 161.3995819091797 415.8453674316406 154.83627319335938 C 439.07379150390625 142.24246215820312 432.1138000488281 143.3920135498047 435.08355712890625 150.93580627441406" stroke-width="0.0" fill="rgb(176, 0, 24)" opacity="0.90805674" stroke="rgb(231, 28, 232)" stroke-opacity="0.010148096" stroke-linecap="round" stroke-linejoin="round"/>
    <path d="M 328.17230224609375 167.55934143066406 C 323.7348937988281 178.84889221191406 321.61529541015625 175.6943817138672 310.5565185546875 179.7767333984375 C 300.7845764160156 177.96412658691406 289.9675598144531 171.0641632080078 287.5402526855469 155.0301513671875 C 287.951904296875 140.25863647460938 290.5343322753906 146.68338012695312 294.222900390625 148.0631103515625 C 311.7254638671875 157.7889862060547 317.9660339355469 160.9686737060547 328.17230224609375 167.55934143066406" stroke-width="0.0" fill="rgb(160, 0, 19)" opacity="0.9051077" stroke="rgb(68, 154, 228)" stroke-opacity="0.035035737" stroke-linecap="round" stroke-linejoin="round"/>
    <path d="M 343.8299560546875 176.73959350585938 C 349.43658447265625 180.86866760253906 355.15203857421875 179.89830017089844 314.82513427734375 180.04867553710938 C 305.2349548339844 179.39898681640625 301.8805236816406 178.8438720703125 299.97808837890625 160.91856384277344 C 304.0909729003906 155.7350311279297 304.11474609375 154.212646484375 315.28033447265625 160.1954345703125 C 328.2651672363281 166.63702392578125 331.3662109375 169.19247436523438 343.8299560546875 176.73959350585938" stroke-width="0.0" fill="rgb(180, 13, 35)" opacity="0.9527006" stroke="rgb(27, 112, 47)" stroke-opacity="0.37664405" stroke-linecap="round" stroke-linejoin="round"/>
    <path d="M 347.7118225097656 183.71600341796875 C 339.0193786621094 189.64404296875 327.96856689453125 197.78457641601562 320.1557312011719 198.9458465576172 C 312.8559265136719 198.33775329589844 306.8683776855469 194.36679077148438 301.15386962890625 185.28787231445312 C 329.9259033203125 183.85662841796875 329.9317626953125 183.83079528808594 311.9780578613281 184.9072265625 C 322.1047058105469 184.5887908935547 330.515380859375 183.54759216308594 347.7118225097656 183.71600341796875" stroke-width="0.0" fill="rgb(175, 0, 23)" opacity="0.9173294" stroke="rgb(215, 166, 137)" stroke-opacity="0.16222814" stroke-linecap="round" stroke-linejoin="round"/>
    <path d="M 421.5304260253906 185.12158203125 C 416.9873962402344 192.7971649169922 410.7117004394531 198.83779907226562 401.7103271484375 199.09814453125 C 391.80242919921875 196.17921447753906 381.62591552734375 188.1903839111328 374.8482666015625 183.722900390625 C 393.8736572265625 183.786865234375 398.2250671386719 184.70127868652344 391.6348876953125 183.8363494873047 C 390.0743103027344 184.18699645996094 392.5803527832031 184.0831298828125 421.5304260253906 185.12158203125" stroke-width="0.0" fill="rgb(176, 0, 22)" opacity="0.9122953" stroke="rgb(234, 92, 230)" stroke-opacity="0.09696862" stroke-linecap="round" stroke-linejoin="round"/>
    <path d="M 347.8739013671875 180.47879028320312 C 338.1151123046875 176.14881896972656 320.7364807128906 177.77630615234375 330.2484436035156 177.40719604492188 C 329.3474426269531 178.09205627441406 324.4086608886719 181.8227996826172 301.3286437988281 175.5068359375 C 289.8874816894531 166.0718536376953 270.3365478515625 126.5215072631836 329.1455383300781 171.5713348388672 C 326.398681640625 173.47032165527344 341.9707946777344 178.59628295898438 347.8739013671875 180.47879028320312" stroke-width="0.0" fill="rgb(194, 22, 42)" opacity="0.85592365" stroke="rgb(119, 15, 57)" stroke-opacity="0.9191398" stroke-linecap="round" stroke-linejoin="round"/>
    <path d="M 435.2470703125 211.02584838867188 C 435.1749572753906 217.9154815673828 435.12530517578125 232.96319580078125 435.02008056640625 238.28216552734375 C 427.8117370605469 238.63792419433594 430.2439270019531 237.8255615234375 429.82098388671875 239.5835723876953 C 430.3314208984375 205.4600372314453 427.76202392578125 214.84356689453125 435.01837158203125 213.0647735595703 C 435.2890625 221.00668334960938 435.2537841796875 227.8560028076172 435.2470703125 211.02584838867188" stroke-width="0.0" fill="rgb(0, 0, 0)" opacity="0.97746724" stroke="rgb(184, 17, 59)" stroke-opacity="0.20361222" stroke-linecap="round" stroke-linejoin="round"/>
    <path d="M 419.301513671875 226.48777770996094 C 422.98468017578125 229.13705444335938 406.0138854980469 225.95985412597656 407.0552978515625 229.16285705566406 C 407.0559997558594 227.70858764648438 405.1734619140625 251.60203552246094 405.519287109375 213.65452575683594 C 432.6020202636719 210.2118682861328 427.2825012207031 220.5501251220703 410.768798828125 217.6558074951172 C 406.11309814453125 229.19692993164062 422.9978332519531 217.67431640625 419.301513671875 226.48777770996094" stroke-width="0.0" fill="rgb(13, 13, 13)" opacity="1.0" stroke="rgb(187, 190, 7)" stroke-opacity="0.39873338" stroke-linecap="round" stroke-linejoin="round"/>
    <path d="M 424.0009765625 233.81248474121094 C 421.83978271484375 239.92755126953125 430.86627197265625 237.69564819335938 405.4769287109375 238.44247436523438 C 405.76727294921875 236.9741973876953 405.09197998046875 217.74880981445312 406.7667236328125 223.44125366210938 C 406.0966796875 228.95449829101562 406.24627685546875 231.2100830078125 407.4861145019531 219.2757110595703 C 415.7842102050781 237.85914611816406 400.68243408203125 233.1544189453125 424.0009765625 233.81248474121094" stroke-width="0.0" fill="rgb(0, 0, 0)" opacity="0.97433704" stroke="rgb(154, 54, 164)" stroke-opacity="0.75621897" stroke-linecap="round" stroke-linejoin="round"/>
    <path d="M 200.35777282714844 179.77793884277344 C 191.11477661132812 164.4281768798828 198.35789489746094 149.18914794921875 195.36846923828125 154.29278564453125 C 194.12782287597656 155.7478485107422 199.71649169921875 149.3123321533203 198.00169372558594 138.31358337402344 C 193.8440399169922 156.7094268798828 194.9337158203125 155.60975646972656 194.91015625 145.834228515625 C 189.03761291503906 165.6307373046875 192.8715057373047 177.02691650390625 200.35777282714844 179.77793884277344" stroke-width="0.0" fill="rgb(0, 0, 0)" opacity="0.95590615" stroke="rgb(44, 208, 155)" stroke-opacity="0.25476718" stroke-linecap="round" stroke-linejoin="round"/>
    <path d="M 322.18505859375 230.52621459960938 C 322.97149658203125 230.1714630126953 317.6151123046875 231.2803497314453 333.48101806640625 237.3893280029297 C 318.58251953125 242.4278106689453 316.0042419433594 232.06634521484375 316.3954772949219 227.47100830078125 C 316.40673828125 208.2143096923828 314.5726623535156 214.45806884765625 321.24169921875 213.06027221679688 C 321.3868713378906 216.67942810058594 321.23834228515625 234.67938232421875 322.18505859375 230.52621459960938" stroke-width="0.0" fill="rgb(8, 8, 8)" opacity="0.99996805" stroke="rgb(121, 36, 250)" stroke-opacity="0.2929567" stroke-linecap="round" stroke-linejoin="round"/>
    <path d="M 337.5971984863281 229.58810424804688 C 335.6124572753906 235.7039337158203 333.5195007324219 241.99899291992188 318.148193359375 235.28915405273438 C 335.2088928222656 234.15740966796875 335.044921875 228.1558380126953 333.2069396972656 231.92092895507812 C 328.28009033203125 232.69503784179688 333.9233093261719 237.644775390625 332.49188232421875 213.1432647705078 C 339.7751770019531 214.10911560058594 337.1544494628906 207.755859375 337.5971984863281 229.58810424804688" stroke-width="0.0" fill="rgb(5, 5, 5)" opacity="0.99342704" stroke="rgb(75, 19, 138)" stroke-opacity="0.8259577" stroke-linecap="round" stroke-linejoin="round"/>
  </g>
</svg>
