<?xml version="1.0" ?>
<svg xmlns="http://www.w3.org/2000/svg" version="1.1" width="412" height="512">
  <defs/>
  <g>
    <path d="M 233.0139617919922 386.2618408203125 C 245.80921936035156 458.8819885253906 242.81407165527344 469.1481628417969 261.3039245605469 513.175537109375 C 90.10486602783203 515.8814697265625 86.583251953125 512.2111206054688 63.0808219909668 525.537353515625 C 54.34823226928711 366.1308898925781 58.36742401123047 361.6492919921875 70.8009033203125 334.2414245605469 C 192.6736297607422 322.62347412109375 189.00546264648438 364.6971740722656 233.0139617919922 386.2618408203125" stroke-width="0.0" fill="rgb(24, 16, 39)" opacity="0.99934363" stroke="rgb(163, 25, 31)" stroke-opacity="0.08845723" stroke-linecap="round" stroke-linejoin="round"/>
    <path d="M 152.38987731933594 170.5390625 C 145.53912353515625 144.0647430419922 153.01068115234375 172.72409057617188 122.4955062866211 263.3822326660156 C 79.25785827636719 303.0311279296875 19.841785430908203 190.7892608642578 44.63825225830078 111.20952606201172 C 85.25874328613281 -27.406139373779297 255.88668823242188 -27.18785858154297 136.31118774414062 98.40483093261719 C 111.07044982910156 171.27294921875 146.04371643066406 137.42654418945312 152.38987731933594 170.5390625" stroke-width="0.0" fill="rgb(255, 229, 169)" opacity="0.86287683" stroke="rgb(32, 199, 121)" stroke-opacity="0.4906896" stroke-linecap="round" stroke-linejoin="round"/>
    <path d="M 359.8159484863281 213.899169921875 C 318.682861328125 330.21905517578125 195.8731231689453 341.1742858886719 269.0262451171875 257.2653503417969 C 343.52191162109375 129.00833129882812 293.228515625 32.45774459838867 188.6023712158203 56.012874603271484 C 72.2320327758789 123.91259002685547 46.444244384765625 -31.940889358520508 252.03472900390625 -2.571289300918579 C 337.0679626464844 19.389375686645508 390.2506103515625 117.6052474975586 359.8159484863281 213.899169921875" stroke-width="0.0" fill="rgb(231, 206, 156)" opacity="0.9767564" stroke="rgb(42, 172, 194)" stroke-opacity="0.22653599" stroke-linecap="round" stroke-linejoin="round"/>
    <path d="M 244.26956176757812 372.0679626464844 C 285.3905944824219 416.1379699707031 337.15081787109375 487.82977294921875 269.2185974121094 417.2801208496094 C 203.49510192871094 363.7182312011719 176.6036376953125 341.7203674316406 128.96759033203125 317.570068359375 C 130.09298706054688 294.8970947265625 156.38247680664062 335.1720275878906 224.80316162109375 262.8838195800781 C 211.26780700683594 374.0592956542969 185.6200408935547 312.8587951660156 244.26956176757812 372.0679626464844" stroke-width="0.0" fill="rgb(255, 48, 78)" opacity="0.65896666" stroke="rgb(199, 157, 123)" stroke-opacity="0.04403293" stroke-linecap="round" stroke-linejoin="round"/>
    <path d="M 313.5668640136719 120.51463317871094 C 327.93695068359375 179.67059326171875 301.9639892578125 169.3074493408203 308.5 153.97499084472656 C 250.75119018554688 117.86006164550781 294.0459899902344 121.8393325805664 248.9010467529297 84.76513671875 C 268.58660888671875 67.24990844726562 227.55857849121094 46.218170166015625 266.8984680175781 64.29537963867188 C 293.87921142578125 78.56572723388672 307.9601135253906 102.8364486694336 313.5668640136719 120.51463317871094" stroke-width="0.0" fill="rgb(163, 33, 55)" opacity="0.9937409" stroke="rgb(188, 39, 241)" stroke-opacity="0.38316822" stroke-linecap="round" stroke-linejoin="round"/>
    <path d="M 249.058837890625 113.2996597290039 C 258.2384338378906 144.17367553710938 169.86463928222656 138.51121520996094 212.85316467285156 124.87191772460938 C 196.12754821777344 124.00072479248047 172.56776428222656 128.3936767578125 168.75277709960938 106.61866760253906 C 171.46141052246094 89.11397552490234 189.4355926513672 83.95663452148438 222.85943603515625 87.59137725830078 C 183.47930908203125 111.37457275390625 236.56021118164062 80.99684143066406 249.058837890625 113.2996597290039" stroke-width="0.0" fill="rgb(255, 142, 61)" opacity="0.9363111" stroke="rgb(139, 92, 87)" stroke-opacity="0.044563815" stroke-linecap="round" stroke-linejoin="round"/>
    <path d="M 277.1080017089844 257.23028564453125 C 303.557861328125 296.42425537109375 276.4408264160156 305.2176818847656 248.8998260498047 306.5797119140625 C 217.5724639892578 283.8337097167969 213.47474670410156 274.25830078125 232.89329528808594 266.1371154785156 C 243.9321746826172 246.4335174560547 223.79127502441406 258.7989807128906 241.90789794921875 240.43954467773438 C 249.92813110351562 245.40255737304688 258.495361328125 248.60585021972656 277.1080017089844 257.23028564453125" stroke-width="0.0" fill="rgb(227, 202, 154)" opacity="0.99342245" stroke="rgb(64, 142, 134)" stroke-opacity="0.5752365" stroke-linecap="round" stroke-linejoin="round"/>
    <path d="M 213.9752960205078 276.4259948730469 C 199.01303100585938 350.590087890625 193.96200561523438 306.34619140625 167.74037170410156 308.4264221191406 C 144.1737823486328 303.9793701171875 173.2628631591797 317.66387939453125 167.66259765625 305.0163269042969 C 175.4644012451172 265.4560546875 176.1372528076172 250.09564208984375 177.44879150390625 250.46780395507812 C 195.42572021484375 263.0349426269531 205.61598205566406 272.31939697265625 213.9752960205078 276.4259948730469" stroke-width="0.0" fill="rgb(133, 30, 59)" opacity="0.9849514" stroke="rgb(222, 222, 136)" stroke-opacity="0.16603379" stroke-linecap="round" stroke-linejoin="round"/>
    <path d="M 295.52239990234375 212.1334228515625 C 272.24554443359375 230.7469940185547 305.1500244140625 221.40512084960938 278.6505432128906 240.68795776367188 C 260.23114013671875 239.42410278320312 258.3869934082031 237.1717071533203 264.3807373046875 233.40045166015625 C 273.0457458496094 174.7210235595703 268.391845703125 178.25125122070312 281.38348388671875 178.2179718017578 C 274.58843994140625 236.38226318359375 294.2649230957031 168.52947998046875 295.52239990234375 212.1334228515625" stroke-width="0.0" fill="rgb(168, 37, 57)" opacity="0.97778416" stroke="rgb(72, 205, 196)" stroke-opacity="0.07317654" stroke-linecap="round" stroke-linejoin="round"/>
    <path d="M 344.3293762207031 352.4315185546875 C 407.40802001953125 411.026123046875 400.4208984375 403.40045166015625 335.5828552246094 351.8837585449219 C 319.8172302246094 338.9884948730469 317.8431701660156 336.6969299316406 294.06475830078125 315.91436767578125 C 257.4937744140625 284.8218078613281 272.3318786621094 282.725341796875 310.4537658691406 321.2024841308594 C 320.6837463378906 330.3159484863281 324.0126037597656 333.4474792480469 344.3293762207031 352.4315185546875" stroke-width="0.0" fill="rgb(228, 205, 156)" opacity="0.99067265" stroke="rgb(126, 107, 0)" stroke-opacity="0.88322985" stroke-linecap="round" stroke-linejoin="round"/>
    <path d="M 162.6587371826172 127.43418884277344 C 185.1360321044922 150.70758056640625 202.8812255859375 151.32113647460938 172.69273376464844 144.38307189941406 C 170.9897003173828 145.181640625 151.88059997558594 141.0321502685547 169.15953063964844 132.13661193847656 C 167.4961700439453 133.5555877685547 106.68466186523438 77.92764282226562 170.23599243164062 130.88076782226562 C 185.30812072753906 126.275634765625 187.944580078125 151.22630310058594 162.6587371826172 127.43418884277344" stroke-width="0.0" fill="rgb(255, 105, 104)" opacity="0.73571265" stroke="rgb(198, 221, 96)" stroke-opacity="0.70981747" stroke-linecap="round" stroke-linejoin="round"/>
    <path d="M 209.66212463378906 162.913330078125 C 207.4453887939453 164.845947265625 221.24508666992188 166.4055633544922 207.38336181640625 167.9377899169922 C 197.3937530517578 173.0970458984375 184.09353637695312 167.43600463867188 184.93292236328125 155.83567810058594 C 185.7272491455078 135.49440002441406 182.7674102783203 151.11407470703125 192.91204833984375 142.29405212402344 C 204.91790771484375 136.46728515625 218.0782470703125 149.7157440185547 209.66212463378906 162.913330078125" stroke-width="0.0" fill="rgb(188, 188, 157)" opacity="0.90252054" stroke="rgb(41, 153, 170)" stroke-opacity="0.62317556" stroke-linecap="round" stroke-linejoin="round"/>
    <path d="M 279.8213195800781 134.4271697998047 C 274.9554443359375 140.69419860839844 287.73455810546875 153.27052307128906 227.71005249023438 159.36917114257812 C 227.7876434326172 150.5286407470703 266.70343017578125 154.87815856933594 271.3898010253906 140.78623962402344 C 265.20758056640625 150.39137268066406 277.17041015625 139.97085571289062 274.5838623046875 122.51270294189453 C 284.2062072753906 139.8196563720703 302.9184265136719 150.1964111328125 279.8213195800781 134.4271697998047" stroke-width="0.0" fill="rgb(200, 39, 59)" opacity="0.7726131" stroke="rgb(225, 199, 225)" stroke-opacity="0.5878476" stroke-linecap="round" stroke-linejoin="round"/>
    <path d="M 281.6723937988281 244.9518280029297 C 290.89141845703125 251.51231384277344 263.1724548339844 262.9881286621094 273.8130187988281 249.09268188476562 C 252.8112030029297 233.75331115722656 246.88043212890625 231.09161376953125 246.42575073242188 228.56918334960938 C 262.709228515625 227.82810974121094 265.6266784667969 228.85455322265625 272.4208068847656 225.61300659179688 C 255.3214111328125 227.07546997070312 273.9764404296875 222.32359313964844 281.6723937988281 244.9518280029297" stroke-width="0.0" fill="rgb(153, 33, 54)" opacity="1.0" stroke="rgb(132, 58, 166)" stroke-opacity="0.2509149" stroke-linecap="round" stroke-linejoin="round"/>
    <path d="M 242.71287536621094 241.00608825683594 C 232.0715789794922 240.18772888183594 238.00762939453125 275.06561279296875 232.20962524414062 265.0132141113281 C 214.0253448486328 246.517333984375 205.5784149169922 237.73948669433594 204.5614776611328 236.9930877685547 C 215.32803344726562 236.71263122558594 228.8523712158203 237.86451721191406 222.5652313232422 237.3716583251953 C 233.67977905273438 236.4781036376953 221.9646759033203 224.63198852539062 242.71287536621094 241.00608825683594" stroke-width="0.0" fill="rgb(255, 40, 73)" opacity="0.42444932" stroke="rgb(188, 100, 48)" stroke-opacity="0.46189913" stroke-linecap="round" stroke-linejoin="round"/>
    <path d="M 102.40148162841797 270.7862548828125 C 98.08889770507812 275.55841064453125 92.78287506103516 281.3176574707031 94.7024154663086 279.4388122558594 C 91.4013671875 275.3816223144531 88.44755554199219 272.28387451171875 85.1946792602539 269.1132507324219 C 76.7657241821289 260.5447692871094 71.81814575195312 254.12496948242188 67.77476501464844 248.86874389648438 C 106.63494873046875 233.63967895507812 101.06873321533203 253.95973205566406 102.40148162841797 270.7862548828125" stroke-width="0.0" fill="rgb(227, 203, 154)" opacity="0.99878454" stroke="rgb(54, 219, 173)" stroke-opacity="0.5890067" stroke-linecap="round" stroke-linejoin="round"/>
    <path d="M 176.909912109375 313.81353759765625 C 185.18707275390625 322.5939025878906 170.0641326904297 313.94219970703125 173.3181915283203 318.3914489746094 C 170.116943359375 316.27569580078125 164.957275390625 312.97686767578125 159.65867614746094 309.6153564453125 C 155.17529296875 307.474853515625 159.84852600097656 306.8333740234375 165.96913146972656 308.6944580078125 C 167.94107055664062 308.67584228515625 172.70089721679688 309.572021484375 176.909912109375 313.81353759765625" stroke-width="0.0" fill="rgb(8, 15, 37)" opacity="0.9068235" stroke="rgb(41, 163, 217)" stroke-opacity="0.027793784" stroke-linecap="round" stroke-linejoin="round"/>
    <path d="M 311.0306091308594 167.65399169921875 C 299.7832336425781 180.11898803710938 301.56817626953125 171.11183166503906 310.0942077636719 191.1240997314453 C 281.927001953125 213.25625610351562 305.47637939453125 184.49191284179688 298.6836242675781 176.3317413330078 C 297.55059814453125 173.7164306640625 302.286865234375 173.27024841308594 301.59844970703125 169.72560119628906 C 310.4114685058594 161.71246337890625 317.2505187988281 161.91629028320312 311.0306091308594 167.65399169921875" stroke-width="0.0" fill="rgb(164, 34, 56)" opacity="1.0" stroke="rgb(39, 124, 178)" stroke-opacity="0.41394943" stroke-linecap="round" stroke-linejoin="round"/>
    <path d="M 115.07849884033203 269.5621643066406 C 121.15972900390625 270.82171630859375 141.43206787109375 286.63739013671875 127.44461822509766 284.3611145019531 C 111.39540100097656 271.114501953125 106.94525146484375 271.0473327636719 101.95071411132812 264.4093017578125 C 101.66584014892578 260.4470520019531 118.12448120117188 268.0615539550781 116.75592041015625 269.830078125 C 114.34893798828125 265.6054992675781 115.62846374511719 270.43011474609375 115.07849884033203 269.5621643066406" stroke-width="0.0" fill="rgb(24, 15, 38)" opacity="1.0" stroke="rgb(97, 184, 77)" stroke-opacity="0.93527144" stroke-linecap="round" stroke-linejoin="round"/>
    <path d="M 229.82720947265625 179.66473388671875 C 203.6739959716797 156.845703125 203.342529296875 162.84048461914062 240.97003173828125 190.09213256835938 C 223.74856567382812 173.15277099609375 234.54945373535156 176.25473022460938 228.68850708007812 164.46682739257812 C 228.73843383789062 189.1904754638672 226.90773010253906 165.07115173339844 227.63243103027344 160.18948364257812 C 235.81178283691406 156.77381896972656 226.67819213867188 161.4080352783203 229.82720947265625 179.66473388671875" stroke-width="0.0" fill="rgb(211, 125, 119)" opacity="0.7477219" stroke="rgb(50, 112, 94)" stroke-opacity="0.52092683" stroke-linecap="round" stroke-linejoin="round"/>
    <path d="M 305.6385498046875 192.54347229003906 C 312.63031005859375 191.40435791015625 309.6448059082031 193.3616943359375 292.8063659667969 202.64315795898438 C 294.43438720703125 205.93917846679688 273.2165832519531 210.57101440429688 281.4547119140625 185.08615112304688 C 212.12010192871094 150.89474487304688 250.49005126953125 146.4711456298828 302.9859924316406 162.3282470703125 C 293.4455871582031 183.4706573486328 312.4696350097656 190.0249481201172 305.6385498046875 192.54347229003906" stroke-width="0.0" fill="rgb(109, 29, 56)" opacity="0.8664546" stroke="rgb(232, 42, 150)" stroke-opacity="0.063046396" stroke-linecap="round" stroke-linejoin="round"/>
    <path d="M 318.8905334472656 159.54156494140625 C 310.9673156738281 167.45870971679688 328.0696716308594 148.88333129882812 309.63836669921875 164.78781127929688 C 298.1622009277344 174.6754608154297 298.8824157714844 176.2299041748047 290.6407470703125 173.66798400878906 C 306.76275634765625 157.2272186279297 301.9823303222656 169.3932647705078 303.11639404296875 150.73362731933594 C 312.80621337890625 156.17530822753906 313.8268127441406 159.13458251953125 318.8905334472656 159.54156494140625" stroke-width="0.0" fill="rgb(37, 31, 58)" opacity="1.0" stroke="rgb(9, 117, 125)" stroke-opacity="0.4536378" stroke-linecap="round" stroke-linejoin="round"/>
    <path d="M 368.5193176269531 173.0895233154297 C 370.6021423339844 153.3677215576172 370.2890930175781 158.4453125 368.7511901855469 169.7762451171875 C 369.2102966308594 158.86422729492188 369.82427978515625 154.80673217773438 367.43994140625 135.291748046875 C 368.6190185546875 167.39138793945312 368.40228271484375 167.3903045654297 367.76531982421875 171.19517517089844 C 370.8824768066406 166.83103942871094 369.71417236328125 163.2873992919922 368.5193176269531 173.0895233154297" stroke-width="0.0" fill="rgb(153, 146, 131)" opacity="0.53737324" stroke="rgb(251, 249, 179)" stroke-opacity="0.87277335" stroke-linecap="round" stroke-linejoin="round"/>
    <path d="M 283.1204528808594 308.3594665527344 C 270.74505615234375 315.5693359375 267.1465759277344 318.33172607421875 264.4216003417969 319.2978515625 C 263.7339782714844 320.6397399902344 262.8387756347656 318.6563720703125 253.07528686523438 311.05328369140625 C 246.29489135742188 303.5964050292969 253.03526306152344 307.3441162109375 272.0267639160156 304.49853515625 C 294.7685852050781 300.27496337890625 293.4290466308594 306.4076232910156 283.1204528808594 308.3594665527344" stroke-width="0.0" fill="rgb(226, 202, 154)" opacity="0.99862695" stroke="rgb(93, 159, 212)" stroke-opacity="0.44841734" stroke-linecap="round" stroke-linejoin="round"/>
    <path d="M 273.2016906738281 231.7476348876953 C 260.80523681640625 219.13287353515625 241.8838653564453 213.69998168945312 250.21365356445312 201.5174102783203 C 246.51507568359375 218.94082641601562 270.1336975097656 218.8760528564453 265.2437744140625 228.35125732421875 C 266.6708984375 219.99478149414062 265.7518310546875 227.6996307373047 264.8214416503906 222.28831481933594 C 274.072998046875 231.84915161132812 280.5377197265625 236.54673767089844 273.2016906738281 231.7476348876953" stroke-width="0.0" fill="rgb(169, 170, 149)" opacity="0.9807599" stroke="rgb(26, 34, 239)" stroke-opacity="0.042086918" stroke-linecap="round" stroke-linejoin="round"/>
    <path d="M 172.40415954589844 306.9115295410156 C 177.3170623779297 309.0443115234375 164.7044219970703 307.7575378417969 156.43394470214844 304.5123596191406 C 168.72671508789062 307.4733581542969 141.58338928222656 305.1426696777344 119.39202880859375 270.5219421386719 C 173.75979614257812 308.2010803222656 175.19810485839844 310.0425720214844 166.05599975585938 303.1170959472656 C 165.89039611816406 302.53155517578125 169.1155548095703 304.3269348144531 172.40415954589844 306.9115295410156" stroke-width="0.0" fill="rgb(23, 15, 39)" opacity="1.0" stroke="rgb(114, 23, 29)" stroke-opacity="0.4855877" stroke-linecap="round" stroke-linejoin="round"/>
    <path d="M 122.71398162841797 134.78363037109375 C 122.56855010986328 134.52577209472656 123.27890014648438 136.1654815673828 125.95274353027344 142.3076934814453 C 128.37535095214844 140.01931762695312 126.71747589111328 127.91417694091797 126.0942153930664 137.49713134765625 C 126.86848449707031 144.6295928955078 126.26202392578125 142.76504516601562 124.0309829711914 138.2359619140625 C 123.28291320800781 135.16494750976562 125.04502868652344 141.22061157226562 122.71398162841797 134.78363037109375" stroke-width="0.0" fill="rgb(134, 118, 104)" opacity="0.9139056" stroke="rgb(77, 184, 54)" stroke-opacity="0.71936595" stroke-linecap="round" stroke-linejoin="round"/>
    <path d="M 209.91595458984375 339.7319641113281 C 207.95455932617188 327.6977844238281 210.87387084960938 337.0000305175781 247.05592346191406 363.85211181640625 C 210.18179321289062 326.6230773925781 207.18089294433594 342.2559509277344 215.53530883789062 315.8543701171875 C 208.45504760742188 331.6371154785156 206.781982421875 334.7085876464844 206.77664184570312 339.6521911621094 C 210.4182891845703 336.21356201171875 208.83502197265625 333.519775390625 209.91595458984375 339.7319641113281" stroke-width="0.0" fill="rgb(218, 56, 86)" opacity="0.77821374" stroke="rgb(210, 106, 197)" stroke-opacity="0.69723713" stroke-linecap="round" stroke-linejoin="round"/>
  </g>
</svg>
