<?xml version="1.0" ?>
<svg xmlns="http://www.w3.org/2000/svg" version="1.1" width="412" height="512">
  <defs/>
  <g>
    <path d="M 233.00804138183594 386.208251953125 C 245.79669189453125 458.89544677734375 242.81407165527344 469.1481628417969 261.3039245605469 513.175537109375 C 90.10486602783203 515.8814697265625 86.583251953125 512.2111206054688 63.0808219909668 525.537353515625 C 54.34823226928711 366.1308898925781 58.36742401123047 361.6492919921875 70.74561309814453 334.27703857421875 C 192.7484588623047 322.7049865722656 189.06455993652344 364.67547607421875 233.00804138183594 386.208251953125" stroke-width="0.0" fill="rgb(24, 16, 39)" opacity="0.9999834" stroke="rgb(163, 25, 31)" stroke-opacity="0.08845723" stroke-linecap="round" stroke-linejoin="round"/>
    <path d="M 152.52978515625 170.7772674560547 C 145.53465270996094 143.5865478515625 152.72096252441406 173.98953247070312 123.19567108154297 261.166748046875 C 79.17585754394531 308.5560302734375 20.565792083740234 188.37298583984375 44.265079498291016 112.2655258178711 C 85.33995819091797 -28.810922622680664 254.4005889892578 -24.87406349182129 136.32582092285156 98.30513000488281 C 110.97718811035156 171.28179931640625 146.1039581298828 137.27955627441406 152.52978515625 170.7772674560547" stroke-width="0.0" fill="rgb(255, 229, 170)" opacity="0.84771645" stroke="rgb(32, 199, 121)" stroke-opacity="0.4906896" stroke-linecap="round" stroke-linejoin="round"/>
    <path d="M 360.4630126953125 212.85989379882812 C 315.2409973144531 332.8572692871094 197.8568878173828 343.5973815917969 271.63653564453125 257.84326171875 C 349.07891845703125 131.81407165527344 297.5819396972656 35.48968505859375 191.00592041015625 55.04050064086914 C 73.59212493896484 122.82292175292969 45.75565719604492 -31.994422912597656 252.631103515625 -2.487769365310669 C 336.5260009765625 19.775819778442383 389.7342529296875 116.01495361328125 360.4630126953125 212.85989379882812" stroke-width="0.0" fill="rgb(232, 206, 156)" opacity="0.9556026" stroke="rgb(42, 172, 194)" stroke-opacity="0.22653599" stroke-linecap="round" stroke-linejoin="round"/>
    <path d="M 242.99136352539062 370.7778625488281 C 287.45989990234375 418.29998779296875 336.3586120605469 487.1204528808594 268.73284912109375 416.8337097167969 C 202.89952087402344 363.43634033203125 179.19932556152344 343.3866271972656 128.91494750976562 317.41326904296875 C 130.8385467529297 294.4390563964844 160.65670776367188 335.88201904296875 224.8128204345703 262.12689208984375 C 210.3751983642578 375.97930908203125 189.81787109375 315.8925476074219 242.99136352539062 370.7778625488281" stroke-width="0.0" fill="rgb(255, 47, 78)" opacity="0.6523863" stroke="rgb(199, 157, 123)" stroke-opacity="0.04403293" stroke-linecap="round" stroke-linejoin="round"/>
    <path d="M 313.5204772949219 121.20570373535156 C 329.35137939453125 173.63217163085938 296.57684326171875 181.07070922851562 309.4943542480469 154.81808471679688 C 249.33383178710938 116.04550170898438 294.9846496582031 123.20313262939453 248.74237060546875 84.60926818847656 C 266.6595458984375 65.53315734863281 228.6057891845703 46.42892074584961 267.61431884765625 64.64178466796875 C 293.60626220703125 78.8888168334961 308.3933410644531 102.71570587158203 313.5204772949219 121.20570373535156" stroke-width="0.0" fill="rgb(158, 34, 55)" opacity="1.0" stroke="rgb(188, 39, 241)" stroke-opacity="0.38316822" stroke-linecap="round" stroke-linejoin="round"/>
    <path d="M 249.2504425048828 113.67298126220703 C 257.4407958984375 144.1077117919922 169.9069366455078 138.44857788085938 213.06719970703125 124.76013946533203 C 193.372802734375 124.3204574584961 172.35671997070312 127.42235565185547 168.55946350097656 106.51016235351562 C 171.65924072265625 88.96599578857422 189.1968231201172 84.00859832763672 222.85365295410156 87.51055908203125 C 183.38461303710938 111.446044921875 237.16098022460938 80.7773666381836 249.2504425048828 113.67298126220703" stroke-width="0.0" fill="rgb(255, 143, 61)" opacity="0.9356541" stroke="rgb(139, 92, 87)" stroke-opacity="0.044563815" stroke-linecap="round" stroke-linejoin="round"/>
    <path d="M 277.19097900390625 257.082763671875 C 302.97406005859375 296.1838073730469 276.24163818359375 304.8979187011719 248.7294158935547 306.52764892578125 C 216.0099334716797 282.9075927734375 214.5002899169922 273.2734680175781 233.03794860839844 266.133056640625 C 243.93820190429688 245.57852172851562 223.8496551513672 259.3318176269531 241.62173461914062 240.63058471679688 C 250.02230834960938 245.4213104248047 258.3115539550781 248.79159545898438 277.19097900390625 257.082763671875" stroke-width="0.0" fill="rgb(227, 202, 153)" opacity="0.992933" stroke="rgb(64, 142, 134)" stroke-opacity="0.5752365" stroke-linecap="round" stroke-linejoin="round"/>
    <path d="M 214.09934997558594 276.45513916015625 C 199.84817504882812 335.66986083984375 208.42771911621094 308.9480895996094 173.41696166992188 318.95819091796875 C 140.4559783935547 298.116455078125 166.95053100585938 315.1153869628906 168.00929260253906 303.4277648925781 C 175.56101989746094 263.6457824707031 176.24142456054688 252.16705322265625 177.2776336669922 250.37696838378906 C 195.24903869628906 262.75115966796875 203.81222534179688 270.4368591308594 214.09934997558594 276.45513916015625" stroke-width="0.0" fill="rgb(126, 29, 57)" opacity="1.0" stroke="rgb(222, 222, 136)" stroke-opacity="0.16603379" stroke-linecap="round" stroke-linejoin="round"/>
    <path d="M 294.47216796875 212.11656188964844 C 287.34368896484375 233.1283721923828 289.18548583984375 236.6281280517578 272.3973693847656 247.3623504638672 C 260.23114013671875 239.42410278320312 258.3869934082031 237.1717071533203 263.6650085449219 231.59609985351562 C 274.1857604980469 182.73985290527344 266.2645568847656 177.1728973388672 280.9228210449219 178.4324188232422 C 276.0984191894531 238.77847290039062 313.3315124511719 167.59727478027344 294.47216796875 212.11656188964844" stroke-width="0.0" fill="rgb(215, 62, 73)" opacity="0.727099" stroke="rgb(72, 205, 196)" stroke-opacity="0.07317654" stroke-linecap="round" stroke-linejoin="round"/>
    <path d="M 343.8820495605469 351.88641357421875 C 403.8992004394531 407.3327331542969 396.8399963378906 400.7320251464844 335.0609436035156 351.475341796875 C 319.92822265625 339.0126037597656 317.8849792480469 336.6163024902344 294.1372375488281 316.26123046875 C 258.05426025390625 286.33740234375 274.6640625 284.8565368652344 311.2353515625 321.84051513671875 C 320.6822509765625 330.5882873535156 323.83795166015625 333.6773986816406 343.8820495605469 351.88641357421875" stroke-width="0.0" fill="rgb(229, 205, 157)" opacity="0.9921344" stroke="rgb(126, 107, 0)" stroke-opacity="0.88322985" stroke-linecap="round" stroke-linejoin="round"/>
    <path d="M 162.44699096679688 127.28034210205078 C 185.04342651367188 150.5458526611328 203.7697296142578 151.5951385498047 178.51197814941406 145.82037353515625 C 171.03341674804688 143.70883178710938 153.8516082763672 142.9051971435547 167.4576873779297 132.4457550048828 C 176.26715087890625 140.42337036132812 122.88311004638672 91.95889282226562 170.52723693847656 130.8601837158203 C 184.75900268554688 126.0562973022461 188.96153259277344 151.3787841796875 162.44699096679688 127.28034210205078" stroke-width="0.0" fill="rgb(243, 95, 97)" opacity="0.7594483" stroke="rgb(198, 221, 96)" stroke-opacity="0.70981747" stroke-linecap="round" stroke-linejoin="round"/>
    <path d="M 210.49278259277344 161.7586212158203 C 205.8749542236328 165.8053741455078 222.8311767578125 165.5420379638672 207.49032592773438 167.9799346923828 C 195.2073974609375 173.5832977294922 184.18841552734375 165.83241271972656 184.87533569335938 156.07493591308594 C 185.8102264404297 135.53749084472656 182.84413146972656 151.38314819335938 193.2509307861328 142.2341766357422 C 205.11988830566406 136.89991760253906 217.08546447753906 149.48809814453125 210.49278259277344 161.7586212158203" stroke-width="0.0" fill="rgb(184, 184, 155)" opacity="0.9213409" stroke="rgb(41, 153, 170)" stroke-opacity="0.62317556" stroke-linecap="round" stroke-linejoin="round"/>
    <path d="M 279.89324951171875 134.17852783203125 C 274.50714111328125 140.27978515625 289.15673828125 153.48995971679688 227.06361389160156 159.3441619873047 C 233.55679321289062 148.9598388671875 267.2474670410156 156.15411376953125 272.17291259765625 139.31494140625 C 264.25921630859375 152.44813537597656 277.4360656738281 139.3131103515625 274.6097412109375 122.51089477539062 C 287.6488037109375 142.01380920410156 301.5843505859375 149.1780548095703 279.89324951171875 134.17852783203125" stroke-width="0.0" fill="rgb(180, 37, 59)" opacity="0.8558924" stroke="rgb(225, 199, 225)" stroke-opacity="0.5878476" stroke-linecap="round" stroke-linejoin="round"/>
    <path d="M 282.118896484375 245.57130432128906 C 290.3314208984375 249.32521057128906 265.8159484863281 263.22100830078125 276.3341979980469 250.7985076904297 C 253.10748291015625 233.97921752929688 247.69520568847656 231.57615661621094 246.12863159179688 228.5043487548828 C 262.0618591308594 228.13644409179688 263.54644775390625 228.3819580078125 268.5278015136719 228.30148315429688 C 252.1191864013672 228.37461853027344 276.8514709472656 223.92611694335938 282.118896484375 245.57130432128906" stroke-width="0.0" fill="rgb(159, 34, 55)" opacity="1.0" stroke="rgb(132, 58, 166)" stroke-opacity="0.2509149" stroke-linecap="round" stroke-linejoin="round"/>
    <path d="M 240.89886474609375 239.75474548339844 C 233.8624725341797 254.2794189453125 235.46778869628906 273.26959228515625 233.21669006347656 265.72735595703125 C 213.86526489257812 246.76437377929688 205.7284393310547 238.0906982421875 204.88963317871094 236.8988800048828 C 214.97023010253906 236.57765197753906 228.0221710205078 237.4713134765625 221.95408630371094 237.5362091064453 C 233.77435302734375 236.6997833251953 222.60104370117188 225.21414184570312 240.89886474609375 239.75474548339844" stroke-width="0.0" fill="rgb(255, 39, 72)" opacity="0.41418314" stroke="rgb(188, 100, 48)" stroke-opacity="0.46189913" stroke-linecap="round" stroke-linejoin="round"/>
  </g>
</svg>
