<?xml version="1.0" ?>
<svg xmlns="http://www.w3.org/2000/svg" version="1.1" width="512" height="512">
  <defs/>
  <g>
    <path d="M 0.0 0.0 L 512.0 0.0 L 512.0 512.0 L 0.0 512.0 L 0.0 0.0" stroke-width="0.0" fill="rgb(255, 255, 255)" opacity="1.0" stroke="rgb(0, 0, 0)" stroke-opacity="0.0" stroke-linecap="round" stroke-linejoin="round"/>
    <path d="M 41.0 148.0 L 34.0 165.0 C 38.16899108886719 190.3333282470703 38.467247009277344 215.6666717529297 29.0 241.0 L 30.0 254.0 C 20.0 260.703369140625 10.0 262.5492248535156 0.0 270.0 L 0.0 295.0 C 8.98397445678711 298.03704833984375 15.78914737701416 289.60357666015625 24.0 294.0 C 21.832805633544922 317.6666564941406 27.60730743408203 341.3333435058594 16.0 365.0 C 20.27295684814453 385.0 11.973709106445312 405.0 16.0 425.0 C 38.0 424.8792419433594 60.0 425.59698486328125 82.0 423.0 C 140.6666717529297 427.5027770996094 199.3333282470703 421.1356506347656 258.0 426.0 C 337.6666564941406 421.35736083984375 417.3333435058594 426.0028381347656 497.0 423.0 C 494.4986267089844 375.3333435058594 487.27349853515625 327.6666564941406 483.0 280.0 C 477.74755859375 242.3646240234375 428.7591552734375 227.09042358398438 400.0 217.0 C 383.0 214.5326690673828 366.0 208.33331298828125 349.0 208.0 C 342.63531494140625 210.1469268798828 346.8529968261719 215.32521057128906 343.0 219.0 L 321.0 218.0 C 315.1730651855469 218.62506103515625 316.84307861328125 225.07858276367188 312.0 227.0 C 303.5460205078125 224.96456909179688 288.2732238769531 231.01693725585938 286.0 219.0 C 274.6666564941406 206.10650634765625 263.3333435058594 212.51296997070312 252.0 211.0 C 243.59768676757812 198.62725830078125 245.56619262695312 183.71998596191406 236.0 173.0 C 236.70986938476562 159.0 240.66220092773438 145.0 233.0 131.0 C 229.0 127.55565643310547 225.0 129.59481811523438 221.0 126.0 L 206.0 76.0 C 193.04103088378906 68.89225769042969 196.62460327148438 55.61119842529297 184.0 54.0 C 146.85760498046875 65.24140167236328 107.52941131591797 82.75257110595703 72.0 112.0 C 59.41518020629883 123.66666412353516 49.92849349975586 135.3333282470703 41.0 148.0" stroke-width="2.0" fill="rgb(180, 135, 123)" opacity="1.0" stroke="rgb(0, 0, 0)" stroke-opacity="0.0" stroke-linecap="round" stroke-linejoin="round"/>
    <path d="M 511.0 427.0 C 340.6666564941406 426.3021240234375 170.3333282470703 428.5887145996094 0.0 428.0 L 0.0 511.0 L 511.0 511.0 L 511.0 427.0" stroke-width="2.0" fill="rgb(229, 174, 127)" opacity="1.0" stroke="rgb(0, 0, 0)" stroke-opacity="0.0" stroke-linecap="round" stroke-linejoin="round"/>
    <path d="M 511.0 449.0 C 400.0 449.54400634765625 289.0 449.7428283691406 178.0 451.0 C 144.0 465.0296325683594 110.0 485.3851013183594 76.0 500.0 C 70.65149688720703 506.1187744140625 62.68696212768555 505.2430419921875 59.0 511.0 L 511.0 511.0 L 511.0 449.0" stroke-width="2.0" fill="rgb(245, 161, 127)" opacity="1.0" stroke="rgb(0, 0, 0)" stroke-opacity="0.0" stroke-linecap="round" stroke-linejoin="round"/>
    <path d="M 347.0 208.0 C 337.5892333984375 227.39646911621094 370.4912109375 210.86810302734375 368.0 229.0 L 375.0 232.0 L 376.0 272.0 C 383.75738525390625 289.44049072265625 387.1549987792969 304.1603088378906 393.0 320.0 C 404.0 321.4388427734375 415.0 322.7087097167969 426.0 323.0 C 431.8590087890625 336.6666564941406 430.0527038574219 350.3333435058594 431.0 364.0 L 454.0 423.0 L 497.0 423.0 C 494.02447509765625 375.6666564941406 486.3912658691406 328.3333435058594 483.0 281.0 C 482.6170654296875 258.3491516113281 450.9048767089844 235.42764282226562 431.0 228.0 C 403.3333435058594 218.13507080078125 375.6666564941406 209.89630126953125 347.0 208.0" stroke-width="2.0" fill="rgb(153, 95, 89)" opacity="1.0" stroke="rgb(0, 0, 0)" stroke-opacity="0.0" stroke-linecap="round" stroke-linejoin="round"/>
    <path d="M 511.0 0.0 L 476.0 0.0 C 447.9287109375 16.417173385620117 434.3579406738281 45.44921112060547 426.0 68.0 C 403.9264221191406 63.633235931396484 377.90411376953125 61.051334381103516 359.0 88.0 C 352.9267578125 97.0 350.0994873046875 106.0 343.0 115.0 C 326.3333435058594 109.4930419921875 309.6666564941406 120.4278335571289 293.0 140.0 L 282.0 155.0 C 358.0 132.8407440185547 434.0 103.840576171875 510.0 81.0 L 511.0 0.0" stroke-width="2.0" fill="rgb(243, 228, 205)" opacity="1.0" stroke="rgb(0, 0, 0)" stroke-opacity="0.0" stroke-linecap="round" stroke-linejoin="round"/>
    <path d="M 511.0 0.0 C 494.0 0.7148545384407043 477.0 -4.717148780822754 460.0 12.0 C 443.1730041503906 27.744417190551758 434.69122314453125 47.60942840576172 428.0 65.0 C 428.5011901855469 73.33980560302734 435.9169921875 82.44845581054688 436.0 92.0 C 438.5860290527344 100.05551147460938 446.4715576171875 99.46137237548828 452.0 99.0 L 511.0 80.0 L 511.0 0.0" stroke-width="2.0" fill="rgb(246, 229, 204)" opacity="1.0" stroke="rgb(0, 0, 0)" stroke-opacity="0.0" stroke-linecap="round" stroke-linejoin="round"/>
    <path d="M 189.0 440.0 L 166.0 441.0 C 110.66666412353516 464.4386291503906 55.33333206176758 483.9694519042969 0.0 505.0 L 0.0 511.0 L 56.0 511.0 C 98.33370208740234 484.9096374511719 144.99972534179688 468.270751953125 189.0 440.0" stroke-width="2.0" fill="rgb(221, 200, 140)" opacity="1.0" stroke="rgb(0, 0, 0)" stroke-opacity="0.0" stroke-linecap="round" stroke-linejoin="round"/>
    <path d="M 320.0 351.0 C 317.31878662109375 355.4892883300781 321.08447265625 365.27508544921875 315.0 364.0 C 318.2043151855469 383.6666564941406 317.329345703125 403.3333435058594 318.0 423.0 C 325.6000671386719 427.186767578125 318.93646240234375 417.2296142578125 324.0 414.0 C 331.5393371582031 413.5446472167969 343.903564453125 412.039306640625 343.0 424.0 L 368.0 424.0 L 369.0 419.0 C 358.9637145996094 396.3333435058594 349.3887634277344 373.6666564941406 341.0 351.0 L 320.0 351.0" stroke-width="2.0" fill="rgb(244, 162, 129)" opacity="1.0" stroke="rgb(0, 0, 0)" stroke-opacity="0.0" stroke-linecap="round" stroke-linejoin="round"/>
    <path d="M 289.0 356.0 C 283.2519836425781 358.70660400390625 278.8417053222656 364.6810607910156 277.0 370.0 L 277.0 424.0 L 316.0 424.0 C 315.5390319824219 405.0 317.36541748046875 386.0 314.0 367.0 C 309.0356750488281 356.3319091796875 298.0025634765625 353.2093811035156 289.0 356.0" stroke-width="2.0" fill="rgb(26, 34, 72)" opacity="1.0" stroke="rgb(0, 0, 0)" stroke-opacity="0.0" stroke-linecap="round" stroke-linejoin="round"/>
    <path d="M 224.0 358.0 C 219.431884765625 359.856689453125 213.85667419433594 365.431884765625 212.0 370.0 L 210.0 423.0 C 222.3333282470703 427.10870361328125 234.6666717529297 422.3235168457031 247.0 424.0 C 244.57420349121094 402.6666564941406 256.0277099609375 381.3333435058594 240.0 360.0 C 235.0 357.00543212890625 230.0 358.2093200683594 224.0 358.0" stroke-width="2.0" fill="rgb(26, 34, 72)" opacity="1.0" stroke="rgb(0, 0, 0)" stroke-opacity="0.0" stroke-linecap="round" stroke-linejoin="round"/>
    <path d="M 22.0 296.0 C 14.666666984558105 296.614013671875 7.333333492279053 298.5030212402344 0.0 301.0 L 0.0 425.0 L 12.0 424.0 C 13.368873596191406 404.6666564941406 17.96324348449707 385.3333435058594 14.0 366.0 C 25.709476470947266 343.0 19.86140251159668 320.0 22.0 296.0" stroke-width="2.0" fill="rgb(79, 140, 211)" opacity="1.0" stroke="rgb(0, 0, 0)" stroke-opacity="0.0" stroke-linecap="round" stroke-linejoin="round"/>
    <path d="M 342.0 268.0 C 325.1007995605469 270.93310546875 327.738525390625 289.4290466308594 328.0 300.0 C 330.6983642578125 305.3150939941406 336.7381896972656 298.6849060058594 341.0 304.0 C 342.24176025390625 310.01763916015625 337.4101867675781 317.86328125 346.0 321.0 C 345.21337890625 331.7337341308594 348.267822265625 343.76446533203125 343.0 353.0 L 361.0 397.0 C 362.0914001464844 357.0005187988281 359.57122802734375 321.33294677734375 359.0 283.0 C 358.3248596191406 275.66632080078125 350.0503234863281 268.06011962890625 342.0 268.0" stroke-width="2.0" fill="rgb(29, 35, 69)" opacity="1.0" stroke="rgb(0, 0, 0)" stroke-opacity="0.0" stroke-linecap="round" stroke-linejoin="round"/>
    <path d="M 395.0 348.0 C 395.0314025878906 357.716552734375 399.24053955078125 365.7687072753906 410.0 372.0 C 418.14617919921875 389.0 416.043212890625 406.0 417.0 423.0 L 452.0 424.0 C 446.82330322265625 399.6666564941406 427.1951599121094 375.3333435058594 430.0 351.0 C 418.6666564941406 347.2413330078125 407.3333435058594 349.12408447265625 395.0 348.0" stroke-width="2.0" fill="rgb(242, 177, 139)" opacity="1.0" stroke="rgb(0, 0, 0)" stroke-opacity="0.0" stroke-linecap="round" stroke-linejoin="round"/>
    <path d="M 345.0 329.0 C 329.63726806640625 324.3650817871094 310.0218200683594 328.30975341796875 293.0 327.0 L 193.0 333.0 L 192.0 345.0 C 242.6666717529297 343.3839111328125 293.3333435058594 340.2536926269531 344.0 340.0 L 345.0 329.0" stroke-width="2.0" fill="rgb(207, 119, 90)" opacity="1.0" stroke="rgb(0, 0, 0)" stroke-opacity="0.0" stroke-linecap="round" stroke-linejoin="round"/>
    <path d="M 173.0 67.0 C 162.64205932617188 69.62835693359375 151.8927459716797 72.93904113769531 149.0 85.0 C 149.9438018798828 105.66666412353516 146.7362518310547 126.33333587646484 148.0 147.0 L 175.0 138.0 L 177.0 72.0 L 173.0 67.0" stroke-width="2.0" fill="rgb(244, 165, 131)" opacity="1.0" stroke="rgb(0, 0, 0)" stroke-opacity="0.0" stroke-linecap="round" stroke-linejoin="round"/>
    <path d="M 323.0 254.0 L 330.0 272.0 C 339.3333435058594 265.8518371582031 348.6666564941406 263.7835388183594 358.0 276.0 C 362.2710266113281 291.3333435058594 359.50775146484375 306.6666564941406 362.0 322.0 C 371.6666564941406 321.3421630859375 381.3333435058594 323.67559814453125 391.0 320.0 C 384.3704833984375 298.6666564941406 373.85150146484375 277.3333435058594 374.0 256.0 C 357.3333435058594 256.0741882324219 340.6666564941406 254.09829711914062 323.0 254.0" stroke-width="2.0" fill="rgb(246, 200, 159)" opacity="1.0" stroke="rgb(0, 0, 0)" stroke-opacity="0.0" stroke-linecap="round" stroke-linejoin="round"/>
    <path d="M 241.0 256.0 C 229.8724822998047 247.81954956054688 211.93685913085938 262.05474853515625 212.0 275.0 L 213.0 309.0 C 224.04847717285156 306.1507263183594 237.60098266601562 308.86431884765625 247.0 305.0 C 248.57516479492188 308.06536865234375 247.79737854003906 305.9542541503906 250.0 304.0 C 247.5792236328125 288.3333435058594 256.25592041015625 272.6666564941406 241.0 256.0" stroke-width="2.0" fill="rgb(26, 35, 72)" opacity="1.0" stroke="rgb(0, 0, 0)" stroke-opacity="0.0" stroke-linecap="round" stroke-linejoin="round"/>
    <path d="M 392.0 367.0 C 387.6404724121094 368.7376708984375 382.7376708984375 373.6404724121094 381.0 378.0 L 382.0 423.0 L 415.0 424.0 C 415.61090087890625 408.3333435058594 415.062255859375 392.6666564941406 412.0 377.0 C 407.4767761230469 368.82037353515625 399.1382141113281 365.487060546875 392.0 367.0" stroke-width="2.0" fill="rgb(25, 34, 71)" opacity="1.0" stroke="rgb(0, 0, 0)" stroke-opacity="0.0" stroke-linecap="round" stroke-linejoin="round"/>
    <path d="M 166.0 362.0 C 159.91107177734375 363.18310546875 154.35043334960938 370.6564636230469 153.0 376.0 L 151.0 424.0 L 181.0 425.0 C 182.80859375 407.3333435058594 181.93511962890625 389.6666564941406 182.0 372.0 C 179.62623596191406 365.5513916015625 172.27223205566406 360.9907531738281 166.0 362.0" stroke-width="2.0" fill="rgb(25, 34, 71)" opacity="1.0" stroke="rgb(0, 0, 0)" stroke-opacity="0.0" stroke-linecap="round" stroke-linejoin="round"/>
    <path d="M 289.0 251.0 C 317.6666564941406 250.13587951660156 346.3333435058594 255.80169677734375 375.0 254.0 L 373.0 237.0 C 345.3333435058594 235.0862274169922 317.6666564941406 231.85336303710938 290.0 232.0 L 289.0 251.0" stroke-width="2.0" fill="rgb(198, 108, 82)" opacity="1.0" stroke="rgb(0, 0, 0)" stroke-opacity="0.0" stroke-linecap="round" stroke-linejoin="round"/>
    <path d="M 177.0 263.0 C 168.8857879638672 260.19024658203125 157.82937622070312 266.038330078125 154.0 276.0 C 153.3158721923828 289.6666564941406 150.54197692871094 303.3333435058594 153.0 317.0 C 164.0 314.4263916015625 175.0 314.58984375 186.0 311.0 C 182.75657653808594 295.9291687011719 193.65151977539062 275.7630310058594 177.0 263.0" stroke-width="2.0" fill="rgb(26, 34, 71)" opacity="1.0" stroke="rgb(0, 0, 0)" stroke-opacity="0.0" stroke-linecap="round" stroke-linejoin="round"/>
    <path d="M 362.0 324.0 L 363.0 345.0 C 385.0 345.76727294921875 407.0 348.52618408203125 429.0 347.0 L 427.0 325.0 C 404.5675354003906 320.8925476074219 385.20233154296875 326.4688720703125 362.0 324.0" stroke-width="2.0" fill="rgb(199, 112, 86)" opacity="1.0" stroke="rgb(0, 0, 0)" stroke-opacity="0.0" stroke-linecap="round" stroke-linejoin="round"/>
    <path d="M 181.0 177.0 C 172.8629913330078 174.09738159179688 162.1533966064453 178.6231231689453 157.0 189.0 C 155.84910583496094 202.0 153.4778594970703 215.0 156.0 228.0 C 166.38755798339844 223.83926391601562 179.25978088378906 223.699462890625 188.0 219.0 C 185.60565185546875 205.63247680664062 195.0060577392578 189.71286010742188 181.0 177.0" stroke-width="2.0" fill="rgb(56, 94, 151)" opacity="1.0" stroke="rgb(0, 0, 0)" stroke-opacity="0.0" stroke-linecap="round" stroke-linejoin="round"/>
    <path d="M 95.0 109.0 C 86.675048828125 108.58936309814453 68.59085083007812 123.76248168945312 79.0 129.0 L 74.0 132.0 C 74.857666015625 149.6666717529297 71.88819885253906 167.3333282470703 71.0 185.0 C 79.0 182.84378051757812 87.0 176.54454040527344 95.0 171.0 C 96.16862487792969 150.02980041503906 96.5583724975586 129.8242645263672 95.0 109.0" stroke-width="2.0" fill="rgb(244, 166, 133)" opacity="1.0" stroke="rgb(0, 0, 0)" stroke-opacity="0.0" stroke-linecap="round" stroke-linejoin="round"/>
    <path d="M 394.0 440.0 L 401.0 449.0 L 511.0 448.0 L 511.0 439.0 L 413.0 435.0 C 408.4675598144531 440.773681640625 401.0428771972656 439.9648132324219 394.0 440.0" stroke-width="2.0" fill="rgb(231, 204, 151)" opacity="1.0" stroke="rgb(0, 0, 0)" stroke-opacity="0.0" stroke-linecap="round" stroke-linejoin="round"/>
    <path d="M 188.0 67.0 L 186.0 133.0 C 187.26922607421875 135.5042724609375 187.76922607421875 135.05982971191406 190.0 135.0 C 198.3401336669922 130.42835998535156 209.32424926757812 132.01669311523438 216.0 127.0 L 199.0 71.0 L 188.0 67.0" stroke-width="2.0" fill="rgb(241, 161, 129)" opacity="1.0" stroke="rgb(0, 0, 0)" stroke-opacity="0.0" stroke-linecap="round" stroke-linejoin="round"/>
    <path d="M 352.0 131.0 C 348.0591125488281 128.12501525878906 346.99932861328125 118.94011688232422 342.0 116.0 C 320.9720764160156 105.2627944946289 297.9471740722656 134.35391235351562 281.0 155.0 C 304.6666564941406 149.32528686523438 328.3333435058594 139.919189453125 352.0 131.0" stroke-width="2.0" fill="rgb(238, 227, 209)" opacity="1.0" stroke="rgb(0, 0, 0)" stroke-opacity="0.0" stroke-linecap="round" stroke-linejoin="round"/>
    <path d="M 279.0 215.0 C 278.7323303222656 225.6666717529297 279.4775085449219 236.3333282470703 276.0 247.0 C 282.41119384765625 265.3333435058594 286.7454833984375 283.6666564941406 295.0 302.0 L 311.0 302.0 C 316.31231689453125 288.6929626464844 309.8771057128906 263.1844482421875 290.0 267.0 L 285.0 259.0 C 286.23333740234375 247.77432250976562 290.41168212890625 234.69723510742188 287.0 221.0 L 279.0 215.0" stroke-width="2.0" fill="rgb(29, 36, 70)" opacity="1.0" stroke="rgb(0, 0, 0)" stroke-opacity="0.0" stroke-linecap="round" stroke-linejoin="round"/>
    <path d="M 120.0 368.0 C 114.65646362304688 366.2979736328125 107.18309783935547 373.2441711425781 106.0 379.0 C 104.7961654663086 394.3333435058594 102.97834014892578 409.6666564941406 104.0 425.0 L 126.0 424.0 C 124.87828826904297 407.0 129.38238525390625 390.0 126.0 373.0 C 123.59060668945312 370.72052001953125 123.82637786865234 369.2408447265625 120.0 368.0" stroke-width="2.0" fill="rgb(29, 35, 70)" opacity="1.0" stroke="rgb(0, 0, 0)" stroke-opacity="0.0" stroke-linecap="round" stroke-linejoin="round"/>
    <path d="M 511.0 452.0 C 504.55438232421875 452.3535461425781 501.15252685546875 456.4620666503906 495.0 455.0 C 495.85687255859375 461.4928894042969 500.40814208984375 453.5071105957031 504.0 460.0 L 504.0 487.0 C 512.8214111328125 484.6392822265625 507.7120056152344 499.0248718261719 505.0 491.0 C 504.8528747558594 498.1615295410156 502.4804382324219 497.0051574707031 500.0 496.0 C 505.81591796875 500.17828369140625 502.8535461425781 501.69708251953125 498.0 504.0 C 491.39697265625 502.2884216308594 500.9919738769531 496.3667297363281 493.0 493.0 C 492.88299560546875 490.5906066894531 497.31390380859375 490.8263854980469 494.0 488.0 C 488.9232482910156 487.38934326171875 494.9266357421875 493.4903564453125 491.0 496.0 C 486.8728332519531 497.32501220703125 482.2007141113281 490.0106506347656 489.0 491.0 C 487.1062316894531 484.4367980957031 477.1654052734375 491.0116271972656 472.0 488.0 C 470.02392578125 493.2916259765625 476.53570556640625 491.02899169921875 478.0 490.0 C 480.4944763183594 496.17431640625 482.1091613769531 488.37445068359375 484.0 494.0 C 477.0904541015625 499.2680969238281 460.3826599121094 490.336669921875 464.0 503.0 C 459.6358337402344 505.19866943359375 450.6573181152344 502.17901611328125 456.0 509.0 C 459.3333435058594 509.5694885253906 462.6666564941406 504.949951171875 466.0 511.0 L 511.0 511.0 L 511.0 452.0" stroke-width="2.0" fill="rgb(244, 159, 125)" opacity="1.0" stroke="rgb(0, 0, 0)" stroke-opacity="0.0" stroke-linecap="round" stroke-linejoin="round"/>
    <path d="M 127.0 276.0 C 120.67848205566406 273.60931396484375 112.468994140625 277.4856262207031 109.0 285.0 C 106.27970886230469 298.6666564941406 106.50325775146484 312.3333435058594 106.0 326.0 L 131.0 321.0 C 129.7365264892578 306.3333435058594 136.93275451660156 291.6666564941406 127.0 276.0" stroke-width="2.0" fill="rgb(28, 35, 71)" opacity="1.0" stroke="rgb(0, 0, 0)" stroke-opacity="0.0" stroke-linecap="round" stroke-linejoin="round"/>
    <path d="M 286.0 253.0 C 286.288330078125 257.0 287.13055419921875 261.0 290.0 265.0 C 297.5777282714844 264.28363037109375 307.3490905761719 267.78143310546875 312.0 277.0 L 313.0 303.0 L 326.0 302.0 C 325.7894592285156 291.6666564941406 326.0981750488281 281.3333435058594 329.0 271.0 L 321.0 254.0 L 286.0 253.0" stroke-width="2.0" fill="rgb(202, 128, 107)" opacity="1.0" stroke="rgb(0, 0, 0)" stroke-opacity="0.0" stroke-linecap="round" stroke-linejoin="round"/>
    <path d="M 131.0 194.0 C 123.62201690673828 190.81040954589844 115.75381469726562 196.8080596923828 112.0 205.0 C 110.3420639038086 217.3333282470703 109.28097534179688 229.6666717529297 110.0 242.0 C 118.33333587646484 239.3287811279297 126.66666412353516 238.0289764404297 135.0 233.0 C 133.04437255859375 220.3333282470703 140.40281677246094 207.6666717529297 131.0 194.0" stroke-width="2.0" fill="rgb(49, 79, 129)" opacity="1.0" stroke="rgb(0, 0, 0)" stroke-opacity="0.0" stroke-linecap="round" stroke-linejoin="round"/>
    <path d="M 204.0 346.0 C 198.80419921875 346.68084716796875 181.59559631347656 344.4695129394531 191.0 355.0 L 189.0 425.0 L 201.0 424.0 C 201.955810546875 398.3333435058594 199.34344482421875 372.6666564941406 204.0 346.0" stroke-width="2.0" fill="rgb(248, 218, 189)" opacity="1.0" stroke="rgb(0, 0, 0)" stroke-opacity="0.0" stroke-linecap="round" stroke-linejoin="round"/>
    <path d="M 276.0 226.0 C 249.0 224.29598999023438 222.0 231.11302185058594 195.0 234.0 C 191.05599975585938 237.3333282470703 193.8236846923828 240.6666717529297 193.0 244.0 C 220.3333282470703 243.18771362304688 247.6666717529297 236.77386474609375 275.0 237.0 L 276.0 226.0" stroke-width="2.0" fill="rgb(206, 121, 91)" opacity="1.0" stroke="rgb(0, 0, 0)" stroke-opacity="0.0" stroke-linecap="round" stroke-linejoin="round"/>
    <path d="M 80.0 372.0 C 73.91106414794922 369.89862060546875 68.35042572021484 375.83746337890625 67.0 382.0 L 64.0 425.0 L 82.0 424.0 L 85.0 381.0 L 80.0 372.0" stroke-width="2.0" fill="rgb(27, 34, 69)" opacity="1.0" stroke="rgb(0, 0, 0)" stroke-opacity="0.0" stroke-linecap="round" stroke-linejoin="round"/>
    <path d="M 271.0 246.0 C 266.4736022949219 264.6666564941406 270.23077392578125 283.3333435058594 269.0 302.0 C 274.8015441894531 307.2548522949219 284.56793212890625 301.1435852050781 292.0 303.0 C 288.1781921386719 284.6666564941406 279.929443359375 266.3333435058594 275.0 248.0 L 271.0 246.0" stroke-width="2.0" fill="rgb(240, 161, 131)" opacity="1.0" stroke="rgb(0, 0, 0)" stroke-opacity="0.0" stroke-linecap="round" stroke-linejoin="round"/>
    <path d="M 275.0 238.0 L 257.0 240.0 L 258.0 307.0 C 261.3333435058594 306.689697265625 264.6666564941406 308.1105651855469 268.0 305.0 L 268.0 248.0 C 269.821533203125 243.3201904296875 278.25689697265625 245.8828887939453 275.0 238.0" stroke-width="2.0" fill="rgb(249, 223, 195)" opacity="1.0" stroke="rgb(0, 0, 0)" stroke-opacity="0.0" stroke-linecap="round" stroke-linejoin="round"/>
    <path d="M 186.0 182.0 C 162.8380889892578 183.41957092285156 165.80308532714844 211.19183349609375 165.0 225.0 L 188.0 220.0 C 187.22430419921875 207.6666717529297 191.27084350585938 195.3333282470703 186.0 182.0" stroke-width="2.0" fill="rgb(79, 137, 206)" opacity="1.0" stroke="rgb(0, 0, 0)" stroke-opacity="0.0" stroke-linecap="round" stroke-linejoin="round"/>
    <path d="M 85.0 289.0 C 80.3880844116211 288.2705993652344 75.22339630126953 289.26422119140625 72.0 295.0 C 68.95879364013672 308.6666564941406 68.78994750976562 322.3333435058594 69.0 336.0 C 75.13822174072266 333.24163818359375 83.47679138183594 334.70086669921875 88.0 329.0 C 85.95010375976562 316.0 93.29408264160156 303.0 85.0 289.0" stroke-width="2.0" fill="rgb(29, 35, 69)" opacity="1.0" stroke="rgb(0, 0, 0)" stroke-opacity="0.0" stroke-linecap="round" stroke-linejoin="round"/>
    <path d="M 27.0 258.0 C 18.0 256.8150634765625 9.0 264.1127014160156 0.0 269.0 L 0.0 298.0 L 23.0 293.0 L 23.0 260.0 L 27.0 258.0" stroke-width="2.0" fill="rgb(241, 229, 210)" opacity="1.0" stroke="rgb(0, 0, 0)" stroke-opacity="0.0" stroke-linecap="round" stroke-linejoin="round"/>
    <path d="M 132.0 353.0 C 136.6382293701172 377.0 130.5813446044922 401.0 132.0 425.0 L 141.0 425.0 C 144.17681884765625 400.6666564941406 139.84140014648438 376.3333435058594 146.0 352.0 L 132.0 353.0" stroke-width="2.0" fill="rgb(248, 218, 189)" opacity="1.0" stroke="rgb(0, 0, 0)" stroke-opacity="0.0" stroke-linecap="round" stroke-linejoin="round"/>
    <path d="M 316.0 219.0 C 315.83990478515625 224.2840118408203 315.3244323730469 228.9441680908203 320.0 232.0 L 374.0 236.0 C 374.80157470703125 231.2044677734375 369.2716064453125 232.77723693847656 367.0 231.0 L 365.0 221.0 L 316.0 219.0" stroke-width="2.0" fill="rgb(244, 196, 156)" opacity="1.0" stroke="rgb(0, 0, 0)" stroke-opacity="0.0" stroke-linecap="round" stroke-linejoin="round"/>
    <path d="M 99.0 358.0 L 87.0 360.0 L 84.0 425.0 L 95.0 424.0 C 95.25086975097656 402.3333435058594 95.61729431152344 380.6666564941406 99.0 358.0" stroke-width="2.0" fill="rgb(246, 221, 195)" opacity="1.0" stroke="rgb(0, 0, 0)" stroke-opacity="0.0" stroke-linecap="round" stroke-linejoin="round"/>
    <path d="M 146.0 257.0 C 138.4423828125 256.2820129394531 136.3765869140625 260.1787109375 136.0 267.0 C 136.49444580078125 286.6666564941406 133.1199188232422 306.3333435058594 134.0 326.0 C 135.74822998046875 329.1612548828125 137.1397247314453 331.2392883300781 141.0 334.0 C 147.80104064941406 308.6533203125 142.93675231933594 283.34326171875 146.0 257.0" stroke-width="2.0" fill="rgb(249, 222, 194)" opacity="1.0" stroke="rgb(0, 0, 0)" stroke-opacity="0.0" stroke-linecap="round" stroke-linejoin="round"/>
    <path d="M 289.0 267.0 C 285.0159606933594 278.6666564941406 291.8611145019531 290.3333435058594 294.0 302.0 L 312.0 302.0 C 314.98199462890625 288.8016662597656 310.54150390625 263.015625 289.0 267.0" stroke-width="2.0" fill="rgb(27, 34, 71)" opacity="1.0" stroke="rgb(0, 0, 0)" stroke-opacity="0.0" stroke-linecap="round" stroke-linejoin="round"/>
    <path d="M 89.0 211.0 C 84.64048767089844 210.3689727783203 79.73766326904297 215.60581970214844 78.0 220.0 L 75.0 257.0 C 80.66666412353516 256.8287048339844 86.33333587646484 252.92466735839844 92.0 249.0 L 94.0 215.0 L 89.0 211.0" stroke-width="2.0" fill="rgb(41, 55, 95)" opacity="1.0" stroke="rgb(0, 0, 0)" stroke-opacity="0.0" stroke-linecap="round" stroke-linejoin="round"/>
    <path d="M 195.0 247.0 C 192.56930541992188 268.6666564941406 193.0255126953125 290.3333435058594 193.0 312.0 C 197.3760986328125 314.4845886230469 202.5930938720703 313.1806945800781 203.0 308.0 L 204.0 248.0 L 195.0 247.0" stroke-width="2.0" fill="rgb(249, 224, 195)" opacity="1.0" stroke="rgb(0, 0, 0)" stroke-opacity="0.0" stroke-linecap="round" stroke-linejoin="round"/>
    <path d="M 295.0 305.0 C 297.5956726074219 310.0 296.8280029296875 315.0 301.0 320.0 L 340.0 319.0 L 339.0 304.0 L 295.0 305.0" stroke-width="2.0" fill="rgb(205, 118, 91)" opacity="1.0" stroke="rgb(0, 0, 0)" stroke-opacity="0.0" stroke-linecap="round" stroke-linejoin="round"/>
    <path d="M 231.0 129.0 L 229.0 164.0 L 243.0 211.0 L 250.0 211.0 C 246.86880493164062 198.0 245.66873168945312 185.0 236.0 172.0 C 238.96946716308594 159.3333282470703 236.0751190185547 146.6666717529297 237.0 134.0 L 231.0 129.0" stroke-width="2.0" fill="rgb(32, 41, 77)" opacity="1.0" stroke="rgb(0, 0, 0)" stroke-opacity="0.0" stroke-linecap="round" stroke-linejoin="round"/>
    <path d="M 439.0 299.0 L 436.0 302.0 L 438.0 347.0 C 440.6983642578125 352.1100769042969 446.7381896972656 349.25958251953125 451.0 350.0 C 448.8878173828125 333.3333435058594 451.25323486328125 316.6666564941406 444.0 300.0 L 439.0 299.0" stroke-width="2.0" fill="rgb(35, 37, 69)" opacity="1.0" stroke="rgb(0, 0, 0)" stroke-opacity="0.0" stroke-linecap="round" stroke-linejoin="round"/>
    <path d="M 100.0 270.0 C 96.40815734863281 270.03240966796875 91.85687255859375 272.9402770996094 91.0 277.0 C 91.15213012695312 295.0 90.62161254882812 313.0 89.0 331.0 C 90.88374328613281 335.29248046875 93.91317749023438 337.6066589355469 98.0 336.0 L 100.0 270.0" stroke-width="2.0" fill="rgb(248, 224, 196)" opacity="1.0" stroke="rgb(0, 0, 0)" stroke-opacity="0.0" stroke-linecap="round" stroke-linejoin="round"/>
    <path d="M 186.0 69.0 L 179.0 71.0 C 177.68191528320312 94.0 176.7088623046875 117.0 177.0 140.0 C 179.6666717529297 140.77655029296875 182.3333282470703 139.44322204589844 185.0 136.0 L 186.0 69.0" stroke-width="2.0" fill="rgb(249, 220, 192)" opacity="1.0" stroke="rgb(0, 0, 0)" stroke-opacity="0.0" stroke-linecap="round" stroke-linejoin="round"/>
    <path d="M 48.0 378.0 C 44.18272018432617 377.3475341796875 41.617061614990234 381.8020935058594 40.0 385.0 L 37.0 425.0 C 41.26182556152344 423.9532775878906 47.30162811279297 427.26837158203125 50.0 423.0 C 48.016448974609375 408.6642150878906 56.62196350097656 391.6699523925781 48.0 378.0" stroke-width="2.0" fill="rgb(32, 36, 68)" opacity="1.0" stroke="rgb(0, 0, 0)" stroke-opacity="0.0" stroke-linecap="round" stroke-linejoin="round"/>
    <path d="M 250.0 308.0 C 237.3333282470703 306.2731628417969 224.6666717529297 309.65509033203125 212.0 310.0 C 213.85179138183594 314.59393310546875 207.31686401367188 325.1643371582031 216.0 325.0 L 249.0 322.0 L 250.0 308.0" stroke-width="2.0" fill="rgb(240, 162, 132)" opacity="1.0" stroke="rgb(0, 0, 0)" stroke-opacity="0.0" stroke-linecap="round" stroke-linejoin="round"/>
    <path d="M 436.0 377.0 L 454.0 423.0 L 459.0 424.0 C 455.7467041015625 408.6666564941406 461.2829895019531 393.3333435058594 451.0 378.0 L 436.0 377.0" stroke-width="2.0" fill="rgb(29, 33, 66)" opacity="1.0" stroke="rgb(0, 0, 0)" stroke-opacity="0.0" stroke-linecap="round" stroke-linejoin="round"/>
    <path d="M 362.0 325.0 L 363.0 345.0 L 391.0 346.0 C 391.7171936035156 339.3333435058594 386.0753173828125 332.6666564941406 385.0 326.0 L 362.0 325.0" stroke-width="2.0" fill="rgb(179, 91, 72)" opacity="1.0" stroke="rgb(0, 0, 0)" stroke-opacity="0.0" stroke-linecap="round" stroke-linejoin="round"/>
    <path d="M 289.0 232.0 L 289.0 251.0 L 319.0 252.0 C 318.8200988769531 245.6666717529297 312.7864074707031 239.3333282470703 312.0 233.0 L 289.0 232.0" stroke-width="2.0" fill="rgb(178, 91, 73)" opacity="1.0" stroke="rgb(0, 0, 0)" stroke-opacity="0.0" stroke-linecap="round" stroke-linejoin="round"/>
    <path d="M 148.0 86.0 L 141.0 88.0 L 139.0 152.0 C 141.65638732910156 151.6556396484375 144.7111358642578 151.3529052734375 146.0 148.0 L 148.0 86.0" stroke-width="2.0" fill="rgb(249, 218, 190)" opacity="1.0" stroke="rgb(0, 0, 0)" stroke-opacity="0.0" stroke-linecap="round" stroke-linejoin="round"/>
    <path d="M 59.0 230.0 C 54.48729705810547 229.3655242919922 51.07503890991211 235.4676055908203 50.0 239.0 L 47.0 273.0 C 67.50022888183594 267.3332824707031 60.38504409790039 246.2664031982422 62.0 233.0 L 59.0 230.0" stroke-width="2.0" fill="rgb(32, 36, 69)" opacity="1.0" stroke="rgb(0, 0, 0)" stroke-opacity="0.0" stroke-linecap="round" stroke-linejoin="round"/>
    <path d="M 54.0 303.0 C 48.43260955810547 300.8549499511719 45.23054122924805 307.5304260253906 44.0 312.0 L 42.0 344.0 C 46.0 343.1123962402344 50.0 342.87841796875 54.0 340.0 C 54.02621841430664 328.0 57.51450729370117 316.0 54.0 303.0" stroke-width="2.0" fill="rgb(31, 36, 66)" opacity="1.0" stroke="rgb(0, 0, 0)" stroke-opacity="0.0" stroke-linecap="round" stroke-linejoin="round"/>
    <path d="M 134.0 198.0 C 118.23139190673828 207.7144012451172 123.00613403320312 225.96463012695312 122.0 239.0 L 135.0 234.0 L 134.0 198.0" stroke-width="2.0" fill="rgb(81, 136, 202)" opacity="1.0" stroke="rgb(0, 0, 0)" stroke-opacity="0.0" stroke-linecap="round" stroke-linejoin="round"/>
    <path d="M 461.0 306.0 C 457.79052734375 321.6666564941406 461.15802001953125 337.3333435058594 464.0 353.0 L 472.0 354.0 L 468.0 312.0 C 467.030029296875 309.9385681152344 465.23614501953125 305.0528869628906 461.0 306.0" stroke-width="2.0" fill="rgb(35, 36, 67)" opacity="1.0" stroke="rgb(0, 0, 0)" stroke-opacity="0.0" stroke-linecap="round" stroke-linejoin="round"/>
    <path d="M 413.0 291.0 C 403.4426574707031 299.0829162597656 409.09674072265625 311.27227783203125 409.0 321.0 L 424.0 322.0 C 421.405029296875 312.1360168457031 426.8306579589844 297.60382080078125 413.0 291.0" stroke-width="2.0" fill="rgb(30, 35, 66)" opacity="1.0" stroke="rgb(0, 0, 0)" stroke-opacity="0.0" stroke-linecap="round" stroke-linejoin="round"/>
    <path d="M 105.0 109.0 C 102.53477478027344 107.99568176269531 100.18189239501953 110.38765716552734 99.0 113.0 C 98.6206283569336 130.3333282470703 98.04541778564453 147.6666717529297 96.0 165.0 C 93.5811996459961 171.1868133544922 100.0622787475586 177.4628448486328 103.0 168.0 L 105.0 109.0" stroke-width="2.0" fill="rgb(248, 216, 186)" opacity="1.0" stroke="rgb(0, 0, 0)" stroke-opacity="0.0" stroke-linecap="round" stroke-linejoin="round"/>
    <path d="M 467.0 381.0 C 466.1080322265625 395.3333435058594 469.82843017578125 409.6666564941406 470.0 424.0 C 478.4549560546875 428.1645202636719 480.429931640625 420.7117919921875 479.0 414.0 C 474.407470703125 403.839111328125 481.97955322265625 384.68939208984375 467.0 381.0" stroke-width="2.0" fill="rgb(34, 34, 66)" opacity="1.0" stroke="rgb(0, 0, 0)" stroke-opacity="0.0" stroke-linecap="round" stroke-linejoin="round"/>
    <path d="M 278.0 211.0 C 276.41961669921875 224.0 275.9632873535156 237.0 279.0 250.0 L 287.0 251.0 C 286.3067626953125 238.0 294.91534423828125 225.0 278.0 211.0" stroke-width="2.0" fill="rgb(34, 40, 72)" opacity="1.0" stroke="rgb(0, 0, 0)" stroke-opacity="0.0" stroke-linecap="round" stroke-linejoin="round"/>
    <path d="M 200.0 71.0 L 216.0 127.0 L 222.0 128.0 L 207.0 77.0 C 205.81809997558594 74.51954650878906 203.46522521972656 72.1471176147461 200.0 71.0" stroke-width="2.0" fill="rgb(38, 46, 81)" opacity="1.0" stroke="rgb(0, 0, 0)" stroke-opacity="0.0" stroke-linecap="round" stroke-linejoin="round"/>
    <path d="M 63.0 285.0 C 60.68101119995117 286.570068359375 59.16068649291992 285.8546447753906 58.0 289.0 L 56.0 341.0 L 61.0 338.0 L 63.0 285.0" stroke-width="2.0" fill="rgb(245, 215, 189)" opacity="1.0" stroke="rgb(0, 0, 0)" stroke-opacity="0.0" stroke-linecap="round" stroke-linejoin="round"/>
    <path d="M 393.0 252.0 C 391.7829895019531 260.37359619140625 385.79888916015625 278.9074401855469 400.0 278.0 C 408.9400634765625 271.9809265136719 400.1409606933594 262.5859069824219 404.0 255.0 C 402.10748291015625 251.27745056152344 397.3952331542969 252.11599731445312 393.0 252.0" stroke-width="2.0" fill="rgb(213, 136, 113)" opacity="1.0" stroke="rgb(0, 0, 0)" stroke-opacity="0.0" stroke-linecap="round" stroke-linejoin="round"/>
    <path d="M 60.0 365.0 C 58.0 365.2279357910156 56.0 363.9921569824219 54.0 367.0 C 54.81754684448242 386.3333435058594 51.61030197143555 405.6666564941406 51.0 425.0 L 55.0 425.0 L 60.0 365.0" stroke-width="2.0" fill="rgb(246, 214, 188)" opacity="1.0" stroke="rgb(0, 0, 0)" stroke-opacity="0.0" stroke-linecap="round" stroke-linejoin="round"/>
    <path d="M 486.0 386.0 C 483.98468017578125 399.0 486.0347900390625 412.0 489.0 425.0 L 494.0 425.0 C 495.2953186035156 412.0 493.6144104003906 399.0 490.0 386.0 L 486.0 386.0" stroke-width="2.0" fill="rgb(39, 36, 65)" opacity="1.0" stroke="rgb(0, 0, 0)" stroke-opacity="0.0" stroke-linecap="round" stroke-linejoin="round"/>
    <path d="M 276.0 211.0 C 266.3333435058594 209.35020446777344 256.6666564941406 212.85107421875 247.0 212.0 C 241.48057556152344 212.85687255859375 245.62872314453125 217.4081573486328 246.0 221.0 L 275.0 220.0 L 276.0 211.0" stroke-width="2.0" fill="rgb(238, 165, 137)" opacity="1.0" stroke="rgb(0, 0, 0)" stroke-opacity="0.0" stroke-linecap="round" stroke-linejoin="round"/>
    <path d="M 72.0 134.0 L 68.0 137.0 C 67.90792846679688 155.3333282470703 64.99551391601562 173.6666717529297 66.0 192.0 L 70.0 188.0 L 72.0 134.0" stroke-width="2.0" fill="rgb(247, 211, 180)" opacity="1.0" stroke="rgb(0, 0, 0)" stroke-opacity="0.0" stroke-linecap="round" stroke-linejoin="round"/>
    <path d="M 230.0 129.0 L 230.0 166.0 C 232.09088134765625 168.3223114013672 232.8541717529297 170.6862335205078 236.0 170.0 C 239.31231689453125 158.0 235.7847442626953 146.0 237.0 134.0 L 230.0 129.0" stroke-width="2.0" fill="rgb(32, 43, 81)" opacity="1.0" stroke="rgb(0, 0, 0)" stroke-opacity="0.0" stroke-linecap="round" stroke-linejoin="round"/>
    <path d="M 421.0 256.0 L 422.0 283.0 C 425.1289978027344 283.7220153808594 429.34112548828125 282.6378173828125 431.0 285.0 C 429.6772766113281 275.490234375 437.24224853515625 256.34075927734375 421.0 256.0" stroke-width="2.0" fill="rgb(214, 140, 116)" opacity="1.0" stroke="rgb(0, 0, 0)" stroke-opacity="0.0" stroke-linecap="round" stroke-linejoin="round"/>
    <path d="M 479.0 315.0 C 476.090576171875 328.6666564941406 480.4591064453125 342.3333435058594 481.0 356.0 L 487.0 358.0 L 484.0 321.0 C 482.07037353515625 319.2419738769531 483.9129638671875 315.12469482421875 479.0 315.0" stroke-width="2.0" fill="rgb(46, 41, 66)" opacity="1.0" stroke="rgb(0, 0, 0)" stroke-opacity="0.0" stroke-linecap="round" stroke-linejoin="round"/>
    <path d="M 229.0 154.0 C 217.0 154.32086181640625 205.0 157.2373504638672 193.0 161.0 L 193.0 166.0 L 228.0 161.0 L 229.0 154.0" stroke-width="2.0" fill="rgb(247, 215, 188)" opacity="1.0" stroke="rgb(0, 0, 0)" stroke-opacity="0.0" stroke-linecap="round" stroke-linejoin="round"/>
    <path d="M 30.0 374.0 C 25.961830139160156 372.7340087890625 26.459415435791016 376.3587951660156 25.0 379.0 L 22.0 425.0 L 26.0 425.0 L 30.0 374.0" stroke-width="2.0" fill="rgb(248, 211, 182)" opacity="1.0" stroke="rgb(0, 0, 0)" stroke-opacity="0.0" stroke-linecap="round" stroke-linejoin="round"/>
    <path d="M 39.0 300.0 C 34.961830139160156 300.4306945800781 35.459415435791016 304.92828369140625 34.0 307.0 L 32.0 349.0 L 36.0 347.0 L 39.0 300.0" stroke-width="2.0" fill="rgb(249, 209, 180)" opacity="1.0" stroke="rgb(0, 0, 0)" stroke-opacity="0.0" stroke-linecap="round" stroke-linejoin="round"/>
    <path d="M 50.0 158.0 L 46.0 162.0 C 45.642940521240234 179.3333282470703 42.33378982543945 196.6666717529297 43.0 214.0 C 50.6596565246582 197.66455078125 47.74691390991211 177.0015869140625 50.0 158.0" stroke-width="2.0" fill="rgb(248, 209, 180)" opacity="1.0" stroke="rgb(0, 0, 0)" stroke-opacity="0.0" stroke-linecap="round" stroke-linejoin="round"/>
    <path d="M 382.0 287.0 C 384.5838317871094 298.0040588378906 388.4932556152344 311.6612548828125 394.0 321.0 C 392.97332763671875 310.17608642578125 398.0672912597656 293.01788330078125 382.0 287.0" stroke-width="2.0" fill="rgb(44, 39, 61)" opacity="1.0" stroke="rgb(0, 0, 0)" stroke-opacity="0.0" stroke-linecap="round" stroke-linejoin="round"/>
    <path d="M 321.0 341.0 L 321.0 349.0 L 345.0 349.0 L 345.0 341.0 L 321.0 341.0" stroke-width="2.0" fill="rgb(246, 218, 192)" opacity="1.0" stroke="rgb(0, 0, 0)" stroke-opacity="0.0" stroke-linecap="round" stroke-linejoin="round"/>
    <path d="M 436.0 271.0 C 428.3017578125 279.7088928222656 434.3798522949219 291.466552734375 445.0 291.0 C 444.86102294921875 284.7393493652344 447.021484375 272.5101013183594 436.0 271.0" stroke-width="2.0" fill="rgb(39, 37, 63)" opacity="1.0" stroke="rgb(0, 0, 0)" stroke-opacity="0.0" stroke-linecap="round" stroke-linejoin="round"/>
    <path d="M 446.0 265.0 C 444.6023254394531 273.6666564941406 446.1807861328125 282.3333435058594 448.0 291.0 C 459.15234375 285.8348693847656 451.9545593261719 276.0374755859375 453.0 268.0 L 446.0 265.0" stroke-width="2.0" fill="rgb(216, 141, 116)" opacity="1.0" stroke="rgb(0, 0, 0)" stroke-opacity="0.0" stroke-linecap="round" stroke-linejoin="round"/>
    <path d="M 127.0 122.0 C 114.47146606445312 122.65814971923828 116.8293685913086 135.2611541748047 117.0 143.0 C 129.52853393554688 142.8815460205078 127.1706314086914 131.18173217773438 127.0 122.0" stroke-width="2.0" fill="rgb(42, 39, 68)" opacity="1.0" stroke="rgb(0, 0, 0)" stroke-opacity="0.0" stroke-linecap="round" stroke-linejoin="round"/>
    <path d="M 403.0 226.0 C 400.6844787597656 233.7842254638672 400.04736328125 248.41326904296875 412.0 245.0 C 411.421630859375 237.387451171875 415.2728576660156 226.76646423339844 403.0 226.0" stroke-width="2.0" fill="rgb(76, 89, 129)" opacity="1.0" stroke="rgb(0, 0, 0)" stroke-opacity="0.0" stroke-linecap="round" stroke-linejoin="round"/>
    <path d="M 324.0 415.0 L 324.0 425.0 L 340.0 425.0 C 343.6029052734375 413.644287109375 332.9856872558594 414.2535400390625 324.0 415.0" stroke-width="2.0" fill="rgb(248, 221, 189)" opacity="1.0" stroke="rgb(0, 0, 0)" stroke-opacity="0.0" stroke-linecap="round" stroke-linejoin="round"/>
    <path d="M 322.0 24.0 C 320.248291015625 31.140031814575195 315.4603271484375 47.71803665161133 326.0 47.0 C 326.8152770996094 39.90058135986328 329.9748229980469 27.80213165283203 322.0 24.0" stroke-width="2.0" fill="rgb(79, 138, 214)" opacity="1.0" stroke="rgb(0, 0, 0)" stroke-opacity="0.0" stroke-linecap="round" stroke-linejoin="round"/>
    <path d="M 19.0 377.0 C 14.854310989379883 393.0 14.956669807434082 409.0 14.0 425.0 C 17.93539047241211 426.0267639160156 14.347942352294922 421.8899230957031 17.0 420.0 L 19.0 377.0" stroke-width="2.0" fill="rgb(223, 209, 201)" opacity="1.0" stroke="rgb(0, 0, 0)" stroke-opacity="0.0" stroke-linecap="round" stroke-linejoin="round"/>
    <path d="M 94.0 219.0 C 87.03903198242188 230.0 88.30487060546875 241.0 88.0 252.0 L 93.0 249.0 L 94.0 219.0" stroke-width="2.0" fill="rgb(85, 128, 184)" opacity="1.0" stroke="rgb(0, 0, 0)" stroke-opacity="0.0" stroke-linecap="round" stroke-linejoin="round"/>
    <path d="M 416.0 400.0 L 417.0 424.0 L 426.0 424.0 L 416.0 400.0" stroke-width="2.0" fill="rgb(198, 130, 109)" opacity="1.0" stroke="rgb(0, 0, 0)" stroke-opacity="0.0" stroke-linecap="round" stroke-linejoin="round"/>
    <path d="M 268.0 417.0 C 260.38153076171875 414.2117919921875 253.0189208984375 414.7591857910156 254.0 424.0 C 260.38299560546875 425.70135498046875 271.140869140625 427.4853820800781 268.0 417.0" stroke-width="2.0" fill="rgb(248, 222, 190)" opacity="1.0" stroke="rgb(0, 0, 0)" stroke-opacity="0.0" stroke-linecap="round" stroke-linejoin="round"/>
    <path d="M 253.0 344.0 C 249.53346252441406 353.56146240234375 273.99273681640625 352.7425231933594 269.0 343.0 L 253.0 344.0" stroke-width="2.0" fill="rgb(247, 211, 180)" opacity="1.0" stroke="rgb(0, 0, 0)" stroke-opacity="0.0" stroke-linecap="round" stroke-linejoin="round"/>
    <path d="M 410.0 160.0 C 406.515625 165.27301025390625 405.71929931640625 177.16453552246094 414.0 175.0 C 414.9346618652344 170.4060516357422 417.8243408203125 159.83566284179688 410.0 160.0" stroke-width="2.0" fill="rgb(78, 140, 215)" opacity="1.0" stroke="rgb(0, 0, 0)" stroke-opacity="0.0" stroke-linecap="round" stroke-linejoin="round"/>
    <path d="M 467.0 278.0 C 467.9766845703125 284.2290344238281 463.6008605957031 293.8548889160156 473.0 297.0 C 472.3231201171875 290.6557922363281 476.2182312011719 281.3034973144531 467.0 278.0" stroke-width="2.0" fill="rgb(213, 134, 111)" opacity="1.0" stroke="rgb(0, 0, 0)" stroke-opacity="0.0" stroke-linecap="round" stroke-linejoin="round"/>
    <path d="M 63.0 165.0 C 53.58004379272461 166.24356079101562 57.75537872314453 178.02783203125 57.0 184.0 C 66.10469818115234 179.9817657470703 59.6337890625 171.6802978515625 63.0 165.0" stroke-width="2.0" fill="rgb(65, 47, 63)" opacity="1.0" stroke="rgb(0, 0, 0)" stroke-opacity="0.0" stroke-linecap="round" stroke-linejoin="round"/>
    <path d="M 187.0 55.0 C 181.98489379882812 65.1117935180664 198.52670288085938 72.79813385009766 195.0 59.0 L 187.0 55.0" stroke-width="2.0" fill="rgb(33, 40, 75)" opacity="1.0" stroke="rgb(0, 0, 0)" stroke-opacity="0.0" stroke-linecap="round" stroke-linejoin="round"/>
    <path d="M 458.0 252.0 C 458.6562194824219 256.8017883300781 455.4639892578125 265.3327941894531 463.0 267.0 C 464.2186279296875 262.1982116699219 464.89727783203125 253.66720581054688 458.0 252.0" stroke-width="2.0" fill="rgb(73, 46, 63)" opacity="1.0" stroke="rgb(0, 0, 0)" stroke-opacity="0.0" stroke-linecap="round" stroke-linejoin="round"/>
    <path d="M 312.0 5.0 C 310.6725158691406 8.871493339538574 313.005859375 16.886674880981445 319.0 15.0 C 318.98492431640625 9.68173599243164 320.75445556640625 2.578888416290283 312.0 5.0" stroke-width="2.0" fill="rgb(79, 138, 214)" opacity="1.0" stroke="rgb(0, 0, 0)" stroke-opacity="0.0" stroke-linecap="round" stroke-linejoin="round"/>
    <path d="M 158.0 99.0 C 149.00267028808594 96.8374252319336 150.55442810058594 113.8369140625 159.0 106.0 L 158.0 99.0" stroke-width="2.0" fill="rgb(248, 204, 175)" opacity="1.0" stroke="rgb(0, 0, 0)" stroke-opacity="0.0" stroke-linecap="round" stroke-linejoin="round"/>
    <path d="M 171.0 95.0 C 161.79339599609375 92.20954132080078 162.24465942382812 107.82299041748047 171.0 102.0 L 171.0 95.0" stroke-width="2.0" fill="rgb(249, 206, 172)" opacity="1.0" stroke="rgb(0, 0, 0)" stroke-opacity="0.0" stroke-linecap="round" stroke-linejoin="round"/>
    <path d="M 288.0 56.0 C 284.2421569824219 65.52385711669922 298.7578430175781 65.52385711669922 295.0 56.0 L 288.0 56.0" stroke-width="2.0" fill="rgb(79, 138, 214)" opacity="1.0" stroke="rgb(0, 0, 0)" stroke-opacity="0.0" stroke-linecap="round" stroke-linejoin="round"/>
    <path d="M 124.0 113.0 C 115.2838134765625 111.41929626464844 117.19654846191406 127.49305725097656 125.0 119.0 L 124.0 113.0" stroke-width="2.0" fill="rgb(247, 202, 169)" opacity="1.0" stroke="rgb(0, 0, 0)" stroke-opacity="0.0" stroke-linecap="round" stroke-linejoin="round"/>
    <path d="M 135.0 108.0 C 126.25025177001953 106.41929626464844 128.51507568359375 122.49305725097656 136.0 114.0 L 135.0 108.0" stroke-width="2.0" fill="rgb(249, 209, 175)" opacity="1.0" stroke="rgb(0, 0, 0)" stroke-opacity="0.0" stroke-linecap="round" stroke-linejoin="round"/>
    <path d="M 113.0 118.0 C 104.33644104003906 119.04651641845703 106.72198486328125 132.58518981933594 114.0 124.0 L 113.0 118.0" stroke-width="2.0" fill="rgb(250, 208, 179)" opacity="1.0" stroke="rgb(0, 0, 0)" stroke-opacity="0.0" stroke-linecap="round" stroke-linejoin="round"/>
    <path d="M 94.0 129.0 C 87.59746551513672 127.08522033691406 88.462890625 142.6375274658203 95.0 135.0 L 94.0 129.0" stroke-width="2.0" fill="rgb(249, 208, 176)" opacity="1.0" stroke="rgb(0, 0, 0)" stroke-opacity="0.0" stroke-linecap="round" stroke-linejoin="round"/>
    <path d="M 86.0 134.0 C 78.45870971679688 132.85989379882812 82.78402709960938 148.21580505371094 87.0 140.0 L 86.0 134.0" stroke-width="2.0" fill="rgb(247, 202, 167)" opacity="1.0" stroke="rgb(0, 0, 0)" stroke-opacity="0.0" stroke-linecap="round" stroke-linejoin="round"/>
    <path d="M 60.0 154.0 C 55.0530891418457 154.4265899658203 55.769039154052734 166.47256469726562 61.0 161.0 L 60.0 154.0" stroke-width="2.0" fill="rgb(247, 198, 159)" opacity="1.0" stroke="rgb(0, 0, 0)" stroke-opacity="0.0" stroke-linecap="round" stroke-linejoin="round"/>
    <path d="M 79.0 139.0 C 68.47872161865234 142.21807861328125 81.82330322265625 152.4986114501953 79.0 139.0" stroke-width="2.0" fill="rgb(249, 202, 168)" opacity="1.0" stroke="rgb(0, 0, 0)" stroke-opacity="0.0" stroke-linecap="round" stroke-linejoin="round"/>
    <path d="M 320.0 56.0 C 317.4988098144531 64.84610748291016 326.5011901855469 64.84610748291016 324.0 56.0 L 320.0 56.0" stroke-width="2.0" fill="rgb(78, 137, 213)" opacity="1.0" stroke="rgb(0, 0, 0)" stroke-opacity="0.0" stroke-linecap="round" stroke-linejoin="round"/>
    <path d="M 53.0 160.0 C 47.2966423034668 171.8069305419922 61.831966400146484 163.90977478027344 53.0 160.0" stroke-width="2.0" fill="rgb(246, 199, 171)" opacity="1.0" stroke="rgb(0, 0, 0)" stroke-opacity="0.0" stroke-linecap="round" stroke-linejoin="round"/>
    <path d="M 370.0 413.0 C 370.6164245605469 415.7139587402344 371.9834289550781 420.9361877441406 374.0 422.0 L 370.0 413.0" stroke-width="2.0" fill="rgb(207, 128, 110)" opacity="1.0" stroke="rgb(0, 0, 0)" stroke-opacity="0.0" stroke-linecap="round" stroke-linejoin="round"/>
    <path d="M 179.0 74.0 C 186.3929443359375 75.72992706298828 184.45999145507812 70.68743896484375 179.0 74.0" stroke-width="2.0" fill="rgb(248, 227, 201)" opacity="1.0" stroke="rgb(0, 0, 0)" stroke-opacity="0.0" stroke-linecap="round" stroke-linejoin="round"/>
    <path d="M 433.0 334.0 L 434.0 342.0 L 433.0 334.0" stroke-width="2.0" fill="rgb(204, 126, 101)" opacity="1.0" stroke="rgb(0, 0, 0)" stroke-opacity="0.0" stroke-linecap="round" stroke-linejoin="round"/>
    <path d="M 345.0 342.0 C 341.9455261230469 346.465576171875 346.154296875 348.7854309082031 345.0 342.0" stroke-width="2.0" fill="rgb(242, 232, 222)" opacity="1.0" stroke="rgb(0, 0, 0)" stroke-opacity="0.0" stroke-linecap="round" stroke-linejoin="round"/>
  </g>
</svg>
