<?xml version="1.0" ?>
<svg xmlns="http://www.w3.org/2000/svg" version="1.1" width="512" height="359">
  <defs/>
  <g>
    <path d="M -0.3786654770374298 -0.6565333008766174 L 512.0 -0.643029510974884 L 512.0 359.0 L -0.3484315574169159 359.0011291503906 L -0.3786654770374298 -0.6565333008766174" stroke-width="0.0" fill="rgb(255, 255, 254)" opacity="0.90492624" stroke="rgb(0, 0, 0)" stroke-opacity="0.0" stroke-linecap="round" stroke-linejoin="round"/>
    <path d="M -0.5839551687240601 0.32932811975479126 L -0.5864931344985962 357.59600830078125 L 510.92987060546875 357.59814453125 L 510.33935546875 0.3322243094444275 L -0.5839551687240601 0.32932811975479126" stroke-width="2.0" fill="rgb(254, 254, 254)" opacity="0.93536836" stroke="rgb(0, 0, 0)" stroke-opacity="0.0" stroke-linecap="round" stroke-linejoin="round"/>
    <path d="M 423.6894836425781 57.34722137451172 C 416.27734375 50.32384490966797 414.60430908203125 48.9009895324707 409.7366638183594 48.45628356933594 L 271.6727294921875 48.3824462890625 C 267.0884094238281 38.50015640258789 276.3894958496094 22.81658172607422 268.98162841796875 15.365494728088379 L 72.70699310302734 52.3908576965332 L 72.69831085205078 309.3280944824219 C 138.18324279785156 323.5697326660156 203.88214111328125 335.4707946777344 271.8997497558594 349.02587890625 C 272.37152099609375 335.29876708984375 272.0647277832031 324.6955261230469 271.92169189453125 315.9226989746094 C 321.4185485839844 313.505126953125 372.67724609375 317.39593505859375 416.142578125 314.3169250488281 C 423.12939453125 306.3792419433594 423.9677734375 304.33990478515625 424.4610290527344 300.00946044921875 C 423.4707336425781 217.6170654296875 425.1836853027344 133.67149353027344 423.6894836425781 57.34722137451172" stroke-width="2.0" fill="rgb(51, 117, 83)" opacity="1.1008099" stroke="rgb(0, 0, 0)" stroke-opacity="0.0" stroke-linecap="round" stroke-linejoin="round"/>
    <path d="M 271.9560241699219 14.776948928833008 C 203.88174438476562 28.648256301879883 138.95956420898438 39.623714447021484 74.21479797363281 53.96957015991211 C 75.22086334228516 139.315673828125 72.86215209960938 224.75848388671875 72.60059356689453 311.370849609375 L 268.9577331542969 348.35382080078125 C 273.6637878417969 324.3729248046875 269.9774475097656 301.53985595703125 272.63739013671875 279.2029113769531 C 286.668212890625 275.5586853027344 302.3334045410156 280.8936462402344 318.3227844238281 276.00079345703125 L 318.32501220703125 251.73638916015625 C 303.66448974609375 247.9772491455078 261.2178039550781 263.9980773925781 272.97821044921875 235.95602416992188 C 292.58984375 234.21939086914062 327.7160949707031 243.94091796875 317.90655517578125 212.1102752685547 C 303.5296630859375 208.48997497558594 263.7023620605469 223.0846710205078 272.81005859375 194.92941284179688 L 316.9981994628906 194.00125122070312 C 316.12591552734375 186.3333282470703 317.7321472167969 178.6666717529297 313.99725341796875 171.0262451171875 C 300.3041076660156 169.32501220703125 258.0130920410156 177.63528442382812 274.32708740234375 152.37689208984375 C 292.58355712890625 153.84051513671875 331.1285705566406 159.99900817871094 315.0213623046875 128.04624938964844 C 301.71612548828125 122.79100799560547 261.53411865234375 137.77359008789062 272.7433166503906 110.96741485595703 L 317.0069274902344 111.05390167236328 L 318.18560791015625 85.95186614990234 C 302.34051513671875 81.97256469726562 286.58880615234375 87.17683410644531 272.6226806640625 83.94273376464844 L 271.9560241699219 14.776948928833008" stroke-width="2.0" fill="rgb(34, 112, 72)" opacity="0.97881097" stroke="rgb(0, 0, 0)" stroke-opacity="0.0" stroke-linecap="round" stroke-linejoin="round"/>
    <path d="M 273.4052734375 62.17583465576172 C 262.7918701171875 101.38037872314453 298.1407470703125 82.26193237304688 320.52099609375 83.36679077148438 C 319.30047607421875 94.56719970703125 322.88079833984375 112.19122314453125 316.1826477050781 112.14065551757812 C 297.0738220214844 115.4534683227539 266.1191101074219 102.83808135986328 272.4715576171875 124.42395782470703 C 290.7959899902344 130.32818603515625 327.1345520019531 114.2602310180664 319.3077087402344 147.05955505371094 C 311.4803161621094 166.83392333984375 263.8444519042969 142.5525665283203 272.626220703125 167.33465576171875 L 320.2886657714844 167.36705017089844 C 320.6911926269531 175.06692504882812 320.148681640625 187.32028198242188 320.6002502441406 197.05172729492188 C 299.72113037109375 201.89210510253906 265.6534423828125 189.4641571044922 272.4352111816406 208.38760375976562 C 286.3276672363281 213.2732696533203 302.618408203125 208.7327423095703 320.4545593261719 208.85211181640625 C 320.8740539550781 217.1776885986328 320.20660400390625 227.9013671875 320.71270751953125 238.8699493408203 C 303.9344787597656 243.48477172851562 268.2126159667969 224.74966430664062 271.9824523925781 249.24581909179688 C 286.7442321777344 256.91656494140625 310.1915283203125 244.14637756347656 319.9092712402344 256.7962646484375 C 317.5954284667969 263.3291320800781 321.3817443847656 275.4185485839844 319.81878662109375 280.4422912597656 C 294.720703125 278.8766784667969 263.8970031738281 264.1709899902344 273.1755065917969 301.72021484375 C 315.7958984375 301.6064758300781 361.9541931152344 301.6240539550781 410.1707763671875 301.6722717285156 C 410.1445007324219 223.09071350097656 410.17291259765625 142.05686950683594 410.2471618652344 62.067237854003906 L 273.4052734375 62.17583465576172" stroke-width="2.0" fill="rgb(225, 236, 230)" opacity="1.1351856" stroke="rgb(0, 0, 0)" stroke-opacity="0.0" stroke-linecap="round" stroke-linejoin="round"/>
    <path d="M 209.47579956054688 120.44236755371094 L 183.87332153320312 122.17434692382812 L 165.08609008789062 165.04762268066406 C 156.4823760986328 143.3765411376953 150.84214782714844 117.55233764648438 127.11161804199219 128.74009704589844 C 131.70199584960938 143.5144500732422 145.6811065673828 162.43484497070312 150.92742919921875 181.1079864501953 C 141.53553771972656 199.04234313964844 130.8099822998047 216.37734985351562 122.23521423339844 232.6679229736328 L 145.76931762695312 234.35548400878906 C 152.13682556152344 221.20672607421875 158.38121032714844 206.3109893798828 163.86758422851562 192.82351684570312 L 183.148681640625 236.84986877441406 L 210.85101318359375 238.81201171875 C 200.51870727539062 219.28646850585938 189.68502807617188 198.89596557617188 179.2113494873047 179.24252319335938 C 187.05630493164062 161.1790313720703 200.30172729492188 140.74066162109375 209.47579956054688 120.44236755371094" stroke-width="2.0" fill="rgb(235, 246, 240)" opacity="0.98438275" stroke="rgb(0, 0, 0)" stroke-opacity="0.0" stroke-linecap="round" stroke-linejoin="round"/>
    <path d="M 185.769775390625 123.40458679199219 C 159.5634307861328 161.24729919433594 158.29978942871094 198.57687377929688 185.08175659179688 234.6943817138672 C 190.9676055908203 235.4532470703125 208.3083953857422 242.85499572753906 207.32591247558594 233.45416259765625 C 197.5448455810547 215.08326721191406 187.94093322753906 196.0569610595703 179.02635192871094 179.50341796875 L 209.6259307861328 120.86416625976562 L 185.769775390625 123.40458679199219" stroke-width="2.0" fill="rgb(260, 257, 259)" opacity="0.7012652" stroke="rgb(0, 0, 0)" stroke-opacity="0.0" stroke-linecap="round" stroke-linejoin="round"/>
    <path d="M 124.39079284667969 126.28844451904297 C 132.64056396484375 142.9644012451172 143.05978393554688 164.322998046875 150.463134765625 179.50460815429688 L 123.29241943359375 230.51173400878906 C 147.35960388183594 242.28018188476562 154.80474853515625 214.32992553710938 163.19412231445312 195.59866333007812 C 169.9955291748047 171.14810180664062 159.00289916992188 149.56800842285156 148.85157775878906 124.60536193847656 L 124.39079284667969 126.28844451904297" stroke-width="2.0" fill="rgb(254, 255, 254)" opacity="0.8965988" stroke="rgb(0, 0, 0)" stroke-opacity="0.0" stroke-linecap="round" stroke-linejoin="round"/>
    <path d="M 332.66656494140625 124.96499633789062 L 332.80621337890625 155.79225158691406 C 351.25439453125 154.92466735839844 373.0592956542969 155.9972381591797 388.3135986328125 155.2591552734375 C 387.5248107910156 143.38259887695312 388.7655334472656 130.53224182128906 387.6221923828125 124.94082641601562 L 332.66656494140625 124.96499633789062" stroke-width="2.0" fill="rgb(33, 108, 69)" opacity="0.99927133" stroke="rgb(0, 0, 0)" stroke-opacity="0.0" stroke-linecap="round" stroke-linejoin="round"/>
    <path d="M 332.7827453613281 249.81324768066406 L 332.7310791015625 280.4034729003906 C 351.2743225097656 279.9220275878906 373.0157775878906 280.59271240234375 388.2098083496094 280.2663269042969 C 387.61260986328125 268.1422424316406 388.7517395019531 257.47015380859375 387.93682861328125 249.7787322998047 L 332.7827453613281 249.81324768066406" stroke-width="2.0" fill="rgb(33, 107, 68)" opacity="1.0007534" stroke="rgb(0, 0, 0)" stroke-opacity="0.0" stroke-linecap="round" stroke-linejoin="round"/>
    <path d="M 332.7271728515625 83.29541015625 C 332.66705322265625 94.93221282958984 332.78240966796875 104.8677749633789 332.82159423828125 113.80089569091797 L 388.08978271484375 113.86542510986328 L 388.15087890625 83.44889068603516 L 332.7271728515625 83.29541015625" stroke-width="2.0" fill="rgb(32, 107, 69)" opacity="0.99945116" stroke="rgb(0, 0, 0)" stroke-opacity="0.0" stroke-linecap="round" stroke-linejoin="round"/>
    <path d="M 332.71844482421875 167.31724548339844 L 332.828857421875 197.8706512451172 L 388.1540832519531 197.8607635498047 L 388.12347412109375 167.31497192382812 L 332.71844482421875 167.31724548339844" stroke-width="2.0" fill="rgb(33, 108, 69)" opacity="0.9972948" stroke="rgb(0, 0, 0)" stroke-opacity="0.0" stroke-linecap="round" stroke-linejoin="round"/>
    <path d="M 332.8411560058594 209.12376403808594 L 332.7731018066406 239.4332275390625 L 388.1213073730469 239.420654296875 L 388.16326904296875 209.06671142578125 L 332.8411560058594 209.12376403808594" stroke-width="2.0" fill="rgb(33, 107, 68)" opacity="0.99405503" stroke="rgb(0, 0, 0)" stroke-opacity="0.0" stroke-linecap="round" stroke-linejoin="round"/>
    <path d="M 271.8686828613281 249.8733367919922 C 271.1595153808594 260.3311767578125 269.169921875 269.6712341308594 272.1977233886719 280.6116027832031 C 287.98028564453125 279.39727783203125 303.93499755859375 281.3468322753906 320.2742614746094 279.6455993652344 L 320.3122863769531 249.80758666992188 L 271.8686828613281 249.8733367919922" stroke-width="2.0" fill="rgb(34, 110, 70)" opacity="1.0409607" stroke="rgb(0, 0, 0)" stroke-opacity="0.0" stroke-linecap="round" stroke-linejoin="round"/>
    <path d="M 270.5774841308594 83.4486312866211 C 269.8520812988281 93.99475860595703 266.06744384765625 103.00370025634766 272.0373229980469 113.72561645507812 L 320.2912902832031 113.88395690917969 C 320.24462890625 101.99684143066406 320.3133544921875 92.69041442871094 318.9060974121094 83.35282897949219 L 270.5774841308594 83.4486312866211" stroke-width="2.0" fill="rgb(34, 109, 70)" opacity="1.0493797" stroke="rgb(0, 0, 0)" stroke-opacity="0.0" stroke-linecap="round" stroke-linejoin="round"/>
    <path d="M 271.77044677734375 168.8099822998047 L 271.78546142578125 196.7242431640625 L 320.24017333984375 196.8112030029297 C 317.1646423339844 185.83413696289062 321.0005187988281 176.63113403320312 318.019287109375 168.41249084472656 L 271.77044677734375 168.8099822998047" stroke-width="2.0" fill="rgb(33, 110, 69)" opacity="0.8506558" stroke="rgb(0, 0, 0)" stroke-opacity="0.0" stroke-linecap="round" stroke-linejoin="round"/>
    <path d="M 271.7555847167969 209.17431640625 L 271.28314208984375 239.62200927734375 C 287.3186340332031 238.5928192138672 303.4701232910156 241.03140258789062 319.6075744628906 237.3463592529297 L 319.5297546386719 209.0181884765625 L 271.7555847167969 209.17431640625" stroke-width="2.0" fill="rgb(33, 109, 69)" opacity="1.0458107" stroke="rgb(0, 0, 0)" stroke-opacity="0.0" stroke-linecap="round" stroke-linejoin="round"/>
    <path d="M 271.70416259765625 124.9181900024414 L 271.72906494140625 154.5933074951172 L 320.3677978515625 155.7581024169922 C 320.2340087890625 144.0701446533203 320.7837829589844 133.3209228515625 320.2769470214844 124.92801666259766 L 271.70416259765625 124.9181900024414" stroke-width="2.0" fill="rgb(33, 109, 69)" opacity="0.99350816" stroke="rgb(0, 0, 0)" stroke-opacity="0.0" stroke-linecap="round" stroke-linejoin="round"/>
  </g>
</svg>
