<?xml version="1.0" ?>
<svg xmlns="http://www.w3.org/2000/svg" version="1.1" width="512" height="470">
  <defs/>
  <g>
    <path d="M 323.9901428222656 458.3938293457031 C 315.9657897949219 475.3489685058594 320.60711669921875 474.74151611328125 316.27813720703125 485.5647888183594 C 293.0592956542969 482.93017578125 287.0333251953125 481.90924072265625 307.9034729003906 482.4361572265625 C 353.8000793457031 432.8382263183594 291.8523864746094 472.6904296875 170.01296997070312 450.0727844238281 C 379.5810546875 450.3807678222656 370.3022766113281 447.86444091796875 323.9901428222656 458.3938293457031" stroke-width="0.0" fill="rgb(255, 255, 255)" opacity="0.44973242" stroke="rgb(236, 226, 118)" stroke-opacity="0.8446396" stroke-linecap="round" stroke-linejoin="round"/>
    <path d="M 430.0 13.0 C 429.33013916015625 15.5 427.5 17.330127716064453 425.0 18.0 C 422.5 17.330127716064453 420.66986083984375 15.5 420.0 13.0 C 420.66986083984375 10.5 422.5 8.669873237609863 425.0 8.0 C 427.5 8.669873237609863 429.33013916015625 10.5 430.0 13.0" stroke-width="0.0" fill="rgb(248, 249, 254)" opacity="1.0" stroke="rgb(195, 47, 201)" stroke-opacity="0.4667232" stroke-linecap="round" stroke-linejoin="round"/>
    <path d="M 87.0 32.0 C 86.33012390136719 34.5 84.5 36.33012771606445 82.0 37.0 C 79.5 36.33012771606445 77.66987609863281 34.5 77.0 32.0 C 77.66987609863281 29.5 79.5 27.669872283935547 82.0 27.0 C 84.5 27.669872283935547 86.33012390136719 29.5 87.0 32.0" stroke-width="0.0" fill="rgb(247, 248, 253)" opacity="1.0" stroke="rgb(251, 240, 146)" stroke-opacity="0.8482647" stroke-linecap="round" stroke-linejoin="round"/>
  </g>
</svg>
