<?xml version="1.0" ?>
<svg xmlns="http://www.w3.org/2000/svg" version="1.1" width="512" height="470">
  <defs/>
  <g>
    <path d="M 329.7789001464844 485.08856201171875 C 315.3924560546875 475.0830078125 320.0624084472656 474.61846923828125 316.8941345214844 485.6946105957031 C 293.0592956542969 482.9300842285156 287.0333251953125 481.9094543457031 309.44964599609375 498.1451721191406 C 356.1319580078125 453.3646240234375 267.2200622558594 498.44622802734375 115.35440063476562 439.90899658203125 C 380.01519775390625 434.6787109375 388.9016418457031 443.4710693359375 329.7789001464844 485.08856201171875" stroke-width="0.0" fill="rgb(179, 233, 255)" opacity="0.56198245" stroke="rgb(236, 226, 118)" stroke-opacity="0.8446396" stroke-linecap="round" stroke-linejoin="round"/>
    <path d="M 457.9700927734375 -12.291970252990723 C 457.9888916015625 40.26897048950195 458.07470703125 41.9465217590332 457.9480895996094 77.67080688476562 C 365.1783142089844 80.29705810546875 346.5272216796875 69.74862670898438 349.2282409667969 -8.57247257232666 C 394.5763244628906 -18.022098541259766 404.037353515625 -6.161288738250732 414.7857360839844 -8.905460357666016 C 445.8409729003906 -8.542219161987305 446.58245849609375 -8.577502250671387 457.9700927734375 -12.291970252990723" stroke-width="0.0" fill="rgb(251, 253, 255)" opacity="0.96209913" stroke="rgb(195, 47, 201)" stroke-opacity="0.4667232" stroke-linecap="round" stroke-linejoin="round"/>
    <path d="M 235.89218139648438 57.08348083496094 C 108.24430847167969 129.51751708984375 93.71500396728516 162.1417236328125 23.03556251525879 71.78422546386719 C 12.268716812133789 57.061622619628906 14.269116401672363 92.24922943115234 13.994560241699219 0.04650910943746567 C 25.54582405090332 -12.497650146484375 38.15095138549805 -11.41198444366455 88.22589874267578 -13.23365306854248 C 162.1120147705078 -30.716049194335938 214.02069091796875 -74.56126403808594 235.89218139648438 57.08348083496094" stroke-width="0.0" fill="rgb(241, 247, 255)" opacity="0.9695279" stroke="rgb(251, 240, 146)" stroke-opacity="0.8482647" stroke-linecap="round" stroke-linejoin="round"/>
    <path d="M 491.6490478515625 457.6341552734375 C 407.9567565917969 458.32733154296875 381.6990051269531 454.33447265625 401.6352233886719 459.85693359375 C 389.0726318359375 455.1898193359375 393.2323913574219 457.7203063964844 350.072509765625 456.45538330078125 C 374.2574768066406 439.2073669433594 353.97271728515625 435.25946044921875 400.4674072265625 439.97491455078125 C 469.1202697753906 444.4142150878906 456.79833984375 424.7575378417969 491.6490478515625 457.6341552734375" stroke-width="0.0" fill="rgb(226, 246, 255)" opacity="0.7748314" stroke="rgb(250, 173, 65)" stroke-opacity="0.2355924" stroke-linecap="round" stroke-linejoin="round"/>
    <path d="M 449.74603271484375 422.0848388671875 C 446.0120849609375 461.9544982910156 467.7966003417969 445.33306884765625 390.19384765625 449.05853271484375 C 383.19989013671875 429.1169128417969 426.8572082519531 442.7025451660156 389.5940856933594 430.2445983886719 C 402.8302917480469 371.0976257324219 393.9080810546875 359.64971923828125 413.80255126953125 374.1077575683594 C 437.81878662109375 359.667236328125 436.3553771972656 365.27789306640625 449.74603271484375 422.0848388671875" stroke-width="0.0" fill="rgb(25, 63, 185)" opacity="0.90566134" stroke="rgb(155, 254, 168)" stroke-opacity="0.09986947" stroke-linecap="round" stroke-linejoin="round"/>
    <path d="M 352.83544921875 378.2666015625 C 353.8080139160156 408.28704833984375 326.54193115234375 419.026611328125 318.2127380371094 418.7325439453125 C 304.78485107421875 422.739013671875 273.2041015625 410.525634765625 276.3435974121094 386.5132751464844 C 277.1470642089844 369.33709716796875 305.70794677734375 348.5475158691406 287.927734375 370.71337890625 C 281.45672607421875 416.3710021972656 341.0584411621094 411.243408203125 352.83544921875 378.2666015625" stroke-width="0.0" fill="rgb(227, 0, 17)" opacity="0.9829066" stroke="rgb(85, 114, 119)" stroke-opacity="0.49815932" stroke-linecap="round" stroke-linejoin="round"/>
    <path d="M 258.8954772949219 399.3135070800781 C 355.8298034667969 454.8719177246094 387.8023986816406 443.8465270996094 167.35423278808594 446.1541442871094 C 173.32664489746094 403.20196533203125 240.29795837402344 411.40911865234375 214.65505981445312 386.1966552734375 C 203.31362915039062 364.2576599121094 219.9838104248047 337.9635009765625 245.1404571533203 340.8373107910156 C 254.5532684326172 338.82427978515625 295.573486328125 366.7283935546875 258.8954772949219 399.3135070800781" stroke-width="0.0" fill="rgb(87, 0, 76)" opacity="0.71631634" stroke="rgb(129, 240, 202)" stroke-opacity="0.33732677" stroke-linecap="round" stroke-linejoin="round"/>
    <path d="M 443.0 81.0 C 442.33013916015625 83.5 440.5 85.33012390136719 438.0 86.0 C 435.5 85.33012390136719 433.66986083984375 83.5 433.0 81.0 C 433.66986083984375 78.5 435.5 76.66987609863281 438.0 76.0 C 440.5 76.66987609863281 442.33013916015625 78.5 443.0 81.0" stroke-width="0.0" fill="rgb(250, 251, 255)" opacity="1.0" stroke="rgb(212, 219, 83)" stroke-opacity="0.29260895" stroke-linecap="round" stroke-linejoin="round"/>
    <path d="M 276.0 24.0 C 275.33013916015625 26.5 273.5 28.330127716064453 271.0 29.0 C 268.5 28.330127716064453 266.66986083984375 26.5 266.0 24.0 C 266.66986083984375 21.5 268.5 19.669872283935547 271.0 19.0 C 273.5 19.669872283935547 275.33013916015625 21.5 276.0 24.0" stroke-width="0.0" fill="rgb(245, 248, 255)" opacity="1.0" stroke="rgb(9, 103, 185)" stroke-opacity="0.2589618" stroke-linecap="round" stroke-linejoin="round"/>
    <path d="M 129.0 192.0 C 128.3301239013672 194.5 126.5 196.3301239013672 124.0 197.0 C 121.5 196.3301239013672 119.66987609863281 194.5 119.0 192.0 C 119.66987609863281 189.5 121.5 187.6698760986328 124.0 187.0 C 126.5 187.6698760986328 128.3301239013672 189.5 129.0 192.0" stroke-width="0.0" fill="rgb(249, 249, 251)" opacity="1.0" stroke="rgb(209, 229, 128)" stroke-opacity="0.5479656" stroke-linecap="round" stroke-linejoin="round"/>
    <path d="M 244.0 20.0 C 243.3301239013672 22.5 241.5 24.330127716064453 239.0 25.0 C 236.5 24.330127716064453 234.6698760986328 22.5 234.0 20.0 C 234.6698760986328 17.5 236.5 15.669873237609863 239.0 15.0 C 241.5 15.669873237609863 243.3301239013672 17.5 244.0 20.0" stroke-width="0.0" fill="rgb(242, 247, 253)" opacity="1.0" stroke="rgb(82, 52, 224)" stroke-opacity="0.7213857" stroke-linecap="round" stroke-linejoin="round"/>
    <path d="M 480.0 67.0 C 479.33013916015625 69.5 477.5 71.33012390136719 475.0 72.0 C 472.5 71.33012390136719 470.66986083984375 69.5 470.0 67.0 C 470.66986083984375 64.5 472.5 62.66987228393555 475.0 62.0 C 477.5 62.66987228393555 479.33013916015625 64.5 480.0 67.0" stroke-width="0.0" fill="rgb(248, 249, 254)" opacity="1.0" stroke="rgb(49, 191, 37)" stroke-opacity="0.6289252" stroke-linecap="round" stroke-linejoin="round"/>
    <path d="M 486.0 5.0 C 485.33013916015625 7.5 483.5 9.330126762390137 481.0 10.0 C 478.5 9.330126762390137 476.66986083984375 7.5 476.0 5.0 C 476.66986083984375 2.5 478.5 0.6698729991912842 481.0 0.0 C 483.5 0.6698729991912842 485.33013916015625 2.5 486.0 5.0" stroke-width="0.0" fill="rgb(250, 251, 255)" opacity="1.0" stroke="rgb(213, 178, 165)" stroke-opacity="0.053507727" stroke-linecap="round" stroke-linejoin="round"/>
    <path d="M 463.0 173.0 C 462.33013916015625 175.5 460.5 177.3301239013672 458.0 178.0 C 455.5 177.3301239013672 453.66986083984375 175.5 453.0 173.0 C 453.66986083984375 170.5 455.5 168.6698760986328 458.0 168.0 C 460.5 168.6698760986328 462.33013916015625 170.5 463.0 173.0" stroke-width="0.0" fill="rgb(235, 240, 246)" opacity="1.0" stroke="rgb(155, 55, 242)" stroke-opacity="0.031224595" stroke-linecap="round" stroke-linejoin="round"/>
    <path d="M 425.0 165.0 C 424.33013916015625 167.5 422.5 169.3301239013672 420.0 170.0 C 417.5 169.3301239013672 415.66986083984375 167.5 415.0 165.0 C 415.66986083984375 162.5 417.5 160.6698760986328 420.0 160.0 C 422.5 160.6698760986328 424.33013916015625 162.5 425.0 165.0" stroke-width="0.0" fill="rgb(233, 237, 246)" opacity="1.0" stroke="rgb(31, 66, 253)" stroke-opacity="0.3908971" stroke-linecap="round" stroke-linejoin="round"/>
  </g>
</svg>
