<?xml version="1.0" ?>
<svg xmlns="http://www.w3.org/2000/svg" version="1.1" width="512" height="470">
  <defs/>
  <g>
    <path d="M 328.31585693359375 479.9874572753906 C 315.3924560546875 475.0830078125 320.0624084472656 474.61846923828125 316.8941345214844 485.6946105957031 C 293.0592956542969 482.9300842285156 287.0333251953125 481.9094543457031 309.4500732421875 498.11175537109375 C 355.966552734375 453.4398498535156 263.3963928222656 500.0979919433594 114.70936584472656 439.8188781738281 C 383.3984375 430.8608093261719 389.0880432128906 438.6959228515625 328.31585693359375 479.9874572753906" stroke-width="0.0" fill="rgb(211, 234, 251)" opacity="0.62754184" stroke="rgb(236, 226, 118)" stroke-opacity="0.8446396" stroke-linecap="round" stroke-linejoin="round"/>
    <path d="M 458.03900146484375 -12.394222259521484 C 458.0389404296875 40.189571380615234 458.07489013671875 41.93484878540039 458.59161376953125 76.49269104003906 C 358.0012512207031 73.26719665527344 333.240966796875 69.44448852539062 343.87701416015625 2.281757354736328 C 394.1242980957031 -19.786460876464844 404.021728515625 -6.208192825317383 414.7857360839844 -8.905571937561035 C 445.8409729003906 -8.542219161987305 446.58245849609375 -8.577502250671387 458.03900146484375 -12.394222259521484" stroke-width="0.0" fill="rgb(249, 249, 255)" opacity="0.98754853" stroke="rgb(195, 47, 201)" stroke-opacity="0.4667232" stroke-linecap="round" stroke-linejoin="round"/>
    <path d="M 239.4939422607422 54.764400482177734 C 107.96607971191406 130.74685668945312 84.6484603881836 163.03463745117188 13.511361122131348 76.73832702636719 C 14.24981689453125 57.60100173950195 14.063522338867188 94.1073226928711 13.974504470825195 -0.12353639304637909 C 25.54019546508789 -12.502409934997559 38.15095138549805 -11.41198444366455 88.35928344726562 -13.24691390991211 C 163.88418579101562 -31.43204116821289 220.43045043945312 -79.03286743164062 239.4939422607422 54.764400482177734" stroke-width="0.0" fill="rgb(242, 247, 255)" opacity="0.9765529" stroke="rgb(251, 240, 146)" stroke-opacity="0.8482647" stroke-linecap="round" stroke-linejoin="round"/>
    <path d="M 492.35040283203125 457.7230529785156 C 403.91015625 457.4700927734375 378.5885314941406 458.2906799316406 404.6208190917969 456.35626220703125 C 401.8790283203125 456.93402099609375 395.2756652832031 457.0639343261719 348.58660888671875 456.6646423339844 C 377.3274230957031 438.6396484375 349.865234375 436.5786437988281 392.5884704589844 439.2438049316406 C 484.4211730957031 439.7746276855469 460.27581787109375 430.9824523925781 492.35040283203125 457.7230529785156" stroke-width="0.0" fill="rgb(231, 245, 255)" opacity="0.81094944" stroke="rgb(250, 173, 65)" stroke-opacity="0.2355924" stroke-linecap="round" stroke-linejoin="round"/>
    <path d="M 449.62322998046875 422.92120361328125 C 445.9810485839844 462.4485778808594 467.47393798828125 444.61279296875 392.15252685546875 449.355224609375 C 374.8235778808594 425.9161376953125 454.6795654296875 447.81744384765625 389.57611083984375 430.41497802734375 C 402.8021545410156 374.8433532714844 394.19964599609375 358.5538024902344 412.3882141113281 373.23907470703125 C 436.4867248535156 365.1556396484375 434.73773193359375 355.6366271972656 449.62322998046875 422.92120361328125" stroke-width="0.0" fill="rgb(37, 73, 189)" opacity="1.0" stroke="rgb(155, 254, 168)" stroke-opacity="0.09986947" stroke-linecap="round" stroke-linejoin="round"/>
    <path d="M 353.00201416015625 378.81292724609375 C 353.1376037597656 408.54327392578125 327.12164306640625 418.9898681640625 317.86968994140625 418.8736267089844 C 302.4840393066406 422.4442443847656 273.3038024902344 408.96875 276.3021240234375 386.78265380859375 C 277.0294494628906 369.414794921875 305.3503112792969 349.32244873046875 288.5085754394531 369.6502990722656 C 279.231201171875 412.78680419921875 337.02044677734375 414.693359375 353.00201416015625 378.81292724609375" stroke-width="0.0" fill="rgb(228, 0, 17)" opacity="0.98319316" stroke="rgb(85, 114, 119)" stroke-opacity="0.49815932" stroke-linecap="round" stroke-linejoin="round"/>
    <path d="M 259.48114013671875 398.43829345703125 C 377.36822509765625 471.1867370605469 417.25823974609375 435.4753112792969 169.3253173828125 445.8986511230469 C 172.286865234375 399.6331481933594 249.96047973632812 411.51495361328125 216.31411743164062 388.58428955078125 C 201.07276916503906 366.48162841796875 222.01229858398438 333.4593505859375 245.7275390625 344.28564453125 C 256.17010498046875 350.3231201171875 301.3877868652344 358.5292663574219 259.48114013671875 398.43829345703125" stroke-width="0.0" fill="rgb(232, 42, 72)" opacity="0.55326194" stroke="rgb(129, 240, 202)" stroke-opacity="0.33732677" stroke-linecap="round" stroke-linejoin="round"/>
    <path d="M 483.7421875 110.70266723632812 C 488.8399353027344 130.64308166503906 480.6009216308594 126.64016723632812 417.47174072265625 123.04686737060547 C 377.4248962402344 109.08998107910156 371.6776428222656 119.7469253540039 373.21124267578125 81.9811019897461 C 409.1766052246094 55.80879211425781 365.4543151855469 7.1066412925720215 411.5333251953125 19.124216079711914 C 455.76812744140625 62.855533599853516 459.8692626953125 60.94283676147461 483.7421875 110.70266723632812" stroke-width="0.0" fill="rgb(248, 250, 255)" opacity="0.96231276" stroke="rgb(212, 219, 83)" stroke-opacity="0.29260895" stroke-linecap="round" stroke-linejoin="round"/>
    <path d="M 357.0746765136719 10.227209091186523 C 383.20074462890625 86.4739761352539 372.7698059082031 65.31855773925781 278.3483581542969 41.18470001220703 C 246.8709716796875 45.2415885925293 241.23263549804688 34.061431884765625 240.1746826171875 28.591278076171875 C 241.03785705566406 -6.250910758972168 241.0062255859375 -9.597047805786133 271.85333251953125 -12.26533031463623 C 309.8293762207031 -13.105542182922363 328.1565856933594 -29.416749954223633 357.0746765136719 10.227209091186523" stroke-width="0.0" fill="rgb(249, 251, 255)" opacity="0.96616554" stroke="rgb(9, 103, 185)" stroke-opacity="0.2589618" stroke-linecap="round" stroke-linejoin="round"/>
    <path d="M 168.77743530273438 164.34909057617188 C 167.03880310058594 230.89678955078125 188.12130737304688 210.90072631835938 126.04267120361328 202.73812866210938 C 71.97537994384766 211.2866668701172 54.982887268066406 221.57838439941406 -4.330528259277344 251.07302856445312 C -20.29709815979004 3.35477876663208 -13.207890510559082 7.577007293701172 72.84366607666016 89.47296142578125 C 198.52720642089844 108.4875259399414 157.9216766357422 96.7502212524414 168.77743530273438 164.34909057617188" stroke-width="0.0" fill="rgb(239, 243, 250)" opacity="0.9883667" stroke="rgb(209, 229, 128)" stroke-opacity="0.5479656" stroke-linecap="round" stroke-linejoin="round"/>
    <path d="M 261.908447265625 16.68573760986328 C 270.3753356933594 42.48798370361328 265.87445068359375 37.9344596862793 240.139892578125 54.31497573852539 C 189.1864471435547 78.17522430419922 194.2736053466797 56.57327651977539 224.49362182617188 25.02278709411621 C 218.1885986328125 -9.205643653869629 213.2639617919922 -11.610709190368652 252.99571228027344 -9.850081443786621 C 263.1407470703125 -5.972162246704102 258.1581726074219 -4.463326930999756 261.908447265625 16.68573760986328" stroke-width="0.0" fill="rgb(247, 249, 254)" opacity="0.9766018" stroke="rgb(82, 52, 224)" stroke-opacity="0.7213857" stroke-linecap="round" stroke-linejoin="round"/>
    <path d="M 522.8540649414062 75.47099304199219 C 523.6849975585938 124.6818618774414 520.6972045898438 128.15304565429688 466.88946533203125 119.64881896972656 C 445.86456298828125 96.38286590576172 444.450439453125 94.2489242553711 449.7555236816406 62.032657623291016 C 446.7999267578125 31.83405876159668 441.7984313964844 23.991804122924805 494.1363525390625 27.05254364013672 C 514.4168090820312 31.0718994140625 521.958984375 27.163599014282227 522.8540649414062 75.47099304199219" stroke-width="0.0" fill="rgb(249, 250, 254)" opacity="0.9989179" stroke="rgb(49, 191, 37)" stroke-opacity="0.6289252" stroke-linecap="round" stroke-linejoin="round"/>
    <path d="M 521.472900390625 2.8843228816986084 C 525.649658203125 44.42680358886719 521.1482543945312 45.81332015991211 506.3984069824219 47.059566497802734 C 445.11328125 48.71784591674805 446.70196533203125 44.101741790771484 447.6204833984375 18.21897315979004 C 454.0530700683594 -15.939488410949707 463.4754638671875 -9.110228538513184 483.3529052734375 -10.262548446655273 C 489.61865234375 -4.427894592285156 502.7775573730469 -13.0834379196167 521.472900390625 2.8843228816986084" stroke-width="0.0" fill="rgb(248, 248, 253)" opacity="1.0" stroke="rgb(213, 178, 165)" stroke-opacity="0.053507727" stroke-linecap="round" stroke-linejoin="round"/>
    <path d="M 536.1603393554688 156.9690399169922 C 541.654296875 258.4687805175781 482.3223876953125 290.4512023925781 485.319091796875 227.2699737548828 C 396.4272155761719 220.1000213623047 411.0579528808594 225.6199493408203 432.1671142578125 173.83892822265625 C 436.1107177734375 153.79010009765625 442.7743835449219 145.16697692871094 449.0315246582031 116.68032836914062 C 512.7344360351562 108.7525405883789 521.114013671875 101.10128021240234 536.1603393554688 156.9690399169922" stroke-width="0.0" fill="rgb(255, 255, 253)" opacity="0.8174529" stroke="rgb(155, 55, 242)" stroke-opacity="0.031224595" stroke-linecap="round" stroke-linejoin="round"/>
    <path d="M 456.4789123535156 156.0726776123047 C 438.5805358886719 191.59100341796875 448.9707946777344 236.2706756591797 391.1270751953125 224.93055725097656 C 372.5522766113281 224.2913360595703 382.97216796875 231.2089385986328 377.28509521484375 173.9039306640625 C 377.4348449707031 86.71500396728516 358.207275390625 89.3083724975586 430.9246826171875 105.52529907226562 C 473.7241516113281 111.98471069335938 473.1318664550781 116.7133560180664 456.4789123535156 156.0726776123047" stroke-width="0.0" fill="rgb(251, 254, 255)" opacity="0.8804843" stroke="rgb(31, 66, 253)" stroke-opacity="0.3908971" stroke-linecap="round" stroke-linejoin="round"/>
    <path d="M 262.7137756347656 348.3935852050781 C 231.81239318847656 411.7515869140625 223.63919067382812 400.5655517578125 257.9553527832031 405.98187255859375 C 149.94012451171875 464.1335754394531 289.20159912109375 308.31634521484375 214.18634033203125 385.0721435546875 C 203.6343231201172 359.4312438964844 223.578125 342.8851623535156 235.63905334472656 341.15350341796875 C 252.3468017578125 338.80816650390625 259.61328125 346.6376953125 262.7137756347656 348.3935852050781" stroke-width="0.0" fill="rgb(226, 0, 19)" opacity="0.9720962" stroke="rgb(167, 4, 173)" stroke-opacity="0.6049448" stroke-linecap="round" stroke-linejoin="round"/>
    <path d="M 215.87490844726562 344.3672790527344 C 190.77932739257812 388.3267822265625 188.5065155029297 394.67608642578125 175.11912536621094 419.83038330078125 C 153.24977111816406 420.44000244140625 156.39312744140625 425.6309509277344 172.3128662109375 392.6400146484375 C 182.66842651367188 375.1197204589844 181.14041137695312 364.986572265625 198.8572998046875 377.0967712402344 C 168.0948486328125 334.3667907714844 173.6395721435547 352.91162109375 215.87490844726562 344.3672790527344" stroke-width="0.0" fill="rgb(219, 0, 21)" opacity="0.9432459" stroke="rgb(164, 53, 220)" stroke-opacity="0.34054628" stroke-linecap="round" stroke-linejoin="round"/>
    <path d="M 511.8353576660156 469.0844421386719 C 372.8938293457031 398.2807922363281 532.5157470703125 312.8356018066406 353.69549560546875 343.1963195800781 C 365.6909484863281 399.60723876953125 263.1383361816406 368.9076843261719 191.9654998779297 271.93963623046875 C 366.7451477050781 302.2676086425781 407.3861389160156 230.55838012695312 395.9344787597656 281.06396484375 C 541.121337890625 290.81103515625 548.8323364257812 245.362060546875 511.8353576660156 469.0844421386719" stroke-width="0.0" fill="rgb(77, 72, 26)" opacity="0.5018796" stroke="rgb(252, 144, 132)" stroke-opacity="0.724188" stroke-linecap="round" stroke-linejoin="round"/>
    <path d="M 17.76276969909668 35.3094482421875 C 24.400827407836914 44.577335357666016 27.63349723815918 49.916160583496094 12.081253051757812 55.62655258178711 C -9.946304321289062 51.11861801147461 -8.94095230102539 44.07795333862305 -8.421223640441895 18.483610153198242 C -9.744073867797852 11.162198066711426 -9.763673782348633 9.018320083618164 3.876694917678833 6.6399993896484375 C 20.63838005065918 11.732786178588867 19.12818145751953 15.22103500366211 17.76276969909668 35.3094482421875" stroke-width="0.0" fill="rgb(236, 243, 252)" opacity="1.0" stroke="rgb(202, 237, 20)" stroke-opacity="0.9856614" stroke-linecap="round" stroke-linejoin="round"/>
    <path d="M 159.642333984375 312.08880615234375 C 137.05628967285156 355.5906982421875 165.76332092285156 361.7616882324219 112.99330139160156 373.54254150390625 C 77.92520904541016 374.6639709472656 58.9561653137207 381.76068115234375 45.786720275878906 359.986572265625 C 80.83634185791016 405.48443603515625 48.93755340576172 288.91900634765625 122.72723388671875 309.8509521484375 C 185.7644805908203 368.86199951171875 89.59751892089844 366.1513366699219 159.642333984375 312.08880615234375" stroke-width="0.0" fill="rgb(249, 58, 0)" opacity="0.78171784" stroke="rgb(87, 152, 20)" stroke-opacity="0.28985882" stroke-linecap="round" stroke-linejoin="round"/>
    <path d="M 220.96131896972656 221.7227325439453 C 212.2715606689453 212.14051818847656 228.4945831298828 185.0232696533203 217.6955108642578 207.60220336914062 C 217.0791473388672 164.56190490722656 215.72491455078125 158.6198272705078 216.76226806640625 191.0684051513672 C 221.86013793945312 210.44296264648438 208.21084594726562 103.14029693603516 217.98150634765625 117.50493621826172 C 220.46978759765625 201.7926025390625 225.08615112304688 224.9900665283203 220.96131896972656 221.7227325439453" stroke-width="0.0" fill="rgb(108, 142, 176)" opacity="0.9605213" stroke="rgb(14, 249, 45)" stroke-opacity="0.8244234" stroke-linecap="round" stroke-linejoin="round"/>
    <path d="M 365.4041748046875 445.2808837890625 C 290.2602233886719 445.9149169921875 285.1099853515625 445.2671813964844 273.88629150390625 445.4064636230469 C 290.8446350097656 443.68377685546875 284.5592956542969 445.5315246582031 260.7698669433594 444.95660400390625 C 273.0201416015625 428.95556640625 261.6896057128906 420.7565612792969 270.70245361328125 425.6616516113281 C 352.8827819824219 421.3592834472656 351.9220275878906 415.40936279296875 365.4041748046875 445.2808837890625" stroke-width="0.0" fill="rgb(34, 64, 161)" opacity="1.0" stroke="rgb(124, 79, 5)" stroke-opacity="0.034773465" stroke-linecap="round" stroke-linejoin="round"/>
    <path d="M 274.7317810058594 426.927734375 C 308.759765625 449.9200134277344 333.89874267578125 444.48992919921875 214.6108856201172 445.9065856933594 C 154.75904846191406 445.47723388671875 163.36541748046875 452.43804931640625 177.55734252929688 423.02703857421875 C 236.83154296875 415.4698486328125 231.6717987060547 434.5331726074219 291.1861572265625 421.318603515625 C 215.3264617919922 421.6938781738281 224.79632568359375 420.82342529296875 274.7317810058594 426.927734375" stroke-width="0.0" fill="rgb(19, 56, 155)" opacity="0.96811265" stroke="rgb(46, 74, 79)" stroke-opacity="0.3333518" stroke-linecap="round" stroke-linejoin="round"/>
    <path d="M 350.1863708496094 418.5058898925781 C 363.8145751953125 442.2739562988281 365.0347595214844 422.43353271484375 263.5671081542969 433.2182312011719 C 279.19451904296875 414.17633056640625 266.6490173339844 438.9149475097656 175.27011108398438 425.3045959472656 C 259.22320556640625 417.0901184082031 296.8994445800781 427.951904296875 292.6570129394531 417.21234130859375 C 292.1977844238281 421.5257263183594 326.1622009277344 428.913330078125 350.1863708496094 418.5058898925781" stroke-width="0.0" fill="rgb(1, 31, 138)" opacity="0.98099154" stroke="rgb(87, 17, 236)" stroke-opacity="0.7071696" stroke-linecap="round" stroke-linejoin="round"/>
    <path d="M 154.64613342285156 404.8557434082031 C 155.91648864746094 431.4538269042969 163.08277893066406 435.9858703613281 154.5484619140625 414.3701477050781 C 123.53717041015625 445.4537048339844 64.7031021118164 447.44244384765625 97.00648498535156 374.7613830566406 C 106.8267593383789 365.7134094238281 108.3282470703125 411.2582092285156 124.33714294433594 361.834228515625 C 149.62481689453125 430.6981506347656 128.1990509033203 361.4884033203125 154.64613342285156 404.8557434082031" stroke-width="0.0" fill="rgb(255, 15, 43)" opacity="0.7071878" stroke="rgb(124, 189, 41)" stroke-opacity="0.25497976" stroke-linecap="round" stroke-linejoin="round"/>
    <path d="M 124.66915893554688 448.4377746582031 C 195.44219970703125 455.410888671875 193.7844696044922 456.1747741699219 117.61698150634766 458.5971374511719 C 54.75106430053711 458.4606018066406 37.34693908691406 459.24822998046875 35.516475677490234 458.2094421386719 C 63.52589416503906 440.07440185546875 63.991397857666016 440.03851318359375 95.07947540283203 440.7464294433594 C 91.78765106201172 449.976806640625 75.16132354736328 452.5796813964844 124.66915893554688 448.4377746582031" stroke-width="0.0" fill="rgb(239, 246, 255)" opacity="0.7526445" stroke="rgb(21, 134, 43)" stroke-opacity="0.035028435" stroke-linecap="round" stroke-linejoin="round"/>
    <path d="M 22.987905502319336 273.10943603515625 C 24.942750930786133 294.30316162109375 26.146944046020508 282.6138610839844 14.750053405761719 284.61102294921875 C -10.447566032409668 284.8544006347656 4.914393424987793 302.1415710449219 -6.753729343414307 282.5873718261719 C -5.771125316619873 257.5984191894531 -3.3035638332366943 257.97857666015625 11.004486083984375 260.3062744140625 C 24.872100830078125 251.98880004882812 22.88164710998535 261.5072937011719 22.987905502319336 273.10943603515625" stroke-width="0.0" fill="rgb(255, 255, 241)" opacity="0.84762305" stroke="rgb(228, 188, 214)" stroke-opacity="0.8008674" stroke-linecap="round" stroke-linejoin="round"/>
    <path d="M 23.258413314819336 256.4630126953125 C 23.6555233001709 266.916748046875 26.176651000976562 296.5451965332031 24.236703872680664 291.6839599609375 C 15.132719993591309 264.30511474609375 -4.653764724731445 278.1015930175781 -9.802888870239258 231.54029846191406 C 2.9641799926757812 208.84844970703125 19.891109466552734 208.5140380859375 13.122775077819824 248.73355102539062 C 19.130537033081055 261.58428955078125 24.483665466308594 252.22694396972656 23.258413314819336 256.4630126953125" stroke-width="0.0" fill="rgb(232, 235, 236)" opacity="0.9496301" stroke="rgb(226, 180, 101)" stroke-opacity="0.09418481" stroke-linecap="round" stroke-linejoin="round"/>
    <path d="M 149.67735290527344 435.77691650390625 C 106.46863555908203 424.45782470703125 137.55677795410156 450.50323486328125 117.44291687011719 450.38360595703125 C 123.42416381835938 408.3197326660156 81.56062316894531 438.20013427734375 -31.115184783935547 492.258056640625 C -48.21577453613281 248.7970428466797 77.07616424560547 258.0039978027344 80.71102905273438 369.2951354980469 C 75.44586944580078 481.0797424316406 147.2423095703125 404.2356872558594 149.67735290527344 435.77691650390625" stroke-width="0.0" fill="rgb(90, 98, 0)" opacity="0.5034699" stroke="rgb(213, 184, 35)" stroke-opacity="0.31632715" stroke-linecap="round" stroke-linejoin="round"/>
    <path d="M 50.29961395263672 5.043089389801025 C 39.52460861206055 37.42787551879883 27.64559555053711 32.11835861206055 5.458688259124756 27.626617431640625 C -4.840381622314453 24.683143615722656 -10.21563720703125 21.477970123291016 -8.716331481933594 13.776599884033203 C -7.254298210144043 -3.968411445617676 -6.325819969177246 -6.439413547515869 1.0247788429260254 -10.387690544128418 C 23.84876251220703 -11.181777954101562 31.005495071411133 -12.421222686767578 50.29961395263672 5.043089389801025" stroke-width="0.0" fill="rgb(249, 250, 254)" opacity="1.0" stroke="rgb(147, 5, 78)" stroke-opacity="0.7620718" stroke-linecap="round" stroke-linejoin="round"/>
    <path d="M 466.1175842285156 327.7217712402344 C 469.49334716796875 362.8715515136719 442.6877136230469 365.9991760253906 406.0442199707031 368.8590393066406 C 369.2913513183594 366.8086853027344 369.570556640625 372.3669738769531 361.0672607421875 322.20343017578125 C 414.9739074707031 358.14263916015625 398.8883056640625 337.6611022949219 411.7399597167969 304.8896484375 C 429.55352783203125 345.9136047363281 450.7960510253906 360.2651062011719 466.1175842285156 327.7217712402344" stroke-width="0.0" fill="rgb(254, 82, 0)" opacity="0.7919488" stroke="rgb(228, 63, 123)" stroke-opacity="0.04659683" stroke-linecap="round" stroke-linejoin="round"/>
    <path d="M 259.2326354980469 165.7053985595703 C 256.1117248535156 159.6544189453125 255.78245544433594 158.97003173828125 257.2091064453125 167.21388244628906 C 251.86279296875 168.89840698242188 246.91970825195312 163.03811645507812 247.6224365234375 155.53823852539062 C 249.15773010253906 86.34586334228516 245.03700256347656 90.70917510986328 256.0966796875 88.7586669921875 C 258.1400146484375 125.04713439941406 259.3528137207031 146.5247039794922 259.2326354980469 165.7053985595703" stroke-width="0.0" fill="rgb(255, 255, 246)" opacity="0.42803553" stroke="rgb(122, 183, 153)" stroke-opacity="0.042420857" stroke-linecap="round" stroke-linejoin="round"/>
    <path d="M 260.1878967285156 170.70155334472656 C 259.88726806640625 170.74801635742188 259.4302978515625 170.50299072265625 250.5518341064453 171.92835998535156 C 248.18638610839844 169.55519104003906 250.06385803222656 162.9861602783203 249.96604919433594 162.09136962890625 C 248.45912170410156 152.04776000976562 248.33370971679688 139.91744995117188 249.31222534179688 128.09800720214844 C 257.16937255859375 125.66907501220703 259.2053527832031 132.7716827392578 260.1878967285156 170.70155334472656" stroke-width="0.0" fill="rgb(216, 212, 206)" opacity="0.3853534" stroke="rgb(53, 192, 21)" stroke-opacity="0.77161944" stroke-linecap="round" stroke-linejoin="round"/>
    <path d="M 137.4208221435547 447.4797058105469 C 99.91136169433594 466.74542236328125 125.7041015625 384.9872131347656 109.6043701171875 448.6312561035156 C 67.91413879394531 455.9396057128906 112.006591796875 433.8062744140625 77.74395751953125 418.2257995605469 C 65.73641204833984 413.2584533691406 77.7217788696289 379.7351989746094 90.02771759033203 397.47998046875 C 76.27278900146484 463.4000244140625 141.12176513671875 400.7782287597656 137.4208221435547 447.4797058105469" stroke-width="0.0" fill="rgb(255, 93, 44)" opacity="0.8130379" stroke="rgb(64, 242, 53)" stroke-opacity="0.58539826" stroke-linecap="round" stroke-linejoin="round"/>
    <path d="M 287.07989501953125 148.72267150878906 C 282.5009765625 205.64224243164062 290.9549865722656 187.11317443847656 285.8800354003906 209.25816345214844 C 256.5058898925781 209.1959228515625 267.89007568359375 216.2802276611328 268.3326721191406 185.2369842529297 C 269.8912658691406 172.7429962158203 265.38958740234375 169.85775756835938 277.9464416503906 165.0921630859375 C 291.993408203125 180.8925018310547 288.5198974609375 184.25376892089844 287.07989501953125 148.72267150878906" stroke-width="0.0" fill="rgb(203, 199, 180)" opacity="0.8490307" stroke="rgb(134, 179, 17)" stroke-opacity="0.1138637" stroke-linecap="round" stroke-linejoin="round"/>
    <path d="M 239.1922607421875 221.95632934570312 C 226.3755340576172 222.01112365722656 233.0511474609375 218.45077514648438 230.08099365234375 203.54530334472656 C 222.93310546875 212.01791381835938 226.29641723632812 209.3143310546875 227.1365203857422 190.3913116455078 C 229.95774841308594 222.3651580810547 222.646484375 201.88107299804688 227.5455322265625 194.0762481689453 C 234.31773376464844 182.8785858154297 234.9051055908203 184.27029418945312 239.1922607421875 221.95632934570312" stroke-width="0.0" fill="rgb(97, 124, 150)" opacity="0.70744795" stroke="rgb(182, 54, 0)" stroke-opacity="0.5915251" stroke-linecap="round" stroke-linejoin="round"/>
    <path d="M 260.2813720703125 169.45140075683594 C 261.5899353027344 200.22561645507812 262.44781494140625 214.62744140625 261.2541809082031 210.8370819091797 C 244.6016082763672 210.79299926757812 251.92208862304688 215.86866760253906 248.88230895996094 177.68746948242188 C 248.47450256347656 171.95596313476562 249.8939208984375 163.07473754882812 257.1690979003906 163.85446166992188 C 259.0670166015625 168.86843872070312 258.4881591796875 167.61827087402344 260.2813720703125 169.45140075683594" stroke-width="0.0" fill="rgb(252, 252, 234)" opacity="0.43828177" stroke="rgb(68, 53, 164)" stroke-opacity="0.62375474" stroke-linecap="round" stroke-linejoin="round"/>
    <path d="M 226.16993713378906 126.72151184082031 C 229.06585693359375 126.7856216430664 227.72769165039062 169.95787048339844 222.9622344970703 166.6742401123047 C 219.23159790039062 149.28756713867188 219.39373779296875 132.8957061767578 221.3396759033203 138.13449096679688 C 216.42648315429688 129.2307891845703 217.9333038330078 116.98323822021484 219.88418579101562 72.5306625366211 C 223.30397033691406 111.51908874511719 227.88180541992188 102.61924743652344 226.16993713378906 126.72151184082031" stroke-width="0.0" fill="rgb(189, 189, 185)" opacity="0.8270665" stroke="rgb(231, 184, 214)" stroke-opacity="0.34909877" stroke-linecap="round" stroke-linejoin="round"/>
    <path d="M 300.25933837890625 124.38347625732422 C 298.96820068359375 137.01185607910156 300.11956787109375 134.40975952148438 293.6610107421875 143.30496215820312 C 294.6364440917969 146.7269744873047 293.3638000488281 139.42689514160156 293.1450500488281 136.64256286621094 C 292.9024353027344 131.88697814941406 286.27685546875 124.57894897460938 297.69183349609375 120.77617645263672 C 304.616455078125 124.05428314208984 303.7016296386719 125.0247802734375 300.25933837890625 124.38347625732422" stroke-width="0.0" fill="rgb(160, 160, 153)" opacity="0.73616195" stroke="rgb(13, 168, 88)" stroke-opacity="0.22378653" stroke-linecap="round" stroke-linejoin="round"/>
    <path d="M 285.7425537109375 176.6740264892578 C 273.1148376464844 176.51365661621094 273.18963623046875 178.04710388183594 274.2979431152344 182.87863159179688 C 266.4959716796875 183.861572265625 266.4859313964844 179.18374633789062 267.83172607421875 176.02783203125 C 266.5096130371094 169.4641571044922 268.0434265136719 165.74134826660156 287.87579345703125 140.8300323486328 C 283.4869689941406 125.13378143310547 284.9927978515625 139.74754333496094 285.7425537109375 176.6740264892578" stroke-width="0.0" fill="rgb(172, 175, 183)" opacity="0.9999001" stroke="rgb(160, 150, 243)" stroke-opacity="0.60936856" stroke-linecap="round" stroke-linejoin="round"/>
    <path d="M 266.09405517578125 198.73341369628906 C 268.46673583984375 134.99703979492188 299.05645751953125 181.7666015625 262.8033752441406 204.67591857910156 C 259.031982421875 128.86036682128906 258.39874267578125 116.04881286621094 258.7652893066406 118.28343963623047 C 261.3563537597656 153.45973205566406 254.0467529296875 103.00609588623047 262.0188903808594 115.26512908935547 C 261.58953857421875 100.06902313232422 263.9120178222656 128.29432678222656 266.09405517578125 198.73341369628906" stroke-width="0.0" fill="rgb(84, 123, 172)" opacity="1.0" stroke="rgb(67, 180, 1)" stroke-opacity="0.15995747" stroke-linecap="round" stroke-linejoin="round"/>
    <path d="M 298.29986572265625 131.12669372558594 C 301.0065002441406 133.8641815185547 301.12005615234375 135.57167053222656 293.8990173339844 131.75250244140625 C 292.81585693359375 134.1758575439453 291.4200439453125 134.83807373046875 290.44329833984375 133.3461151123047 C 288.7637939453125 108.65583801269531 287.2176208496094 102.20123291015625 293.8121337890625 107.61908721923828 C 301.0704345703125 121.31717681884766 298.810546875 125.82984924316406 298.29986572265625 131.12669372558594" stroke-width="0.0" fill="rgb(230, 226, 213)" opacity="0.2676935" stroke="rgb(84, 88, 223)" stroke-opacity="0.17178299" stroke-linecap="round" stroke-linejoin="round"/>
    <path d="M 243.3347930908203 190.7883758544922 C 243.7658233642578 220.16513061523438 249.2403564453125 232.59559631347656 237.03173828125 228.74609375 C 237.33924865722656 211.2356414794922 234.66970825195312 195.9075469970703 236.38983154296875 183.8479461669922 C 237.01414489746094 189.66661071777344 234.6540069580078 176.4218292236328 235.46661376953125 165.27484130859375 C 245.49581909179688 167.38934326171875 243.3086395263672 178.16860961914062 243.3347930908203 190.7883758544922" stroke-width="0.0" fill="rgb(255, 255, 238)" opacity="0.42758507" stroke="rgb(18, 190, 70)" stroke-opacity="0.53791106" stroke-linecap="round" stroke-linejoin="round"/>
    <path d="M 256.8726501464844 180.86575317382812 C 258.0756530761719 175.2499237060547 261.8555603027344 172.39883422851562 258.4678039550781 204.58999633789062 C 241.9061737060547 161.77757263183594 252.1629180908203 159.3958740234375 246.4783172607422 217.12075805664062 C 249.78451538085938 150.8954315185547 247.3436737060547 157.09523010253906 254.8870086669922 152.00845336914062 C 260.2607727050781 163.2107696533203 261.0914611816406 169.15249633789062 256.8726501464844 180.86575317382812" stroke-width="0.0" fill="rgb(204, 202, 199)" opacity="0.9478616" stroke="rgb(211, 200, 140)" stroke-opacity="0.631539" stroke-linecap="round" stroke-linejoin="round"/>
    <path d="M 304.16064453125 133.46585083007812 C 310.8124694824219 129.01315307617188 306.1212463378906 133.7176055908203 290.89837646484375 138.56317138671875 C 290.2649841308594 127.16499328613281 291.2158508300781 117.14327239990234 289.2439880371094 112.78794860839844 C 274.6933898925781 110.24269104003906 290.6506652832031 111.2330093383789 288.8608703613281 81.0720443725586 C 300.5142517089844 58.413421630859375 305.1446838378906 96.31798553466797 304.16064453125 133.46585083007812" stroke-width="0.0" fill="rgb(255, 255, 249)" opacity="0.35025162" stroke="rgb(111, 221, 53)" stroke-opacity="0.39794284" stroke-linecap="round" stroke-linejoin="round"/>
    <path d="M 186.08848571777344 217.8048553466797 C 184.24188232421875 227.95957946777344 184.6057586669922 217.8948974609375 191.5626983642578 222.26678466796875 C 177.1366729736328 218.00680541992188 179.63575744628906 208.89683532714844 178.59539794921875 229.5655059814453 C 181.64207458496094 214.1949005126953 178.06590270996094 186.28172302246094 174.7086181640625 118.7137451171875 C 187.17222595214844 143.7838592529297 183.26458740234375 198.05328369140625 186.08848571777344 217.8048553466797" stroke-width="0.0" fill="rgb(255, 255, 254)" opacity="0.44097608" stroke="rgb(187, 230, 221)" stroke-opacity="0.25853866" stroke-linecap="round" stroke-linejoin="round"/>
    <path d="M 230.64886474609375 203.77699279785156 C 228.24046325683594 244.30262756347656 233.42637634277344 256.4879455566406 222.99659729003906 249.82217407226562 C 223.60556030273438 200.64971923828125 222.2221221923828 196.05213928222656 222.7139434814453 199.896484375 C 223.85484313964844 196.0538330078125 220.84048461914062 183.5140380859375 222.86961364746094 172.0032501220703 C 231.93357849121094 174.3556365966797 227.15664672851562 181.44712829589844 230.64886474609375 203.77699279785156" stroke-width="0.0" fill="rgb(255, 255, 236)" opacity="0.4204791" stroke="rgb(30, 102, 60)" stroke-opacity="0.5989949" stroke-linecap="round" stroke-linejoin="round"/>
    <path d="M 302.338134765625 124.71977233886719 C 305.2372741699219 133.76019287109375 303.6248779296875 137.09518432617188 298.8674621582031 133.1404266357422 C 288.9912414550781 128.8073272705078 291.7789306640625 123.00819396972656 296.13348388671875 121.76102447509766 C 295.37548828125 119.61868286132812 297.1518859863281 113.37165832519531 295.0626220703125 107.03700256347656 C 304.19635009765625 109.5109634399414 302.80511474609375 112.94501495361328 302.338134765625 124.71977233886719" stroke-width="0.0" fill="rgb(201, 198, 191)" opacity="0.7417578" stroke="rgb(75, 198, 119)" stroke-opacity="0.9519937" stroke-linecap="round" stroke-linejoin="round"/>
    <path d="M 282.4723205566406 112.14096069335938 C 276.8946838378906 121.88935089111328 275.3377380371094 123.9312973022461 269.5465393066406 128.3787078857422 C 269.1712646484375 113.15753936767578 269.7392883300781 107.44337463378906 253.5718994140625 118.04076385498047 C 253.27537536621094 101.1987533569336 256.77935791015625 98.97358703613281 271.1234436035156 102.21143341064453 C 282.8215026855469 103.60678100585938 283.055419921875 103.2328872680664 282.4723205566406 112.14096069335938" stroke-width="0.0" fill="rgb(203, 200, 195)" opacity="0.677281" stroke="rgb(168, 241, 115)" stroke-opacity="0.8565368" stroke-linecap="round" stroke-linejoin="round"/>
    <path d="M 305.7346496582031 107.869384765625 C 304.32879638671875 151.1637725830078 308.0155029296875 178.6358184814453 309.0264587402344 211.9518585205078 C 283.91552734375 216.49301147460938 296.8070373535156 205.423828125 290.6028137207031 126.98310852050781 C 287.6285095214844 143.54100036621094 292.4704895019531 129.94593811035156 296.5767822265625 133.8037872314453 C 308.0348205566406 135.08067321777344 304.0705871582031 130.9832305908203 305.7346496582031 107.869384765625" stroke-width="0.0" fill="rgb(217, 215, 204)" opacity="0.6812252" stroke="rgb(128, 195, 196)" stroke-opacity="0.63209933" stroke-linecap="round" stroke-linejoin="round"/>
    <path d="M 225.65402221679688 151.40536499023438 C 227.68406677246094 150.65283203125 232.62734985351562 172.55813598632812 222.0717010498047 176.4306640625 C 218.54234313964844 155.12200927734375 219.6645965576172 126.84495544433594 218.92872619628906 140.99237060546875 C 219.05686950683594 139.78199768066406 218.9845428466797 137.3661346435547 218.83749389648438 109.56361389160156 C 225.08843994140625 99.8731460571289 223.3214569091797 129.4055938720703 225.65402221679688 151.40536499023438" stroke-width="0.0" fill="rgb(232, 231, 226)" opacity="0.41620103" stroke="rgb(148, 166, 235)" stroke-opacity="0.30970454" stroke-linecap="round" stroke-linejoin="round"/>
    <path d="M 241.03793334960938 94.79450225830078 C 242.94375610351562 172.174560546875 237.0305633544922 151.1564483642578 250.49871826171875 150.40150451660156 C 224.1079864501953 157.94017028808594 236.04994201660156 152.77987670898438 231.5667266845703 128.31246948242188 C 232.50967407226562 89.18797302246094 231.5079803466797 88.97798156738281 239.4485626220703 104.2774658203125 C 240.3401641845703 145.7566680908203 239.85848999023438 165.87913513183594 241.03793334960938 94.79450225830078" stroke-width="0.0" fill="rgb(202, 203, 196)" opacity="0.79240805" stroke="rgb(85, 201, 4)" stroke-opacity="0.1980248" stroke-linecap="round" stroke-linejoin="round"/>
    <path d="M 283.3674011230469 134.02500915527344 C 285.8262939453125 153.23326110839844 283.896728515625 155.63980102539062 281.32763671875 154.07273864746094 C 265.58319091796875 159.4422149658203 267.001220703125 153.84312438964844 279.42364501953125 149.00222778320312 C 277.5227966308594 138.55908203125 276.6589660644531 133.3670196533203 276.8143310546875 128.9309844970703 C 284.1031494140625 135.78689575195312 282.6678771972656 134.0963592529297 283.3674011230469 134.02500915527344" stroke-width="0.0" fill="rgb(187, 194, 235)" opacity="0.99999994" stroke="rgb(18, 46, 160)" stroke-opacity="0.44695896" stroke-linecap="round" stroke-linejoin="round"/>
    <path d="M 289.10797119140625 111.8462905883789 C 282.1205749511719 110.6058578491211 276.2582092285156 109.91132354736328 272.18109130859375 112.5705795288086 C 271.5101013183594 113.05675506591797 270.38751220703125 108.89739227294922 252.8282470703125 117.41390991210938 C 264.9355163574219 100.13829040527344 272.7615966796875 95.56143188476562 270.7679748535156 101.6630859375 C 287.99737548828125 103.46192932128906 287.6136169433594 97.51899719238281 289.10797119140625 111.8462905883789" stroke-width="0.0" fill="rgb(242, 244, 233)" opacity="0.2491898" stroke="rgb(11, 253, 81)" stroke-opacity="0.86006427" stroke-linecap="round" stroke-linejoin="round"/>
    <path d="M 282.3623352050781 165.65298461914062 C 281.2008972167969 176.39739990234375 280.6515808105469 178.50216674804688 265.9847106933594 188.6166534423828 C 266.4716796875 193.83712768554688 267.1170654296875 190.7935333251953 265.94903564453125 174.0123748779297 C 264.8502197265625 148.1744384765625 263.7431640625 138.9331512451172 266.7379455566406 139.6566162109375 C 287.4026184082031 147.6029052734375 286.7418518066406 153.81796264648438 282.3623352050781 165.65298461914062" stroke-width="0.0" fill="rgb(220, 224, 229)" opacity="0.73402596" stroke="rgb(211, 162, 188)" stroke-opacity="0.6791553" stroke-linecap="round" stroke-linejoin="round"/>
    <path d="M 284.181884765625 147.3651885986328 C 288.644775390625 162.07528686523438 283.58111572265625 175.04356384277344 276.86016845703125 170.8089599609375 C 270.74639892578125 163.47308349609375 274.3388366699219 156.77410888671875 271.47113037109375 151.34495544433594 C 264.7513427734375 145.40953063964844 264.6591796875 140.6807098388672 274.53375244140625 132.505126953125 C 285.9111328125 137.60328674316406 288.5289306640625 137.97425842285156 284.181884765625 147.3651885986328" stroke-width="0.0" fill="rgb(201, 198, 185)" opacity="0.79224396" stroke="rgb(61, 74, 70)" stroke-opacity="0.050320268" stroke-linecap="round" stroke-linejoin="round"/>
    <path d="M 299.3424377441406 112.80406951904297 C 275.30865478515625 109.866455078125 300.5605773925781 120.94702911376953 290.3208923339844 205.94503784179688 C 274.01263427734375 137.76348876953125 283.7452392578125 132.76156616210938 269.43463134765625 114.33979034423828 C 287.7355041503906 109.6139907836914 300.2521057128906 115.65982055664062 299.965087890625 110.06962585449219 C 302.0971984863281 102.79727172851562 302.5373229980469 100.45840454101562 299.3424377441406 112.80406951904297" stroke-width="0.0" fill="rgb(25, 93, 180)" opacity="0.64565325" stroke="rgb(244, 231, 193)" stroke-opacity="0.7434501" stroke-linecap="round" stroke-linejoin="round"/>
    <path d="M 283.4616394042969 125.35718536376953 C 284.7485046386719 126.61773681640625 282.5601501464844 159.3000030517578 267.13262939453125 159.06109619140625 C 265.8802795410156 152.7513885498047 265.2937316894531 140.73208618164062 263.7347412109375 124.55960083007812 C 265.5003662109375 108.54037475585938 258.99566650390625 108.20435333251953 283.1014709472656 108.52010345458984 C 282.1202697753906 103.86172485351562 282.9577941894531 113.90731048583984 283.4616394042969 125.35718536376953" stroke-width="0.0" fill="rgb(207, 203, 197)" opacity="0.98030555" stroke="rgb(53, 218, 232)" stroke-opacity="0.30969724" stroke-linecap="round" stroke-linejoin="round"/>
    <path d="M 242.1505889892578 169.69764709472656 C 234.24697875976562 169.63656616210938 247.6864013671875 180.49075317382812 234.7085418701172 189.32882690429688 C 234.3970184326172 171.23731994628906 235.5532684326172 147.13746643066406 233.5898895263672 186.22909545898438 C 233.44827270507812 161.42613220214844 233.5927276611328 143.12998962402344 235.11541748046875 129.28977966308594 C 242.409423828125 157.67581176757812 243.41146850585938 147.45010375976562 242.1505889892578 169.69764709472656" stroke-width="0.0" fill="rgb(206, 204, 198)" opacity="0.8090649" stroke="rgb(248, 62, 195)" stroke-opacity="0.38028064" stroke-linecap="round" stroke-linejoin="round"/>
    <path d="M 230.43995666503906 177.45864868164062 C 224.67428588867188 177.4939422607422 227.179931640625 185.32174682617188 227.07879638671875 195.57449340820312 C 228.30987548828125 187.11521911621094 230.47105407714844 197.14788818359375 222.20941162109375 199.12936401367188 C 220.4028778076172 157.01283264160156 218.28500366210938 161.42274475097656 225.9491424560547 162.2124786376953 C 231.08944702148438 175.6355438232422 230.1642608642578 200.8296356201172 230.43995666503906 177.45864868164062" stroke-width="0.0" fill="rgb(209, 210, 204)" opacity="0.60888267" stroke="rgb(184, 158, 39)" stroke-opacity="0.80197775" stroke-linecap="round" stroke-linejoin="round"/>
    <path d="M 464.384521484375 332.7705993652344 C 431.35882568359375 332.359130859375 443.26019287109375 294.80938720703125 415.0079040527344 334.7244873046875 C 369.8631286621094 296.97503662109375 400.25518798828125 363.05645751953125 370.3050537109375 329.99365234375 C 385.6903076171875 301.2960205078125 403.7687072753906 291.99505615234375 438.76922607421875 300.60699462890625 C 408.74212646484375 290.6156005859375 470.1812744140625 311.7450866699219 464.384521484375 332.7705993652344" stroke-width="0.0" fill="rgb(240, 86, 12)" opacity="0.9815068" stroke="rgb(163, 203, 130)" stroke-opacity="0.7504934" stroke-linecap="round" stroke-linejoin="round"/>
    <path d="M 279.5855407714844 122.06254577636719 C 278.0361022949219 123.4187240600586 278.4808654785156 131.72535705566406 267.634033203125 145.85890197753906 C 263.034912109375 150.4647216796875 265.1461486816406 140.5026092529297 262.87200927734375 114.87516784667969 C 263.3644104003906 107.31657409667969 265.2498474121094 109.41175079345703 283.4362487792969 103.97208404541016 C 288.4704895019531 103.6021957397461 280.3995361328125 115.21688079833984 279.5855407714844 122.06254577636719" stroke-width="0.0" fill="rgb(204, 203, 200)" opacity="0.663914" stroke="rgb(53, 251, 252)" stroke-opacity="0.39264244" stroke-linecap="round" stroke-linejoin="round"/>
    <path d="M 286.09417724609375 180.30690002441406 C 285.1995544433594 204.88096618652344 291.70941162109375 202.8247833251953 268.19525146484375 203.48422241210938 C 266.30926513671875 202.402099609375 266.9737243652344 184.4611358642578 267.85028076171875 153.8809814453125 C 276.4966125488281 165.3094940185547 274.1991882324219 160.71640014648438 281.9510498046875 161.3704071044922 C 285.6977844238281 169.82421875 285.1258850097656 175.2439422607422 286.09417724609375 180.30690002441406" stroke-width="0.0" fill="rgb(207, 205, 197)" opacity="0.99361056" stroke="rgb(88, 117, 92)" stroke-opacity="0.26454076" stroke-linecap="round" stroke-linejoin="round"/>
    <path d="M 83.0 367.0 C 82.33012390136719 369.5 80.5 371.33013916015625 78.0 372.0 C 75.5 371.33013916015625 73.66987609863281 369.5 73.0 367.0 C 73.66987609863281 364.5 75.5 362.66986083984375 78.0 362.0 C 80.5 362.66986083984375 82.33012390136719 364.5 83.0 367.0" stroke-width="0.0" fill="rgb(245, 87, 20)" opacity="1.0" stroke="rgb(174, 92, 50)" stroke-opacity="0.586909" stroke-linecap="round" stroke-linejoin="round"/>
    <path d="M 220.0 100.0 C 219.3301239013672 102.5 217.5 104.33012390136719 215.0 105.0 C 212.5 104.33012390136719 210.6698760986328 102.5 210.0 100.0 C 210.6698760986328 97.5 212.5 95.66987609863281 215.0 95.0 C 217.5 95.66987609863281 219.3301239013672 97.5 220.0 100.0" stroke-width="0.0" fill="rgb(87, 149, 206)" opacity="1.0" stroke="rgb(113, 93, 94)" stroke-opacity="0.6900816" stroke-linecap="round" stroke-linejoin="round"/>
    <path d="M 289.0 334.0 C 288.33013916015625 336.5 286.5 338.33013916015625 284.0 339.0 C 281.5 338.33013916015625 279.66986083984375 336.5 279.0 334.0 C 279.66986083984375 331.5 281.5 329.66986083984375 284.0 329.0 C 286.5 329.66986083984375 288.33013916015625 331.5 289.0 334.0" stroke-width="0.0" fill="rgb(133, 170, 11)" opacity="1.0" stroke="rgb(16, 49, 75)" stroke-opacity="0.69608885" stroke-linecap="round" stroke-linejoin="round"/>
    <path d="M 326.0 85.0 C 325.33013916015625 87.5 323.5 89.33012390136719 321.0 90.0 C 318.5 89.33012390136719 316.66986083984375 87.5 316.0 85.0 C 316.66986083984375 82.5 318.5 80.66987609863281 321.0 80.0 C 323.5 80.66987609863281 325.33013916015625 82.5 326.0 85.0" stroke-width="0.0" fill="rgb(78, 145, 219)" opacity="1.0" stroke="rgb(203, 190, 230)" stroke-opacity="0.94274634" stroke-linecap="round" stroke-linejoin="round"/>
    <path d="M 447.0 258.0 C 446.33013916015625 260.5 444.5 262.33013916015625 442.0 263.0 C 439.5 262.33013916015625 437.66986083984375 260.5 437.0 258.0 C 437.66986083984375 255.5 439.5 253.6698760986328 442.0 253.0 C 444.5 253.6698760986328 446.33013916015625 255.5 447.0 258.0" stroke-width="0.0" fill="rgb(62, 126, 193)" opacity="1.0" stroke="rgb(115, 4, 74)" stroke-opacity="0.57548684" stroke-linecap="round" stroke-linejoin="round"/>
    <path d="M 313.0 79.0 C 312.33013916015625 81.5 310.5 83.33012390136719 308.0 84.0 C 305.5 83.33012390136719 303.66986083984375 81.5 303.0 79.0 C 303.66986083984375 76.5 305.5 74.66987609863281 308.0 74.0 C 310.5 74.66987609863281 312.33013916015625 76.5 313.0 79.0" stroke-width="0.0" fill="rgb(63, 139, 220)" opacity="1.0" stroke="rgb(186, 238, 55)" stroke-opacity="0.8307402" stroke-linecap="round" stroke-linejoin="round"/>
    <path d="M 271.0 370.0 C 270.33013916015625 372.5 268.5 374.33013916015625 266.0 375.0 C 263.5 374.33013916015625 261.66986083984375 372.5 261.0 370.0 C 261.66986083984375 367.5 263.5 365.66986083984375 266.0 365.0 C 268.5 365.66986083984375 270.33013916015625 367.5 271.0 370.0" stroke-width="0.0" fill="rgb(227, 0, 20)" opacity="1.0" stroke="rgb(246, 197, 204)" stroke-opacity="0.5232933" stroke-linecap="round" stroke-linejoin="round"/>
    <path d="M 335.0 365.0 C 334.33013916015625 367.5 332.5 369.33013916015625 330.0 370.0 C 327.5 369.33013916015625 325.66986083984375 367.5 325.0 365.0 C 325.66986083984375 362.5 327.5 360.66986083984375 330.0 360.0 C 332.5 360.66986083984375 334.33013916015625 362.5 335.0 365.0" stroke-width="0.0" fill="rgb(183, 189, 186)" opacity="1.0" stroke="rgb(234, 37, 138)" stroke-opacity="0.6251342" stroke-linecap="round" stroke-linejoin="round"/>
    <path d="M 461.0 405.0 C 460.33013916015625 407.5 458.5 409.33013916015625 456.0 410.0 C 453.5 409.33013916015625 451.66986083984375 407.5 451.0 405.0 C 451.66986083984375 402.5 453.5 400.66986083984375 456.0 400.0 C 458.5 400.66986083984375 460.33013916015625 402.5 461.0 405.0" stroke-width="0.0" fill="rgb(249, 95, 16)" opacity="1.0" stroke="rgb(33, 252, 25)" stroke-opacity="0.16970268" stroke-linecap="round" stroke-linejoin="round"/>
    <path d="M 393.0 395.0 C 392.33013916015625 397.5 390.5 399.33013916015625 388.0 400.0 C 385.5 399.33013916015625 383.66986083984375 397.5 383.0 395.0 C 383.66986083984375 392.5 385.5 390.66986083984375 388.0 390.0 C 390.5 390.66986083984375 392.33013916015625 392.5 393.0 395.0" stroke-width="0.0" fill="rgb(241, 114, 9)" opacity="1.0" stroke="rgb(155, 63, 249)" stroke-opacity="0.29974735" stroke-linecap="round" stroke-linejoin="round"/>
    <path d="M 426.0 440.0 C 425.33013916015625 442.5 423.5 444.33013916015625 421.0 445.0 C 418.5 444.33013916015625 416.66986083984375 442.5 416.0 440.0 C 416.66986083984375 437.5 418.5 435.66986083984375 421.0 435.0 C 423.5 435.66986083984375 425.33013916015625 437.5 426.0 440.0" stroke-width="0.0" fill="rgb(212, 226, 225)" opacity="1.0" stroke="rgb(239, 123, 65)" stroke-opacity="0.8442678" stroke-linecap="round" stroke-linejoin="round"/>
    <path d="M 324.0 197.0 C 323.33013916015625 199.5 321.5 201.3301239013672 319.0 202.0 C 316.5 201.3301239013672 314.66986083984375 199.5 314.0 197.0 C 314.66986083984375 194.5 316.5 192.6698760986328 319.0 192.0 C 321.5 192.6698760986328 323.33013916015625 194.5 324.0 197.0" stroke-width="0.0" fill="rgb(207, 203, 194)" opacity="1.0" stroke="rgb(73, 50, 97)" stroke-opacity="0.6706339" stroke-linecap="round" stroke-linejoin="round"/>
    <path d="M 216.0 163.0 C 215.3301239013672 165.5 213.5 167.3301239013672 211.0 168.0 C 208.5 167.3301239013672 206.6698760986328 165.5 206.0 163.0 C 206.6698760986328 160.5 208.5 158.6698760986328 211.0 158.0 C 213.5 158.6698760986328 215.3301239013672 160.5 216.0 163.0" stroke-width="0.0" fill="rgb(205, 204, 197)" opacity="1.0" stroke="rgb(240, 210, 162)" stroke-opacity="0.32672653" stroke-linecap="round" stroke-linejoin="round"/>
    <path d="M 78.0 344.0 C 77.33012390136719 346.5 75.5 348.33013916015625 73.0 349.0 C 70.5 348.33013916015625 68.66987609863281 346.5 68.0 344.0 C 68.66987609863281 341.5 70.5 339.66986083984375 73.0 339.0 C 75.5 339.66986083984375 77.33012390136719 341.5 78.0 344.0" stroke-width="0.0" fill="rgb(243, 96, 21)" opacity="1.0" stroke="rgb(73, 34, 240)" stroke-opacity="0.09032282" stroke-linecap="round" stroke-linejoin="round"/>
    <path d="M 216.0 195.0 C 215.3301239013672 197.5 213.5 199.3301239013672 211.0 200.0 C 208.5 199.3301239013672 206.6698760986328 197.5 206.0 195.0 C 206.6698760986328 192.5 208.5 190.6698760986328 211.0 190.0 C 213.5 190.6698760986328 215.3301239013672 192.5 216.0 195.0" stroke-width="0.0" fill="rgb(208, 204, 200)" opacity="1.0" stroke="rgb(241, 190, 235)" stroke-opacity="0.15469867" stroke-linecap="round" stroke-linejoin="round"/>
    <path d="M 202.0 164.0 C 201.3301239013672 166.5 199.5 168.3301239013672 197.0 169.0 C 194.5 168.3301239013672 192.6698760986328 166.5 192.0 164.0 C 192.6698760986328 161.5 194.5 159.6698760986328 197.0 159.0 C 199.5 159.6698760986328 201.3301239013672 161.5 202.0 164.0" stroke-width="0.0" fill="rgb(209, 205, 200)" opacity="1.0" stroke="rgb(248, 134, 16)" stroke-opacity="0.9850819" stroke-linecap="round" stroke-linejoin="round"/>
    <path d="M 149.0 396.0 C 148.3301239013672 398.5 146.5 400.33013916015625 144.0 401.0 C 141.5 400.33013916015625 139.6698760986328 398.5 139.0 396.0 C 139.6698760986328 393.5 141.5 391.66986083984375 144.0 391.0 C 146.5 391.66986083984375 148.3301239013672 393.5 149.0 396.0" stroke-width="0.0" fill="rgb(238, 113, 7)" opacity="1.0" stroke="rgb(236, 11, 23)" stroke-opacity="0.2690992" stroke-linecap="round" stroke-linejoin="round"/>
    <path d="M 278.0 333.0 C 277.33013916015625 335.5 275.5 337.33013916015625 273.0 338.0 C 270.5 337.33013916015625 268.66986083984375 335.5 268.0 333.0 C 268.66986083984375 330.5 270.5 328.66986083984375 273.0 328.0 C 275.5 328.66986083984375 277.33013916015625 330.5 278.0 333.0" stroke-width="0.0" fill="rgb(147, 167, 20)" opacity="1.0" stroke="rgb(87, 8, 100)" stroke-opacity="0.035595164" stroke-linecap="round" stroke-linejoin="round"/>
    <path d="M 503.0 334.0 C 502.33013916015625 336.5 500.5 338.33013916015625 498.0 339.0 C 495.5 338.33013916015625 493.66986083984375 336.5 493.0 334.0 C 493.66986083984375 331.5 495.5 329.66986083984375 498.0 329.0 C 500.5 329.66986083984375 502.33013916015625 331.5 503.0 334.0" stroke-width="0.0" fill="rgb(116, 165, 11)" opacity="1.0" stroke="rgb(153, 120, 6)" stroke-opacity="0.0018295923" stroke-linecap="round" stroke-linejoin="round"/>
    <path d="M 233.0 86.0 C 232.3301239013672 88.5 230.5 90.33012390136719 228.0 91.0 C 225.5 90.33012390136719 223.6698760986328 88.5 223.0 86.0 C 223.6698760986328 83.5 225.5 81.66987609863281 228.0 81.0 C 230.5 81.66987609863281 232.3301239013672 83.5 233.0 86.0" stroke-width="0.0" fill="rgb(92, 153, 220)" opacity="1.0" stroke="rgb(183, 157, 157)" stroke-opacity="0.1307594" stroke-linecap="round" stroke-linejoin="round"/>
    <path d="M 232.0 92.0 C 231.3301239013672 94.5 229.5 96.33012390136719 227.0 97.0 C 224.5 96.33012390136719 222.6698760986328 94.5 222.0 92.0 C 222.6698760986328 89.5 224.5 87.66987609863281 227.0 87.0 C 229.5 87.66987609863281 231.3301239013672 89.5 232.0 92.0" stroke-width="0.0" fill="rgb(86, 151, 220)" opacity="1.0" stroke="rgb(4, 101, 45)" stroke-opacity="0.03313614" stroke-linecap="round" stroke-linejoin="round"/>
    <path d="M 245.0 87.0 C 244.3301239013672 89.5 242.5 91.33012390136719 240.0 92.0 C 237.5 91.33012390136719 235.6698760986328 89.5 235.0 87.0 C 235.6698760986328 84.5 237.5 82.66987609863281 240.0 82.0 C 242.5 82.66987609863281 244.3301239013672 84.5 245.0 87.0" stroke-width="0.0" fill="rgb(80, 151, 217)" opacity="1.0" stroke="rgb(15, 95, 194)" stroke-opacity="0.5478867" stroke-linecap="round" stroke-linejoin="round"/>
    <path d="M 346.0 84.0 C 345.33013916015625 86.5 343.5 88.33012390136719 341.0 89.0 C 338.5 88.33012390136719 336.66986083984375 86.5 336.0 84.0 C 336.66986083984375 81.5 338.5 79.66987609863281 341.0 79.0 C 343.5 79.66987609863281 345.33013916015625 81.5 346.0 84.0" stroke-width="0.0" fill="rgb(77, 148, 227)" opacity="1.0" stroke="rgb(157, 82, 177)" stroke-opacity="0.08393169" stroke-linecap="round" stroke-linejoin="round"/>
    <path d="M 330.0 84.0 C 329.33013916015625 86.5 327.5 88.33012390136719 325.0 89.0 C 322.5 88.33012390136719 320.66986083984375 86.5 320.0 84.0 C 320.66986083984375 81.5 322.5 79.66987609863281 325.0 79.0 C 327.5 79.66987609863281 329.33013916015625 81.5 330.0 84.0" stroke-width="0.0" fill="rgb(64, 142, 217)" opacity="1.0" stroke="rgb(251, 96, 52)" stroke-opacity="0.5185631" stroke-linecap="round" stroke-linejoin="round"/>
    <path d="M 345.0 91.0 C 344.33013916015625 93.5 342.5 95.33012390136719 340.0 96.0 C 337.5 95.33012390136719 335.66986083984375 93.5 335.0 91.0 C 335.66986083984375 88.5 337.5 86.66987609863281 340.0 86.0 C 342.5 86.66987609863281 344.33013916015625 88.5 345.0 91.0" stroke-width="0.0" fill="rgb(55, 128, 202)" opacity="1.0" stroke="rgb(22, 199, 18)" stroke-opacity="0.6079953" stroke-linecap="round" stroke-linejoin="round"/>
    <path d="M 310.0 80.0 C 309.33013916015625 82.5 307.5 84.33012390136719 305.0 85.0 C 302.5 84.33012390136719 300.66986083984375 82.5 300.0 80.0 C 300.66986083984375 77.5 302.5 75.66987609863281 305.0 75.0 C 307.5 75.66987609863281 309.33013916015625 77.5 310.0 80.0" stroke-width="0.0" fill="rgb(58, 133, 218)" opacity="1.0" stroke="rgb(66, 21, 18)" stroke-opacity="0.5134856" stroke-linecap="round" stroke-linejoin="round"/>
    <path d="M 279.0 368.0 C 278.33013916015625 370.5 276.5 372.33013916015625 274.0 373.0 C 271.5 372.33013916015625 269.66986083984375 370.5 269.0 368.0 C 269.66986083984375 365.5 271.5 363.66986083984375 274.0 363.0 C 276.5 363.66986083984375 278.33013916015625 365.5 279.0 368.0" stroke-width="0.0" fill="rgb(228, 0, 25)" opacity="1.0" stroke="rgb(71, 243, 153)" stroke-opacity="0.47513613" stroke-linecap="round" stroke-linejoin="round"/>
    <path d="M 268.0 377.0 C 267.33013916015625 379.5 265.5 381.33013916015625 263.0 382.0 C 260.5 381.33013916015625 258.66986083984375 379.5 258.0 377.0 C 258.66986083984375 374.5 260.5 372.66986083984375 263.0 372.0 C 265.5 372.66986083984375 267.33013916015625 374.5 268.0 377.0" stroke-width="0.0" fill="rgb(228, 1, 21)" opacity="1.0" stroke="rgb(87, 155, 113)" stroke-opacity="0.6920121" stroke-linecap="round" stroke-linejoin="round"/>
    <path d="M 263.0 386.0 C 262.33013916015625 388.5 260.5 390.33013916015625 258.0 391.0 C 255.5 390.33013916015625 253.6698760986328 388.5 253.0 386.0 C 253.6698760986328 383.5 255.5 381.66986083984375 258.0 381.0 C 260.5 381.66986083984375 262.33013916015625 383.5 263.0 386.0" stroke-width="0.0" fill="rgb(235, 0, 19)" opacity="1.0" stroke="rgb(4, 131, 236)" stroke-opacity="0.75252825" stroke-linecap="round" stroke-linejoin="round"/>
    <path d="M 266.0 413.0 C 265.33013916015625 415.5 263.5 417.33013916015625 261.0 418.0 C 258.5 417.33013916015625 256.66986083984375 415.5 256.0 413.0 C 256.66986083984375 410.5 258.5 408.66986083984375 261.0 408.0 C 263.5 408.66986083984375 265.33013916015625 410.5 266.0 413.0" stroke-width="0.0" fill="rgb(247, 0, 19)" opacity="1.0" stroke="rgb(1, 26, 2)" stroke-opacity="0.99989504" stroke-linecap="round" stroke-linejoin="round"/>
    <path d="M 268.0 408.0 C 267.33013916015625 410.5 265.5 412.33013916015625 263.0 413.0 C 260.5 412.33013916015625 258.66986083984375 410.5 258.0 408.0 C 258.66986083984375 405.5 260.5 403.66986083984375 263.0 403.0 C 265.5 403.66986083984375 267.33013916015625 405.5 268.0 408.0" stroke-width="0.0" fill="rgb(246, 0, 17)" opacity="1.0" stroke="rgb(211, 40, 187)" stroke-opacity="0.402038" stroke-linecap="round" stroke-linejoin="round"/>
    <path d="M 445.0 340.0 C 444.33013916015625 342.5 442.5 344.33013916015625 440.0 345.0 C 437.5 344.33013916015625 435.66986083984375 342.5 435.0 340.0 C 435.66986083984375 337.5 437.5 335.66986083984375 440.0 335.0 C 442.5 335.66986083984375 444.33013916015625 337.5 445.0 340.0" stroke-width="0.0" fill="rgb(234, 114, 5)" opacity="1.0" stroke="rgb(211, 215, 6)" stroke-opacity="0.56576085" stroke-linecap="round" stroke-linejoin="round"/>
    <path d="M 461.0 399.0 C 460.33013916015625 401.5 458.5 403.33013916015625 456.0 404.0 C 453.5 403.33013916015625 451.66986083984375 401.5 451.0 399.0 C 451.66986083984375 396.5 453.5 394.66986083984375 456.0 394.0 C 458.5 394.66986083984375 460.33013916015625 396.5 461.0 399.0" stroke-width="0.0" fill="rgb(243, 101, 16)" opacity="1.0" stroke="rgb(72, 142, 227)" stroke-opacity="0.58427787" stroke-linecap="round" stroke-linejoin="round"/>
    <path d="M 453.0 301.0 C 452.33013916015625 303.5 450.5 305.33013916015625 448.0 306.0 C 445.5 305.33013916015625 443.66986083984375 303.5 443.0 301.0 C 443.66986083984375 298.5 445.5 296.66986083984375 448.0 296.0 C 450.5 296.66986083984375 452.33013916015625 298.5 453.0 301.0" stroke-width="0.0" fill="rgb(0, 38, 145)" opacity="1.0" stroke="rgb(78, 75, 88)" stroke-opacity="0.17300095" stroke-linecap="round" stroke-linejoin="round"/>
    <path d="M 398.0 294.0 C 397.33013916015625 296.5 395.5 298.33013916015625 393.0 299.0 C 390.5 298.33013916015625 388.66986083984375 296.5 388.0 294.0 C 388.66986083984375 291.5 390.5 289.66986083984375 393.0 289.0 C 395.5 289.66986083984375 397.33013916015625 291.5 398.0 294.0" stroke-width="0.0" fill="rgb(2, 40, 163)" opacity="1.0" stroke="rgb(102, 99, 197)" stroke-opacity="0.15345138" stroke-linecap="round" stroke-linejoin="round"/>
    <path d="M 314.0 347.0 C 313.33013916015625 349.5 311.5 351.33013916015625 309.0 352.0 C 306.5 351.33013916015625 304.66986083984375 349.5 304.0 347.0 C 304.66986083984375 344.5 306.5 342.66986083984375 309.0 342.0 C 311.5 342.66986083984375 313.33013916015625 344.5 314.0 347.0" stroke-width="0.0" fill="rgb(213, 0, 21)" opacity="1.0" stroke="rgb(16, 107, 57)" stroke-opacity="0.7642743" stroke-linecap="round" stroke-linejoin="round"/>
    <path d="M 336.0 353.0 C 335.33013916015625 355.5 333.5 357.33013916015625 331.0 358.0 C 328.5 357.33013916015625 326.66986083984375 355.5 326.0 353.0 C 326.66986083984375 350.5 328.5 348.66986083984375 331.0 348.0 C 333.5 348.66986083984375 335.33013916015625 350.5 336.0 353.0" stroke-width="0.0" fill="rgb(211, 0, 16)" opacity="1.0" stroke="rgb(186, 61, 140)" stroke-opacity="0.56001043" stroke-linecap="round" stroke-linejoin="round"/>
    <path d="M 391.0 402.0 C 390.33013916015625 404.5 388.5 406.33013916015625 386.0 407.0 C 383.5 406.33013916015625 381.66986083984375 404.5 381.0 402.0 C 381.66986083984375 399.5 383.5 397.66986083984375 386.0 397.0 C 388.5 397.66986083984375 390.33013916015625 399.5 391.0 402.0" stroke-width="0.0" fill="rgb(250, 103, 9)" opacity="1.0" stroke="rgb(208, 138, 25)" stroke-opacity="0.039537806" stroke-linecap="round" stroke-linejoin="round"/>
    <path d="M 139.0 313.0 C 138.3301239013672 315.5 136.5 317.33013916015625 134.0 318.0 C 131.5 317.33013916015625 129.6698760986328 315.5 129.0 313.0 C 129.6698760986328 310.5 131.5 308.66986083984375 134.0 308.0 C 136.5 308.66986083984375 138.3301239013672 310.5 139.0 313.0" stroke-width="0.0" fill="rgb(0, 43, 142)" opacity="1.0" stroke="rgb(80, 67, 126)" stroke-opacity="0.35250923" stroke-linecap="round" stroke-linejoin="round"/>
    <path d="M 105.0 302.0 C 104.33012390136719 304.5 102.5 306.33013916015625 100.0 307.0 C 97.5 306.33013916015625 95.66987609863281 304.5 95.0 302.0 C 95.66987609863281 299.5 97.5 297.66986083984375 100.0 297.0 C 102.5 297.66986083984375 104.33012390136719 299.5 105.0 302.0" stroke-width="0.0" fill="rgb(0, 38, 169)" opacity="1.0" stroke="rgb(146, 163, 190)" stroke-opacity="0.7392638" stroke-linecap="round" stroke-linejoin="round"/>
    <path d="M 247.0 86.0 C 246.3301239013672 88.5 244.5 90.33012390136719 242.0 91.0 C 239.5 90.33012390136719 237.6698760986328 88.5 237.0 86.0 C 237.6698760986328 83.5 239.5 81.66987609863281 242.0 81.0 C 244.5 81.66987609863281 246.3301239013672 83.5 247.0 86.0" stroke-width="0.0" fill="rgb(69, 141, 203)" opacity="1.0" stroke="rgb(120, 223, 111)" stroke-opacity="0.8220568" stroke-linecap="round" stroke-linejoin="round"/>
    <path d="M 280.0 336.0 C 279.33013916015625 338.5 277.5 340.33013916015625 275.0 341.0 C 272.5 340.33013916015625 270.66986083984375 338.5 270.0 336.0 C 270.66986083984375 333.5 272.5 331.66986083984375 275.0 331.0 C 277.5 331.66986083984375 279.33013916015625 333.5 280.0 336.0" stroke-width="0.0" fill="rgb(153, 174, 41)" opacity="1.0" stroke="rgb(28, 125, 197)" stroke-opacity="0.5464176" stroke-linecap="round" stroke-linejoin="round"/>
    <path d="M 127.0 240.0 C 126.33012390136719 242.5 124.5 244.3301239013672 122.0 245.0 C 119.5 244.3301239013672 117.66987609863281 242.5 117.0 240.0 C 117.66987609863281 237.5 119.5 235.6698760986328 122.0 235.0 C 124.5 235.6698760986328 126.33012390136719 237.5 127.0 240.0" stroke-width="0.0" fill="rgb(65, 116, 173)" opacity="1.0" stroke="rgb(244, 23, 7)" stroke-opacity="0.08555853" stroke-linecap="round" stroke-linejoin="round"/>
    <path d="M 259.0 276.0 C 258.33013916015625 278.5 256.5 280.33013916015625 254.0 281.0 C 251.5 280.33013916015625 249.6698760986328 278.5 249.0 276.0 C 249.6698760986328 273.5 251.5 271.66986083984375 254.0 271.0 C 256.5 271.66986083984375 258.33013916015625 273.5 259.0 276.0" stroke-width="0.0" fill="rgb(207, 205, 193)" opacity="1.0" stroke="rgb(60, 68, 50)" stroke-opacity="0.7127839" stroke-linecap="round" stroke-linejoin="round"/>
    <path d="M 433.0 312.0 C 432.33013916015625 314.5 430.5 316.33013916015625 428.0 317.0 C 425.5 316.33013916015625 423.66986083984375 314.5 423.0 312.0 C 423.66986083984375 309.5 425.5 307.66986083984375 428.0 307.0 C 430.5 307.66986083984375 432.33013916015625 309.5 433.0 312.0" stroke-width="0.0" fill="rgb(216, 1, 37)" opacity="1.0" stroke="rgb(120, 41, 7)" stroke-opacity="0.18702355" stroke-linecap="round" stroke-linejoin="round"/>
    <path d="M 447.0 256.0 C 446.33013916015625 258.5 444.5 260.33013916015625 442.0 261.0 C 439.5 260.33013916015625 437.66986083984375 258.5 437.0 256.0 C 437.66986083984375 253.5 439.5 251.6698760986328 442.0 251.0 C 444.5 251.6698760986328 446.33013916015625 253.5 447.0 256.0" stroke-width="0.0" fill="rgb(61, 124, 185)" opacity="1.0" stroke="rgb(140, 28, 195)" stroke-opacity="0.9440074" stroke-linecap="round" stroke-linejoin="round"/>
    <path d="M 205.0 326.0 C 204.3301239013672 328.5 202.5 330.33013916015625 200.0 331.0 C 197.5 330.33013916015625 195.6698760986328 328.5 195.0 326.0 C 195.6698760986328 323.5 197.5 321.66986083984375 200.0 321.0 C 202.5 321.66986083984375 204.3301239013672 323.5 205.0 326.0" stroke-width="0.0" fill="rgb(196, 195, 88)" opacity="1.0" stroke="rgb(16, 35, 94)" stroke-opacity="0.9325822" stroke-linecap="round" stroke-linejoin="round"/>
    <path d="M 151.0 398.0 C 150.3301239013672 400.5 148.5 402.33013916015625 146.0 403.0 C 143.5 402.33013916015625 141.6698760986328 400.5 141.0 398.0 C 141.6698760986328 395.5 143.5 393.66986083984375 146.0 393.0 C 148.5 393.66986083984375 150.3301239013672 395.5 151.0 398.0" stroke-width="0.0" fill="rgb(240, 110, 9)" opacity="1.0" stroke="rgb(151, 21, 198)" stroke-opacity="0.2466425" stroke-linecap="round" stroke-linejoin="round"/>
    <path d="M 434.0 312.0 C 433.33013916015625 314.5 431.5 316.33013916015625 429.0 317.0 C 426.5 316.33013916015625 424.66986083984375 314.5 424.0 312.0 C 424.66986083984375 309.5 426.5 307.66986083984375 429.0 307.0 C 431.5 307.66986083984375 433.33013916015625 309.5 434.0 312.0" stroke-width="0.0" fill="rgb(213, 3, 39)" opacity="1.0" stroke="rgb(94, 111, 45)" stroke-opacity="0.08541822" stroke-linecap="round" stroke-linejoin="round"/>
    <path d="M 185.0 324.0 C 184.3301239013672 326.5 182.5 328.33013916015625 180.0 329.0 C 177.5 328.33013916015625 175.6698760986328 326.5 175.0 324.0 C 175.6698760986328 321.5 177.5 319.66986083984375 180.0 319.0 C 182.5 319.66986083984375 184.3301239013672 321.5 185.0 324.0" stroke-width="0.0" fill="rgb(165, 169, 47)" opacity="1.0" stroke="rgb(67, 166, 151)" stroke-opacity="0.45014334" stroke-linecap="round" stroke-linejoin="round"/>
    <path d="M 127.0 237.0 C 126.33012390136719 239.5 124.5 241.3301239013672 122.0 242.0 C 119.5 241.3301239013672 117.66987609863281 239.5 117.0 237.0 C 117.66987609863281 234.5 119.5 232.6698760986328 122.0 232.0 C 124.5 232.6698760986328 126.33012390136719 234.5 127.0 237.0" stroke-width="0.0" fill="rgb(59, 111, 174)" opacity="1.0" stroke="rgb(226, 162, 175)" stroke-opacity="0.23346405" stroke-linecap="round" stroke-linejoin="round"/>
    <path d="M 347.0 89.0 C 346.33013916015625 91.5 344.5 93.33012390136719 342.0 94.0 C 339.5 93.33012390136719 337.66986083984375 91.5 337.0 89.0 C 337.66986083984375 86.5 339.5 84.66987609863281 342.0 84.0 C 344.5 84.66987609863281 346.33013916015625 86.5 347.0 89.0" stroke-width="0.0" fill="rgb(68, 135, 214)" opacity="1.0" stroke="rgb(116, 156, 77)" stroke-opacity="0.24585551" stroke-linecap="round" stroke-linejoin="round"/>
    <path d="M 494.0 316.0 C 493.33013916015625 318.5 491.5 320.33013916015625 489.0 321.0 C 486.5 320.33013916015625 484.66986083984375 318.5 484.0 316.0 C 484.66986083984375 313.5 486.5 311.66986083984375 489.0 311.0 C 491.5 311.66986083984375 493.33013916015625 313.5 494.0 316.0" stroke-width="0.0" fill="rgb(176, 185, 193)" opacity="1.0" stroke="rgb(91, 83, 53)" stroke-opacity="0.65892285" stroke-linecap="round" stroke-linejoin="round"/>
    <path d="M 215.0 173.0 C 214.3301239013672 175.5 212.5 177.3301239013672 210.0 178.0 C 207.5 177.3301239013672 205.6698760986328 175.5 205.0 173.0 C 205.6698760986328 170.5 207.5 168.6698760986328 210.0 168.0 C 212.5 168.6698760986328 214.3301239013672 170.5 215.0 173.0" stroke-width="0.0" fill="rgb(207, 206, 200)" opacity="1.0" stroke="rgb(174, 70, 161)" stroke-opacity="0.62654215" stroke-linecap="round" stroke-linejoin="round"/>
    <path d="M 36.0 375.0 C 35.33012771606445 377.5 33.5 379.33013916015625 31.0 380.0 C 28.5 379.33013916015625 26.669872283935547 377.5 26.0 375.0 C 26.669872283935547 372.5 28.5 370.66986083984375 31.0 370.0 C 33.5 370.66986083984375 35.33012771606445 372.5 36.0 375.0" stroke-width="0.0" fill="rgb(116, 161, 2)" opacity="1.0" stroke="rgb(169, 67, 207)" stroke-opacity="0.33816618" stroke-linecap="round" stroke-linejoin="round"/>
    <path d="M 222.0 384.0 C 221.3301239013672 386.5 219.5 388.33013916015625 217.0 389.0 C 214.5 388.33013916015625 212.6698760986328 386.5 212.0 384.0 C 212.6698760986328 381.5 214.5 379.66986083984375 217.0 379.0 C 219.5 379.66986083984375 221.3301239013672 381.5 222.0 384.0" stroke-width="0.0" fill="rgb(228, 0, 29)" opacity="1.0" stroke="rgb(41, 174, 22)" stroke-opacity="0.3459402" stroke-linecap="round" stroke-linejoin="round"/>
    <path d="M 78.0 343.0 C 77.33012390136719 345.5 75.5 347.33013916015625 73.0 348.0 C 70.5 347.33013916015625 68.66987609863281 345.5 68.0 343.0 C 68.66987609863281 340.5 70.5 338.66986083984375 73.0 338.0 C 75.5 338.66986083984375 77.33012390136719 340.5 78.0 343.0" stroke-width="0.0" fill="rgb(245, 96, 18)" opacity="1.0" stroke="rgb(42, 46, 213)" stroke-opacity="0.62830615" stroke-linecap="round" stroke-linejoin="round"/>
    <path d="M 283.0 321.0 C 282.33013916015625 323.5 280.5 325.33013916015625 278.0 326.0 C 275.5 325.33013916015625 273.66986083984375 323.5 273.0 321.0 C 273.66986083984375 318.5 275.5 316.66986083984375 278.0 316.0 C 280.5 316.66986083984375 282.33013916015625 318.5 283.0 321.0" stroke-width="0.0" fill="rgb(166, 175, 36)" opacity="1.0" stroke="rgb(178, 117, 74)" stroke-opacity="0.30317414" stroke-linecap="round" stroke-linejoin="round"/>
    <path d="M 85.0 274.0 C 84.33012390136719 276.5 82.5 278.33013916015625 80.0 279.0 C 77.5 278.33013916015625 75.66987609863281 276.5 75.0 274.0 C 75.66987609863281 271.5 77.5 269.66986083984375 80.0 269.0 C 82.5 269.66986083984375 84.33012390136719 271.5 85.0 274.0" stroke-width="0.0" fill="rgb(63, 126, 178)" opacity="1.0" stroke="rgb(246, 0, 203)" stroke-opacity="0.6677373" stroke-linecap="round" stroke-linejoin="round"/>
    <path d="M 312.0 74.0 C 311.33013916015625 76.5 309.5 78.33012390136719 307.0 79.0 C 304.5 78.33012390136719 302.66986083984375 76.5 302.0 74.0 C 302.66986083984375 71.5 304.5 69.66987609863281 307.0 69.0 C 309.5 69.66987609863281 311.33013916015625 71.5 312.0 74.0" stroke-width="0.0" fill="rgb(63, 141, 223)" opacity="1.0" stroke="rgb(181, 81, 184)" stroke-opacity="0.64950204" stroke-linecap="round" stroke-linejoin="round"/>
    <path d="M 278.0 373.0 C 277.33013916015625 375.5 275.5 377.33013916015625 273.0 378.0 C 270.5 377.33013916015625 268.66986083984375 375.5 268.0 373.0 C 268.66986083984375 370.5 270.5 368.66986083984375 273.0 368.0 C 275.5 368.66986083984375 277.33013916015625 370.5 278.0 373.0" stroke-width="0.0" fill="rgb(226, 1, 24)" opacity="1.0" stroke="rgb(187, 238, 158)" stroke-opacity="0.24369352" stroke-linecap="round" stroke-linejoin="round"/>
    <path d="M 289.0 220.0 C 288.33013916015625 222.5 286.5 224.3301239013672 284.0 225.0 C 281.5 224.3301239013672 279.66986083984375 222.5 279.0 220.0 C 279.66986083984375 217.5 281.5 215.6698760986328 284.0 215.0 C 286.5 215.6698760986328 288.33013916015625 217.5 289.0 220.0" stroke-width="0.0" fill="rgb(209, 206, 190)" opacity="1.0" stroke="rgb(103, 29, 32)" stroke-opacity="0.7554383" stroke-linecap="round" stroke-linejoin="round"/>
    <path d="M 131.0 445.0 C 130.3301239013672 447.5 128.5 449.33013916015625 126.0 450.0 C 123.5 449.33013916015625 121.66987609863281 447.5 121.0 445.0 C 121.66987609863281 442.5 123.5 440.66986083984375 126.0 440.0 C 128.5 440.66986083984375 130.3301239013672 442.5 131.0 445.0" stroke-width="0.0" fill="rgb(247, 106, 156)" opacity="1.0" stroke="rgb(18, 37, 109)" stroke-opacity="0.09615031" stroke-linecap="round" stroke-linejoin="round"/>
    <path d="M 509.0 332.0 C 508.33013916015625 334.5 506.5 336.33013916015625 504.0 337.0 C 501.5 336.33013916015625 499.66986083984375 334.5 499.0 332.0 C 499.66986083984375 329.5 501.5 327.66986083984375 504.0 327.0 C 506.5 327.66986083984375 508.33013916015625 329.5 509.0 332.0" stroke-width="0.0" fill="rgb(121, 170, 16)" opacity="1.0" stroke="rgb(151, 198, 194)" stroke-opacity="0.031807963" stroke-linecap="round" stroke-linejoin="round"/>
  </g>
</svg>
