<?xml version="1.0" ?>
<svg xmlns="http://www.w3.org/2000/svg" version="1.1" width="508" height="512">
  <defs/>
  <g>
    <path d="M -0.7269176244735718 -0.719628632068634 L 508.00018310546875 -0.7273843288421631 L 508.0 512.0 L -0.7491229176521301 512.0 L -0.7269176244735718 -0.719628632068634" stroke-width="0.0" fill="rgb(248, 242, 233)" opacity="1.70437" stroke="rgb(0, 0, 0)" stroke-opacity="0.0" stroke-linecap="round" stroke-linejoin="round"/>
    <path d="M 5.4114274978637695 7.886493682861328 L 5.4859724044799805 157.1360321044922 L 9.022459030151367 164.7863006591797 L 95.26874542236328 163.67645263671875 C 97.26409912109375 154.8773193359375 93.61183166503906 146.07225036621094 103.84097290039062 146.4390869140625 C 108.31448364257812 133.918701171875 95.99998474121094 120.42752838134766 110.6782455444336 122.54800415039062 C 112.82440948486328 103.34400177001953 109.37151336669922 87.83760833740234 114.64400482177734 70.7466049194336 L 124.71522521972656 63.84151840209961 C 124.75598907470703 60.28023910522461 124.48333740234375 47.2067756652832 124.61095428466797 54.49465560913086 L 124.74983215332031 64.21541595458984 L 138.1303253173828 74.75216674804688 L 139.41876220703125 121.4642105102539 C 153.4019317626953 122.06919860839844 146.75709533691406 135.5573272705078 143.07928466796875 151.0721893310547 C 146.08731079101562 154.74331665039062 145.61917114257812 160.50987243652344 146.85690307617188 167.0894775390625 L 263.8864440917969 165.21435546875 L 269.50836181640625 157.78475952148438 C 269.19140625 144.33013916015625 269.3316955566406 132.4053497314453 278.0760498046875 125.70533752441406 L 286.0570373535156 134.28494262695312 C 289.4110107421875 143.7390899658203 284.5677490234375 152.6824493408203 295.49261474609375 161.51577758789062 L 313.8290100097656 161.70156860351562 C 317.1363220214844 153.88502502441406 323.2568054199219 145.6561279296875 332.65777587890625 137.82656860351562 L 353.09503173828125 127.69725799560547 C 355.12591552734375 121.34346771240234 350.32659912109375 114.26771545410156 356.59600830078125 113.55255126953125 C 361.78857421875 113.83116149902344 359.1712341308594 121.52731323242188 357.81591796875 128.83901977539062 C 370.68841552734375 131.36915588378906 382.8384704589844 138.8756561279297 388.51751708984375 149.9920654296875 L 396.268310546875 160.50457763671875 L 502.5067443847656 160.45960998535156 L 502.54058837890625 7.889987468719482 L 5.4114274978637695 7.886493682861328" stroke-width="2.0" fill="rgb(141, 173, 175)" opacity="0.9989432" stroke="rgb(0, 0, 0)" stroke-opacity="0.0" stroke-linecap="round" stroke-linejoin="round"/>
    <path d="M 5.698075294494629 423.62384033203125 L 5.216170787811279 505.0718078613281 L 427.84478759765625 505.08038330078125 L 436.3180236816406 501.4306945800781 L 485.65338134765625 500.29400634765625 L 487.5533752441406 505.08404541015625 L 502.86102294921875 505.067626953125 L 502.28692626953125 431.2889709472656 L 498.1111145019531 425.09991455078125 L 232.34397888183594 424.4623107910156 L 232.8385467529297 418.5893249511719 L 87.982421875 418.62860107421875 L 85.11827087402344 423.845947265625 L 63.855682373046875 426.54541015625 C 59.056480407714844 420.55230712890625 58.4946403503418 413.92138671875 51.9597053527832 419.82196044921875 C 45.166175842285156 412.90484619140625 42.75012969970703 423.0724182128906 36.06393051147461 421.69281005859375 L 8.145071983337402 419.4942626953125 L 5.698075294494629 423.62384033203125" stroke-width="2.0" fill="rgb(108, 147, 160)" opacity="0.9973477" stroke="rgb(0, 0, 0)" stroke-opacity="0.0" stroke-linecap="round" stroke-linejoin="round"/>
    <path d="M 259.81329345703125 252.73281860351562 L 199.03285217285156 253.14208984375 C 189.8404541015625 247.72837829589844 180.73855590820312 251.39706420898438 171.0455780029297 250.55636596679688 L 169.5472412109375 256.25677490234375 L 169.30152893066406 287.32073974609375 L 169.20384216308594 293.7665710449219 C 156.6835174560547 290.3922424316406 145.80844116210938 293.48431396484375 132.78005981445312 291.7801818847656 L 130.40562438964844 302.5890808105469 L 118.60884857177734 302.9796447753906 L 104.3514175415039 280.62420654296875 C 90.50177764892578 274.5796813964844 77.94081115722656 273.4081115722656 67.08092498779297 283.68194580078125 L 61.46604537963867 316.56787109375 L 35.85738754272461 316.774658203125 C 37.12827682495117 309.6666259765625 32.55451583862305 308.15020751953125 29.956254959106445 309.9612121582031 L 20.87288475036621 311.8126525878906 L 13.585234642028809 398.485107421875 L 21.261356353759766 398.2172546386719 L 20.06791114807129 382.0690002441406 C 19.03073501586914 386.77020263671875 15.359779357910156 384.4585876464844 15.25091552734375 380.8287048339844 C 18.563213348388672 375.8081359863281 11.517626762390137 364.9377746582031 17.625062942504883 363.610595703125 C 13.396864891052246 358.9306640625 19.652742385864258 351.87005615234375 22.65141487121582 353.7669677734375 L 44.59281921386719 356.0539855957031 L 43.27543640136719 400.8929443359375 L 240.7611846923828 399.8595886230469 L 242.27804565429688 327.9393615722656 C 247.66006469726562 319.4728088378906 259.0118103027344 327.513916015625 274.7795104980469 322.28448486328125 L 268.3531188964844 281.7879333496094 C 253.19667053222656 282.1959228515625 262.6241455078125 265.5248718261719 259.81329345703125 252.73281860351562" stroke-width="2.0" fill="rgb(153, 188, 197)" opacity="0.9061638" stroke="rgb(0, 0, 0)" stroke-opacity="0.0" stroke-linecap="round" stroke-linejoin="round"/>
    <path d="M 98.5304183959961 163.517578125 L 5.496773719787598 163.6273956298828 L 5.508205890655518 308.873779296875 C 17.505569458007812 307.3113708496094 30.035053253173828 315.2979736328125 36.88031768798828 303.4056091308594 L 54.295413970947266 303.2289733886719 L 58.8477897644043 291.51556396484375 C 66.58609771728516 280.8682861328125 75.97970581054688 276.873291015625 86.03350830078125 274.84246826171875 L 98.3739013671875 274.8495178222656 L 98.5304183959961 163.517578125" stroke-width="2.0" fill="rgb(233, 203, 184)" opacity="1.2174473" stroke="rgb(0, 0, 0)" stroke-opacity="0.0" stroke-linecap="round" stroke-linejoin="round"/>
    <path d="M 122.8146743774414 59.17753601074219 L 113.0619125366211 73.63092803955078 L 110.04144287109375 119.77267456054688 L 102.7898941040039 122.35991668701172 L 105.26329803466797 145.0693359375 L 96.2276840209961 146.68679809570312 L 105.82245635986328 274.6745910644531 L 115.23533630371094 284.15777587890625 L 122.35301971435547 299.3906555175781 L 130.29043579101562 299.7299499511719 L 133.41969299316406 292.1914367675781 C 143.44268798828125 291.3045654296875 154.3722381591797 286.4540710449219 165.04815673828125 291.69244384765625 L 164.4821319580078 290.69244384765625 L 163.9467010498047 251.81993103027344 L 151.90731811523438 250.661865234375 L 146.61245727539062 152.36935424804688 L 147.8126220703125 146.28652954101562 L 148.08448791503906 122.57401275634766 L 139.283203125 119.9166030883789 L 138.8440704345703 74.52327728271484 C 136.05393981933594 68.6782455444336 121.66832733154297 66.1819076538086 122.8146743774414 59.17753601074219" stroke-width="2.0" fill="rgb(205, 207, 171)" opacity="0.26335132" stroke="rgb(0, 0, 0)" stroke-opacity="0.0" stroke-linecap="round" stroke-linejoin="round"/>
    <path d="M 153.6561737060547 163.49746704101562 L 152.6042022705078 251.44625854492188 L 264.649169921875 252.58070373535156 L 264.8654479980469 163.4593963623047 L 153.6561737060547 163.49746704101562" stroke-width="2.0" fill="rgb(230, 196, 175)" opacity="1.0821239" stroke="rgb(0, 0, 0)" stroke-opacity="0.0" stroke-linecap="round" stroke-linejoin="round"/>
    <path d="M 211.30447387695312 251.86761474609375 L 210.56898498535156 304.5849914550781 L 197.61288452148438 305.87335205078125 L 197.52784729003906 402.13238525390625 L 241.5862579345703 401.9112854003906 L 244.497314453125 324.90277099609375 L 269.6610412597656 324.8151550292969 L 267.521728515625 282.5234680175781 L 258.8219299316406 281.7635498046875 L 258.8572692871094 251.77586364746094 L 211.30447387695312 251.86761474609375" stroke-width="2.0" fill="rgb(91, 156, 186)" opacity="0.82681894" stroke="rgb(0, 0, 0)" stroke-opacity="0.0" stroke-linecap="round" stroke-linejoin="round"/>
    <path d="M 460.7579040527344 296.6880187988281 L 461.0415954589844 328.075927734375 L 427.745361328125 328.4799499511719 L 426.7525634765625 409.0342102050781 L 430.0 409.0 L 429.1759033203125 389.09112548828125 C 434.1728820800781 386.0257263183594 429.7699890136719 378.8801574707031 436.57379150390625 378.69696044921875 C 436.1315612792969 383.41748046875 445.65386962890625 390.12518310546875 438.5918273925781 392.32733154296875 L 439.0376892089844 412.0736083984375 L 474.9835510253906 411.73583984375 C 480.035400390625 400.0466613769531 468.82501220703125 387.35577392578125 478.5831604003906 379.057861328125 L 480.95660400390625 411.4853515625 L 498.66693115234375 411.5531921386719 L 502.4009704589844 397.1095275878906 L 501.87603759765625 296.3659362792969 L 460.7579040527344 296.6880187988281" stroke-width="2.0" fill="rgb(132, 178, 197)" opacity="1.078722" stroke="rgb(0, 0, 0)" stroke-opacity="0.0" stroke-linecap="round" stroke-linejoin="round"/>
    <path d="M 395.3757019042969 162.5290069580078 L 393.3310241699219 201.0654296875 L 394.9205017089844 213.2102508544922 L 439.7284240722656 214.30213928222656 C 446.5040283203125 219.3129425048828 452.5151672363281 211.98788452148438 454.8048095703125 212.7025146484375 L 454.2894592285156 250.0839080810547 L 459.17523193359375 263.90118408203125 L 493.3755187988281 265.4627990722656 L 502.42437744140625 269.5267333984375 L 502.5156555175781 185.29551696777344 L 502.3855285644531 162.31192016601562 L 395.3757019042969 162.5290069580078" stroke-width="2.0" fill="rgb(228, 188, 164)" opacity="0.9730112" stroke="rgb(0, 0, 0)" stroke-opacity="0.0" stroke-linecap="round" stroke-linejoin="round"/>
    <path d="M 269.5481262207031 324.45086669921875 L 242.136962890625 324.81781005859375 L 241.1430206298828 387.1130676269531 L 241.56405639648438 400.6165466308594 L 5.476491928100586 400.67633056640625 L 5.449794769287109 412.3468933105469 C 12.939589500427246 410.6175231933594 18.77767562866211 415.5775146484375 20.48288345336914 423.14727783203125 L 40.23279571533203 423.0872497558594 L 45.43254089355469 413.8871765136719 C 54.94842529296875 406.79925537109375 63.62052536010742 415.1602478027344 63.194828033447266 424.2839050292969 C 73.25281524658203 421.4247741699219 84.02764129638672 428.241455078125 88.58867645263672 419.8038330078125 L 235.5633087158203 420.57720947265625 L 235.8048858642578 413.59967041015625 L 248.71624755859375 412.57843017578125 L 248.7222900390625 351.3304443359375 L 269.665283203125 350.47174072265625 L 269.5481262207031 324.45086669921875" stroke-width="2.0" fill="rgb(46, 47, 65)" opacity="1.0111867" stroke="rgb(0, 0, 0)" stroke-opacity="0.0" stroke-linecap="round" stroke-linejoin="round"/>
    <path d="M 144.4405517578125 307.1922607421875 L 144.6915740966797 358.6243591308594 L 133.57447814941406 359.52325439453125 L 133.0782928466797 400.6484680175781 L 141.21481323242188 400.64935302734375 L 141.98443603515625 374.1186218261719 C 126.5079116821289 380.6298828125 137.95761108398438 365.5830383300781 143.32931518554688 367.1956481933594 L 152.56866455078125 374.4422607421875 L 144.3187255859375 374.13909912109375 L 145.3314971923828 400.8059997558594 L 167.6689910888672 400.7711181640625 L 169.34840393066406 387.6563720703125 L 173.3448486328125 400.80010986328125 L 196.56947326660156 400.7789001464844 L 196.6226348876953 307.6003723144531 L 144.4405517578125 307.1922607421875" stroke-width="2.0" fill="rgb(275, 260, 238)" opacity="0.78173494" stroke="rgb(0, 0, 0)" stroke-opacity="0.0" stroke-linecap="round" stroke-linejoin="round"/>
    <path d="M 236.58673095703125 425.21246337890625 L 233.57057189941406 431.2957458496094 L 502.5370178222656 431.0770568847656 L 502.5712585449219 419.37945556640625 L 238.906982421875 419.48504638671875 L 236.58673095703125 425.21246337890625" stroke-width="2.0" fill="rgb(42, 42, 61)" opacity="1.0051537" stroke="rgb(0, 0, 0)" stroke-opacity="0.0" stroke-linecap="round" stroke-linejoin="round"/>
    <path d="M 457.3547668457031 211.2212677001953 L 446.8871765136719 215.9096221923828 C 443.28729248046875 218.32241821289062 439.07159423828125 205.935546875 436.322265625 214.418701171875 L 377.2378845214844 212.57958984375 L 377.3964538574219 250.3517303466797 C 383.8451843261719 256.6366271972656 388.182861328125 263.7326354980469 387.468994140625 266.8274230957031 L 365.4366455078125 264.4334411621094 L 365.4689025878906 297.91650390625 L 401.18927001953125 292.6867980957031 L 402.10736083984375 264.19732666015625 L 457.3631591796875 263.638916015625 L 457.3547668457031 211.2212677001953" stroke-width="2.0" fill="rgb(39, 44, 65)" opacity="0.9767249" stroke="rgb(0, 0, 0)" stroke-opacity="0.0" stroke-linecap="round" stroke-linejoin="round"/>
    <path d="M 366.8349914550781 292.3872375488281 L 360.2581787109375 370.03607177734375 L 426.0096130371094 370.18505859375 L 428.12255859375 293.3187561035156 L 366.8349914550781 292.3872375488281" stroke-width="2.0" fill="rgb(209, 185, 169)" opacity="0.7987844" stroke="rgb(0, 0, 0)" stroke-opacity="0.0" stroke-linecap="round" stroke-linejoin="round"/>
    <path d="M 426.6524963378906 329.9250793457031 L 425.2657470703125 335.2476501464844 L 426.4347229003906 410.6782531738281 C 436.0567932128906 415.2947998046875 431.4613952636719 401.1295166015625 433.3027038574219 395.8020935058594 L 430.8216857910156 389.52813720703125 L 434.86773681640625 380.06402587890625 L 440.6050720214844 390.2850341796875 C 433.73626708984375 396.1020202636719 436.4739685058594 403.5657958984375 437.080078125 412.6493835449219 L 464.670654296875 412.54449462890625 L 464.72564697265625 330.2503356933594 L 426.6524963378906 329.9250793457031" stroke-width="2.0" fill="rgb(246, 241, 226)" opacity="1.047535" stroke="rgb(0, 0, 0)" stroke-opacity="0.0" stroke-linecap="round" stroke-linejoin="round"/>
    <path d="M 400.8375244140625 263.0929260253906 L 400.8341369628906 292.7281799316406 L 496.03179931640625 295.08026123046875 L 494.32220458984375 262.4419860839844 L 400.8375244140625 263.0929260253906" stroke-width="2.0" fill="rgb(149, 166, 174)" opacity="1.0141232" stroke="rgb(0, 0, 0)" stroke-opacity="0.0" stroke-linecap="round" stroke-linejoin="round"/>
    <path d="M 466.45989990234375 331.7417297363281 L 465.5126647949219 411.1476745605469 L 478.6561584472656 412.1297302246094 L 478.5003356933594 379.2425842285156 L 478.6679382324219 411.546875 L 496.5027770996094 411.6229248046875 L 496.8016052246094 331.8498840332031 L 466.45989990234375 331.7417297363281" stroke-width="2.0" fill="rgb(94, 153, 180)" opacity="1.0221817" stroke="rgb(0, 0, 0)" stroke-opacity="0.0" stroke-linecap="round" stroke-linejoin="round"/>
    <path d="M 365.6831970214844 129.3920440673828 C 353.7198791503906 120.75740814208984 342.2088623046875 130.84104919433594 331.77008056640625 137.8669891357422 C 315.14569091796875 150.01809692382812 314.83709716796875 162.6668243408203 315.41058349609375 178.2920379638672 L 374.2167053222656 178.5104522705078 L 373.6082763671875 150.54495239257812 L 365.6831970214844 129.3920440673828" stroke-width="2.0" fill="rgb(142, 183, 194)" opacity="1.2010672" stroke="rgb(0, 0, 0)" stroke-opacity="0.0" stroke-linecap="round" stroke-linejoin="round"/>
    <path d="M 370.95947265625 323.9980163574219 L 373.3196105957031 370.1142883300781 L 425.80145263671875 368.1177978515625 L 425.9222106933594 322.5226745605469 L 370.95947265625 323.9980163574219" stroke-width="2.0" fill="rgb(243, 195, 168)" opacity="0.84571624" stroke="rgb(0, 0, 0)" stroke-opacity="0.0" stroke-linecap="round" stroke-linejoin="round"/>
    <path d="M 127.47858428955078 166.2974853515625 L 127.55078125 251.80007934570312 L 153.5158233642578 251.73146057128906 L 153.5288848876953 166.29794311523438 L 127.47858428955078 166.2974853515625" stroke-width="2.0" fill="rgb(58, 60, 76)" opacity="1.039241" stroke="rgb(0, 0, 0)" stroke-opacity="0.0" stroke-linecap="round" stroke-linejoin="round"/>
    <path d="M 270.3660888671875 45.66227340698242 C 248.98074340820312 58.15265655517578 253.4800262451172 84.49395751953125 273.30718994140625 91.89160919189453 C 286.6136474609375 96.97332763671875 303.7294616699219 89.21598815917969 307.378173828125 73.30713653564453 C 308.42730712890625 64.08464813232422 307.3927917480469 55.66583251953125 295.83795166015625 47.07087326049805 C 288.01171875 42.057640075683594 279.2138366699219 42.205650329589844 270.3660888671875 45.66227340698242" stroke-width="2.0" fill="rgb(252, 245, 227)" opacity="1.0023547" stroke="rgb(0, 0, 0)" stroke-opacity="0.0" stroke-linecap="round" stroke-linejoin="round"/>
    <path d="M 278.49481201171875 125.53467559814453 C 265.56414794921875 137.83958435058594 269.7911682128906 149.96127319335938 266.6302795410156 162.85983276367188 L 267.324462890625 164.97122192382812 L 270.29693603515625 210.6211395263672 L 267.0960388183594 206.9293212890625 C 272.0466003417969 205.76795959472656 278.42431640625 208.5392303466797 276.99322509765625 211.1125946044922 L 284.8271179199219 210.7520751953125 C 288.4114990234375 217.49488830566406 292.0874938964844 217.0042724609375 294.8637390136719 211.56214904785156 L 293.44451904296875 162.17295837402344 L 289.07745361328125 161.03070068359375 C 288.6572570800781 148.98899841308594 294.233154296875 137.02139282226562 278.49481201171875 125.53467559814453" stroke-width="2.0" fill="rgb(171, 177, 156)" opacity="0.42735943" stroke="rgb(0, 0, 0)" stroke-opacity="0.0" stroke-linecap="round" stroke-linejoin="round"/>
    <path d="M 169.168701171875 252.7127227783203 L 170.7434539794922 306.0145263671875 L 210.93807983398438 307.2347106933594 L 208.10513305664062 274.4798583984375 L 194.9083251953125 252.30258178710938 L 169.168701171875 252.7127227783203" stroke-width="2.0" fill="rgb(84, 118, 143)" opacity="1.0529294" stroke="rgb(0, 0, 0)" stroke-opacity="0.0" stroke-linecap="round" stroke-linejoin="round"/>
    <path d="M 323.8936462402344 307.8779602050781 L 309.2298889160156 370.46533203125 L 373.83984375 369.68280029296875 L 373.6949462890625 307.1428527832031 L 323.8936462402344 307.8779602050781" stroke-width="2.0" fill="rgb(-166, -74, -10)" opacity="0.47355852" stroke="rgb(0, 0, 0)" stroke-opacity="0.0" stroke-linecap="round" stroke-linejoin="round"/>
    <path d="M 401.8788146972656 262.5008850097656 L 401.6262512207031 300.45635986328125 L 458.319091796875 294.5621643066406 L 458.4575500488281 262.47296142578125 L 401.8788146972656 262.5008850097656" stroke-width="2.0" fill="rgb(252, 239, 220)" opacity="0.78779733" stroke="rgb(0, 0, 0)" stroke-opacity="0.0" stroke-linecap="round" stroke-linejoin="round"/>
    <path d="M 379.2824401855469 369.2129211425781 L 379.5014343261719 411.57452392578125 C 386.2460021972656 411.0952453613281 391.00146484375 411.2686462402344 391.2132568359375 404.13873291015625 L 396.3699035644531 411.58209228515625 L 414.8335876464844 411.5658264160156 L 414.37567138671875 392.42572021484375 L 411.81976318359375 391.01202392578125 L 415.9747619628906 379.538330078125 L 417.9674072265625 389.8655090332031 C 413.6308288574219 395.2277526855469 418.9851989746094 402.4369812011719 414.96429443359375 411.2347412109375 L 425.4499206542969 411.61370849609375 L 425.6354675292969 369.1180725097656 L 379.2824401855469 369.2129211425781" stroke-width="2.0" fill="rgb(75, 73, 87)" opacity="1.1058221" stroke="rgb(0, 0, 0)" stroke-opacity="0.0" stroke-linecap="round" stroke-linejoin="round"/>
    <path d="M 357.8719787597656 130.15060424804688 C 367.3649597167969 135.45956420898438 370.207763671875 144.36038208007812 373.8014221191406 155.43862915039062 L 375.3623962402344 213.0275421142578 L 377.2214050292969 215.34744262695312 L 394.814208984375 213.71226501464844 L 394.6396484375 159.9781036376953 C 387.4586181640625 143.73455810546875 373.4671630859375 129.51976013183594 357.8719787597656 130.15060424804688" stroke-width="2.0" fill="rgb(46, 49, 68)" opacity="1.006825" stroke="rgb(0, 0, 0)" stroke-opacity="0.0" stroke-linecap="round" stroke-linejoin="round"/>
    <path d="M 460.13043212890625 296.77789306640625 L 458.8138427734375 330.833251953125 L 502.3193664550781 330.602783203125 L 502.3927917480469 297.18017578125 L 460.13043212890625 296.77789306640625" stroke-width="2.0" fill="rgb(259, 247, 226)" opacity="0.936946" stroke="rgb(0, 0, 0)" stroke-opacity="0.0" stroke-linecap="round" stroke-linejoin="round"/>
    <path d="M 55.78799819946289 299.2735290527344 L 56.37656021118164 298.08770751953125 L 120.41083526611328 311.983642578125 C 118.50078582763672 288.82769775390625 102.22471618652344 276.2504577636719 90.37873077392578 275.4158020019531 C 78.2793197631836 273.9163818359375 58.66862106323242 282.2529296875 55.78799819946289 299.2735290527344" stroke-width="2.0" fill="rgb(78, 146, 177)" opacity="0.6658399" stroke="rgb(0, 0, 0)" stroke-opacity="0.0" stroke-linecap="round" stroke-linejoin="round"/>
    <path d="M 169.21253967285156 251.610595703125 L 169.8507843017578 306.6630554199219 L 191.1378936767578 306.45440673828125 L 192.06936645507812 252.5244903564453 L 169.21253967285156 251.610595703125" stroke-width="2.0" fill="rgb(106, 174, 201)" opacity="0.8353901" stroke="rgb(0, 0, 0)" stroke-opacity="0.0" stroke-linecap="round" stroke-linejoin="round"/>
    <path d="M 353.97216796875 90.25704193115234 L 434.25042724609375 90.3175048828125 L 413.3415832519531 81.02701568603516 C 403.63409423828125 84.79269409179688 412.04150390625 74.77811431884766 405.82672119140625 68.87274169921875 C 393.4610595703125 53.97309875488281 372.2478332519531 66.54993438720703 374.9110412597656 81.99308013916016 C 366.3929443359375 79.59980010986328 361.0162658691406 81.61549377441406 353.97216796875 90.25704193115234" stroke-width="2.0" fill="rgb(249, 242, 222)" opacity="1.0120994" stroke="rgb(0, 0, 0)" stroke-opacity="0.0" stroke-linecap="round" stroke-linejoin="round"/>
    <path d="M 269.5076599121094 324.2592468261719 L 240.74386596679688 324.2611083984375 L 240.2887420654297 410.5522766113281 L 249.46234130859375 412.6576232910156 L 249.49838256835938 351.6184387207031 L 269.9720458984375 351.5819396972656 L 269.5076599121094 324.2592468261719" stroke-width="2.0" fill="rgb(50, 51, 72)" opacity="0.77508736" stroke="rgb(0, 0, 0)" stroke-opacity="0.0" stroke-linecap="round" stroke-linejoin="round"/>
    <path d="M 458.4847412109375 262.50274658203125 L 458.67236328125 290.56927490234375 L 458.42974853515625 295.6053466796875 L 496.7822570800781 295.84942626953125 L 496.6568603515625 262.43548583984375 L 458.4847412109375 262.50274658203125" stroke-width="2.0" fill="rgb(37, 39, 60)" opacity="0.9315634" stroke="rgb(0, 0, 0)" stroke-opacity="0.0" stroke-linecap="round" stroke-linejoin="round"/>
    <path d="M 427.2415771484375 293.3331604003906 L 427.30303955078125 330.4006652832031 L 459.47845458984375 330.45361328125 L 459.4206237792969 293.5826721191406 L 427.2415771484375 293.3331604003906" stroke-width="2.0" fill="rgb(43, 48, 68)" opacity="0.99695516" stroke="rgb(0, 0, 0)" stroke-opacity="0.0" stroke-linecap="round" stroke-linejoin="round"/>
    <path d="M 127.4648666381836 63.54253387451172 L 127.32638549804688 147.4284210205078 L 148.64146423339844 146.65818786621094 L 148.51522827148438 122.27787017822266 L 139.9678192138672 121.65205383300781 L 140.54483032226562 82.30058288574219 C 137.87332153320312 74.68973541259766 139.1347198486328 67.17279052734375 127.4648666381836 63.54253387451172" stroke-width="2.0" fill="rgb(52, 56, 75)" opacity="1.0166379" stroke="rgb(0, 0, 0)" stroke-opacity="0.0" stroke-linecap="round" stroke-linejoin="round"/>
    <path d="M 336.39984130859375 258.5271301269531 L 334.04351806640625 269.4268493652344 L 388.7483215332031 269.6177673339844 C 388.79266357421875 257.7081604003906 379.1955871582031 245.62220764160156 362.28912353515625 242.55950927734375 L 347.5768737792969 246.57406616210938 L 336.39984130859375 258.5271301269531" stroke-width="2.0" fill="rgb(88, 156, 182)" opacity="0.9275338" stroke="rgb(0, 0, 0)" stroke-opacity="0.0" stroke-linecap="round" stroke-linejoin="round"/>
    <path d="M 9.381587028503418 258.36370849609375 L 76.19458770751953 258.3419494628906 C 70.30289459228516 249.05825805664062 64.49555969238281 249.62779235839844 59.25083923339844 249.4629669189453 C 64.15217590332031 234.84442138671875 46.64558029174805 226.04295349121094 36.28455352783203 233.86581420898438 C 29.872364044189453 238.6486053466797 28.539735794067383 243.853515625 28.70270538330078 247.7736053466797 L 9.381587028503418 258.36370849609375" stroke-width="2.0" fill="rgb(253, 242, 223)" opacity="0.9967657" stroke="rgb(0, 0, 0)" stroke-opacity="0.0" stroke-linecap="round" stroke-linejoin="round"/>
    <path d="M 269.99652099609375 302.06610107421875 L 271.02960205078125 351.78033447265625 L 288.7857360839844 351.68798828125 L 291.083984375 301.9954528808594 L 269.99652099609375 302.06610107421875" stroke-width="2.0" fill="rgb(252, 247, 232)" opacity="1.0391456" stroke="rgb(0, 0, 0)" stroke-opacity="0.0" stroke-linecap="round" stroke-linejoin="round"/>
    <path d="M 391.1785888671875 152.53857421875 L 394.0638732910156 163.53663635253906 L 502.5079345703125 163.50607299804688 L 502.5375061035156 152.79920959472656 L 391.1785888671875 152.53857421875" stroke-width="2.0" fill="rgb(157, 184, 183)" opacity="0.97198355" stroke="rgb(0, 0, 0)" stroke-opacity="0.0" stroke-linecap="round" stroke-linejoin="round"/>
    <path d="M 280.3993225097656 126.51524353027344 L 279.74847412109375 215.05368041992188 L 284.3280029296875 210.17030334472656 C 290.9705810546875 216.57177734375 290.8449401855469 217.8378143310547 294.55291748046875 211.9765625 L 294.4065246582031 161.21791076660156 L 289.3782653808594 161.76882934570312 L 287.7459716796875 134.74154663085938 L 280.3993225097656 126.51524353027344" stroke-width="2.0" fill="rgb(61, 61, 77)" opacity="1.0533879" stroke="rgb(0, 0, 0)" stroke-opacity="0.0" stroke-linecap="round" stroke-linejoin="round"/>
    <path d="M 35.406463623046875 308.4537048339844 L 5.47617769241333 308.735107421875 L 5.413137912750244 341.8633728027344 L 34.88713836669922 341.7447814941406 L 35.406463623046875 308.4537048339844" stroke-width="2.0" fill="rgb(96, 152, 176)" opacity="1.009407" stroke="rgb(0, 0, 0)" stroke-opacity="0.0" stroke-linecap="round" stroke-linejoin="round"/>
    <path d="M 290.46759033203125 298.2110595703125 L 290.4118957519531 350.0101318359375 L 309.4280700683594 354.1537780761719 L 309.2994384765625 298.35028076171875 L 290.46759033203125 298.2110595703125" stroke-width="2.0" fill="rgb(55, 57, 75)" opacity="1.0233548" stroke="rgb(0, 0, 0)" stroke-opacity="0.0" stroke-linecap="round" stroke-linejoin="round"/>
    <path d="M 5.456284046173096 154.7373046875 L 5.4958176612854 163.61209106445312 L 97.53231048583984 163.5937957763672 L 97.43287658691406 152.15357971191406 L 5.456284046173096 154.7373046875" stroke-width="2.0" fill="rgb(154, 181, 181)" opacity="1.0535715" stroke="rgb(0, 0, 0)" stroke-opacity="0.0" stroke-linecap="round" stroke-linejoin="round"/>
    <path d="M 283.44580078125 239.93844604492188 C 279.6968078613281 242.69857788085938 280.55328369140625 249.09759521484375 279.2011413574219 254.06175231933594 L 290.0541687011719 255.5137939453125 L 291.91607666015625 294.66107177734375 L 310.7869873046875 294.865966796875 L 310.95892333984375 281.5664978027344 L 302.382080078125 281.6937561035156 L 298.6265563964844 249.87258911132812 C 297.4793395996094 243.38131713867188 292.21295166015625 239.72996520996094 283.44580078125 239.93844604492188" stroke-width="2.0" fill="rgb(217, 0, -32)" opacity="0.79928344" stroke="rgb(0, 0, 0)" stroke-opacity="0.0" stroke-linecap="round" stroke-linejoin="round"/>
    <path d="M 295.5392150878906 164.26742553710938 L 294.1364440917969 208.06201171875 C 300.9994201660156 217.24197387695312 306.1070251464844 209.21212768554688 315.4610595703125 212.91273498535156 L 315.0982360839844 164.25210571289062 L 295.5392150878906 164.26742553710938" stroke-width="2.0" fill="rgb(210, 140, 107)" opacity="0.63815826" stroke="rgb(0, 0, 0)" stroke-opacity="0.0" stroke-linecap="round" stroke-linejoin="round"/>
    <path d="M 351.3013000488281 177.37722778320312 L 351.27496337890625 216.95460510253906 L 359.5315246582031 209.08131408691406 L 364.89874267578125 216.51922607421875 L 370.9781188964844 209.25828552246094 L 375.29412841796875 213.3866424560547 L 374.42919921875 177.79910278320312 L 351.3013000488281 177.37722778320312" stroke-width="2.0" fill="rgb(89, 139, 154)" opacity="0.71819985" stroke="rgb(0, 0, 0)" stroke-opacity="0.0" stroke-linecap="round" stroke-linejoin="round"/>
    <path d="M 317.10302734375 431.69342041015625 L 317.641845703125 440.4259948730469 L 404.19158935546875 440.26434326171875 C 406.6017761230469 429.4006042480469 401.97515869140625 432.1216125488281 396.6076354980469 431.71826171875 L 317.10302734375 431.69342041015625" stroke-width="2.0" fill="rgb(244, 237, 220)" opacity="1.0149916" stroke="rgb(0, 0, 0)" stroke-opacity="0.0" stroke-linecap="round" stroke-linejoin="round"/>
    <path d="M 192.70938110351562 250.31773376464844 L 192.19534301757812 306.795654296875 L 210.29110717773438 306.2822570800781 L 207.05352783203125 273.8781433105469 L 192.70938110351562 250.31773376464844" stroke-width="2.0" fill="rgb(38, 33, 55)" opacity="0.8626798" stroke="rgb(0, 0, 0)" stroke-opacity="0.0" stroke-linecap="round" stroke-linejoin="round"/>
    <path d="M 86.80095672607422 277.8591613769531 C 73.1531753540039 274.6311950683594 55.77171325683594 288.8444519042969 54.43690490722656 303.5117492675781 L 89.3777847290039 301.8951110839844 L 86.80095672607422 277.8591613769531" stroke-width="2.0" fill="rgb(113, 173, 190)" opacity="0.96615374" stroke="rgb(0, 0, 0)" stroke-opacity="0.0" stroke-linecap="round" stroke-linejoin="round"/>
    <path d="M 33.44365310668945 383.5262756347656 C 48.21916961669922 378.5546569824219 42.67473602294922 391.8869323730469 42.54334259033203 399.0638732910156 C 54.99348068237305 401.60443115234375 46.4648323059082 388.1162109375 50.947845458984375 381.7550964355469 L 75.2492904663086 382.673583984375 L 85.15328979492188 371.50152587890625 L 43.076446533203125 370.86260986328125 L 33.44365310668945 383.5262756347656" stroke-width="2.0" fill="rgb(10, 108, 122)" opacity="0.6283667" stroke="rgb(0, 0, 0)" stroke-opacity="0.0" stroke-linecap="round" stroke-linejoin="round"/>
    <path d="M 126.17279052734375 480.7493591308594 L 130.46884155273438 488.5990295410156 L 187.4323272705078 488.75054931640625 C 192.4208526611328 489.0038146972656 198.61923217773438 481.2830505371094 190.5759735107422 480.93341064453125 L 126.17279052734375 480.7493591308594" stroke-width="2.0" fill="rgb(234, 231, 215)" opacity="1.0520873" stroke="rgb(0, 0, 0)" stroke-opacity="0.0" stroke-linecap="round" stroke-linejoin="round"/>
    <path d="M 218.56578063964844 431.25140380859375 L 218.5778045654297 440.5986328125 L 264.78387451171875 440.5788269042969 L 282.2881164550781 444.7563171386719 C 284.4234619140625 437.5115051269531 278.9798583984375 430.67388916015625 274.5952453613281 431.68817138671875 L 218.56578063964844 431.25140380859375" stroke-width="2.0" fill="rgb(239, 236, 217)" opacity="1.0015482" stroke="rgb(0, 0, 0)" stroke-opacity="0.0" stroke-linecap="round" stroke-linejoin="round"/>
    <path d="M 87.22291564941406 276.3157043457031 L 89.79645538330078 303.347412109375 L 117.49392700195312 303.4764709472656 C 116.16504669189453 287.84625244140625 99.92294311523438 275.28851318359375 87.22291564941406 276.3157043457031" stroke-width="2.0" fill="rgb(37, 32, 51)" opacity="0.9104752" stroke="rgb(0, 0, 0)" stroke-opacity="0.0" stroke-linecap="round" stroke-linejoin="round"/>
    <path d="M 33.85868453979492 381.5720520019531 L 75.98507690429688 382.5806579589844 L 84.38206481933594 370.8236389160156 L 44.92396545410156 371.40826416015625 L 33.85868453979492 381.5720520019531" stroke-width="2.0" fill="rgb(101, 175, 190)" opacity="1.4212734" stroke="rgb(0, 0, 0)" stroke-opacity="0.0" stroke-linecap="round" stroke-linejoin="round"/>
    <path d="M 386.8879699707031 380.48577880859375 C 378.73883056640625 387.4398193359375 382.171142578125 400.6174011230469 381.372802734375 410.5585021972656 C 385.5137023925781 411.36444091796875 394.075927734375 417.5729675292969 404.6117858886719 409.7154846191406 C 401.2855224609375 399.0074157714844 400.2744445800781 390.7799377441406 393.2918395996094 380.8160705566406 L 386.8879699707031 380.48577880859375" stroke-width="2.0" fill="rgb(140, 181, 193)" opacity="0.99311554" stroke="rgb(0, 0, 0)" stroke-opacity="0.0" stroke-linecap="round" stroke-linejoin="round"/>
    <path d="M 401.0284423828125 457.8177795410156 L 406.1928405761719 463.28033447265625 L 444.21380615234375 463.3240051269531 L 461.0401916503906 459.01043701171875 L 460.42462158203125 458.5555419921875 L 415.2525329589844 457.0941162109375 L 401.0284423828125 457.8177795410156" stroke-width="2.0" fill="rgb(198, 208, 202)" opacity="1.0944464" stroke="rgb(0, 0, 0)" stroke-opacity="0.0" stroke-linecap="round" stroke-linejoin="round"/>
    <path d="M 366.2767639160156 379.3338623046875 C 350.111572265625 382.25787353515625 358.2267761230469 397.9185791015625 355.49755859375 411.456298828125 L 373.371337890625 412.4375915527344 L 372.5484619140625 384.6300048828125 L 366.2767639160156 379.3338623046875" stroke-width="2.0" fill="rgb(49, 48, 66)" opacity="0.9947216" stroke="rgb(0, 0, 0)" stroke-opacity="0.0" stroke-linecap="round" stroke-linejoin="round"/>
    <path d="M 339.98626708984375 379.6380615234375 C 327.8423767089844 383.73199462890625 333.7292175292969 398.5641174316406 332.2096862792969 412.2817077636719 L 349.8575134277344 412.2401428222656 C 347.64178466796875 398.61212158203125 352.2794494628906 386.8177795410156 344.7718200683594 380.8812561035156 L 339.98626708984375 379.6380615234375" stroke-width="2.0" fill="rgb(46, 46, 63)" opacity="0.9926948" stroke="rgb(0, 0, 0)" stroke-opacity="0.0" stroke-linecap="round" stroke-linejoin="round"/>
    <path d="M 5.725489139556885 372.1985778808594 L 5.433435916900635 400.7425537109375 L 22.809335708618164 400.75872802734375 L 22.580657958984375 375.36944580078125 L 5.725489139556885 372.1985778808594" stroke-width="2.0" fill="rgb(249, 208, 179)" opacity="0.9364621" stroke="rgb(0, 0, 0)" stroke-opacity="0.0" stroke-linecap="round" stroke-linejoin="round"/>
    <path d="M 290.6014099121094 240.0574493408203 L 289.3871765136719 281.7132263183594 L 303.2265625 281.6501770019531 L 303.2755126953125 259.5744323730469 C 295.2392272949219 261.81463623046875 303.2760314941406 253.04476928710938 297.1983947753906 245.8629608154297 L 290.6014099121094 240.0574493408203" stroke-width="2.0" fill="rgb(34, 43, 66)" opacity="0.9594016" stroke="rgb(0, 0, 0)" stroke-opacity="0.0" stroke-linecap="round" stroke-linejoin="round"/>
    <path d="M 103.63050079345703 127.90869140625 L 103.74290466308594 146.5966339111328 L 127.23445129394531 146.20962524414062 L 127.22418975830078 128.16453552246094 L 103.63050079345703 127.90869140625" stroke-width="2.0" fill="rgb(244, 195, 168)" opacity="0.86553794" stroke="rgb(0, 0, 0)" stroke-opacity="0.0" stroke-linecap="round" stroke-linejoin="round"/>
    <path d="M 315.3758239746094 379.5277099609375 C 303.9355773925781 384.679931640625 310.5521545410156 398.2137145996094 308.0158996582031 410.32232666015625 L 317.267578125 413.42572021484375 L 313.9263610839844 401.6211242675781 C 323.2813415527344 405.5975341796875 311.9336242675781 413.4953308105469 325.9706726074219 411.2459411621094 C 324.06903076171875 398.65240478515625 328.3802490234375 386.8833923339844 320.5281066894531 380.6560363769531 L 315.3758239746094 379.5277099609375" stroke-width="2.0" fill="rgb(42, 42, 60)" opacity="0.99080867" stroke="rgb(0, 0, 0)" stroke-opacity="0.0" stroke-linecap="round" stroke-linejoin="round"/>
    <path d="M 134.32081604003906 293.0091247558594 L 130.19081115722656 309.4912414550781 L 161.66848754882812 305.4431457519531 L 161.77772521972656 292.6851501464844 L 134.32081604003906 293.0091247558594" stroke-width="2.0" fill="rgb(109, 168, 190)" opacity="0.9501953" stroke="rgb(0, 0, 0)" stroke-opacity="0.0" stroke-linecap="round" stroke-linejoin="round"/>
    <path d="M 497.5622253417969 330.4728698730469 L 497.7726745605469 411.6481018066406 L 502.50823974609375 411.6015319824219 L 502.5756530761719 330.6750793457031 L 497.5622253417969 330.4728698730469" stroke-width="2.0" fill="rgb(32, 33, 54)" opacity="0.96164346" stroke="rgb(0, 0, 0)" stroke-opacity="0.0" stroke-linecap="round" stroke-linejoin="round"/>
    <path d="M 267.8926696777344 287.3707275390625 L 267.8978576660156 294.32098388671875 L 289.0491943359375 294.5221862792969 L 289.0506591796875 286.5292053222656 L 267.8926696777344 287.3707275390625" stroke-width="2.0" fill="rgb(213, 213, 206)" opacity="1.5057793" stroke="rgb(0, 0, 0)" stroke-opacity="0.0" stroke-linecap="round" stroke-linejoin="round"/>
    <path d="M 428.77239990234375 500.1044921875 L 428.79931640625 504.7889404296875 L 486.9603576660156 505.0413513183594 L 486.701416015625 500.1733093261719 L 428.77239990234375 500.1044921875" stroke-width="2.0" fill="rgb(238, 229, 208)" opacity="0.9944172" stroke="rgb(0, 0, 0)" stroke-opacity="0.0" stroke-linecap="round" stroke-linejoin="round"/>
    <path d="M 83.3907699584961 454.52081298828125 L 27.077720642089844 454.431396484375 L 25.17481231689453 459.4503173828125 L 82.978759765625 459.52459716796875 L 83.3907699584961 454.52081298828125" stroke-width="2.0" fill="rgb(53, 76, 102)" opacity="1.0195336" stroke="rgb(0, 0, 0)" stroke-opacity="0.0" stroke-linecap="round" stroke-linejoin="round"/>
    <path d="M 125.7690200805664 63.46931076049805 L 117.47644805908203 66.70218658447266 L 111.46317291259766 82.16268920898438 L 111.48773956298828 89.09418487548828 L 127.07888793945312 88.9240951538086 L 125.7690200805664 63.46931076049805" stroke-width="2.0" fill="rgb(255, 245, 223)" opacity="0.9228689" stroke="rgb(0, 0, 0)" stroke-opacity="0.0" stroke-linecap="round" stroke-linejoin="round"/>
    <path d="M 278.4913635253906 457.5643310546875 L 220.37420654296875 458.850341796875 L 220.24832153320312 462.61505126953125 L 278.43035888671875 462.4136047363281 L 278.4913635253906 457.5643310546875" stroke-width="2.0" fill="rgb(223, 227, 219)" opacity="1.0491883" stroke="rgb(0, 0, 0)" stroke-opacity="0.0" stroke-linecap="round" stroke-linejoin="round"/>
    <path d="M 116.57392120361328 423.65289306640625 L 116.52001953125 430.40228271484375 L 163.676025390625 430.3359069824219 L 162.39796447753906 423.5327453613281 L 116.57392120361328 423.65289306640625" stroke-width="2.0" fill="rgb(237, 237, 220)" opacity="1.0157928" stroke="rgb(0, 0, 0)" stroke-opacity="0.0" stroke-linecap="round" stroke-linejoin="round"/>
    <path d="M 291.5188903808594 281.7917785644531 L 291.4310302734375 298.3287658691406 L 311.3105773925781 298.4998474121094 L 311.4848327636719 281.6383056640625 L 291.5188903808594 281.7917785644531" stroke-width="2.0" fill="rgb(-148, 46, 122)" opacity="0.51973104" stroke="rgb(0, 0, 0)" stroke-opacity="0.0" stroke-linecap="round" stroke-linejoin="round"/>
    <path d="M 413.5362854003906 379.77630615234375 C 397.34869384765625 383.8867492675781 401.5339660644531 401.13739013671875 402.377197265625 410.88336181640625 L 416.0744934082031 410.5061340332031 C 412.8645324707031 403.4048767089844 417.3146057128906 395.23931884765625 409.66998291015625 391.063232421875 L 413.5362854003906 379.77630615234375" stroke-width="2.0" fill="rgb(63, 68, 87)" opacity="0.83957726" stroke="rgb(0, 0, 0)" stroke-opacity="0.0" stroke-linecap="round" stroke-linejoin="round"/>
    <path d="M 288.45855712890625 159.50112915039062 L 296.23944091796875 163.93310546875 L 316.2676086425781 163.70523071289062 L 318.9044494628906 153.70448303222656 L 288.6795349121094 152.5135040283203 L 288.45855712890625 159.50112915039062" stroke-width="2.0" fill="rgb(162, 186, 185)" opacity="0.9821822" stroke="rgb(0, 0, 0)" stroke-opacity="0.0" stroke-linecap="round" stroke-linejoin="round"/>
    <path d="M 197.29071044921875 251.40951538085938 L 207.4187774658203 272.4198913574219 L 210.04454040527344 287.7117614746094 L 211.0922088623047 251.8192596435547 L 197.29071044921875 251.40951538085938" stroke-width="2.0" fill="rgb(201, 223, 225)" opacity="0.9889586" stroke="rgb(0, 0, 0)" stroke-opacity="0.0" stroke-linecap="round" stroke-linejoin="round"/>
    <path d="M 21.22237777709961 357.618408203125 L 24.06499671936035 373.5869445800781 C 15.817193031311035 372.75836181640625 16.277851104736328 376.2522277832031 23.179819107055664 374.2421569824219 L 24.732288360595703 411.22857666015625 L 26.638591766357422 374.59429931640625 L 36.346221923828125 376.7579345703125 L 25.97263526916504 370.5769348144531 C 23.48321533203125 364.6534729003906 30.19715690612793 355.0810546875 21.22237777709961 357.618408203125" stroke-width="2.0" fill="rgb(47, 53, 58)" opacity="0.93196535" stroke="rgb(0, 0, 0)" stroke-opacity="0.0" stroke-linecap="round" stroke-linejoin="round"/>
    <path d="M 416.48211669921875 230.88189697265625 C 409.5556640625 236.75225830078125 413.2988586425781 246.52359008789062 413.5255432128906 253.7686004638672 C 423.1372375488281 255.45530700683594 418.5141906738281 241.09730529785156 420.13873291015625 234.50131225585938 L 416.48211669921875 230.88189697265625" stroke-width="2.0" fill="rgb(57, 61, 81)" opacity="0.9972827" stroke="rgb(0, 0, 0)" stroke-opacity="0.0" stroke-linecap="round" stroke-linejoin="round"/>
    <path d="M 330.56304931640625 231.49893188476562 L 330.1634521484375 255.26438903808594 C 342.1365966796875 261.10601806640625 336.3504943847656 245.8078155517578 337.63360595703125 232.67047119140625 L 330.56304931640625 231.49893188476562" stroke-width="2.0" fill="rgb(45, 50, 68)" opacity="1.0147824" stroke="rgb(0, 0, 0)" stroke-opacity="0.0" stroke-linecap="round" stroke-linejoin="round"/>
    <path d="M 116.19770050048828 382.4045715332031 L 116.4222183227539 401.3287048339844 L 125.43450927734375 401.6804504394531 L 125.62604522705078 382.4912109375 L 116.19770050048828 382.4045715332031" stroke-width="2.0" fill="rgb(42, 47, 68)" opacity="1.0691558" stroke="rgb(0, 0, 0)" stroke-opacity="0.0" stroke-linecap="round" stroke-linejoin="round"/>
    <path d="M 393.1165771484375 231.73101806640625 C 386.5060119628906 238.69985961914062 390.7044372558594 245.33802795410156 389.50140380859375 251.72911071777344 C 398.6150207519531 258.0682067871094 395.9545593261719 240.5752410888672 396.97186279296875 235.2856903076172 L 393.1165771484375 231.73101806640625" stroke-width="2.0" fill="rgb(63, 69, 91)" opacity="1.0030873" stroke="rgb(0, 0, 0)" stroke-opacity="0.0" stroke-linecap="round" stroke-linejoin="round"/>
    <path d="M 307.54388427734375 231.4475860595703 L 307.03509521484375 255.60426330566406 L 314.6888427734375 255.7617645263672 L 314.3164978027344 232.56201171875 L 307.54388427734375 231.4475860595703" stroke-width="2.0" fill="rgb(43, 46, 65)" opacity="1.0080533" stroke="rgb(0, 0, 0)" stroke-opacity="0.0" stroke-linecap="round" stroke-linejoin="round"/>
    <path d="M 62.34293746948242 423.4327392578125 L 62.24888610839844 431.54376220703125 L 90.84669494628906 431.58258056640625 L 88.25323486328125 423.1928405761719 L 62.34293746948242 423.4327392578125" stroke-width="2.0" fill="rgb(213, 217, 200)" opacity="0.80207825" stroke="rgb(0, 0, 0)" stroke-opacity="0.0" stroke-linecap="round" stroke-linejoin="round"/>
    <path d="M 143.20945739746094 369.5154724121094 L 135.3092498779297 376.5316162109375 L 141.60690307617188 372.6497802734375 L 143.14932250976562 410.01727294921875 L 144.74415588378906 373.15521240234375 L 152.94754028320312 375.82122802734375 L 143.20945739746094 369.5154724121094" stroke-width="2.0" fill="rgb(48, 50, 59)" opacity="0.964378" stroke="rgb(0, 0, 0)" stroke-opacity="0.0" stroke-linecap="round" stroke-linejoin="round"/>
    <path d="M 441.8595886230469 231.9075469970703 L 436.3602600097656 234.6847686767578 C 437.5869445800781 240.55763244628906 431.7625427246094 258.1982116699219 443.6849060058594 250.69122314453125 L 441.8595886230469 231.9075469970703" stroke-width="2.0" fill="rgb(66, 81, 104)" opacity="1.0087829" stroke="rgb(0, 0, 0)" stroke-opacity="0.0" stroke-linecap="round" stroke-linejoin="round"/>
    <path d="M 434.6019287109375 379.94610595703125 C 434.09716796875 384.5807800292969 434.7806091308594 388.56329345703125 429.5888977050781 390.0806579589844 L 433.68304443359375 390.3337097167969 L 433.25982666015625 413.3178405761719 L 437.3796081542969 413.39886474609375 C 438.7225646972656 404.4397277832031 432.30322265625 392.8558349609375 440.98291015625 390.0935974121094 C 432.934814453125 387.5292663574219 439.2023620605469 379.5682067871094 434.6019287109375 379.94610595703125" stroke-width="2.0" fill="rgb(109, 111, 118)" opacity="1.1109352" stroke="rgb(0, 0, 0)" stroke-opacity="0.0" stroke-linecap="round" stroke-linejoin="round"/>
    <path d="M 273.2042236328125 389.061767578125 L 273.2040100097656 412.4031066894531 L 280.36676025390625 412.4095153808594 L 280.1500244140625 389.16680908203125 L 273.2042236328125 389.061767578125" stroke-width="2.0" fill="rgb(45, 46, 67)" opacity="1.0070556" stroke="rgb(0, 0, 0)" stroke-opacity="0.0" stroke-linecap="round" stroke-linejoin="round"/>
    <path d="M 288.4861755371094 388.8428649902344 L 288.50726318359375 412.3818359375 L 295.7911071777344 412.3724365234375 L 295.3500671386719 388.7492980957031 L 288.4861755371094 388.8428649902344" stroke-width="2.0" fill="rgb(44, 44, 61)" opacity="1.0069066" stroke="rgb(0, 0, 0)" stroke-opacity="0.0" stroke-linecap="round" stroke-linejoin="round"/>
    <path d="M 414.50537109375 379.0222473144531 L 408.9892272949219 390.1513366699219 L 410.57000732421875 394.3367614746094 L 413.8343811035156 414.85272216796875 C 423.87091064453125 410.9378356933594 410.82073974609375 393.5414733886719 421.6010437011719 391.11920166015625 L 414.50537109375 379.0222473144531" stroke-width="2.0" fill="rgb(38, 46, 68)" opacity="0.82090396" stroke="rgb(0, 0, 0)" stroke-opacity="0.0" stroke-linecap="round" stroke-linejoin="round"/>
    <path d="M 42.28450393676758 382.6781311035156 L 42.919960021972656 402.8866271972656 C 54.3408203125 405.6339111328125 49.149662017822266 391.6132507324219 50.72898864746094 382.6399841308594 L 42.28450393676758 382.6781311035156" stroke-width="2.0" fill="rgb(42, 40, 57)" opacity="0.97588444" stroke="rgb(0, 0, 0)" stroke-opacity="0.0" stroke-linecap="round" stroke-linejoin="round"/>
    <path d="M 290.6300964355469 240.81385803222656 C 282.26025390625 238.2733917236328 277.6174011230469 247.95945739746094 279.5287780761719 255.16123962402344 L 290.21435546875 255.43116760253906 L 290.6300964355469 240.81385803222656" stroke-width="2.0" fill="rgb(84, 195, 221)" opacity="0.91357875" stroke="rgb(0, 0, 0)" stroke-opacity="0.0" stroke-linecap="round" stroke-linejoin="round"/>
    <path d="M 170.52757263183594 371.51641845703125 C 169.22618103027344 379.2295227050781 159.3029022216797 382.61138916015625 169.13450622558594 375.73016357421875 L 169.75650024414062 410.04925537109375 L 172.18211364746094 380.5524597167969 L 172.44369506835938 373.9249572753906 L 170.52757263183594 371.51641845703125" stroke-width="2.0" fill="rgb(18, 19, 38)" opacity="0.8725743" stroke="rgb(0, 0, 0)" stroke-opacity="0.0" stroke-linecap="round" stroke-linejoin="round"/>
    <path d="M 69.01282501220703 371.15802001953125 L 59.99304962158203 370.8213195800781 L 48.9830436706543 382.06524658203125 L 59.53718948364258 380.6070251464844 L 69.01282501220703 371.15802001953125" stroke-width="2.0" fill="rgb(70, 176, 200)" opacity="0.89174336" stroke="rgb(0, 0, 0)" stroke-opacity="0.0" stroke-linecap="round" stroke-linejoin="round"/>
    <path d="M 78.45234680175781 382.3236999511719 L 69.26262664794922 382.6645202636719 L 70.32730865478516 399.7984619140625 L 77.55860900878906 400.3240966796875 L 78.45234680175781 382.3236999511719" stroke-width="2.0" fill="rgb(35, 31, 44)" opacity="1.0285263" stroke="rgb(0, 0, 0)" stroke-opacity="0.0" stroke-linecap="round" stroke-linejoin="round"/>
    <path d="M 174.21426391601562 433.65057373046875 L 175.7545928955078 441.4623718261719 L 197.9228057861328 441.4891662597656 L 196.49923706054688 432.1264343261719 L 174.21426391601562 433.65057373046875" stroke-width="2.0" fill="rgb(223, 228, 214)" opacity="0.95746297" stroke="rgb(0, 0, 0)" stroke-opacity="0.0" stroke-linecap="round" stroke-linejoin="round"/>
    <path d="M 477.87060546875 378.1551513671875 L 477.42352294921875 387.7976379394531 C 471.10601806640625 388.9469909667969 471.1213684082031 389.3167419433594 476.8496398925781 391.2488098144531 L 479.0201416015625 420.4351806640625 L 480.2283630371094 390.7207336425781 L 481.93914794921875 389.756103515625 L 477.87060546875 378.1551513671875" stroke-width="2.0" fill="rgb(42, 57, 81)" opacity="1.1420152" stroke="rgb(0, 0, 0)" stroke-opacity="0.0" stroke-linecap="round" stroke-linejoin="round"/>
    <path d="M 109.80133056640625 89.49800109863281 L 109.98445129394531 98.63885498046875 L 127.45928192138672 98.32288360595703 L 127.43331909179688 89.46678924560547 L 109.80133056640625 89.49800109863281" stroke-width="2.0" fill="rgb(118, 181, 196)" opacity="1.090782" stroke="rgb(0, 0, 0)" stroke-opacity="0.0" stroke-linecap="round" stroke-linejoin="round"/>
    <path d="M 257.4182434082031 389.2358093261719 L 257.3316650390625 411.36175537109375 L 265.3063659667969 413.6255798339844 L 265.3614501953125 389.4342346191406 L 257.4182434082031 389.2358093261719" stroke-width="2.0" fill="rgb(58, 59, 78)" opacity="1.0100412" stroke="rgb(0, 0, 0)" stroke-opacity="0.0" stroke-linecap="round" stroke-linejoin="round"/>
    <path d="M 280.3294677734375 124.79471588134766 C 270.3402404785156 129.68960571289062 268.8363342285156 137.61036682128906 269.4537658691406 142.6965789794922 L 280.2845764160156 142.78707885742188 L 280.3294677734375 124.79471588134766" stroke-width="2.0" fill="rgb(116, 171, 187)" opacity="1.0088254" stroke="rgb(0, 0, 0)" stroke-opacity="0.0" stroke-linecap="round" stroke-linejoin="round"/>
    <path d="M 450.38616943359375 348.9621887207031 L 450.53863525390625 365.4255676269531 L 456.6688232421875 365.1114501953125 C 455.37152099609375 356.41326904296875 459.4051513671875 343.5238342285156 450.38616943359375 348.9621887207031" stroke-width="2.0" fill="rgb(50, 54, 67)" opacity="1.0521923" stroke="rgb(0, 0, 0)" stroke-opacity="0.0" stroke-linecap="round" stroke-linejoin="round"/>
    <path d="M 432.8008728027344 348.50543212890625 L 432.4878234863281 364.63299560546875 C 442.4046630859375 369.4029235839844 436.9154968261719 357.12542724609375 438.8479309082031 348.4720764160156 L 432.8008728027344 348.50543212890625" stroke-width="2.0" fill="rgb(51, 54, 75)" opacity="1.0619001" stroke="rgb(0, 0, 0)" stroke-opacity="0.0" stroke-linecap="round" stroke-linejoin="round"/>
    <path d="M 5.289133548736572 412.078125 L 5.515100002288818 421.7640686035156 L 20.06507682800293 421.8052673339844 C 19.783531188964844 414.5889892578125 11.224775314331055 409.3953857421875 5.289133548736572 412.078125" stroke-width="2.0" fill="rgb(235, 202, 181)" opacity="0.7879785" stroke="rgb(0, 0, 0)" stroke-opacity="0.0" stroke-linecap="round" stroke-linejoin="round"/>
    <path d="M 88.4836654663086 168.19619750976562 L 126.30841064453125 172.34854125976562 L 127.0042724609375 165.9048309326172 L 88.4836654663086 168.19619750976562" stroke-width="2.0" fill="rgb(146, 181, 190)" opacity="1.3002024" stroke="rgb(0, 0, 0)" stroke-opacity="0.0" stroke-linecap="round" stroke-linejoin="round"/>
    <path d="M 433.4803771972656 391.7563171386719 L 433.1946105957031 411.6651611328125 L 437.3494873046875 412.4347839355469 L 437.435546875 392.68450927734375 L 433.4803771972656 391.7563171386719" stroke-width="2.0" fill="rgb(34, 23, 38)" opacity="0.70637625" stroke="rgb(0, 0, 0)" stroke-opacity="0.0" stroke-linecap="round" stroke-linejoin="round"/>
    <path d="M 66.9489517211914 498.2484130859375 L 43.46187973022461 498.22454833984375 L 41.83376693725586 504.1422424316406 L 66.82250213623047 504.3747253417969 L 66.9489517211914 498.2484130859375" stroke-width="2.0" fill="rgb(48, 65, 89)" opacity="0.9807755" stroke="rgb(0, 0, 0)" stroke-opacity="0.0" stroke-linecap="round" stroke-linejoin="round"/>
    <path d="M 382.382080078125 306.16046142578125 L 382.29583740234375 322.62139892578125 L 388.0578308105469 322.5483093261719 C 386.18817138671875 314.51800537109375 391.06524658203125 301.24798583984375 382.382080078125 306.16046142578125" stroke-width="2.0" fill="rgb(43, 46, 66)" opacity="1.0413685" stroke="rgb(0, 0, 0)" stroke-opacity="0.0" stroke-linecap="round" stroke-linejoin="round"/>
    <path d="M 6.788492679595947 404.870849609375 C 11.072349548339844 400.6753234863281 15.179821968078613 403.6917419433594 18.004791259765625 407.3392639160156 L 37.02414321899414 403.13543701171875 L 6.788492679595947 404.870849609375" stroke-width="2.0" fill="rgb(35, 36, 57)" opacity="0.99877304" stroke="rgb(0, 0, 0)" stroke-opacity="0.0" stroke-linecap="round" stroke-linejoin="round"/>
    <path d="M 413.41552734375 305.469482421875 C 414.405029296875 312.3981018066406 410.0155334472656 326.6194763183594 419.3890686035156 321.873046875 L 419.1517333984375 304.739013671875 L 413.41552734375 305.469482421875" stroke-width="2.0" fill="rgb(49, 51, 70)" opacity="1.0212144" stroke="rgb(0, 0, 0)" stroke-opacity="0.0" stroke-linecap="round" stroke-linejoin="round"/>
    <path d="M 162.3505859375 293.01416015625 L 162.91763305664062 305.73638916015625 C 171.37574768066406 308.7099304199219 167.7437744140625 298.56280517578125 168.70782470703125 293.32318115234375 L 162.3505859375 293.01416015625" stroke-width="2.0" fill="rgb(185, 202, 200)" opacity="0.88030887" stroke="rgb(0, 0, 0)" stroke-opacity="0.0" stroke-linecap="round" stroke-linejoin="round"/>
    <path d="M 337.25970458984375 187.3963623046875 L 336.09991455078125 201.96697998046875 C 344.2890625 211.11012268066406 344.9230651855469 182.44786071777344 337.25970458984375 187.3963623046875" stroke-width="2.0" fill="rgb(57, 59, 67)" opacity="1.0344074" stroke="rgb(0, 0, 0)" stroke-opacity="0.0" stroke-linecap="round" stroke-linejoin="round"/>
    <path d="M 272.96734619140625 362.65118408203125 C 274.98345947265625 370.46295166015625 269.24737548828125 379.9112854003906 279.86859130859375 375.5649719238281 C 277.8650817871094 367.194580078125 283.8316345214844 358.23187255859375 272.96734619140625 362.65118408203125" stroke-width="2.0" fill="rgb(49, 53, 72)" opacity="1.0298185" stroke="rgb(0, 0, 0)" stroke-opacity="0.0" stroke-linecap="round" stroke-linejoin="round"/>
    <path d="M 216.5762176513672 322.09014892578125 C 217.49993896484375 327.820556640625 213.1577911376953 339.8726806640625 222.7147674560547 335.9313659667969 C 221.3179931640625 330.3055419921875 226.1900634765625 318.4542541503906 216.5762176513672 322.09014892578125" stroke-width="2.0" fill="rgb(41, 52, 74)" opacity="1.025684" stroke="rgb(0, 0, 0)" stroke-opacity="0.0" stroke-linecap="round" stroke-linejoin="round"/>
    <path d="M 233.6654052734375 266.5819091796875 C 233.30514526367188 271.4875183105469 230.1212158203125 282.0935974121094 235.12252807617188 282.2817077636719 C 239.29530334472656 276.3433837890625 240.86404418945312 264.21063232421875 233.6654052734375 266.5819091796875" stroke-width="2.0" fill="rgb(61, 91, 123)" opacity="0.9168428" stroke="rgb(0, 0, 0)" stroke-opacity="0.0" stroke-linecap="round" stroke-linejoin="round"/>
    <path d="M 360.413330078125 186.5535888671875 L 359.5064392089844 202.07200622558594 C 369.24273681640625 207.86788940429688 364.6939697265625 194.90753173828125 365.88165283203125 187.67626953125 L 360.413330078125 186.5535888671875" stroke-width="2.0" fill="rgb(36, 37, 50)" opacity="0.9980221" stroke="rgb(0, 0, 0)" stroke-opacity="0.0" stroke-linecap="round" stroke-linejoin="round"/>
    <path d="M 487.48846435546875 348.8150939941406 C 488.93963623046875 355.1141662597656 484.1821594238281 368.33917236328125 492.66583251953125 364.7887268066406 L 492.5675964355469 348.90179443359375 L 487.48846435546875 348.8150939941406" stroke-width="2.0" fill="rgb(34, 41, 67)" opacity="1.037314" stroke="rgb(0, 0, 0)" stroke-opacity="0.0" stroke-linecap="round" stroke-linejoin="round"/>
    <path d="M 482.0616455078125 311.914794921875 C 483.7267150878906 318.640625 477.0738220214844 327.3555908203125 488.563720703125 323.8576965332031 C 487.1678161621094 317.57305908203125 492.2782287597656 307.5613098144531 482.0616455078125 311.914794921875" stroke-width="2.0" fill="rgb(46, 48, 65)" opacity="1.0489597" stroke="rgb(0, 0, 0)" stroke-opacity="0.0" stroke-linecap="round" stroke-linejoin="round"/>
    <path d="M 216.53851318359375 352.6472473144531 C 217.60914611816406 357.8489990234375 213.27731323242188 370.02813720703125 222.6644744873047 365.4440612792969 C 221.4307098388672 359.42864990234375 225.99050903320312 348.22186279296875 216.53851318359375 352.6472473144531" stroke-width="2.0" fill="rgb(39, 48, 70)" opacity="1.0267236" stroke="rgb(0, 0, 0)" stroke-opacity="0.0" stroke-linecap="round" stroke-linejoin="round"/>
    <path d="M 321.7373046875 187.39723205566406 L 321.3891296386719 202.5930633544922 C 330.85321044921875 206.85507202148438 326.2428894042969 195.58584594726562 327.3470458984375 187.4414825439453 L 321.7373046875 187.39723205566406" stroke-width="2.0" fill="rgb(53, 55, 68)" opacity="1.0182209" stroke="rgb(0, 0, 0)" stroke-opacity="0.0" stroke-linecap="round" stroke-linejoin="round"/>
    <path d="M 120.54381561279297 314.6917419433594 C 119.98463439941406 321.683349609375 116.05929565429688 335.2717590332031 125.65408325195312 330.49591064453125 C 124.44429016113281 324.2645568847656 128.74853515625 314.10943603515625 120.54381561279297 314.6917419433594" stroke-width="2.0" fill="rgb(39, 50, 75)" opacity="1.0189095" stroke="rgb(0, 0, 0)" stroke-opacity="0.0" stroke-linecap="round" stroke-linejoin="round"/>
    <path d="M 221.59384155273438 379.0568542480469 L 218.26588439941406 389.42376708984375 L 220.1341094970703 406.0799865722656 L 221.59384155273438 379.0568542480469" stroke-width="2.0" fill="rgb(38, 62, 93)" opacity="0.8427255" stroke="rgb(0, 0, 0)" stroke-opacity="0.0" stroke-linecap="round" stroke-linejoin="round"/>
    <path d="M 133.86488342285156 266.42681884765625 C 136.1181182861328 273.3962097167969 130.7071990966797 286.1244201660156 139.3887481689453 282.0715026855469 L 139.05197143554688 266.13983154296875 L 133.86488342285156 266.42681884765625" stroke-width="2.0" fill="rgb(51, 55, 70)" opacity="1.0402628" stroke="rgb(0, 0, 0)" stroke-opacity="0.0" stroke-linecap="round" stroke-linejoin="round"/>
    <path d="M 177.24960327148438 267.1589050292969 C 178.2753448486328 272.9320983886719 173.1411895751953 285.2261047363281 182.64932250976562 281.7898254394531 C 181.2819061279297 275.4119567871094 185.9617919921875 263.54132080078125 177.24960327148438 267.1589050292969" stroke-width="2.0" fill="rgb(34, 43, 64)" opacity="1.0294249" stroke="rgb(0, 0, 0)" stroke-opacity="0.0" stroke-linecap="round" stroke-linejoin="round"/>
    <path d="M 359.3075256347656 231.34239196777344 C 353.0317687988281 233.40443420410156 356.1361389160156 238.49351501464844 355.01141357421875 243.5027313232422 C 364.3006286621094 247.91421508789062 364.31207275390625 235.02822875976562 359.3075256347656 231.34239196777344" stroke-width="2.0" fill="rgb(71, 73, 85)" opacity="1.1011708" stroke="rgb(0, 0, 0)" stroke-opacity="0.0" stroke-linecap="round" stroke-linejoin="round"/>
    <path d="M 58.74067306518555 316.1180419921875 L 58.51008224487305 329.8434753417969 C 66.54222106933594 334.38983154296875 62.02432632446289 321.46502685546875 63.542850494384766 316.140625 L 58.74067306518555 316.1180419921875" stroke-width="2.0" fill="rgb(42, 46, 66)" opacity="1.070664" stroke="rgb(0, 0, 0)" stroke-opacity="0.0" stroke-linecap="round" stroke-linejoin="round"/>
    <path d="M 72.6231460571289 315.9317321777344 L 72.32758331298828 329.6789855957031 C 80.99990844726562 334.2951354980469 76.5867691040039 321.5079650878906 77.65118408203125 315.7577819824219 L 72.6231460571289 315.9317321777344" stroke-width="2.0" fill="rgb(48, 50, 62)" opacity="1.0368767" stroke="rgb(0, 0, 0)" stroke-opacity="0.0" stroke-linecap="round" stroke-linejoin="round"/>
    <path d="M 43.87025451660156 316.8514404296875 C 45.705528259277344 322.7155456542969 40.46232986450195 334.4271240234375 49.38459396362305 329.891845703125 C 48.44548416137695 324.0303955078125 51.99488067626953 311.603515625 43.87025451660156 316.8514404296875" stroke-width="2.0" fill="rgb(41, 42, 59)" opacity="1.0392855" stroke="rgb(0, 0, 0)" stroke-opacity="0.0" stroke-linecap="round" stroke-linejoin="round"/>
    <path d="M 167.53358459472656 321.5619812011719 L 167.38185119628906 335.5281677246094 C 175.73666381835938 339.81524658203125 171.57974243164062 329.39056396484375 172.8279266357422 321.393310546875 L 167.53358459472656 321.5619812011719" stroke-width="2.0" fill="rgb(41, 49, 69)" opacity="1.0646026" stroke="rgb(0, 0, 0)" stroke-opacity="0.0" stroke-linecap="round" stroke-linejoin="round"/>
    <path d="M 413.47589111328125 335.5367431640625 L 413.2284240722656 349.42156982421875 C 422.4397277832031 353.9652404785156 418.1156311035156 342.656982421875 418.5051574707031 335.5243225097656 L 413.47589111328125 335.5367431640625" stroke-width="2.0" fill="rgb(50, 51, 68)" opacity="1.0280784" stroke="rgb(0, 0, 0)" stroke-opacity="0.0" stroke-linecap="round" stroke-linejoin="round"/>
    <path d="M 426.5008850097656 275.537841796875 L 426.4730529785156 289.1068420410156 C 436.0302429199219 292.6068115234375 430.5815734863281 282.2746887207031 432.5461730957031 275.713623046875 L 426.5008850097656 275.537841796875" stroke-width="2.0" fill="rgb(45, 48, 65)" opacity="1.0483974" stroke="rgb(0, 0, 0)" stroke-opacity="0.0" stroke-linecap="round" stroke-linejoin="round"/>
    <path d="M 219.48165893554688 266.79412841796875 C 220.93899536132812 273.11651611328125 216.2570343017578 284.22705078125 225.24151611328125 281.1030578613281 L 225.2198944091797 266.69927978515625 L 219.48165893554688 266.79412841796875" stroke-width="2.0" fill="rgb(41, 50, 68)" opacity="1.0245527" stroke="rgb(0, 0, 0)" stroke-opacity="0.0" stroke-linecap="round" stroke-linejoin="round"/>
    <path d="M 203.9364471435547 321.6832580566406 C 206.1747283935547 328.37384033203125 200.3881072998047 338.93560791015625 209.66351318359375 336.1263732910156 L 209.61810302734375 321.5397033691406 L 203.9364471435547 321.6832580566406" stroke-width="2.0" fill="rgb(33, 41, 62)" opacity="1.0194343" stroke="rgb(0, 0, 0)" stroke-opacity="0.0" stroke-linecap="round" stroke-linejoin="round"/>
    <path d="M 228.38233947753906 321.64959716796875 C 229.37783813476562 328.3459167480469 223.98822021484375 338.35595703125 233.79803466796875 336.3317565917969 L 234.45663452148438 321.5871276855469 L 228.38233947753906 321.64959716796875" stroke-width="2.0" fill="rgb(42, 49, 73)" opacity="1.0016571" stroke="rgb(0, 0, 0)" stroke-opacity="0.0" stroke-linecap="round" stroke-linejoin="round"/>
    <path d="M 187.6063232421875 321.8337097167969 C 178.8361053466797 318.78924560546875 183.64871215820312 328.1258239746094 182.095458984375 335.55596923828125 C 190.52606201171875 340.2070617675781 186.2609405517578 329.1111145019531 187.6063232421875 321.8337097167969" stroke-width="2.0" fill="rgb(45, 51, 68)" opacity="1.0531723" stroke="rgb(0, 0, 0)" stroke-opacity="0.0" stroke-linecap="round" stroke-linejoin="round"/>
    <path d="M 108.55691528320312 314.7485046386719 C 106.3070068359375 320.1776123046875 103.82360076904297 333.7926025390625 112.42752838134766 332.2036437988281 C 113.4476547241211 325.5362854003906 115.63321685791016 313.90985107421875 108.55691528320312 314.7485046386719" stroke-width="2.0" fill="rgb(34, 49, 71)" opacity="0.97094727" stroke="rgb(0, 0, 0)" stroke-opacity="0.0" stroke-linecap="round" stroke-linejoin="round"/>
    <path d="M 288.49688720703125 362.50518798828125 C 290.29443359375 369.30908203125 284.9301452636719 379.846435546875 295.64959716796875 375.4162902832031 C 293.86773681640625 368.0837097167969 299.6339416503906 358.3338928222656 288.49688720703125 362.50518798828125" stroke-width="2.0" fill="rgb(44, 47, 68)" opacity="0.99136126" stroke="rgb(0, 0, 0)" stroke-opacity="0.0" stroke-linecap="round" stroke-linejoin="round"/>
    <path d="M 119.4930419921875 345.3385314941406 L 118.30084228515625 360.05120849609375 C 129.21966552734375 365.64666748046875 124.06761932373047 352.5405578613281 125.59488677978516 346.7377014160156 L 119.4930419921875 345.3385314941406" stroke-width="2.0" fill="rgb(42, 53, 77)" opacity="0.98717904" stroke="rgb(0, 0, 0)" stroke-opacity="0.0" stroke-linecap="round" stroke-linejoin="round"/>
    <path d="M 95.65868377685547 345.4155578613281 L 94.3991928100586 360.2487487792969 C 105.28455352783203 365.5085754394531 100.13732147216797 352.8024597167969 101.67190551757812 346.780029296875 L 95.65868377685547 345.4155578613281" stroke-width="2.0" fill="rgb(35, 48, 69)" opacity="0.9876844" stroke="rgb(0, 0, 0)" stroke-opacity="0.0" stroke-linecap="round" stroke-linejoin="round"/>
    <path d="M 145.259521484375 266.3653869628906 L 145.31556701660156 282.2309265136719 C 153.0067138671875 285.6108093261719 147.98228454589844 272.75628662109375 150.1598358154297 266.38043212890625 L 145.259521484375 266.3653869628906" stroke-width="2.0" fill="rgb(55, 60, 84)" opacity="1.0400374" stroke="rgb(0, 0, 0)" stroke-opacity="0.0" stroke-linecap="round" stroke-linejoin="round"/>
    <path d="M 257.2560729980469 362.6687927246094 C 259.6125793457031 370.08837890625 252.72586059570312 378.3472595214844 265.472412109375 376.51812744140625 C 261.52197265625 368.76666259765625 268.94049072265625 358.0949401855469 257.2560729980469 362.6687927246094" stroke-width="2.0" fill="rgb(49, 50, 67)" opacity="0.9923545" stroke="rgb(0, 0, 0)" stroke-opacity="0.0" stroke-linecap="round" stroke-linejoin="round"/>
    <path d="M 228.78903198242188 352.2301330566406 C 228.45501708984375 357.77569580078125 224.74615478515625 369.3395690917969 233.8241424560547 365.7701416015625 C 232.72604370117188 359.9386291503906 238.11080932617188 349.17559814453125 228.78903198242188 352.2301330566406" stroke-width="2.0" fill="rgb(41, 48, 75)" opacity="0.9984777" stroke="rgb(0, 0, 0)" stroke-opacity="0.0" stroke-linecap="round" stroke-linejoin="round"/>
    <path d="M 167.302490234375 352.9659423828125 C 168.85011291503906 359.3902893066406 164.0166015625 369.9620666503906 172.82142639160156 365.3423767089844 C 171.50595092773438 358.97930908203125 176.01641845703125 347.6317138671875 167.302490234375 352.9659423828125" stroke-width="2.0" fill="rgb(45, 52, 69)" opacity="1.051075" stroke="rgb(0, 0, 0)" stroke-opacity="0.0" stroke-linecap="round" stroke-linejoin="round"/>
    <path d="M 107.44312286376953 345.9600524902344 C 106.87466430664062 352.4519958496094 103.45440673828125 365.6769714355469 113.61247253417969 359.80120849609375 C 112.23505401611328 353.3291931152344 116.71781921386719 343.3878173828125 107.44312286376953 345.9600524902344" stroke-width="2.0" fill="rgb(31, 35, 54)" opacity="0.9824795" stroke="rgb(0, 0, 0)" stroke-opacity="0.0" stroke-linecap="round" stroke-linejoin="round"/>
    <path d="M 181.6400909423828 352.9351501464844 C 183.81907653808594 358.4950866699219 177.8548126220703 369.8892517089844 187.67880249023438 365.5002136230469 C 186.1599884033203 358.22662353515625 190.87759399414062 347.55487060546875 181.6400909423828 352.9351501464844" stroke-width="2.0" fill="rgb(46, 52, 70)" opacity="1.0350214" stroke="rgb(0, 0, 0)" stroke-opacity="0.0" stroke-linecap="round" stroke-linejoin="round"/>
    <path d="M 72.35121154785156 346.976318359375 C 73.11479949951172 352.2017517089844 69.43775177001953 363.874267578125 77.67687225341797 359.12994384765625 C 76.37355041503906 353.5121765136719 80.65380096435547 342.50286865234375 72.35121154785156 346.976318359375" stroke-width="2.0" fill="rgb(47, 49, 63)" opacity="1.034526" stroke="rgb(0, 0, 0)" stroke-opacity="0.0" stroke-linecap="round" stroke-linejoin="round"/>
    <path d="M 204.54031372070312 352.09283447265625 C 204.47584533691406 357.1275634765625 200.85340881347656 369.65399169921875 209.5287322998047 365.5470886230469 C 208.59840393066406 359.53350830078125 213.001708984375 349.01934814453125 204.54031372070312 352.09283447265625" stroke-width="2.0" fill="rgb(37, 46, 65)" opacity="1.0054998" stroke="rgb(0, 0, 0)" stroke-opacity="0.0" stroke-linecap="round" stroke-linejoin="round"/>
    <path d="M 286.0992736816406 232.69439697265625 C 278.41070556640625 229.79513549804688 279.3807373046875 238.25787353515625 279.7089538574219 244.81521606445312 C 286.15325927734375 240.10183715820312 291.37628173828125 241.1214599609375 286.0992736816406 232.69439697265625" stroke-width="2.0" fill="rgb(55, 59, 82)" opacity="1.0614542" stroke="rgb(0, 0, 0)" stroke-opacity="0.0" stroke-linecap="round" stroke-linejoin="round"/>
    <path d="M 58.37358856201172 347.0753479003906 C 59.12907409667969 351.4678039550781 55.46868896484375 363.9964599609375 63.19630813598633 359.2193908691406 C 62.237247467041016 353.5348815917969 65.87679290771484 342.8195495605469 58.37358856201172 347.0753479003906" stroke-width="2.0" fill="rgb(45, 50, 71)" opacity="1.057183" stroke="rgb(0, 0, 0)" stroke-opacity="0.0" stroke-linecap="round" stroke-linejoin="round"/>
    <path d="M 152.22666931152344 352.7848205566406 C 153.9951171875 358.8290710449219 149.2722930908203 369.7441101074219 157.98194885253906 365.3124694824219 C 156.63868713378906 359.21319580078125 161.7529754638672 348.1134338378906 152.22666931152344 352.7848205566406" stroke-width="2.0" fill="rgb(49, 55, 75)" opacity="1.0416657" stroke="rgb(0, 0, 0)" stroke-opacity="0.0" stroke-linecap="round" stroke-linejoin="round"/>
    <path d="M 220.4123077392578 293.288818359375 C 219.86215209960938 299.10589599609375 217.36378479003906 308.32452392578125 225.6872100830078 304.5538635253906 C 224.1895751953125 299.3496398925781 228.31639099121094 290.3271179199219 220.4123077392578 293.288818359375" stroke-width="2.0" fill="rgb(35, 43, 61)" opacity="1.0506625" stroke="rgb(0, 0, 0)" stroke-opacity="0.0" stroke-linecap="round" stroke-linejoin="round"/>
    <path d="M 246.14871215820312 293.38812255859375 C 247.1451416015625 299.05712890625 242.51646423339844 310.7266540527344 251.68226623535156 306.6069030761719 C 250.66017150878906 300.4989929199219 253.8860321044922 289.39996337890625 246.14871215820312 293.38812255859375" stroke-width="2.0" fill="rgb(27, 29, 49)" opacity="1.0210389" stroke="rgb(0, 0, 0)" stroke-opacity="0.0" stroke-linecap="round" stroke-linejoin="round"/>
    <path d="M 415.7021179199219 384.3211975097656 L 409.01275634765625 391.2143249511719 L 422.04437255859375 391.71240234375 L 415.7021179199219 384.3211975097656" stroke-width="2.0" fill="rgb(124, 181, 198)" opacity="1.0841984" stroke="rgb(0, 0, 0)" stroke-opacity="0.0" stroke-linecap="round" stroke-linejoin="round"/>
    <path d="M 357.033935546875 113.1606674194336 L 352.4438781738281 115.1540298461914 L 356.0973205566406 132.08477783203125 L 360.6091613769531 115.79361724853516 L 357.033935546875 113.1606674194336" stroke-width="2.0" fill="rgb(1, 22, 55)" opacity="0.8425198" stroke="rgb(0, 0, 0)" stroke-opacity="0.0" stroke-linecap="round" stroke-linejoin="round"/>
    <path d="M 382.8258972167969 335.7850646972656 C 382.4252624511719 341.4779968261719 378.5956115722656 354.4335021972656 387.70050048828125 349.20147705078125 C 386.6334228515625 343.5712890625 389.6163635253906 334.5070495605469 382.8258972167969 335.7850646972656" stroke-width="2.0" fill="rgb(61, 55, 70)" opacity="1.0237926" stroke="rgb(0, 0, 0)" stroke-opacity="0.0" stroke-linecap="round" stroke-linejoin="round"/>
    <path d="M 450.03985595703125 388.3594055175781 C 451.7721252441406 395.2796630859375 446.5211181640625 403.1239013671875 456.65966796875 399.2193908691406 C 454.9728698730469 393.9011535644531 460.0623779296875 385.42291259765625 450.03985595703125 388.3594055175781" stroke-width="2.0" fill="rgb(55, 57, 69)" opacity="1.0269747" stroke="rgb(0, 0, 0)" stroke-opacity="0.0" stroke-linecap="round" stroke-linejoin="round"/>
    <path d="M 327.6728820800781 322.6498718261719 C 328.27593994140625 326.9461669921875 325.0254821777344 337.8264465332031 332.3341979980469 334.00390625 C 331.5555419921875 329.56158447265625 334.865478515625 319.99609375 327.6728820800781 322.6498718261719" stroke-width="2.0" fill="rgb(41, 45, 66)" opacity="1.0523157" stroke="rgb(0, 0, 0)" stroke-opacity="0.0" stroke-linecap="round" stroke-linejoin="round"/>
    <path d="M 110.68555450439453 208.1743927001953 C 111.28433227539062 211.369384765625 108.96405029296875 221.58114624023438 113.3482666015625 220.3714599609375 C 115.64212036132812 215.105712890625 117.61688995361328 203.9673309326172 110.68555450439453 208.1743927001953" stroke-width="2.0" fill="rgb(70, 74, 89)" opacity="1.0588839" stroke="rgb(0, 0, 0)" stroke-opacity="0.0" stroke-linecap="round" stroke-linejoin="round"/>
    <path d="M 468.22021484375 311.9602966308594 C 468.940673828125 317.08636474609375 464.3012390136719 327.43170166015625 473.65032958984375 323.9417419433594 C 472.2554931640625 316.4272766113281 476.5953674316406 309.2903747558594 468.22021484375 311.9602966308594" stroke-width="2.0" fill="rgb(50, 50, 67)" opacity="1.0429481" stroke="rgb(0, 0, 0)" stroke-opacity="0.0" stroke-linecap="round" stroke-linejoin="round"/>
    <path d="M 352.430908203125 322.9901123046875 C 353.2082214355469 326.931884765625 349.6147766113281 337.5461730957031 356.80712890625 334.3895263671875 C 356.5843200683594 329.75946044921875 359.9837951660156 320.28985595703125 352.430908203125 322.9901123046875" stroke-width="2.0" fill="rgb(41, 49, 71)" opacity="1.0447097" stroke="rgb(0, 0, 0)" stroke-opacity="0.0" stroke-linecap="round" stroke-linejoin="round"/>
    <path d="M 234.03346252441406 293.16668701171875 C 233.2051544189453 297.6549987792969 231.10879516601562 309.1578063964844 238.9937286376953 305.5165100097656 C 237.4766845703125 300.1427917480469 240.9269561767578 290.8404235839844 234.03346252441406 293.16668701171875" stroke-width="2.0" fill="rgb(36, 42, 70)" opacity="1.0296273" stroke="rgb(0, 0, 0)" stroke-opacity="0.0" stroke-linecap="round" stroke-linejoin="round"/>
    <path d="M 152.6602325439453 322.10687255859375 L 152.5894317626953 335.82427978515625 C 160.0621337890625 342.01226806640625 161.00518798828125 315.8165283203125 152.6602325439453 322.10687255859375" stroke-width="2.0" fill="rgb(45, 48, 67)" opacity="0.9911505" stroke="rgb(0, 0, 0)" stroke-opacity="0.0" stroke-linecap="round" stroke-linejoin="round"/>
    <path d="M 246.12356567382812 267.36883544921875 C 247.331787109375 272.6689453125 242.3797149658203 284.5135192871094 251.6174774169922 280.96270751953125 C 250.05470275878906 274.86260986328125 254.35289001464844 263.6523132324219 246.12356567382812 267.36883544921875" stroke-width="2.0" fill="rgb(35, 42, 65)" opacity="0.99673176" stroke="rgb(0, 0, 0)" stroke-opacity="0.0" stroke-linecap="round" stroke-linejoin="round"/>
    <path d="M 233.10403442382812 267.7381896972656 C 234.7338409423828 272.0997314453125 229.73876953125 283.2420349121094 238.56845092773438 281.2974548339844 C 236.90892028808594 275.3511047363281 241.00753784179688 265.13336181640625 233.10403442382812 267.7381896972656" stroke-width="2.0" fill="rgb(27, 29, 58)" opacity="0.86498976" stroke="rgb(0, 0, 0)" stroke-opacity="0.0" stroke-linecap="round" stroke-linejoin="round"/>
    <path d="M 352.3387756347656 296.6883850097656 C 353.4156188964844 301.7324523925781 349.34027099609375 312.078857421875 357.49786376953125 307.2602844238281 C 356.8309631347656 301.9749755859375 359.6905212402344 292.67279052734375 352.3387756347656 296.6883850097656" stroke-width="2.0" fill="rgb(67, 69, 83)" opacity="1.0674427" stroke="rgb(0, 0, 0)" stroke-opacity="0.0" stroke-linecap="round" stroke-linejoin="round"/>
    <path d="M 48.7433967590332 346.30511474609375 C 41.17091369628906 343.8868408203125 42.98014450073242 365.75299072265625 48.87547302246094 359.3004455566406 L 48.7433967590332 346.30511474609375" stroke-width="2.0" fill="rgb(36, 37, 57)" opacity="1.022262" stroke="rgb(0, 0, 0)" stroke-opacity="0.0" stroke-linecap="round" stroke-linejoin="round"/>
    <path d="M 66.43040466308594 382.5399169921875 L 59.2889518737793 382.4227600097656 L 59.21391296386719 392.985595703125 C 63.624263763427734 389.4379577636719 69.47349548339844 390.7945861816406 66.43040466308594 382.5399169921875" stroke-width="2.0" fill="rgb(47, 46, 58)" opacity="1.0195559" stroke="rgb(0, 0, 0)" stroke-opacity="0.0" stroke-linecap="round" stroke-linejoin="round"/>
    <path d="M 12.403890609741211 358.12939453125 C 4.122359752655029 352.1442565917969 5.337591648101807 373.58697509765625 12.361916542053223 367.66802978515625 L 12.403890609741211 358.12939453125" stroke-width="2.0" fill="rgb(61, 60, 78)" opacity="1.025035" stroke="rgb(0, 0, 0)" stroke-opacity="0.0" stroke-linecap="round" stroke-linejoin="round"/>
    <path d="M 331.8562927246094 295.9291687011719 C 324.8686828613281 293.11370849609375 328.5754699707031 301.52935791015625 327.1538391113281 307.7053527832031 C 335.1927795410156 311.5682678222656 331.42645263671875 300.45526123046875 331.8562927246094 295.9291687011719" stroke-width="2.0" fill="rgb(64, 68, 86)" opacity="1.0620844" stroke="rgb(0, 0, 0)" stroke-opacity="0.0" stroke-linecap="round" stroke-linejoin="round"/>
    <path d="M 434.35467529296875 381.06109619140625 L 432.0650939941406 390.3699951171875 C 434.36322021484375 392.5980529785156 446.1593322753906 391.8472595214844 434.290283203125 387.5159606933594 L 434.35467529296875 381.06109619140625" stroke-width="2.0" fill="rgb(161, 240, 244)" opacity="0.5994022" stroke="rgb(0, 0, 0)" stroke-opacity="0.0" stroke-linecap="round" stroke-linejoin="round"/>
    <path d="M 314.39447021484375 400.7602233886719 C 313.4465026855469 405.6209411621094 308.71612548828125 415.6535949707031 316.67047119140625 414.62115478515625 C 321.88958740234375 409.1797180175781 320.0682373046875 404.0845642089844 314.39447021484375 400.7602233886719" stroke-width="2.0" fill="rgb(83, 36, 42)" opacity="0.52028316" stroke="rgb(0, 0, 0)" stroke-opacity="0.0" stroke-linecap="round" stroke-linejoin="round"/>
    <path d="M 27.064746856689453 357.283203125 C 20.369340896606445 354.77642822265625 18.199453353881836 373.4885559082031 27.080202102661133 366.0445556640625 L 27.064746856689453 357.283203125" stroke-width="2.0" fill="rgb(29, 34, 60)" opacity="0.81674045" stroke="rgb(0, 0, 0)" stroke-opacity="0.0" stroke-linecap="round" stroke-linejoin="round"/>
    <path d="M 343.6728210449219 322.8777770996094 C 338.7877197265625 325.58734130859375 338.2476806640625 336.52825927734375 344.1662292480469 334.1427917480469 L 343.6728210449219 322.8777770996094" stroke-width="2.0" fill="rgb(60, 78, 97)" opacity="1.0324359" stroke="rgb(0, 0, 0)" stroke-opacity="0.0" stroke-linecap="round" stroke-linejoin="round"/>
    <path d="M 344.2257080078125 295.85980224609375 C 337.1334228515625 293.83404541015625 337.9121398925781 312.96728515625 344.4729309082031 307.89300537109375 L 344.2257080078125 295.85980224609375" stroke-width="2.0" fill="rgb(66, 68, 87)" opacity="1.0604762" stroke="rgb(0, 0, 0)" stroke-opacity="0.0" stroke-linecap="round" stroke-linejoin="round"/>
    <path d="M 305.2785339355469 403.6185607910156 C 295.366943359375 408.2665100097656 308.3918762207031 419.77789306640625 308.8901672363281 409.69244384765625 L 305.2785339355469 403.6185607910156" stroke-width="2.0" fill="rgb(91, 83, 89)" opacity="1.1206678" stroke="rgb(0, 0, 0)" stroke-opacity="0.0" stroke-linecap="round" stroke-linejoin="round"/>
    <path d="M 264.6873474121094 188.00730895996094 L 264.41278076171875 191.60450744628906 L 284.3236999511719 189.77691650390625 L 264.6873474121094 188.00730895996094" stroke-width="2.0" fill="rgb(5, 115, 156)" opacity="0.7798441" stroke="rgb(0, 0, 0)" stroke-opacity="0.0" stroke-linecap="round" stroke-linejoin="round"/>
    <path d="M 111.05194091796875 254.6737060546875 C 112.74797058105469 259.4890441894531 108.3451156616211 265.8233337402344 115.9354248046875 263.2585754394531 C 114.69336700439453 258.84564208984375 119.45333862304688 251.44383239746094 111.05194091796875 254.6737060546875" stroke-width="2.0" fill="rgb(44, 53, 77)" opacity="1.0423471" stroke="rgb(0, 0, 0)" stroke-opacity="0.0" stroke-linecap="round" stroke-linejoin="round"/>
    <path d="M 113.50717163085938 206.716552734375 C 111.42022705078125 210.37808227539062 110.29344177246094 220.96836853027344 115.46761322021484 220.3171844482422 L 113.50717163085938 206.716552734375" stroke-width="2.0" fill="rgb(26, 38, 72)" opacity="0.8568244" stroke="rgb(0, 0, 0)" stroke-opacity="0.0" stroke-linecap="round" stroke-linejoin="round"/>
    <path d="M 274.2602233886719 195.74542236328125 C 267.7271423339844 196.05044555664062 270.034423828125 210.38514709472656 274.6446228027344 205.37594604492188 L 274.2602233886719 195.74542236328125" stroke-width="2.0" fill="rgb(60, 63, 87)" opacity="1.044281" stroke="rgb(0, 0, 0)" stroke-opacity="0.0" stroke-linecap="round" stroke-linejoin="round"/>
    <path d="M 278.27301025390625 309.93438720703125 C 279.13140869140625 314.3533020019531 274.738525390625 321.7821350097656 282.5533752441406 319.17364501953125 C 281.5777893066406 314.7262268066406 284.86236572265625 307.5480651855469 278.27301025390625 309.93438720703125" stroke-width="2.0" fill="rgb(52, 53, 70)" opacity="1.0583493" stroke="rgb(0, 0, 0)" stroke-opacity="0.0" stroke-linecap="round" stroke-linejoin="round"/>
    <path d="M 424.9403076171875 393.3808288574219 L 418.58990478515625 396.9430236816406 L 423.9561767578125 401.08807373046875 C 423.995361328125 403.9397888183594 424.2955322265625 409.1446838378906 419.27874755859375 409.82635498046875 L 424.4958801269531 408.4022521972656 L 424.9403076171875 393.3808288574219" stroke-width="2.0" fill="rgb(38, 40, 56)" opacity="1.0393331" stroke="rgb(0, 0, 0)" stroke-opacity="0.0" stroke-linecap="round" stroke-linejoin="round"/>
    <path d="M 392.2120666503906 404.603515625 C 387.1875915527344 410.871337890625 393.783203125 419.6884765625 395.2003173828125 408.4303894042969 L 392.2120666503906 404.603515625" stroke-width="2.0" fill="rgb(24, 15, 27)" opacity="0.84550416" stroke="rgb(0, 0, 0)" stroke-opacity="0.0" stroke-linecap="round" stroke-linejoin="round"/>
    <path d="M 103.97786712646484 151.99822998046875 C 99.62889099121094 147.07608032226562 98.92230987548828 163.45875549316406 103.72865295410156 161.59336853027344 L 103.97786712646484 151.99822998046875" stroke-width="2.0" fill="rgb(59, 74, 83)" opacity="1.0428357" stroke="rgb(0, 0, 0)" stroke-opacity="0.0" stroke-linecap="round" stroke-linejoin="round"/>
    <path d="M 140.72271728515625 137.6874237060547 C 120.97221374511719 151.06240844726562 118.89408874511719 173.13946533203125 153.4024658203125 164.0276336669922 L 140.72271728515625 137.6874237060547" stroke-width="2.0" fill="rgb(19, 70, 109)" opacity="0.80992687" stroke="rgb(0, 0, 0)" stroke-opacity="0.0" stroke-linecap="round" stroke-linejoin="round"/>
    <path d="M 119.99995422363281 151.0 L 122.0 160.0 L 119.99995422363281 151.0" stroke-width="2.0" fill="rgb(85, 99, 107)" opacity="1.0" stroke="rgb(0, 0, 0)" stroke-opacity="0.0" stroke-linecap="round" stroke-linejoin="round"/>
    <path d="M 150.6260528564453 149.49732971191406 L 148.38226318359375 160.31800842285156 L 150.6260528564453 149.49732971191406" stroke-width="2.0" fill="rgb(38, 55, 82)" opacity="1.0" stroke="rgb(0, 0, 0)" stroke-opacity="0.0" stroke-linecap="round" stroke-linejoin="round"/>
    <path d="M 354.03802490234375 277.3177185058594 C 347.1119689941406 284.23602294921875 360.9378662109375 287.1368103027344 356.9854736328125 279.7910461425781 L 354.03802490234375 277.3177185058594" stroke-width="2.0" fill="rgb(74, 95, 118)" opacity="1.0493797" stroke="rgb(0, 0, 0)" stroke-opacity="0.0" stroke-linecap="round" stroke-linejoin="round"/>
    <path d="M 343.5826110839844 278.2341613769531 C 336.35003662109375 278.5048522949219 339.0528869628906 287.4609680175781 344.8769226074219 283.9667663574219 L 343.5826110839844 278.2341613769531" stroke-width="2.0" fill="rgb(66, 88, 111)" opacity="1.0561831" stroke="rgb(0, 0, 0)" stroke-opacity="0.0" stroke-linecap="round" stroke-linejoin="round"/>
    <path d="M 328.6369934082031 278.1690368652344 C 323.2491149902344 285.0276184082031 336.8395690917969 287.22772216796875 331.7567443847656 278.2711486816406 L 328.6369934082031 278.1690368652344" stroke-width="2.0" fill="rgb(88, 112, 139)" opacity="1.0425482" stroke="rgb(0, 0, 0)" stroke-opacity="0.0" stroke-linecap="round" stroke-linejoin="round"/>
    <path d="M 281.9856262207031 287.54254150390625 C 280.2860107421875 285.8326110839844 280.0367431640625 291.84124755859375 281.9931945800781 294.9697570800781 L 281.9856262207031 287.54254150390625" stroke-width="2.0" fill="rgb(88, 86, 87)" opacity="1.1378239" stroke="rgb(0, 0, 0)" stroke-opacity="0.0" stroke-linecap="round" stroke-linejoin="round"/>
    <path d="M 122.0 151.0 L 120.0 160.0 L 122.0 151.0" stroke-width="2.0" fill="rgb(60, 75, 87)" opacity="1.0" stroke="rgb(0, 0, 0)" stroke-opacity="0.0" stroke-linecap="round" stroke-linejoin="round"/>
    <path d="M 112.38923645019531 182.29653930664062 C 107.49066162109375 189.32760620117188 118.82920837402344 191.7630615234375 114.92401885986328 182.801513671875 L 112.38923645019531 182.29653930664062" stroke-width="2.0" fill="rgb(39, 46, 74)" opacity="1.0713385" stroke="rgb(0, 0, 0)" stroke-opacity="0.0" stroke-linecap="round" stroke-linejoin="round"/>
    <path d="M 108.8421630859375 374.2572326660156 C 106.919921875 378.0153503417969 109.24496459960938 379.8768005371094 114.15499114990234 376.719970703125 L 108.8421630859375 374.2572326660156" stroke-width="2.0" fill="rgb(239, 242, 240)" opacity="1.0825325" stroke="rgb(0, 0, 0)" stroke-opacity="0.0" stroke-linecap="round" stroke-linejoin="round"/>
    <path d="M 284.463623046875 268.2380676269531 C 279.6724853515625 267.99798583984375 281.1386413574219 277.05804443359375 284.7004089355469 274.2757568359375 L 284.463623046875 268.2380676269531" stroke-width="2.0" fill="rgb(74, 76, 96)" opacity="1.0976757" stroke="rgb(0, 0, 0)" stroke-opacity="0.0" stroke-linecap="round" stroke-linejoin="round"/>
    <path d="M 471.55438232421875 389.28045654296875 C 479.27001953125 397.1145935058594 480.3244323730469 381.7202453613281 471.55438232421875 389.28045654296875" stroke-width="2.0" fill="rgb(197, 210, 218)" opacity="1.2283545" stroke="rgb(0, 0, 0)" stroke-opacity="0.0" stroke-linecap="round" stroke-linejoin="round"/>
    <path d="M 121.0 106.0 L 123.0 113.0 L 121.0 106.0" stroke-width="2.0" fill="rgb(87, 88, 91)" opacity="1.0" stroke="rgb(0, 0, 0)" stroke-opacity="0.0" stroke-linecap="round" stroke-linejoin="round"/>
    <path d="M 480.36578369140625 386.3236999511719 C 476.7392883300781 394.48321533203125 491.18194580078125 391.2043762207031 480.36578369140625 386.3236999511719" stroke-width="2.0" fill="rgb(221, 231, 233)" opacity="0.97196025" stroke="rgb(0, 0, 0)" stroke-opacity="0.0" stroke-linecap="round" stroke-linejoin="round"/>
    <path d="M 101.01810455322266 373.48028564453125 C 99.86453247070312 377.3511657714844 106.57431030273438 376.1343078613281 104.1042251586914 372.76141357421875 L 101.01810455322266 373.48028564453125" stroke-width="2.0" fill="rgb(245, 244, 233)" opacity="1.0873096" stroke="rgb(0, 0, 0)" stroke-opacity="0.0" stroke-linecap="round" stroke-linejoin="round"/>
    <path d="M 272.5927429199219 286.9493713378906 L 271.9868469238281 293.9988708496094 L 272.5927429199219 286.9493713378906" stroke-width="2.0" fill="rgb(101, 121, 125)" opacity="1.0" stroke="rgb(0, 0, 0)" stroke-opacity="0.0" stroke-linecap="round" stroke-linejoin="round"/>
  </g>
</svg>
