<?xml version="1.0" ?>
<svg xmlns="http://www.w3.org/2000/svg" version="1.1" width="512" height="512">
  <defs/>
  <g>
    <path d="M 522.0355224609375 384.00201416015625 C 533.8264770507812 428.9490051269531 565.00927734375 426.4420471191406 453.9755554199219 425.8612976074219 C 451.3987121582031 333.3481140136719 463.6536560058594 378.7868347167969 484.01898193359375 373.6468200683594 C 423.8525085449219 318.79803466796875 517.5120239257812 385.1612854003906 320.11163330078125 188.27809143066406 C 652.858154296875 163.1620635986328 548.0811767578125 258.517578125 522.0355224609375 384.00201416015625" stroke-width="0.0" fill="rgb(149, 82, 76)" opacity="0.6885678" stroke="rgb(103, 195, 245)" stroke-opacity="0.549224" stroke-linecap="round" stroke-linejoin="round"/>
    <path d="M 524.7581176757812 92.2775650024414 C 532.6514282226562 166.36093139648438 665.4205322265625 297.84674072265625 480.3150329589844 367.3624267578125 C 519.5492553710938 231.502197265625 411.5821533203125 193.91712951660156 294.4319763183594 228.0879669189453 C 196.70957946777344 169.9182891845703 231.12771606445312 175.24436950683594 448.8332824707031 101.34888458251953 C 521.5682373046875 78.52249908447266 531.6765747070312 69.09667205810547 524.7581176757812 92.2775650024414" stroke-width="0.0" fill="rgb(73, 138, 217)" opacity="0.9367498" stroke="rgb(125, 24, 6)" stroke-opacity="0.92294955" stroke-linecap="round" stroke-linejoin="round"/>
    <path d="M 423.62103271484375 70.70977783203125 C 197.36727905273438 135.69468688964844 277.3026123046875 294.1094970703125 228.29151916503906 162.3050994873047 C 258.4569091796875 120.12677001953125 99.71436309814453 -34.430912017822266 -1.35365629196167 235.58937072753906 C -30.326181411743164 -111.71063995361328 -13.120107650756836 -48.97019958496094 345.5798645019531 -16.26618194580078 C 463.53729248046875 0.8518538475036621 493.486083984375 -58.76826858520508 423.62103271484375 70.70977783203125" stroke-width="0.0" fill="rgb(0, 116, 242)" opacity="0.6517684" stroke="rgb(27, 136, 28)" stroke-opacity="0.9867076" stroke-linecap="round" stroke-linejoin="round"/>
    <path d="M 187.15721130371094 312.1867370605469 C 185.30755615234375 314.15557861328125 191.59315490722656 311.79638671875 151.96640014648438 318.4869384765625 C 151.2144775390625 320.0467834472656 151.5862274169922 316.63214111328125 152.76165771484375 283.1044921875 C 154.11505126953125 269.27557373046875 165.58187866210938 258.5284423828125 178.5361328125 263.2452697753906 C 191.35072326660156 270.7590026855469 186.9339141845703 279.0777282714844 187.15721130371094 312.1867370605469" stroke-width="0.0" fill="rgb(0, 18, 63)" opacity="0.89670473" stroke="rgb(201, 250, 189)" stroke-opacity="0.33071738" stroke-linecap="round" stroke-linejoin="round"/>
    <path d="M 183.56085205078125 379.55181884765625 C 183.14695739746094 395.0142822265625 179.364501953125 394.6878356933594 150.6854705810547 405.56903076171875 C 152.1244354248047 405.7239074707031 151.04981994628906 404.078369140625 152.0806121826172 380.51507568359375 C 152.70391845703125 371.3191833496094 160.31219482421875 359.43402099609375 172.12301635742188 361.86700439453125 C 179.3540802001953 363.2825012207031 182.95077514648438 368.2558898925781 183.56085205078125 379.55181884765625" stroke-width="0.0" fill="rgb(43, 22, 50)" opacity="0.65031856" stroke="rgb(177, 240, 76)" stroke-opacity="0.015918585" stroke-linecap="round" stroke-linejoin="round"/>
    <path d="M 251.12255859375 274.0799560546875 C 251.4541778564453 318.06524658203125 250.66217041015625 304.33172607421875 248.3391571044922 307.0307312011719 C 202.71060180664062 310.0091857910156 212.59371948242188 313.2954406738281 211.42652893066406 304.7706298828125 C 212.35826110839844 270.8852844238281 209.4193878173828 266.20147705078125 223.04974365234375 255.9087677001953 C 238.50975036621094 248.49903869628906 251.7097930908203 258.7259521484375 251.12255859375 274.0799560546875" stroke-width="0.0" fill="rgb(0, 17, 63)" opacity="0.8948588" stroke="rgb(224, 179, 102)" stroke-opacity="0.8030322" stroke-linecap="round" stroke-linejoin="round"/>
    <path d="M 183.21185302734375 414.40118408203125 C 181.76693725585938 429.7872619628906 184.5879669189453 425.82733154296875 179.15109252929688 426.3863220214844 C 142.07911682128906 426.3128356933594 151.77642822265625 426.7561950683594 150.58384704589844 425.4651794433594 C 153.4613037109375 374.90789794921875 149.1639862060547 365.0182800292969 171.1105194091797 361.59332275390625 C 188.23619079589844 368.5283203125 183.25416564941406 374.1989440917969 183.21185302734375 414.40118408203125" stroke-width="0.0" fill="rgb(23, 33, 70)" opacity="0.98378503" stroke="rgb(154, 193, 40)" stroke-opacity="0.9893673" stroke-linecap="round" stroke-linejoin="round"/>
    <path d="M 360.2236022949219 288.99261474609375 C 360.2208557128906 311.17864990234375 365.1001281738281 301.1471862792969 327.96533203125 303.6756591796875 C 316.8689880371094 314.71783447265625 316.6391906738281 314.0089416503906 328.0754699707031 303.70623779296875 C 327.212646484375 280.73028564453125 326.4416809082031 274.98089599609375 337.8194885253906 269.0220947265625 C 352.4706115722656 265.0472106933594 360.6799011230469 276.6528625488281 360.2236022949219 288.99261474609375" stroke-width="0.0" fill="rgb(0, 16, 61)" opacity="0.89192224" stroke="rgb(163, 174, 157)" stroke-opacity="0.14949416" stroke-linecap="round" stroke-linejoin="round"/>
    <path d="M 316.3487854003906 376.9654846191406 C 317.8932189941406 441.9786682128906 317.1874694824219 425.6036376953125 316.559326171875 425.6886901855469 C 279.3026428222656 425.9254455566406 273.9045104980469 425.4402160644531 276.5450744628906 426.44024658203125 C 276.66302490234375 379.58331298828125 275.7379150390625 381.14068603515625 278.4956970214844 384.3023681640625 C 323.4024963378906 383.7367858886719 312.73931884765625 381.0469665527344 316.3487854003906 376.9654846191406" stroke-width="0.0" fill="rgb(26, 35, 71)" opacity="0.99980897" stroke="rgb(122, 146, 104)" stroke-opacity="0.09530611" stroke-linecap="round" stroke-linejoin="round"/>
    <path d="M 417.461669921875 425.4051818847656 C 418.9735107421875 425.7972412109375 416.2518005371094 426.06134033203125 372.42816162109375 425.4171447753906 C 387.17938232421875 424.52178955078125 379.4180603027344 435.1612854003906 380.4701843261719 376.6916809082031 C 403.316162109375 353.3864440917969 394.5027770996094 363.005615234375 390.14385986328125 366.73553466796875 C 420.87139892578125 364.35498046875 413.49560546875 387.9163513183594 417.461669921875 425.4051818847656" stroke-width="0.0" fill="rgb(5, 21, 65)" opacity="0.91897446" stroke="rgb(33, 80, 8)" stroke-opacity="0.55277866" stroke-linecap="round" stroke-linejoin="round"/>
    <path d="M 314.52239990234375 367.4312438964844 C 320.4709777832031 380.01995849609375 311.2610168457031 402.98675537109375 306.119873046875 407.3132019042969 C 281.37542724609375 408.7249755859375 279.2091369628906 413.9910583496094 279.0765686035156 433.23944091796875 C 275.3055114746094 368.2549133300781 273.91424560546875 368.73345947265625 286.3080749511719 357.86639404296875 C 304.08154296875 348.6833801269531 313.9591979980469 363.7713623046875 314.52239990234375 367.4312438964844" stroke-width="0.0" fill="rgb(23, 33, 71)" opacity="0.98165154" stroke="rgb(242, 229, 236)" stroke-opacity="0.4404804" stroke-linecap="round" stroke-linejoin="round"/>
    <path d="M 362.1950988769531 336.4178771972656 C 360.758056640625 408.4406433105469 370.3475646972656 420.87677001953125 349.3721618652344 369.0405578613281 C 329.09716796875 323.3016662597656 363.0334167480469 389.1409912109375 335.4122619628906 286.7844543457031 C 297.5567321777344 283.92120361328125 306.4643249511719 295.25616455078125 341.77783203125 290.068115234375 C 366.58966064453125 285.2151794433594 358.1770935058594 297.77667236328125 362.1950988769531 336.4178771972656" stroke-width="0.0" fill="rgb(22, 33, 72)" opacity="0.97545767" stroke="rgb(68, 89, 162)" stroke-opacity="0.99879414" stroke-linecap="round" stroke-linejoin="round"/>
    <path d="M 133.8488006591797 292.8556823730469 C 132.61404418945312 306.7289733886719 134.66677856445312 304.1121826171875 130.88954162597656 305.20782470703125 C 109.9837646484375 299.67120361328125 107.43254852294922 300.7494812011719 107.33480072021484 290.7876892089844 C 109.1584701538086 280.0826110839844 117.29625701904297 275.3009338378906 121.1009292602539 274.91192626953125 C 127.74858093261719 273.2005615234375 135.76243591308594 280.3209228515625 133.8488006591797 292.8556823730469" stroke-width="0.0" fill="rgb(79, 38, 57)" opacity="0.55158633" stroke="rgb(239, 47, 170)" stroke-opacity="0.88600564" stroke-linecap="round" stroke-linejoin="round"/>
    <path d="M 132.36175537109375 322.2416076660156 C 132.79327392578125 322.3741760253906 133.6842498779297 321.8102111816406 105.46009063720703 328.075927734375 C 105.18742370605469 332.5415954589844 105.9231185913086 322.45208740234375 107.26814270019531 294.65069580078125 C 108.0652084350586 285.0333557128906 113.22244262695312 275.56964111328125 123.63282012939453 275.1517333984375 C 136.46632385253906 278.2945556640625 132.92306518554688 285.2195129394531 132.36175537109375 322.2416076660156" stroke-width="0.0" fill="rgb(22, 32, 71)" opacity="0.9797214" stroke="rgb(202, 254, 93)" stroke-opacity="0.19998406" stroke-linecap="round" stroke-linejoin="round"/>
    <path d="M 88.80943298339844 328.9324035644531 C 87.61038208007812 333.8323669433594 93.2848129272461 330.3422546386719 70.6907958984375 337.0722961425781 C 67.35543823242188 337.134765625 67.6995849609375 345.086181640625 69.77587127685547 308.8047180175781 C 69.65165710449219 297.580322265625 74.92832946777344 286.74700927734375 84.31535339355469 288.5765380859375 C 93.0517349243164 293.04229736328125 89.90036010742188 297.82861328125 88.80943298339844 328.9324035644531" stroke-width="0.0" fill="rgb(0, 16, 60)" opacity="0.8904804" stroke="rgb(29, 64, 221)" stroke-opacity="0.7627367" stroke-linecap="round" stroke-linejoin="round"/>
    <path d="M 248.87957763671875 391.0216369628906 C 248.2692413330078 437.1182861328125 248.90823364257812 433.3434753417969 249.2413330078125 426.16748046875 C 193.35556030273438 426.83514404296875 213.93405151367188 424.2095642089844 209.6569061279297 432.2398681640625 C 211.2677764892578 381.8785705566406 209.46791076660156 374.1090087890625 215.11654663085938 373.45989990234375 C 249.88742065429688 375.40142822265625 249.90682983398438 376.8261413574219 248.87957763671875 391.0216369628906" stroke-width="0.0" fill="rgb(4, 19, 61)" opacity="0.89880407" stroke="rgb(57, 201, 38)" stroke-opacity="0.583017" stroke-linecap="round" stroke-linejoin="round"/>
    <path d="M 451.41015625 335.755859375 C 450.803955078125 343.83026123046875 453.3861083984375 352.87603759765625 451.1721496582031 351.8558044433594 C 433.5294189453125 348.26995849609375 440.7089538574219 354.92108154296875 437.5035705566406 336.4303894042969 C 437.42999267578125 318.14801025390625 431.8357849121094 299.78448486328125 439.93243408203125 299.0638427734375 C 451.4053955078125 299.5348815917969 448.09893798828125 323.4382629394531 451.41015625 335.755859375" stroke-width="0.0" fill="rgb(0, 47, 97)" opacity="1.0" stroke="rgb(227, 22, 130)" stroke-opacity="0.89449656" stroke-linecap="round" stroke-linejoin="round"/>
    <path d="M 61.718841552734375 266.1191101074219 C 62.34388732910156 266.6729736328125 60.43149185180664 267.0298156738281 49.04011535644531 274.36077880859375 C 45.5046272277832 277.1592102050781 46.77097702026367 273.597900390625 47.11581802368164 274.9764099121094 C 49.01808166503906 245.11688232421875 47.858577728271484 234.80496215820312 57.845985412597656 229.30831909179688 C 66.48222351074219 230.24720764160156 63.549442291259766 236.20668029785156 61.718841552734375 266.1191101074219" stroke-width="0.0" fill="rgb(0, 17, 62)" opacity="0.8960336" stroke="rgb(46, 52, 188)" stroke-opacity="0.50264853" stroke-linecap="round" stroke-linejoin="round"/>
    <path d="M 424.6820068359375 318.61712646484375 C 424.9015197753906 325.4153137207031 429.86663818359375 323.54443359375 409.12640380859375 322.8062744140625 C 407.8697204589844 323.0784912109375 409.1792297363281 322.8641662597656 407.4751892089844 305.013427734375 C 406.5869140625 294.3493957519531 410.2781982421875 291.0362854003906 415.1640319824219 290.84783935546875 C 419.5708923339844 292.8990783691406 423.97491455078125 293.1437072753906 424.6820068359375 318.61712646484375" stroke-width="0.0" fill="rgb(9, 23, 65)" opacity="0.9331099" stroke="rgb(166, 72, 169)" stroke-opacity="0.43856147" stroke-linecap="round" stroke-linejoin="round"/>
    <path d="M 189.5546417236328 221.439208984375 C 191.2045135498047 221.2486114501953 186.8743133544922 221.46234130859375 153.816162109375 230.29214477539062 C 153.22702026367188 231.70053100585938 154.4580841064453 221.62741088867188 154.5303497314453 199.39183044433594 C 154.4412078857422 193.99822998046875 158.75936889648438 174.31028747558594 178.285888671875 175.23867797851562 C 191.93492126464844 178.73690795898438 189.906982421875 187.22076416015625 189.5546417236328 221.439208984375" stroke-width="0.0" fill="rgb(2, 20, 65)" opacity="0.90566593" stroke="rgb(164, 7, 97)" stroke-opacity="0.9639292" stroke-linecap="round" stroke-linejoin="round"/>
    <path d="M 93.42769622802734 251.12290954589844 C 96.0091552734375 248.86361694335938 87.60416412353516 254.42613220214844 75.1268539428711 259.7041320800781 C 74.59494018554688 261.13623046875 74.60359954833984 258.44500732421875 75.6590347290039 242.95416259765625 C 77.37946319580078 230.36888122558594 74.86598205566406 213.75311279296875 88.42253112792969 210.6374053955078 C 99.0777587890625 211.9008331298828 93.43549346923828 219.0191650390625 93.42769622802734 251.12290954589844" stroke-width="0.0" fill="rgb(0, 34, 91)" opacity="0.8525444" stroke="rgb(52, 205, 68)" stroke-opacity="0.9377427" stroke-linecap="round" stroke-linejoin="round"/>
    <path d="M 288.6734313964844 221.1961212158203 C 290.0631103515625 264.73663330078125 292.76348876953125 249.12847900390625 277.3252868652344 253.677001953125 C 270.64788818359375 234.55369567871094 279.4900207519531 256.3878173828125 277.05224609375 237.323974609375 C 277.6513671875 221.59487915039062 277.06640625 217.77500915527344 277.306640625 210.4739532470703 C 286.1330261230469 218.32144165039062 290.40771484375 222.22604370117188 288.6734313964844 221.1961212158203" stroke-width="0.0" fill="rgb(26, 37, 74)" opacity="1.0" stroke="rgb(50, 2, 32)" stroke-opacity="0.49841848" stroke-linecap="round" stroke-linejoin="round"/>
    <path d="M 246.60800170898438 366.74053955078125 C 252.2657470703125 377.8720703125 249.3191680908203 391.39947509765625 213.31336975097656 396.7190856933594 C 211.27536010742188 394.2375183105469 210.10263061523438 397.6995544433594 210.73362731933594 377.51043701171875 C 211.97000122070312 360.9955749511719 225.5220947265625 356.8658752441406 228.678466796875 356.9740295410156 C 239.33206176757812 356.67608642578125 244.11932373046875 362.316650390625 246.60800170898438 366.74053955078125" stroke-width="0.0" fill="rgb(86, 46, 60)" opacity="0.6708445" stroke="rgb(194, 28, 157)" stroke-opacity="0.32922164" stroke-linecap="round" stroke-linejoin="round"/>
    <path d="M 248.91650390625 386.06134033203125 C 247.35682678222656 403.3593444824219 253.6917266845703 404.3919372558594 232.92173767089844 401.8518371582031 C 211.60284423828125 398.2325134277344 209.42745971679688 396.7865295410156 211.3936767578125 387.92724609375 C 208.27630615234375 360.2423095703125 226.19577026367188 356.50762939453125 232.36087036132812 357.0713806152344 C 240.6713104248047 358.55419921875 251.10008239746094 365.38800048828125 248.91650390625 386.06134033203125" stroke-width="0.0" fill="rgb(23, 34, 71)" opacity="0.9839041" stroke="rgb(50, 68, 143)" stroke-opacity="0.47956124" stroke-linecap="round" stroke-linejoin="round"/>
    <path d="M 128.10874938964844 395.70770263671875 C 126.13789367675781 397.2885437011719 130.2720489501953 398.3434753417969 127.00204467773438 402.70831298828125 C 103.666259765625 393.44580078125 104.83880615234375 396.95068359375 107.07158660888672 378.19171142578125 C 107.98238372802734 370.860595703125 112.99272155761719 368.5902099609375 118.18648529052734 367.5970458984375 C 124.62439727783203 368.0543212890625 131.76315307617188 372.0043029785156 128.10874938964844 395.70770263671875" stroke-width="0.0" fill="rgb(70, 35, 55)" opacity="0.58957237" stroke="rgb(196, 124, 84)" stroke-opacity="0.33110705" stroke-linecap="round" stroke-linejoin="round"/>
    <path d="M 83.71968841552734 406.5037536621094 C 78.98277282714844 402.48004150390625 83.9876480102539 408.6354064941406 78.30026245117188 413.4645080566406 C 63.19839096069336 413.6021423339844 64.58734130859375 412.4976501464844 66.48686981201172 388.0134582519531 C 66.63086700439453 379.87591552734375 70.4967041015625 368.20166015625 80.95073699951172 372.0173034667969 C 87.2107925415039 377.459228515625 86.7306137084961 377.4013977050781 83.71968841552734 406.5037536621094" stroke-width="0.0" fill="rgb(6, 20, 63)" opacity="0.914389" stroke="rgb(136, 74, 107)" stroke-opacity="0.4184098" stroke-linecap="round" stroke-linejoin="round"/>
    <path d="M 127.19266510009766 420.363525390625 C 126.83969116210938 409.13421630859375 127.13494873046875 416.6092224121094 126.52925109863281 426.3505554199219 C 92.63069152832031 426.17840576171875 105.007568359375 426.95306396484375 103.13509368896484 424.4934387207031 C 106.33280944824219 376.2198791503906 103.23394775390625 377.13494873046875 114.81494903564453 368.4803466796875 C 132.64358520507812 367.0869445800781 127.66592407226562 378.9372253417969 127.19266510009766 420.363525390625" stroke-width="0.0" fill="rgb(21, 32, 70)" opacity="0.9745568" stroke="rgb(96, 101, 249)" stroke-opacity="0.85339546" stroke-linecap="round" stroke-linejoin="round"/>
    <path d="M 34.13188171386719 227.65386962890625 C 15.715895652770996 271.59674072265625 59.22909164428711 240.218994140625 -1.583699345588684 270.29852294921875 C -11.483850479125977 263.2939147949219 -11.373915672302246 258.3623352050781 -10.589360237121582 207.89747619628906 C -16.207317352294922 181.4392852783203 -71.04193115234375 149.41204833984375 32.56163787841797 124.79016876220703 C 33.628353118896484 227.49984741210938 42.20143127441406 141.1793212890625 34.13188171386719 227.65386962890625" stroke-width="0.0" fill="rgb(76, 139, 214)" opacity="0.9739307" stroke="rgb(61, 69, 227)" stroke-opacity="0.13770907" stroke-linecap="round" stroke-linejoin="round"/>
    <path d="M 83.10039520263672 425.4688720703125 C 82.08184051513672 426.6181335449219 90.66558074951172 426.3797912597656 63.81388473510742 426.33697509765625 C 62.1963996887207 425.9409484863281 61.9481315612793 441.2034912109375 64.13834381103516 420.27191162109375 C 65.80570983886719 397.47247314453125 64.44499206542969 391.80364990234375 85.14445495605469 389.94854736328125 C 85.39157104492188 389.4703674316406 85.07030487060547 393.424072265625 83.10039520263672 425.4688720703125" stroke-width="0.0" fill="rgb(23, 33, 70)" opacity="0.9798704" stroke="rgb(35, 250, 251)" stroke-opacity="0.42530474" stroke-linecap="round" stroke-linejoin="round"/>
    <path d="M 438.57550048828125 259.1278076171875 C 289.0164794921875 251.24313354492188 327.7085876464844 259.1716613769531 303.6028747558594 289.3524169921875 C 273.8164367675781 267.05743408203125 282.2056579589844 260.43780517578125 273.9583435058594 245.7043914794922 C 273.8976135253906 244.06781005859375 295.2668151855469 273.7369384765625 287.607177734375 227.01495361328125 C 280.7710266113281 237.77423095703125 374.4802551269531 223.53900146484375 438.57550048828125 259.1278076171875" stroke-width="0.0" fill="rgb(186, 78, 53)" opacity="0.669876" stroke="rgb(206, 55, 180)" stroke-opacity="0.43665525" stroke-linecap="round" stroke-linejoin="round"/>
    <path d="M 312.6941833496094 306.3643493652344 C 313.7178039550781 302.860595703125 317.00897216796875 303.45745849609375 294.3270568847656 304.3069152832031 C 291.337646484375 295.6754150390625 286.0358581542969 280.18798828125 277.65167236328125 253.9730987548828 C 271.8437194824219 240.1072998046875 281.4400329589844 241.45999145507812 288.65704345703125 266.786865234375 C 295.8239440917969 266.9392395019531 319.6278381347656 262.7352294921875 312.6941833496094 306.3643493652344" stroke-width="0.0" fill="rgb(25, 35, 72)" opacity="0.9983914" stroke="rgb(163, 91, 62)" stroke-opacity="0.5689364" stroke-linecap="round" stroke-linejoin="round"/>
    <path d="M 15.752812385559082 404.3836975097656 C 12.757123947143555 430.3974914550781 14.271211624145508 426.7980651855469 13.332324981689453 426.4021301269531 C -17.954011917114258 426.323486328125 -11.143689155578613 429.79827880859375 -8.123315811157227 384.54864501953125 C -13.646500587463379 371.66778564453125 -21.82059097290039 363.6525573730469 7.080119609832764 363.1498107910156 C 22.077423095703125 380.8371276855469 17.526805877685547 373.88739013671875 15.752812385559082 404.3836975097656" stroke-width="0.0" fill="rgb(0, 118, 241)" opacity="0.65639997" stroke="rgb(170, 218, 187)" stroke-opacity="0.55116147" stroke-linecap="round" stroke-linejoin="round"/>
    <path d="M 200.7672119140625 82.6257095336914 C 205.59548950195312 97.36892700195312 207.84288024902344 95.98517608642578 182.31063842773438 88.49382781982422 C 149.782470703125 71.05211639404297 117.85417938232422 89.23666381835938 153.280517578125 71.44624328613281 C 207.09991455078125 57.61405944824219 175.3848876953125 47.055885314941406 196.13705444335938 59.90812301635742 C 197.10305786132812 78.01347351074219 191.69061279296875 75.06886291503906 200.7672119140625 82.6257095336914" stroke-width="0.0" fill="rgb(27, 0, 23)" opacity="0.8121891" stroke="rgb(149, 174, 160)" stroke-opacity="0.55050164" stroke-linecap="round" stroke-linejoin="round"/>
    <path d="M 255.94715881347656 310.9792785644531 C 254.85781860351562 240.7552947998047 219.16574096679688 230.9928436279297 204.49337768554688 297.2927551269531 C 203.2379608154297 203.0161895751953 218.85389709472656 252.40765380859375 147.53929138183594 273.77117919921875 C 143.65499877929688 232.7128143310547 158.5314483642578 244.84487915039062 232.07308959960938 228.14590454101562 C 258.0164794921875 230.20948791503906 259.2153015136719 204.81993103027344 255.94715881347656 310.9792785644531" stroke-width="0.0" fill="rgb(253, 41, 0)" opacity="0.17274752" stroke="rgb(116, 91, 102)" stroke-opacity="0.8560089" stroke-linecap="round" stroke-linejoin="round"/>
    <path d="M 462.8269958496094 307.446533203125 C 493.15789794921875 388.3140563964844 419.64654541015625 399.9853515625 431.8677673339844 350.346435546875 C 343.093994140625 342.8079528808594 364.7484130859375 357.366943359375 361.2584533691406 324.3743896484375 C 355.728759765625 323.57159423828125 369.212890625 323.65386962890625 429.6559753417969 327.9376525878906 C 427.4294738769531 321.0128173828125 403.7519226074219 297.90240478515625 462.8269958496094 307.446533203125" stroke-width="0.0" fill="rgb(126, 0, 0)" opacity="0.2967041" stroke="rgb(158, 11, 144)" stroke-opacity="0.24916711" stroke-linecap="round" stroke-linejoin="round"/>
    <path d="M 346.8670349121094 325.7931213378906 C 343.2274169921875 349.31842041015625 358.55938720703125 337.1722412109375 313.9238586425781 342.0798034667969 C 227.5934295654297 342.5465393066406 267.6405944824219 347.5597229003906 244.43084716796875 329.5420227050781 C 263.80401611328125 328.6157531738281 279.8468933105469 327.5898132324219 292.282470703125 327.35467529296875 C 297.5855712890625 326.8725280761719 322.60430908203125 327.1575927734375 346.8670349121094 325.7931213378906" stroke-width="0.0" fill="rgb(186, 68, 38)" opacity="0.57847095" stroke="rgb(7, 95, 193)" stroke-opacity="0.5636077" stroke-linecap="round" stroke-linejoin="round"/>
    <path d="M 50.67643356323242 424.5233459472656 C 49.233970642089844 427.0942687988281 56.181758880615234 426.2053527832031 35.91251754760742 426.4480895996094 C 35.7375373840332 437.7742919921875 36.443485260009766 425.2806396484375 39.346923828125 393.722412109375 C 40.096580505371094 378.4635009765625 46.33917999267578 377.2375793457031 49.00238800048828 378.04449462890625 C 55.55706787109375 382.3685607910156 53.297889709472656 382.49072265625 50.67643356323242 424.5233459472656" stroke-width="0.0" fill="rgb(0, 16, 60)" opacity="0.8863484" stroke="rgb(186, 204, 101)" stroke-opacity="0.49225274" stroke-linecap="round" stroke-linejoin="round"/>
    <path d="M 190.56231689453125 198.4805450439453 C 185.84486389160156 230.30165100097656 195.87815856933594 218.58172607421875 174.98562622070312 225.1330108642578 C 167.814208984375 226.3793487548828 169.76515197753906 226.9779052734375 165.44171142578125 226.60171508789062 C 166.02578735351562 202.2611541748047 165.07894897460938 191.26344299316406 178.2372283935547 183.78822326660156 C 190.53688049316406 180.33322143554688 189.35609436035156 181.4075927734375 190.56231689453125 198.4805450439453" stroke-width="0.0" fill="rgb(12, 113, 255)" opacity="0.6575391" stroke="rgb(107, 158, 10)" stroke-opacity="0.2513059" stroke-linecap="round" stroke-linejoin="round"/>
    <path d="M 372.4864501953125 256.5367126464844 C 335.716796875 257.7190246582031 354.4865417480469 256.07537841796875 337.3348693847656 257.77001953125 C 312.4078674316406 259.0864562988281 332.1750793457031 272.8992004394531 322.5592956542969 255.1853485107422 C 321.92669677734375 252.1779327392578 322.16131591796875 254.4956817626953 347.35040283203125 254.31320190429688 C 318.8544006347656 253.896728515625 328.50897216796875 253.57095336914062 372.4864501953125 256.5367126464844" stroke-width="0.0" fill="rgb(255, 237, 186)" opacity="0.66426224" stroke="rgb(115, 88, 132)" stroke-opacity="0.30433854" stroke-linecap="round" stroke-linejoin="round"/>
    <path d="M 400.71954345703125 366.502197265625 C 384.1200256347656 370.027099609375 375.7657470703125 363.0360412597656 382.4206237792969 432.4438171386719 C 350.9285583496094 438.7070617675781 367.0490417480469 378.6019592285156 360.87255859375 353.808837890625 C 362.4205322265625 318.3771057128906 355.03631591796875 323.8448181152344 376.86737060546875 324.8405456542969 C 398.1289978027344 326.1927795410156 382.39166259765625 321.2318420410156 400.71954345703125 366.502197265625" stroke-width="0.0" fill="rgb(166, 64, 44)" opacity="0.43366027" stroke="rgb(110, 80, 116)" stroke-opacity="0.994327" stroke-linecap="round" stroke-linejoin="round"/>
    <path d="M 483.6176452636719 89.88794708251953 C 436.8394775390625 105.39579772949219 424.62640380859375 109.48078918457031 382.2130126953125 123.6057357788086 C 307.93658447265625 146.61419677734375 321.55499267578125 151.36761474609375 352.93768310546875 99.23714447021484 C 368.0185241699219 71.1741943359375 384.2575378417969 63.8839225769043 412.52874755859375 65.45526885986328 C 395.47222900390625 66.1972427368164 473.9505310058594 69.50662231445312 483.6176452636719 89.88794708251953" stroke-width="0.0" fill="rgb(246, 231, 206)" opacity="0.967233" stroke="rgb(146, 16, 6)" stroke-opacity="0.4076322" stroke-linecap="round" stroke-linejoin="round"/>
    <path d="M 17.837600708007812 360.8177795410156 C 15.203815460205078 364.9196472167969 15.709197044372559 366.1839599609375 16.385902404785156 385.2707214355469 C -22.448163986206055 383.186279296875 -14.410284042358398 375.0893859863281 -9.033617973327637 370.46234130859375 C -8.431927680969238 334.0234375 -7.673819065093994 331.3101806640625 -5.852112293243408 330.836669921875 C -2.538506269454956 355.6883544921875 -1.1815555095672607 363.2511901855469 17.837600708007812 360.8177795410156" stroke-width="0.0" fill="rgb(76, 140, 215)" opacity="0.93314123" stroke="rgb(107, 44, 107)" stroke-opacity="0.2768517" stroke-linecap="round" stroke-linejoin="round"/>
    <path d="M 136.33566284179688 217.5696563720703 C 133.35963439941406 242.6572723388672 145.7041778564453 230.4560089111328 108.43096160888672 245.30088806152344 C 108.08847045898438 251.34991455078125 108.58515930175781 245.87112426757812 110.22600555419922 213.00938415527344 C 110.53595733642578 205.6005859375 114.2735366821289 194.88356018066406 126.22577667236328 192.21231079101562 C 132.96902465820312 191.7588653564453 139.20111083984375 194.878662109375 136.33566284179688 217.5696563720703" stroke-width="0.0" fill="rgb(5, 21, 64)" opacity="0.9133137" stroke="rgb(199, 144, 127)" stroke-opacity="0.45290878" stroke-linecap="round" stroke-linejoin="round"/>
    <path d="M 521.5604248046875 371.0506896972656 C 524.6293334960938 420.0722351074219 532.9722290039062 427.97393798828125 499.89898681640625 426.05828857421875 C 499.72625732421875 427.8543701171875 499.9009704589844 425.466796875 495.5791015625 390.6780700683594 C 494.1832580566406 367.656494140625 489.8193664550781 361.9259338378906 494.92352294921875 348.8041687011719 C 535.2374877929688 350.8933410644531 526.013671875 360.304443359375 521.5604248046875 371.0506896972656" stroke-width="0.0" fill="rgb(77, 139, 214)" opacity="0.9894138" stroke="rgb(244, 1, 199)" stroke-opacity="0.43880835" stroke-linecap="round" stroke-linejoin="round"/>
    <path d="M 487.9378662109375 357.57232666015625 C 488.458740234375 364.3046569824219 488.70245361328125 366.3258056640625 485.5804443359375 359.6367492675781 C 479.75982666015625 356.11785888671875 482.5594787597656 366.9102478027344 478.36944580078125 329.4519958496094 C 479.109619140625 329.331298828125 474.76348876953125 312.8647766113281 481.2381591796875 315.050537109375 C 484.6468200683594 315.67681884765625 484.18994140625 323.8472900390625 487.9378662109375 357.57232666015625" stroke-width="0.0" fill="rgb(26, 35, 69)" opacity="1.0" stroke="rgb(9, 201, 83)" stroke-opacity="0.8417888" stroke-linecap="round" stroke-linejoin="round"/>
    <path d="M 24.879623413085938 316.72747802734375 C 19.817262649536133 367.422119140625 22.6937313079834 353.512451171875 17.489377975463867 360.9784851074219 C -13.457136154174805 363.5298156738281 -6.127236843109131 348.6145324707031 -9.148232460021973 319.0837707519531 C -14.560404777526855 307.44036865234375 -16.659488677978516 303.38934326171875 29.492538452148438 292.3152770996094 C 22.580106735229492 291.9678039550781 19.515289306640625 310.0306091308594 24.879623413085938 316.72747802734375" stroke-width="0.0" fill="rgb(7, 119, 238)" opacity="0.67616093" stroke="rgb(231, 33, 77)" stroke-opacity="0.60683495" stroke-linecap="round" stroke-linejoin="round"/>
    <path d="M 342.68218994140625 317.7117004394531 C 339.2486877441406 320.1685791015625 357.7577819824219 319.09124755859375 307.86529541015625 321.0461730957031 C 313.77239990234375 316.8376159667969 314.7579040527344 324.5538024902344 311.3332214355469 250.22308349609375 C 332.762939453125 270.44927978515625 328.41400146484375 255.0492401123047 327.3996276855469 302.8309326171875 C 353.98321533203125 306.671142578125 335.3257751464844 291.82177734375 342.68218994140625 317.7117004394531" stroke-width="0.0" fill="rgb(201, 117, 95)" opacity="0.7965116" stroke="rgb(99, 212, 68)" stroke-opacity="0.5680819" stroke-linecap="round" stroke-linejoin="round"/>
    <path d="M 215.6035614013672 104.16556549072266 C 220.87576293945312 132.2035369873047 239.85362243652344 132.8981475830078 188.04139709472656 125.7142105102539 C 185.74993896484375 128.7419891357422 208.20777893066406 130.12936401367188 198.22293090820312 121.22382354736328 C 185.73988342285156 87.8301010131836 174.76138305664062 79.1707992553711 200.0427703857422 71.0586929321289 C 209.21697998046875 75.47649383544922 204.63450622558594 72.05825805664062 215.6035614013672 104.16556549072266" stroke-width="0.0" fill="rgb(24, 35, 73)" opacity="0.9675217" stroke="rgb(237, 53, 24)" stroke-opacity="0.7763699" stroke-linecap="round" stroke-linejoin="round"/>
    <path d="M 205.238525390625 89.45465087890625 C 219.96974182128906 146.5696258544922 225.81326293945312 122.6723403930664 186.9018096923828 136.85047912597656 C 186.2901611328125 87.61510467529297 190.16278076171875 89.11782836914062 179.22518920898438 88.53594207763672 C 176.93711853027344 66.198974609375 182.34523010253906 74.27645874023438 187.31358337402344 66.11248779296875 C 203.8741455078125 72.38888549804688 196.35044860839844 64.54142761230469 205.238525390625 89.45465087890625" stroke-width="0.0" fill="rgb(247, 163, 129)" opacity="0.9854103" stroke="rgb(139, 163, 202)" stroke-opacity="0.27816427" stroke-linecap="round" stroke-linejoin="round"/>
    <path d="M 26.542112350463867 279.7776184082031 C 34.27488708496094 288.1263427734375 30.803571701049805 304.43115234375 25.203752517700195 293.9540710449219 C -7.300962448120117 301.214111328125 -7.195497512817383 309.5273132324219 -10.06100082397461 286.05908203125 C 0.557337760925293 269.5404357910156 10.436856269836426 279.6261291503906 13.153399467468262 277.69012451171875 C 29.225849151611328 277.2982177734375 28.481327056884766 275.6883239746094 26.542112350463867 279.7776184082031" stroke-width="0.0" fill="rgb(254, 255, 244)" opacity="0.39905354" stroke="rgb(254, 220, 117)" stroke-opacity="0.03882541" stroke-linecap="round" stroke-linejoin="round"/>
    <path d="M 29.690237045288086 285.68927001953125 C 23.215360641479492 285.8140869140625 25.898483276367188 281.7199401855469 28.18796730041504 284.4089660644531 C 19.16689109802246 285.1697082519531 16.0166015625 282.4961242675781 10.744400978088379 282.58648681640625 C 28.231351852416992 273.72357177734375 23.933374404907227 275.4280700683594 36.75339126586914 234.26695251464844 C 49.26415252685547 196.7693634033203 60.547874450683594 282.4770202636719 29.690237045288086 285.68927001953125" stroke-width="0.0" fill="rgb(252, 111, 72)" opacity="0.3269861" stroke="rgb(14, 213, 191)" stroke-opacity="0.38141048" stroke-linecap="round" stroke-linejoin="round"/>
    <path d="M 340.4501953125 304.3979187011719 C 342.5918884277344 327.6888427734375 352.5362243652344 316.6517333984375 305.4800109863281 320.9903869628906 C 298.5401916503906 320.22412109375 302.2373046875 325.47442626953125 296.17974853515625 309.03021240234375 C 294.15362548828125 298.1796875 290.6622619628906 304.8635559082031 297.8982238769531 304.4917907714844 C 328.6550598144531 302.28436279296875 330.99090576171875 304.98291015625 340.4501953125 304.3979187011719" stroke-width="0.0" fill="rgb(206, 114, 87)" opacity="0.9747089" stroke="rgb(208, 121, 49)" stroke-opacity="0.5646735" stroke-linecap="round" stroke-linejoin="round"/>
    <path d="M 187.4527130126953 84.03668975830078 C 190.07449340820312 99.07466125488281 175.30557250976562 102.73438262939453 177.83096313476562 86.2705078125 C 120.33981323242188 67.08995056152344 130.02200317382812 98.13994598388672 102.91454315185547 89.55279541015625 C 141.75184631347656 67.01543426513672 162.1718292236328 61.17930221557617 184.0000457763672 53.982460021972656 C 190.095947265625 52.77532958984375 184.9765625 52.91954040527344 187.4527130126953 84.03668975830078" stroke-width="0.0" fill="rgb(255, 222, 184)" opacity="0.8589217" stroke="rgb(4, 9, 201)" stroke-opacity="0.6028374" stroke-linecap="round" stroke-linejoin="round"/>
    <path d="M 255.86073303222656 343.3428955078125 C 248.339111328125 343.9934997558594 233.37515258789062 344.06976318359375 224.5371856689453 345.23699951171875 C 180.1802520751953 346.8668212890625 194.20831298828125 348.2934265136719 191.5334930419922 342.4470520019531 C 193.5345916748047 329.9384765625 183.50926208496094 334.7086486816406 216.7265167236328 331.1978454589844 C 253.10719299316406 329.63214111328125 243.277587890625 326.30816650390625 255.86073303222656 343.3428955078125" stroke-width="0.0" fill="rgb(151, 23, 0)" opacity="0.41470322" stroke="rgb(8, 97, 220)" stroke-opacity="0.6937394" stroke-linecap="round" stroke-linejoin="round"/>
    <path d="M 190.09161376953125 221.64500427246094 C 188.469482421875 220.976318359375 189.1346893310547 222.09803771972656 188.90550231933594 227.99668884277344 C 174.99444580078125 227.9496307373047 157.7965087890625 228.12191772460938 165.4153289794922 227.43345642089844 C 166.52203369140625 200.70590209960938 164.51190185546875 183.78598022460938 188.35903930664062 181.73536682128906 C 189.67791748046875 189.164306640625 190.71495056152344 190.31576538085938 190.09161376953125 221.64500427246094" stroke-width="0.0" fill="rgb(211, 255, 255)" opacity="0.31606025" stroke="rgb(194, 164, 166)" stroke-opacity="0.49365634" stroke-linecap="round" stroke-linejoin="round"/>
    <path d="M 251.77403259277344 209.57083129882812 C 281.74163818359375 209.71096801757812 259.8210754394531 209.44216918945312 243.7052764892578 212.92410278320312 C 243.13612365722656 213.01234436035156 238.99734497070312 190.5667266845703 243.36239624023438 213.79434204101562 C 231.1548309326172 164.9757537841797 228.47743225097656 186.0425262451172 230.93882751464844 128.66119384765625 C 250.191650390625 142.21243286132812 223.64837646484375 137.81784057617188 251.77403259277344 209.57083129882812" stroke-width="0.0" fill="rgb(23, 34, 72)" opacity="0.933307" stroke="rgb(165, 221, 230)" stroke-opacity="0.56447685" stroke-linecap="round" stroke-linejoin="round"/>
    <path d="M 31.983722686767578 255.45542907714844 C 29.481407165527344 293.97637939453125 30.73383140563965 296.8833312988281 7.547672748565674 293.7721862792969 C 0.31510308384895325 287.2287292480469 2.5727808475494385 282.86529541015625 -3.584461212158203 272.5705261230469 C 2.5584723949432373 267.3271179199219 9.008451461791992 262.543212890625 17.766956329345703 258.9537658691406 C 29.9014892578125 254.00723266601562 34.68520736694336 255.3358917236328 31.983722686767578 255.45542907714844" stroke-width="0.0" fill="rgb(243, 232, 212)" opacity="0.9392344" stroke="rgb(4, 156, 104)" stroke-opacity="0.21148299" stroke-linecap="round" stroke-linejoin="round"/>
    <path d="M 259.8834533691406 225.94732666015625 C 238.55982971191406 243.02027893066406 239.87876892089844 241.5474090576172 218.2317352294922 243.7911376953125 C 184.1555633544922 245.50624084472656 194.7893524169922 251.46408081054688 192.66943359375 234.90377807617188 C 199.8990936279297 233.3115234375 215.33316040039062 230.80189514160156 228.1144256591797 229.2722625732422 C 233.09092712402344 228.89390563964844 251.10484313964844 225.9782257080078 259.8834533691406 225.94732666015625" stroke-width="0.0" fill="rgb(154, 45, 20)" opacity="0.38633078" stroke="rgb(47, 56, 51)" stroke-opacity="0.59642667" stroke-linecap="round" stroke-linejoin="round"/>
    <path d="M 268.522216796875 232.941162109375 C 257.45037841796875 241.2049102783203 255.36878967285156 240.38768005371094 239.3330535888672 239.65618896484375 C 230.7564239501953 240.6844482421875 227.96728515625 244.02149963378906 213.04824829101562 231.81736755371094 C 228.8640594482422 229.29788208007812 235.7484893798828 229.2687530517578 253.92442321777344 226.53330993652344 C 267.3032531738281 224.77293395996094 269.2608642578125 222.76901245117188 268.522216796875 232.941162109375" stroke-width="0.0" fill="rgb(209, 125, 93)" opacity="0.31122035" stroke="rgb(47, 217, 249)" stroke-opacity="0.59687734" stroke-linecap="round" stroke-linejoin="round"/>
    <path d="M 493.1376037597656 369.03375244140625 C 462.500732421875 376.0680847167969 500.87615966796875 336.8709716796875 496.4036560058594 426.2772216796875 C 445.9875793457031 420.913330078125 462.81292724609375 444.65594482421875 431.5245361328125 368.3869323730469 C 531.7098388671875 366.3499755859375 465.5480041503906 370.2776794433594 487.4668884277344 359.677734375 C 485.53302001953125 287.8122253417969 490.7571716308594 346.4279479980469 493.1376037597656 369.03375244140625" stroke-width="0.0" fill="rgb(188, 96, 76)" opacity="0.8958922" stroke="rgb(144, 129, 208)" stroke-opacity="0.29355803" stroke-linecap="round" stroke-linejoin="round"/>
    <path d="M 407.4954528808594 290.98345947265625 C 406.119140625 330.7171936035156 416.2402038574219 320.7742614746094 393.3372497558594 322.2001647949219 C 393.8665466308594 324.53131103515625 391.5913391113281 318.310791015625 381.10693359375 287.6749572753906 C 377.3731689453125 268.8888854980469 372.7698059082031 279.6806640625 377.50274658203125 251.92764282226562 C 468.1558532714844 248.19859313964844 442.3134765625 296.4048767089844 407.4954528808594 290.98345947265625" stroke-width="0.0" fill="rgb(203, 121, 98)" opacity="0.86985767" stroke="rgb(56, 12, 29)" stroke-opacity="0.6717961" stroke-linecap="round" stroke-linejoin="round"/>
    <path d="M 277.48297119140625 239.705078125 C 278.79327392578125 236.24159240722656 276.36834716796875 238.16477966308594 275.4495849609375 237.89273071289062 C 266.63665771484375 238.07208251953125 252.043212890625 239.36654663085938 245.2732391357422 239.9134063720703 C 255.99684143066406 224.741455078125 255.59043884277344 226.109619140625 276.9228210449219 224.68197631835938 C 278.0321960449219 221.85845947265625 276.7630615234375 218.34861755371094 277.48297119140625 239.705078125" stroke-width="0.0" fill="rgb(201, 101, 73)" opacity="0.7576048" stroke="rgb(94, 5, 1)" stroke-opacity="0.41090542" stroke-linecap="round" stroke-linejoin="round"/>
    <path d="M 289.8836975097656 338.3911437988281 C 286.8025207519531 338.6715087890625 283.8908386230469 340.40338134765625 251.6963653564453 336.22027587890625 C 247.55262756347656 344.30181884765625 272.74737548828125 361.0362854003906 205.7040252685547 358.1080322265625 C 209.36302185058594 319.3486633300781 248.04200744628906 333.5539855957031 270.1529541015625 327.7357482910156 C 222.16722106933594 331.7392272949219 265.05303955078125 341.3188781738281 289.8836975097656 338.3911437988281" stroke-width="0.0" fill="rgb(240, 112, 74)" opacity="0.32731673" stroke="rgb(95, 207, 85)" stroke-opacity="0.75276405" stroke-linecap="round" stroke-linejoin="round"/>
    <path d="M 164.32740783691406 178.02975463867188 C 157.95974731445312 188.2566375732422 154.68182373046875 179.06602478027344 153.3504180908203 230.6561279296875 C 88.43313598632812 239.20069885253906 164.99362182617188 192.79319763183594 122.79700469970703 192.58355712890625 C 121.209716796875 162.322021484375 144.1847381591797 169.06304931640625 154.20664978027344 162.47219848632812 C 163.05601501464844 157.27032470703125 160.37100219726562 159.22079467773438 164.32740783691406 178.02975463867188" stroke-width="0.0" fill="rgb(251, 129, 92)" opacity="0.44276193" stroke="rgb(155, 240, 147)" stroke-opacity="0.78890055" stroke-linecap="round" stroke-linejoin="round"/>
    <path d="M 445.8428955078125 285.1802673339844 C 445.99493408203125 298.3177185058594 453.21197509765625 296.68646240234375 444.1327819824219 292.4557189941406 C 431.92596435546875 286.49432373046875 434.0858154296875 289.4857482910156 433.98150634765625 288.3163146972656 C 431.4439697265625 272.6595458984375 435.0274353027344 270.8970947265625 437.38519287109375 270.6489562988281 C 442.46673583984375 271.1627197265625 446.1125793457031 276.3833923339844 445.8428955078125 285.1802673339844" stroke-width="0.0" fill="rgb(17, 29, 68)" opacity="0.9449062" stroke="rgb(113, 80, 57)" stroke-opacity="0.75863343" stroke-linecap="round" stroke-linejoin="round"/>
    <path d="M 57.174598693847656 311.425537109375 C 54.59527587890625 348.7818908691406 55.51445388793945 340.8619689941406 53.61039352416992 342.5051574707031 C 34.739566802978516 349.0028381347656 43.372676849365234 346.94256591796875 41.536258697509766 346.4368896484375 C 44.85342788696289 312.7229919433594 42.43511962890625 303.7095031738281 53.78022384643555 301.45361328125 C 47.46784210205078 303.5238342285156 57.78428268432617 298.451904296875 57.174598693847656 311.425537109375" stroke-width="0.0" fill="rgb(2, 18, 61)" opacity="0.89897656" stroke="rgb(13, 160, 32)" stroke-opacity="0.65375465" stroke-linecap="round" stroke-linejoin="round"/>
    <path d="M 476.54473876953125 336.91522216796875 C 454.9055480957031 328.0661926269531 456.247314453125 323.05218505859375 461.3697509765625 317.1784973144531 C 440.8355407714844 316.8251647949219 453.99078369140625 315.59698486328125 444.75811767578125 300.94708251953125 C 427.6686096191406 286.4657897949219 443.63189697265625 344.9218444824219 415.6099548339844 285.15936279296875 C 507.4529113769531 307.5267028808594 478.591064453125 276.4068298339844 476.54473876953125 336.91522216796875" stroke-width="0.0" fill="rgb(223, 148, 121)" opacity="0.83617586" stroke="rgb(68, 121, 14)" stroke-opacity="0.45671922" stroke-linecap="round" stroke-linejoin="round"/>
    <path d="M 133.5487823486328 210.6863555908203 C 135.52703857421875 224.2837677001953 136.3521270751953 232.20960998535156 129.9346466064453 225.14271545410156 C 126.2330551147461 227.8048858642578 127.36994171142578 221.85516357421875 122.33415985107422 219.03199768066406 C 124.60964965820312 214.77809143066406 128.35572814941406 214.7821502685547 135.46246337890625 205.60797119140625 C 133.44656372070312 205.4129638671875 134.70779418945312 208.5229949951172 133.5487823486328 210.6863555908203" stroke-width="0.0" fill="rgb(95, 140, 198)" opacity="0.8856152" stroke="rgb(127, 49, 23)" stroke-opacity="0.8557793" stroke-linecap="round" stroke-linejoin="round"/>
    <path d="M 459.10845947265625 407.0391845703125 C 460.85125732421875 432.6781005859375 463.0348205566406 424.6361083984375 455.2119445800781 425.8963928222656 C 449.9430236816406 414.7354736328125 448.7689208984375 408.780517578125 443.2474670410156 398.0042724609375 C 442.91082763671875 384.5458984375 440.5886535644531 384.6698303222656 454.45843505859375 380.5335998535156 C 457.81463623046875 387.358642578125 456.9423522949219 396.8672180175781 459.10845947265625 407.0391845703125" stroke-width="0.0" fill="rgb(12, 27, 67)" opacity="0.91969216" stroke="rgb(188, 198, 197)" stroke-opacity="0.66243464" stroke-linecap="round" stroke-linejoin="round"/>
    <path d="M 230.71368408203125 148.8798828125 C 229.7145233154297 155.5428009033203 235.2617950439453 151.66983032226562 218.52456665039062 155.11598205566406 C 212.44390869140625 152.46929931640625 216.90725708007812 152.3047332763672 207.39329528808594 146.83203125 C 214.104736328125 145.62701416015625 223.08314514160156 143.36758422851562 230.60458374023438 142.70179748535156 C 230.85830688476562 144.91697692871094 230.2346954345703 137.37457275390625 230.71368408203125 148.8798828125" stroke-width="0.0" fill="rgb(152, 44, 31)" opacity="0.4067612" stroke="rgb(36, 208, 209)" stroke-opacity="0.17372076" stroke-linecap="round" stroke-linejoin="round"/>
    <path d="M 476.96624755859375 416.3290710449219 C 481.2336120605469 411.07440185546875 480.85174560546875 411.8997802734375 470.02728271484375 426.2243957519531 C 469.887451171875 424.06634521484375 468.3171691894531 407.04571533203125 467.88427734375 404.4167785644531 C 466.8412780761719 392.25146484375 464.4534912109375 375.73260498046875 466.8406982421875 382.9793395996094 C 475.36102294921875 385.28216552734375 475.2323303222656 390.75494384765625 476.96624755859375 416.3290710449219" stroke-width="0.0" fill="rgb(77, 50, 65)" opacity="0.7731312" stroke="rgb(232, 128, 120)" stroke-opacity="0.57203245" stroke-linecap="round" stroke-linejoin="round"/>
    <path d="M 394.7182312011719 307.4521484375 C 395.4129638671875 325.2608947753906 396.46923828125 321.3349609375 393.1655578613281 322.0302429199219 C 386.9904479980469 304.26068115234375 384.32550048828125 296.9591979980469 385.38763427734375 299.0126647949219 C 382.2640075683594 291.8251037597656 380.7862243652344 287.5071716308594 380.87481689453125 286.7644348144531 C 391.9905700683594 287.908447265625 394.8779296875 297.58074951171875 394.7182312011719 307.4521484375" stroke-width="0.0" fill="rgb(0, 20, 62)" opacity="0.8734588" stroke="rgb(211, 244, 150)" stroke-opacity="0.5539255" stroke-linecap="round" stroke-linejoin="round"/>
    <path d="M 461.83721923828125 303.6864013671875 C 467.7142639160156 329.34832763671875 471.3323974609375 330.38720703125 459.7420654296875 327.75775146484375 C 449.4792785644531 323.3409118652344 450.1763000488281 326.2578125 449.78887939453125 322.4895324707031 C 449.27191162109375 315.991455078125 446.2606201171875 316.7442321777344 462.2046203613281 320.22845458984375 C 438.5242004394531 313.1290588378906 450.333251953125 302.4696044921875 461.83721923828125 303.6864013671875" stroke-width="0.0" fill="rgb(217, 146, 120)" opacity="0.9746798" stroke="rgb(148, 229, 59)" stroke-opacity="0.9268296" stroke-linecap="round" stroke-linejoin="round"/>
    <path d="M 495.1838684082031 412.62225341796875 C 496.1661376953125 430.8697204589844 499.68060302734375 424.89923095703125 487.9216613769531 426.09588623046875 C 486.26751708984375 410.3302917480469 485.0411376953125 396.20281982421875 484.0699462890625 391.63311767578125 C 485.7712707519531 400.595947265625 481.4244689941406 391.19720458984375 486.7842712402344 385.3156433105469 C 494.0950927734375 384.9024658203125 492.41363525390625 391.3167724609375 495.1838684082031 412.62225341796875" stroke-width="0.0" fill="rgb(21, 32, 70)" opacity="0.9593748" stroke="rgb(76, 250, 153)" stroke-opacity="0.74200004" stroke-linecap="round" stroke-linejoin="round"/>
    <path d="M 465.3053894042969 330.2601623535156 C 466.54364013671875 342.1742858886719 469.8849182128906 338.3106384277344 452.6220703125 335.072998046875 C 452.2240295410156 348.1168518066406 455.8826904296875 330.7530212402344 450.7911071777344 335.2895812988281 C 449.9583740234375 322.9522399902344 449.8030700683594 329.1325378417969 454.77655029296875 328.5306701660156 C 456.5869445800781 329.9591064453125 464.9871826171875 330.2231750488281 465.3053894042969 330.2601623535156" stroke-width="0.0" fill="rgb(215, 143, 119)" opacity="1.0" stroke="rgb(247, 55, 254)" stroke-opacity="0.5301998" stroke-linecap="round" stroke-linejoin="round"/>
    <path d="M 450.4240417480469 388.3457336425781 C 457.38763427734375 403.2147216796875 456.2650451660156 403.4585266113281 447.0226135253906 404.3548889160156 C 441.06805419921875 392.9871520996094 439.0052795410156 386.2957458496094 437.15411376953125 381.3564758300781 C 433.2358703613281 373.04156494140625 435.486328125 376.62457275390625 435.5589294433594 376.2690734863281 C 456.81329345703125 377.6607360839844 457.1429443359375 378.98968505859375 450.4240417480469 388.3457336425781" stroke-width="0.0" fill="rgb(25, 30, 64)" opacity="0.97193676" stroke="rgb(71, 144, 48)" stroke-opacity="0.3417758" stroke-linecap="round" stroke-linejoin="round"/>
    <path d="M 217.3689727783203 155.28477478027344 C 207.470947265625 157.4552764892578 206.3894500732422 157.33697509765625 197.6946563720703 159.33221435546875 C 186.392578125 161.6423797607422 188.23643493652344 161.4080810546875 168.1555633544922 156.71658325195312 C 181.9383087158203 152.8714141845703 189.35952758789062 150.6884002685547 203.69386291503906 147.81141662597656 C 214.7125244140625 145.28562927246094 213.51280212402344 150.03955078125 217.3689727783203 155.28477478027344" stroke-width="0.0" fill="rgb(163, 26, 0)" opacity="0.23910785" stroke="rgb(245, 193, 116)" stroke-opacity="0.4191503" stroke-linecap="round" stroke-linejoin="round"/>
    <path d="M 366.7817687988281 231.52879333496094 C 375.6205749511719 233.67303466796875 375.4685363769531 229.18955993652344 375.1243591308594 237.24049377441406 C 359.658447265625 235.7920379638672 359.99078369140625 236.38340759277344 360.1669616699219 233.37158203125 C 345.7198181152344 218.62440490722656 340.86688232421875 216.07467651367188 350.4669189453125 219.21116638183594 C 370.7411804199219 222.96078491210938 365.7078552246094 215.45828247070312 366.7817687988281 231.52879333496094" stroke-width="0.0" fill="rgb(255, 207, 159)" opacity="0.8647216" stroke="rgb(244, 132, 124)" stroke-opacity="0.730493" stroke-linecap="round" stroke-linejoin="round"/>
    <path d="M 456.9503479003906 386.3173522949219 C 459.3215637207031 408.13641357421875 460.4088439941406 410.1478576660156 452.0505676269531 409.4397277832031 C 445.44464111328125 401.0342102050781 442.3899841308594 392.65484619140625 439.5746154785156 383.43218994140625 C 435.8296813964844 377.6962890625 434.5932922363281 376.9994201660156 445.437744140625 378.1078186035156 C 455.4902038574219 376.64898681640625 453.9438171386719 377.55462646484375 456.9503479003906 386.3173522949219" stroke-width="0.0" fill="rgb(21, 36, 77)" opacity="0.53238416" stroke="rgb(170, 185, 134)" stroke-opacity="0.8469828" stroke-linecap="round" stroke-linejoin="round"/>
    <path d="M 471.2886047363281 346.99530029296875 C 469.7679138183594 347.4464111328125 474.15216064453125 347.9455871582031 462.5356140136719 349.6595764160156 C 462.55224609375 353.3943786621094 462.0402526855469 343.82012939453125 459.4293518066406 321.86993408203125 C 459.8244323730469 312.1366882324219 458.358154296875 315.00640869140625 468.7188415527344 314.0427551269531 C 469.0572509765625 315.5369567871094 472.61273193359375 333.4016418457031 471.2886047363281 346.99530029296875" stroke-width="0.0" fill="rgb(79, 60, 77)" opacity="0.6935261" stroke="rgb(115, 15, 117)" stroke-opacity="0.31487253" stroke-linecap="round" stroke-linejoin="round"/>
    <path d="M 130.49249267578125 222.4209747314453 C 126.97838592529297 229.1466522216797 123.07239532470703 236.8824462890625 126.37247467041016 231.28955078125 C 127.18782043457031 230.0887451171875 126.80106353759766 226.7567138671875 126.40596008300781 225.02041625976562 C 124.62359619140625 235.61386108398438 123.98116302490234 229.86968994140625 126.28142547607422 215.5682373046875 C 132.166259765625 220.98094177246094 134.10568237304688 222.87567138671875 130.49249267578125 222.4209747314453" stroke-width="0.0" fill="rgb(59, 119, 193)" opacity="0.9245223" stroke="rgb(48, 205, 30)" stroke-opacity="0.257079" stroke-linecap="round" stroke-linejoin="round"/>
    <path d="M 458.8033447265625 331.1322937011719 C 462.89202880859375 340.64788818359375 461.8580627441406 351.99273681640625 463.602294921875 358.7444763183594 C 458.73370361328125 342.8543395996094 457.7522888183594 348.79632568359375 458.1653747558594 343.8983459472656 C 454.51513671875 339.4106750488281 454.69317626953125 340.1592712402344 461.5740661621094 340.7965393066406 C 458.8803405761719 336.97308349609375 462.302490234375 337.5368957519531 458.8033447265625 331.1322937011719" stroke-width="0.0" fill="rgb(248, 181, 150)" opacity="0.63796574" stroke="rgb(132, 48, 86)" stroke-opacity="0.14769359" stroke-linecap="round" stroke-linejoin="round"/>
    <path d="M 485.5900573730469 402.85809326171875 C 483.1404113769531 426.4437561035156 492.7266540527344 428.9991149902344 475.235107421875 423.22149658203125 C 472.9129638671875 399.7724609375 478.64739990234375 396.11895751953125 481.2547302246094 388.6466369628906 C 474.5757141113281 400.20428466796875 460.767822265625 396.8453674316406 452.1880187988281 369.3010559082031 C 494.443359375 367.8333740234375 482.1552429199219 373.4351806640625 485.5900573730469 402.85809326171875" stroke-width="0.0" fill="rgb(178, 87, 68)" opacity="0.56775963" stroke="rgb(3, 42, 177)" stroke-opacity="0.32385513" stroke-linecap="round" stroke-linejoin="round"/>
    <path d="M 125.57855224609375 226.9961700439453 C 124.59960174560547 231.71116638183594 123.81990051269531 233.8796844482422 122.3838882446289 233.31045532226562 C 124.00790405273438 232.56088256835938 123.15621185302734 239.2163848876953 121.48828887939453 240.6749267578125 C 122.63406372070312 223.1166534423828 123.01428985595703 211.84242248535156 123.22185516357422 214.87863159179688 C 132.01315307617188 225.7106170654297 133.35548400878906 230.7322540283203 125.57855224609375 226.9961700439453" stroke-width="0.0" fill="rgb(92, 130, 170)" opacity="0.78917176" stroke="rgb(120, 11, 96)" stroke-opacity="0.37457147" stroke-linecap="round" stroke-linejoin="round"/>
    <path d="M 136.6768798828125 201.11666870117188 C 137.47689819335938 213.09652709960938 136.90328979492188 221.29873657226562 122.36769104003906 223.75086975097656 C 122.86416625976562 214.7826385498047 126.27125549316406 203.27647399902344 132.0600128173828 199.5828857421875 C 128.29420471191406 202.95103454589844 131.69970703125 198.9891357421875 129.81585693359375 201.30307006835938 C 131.8470001220703 198.8951873779297 137.3341827392578 193.74615478515625 136.6768798828125 201.11666870117188" stroke-width="0.0" fill="rgb(108, 147, 191)" opacity="0.8261154" stroke="rgb(237, 229, 40)" stroke-opacity="0.020723224" stroke-linecap="round" stroke-linejoin="round"/>
    <path d="M 479.560546875 415.3583068847656 C 481.1846923828125 430.37615966796875 482.21624755859375 424.6147155761719 472.87347412109375 426.0661315917969 C 470.62847900390625 424.4190673828125 471.099853515625 429.94580078125 469.99432373046875 418.92462158203125 C 467.5329284667969 393.8497009277344 466.8787841796875 395.28887939453125 475.6751403808594 395.20367431640625 C 477.5171813964844 390.3153991699219 478.13421630859375 399.61810302734375 479.560546875 415.3583068847656" stroke-width="0.0" fill="rgb(23, 33, 71)" opacity="0.97528005" stroke="rgb(6, 200, 131)" stroke-opacity="0.49378327" stroke-linecap="round" stroke-linejoin="round"/>
    <path d="M 136.07022094726562 211.33355712890625 C 136.52249145507812 222.06910705566406 138.09793090820312 228.0791473388672 129.47772216796875 229.89317321777344 C 122.18728637695312 225.01406860351562 126.15498352050781 215.51683044433594 125.69071197509766 209.8197021484375 C 123.78848266601562 213.46005249023438 127.33350372314453 211.2130126953125 130.667236328125 206.61212158203125 C 134.02325439453125 195.60195922851562 137.05923461914062 200.14498901367188 136.07022094726562 211.33355712890625" stroke-width="0.0" fill="rgb(93, 134, 184)" opacity="0.9167258" stroke="rgb(223, 194, 187)" stroke-opacity="0.46662953" stroke-linecap="round" stroke-linejoin="round"/>
    <path d="M 212.70501708984375 148.5101318359375 C 209.9897003173828 146.49752807617188 210.41717529296875 146.4144744873047 221.80252075195312 150.70208740234375 C 218.81375122070312 150.91537475585938 218.86871337890625 147.7783203125 206.1909637451172 148.09100341796875 C 209.3533935546875 153.66757202148438 208.36398315429688 154.6072998046875 205.30984497070312 150.50575256347656 C 216.640380859375 154.63772583007812 224.27784729003906 156.041015625 212.70501708984375 148.5101318359375" stroke-width="0.0" fill="rgb(220, 146, 121)" opacity="0.8883088" stroke="rgb(148, 154, 178)" stroke-opacity="0.15411158" stroke-linecap="round" stroke-linejoin="round"/>
    <path d="M 135.19857788085938 234.30606079101562 C 153.5753173828125 231.7573699951172 163.51882934570312 237.70986938476562 144.4944305419922 246.25173950195312 C 117.75687408447266 251.9493865966797 122.05203247070312 258.92828369140625 122.30378723144531 229.78848266601562 C 123.56224060058594 221.6756591796875 124.72618865966797 225.4603729248047 135.93533325195312 226.89767456054688 C 136.21693420410156 222.935791015625 136.40518188476562 218.28021240234375 135.19857788085938 234.30606079101562" stroke-width="0.0" fill="rgb(255, 255, 247)" opacity="0.4890555" stroke="rgb(145, 89, 39)" stroke-opacity="0.4691223" stroke-linecap="round" stroke-linejoin="round"/>
    <path d="M 469.682861328125 322.3688659667969 C 468.8742980957031 331.1114196777344 468.0462341308594 336.07830810546875 468.0592041015625 335.31585693359375 C 461.6783447265625 334.7586364746094 461.0770263671875 334.35614013671875 460.3052978515625 323.85772705078125 C 457.4839172363281 306.5158996582031 460.9427185058594 305.6272888183594 462.71630859375 305.2613220214844 C 466.7404479980469 305.44189453125 469.4213562011719 310.8047180175781 469.682861328125 322.3688659667969" stroke-width="0.0" fill="rgb(23, 33, 70)" opacity="0.9796665" stroke="rgb(204, 80, 234)" stroke-opacity="0.41273805" stroke-linecap="round" stroke-linejoin="round"/>
    <path d="M 122.0845947265625 192.50845336914062 C 99.00455474853516 209.7705535888672 125.65546417236328 229.6430206298828 87.58708190917969 210.73825073242188 C 102.65492248535156 195.36936950683594 76.84465789794922 209.06813049316406 76.53563690185547 197.3179931640625 C 82.74442291259766 193.13584899902344 87.21249389648438 190.61175537109375 96.61830139160156 185.5305633544922 C 123.14556884765625 174.2769317626953 127.35584259033203 164.727294921875 122.0845947265625 192.50845336914062" stroke-width="0.0" fill="rgb(252, 107, 68)" opacity="0.31079373" stroke="rgb(248, 244, 134)" stroke-opacity="0.9396901" stroke-linecap="round" stroke-linejoin="round"/>
    <path d="M 474.20733642578125 355.9497985839844 C 498.6659240722656 362.84619140625 491.32427978515625 357.5245361328125 494.07623291015625 375.9659729003906 C 452.3532409667969 366.5647277832031 458.3605041503906 371.45941162109375 464.0893249511719 362.1440124511719 C 473.4624328613281 357.2864990234375 479.4416198730469 352.50213623046875 463.8443298339844 352.243408203125 C 460.0611877441406 361.3054504394531 467.063720703125 362.656005859375 474.20733642578125 355.9497985839844" stroke-width="0.0" fill="rgb(219, 147, 121)" opacity="0.9212498" stroke="rgb(200, 141, 249)" stroke-opacity="0.1746391" stroke-linecap="round" stroke-linejoin="round"/>
    <path d="M 448.29742431640625 236.31625366210938 C 438.4677734375 281.8647155761719 379.5928955078125 248.0874786376953 366.5480651855469 221.489501953125 C 339.0968933105469 217.72235107421875 346.80279541015625 224.65341186523438 345.4851989746094 207.849609375 C 343.45697021484375 205.96896362304688 371.69818115234375 209.95094299316406 358.23455810546875 208.87521362304688 C 341.2484130859375 209.53555297851562 379.51336669921875 203.16729736328125 448.29742431640625 236.31625366210938" stroke-width="0.0" fill="rgb(184, 92, 72)" opacity="0.97962296" stroke="rgb(15, 222, 74)" stroke-opacity="0.4046162" stroke-linecap="round" stroke-linejoin="round"/>
    <path d="M 132.20687866210938 222.2452392578125 C 130.91604614257812 221.54518127441406 131.068603515625 225.72406005859375 135.96917724609375 233.7362060546875 C 136.740966796875 222.97421264648438 136.272705078125 208.87782287597656 132.3704376220703 223.34136962890625 C 131.9479522705078 221.63522338867188 129.4708251953125 219.12852478027344 127.48524475097656 229.80386352539062 C 130.39666748046875 231.9185028076172 133.86105346679688 234.38677978515625 132.20687866210938 222.2452392578125" stroke-width="0.0" fill="rgb(86, 133, 181)" opacity="0.91761583" stroke="rgb(229, 198, 79)" stroke-opacity="0.3963579" stroke-linecap="round" stroke-linejoin="round"/>
    <path d="M 136.490478515625 223.05465698242188 C 136.6493682861328 239.7110595703125 138.69378662109375 234.5015411376953 132.33309936523438 237.29336547851562 C 119.7377700805664 240.60865783691406 121.80084991455078 243.53903198242188 122.44865417480469 229.2718048095703 C 121.94393920898438 217.81251525878906 123.88275909423828 203.42559814453125 134.847900390625 197.388916015625 C 135.73370361328125 197.05703735351562 137.9396514892578 201.00360107421875 136.490478515625 223.05465698242188" stroke-width="0.0" fill="rgb(66, 143, 234)" opacity="0.57733524" stroke="rgb(43, 182, 46)" stroke-opacity="0.3995207" stroke-linecap="round" stroke-linejoin="round"/>
    <path d="M 477.41180419921875 393.3990173339844 C 478.20703125 409.8637390136719 480.7398376464844 407.3885803222656 468.7959289550781 404.842529296875 C 468.5048522949219 403.7002258300781 466.4627380371094 389.3327941894531 466.2057189941406 380.140380859375 C 466.5015563964844 395.95703125 466.253173828125 378.3040466308594 466.0534973144531 380.5688781738281 C 474.7123718261719 381.5305480957031 475.01409912109375 379.6112976074219 477.41180419921875 393.3990173339844" stroke-width="0.0" fill="rgb(24, 34, 71)" opacity="0.98154855" stroke="rgb(187, 107, 27)" stroke-opacity="0.75373626" stroke-linecap="round" stroke-linejoin="round"/>
    <path d="M 218.13247680664062 147.98167419433594 C 221.2818145751953 154.45608520507812 216.59243774414062 156.46878051757812 208.42494201660156 152.11456298828125 C 211.8160858154297 152.14137268066406 208.41726684570312 151.7581024169922 205.23419189453125 151.62594604492188 C 205.08250427246094 147.31764221191406 209.00624084472656 147.072998046875 211.74452209472656 146.82064819335938 C 209.34613037109375 146.99142456054688 215.17803955078125 146.82882690429688 218.13247680664062 147.98167419433594" stroke-width="0.0" fill="rgb(218, 163, 139)" opacity="0.86554307" stroke="rgb(210, 181, 109)" stroke-opacity="0.5866611" stroke-linecap="round" stroke-linejoin="round"/>
    <path d="M 38.32197570800781 235.64877319335938 C 34.94552230834961 233.15533447265625 40.15177917480469 240.0010223388672 36.0080680847168 224.32315063476562 C 24.981918334960938 248.6819305419922 28.586822509765625 243.8956756591797 35.35095977783203 232.09840393066406 C 34.00596618652344 236.0719757080078 37.71958541870117 227.40225219726562 42.04802703857422 224.02845764160156 C 33.11982345581055 224.2534942626953 36.699459075927734 222.03541564941406 38.32197570800781 235.64877319335938" stroke-width="0.0" fill="rgb(255, 255, 248)" opacity="0.45630115" stroke="rgb(21, 241, 245)" stroke-opacity="0.5161024" stroke-linecap="round" stroke-linejoin="round"/>
    <path d="M 475.6153564453125 426.0186462402344 C 552.2034912109375 422.6128845214844 557.506103515625 444.4998474121094 471.2221984863281 437.604248046875 C 342.7896423339844 433.0621032714844 348.57171630859375 423.0318603515625 441.02886962890625 424.8397521972656 C 468.1304016113281 428.7225341796875 459.9837341308594 424.0433349609375 464.1684875488281 412.8892517089844 C 459.8662414550781 431.1435546875 458.17742919921875 424.1148986816406 475.6153564453125 426.0186462402344" stroke-width="0.0" fill="rgb(125, 169, 44)" opacity="0.42009526" stroke="rgb(245, 201, 84)" stroke-opacity="0.8665577" stroke-linecap="round" stroke-linejoin="round"/>
    <path d="M 224.90135192871094 161.81576538085938 C 270.9812927246094 226.30307006835938 168.146484375 236.78155517578125 193.23570251464844 185.6087646484375 C 161.87486267089844 157.94976806640625 166.18421936035156 198.42599487304688 161.39527893066406 163.07406616210938 C 160.5351104736328 154.42103576660156 171.5008087158203 158.63014221191406 187.87771606445312 155.73265075683594 C 203.78958129882812 168.3483428955078 172.35777282714844 170.86647033691406 224.90135192871094 161.81576538085938" stroke-width="0.0" fill="rgb(255, 84, 41)" opacity="0.24525969" stroke="rgb(48, 127, 35)" stroke-opacity="0.09835244" stroke-linecap="round" stroke-linejoin="round"/>
    <path d="M 85.55901336669922 211.1084442138672 C 64.86270904541016 230.74244689941406 88.43605041503906 261.8673095703125 61.84014892578125 264.8827209472656 C 68.24140167236328 204.4827880859375 55.165863037109375 242.9969482421875 40.993770599365234 231.39776611328125 C 57.11528015136719 206.1670684814453 64.22858428955078 206.39588928222656 68.82548522949219 201.53221130371094 C 77.9837646484375 195.4115447998047 77.64183807373047 196.131591796875 85.55901336669922 211.1084442138672" stroke-width="0.0" fill="rgb(253, 101, 62)" opacity="0.29065782" stroke="rgb(125, 16, 207)" stroke-opacity="0.17725573" stroke-linecap="round" stroke-linejoin="round"/>
    <path d="M 124.81998443603516 219.45591735839844 C 134.6080780029297 229.0163116455078 145.13111877441406 236.35267639160156 122.43927764892578 238.8140411376953 C 122.14492797851562 225.5453338623047 122.8491439819336 213.6842498779297 127.81745910644531 210.36790466308594 C 123.69139099121094 220.79830932617188 125.95677947998047 214.354736328125 128.83395385742188 205.65467834472656 C 133.35586547851562 206.38919067382812 127.54643249511719 214.01620483398438 124.81998443603516 219.45591735839844" stroke-width="0.0" fill="rgb(75, 139, 211)" opacity="0.8978698" stroke="rgb(34, 220, 215)" stroke-opacity="0.11237974" stroke-linecap="round" stroke-linejoin="round"/>
    <path d="M 196.59457397460938 153.09217834472656 C 203.71170043945312 153.2425537109375 203.93409729003906 157.5432891845703 182.3510284423828 163.7387237548828 C 174.33352661132812 164.97862243652344 171.22088623046875 155.20680236816406 180.7733154296875 154.0943145751953 C 195.74842834472656 154.02322387695312 202.95736694335938 154.68299865722656 196.07017517089844 155.14324951171875 C 189.43002319335938 156.55799865722656 193.98973083496094 155.0908966064453 196.59457397460938 153.09217834472656" stroke-width="0.0" fill="rgb(223, 152, 123)" opacity="0.8210493" stroke="rgb(240, 141, 190)" stroke-opacity="0.3882406" stroke-linecap="round" stroke-linejoin="round"/>
    <path d="M 128.11251831054688 131.50094604492188 C 126.03168487548828 144.1790771484375 131.8262481689453 137.51443481445312 116.54179382324219 145.0629119873047 C 116.41818237304688 149.95361328125 116.32701110839844 150.36251831054688 116.76265716552734 138.57945251464844 C 118.67923736572266 121.42630767822266 113.11656951904297 128.94131469726562 128.81301879882812 120.99745178222656 C 128.4913787841797 116.58931732177734 129.1782989501953 116.36026763916016 128.11251831054688 131.50094604492188" stroke-width="0.0" fill="rgb(0, 14, 58)" opacity="0.8658022" stroke="rgb(50, 129, 126)" stroke-opacity="0.79459" stroke-linecap="round" stroke-linejoin="round"/>
    <path d="M 217.39862060546875 156.01837158203125 C 215.0009307861328 154.87985229492188 205.7125701904297 157.8984832763672 197.82180786132812 159.15365600585938 C 191.1275177001953 160.5408172607422 181.74514770507812 167.2925262451172 178.2103729248047 153.88726806640625 C 199.51316833496094 148.9071807861328 204.30990600585938 146.51559448242188 212.9239501953125 147.1212158203125 C 218.60682678222656 147.22207641601562 221.13882446289062 148.19898986816406 217.39862060546875 156.01837158203125" stroke-width="0.0" fill="rgb(182, 77, 51)" opacity="0.3525038" stroke="rgb(225, 198, 168)" stroke-opacity="0.7236212" stroke-linecap="round" stroke-linejoin="round"/>
    <path d="M 473.260986328125 350.4925537109375 C 470.5017395019531 338.26019287109375 474.39459228515625 362.0548400878906 473.186767578125 356.063232421875 C 457.40771484375 351.7319030761719 464.7912292480469 358.4878845214844 461.6070251464844 340.40582275390625 C 461.3636474609375 325.4286804199219 456.6046142578125 324.7983703613281 469.4938049316406 320.6399230957031 C 470.8753662109375 335.66839599609375 471.86474609375 344.7713623046875 473.260986328125 350.4925537109375" stroke-width="0.0" fill="rgb(25, 34, 71)" opacity="0.99643236" stroke="rgb(240, 7, 54)" stroke-opacity="0.24368726" stroke-linecap="round" stroke-linejoin="round"/>
    <path d="M 62.208072662353516 215.85426330566406 C 53.58388137817383 227.4541778564453 49.700660705566406 225.4271240234375 36.08915328979492 246.55072021484375 C 30.561378479003906 264.3390197753906 22.272159576416016 242.148193359375 41.519710540771484 225.7412872314453 C 46.05158615112305 219.74403381347656 48.47955322265625 217.9742889404297 52.499752044677734 213.96299743652344 C 66.20258331298828 203.9342803955078 70.99597930908203 197.0869903564453 62.208072662353516 215.85426330566406" stroke-width="0.0" fill="rgb(190, 105, 80)" opacity="0.6559153" stroke="rgb(200, 94, 132)" stroke-opacity="0.30539426" stroke-linecap="round" stroke-linejoin="round"/>
    <path d="M 228.89175415039062 153.05018615722656 C 226.48638916015625 152.89601135253906 224.15188598632812 154.95941162109375 214.11041259765625 155.02804565429688 C 211.42779541015625 152.5596466064453 208.63143920898438 151.86964416503906 204.738037109375 150.425048828125 C 204.8731689453125 147.5812225341797 213.0932159423828 145.7843475341797 220.42466735839844 145.0708770751953 C 230.98431396484375 142.3092803955078 229.20664978027344 142.23715209960938 228.89175415039062 153.05018615722656" stroke-width="0.0" fill="rgb(214, 113, 79)" opacity="0.41289672" stroke="rgb(66, 225, 121)" stroke-opacity="0.15058166" stroke-linecap="round" stroke-linejoin="round"/>
    <path d="M 134.25808715820312 209.2865753173828 C 128.27029418945312 215.444091796875 128.5214080810547 215.4816131591797 124.5151596069336 227.65890502929688 C 121.58975982666016 216.87538146972656 126.0555648803711 209.4451904296875 128.5189971923828 218.232177734375 C 128.20094299316406 219.26486206054688 126.88284301757812 214.7204132080078 126.38894653320312 210.4449462890625 C 127.58000946044922 218.6730499267578 127.23467254638672 215.30130004882812 134.25808715820312 209.2865753173828" stroke-width="0.0" fill="rgb(77, 139, 210)" opacity="0.8668534" stroke="rgb(58, 62, 130)" stroke-opacity="0.27432737" stroke-linecap="round" stroke-linejoin="round"/>
    <path d="M 153.46571350097656 162.1088104248047 C 170.99618530273438 171.4802703857422 155.7270050048828 168.77301025390625 125.08026885986328 182.5741424560547 C 104.17669677734375 189.65451049804688 101.3752212524414 199.40130615234375 105.75745391845703 180.71949768066406 C 147.2823486328125 161.50001525878906 154.71311950683594 163.54324340820312 147.4404296875 164.6907958984375 C 138.08506774902344 169.39544677734375 140.39352416992188 168.17523193359375 153.46571350097656 162.1088104248047" stroke-width="0.0" fill="rgb(181, 93, 68)" opacity="0.55222875" stroke="rgb(104, 148, 181)" stroke-opacity="0.9948822" stroke-linecap="round" stroke-linejoin="round"/>
    <path d="M 184.0950469970703 162.55628967285156 C 156.2180633544922 171.1616668701172 160.22088623046875 167.22064208984375 162.393310546875 174.7919921875 C 156.82806396484375 159.99154663085938 158.5423126220703 162.73855590820312 140.55615234375 166.3387908935547 C 149.75640869140625 162.77001953125 156.1702423095703 160.3258514404297 176.48670959472656 154.86085510253906 C 178.52145385742188 153.6207733154297 177.4692840576172 157.04013061523438 184.0950469970703 162.55628967285156" stroke-width="0.0" fill="rgb(192, 106, 78)" opacity="0.6407594" stroke="rgb(202, 182, 21)" stroke-opacity="0.39901704" stroke-linecap="round" stroke-linejoin="round"/>
    <path d="M 115.83039093017578 176.52151489257812 C 95.30338287353516 204.82354736328125 82.58647155761719 199.56463623046875 73.06629943847656 210.39663696289062 C 53.07591247558594 221.35755920410156 59.38092803955078 227.72647094726562 66.36676025390625 203.25640869140625 C 80.68106079101562 194.0916290283203 85.16018676757812 190.74673461914062 101.5031509399414 183.17808532714844 C 87.96814727783203 190.62850952148438 87.50366973876953 188.23350524902344 115.83039093017578 176.52151489257812" stroke-width="0.0" fill="rgb(196, 113, 86)" opacity="0.72244453" stroke="rgb(103, 201, 23)" stroke-opacity="0.3438914" stroke-linecap="round" stroke-linejoin="round"/>
    <path d="M 122.40176391601562 223.00405883789062 C 122.11292266845703 243.5918731689453 112.6635971069336 243.9672088623047 111.29182434082031 231.33453369140625 C 116.2821273803711 222.54087829589844 115.32135009765625 219.6094512939453 114.51953887939453 219.12649536132812 C 113.32434844970703 234.50802612304688 114.06634521484375 231.64599609375 110.86206817626953 224.0485076904297 C 116.06745147705078 193.40896606445312 127.42798614501953 188.86195373535156 122.40176391601562 223.00405883789062" stroke-width="0.0" fill="rgb(24, 36, 76)" opacity="0.87598157" stroke="rgb(215, 138, 62)" stroke-opacity="0.9792095" stroke-linecap="round" stroke-linejoin="round"/>
    <path d="M 486.0671081542969 374.12091064453125 C 473.0858154296875 370.734619140625 454.9150085449219 368.5693054199219 448.97442626953125 368.1852722167969 C 455.9157409667969 369.7686767578125 447.5497131347656 366.7791442871094 454.64288330078125 369.0243225097656 C 447.6998596191406 366.4877014160156 450.483154296875 361.92242431640625 471.942626953125 365.0763854980469 C 472.8676452636719 350.0443420410156 476.02044677734375 332.7778015136719 486.0671081542969 374.12091064453125" stroke-width="0.0" fill="rgb(217, 144, 118)" opacity="0.8884583" stroke="rgb(208, 54, 51)" stroke-opacity="0.55679274" stroke-linecap="round" stroke-linejoin="round"/>
    <path d="M 110.23103332519531 215.76318359375 C 107.6568603515625 280.9002990722656 81.72150421142578 232.45794677734375 102.55735778808594 204.17161560058594 C 57.599884033203125 223.85325622558594 55.000274658203125 218.2375946044922 88.21678924560547 200.00381469726562 C 84.73149871826172 196.7068634033203 87.82581329345703 197.35665893554688 94.1446304321289 195.1497039794922 C 85.35066986083984 198.1695556640625 78.75312042236328 195.33370971679688 110.23103332519531 215.76318359375" stroke-width="0.0" fill="rgb(246, 151, 117)" opacity="0.6390389" stroke="rgb(114, 91, 232)" stroke-opacity="0.62699527" stroke-linecap="round" stroke-linejoin="round"/>
    <path d="M 133.77764892578125 202.8465576171875 C 138.5390167236328 195.37254333496094 138.1531982421875 201.7167205810547 136.745361328125 231.3627471923828 C 128.1856689453125 215.0988311767578 136.69862365722656 213.85923767089844 136.46115112304688 213.24713134765625 C 131.3794708251953 200.97203063964844 139.04879760742188 199.81155395507812 127.91088104248047 204.111083984375 C 130.68820190429688 206.181640625 132.45907592773438 207.43597412109375 133.77764892578125 202.8465576171875" stroke-width="0.0" fill="rgb(79, 143, 211)" opacity="0.4863796" stroke="rgb(162, 103, 210)" stroke-opacity="0.07257301" stroke-linecap="round" stroke-linejoin="round"/>
    <path d="M 412.6809387207031 228.0252227783203 C 411.668701171875 225.691650390625 413.8181457519531 248.640625 412.2908020019531 246.77401733398438 C 398.1973571777344 242.5165252685547 404.37567138671875 249.7688751220703 402.3831787109375 225.97061157226562 C 404.9461975097656 226.81712341308594 400.3305358886719 225.33694458007812 411.0281982421875 228.16429138183594 C 413.42657470703125 228.85330200195312 411.7038879394531 233.5165557861328 412.6809387207031 228.0252227783203" stroke-width="0.0" fill="rgb(61, 85, 131)" opacity="0.989142" stroke="rgb(85, 118, 174)" stroke-opacity="0.9817501" stroke-linecap="round" stroke-linejoin="round"/>
  </g>
</svg>
