<?xml version="1.0" ?>
<svg xmlns="http://www.w3.org/2000/svg" version="1.1" width="512" height="512">
  <defs/>
  <g>
    <path d="M 521.8900756835938 372.72247314453125 C 532.1123657226562 418.45037841796875 559.5560302734375 428.9886779785156 454.4956970214844 425.8408508300781 C 452.88275146484375 333.45849609375 464.0735168457031 380.17083740234375 485.43304443359375 372.2940368652344 C 428.0788879394531 314.1625061035156 520.5493774414062 381.1416931152344 334.8458251953125 181.90406799316406 C 652.8995361328125 163.02894592285156 548.0994262695312 258.36773681640625 521.8900756835938 372.72247314453125" stroke-width="0.0" fill="rgb(128, 77, 85)" opacity="0.7825699" stroke="rgb(103, 195, 245)" stroke-opacity="0.549224" stroke-linecap="round" stroke-linejoin="round"/>
    <path d="M 524.6934814453125 103.154296875 C 530.2003173828125 158.3925018310547 638.8012084960938 249.2571563720703 490.0376892089844 364.93072509765625 C 503.26678466796875 241.64547729492188 431.4600830078125 182.10791015625 280.99188232421875 231.59115600585938 C 222.35142517089844 151.4854736328125 274.085205078125 165.33917236328125 454.64288330078125 99.2740707397461 C 520.1677856445312 80.96046447753906 521.7117919921875 67.24253845214844 524.6934814453125 103.154296875" stroke-width="0.0" fill="rgb(81, 136, 207)" opacity="0.9666084" stroke="rgb(125, 24, 6)" stroke-opacity="0.92294955" stroke-linecap="round" stroke-linejoin="round"/>
    <path d="M 445.06689453125 43.44978713989258 C 200.79351806640625 138.32237243652344 270.6665954589844 291.7178039550781 231.59991455078125 175.04798889160156 C 206.60202026367188 72.55567169189453 179.9169921875 -39.000640869140625 -1.0090503692626953 205.2864532470703 C -25.026533126831055 -105.1655044555664 -5.772911071777344 -45.634517669677734 328.4949035644531 -16.95772933959961 C 422.84130859375 -42.85097122192383 458.42254638671875 -60.34553527832031 445.06689453125 43.44978713989258" stroke-width="0.0" fill="rgb(0, 85, 194)" opacity="0.508301" stroke="rgb(27, 136, 28)" stroke-opacity="0.9867076" stroke-linecap="round" stroke-linejoin="round"/>
  </g>
</svg>
