<?xml version="1.0" ?>
<svg xmlns="http://www.w3.org/2000/svg" version="1.1" width="512" height="512">
  <defs/>
  <g>
    <path d="M -10.0 -10.0 C -9.0 -10.0 512.0 0.0 513.0 0.0 C 514.0 0.0 512.0 512.0 513.0 512.0 C 513.0 513.0 0.0 512.0 0.0 513.0 C 0.0 512.0 0.0 513.0 -10.0 -10.0 L -10.0 -10.0" stroke-width="2.0" fill="rgb(190, 151, 117)" opacity="1.0"/>
    <path d="M 493.2381591796875 225.25706481933594 C 493.1551818847656 224.8287811279297 492.65020751953125 225.2462158203125 494.8555908203125 226.22560119628906 C 497.1624450683594 227.0103302001953 494.8103942871094 226.589111328125 496.352294921875 225.37423706054688 C 495.72186279296875 226.0877227783203 495.1632080078125 226.72445678710938 497.2843933105469 227.04635620117188 C 493.2474365234375 225.96975708007812 492.7564392089844 224.5857696533203 493.1708679199219 225.09840393066406 L 493.2381591796875 225.25706481933594" stroke-width="2.0" fill="rgb(45, 255, 211)" opacity="0.12541343"/>
    <path d="M 342.3915100097656 41.938140869140625 C 343.8035583496094 42.467193603515625 343.22247314453125 42.821983337402344 343.9176025390625 42.402957916259766 C 343.572265625 42.382118225097656 343.84967041015625 42.70801544189453 344.1049499511719 42.0872688293457 C 343.5736999511719 42.63664245605469 344.91253662109375 41.426734924316406 344.9362487792969 43.087852478027344 C 343.1401672363281 42.042118072509766 343.8304443359375 43.40872573852539 343.5636291503906 45.50553894042969 L 342.3915100097656 41.938140869140625" stroke-width="2.0" fill="rgb(255, 114, 26)" opacity="0.26739076"/>
    <path d="M 199.0702667236328 337.3954772949219 C 180.8698272705078 382.80474853515625 192.09217834472656 323.3633728027344 186.6683349609375 485.2345275878906 C 164.62860107421875 476.95111083984375 190.25750732421875 296.4658508300781 167.3826141357422 240.48666381835938 C 182.0142059326172 332.9623107910156 176.0032196044922 317.7016296386719 177.11245727539062 234.9961395263672 C 190.60702514648438 227.67308044433594 187.6387176513672 205.19570922851562 188.130615234375 314.2490234375 L 199.0702667236328 337.3954772949219" stroke-width="2.0" fill="rgb(139, 56, 0)" opacity="0.70754987"/>
    <path d="M 6.221121311187744 247.9325714111328 C 7.229899883270264 248.4478759765625 6.815423488616943 248.146240234375 5.982327938079834 247.92478942871094 C 9.751806259155273 249.47589111328125 7.73863410949707 248.83534240722656 7.343818187713623 248.34893798828125 C 8.055037498474121 249.17120361328125 8.804386138916016 248.75198364257812 8.228686332702637 248.88522338867188 C 4.9883270263671875 247.4081573486328 6.734558582305908 248.23825073242188 6.439988136291504 248.10585021972656 L 6.221121311187744 247.9325714111328" stroke-width="2.0" fill="rgb(255, 54, 122)" opacity="0.08528333"/>
    <path d="M 307.56805419921875 44.882080078125 C 307.87799072265625 44.283447265625 307.688232421875 43.72275161743164 307.6882019042969 44.55708312988281 C 307.78228759765625 44.32944107055664 307.4106140136719 45.16065979003906 307.64215087890625 44.53538513183594 C 306.9996337890625 46.36109924316406 307.5805969238281 45.004093170166016 307.08099365234375 45.8753776550293 C 307.2517395019531 45.41046142578125 307.603759765625 44.62504577636719 307.7074279785156 44.44615173339844 L 307.56805419921875 44.882080078125" stroke-width="2.0" fill="rgb(203, 116, 105)" opacity="0.1470111"/>
    <path d="M 304.6228942871094 197.34715270996094 C 279.4808654785156 193.93612670898438 265.9407653808594 190.52976989746094 253.92138671875 186.13897705078125 C 250.15484619140625 185.8317108154297 239.92742919921875 180.7620086669922 203.4658966064453 166.04354858398438 C 202.55238342285156 162.20140075683594 210.4330596923828 168.30604553222656 246.41433715820312 182.0241241455078 C 236.4357452392578 179.50302124023438 267.5589294433594 189.14324951171875 262.74224853515625 187.7763214111328 L 304.6228942871094 197.34715270996094" stroke-width="2.0" fill="rgb(14, 0, 7)" opacity="0.9945724"/>
    <path d="M 10.388147354125977 259.02532958984375 C 8.446825981140137 259.9832458496094 7.865545272827148 260.361328125 9.643338203430176 259.37835693359375 C 10.361979484558105 259.8425598144531 9.934600830078125 259.5538330078125 9.717939376831055 259.4092102050781 C 8.627004623413086 259.9457092285156 8.92452621459961 259.59326171875 7.538127899169922 260.8822937011719 C 9.49312686920166 259.15472412109375 9.774584770202637 259.46856689453125 8.337443351745605 260.1256103515625 L 10.388147354125977 259.02532958984375" stroke-width="2.0" fill="rgb(34, 72, 116)" opacity="0.031917468"/>
    <path d="M 26.61581039428711 303.06585693359375 C 29.027671813964844 300.7657775878906 27.684839248657227 303.1717224121094 26.64903450012207 304.0379638671875 C 28.655654907226562 300.81341552734375 27.844942092895508 301.8456726074219 28.067075729370117 302.5442199707031 C 26.338359832763672 304.71014404296875 27.79176902770996 302.1585998535156 27.406574249267578 303.5980529785156 C 28.6828556060791 301.7095642089844 26.550819396972656 304.2184143066406 27.41135025024414 302.601318359375 L 26.61581039428711 303.06585693359375" stroke-width="2.0" fill="rgb(89, 203, 74)" opacity="0.2914223"/>
    <path d="M 395.0021667480469 490.2702331542969 C 393.9903259277344 489.46881103515625 393.4856872558594 489.7391357421875 395.4752197265625 489.92401123046875 C 396.1937561035156 490.8133544921875 396.3287048339844 489.00146484375 396.4762268066406 488.2861633300781 C 394.90850830078125 490.9429016113281 395.38275146484375 490.12432861328125 396.4126281738281 490.26641845703125 C 393.90472412109375 488.6269836425781 394.85723876953125 489.5884704589844 394.248779296875 491.5081481933594 L 395.0021667480469 490.2702331542969" stroke-width="2.0" fill="rgb(65, 112, 35)" opacity="0.0"/>
    <path d="M 413.087158203125 89.68205261230469 C 412.7370910644531 88.03816223144531 412.504150390625 88.16078186035156 412.1404724121094 87.73039245605469 C 413.3038024902344 88.9341812133789 412.6351013183594 88.815673828125 413.9947204589844 92.32774353027344 C 414.0981750488281 92.35980224609375 413.8135986328125 92.30973815917969 415.427001953125 93.04835510253906 C 413.41326904296875 92.13472747802734 415.48675537109375 93.12930297851562 413.9650573730469 92.30207824707031 L 413.087158203125 89.68205261230469" stroke-width="2.0" fill="rgb(82, 247, 76)" opacity="0.26200253"/>
    <path d="M 19.8636417388916 197.13780212402344 C 19.31027603149414 196.03805541992188 19.56744384765625 196.863525390625 20.26702308654785 197.8580780029297 C 20.961181640625 198.64100646972656 20.634994506835938 198.01510620117188 20.09676170349121 198.96090698242188 C 20.58386993408203 198.12167358398438 21.037500381469727 198.42938232421875 20.40479278564453 197.98388671875 C 19.86306381225586 197.08746337890625 20.1212215423584 197.41944885253906 21.163293838500977 198.87533569335938 L 19.8636417388916 197.13780212402344" stroke-width="2.0" fill="rgb(123, 125, 187)" opacity="0.108536385"/>
    <path d="M 401.70880126953125 240.82188415527344 C 401.65631103515625 240.83192443847656 401.4916076660156 240.86489868164062 401.303466796875 240.86993408203125 C 402.00787353515625 240.75381469726562 401.64715576171875 240.79946899414062 402.43878173828125 240.6592559814453 C 399.78662109375 241.0882110595703 401.52691650390625 240.87368774414062 402.6060791015625 240.63552856445312 C 401.7425537109375 240.86744689941406 402.2890625 240.68836975097656 402.220703125 240.72177124023438 L 401.70880126953125 240.82188415527344" stroke-width="2.0" fill="rgb(179, 192, 78)" opacity="0.24037468"/>
    <path d="M 422.7702941894531 104.62037658691406 C 422.2134704589844 100.41976928710938 423.02020263671875 185.5263214111328 382.1381530761719 259.98736572265625 C 346.1905822753906 267.0947570800781 379.79205322265625 255.44058227539062 396.4797058105469 170.470458984375 C 410.0596618652344 94.24102020263672 399.8133239746094 48.443973541259766 381.5379333496094 179.90003967285156 C 383.0831298828125 177.82931518554688 392.98583984375 66.16986846923828 420.8717346191406 40.96529006958008 L 422.7702941894531 104.62037658691406" stroke-width="2.0" fill="rgb(166, 66, 0)" opacity="0.7394336"/>
    <path d="M 271.31622314453125 425.519775390625 C 270.55523681640625 423.8737487792969 270.3812255859375 423.6512145996094 271.4332275390625 425.77288818359375 C 273.7406921386719 424.8097229003906 273.1444091796875 422.92236328125 273.1865539550781 424.1004638671875 C 272.3217468261719 425.7565612792969 271.6201477050781 425.6734924316406 271.5291442871094 425.80621337890625 C 271.03515625 425.2925720214844 271.81402587890625 426.0534362792969 272.215087890625 427.1927795410156 L 271.31622314453125 425.519775390625" stroke-width="2.0" fill="rgb(179, 255, 137)" opacity="0.16479759"/>
    <path d="M 197.44850158691406 387.6983642578125 C 185.27244567871094 338.2257385253906 234.25363159179688 431.5326843261719 167.95603942871094 409.9687805175781 C 145.51573181152344 359.6620788574219 173.49510192871094 417.39532470703125 173.24337768554688 362.39556884765625 C 180.6451416015625 376.1172180175781 177.7581024169922 472.1044006347656 178.5278778076172 216.62075805664062 C 169.1066436767578 483.8037414550781 191.5765380859375 418.4423828125 186.3415069580078 377.74261474609375 L 197.44850158691406 387.6983642578125" stroke-width="2.0" fill="rgb(32, 14, 13)" opacity="1.0"/>
    <path d="M 292.1014099121094 488.03997802734375 C 346.80596923828125 589.222412109375 209.83412170410156 530.7947998046875 142.10409545898438 539.209228515625 C 15.28624439239502 527.7622680664062 12.13373851776123 527.6473999023438 -25.650691986083984 513.3236694335938 C -16.889442443847656 376.1480407714844 -35.263301849365234 364.8393249511719 -8.433579444885254 136.39410400390625 C 237.23341369628906 232.02838134765625 195.53286743164062 344.22625732421875 111.73970031738281 404.76263427734375 L 292.1014099121094 488.03997802734375" stroke-width="2.0" fill="rgb(255, 191, 90)" opacity="0.9970892"/>
    <path d="M 202.7515869140625 24.183124542236328 C 203.66842651367188 24.96036148071289 203.09864807128906 25.551143646240234 202.56141662597656 24.25590705871582 C 202.0980682373047 25.555294036865234 201.4235076904297 25.076345443725586 202.1335906982422 24.312707901000977 C 201.14552307128906 24.379247665405273 201.55673217773438 23.569210052490234 202.3749542236328 24.46653175354004 C 202.30194091796875 23.44930648803711 203.17857360839844 23.64635467529297 203.0943145751953 24.39129066467285 L 202.7515869140625 24.183124542236328" stroke-width="2.0" fill="rgb(92, 29, 132)" opacity="0.0"/>
    <path d="M 478.3892517089844 357.4303283691406 C 477.0135498046875 356.9893493652344 477.0758972167969 357.5451965332031 477.53192138671875 356.68939208984375 C 478.4141845703125 357.3212890625 478.5460510253906 356.79254150390625 479.7060852050781 355.80780029296875 C 476.9523620605469 358.0639343261719 476.92950439453125 358.3815002441406 478.1395263671875 359.5342102050781 C 476.979248046875 358.30877685546875 477.1880798339844 359.19708251953125 476.54620361328125 360.3193054199219 L 478.3892517089844 357.4303283691406" stroke-width="2.0" fill="rgb(112, 246, 42)" opacity="0.0"/>
    <path d="M 38.18672561645508 220.929443359375 C 36.05845260620117 216.947998046875 36.53240203857422 217.16200256347656 36.07062530517578 216.76605224609375 C 36.460182189941406 216.8429412841797 36.772499084472656 218.57864379882812 36.63277053833008 217.76210021972656 C 37.02470779418945 218.7597198486328 36.86903762817383 218.31076049804688 36.7993278503418 218.04595947265625 C 35.674522399902344 216.22967529296875 37.30449676513672 218.8612060546875 36.832130432128906 218.2803955078125 L 38.18672561645508 220.929443359375" stroke-width="2.0" fill="rgb(96, 150, 146)" opacity="0.27492774"/>
    <path d="M 256.2537536621094 416.9438781738281 C 256.6629333496094 418.02740478515625 256.5333251953125 418.3096618652344 256.2078857421875 417.4007873535156 C 256.7958068847656 419.1048583984375 257.19561767578125 417.3883056640625 258.2046813964844 416.92724609375 C 256.54547119140625 417.8437194824219 259.0078430175781 415.94244384765625 256.8100280761719 418.0634765625 C 257.01287841796875 417.6756286621094 257.1952209472656 418.41424560546875 257.5845642089844 420.1589660644531 L 256.2537536621094 416.9438781738281" stroke-width="2.0" fill="rgb(135, 249, 107)" opacity="0.20228006"/>
    <path d="M 90.71172332763672 244.61563110351562 C 89.3731918334961 325.3363952636719 91.7126235961914 411.2582092285156 88.6581802368164 384.5887451171875 C 76.63300323486328 263.3909912109375 83.12249755859375 290.4020080566406 81.26525115966797 385.9451599121094 C 78.88905334472656 405.1161804199219 80.25545501708984 354.3275146484375 79.8254623413086 175.47543334960938 C 91.30989074707031 188.41871643066406 90.64259338378906 172.80938720703125 90.12968444824219 289.0718688964844 L 90.71172332763672 244.61563110351562" stroke-width="2.0" fill="rgb(25, 8, 8)" opacity="0.9990226"/>
    <path d="M 395.4114685058594 280.36004638671875 C 394.5882873535156 281.1834411621094 394.44342041015625 281.0015563964844 395.8124694824219 280.8933410644531 C 394.55609130859375 280.861572265625 394.9643249511719 280.35162353515625 393.9323425292969 282.2753601074219 C 394.9965515136719 281.169677734375 395.12408447265625 280.7452392578125 392.09228515625 281.8474426269531 C 396.4389343261719 280.2760009765625 394.2830505371094 279.849853515625 394.15618896484375 281.5706787109375 L 395.4114685058594 280.36004638671875" stroke-width="2.0" fill="rgb(148, 91, 105)" opacity="0.24211322"/>
    <path d="M 430.03424072265625 33.15785217285156 C 431.10650634765625 34.507362365722656 430.9580993652344 34.07915115356445 429.9717102050781 32.88536071777344 C 431.0870361328125 34.123802185058594 430.9423828125 34.134273529052734 429.8995361328125 32.96698760986328 C 432.028564453125 35.458740234375 433.0946960449219 36.95073318481445 434.47906494140625 38.44761276245117 C 431.9902038574219 35.922767639160156 431.0419616699219 34.295745849609375 432.67681884765625 36.24916458129883 L 430.03424072265625 33.15785217285156" stroke-width="2.0" fill="rgb(144, 54, 129)" opacity="0.03046694"/>
    <path d="M 388.4303894042969 75.7238998413086 C 387.42950439453125 74.55906677246094 387.3309631347656 74.619384765625 387.2432861328125 74.75914001464844 C 389.0216064453125 76.08509063720703 389.0338134765625 74.75918579101562 389.75775146484375 74.26573944091797 C 387.4284973144531 76.68437194824219 388.0756530761719 76.64372253417969 389.74359130859375 77.64726257324219 C 387.8406066894531 76.14262390136719 388.2283935546875 77.23242950439453 386.5481872558594 77.96820831298828 L 388.4303894042969 75.7238998413086" stroke-width="2.0" fill="rgb(81, 139, 171)" opacity="0.0"/>
    <path d="M 417.8504943847656 213.2770233154297 C 406.9079895019531 231.68186950683594 440.33984375 190.77194213867188 437.428955078125 101.12049865722656 C 433.7232971191406 87.3385009765625 443.9302673339844 194.42100524902344 393.34832763671875 266.67791748046875 C 417.8410949707031 221.75738525390625 422.5998840332031 189.7860870361328 438.8958740234375 186.56317138671875 C 420.53582763671875 203.49269104003906 421.4723205566406 211.16146850585938 428.6380615234375 178.84608459472656 L 417.8504943847656 213.2770233154297" stroke-width="2.0" fill="rgb(0, 0, 38)" opacity="1.0"/>
    <path d="M 224.50228881835938 342.14208984375 C 184.45753479003906 354.0252380371094 188.14369201660156 361.4234619140625 244.10011291503906 247.95681762695312 C 308.4338073730469 242.46746826171875 303.23040771484375 297.60369873046875 244.17330932617188 305.7153015136719 C 233.41055297851562 344.0778503417969 216.64956665039062 349.1166687011719 194.0901641845703 347.3483581542969 C 209.3711395263672 337.5403747558594 175.52560424804688 355.67425537109375 193.4792022705078 389.4740905761719 L 224.50228881835938 342.14208984375" stroke-width="2.0" fill="rgb(254, 193, 175)" opacity="0.9856334"/>
    <path d="M 210.2820281982422 438.8114929199219 C 209.205078125 438.1092834472656 209.47222900390625 438.0016784667969 209.3193359375 437.810302734375 C 210.30734252929688 439.3516540527344 210.40994262695312 438.2631530761719 211.2668914794922 437.7483825683594 C 209.09518432617188 439.63922119140625 210.8842010498047 439.216552734375 211.62454223632812 439.6491394042969 C 209.39817810058594 438.22149658203125 210.2518310546875 440.3656005859375 207.41571044921875 440.61846923828125 L 210.2820281982422 438.8114929199219" stroke-width="2.0" fill="rgb(97, 56, 108)" opacity="0.0"/>
    <path d="M 366.73944091796875 299.6156005859375 C 364.74847412109375 302.3106994628906 363.83038330078125 303.661376953125 365.25335693359375 301.6597900390625 C 367.6593017578125 298.3598937988281 368.3197326660156 297.8337707519531 368.8711242675781 297.0675048828125 C 366.17999267578125 300.0926208496094 365.1600341796875 301.8865661621094 365.4064025878906 301.3959655761719 C 366.78192138671875 299.55596923828125 366.6341857910156 299.68304443359375 365.1922607421875 301.7144470214844 L 366.73944091796875 299.6156005859375" stroke-width="2.0" fill="rgb(89, 255, 25)" opacity="0.08807848"/>
    <path d="M 83.55078125 157.6242218017578 C 85.84712219238281 159.13246154785156 85.3389892578125 158.73941040039062 83.39151763916016 157.08238220214844 C 85.06962585449219 158.63497924804688 83.27165222167969 157.2560272216797 83.91019439697266 157.5995635986328 C 83.53652954101562 158.45138549804688 84.15253448486328 157.08230590820312 83.39749908447266 158.91607666015625 C 84.6511001586914 156.57180786132812 83.22628784179688 157.24618530273438 84.37071228027344 158.0465850830078 L 83.55078125 157.6242218017578" stroke-width="2.0" fill="rgb(66, 156, 102)" opacity="0.13980909"/>
    <path d="M 281.66571044921875 290.2417907714844 C 332.4132385253906 248.86944580078125 283.8736267089844 235.06507873535156 279.0841064453125 249.46665954589844 C 198.25445556640625 222.33975219726562 205.36537170410156 262.4858093261719 186.5711212158203 256.4270324707031 C 185.4531707763672 70.60648345947266 172.72702026367188 178.96658325195312 201.44871520996094 164.83346557617188 C 261.0995788574219 191.53179931640625 282.3944396972656 194.44927978515625 282.2776794433594 192.37484741210938 L 281.66571044921875 290.2417907714844" stroke-width="2.0" fill="rgb(147, 59, 0)" opacity="0.7233398"/>
    <path d="M 176.8055419921875 375.7648010253906 C 177.77713012695312 190.3950653076172 174.65274047851562 344.89190673828125 169.63177490234375 282.08447265625 C 162.77267456054688 289.1104736328125 226.02606201171875 122.47233581542969 136.5049285888672 69.88553619384766 C 63.1378173828125 191.82620239257812 95.89089965820312 229.32000732421875 115.56723022460938 251.95440673828125 C 103.28631591796875 251.05908203125 83.70587158203125 309.66619873046875 104.97019958496094 412.73193359375 L 176.8055419921875 375.7648010253906" stroke-width="2.0" fill="rgb(255, 190, 90)" opacity="1.0"/>
    <path d="M 410.2589111328125 370.9759826660156 C 409.76800537109375 370.0941467285156 409.3112487792969 371.06671142578125 409.6839294433594 370.6305236816406 C 409.9740905761719 370.7246398925781 407.79754638671875 369.95172119140625 410.1239318847656 370.6684265136719 C 410.43487548828125 371.09844970703125 410.5032958984375 371.7861328125 411.7484436035156 372.62237548828125 C 409.7395935058594 370.4494934082031 411.6971435546875 372.80615234375 410.2119445800781 370.84100341796875 L 410.2589111328125 370.9759826660156" stroke-width="2.0" fill="rgb(215, 65, 119)" opacity="0.24753448"/>
    <path d="M -3.3811087608337402 -37.527992248535156 C 86.93629455566406 -14.719820976257324 33.32600402832031 11.388315200805664 60.26506805419922 -7.097018241882324 C 105.69436645507812 -11.852533340454102 133.91656494140625 -21.1476993560791 45.71944808959961 -34.73201370239258 C 27.675630569458008 43.02896499633789 112.84488677978516 -73.51289367675781 319.1211853027344 -87.7052230834961 C 214.72572326660156 167.2715301513672 246.6445770263672 141.214111328125 -34.095855712890625 204.4232177734375 L -3.3811087608337402 -37.527992248535156" stroke-width="2.0" fill="rgb(254, 190, 90)" opacity="1.0"/>
    <path d="M 510.624267578125 152.74183654785156 C 509.2743225097656 152.0585174560547 508.67694091796875 151.90420532226562 509.7510070800781 152.26124572753906 C 511.1204528808594 153.42477416992188 511.02362060546875 152.08331298828125 512.1023559570312 151.37850952148438 C 509.6927185058594 154.0758819580078 509.912841796875 153.65875244140625 510.8284606933594 153.69033813476562 C 509.626953125 153.37014770507812 509.9723815917969 154.5487823486328 509.12969970703125 155.65225219726562 L 510.624267578125 152.74183654785156" stroke-width="2.0" fill="rgb(215, 120, 220)" opacity="0.018481271"/>
    <path d="M 100.62139129638672 417.6481628417969 C 98.91755676269531 415.14031982421875 98.05754089355469 414.7279052734375 99.09815216064453 415.6630554199219 C 100.61965942382812 417.2232666015625 99.72673797607422 416.592041015625 99.49158477783203 417.09930419921875 C 99.7862319946289 416.53192138671875 100.52871704101562 416.531494140625 100.81836700439453 419.07733154296875 C 100.10350036621094 416.3184814453125 101.40382385253906 417.4584655761719 99.82777404785156 418.31005859375 L 100.62139129638672 417.6481628417969" stroke-width="2.0" fill="rgb(101, 176, 138)" opacity="0.030372292"/>
    <path d="M 185.6812744140625 205.72637939453125 C 459.8345642089844 187.01759338378906 127.45287322998047 209.7388153076172 185.244873046875 246.31573486328125 C 160.13084411621094 239.37648010253906 124.9073715209961 228.97381591796875 84.6248779296875 217.49977111816406 C 109.75068664550781 185.68634033203125 37.852256774902344 167.9934539794922 84.47281646728516 165.8070526123047 C 200.53904724121094 157.69053649902344 188.69189453125 156.61610412597656 184.58462524414062 162.51316833496094 L 185.6812744140625 205.72637939453125" stroke-width="2.0" fill="rgb(102, 18, 0)" opacity="0.61046404"/>
    <path d="M 447.09881591796875 228.14346313476562 C 327.96710205078125 279.48968505859375 401.9339599609375 305.17034912109375 427.9620666503906 104.16659545898438 C 372.7195739746094 92.04525756835938 424.67254638671875 103.58876037597656 364.15325927734375 263.06341552734375 C 330.3184509277344 187.25738525390625 329.7200622558594 54.374183654785156 413.4679260253906 92.44220733642578 C 417.0513610839844 101.75697326660156 445.95758056640625 90.18141174316406 440.9814147949219 114.98512268066406 L 447.09881591796875 228.14346313476562" stroke-width="2.0" fill="rgb(159, 66, 0)" opacity="0.646939"/>
    <path d="M 481.18963623046875 580.5283203125 C 594.2999877929688 346.3634338378906 518.5289306640625 342.4047546386719 514.7376098632812 340.514404296875 C 511.7768249511719 340.9767150878906 511.5044860839844 340.18792724609375 516.8182983398438 341.09112548828125 C 591.4476318359375 301.1401672363281 777.1427612304688 133.35507202148438 433.84136962890625 -77.00213623046875 C 479.8598937988281 353.4136047363281 336.4472351074219 188.65548706054688 399.96600341796875 377.1541748046875 L 481.18963623046875 580.5283203125" stroke-width="2.0" fill="rgb(254, 191, 90)" opacity="1.0"/>
    <path d="M 34.26416015625 388.33953857421875 C 34.17082977294922 387.95416259765625 34.04777908325195 388.0976257324219 34.10309982299805 387.7957763671875 C 35.52281951904297 390.4064025878906 35.662940979003906 388.4561462402344 36.608951568603516 387.7936706542969 C 34.825721740722656 389.7594909667969 36.03681182861328 389.2649230957031 36.95933532714844 390.6814270019531 C 34.633277893066406 387.9150695800781 34.55520248413086 388.380615234375 34.27897644042969 390.8233337402344 L 34.26416015625 388.33953857421875" stroke-width="2.0" fill="rgb(106, 217, 214)" opacity="0.0"/>
    <path d="M 270.13787841796875 367.8316345214844 C 274.7361755371094 286.0812072753906 274.1259765625 258.4994812011719 273.28631591796875 453.2033996582031 C 220.45870971679688 509.97149658203125 270.3935241699219 379.6689758300781 233.02792358398438 376.6064453125 C 217.634521484375 326.88397216796875 231.45677185058594 355.7972412109375 246.17994689941406 308.12646484375 C 275.1338195800781 303.5609130859375 266.295654296875 282.1458740234375 263.29473876953125 380.4030456542969 L 270.13787841796875 367.8316345214844" stroke-width="2.0" fill="rgb(254, 191, 91)" opacity="0.999301"/>
    <path d="M 88.2034912109375 258.9137878417969 C 89.06156158447266 200.36447143554688 89.14584350585938 202.17080688476562 88.79054260253906 391.7193603515625 C 64.53828430175781 296.7172546386719 107.49755859375 178.17225646972656 81.3835678100586 181.2564697265625 C 80.92057037353516 232.1632843017578 81.41790771484375 311.9383850097656 81.42975616455078 299.72808837890625 C 81.32412719726562 302.2017517089844 82.94701385498047 270.71466064453125 88.86812591552734 223.0453643798828 L 88.2034912109375 258.9137878417969" stroke-width="2.0" fill="rgb(177, 91, 34)" opacity="0.99888366"/>
    <path d="M 315.4489440917969 96.51879119873047 C 265.6185607910156 42.978118896484375 241.03228759765625 117.64027404785156 229.5165252685547 65.88268280029297 C 305.6578369140625 -67.79008483886719 452.72479248046875 -75.40438842773438 503.5420837402344 120.6118392944336 C 398.4810485839844 70.15057373046875 259.9398498535156 92.65457153320312 348.2161560058594 201.24032592773438 C 359.385498046875 55.628238677978516 355.4304504394531 104.31208801269531 317.4003601074219 126.52310943603516 L 315.4489440917969 96.51879119873047" stroke-width="2.0" fill="rgb(254, 191, 91)" opacity="1.0"/>
    <path d="M 258.0065002441406 395.96722412109375 C 257.83306884765625 395.8734130859375 257.2534484863281 395.9869079589844 258.5113830566406 395.86492919921875 C 260.70611572265625 397.9493408203125 259.52520751953125 395.8178405761719 260.0847473144531 394.46875 C 259.5574951171875 397.5661315917969 260.331298828125 396.1109619140625 259.530029296875 396.3703918457031 C 257.05303955078125 394.94549560546875 257.9176025390625 396.6500549316406 256.8316650390625 398.8936767578125 L 258.0065002441406 395.96722412109375" stroke-width="2.0" fill="rgb(255, 146, 144)" opacity="0.104475886"/>
    <path d="M 272.0773010253906 305.05633544921875 C 347.9587707519531 348.119384765625 261.9479064941406 278.11260986328125 269.97296142578125 376.0508117675781 C 260.2931213378906 386.2502136230469 264.3214111328125 376.1778259277344 266.8636779785156 309.3046875 C 287.9769287109375 233.98873901367188 226.1110076904297 290.4974670410156 224.21847534179688 248.26852416992188 C 394.17578125 247.65826416015625 354.3889465332031 242.5006561279297 355.4148254394531 273.5254821777344 L 272.0773010253906 305.05633544921875" stroke-width="2.0" fill="rgb(25, 6, 0)" opacity="0.87849367"/>
    <path d="M 346.9690246582031 452.7958984375 C 346.4775390625 452.3768005371094 345.88641357421875 451.4075012207031 346.5129699707031 453.5408935546875 C 346.5090637207031 452.2420959472656 345.7669677734375 451.6552734375 346.92486572265625 453.059326171875 C 347.2209777832031 453.5429992675781 346.9288330078125 454.1102294921875 347.40338134765625 455.16473388671875 C 347.21539306640625 454.5196228027344 347.14166259765625 452.6644287109375 346.9411926269531 452.90850830078125 L 346.9690246582031 452.7958984375" stroke-width="2.0" fill="rgb(196, 54, 89)" opacity="0.26078632"/>
    <path d="M 179.60215759277344 481.0706481933594 C 179.44146728515625 482.2127380371094 178.62232971191406 483.0992126464844 177.52572631835938 483.3487854003906 C 176.44859313964844 483.32135009765625 175.5044403076172 482.59210205078125 174.98529052734375 481.5841064453125 C 174.8692169189453 480.52301025390625 175.4417724609375 479.4605712890625 176.42799377441406 478.8505859375 C 177.52996826171875 478.6083984375 178.63987731933594 479.07733154296875 179.328857421875 480.02484130859375 L 179.60215759277344 481.0706481933594" stroke-width="2.0" fill="rgb(185, 106, 127)" opacity="0.0"/>
    <path d="M 228.689453125 38.51068878173828 C 229.21347045898438 39.54935836791992 229.09153747558594 40.51520919799805 229.29173278808594 40.10200881958008 C 231.82571411132812 41.351890563964844 230.8959503173828 41.002052307128906 230.01670837402344 40.512046813964844 C 230.47293090820312 40.7790412902832 230.64747619628906 40.780242919921875 230.31634521484375 40.67312240600586 C 228.2099151611328 39.31610870361328 229.5929718017578 40.43389129638672 230.53903198242188 44.26349639892578 L 228.689453125 38.51068878173828" stroke-width="2.0" fill="rgb(135, 238, 67)" opacity="0.0737703"/>
    <path d="M 382.0350036621094 341.6289367675781 C 420.970947265625 516.7262573242188 363.73004150390625 197.73594665527344 506.13262939453125 572.6349487304688 C 147.60948181152344 502.7210998535156 111.4040756225586 361.7760314941406 301.2280578613281 424.7482604980469 C 309.63787841796875 337.054931640625 300.1557922363281 360.32476806640625 320.9427795410156 353.4150695800781 C 357.5980529785156 348.6923828125 345.4041748046875 343.8816833496094 351.99639892578125 361.38525390625 L 382.0350036621094 341.6289367675781" stroke-width="2.0" fill="rgb(255, 190, 91)" opacity="1.0"/>
    <path d="M 88.42044067382812 276.32513427734375 C 89.31949615478516 352.77972412109375 87.96705627441406 371.3987731933594 89.19000244140625 389.28997802734375 C 77.9755630493164 389.2213134765625 82.1678466796875 389.16729736328125 81.04073333740234 390.3217468261719 C 80.88867950439453 153.66900634765625 81.99342346191406 151.21315002441406 81.9249496459961 351.888671875 C 95.63320922851562 450.51678466796875 83.70685577392578 326.9761657714844 90.3116455078125 156.2548828125 L 88.42044067382812 276.32513427734375" stroke-width="2.0" fill="rgb(124, 59, 30)" opacity="0.80670434"/>
    <path d="M 427.0195617675781 203.5538330078125 C 384.3524475097656 328.7818603515625 381.97906494140625 231.70738220214844 383.244873046875 287.6681213378906 C 350.1963806152344 299.4334411621094 289.6961669921875 309.7346496582031 283.8180236816406 300.7480163574219 C 321.5465393066406 219.45220947265625 334.4909362792969 248.22885131835938 353.2857666015625 201.99398803710938 C 333.68829345703125 253.35595703125 405.34820556640625 304.1899719238281 426.6441650390625 194.06265258789062 L 427.0195617675781 203.5538330078125" stroke-width="2.0" fill="rgb(50, 1, 0)" opacity="0.58695465"/>
    <path d="M 467.3749694824219 238.80043029785156 C 466.7226257324219 238.0181427001953 467.3882751464844 238.12942504882812 468.0205078125 241.32400512695312 C 467.52099609375 239.10731506347656 467.3508605957031 238.803466796875 467.92193603515625 240.68292236328125 C 467.6117248535156 240.4131317138672 468.16851806640625 239.94583129882812 467.6551513671875 241.18936157226562 C 468.3356628417969 239.71189880371094 467.387451171875 241.57150268554688 467.8963317871094 240.61126708984375 L 467.3749694824219 238.80043029785156" stroke-width="2.0" fill="rgb(194, 135, 100)" opacity="0.24970628"/>
    <path d="M 119.60255432128906 2.200258493423462 C 120.27803802490234 2.9061481952667236 118.68934631347656 1.104710340499878 121.67355346679688 5.009649276733398 C 122.57874298095703 5.668220043182373 120.837646484375 4.274486541748047 121.64830780029297 4.9789228439331055 C 118.01022338867188 5.954839706420898 119.82728576660156 5.450304985046387 121.5999755859375 4.965096950531006 C 120.56111145019531 3.768918991088867 121.23822784423828 4.024610996246338 121.0228500366211 4.068731784820557 L 119.60255432128906 2.200258493423462" stroke-width="2.0" fill="rgb(126, 254, 56)" opacity="0.14709091"/>
    <path d="M 442.9411315917969 272.7482604980469 C 442.3391418457031 272.47320556640625 442.3237609863281 271.9138488769531 441.6485595703125 271.1972351074219 C 443.1534729003906 273.47100830078125 443.00189208984375 272.8463134765625 443.5013122558594 271.823486328125 C 442.1893310546875 274.0609436035156 443.09552001953125 274.33953857421875 444.1487731933594 275.676025390625 C 442.28369140625 273.5494079589844 443.14276123046875 274.04254150390625 442.8644714355469 274.46240234375 L 442.9411315917969 272.7482604980469" stroke-width="2.0" fill="rgb(189, 181, 109)" opacity="0.015772104"/>
    <path d="M 474.4363098144531 362.9217529296875 C 474.9471740722656 363.6181945800781 474.7466125488281 362.963623046875 473.62713623046875 362.4971008300781 C 474.80889892578125 363.0845642089844 474.3172912597656 362.843994140625 473.6745910644531 362.4757995605469 C 476.3798522949219 364.1219177246094 477.41546630859375 366.4271545410156 478.7972106933594 368.0738830566406 C 475.3494873046875 363.25579833984375 474.5673522949219 363.0511474609375 476.1051025390625 364.4577331542969 L 474.4363098144531 362.9217529296875" stroke-width="2.0" fill="rgb(220, 171, 189)" opacity="0.2669898"/>
    <path d="M 494.8490905761719 276.5116882324219 C 495.24114990234375 277.2680358886719 495.8230895996094 278.3575439453125 495.0767517089844 276.865478515625 C 495.8318176269531 278.3939514160156 495.62615966796875 277.98016357421875 496.1383056640625 279.15765380859375 C 494.7158203125 279.3466796875 494.37225341796875 279.2301940917969 495.92657470703125 279.2317199707031 C 495.32891845703125 279.2515563964844 496.3777160644531 279.1313781738281 496.1541748046875 279.08599853515625 L 494.8490905761719 276.5116882324219" stroke-width="2.0" fill="rgb(146, 90, 103)" opacity="0.28046122"/>
    <path d="M 88.95828247070312 483.3973083496094 C 88.68746185302734 483.1440124511719 88.03455352783203 482.63616943359375 87.59516143798828 481.9444274902344 C 89.92768859863281 484.6790771484375 88.7626724243164 483.17974853515625 89.31932830810547 482.62969970703125 C 88.36131286621094 485.168701171875 90.54332733154297 485.3079833984375 91.61753845214844 486.22998046875 C 88.43695831298828 484.16204833984375 89.5553207397461 484.9990539550781 89.6167984008789 485.5781555175781 L 88.95828247070312 483.3973083496094" stroke-width="2.0" fill="rgb(207, 245, 109)" opacity="0.23281813"/>
    <path d="M 256.4154052734375 488.5846862792969 C 309.3202209472656 436.4913330078125 260.46307373046875 301.47479248046875 300.1188659667969 323.176513671875 C 298.4913330078125 394.0384521484375 283.5176086425781 494.9768371582031 320.29571533203125 425.43414306640625 C 287.264892578125 410.9608154296875 295.15283203125 416.89739990234375 300.25726318359375 436.5950927734375 C 307.55010986328125 425.7662353515625 308.4908142089844 424.0154113769531 303.3182067871094 422.5980224609375 L 256.4154052734375 488.5846862792969" stroke-width="2.0" fill="rgb(254, 191, 91)" opacity="1.0"/>
  </g>
</svg>
