<?xml version="1.0" ?>
<svg xmlns="http://www.w3.org/2000/svg" version="1.1" width="512" height="512">
  <defs/>
  <g>
    <path d="M 378.8182067871094 200.81210327148438 C 374.3089294433594 394.2631530761719 265.58251953125 257.5573425292969 269.8136291503906 374.90521240234375 C 254.5480499267578 405.3236083984375 274.65777587890625 287.42755126953125 263.11944580078125 302.0060119628906 C 216.41673278808594 309.46197509765625 290.5223083496094 314.7513732910156 267.7415466308594 271.41259765625 C 118.97122192382812 223.34364318847656 309.4815979003906 281.58380126953125 378.8182067871094 200.81210327148438" stroke-width="0.0" fill="rgb(63, 21, 7)" opacity="0.74715066" stroke="rgb(211, 238, 65)" stroke-opacity="0.3252536" stroke-linecap="round" stroke-linejoin="round"/>
    <path d="M 295.4852294921875 194.56996154785156 C 278.3498840332031 331.27001953125 247.78048706054688 251.83412170410156 273.0433654785156 238.1319580078125 C 130.492431640625 245.76124572753906 161.3461151123047 254.44210815429688 120.20053100585938 164.2403106689453 C 104.42433166503906 164.7415771484375 107.6165542602539 164.2356414794922 166.2415771484375 159.93992614746094 C 201.38491821289062 153.1686553955078 227.95639038085938 183.920166015625 295.4852294921875 194.56996154785156" stroke-width="0.0" fill="rgb(76, 15, 0)" opacity="0.659922" stroke="rgb(116, 62, 228)" stroke-opacity="0.99083775" stroke-linecap="round" stroke-linejoin="round"/>
    <path d="M 201.9285430908203 251.22027587890625 C 143.26602172851562 308.4994201660156 192.2855224609375 243.43214416503906 172.252197265625 242.3050537109375 C 39.3006706237793 209.09620666503906 115.851318359375 186.73504638671875 80.72267150878906 430.9671936035156 C 77.095703125 108.78913116455078 86.8600082397461 206.68154907226562 68.05252838134766 167.72109985351562 C 180.98599243164062 156.74972534179688 203.29144287109375 161.7663116455078 201.9285430908203 251.22027587890625" stroke-width="0.0" fill="rgb(140, 74, 32)" opacity="1.0" stroke="rgb(160, 8, 172)" stroke-opacity="0.88494027" stroke-linecap="round" stroke-linejoin="round"/>
    <path d="M 343.5312805175781 205.8404998779297 C 339.2665710449219 248.02000427246094 336.2414855957031 263.42718505859375 282.05828857421875 255.7491912841797 C 284.5377197265625 176.3588409423828 274.650634765625 211.38404846191406 303.39520263671875 197.0794219970703 C 264.72320556640625 184.78904724121094 285.7916564941406 204.75428771972656 284.439208984375 157.64369201660156 C 320.9674072265625 146.1447296142578 324.7138977050781 165.31817626953125 343.5312805175781 205.8404998779297" stroke-width="0.0" fill="rgb(249, 250, 250)" opacity="1.0" stroke="rgb(168, 8, 27)" stroke-opacity="0.433246" stroke-linecap="round" stroke-linejoin="round"/>
    <path d="M 435.5928649902344 111.54450225830078 C 426.5333251953125 181.70362854003906 398.1869812011719 185.3096160888672 378.4647216796875 310.9390563964844 C 303.1996765136719 247.0194549560547 376.98394775390625 238.4370574951172 381.1224060058594 222.90296936035156 C 323.94354248046875 272.2759704589844 353.27734375 236.44921875 354.0282897949219 99.5905532836914 C 451.8647766113281 84.56134796142578 446.7105407714844 112.47351837158203 435.5928649902344 111.54450225830078" stroke-width="0.0" fill="rgb(158, 92, 39)" opacity="1.0" stroke="rgb(140, 33, 220)" stroke-opacity="0.37270248" stroke-linecap="round" stroke-linejoin="round"/>
    <path d="M 357.3072204589844 256.1716003417969 C 361.98394775390625 290.1236267089844 317.8427734375 280.6517028808594 293.8728942871094 293.94293212890625 C 276.191650390625 291.9039306640625 282.3836975097656 317.51104736328125 281.0501403808594 244.9468231201172 C 308.7930603027344 238.06639099121094 300.8717346191406 269.88800048828125 328.7445068359375 233.00250244140625 C 342.441162109375 239.93344116210938 333.6858215332031 197.5288543701172 357.3072204589844 256.1716003417969" stroke-width="0.0" fill="rgb(21, 3, 4)" opacity="0.9910908" stroke="rgb(205, 43, 140)" stroke-opacity="0.24633516" stroke-linecap="round" stroke-linejoin="round"/>
    <path d="M 432.0673522949219 186.04971313476562 C 425.88372802734375 209.66062927246094 415.87646484375 238.9734649658203 397.0145263671875 269.6883850097656 C 368.86724853515625 277.7118835449219 396.2235412597656 249.31300354003906 411.6776123046875 188.89051818847656 C 412.83294677734375 197.96243286132812 413.4744873046875 151.0146484375 441.1254577636719 103.12371063232422 C 442.0244445800781 134.36605834960938 438.4619140625 158.57945251464844 432.0673522949219 186.04971313476562" stroke-width="0.0" fill="rgb(126, 59, 22)" opacity="0.93365365" stroke="rgb(22, 150, 163)" stroke-opacity="0.20128565" stroke-linecap="round" stroke-linejoin="round"/>
    <path d="M 288.0 104.0 C 287.33013916015625 106.5 285.5 108.33012390136719 283.0 109.0 C 280.5 108.33012390136719 278.66986083984375 106.5 278.0 104.0 C 278.66986083984375 101.5 280.5 99.66987609863281 283.0 99.0 C 285.5 99.66987609863281 287.33013916015625 101.5 288.0 104.0" stroke-width="0.0" fill="rgb(22, 4, 4)" opacity="1.0" stroke="rgb(135, 28, 40)" stroke-opacity="0.8264136" stroke-linecap="round" stroke-linejoin="round"/>
    <path d="M 231.0 392.0 C 230.3301239013672 394.5 228.5 396.33013916015625 226.0 397.0 C 223.5 396.33013916015625 221.6698760986328 394.5 221.0 392.0 C 221.6698760986328 389.5 223.5 387.66986083984375 226.0 387.0 C 228.5 387.66986083984375 230.3301239013672 389.5 231.0 392.0" stroke-width="0.0" fill="rgb(22, 4, 4)" opacity="1.0" stroke="rgb(246, 198, 79)" stroke-opacity="0.95243984" stroke-linecap="round" stroke-linejoin="round"/>
    <path d="M 286.0 370.0 C 285.33013916015625 372.5 283.5 374.33013916015625 281.0 375.0 C 278.5 374.33013916015625 276.66986083984375 372.5 276.0 370.0 C 276.66986083984375 367.5 278.5 365.66986083984375 281.0 365.0 C 283.5 365.66986083984375 285.33013916015625 367.5 286.0 370.0" stroke-width="0.0" fill="rgb(19, 0, 0)" opacity="1.0" stroke="rgb(54, 243, 100)" stroke-opacity="0.8665269" stroke-linecap="round" stroke-linejoin="round"/>
    <path d="M 284.0 371.0 C 283.33013916015625 373.5 281.5 375.33013916015625 279.0 376.0 C 276.5 375.33013916015625 274.66986083984375 373.5 274.0 371.0 C 274.66986083984375 368.5 276.5 366.66986083984375 279.0 366.0 C 281.5 366.66986083984375 283.33013916015625 368.5 284.0 371.0" stroke-width="0.0" fill="rgb(180, 92, 32)" opacity="1.0" stroke="rgb(180, 191, 39)" stroke-opacity="0.6730508" stroke-linecap="round" stroke-linejoin="round"/>
    <path d="M 399.0 162.0 C 398.33013916015625 164.5 396.5 166.3301239013672 394.0 167.0 C 391.5 166.3301239013672 389.66986083984375 164.5 389.0 162.0 C 389.66986083984375 159.5 391.5 157.6698760986328 394.0 157.0 C 396.5 157.6698760986328 398.33013916015625 159.5 399.0 162.0" stroke-width="0.0" fill="rgb(252, 191, 87)" opacity="1.0" stroke="rgb(236, 241, 248)" stroke-opacity="0.94716704" stroke-linecap="round" stroke-linejoin="round"/>
    <path d="M 252.0 206.0 C 251.3301239013672 208.5 249.5 210.3301239013672 247.0 211.0 C 244.5 210.3301239013672 242.6698760986328 208.5 242.0 206.0 C 242.6698760986328 203.5 244.5 201.6698760986328 247.0 201.0 C 249.5 201.6698760986328 251.3301239013672 203.5 252.0 206.0" stroke-width="0.0" fill="rgb(22, 4, 4)" opacity="1.0" stroke="rgb(203, 199, 104)" stroke-opacity="0.7254289" stroke-linecap="round" stroke-linejoin="round"/>
    <path d="M 94.0 295.0 C 93.33012390136719 297.5 91.5 299.33013916015625 89.0 300.0 C 86.5 299.33013916015625 84.66987609863281 297.5 84.0 295.0 C 84.66987609863281 292.5 86.5 290.66986083984375 89.0 290.0 C 91.5 290.66986083984375 93.33012390136719 292.5 94.0 295.0" stroke-width="0.0" fill="rgb(16, 0, 0)" opacity="1.0" stroke="rgb(184, 177, 202)" stroke-opacity="0.528507" stroke-linecap="round" stroke-linejoin="round"/>
    <path d="M 95.0 296.0 C 94.33012390136719 298.5 92.5 300.33013916015625 90.0 301.0 C 87.5 300.33013916015625 85.66987609863281 298.5 85.0 296.0 C 85.66987609863281 293.5 87.5 291.66986083984375 90.0 291.0 C 92.5 291.66986083984375 94.33012390136719 293.5 95.0 296.0" stroke-width="0.0" fill="rgb(192, 146, 81)" opacity="1.0" stroke="rgb(89, 195, 233)" stroke-opacity="0.90514785" stroke-linecap="round" stroke-linejoin="round"/>
  </g>
</svg>
