<?xml version="1.0" ?>
<svg xmlns="http://www.w3.org/2000/svg" version="1.1" width="512" height="512">
  <defs/>
  <g>
    <path d="M 378.8048095703125 218.65232849121094 C 347.1161193847656 340.8247985839844 265.7596130371094 282.927490234375 268.57476806640625 384.16693115234375 C 254.95108032226562 366.01470947265625 278.5677490234375 286.669677734375 259.4076843261719 303.30328369140625 C 226.41848754882812 306.8177185058594 289.1387023925781 313.4205322265625 267.843505859375 271.2118835449219 C 141.780517578125 227.00424194335938 267.6791076660156 272.75701904296875 378.8048095703125 218.65232849121094" stroke-width="0.0" fill="rgb(75, 40, 23)" opacity="0.8547335" stroke="rgb(211, 238, 65)" stroke-opacity="0.3252536" stroke-linecap="round" stroke-linejoin="round"/>
    <path d="M 180.0 179.0 C 179.3301239013672 181.5 177.5 183.3301239013672 175.0 184.0 C 172.5 183.3301239013672 170.6698760986328 181.5 170.0 179.0 C 170.6698760986328 176.5 172.5 174.6698760986328 175.0 174.0 C 177.5 174.6698760986328 179.3301239013672 176.5 180.0 179.0" stroke-width="0.0" fill="rgb(177, 91, 32)" opacity="1.0" stroke="rgb(116, 62, 228)" stroke-opacity="0.99083775" stroke-linecap="round" stroke-linejoin="round"/>
    <path d="M 139.0 213.0 C 138.3301239013672 215.5 136.5 217.3301239013672 134.0 218.0 C 131.5 217.3301239013672 129.6698760986328 215.5 129.0 213.0 C 129.6698760986328 210.5 131.5 208.6698760986328 134.0 208.0 C 136.5 208.6698760986328 138.3301239013672 210.5 139.0 213.0" stroke-width="0.0" fill="rgb(177, 91, 32)" opacity="1.0" stroke="rgb(160, 8, 172)" stroke-opacity="0.88494027" stroke-linecap="round" stroke-linejoin="round"/>
  </g>
</svg>
