<?xml version="1.0" ?>
<svg xmlns="http://www.w3.org/2000/svg" version="1.1" width="512" height="512">
  <defs/>
  <g>
    <path d="M 379.958984375 204.3004608154297 C 372.10198974609375 376.9254150390625 266.08978271484375 267.4878845214844 269.499755859375 376.5116882324219 C 254.54281616210938 400.0283203125 275.1718444824219 287.3895568847656 262.6278076171875 302.138427734375 C 217.3274688720703 309.3033142089844 289.0747985839844 314.6007995605469 268.3553466796875 272.5244140625 C 124.1729736328125 221.21591186523438 306.0787048339844 282.136474609375 379.958984375 204.3004608154297" stroke-width="0.0" fill="rgb(65, 26, 11)" opacity="0.7472727" stroke="rgb(211, 238, 65)" stroke-opacity="0.3252536" stroke-linecap="round" stroke-linejoin="round"/>
    <path d="M 282.38140869140625 192.53700256347656 C 283.70916748046875 316.2867126464844 271.9523620605469 236.0941619873047 263.2607727050781 238.41734313964844 C 122.27457427978516 248.71197509765625 146.07711791992188 240.5804443359375 119.5741958618164 165.65499877929688 C 104.64917755126953 164.7323760986328 107.81525421142578 163.99362182617188 160.66604614257812 160.6604766845703 C 201.89788818359375 153.0491180419922 210.80252075195312 174.95220947265625 282.38140869140625 192.53700256347656" stroke-width="0.0" fill="rgb(129, 64, 26)" opacity="0.93459356" stroke="rgb(116, 62, 228)" stroke-opacity="0.99083775" stroke-linecap="round" stroke-linejoin="round"/>
    <path d="M 201.9261474609375 251.25733947753906 C 141.19581604003906 307.1117248535156 195.40025329589844 241.55789184570312 170.20054626464844 242.12017822265625 C 38.47807312011719 203.18368530273438 117.05370330810547 211.9400634765625 80.384033203125 384.4345397949219 C 77.68035888671875 125.3253402709961 85.93360900878906 188.8612060546875 66.60745239257812 167.91014099121094 C 177.26388549804688 157.30625915527344 203.64059448242188 158.36920166015625 201.9261474609375 251.25733947753906" stroke-width="0.0" fill="rgb(140, 74, 32)" opacity="1.0" stroke="rgb(160, 8, 172)" stroke-opacity="0.88494027" stroke-linecap="round" stroke-linejoin="round"/>
    <path d="M 314.0 199.0 C 313.33013916015625 201.5 311.5 203.3301239013672 309.0 204.0 C 306.5 203.3301239013672 304.66986083984375 201.5 304.0 199.0 C 304.66986083984375 196.5 306.5 194.6698760986328 309.0 194.0 C 311.5 194.6698760986328 313.33013916015625 196.5 314.0 199.0" stroke-width="0.0" fill="rgb(255, 255, 255)" opacity="1.0" stroke="rgb(168, 8, 27)" stroke-opacity="0.433246" stroke-linecap="round" stroke-linejoin="round"/>
    <path d="M 406.0 174.0 C 405.33013916015625 176.5 403.5 178.3301239013672 401.0 179.0 C 398.5 178.3301239013672 396.66986083984375 176.5 396.0 174.0 C 396.66986083984375 171.5 398.5 169.6698760986328 401.0 169.0 C 403.5 169.6698760986328 405.33013916015625 171.5 406.0 174.0" stroke-width="0.0" fill="rgb(177, 91, 32)" opacity="1.0" stroke="rgb(140, 33, 220)" stroke-opacity="0.37270248" stroke-linecap="round" stroke-linejoin="round"/>
    <path d="M 323.0 263.0 C 322.33013916015625 265.5 320.5 267.33013916015625 318.0 268.0 C 315.5 267.33013916015625 313.66986083984375 265.5 313.0 263.0 C 313.66986083984375 260.5 315.5 258.66986083984375 318.0 258.0 C 320.5 258.66986083984375 322.33013916015625 260.5 323.0 263.0" stroke-width="0.0" fill="rgb(22, 4, 4)" opacity="1.0" stroke="rgb(205, 43, 140)" stroke-opacity="0.24633516" stroke-linecap="round" stroke-linejoin="round"/>
    <path d="M 420.0 190.0 C 419.33013916015625 192.5 417.5 194.3301239013672 415.0 195.0 C 412.5 194.3301239013672 410.66986083984375 192.5 410.0 190.0 C 410.66986083984375 187.5 412.5 185.6698760986328 415.0 185.0 C 417.5 185.6698760986328 419.33013916015625 187.5 420.0 190.0" stroke-width="0.0" fill="rgb(177, 91, 32)" opacity="1.0" stroke="rgb(22, 150, 163)" stroke-opacity="0.20128565" stroke-linecap="round" stroke-linejoin="round"/>
  </g>
</svg>
