<?xml version="1.0" ?>
<svg xmlns="http://www.w3.org/2000/svg" version="1.1" width="512" height="384">
  <defs/>
  <g>
    <path d="M -0.4732229709625244 0.3948606550693512 L 510.4976501464844 0.4220331609249115 L 510.5856628417969 384.0136413574219 L -0.6101275086402893 384.01806640625 L -0.4732229709625244 0.3948606550693512" stroke-width="0.0" fill="rgb(230, 273, 326)" opacity="1.2163861" stroke="rgb(0, 0, 0)" stroke-opacity="0.0" stroke-linecap="round" stroke-linejoin="round"/>
    <path d="M -0.9186220765113831 -0.20722787082195282 L -0.8821685910224915 385.2467956542969 L 511.77056884765625 385.2444152832031 L 511.8346862792969 -0.24297216534614563 L -0.9186220765113831 -0.20722787082195282" stroke-width="2.0" fill="rgb(222, 180, 134)" opacity="1.2810758" stroke="rgb(0, 0, 0)" stroke-opacity="0.0" stroke-linecap="round" stroke-linejoin="round"/>
    <path d="M 301.1767578125 8.98989200592041 C 273.18511962890625 13.11747932434082 245.86705017089844 22.323633193969727 220.3583221435547 52.525840759277344 C 189.63412475585938 93.0162582397461 187.7993927001953 135.16908264160156 204.03402709960938 174.70057678222656 C 224.78854370117188 224.17611694335938 278.218017578125 250.2924346923828 322.5850830078125 245.37342834472656 C 335.169189453125 246.38526916503906 329.6999206542969 232.9329071044922 331.3779296875 222.13287353515625 C 323.5644226074219 220.4890594482422 319.7940979003906 213.1709747314453 325.6087646484375 210.30130004882812 C 341.7516784667969 208.03253173828125 331.4770202636719 185.00819396972656 335.880859375 174.982177734375 C 340.5469665527344 167.2368621826172 347.98590087890625 161.9698944091797 340.8677062988281 153.3267822265625 C 345.74945068359375 147.83201599121094 341.62847900390625 137.78692626953125 346.1931457519531 132.6938018798828 C 355.7016906738281 145.38294982910156 341.3116455078125 159.57582092285156 357.630859375 171.8368377685547 L 358.7911071777344 207.31808471679688 C 366.9434814453125 208.7034912109375 372.1873779296875 210.67356872558594 369.16058349609375 219.42625427246094 C 361.67919921875 220.31124877929688 360.0835266113281 224.49598693847656 363.0538330078125 234.8698272705078 C 401.300048828125 218.65689086914062 425.4357604980469 178.4954376220703 429.8238525390625 147.12391662597656 C 434.2563171386719 110.09332275390625 428.6888427734375 69.4108657836914 384.9180603027344 33.09483337402344 C 357.3479309082031 12.468159675598145 329.83837890625 7.538208961486816 301.1767578125 8.98989200592041" stroke-width="2.0" fill="rgb(253, 245, 219)" opacity="0.972353" stroke="rgb(0, 0, 0)" stroke-opacity="0.0" stroke-linecap="round" stroke-linejoin="round"/>
    <path d="M -0.07530845701694489 328.0489807128906 L 0.35207095742225647 385.2446594238281 L 512.8263549804688 385.24176025390625 L 512.8721923828125 328.0517272949219 L 463.81964111328125 327.3682861328125 C 454.484130859375 334.7317810058594 441.2820739746094 332.77569580078125 429.85009765625 334.900634765625 C 415.0065002441406 333.6135559082031 400.5268249511719 336.8426208496094 384.88665771484375 332.8974609375 C 379.56829833984375 327.2366027832031 365.33123779296875 326.9681701660156 359.44476318359375 333.3082580566406 C 350.041748046875 334.2953186035156 337.7315673828125 339.127685546875 327.641845703125 327.4432373046875 C 311.636962890625 330.5302429199219 297.326416015625 325.2893371582031 285.40203857421875 331.02777099609375 C 275.0011901855469 323.7791748046875 261.67974853515625 330.03900146484375 254.63412475585938 330.386474609375 C 244.69378662109375 326.0337829589844 230.89784240722656 325.1236572265625 221.1665496826172 330.7185974121094 C 214.04173278808594 327.5386657714844 199.08236694335938 325.8160400390625 190.61233520507812 331.0580139160156 C 181.5696563720703 325.1786193847656 170.8418731689453 330.7537841796875 158.6892547607422 327.2457580566406 C 155.96929931640625 330.7315979003906 152.7961883544922 330.8460388183594 150.036376953125 331.8363037109375 C 114.70487976074219 331.6396179199219 75.5720443725586 331.1350402832031 38.09593200683594 331.71038818359375 C 25.93695640563965 325.8678283691406 13.697678565979004 329.46002197265625 -0.07530845701694489 328.0489807128906" stroke-width="2.0" fill="rgb(0, 0, 0)" opacity="0.9953473" stroke="rgb(0, 0, 0)" stroke-opacity="0.0" stroke-linecap="round" stroke-linejoin="round"/>
    <path d="M 45.14167022705078 226.75697326660156 C 45.796653747558594 234.72714233398438 39.371803283691406 241.97572326660156 41.74018096923828 251.90676879882812 L 37.533477783203125 253.5941925048828 C 42.78728103637695 264.95794677734375 36.80299377441406 277.37664794921875 37.792789459228516 290.0814208984375 L 27.17180633544922 290.3101806640625 C 29.04014778137207 304.81060791015625 25.632064819335938 318.82135009765625 28.98150062561035 333.66082763671875 C 71.59900665283203 334.55389404296875 117.1410140991211 336.7105407714844 159.92724609375 333.1277160644531 L 160.39926147460938 290.9967956542969 C 155.93331909179688 287.4615478515625 150.23974609375 292.4812316894531 147.54244995117188 289.03375244140625 C 148.20944213867188 277.322509765625 142.1371307373047 265.3778381347656 147.017578125 254.33856201171875 C 138.7857208251953 246.82920837402344 142.9840087890625 235.58274841308594 140.5049591064453 225.1026153564453 C 136.00599670410156 234.0845184326172 138.4329833984375 247.62384033203125 133.97662353515625 254.51942443847656 C 133.64157104492188 261.1523742675781 137.3112030029297 270.59234619140625 130.8685302734375 277.2725524902344 L 133.34454345703125 290.1265869140625 L 116.49901580810547 290.22149658203125 C 117.79021453857422 275.8452453613281 109.5539779663086 265.24176025390625 93.78145599365234 260.9323425292969 L 92.77603912353516 251.15072631835938 C 93.3339614868164 265.70147705078125 79.01055908203125 262.05926513671875 71.65504455566406 273.9049987792969 L 67.34879302978516 290.1871032714844 L 53.13064193725586 290.1325378417969 C 52.60132598876953 277.3064880371094 48.73938751220703 265.31805419921875 52.00055694580078 253.8658447265625 C 46.99908447265625 251.00241088867188 51.17561721801758 244.20542907714844 49.629825592041016 238.9485321044922 C 44.20226287841797 235.32476806640625 46.66608810424805 230.85586547851562 45.14167022705078 226.75697326660156" stroke-width="2.0" fill="rgb(0, 0, 0)" opacity="0.9902274" stroke="rgb(0, 0, 0)" stroke-opacity="0.0" stroke-linecap="round" stroke-linejoin="round"/>
    <path d="M 347.0570068359375 131.9069366455078 C 340.3816223144531 138.94334411621094 346.1496276855469 144.61593627929688 343.0170593261719 150.19827270507812 C 340.6399841308594 153.25262451171875 346.5895080566406 157.99026489257812 343.60418701171875 165.41636657714844 C 327.5432434082031 170.15928649902344 338.1431884765625 189.9139404296875 334.1343994140625 207.9251708984375 C 332.2355651855469 208.80076599121094 326.51416015625 207.22824096679688 322.53985595703125 208.30128479003906 C 323.52435302734375 218.8588104248047 319.2967224121094 222.33837890625 330.2182922363281 219.42137145996094 L 330.2637939453125 268.6149597167969 C 321.64599609375 264.3873596191406 319.5294494628906 275.60235595703125 326.3217468261719 282.3109436035156 L 326.50213623046875 330.6358947753906 C 334.08282470703125 340.83148193359375 349.9947814941406 336.70733642578125 362.4632873535156 336.0215148925781 L 366.3966979980469 330.05303955078125 L 366.32232666015625 280.7693786621094 C 372.6935119628906 276.7535705566406 370.4909362792969 267.5353698730469 362.5841979980469 268.3064880371094 L 362.7838439941406 219.42405700683594 C 372.28106689453125 222.7567138671875 370.2081604003906 218.3077392578125 370.1512451171875 208.41177368164062 C 365.00823974609375 206.7831573486328 358.7957458496094 209.72142028808594 358.6290588378906 207.30006408691406 C 354.7960510253906 190.11492919921875 365.693359375 170.88587951660156 348.8522644042969 164.7279510498047 C 348.8285827636719 153.084716796875 349.10491943359375 142.753662109375 347.0570068359375 131.9069366455078" stroke-width="2.0" fill="rgb(-1, -1, 0)" opacity="0.9811875" stroke="rgb(0, 0, 0)" stroke-opacity="0.0" stroke-linecap="round" stroke-linejoin="round"/>
    <path d="M 181.76040649414062 271.5325012207031 C 188.1688995361328 289.83935546875 183.50091552734375 310.38214111328125 185.81280517578125 331.95184326171875 C 205.5044708251953 336.11932373046875 194.15859985351562 318.810302734375 205.4600067138672 311.920166015625 C 213.74435424804688 313.370849609375 210.57545471191406 323.9980163574219 212.1224822998047 332.1082763671875 L 229.6384735107422 332.1253356933594 C 231.806640625 321.33349609375 225.5745391845703 309.1217956542969 238.6827850341797 303.7825927734375 C 251.76724243164062 307.3680725097656 246.89837646484375 321.39471435546875 248.17347717285156 331.51495361328125 C 262.05267333984375 336.7587585449219 270.8411560058594 328.5601501464844 266.40826416015625 318.1012268066406 C 269.79034423828125 311.75958251953125 273.2283935546875 309.3507995605469 278.21429443359375 316.58795166015625 C 277.4205017089844 324.7374572753906 279.2803649902344 337.4665832519531 292.8505859375 329.64459228515625 C 293.1888427734375 308.36431884765625 291.4380187988281 289.4528503417969 295.7198791503906 270.4432373046875 C 285.6642150878906 253.07566833496094 268.0780944824219 273.27825927734375 279.3726501464844 281.6272277832031 L 279.6289367675781 299.95965576171875 C 269.3285217285156 301.60162353515625 255.75685119628906 303.6077575683594 257.19000244140625 289.75958251953125 C 272.0377197265625 271.86517333984375 258.7161865234375 257.037109375 239.35699462890625 245.9332733154297 C 247.38365173339844 241.3318634033203 247.5789031982422 239.69764709472656 238.79132080078125 240.09291076660156 L 236.01345825195312 229.73171997070312 C 231.92173767089844 235.65968322753906 233.8892059326172 239.8246612548828 238.9293975830078 245.31056213378906 C 219.96531677246094 257.2808837890625 205.92735290527344 270.94683837890625 220.83843994140625 289.534423828125 C 222.04010009765625 303.409912109375 208.3336944580078 301.4361877441406 199.8862762451172 300.00927734375 C 194.5945281982422 288.04840087890625 206.5909423828125 276.3425598144531 195.7572021484375 265.2962341308594 C 192.55496215820312 257.44866943359375 187.75608825683594 264.7001037597656 181.76040649414062 271.5325012207031" stroke-width="2.0" fill="rgb(5, 1, 1)" opacity="0.99515337" stroke="rgb(0, 0, 0)" stroke-opacity="0.0" stroke-linecap="round" stroke-linejoin="round"/>
    <path d="M 451.39508056640625 286.1982116699219 C 441.2864990234375 275.23126220703125 432.24407958984375 275.9703674316406 422.322998046875 265.9287109375 C 413.6145935058594 275.2870788574219 401.3704833984375 275.604736328125 390.7934875488281 289.21533203125 C 384.0120544433594 300.83624267578125 386.3004455566406 315.8719177246094 378.03814697265625 331.89093017578125 C 390.8804016113281 342.5094909667969 404.30255126953125 334.133544921875 415.9783630371094 338.2048034667969 C 434.5472106933594 336.1882629394531 452.6103210449219 340.0570068359375 466.140380859375 329.0721740722656 C 456.5819396972656 312.76275634765625 462.22784423828125 299.62872314453125 451.39508056640625 286.1982116699219" stroke-width="2.0" fill="rgb(0, 0, 0)" opacity="0.9915309" stroke="rgb(0, 0, 0)" stroke-opacity="0.0" stroke-linecap="round" stroke-linejoin="round"/>
    <path d="M 46.29054260253906 222.94654846191406 C 43.44108963012695 233.78176879882812 39.521270751953125 240.6165771484375 40.54700469970703 252.24295043945312 C 36.00211715698242 252.600341796875 32.66856002807617 255.16798400878906 39.22404479980469 258.3373718261719 C 37.41176986694336 264.787109375 42.12935256958008 273.1131591796875 35.19976043701172 278.0912780761719 C 41.103363037109375 283.5185241699219 34.32734298706055 289.78045654296875 41.07622528076172 290.6730651855469 L 52.68213653564453 288.8623046875 C 56.12227249145508 276.65228271484375 47.0794792175293 265.7345886230469 55.02328872680664 253.56146240234375 L 50.13530349731445 252.16165161132812 C 51.06140899658203 241.27073669433594 44.46820068359375 234.94740295410156 46.29054260253906 222.94654846191406" stroke-width="2.0" fill="rgb(12, 0, 3)" opacity="0.6740041" stroke="rgb(0, 0, 0)" stroke-opacity="0.0" stroke-linecap="round" stroke-linejoin="round"/>
    <path d="M 139.44879150390625 222.72215270996094 L 134.09066772460938 251.8567657470703 C 130.24671936035156 253.83700561523438 128.2683868408203 255.26771545410156 132.7626953125 257.7785339355469 C 135.41102600097656 269.53076171875 131.1837158203125 277.7593078613281 132.13534545898438 289.8298034667969 C 136.6229705810547 291.8604431152344 141.31951904296875 291.16650390625 146.91665649414062 289.3096008300781 C 144.20419311523438 284.6285400390625 153.33753967285156 276.2669372558594 146.36643981933594 275.223388671875 L 146.1516571044922 257.7798156738281 C 152.1727752685547 256.2245788574219 148.0951690673828 252.90724182128906 144.0360107421875 251.2655029296875 C 146.13980102539062 241.42758178710938 140.1483917236328 233.44898986816406 139.44879150390625 222.72215270996094" stroke-width="2.0" fill="rgb(11, 1, 3)" opacity="0.81968427" stroke="rgb(0, 0, 0)" stroke-opacity="0.0" stroke-linecap="round" stroke-linejoin="round"/>
    <path d="M 286.22747802734375 261.139892578125 C 273.1651306152344 268.8130798339844 272.6374816894531 274.7854309082031 279.49072265625 285.78070068359375 C 277.3133239746094 294.3470764160156 276.7103271484375 305.7501220703125 290.7042541503906 304.1775207519531 C 292.8802490234375 293.8172607421875 291.1018981933594 284.4278564453125 297.5124816894531 274.9461669921875 C 296.34503173828125 268.3088684082031 290.2750244140625 264.02630615234375 286.22747802734375 261.139892578125" stroke-width="2.0" fill="rgb(10, 0, 3)" opacity="0.6969025" stroke="rgb(0, 0, 0)" stroke-opacity="0.0" stroke-linecap="round" stroke-linejoin="round"/>
    <path d="M 239.32763671875 303.1971435546875 C 227.1571502685547 306.4489440917969 228.3332061767578 319.3309326171875 229.5162811279297 328.6316223144531 L 248.7837677001953 328.6656494140625 C 248.13783264160156 318.6576232910156 252.53135681152344 308.685302734375 239.32763671875 303.1971435546875" stroke-width="2.0" fill="rgb(219, 128, 63)" opacity="0.79129624" stroke="rgb(0, 0, 0)" stroke-opacity="0.0" stroke-linecap="round" stroke-linejoin="round"/>
    <path d="M 460.2142028808594 318.67449951171875 L 465.81689453125 328.4941711425781 L 512.6774291992188 328.5052185058594 L 512.0137329101562 316.4475402832031 L 460.2142028808594 318.67449951171875" stroke-width="2.0" fill="rgb(220, 130, 61)" opacity="0.9186947" stroke="rgb(0, 0, 0)" stroke-opacity="0.0" stroke-linecap="round" stroke-linejoin="round"/>
    <path d="M 190.4687042236328 262.9368591308594 C 182.3887939453125 267.10650634765625 178.39749145507812 273.9046936035156 183.50843811035156 280.4856872558594 C 191.27052307128906 277.832275390625 204.4451904296875 285.5088195800781 202.8453826904297 272.429931640625 C 201.20460510253906 267.1822204589844 195.8685302734375 262.2256774902344 190.4687042236328 262.9368591308594" stroke-width="2.0" fill="rgb(7, 0, 1)" opacity="0.84758806" stroke="rgb(0, 0, 0)" stroke-opacity="0.0" stroke-linecap="round" stroke-linejoin="round"/>
    <path d="M 272.5301513671875 311.1280822753906 C 263.4031066894531 314.74908447265625 266.1562194824219 321.53302001953125 265.5962219238281 327.8525695800781 C 275.4450988769531 330.4970703125 282.7032165527344 328.69500732421875 279.29022216796875 318.1685485839844 C 278.6654052734375 314.88372802734375 276.499755859375 312.3462829589844 272.5301513671875 311.1280822753906" stroke-width="2.0" fill="rgb(216, 132, 67)" opacity="0.8279765" stroke="rgb(0, 0, 0)" stroke-opacity="0.0" stroke-linecap="round" stroke-linejoin="round"/>
    <path d="M 346.091552734375 130.05068969726562 C 343.6752624511719 141.6141815185547 343.36151123046875 152.68727111816406 345.3880920410156 163.20249938964844 C 351.3977966308594 165.8348388671875 344.37152099609375 157.8657684326172 348.33624267578125 154.57752990722656 C 348.55792236328125 146.35543823242188 351.03338623046875 138.569580078125 346.091552734375 130.05068969726562" stroke-width="2.0" fill="rgb(5, 0, 0)" opacity="0.8123537" stroke="rgb(0, 0, 0)" stroke-opacity="0.0" stroke-linecap="round" stroke-linejoin="round"/>
    <path d="M 205.02430725097656 310.76031494140625 C 193.15884399414062 318.0843200683594 197.61151123046875 332.9027404785156 212.27671813964844 327.8814392089844 C 212.24703979492188 322.7527770996094 214.4636688232422 314.4007263183594 205.02430725097656 310.76031494140625" stroke-width="2.0" fill="rgb(220, 129, 68)" opacity="0.8018249" stroke="rgb(0, 0, 0)" stroke-opacity="0.0" stroke-linecap="round" stroke-linejoin="round"/>
    <path d="M 174.79791259765625 133.1703643798828 C 167.69253540039062 129.34182739257812 156.74913024902344 133.13253784179688 158.6167449951172 137.8929443359375 C 146.82875061035156 138.68714904785156 149.47756958007812 159.9450225830078 166.00192260742188 151.33767700195312 L 174.79791259765625 133.1703643798828" stroke-width="2.0" fill="rgb(200, 134, 87)" opacity="0.535898" stroke="rgb(0, 0, 0)" stroke-opacity="0.0" stroke-linecap="round" stroke-linejoin="round"/>
    <path d="M 137.2865753173828 132.37722778320312 C 147.7458953857422 134.423583984375 149.5985870361328 129.05612182617188 155.30450439453125 125.41654205322266 C 149.0316925048828 116.40480041503906 137.76284790039062 120.18672943115234 142.42340087890625 130.15260314941406 L 137.2865753173828 132.37722778320312" stroke-width="2.0" fill="rgb(48, 23, 13)" opacity="1.0219045" stroke="rgb(0, 0, 0)" stroke-opacity="0.0" stroke-linecap="round" stroke-linejoin="round"/>
    <path d="M 363.3603515625 333.4886779785156 C 370.8794860839844 333.6857604980469 387.35516357421875 337.7919616699219 380.3177795410156 327.88494873046875 C 372.0760803222656 329.62384033203125 362.18365478515625 325.6628723144531 363.3603515625 333.4886779785156" stroke-width="2.0" fill="rgb(2, -5, 1)" opacity="0.66316134" stroke="rgb(0, 0, 0)" stroke-opacity="0.0" stroke-linecap="round" stroke-linejoin="round"/>
    <path d="M 298.1866455078125 79.85951232910156 C 296.3933410644531 88.13166809082031 286.9186706542969 87.34188079833984 289.9962463378906 95.74015045166016 C 299.44256591796875 99.44153594970703 300.0663146972656 89.32429504394531 298.1866455078125 79.85951232910156" stroke-width="2.0" fill="rgb(60, 58, 54)" opacity="0.9844441" stroke="rgb(0, 0, 0)" stroke-opacity="0.0" stroke-linecap="round" stroke-linejoin="round"/>
    <path d="M 362.8579406738281 269.90228271484375 C 357.5654296875 275.2351379394531 362.7009582519531 282.2978515625 370.2872314453125 280.3153991699219 C 370.42755126953125 271.97821044921875 372.7864685058594 263.7002258300781 362.8579406738281 269.90228271484375" stroke-width="2.0" fill="rgb(7, -3, 0)" opacity="0.8555452" stroke="rgb(0, 0, 0)" stroke-opacity="0.0" stroke-linecap="round" stroke-linejoin="round"/>
    <path d="M 342.8669128417969 147.52291870117188 C 333.8822021484375 157.92897033691406 355.4555969238281 162.1950225830078 351.582763671875 149.60018920898438 C 348.77447509765625 145.64073181152344 346.3240051269531 147.66961669921875 342.8669128417969 147.52291870117188" stroke-width="2.0" fill="rgb(7, 7, 8)" opacity="0.9873552" stroke="rgb(0, 0, 0)" stroke-opacity="0.0" stroke-linecap="round" stroke-linejoin="round"/>
    <path d="M 237.22764587402344 228.9947509765625 C 224.8137969970703 239.0565643310547 243.28408813476562 251.8450927734375 249.30018615722656 239.2464599609375 C 242.01718139648438 242.23220825195312 234.15301513671875 236.63232421875 237.22764587402344 228.9947509765625" stroke-width="2.0" fill="rgb(3, -12, -4)" opacity="0.7015231" stroke="rgb(0, 0, 0)" stroke-opacity="0.0" stroke-linecap="round" stroke-linejoin="round"/>
    <path d="M 214.658203125 147.509033203125 C 212.80186462402344 154.99180603027344 200.55006408691406 156.77101135253906 209.95664978027344 155.7867889404297 C 213.49220275878906 156.3436737060547 213.19696044921875 163.6956024169922 217.73245239257812 162.8323211669922 C 216.81297302246094 157.02603149414062 218.73251342773438 149.3780517578125 214.658203125 147.509033203125" stroke-width="2.0" fill="rgb(36, 33, 27)" opacity="1.0772324" stroke="rgb(0, 0, 0)" stroke-opacity="0.0" stroke-linecap="round" stroke-linejoin="round"/>
    <path d="M 92.16073608398438 185.65919494628906 C 98.26118469238281 185.3255615234375 100.70654296875 192.0493927001953 103.90351867675781 196.40640258789062 C 106.26741027832031 191.62220764160156 103.38572692871094 187.64523315429688 108.17086791992188 182.23692321777344 L 92.16073608398438 185.65919494628906" stroke-width="2.0" fill="rgb(44, 13, 8)" opacity="1.0373527" stroke="rgb(0, 0, 0)" stroke-opacity="0.0" stroke-linecap="round" stroke-linejoin="round"/>
    <path d="M 148.31138610839844 181.36883544921875 L 158.76760864257812 192.48147583007812 L 160.70579528808594 178.94677734375 C 156.96275329589844 178.860595703125 153.83984375 180.26388549804688 148.31138610839844 181.36883544921875" stroke-width="2.0" fill="rgb(58, 24, 13)" opacity="0.975879" stroke="rgb(0, 0, 0)" stroke-opacity="0.0" stroke-linecap="round" stroke-linejoin="round"/>
    <path d="M 154.8899688720703 156.26673889160156 C 157.59840393066406 159.8261260986328 161.38864135742188 164.78305053710938 153.4405059814453 166.914306640625 C 158.79722595214844 167.56631469726562 162.79995727539062 167.78387451171875 166.85137939453125 165.26148986816406 C 162.99085998535156 163.85362243652344 162.24732971191406 156.0948944091797 154.8899688720703 156.26673889160156" stroke-width="2.0" fill="rgb(36, 10, 1)" opacity="1.0819587" stroke="rgb(0, 0, 0)" stroke-opacity="0.0" stroke-linecap="round" stroke-linejoin="round"/>
    <path d="M 61.9837532043457 165.64256286621094 C 69.85201263427734 163.13998413085938 72.85155487060547 172.89276123046875 76.39861297607422 174.0004119873047 L 76.4163589477539 162.28750610351562 L 61.9837532043457 165.64256286621094" stroke-width="2.0" fill="rgb(34, 9, 8)" opacity="1.0694872" stroke="rgb(0, 0, 0)" stroke-opacity="0.0" stroke-linecap="round" stroke-linejoin="round"/>
    <path d="M 378.69390869140625 91.43566131591797 C 377.41241455078125 95.50138092041016 381.5831298828125 100.89884948730469 372.7889404296875 102.11026000976562 C 378.0262756347656 103.24325561523438 382.20361328125 103.06171417236328 385.9540100097656 100.35877990722656 C 380.1134338378906 100.01300811767578 384.0372009277344 94.2334976196289 378.69390869140625 91.43566131591797" stroke-width="2.0" fill="rgb(64, 60, 51)" opacity="1.0491828" stroke="rgb(0, 0, 0)" stroke-opacity="0.0" stroke-linecap="round" stroke-linejoin="round"/>
    <path d="M 172.68568420410156 135.33859252929688 C 168.4802703857422 133.19342041015625 153.13011169433594 139.7627410888672 165.3800506591797 139.109130859375 C 164.9571990966797 149.17327880859375 168.9334259033203 141.78208923339844 172.68568420410156 135.33859252929688" stroke-width="2.0" fill="rgb(45, 12, 5)" opacity="1.0585669" stroke="rgb(0, 0, 0)" stroke-opacity="0.0" stroke-linecap="round" stroke-linejoin="round"/>
    <path d="M 141.34115600585938 151.3978271484375 L 132.88720703125 140.4505615234375 C 132.62046813964844 145.6015625 131.80796813964844 149.9603271484375 126.95169067382812 151.91708374023438 L 141.34115600585938 151.3978271484375" stroke-width="2.0" fill="rgb(31, 8, 5)" opacity="1.0398427" stroke="rgb(0, 0, 0)" stroke-opacity="0.0" stroke-linecap="round" stroke-linejoin="round"/>
    <path d="M 152.84390258789062 148.52682495117188 C 159.48287963867188 146.9325408935547 152.91009521484375 153.98974609375 156.361572265625 152.27015686035156 L 165.9762420654297 146.6482391357422 C 161.0885772705078 141.29794311523438 157.21914672851562 141.14877319335938 152.84390258789062 148.52682495117188" stroke-width="2.0" fill="rgb(67, 36, 20)" opacity="1.1245667" stroke="rgb(0, 0, 0)" stroke-opacity="0.0" stroke-linecap="round" stroke-linejoin="round"/>
    <path d="M 332.78570556640625 86.6370849609375 C 331.90850830078125 93.92618560791016 334.9115905761719 97.89258575439453 327.71356201171875 100.62162017822266 L 340.2242431640625 99.24868774414062 L 332.78570556640625 86.6370849609375" stroke-width="2.0" fill="rgb(40, 39, 31)" opacity="1.0749736" stroke="rgb(0, 0, 0)" stroke-opacity="0.0" stroke-linecap="round" stroke-linejoin="round"/>
    <path d="M 215.24525451660156 85.70938110351562 L 229.85906982421875 86.81153869628906 C 224.6016082763672 83.24220275878906 229.12359619140625 79.85282135009766 220.25071716308594 78.1675796508789 C 219.37890625 78.38739776611328 227.20936584472656 84.51756286621094 215.24525451660156 85.70938110351562" stroke-width="2.0" fill="rgb(46, 44, 35)" opacity="1.126964" stroke="rgb(0, 0, 0)" stroke-opacity="0.0" stroke-linecap="round" stroke-linejoin="round"/>
    <path d="M 173.53036499023438 105.26716613769531 C 174.2642822265625 108.45573425292969 179.38919067382812 112.81880187988281 171.39390563964844 114.8443374633789 C 178.10391235351562 114.6146240234375 179.70816040039062 115.77164459228516 183.6052703857422 113.03728485107422 C 179.17276000976562 110.54705047607422 180.34085083007812 105.83430480957031 173.53036499023438 105.26716613769531" stroke-width="2.0" fill="rgb(42, 16, 3)" opacity="1.0778747" stroke="rgb(0, 0, 0)" stroke-opacity="0.0" stroke-linecap="round" stroke-linejoin="round"/>
    <path d="M 344.09722900390625 107.10055541992188 C 341.5589904785156 112.1609115600586 346.427978515625 116.3189926147461 337.2893981933594 119.51710510253906 L 351.45367431640625 118.18387603759766 C 346.8970031738281 116.20488739013672 348.1656188964844 110.85926818847656 344.09722900390625 107.10055541992188" stroke-width="2.0" fill="rgb(30, 29, 20)" opacity="1.0631053" stroke="rgb(0, 0, 0)" stroke-opacity="0.0" stroke-linecap="round" stroke-linejoin="round"/>
    <path d="M 254.05120849609375 54.97751998901367 C 250.825439453125 55.37834167480469 248.8159942626953 63.284358978271484 244.00701904296875 63.09711837768555 C 247.39654541015625 58.221588134765625 249.1254425048828 66.8114013671875 252.34181213378906 66.40591430664062 C 253.62391662597656 63.23746871948242 255.34841918945312 60.02895736694336 254.05120849609375 54.97751998901367" stroke-width="2.0" fill="rgb(39, 34, 26)" opacity="1.1003957" stroke="rgb(0, 0, 0)" stroke-opacity="0.0" stroke-linecap="round" stroke-linejoin="round"/>
    <path d="M 240.43289184570312 116.98201751708984 C 235.33119201660156 116.529052734375 221.4757537841797 120.83075714111328 232.89964294433594 119.8134765625 L 235.72898864746094 129.01983642578125 C 239.78846740722656 124.46395874023438 234.9607696533203 121.14170837402344 240.43289184570312 116.98201751708984" stroke-width="2.0" fill="rgb(39, 34, 24)" opacity="1.1079974" stroke="rgb(0, 0, 0)" stroke-opacity="0.0" stroke-linecap="round" stroke-linejoin="round"/>
    <path d="M 222.0393829345703 110.8220443725586 C 217.52154541015625 111.53385925292969 206.18113708496094 116.1609878540039 215.81204223632812 114.86144256591797 C 219.48239135742188 130.0513153076172 219.277099609375 120.33904266357422 222.0393829345703 110.8220443725586" stroke-width="2.0" fill="rgb(38, 33, 26)" opacity="1.0777619" stroke="rgb(0, 0, 0)" stroke-opacity="0.0" stroke-linecap="round" stroke-linejoin="round"/>
    <path d="M 139.56446838378906 93.33570098876953 C 135.55836486816406 89.82211303710938 121.46236419677734 95.66727447509766 133.03359985351562 96.53260040283203 C 129.24070739746094 105.10901641845703 135.42001342773438 99.25914001464844 139.56446838378906 93.33570098876953" stroke-width="2.0" fill="rgb(60, 21, 12)" opacity="1.0648285" stroke="rgb(0, 0, 0)" stroke-opacity="0.0" stroke-linecap="round" stroke-linejoin="round"/>
    <path d="M 277.6672058105469 139.67237854003906 C 273.2283935546875 136.4521942138672 267.5881652832031 139.80856323242188 264.2198181152344 143.31878662109375 C 270.49407958984375 141.15982055664062 269.3547058105469 141.98135375976562 267.9481201171875 147.19024658203125 L 277.6672058105469 139.67237854003906" stroke-width="2.0" fill="rgb(46, 42, 34)" opacity="1.1058147" stroke="rgb(0, 0, 0)" stroke-opacity="0.0" stroke-linecap="round" stroke-linejoin="round"/>
    <path d="M 304.2452087402344 90.05039978027344 C 302.486328125 98.70182800292969 302.80999755859375 99.89326477050781 312.4284973144531 95.9527587890625 C 307.9955139160156 93.62438201904297 308.8193054199219 89.48358917236328 304.2452087402344 90.05039978027344" stroke-width="2.0" fill="rgb(46, 43, 36)" opacity="1.0865364" stroke="rgb(0, 0, 0)" stroke-opacity="0.0" stroke-linecap="round" stroke-linejoin="round"/>
    <path d="M 378.265380859375 90.18245697021484 C 376.7651672363281 94.1488265991211 378.0898132324219 98.14791107177734 377.7276611328125 102.12713623046875 L 383.59796142578125 101.7002182006836 C 379.1903991699219 97.42721557617188 383.0587158203125 94.23741912841797 378.265380859375 90.18245697021484" stroke-width="2.0" fill="rgb(0, -5, -8)" opacity="0.8398793" stroke="rgb(0, 0, 0)" stroke-opacity="0.0" stroke-linecap="round" stroke-linejoin="round"/>
    <path d="M 186.7422637939453 118.15950012207031 C 192.52398681640625 122.1480484008789 195.51849365234375 117.34444427490234 199.45606994628906 116.78771209716797 C 195.68475341796875 111.37040710449219 185.73568725585938 107.45646667480469 191.42453002929688 115.46416473388672 L 186.7422637939453 118.15950012207031" stroke-width="2.0" fill="rgb(69, 38, 25)" opacity="1.0273738" stroke="rgb(0, 0, 0)" stroke-opacity="0.0" stroke-linecap="round" stroke-linejoin="round"/>
    <path d="M 297.70709228515625 131.94033813476562 C 291.6684265136719 132.89923095703125 279.6896057128906 136.62486267089844 291.6904296875 135.23741149902344 C 291.7686767578125 150.1039276123047 294.1942138671875 140.0818328857422 297.70709228515625 131.94033813476562" stroke-width="2.0" fill="rgb(35, 31, 25)" opacity="1.0925153" stroke="rgb(0, 0, 0)" stroke-opacity="0.0" stroke-linecap="round" stroke-linejoin="round"/>
    <path d="M 297.1880187988281 79.47018432617188 C 292.182861328125 85.20508575439453 294.8203125 95.52313232421875 302.0471496582031 88.57527923583984 C 294.9782409667969 88.46854400634766 301.38983154296875 82.67697143554688 297.1880187988281 79.47018432617188" stroke-width="2.0" fill="rgb(-4, -7, -9)" opacity="0.87846136" stroke="rgb(0, 0, 0)" stroke-opacity="0.0" stroke-linecap="round" stroke-linejoin="round"/>
    <path d="M 316.8815612792969 131.09202575683594 C 313.678955078125 124.90608215332031 310.9684753417969 132.4699249267578 307.3128662109375 131.9661865234375 C 316.9888610839844 137.12469482421875 313.7601318359375 136.340087890625 316.8815612792969 131.09202575683594" stroke-width="2.0" fill="rgb(48, 44, 35)" opacity="1.0931321" stroke="rgb(0, 0, 0)" stroke-opacity="0.0" stroke-linecap="round" stroke-linejoin="round"/>
    <path d="M 422.1120910644531 252.7989501953125 C 420.05511474609375 258.1996765136719 420.5332946777344 263.38592529296875 421.198974609375 267.5642395019531 C 425.6030578613281 265.3545227050781 423.7646179199219 258.65155029296875 422.1120910644531 252.7989501953125" stroke-width="2.0" fill="rgb(75, 39, 22)" opacity="1.001887" stroke="rgb(0, 0, 0)" stroke-opacity="0.0" stroke-linecap="round" stroke-linejoin="round"/>
    <path d="M 422.3609619140625 255.88426208496094 C 419.4226989746094 260.2393493652344 424.23162841796875 266.1405029296875 422.3609619140625 255.88426208496094" stroke-width="2.0" fill="rgb(29, -7, -8)" opacity="1.0395793" stroke="rgb(0, 0, 0)" stroke-opacity="0.0" stroke-linecap="round" stroke-linejoin="round"/>
  </g>
</svg>
