<?xml version="1.0" ?>
<svg xmlns="http://www.w3.org/2000/svg" version="1.1" width="512" height="384">
  <defs/>
  <g>
    <path d="M 0.0 0.0 L 512.0 0.0 L 512.0 384.0 L 0.0 384.0 L 0.0 0.0" stroke-width="0.0" fill="rgb(255, 255, 255)" opacity="1.0" stroke="rgb(0, 0, 0)" stroke-opacity="0.0" stroke-linecap="round" stroke-linejoin="round"/>
    <path d="M 0.0 2.0 L 0.0 383.0 L 511.0 383.0 L 511.0 2.0 L 0.0 2.0" stroke-width="2.0" fill="rgb(255, 255, 255)" opacity="1.0" stroke="rgb(0, 0, 0)" stroke-opacity="0.0" stroke-linecap="round" stroke-linejoin="round"/>
    <path d="M 301.0 9.0 C 273.1573486328125 13.288918495178223 245.38075256347656 22.056352615356445 220.0 52.0 C 189.863525390625 93.0 188.54356384277344 134.0 204.0 175.0 C 224.97921752929688 223.33041381835938 279.3212585449219 249.16404724121094 321.0 245.0 C 332.0681457519531 244.24362182617188 326.68157958984375 231.7893829345703 328.0 225.0 C 321.07763671875 222.56781005859375 317.148193359375 213.66500854492188 322.0 207.0 C 338.4940185546875 205.5245819091797 328.1309814453125 183.828857421875 332.0 173.0 C 337.6895446777344 165.59051513671875 344.8405456542969 161.28448486328125 337.0 154.0 C 342.47589111328125 146.32540893554688 338.3865051269531 136.01058959960938 346.0 130.0 C 359.0242614746094 144.0 344.7357177734375 158.0 359.0 172.0 L 360.0 204.0 C 368.7499694824219 206.2624969482422 374.2025451660156 209.62721252441406 371.0 219.0 C 364.1851501464844 222.3328857421875 362.04107666015625 225.743896484375 365.0 233.0 C 399.3130187988281 217.121826171875 424.66217041015625 177.0125732421875 429.0 148.0 C 432.9466857910156 109.93962097167969 428.4597473144531 69.4154281616211 385.0 33.0 C 357.3333435058594 12.726668357849121 329.6666564941406 8.019192695617676 301.0 9.0" stroke-width="2.0" fill="rgb(248, 238, 212)" opacity="1.0" stroke="rgb(0, 0, 0)" stroke-opacity="0.0" stroke-linecap="round" stroke-linejoin="round"/>
    <path d="M 0.0 329.0 L 0.0 383.0 L 511.0 383.0 L 511.0 329.0 L 466.0 329.0 C 456.4901428222656 336.9941711425781 443.1285095214844 335.0633239746094 432.0 338.0 C 415.3333435058594 336.9701232910156 398.6666564941406 340.2428283691406 382.0 336.0 C 378.2271728515625 325.8930969238281 367.0272216796875 325.8930969238281 362.0 336.0 C 349.8895263671875 337.3424072265625 335.4847106933594 342.0960998535156 325.0 329.0 C 312.0 330.6142272949219 299.0 325.16448974609375 286.0 333.0 C 275.0 326.0919494628906 264.0 332.71099853515625 253.0 333.0 C 243.0 328.126220703125 233.0 327.2874755859375 223.0 334.0 C 211.6666717529297 330.1856994628906 200.3333282470703 328.1564025878906 189.0 333.0 C 179.6666717529297 324.7933654785156 170.3333282470703 330.872802734375 161.0 329.0 C 158.0 333.0267639160156 155.0 333.4427490234375 152.0 335.0 C 113.33333587646484 334.37603759765625 74.66666412353516 333.5302429199219 36.0 334.0 C 24.33333396911621 326.1958312988281 12.666666984558105 329.7305908203125 0.0 329.0" stroke-width="2.0" fill="rgb(0, 0, 0)" opacity="1.0" stroke="rgb(0, 0, 0)" stroke-opacity="0.0" stroke-linecap="round" stroke-linejoin="round"/>
    <path d="M 44.0 227.0 C 45.11796951293945 234.6666717529297 38.813560485839844 242.3333282470703 41.0 250.0 L 37.0 253.0 C 41.9931640625 265.0 36.10869216918945 277.0 38.0 289.0 L 28.0 291.0 C 29.109455108642578 304.3333435058594 25.642107009887695 317.6666564941406 30.0 331.0 C 72.66666412353516 332.00616455078125 115.33333587646484 333.97442626953125 158.0 330.0 L 159.0 292.0 C 154.6666717529297 287.0801696777344 150.3333282470703 293.17333984375 146.0 289.0 C 148.1256866455078 277.0 141.8766326904297 265.0 147.0 253.0 C 139.4348907470703 246.32424926757812 144.06564331054688 235.3401336669922 140.0 227.0 C 134.7232208251953 233.34811401367188 137.60931396484375 246.65188598632812 132.0 253.0 C 133.17457580566406 261.0 136.44581604003906 269.0 131.0 277.0 L 131.0 290.0 L 117.0 290.0 C 116.31453704833984 277.6965637207031 108.31715393066406 264.88787841796875 94.0 260.0 L 92.0 253.0 C 91.86937713623047 264.7962341308594 78.3517074584961 262.9717102050781 72.0 273.0 L 67.0 290.0 L 53.0 290.0 C 51.964351654052734 277.6666564941406 48.39228820800781 265.3333435058594 52.0 253.0 C 46.288352966308594 250.63340759277344 50.10146713256836 244.02479553222656 49.0 240.0 C 44.59344482421875 235.3333282470703 47.06684494018555 230.6666717529297 44.0 227.0" stroke-width="2.0" fill="rgb(4, 1, 1)" opacity="1.0" stroke="rgb(0, 0, 0)" stroke-opacity="0.0" stroke-linecap="round" stroke-linejoin="round"/>
    <path d="M 346.0 132.0 C 340.85113525390625 137.6666717529297 346.5885314941406 143.3333282470703 341.0 149.0 C 339.7878112792969 154.0 346.1959228515625 159.0 344.0 164.0 C 326.8929443359375 174.33139038085938 338.3016357421875 192.42552185058594 335.0 206.0 C 331.0 210.77476501464844 327.0 205.75308227539062 323.0 209.0 C 322.5377197265625 215.77865600585938 321.9134521484375 220.10926818847656 330.0 220.0 L 330.0 267.0 C 322.2492980957031 266.54547119140625 319.86517333984375 274.7771301269531 326.0 281.0 L 327.0 328.0 C 336.0694580078125 337.8743896484375 349.2821044921875 333.6398010253906 360.0 333.0 L 365.0 328.0 L 365.0 281.0 C 372.4078063964844 276.31231689453125 370.11981201171875 266.59765625 362.0 267.0 L 362.0 220.0 C 369.44464111328125 220.11337280273438 369.75860595703125 214.9658203125 369.0 209.0 C 365.0 205.75308227539062 361.0 210.77476501464844 357.0 206.0 C 353.81085205078125 192.33673095703125 364.91473388671875 174.45774841308594 348.0 164.0 C 351.2330017089844 153.6666717529297 349.07867431640625 143.3333282470703 346.0 132.0" stroke-width="2.0" fill="rgb(4, 2, 2)" opacity="1.0" stroke="rgb(0, 0, 0)" stroke-opacity="0.0" stroke-linecap="round" stroke-linejoin="round"/>
    <path d="M 182.0 270.0 C 187.7131805419922 289.6666564941406 182.14865112304688 309.3333435058594 187.0 329.0 C 202.6154327392578 333.36199951171875 191.6794891357422 316.4642333984375 204.0 310.0 C 214.39404296875 311.6124267578125 210.8993682861328 322.7942199707031 214.0 329.0 L 227.0 329.0 C 229.68370056152344 320.1042785644531 224.04725646972656 307.8025207519531 238.0 302.0 C 252.5166778564453 305.9113464355469 247.67591857910156 320.357177734375 250.0 329.0 C 259.60546875 334.1090087890625 268.5687561035156 325.9337158203125 265.0 316.0 C 268.46160888671875 310.17572021484375 274.1161193847656 307.7869873046875 279.0 315.0 C 278.93975830078125 322.52044677734375 281.1733703613281 334.8760070800781 292.0 327.0 C 292.16314697265625 308.0 290.7135925292969 289.0 295.0 270.0 C 286.1012268066406 252.66461181640625 268.0727844238281 273.2106628417969 279.0 283.0 L 279.0 300.0 C 269.4894104003906 302.58917236328125 254.60794067382812 303.2548522949219 256.0 289.0 C 270.7724914550781 273.8128662109375 257.6069030761719 257.4266052246094 240.0 245.0 C 246.75489807128906 241.4452667236328 246.75489807128906 239.76902770996094 240.0 239.0 L 235.0 231.0 C 232.25875854492188 235.3333282470703 234.2594451904297 239.6666717529297 238.0 244.0 C 220.294677734375 257.1888732910156 205.86248779296875 273.2059020996094 221.0 289.0 C 222.39205932617188 303.2548522949219 207.5105743408203 302.58917236328125 198.0 300.0 C 193.5568389892578 288.3333435058594 206.93820190429688 276.6666564941406 197.0 265.0 C 192.43472290039062 258.9459228515625 185.98895263671875 264.2568359375 182.0 270.0" stroke-width="2.0" fill="rgb(8, 2, 2)" opacity="1.0" stroke="rgb(0, 0, 0)" stroke-opacity="0.0" stroke-linecap="round" stroke-linejoin="round"/>
    <path d="M 451.0 286.0 C 441.3333435058594 275.3654479980469 431.6666564941406 276.97613525390625 422.0 265.0 C 413.6601867675781 275.81768798828125 401.0048522949219 275.53863525390625 391.0 288.0 C 384.710693359375 301.6666564941406 384.6788024902344 315.3333435058594 381.0 329.0 C 393.3333435058594 339.2613830566406 405.6666564941406 330.71734619140625 418.0 335.0 C 433.02752685546875 333.6695861816406 450.6295166015625 337.65435791015625 464.0 327.0 C 455.6438293457031 313.6666564941406 461.273681640625 300.3333435058594 451.0 286.0" stroke-width="2.0" fill="rgb(2, 0, 1)" opacity="1.0" stroke="rgb(0, 0, 0)" stroke-opacity="0.0" stroke-linecap="round" stroke-linejoin="round"/>
    <path d="M 45.0 224.0 C 43.655086517333984 233.97250366210938 40.013458251953125 240.93821716308594 41.0 251.0 C 36.66307067871094 253.6072540283203 33.23856735229492 254.5730743408203 39.0 257.0 C 37.92223358154297 263.96026611328125 41.69179916381836 272.58837890625 36.0 278.0 C 41.51116943359375 282.44915771484375 34.06658172607422 289.5494384765625 41.0 291.0 L 51.0 290.0 C 55.197418212890625 277.37518310546875 47.27187728881836 264.6605224609375 53.0 253.0 L 49.0 251.0 C 50.7021484375 241.24197387695312 44.9662971496582 234.57308959960938 45.0 224.0" stroke-width="2.0" fill="rgb(16, 5, 3)" opacity="1.0" stroke="rgb(0, 0, 0)" stroke-opacity="0.0" stroke-linecap="round" stroke-linejoin="round"/>
    <path d="M 139.0 224.0 L 135.0 251.0 C 130.68777465820312 253.75953674316406 129.0413055419922 254.51039123535156 134.0 258.0 C 135.76254272460938 269.44378662109375 129.97683715820312 277.94378662109375 132.0 289.0 C 136.6666717529297 292.0432434082031 141.3333282470703 291.4743957519531 146.0 289.0 C 143.1953125 284.2956237792969 151.88189697265625 276.6672058105469 145.0 275.0 L 145.0 257.0 C 150.7614288330078 255.04110717773438 147.33692932128906 252.8687286376953 143.0 251.0 C 144.71939086914062 242.3333282470703 139.5465545654297 233.6666717529297 139.0 224.0" stroke-width="2.0" fill="rgb(14, 3, 2)" opacity="1.0" stroke="rgb(0, 0, 0)" stroke-opacity="0.0" stroke-linecap="round" stroke-linejoin="round"/>
    <path d="M 285.0 261.0 C 274.0710754394531 267.6318664550781 273.476318359375 276.0081787109375 279.0 284.0 C 277.4098815917969 293.2360534667969 278.01373291015625 305.20947265625 291.0 304.0 C 293.1212463378906 293.6666564941406 290.52740478515625 283.3333435058594 296.0 273.0 C 294.98773193359375 268.90960693359375 290.6537170410156 263.3592834472656 285.0 261.0" stroke-width="2.0" fill="rgb(13, 4, 3)" opacity="1.0" stroke="rgb(0, 0, 0)" stroke-opacity="0.0" stroke-linecap="round" stroke-linejoin="round"/>
    <path d="M 239.0 303.0 C 227.29855346679688 306.6474609375 227.6598663330078 319.763427734375 230.0 328.0 L 248.0 327.0 C 247.494873046875 319.6580810546875 251.00428771972656 309.67816162109375 239.0 303.0" stroke-width="2.0" fill="rgb(205, 126, 63)" opacity="1.0" stroke="rgb(0, 0, 0)" stroke-opacity="0.0" stroke-linecap="round" stroke-linejoin="round"/>
    <path d="M 464.0 323.0 L 466.0 327.0 L 511.0 327.0 L 511.0 321.0 L 464.0 323.0" stroke-width="2.0" fill="rgb(219, 132, 63)" opacity="1.0" stroke="rgb(0, 0, 0)" stroke-opacity="0.0" stroke-linecap="round" stroke-linejoin="round"/>
    <path d="M 190.0 262.0 C 182.52931213378906 266.9376220703125 178.45994567871094 273.69189453125 184.0 280.0 C 190.34124755859375 277.2057800292969 203.029541015625 284.0191955566406 202.0 272.0 C 200.2623291015625 267.888671875 195.35951232910156 262.5245056152344 190.0 262.0" stroke-width="2.0" fill="rgb(13, 5, 3)" opacity="1.0" stroke="rgb(0, 0, 0)" stroke-opacity="0.0" stroke-linecap="round" stroke-linejoin="round"/>
    <path d="M 272.0 311.0 C 263.74609375 314.5898132324219 266.2831115722656 321.81439208984375 266.0 327.0 C 273.88763427734375 330.6533203125 282.13702392578125 327.37359619140625 279.0 318.0 C 277.2216796875 315.3485107421875 276.4584045410156 312.11181640625 272.0 311.0" stroke-width="2.0" fill="rgb(200, 125, 63)" opacity="1.0" stroke="rgb(0, 0, 0)" stroke-opacity="0.0" stroke-linecap="round" stroke-linejoin="round"/>
    <path d="M 346.0 131.0 C 342.0552673339844 142.0 341.0315246582031 153.0 344.0 164.0 C 351.6548156738281 165.8866729736328 344.4931945800781 157.87149047851562 351.0 154.0 C 349.14593505859375 147.0 348.5517272949219 140.0 346.0 131.0" stroke-width="2.0" fill="rgb(19, 16, 13)" opacity="1.0" stroke="rgb(0, 0, 0)" stroke-opacity="0.0" stroke-linecap="round" stroke-linejoin="round"/>
    <path d="M 205.0 311.0 C 193.29615783691406 317.81072998046875 198.71363830566406 332.5732116699219 210.0 328.0 C 211.42442321777344 322.9830322265625 213.3605499267578 315.3560485839844 205.0 311.0" stroke-width="2.0" fill="rgb(208, 129, 66)" opacity="1.0" stroke="rgb(0, 0, 0)" stroke-opacity="0.0" stroke-linecap="round" stroke-linejoin="round"/>
    <path d="M 172.0 135.0 C 168.40518188476562 132.20457458496094 158.15171813964844 135.40415954589844 162.0 141.0 C 149.94541931152344 140.43397521972656 151.96856689453125 157.7500762939453 163.0 148.0 L 172.0 135.0" stroke-width="2.0" fill="rgb(95, 53, 29)" opacity="1.0" stroke="rgb(0, 0, 0)" stroke-opacity="0.0" stroke-linecap="round" stroke-linejoin="round"/>
    <path d="M 138.0 132.0 C 145.75221252441406 133.09506225585938 148.53077697753906 127.96387481689453 155.0 125.0 C 148.6371612548828 116.0149917602539 137.44528198242188 120.0092544555664 141.0 130.0 L 138.0 132.0" stroke-width="2.0" fill="rgb(60, 30, 16)" opacity="1.0" stroke="rgb(0, 0, 0)" stroke-opacity="0.0" stroke-linecap="round" stroke-linejoin="round"/>
    <path d="M 365.0 335.0 C 370.2774353027344 334.2758483886719 385.706298828125 339.0932922363281 378.0 328.0 C 373.30615234375 328.2831115722656 363.8724670410156 325.74609375 365.0 335.0" stroke-width="2.0" fill="rgb(15, 7, 6)" opacity="1.0" stroke="rgb(0, 0, 0)" stroke-opacity="0.0" stroke-linecap="round" stroke-linejoin="round"/>
    <path d="M 297.0 80.0 C 294.45867919921875 85.213623046875 288.4857177734375 88.67697143554688 289.0 95.0 C 298.7475280761719 98.0215835571289 300.49237060546875 88.2339096069336 297.0 80.0" stroke-width="2.0" fill="rgb(58, 55, 49)" opacity="1.0" stroke="rgb(0, 0, 0)" stroke-opacity="0.0" stroke-linecap="round" stroke-linejoin="round"/>
    <path d="M 361.0 269.0 C 357.37713623046875 275.12896728515625 362.3072509765625 281.4198913574219 369.0 279.0 C 369.1724548339844 273.4790344238281 370.67364501953125 264.0133056640625 361.0 269.0" stroke-width="2.0" fill="rgb(11, 1, 1)" opacity="1.0" stroke="rgb(0, 0, 0)" stroke-opacity="0.0" stroke-linecap="round" stroke-linejoin="round"/>
    <path d="M 343.0 147.0 C 333.6390686035156 156.83499145507812 354.9608459472656 160.9945526123047 351.0 149.0 C 348.6666564941406 145.63992309570312 346.3333435058594 147.44342041015625 343.0 147.0" stroke-width="2.0" fill="rgb(14, 13, 12)" opacity="1.0" stroke="rgb(0, 0, 0)" stroke-opacity="0.0" stroke-linecap="round" stroke-linejoin="round"/>
    <path d="M 236.0 229.0 C 225.39828491210938 237.5101318359375 242.94622802734375 250.22592163085938 248.0 239.0 C 242.98956298828125 242.76722717285156 234.13064575195312 235.82376098632812 236.0 229.0" stroke-width="2.0" fill="rgb(48, 20, 7)" opacity="1.0" stroke="rgb(0, 0, 0)" stroke-opacity="0.0" stroke-linecap="round" stroke-linejoin="round"/>
    <path d="M 214.0 148.0 C 212.18798828125 153.2198028564453 201.90725708007812 155.78860473632812 210.0 155.0 C 213.163818359375 157.2716064453125 213.34228515625 162.8015594482422 217.0 162.0 C 216.90045166015625 157.64498901367188 218.35887145996094 150.69570922851562 214.0 148.0" stroke-width="2.0" fill="rgb(57, 53, 45)" opacity="1.0" stroke="rgb(0, 0, 0)" stroke-opacity="0.0" stroke-linecap="round" stroke-linejoin="round"/>
    <path d="M 94.0 185.0 C 98.43890380859375 184.3949432373047 100.33891296386719 192.1086883544922 103.0 195.0 C 105.68305969238281 191.0 102.99742889404297 187.0 107.0 183.0 L 94.0 185.0" stroke-width="2.0" fill="rgb(58, 22, 9)" opacity="1.0" stroke="rgb(0, 0, 0)" stroke-opacity="0.0" stroke-linecap="round" stroke-linejoin="round"/>
    <path d="M 149.0 181.0 L 158.0 191.0 L 160.0 179.0 C 156.6666717529297 178.51605224609375 153.3333282470703 179.28372192382812 149.0 181.0" stroke-width="2.0" fill="rgb(60, 26, 10)" opacity="1.0" stroke="rgb(0, 0, 0)" stroke-opacity="0.0" stroke-linecap="round" stroke-linejoin="round"/>
    <path d="M 155.0 156.0 C 156.35289001464844 159.39523315429688 159.40939331054688 164.1074981689453 154.0 166.0 C 158.0 166.30804443359375 162.0 166.40499877929688 166.0 165.0 C 162.89564514160156 164.0293731689453 161.9688720703125 156.17250061035156 155.0 156.0" stroke-width="2.0" fill="rgb(61, 26, 12)" opacity="1.0" stroke="rgb(0, 0, 0)" stroke-opacity="0.0" stroke-linecap="round" stroke-linejoin="round"/>
    <path d="M 64.0 165.0 C 69.73529052734375 162.0666046142578 71.59127044677734 173.39688110351562 76.0 173.0 L 76.0 163.0 L 64.0 165.0" stroke-width="2.0" fill="rgb(61, 26, 12)" opacity="1.0" stroke="rgb(0, 0, 0)" stroke-opacity="0.0" stroke-linecap="round" stroke-linejoin="round"/>
    <path d="M 378.0 90.0 C 375.74786376953125 93.96442413330078 378.5644836425781 99.58319854736328 374.0 102.0 C 377.6666564941406 102.31939697265625 381.3333435058594 102.05491638183594 385.0 100.0 C 380.6896057128906 98.34113311767578 382.09027099609375 94.12901306152344 378.0 90.0" stroke-width="2.0" fill="rgb(76, 72, 62)" opacity="1.0" stroke="rgb(0, 0, 0)" stroke-opacity="0.0" stroke-linecap="round" stroke-linejoin="round"/>
    <path d="M 172.0 135.0 C 168.47885131835938 132.22457885742188 154.3640594482422 137.88365173339844 164.0 139.0 C 164.6983642578125 147.72293090820312 168.59019470214844 141.0347137451172 172.0 135.0" stroke-width="2.0" fill="rgb(77, 35, 15)" opacity="1.0" stroke="rgb(0, 0, 0)" stroke-opacity="0.0" stroke-linecap="round" stroke-linejoin="round"/>
    <path d="M 140.0 149.0 L 133.0 141.0 C 132.2055206298828 145.3760986328125 131.23565673828125 150.5930938720703 127.0 151.0 L 140.0 149.0" stroke-width="2.0" fill="rgb(48, 21, 8)" opacity="1.0" stroke="rgb(0, 0, 0)" stroke-opacity="0.0" stroke-linecap="round" stroke-linejoin="round"/>
    <path d="M 153.0 148.0 C 157.50637817382812 146.5298309326172 153.19361877441406 152.4701690673828 157.0 151.0 L 165.0 146.0 C 161.2297821044922 141.91835021972656 156.52969360351562 141.42031860351562 153.0 148.0" stroke-width="2.0" fill="rgb(63, 29, 14)" opacity="1.0" stroke="rgb(0, 0, 0)" stroke-opacity="0.0" stroke-linecap="round" stroke-linejoin="round"/>
    <path d="M 333.0 88.0 C 331.78656005859375 92.56812286376953 331.8534240722656 98.14331817626953 329.0 100.0 L 339.0 98.0 L 333.0 88.0" stroke-width="2.0" fill="rgb(60, 58, 48)" opacity="1.0" stroke="rgb(0, 0, 0)" stroke-opacity="0.0" stroke-linecap="round" stroke-linejoin="round"/>
    <path d="M 216.0 85.0 L 229.0 85.0 C 224.38861083984375 83.4522476196289 227.34146118164062 78.9977035522461 222.0 78.0 C 218.27145385742188 76.56565856933594 223.33880615234375 85.43434143066406 216.0 85.0" stroke-width="2.0" fill="rgb(79, 77, 65)" opacity="1.0" stroke="rgb(0, 0, 0)" stroke-opacity="0.0" stroke-linecap="round" stroke-linejoin="round"/>
    <path d="M 174.0 105.0 C 173.52719116210938 107.71397399902344 177.4733123779297 112.93619537353516 172.0 114.0 C 177.6028594970703 113.68970489501953 179.04730224609375 115.11058044433594 183.0 112.0 C 179.17355346679688 110.4522476196289 179.80654907226562 105.9977035522461 174.0 105.0" stroke-width="2.0" fill="rgb(65, 30, 11)" opacity="1.0" stroke="rgb(0, 0, 0)" stroke-opacity="0.0" stroke-linecap="round" stroke-linejoin="round"/>
    <path d="M 344.0 107.0 C 341.3436584472656 110.6747817993164 345.4643859863281 115.85306549072266 339.0 118.0 L 350.0 117.0 C 347.2288513183594 116.14312744140625 346.5389099121094 111.59184265136719 344.0 107.0" stroke-width="2.0" fill="rgb(47, 45, 34)" opacity="1.0" stroke="rgb(0, 0, 0)" stroke-opacity="0.0" stroke-linecap="round" stroke-linejoin="round"/>
    <path d="M 254.0 55.0 C 250.00152587890625 54.537479400634766 248.4492950439453 62.04175567626953 244.0 62.0 C 246.6666717529297 60.1287727355957 249.3333282470703 65.97257232666016 252.0 65.0 C 252.44529724121094 62.0 255.6949462890625 59.0 254.0 55.0" stroke-width="2.0" fill="rgb(64, 60, 50)" opacity="1.0" stroke="rgb(0, 0, 0)" stroke-opacity="0.0" stroke-linecap="round" stroke-linejoin="round"/>
    <path d="M 239.0 117.0 C 235.7155303955078 116.9100112915039 223.34197998046875 117.53436279296875 233.0 121.0 L 235.0 128.0 C 239.76766967773438 124.66666412353516 234.23233032226562 121.33333587646484 239.0 117.0" stroke-width="2.0" fill="rgb(67, 62, 51)" opacity="1.0" stroke="rgb(0, 0, 0)" stroke-opacity="0.0" stroke-linecap="round" stroke-linejoin="round"/>
    <path d="M 221.0 111.0 C 217.19447326660156 111.53377532958984 205.91488647460938 113.70026397705078 216.0 116.0 C 218.27371215820312 126.1755599975586 218.5299835205078 117.30319213867188 221.0 111.0" stroke-width="2.0" fill="rgb(59, 54, 44)" opacity="1.0" stroke="rgb(0, 0, 0)" stroke-opacity="0.0" stroke-linecap="round" stroke-linejoin="round"/>
    <path d="M 139.0 93.0 C 135.4696807861328 89.78350067138672 122.5906753540039 94.6363525390625 132.0 96.0 C 129.35069274902344 103.41273498535156 135.73008728027344 98.7406234741211 139.0 93.0" stroke-width="2.0" fill="rgb(81, 38, 19)" opacity="1.0" stroke="rgb(0, 0, 0)" stroke-opacity="0.0" stroke-linecap="round" stroke-linejoin="round"/>
    <path d="M 277.0 139.0 C 273.3047180175781 136.33543395996094 267.0384216308594 139.3662567138672 265.0 142.0 C 267.59844970703125 140.99215698242188 268.59844970703125 144.22792053222656 268.0 146.0 L 277.0 139.0" stroke-width="2.0" fill="rgb(74, 70, 59)" opacity="1.0" stroke="rgb(0, 0, 0)" stroke-opacity="0.0" stroke-linecap="round" stroke-linejoin="round"/>
    <path d="M 303.0 90.0 C 301.2229309082031 96.6279296875 303.9537048339844 99.68572235107422 311.0 95.0 C 308.6522216796875 92.35879516601562 307.2464294433594 88.73400115966797 303.0 90.0" stroke-width="2.0" fill="rgb(67, 63, 54)" opacity="1.0" stroke="rgb(0, 0, 0)" stroke-opacity="0.0" stroke-linecap="round" stroke-linejoin="round"/>
    <path d="M 378.0 90.0 C 376.6240234375 93.66666412353516 378.42791748046875 97.33333587646484 376.0 101.0 L 384.0 100.0 C 378.713134765625 97.0 382.6405334472656 94.0 378.0 90.0" stroke-width="2.0" fill="rgb(44, 39, 32)" opacity="1.0" stroke="rgb(0, 0, 0)" stroke-opacity="0.0" stroke-linecap="round" stroke-linejoin="round"/>
    <path d="M 188.0 117.0 C 192.28404235839844 120.86267852783203 195.78973388671875 117.20835876464844 198.0 115.0 C 195.68850708007812 112.45381164550781 186.93894958496094 108.33329772949219 191.0 115.0 L 188.0 117.0" stroke-width="2.0" fill="rgb(58, 33, 22)" opacity="1.0" stroke="rgb(0, 0, 0)" stroke-opacity="0.0" stroke-linecap="round" stroke-linejoin="round"/>
    <path d="M 297.0 132.0 C 292.36053466796875 132.42539978027344 281.9175720214844 133.75228881835938 292.0 137.0 C 291.4525146484375 145.9567413330078 293.81927490234375 137.2724609375 297.0 132.0" stroke-width="2.0" fill="rgb(59, 54, 45)" opacity="1.0" stroke="rgb(0, 0, 0)" stroke-opacity="0.0" stroke-linecap="round" stroke-linejoin="round"/>
    <path d="M 296.0 80.0 C 291.96710205078125 84.50154113769531 294.8774719238281 94.34823608398438 300.0 88.0 C 295.5894470214844 87.25534057617188 299.9837341308594 82.39099884033203 296.0 80.0" stroke-width="2.0" fill="rgb(28, 25, 20)" opacity="1.0" stroke="rgb(0, 0, 0)" stroke-opacity="0.0" stroke-linecap="round" stroke-linejoin="round"/>
    <path d="M 317.0 130.0 C 313.3333435058594 125.28833770751953 309.6666564941406 131.87286376953125 306.0 132.0 C 315.0144958496094 135.3258056640625 313.39532470703125 134.01573181152344 317.0 130.0" stroke-width="2.0" fill="rgb(72, 67, 57)" opacity="1.0" stroke="rgb(0, 0, 0)" stroke-opacity="0.0" stroke-linecap="round" stroke-linejoin="round"/>
    <path d="M 422.0 254.0 C 418.630859375 258.3333435058594 420.5638122558594 262.6666564941406 421.0 267.0 C 424.5733947753906 264.9615783691406 423.2879638671875 258.6952819824219 422.0 254.0" stroke-width="2.0" fill="rgb(94, 50, 24)" opacity="1.0" stroke="rgb(0, 0, 0)" stroke-opacity="0.0" stroke-linecap="round" stroke-linejoin="round"/>
    <path d="M 44.0 224.0 C 42.380699157714844 228.4973602294922 43.7830924987793 240.59747314453125 47.0 230.0 L 44.0 224.0" stroke-width="2.0" fill="rgb(73, 36, 15)" opacity="1.0" stroke="rgb(0, 0, 0)" stroke-opacity="0.0" stroke-linecap="round" stroke-linejoin="round"/>
    <path d="M 422.0 256.0 C 418.5429382324219 259.9554748535156 423.7138977050781 265.5172119140625 422.0 256.0" stroke-width="2.0" fill="rgb(49, 11, 1)" opacity="1.0" stroke="rgb(0, 0, 0)" stroke-opacity="0.0" stroke-linecap="round" stroke-linejoin="round"/>
  </g>
</svg>
