<?xml version="1.0" ?>
<svg xmlns="http://www.w3.org/2000/svg" version="1.1" width="407" height="512">
  <defs/>
  <g>
    <path d="M 214.65773010253906 68.88418579101562 C 203.55511474609375 83.05780792236328 200.00146484375 84.60631561279297 139.39588928222656 80.4990234375 C 128.84048461914062 75.33211517333984 123.65400695800781 71.58911895751953 127.91395568847656 2.1478817462921143 C 141.89707946777344 2.2282755374908447 137.77174377441406 1.9065837860107422 219.27418518066406 2.1411306858062744 C 212.68673706054688 10.755091667175293 215.78561401367188 7.522669315338135 214.65773010253906 68.88418579101562" stroke-width="0.0" fill="rgb(134, 172, 221)" opacity="0.25141564" stroke="rgb(220, 252, 34)" stroke-opacity="0.95023537" stroke-linecap="round" stroke-linejoin="round"/>
    <path d="M 107.90412139892578 357.845703125 C 125.80128479003906 332.6877746582031 125.851806640625 424.5298156738281 101.9738540649414 400.45367431640625 C 54.37907409667969 434.8094787597656 69.60192108154297 436.0080261230469 66.19525146484375 266.48980712890625 C 83.7839126586914 286.8661193847656 93.41390991210938 385.8284912109375 89.82453155517578 270.4479675292969 C 113.48760223388672 269.3368835449219 103.46476745605469 254.8011016845703 107.90412139892578 357.845703125" stroke-width="0.0" fill="rgb(255, 250, 232)" opacity="0.8355632" stroke="rgb(10, 48, 173)" stroke-opacity="0.77879363" stroke-linecap="round" stroke-linejoin="round"/>
    <path d="M 329.2616271972656 518.8483276367188 C 144.3214874267578 450.0337829589844 307.5074462890625 400.7001037597656 168.19053649902344 438.2578430175781 C 83.84683990478516 459.6622314453125 43.88958740234375 464.2889404296875 -8.175294876098633 478.01617431640625 C -5.369480133056641 339.8604736328125 34.783390045166016 472.1265869140625 176.87876892089844 407.8205871582031 C 86.53182220458984 292.3239440917969 219.2272491455078 247.73265075683594 329.2616271972656 518.8483276367188" stroke-width="0.0" fill="rgb(25, 36, 61)" opacity="0.30341843" stroke="rgb(112, 90, 41)" stroke-opacity="0.7667503" stroke-linecap="round" stroke-linejoin="round"/>
    <path d="M 402.5045166015625 469.883544921875 C 369.6390380859375 475.9719543457031 385.91973876953125 484.23321533203125 384.6436462402344 488.2820129394531 C 387.0702819824219 471.63970947265625 354.0418701171875 477.37335205078125 356.5275573730469 459.1716003417969 C 284.4916076660156 385.36663818359375 204.44200134277344 296.8747253417969 308.6192321777344 385.40191650390625 C 390.76385498046875 458.4364929199219 397.5063781738281 461.4065246582031 402.5045166015625 469.883544921875" stroke-width="0.0" fill="rgb(255, 250, 233)" opacity="0.93843246" stroke="rgb(125, 140, 46)" stroke-opacity="0.5996705" stroke-linecap="round" stroke-linejoin="round"/>
    <path d="M 408.2499084472656 476.4031066894531 C 392.1614074707031 478.1343688964844 401.2204284667969 489.8757629394531 378.6330871582031 491.05743408203125 C 373.6148986816406 484.7106628417969 375.375244140625 483.6876525878906 372.3960266113281 489.36492919921875 C 383.0538330078125 468.9436950683594 368.5128173828125 460.0124206542969 389.1474914550781 457.9105224609375 C 403.53692626953125 468.7961120605469 408.4941101074219 464.5605773925781 408.2499084472656 476.4031066894531" stroke-width="0.0" fill="rgb(252, 245, 231)" opacity="0.50137776" stroke="rgb(78, 68, 62)" stroke-opacity="0.9730402" stroke-linecap="round" stroke-linejoin="round"/>
    <path d="M 16.372066497802734 176.49742126464844 C 16.119178771972656 196.3840789794922 19.818012237548828 186.55526733398438 -11.097506523132324 190.71412658691406 C -6.468123912811279 192.33175659179688 -6.356531620025635 190.31967163085938 -4.4212188720703125 185.26991271972656 C -5.1402082443237305 174.74937438964844 -5.098365783691406 169.33253479003906 -1.9890034198760986 173.91183471679688 C 1.9085513353347778 177.62989807128906 18.337444305419922 172.79537963867188 16.372066497802734 176.49742126464844" stroke-width="0.0" fill="rgb(244, 241, 229)" opacity="1.0" stroke="rgb(115, 163, 113)" stroke-opacity="0.2119705" stroke-linecap="round" stroke-linejoin="round"/>
    <path d="M 419.5958251953125 491.115234375 C 411.90362548828125 498.9798583984375 416.9259033203125 496.98663330078125 380.51959228515625 497.4671630859375 C 385.5907287597656 498.7088928222656 382.470458984375 496.58697509765625 373.8392028808594 485.36651611328125 C 357.9432067871094 464.6709899902344 348.6443786621094 464.27490234375 394.01641845703125 464.9350280761719 C 417.47918701171875 465.5588684082031 417.2598876953125 460.74072265625 419.5958251953125 491.115234375" stroke-width="0.0" fill="rgb(250, 247, 234)" opacity="1.0" stroke="rgb(144, 123, 57)" stroke-opacity="0.11043889" stroke-linecap="round" stroke-linejoin="round"/>
    <path d="M 304.6742858886719 335.68115234375 C 313.0721130371094 347.6895751953125 306.7065734863281 352.30914306640625 302.88580322265625 342.8897705078125 C 257.7350769042969 350.26959228515625 304.4037780761719 320.9471435546875 263.90826416015625 333.3019104003906 C 223.19821166992188 318.47283935546875 248.53134155273438 329.8773498535156 301.7610168457031 321.5613098144531 C 304.8725280761719 309.7621765136719 304.2667541503906 313.7976989746094 304.6742858886719 335.68115234375" stroke-width="0.0" fill="rgb(255, 255, 239)" opacity="0.82424223" stroke="rgb(68, 145, 38)" stroke-opacity="0.3490212" stroke-linecap="round" stroke-linejoin="round"/>
    <path d="M 11.251468658447266 135.68667602539062 C 7.584590911865234 145.1699676513672 59.73237609863281 144.7351531982422 57.95236587524414 158.21673583984375 C 1.7293756008148193 147.71841430664062 -6.271993637084961 148.42225646972656 -11.070014953613281 145.95562744140625 C -6.545866966247559 121.91361999511719 2.3145341873168945 116.22589874267578 7.966951847076416 125.49345397949219 C 44.53323745727539 135.0797882080078 53.11902618408203 139.40736389160156 11.251468658447266 135.68667602539062" stroke-width="0.0" fill="rgb(255, 255, 237)" opacity="0.80467975" stroke="rgb(59, 125, 95)" stroke-opacity="0.93241554" stroke-linecap="round" stroke-linejoin="round"/>
    <path d="M 408.86053466796875 171.32113647460938 C 284.943603515625 292.42822265625 373.69818115234375 220.5867156982422 255.8722686767578 185.25537109375 C 228.32888793945312 167.31954956054688 235.4405059814453 199.94171142578125 233.6592254638672 152.9165802001953 C 234.79197692871094 154.45147705078125 261.28076171875 145.47947692871094 302.0716857910156 150.25527954101562 C 344.95208740234375 157.01844787597656 366.1985168457031 166.9329071044922 408.86053466796875 171.32113647460938" stroke-width="0.0" fill="rgb(27, 49, 89)" opacity="0.5069233" stroke="rgb(183, 15, 10)" stroke-opacity="0.5923688" stroke-linecap="round" stroke-linejoin="round"/>
    <path d="M 122.56214141845703 175.3103790283203 C 117.88899230957031 165.86862182617188 131.7436065673828 171.95556640625 104.86518096923828 168.19424438476562 C 104.11845397949219 167.83984375 103.24577331542969 181.07081604003906 103.56539916992188 143.2989044189453 C 105.77998352050781 141.85931396484375 97.88688659667969 138.50856018066406 121.93391418457031 145.54408264160156 C 122.21918487548828 140.832763671875 121.61512756347656 175.9698944091797 122.56214141845703 175.3103790283203" stroke-width="0.0" fill="rgb(255, 252, 232)" opacity="0.8490594" stroke="rgb(206, 94, 99)" stroke-opacity="0.7761533" stroke-linecap="round" stroke-linejoin="round"/>
    <path d="M 15.519916534423828 127.9619140625 C 24.981233596801758 136.45175170898438 18.858924865722656 153.2644500732422 13.995677947998047 149.44729614257812 C -12.337977409362793 146.57220458984375 -10.84096622467041 144.58534240722656 -4.315798759460449 114.23355865478516 C -14.835865020751953 110.50948333740234 -15.668421745300293 109.87847900390625 7.8895697593688965 115.54438781738281 C 13.23855972290039 119.05554962158203 1.8331552743911743 130.8377227783203 15.519916534423828 127.9619140625" stroke-width="0.0" fill="rgb(250, 242, 225)" opacity="0.9347133" stroke="rgb(62, 62, 116)" stroke-opacity="0.87954026" stroke-linecap="round" stroke-linejoin="round"/>
    <path d="M 418.49676513671875 321.1517028808594 C 422.3984069824219 358.56243896484375 431.6500244140625 369.0531005859375 382.8420715332031 352.9909973144531 C 358.1311340332031 330.90911865234375 345.7820129394531 364.7109069824219 303.9989318847656 324.03057861328125 C 237.05088806152344 199.07489013671875 304.6331481933594 312.4031677246094 407.20001220703125 171.6575469970703 C 473.9442138671875 153.42176818847656 431.8747253417969 211.7310333251953 418.49676513671875 321.1517028808594" stroke-width="0.0" fill="rgb(53, 55, 36)" opacity="0.50088507" stroke="rgb(116, 101, 162)" stroke-opacity="0.58868945" stroke-linecap="round" stroke-linejoin="round"/>
    <path d="M 297.7198181152344 309.1037902832031 C 303.6883239746094 326.65997314453125 303.8172302246094 322.1590270996094 263.5093994140625 324.7441101074219 C 248.30282592773438 320.763916015625 232.09632873535156 314.8669128417969 233.07252502441406 315.0784606933594 C 245.54196166992188 277.0408630371094 252.69541931152344 303.20166015625 254.00198364257812 271.1348876953125 C 269.5920715332031 297.43682861328125 275.7956848144531 269.16204833984375 297.7198181152344 309.1037902832031" stroke-width="0.0" fill="rgb(25, 69, 123)" opacity="0.9187134" stroke="rgb(92, 201, 238)" stroke-opacity="0.3983616" stroke-linecap="round" stroke-linejoin="round"/>
    <path d="M 416.3177795410156 400.5738525390625 C 423.57659912109375 432.6890563964844 435.9690246582031 441.9369201660156 393.1701965332031 438.1188049316406 C 372.6405334472656 440.8453063964844 377.7354431152344 420.4681396484375 377.1638488769531 391.93701171875 C 376.40362548828125 385.80926513671875 431.488037109375 407.5542297363281 345.187744140625 331.573974609375 C 444.7765808105469 326.9712829589844 422.4732360839844 363.7683410644531 416.3177795410156 400.5738525390625" stroke-width="0.0" fill="rgb(76, 85, 58)" opacity="0.97880954" stroke="rgb(74, 35, 143)" stroke-opacity="0.43566042" stroke-linecap="round" stroke-linejoin="round"/>
    <path d="M 70.56316375732422 185.8961181640625 C 52.792972564697266 141.23941040039062 74.06262969970703 205.953125 48.335731506347656 179.9274444580078 C 35.658546447753906 176.73667907714844 42.44782257080078 181.41156005859375 39.24324417114258 163.023193359375 C 44.80582046508789 159.63076782226562 18.345834732055664 165.01914978027344 23.00348663330078 154.3673553466797 C 69.28440856933594 163.1880340576172 91.5860595703125 159.32740783691406 70.56316375732422 185.8961181640625" stroke-width="0.0" fill="rgb(255, 255, 236)" opacity="0.82091177" stroke="rgb(214, 35, 106)" stroke-opacity="0.5096644" stroke-linecap="round" stroke-linejoin="round"/>
    <path d="M 277.3689880371094 245.20179748535156 C 281.1734619140625 253.7684783935547 280.8341979980469 253.41293334960938 257.1337585449219 251.6980438232422 C 269.5226745605469 242.2367706298828 267.5994873046875 248.4820098876953 244.0530548095703 237.9850616455078 C 243.82667541503906 237.98106384277344 277.1160583496094 239.26324462890625 285.7617492675781 236.8469696044922 C 275.4622802734375 241.6396484375 279.73748779296875 237.5890655517578 277.3689880371094 245.20179748535156" stroke-width="0.0" fill="rgb(255, 255, 235)" opacity="0.73035145" stroke="rgb(140, 250, 3)" stroke-opacity="0.006805166" stroke-linecap="round" stroke-linejoin="round"/>
    <path d="M 393.2926330566406 510.11767578125 C 323.39166259765625 553.189208984375 300.7771911621094 528.0781860351562 284.06976318359375 525.405517578125 C 265.0452880859375 519.2649536132812 254.97340393066406 527.114013671875 248.42633056640625 504.0987854003906 C 241.54161071777344 468.1216125488281 206.181640625 441.2449035644531 268.3525695800781 364.67877197265625 C 343.8827819824219 443.9645690917969 365.02239990234375 472.2537536621094 393.2926330566406 510.11767578125" stroke-width="0.0" fill="rgb(110, 126, 149)" opacity="0.36886021" stroke="rgb(253, 237, 4)" stroke-opacity="0.8721329" stroke-linecap="round" stroke-linejoin="round"/>
    <path d="M 186.84866333007812 142.09732055664062 C 189.22982788085938 151.87118530273438 189.7003936767578 147.3972625732422 181.58383178710938 147.3319854736328 C 178.012939453125 145.57659912109375 147.2377471923828 145.4962158203125 123.89515686035156 146.38262939453125 C 125.2447509765625 144.55747985839844 130.42745971679688 122.12080383300781 154.4377899169922 119.70296478271484 C 178.09054565429688 118.97695922851562 185.59262084960938 139.33343505859375 186.84866333007812 142.09732055664062" stroke-width="0.0" fill="rgb(0, 57, 126)" opacity="0.79220706" stroke="rgb(61, 171, 134)" stroke-opacity="0.067736514" stroke-linecap="round" stroke-linejoin="round"/>
    <path d="M 302.77197265625 249.95799255371094 C 305.93682861328125 250.93051147460938 287.6958312988281 253.13780212402344 287.81341552734375 254.37948608398438 C 263.28887939453125 254.9393310546875 258.3631286621094 262.66925048828125 257.13568115234375 247.37246704101562 C 270.4399719238281 242.4898681640625 269.59222412109375 240.21861267089844 294.0841369628906 234.38661193847656 C 300.88800048828125 239.60133361816406 306.2124938964844 188.9150848388672 302.77197265625 249.95799255371094" stroke-width="0.0" fill="rgb(255, 251, 232)" opacity="0.8032505" stroke="rgb(68, 217, 94)" stroke-opacity="0.51996845" stroke-linecap="round" stroke-linejoin="round"/>
    <path d="M 257.2557067871094 491.2866516113281 C 253.94595336914062 501.22406005859375 246.28456115722656 500.79266357421875 185.81687927246094 518.3820190429688 C 177.76832580566406 523.7592163085938 178.21624755859375 523.2413940429688 189.17782592773438 506.7981872558594 C 214.17935180664062 469.5693054199219 224.3404541015625 454.61871337890625 229.34344482421875 445.6849060058594 C 238.821044921875 475.4898986816406 248.02320861816406 477.0574645996094 257.2557067871094 491.2866516113281" stroke-width="0.0" fill="rgb(57, 66, 84)" opacity="0.54182744" stroke="rgb(78, 119, 163)" stroke-opacity="0.94666386" stroke-linecap="round" stroke-linejoin="round"/>
    <path d="M 208.3225860595703 195.9715118408203 C 207.8991241455078 167.49769592285156 209.0501251220703 173.51046752929688 205.1410369873047 172.6923828125 C 199.5781707763672 172.7586669921875 202.08447265625 172.08253479003906 200.97100830078125 172.1855010986328 C 202.01119995117188 164.71865844726562 202.38424682617188 133.5808868408203 207.56436157226562 143.90896606445312 C 209.19708251953125 156.82508850097656 206.7517547607422 173.41883850097656 208.3225860595703 195.9715118408203" stroke-width="0.0" fill="rgb(19, 39, 82)" opacity="0.60584134" stroke="rgb(143, 208, 21)" stroke-opacity="0.9582299" stroke-linecap="round" stroke-linejoin="round"/>
    <path d="M 262.3184509277344 246.52403259277344 C 265.56829833984375 264.796630859375 251.05404663085938 250.86398315429688 259.45745849609375 252.3309783935547 C 237.66001892089844 251.05532836914062 241.47145080566406 252.48855590820312 241.01596069335938 249.23048400878906 C 241.160888671875 231.67909240722656 240.31802368164062 238.3729705810547 243.5655975341797 238.0524444580078 C 255.20140075683594 241.95928955078125 254.97857666015625 241.30824279785156 262.3184509277344 246.52403259277344" stroke-width="0.0" fill="rgb(32, 38, 2)" opacity="0.49779904" stroke="rgb(92, 38, 24)" stroke-opacity="0.4491665" stroke-linecap="round" stroke-linejoin="round"/>
    <path d="M 273.34222412109375 500.695068359375 C 267.54083251953125 526.3372802734375 262.9370422363281 524.0977172851562 240.41786193847656 522.15478515625 C 211.98519897460938 522.3291625976562 205.3920135498047 525.6907348632812 196.52700805664062 497.3317565917969 C 207.97349548339844 474.801513671875 226.01934814453125 484.6280212402344 236.36502075195312 408.0411071777344 C 296.2024230957031 448.33758544921875 283.4634704589844 467.01763916015625 273.34222412109375 500.695068359375" stroke-width="0.0" fill="rgb(116, 124, 137)" opacity="0.88657176" stroke="rgb(45, 38, 236)" stroke-opacity="0.14969863" stroke-linecap="round" stroke-linejoin="round"/>
    <path d="M 153.6660614013672 284.84906005859375 C 152.62547302246094 288.561279296875 153.83924865722656 284.25787353515625 153.60858154296875 288.66815185546875 C 106.99455261230469 299.9985046386719 143.625 296.8222961425781 116.4393539428711 282.24755859375 C 118.15713500976562 258.7420654296875 108.68330383300781 266.0519714355469 144.0972900390625 264.4707946777344 C 157.3076629638672 265.5200500488281 151.39344787597656 258.5705871582031 153.6660614013672 284.84906005859375" stroke-width="0.0" fill="rgb(255, 247, 225)" opacity="0.74982905" stroke="rgb(90, 243, 105)" stroke-opacity="0.9281258" stroke-linecap="round" stroke-linejoin="round"/>
    <path d="M 75.51917266845703 125.63687896728516 C 81.47611236572266 136.44448852539062 81.0768814086914 142.7534637451172 71.71624755859375 140.13497924804688 C 70.6465835571289 141.240478515625 68.38346099853516 120.64726257324219 69.8279037475586 118.8805923461914 C 67.77554321289062 122.32888793945312 68.71680450439453 98.66397857666016 69.40083312988281 97.69322204589844 C 76.71747589111328 101.74830627441406 88.92491912841797 94.94979858398438 75.51917266845703 125.63687896728516" stroke-width="0.0" fill="rgb(255, 255, 239)" opacity="0.7412116" stroke="rgb(42, 76, 115)" stroke-opacity="0.49517316" stroke-linecap="round" stroke-linejoin="round"/>
    <path d="M 337.0074462890625 371.71978759765625 C 338.80841064453125 405.564697265625 336.6902160644531 411.4109802246094 338.21661376953125 411.6155090332031 C 313.386474609375 390.9889221191406 307.4922790527344 383.2787170410156 299.18817138671875 377.29241943359375 C 302.0337829589844 360.3717041015625 305.9640197753906 361.74346923828125 317.6275939941406 359.07305908203125 C 336.1376647949219 355.1925964355469 337.5292053222656 360.1946716308594 337.0074462890625 371.71978759765625" stroke-width="0.0" fill="rgb(74, 52, 43)" opacity="0.96070015" stroke="rgb(95, 181, 29)" stroke-opacity="0.18707576" stroke-linecap="round" stroke-linejoin="round"/>
    <path d="M 104.66193389892578 134.30935668945312 C 77.93225860595703 126.13796997070312 87.02976989746094 139.32618713378906 69.78919219970703 145.23275756835938 C 70.1729736328125 146.16331481933594 69.84451293945312 140.48646545410156 70.1527099609375 128.51559448242188 C 71.63019561767578 116.30445098876953 87.95570373535156 131.78021240234375 74.04009246826172 116.3133316040039 C 103.37653350830078 125.55781555175781 107.26475524902344 112.37830352783203 104.66193389892578 134.30935668945312" stroke-width="0.0" fill="rgb(255, 254, 234)" opacity="0.8469953" stroke="rgb(116, 4, 237)" stroke-opacity="0.5163962" stroke-linecap="round" stroke-linejoin="round"/>
    <path d="M 127.38272857666016 214.22068786621094 C 124.54271697998047 214.93370056152344 113.96772003173828 214.24447631835938 109.59257507324219 215.16397094726562 C 50.947471618652344 215.19149780273438 43.99208068847656 215.22897338867188 45.43635177612305 215.77645874023438 C 49.14529800415039 195.65399169921875 61.61476135253906 184.53260803222656 73.10553741455078 180.47186279296875 C 97.34733581542969 174.16598510742188 120.34720611572266 181.98301696777344 127.38272857666016 214.22068786621094" stroke-width="0.0" fill="rgb(0, 58, 127)" opacity="0.76840514" stroke="rgb(2, 154, 253)" stroke-opacity="0.26703516" stroke-linecap="round" stroke-linejoin="round"/>
    <path d="M 440.4881896972656 318.8037109375 C 296.80853271484375 349.31988525390625 348.3171691894531 376.58099365234375 333.8982238769531 342.6338195800781 C 300.0188903808594 334.3684387207031 304.07696533203125 351.09478759765625 303.62078857421875 324.6626281738281 C 305.76361083984375 316.4216613769531 297.2169189453125 316.30340576171875 313.5176086425781 324.6590576171875 C 380.2528381347656 348.97576904296875 340.0762939453125 252.78150939941406 440.4881896972656 318.8037109375" stroke-width="0.0" fill="rgb(59, 71, 91)" opacity="1.0" stroke="rgb(172, 16, 98)" stroke-opacity="0.95962435" stroke-linecap="round" stroke-linejoin="round"/>
    <path d="M 337.6481018066406 385.6747741699219 C 295.68731689453125 384.84326171875 321.8924865722656 392.203125 310.49676513671875 383.5394592285156 C 298.3692321777344 375.5241394042969 294.3333740234375 374.1844482421875 290.19683837890625 369.1409606933594 C 293.7677307128906 360.1040954589844 286.7292175292969 362.90081787109375 305.99169921875 359.53387451171875 C 344.1026611328125 354.98419189453125 336.4923400878906 357.3775939941406 337.6481018066406 385.6747741699219" stroke-width="0.0" fill="rgb(154, 105, 69)" opacity="1.0" stroke="rgb(33, 176, 176)" stroke-opacity="0.8013271" stroke-linecap="round" stroke-linejoin="round"/>
    <path d="M 236.0 223.0 C 235.3301239013672 225.5 233.5 227.3301239013672 231.0 228.0 C 228.5 227.3301239013672 226.6698760986328 225.5 226.0 223.0 C 226.6698760986328 220.5 228.5 218.6698760986328 231.0 218.0 C 233.5 218.6698760986328 235.3301239013672 220.5 236.0 223.0" stroke-width="0.0" fill="rgb(252, 245, 227)" opacity="1.0" stroke="rgb(247, 175, 121)" stroke-opacity="0.3503004" stroke-linecap="round" stroke-linejoin="round"/>
    <path d="M 233.0 241.0 C 232.3301239013672 243.5 230.5 245.3301239013672 228.0 246.0 C 225.5 245.3301239013672 223.6698760986328 243.5 223.0 241.0 C 223.6698760986328 238.5 225.5 236.6698760986328 228.0 236.0 C 230.5 236.6698760986328 232.3301239013672 238.5 233.0 241.0" stroke-width="0.0" fill="rgb(252, 250, 231)" opacity="1.0" stroke="rgb(12, 56, 227)" stroke-opacity="0.5877355" stroke-linecap="round" stroke-linejoin="round"/>
    <path d="M 55.0 272.0 C 54.33012771606445 274.5 52.5 276.33013916015625 50.0 277.0 C 47.5 276.33013916015625 45.66987228393555 274.5 45.0 272.0 C 45.66987228393555 269.5 47.5 267.66986083984375 50.0 267.0 C 52.5 267.66986083984375 54.33012771606445 269.5 55.0 272.0" stroke-width="0.0" fill="rgb(255, 251, 238)" opacity="1.0" stroke="rgb(43, 24, 110)" stroke-opacity="0.26388294" stroke-linecap="round" stroke-linejoin="round"/>
    <path d="M 142.0 355.0 C 141.3301239013672 357.5 139.5 359.33013916015625 137.0 360.0 C 134.5 359.33013916015625 132.6698760986328 357.5 132.0 355.0 C 132.6698760986328 352.5 134.5 350.66986083984375 137.0 350.0 C 139.5 350.66986083984375 141.3301239013672 352.5 142.0 355.0" stroke-width="0.0" fill="rgb(247, 239, 219)" opacity="1.0" stroke="rgb(139, 124, 210)" stroke-opacity="0.7788089" stroke-linecap="round" stroke-linejoin="round"/>
    <path d="M 360.0 392.0 C 359.33013916015625 394.5 357.5 396.33013916015625 355.0 397.0 C 352.5 396.33013916015625 350.66986083984375 394.5 350.0 392.0 C 350.66986083984375 389.5 352.5 387.66986083984375 355.0 387.0 C 357.5 387.66986083984375 359.33013916015625 389.5 360.0 392.0" stroke-width="0.0" fill="rgb(6, 49, 105)" opacity="1.0" stroke="rgb(211, 192, 198)" stroke-opacity="0.88544524" stroke-linecap="round" stroke-linejoin="round"/>
    <path d="M 294.0 202.0 C 293.33013916015625 204.5 291.5 206.3301239013672 289.0 207.0 C 286.5 206.3301239013672 284.66986083984375 204.5 284.0 202.0 C 284.66986083984375 199.5 286.5 197.6698760986328 289.0 197.0 C 291.5 197.6698760986328 293.33013916015625 199.5 294.0 202.0" stroke-width="0.0" fill="rgb(119, 136, 164)" opacity="1.0" stroke="rgb(42, 41, 11)" stroke-opacity="0.68944716" stroke-linecap="round" stroke-linejoin="round"/>
    <path d="M 147.0 362.0 C 146.3301239013672 364.5 144.5 366.33013916015625 142.0 367.0 C 139.5 366.33013916015625 137.6698760986328 364.5 137.0 362.0 C 137.6698760986328 359.5 139.5 357.66986083984375 142.0 357.0 C 144.5 357.66986083984375 146.3301239013672 359.5 147.0 362.0" stroke-width="0.0" fill="rgb(249, 240, 225)" opacity="1.0" stroke="rgb(195, 54, 129)" stroke-opacity="0.593596" stroke-linecap="round" stroke-linejoin="round"/>
    <path d="M 24.0 180.0 C 23.330127716064453 182.5 21.5 184.3301239013672 19.0 185.0 C 16.5 184.3301239013672 14.669873237609863 182.5 14.0 180.0 C 14.669873237609863 177.5 16.5 175.6698760986328 19.0 175.0 C 21.5 175.6698760986328 23.330127716064453 177.5 24.0 180.0" stroke-width="0.0" fill="rgb(93, 110, 140)" opacity="1.0" stroke="rgb(47, 54, 182)" stroke-opacity="0.285547" stroke-linecap="round" stroke-linejoin="round"/>
    <path d="M 66.0 91.0 C 65.33012390136719 93.5 63.5 95.33012390136719 61.0 96.0 C 58.5 95.33012390136719 56.66987228393555 93.5 56.0 91.0 C 56.66987228393555 88.5 58.5 86.66987609863281 61.0 86.0 C 63.5 86.66987609863281 65.33012390136719 88.5 66.0 91.0" stroke-width="0.0" fill="rgb(61, 122, 174)" opacity="1.0" stroke="rgb(146, 162, 89)" stroke-opacity="0.7930104" stroke-linecap="round" stroke-linejoin="round"/>
    <path d="M 91.0 304.0 C 90.33012390136719 306.5 88.5 308.33013916015625 86.0 309.0 C 83.5 308.33013916015625 81.66987609863281 306.5 81.0 304.0 C 81.66987609863281 301.5 83.5 299.66986083984375 86.0 299.0 C 88.5 299.66986083984375 90.33012390136719 301.5 91.0 304.0" stroke-width="0.0" fill="rgb(40, 84, 140)" opacity="1.0" stroke="rgb(53, 60, 14)" stroke-opacity="0.313877" stroke-linecap="round" stroke-linejoin="round"/>
    <path d="M 27.0 328.0 C 26.330127716064453 330.5 24.5 332.33013916015625 22.0 333.0 C 19.5 332.33013916015625 17.669872283935547 330.5 17.0 328.0 C 17.669872283935547 325.5 19.5 323.66986083984375 22.0 323.0 C 24.5 323.66986083984375 26.330127716064453 325.5 27.0 328.0" stroke-width="0.0" fill="rgb(22, 65, 121)" opacity="1.0" stroke="rgb(105, 211, 161)" stroke-opacity="0.4278859" stroke-linecap="round" stroke-linejoin="round"/>
    <path d="M 28.0 336.0 C 27.330127716064453 338.5 25.5 340.33013916015625 23.0 341.0 C 20.5 340.33013916015625 18.669872283935547 338.5 18.0 336.0 C 18.669872283935547 333.5 20.5 331.66986083984375 23.0 331.0 C 25.5 331.66986083984375 27.330127716064453 333.5 28.0 336.0" stroke-width="0.0" fill="rgb(20, 63, 123)" opacity="1.0" stroke="rgb(79, 231, 232)" stroke-opacity="0.71576506" stroke-linecap="round" stroke-linejoin="round"/>
    <path d="M 328.0 236.0 C 327.33013916015625 238.5 325.5 240.3301239013672 323.0 241.0 C 320.5 240.3301239013672 318.66986083984375 238.5 318.0 236.0 C 318.66986083984375 233.5 320.5 231.6698760986328 323.0 231.0 C 325.5 231.6698760986328 327.33013916015625 233.5 328.0 236.0" stroke-width="0.0" fill="rgb(112, 136, 167)" opacity="1.0" stroke="rgb(79, 214, 91)" stroke-opacity="0.07323081" stroke-linecap="round" stroke-linejoin="round"/>
    <path d="M 86.0 280.0 C 85.33012390136719 282.5 83.5 284.33013916015625 81.0 285.0 C 78.5 284.33013916015625 76.66987609863281 282.5 76.0 280.0 C 76.66987609863281 277.5 78.5 275.66986083984375 81.0 275.0 C 83.5 275.66986083984375 85.33012390136719 277.5 86.0 280.0" stroke-width="0.0" fill="rgb(250, 242, 222)" opacity="1.0" stroke="rgb(75, 213, 184)" stroke-opacity="0.7111646" stroke-linecap="round" stroke-linejoin="round"/>
    <path d="M 28.0 201.0 C 27.330127716064453 203.5 25.5 205.3301239013672 23.0 206.0 C 20.5 205.3301239013672 18.669872283935547 203.5 18.0 201.0 C 18.669872283935547 198.5 20.5 196.6698760986328 23.0 196.0 C 25.5 196.6698760986328 27.330127716064453 198.5 28.0 201.0" stroke-width="0.0" fill="rgb(252, 249, 234)" opacity="1.0" stroke="rgb(27, 13, 79)" stroke-opacity="0.8806689" stroke-linecap="round" stroke-linejoin="round"/>
    <path d="M 136.0 224.0 C 135.3301239013672 226.5 133.5 228.3301239013672 131.0 229.0 C 128.5 228.3301239013672 126.66987609863281 226.5 126.0 224.0 C 126.66987609863281 221.5 128.5 219.6698760986328 131.0 219.0 C 133.5 219.6698760986328 135.3301239013672 221.5 136.0 224.0" stroke-width="0.0" fill="rgb(254, 246, 226)" opacity="1.0" stroke="rgb(109, 100, 231)" stroke-opacity="0.58626926" stroke-linecap="round" stroke-linejoin="round"/>
    <path d="M 160.0 387.0 C 159.3301239013672 389.5 157.5 391.33013916015625 155.0 392.0 C 152.5 391.33013916015625 150.6698760986328 389.5 150.0 387.0 C 150.6698760986328 384.5 152.5 382.66986083984375 155.0 382.0 C 157.5 382.66986083984375 159.3301239013672 384.5 160.0 387.0" stroke-width="0.0" fill="rgb(117, 126, 141)" opacity="1.0" stroke="rgb(47, 35, 171)" stroke-opacity="0.7883323" stroke-linecap="round" stroke-linejoin="round"/>
    <path d="M 15.0 168.0 C 14.330126762390137 170.5 12.5 172.3301239013672 10.0 173.0 C 7.5 172.3301239013672 5.669872760772705 170.5 5.0 168.0 C 5.669872760772705 165.5 7.5 163.6698760986328 10.0 163.0 C 12.5 163.6698760986328 14.330126762390137 165.5 15.0 168.0" stroke-width="0.0" fill="rgb(252, 247, 227)" opacity="1.0" stroke="rgb(74, 222, 143)" stroke-opacity="0.19056518" stroke-linecap="round" stroke-linejoin="round"/>
    <path d="M 32.0 274.0 C 31.330127716064453 276.5 29.5 278.33013916015625 27.0 279.0 C 24.5 278.33013916015625 22.669872283935547 276.5 22.0 274.0 C 22.669872283935547 271.5 24.5 269.66986083984375 27.0 269.0 C 29.5 269.66986083984375 31.330127716064453 271.5 32.0 274.0" stroke-width="0.0" fill="rgb(255, 254, 235)" opacity="1.0" stroke="rgb(58, 46, 86)" stroke-opacity="0.93517447" stroke-linecap="round" stroke-linejoin="round"/>
    <path d="M 32.0 176.0 C 31.330127716064453 178.5 29.5 180.3301239013672 27.0 181.0 C 24.5 180.3301239013672 22.669872283935547 178.5 22.0 176.0 C 22.669872283935547 173.5 24.5 171.6698760986328 27.0 171.0 C 29.5 171.6698760986328 31.330127716064453 173.5 32.0 176.0" stroke-width="0.0" fill="rgb(250, 249, 234)" opacity="1.0" stroke="rgb(83, 85, 187)" stroke-opacity="0.55721873" stroke-linecap="round" stroke-linejoin="round"/>
    <path d="M 13.0 273.0 C 12.330126762390137 275.5 10.5 277.33013916015625 8.0 278.0 C 5.5 277.33013916015625 3.669872999191284 275.5 3.0 273.0 C 3.669872999191284 270.5 5.5 268.66986083984375 8.0 268.0 C 10.5 268.66986083984375 12.330126762390137 270.5 13.0 273.0" stroke-width="0.0" fill="rgb(252, 248, 228)" opacity="1.0" stroke="rgb(212, 169, 142)" stroke-opacity="0.047216386" stroke-linecap="round" stroke-linejoin="round"/>
    <path d="M 203.0 120.0 C 202.3301239013672 122.5 200.5 124.33012390136719 198.0 125.0 C 195.5 124.33012390136719 193.6698760986328 122.5 193.0 120.0 C 193.6698760986328 117.5 195.5 115.66987609863281 198.0 115.0 C 200.5 115.66987609863281 202.3301239013672 117.5 203.0 120.0" stroke-width="0.0" fill="rgb(93, 116, 145)" opacity="1.0" stroke="rgb(243, 184, 160)" stroke-opacity="0.2815421" stroke-linecap="round" stroke-linejoin="round"/>
    <path d="M 128.0 228.0 C 127.33012390136719 230.5 125.5 232.3301239013672 123.0 233.0 C 120.5 232.3301239013672 118.66987609863281 230.5 118.0 228.0 C 118.66987609863281 225.5 120.5 223.6698760986328 123.0 223.0 C 125.5 223.6698760986328 127.33012390136719 225.5 128.0 228.0" stroke-width="0.0" fill="rgb(248, 239, 224)" opacity="1.0" stroke="rgb(229, 203, 225)" stroke-opacity="0.5670822" stroke-linecap="round" stroke-linejoin="round"/>
    <path d="M 149.0 335.0 C 148.3301239013672 337.5 146.5 339.33013916015625 144.0 340.0 C 141.5 339.33013916015625 139.6698760986328 337.5 139.0 335.0 C 139.6698760986328 332.5 141.5 330.66986083984375 144.0 330.0 C 146.5 330.66986083984375 148.3301239013672 332.5 149.0 335.0" stroke-width="0.0" fill="rgb(251, 244, 222)" opacity="1.0" stroke="rgb(153, 197, 44)" stroke-opacity="0.2894132" stroke-linecap="round" stroke-linejoin="round"/>
    <path d="M 179.0 159.0 C 178.3301239013672 161.5 176.5 163.3301239013672 174.0 164.0 C 171.5 163.3301239013672 169.6698760986328 161.5 169.0 159.0 C 169.6698760986328 156.5 171.5 154.6698760986328 174.0 154.0 C 176.5 154.6698760986328 178.3301239013672 156.5 179.0 159.0" stroke-width="0.0" fill="rgb(255, 252, 234)" opacity="1.0" stroke="rgb(123, 91, 42)" stroke-opacity="0.08984571" stroke-linecap="round" stroke-linejoin="round"/>
    <path d="M 210.0 296.0 C 209.3301239013672 298.5 207.5 300.33013916015625 205.0 301.0 C 202.5 300.33013916015625 200.6698760986328 298.5 200.0 296.0 C 200.6698760986328 293.5 202.5 291.66986083984375 205.0 291.0 C 207.5 291.66986083984375 209.3301239013672 293.5 210.0 296.0" stroke-width="0.0" fill="rgb(251, 244, 228)" opacity="1.0" stroke="rgb(200, 49, 112)" stroke-opacity="0.94368035" stroke-linecap="round" stroke-linejoin="round"/>
    <path d="M 258.0 207.0 C 257.33013916015625 209.5 255.5 211.3301239013672 253.0 212.0 C 250.5 211.3301239013672 248.6698760986328 209.5 248.0 207.0 C 248.6698760986328 204.5 250.5 202.6698760986328 253.0 202.0 C 255.5 202.6698760986328 257.33013916015625 204.5 258.0 207.0" stroke-width="0.0" fill="rgb(250, 246, 233)" opacity="1.0" stroke="rgb(101, 41, 119)" stroke-opacity="0.46755514" stroke-linecap="round" stroke-linejoin="round"/>
    <path d="M 231.0 282.0 C 230.3301239013672 284.5 228.5 286.33013916015625 226.0 287.0 C 223.5 286.33013916015625 221.6698760986328 284.5 221.0 282.0 C 221.6698760986328 279.5 223.5 277.66986083984375 226.0 277.0 C 228.5 277.66986083984375 230.3301239013672 279.5 231.0 282.0" stroke-width="0.0" fill="rgb(244, 232, 211)" opacity="1.0" stroke="rgb(58, 217, 43)" stroke-opacity="0.094455145" stroke-linecap="round" stroke-linejoin="round"/>
    <path d="M 217.0 190.0 C 216.3301239013672 192.5 214.5 194.3301239013672 212.0 195.0 C 209.5 194.3301239013672 207.6698760986328 192.5 207.0 190.0 C 207.6698760986328 187.5 209.5 185.6698760986328 212.0 185.0 C 214.5 185.6698760986328 216.3301239013672 187.5 217.0 190.0" stroke-width="0.0" fill="rgb(255, 251, 239)" opacity="1.0" stroke="rgb(34, 148, 12)" stroke-opacity="0.78701866" stroke-linecap="round" stroke-linejoin="round"/>
    <path d="M 237.0 166.0 C 236.3301239013672 168.5 234.5 170.3301239013672 232.0 171.0 C 229.5 170.3301239013672 227.6698760986328 168.5 227.0 166.0 C 227.6698760986328 163.5 229.5 161.6698760986328 232.0 161.0 C 234.5 161.6698760986328 236.3301239013672 163.5 237.0 166.0" stroke-width="0.0" fill="rgb(255, 255, 248)" opacity="1.0" stroke="rgb(190, 56, 71)" stroke-opacity="0.64061755" stroke-linecap="round" stroke-linejoin="round"/>
    <path d="M 234.0 216.0 C 233.3301239013672 218.5 231.5 220.3301239013672 229.0 221.0 C 226.5 220.3301239013672 224.6698760986328 218.5 224.0 216.0 C 224.6698760986328 213.5 226.5 211.6698760986328 229.0 211.0 C 231.5 211.6698760986328 233.3301239013672 213.5 234.0 216.0" stroke-width="0.0" fill="rgb(253, 246, 229)" opacity="1.0" stroke="rgb(79, 194, 163)" stroke-opacity="0.002217458" stroke-linecap="round" stroke-linejoin="round"/>
    <path d="M 122.0 243.0 C 121.33012390136719 245.5 119.5 247.3301239013672 117.0 248.0 C 114.5 247.3301239013672 112.66987609863281 245.5 112.0 243.0 C 112.66987609863281 240.5 114.5 238.6698760986328 117.0 238.0 C 119.5 238.6698760986328 121.33012390136719 240.5 122.0 243.0" stroke-width="0.0" fill="rgb(251, 242, 225)" opacity="1.0" stroke="rgb(135, 1, 220)" stroke-opacity="0.23431772" stroke-linecap="round" stroke-linejoin="round"/>
  </g>
</svg>
