<?xml version="1.0" ?>
<svg xmlns="http://www.w3.org/2000/svg" version="1.1" width="407" height="512">
  <defs/>
  <g>
    <path d="M 206.99839782714844 52.84542465209961 C 200.94931030273438 71.68790435791016 198.79595947265625 71.18991088867188 154.9221954345703 70.94889831542969 C 139.32620239257812 71.85148620605469 137.01007080078125 68.54771423339844 137.12188720703125 14.81318187713623 C 143.73365783691406 8.161975860595703 140.140625 3.042217493057251 202.70712280273438 2.0256032943725586 C 200.38731384277344 11.913681983947754 207.80848693847656 9.797983169555664 206.99839782714844 52.84542465209961" stroke-width="0.0" fill="rgb(159, 185, 189)" opacity="0.008417118" stroke="rgb(220, 252, 34)" stroke-opacity="0.95023537" stroke-linecap="round" stroke-linejoin="round"/>
    <path d="M 95.0 333.0 C 94.33012390136719 335.5 92.5 337.33013916015625 90.0 338.0 C 87.5 337.33013916015625 85.66987609863281 335.5 85.0 333.0 C 85.66987609863281 330.5 87.5 328.66986083984375 90.0 328.0 C 92.5 328.66986083984375 94.33012390136719 330.5 95.0 333.0" stroke-width="0.0" fill="rgb(249, 240, 223)" opacity="1.0" stroke="rgb(10, 48, 173)" stroke-opacity="0.77879363" stroke-linecap="round" stroke-linejoin="round"/>
    <path d="M 133.0 436.0 C 132.3301239013672 438.5 130.5 440.33013916015625 128.0 441.0 C 125.5 440.33013916015625 123.66987609863281 438.5 123.0 436.0 C 123.66987609863281 433.5 125.5 431.66986083984375 128.0 431.0 C 130.5 431.66986083984375 132.3301239013672 433.5 133.0 436.0" stroke-width="0.0" fill="rgb(121, 127, 139)" opacity="1.0" stroke="rgb(112, 90, 41)" stroke-opacity="0.7667503" stroke-linecap="round" stroke-linejoin="round"/>
  </g>
</svg>
