<?xml version="1.0" ?>
<svg xmlns="http://www.w3.org/2000/svg" version="1.1" width="407" height="512">
  <defs/>
  <g>
    <path d="M 214.3443603515625 68.23371887207031 C 203.55735778808594 83.00176239013672 200.0582275390625 84.1240234375 140.17080688476562 79.71102905273438 C 129.02720642089844 75.33761596679688 124.37810516357422 71.65856170654297 128.68310546875 2.0089595317840576 C 141.92739868164062 2.1669631004333496 137.79986572265625 1.9640583992004395 217.3192901611328 2.1345503330230713 C 211.0000762939453 10.863601684570312 216.9463348388672 7.681033134460449 214.3443603515625 68.23371887207031" stroke-width="0.0" fill="rgb(171, 211, 255)" opacity="0.263938" stroke="rgb(220, 252, 34)" stroke-opacity="0.95023537" stroke-linecap="round" stroke-linejoin="round"/>
    <path d="M 107.8773422241211 359.1632080078125 C 121.7194595336914 329.5359191894531 130.6824188232422 419.88079833984375 101.04228210449219 401.5458679199219 C 54.332515716552734 437.5240478515625 69.95460510253906 428.1086120605469 66.12628173828125 260.6591796875 C 84.65127563476562 298.4775695800781 93.170166015625 368.70233154296875 89.9180908203125 278.7390441894531 C 112.16741943359375 255.4524383544922 103.89376068115234 267.2193603515625 107.8773422241211 359.1632080078125" stroke-width="0.0" fill="rgb(255, 253, 234)" opacity="0.8383994" stroke="rgb(10, 48, 173)" stroke-opacity="0.77879363" stroke-linecap="round" stroke-linejoin="round"/>
    <path d="M 299.9293212890625 491.1312255859375 C 166.82919311523438 409.2292175292969 207.34906005859375 433.3342590332031 127.59788513183594 447.9143981933594 C 75.81348419189453 459.80511474609375 42.062416076660156 465.3866271972656 -3.600405216217041 476.4649658203125 C -22.412832260131836 351.56427001953125 53.04086685180664 471.7686462402344 181.8168487548828 405.4822692871094 C 82.90608215332031 302.881103515625 219.34738159179688 254.046875 299.9293212890625 491.1312255859375" stroke-width="0.0" fill="rgb(54, 64, 86)" opacity="0.3163063" stroke="rgb(112, 90, 41)" stroke-opacity="0.7667503" stroke-linecap="round" stroke-linejoin="round"/>
    <path d="M 384.0 475.0 C 383.33013916015625 477.5 381.5 479.33013916015625 379.0 480.0 C 376.5 479.33013916015625 374.66986083984375 477.5 374.0 475.0 C 374.66986083984375 472.5 376.5 470.66986083984375 379.0 470.0 C 381.5 470.66986083984375 383.33013916015625 472.5 384.0 475.0" stroke-width="0.0" fill="rgb(253, 246, 230)" opacity="1.0" stroke="rgb(125, 140, 46)" stroke-opacity="0.5996705" stroke-linecap="round" stroke-linejoin="round"/>
    <path d="M 390.0 480.0 C 389.33013916015625 482.5 387.5 484.33013916015625 385.0 485.0 C 382.5 484.33013916015625 380.66986083984375 482.5 380.0 480.0 C 380.66986083984375 477.5 382.5 475.66986083984375 385.0 475.0 C 387.5 475.66986083984375 389.33013916015625 477.5 390.0 480.0" stroke-width="0.0" fill="rgb(252, 245, 229)" opacity="1.0" stroke="rgb(78, 68, 62)" stroke-opacity="0.9730402" stroke-linecap="round" stroke-linejoin="round"/>
    <path d="M 8.0 181.0 C 7.330127239227295 183.5 5.5 185.3301239013672 3.0 186.0 C 0.5 185.3301239013672 -1.3301270008087158 183.5 -2.0 181.0 C -1.3301270008087158 178.5 0.5 176.6698760986328 3.0 176.0 C 5.5 176.6698760986328 7.330127239227295 178.5 8.0 181.0" stroke-width="0.0" fill="rgb(254, 244, 228)" opacity="1.0" stroke="rgb(115, 163, 113)" stroke-opacity="0.2119705" stroke-linecap="round" stroke-linejoin="round"/>
    <path d="M 396.0 486.0 C 395.33013916015625 488.5 393.5 490.33013916015625 391.0 491.0 C 388.5 490.33013916015625 386.66986083984375 488.5 386.0 486.0 C 386.66986083984375 483.5 388.5 481.66986083984375 391.0 481.0 C 393.5 481.66986083984375 395.33013916015625 483.5 396.0 486.0" stroke-width="0.0" fill="rgb(253, 246, 230)" opacity="1.0" stroke="rgb(144, 123, 57)" stroke-opacity="0.11043889" stroke-linecap="round" stroke-linejoin="round"/>
  </g>
</svg>
