<?xml version="1.0" ?>
<svg xmlns="http://www.w3.org/2000/svg" version="1.1" width="259" height="512">
  <defs/>
  <g>
    <path d="M 0.0 0.0 L 259.0 0.0 L 259.0 512.0 L 0.0 512.0 L 0.0 0.0" stroke-width="0.0" fill="rgb(255, 255, 255)" opacity="1.0" stroke="rgb(0, 0, 0)" stroke-opacity="0.0" stroke-linecap="round" stroke-linejoin="round"/>
    <path d="M 3.0 38.0 C -1.0182268619537354 195.6666717529297 1.1764721870422363 353.3333435058594 2.0 511.0 L 258.0 511.0 C 258.063232421875 362.3333435058594 258.2126770019531 213.6666717529297 256.0 65.0 C 236.3333282470703 63.54682159423828 216.6666717529297 71.4318618774414 197.0 69.0 C 186.88876342773438 57.0 186.38772583007812 45.0 186.0 33.0 C 174.0 27.68332862854004 162.0 29.179065704345703 150.0 29.0 C 134.6666717529297 25.03445816040039 119.33333587646484 14.259324073791504 104.0 31.0 C 70.66666412353516 38.40108871459961 37.33333206176758 40.18681335449219 3.0 38.0" stroke-width="2.0" fill="rgb(255, 255, 255)" opacity="1.0" stroke="rgb(0, 0, 0)" stroke-opacity="0.0" stroke-linecap="round" stroke-linejoin="round"/>
    <path d="M 256.0 254.0 C 229.6666717529297 254.4453887939453 203.3333282470703 267.4158020019531 177.0 270.0 C 160.84556579589844 279.7288818359375 171.52188110351562 293.6207275390625 169.0 305.0 C 147.81507873535156 352.3333435058594 149.2525634765625 399.6666564941406 153.0 447.0 C 152.68466186523438 458.5394592285156 140.62437438964844 458.5394592285156 140.0 447.0 C 137.41348266601562 413.3333435058594 133.1184844970703 379.6666564941406 134.0 346.0 C 131.3333282470703 343.7792053222656 128.6666717529297 345.0400695800781 126.0 347.0 C 124.13407135009766 371.3333435058594 137.5599365234375 395.6666564941406 129.0 420.0 C 128.8565673828125 437.3333435058594 129.10072326660156 454.6666564941406 126.0 472.0 C 118.18041229248047 473.475830078125 121.02188110351562 462.6216125488281 118.0 458.0 C 120.87210845947266 421.0 114.25519561767578 384.0 105.0 347.0 C 83.0685806274414 377.3333435058594 93.92449951171875 407.6666564941406 96.0 438.0 C 92.41018676757812 444.7646789550781 85.18560028076172 442.3717956542969 80.0 439.0 C 82.88626098632812 413.0 78.02741241455078 387.0 74.0 361.0 C 81.82414245605469 352.8866271972656 85.0125503540039 333.4303894042969 69.0 336.0 C 64.12969970703125 374.0 61.726802825927734 412.0 63.0 450.0 C 49.44041442871094 466.6104736328125 48.04853057861328 432.8697204589844 53.0 425.0 C 54.84121322631836 376.3333435058594 49.6166877746582 327.6666564941406 37.0 279.0 C 36.79478454589844 272.5236511230469 38.98341369628906 247.7720947265625 31.0 262.0 C 20.22435188293457 262.25262451171875 12.36268424987793 257.9199523925781 2.0 260.0 L 1.0 511.0 L 257.0 511.0 L 256.0 254.0" stroke-width="2.0" fill="rgb(211, 200, 169)" opacity="1.0" stroke="rgb(0, 0, 0)" stroke-opacity="0.0" stroke-linecap="round" stroke-linejoin="round"/>
    <path d="M 256.0 66.0 C 234.6666717529297 60.669776916503906 213.3333282470703 77.48966217041016 192.0 66.0 C 187.79769897460938 55.33333206176758 183.41346740722656 44.66666793823242 184.0 34.0 C 164.3333282470703 25.29953384399414 144.6666717529297 32.31211853027344 125.0 22.0 C 113.66666412353516 21.63303565979004 102.33333587646484 34.28895568847656 91.0 35.0 C 61.66666793823242 37.29913330078125 32.33333206176758 40.838233947753906 3.0 39.0 C -1.8147940635681152 111.33333587646484 2.1684765815734863 183.6666717529297 3.0 256.0 L 4.0 243.0 C 13.58914852142334 245.28067016601562 8.640287399291992 232.0481719970703 17.0 238.0 C 16.760286331176758 250.16677856445312 30.634183883666992 241.027099609375 39.0 245.0 C 51.419921875 240.3111114501953 62.71757507324219 230.5160675048828 77.0 226.0 C 89.33333587646484 229.14895629882812 101.66666412353516 226.98312377929688 114.0 237.0 C 137.45091247558594 233.51390075683594 125.29850006103516 204.74830627441406 131.0 189.0 C 121.18550872802734 181.90914916992188 103.5826644897461 164.02056884765625 117.0 153.0 C 123.01232147216797 149.98606872558594 131.6501922607422 159.79393005371094 136.0 158.0 C 117.37937927246094 127.10653686523438 84.90402221679688 123.31401062011719 60.0 118.0 C 32.909969329833984 98.92913055419922 37.6519775390625 67.95875549316406 46.0 44.0 C 53.386051177978516 52.721595764160156 45.016136169433594 69.95934295654297 49.0 82.0 C 52.06672668457031 108.06018829345703 79.6177978515625 107.49951171875 97.0 110.0 C 117.28955841064453 116.7093734741211 142.5133514404297 132.2112274169922 156.0 156.0 C 163.5403289794922 143.63243103027344 172.4076690673828 122.69208526611328 182.0 107.0 C 155.3605194091797 90.87286376953125 142.94451904296875 62.25547790527344 132.0 40.0 L 136.0 39.0 C 154.47030639648438 60.02926254272461 168.623779296875 93.48111724853516 195.0 95.0 C 208.24061584472656 114.66800689697266 171.74163818359375 136.9982147216797 176.0 155.0 C 186.6666717529297 149.81484985351562 197.3333282470703 139.66574096679688 208.0 145.0 C 209.68435668945312 152.3333282470703 200.17909240722656 159.6666717529297 199.0 167.0 C 191.77818298339844 175.90994262695312 177.015869140625 176.62818908691406 185.0 190.0 C 196.67083740234375 200.52210998535156 204.5276641845703 212.20440673828125 194.0 224.0 C 187.6666717529297 229.2218475341797 181.3333282470703 223.36715698242188 175.0 228.0 L 174.0 251.0 C 176.8185577392578 257.75042724609375 183.35638427734375 252.39312744140625 186.0 260.0 C 209.76327514648438 258.5728454589844 230.45358276367188 251.27911376953125 254.0 242.0 C 257.4187927246094 183.6666717529297 257.72039794921875 125.33333587646484 256.0 66.0" stroke-width="2.0" fill="rgb(202, 190, 161)" opacity="1.0" stroke="rgb(0, 0, 0)" stroke-opacity="0.0" stroke-linecap="round" stroke-linejoin="round"/>
    <path d="M 47.0 48.0 C 40.45344543457031 69.83770751953125 37.73048400878906 96.43112182617188 58.0 115.0 C 82.62724304199219 121.49334716796875 108.9207992553711 122.30152893066406 132.0 148.0 C 136.03005981445312 153.97216796875 147.10336303710938 165.75643920898438 136.0 167.0 C 132.18923950195312 158.39051818847656 119.30068969726562 150.216796875 114.0 159.0 C 114.94090270996094 169.72914123535156 124.3651123046875 181.69602966308594 136.0 186.0 C 129.3917236328125 203.6869659423828 138.0999755859375 223.97265625 126.0 240.0 L 111.0 241.0 C 89.27700805664062 217.04859924316406 42.49488067626953 235.50428771972656 39.0 268.0 C 42.27964401245117 297.3333435058594 49.194087982177734 326.6666564941406 55.0 356.0 C 54.462520599365234 387.3333435058594 55.889408111572266 418.6666564941406 54.0 450.0 C 60.691246032714844 454.186767578125 59.08657455444336 444.2296142578125 61.0 441.0 C 58.309547424316406 404.3333435058594 64.46429443359375 367.6666564941406 66.0 331.0 C 87.48479461669922 323.87078857421875 88.49442291259766 348.6517639160156 76.0 362.0 C 81.9981918334961 386.0113830566406 82.54289245605469 412.6513671875 85.0 435.0 L 92.0 436.0 C 90.32231903076172 405.6666564941406 82.41948699951172 375.3333435058594 102.0 345.0 C 104.0 342.9484558105469 106.0 340.2330017089844 108.0 343.0 C 113.22640228271484 380.3333435058594 125.20466613769531 417.6666564941406 121.0 455.0 L 124.0 466.0 C 128.33274841308594 426.0 129.73548889160156 386.0 123.0 346.0 C 125.8267822265625 341.65545654296875 134.1732177734375 337.7769775390625 137.0 345.0 C 136.0940399169922 379.3333435058594 137.5880889892578 413.6666564941406 145.0 448.0 C 147.23077392578125 448.8376159667969 147.73077392578125 446.72650146484375 149.0 445.0 C 145.124755859375 406.0 150.41363525390625 367.0 155.0 328.0 C 174.1728973388672 303.6666564941406 160.42173767089844 279.3333435058594 170.0 255.0 C 171.84107971191406 243.0 166.5165252685547 231.0 172.0 219.0 C 180.0025634765625 220.64097595214844 191.03567504882812 228.77098083496094 196.0 215.0 C 199.68716430664062 200.6666717529297 167.6370391845703 186.3333282470703 182.0 172.0 C 194.06903076171875 173.4882049560547 201.6566925048828 155.103515625 206.0 146.0 C 194.3333282470703 142.34945678710938 182.6666717529297 156.5901336669922 171.0 159.0 C 172.85899353027344 139.6666717529297 193.49969482421875 120.33333587646484 197.0 101.0 C 189.09848022460938 92.8716049194336 177.5033721923828 95.59506225585938 168.0 85.0 C 155.67813110351562 71.57489013671875 146.78070068359375 55.792049407958984 137.0 44.0 C 140.91796875 56.336769104003906 153.02891540527344 72.99742126464844 161.0 87.0 C 169.0 96.26057434082031 177.0 99.72698974609375 185.0 106.0 C 176.09841918945312 123.66666412353516 164.4606170654297 141.3333282470703 159.0 159.0 C 148.34048461914062 152.46926879882812 137.61013793945312 132.6501007080078 124.0 125.0 C 102.66666412353516 112.63812255859375 81.33333587646484 110.44668579101562 60.0 106.0 C 41.3598518371582 87.0 46.66577911376953 68.0 47.0 48.0" stroke-width="2.0" fill="rgb(155, 117, 81)" opacity="1.0" stroke="rgb(0, 0, 0)" stroke-opacity="0.0" stroke-linecap="round" stroke-linejoin="round"/>
    <path d="M 0.0 0.0 C 2.4911746978759766 11.421899795532227 -7.157645225524902 29.786569595336914 10.0 35.0 C 42.0 36.012290954589844 74.0 33.26580047607422 106.0 25.0 C 120.0 11.467646598815918 134.0 16.99012565612793 148.0 25.0 C 164.6666717529297 25.86861228942871 181.3333282470703 25.503950119018555 198.0 22.0 C 199.17263793945312 29.528575897216797 195.70770263671875 37.74534606933594 191.0 45.0 C 193.5416259765625 52.0 195.73048400878906 59.0 198.0 66.0 C 217.6666717529297 65.0217056274414 237.3333282470703 63.21650695800781 257.0 58.0 L 258.0 0.0 L 0.0 0.0" stroke-width="2.0" fill="rgb(96, 107, 70)" opacity="1.0" stroke="rgb(0, 0, 0)" stroke-opacity="0.0" stroke-linecap="round" stroke-linejoin="round"/>
    <path d="M 256.0 172.0 L 253.0 175.0 C 230.13015747070312 165.9620361328125 197.70950317382812 161.5070037841797 184.0 185.0 C 191.53082275390625 198.6666717529297 208.02716064453125 212.3333282470703 191.0 226.0 C 184.69189453125 227.9618682861328 177.93763732910156 221.87698364257812 173.0 229.0 C 169.30947875976562 245.84786987304688 181.32247924804688 270.9344787597656 202.0 263.0 C 216.0841522216797 252.93209838867188 232.5518341064453 256.6515197753906 245.0 245.0 C 249.0 244.752197265625 253.0 249.778076171875 257.0 246.0 L 256.0 172.0" stroke-width="2.0" fill="rgb(148, 134, 114)" opacity="1.0" stroke="rgb(0, 0, 0)" stroke-opacity="0.0" stroke-linecap="round" stroke-linejoin="round"/>
    <path d="M 0.0 28.0 C 18.061532974243164 42.41066360473633 40.287933349609375 30.72648048400879 60.0 34.0 C 70.05565643310547 31.981298446655273 75.91715240478516 28.291364669799805 83.0 18.0 C 88.6181640625 19.248680114746094 98.96686553955078 16.518775939941406 100.0 25.0 C 108.33333587646484 24.800203323364258 116.66666412353516 14.100918769836426 125.0 13.0 C 146.6666717529297 22.523193359375 168.3333282470703 33.611427307128906 190.0 13.0 C 197.673583984375 16.379920959472656 206.4024658203125 8.327197074890137 209.0 0.0 L 0.0 0.0 L 0.0 28.0" stroke-width="2.0" fill="rgb(71, 89, 50)" opacity="1.0" stroke="rgb(0, 0, 0)" stroke-opacity="0.0" stroke-linecap="round" stroke-linejoin="round"/>
    <path d="M 121.0 20.0 C 96.91572570800781 29.74169158935547 90.57662963867188 58.664100646972656 102.0 75.0 C 99.08150482177734 86.33333587646484 96.62371063232422 97.66666412353516 95.0 109.0 C 107.0 112.90130615234375 119.0 119.19660186767578 131.0 126.0 C 137.1512451171875 123.55998992919922 137.65716552734375 118.85990142822266 140.0 114.0 C 142.11880493164062 99.33333587646484 147.7265625 84.66666412353516 147.0 70.0 C 139.800048828125 59.66666793823242 135.83206176757812 49.33333206176758 129.0 39.0 C 129.82730102539062 32.62256622314453 145.15716552734375 28.010225296020508 134.0 22.0 L 121.0 20.0" stroke-width="2.0" fill="rgb(209, 200, 178)" opacity="1.0" stroke="rgb(0, 0, 0)" stroke-opacity="0.0" stroke-linecap="round" stroke-linejoin="round"/>
    <path d="M 211.0 0.0 C 209.62364196777344 16.63587188720703 187.0535888671875 41.993038177490234 214.0 47.0 C 217.38954162597656 44.6895866394043 230.04307556152344 47.649959564208984 225.0 57.0 C 235.3333282470703 65.62628173828125 245.6666717529297 59.78627395629883 256.0 58.0 C 260.5353698730469 38.66666793823242 256.76275634765625 19.33333396911621 258.0 0.0 L 211.0 0.0" stroke-width="2.0" fill="rgb(111, 118, 82)" opacity="1.0" stroke="rgb(0, 0, 0)" stroke-opacity="0.0" stroke-linecap="round" stroke-linejoin="round"/>
    <path d="M 1.0 30.0 C 22.66666603088379 38.30507278442383 44.33333206176758 31.143394470214844 66.0 31.0 C 75.96084594726562 28.84139060974121 73.48136138916016 19.473501205444336 78.0 13.0 C 83.13571166992188 11.16616153717041 88.0480728149414 2.4262850284576416 89.0 8.0 L 89.0 0.0 L 0.0 0.0 L 1.0 30.0" stroke-width="2.0" fill="rgb(53, 76, 40)" opacity="1.0" stroke="rgb(0, 0, 0)" stroke-opacity="0.0" stroke-linecap="round" stroke-linejoin="round"/>
    <path d="M 46.0 48.0 C 43.293312072753906 69.74807739257812 35.35221862792969 96.55606079101562 59.0 115.0 C 88.21984100341797 120.70399475097656 124.50023651123047 128.62855529785156 145.0 166.0 C 159.11431884765625 161.84754943847656 152.02621459960938 152.14605712890625 145.0 144.0 C 120.20724487304688 116.26038360595703 89.77865600585938 110.04256439208984 62.0 107.0 C 40.5825080871582 89.31027221679688 47.32572937011719 67.35047149658203 46.0 48.0" stroke-width="2.0" fill="rgb(92, 87, 81)" opacity="1.0" stroke="rgb(0, 0, 0)" stroke-opacity="0.0" stroke-linecap="round" stroke-linejoin="round"/>
    <path d="M 114.0 332.0 C 106.4909896850586 334.70660400390625 109.78626251220703 340.6810607910156 108.0 346.0 C 114.63983154296875 383.3333435058594 124.73065948486328 420.6666564941406 121.0 458.0 L 124.0 461.0 C 128.44593811035156 440.3333435058594 125.23686218261719 419.6666564941406 130.0 399.0 C 126.98052978515625 380.3333435058594 123.05162811279297 361.6666564941406 123.0 343.0 L 114.0 332.0" stroke-width="2.0" fill="rgb(185, 136, 82)" opacity="1.0" stroke="rgb(0, 0, 0)" stroke-opacity="0.0" stroke-linecap="round" stroke-linejoin="round"/>
    <path d="M 154.0 331.0 C 148.74488830566406 335.4479675292969 142.2576141357422 342.47955322265625 136.0 345.0 C 135.11785888671875 378.3333435058594 139.6830291748047 411.6666564941406 142.0 445.0 C 144.0 447.37054443359375 146.0 449.6062927246094 148.0 446.0 C 145.9406280517578 408.0 150.22750854492188 370.0 154.0 331.0" stroke-width="2.0" fill="rgb(185, 138, 87)" opacity="1.0" stroke="rgb(0, 0, 0)" stroke-opacity="0.0" stroke-linecap="round" stroke-linejoin="round"/>
    <path d="M 50.0 189.0 C 37.87263107299805 181.95985412597656 24.659339904785156 192.981689453125 14.0 189.0 C 8.431280136108398 200.39039611816406 0.4642208516597748 208.68772888183594 2.0 220.0 C 10.333333015441895 219.53280639648438 18.66666603088379 225.32672119140625 27.0 222.0 C 34.71345901489258 210.97129821777344 55.66746520996094 203.46783447265625 50.0 189.0" stroke-width="2.0" fill="rgb(147, 138, 119)" opacity="1.0" stroke="rgb(0, 0, 0)" stroke-opacity="0.0" stroke-linecap="round" stroke-linejoin="round"/>
    <path d="M 135.0 42.0 C 147.5747528076172 63.50184631347656 158.88189697265625 93.50759887695312 186.0 106.0 C 175.47506713867188 123.66666412353516 164.068603515625 141.3333282470703 160.0 159.0 L 170.0 159.0 C 174.2095947265625 139.6666717529297 192.90823364257812 120.33333587646484 197.0 101.0 C 189.57247924804688 92.76947784423828 178.06924438476562 95.88372802734375 169.0 86.0 C 155.12619018554688 71.84300231933594 147.62338256835938 55.54989242553711 135.0 42.0" stroke-width="2.0" fill="rgb(111, 112, 107)" opacity="1.0" stroke="rgb(0, 0, 0)" stroke-opacity="0.0" stroke-linecap="round" stroke-linejoin="round"/>
    <path d="M 86.0 342.0 C 71.18243408203125 360.0 79.19550323486328 378.0 82.0 396.0 C 82.86907958984375 409.3333435058594 83.41373443603516 422.6666564941406 85.0 436.0 C 87.87174224853516 427.24285888671875 90.30858612060547 436.07952880859375 93.0 437.0 C 89.3476791381836 406.0 82.66729736328125 375.0 103.0 344.0 L 86.0 342.0" stroke-width="2.0" fill="rgb(159, 120, 73)" opacity="1.0" stroke="rgb(0, 0, 0)" stroke-opacity="0.0" stroke-linecap="round" stroke-linejoin="round"/>
    <path d="M 8.0 448.0 C -3.2570912837982178 469.0 1.5661684274673462 490.0 2.0 511.0 L 15.0 511.0 C 14.186540603637695 505.4075012207031 17.038015365600586 491.152099609375 12.0 492.0 C 16.689409255981445 479.46484375 15.115330696105957 460.4813232421875 8.0 448.0" stroke-width="2.0" fill="rgb(195, 190, 166)" opacity="1.0" stroke="rgb(0, 0, 0)" stroke-opacity="0.0" stroke-linecap="round" stroke-linejoin="round"/>
    <path d="M 131.0 193.0 C 120.56028747558594 194.86097717285156 95.61249542236328 216.02894592285156 116.0 223.0 C 107.75444030761719 229.73739624023438 110.82023620605469 242.31192016601562 122.0 235.0 C 136.5923614501953 223.097412109375 128.83030700683594 207.5040740966797 131.0 193.0" stroke-width="2.0" fill="rgb(124, 111, 91)" opacity="1.0" stroke="rgb(0, 0, 0)" stroke-opacity="0.0" stroke-linecap="round" stroke-linejoin="round"/>
    <path d="M 90.0 0.0 C 88.23640441894531 10.069998741149902 100.04408264160156 14.308928489685059 103.0 24.0 C 113.60514831542969 20.425350189208984 125.8952865600586 10.445188522338867 124.0 0.0 L 90.0 0.0" stroke-width="2.0" fill="rgb(70, 92, 41)" opacity="1.0" stroke="rgb(0, 0, 0)" stroke-opacity="0.0" stroke-linecap="round" stroke-linejoin="round"/>
    <path d="M 10.0 448.0 C -1.3233510255813599 459.3718566894531 -1.2121694087982178 479.30474853515625 1.0 494.0 C 21.7466983795166 490.2516784667969 13.329375267028809 463.57275390625 10.0 448.0" stroke-width="2.0" fill="rgb(186, 181, 161)" opacity="1.0" stroke="rgb(0, 0, 0)" stroke-opacity="0.0" stroke-linecap="round" stroke-linejoin="round"/>
    <path d="M 206.0 145.0 C 194.23146057128906 146.0712890625 183.73684692382812 151.06141662597656 173.0 161.0 C 177.36282348632812 163.69570922851562 177.87722778320312 170.64498901367188 180.0 175.0 C 193.3961944580078 170.7241668701172 201.29421997070312 157.70895385742188 206.0 145.0" stroke-width="2.0" fill="rgb(153, 141, 124)" opacity="1.0" stroke="rgb(0, 0, 0)" stroke-opacity="0.0" stroke-linecap="round" stroke-linejoin="round"/>
    <path d="M 96.0 498.0 L 95.0 511.0 L 130.0 511.0 C 127.45852661132812 493.3665466308594 109.2786636352539 494.5050048828125 96.0 498.0" stroke-width="2.0" fill="rgb(218, 208, 177)" opacity="1.0" stroke="rgb(0, 0, 0)" stroke-opacity="0.0" stroke-linecap="round" stroke-linejoin="round"/>
    <path d="M 116.0 156.0 C 111.61914825439453 167.6465301513672 124.5999984741211 184.2461700439453 137.0 184.0 C 139.56600952148438 172.80209350585938 132.8861083984375 152.009521484375 116.0 156.0" stroke-width="2.0" fill="rgb(152, 137, 119)" opacity="1.0" stroke="rgb(0, 0, 0)" stroke-opacity="0.0" stroke-linecap="round" stroke-linejoin="round"/>
    <path d="M 100.0 17.0 C 86.78523254394531 3.2543654441833496 63.117637634277344 26.17133903503418 84.0 33.0 C 92.30695343017578 34.467193603515625 106.286376953125 28.860218048095703 100.0 17.0" stroke-width="2.0" fill="rgb(129, 120, 87)" opacity="1.0" stroke="rgb(0, 0, 0)" stroke-opacity="0.0" stroke-linecap="round" stroke-linejoin="round"/>
    <path d="M 18.0 364.0 C -3.375819683074951 363.74346923828125 5.247271537780762 385.4164123535156 4.0 398.0 C 18.99681854248047 395.85369873046875 18.681312561035156 374.37286376953125 18.0 364.0" stroke-width="2.0" fill="rgb(175, 169, 149)" opacity="1.0" stroke="rgb(0, 0, 0)" stroke-opacity="0.0" stroke-linecap="round" stroke-linejoin="round"/>
    <path d="M 70.0 331.0 C 80.33793640136719 340.0528259277344 94.99655151367188 346.653076171875 107.0 342.0 C 105.51024627685547 325.8021545410156 82.05729675292969 336.597900390625 70.0 331.0" stroke-width="2.0" fill="rgb(177, 171, 152)" opacity="1.0" stroke="rgb(0, 0, 0)" stroke-opacity="0.0" stroke-linecap="round" stroke-linejoin="round"/>
    <path d="M 59.0 226.0 C 52.66666793823242 222.91307067871094 46.33333206176758 228.42762756347656 40.0 228.0 C 41.009674072265625 233.0 41.22136306762695 238.0 46.0 243.0 C 51.853111267089844 239.64805603027344 67.08356475830078 235.1912841796875 59.0 226.0" stroke-width="2.0" fill="rgb(146, 122, 86)" opacity="1.0" stroke="rgb(0, 0, 0)" stroke-opacity="0.0" stroke-linecap="round" stroke-linejoin="round"/>
    <path d="M 75.0 230.0 C 86.02283477783203 237.45761108398438 94.26494598388672 240.93313598632812 102.0 245.0 C 115.64949798583984 234.36216735839844 85.60707092285156 229.1168975830078 75.0 230.0" stroke-width="2.0" fill="rgb(148, 130, 133)" opacity="1.0" stroke="rgb(0, 0, 0)" stroke-opacity="0.0" stroke-linecap="round" stroke-linejoin="round"/>
    <path d="M 163.0 423.0 C 153.51268005371094 428.4211120605469 155.52377319335938 452.73016357421875 169.0 446.0 C 168.94667053222656 438.99066162109375 167.74530029296875 429.3458251953125 163.0 423.0" stroke-width="2.0" fill="rgb(218, 202, 164)" opacity="1.0" stroke="rgb(0, 0, 0)" stroke-opacity="0.0" stroke-linecap="round" stroke-linejoin="round"/>
    <path d="M 169.0 219.0 C 160.83628845214844 213.53610229492188 139.65292358398438 219.2657012939453 156.0 230.0 C 160.92677307128906 231.55763244628906 171.31781005859375 226.6111602783203 169.0 219.0" stroke-width="2.0" fill="rgb(195, 182, 158)" opacity="1.0" stroke="rgb(0, 0, 0)" stroke-opacity="0.0" stroke-linecap="round" stroke-linejoin="round"/>
    <path d="M 144.0 325.0 C 136.74798583984375 324.4775390625 126.23120880126953 346.6951904296875 141.0 342.0 C 143.17861938476562 336.6666564941406 148.97381591796875 331.3333435058594 144.0 325.0" stroke-width="2.0" fill="rgb(203, 182, 148)" opacity="1.0" stroke="rgb(0, 0, 0)" stroke-opacity="0.0" stroke-linecap="round" stroke-linejoin="round"/>
    <path d="M 196.0 209.0 C 194.2529296875 217.1506805419922 185.19036865234375 218.21075439453125 178.0 217.0 C 177.73721313476562 230.44375610351562 201.05908203125 221.9114532470703 196.0 209.0" stroke-width="2.0" fill="rgb(157, 156, 144)" opacity="1.0" stroke="rgb(0, 0, 0)" stroke-opacity="0.0" stroke-linecap="round" stroke-linejoin="round"/>
    <path d="M 145.0 176.0 C 138.85707092285156 193.06748962402344 170.16748046875 186.21646118164062 152.0 176.0 L 145.0 176.0" stroke-width="2.0" fill="rgb(91, 86, 77)" opacity="1.0" stroke="rgb(0, 0, 0)" stroke-opacity="0.0" stroke-linecap="round" stroke-linejoin="round"/>
    <path d="M 130.0 195.0 C 125.39720916748047 205.05902099609375 129.28610229492188 219.2897491455078 128.0 231.0 C 133.13108825683594 221.3282012939453 131.14334106445312 207.33717346191406 130.0 195.0" stroke-width="2.0" fill="rgb(124, 114, 99)" opacity="1.0" stroke="rgb(0, 0, 0)" stroke-opacity="0.0" stroke-linecap="round" stroke-linejoin="round"/>
    <path d="M 86.0 343.0 C 81.88704681396484 350.3412170410156 71.92801666259766 361.99407958984375 78.0 371.0 L 86.0 343.0" stroke-width="2.0" fill="rgb(122, 97, 65)" opacity="1.0" stroke="rgb(0, 0, 0)" stroke-opacity="0.0" stroke-linecap="round" stroke-linejoin="round"/>
    <path d="M 130.0 229.0 C 126.8122787475586 235.5784454345703 117.24602508544922 231.9345703125 114.0 239.0 C 119.6998519897461 238.804931640625 133.14503479003906 241.66091918945312 130.0 229.0" stroke-width="2.0" fill="rgb(153, 138, 122)" opacity="1.0" stroke="rgb(0, 0, 0)" stroke-opacity="0.0" stroke-linecap="round" stroke-linejoin="round"/>
    <path d="M 144.0 181.0 C 146.9188232421875 192.7735137939453 166.55003356933594 183.33660888671875 150.0 179.0 L 144.0 181.0" stroke-width="2.0" fill="rgb(42, 42, 38)" opacity="1.0" stroke="rgb(0, 0, 0)" stroke-opacity="0.0" stroke-linecap="round" stroke-linejoin="round"/>
    <path d="M 121.0 331.0 C 116.08812713623047 334.7118835449219 122.08133697509766 341.2923278808594 126.0 342.0 C 127.36795043945312 337.345458984375 129.20152282714844 328.6719970703125 121.0 331.0" stroke-width="2.0" fill="rgb(178, 148, 111)" opacity="1.0" stroke="rgb(0, 0, 0)" stroke-opacity="0.0" stroke-linecap="round" stroke-linejoin="round"/>
    <path d="M 206.0 145.0 C 202.30471801757812 143.8735809326172 196.03842163085938 146.2664794921875 194.0 149.0 C 200.10499572753906 153.21083068847656 207.13302612304688 155.36962890625 206.0 145.0" stroke-width="2.0" fill="rgb(50, 39, 30)" opacity="1.0" stroke="rgb(0, 0, 0)" stroke-opacity="0.0" stroke-linecap="round" stroke-linejoin="round"/>
    <path d="M 37.0 64.0 C 32.295265197753906 63.97288131713867 31.643238067626953 82.76529693603516 38.0 78.0 L 37.0 64.0" stroke-width="2.0" fill="rgb(233, 218, 192)" opacity="1.0" stroke="rgb(0, 0, 0)" stroke-opacity="0.0" stroke-linecap="round" stroke-linejoin="round"/>
    <path d="M 126.0 157.0 C 111.44847106933594 145.46893310546875 112.27928161621094 177.4373779296875 121.0 158.0 L 126.0 157.0" stroke-width="2.0" fill="rgb(47, 34, 25)" opacity="1.0" stroke="rgb(0, 0, 0)" stroke-opacity="0.0" stroke-linecap="round" stroke-linejoin="round"/>
    <path d="M 84.0 429.0 C 77.23359680175781 430.8504333496094 81.99199676513672 447.302734375 87.0 439.0 L 84.0 429.0" stroke-width="2.0" fill="rgb(163, 152, 131)" opacity="1.0" stroke="rgb(0, 0, 0)" stroke-opacity="0.0" stroke-linecap="round" stroke-linejoin="round"/>
    <path d="M 84.0 429.0 C 77.9168701171875 429.6248474121094 81.5517349243164 445.3694152832031 85.0 437.0 L 84.0 429.0" stroke-width="2.0" fill="rgb(139, 130, 108)" opacity="1.0" stroke="rgb(0, 0, 0)" stroke-opacity="0.0" stroke-linecap="round" stroke-linejoin="round"/>
    <path d="M 125.0 331.0 C 112.76876831054688 332.2555236816406 131.3090057373047 343.7367248535156 125.0 331.0" stroke-width="2.0" fill="rgb(194, 170, 138)" opacity="1.0" stroke="rgb(0, 0, 0)" stroke-opacity="0.0" stroke-linecap="round" stroke-linejoin="round"/>
    <path d="M 188.0 150.0 C 183.64498901367188 152.79103088378906 176.69570922851562 155.42373657226562 174.0 161.0 C 178.14028930664062 162.77352905273438 179.22068786621094 154.8331756591797 188.0 150.0" stroke-width="2.0" fill="rgb(99, 85, 64)" opacity="1.0" stroke="rgb(0, 0, 0)" stroke-opacity="0.0" stroke-linecap="round" stroke-linejoin="round"/>
    <path d="M 53.0 429.0 L 53.0 440.0 L 53.0 429.0" stroke-width="2.0" fill="rgb(161, 145, 119)" opacity="1.0" stroke="rgb(0, 0, 0)" stroke-opacity="0.0" stroke-linecap="round" stroke-linejoin="round"/>
    <path d="M 44.0 503.0 C 41.98674774169922 512.6224975585938 47.01325225830078 512.6224975585938 44.0 503.0" stroke-width="2.0" fill="rgb(238, 228, 200)" opacity="1.0" stroke="rgb(0, 0, 0)" stroke-opacity="0.0" stroke-linecap="round" stroke-linejoin="round"/>
    <path d="M 123.0 0.0 L 122.0 11.0 L 123.0 0.0" stroke-width="2.0" fill="rgb(51, 70, 28)" opacity="1.0" stroke="rgb(0, 0, 0)" stroke-opacity="0.0" stroke-linecap="round" stroke-linejoin="round"/>
  </g>
</svg>
