<?xml version="1.0" ?>
<svg xmlns="http://www.w3.org/2000/svg" version="1.1" width="365" height="512">
  <defs/>
  <g>
    <path d="M 364.1296691894531 160.08839416503906 C 363.48028564453125 206.76853942871094 358.56109619140625 209.2921600341797 305.6292419433594 214.44329833984375 C 281.9661865234375 208.7230682373047 279.7713317871094 206.0814666748047 274.7287292480469 148.37911987304688 C 280.910888671875 131.6536102294922 285.7599792480469 129.03384399414062 330.6887512207031 125.72793579101562 C 355.0218200683594 130.9140167236328 356.2479553222656 134.32342529296875 364.1296691894531 160.08839416503906" stroke-width="0.0" fill="rgb(174, 208, 227)" opacity="0.020713706" stroke="rgb(131, 138, 141)" stroke-opacity="0.2067859" stroke-linecap="round" stroke-linejoin="round"/>
    <path d="M 9.0 498.0 C 8.330126762390137 500.5 6.5 502.33013916015625 4.0 503.0 C 1.5 502.33013916015625 -0.3301270306110382 500.5 -1.0 498.0 C -0.3301270306110382 495.5 1.5 493.66986083984375 4.0 493.0 C 6.5 493.66986083984375 8.330126762390137 495.5 9.0 498.0" stroke-width="0.0" fill="rgb(207, 172, 137)" opacity="1.0" stroke="rgb(210, 60, 68)" stroke-opacity="0.49564388" stroke-linecap="round" stroke-linejoin="round"/>
    <path d="M 131.0 262.0 C 130.3301239013672 264.5 128.5 266.33013916015625 126.0 267.0 C 123.5 266.33013916015625 121.66987609863281 264.5 121.0 262.0 C 121.66987609863281 259.5 123.5 257.66986083984375 126.0 257.0 C 128.5 257.66986083984375 130.3301239013672 259.5 131.0 262.0" stroke-width="0.0" fill="rgb(209, 173, 125)" opacity="1.0" stroke="rgb(217, 245, 102)" stroke-opacity="0.11137297" stroke-linecap="round" stroke-linejoin="round"/>
  </g>
</svg>
