<?xml version="1.0" ?>
<svg xmlns="http://www.w3.org/2000/svg" version="1.1" width="365" height="512">
  <defs/>
  <g>
    <path d="M 371.7773742675781 161.96922302246094 C 373.352294921875 224.8159637451172 374.20556640625 232.10060119628906 295.5097961425781 240.39559936523438 C 257.79473876953125 226.5353240966797 255.18641662597656 226.28598022460938 247.36331176757812 141.58758544921875 C 265.7947082519531 110.77694702148438 273.0845031738281 111.49856567382812 348.9092712402344 110.99679565429688 C 370.99884033203125 121.8162612915039 368.5697326660156 125.31961059570312 371.7773742675781 161.96922302246094" stroke-width="0.0" fill="rgb(239, 247, 253)" opacity="0.9037945" stroke="rgb(131, 138, 141)" stroke-opacity="0.2067859" stroke-linecap="round" stroke-linejoin="round"/>
    <path d="M 54.7327995300293 445.6907043457031 C 48.450408935546875 539.354248046875 67.48737335205078 545.2230224609375 24.244300842285156 516.6126708984375 C -11.070786476135254 515.4503173828125 -12.299116134643555 510.7860412597656 -15.674616813659668 503.45440673828125 C -10.917084693908691 488.33111572265625 -13.00384521484375 487.9896240234375 -18.454275131225586 468.24267578125 C -24.170591354370117 426.51153564453125 -35.25582504272461 439.8369140625 54.7327995300293 445.6907043457031" stroke-width="0.0" fill="rgb(45, 37, 30)" opacity="0.8176906" stroke="rgb(210, 60, 68)" stroke-opacity="0.49564388" stroke-linecap="round" stroke-linejoin="round"/>
    <path d="M 151.53150939941406 234.69761657714844 C 130.8763427734375 446.0052185058594 264.789794921875 503.68914794921875 58.45938491821289 491.6008605957031 C 69.18415069580078 194.72857666015625 66.75301361083984 250.5057830810547 164.7186737060547 336.9254150390625 C 108.38099670410156 257.2588195800781 125.81514739990234 214.4602813720703 134.25860595703125 147.277099609375 C 200.38455200195312 225.1767120361328 174.8455352783203 281.0960693359375 151.53150939941406 234.69761657714844" stroke-width="0.0" fill="rgb(84, 55, 27)" opacity="0.34745356" stroke="rgb(217, 245, 102)" stroke-opacity="0.11137297" stroke-linecap="round" stroke-linejoin="round"/>
    <path d="M 155.40309143066406 92.33494567871094 C 159.5831756591797 151.33837890625 140.67059326171875 227.09674072265625 136.10455322265625 159.3213348388672 C 90.0554428100586 110.01334381103516 76.26657104492188 117.24266815185547 -9.681925773620605 45.981292724609375 C -18.535614013671875 -3.540496349334717 -22.027585983276367 -11.016127586364746 124.55530548095703 -10.037240028381348 C 177.44622802734375 -11.476360321044922 178.80050659179688 2.85825514793396 155.40309143066406 92.33494567871094" stroke-width="0.0" fill="rgb(154, 195, 245)" opacity="0.67771655" stroke="rgb(138, 98, 94)" stroke-opacity="0.7314384" stroke-linecap="round" stroke-linejoin="round"/>
    <path d="M 347.18243408203125 287.75567626953125 C 128.59617614746094 361.26190185546875 219.5252685546875 329.1503601074219 186.96035766601562 219.77320861816406 C 187.06900024414062 111.20380401611328 179.28036499023438 153.37255859375 165.5047149658203 36.11014175415039 C 166.80247497558594 -12.506241798400879 150.64181518554688 -12.811767578125 370.31414794921875 -4.344310283660889 C 391.5168151855469 53.460365295410156 402.9548034667969 128.8283233642578 347.18243408203125 287.75567626953125" stroke-width="0.0" fill="rgb(12, 47, 106)" opacity="0.4770669" stroke="rgb(244, 25, 250)" stroke-opacity="0.86883444" stroke-linecap="round" stroke-linejoin="round"/>
    <path d="M 134.47547912597656 138.41941833496094 C 101.8212890625 293.40765380859375 129.25424194335938 354.4317626953125 -6.185239791870117 364.5827941894531 C -16.9710636138916 193.3175811767578 -13.72191333770752 185.103271484375 -11.907594680786133 88.77327728271484 C -1.5871962308883667 33.51865768432617 14.2618408203125 46.57907485961914 43.89310836791992 58.30739974975586 C 117.39171600341797 75.30430603027344 186.57998657226562 89.09980010986328 134.47547912597656 138.41941833496094" stroke-width="0.0" fill="rgb(112, 181, 255)" opacity="0.49864832" stroke="rgb(248, 143, 190)" stroke-opacity="0.29664516" stroke-linecap="round" stroke-linejoin="round"/>
    <path d="M 197.65077209472656 79.15132141113281 C 156.38327026367188 93.61896514892578 204.85740661621094 116.6221694946289 166.79083251953125 193.61685180664062 C 178.32887268066406 49.55082702636719 141.4293212890625 105.36202239990234 166.81625366210938 75.82766723632812 C 166.77871704101562 12.809200286865234 163.02627563476562 56.5813102722168 170.7201690673828 49.216880798339844 C 171.56692504882812 75.07430267333984 174.3385467529297 80.41067504882812 197.65077209472656 79.15132141113281" stroke-width="0.0" fill="rgb(11, 25, 33)" opacity="0.6591768" stroke="rgb(157, 50, 167)" stroke-opacity="0.2508463" stroke-linecap="round" stroke-linejoin="round"/>
    <path d="M 371.0237731933594 460.9799499511719 C 381.13629150390625 483.1344299316406 375.9955139160156 499.2443542480469 364.959716796875 492.14141845703125 C 217.29075622558594 500.3839111328125 198.47512817382812 481.2832336425781 285.4785461425781 489.1851806640625 C 289.9744567871094 419.5018005371094 291.64105224609375 413.903564453125 339.9891052246094 407.5069580078125 C 358.4745178222656 417.3743896484375 351.8611145019531 426.3013610839844 371.0237731933594 460.9799499511719" stroke-width="0.0" fill="rgb(106, 71, 32)" opacity="0.7845578" stroke="rgb(155, 17, 219)" stroke-opacity="0.49399325" stroke-linecap="round" stroke-linejoin="round"/>
    <path d="M 58.474937438964844 376.78961181640625 C 52.824607849121094 460.83343505859375 57.324867248535156 444.270263671875 51.73678970336914 445.611083984375 C -28.75676155090332 436.1825256347656 -21.204811096191406 449.1490173339844 -11.378439903259277 363.9876708984375 C -0.24763204157352448 315.40484619140625 -4.65852165222168 317.0926208496094 55.48594284057617 330.3631591796875 C 58.7532844543457 357.76324462890625 55.25104522705078 364.29345703125 58.474937438964844 376.78961181640625" stroke-width="0.0" fill="rgb(193, 230, 255)" opacity="0.8215034" stroke="rgb(204, 215, 76)" stroke-opacity="0.088627934" stroke-linecap="round" stroke-linejoin="round"/>
    <path d="M 317.6239013671875 461.00860595703125 C 315.1571960449219 489.7831726074219 310.9615478515625 501.504150390625 292.2748718261719 479.4421691894531 C 281.3921813964844 481.41192626953125 281.35955810546875 500.9230041503906 276.87554931640625 428.6182556152344 C 276.8830261230469 403.2136535644531 268.42303466796875 403.4541931152344 323.4329528808594 404.13824462890625 C 325.47259521484375 408.6923828125 322.08154296875 412.8055419921875 317.6239013671875 461.00860595703125" stroke-width="0.0" fill="rgb(77, 55, 33)" opacity="0.9008534" stroke="rgb(74, 27, 148)" stroke-opacity="0.54781187" stroke-linecap="round" stroke-linejoin="round"/>
    <path d="M 339.0337219238281 406.9085693359375 C 339.60089111328125 428.7994689941406 338.99066162109375 429.5180969238281 281.3326416015625 427.776123046875 C 275.0827331542969 415.42205810546875 277.0760498046875 405.46197509765625 274.3507080078125 368.14129638671875 C 296.2598571777344 325.69927978515625 225.6658477783203 291.2543029785156 291.9984436035156 322.20806884765625 C 313.8977355957031 366.1630554199219 309.4561767578125 376.48651123046875 339.0337219238281 406.9085693359375" stroke-width="0.0" fill="rgb(86, 71, 49)" opacity="0.873008" stroke="rgb(238, 94, 23)" stroke-opacity="0.28804696" stroke-linecap="round" stroke-linejoin="round"/>
    <path d="M 377.3161926269531 287.1846923828125 C 347.0406799316406 373.041259765625 332.1843566894531 346.14007568359375 296.4589538574219 348.6957092285156 C 261.9101257324219 341.0482177734375 297.9587707519531 313.2549743652344 267.0097961425781 309.1701965332031 C 252.36019897460938 384.7813415527344 203.64932250976562 162.9811248779297 174.6026611328125 72.76544952392578 C 450.3406066894531 132.95907592773438 394.5553283691406 198.50775146484375 377.3161926269531 287.1846923828125" stroke-width="0.0" fill="rgb(142, 177, 218)" opacity="0.9870691" stroke="rgb(61, 99, 225)" stroke-opacity="0.31686097" stroke-linecap="round" stroke-linejoin="round"/>
    <path d="M 380.1575927734375 411.2655944824219 C 373.8624572753906 427.5854187011719 383.9339904785156 451.2741394042969 360.80108642578125 448.2109375 C 359.3600769042969 412.23944091796875 330.639404296875 426.8001708984375 332.0762023925781 411.68572998046875 C 332.97052001953125 368.0328063964844 319.71990966796875 374.04010009765625 347.4797668457031 369.77471923828125 C 381.7746276855469 373.3447265625 376.8303527832031 384.1559753417969 380.1575927734375 411.2655944824219" stroke-width="0.0" fill="rgb(224, 240, 251)" opacity="0.88454896" stroke="rgb(92, 33, 165)" stroke-opacity="0.39420578" stroke-linecap="round" stroke-linejoin="round"/>
    <path d="M 362.1836242675781 442.88055419921875 C 352.5299987792969 434.2267761230469 359.58331298828125 445.1175537109375 350.75115966796875 444.8397216796875 C 342.6240234375 443.80377197265625 331.2142028808594 446.1043395996094 335.06658935546875 425.8309020996094 C 326.7672424316406 414.8463134765625 338.0701904296875 416.98553466796875 361.42657470703125 422.0941467285156 C 367.121337890625 430.9951477050781 369.26025390625 434.4488220214844 362.1836242675781 442.88055419921875" stroke-width="0.0" fill="rgb(215, 224, 228)" opacity="0.9907579" stroke="rgb(217, 216, 81)" stroke-opacity="0.4297402" stroke-linecap="round" stroke-linejoin="round"/>
    <path d="M 377.6025390625 350.44708251953125 C 374.1398010253906 397.0044860839844 368.24969482421875 394.4315185546875 327.7268371582031 397.423095703125 C 318.4267883300781 382.4812316894531 314.7431335449219 381.70843505859375 304.3883361816406 360.7265930175781 C 309.6304016113281 340.86993408203125 293.3550109863281 356.73046875 332.78533935546875 336.3697509765625 C 356.9041748046875 318.59893798828125 375.0299072265625 309.8096008300781 377.6025390625 350.44708251953125" stroke-width="0.0" fill="rgb(219, 238, 253)" opacity="0.8989696" stroke="rgb(215, 220, 94)" stroke-opacity="0.78157437" stroke-linecap="round" stroke-linejoin="round"/>
    <path d="M 336.74969482421875 7.796657085418701 C 324.0931701660156 40.59744644165039 323.0513610839844 43.14114761352539 297.4452819824219 54.86249542236328 C 286.1469421386719 53.51680374145508 286.0453796386719 50.114105224609375 288.1141662597656 36.784969329833984 C 291.1337585449219 6.832606792449951 288.23040771484375 -2.453766107559204 334.45684814453125 -8.936698913574219 C 344.21954345703125 -7.340549468994141 344.1510009765625 -3.7690811157226562 336.74969482421875 7.796657085418701" stroke-width="0.0" fill="rgb(166, 181, 208)" opacity="0.78833556" stroke="rgb(111, 101, 88)" stroke-opacity="0.11458441" stroke-linecap="round" stroke-linejoin="round"/>
    <path d="M 306.8616943359375 44.28579330444336 C 306.8459167480469 59.37495040893555 304.1593017578125 59.962650299072266 286.9188232421875 63.66035079956055 C 255.3958282470703 69.40253448486328 252.5794219970703 69.33788299560547 252.38009643554688 63.63612365722656 C 253.03842163085938 12.581130027770996 254.05780029296875 9.764604568481445 258.24395751953125 5.32937479019165 C 299.34844970703125 14.308911323547363 301.25115966796875 20.56732749938965 306.8616943359375 44.28579330444336" stroke-width="0.0" fill="rgb(155, 177, 207)" opacity="0.81538707" stroke="rgb(48, 120, 252)" stroke-opacity="0.7325859" stroke-linecap="round" stroke-linejoin="round"/>
    <path d="M 350.7285461425781 3.0196423530578613 C 338.3226623535156 47.55195236206055 337.32879638671875 51.93456268310547 315.3107604980469 59.622066497802734 C 300.4060974121094 58.69024658203125 297.89154052734375 56.846378326416016 299.18280029296875 51.37123489379883 C 307.56939697265625 18.878694534301758 307.3743896484375 14.597505569458008 344.6758728027344 -8.160551071166992 C 361.01263427734375 -9.200803756713867 360.0162658691406 -4.429890155792236 350.7285461425781 3.0196423530578613" stroke-width="0.0" fill="rgb(172, 187, 213)" opacity="0.87272066" stroke="rgb(73, 165, 53)" stroke-opacity="0.12264703" stroke-linecap="round" stroke-linejoin="round"/>
    <path d="M 193.7364959716797 29.820140838623047 C 192.3489227294922 47.87324523925781 191.19088745117188 50.63824462890625 178.6585235595703 52.991111755371094 C 168.8791961669922 31.67930030822754 180.54869079589844 3.666299819946289 126.89282989501953 103.88795471191406 C 95.95622253417969 4.387915134429932 130.44764709472656 -9.633735656738281 200.25169372558594 -10.452132225036621 C 203.21775817871094 6.888849258422852 196.8735809326172 16.152841567993164 193.7364959716797 29.820140838623047" stroke-width="0.0" fill="rgb(157, 180, 211)" opacity="0.98257846" stroke="rgb(123, 72, 228)" stroke-opacity="0.7886628" stroke-linecap="round" stroke-linejoin="round"/>
    <path d="M 376.4636535644531 19.932628631591797 C 376.6759033203125 66.51177215576172 375.37322998046875 69.11161804199219 370.0304260253906 70.4461441040039 C 330.273681640625 59.072105407714844 331.963623046875 51.04891586303711 327.0199279785156 20.801116943359375 C 323.2705383300781 12.239263534545898 318.2882995605469 0.19856515526771545 365.9054870605469 -9.448687553405762 C 377.6512451171875 -0.7521133422851562 376.4674377441406 4.915831089019775 376.4636535644531 19.932628631591797" stroke-width="0.0" fill="rgb(174, 186, 217)" opacity="0.80927074" stroke="rgb(244, 67, 199)" stroke-opacity="0.46008587" stroke-linecap="round" stroke-linejoin="round"/>
    <path d="M 228.93475341796875 1.9382941722869873 C 227.51010131835938 65.2383041381836 224.87179565429688 65.28334045410156 218.39495849609375 70.30872344970703 C 189.85337829589844 27.624353408813477 184.84490966796875 42.30430221557617 174.66444396972656 25.31874656677246 C 177.29306030273438 18.852968215942383 172.32781982421875 9.121428489685059 198.35780334472656 -10.35520076751709 C 228.1459503173828 -8.342711448669434 228.4162139892578 -4.053717613220215 228.93475341796875 1.9382941722869873" stroke-width="0.0" fill="rgb(181, 197, 218)" opacity="0.8323144" stroke="rgb(221, 79, 192)" stroke-opacity="0.28303635" stroke-linecap="round" stroke-linejoin="round"/>
    <path d="M 368.0339660644531 70.21654510498047 C 378.9184265136719 116.40773010253906 381.15289306640625 125.44679260253906 362.3067321777344 146.99400329589844 C 265.5113220214844 137.0399169921875 285.81036376953125 115.72879791259766 291.5237731933594 86.49747467041016 C 291.4729919433594 42.60028076171875 291.4904479980469 38.53902053833008 294.0719909667969 35.37253952026367 C 334.4249572753906 37.64767074584961 335.60638427734375 40.18267822265625 368.0339660644531 70.21654510498047" stroke-width="0.0" fill="rgb(147, 175, 213)" opacity="0.986201" stroke="rgb(8, 114, 97)" stroke-opacity="0.42803198" stroke-linecap="round" stroke-linejoin="round"/>
    <path d="M 319.86248779296875 -1.1201331615447998 C 309.78912353515625 38.633907318115234 309.5669860839844 41.248104095458984 296.37860107421875 43.71410369873047 C 272.5731201171875 38.61568069458008 262.7295837402344 40.56859588623047 253.70948791503906 -2.743891716003418 C 259.29681396484375 -10.13093376159668 262.9230651855469 -10.263895034790039 308.0140075683594 -10.03842544555664 C 321.4485168457031 -9.947229385375977 324.86419677734375 -7.965023517608643 319.86248779296875 -1.1201331615447998" stroke-width="0.0" fill="rgb(166, 186, 213)" opacity="0.85153115" stroke="rgb(69, 26, 167)" stroke-opacity="0.9621008" stroke-linecap="round" stroke-linejoin="round"/>
    <path d="M 273.38116455078125 69.335693359375 C 273.2141418457031 75.81920623779297 271.750244140625 76.2076187133789 228.51654052734375 71.1824722290039 C 212.63238525390625 62.60914993286133 207.3498077392578 64.69475555419922 205.64804077148438 12.764787673950195 C 208.63331604003906 6.313964366912842 211.27621459960938 4.741063117980957 215.62216186523438 5.962449550628662 C 249.21481323242188 29.008630752563477 247.07733154296875 34.477210998535156 273.38116455078125 69.335693359375" stroke-width="0.0" fill="rgb(140, 169, 207)" opacity="0.797047" stroke="rgb(188, 20, 132)" stroke-opacity="0.196375" stroke-linecap="round" stroke-linejoin="round"/>
    <path d="M 268.64862060546875 101.32971954345703 C 267.22021484375 108.89703369140625 262.44970703125 107.51131439208984 234.27676391601562 109.28498840332031 C 200.72439575195312 98.65158081054688 200.36985778808594 89.90052032470703 191.47482299804688 56.283870697021484 C 193.38967895507812 41.78012466430664 195.8338165283203 38.597923278808594 221.88015747070312 38.47405242919922 C 254.46533203125 42.67613983154297 264.0359802246094 40.90717315673828 268.64862060546875 101.32971954345703" stroke-width="0.0" fill="rgb(128, 163, 201)" opacity="0.8623018" stroke="rgb(138, 53, 254)" stroke-opacity="0.15647613" stroke-linecap="round" stroke-linejoin="round"/>
    <path d="M 378.0845947265625 87.33599090576172 C 375.1725769042969 95.92438507080078 366.4468078613281 98.43727111816406 332.5568542480469 85.8669662475586 C 315.0645751953125 65.46939086914062 314.2420959472656 62.030399322509766 316.88848876953125 49.2061767578125 C 322.1678466796875 26.627370834350586 323.0121154785156 23.893901824951172 326.1174621582031 20.68794822692871 C 351.8887634277344 21.480751037597656 353.6182556152344 24.731300354003906 378.0845947265625 87.33599090576172" stroke-width="0.0" fill="rgb(140, 168, 203)" opacity="0.88432914" stroke="rgb(39, 104, 244)" stroke-opacity="0.27042997" stroke-linecap="round" stroke-linejoin="round"/>
    <path d="M 251.12876892089844 148.40887451171875 C 225.42190551757812 136.31869506835938 218.57798767089844 134.38323974609375 200.68002319335938 123.41996002197266 C 191.49293518066406 108.16670989990234 184.40184020996094 107.1551513671875 178.14122009277344 76.99311828613281 C 179.8396453857422 60.554656982421875 183.51290893554688 58.59347152709961 195.0142059326172 56.69304275512695 C 231.57704162597656 65.10853576660156 244.3962860107422 65.44998168945312 251.12876892089844 148.40887451171875" stroke-width="0.0" fill="rgb(144, 173, 210)" opacity="0.7370437" stroke="rgb(74, 33, 38)" stroke-opacity="0.023474576" stroke-linecap="round" stroke-linejoin="round"/>
    <path d="M 210.9255828857422 72.010498046875 C 207.2093505859375 80.99967193603516 205.44883728027344 82.81428527832031 178.2627716064453 82.47758483886719 C 176.58755493164062 93.42005920410156 176.4215087890625 81.00910949707031 170.05369567871094 53.48658752441406 C 175.72618103027344 58.08194351196289 156.89439392089844 34.28661346435547 179.10455322265625 20.9200382232666 C 196.53237915039062 40.76202392578125 206.03872680664062 38.86530303955078 210.9255828857422 72.010498046875" stroke-width="0.0" fill="rgb(158, 182, 208)" opacity="0.93193996" stroke="rgb(172, 186, 177)" stroke-opacity="0.41933772" stroke-linecap="round" stroke-linejoin="round"/>
    <path d="M 275.4413146972656 17.218904495239258 C 274.266357421875 58.500648498535156 272.5938720703125 61.15675354003906 266.6836242675781 66.4029312133789 C 243.24192810058594 38.61721420288086 238.74777221679688 41.16576385498047 202.6055908203125 -7.818647384643555 C 207.00816345214844 -10.663244247436523 210.07522583007812 -11.835084915161133 265.12493896484375 -11.291203498840332 C 278.05108642578125 -2.0474910736083984 277.000244140625 2.4679126739501953 275.4413146972656 17.218904495239258" stroke-width="0.0" fill="rgb(173, 188, 212)" opacity="0.83566624" stroke="rgb(128, 102, 153)" stroke-opacity="0.44530898" stroke-linecap="round" stroke-linejoin="round"/>
    <path d="M 312.3846435546875 45.26626205444336 C 311.91534423828125 81.22235107421875 314.126953125 86.34688568115234 313.59405517578125 132.10830688476562 C 236.338134765625 135.3793487548828 239.1313934326172 129.74461364746094 241.3732452392578 120.05848693847656 C 249.98373413085938 35.71927261352539 261.57525634765625 38.85770034790039 281.79083251953125 37.36391830444336 C 313.3799743652344 35.25068283081055 313.92962646484375 37.819026947021484 312.3846435546875 45.26626205444336" stroke-width="0.0" fill="rgb(139, 170, 208)" opacity="0.91782445" stroke="rgb(106, 127, 103)" stroke-opacity="0.8992365" stroke-linecap="round" stroke-linejoin="round"/>
    <path d="M 221.38600158691406 57.974971771240234 C 218.42013549804688 67.95905303955078 216.4179229736328 70.02893829345703 193.7442626953125 68.38069915771484 C 172.32545471191406 60.994972229003906 173.2677764892578 60.412017822265625 170.67852783203125 41.417789459228516 C 174.66668701171875 27.72468376159668 177.7997283935547 26.67892837524414 191.50827026367188 14.333882331848145 C 196.00567626953125 42.271583557128906 213.45245361328125 24.99924087524414 221.38600158691406 57.974971771240234" stroke-width="0.0" fill="rgb(155, 181, 211)" opacity="0.89434195" stroke="rgb(151, 172, 99)" stroke-opacity="0.5552627" stroke-linecap="round" stroke-linejoin="round"/>
    <path d="M 220.0 429.0 C 219.3301239013672 431.5 217.5 433.33013916015625 215.0 434.0 C 212.5 433.33013916015625 210.6698760986328 431.5 210.0 429.0 C 210.6698760986328 426.5 212.5 424.66986083984375 215.0 424.0 C 217.5 424.66986083984375 219.3301239013672 426.5 220.0 429.0" stroke-width="0.0" fill="rgb(92, 70, 46)" opacity="1.0" stroke="rgb(228, 249, 131)" stroke-opacity="0.3891784" stroke-linecap="round" stroke-linejoin="round"/>
    <path d="M 356.0 346.0 C 355.33013916015625 348.5 353.5 350.33013916015625 351.0 351.0 C 348.5 350.33013916015625 346.66986083984375 348.5 346.0 346.0 C 346.66986083984375 343.5 348.5 341.66986083984375 351.0 341.0 C 353.5 341.66986083984375 355.33013916015625 343.5 356.0 346.0" stroke-width="0.0" fill="rgb(140, 193, 235)" opacity="1.0" stroke="rgb(166, 241, 102)" stroke-opacity="0.96940726" stroke-linecap="round" stroke-linejoin="round"/>
    <path d="M 355.0 345.0 C 354.33013916015625 347.5 352.5 349.33013916015625 350.0 350.0 C 347.5 349.33013916015625 345.66986083984375 347.5 345.0 345.0 C 345.66986083984375 342.5 347.5 340.66986083984375 350.0 340.0 C 352.5 340.66986083984375 354.33013916015625 342.5 355.0 345.0" stroke-width="0.0" fill="rgb(138, 191, 235)" opacity="1.0" stroke="rgb(220, 247, 42)" stroke-opacity="0.71472114" stroke-linecap="round" stroke-linejoin="round"/>
    <path d="M 336.0 451.0 C 335.33013916015625 453.5 333.5 455.33013916015625 331.0 456.0 C 328.5 455.33013916015625 326.66986083984375 453.5 326.0 451.0 C 326.66986083984375 448.5 328.5 446.66986083984375 331.0 446.0 C 333.5 446.66986083984375 335.33013916015625 448.5 336.0 451.0" stroke-width="0.0" fill="rgb(46, 37, 30)" opacity="1.0" stroke="rgb(29, 222, 249)" stroke-opacity="0.21104231" stroke-linecap="round" stroke-linejoin="round"/>
    <path d="M 206.0 270.0 C 205.3301239013672 272.5 203.5 274.33013916015625 201.0 275.0 C 198.5 274.33013916015625 196.6698760986328 272.5 196.0 270.0 C 196.6698760986328 267.5 198.5 265.66986083984375 201.0 265.0 C 203.5 265.66986083984375 205.3301239013672 267.5 206.0 270.0" stroke-width="0.0" fill="rgb(65, 52, 36)" opacity="1.0" stroke="rgb(136, 217, 166)" stroke-opacity="0.68365955" stroke-linecap="round" stroke-linejoin="round"/>
    <path d="M 207.0 450.0 C 206.3301239013672 452.5 204.5 454.33013916015625 202.0 455.0 C 199.5 454.33013916015625 197.6698760986328 452.5 197.0 450.0 C 197.6698760986328 447.5 199.5 445.66986083984375 202.0 445.0 C 204.5 445.66986083984375 206.3301239013672 447.5 207.0 450.0" stroke-width="0.0" fill="rgb(107, 75, 54)" opacity="1.0" stroke="rgb(77, 162, 215)" stroke-opacity="0.48295102" stroke-linecap="round" stroke-linejoin="round"/>
    <path d="M 246.0 478.0 C 245.3301239013672 480.5 243.5 482.33013916015625 241.0 483.0 C 238.5 482.33013916015625 236.6698760986328 480.5 236.0 478.0 C 236.6698760986328 475.5 238.5 473.66986083984375 241.0 473.0 C 243.5 473.66986083984375 245.3301239013672 475.5 246.0 478.0" stroke-width="0.0" fill="rgb(26, 23, 16)" opacity="1.0" stroke="rgb(116, 195, 38)" stroke-opacity="0.294083" stroke-linecap="round" stroke-linejoin="round"/>
    <path d="M 216.0 317.0 C 215.3301239013672 319.5 213.5 321.33013916015625 211.0 322.0 C 208.5 321.33013916015625 206.6698760986328 319.5 206.0 317.0 C 206.6698760986328 314.5 208.5 312.66986083984375 211.0 312.0 C 213.5 312.66986083984375 215.3301239013672 314.5 216.0 317.0" stroke-width="0.0" fill="rgb(95, 73, 49)" opacity="1.0" stroke="rgb(126, 28, 22)" stroke-opacity="0.21095188" stroke-linecap="round" stroke-linejoin="round"/>
    <path d="M 359.0 471.0 C 358.33013916015625 473.5 356.5 475.33013916015625 354.0 476.0 C 351.5 475.33013916015625 349.66986083984375 473.5 349.0 471.0 C 349.66986083984375 468.5 351.5 466.66986083984375 354.0 466.0 C 356.5 466.66986083984375 358.33013916015625 468.5 359.0 471.0" stroke-width="0.0" fill="rgb(59, 46, 30)" opacity="1.0" stroke="rgb(2, 194, 225)" stroke-opacity="0.70846915" stroke-linecap="round" stroke-linejoin="round"/>
    <path d="M 351.0 347.0 C 350.33013916015625 349.5 348.5 351.33013916015625 346.0 352.0 C 343.5 351.33013916015625 341.66986083984375 349.5 341.0 347.0 C 341.66986083984375 344.5 343.5 342.66986083984375 346.0 342.0 C 348.5 342.66986083984375 350.33013916015625 344.5 351.0 347.0" stroke-width="0.0" fill="rgb(135, 189, 236)" opacity="1.0" stroke="rgb(202, 232, 222)" stroke-opacity="0.41960514" stroke-linecap="round" stroke-linejoin="round"/>
    <path d="M 77.0 469.0 C 76.33012390136719 471.5 74.5 473.33013916015625 72.0 474.0 C 69.5 473.33013916015625 67.66987609863281 471.5 67.0 469.0 C 67.66987609863281 466.5 69.5 464.66986083984375 72.0 464.0 C 74.5 464.66986083984375 76.33012390136719 466.5 77.0 469.0" stroke-width="0.0" fill="rgb(107, 72, 45)" opacity="1.0" stroke="rgb(229, 88, 253)" stroke-opacity="0.53302217" stroke-linecap="round" stroke-linejoin="round"/>
    <path d="M 146.0 427.0 C 145.3301239013672 429.5 143.5 431.33013916015625 141.0 432.0 C 138.5 431.33013916015625 136.6698760986328 429.5 136.0 427.0 C 136.6698760986328 424.5 138.5 422.66986083984375 141.0 422.0 C 143.5 422.66986083984375 145.3301239013672 424.5 146.0 427.0" stroke-width="0.0" fill="rgb(106, 71, 43)" opacity="1.0" stroke="rgb(181, 115, 10)" stroke-opacity="0.51271784" stroke-linecap="round" stroke-linejoin="round"/>
    <path d="M 30.0 471.0 C 29.330127716064453 473.5 27.5 475.33013916015625 25.0 476.0 C 22.5 475.33013916015625 20.669872283935547 473.5 20.0 471.0 C 20.669872283935547 468.5 22.5 466.66986083984375 25.0 466.0 C 27.5 466.66986083984375 29.330127716064453 468.5 30.0 471.0" stroke-width="0.0" fill="rgb(5, 3, 1)" opacity="1.0" stroke="rgb(8, 218, 61)" stroke-opacity="0.8818105" stroke-linecap="round" stroke-linejoin="round"/>
    <path d="M 311.0 481.0 C 310.33013916015625 483.5 308.5 485.33013916015625 306.0 486.0 C 303.5 485.33013916015625 301.66986083984375 483.5 301.0 481.0 C 301.66986083984375 478.5 303.5 476.66986083984375 306.0 476.0 C 308.5 476.66986083984375 310.33013916015625 478.5 311.0 481.0" stroke-width="0.0" fill="rgb(1, 2, 0)" opacity="1.0" stroke="rgb(88, 119, 232)" stroke-opacity="0.92554986" stroke-linecap="round" stroke-linejoin="round"/>
    <path d="M 141.0 458.0 C 140.3301239013672 460.5 138.5 462.33013916015625 136.0 463.0 C 133.5 462.33013916015625 131.6698760986328 460.5 131.0 458.0 C 131.6698760986328 455.5 133.5 453.66986083984375 136.0 453.0 C 138.5 453.66986083984375 140.3301239013672 455.5 141.0 458.0" stroke-width="0.0" fill="rgb(96, 64, 39)" opacity="1.0" stroke="rgb(238, 37, 237)" stroke-opacity="0.5864289" stroke-linecap="round" stroke-linejoin="round"/>
    <path d="M 129.0 457.0 C 128.3301239013672 459.5 126.5 461.33013916015625 124.0 462.0 C 121.5 461.33013916015625 119.66987609863281 459.5 119.0 457.0 C 119.66987609863281 454.5 121.5 452.66986083984375 124.0 452.0 C 126.5 452.66986083984375 128.3301239013672 454.5 129.0 457.0" stroke-width="0.0" fill="rgb(86, 61, 41)" opacity="1.0" stroke="rgb(76, 213, 104)" stroke-opacity="0.9322047" stroke-linecap="round" stroke-linejoin="round"/>
    <path d="M 206.0 275.0 C 205.3301239013672 277.5 203.5 279.33013916015625 201.0 280.0 C 198.5 279.33013916015625 196.6698760986328 277.5 196.0 275.0 C 196.6698760986328 272.5 198.5 270.66986083984375 201.0 270.0 C 203.5 270.66986083984375 205.3301239013672 272.5 206.0 275.0" stroke-width="0.0" fill="rgb(57, 46, 37)" opacity="1.0" stroke="rgb(54, 158, 111)" stroke-opacity="0.023830056" stroke-linecap="round" stroke-linejoin="round"/>
    <path d="M 199.0 149.0 C 198.3301239013672 151.5 196.5 153.3301239013672 194.0 154.0 C 191.5 153.3301239013672 189.6698760986328 151.5 189.0 149.0 C 189.6698760986328 146.5 191.5 144.6698760986328 194.0 144.0 C 196.5 144.6698760986328 198.3301239013672 146.5 199.0 149.0" stroke-width="0.0" fill="rgb(141, 179, 215)" opacity="1.0" stroke="rgb(196, 224, 155)" stroke-opacity="0.5633921" stroke-linecap="round" stroke-linejoin="round"/>
    <path d="M 197.0 144.0 C 196.3301239013672 146.5 194.5 148.3301239013672 192.0 149.0 C 189.5 148.3301239013672 187.6698760986328 146.5 187.0 144.0 C 187.6698760986328 141.5 189.5 139.6698760986328 192.0 139.0 C 194.5 139.6698760986328 196.3301239013672 141.5 197.0 144.0" stroke-width="0.0" fill="rgb(142, 180, 216)" opacity="1.0" stroke="rgb(189, 196, 201)" stroke-opacity="0.45727605" stroke-linecap="round" stroke-linejoin="round"/>
    <path d="M 195.0 133.0 C 194.3301239013672 135.5 192.5 137.3301239013672 190.0 138.0 C 187.5 137.3301239013672 185.6698760986328 135.5 185.0 133.0 C 185.6698760986328 130.5 187.5 128.6698760986328 190.0 128.0 C 192.5 128.6698760986328 194.3301239013672 130.5 195.0 133.0" stroke-width="0.0" fill="rgb(150, 181, 219)" opacity="1.0" stroke="rgb(21, 19, 133)" stroke-opacity="0.037032824" stroke-linecap="round" stroke-linejoin="round"/>
    <path d="M 194.0 127.0 C 193.3301239013672 129.5 191.5 131.3301239013672 189.0 132.0 C 186.5 131.3301239013672 184.6698760986328 129.5 184.0 127.0 C 184.6698760986328 124.5 186.5 122.66987609863281 189.0 122.0 C 191.5 122.66987609863281 193.3301239013672 124.5 194.0 127.0" stroke-width="0.0" fill="rgb(151, 182, 220)" opacity="1.0" stroke="rgb(118, 63, 169)" stroke-opacity="0.120282836" stroke-linecap="round" stroke-linejoin="round"/>
    <path d="M 247.0 304.0 C 246.3301239013672 306.5 244.5 308.33013916015625 242.0 309.0 C 239.5 308.33013916015625 237.6698760986328 306.5 237.0 304.0 C 237.6698760986328 301.5 239.5 299.66986083984375 242.0 299.0 C 244.5 299.66986083984375 246.3301239013672 301.5 247.0 304.0" stroke-width="0.0" fill="rgb(127, 180, 232)" opacity="1.0" stroke="rgb(14, 179, 168)" stroke-opacity="0.9013522" stroke-linecap="round" stroke-linejoin="round"/>
    <path d="M 248.0 310.0 C 247.3301239013672 312.5 245.5 314.33013916015625 243.0 315.0 C 240.5 314.33013916015625 238.6698760986328 312.5 238.0 310.0 C 238.6698760986328 307.5 240.5 305.66986083984375 243.0 305.0 C 245.5 305.66986083984375 247.3301239013672 307.5 248.0 310.0" stroke-width="0.0" fill="rgb(123, 182, 238)" opacity="1.0" stroke="rgb(6, 106, 182)" stroke-opacity="0.5417154" stroke-linecap="round" stroke-linejoin="round"/>
    <path d="M 250.0 454.0 C 249.3301239013672 456.5 247.5 458.33013916015625 245.0 459.0 C 242.5 458.33013916015625 240.6698760986328 456.5 240.0 454.0 C 240.6698760986328 451.5 242.5 449.66986083984375 245.0 449.0 C 247.5 449.66986083984375 249.3301239013672 451.5 250.0 454.0" stroke-width="0.0" fill="rgb(113, 83, 57)" opacity="1.0" stroke="rgb(185, 85, 230)" stroke-opacity="0.6600386" stroke-linecap="round" stroke-linejoin="round"/>
    <path d="M 236.0 456.0 C 235.3301239013672 458.5 233.5 460.33013916015625 231.0 461.0 C 228.5 460.33013916015625 226.6698760986328 458.5 226.0 456.0 C 226.6698760986328 453.5 228.5 451.66986083984375 231.0 451.0 C 233.5 451.66986083984375 235.3301239013672 453.5 236.0 456.0" stroke-width="0.0" fill="rgb(111, 81, 52)" opacity="1.0" stroke="rgb(129, 32, 147)" stroke-opacity="0.11561122" stroke-linecap="round" stroke-linejoin="round"/>
    <path d="M 207.0 444.0 C 206.3301239013672 446.5 204.5 448.33013916015625 202.0 449.0 C 199.5 448.33013916015625 197.6698760986328 446.5 197.0 444.0 C 197.6698760986328 441.5 199.5 439.66986083984375 202.0 439.0 C 204.5 439.66986083984375 206.3301239013672 441.5 207.0 444.0" stroke-width="0.0" fill="rgb(106, 74, 52)" opacity="1.0" stroke="rgb(121, 227, 11)" stroke-opacity="0.94225234" stroke-linecap="round" stroke-linejoin="round"/>
    <path d="M 215.0 469.0 C 214.3301239013672 471.5 212.5 473.33013916015625 210.0 474.0 C 207.5 473.33013916015625 205.6698760986328 471.5 205.0 469.0 C 205.6698760986328 466.5 207.5 464.66986083984375 210.0 464.0 C 212.5 464.66986083984375 214.3301239013672 466.5 215.0 469.0" stroke-width="0.0" fill="rgb(100, 63, 36)" opacity="1.0" stroke="rgb(189, 169, 49)" stroke-opacity="0.1686997" stroke-linecap="round" stroke-linejoin="round"/>
    <path d="M 222.0 468.0 C 221.3301239013672 470.5 219.5 472.33013916015625 217.0 473.0 C 214.5 472.33013916015625 212.6698760986328 470.5 212.0 468.0 C 212.6698760986328 465.5 214.5 463.66986083984375 217.0 463.0 C 219.5 463.66986083984375 221.3301239013672 465.5 222.0 468.0" stroke-width="0.0" fill="rgb(89, 61, 43)" opacity="1.0" stroke="rgb(98, 81, 81)" stroke-opacity="0.25951836" stroke-linecap="round" stroke-linejoin="round"/>
    <path d="M 40.0 499.0 C 39.33012771606445 501.5 37.5 503.33013916015625 35.0 504.0 C 32.5 503.33013916015625 30.669872283935547 501.5 30.0 499.0 C 30.669872283935547 496.5 32.5 494.66986083984375 35.0 494.0 C 37.5 494.66986083984375 39.33012771606445 496.5 40.0 499.0" stroke-width="0.0" fill="rgb(208, 168, 137)" opacity="1.0" stroke="rgb(239, 69, 84)" stroke-opacity="0.93480587" stroke-linecap="round" stroke-linejoin="round"/>
    <path d="M 172.0 451.0 C 171.3301239013672 453.5 169.5 455.33013916015625 167.0 456.0 C 164.5 455.33013916015625 162.6698760986328 453.5 162.0 451.0 C 162.6698760986328 448.5 164.5 446.66986083984375 167.0 446.0 C 169.5 446.66986083984375 171.3301239013672 448.5 172.0 451.0" stroke-width="0.0" fill="rgb(35, 3, 2)" opacity="1.0" stroke="rgb(242, 144, 30)" stroke-opacity="0.7719434" stroke-linecap="round" stroke-linejoin="round"/>
    <path d="M 154.0 452.0 C 153.3301239013672 454.5 151.5 456.33013916015625 149.0 457.0 C 146.5 456.33013916015625 144.6698760986328 454.5 144.0 452.0 C 144.6698760986328 449.5 146.5 447.66986083984375 149.0 447.0 C 151.5 447.66986083984375 153.3301239013672 449.5 154.0 452.0" stroke-width="0.0" fill="rgb(29, 1, 2)" opacity="1.0" stroke="rgb(156, 213, 37)" stroke-opacity="0.46265432" stroke-linecap="round" stroke-linejoin="round"/>
    <path d="M 152.0 457.0 C 151.3301239013672 459.5 149.5 461.33013916015625 147.0 462.0 C 144.5 461.33013916015625 142.6698760986328 459.5 142.0 457.0 C 142.6698760986328 454.5 144.5 452.66986083984375 147.0 452.0 C 149.5 452.66986083984375 151.3301239013672 454.5 152.0 457.0" stroke-width="0.0" fill="rgb(26, 0, 0)" opacity="1.0" stroke="rgb(224, 11, 40)" stroke-opacity="0.53664666" stroke-linecap="round" stroke-linejoin="round"/>
  </g>
</svg>
