<?xml version="1.0" ?>
<svg xmlns="http://www.w3.org/2000/svg" version="1.1" width="512" height="512">
  <defs/>
  <g>
    <path d="M 41.22612380981445 61.14631652832031 C 77.84660339355469 58.46269226074219 112.89888763427734 75.40252685546875 8.744974136352539 98.33348083496094 C 3.6765055656433105 49.592838287353516 10.723688125610352 59.82780075073242 16.129404067993164 61.88596725463867 C 13.303359031677246 37.90131759643555 19.983312606811523 34.261905670166016 19.59449577331543 35.91466522216797 C 10.023255348205566 63.45453643798828 15.923187255859375 61.040077209472656 41.22612380981445 61.14631652832031" stroke-width="0.0" fill="rgb(227, 157, 112)" opacity="0.81132835" stroke="rgb(69, 65, 228)" stroke-opacity="0.061015464" stroke-linecap="round" stroke-linejoin="round"/>
    <path d="M 83.57049560546875 60.7014045715332 C 104.56047821044922 284.3091125488281 133.55885314941406 159.40159606933594 7.192405700683594 270.8997802734375 C 7.081215858459473 11.139820098876953 5.709728717803955 64.36673736572266 12.181917190551758 60.389549255371094 C 12.797666549682617 52.44730758666992 20.81195831298828 49.58808517456055 26.74791145324707 33.15495300292969 C 9.718531608581543 71.07843017578125 -10.90898609161377 55.71349334716797 83.57049560546875 60.7014045715332" stroke-width="0.0" fill="rgb(91, 56, 31)" opacity="0.5375328" stroke="rgb(37, 210, 11)" stroke-opacity="0.6564148" stroke-linecap="round" stroke-linejoin="round"/>
    <path d="M 409.51708984375 6.274614334106445 C 425.9467468261719 78.15786743164062 419.4187316894531 94.62704467773438 367.8531799316406 92.1564712524414 C 233.42112731933594 155.1264190673828 327.751953125 177.04220581054688 209.79190063476562 168.09205627441406 C 183.66661071777344 -23.251422882080078 177.7386474609375 10.535819053649902 226.67483520507812 7.425637722015381 C 327.1438903808594 7.466832160949707 332.7117004394531 7.266449451446533 409.51708984375 6.274614334106445" stroke-width="0.0" fill="rgb(101, 112, 105)" opacity="0.36035734" stroke="rgb(236, 152, 50)" stroke-opacity="0.7445966" stroke-linecap="round" stroke-linejoin="round"/>
    <path d="M 5.506121635437012 308.7850036621094 C 4.6117072105407715 262.4298400878906 4.684907913208008 256.76922607421875 5.782054424285889 330.0329895019531 C -46.22964096069336 302.7807922363281 -11.026123046875 263.9057922363281 -13.169530868530273 246.04159545898438 C -14.215126991271973 220.3295440673828 -100.43917846679688 155.54107666015625 6.818657875061035 81.1886215209961 C 6.593661308288574 299.713134765625 7.27901554107666 318.4443359375 5.506121635437012 308.7850036621094" stroke-width="0.0" fill="rgb(255, 255, 255)" opacity="0.8540703" stroke="rgb(115, 68, 133)" stroke-opacity="0.4278751" stroke-linecap="round" stroke-linejoin="round"/>
    <path d="M 7.05377721786499 425.24908447265625 C 12.328073501586914 394.9344787597656 5.100637435913086 392.1802978515625 7.037084102630615 518.2501831054688 C -75.86080932617188 474.67559814453125 -16.23879623413086 423.2592468261719 -16.699684143066406 388.6234130859375 C -15.462492942810059 368.8817138671875 -43.09244918823242 345.6307067871094 6.76289176940918 300.0832214355469 C 6.521618366241455 368.0782165527344 7.880928039550781 400.4660949707031 7.05377721786499 425.24908447265625" stroke-width="0.0" fill="rgb(255, 255, 255)" opacity="0.83152235" stroke="rgb(169, 142, 102)" stroke-opacity="0.36690417" stroke-linecap="round" stroke-linejoin="round"/>
    <path d="M 135.08480834960938 190.91213989257812 C 135.41419982910156 302.27532958984375 205.6285858154297 372.2011413574219 106.33870697021484 402.3997802734375 C 116.94864654541016 222.2758331298828 90.37142181396484 235.32427978515625 101.825927734375 241.81277465820312 C 75.33992004394531 70.52576446533203 72.92091369628906 68.01065063476562 82.06938171386719 61.638057708740234 C 109.80310821533203 232.39382934570312 85.5909652709961 180.4208221435547 135.08480834960938 190.91213989257812" stroke-width="0.0" fill="rgb(0, 16, 27)" opacity="0.724708" stroke="rgb(80, 76, 67)" stroke-opacity="0.21527018" stroke-linecap="round" stroke-linejoin="round"/>
    <path d="M 93.87293243408203 400.34814453125 C 204.8561553955078 338.9750061035156 183.02377319335938 469.8764953613281 176.83033752441406 466.1153259277344 C 41.91410827636719 501.5586242675781 72.3224868774414 493.17510986328125 9.396242141723633 497.8276672363281 C -8.101231575012207 200.59873962402344 48.14492416381836 216.4864501953125 43.084415435791016 467.17254638671875 C 122.39605712890625 467.8175354003906 78.34384155273438 460.1664123535156 93.87293243408203 400.34814453125" stroke-width="0.0" fill="rgb(42, 28, 21)" opacity="0.54065436" stroke="rgb(223, 167, 125)" stroke-opacity="0.57557094" stroke-linecap="round" stroke-linejoin="round"/>
    <path d="M 522.4490966796875 222.7732391357422 C 523.4591064453125 231.98431396484375 522.921142578125 232.07508850097656 505.6091003417969 231.9697723388672 C 506.6763000488281 137.0926513671875 505.0575866699219 161.32345581054688 506.3393859863281 299.4325866699219 C 506.77783203125 256.4771423339844 506.01422119140625 188.72528076171875 507.03411865234375 74.5052719116211 C 599.8204345703125 128.89498901367188 527.4236450195312 204.0930633544922 522.4490966796875 222.7732391357422" stroke-width="0.0" fill="rgb(254, 254, 255)" opacity="0.8957378" stroke="rgb(236, 33, 34)" stroke-opacity="0.59380275" stroke-linecap="round" stroke-linejoin="round"/>
    <path d="M 448.75262451171875 186.90113830566406 C 443.3702087402344 291.301025390625 470.03338623046875 244.80752563476562 382.90643310546875 305.11224365234375 C 376.53363037109375 358.29931640625 375.65167236328125 355.5369567871094 344.27191162109375 206.96987915039062 C 312.9122314453125 354.3086242675781 329.38916015625 245.92147827148438 342.4211120605469 187.73565673828125 C 437.0247802734375 187.39048767089844 386.7984924316406 187.66131591796875 448.75262451171875 186.90113830566406" stroke-width="0.0" fill="rgb(68, 76, 75)" opacity="0.72384703" stroke="rgb(187, 34, 142)" stroke-opacity="0.07925768" stroke-linecap="round" stroke-linejoin="round"/>
    <path d="M 76.9327621459961 90.6424560546875 C 71.7588882446289 115.97877502441406 65.36711883544922 132.51284790039062 48.2339973449707 213.6151123046875 C -38.91674041748047 220.61495971679688 38.44528579711914 193.5561981201172 30.59476089477539 211.62615966796875 C 60.632991790771484 92.49202728271484 65.05107116699219 73.73678588867188 68.9932861328125 61.5401496887207 C 97.49053955078125 54.202362060546875 77.0561752319336 83.84899139404297 76.9327621459961 90.6424560546875" stroke-width="0.0" fill="rgb(38, 62, 71)" opacity="0.7643709" stroke="rgb(154, 198, 188)" stroke-opacity="0.9296262" stroke-linecap="round" stroke-linejoin="round"/>
    <path d="M 93.09727478027344 401.7173767089844 C 93.25346374511719 510.3090515136719 105.25254821777344 433.1448669433594 128.5760040283203 477.9501647949219 C 62.36115646362305 475.35150146484375 82.68131256103516 488.90216064453125 81.73046112060547 461.9779052734375 C 83.10108184814453 390.4707946777344 81.0595474243164 391.2077331542969 82.88501739501953 391.9959411621094 C 101.05216217041016 397.5210266113281 100.86824798583984 395.41650390625 93.09727478027344 401.7173767089844" stroke-width="0.0" fill="rgb(37, 49, 52)" opacity="1.0" stroke="rgb(245, 155, 158)" stroke-opacity="0.69371015" stroke-linecap="round" stroke-linejoin="round"/>
    <path d="M 131.1536407470703 219.1001434326172 C 152.38243103027344 368.9351806640625 147.74990844726562 319.8114929199219 136.07191467285156 343.6955261230469 C 102.97087097167969 286.0576171875 128.7733917236328 332.1620178222656 113.79874420166016 468.1950988769531 C 113.15374755859375 287.3881530761719 111.57965087890625 248.65757751464844 124.52877044677734 283.9566955566406 C 153.6971893310547 329.2989196777344 112.27305603027344 224.56332397460938 131.1536407470703 219.1001434326172" stroke-width="0.0" fill="rgb(146, 145, 134)" opacity="0.99267834" stroke="rgb(166, 75, 45)" stroke-opacity="0.66183096" stroke-linecap="round" stroke-linejoin="round"/>
    <path d="M 319.3209228515625 325.2201843261719 C 315.6495056152344 494.51922607421875 325.92425537109375 454.06597900390625 307.42840576171875 460.251953125 C 309.4061279296875 334.7638854980469 311.8352966308594 380.2447814941406 289.9184875488281 320.19659423828125 C 238.8340301513672 425.68975830078125 294.5845642089844 326.7930908203125 280.229736328125 246.38291931152344 C 346.63470458984375 253.85328674316406 338.8870849609375 223.1404266357422 319.3209228515625 325.2201843261719" stroke-width="0.0" fill="rgb(7, 5, 5)" opacity="0.60912275" stroke="rgb(108, 133, 28)" stroke-opacity="0.5740661" stroke-linecap="round" stroke-linejoin="round"/>
    <path d="M 500.3751525878906 470.57452392578125 C 495.8450012207031 391.10552978515625 508.3812255859375 246.2149658203125 506.3371276855469 493.8560791015625 C 253.40342712402344 468.4920959472656 266.4565734863281 445.4046936035156 475.3425598144531 472.8433837890625 C 476.3714904785156 369.69293212890625 471.4664306640625 397.7514953613281 488.1284484863281 390.2091979980469 C 493.1461181640625 465.8380432128906 479.9584655761719 475.69500732421875 500.3751525878906 470.57452392578125" stroke-width="0.0" fill="rgb(44, 16, 1)" opacity="0.51188135" stroke="rgb(128, 222, 76)" stroke-opacity="0.90760267" stroke-linecap="round" stroke-linejoin="round"/>
    <path d="M 244.64669799804688 457.6603698730469 C 240.51800537109375 516.9144287109375 246.9214324951172 504.6180419921875 263.9079284667969 505.5923767089844 C 133.46438598632812 505.930908203125 117.37289428710938 506.48187255859375 121.7120361328125 505.2736511230469 C 182.3560333251953 479.4315185546875 191.41822814941406 474.26220703125 226.309326171875 461.3978576660156 C 96.00740814208984 456.46527099609375 217.28160095214844 457.62811279296875 244.64669799804688 457.6603698730469" stroke-width="0.0" fill="rgb(36, 54, 62)" opacity="0.5954073" stroke="rgb(137, 2, 171)" stroke-opacity="0.8611319" stroke-linecap="round" stroke-linejoin="round"/>
    <path d="M 274.0121765136719 6.003726482391357 C 275.94537353515625 5.981325149536133 264.7915344238281 6.018509864807129 272.12896728515625 6.018164157867432 C 234.13104248046875 5.976968288421631 240.71804809570312 6.028973579406738 241.09954833984375 6.01198148727417 C 241.0615997314453 -11.684293746948242 239.9720458984375 -9.803217887878418 262.3624267578125 -7.874020576477051 C 273.95330810546875 -12.099900245666504 273.9887390136719 -12.852178573608398 274.0121765136719 6.003726482391357" stroke-width="0.0" fill="rgb(254, 254, 255)" opacity="0.9115125" stroke="rgb(165, 81, 143)" stroke-opacity="0.8953763" stroke-linecap="round" stroke-linejoin="round"/>
    <path d="M 359.9808349609375 506.6031188964844 C 360.43536376953125 530.3682861328125 354.050537109375 522.2635498046875 327.00091552734375 521.386962890625 C 313.54473876953125 523.4279174804688 290.3463134765625 566.021240234375 263.7163391113281 504.92926025390625 C 334.5633544921875 509.2604675292969 362.23358154296875 499.67236328125 331.8140563964844 504.5575866699219 C 319.59222412109375 508.6465759277344 361.53729248046875 503.11199951171875 359.9808349609375 506.6031188964844" stroke-width="0.0" fill="rgb(255, 255, 255)" opacity="0.8320269" stroke="rgb(184, 159, 225)" stroke-opacity="0.93979347" stroke-linecap="round" stroke-linejoin="round"/>
    <path d="M 448.1216735839844 239.07518005371094 C 449.6217956542969 229.14358520507812 443.64447021484375 244.06214904785156 414.913330078125 258.4405822753906 C 426.010986328125 258.00762939453125 422.8935546875 257.3365478515625 422.8258056640625 213.6288604736328 C 420.4219665527344 199.76852416992188 391.47845458984375 191.6788330078125 446.70037841796875 196.0079345703125 C 445.3748474121094 174.8187255859375 450.2607421875 194.74449157714844 448.1216735839844 239.07518005371094" stroke-width="0.0" fill="rgb(7, 21, 26)" opacity="0.7589656" stroke="rgb(242, 163, 0)" stroke-opacity="0.121152185" stroke-linecap="round" stroke-linejoin="round"/>
    <path d="M 506.3546142578125 51.44463348388672 C 504.344970703125 167.28070068359375 511.94635009765625 131.8448486328125 496.3750915527344 137.9901580810547 C 465.3379821777344 50.15597152709961 486.159423828125 33.19390106201172 450.1590881347656 176.8182830810547 C 435.25518798828125 185.65591430664062 480.7934875488281 39.61599349975586 468.7729797363281 52.5122184753418 C 518.3318481445312 50.25837326049805 504.5546875 52.718082427978516 506.3546142578125 51.44463348388672" stroke-width="0.0" fill="rgb(8, 20, 27)" opacity="0.8857761" stroke="rgb(81, 173, 20)" stroke-opacity="0.4434601" stroke-linecap="round" stroke-linejoin="round"/>
    <path d="M 383.484375 385.26824951171875 C 379.0447998046875 459.56689453125 391.2178649902344 464.0820617675781 364.49468994140625 467.8250427246094 C 365.7760925292969 424.3219299316406 364.95867919921875 405.37542724609375 365.6478576660156 350.1802673339844 C 371.1126403808594 355.9802551269531 362.6023864746094 352.91082763671875 378.2376403808594 346.8850402832031 C 385.9303894042969 347.0165710449219 381.00048828125 380.347412109375 383.484375 385.26824951171875" stroke-width="0.0" fill="rgb(63, 76, 79)" opacity="0.6166994" stroke="rgb(222, 114, 94)" stroke-opacity="0.732884" stroke-linecap="round" stroke-linejoin="round"/>
    <path d="M 241.54000854492188 144.43736267089844 C 243.49537658691406 203.1865234375 248.3505401611328 114.86465454101562 273.080810546875 164.41085815429688 C 214.31748962402344 165.166748046875 213.64212036132812 163.99363708496094 220.30238342285156 163.29669189453125 C 219.83489990234375 159.96315002441406 225.801025390625 154.51649475097656 246.36119079589844 127.25743865966797 C 255.29519653320312 143.4847412109375 278.74322509765625 157.0480499267578 241.54000854492188 144.43736267089844" stroke-width="0.0" fill="rgb(255, 243, 218)" opacity="0.8065571" stroke="rgb(184, 3, 135)" stroke-opacity="0.32203558" stroke-linecap="round" stroke-linejoin="round"/>
    <path d="M 382.8868408203125 462.9384765625 C 382.7109680175781 484.6017150878906 385.80499267578125 475.9796142578125 374.62664794921875 477.4363098144531 C 357.12225341796875 476.64727783203125 368.78411865234375 479.61822509765625 363.1803894042969 457.48358154296875 C 373.7391357421875 450.65203857421875 392.2085876464844 468.0367126464844 376.2024230957031 436.7840881347656 C 374.5149841308594 436.22589111328125 383.0867614746094 442.84356689453125 382.8868408203125 462.9384765625" stroke-width="0.0" fill="rgb(10, 26, 32)" opacity="0.82398754" stroke="rgb(0, 252, 239)" stroke-opacity="0.34289593" stroke-linecap="round" stroke-linejoin="round"/>
    <path d="M 147.24520874023438 5.967032432556152 C 3.2007992267608643 6.205557346343994 -22.6256103515625 5.0727715492248535 23.16718292236328 8.558564186096191 C 191.48226928710938 8.388083457946777 54.877620697021484 6.876325607299805 11.113265037536621 7.700693130493164 C 9.642555236816406 -23.13658905029297 21.9583740234375 -11.27355670928955 44.37828826904297 -7.5926737785339355 C 59.68448257446289 -14.947514533996582 88.4490737915039 -56.70252227783203 147.24520874023438 5.967032432556152" stroke-width="0.0" fill="rgb(255, 255, 255)" opacity="0.8736726" stroke="rgb(221, 222, 111)" stroke-opacity="0.76970196" stroke-linecap="round" stroke-linejoin="round"/>
    <path d="M 382.4131774902344 312.0452880859375 C 381.42803955078125 381.52801513671875 388.50164794921875 366.9029235839844 349.615478515625 380.4320983886719 C 288.735595703125 402.2979431152344 310.21429443359375 389.8946533203125 366.27447509765625 371.0643005371094 C 364.8465881347656 326.72747802734375 366.57196044921875 308.3720397949219 364.9137878417969 306.31829833984375 C 385.390869140625 319.0897216796875 382.76611328125 300.497314453125 382.4131774902344 312.0452880859375" stroke-width="0.0" fill="rgb(133, 135, 126)" opacity="0.9556087" stroke="rgb(185, 125, 103)" stroke-opacity="0.896286" stroke-linecap="round" stroke-linejoin="round"/>
    <path d="M 382.9359436035156 505.76263427734375 C 374.95611572265625 505.4360656738281 356.0545349121094 506.7743835449219 353.3341369628906 506.1651916503906 C 350.21954345703125 503.9090881347656 339.90570068359375 500.9711608886719 267.2183532714844 465.1954040527344 C 268.59002685546875 460.4491271972656 304.8908386230469 476.99822998046875 349.061767578125 492.95587158203125 C 347.9007873535156 492.8283996582031 366.5976867675781 499.95037841796875 382.9359436035156 505.76263427734375" stroke-width="0.0" fill="rgb(0, 19, 31)" opacity="0.7485013" stroke="rgb(182, 106, 57)" stroke-opacity="0.78932244" stroke-linecap="round" stroke-linejoin="round"/>
    <path d="M 42.350189208984375 268.4669494628906 C 43.2984733581543 296.87127685546875 43.188682556152344 305.1261901855469 43.266624450683594 388.0359191894531 C -1.878790020942688 367.4591064453125 8.324505805969238 340.50091552734375 7.1322922706604 308.7325744628906 C 7.060227870941162 250.58639526367188 6.260640621185303 259.9175720214844 9.32071304321289 255.14114379882812 C 22.56845474243164 265.8006286621094 40.33454513549805 269.61578369140625 42.350189208984375 268.4669494628906" stroke-width="0.0" fill="rgb(149, 130, 107)" opacity="1.0" stroke="rgb(92, 61, 55)" stroke-opacity="0.8866305" stroke-linecap="round" stroke-linejoin="round"/>
    <path d="M 506.7418212890625 127.12251281738281 C 503.3748474121094 120.43929290771484 507.46356201171875 143.35531616210938 506.25384521484375 184.7652587890625 C 505.0670471191406 132.2882537841797 493.4947204589844 128.2349090576172 478.9776916503906 83.56877899169922 C 469.4389343261719 44.7297248840332 459.9956970214844 51.16532516479492 506.3920593261719 50.6178092956543 C 506.9748840332031 71.2688980102539 507.1892395019531 80.068115234375 506.7418212890625 127.12251281738281" stroke-width="0.0" fill="rgb(40, 47, 45)" opacity="0.47889057" stroke="rgb(14, 154, 36)" stroke-opacity="0.26656744" stroke-linecap="round" stroke-linejoin="round"/>
    <path d="M 80.69221496582031 308.1844177246094 C 75.77426147460938 353.29986572265625 102.17636108398438 356.56884765625 75.4614486694336 345.27532958984375 C 77.51895904541016 334.6763916015625 75.07174682617188 324.2223815917969 76.68091583251953 308.94354248046875 C 76.05747985839844 321.4385681152344 75.5746841430664 318.4132385253906 76.57056427001953 279.56719970703125 C 97.04426574707031 296.4775085449219 76.58070373535156 278.9692687988281 80.69221496582031 308.1844177246094" stroke-width="0.0" fill="rgb(16, 30, 38)" opacity="0.83938575" stroke="rgb(196, 9, 86)" stroke-opacity="0.09446525" stroke-linecap="round" stroke-linejoin="round"/>
    <path d="M 43.498374938964844 246.02435302734375 C 41.984039306640625 283.0176086425781 48.284454345703125 262.6296081542969 22.951143264770508 269.19024658203125 C 12.556822776794434 429.8968505859375 3.6493542194366455 410.1745300292969 8.032898902893066 133.92967224121094 C -1.1534050703048706 38.44753646850586 100.28931427001953 61.12825393676758 10.831474304199219 254.67373657226562 C 24.883996963500977 267.9019775390625 44.12807846069336 232.101806640625 43.498374938964844 246.02435302734375" stroke-width="0.0" fill="rgb(124, 53, 17)" opacity="0.3829061" stroke="rgb(74, 125, 214)" stroke-opacity="0.19127741" stroke-linecap="round" stroke-linejoin="round"/>
    <path d="M 63.99612808227539 215.5546112060547 C 80.26991271972656 230.58421325683594 68.58792877197266 221.47508239746094 43.16305160522461 243.14486694335938 C 43.65684509277344 242.5614013671875 42.97972869873047 244.04757690429688 43.614280700683594 214.0349578857422 C 52.51495361328125 214.69891357421875 43.75718688964844 221.78199768066406 78.47332763671875 87.01898193359375 C 98.64155578613281 229.0132293701172 60.07076644897461 57.8055534362793 63.99612808227539 215.5546112060547" stroke-width="0.0" fill="rgb(255, 252, 226)" opacity="0.68652034" stroke="rgb(208, 161, 85)" stroke-opacity="0.6322967" stroke-linecap="round" stroke-linejoin="round"/>
    <path d="M 81.83612823486328 490.5224609375 C 59.58939743041992 490.14764404296875 58.697757720947266 496.4558410644531 15.408175468444824 495.990478515625 C 3.959362268447876 496.04351806640625 7.5597639083862305 510.2470397949219 7.0595383644104 458.46917724609375 C 9.3920316696167 471.4419860839844 -1.7747361660003662 466.1807861328125 41.42792510986328 467.9924621582031 C 93.13617706298828 470.45452880859375 80.46620178222656 456.63897705078125 81.83612823486328 490.5224609375" stroke-width="0.0" fill="rgb(49, 62, 64)" opacity="1.0" stroke="rgb(93, 238, 240)" stroke-opacity="0.2449242" stroke-linecap="round" stroke-linejoin="round"/>
    <path d="M 520.2987670898438 431.62896728515625 C 520.931884765625 440.8501281738281 521.3296508789062 443.3056945800781 509.0642395019531 442.98291015625 C 508.9322204589844 425.3907470703125 509.1258239746094 418.9829406738281 509.055908203125 415.210205078125 C 508.8166809082031 425.698974609375 509.3275146484375 427.7726135253906 509.877197265625 400.90435791015625 C 526.9260864257812 409.3295593261719 521.41455078125 417.4746398925781 520.2987670898438 431.62896728515625" stroke-width="0.0" fill="rgb(255, 255, 255)" opacity="0.86714476" stroke="rgb(250, 231, 169)" stroke-opacity="0.25221157" stroke-linecap="round" stroke-linejoin="round"/>
    <path d="M 469.0387268066406 -4.083240032196045 C 471.6092834472656 11.275341033935547 473.0977478027344 6.3082966804504395 410.2933044433594 7.542331695556641 C 413.6342468261719 6.222257614135742 394.3552551269531 7.006751537322998 360.78375244140625 6.572045803070068 C 367.6595458984375 -35.906803131103516 401.3094482421875 -14.554088592529297 429.61798095703125 -17.826732635498047 C 437.14715576171875 -12.98219108581543 442.9927978515625 -14.63852596282959 469.0387268066406 -4.083240032196045" stroke-width="0.0" fill="rgb(253, 255, 255)" opacity="0.8266792" stroke="rgb(177, 164, 238)" stroke-opacity="0.19276913" stroke-linecap="round" stroke-linejoin="round"/>
    <path d="M 158.98536682128906 508.14373779296875 C 159.35284423828125 525.3895263671875 155.47610473632812 524.1577758789062 128.34962463378906 531.3579711914062 C 125.01271057128906 523.0606079101562 112.56414794921875 530.3848876953125 100.53221130371094 507.0880432128906 C 128.8278045654297 507.0830078125 152.57049560546875 506.8888244628906 153.87803649902344 507.075927734375 C 152.3367462158203 508.832763671875 158.9272003173828 507.5484924316406 158.98536682128906 508.14373779296875" stroke-width="0.0" fill="rgb(254, 255, 255)" opacity="0.9018281" stroke="rgb(140, 187, 174)" stroke-opacity="0.44278467" stroke-linecap="round" stroke-linejoin="round"/>
    <path d="M 520.175048828125 381.927001953125 C 520.972900390625 397.32037353515625 536.3969116210938 423.3779296875 506.42742919921875 422.9500732421875 C 507.7325134277344 342.2120666503906 502.6912841796875 335.44696044921875 518.7640380859375 352.00323486328125 C 510.7732849121094 378.73809814453125 511.8985290527344 372.9034118652344 514.7395629882812 366.51678466796875 C 514.891845703125 373.43304443359375 517.8482055664062 373.71337890625 520.175048828125 381.927001953125" stroke-width="0.0" fill="rgb(255, 254, 255)" opacity="0.8750723" stroke="rgb(74, 185, 145)" stroke-opacity="0.30259514" stroke-linecap="round" stroke-linejoin="round"/>
    <path d="M 488.2160949707031 431.1542053222656 C 487.8528137207031 472.9976806640625 489.0170593261719 465.7734069824219 482.84100341796875 448.7756042480469 C 482.75714111328125 442.3861083984375 482.78125 436.5523986816406 488.183837890625 444.285888671875 C 469.7986145019531 415.0337219238281 493.072021484375 401.3492431640625 474.86566162109375 393.6989440917969 C 494.89617919921875 391.6767578125 486.3680114746094 378.3920593261719 488.2160949707031 431.1542053222656" stroke-width="0.0" fill="rgb(11, 28, 36)" opacity="0.7889587" stroke="rgb(85, 220, 165)" stroke-opacity="0.78382874" stroke-linecap="round" stroke-linejoin="round"/>
    <path d="M 111.03826141357422 505.5628356933594 C 104.97032928466797 534.2559814453125 86.8015365600586 522.3409423828125 57.98036575317383 520.1529541015625 C 43.3787956237793 522.4381103515625 19.110912322998047 548.6512451171875 1.110763430595398 505.5328369140625 C 57.22146224975586 505.5314636230469 75.4016342163086 505.46270751953125 78.70903015136719 505.672119140625 C 62.40834426879883 505.4018249511719 67.41563415527344 505.5870361328125 111.03826141357422 505.5628356933594" stroke-width="0.0" fill="rgb(254, 253, 255)" opacity="0.82759655" stroke="rgb(97, 124, 243)" stroke-opacity="0.3074387" stroke-linecap="round" stroke-linejoin="round"/>
    <path d="M 506.31927490234375 368.8402404785156 C 501.0128479003906 365.4283447265625 477.3944091796875 374.4683837890625 457.954345703125 379.9755859375 C 444.7502746582031 383.71734619140625 449.27679443359375 384.7685852050781 448.25799560546875 375.13055419921875 C 461.9869384765625 370.91876220703125 466.72589111328125 368.8656005859375 474.9775085449219 365.86370849609375 C 506.6643981933594 358.3275451660156 507.38330078125 347.5196838378906 506.31927490234375 368.8402404785156" stroke-width="0.0" fill="rgb(15, 28, 34)" opacity="0.9131883" stroke="rgb(155, 188, 103)" stroke-opacity="0.8354889" stroke-linecap="round" stroke-linejoin="round"/>
    <path d="M 187.07688903808594 360.2509765625 C 173.18063354492188 350.0356140136719 190.6750946044922 408.4394226074219 175.7729949951172 410.33892822265625 C 143.0040740966797 403.0121154785156 137.3693389892578 400.6246032714844 145.65586853027344 403.2947998046875 C 138.4468536376953 343.78839111328125 145.62855529785156 332.7268981933594 144.4644775390625 311.3802795410156 C 186.51315307617188 309.2332763671875 179.0965576171875 316.3780822753906 187.07688903808594 360.2509765625" stroke-width="0.0" fill="rgb(157, 127, 101)" opacity="1.0" stroke="rgb(90, 215, 166)" stroke-opacity="0.14450079" stroke-linecap="round" stroke-linejoin="round"/>
    <path d="M 488.08526611328125 205.4582061767578 C 487.5256652832031 212.98402404785156 496.2181091308594 208.70028686523438 477.7489929199219 222.41802978515625 C 472.17218017578125 221.7469482421875 476.68353271484375 230.68276977539062 478.9714050292969 206.19081115722656 C 485.3564758300781 201.65240478515625 480.27398681640625 186.25282287597656 486.3169860839844 177.08009338378906 C 489.32708740234375 169.57981872558594 487.8929748535156 202.4486083984375 488.08526611328125 205.4582061767578" stroke-width="0.0" fill="rgb(0, 3, 9)" opacity="0.85153466" stroke="rgb(175, 223, 76)" stroke-opacity="0.8771252" stroke-linecap="round" stroke-linejoin="round"/>
    <path d="M 521.0038452148438 502.106201171875 C 510.7061767578125 542.6583251953125 468.5489807128906 521.4004516601562 448.8817443847656 525.2174072265625 C 429.4464416503906 522.9343872070312 408.1605224609375 569.3529052734375 363.2302551269531 508.1148681640625 C 431.95654296875 496.76031494140625 439.8078308105469 499.23114013671875 449.3268127441406 499.5759582519531 C 446.7845764160156 503.3111267089844 454.4427490234375 501.782958984375 521.0038452148438 502.106201171875" stroke-width="0.0" fill="rgb(255, 255, 255)" opacity="0.6057006" stroke="rgb(87, 153, 2)" stroke-opacity="0.12887044" stroke-linecap="round" stroke-linejoin="round"/>
    <path d="M 483.7701110839844 436.02374267578125 C 491.3819274902344 441.3084716796875 486.5347900390625 458.8592834472656 489.4249267578125 490.4126892089844 C 476.71563720703125 487.48358154296875 478.80194091796875 499.3085632324219 480.7471923828125 459.9958801269531 C 483.29840087890625 428.9779968261719 477.6898498535156 422.4896545410156 488.048828125 425.6481018066406 C 487.87481689453125 444.2592468261719 488.9134216308594 443.7517395019531 483.7701110839844 436.02374267578125" stroke-width="0.0" fill="rgb(24, 35, 38)" opacity="0.94205135" stroke="rgb(160, 31, 190)" stroke-opacity="0.043240808" stroke-linecap="round" stroke-linejoin="round"/>
    <path d="M 412.7698669433594 435.1606750488281 C 411.45013427734375 449.1060485839844 419.9028015136719 448.72943115234375 405.5299072265625 448.651123046875 C 401.6936950683594 442.5478515625 417.8460998535156 433.57073974609375 406.44024658203125 443.0819091796875 C 406.7766418457031 406.741943359375 405.1427307128906 400.79296875 406.0978088378906 401.00457763671875 C 415.27825927734375 400.5037536621094 412.77374267578125 387.0848083496094 412.7698669433594 435.1606750488281" stroke-width="0.0" fill="rgb(93, 70, 57)" opacity="0.765701" stroke="rgb(159, 19, 95)" stroke-opacity="0.17197815" stroke-linecap="round" stroke-linejoin="round"/>
    <path d="M 93.0928726196289 187.02745056152344 C 101.65034484863281 226.35951232910156 89.20762634277344 274.4319763183594 93.15983581542969 193.50277709960938 C 71.70002746582031 161.029541015625 67.13717651367188 181.3422393798828 78.60466766357422 246.70657348632812 C 86.84782409667969 120.20259094238281 37.42881774902344 169.04263305664062 84.05963134765625 133.92141723632812 C 88.21234130859375 152.41677856445312 88.33824157714844 159.97547912597656 93.0928726196289 187.02745056152344" stroke-width="0.0" fill="rgb(223, 213, 188)" opacity="0.9246824" stroke="rgb(147, 44, 240)" stroke-opacity="0.9358599" stroke-linecap="round" stroke-linejoin="round"/>
    <path d="M 177.04513549804688 458.38555908203125 C 165.11825561523438 472.44720458984375 163.1595458984375 477.9895935058594 130.4126739501953 469.55517578125 C 126.17312622070312 470.5869445800781 134.27764892578125 491.4530029296875 114.855224609375 463.3437194824219 C 155.40554809570312 461.82525634765625 149.2298583984375 466.1890869140625 145.79641723632812 457.15399169921875 C 162.03053283691406 456.2543640136719 166.83677673339844 458.2541198730469 177.04513549804688 458.38555908203125" stroke-width="0.0" fill="rgb(38, 55, 58)" opacity="0.8383584" stroke="rgb(36, 181, 223)" stroke-opacity="0.35724273" stroke-linecap="round" stroke-linejoin="round"/>
    <path d="M 506.1502685546875 284.2945861816406 C 505.9992980957031 365.3489685058594 508.7059631347656 360.6673889160156 499.4909973144531 356.7492980957031 C 499.5969543457031 328.5496520996094 499.6312561035156 300.8436584472656 499.5551452636719 223.92872619628906 C 500.43548583984375 126.14112854003906 497.0166320800781 133.56832885742188 506.357177734375 154.61973571777344 C 506.2599182128906 227.9784393310547 505.6634521484375 251.49009704589844 506.1502685546875 284.2945861816406" stroke-width="0.0" fill="rgb(112, 48, 4)" opacity="0.5687321" stroke="rgb(173, 251, 1)" stroke-opacity="0.6140222" stroke-linecap="round" stroke-linejoin="round"/>
    <path d="M 108.13849639892578 449.511962890625 C 107.20237731933594 469.1648254394531 110.23930358886719 464.67718505859375 98.86107635498047 465.5652770996094 C 99.24056243896484 467.5086364746094 99.28948974609375 455.70574951171875 98.3367919921875 436.7811584472656 C 97.88758850097656 398.0235595703125 97.58998107910156 401.7999267578125 103.38192749023438 407.85406494140625 C 107.33795166015625 410.6815490722656 109.72281646728516 413.0171813964844 108.13849639892578 449.511962890625" stroke-width="0.0" fill="rgb(255, 243, 217)" opacity="0.7786557" stroke="rgb(103, 254, 54)" stroke-opacity="0.08779589" stroke-linecap="round" stroke-linejoin="round"/>
    <path d="M 488.2065124511719 184.81497192382812 C 477.0367431640625 184.2013702392578 491.3998107910156 212.57928466796875 477.9822692871094 216.98684692382812 C 477.09136962890625 213.42898559570312 478.38702392578125 170.51051330566406 477.3025817871094 201.7525634765625 C 479.4867858886719 147.6477813720703 472.8108215332031 170.86965942382812 488.44610595703125 151.44190979003906 C 488.2864074707031 162.322998046875 488.36395263671875 183.52597045898438 488.2065124511719 184.81497192382812" stroke-width="0.0" fill="rgb(97, 77, 63)" opacity="1.0" stroke="rgb(248, 70, 241)" stroke-opacity="0.076941565" stroke-linecap="round" stroke-linejoin="round"/>
    <path d="M 342.1280822753906 454.6313171386719 C 343.68988037109375 458.943115234375 342.4629821777344 468.9220886230469 328.1842956542969 463.66473388671875 C 341.2264404296875 464.3696594238281 334.7623596191406 429.3216247558594 337.0542907714844 404.62640380859375 C 328.5252685546875 440.3765869140625 336.4257507324219 409.6760559082031 338.7101745605469 399.83941650390625 C 343.19952392578125 398.69171142578125 342.48406982421875 403.06146240234375 342.1280822753906 454.6313171386719" stroke-width="0.0" fill="rgb(49, 60, 64)" opacity="0.950207" stroke="rgb(69, 153, 91)" stroke-opacity="0.9566011" stroke-linecap="round" stroke-linejoin="round"/>
    <path d="M 266.30035400390625 442.7222595214844 C 275.50152587890625 415.0272216796875 319.9837951660156 394.88848876953125 319.6953430175781 457.3612976074219 C 163.4110107421875 448.9419860839844 182.5012969970703 459.4557800292969 227.9453582763672 442.3731384277344 C 229.071044921875 418.84124755859375 222.2738037109375 401.5574645996094 246.63241577148438 396.0528869628906 C 269.3553161621094 399.5848083496094 263.1958923339844 414.37677001953125 266.30035400390625 442.7222595214844" stroke-width="0.0" fill="rgb(146, 111, 84)" opacity="0.6145833" stroke="rgb(98, 40, 151)" stroke-opacity="0.102055706" stroke-linecap="round" stroke-linejoin="round"/>
    <path d="M 216.95721435546875 508.9873352050781 C 217.2238006591797 526.0939331054688 215.2613067626953 519.3729248046875 200.21490478515625 522.6782836914062 C 184.81800842285156 520.6214599609375 172.2650909423828 505.219970703125 190.77459716796875 505.90447998046875 C 209.2440643310547 509.68865966796875 207.60398864746094 510.5276184082031 202.9934539794922 505.4163818359375 C 199.78787231445312 507.7151184082031 198.21237182617188 509.4265441894531 216.95721435546875 508.9873352050781" stroke-width="0.0" fill="rgb(255, 255, 255)" opacity="0.8208534" stroke="rgb(204, 88, 234)" stroke-opacity="0.64028996" stroke-linecap="round" stroke-linejoin="round"/>
    <path d="M 173.63223266601562 277.1914367675781 C 177.7038116455078 312.8271179199219 182.0238494873047 316.1578063964844 185.20904541015625 352.2886047363281 C 111.4785385131836 343.2757873535156 167.0450439453125 351.6583251953125 141.82728576660156 254.8773651123047 C 145.11000061035156 286.42108154296875 153.0478515625 326.549072265625 146.513671875 275.6121520996094 C 183.69361877441406 276.4270324707031 169.95008850097656 273.3742370605469 173.63223266601562 277.1914367675781" stroke-width="0.0" fill="rgb(98, 104, 100)" opacity="1.0" stroke="rgb(2, 192, 194)" stroke-opacity="0.08463064" stroke-linecap="round" stroke-linejoin="round"/>
    <path d="M 87.0846939086914 154.46971130371094 C 93.77607727050781 209.88204956054688 77.62297821044922 186.69969177246094 73.42509460449219 232.00851440429688 C 72.52265930175781 199.92588806152344 72.39915466308594 179.19300842285156 72.27494812011719 164.2169647216797 C 63.42042922973633 154.6549835205078 57.4814453125 148.80628967285156 78.20864868164062 136.87525939941406 C 85.14779663085938 115.81104278564453 83.91618347167969 125.6811752319336 87.0846939086914 154.46971130371094" stroke-width="0.0" fill="rgb(225, 216, 190)" opacity="0.49144217" stroke="rgb(194, 253, 61)" stroke-opacity="0.018687729" stroke-linecap="round" stroke-linejoin="round"/>
    <path d="M 424.3000183105469 156.97598266601562 C 423.9848937988281 195.09854125976562 426.373291015625 193.46035766601562 415.0817565917969 195.56683349609375 C 406.59857177734375 187.5937042236328 409.5539245605469 185.90892028808594 408.9831848144531 176.7757568359375 C 408.8561706542969 139.26255798339844 402.7437438964844 146.69882202148438 420.4649963378906 145.60377502441406 C 419.8043518066406 162.37969970703125 421.1502380371094 154.16273498535156 424.3000183105469 156.97598266601562" stroke-width="0.0" fill="rgb(92, 93, 88)" opacity="0.8755374" stroke="rgb(26, 70, 201)" stroke-opacity="0.64737904" stroke-linecap="round" stroke-linejoin="round"/>
    <path d="M 282.7145080566406 160.68605041503906 C 285.2693176269531 164.31129455566406 279.2143859863281 177.13877868652344 280.55743408203125 163.38400268554688 C 244.42945861816406 124.0965347290039 219.24850463867188 82.66027069091797 269.31048583984375 143.52078247070312 C 270.5248107910156 109.85225677490234 264.3670654296875 119.3243637084961 282.77398681640625 116.94217681884766 C 282.65673828125 115.9619369506836 282.7602844238281 112.66789245605469 282.7145080566406 160.68605041503906" stroke-width="0.0" fill="rgb(49, 58, 59)" opacity="1.0" stroke="rgb(98, 30, 202)" stroke-opacity="0.14113154" stroke-linecap="round" stroke-linejoin="round"/>
    <path d="M 409.4468688964844 210.57546997070312 C 407.8941650390625 211.89451599121094 412.4007263183594 213.1846160888672 399.3980407714844 211.78590393066406 C 400.77423095703125 213.56166076660156 397.52862548828125 210.443115234375 399.65765380859375 212.76771545410156 C 399.3805236816406 177.2694549560547 399.9827880859375 176.39559936523438 407.6349182128906 176.9994659423828 C 409.50665283203125 177.1967010498047 407.8490295410156 170.56692504882812 409.4468688964844 210.57546997070312" stroke-width="0.0" fill="rgb(247, 239, 218)" opacity="0.90904844" stroke="rgb(207, 3, 155)" stroke-opacity="0.21242675" stroke-linecap="round" stroke-linejoin="round"/>
    <path d="M 397.9507751464844 420.42755126953125 C 398.0265197753906 433.7665100097656 398.4454650878906 463.169921875 398.09765625 479.2019958496094 C 386.8560791015625 482.84912109375 390.15618896484375 443.2265930175781 389.4297180175781 428.7316589355469 C 389.86572265625 396.7250671386719 386.29766845703125 408.35504150390625 397.9098205566406 402.62884521484375 C 398.2181396484375 424.4599609375 398.0185241699219 442.82171630859375 397.9507751464844 420.42755126953125" stroke-width="0.0" fill="rgb(27, 26, 25)" opacity="0.79495966" stroke="rgb(136, 139, 173)" stroke-opacity="0.81802" stroke-linecap="round" stroke-linejoin="round"/>
    <path d="M 68.63777923583984 427.84466552734375 C 67.02377319335938 451.4508056640625 80.37403106689453 449.48095703125 58.36258316040039 449.4410095214844 C 54.64140319824219 450.6938171386719 56.7464714050293 443.6853942871094 56.88500213623047 443.1951904296875 C 56.79954147338867 411.9115905761719 56.649051666259766 400.5867919921875 56.874759674072266 381.6796875 C 76.64488983154297 389.8416748046875 67.45323181152344 374.4149169921875 68.63777923583984 427.84466552734375" stroke-width="0.0" fill="rgb(42, 50, 49)" opacity="0.7529696" stroke="rgb(90, 227, 183)" stroke-opacity="0.5669651" stroke-linecap="round" stroke-linejoin="round"/>
    <path d="M 182.2401885986328 467.35504150390625 C 179.03271484375 467.366943359375 168.84506225585938 473.0855712890625 154.605712890625 472.04705810546875 C 142.61264038085938 473.6099548339844 146.40603637695312 471.92901611328125 145.38104248046875 463.84698486328125 C 148.90313720703125 452.7994384765625 135.4115753173828 457.0973205566406 181.35696411132812 456.5961608886719 C 198.77597045898438 468.09735107421875 180.8404083251953 445.57366943359375 182.2401885986328 467.35504150390625" stroke-width="0.0" fill="rgb(32, 43, 47)" opacity="0.93436205" stroke="rgb(147, 14, 102)" stroke-opacity="0.6863695" stroke-linecap="round" stroke-linejoin="round"/>
    <path d="M 108.38512420654297 397.25238037109375 C 108.86788940429688 426.91241455078125 108.315185546875 438.2929382324219 108.16366577148438 432.4224548339844 C 98.93138122558594 428.34490966796875 103.70378112792969 421.4843444824219 97.59371185302734 410.5350646972656 C 97.2413330078125 389.82904052734375 97.907958984375 402.8261413574219 106.8306655883789 392.10601806640625 C 108.95154571533203 360.91583251953125 108.77433776855469 331.5873718261719 108.38512420654297 397.25238037109375" stroke-width="0.0" fill="rgb(223, 214, 191)" opacity="0.94186854" stroke="rgb(29, 147, 165)" stroke-opacity="0.8935482" stroke-linecap="round" stroke-linejoin="round"/>
    <path d="M 249.7535858154297 355.7056579589844 C 249.08526611328125 393.39752197265625 252.4520721435547 377.48443603515625 242.08120727539062 382.6638488769531 C 239.82473754882812 383.5249938964844 244.7730712890625 372.1556701660156 242.36209106445312 382.89483642578125 C 242.83377075195312 371.1014099121094 241.98008728027344 348.1463317871094 243.3626708984375 355.71099853515625 C 242.3690948486328 350.5771179199219 248.53370666503906 348.658447265625 249.7535858154297 355.7056579589844" stroke-width="0.0" fill="rgb(27, 42, 47)" opacity="0.90696514" stroke="rgb(116, 138, 252)" stroke-opacity="0.89372736" stroke-linecap="round" stroke-linejoin="round"/>
    <path d="M 257.28369140625 429.78143310546875 C 256.0217590332031 450.9088439941406 264.7408142089844 444.3954772949219 235.2238311767578 445.7185974121094 C 235.4386444091797 439.0091247558594 235.3885955810547 436.6937255859375 235.33729553222656 422.6357421875 C 234.36375427246094 411.426025390625 238.63333129882812 407.3699951171875 247.58045959472656 405.9355163574219 C 256.6818542480469 410.44439697265625 258.35400390625 410.334716796875 257.28369140625 429.78143310546875" stroke-width="0.0" fill="rgb(19, 32, 36)" opacity="0.8765815" stroke="rgb(145, 203, 0)" stroke-opacity="0.8468612" stroke-linecap="round" stroke-linejoin="round"/>
    <path d="M 173.29681396484375 393.66021728515625 C 191.89976501464844 427.7643737792969 183.22039794921875 411.76080322265625 153.79702758789062 403.9854736328125 C 118.64736938476562 412.4344482421875 113.27569580078125 386.7102355957031 118.54114532470703 400.4154357910156 C 119.41432189941406 363.07269287109375 118.62198638916016 363.26226806640625 116.09955596923828 365.4341125488281 C 131.57676696777344 363.6560974121094 130.75120544433594 375.24603271484375 173.29681396484375 393.66021728515625" stroke-width="0.0" fill="rgb(192, 186, 167)" opacity="0.6482908" stroke="rgb(45, 210, 63)" stroke-opacity="0.9616744" stroke-linecap="round" stroke-linejoin="round"/>
    <path d="M 512.0 22.0 C 511.33013916015625 24.5 509.5 26.330127716064453 507.0 27.0 C 504.5 26.330127716064453 502.66986083984375 24.5 502.0 22.0 C 502.66986083984375 19.5 504.5 17.669872283935547 507.0 17.0 C 509.5 17.669872283935547 511.33013916015625 19.5 512.0 22.0" stroke-width="0.0" fill="rgb(251, 250, 249)" opacity="1.0" stroke="rgb(182, 60, 28)" stroke-opacity="0.18666263" stroke-linecap="round" stroke-linejoin="round"/>
    <path d="M 197.0 2.0 C 196.3301239013672 4.5 194.5 6.330127239227295 192.0 7.0 C 189.5 6.330127239227295 187.6698760986328 4.5 187.0 2.0 C 187.6698760986328 -0.5 189.5 -2.330127000808716 192.0 -3.0 C 194.5 -2.330127000808716 196.3301239013672 -0.5 197.0 2.0" stroke-width="0.0" fill="rgb(250, 249, 249)" opacity="1.0" stroke="rgb(121, 207, 115)" stroke-opacity="0.06405974" stroke-linecap="round" stroke-linejoin="round"/>
    <path d="M 7.0 39.0 C 6.330127239227295 41.5 4.5 43.33012771606445 2.0 44.0 C -0.5 43.33012771606445 -2.330127000808716 41.5 -3.0 39.0 C -2.330127000808716 36.5 -0.5 34.66987228393555 2.0 34.0 C 4.5 34.66987228393555 6.330127239227295 36.5 7.0 39.0" stroke-width="0.0" fill="rgb(250, 249, 249)" opacity="1.0" stroke="rgb(235, 221, 78)" stroke-opacity="0.10659619" stroke-linecap="round" stroke-linejoin="round"/>
    <path d="M 322.0 2.0 C 321.33013916015625 4.5 319.5 6.330127239227295 317.0 7.0 C 314.5 6.330127239227295 312.66986083984375 4.5 312.0 2.0 C 312.66986083984375 -0.5 314.5 -2.330127000808716 317.0 -3.0 C 319.5 -2.330127000808716 321.33013916015625 -0.5 322.0 2.0" stroke-width="0.0" fill="rgb(250, 249, 249)" opacity="1.0" stroke="rgb(89, 39, 230)" stroke-opacity="0.7417343" stroke-linecap="round" stroke-linejoin="round"/>
    <path d="M 515.0 288.0 C 514.3301391601562 290.5 512.5 292.33013916015625 510.0 293.0 C 507.5 292.33013916015625 505.66986083984375 290.5 505.0 288.0 C 505.66986083984375 285.5 507.5 283.66986083984375 510.0 283.0 C 512.5 283.66986083984375 514.3301391601562 285.5 515.0 288.0" stroke-width="0.0" fill="rgb(250, 249, 249)" opacity="1.0" stroke="rgb(99, 94, 80)" stroke-opacity="0.5817471" stroke-linecap="round" stroke-linejoin="round"/>
    <path d="M 198.0 5.0 C 197.3301239013672 7.5 195.5 9.330126762390137 193.0 10.0 C 190.5 9.330126762390137 188.6698760986328 7.5 188.0 5.0 C 188.6698760986328 2.5 190.5 0.6698729991912842 193.0 0.0 C 195.5 0.6698729991912842 197.3301239013672 2.5 198.0 5.0" stroke-width="0.0" fill="rgb(253, 251, 252)" opacity="1.0" stroke="rgb(43, 109, 219)" stroke-opacity="0.16951431" stroke-linecap="round" stroke-linejoin="round"/>
    <path d="M 240.0 201.0 C 239.3301239013672 203.5 237.5 205.3301239013672 235.0 206.0 C 232.5 205.3301239013672 230.6698760986328 203.5 230.0 201.0 C 230.6698760986328 198.5 232.5 196.6698760986328 235.0 196.0 C 237.5 196.6698760986328 239.3301239013672 198.5 240.0 201.0" stroke-width="0.0" fill="rgb(30, 40, 44)" opacity="1.0" stroke="rgb(36, 189, 98)" stroke-opacity="0.64944583" stroke-linecap="round" stroke-linejoin="round"/>
    <path d="M 261.0 107.0 C 260.33013916015625 109.5 258.5 111.33012390136719 256.0 112.0 C 253.5 111.33012390136719 251.6698760986328 109.5 251.0 107.0 C 251.6698760986328 104.5 253.5 102.66987609863281 256.0 102.0 C 258.5 102.66987609863281 260.33013916015625 104.5 261.0 107.0" stroke-width="0.0" fill="rgb(112, 118, 109)" opacity="1.0" stroke="rgb(167, 30, 129)" stroke-opacity="0.7544262" stroke-linecap="round" stroke-linejoin="round"/>
    <path d="M 176.0 315.0 C 175.3301239013672 317.5 173.5 319.33013916015625 171.0 320.0 C 168.5 319.33013916015625 166.6698760986328 317.5 166.0 315.0 C 166.6698760986328 312.5 168.5 310.66986083984375 171.0 310.0 C 173.5 310.66986083984375 175.3301239013672 312.5 176.0 315.0" stroke-width="0.0" fill="rgb(194, 153, 119)" opacity="1.0" stroke="rgb(90, 58, 107)" stroke-opacity="0.9325063" stroke-linecap="round" stroke-linejoin="round"/>
    <path d="M 446.0 432.0 C 445.33013916015625 434.5 443.5 436.33013916015625 441.0 437.0 C 438.5 436.33013916015625 436.66986083984375 434.5 436.0 432.0 C 436.66986083984375 429.5 438.5 427.66986083984375 441.0 427.0 C 443.5 427.66986083984375 445.33013916015625 429.5 446.0 432.0" stroke-width="0.0" fill="rgb(157, 128, 102)" opacity="1.0" stroke="rgb(249, 107, 93)" stroke-opacity="0.8514005" stroke-linecap="round" stroke-linejoin="round"/>
    <path d="M 160.0 498.0 C 159.3301239013672 500.5 157.5 502.33013916015625 155.0 503.0 C 152.5 502.33013916015625 150.6698760986328 500.5 150.0 498.0 C 150.6698760986328 495.5 152.5 493.66986083984375 155.0 493.0 C 157.5 493.66986083984375 159.3301239013672 495.5 160.0 498.0" stroke-width="0.0" fill="rgb(27, 38, 41)" opacity="1.0" stroke="rgb(251, 45, 196)" stroke-opacity="0.45200709" stroke-linecap="round" stroke-linejoin="round"/>
    <path d="M 485.0 312.0 C 484.33013916015625 314.5 482.5 316.33013916015625 480.0 317.0 C 477.5 316.33013916015625 475.66986083984375 314.5 475.0 312.0 C 475.66986083984375 309.5 477.5 307.66986083984375 480.0 307.0 C 482.5 307.66986083984375 484.33013916015625 309.5 485.0 312.0" stroke-width="0.0" fill="rgb(143, 102, 74)" opacity="1.0" stroke="rgb(1, 61, 124)" stroke-opacity="0.8631099" stroke-linecap="round" stroke-linejoin="round"/>
    <path d="M 237.0 136.0 C 236.3301239013672 138.5 234.5 140.3301239013672 232.0 141.0 C 229.5 140.3301239013672 227.6698760986328 138.5 227.0 136.0 C 227.6698760986328 133.5 229.5 131.6698760986328 232.0 131.0 C 234.5 131.6698760986328 236.3301239013672 133.5 237.0 136.0" stroke-width="0.0" fill="rgb(15, 31, 39)" opacity="1.0" stroke="rgb(186, 46, 26)" stroke-opacity="0.42817304" stroke-linecap="round" stroke-linejoin="round"/>
    <path d="M 490.0 314.0 C 489.33013916015625 316.5 487.5 318.33013916015625 485.0 319.0 C 482.5 318.33013916015625 480.66986083984375 316.5 480.0 314.0 C 480.66986083984375 311.5 482.5 309.66986083984375 485.0 309.0 C 487.5 309.66986083984375 489.33013916015625 311.5 490.0 314.0" stroke-width="0.0" fill="rgb(15, 31, 37)" opacity="1.0" stroke="rgb(124, 129, 73)" stroke-opacity="0.9738502" stroke-linecap="round" stroke-linejoin="round"/>
    <path d="M 260.0 99.0 C 259.33013916015625 101.5 257.5 103.33012390136719 255.0 104.0 C 252.5 103.33012390136719 250.6698760986328 101.5 250.0 99.0 C 250.6698760986328 96.5 252.5 94.66987609863281 255.0 94.0 C 257.5 94.66987609863281 259.33013916015625 96.5 260.0 99.0" stroke-width="0.0" fill="rgb(110, 116, 109)" opacity="1.0" stroke="rgb(15, 240, 1)" stroke-opacity="0.42408478" stroke-linecap="round" stroke-linejoin="round"/>
    <path d="M 432.0 373.0 C 431.33013916015625 375.5 429.5 377.33013916015625 427.0 378.0 C 424.5 377.33013916015625 422.66986083984375 375.5 422.0 373.0 C 422.66986083984375 370.5 424.5 368.66986083984375 427.0 368.0 C 429.5 368.66986083984375 431.33013916015625 370.5 432.0 373.0" stroke-width="0.0" fill="rgb(185, 145, 107)" opacity="1.0" stroke="rgb(243, 223, 138)" stroke-opacity="0.5043944" stroke-linecap="round" stroke-linejoin="round"/>
    <path d="M 446.0 324.0 C 445.33013916015625 326.5 443.5 328.33013916015625 441.0 329.0 C 438.5 328.33013916015625 436.66986083984375 326.5 436.0 324.0 C 436.66986083984375 321.5 438.5 319.66986083984375 441.0 319.0 C 443.5 319.66986083984375 445.33013916015625 321.5 446.0 324.0" stroke-width="0.0" fill="rgb(165, 134, 111)" opacity="1.0" stroke="rgb(86, 203, 139)" stroke-opacity="0.46754593" stroke-linecap="round" stroke-linejoin="round"/>
    <path d="M 219.0 133.0 C 218.3301239013672 135.5 216.5 137.3301239013672 214.0 138.0 C 211.5 137.3301239013672 209.6698760986328 135.5 209.0 133.0 C 209.6698760986328 130.5 211.5 128.6698760986328 214.0 128.0 C 216.5 128.6698760986328 218.3301239013672 130.5 219.0 133.0" stroke-width="0.0" fill="rgb(79, 92, 90)" opacity="1.0" stroke="rgb(82, 76, 120)" stroke-opacity="0.52139014" stroke-linecap="round" stroke-linejoin="round"/>
    <path d="M 131.0 345.0 C 130.3301239013672 347.5 128.5 349.33013916015625 126.0 350.0 C 123.5 349.33013916015625 121.66987609863281 347.5 121.0 345.0 C 121.66987609863281 342.5 123.5 340.66986083984375 126.0 340.0 C 128.5 340.66986083984375 130.3301239013672 342.5 131.0 345.0" stroke-width="0.0" fill="rgb(160, 156, 142)" opacity="1.0" stroke="rgb(118, 35, 107)" stroke-opacity="0.2756936" stroke-linecap="round" stroke-linejoin="round"/>
    <path d="M 290.0 441.0 C 289.33013916015625 443.5 287.5 445.33013916015625 285.0 446.0 C 282.5 445.33013916015625 280.66986083984375 443.5 280.0 441.0 C 280.66986083984375 438.5 282.5 436.66986083984375 285.0 436.0 C 287.5 436.66986083984375 289.33013916015625 438.5 290.0 441.0" stroke-width="0.0" fill="rgb(35, 50, 50)" opacity="1.0" stroke="rgb(224, 200, 56)" stroke-opacity="0.14756705" stroke-linecap="round" stroke-linejoin="round"/>
    <path d="M 467.0 425.0 C 466.33013916015625 427.5 464.5 429.33013916015625 462.0 430.0 C 459.5 429.33013916015625 457.66986083984375 427.5 457.0 425.0 C 457.66986083984375 422.5 459.5 420.66986083984375 462.0 420.0 C 464.5 420.66986083984375 466.33013916015625 422.5 467.0 425.0" stroke-width="0.0" fill="rgb(94, 76, 63)" opacity="1.0" stroke="rgb(251, 212, 145)" stroke-opacity="0.7247063" stroke-linecap="round" stroke-linejoin="round"/>
    <path d="M 447.0 422.0 C 446.33013916015625 424.5 444.5 426.33013916015625 442.0 427.0 C 439.5 426.33013916015625 437.66986083984375 424.5 437.0 422.0 C 437.66986083984375 419.5 439.5 417.66986083984375 442.0 417.0 C 444.5 417.66986083984375 446.33013916015625 419.5 447.0 422.0" stroke-width="0.0" fill="rgb(162, 132, 107)" opacity="1.0" stroke="rgb(150, 246, 153)" stroke-opacity="0.76802635" stroke-linecap="round" stroke-linejoin="round"/>
    <path d="M 251.0 300.0 C 250.3301239013672 302.5 248.5 304.33013916015625 246.0 305.0 C 243.5 304.33013916015625 241.6698760986328 302.5 241.0 300.0 C 241.6698760986328 297.5 243.5 295.66986083984375 246.0 295.0 C 248.5 295.66986083984375 250.3301239013672 297.5 251.0 300.0" stroke-width="0.0" fill="rgb(40, 54, 56)" opacity="1.0" stroke="rgb(253, 85, 222)" stroke-opacity="0.93639636" stroke-linecap="round" stroke-linejoin="round"/>
    <path d="M 513.0 288.0 C 512.3301391601562 290.5 510.5 292.33013916015625 508.0 293.0 C 505.5 292.33013916015625 503.66986083984375 290.5 503.0 288.0 C 503.66986083984375 285.5 505.5 283.66986083984375 508.0 283.0 C 510.5 283.66986083984375 512.3301391601562 285.5 513.0 288.0" stroke-width="0.0" fill="rgb(251, 250, 250)" opacity="1.0" stroke="rgb(130, 206, 157)" stroke-opacity="0.467302" stroke-linecap="round" stroke-linejoin="round"/>
    <path d="M 69.0 294.0 C 68.33012390136719 296.5 66.5 298.33013916015625 64.0 299.0 C 61.5 298.33013916015625 59.66987228393555 296.5 59.0 294.0 C 59.66987228393555 291.5 61.5 289.66986083984375 64.0 289.0 C 66.5 289.66986083984375 68.33012390136719 291.5 69.0 294.0" stroke-width="0.0" fill="rgb(151, 145, 126)" opacity="1.0" stroke="rgb(91, 13, 175)" stroke-opacity="0.45656478" stroke-linecap="round" stroke-linejoin="round"/>
    <path d="M 70.0 323.0 C 69.33012390136719 325.5 67.5 327.33013916015625 65.0 328.0 C 62.5 327.33013916015625 60.66987228393555 325.5 60.0 323.0 C 60.66987228393555 320.5 62.5 318.66986083984375 65.0 318.0 C 67.5 318.66986083984375 69.33012390136719 320.5 70.0 323.0" stroke-width="0.0" fill="rgb(155, 147, 129)" opacity="1.0" stroke="rgb(59, 98, 237)" stroke-opacity="0.00976022" stroke-linecap="round" stroke-linejoin="round"/>
    <path d="M 429.0 333.0 C 428.33013916015625 335.5 426.5 337.33013916015625 424.0 338.0 C 421.5 337.33013916015625 419.66986083984375 335.5 419.0 333.0 C 419.66986083984375 330.5 421.5 328.66986083984375 424.0 328.0 C 426.5 328.66986083984375 428.33013916015625 330.5 429.0 333.0" stroke-width="0.0" fill="rgb(158, 130, 109)" opacity="1.0" stroke="rgb(110, 75, 32)" stroke-opacity="0.084782004" stroke-linecap="round" stroke-linejoin="round"/>
    <path d="M 344.0 277.0 C 343.33013916015625 279.5 341.5 281.33013916015625 339.0 282.0 C 336.5 281.33013916015625 334.66986083984375 279.5 334.0 277.0 C 334.66986083984375 274.5 336.5 272.66986083984375 339.0 272.0 C 341.5 272.66986083984375 343.33013916015625 274.5 344.0 277.0" stroke-width="0.0" fill="rgb(78, 78, 75)" opacity="1.0" stroke="rgb(56, 138, 192)" stroke-opacity="0.5197914" stroke-linecap="round" stroke-linejoin="round"/>
    <path d="M 322.0 5.0 C 321.33013916015625 7.5 319.5 9.330126762390137 317.0 10.0 C 314.5 9.330126762390137 312.66986083984375 7.5 312.0 5.0 C 312.66986083984375 2.5 314.5 0.6698729991912842 317.0 0.0 C 319.5 0.6698729991912842 321.33013916015625 2.5 322.0 5.0" stroke-width="0.0" fill="rgb(253, 252, 252)" opacity="1.0" stroke="rgb(1, 44, 215)" stroke-opacity="0.8147768" stroke-linecap="round" stroke-linejoin="round"/>
    <path d="M 430.0 421.0 C 429.33013916015625 423.5 427.5 425.33013916015625 425.0 426.0 C 422.5 425.33013916015625 420.66986083984375 423.5 420.0 421.0 C 420.66986083984375 418.5 422.5 416.66986083984375 425.0 416.0 C 427.5 416.66986083984375 429.33013916015625 418.5 430.0 421.0" stroke-width="0.0" fill="rgb(151, 127, 101)" opacity="1.0" stroke="rgb(75, 131, 13)" stroke-opacity="0.41385347" stroke-linecap="round" stroke-linejoin="round"/>
    <path d="M 378.0 296.0 C 377.33013916015625 298.5 375.5 300.33013916015625 373.0 301.0 C 370.5 300.33013916015625 368.66986083984375 298.5 368.0 296.0 C 368.66986083984375 293.5 370.5 291.66986083984375 373.0 291.0 C 375.5 291.66986083984375 377.33013916015625 293.5 378.0 296.0" stroke-width="0.0" fill="rgb(30, 40, 39)" opacity="1.0" stroke="rgb(120, 159, 184)" stroke-opacity="0.060462955" stroke-linecap="round" stroke-linejoin="round"/>
    <path d="M 443.0 307.0 C 442.33013916015625 309.5 440.5 311.33013916015625 438.0 312.0 C 435.5 311.33013916015625 433.66986083984375 309.5 433.0 307.0 C 433.66986083984375 304.5 435.5 302.66986083984375 438.0 302.0 C 440.5 302.66986083984375 442.33013916015625 304.5 443.0 307.0" stroke-width="0.0" fill="rgb(170, 140, 113)" opacity="1.0" stroke="rgb(60, 41, 138)" stroke-opacity="0.8017594" stroke-linecap="round" stroke-linejoin="round"/>
    <path d="M 71.0 410.0 C 70.33012390136719 412.5 68.5 414.33013916015625 66.0 415.0 C 63.5 414.33013916015625 61.66987228393555 412.5 61.0 410.0 C 61.66987228393555 407.5 63.5 405.66986083984375 66.0 405.0 C 68.5 405.66986083984375 70.33012390136719 407.5 71.0 410.0" stroke-width="0.0" fill="rgb(149, 143, 127)" opacity="1.0" stroke="rgb(60, 220, 41)" stroke-opacity="0.077772014" stroke-linecap="round" stroke-linejoin="round"/>
    <path d="M 70.0 303.0 C 69.33012390136719 305.5 67.5 307.33013916015625 65.0 308.0 C 62.5 307.33013916015625 60.66987228393555 305.5 60.0 303.0 C 60.66987228393555 300.5 62.5 298.66986083984375 65.0 298.0 C 67.5 298.66986083984375 69.33012390136719 300.5 70.0 303.0" stroke-width="0.0" fill="rgb(156, 147, 129)" opacity="1.0" stroke="rgb(37, 16, 225)" stroke-opacity="0.37784496" stroke-linecap="round" stroke-linejoin="round"/>
    <path d="M 224.0 133.0 C 223.3301239013672 135.5 221.5 137.3301239013672 219.0 138.0 C 216.5 137.3301239013672 214.6698760986328 135.5 214.0 133.0 C 214.6698760986328 130.5 216.5 128.6698760986328 219.0 128.0 C 221.5 128.6698760986328 223.3301239013672 130.5 224.0 133.0" stroke-width="0.0" fill="rgb(78, 89, 88)" opacity="1.0" stroke="rgb(48, 98, 113)" stroke-opacity="0.2625796" stroke-linecap="round" stroke-linejoin="round"/>
    <path d="M 433.0 332.0 C 432.33013916015625 334.5 430.5 336.33013916015625 428.0 337.0 C 425.5 336.33013916015625 423.66986083984375 334.5 423.0 332.0 C 423.66986083984375 329.5 425.5 327.66986083984375 428.0 327.0 C 430.5 327.66986083984375 432.33013916015625 329.5 433.0 332.0" stroke-width="0.0" fill="rgb(80, 84, 80)" opacity="1.0" stroke="rgb(33, 145, 21)" stroke-opacity="0.47324353" stroke-linecap="round" stroke-linejoin="round"/>
    <path d="M 470.0 219.0 C 469.33013916015625 221.5 467.5 223.3301239013672 465.0 224.0 C 462.5 223.3301239013672 460.66986083984375 221.5 460.0 219.0 C 460.66986083984375 216.5 462.5 214.6698760986328 465.0 214.0 C 467.5 214.6698760986328 469.33013916015625 216.5 470.0 219.0" stroke-width="0.0" fill="rgb(17, 27, 30)" opacity="1.0" stroke="rgb(206, 202, 163)" stroke-opacity="0.21932912" stroke-linecap="round" stroke-linejoin="round"/>
    <path d="M 447.0 312.0 C 446.33013916015625 314.5 444.5 316.33013916015625 442.0 317.0 C 439.5 316.33013916015625 437.66986083984375 314.5 437.0 312.0 C 437.66986083984375 309.5 439.5 307.66986083984375 442.0 307.0 C 444.5 307.66986083984375 446.33013916015625 309.5 447.0 312.0" stroke-width="0.0" fill="rgb(164, 134, 105)" opacity="1.0" stroke="rgb(104, 68, 30)" stroke-opacity="0.97580314" stroke-linecap="round" stroke-linejoin="round"/>
    <path d="M 333.0 417.0 C 332.33013916015625 419.5 330.5 421.33013916015625 328.0 422.0 C 325.5 421.33013916015625 323.66986083984375 419.5 323.0 417.0 C 323.66986083984375 414.5 325.5 412.66986083984375 328.0 412.0 C 330.5 412.66986083984375 332.33013916015625 414.5 333.0 417.0" stroke-width="0.0" fill="rgb(55, 70, 77)" opacity="1.0" stroke="rgb(93, 200, 190)" stroke-opacity="0.5272997" stroke-linecap="round" stroke-linejoin="round"/>
    <path d="M 250.0 191.0 C 249.3301239013672 193.5 247.5 195.3301239013672 245.0 196.0 C 242.5 195.3301239013672 240.6698760986328 193.5 240.0 191.0 C 240.6698760986328 188.5 242.5 186.6698760986328 245.0 186.0 C 247.5 186.6698760986328 249.3301239013672 188.5 250.0 191.0" stroke-width="0.0" fill="rgb(28, 42, 47)" opacity="1.0" stroke="rgb(222, 18, 234)" stroke-opacity="0.6303207" stroke-linecap="round" stroke-linejoin="round"/>
    <path d="M 220.0 305.0 C 219.3301239013672 307.5 217.5 309.33013916015625 215.0 310.0 C 212.5 309.33013916015625 210.6698760986328 307.5 210.0 305.0 C 210.6698760986328 302.5 212.5 300.66986083984375 215.0 300.0 C 217.5 300.66986083984375 219.3301239013672 302.5 220.0 305.0" stroke-width="0.0" fill="rgb(175, 138, 111)" opacity="1.0" stroke="rgb(170, 122, 120)" stroke-opacity="0.57095706" stroke-linecap="round" stroke-linejoin="round"/>
    <path d="M 173.0 318.0 C 172.3301239013672 320.5 170.5 322.33013916015625 168.0 323.0 C 165.5 322.33013916015625 163.6698760986328 320.5 163.0 318.0 C 163.6698760986328 315.5 165.5 313.66986083984375 168.0 313.0 C 170.5 313.66986083984375 172.3301239013672 315.5 173.0 318.0" stroke-width="0.0" fill="rgb(199, 158, 121)" opacity="1.0" stroke="rgb(216, 223, 165)" stroke-opacity="0.15172467" stroke-linecap="round" stroke-linejoin="round"/>
    <path d="M 88.0 308.0 C 87.33012390136719 310.5 85.5 312.33013916015625 83.0 313.0 C 80.5 312.33013916015625 78.66987609863281 310.5 78.0 308.0 C 78.66987609863281 305.5 80.5 303.66986083984375 83.0 303.0 C 85.5 303.66986083984375 87.33012390136719 305.5 88.0 308.0" stroke-width="0.0" fill="rgb(152, 147, 128)" opacity="1.0" stroke="rgb(241, 66, 190)" stroke-opacity="0.0675554" stroke-linecap="round" stroke-linejoin="round"/>
    <path d="M 261.0 203.0 C 260.33013916015625 205.5 258.5 207.3301239013672 256.0 208.0 C 253.5 207.3301239013672 251.6698760986328 205.5 251.0 203.0 C 251.6698760986328 200.5 253.5 198.6698760986328 256.0 198.0 C 258.5 198.6698760986328 260.33013916015625 200.5 261.0 203.0" stroke-width="0.0" fill="rgb(36, 46, 49)" opacity="1.0" stroke="rgb(136, 103, 91)" stroke-opacity="0.8075444" stroke-linecap="round" stroke-linejoin="round"/>
    <path d="M 116.0 415.0 C 115.33012390136719 417.5 113.5 419.33013916015625 111.0 420.0 C 108.5 419.33013916015625 106.66987609863281 417.5 106.0 415.0 C 106.66987609863281 412.5 108.5 410.66986083984375 111.0 410.0 C 113.5 410.66986083984375 115.33012390136719 412.5 116.0 415.0" stroke-width="0.0" fill="rgb(23, 38, 46)" opacity="1.0" stroke="rgb(27, 129, 12)" stroke-opacity="0.28600055" stroke-linecap="round" stroke-linejoin="round"/>
    <path d="M 95.0 225.0 C 94.33012390136719 227.5 92.5 229.3301239013672 90.0 230.0 C 87.5 229.3301239013672 85.66987609863281 227.5 85.0 225.0 C 85.66987609863281 222.5 87.5 220.6698760986328 90.0 220.0 C 92.5 220.6698760986328 94.33012390136719 222.5 95.0 225.0" stroke-width="0.0" fill="rgb(143, 132, 115)" opacity="1.0" stroke="rgb(159, 97, 33)" stroke-opacity="0.57209045" stroke-linecap="round" stroke-linejoin="round"/>
    <path d="M 465.0 314.0 C 464.33013916015625 316.5 462.5 318.33013916015625 460.0 319.0 C 457.5 318.33013916015625 455.66986083984375 316.5 455.0 314.0 C 455.66986083984375 311.5 457.5 309.66986083984375 460.0 309.0 C 462.5 309.66986083984375 464.33013916015625 311.5 465.0 314.0" stroke-width="0.0" fill="rgb(142, 105, 83)" opacity="1.0" stroke="rgb(174, 165, 246)" stroke-opacity="0.38506618" stroke-linecap="round" stroke-linejoin="round"/>
    <path d="M 403.0 382.0 C 402.33013916015625 384.5 400.5 386.33013916015625 398.0 387.0 C 395.5 386.33013916015625 393.66986083984375 384.5 393.0 382.0 C 393.66986083984375 379.5 395.5 377.66986083984375 398.0 377.0 C 400.5 377.66986083984375 402.33013916015625 379.5 403.0 382.0" stroke-width="0.0" fill="rgb(181, 141, 108)" opacity="1.0" stroke="rgb(192, 203, 182)" stroke-opacity="0.3227187" stroke-linecap="round" stroke-linejoin="round"/>
    <path d="M 143.0 421.0 C 142.3301239013672 423.5 140.5 425.33013916015625 138.0 426.0 C 135.5 425.33013916015625 133.6698760986328 423.5 133.0 421.0 C 133.6698760986328 418.5 135.5 416.66986083984375 138.0 416.0 C 140.5 416.66986083984375 142.3301239013672 418.5 143.0 421.0" stroke-width="0.0" fill="rgb(31, 47, 53)" opacity="1.0" stroke="rgb(232, 244, 44)" stroke-opacity="0.959919" stroke-linecap="round" stroke-linejoin="round"/>
    <path d="M 303.0 432.0 C 302.33013916015625 434.5 300.5 436.33013916015625 298.0 437.0 C 295.5 436.33013916015625 293.66986083984375 434.5 293.0 432.0 C 293.66986083984375 429.5 295.5 427.66986083984375 298.0 427.0 C 300.5 427.66986083984375 302.33013916015625 429.5 303.0 432.0" stroke-width="0.0" fill="rgb(32, 41, 43)" opacity="1.0" stroke="rgb(43, 51, 114)" stroke-opacity="0.08516638" stroke-linecap="round" stroke-linejoin="round"/>
    <path d="M 219.0 210.0 C 218.3301239013672 212.5 216.5 214.3301239013672 214.0 215.0 C 211.5 214.3301239013672 209.6698760986328 212.5 209.0 210.0 C 209.6698760986328 207.5 211.5 205.6698760986328 214.0 205.0 C 216.5 205.6698760986328 218.3301239013672 207.5 219.0 210.0" stroke-width="0.0" fill="rgb(175, 143, 115)" opacity="1.0" stroke="rgb(155, 208, 173)" stroke-opacity="0.9981468" stroke-linecap="round" stroke-linejoin="round"/>
    <path d="M 464.0 201.0 C 463.33013916015625 203.5 461.5 205.3301239013672 459.0 206.0 C 456.5 205.3301239013672 454.66986083984375 203.5 454.0 201.0 C 454.66986083984375 198.5 456.5 196.6698760986328 459.0 196.0 C 461.5 196.6698760986328 463.33013916015625 198.5 464.0 201.0" stroke-width="0.0" fill="rgb(134, 95, 73)" opacity="1.0" stroke="rgb(192, 108, 60)" stroke-opacity="0.93094456" stroke-linecap="round" stroke-linejoin="round"/>
    <path d="M 303.0 404.0 C 302.33013916015625 406.5 300.5 408.33013916015625 298.0 409.0 C 295.5 408.33013916015625 293.66986083984375 406.5 293.0 404.0 C 293.66986083984375 401.5 295.5 399.66986083984375 298.0 399.0 C 300.5 399.66986083984375 302.33013916015625 401.5 303.0 404.0" stroke-width="0.0" fill="rgb(29, 42, 46)" opacity="1.0" stroke="rgb(168, 64, 73)" stroke-opacity="0.72804695" stroke-linecap="round" stroke-linejoin="round"/>
    <path d="M 259.0 112.0 C 258.33013916015625 114.5 256.5 116.33012390136719 254.0 117.0 C 251.5 116.33012390136719 249.6698760986328 114.5 249.0 112.0 C 249.6698760986328 109.5 251.5 107.66987609863281 254.0 107.0 C 256.5 107.66987609863281 258.33013916015625 109.5 259.0 112.0" stroke-width="0.0" fill="rgb(115, 121, 113)" opacity="1.0" stroke="rgb(185, 175, 235)" stroke-opacity="0.7470111" stroke-linecap="round" stroke-linejoin="round"/>
    <path d="M 129.0 193.0 C 128.3301239013672 195.5 126.5 197.3301239013672 124.0 198.0 C 121.5 197.3301239013672 119.66987609863281 195.5 119.0 193.0 C 119.66987609863281 190.5 121.5 188.6698760986328 124.0 188.0 C 126.5 188.6698760986328 128.3301239013672 190.5 129.0 193.0" stroke-width="0.0" fill="rgb(116, 126, 123)" opacity="1.0" stroke="rgb(179, 92, 250)" stroke-opacity="0.43511152" stroke-linecap="round" stroke-linejoin="round"/>
    <path d="M 132.0 273.0 C 131.3301239013672 275.5 129.5 277.33013916015625 127.0 278.0 C 124.5 277.33013916015625 122.66987609863281 275.5 122.0 273.0 C 122.66987609863281 270.5 124.5 268.66986083984375 127.0 268.0 C 129.5 268.66986083984375 131.3301239013672 270.5 132.0 273.0" stroke-width="0.0" fill="rgb(164, 154, 140)" opacity="1.0" stroke="rgb(226, 150, 112)" stroke-opacity="0.9610069" stroke-linecap="round" stroke-linejoin="round"/>
    <path d="M 513.0 466.0 C 512.3301391601562 468.5 510.5 470.33013916015625 508.0 471.0 C 505.5 470.33013916015625 503.66986083984375 468.5 503.0 466.0 C 503.66986083984375 463.5 505.5 461.66986083984375 508.0 461.0 C 510.5 461.66986083984375 512.3301391601562 463.5 513.0 466.0" stroke-width="0.0" fill="rgb(251, 250, 250)" opacity="1.0" stroke="rgb(44, 39, 104)" stroke-opacity="0.077285334" stroke-linecap="round" stroke-linejoin="round"/>
    <path d="M 361.0 459.0 C 360.33013916015625 461.5 358.5 463.33013916015625 356.0 464.0 C 353.5 463.33013916015625 351.66986083984375 461.5 351.0 459.0 C 351.66986083984375 456.5 353.5 454.66986083984375 356.0 454.0 C 358.5 454.66986083984375 360.33013916015625 456.5 361.0 459.0" stroke-width="0.0" fill="rgb(123, 134, 132)" opacity="1.0" stroke="rgb(104, 97, 218)" stroke-opacity="0.6884597" stroke-linecap="round" stroke-linejoin="round"/>
    <path d="M 104.0 331.0 C 103.33012390136719 333.5 101.5 335.33013916015625 99.0 336.0 C 96.5 335.33013916015625 94.66987609863281 333.5 94.0 331.0 C 94.66987609863281 328.5 96.5 326.66986083984375 99.0 326.0 C 101.5 326.66986083984375 103.33012390136719 328.5 104.0 331.0" stroke-width="0.0" fill="rgb(149, 147, 129)" opacity="1.0" stroke="rgb(60, 92, 130)" stroke-opacity="0.20384137" stroke-linecap="round" stroke-linejoin="round"/>
    <path d="M 257.0 90.0 C 256.33013916015625 92.5 254.5 94.33012390136719 252.0 95.0 C 249.5 94.33012390136719 247.6698760986328 92.5 247.0 90.0 C 247.6698760986328 87.5 249.5 85.66987609863281 252.0 85.0 C 254.5 85.66987609863281 256.33013916015625 87.5 257.0 90.0" stroke-width="0.0" fill="rgb(108, 113, 106)" opacity="1.0" stroke="rgb(16, 163, 234)" stroke-opacity="0.8252439" stroke-linecap="round" stroke-linejoin="round"/>
    <path d="M 396.0 286.0 C 395.33013916015625 288.5 393.5 290.33013916015625 391.0 291.0 C 388.5 290.33013916015625 386.66986083984375 288.5 386.0 286.0 C 386.66986083984375 283.5 388.5 281.66986083984375 391.0 281.0 C 393.5 281.66986083984375 395.33013916015625 283.5 396.0 286.0" stroke-width="0.0" fill="rgb(27, 34, 39)" opacity="1.0" stroke="rgb(77, 46, 119)" stroke-opacity="0.9557589" stroke-linecap="round" stroke-linejoin="round"/>
    <path d="M 382.0 246.0 C 381.33013916015625 248.5 379.5 250.3301239013672 377.0 251.0 C 374.5 250.3301239013672 372.66986083984375 248.5 372.0 246.0 C 372.66986083984375 243.5 374.5 241.6698760986328 377.0 241.0 C 379.5 241.6698760986328 381.33013916015625 243.5 382.0 246.0" stroke-width="0.0" fill="rgb(31, 43, 49)" opacity="1.0" stroke="rgb(124, 231, 132)" stroke-opacity="0.59570056" stroke-linecap="round" stroke-linejoin="round"/>
    <path d="M 347.0 342.0 C 346.33013916015625 344.5 344.5 346.33013916015625 342.0 347.0 C 339.5 346.33013916015625 337.66986083984375 344.5 337.0 342.0 C 337.66986083984375 339.5 339.5 337.66986083984375 342.0 337.0 C 344.5 337.66986083984375 346.33013916015625 339.5 347.0 342.0" stroke-width="0.0" fill="rgb(90, 93, 84)" opacity="1.0" stroke="rgb(58, 219, 114)" stroke-opacity="0.6903703" stroke-linecap="round" stroke-linejoin="round"/>
    <path d="M 234.0 234.0 C 233.3301239013672 236.5 231.5 238.3301239013672 229.0 239.0 C 226.5 238.3301239013672 224.6698760986328 236.5 224.0 234.0 C 224.6698760986328 231.5 226.5 229.6698760986328 229.0 229.0 C 231.5 229.6698760986328 233.3301239013672 231.5 234.0 234.0" stroke-width="0.0" fill="rgb(25, 31, 39)" opacity="1.0" stroke="rgb(43, 221, 149)" stroke-opacity="0.4609756" stroke-linecap="round" stroke-linejoin="round"/>
  </g>
</svg>
