<?xml version="1.0" ?>
<svg xmlns="http://www.w3.org/2000/svg" version="1.1" width="512" height="512">
  <defs/>
  <g>
    <path d="M 41.308631896972656 61.1533088684082 C 78.11914825439453 58.40864181518555 113.49227905273438 75.84551239013672 8.710394859313965 98.71558380126953 C 3.751089334487915 49.50490951538086 10.598466873168945 59.804500579833984 16.10317611694336 61.87549591064453 C 13.351323127746582 37.89995193481445 19.99888038635254 34.26039505004883 19.551546096801758 35.900657653808594 C 9.981042861938477 63.42623519897461 15.9183988571167 60.96367263793945 41.308631896972656 61.1533088684082" stroke-width="0.0" fill="rgb(230, 160, 113)" opacity="0.8037665" stroke="rgb(69, 65, 228)" stroke-opacity="0.061015464" stroke-linecap="round" stroke-linejoin="round"/>
    <path d="M 83.6841049194336 60.662532806396484 C 104.89107513427734 284.05535888671875 132.35987854003906 159.00567626953125 7.173689842224121 270.676025390625 C 7.111931324005127 10.790189743041992 5.649934768676758 64.52222442626953 12.146222114562988 60.34090042114258 C 12.820333480834961 52.46403121948242 20.867979049682617 49.7076301574707 26.7615966796875 33.25003433227539 C 9.703469276428223 71.02592468261719 -11.075032234191895 55.73150634765625 83.6841049194336 60.662532806396484" stroke-width="0.0" fill="rgb(90, 55, 31)" opacity="0.5449411" stroke="rgb(37, 210, 11)" stroke-opacity="0.6564148" stroke-linecap="round" stroke-linejoin="round"/>
    <path d="M 411.5481872558594 6.272763729095459 C 426.8332824707031 80.36624145507812 421.1682434082031 97.23774719238281 365.9882507324219 92.37039947509766 C 231.43341064453125 155.62100219726562 329.82147216796875 176.82872009277344 211.60137939453125 167.25531005859375 C 181.12513732910156 -23.359622955322266 173.96017456054688 8.447834968566895 223.0638427734375 6.7266764640808105 C 327.1150207519531 7.81728982925415 332.6855163574219 6.909307956695557 411.5481872558594 6.272763729095459" stroke-width="0.0" fill="rgb(110, 122, 115)" opacity="0.32230335" stroke="rgb(236, 152, 50)" stroke-opacity="0.7445966" stroke-linecap="round" stroke-linejoin="round"/>
    <path d="M 5.582982540130615 308.6658630371094 C 4.61948823928833 262.4298400878906 4.7136101722717285 256.728271484375 5.8522257804870605 330.0572204589844 C -46.21858596801758 302.7706298828125 -11.0252103805542 263.9057922363281 -13.169361114501953 246.04159545898438 C -14.207671165466309 220.33595275878906 -100.46565246582031 155.51577758789062 6.807878494262695 81.23667907714844 C 6.593355655670166 299.8387756347656 7.189714431762695 318.3581237792969 5.582982540130615 308.6658630371094" stroke-width="0.0" fill="rgb(255, 255, 255)" opacity="0.8456048" stroke="rgb(115, 68, 133)" stroke-opacity="0.4278751" stroke-linecap="round" stroke-linejoin="round"/>
    <path d="M 7.023812770843506 425.25506591796875 C 12.506063461303711 394.9767761230469 5.040805339813232 392.4089660644531 7.042126655578613 518.243408203125 C -75.86080932617188 474.67559814453125 -16.23879623413086 423.2592468261719 -16.699684143066406 388.6234130859375 C -15.458654403686523 368.8817138671875 -43.042789459228516 345.6537170410156 6.733043193817139 300.1921691894531 C 6.544384956359863 368.1599426269531 7.720627307891846 400.5555114746094 7.023812770843506 425.25506591796875" stroke-width="0.0" fill="rgb(255, 255, 255)" opacity="0.8233468" stroke="rgb(169, 142, 102)" stroke-opacity="0.36690417" stroke-linecap="round" stroke-linejoin="round"/>
    <path d="M 134.77517700195312 190.58338928222656 C 136.760498046875 305.43133544921875 202.39706420898438 374.77850341796875 105.7884750366211 402.9057922363281 C 117.56114196777344 223.7638397216797 91.21388244628906 239.44541931152344 102.16962432861328 244.07650756835938 C 75.74922943115234 70.51775360107422 72.51234436035156 70.1186752319336 82.21625518798828 62.70404052734375 C 109.59915924072266 235.52003479003906 87.35317993164062 182.24026489257812 134.77517700195312 190.58338928222656" stroke-width="0.0" fill="rgb(0, 16, 26)" opacity="0.80230474" stroke="rgb(80, 76, 67)" stroke-opacity="0.21527018" stroke-linecap="round" stroke-linejoin="round"/>
    <path d="M 93.9230728149414 400.194580078125 C 205.2960205078125 338.13323974609375 182.41868591308594 468.71173095703125 177.607177734375 466.36834716796875 C 43.98335647583008 502.05877685546875 72.52993774414062 493.372314453125 9.192980766296387 497.95989990234375 C -7.881068706512451 200.6225128173828 48.456851959228516 216.45201110839844 43.15119552612305 467.0745544433594 C 122.77603912353516 467.60455322265625 78.42710876464844 460.8028869628906 93.9230728149414 400.194580078125" stroke-width="0.0" fill="rgb(49, 34, 26)" opacity="0.5106906" stroke="rgb(223, 167, 125)" stroke-opacity="0.57557094" stroke-linecap="round" stroke-linejoin="round"/>
    <path d="M 522.451171875 222.978271484375 C 523.4892578125 232.11534118652344 522.9922485351562 232.02174377441406 505.72613525390625 231.96481323242188 C 506.4808044433594 137.06068420410156 505.548583984375 161.18609619140625 506.2301940917969 298.4615173339844 C 506.8037414550781 255.88853454589844 506.04205322265625 188.65321350097656 507.0117492675781 70.73948669433594 C 601.8783569335938 126.72390747070312 527.5333251953125 203.95777893066406 522.451171875 222.978271484375" stroke-width="0.0" fill="rgb(254, 253, 255)" opacity="0.89625686" stroke="rgb(236, 33, 34)" stroke-opacity="0.59380275" stroke-linecap="round" stroke-linejoin="round"/>
    <path d="M 448.8175964355469 186.8785400390625 C 442.87200927734375 291.4943542480469 471.0111999511719 244.27288818359375 382.9320373535156 305.1903076171875 C 376.63720703125 358.21746826171875 375.48089599609375 355.4579162597656 344.2565002441406 207.16305541992188 C 311.994873046875 358.35418701171875 328.7264099121094 249.83135986328125 342.382080078125 187.72862243652344 C 437.0237121582031 187.39962768554688 386.7662353515625 187.63050842285156 448.8175964355469 186.8785400390625" stroke-width="0.0" fill="rgb(69, 74, 73)" opacity="0.69962054" stroke="rgb(187, 34, 142)" stroke-opacity="0.07925768" stroke-linecap="round" stroke-linejoin="round"/>
    <path d="M 76.92430114746094 91.24221801757812 C 71.62187957763672 115.90264892578125 65.44330596923828 132.8987579345703 48.19503402709961 213.6087646484375 C -38.76181411743164 220.64999389648438 38.39808654785156 193.54844665527344 30.61040687561035 211.53761291503906 C 60.69826126098633 92.6574935913086 64.8877182006836 73.98797607421875 68.96569061279297 61.577125549316406 C 96.829345703125 54.57072830200195 77.02647399902344 80.5522689819336 76.92430114746094 91.24221801757812" stroke-width="0.0" fill="rgb(42, 65, 72)" opacity="0.79451835" stroke="rgb(154, 198, 188)" stroke-opacity="0.9296262" stroke-linecap="round" stroke-linejoin="round"/>
    <path d="M 93.08883666992188 401.75506591796875 C 93.84832763671875 510.8434753417969 106.48512268066406 434.79058837890625 128.7335968017578 478.01971435546875 C 62.4715576171875 475.3046569824219 82.71349334716797 489.43701171875 81.7171859741211 461.2344665527344 C 83.18502044677734 390.37750244140625 80.709716796875 391.3855285644531 82.57454681396484 391.8766174316406 C 101.76205444335938 397.6628723144531 100.35576629638672 395.4453430175781 93.08883666992188 401.75506591796875" stroke-width="0.0" fill="rgb(38, 50, 53)" opacity="1.0" stroke="rgb(245, 155, 158)" stroke-opacity="0.69371015" stroke-linecap="round" stroke-linejoin="round"/>
    <path d="M 130.15589904785156 213.0472869873047 C 154.322265625 373.7008972167969 144.0870361328125 315.1102600097656 136.9571990966797 345.9350280761719 C 104.01539611816406 281.9630126953125 128.6229705810547 335.5894470214844 112.5942153930664 465.9071960449219 C 115.51734161376953 289.5603332519531 108.7335205078125 257.37493896484375 123.50797271728516 285.26177978515625 C 146.84152221679688 330.7699279785156 124.22844696044922 212.46311950683594 130.15589904785156 213.0472869873047" stroke-width="0.0" fill="rgb(147, 147, 136)" opacity="0.99989367" stroke="rgb(166, 75, 45)" stroke-opacity="0.66183096" stroke-linecap="round" stroke-linejoin="round"/>
    <path d="M 319.228759765625 325.4112243652344 C 316.30242919921875 496.6654968261719 324.1499328613281 452.9550476074219 307.9283752441406 459.6123046875 C 308.37176513671875 334.07977294921875 313.01739501953125 382.32196044921875 289.8666076660156 320.2701721191406 C 238.59983825683594 426.068603515625 294.59747314453125 327.18536376953125 280.1694030761719 246.39178466796875 C 345.8447570800781 253.78262329101562 339.15826416015625 223.36204528808594 319.228759765625 325.4112243652344" stroke-width="0.0" fill="rgb(0, 1, 5)" opacity="0.6180832" stroke="rgb(108, 133, 28)" stroke-opacity="0.5740661" stroke-linecap="round" stroke-linejoin="round"/>
    <path d="M 500.18389892578125 471.33477783203125 C 496.2885437011719 386.01849365234375 508.0492858886719 243.27801513671875 506.3601989746094 493.92266845703125 C 254.67636108398438 467.90106201171875 266.77655029296875 447.90936279296875 475.3931884765625 472.40203857421875 C 476.2737731933594 370.95611572265625 471.6089782714844 397.1444396972656 488.0844421386719 390.38861083984375 C 493.1492919921875 472.2948913574219 480.0849914550781 473.04718017578125 500.18389892578125 471.33477783203125" stroke-width="0.0" fill="rgb(48, 16, 0)" opacity="0.53836906" stroke="rgb(128, 222, 76)" stroke-opacity="0.90760267" stroke-linecap="round" stroke-linejoin="round"/>
    <path d="M 244.2765350341797 457.9534912109375 C 242.0216064453125 513.0632934570312 245.32933044433594 501.4588317871094 263.9944763183594 506.0129699707031 C 132.7983856201172 505.8963928222656 116.7365493774414 506.3121032714844 120.5775375366211 505.3020324707031 C 182.84519958496094 479.4787902832031 190.99114990234375 472.9976501464844 224.9640350341797 461.5479431152344 C 94.9731216430664 456.8318786621094 216.78598022460938 456.9689025878906 244.2765350341797 457.9534912109375" stroke-width="0.0" fill="rgb(47, 69, 77)" opacity="0.47034162" stroke="rgb(137, 2, 171)" stroke-opacity="0.8611319" stroke-linecap="round" stroke-linejoin="round"/>
    <path d="M 274.00579833984375 5.99035120010376 C 276.19305419921875 5.967840194702148 264.68463134765625 6.021275520324707 272.1556396484375 5.992155075073242 C 233.9342803955078 5.995026111602783 240.60630798339844 5.978418827056885 240.9993896484375 5.986137390136719 C 241.06407165527344 -11.766860008239746 239.7406463623047 -9.825791358947754 262.48358154296875 -7.8772196769714355 C 274.3881530761719 -12.135917663574219 273.9461669921875 -13.041208267211914 274.00579833984375 5.99035120010376" stroke-width="0.0" fill="rgb(253, 253, 255)" opacity="0.9171347" stroke="rgb(165, 81, 143)" stroke-opacity="0.8953763" stroke-linecap="round" stroke-linejoin="round"/>
    <path d="M 360.6969299316406 507.04376220703125 C 361.2899475097656 530.4955444335938 354.5431823730469 522.2783813476562 327.0953063964844 521.386962890625 C 313.5079650878906 523.4500122070312 290.1102294921875 566.470703125 263.6929626464844 504.9587097167969 C 334.4862365722656 509.2772521972656 362.89874267578125 499.6065368652344 330.7796630859375 504.64044189453125 C 319.4223937988281 508.5076904296875 360.951904296875 502.73626708984375 360.6969299316406 507.04376220703125" stroke-width="0.0" fill="rgb(255, 255, 255)" opacity="0.82290983" stroke="rgb(184, 159, 225)" stroke-opacity="0.93979347" stroke-linecap="round" stroke-linejoin="round"/>
    <path d="M 448.1479187011719 239.36349487304688 C 449.70965576171875 228.80296325683594 443.0514831542969 244.59158325195312 415.0367736816406 258.3356628417969 C 425.6847229003906 258.8825988769531 423.0794372558594 257.09344482421875 422.77197265625 213.4268798828125 C 421.6842041015625 201.00897216796875 390.5798645019531 191.21890258789062 446.7248229980469 195.97019958496094 C 445.1788330078125 174.77395629882812 450.2153625488281 193.764404296875 448.1479187011719 239.36349487304688" stroke-width="0.0" fill="rgb(0, 15, 22)" opacity="0.7209253" stroke="rgb(242, 163, 0)" stroke-opacity="0.121152185" stroke-linecap="round" stroke-linejoin="round"/>
    <path d="M 506.417724609375 52.02366256713867 C 504.0827331542969 165.10665893554688 512.3231201171875 132.67355346679688 496.3058776855469 137.9728240966797 C 465.91900634765625 51.37821578979492 485.8445739746094 32.32475662231445 450.8387451171875 174.64697265625 C 432.0310974121094 200.64976501464844 480.2932434082031 39.853580474853516 468.96697998046875 52.49010467529297 C 518.2788696289062 50.69729232788086 504.3450927734375 52.355499267578125 506.417724609375 52.02366256713867" stroke-width="0.0" fill="rgb(5, 16, 23)" opacity="0.8693531" stroke="rgb(81, 173, 20)" stroke-opacity="0.4434601" stroke-linecap="round" stroke-linejoin="round"/>
    <path d="M 382.8970642089844 383.5439453125 C 380.3642272949219 463.8861389160156 389.4156799316406 466.237548828125 364.306640625 468.2884521484375 C 366.0650329589844 424.5104064941406 364.8132019042969 405.72296142578125 365.6354064941406 350.09454345703125 C 371.04791259765625 356.1654052734375 362.5923156738281 352.975830078125 379.28900146484375 345.8967590332031 C 384.498779296875 345.349609375 382.22113037109375 380.6070556640625 382.8970642089844 383.5439453125" stroke-width="0.0" fill="rgb(61, 75, 78)" opacity="0.6187428" stroke="rgb(222, 114, 94)" stroke-opacity="0.732884" stroke-linecap="round" stroke-linejoin="round"/>
    <path d="M 241.47325134277344 144.18653869628906 C 243.48773193359375 203.43360900878906 248.84716796875 114.80491638183594 272.8887939453125 164.3787841796875 C 204.9613037109375 164.69522094726562 205.37144470214844 165.4722442626953 220.63348388671875 161.16348266601562 C 220.64031982421875 160.6775360107422 225.51878356933594 154.333251953125 246.38877868652344 127.44779205322266 C 255.18600463867188 143.4512939453125 278.792724609375 157.0125274658203 241.47325134277344 144.18653869628906" stroke-width="0.0" fill="rgb(255, 243, 218)" opacity="0.7848317" stroke="rgb(184, 3, 135)" stroke-opacity="0.32203558" stroke-linecap="round" stroke-linejoin="round"/>
    <path d="M 382.98675537109375 463.6598815917969 C 382.3896484375 484.7122497558594 385.307861328125 475.7507629394531 374.79656982421875 477.42681884765625 C 357.4759826660156 476.6650390625 367.6036071777344 479.5603332519531 363.8995361328125 457.131591796875 C 375.0801086425781 451.58087158203125 391.7301330566406 467.128173828125 376.0085754394531 436.6221008300781 C 374.47137451171875 436.5869445800781 382.94781494140625 442.7703552246094 382.98675537109375 463.6598815917969" stroke-width="0.0" fill="rgb(15, 30, 35)" opacity="0.86643374" stroke="rgb(0, 252, 239)" stroke-opacity="0.34289593" stroke-linecap="round" stroke-linejoin="round"/>
    <path d="M 147.831298828125 5.950416564941406 C 1.316408395767212 6.263572692871094 -20.60331153869629 5.025717735290527 20.093708038330078 8.544721603393555 C 226.64163208007812 8.528617858886719 77.26929473876953 6.870968341827393 11.100431442260742 7.691699504852295 C 9.848989486694336 -24.234766006469727 21.151809692382812 -11.440799713134766 44.236934661865234 -7.595865726470947 C 59.68794631958008 -14.958182334899902 88.41737365722656 -56.662681579589844 147.831298828125 5.950416564941406" stroke-width="0.0" fill="rgb(254, 255, 255)" opacity="0.8755307" stroke="rgb(221, 222, 111)" stroke-opacity="0.76970196" stroke-linecap="round" stroke-linejoin="round"/>
    <path d="M 382.50067138671875 311.1458435058594 C 381.3837585449219 381.73370361328125 388.59393310546875 367.01324462890625 349.4049377441406 380.48284912109375 C 288.1375732421875 402.435546875 310.06988525390625 390.0089416503906 366.2356872558594 371.0260009765625 C 364.8028259277344 327.32415771484375 366.61566162109375 307.9651794433594 364.83660888671875 306.1406555175781 C 384.3942565917969 319.94293212890625 383.6439514160156 299.7142639160156 382.50067138671875 311.1458435058594" stroke-width="0.0" fill="rgb(133, 135, 126)" opacity="0.9550121" stroke="rgb(185, 125, 103)" stroke-opacity="0.896286" stroke-linecap="round" stroke-linejoin="round"/>
    <path d="M 382.9258728027344 505.7979736328125 C 375.9342041015625 505.1764221191406 357.2745056152344 506.87200927734375 353.1396484375 506.1138610839844 C 350.7138671875 504.1548156738281 339.6748962402344 500.9184265136719 267.3284606933594 465.3211975097656 C 267.8587341308594 460.2957458496094 304.1778869628906 476.77569580078125 348.97979736328125 492.9460754394531 C 347.702880859375 492.6098327636719 366.69354248046875 499.8134765625 382.9258728027344 505.7979736328125" stroke-width="0.0" fill="rgb(0, 20, 31)" opacity="0.750663" stroke="rgb(182, 106, 57)" stroke-opacity="0.78932244" stroke-linecap="round" stroke-linejoin="round"/>
    <path d="M 43.110660552978516 267.4497375488281 C 42.9725341796875 295.1495056152344 43.27509689331055 304.6643981933594 43.25531768798828 388.68621826171875 C -1.3467587232589722 368.8642272949219 8.261922836303711 342.02288818359375 7.080196380615234 308.9635314941406 C 7.180448532104492 249.39321899414062 5.973813533782959 259.1330261230469 9.803752899169922 250.77720642089844 C 21.41815185546875 269.4212341308594 39.37151336669922 270.01849365234375 43.110660552978516 267.4497375488281" stroke-width="0.0" fill="rgb(149, 131, 107)" opacity="1.0" stroke="rgb(92, 61, 55)" stroke-opacity="0.8866305" stroke-linecap="round" stroke-linejoin="round"/>
    <path d="M 506.67431640625 126.54486083984375 C 505.1332092285156 120.18994140625 506.77935791015625 143.30030822753906 505.2394714355469 184.19715881347656 C 510.91693115234375 129.9210205078125 492.44549560546875 132.14056396484375 479.580078125 84.78233337402344 C 468.7627868652344 44.47166061401367 460.12548828125 51.23196029663086 506.3059387207031 50.636837005615234 C 506.7403259277344 71.22364044189453 507.0997619628906 80.21021270751953 506.67431640625 126.54486083984375" stroke-width="0.0" fill="rgb(36, 46, 47)" opacity="0.53547525" stroke="rgb(14, 154, 36)" stroke-opacity="0.26656744" stroke-linecap="round" stroke-linejoin="round"/>
    <path d="M 80.10087585449219 309.5948181152344 C 75.36432647705078 343.3385009765625 101.55546569824219 359.308837890625 75.39177703857422 344.89154052734375 C 77.74020385742188 337.71441650390625 75.05894470214844 325.5625305175781 76.9077377319336 307.19891357421875 C 76.12400817871094 322.28131103515625 75.78338623046875 319.0352783203125 76.58252716064453 279.5295715332031 C 97.845703125 297.7216491699219 76.11646270751953 276.8605651855469 80.10087585449219 309.5948181152344" stroke-width="0.0" fill="rgb(9, 23, 33)" opacity="0.9310883" stroke="rgb(196, 9, 86)" stroke-opacity="0.09446525" stroke-linecap="round" stroke-linejoin="round"/>
    <path d="M 43.506595611572266 244.9264373779297 C 42.14576721191406 282.1371154785156 48.067508697509766 260.42822265625 22.422693252563477 272.456298828125 C 12.457964897155762 442.5162658691406 3.952638864517212 420.33758544921875 7.883697032928467 130.01171875 C 1.7036337852478027 37.6988410949707 102.78077697753906 55.924964904785156 11.50748348236084 250.33697509765625 C 19.977272033691406 272.7758483886719 43.81571960449219 232.12106323242188 43.506595611572266 244.9264373779297" stroke-width="0.0" fill="rgb(125, 57, 21)" opacity="0.4023475" stroke="rgb(74, 125, 214)" stroke-opacity="0.19127741" stroke-linecap="round" stroke-linejoin="round"/>
    <path d="M 63.95616912841797 214.90609741210938 C 78.21055603027344 231.6249542236328 73.92193603515625 217.1375274658203 43.25621795654297 242.933349609375 C 43.81317138671875 243.64804077148438 42.918949127197266 244.94720458984375 43.62074661254883 214.10498046875 C 52.73030471801758 214.2769775390625 43.35850143432617 223.3493194580078 78.5456314086914 86.89830017089844 C 98.43263244628906 227.9366455078125 60.62262725830078 53.95917510986328 63.95616912841797 214.90609741210938" stroke-width="0.0" fill="rgb(255, 252, 226)" opacity="0.68291867" stroke="rgb(208, 161, 85)" stroke-opacity="0.6322967" stroke-linecap="round" stroke-linejoin="round"/>
    <path d="M 81.91075134277344 490.2813415527344 C 60.49615478515625 490.7080993652344 56.798065185546875 496.35498046875 16.31519889831543 496.0193786621094 C 3.7855894565582275 495.9881591796875 7.775537014007568 509.80657958984375 7.014720439910889 458.23126220703125 C 9.518353462219238 471.3872985839844 -1.540263056755066 466.1759033203125 41.000892639160156 467.8963928222656 C 93.82038116455078 470.0064392089844 80.33142852783203 457.0722961425781 81.91075134277344 490.2813415527344" stroke-width="0.0" fill="rgb(49, 62, 64)" opacity="1.0" stroke="rgb(93, 238, 240)" stroke-opacity="0.2449242" stroke-linecap="round" stroke-linejoin="round"/>
    <path d="M 520.2474975585938 431.96484375 C 521.0686645507812 441.7541198730469 521.7206420898438 443.1911926269531 509.0342712402344 443.0162353515625 C 508.99981689453125 423.2930603027344 509.0358581542969 417.45245361328125 509.0496826171875 414.9372253417969 C 509.0240173339844 426.1487121582031 509.6634826660156 428.6250915527344 509.9337463378906 401.7698059082031 C 526.5787963867188 409.62005615234375 521.3905029296875 417.5091857910156 520.2474975585938 431.96484375" stroke-width="0.0" fill="rgb(255, 255, 255)" opacity="0.8742036" stroke="rgb(250, 231, 169)" stroke-opacity="0.25221157" stroke-linecap="round" stroke-linejoin="round"/>
    <path d="M 469.9886779785156 -0.07538075745105743 C 469.1838684082031 10.58259391784668 478.307373046875 6.621565818786621 409.7355041503906 7.666334629058838 C 436.7391357421875 5.9999680519104 398.4053955078125 6.906553745269775 349.06103515625 6.619095802307129 C 347.06689453125 -44.06471252441406 395.49896240234375 -15.626933097839355 429.5267333984375 -17.83914566040039 C 437.14715576171875 -12.98219108581543 442.9927978515625 -14.638384819030762 469.9886779785156 -0.07538075745105743" stroke-width="0.0" fill="rgb(253, 254, 255)" opacity="0.84121114" stroke="rgb(177, 164, 238)" stroke-opacity="0.19276913" stroke-linecap="round" stroke-linejoin="round"/>
    <path d="M 158.95472717285156 508.3779602050781 C 159.0691375732422 526.0805053710938 157.65213012695312 524.3272094726562 128.4857177734375 531.364990234375 C 125.0090560913086 523.064697265625 112.51947784423828 530.4268798828125 99.97574615478516 507.06243896484375 C 128.63095092773438 506.9967956542969 154.81375122070312 506.9326171875 154.04588317871094 507.08001708984375 C 152.0637969970703 508.9860534667969 159.3355712890625 507.3277893066406 158.95472717285156 508.3779602050781" stroke-width="0.0" fill="rgb(253, 254, 255)" opacity="0.9124928" stroke="rgb(140, 187, 174)" stroke-opacity="0.44278467" stroke-linecap="round" stroke-linejoin="round"/>
    <path d="M 520.16943359375 381.904052734375 C 520.9686889648438 397.2540588378906 536.096435546875 425.1848449707031 506.3376770019531 422.8585205078125 C 507.8171081542969 339.385986328125 502.0635070800781 339.4102783203125 517.7217407226562 352.0323181152344 C 510.76824951171875 378.73626708984375 511.91607666015625 372.91217041015625 514.7296752929688 366.50836181640625 C 514.891845703125 373.43304443359375 517.8482055664062 373.71337890625 520.16943359375 381.904052734375" stroke-width="0.0" fill="rgb(254, 253, 255)" opacity="0.88349026" stroke="rgb(74, 185, 145)" stroke-opacity="0.30259514" stroke-linecap="round" stroke-linejoin="round"/>
    <path d="M 488.1109924316406 429.1109619140625 C 488.1080322265625 485.4367370605469 489.09124755859375 478.3907775878906 481.54071044921875 453.2952880859375 C 485.59625244140625 438.4984436035156 479.2785339355469 425.0089111328125 487.4935607910156 429.79522705078125 C 469.9363708496094 424.96173095703125 494.00537109375 396.8161315917969 473.2442626953125 393.9550476074219 C 495.1733093261719 392.1129455566406 486.5774230957031 377.7319641113281 488.1109924316406 429.1109619140625" stroke-width="0.0" fill="rgb(0, 21, 32)" opacity="0.7191733" stroke="rgb(85, 220, 165)" stroke-opacity="0.78382874" stroke-linecap="round" stroke-linejoin="round"/>
    <path d="M 111.10389709472656 505.57684326171875 C 102.94915771484375 532.9645385742188 86.61164855957031 522.2886962890625 57.98107147216797 520.1609497070312 C 43.364688873291016 522.4315795898438 19.029132843017578 548.7774047851562 0.8273422718048096 505.543212890625 C 57.554840087890625 505.4827575683594 74.80947875976562 505.56378173828125 80.91845703125 505.682373046875 C 62.390132904052734 505.2986145019531 66.818359375 505.6297607421875 111.10389709472656 505.57684326171875" stroke-width="0.0" fill="rgb(253, 252, 255)" opacity="0.83083475" stroke="rgb(97, 124, 243)" stroke-opacity="0.3074387" stroke-linecap="round" stroke-linejoin="round"/>
    <path d="M 506.4365234375 369.0178527832031 C 503.0963134765625 365.0790710449219 478.1867980957031 374.1670227050781 457.9139404296875 379.8806457519531 C 444.8006286621094 383.71002197265625 449.2913818359375 385.029296875 448.2162780761719 375.0603332519531 C 462.10009765625 370.7543640136719 466.47271728515625 368.89862060546875 475.0865478515625 365.864501953125 C 505.6160583496094 358.2668762207031 507.5478820800781 347.74462890625 506.4365234375 369.0178527832031" stroke-width="0.0" fill="rgb(15, 27, 34)" opacity="0.91140634" stroke="rgb(155, 188, 103)" stroke-opacity="0.8354889" stroke-linecap="round" stroke-linejoin="round"/>
    <path d="M 187.03395080566406 358.99188232421875 C 172.83935546875 350.36676025390625 191.70623779296875 408.0586853027344 174.4531707763672 411.9396667480469 C 143.13653564453125 403.0140686035156 136.13693237304688 403.4119567871094 143.44357299804688 404.15753173828125 C 141.01177978515625 339.64788818359375 143.1528778076172 327.4606018066406 144.51162719726562 311.29461669921875 C 189.77728271484375 308.7987976074219 177.4194793701172 311.1339111328125 187.03395080566406 358.99188232421875" stroke-width="0.0" fill="rgb(142, 117, 95)" opacity="1.0" stroke="rgb(90, 215, 166)" stroke-opacity="0.14450079" stroke-linecap="round" stroke-linejoin="round"/>
    <path d="M 488.2704772949219 205.37802124023438 C 487.2323913574219 213.16493225097656 496.4874572753906 208.68173217773438 477.4984130859375 222.6036376953125 C 475.98089599609375 218.26585388183594 473.8529968261719 232.30043029785156 479.8028564453125 206.68482971191406 C 485.3564758300781 201.65240478515625 480.27398681640625 186.25282287597656 486.8570861816406 177.00877380371094 C 489.1609802246094 168.23719787597656 487.9772644042969 201.33242797851562 488.2704772949219 205.37802124023438" stroke-width="0.0" fill="rgb(0, 3, 9)" opacity="0.853947" stroke="rgb(175, 223, 76)" stroke-opacity="0.8771252" stroke-linecap="round" stroke-linejoin="round"/>
    <path d="M 521.171875 502.06591796875 C 510.7061767578125 542.6583251953125 468.5489807128906 521.4004516601562 448.8787841796875 525.23291015625 C 429.3251037597656 523.0408325195312 406.1127624511719 574.6702880859375 354.68756103515625 506.4914245605469 C 441.8511657714844 504.8822021484375 449.8121643066406 508.12237548828125 448.0301513671875 503.2037048339844 C 447.06561279296875 501.31671142578125 447.8415832519531 502.5169677734375 521.171875 502.06591796875" stroke-width="0.0" fill="rgb(255, 255, 255)" opacity="0.7071753" stroke="rgb(87, 153, 2)" stroke-opacity="0.12887044" stroke-linecap="round" stroke-linejoin="round"/>
    <path d="M 484.2300720214844 427.1492614746094 C 490.74652099609375 444.7939453125 486.85028076171875 459.4515380859375 489.3974609375 490.42877197265625 C 476.8314514160156 487.5189514160156 478.64154052734375 499.15447998046875 480.8475341796875 460.53564453125 C 483.5575866699219 419.7362976074219 477.2536315917969 424.5206298828125 488.0086364746094 425.4250793457031 C 487.8216552734375 448.8348083496094 489.0526428222656 444.6468200683594 484.2300720214844 427.1492614746094" stroke-width="0.0" fill="rgb(24, 35, 38)" opacity="0.93072176" stroke="rgb(160, 31, 190)" stroke-opacity="0.043240808" stroke-linecap="round" stroke-linejoin="round"/>
    <path d="M 412.7933044433594 436.57208251953125 C 411.5955505371094 448.4007873535156 419.5347900390625 448.965087890625 405.478271484375 448.6805725097656 C 401.17803955078125 443.43743896484375 419.7275390625 431.4669494628906 406.3572692871094 443.5485534667969 C 406.72003173828125 402.61395263671875 404.97186279296875 402.2357177734375 405.9881591796875 401.12384033203125 C 415.3736267089844 400.7108459472656 412.7718505859375 386.91070556640625 412.7933044433594 436.57208251953125" stroke-width="0.0" fill="rgb(84, 61, 49)" opacity="0.7309238" stroke="rgb(159, 19, 95)" stroke-opacity="0.17197815" stroke-linecap="round" stroke-linejoin="round"/>
    <path d="M 94.64932250976562 196.45240783691406 C 102.0215072631836 223.78744506835938 90.21961212158203 267.33154296875 92.44634246826172 191.75433349609375 C 70.98011016845703 166.44219970703125 68.33843231201172 165.5072021484375 77.04751586914062 242.78773498535156 C 89.6217269897461 115.73509979248047 33.45014572143555 177.1602325439453 83.61800384521484 129.4043426513672 C 87.92472076416016 153.26438903808594 88.36923217773438 159.4370880126953 94.64932250976562 196.45240783691406" stroke-width="0.0" fill="rgb(234, 224, 200)" opacity="0.8292654" stroke="rgb(147, 44, 240)" stroke-opacity="0.9358599" stroke-linecap="round" stroke-linejoin="round"/>
    <path d="M 183.05078125 456.8077087402344 C 162.91978454589844 472.7225341796875 164.1543731689453 476.99835205078125 134.33587646484375 470.60693359375 C 119.73401641845703 468.3751220703125 141.13821411132812 490.4213562011719 115.21739959716797 463.37158203125 C 154.7821044921875 461.3054504394531 145.57826232910156 467.19195556640625 145.77267456054688 456.2378845214844 C 161.654541015625 456.8171691894531 169.60374450683594 456.002685546875 183.05078125 456.8077087402344" stroke-width="0.0" fill="rgb(31, 49, 54)" opacity="0.7893732" stroke="rgb(36, 181, 223)" stroke-opacity="0.35724273" stroke-linecap="round" stroke-linejoin="round"/>
    <path d="M 506.36773681640625 296.0678405761719 C 505.9090270996094 375.1143493652344 508.3074951171875 354.4043884277344 499.4923400878906 357.50592041015625 C 499.78570556640625 328.33135986328125 499.6028747558594 300.37945556640625 499.6182556152344 223.09066772460938 C 499.976318359375 124.01044464111328 498.24859619140625 126.07897186279297 506.45556640625 152.54942321777344 C 506.18792724609375 227.6956787109375 505.6242980957031 253.08323669433594 506.36773681640625 296.0678405761719" stroke-width="0.0" fill="rgb(106, 42, 0)" opacity="0.5573873" stroke="rgb(173, 251, 1)" stroke-opacity="0.6140222" stroke-linecap="round" stroke-linejoin="round"/>
    <path d="M 108.00675964355469 448.00146484375 C 107.3077621459961 469.7542419433594 109.92496490478516 464.5534362792969 99.16328430175781 465.6684875488281 C 98.9913330078125 467.2869567871094 99.28410339355469 458.6562194824219 98.26953125 434.5293884277344 C 98.19949340820312 393.4908752441406 96.91011810302734 397.6836853027344 104.38204193115234 405.8759765625 C 105.03556823730469 411.6809387207031 109.55541229248047 415.6683044433594 108.00675964355469 448.00146484375" stroke-width="0.0" fill="rgb(255, 244, 218)" opacity="0.75268245" stroke="rgb(103, 254, 54)" stroke-opacity="0.08779589" stroke-linecap="round" stroke-linejoin="round"/>
    <path d="M 488.1026306152344 184.80865478515625 C 477.06451416015625 184.0157012939453 491.417724609375 212.58482360839844 477.94732666015625 216.8437957763672 C 477.2818603515625 213.76318359375 478.2598876953125 168.4828643798828 477.26446533203125 198.97032165527344 C 479.4171447753906 148.20260620117188 472.68853759765625 170.96206665039062 488.4299621582031 151.46566772460938 C 488.3449401855469 162.1452178955078 488.378173828125 184.69337463378906 488.1026306152344 184.80865478515625" stroke-width="0.0" fill="rgb(97, 77, 63)" opacity="1.0" stroke="rgb(248, 70, 241)" stroke-opacity="0.076941565" stroke-linecap="round" stroke-linejoin="round"/>
    <path d="M 342.1211242675781 454.6628723144531 C 344.25848388671875 460.67401123046875 344.25518798828125 467.98828125 328.09002685546875 463.84844970703125 C 341.4212951660156 463.97088623046875 334.7145690917969 432.2275695800781 337.0362243652344 403.55352783203125 C 329.25048828125 449.3692932128906 336.1079406738281 410.1634826660156 338.62945556640625 399.4732971191406 C 343.1839904785156 398.8597412109375 342.63140869140625 402.5269470214844 342.1211242675781 454.6628723144531" stroke-width="0.0" fill="rgb(36, 49, 55)" opacity="0.8866976" stroke="rgb(69, 153, 91)" stroke-opacity="0.9566011" stroke-linecap="round" stroke-linejoin="round"/>
    <path d="M 267.79547119140625 446.5794677734375 C 270.73297119140625 377.0863952636719 345.5598449707031 376.54022216796875 310.7549743652344 456.033935546875 C 146.74270629882812 449.75091552734375 151.2994384765625 458.7593688964844 228.0823211669922 444.6728210449219 C 229.62228393554688 420.46783447265625 221.1525115966797 402.415771484375 246.19993591308594 395.92010498046875 C 274.1609802246094 400.9300537109375 259.8360595703125 420.02935791015625 267.79547119140625 446.5794677734375" stroke-width="0.0" fill="rgb(168, 128, 97)" opacity="0.62101424" stroke="rgb(98, 40, 151)" stroke-opacity="0.102055706" stroke-linecap="round" stroke-linejoin="round"/>
    <path d="M 216.9920196533203 508.9617004394531 C 217.1454315185547 526.0651245117188 215.29766845703125 519.375 195.54603576660156 528.7763671875 C 184.9847869873047 516.5533447265625 170.38470458984375 503.7472839355469 195.67462158203125 506.5192565917969 C 205.73370361328125 510.38934326171875 207.83055114746094 508.52880859375 204.67831420898438 506.3941955566406 C 193.28036499023438 504.9812927246094 195.04078674316406 509.9311828613281 216.9920196533203 508.9617004394531" stroke-width="0.0" fill="rgb(255, 255, 255)" opacity="0.82184553" stroke="rgb(204, 88, 234)" stroke-opacity="0.64028996" stroke-linecap="round" stroke-linejoin="round"/>
    <path d="M 173.72491455078125 277.2315673828125 C 177.86856079101562 313.5675964355469 181.40380859375 314.4934387207031 186.27459716796875 359.91302490234375 C 112.01116943359375 327.9597473144531 168.85369873046875 378.1391296386719 141.8685760498047 255.21835327148438 C 145.43820190429688 294.0257263183594 154.2338104248047 333.4390869140625 146.0155792236328 275.5834045410156 C 184.49562072753906 276.23541259765625 169.94871520996094 273.19512939453125 173.72491455078125 277.2315673828125" stroke-width="0.0" fill="rgb(70, 81, 82)" opacity="0.90083593" stroke="rgb(2, 192, 194)" stroke-opacity="0.08463064" stroke-linecap="round" stroke-linejoin="round"/>
    <path d="M 86.87953186035156 160.27682495117188 C 89.42124938964844 234.3621368408203 79.79106903076172 173.0563201904297 73.45179748535156 231.64443969726562 C 72.13783264160156 201.98175048828125 72.98268127441406 181.1996307373047 71.8637924194336 163.79196166992188 C 63.29759216308594 153.98631286621094 57.27723693847656 147.69517517089844 76.62482452392578 136.3779754638672 C 84.44343566894531 114.42867279052734 84.51378631591797 124.84323120117188 86.87953186035156 160.27682495117188" stroke-width="0.0" fill="rgb(220, 213, 187)" opacity="0.4801075" stroke="rgb(194, 253, 61)" stroke-opacity="0.018687729" stroke-linecap="round" stroke-linejoin="round"/>
    <path d="M 424.37969970703125 157.22027587890625 C 423.93011474609375 198.06309509277344 426.3070983886719 192.888916015625 414.6158752441406 195.71875 C 406.82049560546875 184.0847930908203 409.6975402832031 189.84658813476562 408.8604431152344 175.3732452392578 C 409.1373291015625 139.12753295898438 402.5345153808594 146.68824768066406 420.410400390625 145.53126525878906 C 420.02496337890625 161.3590087890625 420.5216064453125 155.01458740234375 424.37969970703125 157.22027587890625" stroke-width="0.0" fill="rgb(91, 92, 87)" opacity="0.8704109" stroke="rgb(26, 70, 201)" stroke-opacity="0.64737904" stroke-linecap="round" stroke-linejoin="round"/>
    <path d="M 282.6546936035156 160.75991821289062 C 285.3826599121094 164.70631408691406 279.02203369140625 176.74398803710938 280.6513366699219 164.05169677734375 C 244.4695281982422 120.21381378173828 214.71072387695312 86.22048950195312 269.5924377441406 138.5491180419922 C 269.1930236816406 113.53522491455078 262.7774963378906 117.87254333496094 282.8277282714844 116.99327087402344 C 282.7241516113281 115.80248260498047 282.8557434082031 111.61676788330078 282.6546936035156 160.75991821289062" stroke-width="0.0" fill="rgb(47, 58, 59)" opacity="0.9994866" stroke="rgb(98, 30, 202)" stroke-opacity="0.14113154" stroke-linecap="round" stroke-linejoin="round"/>
    <path d="M 409.43853759765625 211.0217742919922 C 407.007568359375 212.9876251220703 412.79241943359375 212.22462463378906 399.709228515625 211.65228271484375 C 399.0528869628906 213.1390380859375 397.3856506347656 211.67388916015625 399.5530090332031 212.20559692382812 C 399.88653564453125 182.03443908691406 398.439208984375 177.2393035888672 408.9461669921875 176.9027862548828 C 409.24951171875 175.3589324951172 407.76702880859375 167.04470825195312 409.43853759765625 211.0217742919922" stroke-width="0.0" fill="rgb(248, 241, 219)" opacity="0.8960481" stroke="rgb(207, 3, 155)" stroke-opacity="0.21242675" stroke-linecap="round" stroke-linejoin="round"/>
    <path d="M 397.8363952636719 418.18170166015625 C 398.1036071777344 432.4629211425781 398.5410461425781 463.332763671875 397.8121337890625 479.190185546875 C 386.3439025878906 482.8847961425781 390.50665283203125 439.6758728027344 389.38604736328125 428.5932312011719 C 390.03515625 396.92724609375 386.10205078125 408.3815612792969 397.8814697265625 402.6423645019531 C 398.3995361328125 422.6465759277344 398.0419921875 441.57025146484375 397.8363952636719 418.18170166015625" stroke-width="0.0" fill="rgb(29, 28, 27)" opacity="0.8073441" stroke="rgb(136, 139, 173)" stroke-opacity="0.81802" stroke-linecap="round" stroke-linejoin="round"/>
    <path d="M 69.41962432861328 423.9113464355469 C 66.66202545166016 453.8575439453125 80.25164794921875 448.9999694824219 57.081886291503906 449.3538513183594 C 56.854637145996094 451.26318359375 55.700843811035156 442.4169921875 57.132301330566406 444.6417541503906 C 57.53630065917969 411.99725341796875 56.26471710205078 401.9610595703125 56.970863342285156 382.0855712890625 C 77.48619079589844 389.3081970214844 66.70606994628906 376.91119384765625 69.41962432861328 423.9113464355469" stroke-width="0.0" fill="rgb(8, 21, 26)" opacity="0.8738828" stroke="rgb(90, 227, 183)" stroke-opacity="0.5669651" stroke-linecap="round" stroke-linejoin="round"/>
    <path d="M 182.8885498046875 466.31829833984375 C 179.38702392578125 468.752685546875 167.25892639160156 472.155517578125 158.26797485351562 472.0572509765625 C 140.64451599121094 473.7617492675781 147.0771942138672 471.6776123046875 145.0665283203125 463.6887512207031 C 148.57371520996094 456.0531921386719 136.22357177734375 454.2966003417969 180.6218719482422 458.1712951660156 C 264.2100524902344 466.0615234375 170.59193420410156 447.6298522949219 182.8885498046875 466.31829833984375" stroke-width="0.0" fill="rgb(33, 44, 47)" opacity="0.93214047" stroke="rgb(147, 14, 102)" stroke-opacity="0.6863695" stroke-linecap="round" stroke-linejoin="round"/>
    <path d="M 108.48676300048828 383.614013671875 C 108.54791259765625 428.96612548828125 108.6338882446289 439.1449279785156 107.89680480957031 431.37811279296875 C 102.03289794921875 427.54254150390625 106.2153549194336 419.68060302734375 97.7496109008789 409.0050048828125 C 97.80125427246094 388.4769287109375 98.77296447753906 401.1495056152344 105.93138885498047 391.3055725097656 C 109.47372436523438 355.18280029296875 109.01861572265625 310.7580871582031 108.48676300048828 383.614013671875" stroke-width="0.0" fill="rgb(225, 216, 193)" opacity="0.90042156" stroke="rgb(29, 147, 165)" stroke-opacity="0.8935482" stroke-linecap="round" stroke-linejoin="round"/>
    <path d="M 249.84461975097656 356.0895080566406 C 249.06674194335938 394.5810241699219 252.0699462890625 377.6551818847656 242.67556762695312 382.5242004394531 C 239.26998901367188 383.2632141113281 244.3667755126953 374.387939453125 242.7594451904297 383.4122619628906 C 242.48526000976562 370.5979309082031 242.11387634277344 346.79901123046875 243.3566436767578 355.97674560546875 C 242.67283630371094 349.728759765625 248.96237182617188 349.418701171875 249.84461975097656 356.0895080566406" stroke-width="0.0" fill="rgb(25, 40, 46)" opacity="0.898811" stroke="rgb(116, 138, 252)" stroke-opacity="0.89372736" stroke-linecap="round" stroke-linejoin="round"/>
    <path d="M 257.3968505859375 429.6321105957031 C 256.1822204589844 451.20367431640625 263.9906005859375 444.4479064941406 235.13336181640625 445.8126525878906 C 235.2914581298828 439.1685791015625 235.3838348388672 436.7666015625 235.22422790527344 421.0730285644531 C 234.5688934326172 411.5036926269531 238.6023712158203 407.2939453125 247.4999237060547 405.841064453125 C 257.457763671875 410.92877197265625 258.0992126464844 410.7562255859375 257.3968505859375 429.6321105957031" stroke-width="0.0" fill="rgb(18, 32, 36)" opacity="0.87482864" stroke="rgb(145, 203, 0)" stroke-opacity="0.8468612" stroke-linecap="round" stroke-linejoin="round"/>
    <path d="M 180.95375061035156 402.31243896484375 C 184.70982360839844 427.8404846191406 179.30783081054688 405.88568115234375 149.1260528564453 404.2591857910156 C 124.53988647460938 411.8551330566406 106.96797943115234 386.59381103515625 118.14997100830078 399.0782775878906 C 118.50896453857422 358.0316467285156 121.45490264892578 364.7477722167969 109.38729095458984 362.8035888671875 C 130.83885192871094 365.7998046875 135.54458618164062 374.3197326660156 180.95375061035156 402.31243896484375" stroke-width="0.0" fill="rgb(184, 176, 158)" opacity="0.7448486" stroke="rgb(45, 210, 63)" stroke-opacity="0.9616744" stroke-linecap="round" stroke-linejoin="round"/>
    <path d="M 519.8404541015625 22.977880477905273 C 522.9111328125 29.03734588623047 507.7765197753906 23.28005027770996 434.3394775390625 26.41119956970215 C 521.5038452148438 25.592483520507812 504.7411804199219 30.93138313293457 507.1266784667969 10.84804630279541 C 506.2325134277344 11.649903297424316 519.498046875 9.116111755371094 516.4612426757812 16.068378448486328 C 514.786865234375 18.648826599121094 519.19921875 13.975044250488281 519.8404541015625 22.977880477905273" stroke-width="0.0" fill="rgb(255, 255, 255)" opacity="0.7381273" stroke="rgb(182, 60, 28)" stroke-opacity="0.18666263" stroke-linecap="round" stroke-linejoin="round"/>
    <path d="M 238.1074676513672 5.554898262023926 C 180.52566528320312 6.8353095054626465 184.54457092285156 4.818082332611084 183.75921630859375 4.653128147125244 C 193.89039611816406 6.6707563400268555 188.06155395507812 5.795767784118652 172.92811584472656 5.877702236175537 C 174.55126953125 -9.037015914916992 181.10897827148438 -8.574358940124512 191.36073303222656 -11.7634916305542 C 196.4104461669922 -6.912919521331787 205.1342315673828 -25.597715377807617 238.1074676513672 5.554898262023926" stroke-width="0.0" fill="rgb(253, 244, 255)" opacity="0.7337872" stroke="rgb(121, 207, 115)" stroke-opacity="0.06405974" stroke-linecap="round" stroke-linejoin="round"/>
    <path d="M 0.7532094120979309 41.6430778503418 C 0.6946666240692139 42.19521713256836 1.1538647413253784 42.03531265258789 2.6677536964416504 42.601531982421875 C 1.756272554397583 41.78544235229492 -3.258791923522949 42.6081657409668 -10.100057601928711 42.41876220703125 C -5.484325885772705 36.13425064086914 -3.222390651702881 33.37290954589844 -8.542570114135742 41.97530746459961 C -8.295823097229004 48.06007766723633 -5.29164457321167 47.307708740234375 0.7532094120979309 41.6430778503418" stroke-width="0.0" fill="rgb(255, 255, 255)" opacity="0.6702483" stroke="rgb(235, 221, 78)" stroke-opacity="0.10659619" stroke-linecap="round" stroke-linejoin="round"/>
    <path d="M 338.945556640625 7.0443806648254395 C 341.823974609375 6.618265628814697 327.6676330566406 6.829501152038574 322.4254150390625 6.908255577087402 C 300.6084289550781 6.768347263336182 311.2501525878906 6.906336784362793 307.9574279785156 7.034083366394043 C 306.7583923339844 -0.8008601665496826 309.1251220703125 -6.4738264083862305 309.4600830078125 -10.578827857971191 C 333.15521240234375 -18.905820846557617 339.6957702636719 -23.623348236083984 338.945556640625 7.0443806648254395" stroke-width="0.0" fill="rgb(255, 255, 255)" opacity="0.45917836" stroke="rgb(89, 39, 230)" stroke-opacity="0.7417343" stroke-linecap="round" stroke-linejoin="round"/>
    <path d="M 523.5694580078125 287.28106689453125 C 522.1797485351562 297.5775146484375 522.3482055664062 298.0484313964844 507.4425048828125 298.0647277832031 C 504.5037841796875 298.4705505371094 509.7830810546875 284.7049255371094 511.66217041015625 287.39031982421875 C 509.86212158203125 285.14404296875 505.9200134277344 275.8330383300781 507.83258056640625 278.1228942871094 C 520.2196044921875 277.4329528808594 517.8017578125 280.9908752441406 523.5694580078125 287.28106689453125" stroke-width="0.0" fill="rgb(255, 255, 255)" opacity="0.81217515" stroke="rgb(99, 94, 80)" stroke-opacity="0.5817471" stroke-linecap="round" stroke-linejoin="round"/>
    <path d="M 237.9129180908203 6.65873908996582 C 231.3922882080078 6.641210079193115 213.4938507080078 6.891772747039795 163.58758544921875 6.248116493225098 C 227.32115173339844 8.3511962890625 169.84161376953125 7.16874885559082 137.50660705566406 7.656888008117676 C 153.997802734375 -24.391387939453125 173.44155883789062 -11.24905014038086 188.3675994873047 -11.177241325378418 C 220.53367614746094 -8.461333274841309 240.0294952392578 -31.574644088745117 237.9129180908203 6.65873908996582" stroke-width="0.0" fill="rgb(252, 255, 255)" opacity="0.7297263" stroke="rgb(43, 109, 219)" stroke-opacity="0.16951431" stroke-linecap="round" stroke-linejoin="round"/>
    <path d="M 238.66847229003906 184.28489685058594 C 237.42271423339844 239.02760314941406 240.85496520996094 218.02188110351562 233.57960510253906 221.666015625 C 232.05162048339844 229.92185974121094 232.20838928222656 214.33981323242188 232.0934295654297 200.91677856445312 C 232.79788208007812 188.2999725341797 231.17002868652344 182.0981903076172 234.92103576660156 181.6071319580078 C 238.99142456054688 180.44924926757812 238.7166290283203 190.1422576904297 238.66847229003906 184.28489685058594" stroke-width="0.0" fill="rgb(28, 37, 40)" opacity="0.97429156" stroke="rgb(36, 189, 98)" stroke-opacity="0.64944583" stroke-linecap="round" stroke-linejoin="round"/>
    <path d="M 270.1953430175781 103.51294708251953 C 269.9751892089844 126.337646484375 267.5037841796875 127.55828857421875 269.6144104003906 144.13784790039062 C 247.83384704589844 119.34272766113281 247.602783203125 116.55805969238281 237.27294921875 98.20697784423828 C 243.93966674804688 98.29293060302734 246.49334716796875 96.5409164428711 259.9278259277344 96.76506042480469 C 262.2466125488281 101.52742767333984 266.3065490722656 101.3437271118164 270.1953430175781 103.51294708251953" stroke-width="0.0" fill="rgb(133, 140, 137)" opacity="1.0" stroke="rgb(167, 30, 129)" stroke-opacity="0.7544262" stroke-linecap="round" stroke-linejoin="round"/>
    <path d="M 174.69442749023438 320.822265625 C 173.7873077392578 316.97686767578125 161.837890625 346.1754455566406 183.1179962158203 376.2775573730469 C 131.4431915283203 351.4300537109375 171.5349884033203 341.1585693359375 168.4246368408203 351.66351318359375 C 170.0757293701172 306.1714172363281 168.10287475585938 293.254638671875 170.4779815673828 292.4427795410156 C 173.0884246826172 311.6285095214844 175.52743530273438 321.2152404785156 174.69442749023438 320.822265625" stroke-width="0.0" fill="rgb(194, 154, 119)" opacity="1.0" stroke="rgb(90, 58, 107)" stroke-opacity="0.9325063" stroke-linecap="round" stroke-linejoin="round"/>
    <path d="M 444.92376708984375 440.7822265625 C 449.4380187988281 448.668212890625 450.7799987792969 449.6890563964844 440.645263671875 448.2618103027344 C 432.3766174316406 450.5396423339844 440.05322265625 437.748046875 439.6098937988281 446.0158386230469 C 438.27410888671875 424.3859558105469 440.02386474609375 409.194091796875 440.1089782714844 406.6324157714844 C 444.80230712890625 422.1923828125 446.51776123046875 426.6097412109375 444.92376708984375 440.7822265625" stroke-width="0.0" fill="rgb(24, 34, 41)" opacity="0.9844998" stroke="rgb(249, 107, 93)" stroke-opacity="0.8514005" stroke-linecap="round" stroke-linejoin="round"/>
    <path d="M 219.52259826660156 466.8522033691406 C 174.32815551757812 494.1739196777344 153.4031524658203 502.85003662109375 149.0366668701172 506.07012939453125 C 117.44097900390625 505.9569091796875 116.94295501708984 504.93896484375 133.96693420410156 505.4564514160156 C 156.12969970703125 493.7892150878906 172.7804718017578 489.47882080078125 148.6796417236328 496.7274169921875 C 174.20448303222656 489.0857849121094 224.18051147460938 458.3162841796875 219.52259826660156 466.8522033691406" stroke-width="0.0" fill="rgb(25, 34, 37)" opacity="0.9331792" stroke="rgb(251, 45, 196)" stroke-opacity="0.45200709" stroke-linecap="round" stroke-linejoin="round"/>
    <path d="M 488.41192626953125 300.6629333496094 C 484.3221740722656 342.5139465332031 498.0025939941406 329.08465576171875 476.0975341796875 339.2550354003906 C 479.1295471191406 338.075439453125 476.95648193359375 306.0140380859375 477.67864990234375 326.1259765625 C 477.6391296386719 281.46856689453125 477.32757568359375 272.1223449707031 478.3977355957031 276.13824462890625 C 491.90496826171875 268.7474060058594 488.0394287109375 261.6152648925781 488.41192626953125 300.6629333496094" stroke-width="0.0" fill="rgb(41, 13, 1)" opacity="0.6373614" stroke="rgb(1, 61, 124)" stroke-opacity="0.8631099" stroke-linecap="round" stroke-linejoin="round"/>
    <path d="M 238.86441040039062 130.5087432861328 C 234.45681762695312 136.22018432617188 231.9829559326172 139.34242248535156 225.29954528808594 147.22434997558594 C 205.00311279296875 173.12777709960938 206.0672149658203 160.9808807373047 227.38771057128906 138.8706512451172 C 229.344970703125 135.2912139892578 232.72262573242188 133.15786743164062 236.9257354736328 126.69962310791016 C 256.0557556152344 104.9842529296875 258.6231689453125 108.56609344482422 238.86441040039062 130.5087432861328" stroke-width="0.0" fill="rgb(17, 30, 36)" opacity="0.95459133" stroke="rgb(186, 46, 26)" stroke-opacity="0.42817304" stroke-linecap="round" stroke-linejoin="round"/>
    <path d="M 488.6332092285156 329.8982238769531 C 485.3414611816406 318.8037109375 494.90081787109375 337.0147399902344 485.5391540527344 334.4250183105469 C 472.4405212402344 342.94354248046875 472.68548583984375 332.1943359375 483.767578125 331.212890625 C 484.7969055175781 307.23443603515625 481.3655090332031 296.8805236816406 486.8248291015625 299.3517761230469 C 489.4177551269531 292.33929443359375 487.5389404296875 319.27789306640625 488.6332092285156 329.8982238769531" stroke-width="0.0" fill="rgb(0, 12, 24)" opacity="0.7398883" stroke="rgb(124, 129, 73)" stroke-opacity="0.9738502" stroke-linecap="round" stroke-linejoin="round"/>
    <path d="M 269.8424377441406 101.02458190917969 C 270.4726257324219 140.58306884765625 264.1314697265625 122.8796157836914 249.2063446044922 119.76123046875 C 239.56626892089844 109.9253921508789 248.46865844726562 107.64817810058594 243.8182373046875 98.18270874023438 C 242.5067901611328 78.54385375976562 248.50938415527344 71.16653442382812 244.98941040039062 77.41847229003906 C 258.75128173828125 89.76457977294922 262.05718994140625 93.23980712890625 269.8424377441406 101.02458190917969" stroke-width="0.0" fill="rgb(113, 118, 110)" opacity="1.0" stroke="rgb(15, 240, 1)" stroke-opacity="0.42408478" stroke-linecap="round" stroke-linejoin="round"/>
    <path d="M 454.2273864746094 368.4021301269531 C 432.32177734375 373.94329833984375 425.8681640625 376.61358642578125 423.37030029296875 377.09100341796875 C 412.2023620605469 380.05865478515625 407.16888427734375 384.9913330078125 402.4079284667969 377.9831237792969 C 420.8555603027344 370.86749267578125 432.6739196777344 367.61016845703125 434.6050109863281 366.51666259765625 C 445.09014892578125 364.2114562988281 456.126708984375 357.99859619140625 454.2273864746094 368.4021301269531" stroke-width="0.0" fill="rgb(134, 51, 0)" opacity="0.36792564" stroke="rgb(243, 223, 138)" stroke-opacity="0.5043944" stroke-linecap="round" stroke-linejoin="round"/>
    <path d="M 448.26605224609375 343.1202392578125 C 453.259765625 340.74859619140625 457.7838439941406 339.6558532714844 436.8042297363281 347.5835876464844 C 433.85791015625 342.38446044921875 442.0674133300781 341.3058166503906 448.1498107910156 338.1744384765625 C 448.0557556152344 339.0047607421875 446.2398376464844 317.4840087890625 442.5547180175781 311.32427978515625 C 445.4936828613281 318.5307312011719 447.48828125 327.4747314453125 448.26605224609375 343.1202392578125" stroke-width="0.0" fill="rgb(32, 39, 44)" opacity="0.9280824" stroke="rgb(86, 203, 139)" stroke-opacity="0.46754593" stroke-linecap="round" stroke-linejoin="round"/>
    <path d="M 221.57632446289062 143.77586364746094 C 225.26876831054688 155.7583465576172 212.30740356445312 157.54415893554688 210.0608673095703 169.5524444580078 C 206.70675659179688 155.38502502441406 211.6910400390625 175.388427734375 209.4302978515625 127.74681091308594 C 210.3987579345703 115.25468444824219 206.72470092773438 116.51583099365234 216.5059051513672 117.34252166748047 C 221.19906616210938 118.18566131591797 223.169677734375 109.48248291015625 221.57632446289062 143.77586364746094" stroke-width="0.0" fill="rgb(30, 43, 46)" opacity="0.9111894" stroke="rgb(82, 76, 120)" stroke-opacity="0.52139014" stroke-linecap="round" stroke-linejoin="round"/>
    <path d="M 129.6233673095703 325.57025146484375 C 129.0880584716797 342.6898193359375 129.41954040527344 375.4231262207031 128.81056213378906 376.7301330566406 C 122.50152587890625 365.3645324707031 122.22164154052734 353.0389099121094 123.49994659423828 365.3361511230469 C 122.82086181640625 349.46697998046875 123.62830352783203 325.78289794921875 122.9314193725586 314.4228515625 C 131.72421264648438 321.2379455566406 128.65176391601562 355.6741943359375 129.6233673095703 325.57025146484375" stroke-width="0.0" fill="rgb(157, 155, 142)" opacity="1.0" stroke="rgb(118, 35, 107)" stroke-opacity="0.2756936" stroke-linecap="round" stroke-linejoin="round"/>
    <path d="M 289.379638671875 456.9199523925781 C 356.790283203125 454.3895263671875 364.7751159667969 462.6163024902344 216.05052185058594 459.45111083984375 C 182.70986938476562 458.0993957519531 221.10426330566406 457.8062438964844 281.3429870605469 457.419921875 C 279.1217346191406 425.47283935546875 282.4170227050781 429.12457275390625 285.66455078125 427.3337707519531 C 290.2713317871094 428.7236022949219 290.1516418457031 424.8497619628906 289.379638671875 456.9199523925781" stroke-width="0.0" fill="rgb(0, 17, 30)" opacity="0.7049131" stroke="rgb(224, 200, 56)" stroke-opacity="0.14756705" stroke-linecap="round" stroke-linejoin="round"/>
    <path d="M 467.601806640625 424.7383728027344 C 467.84942626953125 435.4050598144531 467.212646484375 442.99444580078125 467.79669189453125 451.3412780761719 C 453.8266906738281 449.662109375 458.4685363769531 458.955810546875 457.6667785644531 426.11224365234375 C 457.9157409667969 386.9273681640625 456.2709045410156 400.6764221191406 467.4817810058594 394.82147216796875 C 468.01483154296875 408.4481506347656 467.16400146484375 414.848388671875 467.601806640625 424.7383728027344" stroke-width="0.0" fill="rgb(43, 32, 27)" opacity="0.7928917" stroke="rgb(251, 212, 145)" stroke-opacity="0.7247063" stroke-linecap="round" stroke-linejoin="round"/>
    <path d="M 446.2812194824219 442.04827880859375 C 447.67437744140625 449.5303649902344 454.6080322265625 441.5594177246094 438.0950622558594 444.5576477050781 C 438.6875 443.02197265625 441.3435974121094 425.6747741699219 438.05963134765625 444.65728759765625 C 440.6365661621094 380.5290222167969 433.79296875 396.82305908203125 445.2024841308594 391.6837463378906 C 450.0257568359375 388.4073486328125 448.2267150878906 395.42730712890625 446.2812194824219 442.04827880859375" stroke-width="0.0" fill="rgb(132, 111, 91)" opacity="1.0" stroke="rgb(150, 246, 153)" stroke-opacity="0.76802635" stroke-linecap="round" stroke-linejoin="round"/>
    <path d="M 249.85643005371094 289.0624084472656 C 248.3126678466797 328.1089172363281 252.27862548828125 312.8719787597656 243.61817932128906 315.7870178222656 C 241.5084991455078 321.2279357910156 242.85025024414062 308.2198791503906 242.29779052734375 285.5797119140625 C 244.14198303222656 294.8858642578125 241.10372924804688 282.2867126464844 246.90805053710938 286.3898620605469 C 241.0189666748047 282.072265625 249.98867797851562 285.5298156738281 249.85643005371094 289.0624084472656" stroke-width="0.0" fill="rgb(15, 29, 37)" opacity="0.8660053" stroke="rgb(253, 85, 222)" stroke-opacity="0.93639636" stroke-linecap="round" stroke-linejoin="round"/>
    <path d="M 519.4819946289062 282.3968505859375 C 514.1033325195312 290.4268493652344 512.9251708984375 290.51171875 515.486083984375 285.5729675292969 C 512.5951538085938 286.3434143066406 512.7438354492188 280.9146728515625 506.9695739746094 275.8980407714844 C 507.2107238769531 301.8337097167969 503.8349304199219 295.62896728515625 517.5284423828125 291.20648193359375 C 519.3967895507812 276.0823669433594 519.7117309570312 278.0752868652344 519.4819946289062 282.3968505859375" stroke-width="0.0" fill="rgb(253, 253, 255)" opacity="0.8059551" stroke="rgb(130, 206, 157)" stroke-opacity="0.467302" stroke-linecap="round" stroke-linejoin="round"/>
    <path d="M 61.38832473754883 278.05889892578125 C 60.494873046875 331.9185485839844 63.39191436767578 339.71527099609375 56.8526725769043 334.125732421875 C 56.44974136352539 322.83697509765625 56.70539093017578 307.38800048828125 56.6585807800293 275.8060302734375 C 56.65180969238281 290.191650390625 56.48285675048828 272.48846435546875 56.83125305175781 262.3633117675781 C 71.36251831054688 276.45843505859375 70.09303283691406 271.1781005859375 61.38832473754883 278.05889892578125" stroke-width="0.0" fill="rgb(0, 14, 23)" opacity="0.8470356" stroke="rgb(91, 13, 175)" stroke-opacity="0.45656478" stroke-linecap="round" stroke-linejoin="round"/>
    <path d="M 67.92427825927734 335.6136779785156 C 67.57052612304688 337.58221435546875 70.91310119628906 335.0257568359375 68.36795043945312 341.404052734375 C 53.335208892822266 332.72674560546875 56.05391311645508 335.49237060546875 55.70219802856445 332.38983154296875 C 60.41574478149414 317.22393798828125 62.51457595825195 311.6306457519531 58.05385208129883 309.5883483886719 C 58.3891716003418 322.7432861328125 55.47819900512695 331.910888671875 67.92427825927734 335.6136779785156" stroke-width="0.0" fill="rgb(24, 35, 37)" opacity="0.9569545" stroke="rgb(59, 98, 237)" stroke-opacity="0.00976022" stroke-linecap="round" stroke-linejoin="round"/>
    <path d="M 429.076904296875 329.4679870605469 C 427.2914123535156 358.27880859375 434.8949279785156 346.59100341796875 420.47088623046875 354.8188171386719 C 417.0108947753906 350.38470458984375 429.9345397949219 340.4388732910156 421.64031982421875 348.5863037109375 C 421.4607238769531 307.0856018066406 421.4700012207031 297.5593566894531 421.033203125 299.7488708496094 C 432.30841064453125 296.0774230957031 428.0184326171875 283.7074890136719 429.076904296875 329.4679870605469" stroke-width="0.0" fill="rgb(95, 77, 65)" opacity="0.78722405" stroke="rgb(110, 75, 32)" stroke-opacity="0.084782004" stroke-linecap="round" stroke-linejoin="round"/>
    <path d="M 342.65191650390625 265.5245361328125 C 339.4190368652344 277.4669189453125 344.5460510253906 289.0496520996094 336.9466857910156 288.96624755859375 C 338.24505615234375 284.9222717285156 339.4884948730469 273.70953369140625 337.3759460449219 287.65277099609375 C 338.9212341308594 283.1185607910156 335.2742919921875 260.846435546875 337.7547912597656 264.2926330566406 C 344.3931579589844 257.1134948730469 338.9163818359375 283.9088439941406 342.65191650390625 265.5245361328125" stroke-width="0.0" fill="rgb(38, 39, 37)" opacity="0.7791799" stroke="rgb(56, 138, 192)" stroke-opacity="0.5197914" stroke-linecap="round" stroke-linejoin="round"/>
    <path d="M 328.2232666015625 -3.4950432777404785 C 316.1652526855469 -5.733282089233398 331.6161804199219 -18.485801696777344 338.72357177734375 2.0570764541625977 C 339.3478088378906 9.330113410949707 336.1922912597656 4.328754901885986 288.1546630859375 5.0568742752075195 C 287.3948059082031 -11.51016616821289 293.77716064453125 -8.864445686340332 310.40484619140625 -5.998590469360352 C 327.58319091796875 -6.015131950378418 329.695068359375 -5.769958019256592 328.2232666015625 -3.4950432777404785" stroke-width="0.0" fill="rgb(253, 253, 255)" opacity="0.876833" stroke="rgb(1, 44, 215)" stroke-opacity="0.8147768" stroke-linecap="round" stroke-linejoin="round"/>
    <path d="M 428.8475036621094 437.2103576660156 C 427.6992492675781 448.2998962402344 435.6275634765625 450.09716796875 419.9377136230469 448.3807678222656 C 420.0036926269531 433.99822998046875 422.23919677734375 463.6145935058594 421.43780517578125 412.2989807128906 C 422.9156494140625 390.6799011230469 417.0141296386719 400.3241882324219 428.57012939453125 395.1516418457031 C 429.3503112792969 395.852294921875 429.3375549316406 409.3998718261719 428.8475036621094 437.2103576660156" stroke-width="0.0" fill="rgb(62, 45, 35)" opacity="0.6536423" stroke="rgb(75, 131, 13)" stroke-opacity="0.41385347" stroke-linecap="round" stroke-linejoin="round"/>
    <path d="M 386.7463073730469 283.16351318359375 C 379.7532958984375 299.3969421386719 387.1402587890625 299.1007995605469 379.6785888671875 300.101318359375 C 364.4156188964844 299.90936279296875 364.92095947265625 302.1869201660156 364.1607971191406 294.3469543457031 C 360.75299072265625 295.2818298339844 393.24859619140625 292.3451843261719 367.3547668457031 291.8373107910156 C 377.3254089355469 295.30340576171875 387.23309326171875 286.5672607421875 386.7463073730469 283.16351318359375" stroke-width="0.0" fill="rgb(32, 41, 42)" opacity="0.97167706" stroke="rgb(120, 159, 184)" stroke-opacity="0.060462955" stroke-linecap="round" stroke-linejoin="round"/>
    <path d="M 447.3407897949219 285.55224609375 C 446.9407653808594 320.034423828125 445.810791015625 298.07275390625 447.44427490234375 301.5532531738281 C 446.6529846191406 306.0847473144531 448.2694091796875 297.427734375 445.10589599609375 304.76190185546875 C 449.296875 301.59783935546875 434.1658935546875 291.69305419921875 439.90155029296875 289.4601135253906 C 451.69287109375 283.2288818359375 444.5335693359375 285.4725036621094 447.3407897949219 285.55224609375" stroke-width="0.0" fill="rgb(0, 51, 77)" opacity="1.0" stroke="rgb(60, 41, 138)" stroke-opacity="0.8017594" stroke-linecap="round" stroke-linejoin="round"/>
    <path d="M 69.58147430419922 413.1983947753906 C 68.3084716796875 453.30792236328125 73.96497344970703 443.2445373535156 63.87016296386719 444.5159606933594 C 61.45912551879883 442.6778259277344 62.37483596801758 453.330322265625 62.19886779785156 414.5530090332031 C 63.02846908569336 382.14898681640625 59.673866271972656 397.10955810546875 69.21790313720703 386.4285888671875 C 70.51754760742188 380.268310546875 69.28726959228516 399.14471435546875 69.58147430419922 413.1983947753906" stroke-width="0.0" fill="rgb(168, 159, 140)" opacity="0.8497423" stroke="rgb(60, 220, 41)" stroke-opacity="0.077772014" stroke-linecap="round" stroke-linejoin="round"/>
    <path d="M 68.42390441894531 295.68170166015625 C 67.7161636352539 297.741943359375 68.65293884277344 332.2311706542969 68.43193817138672 336.6880798339844 C 52.811222076416016 330.5976257324219 64.50580596923828 324.78857421875 60.135311126708984 331.71099853515625 C 63.71167755126953 296.9896240234375 55.4837532043457 275.2939453125 67.10256958007812 273.423828125 C 69.52128601074219 261.0155944824219 67.69877624511719 305.9961853027344 68.42390441894531 295.68170166015625" stroke-width="0.0" fill="rgb(89, 86, 76)" opacity="0.5258237" stroke="rgb(37, 16, 225)" stroke-opacity="0.37784496" stroke-linecap="round" stroke-linejoin="round"/>
    <path d="M 220.271240234375 147.00148010253906 C 210.58946228027344 159.31655883789062 209.69557189941406 161.76992797851562 210.0528106689453 158.77906799316406 C 208.69168090820312 166.5872344970703 208.89834594726562 166.75363159179688 209.2115936279297 122.85875701904297 C 209.53353881835938 113.64155578613281 206.15664672851562 117.03267669677734 221.20022583007812 116.50821685791016 C 222.9127960205078 112.96000671386719 223.48670959472656 145.84124755859375 220.271240234375 147.00148010253906" stroke-width="0.0" fill="rgb(93, 107, 103)" opacity="0.7212214" stroke="rgb(48, 98, 113)" stroke-opacity="0.2625796" stroke-linecap="round" stroke-linejoin="round"/>
    <path d="M 427.6961364746094 342.8634033203125 C 428.97015380859375 325.9816589355469 427.2275695800781 329.4158630371094 428.847900390625 345.2829895019531 C 423.2262268066406 351.0221252441406 438.6728820800781 339.8042297363281 418.8173828125 352.0847473144531 C 435.55389404296875 355.6731872558594 425.75933837890625 343.52001953125 428.9814758300781 308.4024353027344 C 426.1603088378906 332.47003173828125 428.28826904296875 341.3505554199219 427.6961364746094 342.8634033203125" stroke-width="0.0" fill="rgb(0, 15, 34)" opacity="0.7331419" stroke="rgb(33, 145, 21)" stroke-opacity="0.47324353" stroke-linecap="round" stroke-linejoin="round"/>
    <path d="M 466.36431884765625 218.56724548339844 C 470.59088134765625 231.9916534423828 472.2185363769531 224.55368041992188 458.7929992675781 237.4126434326172 C 454.5024108886719 236.199462890625 460.05364990234375 245.5322723388672 457.8770446777344 176.1904754638672 C 456.6522521972656 184.96861267089844 461.398193359375 172.23468017578125 462.9783935546875 187.58363342285156 C 468.7989807128906 218.66957092285156 466.8466796875 222.4454345703125 466.36431884765625 218.56724548339844" stroke-width="0.0" fill="rgb(99, 56, 33)" opacity="0.702473" stroke="rgb(206, 202, 163)" stroke-opacity="0.21932912" stroke-linecap="round" stroke-linejoin="round"/>
    <path d="M 447.01861572265625 334.0002746582031 C 444.9477233886719 341.3526916503906 452.18658447265625 337.4830627441406 438.9423522949219 342.369384765625 C 437.9127502441406 340.6809387207031 438.2929992675781 336.3999938964844 437.99334716796875 296.2963562011719 C 438.31732177734375 286.636962890625 435.4954833984375 292.3483581542969 448.52740478515625 284.34356689453125 C 448.3902282714844 292.9626159667969 447.2496032714844 303.2084045410156 447.01861572265625 334.0002746582031" stroke-width="0.0" fill="rgb(79, 32, 1)" opacity="0.4170343" stroke="rgb(104, 68, 30)" stroke-opacity="0.97580314" stroke-linecap="round" stroke-linejoin="round"/>
    <path d="M 330.001220703125 433.7118835449219 C 327.7001037597656 427.4415283203125 336.95660400390625 442.53125 323.0631408691406 435.8258972167969 C 331.17608642578125 433.8286437988281 323.1234130859375 419.6437072753906 326.4654541015625 427.6557312011719 C 326.6517333984375 399.6640625 323.9444274902344 405.78216552734375 330.3914489746094 402.9010314941406 C 329.82965087890625 402.0265808105469 331.5694885253906 426.72613525390625 330.001220703125 433.7118835449219" stroke-width="0.0" fill="rgb(25, 43, 52)" opacity="0.8334072" stroke="rgb(93, 200, 190)" stroke-opacity="0.5272997" stroke-linecap="round" stroke-linejoin="round"/>
    <path d="M 248.8338623046875 183.8505401611328 C 247.60101318359375 232.62770080566406 251.45497131347656 220.24990844726562 242.50076293945312 222.64804077148438 C 242.67361450195312 205.01406860351562 242.78094482421875 185.08609008789062 242.2455291748047 182.99111938476562 C 243.33995056152344 190.01173400878906 241.5994873046875 182.1914520263672 246.1401824951172 180.49192810058594 C 249.34939575195312 182.72962951660156 247.98611450195312 180.9969482421875 248.8338623046875 183.8505401611328" stroke-width="0.0" fill="rgb(7, 20, 31)" opacity="0.87537783" stroke="rgb(222, 18, 234)" stroke-opacity="0.6303207" stroke-linecap="round" stroke-linejoin="round"/>
    <path d="M 223.9056854248047 281.5717468261719 C 215.4755859375 372.4543151855469 231.7663116455078 454.90118408203125 209.74130249023438 454.4432678222656 C 206.7760009765625 237.6708526611328 221.62008666992188 313.0502624511719 164.3518524169922 327.99981689453125 C 248.5896759033203 269.61688232421875 184.61550903320312 242.39630126953125 221.10336303710938 204.8524169921875 C 222.56654357910156 306.4004211425781 219.81871032714844 334.44305419921875 223.9056854248047 281.5717468261719" stroke-width="0.0" fill="rgb(96, 47, 15)" opacity="0.28896242" stroke="rgb(170, 122, 120)" stroke-opacity="0.57095706" stroke-linecap="round" stroke-linejoin="round"/>
    <path d="M 176.2603759765625 328.612548828125 C 161.62060546875 441.0408020019531 199.3423309326172 328.62890625 164.7894287109375 325.1091613769531 C 163.59567260742188 402.4480285644531 150.2873992919922 359.6914367675781 159.64627075195312 341.0094299316406 C 163.93601989746094 322.5890197753906 165.17735290527344 312.4224853515625 169.41366577148438 296.494384765625 C 167.8973388671875 311.4946594238281 174.94058227539062 312.81689453125 176.2603759765625 328.612548828125" stroke-width="0.0" fill="rgb(194, 156, 120)" opacity="1.0" stroke="rgb(216, 223, 165)" stroke-opacity="0.15172467" stroke-linecap="round" stroke-linejoin="round"/>
    <path d="M 85.3133316040039 303.4144287109375 C 85.98267364501953 327.65899658203125 84.08089447021484 343.84283447265625 86.73236083984375 347.2669982910156 C 75.39995574951172 335.93292236328125 80.99327087402344 358.2352600097656 79.2541275024414 300.01885986328125 C 83.28199005126953 306.7659606933594 74.36306762695312 293.599853515625 83.81813049316406 289.7470703125 C 87.63624572753906 283.2743225097656 85.35177612304688 292.1727294921875 85.3133316040039 303.4144287109375" stroke-width="0.0" fill="rgb(149, 145, 129)" opacity="0.93408614" stroke="rgb(241, 66, 190)" stroke-opacity="0.0675554" stroke-linecap="round" stroke-linejoin="round"/>
    <path d="M 259.5251159667969 183.8140106201172 C 259.360107421875 224.6621551513672 259.97149658203125 228.423095703125 258.3514404296875 220.50672912597656 C 249.59637451171875 228.147705078125 255.1769561767578 213.30545043945312 252.9108428955078 192.5904998779297 C 256.1744689941406 212.393310546875 250.37330627441406 180.907470703125 255.60043334960938 181.3848114013672 C 260.6006774902344 180.83935546875 252.0536651611328 176.12754821777344 259.5251159667969 183.8140106201172" stroke-width="0.0" fill="rgb(35, 43, 44)" opacity="0.9985817" stroke="rgb(136, 103, 91)" stroke-opacity="0.8075444" stroke-linecap="round" stroke-linejoin="round"/>
    <path d="M 113.51437377929688 378.8671569824219 C 111.6269302368164 406.8615417480469 116.33779907226562 467.38409423828125 110.1187744140625 478.10455322265625 C 105.72032165527344 450.8804016113281 113.77658081054688 412.2272033691406 109.10356140136719 442.3521423339844 C 109.8408203125 424.7105712890625 108.70899963378906 406.11541748046875 110.93511199951172 332.15283203125 C 116.9532699584961 397.322998046875 108.658935546875 419.34112548828125 113.51437377929688 378.8671569824219" stroke-width="0.0" fill="rgb(19, 32, 41)" opacity="0.9117568" stroke="rgb(27, 129, 12)" stroke-opacity="0.28600055" stroke-linecap="round" stroke-linejoin="round"/>
    <path d="M 93.00421905517578 229.39588928222656 C 90.62020874023438 240.2788848876953 96.13483428955078 245.47845458984375 94.1658935546875 244.6680908203125 C 78.28915405273438 241.5875244140625 91.0802993774414 206.49789428710938 82.46363067626953 234.37957763671875 C 76.60465240478516 232.41531372070312 76.27630615234375 195.55174255371094 92.82295989990234 197.43902587890625 C 92.16995239257812 199.1542510986328 94.40923309326172 234.72828674316406 93.00421905517578 229.39588928222656" stroke-width="0.0" fill="rgb(146, 137, 119)" opacity="1.0" stroke="rgb(159, 97, 33)" stroke-opacity="0.57209045" stroke-linecap="round" stroke-linejoin="round"/>
    <path d="M 468.2801513671875 335.5741271972656 C 467.8258972167969 341.5576171875 473.82568359375 341.13507080078125 455.51068115234375 347.6326599121094 C 458.8417663574219 329.58648681640625 458.8275146484375 364.73681640625 458.45611572265625 304.9364013671875 C 459.4812927246094 282.1600036621094 455.12152099609375 293.43890380859375 468.4767761230469 281.8347473144531 C 467.903076171875 279.2623596191406 468.24554443359375 282.85626220703125 468.2801513671875 335.5741271972656" stroke-width="0.0" fill="rgb(39, 25, 20)" opacity="0.748354" stroke="rgb(174, 165, 246)" stroke-opacity="0.38506618" stroke-linecap="round" stroke-linejoin="round"/>
    <path d="M 422.26568603515625 374.19769287109375 C 404.4100036621094 384.81585693359375 397.9459533691406 384.6148681640625 390.0883483886719 388.0047912597656 C 381.7381286621094 389.91595458984375 382.0810241699219 391.4469909667969 382.7266540527344 385.7636413574219 C 390.4208984375 381.9579162597656 397.20880126953125 380.2406005859375 400.99407958984375 378.63348388671875 C 410.8827209472656 376.5796813964844 425.5967102050781 368.8819885253906 422.26568603515625 374.19769287109375" stroke-width="0.0" fill="rgb(172, 127, 88)" opacity="0.8024419" stroke="rgb(192, 203, 182)" stroke-opacity="0.3227187" stroke-linecap="round" stroke-linejoin="round"/>
    <path d="M 141.92266845703125 446.5951843261719 C 146.0610809326172 445.62158203125 136.0920867919922 448.02685546875 138.12216186523438 445.1922912597656 C 137.9524688720703 417.0457763671875 137.5592041015625 414.8540954589844 137.4632110595703 411.4140930175781 C 138.14346313476562 429.13128662109375 137.9044647216797 425.85675048828125 137.8778533935547 407.07415771484375 C 143.99835205078125 411.86138916015625 140.92417907714844 397.92840576171875 141.92266845703125 446.5951843261719" stroke-width="0.0" fill="rgb(27, 45, 55)" opacity="1.0" stroke="rgb(232, 244, 44)" stroke-opacity="0.959919" stroke-linecap="round" stroke-linejoin="round"/>
    <path d="M 301.0348205566406 427.6562805175781 C 300.7917175292969 442.76910400390625 302.6030578613281 439.16729736328125 296.3724670410156 439.6390380859375 C 296.7989501953125 442.3581237792969 295.2918701171875 429.279541015625 296.56781005859375 442.29150390625 C 295.9576721191406 432.5400085449219 296.1575927734375 423.3595275878906 296.52008056640625 426.58074951171875 C 304.193603515625 426.0543518066406 299.2393798828125 426.8705139160156 301.0348205566406 427.6562805175781" stroke-width="0.0" fill="rgb(36, 41, 41)" opacity="0.97424394" stroke="rgb(43, 51, 114)" stroke-opacity="0.08516638" stroke-linecap="round" stroke-linejoin="round"/>
    <path d="M 221.23341369628906 210.74203491210938 C 214.90916442871094 215.7493896484375 216.8741455078125 215.6536407470703 219.7594757080078 211.01780700683594 C 212.9849090576172 212.6086883544922 207.61119079589844 218.43331909179688 209.5739288330078 205.5464324951172 C 210.4612274169922 212.12171936035156 209.48736572265625 208.94114685058594 209.2950897216797 166.7410430908203 C 228.34356689453125 148.58377075195312 219.99742126464844 169.5497283935547 221.23341369628906 210.74203491210938" stroke-width="0.0" fill="rgb(114, 43, 0)" opacity="0.29435667" stroke="rgb(155, 208, 173)" stroke-opacity="0.9981468" stroke-linecap="round" stroke-linejoin="round"/>
    <path d="M 468.2462463378906 181.08578491210938 C 465.806396484375 233.23634338378906 473.5893859863281 229.15365600585938 455.2145690917969 236.52076721191406 C 470.5512390136719 229.08438110351562 462.8309631347656 171.5911407470703 460.0625305175781 181.86386108398438 C 466.0306701660156 211.87059020996094 458.5672607421875 174.2892608642578 459.3968505859375 179.543701171875 C 471.4536437988281 168.21514892578125 467.5049743652344 168.64352416992188 468.2462463378906 181.08578491210938" stroke-width="0.0" fill="rgb(11, 20, 24)" opacity="0.8620044" stroke="rgb(192, 108, 60)" stroke-opacity="0.93094456" stroke-linecap="round" stroke-linejoin="round"/>
    <path d="M 301.40802001953125 395.97149658203125 C 300.36932373046875 412.2950134277344 302.8414001464844 411.62042236328125 297.6822509765625 411.2110595703125 C 295.9066162109375 414.3139343261719 296.58154296875 402.4447326660156 296.2862854003906 392.513916015625 C 296.44122314453125 406.7032470703125 296.5235290527344 391.8724060058594 296.5086975097656 396.1913757324219 C 306.3485107421875 394.2533874511719 298.1491394042969 398.1392822265625 301.40802001953125 395.97149658203125" stroke-width="0.0" fill="rgb(13, 27, 32)" opacity="0.89180666" stroke="rgb(168, 64, 73)" stroke-opacity="0.72804695" stroke-linecap="round" stroke-linejoin="round"/>
    <path d="M 269.9452819824219 128.7272186279297 C 267.5528259277344 148.11721801757812 275.5002746582031 147.09970092773438 259.5725402832031 130.08517456054688 C 245.4223175048828 109.70938873291016 253.25979614257812 108.57901000976562 225.76637268066406 140.66697692871094 C 216.10984802246094 89.17877197265625 219.68826293945312 109.05438995361328 245.54830932617188 77.4474105834961 C 239.7337646484375 156.67202758789062 269.5397644042969 89.44810485839844 269.9452819824219 128.7272186279297" stroke-width="0.0" fill="rgb(134, 142, 134)" opacity="0.78081363" stroke="rgb(185, 175, 235)" stroke-opacity="0.7470111" stroke-linecap="round" stroke-linejoin="round"/>
    <path d="M 132.40000915527344 190.48553466796875 C 125.1307601928711 216.15927124023438 126.94678497314453 222.62313842773438 114.03582763671875 276.1237487792969 C 111.45672607421875 262.2977600097656 108.16626739501953 236.42076110839844 100.50167083740234 186.93077087402344 C 96.94042205810547 191.9810791015625 104.95158386230469 188.25677490234375 129.1551513671875 190.1565399169922 C 122.04627227783203 190.3740997314453 139.0328826904297 188.48858642578125 132.40000915527344 190.48553466796875" stroke-width="0.0" fill="rgb(102, 114, 111)" opacity="0.89860135" stroke="rgb(179, 92, 250)" stroke-opacity="0.43511152" stroke-linecap="round" stroke-linejoin="round"/>
    <path d="M 129.37477111816406 259.2568054199219 C 130.3367919921875 267.8288269042969 128.49420166015625 272.8302001953125 130.24423217773438 308.85406494140625 C 120.66798400878906 320.6168518066406 129.35292053222656 220.4254150390625 122.34699249267578 283.14031982421875 C 105.57870483398438 310.6407775878906 117.14216613769531 286.2614440917969 128.79624938964844 216.3275146484375 C 136.1972198486328 239.48641967773438 137.46292114257812 271.09197998046875 129.37477111816406 259.2568054199219" stroke-width="0.0" fill="rgb(161, 150, 132)" opacity="0.9404817" stroke="rgb(226, 150, 112)" stroke-opacity="0.9610069" stroke-linecap="round" stroke-linejoin="round"/>
    <path d="M 520.6752319335938 472.7746276855469 C 520.9583129882812 480.543701171875 535.4719848632812 496.971923828125 507.99713134765625 507.5461120605469 C 507.9560852050781 456.8799133300781 508.1188049316406 456.5186767578125 507.9549560546875 454.304443359375 C 511.87786865234375 450.576904296875 509.39752197265625 452.3562316894531 510.489990234375 452.005859375 C 519.3507690429688 451.9960632324219 519.7835083007812 455.8094177246094 520.6752319335938 472.7746276855469" stroke-width="0.0" fill="rgb(255, 255, 255)" opacity="0.87958384" stroke="rgb(44, 39, 104)" stroke-opacity="0.077285334" stroke-linecap="round" stroke-linejoin="round"/>
    <path d="M 365.22320556640625 453.3506164550781 C 363.0036315917969 466.6432800292969 366.259521484375 476.8141784667969 363.2750244140625 476.14227294921875 C 337.4808654785156 470.5778503417969 337.4977111816406 473.64886474609375 342.6076965332031 456.4836730957031 C 336.6986389160156 454.6890869140625 359.280029296875 457.28961181640625 365.6200256347656 457.01788330078125 C 349.29052734375 457.9752502441406 369.8437194824219 458.483154296875 365.22320556640625 453.3506164550781" stroke-width="0.0" fill="rgb(123, 133, 130)" opacity="0.95926595" stroke="rgb(104, 97, 218)" stroke-opacity="0.6884597" stroke-linecap="round" stroke-linejoin="round"/>
    <path d="M 101.48113250732422 341.5196228027344 C 100.3114242553711 362.99737548828125 105.05133056640625 348.4936828613281 103.10395812988281 358.9080810546875 C 90.06187438964844 351.9384765625 93.30363464355469 355.5055236816406 92.96874237060547 345.91436767578125 C 92.8941650390625 307.45751953125 92.3180923461914 291.01666259765625 93.90798950195312 292.9810485839844 C 106.36408233642578 306.5049133300781 97.6442642211914 283.9703674316406 101.48113250732422 341.5196228027344" stroke-width="0.0" fill="rgb(13, 26, 35)" opacity="0.6301493" stroke="rgb(60, 92, 130)" stroke-opacity="0.20384137" stroke-linecap="round" stroke-linejoin="round"/>
    <path d="M 251.20611572265625 90.28955078125 C 251.18563842773438 100.3681411743164 252.6997528076172 78.60609436035156 244.3274383544922 79.70047760009766 C 239.64715576171875 117.89060974121094 239.47244262695312 121.32200622558594 242.02886962890625 98.36782836914062 C 248.59475708007812 59.867279052734375 239.1719970703125 29.79569435119629 247.30184936523438 37.389278411865234 C 246.6548614501953 103.6170654296875 248.48178100585938 70.44780731201172 251.20611572265625 90.28955078125" stroke-width="0.0" fill="rgb(31, 40, 48)" opacity="1.0" stroke="rgb(16, 163, 234)" stroke-opacity="0.8252439" stroke-linecap="round" stroke-linejoin="round"/>
    <path d="M 423.8736267089844 266.583740234375 C 395.06243896484375 287.0635681152344 390.8569030761719 288.611328125 390.0364685058594 289.96588134765625 C 378.5603942871094 296.42852783203125 375.1246032714844 301.2298889160156 379.67864990234375 290.25665283203125 C 388.2259521484375 286.2314758300781 392.5339660644531 281.11981201171875 408.6785888671875 271.2851867675781 C 462.00006103515625 230.27557373046875 457.4002380371094 248.133056640625 423.8736267089844 266.583740234375" stroke-width="0.0" fill="rgb(21, 29, 34)" opacity="0.9269104" stroke="rgb(77, 46, 119)" stroke-opacity="0.9557589" stroke-linecap="round" stroke-linejoin="round"/>
    <path d="M 384.4139404296875 242.41702270507812 C 384.3736267089844 250.44583129882812 387.3999938964844 250.69131469726562 371.5404357910156 250.2542724609375 C 372.9695739746094 247.88230895996094 372.5234680175781 257.6551513671875 372.7066345214844 242.1422576904297 C 371.8411865234375 243.86952209472656 373.8720397949219 242.91619873046875 372.8327331542969 242.4232940673828 C 385.02313232421875 241.88717651367188 383.5871276855469 242.10433959960938 384.4139404296875 242.41702270507812" stroke-width="0.0" fill="rgb(30, 44, 49)" opacity="0.98316795" stroke="rgb(124, 231, 132)" stroke-opacity="0.59570056" stroke-linecap="round" stroke-linejoin="round"/>
    <path d="M 343.4393005371094 360.5250549316406 C 341.5932312011719 339.16949462890625 341.9936828613281 346.737548828125 343.5969543457031 364.92681884765625 C 329.54150390625 372.7645263671875 340.4092712402344 358.63580322265625 338.9066467285156 365.1830749511719 C 341.19805908203125 314.821044921875 334.3061218261719 329.7544860839844 343.04791259765625 322.83978271484375 C 342.7146301269531 337.0299072265625 342.55810546875 345.21319580078125 343.4393005371094 360.5250549316406" stroke-width="0.0" fill="rgb(50, 57, 56)" opacity="0.9876547" stroke="rgb(58, 219, 114)" stroke-opacity="0.6903703" stroke-linecap="round" stroke-linejoin="round"/>
    <path d="M 283.10284423828125 233.33599853515625 C 285.25079345703125 239.8524627685547 283.91253662109375 236.4937744140625 233.0639190673828 237.3668670654297 C 204.8469696044922 235.7808074951172 208.834716796875 238.82528686523438 208.92041015625 233.42640686035156 C 229.98590087890625 233.2954864501953 234.16641235351562 233.664794921875 238.74435424804688 233.83517456054688 C 223.10110473632812 232.99722290039062 228.88211059570312 233.94284057617188 283.10284423828125 233.33599853515625" stroke-width="0.0" fill="rgb(0, 5, 16)" opacity="0.8075541" stroke="rgb(43, 221, 149)" stroke-opacity="0.4609756" stroke-linecap="round" stroke-linejoin="round"/>
    <path d="M 7.0 39.0 C 6.330127239227295 41.5 4.5 43.33012771606445 2.0 44.0 C -0.5 43.33012771606445 -2.330127000808716 41.5 -3.0 39.0 C -2.330127000808716 36.5 -0.5 34.66987228393555 2.0 34.0 C 4.5 34.66987228393555 6.330127239227295 36.5 7.0 39.0" stroke-width="0.0" fill="rgb(250, 249, 249)" opacity="1.0" stroke="rgb(70, 179, 80)" stroke-opacity="0.2747888" stroke-linecap="round" stroke-linejoin="round"/>
    <path d="M 244.0 509.0 C 243.3301239013672 511.5 241.5 513.3301391601562 239.0 514.0 C 236.5 513.3301391601562 234.6698760986328 511.5 234.0 509.0 C 234.6698760986328 506.5 236.5 504.66986083984375 239.0 504.0 C 241.5 504.66986083984375 243.3301239013672 506.5 244.0 509.0" stroke-width="0.0" fill="rgb(250, 249, 249)" opacity="1.0" stroke="rgb(243, 126, 82)" stroke-opacity="0.38421065" stroke-linecap="round" stroke-linejoin="round"/>
    <path d="M 235.0 507.0 C 234.3301239013672 509.5 232.5 511.33013916015625 230.0 512.0 C 227.5 511.33013916015625 225.6698760986328 509.5 225.0 507.0 C 225.6698760986328 504.5 227.5 502.66986083984375 230.0 502.0 C 232.5 502.66986083984375 234.3301239013672 504.5 235.0 507.0" stroke-width="0.0" fill="rgb(254, 252, 253)" opacity="1.0" stroke="rgb(153, 139, 42)" stroke-opacity="0.37107986" stroke-linecap="round" stroke-linejoin="round"/>
    <path d="M 309.0 496.0 C 308.33013916015625 498.5 306.5 500.33013916015625 304.0 501.0 C 301.5 500.33013916015625 299.66986083984375 498.5 299.0 496.0 C 299.66986083984375 493.5 301.5 491.66986083984375 304.0 491.0 C 306.5 491.66986083984375 308.33013916015625 493.5 309.0 496.0" stroke-width="0.0" fill="rgb(166, 152, 134)" opacity="1.0" stroke="rgb(124, 167, 121)" stroke-opacity="0.38030282" stroke-linecap="round" stroke-linejoin="round"/>
    <path d="M 417.0 227.0 C 416.33013916015625 229.5 414.5 231.3301239013672 412.0 232.0 C 409.5 231.3301239013672 407.66986083984375 229.5 407.0 227.0 C 407.66986083984375 224.5 409.5 222.6698760986328 412.0 222.0 C 414.5 222.6698760986328 416.33013916015625 224.5 417.0 227.0" stroke-width="0.0" fill="rgb(22, 34, 45)" opacity="1.0" stroke="rgb(198, 10, 50)" stroke-opacity="0.04330295" stroke-linecap="round" stroke-linejoin="round"/>
    <path d="M 359.0 337.0 C 358.33013916015625 339.5 356.5 341.33013916015625 354.0 342.0 C 351.5 341.33013916015625 349.66986083984375 339.5 349.0 337.0 C 349.66986083984375 334.5 351.5 332.66986083984375 354.0 332.0 C 356.5 332.66986083984375 358.33013916015625 334.5 359.0 337.0" stroke-width="0.0" fill="rgb(33, 45, 51)" opacity="1.0" stroke="rgb(14, 65, 141)" stroke-opacity="0.73380655" stroke-linecap="round" stroke-linejoin="round"/>
    <path d="M 490.0 285.0 C 489.33013916015625 287.5 487.5 289.33013916015625 485.0 290.0 C 482.5 289.33013916015625 480.66986083984375 287.5 480.0 285.0 C 480.66986083984375 282.5 482.5 280.66986083984375 485.0 280.0 C 487.5 280.66986083984375 489.33013916015625 282.5 490.0 285.0" stroke-width="0.0" fill="rgb(20, 31, 33)" opacity="1.0" stroke="rgb(191, 103, 141)" stroke-opacity="0.6879104" stroke-linecap="round" stroke-linejoin="round"/>
    <path d="M 344.0 215.0 C 343.33013916015625 217.5 341.5 219.3301239013672 339.0 220.0 C 336.5 219.3301239013672 334.66986083984375 217.5 334.0 215.0 C 334.66986083984375 212.5 336.5 210.6698760986328 339.0 210.0 C 341.5 210.6698760986328 343.33013916015625 212.5 344.0 215.0" stroke-width="0.0" fill="rgb(33, 49, 55)" opacity="1.0" stroke="rgb(56, 218, 147)" stroke-opacity="0.83432096" stroke-linecap="round" stroke-linejoin="round"/>
    <path d="M 441.0 487.0 C 440.33013916015625 489.5 438.5 491.33013916015625 436.0 492.0 C 433.5 491.33013916015625 431.66986083984375 489.5 431.0 487.0 C 431.66986083984375 484.5 433.5 482.66986083984375 436.0 482.0 C 438.5 482.66986083984375 440.33013916015625 484.5 441.0 487.0" stroke-width="0.0" fill="rgb(150, 108, 77)" opacity="1.0" stroke="rgb(101, 175, 240)" stroke-opacity="0.8498838" stroke-linecap="round" stroke-linejoin="round"/>
    <path d="M 498.0 495.0 C 497.33013916015625 497.5 495.5 499.33013916015625 493.0 500.0 C 490.5 499.33013916015625 488.66986083984375 497.5 488.0 495.0 C 488.66986083984375 492.5 490.5 490.66986083984375 493.0 490.0 C 495.5 490.66986083984375 497.33013916015625 492.5 498.0 495.0" stroke-width="0.0" fill="rgb(93, 110, 111)" opacity="1.0" stroke="rgb(171, 253, 176)" stroke-opacity="0.1753389" stroke-linecap="round" stroke-linejoin="round"/>
    <path d="M 513.0 438.0 C 512.3301391601562 440.5 510.5 442.33013916015625 508.0 443.0 C 505.5 442.33013916015625 503.66986083984375 440.5 503.0 438.0 C 503.66986083984375 435.5 505.5 433.66986083984375 508.0 433.0 C 510.5 433.66986083984375 512.3301391601562 435.5 513.0 438.0" stroke-width="0.0" fill="rgb(251, 250, 250)" opacity="1.0" stroke="rgb(3, 93, 167)" stroke-opacity="0.9523206" stroke-linecap="round" stroke-linejoin="round"/>
    <path d="M 490.0 161.0 C 489.33013916015625 163.5 487.5 165.3301239013672 485.0 166.0 C 482.5 165.3301239013672 480.66986083984375 163.5 480.0 161.0 C 480.66986083984375 158.5 482.5 156.6698760986328 485.0 156.0 C 487.5 156.6698760986328 489.33013916015625 158.5 490.0 161.0" stroke-width="0.0" fill="rgb(26, 36, 36)" opacity="1.0" stroke="rgb(193, 235, 122)" stroke-opacity="0.6779035" stroke-linecap="round" stroke-linejoin="round"/>
    <path d="M 281.0 198.0 C 280.33013916015625 200.5 278.5 202.3301239013672 276.0 203.0 C 273.5 202.3301239013672 271.66986083984375 200.5 271.0 198.0 C 271.66986083984375 195.5 273.5 193.6698760986328 276.0 193.0 C 278.5 193.6698760986328 280.33013916015625 195.5 281.0 198.0" stroke-width="0.0" fill="rgb(181, 147, 117)" opacity="1.0" stroke="rgb(166, 32, 247)" stroke-opacity="0.7083046" stroke-linecap="round" stroke-linejoin="round"/>
    <path d="M 298.0 499.0 C 297.33013916015625 501.5 295.5 503.33013916015625 293.0 504.0 C 290.5 503.33013916015625 288.66986083984375 501.5 288.0 499.0 C 288.66986083984375 496.5 290.5 494.66986083984375 293.0 494.0 C 295.5 494.66986083984375 297.33013916015625 496.5 298.0 499.0" stroke-width="0.0" fill="rgb(144, 139, 128)" opacity="1.0" stroke="rgb(254, 181, 53)" stroke-opacity="0.42497075" stroke-linecap="round" stroke-linejoin="round"/>
    <path d="M 10.0 33.0 C 9.330126762390137 35.5 7.5 37.33012771606445 5.0 38.0 C 2.5 37.33012771606445 0.6698729991912842 35.5 0.0 33.0 C 0.6698729991912842 30.5 2.5 28.669872283935547 5.0 28.0 C 7.5 28.669872283935547 9.330126762390137 30.5 10.0 33.0" stroke-width="0.0" fill="rgb(251, 250, 251)" opacity="1.0" stroke="rgb(2, 200, 245)" stroke-opacity="0.4081871" stroke-linecap="round" stroke-linejoin="round"/>
    <path d="M 495.0 5.0 C 494.33013916015625 7.5 492.5 9.330126762390137 490.0 10.0 C 487.5 9.330126762390137 485.66986083984375 7.5 485.0 5.0 C 485.66986083984375 2.5 487.5 0.6698729991912842 490.0 0.0 C 492.5 0.6698729991912842 494.33013916015625 2.5 495.0 5.0" stroke-width="0.0" fill="rgb(253, 252, 252)" opacity="1.0" stroke="rgb(248, 237, 111)" stroke-opacity="0.9848412" stroke-linecap="round" stroke-linejoin="round"/>
    <path d="M 118.0 481.0 C 117.33012390136719 483.5 115.5 485.33013916015625 113.0 486.0 C 110.5 485.33013916015625 108.66987609863281 483.5 108.0 481.0 C 108.66987609863281 478.5 110.5 476.66986083984375 113.0 476.0 C 115.5 476.66986083984375 117.33012390136719 478.5 118.0 481.0" stroke-width="0.0" fill="rgb(201, 186, 158)" opacity="1.0" stroke="rgb(184, 124, 122)" stroke-opacity="0.77763593" stroke-linecap="round" stroke-linejoin="round"/>
    <path d="M 281.0 183.0 C 280.33013916015625 185.5 278.5 187.3301239013672 276.0 188.0 C 273.5 187.3301239013672 271.66986083984375 185.5 271.0 183.0 C 271.66986083984375 180.5 273.5 178.6698760986328 276.0 178.0 C 278.5 178.6698760986328 280.33013916015625 180.5 281.0 183.0" stroke-width="0.0" fill="rgb(182, 150, 121)" opacity="1.0" stroke="rgb(242, 73, 227)" stroke-opacity="0.74413574" stroke-linecap="round" stroke-linejoin="round"/>
    <path d="M 168.0 378.0 C 167.3301239013672 380.5 165.5 382.33013916015625 163.0 383.0 C 160.5 382.33013916015625 158.6698760986328 380.5 158.0 378.0 C 158.6698760986328 375.5 160.5 373.66986083984375 163.0 373.0 C 165.5 373.66986083984375 167.3301239013672 375.5 168.0 378.0" stroke-width="0.0" fill="rgb(14, 31, 42)" opacity="1.0" stroke="rgb(63, 97, 156)" stroke-opacity="0.78407496" stroke-linecap="round" stroke-linejoin="round"/>
    <path d="M 103.0 328.0 C 102.33012390136719 330.5 100.5 332.33013916015625 98.0 333.0 C 95.5 332.33013916015625 93.66987609863281 330.5 93.0 328.0 C 93.66987609863281 325.5 95.5 323.66986083984375 98.0 323.0 C 100.5 323.66986083984375 102.33012390136719 325.5 103.0 328.0" stroke-width="0.0" fill="rgb(151, 147, 127)" opacity="1.0" stroke="rgb(221, 77, 83)" stroke-opacity="0.2972426" stroke-linecap="round" stroke-linejoin="round"/>
    <path d="M 395.0 338.0 C 394.33013916015625 340.5 392.5 342.33013916015625 390.0 343.0 C 387.5 342.33013916015625 385.66986083984375 340.5 385.0 338.0 C 385.66986083984375 335.5 387.5 333.66986083984375 390.0 333.0 C 392.5 333.66986083984375 394.33013916015625 335.5 395.0 338.0" stroke-width="0.0" fill="rgb(172, 142, 116)" opacity="1.0" stroke="rgb(30, 1, 98)" stroke-opacity="0.28553742" stroke-linecap="round" stroke-linejoin="round"/>
    <path d="M 127.0 423.0 C 126.33012390136719 425.5 124.5 427.33013916015625 122.0 428.0 C 119.5 427.33013916015625 117.66987609863281 425.5 117.0 423.0 C 117.66987609863281 420.5 119.5 418.66986083984375 122.0 418.0 C 124.5 418.66986083984375 126.33012390136719 420.5 127.0 423.0" stroke-width="0.0" fill="rgb(43, 51, 60)" opacity="1.0" stroke="rgb(165, 47, 149)" stroke-opacity="0.96111923" stroke-linecap="round" stroke-linejoin="round"/>
    <path d="M 513.0 322.0 C 512.3301391601562 324.5 510.5 326.33013916015625 508.0 327.0 C 505.5 326.33013916015625 503.66986083984375 324.5 503.0 322.0 C 503.66986083984375 319.5 505.5 317.66986083984375 508.0 317.0 C 510.5 317.66986083984375 512.3301391601562 319.5 513.0 322.0" stroke-width="0.0" fill="rgb(251, 250, 250)" opacity="1.0" stroke="rgb(127, 181, 137)" stroke-opacity="0.8301349" stroke-linecap="round" stroke-linejoin="round"/>
    <path d="M 140.0 357.0 C 139.3301239013672 359.5 137.5 361.33013916015625 135.0 362.0 C 132.5 361.33013916015625 130.6698760986328 359.5 130.0 357.0 C 130.6698760986328 354.5 132.5 352.66986083984375 135.0 352.0 C 137.5 352.66986083984375 139.3301239013672 354.5 140.0 357.0" stroke-width="0.0" fill="rgb(169, 165, 155)" opacity="1.0" stroke="rgb(104, 134, 91)" stroke-opacity="0.6713817" stroke-linecap="round" stroke-linejoin="round"/>
    <path d="M 491.0 171.0 C 490.33013916015625 173.5 488.5 175.3301239013672 486.0 176.0 C 483.5 175.3301239013672 481.66986083984375 173.5 481.0 171.0 C 481.66986083984375 168.5 483.5 166.6698760986328 486.0 166.0 C 488.5 166.6698760986328 490.33013916015625 168.5 491.0 171.0" stroke-width="0.0" fill="rgb(19, 32, 35)" opacity="1.0" stroke="rgb(115, 227, 68)" stroke-opacity="0.50937563" stroke-linecap="round" stroke-linejoin="round"/>
    <path d="M 103.0 309.0 C 102.33012390136719 311.5 100.5 313.33013916015625 98.0 314.0 C 95.5 313.33013916015625 93.66987609863281 311.5 93.0 309.0 C 93.66987609863281 306.5 95.5 304.66986083984375 98.0 304.0 C 100.5 304.66986083984375 102.33012390136719 306.5 103.0 309.0" stroke-width="0.0" fill="rgb(149, 146, 130)" opacity="1.0" stroke="rgb(122, 197, 149)" stroke-opacity="0.42619592" stroke-linecap="round" stroke-linejoin="round"/>
    <path d="M 171.0 336.0 C 170.3301239013672 338.5 168.5 340.33013916015625 166.0 341.0 C 163.5 340.33013916015625 161.6698760986328 338.5 161.0 336.0 C 161.6698760986328 333.5 163.5 331.66986083984375 166.0 331.0 C 168.5 331.66986083984375 170.3301239013672 333.5 171.0 336.0" stroke-width="0.0" fill="rgb(16, 21, 22)" opacity="1.0" stroke="rgb(36, 92, 105)" stroke-opacity="0.8392875" stroke-linecap="round" stroke-linejoin="round"/>
    <path d="M 280.0 209.0 C 279.33013916015625 211.5 277.5 213.3301239013672 275.0 214.0 C 272.5 213.3301239013672 270.66986083984375 211.5 270.0 209.0 C 270.66986083984375 206.5 272.5 204.6698760986328 275.0 204.0 C 277.5 204.6698760986328 279.33013916015625 206.5 280.0 209.0" stroke-width="0.0" fill="rgb(174, 141, 109)" opacity="1.0" stroke="rgb(197, 66, 198)" stroke-opacity="0.893129" stroke-linecap="round" stroke-linejoin="round"/>
    <path d="M 359.0 417.0 C 358.33013916015625 419.5 356.5 421.33013916015625 354.0 422.0 C 351.5 421.33013916015625 349.66986083984375 419.5 349.0 417.0 C 349.66986083984375 414.5 351.5 412.66986083984375 354.0 412.0 C 356.5 412.66986083984375 358.33013916015625 414.5 359.0 417.0" stroke-width="0.0" fill="rgb(31, 40, 41)" opacity="1.0" stroke="rgb(252, 154, 97)" stroke-opacity="0.14850833" stroke-linecap="round" stroke-linejoin="round"/>
    <path d="M 172.0 507.0 C 171.3301239013672 509.5 169.5 511.33013916015625 167.0 512.0 C 164.5 511.33013916015625 162.6698760986328 509.5 162.0 507.0 C 162.6698760986328 504.5 164.5 502.66986083984375 167.0 502.0 C 169.5 502.66986083984375 171.3301239013672 504.5 172.0 507.0" stroke-width="0.0" fill="rgb(254, 253, 253)" opacity="1.0" stroke="rgb(103, 218, 66)" stroke-opacity="0.076923646" stroke-linecap="round" stroke-linejoin="round"/>
    <path d="M 281.0 211.0 C 280.33013916015625 213.5 278.5 215.3301239013672 276.0 216.0 C 273.5 215.3301239013672 271.66986083984375 213.5 271.0 211.0 C 271.66986083984375 208.5 273.5 206.6698760986328 276.0 206.0 C 278.5 206.6698760986328 280.33013916015625 208.5 281.0 211.0" stroke-width="0.0" fill="rgb(175, 145, 115)" opacity="1.0" stroke="rgb(248, 85, 79)" stroke-opacity="0.04269208" stroke-linecap="round" stroke-linejoin="round"/>
  </g>
</svg>
