<?xml version="1.0" ?>
<svg xmlns="http://www.w3.org/2000/svg" version="1.1" width="512" height="512">
  <defs/>
  <g>
    <path d="M 38.24936294555664 60.53895950317383 C 63.874359130859375 69.35610961914062 79.912353515625 59.072227478027344 9.493958473205566 71.06814575195312 C 2.3843142986297607 56.486358642578125 15.580934524536133 59.57563018798828 16.08789825439453 60.61808776855469 C 14.017128944396973 37.78318405151367 20.107803344726562 34.26021194458008 19.09791374206543 35.899436950683594 C 9.039599418640137 62.73291015625 15.549162864685059 60.600852966308594 38.24936294555664 60.53895950317383" stroke-width="0.0" fill="rgb(255, 251, 221)" opacity="0.93281883" stroke="rgb(69, 65, 228)" stroke-opacity="0.061015464" stroke-linecap="round" stroke-linejoin="round"/>
    <path d="M 84.41741943359375 60.681793212890625 C 97.92829895019531 258.8214111328125 148.8690643310547 187.35784912109375 6.998331546783447 245.1558074951172 C 8.202665328979492 28.917898178100586 3.738351583480835 61.65824508666992 15.48045539855957 60.02415084838867 C 13.288395881652832 50.91335678100586 19.792625427246094 47.40656280517578 25.332378387451172 29.065967559814453 C 11.545248985290527 70.28851318359375 -4.126054763793945 58.03886032104492 84.41741943359375 60.681793212890625" stroke-width="0.0" fill="rgb(60, 25, 3)" opacity="0.5940136" stroke="rgb(37, 210, 11)" stroke-opacity="0.6564148" stroke-linecap="round" stroke-linejoin="round"/>
    <path d="M 396.9569396972656 7.173650741577148 C 412.8005065917969 75.75688934326172 399.4167175292969 86.09727478027344 405.7288513183594 107.26162719726562 C 288.9429626464844 162.52285766601562 270.1893005371094 163.72097778320312 200.47146606445312 163.3800506591797 C 195.18946838378906 -21.437273025512695 203.3958740234375 9.674830436706543 245.7993621826172 7.529670715332031 C 327.2505798339844 6.994226932525635 332.71636962890625 7.699105262756348 396.9569396972656 7.173650741577148" stroke-width="0.0" fill="rgb(145, 147, 121)" opacity="0.27318725" stroke="rgb(236, 152, 50)" stroke-opacity="0.7445966" stroke-linecap="round" stroke-linejoin="round"/>
    <path d="M 9.0 246.0 C 8.330126762390137 248.5 6.5 250.3301239013672 4.0 251.0 C 1.5 250.3301239013672 -0.3301270306110382 248.5 -1.0 246.0 C -0.3301270306110382 243.5 1.5 241.6698760986328 4.0 241.0 C 6.5 241.6698760986328 8.330126762390137 243.5 9.0 246.0" stroke-width="0.0" fill="rgb(250, 249, 249)" opacity="1.0" stroke="rgb(115, 68, 133)" stroke-opacity="0.4278751" stroke-linecap="round" stroke-linejoin="round"/>
    <path d="M 9.0 394.0 C 8.330126762390137 396.5 6.5 398.33013916015625 4.0 399.0 C 1.5 398.33013916015625 -0.3301270306110382 396.5 -1.0 394.0 C -0.3301270306110382 391.5 1.5 389.66986083984375 4.0 389.0 C 6.5 389.66986083984375 8.330126762390137 391.5 9.0 394.0" stroke-width="0.0" fill="rgb(250, 250, 250)" opacity="1.0" stroke="rgb(169, 142, 102)" stroke-opacity="0.36690417" stroke-linecap="round" stroke-linejoin="round"/>
    <path d="M 99.0 169.0 C 98.33012390136719 171.5 96.5 173.3301239013672 94.0 174.0 C 91.5 173.3301239013672 89.66987609863281 171.5 89.0 169.0 C 89.66987609863281 166.5 91.5 164.6698760986328 94.0 164.0 C 96.5 164.6698760986328 98.33012390136719 166.5 99.0 169.0" stroke-width="0.0" fill="rgb(28, 41, 44)" opacity="1.0" stroke="rgb(80, 76, 67)" stroke-opacity="0.21527018" stroke-linecap="round" stroke-linejoin="round"/>
    <path d="M 68.0 484.0 C 67.33012390136719 486.5 65.5 488.33013916015625 63.0 489.0 C 60.5 488.33013916015625 58.66987228393555 486.5 58.0 484.0 C 58.66987228393555 481.5 60.5 479.66986083984375 63.0 479.0 C 65.5 479.66986083984375 67.33012390136719 481.5 68.0 484.0" stroke-width="0.0" fill="rgb(68, 79, 80)" opacity="1.0" stroke="rgb(223, 167, 125)" stroke-opacity="0.57557094" stroke-linecap="round" stroke-linejoin="round"/>
  </g>
</svg>
