<?xml version="1.0" ?>
<svg xmlns="http://www.w3.org/2000/svg" version="1.1" width="512" height="512">
  <defs/>
  <g>
    <path d="M 26.0 36.0 C 25.330127716064453 38.5 23.5 40.33012771606445 21.0 41.0 C 18.5 40.33012771606445 16.669872283935547 38.5 16.0 36.0 C 16.669872283935547 33.5 18.5 31.669872283935547 21.0 31.0 C 23.5 31.669872283935547 25.330127716064453 33.5 26.0 36.0" stroke-width="0.0" fill="rgb(188, 188, 173)" opacity="1.0" stroke="rgb(69, 65, 228)" stroke-opacity="0.061015464" stroke-linecap="round" stroke-linejoin="round"/>
    <path d="M 26.0 36.0 C 25.330127716064453 38.5 23.5 40.33012771606445 21.0 41.0 C 18.5 40.33012771606445 16.669872283935547 38.5 16.0 36.0 C 16.669872283935547 33.5 18.5 31.669872283935547 21.0 31.0 C 23.5 31.669872283935547 25.330127716064453 33.5 26.0 36.0" stroke-width="0.0" fill="rgb(188, 188, 173)" opacity="1.0" stroke="rgb(37, 210, 11)" stroke-opacity="0.6564148" stroke-linecap="round" stroke-linejoin="round"/>
    <path d="M 306.0 31.0 C 305.33013916015625 33.5 303.5 35.33012771606445 301.0 36.0 C 298.5 35.33012771606445 296.66986083984375 33.5 296.0 31.0 C 296.66986083984375 28.5 298.5 26.669872283935547 301.0 26.0 C 303.5 26.669872283935547 305.33013916015625 28.5 306.0 31.0" stroke-width="0.0" fill="rgb(188, 188, 173)" opacity="1.0" stroke="rgb(236, 152, 50)" stroke-opacity="0.7445966" stroke-linecap="round" stroke-linejoin="round"/>
  </g>
</svg>
