<?xml version="1.0" ?>
<svg xmlns="http://www.w3.org/2000/svg" version="1.1" width="407" height="512">
  <defs/>
  <g>
    <path d="M -10.0 -10.0 C -9.0 -10.0 407.0 0.0 408.0 0.0 C 409.0 0.0 407.0 512.0 408.0 512.0 C 408.0 513.0 0.0 512.0 0.0 513.0 C 0.0 512.0 0.0 513.0 -10.0 -10.0 L -10.0 -10.0" stroke-width="2.0" fill="rgb(164, 170, 177)" opacity="0.92345583"/>
    <path d="M 417.2022705078125 196.2211151123047 C 419.07550048828125 249.83775329589844 418.7939758300781 251.6333770751953 412.9646301269531 256.1133728027344 C 346.13922119140625 259.6617431640625 339.8812255859375 265.7051086425781 359.6639709472656 226.57737731933594 C 391.0535583496094 210.07257080078125 430.9847412109375 220.00570678710938 398.91009521484375 163.43385314941406 C 363.2124328613281 166.73641967773438 399.14556884765625 185.9766845703125 405.87054443359375 214.82823181152344 L 417.2022705078125 196.2211151123047" stroke-width="2.0" fill="rgb(98, 90, 117)" opacity="0.0"/>
    <path d="M 274.2524108886719 47.511775970458984 C 274.8249816894531 43.22010803222656 274.6191101074219 40.71990203857422 274.71820068359375 43.97196578979492 C 274.9385070800781 43.05812072753906 273.5689392089844 42.819766998291016 274.79345703125 43.734066009521484 C 274.1279602050781 43.4490852355957 274.9319152832031 42.78798294067383 274.4161376953125 44.504981994628906 C 274.53497314453125 41.967002868652344 274.4201354980469 45.28156280517578 274.6200256347656 43.875022888183594 L 274.2524108886719 47.511775970458984" stroke-width="2.0" fill="rgb(195, 102, 53)" opacity="0.19741528"/>
    <path d="M 131.6165771484375 312.0506286621094 C 100.01897430419922 241.20912170410156 106.94635772705078 248.85330200195312 105.9110336303711 314.7562561035156 C 141.35348510742188 315.1695556640625 127.24588775634766 308.21673583984375 148.9676971435547 324.0688781738281 C 139.51918029785156 321.7414855957031 144.97975158691406 318.5750427246094 133.860107421875 320.09686279296875 C 131.86480712890625 339.281005859375 140.60009765625 372.6650390625 158.23318481445312 328.2008972167969 L 131.6165771484375 312.0506286621094" stroke-width="2.0" fill="rgb(24, 72, 124)" opacity="0.13207632"/>
    <path d="M 15.92892074584961 243.90155029296875 C 6.499207496643066 284.8276672363281 40.53765869140625 276.7070007324219 -18.602230072021484 275.998291015625 C -43.348411560058594 231.47962951660156 31.083356857299805 234.43429565429688 31.381084442138672 250.7313232421875 C 122.9149169921875 236.0777130126953 142.8032684326172 324.4552307128906 17.715803146362305 276.4090576171875 C 5.075499534606934 240.06959533691406 23.224618911743164 235.0626983642578 34.998863220214844 258.8920593261719 L 15.92892074584961 243.90155029296875" stroke-width="2.0" fill="rgb(255, 247, 230)" opacity="0.9540101"/>
    <path d="M 243.65582275390625 45.34199905395508 C 243.247802734375 44.91930389404297 242.41363525390625 44.754417419433594 239.96163940429688 44.35692596435547 C 244.0358123779297 46.67132568359375 243.58193969726562 46.22514343261719 242.47035217285156 45.05307388305664 C 241.81808471679688 43.4846076965332 244.1900177001953 45.81743621826172 244.33848571777344 46.407535552978516 C 243.60264587402344 44.672569274902344 243.864013671875 46.904170989990234 244.17703247070312 49.89459228515625 L 243.65582275390625 45.34199905395508" stroke-width="2.0" fill="rgb(158, 119, 201)" opacity="0.058159877"/>
    <path d="M 193.2300262451172 176.87655639648438 C 197.24993896484375 180.5956268310547 195.88966369628906 179.8000946044922 195.71160888671875 174.94256591796875 C 195.686279296875 181.98680114746094 196.45440673828125 176.35952758789062 196.1373748779297 188.65072631835938 C 188.70550537109375 186.39620971679688 192.9324493408203 186.7095947265625 195.80776977539062 198.593994140625 C 195.74807739257812 182.21531677246094 186.8073272705078 178.528076171875 191.00511169433594 181.468994140625 L 193.2300262451172 176.87655639648438" stroke-width="2.0" fill="rgb(101, 79, 96)" opacity="0.18332748"/>
    <path d="M 19.873035430908203 271.0213317871094 C 13.57474422454834 245.99082946777344 17.682851791381836 255.81307983398438 -2.0714967250823975 266.7561340332031 C -16.43507194519043 272.0715026855469 -24.20900535583496 243.2498016357422 -0.7830024361610413 238.7491455078125 C 33.04120635986328 235.96844482421875 17.378192901611328 252.45016479492188 8.810068130493164 259.6208190917969 C 13.136405944824219 255.78343200683594 4.055787563323975 264.1553649902344 -9.729432106018066 271.09747314453125 L 19.873035430908203 271.0213317871094" stroke-width="2.0" fill="rgb(115, 56, 0)" opacity="0.25264248"/>
    <path d="M 6.200511455535889 311.8330993652344 C 14.63182544708252 309.7824401855469 10.701376914978027 313.28118896484375 41.16942596435547 311.2510681152344 C 34.466670989990234 297.38372802734375 24.895118713378906 302.2032775878906 26.580120086669922 303.71685791015625 C 21.32112693786621 298.1312255859375 18.26738739013672 300.1789245605469 17.56304931640625 299.94232177734375 C 28.431428909301758 299.4765319824219 22.486024856567383 302.2148742675781 22.03911018371582 302.0059509277344 L 6.200511455535889 311.8330993652344" stroke-width="2.0" fill="rgb(116, 111, 98)" opacity="0.20387514"/>
    <path d="M 356.6861572265625 513.1687622070312 C 362.4955749511719 529.9671630859375 355.0321960449219 525.5147705078125 342.9838562011719 524.692626953125 C 284.34814453125 524.471435546875 281.90423583984375 524.2089233398438 267.1032409667969 521.258056640625 C 271.1996154785156 472.7757873535156 277.199951171875 456.1241760253906 291.9238586425781 454.7144775390625 C 306.4622802734375 457.0701599121094 311.1358947753906 471.2911071777344 335.8569030761719 493.87115478515625 L 356.6861572265625 513.1687622070312" stroke-width="2.0" fill="rgb(12, 24, 46)" opacity="0.3488114"/>
    <path d="M 326.42779541015625 91.8130111694336 C 326.9118347167969 91.49385070800781 328.123779296875 89.96855926513672 329.8417663574219 90.6054916381836 C 328.16864013671875 90.71395874023438 328.6970520019531 91.74927520751953 327.79644775390625 91.61286926269531 C 327.0486145019531 90.45372009277344 327.4144592285156 90.35919189453125 327.2515869140625 92.11531066894531 C 322.85784912109375 89.05835723876953 326.5105895996094 92.33526611328125 326.1253662109375 90.68889617919922 L 326.42779541015625 91.8130111694336" stroke-width="2.0" fill="rgb(99, 138, 92)" opacity="0.15086772"/>
    <path d="M 23.54167366027832 150.82626342773438 C -1.1058348417282104 178.7344970703125 41.61149597167969 196.9177703857422 -15.308018684387207 186.04701232910156 C 12.04497241973877 226.27235412597656 21.71592140197754 229.1738739013672 16.152664184570312 195.3004150390625 C 0.9087852239608765 194.95822143554688 5.313837051391602 200.2563934326172 4.952007293701172 193.96693420410156 C 5.048930644989014 201.79122924804688 -1.932536005973816 193.2338104248047 24.20258903503418 195.9279327392578 L 23.54167366027832 150.82626342773438" stroke-width="2.0" fill="rgb(0, 24, 75)" opacity="0.5562583"/>
    <path d="M 316.3320617675781 238.8734588623047 C 320.38275146484375 238.5613555908203 316.56341552734375 231.32736206054688 318.4066162109375 248.20330810546875 C 322.63726806640625 248.79901123046875 301.67449951171875 247.01556396484375 299.6976318359375 255.0443572998047 C 331.739501953125 206.068115234375 261.4797058105469 244.15863037109375 316.94403076171875 214.11038208007812 C 316.3089904785156 259.77825927734375 317.95391845703125 236.71258544921875 312.602294921875 215.2177276611328 L 316.3320617675781 238.8734588623047" stroke-width="2.0" fill="rgb(254, 237, 210)" opacity="0.815252"/>
    <path d="M 330.5177307128906 150.0039825439453 C 329.872802734375 149.32772827148438 329.45672607421875 149.4642333984375 330.0372619628906 149.5403289794922 C 333.5874938964844 150.7662811279297 333.6835632324219 149.9496612548828 333.4630432128906 149.3817596435547 C 332.170166015625 153.0648956298828 333.1320495605469 153.23268127441406 333.9525451660156 153.5599822998047 C 330.1739196777344 151.9746856689453 329.7782897949219 152.66439819335938 330.1385803222656 154.01290893554688 L 330.5177307128906 150.0039825439453" stroke-width="2.0" fill="rgb(50, 66, 130)" opacity="0.0"/>
    <path d="M 221.33523559570312 427.5958251953125 C 227.34007263183594 408.31396484375 219.6518096923828 413.00823974609375 216.90170288085938 423.7049865722656 C 219.17471313476562 425.32373046875 236.0563507080078 416.60443115234375 226.93060302734375 402.78070068359375 C 215.2892608642578 420.70819091796875 222.8761749267578 417.38818359375 237.72483825683594 428.4503173828125 C 225.81227111816406 416.6533508300781 225.33932495117188 424.5689697265625 197.347412109375 434.4136047363281 L 221.33523559570312 427.5958251953125" stroke-width="2.0" fill="rgb(157, 116, 112)" opacity="0.0"/>
    <path d="M 131.95176696777344 325.2579040527344 C 127.7637939453125 328.6767272949219 137.60433959960938 322.3719177246094 121.57220458984375 317.8478698730469 C 156.08766174316406 324.6524658203125 144.1129608154297 281.3694152832031 147.9444122314453 365.971923828125 C 147.17543029785156 374.08380126953125 154.41104125976562 361.2505187988281 116.04131317138672 398.49151611328125 C 110.78524017333984 384.97705078125 134.1634979248047 379.7317199707031 132.7366180419922 376.5111083984375 L 131.95176696777344 325.2579040527344" stroke-width="2.0" fill="rgb(252, 244, 225)" opacity="0.9600489"/>
    <path d="M 79.50831604003906 422.7028503417969 C 122.66028594970703 376.3366394042969 120.09040069580078 387.2420654296875 101.46766662597656 463.6524963378906 C 71.6679458618164 439.237060546875 66.8555679321289 417.4309997558594 16.576852798461914 419.2054443359375 C 23.805124282836914 419.08447265625 31.98006248474121 417.86572265625 23.8968448638916 418.4652099609375 C 72.35601806640625 420.12359619140625 78.44827270507812 419.47540283203125 75.57012176513672 417.0404968261719 L 79.50831604003906 422.7028503417969" stroke-width="2.0" fill="rgb(49, 51, 65)" opacity="0.3972377"/>
    <path d="M 150.17738342285156 19.05847930908203 C 155.18814086914062 17.728063583374023 149.8428192138672 18.124954223632812 155.94813537597656 1.3305259943008423 C 158.0050048828125 1.3119535446166992 151.07247924804688 0.7096533179283142 373.3879699707031 0.9845655560493469 C 236.07220458984375 91.5147705078125 203.8353729248047 80.2004623413086 199.08766174316406 111.78726196289062 C 130.2289581298828 65.89488983154297 166.60089111328125 37.281524658203125 160.10447692871094 38.63291931152344 L 150.17738342285156 19.05847930908203" stroke-width="2.0" fill="rgb(255, 255, 247)" opacity="1.0"/>
    <path d="M 419.4676818847656 394.9197998046875 C 392.1837158203125 384.8593444824219 395.98809814453125 401.66571044921875 390.9401550292969 375.8201904296875 C 354.92657470703125 378.1451416015625 387.0557861328125 369.0574035644531 351.2071838378906 343.91534423828125 C 349.44305419921875 339.7560729980469 324.13214111328125 386.4202575683594 344.185791015625 320.9061279296875 C 417.7440185546875 327.8094787597656 412.40447998046875 316.5388488769531 419.6156921386719 316.9940185546875 L 419.4676818847656 394.9197998046875" stroke-width="2.0" fill="rgb(24, 26, 9)" opacity="0.6817251"/>
    <path d="M 23.364391326904297 218.51763916015625 C 27.81245231628418 216.6630096435547 24.715625762939453 218.50112915039062 23.053829193115234 219.153564453125 C 22.211040496826172 222.311767578125 22.854171752929688 212.93466186523438 22.63566780090332 233.0106964111328 C 24.97690200805664 234.06971740722656 20.72928810119629 232.38961791992188 27.629446029663086 233.4895477294922 C 27.426742553710938 235.17218017578125 28.652273178100586 217.32708740234375 27.074134826660156 217.8559112548828 L 23.364391326904297 218.51763916015625" stroke-width="2.0" fill="rgb(2, 43, 102)" opacity="0.8464753"/>
    <path d="M 224.2685546875 396.6878662109375 C 224.68887329101562 422.5370788574219 223.91078186035156 422.4218444824219 206.8650360107422 427.51641845703125 C 171.48081970214844 434.35516357421875 173.44354248046875 442.0179138183594 181.75485229492188 420.1106872558594 C 186.73934936523438 403.4253234863281 184.21873474121094 399.2221984863281 213.6869659423828 389.8197937011719 C 213.00360107421875 391.5217590332031 198.34922790527344 388.9837646484375 196.5579071044922 411.2070007324219 L 224.2685546875 396.6878662109375" stroke-width="2.0" fill="rgb(74, 96, 69)" opacity="0.5354106"/>
    <path d="M 77.3443603515625 286.27923583984375 C 72.15748596191406 288.9454345703125 66.9577865600586 287.69586181640625 57.13689041137695 294.38275146484375 C 81.64414978027344 313.6976623535156 52.199302673339844 371.585205078125 80.45206451416016 371.3636474609375 C 84.57788848876953 318.7544250488281 81.67113494873047 285.3670654296875 82.96517944335938 282.489990234375 C 77.01238250732422 289.5758056640625 73.66964721679688 284.515869140625 69.74728393554688 286.862060546875 L 77.3443603515625 286.27923583984375" stroke-width="2.0" fill="rgb(250, 244, 227)" opacity="0.9994957"/>
    <path d="M 369.6913757324219 316.7278747558594 C 300.6758117675781 349.402099609375 276.3899230957031 335.7203369140625 337.73681640625 302.5668640136719 C 312.64532470703125 280.2292175292969 315.4226379394531 283.8045349121094 286.6351623535156 260.0732421875 C 285.6696472167969 272.61822509765625 251.9860382080078 267.5894775390625 291.1531066894531 253.53250122070312 C 356.501953125 240.0826873779297 305.21630859375 242.16555786132812 353.5433654785156 261.07562255859375 L 369.6913757324219 316.7278747558594" stroke-width="2.0" fill="rgb(97, 83, 44)" opacity="0.48856714"/>
    <path d="M 342.5762634277344 34.8591194152832 C 341.43743896484375 32.937015533447266 340.4081115722656 32.940956115722656 347.3665466308594 33.95465850830078 C 348.21099853515625 32.64838790893555 344.9306335449219 30.598215103149414 342.40240478515625 31.208763122558594 C 343.6285400390625 33.98681640625 349.9544982910156 34.09423828125 345.7044982910156 37.04309844970703 C 340.6282958984375 33.660858154296875 341.98602294921875 35.49910354614258 341.9885559082031 38.71812438964844 L 342.5762634277344 34.8591194152832" stroke-width="2.0" fill="rgb(83, 69, 246)" opacity="0.046460226"/>
    <path d="M 261.61370849609375 69.82829284667969 C 379.9160461425781 -4.008086204528809 422.02099609375 -39.70532989501953 430.760498046875 79.135009765625 C 312.739013671875 116.61627197265625 311.0750732421875 88.8810043334961 314.44561767578125 70.74659729003906 C 314.1346740722656 83.0870132446289 312.3934326171875 94.22986602783203 330.89208984375 89.42072296142578 C 319.5303955078125 96.56368255615234 324.2101745605469 125.78128051757812 220.0149688720703 96.6633529663086 L 261.61370849609375 69.82829284667969" stroke-width="2.0" fill="rgb(99, 133, 172)" opacity="0.12462317"/>
    <path d="M 335.3343811035156 195.53602600097656 C 334.3373107910156 194.31134033203125 334.671875 194.1020965576172 334.652099609375 196.47581481933594 C 335.4332275390625 197.1361846923828 334.4159240722656 196.18080139160156 335.620849609375 196.1860809326172 C 332.783935546875 192.4068603515625 334.4642639160156 191.46815490722656 334.8849182128906 196.2467041015625 C 334.3758239746094 194.91336059570312 335.70416259765625 197.1182403564453 335.8729248046875 196.2389373779297 L 335.3343811035156 195.53602600097656" stroke-width="2.0" fill="rgb(188, 191, 168)" opacity="0.30910763"/>
    <path d="M 190.0275421142578 322.0316467285156 C 194.28346252441406 340.69329833984375 186.11117553710938 352.5766906738281 198.91372680664062 363.8650817871094 C 216.9090576171875 369.4298400878906 194.92996215820312 439.5091552734375 77.55921173095703 422.0906982421875 C 207.24729919433594 348.4241638183594 117.71627044677734 332.5702819824219 158.29962158203125 323.5989990234375 C 209.27366638183594 321.191162109375 181.90652465820312 325.9424133300781 172.36727905273438 344.2752685546875 L 190.0275421142578 322.0316467285156" stroke-width="2.0" fill="rgb(255, 198, 123)" opacity="0.29393926"/>
    <path d="M 164.30043029785156 438.76458740234375 C 166.60980224609375 440.2298889160156 165.78443908691406 442.3571472167969 162.2303924560547 441.43914794921875 C 170.6785888671875 436.4949951171875 171.471923828125 437.67816162109375 118.64203643798828 450.319091796875 C 94.3277587890625 452.71502685546875 99.8948974609375 479.08331298828125 109.70614624023438 427.6772766113281 C 233.8450469970703 399.30279541015625 180.14437866210938 391.5230407714844 210.75868225097656 427.6345520019531 L 164.30043029785156 438.76458740234375" stroke-width="2.0" fill="rgb(77, 85, 100)" opacity="0.5507544"/>
    <path d="M 295.2659912109375 298.19512939453125 C 301.8344421386719 328.41094970703125 305.4078063964844 319.15191650390625 295.3061828613281 322.8184509277344 C 255.3156280517578 326.47601318359375 266.3142395019531 326.3327941894531 233.82833862304688 315.1746826171875 C 236.36264038085938 293.6491394042969 251.91799926757812 287.37664794921875 264.2115783691406 283.420654296875 C 287.2248229980469 284.2083435058594 296.7602844238281 302.0711975097656 299.0372619628906 314.2185974121094 L 295.2659912109375 298.19512939453125" stroke-width="2.0" fill="rgb(15, 96, 168)" opacity="0.7685034"/>
    <path d="M 32.91862869262695 158.57669067382812 C -52.17721939086914 139.83404541015625 2.1354470252990723 147.6311492919922 60.052337646484375 158.46044921875 C 39.96098709106445 170.22723388671875 57.97975540161133 160.08201599121094 44.738014221191406 163.53439331054688 C 55.76762390136719 158.5391845703125 56.68890380859375 162.8271026611328 41.69643020629883 162.7202911376953 C 70.6122817993164 163.718505859375 61.42412185668945 164.26239013671875 74.89326477050781 166.78761291503906 L 32.91862869262695 158.57669067382812" stroke-width="2.0" fill="rgb(0, 0, 14)" opacity="1.0"/>
    <path d="M 207.5066680908203 202.16270446777344 C 183.8800048828125 202.8643035888672 191.46226501464844 195.61265563964844 196.01229858398438 211.95355224609375 C 191.04684448242188 210.581298828125 202.08810424804688 212.79159545898438 202.04931640625 213.34828186035156 C 208.4513397216797 210.7679901123047 204.6303253173828 216.7510223388672 205.73968505859375 202.8651885986328 C 203.37936401367188 196.6459197998047 209.9864501953125 220.94740295410156 205.63172912597656 211.01968383789062 L 207.5066680908203 202.16270446777344" stroke-width="2.0" fill="rgb(101, 136, 238)" opacity="0.07727105"/>
    <path d="M 82.65149688720703 272.0721435546875 C 100.54161834716797 251.962890625 80.88067626953125 217.61624145507812 99.61614990234375 227.65359497070312 C 99.19145965576172 262.0625915527344 110.55184936523438 241.28192138671875 90.88065338134766 247.0348663330078 C 90.57100677490234 266.1888732910156 82.21847534179688 262.7967529296875 94.91632080078125 263.86614990234375 C 86.90081787109375 265.6379699707031 91.3858413696289 259.69842529296875 92.79695129394531 258.0287780761719 L 82.65149688720703 272.0721435546875" stroke-width="2.0" fill="rgb(0, 45, 106)" opacity="0.7998106"/>
    <path d="M 337.64404296875 395.2171630859375 C 336.5232238769531 387.7853088378906 338.0090637207031 391.8369140625 338.033203125 411.3327331542969 C 317.83380126953125 396.39154052734375 313.28900146484375 388.3835144042969 297.449462890625 376.0739440917969 C 284.5151672363281 363.0650939941406 290.06243896484375 378.9582214355469 292.08642578125 361.4715576171875 C 341.4098815917969 353.5382385253906 332.0144958496094 359.53277587890625 337.6979064941406 361.2864074707031 L 337.64404296875 395.2171630859375" stroke-width="2.0" fill="rgb(168, 83, 16)" opacity="0.66024953"/>
    <path d="M 77.80712890625 92.9853286743164 C 93.75852966308594 108.52005767822266 74.48977661132812 91.8730239868164 30.583011627197266 98.32967376708984 C 40.090492248535156 75.28638458251953 68.76808166503906 84.11910247802734 19.7846622467041 71.71634674072266 C 21.41393280029297 69.61226654052734 16.11722755432129 72.21085357666016 13.814277648925781 43.51921081542969 C 14.929930686950684 57.22666931152344 15.860018730163574 55.32193374633789 18.540035247802734 65.59130096435547 L 77.80712890625 92.9853286743164" stroke-width="2.0" fill="rgb(0, 50, 114)" opacity="0.9614115"/>
    <path d="M 407.8368225097656 152.94223022460938 C 408.24041748046875 154.54714965820312 411.3153381347656 157.56005859375 409.0852966308594 171.2044219970703 C 374.37030029296875 160.28970336914062 349.2440185546875 210.25975036621094 227.24356079101562 152.2371063232422 C 199.26199340820312 53.9302864074707 298.49945068359375 25.748485565185547 417.7893981933594 -39.067222595214844 C 449.2525329589844 111.7850112915039 417.0290832519531 140.90081787109375 409.21875 149.95330810546875 L 407.8368225097656 152.94223022460938" stroke-width="2.0" fill="rgb(223, 236, 255)" opacity="0.18489902"/>
    <path d="M 67.10343170166016 419.4197998046875 C 70.7840347290039 417.8981628417969 74.81233215332031 419.5786437988281 89.46107482910156 411.46728515625 C 87.42951965332031 410.2890625 92.23828887939453 413.5815734863281 94.27777099609375 404.6897277832031 C 116.91627502441406 365.6795959472656 114.34561920166016 408.00115966796875 113.55532836914062 425.78411865234375 C 55.312896728515625 441.0478210449219 72.19965362548828 435.7334289550781 68.41343688964844 438.22821044921875 L 67.10343170166016 419.4197998046875" stroke-width="2.0" fill="rgb(0, 0, 0)" opacity="1.0"/>
    <path d="M 136.5280303955078 154.3403778076172 C 136.6376190185547 166.72203063964844 137.46630859375 174.71542358398438 134.4290771484375 172.04722595214844 C 135.40850830078125 173.75326538085938 140.47801208496094 170.47299194335938 130.79933166503906 171.22003173828125 C 132.47738647460938 153.4429931640625 129.4697723388672 153.94952392578125 135.15182495117188 153.5933074951172 C 137.0220184326172 155.33175659179688 135.70997619628906 154.20545959472656 137.1732177734375 154.8061065673828 L 136.5280303955078 154.3403778076172" stroke-width="2.0" fill="rgb(0, 43, 104)" opacity="0.8145504"/>
    <path d="M 333.9951477050781 132.78106689453125 C 334.20025634765625 130.90875244140625 334.3218688964844 130.14773559570312 334.22735595703125 130.73817443847656 C 333.88006591796875 133.62144470214844 334.05987548828125 132.15293884277344 334.0686340332031 132.4170379638672 C 333.63922119140625 133.01174926757812 335.0848388671875 131.046630859375 332.5492858886719 132.12986755371094 C 334.7383117675781 131.1902313232422 333.8271484375 133.09324645996094 334.25390625 130.4354248046875 L 333.9951477050781 132.78106689453125" stroke-width="2.0" fill="rgb(75, 49, 53)" opacity="0.31609204"/>
    <path d="M 408.2419738769531 376.5387268066406 C 400.2471923828125 411.90399169921875 391.24542236328125 398.2132263183594 395.3978271484375 369.5732116699219 C 347.1045227050781 361.66229248046875 383.05279541015625 312.11700439453125 394.944091796875 314.6719665527344 C 363.3255310058594 340.6440734863281 371.44757080078125 322.14453125 360.0027160644531 283.59521484375 C 439.63360595703125 296.88201904296875 431.12371826171875 298.45501708984375 417.0106201171875 321.4153747558594 L 408.2419738769531 376.5387268066406" stroke-width="2.0" fill="rgb(155, 164, 53)" opacity="0.5548383"/>
    <path d="M 69.52840423583984 347.74896240234375 C 37.35075378417969 443.0701599121094 61.973514556884766 414.8333435058594 23.209625244140625 419.64984130859375 C -15.868209838867188 419.9939880371094 0.20677249133586884 419.5810241699219 -16.37957763671875 432.9605407714844 C -18.589956283569336 370.4470520019531 -24.930564880371094 344.2810974121094 8.79060173034668 312.3601379394531 C 48.52438735961914 351.11846923828125 21.65935516357422 359.90283203125 14.652456283569336 325.37347412109375 L 69.52840423583984 347.74896240234375" stroke-width="2.0" fill="rgb(119, 140, 171)" opacity="0.2685566"/>
    <path d="M 253.22158813476562 355.7218322753906 C 198.60731506347656 316.3393249511719 280.7671813964844 272.1139831542969 153.1419219970703 302.3970947265625 C 158.9930877685547 305.8381652832031 246.3567352294922 261.10772705078125 222.43858337402344 349.970947265625 C 258.3797607421875 356.83282470703125 276.1550598144531 364.3303527832031 218.07403564453125 313.7877197265625 C 215.840087890625 319.9849548339844 227.36000061035156 280.923095703125 226.21192932128906 350.85748291015625 L 253.22158813476562 355.7218322753906" stroke-width="2.0" fill="rgb(89, 39, 0)" opacity="0.6758657"/>
    <path d="M 75.65071868896484 255.4821319580078 C 63.848995208740234 253.83360290527344 53.4276008605957 256.0246887207031 55.04286193847656 253.13284301757812 C 62.723236083984375 263.3091735839844 70.90400695800781 223.95680236816406 24.122390747070312 197.1428680419922 C 35.16027069091797 265.4237976074219 76.3907699584961 235.685302734375 84.96192932128906 251.8053436279297 C 55.84865188598633 246.21401977539062 56.78205490112305 253.57171630859375 65.33007049560547 264.9614562988281 L 75.65071868896484 255.4821319580078" stroke-width="2.0" fill="rgb(120, 123, 172)" opacity="0.0"/>
    <path d="M 248.84817504882812 74.63594055175781 C 259.4082336425781 64.9041519165039 259.85150146484375 66.8956298828125 248.36856079101562 74.53710174560547 C 255.97320556640625 80.82942199707031 249.51950073242188 82.7009506225586 249.10923767089844 66.75728607177734 C 256.8296813964844 70.79154205322266 253.298583984375 77.67488098144531 246.0535430908203 78.42806243896484 C 265.6654052734375 65.87425994873047 260.9610900878906 70.51631927490234 253.8375244140625 82.8675765991211 L 248.84817504882812 74.63594055175781" stroke-width="2.0" fill="rgb(172, 132, 123)" opacity="0.026104756"/>
    <path d="M 225.31394958496094 376.62261962890625 C 216.80575561523438 370.3337097167969 210.7202606201172 388.6977844238281 163.11351013183594 420.465576171875 C 196.0577392578125 435.8248596191406 196.93734741210938 406.34912109375 223.40008544921875 378.96771240234375 C 201.91375732421875 405.84747314453125 201.71197509765625 406.8678894042969 229.03024291992188 369.81793212890625 C 202.68704223632812 388.1151123046875 187.74810791015625 409.30792236328125 195.24850463867188 414.50634765625 L 225.31394958496094 376.62261962890625" stroke-width="2.0" fill="rgb(119, 125, 138)" opacity="0.8781287"/>
    <path d="M 209.96502685546875 315.91595458984375 C 200.4963836669922 312.2384338378906 218.4271697998047 318.1270751953125 211.6278839111328 318.1681823730469 C 245.46031188964844 331.9390563964844 331.005859375 344.2730407714844 237.18727111816406 316.73077392578125 C 219.90716552734375 317.5858459472656 191.81016540527344 242.95346069335938 190.69419860839844 279.36199951171875 C 208.7462158203125 313.17340087890625 208.03759765625 320.1117248535156 205.7062530517578 310.9201965332031 L 209.96502685546875 315.91595458984375" stroke-width="2.0" fill="rgb(251, 247, 232)" opacity="0.99114364"/>
    <path d="M 310.4302978515625 468.0030517578125 C 286.6683654785156 438.9397277832031 272.6532287597656 461.9737243652344 269.4666442871094 501.19921875 C 264.6851806640625 497.4030456542969 254.6477813720703 470.77386474609375 237.57916259765625 469.3789978027344 C 229.49066162109375 457.6429748535156 224.5802459716797 393.396484375 254.88304138183594 404.27734375 C 251.7069549560547 396.62158203125 262.0964660644531 411.4176330566406 289.7331237792969 443.7002258300781 L 310.4302978515625 468.0030517578125" stroke-width="2.0" fill="rgb(106, 111, 125)" opacity="0.82795954"/>
    <path d="M 175.1963653564453 486.93798828125 C 159.5891876220703 496.9654235839844 160.88404846191406 498.863525390625 146.63670349121094 499.6837463378906 C 137.54881286621094 480.5296630859375 145.42483520507812 475.8602294921875 136.7608642578125 471.2660217285156 C 135.75103759765625 476.7420349121094 137.03695678710938 477.02471923828125 147.34747314453125 452.2469482421875 C 159.8169708251953 445.5539245605469 159.77935791015625 446.5084533691406 156.44236755371094 452.9500427246094 L 175.1963653564453 486.93798828125" stroke-width="2.0" fill="rgb(211, 207, 208)" opacity="0.06761631"/>
    <path d="M 184.6980743408203 41.005958557128906 C 182.05528259277344 40.20304489135742 179.86871337890625 38.71494674682617 184.4906463623047 40.87876510620117 C 185.07415771484375 40.734107971191406 184.38809204101562 40.067588806152344 184.1592254638672 42.36884307861328 C 181.06765747070312 41.70935821533203 184.1388702392578 41.77002716064453 185.70521545410156 43.69449234008789 C 182.8564453125 41.360286712646484 183.95310974121094 42.096134185791016 186.5030059814453 39.130828857421875 L 184.6980743408203 41.005958557128906" stroke-width="2.0" fill="rgb(96, 137, 98)" opacity="0.088235795"/>
    <path d="M 324.0912780761719 398.9557189941406 C 422.8819274902344 490.5459899902344 467.8226013183594 506.3505859375 389.9002380371094 505.88751220703125 C 274.5744323730469 355.5804748535156 248.36129760742188 360.4189758300781 250.53765869140625 335.2592468261719 C 255.94309997558594 345.5050354003906 257.3787536621094 346.5932922363281 267.06158447265625 353.53668212890625 C 256.9622497558594 349.6924133300781 262.9316711425781 355.61505126953125 274.24017333984375 356.2905578613281 L 324.0912780761719 398.9557189941406" stroke-width="2.0" fill="rgb(255, 249, 233)" opacity="0.97681105"/>
    <path d="M 70.04582214355469 327.798828125 C 70.57352447509766 327.54815673828125 70.17461395263672 326.6163635253906 70.12671661376953 327.4169006347656 C 70.45692443847656 327.63714599609375 70.13990783691406 327.77508544921875 70.8524398803711 326.3662414550781 C 70.18244171142578 327.92669677734375 70.73213195800781 326.7554626464844 70.29672241210938 327.5467224121094 C 70.20327758789062 326.1606140136719 69.95064544677734 328.3599853515625 70.50655364990234 327.21673583984375 L 70.04582214355469 327.798828125" stroke-width="2.0" fill="rgb(95, 91, 255)" opacity="0.120911546"/>
    <path d="M 340.32305908203125 240.4817352294922 C 262.0138854980469 271.8489685058594 326.6418151855469 269.94512939453125 326.2755126953125 289.7388916015625 C 341.43505859375 346.30145263671875 284.1897888183594 325.97821044921875 270.15765380859375 242.7613525390625 C 274.12200927734375 263.1115417480469 271.5832824707031 264.5478515625 287.2817077636719 254.50230407714844 C 285.8951110839844 252.37655639648438 326.3139343261719 249.65672302246094 316.71795654296875 244.97146606445312 L 340.32305908203125 240.4817352294922" stroke-width="2.0" fill="rgb(158, 97, 10)" opacity="0.34842244"/>
    <path d="M 429.2843017578125 221.2661895751953 C 424.0220947265625 259.7505798339844 415.29443359375 253.99203491210938 380.64886474609375 260.4980163574219 C 336.46539306640625 260.622802734375 375.1695556640625 294.9721374511719 343.9234313964844 263.8051452636719 C 322.01788330078125 225.45254516601562 314.2427062988281 264.9252624511719 322.6961364746094 227.4866943359375 C 402.6076965332031 223.22044372558594 411.1551208496094 221.4742889404297 375.6185607910156 223.36053466796875 L 429.2843017578125 221.2661895751953" stroke-width="2.0" fill="rgb(87, 123, 165)" opacity="0.71945894"/>
    <path d="M 94.78044891357422 3.913011074066162 C 93.31417846679688 3.7788584232330322 93.48780822753906 2.7485270500183105 94.49754333496094 4.250181198120117 C 95.96749114990234 4.880707740783691 95.2940902709961 5.135520935058594 95.20404815673828 3.881349802017212 C 95.34173583984375 4.202725410461426 97.32774353027344 3.7057712078094482 95.86526489257812 5.690378665924072 C 95.77120208740234 1.1210601329803467 98.79424285888672 4.077695369720459 96.34613037109375 4.767670631408691 L 94.78044891357422 3.913011074066162" stroke-width="2.0" fill="rgb(94, 222, 68)" opacity="0.15905058"/>
    <path d="M 384.01568603515625 297.32537841796875 C 382.1850891113281 309.252197265625 390.2684326171875 311.99029541015625 374.7188415527344 322.5489807128906 C 313.8394470214844 336.4361877441406 298.33135986328125 336.025390625 293.4560241699219 289.28448486328125 C 357.616943359375 364.2156677246094 314.5022888183594 265.704833984375 317.45184326171875 231.6125030517578 C 312.645263671875 244.82676696777344 344.0111389160156 259.4473876953125 351.6444396972656 274.52874755859375 L 384.01568603515625 297.32537841796875" stroke-width="2.0" fill="rgb(144, 116, 95)" opacity="0.6257488"/>
    <path d="M 378.26861572265625 377.2841491699219 C 395.42462158203125 371.6479187011719 397.6096496582031 380.3793640136719 383.7629699707031 428.4888610839844 C 363.99853515625 408.4763488769531 369.17083740234375 447.1112365722656 368.8377685546875 362.8144226074219 C 341.6133728027344 341.2633361816406 355.1724853515625 340.2763977050781 369.5359191894531 353.67767333984375 C 382.35211181640625 363.4947814941406 377.1779479980469 362.13525390625 378.0769348144531 361.3210754394531 L 378.26861572265625 377.2841491699219" stroke-width="2.0" fill="rgb(246, 241, 226)" opacity="1.0"/>
    <path d="M 417.8329162597656 298.5157165527344 C 417.6002502441406 300.5198974609375 418.0051574707031 302.57830810546875 410.7983703613281 328.35638427734375 C 360.4135437011719 322.07025146484375 353.9604187011719 315.68231201171875 385.7727966308594 316.86663818359375 C 361.1313781738281 266.8143615722656 356.103759765625 301.3848876953125 357.5527038574219 263.0227966308594 C 431.64190673828125 254.00082397460938 432.6824035644531 251.2868194580078 417.742919921875 248.8099365234375 L 417.8329162597656 298.5157165527344" stroke-width="2.0" fill="rgb(4, 76, 147)" opacity="0.52676386"/>
    <path d="M 95.9253158569336 525.4908447265625 C 108.0304183959961 520.0409545898438 106.8144760131836 520.6182250976562 97.0005874633789 527.0010375976562 C 38.51164245605469 525.1195678710938 34.1926155090332 525.640869140625 -15.953863143920898 511.8150939941406 C -8.13658332824707 462.5449523925781 8.341543197631836 477.5420227050781 22.259395599365234 470.43414306640625 C 84.5102310180664 458.79168701171875 86.15760803222656 450.654296875 84.15318298339844 465.7016906738281 L 95.9253158569336 525.4908447265625" stroke-width="2.0" fill="rgb(237, 200, 152)" opacity="0.45539328"/>
    <path d="M 239.3715362548828 403.24505615234375 C 241.18850708007812 410.66015625 237.9853973388672 402.7416687011719 225.87460327148438 368.9179992675781 C 262.4854736328125 386.4484558105469 244.0609893798828 428.8680419921875 300.4998474121094 406.1270446777344 C 272.1253662109375 474.9449157714844 271.2032470703125 443.0277404785156 252.778564453125 452.5436096191406 C 248.07183837890625 457.5291442871094 282.0693359375 464.9806823730469 222.8533477783203 473.14898681640625 L 239.3715362548828 403.24505615234375" stroke-width="2.0" fill="rgb(110, 123, 143)" opacity="0.18005516"/>
    <path d="M 31.069555282592773 313.2734375 C 35.194000244140625 323.8158874511719 44.460472106933594 350.9986572265625 41.9563102722168 347.3885803222656 C 43.470420837402344 342.855224609375 38.952266693115234 348.0443115234375 38.61285400390625 333.820068359375 C 24.9837646484375 312.75537109375 44.38229751586914 313.2716064453125 12.8773832321167 313.5352783203125 C 14.92882251739502 366.6209716796875 4.413668155670166 353.1204833984375 31.488924026489258 355.850341796875 L 31.069555282592773 313.2734375" stroke-width="2.0" fill="rgb(1, 48, 107)" opacity="0.8888612"/>
    <path d="M 191.7234344482422 278.4811096191406 C 202.24893188476562 285.6700134277344 191.53573608398438 277.2072448730469 190.33824157714844 283.6746826171875 C 196.0626983642578 281.7807922363281 209.71334838867188 284.7346496582031 205.9950408935547 281.2332458496094 C 192.1875762939453 283.5496826171875 183.51394653320312 274.4814758300781 206.3782196044922 274.2286376953125 C 194.31573486328125 274.6483154296875 197.1814727783203 264.23443603515625 209.8278350830078 274.4218444824219 L 191.7234344482422 278.4811096191406" stroke-width="2.0" fill="rgb(147, 147, 145)" opacity="0.5128574"/>
    <path d="M 164.99465942382812 512.9260864257812 C 161.58245849609375 514.76806640625 163.2754669189453 516.9640502929688 157.06063842773438 526.66650390625 C 121.20875549316406 519.4195556640625 130.8475341796875 512.2003784179688 137.3162384033203 512.7278442382812 C 137.10736083984375 490.7160339355469 135.46327209472656 489.0484313964844 133.93231201171875 491.82879638671875 C 135.43601989746094 494.2513732910156 137.17132568359375 497.3616943359375 140.13267517089844 501.8632507324219 L 164.99465942382812 512.9260864257812" stroke-width="2.0" fill="rgb(200, 168, 117)" opacity="0.0"/>
    <path d="M 220.70785522460938 462.1678771972656 C 199.44224548339844 486.59014892578125 191.42355346679688 509.57403564453125 198.8689422607422 484.7244873046875 C 203.15455627441406 474.62615966796875 190.9492645263672 481.7384033203125 150.2820281982422 471.7131652832031 C 142.9451141357422 444.3723449707031 141.24069213867188 447.11956787109375 159.50393676757812 440.55487060546875 C 249.8606414794922 419.48419189453125 229.9576873779297 413.2225036621094 230.2946014404297 444.8819580078125 L 220.70785522460938 462.1678771972656" stroke-width="2.0" fill="rgb(253, 201, 136)" opacity="0.34369314"/>
    <path d="M 269.5985107421875 501.8961486816406 C 264.50518798828125 552.1456909179688 236.75680541992188 523.6506958007812 227.5214385986328 520.4476318359375 C 209.107177734375 520.1224365234375 205.48512268066406 521.1190795898438 180.20960998535156 520.056396484375 C 192.89202880859375 500.87408447265625 199.6706085205078 491.4105529785156 218.24526977539062 463.050048828125 C 247.81922912597656 463.02667236328125 247.38902282714844 473.57647705078125 256.55242919921875 481.8004150390625 L 269.5985107421875 501.8961486816406" stroke-width="2.0" fill="rgb(27, 38, 57)" opacity="0.3926402"/>
    <path d="M 191.89285278320312 341.85906982421875 C 173.1961212158203 369.8297119140625 194.25379943847656 364.208984375 158.29022216796875 363.8152770996094 C 149.7625274658203 362.7004089355469 156.06275939941406 365.0343322753906 149.03282165527344 358.1133728027344 C 146.34512329101562 355.2889404296875 147.6753692626953 348.4652099609375 147.80409240722656 322.9918518066406 C 172.85316467285156 323.668701171875 175.62261962890625 322.6836242675781 191.50486755371094 322.8507385253906 L 191.89285278320312 341.85906982421875" stroke-width="2.0" fill="rgb(72, 93, 127)" opacity="0.6376168"/>
    <path d="M 40.446842193603516 29.508249282836914 C 40.66997528076172 30.163084030151367 41.24384689331055 31.384735107421875 39.96623229980469 30.071809768676758 C 40.81781005859375 30.302438735961914 40.71071243286133 30.154569625854492 41.432735443115234 29.975645065307617 C 41.6594123840332 27.784223556518555 42.141902923583984 26.571535110473633 39.88336181640625 29.20380401611328 C 42.106483459472656 28.140230178833008 42.15382385253906 30.266876220703125 41.02989196777344 28.98008918762207 L 40.446842193603516 29.508249282836914" stroke-width="2.0" fill="rgb(162, 138, 119)" opacity="0.359036"/>
    <path d="M 383.6665954589844 364.1989440917969 C 380.3348693847656 365.76422119140625 380.9157409667969 368.4603271484375 382.7085266113281 361.3110046386719 C 380.2265625 359.29296875 376.2331237792969 361.2371826171875 372.1691589355469 361.7988586425781 C 378.0964050292969 358.745849609375 385.78582763671875 357.51580810546875 393.9085693359375 365.4359436035156 C 389.1785888671875 366.89349365234375 386.2088928222656 372.0838623046875 380.4394836425781 374.3777770996094 L 383.6665954589844 364.1989440917969" stroke-width="2.0" fill="rgb(227, 39, 238)" opacity="0.0"/>
    <path d="M 214.14266967773438 477.1508483886719 C 212.14462280273438 468.37738037109375 227.29046630859375 451.7175598144531 243.0491943359375 423.268310546875 C 257.1460266113281 476.25872802734375 252.04046630859375 480.56182861328125 242.92750549316406 474.5750427246094 C 243.7405242919922 470.513671875 249.6137237548828 471.9996032714844 248.0320587158203 476.2127685546875 C 243.7715606689453 468.4532165527344 246.11265563964844 472.7561950683594 238.9052276611328 471.9693908691406 L 214.14266967773438 477.1508483886719" stroke-width="2.0" fill="rgb(116, 125, 140)" opacity="1.0"/>
    <path d="M 64.23812866210938 473.47406005859375 C 62.026580810546875 471.3503112792969 62.387413024902344 471.223388671875 62.822654724121094 472.0565185546875 C 63.571266174316406 472.39862060546875 61.7286491394043 472.30364990234375 62.45420837402344 472.3280334472656 C 62.303192138671875 472.1224060058594 63.38748550415039 471.608642578125 64.26071166992188 473.5827941894531 C 64.8523941040039 469.9141540527344 64.4487075805664 472.2236328125 64.40400695800781 472.52703857421875 L 64.23812866210938 473.47406005859375" stroke-width="2.0" fill="rgb(85, 145, 125)" opacity="0.06281868"/>
    <path d="M 127.00841522216797 139.0479736328125 C 132.0593719482422 129.81222534179688 136.9168243408203 125.64253997802734 144.46859741210938 122.14946746826172 C 158.99693298339844 115.7684326171875 179.6522979736328 120.48738861083984 187.7998046875 145.17117309570312 C 192.07635498046875 173.53453063964844 185.08441162109375 141.96571350097656 182.01522827148438 147.25856018066406 C 175.16644287109375 144.31004333496094 121.10693359375 146.17581176757812 123.92366027832031 146.6455841064453 L 127.00841522216797 139.0479736328125" stroke-width="2.0" fill="rgb(1, 52, 119)" opacity="0.88708144"/>
    <path d="M 131.91896057128906 167.2196044921875 C 91.61859893798828 172.22821044921875 108.23602294921875 168.39300537109375 103.48821258544922 140.8385467529297 C 120.29714965820312 148.67312622070312 121.70158386230469 130.81954956054688 86.48454284667969 131.61007690429688 C 66.65033721923828 149.13238525390625 93.37862396240234 135.92520141601562 69.55635070800781 145.35731506347656 C 70.88744354248047 69.99546813964844 58.098262786865234 127.02298736572266 101.28717803955078 120.01825714111328 L 131.91896057128906 167.2196044921875" stroke-width="2.0" fill="rgb(255, 248, 228)" opacity="0.8890739"/>
    <path d="M 390.5969543457031 471.9051513671875 C 390.341552734375 472.42181396484375 390.0989074707031 471.6612243652344 392.4994812011719 473.4196472167969 C 391.47821044921875 472.9866027832031 389.7467346191406 471.4378356933594 390.89776611328125 472.6759338378906 C 389.4640808105469 470.3154296875 388.83697509765625 470.3721618652344 387.7578430175781 470.97332763671875 C 389.6485900878906 469.5147399902344 390.6949768066406 472.853271484375 390.4980773925781 471.68896484375 L 390.5969543457031 471.9051513671875" stroke-width="2.0" fill="rgb(132, 181, 152)" opacity="0.00032800174"/>
    <path d="M 264.00390625 415.5056457519531 C 239.82652282714844 420.5987548828125 226.85958862304688 422.9799499511719 254.79283142089844 418.8553771972656 C 189.14707946777344 427.3458251953125 168.0070037841797 444.8392333984375 182.1474151611328 419.56024169921875 C 203.37985229492188 365.86785888671875 219.2383270263672 412.6221618652344 217.18234252929688 333.78607177734375 C 239.40164184570312 334.8645324707031 210.1203155517578 369.2008972167969 242.92877197265625 380.23931884765625 L 264.00390625 415.5056457519531" stroke-width="2.0" fill="rgb(23, 47, 85)" opacity="0.960423"/>
    <path d="M 307.12353515625 406.32769775390625 C 264.5664367675781 359.89447021484375 256.8193054199219 354.5375671386719 258.0118103027344 354.34130859375 C 261.8182067871094 365.4651794433594 252.82684326171875 354.3818054199219 255.4145965576172 372.0394287109375 C 263.89910888671875 369.140625 263.2950134277344 374.1213073730469 256.19207763671875 348.44940185546875 C 296.43878173828125 341.8489990234375 202.6245880126953 346.45904541015625 176.1417694091797 434.46282958984375 L 307.12353515625 406.32769775390625" stroke-width="2.0" fill="rgb(156, 160, 168)" opacity="0.68314874"/>
    <path d="M 304.81884765625 177.9960479736328 C 269.3923034667969 189.75674438476562 305.771728515625 164.12063598632812 261.8092041015625 149.5719757080078 C 323.7193603515625 145.0287628173828 348.4058532714844 166.9414825439453 423.74444580078125 172.79795837402344 C 421.54620361328125 185.898681640625 367.8062744140625 175.6909942626953 396.26715087890625 180.22650146484375 C 345.9781188964844 180.45681762695312 339.0392761230469 180.84088134765625 297.0304870605469 180.6034698486328 L 304.81884765625 177.9960479736328" stroke-width="2.0" fill="rgb(186, 99, 1)" opacity="0.3587403"/>
    <path d="M 67.08673858642578 398.0091857910156 C 159.7305450439453 417.3495178222656 138.38743591308594 377.02093505859375 116.02207946777344 399.28790283203125 C 122.49036407470703 384.1393127441406 126.46841430664062 381.0736389160156 130.9522705078125 382.0955505371094 C 122.08212280273438 385.12115478515625 127.17047119140625 387.5940856933594 119.02099609375 387.0245666503906 C 125.90034484863281 406.59698486328125 117.07469177246094 348.7080383300781 67.30107879638672 300.8755798339844 L 67.08673858642578 398.0091857910156" stroke-width="2.0" fill="rgb(248, 239, 223)" opacity="0.85303056"/>
    <path d="M 73.02516174316406 69.7919692993164 C 70.96099090576172 67.89248657226562 71.04444885253906 68.02484893798828 72.96692657470703 69.69974517822266 C 73.07360076904297 70.25437927246094 73.44084930419922 68.67190551757812 73.64081573486328 68.5388412475586 C 71.90857696533203 72.1073226928711 73.34197235107422 71.33282470703125 74.6117172241211 72.57925415039062 C 71.31472778320312 70.31352996826172 72.45121765136719 70.59021759033203 72.79186248779297 71.36639404296875 L 73.02516174316406 69.7919692993164" stroke-width="2.0" fill="rgb(111, 161, 233)" opacity="0.122771"/>
    <path d="M 146.58445739746094 489.84967041015625 C 136.943115234375 506.5843200683594 133.7067108154297 501.9892883300781 141.21524047851562 523.4308471679688 C 70.25811004638672 520.0108642578125 78.46308135986328 508.6186218261719 85.52058410644531 488.3976135253906 C 82.03794860839844 445.6457824707031 83.25179290771484 460.0019836425781 91.75752258300781 456.0198974609375 C 124.90071105957031 448.88873291015625 134.78668212890625 447.6349182128906 166.97891235351562 438.7584228515625 L 146.58445739746094 489.84967041015625" stroke-width="2.0" fill="rgb(200, 186, 168)" opacity="1.0"/>
    <path d="M 66.74545288085938 345.4659118652344 C 67.68475341796875 324.3201904296875 67.55413055419922 353.12225341796875 48.53422927856445 419.0789794921875 C 45.896270751953125 420.8796081542969 69.04493713378906 419.4937438964844 63.415679931640625 421.7900390625 C 59.51569366455078 415.0308837890625 64.78292846679688 408.84991455078125 64.09956359863281 401.3854064941406 C 65.49629974365234 406.9497375488281 56.57394027709961 420.7342224121094 67.46007537841797 427.03668212890625 L 66.74545288085938 345.4659118652344" stroke-width="2.0" fill="rgb(119, 135, 158)" opacity="0.39474493"/>
    <path d="M 320.4350891113281 407.59375 C 315.28082275390625 410.74163818359375 323.029052734375 418.4389953613281 344.7684326171875 444.1620178222656 C 334.7942199707031 437.6259460449219 331.5913391113281 425.1759948730469 333.52880859375 426.847900390625 C 331.9897766113281 424.013916015625 325.519287109375 437.3893127441406 383.82354736328125 474.1412353515625 C 371.6374816894531 421.59442138671875 339.19281005859375 429.86114501953125 336.5097351074219 415.4366760253906 L 320.4350891113281 407.59375" stroke-width="2.0" fill="rgb(181, 101, 55)" opacity="0.027612818"/>
    <path d="M 227.17733764648438 76.21269989013672 C 227.40020751953125 75.77354431152344 228.08494567871094 74.630126953125 228.2541046142578 73.2070083618164 C 230.8641357421875 75.61862182617188 229.30447387695312 74.64785766601562 230.10647583007812 73.90934753417969 C 228.6582794189453 75.48241424560547 230.4401397705078 74.1507797241211 229.4512176513672 74.99040985107422 C 228.09414672851562 71.52565002441406 226.58570861816406 76.17232513427734 228.550048828125 80.54747009277344 L 227.17733764648438 76.21269989013672" stroke-width="2.0" fill="rgb(104, 179, 195)" opacity="0.0"/>
    <path d="M 212.00613403320312 173.26962280273438 C 209.51028442382812 176.8284149169922 210.37461853027344 185.1685028076172 210.3787078857422 203.35655212402344 C 210.35107421875 194.3805389404297 213.13990783691406 157.03762817382812 207.2355499267578 177.4778594970703 C 200.72042846679688 208.71238708496094 198.0380401611328 135.7961883544922 208.19496154785156 141.12037658691406 C 209.15377807617188 190.14956665039062 202.3148193359375 194.72760009765625 201.6493682861328 172.41680908203125 L 212.00613403320312 173.26962280273438" stroke-width="2.0" fill="rgb(12, 30, 71)" opacity="0.63038033"/>
    <path d="M 135.9785919189453 195.43727111816406 C 132.8250274658203 237.0403289794922 133.10247802734375 234.733154296875 177.81561279296875 236.87301635742188 C 148.96530151367188 235.84994506835938 124.84993743896484 234.94729614257812 135.33692932128906 215.57693481445312 C 130.74432373046875 269.2032165527344 172.50921630859375 209.63043212890625 200.98641967773438 266.7528076171875 C 194.00411987304688 121.23556518554688 112.1715316772461 235.0882110595703 137.67198181152344 240.61526489257812 L 135.9785919189453 195.43727111816406" stroke-width="2.0" fill="rgb(82, 63, 40)" opacity="0.16016355"/>
    <path d="M 281.9536437988281 259.0193176269531 C 381.4253845214844 309.853271484375 328.6842956542969 315.1872253417969 389.1774597167969 293.53033447265625 C 421.1043701171875 302.4745178222656 420.803955078125 299.65240478515625 419.8015441894531 350.28863525390625 C 418.0389099121094 348.92120361328125 382.2517395019531 304.032958984375 394.03289794921875 340.0003662109375 C 315.30267333984375 322.559326171875 377.80462646484375 369.6796569824219 373.3284606933594 327.14862060546875 L 281.9536437988281 259.0193176269531" stroke-width="2.0" fill="rgb(56, 59, 74)" opacity="0.8390196"/>
    <path d="M 234.18276977539062 179.21005249023438 C 233.3682098388672 150.8529510498047 235.4720001220703 156.62664794921875 229.1386260986328 156.14015197753906 C 226.41488647460938 171.63455200195312 235.4467010498047 173.51217651367188 216.63186645507812 203.19993591308594 C 213.9957275390625 157.1967315673828 220.75733947753906 155.03395080566406 208.02232360839844 139.31582641601562 C 211.89334106445312 180.59854125976562 280.8408508300781 115.20293426513672 288.6095886230469 181.32798767089844 L 234.18276977539062 179.21005249023438" stroke-width="2.0" fill="rgb(5, 20, 52)" opacity="0.5711665"/>
    <path d="M 467.4030456542969 297.07568359375 C 355.68194580078125 378.4508056640625 424.4422912597656 290.64202880859375 379.4464416503906 344.6382751464844 C 395.9294128417969 292.4452209472656 350.7637634277344 281.14947509765625 370.90374755859375 290.5262145996094 C 390.6614990234375 293.1018371582031 394.3096618652344 286.5150451660156 419.3863830566406 292.6144714355469 C 402.1147155761719 283.183837890625 372.4302062988281 299.2914123535156 364.9459533691406 284.60687255859375 L 467.4030456542969 297.07568359375" stroke-width="2.0" fill="rgb(2, 100, 184)" opacity="0.61236405"/>
    <path d="M 40.770809173583984 195.1428680419922 C 19.60281753540039 210.92356872558594 17.457061767578125 226.85177612304688 17.82008934020996 218.8957977294922 C 17.019447326660156 217.84840393066406 33.18669891357422 221.57485961914062 20.32229232788086 218.80462646484375 C -31.659196853637695 217.32537841796875 28.673526763916016 120.18449401855469 14.130791664123535 186.04852294921875 C 113.16706848144531 193.98220825195312 71.32672882080078 150.21693420410156 61.29197311401367 187.52854919433594 L 40.770809173583984 195.1428680419922" stroke-width="2.0" fill="rgb(255, 255, 242)" opacity="0.5640403"/>
    <path d="M 338.02001953125 410.496826171875 C 365.2718200683594 432.5478820800781 413.2198181152344 477.5963134765625 342.8924865722656 414.9355773925781 C 318.39923095703125 396.50921630859375 315.053955078125 390.45538330078125 297.9145812988281 375.927490234375 C 284.5674133300781 369.1366882324219 293.4301452636719 358.27716064453125 297.21087646484375 362.5275573730469 C 319.9859619140625 393.3575744628906 302.61962890625 384.87176513671875 337.6959533691406 385.6365661621094 L 338.02001953125 410.496826171875" stroke-width="2.0" fill="rgb(0, 5, 26)" opacity="0.4586533"/>
    <path d="M 395.68084716796875 -15.302722930908203 C 298.8779296875 59.973052978515625 207.10374450683594 70.96528625488281 224.80197143554688 146.21170043945312 C 128.4510498046875 186.16920471191406 202.14918518066406 152.41139221191406 155.00137329101562 121.22530364990234 C 186.0455322265625 -55.80962371826172 168.2946319580078 -46.62485885620117 230.97125244140625 -8.606558799743652 C 280.0548400878906 -1.6495044231414795 280.66473388671875 -4.448808670043945 425.097900390625 -11.215237617492676 L 395.68084716796875 -15.302722930908203" stroke-width="2.0" fill="rgb(108, 129, 158)" opacity="0.58405113"/>
    <path d="M 18.25804328918457 485.9501037597656 C 16.279024124145508 483.9987487792969 16.763931274414062 483.57464599609375 17.0797176361084 484.2620544433594 C 19.21868896484375 486.4261169433594 18.599014282226562 484.5264892578125 18.82962989807129 484.8051452636719 C 18.051401138305664 485.240234375 19.503950119018555 484.4273986816406 18.883014678955078 486.4525146484375 C 17.48775291442871 484.301513671875 18.459320068359375 484.8426513671875 19.16993522644043 485.9853515625 L 18.25804328918457 485.9501037597656" stroke-width="2.0" fill="rgb(36, 218, 194)" opacity="0.0"/>
    <path d="M 239.87525939941406 315.3868408203125 C 246.00462341308594 312.2251892089844 251.0464630126953 307.8798522949219 254.44528198242188 304.4715576171875 C 246.93191528320312 312.4639892578125 228.4458770751953 324.1319274902344 235.41128540039062 307.61968994140625 C 244.92529296875 283.54168701171875 266.12615966796875 282.0736083984375 275.3923645019531 284.5572814941406 C 251.4786376953125 282.64215087890625 237.83700561523438 298.06353759765625 235.04522705078125 314.88873291015625 L 239.87525939941406 315.3868408203125" stroke-width="2.0" fill="rgb(17, 45, 80)" opacity="0.6729083"/>
    <path d="M 228.8233642578125 386.875 C 223.56370544433594 358.2933349609375 209.94805908203125 395.8910827636719 199.04901123046875 396.0130920410156 C 124.76300811767578 392.6690979003906 140.48194885253906 395.29791259765625 137.78744506835938 392.750732421875 C 141.1666717529297 391.0010070800781 160.4200439453125 377.04449462890625 177.3707275390625 365.631591796875 C 202.62689208984375 329.79974365234375 174.8677978515625 332.0163879394531 226.36251831054688 360.19866943359375 L 228.8233642578125 386.875" stroke-width="2.0" fill="rgb(116, 125, 141)" opacity="0.9841091"/>
    <path d="M 425.72613525390625 309.04010009765625 C 390.8583068847656 285.048095703125 379.3379211425781 299.22637939453125 364.1861572265625 302.9544677734375 C 382.282470703125 303.0591125488281 374.1634216308594 316.3037414550781 395.77276611328125 311.64501953125 C 384.7446594238281 300.93316650390625 391.1459655761719 300.275390625 389.15582275390625 319.4974670410156 C 386.9842529296875 301.3984069824219 391.492919921875 301.60565185546875 394.9762878417969 314.42974853515625 L 425.72613525390625 309.04010009765625" stroke-width="2.0" fill="rgb(243, 255, 255)" opacity="0.09442202"/>
    <path d="M 283.0320129394531 525.2463989257812 C 285.6343994140625 512.3048095703125 288.15576171875 515.7587280273438 272.07940673828125 526.0365600585938 C 212.09637451171875 519.6366577148438 226.04090881347656 500.05169677734375 206.05760192871094 498.5055236816406 C 212.41001892089844 450.27740478515625 239.44837951660156 459.0552673339844 229.75845336914062 412.5650939941406 C 290.0642395019531 423.2457580566406 266.8647155761719 439.9774475097656 291.0805358886719 448.9196472167969 L 283.0320129394531 525.2463989257812" stroke-width="2.0" fill="rgb(116, 125, 137)" opacity="0.78671604"/>
    <path d="M 38.860660552978516 454.43255615234375 C 38.01133728027344 454.0707702636719 38.50587844848633 454.600341796875 38.801170349121094 452.8963317871094 C 38.67161560058594 453.891845703125 38.641441345214844 453.8310241699219 38.2225227355957 453.72802734375 C 39.2781982421875 455.4514465332031 41.13229751586914 454.787109375 40.96261978149414 457.6014709472656 C 37.04670333862305 456.7098083496094 37.68387985229492 456.4777526855469 36.276634216308594 456.7978820800781 L 38.860660552978516 454.43255615234375" stroke-width="2.0" fill="rgb(163, 107, 150)" opacity="0.06228081"/>
    <path d="M 216.1797332763672 301.7811279296875 C 206.29209899902344 300.4981384277344 208.68910217285156 304.1408996582031 212.4710235595703 308.84063720703125 C 216.22227478027344 311.11505126953125 217.08990478515625 304.81561279296875 220.96722412109375 309.9470520019531 C 214.37232971191406 308.71722412109375 215.24620056152344 308.148193359375 216.07269287109375 310.0230712890625 C 213.40286254882812 309.6250305175781 214.09156799316406 309.7228698730469 216.5189666748047 309.63018798828125 L 216.1797332763672 301.7811279296875" stroke-width="2.0" fill="rgb(231, 141, 94)" opacity="0.03171854"/>
    <path d="M 125.80742645263672 447.6919860839844 C 57.283084869384766 464.8017578125 42.45914840698242 464.9466247558594 40.10135269165039 467.22137451171875 C 43.6661376953125 465.3775329589844 39.531490325927734 466.5402526855469 -1.7695354223251343 476.035400390625 C 9.56570816040039 441.9123229980469 12.027179718017578 437.43170166015625 -1.490565299987793 474.09466552734375 C 41.67097091674805 464.9830017089844 58.71848678588867 460.9335021972656 81.09223175048828 456.3674621582031 L 125.80742645263672 447.6919860839844" stroke-width="2.0" fill="rgb(83, 84, 75)" opacity="0.25149956"/>
    <path d="M 211.00479125976562 167.68777465820312 C 209.51248168945312 192.50282287597656 202.18653869628906 203.00950622558594 218.72340393066406 201.83766174316406 C 209.43324279785156 213.44483947753906 208.2632598876953 191.6358642578125 210.18431091308594 180.03538513183594 C 206.3848114013672 215.8796844482422 203.0216064453125 212.4561767578125 209.53204345703125 200.05630493164062 C 206.33819580078125 203.0167999267578 207.6356201171875 212.14398193359375 206.90142822265625 174.8663330078125 L 211.00479125976562 167.68777465820312" stroke-width="2.0" fill="rgb(151, 161, 177)" opacity="0.94059545"/>
    <path d="M 307.85736083984375 161.6251220703125 C 230.6094512939453 148.79685974121094 317.70538330078125 199.91122436523438 262.5311279296875 192.73875427246094 C 267.57513427734375 173.3970947265625 241.90200805664062 203.21266174316406 249.06427001953125 166.23593139648438 C 233.7094268798828 180.41139221191406 233.97410583496094 154.80906677246094 242.25 155.4622039794922 C 234.78648376464844 148.64312744140625 315.0838623046875 140.4580078125 358.0117492675781 168.09487915039062 L 307.85736083984375 161.6251220703125" stroke-width="2.0" fill="rgb(84, 97, 122)" opacity="0.62301856"/>
    <path d="M 92.24333190917969 455.7315368652344 C 33.16498565673828 467.3470153808594 30.40372657775879 469.9190368652344 24.060047149658203 469.18341064453125 C 31.019935607910156 469.3963317871094 22.110750198364258 470.1379089355469 -14.460484504699707 478.89801025390625 C -13.948152542114258 429.35882568359375 -13.965718269348145 426.80181884765625 -18.433246612548828 420.1039733886719 C 43.42264938354492 415.494873046875 52.83804702758789 422.6091003417969 69.13972473144531 432.8669738769531 L 92.24333190917969 455.7315368652344" stroke-width="2.0" fill="rgb(54, 55, 68)" opacity="0.41235587"/>
    <path d="M 251.41848754882812 63.52665328979492 C 248.42384338378906 55.515655517578125 245.61776733398438 61.273414611816406 236.73843383789062 55.7762565612793 C 246.79067993164062 50.89848327636719 248.30332946777344 53.63666915893555 251.17652893066406 55.279056549072266 C 247.00770568847656 57.01325225830078 248.0138702392578 55.070335388183594 249.51942443847656 55.968666076660156 C 249.0286102294922 56.96165466308594 252.20013427734375 60.47603225708008 243.2468719482422 58.86351013183594 L 251.41848754882812 63.52665328979492" stroke-width="2.0" fill="rgb(255, 177, 117)" opacity="0.02483936"/>
    <path d="M 120.30683135986328 407.7625732421875 C 109.07803344726562 406.807373046875 117.50472259521484 425.7710876464844 111.83055877685547 424.96142578125 C 121.0069580078125 425.53656005859375 107.0067138671875 427.6210632324219 67.77054595947266 438.2507019042969 C 63.89392852783203 308.56524658203125 84.51692962646484 404.0849914550781 100.59473419189453 239.33924865722656 C 115.64896392822266 373.617919921875 95.85042572021484 358.510986328125 119.9522705078125 351.8759765625 L 120.30683135986328 407.7625732421875" stroke-width="2.0" fill="rgb(255, 246, 226)" opacity="0.74238324"/>
    <path d="M 50.0365104675293 316.4652099609375 C 38.955204010009766 316.7166442871094 19.419414520263672 302.0940856933594 2.378429651260376 318.9006652832031 C -5.491755962371826 338.9282531738281 -9.315857887268066 326.6810607910156 -17.11376953125 310.9294128417969 C -11.21375560760498 280.5756530761719 -12.38465404510498 279.5589904785156 -20.290552139282227 275.9489440917969 C 21.09605598449707 275.48443603515625 45.21271896362305 275.917236328125 66.50602722167969 276.0247802734375 L 50.0365104675293 316.4652099609375" stroke-width="2.0" fill="rgb(158, 164, 175)" opacity="1.0"/>
    <path d="M 325.6114501953125 488.3102111816406 C 326.44232177734375 490.2551574707031 317.6318054199219 478.3986511230469 313.32568359375 472.66058349609375 C 310.2577819824219 469.6466979980469 307.0467834472656 465.9718933105469 284.06610107421875 439.7628173828125 C 307.70013427734375 402.49462890625 290.4353332519531 384.101318359375 347.877197265625 452.2624816894531 C 414.1100158691406 545.7249755859375 440.63128662109375 514.519287109375 342.02667236328125 508.1270446777344 L 325.6114501953125 488.3102111816406" stroke-width="2.0" fill="rgb(33, 64, 109)" opacity="0.10517401"/>
    <path d="M 234.1139678955078 179.05284118652344 C 297.3523254394531 201.98976135253906 313.4007873535156 222.8517608642578 226.20904541015625 244.7523651123047 C 214.6841583251953 207.1925048828125 248.6817169189453 146.4251708984375 212.38099670410156 212.1033172607422 C 203.6492156982422 116.82303619384766 224.6475830078125 213.7924346923828 222.43565368652344 156.3316192626953 C 240.08290100097656 156.19090270996094 234.0204315185547 156.16342163085938 233.88796997070312 156.364013671875 L 234.1139678955078 179.05284118652344" stroke-width="2.0" fill="rgb(255, 243, 219)" opacity="0.6361495"/>
    <path d="M 185.55117797851562 111.65467834472656 C 185.08990478515625 110.4965591430664 185.2014617919922 109.48882293701172 186.14610290527344 113.0374984741211 C 185.26805114746094 111.2086410522461 185.23974609375 110.2291488647461 183.96209716796875 109.47868347167969 C 182.9442138671875 110.14451599121094 185.22747802734375 108.57615661621094 185.57174682617188 112.4260482788086 C 185.707275390625 110.95872497558594 186.08230590820312 113.0555191040039 185.8974609375 114.24990844726562 L 185.55117797851562 111.65467834472656" stroke-width="2.0" fill="rgb(134, 130, 147)" opacity="0.14083071"/>
    <path d="M 17.266738891601562 63.82741165161133 C 12.71080493927002 64.57498168945312 11.185924530029297 66.55718994140625 13.790528297424316 65.27684020996094 C 13.458277702331543 68.8940658569336 12.176628112792969 66.5254135131836 14.840307235717773 66.98698425292969 C 13.084525108337402 69.12159729003906 14.129507064819336 68.17910766601562 14.003531455993652 68.4319076538086 C 12.282744407653809 65.61383819580078 13.585927963256836 68.20101165771484 18.276039123535156 72.89044952392578 L 17.266738891601562 63.82741165161133" stroke-width="2.0" fill="rgb(115, 216, 54)" opacity="0.0"/>
    <path d="M 67.33707427978516 316.3196105957031 C 67.415771484375 274.68939208984375 65.73945617675781 288.9435729980469 69.42755126953125 303.94915771484375 C 61.219139099121094 264.8092956542969 82.81533813476562 271.7796325683594 30.759897232055664 295.6738586425781 C 34.25786590576172 385.147216796875 67.10335540771484 432.5006103515625 67.22333526611328 316.76953125 C 8.838460922241211 310.8037109375 13.445144653320312 317.1419677734375 -6.6592864990234375 311.42132568359375 L 67.33707427978516 316.3196105957031" stroke-width="2.0" fill="rgb(157, 164, 176)" opacity="1.0"/>
    <path d="M 228.65274047851562 320.4055480957031 C 319.77972412109375 349.4722900390625 238.3461456298828 344.4779052734375 335.6693115234375 344.1163635253906 C 293.26678466796875 343.2835693359375 270.72003173828125 342.58221435546875 292.9980773925781 349.11199951171875 C 276.8880920410156 353.3742370605469 345.2635803222656 351.1488952636719 347.3304138183594 348.7974853515625 C 304.9398193359375 334.9246520996094 295.2453308105469 328.2785339355469 357.02484130859375 330.2647705078125 L 228.65274047851562 320.4055480957031" stroke-width="2.0" fill="rgb(255, 250, 235)" opacity="0.7513282"/>
    <path d="M 277.7833251953125 324.2228698730469 C 264.24420166015625 324.76348876953125 278.7337951660156 324.90478515625 262.2640380859375 324.8221130371094 C 243.5863800048828 319.1592712402344 231.49151611328125 315.5059814453125 233.4676513671875 314.30120849609375 C 249.39889526367188 272.0913391113281 255.41468811035156 302.83685302734375 251.8411102294922 275.46429443359375 C 269.2831115722656 263.4501647949219 252.59402465820312 272.72283935546875 269.91845703125 307.8389587402344 L 277.7833251953125 324.2228698730469" stroke-width="2.0" fill="rgb(4, 29, 83)" opacity="0.64188147"/>
    <path d="M 54.56306457519531 245.03440856933594 C 29.958194732666016 294.64825439453125 34.347137451171875 257.4201965332031 31.6044864654541 266.7970275878906 C 62.27498245239258 291.2457580566406 68.0711669921875 208.48876953125 54.14458465576172 227.76531982421875 C 54.75838851928711 264.4071044921875 54.35564041137695 271.0588684082031 60.408206939697266 245.77069091796875 C 52.77121353149414 236.3135986328125 36.49412536621094 278.36517333984375 54.560394287109375 270.4703369140625 L 54.56306457519531 245.03440856933594" stroke-width="2.0" fill="rgb(0, 45, 102)" opacity="0.25551885"/>
    <path d="M 80.7294692993164 116.65328979492188 C 64.49920654296875 122.39437866210938 66.41273498535156 54.08938217163086 63.05351638793945 160.34022521972656 C 58.976409912109375 63.1107177734375 55.0368766784668 81.49613189697266 17.597721099853516 87.13323211669922 C 36.81092834472656 52.03734588623047 43.56391525268555 54.59539794921875 41.1937370300293 39.44881057739258 C 60.6181755065918 45.6191291809082 59.55630111694336 51.24758529663086 81.97578430175781 56.12125015258789 L 80.7294692993164 116.65328979492188" stroke-width="2.0" fill="rgb(255, 255, 255)" opacity="0.37596744"/>
    <path d="M 124.63333129882812 146.68812561035156 C 128.3775177001953 147.40382385253906 127.83140563964844 158.7476043701172 125.89547729492188 153.20303344726562 C 130.03285217285156 138.89552307128906 124.92304992675781 152.5747833251953 122.32648468017578 150.87005615234375 C 121.57271575927734 213.2964630126953 126.62637329101562 202.4595184326172 135.13888549804688 193.36561584472656 C 126.61892700195312 145.681640625 128.61148071289062 141.347900390625 126.33704376220703 151.97328186035156 L 124.63333129882812 146.68812561035156" stroke-width="2.0" fill="rgb(170, 176, 187)" opacity="1.0"/>
    <path d="M 117.81643676757812 192.21739196777344 C 127.836181640625 205.69964599609375 127.22239685058594 216.50320434570312 129.08523559570312 214.92189025878906 C 69.57897186279297 215.54458618164062 73.70301055908203 214.78074645996094 45.33475875854492 215.4852752685547 C 50.15550994873047 198.50723266601562 55.233131408691406 186.23912048339844 57.314170837402344 190.87144470214844 C 70.68814849853516 173.92941284179688 102.3111572265625 176.12893676757812 112.80098724365234 187.3856964111328 L 117.81643676757812 192.21739196777344" stroke-width="2.0" fill="rgb(16, 63, 124)" opacity="0.9493454"/>
    <path d="M 5.078561782836914 14.072835922241211 C 1.6882002353668213 21.554214477539062 2.4998281002044678 23.192737579345703 8.65962028503418 15.163718223571777 C 1.421970248222351 17.801345825195312 4.4688897132873535 18.489084243774414 3.309898853302002 22.322202682495117 C 4.774111747741699 19.11349105834961 8.924755096435547 15.956578254699707 4.4608235359191895 21.761470794677734 C 0.47017836570739746 14.226189613342285 3.577969551086426 13.888448715209961 4.323943614959717 18.161706924438477 L 5.078561782836914 14.072835922241211" stroke-width="2.0" fill="rgb(108, 125, 209)" opacity="0.098568276"/>
    <path d="M 200.3367156982422 309.129638671875 C 296.6815185546875 344.8956604003906 249.373046875 327.9521484375 250.21153259277344 333.5333251953125 C 303.10296630859375 329.8960876464844 268.990966796875 318.5213623046875 289.49017333984375 369.2182312011719 C 288.6868591308594 363.7018737792969 268.9859313964844 344.1000061035156 256.7848205566406 338.3222961425781 C 273.1505432128906 360.6648254394531 289.798583984375 357.638671875 237.01190185546875 350.2433166503906 L 200.3367156982422 309.129638671875" stroke-width="2.0" fill="rgb(169, 173, 182)" opacity="1.0"/>
    <path d="M 171.04420471191406 475.864990234375 C 167.15554809570312 476.1567687988281 167.47389221191406 478.0616455078125 170.31036376953125 478.41741943359375 C 169.51870727539062 480.85528564453125 168.91390991210938 478.1153564453125 170.46810913085938 479.18145751953125 C 169.31622314453125 480.1192932128906 171.1984100341797 478.5209655761719 170.57423400878906 479.25482177734375 C 168.5428924560547 478.0721740722656 170.00791931152344 479.4306640625 169.79302978515625 480.62567138671875 L 171.04420471191406 475.864990234375" stroke-width="2.0" fill="rgb(175, 191, 227)" opacity="0.148878"/>
    <path d="M 135.54751586914062 99.23175048828125 C 135.026611328125 98.82542419433594 134.5567626953125 98.55447387695312 134.59356689453125 98.69902038574219 C 136.0550079345703 100.18899536132812 135.6720733642578 99.24565887451172 136.6082305908203 98.90801239013672 C 135.02818298339844 100.0114517211914 136.14378356933594 99.70716857910156 136.88693237304688 99.8088607788086 C 135.33193969726562 99.71199035644531 135.49002075195312 101.18814849853516 134.4660186767578 101.9180679321289 L 135.54751586914062 99.23175048828125" stroke-width="2.0" fill="rgb(252, 104, 129)" opacity="0.063913755"/>
    <path d="M 169.90574645996094 198.39906311035156 C 183.20010375976562 201.70904541015625 182.9564666748047 198.83551025390625 179.1715087890625 204.7029266357422 C 186.29598999023438 195.54039001464844 178.95945739746094 201.85768127441406 214.48333740234375 225.3082733154297 C 163.1915740966797 189.1934814453125 158.24652099609375 169.1703338623047 110.58273315429688 219.56967163085938 C 112.6875228881836 371.3153076171875 192.14173889160156 249.75401306152344 183.12550354003906 201.0056610107422 L 169.90574645996094 198.39906311035156" stroke-width="2.0" fill="rgb(255, 247, 223)" opacity="0.8420386"/>
    <path d="M 247.23777770996094 231.306396484375 C 246.0624237060547 230.30264282226562 246.13677978515625 227.42005920410156 254.2204132080078 210.8846435546875 C 249.1434783935547 222.89588928222656 243.4182891845703 234.37159729003906 250.75369262695312 231.666015625 C 238.40199279785156 230.60870361328125 240.1600799560547 239.2504425048828 240.6026611328125 211.70025634765625 C 261.4348449707031 214.05783081054688 252.75933837890625 203.9886474609375 255.4355926513672 231.66380310058594 L 247.23777770996094 231.306396484375" stroke-width="2.0" fill="rgb(25, 59, 98)" opacity="0.5081005"/>
    <path d="M 177.69778442382812 244.10324096679688 C 180.67271423339844 248.40245056152344 115.67485809326172 244.92076110839844 171.5181121826172 245.7510986328125 C 210.07139587402344 280.3741455078125 141.36639404296875 300.24810791015625 148.08062744140625 246.76043701171875 C 128.0376434326172 244.6181640625 135.07810974121094 258.4488220214844 132.66737365722656 213.90884399414062 C 177.7777862548828 201.9638671875 188.3334503173828 188.3447265625 183.01507568359375 221.06655883789062 L 177.69778442382812 244.10324096679688" stroke-width="2.0" fill="rgb(0, 18, 74)" opacity="0.28481805"/>
    <path d="M 153.8756866455078 471.7979431152344 C 150.79176330566406 472.27239990234375 150.27613830566406 473.2202453613281 151.75631713867188 468.9136047363281 C 153.24703979492188 473.42498779296875 152.56716918945312 471.721435546875 154.0424346923828 471.4833068847656 C 152.14892578125 474.01202392578125 153.75584411621094 472.9674377441406 154.41787719726562 473.78631591796875 C 152.33360290527344 472.5075378417969 152.66368103027344 473.7077941894531 151.38336181640625 474.86761474609375 L 153.8756866455078 471.7979431152344" stroke-width="2.0" fill="rgb(152, 187, 46)" opacity="0.028077083"/>
    <path d="M 182.82835388183594 153.8959503173828 C 179.01756286621094 155.23326110839844 180.37982177734375 151.1591339111328 179.95767211914062 171.89735412597656 C 172.33009338378906 170.47695922851562 173.8708038330078 175.91497802734375 173.14920043945312 163.7403106689453 C 174.70840454101562 140.84747314453125 167.06053161621094 147.71438598632812 189.81495666503906 148.73509216308594 C 204.5171661376953 204.59759521484375 183.83688354492188 219.34896850585938 187.7168731689453 180.92721557617188 L 182.82835388183594 153.8959503173828" stroke-width="2.0" fill="rgb(248, 244, 228)" opacity="0.9981662"/>
    <path d="M 206.56817626953125 83.9032974243164 C 227.62228393554688 87.17842864990234 217.49520874023438 85.9888916015625 241.69972229003906 76.11840057373047 C 281.5115966796875 56.597679138183594 296.06024169921875 46.31056594848633 259.5915832519531 70.40381622314453 C 228.3270263671875 93.37694549560547 234.32443237304688 101.5927963256836 225.23829650878906 104.26457214355469 C 230.36419677734375 109.8899154663086 234.01763916015625 117.75425720214844 228.75726318359375 105.02470397949219 L 206.56817626953125 83.9032974243164" stroke-width="2.0" fill="rgb(196, 201, 205)" opacity="0.65355027"/>
    <path d="M 199.23916625976562 247.13673400878906 C 175.30319213867188 255.47862243652344 186.43191528320312 220.01901245117188 165.3543701171875 258.39434814453125 C 173.94349670410156 218.83628845214844 149.58604431152344 314.4732666015625 180.67584228515625 279.31317138671875 C 157.30101013183594 284.8701477050781 193.23013305664062 213.56524658203125 186.3223114013672 283.0970458984375 C 173.99842834472656 304.6676025390625 170.66464233398438 205.05328369140625 198.74642944335938 282.126953125 L 199.23916625976562 247.13673400878906" stroke-width="2.0" fill="rgb(250, 243, 225)" opacity="0.99487233"/>
    <path d="M 85.07898712158203 68.4837417602539 C 85.48643493652344 68.80223083496094 85.6390151977539 67.48016357421875 85.2154541015625 66.71929168701172 C 85.9902114868164 67.8488540649414 84.40892791748047 67.4213638305664 85.59172821044922 67.49420928955078 C 85.54093170166016 69.20484161376953 87.36566925048828 71.13247680664062 88.45294952392578 68.3914794921875 C 85.97663879394531 68.33756256103516 85.41368865966797 69.61888122558594 84.21158599853516 69.77212524414062 L 85.07898712158203 68.4837417602539" stroke-width="2.0" fill="rgb(209, 183, 89)" opacity="0.32948464"/>
    <path d="M 413.58782958984375 221.0676727294922 C 384.12164306640625 224.26536560058594 372.2235107421875 224.7579345703125 322.98162841796875 227.45738220214844 C 315.8193359375 256.57177734375 318.92706298828125 253.95431518554688 316.77923583984375 219.50616455078125 C 271.0159912109375 170.2465057373047 326.42236328125 188.92640686035156 390.5797119140625 171.69320678710938 C 303.6322021484375 142.09288024902344 325.56964111328125 171.98167419433594 416.858154296875 171.0774688720703 L 413.58782958984375 221.0676727294922" stroke-width="2.0" fill="rgb(21, 67, 139)" opacity="0.32966596"/>
    <path d="M 394.6566467285156 288.38446044921875 C 388.4197998046875 289.7160339355469 394.8604431152344 287.98681640625 391.11151123046875 288.9683837890625 C 383.8443298339844 291.83941650390625 394.2630310058594 302.4781494140625 418.9689025878906 295.0605773925781 C 384.0225524902344 280.9691467285156 385.11328125 294.1474609375 394.4580383300781 296.36932373046875 C 377.6060791015625 299.87652587890625 367.95538330078125 293.3993225097656 348.5963439941406 282.4861145019531 L 394.6566467285156 288.38446044921875" stroke-width="2.0" fill="rgb(195, 149, 149)" opacity="0.20076613"/>
    <path d="M 398.21966552734375 441.3421630859375 C 388.2916564941406 435.8309631347656 395.3052062988281 443.8122253417969 404.7923278808594 444.9635925292969 C 403.8592529296875 443.7334899902344 379.4671325683594 427.7208557128906 387.41131591796875 456.1607666015625 C 379.6289367675781 400.4433898925781 375.560302734375 462.725830078125 377.3725280761719 390.97772216796875 C 421.1753234863281 385.1372375488281 419.9688415527344 394.3067321777344 419.58612060546875 445.9720764160156 L 398.21966552734375 441.3421630859375" stroke-width="2.0" fill="rgb(72, 82, 50)" opacity="1.0"/>
    <path d="M 346.4458312988281 452.3099365234375 C 326.6246643066406 422.98443603515625 315.2444763183594 418.45672607421875 353.6719665527344 460.7920837402344 C 366.2127990722656 466.0804138183594 346.2579040527344 449.8454895019531 334.6156311035156 435.8019104003906 C 351.33416748046875 459.73260498046875 353.0804748535156 458.99725341796875 346.6856384277344 460.0364990234375 C 355.4029235839844 462.7938537597656 345.56353759765625 453.1987609863281 344.639404296875 449.898193359375 L 346.4458312988281 452.3099365234375" stroke-width="2.0" fill="rgb(150, 153, 160)" opacity="1.0"/>
    <path d="M 104.42066955566406 460.40850830078125 C 101.304443359375 463.5087585449219 102.2153549194336 464.3739318847656 103.59281158447266 462.1661376953125 C 104.56697845458984 463.81396484375 103.49771118164062 463.3026123046875 105.0639877319336 462.8182067871094 C 104.1407699584961 463.5048522949219 101.43109893798828 463.1817321777344 98.6867904663086 459.80596923828125 C 105.75782012939453 457.10113525390625 104.10365295410156 461.9374694824219 104.31427001953125 462.3761291503906 L 104.42066955566406 460.40850830078125" stroke-width="2.0" fill="rgb(195, 229, 4)" opacity="0.037392326"/>
    <path d="M 95.51221466064453 167.2643585205078 C 95.29170989990234 168.72837829589844 94.27068328857422 167.36654663085938 100.6973876953125 168.23114013671875 C 102.53020477294922 168.8460693359375 101.25188446044922 167.52810668945312 90.15986633300781 167.7270050048828 C 90.54742431640625 148.71255493164062 89.15872192382812 153.4233856201172 90.62964630126953 151.66290283203125 C 89.78079986572266 153.3838653564453 90.25529479980469 148.95230102539062 95.63072204589844 151.9334716796875 L 95.51221466064453 167.2643585205078" stroke-width="2.0" fill="rgb(1, 46, 108)" opacity="0.76728696"/>
    <path d="M 401.9522705078125 273.6553649902344 C 401.3653564453125 265.49310302734375 400.6551513671875 263.5740966796875 402.9364013671875 277.6072082519531 C 427.7270812988281 244.71157836914062 437.9051818847656 238.92579650878906 325.2010498046875 241.7926025390625 C 346.69720458984375 273.626953125 368.88275146484375 280.22711181640625 423.7588806152344 276.5645751953125 C 414.6978454589844 267.67523193359375 415.0146179199219 277.0445556640625 370.0030822753906 273.82293701171875 L 401.9522705078125 273.6553649902344" stroke-width="2.0" fill="rgb(101, 133, 171)" opacity="0.7472448"/>
    <path d="M 76.85675048828125 310.6673889160156 C 76.28447723388672 312.3119201660156 76.68750762939453 310.7987060546875 77.15221405029297 313.95098876953125 C 76.75877380371094 311.1133728027344 76.12286376953125 311.9361572265625 77.1329345703125 310.2323303222656 C 76.1905517578125 311.7820129394531 76.74471282958984 311.8966979980469 76.90491485595703 312.5787658691406 C 76.5000228881836 311.55621337890625 76.66529846191406 311.801025390625 76.59456634521484 311.37042236328125 L 76.85675048828125 310.6673889160156" stroke-width="2.0" fill="rgb(51, 129, 172)" opacity="0.10543348"/>
    <path d="M 189.36770629882812 64.71695709228516 C 181.0566864013672 61.979461669921875 178.83395385742188 61.75592803955078 179.2260284423828 61.47136688232422 C 184.6739044189453 65.62464904785156 187.77976989746094 60.55281448364258 185.3892822265625 53.904964447021484 C 183.35235595703125 71.46300506591797 187.91323852539062 72.5403060913086 197.64865112304688 56.55883026123047 C 183.21316528320312 52.96437454223633 179.1818084716797 58.471195220947266 178.4055633544922 71.46089172363281 L 189.36770629882812 64.71695709228516" stroke-width="2.0" fill="rgb(107, 125, 143)" opacity="0.028893458"/>
    <path d="M 61.783233642578125 166.9015655517578 C 62.071563720703125 200.65484619140625 62.33974838256836 174.9994354248047 46.4477653503418 208.17593383789062 C 65.62777709960938 174.04933166503906 34.88936233520508 176.62855529785156 40.207359313964844 179.78431701660156 C 41.54376983642578 134.5992431640625 39.57505416870117 187.1818389892578 -21.637645721435547 146.4520721435547 C 86.21125793457031 168.96629333496094 86.84413146972656 155.28225708007812 71.49800872802734 181.56707763671875 L 61.783233642578125 166.9015655517578" stroke-width="2.0" fill="rgb(255, 247, 228)" opacity="0.9269139"/>
    <path d="M 172.13699340820312 10.327035903930664 C 159.69435119628906 -0.06922636181116104 141.4246826171875 -0.42223048210144043 234.89364624023438 -0.7352224588394165 C 175.5343780517578 14.561039924621582 162.28672790527344 14.558013916015625 165.3780517578125 11.782304763793945 C 163.8346405029297 15.499874114990234 163.63539123535156 19.208681106567383 235.7342987060547 -1.1883361339569092 C 173.03797912597656 -15.218795776367188 162.6944122314453 1.1444799900054932 165.86663818359375 14.129903793334961 L 172.13699340820312 10.327035903930664" stroke-width="2.0" fill="rgb(122, 143, 177)" opacity="0.1211005"/>
    <path d="M 24.77179527282715 31.33316993713379 C 24.5838565826416 30.966981887817383 25.32494354248047 31.91933250427246 26.37163543701172 30.958139419555664 C 27.085865020751953 33.52162170410156 26.931480407714844 31.429365158081055 26.549564361572266 31.647239685058594 C 24.97292709350586 34.59120178222656 27.277860641479492 33.3763313293457 28.68191909790039 33.911590576171875 C 26.468782424926758 31.950647354125977 27.78692054748535 31.786399841308594 27.61622428894043 32.52531814575195 L 24.77179527282715 31.33316993713379" stroke-width="2.0" fill="rgb(136, 193, 181)" opacity="0.121981405"/>
    <path d="M -3.680490016937256 418.68585205078125 C -2.494281768798828 418.2967529296875 -3.1090517044067383 418.4510192871094 -3.2395248413085938 418.5246276855469 C -0.4519551992416382 422.443115234375 -1.4071400165557861 422.5550231933594 -1.876023769378662 421.7683410644531 C -1.8766236305236816 420.7970275878906 -1.4239763021469116 419.9345703125 -1.9260339736938477 422.29034423828125 C -2.539492130279541 423.6043701171875 -2.307875156402588 424.2728271484375 -3.843860149383545 424.68145751953125 L -3.680490016937256 418.68585205078125" stroke-width="2.0" fill="rgb(140, 154, 202)" opacity="0.3360196"/>
    <path d="M 8.692630767822266 125.77020263671875 C 7.902248859405518 40.485347747802734 -55.13275146484375 126.97392272949219 11.65489673614502 158.73617553710938 C 94.49819946289062 172.05467224121094 40.68729782104492 137.96177673339844 57.919639587402344 156.99024963378906 C 80.679931640625 161.49176025390625 43.69533157348633 146.5023193359375 43.97378921508789 149.80633544921875 C 46.42251205444336 125.10531616210938 33.28886413574219 136.638916015625 58.24704360961914 140.36378479003906 L 8.692630767822266 125.77020263671875" stroke-width="2.0" fill="rgb(255, 253, 233)" opacity="0.74142176"/>
    <path d="M 316.6004638671875 38.174434661865234 C 320.7478332519531 35.24037551879883 320.2810363769531 33.021995544433594 317.6819763183594 33.18909454345703 C 322.25665283203125 35.26670837402344 323.3891906738281 32.34831619262695 330.6672058105469 29.058286666870117 C 322.85614013671875 28.514657974243164 327.96368408203125 35.34690856933594 349.138427734375 15.84430980682373 C 320.8599853515625 25.07724952697754 320.8783264160156 32.41798782348633 304.4066467285156 41.913818359375 L 316.6004638671875 38.174434661865234" stroke-width="2.0" fill="rgb(173, 187, 198)" opacity="0.41958654"/>
    <path d="M 187.828369140625 333.6777038574219 C 189.81948852539062 330.6931457519531 173.7647247314453 333.766357421875 145.5919647216797 316.3834228515625 C 200.8730010986328 282.7447509765625 197.9318084716797 290.1684875488281 213.47732543945312 327.694091796875 C 190.25906372070312 356.5757751464844 199.11167907714844 326.5850830078125 181.37969970703125 331.6654968261719 C 171.52334594726562 313.29693603515625 171.9963836669922 327.7480773925781 209.90673828125 358.9357604980469 L 187.828369140625 333.6777038574219" stroke-width="2.0" fill="rgb(97, 103, 148)" opacity="0.0592475"/>
    <path d="M 85.40882110595703 372.0140380859375 C 84.13542175292969 367.7626953125 87.8144302368164 365.4088134765625 93.36136627197266 371.426025390625 C 86.39788055419922 376.7113952636719 84.68602752685547 373.2970886230469 86.409912109375 372.6682434082031 C 85.97740936279297 370.9664001464844 85.88623809814453 366.4339904785156 75.92488861083984 371.68310546875 C 87.10629272460938 374.4294128417969 86.43226623535156 372.44390869140625 85.4970474243164 370.95855712890625 L 85.40882110595703 372.0140380859375" stroke-width="2.0" fill="rgb(218, 45, 239)" opacity="0.01955811"/>
    <path d="M 263.0895690917969 244.63955688476562 C 239.89556884765625 236.7275390625 240.19871520996094 236.4292755126953 251.35452270507812 238.59555053710938 C 326.1327209472656 238.66162109375 238.8491668701172 234.05648803710938 257.9010925292969 220.31857299804688 C 312.8888244628906 240.0547332763672 326.0950622558594 253.6846466064453 266.1807556152344 255.60801696777344 C 260.55035400390625 288.0946350097656 264.20947265625 214.67689514160156 263.0416564941406 234.87416076660156 L 263.0895690917969 244.63955688476562" stroke-width="2.0" fill="rgb(251, 244, 224)" opacity="0.9326563"/>
    <path d="M 59.66966247558594 278.9011535644531 C -6.425274848937988 276.3558044433594 -32.5976676940918 267.6327209472656 1.8249378204345703 368.72119140625 C 23.632463455200195 374.82757568359375 5.511948108673096 311.5229797363281 15.282063484191895 310.5143127441406 C 36.65506362915039 315.7689208984375 31.875688552856445 303.3111572265625 32.11661911010742 333.5827941894531 C 8.048274040222168 309.2530822753906 11.014365196228027 312.7654113769531 42.00331497192383 343.6334228515625 L 59.66966247558594 278.9011535644531" stroke-width="2.0" fill="rgb(168, 174, 183)" opacity="0.51561147"/>
    <path d="M 367.061767578125 20.36886978149414 C 365.99969482421875 18.798709869384766 365.9789123535156 18.83281898498535 366.4642333984375 19.48337745666504 C 367.19549560546875 20.699716567993164 365.4710388183594 17.975934982299805 366.52496337890625 19.582595825195312 C 365.42962646484375 18.022430419921875 364.6567687988281 16.82979393005371 367.00518798828125 20.3515567779541 C 366.0177917480469 18.70704460144043 367.75115966796875 21.550609588623047 366.10919189453125 18.985958099365234 L 367.061767578125 20.36886978149414" stroke-width="2.0" fill="rgb(185, 107, 101)" opacity="0.08621146"/>
    <path d="M 358.5450134277344 374.871826171875 C 343.4466552734375 353.879150390625 348.6963806152344 385.4051818847656 347.4556579589844 408.367431640625 C 366.6361389160156 414.6336669921875 379.1786193847656 420.4500732421875 359.4759216308594 412.73553466796875 C 358.49169921875 404.45245361328125 359.0917053222656 409.7093505859375 359.18707275390625 407.9317626953125 C 358.7186584472656 410.0062255859375 359.0207824707031 396.27935791015625 359.2132263183594 411.9509582519531 L 358.5450134277344 374.871826171875" stroke-width="2.0" fill="rgb(2, 42, 96)" opacity="0.9106101"/>
    <path d="M 426.8555603027344 500.2729187011719 C 402.9491882324219 527.0357055664062 399.0681457519531 526.3194580078125 385.0879821777344 536.62158203125 C 383.0018615722656 501.3336486816406 384.1705627441406 486.68536376953125 384.4039001464844 504.3805847167969 C 393.6159973144531 510.451416015625 380.55364990234375 492.4132995605469 372.9001770019531 487.19610595703125 C 394.054931640625 503.5956726074219 361.4625244140625 494.40008544921875 420.78814697265625 497.5799560546875 L 426.8555603027344 500.2729187011719" stroke-width="2.0" fill="rgb(0, 26, 89)" opacity="0.6301442"/>
    <path d="M 223.85360717773438 212.26071166992188 C 226.3568572998047 306.568115234375 231.59603881835938 265.8229064941406 198.58770751953125 278.50115966796875 C 201.90321350097656 149.3451385498047 164.63722229003906 223.65512084960938 109.53231048583984 214.67469787597656 C 51.92190933227539 144.29678344726562 129.71682739257812 192.41531372070312 123.29367065429688 203.54202270507812 C 158.60696411132812 170.10263061523438 174.05661010742188 190.13539123535156 196.32803344726562 212.50491333007812 L 223.85360717773438 212.26071166992188" stroke-width="2.0" fill="rgb(108, 138, 169)" opacity="0.6768927"/>
    <path d="M 392.266357421875 171.1998748779297 C 341.475830078125 184.9920654296875 303.910888671875 177.1478271484375 299.8868408203125 192.05520629882812 C 301.7619934082031 213.84230041503906 326.1279296875 207.8229522705078 279.4203796386719 209.1448516845703 C 291.8890686035156 133.43008422851562 245.521728515625 152.4149932861328 283.8411865234375 148.3955535888672 C 340.737548828125 153.6973114013672 355.1563720703125 165.7244873046875 404.5905456542969 170.34877014160156 L 392.266357421875 171.1998748779297" stroke-width="2.0" fill="rgb(45, 71, 117)" opacity="0.3779806"/>
    <path d="M 195.79412841796875 497.1949768066406 C 193.58984375 500.7882995605469 189.1953125 505.1182861328125 177.65838623046875 525.2227172851562 C 154.67312622070312 523.5698852539062 152.62225341796875 521.0243530273438 138.6270751953125 515.86474609375 C 133.32907104492188 497.2549743652344 142.66319274902344 506.9629821777344 153.0006103515625 472.41485595703125 C 188.20791625976562 480.8944396972656 204.37802124023438 475.3985900878906 198.84788513183594 484.6459655761719 L 195.79412841796875 497.1949768066406" stroke-width="2.0" fill="rgb(234, 192, 137)" opacity="0.38131255"/>
    <path d="M 416.8616027832031 302.6220397949219 C 420.01092529296875 318.96746826171875 420.3357849121094 324.8996887207031 415.593505859375 330.87603759765625 C 357.3679504394531 345.6883850097656 349.6935729980469 339.5132751464844 353.0367736816406 338.83416748046875 C 369.1988220214844 284.1844482421875 337.59539794921875 248.6201934814453 354.67486572265625 278.8298645019531 C 394.9892272949219 282.34814453125 402.8020324707031 283.4331359863281 412.6387023925781 283.66351318359375 L 416.8616027832031 302.6220397949219" stroke-width="2.0" fill="rgb(29, 51, 134)" opacity="0.09832757"/>
    <path d="M 350.197265625 136.97543334960938 C 350.578125 137.33717346191406 350.2505798339844 137.8248748779297 350.02099609375 136.81158447265625 C 350.3662414550781 137.91018676757812 349.8346862792969 137.5413818359375 350.9193420410156 137.18836975097656 C 349.8359069824219 137.59854125976562 350.0380554199219 137.09222412109375 350.5511779785156 138.2193603515625 C 350.02972412109375 137.1964874267578 350.53887939453125 137.36013793945312 350.32373046875 138.08795166015625 L 350.197265625 136.97543334960938" stroke-width="2.0" fill="rgb(116, 144, 255)" opacity="0.008525533"/>
    <path d="M 384.3922119140625 440.72216796875 C 383.1980895996094 440.64617919921875 380.4144592285156 437.37744140625 413.59539794921875 461.8957214355469 C 430.7128601074219 438.4733581542969 432.2280578613281 439.67059326171875 383.95806884765625 438.3006591796875 C 383.6580505371094 440.3172912597656 384.2281799316406 436.8910217285156 384.4974365234375 438.85626220703125 C 383.31500244140625 439.2418518066406 384.521728515625 440.7383728027344 383.22393798828125 438.35321044921875 L 384.3922119140625 440.72216796875" stroke-width="2.0" fill="rgb(246, 240, 227)" opacity="1.0"/>
    <path d="M 187.16061401367188 283.2894287109375 C 177.63067626953125 290.8354187011719 179.04864501953125 277.8548889160156 199.22378540039062 301.3575439453125 C 196.80409240722656 278.7846984863281 168.80169677734375 286.1770935058594 185.8810272216797 280.36383056640625 C 183.46949768066406 289.4945068359375 196.61695861816406 282.3783264160156 199.5513916015625 301.6660461425781 C 156.48184204101562 248.75009155273438 158.6459197998047 339.8870849609375 153.27108764648438 289.2718505859375 L 187.16061401367188 283.2894287109375" stroke-width="2.0" fill="rgb(0, 33, 92)" opacity="0.618101"/>
    <path d="M 193.89718627929688 164.2562713623047 C 193.60562133789062 162.5212860107422 193.8700714111328 170.0073699951172 193.97409057617188 171.2560272216797 C 194.41941833496094 170.14199829101562 190.31863403320312 173.8179168701172 190.27133178710938 169.3874969482422 C 191.8017578125 127.30420684814453 189.7485809326172 172.2634735107422 193.87718200683594 159.43649291992188 C 190.4537811279297 169.70126342773438 190.4345703125 151.771240234375 193.11053466796875 162.79493713378906 L 193.89718627929688 164.2562713623047" stroke-width="2.0" fill="rgb(22, 28, 51)" opacity="0.74840206"/>
    <path d="M 197.621337890625 137.62062072753906 C 124.57594299316406 93.62200927734375 162.47796630859375 144.53236389160156 99.95714569091797 120.53446960449219 C 63.658390045166016 94.52978515625 57.87862777709961 53.3231315612793 13.211941719055176 114.44642639160156 C -11.779488563537598 123.40275573730469 -28.312240600585938 75.5443344116211 -23.080299377441406 -6.70050573348999 C 111.35840606689453 -14.048518180847168 109.12864685058594 -12.083422660827637 191.94117736816406 -18.975698471069336 L 197.621337890625 137.62062072753906" stroke-width="2.0" fill="rgb(169, 180, 193)" opacity="1.0"/>
    <path d="M 328.31597900390625 359.227294921875 C 326.9742126464844 359.8106384277344 326.9036560058594 360.1001281738281 327.8514709472656 359.5992431640625 C 326.44390869140625 360.06005859375 328.4554138183594 359.9805603027344 328.2702941894531 359.8018493652344 C 326.8134460449219 360.39410400390625 328.2822570800781 359.0943603515625 327.9350280761719 361.1039733886719 C 328.32025146484375 359.0351867675781 326.5460205078125 360.42547607421875 327.5042419433594 359.6430358886719 L 328.31597900390625 359.227294921875" stroke-width="2.0" fill="rgb(83, 173, 210)" opacity="0.2672348"/>
    <path d="M 353.0690612792969 344.6006774902344 C 317.2566833496094 365.64373779296875 352.97491455078125 343.5767517089844 322.24072265625 340.4124450683594 C 297.2938537597656 340.9087829589844 305.2518005371094 340.3752746582031 303.82257080078125 336.5671081542969 C 304.0814208984375 309.84912109375 302.30279541015625 320.44818115234375 315.4670715332031 325.2263488769531 C 365.25640869140625 335.6510925292969 330.2748718261719 323.32183837890625 349.8626708984375 321.4559020996094 L 353.0690612792969 344.6006774902344" stroke-width="2.0" fill="rgb(58, 60, 73)" opacity="1.0"/>
    <path d="M 34.65557098388672 271.1258850097656 C 42.741905212402344 226.07676696777344 -8.657649040222168 240.1018829345703 20.58918571472168 238.49501037597656 C 38.337364196777344 254.00588989257812 39.96200942993164 250.0244140625 1.0874695777893066 235.8159637451172 C 39.84675598144531 249.7224884033203 44.32512283325195 259.1593322753906 42.312835693359375 237.7152862548828 C 6.412351131439209 238.50079345703125 14.540311813354492 230.57192993164062 13.705504417419434 270.3467102050781 L 34.65557098388672 271.1258850097656" stroke-width="2.0" fill="rgb(13, 57, 114)" opacity="1.0"/>
    <path d="M 152.2603302001953 265.0917663574219 C 80.0802993774414 263.4464111328125 140.88223266601562 272.64862060546875 45.92344665527344 271.2752685546875 C -4.308345794677734 269.48736572265625 20.32127571105957 281.16912841796875 10.790228843688965 225.15957641601562 C 42.06008529663086 270.91607666015625 47.77573013305664 235.5951385498047 43.11379623413086 248.57327270507812 C 147.5794219970703 253.29519653320312 97.10408782958984 252.81069946289062 89.37047576904297 244.87559509277344 L 152.2603302001953 265.0917663574219" stroke-width="2.0" fill="rgb(152, 163, 178)" opacity="0.8322087"/>
  </g>
</svg>
