<?xml version="1.0" ?>
<svg xmlns="http://www.w3.org/2000/svg" version="1.1" width="512" height="512">
  <defs/>
  <g>
    <path d="M 356.4503479003906 216.03660583496094 C 293.611083984375 226.49551391601562 284.9352111816406 220.4601287841797 235.4702606201172 218.70309448242188 C 218.2517852783203 212.7382049560547 189.67935180664062 228.9514923095703 155.93643188476562 218.95742797851562 C 197.66732788085938 141.6768035888672 212.4997100830078 137.7278594970703 327.2630920410156 136.6455078125 C 325.67779541015625 154.90765380859375 328.6891174316406 157.07058715820312 356.4503479003906 216.03660583496094" stroke-width="0.0" fill="rgb(109, 36, 14)" opacity="0.6773516" stroke="rgb(157, 84, 174)" stroke-opacity="0.64049506" stroke-linecap="round" stroke-linejoin="round"/>
    <path d="M 297.0 56.0 C 296.33013916015625 58.5 294.5 60.33012771606445 292.0 61.0 C 289.5 60.33012771606445 287.66986083984375 58.5 287.0 56.0 C 287.66986083984375 53.5 289.5 51.66987228393555 292.0 51.0 C 294.5 51.66987228393555 296.33013916015625 53.5 297.0 56.0" stroke-width="0.0" fill="rgb(247, 241, 218)" opacity="1.0" stroke="rgb(104, 221, 32)" stroke-opacity="0.34819576" stroke-linecap="round" stroke-linejoin="round"/>
    <path d="M 261.0 486.0 C 260.33013916015625 488.5 258.5 490.33013916015625 256.0 491.0 C 253.5 490.33013916015625 251.6698760986328 488.5 251.0 486.0 C 251.6698760986328 483.5 253.5 481.66986083984375 256.0 481.0 C 258.5 481.66986083984375 260.33013916015625 483.5 261.0 486.0" stroke-width="0.0" fill="rgb(247, 241, 218)" opacity="1.0" stroke="rgb(216, 135, 125)" stroke-opacity="0.13147211" stroke-linecap="round" stroke-linejoin="round"/>
  </g>
</svg>
