<?xml version="1.0" ?>
<svg xmlns="http://www.w3.org/2000/svg" version="1.1" width="512" height="512">
  <defs/>
  <g>
    <path d="M 370.7824401855469 219.03506469726562 C 294.099609375 228.49522399902344 288.0458068847656 220.53875732421875 247.15750122070312 221.208251953125 C 221.36773681640625 220.9878387451172 188.083740234375 223.49415588378906 143.03558349609375 223.71473693847656 C 188.88243103027344 124.08893585205078 204.1998291015625 122.89314270019531 345.8088073730469 126.1678466796875 C 331.8978271484375 153.13597106933594 333.98797607421875 146.64944458007812 370.7824401855469 219.03506469726562" stroke-width="0.0" fill="rgb(124, 36, 0)" opacity="0.78693414" stroke="rgb(157, 84, 174)" stroke-opacity="0.64049506" stroke-linecap="round" stroke-linejoin="round"/>
    <path d="M 484.1766357421875 218.089599609375 C 364.2965087890625 121.50674438476562 329.45941162109375 88.54019927978516 294.7310791015625 59.99577331542969 C 291.2956848144531 61.53390121459961 293.37237548828125 54.72625732421875 276.3695068359375 44.463356018066406 C 264.59637451171875 -1.030503749847412 208.2312774658203 77.22166442871094 146.009765625 3.112760066986084 C 496.09820556640625 -35.81707763671875 517.0762329101562 -66.0024642944336 484.1766357421875 218.089599609375" stroke-width="0.0" fill="rgb(255, 255, 242)" opacity="0.7092672" stroke="rgb(104, 221, 32)" stroke-opacity="0.34819576" stroke-linecap="round" stroke-linejoin="round"/>
    <path d="M 388.6601867675781 460.32257080078125 C 396.2057189941406 565.9086303710938 358.4149169921875 534.0289916992188 306.2705383300781 524.0068969726562 C 216.11595153808594 524.5529174804688 201.94198608398438 533.0076904296875 127.50674438476562 517.4921875 C 135.76495361328125 429.2394104003906 180.0067138671875 463.6420593261719 252.55374145507812 480.502685546875 C 282.05181884765625 484.53802490234375 268.83154296875 448.60009765625 388.6601867675781 460.32257080078125" stroke-width="0.0" fill="rgb(255, 255, 242)" opacity="0.6680674" stroke="rgb(216, 135, 125)" stroke-opacity="0.13147211" stroke-linecap="round" stroke-linejoin="round"/>
    <path d="M 80.0 96.0 C 79.33012390136719 98.5 77.5 100.33012390136719 75.0 101.0 C 72.5 100.33012390136719 70.66987609863281 98.5 70.0 96.0 C 70.66987609863281 93.5 72.5 91.66987609863281 75.0 91.0 C 77.5 91.66987609863281 79.33012390136719 93.5 80.0 96.0" stroke-width="0.0" fill="rgb(247, 241, 218)" opacity="1.0" stroke="rgb(98, 11, 53)" stroke-opacity="0.05579824" stroke-linecap="round" stroke-linejoin="round"/>
    <path d="M 492.0 187.0 C 491.33013916015625 189.5 489.5 191.3301239013672 487.0 192.0 C 484.5 191.3301239013672 482.66986083984375 189.5 482.0 187.0 C 482.66986083984375 184.5 484.5 182.6698760986328 487.0 182.0 C 489.5 182.6698760986328 491.33013916015625 184.5 492.0 187.0" stroke-width="0.0" fill="rgb(247, 241, 218)" opacity="1.0" stroke="rgb(5, 177, 194)" stroke-opacity="0.4929571" stroke-linecap="round" stroke-linejoin="round"/>
    <path d="M 74.0 484.0 C 73.33012390136719 486.5 71.5 488.33013916015625 69.0 489.0 C 66.5 488.33013916015625 64.66987609863281 486.5 64.0 484.0 C 64.66987609863281 481.5 66.5 479.66986083984375 69.0 479.0 C 71.5 479.66986083984375 73.33012390136719 481.5 74.0 484.0" stroke-width="0.0" fill="rgb(247, 241, 218)" opacity="1.0" stroke="rgb(182, 163, 185)" stroke-opacity="0.72814006" stroke-linecap="round" stroke-linejoin="round"/>
    <path d="M 454.0 485.0 C 453.33013916015625 487.5 451.5 489.33013916015625 449.0 490.0 C 446.5 489.33013916015625 444.66986083984375 487.5 444.0 485.0 C 444.66986083984375 482.5 446.5 480.66986083984375 449.0 480.0 C 451.5 480.66986083984375 453.33013916015625 482.5 454.0 485.0" stroke-width="0.0" fill="rgb(247, 241, 218)" opacity="1.0" stroke="rgb(62, 139, 50)" stroke-opacity="0.22764072" stroke-linecap="round" stroke-linejoin="round"/>
  </g>
</svg>
