<?xml version="1.0" ?>
<svg xmlns="http://www.w3.org/2000/svg" version="1.1" width="512" height="512">
  <defs/>
  <g>
    <path d="M 370.80517578125 219.5177764892578 C 290.1669616699219 222.3388671875 290.7682800292969 222.12442016601562 244.0636444091797 220.45819091796875 C 222.2686767578125 218.25518798828125 188.27442932128906 223.4025115966797 141.6121826171875 223.07363891601562 C 186.59365844726562 120.33802032470703 202.6400604248047 119.78028869628906 344.0531005859375 124.21504974365234 C 330.525634765625 154.12799072265625 332.74371337890625 149.1693878173828 370.80517578125 219.5177764892578" stroke-width="0.0" fill="rgb(138, 52, 8)" opacity="0.6466678" stroke="rgb(157, 84, 174)" stroke-opacity="0.64049506" stroke-linecap="round" stroke-linejoin="round"/>
    <path d="M 495.1284484863281 229.9944610595703 C 365.5342712402344 120.9551773071289 329.187744140625 88.8742904663086 295.6307067871094 60.94942855834961 C 282.97821044921875 54.970767974853516 296.9127502441406 57.185604095458984 267.35662841796875 37.29526138305664 C 254.43826293945312 -4.911981105804443 211.9966278076172 119.14956665039062 124.87548828125 0.3619763255119324 C 512.1316528320312 -41.134803771972656 532.7935791015625 -76.52970886230469 495.1284484863281 229.9944610595703" stroke-width="0.0" fill="rgb(255, 255, 235)" opacity="0.8795016" stroke="rgb(104, 221, 32)" stroke-opacity="0.34819576" stroke-linecap="round" stroke-linejoin="round"/>
    <path d="M 395.820068359375 461.56768798828125 C 404.91717529296875 570.1366577148438 363.49169921875 534.7432250976562 307.97064208984375 524.02587890625 C 215.57037353515625 525.02294921875 198.50973510742188 542.2437133789062 109.20173645019531 499.60955810546875 C 105.23635864257812 427.1301574707031 165.0701904296875 459.0924987792969 252.14454650878906 480.4960632324219 C 277.27435302734375 486.254150390625 276.6027526855469 446.563720703125 395.820068359375 461.56768798828125" stroke-width="0.0" fill="rgb(254, 255, 234)" opacity="0.8635817" stroke="rgb(216, 135, 125)" stroke-opacity="0.13147211" stroke-linecap="round" stroke-linejoin="round"/>
    <path d="M 129.98974609375 -12.242177963256836 C 86.0763168334961 116.14544677734375 175.7814178466797 147.60133361816406 79.55366516113281 184.07501220703125 C -51.028865814208984 270.39434814453125 -7.3508148193359375 315.8384704589844 -12.70708179473877 92.07396697998047 C -22.611230850219727 -18.54290008544922 -1.4755808115005493 -12.476663589477539 81.57792663574219 -9.846942901611328 C 82.797607421875 -0.7040570378303528 76.66268157958984 -18.64556312561035 129.98974609375 -12.242177963256836" stroke-width="0.0" fill="rgb(252, 251, 227)" opacity="0.8130489" stroke="rgb(98, 11, 53)" stroke-opacity="0.05579824" stroke-linecap="round" stroke-linejoin="round"/>
    <path d="M 518.84130859375 203.7583465576172 C 512.7421875 288.9773254394531 568.3125610351562 319.7488708496094 479.5269470214844 283.4368896484375 C 526.0826416015625 198.36143493652344 479.85931396484375 236.25448608398438 446.3233642578125 201.21661376953125 C 483.46307373046875 197.78762817382812 353.49749755859375 20.641515731811523 510.0223388671875 -10.491450309753418 C 535.7225341796875 144.62506103515625 519.983154296875 156.21072387695312 518.84130859375 203.7583465576172" stroke-width="0.0" fill="rgb(247, 241, 218)" opacity="0.99075854" stroke="rgb(5, 177, 194)" stroke-opacity="0.4929571" stroke-linecap="round" stroke-linejoin="round"/>
    <path d="M 136.63441467285156 466.91668701171875 C 147.1768341064453 538.9715576171875 139.99591064453125 527.2353515625 62.23533630371094 528.0003051757812 C 7.927814960479736 528.3776245117188 -14.353924751281738 537.9166259765625 -6.689309597015381 464.460205078125 C 29.267621994018555 455.07208251953125 30.30019187927246 456.7881164550781 75.22943878173828 450.7618103027344 C 87.98316955566406 465.4646911621094 110.1519775390625 475.84735107421875 136.63441467285156 466.91668701171875" stroke-width="0.0" fill="rgb(248, 242, 219)" opacity="0.94185996" stroke="rgb(182, 163, 185)" stroke-opacity="0.72814006" stroke-linecap="round" stroke-linejoin="round"/>
    <path d="M 530.4636840820312 491.2859802246094 C 499.261962890625 535.3142700195312 485.6925048828125 521.7316284179688 441.5874328613281 518.4756469726562 C 393.5733642578125 523.1090087890625 375.4425964355469 544.2778930664062 377.6747131347656 474.5392761230469 C 374.72503662109375 435.35076904296875 457.587890625 453.0178527832031 417.1387634277344 454.1180419921875 C 527.0367431640625 461.78839111328125 538.5254516601562 447.0202941894531 530.4636840820312 491.2859802246094" stroke-width="0.0" fill="rgb(248, 241, 218)" opacity="0.93985534" stroke="rgb(62, 139, 50)" stroke-opacity="0.22764072" stroke-linecap="round" stroke-linejoin="round"/>
    <path d="M 187.10867309570312 231.30162048339844 C 235.31521606445312 211.38540649414062 249.2045135498047 342.9919128417969 157.6573944091797 313.4505615234375 C 147.50350952148438 277.4881896972656 129.36734008789062 363.7427673339844 132.7135009765625 283.03192138671875 C 242.3340301513672 280.4088439941406 135.81947326660156 284.6902160644531 146.11129760742188 272.08990478515625 C 225.8555145263672 266.32916259765625 174.6439971923828 296.42218017578125 187.10867309570312 231.30162048339844" stroke-width="0.0" fill="rgb(255, 255, 236)" opacity="0.8133536" stroke="rgb(206, 111, 157)" stroke-opacity="0.20447673" stroke-linecap="round" stroke-linejoin="round"/>
    <path d="M 378.94110107421875 278.0859375 C 394.0265808105469 349.4388122558594 332.81561279296875 263.5741882324219 339.29443359375 318.4360656738281 C 275.426513671875 326.7554931640625 289.7077941894531 358.4689025878906 289.3631591796875 243.0225830078125 C 343.5006408691406 203.83384704589844 332.6494140625 273.8292541503906 317.98687744140625 277.4061279296875 C 322.6402893066406 279.7343444824219 354.1163330078125 278.6744079589844 378.94110107421875 278.0859375" stroke-width="0.0" fill="rgb(255, 255, 235)" opacity="0.81065196" stroke="rgb(237, 65, 88)" stroke-opacity="0.4941193" stroke-linecap="round" stroke-linejoin="round"/>
    <path d="M 224.13182067871094 60.913970947265625 C 161.39102172851562 108.84368133544922 190.16819763183594 109.54886627197266 173.14903259277344 54.606788635253906 C 98.21807861328125 50.31389236450195 108.56922149658203 60.603858947753906 106.70391845703125 30.083158493041992 C 102.35186004638672 -3.563117742538452 116.3482437133789 -11.774992942810059 142.66998291015625 -20.222047805786133 C 277.33453369140625 60.71024703979492 261.64697265625 11.623635292053223 224.13182067871094 60.913970947265625" stroke-width="0.0" fill="rgb(247, 241, 218)" opacity="0.9941865" stroke="rgb(181, 32, 204)" stroke-opacity="0.8061309" stroke-linecap="round" stroke-linejoin="round"/>
    <path d="M 496.6728820800781 228.23008728027344 C 431.7319641113281 259.30126953125 458.6731872558594 247.61524963378906 445.53656005859375 308.720458984375 C 440.63287353515625 248.1917266845703 408.45330810546875 229.5307159423828 403.11322021484375 237.81602478027344 C 406.4146728515625 214.82974243164062 393.6496276855469 202.9331512451172 425.76983642578125 212.57974243164062 C 481.0461120605469 216.995361328125 500.7347106933594 188.6593017578125 496.6728820800781 228.23008728027344" stroke-width="0.0" fill="rgb(247, 242, 219)" opacity="0.9761832" stroke="rgb(203, 243, 33)" stroke-opacity="0.49267766" stroke-linecap="round" stroke-linejoin="round"/>
    <path d="M 56.606929779052734 298.47314453125 C 71.54431915283203 335.3966064453125 55.092018127441406 281.54437255859375 35.18508529663086 328.573974609375 C 7.594100475311279 287.0287780761719 15.174521446228027 299.6787109375 3.373657464981079 327.14947509765625 C -58.16828155517578 239.3866729736328 12.468677520751953 247.1033935546875 17.08001136779785 277.9138488769531 C 98.49878692626953 273.40740966796875 -1.02981436252594 285.2444152832031 56.606929779052734 298.47314453125" stroke-width="0.0" fill="rgb(255, 255, 234)" opacity="0.8814003" stroke="rgb(192, 3, 90)" stroke-opacity="0.738228" stroke-linecap="round" stroke-linejoin="round"/>
    <path d="M 288.12200927734375 268.7033386230469 C 286.24908447265625 391.1572265625 303.5674133300781 345.65423583984375 246.54380798339844 272.5656433105469 C 216.61587524414062 417.15234375 227.14630126953125 462.0162353515625 223.302978515625 274.95355224609375 C 207.0538787841797 284.1650390625 195.71630859375 230.7667236328125 225.3817596435547 254.79244995117188 C 308.14178466796875 261.78271484375 318.9057312011719 224.24075317382812 288.12200927734375 268.7033386230469" stroke-width="0.0" fill="rgb(89, 14, 0)" opacity="0.75541407" stroke="rgb(29, 140, 12)" stroke-opacity="0.69326735" stroke-linecap="round" stroke-linejoin="round"/>
    <path d="M 108.82494354248047 210.88357543945312 C 114.29297637939453 304.0184020996094 91.93802642822266 189.45957946777344 80.47798919677734 246.70611572265625 C 45.20701217651367 195.77377319335938 12.72591781616211 247.09780883789062 53.089595794677734 158.63299560546875 C 86.00526428222656 207.81259155273438 38.667842864990234 234.6214599609375 93.94853973388672 195.27914428710938 C 72.82060241699219 240.6217498779297 98.26103210449219 196.9896240234375 108.82494354248047 210.88357543945312" stroke-width="0.0" fill="rgb(248, 244, 221)" opacity="0.9610666" stroke="rgb(44, 94, 78)" stroke-opacity="0.9956661" stroke-linecap="round" stroke-linejoin="round"/>
    <path d="M 179.07492065429688 225.92581176757812 C 218.13888549804688 281.9388427734375 112.4547348022461 296.96832275390625 150.5699920654297 223.15565490722656 C 57.975528717041016 272.0384216308594 164.22076416015625 183.4766845703125 61.475154876708984 210.02490234375 C 75.77122497558594 176.73956298828125 141.29876708984375 140.93409729003906 262.0714416503906 23.942745208740234 C 339.5197448730469 206.7742156982422 130.00039672851562 54.75483703613281 179.07492065429688 225.92581176757812" stroke-width="0.0" fill="rgb(121, 43, 15)" opacity="0.5079168" stroke="rgb(63, 142, 186)" stroke-opacity="0.34150112" stroke-linecap="round" stroke-linejoin="round"/>
    <path d="M 147.27464294433594 270.4748840332031 C 134.05580139160156 267.250732421875 151.91690063476562 299.0174255371094 140.255126953125 295.3838195800781 C 111.93098449707031 259.6457824707031 127.50457000732422 279.4576110839844 111.6324234008789 271.16644287109375 C 112.42694091796875 215.64105224609375 106.7838363647461 237.8797607421875 130.9486846923828 233.6837615966797 C 151.4209747314453 240.25950622558594 146.61036682128906 228.06967163085938 147.27464294433594 270.4748840332031" stroke-width="0.0" fill="rgb(247, 241, 219)" opacity="0.9622109" stroke="rgb(132, 126, 65)" stroke-opacity="0.91862345" stroke-linecap="round" stroke-linejoin="round"/>
    <path d="M 393.3794860839844 245.14459228515625 C 381.97064208984375 245.5496368408203 396.0926208496094 267.7012939453125 380.7189025878906 271.1687316894531 C 380.2810363769531 309.359619140625 369.9491271972656 258.946533203125 364.8658752441406 270.916748046875 C 363.71575927734375 230.43479919433594 366.7994689941406 223.94483947753906 371.5350036621094 234.50035095214844 C 410.4747619628906 214.08160400390625 404.2921447753906 248.96768188476562 393.3794860839844 245.14459228515625" stroke-width="0.0" fill="rgb(255, 255, 233)" opacity="0.8485218" stroke="rgb(206, 202, 165)" stroke-opacity="0.52914464" stroke-linecap="round" stroke-linejoin="round"/>
    <path d="M 162.58380126953125 110.07146453857422 C 150.48338317871094 113.06903076171875 169.56161499023438 118.18417358398438 129.0080108642578 129.9800567626953 C 130.304443359375 134.54518127441406 127.24701690673828 127.97787475585938 127.7358627319336 96.12568664550781 C 126.99154663085938 87.8930892944336 133.93679809570312 84.2984390258789 141.24472045898438 88.53878784179688 C 170.39344787597656 86.22339630126953 160.22885131835938 94.64324188232422 162.58380126953125 110.07146453857422" stroke-width="0.0" fill="rgb(255, 255, 233)" opacity="0.82628167" stroke="rgb(26, 111, 216)" stroke-opacity="0.62494236" stroke-linecap="round" stroke-linejoin="round"/>
    <path d="M 14.952964782714844 375.7655334472656 C 16.82328987121582 386.66278076171875 36.71909713745117 392.5341491699219 5.908290863037109 401.0408935546875 C -8.47853946685791 424.87689208984375 -0.8146283626556396 421.5268249511719 -11.05162239074707 363.4189453125 C 23.11496925354004 378.1589050292969 -2.7885653972625732 345.5627136230469 37.7403678894043 366.9278259277344 C 60.744964599609375 420.2770690917969 26.243274688720703 348.4864807128906 14.952964782714844 375.7655334472656" stroke-width="0.0" fill="rgb(255, 255, 234)" opacity="0.8985854" stroke="rgb(162, 114, 15)" stroke-opacity="0.06018253" stroke-linecap="round" stroke-linejoin="round"/>
    <path d="M 444.75860595703125 204.36196899414062 C 380.92987060546875 196.12791442871094 411.0411376953125 226.2521514892578 402.4005432128906 245.6853790283203 C 407.0955505371094 207.0047149658203 346.2526550292969 228.8022003173828 301.093994140625 213.4855194091797 C 418.7405090332031 156.29376220703125 272.1221923828125 145.5952606201172 270.9725646972656 46.246971130371094 C 444.4928894042969 213.8330535888672 469.6160583496094 177.8380584716797 444.75860595703125 204.36196899414062" stroke-width="0.0" fill="rgb(136, 62, 30)" opacity="1.0" stroke="rgb(49, 224, 178)" stroke-opacity="0.78906775" stroke-linecap="round" stroke-linejoin="round"/>
    <path d="M 522.3441772460938 309.3737487792969 C 524.0506591796875 336.1863098144531 534.405517578125 322.427734375 475.6082458496094 323.0046691894531 C 444.9750061035156 352.53839111328125 409.14892578125 344.3114929199219 474.48797607421875 322.39166259765625 C 494.8387756347656 295.143798828125 497.0508117675781 304.4562683105469 507.8301086425781 291.43756103515625 C 522.5829467773438 285.62225341796875 522.0520629882812 287.9273681640625 522.3441772460938 309.3737487792969" stroke-width="0.0" fill="rgb(254, 254, 234)" opacity="0.8826497" stroke="rgb(250, 19, 73)" stroke-opacity="0.58762765" stroke-linecap="round" stroke-linejoin="round"/>
    <path d="M 211.48336791992188 446.2194519042969 C 167.45660400390625 424.1468505859375 160.47727966308594 462.37127685546875 108.5831298828125 418.37567138671875 C 109.4594497680664 454.191650390625 138.24705505371094 435.8053283691406 -41.83049011230469 441.5124206542969 C 76.03838348388672 372.32855224609375 92.8934555053711 293.1800842285156 93.57452392578125 306.1839599609375 C 183.7847442626953 380.64166259765625 201.3759765625 361.2077941894531 211.48336791992188 446.2194519042969" stroke-width="0.0" fill="rgb(110, 22, 0)" opacity="0.53127515" stroke="rgb(199, 139, 227)" stroke-opacity="0.6340397" stroke-linecap="round" stroke-linejoin="round"/>
    <path d="M 252.4788360595703 232.73443603515625 C 250.06776428222656 254.3369598388672 261.36944580078125 250.36366271972656 229.04763793945312 249.57643127441406 C 227.52488708496094 232.4459686279297 223.7144012451172 254.50315856933594 208.6568603515625 249.3073272705078 C 191.4407958984375 225.67189025878906 211.95489501953125 224.56170654296875 248.1177215576172 225.47372436523438 C 266.5736999511719 220.6366424560547 265.8681335449219 237.25442504882812 252.4788360595703 232.73443603515625" stroke-width="0.0" fill="rgb(238, 227, 204)" opacity="1.0" stroke="rgb(240, 113, 178)" stroke-opacity="0.11360521" stroke-linecap="round" stroke-linejoin="round"/>
    <path d="M 423.7159729003906 365.5580749511719 C 403.91619873046875 375.1386413574219 419.8512878417969 413.33282470703125 431.548583984375 424.39031982421875 C 414.15533447265625 405.90338134765625 397.3441162109375 395.3594665527344 401.88714599609375 279.939453125 C 400.075927734375 197.54859924316406 403.9394226074219 238.89134216308594 420.1598205566406 326.7820739746094 C 454.6465148925781 333.99755859375 430.72625732421875 325.60638427734375 423.7159729003906 365.5580749511719" stroke-width="0.0" fill="rgb(75, 6, 0)" opacity="0.76125216" stroke="rgb(23, 173, 207)" stroke-opacity="0.9163674" stroke-linecap="round" stroke-linejoin="round"/>
    <path d="M 96.78929138183594 419.28204345703125 C 95.206298828125 437.1995544433594 83.93998718261719 440.9794006347656 69.26254272460938 435.1531066894531 C 69.9705810546875 431.31805419921875 63.55544662475586 420.69134521484375 60.43519973754883 438.2801818847656 C 59.7285041809082 410.0723571777344 66.49760437011719 406.7527160644531 78.91248321533203 404.7906494140625 C 83.5057373046875 406.5397644042969 94.62564086914062 411.0346984863281 96.78929138183594 419.28204345703125" stroke-width="0.0" fill="rgb(254, 251, 227)" opacity="0.83131605" stroke="rgb(230, 114, 39)" stroke-opacity="0.4998311" stroke-linecap="round" stroke-linejoin="round"/>
    <path d="M 364.08587646484375 230.40794372558594 C 366.4293518066406 298.05224609375 358.5028381347656 200.54368591308594 358.78759765625 267.791748046875 C 389.7408752441406 277.13275146484375 326.3489990234375 266.3434143066406 327.90869140625 277.0149230957031 C 326.20758056640625 218.09315490722656 329.9688720703125 233.6676025390625 320.81732177734375 228.7469482421875 C 365.65447998046875 228.68753051757812 384.0610046386719 227.2519073486328 364.08587646484375 230.40794372558594" stroke-width="0.0" fill="rgb(94, 30, 16)" opacity="1.0" stroke="rgb(50, 104, 25)" stroke-opacity="0.494864" stroke-linecap="round" stroke-linejoin="round"/>
    <path d="M 415.7567138671875 281.0334167480469 C 416.23297119140625 302.23468017578125 442.401123046875 359.6300964355469 414.4810791015625 310.30963134765625 C 399.3388977050781 298.60455322265625 404.4908142089844 326.57159423828125 404.2651672363281 269.3955383300781 C 404.57379150390625 289.4381408691406 404.04071044921875 265.3070068359375 403.1654052734375 225.4636688232422 C 419.53863525390625 230.2643585205078 404.80047607421875 230.92918395996094 415.7567138671875 281.0334167480469" stroke-width="0.0" fill="rgb(248, 242, 219)" opacity="0.9854449" stroke="rgb(169, 143, 200)" stroke-opacity="0.6390142" stroke-linecap="round" stroke-linejoin="round"/>
    <path d="M 352.373291015625 401.3358154296875 C 359.7653503417969 461.79443359375 363.4932556152344 438.12518310546875 311.0809631347656 440.867919921875 C 342.8572082519531 403.6031494140625 224.88925170898438 431.3162536621094 305.17047119140625 415.849609375 C 310.8303527832031 409.2242126464844 279.0917663574219 379.0747375488281 336.8822937011719 381.7394104003906 C 368.61297607421875 446.1464538574219 277.1734924316406 366.5179443359375 352.373291015625 401.3358154296875" stroke-width="0.0" fill="rgb(77, 13, 5)" opacity="0.81935656" stroke="rgb(72, 242, 181)" stroke-opacity="0.3215898" stroke-linecap="round" stroke-linejoin="round"/>
    <path d="M 301.4731140136719 232.34507751464844 C 267.7849426269531 252.25660705566406 323.55340576171875 248.7808074951172 251.36949157714844 250.28646850585938 C 249.7507781982422 241.13577270507812 269.2898254394531 259.478271484375 261.114013671875 231.91758728027344 C 271.3883972167969 215.6996612548828 254.71548461914062 231.74598693847656 281.4332275390625 224.27931213378906 C 277.5226745605469 239.1199493408203 304.9209899902344 220.39906311035156 301.4731140136719 232.34507751464844" stroke-width="0.0" fill="rgb(255, 255, 234)" opacity="0.8716209" stroke="rgb(62, 21, 193)" stroke-opacity="0.68732315" stroke-linecap="round" stroke-linejoin="round"/>
    <path d="M 469.313232421875 443.0510559082031 C 417.8648986816406 406.5413818359375 438.9443359375 449.8987731933594 417.6027526855469 439.2625427246094 C 344.9751892089844 451.15325927734375 349.1407775878906 434.9356689453125 332.6626281738281 432.5087890625 C 326.3734436035156 410.40185546875 341.7267150878906 404.7182312011719 413.6851501464844 341.4464111328125 C 536.6845092773438 373.87860107421875 421.7095031738281 376.2709045410156 469.313232421875 443.0510559082031" stroke-width="0.0" fill="rgb(99, 31, 15)" opacity="0.7368609" stroke="rgb(251, 27, 75)" stroke-opacity="0.76376885" stroke-linecap="round" stroke-linejoin="round"/>
    <path d="M 66.58369445800781 323.571044921875 C 107.71421813964844 353.48370361328125 63.99338912963867 325.2748107910156 60.90652847290039 333.74981689453125 C 64.7305679321289 363.60791015625 46.82126235961914 341.7079772949219 54.170108795166016 343.3573913574219 C 51.467403411865234 294.16217041015625 35.06266784667969 294.2534484863281 71.53489685058594 318.4294738769531 C 76.23137664794922 312.84320068359375 99.2164077758789 334.69989013671875 66.58369445800781 323.571044921875" stroke-width="0.0" fill="rgb(254, 253, 232)" opacity="0.8938997" stroke="rgb(182, 11, 142)" stroke-opacity="0.2146862" stroke-linecap="round" stroke-linejoin="round"/>
    <path d="M 300.72564697265625 398.9063415527344 C 316.8683166503906 414.8099060058594 294.1625671386719 405.32452392578125 238.68576049804688 409.3639221191406 C 224.9904022216797 408.8900146484375 226.7532958984375 410.4920959472656 226.67514038085938 407.1109924316406 C 235.9939727783203 393.7164611816406 238.08164978027344 396.76776123046875 250.64468383789062 396.9431457519531 C 269.3087158203125 395.5753173828125 304.4792785644531 406.08819580078125 300.72564697265625 398.9063415527344" stroke-width="0.0" fill="rgb(255, 255, 236)" opacity="0.8746502" stroke="rgb(68, 130, 116)" stroke-opacity="0.027878061" stroke-linecap="round" stroke-linejoin="round"/>
    <path d="M 255.84873962402344 470.3460388183594 C 239.3288116455078 468.85833740234375 237.45277404785156 483.9256591796875 249.00100708007812 470.757080078125 C 209.235107421875 507.6085205078125 170.215087890625 470.7803649902344 235.01889038085938 464.7106018066406 C 207.0520477294922 446.7190246582031 199.98907470703125 458.7877197265625 232.62991333007812 451.56390380859375 C 249.09165954589844 456.2460632324219 259.83416748046875 435.1260986328125 255.84873962402344 470.3460388183594" stroke-width="0.0" fill="rgb(248, 243, 221)" opacity="0.8672755" stroke="rgb(65, 235, 48)" stroke-opacity="0.6989572" stroke-linecap="round" stroke-linejoin="round"/>
    <path d="M 145.7856903076172 447.3115539550781 C 96.5315933227539 452.59588623046875 113.63420104980469 466.7219543457031 86.802001953125 483.5081787109375 C 81.23572540283203 454.2994689941406 118.03961944580078 461.3127136230469 69.70101928710938 458.8558349609375 C 82.6115951538086 447.7588195800781 99.34314727783203 452.11114501953125 97.27313995361328 445.58685302734375 C 108.31123352050781 459.65765380859375 103.89158630371094 445.0870056152344 145.7856903076172 447.3115539550781" stroke-width="0.0" fill="rgb(249, 243, 220)" opacity="0.9476391" stroke="rgb(28, 216, 44)" stroke-opacity="0.9655971" stroke-linecap="round" stroke-linejoin="round"/>
    <path d="M 293.4332275390625 428.8677062988281 C 314.6697692871094 429.1680603027344 284.1050720214844 429.74078369140625 233.60382080078125 429.05548095703125 C 259.3834533691406 428.1211242675781 244.07815551757812 429.9249572753906 238.35748291015625 425.8070068359375 C 248.98269653320312 418.103271484375 242.9022979736328 421.72186279296875 265.3896484375 420.1103515625 C 290.51287841796875 422.20550537109375 292.3710021972656 417.23358154296875 293.4332275390625 428.8677062988281" stroke-width="0.0" fill="rgb(244, 237, 215)" opacity="1.0" stroke="rgb(156, 1, 139)" stroke-opacity="0.32386315" stroke-linecap="round" stroke-linejoin="round"/>
    <path d="M 396.45831298828125 454.4044189453125 C 354.9866027832031 454.494140625 343.7658996582031 445.1924743652344 357.3619079589844 488.5359191894531 C 311.01434326171875 499.23974609375 326.86383056640625 459.1898498535156 301.3672790527344 452.9118347167969 C 331.3471374511719 451.3314514160156 338.51727294921875 458.218994140625 335.8030090332031 445.28228759765625 C 356.1221923828125 450.1800231933594 385.1035461425781 440.35968017578125 396.45831298828125 454.4044189453125" stroke-width="0.0" fill="rgb(246, 239, 216)" opacity="0.9278703" stroke="rgb(117, 25, 102)" stroke-opacity="0.9915513" stroke-linecap="round" stroke-linejoin="round"/>
    <path d="M 468.4508056640625 391.9540710449219 C 472.0899963378906 398.3868408203125 465.103271484375 395.6797790527344 461.1803283691406 403.6901550292969 C 440.52581787109375 384.5711669921875 433.8064880371094 416.5630798339844 439.16925048828125 391.76898193359375 C 444.2958984375 381.1943359375 454.286865234375 378.76513671875 457.2669677734375 378.8314514160156 C 461.50537109375 378.167724609375 465.8187561035156 381.9419860839844 468.4508056640625 391.9540710449219" stroke-width="0.0" fill="rgb(255, 253, 229)" opacity="0.83560646" stroke="rgb(61, 195, 200)" stroke-opacity="0.32325095" stroke-linecap="round" stroke-linejoin="round"/>
    <path d="M 210.36956787109375 452.92059326171875 C 189.19595336914062 460.87579345703125 194.1189422607422 472.96026611328125 166.08706665039062 471.134765625 C 183.11912536621094 453.7581481933594 190.322265625 452.315185546875 147.95361328125 462.426025390625 C 164.54563903808594 445.3510437011719 154.10009765625 443.4076843261719 191.8233184814453 446.9384765625 C 216.69552612304688 441.88250732421875 181.06607055664062 455.9870300292969 210.36956787109375 452.92059326171875" stroke-width="0.0" fill="rgb(249, 244, 222)" opacity="0.86621034" stroke="rgb(155, 141, 66)" stroke-opacity="0.71422243" stroke-linecap="round" stroke-linejoin="round"/>
    <path d="M 529.7188110351562 325.3915100097656 C 522.8008422851562 391.3178405761719 485.6317138671875 407.0502624511719 507.9089050292969 379.3144226074219 C 472.9283142089844 387.2569274902344 458.8400573730469 380.6934509277344 503.89996337890625 372.2388000488281 C 512.4039916992188 353.5373229980469 480.0845947265625 374.3591003417969 517.9171752929688 351.1834411621094 C 491.0866394042969 346.15789794921875 491.03759765625 356.78594970703125 529.7188110351562 325.3915100097656" stroke-width="0.0" fill="rgb(255, 255, 237)" opacity="0.83581877" stroke="rgb(132, 179, 228)" stroke-opacity="0.29505283" stroke-linecap="round" stroke-linejoin="round"/>
    <path d="M 293.0323486328125 465.7234191894531 C 289.17559814453125 479.8124084472656 286.51922607421875 482.3458557128906 296.0111999511719 474.5442810058594 C 264.8038330078125 474.5714416503906 246.22894287109375 472.3187255859375 257.3741760253906 460.6411437988281 C 275.9000244140625 469.7844543457031 251.066162109375 433.3889465332031 272.66619873046875 460.20257568359375 C 298.0660705566406 449.95037841796875 260.9012756347656 467.0539855957031 293.0323486328125 465.7234191894531" stroke-width="0.0" fill="rgb(247, 240, 217)" opacity="0.96294737" stroke="rgb(104, 40, 9)" stroke-opacity="0.4052834" stroke-linecap="round" stroke-linejoin="round"/>
    <path d="M 109.33243560791016 278.4906921386719 C 109.24375915527344 320.87481689453125 110.57878112792969 293.7240905761719 94.13556671142578 305.271484375 C 85.88011932373047 311.0683898925781 92.7198715209961 321.2257080078125 82.92732238769531 308.53338623046875 C 96.9167251586914 292.1344909667969 89.75862121582031 293.9624328613281 100.27821350097656 293.7400207519531 C 110.03582000732422 285.2373352050781 87.19322204589844 287.5948486328125 109.33243560791016 278.4906921386719" stroke-width="0.0" fill="rgb(245, 238, 216)" opacity="1.0" stroke="rgb(62, 240, 72)" stroke-opacity="0.45618448" stroke-linecap="round" stroke-linejoin="round"/>
    <path d="M 125.75994873046875 404.9627990722656 C 192.71823120117188 427.1210021972656 206.4956817626953 446.57623291015625 130.3673095703125 439.5144958496094 C 65.75827026367188 447.9375 174.0341796875 426.667724609375 99.66216278076172 426.4205017089844 C 109.38631439208984 359.2901916503906 104.29725646972656 365.5575866699219 130.8179168701172 414.3633117675781 C 127.03063201904297 425.7413330078125 148.04086303710938 442.6199035644531 125.75994873046875 404.9627990722656" stroke-width="0.0" fill="rgb(72, 12, 7)" opacity="0.8695513" stroke="rgb(39, 157, 176)" stroke-opacity="0.33817294" stroke-linecap="round" stroke-linejoin="round"/>
    <path d="M 307.409912109375 442.998046875 C 314.7210388183594 465.7080383300781 286.8384704589844 449.34698486328125 279.80767822265625 459.31427001953125 C 274.6771240234375 442.95648193359375 277.1212158203125 461.0262756347656 250.66592407226562 450.7066345214844 C 276.7873229980469 447.4451599121094 270.59344482421875 453.54547119140625 272.831787109375 442.6802978515625 C 304.0673522949219 442.81109619140625 322.03497314453125 442.54351806640625 307.409912109375 442.998046875" stroke-width="0.0" fill="rgb(249, 245, 223)" opacity="0.8906182" stroke="rgb(201, 158, 86)" stroke-opacity="0.69217455" stroke-linecap="round" stroke-linejoin="round"/>
    <path d="M 71.53216552734375 298.2337341308594 C 67.2297134399414 288.787841796875 82.43122100830078 293.97412109375 72.17476654052734 293.1309814453125 C 58.78071594238281 291.53265380859375 59.22132110595703 278.76507568359375 54.26811981201172 275.62567138671875 C 51.14680480957031 276.9258117675781 64.3868637084961 279.4941711425781 64.84708404541016 260.27435302734375 C 68.28827667236328 271.21112060546875 70.45802307128906 265.5372314453125 71.53216552734375 298.2337341308594" stroke-width="0.0" fill="rgb(246, 239, 218)" opacity="1.0" stroke="rgb(254, 241, 33)" stroke-opacity="0.20231342" stroke-linecap="round" stroke-linejoin="round"/>
    <path d="M 91.48375701904297 267.64788818359375 C 90.07678985595703 294.55194091796875 91.93162536621094 298.17181396484375 81.7966079711914 301.7931213378906 C 82.1325912475586 300.7939147949219 73.25835418701172 291.89013671875 74.5640869140625 286.7160339355469 C 80.2057876586914 278.1664123535156 76.09883117675781 271.7202453613281 82.05280303955078 287.47283935546875 C 94.0009994506836 275.9942932128906 85.4576187133789 264.2533264160156 91.48375701904297 267.64788818359375" stroke-width="0.0" fill="rgb(255, 255, 234)" opacity="0.8925485" stroke="rgb(115, 155, 98)" stroke-opacity="0.48412022" stroke-linecap="round" stroke-linejoin="round"/>
    <path d="M 428.5632629394531 197.1651153564453 C 400.0722961425781 224.62155151367188 329.89276123046875 209.07748413085938 234.98870849609375 219.35069274902344 C 233.1561737060547 212.49990844726562 183.85214233398438 222.69139099121094 165.83016967773438 214.31149291992188 C 186.984375 170.88845825195312 175.59912109375 207.83355712890625 241.693115234375 194.13702392578125 C 268.96697998046875 207.31619262695312 234.68557739257812 185.76516723632812 428.5632629394531 197.1651153564453" stroke-width="0.0" fill="rgb(63, 5, 6)" opacity="0.703617" stroke="rgb(46, 32, 177)" stroke-opacity="0.3995321" stroke-linecap="round" stroke-linejoin="round"/>
    <path d="M 100.76448059082031 416.9815368652344 C 99.67475891113281 438.70965576171875 101.46163177490234 398.8175964355469 67.1332015991211 406.4916687011719 C 65.5044174194336 406.99456787109375 37.37627410888672 487.048095703125 63.369998931884766 401.1416015625 C 61.713165283203125 358.9055480957031 66.9156723022461 369.127685546875 67.21124267578125 382.0908508300781 C 101.96251678466797 397.32427978515625 79.99241638183594 392.6405944824219 100.76448059082031 416.9815368652344" stroke-width="0.0" fill="rgb(53, 0, 0)" opacity="0.7403728" stroke="rgb(7, 205, 42)" stroke-opacity="0.763685" stroke-linecap="round" stroke-linejoin="round"/>
    <path d="M 471.0292053222656 359.043212890625 C 469.8681640625 365.8045349121094 482.0276184082031 388.4258728027344 465.25714111328125 370.362548828125 C 462.6504821777344 359.4419860839844 460.8800048828125 370.4655456542969 454.99786376953125 355.78643798828125 C 443.8889465332031 358.3315734863281 446.8045349121094 348.8762512207031 466.872802734375 355.030029296875 C 496.2619323730469 351.0378112792969 484.1197814941406 356.93231201171875 471.0292053222656 359.043212890625" stroke-width="0.0" fill="rgb(255, 253, 232)" opacity="0.91113555" stroke="rgb(202, 91, 226)" stroke-opacity="0.53714055" stroke-linecap="round" stroke-linejoin="round"/>
    <path d="M 214.3076171875 182.88890075683594 C 212.47540283203125 201.78907775878906 213.82638549804688 191.0809783935547 205.93275451660156 193.12986755371094 C 197.10226440429688 195.3192138671875 197.8153076171875 203.26260375976562 200.0787811279297 186.8500213623047 C 202.68399047851562 178.27284240722656 200.21705627441406 179.01412963867188 207.5573272705078 176.14584350585938 C 213.88760375976562 175.18948364257812 215.90782165527344 178.16319274902344 214.3076171875 182.88890075683594" stroke-width="0.0" fill="rgb(236, 149, 58)" opacity="0.9244132" stroke="rgb(230, 43, 56)" stroke-opacity="0.97661394" stroke-linecap="round" stroke-linejoin="round"/>
    <path d="M 238.28370666503906 401.05438232421875 C 240.41050720214844 409.3351745605469 225.62969970703125 408.28466796875 204.6658935546875 408.2991027832031 C 208.58953857421875 409.5847473144531 199.15017700195312 402.2288818359375 204.4509735107422 406.3136291503906 C 219.1611785888672 389.815673828125 207.9074249267578 402.9563903808594 222.65447998046875 396.0522155761719 C 217.8125457763672 408.13037109375 230.82655334472656 388.2057189941406 238.28370666503906 401.05438232421875" stroke-width="0.0" fill="rgb(243, 234, 212)" opacity="1.0" stroke="rgb(122, 254, 87)" stroke-opacity="0.43277907" stroke-linecap="round" stroke-linejoin="round"/>
    <path d="M 199.5956573486328 191.05322265625 C 179.4247283935547 239.99632263183594 164.47898864746094 204.58152770996094 122.20499420166016 225.39376831054688 C 106.81631469726562 212.38330078125 110.62042999267578 269.16290283203125 109.93119812011719 209.1939239501953 C 65.283447265625 195.8350372314453 87.41522979736328 180.80410766601562 115.73777770996094 198.15518188476562 C 159.35008239746094 184.3856964111328 123.2590103149414 210.5733184814453 199.5956573486328 191.05322265625" stroke-width="0.0" fill="rgb(82, 21, 12)" opacity="0.99626726" stroke="rgb(20, 86, 75)" stroke-opacity="0.8291661" stroke-linecap="round" stroke-linejoin="round"/>
    <path d="M 191.391845703125 86.7933120727539 C 193.02685546875 93.24544525146484 178.53451538085938 98.23310852050781 169.17990112304688 107.37443542480469 C 170.77992248535156 110.19148254394531 168.05023193359375 94.05657196044922 170.64642333984375 72.72184753417969 C 167.5070343017578 91.58940124511719 163.4552459716797 76.6666488647461 176.65481567382812 77.5844497680664 C 183.49221801757812 75.92716217041016 185.884033203125 77.9295883178711 191.391845703125 86.7933120727539" stroke-width="0.0" fill="rgb(247, 241, 219)" opacity="1.0" stroke="rgb(7, 71, 43)" stroke-opacity="0.19074155" stroke-linecap="round" stroke-linejoin="round"/>
    <path d="M 231.0802764892578 165.5313262939453 C 230.79872131347656 179.72799682617188 233.23570251464844 172.8932342529297 224.1863250732422 172.53062438964844 C 213.7030792236328 174.20123291015625 218.06520080566406 178.2406005859375 218.0417938232422 166.30828857421875 C 218.3748016357422 162.2707977294922 218.55201721191406 156.31289672851562 227.00144958496094 156.9368896484375 C 229.25311279296875 157.39553833007812 233.9473114013672 160.94577026367188 231.0802764892578 165.5313262939453" stroke-width="0.0" fill="rgb(235, 148, 58)" opacity="0.9310467" stroke="rgb(195, 96, 188)" stroke-opacity="0.7316926" stroke-linecap="round" stroke-linejoin="round"/>
    <path d="M 205.31094360351562 406.27685546875 C 209.8032989501953 434.22003173828125 192.53009033203125 412.6584167480469 198.8741455078125 442.0865173339844 C 140.4246368408203 425.2364807128906 203.2738037109375 341.8099365234375 178.88829040527344 440.71368408203125 C 208.8568572998047 376.23681640625 152.7178192138672 407.3865051269531 211.9344940185547 382.125244140625 C 212.1879119873047 410.8387451171875 216.38845825195312 388.66485595703125 205.31094360351562 406.27685546875" stroke-width="0.0" fill="rgb(55, 0, 0)" opacity="0.6835739" stroke="rgb(107, 181, 210)" stroke-opacity="0.6566953" stroke-linecap="round" stroke-linejoin="round"/>
    <path d="M 41.74296569824219 253.67344665527344 C 14.429168701171875 255.28065490722656 2.3150711059570312 250.36712646484375 4.342479228973389 261.92138671875 C -7.590514183044434 263.7279357910156 -8.399235725402832 262.8488464355469 -7.678645610809326 260.7621765136719 C -7.815971851348877 239.37669372558594 -7.756628036499023 236.97454833984375 2.8878819942474365 238.73583984375 C 4.8327813148498535 245.7954864501953 12.629595756530762 252.9361572265625 41.74296569824219 253.67344665527344" stroke-width="0.0" fill="rgb(253, 252, 230)" opacity="0.9190909" stroke="rgb(57, 67, 189)" stroke-opacity="0.9149076" stroke-linecap="round" stroke-linejoin="round"/>
    <path d="M 247.92930603027344 144.81863403320312 C 247.71975708007812 172.71121215820312 250.01271057128906 155.712890625 239.32684326171875 159.37579345703125 C 236.225341796875 161.64202880859375 234.19837951660156 163.26998901367188 236.010498046875 152.4049072265625 C 235.5814971923828 141.5131072998047 236.785888671875 142.8309326171875 241.49984741210938 141.17543029785156 C 247.29200744628906 140.54391479492188 248.12933349609375 143.96697998046875 247.92930603027344 144.81863403320312" stroke-width="0.0" fill="rgb(238, 150, 59)" opacity="0.8987008" stroke="rgb(29, 16, 88)" stroke-opacity="0.32683334" stroke-linecap="round" stroke-linejoin="round"/>
    <path d="M 29.88657569885254 348.2037658691406 C 33.44477462768555 355.9209899902344 41.173824310302734 368.2386169433594 32.62588119506836 361.3763122558594 C 23.82368278503418 357.3957824707031 18.09320831298828 344.81719970703125 21.572877883911133 340.8019714355469 C 18.34442710876465 325.8698425292969 20.818988800048828 309.6186218261719 25.250839233398438 334.2652587890625 C 45.66504669189453 336.5897216796875 24.081281661987305 331.9498291015625 29.88657569885254 348.2037658691406" stroke-width="0.0" fill="rgb(253, 252, 232)" opacity="0.9009219" stroke="rgb(57, 96, 157)" stroke-opacity="0.28559574" stroke-linecap="round" stroke-linejoin="round"/>
    <path d="M 261.4468994140625 161.66455078125 C 262.6719665527344 181.38229370117188 261.790283203125 173.0885009765625 258.951416015625 174.0740966796875 C 252.36610412597656 172.77572631835938 251.18162536621094 181.53085327148438 251.8797607421875 170.97866821289062 C 251.45103454589844 161.53651428222656 251.0284881591797 160.93479919433594 255.2464599609375 157.98846435546875 C 262.6245422363281 157.3136444091797 260.47998046875 160.53424072265625 261.4468994140625 161.66455078125" stroke-width="0.0" fill="rgb(235, 149, 58)" opacity="0.93018556" stroke="rgb(94, 188, 229)" stroke-opacity="0.69091064" stroke-linecap="round" stroke-linejoin="round"/>
    <path d="M 260.8600158691406 426.53076171875 C 240.24655151367188 429.997802734375 207.38504028320312 427.8222351074219 261.60400390625 430.77020263671875 C 243.3167724609375 430.45758056640625 195.5145721435547 425.9350891113281 197.25636291503906 430.3273010253906 C 202.24766540527344 412.0513000488281 229.57765197753906 425.6092224121094 214.4146270751953 424.3725280761719 C 243.5229949951172 416.9520263671875 259.800048828125 425.73919677734375 260.8600158691406 426.53076171875" stroke-width="0.0" fill="rgb(248, 243, 221)" opacity="0.8915235" stroke="rgb(104, 246, 171)" stroke-opacity="0.6869092" stroke-linecap="round" stroke-linejoin="round"/>
    <path d="M 125.69705963134766 140.69439697265625 C 125.4874267578125 64.81742095947266 126.6401138305664 65.43988800048828 126.30583190917969 135.80726623535156 C 76.65592193603516 205.45054626464844 -79.03455352783203 317.6585998535156 15.226096153259277 -67.83812713623047 C 175.30137634277344 40.44683837890625 86.44944763183594 73.46247863769531 125.49176788330078 77.83341217041016 C 126.48007202148438 70.81554412841797 124.5740737915039 99.29280090332031 125.69705963134766 140.69439697265625" stroke-width="0.0" fill="rgb(247, 241, 218)" opacity="0.9988272" stroke="rgb(174, 215, 94)" stroke-opacity="0.7003001" stroke-linecap="round" stroke-linejoin="round"/>
    <path d="M 75.2459487915039 305.0414733886719 C 75.39014434814453 317.5943908691406 75.17964172363281 309.173828125 74.34856414794922 312.3231506347656 C 63.96541213989258 313.5631103515625 68.21337127685547 309.79266357421875 50.3057861328125 285.9249572753906 C 16.66234016418457 280.2187805175781 50.25175094604492 263.7021484375 59.87409591674805 291.992919921875 C 75.56293487548828 306.8677062988281 69.58306884765625 291.05450439453125 75.2459487915039 305.0414733886719" stroke-width="0.0" fill="rgb(245, 239, 217)" opacity="0.99921185" stroke="rgb(237, 61, 203)" stroke-opacity="0.12201108" stroke-linecap="round" stroke-linejoin="round"/>
    <path d="M 335.1203308105469 272.38995361328125 C 339.0007629394531 280.5670166015625 324.9561462402344 276.72088623046875 357.9673156738281 277.61065673828125 C 326.20703125 278.10406494140625 316.8258361816406 276.8505554199219 324.4374084472656 276.3978576660156 C 320.8319091796875 270.6247863769531 330.1554870605469 272.4671630859375 322.15863037109375 270.4913024902344 C 325.2722473144531 271.4194030761719 325.056640625 272.8280944824219 335.1203308105469 272.38995361328125" stroke-width="0.0" fill="rgb(244, 236, 215)" opacity="1.0" stroke="rgb(222, 142, 209)" stroke-opacity="0.9546072" stroke-linecap="round" stroke-linejoin="round"/>
    <path d="M 174.98561096191406 413.32135009765625 C 177.03802490234375 439.8365173339844 173.1298370361328 426.653076171875 162.61453247070312 437.3183288574219 C 143.71351623535156 437.7449035644531 141.4632110595703 432.86627197265625 140.67837524414062 420.32318115234375 C 143.3939971923828 408.8111877441406 139.11917114257812 414.4094543457031 156.2244873046875 415.0997314453125 C 171.7721710205078 415.99072265625 177.65640258789062 411.8788757324219 174.98561096191406 413.32135009765625" stroke-width="0.0" fill="rgb(216, 100, 35)" opacity="1.0" stroke="rgb(73, 229, 46)" stroke-opacity="0.70160675" stroke-linecap="round" stroke-linejoin="round"/>
    <path d="M 172.0 237.0 C 171.3301239013672 239.5 169.5 241.3301239013672 167.0 242.0 C 164.5 241.3301239013672 162.6698760986328 239.5 162.0 237.0 C 162.6698760986328 234.5 164.5 232.6698760986328 167.0 232.0 C 169.5 232.6698760986328 171.3301239013672 234.5 172.0 237.0" stroke-width="0.0" fill="rgb(74, 14, 8)" opacity="1.0" stroke="rgb(104, 156, 118)" stroke-opacity="0.40289617" stroke-linecap="round" stroke-linejoin="round"/>
    <path d="M 298.0 352.0 C 297.33013916015625 354.5 295.5 356.33013916015625 293.0 357.0 C 290.5 356.33013916015625 288.66986083984375 354.5 288.0 352.0 C 288.66986083984375 349.5 290.5 347.66986083984375 293.0 347.0 C 295.5 347.66986083984375 297.33013916015625 349.5 298.0 352.0" stroke-width="0.0" fill="rgb(247, 241, 218)" opacity="1.0" stroke="rgb(53, 164, 111)" stroke-opacity="0.038884427" stroke-linecap="round" stroke-linejoin="round"/>
    <path d="M 151.0 75.0 C 150.3301239013672 77.5 148.5 79.33012390136719 146.0 80.0 C 143.5 79.33012390136719 141.6698760986328 77.5 141.0 75.0 C 141.6698760986328 72.5 143.5 70.66987609863281 146.0 70.0 C 148.5 70.66987609863281 150.3301239013672 72.5 151.0 75.0" stroke-width="0.0" fill="rgb(74, 14, 8)" opacity="1.0" stroke="rgb(119, 164, 215)" stroke-opacity="0.92371243" stroke-linecap="round" stroke-linejoin="round"/>
    <path d="M 444.0 433.0 C 443.33013916015625 435.5 441.5 437.33013916015625 439.0 438.0 C 436.5 437.33013916015625 434.66986083984375 435.5 434.0 433.0 C 434.66986083984375 430.5 436.5 428.66986083984375 439.0 428.0 C 441.5 428.66986083984375 443.33013916015625 430.5 444.0 433.0" stroke-width="0.0" fill="rgb(247, 241, 218)" opacity="1.0" stroke="rgb(81, 14, 216)" stroke-opacity="0.9524191" stroke-linecap="round" stroke-linejoin="round"/>
    <path d="M 441.0 210.0 C 440.33013916015625 212.5 438.5 214.3301239013672 436.0 215.0 C 433.5 214.3301239013672 431.66986083984375 212.5 431.0 210.0 C 431.66986083984375 207.5 433.5 205.6698760986328 436.0 205.0 C 438.5 205.6698760986328 440.33013916015625 207.5 441.0 210.0" stroke-width="0.0" fill="rgb(247, 241, 218)" opacity="1.0" stroke="rgb(189, 127, 130)" stroke-opacity="0.41791865" stroke-linecap="round" stroke-linejoin="round"/>
    <path d="M 479.0 409.0 C 478.33013916015625 411.5 476.5 413.33013916015625 474.0 414.0 C 471.5 413.33013916015625 469.66986083984375 411.5 469.0 409.0 C 469.66986083984375 406.5 471.5 404.66986083984375 474.0 404.0 C 476.5 404.66986083984375 478.33013916015625 406.5 479.0 409.0" stroke-width="0.0" fill="rgb(247, 241, 218)" opacity="1.0" stroke="rgb(184, 199, 71)" stroke-opacity="0.17289169" stroke-linecap="round" stroke-linejoin="round"/>
    <path d="M 246.0 184.0 C 245.3301239013672 186.5 243.5 188.3301239013672 241.0 189.0 C 238.5 188.3301239013672 236.6698760986328 186.5 236.0 184.0 C 236.6698760986328 181.5 238.5 179.6698760986328 241.0 179.0 C 243.5 179.6698760986328 245.3301239013672 181.5 246.0 184.0" stroke-width="0.0" fill="rgb(228, 142, 55)" opacity="1.0" stroke="rgb(7, 150, 109)" stroke-opacity="0.24115263" stroke-linecap="round" stroke-linejoin="round"/>
    <path d="M 21.0 266.0 C 20.330127716064453 268.5 18.5 270.33013916015625 16.0 271.0 C 13.5 270.33013916015625 11.669873237609863 268.5 11.0 266.0 C 11.669873237609863 263.5 13.5 261.66986083984375 16.0 261.0 C 18.5 261.66986083984375 20.330127716064453 263.5 21.0 266.0" stroke-width="0.0" fill="rgb(247, 241, 218)" opacity="1.0" stroke="rgb(246, 70, 243)" stroke-opacity="0.91910976" stroke-linecap="round" stroke-linejoin="round"/>
    <path d="M 50.0 363.0 C 49.33012771606445 365.5 47.5 367.33013916015625 45.0 368.0 C 42.5 367.33013916015625 40.66987228393555 365.5 40.0 363.0 C 40.66987228393555 360.5 42.5 358.66986083984375 45.0 358.0 C 47.5 358.66986083984375 49.33012771606445 360.5 50.0 363.0" stroke-width="0.0" fill="rgb(247, 241, 218)" opacity="1.0" stroke="rgb(166, 138, 214)" stroke-opacity="0.63113207" stroke-linecap="round" stroke-linejoin="round"/>
    <path d="M 180.0 186.0 C 179.3301239013672 188.5 177.5 190.3301239013672 175.0 191.0 C 172.5 190.3301239013672 170.6698760986328 188.5 170.0 186.0 C 170.6698760986328 183.5 172.5 181.6698760986328 175.0 181.0 C 177.5 181.6698760986328 179.3301239013672 183.5 180.0 186.0" stroke-width="0.0" fill="rgb(228, 142, 55)" opacity="1.0" stroke="rgb(222, 4, 19)" stroke-opacity="0.41676572" stroke-linecap="round" stroke-linejoin="round"/>
    <path d="M 64.0 252.0 C 63.33012771606445 254.5 61.5 256.33013916015625 59.0 257.0 C 56.5 256.33013916015625 54.66987228393555 254.5 54.0 252.0 C 54.66987228393555 249.5 56.5 247.6698760986328 59.0 247.0 C 61.5 247.6698760986328 63.33012771606445 249.5 64.0 252.0" stroke-width="0.0" fill="rgb(247, 241, 218)" opacity="1.0" stroke="rgb(155, 83, 43)" stroke-opacity="0.60104287" stroke-linecap="round" stroke-linejoin="round"/>
    <path d="M 215.0 165.0 C 214.3301239013672 167.5 212.5 169.3301239013672 210.0 170.0 C 207.5 169.3301239013672 205.6698760986328 167.5 205.0 165.0 C 205.6698760986328 162.5 207.5 160.6698760986328 210.0 160.0 C 212.5 160.6698760986328 214.3301239013672 162.5 215.0 165.0" stroke-width="0.0" fill="rgb(228, 142, 55)" opacity="1.0" stroke="rgb(106, 23, 134)" stroke-opacity="0.19395572" stroke-linecap="round" stroke-linejoin="round"/>
    <path d="M 222.0 342.0 C 221.3301239013672 344.5 219.5 346.33013916015625 217.0 347.0 C 214.5 346.33013916015625 212.6698760986328 344.5 212.0 342.0 C 212.6698760986328 339.5 214.5 337.66986083984375 217.0 337.0 C 219.5 337.66986083984375 221.3301239013672 339.5 222.0 342.0" stroke-width="0.0" fill="rgb(247, 241, 218)" opacity="1.0" stroke="rgb(165, 6, 204)" stroke-opacity="0.8373211" stroke-linecap="round" stroke-linejoin="round"/>
    <path d="M 35.0 430.0 C 34.33012771606445 432.5 32.5 434.33013916015625 30.0 435.0 C 27.5 434.33013916015625 25.669872283935547 432.5 25.0 430.0 C 25.669872283935547 427.5 27.5 425.66986083984375 30.0 425.0 C 32.5 425.66986083984375 34.33012771606445 427.5 35.0 430.0" stroke-width="0.0" fill="rgb(74, 14, 8)" opacity="1.0" stroke="rgb(73, 5, 44)" stroke-opacity="0.4142985" stroke-linecap="round" stroke-linejoin="round"/>
    <path d="M 36.0 215.0 C 35.33012771606445 217.5 33.5 219.3301239013672 31.0 220.0 C 28.5 219.3301239013672 26.669872283935547 217.5 26.0 215.0 C 26.669872283935547 212.5 28.5 210.6698760986328 31.0 210.0 C 33.5 210.6698760986328 35.33012771606445 212.5 36.0 215.0" stroke-width="0.0" fill="rgb(223, 102, 34)" opacity="1.0" stroke="rgb(28, 171, 56)" stroke-opacity="0.5463456" stroke-linecap="round" stroke-linejoin="round"/>
    <path d="M 298.0 184.0 C 297.33013916015625 186.5 295.5 188.3301239013672 293.0 189.0 C 290.5 188.3301239013672 288.66986083984375 186.5 288.0 184.0 C 288.66986083984375 181.5 290.5 179.6698760986328 293.0 179.0 C 295.5 179.6698760986328 297.33013916015625 181.5 298.0 184.0" stroke-width="0.0" fill="rgb(228, 142, 55)" opacity="1.0" stroke="rgb(243, 254, 82)" stroke-opacity="0.68236977" stroke-linecap="round" stroke-linejoin="round"/>
    <path d="M 481.0 433.0 C 480.33013916015625 435.5 478.5 437.33013916015625 476.0 438.0 C 473.5 437.33013916015625 471.66986083984375 435.5 471.0 433.0 C 471.66986083984375 430.5 473.5 428.66986083984375 476.0 428.0 C 478.5 428.66986083984375 480.33013916015625 430.5 481.0 433.0" stroke-width="0.0" fill="rgb(74, 14, 8)" opacity="1.0" stroke="rgb(42, 107, 115)" stroke-opacity="0.15677512" stroke-linecap="round" stroke-linejoin="round"/>
    <path d="M 457.0 451.0 C 456.33013916015625 453.5 454.5 455.33013916015625 452.0 456.0 C 449.5 455.33013916015625 447.66986083984375 453.5 447.0 451.0 C 447.66986083984375 448.5 449.5 446.66986083984375 452.0 446.0 C 454.5 446.66986083984375 456.33013916015625 448.5 457.0 451.0" stroke-width="0.0" fill="rgb(246, 243, 224)" opacity="1.0" stroke="rgb(224, 142, 252)" stroke-opacity="0.603578" stroke-linecap="round" stroke-linejoin="round"/>
    <path d="M 211.0 94.0 C 210.3301239013672 96.5 208.5 98.33012390136719 206.0 99.0 C 203.5 98.33012390136719 201.6698760986328 96.5 201.0 94.0 C 201.6698760986328 91.5 203.5 89.66987609863281 206.0 89.0 C 208.5 89.66987609863281 210.3301239013672 91.5 211.0 94.0" stroke-width="0.0" fill="rgb(74, 14, 8)" opacity="1.0" stroke="rgb(64, 41, 16)" stroke-opacity="0.9520721" stroke-linecap="round" stroke-linejoin="round"/>
    <path d="M 336.0 184.0 C 335.33013916015625 186.5 333.5 188.3301239013672 331.0 189.0 C 328.5 188.3301239013672 326.66986083984375 186.5 326.0 184.0 C 326.66986083984375 181.5 328.5 179.6698760986328 331.0 179.0 C 333.5 179.6698760986328 335.33013916015625 181.5 336.0 184.0" stroke-width="0.0" fill="rgb(228, 142, 55)" opacity="1.0" stroke="rgb(81, 195, 48)" stroke-opacity="0.6115126" stroke-linecap="round" stroke-linejoin="round"/>
    <path d="M 110.0 262.0 C 109.33012390136719 264.5 107.5 266.33013916015625 105.0 267.0 C 102.5 266.33013916015625 100.66987609863281 264.5 100.0 262.0 C 100.66987609863281 259.5 102.5 257.66986083984375 105.0 257.0 C 107.5 257.66986083984375 109.33012390136719 259.5 110.0 262.0" stroke-width="0.0" fill="rgb(247, 241, 218)" opacity="1.0" stroke="rgb(204, 246, 144)" stroke-opacity="0.5500566" stroke-linecap="round" stroke-linejoin="round"/>
    <path d="M 242.0 447.0 C 241.3301239013672 449.5 239.5 451.33013916015625 237.0 452.0 C 234.5 451.33013916015625 232.6698760986328 449.5 232.0 447.0 C 232.6698760986328 444.5 234.5 442.66986083984375 237.0 442.0 C 239.5 442.66986083984375 241.3301239013672 444.5 242.0 447.0" stroke-width="0.0" fill="rgb(247, 241, 218)" opacity="1.0" stroke="rgb(141, 4, 181)" stroke-opacity="0.0068785106" stroke-linecap="round" stroke-linejoin="round"/>
    <path d="M 23.0 436.0 C 22.330127716064453 438.5 20.5 440.33013916015625 18.0 441.0 C 15.5 440.33013916015625 13.669873237609863 438.5 13.0 436.0 C 13.669873237609863 433.5 15.5 431.66986083984375 18.0 431.0 C 20.5 431.66986083984375 22.330127716064453 433.5 23.0 436.0" stroke-width="0.0" fill="rgb(74, 14, 8)" opacity="1.0" stroke="rgb(228, 127, 152)" stroke-opacity="0.90473723" stroke-linecap="round" stroke-linejoin="round"/>
    <path d="M 262.0 42.0 C 261.33013916015625 44.5 259.5 46.33012771606445 257.0 47.0 C 254.5 46.33012771606445 252.6698760986328 44.5 252.0 42.0 C 252.6698760986328 39.5 254.5 37.66987228393555 257.0 37.0 C 259.5 37.66987228393555 261.33013916015625 39.5 262.0 42.0" stroke-width="0.0" fill="rgb(74, 14, 8)" opacity="1.0" stroke="rgb(182, 204, 107)" stroke-opacity="0.40109655" stroke-linecap="round" stroke-linejoin="round"/>
    <path d="M 17.0 457.0 C 16.330127716064453 459.5 14.5 461.33013916015625 12.0 462.0 C 9.5 461.33013916015625 7.669872760772705 459.5 7.0 457.0 C 7.669872760772705 454.5 9.5 452.66986083984375 12.0 452.0 C 14.5 452.66986083984375 16.330127716064453 454.5 17.0 457.0" stroke-width="0.0" fill="rgb(249, 244, 221)" opacity="1.0" stroke="rgb(177, 17, 102)" stroke-opacity="0.26029575" stroke-linecap="round" stroke-linejoin="round"/>
    <path d="M 260.0 148.0 C 259.33013916015625 150.5 257.5 152.3301239013672 255.0 153.0 C 252.5 152.3301239013672 250.6698760986328 150.5 250.0 148.0 C 250.6698760986328 145.5 252.5 143.6698760986328 255.0 143.0 C 257.5 143.6698760986328 259.33013916015625 145.5 260.0 148.0" stroke-width="0.0" fill="rgb(228, 142, 55)" opacity="1.0" stroke="rgb(97, 176, 197)" stroke-opacity="0.020809153" stroke-linecap="round" stroke-linejoin="round"/>
    <path d="M 417.0 382.0 C 416.33013916015625 384.5 414.5 386.33013916015625 412.0 387.0 C 409.5 386.33013916015625 407.66986083984375 384.5 407.0 382.0 C 407.66986083984375 379.5 409.5 377.66986083984375 412.0 377.0 C 414.5 377.66986083984375 416.33013916015625 379.5 417.0 382.0" stroke-width="0.0" fill="rgb(176, 83, 41)" opacity="1.0" stroke="rgb(73, 96, 139)" stroke-opacity="0.21338716" stroke-linecap="round" stroke-linejoin="round"/>
    <path d="M 290.0 386.0 C 289.33013916015625 388.5 287.5 390.33013916015625 285.0 391.0 C 282.5 390.33013916015625 280.66986083984375 388.5 280.0 386.0 C 280.66986083984375 383.5 282.5 381.66986083984375 285.0 381.0 C 287.5 381.66986083984375 289.33013916015625 383.5 290.0 386.0" stroke-width="0.0" fill="rgb(74, 14, 8)" opacity="1.0" stroke="rgb(56, 223, 219)" stroke-opacity="0.26230034" stroke-linecap="round" stroke-linejoin="round"/>
    <path d="M 158.0 380.0 C 157.3301239013672 382.5 155.5 384.33013916015625 153.0 385.0 C 150.5 384.33013916015625 148.6698760986328 382.5 148.0 380.0 C 148.6698760986328 377.5 150.5 375.66986083984375 153.0 375.0 C 155.5 375.66986083984375 157.3301239013672 377.5 158.0 380.0" stroke-width="0.0" fill="rgb(71, 11, 6)" opacity="1.0" stroke="rgb(78, 202, 231)" stroke-opacity="0.73680323" stroke-linecap="round" stroke-linejoin="round"/>
    <path d="M 32.0 227.0 C 31.330127716064453 229.5 29.5 231.3301239013672 27.0 232.0 C 24.5 231.3301239013672 22.669872283935547 229.5 22.0 227.0 C 22.669872283935547 224.5 24.5 222.6698760986328 27.0 222.0 C 29.5 222.6698760986328 31.330127716064453 224.5 32.0 227.0" stroke-width="0.0" fill="rgb(247, 241, 218)" opacity="1.0" stroke="rgb(71, 216, 245)" stroke-opacity="0.58945405" stroke-linecap="round" stroke-linejoin="round"/>
    <path d="M 121.0 349.0 C 120.33012390136719 351.5 118.5 353.33013916015625 116.0 354.0 C 113.5 353.33013916015625 111.66987609863281 351.5 111.0 349.0 C 111.66987609863281 346.5 113.5 344.66986083984375 116.0 344.0 C 118.5 344.66986083984375 120.33012390136719 346.5 121.0 349.0" stroke-width="0.0" fill="rgb(199, 146, 109)" opacity="1.0" stroke="rgb(185, 189, 87)" stroke-opacity="0.36407483" stroke-linecap="round" stroke-linejoin="round"/>
    <path d="M 114.0 324.0 C 113.33012390136719 326.5 111.5 328.33013916015625 109.0 329.0 C 106.5 328.33013916015625 104.66987609863281 326.5 104.0 324.0 C 104.66987609863281 321.5 106.5 319.66986083984375 109.0 319.0 C 111.5 319.66986083984375 113.33012390136719 321.5 114.0 324.0" stroke-width="0.0" fill="rgb(72, 11, 5)" opacity="1.0" stroke="rgb(192, 236, 211)" stroke-opacity="0.42926455" stroke-linecap="round" stroke-linejoin="round"/>
    <path d="M 400.0 175.0 C 399.33013916015625 177.5 397.5 179.3301239013672 395.0 180.0 C 392.5 179.3301239013672 390.66986083984375 177.5 390.0 175.0 C 390.66986083984375 172.5 392.5 170.6698760986328 395.0 170.0 C 397.5 170.6698760986328 399.33013916015625 172.5 400.0 175.0" stroke-width="0.0" fill="rgb(63, 8, 7)" opacity="1.0" stroke="rgb(140, 21, 67)" stroke-opacity="0.63318336" stroke-linecap="round" stroke-linejoin="round"/>
    <path d="M 243.0 367.0 C 242.3301239013672 369.5 240.5 371.33013916015625 238.0 372.0 C 235.5 371.33013916015625 233.6698760986328 369.5 233.0 367.0 C 233.6698760986328 364.5 235.5 362.66986083984375 238.0 362.0 C 240.5 362.66986083984375 242.3301239013672 364.5 243.0 367.0" stroke-width="0.0" fill="rgb(80, 21, 14)" opacity="1.0" stroke="rgb(43, 43, 174)" stroke-opacity="0.12905516" stroke-linecap="round" stroke-linejoin="round"/>
    <path d="M 426.0 371.0 C 425.33013916015625 373.5 423.5 375.33013916015625 421.0 376.0 C 418.5 375.33013916015625 416.66986083984375 373.5 416.0 371.0 C 416.66986083984375 368.5 418.5 366.66986083984375 421.0 366.0 C 423.5 366.66986083984375 425.33013916015625 368.5 426.0 371.0" stroke-width="0.0" fill="rgb(223, 102, 34)" opacity="1.0" stroke="rgb(27, 133, 23)" stroke-opacity="0.12910931" stroke-linecap="round" stroke-linejoin="round"/>
    <path d="M 412.0 177.0 C 411.33013916015625 179.5 409.5 181.3301239013672 407.0 182.0 C 404.5 181.3301239013672 402.66986083984375 179.5 402.0 177.0 C 402.66986083984375 174.5 404.5 172.6698760986328 407.0 172.0 C 409.5 172.6698760986328 411.33013916015625 174.5 412.0 177.0" stroke-width="0.0" fill="rgb(222, 101, 33)" opacity="1.0" stroke="rgb(251, 133, 238)" stroke-opacity="0.46796983" stroke-linecap="round" stroke-linejoin="round"/>
    <path d="M 144.0 185.0 C 143.3301239013672 187.5 141.5 189.3301239013672 139.0 190.0 C 136.5 189.3301239013672 134.6698760986328 187.5 134.0 185.0 C 134.6698760986328 182.5 136.5 180.6698760986328 139.0 180.0 C 141.5 180.6698760986328 143.3301239013672 182.5 144.0 185.0" stroke-width="0.0" fill="rgb(228, 142, 55)" opacity="1.0" stroke="rgb(219, 13, 72)" stroke-opacity="0.7194069" stroke-linecap="round" stroke-linejoin="round"/>
    <path d="M 222.0 269.0 C 221.3301239013672 271.5 219.5 273.33013916015625 217.0 274.0 C 214.5 273.33013916015625 212.6698760986328 271.5 212.0 269.0 C 212.6698760986328 266.5 214.5 264.66986083984375 217.0 264.0 C 219.5 264.66986083984375 221.3301239013672 266.5 222.0 269.0" stroke-width="0.0" fill="rgb(247, 241, 218)" opacity="1.0" stroke="rgb(11, 66, 209)" stroke-opacity="0.9644429" stroke-linecap="round" stroke-linejoin="round"/>
    <path d="M 429.0 193.0 C 428.33013916015625 195.5 426.5 197.3301239013672 424.0 198.0 C 421.5 197.3301239013672 419.66986083984375 195.5 419.0 193.0 C 419.66986083984375 190.5 421.5 188.6698760986328 424.0 188.0 C 426.5 188.6698760986328 428.33013916015625 190.5 429.0 193.0" stroke-width="0.0" fill="rgb(74, 14, 8)" opacity="1.0" stroke="rgb(16, 163, 178)" stroke-opacity="0.9232857" stroke-linecap="round" stroke-linejoin="round"/>
    <path d="M 162.0 392.0 C 161.3301239013672 394.5 159.5 396.33013916015625 157.0 397.0 C 154.5 396.33013916015625 152.6698760986328 394.5 152.0 392.0 C 152.6698760986328 389.5 154.5 387.66986083984375 157.0 387.0 C 159.5 387.66986083984375 161.3301239013672 389.5 162.0 392.0" stroke-width="0.0" fill="rgb(76, 15, 9)" opacity="1.0" stroke="rgb(92, 75, 138)" stroke-opacity="0.20641974" stroke-linecap="round" stroke-linejoin="round"/>
    <path d="M 269.0 254.0 C 268.33013916015625 256.5 266.5 258.33013916015625 264.0 259.0 C 261.5 258.33013916015625 259.66986083984375 256.5 259.0 254.0 C 259.66986083984375 251.5 261.5 249.6698760986328 264.0 249.0 C 266.5 249.6698760986328 268.33013916015625 251.5 269.0 254.0" stroke-width="0.0" fill="rgb(227, 143, 61)" opacity="1.0" stroke="rgb(25, 251, 218)" stroke-opacity="0.6038502" stroke-linecap="round" stroke-linejoin="round"/>
    <path d="M 164.0 189.0 C 163.3301239013672 191.5 161.5 193.3301239013672 159.0 194.0 C 156.5 193.3301239013672 154.6698760986328 191.5 154.0 189.0 C 154.6698760986328 186.5 156.5 184.6698760986328 159.0 184.0 C 161.5 184.6698760986328 163.3301239013672 186.5 164.0 189.0" stroke-width="0.0" fill="rgb(223, 102, 34)" opacity="1.0" stroke="rgb(61, 157, 11)" stroke-opacity="0.80760354" stroke-linecap="round" stroke-linejoin="round"/>
    <path d="M 514.0 399.0 C 513.3301391601562 401.5 511.5 403.33013916015625 509.0 404.0 C 506.5 403.33013916015625 504.66986083984375 401.5 504.0 399.0 C 504.66986083984375 396.5 506.5 394.66986083984375 509.0 394.0 C 511.5 394.66986083984375 513.3301391601562 396.5 514.0 399.0" stroke-width="0.0" fill="rgb(247, 241, 218)" opacity="1.0" stroke="rgb(135, 106, 17)" stroke-opacity="0.46740893" stroke-linecap="round" stroke-linejoin="round"/>
    <path d="M 436.0 405.0 C 435.33013916015625 407.5 433.5 409.33013916015625 431.0 410.0 C 428.5 409.33013916015625 426.66986083984375 407.5 426.0 405.0 C 426.66986083984375 402.5 428.5 400.66986083984375 431.0 400.0 C 433.5 400.66986083984375 435.33013916015625 402.5 436.0 405.0" stroke-width="0.0" fill="rgb(222, 102, 35)" opacity="1.0" stroke="rgb(228, 53, 33)" stroke-opacity="0.98683447" stroke-linecap="round" stroke-linejoin="round"/>
    <path d="M 348.0 266.0 C 347.33013916015625 268.5 345.5 270.33013916015625 343.0 271.0 C 340.5 270.33013916015625 338.66986083984375 268.5 338.0 266.0 C 338.66986083984375 263.5 340.5 261.66986083984375 343.0 261.0 C 345.5 261.66986083984375 347.33013916015625 263.5 348.0 266.0" stroke-width="0.0" fill="rgb(229, 143, 54)" opacity="1.0" stroke="rgb(179, 174, 126)" stroke-opacity="0.9669181" stroke-linecap="round" stroke-linejoin="round"/>
    <path d="M 113.0 357.0 C 112.33012390136719 359.5 110.5 361.33013916015625 108.0 362.0 C 105.5 361.33013916015625 103.66987609863281 359.5 103.0 357.0 C 103.66987609863281 354.5 105.5 352.66986083984375 108.0 352.0 C 110.5 352.66986083984375 112.33012390136719 354.5 113.0 357.0" stroke-width="0.0" fill="rgb(71, 11, 6)" opacity="1.0" stroke="rgb(44, 201, 119)" stroke-opacity="0.08689758" stroke-linecap="round" stroke-linejoin="round"/>
    <path d="M 163.0 412.0 C 162.3301239013672 414.5 160.5 416.33013916015625 158.0 417.0 C 155.5 416.33013916015625 153.6698760986328 414.5 153.0 412.0 C 153.6698760986328 409.5 155.5 407.66986083984375 158.0 407.0 C 160.5 407.66986083984375 162.3301239013672 409.5 163.0 412.0" stroke-width="0.0" fill="rgb(232, 107, 35)" opacity="1.0" stroke="rgb(210, 60, 91)" stroke-opacity="0.54132104" stroke-linecap="round" stroke-linejoin="round"/>
    <path d="M 376.0 382.0 C 375.33013916015625 384.5 373.5 386.33013916015625 371.0 387.0 C 368.5 386.33013916015625 366.66986083984375 384.5 366.0 382.0 C 366.66986083984375 379.5 368.5 377.66986083984375 371.0 377.0 C 373.5 377.66986083984375 375.33013916015625 379.5 376.0 382.0" stroke-width="0.0" fill="rgb(228, 142, 55)" opacity="1.0" stroke="rgb(254, 175, 72)" stroke-opacity="0.80945945" stroke-linecap="round" stroke-linejoin="round"/>
    <path d="M 254.0 345.0 C 253.3301239013672 347.5 251.5 349.33013916015625 249.0 350.0 C 246.5 349.33013916015625 244.6698760986328 347.5 244.0 345.0 C 244.6698760986328 342.5 246.5 340.66986083984375 249.0 340.0 C 251.5 340.66986083984375 253.3301239013672 342.5 254.0 345.0" stroke-width="0.0" fill="rgb(107, 41, 27)" opacity="1.0" stroke="rgb(89, 177, 65)" stroke-opacity="0.9468824" stroke-linecap="round" stroke-linejoin="round"/>
    <path d="M 363.0 409.0 C 362.33013916015625 411.5 360.5 413.33013916015625 358.0 414.0 C 355.5 413.33013916015625 353.66986083984375 411.5 353.0 409.0 C 353.66986083984375 406.5 355.5 404.66986083984375 358.0 404.0 C 360.5 404.66986083984375 362.33013916015625 406.5 363.0 409.0" stroke-width="0.0" fill="rgb(236, 108, 34)" opacity="1.0" stroke="rgb(149, 214, 50)" stroke-opacity="0.69278926" stroke-linecap="round" stroke-linejoin="round"/>
    <path d="M 265.0 300.0 C 264.33013916015625 302.5 262.5 304.33013916015625 260.0 305.0 C 257.5 304.33013916015625 255.6698760986328 302.5 255.0 300.0 C 255.6698760986328 297.5 257.5 295.66986083984375 260.0 295.0 C 262.5 295.66986083984375 264.33013916015625 297.5 265.0 300.0" stroke-width="0.0" fill="rgb(245, 157, 61)" opacity="1.0" stroke="rgb(158, 211, 186)" stroke-opacity="0.8401131" stroke-linecap="round" stroke-linejoin="round"/>
    <path d="M 152.0 139.0 C 151.3301239013672 141.5 149.5 143.3301239013672 147.0 144.0 C 144.5 143.3301239013672 142.6698760986328 141.5 142.0 139.0 C 142.6698760986328 136.5 144.5 134.6698760986328 147.0 134.0 C 149.5 134.6698760986328 151.3301239013672 136.5 152.0 139.0" stroke-width="0.0" fill="rgb(74, 14, 8)" opacity="1.0" stroke="rgb(169, 201, 183)" stroke-opacity="0.36573336" stroke-linecap="round" stroke-linejoin="round"/>
    <path d="M 367.0 183.0 C 366.33013916015625 185.5 364.5 187.3301239013672 362.0 188.0 C 359.5 187.3301239013672 357.66986083984375 185.5 357.0 183.0 C 357.66986083984375 180.5 359.5 178.6698760986328 362.0 178.0 C 364.5 178.6698760986328 366.33013916015625 180.5 367.0 183.0" stroke-width="0.0" fill="rgb(228, 142, 55)" opacity="1.0" stroke="rgb(194, 113, 79)" stroke-opacity="0.9215564" stroke-linecap="round" stroke-linejoin="round"/>
    <path d="M 175.0 189.0 C 174.3301239013672 191.5 172.5 193.3301239013672 170.0 194.0 C 167.5 193.3301239013672 165.6698760986328 191.5 165.0 189.0 C 165.6698760986328 186.5 167.5 184.6698760986328 170.0 184.0 C 172.5 184.6698760986328 174.3301239013672 186.5 175.0 189.0" stroke-width="0.0" fill="rgb(228, 142, 54)" opacity="1.0" stroke="rgb(162, 4, 95)" stroke-opacity="0.56253123" stroke-linecap="round" stroke-linejoin="round"/>
    <path d="M 103.0 367.0 C 102.33012390136719 369.5 100.5 371.33013916015625 98.0 372.0 C 95.5 371.33013916015625 93.66987609863281 369.5 93.0 367.0 C 93.66987609863281 364.5 95.5 362.66986083984375 98.0 362.0 C 100.5 362.66986083984375 102.33012390136719 364.5 103.0 367.0" stroke-width="0.0" fill="rgb(205, 152, 113)" opacity="1.0" stroke="rgb(245, 28, 181)" stroke-opacity="0.8928645" stroke-linecap="round" stroke-linejoin="round"/>
    <path d="M 248.0 394.0 C 247.3301239013672 396.5 245.5 398.33013916015625 243.0 399.0 C 240.5 398.33013916015625 238.6698760986328 396.5 238.0 394.0 C 238.6698760986328 391.5 240.5 389.66986083984375 243.0 389.0 C 245.5 389.66986083984375 247.3301239013672 391.5 248.0 394.0" stroke-width="0.0" fill="rgb(77, 18, 12)" opacity="1.0" stroke="rgb(98, 235, 116)" stroke-opacity="0.38072586" stroke-linecap="round" stroke-linejoin="round"/>
    <path d="M 353.0 273.0 C 352.33013916015625 275.5 350.5 277.33013916015625 348.0 278.0 C 345.5 277.33013916015625 343.66986083984375 275.5 343.0 273.0 C 343.66986083984375 270.5 345.5 268.66986083984375 348.0 268.0 C 350.5 268.66986083984375 352.33013916015625 270.5 353.0 273.0" stroke-width="0.0" fill="rgb(254, 249, 225)" opacity="1.0" stroke="rgb(227, 47, 91)" stroke-opacity="0.5072756" stroke-linecap="round" stroke-linejoin="round"/>
    <path d="M 117.0 348.0 C 116.33012390136719 350.5 114.5 352.33013916015625 112.0 353.0 C 109.5 352.33013916015625 107.66987609863281 350.5 107.0 348.0 C 107.66987609863281 345.5 109.5 343.66986083984375 112.0 343.0 C 114.5 343.66986083984375 116.33012390136719 345.5 117.0 348.0" stroke-width="0.0" fill="rgb(197, 144, 107)" opacity="1.0" stroke="rgb(80, 53, 96)" stroke-opacity="0.8120219" stroke-linecap="round" stroke-linejoin="round"/>
    <path d="M 116.0 349.0 C 115.33012390136719 351.5 113.5 353.33013916015625 111.0 354.0 C 108.5 353.33013916015625 106.66987609863281 351.5 106.0 349.0 C 106.66987609863281 346.5 108.5 344.66986083984375 111.0 344.0 C 113.5 344.66986083984375 115.33012390136719 346.5 116.0 349.0" stroke-width="0.0" fill="rgb(208, 156, 117)" opacity="1.0" stroke="rgb(91, 191, 251)" stroke-opacity="0.6629301" stroke-linecap="round" stroke-linejoin="round"/>
    <path d="M 354.0 421.0 C 353.33013916015625 423.5 351.5 425.33013916015625 349.0 426.0 C 346.5 425.33013916015625 344.66986083984375 423.5 344.0 421.0 C 344.66986083984375 418.5 346.5 416.66986083984375 349.0 416.0 C 351.5 416.66986083984375 353.33013916015625 418.5 354.0 421.0" stroke-width="0.0" fill="rgb(228, 142, 55)" opacity="1.0" stroke="rgb(120, 205, 222)" stroke-opacity="0.11635808" stroke-linecap="round" stroke-linejoin="round"/>
    <path d="M 218.0 448.0 C 217.3301239013672 450.5 215.5 452.33013916015625 213.0 453.0 C 210.5 452.33013916015625 208.6698760986328 450.5 208.0 448.0 C 208.6698760986328 445.5 210.5 443.66986083984375 213.0 443.0 C 215.5 443.66986083984375 217.3301239013672 445.5 218.0 448.0" stroke-width="0.0" fill="rgb(245, 238, 215)" opacity="1.0" stroke="rgb(180, 76, 241)" stroke-opacity="0.5945547" stroke-linecap="round" stroke-linejoin="round"/>
    <path d="M 61.0 392.0 C 60.33012771606445 394.5 58.5 396.33013916015625 56.0 397.0 C 53.5 396.33013916015625 51.66987228393555 394.5 51.0 392.0 C 51.66987228393555 389.5 53.5 387.66986083984375 56.0 387.0 C 58.5 387.66986083984375 60.33012771606445 389.5 61.0 392.0" stroke-width="0.0" fill="rgb(228, 104, 33)" opacity="1.0" stroke="rgb(99, 90, 59)" stroke-opacity="0.6298896" stroke-linecap="round" stroke-linejoin="round"/>
    <path d="M 289.0 358.0 C 288.33013916015625 360.5 286.5 362.33013916015625 284.0 363.0 C 281.5 362.33013916015625 279.66986083984375 360.5 279.0 358.0 C 279.66986083984375 355.5 281.5 353.66986083984375 284.0 353.0 C 286.5 353.66986083984375 288.33013916015625 355.5 289.0 358.0" stroke-width="0.0" fill="rgb(81, 21, 13)" opacity="1.0" stroke="rgb(223, 188, 22)" stroke-opacity="0.31951308" stroke-linecap="round" stroke-linejoin="round"/>
    <path d="M 166.0 227.0 C 165.3301239013672 229.5 163.5 231.3301239013672 161.0 232.0 C 158.5 231.3301239013672 156.6698760986328 229.5 156.0 227.0 C 156.6698760986328 224.5 158.5 222.6698760986328 161.0 222.0 C 163.5 222.6698760986328 165.3301239013672 224.5 166.0 227.0" stroke-width="0.0" fill="rgb(203, 151, 112)" opacity="1.0" stroke="rgb(56, 208, 143)" stroke-opacity="0.8209118" stroke-linecap="round" stroke-linejoin="round"/>
  </g>
</svg>
