<?xml version="1.0" ?>
<svg xmlns="http://www.w3.org/2000/svg" version="1.1" width="508" height="512">
  <defs/>
  <g>
    <path d="M 393.1031799316406 8.027997016906738 C 132.8733673095703 97.91242218017578 338.9790344238281 1.0535434484481812 247.44081115722656 227.3042449951172 C 50.065128326416016 261.19329833984375 2.727583169937134 226.90216064453125 5.823570728302002 185.0794219970703 C 5.140587329864502 -60.770172119140625 6.139052391052246 33.07991409301758 5.403631687164307 8.005485534667969 C 166.39527893066406 8.010385513305664 180.0543975830078 7.991685390472412 393.1031799316406 8.027997016906738" stroke-width="0.0" fill="rgb(72, 105, 105)" opacity="0.4046444" stroke="rgb(132, 25, 248)" stroke-opacity="0.6672364" stroke-linecap="round" stroke-linejoin="round"/>
    <path d="M 502.3692626953125 157.4969482421875 C 468.84686279296875 305.38671875 571.3489379882812 336.127197265625 340.82550048828125 329.7182312011719 C 305.221435546875 72.1932144165039 427.86669921875 43.387596130371094 378.75555419921875 28.679222106933594 C 375.3923645019531 1.273834228515625 375.719970703125 10.132469177246094 501.7408142089844 7.935232162475586 C 502.69793701171875 12.364481925964355 502.06060791015625 -21.601825714111328 502.3692626953125 157.4969482421875" stroke-width="0.0" fill="rgb(99, 116, 121)" opacity="0.5332234" stroke="rgb(223, 224, 133)" stroke-opacity="0.2944856" stroke-linecap="round" stroke-linejoin="round"/>
    <path d="M 478.82281494140625 8.020798683166504 C 424.6356506347656 56.2689208984375 380.6231994628906 5.741929054260254 383.7792053222656 173.1534881591797 C 252.13954162597656 244.17977905273438 242.1818389892578 240.99725341796875 303.15411376953125 8.254502296447754 C 355.1045837402344 7.875997543334961 369.8126220703125 8.063699722290039 386.7502746582031 8.006969451904297 C 441.5005798339844 8.002203941345215 466.99005126953125 7.998073101043701 478.82281494140625 8.020798683166504" stroke-width="0.0" fill="rgb(82, 137, 147)" opacity="0.37294307" stroke="rgb(122, 83, 249)" stroke-opacity="0.8467586" stroke-linecap="round" stroke-linejoin="round"/>
    <path d="M 258.22686767578125 208.1809844970703 C 269.7087707519531 463.647216796875 216.24172973632812 412.0578918457031 25.095123291015625 426.6871643066406 C -18.41516876220703 389.8136291503906 8.390278816223145 418.0426330566406 82.85890197753906 357.3548889160156 C 163.91082763671875 310.634521484375 114.52381896972656 417.7415771484375 141.4360809326172 398.7376403808594 C 295.73260498046875 424.9042053222656 88.48465728759766 249.90257263183594 258.22686767578125 208.1809844970703" stroke-width="0.0" fill="rgb(0, 64, 101)" opacity="0.5359078" stroke="rgb(38, 105, 161)" stroke-opacity="0.5637614" stroke-linecap="round" stroke-linejoin="round"/>
    <path d="M 153.84568786621094 177.99021911621094 C 152.47520446777344 258.8315124511719 155.19346618652344 251.80482482910156 151.9639892578125 251.7170867919922 C 121.3965072631836 251.39015197753906 128.1851806640625 252.36074829101562 127.45218658447266 251.55160522460938 C 128.2703399658203 193.61138916015625 127.25607299804688 177.7318572998047 127.8571548461914 150.27911376953125 C 166.25381469726562 153.03648376464844 150.73941040039062 140.44741821289062 153.84568786621094 177.99021911621094" stroke-width="0.0" fill="rgb(50, 56, 76)" opacity="1.0" stroke="rgb(60, 241, 126)" stroke-opacity="0.019201314" stroke-linecap="round" stroke-linejoin="round"/>
    <path d="M 501.33251953125 430.2642822265625 C 502.9034423828125 556.6535034179688 517.346435546875 479.86456298828125 421.7229919433594 505.01519775390625 C 277.3887634277344 505.0018005371094 264.4234313964844 504.9664306640625 98.58275604248047 505.01055908203125 C 116.4562759399414 353.31805419921875 285.8732604980469 420.67742919921875 461.7850341796875 347.6069030761719 C 365.26678466796875 510.0248107910156 326.4026794433594 420.2890319824219 501.33251953125 430.2642822265625" stroke-width="0.0" fill="rgb(55, 90, 109)" opacity="0.6173329" stroke="rgb(132, 36, 163)" stroke-opacity="0.031731244" stroke-linecap="round" stroke-linejoin="round"/>
    <path d="M 502.4063720703125 421.8070373535156 C 503.0535888671875 440.2135925292969 500.0115661621094 428.44683837890625 502.818115234375 431.0717468261719 C 454.62261962890625 428.716796875 439.16314697265625 433.8796081542969 368.1583251953125 429.9833068847656 C 359.8309631347656 417.2176818847656 371.0639953613281 420.0768737792969 492.57574462890625 419.4300842285156 C 505.1055603027344 419.7151184082031 502.1792297363281 418.54736328125 502.4063720703125 421.8070373535156" stroke-width="0.0" fill="rgb(40, 39, 59)" opacity="1.0" stroke="rgb(138, 114, 182)" stroke-opacity="0.8806253" stroke-linecap="round" stroke-linejoin="round"/>
    <path d="M 127.36414337158203 171.26080322265625 C 125.50228118896484 262.7133483886719 131.8839111328125 235.1260986328125 117.3514404296875 242.12942504882812 C 90.94013977050781 239.54656982421875 98.7121353149414 257.3088684082031 97.34148406982422 171.75294494628906 C 139.44586181640625 171.09872436523438 95.86475372314453 166.15318298339844 114.90157318115234 232.49623107910156 C 116.8061294555664 161.00082397460938 110.10746002197266 172.61325073242188 127.36414337158203 171.26080322265625" stroke-width="0.0" fill="rgb(255, 247, 229)" opacity="0.96076673" stroke="rgb(7, 27, 232)" stroke-opacity="0.3824891" stroke-linecap="round" stroke-linejoin="round"/>
    <path d="M 457.2698974609375 214.78048706054688 C 457.01416015625 247.04446411132812 457.2463073730469 259.96087646484375 457.165283203125 262.407470703125 C 390.3959045410156 261.4910888671875 392.5116271972656 265.5332336425781 396.7254943847656 255.2732391357422 C 380.8849182128906 208.67372131347656 376.34228515625 211.27017211914062 448.9818420410156 215.6321258544922 C 454.14520263671875 210.15853881835938 458.80157470703125 213.0176544189453 457.2698974609375 214.78048706054688" stroke-width="0.0" fill="rgb(42, 42, 61)" opacity="0.9499808" stroke="rgb(100, 162, 133)" stroke-opacity="0.9472778" stroke-linecap="round" stroke-linejoin="round"/>
    <path d="M 264.3053283691406 207.0214385986328 C 263.8642883300781 266.759521484375 264.75897216796875 249.6744384765625 264.39776611328125 252.31224060058594 C 204.1676788330078 250.6663818359375 223.38037109375 255.07777404785156 153.73342895507812 252.8433837890625 C 154.04420471191406 150.09976196289062 149.20950317382812 164.88697814941406 166.4209747314453 163.7958526611328 C 285.1634521484375 166.05810546875 262.7383728027344 149.1904296875 264.3053283691406 207.0214385986328" stroke-width="0.0" fill="rgb(231, 191, 169)" opacity="0.9577858" stroke="rgb(190, 239, 225)" stroke-opacity="0.2116935" stroke-linecap="round" stroke-linejoin="round"/>
    <path d="M 381.86602783203125 221.40550231933594 C 371.7833557128906 259.56817626953125 384.7403259277344 245.6529541015625 363.9917297363281 243.62844848632812 C 357.4375915527344 210.93922424316406 357.195068359375 248.83731079101562 340.1304626464844 252.07003784179688 C 328.8091735839844 196.7131805419922 331.04742431640625 194.32431030273438 365.9337158203125 215.4755401611328 C 371.66082763671875 204.287109375 373.6600341796875 212.1336669921875 381.86602783203125 221.40550231933594" stroke-width="0.0" fill="rgb(255, 251, 235)" opacity="0.9158226" stroke="rgb(73, 196, 118)" stroke-opacity="0.17311981" stroke-linecap="round" stroke-linejoin="round"/>
    <path d="M 364.5025634765625 270.93310546875 C 366.96929931640625 357.6769714355469 353.9102783203125 261.5613708496094 351.6815185546875 307.26544189453125 C 333.2112121582031 310.8937072753906 360.4820556640625 291.0983581542969 327.8940734863281 295.6273193359375 C 330.8183288574219 263.0466003417969 356.5859680175781 308.435302734375 338.47515869140625 265.9831237792969 C 385.5543212890625 315.1580810546875 331.4019775390625 256.2682800292969 364.5025634765625 270.93310546875" stroke-width="0.0" fill="rgb(255, 252, 232)" opacity="0.9151555" stroke="rgb(227, 219, 103)" stroke-opacity="0.9342853" stroke-linecap="round" stroke-linejoin="round"/>
    <path d="M 117.44866943359375 384.86981201171875 C 164.26519775390625 337.3949890136719 142.22796630859375 268.6451416015625 119.56961059570312 310.1139221191406 C 132.54132080078125 390.4718322753906 75.71907043457031 400.1556396484375 88.7728500366211 301.9597473144531 C 38.27256393432617 308.9342041015625 53.04934310913086 287.3856201171875 80.76400756835938 274.5950012207031 C 113.07142639160156 277.4902648925781 129.70675659179688 291.6141662597656 117.44866943359375 384.86981201171875" stroke-width="0.0" fill="rgb(89, 141, 165)" opacity="0.8926085" stroke="rgb(96, 253, 215)" stroke-opacity="0.123503804" stroke-linecap="round" stroke-linejoin="round"/>
    <path d="M 269.8150329589844 347.84722900390625 C 268.92437744140625 352.1473693847656 274.62152099609375 350.9654541015625 251.0896759033203 351.2259826660156 C 243.43441772460938 341.72320556640625 258.93768310546875 429.9666748046875 236.75804138183594 410.7403259277344 C 251.9265594482422 310.9603271484375 221.11700439453125 326.46099853515625 268.5459899902344 323.3938903808594 C 268.7227783203125 278.1372985839844 269.0519714355469 289.1454772949219 269.8150329589844 347.84722900390625" stroke-width="0.0" fill="rgb(44, 46, 68)" opacity="0.9465338" stroke="rgb(5, 136, 113)" stroke-opacity="0.38221484" stroke-linecap="round" stroke-linejoin="round"/>
    <path d="M 429.1519775390625 216.5019989013672 C 396.648681640625 242.94186401367188 401.3036193847656 255.38658142089844 400.8944091796875 293.1159362792969 C 324.23138427734375 294.5442199707031 411.1646728515625 263.2523498535156 377.35430908203125 251.1680450439453 C 377.6534118652344 130.5922088623047 350.4515686035156 107.94355010986328 394.14031982421875 155.44558715820312 C 397.3534851074219 274.5587158203125 386.2655944824219 223.56410217285156 429.1519775390625 216.5019989013672" stroke-width="0.0" fill="rgb(34, 43, 66)" opacity="0.8403799" stroke="rgb(29, 103, 144)" stroke-opacity="0.8475176" stroke-linecap="round" stroke-linejoin="round"/>
  </g>
</svg>
