<?xml version="1.0" ?>
<svg xmlns="http://www.w3.org/2000/svg" version="1.1" width="508" height="512">
  <defs/>
  <g>
    <path d="M 392.3452453613281 8.101259231567383 C 148.5255889892578 98.97281646728516 320.54644775390625 -14.17218017578125 254.06500244140625 228.96095275878906 C 48.94972229003906 260.9010009765625 2.182314872741699 227.1064910888672 5.817573070526123 182.5597686767578 C 5.133119583129883 -60.75556182861328 6.183093070983887 33.141197204589844 5.348849296569824 8.016217231750488 C 166.3971710205078 8.047738075256348 180.0238494873047 7.951338768005371 392.3452453613281 8.101259231567383" stroke-width="0.0" fill="rgb(91, 100, 88)" opacity="0.38548127" stroke="rgb(132, 25, 248)" stroke-opacity="0.6672364" stroke-linecap="round" stroke-linejoin="round"/>
    <path d="M 503.4997863769531 140.310302734375 C 472.2826232910156 301.14068603515625 580.2083129882812 324.5164794921875 340.16595458984375 317.66009521484375 C 312.601318359375 60.92904281616211 414.3243713378906 37.492462158203125 376.49005126953125 25.662633895874023 C 359.6132507324219 5.611916542053223 369.3645324707031 8.164228439331055 482.035888671875 8.063060760498047 C 514.7487182617188 11.038359642028809 497.56170654296875 -16.298709869384766 503.4997863769531 140.310302734375" stroke-width="0.0" fill="rgb(127, 137, 135)" opacity="0.5969167" stroke="rgb(223, 224, 133)" stroke-opacity="0.2944856" stroke-linecap="round" stroke-linejoin="round"/>
    <path d="M 460.0829772949219 11.578189849853516 C 419.0003662109375 49.283172607421875 374.6365966796875 5.64505672454834 382.6026306152344 176.7366180419922 C 249.93658447265625 241.67205810546875 241.96600341796875 237.49545288085938 300.7669372558594 8.10409927368164 C 355.2824401855469 8.176216125488281 370.08624267578125 8.109111785888672 388.9759521484375 8.012104034423828 C 439.3370666503906 8.706646919250488 462.0813903808594 6.0080437660217285 460.0829772949219 11.578189849853516" stroke-width="0.0" fill="rgb(93, 148, 154)" opacity="0.37951046" stroke="rgb(122, 83, 249)" stroke-opacity="0.8467586" stroke-linecap="round" stroke-linejoin="round"/>
  </g>
</svg>
