<?xml version="1.0" ?>
<svg xmlns="http://www.w3.org/2000/svg" version="1.1" width="512" height="384">
  <defs/>
  <g>
    <path d="M -0.20662681758403778 -0.3737490177154541 L 512.0037231445312 -0.3705455958843231 L 512.002197265625 383.44012451171875 L 0.6688403487205505 383.7161865234375 L -0.20662681758403778 -0.3737490177154541" stroke-width="0.0" fill="rgb(246, 224, 217)" opacity="0.979279" stroke="rgb(0, 0, 0)" stroke-opacity="0.0" stroke-linecap="round" stroke-linejoin="round"/>
    <path d="M -0.2904247045516968 0.8259901404380798 L -0.3984980285167694 384.5262145996094 L 512.5750732421875 384.49639892578125 L 512.6346435546875 0.831818699836731 L -0.2904247045516968 0.8259901404380798" stroke-width="2.0" fill="rgb(254, 242, 215)" opacity="1.0482819" stroke="rgb(0, 0, 0)" stroke-opacity="0.0" stroke-linecap="round" stroke-linejoin="round"/>
    <path d="M 512.5728759765625 251.95921325683594 C 505.639404296875 252.3357696533203 500.626953125 255.03518676757812 495.7586669921875 247.24801635742188 C 473.66259765625 208.06613159179688 451.6998596191406 164.76626586914062 426.74603271484375 128.41883850097656 C 405.9228515625 155.9649658203125 394.52978515625 189.59445190429688 374.70452880859375 214.5911102294922 C 364.7256774902344 205.062255859375 365.3843078613281 192.17501831054688 355.1478576660156 187.6934814453125 C 343.9404602050781 208.6103057861328 327.85784912109375 229.56617736816406 320.02972412109375 250.22451782226562 C 301.78656005859375 254.1932830810547 283.3551940917969 250.40277099609375 265.7063903808594 251.96641540527344 C 261.818603515625 245.4795684814453 263.7381286621094 239.57386779785156 259.5009460449219 233.06082153320312 C 253.62838745117188 236.86343383789062 256.0873107910156 246.6089630126953 251.42530822753906 251.98399353027344 C 241.70675659179688 252.1401824951172 234.9236297607422 253.8829803466797 229.7042236328125 241.66778564453125 C 230.9611053466797 253.03604125976562 215.7642822265625 256.4427795410156 210.2347412109375 247.59341430664062 C 208.35179138183594 240.24667358398438 208.790283203125 233.84730529785156 204.2050323486328 227.12124633789062 C 198.41253662109375 236.66395568847656 202.8539581298828 258.1725158691406 187.16493225097656 250.38644409179688 L 181.87705993652344 235.851318359375 C 178.50978088378906 242.05453491210938 179.3623046875 247.75831604003906 175.57830810546875 251.54762268066406 L 133.71469116210938 251.48233032226562 C 130.33457946777344 257.59783935546875 137.37612915039062 274.44659423828125 126.21896362304688 268.6278381347656 L 127.00069427490234 251.11241149902344 C 84.98094177246094 253.56202697753906 42.89672088623047 249.6970672607422 0.061218079179525375 251.90548706054688 L 0.3292745053768158 384.5290832519531 L 512.37841796875 384.4998474121094 L 512.5728759765625 251.95921325683594" stroke-width="2.0" fill="rgb(157, 216, 158)" opacity="0.8591455" stroke="rgb(0, 0, 0)" stroke-opacity="0.0" stroke-linecap="round" stroke-linejoin="round"/>
    <path d="M 426.9582214355469 129.27658081054688 C 406.2540283203125 158.77194213867188 394.25830078125 188.0579376220703 374.4651184082031 217.27210998535156 L 337.98126220703125 215.6639862060547 C 333.0801086425781 228.02149963378906 321.547119140625 240.1415252685547 318.7659606933594 252.99755859375 C 357.27349853515625 293.14404296875 400.31317138671875 337.5893249511719 442.9546813964844 382.1485595703125 L 507.2738037109375 381.8974304199219 C 514.5109252929688 345.6498107910156 510.13909912109375 304.9673767089844 510.970458984375 266.7087707519531 L 496.6616516113281 250.3161163330078 C 475.1413269042969 210.53204345703125 452.6293640136719 169.70669555664062 426.9582214355469 129.27658081054688" stroke-width="2.0" fill="rgb(104, 132, 139)" opacity="0.9893047" stroke="rgb(0, 0, 0)" stroke-opacity="0.0" stroke-linecap="round" stroke-linejoin="round"/>
    <path d="M 319.4344177246094 252.17994689941406 L 444.61260986328125 383.3085021972656 L 511.2051086425781 382.2587585449219 C 511.0155029296875 342.69000244140625 510.7371826171875 304.41650390625 512.202392578125 265.1737060546875 L 497.5422058105469 251.45852661132812 L 319.4344177246094 252.17994689941406" stroke-width="2.0" fill="rgb(119, 144, 155)" opacity="1.0143194" stroke="rgb(0, 0, 0)" stroke-opacity="0.0" stroke-linecap="round" stroke-linejoin="round"/>
    <path d="M 69.13807678222656 49.391239166259766 C 34.3303337097168 55.46174621582031 11.773408889770508 97.32825469970703 19.068763732910156 126.00282287597656 C 23.819917678833008 164.14743041992188 69.52025604248047 189.01974487304688 101.15054321289062 178.75279235839844 C 109.62781524658203 175.72911071777344 117.30780029296875 172.3743438720703 125.7027816772461 167.28076171875 L 125.49507141113281 146.0088653564453 C 106.7735595703125 149.7248992919922 90.20262908935547 159.6444549560547 75.10782623291016 158.95187377929688 C 92.9432144165039 149.63157653808594 112.77555847167969 146.07313537597656 129.74951171875 138.68515014648438 C 129.10784912109375 113.172607421875 161.95977783203125 88.03414154052734 127.49544525146484 62.94744873046875 C 108.40206146240234 47.47201919555664 89.29689025878906 45.38151931762695 69.13807678222656 49.391239166259766" stroke-width="2.0" fill="rgb(253, 204, 128)" opacity="0.9925201" stroke="rgb(0, 0, 0)" stroke-opacity="0.0" stroke-linecap="round" stroke-linejoin="round"/>
    <path d="M 221.1261749267578 64.12674713134766 C 221.8730010986328 70.4542007446289 218.15782165527344 79.16123962402344 225.9942169189453 84.5383529663086 L 342.96881103515625 84.55265808105469 C 342.37353515625 91.43526458740234 336.6524658203125 101.19868469238281 347.0048522949219 107.60877990722656 L 491.0007629394531 107.61215209960938 C 512.4652099609375 95.53491973876953 493.698486328125 71.14789581298828 478.0000305175781 78.97230529785156 C 475.09332275390625 70.91921997070312 468.8266296386719 65.52433013916016 461.0001525878906 57.965248107910156 C 447.4420471191406 59.0262336730957 424.6300048828125 51.379730224609375 418.7641296386719 73.85368347167969 C 409.0384826660156 73.90827178955078 397.376953125 68.18409729003906 388.8904113769531 79.8669662475586 C 371.8469543457031 80.3042221069336 388.08880615234375 62.859893798828125 371.00872802734375 54.99164962768555 C 366.6666564941406 54.17375564575195 362.3333435058594 53.712650299072266 357.97015380859375 56.0095329284668 C 349.1962585449219 31.115537643432617 326.1725158691406 33.90410614013672 309.8951110839844 34.635887145996094 C 303.0741882324219 40.29371643066406 301.1136169433594 45.666141510009766 299.0260009765625 51.00204849243164 C 289.005615234375 51.025691986083984 279.00714111328125 45.0989875793457 268.9695129394531 56.05495834350586 L 230.0837860107422 55.1931037902832 L 221.1261749267578 64.12674713134766" stroke-width="2.0" fill="rgb(243, 233, 201)" opacity="1.0508281" stroke="rgb(0, 0, 0)" stroke-opacity="0.0" stroke-linecap="round" stroke-linejoin="round"/>
    <path d="M 495.5901794433594 246.51370239257812 C 473.78778076171875 208.7798614501953 450.5940856933594 168.86805725097656 430.3146057128906 132.6373748779297 L 424.7412109375 129.79446411132812 C 410.6230773925781 155.96807861328125 390.2044982910156 186.2414093017578 376.61895751953125 214.8776092529297 C 368.1255798339844 216.7279510498047 370.00689697265625 208.54177856445312 364.1066589355469 215.2379608154297 C 364.3774719238281 206.3761749267578 360.8310546875 212.92630004882812 356.01953125 214.03395080566406 C 354.8445739746094 209.90977478027344 352.6703796386719 194.37515258789062 361.0 201.0 C 353.0424499511719 206.8878936767578 374.9850769042969 207.77218627929688 361.0 200.0 C 364.98431396484375 194.89950561523438 357.92828369140625 195.72618103027344 355.0 193.0 C 357.5641174316406 191.3333282470703 357.5641174316406 189.6666717529297 355.04296875 188.0257110595703 C 345.0954284667969 208.8631134033203 329.0625915527344 229.74813842773438 318.20709228515625 250.7002410888672 L 495.8020324707031 250.38241577148438 L 495.5901794433594 246.51370239257812" stroke-width="2.0" fill="rgb(90, 106, 114)" opacity="0.83074087" stroke="rgb(0, 0, 0)" stroke-opacity="0.0" stroke-linecap="round" stroke-linejoin="round"/>
    <path d="M 266.70916748046875 254.09547424316406 C 268.4903869628906 266.8846435546875 273.0752258300781 258.96185302734375 277.8463134765625 257.0238342285156 C 281.1396484375 266.11041259765625 280.6473693847656 275.1956787109375 286.236328125 283.5832824707031 L 380.4195861816406 383.1693115234375 L 441.37689208984375 383.18096923828125 C 402.4950256347656 339.4429626464844 358.8779296875 296.8762512207031 318.81976318359375 253.3249053955078 L 266.70916748046875 254.09547424316406" stroke-width="2.0" fill="rgb(164, 213, 167)" opacity="0.995078" stroke="rgb(0, 0, 0)" stroke-opacity="0.0" stroke-linecap="round" stroke-linejoin="round"/>
    <path d="M 408.0433044433594 158.23049926757812 L 376.1766052246094 213.2118377685547 L 375.4737854003906 248.88516235351562 C 415.6536865234375 252.7301788330078 455.3417663574219 250.33071899414062 495.64715576171875 249.736328125 C 480.1600646972656 218.74905395507812 462.1014099121094 187.64614868164062 443.9128723144531 158.37109375 L 408.0433044433594 158.23049926757812" stroke-width="2.0" fill="rgb(85, 109, 121)" opacity="0.98301834" stroke="rgb(0, 0, 0)" stroke-opacity="0.0" stroke-linecap="round" stroke-linejoin="round"/>
    <path d="M 1.8560549020767212 253.81756591796875 L 1.8566550016403198 382.1362609863281 L 79.30095672607422 381.8526306152344 C 39.96377182006836 345.9288635253906 73.81758880615234 303.0947570800781 35.332950592041016 265.0782470703125 C 24.101301193237305 259.7997741699219 14.122901916503906 248.4340057373047 1.8560549020767212 253.81756591796875" stroke-width="2.0" fill="rgb(164, 213, 166)" opacity="0.9887709" stroke="rgb(0, 0, 0)" stroke-opacity="0.0" stroke-linecap="round" stroke-linejoin="round"/>
    <path d="M 501.0868835449219 87.9581298828125 C 494.9584655761719 70.5063705444336 474.4224853515625 87.41060638427734 476.09771728515625 72.95925903320312 C 461.4217834472656 51.49116897583008 447.59832763671875 59.246978759765625 431.0020446777344 57.96977615356445 C 419.8605041503906 61.71019744873047 424.7987365722656 79.15731811523438 416.0435485839844 73.06686401367188 C 407.2674560546875 74.42381286621094 394.2236328125 68.25104522705078 390.1619873046875 81.04479217529297 C 377.0047302246094 74.7137451171875 364.00201416015625 79.43993377685547 351.1068420410156 78.03414154052734 C 338.51947021484375 87.45152282714844 337.5262451171875 99.25483703613281 346.01544189453125 107.60920715332031 L 491.99822998046875 107.61695098876953 C 498.28424072265625 100.15152740478516 502.98065185546875 96.10778045654297 501.0868835449219 87.9581298828125" stroke-width="2.0" fill="rgb(248, 242, 225)" opacity="1.0382754" stroke="rgb(0, 0, 0)" stroke-opacity="0.0" stroke-linecap="round" stroke-linejoin="round"/>
    <path d="M 381.0888366699219 65.98226165771484 C 375.39642333984375 55.06504440307617 365.4002380371094 51.51425552368164 357.041748046875 56.12374496459961 C 356.2722473144531 49.057472229003906 347.56573486328125 38.82905197143555 339.99609375 35.34071731567383 C 326.32781982421875 36.089317321777344 304.06268310546875 29.553709030151367 299.66729736328125 51.61302185058594 C 289.7830505371094 51.10746383666992 276.0543212890625 45.781394958496094 270.2843017578125 56.61412048339844 C 256.6640319824219 52.530426025390625 243.34280395507812 56.75845718383789 230.45309448242188 55.55074691772461 C 218.90672302246094 64.83470916748047 217.53445434570312 74.36578369140625 226.237548828125 84.49861907958984 L 340.0533447265625 84.5442123413086 C 353.6728210449219 69.14604187011719 367.3357849121094 79.71223449707031 381.0549011230469 75.20462036132812 L 381.0888366699219 65.98226165771484" stroke-width="2.0" fill="rgb(254, 253, 251)" opacity="1.0070336" stroke="rgb(0, 0, 0)" stroke-opacity="0.0" stroke-linecap="round" stroke-linejoin="round"/>
    <path d="M 193.1852569580078 276.00079345703125 L 198.60931396484375 298.11822509765625 C 224.67227172851562 322.3802490234375 251.59817504882812 355.1896667480469 281.9657287597656 383.748046875 L 341.5166320800781 381.8534851074219 C 313.4781494140625 349.56109619140625 279.5290222167969 314.1157531738281 251.66665649414062 286.0869445800781 C 250.70082092285156 292.7270202636719 252.21214294433594 298.44677734375 254.4907989501953 303.8271179199219 C 245.6324005126953 307.7887268066406 236.3635711669922 308.3053283691406 227.42311096191406 297.0563659667969 C 217.36000061035156 296.6592712402344 205.0116729736328 299.33367919921875 206.00164794921875 285.2875671386719 C 202.30648803710938 280.1578369140625 195.24595642089844 280.8324279785156 193.1852569580078 276.00079345703125" stroke-width="2.0" fill="rgb(117, 143, 154)" opacity="0.97561663" stroke="rgb(0, 0, 0)" stroke-opacity="0.0" stroke-linecap="round" stroke-linejoin="round"/>
    <path d="M 341.475341796875 88.4062271118164 C 342.46356201171875 94.11079406738281 337.95318603515625 102.37586212158203 346.28460693359375 107.5671157836914 L 492.03460693359375 107.59937286376953 C 515.7303466796875 91.95915222167969 487.44488525390625 67.11474609375 473.1722412109375 84.0794906616211 C 454.01568603515625 78.73930358886719 435.0037536621094 88.62847900390625 415.8685302734375 73.1315689086914 C 408.0828552246094 74.45513916015625 394.3238830566406 68.39060974121094 391.4018249511719 81.43377685546875 C 375.00140380859375 78.68651580810547 356.3900146484375 71.08152770996094 341.475341796875 88.4062271118164" stroke-width="2.0" fill="rgb(254, 254, 253)" opacity="0.9735103" stroke="rgb(0, 0, 0)" stroke-opacity="0.0" stroke-linecap="round" stroke-linejoin="round"/>
    <path d="M 308.1156005859375 126.01318359375 C 302.6637878417969 119.43031311035156 297.3350830078125 119.73749542236328 291.9264221191406 120.20024108886719 C 280.403076171875 99.50912475585938 254.9675750732422 96.51468658447266 245.2751007080078 116.33769226074219 C 237.01182556152344 117.7586669921875 229.0703125 111.95237731933594 221.19985961914062 121.3566665649414 C 209.06280517578125 119.7595443725586 182.26492309570312 114.5828628540039 184.49948120117188 136.0496368408203 L 188.03634643554688 142.61181640625 L 301.03436279296875 142.64349365234375 C 308.2254638671875 138.73800659179688 308.8487854003906 131.890869140625 308.1156005859375 126.01318359375" stroke-width="2.0" fill="rgb(254, 253, 252)" opacity="0.98092" stroke="rgb(0, 0, 0)" stroke-opacity="0.0" stroke-linecap="round" stroke-linejoin="round"/>
    <path d="M 16.10108184814453 252.32627868652344 C 34.71625900268555 263.8690185546875 56.14995193481445 281.97705078125 54.165557861328125 300.75860595703125 C 59.74480056762695 326.9182434082031 52.91822814941406 361.35589599609375 83.06324005126953 383.78741455078125 L 105.95358276367188 382.59173583984375 C 86.858642578125 365.3043518066406 72.14642333984375 347.4118957519531 73.40038299560547 327.0041198730469 C 72.98236846923828 301.75079345703125 72.77250671386719 273.7235412597656 36.184513092041016 252.0651092529297 L 16.10108184814453 252.32627868652344" stroke-width="2.0" fill="rgb(6, 88, 152)" opacity="1.0009602" stroke="rgb(0, 0, 0)" stroke-opacity="0.0" stroke-linecap="round" stroke-linejoin="round"/>
    <path d="M 269.7895202636719 293.967041015625 C 294.3355712890625 322.42730712890625 327.0861511230469 354.6797790527344 353.1136169433594 383.30767822265625 C 360.43890380859375 381.1111755371094 375.20513916015625 387.2302551269531 375.64044189453125 377.97930908203125 L 286.58123779296875 285.01446533203125 C 287.8287353515625 294.7275695800781 276.89886474609375 292.553466796875 269.7895202636719 293.967041015625" stroke-width="2.0" fill="rgb(117, 143, 152)" opacity="0.97644454" stroke="rgb(0, 0, 0)" stroke-opacity="0.0" stroke-linecap="round" stroke-linejoin="round"/>
    <path d="M 145.8177490234375 90.21935272216797 C 134.64752197265625 106.38742065429688 138.11280822753906 130.14125061035156 123.68582916259766 142.61044311523438 C 107.65595245361328 142.70205688476562 91.57038879394531 154.17257690429688 75.75604248046875 158.3862762451172 C 90.23323822021484 158.7252960205078 108.82292175292969 151.76800537109375 125.7894515991211 145.5657196044922 C 127.21016693115234 185.59854125976562 123.5765609741211 227.01084899902344 124.94989776611328 268.8828125 C 126.20567321777344 271.1551818847656 129.2069549560547 272.89202880859375 133.42526245117188 269.8997802734375 L 131.44903564453125 151.2783660888672 C 142.30564880371094 158.20523071289062 155.3300323486328 170.9800262451172 166.90628051757812 180.1615447998047 C 161.08648681640625 164.49925231933594 121.14140319824219 147.43997192382812 138.07916259765625 130.13995361328125 L 145.8177490234375 90.21935272216797" stroke-width="2.0" fill="rgb(97, 115, 118)" opacity="1.0178795" stroke="rgb(0, 0, 0)" stroke-opacity="0.0" stroke-linecap="round" stroke-linejoin="round"/>
    <path d="M 318.2364807128906 250.91983032226562 C 337.3397216796875 250.72088623046875 355.67828369140625 251.07814025878906 374.5334777832031 249.42893981933594 L 375.4322204589844 215.41354370117188 L 338.4784851074219 215.00067138671875 L 318.2364807128906 250.91983032226562" stroke-width="2.0" fill="rgb(85, 109, 121)" opacity="0.99703056" stroke="rgb(0, 0, 0)" stroke-opacity="0.0" stroke-linecap="round" stroke-linejoin="round"/>
    <path d="M 429.894287109375 126.12372589111328 C 431.8196105957031 131.24940490722656 436.96990966796875 140.32077026367188 440.8232116699219 147.43618774414062 L 486.0367736816406 147.40098571777344 C 497.4488220214844 138.67202758789062 486.8638916015625 125.53406524658203 476.98699951171875 128.14529418945312 C 468.8721618652344 113.23421478271484 447.5513000488281 109.44246673583984 438.2831726074219 126.3586654663086 L 429.894287109375 126.12372589111328" stroke-width="2.0" fill="rgb(254, 253, 253)" opacity="0.98352563" stroke="rgb(0, 0, 0)" stroke-opacity="0.0" stroke-linecap="round" stroke-linejoin="round"/>
    <path d="M 276.0011901855469 83.04418182373047 C 270.797119140625 73.86209869384766 270.93548583984375 66.02949523925781 265.989990234375 55.199058532714844 C 251.0018768310547 58.33601379394531 236.06825256347656 47.30946731567383 221.4735565185547 64.4341049194336 C 222.5382537841797 70.63775634765625 217.380859375 77.26296997070312 226.19268798828125 83.90508270263672 L 276.0011901855469 83.04418182373047" stroke-width="2.0" fill="rgb(254, 253, 252)" opacity="0.9191036" stroke="rgb(0, 0, 0)" stroke-opacity="0.0" stroke-linecap="round" stroke-linejoin="round"/>
    <path d="M 341.5078125 89.17166900634766 C 341.5716552734375 94.83274841308594 339.1907043457031 102.8029556274414 346.0084533691406 107.19755554199219 L 391.9996032714844 107.20225524902344 C 388.3694152832031 97.66666412353516 393.44427490234375 88.33284759521484 387.0115051269531 78.95576477050781 C 372.6019592285156 79.64215850830078 353.16888427734375 70.78755950927734 341.5078125 89.17166900634766" stroke-width="2.0" fill="rgb(254, 254, 251)" opacity="0.97398764" stroke="rgb(0, 0, 0)" stroke-opacity="0.0" stroke-linecap="round" stroke-linejoin="round"/>
    <path d="M 301.1761779785156 46.226722717285156 C 300.77557373046875 51.243980407714844 301.8458557128906 59.85099792480469 307.0 62.00532150268555 C 322.6920471191406 59.02147674560547 340.96575927734375 69.5812759399414 354.9846496582031 58.00373077392578 C 358.5919189453125 50.571285247802734 347.9787902832031 40.807037353515625 339.9955139160156 35.122684478759766 C 327.92144775390625 37.99453353881836 310.89581298828125 27.693925857543945 301.1761779785156 46.226722717285156" stroke-width="2.0" fill="rgb(254, 254, 252)" opacity="0.9874292" stroke="rgb(0, 0, 0)" stroke-opacity="0.0" stroke-linecap="round" stroke-linejoin="round"/>
    <path d="M 247.65074157714844 265.6625061035156 C 242.6728057861328 274.7914733886719 249.488037109375 283.4918212890625 258.1547546386719 290.837890625 L 344.2324523925781 381.5149230957031 L 351.0331726074219 382.7220153808594 C 324.2861633300781 351.78900146484375 296.9023742675781 324.833251953125 266.79473876953125 292.52239990234375 C 272.3667907714844 283.6921691894531 256.5625915527344 272.6494140625 247.65074157714844 265.6625061035156" stroke-width="2.0" fill="rgb(166, 213, 171)" opacity="1.0268872" stroke="rgb(0, 0, 0)" stroke-opacity="0.0" stroke-linecap="round" stroke-linejoin="round"/>
    <path d="M 183.05532836914062 307.1942443847656 L 253.8002166748047 383.2849426269531 L 270.675048828125 382.3595886230469 L 200.95364379882812 305.7174987792969 L 183.05532836914062 307.1942443847656" stroke-width="2.0" fill="rgb(119, 144, 152)" opacity="0.9871738" stroke="rgb(0, 0, 0)" stroke-opacity="0.0" stroke-linecap="round" stroke-linejoin="round"/>
    <path d="M 422.5582580566406 67.49676513671875 C 422.83380126953125 71.0295639038086 418.8458557128906 74.9961929321289 424.0664367675781 79.45655822753906 L 469.9866027832031 83.41353607177734 C 485.7494812011719 80.33821105957031 468.447265625 65.35474395751953 461.9623718261719 58.1795539855957 C 449.3095397949219 60.68113708496094 434.1775207519531 51.857234954833984 422.5582580566406 67.49676513671875" stroke-width="2.0" fill="rgb(254, 254, 252)" opacity="0.99048865" stroke="rgb(0, 0, 0)" stroke-opacity="0.0" stroke-linecap="round" stroke-linejoin="round"/>
    <path d="M 125.96691131591797 271.7318420410156 L 232.4972381591797 382.9079895019531 L 241.1295166015625 382.35498046875 L 134.25411987304688 270.4978332519531 L 125.96691131591797 271.7318420410156" stroke-width="2.0" fill="rgb(116, 145, 149)" opacity="0.992583" stroke="rgb(0, 0, 0)" stroke-opacity="0.0" stroke-linecap="round" stroke-linejoin="round"/>
    <path d="M 247.4055938720703 112.31407165527344 C 242.7439422607422 134.78219604492188 272.4184875488281 125.53864288330078 285.9970397949219 126.00991821289062 C 292.888671875 118.67119598388672 286.04742431640625 111.34698486328125 277.9773864746094 104.10266876220703 C 268.34259033203125 106.40833282470703 256.1053161621094 98.20449829101562 247.4055938720703 112.31407165527344" stroke-width="2.0" fill="rgb(254, 254, 253)" opacity="0.96246046" stroke="rgb(0, 0, 0)" stroke-opacity="0.0" stroke-linecap="round" stroke-linejoin="round"/>
    <path d="M 185.28846740722656 126.2716293334961 C 185.42141723632812 131.3293914794922 182.40257263183594 136.6442108154297 188.09027099609375 141.9836883544922 L 225.0002899169922 142.0509033203125 C 220.44288635253906 134.89315795898438 227.21937561035156 125.48052215576172 218.99534606933594 120.0331039428711 C 208.00506591796875 122.50887298583984 197.04319763183594 114.64448547363281 185.28846740722656 126.2716293334961" stroke-width="2.0" fill="rgb(254, 253, 251)" opacity="0.980561" stroke="rgb(0, 0, 0)" stroke-opacity="0.0" stroke-linecap="round" stroke-linejoin="round"/>
    <path d="M 198.60475158691406 298.2259521484375 L 201.7368927001953 306.157470703125 L 272.0489196777344 382.0760498046875 L 279.40826416015625 383.06390380859375 L 198.60475158691406 298.2259521484375" stroke-width="2.0" fill="rgb(169, 213, 175)" opacity="1.0322201" stroke="rgb(0, 0, 0)" stroke-opacity="0.0" stroke-linecap="round" stroke-linejoin="round"/>
    <path d="M 371.03729248046875 148.99974060058594 C 360.65106201171875 144.7952117919922 352.0761413574219 131.65696716308594 341.0467224121094 145.0449676513672 C 332.469482421875 146.9112548828125 313.5445556640625 141.60781860351562 313.00030517578125 155.00790405273438 C 331.66632080078125 157.2608642578125 350.333740234375 157.45376586914062 369.04254150390625 156.12042236328125 C 372.0572204589844 154.01223754882812 370.82989501953125 152.00282287597656 371.03729248046875 148.99974060058594" stroke-width="2.0" fill="rgb(253, 253, 247)" opacity="0.999647" stroke="rgb(0, 0, 0)" stroke-opacity="0.0" stroke-linecap="round" stroke-linejoin="round"/>
    <path d="M 231.5775909423828 238.39987182617188 C 226.99700927734375 260.1063232421875 213.98558044433594 282.8821716308594 234.62802124023438 300.8599853515625 C 247.2838592529297 280.93023681640625 236.26316833496094 261.06683349609375 231.5775909423828 238.39987182617188" stroke-width="2.0" fill="rgb(58, 114, 65)" opacity="1.0729795" stroke="rgb(0, 0, 0)" stroke-opacity="0.0" stroke-linecap="round" stroke-linejoin="round"/>
    <path d="M 349.9986267089844 73.07622528076172 C 356.08184814453125 79.84537506103516 370.6080627441406 74.33589172363281 380.078125 76.0741195678711 C 386.3721923828125 64.55472564697266 369.0254821777344 47.235801696777344 357.9803771972656 56.17314529418945 C 357.31304931640625 61.32822036743164 349.56158447265625 66.66665649414062 349.9986267089844 73.07622528076172" stroke-width="2.0" fill="rgb(254, 253, 249)" opacity="0.9781437" stroke="rgb(0, 0, 0)" stroke-opacity="0.0" stroke-linecap="round" stroke-linejoin="round"/>
    <path d="M 427.416015625 125.79871368408203 C 420.7353210449219 136.77081298828125 413.70458984375 146.3456268310547 409.05389404296875 157.08787536621094 L 444.5519104003906 156.89295959472656 L 427.416015625 125.79871368408203" stroke-width="2.0" fill="rgb(199, 207, 210)" opacity="1.0031996" stroke="rgb(0, 0, 0)" stroke-opacity="0.0" stroke-linecap="round" stroke-linejoin="round"/>
    <path d="M 356.4703063964844 184.1305694580078 L 339.0718688964844 214.96890258789062 L 372.9123229980469 214.98379516601562 C 370.7949523925781 204.18162536621094 362.51153564453125 194.80413818359375 356.4703063964844 184.1305694580078" stroke-width="2.0" fill="rgb(198, 206, 209)" opacity="1.0125358" stroke="rgb(0, 0, 0)" stroke-opacity="0.0" stroke-linecap="round" stroke-linejoin="round"/>
    <path d="M 204.6836700439453 226.180908203125 C 202.33763122558594 242.91644287109375 187.02442932128906 261.8480529785156 212.06558227539062 276.5523986816406 C 217.5753631591797 260.0705261230469 206.89622497558594 243.78207397460938 204.6836700439453 226.180908203125" stroke-width="2.0" fill="rgb(93, 130, 105)" opacity="0.8797815" stroke="rgb(0, 0, 0)" stroke-opacity="0.0" stroke-linecap="round" stroke-linejoin="round"/>
    <path d="M 389.45025634765625 143.12818908691406 C 400.0726318359375 152.72378540039062 417.7820129394531 147.78465270996094 420.23516845703125 131.15106201171875 C 409.4649658203125 127.76647186279297 387.8837585449219 124.68405151367188 389.45025634765625 143.12818908691406" stroke-width="2.0" fill="rgb(253, 253, 250)" opacity="0.98936945" stroke="rgb(0, 0, 0)" stroke-opacity="0.0" stroke-linecap="round" stroke-linejoin="round"/>
    <path d="M 147.2409210205078 91.79124450683594 C 138.65350341796875 107.15750122070312 142.32339477539062 122.44782257080078 133.229736328125 137.96449279785156 C 130.34483337402344 143.6532440185547 140.52308654785156 153.4370880126953 145.53231811523438 143.29443359375 C 151.00221252441406 126.64874267578125 154.5906524658203 109.89421081542969 147.2409210205078 91.79124450683594" stroke-width="2.0" fill="rgb(249, 202, 131)" opacity="0.95796096" stroke="rgb(0, 0, 0)" stroke-opacity="0.0" stroke-linecap="round" stroke-linejoin="round"/>
    <path d="M 245.14556884765625 269.9740905761719 C 241.56431579589844 282.3499755859375 237.99595642089844 293.9627380371094 236.06655883789062 306.4137268066406 L 254.70384216308594 306.2216491699219 L 245.14556884765625 269.9740905761719" stroke-width="2.0" fill="rgb(34, 93, 41)" opacity="1.0004076" stroke="rgb(0, 0, 0)" stroke-opacity="0.0" stroke-linecap="round" stroke-linejoin="round"/>
    <path d="M 217.7914581298828 260.9502868652344 L 208.647216796875 296.8389892578125 L 226.75485229492188 297.73529052734375 C 226.1645050048828 283.8626708984375 220.9139404296875 272.144775390625 217.7914581298828 260.9502868652344" stroke-width="2.0" fill="rgb(34, 94, 43)" opacity="1.0016688" stroke="rgb(0, 0, 0)" stroke-opacity="0.0" stroke-linecap="round" stroke-linejoin="round"/>
    <path d="M 204.42881774902344 224.59007263183594 L 195.48736572265625 261.0797424316406 L 213.21917724609375 260.3441467285156 L 204.42881774902344 224.59007263183594" stroke-width="2.0" fill="rgb(31, 88, 35)" opacity="0.999282" stroke="rgb(0, 0, 0)" stroke-opacity="0.0" stroke-linecap="round" stroke-linejoin="round"/>
    <path d="M 191.15716552734375 269.2104797363281 L 181.28652954101562 306.546875 L 200.11878967285156 305.86181640625 L 191.15716552734375 269.2104797363281" stroke-width="2.0" fill="rgb(32, 92, 39)" opacity="0.9944417" stroke="rgb(0, 0, 0)" stroke-opacity="0.0" stroke-linecap="round" stroke-linejoin="round"/>
    <path d="M 181.85427856445312 233.44764709472656 L 172.38998413085938 270.18194580078125 L 190.9215850830078 269.6799011230469 L 181.85427856445312 233.44764709472656" stroke-width="2.0" fill="rgb(32, 95, 35)" opacity="0.9951868" stroke="rgb(0, 0, 0)" stroke-opacity="0.0" stroke-linecap="round" stroke-linejoin="round"/>
    <path d="M 276.61871337890625 256.6251220703125 L 267.3162841796875 292.84991455078125 L 285.5638427734375 292.83355712890625 C 284.1173400878906 279.81243896484375 279.64093017578125 268.87567138671875 276.61871337890625 256.6251220703125" stroke-width="2.0" fill="rgb(33, 92, 39)" opacity="0.9930318" stroke="rgb(0, 0, 0)" stroke-opacity="0.0" stroke-linecap="round" stroke-linejoin="round"/>
    <path d="M 258.6565856933594 229.32151794433594 L 249.4224395751953 265.49847412109375 L 267.89410400390625 265.3912048339844 L 258.6565856933594 229.32151794433594" stroke-width="2.0" fill="rgb(34, 93, 37)" opacity="1.0036842" stroke="rgb(0, 0, 0)" stroke-opacity="0.0" stroke-linecap="round" stroke-linejoin="round"/>
    <path d="M 231.8800811767578 240.15670776367188 L 222.7447509765625 272.83837890625 L 240.19883728027344 273.492431640625 L 231.8800811767578 240.15670776367188" stroke-width="2.0" fill="rgb(27, 92, 31)" opacity="1.0167967" stroke="rgb(0, 0, 0)" stroke-opacity="0.0" stroke-linecap="round" stroke-linejoin="round"/>
    <path d="M 250.40902709960938 266.2828369140625 C 256.72686767578125 271.47747802734375 263.4583435058594 279.9565124511719 269.4566345214844 282.7364501953125 C 277.7365417480469 268.71405029296875 263.30902099609375 261.3664245605469 250.40902709960938 266.2828369140625" stroke-width="2.0" fill="rgb(113, 138, 147)" opacity="0.9214946" stroke="rgb(0, 0, 0)" stroke-opacity="0.0" stroke-linecap="round" stroke-linejoin="round"/>
    <path d="M 196.6400604248047 261.69854736328125 C 199.9756622314453 265.2509460449219 207.65093994140625 276.40985107421875 213.53684997558594 275.36785888671875 C 220.8424530029297 262.0354919433594 208.57553100585938 258.86749267578125 196.6400604248047 261.69854736328125" stroke-width="2.0" fill="rgb(117, 146, 148)" opacity="1.0981132" stroke="rgb(0, 0, 0)" stroke-opacity="0.0" stroke-linecap="round" stroke-linejoin="round"/>
    <path d="M 174.63978576660156 270.15997314453125 C 176.3380126953125 273.6930236816406 181.17141723632812 279.2702941894531 186.1349334716797 282.46807861328125 C 192.765869140625 270.62725830078125 186.6979217529297 267.79107666015625 174.63978576660156 270.15997314453125" stroke-width="2.0" fill="rgb(112, 137, 146)" opacity="0.94092137" stroke="rgb(0, 0, 0)" stroke-opacity="0.0" stroke-linecap="round" stroke-linejoin="round"/>
  </g>
</svg>
