<?xml version="1.0" ?>
<svg xmlns="http://www.w3.org/2000/svg" version="1.1" width="512" height="384">
  <defs/>
  <g>
    <path d="M 0.0 0.0 L 512.0 0.0 L 512.0 384.0 L 0.0 384.0 L 0.0 0.0" stroke-width="0.0" fill="rgb(255, 255, 255)" opacity="1.0" stroke="rgb(0, 0, 0)" stroke-opacity="0.0" stroke-linecap="round" stroke-linejoin="round"/>
    <path d="M 0.0 2.0 L 0.0 383.0 L 511.0 383.0 L 511.0 2.0 L 0.0 2.0" stroke-width="2.0" fill="rgb(255, 255, 255)" opacity="1.0" stroke="rgb(0, 0, 0)" stroke-opacity="0.0" stroke-linecap="round" stroke-linejoin="round"/>
    <path d="M 511.0 253.0 C 505.6666564941406 252.53952026367188 500.3333435058594 255.17445373535156 495.0 248.0 C 473.1624755859375 208.55853271484375 451.1651916503906 165.29721069335938 426.0 129.0 C 406.4653625488281 156.3424835205078 394.0106506347656 188.98773193359375 373.0 213.0 C 364.46368408203125 205.247314453125 364.9934387207031 192.45033264160156 355.0 188.0 C 343.9901428222656 208.6666717529297 327.4876708984375 229.3333282470703 320.0 250.0 C 301.6666564941406 254.52154541015625 283.3333435058594 250.77268981933594 265.0 252.0 C 261.0187683105469 246.0 263.16986083984375 240.0 259.0 234.0 C 253.96279907226562 237.07571411132812 256.1278991699219 246.54872131347656 251.0 252.0 C 241.75650024414062 252.45535278320312 234.61756896972656 253.96067810058594 230.0 242.0 C 230.7403564453125 252.92330932617188 216.00050354003906 256.5654602050781 210.0 247.0 C 207.67721557617188 240.6666717529297 208.16563415527344 234.3333282470703 204.0 228.0 C 198.3054962158203 236.32681274414062 202.1483612060547 257.4212341308594 186.0 251.0 L 181.0 237.0 C 179.11376953125 242.3333282470703 179.49856567382812 247.6666717529297 175.0 253.0 L 135.0 253.0 C 131.61428833007812 257.9013977050781 138.57180786132812 274.88519287109375 127.0 269.0 L 127.0 252.0 C 85.0 254.43765258789062 43.0 250.4200439453125 1.0 253.0 L 0.0 383.0 L 511.0 383.0 L 511.0 253.0" stroke-width="2.0" fill="rgb(129, 167, 153)" opacity="1.0" stroke="rgb(0, 0, 0)" stroke-opacity="0.0" stroke-linecap="round" stroke-linejoin="round"/>
    <path d="M 426.0 130.0 C 406.11260986328125 158.6666717529297 393.32763671875 187.3333282470703 373.0 216.0 L 338.0 216.0 C 333.0655517578125 228.0 321.443359375 240.0 320.0 252.0 C 358.0008850097656 292.4306945800781 401.0581359863281 336.8546447753906 444.0 381.0 L 507.0 382.0 C 514.1883544921875 345.6603698730469 509.6801452636719 305.00469970703125 511.0 267.0 L 496.0 251.0 C 474.99725341796875 210.6666717529297 451.9623107910156 170.3333282470703 426.0 130.0" stroke-width="2.0" fill="rgb(109, 133, 144)" opacity="1.0" stroke="rgb(0, 0, 0)" stroke-opacity="0.0" stroke-linecap="round" stroke-linejoin="round"/>
    <path d="M 320.0 252.0 L 445.0 382.0 L 510.0 381.0 C 509.8961486816406 342.6666564941406 509.1960754394531 304.3333435058594 511.0 266.0 L 497.0 252.0 L 320.0 252.0" stroke-width="2.0" fill="rgb(119, 143, 155)" opacity="1.0" stroke="rgb(0, 0, 0)" stroke-opacity="0.0" stroke-linecap="round" stroke-linejoin="round"/>
    <path d="M 69.0 49.0 C 35.00425338745117 55.80192565917969 12.020957946777344 98.05461883544922 19.0 125.0 C 25.186948776245117 162.48497009277344 71.00196075439453 187.2659149169922 101.0 177.0 C 108.66666412353516 174.32044982910156 116.33333587646484 171.01702880859375 124.0 166.0 L 124.0 147.0 C 107.33333587646484 150.70733642578125 90.66666412353516 160.7504119873047 74.0 159.0 C 91.8321304321289 148.09046936035156 111.77147674560547 144.56863403320312 128.0 137.0 C 127.56658172607422 112.33333587646484 160.55418395996094 87.66666412353516 127.0 63.0 C 108.0 48.12812805175781 89.0 45.96795654296875 69.0 49.0" stroke-width="2.0" fill="rgb(254, 204, 128)" opacity="1.0" stroke="rgb(0, 0, 0)" stroke-opacity="0.0" stroke-linecap="round" stroke-linejoin="round"/>
    <path d="M 221.0 64.0 C 221.82229614257812 70.459716796875 218.0985107421875 79.15998077392578 226.0 84.0 L 343.0 84.0 C 342.3540954589844 91.43206024169922 336.638916015625 101.19844818115234 347.0 107.0 L 491.0 107.0 C 512.4669189453125 95.53421783447266 493.7022399902344 71.15692138671875 478.0 79.0 C 475.0965576171875 70.91730499267578 468.827392578125 65.5239028930664 461.0 58.0 C 447.4551086425781 59.08658981323242 424.7123107910156 51.46305465698242 419.0 74.0 C 409.0420837402344 73.91284942626953 397.4084777832031 68.21778106689453 389.0 80.0 C 371.8365783691406 80.31027221679688 388.078857421875 62.86515426635742 371.0 55.0 C 366.6666564941406 54.173946380615234 362.3333435058594 53.712608337402344 358.0 56.0 C 349.2047424316406 31.173431396484375 326.17181396484375 34.0815544128418 310.0 35.0 C 303.11053466796875 40.33333206176758 301.104248046875 45.66666793823242 299.0 51.0 C 289.0 51.07799530029297 279.0 45.137916564941406 269.0 56.0 L 230.0 55.0 L 221.0 64.0" stroke-width="2.0" fill="rgb(254, 253, 251)" opacity="1.0" stroke="rgb(0, 0, 0)" stroke-opacity="0.0" stroke-linecap="round" stroke-linejoin="round"/>
    <path d="M 495.0 247.0 C 473.3153991699219 209.2237091064453 450.2637023925781 169.15025329589844 430.0 133.0 L 425.0 130.0 C 410.9063720703125 156.2020263671875 390.1187744140625 186.18670654296875 376.0 214.0 C 368.2048034667969 216.29795837402344 370.012939453125 208.38067626953125 364.0 215.0 C 364.3846740722656 206.372802734375 360.82049560546875 212.90536499023438 356.0 214.0 C 354.8445739746094 209.90977478027344 352.6703796386719 194.37515258789062 361.0 201.0 C 353.0424499511719 206.8878936767578 374.9850769042969 207.77218627929688 361.0 200.0 C 364.98431396484375 194.89950561523438 357.92828369140625 195.72618103027344 355.0 193.0 C 357.5641174316406 191.3333282470703 357.5641174316406 189.6666717529297 355.0 188.0 C 344.78485107421875 208.6666717529297 328.53448486328125 229.3333282470703 319.0 250.0 L 495.0 250.0 L 495.0 247.0" stroke-width="2.0" fill="rgb(94, 117, 128)" opacity="1.0" stroke="rgb(0, 0, 0)" stroke-opacity="0.0" stroke-linecap="round" stroke-linejoin="round"/>
    <path d="M 267.0 255.0 C 268.57354736328125 266.6708068847656 273.02276611328125 258.7826843261719 278.0 257.0 C 281.4450988769531 266.0 281.1323547363281 275.0 286.0 284.0 L 380.0 382.0 L 441.0 382.0 C 403.0968933105469 338.8500671386719 359.4446105957031 296.3233642578125 319.0 254.0 L 267.0 255.0" stroke-width="2.0" fill="rgb(164, 213, 167)" opacity="1.0" stroke="rgb(0, 0, 0)" stroke-opacity="0.0" stroke-linecap="round" stroke-linejoin="round"/>
    <path d="M 409.0 157.0 L 376.0 213.0 L 376.0 248.0 C 415.6666564941406 251.68637084960938 455.3333435058594 249.3335723876953 495.0 250.0 C 479.8816223144531 219.0 461.7297668457031 188.0 443.0 157.0 L 409.0 157.0" stroke-width="2.0" fill="rgb(85, 109, 121)" opacity="1.0" stroke="rgb(0, 0, 0)" stroke-opacity="0.0" stroke-linecap="round" stroke-linejoin="round"/>
    <path d="M 3.0 254.0 L 3.0 381.0 L 78.0 381.0 C 38.632537841796875 346.5382995605469 72.4928970336914 303.76092529296875 34.0 266.0 C 24.0 259.9441833496094 14.0 248.62542724609375 3.0 254.0" stroke-width="2.0" fill="rgb(164, 214, 167)" opacity="1.0" stroke="rgb(0, 0, 0)" stroke-opacity="0.0" stroke-linecap="round" stroke-linejoin="round"/>
    <path d="M 501.0 88.0 C 494.9429626464844 70.50566101074219 474.4148254394531 87.37055206298828 476.0 73.0 C 461.4037780761719 51.530540466308594 447.5919189453125 59.26121520996094 431.0 58.0 C 419.8115234375 61.6908073425293 424.7359313964844 79.11279296875 416.0 73.0 C 407.2681884765625 74.41976165771484 394.2035217285156 68.24888610839844 390.0 81.0 C 377.0 74.75149536132812 364.0 79.46824645996094 351.0 78.0 C 338.4616394042969 87.39828491210938 337.5135192871094 99.24504852294922 346.0 107.0 L 492.0 107.0 C 498.2846984863281 100.15454864501953 502.96728515625 96.1078872680664 501.0 88.0" stroke-width="2.0" fill="rgb(254, 254, 251)" opacity="1.0" stroke="rgb(0, 0, 0)" stroke-opacity="0.0" stroke-linecap="round" stroke-linejoin="round"/>
    <path d="M 381.0 66.0 C 375.3929443359375 55.06279754638672 365.3892517089844 51.48313903808594 357.0 56.0 C 356.2269592285156 49.0820198059082 347.55535888671875 38.830928802490234 340.0 35.0 C 326.233642578125 35.74563980102539 303.7090148925781 29.151517868041992 299.0 51.0 C 289.7786865234375 50.83912658691406 275.9706726074219 45.48381042480469 270.0 56.0 C 256.6666564941406 52.18980407714844 243.3333282470703 56.46925735473633 230.0 55.0 C 218.44554138183594 64.66666412353516 217.09439086914062 74.33333587646484 226.0 84.0 L 340.0 84.0 C 353.6666564941406 69.0862045288086 367.3333435058594 79.56281280517578 381.0 75.0 L 381.0 66.0" stroke-width="2.0" fill="rgb(254, 253, 251)" opacity="1.0" stroke="rgb(0, 0, 0)" stroke-opacity="0.0" stroke-linecap="round" stroke-linejoin="round"/>
    <path d="M 194.0 276.0 L 200.0 297.0 C 225.6717071533203 321.4023132324219 252.4226531982422 354.3740539550781 283.0 382.0 L 340.0 381.0 C 312.1954650878906 350.79913330078125 278.667236328125 314.9505615234375 251.0 287.0 C 251.0277557373047 292.6666564941406 252.56228637695312 298.3333435058594 255.0 304.0 C 245.6666717529297 307.8577575683594 236.3333282470703 308.3341369628906 227.0 298.0 C 217.0714111328125 297.4305725097656 204.44412231445312 300.0464782714844 205.0 286.0 C 201.95848083496094 280.6639404296875 194.85848999023438 281.3360595703125 194.0 276.0" stroke-width="2.0" fill="rgb(119, 144, 154)" opacity="1.0" stroke="rgb(0, 0, 0)" stroke-opacity="0.0" stroke-linecap="round" stroke-linejoin="round"/>
    <path d="M 341.0 88.0 C 342.15924072265625 94.13822174072266 337.5907287597656 102.47679138183594 346.0 107.0 L 492.0 107.0 C 515.6214599609375 91.97166442871094 487.31744384765625 66.96507263183594 473.0 84.0 C 454.0 79.05326843261719 435.0 88.905029296875 416.0 73.0 C 408.0540771484375 74.40587615966797 394.1891784667969 68.26028442382812 391.0 81.0 C 374.9980163574219 78.42559051513672 356.33599853515625 70.77584838867188 341.0 88.0" stroke-width="2.0" fill="rgb(254, 254, 251)" opacity="1.0" stroke="rgb(0, 0, 0)" stroke-opacity="0.0" stroke-linecap="round" stroke-linejoin="round"/>
    <path d="M 308.0 126.0 C 302.6666564941406 119.42377471923828 297.3333435058594 119.70600128173828 292.0 120.0 C 280.4109191894531 99.29846954345703 254.93028259277344 96.26114654541016 245.0 116.0 C 237.0 117.65677642822266 229.0 111.78388214111328 221.0 121.0 C 209.0390167236328 119.56615447998047 182.12220764160156 114.42334747314453 184.0 136.0 L 188.0 142.0 L 301.0 142.0 C 308.1562194824219 138.71340942382812 308.7394104003906 131.87353515625 308.0 126.0" stroke-width="2.0" fill="rgb(254, 253, 250)" opacity="1.0" stroke="rgb(0, 0, 0)" stroke-opacity="0.0" stroke-linecap="round" stroke-linejoin="round"/>
    <path d="M 18.0 252.0 C 34.68769454956055 263.1864929199219 55.50360107421875 283.22869873046875 55.0 301.0 C 58.78855514526367 327.348876953125 52.145057678222656 360.5131530761719 84.0 382.0 L 104.0 383.0 C 87.71017456054688 364.6666564941406 71.33222961425781 346.3333435058594 72.0 328.0 C 72.22290802001953 303.046630859375 71.33336639404297 273.3759765625 38.0 253.0 L 18.0 252.0" stroke-width="2.0" fill="rgb(7, 89, 150)" opacity="1.0" stroke="rgb(0, 0, 0)" stroke-opacity="0.0" stroke-linecap="round" stroke-linejoin="round"/>
    <path d="M 271.0 293.0 C 295.07476806640625 321.7234802246094 327.8153381347656 353.9697265625 354.0 382.0 C 360.4189147949219 380.0855712890625 374.9427185058594 386.2760314941406 375.0 378.0 L 286.0 286.0 C 288.2564697265625 295.2090759277344 277.0915832519531 292.8943786621094 271.0 293.0" stroke-width="2.0" fill="rgb(119, 144, 153)" opacity="1.0" stroke="rgb(0, 0, 0)" stroke-opacity="0.0" stroke-linecap="round" stroke-linejoin="round"/>
    <path d="M 145.0 90.0 C 133.3034210205078 105.46832275390625 136.6381072998047 129.01388549804688 122.0 143.0 C 106.66666412353516 141.76235961914062 91.33333587646484 153.94473266601562 76.0 158.0 C 90.00276947021484 158.330078125 108.33125305175781 151.30865478515625 124.0 145.0 C 128.29730224609375 186.0 123.51797485351562 227.0 124.0 268.0 C 126.66666412353516 270.5293884277344 129.3333282470703 272.4327697753906 132.0 270.0 L 131.0 151.0 C 143.0 157.41575622558594 155.0 171.31658935546875 167.0 180.0 C 162.4329833984375 163.20164489746094 121.1872329711914 146.59042358398438 137.0 129.0 L 145.0 90.0" stroke-width="2.0" fill="rgb(108, 123, 120)" opacity="1.0" stroke="rgb(0, 0, 0)" stroke-opacity="0.0" stroke-linecap="round" stroke-linejoin="round"/>
    <path d="M 319.0 250.0 C 337.3333435058594 249.94186401367188 355.6666564941406 250.4590606689453 374.0 249.0 L 375.0 216.0 L 339.0 215.0 L 319.0 250.0" stroke-width="2.0" fill="rgb(85, 110, 121)" opacity="1.0" stroke="rgb(0, 0, 0)" stroke-opacity="0.0" stroke-linecap="round" stroke-linejoin="round"/>
    <path d="M 430.0 126.0 C 431.984130859375 131.1588897705078 437.1497802734375 140.2173309326172 441.0 147.0 L 486.0 147.0 C 497.397705078125 138.67178344726562 486.83892822265625 125.51276397705078 477.0 128.0 C 468.86639404296875 113.04539489746094 447.47540283203125 109.17679595947266 438.0 126.0 L 430.0 126.0" stroke-width="2.0" fill="rgb(254, 253, 251)" opacity="1.0" stroke="rgb(0, 0, 0)" stroke-opacity="0.0" stroke-linecap="round" stroke-linejoin="round"/>
    <path d="M 276.0 83.0 C 270.7966613769531 73.86228942871094 270.9351806640625 66.0295639038086 266.0 55.0 C 251.0 57.990482330322266 236.0 46.924686431884766 221.0 64.0 C 222.39366149902344 70.66666412353516 217.16879272460938 77.33333587646484 226.0 84.0 L 276.0 83.0" stroke-width="2.0" fill="rgb(254, 253, 250)" opacity="1.0" stroke="rgb(0, 0, 0)" stroke-opacity="0.0" stroke-linecap="round" stroke-linejoin="round"/>
    <path d="M 341.0 89.0 C 341.2934265136719 94.81845092773438 339.10498046875 102.79113006591797 346.0 107.0 L 392.0 107.0 C 388.37109375 97.66666412353516 393.44415283203125 88.33333587646484 387.0 79.0 C 372.59002685546875 79.67656707763672 353.1043395996094 70.73172760009766 341.0 89.0" stroke-width="2.0" fill="rgb(254, 253, 250)" opacity="1.0" stroke="rgb(0, 0, 0)" stroke-opacity="0.0" stroke-linecap="round" stroke-linejoin="round"/>
    <path d="M 301.0 46.0 C 300.75213623046875 51.245445251464844 301.8397216796875 59.85129165649414 307.0 62.0 C 322.6920471191406 59.016845703125 340.96575927734375 69.57685089111328 355.0 58.0 C 358.6029052734375 50.56794357299805 347.9856872558594 40.80155563354492 340.0 35.0 C 327.8963928222656 37.7572135925293 310.80828857421875 27.391216278076172 301.0 46.0" stroke-width="2.0" fill="rgb(254, 253, 252)" opacity="1.0" stroke="rgb(0, 0, 0)" stroke-opacity="0.0" stroke-linecap="round" stroke-linejoin="round"/>
    <path d="M 248.0 266.0 C 243.1245880126953 274.6666564941406 249.82315063476562 283.3333435058594 257.0 292.0 L 343.0 382.0 L 351.0 382.0 C 324.9866027832031 351.1120910644531 297.64862060546875 324.10955810546875 267.0 292.0 C 272.24652099609375 283.65985107421875 256.52593994140625 272.6757507324219 248.0 266.0" stroke-width="2.0" fill="rgb(161, 204, 169)" opacity="1.0" stroke="rgb(0, 0, 0)" stroke-opacity="0.0" stroke-linecap="round" stroke-linejoin="round"/>
    <path d="M 184.0 307.0 L 254.0 382.0 L 269.0 382.0 L 200.0 307.0 L 184.0 307.0" stroke-width="2.0" fill="rgb(119, 144, 152)" opacity="1.0" stroke="rgb(0, 0, 0)" stroke-opacity="0.0" stroke-linecap="round" stroke-linejoin="round"/>
    <path d="M 422.0 67.0 C 422.5923767089844 71.0 418.6273193359375 75.0 424.0 79.0 L 470.0 83.0 C 485.7261047363281 80.3389892578125 468.4497375488281 65.34296417236328 462.0 58.0 C 449.2957763671875 60.43510437011719 434.05078125 51.53520202636719 422.0 67.0" stroke-width="2.0" fill="rgb(254, 254, 251)" opacity="1.0" stroke="rgb(0, 0, 0)" stroke-opacity="0.0" stroke-linecap="round" stroke-linejoin="round"/>
    <path d="M 127.0 271.0 L 232.0 382.0 L 240.0 382.0 L 134.0 271.0 L 127.0 271.0" stroke-width="2.0" fill="rgb(120, 149, 150)" opacity="1.0" stroke="rgb(0, 0, 0)" stroke-opacity="0.0" stroke-linecap="round" stroke-linejoin="round"/>
    <path d="M 247.0 112.0 C 242.72950744628906 134.77728271484375 272.4173278808594 125.5308837890625 286.0 126.0 C 292.89813232421875 118.66666412353516 286.0643615722656 111.33333587646484 278.0 104.0 C 268.3281555175781 106.32677459716797 256.00689697265625 98.05255126953125 247.0 112.0" stroke-width="2.0" fill="rgb(254, 254, 252)" opacity="1.0" stroke="rgb(0, 0, 0)" stroke-opacity="0.0" stroke-linecap="round" stroke-linejoin="round"/>
    <path d="M 185.0 126.0 C 185.38674926757812 131.3333282470703 182.35438537597656 136.6666717529297 188.0 142.0 L 225.0 142.0 C 220.44236755371094 134.89315795898438 227.2200164794922 125.47948455810547 219.0 120.0 C 208.0 122.4695816040039 197.0 114.54421997070312 185.0 126.0" stroke-width="2.0" fill="rgb(254, 253, 250)" opacity="1.0" stroke="rgb(0, 0, 0)" stroke-opacity="0.0" stroke-linecap="round" stroke-linejoin="round"/>
    <path d="M 199.0 298.0 L 201.0 307.0 L 271.0 382.0 L 280.0 382.0 L 199.0 298.0" stroke-width="2.0" fill="rgb(160, 202, 170)" opacity="1.0" stroke="rgb(0, 0, 0)" stroke-opacity="0.0" stroke-linecap="round" stroke-linejoin="round"/>
    <path d="M 371.0 149.0 C 360.6508483886719 144.79458618164062 352.0727233886719 131.65248107910156 341.0 145.0 C 332.4695739746094 146.90625 313.5442199707031 141.6036376953125 313.0 155.0 C 331.6666564941406 157.26138305664062 350.3333435058594 157.45297241210938 369.0 156.0 C 372.0078430175781 154.0 370.7720642089844 152.0 371.0 149.0" stroke-width="2.0" fill="rgb(254, 252, 248)" opacity="1.0" stroke="rgb(0, 0, 0)" stroke-opacity="0.0" stroke-linecap="round" stroke-linejoin="round"/>
    <path d="M 231.0 240.0 C 226.944580078125 260.0013122558594 213.66998291015625 282.6649475097656 235.0 301.0 C 246.73544311523438 281.3333435058594 235.47117614746094 261.6666564941406 231.0 240.0" stroke-width="2.0" fill="rgb(78, 122, 98)" opacity="1.0" stroke="rgb(0, 0, 0)" stroke-opacity="0.0" stroke-linecap="round" stroke-linejoin="round"/>
    <path d="M 350.0 73.0 C 356.0845031738281 79.70700073242188 370.6043395996094 74.21366119384766 380.0 76.0 C 386.3533020019531 64.5173110961914 369.027099609375 47.11316680908203 358.0 56.0 C 357.324462890625 61.33333206176758 349.5612487792969 66.66666412353516 350.0 73.0" stroke-width="2.0" fill="rgb(254, 252, 248)" opacity="1.0" stroke="rgb(0, 0, 0)" stroke-opacity="0.0" stroke-linecap="round" stroke-linejoin="round"/>
    <path d="M 426.0 127.0 C 420.5724792480469 136.6666717529297 413.7628479003906 146.3333282470703 410.0 156.0 L 443.0 156.0 L 426.0 127.0" stroke-width="2.0" fill="rgb(199, 207, 210)" opacity="1.0" stroke="rgb(0, 0, 0)" stroke-opacity="0.0" stroke-linecap="round" stroke-linejoin="round"/>
    <path d="M 356.0 185.0 L 340.0 214.0 L 372.0 214.0 C 370.02471923828125 204.6666717529297 361.7658996582031 195.3333282470703 356.0 185.0" stroke-width="2.0" fill="rgb(200, 207, 209)" opacity="1.0" stroke="rgb(0, 0, 0)" stroke-opacity="0.0" stroke-linecap="round" stroke-linejoin="round"/>
    <path d="M 204.0 226.0 C 201.42025756835938 242.3352508544922 186.16502380371094 261.3307800292969 212.0 276.0 C 217.83837890625 260.0 206.6492156982422 244.0 204.0 226.0" stroke-width="2.0" fill="rgb(65, 113, 79)" opacity="1.0" stroke="rgb(0, 0, 0)" stroke-opacity="0.0" stroke-linecap="round" stroke-linejoin="round"/>
    <path d="M 389.0 143.0 C 400.0151062011719 152.63877868652344 417.62176513671875 147.63497924804688 420.0 131.0 C 409.4169006347656 127.66177368164062 387.7015686035156 124.5313949584961 389.0 143.0" stroke-width="2.0" fill="rgb(253, 252, 248)" opacity="1.0" stroke="rgb(0, 0, 0)" stroke-opacity="0.0" stroke-linecap="round" stroke-linejoin="round"/>
    <path d="M 146.0 93.0 C 139.89584350585938 107.66666412353516 142.66773986816406 122.33333587646484 133.0 137.0 C 131.65980529785156 142.4645538330078 141.1511993408203 152.212890625 144.0 142.0 C 149.33978271484375 126.0 152.91184997558594 110.0 146.0 93.0" stroke-width="2.0" fill="rgb(249, 204, 133)" opacity="1.0" stroke="rgb(0, 0, 0)" stroke-opacity="0.0" stroke-linecap="round" stroke-linejoin="round"/>
    <path d="M 342.0 145.0 C 339.3726501464844 160.48631286621094 372.6723937988281 162.96762084960938 371.0 148.0 C 362.0447998046875 144.806640625 350.2889404296875 130.64366149902344 342.0 145.0" stroke-width="2.0" fill="rgb(254, 252, 248)" opacity="1.0" stroke="rgb(0, 0, 0)" stroke-opacity="0.0" stroke-linecap="round" stroke-linejoin="round"/>
    <path d="M 441.0 121.0 C 441.605224609375 123.65638732910156 439.38623046875 126.71113586425781 443.0 128.0 C 453.6666564941406 127.7813949584961 464.3333435058594 127.9637222290039 475.0 129.0 C 472.87445068359375 113.44322204589844 452.13421630859375 111.94345092773438 441.0 121.0" stroke-width="2.0" fill="rgb(254, 253, 250)" opacity="1.0" stroke="rgb(0, 0, 0)" stroke-opacity="0.0" stroke-linecap="round" stroke-linejoin="round"/>
    <path d="M 223.0 274.0 C 224.04229736328125 283.6703186035156 224.52557373046875 293.9767761230469 235.0 301.0 C 238.34913635253906 292.6666564941406 240.61279296875 284.3333435058594 241.0 276.0 C 235.3333282470703 271.6125183105469 229.6666717529297 275.1307678222656 223.0 274.0" stroke-width="2.0" fill="rgb(117, 145, 151)" opacity="1.0" stroke="rgb(0, 0, 0)" stroke-opacity="0.0" stroke-linecap="round" stroke-linejoin="round"/>
    <path d="M 341.0 146.0 C 331.7209777832031 145.8441925048828 310.1082458496094 141.38204956054688 313.0 157.0 C 322.6845397949219 154.54696655273438 346.3176574707031 164.12355041503906 341.0 146.0" stroke-width="2.0" fill="rgb(253, 251, 245)" opacity="1.0" stroke="rgb(0, 0, 0)" stroke-opacity="0.0" stroke-linecap="round" stroke-linejoin="round"/>
    <path d="M 245.0 271.0 C 241.47264099121094 282.3333435058594 237.61416625976562 293.6666564941406 237.0 305.0 L 253.0 305.0 L 245.0 271.0" stroke-width="2.0" fill="rgb(35, 95, 43)" opacity="1.0" stroke="rgb(0, 0, 0)" stroke-opacity="0.0" stroke-linecap="round" stroke-linejoin="round"/>
    <path d="M 217.0 262.0 L 209.0 295.0 L 225.0 296.0 C 224.82452392578125 284.6666564941406 219.22752380371094 273.3333435058594 217.0 262.0" stroke-width="2.0" fill="rgb(34, 94, 42)" opacity="1.0" stroke="rgb(0, 0, 0)" stroke-opacity="0.0" stroke-linecap="round" stroke-linejoin="round"/>
    <path d="M 272.0 53.0 C 267.2825012207031 67.63003540039062 309.882080078125 67.02145385742188 295.0 50.0 C 287.6666564941406 51.02951431274414 280.3333435058594 47.75859832763672 272.0 53.0" stroke-width="2.0" fill="rgb(253, 253, 249)" opacity="1.0" stroke="rgb(0, 0, 0)" stroke-opacity="0.0" stroke-linecap="round" stroke-linejoin="round"/>
    <path d="M 204.0 226.0 L 196.0 260.0 L 212.0 260.0 L 204.0 226.0" stroke-width="2.0" fill="rgb(38, 96, 41)" opacity="1.0" stroke="rgb(0, 0, 0)" stroke-opacity="0.0" stroke-linecap="round" stroke-linejoin="round"/>
    <path d="M 190.0 271.0 L 182.0 305.0 L 198.0 305.0 L 190.0 271.0" stroke-width="2.0" fill="rgb(34, 94, 41)" opacity="1.0" stroke="rgb(0, 0, 0)" stroke-opacity="0.0" stroke-linecap="round" stroke-linejoin="round"/>
    <path d="M 181.0 235.0 L 173.0 269.0 L 189.0 268.0 L 181.0 235.0" stroke-width="2.0" fill="rgb(36, 97, 39)" opacity="1.0" stroke="rgb(0, 0, 0)" stroke-opacity="0.0" stroke-linecap="round" stroke-linejoin="round"/>
    <path d="M 276.0 258.0 L 268.0 291.0 L 284.0 291.0 C 283.24591064453125 280.3333435058594 278.53289794921875 269.6666564941406 276.0 258.0" stroke-width="2.0" fill="rgb(34, 95, 40)" opacity="1.0" stroke="rgb(0, 0, 0)" stroke-opacity="0.0" stroke-linecap="round" stroke-linejoin="round"/>
    <path d="M 258.0 231.0 L 250.0 264.0 L 266.0 264.0 L 258.0 231.0" stroke-width="2.0" fill="rgb(37, 95, 39)" opacity="1.0" stroke="rgb(0, 0, 0)" stroke-opacity="0.0" stroke-linecap="round" stroke-linejoin="round"/>
    <path d="M 231.0 241.0 L 223.0 272.0 L 239.0 273.0 L 231.0 241.0" stroke-width="2.0" fill="rgb(33, 96, 38)" opacity="1.0" stroke="rgb(0, 0, 0)" stroke-opacity="0.0" stroke-linecap="round" stroke-linejoin="round"/>
    <path d="M 191.0 261.0 C 186.85360717773438 269.8591003417969 202.41477966308594 280.73345947265625 209.0 288.0 C 218.00880432128906 279.7594909667969 200.6582489013672 264.33050537109375 191.0 261.0" stroke-width="2.0" fill="rgb(164, 210, 170)" opacity="1.0" stroke="rgb(0, 0, 0)" stroke-opacity="0.0" stroke-linecap="round" stroke-linejoin="round"/>
    <path d="M 226.0 275.0 C 232.0517578125 275.57769775390625 234.00706481933594 280.8920593261719 225.0 280.0 C 224.08006286621094 287.7089538574219 229.43043518066406 293.6816101074219 236.0 298.0 C 239.49578857421875 284.88653564453125 246.19122314453125 270.5404357910156 226.0 275.0" stroke-width="2.0" fill="rgb(119, 144, 154)" opacity="1.0" stroke="rgb(0, 0, 0)" stroke-opacity="0.0" stroke-linecap="round" stroke-linejoin="round"/>
    <path d="M 224.0 118.0 C 218.37442016601562 131.81906127929688 253.2054901123047 130.15676879882812 243.0 116.0 L 224.0 118.0" stroke-width="2.0" fill="rgb(254, 253, 250)" opacity="1.0" stroke="rgb(0, 0, 0)" stroke-opacity="0.0" stroke-linecap="round" stroke-linejoin="round"/>
    <path d="M 392.0 82.0 C 401.3333435058594 81.30783081054688 410.6666564941406 80.3147964477539 420.0 78.0 C 413.44342041015625 69.81990814208984 392.199462890625 69.24088287353516 392.0 82.0" stroke-width="2.0" fill="rgb(254, 252, 246)" opacity="1.0" stroke="rgb(0, 0, 0)" stroke-opacity="0.0" stroke-linecap="round" stroke-linejoin="round"/>
    <path d="M 145.0 90.0 C 138.68946838378906 103.6695556640625 131.226806640625 121.66450500488281 130.0 137.0 C 142.51632690429688 125.62812805175781 138.4779510498047 105.69525909423828 145.0 90.0" stroke-width="2.0" fill="rgb(110, 117, 108)" opacity="1.0" stroke="rgb(0, 0, 0)" stroke-opacity="0.0" stroke-linecap="round" stroke-linejoin="round"/>
    <path d="M 124.0 144.0 C 107.66666412353516 140.21826171875 91.33333587646484 154.83877563476562 75.0 159.0 C 92.99698638916016 155.53651428222656 106.6689224243164 151.78221130371094 124.0 144.0" stroke-width="2.0" fill="rgb(108, 116, 107)" opacity="1.0" stroke="rgb(0, 0, 0)" stroke-opacity="0.0" stroke-linecap="round" stroke-linejoin="round"/>
    <path d="M 133.0 145.0 C 135.6944580078125 159.17657470703125 157.2664794921875 168.76437377929688 168.0 181.0 C 159.72573852539062 168.91598510742188 146.02845764160156 154.10325622558594 133.0 145.0" stroke-width="2.0" fill="rgb(106, 121, 123)" opacity="1.0" stroke="rgb(0, 0, 0)" stroke-opacity="0.0" stroke-linecap="round" stroke-linejoin="round"/>
    <path d="M 342.0 145.0 C 342.5103759765625 155.19488525390625 375.1785888671875 149.7816162109375 357.0 139.0 C 352.4833984375 139.46047973632812 344.4062194824219 136.82554626464844 342.0 145.0" stroke-width="2.0" fill="rgb(253, 252, 248)" opacity="1.0" stroke="rgb(0, 0, 0)" stroke-opacity="0.0" stroke-linecap="round" stroke-linejoin="round"/>
    <path d="M 251.0 266.0 C 257.30810546875 270.8766784667969 264.0623779296875 279.3044128417969 269.0 282.0 C 277.0690002441406 269.050537109375 262.8677978515625 261.3478698730469 251.0 266.0" stroke-width="2.0" fill="rgb(117, 146, 146)" opacity="1.0" stroke="rgb(0, 0, 0)" stroke-opacity="0.0" stroke-linecap="round" stroke-linejoin="round"/>
    <path d="M 197.0 261.0 C 200.35604858398438 264.8861999511719 207.9830322265625 276.03143310546875 213.0 275.0 C 220.2222442626953 262.2735290527344 208.19711303710938 258.62945556640625 197.0 261.0" stroke-width="2.0" fill="rgb(118, 146, 149)" opacity="1.0" stroke="rgb(0, 0, 0)" stroke-opacity="0.0" stroke-linecap="round" stroke-linejoin="round"/>
    <path d="M 175.0 270.0 C 176.68565368652344 273.4201354980469 181.44619750976562 278.9953308105469 186.0 282.0 C 192.44473266601562 270.9821472167969 186.35658264160156 268.0053405761719 175.0 270.0" stroke-width="2.0" fill="rgb(117, 147, 147)" opacity="1.0" stroke="rgb(0, 0, 0)" stroke-opacity="0.0" stroke-linecap="round" stroke-linejoin="round"/>
    <path d="M 229.0 232.0 C 220.49411010742188 231.0987091064453 224.37075805664062 243.6600341796875 225.0 249.0 C 228.13497924804688 245.64395141601562 230.45553588867188 238.0169677734375 229.0 232.0" stroke-width="2.0" fill="rgb(252, 242, 222)" opacity="1.0" stroke="rgb(0, 0, 0)" stroke-opacity="0.0" stroke-linecap="round" stroke-linejoin="round"/>
    <path d="M 126.0 227.0 C 126.80884552001953 232.72540283203125 121.93852996826172 248.1782684326172 130.0 246.0 C 122.98045349121094 242.51242065429688 135.98147583007812 236.236572265625 128.0 235.0 C 127.37268829345703 230.67266845703125 134.69174194335938 230.89036560058594 126.0 227.0" stroke-width="2.0" fill="rgb(85, 109, 118)" opacity="1.0" stroke="rgb(0, 0, 0)" stroke-opacity="0.0" stroke-linecap="round" stroke-linejoin="round"/>
    <path d="M 501.0 252.0 C 502.38037109375 256.097900390625 507.3619079589844 260.1766052246094 511.0 263.0 C 512.1426391601562 255.19068908691406 511.169921875 249.49673461914062 501.0 252.0" stroke-width="2.0" fill="rgb(167, 209, 172)" opacity="1.0" stroke="rgb(0, 0, 0)" stroke-opacity="0.0" stroke-linecap="round" stroke-linejoin="round"/>
  </g>
</svg>
