<?xml version="1.0" ?>
<svg xmlns="http://www.w3.org/2000/svg" version="1.1" width="512" height="352">
  <defs/>
  <g>
    <path d="M 143.62013244628906 179.4734649658203 C 156.6885528564453 246.68161010742188 154.1162109375 248.7508544921875 119.91717529296875 256.7874450683594 C 67.89537811279297 253.63601684570312 66.55059051513672 252.0297393798828 39.4342155456543 235.69778442382812 C 48.546875 188.90792846679688 67.45417785644531 181.7509002685547 97.54830169677734 176.7428436279297 C 130.68838500976562 146.71165466308594 136.10260009765625 150.4774627685547 143.62013244628906 179.4734649658203" stroke-width="0.0" fill="rgb(211, 178, 145)" opacity="0.87143177" stroke="rgb(176, 193, 126)" stroke-opacity="0.57605314" stroke-linecap="round" stroke-linejoin="round"/>
    <path d="M 260.7742614746094 163.8289794921875 C 226.16952514648438 206.33319091796875 219.4368438720703 232.4121856689453 191.78172302246094 261.7987976074219 C 192.63058471679688 237.5747833251953 180.74761962890625 238.6175994873047 175.31594848632812 193.01528930664062 C 197.00108337402344 156.02481079101562 165.61148071289062 194.19996643066406 172.5902557373047 157.0499267578125 C 233.77713012695312 124.1655502319336 261.4107971191406 144.7534942626953 260.7742614746094 163.8289794921875" stroke-width="0.0" fill="rgb(53, 80, 53)" opacity="0.5944555" stroke="rgb(115, 154, 173)" stroke-opacity="0.28549516" stroke-linecap="round" stroke-linejoin="round"/>
    <path d="M 320.6911315917969 225.3486328125 C 337.24462890625 255.4794158935547 328.7793884277344 239.9861602783203 266.1890563964844 227.49224853515625 C 273.53961181640625 275.4843444824219 244.06455993652344 288.5595703125 257.62506103515625 227.96119689941406 C 241.35752868652344 123.84300994873047 245.50013732910156 135.34059143066406 262.7196350097656 196.38949584960938 C 291.83642578125 196.7353973388672 310.5318908691406 169.96998596191406 320.6911315917969 225.3486328125" stroke-width="0.0" fill="rgb(39, 64, 50)" opacity="0.7506253" stroke="rgb(79, 124, 94)" stroke-opacity="0.90476865" stroke-linecap="round" stroke-linejoin="round"/>
    <path d="M 283.0 218.0 C 282.33013916015625 220.5 280.5 222.3301239013672 278.0 223.0 C 275.5 222.3301239013672 273.66986083984375 220.5 273.0 218.0 C 273.66986083984375 215.5 275.5 213.6698760986328 278.0 213.0 C 280.5 213.6698760986328 282.33013916015625 215.5 283.0 218.0" stroke-width="0.0" fill="rgb(108, 145, 150)" opacity="1.0" stroke="rgb(89, 158, 68)" stroke-opacity="0.45207614" stroke-linecap="round" stroke-linejoin="round"/>
    <path d="M 328.0 48.0 C 327.33013916015625 50.5 325.5 52.33012771606445 323.0 53.0 C 320.5 52.33012771606445 318.66986083984375 50.5 318.0 48.0 C 318.66986083984375 45.5 320.5 43.66987228393555 323.0 43.0 C 325.5 43.66987228393555 327.33013916015625 45.5 328.0 48.0" stroke-width="0.0" fill="rgb(206, 96, 61)" opacity="1.0" stroke="rgb(106, 75, 135)" stroke-opacity="0.17145537" stroke-linecap="round" stroke-linejoin="round"/>
    <path d="M 267.0 281.0 C 266.33013916015625 283.5 264.5 285.33013916015625 262.0 286.0 C 259.5 285.33013916015625 257.66986083984375 283.5 257.0 281.0 C 257.66986083984375 278.5 259.5 276.66986083984375 262.0 276.0 C 264.5 276.66986083984375 266.33013916015625 278.5 267.0 281.0" stroke-width="0.0" fill="rgb(105, 143, 149)" opacity="1.0" stroke="rgb(59, 80, 233)" stroke-opacity="0.8857977" stroke-linecap="round" stroke-linejoin="round"/>
    <path d="M 239.0 145.0 C 238.3301239013672 147.5 236.5 149.3301239013672 234.0 150.0 C 231.5 149.3301239013672 229.6698760986328 147.5 229.0 145.0 C 229.6698760986328 142.5 231.5 140.6698760986328 234.0 140.0 C 236.5 140.6698760986328 238.3301239013672 142.5 239.0 145.0" stroke-width="0.0" fill="rgb(201, 216, 213)" opacity="1.0" stroke="rgb(134, 39, 142)" stroke-opacity="0.9982061" stroke-linecap="round" stroke-linejoin="round"/>
  </g>
</svg>
