<?xml version="1.0" ?>
<svg xmlns="http://www.w3.org/2000/svg" version="1.1" width="512" height="352">
  <defs/>
  <g>
    <path d="M 143.68927001953125 177.7198944091797 C 156.26651000976562 246.8734893798828 154.26744079589844 248.88356018066406 120.27566528320312 256.89459228515625 C 67.88567352294922 253.64321899414062 66.4386215209961 252.19895935058594 38.349388122558594 235.86390686035156 C 48.66508102416992 188.0572509765625 67.14566040039062 181.55174255371094 99.6245346069336 176.42608642578125 C 114.33926391601562 138.29530334472656 135.71726989746094 148.9058074951172 143.68927001953125 177.7198944091797" stroke-width="0.0" fill="rgb(211, 185, 155)" opacity="0.99972" stroke="rgb(176, 193, 126)" stroke-opacity="0.57605314" stroke-linecap="round" stroke-linejoin="round"/>
    <path d="M 251.67315673828125 178.06459045410156 C 234.2521514892578 184.69215393066406 235.40695190429688 211.84861755371094 192.70083618164062 261.2773742675781 C 188.10008239746094 227.7176971435547 182.40159606933594 242.85597229003906 175.06919860839844 192.75698852539062 C 201.85565185546875 156.86122131347656 152.45370483398438 193.0865936279297 182.116943359375 154.94247436523438 C 293.4003601074219 54.52827453613281 217.30364990234375 51.480613708496094 251.67315673828125 178.06459045410156" stroke-width="0.0" fill="rgb(14, 51, 18)" opacity="0.53126425" stroke="rgb(115, 154, 173)" stroke-opacity="0.28549516" stroke-linecap="round" stroke-linejoin="round"/>
    <path d="M 319.5647888183594 223.4271697998047 C 336.932861328125 254.93016052246094 332.1685791015625 241.5021209716797 265.7306823730469 226.71090698242188 C 274.6164245605469 266.5259704589844 244.67059326171875 298.9249572753906 257.83575439453125 220.69863891601562 C 222.90814208984375 54.279178619384766 231.5083465576172 75.27403259277344 262.11993408203125 195.6267852783203 C 295.70111083984375 199.68751525878906 318.8542175292969 189.84054565429688 319.5647888183594 223.4271697998047" stroke-width="0.0" fill="rgb(24, 38, 13)" opacity="0.8393995" stroke="rgb(79, 124, 94)" stroke-opacity="0.90476865" stroke-linecap="round" stroke-linejoin="round"/>
    <path d="M 276.4579772949219 200.77635192871094 C 301.5788879394531 236.58541870117188 301.39508056640625 235.20143127441406 274.681640625 227.14871215820312 C 265.5901184082031 241.20310974121094 254.22579956054688 210.1026611328125 262.7223205566406 204.9752197265625 C 288.1807861328125 195.24160766601562 275.3061828613281 168.99807739257812 307.07440185546875 189.1770477294922 C 335.18780517578125 252.95216369628906 306.1926574707031 232.86227416992188 276.4579772949219 200.77635192871094" stroke-width="0.0" fill="rgb(105, 138, 140)" opacity="1.0" stroke="rgb(89, 158, 68)" stroke-opacity="0.45207614" stroke-linecap="round" stroke-linejoin="round"/>
    <path d="M 348.36328125 43.919921875 C 318.5791015625 114.32044982910156 352.5717468261719 22.128488540649414 288.49078369140625 111.68356323242188 C 247.99903869628906 130.05091857910156 257.1586608886719 120.00880432128906 263.6362609863281 52.70533752441406 C 329.66998291015625 52.45804214477539 306.27972412109375 39.193565368652344 321.56201171875 28.292484283447266 C 347.0496520996094 47.19771957397461 314.78167724609375 44.86622619628906 348.36328125 43.919921875" stroke-width="0.0" fill="rgb(153, 47, 8)" opacity="0.7252112" stroke="rgb(106, 75, 135)" stroke-opacity="0.17145537" stroke-linecap="round" stroke-linejoin="round"/>
    <path d="M 315.07855224609375 273.4365539550781 C 333.9639587402344 287.0869445800781 252.07298278808594 282.9034118652344 263.2525329589844 281.78997802734375 C 242.7866973876953 285.5075378417969 281.912841796875 286.12713623046875 212.20840454101562 284.1767272949219 C 205.52569580078125 271.7688293457031 243.0743865966797 270.61907958984375 276.6347351074219 277.96356201171875 C 303.6613464355469 258.54656982421875 288.23468017578125 278.2573547363281 315.07855224609375 273.4365539550781" stroke-width="0.0" fill="rgb(0, 56, 74)" opacity="0.36177728" stroke="rgb(59, 80, 233)" stroke-opacity="0.8857977" stroke-linecap="round" stroke-linejoin="round"/>
    <path d="M 236.57083129882812 117.31045532226562 C 244.7109832763672 169.7533721923828 245.85287475585938 140.5840606689453 232.42922973632812 157.8354949951172 C 229.28805541992188 160.03140258789062 238.419677734375 141.77029418945312 208.05380249023438 134.05918884277344 C 197.87030029296875 132.2454071044922 203.19456481933594 139.4093017578125 237.34762573242188 95.00382995605469 C 260.8346252441406 61.4762077331543 231.91110229492188 84.96638488769531 236.57083129882812 117.31045532226562" stroke-width="0.0" fill="rgb(220, 233, 233)" opacity="0.84744513" stroke="rgb(134, 39, 142)" stroke-opacity="0.9982061" stroke-linecap="round" stroke-linejoin="round"/>
    <path d="M 423.1354064941406 254.847900390625 C 414.15179443359375 268.46966552734375 410.9362487792969 292.68572998046875 377.5371398925781 284.1917419433594 C 361.1005554199219 264.388427734375 378.58941650390625 294.307861328125 322.34686279296875 270.8857727050781 C 358.6510314941406 229.1678924560547 344.9802551269531 182.7151336669922 419.870361328125 190.16744995117188 C 458.6364440917969 235.82322692871094 447.0474548339844 245.33782958984375 423.1354064941406 254.847900390625" stroke-width="0.0" fill="rgb(97, 89, 92)" opacity="0.5339446" stroke="rgb(69, 143, 251)" stroke-opacity="0.74109566" stroke-linecap="round" stroke-linejoin="round"/>
    <path d="M 262.17999267578125 155.29872131347656 C 254.1519012451172 159.03607177734375 270.86224365234375 168.90301513671875 251.87625122070312 167.26084899902344 C 248.15232849121094 183.99600219726562 238.20809936523438 173.08348083496094 236.92120361328125 160.2445068359375 C 255.491455078125 155.33056640625 246.49600219726562 159.00872802734375 259.9620056152344 146.63235473632812 C 256.5665588378906 149.97877502441406 265.0894470214844 154.13418579101562 262.17999267578125 155.29872131347656" stroke-width="0.0" fill="rgb(115, 141, 121)" opacity="1.0" stroke="rgb(84, 23, 2)" stroke-opacity="0.42600137" stroke-linecap="round" stroke-linejoin="round"/>
    <path d="M 441.8628845214844 275.6548156738281 C 447.2337341308594 281.0003967285156 429.3653564453125 283.8866271972656 388.1767883300781 285.9002380371094 C 366.6300048828125 280.43267822265625 372.2773132324219 283.7801513671875 415.7342834472656 282.36932373046875 C 408.2493896484375 267.83294677734375 398.97625732421875 259.5034484863281 400.2880859375 263.5140380859375 C 428.20599365234375 270.11541748046875 425.6553039550781 262.81109619140625 441.8628845214844 275.6548156738281" stroke-width="0.0" fill="rgb(73, 71, 71)" opacity="0.7592313" stroke="rgb(182, 50, 239)" stroke-opacity="0.47272745" stroke-linecap="round" stroke-linejoin="round"/>
    <path d="M 383.0921936035156 150.50863647460938 C 394.8980407714844 190.92710876464844 413.5280456542969 180.20420837402344 370.2065734863281 248.29412841796875 C 318.081787109375 199.85594177246094 360.39642333984375 193.03042602539062 344.9263916015625 163.77444458007812 C 302.2974853515625 141.7729949951172 323.79345703125 104.7843246459961 360.6705322265625 146.23159790039062 C 378.2053527832031 151.71896362304688 369.9744873046875 145.68556213378906 383.0921936035156 150.50863647460938" stroke-width="0.0" fill="rgb(168, 168, 168)" opacity="1.0" stroke="rgb(154, 143, 102)" stroke-opacity="0.6558297" stroke-linecap="round" stroke-linejoin="round"/>
    <path d="M 325.104248046875 235.96206665039062 C 337.86029052734375 250.5840301513672 305.72320556640625 234.71722412109375 298.8934631347656 231.15309143066406 C 295.4545593261719 238.5821990966797 287.6729431152344 228.26292419433594 287.7300720214844 216.4709014892578 C 299.32421875 242.30264282226562 299.0535888671875 225.6066131591797 282.5601806640625 207.0391387939453 C 261.1761169433594 186.41162109375 321.5965270996094 220.74464416503906 325.104248046875 235.96206665039062" stroke-width="0.0" fill="rgb(94, 126, 127)" opacity="1.0" stroke="rgb(39, 150, 55)" stroke-opacity="0.14697085" stroke-linecap="round" stroke-linejoin="round"/>
    <path d="M 392.8542785644531 169.03573608398438 C 401.7181091308594 176.57923889160156 441.4988098144531 166.7438507080078 453.4869689941406 224.71107482910156 C 363.5265808105469 203.60997009277344 385.53118896484375 200.59747314453125 374.8558349609375 151.6064910888672 C 310.37872314453125 154.1165008544922 320.4161071777344 118.82463073730469 377.86224365234375 100.24067687988281 C 405.47882080078125 143.872802734375 390.08221435546875 144.71682739257812 392.8542785644531 169.03573608398438" stroke-width="0.0" fill="rgb(171, 172, 172)" opacity="1.0" stroke="rgb(8, 155, 15)" stroke-opacity="0.65340716" stroke-linecap="round" stroke-linejoin="round"/>
    <path d="M 185.45228576660156 164.6317138671875 C 195.03245544433594 164.8317413330078 179.47483825683594 163.54754638671875 205.35556030273438 157.9834442138672 C 242.17576599121094 158.0957489013672 238.40740966796875 157.5558319091797 195.80235290527344 160.91836547851562 C 254.39675903320312 158.175048828125 182.84097290039062 154.18997192382812 140.565185546875 187.07464599609375 C 190.39857482910156 166.81419372558594 196.1723175048828 161.56784057617188 185.45228576660156 164.6317138671875" stroke-width="0.0" fill="rgb(42, 15, 0)" opacity="0.4496595" stroke="rgb(33, 245, 63)" stroke-opacity="0.33612138" stroke-linecap="round" stroke-linejoin="round"/>
    <path d="M 477.6778564453125 227.66561889648438 C 477.8669128417969 272.0118408203125 415.048583984375 279.4313659667969 434.0097961425781 280.1531677246094 C 367.3801574707031 286.2363586425781 377.3720397949219 288.74652099609375 401.0559997558594 257.394775390625 C 416.7341613769531 252.6342315673828 383.57794189453125 224.1767578125 457.3375549316406 221.86863708496094 C 458.9217834472656 237.53268432617188 477.04864501953125 162.12271118164062 477.6778564453125 227.66561889648438" stroke-width="0.0" fill="rgb(159, 160, 159)" opacity="0.97524875" stroke="rgb(213, 96, 151)" stroke-opacity="0.77533954" stroke-linecap="round" stroke-linejoin="round"/>
    <path d="M 393.1629333496094 238.69627380371094 C 385.2067565917969 248.10972595214844 380.0682373046875 247.12701416015625 374.4361267089844 247.68421936035156 C 393.1998596191406 284.48492431640625 374.37823486328125 255.60862731933594 374.39630126953125 251.11276245117188 C 370.85986328125 227.6527557373047 378.315185546875 246.0125274658203 375.396728515625 237.7737274169922 C 374.26702880859375 242.90322875976562 392.1787414550781 241.56240844726562 393.1629333496094 238.69627380371094" stroke-width="0.0" fill="rgb(92, 91, 90)" opacity="0.98287815" stroke="rgb(126, 51, 235)" stroke-opacity="0.3892988" stroke-linecap="round" stroke-linejoin="round"/>
    <path d="M 406.479248046875 174.11587524414062 C 405.07666015625 178.39256286621094 403.1107482910156 190.94715881347656 384.2249450683594 192.57931518554688 C 393.5447692871094 192.2929229736328 398.7875061035156 178.60340881347656 394.80645751953125 185.61289978027344 C 398.4780578613281 181.17141723632812 398.3091125488281 165.39462280273438 387.83782958984375 170.0506134033203 C 413.75396728515625 171.5811004638672 444.0639953613281 186.636474609375 406.479248046875 174.11587524414062" stroke-width="0.0" fill="rgb(76, 75, 74)" opacity="0.67418164" stroke="rgb(171, 172, 216)" stroke-opacity="0.13369888" stroke-linecap="round" stroke-linejoin="round"/>
    <path d="M 467.8609313964844 187.6004638671875 C 484.51751708984375 217.82691955566406 461.7071533203125 179.4877471923828 465.8119812011719 217.8828887939453 C 460.21466064453125 184.35092163085938 434.3188781738281 181.94415283203125 442.73516845703125 141.08457946777344 C 440.4091796875 178.62950134277344 452.2039489746094 187.6358184814453 452.10430908203125 141.46853637695312 C 453.18829345703125 164.062255859375 454.4299621582031 169.2825927734375 467.8609313964844 187.6004638671875" stroke-width="0.0" fill="rgb(123, 121, 122)" opacity="0.7985713" stroke="rgb(47, 50, 185)" stroke-opacity="0.13007948" stroke-linecap="round" stroke-linejoin="round"/>
    <path d="M 221.36265563964844 274.0844421386719 C 202.8790283203125 279.3279113769531 226.9884033203125 279.13360595703125 193.82379150390625 277.0951232910156 C 195.44769287109375 276.9929504394531 174.38162231445312 276.81512451171875 173.85687255859375 274.502685546875 C 168.97817993164062 270.4898681640625 192.7025604248047 269.69805908203125 200.41302490234375 271.15057373046875 C 186.2164306640625 268.0215759277344 195.92393493652344 275.75457763671875 221.36265563964844 274.0844421386719" stroke-width="0.0" fill="rgb(0, 53, 73)" opacity="0.3694601" stroke="rgb(244, 96, 68)" stroke-opacity="0.95577836" stroke-linecap="round" stroke-linejoin="round"/>
    <path d="M 283.81451416015625 65.73197937011719 C 340.2486267089844 102.56178283691406 294.19720458984375 74.99213409423828 269.59930419921875 58.86960220336914 C 275.7648620605469 64.29768371582031 227.51588439941406 70.7093505859375 266.7380065917969 57.59665298461914 C 257.5565490722656 54.098018646240234 256.1566467285156 45.91441345214844 260.1510009765625 51.12657928466797 C 286.8159484863281 58.161563873291016 270.36175537109375 42.80659866333008 283.81451416015625 65.73197937011719" stroke-width="0.0" fill="rgb(30, 51, 28)" opacity="0.9151629" stroke="rgb(251, 23, 77)" stroke-opacity="0.2868117" stroke-linecap="round" stroke-linejoin="round"/>
    <path d="M 273.0536804199219 88.3248519897461 C 268.9640808105469 90.46150970458984 262.1690979003906 91.97660827636719 258.7317199707031 93.37260437011719 C 258.9689636230469 94.97073364257812 257.0289001464844 90.800537109375 258.9983825683594 77.38968658447266 C 257.2678527832031 79.310546875 260.06646728515625 74.32258605957031 259.5262756347656 82.32357788085938 C 264.0547180175781 85.22454833984375 267.685302734375 86.54776000976562 273.0536804199219 88.3248519897461" stroke-width="0.0" fill="rgb(205, 237, 239)" opacity="0.8469993" stroke="rgb(24, 215, 135)" stroke-opacity="0.056647684" stroke-linecap="round" stroke-linejoin="round"/>
    <path d="M 262.0127258300781 69.8743667602539 C 256.69329833984375 73.80656433105469 242.41387939453125 80.36881256103516 240.99795532226562 111.31752014160156 C 253.44358825683594 151.19802856445312 223.989990234375 112.08626556396484 244.2813720703125 81.18933868408203 C 248.04380798339844 75.63306427001953 250.2415313720703 73.36544799804688 254.46971130371094 70.1005630493164 C 269.1700744628906 60.37877655029297 276.834228515625 64.5516357421875 262.0127258300781 69.8743667602539" stroke-width="0.0" fill="rgb(41, 54, 31)" opacity="0.9908692" stroke="rgb(29, 210, 111)" stroke-opacity="0.61535645" stroke-linecap="round" stroke-linejoin="round"/>
    <path d="M 155.64173889160156 131.22279357910156 C 120.7467269897461 121.05609130859375 109.87096405029297 142.46363830566406 106.80419158935547 145.52455139160156 C 83.03343963623047 130.52027893066406 111.791748046875 190.52088928222656 100.6266860961914 168.16551208496094 C 84.0598373413086 140.30795288085938 112.19979858398438 118.73768615722656 121.90233612060547 121.23947143554688 C 136.37545776367188 119.46630859375 147.7076416015625 128.81484985351562 155.64173889160156 131.22279357910156" stroke-width="0.0" fill="rgb(124, 30, 6)" opacity="0.57192934" stroke="rgb(40, 21, 116)" stroke-opacity="0.7207685" stroke-linecap="round" stroke-linejoin="round"/>
    <path d="M 89.7646484375 203.255126953125 C 88.52440643310547 203.79429626464844 69.20247650146484 212.1317138671875 59.62395095825195 205.04263305664062 C 57.80472946166992 203.3468475341797 54.13828659057617 180.39495849609375 38.022396087646484 241.9335174560547 C 42.561519622802734 171.30079650878906 108.40425109863281 175.56857299804688 71.41574096679688 185.8200225830078 C 46.512237548828125 191.1448516845703 82.39490509033203 206.21908569335938 89.7646484375 203.255126953125" stroke-width="0.0" fill="rgb(114, 51, 53)" opacity="0.6135178" stroke="rgb(49, 133, 73)" stroke-opacity="0.9602428" stroke-linecap="round" stroke-linejoin="round"/>
    <path d="M 447.01446533203125 174.99424743652344 C 457.4969482421875 163.21255493164062 465.4375 175.88014221191406 447.6770935058594 179.84060668945312 C 444.1556091308594 172.72201538085938 440.1799621582031 164.67434692382812 440.41949462890625 151.99839782714844 C 445.4284973144531 124.98652648925781 454.0222473144531 131.1644287109375 450.6709289550781 155.7366180419922 C 456.91937255859375 126.50852966308594 459.3311462402344 136.7545928955078 447.01446533203125 174.99424743652344" stroke-width="0.0" fill="rgb(11, 0, 0)" opacity="0.23230664" stroke="rgb(168, 100, 149)" stroke-opacity="0.85775894" stroke-linecap="round" stroke-linejoin="round"/>
    <path d="M 310.62237548828125 42.11640167236328 C 322.7965393066406 80.58564758300781 318.7769470214844 89.01325225830078 301.3955383300781 49.51527404785156 C 299.27825927734375 54.98392105102539 300.8672180175781 39.324092864990234 300.61761474609375 34.231109619140625 C 302.10455322265625 50.80787658691406 300.7462463378906 31.176151275634766 301.0242919921875 33.43268966674805 C 304.65887451171875 34.229793548583984 308.6371154785156 39.0153694152832 310.62237548828125 42.11640167236328" stroke-width="0.0" fill="rgb(200, 97, 63)" opacity="1.0" stroke="rgb(23, 196, 190)" stroke-opacity="0.967897" stroke-linecap="round" stroke-linejoin="round"/>
    <path d="M 451.5322570800781 215.20242309570312 C 423.7501525878906 166.33682250976562 429.63238525390625 190.42367553710938 417.1247863769531 192.34884643554688 C 400.0879821777344 198.41049194335938 401.8109436035156 195.77284240722656 406.71221923828125 193.69070434570312 C 413.1485900878906 188.0350341796875 415.9801025390625 182.98561096191406 420.235107421875 178.63113403320312 C 409.0625 174.2944793701172 439.81414794921875 176.62294006347656 451.5322570800781 215.20242309570312" stroke-width="0.0" fill="rgb(49, 47, 46)" opacity="0.47583407" stroke="rgb(192, 170, 55)" stroke-opacity="0.94969493" stroke-linecap="round" stroke-linejoin="round"/>
    <path d="M 384.8077087402344 226.4507598876953 C 388.2753601074219 234.7470703125 403.5155029296875 232.02549743652344 388.8174133300781 233.00717163085938 C 374.7115173339844 231.7945098876953 380.47674560546875 219.74215698242188 374.0194396972656 242.26304626464844 C 371.5682067871094 230.65121459960938 382.95660400390625 208.52725219726562 412.1780090332031 212.53807067871094 C 381.3724670410156 212.89654541015625 381.7459411621094 225.89645385742188 384.8077087402344 226.4507598876953" stroke-width="0.0" fill="rgb(92, 92, 91)" opacity="0.9997611" stroke="rgb(17, 124, 102)" stroke-opacity="0.22476366" stroke-linecap="round" stroke-linejoin="round"/>
    <path d="M 347.9168701171875 223.237060546875 C 351.6717834472656 249.65115356445312 342.4963073730469 260.5662841796875 342.8616943359375 257.865478515625 C 328.9723205566406 256.1497497558594 323.99652099609375 270.7140197753906 335.4571228027344 252.34608459472656 C 339.86279296875 243.19522094726562 340.4773864746094 242.66836547851562 342.37640380859375 238.33631896972656 C 345.0834655761719 232.02943420410156 350.9203186035156 224.4803009033203 347.9168701171875 223.237060546875" stroke-width="0.0" fill="rgb(233, 255, 254)" opacity="0.5960622" stroke="rgb(153, 26, 74)" stroke-opacity="0.03421994" stroke-linecap="round" stroke-linejoin="round"/>
    <path d="M 270.9953918457031 103.27421569824219 C 272.31890869140625 101.26056671142578 260.3673095703125 110.8691177368164 265.3517761230469 124.4790267944336 C 260.5385437011719 114.36006164550781 267.0089111328125 125.32576751708984 257.95037841796875 115.56561279296875 C 258.1684265136719 88.40931701660156 257.27899169921875 92.60771179199219 260.2110900878906 96.29962921142578 C 263.0363464355469 100.22651672363281 266.907958984375 102.44568634033203 270.9953918457031 103.27421569824219" stroke-width="0.0" fill="rgb(200, 218, 216)" opacity="0.98669297" stroke="rgb(67, 194, 211)" stroke-opacity="0.5493389" stroke-linecap="round" stroke-linejoin="round"/>
    <path d="M 186.06724548339844 153.998046875 C 171.04818725585938 157.37356567382812 180.37594604492188 162.79005432128906 177.4267578125 165.1343994140625 C 172.41323852539062 158.35348510742188 167.86166381835938 159.2891387939453 173.84202575683594 156.4111785888672 C 172.75033569335938 157.79209899902344 172.74095153808594 155.89952087402344 169.92015075683594 159.65432739257812 C 174.0218963623047 152.78546142578125 186.3009033203125 153.54458618164062 186.06724548339844 153.998046875" stroke-width="0.0" fill="rgb(44, 63, 38)" opacity="0.76517844" stroke="rgb(249, 138, 40)" stroke-opacity="0.23134333" stroke-linecap="round" stroke-linejoin="round"/>
    <path d="M 374.0 113.0 C 373.33013916015625 115.5 371.5 117.33012390136719 369.0 118.0 C 366.5 117.33012390136719 364.66986083984375 115.5 364.0 113.0 C 364.66986083984375 110.5 366.5 108.66987609863281 369.0 108.0 C 371.5 108.66987609863281 373.33013916015625 110.5 374.0 113.0" stroke-width="0.0" fill="rgb(112, 111, 111)" opacity="1.0" stroke="rgb(55, 160, 240)" stroke-opacity="0.21185939" stroke-linecap="round" stroke-linejoin="round"/>
    <path d="M 120.0 249.0 C 119.33012390136719 251.5 117.5 253.3301239013672 115.0 254.0 C 112.5 253.3301239013672 110.66987609863281 251.5 110.0 249.0 C 110.66987609863281 246.5 112.5 244.6698760986328 115.0 244.0 C 117.5 244.6698760986328 119.33012390136719 246.5 120.0 249.0" stroke-width="0.0" fill="rgb(148, 91, 77)" opacity="1.0" stroke="rgb(175, 191, 234)" stroke-opacity="0.08538078" stroke-linecap="round" stroke-linejoin="round"/>
    <path d="M 463.0 232.0 C 462.33013916015625 234.5 460.5 236.3301239013672 458.0 237.0 C 455.5 236.3301239013672 453.66986083984375 234.5 453.0 232.0 C 453.66986083984375 229.5 455.5 227.6698760986328 458.0 227.0 C 460.5 227.6698760986328 462.33013916015625 229.5 463.0 232.0" stroke-width="0.0" fill="rgb(201, 216, 213)" opacity="1.0" stroke="rgb(49, 71, 115)" stroke-opacity="0.40447986" stroke-linecap="round" stroke-linejoin="round"/>
    <path d="M 148.0 306.0 C 147.3301239013672 308.5 145.5 310.33013916015625 143.0 311.0 C 140.5 310.33013916015625 138.6698760986328 308.5 138.0 306.0 C 138.6698760986328 303.5 140.5 301.66986083984375 143.0 301.0 C 145.5 301.66986083984375 147.3301239013672 303.5 148.0 306.0" stroke-width="0.0" fill="rgb(164, 99, 80)" opacity="1.0" stroke="rgb(197, 252, 226)" stroke-opacity="0.00535726" stroke-linecap="round" stroke-linejoin="round"/>
    <path d="M 112.0 298.0 C 111.33012390136719 300.5 109.5 302.33013916015625 107.0 303.0 C 104.5 302.33013916015625 102.66987609863281 300.5 102.0 298.0 C 102.66987609863281 295.5 104.5 293.66986083984375 107.0 293.0 C 109.5 293.66986083984375 111.33012390136719 295.5 112.0 298.0" stroke-width="0.0" fill="rgb(77, 56, 64)" opacity="1.0" stroke="rgb(39, 138, 221)" stroke-opacity="0.8665675" stroke-linecap="round" stroke-linejoin="round"/>
    <path d="M 91.0 193.0 C 90.33012390136719 195.5 88.5 197.3301239013672 86.0 198.0 C 83.5 197.3301239013672 81.66987609863281 195.5 81.0 193.0 C 81.66987609863281 190.5 83.5 188.6698760986328 86.0 188.0 C 88.5 188.6698760986328 90.33012390136719 190.5 91.0 193.0" stroke-width="0.0" fill="rgb(164, 99, 80)" opacity="1.0" stroke="rgb(80, 115, 102)" stroke-opacity="0.98515934" stroke-linecap="round" stroke-linejoin="round"/>
    <path d="M 469.0 223.0 C 468.33013916015625 225.5 466.5 227.3301239013672 464.0 228.0 C 461.5 227.3301239013672 459.66986083984375 225.5 459.0 223.0 C 459.66986083984375 220.5 461.5 218.6698760986328 464.0 218.0 C 466.5 218.6698760986328 468.33013916015625 220.5 469.0 223.0" stroke-width="0.0" fill="rgb(210, 226, 223)" opacity="1.0" stroke="rgb(120, 200, 246)" stroke-opacity="0.69592017" stroke-linecap="round" stroke-linejoin="round"/>
    <path d="M 99.0 196.0 C 98.33012390136719 198.5 96.5 200.3301239013672 94.0 201.0 C 91.5 200.3301239013672 89.66987609863281 198.5 89.0 196.0 C 89.66987609863281 193.5 91.5 191.6698760986328 94.0 191.0 C 96.5 191.6698760986328 98.33012390136719 193.5 99.0 196.0" stroke-width="0.0" fill="rgb(173, 116, 94)" opacity="1.0" stroke="rgb(33, 20, 114)" stroke-opacity="0.528133" stroke-linecap="round" stroke-linejoin="round"/>
    <path d="M 433.0 200.0 C 432.33013916015625 202.5 430.5 204.3301239013672 428.0 205.0 C 425.5 204.3301239013672 423.66986083984375 202.5 423.0 200.0 C 423.66986083984375 197.5 425.5 195.6698760986328 428.0 195.0 C 430.5 195.6698760986328 432.33013916015625 197.5 433.0 200.0" stroke-width="0.0" fill="rgb(114, 113, 113)" opacity="1.0" stroke="rgb(16, 88, 91)" stroke-opacity="0.824475" stroke-linecap="round" stroke-linejoin="round"/>
    <path d="M 366.0 246.0 C 365.33013916015625 248.5 363.5 250.3301239013672 361.0 251.0 C 358.5 250.3301239013672 356.66986083984375 248.5 356.0 246.0 C 356.66986083984375 243.5 358.5 241.6698760986328 361.0 241.0 C 363.5 241.6698760986328 365.33013916015625 243.5 366.0 246.0" stroke-width="0.0" fill="rgb(87, 87, 86)" opacity="1.0" stroke="rgb(244, 76, 49)" stroke-opacity="0.27455533" stroke-linecap="round" stroke-linejoin="round"/>
    <path d="M 101.0 153.0 C 100.33012390136719 155.5 98.5 157.3301239013672 96.0 158.0 C 93.5 157.3301239013672 91.66987609863281 155.5 91.0 153.0 C 91.66987609863281 150.5 93.5 148.6698760986328 96.0 148.0 C 98.5 148.6698760986328 100.33012390136719 150.5 101.0 153.0" stroke-width="0.0" fill="rgb(80, 54, 59)" opacity="1.0" stroke="rgb(197, 85, 2)" stroke-opacity="0.19579887" stroke-linecap="round" stroke-linejoin="round"/>
    <path d="M 354.0 232.0 C 353.33013916015625 234.5 351.5 236.3301239013672 349.0 237.0 C 346.5 236.3301239013672 344.66986083984375 234.5 344.0 232.0 C 344.66986083984375 229.5 346.5 227.6698760986328 349.0 227.0 C 351.5 227.6698760986328 353.33013916015625 229.5 354.0 232.0" stroke-width="0.0" fill="rgb(85, 85, 85)" opacity="1.0" stroke="rgb(149, 134, 19)" stroke-opacity="0.36033604" stroke-linecap="round" stroke-linejoin="round"/>
    <path d="M 434.0 198.0 C 433.33013916015625 200.5 431.5 202.3301239013672 429.0 203.0 C 426.5 202.3301239013672 424.66986083984375 200.5 424.0 198.0 C 424.66986083984375 195.5 426.5 193.6698760986328 429.0 193.0 C 431.5 193.6698760986328 433.33013916015625 195.5 434.0 198.0" stroke-width="0.0" fill="rgb(112, 111, 111)" opacity="1.0" stroke="rgb(27, 191, 13)" stroke-opacity="0.07526278" stroke-linecap="round" stroke-linejoin="round"/>
    <path d="M 192.0 145.0 C 191.3301239013672 147.5 189.5 149.3301239013672 187.0 150.0 C 184.5 149.3301239013672 182.6698760986328 147.5 182.0 145.0 C 182.6698760986328 142.5 184.5 140.6698760986328 187.0 140.0 C 189.5 140.6698760986328 191.3301239013672 142.5 192.0 145.0" stroke-width="0.0" fill="rgb(137, 162, 145)" opacity="1.0" stroke="rgb(123, 23, 234)" stroke-opacity="0.20354412" stroke-linecap="round" stroke-linejoin="round"/>
    <path d="M 111.0 304.0 C 110.33012390136719 306.5 108.5 308.33013916015625 106.0 309.0 C 103.5 308.33013916015625 101.66987609863281 306.5 101.0 304.0 C 101.66987609863281 301.5 103.5 299.66986083984375 106.0 299.0 C 108.5 299.66986083984375 110.33012390136719 301.5 111.0 304.0" stroke-width="0.0" fill="rgb(164, 99, 80)" opacity="1.0" stroke="rgb(222, 32, 206)" stroke-opacity="0.63155216" stroke-linecap="round" stroke-linejoin="round"/>
    <path d="M 336.0 41.0 C 335.33013916015625 43.5 333.5 45.33012771606445 331.0 46.0 C 328.5 45.33012771606445 326.66986083984375 43.5 326.0 41.0 C 326.66986083984375 38.5 328.5 36.66987228393555 331.0 36.0 C 333.5 36.66987228393555 335.33013916015625 38.5 336.0 41.0" stroke-width="0.0" fill="rgb(76, 68, 43)" opacity="1.0" stroke="rgb(160, 71, 38)" stroke-opacity="0.7337446" stroke-linecap="round" stroke-linejoin="round"/>
    <path d="M 60.0 218.0 C 59.33012771606445 220.5 57.5 222.3301239013672 55.0 223.0 C 52.5 222.3301239013672 50.66987228393555 220.5 50.0 218.0 C 50.66987228393555 215.5 52.5 213.6698760986328 55.0 213.0 C 57.5 213.6698760986328 59.33012771606445 215.5 60.0 218.0" stroke-width="0.0" fill="rgb(164, 100, 80)" opacity="1.0" stroke="rgb(82, 220, 67)" stroke-opacity="0.33656245" stroke-linecap="round" stroke-linejoin="round"/>
    <path d="M 111.0 309.0 C 110.33012390136719 311.5 108.5 313.33013916015625 106.0 314.0 C 103.5 313.33013916015625 101.66987609863281 311.5 101.0 309.0 C 101.66987609863281 306.5 103.5 304.66986083984375 106.0 304.0 C 108.5 304.66986083984375 110.33012390136719 306.5 111.0 309.0" stroke-width="0.0" fill="rgb(75, 48, 56)" opacity="1.0" stroke="rgb(91, 220, 227)" stroke-opacity="0.69543344" stroke-linecap="round" stroke-linejoin="round"/>
    <path d="M 459.0 227.0 C 458.33013916015625 229.5 456.5 231.3301239013672 454.0 232.0 C 451.5 231.3301239013672 449.66986083984375 229.5 449.0 227.0 C 449.66986083984375 224.5 451.5 222.6698760986328 454.0 222.0 C 456.5 222.6698760986328 458.33013916015625 224.5 459.0 227.0" stroke-width="0.0" fill="rgb(207, 223, 220)" opacity="1.0" stroke="rgb(151, 227, 12)" stroke-opacity="0.005798796" stroke-linecap="round" stroke-linejoin="round"/>
    <path d="M 460.0 232.0 C 459.33013916015625 234.5 457.5 236.3301239013672 455.0 237.0 C 452.5 236.3301239013672 450.66986083984375 234.5 450.0 232.0 C 450.66986083984375 229.5 452.5 227.6698760986328 455.0 227.0 C 457.5 227.6698760986328 459.33013916015625 229.5 460.0 232.0" stroke-width="0.0" fill="rgb(204, 219, 216)" opacity="1.0" stroke="rgb(174, 96, 107)" stroke-opacity="0.4022543" stroke-linecap="round" stroke-linejoin="round"/>
    <path d="M 468.0 232.0 C 467.33013916015625 234.5 465.5 236.3301239013672 463.0 237.0 C 460.5 236.3301239013672 458.66986083984375 234.5 458.0 232.0 C 458.66986083984375 229.5 460.5 227.6698760986328 463.0 227.0 C 465.5 227.6698760986328 467.33013916015625 229.5 468.0 232.0" stroke-width="0.0" fill="rgb(208, 224, 220)" opacity="1.0" stroke="rgb(51, 246, 63)" stroke-opacity="0.7444676" stroke-linecap="round" stroke-linejoin="round"/>
    <path d="M 324.0 236.0 C 323.33013916015625 238.5 321.5 240.3301239013672 319.0 241.0 C 316.5 240.3301239013672 314.66986083984375 238.5 314.0 236.0 C 314.66986083984375 233.5 316.5 231.6698760986328 319.0 231.0 C 321.5 231.6698760986328 323.33013916015625 233.5 324.0 236.0" stroke-width="0.0" fill="rgb(54, 71, 53)" opacity="1.0" stroke="rgb(138, 94, 235)" stroke-opacity="0.05005531" stroke-linecap="round" stroke-linejoin="round"/>
    <path d="M 117.0 232.0 C 116.33012390136719 234.5 114.5 236.3301239013672 112.0 237.0 C 109.5 236.3301239013672 107.66987609863281 234.5 107.0 232.0 C 107.66987609863281 229.5 109.5 227.6698760986328 112.0 227.0 C 114.5 227.6698760986328 116.33012390136719 229.5 117.0 232.0" stroke-width="0.0" fill="rgb(148, 91, 77)" opacity="1.0" stroke="rgb(234, 154, 150)" stroke-opacity="0.9568886" stroke-linecap="round" stroke-linejoin="round"/>
  </g>
</svg>
