<?xml version="1.0" ?>
<svg xmlns="http://www.w3.org/2000/svg" version="1.1" width="512" height="352">
  <defs/>
  <g>
    <path d="M 143.63516235351562 179.4249725341797 C 156.7495574951172 246.7073974609375 154.19778442382812 248.84988403320312 120.17696380615234 256.8646545410156 C 67.89537811279297 253.63601684570312 66.55059051513672 252.0297393798828 38.6512336730957 235.85841369628906 C 49.23027038574219 188.64292907714844 67.5003433227539 181.2848663330078 99.13391876220703 176.70233154296875 C 127.20703887939453 144.771484375 136.09579467773438 150.4014892578125 143.63516235351562 179.4249725341797" stroke-width="0.0" fill="rgb(208, 181, 151)" opacity="1.0" stroke="rgb(176, 193, 126)" stroke-opacity="0.57605314" stroke-linecap="round" stroke-linejoin="round"/>
    <path d="M 257.4917297363281 166.2770233154297 C 235.21942138671875 190.43739318847656 226.43360900878906 222.0298614501953 192.65878295898438 261.407958984375 C 190.04063415527344 232.61968994140625 181.83233642578125 241.01498413085938 175.24237060546875 193.1683349609375 C 198.0527801513672 157.04608154296875 163.31228637695312 193.1450653076172 174.54002380371094 157.78453063964844 C 282.1530456542969 75.15653228759766 217.3577117919922 77.34109497070312 257.4917297363281 166.2770233154297" stroke-width="0.0" fill="rgb(27, 56, 27)" opacity="0.5752135" stroke="rgb(115, 154, 173)" stroke-opacity="0.28549516" stroke-linecap="round" stroke-linejoin="round"/>
    <path d="M 320.10272216796875 224.43084716796875 C 336.94720458984375 254.75526428222656 330.6944580078125 241.16262817382812 265.90814208984375 226.70726013183594 C 274.1689758300781 270.14251708984375 244.4393310546875 294.4480895996094 257.7481994628906 223.6697998046875 C 231.0933837890625 80.49111938476562 235.4035186767578 97.67224884033203 262.37860107421875 195.4717254638672 C 288.5986633300781 200.7552490234375 316.5631103515625 183.02940368652344 320.10272216796875 224.43084716796875" stroke-width="0.0" fill="rgb(31, 47, 25)" opacity="0.82991594" stroke="rgb(79, 124, 94)" stroke-opacity="0.90476865" stroke-linecap="round" stroke-linejoin="round"/>
    <path d="M 277.5460510253906 199.43716430664062 C 295.75970458984375 237.5324249267578 313.888671875 237.07998657226562 273.6927795410156 227.2010040283203 C 269.8384704589844 237.47470092773438 256.82220458984375 224.22381591796875 260.6526184082031 205.80812072753906 C 288.36676025390625 197.0277862548828 274.7685546875 168.26113891601562 307.2292175292969 189.32203674316406 C 338.40130615234375 263.5023193359375 305.3203430175781 243.51113891601562 277.5460510253906 199.43716430664062" stroke-width="0.0" fill="rgb(103, 135, 137)" opacity="1.0" stroke="rgb(89, 158, 68)" stroke-opacity="0.45207614" stroke-linecap="round" stroke-linejoin="round"/>
    <path d="M 347.7554626464844 43.87861633300781 C 323.2172546386719 108.84168243408203 346.64691162109375 28.286460876464844 290.267822265625 109.44465637207031 C 261.56378173828125 134.68572998046875 258.4403991699219 90.02099609375 258.57489013671875 52.13814926147461 C 316.4147033691406 55.160343170166016 319.5444641113281 25.326635360717773 321.0963134765625 28.279659271240234 C 345.26593017578125 44.620758056640625 317.35101318359375 44.74785614013672 347.7554626464844 43.87861633300781" stroke-width="0.0" fill="rgb(146, 65, 30)" opacity="0.72067595" stroke="rgb(106, 75, 135)" stroke-opacity="0.17145537" stroke-linecap="round" stroke-linejoin="round"/>
    <path d="M 317.0679931640625 274.1191101074219 C 326.6427917480469 288.30535888671875 251.19065856933594 281.098388671875 259.9651794433594 282.2364501953125 C 248.98081970214844 284.45684814453125 276.2933349609375 286.6624755859375 212.2418975830078 283.9697265625 C 204.39395141601562 269.1900939941406 245.18946838378906 272.8240661621094 278.8765563964844 277.9476013183594 C 299.5536804199219 259.323486328125 287.6324157714844 276.40997314453125 317.0679931640625 274.1191101074219" stroke-width="0.0" fill="rgb(0, 59, 80)" opacity="0.34601727" stroke="rgb(59, 80, 233)" stroke-opacity="0.8857977" stroke-linecap="round" stroke-linejoin="round"/>
    <path d="M 236.74603271484375 118.32685852050781 C 244.542724609375 168.5351104736328 245.94679260253906 141.4896697998047 232.5986328125 157.67300415039062 C 229.08358764648438 160.5521697998047 238.4326934814453 142.85983276367188 210.36767578125 134.66775512695312 C 199.87757873535156 132.84507751464844 198.1077423095703 133.68899536132812 237.42001342773438 101.45291900634766 C 254.94207763671875 57.887359619140625 231.128173828125 105.20735168457031 236.74603271484375 118.32685852050781" stroke-width="0.0" fill="rgb(200, 215, 212)" opacity="1.0" stroke="rgb(134, 39, 142)" stroke-opacity="0.9982061" stroke-linecap="round" stroke-linejoin="round"/>
    <path d="M 409.0 262.0 C 408.33013916015625 264.5 406.5 266.33013916015625 404.0 267.0 C 401.5 266.33013916015625 399.66986083984375 264.5 399.0 262.0 C 399.66986083984375 259.5 401.5 257.66986083984375 404.0 257.0 C 406.5 257.66986083984375 408.33013916015625 259.5 409.0 262.0" stroke-width="0.0" fill="rgb(148, 148, 147)" opacity="1.0" stroke="rgb(69, 143, 251)" stroke-opacity="0.74109566" stroke-linecap="round" stroke-linejoin="round"/>
    <path d="M 261.0 157.0 C 260.33013916015625 159.5 258.5 161.3301239013672 256.0 162.0 C 253.5 161.3301239013672 251.6698760986328 159.5 251.0 157.0 C 251.6698760986328 154.5 253.5 152.6698760986328 256.0 152.0 C 258.5 152.6698760986328 260.33013916015625 154.5 261.0 157.0" stroke-width="0.0" fill="rgb(131, 156, 138)" opacity="1.0" stroke="rgb(84, 23, 2)" stroke-opacity="0.42600137" stroke-linecap="round" stroke-linejoin="round"/>
    <path d="M 418.0 272.0 C 417.33013916015625 274.5 415.5 276.33013916015625 413.0 277.0 C 410.5 276.33013916015625 408.66986083984375 274.5 408.0 272.0 C 408.66986083984375 269.5 410.5 267.66986083984375 413.0 267.0 C 415.5 267.66986083984375 417.33013916015625 269.5 418.0 272.0" stroke-width="0.0" fill="rgb(147, 147, 146)" opacity="1.0" stroke="rgb(182, 50, 239)" stroke-opacity="0.47272745" stroke-linecap="round" stroke-linejoin="round"/>
    <path d="M 365.0 170.0 C 364.33013916015625 172.5 362.5 174.3301239013672 360.0 175.0 C 357.5 174.3301239013672 355.66986083984375 172.5 355.0 170.0 C 355.66986083984375 167.5 357.5 165.6698760986328 360.0 165.0 C 362.5 165.6698760986328 364.33013916015625 167.5 365.0 170.0" stroke-width="0.0" fill="rgb(147, 147, 145)" opacity="1.0" stroke="rgb(154, 143, 102)" stroke-opacity="0.6558297" stroke-linecap="round" stroke-linejoin="round"/>
    <path d="M 302.0 228.0 C 301.33013916015625 230.5 299.5 232.3301239013672 297.0 233.0 C 294.5 232.3301239013672 292.66986083984375 230.5 292.0 228.0 C 292.66986083984375 225.5 294.5 223.6698760986328 297.0 223.0 C 299.5 223.6698760986328 301.33013916015625 225.5 302.0 228.0" stroke-width="0.0" fill="rgb(91, 121, 124)" opacity="1.0" stroke="rgb(39, 150, 55)" stroke-opacity="0.14697085" stroke-linecap="round" stroke-linejoin="round"/>
    <path d="M 394.0 163.0 C 393.33013916015625 165.5 391.5 167.3301239013672 389.0 168.0 C 386.5 167.3301239013672 384.66986083984375 165.5 384.0 163.0 C 384.66986083984375 160.5 386.5 158.6698760986328 389.0 158.0 C 391.5 158.6698760986328 393.33013916015625 160.5 394.0 163.0" stroke-width="0.0" fill="rgb(147, 147, 146)" opacity="1.0" stroke="rgb(8, 155, 15)" stroke-opacity="0.65340716" stroke-linecap="round" stroke-linejoin="round"/>
    <path d="M 218.0 158.0 C 217.3301239013672 160.5 215.5 162.3301239013672 213.0 163.0 C 210.5 162.3301239013672 208.6698760986328 160.5 208.0 158.0 C 208.6698760986328 155.5 210.5 153.6698760986328 213.0 153.0 C 215.5 153.6698760986328 217.3301239013672 155.5 218.0 158.0" stroke-width="0.0" fill="rgb(50, 64, 42)" opacity="1.0" stroke="rgb(33, 245, 63)" stroke-opacity="0.33612138" stroke-linecap="round" stroke-linejoin="round"/>
    <path d="M 428.0 262.0 C 427.33013916015625 264.5 425.5 266.33013916015625 423.0 267.0 C 420.5 266.33013916015625 418.66986083984375 264.5 418.0 262.0 C 418.66986083984375 259.5 420.5 257.66986083984375 423.0 257.0 C 425.5 257.66986083984375 427.33013916015625 259.5 428.0 262.0" stroke-width="0.0" fill="rgb(146, 146, 145)" opacity="1.0" stroke="rgb(213, 96, 151)" stroke-opacity="0.77533954" stroke-linecap="round" stroke-linejoin="round"/>
  </g>
</svg>
