<?xml version="1.0" ?>
<svg xmlns="http://www.w3.org/2000/svg" version="1.1" width="512" height="512">
  <defs/>
  <g>
    <path d="M 300.7842712402344 376.5478210449219 C 316.724365234375 294.6158447265625 438.7100524902344 249.2738037109375 156.88723754882812 268.3937683105469 C 252.6103057861328 424.49029541015625 133.5513458251953 353.06732177734375 128.1927490234375 265.82635498046875 C 123.39437866210938 157.07650756835938 229.79335021972656 104.617431640625 304.1654357910156 137.7581787109375 C 403.099853515625 176.4684600830078 418.92578125 325.5272521972656 300.7842712402344 376.5478210449219" stroke-width="0.0" fill="rgb(250, 187, 0)" opacity="0.7935766" stroke="rgb(123, 90, 128)" stroke-opacity="0.3687987" stroke-linecap="round" stroke-linejoin="round"/>
    <path d="M 334.62127685546875 304.937744140625 C 320.2176818847656 373.1180725097656 307.2612609863281 375.22784423828125 283.93316650390625 380.90594482421875 C 254.32220458984375 387.725830078125 214.32054138183594 384.5050354003906 179.16600036621094 358.29827880859375 C 180.4626922607422 267.8905944824219 164.34371948242188 324.1980285644531 229.92807006835938 343.8641052246094 C 266.6097106933594 354.05487060546875 311.5319519042969 342.06134033203125 334.62127685546875 304.937744140625" stroke-width="0.0" fill="rgb(251, 199, 43)" opacity="0.9564029" stroke="rgb(246, 216, 161)" stroke-opacity="0.08698233" stroke-linecap="round" stroke-linejoin="round"/>
    <path d="M 242.6358642578125 231.6404571533203 C 226.12161254882812 248.4235076904297 234.50576782226562 206.13099670410156 201.27978515625 223.84024047851562 C 195.39309692382812 241.06983947753906 187.4770050048828 235.86917114257812 185.2491912841797 229.8587646484375 C 188.82583618164062 210.15322875976562 210.3278350830078 202.6680908203125 224.0196533203125 208.4609375 C 226.50596618652344 208.27426147460938 243.5633544921875 217.3340606689453 242.6358642578125 231.6404571533203" stroke-width="0.0" fill="rgb(71, 73, 77)" opacity="0.969215" stroke="rgb(205, 201, 29)" stroke-opacity="0.9614203" stroke-linecap="round" stroke-linejoin="round"/>
    <path d="M 326.22430419921875 232.34799194335938 C 309.3775634765625 244.6616973876953 319.56231689453125 218.14552307128906 295.6083679199219 219.52305603027344 C 277.2648010253906 222.37158203125 285.3551330566406 243.10299682617188 269.4580078125 232.278076171875 C 268.0542907714844 215.759765625 290.2258605957031 201.04910278320312 308.55523681640625 208.60659790039062 C 308.9153747558594 207.53607177734375 328.2549133300781 217.2122039794922 326.22430419921875 232.34799194335938" stroke-width="0.0" fill="rgb(75, 75, 77)" opacity="0.9929011" stroke="rgb(137, 231, 43)" stroke-opacity="0.5362315" stroke-linecap="round" stroke-linejoin="round"/>
    <path d="M 168.47976684570312 271.91644287109375 C 168.497314453125 267.6744689941406 166.97332763671875 281.5467529296875 173.8664093017578 297.8782958984375 C 164.8450164794922 283.4769287109375 162.96197509765625 278.5863952636719 156.88800048828125 268.0364685058594 C 152.73684692382812 268.5146789550781 153.6998291015625 268.0714416503906 224.13543701171875 264.400390625 C 220.48646545410156 265.7423095703125 204.81948852539062 265.1361389160156 168.47976684570312 271.91644287109375" stroke-width="0.0" fill="rgb(254, 189, 0)" opacity="0.78021073" stroke="rgb(58, 128, 49)" stroke-opacity="0.31997767" stroke-linecap="round" stroke-linejoin="round"/>
    <path d="M 343.62158203125 271.96337890625 C 343.62884521484375 280.9263000488281 341.5649108886719 287.6295166015625 340.0970153808594 293.5015869140625 C 340.9991455078125 276.41119384765625 330.9317626953125 275.4476318359375 322.80816650390625 270.1964416503906 C 305.4625549316406 265.5643005371094 313.408935546875 266.98052978515625 337.2653503417969 270.67230224609375 C 343.18768310546875 271.7437438964844 345.65484619140625 272.3147888183594 343.62158203125 271.96337890625" stroke-width="0.0" fill="rgb(255, 255, 255)" opacity="0.94011354" stroke="rgb(222, 237, 14)" stroke-opacity="0.65378976" stroke-linecap="round" stroke-linejoin="round"/>
    <path d="M 235.83384704589844 265.2257080078125 C 232.3699493408203 263.4660949707031 232.8958282470703 263.4256896972656 237.24188232421875 265.2646179199219 C 228.04498291015625 264.400634765625 213.0892333984375 265.5004577636719 233.54763793945312 264.3230285644531 C 235.0902557373047 262.8425598144531 238.8442840576172 269.91754150390625 266.0189208984375 263.0494384765625 C 223.38233947753906 263.8824768066406 236.3246307373047 264.5951232910156 235.83384704589844 265.2257080078125" stroke-width="0.0" fill="rgb(236, 238, 246)" opacity="0.23568882" stroke="rgb(127, 23, 112)" stroke-opacity="0.23439993" stroke-linecap="round" stroke-linejoin="round"/>
    <path d="M 133.10581970214844 159.97459411621094 C 132.43594360351562 162.47459411621094 130.60581970214844 164.30471801757812 128.10581970214844 164.97459411621094 C 125.60581970214844 164.30471801757812 123.77569580078125 162.47459411621094 123.10581970214844 159.97459411621094 C 123.77569580078125 157.47459411621094 125.60581970214844 155.64447021484375 128.10581970214844 154.97459411621094 C 130.60581970214844 155.64447021484375 132.43594360351562 157.47459411621094 133.10581970214844 159.97459411621094" stroke-width="0.0" fill="rgb(247, 247, 247)" opacity="1.0" stroke="rgb(50, 13, 57)" stroke-opacity="0.958669" stroke-linecap="round" stroke-linejoin="round"/>
    <path d="M 364.008544921875 374.27276611328125 C 363.33868408203125 376.77276611328125 361.508544921875 378.6029052734375 359.008544921875 379.27276611328125 C 356.508544921875 378.6029052734375 354.67840576171875 376.77276611328125 354.008544921875 374.27276611328125 C 354.67840576171875 371.77276611328125 356.508544921875 369.942626953125 359.008544921875 369.27276611328125 C 361.508544921875 369.942626953125 363.33868408203125 371.77276611328125 364.008544921875 374.27276611328125" stroke-width="0.0" fill="rgb(247, 247, 247)" opacity="1.0" stroke="rgb(114, 11, 161)" stroke-opacity="0.32974663" stroke-linecap="round" stroke-linejoin="round"/>
    <path d="M 168.17474365234375 426.9938659667969 C 167.50486755371094 429.4938659667969 165.67474365234375 431.3240051269531 163.17474365234375 431.9938659667969 C 160.67474365234375 431.3240051269531 158.84461975097656 429.4938659667969 158.17474365234375 426.9938659667969 C 158.84461975097656 424.4938659667969 160.67474365234375 422.6637268066406 163.17474365234375 421.9938659667969 C 165.67474365234375 422.6637268066406 167.50486755371094 424.4938659667969 168.17474365234375 426.9938659667969" stroke-width="0.0" fill="rgb(247, 247, 247)" opacity="1.0" stroke="rgb(247, 161, 20)" stroke-opacity="0.36167374" stroke-linecap="round" stroke-linejoin="round"/>
    <path d="M 238.44639587402344 137.6071014404297 C 237.77651977539062 140.1071014404297 235.94639587402344 141.93722534179688 233.44639587402344 142.6071014404297 C 230.94639587402344 141.93722534179688 229.11627197265625 140.1071014404297 228.44639587402344 137.6071014404297 C 229.11627197265625 135.1071014404297 230.94639587402344 133.2769775390625 233.44639587402344 132.6071014404297 C 235.94639587402344 133.2769775390625 237.77651977539062 135.1071014404297 238.44639587402344 137.6071014404297" stroke-width="0.0" fill="rgb(250, 200, 50)" opacity="1.0" stroke="rgb(156, 189, 186)" stroke-opacity="0.46780616" stroke-linecap="round" stroke-linejoin="round"/>
    <path d="M 360.30364990234375 440.2723693847656 C 359.6337890625 442.7723693847656 357.80364990234375 444.6025085449219 355.30364990234375 445.2723693847656 C 352.80364990234375 444.6025085449219 350.9735107421875 442.7723693847656 350.30364990234375 440.2723693847656 C 350.9735107421875 437.7723693847656 352.80364990234375 435.9422302246094 355.30364990234375 435.2723693847656 C 357.80364990234375 435.9422302246094 359.6337890625 437.7723693847656 360.30364990234375 440.2723693847656" stroke-width="0.0" fill="rgb(247, 247, 247)" opacity="1.0" stroke="rgb(24, 21, 239)" stroke-opacity="0.97788745" stroke-linecap="round" stroke-linejoin="round"/>
    <path d="M 177.5265655517578 479.2170715332031 C 176.856689453125 481.7170715332031 175.0265655517578 483.5472106933594 172.5265655517578 484.2170715332031 C 170.0265655517578 483.5472106933594 168.19644165039062 481.7170715332031 167.5265655517578 479.2170715332031 C 168.19644165039062 476.7170715332031 170.0265655517578 474.8869323730469 172.5265655517578 474.2170715332031 C 175.0265655517578 474.8869323730469 176.856689453125 476.7170715332031 177.5265655517578 479.2170715332031" stroke-width="0.0" fill="rgb(247, 247, 247)" opacity="1.0" stroke="rgb(134, 53, 131)" stroke-opacity="0.61704856" stroke-linecap="round" stroke-linejoin="round"/>
  </g>
</svg>
