<?xml version="1.0" ?>
<svg xmlns="http://www.w3.org/2000/svg" version="1.1" width="512" height="512">
  <defs/>
  <g>
    <path d="M 317.34454345703125 369.4027099609375 C 340.7175598144531 257.8314514160156 390.059814453125 254.8007354736328 157.82740783691406 270.428955078125 C 261.67138671875 401.8417053222656 149.8353271484375 389.4461669921875 126.29304504394531 262.4499206542969 C 134.07061767578125 130.25099182128906 256.32904052734375 110.24954223632812 309.3732604980469 140.4566192626953 C 380.1978759765625 166.93856811523438 430.8057861328125 294.7381896972656 317.34454345703125 369.4027099609375" stroke-width="0.0" fill="rgb(252, 188, 0)" opacity="0.7185112" stroke="rgb(123, 90, 128)" stroke-opacity="0.3687987" stroke-linecap="round" stroke-linejoin="round"/>
    <path d="M 267.0 358.0 C 266.33013916015625 360.5 264.5 362.33013916015625 262.0 363.0 C 259.5 362.33013916015625 257.66986083984375 360.5 257.0 358.0 C 257.66986083984375 355.5 259.5 353.66986083984375 262.0 353.0 C 264.5 353.66986083984375 266.33013916015625 355.5 267.0 358.0" stroke-width="0.0" fill="rgb(250, 200, 50)" opacity="1.0" stroke="rgb(246, 216, 161)" stroke-opacity="0.08698233" stroke-linecap="round" stroke-linejoin="round"/>
    <path d="M 218.0 216.0 C 217.3301239013672 218.5 215.5 220.3301239013672 213.0 221.0 C 210.5 220.3301239013672 208.6698760986328 218.5 208.0 216.0 C 208.6698760986328 213.5 210.5 211.6698760986328 213.0 211.0 C 215.5 211.6698760986328 217.3301239013672 213.5 218.0 216.0" stroke-width="0.0" fill="rgb(77, 77, 77)" opacity="1.0" stroke="rgb(205, 201, 29)" stroke-opacity="0.9614203" stroke-linecap="round" stroke-linejoin="round"/>
  </g>
</svg>
