<?xml version="1.0" ?>
<svg xmlns="http://www.w3.org/2000/svg" version="1.1" width="512" height="512">
  <defs/>
  <g>
    <path d="M -10.0 -10.0 C -9.0 -10.0 512.0 0.0 513.0 0.0 C 514.0 0.0 512.0 512.0 513.0 512.0 C 513.0 513.0 0.0 512.0 0.0 513.0 C 0.0 512.0 0.0 513.0 -10.0 -10.0 L -10.0 -10.0" stroke-width="2.0" fill="rgb(134, 182, 195)" opacity="0.9452109"/>
    <path d="M 503.396240234375 221.97296142578125 C 517.1370239257812 227.95944213867188 525.423095703125 210.86737060546875 512.8156127929688 243.6778564453125 C 505.35162353515625 283.77471923828125 386.8724670410156 252.84542846679688 376.8343505859375 244.2954864501953 C 491.65350341796875 250.69960021972656 481.8654479980469 232.4281005859375 523.820068359375 203.0601348876953 C 528.369384765625 236.06105041503906 518.5472412109375 222.41250610351562 509.8115234375 222.87440490722656 L 503.396240234375 221.97296142578125" stroke-width="2.0" fill="rgb(255, 236, 206)" opacity="0.9309919"/>
    <path d="M 352.2472839355469 41.31401824951172 C 350.5415954589844 40.50630569458008 361.66912841796875 19.556055068969727 387.1446838378906 44.46281051635742 C 342.5378723144531 65.52000427246094 346.22161865234375 57.904666900634766 414.11859130859375 0.9508870244026184 C 407.56707763671875 -25.27170753479004 396.7008056640625 -10.330294609069824 348.0762634277344 26.7692928314209 C 333.03741455078125 41.11729049682617 324.8973693847656 50.028499603271484 334.8828125 74.07620239257812 L 352.2472839355469 41.31401824951172" stroke-width="2.0" fill="rgb(255, 237, 208)" opacity="0.93418705"/>
    <path d="M 208.59812927246094 329.7028503417969 C 193.6248016357422 328.00506591796875 204.7222137451172 359.9299621582031 194.5944061279297 356.8304138183594 C 97.42874145507812 404.481689453125 103.95704650878906 392.4304504394531 141.52056884765625 323.3978271484375 C 130.5418701171875 335.8488464355469 137.3000946044922 362.61529541015625 134.455078125 303.34375 C 174.48004150390625 269.2373962402344 193.1560516357422 275.3091125488281 303.7222595214844 251.36366271972656 L 208.59812927246094 329.7028503417969" stroke-width="2.0" fill="rgb(254, 90, 42)" opacity="0.63971657"/>
    <path d="M 7.281185626983643 248.89317321777344 C 6.658707141876221 248.37661743164062 7.090047836303711 248.85470581054688 7.223755836486816 248.49362182617188 C 7.689441204071045 249.28297424316406 6.454286098480225 249.02352905273438 8.237128257751465 249.4630126953125 C 6.958597660064697 250.76950073242188 8.590088844299316 250.36770629882812 9.143579483032227 252.01670837402344 C 7.043583393096924 248.47544860839844 7.348339557647705 248.63853454589844 9.35942554473877 251.20237731933594 L 7.281185626983643 248.89317321777344" stroke-width="2.0" fill="rgb(213, 33, 180)" opacity="0.08991209"/>
    <path d="M 385.9232177734375 -23.242143630981445 C 179.40341186523438 -40.53106689453125 86.63070678710938 -167.31658935546875 -33.02790832519531 52.70556640625 C 304.537841796875 58.30307388305664 233.6720733642578 134.0137176513672 300.6525573730469 65.68427276611328 C 342.695556640625 71.81214141845703 424.3493347167969 12.826495170593262 499.6911315917969 77.57796478271484 C 187.83428955078125 76.93617248535156 229.2682342529297 84.0145492553711 392.93292236328125 48.1795539855957 L 385.9232177734375 -23.242143630981445" stroke-width="2.0" fill="rgb(247, 233, 207)" opacity="1.0"/>
    <path d="M 349.3734130859375 202.90785217285156 C 286.5517578125 200.0445098876953 324.8487243652344 190.58248901367188 274.06329345703125 227.70372009277344 C 223.7969970703125 219.83132934570312 213.65042114257812 221.55592346191406 191.58340454101562 223.83267211914062 C 197.992431640625 146.06900024414062 202.51712036132812 143.3385009765625 201.57742309570312 77.7596206665039 C 202.50592041015625 77.46883392333984 307.3706970214844 77.92788696289062 349.9073181152344 77.67001342773438 L 349.3734130859375 202.90785217285156" stroke-width="2.0" fill="rgb(39, 132, 188)" opacity="0.98899853"/>
    <path d="M 68.28353118896484 288.1913757324219 C 41.641727447509766 284.90289306640625 32.9705924987793 280.48980712890625 17.82157325744629 286.49688720703125 C -18.620697021484375 290.654541015625 -14.144890785217285 291.45343017578125 -9.980055809020996 285.7341613769531 C -9.865217208862305 244.31231689453125 -9.853681564331055 242.1123809814453 -6.743210315704346 221.189208984375 C 37.46098709106445 223.67129516601562 40.24779510498047 223.69053649902344 64.64488983154297 212.2325897216797 L 68.28353118896484 288.1913757324219" stroke-width="2.0" fill="rgb(10, 117, 186)" opacity="0.7968338"/>
    <path d="M 65.58484649658203 339.2276306152344 C 66.25376892089844 341.2010498046875 64.7313232421875 342.7646789550781 62.50741195678711 347.04736328125 C -5.709010601043701 346.5303039550781 -9.487783432006836 346.252197265625 -10.705954551696777 344.068603515625 C -10.358838081359863 273.6763916015625 -9.310729026794434 273.4137268066406 -0.7966800332069397 279.999755859375 C 83.1446304321289 270.98345947265625 64.18268585205078 269.28533935546875 67.36035919189453 270.04071044921875 L 65.58484649658203 339.2276306152344" stroke-width="2.0" fill="rgb(38, 107, 169)" opacity="1.0"/>
    <path d="M 525.56884765625 519.031005859375 C 432.4433898925781 534.2731323242188 428.52008056640625 524.514404296875 424.2538146972656 524.7039184570312 C 363.8111877441406 524.478759765625 361.74908447265625 524.1791381835938 357.5628967285156 535.9682006835938 C 372.9378967285156 494.37506103515625 374.43218994140625 462.19061279296875 401.0826721191406 438.49072265625 C 420.6056213378906 423.4305725097656 437.7427673339844 415.3174133300781 508.7952880859375 414.5489807128906 L 525.56884765625 519.031005859375" stroke-width="2.0" fill="rgb(13, 44, 74)" opacity="0.8164048"/>
    <path d="M 498.8393249511719 215.93841552734375 C 394.8367004394531 184.4368133544922 469.90740966796875 145.76856994628906 422.2808532714844 98.29222869873047 C 410.09515380859375 90.90560150146484 405.0291442871094 97.69569396972656 406.63787841796875 89.7817153930664 C 403.8773498535156 83.88005065917969 413.19476318359375 91.75679779052734 411.0469055175781 82.90351104736328 C 394.3726501464844 74.45570373535156 412.2746887207031 80.22171783447266 530.6925659179688 77.19615936279297 L 498.8393249511719 215.93841552734375" stroke-width="2.0" fill="rgb(11, 119, 188)" opacity="0.7778712"/>
    <path d="M 74.84664154052734 234.77088928222656 C 38.40757369995117 240.54185485839844 70.88247680664062 224.8327178955078 19.47620391845703 222.81480407714844 C -11.937278747558594 237.88018798828125 -11.340932846069336 238.10523986816406 -12.22987174987793 233.54518127441406 C -12.369183540344238 170.76260375976562 -17.525936126708984 161.93826293945312 10.622976303100586 76.5456314086914 C 174.44667053222656 92.19078063964844 126.165283203125 131.87261962890625 83.69851684570312 191.24900817871094 L 74.84664154052734 234.77088928222656" stroke-width="2.0" fill="rgb(28, 128, 189)" opacity="0.9269944"/>
    <path d="M 472.9250183105469 264.8143615722656 C 410.3595886230469 296.66986083984375 464.2424621582031 324.9693603515625 398.1413879394531 325.7139587402344 C 434.369140625 253.77154541015625 336.6182861328125 384.1372985839844 238.7109832763672 195.8471221923828 C 371.2951354980469 205.13592529296875 417.93505859375 207.3132781982422 375.71429443359375 204.99180603027344 C 383.7245178222656 236.096923828125 347.94512939453125 222.53746032714844 439.6027526855469 232.54295349121094 L 472.9250183105469 264.8143615722656" stroke-width="2.0" fill="rgb(249, 230, 201)" opacity="0.9519539"/>
    <path d="M 415.2118225097656 149.26718139648438 C 414.5947570800781 148.5636444091797 414.09552001953125 148.9963836669922 415.1994323730469 148.99444580078125 C 420.4570617675781 150.0352325439453 419.9259338378906 148.66738891601562 419.9320373535156 148.4309539794922 C 418.4632263183594 153.30044555664062 419.955078125 152.37014770507812 422.6983947753906 148.78860473632812 C 413.9516296386719 151.14549255371094 413.383544921875 152.43345642089844 416.0137939453125 153.42190551757812 L 415.2118225097656 149.26718139648438" stroke-width="2.0" fill="rgb(54, 68, 133)" opacity="0.0"/>
    <path d="M 349.2413330078125 394.1872863769531 C 328.09051513671875 458.51904296875 287.3369140625 438.9159240722656 247.63868713378906 501.3551330566406 C 204.68182373046875 526.4539794921875 194.7854461669922 502.18115234375 215.6904754638672 389.4255065917969 C 261.5791015625 389.0701904296875 248.28619384765625 412.4495849609375 225.49510192871094 367.5337219238281 C 297.5630187988281 372.3207702636719 276.7384033203125 402.0835266113281 288.9053039550781 433.0245361328125 L 349.2413330078125 394.1872863769531" stroke-width="2.0" fill="rgb(255, 208, 173)" opacity="0.9123236"/>
    <path d="M 187.7283935546875 360.32281494140625 C 132.85205078125 367.8515625 149.2870635986328 300.9382629394531 149.1778106689453 387.1150817871094 C 241.5742950439453 350.92987060546875 206.76995849609375 346.50433349609375 189.6202850341797 359.6401062011719 C 165.45266723632812 365.4735412597656 129.10440063476562 350.5174560546875 144.45909118652344 303.3197937011719 C 107.86337280273438 337.5848083496094 148.262939453125 508.95440673828125 149.13650512695312 377.6131286621094 L 187.7283935546875 360.32281494140625" stroke-width="2.0" fill="rgb(255, 193, 153)" opacity="0.7219841"/>
    <path d="M 82.20523834228516 430.0522155761719 C 81.70523071289062 431.08001708984375 80.31005096435547 431.70526123046875 79.72904968261719 431.1182861328125 C 78.65924835205078 431.70989990234375 77.82563018798828 431.41424560546875 75.50444030761719 431.37322998046875 C 75.01138305664062 430.160888671875 76.66918182373047 429.268310546875 77.30145263671875 428.1473083496094 C 79.03939819335938 428.4591064453125 80.27851104736328 429.11090087890625 80.61531066894531 429.93389892578125 L 82.20523834228516 430.0522155761719" stroke-width="2.0" fill="rgb(159, 179, 96)" opacity="0.0"/>
    <path d="M 197.96148681640625 21.07623863220215 C 200.28257751464844 21.39130401611328 199.4010009765625 21.920486450195312 200.02024841308594 21.171815872192383 C 204.90011596679688 22.732498168945312 204.647216796875 21.199262619018555 207.67117309570312 21.28531837463379 C 205.8234100341797 27.27851676940918 205.43165588378906 26.827695846557617 205.09986877441406 27.668428421020508 C 199.9788818359375 27.439300537109375 200.10198974609375 27.22343635559082 197.38743591308594 26.490262985229492 L 197.96148681640625 21.07623863220215" stroke-width="2.0" fill="rgb(87, 33, 128)" opacity="0.0035334688"/>
    <path d="M 525.8584594726562 394.91339111328125 C 525.5974731445312 404.55682373046875 534.0867919921875 411.98162841796875 511.7701110839844 489.2845458984375 C 409.23974609375 464.6701965332031 451.8937683105469 436.91107177734375 457.3966369628906 408.9065856933594 C 435.5103454589844 383.3868713378906 457.2705993652344 311.036376953125 455.568359375 320.6852722167969 C 440.8229675292969 352.09039306640625 486.8497009277344 318.9525146484375 521.7474975585938 295.5104064941406 L 525.8584594726562 394.91339111328125" stroke-width="2.0" fill="rgb(35, 70, 97)" opacity="1.0"/>
    <path d="M 54.18083953857422 246.50759887695312 C 63.675331115722656 283.9175109863281 77.63192749023438 266.1524353027344 71.40117645263672 270.7488708496094 C -11.707133293151855 270.8818359375 -6.986819744110107 268.7640686035156 -3.388674259185791 263.418212890625 C -3.824251890182495 188.6397705078125 -2.264265775680542 187.90292358398438 -0.540244996547699 174.8165740966797 C 79.76606750488281 174.27500915527344 99.19786834716797 168.01260375976562 99.59455871582031 189.04531860351562 L 54.18083953857422 246.50759887695312" stroke-width="2.0" fill="rgb(36, 132, 189)" opacity="0.9108099"/>
    <path d="M 263.1335144042969 437.2085876464844 C 255.2335205078125 407.66363525390625 261.2503662109375 409.7231750488281 259.2993469238281 446.46942138671875 C 235.4247589111328 439.7918701171875 245.46697998046875 444.701416015625 244.3490447998047 442.1766357421875 C 244.92758178710938 402.3157043457031 242.58087158203125 403.4287109375 251.0702667236328 396.97344970703125 C 246.33602905273438 402.38287353515625 255.3938446044922 388.0107727050781 260.80450439453125 410.2928161621094 L 263.1335144042969 437.2085876464844" stroke-width="2.0" fill="rgb(0, 118, 191)" opacity="0.8470088"/>
    <path d="M 156.2828369140625 373.84375 C 131.33108520507812 396.3424072265625 183.82351684570312 306.80181884765625 86.10546875 318.68939208984375 C 57.33961868286133 352.8236999511719 61.5947151184082 338.3410949707031 49.86022186279297 326.75274658203125 C 69.04981231689453 305.2525939941406 67.9660873413086 283.17340087890625 65.03321838378906 238.14158630371094 C 96.96794128417969 251.84619140625 146.69569396972656 209.7606658935547 158.1201629638672 199.00296020507812 L 156.2828369140625 373.84375" stroke-width="2.0" fill="rgb(3, 112, 186)" opacity="0.7744002"/>
    <path d="M 437.7687072753906 281.09112548828125 C 390.4248046875 275.501220703125 382.6441650390625 273.4521484375 384.46844482421875 274.58123779296875 C 390.57025146484375 284.0268249511719 384.5119323730469 287.94769287109375 387.9416809082031 279.91619873046875 C 384.5810546875 292.2542419433594 397.37255859375 277.412109375 361.8587341308594 256.4005432128906 C 313.7606506347656 236.4994354248047 402.1294250488281 321.2453308105469 425.2588806152344 307.2950439453125 L 437.7687072753906 281.09112548828125" stroke-width="2.0" fill="rgb(244, 185, 147)" opacity="0.7520592"/>
    <path d="M 431.2581481933594 35.90032196044922 C 430.9930725097656 36.521934509277344 431.4349670410156 35.59001159667969 431.1562194824219 35.995296478271484 C 433.0361633300781 36.596649169921875 432.7537841796875 36.496009826660156 431.3980407714844 36.11406326293945 C 431.7311096191406 34.4273681640625 432.2352600097656 31.575149536132812 430.8283386230469 36.5767707824707 C 431.4344177246094 35.23854446411133 432.9163818359375 37.668052673339844 431.8983154296875 36.01071548461914 L 431.2581481933594 35.90032196044922" stroke-width="2.0" fill="rgb(140, 45, 228)" opacity="0.12498219"/>
    <path d="M 385.9931335449219 75.19895935058594 C 427.2783203125 117.75241088867188 374.85577392578125 51.887916564941406 357.0682373046875 177.3465118408203 C 291.41290283203125 186.71128845214844 276.9609375 196.57687377929688 273.1204528808594 78.73990631103516 C 411.0103454589844 77.78421783447266 409.8526306152344 75.42604064941406 394.8257141113281 84.02366638183594 C 386.6893005371094 76.08090209960938 383.2275390625 72.46408081054688 392.02630615234375 81.36227416992188 L 385.9931335449219 75.19895935058594" stroke-width="2.0" fill="rgb(37, 133, 190)" opacity="0.97355163"/>
    <path d="M 461.7124938964844 238.60533142089844 C 449.60943603515625 238.46359252929688 461.9076232910156 244.60025024414062 422.17938232421875 240.49896240234375 C 421.1012878417969 191.17445373535156 425.7833557128906 183.91151428222656 408.4618225097656 170.31784057617188 C 435.2040100097656 195.8271484375 373.8385009765625 119.64912414550781 387.9002380371094 240.19354248046875 C 353.3241271972656 262.2993469238281 301.55181884765625 122.45890808105469 445.28948974609375 160.7286376953125 L 461.7124938964844 238.60533142089844" stroke-width="2.0" fill="rgb(255, 227, 195)" opacity="0.8494868"/>
    <path d="M 216.71572875976562 351.2712707519531 C 214.89210510253906 349.9865417480469 214.58749389648438 349.7394104003906 214.762451171875 349.8922424316406 C 216.4518585205078 352.20635986328125 215.74334716796875 349.62628173828125 217.20831298828125 349.76544189453125 C 214.05429077148438 351.29656982421875 216.5555877685547 350.58709716796875 218.06739807128906 353.083984375 C 216.33360290527344 350.1922607421875 217.77113342285156 351.23516845703125 216.05813598632812 352.9251708984375 L 216.71572875976562 351.2712707519531" stroke-width="2.0" fill="rgb(189, 240, 53)" opacity="0.0"/>
    <path d="M 210.3115692138672 440.32354736328125 C 206.87176513671875 438.4033508300781 204.83103942871094 436.8851318359375 200.9233856201172 446.3780822753906 C 212.2957305908203 445.8629455566406 210.3006134033203 439.793701171875 211.155517578125 438.0985412597656 C 209.71353149414062 441.0439453125 213.25909423828125 438.777099609375 213.38914489746094 444.529541015625 C 207.25180053710938 440.7685241699219 209.14334106445312 441.35504150390625 210.3776397705078 443.6429748535156 L 210.3115692138672 440.32354736328125" stroke-width="2.0" fill="rgb(98, 40, 56)" opacity="0.13217822"/>
    <path d="M 391.6373291015625 295.7554626464844 C 375.16363525390625 303.07135009765625 358.752685546875 305.45513916015625 370.9521789550781 303.3072814941406 C 370.3807678222656 302.47967529296875 326.3842468261719 311.1913146972656 296.2209777832031 295.05999755859375 C 298.9340515136719 281.8647766113281 305.64569091796875 262.20703125 329.7662658691406 254.16015625 C 358.50048828125 246.6243133544922 382.532470703125 264.2409362792969 389.036865234375 287.025146484375 L 391.6373291015625 295.7554626464844" stroke-width="2.0" fill="rgb(19, 116, 183)" opacity="0.9146616"/>
    <path d="M 173.0433807373047 311.9797668457031 C 141.0074920654297 206.00914001464844 146.1826171875 225.13795471191406 101.84514617919922 229.79116821289062 C 50.04846954345703 249.83909606933594 148.24269104003906 158.54693603515625 86.71519470214844 80.69586944580078 C 9.567814826965332 81.28782653808594 -12.319318771362305 119.48299407958984 -12.420649528503418 65.99964904785156 C 95.54056549072266 46.868492126464844 36.005897521972656 41.90895462036133 223.55882263183594 81.797607421875 L 173.0433807373047 311.9797668457031" stroke-width="2.0" fill="rgb(138, 113, 128)" opacity="1.0"/>
    <path d="M 289.2857971191406 220.35984802246094 C 278.29693603515625 293.1702575683594 309.9678039550781 235.16259765625 243.07984924316406 266.204833984375 C 189.67062377929688 274.2984313964844 236.2723846435547 263.0375671386719 154.65342712402344 331.7541198730469 C 152.1548309326172 123.59207153320312 176.13148498535156 167.4292755126953 208.6688232421875 176.11268615722656 C 218.67605590820312 168.69342041015625 207.32672119140625 195.43170166015625 304.82598876953125 199.98239135742188 L 289.2857971191406 220.35984802246094" stroke-width="2.0" fill="rgb(16, 113, 182)" opacity="0.8434125"/>
    <path d="M 104.83393096923828 265.6149597167969 C 105.61585998535156 265.1855773925781 106.26048278808594 264.6646728515625 104.73157501220703 264.0042419433594 C 104.81547546386719 264.6824035644531 103.66046142578125 265.3111267089844 104.4166030883789 266.0383605957031 C 103.5345230102539 266.1891174316406 107.13162994384766 265.0341491699219 106.3626708984375 266.761962890625 C 105.19658660888672 264.7353820800781 105.53070068359375 266.29351806640625 106.51512145996094 265.7792663574219 L 104.83393096923828 265.6149597167969" stroke-width="2.0" fill="rgb(195, 46, 102)" opacity="0.13306291"/>
    <path d="M 456.8798522949219 417.1609802246094 C 488.906982421875 419.3162536621094 417.4319152832031 407.33551025390625 387.46954345703125 454.2030334472656 C 344.7035217285156 530.0584716796875 390.30889892578125 567.7047119140625 321.2228088378906 520.183349609375 C 340.1514587402344 323.181640625 351.5971374511719 314.80804443359375 370.6642761230469 339.7786560058594 C 386.09381103515625 344.61944580078125 407.771484375 330.8526306152344 441.43609619140625 313.80389404296875 L 456.8798522949219 417.1609802246094" stroke-width="2.0" fill="rgb(210, 59, 29)" opacity="0.57721955"/>
    <path d="M -26.060903549194336 134.84832763671875 C -21.6771183013916 75.19023895263672 139.65194702148438 146.05589294433594 55.06272888183594 76.966552734375 C 23.461040496826172 22.71196174621582 -20.55095100402832 18.927642822265625 -77.0447998046875 155.04058837890625 C 128.8811492919922 61.099483489990234 44.97452926635742 63.644771575927734 24.90999412536621 45.32111740112305 C 87.54737854003906 99.3505859375 134.78919982910156 190.4379425048828 88.71281433105469 63.80685806274414 L -26.060903549194336 134.84832763671875" stroke-width="2.0" fill="rgb(39, 109, 169)" opacity="0.9674789"/>
    <path d="M 473.6336364746094 137.59365844726562 C 474.372802734375 131.38742065429688 481.0655822753906 130.80908203125 506.2216796875 116.85562896728516 C 543.7241821289062 99.2076416015625 531.1472778320312 103.67143249511719 518.3536376953125 133.93768310546875 C 514.6174926757812 155.4535369873047 530.7955932617188 160.4838409423828 512.154052734375 226.4824981689453 C 416.02117919921875 220.26849365234375 421.7092590332031 221.848388671875 472.85809326171875 191.4133758544922 L 473.6336364746094 137.59365844726562" stroke-width="2.0" fill="rgb(247, 224, 194)" opacity="1.0"/>
    <path d="M 114.16998291015625 461.991943359375 C 113.60264587402344 461.7925109863281 130.24774169921875 450.42315673828125 93.5820083618164 469.9834289550781 C 48.05775833129883 492.97021484375 29.285812377929688 505.5365295410156 -17.87986946105957 527.9562377929688 C 47.76220703125 365.0885314941406 63.71491241455078 393.9997863769531 54.488372802734375 357.4157409667969 C 125.54138946533203 357.4461364746094 107.30928039550781 360.54510498046875 115.1241683959961 378.1888122558594 L 114.16998291015625 461.991943359375" stroke-width="2.0" fill="rgb(18, 36, 63)" opacity="0.7648049"/>
    <path d="M 286.8819274902344 254.6443634033203 C 165.89291381835938 272.0975341796875 208.6829833984375 183.44383239746094 216.4518585205078 245.7328643798828 C 70.52574157714844 262.0281066894531 182.09454345703125 269.1099548339844 108.40283966064453 227.12994384765625 C 47.874755859375 266.0645446777344 101.14058685302734 72.71141815185547 133.9932861328125 99.59782409667969 C 256.77557373046875 98.0362319946289 207.6890411376953 100.9814224243164 292.3534851074219 89.71012878417969 L 286.8819274902344 254.6443634033203" stroke-width="2.0" fill="rgb(36, 132, 190)" opacity="0.9919734"/>
    <path d="M 420.8949279785156 131.532958984375 C 420.5769348144531 128.19813537597656 420.79290771484375 131.12255859375 420.63818359375 128.85150146484375 C 420.8023681640625 131.70835876464844 420.54095458984375 130.52903747558594 422.2049255371094 127.18302154541016 C 420.1755676269531 131.60792541503906 421.0069885253906 131.58213806152344 420.4306945800781 126.73782348632812 C 420.7431640625 130.4315185546875 420.845947265625 131.34532165527344 420.4072265625 126.65357208251953 L 420.8949279785156 131.532958984375" stroke-width="2.0" fill="rgb(150, 87, 76)" opacity="0.06871818"/>
    <path d="M 524.0457763671875 354.82171630859375 C 534.4196166992188 362.7536315917969 495.864013671875 342.3531494140625 466.6789855957031 388.5378723144531 C 432.4762878417969 460.2481994628906 500.7773132324219 346.7738342285156 373.3502197265625 430.70721435546875 C 388.797119140625 362.3845520019531 428.9708251953125 340.55584716796875 439.6670837402344 296.81268310546875 C 457.3412170410156 241.18380737304688 539.8534545898438 288.0956726074219 516.3095703125 196.0091552734375 L 524.0457763671875 354.82171630859375" stroke-width="2.0" fill="rgb(225, 140, 90)" opacity="0.80122656"/>
    <path d="M 56.79163360595703 409.773193359375 C 132.1255645751953 402.1092224121094 58.30601501464844 523.2776489257812 29.370813369750977 512.3184814453125 C -55.787940979003906 518.2405395507812 -40.85943603515625 498.0579833984375 -14.632857322692871 467.8663330078125 C -13.926795959472656 349.08709716796875 -13.717182159423828 345.5848083496094 -12.065834999084473 334.8283996582031 C 79.34490966796875 334.35052490234375 86.02745819091797 333.43841552734375 55.402671813964844 317.7094421386719 L 56.79163360595703 409.773193359375" stroke-width="2.0" fill="rgb(38, 106, 168)" opacity="0.99486756"/>
    <path d="M 306.1127624511719 349.8697204589844 C 269.7632141113281 335.4548645019531 256.1482849121094 373.3706970214844 260.77752685546875 339.84429931640625 C 168.85989379882812 299.7981262207031 238.46920776367188 408.3158264160156 191.09170532226562 336.2021789550781 C 217.46762084960938 290.2976989746094 234.86680603027344 292.9301452636719 187.06704711914062 278.7523193359375 C 410.12005615234375 217.78932189941406 243.2268524169922 296.37353515625 316.68011474609375 301.9372253417969 L 306.1127624511719 349.8697204589844" stroke-width="2.0" fill="rgb(255, 233, 198)" opacity="0.8034567"/>
    <path d="M 82.8248291015625 254.72425842285156 C 80.81719207763672 256.0235900878906 79.39583587646484 256.8063659667969 83.80258178710938 256.5509948730469 C 82.57716369628906 259.4151306152344 83.46365356445312 260.5683898925781 84.61763763427734 258.2604675292969 C 79.08872985839844 257.4092102050781 78.89427185058594 255.63214111328125 86.88441467285156 257.08514404296875 C 87.53462219238281 252.5277099609375 84.1266098022461 254.40155029296875 84.46019744873047 256.0347595214844 L 82.8248291015625 254.72425842285156" stroke-width="2.0" fill="rgb(198, 183, 89)" opacity="0.030227887"/>
    <path d="M 251.0901336669922 56.96232986450195 C 273.2681579589844 11.821714401245117 339.3519592285156 16.65520668029785 342.63360595703125 74.61998748779297 C 393.1759338378906 62.340702056884766 379.86981201171875 25.347061157226562 257.6947326660156 51.94411849975586 C 431.2358703613281 12.902061462402344 548.2910766601562 158.86090087890625 545.1980590820312 6.48482084274292 C 323.7012634277344 -47.74832534790039 402.547607421875 90.13731384277344 266.4937744140625 76.71331787109375 L 251.0901336669922 56.96232986450195" stroke-width="2.0" fill="rgb(247, 233, 207)" opacity="0.9992845"/>
    <path d="M 203.0251007080078 407.10784912109375 C 210.55828857421875 359.4444580078125 245.71456909179688 362.9296875 241.6859130859375 362.0695495605469 C 261.592041015625 362.009521484375 278.1695251464844 372.9598388671875 287.39697265625 394.4696044921875 C 292.7949523925781 409.41839599609375 307.00274658203125 457.8902893066406 261.851318359375 477.12548828125 C 254.51780700683594 412.81396484375 277.8930969238281 328.1047058105469 198.28907775878906 464.2034912109375 L 203.0251007080078 407.10784912109375" stroke-width="2.0" fill="rgb(248, 233, 206)" opacity="0.98478884"/>
    <path d="M 287.4383544921875 294.58831787109375 C 284.8656311035156 338.6861572265625 293.64617919921875 322.53363037109375 272.9466247558594 332.36932373046875 C 267.9868469238281 332.7112121582031 269.8424377441406 339.3880920410156 269.3704528808594 312.8500061035156 C 269.5219421386719 303.3497314453125 266.0493469238281 285.347412109375 246.47238159179688 281.91754150390625 C 325.5734558105469 261.3922119140625 302.08526611328125 261.3814697265625 311.3690185546875 286.7750549316406 L 287.4383544921875 294.58831787109375" stroke-width="2.0" fill="rgb(32, 158, 212)" opacity="0.5557987"/>
    <path d="M 375.576171875 437.84716796875 C 359.9785461425781 464.5579528808594 350.9085693359375 476.7677917480469 330.19622802734375 506.26214599609375 C 320.7821960449219 522.98974609375 305.9843444824219 528.6239013671875 225.97787475585938 512.74658203125 C 271.7892761230469 474.06561279296875 263.1707763671875 475.04302978515625 334.85235595703125 428.894775390625 C 348.85491943359375 352.9263916015625 298.4642639160156 377.033447265625 426.0301208496094 322.2789611816406 L 375.576171875 437.84716796875" stroke-width="2.0" fill="rgb(37, 71, 97)" opacity="0.999589"/>
    <path d="M 226.87686157226562 517.7723999023438 C 224.5876007080078 526.74462890625 221.7606201171875 526.7261352539062 212.15643310546875 529.0922241210938 C 116.43966674804688 529.98779296875 -43.06704330444336 535.4596557617188 21.350948333740234 509.0340881347656 C 167.21780395507812 422.3962097167969 91.41551208496094 524.3911743164062 124.18755340576172 277.85107421875 C 156.02120971679688 439.17559814453125 77.75374603271484 372.5857238769531 236.6847381591797 424.3760986328125 L 226.87686157226562 517.7723999023438" stroke-width="2.0" fill="rgb(247, 216, 184)" opacity="1.0"/>
    <path d="M 228.50718688964844 39.984771728515625 C 229.47239685058594 40.390594482421875 229.93026733398438 39.67819595336914 228.9867706298828 39.74008560180664 C 229.9901580810547 40.10590362548828 230.17369079589844 39.791080474853516 229.34503173828125 38.685447692871094 C 230.87103271484375 41.243289947509766 232.77407836914062 41.976402282714844 235.34768676757812 42.78444290161133 C 231.72103881835938 41.14723587036133 230.97561645507812 41.607723236083984 232.1897430419922 41.30339050292969 L 228.50718688964844 39.984771728515625" stroke-width="2.0" fill="rgb(152, 251, 96)" opacity="0.07887139"/>
    <path d="M 363.2266845703125 349.6396789550781 C 337.0653076171875 366.5159606933594 376.59112548828125 435.4704284667969 295.93426513671875 440.9332275390625 C 252.1896514892578 426.97650146484375 415.0680236816406 413.1057434082031 285.4794006347656 334.6127624511719 C 273.5292663574219 302.6208801269531 347.0241394042969 391.4859313964844 316.0966796875 305.958984375 C 444.45220947265625 295.1269226074219 300.2195129394531 354.9967041015625 436.7583923339844 316.572021484375 L 363.2266845703125 349.6396789550781" stroke-width="2.0" fill="rgb(240, 231, 207)" opacity="0.9991357"/>
    <path d="M 119.35701751708984 344.07757568359375 C 113.50308227539062 346.16033935546875 115.15739440917969 337.8173522949219 114.9879150390625 395.7362365722656 C 69.16162109375 365.7828369140625 89.52976989746094 331.3299255371094 41.29513168334961 394.60595703125 C 40.27278137207031 288.73443603515625 46.41029357910156 289.3179931640625 47.595115661621094 278.5657653808594 C 184.50973510742188 230.7610321044922 282.3355407714844 270.93359375 124.1574478149414 326.918212890625 L 119.35701751708984 344.07757568359375" stroke-width="2.0" fill="rgb(38, 107, 168)" opacity="0.99475604"/>
    <path d="M 375.5440979003906 256.7463073730469 C 375.7404479980469 257.6559753417969 375.0083923339844 258.35992431640625 374.16680908203125 258.1133117675781 C 373.5278625488281 258.8360290527344 372.6734924316406 258.1427917480469 372.801025390625 257.224853515625 C 372.2977294921875 256.6345520019531 372.8034362792969 255.68499755859375 373.6059265136719 255.93954467773438 C 373.9558410644531 255.67947387695312 374.93902587890625 256.0883483886719 375.39044189453125 256.6632995605469 L 375.5440979003906 256.7463073730469" stroke-width="2.0" fill="rgb(54, 252, 184)" opacity="0.0"/>
    <path d="M 469.8830871582031 247.00856018066406 C 465.274169921875 248.1839599609375 460.4293518066406 246.32962036132812 450.7598876953125 246.1405029296875 C 445.3126525878906 144.39320373535156 463.7781982421875 172.69528198242188 458.2933654785156 223.3739013671875 C 494.948974609375 227.77894592285156 500.50152587890625 226.02052307128906 495.32421875 226.22381591796875 C 463.30706787109375 252.7866668701172 471.4267272949219 245.8295440673828 469.790283203125 247.68319702148438 L 469.8830871582031 247.00856018066406" stroke-width="2.0" fill="rgb(121, 187, 206)" opacity="0.96732175"/>
  </g>
</svg>
