<?xml version="1.0" ?>
<svg xmlns="http://www.w3.org/2000/svg" version="1.1" width="512" height="512">
  <defs/>
  <g>
    <path d="M 0.09089561551809311 0.41429397463798523 L 512.7540283203125 -0.7494952082633972 L 512.744384765625 512.7158203125 L -0.8538274765014648 512.72705078125 L 0.09089561551809311 0.41429397463798523" stroke-width="0.0" fill="rgb(252, 250, 247)" opacity="0.78709805" stroke="rgb(0, 0, 0)" stroke-opacity="0.0" stroke-linecap="round" stroke-linejoin="round"/>
    <path d="M 82.57681274414062 63.78733444213867 C -55.02891159057617 204.53346252441406 13.46118450164795 362.6644592285156 -2.7147395610809326 511.8536071777344 L 510.4770812988281 511.92926025390625 L 510.6352844238281 -2.429839849472046 C 369.6353759765625 14.346074104309082 225.86293029785156 -45.64290237426758 82.57681274414062 63.78733444213867" stroke-width="2.0" fill="rgb(253, 254, 252)" opacity="0.9742993" stroke="rgb(0, 0, 0)" stroke-opacity="0.0" stroke-linecap="round" stroke-linejoin="round"/>
    <path d="M 485.12799072265625 139.97361755371094 L 277.3170166015625 143.3063201904297 C 342.34759521484375 161.15943908691406 379.34637451171875 224.55926513671875 364.6025390625 272.8752746582031 C 364.8992004394531 295.2314147949219 353.9696960449219 319.3758544921875 333.1015930175781 339.06915283203125 C 302.7738952636719 393.97894287109375 266.7402648925781 449.9210510253906 235.2024688720703 511.5594177246094 C 314.6402587890625 516.1199951171875 401.69805908203125 489.48193359375 465.8387451171875 402.9295959472656 C 522.1502685546875 317.50494384765625 525.4205322265625 226.91226196289062 485.12799072265625 139.97361755371094" stroke-width="2.0" fill="rgb(243, 198, 16)" opacity="1.0008553" stroke="rgb(0, 0, 0)" stroke-opacity="0.0" stroke-linecap="round" stroke-linejoin="round"/>
    <path d="M 485.4885559082031 142.1635284423828 C 440.0932922363281 48.289432525634766 343.70684814453125 2.3166286945343018 268.0970764160156 0.6123025417327881 C 204.27503967285156 -2.654862403869629 130.9202880859375 16.485511779785156 62.8148307800293 85.09243774414062 L 42.00763702392578 113.44977569580078 C 74.68683624267578 165.4495086669922 107.03013610839844 221.84918212890625 145.15283203125 279.7731628417969 C 123.0135498046875 225.12429809570312 179.71726989746094 143.2028350830078 245.598876953125 144.54014587402344 C 322.720458984375 140.68350219726562 406.11669921875 143.5039825439453 485.4885559082031 142.1635284423828" stroke-width="2.0" fill="rgb(226, 46, 45)" opacity="0.96581286" stroke="rgb(0, 0, 0)" stroke-opacity="0.0" stroke-linecap="round" stroke-linejoin="round"/>
    <path d="M 41.8800163269043 111.10611724853516 C -24.78095245361328 224.08970642089844 -17.951675415039062 365.7639465332031 105.95742797851562 464.2321472167969 C 149.96958923339844 492.5447692871094 190.2605743408203 508.2606506347656 237.64979553222656 511.2052917480469 C 268.3800964355469 454.7135925292969 303.0829772949219 398.4838562011719 337.0145263671875 337.9617004394531 C 275.6076965332031 382.3601379394531 203.74557495117188 381.59283447265625 158.01182556152344 316.8132629394531 C 130.2906036376953 244.4958953857422 85.67814636230469 176.27310180664062 41.8800163269043 111.10611724853516" stroke-width="2.0" fill="rgb(60, 168, 59)" opacity="0.9384672" stroke="rgb(0, 0, 0)" stroke-opacity="0.0" stroke-linecap="round" stroke-linejoin="round"/>
    <path d="M 245.698486328125 142.93589782714844 C 188.6838836669922 143.93597412109375 127.35429382324219 221.04763793945312 142.3205108642578 269.0154113769531 C 141.10684204101562 323.8820495605469 214.0936737060547 379.3638916015625 263.26898193359375 368.74420166015625 C 319.0893859863281 373.67340087890625 379.526123046875 299.4747009277344 367.46649169921875 250.26431274414062 C 368.6532287597656 192.9276123046875 294.89532470703125 132.3092041015625 245.698486328125 142.93589782714844" stroke-width="2.0" fill="rgb(215, 214, 214)" opacity="0.66010374" stroke="rgb(0, 0, 0)" stroke-opacity="0.0" stroke-linecap="round" stroke-linejoin="round"/>
    <path d="M 242.8227996826172 165.32550048828125 C 174.49563598632812 172.83355712890625 140.45997619628906 251.44540405273438 178.28414916992188 307.82623291015625 C 212.04010009765625 358.1091613769531 285.62481689453125 364.6212463378906 327.5585632324219 314.9014587402344 C 371.3297119140625 259.6725158691406 342.6799011230469 179.5028076171875 273.12567138671875 165.4124298095703 L 242.8227996826172 165.32550048828125" stroke-width="2.0" fill="rgb(63, 128, 179)" opacity="0.9961753" stroke="rgb(0, 0, 0)" stroke-opacity="0.0" stroke-linecap="round" stroke-linejoin="round"/>
    <path d="M 2.998763084411621 221.52853393554688 C 6.7499494552612305 116.89002227783203 126.29216003417969 1.003506064414978 221.8327178955078 -1.1516332626342773 L -0.9663982391357422 -0.5792770981788635 L 2.998763084411621 221.52853393554688" stroke-width="2.0" fill="rgb(254, 255, 255)" opacity="0.79086983" stroke="rgb(0, 0, 0)" stroke-opacity="0.0" stroke-linecap="round" stroke-linejoin="round"/>
    <path d="M 47.10990905761719 119.26002502441406 C 77.43998718261719 170.75457763671875 107.72206115722656 225.62643432617188 142.9609375 283.34271240234375 C 140.53311157226562 254.8421173095703 139.8543701171875 232.05796813964844 152.07928466796875 209.57981872558594 C 117.7223892211914 178.95870971679688 90.48885345458984 146.3651580810547 59.53482437133789 115.15001678466797 C 55.23088455200195 116.14160919189453 52.391685485839844 115.59403228759766 47.10990905761719 119.26002502441406" stroke-width="2.0" fill="rgb(204, 29, 33)" opacity="0.9191098" stroke="rgb(0, 0, 0)" stroke-opacity="0.0" stroke-linecap="round" stroke-linejoin="round"/>
  </g>
</svg>
