<?xml version="1.0" ?>
<svg xmlns="http://www.w3.org/2000/svg" version="1.1" width="512" height="512">
  <defs/>
  <g>
    <path d="M 0.0 0.0 L 512.0 0.0 L 512.0 512.0 L 0.0 512.0 L 0.0 0.0" stroke-width="0.0" fill="rgb(255, 255, 255)" opacity="1.0" stroke="rgb(0, 0, 0)" stroke-opacity="0.0" stroke-linecap="round" stroke-linejoin="round"/>
    <path d="M 0.0 0.0 L 0.0 511.0 L 511.0 511.0 L 511.0 0.0 L 0.0 0.0" stroke-width="2.0" fill="rgb(255, 255, 255)" opacity="1.0" stroke="rgb(0, 0, 0)" stroke-opacity="0.0" stroke-linecap="round" stroke-linejoin="round"/>
    <path d="M 121.0 80.0 C 103.46794891357422 96.33333587646484 109.8611068725586 112.66666412353516 118.0 129.0 C 100.24765014648438 138.7261962890625 87.7603759765625 156.6405029296875 95.0 173.0 C 82.56443786621094 175.56492614746094 89.3497543334961 184.05393981933594 97.0 192.0 C 80.46092224121094 197.19578552246094 53.36396789550781 186.86622619628906 50.0 214.0 C 57.939388275146484 230.71449279785156 46.93468475341797 262.126708984375 74.0 265.0 L 82.0 286.0 C 72.23584747314453 303.16668701171875 55.76415252685547 295.49169921875 46.0 306.0 C 43.39533996582031 318.0115661621094 49.02266311645508 326.840576171875 52.0 337.0 C 49.3472785949707 344.91156005859375 34.58835983276367 362.6446533203125 51.0 355.0 C 57.66666793823242 350.8036804199219 64.33333587646484 344.63629150390625 71.0 342.0 C 69.38878631591797 353.6666564941406 68.47010803222656 365.3333435058594 69.0 377.0 C 62.66666793823242 382.3345642089844 56.33333206176758 374.7559814453125 50.0 379.0 C 50.31257247924805 392.1861267089844 67.09414672851562 403.49127197265625 78.0 400.0 C 110.44157409667969 443.26153564453125 155.50271606445312 442.4099426269531 188.0 401.0 C 222.3333282470703 395.3349304199219 256.6666564941406 404.0345458984375 291.0 395.0 C 299.77197265625 381.2599182128906 309.0193176269531 382.08135986328125 320.0 376.0 L 323.0 397.0 C 328.3333435058594 396.90777587890625 333.6666564941406 386.7982482910156 339.0 388.0 C 355.94549560546875 427.0507507324219 397.8289794921875 441.6690979003906 427.0 427.0 C 471.02301025390625 395.81048583984375 477.4222412109375 349.61358642578125 438.0 312.0 C 439.24005126953125 305.2463073730469 451.9115905761719 307.26104736328125 453.0 300.0 C 424.6666564941406 275.1401672363281 396.3333435058594 272.7391357421875 368.0 280.0 C 357.383056640625 267.3333435058594 355.04168701171875 254.6666717529297 347.0 242.0 C 359.69317626953125 234.5853271484375 366.19122314453125 211.15087890625 352.0 200.0 C 341.02435302734375 195.64138793945312 321.5594787597656 209.4700469970703 317.0 195.0 C 317.58367919921875 187.52220153808594 321.72564697265625 179.0181121826172 311.0 173.0 C 309.3940124511719 164.75045776367188 305.0140686035156 139.13943481445312 292.0 155.0 C 287.9436340332031 164.71896362304688 289.4942321777344 173.3588409423828 291.0 182.0 C 299.4410095214844 184.5171356201172 318.3775329589844 178.82504272460938 310.0 195.0 C 293.3333435058594 199.8545379638672 276.6666564941406 201.6968231201172 260.0 189.0 C 244.0439453125 190.81640625 225.7244110107422 177.97265625 227.0 160.0 C 227.37115478515625 154.0 231.46151733398438 148.0 229.0 142.0 C 234.3333282470703 134.4581756591797 239.6666717529297 141.2986602783203 245.0 133.0 C 251.63941955566406 121.53653717041016 241.1011505126953 106.80716705322266 259.0 101.0 C 249.4653778076172 70.93999481201172 206.96649169921875 58.80683135986328 192.0 93.0 C 189.5545196533203 104.66666412353516 193.4605255126953 116.33333587646484 190.0 128.0 C 177.0328369140625 136.39559936523438 165.96896362304688 147.72763061523438 161.0 161.0 C 152.96511840820312 153.28622436523438 152.65411376953125 135.17710876464844 167.0 138.0 C 171.50657653808594 127.78761291503906 173.28677368164062 118.17247009277344 169.0 107.0 C 191.68003845214844 97.11872100830078 162.97303771972656 78.42679595947266 151.0 74.0 C 141.3333282470703 73.0833511352539 131.6666717529297 71.76496887207031 121.0 80.0" stroke-width="2.0" fill="rgb(60, 116, 134)" opacity="1.0" stroke="rgb(0, 0, 0)" stroke-opacity="0.0" stroke-linecap="round" stroke-linejoin="round"/>
    <path d="M 392.0 298.0 C 385.8188171386719 300.2711486816406 376.0411376953125 301.42633056640625 378.0 310.0 C 384.2955322265625 324.7441101074219 397.4315490722656 341.8944396972656 400.0 355.0 C 402.0877990722656 351.16290283203125 412.46942138671875 358.3497314453125 406.0 352.0 C 411.6933288574219 349.80621337890625 414.51373291015625 358.9925231933594 418.0 363.0 C 416.4942626953125 365.8764953613281 419.3447570800781 374.8336486816406 415.0 369.0 C 416.67279052734375 380.97686767578125 413.1534729003906 369.07220458984375 408.0 366.0 C 408.505615234375 374.76177978515625 399.1869201660156 376.4507751464844 393.0 374.0 C 396.9036865234375 379.8873291015625 393.0124816894531 386.0991516113281 388.0 381.0 C 386.7640380859375 372.82952880859375 394.1470642089844 365.2850341796875 383.0 362.0 C 387.3504333496094 360.73077392578125 381.5726623535156 360.23077392578125 384.0 358.0 C 375.1614990234375 345.0 370.810791015625 332.0 366.0 319.0 C 379.80474853515625 315.26983642578125 371.4983215332031 303.221923828125 361.0 313.0 C 339.4555358886719 335.6326904296875 340.2799072265625 360.0081787109375 339.0 384.0 C 342.2188415527344 401.5022888183594 364.472412109375 426.3796081542969 383.0 429.0 C 406.78302001953125 431.49383544921875 437.0411682128906 430.96832275390625 456.0 398.0 C 470.5472106933594 367.6236572265625 466.8154296875 333.19122314453125 429.0 306.0 C 417.3296813964844 300.0999755859375 403.0048522949219 305.9563903808594 392.0 298.0" stroke-width="2.0" fill="rgb(30, 93, 118)" opacity="1.0" stroke="rgb(0, 0, 0)" stroke-opacity="0.0" stroke-linecap="round" stroke-linejoin="round"/>
    <path d="M 216.0 73.0 C 191.75283813476562 78.23898315429688 187.06590270996094 105.98124694824219 196.0 122.0 C 185.00094604492188 136.47610473632812 157.31573486328125 150.43190002441406 164.0 170.0 C 168.64002990722656 192.03407287597656 186.02391052246094 195.98648071289062 204.0 204.0 C 213.5254364013672 211.7005157470703 209.0147247314453 219.63424682617188 214.0 226.0 C 218.6666717529297 227.3040313720703 223.3333282470703 228.86647033691406 228.0 232.0 C 233.72901916503906 227.6666717529297 234.6393280029297 223.3333282470703 237.0 219.0 C 247.0 223.21812438964844 257.0 222.0404052734375 267.0 215.0 C 265.5942077636719 210.72894287109375 258.5298767089844 219.62071228027344 255.0 212.0 C 255.3994140625 191.88133239746094 276.159423828125 200.17628479003906 287.0 202.0 C 268.7352294921875 198.31744384765625 256.93524169921875 183.7277069091797 242.0 187.0 C 220.44186401367188 175.84780883789062 230.43357849121094 154.795654296875 227.0 139.0 C 230.58981323242188 130.3656005859375 237.8144073486328 139.2718505859375 243.0 134.0 C 245.8813934326172 125.66666412353516 249.28309631347656 117.33333587646484 246.0 109.0 C 250.44915771484375 103.4574966430664 257.5494384765625 105.19437408447266 259.0 99.0 C 249.5332489013672 81.60647583007812 231.93194580078125 68.79781341552734 216.0 73.0" stroke-width="2.0" fill="rgb(62, 124, 140)" opacity="1.0" stroke="rgb(0, 0, 0)" stroke-opacity="0.0" stroke-linecap="round" stroke-linejoin="round"/>
    <path d="M 148.0 74.0 C 119.83524322509766 65.44091796875 93.2637710571289 112.03843688964844 123.0 127.0 C 106.70507049560547 136.38958740234375 82.55672454833984 152.3365020751953 97.0 172.0 C 95.40309143066406 179.94700622558594 85.55017852783203 170.43930053710938 87.0 178.0 C 93.29991912841797 197.33294677734375 112.53929901123047 192.62850952148438 125.0 200.0 C 124.06523132324219 183.3333282470703 118.8833236694336 166.6666717529297 132.0 150.0 C 151.56434631347656 139.53756713867188 148.03228759765625 123.44995880126953 151.0 110.0 C 159.1499786376953 101.41293334960938 177.8517303466797 108.44461822509766 178.0 94.0 C 168.3333282470703 85.40950775146484 158.6666717529297 75.28509521484375 148.0 74.0" stroke-width="2.0" fill="rgb(52, 83, 109)" opacity="1.0" stroke="rgb(0, 0, 0)" stroke-opacity="0.0" stroke-linecap="round" stroke-linejoin="round"/>
    <path d="M 148.0 298.0 C 119.77800750732422 287.5652770996094 76.79737091064453 311.5772705078125 71.0 347.0 C 69.63935089111328 357.0 67.37657165527344 367.0 70.0 377.0 C 90.0 378.29302978515625 110.0 377.5399475097656 130.0 375.0 C 116.36457824707031 366.57952880859375 142.1155548095703 359.732421875 133.0 350.0 C 139.5383758544922 333.0 147.62606811523438 316.0 148.0 298.0" stroke-width="2.0" fill="rgb(22, 89, 115)" opacity="1.0" stroke="rgb(0, 0, 0)" stroke-opacity="0.0" stroke-linecap="round" stroke-linejoin="round"/>
    <path d="M 322.0 241.0 C 313.8190002441406 242.58448791503906 320.40625 252.15074157714844 319.0 257.0 C 308.3754577636719 283.14605712890625 295.2063903808594 310.6971435546875 265.0 322.0 C 263.1020812988281 328.6666564941406 258.9303894042969 335.3333435058594 259.0 342.0 C 272.0959777832031 340.4970397949219 287.53546142578125 338.2170715332031 299.0 355.0 C 302.4873352050781 360.5368957519531 300.24322509765625 376.5838928222656 310.0 369.0 C 311.67010498046875 373.9617004394531 319.3462829589844 364.9754638671875 312.0 366.0 C 315.4695739746094 358.0641784667969 323.46246337890625 366.3269348144531 317.0 358.0 C 328.07574462890625 336.0 333.7953796386719 314.0 340.0 292.0 C 339.0234069824219 275.3333435058594 331.71875 258.6666564941406 322.0 241.0" stroke-width="2.0" fill="rgb(166, 191, 188)" opacity="1.0" stroke="rgb(0, 0, 0)" stroke-opacity="0.0" stroke-linecap="round" stroke-linejoin="round"/>
    <path d="M 278.0 241.0 C 263.3333435058594 238.80909729003906 248.6666717529297 236.94020080566406 234.0 241.0 C 235.32177734375 265.6666564941406 221.6060333251953 290.3333435058594 224.0 315.0 C 230.9237060546875 327.0118103027344 244.89202880859375 335.09735107421875 256.0 331.0 C 265.581298828125 304.6666564941406 289.5444030761719 278.3333435058594 290.0 252.0 C 288.2623291015625 247.61541748046875 283.3595275878906 242.63388061523438 278.0 241.0" stroke-width="2.0" fill="rgb(62, 148, 161)" opacity="1.0" stroke="rgb(0, 0, 0)" stroke-opacity="0.0" stroke-linecap="round" stroke-linejoin="round"/>
    <path d="M 297.0 354.0 C 285.7748107910156 340.9578857421875 267.3991394042969 336.2387390136719 253.0 351.0 C 244.7577667236328 343.8697814941406 229.6939697265625 339.5514831542969 223.0 352.0 C 220.37890625 367.0 210.6404571533203 382.0 217.0 397.0 C 243.3333282470703 395.4720764160156 269.6666564941406 405.89312744140625 296.0 390.0 C 300.7945861816406 378.3333435058594 304.9727783203125 366.6666564941406 297.0 354.0" stroke-width="2.0" fill="rgb(75, 107, 128)" opacity="1.0" stroke="rgb(0, 0, 0)" stroke-opacity="0.0" stroke-linecap="round" stroke-linejoin="round"/>
    <path d="M 117.0 199.0 C 98.66666412353516 194.5850830078125 80.33333587646484 194.61058044433594 62.0 195.0 C 40.802940368652344 212.35716247558594 59.1572380065918 233.98228454589844 56.0 253.0 C 60.58506393432617 267.4875183105469 73.98641204833984 263.299560546875 81.0 256.0 C 92.0 255.29759216308594 103.0 257.669189453125 114.0 255.0 C 118.21044158935547 241.01089477539062 112.97525024414062 224.73135375976562 129.0 215.0 C 118.33333587646484 213.5369873046875 107.66666412353516 214.017822265625 97.0 212.0 C 91.36318969726562 197.38462829589844 118.5612564086914 207.76004028320312 117.0 199.0" stroke-width="2.0" fill="rgb(64, 114, 133)" opacity="1.0" stroke="rgb(0, 0, 0)" stroke-opacity="0.0" stroke-linecap="round" stroke-linejoin="round"/>
    <path d="M 235.0 240.0 C 235.4792938232422 248.5326690673828 226.6552734375 272.2082214355469 241.0 263.0 C 239.20777893066406 273.3022766113281 244.0996856689453 271.90032958984375 249.0 263.0 C 256.4620666503906 263.3982849121094 248.4046630859375 271.3800354003906 252.0 275.0 C 243.09390258789062 292.0 238.25299072265625 309.0 234.0 326.0 C 240.6666717529297 327.62493896484375 247.3333282470703 331.5025634765625 254.0 332.0 C 265.78558349609375 304.6666564941406 290.775634765625 277.3333435058594 289.0 250.0 C 274.97637939453125 234.17140197753906 253.2567901611328 240.04762268066406 235.0 240.0" stroke-width="2.0" fill="rgb(80, 190, 193)" opacity="1.0" stroke="rgb(0, 0, 0)" stroke-opacity="0.0" stroke-linecap="round" stroke-linejoin="round"/>
    <path d="M 135.0 239.0 C 127.90998840332031 247.03201293945312 134.21188354492188 257.9295959472656 144.0 258.0 C 166.484375 255.78326416015625 192.65521240234375 258.3107604980469 212.0 245.0 C 214.42613220214844 255.3333282470703 206.70843505859375 265.6666564941406 208.0 276.0 C 212.25669860839844 286.04498291015625 201.4601593017578 311.0256652832031 221.0 306.0 C 220.92868041992188 282.6666564941406 235.03126525878906 259.3333435058594 227.0 236.0 C 201.0 224.16075134277344 175.0 231.15476989746094 149.0 229.0 L 135.0 239.0" stroke-width="2.0" fill="rgb(78, 195, 196)" opacity="1.0" stroke="rgb(0, 0, 0)" stroke-opacity="0.0" stroke-linecap="round" stroke-linejoin="round"/>
    <path d="M 54.0 434.0 C 57.02559280395508 437.801025390625 64.31422424316406 435.1853332519531 69.0 438.0 C 190.0 436.9412536621094 311.0 440.2820129394531 432.0 436.0 L 431.0 431.0 C 335.6666564941406 432.69122314453125 240.3333282470703 425.48638916015625 145.0 433.0 C 115.0 432.7088317871094 85.0 427.4458312988281 54.0 434.0" stroke-width="2.0" fill="rgb(7, 33, 70)" opacity="1.0" stroke="rgb(0, 0, 0)" stroke-opacity="0.0" stroke-linecap="round" stroke-linejoin="round"/>
    <path d="M 238.0 222.0 C 236.65272521972656 226.87353515625 228.31881713867188 233.71340942382812 236.0 237.0 C 254.3333282470703 236.79788208007812 272.6666564941406 230.322021484375 291.0 248.0 C 301.6140441894531 266.35247802734375 271.47357177734375 289.9742431640625 286.0 305.0 C 304.4757995605469 292.51904296875 306.3313903808594 272.6785583496094 316.0 257.0 C 319.09271240234375 227.89552307128906 279.98992919921875 206.01080322265625 256.0 225.0 C 250.3333282470703 222.58143615722656 244.6666717529297 225.44442749023438 238.0 222.0" stroke-width="2.0" fill="rgb(35, 199, 199)" opacity="1.0" stroke="rgb(0, 0, 0)" stroke-opacity="0.0" stroke-linecap="round" stroke-linejoin="round"/>
    <path d="M 145.0 120.0 C 124.70956420898438 127.88689422607422 79.3858413696289 142.79248046875 97.0 172.0 C 94.39220428466797 180.3161163330078 84.21220397949219 169.42410278320312 87.0 179.0 C 94.69640350341797 197.91387939453125 112.60894775390625 192.24325561523438 125.0 201.0 C 125.25325012207031 184.0 119.14585876464844 167.0 132.0 150.0 C 143.4944610595703 142.2775115966797 151.642578125 131.37564086914062 145.0 120.0" stroke-width="2.0" fill="rgb(31, 34, 72)" opacity="1.0" stroke="rgb(0, 0, 0)" stroke-opacity="0.0" stroke-linecap="round" stroke-linejoin="round"/>
    <path d="M 81.0 401.0 C 97.56156921386719 432.6358337402344 133.3690643310547 435.95880126953125 158.0 427.0 C 167.24778747558594 421.9869384765625 178.6338348388672 414.74188232421875 185.0 404.0 C 175.61669921875 395.7659912109375 157.70367431640625 403.2039489746094 145.0 403.0 C 124.0 404.33795166015625 103.0 399.4708557128906 81.0 401.0" stroke-width="2.0" fill="rgb(33, 52, 88)" opacity="1.0" stroke="rgb(0, 0, 0)" stroke-opacity="0.0" stroke-linecap="round" stroke-linejoin="round"/>
    <path d="M 131.0 153.0 C 121.36028289794922 168.3333282470703 124.77154541015625 183.6666717529297 127.0 199.0 C 135.6666717529297 199.6697998046875 144.3333282470703 190.7959442138672 153.0 192.0 C 169.5543975830078 213.87257385253906 189.83982849121094 211.5203094482422 208.0 214.0 C 202.59555053710938 196.75308227539062 181.86514282226562 202.45533752441406 170.0 189.0 C 158.2790069580078 176.807861328125 157.02206420898438 130.923095703125 131.0 153.0" stroke-width="2.0" fill="rgb(72, 180, 184)" opacity="1.0" stroke="rgb(0, 0, 0)" stroke-opacity="0.0" stroke-linecap="round" stroke-linejoin="round"/>
    <path d="M 64.0 382.0 C 67.31246185302734 387.76983642578125 72.35758209228516 396.5456848144531 79.0 398.0 L 203.0 398.0 C 220.37110900878906 393.8363037109375 201.15846252441406 383.44024658203125 193.0 384.0 C 150.3333282470703 381.7322998046875 107.66666412353516 380.63116455078125 64.0 382.0" stroke-width="2.0" fill="rgb(147, 207, 204)" opacity="1.0" stroke="rgb(0, 0, 0)" stroke-opacity="0.0" stroke-linecap="round" stroke-linejoin="round"/>
    <path d="M 178.0 94.0 C 154.7376708984375 59.90597152709961 107.96806335449219 72.76188659667969 110.0 108.0 C 111.80060577392578 124.3695297241211 129.44595336914062 132.068603515625 142.0 118.0 C 143.33143615722656 94.24543762207031 172.28688049316406 111.51922607421875 178.0 94.0" stroke-width="2.0" fill="rgb(78, 142, 154)" opacity="1.0" stroke="rgb(0, 0, 0)" stroke-opacity="0.0" stroke-linecap="round" stroke-linejoin="round"/>
    <path d="M 192.0 95.0 C 186.5050506591797 110.4210433959961 203.08526611328125 131.90663146972656 220.0 120.0 C 224.89161682128906 106.53385162353516 236.7750701904297 100.35601806640625 248.0 106.0 C 267.0982360839844 104.7161636352539 252.43283081054688 88.85440063476562 243.0 79.0 C 227.14688110351562 67.28751373291016 200.87307739257812 70.95654296875 192.0 95.0" stroke-width="2.0" fill="rgb(71, 135, 148)" opacity="1.0" stroke="rgb(0, 0, 0)" stroke-opacity="0.0" stroke-linecap="round" stroke-linejoin="round"/>
    <path d="M 77.0 259.0 C 77.21715545654297 267.7022705078125 77.50838470458984 282.00775146484375 90.0 286.0 C 114.6774673461914 284.6783447265625 141.98548889160156 288.6510009765625 165.0 284.0 L 164.0 270.0 C 148.3333282470703 269.6604309082031 132.6666717529297 266.5858459472656 117.0 263.0 L 115.0 258.0 L 77.0 259.0" stroke-width="2.0" fill="rgb(71, 85, 112)" opacity="1.0" stroke="rgb(0, 0, 0)" stroke-opacity="0.0" stroke-linecap="round" stroke-linejoin="round"/>
    <path d="M 102.0 295.0 C 93.94513702392578 296.8954772949219 89.25807189941406 292.5292663574219 83.0 287.0 C 71.0 300.42242431640625 59.0 298.89471435546875 47.0 303.0 C 46.9610710144043 312.5033874511719 40.84113693237305 324.0984802246094 53.0 332.0 C 53.40065383911133 340.6666564941406 44.285400390625 349.3333435058594 42.0 358.0 C 60.7292366027832 353.1451721191406 78.35842895507812 332.1893005371094 80.0 315.0 C 86.57433319091797 310.4903869628906 90.4931869506836 299.2287902832031 94.0 301.0 C 94.43069458007812 295.32080078125 98.92827606201172 295.8183898925781 102.0 295.0" stroke-width="2.0" fill="rgb(83, 136, 150)" opacity="1.0" stroke="rgb(0, 0, 0)" stroke-opacity="0.0" stroke-linecap="round" stroke-linejoin="round"/>
    <path d="M 368.0 281.0 C 368.38421630859375 288.6666564941406 375.7522888183594 296.3333435058594 379.0 304.0 C 404.0 289.2353515625 429.0 316.4136657714844 454.0 302.0 C 429.6546630859375 276.63592529296875 396.67559814453125 271.8554382324219 368.0 281.0" stroke-width="2.0" fill="rgb(101, 161, 170)" opacity="1.0" stroke="rgb(0, 0, 0)" stroke-opacity="0.0" stroke-linecap="round" stroke-linejoin="round"/>
    <path d="M 142.0 322.0 C 115.81422424316406 314.33734130859375 79.01356506347656 351.1747741699219 93.0 377.0 L 117.0 377.0 C 112.22736358642578 367.8671569824219 119.69432067871094 350.1103820800781 133.0 350.0 C 137.28463745117188 341.5915222167969 136.919921875 328.1020812988281 142.0 322.0" stroke-width="2.0" fill="rgb(34, 198, 198)" opacity="1.0" stroke="rgb(0, 0, 0)" stroke-opacity="0.0" stroke-linecap="round" stroke-linejoin="round"/>
    <path d="M 358.0 204.0 C 346.0 195.34835815429688 334.0 201.68592834472656 322.0 203.0 C 318.63800048828125 210.94752502441406 326.2406005859375 225.0103302001953 313.0 223.0 L 314.0 235.0 C 327.6666564941406 238.2684326171875 341.3333435058594 235.64385986328125 355.0 235.0 C 361.53900146484375 225.0 358.92877197265625 215.0 358.0 204.0" stroke-width="2.0" fill="rgb(49, 109, 127)" opacity="1.0" stroke="rgb(0, 0, 0)" stroke-opacity="0.0" stroke-linecap="round" stroke-linejoin="round"/>
    <path d="M 171.0 313.0 C 171.656982421875 329.6666564941406 194.78277587890625 346.3333435058594 194.0 363.0 L 215.0 363.0 L 222.0 343.0 C 210.32521057128906 343.4428405761719 195.75872802734375 332.48486328125 204.0 320.0 C 194.846435546875 307.5628967285156 183.64797973632812 312.234619140625 171.0 313.0" stroke-width="2.0" fill="rgb(55, 181, 182)" opacity="1.0" stroke="rgb(0, 0, 0)" stroke-opacity="0.0" stroke-linecap="round" stroke-linejoin="round"/>
    <path d="M 161.0 324.0 C 153.22523498535156 338.17724609375 154.04660034179688 346.8593444824219 149.0 360.0 C 155.9066162109375 369.607177734375 176.66151428222656 365.6500549316406 191.0 364.0 C 189.9525909423828 351.23284912109375 180.4430389404297 336.137451171875 169.0 325.0 C 166.6666717529297 327.2454833984375 164.3333282470703 320.1878662109375 161.0 324.0" stroke-width="2.0" fill="rgb(18, 88, 114)" opacity="1.0" stroke="rgb(0, 0, 0)" stroke-opacity="0.0" stroke-linecap="round" stroke-linejoin="round"/>
    <path d="M 319.0 206.0 C 309.7946472167969 192.89768981933594 301.9815979003906 197.6099395751953 292.0 201.0 C 279.41619873046875 200.1735382080078 252.61407470703125 190.99266052246094 255.0 215.0 C 270.6666564941406 219.3668212890625 286.3333435058594 210.64584350585938 302.0 220.0 C 307.3399658203125 211.4351806640625 319.9012756347656 218.44142150878906 319.0 206.0" stroke-width="2.0" fill="rgb(139, 164, 170)" opacity="1.0" stroke="rgb(0, 0, 0)" stroke-opacity="0.0" stroke-linecap="round" stroke-linejoin="round"/>
    <path d="M 156.0 297.0 C 148.1420135498047 306.7143859863281 146.2215576171875 324.9646301269531 139.0 338.0 C 134.3314971923828 347.18072509765625 140.87057495117188 358.4167175292969 128.0 366.0 C 125.6585693359375 381.2401428222656 165.455078125 371.67724609375 142.0 369.0 C 148.8778839111328 346.7513122558594 157.47256469726562 325.1892395019531 165.0 302.0 L 156.0 297.0" stroke-width="2.0" fill="rgb(101, 122, 137)" opacity="1.0" stroke="rgb(0, 0, 0)" stroke-opacity="0.0" stroke-linecap="round" stroke-linejoin="round"/>
    <path d="M 317.0 211.0 C 315.3238830566406 208.63340759277344 315.45758056640625 202.02479553222656 309.0 198.0 C 293.3333435058594 205.4451904296875 277.6666564941406 200.5782470703125 262.0 199.0 C 256.7995910644531 202.28659057617188 254.88294982910156 209.12646484375 255.0 214.0 C 269.0841369628906 215.33750915527344 285.5518493652344 217.23570251464844 298.0 210.0 C 304.3333435058594 213.77345275878906 310.6666564941406 214.7173309326172 317.0 211.0" stroke-width="2.0" fill="rgb(172, 201, 200)" opacity="1.0" stroke="rgb(0, 0, 0)" stroke-opacity="0.0" stroke-linecap="round" stroke-linejoin="round"/>
    <path d="M 154.0 87.0 C 133.46551513671875 71.01456451416016 101.73157501220703 110.23306274414062 126.0 123.0 C 143.02084350585938 127.03500366210938 134.88417053222656 111.46036529541016 142.0 102.0 C 135.356201171875 93.75983428955078 147.30372619628906 91.58514404296875 154.0 87.0" stroke-width="2.0" fill="rgb(33, 188, 188)" opacity="1.0" stroke="rgb(0, 0, 0)" stroke-opacity="0.0" stroke-linecap="round" stroke-linejoin="round"/>
    <path d="M 87.0 290.0 C 80.0 285.6241455078125 73.0 295.9533996582031 66.0 300.0 C 44.99230194091797 290.5384826660156 36.123191833496094 326.47113037109375 55.0 331.0 C 59.08769226074219 326.9009094238281 65.44432830810547 307.14654541015625 68.0 317.0 C 71.24748992919922 307.2216491699219 86.36390686035156 300.4105224609375 87.0 290.0" stroke-width="2.0" fill="rgb(86, 106, 126)" opacity="1.0" stroke="rgb(0, 0, 0)" stroke-opacity="0.0" stroke-linecap="round" stroke-linejoin="round"/>
    <path d="M 344.0 203.0 C 336.9156188964844 202.87925720214844 331.03436279296875 202.9357147216797 325.0 206.0 C 342.4173278808594 220.9405517578125 302.4233703613281 222.85069274902344 318.0 236.0 L 343.0 232.0 L 344.0 203.0" stroke-width="2.0" fill="rgb(51, 165, 170)" opacity="1.0" stroke="rgb(0, 0, 0)" stroke-opacity="0.0" stroke-linecap="round" stroke-linejoin="round"/>
    <path d="M 248.0 187.0 C 236.03733825683594 198.76510620117188 234.7244873046875 228.2252960205078 257.0 223.0 C 265.6380920410156 217.3321533203125 248.2994384765625 215.3928680419922 255.0 207.0 C 256.5967712402344 198.1030731201172 267.68621826171875 198.25205993652344 268.0 193.0 C 261.6666564941406 189.88584899902344 255.3333282470703 187.40235900878906 248.0 187.0" stroke-width="2.0" fill="rgb(50, 91, 114)" opacity="1.0" stroke="rgb(0, 0, 0)" stroke-opacity="0.0" stroke-linecap="round" stroke-linejoin="round"/>
    <path d="M 397.0 351.0 C 394.2047424316406 359.7373962402344 408.7736511230469 362.4880065917969 406.0 371.0 C 394.5478515625 384.7685546875 390.7582702636719 352.445556640625 384.0 361.0 C 377.42950439453125 376.12310791015625 401.24127197265625 394.93048095703125 414.0 376.0 C 421.5811462402344 365.85693359375 410.5552673339844 348.85906982421875 397.0 351.0" stroke-width="2.0" fill="rgb(4, 9, 52)" opacity="1.0" stroke="rgb(0, 0, 0)" stroke-opacity="0.0" stroke-linecap="round" stroke-linejoin="round"/>
    <path d="M 298.0 149.0 C 281.71368408203125 157.43215942382812 291.261962890625 198.4180145263672 308.0 176.0 C 319.6451416015625 183.0093536376953 308.25665283203125 192.6541748046875 315.0 198.0 C 317.5556945800781 187.9893035888672 320.11322021484375 178.89707946777344 308.0 170.0 C 307.9070739746094 163.4464111328125 308.9063415527344 150.7836151123047 298.0 149.0" stroke-width="2.0" fill="rgb(51, 92, 112)" opacity="1.0" stroke="rgb(0, 0, 0)" stroke-opacity="0.0" stroke-linecap="round" stroke-linejoin="round"/>
    <path d="M 210.0 308.0 C 212.68263244628906 317.3333435058594 202.0682830810547 326.6666564941406 206.0 336.0 C 216.7925567626953 340.0557861328125 232.49404907226562 345.659423828125 240.0 337.0 C 228.4326629638672 329.8646240234375 213.46621704101562 320.3035583496094 221.0 308.0 L 210.0 308.0" stroke-width="2.0" fill="rgb(134, 165, 170)" opacity="1.0" stroke="rgb(0, 0, 0)" stroke-opacity="0.0" stroke-linecap="round" stroke-linejoin="round"/>
    <path d="M 302.0 149.0 C 287.4808044433594 151.6944580078125 285.73980712890625 173.2664794921875 296.0 184.0 C 310.4775085449219 180.1713409423828 311.3452453613281 160.3594970703125 302.0 149.0" stroke-width="2.0" fill="rgb(62, 105, 122)" opacity="1.0" stroke="rgb(0, 0, 0)" stroke-opacity="0.0" stroke-linecap="round" stroke-linejoin="round"/>
    <path d="M 345.0 200.0 C 348.9949951171875 211.2279815673828 334.91461181640625 237.30958557128906 354.0 236.0 C 361.9188537597656 224.54051208496094 363.8953857421875 199.05035400390625 345.0 200.0" stroke-width="2.0" fill="rgb(58, 70, 97)" opacity="1.0" stroke="rgb(0, 0, 0)" stroke-opacity="0.0" stroke-linecap="round" stroke-linejoin="round"/>
    <path d="M 314.0 318.0 C 305.92431640625 313.2146911621094 283.6398010253906 324.020751953125 288.0 335.0 C 299.21905517578125 345.2741394042969 322.05908203125 334.8608703613281 314.0 318.0" stroke-width="2.0" fill="rgb(48, 50, 81)" opacity="1.0" stroke="rgb(0, 0, 0)" stroke-opacity="0.0" stroke-linecap="round" stroke-linejoin="round"/>
    <path d="M 154.0 210.0 C 139.05126953125 210.57220458984375 126.01398468017578 227.73731994628906 129.0 241.0 C 138.23553466796875 233.57763671875 150.2662811279297 223.44998168945312 161.0 225.0 L 154.0 210.0" stroke-width="2.0" fill="rgb(61, 154, 165)" opacity="1.0" stroke="rgb(0, 0, 0)" stroke-opacity="0.0" stroke-linecap="round" stroke-linejoin="round"/>
    <path d="M 244.0 107.0 C 221.7314453125 99.10590362548828 224.54824829101562 148.8375701904297 244.0 132.0 C 246.99395751953125 124.32540893554688 249.69630432128906 114.01058959960938 244.0 107.0" stroke-width="2.0" fill="rgb(147, 153, 160)" opacity="1.0" stroke="rgb(0, 0, 0)" stroke-opacity="0.0" stroke-linecap="round" stroke-linejoin="round"/>
    <path d="M 223.0 359.0 C 232.3735809326172 368.0147399902344 255.60679626464844 358.6434631347656 250.0 347.0 C 238.77447509765625 342.4543151855469 222.27207946777344 340.9150085449219 223.0 359.0" stroke-width="2.0" fill="rgb(159, 214, 208)" opacity="1.0" stroke="rgb(0, 0, 0)" stroke-opacity="0.0" stroke-linecap="round" stroke-linejoin="round"/>
    <path d="M 209.0 319.0 C 198.79745483398438 338.8382568359375 222.99794006347656 338.3856201171875 236.0 341.0 C 244.5600128173828 331.7795715332031 216.01480102539062 328.1119079589844 218.0 318.0 L 209.0 319.0" stroke-width="2.0" fill="rgb(180, 214, 210)" opacity="1.0" stroke="rgb(0, 0, 0)" stroke-opacity="0.0" stroke-linecap="round" stroke-linejoin="round"/>
    <path d="M 160.0 106.0 C 144.35433959960938 109.71007537841797 148.61489868164062 135.3323516845703 164.0 132.0 C 171.15162658691406 125.0672378540039 171.739013671875 107.41700744628906 160.0 106.0" stroke-width="2.0" fill="rgb(166, 174, 178)" opacity="1.0" stroke="rgb(0, 0, 0)" stroke-opacity="0.0" stroke-linecap="round" stroke-linejoin="round"/>
    <path d="M 165.0 213.0 C 164.89907836914062 235.5584259033203 194.2145233154297 223.2396697998047 208.0 225.0 C 194.43661499023438 218.0012969970703 180.8991241455078 213.16847229003906 165.0 213.0" stroke-width="2.0" fill="rgb(3, 12, 57)" opacity="1.0" stroke="rgb(0, 0, 0)" stroke-opacity="0.0" stroke-linecap="round" stroke-linejoin="round"/>
    <path d="M 88.0 265.0 C 110.66785430908203 275.9817810058594 137.665771484375 271.374755859375 162.0 271.0 C 139.6654510498047 268.6076354980469 113.00091552734375 260.9597473144531 88.0 265.0" stroke-width="2.0" fill="rgb(129, 185, 193)" opacity="1.0" stroke="rgb(0, 0, 0)" stroke-opacity="0.0" stroke-linecap="round" stroke-linejoin="round"/>
    <path d="M 98.0 402.0 C 119.33465576171875 422.5032043457031 144.99900817871094 423.1874694824219 168.0 403.0 C 155.17259216308594 403.4976806640625 140.77613830566406 416.6235046386719 126.0 413.0 C 117.0 411.8234558105469 108.0 403.9752197265625 98.0 402.0" stroke-width="2.0" fill="rgb(158, 159, 173)" opacity="1.0" stroke="rgb(0, 0, 0)" stroke-opacity="0.0" stroke-linecap="round" stroke-linejoin="round"/>
    <path d="M 236.0 107.0 C 224.7087860107422 111.88599395751953 227.0014190673828 136.63287353515625 241.0 134.0 C 243.94577026367188 125.75617218017578 250.2261199951172 107.27873229980469 236.0 107.0" stroke-width="2.0" fill="rgb(187, 189, 191)" opacity="1.0" stroke="rgb(0, 0, 0)" stroke-opacity="0.0" stroke-linecap="round" stroke-linejoin="round"/>
    <path d="M 249.0 189.0 C 242.4325714111328 198.98387145996094 235.59359741210938 219.30995178222656 251.0 220.0 C 251.0811767578125 211.0 254.99302673339844 202.0 262.0 193.0 L 249.0 189.0" stroke-width="2.0" fill="rgb(84, 151, 164)" opacity="1.0" stroke="rgb(0, 0, 0)" stroke-opacity="0.0" stroke-linecap="round" stroke-linejoin="round"/>
    <path d="M 261.0 269.0 C 241.3874969482422 282.7439270019531 242.7669677734375 304.94305419921875 235.0 322.0 C 234.04139709472656 325.6036682128906 235.70806884765625 328.9167785644531 240.0 328.0 C 244.02593994140625 308.6666564941406 248.40570068359375 289.3333435058594 261.0 269.0" stroke-width="2.0" fill="rgb(200, 224, 225)" opacity="1.0" stroke="rgb(0, 0, 0)" stroke-opacity="0.0" stroke-linecap="round" stroke-linejoin="round"/>
    <path d="M 169.0 289.0 C 174.23483276367188 301.8391418457031 191.8281707763672 299.2422180175781 202.0 298.0 L 202.0 288.0 L 169.0 289.0" stroke-width="2.0" fill="rgb(144, 206, 208)" opacity="1.0" stroke="rgb(0, 0, 0)" stroke-opacity="0.0" stroke-linecap="round" stroke-linejoin="round"/>
    <path d="M 133.0 351.0 C 119.712646484375 350.5212707519531 111.09122467041016 371.0044250488281 121.0 378.0 C 128.77154541015625 378.3591003417969 137.82266235351562 377.2599792480469 127.0 370.0 C 126.46925354003906 362.9749755859375 137.49913024902344 359.0250244140625 133.0 351.0" stroke-width="2.0" fill="rgb(6, 11, 54)" opacity="1.0" stroke="rgb(0, 0, 0)" stroke-opacity="0.0" stroke-linecap="round" stroke-linejoin="round"/>
    <path d="M 166.0 371.0 L 168.0 377.0 C 180.13803100585938 375.1183166503906 197.1450958251953 383.26544189453125 206.0 374.0 L 204.0 370.0 L 166.0 371.0" stroke-width="2.0" fill="rgb(110, 185, 191)" opacity="1.0" stroke="rgb(0, 0, 0)" stroke-opacity="0.0" stroke-linecap="round" stroke-linejoin="round"/>
    <path d="M 280.0 289.0 C 270.3191833496094 295.536376953125 266.91802978515625 310.1856689453125 262.0 320.0 C 269.0 317.0483093261719 276.0 315.3120422363281 283.0 309.0 L 280.0 289.0" stroke-width="2.0" fill="rgb(3, 8, 51)" opacity="1.0" stroke="rgb(0, 0, 0)" stroke-opacity="0.0" stroke-linecap="round" stroke-linejoin="round"/>
    <path d="M 153.0 199.0 L 150.0 196.0 C 135.66419982910156 201.45570373535156 118.66995239257812 204.55055236816406 106.0 212.0 C 121.66666412353516 213.5594024658203 137.3333282470703 209.96945190429688 153.0 199.0" stroke-width="2.0" fill="rgb(77, 155, 165)" opacity="1.0" stroke="rgb(0, 0, 0)" stroke-opacity="0.0" stroke-linecap="round" stroke-linejoin="round"/>
    <path d="M 87.0 173.0 C 80.23263549804688 191.80450439453125 120.1459732055664 198.49407958984375 108.0 177.0 C 101.33333587646484 173.6323699951172 94.66666412353516 177.12013244628906 87.0 173.0" stroke-width="2.0" fill="rgb(52, 57, 89)" opacity="1.0" stroke="rgb(0, 0, 0)" stroke-opacity="0.0" stroke-linecap="round" stroke-linejoin="round"/>
    <path d="M 109.0 402.0 C 124.66666412353516 413.30462646484375 140.3333282470703 412.6949768066406 156.0 403.0 L 109.0 402.0" stroke-width="2.0" fill="rgb(37, 176, 182)" opacity="1.0" stroke="rgb(0, 0, 0)" stroke-opacity="0.0" stroke-linecap="round" stroke-linejoin="round"/>
    <path d="M 197.0 125.0 L 195.0 130.0 C 206.00711059570312 130.1995849609375 215.12940979003906 159.85971069335938 223.0 146.0 C 218.812744140625 136.265380859375 207.1895294189453 127.60025024414062 197.0 125.0" stroke-width="2.0" fill="rgb(105, 181, 188)" opacity="1.0" stroke="rgb(0, 0, 0)" stroke-opacity="0.0" stroke-linecap="round" stroke-linejoin="round"/>
    <path d="M 96.0 211.0 C 104.0462875366211 212.6435546875 131.41600036621094 200.8300323486328 111.0 197.0 C 101.39451599121094 195.5234832763672 92.43123626708984 198.77223205566406 96.0 211.0" stroke-width="2.0" fill="rgb(124, 208, 209)" opacity="1.0" stroke="rgb(0, 0, 0)" stroke-opacity="0.0" stroke-linecap="round" stroke-linejoin="round"/>
    <path d="M 48.0 380.0 C 51.2932243347168 387.9364929199219 60.7666130065918 402.00494384765625 70.0 399.0 C 67.5801010131836 390.96881103515625 59.061058044433594 374.4336853027344 48.0 380.0" stroke-width="2.0" fill="rgb(73, 110, 126)" opacity="1.0" stroke="rgb(0, 0, 0)" stroke-opacity="0.0" stroke-linecap="round" stroke-linejoin="round"/>
    <path d="M 83.0 197.0 C 79.68263244628906 205.85739135742188 83.13606262207031 216.82437133789062 94.0 212.0 C 97.10740661621094 202.39451599121094 96.03144836425781 193.43124389648438 83.0 197.0" stroke-width="2.0" fill="rgb(53, 72, 100)" opacity="1.0" stroke="rgb(0, 0, 0)" stroke-opacity="0.0" stroke-linecap="round" stroke-linejoin="round"/>
    <path d="M 384.0 332.0 C 367.6602783203125 335.51409912109375 388.1036682128906 363.2104187011719 393.0 347.0 L 384.0 332.0" stroke-width="2.0" fill="rgb(123, 126, 142)" opacity="1.0" stroke="rgb(0, 0, 0)" stroke-opacity="0.0" stroke-linecap="round" stroke-linejoin="round"/>
    <path d="M 154.0 297.0 C 151.41847229003906 305.0651550292969 145.89381408691406 315.6113586425781 159.0 317.0 C 162.65719604492188 308.9348449707031 168.2132568359375 298.3886413574219 154.0 297.0" stroke-width="2.0" fill="rgb(116, 146, 157)" opacity="1.0" stroke="rgb(0, 0, 0)" stroke-opacity="0.0" stroke-linecap="round" stroke-linejoin="round"/>
    <path d="M 168.0 278.0 C 178.3333282470703 276.578125 188.6666717529297 279.9446716308594 199.0 272.0 C 188.99514770507812 272.02386474609375 176.33981323242188 266.03558349609375 168.0 278.0" stroke-width="2.0" fill="rgb(14, 128, 139)" opacity="1.0" stroke="rgb(0, 0, 0)" stroke-opacity="0.0" stroke-linecap="round" stroke-linejoin="round"/>
    <path d="M 81.0 198.0 C 71.72930145263672 193.89407348632812 48.27874755859375 200.81100463867188 60.0 212.0 C 60.57327651977539 196.372802734375 80.93350982666016 208.64088439941406 81.0 198.0" stroke-width="2.0" fill="rgb(201, 224, 228)" opacity="1.0" stroke="rgb(0, 0, 0)" stroke-opacity="0.0" stroke-linecap="round" stroke-linejoin="round"/>
    <path d="M 223.0 216.0 C 211.19024658203125 227.38909912109375 236.96826171875 236.76722717285156 237.0 220.0 L 223.0 216.0" stroke-width="2.0" fill="rgb(101, 139, 149)" opacity="1.0" stroke="rgb(0, 0, 0)" stroke-opacity="0.0" stroke-linecap="round" stroke-linejoin="round"/>
    <path d="M 149.0 318.0 C 145.0934600830078 325.1563720703125 139.968994140625 336.90240478515625 152.0 337.0 C 153.75830078125 330.9482727050781 161.11741638183594 319.01678466796875 149.0 318.0" stroke-width="2.0" fill="rgb(124, 125, 143)" opacity="1.0" stroke="rgb(0, 0, 0)" stroke-opacity="0.0" stroke-linecap="round" stroke-linejoin="round"/>
    <path d="M 342.0 366.0 C 355.6666564941406 371.1712951660156 369.3333435058594 372.185546875 383.0 372.0 L 382.0 369.0 C 369.0 370.2001647949219 356.0 363.82342529296875 342.0 366.0" stroke-width="2.0" fill="rgb(34, 60, 92)" opacity="1.0" stroke="rgb(0, 0, 0)" stroke-opacity="0.0" stroke-linecap="round" stroke-linejoin="round"/>
    <path d="M 81.0 199.0 C 72.5420913696289 196.5986328125 83.4276123046875 199.48077392578125 78.0 203.0 C 72.91028594970703 204.42340087890625 60.88967514038086 201.48654174804688 62.0 211.0 C 71.32792663574219 209.46632385253906 86.50875854492188 216.79110717773438 81.0 199.0" stroke-width="2.0" fill="rgb(56, 201, 200)" opacity="1.0" stroke="rgb(0, 0, 0)" stroke-opacity="0.0" stroke-linecap="round" stroke-linejoin="round"/>
    <path d="M 470.0 352.0 C 470.986572265625 359.09942626953125 468.84381103515625 371.1978759765625 476.0 375.0 C 475.98406982421875 367.5884094238281 481.8995666503906 350.1697082519531 470.0 352.0" stroke-width="2.0" fill="rgb(32, 201, 200)" opacity="1.0" stroke="rgb(0, 0, 0)" stroke-opacity="0.0" stroke-linecap="round" stroke-linejoin="round"/>
    <path d="M 181.0 321.0 L 194.0 341.0 C 197.7487335205078 332.9051208496094 194.28445434570312 317.89495849609375 181.0 321.0" stroke-width="2.0" fill="rgb(181, 241, 233)" opacity="1.0" stroke="rgb(0, 0, 0)" stroke-opacity="0.0" stroke-linecap="round" stroke-linejoin="round"/>
    <path d="M 52.0 381.0 C 53.8333854675293 387.29345703125 62.364013671875 400.5758972167969 70.0 397.0 C 65.64300537109375 391.0167541503906 61.20280075073242 378.2529296875 52.0 381.0" stroke-width="2.0" fill="rgb(116, 169, 175)" opacity="1.0" stroke="rgb(0, 0, 0)" stroke-opacity="0.0" stroke-linecap="round" stroke-linejoin="round"/>
    <path d="M 96.0 200.0 C 97.39590454101562 204.17831420898438 127.14073181152344 207.0925750732422 116.0 198.0 L 96.0 200.0" stroke-width="2.0" fill="rgb(202, 232, 233)" opacity="1.0" stroke="rgb(0, 0, 0)" stroke-opacity="0.0" stroke-linecap="round" stroke-linejoin="round"/>
    <path d="M 116.0 226.0 C 107.97632598876953 229.6442413330078 112.39749908447266 245.44017028808594 111.0 254.0 C 117.98780059814453 246.99154663085938 114.43914031982422 235.67300415039062 116.0 226.0" stroke-width="2.0" fill="rgb(37, 166, 174)" opacity="1.0" stroke="rgb(0, 0, 0)" stroke-opacity="0.0" stroke-linecap="round" stroke-linejoin="round"/>
    <path d="M 218.0 377.0 C 225.34121704101562 381.38916015625 236.9940948486328 391.2737731933594 246.0 387.0 C 237.0 384.4251708984375 228.0 375.4188232421875 218.0 377.0" stroke-width="2.0" fill="rgb(92, 161, 172)" opacity="1.0" stroke="rgb(0, 0, 0)" stroke-opacity="0.0" stroke-linecap="round" stroke-linejoin="round"/>
    <path d="M 249.0 91.0 C 244.42893981933594 81.96366882324219 216.9151611328125 94.42719268798828 234.0 96.0 L 249.0 91.0" stroke-width="2.0" fill="rgb(117, 122, 138)" opacity="1.0" stroke="rgb(0, 0, 0)" stroke-opacity="0.0" stroke-linecap="round" stroke-linejoin="round"/>
    <path d="M 222.0 217.0 C 214.26937866210938 226.69985961914062 232.9675750732422 232.9752655029297 234.0 220.0 C 230.3333282470703 217.74078369140625 226.6666717529297 216.22369384765625 222.0 217.0" stroke-width="2.0" fill="rgb(143, 193, 193)" opacity="1.0" stroke="rgb(0, 0, 0)" stroke-opacity="0.0" stroke-linecap="round" stroke-linejoin="round"/>
    <path d="M 309.0 172.0 C 305.2369689941406 175.3333282470703 311.11236572265625 178.6666717529297 314.0 182.0 C 313.6572265625 187.34849548339844 310.0909729003906 195.3130340576172 316.0 199.0 C 314.822265625 190.6598663330078 322.5296936035156 179.67575073242188 309.0 172.0" stroke-width="2.0" fill="rgb(6, 39, 72)" opacity="1.0" stroke="rgb(0, 0, 0)" stroke-opacity="0.0" stroke-linecap="round" stroke-linejoin="round"/>
    <path d="M 198.0 220.0 C 197.56390380859375 230.7186279296875 223.36520385742188 227.66477966308594 211.0 220.0 C 207.0 221.2968292236328 203.0 217.13601684570312 198.0 220.0" stroke-width="2.0" fill="rgb(15, 112, 130)" opacity="1.0" stroke="rgb(0, 0, 0)" stroke-opacity="0.0" stroke-linecap="round" stroke-linejoin="round"/>
    <path d="M 221.0 308.0 C 208.24981689453125 301.7048645019531 206.29278564453125 321.34796142578125 220.0 315.0 L 221.0 308.0" stroke-width="2.0" fill="rgb(83, 132, 148)" opacity="1.0" stroke="rgb(0, 0, 0)" stroke-opacity="0.0" stroke-linecap="round" stroke-linejoin="round"/>
    <path d="M 199.0 330.0 C 195.83541870117188 338.07470703125 206.6771697998047 347.4630432128906 214.0 341.0 C 206.501220703125 342.7295837402344 201.9119110107422 330.6003723144531 199.0 330.0" stroke-width="2.0" fill="rgb(173, 210, 215)" opacity="1.0" stroke="rgb(0, 0, 0)" stroke-opacity="0.0" stroke-linecap="round" stroke-linejoin="round"/>
    <path d="M 176.0 317.0 C 178.3333282470703 321.3644104003906 180.6666717529297 317.1689453125 183.0 315.0 C 187.68577575683594 312.27325439453125 194.9744110107422 316.5236511230469 198.0 312.0 C 191.3320770263672 313.9144287109375 177.79623413085938 307.7239685058594 176.0 317.0" stroke-width="2.0" fill="rgb(127, 219, 217)" opacity="1.0" stroke="rgb(0, 0, 0)" stroke-opacity="0.0" stroke-linecap="round" stroke-linejoin="round"/>
    <path d="M 336.0 285.0 C 325.1348571777344 288.5093078613281 317.8343505859375 295.4115905761719 319.0 306.0 C 321.185302734375 299.39422607421875 326.36822509765625 291.49755859375 336.0 285.0" stroke-width="2.0" fill="rgb(56, 62, 74)" opacity="1.0" stroke="rgb(0, 0, 0)" stroke-opacity="0.0" stroke-linecap="round" stroke-linejoin="round"/>
    <path d="M 271.0 213.0 C 279.3333435058594 214.82675170898438 287.6666564941406 215.3802947998047 296.0 212.0 L 271.0 213.0" stroke-width="2.0" fill="rgb(135, 184, 188)" opacity="1.0" stroke="rgb(0, 0, 0)" stroke-opacity="0.0" stroke-linecap="round" stroke-linejoin="round"/>
    <path d="M 242.0 334.0 C 241.77098083496094 351.39715576171875 262.6856994628906 334.1265869140625 242.0 334.0" stroke-width="2.0" fill="rgb(41, 161, 174)" opacity="1.0" stroke="rgb(0, 0, 0)" stroke-opacity="0.0" stroke-linecap="round" stroke-linejoin="round"/>
    <path d="M 211.0 127.0 C 214.36480712890625 133.0050506591797 225.2007598876953 141.5966033935547 222.0 131.0 C 220.1074981689453 125.76444244384766 215.39524841308594 125.29293060302734 211.0 127.0" stroke-width="2.0" fill="rgb(156, 205, 207)" opacity="1.0" stroke="rgb(0, 0, 0)" stroke-opacity="0.0" stroke-linecap="round" stroke-linejoin="round"/>
    <path d="M 210.0 309.0 C 207.73043823242188 316.8552551269531 224.31956481933594 316.0698547363281 221.0 308.0 L 210.0 309.0" stroke-width="2.0" fill="rgb(107, 171, 182)" opacity="1.0" stroke="rgb(0, 0, 0)" stroke-opacity="0.0" stroke-linecap="round" stroke-linejoin="round"/>
    <path d="M 51.0 380.0 C 50.67269515991211 384.3167724609375 60.77012634277344 398.9409484863281 61.0 389.0 C 53.54005813598633 389.7404479980469 55.48933410644531 379.0743408203125 60.0 381.0 L 51.0 380.0" stroke-width="2.0" fill="rgb(90, 122, 135)" opacity="1.0" stroke="rgb(0, 0, 0)" stroke-opacity="0.0" stroke-linecap="round" stroke-linejoin="round"/>
    <path d="M 209.0 370.0 C 204.4097442626953 385.16552734375 222.3193817138672 373.27789306640625 209.0 370.0" stroke-width="2.0" fill="rgb(59, 130, 147)" opacity="1.0" stroke="rgb(0, 0, 0)" stroke-opacity="0.0" stroke-linecap="round" stroke-linejoin="round"/>
    <path d="M 322.0 210.0 C 312.6361999511719 221.0863037109375 333.8887939453125 217.26380920410156 322.0 210.0" stroke-width="2.0" fill="rgb(107, 151, 163)" opacity="1.0" stroke="rgb(0, 0, 0)" stroke-opacity="0.0" stroke-linecap="round" stroke-linejoin="round"/>
    <path d="M 205.0 260.0 C 202.3219757080078 253.04913330078125 187.52212524414062 260.9344177246094 202.0 262.0 L 205.0 260.0" stroke-width="2.0" fill="rgb(19, 98, 119)" opacity="1.0" stroke="rgb(0, 0, 0)" stroke-opacity="0.0" stroke-linecap="round" stroke-linejoin="round"/>
    <path d="M 85.0 198.0 C 84.5459976196289 208.69070434570312 99.75717163085938 195.861328125 85.0 198.0" stroke-width="2.0" fill="rgb(224, 225, 234)" opacity="1.0" stroke="rgb(0, 0, 0)" stroke-opacity="0.0" stroke-linecap="round" stroke-linejoin="round"/>
    <path d="M 194.0 259.0 C 207.4989471435547 265.37518310546875 205.666259765625 253.72738647460938 194.0 259.0" stroke-width="2.0" fill="rgb(24, 116, 134)" opacity="1.0" stroke="rgb(0, 0, 0)" stroke-opacity="0.0" stroke-linecap="round" stroke-linejoin="round"/>
    <path d="M 160.0 293.0 C 156.97921752929688 302.9640808105469 171.58926391601562 293.4120788574219 160.0 293.0" stroke-width="2.0" fill="rgb(34, 127, 144)" opacity="1.0" stroke="rgb(0, 0, 0)" stroke-opacity="0.0" stroke-linecap="round" stroke-linejoin="round"/>
    <path d="M 228.0 320.0 C 225.00328063964844 328.86126708984375 236.02052307128906 321.06170654296875 228.0 320.0" stroke-width="2.0" fill="rgb(51, 124, 152)" opacity="1.0" stroke="rgb(0, 0, 0)" stroke-opacity="0.0" stroke-linecap="round" stroke-linejoin="round"/>
    <path d="M 443.0 433.0 C 442.3899230957031 438.3050231933594 451.9734802246094 432.0310363769531 443.0 433.0" stroke-width="2.0" fill="rgb(0, 13, 49)" opacity="1.0" stroke="rgb(0, 0, 0)" stroke-opacity="0.0" stroke-linecap="round" stroke-linejoin="round"/>
    <path d="M 302.0 223.0 C 301.2344970703125 228.30416870117188 306.6177673339844 224.18179321289062 302.0 223.0" stroke-width="2.0" fill="rgb(2, 6, 55)" opacity="1.0" stroke="rgb(0, 0, 0)" stroke-opacity="0.0" stroke-linecap="round" stroke-linejoin="round"/>
    <path d="M 434.0 435.0 C 432.50762939453125 437.6930847167969 445.3277282714844 434.9959411621094 434.0 435.0" stroke-width="2.0" fill="rgb(3, 3, 50)" opacity="1.0" stroke="rgb(0, 0, 0)" stroke-opacity="0.0" stroke-linecap="round" stroke-linejoin="round"/>
    <path d="M 450.0 434.0 L 450.0 434.0" stroke-width="2.0" fill="rgb(0, 8, 48)" opacity="1.0" stroke="rgb(0, 0, 0)" stroke-opacity="0.0" stroke-linecap="round" stroke-linejoin="round"/>
    <path d="M 247.0 336.0 C 244.43589782714844 334.1538391113281 244.43589782714844 339.4871826171875 247.0 336.0" stroke-width="2.0" fill="rgb(47, 197, 200)" opacity="1.0" stroke="rgb(0, 0, 0)" stroke-opacity="0.0" stroke-linecap="round" stroke-linejoin="round"/>
    <path d="M 178.0 296.0 L 178.0 296.0" stroke-width="2.0" fill="rgb(58, 191, 187)" opacity="1.0" stroke="rgb(0, 0, 0)" stroke-opacity="0.0" stroke-linecap="round" stroke-linejoin="round"/>
  </g>
</svg>
