<?xml version="1.0" ?>
<svg xmlns="http://www.w3.org/2000/svg" version="1.1" width="512" height="512">
  <defs/>
  <g>
    <path d="M 356.46240234375 321.0287780761719 C 287.77850341796875 179.19190979003906 333.0388488769531 195.39151000976562 287.34393310546875 204.28109741210938 C 218.8865509033203 180.74891662597656 293.695556640625 253.1653289794922 241.51365661621094 239.98092651367188 C 198.55641174316406 93.68018341064453 230.38760375976562 60.291019439697266 232.34991455078125 149.9678955078125 C 323.8205261230469 195.0757598876953 303.1311340332031 102.84906768798828 356.46240234375 321.0287780761719" stroke-width="0.0" fill="rgb(2, 44, 78)" opacity="0.65435195" stroke="rgb(34, 42, 116)" stroke-opacity="0.19390114" stroke-linecap="round" stroke-linejoin="round"/>
    <path d="M 414.70458984375 419.52978515625 C 497.3907775878906 346.24407958984375 405.0198059082031 520.0825805664062 338.7541198730469 387.1977233886719 C 298.9312744140625 423.239501953125 339.7185974121094 380.4236145019531 339.0245361328125 377.8746643066406 C 345.1581726074219 403.3853454589844 320.01165771484375 326.8299255371094 382.6224060058594 308.68621826171875 C 372.9149169921875 304.5951843261719 306.0953674316406 416.04693603515625 414.70458984375 419.52978515625" stroke-width="0.0" fill="rgb(0, 4, 51)" opacity="0.93652445" stroke="rgb(51, 137, 136)" stroke-opacity="0.66872674" stroke-linecap="round" stroke-linejoin="round"/>
    <path d="M 208.69583129882812 287.4171447753906 C 56.981773376464844 291.2062683105469 26.142520904541016 284.8282775878906 177.6541748046875 285.4100646972656 C 114.16757202148438 276.0135192871094 83.6827392578125 293.312744140625 83.83201599121094 270.21551513671875 C 234.6944122314453 275.2712097167969 128.599853515625 273.4934997558594 60.94843673706055 247.8596954345703 C 275.1734924316406 280.7408142089844 204.037841796875 204.1874542236328 208.69583129882812 287.4171447753906" stroke-width="0.0" fill="rgb(2, 10, 55)" opacity="0.9491384" stroke="rgb(173, 73, 89)" stroke-opacity="0.3500372" stroke-linecap="round" stroke-linejoin="round"/>
    <path d="M 188.0980224609375 401.40045166015625 C 163.25265502929688 448.76727294921875 71.66957092285156 423.7699890136719 368.54278564453125 433.1034240722656 C 163.66700744628906 445.68231201171875 79.16248321533203 442.8527526855469 82.62516784667969 392.9024658203125 C 126.86613464355469 433.16912841796875 159.22389221191406 417.62847900390625 172.28884887695312 397.951416015625 C 345.79498291015625 394.64752197265625 311.6544189453125 401.2755432128906 188.0980224609375 401.40045166015625" stroke-width="0.0" fill="rgb(0, 7, 54)" opacity="1.0" stroke="rgb(143, 70, 168)" stroke-opacity="0.12141308" stroke-linecap="round" stroke-linejoin="round"/>
    <path d="M 462.6890869140625 348.93121337890625 C 474.3555908203125 385.23150634765625 441.43377685546875 434.4367370605469 423.4534606933594 415.7080993652344 C 473.7727355957031 373.0867919921875 440.9940490722656 326.9574279785156 418.63873291015625 320.21478271484375 C 380.2345886230469 307.8675231933594 384.25054931640625 336.229736328125 375.38507080078125 307.43707275390625 C 431.94873046875 283.1851501464844 458.5127868652344 332.1025695800781 462.6890869140625 348.93121337890625" stroke-width="0.0" fill="rgb(0, 0, 49)" opacity="0.99659586" stroke="rgb(19, 117, 73)" stroke-opacity="0.25890884" stroke-linecap="round" stroke-linejoin="round"/>
    <path d="M 199.42503356933594 389.9931945800781 C 150.59336853027344 256.0238037109375 66.57428741455078 334.86053466796875 86.9344482421875 383.105712890625 C 83.42639923095703 374.9359130859375 56.631858825683594 403.8656005859375 74.6911392211914 331.17718505859375 C 83.76751708984375 320.9017333984375 93.7364730834961 299.1744384765625 128.79684448242188 296.8387756347656 C 129.30731201171875 293.447509765625 183.97303771972656 294.9916687011719 199.42503356933594 389.9931945800781" stroke-width="0.0" fill="rgb(5, 9, 55)" opacity="0.9731398" stroke="rgb(187, 62, 106)" stroke-opacity="0.37895897" stroke-linecap="round" stroke-linejoin="round"/>
    <path d="M 125.04314422607422 174.1649932861328 C 122.51896667480469 191.56930541992188 138.42271423339844 218.323486328125 116.51145935058594 198.05279541015625 C -5.99785852432251 196.21432495117188 117.82042694091797 206.6658935546875 93.73301696777344 165.20338439941406 C 87.6930923461914 129.19879150390625 129.64456176757812 141.30807495117188 151.48883056640625 102.23090362548828 C 154.39295959472656 162.65060424804688 129.76953125 131.2180633544922 125.04314422607422 174.1649932861328" stroke-width="0.0" fill="rgb(16, 19, 62)" opacity="0.8975548" stroke="rgb(68, 17, 6)" stroke-opacity="0.15010023" stroke-linecap="round" stroke-linejoin="round"/>
  </g>
</svg>
