<?xml version="1.0" ?>
<svg xmlns="http://www.w3.org/2000/svg" version="1.1" width="512" height="512">
  <defs/>
  <g>
    <path d="M 356.5812072753906 322.948974609375 C 284.8028869628906 183.54263305664062 337.04815673828125 193.69253540039062 287.20159912109375 204.29718017578125 C 218.59010314941406 179.95294189453125 291.2824401855469 259.4020080566406 247.73898315429688 240.77293395996094 C 190.6580810546875 96.05877685546875 235.67086791992188 60.08335494995117 230.86849975585938 150.0161590576172 C 323.2312927246094 195.5955810546875 302.63616943359375 100.44668579101562 356.5812072753906 322.948974609375" stroke-width="0.0" fill="rgb(2, 36, 72)" opacity="0.69737446" stroke="rgb(34, 42, 116)" stroke-opacity="0.19390114" stroke-linecap="round" stroke-linejoin="round"/>
    <path d="M 410.57611083984375 419.6284484863281 C 483.4849548339844 367.8318786621094 404.7812805175781 509.32501220703125 338.34869384765625 387.690185546875 C 299.0196228027344 422.72906494140625 339.7859802246094 380.51312255859375 338.9521484375 377.7493591308594 C 345.2250671386719 403.16827392578125 319.7471618652344 326.3565368652344 383.5122375488281 308.3164978027344 C 373.36187744140625 303.5290832519531 307.38446044921875 412.4578552246094 410.57611083984375 419.6284484863281" stroke-width="0.0" fill="rgb(0, 3, 50)" opacity="0.9362242" stroke="rgb(51, 137, 136)" stroke-opacity="0.66872674" stroke-linecap="round" stroke-linejoin="round"/>
    <path d="M 208.43736267089844 287.2469482421875 C 55.44414138793945 291.6266174316406 32.317142486572266 284.3538513183594 168.6741180419922 285.58050537109375 C 112.9007568359375 275.89862060546875 85.2313232421875 294.514892578125 83.64551544189453 270.1468200683594 C 244.38633728027344 276.38958740234375 111.88333129882812 270.24725341796875 60.78614807128906 248.9044647216797 C 271.1795349121094 282.68206787109375 206.7959747314453 200.4025115966797 208.43736267089844 287.2469482421875" stroke-width="0.0" fill="rgb(2, 6, 52)" opacity="0.9533522" stroke="rgb(173, 73, 89)" stroke-opacity="0.3500372" stroke-linecap="round" stroke-linejoin="round"/>
    <path d="M 187.9932403564453 401.49163818359375 C 162.9945526123047 451.21563720703125 52.602691650390625 421.0473937988281 457.1837158203125 434.5809631347656 C 121.39313507080078 444.0677795410156 79.84367370605469 442.052734375 78.4135513305664 382.5797119140625 C 120.67875671386719 441.7174072265625 167.874267578125 412.25128173828125 170.4961395263672 397.95953369140625 C 342.59661865234375 394.4686584472656 314.9801940917969 401.2492980957031 187.9932403564453 401.49163818359375" stroke-width="0.0" fill="rgb(0, 6, 53)" opacity="1.0" stroke="rgb(143, 70, 168)" stroke-opacity="0.12141308" stroke-linecap="round" stroke-linejoin="round"/>
    <path d="M 461.8587951660156 345.8917236328125 C 477.8309326171875 392.271728515625 430.9691467285156 441.3341979980469 416.59429931640625 418.19268798828125 C 472.92724609375 385.2273864746094 448.8653869628906 323.87359619140625 410.3168029785156 317.96478271484375 C 366.98065185546875 310.9971618652344 393.8657531738281 346.0244140625 373.2190246582031 304.2529296875 C 424.24505615234375 273.7073974609375 459.5688171386719 334.95037841796875 461.8587951660156 345.8917236328125" stroke-width="0.0" fill="rgb(0, 0, 48)" opacity="0.9875554" stroke="rgb(19, 117, 73)" stroke-opacity="0.25890884" stroke-linecap="round" stroke-linejoin="round"/>
    <path d="M 186.43051147460938 376.2548522949219 C 164.57412719726562 267.1976013183594 59.605655670166016 326.5709228515625 88.89508056640625 388.23516845703125 C 71.10438537597656 374.67041015625 63.79482650756836 398.3928527832031 72.19264221191406 334.5211486816406 C 81.85215759277344 324.3961181640625 95.48343658447266 290.4122009277344 146.85533142089844 297.5574645996094 C 119.90316009521484 276.5790710449219 217.181640625 347.35430908203125 186.43051147460938 376.2548522949219" stroke-width="0.0" fill="rgb(1, 0, 47)" opacity="0.94085634" stroke="rgb(187, 62, 106)" stroke-opacity="0.37895897" stroke-linecap="round" stroke-linejoin="round"/>
    <path d="M 124.85641479492188 175.85653686523438 C 123.05554962158203 190.07142639160156 138.18759155273438 218.9604949951172 116.5475845336914 198.0485382080078 C -31.867141723632812 196.3885040283203 119.7744140625 208.9624786376953 93.8521499633789 165.3076629638672 C 86.15109252929688 126.71601104736328 143.0883026123047 139.93093872070312 151.1571807861328 95.49420928955078 C 156.34771728515625 165.66627502441406 129.2381591796875 128.9816131591797 124.85641479492188 175.85653686523438" stroke-width="0.0" fill="rgb(17, 16, 60)" opacity="0.86098933" stroke="rgb(68, 17, 6)" stroke-opacity="0.15010023" stroke-linecap="round" stroke-linejoin="round"/>
    <path d="M 251.30471801757812 276.7881164550781 C 212.42312622070312 373.8687438964844 257.88043212890625 297.581787109375 242.1826934814453 343.9503173828125 C 237.60447692871094 326.9183349609375 211.6400146484375 328.76519775390625 220.99322509765625 313.7234191894531 C 225.55613708496094 277.6405029296875 227.71978759765625 278.5110168457031 234.36019897460938 206.3319091796875 C 228.07958984375 342.6405944824219 259.3840026855469 227.88551330566406 251.30471801757812 276.7881164550781" stroke-width="0.0" fill="rgb(3, 8, 54)" opacity="1.0" stroke="rgb(86, 145, 185)" stroke-opacity="0.920501" stroke-linecap="round" stroke-linejoin="round"/>
    <path d="M 226.0430145263672 209.76119995117188 C 236.57029724121094 199.65174865722656 210.58120727539062 247.2372283935547 208.71592712402344 209.6684112548828 C 174.0203094482422 182.13388061523438 178.79476928710938 222.4244842529297 145.13461303710938 132.1730499267578 C 182.56805419921875 196.29714965820312 163.30885314941406 191.30026245117188 175.62799072265625 158.46023559570312 C 187.5041961669922 190.14724731445312 197.87881469726562 161.03073120117188 226.0430145263672 209.76119995117188" stroke-width="0.0" fill="rgb(0, 3, 49)" opacity="0.9623431" stroke="rgb(162, 161, 9)" stroke-opacity="0.019255312" stroke-linecap="round" stroke-linejoin="round"/>
    <path d="M 232.0716552734375 230.4622344970703 C 240.1765594482422 261.6322021484375 247.28370666503906 222.06008911132812 163.5439910888672 229.7674102783203 C 145.51608276367188 231.32687377929688 170.69598388671875 242.23971557617188 146.01260375976562 189.36781311035156 C 119.70225524902344 146.50010681152344 131.14816284179688 159.07965087890625 165.67027282714844 206.288818359375 C 239.8652801513672 224.9510040283203 184.55587768554688 207.06214904785156 232.0716552734375 230.4622344970703" stroke-width="0.0" fill="rgb(3, 20, 62)" opacity="1.0" stroke="rgb(150, 46, 161)" stroke-opacity="0.8311544" stroke-linecap="round" stroke-linejoin="round"/>
    <path d="M 210.7981414794922 290.3503112792969 C 206.88046264648438 360.9767150878906 204.28192138671875 337.0103454589844 198.97064208984375 311.95172119140625 C 149.26747131347656 309.4527587890625 183.48374938964844 318.7449645996094 161.5332489013672 327.486572265625 C 170.54173278808594 257.4031982421875 157.29110717773438 267.8161315917969 171.47393798828125 295.7063293457031 C 231.96546936035156 313.2771911621094 182.57928466796875 268.0808410644531 210.7981414794922 290.3503112792969" stroke-width="0.0" fill="rgb(0, 4, 50)" opacity="0.94595236" stroke="rgb(153, 68, 36)" stroke-opacity="0.9692915" stroke-linecap="round" stroke-linejoin="round"/>
    <path d="M 416.7214660644531 371.7817077636719 C 415.54205322265625 377.6334533691406 408.6416931152344 387.9519958496094 393.63629150390625 383.5675964355469 C 384.528564453125 377.4990539550781 378.7891845703125 372.90057373046875 387.1059265136719 350.4526062011719 C 394.6156921386719 390.5101013183594 423.6064758300781 374.203125 390.8956604003906 349.650146484375 C 398.039794921875 348.9137878417969 420.3367004394531 352.2174377441406 416.7214660644531 371.7817077636719" stroke-width="0.0" fill="rgb(0, 1, 49)" opacity="0.9806895" stroke="rgb(43, 60, 123)" stroke-opacity="0.038282134" stroke-linecap="round" stroke-linejoin="round"/>
    <path d="M 129.97572326660156 232.9613494873047 C 202.50534057617188 213.46954345703125 109.85770416259766 234.47218322753906 137.5584716796875 257.1239013671875 C 107.8311996459961 267.711669921875 113.25639343261719 265.2408447265625 117.1919937133789 232.59393310546875 C 125.3313217163086 228.46026611328125 57.42881774902344 217.2823486328125 125.45665740966797 217.65968322753906 C 207.3040313720703 184.06546020507812 130.46421813964844 212.57786560058594 129.97572326660156 232.9613494873047" stroke-width="0.0" fill="rgb(0, 10, 55)" opacity="0.94757926" stroke="rgb(143, 140, 235)" stroke-opacity="0.097790845" stroke-linecap="round" stroke-linejoin="round"/>
    <path d="M 153.6581268310547 373.2952880859375 C 280.0790100097656 386.66058349609375 226.16500854492188 395.96990966796875 35.0819091796875 379.1455078125 C 168.3771209716797 373.66107177734375 95.42647552490234 389.585205078125 125.01028442382812 352.4637451171875 C 136.14117431640625 365.7903747558594 169.2821502685547 243.4134521484375 133.59727478027344 370.34765625 C 130.2820587158203 363.6780700683594 126.37923431396484 381.05926513671875 153.6581268310547 373.2952880859375" stroke-width="0.0" fill="rgb(4, 12, 56)" opacity="1.0" stroke="rgb(196, 14, 146)" stroke-opacity="0.053473044" stroke-linecap="round" stroke-linejoin="round"/>
    <path d="M 280.333740234375 341.20709228515625 C 297.8781433105469 385.8741455078125 307.2996826171875 394.62286376953125 238.35040283203125 391.4070129394531 C 152.66680908203125 396.3620910644531 242.95175170898438 365.91009521484375 186.8307342529297 371.0037841796875 C 206.48207092285156 343.33612060546875 241.0556640625 389.94873046875 274.31982421875 374.8951721191406 C 325.0841979980469 332.8809814453125 142.72879028320312 348.67138671875 280.333740234375 341.20709228515625" stroke-width="0.0" fill="rgb(0, 9, 53)" opacity="0.8954546" stroke="rgb(56, 176, 169)" stroke-opacity="0.58041" stroke-linecap="round" stroke-linejoin="round"/>
    <path d="M 321.72735595703125 292.7602844238281 C 317.1372375488281 330.1048278808594 274.7624816894531 313.69818115234375 290.718505859375 341.629638671875 C 252.25112915039062 344.761962890625 257.8064880371094 323.942626953125 288.82177734375 309.2528991699219 C 303.472412109375 300.71234130859375 301.84820556640625 299.20947265625 325.6909484863281 248.3580780029297 C 341.27569580078125 290.6249084472656 341.99786376953125 281.43389892578125 321.72735595703125 292.7602844238281" stroke-width="0.0" fill="rgb(245, 254, 238)" opacity="0.9779629" stroke="rgb(10, 47, 22)" stroke-opacity="0.88446265" stroke-linecap="round" stroke-linejoin="round"/>
    <path d="M 308.8435363769531 177.00469970703125 C 330.6602783203125 194.68829345703125 281.0182800292969 207.1294708251953 268.3508605957031 192.41041564941406 C 247.1121368408203 177.70872497558594 230.9373321533203 200.55758666992188 227.0225067138672 155.3099822998047 C 274.9303283691406 111.12628173828125 236.32630920410156 10.64907455444336 401.87530517578125 68.30335235595703 C 252.96707153320312 139.7975616455078 288.3562316894531 209.51321411132812 308.8435363769531 177.00469970703125" stroke-width="0.0" fill="rgb(28, 204, 201)" opacity="0.9401391" stroke="rgb(192, 245, 56)" stroke-opacity="0.33026332" stroke-linecap="round" stroke-linejoin="round"/>
    <path d="M 248.66383361816406 343.74383544921875 C 212.39739990234375 335.9825134277344 229.18695068359375 370.06915283203125 217.4689483642578 365.0893859863281 C 172.86949157714844 364.4023742675781 196.30398559570312 366.9683837890625 192.38729858398438 363.6457824707031 C 203.45855712890625 285.6349792480469 186.97364807128906 357.2012939453125 215.6544189453125 341.7439880371094 C 178.08255004882812 329.3330383300781 246.9222412109375 342.3759460449219 248.66383361816406 343.74383544921875" stroke-width="0.0" fill="rgb(7, 120, 133)" opacity="1.0" stroke="rgb(106, 26, 129)" stroke-opacity="0.6857172" stroke-linecap="round" stroke-linejoin="round"/>
    <path d="M 331.6569519042969 316.1533508300781 C 323.979736328125 339.6408996582031 319.88995361328125 356.92620849609375 306.92919921875 368.77313232421875 C 268.64947509765625 309.76611328125 299.3934631347656 355.8322448730469 315.2001037597656 333.2541198730469 C 314.2258605957031 329.58807373046875 322.29248046875 318.47650146484375 307.7662658691406 315.89239501953125 C 337.6991882324219 281.0334777832031 346.08746337890625 273.6376953125 331.6569519042969 316.1533508300781" stroke-width="0.0" fill="rgb(181, 244, 225)" opacity="1.0" stroke="rgb(101, 153, 107)" stroke-opacity="0.79549325" stroke-linecap="round" stroke-linejoin="round"/>
    <path d="M 76.69587707519531 219.82293701171875 C 72.3607406616211 222.20175170898438 87.55770111083984 217.73780822753906 108.89529418945312 222.90188598632812 C 80.51081085205078 222.00396728515625 45.680755615234375 224.89820861816406 89.15460205078125 217.56948852539062 C 134.6908721923828 219.107666015625 159.97962951660156 214.33006286621094 50.20357131958008 215.58676147460938 C 63.743125915527344 222.35134887695312 105.86698913574219 213.98971557617188 76.69587707519531 219.82293701171875" stroke-width="0.0" fill="rgb(242, 231, 236)" opacity="0.994007" stroke="rgb(165, 159, 212)" stroke-opacity="0.533319" stroke-linecap="round" stroke-linejoin="round"/>
    <path d="M 131.46444702148438 285.97015380859375 C 117.95797729492188 284.15289306640625 127.6753158569336 285.39013671875 163.32545471191406 285.0326843261719 C 173.6823272705078 281.1972351074219 143.34552001953125 283.7940368652344 105.3596420288086 282.55615234375 C 130.31068420410156 286.0343933105469 133.8307342529297 284.82659912109375 86.01433563232422 285.3048400878906 C 92.587890625 278.5752868652344 130.0928497314453 286.5927429199219 131.46444702148438 285.97015380859375" stroke-width="0.0" fill="rgb(250, 250, 248)" opacity="0.98425466" stroke="rgb(228, 6, 103)" stroke-opacity="0.2954415" stroke-linecap="round" stroke-linejoin="round"/>
    <path d="M 118.37728118896484 222.86573791503906 C 135.7786102294922 217.7630157470703 38.136661529541016 216.9359588623047 114.60103607177734 219.41001892089844 C 99.54317474365234 222.40562438964844 73.1327896118164 214.91207885742188 67.9512710571289 224.14071655273438 C 117.5075454711914 226.08180236816406 115.67340087890625 218.4312286376953 57.83848190307617 219.5608673095703 C 43.229373931884766 223.8543243408203 62.198429107666016 224.3028564453125 118.37728118896484 222.86573791503906" stroke-width="0.0" fill="rgb(169, 158, 175)" opacity="1.0" stroke="rgb(239, 216, 207)" stroke-opacity="0.5098404" stroke-linecap="round" stroke-linejoin="round"/>
    <path d="M 285.004638671875 248.33372497558594 C 296.08416748046875 261.6034240722656 283.757080078125 272.20263671875 280.0086669921875 251.15341186523438 C 251.3916015625 239.3213348388672 230.7530517578125 257.6758117675781 235.2974853515625 241.8430938720703 C 259.1795959472656 240.9889373779297 261.72479248046875 241.2630615234375 280.9329833984375 241.85202026367188 C 251.2914581298828 242.8909454345703 276.0730285644531 238.40965270996094 285.004638671875 248.33372497558594" stroke-width="0.0" fill="rgb(255, 255, 249)" opacity="0.9491361" stroke="rgb(46, 52, 41)" stroke-opacity="0.34614968" stroke-linecap="round" stroke-linejoin="round"/>
    <path d="M 198.44131469726562 385.3866271972656 C 224.54164123535156 396.0097961425781 220.00035095214844 393.43145751953125 135.78065490722656 394.0848693847656 C 120.26781463623047 382.9635009765625 113.87954711914062 383.6809997558594 131.68833923339844 382.0761413574219 C 155.75955200195312 382.1994323730469 160.31011962890625 381.5855712890625 171.98619079589844 383.8912048339844 C 151.2083740234375 383.48992919921875 150.60789489746094 382.4687805175781 198.44131469726562 385.3866271972656" stroke-width="0.0" fill="rgb(211, 251, 237)" opacity="1.0" stroke="rgb(177, 176, 206)" stroke-opacity="0.15541956" stroke-linecap="round" stroke-linejoin="round"/>
    <path d="M 263.1922912597656 194.5868377685547 C 252.41049194335938 200.7349090576172 256.9470520019531 203.0353240966797 255.1600341796875 196.85232543945312 C 241.5438690185547 200.345703125 244.12229919433594 214.36338806152344 244.26779174804688 202.9332275390625 C 246.7623291015625 191.30062866210938 250.716796875 189.53257751464844 250.74815368652344 189.91307067871094 C 257.7409973144531 192.20877075195312 263.6996154785156 194.8365020751953 263.1922912597656 194.5868377685547" stroke-width="0.0" fill="rgb(238, 255, 248)" opacity="0.97852165" stroke="rgb(114, 179, 150)" stroke-opacity="0.8571167" stroke-linecap="round" stroke-linejoin="round"/>
    <path d="M 190.7731475830078 374.41650390625 C 175.51048278808594 381.9033508300781 153.75692749023438 373.7339782714844 180.5893096923828 376.72296142578125 C 152.02333068847656 372.2381591796875 171.81089782714844 380.100341796875 191.80908203125 374.68603515625 C 206.4445037841797 374.6171875 224.74334716796875 369.3604736328125 166.97525024414062 370.9891052246094 C 164.35446166992188 375.8055419921875 170.8123321533203 372.76861572265625 190.7731475830078 374.41650390625" stroke-width="0.0" fill="rgb(231, 255, 252)" opacity="0.99841154" stroke="rgb(67, 192, 175)" stroke-opacity="0.056458704" stroke-linecap="round" stroke-linejoin="round"/>
    <path d="M 228.626953125 187.0767822265625 C 235.45498657226562 237.47171020507812 249.28848266601562 215.2644500732422 225.17904663085938 212.93148803710938 C 210.4140625 207.2843017578125 202.28732299804688 191.5836944580078 197.47271728515625 179.06704711914062 C 199.11380004882812 166.4560089111328 155.81857299804688 140.5105743408203 202.91900634765625 147.077392578125 C 229.72520446777344 180.30096435546875 202.1300506591797 180.00511169433594 228.626953125 187.0767822265625" stroke-width="0.0" fill="rgb(15, 215, 205)" opacity="0.6834707" stroke="rgb(127, 195, 45)" stroke-opacity="0.5705324" stroke-linecap="round" stroke-linejoin="round"/>
    <path d="M 353.673095703125 202.5602264404297 C 358.6610412597656 213.7093505859375 355.6014404296875 206.39682006835938 356.7845764160156 238.44906616210938 C 358.46429443359375 214.26348876953125 356.90924072265625 208.27357482910156 358.0607604980469 200.21640014648438 C 360.1757507324219 249.1470489501953 353.9671630859375 240.90866088867188 361.4834289550781 211.11691284179688 C 352.8440856933594 237.9500732421875 350.82135009765625 248.67379760742188 353.673095703125 202.5602264404297" stroke-width="0.0" fill="rgb(184, 172, 187)" opacity="1.0" stroke="rgb(203, 163, 47)" stroke-opacity="0.11696786" stroke-linecap="round" stroke-linejoin="round"/>
    <path d="M 166.61045837402344 382.96527099609375 C 140.19058227539062 396.85009765625 135.32534790039062 393.2423400878906 111.13127136230469 393.8428955078125 C 72.70600891113281 392.7128601074219 81.75517272949219 401.02099609375 65.5989990234375 381.96923828125 C 104.90013885498047 382.19732666015625 131.00161743164062 381.8848571777344 137.3341522216797 382.2242736816406 C 120.395263671875 382.4804382324219 144.67062377929688 381.2438049316406 166.61045837402344 382.96527099609375" stroke-width="0.0" fill="rgb(225, 255, 242)" opacity="0.9492193" stroke="rgb(13, 146, 95)" stroke-opacity="0.037673783" stroke-linecap="round" stroke-linejoin="round"/>
    <path d="M 414.9192810058594 298.24188232421875 C 407.5628662109375 296.9809265136719 402.9013366699219 297.3047790527344 394.49896240234375 298.7194519042969 C 422.2313232421875 294.0574645996094 369.93145751953125 300.4435729980469 378.6956481933594 306.0505065917969 C 416.03411865234375 290.98101806640625 429.953857421875 313.345703125 446.5928649902344 302.24517822265625 C 405.30279541015625 300.9383850097656 413.4334411621094 291.9969787597656 414.9192810058594 298.24188232421875" stroke-width="0.0" fill="rgb(248, 251, 247)" opacity="0.9871913" stroke="rgb(244, 81, 20)" stroke-opacity="0.38367066" stroke-linecap="round" stroke-linejoin="round"/>
    <path d="M 170.9662628173828 435.0422668457031 C 193.6483154296875 439.8343200683594 199.5825653076172 437.90679931640625 68.43853759765625 438.30084228515625 C 74.1261215209961 436.2377014160156 57.27580642700195 436.3410949707031 52.73686218261719 434.8528747558594 C 80.97899627685547 428.74993896484375 85.052490234375 432.16546630859375 112.89323425292969 430.9849853515625 C 99.7298355102539 436.6422424316406 120.17032623291016 421.6669921875 170.9662628173828 435.0422668457031" stroke-width="0.0" fill="rgb(0, 1, 48)" opacity="0.9876317" stroke="rgb(119, 211, 50)" stroke-opacity="0.0059019304" stroke-linecap="round" stroke-linejoin="round"/>
  </g>
</svg>
