<?xml version="1.0" ?>
<svg xmlns="http://www.w3.org/2000/svg" version="1.1" width="512" height="512">
  <defs/>
  <g>
    <path d="M 357.5727233886719 321.8320007324219 C 286.3026428222656 180.15736389160156 334.1453857421875 195.01773071289062 287.2187805175781 204.323486328125 C 219.30096435546875 180.7927703857422 293.89459228515625 252.87403869628906 243.90335083007812 240.08779907226562 C 194.17083740234375 94.14571380615234 233.62376403808594 59.605316162109375 231.51266479492188 149.8380584716797 C 323.5021667480469 195.56732177734375 302.5328674316406 101.03177642822266 357.5727233886719 321.8320007324219" stroke-width="0.0" fill="rgb(0, 43, 77)" opacity="0.6711746" stroke="rgb(34, 42, 116)" stroke-opacity="0.19390114" stroke-linecap="round" stroke-linejoin="round"/>
    <path d="M 411.91253662109375 419.5271301269531 C 488.1651306152344 361.6788330078125 406.0125427246094 512.9834594726562 338.45306396484375 387.79949951171875 C 298.6611022949219 422.7344665527344 339.7474365234375 380.530517578125 338.97259521484375 377.6285400390625 C 345.2547607421875 402.92431640625 319.7362365722656 326.3701171875 383.5834655761719 308.2268371582031 C 373.2685241699219 304.1512145996094 307.0524597167969 413.6916809082031 411.91253662109375 419.5271301269531" stroke-width="0.0" fill="rgb(0, 6, 52)" opacity="0.9437066" stroke="rgb(51, 137, 136)" stroke-opacity="0.66872674" stroke-linecap="round" stroke-linejoin="round"/>
    <path d="M 208.45770263671875 287.25836181640625 C 53.91630554199219 291.6793212890625 28.011777877807617 284.46783447265625 177.8257293701172 285.4483642578125 C 116.6235122680664 276.00286865234375 82.93116760253906 293.4438171386719 83.87788391113281 270.1421203613281 C 242.1067352294922 275.9267883300781 116.12019348144531 271.3203430175781 59.9857177734375 248.75225830078125 C 270.93292236328125 282.73712158203125 207.1324005126953 200.2938232421875 208.45770263671875 287.25836181640625" stroke-width="0.0" fill="rgb(4, 11, 56)" opacity="0.96677154" stroke="rgb(173, 73, 89)" stroke-opacity="0.3500372" stroke-linecap="round" stroke-linejoin="round"/>
    <path d="M 187.97500610351562 401.5194091796875 C 162.6873321533203 451.4078063964844 57.03711700439453 420.629150390625 436.69158935546875 434.6945495605469 C 133.08900451660156 443.28070068359375 87.24966430664062 444.97296142578125 81.93622589111328 392.3353576660156 C 130.12696838378906 436.396484375 163.5741424560547 413.4979553222656 171.52517700195312 397.9361572265625 C 343.8902282714844 394.38433837890625 314.1109619140625 401.4957580566406 187.97500610351562 401.5194091796875" stroke-width="0.0" fill="rgb(0, 8, 54)" opacity="1.0" stroke="rgb(143, 70, 168)" stroke-opacity="0.12141308" stroke-linecap="round" stroke-linejoin="round"/>
    <path d="M 462.33343505859375 347.30816650390625 C 476.377685546875 390.5560607910156 434.5815734863281 438.8446960449219 418.6474609375 417.41693115234375 C 473.1044006347656 381.9179382324219 446.89495849609375 324.6305847167969 411.7928771972656 318.2931823730469 C 368.1153259277344 310.41619873046875 392.4114074707031 344.3533020019531 374.8187561035156 307.6397705078125 C 433.642578125 282.5478515625 458.37103271484375 333.962890625 462.33343505859375 347.30816650390625" stroke-width="0.0" fill="rgb(0, 1, 49)" opacity="0.99288493" stroke="rgb(19, 117, 73)" stroke-opacity="0.25890884" stroke-linecap="round" stroke-linejoin="round"/>
    <path d="M 192.9813232421875 384.2626037597656 C 155.33111572265625 258.2556457519531 64.19368743896484 335.3040466308594 87.48359680175781 382.58489990234375 C 67.9113540649414 375.5306091308594 66.34540557861328 401.64154052734375 70.89170837402344 336.0247802734375 C 82.4730224609375 323.59088134765625 95.35482788085938 290.48443603515625 147.04644775390625 297.56219482421875 C 119.47611236572266 279.2174987792969 206.75152587890625 330.8013916015625 192.9813232421875 384.2626037597656" stroke-width="0.0" fill="rgb(1, 0, 48)" opacity="0.91333723" stroke="rgb(187, 62, 106)" stroke-opacity="0.37895897" stroke-linecap="round" stroke-linejoin="round"/>
    <path d="M 124.98290252685547 175.47767639160156 C 122.97384643554688 189.27996826171875 138.37832641601562 219.3863525390625 116.53092956542969 198.034912109375 C -30.593931198120117 196.72616577148438 118.88074493408203 207.5360565185547 93.7347412109375 164.93341064453125 C 86.58927917480469 127.3854751586914 140.804931640625 139.78533935546875 151.2557830810547 96.22946166992188 C 156.4847869873047 165.01388549804688 129.34356689453125 129.50595092773438 124.98290252685547 175.47767639160156" stroke-width="0.0" fill="rgb(15, 19, 62)" opacity="0.86959606" stroke="rgb(68, 17, 6)" stroke-opacity="0.15010023" stroke-linecap="round" stroke-linejoin="round"/>
    <path d="M 247.35333251953125 286.9117126464844 C 219.38900756835938 360.0613708496094 249.29571533203125 306.95208740234375 243.30303955078125 342.1405944824219 C 223.79348754882812 320.21246337890625 214.83767700195312 329.4805603027344 221.07147216796875 313.3257751464844 C 225.4141845703125 283.13787841796875 227.4542236328125 270.4454650878906 234.01242065429688 217.96702575683594 C 227.44158935546875 313.5505065917969 265.5433654785156 241.35357666015625 247.35333251953125 286.9117126464844" stroke-width="0.0" fill="rgb(4, 16, 59)" opacity="1.0" stroke="rgb(86, 145, 185)" stroke-opacity="0.920501" stroke-linecap="round" stroke-linejoin="round"/>
    <path d="M 215.34597778320312 208.30465698242188 C 239.88096618652344 209.10504150390625 208.55728149414062 241.28749084472656 208.76409912109375 209.86288452148438 C 174.1782684326172 182.11502075195312 178.80909729003906 222.61080932617188 144.9198455810547 131.83375549316406 C 183.051025390625 196.3779754638672 162.94082641601562 191.1209716796875 175.806640625 158.15855407714844 C 184.04458618164062 182.19833374023438 184.2883758544922 159.28306579589844 215.34597778320312 208.30465698242188" stroke-width="0.0" fill="rgb(0, 2, 49)" opacity="0.96121883" stroke="rgb(162, 161, 9)" stroke-opacity="0.019255312" stroke-linecap="round" stroke-linejoin="round"/>
    <path d="M 231.68580627441406 230.7880401611328 C 242.19552612304688 261.8968200683594 245.4558868408203 221.9367218017578 163.62075805664062 229.9465789794922 C 144.5266876220703 231.24478149414062 171.8318634033203 242.30332946777344 144.88330078125 187.7234649658203 C 119.84890747070312 146.4667510986328 131.38299560546875 159.0782928466797 165.25460815429688 205.5836639404297 C 218.6422882080078 221.65870666503906 190.1157684326172 205.67083740234375 231.68580627441406 230.7880401611328" stroke-width="0.0" fill="rgb(2, 20, 62)" opacity="0.99413043" stroke="rgb(150, 46, 161)" stroke-opacity="0.8311544" stroke-linecap="round" stroke-linejoin="round"/>
    <path d="M 210.7666473388672 289.5996398925781 C 207.57232666015625 357.0779113769531 205.92825317382812 345.6006774902344 198.7809600830078 311.98406982421875 C 151.6483917236328 309.9870910644531 181.65065002441406 316.6622619628906 162.05178833007812 327.9163818359375 C 168.3533477783203 254.28683471679688 162.1752166748047 271.38946533203125 170.804931640625 295.4356994628906 C 231.8489990234375 313.8419189453125 182.61827087402344 268.242431640625 210.7666473388672 289.5996398925781" stroke-width="0.0" fill="rgb(0, 5, 51)" opacity="0.94547147" stroke="rgb(153, 68, 36)" stroke-opacity="0.9692915" stroke-linecap="round" stroke-linejoin="round"/>
    <path d="M 416.8044128417969 371.5831604003906 C 415.2793273925781 377.89556884765625 409.8139343261719 386.1573486328125 396.4033508300781 384.43182373046875 C 384.4930725097656 380.21917724609375 378.2835998535156 371.47186279296875 387.13153076171875 350.46759033203125 C 394.6838073730469 390.8603820800781 423.6671142578125 373.8625793457031 390.6824951171875 349.7047119140625 C 400.9529724121094 348.6063537597656 420.0142517089844 353.79052734375 416.8044128417969 371.5831604003906" stroke-width="0.0" fill="rgb(0, 2, 49)" opacity="0.97449046" stroke="rgb(43, 60, 123)" stroke-opacity="0.038282134" stroke-linecap="round" stroke-linejoin="round"/>
    <path d="M 129.97413635253906 232.7030487060547 C 179.44873046875 219.89373779296875 112.17028045654297 239.0536346435547 139.56581115722656 258.3337097167969 C 116.7854995727539 266.309326171875 110.53865814208984 254.6310577392578 114.25226593017578 253.32180786132812 C 123.52066802978516 202.5572052001953 107.65709686279297 223.9289093017578 130.00546264648438 215.9202117919922 C 198.0218963623047 187.3534393310547 133.17868041992188 212.39547729492188 129.97413635253906 232.7030487060547" stroke-width="0.0" fill="rgb(0, 5, 51)" opacity="0.926327" stroke="rgb(143, 140, 235)" stroke-opacity="0.097790845" stroke-linecap="round" stroke-linejoin="round"/>
    <path d="M 158.71348571777344 373.3294372558594 C 267.91412353515625 394.9886169433594 221.30014038085938 379.6084899902344 35.06919479370117 381.66461181640625 C 119.65020751953125 367.9382019042969 119.66309356689453 394.19091796875 117.73819732666016 359.38519287109375 C 144.22781372070312 351.1026611328125 163.94740295410156 260.5960998535156 134.23484802246094 367.94580078125 C 128.822021484375 370.56365966796875 129.14601135253906 378.0897216796875 158.71348571777344 373.3294372558594" stroke-width="0.0" fill="rgb(1, 6, 52)" opacity="0.91825116" stroke="rgb(196, 14, 146)" stroke-opacity="0.053473044" stroke-linecap="round" stroke-linejoin="round"/>
    <path d="M 278.30474853515625 341.0039978027344 C 301.5672912597656 383.5907287597656 300.4075012207031 394.4039306640625 253.08856201171875 391.5426330566406 C 179.43214416503906 394.1676330566406 214.5398406982422 384.3014221191406 193.7598114013672 365.5471496582031 C 232.41885375976562 358.6976013183594 240.15011596679688 386.71490478515625 274.2019958496094 375.06787109375 C 320.2976989746094 335.19720458984375 167.17669677734375 348.96502685546875 278.30474853515625 341.0039978027344" stroke-width="0.0" fill="rgb(1, 13, 57)" opacity="0.89537615" stroke="rgb(56, 176, 169)" stroke-opacity="0.58041" stroke-linecap="round" stroke-linejoin="round"/>
  </g>
</svg>
