<?xml version="1.0" ?>
<svg xmlns="http://www.w3.org/2000/svg" version="1.1" width="512" height="352">
  <defs/>
  <g>
    <path d="M 146.47581481933594 193.31776428222656 C 149.22991943359375 255.5583953857422 148.44674682617188 251.4633331298828 104.2624740600586 251.53294372558594 C 67.18182373046875 251.0209503173828 65.97657775878906 247.6245574951172 56.53376388549805 227.88470458984375 C 51.87287902832031 192.1322021484375 53.75684356689453 186.38168334960938 95.90560913085938 176.72007751464844 C 150.29510498046875 178.08071899414062 143.42977905273438 171.952392578125 146.47581481933594 193.31776428222656" stroke-width="0.0" fill="rgb(209, 183, 152)" opacity="1.0" stroke="rgb(170, 138, 68)" stroke-opacity="0.89692384" stroke-linecap="round" stroke-linejoin="round"/>
    <path d="M 229.11305236816406 211.1216278076172 C 211.05926513671875 233.4202117919922 205.60128784179688 249.39312744140625 192.79205322265625 260.19635009765625 C 187.93087768554688 228.345947265625 182.73072814941406 241.8286590576172 175.77413940429688 196.26412963867188 C 173.74832153320312 180.70445251464844 183.5763397216797 201.1658935546875 183.68690490722656 165.98324584960938 C 244.57992553710938 171.048095703125 248.58773803710938 157.65560913085938 229.11305236816406 211.1216278076172" stroke-width="0.0" fill="rgb(44, 72, 46)" opacity="0.7178579" stroke="rgb(67, 169, 12)" stroke-opacity="0.27174112" stroke-linecap="round" stroke-linejoin="round"/>
    <path d="M 256.41094970703125 290.2018737792969 C 257.79022216796875 125.8181381225586 244.41162109375 181.5300750732422 211.87318420410156 235.2570037841797 C 189.53138732910156 221.81027221679688 215.49070739746094 162.32688903808594 157.9192352294922 176.15464782714844 C 189.98568725585938 165.93734741210938 155.9591064453125 168.74781799316406 207.19143676757812 133.7736358642578 C 230.90054321289062 139.67919921875 294.37841796875 180.91943359375 256.41094970703125 290.2018737792969" stroke-width="0.0" fill="rgb(85, 103, 84)" opacity="1.0" stroke="rgb(99, 44, 94)" stroke-opacity="0.24130489" stroke-linecap="round" stroke-linejoin="round"/>
    <path d="M 357.841796875 45.9635124206543 C 333.6584777832031 50.75596237182617 347.7310791015625 60.959503173828125 331.88409423828125 74.37340545654297 C 335.9649963378906 61.606693267822266 302.7603454589844 74.61357116699219 313.2616882324219 47.29988479614258 C 312.1761779785156 44.59934616088867 317.4784240722656 21.452667236328125 326.91497802734375 32.07499694824219 C 344.1113586425781 54.603485107421875 312.7107238769531 39.76156234741211 357.841796875 45.9635124206543" stroke-width="0.0" fill="rgb(176, 90, 58)" opacity="1.0" stroke="rgb(96, 212, 105)" stroke-opacity="0.20047244" stroke-linecap="round" stroke-linejoin="round"/>
    <path d="M 306.9458923339844 66.51057434082031 C 272.5771179199219 76.27377319335938 322.2130126953125 109.9487075805664 272.644287109375 116.85294342041016 C 247.43997192382812 147.56455993652344 293.09954833984375 42.42600631713867 235.2111358642578 99.51871490478516 C 260.2147521972656 49.21259689331055 259.9590759277344 49.53428649902344 305.6951599121094 51.11638259887695 C 302.9000549316406 56.1902961730957 310.46905517578125 50.28346252441406 306.9458923339844 66.51057434082031" stroke-width="0.0" fill="rgb(116, 56, 24)" opacity="0.65414375" stroke="rgb(122, 24, 119)" stroke-opacity="0.59005505" stroke-linecap="round" stroke-linejoin="round"/>
    <path d="M 320.04925537109375 224.275634765625 C 334.536865234375 251.24424743652344 335.81488037109375 244.65469360351562 273.053955078125 228.4525604248047 C 268.6318054199219 233.4677276611328 265.0126953125 230.6319122314453 259.5019836425781 215.4917449951172 C 267.78350830078125 172.374755859375 274.05322265625 214.06959533691406 279.73980712890625 189.23301696777344 C 292.12615966796875 168.9611053466797 317.39617919921875 193.51239013671875 320.04925537109375 224.275634765625" stroke-width="0.0" fill="rgb(98, 127, 125)" opacity="1.0" stroke="rgb(76, 254, 40)" stroke-opacity="0.8972401" stroke-linecap="round" stroke-linejoin="round"/>
    <path d="M 334.3257751464844 70.53638458251953 C 326.8113708496094 65.25653839111328 323.171142578125 70.68148040771484 293.5279846191406 99.84732055664062 C 273.2584533691406 95.41358184814453 292.3155517578125 73.85247802734375 296.8388977050781 65.15319061279297 C 300.0589599609375 47.202640533447266 301.37127685546875 36.46940231323242 301.081787109375 33.02947235107422 C 316.55218505859375 40.70271301269531 308.7095642089844 55.31039810180664 334.3257751464844 70.53638458251953" stroke-width="0.0" fill="rgb(158, 85, 54)" opacity="1.0" stroke="rgb(213, 222, 152)" stroke-opacity="0.35882425" stroke-linecap="round" stroke-linejoin="round"/>
    <path d="M 410.0 262.0 C 409.33013916015625 264.5 407.5 266.33013916015625 405.0 267.0 C 402.5 266.33013916015625 400.66986083984375 264.5 400.0 262.0 C 400.66986083984375 259.5 402.5 257.66986083984375 405.0 257.0 C 407.5 257.66986083984375 409.33013916015625 259.5 410.0 262.0" stroke-width="0.0" fill="rgb(148, 148, 147)" opacity="1.0" stroke="rgb(135, 142, 134)" stroke-opacity="0.103512235" stroke-linecap="round" stroke-linejoin="round"/>
  </g>
</svg>
