<?xml version="1.0" ?>
<svg xmlns="http://www.w3.org/2000/svg" version="1.1" width="512" height="512">
  <defs/>
  <g>
    <path d="M -10.0 -10.0 C -9.0 -10.0 512.0 0.0 513.0 0.0 C 514.0 0.0 512.0 512.0 513.0 512.0 C 513.0 513.0 0.0 512.0 0.0 513.0 C 0.0 512.0 0.0 513.0 -10.0 -10.0 L -10.0 -10.0" stroke-width="2.0" fill="rgb(217, 211, 210)" opacity="0.7975594"/>
    <path d="M 494.5059814453125 225.54080200195312 C 495.9421691894531 225.57528686523438 494.36602783203125 225.84693908691406 495.1024169921875 225.573974609375 C 495.154296875 225.82225036621094 495.0384521484375 224.21070861816406 495.0924377441406 225.36416625976562 C 495.5287170410156 225.68211364746094 494.7249755859375 225.4007568359375 495.0760192871094 226.515380859375 C 494.3835754394531 225.28778076171875 495.48419189453125 225.51785278320312 495.7535095214844 225.54409790039062 L 494.5059814453125 225.54080200195312" stroke-width="2.0" fill="rgb(37, 255, 255)" opacity="0.16403756"/>
    <path d="M 340.9456481933594 41.49319076538086 C 342.22222900390625 43.0230827331543 341.8402099609375 42.99967575073242 342.36749267578125 42.93267822265625 C 344.8678283691406 42.661537170410156 346.0404357910156 42.39041519165039 345.5845947265625 42.81556701660156 C 345.38531494140625 42.872528076171875 346.8934631347656 42.1693000793457 342.9004821777344 42.916934967041016 C 344.15252685546875 42.55302047729492 342.99835205078125 42.98210144042969 341.99761962890625 42.92551803588867 L 340.9456481933594 41.49319076538086" stroke-width="2.0" fill="rgb(255, 108, 53)" opacity="0.22066373"/>
    <path d="M 176.5516815185547 318.6353759765625 C 176.8098907470703 318.5620422363281 176.48887634277344 318.9165344238281 175.1458740234375 318.467041015625 C 177.03067016601562 320.05035400390625 177.46669006347656 319.3874816894531 179.13528442382812 319.1079406738281 C 177.09158325195312 319.6531677246094 177.66184997558594 319.462890625 178.62249755859375 320.5748596191406 C 176.5081787109375 319.16265869140625 176.6645965576172 319.64825439453125 176.1766815185547 320.6025695800781 L 176.5516815185547 318.6353759765625" stroke-width="2.0" fill="rgb(178, 60, 68)" opacity="0.0"/>
    <path d="M 7.032541275024414 249.756591796875 C 8.075658798217773 249.12510681152344 7.6818437576293945 250.0045623779297 7.66609525680542 249.123779296875 C 7.982371807098389 250.47952270507812 7.108339309692383 248.9515838623047 8.216203689575195 250.24398803710938 C 7.423448085784912 249.75704956054688 7.560510158538818 248.9108123779297 7.756260395050049 249.6133575439453 C 7.634839057922363 246.4636688232422 7.63584566116333 248.62786865234375 7.538854598999023 249.53158569335938 L 7.032541275024414 249.756591796875" stroke-width="2.0" fill="rgb(255, 55, 185)" opacity="0.07298285"/>
    <path d="M 308.07000732421875 45.87070083618164 C 307.5555725097656 45.556541442871094 307.14190673828125 45.2332649230957 308.0416564941406 45.77962875366211 C 309.1436462402344 45.79957580566406 309.3316955566406 45.1792106628418 309.22772216796875 45.41680145263672 C 308.26422119140625 46.05607223510742 307.75714111328125 45.66733932495117 308.3181457519531 45.80998229980469 C 308.5747985839844 45.888771057128906 310.078857421875 45.007904052734375 308.6279602050781 45.810890197753906 L 308.07000732421875 45.87070083618164" stroke-width="2.0" fill="rgb(202, 112, 191)" opacity="0.16592269"/>
    <path d="M 267.0295104980469 210.74288940429688 C 257.180908203125 226.04835510253906 291.4312438964844 181.8773193359375 249.90733337402344 231.50619506835938 C 259.0575866699219 278.0128479003906 144.24623107910156 322.1617736816406 301.8023376464844 303.8999938964844 C 436.2626953125 95.99383544921875 370.1974792480469 202.1922607421875 248.45333862304688 153.7240447998047 C 320.09368896484375 109.01191711425781 206.88290405273438 168.32089233398438 314.5072021484375 166.66932678222656 L 267.0295104980469 210.74288940429688" stroke-width="2.0" fill="rgb(34, 114, 212)" opacity="0.56784"/>
    <path d="M 9.85446834564209 260.0362243652344 C 9.619150161743164 260.0008544921875 9.179553985595703 260.265625 9.844542503356934 260.0535888671875 C 9.831216812133789 259.15576171875 9.81370735168457 260.741943359375 10.080865859985352 260.94281005859375 C 9.814233779907227 260.6294860839844 9.955342292785645 259.2486267089844 9.91896915435791 259.99932861328125 C 9.723947525024414 260.1528015136719 10.002933502197266 259.9256591796875 9.82125186920166 259.5380859375 L 9.85446834564209 260.0362243652344" stroke-width="2.0" fill="rgb(33, 69, 158)" opacity="0.040084515"/>
    <path d="M 28.036052703857422 298.6706848144531 C 27.718399047851562 300.8312072753906 26.96100425720215 298.8307189941406 28.889705657958984 300.0423889160156 C 28.08991050720215 299.2454833984375 26.775423049926758 299.5575256347656 28.310943603515625 301.1004333496094 C 27.54874610900879 300.1171875 27.508399963378906 300.17108154296875 27.81504249572754 299.5198059082031 C 27.876428604125977 298.5382995605469 27.845239639282227 300.15570068359375 27.80237579345703 299.3741760253906 L 28.036052703857422 298.6706848144531" stroke-width="2.0" fill="rgb(84, 190, 79)" opacity="0.3080975"/>
    <path d="M 477.2532653808594 515.85546875 C 430.3274230957031 525.1469116210938 428.0231018066406 523.818359375 425.2202453613281 524.2445678710938 C 364.00921630859375 524.427978515625 362.3173522949219 524.104736328125 316.873046875 534.1268310546875 C 317.4548645019531 474.75347900390625 321.15264892578125 453.7261047363281 322.3045654296875 412.8392333984375 C 412.77117919921875 413.9165344238281 430.66082763671875 413.1319580078125 474.3395690917969 436.09075927734375 L 477.2532653808594 515.85546875" stroke-width="2.0" fill="rgb(0, 19, 50)" opacity="0.84379715"/>
    <path d="M 411.1666259765625 88.56014251708984 C 411.0238952636719 90.8614273071289 411.2142333984375 89.29825592041016 408.0997619628906 89.07327270507812 C 411.4137268066406 90.00267028808594 411.3423156738281 89.49361419677734 408.53729248046875 89.34729766845703 C 411.67449951171875 90.27426147460938 411.2506408691406 89.42880249023438 409.41937255859375 89.73221588134766 C 411.34600830078125 90.13809967041016 410.608642578125 89.83502197265625 411.74749755859375 89.6398696899414 L 411.1666259765625 88.56014251708984" stroke-width="2.0" fill="rgb(94, 255, 92)" opacity="0.21803139"/>
    <path d="M 20.986461639404297 198.2866973876953 C 20.40066909790039 197.9563446044922 18.667821884155273 198.57785034179688 20.25263214111328 198.17111206054688 C 21.659509658813477 198.1216278076172 20.967121124267578 198.4641571044922 20.408828735351562 200.80972290039062 C 20.893096923828125 198.79086303710938 21.903528213500977 197.9835205078125 20.053457260131836 198.15216064453125 C 21.14017677307129 198.0409698486328 20.98992156982422 198.31968688964844 21.173866271972656 198.58529663085938 L 20.986461639404297 198.2866973876953" stroke-width="2.0" fill="rgb(129, 126, 255)" opacity="0.08105239"/>
    <path d="M 405.54052734375 233.80104064941406 C 404.7177734375 253.77587890625 436.141357421875 262.9434509277344 462.66943359375 361.6549072265625 C 395.38421630859375 235.9447479248047 341.801025390625 196.6025848388672 273.6113586425781 360.2852783203125 C 316.8023986816406 244.19578552246094 360.1817932128906 207.31002807617188 359.58416748046875 203.41493225097656 C 401.2077331542969 236.9009552001953 403.2369689941406 243.99966430664062 416.0196228027344 251.9498748779297 L 405.54052734375 233.80104064941406" stroke-width="2.0" fill="rgb(0, 3, 13)" opacity="0.838804"/>
    <path d="M 415.11651611328125 150.6103515625 C 416.54144287109375 150.3204345703125 416.2476501464844 150.55734252929688 416.29425048828125 148.69337463378906 C 417.7474670410156 151.26939392089844 417.7553405761719 150.9941864013672 419.44732666015625 150.5724334716797 C 417.5806884765625 152.1341552734375 418.2035217285156 151.90695190429688 419.1551513671875 152.342529296875 C 416.12115478515625 151.5155487060547 416.09576416015625 152.58267211914062 416.2503967285156 154.1259307861328 L 415.11651611328125 150.6103515625" stroke-width="2.0" fill="rgb(52, 68, 131)" opacity="0.0"/>
    <path d="M 397.32293701171875 512.1073608398438 C 335.2032165527344 527.42333984375 349.4277038574219 498.5682678222656 353.7920837402344 526.1978149414062 C 191.8207244873047 528.7687377929688 210.2928924560547 527.8536376953125 209.19297790527344 508.6885986328125 C 265.71551513671875 297.7056579589844 233.5214385986328 382.8395080566406 276.33074951171875 349.0067443847656 C 231.57598876953125 490.7102966308594 289.36151123046875 310.6776428222656 350.557861328125 308.8731689453125 L 397.32293701171875 512.1073608398438" stroke-width="2.0" fill="rgb(57, 79, 124)" opacity="1.0"/>
    <path d="M 176.78440856933594 359.9276428222656 C 176.0117645263672 359.0713806152344 175.6103973388672 358.7334289550781 176.36122131347656 359.1982421875 C 178.0204315185547 360.56591796875 177.78224182128906 358.7811584472656 179.18673706054688 358.27886962890625 C 175.8972930908203 360.25213623046875 175.68179321289062 360.3486633300781 177.10507202148438 361.7005920410156 C 176.46182250976562 360.77227783203125 177.2107391357422 361.56982421875 176.85255432128906 362.10626220703125 L 176.78440856933594 359.9276428222656" stroke-width="2.0" fill="rgb(255, 73, 255)" opacity="0.0"/>
    <path d="M 80.96424865722656 430.1993103027344 C 81.1459732055664 431.23004150390625 80.40387725830078 432.0491943359375 79.45310974121094 431.8056640625 C 78.61422729492188 432.2519836425781 77.70111083984375 431.6282043457031 77.46015930175781 430.7122497558594 C 77.20640563964844 429.9012145996094 77.76103973388672 428.8920593261719 78.69115447998047 428.6500549316406 C 79.41431427001953 428.25927734375 80.39642333984375 428.7685852050781 80.7973403930664 429.7032470703125 L 80.96424865722656 430.1993103027344" stroke-width="2.0" fill="rgb(198, 216, 130)" opacity="0.0"/>
    <path d="M 299.23651123046875 60.642921447753906 C 276.7872619628906 55.773014068603516 268.0910949707031 62.71327209472656 284.272705078125 147.18057250976562 C 118.45893096923828 95.18600463867188 204.13648986816406 39.22559356689453 77.5088882446289 131.7918701171875 C 36.76066970825195 39.37440490722656 62.64785385131836 80.1280517578125 139.40542602539062 18.333219528198242 C 200.20562744140625 -30.643646240234375 245.8940887451172 52.297821044921875 218.7305145263672 -3.7938883304595947 L 299.23651123046875 60.642921447753906" stroke-width="2.0" fill="rgb(2, 7, 23)" opacity="0.7698953"/>
    <path d="M 477.3523864746094 359.834228515625 C 477.67364501953125 357.67596435546875 477.8140869140625 358.0718994140625 477.27728271484375 358.0057373046875 C 479.1622009277344 355.8324890136719 479.531494140625 356.74688720703125 479.3937072753906 356.1476135253906 C 476.6809997558594 358.29559326171875 477.9592590332031 356.8117980957031 477.824951171875 359.81475830078125 C 478.36553955078125 358.69561767578125 479.2192687988281 359.71087646484375 476.6372375488281 360.34979248046875 L 477.3523864746094 359.834228515625" stroke-width="2.0" fill="rgb(112, 255, 46)" opacity="0.0"/>
    <path d="M 37.40380096435547 215.87838745117188 C 37.35771942138672 217.0703125 37.3339729309082 216.4585723876953 37.85452651977539 217.0623321533203 C 38.03364944458008 217.19871520996094 36.80636978149414 216.54652404785156 40.04194641113281 219.4957733154297 C 36.525211334228516 216.29879760742188 37.72057342529297 216.54010009765625 38.261173248291016 217.85052490234375 C 37.54754638671875 216.31349182128906 36.99453353881836 217.50048828125 37.72074508666992 217.08370971679688 L 37.40380096435547 215.87838745117188" stroke-width="2.0" fill="rgb(101, 153, 241)" opacity="0.2686077"/>
    <path d="M 275.2247009277344 356.7972717285156 C 280.09637451171875 349.5722961425781 266.6117248535156 357.8239440917969 246.21165466308594 446.9721374511719 C 238.4917449951172 476.7189025878906 240.05612182617188 493.14013671875 220.25372314453125 473.940673828125 C 243.74806213378906 402.02587890625 255.62799072265625 402.86700439453125 238.5900115966797 339.8702087402344 C 304.6022033691406 317.7687683105469 132.25613403320312 250.98703002929688 295.46514892578125 305.7633361816406 L 275.2247009277344 356.7972717285156" stroke-width="2.0" fill="rgb(38, 105, 184)" opacity="0.52666056"/>
    <path d="M 88.59010314941406 297.1067199707031 C 88.83212280273438 298.1394958496094 89.19691467285156 299.3104553222656 89.0738754272461 297.6382751464844 C 89.98072814941406 300.34234619140625 88.8093032836914 298.910400390625 89.58944702148438 299.12457275390625 C 88.67074584960938 299.15753173828125 89.24607849121094 297.5765686035156 89.34730529785156 298.65380859375 C 88.97000122070312 297.28228759765625 89.11288452148438 298.7545471191406 90.0528564453125 301.1000061035156 L 88.59010314941406 297.1067199707031" stroke-width="2.0" fill="rgb(115, 255, 178)" opacity="0.1073798"/>
    <path d="M 481.778076171875 424.043212890625 C 421.7270812988281 320.4280700683594 448.1708068847656 213.33328247070312 392.2069396972656 280.685546875 C 408.1849060058594 263.15277099609375 394.4448547363281 266.97454833984375 435.1483459472656 306.927490234375 C 434.2770690917969 318.0981140136719 426.2055358886719 290.4739074707031 381.69281005859375 261.1754455566406 C 349.96246337890625 240.84765625 317.66241455078125 231.94927978515625 437.01214599609375 278.2591552734375 L 481.778076171875 424.043212890625" stroke-width="2.0" fill="rgb(16, 27, 42)" opacity="0.92545086"/>
    <path d="M 430.0749206542969 35.93928909301758 C 429.79864501953125 34.70204544067383 430.08544921875 35.70127868652344 430.03668212890625 36.05352783203125 C 430.00506591796875 35.79203414916992 429.98583984375 35.983619689941406 430.1734313964844 36.519901275634766 C 430.1203918457031 36.5889892578125 429.8993225097656 34.912174224853516 430.3296813964844 37.81087112426758 C 429.18218994140625 32.74690246582031 429.824462890625 34.62929916381836 430.2035827636719 36.49856185913086 L 430.0749206542969 35.93928909301758" stroke-width="2.0" fill="rgb(134, 47, 232)" opacity="0.12532037"/>
    <path d="M 388.3729248046875 75.51112365722656 C 386.6393127441406 74.70561218261719 386.66925048828125 74.53193664550781 387.6352233886719 73.9411849975586 C 389.08282470703125 75.72704315185547 388.7386474609375 74.25508117675781 389.7291564941406 74.38343048095703 C 387.2538757324219 76.6288833618164 388.67889404296875 76.3808822631836 390.06146240234375 77.92928314208984 C 387.6942138671875 76.68106079101562 388.6651916503906 77.8514404296875 386.2335510253906 77.83094024658203 L 388.3729248046875 75.51112365722656" stroke-width="2.0" fill="rgb(81, 137, 218)" opacity="0.0"/>
    <path d="M 456.7173156738281 -52.11943435668945 C 232.42041015625 -98.1565170288086 246.12777709960938 61.61212158203125 363.18267822265625 194.13487243652344 C 459.0115051269531 -51.34819412231445 436.4867248535156 -42.94054412841797 511.29559326171875 -20.93565559387207 C 536.5613403320312 610.363525390625 493.30413818359375 693.0315551757812 468.13836669921875 379.38983154296875 C 433.2159729003906 235.42803955078125 370.4931945800781 228.02101135253906 363.23895263671875 194.57943725585938 L 456.7173156738281 -52.11943435668945" stroke-width="2.0" fill="rgb(255, 255, 255)" opacity="0.99582314"/>
    <path d="M 216.0769500732422 350.5718688964844 C 215.16709899902344 349.609619140625 214.66156005859375 349.48748779296875 214.818359375 350.2971496582031 C 216.26535034179688 352.046142578125 215.62911987304688 349.4836730957031 217.27159118652344 349.96734619140625 C 214.52468872070312 351.33258056640625 216.67811584472656 351.12213134765625 217.97470092773438 353.4034118652344 C 215.9891357421875 351.0480041503906 217.3661346435547 351.01190185546875 217.156005859375 351.84307861328125 L 216.0769500732422 350.5718688964844" stroke-width="2.0" fill="rgb(255, 255, 55)" opacity="0.0"/>
    <path d="M 235.4094696044922 382.7890930175781 C 212.40504455566406 433.2620544433594 205.08326721191406 445.2039794921875 183.96441650390625 530.1749267578125 C 163.52316284179688 550.97607421875 185.15000915527344 496.416015625 204.95655822753906 442.29864501953125 C 215.95504760742188 426.2789001464844 209.96737670898438 403.6468505859375 294.1399841308594 203.11715698242188 C 256.73016357421875 289.5267333984375 247.87445068359375 379.88897705078125 232.29466247558594 384.4339294433594 L 235.4094696044922 382.7890930175781" stroke-width="2.0" fill="rgb(4, 5, 8)" opacity="0.97821444"/>
    <path d="M 359.3983459472656 350.7510986328125 C 364.394775390625 338.2592468261719 419.99151611328125 375.9737854003906 311.5879211425781 434.3956604003906 C 285.2352294921875 429.4875793457031 261.3791198730469 364.123779296875 336.7732238769531 307.3240661621094 C 334.3981018066406 314.4009704589844 324.5930480957031 174.66806030273438 339.81756591796875 309.2550964355469 C 348.0235595703125 301.2579650878906 366.48846435546875 320.05218505859375 356.0369873046875 328.6109619140625 L 359.3983459472656 350.7510986328125" stroke-width="2.0" fill="rgb(56, 92, 138)" opacity="1.0"/>
    <path d="M 125.9261474609375 175.1070098876953 C 107.25431823730469 183.7462921142578 86.00459289550781 161.17820739746094 76.22481536865234 144.0980682373047 C 70.232177734375 147.82662963867188 75.26156616210938 202.31602478027344 69.40171813964844 151.15203857421875 C 96.33500671386719 43.18632507324219 38.46775817871094 236.07363891601562 46.85509490966797 63.0562858581543 C 165.15374755859375 69.80546569824219 142.3892364501953 -18.9129695892334 103.50198364257812 166.56842041015625 L 125.9261474609375 175.1070098876953" stroke-width="2.0" fill="rgb(15, 19, 26)" opacity="0.8539838"/>
    <path d="M 240.01515197753906 239.80555725097656 C 320.3268127441406 165.05860900878906 373.2922668457031 71.9283447265625 195.6260986328125 408.479248046875 C 245.39453125 242.4407958984375 260.07208251953125 201.04290771484375 200.4455108642578 256.303955078125 C 232.58847045898438 221.48611450195312 242.13446044921875 194.88943481445312 252.54507446289062 194.33180236816406 C 237.6768035888672 197.79847717285156 249.0745391845703 204.94236755371094 245.51625061035156 196.50331115722656 L 240.01515197753906 239.80555725097656" stroke-width="2.0" fill="rgb(17, 0, 0)" opacity="0.7585325"/>
    <path d="M 132.45291137695312 179.33029174804688 C -6.9844441413879395 225.73365783691406 -3.0369298458099365 -6.0146379470825195 -8.792096138000488 393.69073486328125 C 194.361328125 133.10501098632812 131.43222045898438 215.08026123046875 246.8233184814453 309.6734313964844 C 199.64573669433594 479.969482421875 180.2220458984375 569.4976196289062 140.5052947998047 213.9311981201172 C -123.97332000732422 502.98626708984375 -107.04999542236328 582.873046875 183.09591674804688 505.0188903808594 L 132.45291137695312 179.33029174804688" stroke-width="2.0" fill="rgb(255, 255, 255)" opacity="0.9973968"/>
    <path d="M 452.0669250488281 402.63555908203125 C 465.8473815917969 355.4587097167969 466.8056945800781 350.7354431152344 474.7092590332031 443.8957824707031 C 338.7590637207031 408.4581298828125 511.0322265625 489.3335266113281 370.6696472167969 569.070556640625 C 369.02587890625 289.8437805175781 337.7747802734375 303.3160095214844 358.9454650878906 313.2966003417969 C 396.0022888183594 339.1549377441406 423.2253723144531 371.93896484375 420.5457763671875 368.4593505859375 L 452.0669250488281 402.63555908203125" stroke-width="2.0" fill="rgb(55, 82, 125)" opacity="1.0"/>
    <path d="M 64.93022918701172 -8.893291473388672 C -30.144737243652344 -8.364375114440918 -21.332178115844727 4.100071907043457 -21.035947799682617 151.18817138671875 C 68.51789093017578 114.12721252441406 72.7323226928711 104.1010971069336 27.134958267211914 67.47537231445312 C -83.59978485107422 278.4717712402344 -7.611088752746582 288.5150451660156 67.03717041015625 116.02205657958984 C 36.08810806274414 79.80823516845703 93.19439697265625 114.60073852539062 -11.049251556396484 144.6581573486328 L 64.93022918701172 -8.893291473388672" stroke-width="2.0" fill="rgb(255, 255, 255)" opacity="0.9981383"/>
    <path d="M 510.4891357421875 153.37152099609375 C 509.23486328125 152.4796142578125 508.634765625 151.8382110595703 509.4280700683594 151.83204650878906 C 511.1783447265625 153.2558135986328 510.65313720703125 151.7377166748047 511.87774658203125 151.37400817871094 C 508.886962890625 153.30453491210938 509.431396484375 152.90684509277344 510.2245788574219 154.31739807128906 C 509.2705383300781 153.3006134033203 509.8067321777344 154.3772735595703 509.1333923339844 154.85586547851562 L 510.4891357421875 153.37152099609375" stroke-width="2.0" fill="rgb(223, 122, 255)" opacity="0.0"/>
    <path d="M 100.09784698486328 417.21978759765625 C 99.39241027832031 417.3793029785156 98.82430267333984 416.1940002441406 99.03753662109375 416.51300048828125 C 99.9463119506836 417.1436767578125 99.97347259521484 416.0939025878906 100.88021850585938 417.2701721191406 C 99.48665618896484 416.7373352050781 100.42568969726562 415.1369934082031 100.45594024658203 418.03668212890625 C 100.2659912109375 416.0188293457031 99.71501159667969 417.1554870605469 99.77215576171875 416.5701904296875 L 100.09784698486328 417.21978759765625" stroke-width="2.0" fill="rgb(108, 179, 198)" opacity="0.0"/>
  </g>
</svg>
