<?xml version="1.0" ?>
<svg xmlns="http://www.w3.org/2000/svg" version="1.1" width="512" height="352">
  <defs/>
  <g>
    <path d="M 134.06390380859375 233.772705078125 C 138.4252166748047 238.10821533203125 142.28582763671875 242.66363525390625 110.10594940185547 242.65443420410156 C 82.68727111816406 230.1964111328125 76.66300201416016 231.71334838867188 55.941856384277344 221.889892578125 C 51.317291259765625 189.72760009765625 62.51833724975586 183.89382934570312 95.78355407714844 176.9866943359375 C 140.76312255859375 176.44906616210938 133.39276123046875 178.86566162109375 134.06390380859375 233.772705078125" stroke-width="0.0" fill="rgb(213, 176, 142)" opacity="0.4832052" stroke="rgb(33, 132, 159)" stroke-opacity="0.5576314" stroke-linecap="round" stroke-linejoin="round"/>
    <path d="M 200.0 205.0 C 199.3301239013672 207.5 197.5 209.3301239013672 195.0 210.0 C 192.5 209.3301239013672 190.6698760986328 207.5 190.0 205.0 C 190.6698760986328 202.5 192.5 200.6698760986328 195.0 200.0 C 197.5 200.6698760986328 199.3301239013672 202.5 200.0 205.0" stroke-width="0.0" fill="rgb(101, 132, 110)" opacity="1.0" stroke="rgb(170, 243, 175)" stroke-opacity="0.27084035" stroke-linecap="round" stroke-linejoin="round"/>
    <path d="M 222.0 195.0 C 221.3301239013672 197.5 219.5 199.3301239013672 217.0 200.0 C 214.5 199.3301239013672 212.6698760986328 197.5 212.0 195.0 C 212.6698760986328 192.5 214.5 190.6698760986328 217.0 190.0 C 219.5 190.6698760986328 221.3301239013672 192.5 222.0 195.0" stroke-width="0.0" fill="rgb(101, 132, 110)" opacity="1.0" stroke="rgb(138, 105, 217)" stroke-opacity="0.21634126" stroke-linecap="round" stroke-linejoin="round"/>
  </g>
</svg>
