<?xml version="1.0" ?>
<svg xmlns="http://www.w3.org/2000/svg" version="1.1" width="512" height="359">
  <defs/>
  <g>
    <path d="M -10.0 -10.0 C -9.0 -10.0 512.0 0.0 513.0 0.0 C 514.0 0.0 512.0 359.0 513.0 359.0 C 513.0 360.0 0.0 359.0 0.0 360.0 C 0.0 359.0 0.0 360.0 -10.0 -10.0 L -10.0 -10.0" stroke-width="2.0" fill="rgb(214, 227, 220)" opacity="0.58816004"/>
    <path d="M 496.3190002441406 155.06365966796875 C 496.83953857421875 156.4210662841797 496.2796630859375 154.85769653320312 496.471923828125 155.7763671875 C 496.51171875 156.1219940185547 497.0113830566406 156.39210510253906 497.28936767578125 156.7937469482422 C 496.0535583496094 155.7120361328125 496.92718505859375 156.76405334472656 498.7743225097656 157.2484893798828 C 496.2532958984375 156.6576385498047 496.490966796875 155.2362823486328 496.7561950683594 156.2227783203125 L 496.3190002441406 155.06365966796875" stroke-width="2.0" fill="rgb(58, 255, 255)" opacity="0.09769386"/>
    <path d="M 343.8645324707031 29.973676681518555 C 343.7322692871094 30.0301570892334 343.9918212890625 29.801424026489258 343.5815124511719 30.093963623046875 C 342.5609436035156 32.01311111450195 341.0895080566406 31.68260383605957 341.966552734375 32.14240264892578 C 341.00927734375 31.829580307006836 343.012451171875 31.45431900024414 341.0472412109375 32.128108978271484 C 343.8691711425781 31.219867706298828 343.2503967285156 29.27005386352539 344.097900390625 30.159664154052734 L 343.8645324707031 29.973676681518555" stroke-width="2.0" fill="rgb(255, 129, 76)" opacity="0.11592085"/>
    <path d="M 184.0662078857422 234.8212127685547 C 168.5908966064453 243.12062072753906 293.46624755859375 220.97286987304688 266.8157653808594 313.63458251953125 C 140.7376251220703 314.5674743652344 137.51918029785156 300.6618957519531 127.54119873046875 269.2249755859375 C 152.52159118652344 221.2794189453125 159.9707489013672 205.09263610839844 164.79347229003906 190.9418487548828 C 164.9454345703125 197.8257293701172 166.3447265625 198.3357696533203 182.61746215820312 235.613037109375 L 184.0662078857422 234.8212127685547" stroke-width="2.0" fill="rgb(0, 89, 43)" opacity="0.85151684"/>
    <path d="M 8.247105598449707 174.16827392578125 C 7.859011173248291 173.94264221191406 7.864894866943359 173.76254272460938 8.851547241210938 174.72483825683594 C 9.053277969360352 175.01400756835938 9.034128189086914 174.9712371826172 8.555554389953613 174.45790100097656 C 9.513579368591309 175.51287841796875 8.519344329833984 174.3166961669922 8.930100440979004 174.86170959472656 C 7.696140289306641 173.5943145751953 7.90468692779541 173.86732482910156 10.051258087158203 175.9506378173828 L 8.247105598449707 174.16827392578125" stroke-width="2.0" fill="rgb(255, 61, 204)" opacity="0.03391095"/>
    <path d="M 307.0048522949219 31.122032165527344 C 307.56121826171875 31.145729064941406 308.002197265625 31.33224105834961 306.2276611328125 30.97812271118164 C 307.0436096191406 31.106338500976562 307.6368408203125 31.249942779541016 305.23541259765625 30.761341094970703 C 306.76739501953125 31.06972312927246 306.9524841308594 31.133684158325195 307.6474914550781 31.215660095214844 C 307.3679504394531 31.19733238220215 308.1563720703125 31.340953826904297 308.5516052246094 31.34331512451172 L 307.0048522949219 31.122032165527344" stroke-width="2.0" fill="rgb(221, 123, 211)" opacity="0.13723148"/>
    <path d="M 320.492431640625 151.71575927734375 C 124.92997741699219 187.32363891601562 519.1835327148438 142.3536834716797 550.9000854492188 198.10012817382812 C 115.88023376464844 194.8905029296875 166.4283905029297 214.46437072753906 206.84523010253906 125.7064437866211 C 227.64300537109375 100.46533203125 96.5853271484375 180.8214111328125 72.39019775390625 53.64625549316406 C 447.3237609863281 -27.466508865356445 154.8925018310547 61.79454040527344 320.078369140625 87.47742462158203 L 320.492431640625 151.71575927734375" stroke-width="2.0" fill="rgb(0, 90, 44)" opacity="0.8226851"/>
    <path d="M 11.197023391723633 183.72547912597656 C 11.441350936889648 184.7255401611328 10.095589637756348 181.89352416992188 11.324577331542969 183.35183715820312 C 12.201081275939941 183.42678833007812 10.236563682556152 179.61036682128906 11.380297660827637 183.57528686523438 C 10.318929672241211 184.71957397460938 12.774571418762207 180.93128967285156 10.483834266662598 183.10508728027344 C 8.581974983215332 180.9279022216797 11.737872123718262 181.94264221191406 10.07142162322998 181.16775512695312 L 11.197023391723633 183.72547912597656" stroke-width="2.0" fill="rgb(43, 79, 169)" opacity="0.0"/>
    <path d="M 25.611286163330078 210.97076416015625 C 27.27180290222168 210.1151885986328 26.144166946411133 210.59466552734375 27.392475128173828 210.6739501953125 C 28.767894744873047 210.605712890625 27.19405174255371 210.88694763183594 26.675386428833008 210.4990997314453 C 26.720352172851562 210.4286346435547 26.705486297607422 210.2042694091797 23.053800582885742 212.50064086914062 C 25.70304298400879 210.96678161621094 26.515289306640625 210.40127563476562 23.430328369140625 212.21725463867188 L 25.611286163330078 210.97076416015625" stroke-width="2.0" fill="rgb(131, 237, 120)" opacity="0.12693126"/>
    <path d="M 395.48468017578125 344.857421875 C 395.11358642578125 344.489013671875 394.2674560546875 343.07415771484375 396.4342346191406 344.0335388183594 C 394.6412658691406 343.2418212890625 393.589599609375 343.842041015625 395.0140686035156 343.85870361328125 C 393.61322021484375 342.6331787109375 394.4986877441406 342.7895202636719 395.89459228515625 344.3638610839844 C 395.10174560546875 342.9072570800781 395.9461669921875 343.752685546875 395.57763671875 343.86962890625 L 395.48468017578125 344.857421875" stroke-width="2.0" fill="rgb(65, 108, 38)" opacity="0.0"/>
    <path d="M 425.70654296875 75.30728912353516 C 418.8907470703125 69.06412506103516 420.6996154785156 76.41278839111328 427.3836669921875 105.30391693115234 C 417.9861755371094 104.5265884399414 410.6228332519531 99.8213119506836 411.05084228515625 62.1652717590332 C 198.81729125976562 60.27458572387695 235.5022430419922 69.09212493896484 250.09971618652344 48.176788330078125 C 444.7390441894531 49.395912170410156 403.575439453125 45.507713317871094 421.5975341796875 54.063480377197266 L 425.70654296875 75.30728912353516" stroke-width="2.0" fill="rgb(30, 107, 67)" opacity="1.0"/>
    <path d="M 21.28014373779297 137.8115997314453 C 21.27498435974121 137.81842041015625 21.31439208984375 137.64402770996094 21.335111618041992 137.763427734375 C 21.54765510559082 137.26577758789062 21.155820846557617 138.0591583251953 21.602153778076172 137.22267150878906 C 21.035356521606445 138.2430877685547 21.039749145507812 138.3218994140625 21.194860458374023 138.0890655517578 C 21.31882095336914 137.6884002685547 21.55413055419922 137.1625518798828 21.106353759765625 138.22352600097656 L 21.28014373779297 137.8115997314453" stroke-width="2.0" fill="rgb(131, 127, 255)" opacity="0.088844314"/>
    <path d="M 413.5511169433594 298.7408447265625 C 415.37255859375 177.90171813964844 419.9263000488281 215.0562744140625 421.842529296875 196.60064697265625 C 444.470458984375 254.92678833007812 353.6064147949219 315.1623229980469 388.2175598144531 464.679443359375 C 712.8056640625 287.6886291503906 534.6607055664062 -247.28024291992188 407.6419982910156 67.5585708618164 C 379.0883483886719 32.80535888671875 391.1861877441406 169.36749267578125 387.851806640625 301.3954772949219 L 413.5511169433594 298.7408447265625" stroke-width="2.0" fill="rgb(254, 254, 254)" opacity="0.99957716"/>
    <path d="M 424.2554626464844 192.02426147460938 C 423.9466247558594 89.66374206542969 424.2084655761719 99.4521713256836 424.1271057128906 308.8902587890625 C 299.27685546875 300.3207092285156 319.51324462890625 302.0198669433594 410.1831970214844 301.72900390625 C 410.2153625488281 83.19181823730469 410.21173095703125 57.91404342651367 410.1268310546875 61.01001739501953 C 408.7745361328125 51.82833480834961 415.57147216796875 42.332332611083984 424.2179260253906 60.61572265625 L 424.2554626464844 192.02426147460938" stroke-width="2.0" fill="rgb(10, 90, 50)" opacity="0.9248366"/>
    <path d="M 271.9847717285156 301.6183776855469 C 440.06390380859375 300.6173095703125 502.18212890625 320.63275146484375 272.4648132324219 314.5719299316406 C 268.1947326660156 374.708251953125 292.3841247558594 337.7377624511719 188.3490753173828 333.4483642578125 C 207.86183166503906 200.43795776367188 235.3713836669922 291.6160583496094 177.8652801513672 175.82687377929688 C 295.3042907714844 167.299560546875 379.0517883300781 305.3144226074219 272.37066650390625 277.7959899902344 L 271.9847717285156 301.6183776855469" stroke-width="2.0" fill="rgb(34, 112, 72)" opacity="0.95209014"/>
    <path d="M 309.0496520996094 272.8021545410156 C 301.3930969238281 120.74751281738281 248.16677856445312 344.0936279296875 158.72132873535156 327.7249450683594 C 134.27305603027344 322.8416748046875 132.73585510253906 314.572021484375 116.50849914550781 300.654052734375 C 99.51519775390625 233.5786590576172 95.5181655883789 229.45323181152344 144.0449676513672 234.07186889648438 C 167.43817138671875 422.41436767578125 211.97442626953125 304.54083251953125 338.7225341796875 158.42367553710938 L 309.0496520996094 272.8021545410156" stroke-width="2.0" fill="rgb(125, 169, 146)" opacity="1.0"/>
    <path d="M 273.1424560546875 349.1228332519531 C 106.25568389892578 317.5633239746094 96.71400451660156 316.1280212402344 91.7154769897461 314.74658203125 C 68.60269927978516 311.3952331542969 73.5584945678711 310.1888427734375 72.76533508300781 313.13897705078125 C 72.91227722167969 320.470703125 72.63640594482422 280.9316711425781 72.8521728515625 48.95836639404297 C 178.082275390625 209.9374237060547 148.7207489013672 165.85476684570312 124.22245025634766 230.21270751953125 L 273.1424560546875 349.1228332519531" stroke-width="2.0" fill="rgb(33, 112, 71)" opacity="1.0"/>
    <path d="M 201.30313110351562 16.320117950439453 C 202.1278076171875 16.656583786010742 201.82745361328125 17.265634536743164 201.81407165527344 15.993772506713867 C 202.74224853515625 17.455467224121094 202.37522888183594 16.88922882080078 203.43495178222656 16.35558319091797 C 202.0434112548828 17.602073669433594 202.52931213378906 17.071979522705078 203.2832794189453 17.99241065979004 C 201.71092224121094 16.580181121826172 201.97731018066406 17.34639549255371 201.4080047607422 18.33959197998047 L 201.30313110351562 16.320117950439453" stroke-width="2.0" fill="rgb(93, 30, 148)" opacity="0.0"/>
  </g>
</svg>
