<?xml version="1.0" ?>
<svg xmlns="http://www.w3.org/2000/svg" version="1.1" width="512" height="512">
  <defs/>
  <g>
    <path d="M 444.666259765625 393.7882080078125 C 457.9391784667969 425.4790344238281 469.611083984375 278.20123291015625 477.3172912597656 515.009033203125 C 308.5765686035156 518.4190673828125 309.42840576171875 518.749267578125 208.70677185058594 511.8421325683594 C 258.99334716796875 308.5325012207031 232.4838409423828 448.328857421875 308.005615234375 333.287841796875 C 345.2532043457031 289.6110534667969 354.48040771484375 299.59442138671875 444.666259765625 393.7882080078125" stroke-width="0.0" fill="rgb(0, 39, 100)" opacity="0.73792636" stroke="rgb(93, 215, 158)" stroke-opacity="0.072959244" stroke-linecap="round" stroke-linejoin="round"/>
    <path d="M 120.72261810302734 289.01287841796875 C 122.79414367675781 316.15521240234375 127.4822769165039 338.1673889160156 90.00556182861328 354.86993408203125 C 56.61528396606445 351.4235534667969 62.036354064941406 352.9603576660156 59.34114074707031 345.93701171875 C 32.6907958984375 287.0008850097656 28.100717544555664 263.7049255371094 109.7955322265625 266.29815673828125 C 122.57369232177734 286.70904541015625 110.59333801269531 291.25701904296875 120.72261810302734 289.01287841796875" stroke-width="0.0" fill="rgb(255, 255, 255)" opacity="0.9999393" stroke="rgb(198, 253, 74)" stroke-opacity="0.16365163" stroke-linecap="round" stroke-linejoin="round"/>
    <path d="M 445.1785888671875 158.14096069335938 C 448.9612731933594 171.9180450439453 439.5107727050781 184.78564453125 437.1217956542969 180.99473571777344 C 384.44744873046875 181.00881958007812 387.3746032714844 180.99574279785156 387.9990539550781 180.9769287109375 C 388.01446533203125 123.83281707763672 387.9485168457031 136.76531982421875 388.1788024902344 134.9117431640625 C 457.62567138671875 136.144287109375 442.8224792480469 129.16061401367188 445.1785888671875 158.14096069335938" stroke-width="0.0" fill="rgb(255, 255, 255)" opacity="0.9162209" stroke="rgb(41, 104, 239)" stroke-opacity="0.9976777" stroke-linecap="round" stroke-linejoin="round"/>
    <path d="M 135.9676971435547 182.9389190673828 C 120.30735778808594 153.5011749267578 61.492942810058594 102.28408813476562 113.17436981201172 177.61453247070312 C 61.553504943847656 153.87022399902344 80.69184875488281 118.49276733398438 36.142494201660156 73.65190887451172 C 67.0619125366211 101.56007385253906 51.0325813293457 75.30540466308594 138.04644775390625 74.0345687866211 C 138.29800415039062 74.4718017578125 84.74991607666016 105.83644104003906 135.9676971435547 182.9389190673828" stroke-width="0.0" fill="rgb(17, 17, 19)" opacity="0.953405" stroke="rgb(141, 146, 155)" stroke-opacity="0.7741763" stroke-linecap="round" stroke-linejoin="round"/>
    <path d="M 276.6165466308594 146.55198669433594 C 140.89292907714844 100.88541412353516 202.9931640625 47.80828094482422 119.09712982177734 100.35739135742188 C 75.77326202392578 99.44871520996094 22.81755828857422 75.07119750976562 42.34642028808594 35.612762451171875 C 38.290401458740234 93.21578979492188 79.53070068359375 48.67103576660156 139.98483276367188 26.354732513427734 C 158.35403442382812 -29.225862503051758 297.4700012207031 11.996600151062012 276.6165466308594 146.55198669433594" stroke-width="0.0" fill="rgb(0, 10, 29)" opacity="0.8094233" stroke="rgb(128, 55, 5)" stroke-opacity="0.93192965" stroke-linecap="round" stroke-linejoin="round"/>
    <path d="M 311.61907958984375 187.95738220214844 C 236.56121826171875 299.9345703125 283.2533874511719 343.24835205078125 228.5431671142578 293.37982177734375 C 211.95335388183594 282.3858642578125 261.86370849609375 259.19219970703125 236.3767547607422 248.12615966796875 C 247.02374267578125 234.0787353515625 268.2415771484375 207.60533142089844 313.38751220703125 168.06137084960938 C 315.7474365234375 165.29940795898438 333.38092041015625 182.5908660888672 311.61907958984375 187.95738220214844" stroke-width="0.0" fill="rgb(10, 13, 20)" opacity="0.9506671" stroke="rgb(18, 223, 21)" stroke-opacity="0.72515106" stroke-linecap="round" stroke-linejoin="round"/>
    <path d="M 426.3873596191406 300.8990783691406 C 311.3531799316406 171.4336395263672 320.7780456542969 340.48394775390625 224.14035034179688 389.2115173339844 C 251.65582275390625 291.7094421386719 263.7522888183594 300.39434814453125 258.4744873046875 306.51385498046875 C 280.67034912109375 423.7970886230469 267.21331787109375 309.5140686035156 359.5362854003906 204.12954711914062 C 443.4241943359375 261.93487548828125 470.3698425292969 370.5176086425781 426.3873596191406 300.8990783691406" stroke-width="0.0" fill="rgb(3, 7, 15)" opacity="0.91919494" stroke="rgb(5, 147, 4)" stroke-opacity="0.9604074" stroke-linecap="round" stroke-linejoin="round"/>
    <path d="M 321.2135009765625 257.949462890625 C 304.0790710449219 286.82989501953125 305.677734375 295.10540771484375 283.9886169433594 301.3720703125 C 259.46624755859375 302.8170166015625 258.7801208496094 307.4752502441406 270.09356689453125 270.9113464355469 C 277.6247863769531 251.9780731201172 281.2682189941406 237.79037475585938 295.8579406738281 212.4998779296875 C 359.4079284667969 226.80979919433594 341.3122863769531 220.56983947753906 321.2135009765625 257.949462890625" stroke-width="0.0" fill="rgb(123, 170, 231)" opacity="0.948881" stroke="rgb(208, 164, 83)" stroke-opacity="0.6117233" stroke-linecap="round" stroke-linejoin="round"/>
    <path d="M 300.499267578125 298.2110290527344 C 294.95068359375 310.0730895996094 292.03594970703125 315.5941162109375 274.76824951171875 351.7030029296875 C 219.199951171875 378.62310791015625 247.31866455078125 383.3824462890625 250.64706420898438 339.2539978027344 C 267.7370300292969 281.1067810058594 264.7346496582031 272.00091552734375 284.18865966796875 268.204345703125 C 324.0303955078125 263.14947509765625 312.4402770996094 271.62152099609375 300.499267578125 298.2110290527344" stroke-width="0.0" fill="rgb(120, 169, 229)" opacity="1.0" stroke="rgb(53, 67, 189)" stroke-opacity="0.4574967" stroke-linecap="round" stroke-linejoin="round"/>
    <path d="M 366.40264892578125 201.8319091796875 C 353.9556884765625 204.3028564453125 352.6720275878906 218.12301635742188 323.93548583984375 248.48910522460938 C 290.0039978027344 249.53704833984375 284.0054626464844 245.80470275878906 296.5146179199219 210.8253173828125 C 316.24603271484375 178.583740234375 335.4034423828125 159.26585388183594 337.0361022949219 162.44419860839844 C 349.5186767578125 177.4087371826172 357.754150390625 188.6142578125 366.40264892578125 201.8319091796875" stroke-width="0.0" fill="rgb(122, 167, 224)" opacity="1.0" stroke="rgb(70, 182, 114)" stroke-opacity="0.038471144" stroke-linecap="round" stroke-linejoin="round"/>
    <path d="M 440.86871337890625 466.49786376953125 C 447.6525573730469 502.9952697753906 454.4322509765625 513.446533203125 438.88812255859375 508.27386474609375 C 430.380859375 513.1422119140625 435.8087158203125 512.2236938476562 423.2156066894531 455.389404296875 C 405.3583679199219 369.0859069824219 379.4670104980469 343.3357849121094 412.48138427734375 370.1490783691406 C 434.6561279296875 431.55780029296875 437.47674560546875 455.5530700683594 440.86871337890625 466.49786376953125" stroke-width="0.0" fill="rgb(6, 7, 13)" opacity="0.947343" stroke="rgb(218, 202, 211)" stroke-opacity="0.8990259" stroke-linecap="round" stroke-linejoin="round"/>
    <path d="M 458.5378723144531 493.01568603515625 C 457.5933837890625 510.86968994140625 459.0351257324219 518.9082641601562 456.6256103515625 527.0991821289062 C 425.2485656738281 526.2899780273438 427.0573425292969 486.37506103515625 448.26287841796875 501.7872619628906 C 445.6935729980469 500.0146789550781 452.43701171875 459.9102783203125 455.4578857421875 410.935791015625 C 457.56695556640625 424.8763122558594 458.5175476074219 464.62310791015625 458.5378723144531 493.01568603515625" stroke-width="0.0" fill="rgb(9, 11, 17)" opacity="1.0" stroke="rgb(142, 173, 108)" stroke-opacity="0.9642791" stroke-linecap="round" stroke-linejoin="round"/>
    <path d="M 240.48460388183594 241.83670043945312 C 239.19642639160156 235.93331909179688 249.5220947265625 250.11544799804688 227.22909545898438 232.881103515625 C 197.61207580566406 262.96417236328125 196.98150634765625 250.43411254882812 206.99685668945312 248.89535522460938 C 230.64723205566406 221.6442108154297 234.3302001953125 208.8719482421875 250.20465087890625 192.4736328125 C 247.52830505371094 193.34634399414062 243.20713806152344 201.0369415283203 240.48460388183594 241.83670043945312" stroke-width="0.0" fill="rgb(115, 28, 0)" opacity="0.82752156" stroke="rgb(237, 75, 230)" stroke-opacity="0.9956738" stroke-linecap="round" stroke-linejoin="round"/>
    <path d="M 197.775390625 481.53155517578125 C 203.4680938720703 457.9264221191406 199.25498962402344 471.0809631347656 185.7550506591797 522.60400390625 C 171.6404266357422 529.2110595703125 182.18760681152344 505.9927062988281 194.92083740234375 469.7826232910156 C 195.95408630371094 460.2650146484375 201.63587951660156 460.4333190917969 228.85336303710938 379.3404541015625 C 249.07940673828125 370.8978271484375 209.82907104492188 421.91400146484375 197.775390625 481.53155517578125" stroke-width="0.0" fill="rgb(5, 5, 8)" opacity="0.97687066" stroke="rgb(193, 193, 23)" stroke-opacity="0.030997703" stroke-linecap="round" stroke-linejoin="round"/>
    <path d="M 270.4129943847656 363.1952209472656 C 263.6235656738281 408.9139099121094 259.7455139160156 360.9638671875 229.92539978027344 429.4140625 C 244.7406768798828 371.32769775390625 247.43252563476562 369.9400329589844 231.43385314941406 388.8009948730469 C 243.14466857910156 370.47296142578125 243.7313690185547 358.27783203125 276.6548156738281 352.8248596191406 C 297.01910400390625 300.85272216796875 303.3383483886719 303.420166015625 270.4129943847656 363.1952209472656" stroke-width="0.0" fill="rgb(55, 87, 132)" opacity="1.0" stroke="rgb(34, 22, 69)" stroke-opacity="0.62834334" stroke-linecap="round" stroke-linejoin="round"/>
    <path d="M 215.7198028564453 31.21929931640625 C 190.68592834472656 40.4056396484375 196.26470947265625 41.758419036865234 178.44810485839844 51.768638610839844 C 176.5461883544922 54.1128044128418 173.9585723876953 50.845909118652344 165.30996704101562 31.396509170532227 C 161.93199157714844 28.055654525756836 180.2948760986328 29.176401138305664 189.22557067871094 37.231449127197266 C 216.69419860839844 19.49729347229004 207.40512084960938 15.41915512084961 215.7198028564453 31.21929931640625" stroke-width="0.0" fill="rgb(8, 10, 18)" opacity="0.97128034" stroke="rgb(10, 178, 131)" stroke-opacity="0.38561356" stroke-linecap="round" stroke-linejoin="round"/>
    <path d="M 264.6220703125 141.060302734375 C 273.13983154296875 172.95394897460938 247.49334716796875 165.94671630859375 249.60340881347656 116.1052017211914 C 236.4075164794922 100.62054443359375 232.15560913085938 119.58211517333984 232.50904846191406 102.04554748535156 C 232.42501831054688 92.23857116699219 236.55442810058594 92.27625274658203 257.7003173828125 88.64376068115234 C 262.5384826660156 90.3411865234375 271.6802978515625 93.09709167480469 264.6220703125 141.060302734375" stroke-width="0.0" fill="rgb(235, 199, 187)" opacity="1.0" stroke="rgb(64, 202, 65)" stroke-opacity="0.70534074" stroke-linecap="round" stroke-linejoin="round"/>
    <path d="M 458.1230163574219 345.1110534667969 C 466.30047607421875 378.4465637207031 473.1217346191406 381.0171203613281 459.6451721191406 381.51409912109375 C 451.969482421875 347.4949645996094 446.8185119628906 339.858154296875 446.1001281738281 333.45806884765625 C 445.0444641113281 325.5869445800781 425.9902038574219 310.41229248046875 440.2879638671875 302.42242431640625 C 446.434326171875 309.4627685546875 452.0526428222656 326.91058349609375 458.1230163574219 345.1110534667969" stroke-width="0.0" fill="rgb(20, 34, 53)" opacity="0.94959664" stroke="rgb(229, 214, 75)" stroke-opacity="0.0005347838" stroke-linecap="round" stroke-linejoin="round"/>
    <path d="M 261.40283203125 139.50897216796875 C 292.6835632324219 164.70123291015625 330.1200866699219 230.93154907226562 138.53575134277344 230.99623107910156 C 110.9034652709961 55.2219123840332 171.97592163085938 81.43560791015625 248.532958984375 137.1777801513672 C 258.96942138671875 123.118896484375 243.23902893066406 132.4386749267578 263.8184509277344 128.31578063964844 C 264.633056640625 116.80294799804688 264.3904113769531 106.86724090576172 261.40283203125 139.50897216796875" stroke-width="0.0" fill="rgb(255, 155, 112)" opacity="0.23823324" stroke="rgb(25, 123, 159)" stroke-opacity="0.026220664" stroke-linecap="round" stroke-linejoin="round"/>
    <path d="M 259.38018798828125 128.49400329589844 C 258.4342346191406 129.67906188964844 262.3962097167969 127.58612060546875 246.36044311523438 137.8927459716797 C 256.0069580078125 121.06546783447266 241.96751403808594 121.64781188964844 235.38970947265625 117.94815063476562 C 236.7966766357422 96.18025970458984 249.9282684326172 87.1900634765625 249.17816162109375 108.66619110107422 C 260.3224182128906 109.79011535644531 262.281982421875 113.42022705078125 259.38018798828125 128.49400329589844" stroke-width="0.0" fill="rgb(167, 81, 61)" opacity="1.0" stroke="rgb(206, 51, 162)" stroke-opacity="0.22791322" stroke-linecap="round" stroke-linejoin="round"/>
    <path d="M 260.9947204589844 442.1835632324219 C 250.89297485351562 473.4232482910156 247.66567993164062 478.2103271484375 245.81918334960938 483.0302734375 C 241.84739685058594 480.7023010253906 244.68943786621094 480.4964904785156 241.18551635742188 475.26751708984375 C 243.39906311035156 465.05126953125 244.7220458984375 452.1611022949219 249.1726837158203 439.2018127441406 C 296.3304748535156 367.8932800292969 300.6372985839844 336.702392578125 260.9947204589844 442.1835632324219" stroke-width="0.0" fill="rgb(27, 43, 72)" opacity="0.83747846" stroke="rgb(54, 215, 179)" stroke-opacity="0.9605536" stroke-linecap="round" stroke-linejoin="round"/>
    <path d="M 248.71192932128906 127.18975830078125 C 246.2500457763672 137.5214080810547 242.38133239746094 139.115966796875 241.59107971191406 162.61305236816406 C 228.4521942138672 154.6907958984375 239.22457885742188 124.30915069580078 227.3540496826172 130.3776092529297 C 231.5308837890625 106.14434814453125 225.99244689941406 96.9517822265625 241.9695587158203 91.4239273071289 C 229.08128356933594 125.01895904541016 242.02919006347656 118.74842834472656 248.71192932128906 127.18975830078125" stroke-width="0.0" fill="rgb(250, 214, 201)" opacity="1.0" stroke="rgb(253, 81, 83)" stroke-opacity="0.68622994" stroke-linecap="round" stroke-linejoin="round"/>
    <path d="M 189.94644165039062 124.00322723388672 C 169.8172149658203 129.38836669921875 161.65631103515625 138.79701232910156 147.77430725097656 153.5478973388672 C 139.7458038330078 155.07704162597656 137.75331115722656 152.27877807617188 137.78997802734375 149.0228729248047 C 151.4517822265625 131.55923461914062 156.4225311279297 127.64675903320312 163.56402587890625 118.48560333251953 C 182.47589111328125 119.99099731445312 187.0166015625 125.6660385131836 189.94644165039062 124.00322723388672" stroke-width="0.0" fill="rgb(24, 33, 39)" opacity="0.8863487" stroke="rgb(188, 107, 118)" stroke-opacity="0.6849739" stroke-linecap="round" stroke-linejoin="round"/>
    <path d="M 142.60687255859375 52.84254455566406 C 144.9715118408203 83.30152130126953 149.2227783203125 82.65362548828125 124.59019470214844 69.02617645263672 C 68.31610107421875 56.487449645996094 150.2578125 95.91937255859375 78.570068359375 85.01549530029297 C 108.3258056640625 59.86170196533203 124.19364166259766 46.99691390991211 139.11293029785156 47.26420974731445 C 160.8580322265625 57.853736877441406 167.3991241455078 72.81443786621094 142.60687255859375 52.84254455566406" stroke-width="0.0" fill="rgb(8, 10, 15)" opacity="0.96623987" stroke="rgb(225, 47, 207)" stroke-opacity="0.5861638" stroke-linecap="round" stroke-linejoin="round"/>
    <path d="M 285.7449035644531 147.84243774414062 C 250.5707550048828 138.5437469482422 277.10211181640625 113.03704071044922 263.2301330566406 102.81703186035156 C 257.6660461425781 96.88417053222656 257.9415283203125 89.78471374511719 235.53564453125 92.82128143310547 C 222.19189453125 -74.82301330566406 195.0279541015625 -3.1489343643188477 276.0947265625 40.81000518798828 C 302.3595886230469 67.4492416381836 255.8043975830078 46.585044860839844 285.7449035644531 147.84243774414062" stroke-width="0.0" fill="rgb(35, 43, 58)" opacity="0.94822174" stroke="rgb(143, 190, 13)" stroke-opacity="0.74361175" stroke-linecap="round" stroke-linejoin="round"/>
    <path d="M 189.2108154296875 68.74153137207031 C 175.72352600097656 69.9699935913086 148.35247802734375 75.4355697631836 149.46815490722656 82.3435287475586 C 125.45149993896484 93.38019561767578 118.78211212158203 107.36553955078125 95.22027587890625 110.89006042480469 C 147.44908142089844 63.342926025390625 135.8079071044922 49.02958679199219 146.3749542236328 54.46689224243164 C 165.93853759765625 72.31293487548828 174.37277221679688 52.920204162597656 189.2108154296875 68.74153137207031" stroke-width="0.0" fill="rgb(19, 22, 29)" opacity="0.75203955" stroke="rgb(159, 4, 132)" stroke-opacity="0.1361567" stroke-linecap="round" stroke-linejoin="round"/>
    <path d="M 175.68882751464844 50.78607177734375 C 171.45651245117188 56.60920715332031 180.995361328125 55.75393295288086 189.55911254882812 57.50025939941406 C 137.0473175048828 36.851680755615234 171.09225463867188 20.198881149291992 108.96772003173828 42.311641693115234 C 142.68716430664062 13.576325416564941 165.14039611816406 -0.5936537384986877 135.21957397460938 30.589365005493164 C 165.38072204589844 26.32180404663086 185.0353240966797 30.28652000427246 175.68882751464844 50.78607177734375" stroke-width="0.0" fill="rgb(20, 24, 34)" opacity="1.0" stroke="rgb(126, 70, 22)" stroke-opacity="0.23491965" stroke-linecap="round" stroke-linejoin="round"/>
    <path d="M 255.42376708984375 459.1002502441406 C 246.84127807617188 486.3506774902344 243.64683532714844 496.3656005859375 237.3755645751953 523.210205078125 C 224.71437072753906 524.5778198242188 229.85113525390625 513.549072265625 238.00375366210938 486.0456848144531 C 243.29949951171875 471.5090637207031 242.29327392578125 452.31964111328125 250.09490966796875 447.22039794921875 C 240.6912384033203 493.63555908203125 282.9868469238281 371.85443115234375 255.42376708984375 459.1002502441406" stroke-width="0.0" fill="rgb(6, 9, 19)" opacity="1.0" stroke="rgb(154, 162, 244)" stroke-opacity="0.29538572" stroke-linecap="round" stroke-linejoin="round"/>
    <path d="M 224.17222595214844 95.68218231201172 C 243.17369079589844 169.5666046142578 237.76858520507812 157.87429809570312 184.407958984375 78.2497787475586 C 170.51412963867188 75.59848022460938 136.13204956054688 89.96504211425781 143.50152587890625 83.54080200195312 C 178.29388427734375 71.05741882324219 198.05699157714844 74.6511459350586 160.32223510742188 56.39045715332031 C 176.91928100585938 52.29887771606445 264.8741760253906 35.787071228027344 224.17222595214844 95.68218231201172" stroke-width="0.0" fill="rgb(34, 44, 58)" opacity="0.8593613" stroke="rgb(99, 34, 195)" stroke-opacity="0.010493397" stroke-linecap="round" stroke-linejoin="round"/>
    <path d="M 210.22479248046875 112.31796264648438 C 184.50880432128906 97.05464935302734 185.8408203125 107.0188217163086 175.9981231689453 92.14997100830078 C 170.28118896484375 84.01399230957031 175.63653564453125 85.77477264404297 158.83282470703125 85.93885803222656 C 153.12379455566406 88.03231811523438 166.66981506347656 83.41191101074219 176.00892639160156 76.158935546875 C 204.23765563964844 67.49542999267578 213.97512817382812 62.71100616455078 210.22479248046875 112.31796264648438" stroke-width="0.0" fill="rgb(27, 35, 45)" opacity="1.0" stroke="rgb(151, 29, 186)" stroke-opacity="0.7548762" stroke-linecap="round" stroke-linejoin="round"/>
    <path d="M 238.6030731201172 116.14273834228516 C 252.93614196777344 100.78466033935547 253.10330200195312 101.25932312011719 242.0157012939453 112.46522521972656 C 247.59808349609375 111.25521850585938 253.88731384277344 94.45448303222656 238.41387939453125 96.34565734863281 C 237.48898315429688 102.90773010253906 237.20347595214844 98.60749816894531 247.323974609375 94.80484771728516 C 233.34205627441406 111.11434173583984 239.49041748046875 121.48271942138672 238.6030731201172 116.14273834228516" stroke-width="0.0" fill="rgb(244, 187, 168)" opacity="0.97516" stroke="rgb(231, 219, 73)" stroke-opacity="0.7697857" stroke-linecap="round" stroke-linejoin="round"/>
  </g>
</svg>
