<?xml version="1.0" ?>
<svg xmlns="http://www.w3.org/2000/svg" version="1.1" width="512" height="512">
  <defs/>
  <g>
    <path d="M 443.1855773925781 392.1605529785156 C 458.24627685546875 429.2291259765625 470.0796813964844 284.81488037109375 477.30743408203125 515.4121704101562 C 308.5765686035156 518.4190673828125 309.42840576171875 518.7401733398438 208.85165405273438 511.8861083984375 C 259.41815185546875 304.3269958496094 234.28097534179688 443.0899963378906 310.38348388671875 330.5632629394531 C 344.8861083984375 289.7725524902344 357.0586242675781 302.3008728027344 443.1855773925781 392.1605529785156" stroke-width="0.0" fill="rgb(0, 39, 99)" opacity="0.7304251" stroke="rgb(93, 215, 158)" stroke-opacity="0.072959244" stroke-linecap="round" stroke-linejoin="round"/>
    <path d="M 120.72261810302734 289.01287841796875 C 122.79414367675781 316.15521240234375 127.4822769165039 338.1673889160156 90.00556182861328 354.86993408203125 C 56.61528396606445 351.4235534667969 62.036354064941406 352.9603576660156 59.350746154785156 345.8943176269531 C 32.71070098876953 286.9762878417969 28.1069278717041 263.7049255371094 109.7955322265625 266.29815673828125 C 122.57369232177734 286.70904541015625 110.59333801269531 291.25701904296875 120.72261810302734 289.01287841796875" stroke-width="0.0" fill="rgb(255, 255, 255)" opacity="0.99989307" stroke="rgb(198, 253, 74)" stroke-opacity="0.16365163" stroke-linecap="round" stroke-linejoin="round"/>
    <path d="M 445.165771484375 158.71160888671875 C 448.8756408691406 172.5196990966797 439.5130615234375 184.3335418701172 436.9803466796875 180.9906463623047 C 384.4745178222656 180.991943359375 387.3995666503906 180.9779815673828 388.0027160644531 180.99305725097656 C 388.0212707519531 123.9007797241211 387.918212890625 136.80142211914062 388.1764221191406 134.89476013183594 C 457.70989990234375 136.15924072265625 442.73638916015625 129.02569580078125 445.165771484375 158.71160888671875" stroke-width="0.0" fill="rgb(255, 255, 255)" opacity="0.92744166" stroke="rgb(41, 104, 239)" stroke-opacity="0.9976777" stroke-linecap="round" stroke-linejoin="round"/>
    <path d="M 134.2222900390625 180.9158477783203 C 123.52998352050781 157.6997528076172 60.302364349365234 99.90304565429688 113.1323471069336 177.59548950195312 C 61.87299728393555 153.6555633544922 80.8857421875 120.45429992675781 37.162803649902344 74.61785125732422 C 66.74928283691406 101.19869232177734 52.0590705871582 74.72124481201172 139.53665161132812 74.17904663085938 C 138.63059997558594 77.00114440917969 85.64724731445312 102.62344360351562 134.2222900390625 180.9158477783203" stroke-width="0.0" fill="rgb(19, 20, 21)" opacity="0.94914913" stroke="rgb(141, 146, 155)" stroke-opacity="0.7741763" stroke-linecap="round" stroke-linejoin="round"/>
    <path d="M 275.2943115234375 145.71466064453125 C 135.0672607421875 97.33588409423828 188.71572875976562 55.89835739135742 116.90499877929688 102.52836608886719 C 76.427734375 98.75163269042969 21.574832916259766 74.82550811767578 42.77174758911133 35.00354766845703 C 36.747135162353516 86.82671356201172 74.50643157958984 56.916873931884766 120.45977783203125 33.61719512939453 C 177.0537567138672 -28.922765731811523 311.7127990722656 -8.10891342163086 275.2943115234375 145.71466064453125" stroke-width="0.0" fill="rgb(21, 24, 35)" opacity="0.7145145" stroke="rgb(128, 55, 5)" stroke-opacity="0.93192965" stroke-linecap="round" stroke-linejoin="round"/>
    <path d="M 311.6572570800781 187.902587890625 C 236.5096893310547 300.6399230957031 282.6390686035156 342.5005187988281 229.19898986816406 293.91949462890625 C 210.8839874267578 282.67254638671875 262.3460693359375 259.59442138671875 236.44383239746094 248.0142364501953 C 248.56063842773438 232.53187561035156 267.0815734863281 209.0509796142578 313.3245544433594 168.05519104003906 C 314.925537109375 165.37452697753906 333.0891418457031 180.66436767578125 311.6572570800781 187.902587890625" stroke-width="0.0" fill="rgb(12, 15, 22)" opacity="0.96095115" stroke="rgb(18, 223, 21)" stroke-opacity="0.72515106" stroke-linecap="round" stroke-linejoin="round"/>
    <path d="M 421.0779113769531 294.4234619140625 C 308.255615234375 174.6366424560547 316.62738037109375 349.8392333984375 222.24362182617188 396.5714416503906 C 250.9408721923828 291.1485900878906 262.7515869140625 303.87823486328125 257.0947570800781 306.60205078125 C 275.5813293457031 421.37994384765625 268.82049560546875 310.16485595703125 359.8465881347656 204.0723114013672 C 444.73834228515625 264.2416076660156 472.8492736816406 373.827880859375 421.0779113769531 294.4234619140625" stroke-width="0.0" fill="rgb(10, 13, 21)" opacity="0.9453514" stroke="rgb(5, 147, 4)" stroke-opacity="0.9604074" stroke-linecap="round" stroke-linejoin="round"/>
    <path d="M 321.40264892578125 257.9303283691406 C 304.2680358886719 286.8281555175781 305.2354431152344 294.7074890136719 283.2145690917969 301.2452087402344 C 259.8497009277344 302.9407958984375 258.9498596191406 307.5071105957031 269.7339172363281 271.8089294433594 C 277.47137451171875 252.52989196777344 281.5079345703125 237.39627075195312 295.393798828125 213.40509033203125 C 359.0014953613281 227.27464294433594 340.8130187988281 220.72381591796875 321.40264892578125 257.9303283691406" stroke-width="0.0" fill="rgb(118, 167, 231)" opacity="0.9179458" stroke="rgb(208, 164, 83)" stroke-opacity="0.6117233" stroke-linecap="round" stroke-linejoin="round"/>
    <path d="M 300.58001708984375 297.9747009277344 C 294.80352783203125 310.1502685546875 292.0589904785156 315.5248107910156 274.50323486328125 351.93218994140625 C 233.74195861816406 372.2049865722656 244.57778930664062 382.54486083984375 251.9628143310547 333.9428405761719 C 267.9998474121094 282.62713623046875 262.6498718261719 272.51947021484375 286.6919250488281 272.6866149902344 C 322.2948913574219 265.9588623046875 312.1891174316406 271.9548645019531 300.58001708984375 297.9747009277344" stroke-width="0.0" fill="rgb(119, 169, 230)" opacity="1.0" stroke="rgb(53, 67, 189)" stroke-opacity="0.4574967" stroke-linecap="round" stroke-linejoin="round"/>
    <path d="M 366.5743103027344 202.06056213378906 C 354.9971008300781 202.30401611328125 351.6673583984375 219.50132751464844 324.5483703613281 247.59495544433594 C 289.78802490234375 248.86322021484375 282.733154296875 244.038330078125 296.0596923828125 211.40029907226562 C 316.96099853515625 177.26333618164062 334.5625 160.67593383789062 336.85296630859375 162.08026123046875 C 350.25238037109375 178.29393005371094 357.03143310546875 187.615234375 366.5743103027344 202.06056213378906" stroke-width="0.0" fill="rgb(122, 167, 224)" opacity="1.0" stroke="rgb(70, 182, 114)" stroke-opacity="0.038471144" stroke-linecap="round" stroke-linejoin="round"/>
    <path d="M 440.67572021484375 465.6424255371094 C 447.16461181640625 500.52606201171875 453.8044738769531 511.1814880371094 439.8006286621094 508.0353088378906 C 430.2278747558594 512.112548828125 435.2879333496094 509.9657897949219 423.2820739746094 455.5559997558594 C 405.1040344238281 368.2727355957031 379.6043395996094 343.6333312988281 412.39300537109375 370.0752868652344 C 434.7716979980469 431.4794006347656 437.6189880371094 456.37811279296875 440.67572021484375 465.6424255371094" stroke-width="0.0" fill="rgb(7, 9, 15)" opacity="0.964933" stroke="rgb(218, 202, 211)" stroke-opacity="0.8990259" stroke-linecap="round" stroke-linejoin="round"/>
    <path d="M 458.5868835449219 492.7875061035156 C 457.4193420410156 509.9396057128906 459.0514831542969 518.8532104492188 456.8371887207031 526.7985229492188 C 425.2069091796875 525.669677734375 426.9513244628906 486.8670959472656 448.2711181640625 500.7351379394531 C 445.7071533203125 501.7657775878906 452.4866638183594 457.3711853027344 455.7084655761719 410.4058532714844 C 457.4102783203125 427.4728698730469 458.5635681152344 462.3012390136719 458.5868835449219 492.7875061035156" stroke-width="0.0" fill="rgb(9, 11, 17)" opacity="1.0" stroke="rgb(142, 173, 108)" stroke-opacity="0.9642791" stroke-linecap="round" stroke-linejoin="round"/>
    <path d="M 240.7661590576172 239.217041015625 C 241.79861450195312 243.4796905517578 252.79676818847656 250.41567993164062 226.9544219970703 233.04925537109375 C 199.04962158203125 261.69439697265625 195.6990966796875 251.60047912597656 207.72108459472656 248.28009033203125 C 231.7378387451172 219.58399963378906 234.78057861328125 209.35964965820312 249.8582305908203 192.80857849121094 C 247.2002716064453 194.36300659179688 243.4732208251953 200.76052856445312 240.7661590576172 239.217041015625" stroke-width="0.0" fill="rgb(122, 29, 0)" opacity="0.7936061" stroke="rgb(237, 75, 230)" stroke-opacity="0.9956738" stroke-linecap="round" stroke-linejoin="round"/>
    <path d="M 198.72251892089844 478.4783630371094 C 203.34591674804688 458.0645446777344 199.4210205078125 471.1402282714844 185.75450134277344 522.4354248046875 C 171.5841064453125 526.748779296875 183.0948028564453 504.7477722167969 194.05348205566406 471.6995849609375 C 194.19552612304688 468.27642822265625 197.4007110595703 465.76934814453125 227.9674530029297 385.5252380371094 C 240.51588439941406 385.5390319824219 207.11952209472656 431.6388854980469 198.72251892089844 478.4783630371094" stroke-width="0.0" fill="rgb(2, 2, 5)" opacity="0.9672817" stroke="rgb(193, 193, 23)" stroke-opacity="0.030997703" stroke-linecap="round" stroke-linejoin="round"/>
    <path d="M 270.0814514160156 364.39080810546875 C 266.8533630371094 401.4024353027344 252.74212646484375 357.5824279785156 232.03993225097656 421.8384094238281 C 243.24868774414062 375.1982727050781 245.3467254638672 382.80615234375 230.310302734375 392.2649230957031 C 244.2012939453125 369.2725830078125 240.5215301513672 355.1178894042969 272.6970520019531 354.3528137207031 C 294.1701354980469 313.7844543457031 297.13067626953125 313.9710388183594 270.0814514160156 364.39080810546875" stroke-width="0.0" fill="rgb(71, 99, 137)" opacity="1.0" stroke="rgb(34, 22, 69)" stroke-opacity="0.62834334" stroke-linecap="round" stroke-linejoin="round"/>
  </g>
</svg>
