<?xml version="1.0" ?>
<svg xmlns="http://www.w3.org/2000/svg" version="1.1" width="512" height="512">
  <defs/>
  <g>
    <path d="M 445.5811767578125 394.66998291015625 C 457.6712646484375 424.92547607421875 469.393798828125 276.20428466796875 477.192138671875 514.85498046875 C 308.5765686035156 518.4190673828125 309.42840576171875 518.7495727539062 208.7243194580078 511.8447570800781 C 259.07073974609375 308.61492919921875 230.88075256347656 447.5605163574219 309.420654296875 333.97711181640625 C 342.79010009765625 288.90460205078125 353.4932861328125 298.3197937011719 445.5811767578125 394.66998291015625" stroke-width="0.0" fill="rgb(0, 39, 100)" opacity="0.7467587" stroke="rgb(93, 215, 158)" stroke-opacity="0.072959244" stroke-linecap="round" stroke-linejoin="round"/>
    <path d="M 120.72261810302734 289.01287841796875 C 122.79414367675781 316.15521240234375 127.4822769165039 338.1673889160156 90.00556182861328 354.86993408203125 C 56.61528396606445 351.4235534667969 62.036354064941406 352.9603576660156 59.337833404541016 345.95196533203125 C 32.683921813964844 287.00970458984375 28.098556518554688 263.7049255371094 109.7955322265625 266.29815673828125 C 122.57369232177734 286.70904541015625 110.59333801269531 291.25701904296875 120.72261810302734 289.01287841796875" stroke-width="0.0" fill="rgb(255, 255, 255)" opacity="0.999945" stroke="rgb(198, 253, 74)" stroke-opacity="0.16365163" stroke-linecap="round" stroke-linejoin="round"/>
    <path d="M 445.1576843261719 158.1258544921875 C 449.0067138671875 171.69561767578125 439.5628356933594 184.98414611816406 437.18695068359375 180.9980010986328 C 384.4449157714844 180.9967803955078 387.3721923828125 180.99667358398438 387.9991455078125 180.98748779296875 C 388.0128173828125 123.80111694335938 387.9478454589844 136.75234985351562 388.1573486328125 134.91001892089844 C 457.62359619140625 136.13275146484375 442.85693359375 129.16461181640625 445.1576843261719 158.1258544921875" stroke-width="0.0" fill="rgb(255, 255, 255)" opacity="0.902632" stroke="rgb(41, 104, 239)" stroke-opacity="0.9976777" stroke-linecap="round" stroke-linejoin="round"/>
    <path d="M 136.18470764160156 184.2864227294922 C 118.98951721191406 151.18663024902344 62.0305061340332 103.45686340332031 113.31462860107422 177.7118377685547 C 61.30152893066406 153.97927856445312 80.52430725097656 117.85896301269531 35.76894760131836 73.33100128173828 C 66.91844177246094 101.36003875732422 50.11548614501953 76.04682159423828 137.9047088623047 74.26573181152344 C 138.23681640625 74.44857025146484 84.87805938720703 105.34066009521484 136.18470764160156 184.2864227294922" stroke-width="0.0" fill="rgb(17, 17, 18)" opacity="0.9498053" stroke="rgb(141, 146, 155)" stroke-opacity="0.7741763" stroke-linecap="round" stroke-linejoin="round"/>
    <path d="M 276.7191162109375 146.6023406982422 C 141.5473175048828 102.48176574707031 206.07627868652344 47.15483093261719 118.9704360961914 100.05758666992188 C 75.4057846069336 99.69608306884766 22.400848388671875 74.68839263916016 42.57455062866211 35.307071685791016 C 37.08233642578125 94.57006072998047 83.67611694335938 46.43059539794922 143.2657928466797 24.437292098999023 C 160.4096221923828 -29.308218002319336 297.3465881347656 15.25014591217041 276.7191162109375 146.6023406982422" stroke-width="0.0" fill="rgb(1, 11, 30)" opacity="0.81649554" stroke="rgb(128, 55, 5)" stroke-opacity="0.93192965" stroke-linecap="round" stroke-linejoin="round"/>
    <path d="M 311.6384582519531 188.02542114257812 C 236.5296173095703 299.72479248046875 283.6226501464844 343.5657958984375 228.406494140625 293.26544189453125 C 212.2252197265625 282.3287658691406 261.78143310546875 259.11639404296875 236.3663330078125 248.2100830078125 C 246.40625 234.68714904785156 268.7176818847656 207.00946044921875 313.4254455566406 168.03074645996094 C 315.875732421875 165.23594665527344 333.4453125 183.41986083984375 311.6384582519531 188.02542114257812" stroke-width="0.0" fill="rgb(9, 12, 19)" opacity="0.9471922" stroke="rgb(18, 223, 21)" stroke-opacity="0.72515106" stroke-linecap="round" stroke-linejoin="round"/>
    <path d="M 426.77606201171875 301.3520202636719 C 311.87689208984375 171.89231872558594 321.7359619140625 338.4846496582031 224.74771118164062 387.13006591796875 C 251.82183837890625 291.87060546875 264.32159423828125 299.056884765625 258.7955322265625 306.23065185546875 C 281.62371826171875 424.3896789550781 266.8363952636719 309.4208679199219 359.27752685546875 203.92050170898438 C 443.8086242675781 262.2507629394531 469.5970458984375 369.41314697265625 426.77606201171875 301.3520202636719" stroke-width="0.0" fill="rgb(0, 4, 12)" opacity="0.9077815" stroke="rgb(5, 147, 4)" stroke-opacity="0.9604074" stroke-linecap="round" stroke-linejoin="round"/>
    <path d="M 321.1651916503906 258.00323486328125 C 304.05828857421875 286.8782043457031 305.76092529296875 295.18792724609375 284.3528137207031 301.4257507324219 C 259.631591796875 302.91009521484375 258.7444152832031 307.4856262207031 270.18402099609375 270.7183532714844 C 277.6645202636719 251.7664794921875 281.3071594238281 238.00343322753906 296.16461181640625 211.97119140625 C 359.41064453125 226.4749755859375 341.408447265625 220.48085021972656 321.1651916503906 258.00323486328125" stroke-width="0.0" fill="rgb(128, 173, 231)" opacity="1.0" stroke="rgb(208, 164, 83)" stroke-opacity="0.6117233" stroke-linecap="round" stroke-linejoin="round"/>
    <path d="M 300.44439697265625 298.19024658203125 C 295.0634460449219 310.0151062011719 292.0670471191406 315.680419921875 274.7494201660156 351.7359619140625 C 208.18789672851562 399.4797668457031 248.17112731933594 382.1173095703125 250.51193237304688 339.7213439941406 C 267.5118408203125 280.24566650390625 265.8785400390625 272.1798095703125 281.825439453125 265.5415954589844 C 324.9082946777344 261.8832092285156 312.5422668457031 271.4952697753906 300.44439697265625 298.19024658203125" stroke-width="0.0" fill="rgb(121, 169, 228)" opacity="1.0" stroke="rgb(53, 67, 189)" stroke-opacity="0.4574967" stroke-linecap="round" stroke-linejoin="round"/>
    <path d="M 366.4377136230469 201.9187774658203 C 353.7538757324219 204.4584197998047 353.14056396484375 217.4617919921875 323.56817626953125 248.809814453125 C 289.8132629394531 249.85269165039062 284.5496520996094 246.89254760742188 296.74420166015625 210.59902954101562 C 315.9156188964844 179.03741455078125 335.3524475097656 158.69581604003906 337.0508117675781 162.43801879882812 C 349.1863098144531 176.95655822753906 358.1434326171875 189.0934295654297 366.4377136230469 201.9187774658203" stroke-width="0.0" fill="rgb(122, 167, 224)" opacity="1.0" stroke="rgb(70, 182, 114)" stroke-opacity="0.038471144" stroke-linecap="round" stroke-linejoin="round"/>
    <path d="M 440.91192626953125 466.7451477050781 C 447.9617919921875 503.85516357421875 454.76617431640625 514.2073974609375 438.7141418457031 508.3372497558594 C 430.32080078125 513.4895629882812 435.9356994628906 512.9160766601562 423.2295837402344 455.26690673828125 C 405.4179382324219 369.2479553222656 379.427001953125 343.29962158203125 412.4835510253906 370.1447448730469 C 434.6387023925781 431.5234375 437.36053466796875 455.187255859375 440.91192626953125 466.7451477050781" stroke-width="0.0" fill="rgb(6, 7, 12)" opacity="0.93732744" stroke="rgb(218, 202, 211)" stroke-opacity="0.8990259" stroke-linecap="round" stroke-linejoin="round"/>
    <path d="M 458.5013427734375 492.82977294921875 C 457.549072265625 511.2539367675781 459.00799560546875 518.9359741210938 456.5246276855469 527.2108154296875 C 425.2188415527344 526.5157470703125 427.0406188964844 486.16192626953125 448.31939697265625 502.3176574707031 C 445.6842346191406 498.8604736328125 452.3851013183594 461.1304016113281 455.41937255859375 411.1722412109375 C 457.4648132324219 423.033203125 458.60443115234375 465.7549743652344 458.5013427734375 492.82977294921875" stroke-width="0.0" fill="rgb(9, 11, 17)" opacity="1.0" stroke="rgb(142, 173, 108)" stroke-opacity="0.9642791" stroke-linecap="round" stroke-linejoin="round"/>
    <path d="M 240.51181030273438 241.9116973876953 C 238.92935180664062 235.41485595703125 249.98876953125 250.4342803955078 227.16946411132812 232.8868865966797 C 197.18780517578125 263.37884521484375 197.51560974121094 249.89703369140625 206.56097412109375 249.25865173339844 C 229.8690948486328 222.94769287109375 234.3931884765625 209.05517578125 250.34886169433594 192.33425903320312 C 247.39645385742188 194.03610229492188 243.2855682373047 200.83514404296875 240.51181030273438 241.9116973876953" stroke-width="0.0" fill="rgb(101, 24, 0)" opacity="0.8341068" stroke="rgb(237, 75, 230)" stroke-opacity="0.9956738" stroke-linecap="round" stroke-linejoin="round"/>
    <path d="M 197.36813354492188 482.5524597167969 C 203.43382263183594 458.37860107421875 199.20619201660156 471.3191223144531 185.80604553222656 522.7118530273438 C 171.50311279296875 530.715087890625 181.6228790283203 506.5273132324219 195.4506378173828 468.5077209472656 C 198.4729461669922 453.0770568847656 205.2666015625 453.65948486328125 228.98191833496094 376.8890686035156 C 253.43618774414062 364.1421813964844 211.04547119140625 417.43438720703125 197.36813354492188 482.5524597167969" stroke-width="0.0" fill="rgb(4, 4, 7)" opacity="0.9785769" stroke="rgb(193, 193, 23)" stroke-opacity="0.030997703" stroke-linecap="round" stroke-linejoin="round"/>
    <path d="M 270.4811096191406 363.02886962890625 C 262.90350341796875 410.8076477050781 260.1542663574219 361.6170654296875 229.70657348632812 430.8260498046875 C 245.390625 366.61334228515625 249.1782989501953 366.5846252441406 231.3582000732422 387.2813415527344 C 247.27806091308594 372.4586181640625 246.6610565185547 354.7853088378906 277.2478942871094 353.17901611328125 C 297.1520690917969 298.6436462402344 305.3473815917969 300.05938720703125 270.4811096191406 363.02886962890625" stroke-width="0.0" fill="rgb(48, 81, 128)" opacity="1.0" stroke="rgb(34, 22, 69)" stroke-opacity="0.62834334" stroke-linecap="round" stroke-linejoin="round"/>
    <path d="M 215.81796264648438 31.21428680419922 C 188.42767333984375 41.64327621459961 196.5754852294922 41.91071319580078 179.5756378173828 51.33305740356445 C 176.02442932128906 54.2253532409668 174.04144287109375 50.94697189331055 164.7842559814453 31.075618743896484 C 161.65838623046875 28.569719314575195 179.7257537841797 28.577880859375 189.32876586914062 37.243621826171875 C 217.25064086914062 18.20399284362793 207.50411987304688 16.421716690063477 215.81796264648438 31.21428680419922" stroke-width="0.0" fill="rgb(7, 9, 17)" opacity="0.9717803" stroke="rgb(10, 178, 131)" stroke-opacity="0.38561356" stroke-linecap="round" stroke-linejoin="round"/>
    <path d="M 264.2250671386719 143.17909240722656 C 273.5990295410156 167.131591796875 243.0771942138672 166.26612854003906 251.24891662597656 118.08908081054688 C 237.26620483398438 106.45669555664062 232.51473999023438 123.77896118164062 231.38034057617188 102.42341613769531 C 233.06253051757812 91.14788055419922 236.70603942871094 91.99128723144531 260.2196044921875 90.63057708740234 C 261.5299377441406 87.68379974365234 272.21685791015625 94.4267807006836 264.2250671386719 143.17909240722656" stroke-width="0.0" fill="rgb(241, 198, 183)" opacity="1.0" stroke="rgb(64, 202, 65)" stroke-opacity="0.70534074" stroke-linecap="round" stroke-linejoin="round"/>
    <path d="M 458.1547546386719 345.40771484375 C 468.1974792480469 384.097900390625 472.0157775878906 377.94342041015625 459.621337890625 380.8690490722656 C 451.4976501464844 346.2684020996094 446.86871337890625 339.8862609863281 446.0884704589844 333.12420654296875 C 445.2171630859375 326.48468017578125 424.83636474609375 308.2215270996094 439.4403076171875 300.0709533691406 C 446.1062927246094 309.1206970214844 452.1903381347656 326.8641357421875 458.1547546386719 345.40771484375" stroke-width="0.0" fill="rgb(20, 33, 51)" opacity="0.95168704" stroke="rgb(229, 214, 75)" stroke-opacity="0.0005347838" stroke-linecap="round" stroke-linejoin="round"/>
    <path d="M 263.6178283691406 145.59776306152344 C 302.33441162109375 124.46424102783203 313.9143371582031 268.28216552734375 146.512939453125 226.5037841796875 C 71.81848907470703 35.93281173706055 140.37277221679688 56.85995864868164 248.37271118164062 137.3413543701172 C 252.71630859375 133.412109375 246.49461364746094 158.45155334472656 262.9794921875 145.6620330810547 C 263.64111328125 117.21918487548828 261.57781982421875 106.86542510986328 263.6178283691406 145.59776306152344" stroke-width="0.0" fill="rgb(255, 130, 78)" opacity="0.2620711" stroke="rgb(25, 123, 159)" stroke-opacity="0.026220664" stroke-linecap="round" stroke-linejoin="round"/>
    <path d="M 259.6148376464844 127.65716552734375 C 257.9180908203125 130.04795837402344 262.4839172363281 127.01895141601562 246.58143615722656 137.99411010742188 C 256.216064453125 120.90763854980469 241.0648193359375 121.24650573730469 236.4964141845703 118.5413818359375 C 234.93333435058594 95.91173553466797 251.8468475341797 86.7477798461914 251.22088623046875 109.57527160644531 C 260.16485595703125 111.56607055664062 262.04022216796875 112.82518005371094 259.6148376464844 127.65716552734375" stroke-width="0.0" fill="rgb(167, 81, 61)" opacity="1.0" stroke="rgb(206, 51, 162)" stroke-opacity="0.22791322" stroke-linecap="round" stroke-linejoin="round"/>
    <path d="M 259.7614440917969 441.0473937988281 C 250.5410919189453 473.02166748046875 249.08741760253906 479.5054626464844 248.09181213378906 482.8846740722656 C 243.33059692382812 479.6096496582031 245.9610595703125 479.2987365722656 243.0536346435547 477.25567626953125 C 246.33534240722656 470.7567443847656 250.48861694335938 460.408935546875 258.1600341796875 439.24188232421875 C 287.8560485839844 367.17181396484375 304.19110107421875 337.1938781738281 259.7614440917969 441.0473937988281" stroke-width="0.0" fill="rgb(13, 19, 35)" opacity="1.0" stroke="rgb(54, 215, 179)" stroke-opacity="0.9605536" stroke-linecap="round" stroke-linejoin="round"/>
    <path d="M 248.50425720214844 127.19581604003906 C 247.81094360351562 136.18568420410156 240.1461181640625 137.1357421875 242.06207275390625 162.5118865966797 C 229.29554748535156 154.44322204589844 239.86766052246094 126.56785583496094 225.44325256347656 125.68677520751953 C 233.62130737304688 112.76451873779297 224.3961181640625 98.02725219726562 240.4365692138672 91.90508270263672 C 228.48475646972656 125.0247802734375 244.7198944091797 119.94722747802734 248.50425720214844 127.19581604003906" stroke-width="0.0" fill="rgb(251, 215, 202)" opacity="1.0" stroke="rgb(253, 81, 83)" stroke-opacity="0.68622994" stroke-linecap="round" stroke-linejoin="round"/>
    <path d="M 189.95155334472656 124.0099868774414 C 169.83531188964844 129.40060424804688 161.68910217285156 138.8268280029297 147.8028106689453 153.67141723632812 C 140.30801391601562 155.15284729003906 137.35357666015625 151.691162109375 137.7961883544922 149.2320098876953 C 150.768310546875 130.97146606445312 156.374267578125 127.60645294189453 163.54747009277344 118.47724914550781 C 182.47616577148438 119.98931884765625 187.0078582763672 125.65606689453125 189.95155334472656 124.0099868774414" stroke-width="0.0" fill="rgb(24, 33, 38)" opacity="0.8869793" stroke="rgb(188, 107, 118)" stroke-opacity="0.6849739" stroke-linecap="round" stroke-linejoin="round"/>
    <path d="M 143.88766479492188 52.358985900878906 C 140.704833984375 89.40508270263672 152.8504180908203 79.07929992675781 117.4117202758789 66.96961975097656 C 66.09449768066406 64.45265197753906 169.9523468017578 92.31209564208984 77.97554779052734 85.58369445800781 C 107.79328155517578 60.052734375 127.02288055419922 45.115142822265625 139.88291931152344 47.57394027709961 C 161.5050506591797 57.3747673034668 177.38699340820312 86.353759765625 143.88766479492188 52.358985900878906" stroke-width="0.0" fill="rgb(8, 10, 15)" opacity="0.9818996" stroke="rgb(225, 47, 207)" stroke-opacity="0.5861638" stroke-linecap="round" stroke-linejoin="round"/>
    <path d="M 285.50299072265625 147.7689666748047 C 248.56582641601562 136.78880310058594 278.431396484375 118.4540023803711 263.6982727050781 102.67443084716797 C 257.1639709472656 99.34114837646484 254.26673889160156 91.51708221435547 241.8890380859375 92.02828216552734 C 211.3282470703125 -83.72394561767578 197.91036987304688 -0.5637322068214417 277.7666931152344 41.82489776611328 C 300.2754821777344 70.7663803100586 256.8565979003906 45.14609909057617 285.50299072265625 147.7689666748047" stroke-width="0.0" fill="rgb(34, 42, 57)" opacity="0.9413612" stroke="rgb(143, 190, 13)" stroke-opacity="0.74361175" stroke-linecap="round" stroke-linejoin="round"/>
    <path d="M 190.57376098632812 69.51557159423828 C 175.1164093017578 69.11412811279297 141.42189025878906 77.57465362548828 152.7638397216797 82.37965393066406 C 124.41941833496094 91.25931549072266 119.6942367553711 109.64574432373047 86.19384765625 114.27407836914062 C 155.48143005371094 61.026336669921875 133.46080017089844 50.86556625366211 144.21717834472656 52.8071403503418 C 168.08082580566406 75.80130767822266 173.96548461914062 49.14157485961914 190.57376098632812 69.51557159423828" stroke-width="0.0" fill="rgb(13, 20, 29)" opacity="0.7811482" stroke="rgb(159, 4, 132)" stroke-opacity="0.1361567" stroke-linecap="round" stroke-linejoin="round"/>
    <path d="M 175.35440063476562 51.695404052734375 C 172.2198486328125 55.40148162841797 180.94473266601562 52.21461868286133 189.2271728515625 57.6788330078125 C 138.31344604492188 37.0922737121582 169.13540649414062 20.420251846313477 109.2138671875 42.484275817871094 C 144.07005310058594 11.113563537597656 177.2229461669922 -6.149012088775635 135.58953857421875 30.5134334564209 C 165.31216430664062 26.277708053588867 185.399658203125 30.23963737487793 175.35440063476562 51.695404052734375" stroke-width="0.0" fill="rgb(22, 26, 36)" opacity="1.0" stroke="rgb(126, 70, 22)" stroke-opacity="0.23491965" stroke-linecap="round" stroke-linejoin="round"/>
    <path d="M 262.4797058105469 438.3978271484375 C 246.5973358154297 483.9405212402344 243.63784790039062 498.88519287109375 236.79637145996094 523.4205322265625 C 225.1927947998047 525.4624633789062 229.29559326171875 513.8012084960938 238.79774475097656 483.9203796386719 C 241.36351013183594 474.1059265136719 248.70350646972656 432.25970458984375 255.0073699951172 423.8187255859375 C 227.3748779296875 547.53076171875 299.50054931640625 317.3143005371094 262.4797058105469 438.3978271484375" stroke-width="0.0" fill="rgb(1, 2, 7)" opacity="0.9025071" stroke="rgb(154, 162, 244)" stroke-opacity="0.29538572" stroke-linecap="round" stroke-linejoin="round"/>
    <path d="M 227.2714385986328 105.44747161865234 C 241.2629852294922 173.84584045410156 241.23944091796875 157.7613525390625 182.1728515625 77.47596740722656 C 172.28195190429688 76.19743347167969 134.9733428955078 90.12276458740234 143.5912628173828 83.19544982910156 C 177.78053283691406 71.5205078125 203.7774658203125 72.90171813964844 152.76626586914062 54.7783317565918 C 180.24627685546875 54.07127380371094 278.3678283691406 38.52490234375 227.2714385986328 105.44747161865234" stroke-width="0.0" fill="rgb(31, 41, 55)" opacity="0.83476305" stroke="rgb(99, 34, 195)" stroke-opacity="0.010493397" stroke-linecap="round" stroke-linejoin="round"/>
    <path d="M 209.19200134277344 115.00846099853516 C 190.5536651611328 95.85667419433594 186.7315673828125 109.45381164550781 176.10369873046875 92.3404769897461 C 170.1119842529297 83.92276000976562 175.6103973388672 85.93199157714844 159.03990173339844 85.85755157470703 C 153.8281707763672 88.09583282470703 166.5350799560547 83.1912612915039 176.54966735839844 76.24493408203125 C 204.73019409179688 67.53575897216797 215.4570770263672 61.276729583740234 209.19200134277344 115.00846099853516" stroke-width="0.0" fill="rgb(27, 36, 46)" opacity="1.0" stroke="rgb(151, 29, 186)" stroke-opacity="0.7548762" stroke-linecap="round" stroke-linejoin="round"/>
    <path d="M 238.58892822265625 116.27372741699219 C 252.86090087890625 100.66915893554688 253.5288543701172 101.26900482177734 241.97581481933594 112.53068542480469 C 245.95838928222656 112.96426391601562 251.445068359375 92.8702621459961 237.20606994628906 94.32320404052734 C 236.218505859375 104.88627624511719 236.74453735351562 99.44570922851562 247.15994262695312 94.6454849243164 C 233.53253173828125 111.55069732666016 239.3487091064453 121.33062744140625 238.58892822265625 116.27372741699219" stroke-width="0.0" fill="rgb(246, 193, 177)" opacity="0.960184" stroke="rgb(231, 219, 73)" stroke-opacity="0.7697857" stroke-linecap="round" stroke-linejoin="round"/>
    <path d="M 176.40957641601562 149.6011199951172 C 161.5672149658203 155.4801483154297 187.02359008789062 162.4202880859375 175.42958068847656 165.67091369628906 C 161.2263641357422 143.673828125 167.8776092529297 166.93655395507812 160.04478454589844 157.21231079101562 C 161.72825622558594 151.79794311523438 170.09683227539062 143.9384765625 183.40550231933594 142.27125549316406 C 190.12173461914062 140.16748046875 190.9337921142578 140.83152770996094 176.40957641601562 149.6011199951172" stroke-width="0.0" fill="rgb(13, 19, 23)" opacity="0.95709336" stroke="rgb(47, 244, 9)" stroke-opacity="0.75997573" stroke-linecap="round" stroke-linejoin="round"/>
    <path d="M 474.8373718261719 488.2429504394531 C 473.6617431640625 471.35333251953125 474.0225524902344 476.7728576660156 473.6700439453125 475.7157897949219 C 477.04644775390625 507.31207275390625 476.550537109375 464.5526428222656 472.2066345214844 420.4179992675781 C 473.7055358886719 493.5771484375 476.0501403808594 491.88714599609375 472.4311218261719 481.29656982421875 C 471.56500244140625 478.8369445800781 472.0692138671875 480.46258544921875 474.8373718261719 488.2429504394531" stroke-width="0.0" fill="rgb(14, 19, 30)" opacity="0.7617407" stroke="rgb(200, 150, 175)" stroke-opacity="0.6617124" stroke-linecap="round" stroke-linejoin="round"/>
    <path d="M 279.4408264160156 379.3082275390625 C 273.35845947265625 379.39703369140625 272.048583984375 388.5092468261719 259.4899597167969 404.95635986328125 C 257.6588134765625 405.80389404296875 260.62017822265625 402.18597412109375 265.0955505371094 384.7250671386719 C 269.3757629394531 381.46044921875 261.8828125 356.4077453613281 336.6328125 258.31890869140625 C 380.9234619140625 291.2505798339844 288.6009216308594 333.8810729980469 279.4408264160156 379.3082275390625" stroke-width="0.0" fill="rgb(180, 221, 239)" opacity="1.0" stroke="rgb(247, 39, 220)" stroke-opacity="0.10372261" stroke-linecap="round" stroke-linejoin="round"/>
    <path d="M 474.0425109863281 477.3356018066406 C 471.6371765136719 490.82940673828125 471.2332458496094 492.8232421875 472.56500244140625 486.1731262207031 C 474.914794921875 468.62945556640625 478.4251403808594 476.63037109375 474.1070861816406 528.0763549804688 C 478.6241760253906 514.2883911132812 475.4167785644531 482.60162353515625 475.9512939453125 508.7125244140625 C 473.9399719238281 512.555908203125 475.62188720703125 506.6546630859375 474.0425109863281 477.3356018066406" stroke-width="0.0" fill="rgb(16, 21, 34)" opacity="0.9466382" stroke="rgb(128, 44, 111)" stroke-opacity="0.6152359" stroke-linecap="round" stroke-linejoin="round"/>
    <path d="M 307.255615234375 338.0292663574219 C 287.49566650390625 376.04644775390625 281.43402099609375 386.2730407714844 264.1420593261719 433.40234375 C 285.3791198730469 356.8335876464844 320.9129943847656 329.3075256347656 271.1235656738281 388.03900146484375 C 282.4896545410156 367.55157470703125 299.1859130859375 341.2630310058594 323.2680969238281 318.8682556152344 C 261.31524658203125 392.2909851074219 278.8721923828125 387.63446044921875 307.255615234375 338.0292663574219" stroke-width="0.0" fill="rgb(0, 13, 40)" opacity="0.9593844" stroke="rgb(105, 104, 129)" stroke-opacity="0.7226961" stroke-linecap="round" stroke-linejoin="round"/>
  </g>
</svg>
