<?xml version="1.0" ?>
<svg xmlns="http://www.w3.org/2000/svg" version="1.1" width="512" height="352">
  <defs/>
  <g>
    <path d="M 0.0 0.0 L 512.0 0.0 L 512.0 352.0 L 0.0 352.0 L 0.0 0.0" stroke-width="0.0" fill="rgb(255, 255, 255)" opacity="1.0" stroke="rgb(0, 0, 0)" stroke-opacity="0.0" stroke-linecap="round" stroke-linejoin="round"/>
    <path d="M 0.0 2.0 L 0.0 351.0 L 511.0 351.0 L 511.0 2.0 L 0.0 2.0" stroke-width="2.0" fill="rgb(255, 255, 255)" opacity="1.0" stroke="rgb(0, 0, 0)" stroke-opacity="0.0" stroke-linecap="round" stroke-linejoin="round"/>
    <path d="M 346.0 114.0 L 321.0 133.0 C 320.3805236816406 143.06161499023438 330.20001220703125 156.55667114257812 342.0 161.0 C 352.99560546875 173.0 347.32110595703125 185.0 344.0 197.0 C 343.5334167480469 206.0 343.72760009765625 215.0 349.0 224.0 C 348.85919189453125 235.0 350.3883972167969 246.0 344.0 257.0 C 337.157958984375 257.5955505371094 318.2353820800781 263.28399658203125 332.0 274.0 C 343.0 273.3193054199219 354.0 282.50469970703125 365.0 277.0 L 373.0 271.0 L 373.0 278.0 L 384.0 284.0 L 439.0 279.0 C 444.20806884765625 274.79351806640625 436.98095703125 274.6150207519531 435.0 272.0 C 441.77459716796875 260.9100646972656 452.58746337890625 269.6309509277344 461.0 261.0 C 480.1178894042969 242.3333282470703 477.5891418457031 223.6666717529297 475.0 205.0 C 468.455322265625 184.6666717529297 445.6373291015625 164.3333282470703 454.0 144.0 C 456.9167785644531 138.93313598632812 465.1870422363281 135.71873474121094 462.0 130.0 C 450.27386474609375 124.13602447509766 442.4961853027344 141.0245819091797 441.0 150.0 C 439.2117919921875 166.2530517578125 449.0986022949219 183.14772033691406 460.0 198.0 C 465.84747314453125 211.6666717529297 466.71014404296875 225.3333282470703 463.0 239.0 L 451.0 252.0 L 452.0 221.0 C 448.8878173828125 207.2357940673828 440.9664306640625 189.60446166992188 424.0 179.0 L 392.0 168.0 C 389.784912109375 154.6666717529297 398.3179016113281 141.3333282470703 390.0 128.0 C 395.1168518066406 121.66666412353516 399.11151123046875 115.33333587646484 398.0 109.0 C 390.3333435058594 109.27464294433594 382.6666564941406 120.66432189941406 375.0 112.0 C 379.00860595703125 108.43479919433594 379.9712219238281 99.95501708984375 375.0 101.0 L 363.0 110.0 L 346.0 114.0" stroke-width="2.0" fill="rgb(162, 162, 162)" opacity="1.0" stroke="rgb(0, 0, 0)" stroke-opacity="0.0" stroke-linecap="round" stroke-linejoin="round"/>
    <path d="M 101.0 115.0 L 101.0 133.0 C 95.05142974853516 144.3333282470703 93.30770874023438 155.6666717529297 101.0 167.0 L 100.0 175.0 L 64.0 187.0 C 55.2622184753418 193.49508666992188 48.821048736572266 203.76895141601562 44.0 213.0 L 36.0 256.0 L 44.0 270.0 C 38.31066131591797 279.18072509765625 40.81896209716797 290.4167175292969 53.0 298.0 C 83.0 312.3304443359375 113.0 307.7035217285156 143.0 311.0 L 166.0 322.0 C 173.52711486816406 313.5364990234375 159.18011474609375 304.0762939453125 152.0 302.0 C 122.33333587646484 295.66729736328125 92.66666412353516 301.7230224609375 63.0 291.0 C 59.383480072021484 288.5436096191406 48.760009765625 283.8193664550781 56.0 280.0 C 62.44926834106445 287.729736328125 72.91497802734375 283.5960693359375 81.0 287.0 L 120.0 287.0 L 124.0 279.0 L 114.0 269.0 C 120.19036865234375 265.09307861328125 118.13212585449219 249.4293670654297 126.0 255.0 C 128.2252655029297 271.87994384765625 151.22369384765625 290.3381652832031 164.0 272.0 C 163.93685913085938 264.4867248535156 154.62252807617188 263.67706298828125 150.0 261.0 C 139.1913604736328 242.0 148.230224609375 223.0 149.0 204.0 C 157.0 198.4077911376953 165.0 190.40237426757812 173.0 194.0 C 179.0226287841797 187.35296630859375 186.64129638671875 181.55406188964844 180.0 174.0 C 168.6666717529297 170.82260131835938 157.3333282470703 175.5298614501953 146.0 183.0 C 144.41925048828125 174.9466552734375 157.2432098388672 171.84083557128906 162.0 165.0 C 166.51771545410156 157.0081787109375 169.49072265625 148.63185119628906 158.0 142.0 C 157.3842315673828 136.9830322265625 163.94190979003906 129.35604858398438 157.0 126.0 C 148.6666717529297 132.8121337890625 140.3333282470703 123.05221557617188 132.0 122.0 L 111.0 123.0 L 101.0 115.0" stroke-width="2.0" fill="rgb(200, 173, 145)" opacity="1.0" stroke="rgb(0, 0, 0)" stroke-opacity="0.0" stroke-linecap="round" stroke-linejoin="round"/>
  </g>
</svg>
