<?xml version="1.0" ?>
<svg xmlns="http://www.w3.org/2000/svg" version="1.1" width="512" height="512">
  <defs/>
  <g>
    <path d="M 377.56793212890625 215.11233520507812 C 405.38751220703125 306.5283203125 334.8231201171875 360.50323486328125 323.66064453125 363.8052978515625 C 273.43218994140625 402.810302734375 144.83277893066406 392.4791564941406 126.99437713623047 262.5204162597656 C 140.91558837890625 140.2044677734375 113.44023895263672 311.33941650390625 231.61671447753906 259.3975830078125 C 259.0373229980469 122.18165588378906 270.5252990722656 374.1503601074219 377.56793212890625 215.11233520507812" stroke-width="0.0" fill="rgb(223, 163, 0)" opacity="0.75714535" stroke="rgb(0, 161, 84)" stroke-opacity="0.64534724" stroke-linecap="round" stroke-linejoin="round"/>
    <path d="M 377.8878173828125 211.79806518554688 C 361.8458557128906 266.38848876953125 332.4870910644531 212.5321044921875 272.7344970703125 240.7635498046875 C 247.0670928955078 229.1290740966797 250.91078186035156 187.8568572998047 126.81671142578125 209.43936157226562 C 163.22894287109375 173.39134216308594 167.09109497070312 149.0966339111328 224.4649200439453 131.8017578125 C 260.16259765625 122.72310638427734 336.5722961425781 123.85700988769531 377.8878173828125 211.79806518554688" stroke-width="0.0" fill="rgb(190, 141, 12)" opacity="0.7825355" stroke="rgb(158, 37, 168)" stroke-opacity="0.013310659" stroke-linecap="round" stroke-linejoin="round"/>
    <path d="M 375.3057556152344 213.17416381835938 C 369.2530822753906 266.26177978515625 372.72314453125 272.4920654296875 325.4326171875 275.3250427246094 C 268.1383972167969 274.2156066894531 277.3475036621094 266.288818359375 262.8432312011719 225.27935791015625 C 237.69482421875 187.38597106933594 264.434326171875 192.44497680664062 298.576171875 197.1073455810547 C 380.31610107421875 196.14540100097656 393.5898742675781 189.93736267089844 375.3057556152344 213.17416381835938" stroke-width="0.0" fill="rgb(0, 75, 164)" opacity="0.55205387" stroke="rgb(108, 253, 145)" stroke-opacity="0.20277667" stroke-linecap="round" stroke-linejoin="round"/>
  </g>
</svg>
