<?xml version="1.0" ?>
<svg xmlns="http://www.w3.org/2000/svg" version="1.1" width="259" height="512">
  <defs/>
  <g>
    <path d="M 265.2225646972656 79.22889709472656 C 250.1822967529297 108.63592529296875 235.7445831298828 108.10767364501953 207.4586944580078 120.95684051513672 C 196.30650329589844 123.4139175415039 206.9558868408203 151.94497680664062 202.20285034179688 156.90467834472656 C 210.02423095703125 53.37708282470703 151.35125732421875 105.30010986328125 172.2312774658203 75.06147766113281 C 292.9220886230469 75.4750747680664 270.5303649902344 73.8604736328125 265.2225646972656 79.22889709472656" stroke-width="0.0" fill="rgb(254, 247, 217)" opacity="0.73352456" stroke="rgb(27, 50, 63)" stroke-opacity="0.509647" stroke-linecap="round" stroke-linejoin="round"/>
    <path d="M 105.61215209960938 69.58008575439453 C 130.48086547851562 123.81661224365234 121.90866088867188 107.43208312988281 81.61685180664062 111.72306823730469 C 64.4478530883789 103.75952911376953 53.54570388793945 115.479736328125 47.31870651245117 89.28429412841797 C 42.229793548583984 37.688411712646484 50.622528076171875 38.86988067626953 102.34646606445312 55.37241744995117 C 105.14321899414062 90.23519897460938 103.25318908691406 60.74171447753906 105.61215209960938 69.58008575439453" stroke-width="0.0" fill="rgb(254, 252, 226)" opacity="0.5817031" stroke="rgb(163, 32, 111)" stroke-opacity="0.9928088" stroke-linecap="round" stroke-linejoin="round"/>
    <path d="M 53.118980407714844 113.29659271240234 C 113.06578826904297 131.88961791992188 36.408897399902344 167.0031280517578 22.76087188720703 110.759765625 C 4.744234085083008 108.06423950195312 4.5678629875183105 136.33082580566406 -16.009536743164062 102.48579406738281 C -21.425701141357422 67.12036895751953 -17.32486915588379 73.83557891845703 33.08181381225586 72.73023223876953 C 53.906639099121094 68.48589324951172 32.885765075683594 76.37163543701172 53.118980407714844 113.29659271240234" stroke-width="0.0" fill="rgb(247, 241, 213)" opacity="0.7629863" stroke="rgb(34, 43, 39)" stroke-opacity="0.7535108" stroke-linecap="round" stroke-linejoin="round"/>
    <path d="M 140.49267578125 -7.402320384979248 C 131.237548828125 33.549354553222656 100.9891128540039 38.61043930053711 58.47071838378906 42.38616943359375 C 0.28068432211875916 41.60734558105469 -9.446260452270508 69.75617980957031 -10.980823516845703 -7.3306074142456055 C -3.077033758163452 -12.881708145141602 0.8733694553375244 -13.008183479309082 66.61402893066406 -12.234685897827148 C 82.00637817382812 -12.41232967376709 87.93211364746094 -14.597524642944336 140.49267578125 -7.402320384979248" stroke-width="0.0" fill="rgb(111, 87, 56)" opacity="0.3231042" stroke="rgb(126, 107, 114)" stroke-opacity="0.43315104" stroke-linecap="round" stroke-linejoin="round"/>
    <path d="M 179.69027709960938 102.45105743408203 C 187.79498291015625 104.64461517333984 190.85903930664062 113.67474365234375 158.79092407226562 133.7859344482422 C 112.89892578125 133.25140380859375 143.46751403808594 137.1855010986328 140.07235717773438 118.57596588134766 C 146.64837646484375 71.88752746582031 153.47552490234375 82.20171356201172 146.65863037109375 61.7935676574707 C 156.56961059570312 81.8852310180664 163.1244354248047 94.53002166748047 179.69027709960938 102.45105743408203" stroke-width="0.0" fill="rgb(255, 255, 228)" opacity="0.5919746" stroke="rgb(25, 184, 196)" stroke-opacity="0.43588758" stroke-linecap="round" stroke-linejoin="round"/>
    <path d="M 202.5081329345703 174.5032958984375 C 140.60504150390625 402.6695861816406 153.8661651611328 387.7521057128906 56.20534896850586 404.3353576660156 C 37.66989517211914 192.71676635742188 25.416013717651367 272.8290100097656 11.417194366455078 267.6349182128906 C -39.20469284057617 249.35560607910156 -3.700834035873413 179.09274291992188 51.3077278137207 181.5216522216797 C 73.9752426147461 263.55810546875 102.58427429199219 77.32769012451172 202.5081329345703 174.5032958984375" stroke-width="0.0" fill="rgb(123, 73, 27)" opacity="0.28192747" stroke="rgb(157, 22, 160)" stroke-opacity="0.10584493" stroke-linecap="round" stroke-linejoin="round"/>
    <path d="M 271.1149597167969 13.966021537780762 C 271.3860168457031 59.829681396484375 278.80584716796875 73.95346069335938 208.46255493164062 67.28536224365234 C 150.56922912597656 27.050413131713867 275.52838134765625 9.531804084777832 135.3931427001953 34.18362045288086 C 145.2769012451172 -79.30665588378906 192.79940795898438 -20.599512100219727 229.31817626953125 -10.12741470336914 C 254.61672973632812 -11.953408241271973 268.14056396484375 -21.313308715820312 271.1149597167969 13.966021537780762" stroke-width="0.0" fill="rgb(52, 77, 33)" opacity="0.2972928" stroke="rgb(192, 203, 125)" stroke-opacity="0.22016044" stroke-linecap="round" stroke-linejoin="round"/>
    <path d="M 179.1521453857422 31.92428970336914 C 50.38951873779297 22.39898681640625 111.14698028564453 45.329280853271484 12.581632614135742 38.62401580810547 C 13.489705085754395 37.77405548095703 7.904491424560547 37.73101043701172 -5.743796348571777 27.907629013061523 C -1.5695029497146606 -2.424360990524292 -4.204111099243164 -5.618959903717041 22.25099754333496 -12.149898529052734 C 101.51656341552734 -18.83958625793457 201.0120391845703 -119.03955078125 179.1521453857422 31.92428970336914" stroke-width="0.0" fill="rgb(93, 82, 52)" opacity="0.3112764" stroke="rgb(205, 30, 212)" stroke-opacity="0.58194727" stroke-linecap="round" stroke-linejoin="round"/>
    <path d="M 180.07891845703125 36.26272964477539 C 187.21023559570312 64.40828704833984 181.96983337402344 73.06977081298828 152.67669677734375 65.21402740478516 C 136.80825805664062 39.66694259643555 128.9655303955078 40.33836364746094 137.77273559570312 34.25474166870117 C 137.07327270507812 14.965258598327637 136.07337951660156 30.81398582458496 136.3203582763672 36.26369094848633 C 163.7685546875 36.21967697143555 176.48709106445312 36.08880615234375 180.07891845703125 36.26272964477539" stroke-width="0.0" fill="rgb(255, 255, 230)" opacity="0.44325507" stroke="rgb(122, 150, 124)" stroke-opacity="0.5250862" stroke-linecap="round" stroke-linejoin="round"/>
    <path d="M 266.76513671875 284.8634033203125 C 283.5497131347656 346.5835266113281 297.273681640625 378.0559387207031 251.46987915039062 463.92083740234375 C 140.52230834960938 477.0159606933594 142.6791534423828 469.4489440917969 152.8094024658203 327.9759216308594 C 198.14169311523438 265.21246337890625 226.05699157714844 266.51025390625 257.3595275878906 278.58135986328125 C 258.8570861816406 287.5288391113281 256.1173400878906 279.3791198730469 266.76513671875 284.8634033203125" stroke-width="0.0" fill="rgb(253, 238, 195)" opacity="0.23179932" stroke="rgb(142, 138, 61)" stroke-opacity="0.67454237" stroke-linecap="round" stroke-linejoin="round"/>
    <path d="M 39.375 5.3618903160095215 C 25.153018951416016 44.62416458129883 25.886558532714844 35.86837387084961 6.589761734008789 39.66807556152344 C -5.709126949310303 33.17573165893555 -5.663336277008057 27.424545288085938 -9.318589210510254 23.62790870666504 C -10.111477851867676 1.392059326171875 -9.499834060668945 -1.6051381826400757 2.727830410003662 -10.32406234741211 C 32.78391647338867 -10.664060592651367 31.203115463256836 -7.88754415512085 39.375 5.3618903160095215" stroke-width="0.0" fill="rgb(9, 13, 3)" opacity="0.3480637" stroke="rgb(101, 219, 107)" stroke-opacity="0.1156532" stroke-linecap="round" stroke-linejoin="round"/>
    <path d="M 41.12714767456055 48.24773025512695 C 50.610382080078125 47.632022857666016 44.776039123535156 46.96107864379883 43.0242805480957 72.22260284423828 C -8.200557708740234 73.73240661621094 -9.586915016174316 76.86032104492188 -8.787954330444336 54.25664138793945 C 14.977852821350098 51.25672149658203 19.447500228881836 56.623146057128906 25.12241554260254 48.247467041015625 C 23.45754051208496 48.47404479980469 23.19601821899414 48.0092658996582 41.12714767456055 48.24773025512695" stroke-width="0.0" fill="rgb(255, 251, 219)" opacity="0.5729174" stroke="rgb(0, 19, 118)" stroke-opacity="0.65882415" stroke-linecap="round" stroke-linejoin="round"/>
    <path d="M 222.31817626953125 79.5716323852539 C 274.4346923828125 93.4149169921875 204.3452606201172 108.70405578613281 173.6634979248047 90.07503509521484 C 162.1396484375 79.88611602783203 162.52593994140625 78.37924194335938 159.6223907470703 75.5286636352539 C 152.81446838378906 64.1494369506836 149.945068359375 66.0741195678711 158.7736358642578 60.7459831237793 C 165.15489196777344 69.4842300415039 167.49560546875 84.9091796875 222.31817626953125 79.5716323852539" stroke-width="0.0" fill="rgb(254, 252, 228)" opacity="0.67678225" stroke="rgb(38, 221, 220)" stroke-opacity="0.14518489" stroke-linecap="round" stroke-linejoin="round"/>
    <path d="M 266.7933654785156 247.11117553710938 C 276.471435546875 270.2814636230469 252.5178680419922 252.29371643066406 189.29051208496094 269.4089050292969 C 185.65455627441406 228.84445190429688 158.6360626220703 217.83416748046875 67.06236267089844 111.52587890625 C 217.26068115234375 142.09332275390625 163.3239288330078 237.65025329589844 204.4279022216797 175.72532653808594 C 268.20269775390625 166.66050720214844 256.9092102050781 158.1771697998047 266.7933654785156 247.11117553710938" stroke-width="0.0" fill="rgb(45, 3, 0)" opacity="0.27234176" stroke="rgb(26, 76, 69)" stroke-opacity="0.9923415" stroke-linecap="round" stroke-linejoin="round"/>
    <path d="M 271.2859191894531 18.252582550048828 C 274.566650390625 56.977718353271484 261.48138427734375 68.29691314697266 226.49423217773438 64.98074340820312 C 237.0565643310547 63.81421661376953 215.8927459716797 64.448974609375 230.64706420898438 49.10529708862305 C 229.71759033203125 27.208173751831055 187.52720642089844 82.5026626586914 227.55038452148438 -5.616831302642822 C 287.129150390625 -6.901386737823486 275.9002685546875 2.094784736633301 271.2859191894531 18.252582550048828" stroke-width="0.0" fill="rgb(82, 84, 49)" opacity="0.47480223" stroke="rgb(133, 195, 191)" stroke-opacity="0.86540526" stroke-linecap="round" stroke-linejoin="round"/>
    <path d="M 135.93161010742188 342.6151123046875 C 135.97457885742188 406.7912292480469 135.8470916748047 350.8329772949219 127.18726348876953 393.1040954589844 C 129.72959899902344 368.69476318359375 124.09074401855469 378.7394714355469 125.47824096679688 361.35980224609375 C 120.74224853515625 341.0906677246094 124.83830261230469 346.7169189453125 133.3999481201172 343.0238342285156 C 134.5081024169922 366.9343566894531 133.29087829589844 347.622802734375 135.93161010742188 342.6151123046875" stroke-width="0.0" fill="rgb(255, 250, 214)" opacity="0.4110048" stroke="rgb(155, 215, 154)" stroke-opacity="0.6041766" stroke-linecap="round" stroke-linejoin="round"/>
    <path d="M 102.22479248046875 128.24232482910156 C 99.3315200805664 162.15919494628906 80.42892456054688 184.7346649169922 -25.88654327392578 179.18023681640625 C 11.297924041748047 30.577850341796875 44.92137908935547 154.47145080566406 52.64918899536133 111.10264587402344 C 61.89727020263672 117.89431762695312 78.59611511230469 120.39155578613281 67.77484893798828 119.47606658935547 C 73.44376373291016 120.11986541748047 79.10228729248047 118.47283935546875 102.22479248046875 128.24232482910156" stroke-width="0.0" fill="rgb(227, 212, 181)" opacity="0.52385354" stroke="rgb(27, 232, 183)" stroke-opacity="0.12738565" stroke-linecap="round" stroke-linejoin="round"/>
    <path d="M 129.97731018066406 167.11410522460938 C 137.2499237060547 157.50125122070312 118.59608459472656 150.83909606933594 114.03933715820312 158.1609344482422 C 113.08074951171875 192.56761169433594 115.55806732177734 147.36447143554688 86.22377014160156 141.33932495117188 C 53.30600357055664 121.33537292480469 63.79856491088867 113.3293685913086 95.83877563476562 125.54613494873047 C 127.16157531738281 134.0247039794922 122.77375793457031 146.3961181640625 129.97731018066406 167.11410522460938" stroke-width="0.0" fill="rgb(255, 241, 194)" opacity="0.53632784" stroke="rgb(42, 221, 180)" stroke-opacity="0.743389" stroke-linecap="round" stroke-linejoin="round"/>
    <path d="M 73.36962127685547 16.68230438232422 C 81.61128997802734 20.110342025756836 76.98567199707031 26.388046264648438 59.29865264892578 32.91059494018555 C 34.53876495361328 29.18671226501465 47.80069351196289 11.558094024658203 33.8143424987793 3.247053384780884 C 46.477272033691406 2.3199594020843506 47.15058898925781 -0.9753361344337463 64.14244842529297 -12.188750267028809 C 69.95203399658203 -14.581645011901855 74.27007293701172 -15.21541976928711 73.36962127685547 16.68230438232422" stroke-width="0.0" fill="rgb(24, 62, 0)" opacity="0.95305884" stroke="rgb(43, 54, 66)" stroke-opacity="0.37901357" stroke-linecap="round" stroke-linejoin="round"/>
    <path d="M 124.26714324951172 148.31822204589844 C 140.72132873535156 186.18511962890625 101.50846862792969 181.11474609375 124.89537811279297 157.5378875732422 C 127.85173034667969 145.48916625976562 121.0808334350586 154.4597930908203 133.3391876220703 152.21092224121094 C 134.6807861328125 152.26234436035156 116.69561767578125 171.46173095703125 128.82508850097656 147.31320190429688 C 122.4878158569336 140.6822052001953 128.981689453125 139.1425018310547 124.26714324951172 148.31822204589844" stroke-width="0.0" fill="rgb(205, 195, 178)" opacity="0.98523694" stroke="rgb(88, 182, 145)" stroke-opacity="0.60783786" stroke-linecap="round" stroke-linejoin="round"/>
    <path d="M 97.69441223144531 357.1108093261719 C 97.18293762207031 358.6425476074219 85.17528533935547 367.434326171875 90.75304412841797 417.55078125 C 81.83981323242188 443.44085693359375 85.93331909179688 422.8103332519531 79.1442642211914 376.8009338378906 C 100.1894302368164 332.7033996582031 74.3218765258789 345.6795654296875 104.12981414794922 343.27935791015625 C 105.06489562988281 339.1688537597656 107.04780578613281 341.8930358886719 97.69441223144531 357.1108093261719" stroke-width="0.0" fill="rgb(139, 67, 0)" opacity="0.5485325" stroke="rgb(193, 222, 243)" stroke-opacity="0.4070272" stroke-linecap="round" stroke-linejoin="round"/>
    <path d="M 103.40453338623047 22.658950805664062 C 92.38325500488281 -0.5220572352409363 84.63494873046875 24.108116149902344 65.21620178222656 34.49624252319336 C 36.242366790771484 36.13264846801758 46.569000244140625 30.155805587768555 50.377349853515625 20.291322708129883 C 51.13718032836914 -11.34199333190918 54.171810150146484 -10.894998550415039 117.78837585449219 -15.058374404907227 C 158.7398223876953 8.824249267578125 157.06507873535156 1.4359184503555298 103.40453338623047 22.658950805664062" stroke-width="0.0" fill="rgb(46, 51, 33)" opacity="0.82087487" stroke="rgb(180, 48, 121)" stroke-opacity="0.36138603" stroke-linecap="round" stroke-linejoin="round"/>
    <path d="M 151.03155517578125 165.1917266845703 C 133.3197784423828 179.696533203125 118.32705688476562 124.45938873291016 82.02726745605469 121.70990753173828 C 58.283634185791016 114.3931884765625 43.41378402709961 123.2523422241211 43.34527587890625 63.93806076049805 C 59.68215560913086 -0.5490995645523071 23.953588485717773 120.84383392333984 78.72937774658203 108.7848892211914 C 74.47966766357422 111.84614562988281 138.0717315673828 112.7345962524414 151.03155517578125 165.1917266845703" stroke-width="0.0" fill="rgb(0, 5, 22)" opacity="0.56042874" stroke="rgb(151, 35, 79)" stroke-opacity="0.77062166" stroke-linecap="round" stroke-linejoin="round"/>
    <path d="M 169.89700317382812 258.25482177734375 C 169.07962036132812 285.8744812011719 154.15158081054688 293.02056884765625 161.25125122070312 304.6017761230469 C 129.90184020996094 303.83172607421875 127.29491424560547 302.2742919921875 84.79237365722656 248.21420288085938 C 89.95553588867188 236.31362915039062 116.4639892578125 263.8994445800781 137.57232666015625 230.40966796875 C 189.1664581298828 224.50181579589844 196.02981567382812 237.7024688720703 169.89700317382812 258.25482177734375" stroke-width="0.0" fill="rgb(164, 123, 82)" opacity="0.97581214" stroke="rgb(237, 66, 192)" stroke-opacity="0.42110828" stroke-linecap="round" stroke-linejoin="round"/>
    <path d="M 127.16860961914062 324.4528503417969 C 130.86268615722656 322.6259765625 115.2705078125 349.5895080566406 104.09871673583984 333.656494140625 C 18.80097770690918 333.3358459472656 128.87261962890625 304.4169616699219 41.985721588134766 295.1714782714844 C 32.66545104980469 224.1737518310547 47.39502716064453 213.70355224609375 186.75331115722656 184.29373168945312 C 107.04627990722656 285.1251525878906 82.33193969726562 197.84088134765625 127.16860961914062 324.4528503417969" stroke-width="0.0" fill="rgb(137, 84, 42)" opacity="0.45256475" stroke="rgb(124, 58, 73)" stroke-opacity="0.7690662" stroke-linecap="round" stroke-linejoin="round"/>
    <path d="M 128.21823120117188 142.405029296875 C 146.3865203857422 169.3220977783203 143.5625762939453 162.5902099609375 135.61880493164062 169.4314727783203 C 121.3714370727539 137.08575439453125 97.93622589111328 135.8628692626953 101.44750213623047 136.5492401123047 C 93.41498565673828 119.6566162109375 88.99884796142578 123.36231231689453 106.34510803222656 129.0206756591797 C 120.2157974243164 137.04844665527344 123.79283905029297 141.09886169433594 128.21823120117188 142.405029296875" stroke-width="0.0" fill="rgb(224, 207, 171)" opacity="0.8664061" stroke="rgb(185, 234, 243)" stroke-opacity="0.97760254" stroke-linecap="round" stroke-linejoin="round"/>
    <path d="M 56.19216537475586 8.464225769042969 C 48.48114776611328 12.856223106384277 44.17000198364258 16.17456817626953 46.720191955566406 35.523399353027344 C 16.364133834838867 28.58795738220215 13.525466918945312 46.06736373901367 -8.733296394348145 19.108919143676758 C 4.039005279541016 -30.563716888427734 14.736166000366211 -20.509906768798828 32.23638153076172 -8.017080307006836 C 48.96506118774414 -9.421009063720703 54.51937484741211 -11.873584747314453 56.19216537475586 8.464225769042969" stroke-width="0.0" fill="rgb(0, 35, 10)" opacity="0.48164284" stroke="rgb(102, 161, 7)" stroke-opacity="0.95247304" stroke-linecap="round" stroke-linejoin="round"/>
    <path d="M 58.03994369506836 -0.6951987147331238 C 63.778602600097656 24.399063110351562 79.9033432006836 18.961570739746094 56.855323791503906 21.94116973876953 C 37.70014572143555 14.147452354431152 35.607635498046875 12.4724760055542 34.52960205078125 9.318445205688477 C 37.269630432128906 -2.881824016571045 39.071285247802734 -4.795130252838135 41.123966217041016 -5.378903388977051 C 57.169212341308594 -8.361748695373535 57.40308380126953 -13.433065414428711 58.03994369506836 -0.6951987147331238" stroke-width="0.0" fill="rgb(58, 88, 39)" opacity="0.72637" stroke="rgb(126, 67, 22)" stroke-opacity="0.033328045" stroke-linecap="round" stroke-linejoin="round"/>
    <path d="M 103.09705352783203 8.310230255126953 C 72.90764617919922 35.105621337890625 83.11190795898438 38.97455596923828 29.746475219726562 37.267173767089844 C 17.7779541015625 37.23031997680664 34.68179702758789 43.57697677612305 5.5787553787231445 41.20009231567383 C 49.04151153564453 20.754013061523438 31.1788330078125 -13.86223316192627 26.403987884521484 27.001075744628906 C 90.28201293945312 28.916364669799805 39.58538818359375 23.040725708007812 103.09705352783203 8.310230255126953" stroke-width="0.0" fill="rgb(109, 111, 76)" opacity="0.6377125" stroke="rgb(86, 65, 123)" stroke-opacity="0.4307638" stroke-linecap="round" stroke-linejoin="round"/>
    <path d="M 157.84176635742188 323.185302734375 C 144.73924255371094 304.2008361816406 161.52085876464844 303.68408203125 147.96249389648438 322.5656433105469 C 110.99555969238281 321.5052185058594 108.10716247558594 335.2796630859375 113.5290298461914 303.0851135253906 C 116.35452270507812 275.6844787597656 113.28071594238281 270.94171142578125 170.72732543945312 257.00384521484375 C 156.8330535888672 299.5694580078125 179.2273712158203 300.5479431152344 157.84176635742188 323.185302734375" stroke-width="0.0" fill="rgb(189, 84, 0)" opacity="0.49516547" stroke="rgb(17, 226, 15)" stroke-opacity="0.23443542" stroke-linecap="round" stroke-linejoin="round"/>
    <path d="M 234.34226989746094 7.301589012145996 C 122.28008270263672 14.880453109741211 202.50656127929688 35.79201889038086 128.088623046875 22.433368682861328 C 118.0791015625 10.665069580078125 112.26835632324219 31.949705123901367 98.84803009033203 28.281808853149414 C 68.28714752197266 -11.083856582641602 102.06678009033203 -9.344657897949219 123.08708190917969 -8.85983657836914 C 147.37940979003906 -10.104722023010254 181.39549255371094 -64.30827331542969 234.34226989746094 7.301589012145996" stroke-width="0.0" fill="rgb(68, 104, 41)" opacity="0.4366655" stroke="rgb(56, 158, 189)" stroke-opacity="0.15728869" stroke-linecap="round" stroke-linejoin="round"/>
    <path d="M 90.51318359375 -16.28189468383789 C 89.1524658203125 8.734419822692871 92.5416488647461 9.455968856811523 92.89096069335938 8.045244216918945 C 63.57738494873047 13.861434936523438 54.66674041748047 14.43373966217041 55.24903869628906 -1.2804948091506958 C 51.22313690185547 -14.140244483947754 54.78248596191406 -12.86928939819336 84.86932373046875 -11.17680835723877 C 91.34757232666016 -11.59201431274414 94.96334075927734 -13.2365140914917 90.51318359375 -16.28189468383789" stroke-width="0.0" fill="rgb(0, 28, 1)" opacity="0.40933183" stroke="rgb(188, 78, 147)" stroke-opacity="0.93407524" stroke-linecap="round" stroke-linejoin="round"/>
    <path d="M 150.89779663085938 373.80792236328125 C 149.19993591308594 356.89373779296875 148.5242462158203 398.7416687011719 147.4331817626953 430.3351745605469 C 137.99871826171875 394.5573425292969 136.96633911132812 417.1600341796875 137.8383026123047 385.9855041503906 C 134.41339111328125 315.5431213378906 132.44378662109375 352.80462646484375 154.26832580566406 332.0689392089844 C 156.52325439453125 353.6344909667969 150.20985412597656 358.6831970214844 150.89779663085938 373.80792236328125" stroke-width="0.0" fill="rgb(186, 135, 82)" opacity="0.9408052" stroke="rgb(79, 10, 107)" stroke-opacity="0.099282175" stroke-linecap="round" stroke-linejoin="round"/>
    <path d="M 178.98294067382812 94.01083374023438 C 218.47833251953125 100.5120849609375 190.33119201660156 123.71988677978516 159.5484619140625 85.02311706542969 C 148.91583251953125 68.89627075195312 148.9483642578125 66.81001281738281 150.96420288085938 72.40211486816406 C 147.39358520507812 60.58344650268555 126.49960327148438 32.30827713012695 136.01119995117188 42.724365234375 C 156.23028564453125 66.20697784423828 153.9093017578125 75.98016357421875 178.98294067382812 94.01083374023438" stroke-width="0.0" fill="rgb(70, 81, 92)" opacity="0.8610983" stroke="rgb(58, 44, 59)" stroke-opacity="0.8271818" stroke-linecap="round" stroke-linejoin="round"/>
    <path d="M 163.0780029296875 153.1314697265625 C 160.16246032714844 150.36233520507812 163.294677734375 162.39181518554688 155.9178924560547 159.22181701660156 C 152.00279235839844 158.49925231933594 154.17886352539062 151.61224365234375 145.9509735107422 147.56820678710938 C 143.2639923095703 138.79299926757812 155.60137939453125 149.02207946777344 157.57469177246094 146.0184326171875 C 161.7106170654297 151.2278594970703 160.71949768066406 142.5370330810547 163.0780029296875 153.1314697265625" stroke-width="0.0" fill="rgb(255, 244, 210)" opacity="0.6248651" stroke="rgb(184, 190, 35)" stroke-opacity="0.59480524" stroke-linecap="round" stroke-linejoin="round"/>
    <path d="M 125.44064331054688 381.8668518066406 C 137.0613250732422 411.66558837890625 124.96005249023438 409.373291015625 123.27592468261719 425.97216796875 C 119.47946166992188 418.08502197265625 120.57140350341797 403.146240234375 115.40557098388672 383.73291015625 C 107.90577697753906 360.808837890625 109.27899169921875 347.33001708984375 106.9097900390625 338.66632080078125 C 125.74917602539062 360.7228088378906 126.33413696289062 377.6996154785156 125.44064331054688 381.8668518066406" stroke-width="0.0" fill="rgb(169, 81, 0)" opacity="0.48733637" stroke="rgb(9, 248, 62)" stroke-opacity="0.42058578" stroke-linecap="round" stroke-linejoin="round"/>
    <path d="M 161.52587890625 23.84881019592285 C 141.52554321289062 30.794010162353516 147.3568115234375 23.005470275878906 136.33885192871094 19.559125900268555 C 103.63321685791016 9.733996391296387 123.27273559570312 22.343730926513672 99.81784057617188 25.203405380249023 C 141.10260009765625 3.8884267807006836 144.7978057861328 15.512314796447754 144.4002227783203 -5.098604679107666 C 166.7631072998047 -26.451324462890625 160.94688415527344 -22.60782241821289 161.52587890625 23.84881019592285" stroke-width="0.0" fill="rgb(92, 87, 58)" opacity="0.93220204" stroke="rgb(73, 31, 153)" stroke-opacity="0.5338279" stroke-linecap="round" stroke-linejoin="round"/>
    <path d="M 150.6276397705078 395.1333923339844 C 148.77772521972656 399.5955810546875 149.85467529296875 420.4473876953125 145.31655883789062 454.7696838378906 C 138.51097106933594 438.1433410644531 144.65179443359375 432.56134033203125 136.83206176757812 402.13885498046875 C 149.92483520507812 404.84033203125 134.49313354492188 387.5856628417969 150.46389770507812 369.72637939453125 C 152.2022247314453 385.7200012207031 146.51254272460938 385.2192687988281 150.6276397705078 395.1333923339844" stroke-width="0.0" fill="rgb(164, 87, 13)" opacity="0.40402701" stroke="rgb(128, 213, 37)" stroke-opacity="0.0027137636" stroke-linecap="round" stroke-linejoin="round"/>
    <path d="M 43.27069854736328 213.0050811767578 C 82.11004638671875 270.4491271972656 7.809513092041016 228.89566040039062 22.45322608947754 228.56333923339844 C -3.617100715637207 272.97021484375 -9.495564460754395 262.4408874511719 -10.960826873779297 217.52003479003906 C -1.7521744966506958 203.4293670654297 10.645881652832031 215.996826171875 29.477571487426758 188.8271942138672 C 50.00774002075195 187.65444946289062 60.106624603271484 194.21974182128906 43.27069854736328 213.0050811767578" stroke-width="0.0" fill="rgb(42, 72, 78)" opacity="0.19903028" stroke="rgb(167, 119, 125)" stroke-opacity="0.56445" stroke-linecap="round" stroke-linejoin="round"/>
    <path d="M 126.8397445678711 442.32684326171875 C 128.38253784179688 434.67547607421875 126.14985656738281 444.23065185546875 121.7304916381836 460.2379455566406 C 119.86625671386719 432.7457275390625 120.74159240722656 436.83538818359375 122.4423599243164 428.61920166015625 C 117.48236846923828 437.1889343261719 126.45030212402344 417.9621276855469 116.69611358642578 378.6972961425781 C 134.56716918945312 387.7168884277344 124.21891021728516 434.3879699707031 126.8397445678711 442.32684326171875" stroke-width="0.0" fill="rgb(160, 76, 2)" opacity="0.41974813" stroke="rgb(195, 189, 223)" stroke-opacity="0.559672" stroke-linecap="round" stroke-linejoin="round"/>
  </g>
</svg>
