<?xml version="1.0" ?>
<svg xmlns="http://www.w3.org/2000/svg" version="1.1" width="508" height="512">
  <defs/>
  <g>
    <path d="M 0.0 0.0 L 508.0 0.0 L 508.0 512.0 L 0.0 512.0 L 0.0 0.0" stroke-width="0.0" fill="rgb(255, 255, 255)" opacity="1.0" stroke="rgb(0, 0, 0)" stroke-opacity="0.0" stroke-linecap="round" stroke-linejoin="round"/>
    <path d="M 6.0 12.0 L 6.0 157.0 L 9.0 162.0 L 94.0 161.0 C 94.8565444946289 154.7274932861328 92.2684097290039 146.34999084472656 101.0 143.0 C 104.71061706542969 135.1641082763672 95.28463745117188 122.19025421142578 108.0 119.0 C 110.69815826416016 103.0 106.27069854736328 87.0 112.0 71.0 L 121.0 62.0 C 121.66407775878906 58.72342300415039 121.93649291992188 44.98682403564453 129.0 51.0 L 130.0 62.0 L 140.0 74.0 L 142.0 118.0 C 155.32472229003906 120.78839111328125 148.24566650390625 135.1893768310547 150.0 144.0 C 157.17391967773438 147.89752197265625 157.07066345214844 155.49923706054688 157.0 161.0 L 260.0 162.0 L 266.0 153.0 C 266.07049560546875 143.2722930908203 266.7059631347656 131.08291625976562 278.0 123.0 L 289.0 134.0 C 292.5364685058594 143.0 287.4664611816406 152.0 297.0 161.0 L 313.0 161.0 C 315.6290283203125 152.6666717529297 321.7533264160156 144.3333282470703 331.0 136.0 L 350.0 126.0 C 351.9969787597656 121.02958679199219 347.1965026855469 112.90097045898438 356.0 111.0 C 364.25390625 112.66720581054688 361.7168884277344 121.1982192993164 362.0 126.0 C 372.0635070800781 129.29537963867188 383.7749328613281 137.92941284179688 391.0 148.0 L 397.0 160.0 L 499.0 161.0 L 499.0 10.0 L 6.0 12.0" stroke-width="2.0" fill="rgb(146, 177, 178)" opacity="1.0" stroke="rgb(0, 0, 0)" stroke-opacity="0.0" stroke-linecap="round" stroke-linejoin="round"/>
    <path d="M 6.0 424.0 L 8.0 503.0 L 421.0 504.0 L 433.0 498.0 L 486.0 496.0 L 488.0 502.0 L 500.0 502.0 L 501.0 434.0 L 496.0 431.0 L 232.0 430.0 L 232.0 421.0 L 89.0 421.0 L 86.0 424.0 L 63.0 425.0 C 59.715232849121094 420.3254699707031 59.864097595214844 413.467041015625 53.0 413.0 C 44.73570251464844 410.35345458984375 43.75386428833008 423.99310302734375 37.0 424.0 L 9.0 420.0 L 6.0 424.0" stroke-width="2.0" fill="rgb(119, 153, 165)" opacity="1.0" stroke="rgb(0, 0, 0)" stroke-opacity="0.0" stroke-linecap="round" stroke-linejoin="round"/>
    <path d="M 258.0 254.0 L 198.0 255.0 C 189.3333282470703 249.61683654785156 180.6666717529297 252.93673706054688 172.0 252.0 L 168.0 257.0 L 170.0 287.0 L 167.0 295.0 C 156.3333282470703 290.8509826660156 145.6666717529297 293.8293151855469 135.0 293.0 L 130.0 302.0 L 121.0 303.0 L 103.0 280.0 C 90.33333587646484 275.1605224609375 77.66666412353516 273.416259765625 65.0 283.0 L 53.0 303.0 L 36.0 304.0 C 37.406497955322266 308.4181213378906 32.709354400634766 308.10626220703125 30.0 310.0 L 10.0 311.0 L 8.0 398.0 L 21.0 398.0 L 20.0 382.0 C 18.99982261657715 386.709228515625 15.375024795532227 384.4177551269531 15.0 381.0 C 17.638872146606445 376.40606689453125 10.7197847366333 365.8356628417969 19.0 366.0 C 17.01340103149414 363.00762939453125 22.3265323638916 356.721435546875 21.0 363.0 L 32.0 368.0 L 32.0 399.0 L 239.0 400.0 L 240.0 327.0 C 247.42752075195312 318.34112548828125 258.9307556152344 326.066650390625 268.0 322.0 L 266.0 284.0 C 252.66868591308594 279.34112548828125 259.8243408203125 264.36834716796875 258.0 254.0" stroke-width="2.0" fill="rgb(143, 171, 181)" opacity="1.0" stroke="rgb(0, 0, 0)" stroke-opacity="0.0" stroke-linecap="round" stroke-linejoin="round"/>
    <path d="M 94.0 164.0 L 7.0 165.0 L 8.0 307.0 C 17.180721282958984 305.08599853515625 28.41672134399414 311.9164123535156 36.0 301.0 L 50.0 301.0 L 56.0 289.0 C 65.15772247314453 278.95343017578125 74.69597625732422 274.37249755859375 85.0 273.0 L 96.0 274.0 L 94.0 164.0" stroke-width="2.0" fill="rgb(229, 191, 167)" opacity="1.0" stroke="rgb(0, 0, 0)" stroke-opacity="0.0" stroke-linecap="round" stroke-linejoin="round"/>
    <path d="M 126.0 56.0 L 113.0 74.0 L 111.0 120.0 L 103.0 124.0 L 104.0 145.0 L 97.0 148.0 L 99.0 277.0 L 112.0 287.0 L 120.0 302.0 L 130.0 301.0 L 133.0 292.0 C 143.6666717529297 293.4248962402344 154.3333282470703 288.8788146972656 165.0 294.0 L 169.0 291.0 L 168.0 252.0 L 152.0 251.0 L 153.0 150.0 L 148.0 146.0 L 147.0 123.0 L 139.0 120.0 L 138.0 75.0 C 137.25511169433594 67.8921127319336 125.02727508544922 63.845455169677734 126.0 56.0" stroke-width="2.0" fill="rgb(167, 167, 166)" opacity="1.0" stroke="rgb(0, 0, 0)" stroke-opacity="0.0" stroke-linecap="round" stroke-linejoin="round"/>
    <path d="M 156.0 165.0 L 157.0 250.0 L 262.0 250.0 L 261.0 164.0 L 156.0 165.0" stroke-width="2.0" fill="rgb(228, 189, 167)" opacity="1.0" stroke="rgb(0, 0, 0)" stroke-opacity="0.0" stroke-linecap="round" stroke-linejoin="round"/>
    <path d="M 212.0 253.0 L 210.0 305.0 L 196.0 307.0 L 197.0 399.0 L 238.0 400.0 L 242.0 324.0 L 267.0 323.0 L 266.0 286.0 L 258.0 278.0 L 256.0 253.0 L 212.0 253.0" stroke-width="2.0" fill="rgb(96, 148, 172)" opacity="1.0" stroke="rgb(0, 0, 0)" stroke-opacity="0.0" stroke-linecap="round" stroke-linejoin="round"/>
    <path d="M 461.0 296.0 L 460.0 329.0 L 428.0 330.0 L 426.0 409.0 L 430.0 409.0 L 429.0 389.0 C 434.00238037109375 385.9584655761719 429.7012634277344 378.8584899902344 436.0 379.0 C 435.5830383300781 383.5652770996094 445.0304260253906 390.01104736328125 438.0 393.0 L 439.0 410.0 L 475.0 410.0 C 480.0712890625 399.9951477050781 468.873779296875 387.3398132324219 479.0 379.0 L 481.0 410.0 L 498.0 410.0 L 501.0 397.0 L 501.0 297.0 L 461.0 296.0" stroke-width="2.0" fill="rgb(174, 190, 192)" opacity="1.0" stroke="rgb(0, 0, 0)" stroke-opacity="0.0" stroke-linecap="round" stroke-linejoin="round"/>
    <path d="M 397.0 165.0 L 397.0 200.0 L 400.0 210.0 L 440.0 210.0 C 445.6666564941406 215.89596557617188 451.3333435058594 209.0364990234375 457.0 211.0 L 459.0 248.0 L 464.0 260.0 L 495.0 260.0 L 500.0 263.0 L 501.0 186.0 L 498.0 164.0 L 397.0 165.0" stroke-width="2.0" fill="rgb(229, 190, 167)" opacity="1.0" stroke="rgb(0, 0, 0)" stroke-opacity="0.0" stroke-linecap="round" stroke-linejoin="round"/>
    <path d="M 268.0 326.0 L 242.0 327.0 L 244.0 388.0 L 241.0 401.0 L 7.0 401.0 L 6.0 410.0 C 13.433028221130371 408.7415466308594 18.66449737548828 415.2209167480469 22.0 422.0 L 39.0 422.0 L 49.0 410.0 C 54.84286117553711 407.47235107421875 63.6915168762207 415.66912841796875 64.0 422.0 C 72.33333587646484 420.6851806640625 80.66666412353516 425.2950134277344 89.0 418.0 L 233.0 419.0 L 237.0 411.0 L 247.0 410.0 L 248.0 351.0 L 268.0 348.0 L 268.0 326.0" stroke-width="2.0" fill="rgb(44, 44, 63)" opacity="1.0" stroke="rgb(0, 0, 0)" stroke-opacity="0.0" stroke-linecap="round" stroke-linejoin="round"/>
    <path d="M 146.0 307.0 L 144.0 357.0 L 133.0 360.0 L 133.0 399.0 L 140.0 399.0 L 140.0 374.0 C 131.6448516845703 378.9932556152344 141.8304901123047 366.1786804199219 144.0 367.0 L 151.0 373.0 L 145.0 375.0 L 146.0 400.0 L 167.0 400.0 L 169.0 393.0 L 173.0 400.0 L 195.0 400.0 L 196.0 309.0 L 146.0 307.0" stroke-width="2.0" fill="rgb(227, 224, 212)" opacity="1.0" stroke="rgb(0, 0, 0)" stroke-opacity="0.0" stroke-linecap="round" stroke-linejoin="round"/>
    <path d="M 234.0 426.0 L 235.0 430.0 L 500.0 430.0 L 501.0 413.0 L 238.0 413.0 L 234.0 426.0" stroke-width="2.0" fill="rgb(117, 98, 104)" opacity="1.0" stroke="rgb(0, 0, 0)" stroke-opacity="0.0" stroke-linecap="round" stroke-linejoin="round"/>
    <path d="M 456.0 213.0 L 448.0 216.0 C 443.7381896972656 218.06185913085938 437.6983642578125 207.53347778320312 435.0 215.0 L 378.0 213.0 L 378.0 248.0 C 385.8437805175781 255.0 390.4554748535156 262.0 389.0 269.0 L 379.0 271.0 L 377.0 290.0 L 399.0 291.0 L 400.0 263.0 L 456.0 261.0 L 456.0 213.0" stroke-width="2.0" fill="rgb(46, 49, 69)" opacity="1.0" stroke="rgb(0, 0, 0)" stroke-opacity="0.0" stroke-linecap="round" stroke-linejoin="round"/>
    <path d="M 374.0 294.0 L 374.0 366.0 L 423.0 368.0 L 426.0 294.0 L 374.0 294.0" stroke-width="2.0" fill="rgb(219, 189, 171)" opacity="1.0" stroke="rgb(0, 0, 0)" stroke-opacity="0.0" stroke-linecap="round" stroke-linejoin="round"/>
    <path d="M 429.0 330.0 L 426.0 336.0 L 426.0 410.0 C 436.4939270019531 415.10626220703125 432.1877136230469 401.1734619140625 434.0 396.0 L 430.0 389.0 L 435.0 380.0 L 440.0 389.0 C 434.8310852050781 396.3333435058594 437.2485046386719 403.6666564941406 438.0 411.0 L 463.0 411.0 L 463.0 332.0 L 429.0 330.0" stroke-width="2.0" fill="rgb(230, 224, 211)" opacity="1.0" stroke="rgb(0, 0, 0)" stroke-opacity="0.0" stroke-linecap="round" stroke-linejoin="round"/>
    <path d="M 401.0 265.0 L 403.0 292.0 L 495.0 293.0 L 494.0 263.0 L 401.0 265.0" stroke-width="2.0" fill="rgb(147, 145, 147)" opacity="1.0" stroke="rgb(0, 0, 0)" stroke-opacity="0.0" stroke-linecap="round" stroke-linejoin="round"/>
    <path d="M 466.0 331.0 L 465.0 410.0 L 476.0 410.0 L 478.0 379.0 L 480.0 410.0 L 497.0 410.0 L 497.0 332.0 L 466.0 331.0" stroke-width="2.0" fill="rgb(94, 150, 177)" opacity="1.0" stroke="rgb(0, 0, 0)" stroke-opacity="0.0" stroke-linecap="round" stroke-linejoin="round"/>
    <path d="M 363.0 134.0 C 352.6666564941406 124.63792419433594 342.3333435058594 132.41929626464844 332.0 138.0 C 316.27423095703125 150.6666717529297 315.73834228515625 163.3333282470703 315.0 176.0 L 373.0 177.0 L 372.0 152.0 L 363.0 134.0" stroke-width="2.0" fill="rgb(100, 158, 179)" opacity="1.0" stroke="rgb(0, 0, 0)" stroke-opacity="0.0" stroke-linecap="round" stroke-linejoin="round"/>
    <path d="M 374.0 326.0 L 375.0 367.0 L 424.0 367.0 L 424.0 327.0 L 374.0 326.0" stroke-width="2.0" fill="rgb(225, 185, 163)" opacity="1.0" stroke="rgb(0, 0, 0)" stroke-opacity="0.0" stroke-linecap="round" stroke-linejoin="round"/>
    <path d="M 129.0 167.0 L 128.0 250.0 L 152.0 250.0 L 152.0 167.0 L 129.0 167.0" stroke-width="2.0" fill="rgb(47, 48, 66)" opacity="1.0" stroke="rgb(0, 0, 0)" stroke-opacity="0.0" stroke-linecap="round" stroke-linejoin="round"/>
    <path d="M 270.0 45.0 C 248.31163024902344 58.35136413574219 253.0970458984375 83.27824401855469 274.0 92.0 C 285.2182922363281 96.31293487548828 303.24652099609375 87.94115447998047 307.0 73.0 C 307.58331298828125 64.33333587646484 306.9056701660156 55.66666793823242 296.0 47.0 C 287.6666564941406 41.98392868041992 279.3333435058594 41.89316940307617 270.0 45.0" stroke-width="2.0" fill="rgb(250, 243, 227)" opacity="1.0" stroke="rgb(0, 0, 0)" stroke-opacity="0.0" stroke-linecap="round" stroke-linejoin="round"/>
    <path d="M 278.0 126.0 C 265.6921081542969 138.0 270.29534912109375 150.0 269.0 162.0 L 264.0 164.0 L 266.0 212.0 L 267.0 206.0 C 272.2318115234375 203.21414184570312 276.9112243652344 207.9540252685547 275.0 213.0 L 285.0 210.0 C 288.1289978027344 215.00050354003906 292.34112548828125 215.00050354003906 294.0 210.0 L 293.0 163.0 L 288.0 161.0 C 286.61871337890625 149.3333282470703 292.0710754394531 137.6666717529297 278.0 126.0" stroke-width="2.0" fill="rgb(129, 133, 137)" opacity="1.0" stroke="rgb(0, 0, 0)" stroke-opacity="0.0" stroke-linecap="round" stroke-linejoin="round"/>
    <path d="M 171.0 252.0 L 170.0 305.0 L 209.0 305.0 L 207.0 274.0 L 195.0 253.0 L 171.0 252.0" stroke-width="2.0" fill="rgb(78, 115, 139)" opacity="1.0" stroke="rgb(0, 0, 0)" stroke-opacity="0.0" stroke-linecap="round" stroke-linejoin="round"/>
    <path d="M 321.0 308.0 L 321.0 350.0 L 364.0 349.0 L 364.0 308.0 L 321.0 308.0" stroke-width="2.0" fill="rgb(114, 164, 182)" opacity="1.0" stroke="rgb(0, 0, 0)" stroke-opacity="0.0" stroke-linecap="round" stroke-linejoin="round"/>
    <path d="M 402.0 263.0 L 402.0 292.0 L 457.0 292.0 L 457.0 263.0 L 402.0 263.0" stroke-width="2.0" fill="rgb(219, 215, 204)" opacity="1.0" stroke="rgb(0, 0, 0)" stroke-opacity="0.0" stroke-linecap="round" stroke-linejoin="round"/>
    <path d="M 380.0 370.0 L 381.0 410.0 C 386.1114501953125 410.5651550292969 390.8449401855469 410.5779113769531 391.0 404.0 L 396.0 410.0 L 412.0 410.0 L 413.0 394.0 L 409.0 389.0 L 414.0 379.0 L 421.0 390.0 C 413.36383056640625 396.3333435058594 418.4836120605469 402.6666564941406 417.0 409.0 L 424.0 410.0 L 424.0 370.0 L 380.0 370.0" stroke-width="2.0" fill="rgb(72, 86, 103)" opacity="1.0" stroke="rgb(0, 0, 0)" stroke-opacity="0.0" stroke-linecap="round" stroke-linejoin="round"/>
    <path d="M 359.0 130.0 C 367.0093994140625 135.1588897705078 370.4639587402344 144.2173309326172 373.0 151.0 L 375.0 210.0 L 378.0 214.0 L 392.0 213.0 L 392.0 157.0 C 387.2366027832031 144.6727752685547 371.6786804199219 129.92991638183594 359.0 130.0" stroke-width="2.0" fill="rgb(46, 49, 67)" opacity="1.0" stroke="rgb(0, 0, 0)" stroke-opacity="0.0" stroke-linecap="round" stroke-linejoin="round"/>
    <path d="M 459.0 297.0 L 460.0 329.0 L 501.0 329.0 L 501.0 296.0 L 459.0 297.0" stroke-width="2.0" fill="rgb(226, 219, 206)" opacity="1.0" stroke="rgb(0, 0, 0)" stroke-opacity="0.0" stroke-linecap="round" stroke-linejoin="round"/>
    <path d="M 55.0 299.0 L 56.0 302.0 L 116.0 302.0 C 116.84278106689453 290.3209533691406 100.89646911621094 276.3708190917969 90.0 276.0 C 78.24003601074219 273.67034912109375 58.99245834350586 282.5843505859375 55.0 299.0" stroke-width="2.0" fill="rgb(83, 115, 133)" opacity="1.0" stroke="rgb(0, 0, 0)" stroke-opacity="0.0" stroke-linecap="round" stroke-linejoin="round"/>
    <path d="M 171.0 252.0 L 170.0 305.0 L 189.0 306.0 L 191.0 253.0 L 171.0 252.0" stroke-width="2.0" fill="rgb(97, 156, 182)" opacity="1.0" stroke="rgb(0, 0, 0)" stroke-opacity="0.0" stroke-linecap="round" stroke-linejoin="round"/>
    <path d="M 355.0 88.0 L 431.0 89.0 L 415.0 81.0 C 405.4638366699219 83.7696304321289 409.5441589355469 73.56983947753906 405.0 68.0 C 392.9403991699219 53.52969741821289 373.8092956542969 66.63529205322266 373.0 81.0 C 366.9723205566406 79.8853530883789 360.6885070800781 81.88002014160156 355.0 88.0" stroke-width="2.0" fill="rgb(243, 238, 219)" opacity="1.0" stroke="rgb(0, 0, 0)" stroke-opacity="0.0" stroke-linecap="round" stroke-linejoin="round"/>
    <path d="M 268.0 325.0 L 241.0 325.0 L 243.0 410.0 L 247.0 410.0 L 248.0 351.0 L 268.0 350.0 L 268.0 325.0" stroke-width="2.0" fill="rgb(50, 51, 71)" opacity="1.0" stroke="rgb(0, 0, 0)" stroke-opacity="0.0" stroke-linecap="round" stroke-linejoin="round"/>
    <path d="M 459.0 264.0 L 459.0 288.0 L 463.0 294.0 L 495.0 293.0 L 495.0 263.0 L 459.0 264.0" stroke-width="2.0" fill="rgb(44, 47, 67)" opacity="1.0" stroke="rgb(0, 0, 0)" stroke-opacity="0.0" stroke-linecap="round" stroke-linejoin="round"/>
    <path d="M 428.0 294.0 L 427.0 328.0 L 458.0 329.0 L 458.0 295.0 L 428.0 294.0" stroke-width="2.0" fill="rgb(46, 50, 69)" opacity="1.0" stroke="rgb(0, 0, 0)" stroke-opacity="0.0" stroke-linecap="round" stroke-linejoin="round"/>
    <path d="M 127.0 64.0 L 128.0 145.0 L 146.0 146.0 L 147.0 122.0 L 139.0 121.0 L 140.0 82.0 C 136.78012084960938 75.64456939697266 137.10696411132812 66.05349731445312 127.0 64.0" stroke-width="2.0" fill="rgb(47, 51, 71)" opacity="1.0" stroke="rgb(0, 0, 0)" stroke-opacity="0.0" stroke-linecap="round" stroke-linejoin="round"/>
    <path d="M 335.0 263.0 L 336.0 269.0 L 388.0 268.0 C 387.9355163574219 258.7068786621094 378.0526123046875 246.6901397705078 368.0 244.0 L 347.0 247.0 L 335.0 263.0" stroke-width="2.0" fill="rgb(103, 162, 185)" opacity="1.0" stroke="rgb(0, 0, 0)" stroke-opacity="0.0" stroke-linecap="round" stroke-linejoin="round"/>
    <path d="M 13.0 256.0 L 75.0 257.0 C 69.66666412353516 249.85995483398438 64.33333587646484 249.6614532470703 59.0 248.0 C 62.9047737121582 235.4501495361328 45.79254150390625 225.61160278320312 36.0 233.0 C 29.402956008911133 238.3333282470703 28.306894302368164 243.6666717529297 29.0 249.0 L 13.0 256.0" stroke-width="2.0" fill="rgb(251, 240, 220)" opacity="1.0" stroke="rgb(0, 0, 0)" stroke-opacity="0.0" stroke-linecap="round" stroke-linejoin="round"/>
    <path d="M 271.0 301.0 L 270.0 350.0 L 289.0 350.0 L 289.0 301.0 L 271.0 301.0" stroke-width="2.0" fill="rgb(241, 237, 223)" opacity="1.0" stroke="rgb(0, 0, 0)" stroke-opacity="0.0" stroke-linecap="round" stroke-linejoin="round"/>
    <path d="M 393.0 154.0 L 395.0 162.0 L 501.0 161.0 L 500.0 153.0 L 393.0 154.0" stroke-width="2.0" fill="rgb(159, 185, 183)" opacity="1.0" stroke="rgb(0, 0, 0)" stroke-opacity="0.0" stroke-linecap="round" stroke-linejoin="round"/>
    <path d="M 279.0 126.0 L 280.0 212.0 L 285.0 210.0 C 288.1289978027344 215.00050354003906 292.34112548828125 215.00050354003906 294.0 210.0 L 293.0 162.0 L 288.0 161.0 L 287.0 136.0 L 279.0 126.0" stroke-width="2.0" fill="rgb(51, 52, 69)" opacity="1.0" stroke="rgb(0, 0, 0)" stroke-opacity="0.0" stroke-linecap="round" stroke-linejoin="round"/>
    <path d="M 33.0 308.0 L 6.0 309.0 L 6.0 341.0 L 34.0 341.0 L 33.0 308.0" stroke-width="2.0" fill="rgb(95, 151, 175)" opacity="1.0" stroke="rgb(0, 0, 0)" stroke-opacity="0.0" stroke-linecap="round" stroke-linejoin="round"/>
    <path d="M 292.0 299.0 L 291.0 349.0 L 308.0 348.0 L 308.0 300.0 L 292.0 299.0" stroke-width="2.0" fill="rgb(46, 48, 68)" opacity="1.0" stroke="rgb(0, 0, 0)" stroke-opacity="0.0" stroke-linecap="round" stroke-linejoin="round"/>
    <path d="M 6.0 154.0 L 7.0 162.0 L 96.0 161.0 L 95.0 153.0 L 6.0 154.0" stroke-width="2.0" fill="rgb(154, 181, 180)" opacity="1.0" stroke="rgb(0, 0, 0)" stroke-opacity="0.0" stroke-linecap="round" stroke-linejoin="round"/>
    <path d="M 285.0 241.0 C 279.3775939941406 243.41680908203125 278.9963684082031 249.03558349609375 279.0 253.0 L 290.0 256.0 L 292.0 296.0 L 308.0 297.0 L 309.0 282.0 L 302.0 281.0 L 299.0 250.0 C 296.5110778808594 244.08351135253906 291.7995300292969 239.3333740234375 285.0 241.0" stroke-width="2.0" fill="rgb(58, 82, 103)" opacity="1.0" stroke="rgb(0, 0, 0)" stroke-opacity="0.0" stroke-linecap="round" stroke-linejoin="round"/>
    <path d="M 297.0 164.0 L 296.0 206.0 C 301.0 214.07704162597656 306.0 207.3897705078125 311.0 208.0 L 313.0 165.0 L 297.0 164.0" stroke-width="2.0" fill="rgb(228, 189, 168)" opacity="1.0" stroke="rgb(0, 0, 0)" stroke-opacity="0.0" stroke-linecap="round" stroke-linejoin="round"/>
    <path d="M 352.0 178.0 L 351.0 213.0 L 359.0 208.0 L 365.0 214.0 L 369.0 209.0 L 374.0 209.0 L 374.0 180.0 L 352.0 178.0" stroke-width="2.0" fill="rgb(139, 164, 169)" opacity="1.0" stroke="rgb(0, 0, 0)" stroke-opacity="0.0" stroke-linecap="round" stroke-linejoin="round"/>
    <path d="M 317.0 432.0 L 318.0 439.0 L 404.0 438.0 C 405.9617919921875 431.4694519042969 400.4107666015625 432.4325256347656 396.0 431.0 L 317.0 432.0" stroke-width="2.0" fill="rgb(237, 230, 215)" opacity="1.0" stroke="rgb(0, 0, 0)" stroke-opacity="0.0" stroke-linecap="round" stroke-linejoin="round"/>
    <path d="M 192.0 252.0 L 191.0 305.0 L 209.0 305.0 L 207.0 275.0 L 192.0 252.0" stroke-width="2.0" fill="rgb(46, 49, 71)" opacity="1.0" stroke="rgb(0, 0, 0)" stroke-opacity="0.0" stroke-linecap="round" stroke-linejoin="round"/>
    <path d="M 85.0 276.0 C 72.94812774658203 274.0691833496094 54.96467590332031 288.46124267578125 55.0 302.0 L 88.0 302.0 L 85.0 276.0" stroke-width="2.0" fill="rgb(114, 172, 189)" opacity="1.0" stroke="rgb(0, 0, 0)" stroke-opacity="0.0" stroke-linecap="round" stroke-linejoin="round"/>
    <path d="M 35.0 382.0 C 46.140018463134766 379.3218994140625 42.54465866088867 392.8476257324219 43.0 399.0 C 55.34688949584961 401.6781005859375 46.26988983154297 388.1523742675781 50.0 382.0 L 76.0 383.0 L 84.0 371.0 L 43.0 370.0 L 35.0 382.0" stroke-width="2.0" fill="rgb(95, 155, 172)" opacity="1.0" stroke="rgb(0, 0, 0)" stroke-opacity="0.0" stroke-linecap="round" stroke-linejoin="round"/>
    <path d="M 127.0 480.0 L 130.0 488.0 L 187.0 489.0 C 191.67044067382812 488.4628601074219 197.70233154296875 481.3935852050781 190.0 480.0 L 127.0 480.0" stroke-width="2.0" fill="rgb(215, 219, 209)" opacity="1.0" stroke="rgb(0, 0, 0)" stroke-opacity="0.0" stroke-linecap="round" stroke-linejoin="round"/>
    <path d="M 219.0 432.0 L 220.0 440.0 L 264.0 440.0 L 282.0 443.0 C 283.28265380859375 439.01898193359375 277.0156555175781 433.0860595703125 273.0 432.0 L 219.0 432.0" stroke-width="2.0" fill="rgb(233, 231, 214)" opacity="1.0" stroke="rgb(0, 0, 0)" stroke-opacity="0.0" stroke-linecap="round" stroke-linejoin="round"/>
    <path d="M 86.0 276.0 L 90.0 302.0 L 116.0 302.0 C 116.68933868408203 288.96063232421875 98.48535919189453 274.55328369140625 86.0 276.0" stroke-width="2.0" fill="rgb(46, 46, 66)" opacity="1.0" stroke="rgb(0, 0, 0)" stroke-opacity="0.0" stroke-linecap="round" stroke-linejoin="round"/>
    <path d="M 35.0 381.0 L 77.0 382.0 L 84.0 370.0 L 44.0 370.0 L 35.0 381.0" stroke-width="2.0" fill="rgb(106, 182, 199)" opacity="1.0" stroke="rgb(0, 0, 0)" stroke-opacity="0.0" stroke-linecap="round" stroke-linejoin="round"/>
    <path d="M 387.0 380.0 C 377.0492248535156 388.0829162597656 382.3495178222656 400.27227783203125 381.0 410.0 C 386.18560791015625 408.5207214355469 393.4101867675781 414.5123291015625 397.0 407.0 C 395.4638671875 398.3333435058594 401.07916259765625 389.6666564941406 393.0 381.0 L 387.0 380.0" stroke-width="2.0" fill="rgb(126, 172, 186)" opacity="1.0" stroke="rgb(0, 0, 0)" stroke-opacity="0.0" stroke-linecap="round" stroke-linejoin="round"/>
    <path d="M 405.0 459.0 L 408.0 462.0 L 443.0 462.0 L 462.0 457.0 L 462.0 453.0 L 415.0 453.0 L 405.0 459.0" stroke-width="2.0" fill="rgb(160, 184, 185)" opacity="1.0" stroke="rgb(0, 0, 0)" stroke-opacity="0.0" stroke-linecap="round" stroke-linejoin="round"/>
    <path d="M 363.0 380.0 C 351.2882385253906 387.4275207519531 357.6416320800781 398.9307556152344 356.0 408.0 L 371.0 410.0 L 371.0 385.0 L 363.0 380.0" stroke-width="2.0" fill="rgb(49, 48, 67)" opacity="1.0" stroke="rgb(0, 0, 0)" stroke-opacity="0.0" stroke-linecap="round" stroke-linejoin="round"/>
    <path d="M 339.0 380.0 C 327.5023193359375 388.0829162597656 335.2666931152344 400.27227783203125 333.0 410.0 L 348.0 410.0 C 346.4043884277344 400.3333435058594 351.78857421875 390.6666564941406 344.0 381.0 L 339.0 380.0" stroke-width="2.0" fill="rgb(45, 45, 64)" opacity="1.0" stroke="rgb(0, 0, 0)" stroke-opacity="0.0" stroke-linecap="round" stroke-linejoin="round"/>
    <path d="M 6.0 374.0 L 6.0 400.0 L 22.0 400.0 L 21.0 376.0 L 6.0 374.0" stroke-width="2.0" fill="rgb(248, 209, 182)" opacity="1.0" stroke="rgb(0, 0, 0)" stroke-opacity="0.0" stroke-linecap="round" stroke-linejoin="round"/>
    <path d="M 289.0 241.0 L 290.0 280.0 L 301.0 281.0 L 302.0 261.0 C 296.0117492675781 257.7134094238281 300.90325927734375 250.87353515625 297.0 246.0 L 289.0 241.0" stroke-width="2.0" fill="rgb(48, 51, 71)" opacity="1.0" stroke="rgb(0, 0, 0)" stroke-opacity="0.0" stroke-linecap="round" stroke-linejoin="round"/>
    <path d="M 104.0 128.0 L 105.0 146.0 L 126.0 145.0 L 126.0 128.0 L 104.0 128.0" stroke-width="2.0" fill="rgb(244, 204, 180)" opacity="1.0" stroke="rgb(0, 0, 0)" stroke-opacity="0.0" stroke-linecap="round" stroke-linejoin="round"/>
    <path d="M 314.0 380.0 C 304.1280212402344 389.6666564941406 311.0815734863281 399.3333435058594 309.0 409.0 L 314.0 411.0 L 315.0 401.0 C 321.1438903808594 404.738037109375 317.1095886230469 411.88800048828125 324.0 410.0 C 322.4043884277344 400.3333435058594 327.78857421875 390.6666564941406 320.0 381.0 L 314.0 380.0" stroke-width="2.0" fill="rgb(44, 44, 62)" opacity="1.0" stroke="rgb(0, 0, 0)" stroke-opacity="0.0" stroke-linecap="round" stroke-linejoin="round"/>
    <path d="M 133.0 294.0 L 134.0 303.0 L 161.0 305.0 L 161.0 293.0 L 133.0 294.0" stroke-width="2.0" fill="rgb(112, 170, 190)" opacity="1.0" stroke="rgb(0, 0, 0)" stroke-opacity="0.0" stroke-linecap="round" stroke-linejoin="round"/>
    <path d="M 498.0 331.0 L 498.0 410.0 L 501.0 410.0 L 502.0 332.0 L 498.0 331.0" stroke-width="2.0" fill="rgb(46, 48, 67)" opacity="1.0" stroke="rgb(0, 0, 0)" stroke-opacity="0.0" stroke-linecap="round" stroke-linejoin="round"/>
    <path d="M 269.0 283.0 L 269.0 297.0 L 290.0 297.0 L 290.0 282.0 L 269.0 283.0" stroke-width="2.0" fill="rgb(212, 211, 200)" opacity="1.0" stroke="rgb(0, 0, 0)" stroke-opacity="0.0" stroke-linecap="round" stroke-linejoin="round"/>
    <path d="M 428.0 500.0 L 429.0 504.0 L 487.0 503.0 L 486.0 499.0 L 428.0 500.0" stroke-width="2.0" fill="rgb(213, 212, 197)" opacity="1.0" stroke="rgb(0, 0, 0)" stroke-opacity="0.0" stroke-linecap="round" stroke-linejoin="round"/>
    <path d="M 82.0 454.0 L 28.0 454.0 L 26.0 457.0 L 82.0 459.0 L 82.0 454.0" stroke-width="2.0" fill="rgb(60, 86, 111)" opacity="1.0" stroke="rgb(0, 0, 0)" stroke-opacity="0.0" stroke-linecap="round" stroke-linejoin="round"/>
    <path d="M 126.0 64.0 L 118.0 66.0 L 111.0 81.0 L 112.0 89.0 L 126.0 88.0 L 126.0 64.0" stroke-width="2.0" fill="rgb(249, 242, 222)" opacity="1.0" stroke="rgb(0, 0, 0)" stroke-opacity="0.0" stroke-linecap="round" stroke-linejoin="round"/>
    <path d="M 278.0 458.0 L 221.0 458.0 L 220.0 462.0 L 277.0 462.0 L 278.0 458.0" stroke-width="2.0" fill="rgb(205, 215, 210)" opacity="1.0" stroke="rgb(0, 0, 0)" stroke-opacity="0.0" stroke-linecap="round" stroke-linejoin="round"/>
    <path d="M 117.0 424.0 L 117.0 429.0 L 162.0 428.0 L 161.0 423.0 L 117.0 424.0" stroke-width="2.0" fill="rgb(227, 231, 217)" opacity="1.0" stroke="rgb(0, 0, 0)" stroke-opacity="0.0" stroke-linecap="round" stroke-linejoin="round"/>
    <path d="M 292.0 283.0 L 292.0 297.0 L 309.0 297.0 L 309.0 282.0 L 292.0 283.0" stroke-width="2.0" fill="rgb(53, 81, 106)" opacity="1.0" stroke="rgb(0, 0, 0)" stroke-opacity="0.0" stroke-linecap="round" stroke-linejoin="round"/>
    <path d="M 412.0 380.0 C 397.6219787597656 383.1811218261719 404.03204345703125 400.50299072265625 403.0 410.0 L 413.0 409.0 C 411.5163879394531 403.1815490722656 416.63616943359375 395.2088623046875 409.0 391.0 L 412.0 380.0" stroke-width="2.0" fill="rgb(54, 59, 78)" opacity="1.0" stroke="rgb(0, 0, 0)" stroke-opacity="0.0" stroke-linecap="round" stroke-linejoin="round"/>
    <path d="M 289.0 159.0 L 296.0 163.0 L 315.0 162.0 L 317.0 153.0 L 290.0 153.0 L 289.0 159.0" stroke-width="2.0" fill="rgb(162, 187, 185)" opacity="1.0" stroke="rgb(0, 0, 0)" stroke-opacity="0.0" stroke-linecap="round" stroke-linejoin="round"/>
    <path d="M 195.0 252.0 L 207.0 272.0 L 209.0 288.0 L 210.0 252.0 L 195.0 252.0" stroke-width="2.0" fill="rgb(185, 211, 215)" opacity="1.0" stroke="rgb(0, 0, 0)" stroke-opacity="0.0" stroke-linecap="round" stroke-linejoin="round"/>
    <path d="M 22.0 357.0 L 23.0 371.0 C 18.335365295410156 375.039306640625 18.335365295410156 373.5521545410156 23.0 376.0 L 25.0 400.0 L 26.0 375.0 L 33.0 374.0 L 25.0 369.0 C 25.34254264831543 365.1958312988281 28.737577438354492 356.14630126953125 22.0 357.0" stroke-width="2.0" fill="rgb(111, 111, 114)" opacity="1.0" stroke="rgb(0, 0, 0)" stroke-opacity="0.0" stroke-linecap="round" stroke-linejoin="round"/>
    <path d="M 416.0 231.0 C 408.7886962890625 236.8015594482422 412.3264465332031 246.5679473876953 413.0 254.0 C 423.60565185546875 255.56546020507812 419.0225830078125 241.13131713867188 420.0 235.0 L 416.0 231.0" stroke-width="2.0" fill="rgb(54, 58, 78)" opacity="1.0" stroke="rgb(0, 0, 0)" stroke-opacity="0.0" stroke-linecap="round" stroke-linejoin="round"/>
    <path d="M 332.0 232.0 L 330.0 254.0 C 341.55963134765625 258.7911682128906 335.5472717285156 241.87127685546875 337.0 236.0 L 332.0 232.0" stroke-width="2.0" fill="rgb(53, 57, 74)" opacity="1.0" stroke="rgb(0, 0, 0)" stroke-opacity="0.0" stroke-linecap="round" stroke-linejoin="round"/>
    <path d="M 116.0 383.0 L 116.0 399.0 L 124.0 400.0 L 125.0 383.0 L 116.0 383.0" stroke-width="2.0" fill="rgb(41, 46, 67)" opacity="1.0" stroke="rgb(0, 0, 0)" stroke-opacity="0.0" stroke-linecap="round" stroke-linejoin="round"/>
    <path d="M 392.0 232.0 C 386.0694274902344 238.6666717529297 390.2555236816406 245.3333282470703 389.0 252.0 C 399.1487121582031 258.2518615722656 396.48394775390625 240.6826629638672 397.0 236.0 L 392.0 232.0" stroke-width="2.0" fill="rgb(58, 64, 85)" opacity="1.0" stroke="rgb(0, 0, 0)" stroke-opacity="0.0" stroke-linecap="round" stroke-linejoin="round"/>
    <path d="M 309.0 232.0 L 307.0 254.0 L 313.0 255.0 L 313.0 233.0 L 309.0 232.0" stroke-width="2.0" fill="rgb(49, 52, 70)" opacity="1.0" stroke="rgb(0, 0, 0)" stroke-opacity="0.0" stroke-linecap="round" stroke-linejoin="round"/>
    <path d="M 63.0 424.0 L 64.0 429.0 L 87.0 427.0 L 86.0 423.0 L 63.0 424.0" stroke-width="2.0" fill="rgb(202, 203, 190)" opacity="1.0" stroke="rgb(0, 0, 0)" stroke-opacity="0.0" stroke-linecap="round" stroke-linejoin="round"/>
    <path d="M 144.0 367.0 L 137.0 373.0 L 141.0 374.0 L 142.0 401.0 L 144.0 375.0 L 151.0 374.0 L 144.0 367.0" stroke-width="2.0" fill="rgb(117, 120, 123)" opacity="1.0" stroke="rgb(0, 0, 0)" stroke-opacity="0.0" stroke-linecap="round" stroke-linejoin="round"/>
    <path d="M 440.0 232.0 L 436.0 235.0 C 437.4527282714844 240.6324005126953 431.44036865234375 258.45849609375 443.0 252.0 L 440.0 232.0" stroke-width="2.0" fill="rgb(62, 75, 97)" opacity="1.0" stroke="rgb(0, 0, 0)" stroke-opacity="0.0" stroke-linecap="round" stroke-linejoin="round"/>
    <path d="M 434.0 380.0 C 435.29864501953125 383.86328125 432.7587585449219 387.36895751953125 430.0 390.0 L 433.0 391.0 L 433.0 412.0 L 436.0 412.0 C 439.5242919921875 404.56793212890625 433.4664611816406 394.8015441894531 440.0 389.0 C 434.0020446777344 388.2407531738281 437.3913879394531 380.7592468261719 434.0 380.0" stroke-width="2.0" fill="rgb(106, 111, 118)" opacity="1.0" stroke="rgb(0, 0, 0)" stroke-opacity="0.0" stroke-linecap="round" stroke-linejoin="round"/>
    <path d="M 273.0 389.0 L 273.0 411.0 L 279.0 411.0 L 279.0 389.0 L 273.0 389.0" stroke-width="2.0" fill="rgb(47, 49, 70)" opacity="1.0" stroke="rgb(0, 0, 0)" stroke-opacity="0.0" stroke-linecap="round" stroke-linejoin="round"/>
    <path d="M 289.0 389.0 L 289.0 411.0 L 294.0 411.0 L 294.0 389.0 L 289.0 389.0" stroke-width="2.0" fill="rgb(47, 47, 64)" opacity="1.0" stroke="rgb(0, 0, 0)" stroke-opacity="0.0" stroke-linecap="round" stroke-linejoin="round"/>
    <path d="M 415.0 379.0 L 409.0 390.0 L 414.0 393.0 L 414.0 413.0 C 420.58660888671875 408.0384216308594 409.9271545410156 392.8778076171875 421.0 391.0 L 415.0 379.0" stroke-width="2.0" fill="rgb(86, 113, 132)" opacity="1.0" stroke="rgb(0, 0, 0)" stroke-opacity="0.0" stroke-linecap="round" stroke-linejoin="round"/>
    <path d="M 42.0 383.0 L 43.0 400.0 C 53.1408576965332 402.0461730957031 49.382999420166016 389.4692687988281 50.0 384.0 L 42.0 383.0" stroke-width="2.0" fill="rgb(53, 53, 68)" opacity="1.0" stroke="rgb(0, 0, 0)" stroke-opacity="0.0" stroke-linecap="round" stroke-linejoin="round"/>
    <path d="M 290.0 241.0 C 282.89459228515625 238.23036193847656 276.9844665527344 248.43016052246094 279.0 254.0 L 289.0 254.0 L 290.0 241.0" stroke-width="2.0" fill="rgb(99, 179, 200)" opacity="1.0" stroke="rgb(0, 0, 0)" stroke-opacity="0.0" stroke-linecap="round" stroke-linejoin="round"/>
    <path d="M 171.0 372.0 C 169.02723693847656 375.55938720703125 159.84494018554688 378.88238525390625 168.0 380.0 L 169.0 401.0 L 171.0 382.0 L 176.0 378.0 L 171.0 372.0" stroke-width="2.0" fill="rgb(128, 127, 131)" opacity="1.0" stroke="rgb(0, 0, 0)" stroke-opacity="0.0" stroke-linecap="round" stroke-linejoin="round"/>
    <path d="M 69.0 371.0 L 59.0 370.0 L 50.0 381.0 L 61.0 381.0 L 69.0 371.0" stroke-width="2.0" fill="rgb(93, 184, 203)" opacity="1.0" stroke="rgb(0, 0, 0)" stroke-opacity="0.0" stroke-linecap="round" stroke-linejoin="round"/>
    <path d="M 76.0 382.0 L 69.0 384.0 L 70.0 399.0 L 77.0 399.0 L 76.0 382.0" stroke-width="2.0" fill="rgb(35, 31, 45)" opacity="1.0" stroke="rgb(0, 0, 0)" stroke-opacity="0.0" stroke-linecap="round" stroke-linejoin="round"/>
    <path d="M 175.0 437.0 L 176.0 440.0 L 196.0 439.0 L 195.0 434.0 L 175.0 437.0" stroke-width="2.0" fill="rgb(231, 231, 216)" opacity="1.0" stroke="rgb(0, 0, 0)" stroke-opacity="0.0" stroke-linecap="round" stroke-linejoin="round"/>
    <path d="M 477.0 380.0 L 477.0 386.0 C 470.9233093261719 388.78228759765625 470.9233093261719 389.5140686035156 477.0 391.0 L 479.0 413.0 L 479.0 392.0 L 484.0 389.0 L 477.0 380.0" stroke-width="2.0" fill="rgb(92, 109, 128)" opacity="1.0" stroke="rgb(0, 0, 0)" stroke-opacity="0.0" stroke-linecap="round" stroke-linejoin="round"/>
    <path d="M 111.0 90.0 L 111.0 97.0 L 126.0 97.0 L 126.0 89.0 L 111.0 90.0" stroke-width="2.0" fill="rgb(105, 176, 195)" opacity="1.0" stroke="rgb(0, 0, 0)" stroke-opacity="0.0" stroke-linecap="round" stroke-linejoin="round"/>
    <path d="M 258.0 389.0 L 257.0 410.0 L 262.0 411.0 L 262.0 390.0 L 258.0 389.0" stroke-width="2.0" fill="rgb(61, 63, 83)" opacity="1.0" stroke="rgb(0, 0, 0)" stroke-opacity="0.0" stroke-linecap="round" stroke-linejoin="round"/>
    <path d="M 278.0 127.0 C 270.97735595703125 130.35604858398438 269.3368225097656 137.9830322265625 270.0 143.0 L 279.0 143.0 L 278.0 127.0" stroke-width="2.0" fill="rgb(116, 174, 190)" opacity="1.0" stroke="rgb(0, 0, 0)" stroke-opacity="0.0" stroke-linecap="round" stroke-linejoin="round"/>
    <path d="M 451.0 348.0 L 450.0 364.0 L 456.0 364.0 C 454.7834777832031 359.12506103515625 459.1941223144531 348.0928649902344 451.0 348.0" stroke-width="2.0" fill="rgb(67, 70, 81)" opacity="1.0" stroke="rgb(0, 0, 0)" stroke-opacity="0.0" stroke-linecap="round" stroke-linejoin="round"/>
    <path d="M 434.0 348.0 L 432.0 364.0 C 441.78790283203125 367.802978515625 436.82891845703125 354.15936279296875 438.0 349.0 L 434.0 348.0" stroke-width="2.0" fill="rgb(71, 73, 91)" opacity="1.0" stroke="rgb(0, 0, 0)" stroke-opacity="0.0" stroke-linecap="round" stroke-linejoin="round"/>
    <path d="M 5.0 412.0 L 6.0 420.0 L 19.0 420.0 C 18.17378044128418 415.0941467285156 10.96202564239502 408.82464599609375 5.0 412.0" stroke-width="2.0" fill="rgb(230, 204, 187)" opacity="1.0" stroke="rgb(0, 0, 0)" stroke-opacity="0.0" stroke-linecap="round" stroke-linejoin="round"/>
    <path d="M 98.0 168.0 L 126.0 170.0 L 126.0 167.0 L 98.0 168.0" stroke-width="2.0" fill="rgb(90, 149, 172)" opacity="1.0" stroke="rgb(0, 0, 0)" stroke-opacity="0.0" stroke-linecap="round" stroke-linejoin="round"/>
    <path d="M 433.0 391.0 L 433.0 412.0 L 436.0 412.0 L 437.0 392.0 L 433.0 391.0" stroke-width="2.0" fill="rgb(93, 86, 95)" opacity="1.0" stroke="rgb(0, 0, 0)" stroke-opacity="0.0" stroke-linecap="round" stroke-linejoin="round"/>
    <path d="M 66.0 499.0 L 50.0 499.0 L 48.0 503.0 L 66.0 503.0 L 66.0 499.0" stroke-width="2.0" fill="rgb(49, 64, 87)" opacity="1.0" stroke="rgb(0, 0, 0)" stroke-opacity="0.0" stroke-linecap="round" stroke-linejoin="round"/>
    <path d="M 383.0 305.0 L 382.0 322.0 L 387.0 322.0 C 385.5416259765625 316.8345947265625 390.2404479980469 306.8937683105469 383.0 305.0" stroke-width="2.0" fill="rgb(58, 60, 77)" opacity="1.0" stroke="rgb(0, 0, 0)" stroke-opacity="0.0" stroke-linecap="round" stroke-linejoin="round"/>
    <path d="M 7.0 405.0 C 11.099705696105957 400.94671630859375 15.196653366088867 403.8075866699219 18.0 407.0 L 37.0 403.0 L 7.0 405.0" stroke-width="2.0" fill="rgb(34, 35, 56)" opacity="1.0" stroke="rgb(0, 0, 0)" stroke-opacity="0.0" stroke-linecap="round" stroke-linejoin="round"/>
    <path d="M 414.0 305.0 C 413.4335021972656 310.1624755859375 409.75146484375 321.64007568359375 417.0 322.0 L 418.0 305.0 L 414.0 305.0" stroke-width="2.0" fill="rgb(56, 57, 74)" opacity="1.0" stroke="rgb(0, 0, 0)" stroke-opacity="0.0" stroke-linecap="round" stroke-linejoin="round"/>
    <path d="M 162.0 293.0 L 162.0 306.0 C 171.10296630859375 308.7696228027344 167.23651123046875 298.5698547363281 168.0 293.0 L 162.0 293.0" stroke-width="2.0" fill="rgb(178, 200, 200)" opacity="1.0" stroke="rgb(0, 0, 0)" stroke-opacity="0.0" stroke-linecap="round" stroke-linejoin="round"/>
    <path d="M 338.0 187.0 L 336.0 202.0 C 343.680419921875 204.70164489746094 343.8625793457031 190.15089416503906 338.0 187.0" stroke-width="2.0" fill="rgb(69, 70, 77)" opacity="1.0" stroke="rgb(0, 0, 0)" stroke-opacity="0.0" stroke-linecap="round" stroke-linejoin="round"/>
    <path d="M 273.0 362.0 C 273.76348876953125 367.5698547363281 269.89703369140625 377.7696228027344 279.0 375.0 C 277.9267578125 370.0732421875 282.31781005859375 359.68218994140625 273.0 362.0" stroke-width="2.0" fill="rgb(60, 63, 80)" opacity="1.0" stroke="rgb(0, 0, 0)" stroke-opacity="0.0" stroke-linecap="round" stroke-linejoin="round"/>
    <path d="M 217.0 322.0 C 216.08905029296875 326.6216125488281 213.39578247070312 337.475830078125 221.0 336.0 C 222.05130004882812 331.6792907714844 224.64266967773438 321.5903625488281 217.0 322.0" stroke-width="2.0" fill="rgb(48, 63, 86)" opacity="1.0" stroke="rgb(0, 0, 0)" stroke-opacity="0.0" stroke-linecap="round" stroke-linejoin="round"/>
    <path d="M 233.0 267.0 C 232.5048370361328 271.2259826660156 229.08782958984375 280.0211486816406 236.0 281.0 C 239.41464233398438 276.6792907714844 239.66342163085938 266.5903625488281 233.0 267.0" stroke-width="2.0" fill="rgb(49, 67, 96)" opacity="1.0" stroke="rgb(0, 0, 0)" stroke-opacity="0.0" stroke-linecap="round" stroke-linejoin="round"/>
    <path d="M 361.0 187.0 L 360.0 202.0 C 368.5898132324219 204.25648498535156 363.75823974609375 193.09158325195312 365.0 188.0 L 361.0 187.0" stroke-width="2.0" fill="rgb(39, 41, 54)" opacity="1.0" stroke="rgb(0, 0, 0)" stroke-opacity="0.0" stroke-linecap="round" stroke-linejoin="round"/>
    <path d="M 488.0 349.0 C 487.1172790527344 353.8497314453125 483.9250793457031 365.3028259277344 492.0 364.0 L 492.0 349.0 L 488.0 349.0" stroke-width="2.0" fill="rgb(39, 53, 80)" opacity="1.0" stroke="rgb(0, 0, 0)" stroke-opacity="0.0" stroke-linecap="round" stroke-linejoin="round"/>
    <path d="M 483.0 311.0 C 481.9486999511719 315.4073486328125 479.3573303222656 325.6257019042969 486.0 324.0 C 489.23028564453125 319.9432067871094 489.9739685058594 310.3594665527344 483.0 311.0" stroke-width="2.0" fill="rgb(62, 63, 77)" opacity="1.0" stroke="rgb(0, 0, 0)" stroke-opacity="0.0" stroke-linecap="round" stroke-linejoin="round"/>
    <path d="M 217.0 352.0 C 216.19735717773438 356.4073486328125 213.20494079589844 366.6257019042969 221.0 365.0 C 222.18353271484375 360.9432067871094 224.43377685546875 351.3594665527344 217.0 352.0" stroke-width="2.0" fill="rgb(45, 60, 82)" opacity="1.0" stroke="rgb(0, 0, 0)" stroke-opacity="0.0" stroke-linecap="round" stroke-linejoin="round"/>
    <path d="M 323.0 187.0 L 321.0 202.0 C 329.5898132324219 204.25648498535156 324.75823974609375 193.09158325195312 326.0 188.0 L 323.0 187.0" stroke-width="2.0" fill="rgb(61, 63, 75)" opacity="1.0" stroke="rgb(0, 0, 0)" stroke-opacity="0.0" stroke-linecap="round" stroke-linejoin="round"/>
    <path d="M 121.0 316.0 C 119.89015197753906 320.6216125488281 116.01339721679688 331.475830078125 124.0 330.0 C 125.03121185302734 325.7740173339844 127.32630920410156 316.9788513183594 121.0 316.0" stroke-width="2.0" fill="rgb(47, 58, 83)" opacity="1.0" stroke="rgb(0, 0, 0)" stroke-opacity="0.0" stroke-linecap="round" stroke-linejoin="round"/>
    <path d="M 221.0 376.0 L 218.0 386.0 L 219.0 401.0 L 221.0 376.0" stroke-width="2.0" fill="rgb(80, 121, 147)" opacity="1.0" stroke="rgb(0, 0, 0)" stroke-opacity="0.0" stroke-linecap="round" stroke-linejoin="round"/>
    <path d="M 134.0 266.0 C 135.48361206054688 270.87493896484375 130.3638458251953 281.9071350097656 138.0 282.0 L 138.0 266.0 L 134.0 266.0" stroke-width="2.0" fill="rgb(66, 69, 82)" opacity="1.0" stroke="rgb(0, 0, 0)" stroke-opacity="0.0" stroke-linecap="round" stroke-linejoin="round"/>
    <path d="M 177.0 267.0 C 178.2417449951172 272.0915832519531 173.41018676757812 283.2564697265625 182.0 281.0 C 180.6216278076172 276.3783874511719 185.475830078125 265.524169921875 177.0 267.0" stroke-width="2.0" fill="rgb(40, 54, 75)" opacity="1.0" stroke="rgb(0, 0, 0)" stroke-opacity="0.0" stroke-linecap="round" stroke-linejoin="round"/>
    <path d="M 358.0 231.0 C 352.6618347167969 235.0 355.8587646484375 239.0 355.0 243.0 C 362.55059814453125 246.35302734375 364.89947509765625 235.15423583984375 358.0 231.0" stroke-width="2.0" fill="rgb(61, 63, 77)" opacity="1.0" stroke="rgb(0, 0, 0)" stroke-opacity="0.0" stroke-linecap="round" stroke-linejoin="round"/>
    <path d="M 60.0 315.0 L 58.0 329.0 C 66.31781005859375 332.78887939453125 61.92677307128906 319.9701232910156 63.0 316.0 L 60.0 315.0" stroke-width="2.0" fill="rgb(67, 71, 87)" opacity="1.0" stroke="rgb(0, 0, 0)" stroke-opacity="0.0" stroke-linecap="round" stroke-linejoin="round"/>
    <path d="M 74.0 315.0 L 72.0 329.0 C 80.31781005859375 332.78887939453125 75.92677307128906 319.9701232910156 77.0 316.0 L 74.0 315.0" stroke-width="2.0" fill="rgb(63, 65, 75)" opacity="1.0" stroke="rgb(0, 0, 0)" stroke-opacity="0.0" stroke-linecap="round" stroke-linejoin="round"/>
    <path d="M 44.0 316.0 C 45.37837600708008 320.6216125488281 40.524173736572266 331.475830078125 48.0 330.0 C 49.33778762817383 325.6792907714844 51.144493103027344 315.5903625488281 44.0 316.0" stroke-width="2.0" fill="rgb(58, 59, 74)" opacity="1.0" stroke="rgb(0, 0, 0)" stroke-opacity="0.0" stroke-linecap="round" stroke-linejoin="round"/>
    <path d="M 169.0 321.0 L 167.0 335.0 C 175.31781005859375 337.31781005859375 170.92677307128906 326.9267578125 172.0 322.0 L 169.0 321.0" stroke-width="2.0" fill="rgb(61, 67, 84)" opacity="1.0" stroke="rgb(0, 0, 0)" stroke-opacity="0.0" stroke-linecap="round" stroke-linejoin="round"/>
    <path d="M 415.0 335.0 L 413.0 349.0 C 421.31781005859375 351.31781005859375 416.9267578125 340.9267578125 418.0 336.0 L 415.0 335.0" stroke-width="2.0" fill="rgb(62, 60, 74)" opacity="1.0" stroke="rgb(0, 0, 0)" stroke-opacity="0.0" stroke-linecap="round" stroke-linejoin="round"/>
    <path d="M 428.0 275.0 L 426.0 288.0 C 434.31781005859375 292.630859375 429.9267578125 280.2752685546875 431.0 276.0 L 428.0 275.0" stroke-width="2.0" fill="rgb(59, 61, 76)" opacity="1.0" stroke="rgb(0, 0, 0)" stroke-opacity="0.0" stroke-linecap="round" stroke-linejoin="round"/>
    <path d="M 220.0 267.0 C 218.94869995117188 271.6225280761719 216.35733032226562 280.9368591308594 223.0 281.0 L 224.0 267.0 L 220.0 267.0" stroke-width="2.0" fill="rgb(46, 60, 79)" opacity="1.0" stroke="rgb(0, 0, 0)" stroke-opacity="0.0" stroke-linecap="round" stroke-linejoin="round"/>
    <path d="M 204.0 322.0 C 205.2765350341797 326.5166015625 201.02613830566406 334.5937805175781 207.0 336.0 L 209.0 323.0 L 204.0 322.0" stroke-width="2.0" fill="rgb(38, 50, 72)" opacity="1.0" stroke="rgb(0, 0, 0)" stroke-opacity="0.0" stroke-linecap="round" stroke-linejoin="round"/>
    <path d="M 229.0 322.0 C 227.94869995117188 326.8883972167969 225.35733032226562 335.5488586425781 232.0 336.0 L 233.0 322.0 L 229.0 322.0" stroke-width="2.0" fill="rgb(44, 53, 77)" opacity="1.0" stroke="rgb(0, 0, 0)" stroke-opacity="0.0" stroke-linecap="round" stroke-linejoin="round"/>
    <path d="M 186.0 321.0 C 178.70762634277344 321.0631408691406 183.2593231201172 330.3774719238281 182.0 335.0 C 189.3605499267578 336.6257019042969 187.42442321777344 326.4073486328125 186.0 321.0" stroke-width="2.0" fill="rgb(61, 67, 81)" opacity="1.0" stroke="rgb(0, 0, 0)" stroke-opacity="0.0" stroke-linecap="round" stroke-linejoin="round"/>
    <path d="M 108.0 316.0 C 107.1824722290039 320.3207092285156 104.1886978149414 330.4096374511719 111.0 330.0 C 112.03121185302734 325.7740173339844 114.32630920410156 316.9788513183594 108.0 316.0" stroke-width="2.0" fill="rgb(38, 46, 65)" opacity="1.0" stroke="rgb(0, 0, 0)" stroke-opacity="0.0" stroke-linecap="round" stroke-linejoin="round"/>
    <path d="M 289.0 362.0 C 290.0732421875 366.9267578125 285.68218994140625 377.31781005859375 294.0 375.0 C 292.7406921386719 370.5926513671875 297.2923583984375 360.3742980957031 289.0 362.0" stroke-width="2.0" fill="rgb(44, 46, 67)" opacity="1.0" stroke="rgb(0, 0, 0)" stroke-opacity="0.0" stroke-linecap="round" stroke-linejoin="round"/>
    <path d="M 121.0 346.0 L 119.0 359.0 C 127.01023864746094 362.9363098144531 123.11380004882812 350.7576599121094 124.0 347.0 L 121.0 346.0" stroke-width="2.0" fill="rgb(45, 53, 75)" opacity="1.0" stroke="rgb(0, 0, 0)" stroke-opacity="0.0" stroke-linecap="round" stroke-linejoin="round"/>
    <path d="M 97.0 346.0 L 95.0 359.0 C 103.01023864746094 362.9363098144531 99.11380004882812 350.7576599121094 100.0 347.0 L 97.0 346.0" stroke-width="2.0" fill="rgb(39, 48, 67)" opacity="1.0" stroke="rgb(0, 0, 0)" stroke-opacity="0.0" stroke-linecap="round" stroke-linejoin="round"/>
    <path d="M 145.0 266.0 L 145.0 282.0 C 152.6361541748047 281.9071350097656 147.51638793945312 270.87493896484375 149.0 266.0 L 145.0 266.0" stroke-width="2.0" fill="rgb(71, 75, 95)" opacity="1.0" stroke="rgb(0, 0, 0)" stroke-opacity="0.0" stroke-linecap="round" stroke-linejoin="round"/>
    <path d="M 258.0 362.0 C 259.2593078613281 366.4073486328125 254.70762634277344 376.6257019042969 262.0 375.0 C 263.0513000488281 370.5926513671875 265.6426696777344 360.3742980957031 258.0 362.0" stroke-width="2.0" fill="rgb(49, 51, 67)" opacity="1.0" stroke="rgb(0, 0, 0)" stroke-opacity="0.0" stroke-linecap="round" stroke-linejoin="round"/>
    <path d="M 229.0 352.0 C 227.76019287109375 356.9267578125 225.3336944580078 367.31781005859375 233.0 365.0 C 231.7234649658203 360.9432067871094 235.97386169433594 351.3594665527344 229.0 352.0" stroke-width="2.0" fill="rgb(43, 52, 79)" opacity="1.0" stroke="rgb(0, 0, 0)" stroke-opacity="0.0" stroke-linecap="round" stroke-linejoin="round"/>
    <path d="M 168.0 352.0 C 166.76019287109375 356.9267578125 164.3336944580078 367.31781005859375 172.0 365.0 C 170.7234649658203 360.9432067871094 174.97386169433594 351.3594665527344 168.0 352.0" stroke-width="2.0" fill="rgb(61, 66, 81)" opacity="1.0" stroke="rgb(0, 0, 0)" stroke-opacity="0.0" stroke-linecap="round" stroke-linejoin="round"/>
    <path d="M 108.0 346.0 C 106.76018524169922 350.9267578125 104.33369445800781 361.31781005859375 112.0 359.0 C 110.80416107177734 355.0797119140625 114.85371398925781 346.6846618652344 108.0 346.0" stroke-width="2.0" fill="rgb(34, 34, 50)" opacity="1.0" stroke="rgb(0, 0, 0)" stroke-opacity="0.0" stroke-linecap="round" stroke-linejoin="round"/>
    <path d="M 182.0 352.0 C 183.2593231201172 356.4073486328125 178.70762634277344 366.6257019042969 186.0 365.0 C 187.18353271484375 360.9432067871094 189.43377685546875 351.3594665527344 182.0 352.0" stroke-width="2.0" fill="rgb(58, 63, 79)" opacity="1.0" stroke="rgb(0, 0, 0)" stroke-opacity="0.0" stroke-linecap="round" stroke-linejoin="round"/>
    <path d="M 73.0 346.0 C 71.76018524169922 350.9267578125 69.33369445800781 361.31781005859375 77.0 359.0 C 75.80416107177734 355.0797119140625 79.85371398925781 346.6846618652344 73.0 346.0" stroke-width="2.0" fill="rgb(59, 62, 74)" opacity="1.0" stroke="rgb(0, 0, 0)" stroke-opacity="0.0" stroke-linecap="round" stroke-linejoin="round"/>
    <path d="M 205.0 352.0 C 203.94869995117188 356.4073486328125 201.35733032226562 366.6257019042969 208.0 365.0 C 209.1084442138672 361.0797119140625 211.20872497558594 352.6846618652344 205.0 352.0" stroke-width="2.0" fill="rgb(40, 51, 71)" opacity="1.0" stroke="rgb(0, 0, 0)" stroke-opacity="0.0" stroke-linecap="round" stroke-linejoin="round"/>
    <path d="M 285.0 232.0 C 279.4139404296875 230.95501708984375 277.1346740722656 239.43479919433594 280.0 243.0 C 284.8268127441406 241.23809814453125 289.4757080078125 237.87533569335938 285.0 232.0" stroke-width="2.0" fill="rgb(53, 58, 82)" opacity="1.0" stroke="rgb(0, 0, 0)" stroke-opacity="0.0" stroke-linecap="round" stroke-linejoin="round"/>
    <path d="M 59.0 346.0 C 57.94870376586914 350.4073486328125 55.357330322265625 360.6257019042969 62.0 359.0 C 63.10844421386719 355.0797119140625 65.2087173461914 346.6846618652344 59.0 346.0" stroke-width="2.0" fill="rgb(66, 70, 88)" opacity="1.0" stroke="rgb(0, 0, 0)" stroke-opacity="0.0" stroke-linecap="round" stroke-linejoin="round"/>
    <path d="M 153.0 352.0 C 151.80934143066406 356.4073486328125 149.4708251953125 366.6257019042969 157.0 365.0 C 155.7234649658203 360.9432067871094 159.97386169433594 351.3594665527344 153.0 352.0" stroke-width="2.0" fill="rgb(61, 66, 84)" opacity="1.0" stroke="rgb(0, 0, 0)" stroke-opacity="0.0" stroke-linecap="round" stroke-linejoin="round"/>
    <path d="M 220.0 293.0 C 217.7073211669922 297.654541015625 217.8931121826172 306.3280029296875 225.0 304.0 C 224.204833984375 300.434814453125 227.5533447265625 291.95501708984375 220.0 293.0" stroke-width="2.0" fill="rgb(45, 60, 80)" opacity="1.0" stroke="rgb(0, 0, 0)" stroke-opacity="0.0" stroke-linecap="round" stroke-linejoin="round"/>
    <path d="M 246.0 293.0 C 247.07322692871094 297.9267578125 242.68218994140625 308.31781005859375 251.0 306.0 C 250.4971466064453 301.9432067871094 252.66407775878906 292.3594665527344 246.0 293.0" stroke-width="2.0" fill="rgb(32, 38, 59)" opacity="1.0" stroke="rgb(0, 0, 0)" stroke-opacity="0.0" stroke-linecap="round" stroke-linejoin="round"/>
    <path d="M 414.0 380.0 L 410.0 391.0 L 421.0 391.0 L 414.0 380.0" stroke-width="2.0" fill="rgb(104, 145, 162)" opacity="1.0" stroke="rgb(0, 0, 0)" stroke-opacity="0.0" stroke-linecap="round" stroke-linejoin="round"/>
    <path d="M 356.0 113.0 L 352.0 116.0 L 355.0 129.0 L 360.0 117.0 L 356.0 113.0" stroke-width="2.0" fill="rgb(55, 71, 94)" opacity="1.0" stroke="rgb(0, 0, 0)" stroke-opacity="0.0" stroke-linecap="round" stroke-linejoin="round"/>
    <path d="M 383.0 336.0 C 381.9486999511719 340.4073486328125 379.3573303222656 350.6257019042969 386.0 349.0 C 388.0155944824219 344.9752197265625 387.3927001953125 338.3665771484375 383.0 336.0" stroke-width="2.0" fill="rgb(71, 62, 75)" opacity="1.0" stroke="rgb(0, 0, 0)" stroke-opacity="0.0" stroke-linecap="round" stroke-linejoin="round"/>
    <path d="M 450.0 388.0 C 450.6788024902344 392.654541015625 447.33868408203125 401.3280029296875 455.0 399.0 C 454.0996398925781 394.970458984375 459.04718017578125 386.1627502441406 450.0 388.0" stroke-width="2.0" fill="rgb(65, 66, 77)" opacity="1.0" stroke="rgb(0, 0, 0)" stroke-opacity="0.0" stroke-linecap="round" stroke-linejoin="round"/>
    <path d="M 328.0 322.0 C 326.81646728515625 326.2091369628906 324.56622314453125 335.74798583984375 331.0 334.0 C 332.1986083984375 330.3800354003906 334.06976318359375 322.3982849121094 328.0 322.0" stroke-width="2.0" fill="rgb(50, 62, 83)" opacity="1.0" stroke="rgb(0, 0, 0)" stroke-opacity="0.0" stroke-linecap="round" stroke-linejoin="round"/>
    <path d="M 111.0 207.0 C 110.18479919433594 211.23887634277344 107.58100128173828 218.84266662597656 113.0 220.0 C 116.46099853515625 216.0797119140625 116.21914672851562 207.68467712402344 111.0 207.0" stroke-width="2.0" fill="rgb(90, 96, 112)" opacity="1.0" stroke="rgb(0, 0, 0)" stroke-opacity="0.0" stroke-linecap="round" stroke-linejoin="round"/>
    <path d="M 469.0 311.0 C 467.81646728515625 315.2091369628906 465.56622314453125 324.74798583984375 472.0 323.0 C 473.1986083984375 319.02996826171875 475.06976318359375 311.9233093261719 469.0 311.0" stroke-width="2.0" fill="rgb(64, 63, 78)" opacity="1.0" stroke="rgb(0, 0, 0)" stroke-opacity="0.0" stroke-linecap="round" stroke-linejoin="round"/>
    <path d="M 353.0 322.0 C 351.81646728515625 326.2091369628906 349.56622314453125 335.74798583984375 356.0 334.0 C 356.8668212890625 330.3800354003906 359.3067932128906 322.3982849121094 353.0 322.0" stroke-width="2.0" fill="rgb(51, 64, 86)" opacity="1.0" stroke="rgb(0, 0, 0)" stroke-opacity="0.0" stroke-linecap="round" stroke-linejoin="round"/>
    <path d="M 234.0 293.0 C 232.3710479736328 297.2091369628906 230.98623657226562 306.74798583984375 238.0 305.0 C 237.55136108398438 301.3800354003906 239.5267333984375 293.3982849121094 234.0 293.0" stroke-width="2.0" fill="rgb(43, 54, 82)" opacity="1.0" stroke="rgb(0, 0, 0)" stroke-opacity="0.0" stroke-linecap="round" stroke-linejoin="round"/>
    <path d="M 155.0 321.0 L 154.0 336.0 C 159.42662048339844 334.98248291015625 156.96466064453125 324.49114990234375 155.0 321.0" stroke-width="2.0" fill="rgb(45, 48, 66)" opacity="1.0" stroke="rgb(0, 0, 0)" stroke-opacity="0.0" stroke-linecap="round" stroke-linejoin="round"/>
    <path d="M 246.0 267.0 C 247.2593231201172 271.4073486328125 242.70762634277344 281.6257019042969 250.0 280.0 C 248.7234649658203 275.9432067871094 252.97386169433594 266.3594665527344 246.0 267.0" stroke-width="2.0" fill="rgb(36, 45, 68)" opacity="1.0" stroke="rgb(0, 0, 0)" stroke-opacity="0.0" stroke-linecap="round" stroke-linejoin="round"/>
    <path d="M 233.0 267.0 C 234.2593231201172 271.4073486328125 229.70762634277344 281.6257019042969 237.0 280.0 C 235.7234649658203 275.9432067871094 239.97386169433594 266.3594665527344 233.0 267.0" stroke-width="2.0" fill="rgb(36, 45, 75)" opacity="1.0" stroke="rgb(0, 0, 0)" stroke-opacity="0.0" stroke-linecap="round" stroke-linejoin="round"/>
    <path d="M 353.0 296.0 C 351.6661682128906 300.029541015625 349.8077392578125 308.8372497558594 356.0 307.0 C 357.68304443359375 303.6736145019531 358.2525329589844 296.12188720703125 353.0 296.0" stroke-width="2.0" fill="rgb(74, 76, 89)" opacity="1.0" stroke="rgb(0, 0, 0)" stroke-opacity="0.0" stroke-linecap="round" stroke-linejoin="round"/>
    <path d="M 45.0 346.0 C 43.94870376586914 350.4073486328125 41.357330322265625 360.6257019042969 48.0 359.0 L 45.0 346.0" stroke-width="2.0" fill="rgb(42, 44, 63)" opacity="1.0" stroke="rgb(0, 0, 0)" stroke-opacity="0.0" stroke-linecap="round" stroke-linejoin="round"/>
    <path d="M 66.0 383.0 L 59.0 383.0 L 59.0 392.0 C 62.55546951293945 389.6874084472656 67.70409393310547 388.6869201660156 66.0 383.0" stroke-width="2.0" fill="rgb(55, 55, 66)" opacity="1.0" stroke="rgb(0, 0, 0)" stroke-opacity="0.0" stroke-linecap="round" stroke-linejoin="round"/>
    <path d="M 11.0 357.0 C 4.597399711608887 355.4794616699219 5.060566425323486 371.16119384765625 12.0 367.0 L 11.0 357.0" stroke-width="2.0" fill="rgb(76, 75, 89)" opacity="1.0" stroke="rgb(0, 0, 0)" stroke-opacity="0.0" stroke-linecap="round" stroke-linejoin="round"/>
    <path d="M 330.0 295.0 C 324.2883605957031 295.9233093261719 328.1014709472656 303.02996826171875 327.0 307.0 C 333.8372497558594 308.8372497558594 330.029541015625 300.029541015625 330.0 295.0" stroke-width="2.0" fill="rgb(66, 70, 86)" opacity="1.0" stroke="rgb(0, 0, 0)" stroke-opacity="0.0" stroke-linecap="round" stroke-linejoin="round"/>
    <path d="M 435.0 380.0 L 430.0 390.0 C 433.58013916015625 391.9879455566406 445.1015930175781 391.15887451171875 436.0 386.0 L 435.0 380.0" stroke-width="2.0" fill="rgb(131, 156, 161)" opacity="1.0" stroke="rgb(0, 0, 0)" stroke-opacity="0.0" stroke-linecap="round" stroke-linejoin="round"/>
    <path d="M 314.0 401.0 C 313.1331787109375 404.565185546875 310.6932067871094 413.04498291015625 316.0 412.0 C 319.7465515136719 408.3333435058594 318.4364929199219 404.6666564941406 314.0 401.0" stroke-width="2.0" fill="rgb(111, 90, 96)" opacity="1.0" stroke="rgb(0, 0, 0)" stroke-opacity="0.0" stroke-linecap="round" stroke-linejoin="round"/>
    <path d="M 26.0 357.0 C 18.875957489013672 353.81317138671875 18.875957489013672 369.3578186035156 26.0 366.0 L 26.0 357.0" stroke-width="2.0" fill="rgb(72, 75, 90)" opacity="1.0" stroke="rgb(0, 0, 0)" stroke-opacity="0.0" stroke-linecap="round" stroke-linejoin="round"/>
    <path d="M 341.0 323.0 C 339.8013916015625 326.565185546875 337.93023681640625 335.04498291015625 343.0 334.0 L 341.0 323.0" stroke-width="2.0" fill="rgb(68, 91, 111)" opacity="1.0" stroke="rgb(0, 0, 0)" stroke-opacity="0.0" stroke-linecap="round" stroke-linejoin="round"/>
    <path d="M 340.0 296.0 C 341.0289611816406 299.565185546875 335.6844177246094 308.04498291015625 343.0 307.0 L 340.0 296.0" stroke-width="2.0" fill="rgb(56, 58, 78)" opacity="1.0" stroke="rgb(0, 0, 0)" stroke-opacity="0.0" stroke-linecap="round" stroke-linejoin="round"/>
    <path d="M 303.0 404.0 C 297.6332092285156 408.5606384277344 306.7770080566406 417.1566467285156 308.0 409.0 L 303.0 404.0" stroke-width="2.0" fill="rgb(77, 69, 77)" opacity="1.0" stroke="rgb(0, 0, 0)" stroke-opacity="0.0" stroke-linecap="round" stroke-linejoin="round"/>
    <path d="M 264.0 188.0 L 265.0 191.0 L 279.0 190.0 L 264.0 188.0" stroke-width="2.0" fill="rgb(109, 168, 185)" opacity="1.0" stroke="rgb(0, 0, 0)" stroke-opacity="0.0" stroke-linecap="round" stroke-linejoin="round"/>
    <path d="M 111.0 254.0 C 111.59528350830078 257.738037109375 108.77867126464844 264.88800048828125 115.0 263.0 C 114.14122772216797 259.8587646484375 117.3381576538086 252.66184997558594 111.0 254.0" stroke-width="2.0" fill="rgb(59, 67, 88)" opacity="1.0" stroke="rgb(0, 0, 0)" stroke-opacity="0.0" stroke-linecap="round" stroke-linejoin="round"/>
    <path d="M 112.0 207.0 C 110.89155578613281 210.8041534423828 108.7912826538086 219.8537139892578 114.0 219.0 L 112.0 207.0" stroke-width="2.0" fill="rgb(42, 51, 76)" opacity="1.0" stroke="rgb(0, 0, 0)" stroke-opacity="0.0" stroke-linecap="round" stroke-linejoin="round"/>
    <path d="M 271.0 196.0 C 269.3003845214844 199.73805236816406 268.4167175292969 206.88800048828125 274.0 205.0 L 271.0 196.0" stroke-width="2.0" fill="rgb(83, 85, 103)" opacity="1.0" stroke="rgb(0, 0, 0)" stroke-opacity="0.0" stroke-linecap="round" stroke-linejoin="round"/>
    <path d="M 278.0 310.0 C 278.7020263671875 312.7680358886719 275.9100036621094 319.3876953125 281.0 319.0 C 282.57818603515625 316.2319641113281 283.4627990722656 309.6123046875 278.0 310.0" stroke-width="2.0" fill="rgb(67, 68, 83)" opacity="1.0" stroke="rgb(0, 0, 0)" stroke-opacity="0.0" stroke-linecap="round" stroke-linejoin="round"/>
    <path d="M 423.0 394.0 L 419.0 397.0 L 423.0 401.0 C 423.17364501953125 403.9246826171875 423.82684326171875 409.0155944824219 419.0 409.0 L 424.0 408.0 L 423.0 394.0" stroke-width="2.0" fill="rgb(39, 40, 57)" opacity="1.0" stroke="rgb(0, 0, 0)" stroke-opacity="0.0" stroke-linecap="round" stroke-linejoin="round"/>
    <path d="M 391.0 405.0 C 386.912841796875 409.4366455078125 393.0592956542969 417.4645690917969 395.0 409.0 L 391.0 405.0" stroke-width="2.0" fill="rgb(69, 72, 83)" opacity="1.0" stroke="rgb(0, 0, 0)" stroke-opacity="0.0" stroke-linecap="round" stroke-linejoin="round"/>
    <path d="M 103.0 151.0 C 98.46475982666016 150.75299072265625 98.77893829345703 159.59014892578125 102.0 161.0 L 103.0 151.0" stroke-width="2.0" fill="rgb(77, 91, 98)" opacity="1.0" stroke="rgb(0, 0, 0)" stroke-opacity="0.0" stroke-linecap="round" stroke-linejoin="round"/>
    <path d="M 133.0 151.0 C 133.85877990722656 154.14122009277344 130.66184997558594 161.33815002441406 136.0 160.0 L 133.0 151.0" stroke-width="2.0" fill="rgb(35, 51, 70)" opacity="1.0" stroke="rgb(0, 0, 0)" stroke-opacity="0.0" stroke-linecap="round" stroke-linejoin="round"/>
    <path d="M 120.0 151.0 L 122.0 160.0 L 120.0 151.0" stroke-width="2.0" fill="rgb(85, 99, 107)" opacity="1.0" stroke="rgb(0, 0, 0)" stroke-opacity="0.0" stroke-linecap="round" stroke-linejoin="round"/>
    <path d="M 153.0 150.0 L 151.0 161.0 L 153.0 150.0" stroke-width="2.0" fill="rgb(38, 55, 82)" opacity="1.0" stroke="rgb(0, 0, 0)" stroke-opacity="0.0" stroke-linecap="round" stroke-linejoin="round"/>
    <path d="M 352.0 278.0 C 349.0478515625 283.30474853515625 358.1314392089844 285.61962890625 357.0 280.0 L 352.0 278.0" stroke-width="2.0" fill="rgb(90, 109, 128)" opacity="1.0" stroke="rgb(0, 0, 0)" stroke-opacity="0.0" stroke-linecap="round" stroke-linejoin="round"/>
    <path d="M 341.0 278.0 C 336.7203369140625 280.7093505859375 339.5418701171875 285.406494140625 343.0 284.0 L 341.0 278.0" stroke-width="2.0" fill="rgb(82, 101, 121)" opacity="1.0" stroke="rgb(0, 0, 0)" stroke-opacity="0.0" stroke-linecap="round" stroke-linejoin="round"/>
    <path d="M 328.0 278.0 C 323.2218017578125 283.6998291015625 335.121337890625 285.29876708984375 332.0 279.0 L 328.0 278.0" stroke-width="2.0" fill="rgb(104, 125, 146)" opacity="1.0" stroke="rgb(0, 0, 0)" stroke-opacity="0.0" stroke-linecap="round" stroke-linejoin="round"/>
    <path d="M 282.0 287.0 C 278.2025146484375 286.19842529296875 278.0353088378906 291.7283935546875 280.0 294.0 L 282.0 287.0" stroke-width="2.0" fill="rgb(167, 164, 158)" opacity="1.0" stroke="rgb(0, 0, 0)" stroke-opacity="0.0" stroke-linecap="round" stroke-linejoin="round"/>
    <path d="M 122.0 151.0 L 120.0 160.0 L 122.0 151.0" stroke-width="2.0" fill="rgb(60, 75, 87)" opacity="1.0" stroke="rgb(0, 0, 0)" stroke-opacity="0.0" stroke-linecap="round" stroke-linejoin="round"/>
    <path d="M 112.0 182.0 C 107.14802551269531 187.67575073242188 117.44861602783203 190.06935119628906 115.0 183.0 L 112.0 182.0" stroke-width="2.0" fill="rgb(65, 71, 94)" opacity="1.0" stroke="rgb(0, 0, 0)" stroke-opacity="0.0" stroke-linecap="round" stroke-linejoin="round"/>
    <path d="M 108.0 374.0 C 106.81346893310547 377.5775146484375 109.52189636230469 379.73345947265625 113.0 377.0 L 108.0 374.0" stroke-width="2.0" fill="rgb(206, 221, 224)" opacity="1.0" stroke="rgb(0, 0, 0)" stroke-opacity="0.0" stroke-linecap="round" stroke-linejoin="round"/>
    <path d="M 282.0 268.0 C 279.78948974609375 270.0614318847656 280.66229248046875 274.9471130371094 284.0 274.0 L 282.0 268.0" stroke-width="2.0" fill="rgb(99, 100, 115)" opacity="1.0" stroke="rgb(0, 0, 0)" stroke-opacity="0.0" stroke-linecap="round" stroke-linejoin="round"/>
    <path d="M 471.0 389.0 C 476.6998291015625 396.40655517578125 478.29876708984375 382.8875732421875 471.0 389.0" stroke-width="2.0" fill="rgb(189, 212, 223)" opacity="1.0" stroke="rgb(0, 0, 0)" stroke-opacity="0.0" stroke-linecap="round" stroke-linejoin="round"/>
    <path d="M 121.0 106.0 L 123.0 113.0 L 121.0 106.0" stroke-width="2.0" fill="rgb(87, 88, 91)" opacity="1.0" stroke="rgb(0, 0, 0)" stroke-opacity="0.0" stroke-linecap="round" stroke-linejoin="round"/>
    <path d="M 480.0 386.0 C 476.556396484375 393.43170166015625 489.05377197265625 390.58758544921875 480.0 386.0" stroke-width="2.0" fill="rgb(179, 203, 212)" opacity="1.0" stroke="rgb(0, 0, 0)" stroke-opacity="0.0" stroke-linecap="round" stroke-linejoin="round"/>
    <path d="M 100.0 373.0 C 99.56298828125 377.9587097167969 106.31719970703125 376.3122253417969 104.0 372.0 L 100.0 373.0" stroke-width="2.0" fill="rgb(199, 216, 215)" opacity="1.0" stroke="rgb(0, 0, 0)" stroke-opacity="0.0" stroke-linecap="round" stroke-linejoin="round"/>
    <path d="M 273.0 287.0 L 272.0 294.0 L 273.0 287.0" stroke-width="2.0" fill="rgb(101, 121, 125)" opacity="1.0" stroke="rgb(0, 0, 0)" stroke-opacity="0.0" stroke-linecap="round" stroke-linejoin="round"/>
  </g>
</svg>
