<?xml version="1.0" ?>
<svg xmlns="http://www.w3.org/2000/svg" version="1.1" width="398" height="512">
  <defs/>
  <g>
    <path d="M 273.3756103515625 203.0305938720703 C 236.26429748535156 252.20497131347656 225.9890899658203 260.3526916503906 205.3963165283203 250.991943359375 C 215.53053283691406 246.85693359375 160.10653686523438 218.31112670898438 130.59117126464844 210.20896911621094 C 174.80970764160156 180.99147033691406 125.98505401611328 266.31634521484375 254.15577697753906 210.67465209960938 C 216.40960693359375 187.92861938476562 280.3094482421875 161.54039001464844 273.3756103515625 203.0305938720703" stroke-width="0.0" fill="rgb(248, 0, 118)" opacity="0.7111023" stroke="rgb(93, 200, 27)" stroke-opacity="0.8444437" stroke-linecap="round" stroke-linejoin="round"/>
    <path d="M 116.5540771484375 206.65367126464844 C 119.4550552368164 184.17396545410156 98.07971954345703 213.73802185058594 86.29397583007812 210.490478515625 C 24.691078186035156 227.20480346679688 165.5016632080078 362.69781494140625 6.760485649108887 402.20758056640625 C -43.81439208984375 -51.15969467163086 -88.4093017578125 -40.49985122680664 286.35760498046875 -2.940399408340454 C 218.74452209472656 156.9348602294922 106.32540130615234 102.66372680664062 116.5540771484375 206.65367126464844" stroke-width="0.0" fill="rgb(232, 255, 248)" opacity="0.7871516" stroke="rgb(67, 232, 76)" stroke-opacity="0.5766325" stroke-linecap="round" stroke-linejoin="round"/>
    <path d="M 339.5379943847656 331.0265197753906 C 304.439208984375 362.211669921875 166.54286193847656 376.4561462402344 88.51591491699219 339.2530822753906 C 88.87167358398438 301.9399108886719 89.93222045898438 390.93975830078125 81.18211364746094 286.3274841308594 C 144.81533813476562 327.99468994140625 238.38052368164062 321.6605529785156 286.4075927734375 310.2350769042969 C 367.957275390625 290.14013671875 342.9582824707031 249.51707458496094 339.5379943847656 331.0265197753906" stroke-width="0.0" fill="rgb(166, 65, 0)" opacity="0.984737" stroke="rgb(120, 119, 179)" stroke-opacity="0.20979214" stroke-linecap="round" stroke-linejoin="round"/>
    <path d="M 398.057861328125 89.28766632080078 C 430.3238830566406 502.73590087890625 509.89337158203125 543.630126953125 235.78416442871094 509.5950927734375 C 346.7580261230469 340.55804443359375 342.0674743652344 387.88214111328125 333.5907897949219 377.93304443359375 C 340.9336242675781 319.3801574707031 339.7916259765625 317.7309265136719 349.0859680175781 245.76278686523438 C 255.58877563476562 113.50281524658203 248.56024169921875 89.21841430664062 398.057861328125 89.28766632080078" stroke-width="0.0" fill="rgb(255, 255, 255)" opacity="0.99074924" stroke="rgb(41, 210, 57)" stroke-opacity="0.33343676" stroke-linecap="round" stroke-linejoin="round"/>
    <path d="M 275.9073486328125 406.1653747558594 C 274.945068359375 459.0552978515625 270.5324401855469 449.18841552734375 254.3371124267578 453.4605407714844 C 210.9161376953125 460.2361755371094 154.5531005859375 460.57586669921875 96.08061981201172 432.6280212402344 C 90.5246810913086 350.8702697753906 75.10892486572266 395.91033935546875 152.53623962402344 404.4747619628906 C 225.19586181640625 414.5906982421875 258.2016296386719 403.1136779785156 275.9073486328125 406.1653747558594" stroke-width="0.0" fill="rgb(153, 59, 0)" opacity="0.99694014" stroke="rgb(156, 30, 24)" stroke-opacity="0.8376123" stroke-linecap="round" stroke-linejoin="round"/>
    <path d="M 249.23265075683594 87.72702026367188 C 244.77920532226562 97.97380828857422 237.12652587890625 104.7886734008789 234.56227111816406 107.98702239990234 C 206.16397094726562 100.06365203857422 217.78453063964844 116.30330657958984 47.32877731323242 168.42498779296875 C 19.436492919921875 -87.19599914550781 228.78323364257812 -91.44856262207031 233.47708129882812 53.020870208740234 C 250.43600463867188 73.44692993164062 247.93930053710938 78.14783477783203 249.23265075683594 87.72702026367188" stroke-width="0.0" fill="rgb(255, 255, 255)" opacity="0.9936299" stroke="rgb(202, 1, 148)" stroke-opacity="0.9582515" stroke-linecap="round" stroke-linejoin="round"/>
    <path d="M 328.28680419921875 428.67669677734375 C 335.46917724609375 422.2819519042969 320.40185546875 442.3902282714844 265.2704772949219 451.330810546875 C 247.90774536132812 454.6117858886719 248.60513305664062 459.40264892578125 252.33775329589844 406.55322265625 C 271.6277770996094 404.3064270019531 310.599609375 399.2708435058594 333.6671447753906 380.9621276855469 C 336.35296630859375 363.99755859375 334.01007080078125 374.6903381347656 328.28680419921875 428.67669677734375" stroke-width="0.0" fill="rgb(147, 57, 0)" opacity="1.0" stroke="rgb(100, 20, 157)" stroke-opacity="0.57322586" stroke-linecap="round" stroke-linejoin="round"/>
    <path d="M 284.3389892578125 457.4931945800781 C 257.7928466796875 573.978515625 207.0355682373047 540.551513671875 134.26034545898438 526.1744384765625 C -3.048586845397949 542.2164306640625 -15.974482536315918 562.200439453125 -8.544073104858398 342.5460205078125 C 98.53115844726562 292.91363525390625 81.96639251708984 307.13897705078125 95.8119125366211 433.15240478515625 C 138.785400390625 451.4710998535156 168.97903442382812 462.1731262207031 284.3389892578125 457.4931945800781" stroke-width="0.0" fill="rgb(255, 255, 255)" opacity="0.9825773" stroke="rgb(159, 226, 41)" stroke-opacity="0.42431456" stroke-linecap="round" stroke-linejoin="round"/>
    <path d="M 413.59417724609375 39.50900650024414 C 403.1018371582031 126.7057113647461 385.515380859375 111.89190673828125 339.0979309082031 150.00387573242188 C 220.45599365234375 170.69384765625 225.2052764892578 152.30223083496094 252.89999389648438 60.00482940673828 C 233.77169799804688 1.8110913038253784 251.55450439453125 -0.9964436292648315 275.1806335449219 -8.80694580078125 C 401.2021179199219 -10.97513198852539 406.36529541015625 -22.15624237060547 413.59417724609375 39.50900650024414" stroke-width="0.0" fill="rgb(253, 255, 255)" opacity="0.9366967" stroke="rgb(27, 71, 116)" stroke-opacity="0.5346508" stroke-linecap="round" stroke-linejoin="round"/>
    <path d="M 255.54295349121094 148.31307983398438 C 250.26687622070312 164.19549560546875 236.1475830078125 175.2825164794922 217.75006103515625 172.52175903320312 C 196.96731567382812 167.745361328125 194.7056427001953 154.2553253173828 195.2422637939453 142.79737854003906 C 205.2952423095703 110.5434799194336 200.09271240234375 109.67776489257812 238.1251220703125 107.6897964477539 C 234.53089904785156 111.52186584472656 258.549072265625 112.25072479248047 255.54295349121094 148.31307983398438" stroke-width="0.0" fill="rgb(195, 0, 0)" opacity="0.9892925" stroke="rgb(59, 21, 7)" stroke-opacity="0.7537973" stroke-linecap="round" stroke-linejoin="round"/>
    <path d="M 249.44032287597656 118.79255676269531 C 225.961669921875 146.97731018066406 222.7085418701172 150.27389526367188 201.35804748535156 164.06358337402344 C 190.40919494628906 153.2050323486328 191.0873260498047 142.52391052246094 190.3687744140625 135.1999969482422 C 194.3841094970703 122.48892974853516 199.37159729003906 111.2498550415039 218.0306396484375 106.70664978027344 C 240.99029541015625 104.33633422851562 228.1584930419922 112.41384887695312 249.44032287597656 118.79255676269531" stroke-width="0.0" fill="rgb(212, 0, 0)" opacity="0.9799598" stroke="rgb(66, 251, 207)" stroke-opacity="0.6355801" stroke-linecap="round" stroke-linejoin="round"/>
    <path d="M 97.31494903564453 247.83102416992188 C 101.6866455078125 250.306884765625 87.76612854003906 250.13571166992188 77.63754272460938 266.9661560058594 C 74.98668670654297 391.2462158203125 -77.1280288696289 435.80560302734375 1.6980175971984863 -20.734493255615234 C 178.1473846435547 134.44964599609375 109.62896728515625 201.253662109375 81.37097930908203 221.57322692871094 C 89.89578247070312 233.8811492919922 81.88330841064453 233.90426635742188 97.31494903564453 247.83102416992188" stroke-width="0.0" fill="rgb(255, 255, 255)" opacity="0.97691846" stroke="rgb(43, 236, 173)" stroke-opacity="0.014017539" stroke-linecap="round" stroke-linejoin="round"/>
    <path d="M 197.8434600830078 173.52268981933594 C 197.96697998046875 181.6907958984375 190.5410919189453 186.41685485839844 182.1365966796875 186.7791290283203 C 174.70468139648438 186.78643798828125 165.31700134277344 182.0846405029297 165.7379150390625 173.99476623535156 C 165.61643981933594 169.0579376220703 169.95968627929688 163.53781127929688 179.6116485595703 161.9633331298828 C 194.15769958496094 161.32591247558594 197.5471954345703 170.97244262695312 197.8434600830078 173.52268981933594" stroke-width="0.0" fill="rgb(240, 0, 159)" opacity="0.91924983" stroke="rgb(41, 1, 225)" stroke-opacity="0.69793195" stroke-linecap="round" stroke-linejoin="round"/>
    <path d="M 193.37657165527344 126.31511688232422 C 188.42453002929688 138.14776611328125 192.73348999023438 145.54202270507812 189.3256378173828 142.75155639648438 C 176.87750244140625 148.46766662597656 190.85794067382812 126.54231262207031 162.38995361328125 129.34121704101562 C 167.53485107421875 115.96320343017578 172.9508056640625 116.78978729248047 198.22293090820312 109.59540557861328 C 222.693115234375 108.18047332763672 202.3406982421875 106.03475952148438 193.37657165527344 126.31511688232422" stroke-width="0.0" fill="rgb(255, 255, 255)" opacity="0.9592002" stroke="rgb(27, 159, 185)" stroke-opacity="0.32178137" stroke-linecap="round" stroke-linejoin="round"/>
    <path d="M 285.97796630859375 155.4714813232422 C 285.3147277832031 162.4136962890625 275.812744140625 169.88865661621094 262.79364013671875 165.95260620117188 C 244.728271484375 156.5972442626953 262.1781311035156 148.7432098388672 246.8069305419922 140.73065185546875 C 257.9300537109375 144.77134704589844 251.03543090820312 157.19984436035156 256.914794921875 146.65570068359375 C 278.7077941894531 137.15269470214844 286.45941162109375 148.8609161376953 285.97796630859375 155.4714813232422" stroke-width="0.0" fill="rgb(235, 0, 153)" opacity="0.9682466" stroke="rgb(117, 24, 132)" stroke-opacity="0.24295007" stroke-linecap="round" stroke-linejoin="round"/>
    <path d="M 357.0246276855469 258.9256896972656 C 358.3233947753906 267.3484191894531 356.4059753417969 273.066650390625 345.5247497558594 268.8122863769531 C 340.2717590332031 254.59303283691406 323.0751953125 249.0810546875 322.4667663574219 246.96449279785156 C 332.1759033203125 238.05477905273438 335.1847229003906 225.78651428222656 329.6185302734375 217.6634521484375 C 351.80401611328125 225.81309509277344 352.8817138671875 232.2950897216797 357.0246276855469 258.9256896972656" stroke-width="0.0" fill="rgb(255, 255, 255)" opacity="0.96448153" stroke="rgb(170, 171, 85)" stroke-opacity="0.12981015" stroke-linecap="round" stroke-linejoin="round"/>
    <path d="M 154.14744567871094 148.6099090576172 C 160.2894744873047 149.37924194335938 148.25271606445312 150.54086303710938 133.59085083007812 158.87326049804688 C 114.84709167480469 168.998046875 117.9563217163086 181.12454223632812 111.88658142089844 162.8881072998047 C 121.62639617919922 131.31761169433594 123.42512512207031 132.0906219482422 161.94183349609375 129.01760864257812 C 153.08026123046875 131.20919799804688 147.28695678710938 139.67355346679688 154.14744567871094 148.6099090576172" stroke-width="0.0" fill="rgb(255, 255, 255)" opacity="0.95559525" stroke="rgb(97, 121, 204)" stroke-opacity="0.44771627" stroke-linecap="round" stroke-linejoin="round"/>
    <path d="M 318.6559753417969 195.68360900878906 C 326.3354187011719 213.67478942871094 333.62542724609375 217.93655395507812 318.6810302734375 206.16366577148438 C 303.2135925292969 195.87600708007812 291.87347412109375 193.3765869140625 294.618408203125 193.66270446777344 C 298.9408874511719 187.95884704589844 303.40191650390625 183.3274383544922 302.1904296875 169.91290283203125 C 325.3016357421875 175.77737426757812 322.1177673339844 193.7396697998047 318.6559753417969 195.68360900878906" stroke-width="0.0" fill="rgb(255, 255, 255)" opacity="0.9442942" stroke="rgb(230, 198, 193)" stroke-opacity="0.6646828" stroke-linecap="round" stroke-linejoin="round"/>
    <path d="M 231.02940368652344 243.97164916992188 C 238.1454315185547 248.45423889160156 215.89498901367188 223.35202026367188 205.70970153808594 241.08624267578125 C 202.49876403808594 250.81918334960938 212.7615203857422 247.67298889160156 183.8113250732422 232.7224578857422 C 195.72848510742188 226.0341796875 202.4414520263672 229.78086853027344 206.985595703125 226.39491271972656 C 223.36660766601562 222.5793914794922 223.33363342285156 219.5770263671875 231.02940368652344 243.97164916992188" stroke-width="0.0" fill="rgb(255, 253, 171)" opacity="0.5825059" stroke="rgb(3, 235, 129)" stroke-opacity="0.34627375" stroke-linecap="round" stroke-linejoin="round"/>
    <path d="M 251.31651306152344 92.59965515136719 C 242.6061553955078 106.75932312011719 236.7433624267578 117.08224487304688 233.75672912597656 108.57988739013672 C 258.4942626953125 85.85978698730469 247.1320037841797 75.0130844116211 242.81442260742188 65.56632995605469 C 253.12725830078125 73.2630615234375 240.6217803955078 67.45751190185547 232.36146545410156 48.088619232177734 C 246.2764129638672 59.74384307861328 255.1787872314453 82.58759307861328 251.31651306152344 92.59965515136719" stroke-width="0.0" fill="rgb(0, 141, 1)" opacity="0.9751791" stroke="rgb(181, 249, 15)" stroke-opacity="0.26250258" stroke-linecap="round" stroke-linejoin="round"/>
    <path d="M 102.65300750732422 219.29415893554688 C 101.81472778320312 223.93899536132812 97.57561492919922 228.2005615234375 91.52005004882812 229.00718688964844 C 80.82255554199219 228.55796813964844 78.70608520507812 220.93093872070312 78.90351867675781 218.0526580810547 C 79.83348083496094 212.2314910888672 86.32160186767578 207.78448486328125 93.14104461669922 209.16087341308594 C 97.04658508300781 210.244384765625 102.37205505371094 212.08335876464844 102.65300750732422 219.29415893554688" stroke-width="0.0" fill="rgb(241, 0, 158)" opacity="0.9207425" stroke="rgb(54, 109, 131)" stroke-opacity="0.5335257" stroke-linecap="round" stroke-linejoin="round"/>
    <path d="M 264.4759521484375 187.9757843017578 C 265.1740417480469 190.8564910888672 262.341552734375 194.61337280273438 254.84451293945312 195.29550170898438 C 248.0608673095703 194.01559448242188 244.76425170898438 192.97097778320312 244.94357299804688 181.38394165039062 C 245.9547119140625 181.5027313232422 243.50088500976562 180.99119567871094 246.60296630859375 181.0068359375 C 257.88372802734375 180.40957641601562 265.064697265625 184.92568969726562 264.4759521484375 187.9757843017578" stroke-width="0.0" fill="rgb(255, 152, 143)" opacity="0.94129723" stroke="rgb(105, 7, 163)" stroke-opacity="0.002133841" stroke-linecap="round" stroke-linejoin="round"/>
    <path d="M 280.0657653808594 448.8533935546875 C 276.9784851074219 468.34722900390625 273.4861755371094 469.33111572265625 239.60995483398438 495.6190185546875 C 245.921630859375 474.49090576171875 232.10755920410156 484.44073486328125 206.67147827148438 457.6894836425781 C 257.8103332519531 456.3296203613281 271.4834289550781 449.3752746582031 263.8584899902344 452.1152648925781 C 262.200439453125 453.00543212890625 270.0562744140625 450.19854736328125 280.0657653808594 448.8533935546875" stroke-width="0.0" fill="rgb(254, 255, 255)" opacity="0.97156805" stroke="rgb(221, 95, 128)" stroke-opacity="0.55076915" stroke-linecap="round" stroke-linejoin="round"/>
    <path d="M 302.00140380859375 244.7722930908203 C 302.1856384277344 248.64076232910156 291.9481506347656 256.5836486816406 282.38250732421875 248.73912048339844 C 284.70928955078125 250.9510498046875 283.5724182128906 250.76023864746094 279.2943420410156 244.1922607421875 C 278.4902648925781 235.54769897460938 287.4554138183594 232.0015106201172 292.151611328125 232.601318359375 C 298.4383239746094 233.26510620117188 303.5096435546875 236.35568237304688 302.00140380859375 244.7722930908203" stroke-width="0.0" fill="rgb(254, 0, 177)" opacity="0.83652437" stroke="rgb(123, 186, 60)" stroke-opacity="0.2675175" stroke-linecap="round" stroke-linejoin="round"/>
    <path d="M 275.4642333984375 199.1610565185547 C 263.96868896484375 221.13046264648438 260.5845947265625 215.25518798828125 256.0301818847656 228.63978576660156 C 259.7012023925781 216.2783203125 247.56556701660156 215.43141174316406 242.45375061035156 214.33482360839844 C 256.7895812988281 212.47799682617188 247.99380493164062 205.91175842285156 252.39576721191406 202.89830017089844 C 244.86703491210938 208.2044677734375 261.46307373046875 217.9064178466797 275.4642333984375 199.1610565185547" stroke-width="0.0" fill="rgb(255, 255, 170)" opacity="0.5632427" stroke="rgb(214, 178, 142)" stroke-opacity="0.54468924" stroke-linecap="round" stroke-linejoin="round"/>
    <path d="M 306.7392578125 201.0972900390625 C 323.908447265625 212.08558654785156 306.7574462890625 223.9734649658203 302.920166015625 222.42422485351562 C 293.20086669921875 224.1133575439453 284.25518798828125 213.02499389648438 292.12774658203125 204.55284118652344 C 286.9412841796875 212.64881896972656 304.8213806152344 217.05810546875 306.8719177246094 207.68067932128906 C 308.79864501953125 200.56272888183594 287.066650390625 198.26296997070312 306.7392578125 201.0972900390625" stroke-width="0.0" fill="rgb(255, 0, 13)" opacity="0.48554674" stroke="rgb(47, 156, 44)" stroke-opacity="0.53639483" stroke-linecap="round" stroke-linejoin="round"/>
    <path d="M 235.58596801757812 217.87355041503906 C 223.88345336914062 246.54879760742188 271.10137939453125 222.44305419921875 229.04522705078125 252.081298828125 C 215.02764892578125 258.67681884765625 242.83425903320312 244.5842742919922 220.29344177246094 223.7275390625 C 218.8317413330078 222.89794921875 220.6619110107422 223.18707275390625 222.91152954101562 222.7785186767578 C 230.56753540039062 219.3465118408203 229.46629333496094 220.4691925048828 235.58596801757812 217.87355041503906" stroke-width="0.0" fill="rgb(255, 243, 170)" opacity="0.5990327" stroke="rgb(227, 81, 191)" stroke-opacity="0.27270052" stroke-linecap="round" stroke-linejoin="round"/>
    <path d="M 235.74844360351562 252.80149841308594 C 220.25253295898438 235.3824920654297 225.29403686523438 223.54161071777344 210.48033142089844 228.1385955810547 C 217.52713012695312 231.39132690429688 215.53912353515625 230.57833862304688 207.50474548339844 229.10496520996094 C 214.29067993164062 238.16973876953125 217.42413330078125 232.26641845703125 217.1481475830078 224.0868377685547 C 226.9762420654297 214.3723907470703 238.5135955810547 218.09439086914062 235.74844360351562 252.80149841308594" stroke-width="0.0" fill="rgb(255, 175, 153)" opacity="0.52823275" stroke="rgb(54, 59, 192)" stroke-opacity="0.83613676" stroke-linecap="round" stroke-linejoin="round"/>
    <path d="M 205.59689331054688 246.95852661132812 C 203.4918212890625 242.9940948486328 206.98512268066406 249.3114776611328 203.5493621826172 242.73159790039062 C 183.3883514404297 217.01158142089844 205.814453125 228.25526428222656 180.27159118652344 234.32298278808594 C 146.47830200195312 229.90792846679688 173.2729949951172 201.58323669433594 194.14459228515625 220.2147674560547 C 192.57655334472656 233.87435913085938 201.47100830078125 236.193115234375 205.59689331054688 246.95852661132812" stroke-width="0.0" fill="rgb(255, 53, 65)" opacity="0.46380273" stroke="rgb(254, 86, 165)" stroke-opacity="0.9654465" stroke-linecap="round" stroke-linejoin="round"/>
    <path d="M 303.2148742675781 241.52769470214844 C 303.58343505859375 248.0492706298828 296.35076904296875 253.05130004882812 291.2685546875 252.27879333496094 C 286.24163818359375 253.635009765625 277.13397216796875 246.5896453857422 280.5838928222656 242.75827026367188 C 276.6036682128906 231.34381103515625 291.7998046875 254.43551635742188 295.7890319824219 237.1117706298828 C 290.41046142578125 230.30027770996094 302.5330810546875 236.0661163330078 303.2148742675781 241.52769470214844" stroke-width="0.0" fill="rgb(225, 0, 142)" opacity="0.65540296" stroke="rgb(86, 251, 14)" stroke-opacity="0.74409753" stroke-linecap="round" stroke-linejoin="round"/>
    <path d="M 334.3486328125 380.678466796875 C 334.7873840332031 365.5439147949219 338.6464538574219 371.86004638671875 328.2019348144531 390.7225341796875 C 241.66781616210938 410.8141174316406 168.00665283203125 441.4375 175.3670654296875 361.8336486816406 C 313.1883544921875 359.973388671875 315.5602111816406 341.7743225097656 338.9612121582031 332.65643310546875 C 333.6405944824219 384.78857421875 331.5486145019531 390.7361145019531 334.3486328125 380.678466796875" stroke-width="0.0" fill="rgb(137, 144, 51)" opacity="0.22947882" stroke="rgb(228, 143, 25)" stroke-opacity="0.5755083" stroke-linecap="round" stroke-linejoin="round"/>
    <path d="M 173.0 143.0 C 172.3301239013672 145.5 170.5 147.3301239013672 168.0 148.0 C 165.5 147.3301239013672 163.6698760986328 145.5 163.0 143.0 C 163.6698760986328 140.5 165.5 138.6698760986328 168.0 138.0 C 170.5 138.6698760986328 172.3301239013672 140.5 173.0 143.0" stroke-width="0.0" fill="rgb(255, 93, 93)" opacity="1.0" stroke="rgb(61, 43, 116)" stroke-opacity="0.39040875" stroke-linecap="round" stroke-linejoin="round"/>
    <path d="M 146.0 218.0 C 145.3301239013672 220.5 143.5 222.3301239013672 141.0 223.0 C 138.5 222.3301239013672 136.6698760986328 220.5 136.0 218.0 C 136.6698760986328 215.5 138.5 213.6698760986328 141.0 213.0 C 143.5 213.6698760986328 145.3301239013672 215.5 146.0 218.0" stroke-width="0.0" fill="rgb(234, 0, 152)" opacity="1.0" stroke="rgb(184, 141, 130)" stroke-opacity="0.348624" stroke-linecap="round" stroke-linejoin="round"/>
    <path d="M 257.0 62.0 C 256.33013916015625 64.5 254.5 66.33012390136719 252.0 67.0 C 249.5 66.33012390136719 247.6698760986328 64.5 247.0 62.0 C 247.6698760986328 59.5 249.5 57.66987228393555 252.0 57.0 C 254.5 57.66987228393555 256.33013916015625 59.5 257.0 62.0" stroke-width="0.0" fill="rgb(255, 255, 255)" opacity="1.0" stroke="rgb(161, 249, 176)" stroke-opacity="0.62594616" stroke-linecap="round" stroke-linejoin="round"/>
  </g>
</svg>
