<?xml version="1.0" ?>
<svg xmlns="http://www.w3.org/2000/svg" version="1.1" width="398" height="512">
  <defs/>
  <g>
    <path d="M 272.8335266113281 202.92457580566406 C 223.92947387695312 238.7132568359375 232.15786743164062 263.77020263671875 207.111328125 251.80508422851562 C 215.57859802246094 250.47149658203125 157.85977172851562 219.9114227294922 129.4145965576172 211.0244140625 C 172.57778930664062 180.27159118652344 130.40350341796875 262.6475830078125 255.82858276367188 211.33448791503906 C 212.7679901123047 188.18734741210938 283.69970703125 162.15011596679688 272.8335266113281 202.92457580566406" stroke-width="0.0" fill="rgb(252, 0, 114)" opacity="0.685007" stroke="rgb(93, 200, 27)" stroke-opacity="0.8444437" stroke-linecap="round" stroke-linejoin="round"/>
    <path d="M 116.17532348632812 208.05926513671875 C 120.15873718261719 184.88427734375 98.71430206298828 209.87042236328125 93.35093688964844 209.31288146972656 C 40.91571044921875 205.69459533691406 159.69284057617188 346.392333984375 1.2370091676712036 397.6940002441406 C -43.27263259887695 -49.90385818481445 -87.28011322021484 -39.87636947631836 291.4162902832031 0.31392911076545715 C 227.56117248535156 167.4860382080078 108.07205963134766 103.51213073730469 116.17532348632812 208.05926513671875" stroke-width="0.0" fill="rgb(250, 255, 255)" opacity="0.8912163" stroke="rgb(67, 232, 76)" stroke-opacity="0.5766325" stroke-linecap="round" stroke-linejoin="round"/>
    <path d="M 339.2597961425781 331.4591064453125 C 305.0083923339844 361.4989013671875 172.09442138671875 376.50946044921875 90.5240707397461 340.4851989746094 C 94.6939926147461 302.8994140625 88.5400619506836 392.3922119140625 81.3896484375 286.1986999511719 C 143.8313751220703 327.8164978027344 239.0708465576172 321.6481628417969 286.2677917480469 310.107421875 C 365.6927185058594 291.1209411621094 343.905029296875 249.62786865234375 339.2597961425781 331.4591064453125" stroke-width="0.0" fill="rgb(167, 65, 0)" opacity="0.97801614" stroke="rgb(120, 119, 179)" stroke-opacity="0.20979214" stroke-linecap="round" stroke-linejoin="round"/>
    <path d="M 398.5370178222656 102.63224792480469 C 426.484130859375 482.2421569824219 495.25994873046875 527.9710083007812 263.4642333984375 518.0231323242188 C 352.6761169433594 347.8292541503906 339.3985595703125 345.2254943847656 337.2842712402344 340.815185546875 C 340.9730224609375 318.2310485839844 340.43170166015625 319.066650390625 346.841064453125 259.4754943847656 C 263.858154296875 127.0667724609375 271.56036376953125 100.37439727783203 398.5370178222656 102.63224792480469" stroke-width="0.0" fill="rgb(255, 255, 255)" opacity="0.86131173" stroke="rgb(41, 210, 57)" stroke-opacity="0.33343676" stroke-linecap="round" stroke-linejoin="round"/>
    <path d="M 275.9486389160156 406.46661376953125 C 274.9917907714844 460.1431884765625 270.603271484375 448.168212890625 254.5079803466797 453.4383239746094 C 210.63104248046875 460.36968994140625 154.6475067138672 460.6810607910156 95.7762222290039 432.5768127441406 C 90.75691986083984 351.7987060546875 78.66529846191406 396.28973388671875 150.32183837890625 404.17236328125 C 224.57691955566406 414.8790283203125 256.86773681640625 402.7216491699219 275.9486389160156 406.46661376953125" stroke-width="0.0" fill="rgb(151, 59, 0)" opacity="0.9842442" stroke="rgb(156, 30, 24)" stroke-opacity="0.8376123" stroke-linecap="round" stroke-linejoin="round"/>
    <path d="M 249.5814666748047 88.17486572265625 C 244.8546142578125 98.49229431152344 237.46763610839844 104.51116943359375 234.48104858398438 108.47017669677734 C 214.6492156982422 100.4867935180664 216.0952911376953 113.99867248535156 59.5408935546875 149.93753051757812 C 45.557945251464844 -66.21146392822266 177.4342803955078 -71.8046875 234.82847595214844 55.996639251708984 C 247.52261352539062 81.53678894042969 249.8712921142578 71.47618865966797 249.5814666748047 88.17486572265625" stroke-width="0.0" fill="rgb(254, 254, 254)" opacity="1.0" stroke="rgb(202, 1, 148)" stroke-opacity="0.9582515" stroke-linecap="round" stroke-linejoin="round"/>
    <path d="M 329.8000183105469 430.52642822265625 C 336.864013671875 423.1156921386719 320.0789489746094 441.5518798828125 264.6006774902344 451.6051025390625 C 248.51025390625 454.1513977050781 249.03468322753906 461.2401428222656 251.66795349121094 407.02655029296875 C 274.7189636230469 402.8468933105469 304.5589294433594 400.6689758300781 331.3114318847656 382.99249267578125 C 335.5 366.645263671875 333.3802490234375 376.117919921875 329.8000183105469 430.52642822265625" stroke-width="0.0" fill="rgb(145, 57, 0)" opacity="0.990894" stroke="rgb(100, 20, 157)" stroke-opacity="0.57322586" stroke-linecap="round" stroke-linejoin="round"/>
    <path d="M 116.0 460.0 C 115.33012390136719 462.5 113.5 464.33013916015625 111.0 465.0 C 108.5 464.33013916015625 106.66987609863281 462.5 106.0 460.0 C 106.66987609863281 457.5 108.5 455.66986083984375 111.0 455.0 C 113.5 455.66986083984375 115.33012390136719 457.5 116.0 460.0" stroke-width="0.0" fill="rgb(255, 255, 255)" opacity="1.0" stroke="rgb(159, 226, 41)" stroke-opacity="0.42431456" stroke-linecap="round" stroke-linejoin="round"/>
    <path d="M 330.0 63.0 C 329.33013916015625 65.5 327.5 67.33012390136719 325.0 68.0 C 322.5 67.33012390136719 320.66986083984375 65.5 320.0 63.0 C 320.66986083984375 60.5 322.5 58.66987228393555 325.0 58.0 C 327.5 58.66987228393555 329.33013916015625 60.5 330.0 63.0" stroke-width="0.0" fill="rgb(255, 255, 255)" opacity="1.0" stroke="rgb(27, 71, 116)" stroke-opacity="0.5346508" stroke-linecap="round" stroke-linejoin="round"/>
    <path d="M 227.0 135.0 C 226.3301239013672 137.5 224.5 139.3301239013672 222.0 140.0 C 219.5 139.3301239013672 217.6698760986328 137.5 217.0 135.0 C 217.6698760986328 132.5 219.5 130.6698760986328 222.0 130.0 C 224.5 130.6698760986328 226.3301239013672 132.5 227.0 135.0" stroke-width="0.0" fill="rgb(212, 0, 0)" opacity="1.0" stroke="rgb(59, 21, 7)" stroke-opacity="0.7537973" stroke-linecap="round" stroke-linejoin="round"/>
    <path d="M 211.0 127.0 C 210.3301239013672 129.5 208.5 131.3301239013672 206.0 132.0 C 203.5 131.3301239013672 201.6698760986328 129.5 201.0 127.0 C 201.6698760986328 124.5 203.5 122.66987609863281 206.0 122.0 C 208.5 122.66987609863281 210.3301239013672 124.5 211.0 127.0" stroke-width="0.0" fill="rgb(237, 0, 0)" opacity="1.0" stroke="rgb(66, 251, 207)" stroke-opacity="0.6355801" stroke-linecap="round" stroke-linejoin="round"/>
    <path d="M 90.0 243.0 C 89.33012390136719 245.5 87.5 247.3301239013672 85.0 248.0 C 82.5 247.3301239013672 80.66987609863281 245.5 80.0 243.0 C 80.66987609863281 240.5 82.5 238.6698760986328 85.0 238.0 C 87.5 238.6698760986328 89.33012390136719 240.5 90.0 243.0" stroke-width="0.0" fill="rgb(255, 255, 255)" opacity="1.0" stroke="rgb(43, 236, 173)" stroke-opacity="0.014017539" stroke-linecap="round" stroke-linejoin="round"/>
    <path d="M 187.0 179.0 C 186.3301239013672 181.5 184.5 183.3301239013672 182.0 184.0 C 179.5 183.3301239013672 177.6698760986328 181.5 177.0 179.0 C 177.6698760986328 176.5 179.5 174.6698760986328 182.0 174.0 C 184.5 174.6698760986328 186.3301239013672 176.5 187.0 179.0" stroke-width="0.0" fill="rgb(234, 0, 152)" opacity="1.0" stroke="rgb(41, 1, 225)" stroke-opacity="0.69793195" stroke-linecap="round" stroke-linejoin="round"/>
    <path d="M 191.0 130.0 C 190.3301239013672 132.5 188.5 134.3301239013672 186.0 135.0 C 183.5 134.3301239013672 181.6698760986328 132.5 181.0 130.0 C 181.6698760986328 127.5 183.5 125.66987609863281 186.0 125.0 C 188.5 125.66987609863281 190.3301239013672 127.5 191.0 130.0" stroke-width="0.0" fill="rgb(255, 255, 255)" opacity="1.0" stroke="rgb(27, 159, 185)" stroke-opacity="0.32178137" stroke-linecap="round" stroke-linejoin="round"/>
    <path d="M 277.0 157.0 C 276.33013916015625 159.5 274.5 161.3301239013672 272.0 162.0 C 269.5 161.3301239013672 267.66986083984375 159.5 267.0 157.0 C 267.66986083984375 154.5 269.5 152.6698760986328 272.0 152.0 C 274.5 152.6698760986328 276.33013916015625 154.5 277.0 157.0" stroke-width="0.0" fill="rgb(233, 0, 151)" opacity="1.0" stroke="rgb(117, 24, 132)" stroke-opacity="0.24295007" stroke-linecap="round" stroke-linejoin="round"/>
  </g>
</svg>
