<?xml version="1.0" ?>
<svg xmlns="http://www.w3.org/2000/svg" version="1.1" width="512" height="512">
  <defs/>
  <g>
    <path d="M -0.23744100332260132 0.03948952630162239 L 512.0133666992188 0.0971517339348793 L 512.0018310546875 512.0 L -0.7280896902084351 512.0000610351562 L -0.23744100332260132 0.03948952630162239" stroke-width="0.0" fill="rgb(196, 183, 174)" opacity="1.0308083" stroke="rgb(0, 0, 0)" stroke-opacity="0.0" stroke-linecap="round" stroke-linejoin="round"/>
    <path d="M 280.8582763671875 7.11002779006958 C 244.90780639648438 -4.392856597900391 202.88587951660156 -0.9549298882484436 164.22230529785156 30.782611846923828 C 113.94142150878906 85.1933822631836 123.03752136230469 147.8206329345703 106.09901428222656 205.21580505371094 C 100.91804504394531 243.96604919433594 91.17945861816406 279.5918884277344 81.55891418457031 315.6763916015625 C 71.70182800292969 352.5541076660156 41.68915557861328 390.3082580566406 40.719215393066406 428.6353759765625 C 53.45718765258789 418.611572265625 50.08133316040039 439.767578125 58.3332405090332 456.3389587402344 C 37.24307632446289 442.3186340332031 54.68905258178711 461.5481872558594 62.342655181884766 467.7086181640625 C 69.99916076660156 472.34173583984375 79.0716323852539 477.9549255371094 84.46310424804688 486.3792419433594 C 84.30551147460938 492.0452575683594 79.82572174072266 498.1901550292969 74.51294708251953 503.927001953125 C 69.09630584716797 507.19305419921875 57.099491119384766 503.89215087890625 57.118473052978516 510.0303039550781 C 173.11781311035156 513.7169189453125 285.5614318847656 508.83984375 399.2453918457031 509.1153564453125 C 398.2713928222656 491.509033203125 402.2917785644531 472.76263427734375 390.1715393066406 455.16522216796875 C 372.4063720703125 435.1004638671875 351.98297119140625 422.9161682128906 336.4786682128906 410.07879638671875 C 334.35693359375 406.3694763183594 340.82757568359375 396.64080810546875 333.0264892578125 402.7160339355469 C 328.6597900390625 401.6521911621094 324.8346862792969 398.8426208496094 324.82501220703125 392.17108154296875 C 321.87481689453125 390.3169250488281 324.13372802734375 400.2124938964844 318.95806884765625 394.3205261230469 C 320.9264831542969 389.73486328125 319.2878112792969 379.4961853027344 325.69329833984375 379.5259094238281 L 325.60845947265625 353.0224304199219 C 324.12298583984375 347.74932861328125 324.4486083984375 357.1199645996094 323.18829345703125 350.39337158203125 C 320.05975341796875 323.5888671875 318.60589599609375 296.9637451171875 316.9554443359375 270.1084899902344 C 318.6571350097656 264.80889892578125 314.7187805175781 257.1861572265625 317.7193298339844 249.5304718017578 C 323.19952392578125 240.44760131835938 326.48529052734375 232.24557495117188 334.10467529296875 225.08731079101562 C 363.7215881347656 230.59466552734375 385.9726257324219 189.5308074951172 386.4685363769531 165.82192993164062 C 388.1717224121094 125.84565734863281 380.15338134765625 91.81439971923828 347.4486083984375 55.494972229003906 C 326.1637268066406 32.71024703979492 303.9769287109375 17.906951904296875 280.8582763671875 7.11002779006958" stroke-width="2.0" fill="rgb(47, 43, 44)" opacity="1.1458825" stroke="rgb(0, 0, 0)" stroke-opacity="0.0" stroke-linecap="round" stroke-linejoin="round"/>
    <path d="M 264.7488098144531 0.42364782094955444 C 314.4112854003906 10.274663925170898 376.3633117675781 75.713623046875 384.0282897949219 126.6486587524414 C 387.0820007324219 156.1282958984375 393.0394287109375 189.0124969482422 360.2911682128906 219.00918579101562 C 350.8609924316406 223.70335388183594 342.195556640625 226.29649353027344 332.12744140625 226.58743286132812 C 314.9170837402344 250.49363708496094 324.2999267578125 272.9491882324219 324.51519775390625 295.74505615234375 C 330.1009826660156 332.6630859375 346.6813049316406 369.52239990234375 336.74365234375 408.0686340332031 C 355.87078857421875 426.37188720703125 391.15447998046875 444.3309020996094 398.1732482910156 469.464599609375 C 400.03631591796875 482.48651123046875 398.39337158203125 496.961181640625 400.2148742675781 511.8524475097656 L 512.721435546875 511.82012939453125 L 512.92724609375 -0.019626092165708542 L 264.7488098144531 0.42364782094955444" stroke-width="2.0" fill="rgb(244, 224, 208)" opacity="0.8901242" stroke="rgb(0, 0, 0)" stroke-opacity="0.0" stroke-linecap="round" stroke-linejoin="round"/>
    <path d="M 226.10101318359375 0.1327127069234848 L -0.2675728499889374 0.22821973264217377 L -0.8773587346076965 512.5999755859375 L 55.27134323120117 512.017578125 C 40.9955940246582 499.3839111328125 30.65532875061035 486.3175048828125 45.28644943237305 473.618408203125 C 51.68107604980469 470.4505920410156 47.853397369384766 478.49853515625 52.99772644042969 481.00018310546875 L 49.997928619384766 487.0 C 52.880062103271484 489.4927062988281 54.07868957519531 492.35784912109375 53.999114990234375 496.0013732910156 C 60.13821792602539 496.8678894042969 68.47679138183594 495.7542724609375 73.0002670288086 496.0004577636719 C 74.60438537597656 493.0 71.32343292236328 490.000244140625 76.0009536743164 487.000244140625 C 74.23441314697266 486.2550964355469 70.09004974365234 481.3908386230469 72.24612426757812 478.8154296875 C 58.564170837402344 471.3393859863281 46.486995697021484 455.2471923828125 42.93949890136719 440.76055908203125 C 36.85023498535156 408.97998046875 41.897003173828125 376.24371337890625 57.05758285522461 344.15118408203125 C 70.3342514038086 314.9544372558594 86.3338623046875 286.4610290527344 94.36378479003906 256.57635498046875 C 117.17802429199219 189.72789001464844 113.0995864868164 120.32913970947266 144.83226013183594 51.87042999267578 C 169.20819091796875 22.052433013916016 199.46531677246094 5.568885803222656 226.10101318359375 0.1327127069234848" stroke-width="2.0" fill="rgb(220, 203, 189)" opacity="0.8011536" stroke="rgb(0, 0, 0)" stroke-opacity="0.0" stroke-linecap="round" stroke-linejoin="round"/>
    <path d="M 150.78363037109375 304.1230163574219 C 148.8411407470703 314.38824462890625 142.83375549316406 325.11334228515625 143.5919952392578 334.6328125 C 129.91404724121094 354.58514404296875 128.0457763671875 379.17779541015625 124.41700744628906 401.3664855957031 L 117.97525024414062 488.8070983886719 C 119.58244323730469 496.7394104003906 131.22604370117188 503.5637512207031 128.063720703125 513.2684936523438 L 399.28564453125 513.260986328125 C 398.9809265136719 493.76422119140625 401.16015625 476.3797912597656 394.7789611816406 460.9943542480469 C 367.93768310546875 428.5729064941406 335.9703674316406 412.2937316894531 305.9215087890625 382.28045654296875 L 273.6245422363281 343.2164611816406 C 240.44419860839844 318.41949462890625 210.2665557861328 319.31390380859375 179.23342895507812 306.3457946777344 L 150.78363037109375 304.1230163574219" stroke-width="2.0" fill="rgb(101, 158, 115)" opacity="0.73438317" stroke="rgb(0, 0, 0)" stroke-opacity="0.0" stroke-linecap="round" stroke-linejoin="round"/>
    <path d="M 152.8422393798828 302.627685546875 C 144.8558807373047 321.24603271484375 141.2913818359375 335.7548828125 133.16903686523438 354.0423889160156 C 121.39089965820312 396.87554931640625 121.8448715209961 441.5223693847656 117.7492446899414 484.0730895996094 C 119.55177307128906 493.7080078125 133.15708923339844 501.8004150390625 129.473388671875 510.7722473144531 L 273.53692626953125 510.65374755859375 C 270.9300231933594 496.9334411621094 279.3372497558594 482.90972900390625 279.3457946777344 467.7666015625 L 271.1331787109375 430.1774597167969 C 276.6439514160156 428.4368896484375 285.9581604003906 432.8109130859375 286.5888366699219 425.0191955566406 L 292.5192565917969 425.3299560546875 C 308.6031494140625 418.553466796875 327.07257080078125 420.1285400390625 342.5874328613281 413.1319580078125 C 313.6841735839844 391.6853332519531 294.2736511230469 372.25927734375 276.1265563964844 343.9671325683594 C 266.4652404785156 337.0498962402344 255.66427612304688 335.15447998046875 249.451416015625 326.393798828125 L 182.9818878173828 306.09686279296875 C 171.85348510742188 304.976806640625 164.5276336669922 302.9037780761719 152.8422393798828 302.627685546875" stroke-width="2.0" fill="rgb(211, 211, 201)" opacity="1.1485311" stroke="rgb(0, 0, 0)" stroke-opacity="0.0" stroke-linecap="round" stroke-linejoin="round"/>
    <path d="M 171.48721313476562 329.0584411621094 C 162.0992889404297 333.7501220703125 153.82717895507812 341.54534912109375 146.82350158691406 350.8895263671875 C 120.8890151977539 394.49041748046875 125.94462585449219 442.0008239746094 118.83502960205078 488.828369140625 C 120.70755767822266 498.0693664550781 132.15658569335938 500.9947509765625 127.81192779541016 513.0474853515625 L 274.73712158203125 512.4806518554688 C 271.7440185546875 491.3691101074219 281.7688903808594 471.7823791503906 277.30535888671875 450.8490295410156 C 266.3918151855469 408.2275390625 258.3201904296875 359.413330078125 210.7424774169922 328.3620910644531 C 204.47915649414062 324.9232177734375 198.37014770507812 324.8999328613281 192.39295959472656 323.6220397949219 C 186.97354125976562 324.94744873046875 177.41493225097656 325.94580078125 171.48721313476562 329.0584411621094" stroke-width="2.0" fill="rgb(133, 203, 132)" opacity="0.9830729" stroke="rgb(0, 0, 0)" stroke-opacity="0.0" stroke-linecap="round" stroke-linejoin="round"/>
    <path d="M 355.6728820800781 110.95060729980469 L 351.7234802246094 104.06986999511719 C 314.8941955566406 130.83705139160156 276.42376708984375 138.9163055419922 239.83909606933594 157.77188110351562 C 236.56822204589844 163.13015747070312 239.4646453857422 171.75100708007812 234.89308166503906 181.33334350585938 C 234.45822143554688 159.28060913085938 213.72056579589844 122.4537124633789 191.6370086669922 137.9056854248047 C 176.5166015625 153.8179473876953 187.81675720214844 174.24893188476562 203.4687042236328 190.43983459472656 C 198.31005859375 204.64181518554688 204.8698272705078 220.40480041503906 189.86814880371094 234.76182556152344 C 189.50079345703125 245.7957000732422 185.48028564453125 257.08892822265625 184.4241485595703 267.5184326171875 C 206.42445373535156 272.7633361816406 227.2132568359375 284.7882995605469 248.26805114746094 287.21954345703125 C 254.0753173828125 276.1325988769531 253.296875 267.9394836425781 259.3901672363281 257.6786193847656 C 272.379638671875 264.15887451171875 286.3713684082031 274.8819580078125 300.9597473144531 272.461669921875 L 342.3509216308594 212.5222625732422 C 343.755126953125 207.8775177001953 331.10125732421875 201.3798828125 335.2605895996094 194.26039123535156 C 335.66571044921875 178.25184631347656 348.99859619140625 163.72666931152344 355.5168151855469 147.545166015625 L 355.6728820800781 110.95060729980469" stroke-width="2.0" fill="rgb(229, 195, 185)" opacity="1.0215499" stroke="rgb(0, 0, 0)" stroke-opacity="0.0" stroke-linecap="round" stroke-linejoin="round"/>
    <path d="M 396.05755615234375 463.3697814941406 C 385.4566955566406 443.38787841796875 359.876220703125 426.5574035644531 342.84002685546875 413.385986328125 C 319.1339416503906 416.5658874511719 295.7372131347656 424.1507263183594 271.9465026855469 432.613037109375 C 274.36553955078125 452.1405944824219 283.8364562988281 473.2611083984375 273.3034362792969 493.39569091796875 L 274.0631408691406 513.2343139648438 L 399.212646484375 513.2526245117188 C 399.12115478515625 495.1025085449219 400.62298583984375 479.0344543457031 396.05755615234375 463.3697814941406" stroke-width="2.0" fill="rgb(41, 48, 47)" opacity="1.1721917" stroke="rgb(0, 0, 0)" stroke-opacity="0.0" stroke-linecap="round" stroke-linejoin="round"/>
    <path d="M 259.909423828125 259.3077392578125 C 253.72132873535156 268.8016662597656 255.46453857421875 277.9631042480469 248.95384216308594 288.3243408203125 C 264.0289001464844 295.6283264160156 243.72413635253906 312.06744384765625 249.9830322265625 325.23712158203125 C 257.3468017578125 333.7954406738281 270.02203369140625 339.77947998046875 280.20123291015625 352.1040954589844 C 290.47979736328125 362.29815673828125 295.10400390625 374.7270812988281 309.1273193359375 385.3443908691406 C 314.97723388671875 393.08331298828125 320.7348327636719 392.82037353515625 322.8106994628906 383.6372985839844 C 322.0504150390625 339.3720703125 315.6449890136719 295.99420166015625 316.4106750488281 251.23081970214844 C 305.0390319824219 256.190673828125 307.88653564453125 269.83380126953125 297.45867919921875 272.24273681640625 C 285.2294921875 274.84686279296875 272.7484130859375 265.45233154296875 259.909423828125 259.3077392578125" stroke-width="2.0" fill="rgb(10, 11, 17)" opacity="0.97170055" stroke="rgb(0, 0, 0)" stroke-opacity="0.0" stroke-linecap="round" stroke-linejoin="round"/>
    <path d="M 202.65538024902344 195.56129455566406 C 195.1116485595703 203.37818908691406 204.5677947998047 214.66311645507812 197.79139709472656 224.62631225585938 C 186.53379821777344 239.1133575439453 188.82225036621094 253.4005889892578 183.30723571777344 268.64190673828125 C 204.6020050048828 273.6861267089844 226.63812255859375 282.71246337890625 247.80406188964844 289.1399230957031 L 249.8135986328125 280.6760559082031 C 241.18809509277344 266.0662841796875 239.14019775390625 251.97225952148438 232.46014404296875 238.3010711669922 C 226.56475830078125 224.89906311035156 217.17234802246094 211.86331176757812 211.75611877441406 199.06422424316406 C 209.29391479492188 196.5451202392578 206.267578125 194.20379638671875 202.65538024902344 195.56129455566406" stroke-width="2.0" fill="rgb(239, 210, 201)" opacity="0.98634654" stroke="rgb(0, 0, 0)" stroke-opacity="0.0" stroke-linecap="round" stroke-linejoin="round"/>
    <path d="M 167.56417846679688 267.6189880371094 C 168.2381134033203 278.7210693359375 161.38027954101562 289.683837890625 158.86717224121094 302.99951171875 C 188.938720703125 304.4394836425781 218.26565551757812 319.2590637207031 247.2903594970703 324.98907470703125 C 247.25389099121094 312.6207580566406 256.3492126464844 301.937744140625 254.39453125 291.80999755859375 C 225.518310546875 284.71685791015625 197.3846435546875 269.80401611328125 167.56417846679688 267.6189880371094" stroke-width="2.0" fill="rgb(32, 32, 42)" opacity="0.74794984" stroke="rgb(0, 0, 0)" stroke-opacity="0.0" stroke-linecap="round" stroke-linejoin="round"/>
    <path d="M 193.9575958251953 134.4521026611328 C 172.26730346679688 153.0253143310547 188.36996459960938 173.22537231445312 205.1933135986328 190.7771759033203 C 210.55642700195312 192.0453338623047 214.77801513671875 190.61770629882812 216.750244140625 183.4326629638672 C 221.14187622070312 183.76043701171875 225.0640411376953 189.05125427246094 228.47071838378906 185.35577392578125 C 239.41261291503906 168.5049591064453 225.76492309570312 146.939208984375 207.76754760742188 133.11265563964844 C 203.11837768554688 131.57254028320312 199.56166076660156 131.49024963378906 193.9575958251953 134.4521026611328" stroke-width="2.0" fill="rgb(237, 185, 174)" opacity="0.99517715" stroke="rgb(0, 0, 0)" stroke-opacity="0.0" stroke-linecap="round" stroke-linejoin="round"/>
    <path d="M 320.34368896484375 244.96188354492188 C 313.52001953125 261.92083740234375 317.5321960449219 280.1612854003906 317.57025146484375 296.662109375 C 318.05352783203125 330.70751953125 327.7290344238281 362.0408020019531 320.0803527832031 394.4643859863281 C 322.38421630859375 400.17108154296875 334.7785339355469 410.2037048339844 340.4688415527344 395.4471130371094 C 342.3745422363281 348.68499755859375 318.92431640625 299.06719970703125 320.34368896484375 244.96188354492188" stroke-width="2.0" fill="rgb(202, 189, 177)" opacity="1.1237867" stroke="rgb(0, 0, 0)" stroke-opacity="0.0" stroke-linecap="round" stroke-linejoin="round"/>
    <path d="M 128.99449157714844 502.24853515625 C 116.49227905273438 493.93817138671875 114.23597717285156 472.3725280761719 99.28022766113281 480.0494384765625 C 100.91587829589844 492.5265808105469 91.48155212402344 491.36004638671875 84.05825805664062 486.1448669433594 C 83.85691833496094 498.9073791503906 69.02389526367188 502.7572326660156 64.39960479736328 513.0175170898438 L 128.4590606689453 513.2185668945312 L 128.99449157714844 502.24853515625" stroke-width="2.0" fill="rgb(9, 9, 12)" opacity="0.973557" stroke="rgb(0, 0, 0)" stroke-opacity="0.0" stroke-linecap="round" stroke-linejoin="round"/>
    <path d="M 55.51485824584961 461.929443359375 C 53.16779708862305 465.5540466308594 58.2164421081543 465.32855224609375 56.50121307373047 466.8553466796875 C 37.46193313598633 471.8542175292969 29.685503005981445 493.370849609375 49.848838806152344 504.3493347167969 C 63.57548904418945 512.2940063476562 86.4979019165039 498.2962951660156 84.22111511230469 483.39556884765625 C 73.8372802734375 475.8943786621094 65.15340423583984 469.6520690917969 55.51485824584961 461.929443359375" stroke-width="2.0" fill="rgb(220, 212, 201)" opacity="0.88268894" stroke="rgb(0, 0, 0)" stroke-opacity="0.0" stroke-linecap="round" stroke-linejoin="round"/>
    <path d="M 233.29786682128906 343.9011535644531 C 255.21876525878906 368.9608154296875 260.7661437988281 386.36151123046875 267.4508361816406 410.7309875488281 C 277.6202087402344 410.9815979003906 280.18634033203125 431.99456787109375 290.7168273925781 426.6341857910156 C 290.3639221191406 418.4290771484375 274.2053527832031 408.9021301269531 289.3818664550781 407.80548095703125 C 277.54217529296875 388.2596130371094 260.5025939941406 362.5567932128906 233.29786682128906 343.9011535644531" stroke-width="2.0" fill="rgb(123, 121, 112)" opacity="0.6840363" stroke="rgb(0, 0, 0)" stroke-opacity="0.0" stroke-linecap="round" stroke-linejoin="round"/>
    <path d="M 237.1642608642578 345.7264099121094 C 255.31639099121094 368.6045837402344 257.9710998535156 387.9465637207031 267.00958251953125 408.186767578125 L 287.227294921875 400.6927490234375 C 273.8713073730469 387.1061706542969 261.36767578125 364.1534729003906 237.1642608642578 345.7264099121094" stroke-width="2.0" fill="rgb(44, 43, 45)" opacity="1.1664385" stroke="rgb(0, 0, 0)" stroke-opacity="0.0" stroke-linecap="round" stroke-linejoin="round"/>
    <path d="M 170.77728271484375 417.1633605957031 C 159.07949829101562 448.32275390625 150.3826904296875 480.6636962890625 142.20611572265625 512.0349731445312 L 153.9633026123047 512.5960083007812 L 170.77728271484375 417.1633605957031" stroke-width="2.0" fill="rgb(60, 123, 106)" opacity="0.9788635" stroke="rgb(0, 0, 0)" stroke-opacity="0.0" stroke-linecap="round" stroke-linejoin="round"/>
    <path d="M 272.2770690917969 106.43029022216797 C 275.7841491699219 110.96504211425781 286.819580078125 114.4886474609375 293.2196350097656 122.07160949707031 C 302.9057922363281 123.9307632446289 312.4540100097656 121.07644653320312 322.51806640625 113.12738037109375 C 309.2240905761719 111.50958251953125 294.8867492675781 111.31212615966797 285.4469299316406 98.74803924560547 L 272.2770690917969 106.43029022216797" stroke-width="2.0" fill="rgb(74, 64, 66)" opacity="0.9839987" stroke="rgb(0, 0, 0)" stroke-opacity="0.0" stroke-linecap="round" stroke-linejoin="round"/>
    <path d="M 230.7069091796875 232.5554656982422 C 237.57647705078125 249.1172332763672 244.00228881835938 265.57415771484375 248.650146484375 283.32830810546875 L 259.207763671875 257.1177673339844 L 230.7069091796875 232.5554656982422" stroke-width="2.0" fill="rgb(191, 120, 113)" opacity="0.8581555" stroke="rgb(0, 0, 0)" stroke-opacity="0.0" stroke-linecap="round" stroke-linejoin="round"/>
    <path d="M 275.9290771484375 157.5066680908203 C 280.9440612792969 165.3067169189453 292.441650390625 167.74496459960938 294.0747985839844 180.2279815673828 C 302.37957763671875 178.58370971679688 303.3497314453125 158.35447692871094 308.8156433105469 169.9255828857422 C 315.7022705078125 165.2030029296875 309.552490234375 157.4637451171875 303.10137939453125 157.28369140625 C 295.02203369140625 156.03086853027344 286.9871826171875 160.9176788330078 275.9290771484375 157.5066680908203" stroke-width="2.0" fill="rgb(77, 63, 61)" opacity="1.0427221" stroke="rgb(0, 0, 0)" stroke-opacity="0.0" stroke-linecap="round" stroke-linejoin="round"/>
    <path d="M 7.954775810241699 216.7089385986328 L 8.916363716125488 224.13265991210938 C 19.00251579284668 224.93946838378906 29.012287139892578 225.0923309326172 39.06724166870117 222.12774658203125 L 38.065406799316406 215.78863525390625 L 7.954775810241699 216.7089385986328" stroke-width="2.0" fill="rgb(221, 204, 194)" opacity="0.99979025" stroke="rgb(0, 0, 0)" stroke-opacity="0.0" stroke-linecap="round" stroke-linejoin="round"/>
    <path d="M 121.59305572509766 454.79791259765625 C 119.16293334960938 470.1917724609375 111.8736343383789 487.32757568359375 129.02008056640625 501.7956237792969 C 132.24081420898438 485.1171875 119.91411590576172 470.7663879394531 121.59305572509766 454.79791259765625" stroke-width="2.0" fill="rgb(61, 90, 81)" opacity="0.5662683" stroke="rgb(0, 0, 0)" stroke-opacity="0.0" stroke-linecap="round" stroke-linejoin="round"/>
    <path d="M 48.698997497558594 47.49663162231445 L 47.770416259765625 63.09880065917969 C 52.66228103637695 66.82588195800781 57.3422966003418 62.9891357421875 62.1389274597168 64.0866928100586 C 65.48145294189453 58.66943359375 61.845794677734375 53.32588577270508 63.06950378417969 47.52159118652344 L 48.698997497558594 47.49663162231445" stroke-width="2.0" fill="rgb(208, 191, 175)" opacity="0.99967533" stroke="rgb(0, 0, 0)" stroke-opacity="0.0" stroke-linecap="round" stroke-linejoin="round"/>
    <path d="M 211.8686981201172 151.89120483398438 C 192.2341766357422 157.12765502929688 197.07351684570312 171.42291259765625 215.4024200439453 176.3406524658203 C 209.5973358154297 167.76712036132812 214.08290100097656 160.54222106933594 211.8686981201172 151.89120483398438" stroke-width="2.0" fill="rgb(192, 101, 96)" opacity="0.99303675" stroke="rgb(0, 0, 0)" stroke-opacity="0.0" stroke-linecap="round" stroke-linejoin="round"/>
    <path d="M 284.0057678222656 140.37501525878906 C 304.2900390625 139.26126098632812 315.8069763183594 149.05294799804688 332.2542419433594 149.7014923095703 C 318.72802734375 137.85043334960938 300.4100646972656 134.8568115234375 284.0057678222656 140.37501525878906" stroke-width="2.0" fill="rgb(124, 80, 72)" opacity="1.0367919" stroke="rgb(0, 0, 0)" stroke-opacity="0.0" stroke-linecap="round" stroke-linejoin="round"/>
    <path d="M 267.90997314453125 411.54522705078125 C 267.8960266113281 416.7542724609375 272.25201416015625 423.67901611328125 272.78289794921875 431.8817443847656 C 278.34771728515625 430.55401611328125 288.10821533203125 428.6396789550781 279.99072265625 419.8385925292969 C 276.1438293457031 415.54498291015625 273.7238464355469 411.54351806640625 267.90997314453125 411.54522705078125" stroke-width="2.0" fill="rgb(251, 249, 234)" opacity="1.0146762" stroke="rgb(0, 0, 0)" stroke-opacity="0.0" stroke-linecap="round" stroke-linejoin="round"/>
    <path d="M 272.5025329589844 411.49951171875 C 276.1416015625 413.6162109375 287.7098388671875 434.8434143066406 291.3637390136719 425.69561767578125 C 284.4294738769531 417.7751770019531 284.581787109375 403.132568359375 272.5025329589844 411.49951171875" stroke-width="2.0" fill="rgb(4, 0, 7)" opacity="0.8145143" stroke="rgb(0, 0, 0)" stroke-opacity="0.0" stroke-linecap="round" stroke-linejoin="round"/>
    <path d="M 311.4482421875 497.4551696777344 C 305.144775390625 497.4924621582031 299.1713562011719 505.603759765625 292.44293212890625 512.60400390625 C 301.0357971191406 515.4241943359375 310.6492614746094 507.71087646484375 311.4482421875 497.4551696777344" stroke-width="2.0" fill="rgb(17, 18, 25)" opacity="1.0873542" stroke="rgb(0, 0, 0)" stroke-opacity="0.0" stroke-linecap="round" stroke-linejoin="round"/>
    <path d="M 77.03289794921875 502.0150146484375 C 77.41768646240234 503.4360046386719 82.8676986694336 502.9457092285156 80.99607849121094 507.0041809082031 C 79.11271667480469 511.54931640625 74.9805908203125 505.4913024902344 75.56075286865234 511.6903381347656 C 85.99613952636719 513.255615234375 99.31105041503906 514.47265625 90.2461929321289 505.8414611816406 C 88.77465057373047 507.67950439453125 86.44967651367188 510.0823974609375 84.08283233642578 507.8914794921875 C 80.32127380371094 504.6663513183594 84.76029968261719 501.343017578125 83.13345336914062 497.98663330078125 C 79.95780944824219 496.5487976074219 81.81623840332031 502.4926452636719 77.03289794921875 502.0150146484375" stroke-width="2.0" fill="rgb(17, 16, 19)" opacity="1.0700204" stroke="rgb(0, 0, 0)" stroke-opacity="0.0" stroke-linecap="round" stroke-linejoin="round"/>
    <path d="M 203.48548889160156 190.05079650878906 C 198.06057739257812 200.6687774658203 201.65744018554688 201.28346252441406 209.42474365234375 197.50289916992188 C 210.56777954101562 196.07505798339844 212.65682983398438 198.8560028076172 214.30322265625 201.32374572753906 C 217.6686553955078 186.99777221679688 211.0107879638672 192.3380126953125 203.48548889160156 190.05079650878906" stroke-width="2.0" fill="rgb(144, 86, 89)" opacity="0.9438378" stroke="rgb(0, 0, 0)" stroke-opacity="0.0" stroke-linecap="round" stroke-linejoin="round"/>
  </g>
</svg>
