<?xml version="1.0" ?>
<svg xmlns="http://www.w3.org/2000/svg" version="1.1" width="303" height="512">
  <defs/>
  <g>
    <path d="M 234.0246124267578 313.2101135253906 C 198.1032257080078 309.2965393066406 195.42129516601562 314.3893127441406 58.09920883178711 310.5113525390625 C 73.43555450439453 280.2016296386719 70.52899932861328 278.454833984375 74.74818420410156 184.21697998046875 C 113.18377685546875 178.39480590820312 101.3099136352539 154.00355529785156 231.9723663330078 153.3094940185547 C 230.46910095214844 186.186767578125 232.97579956054688 187.49362182617188 234.0246124267578 313.2101135253906" stroke-width="0.0" fill="rgb(25, 31, 41)" opacity="0.48680258" stroke="rgb(194, 187, 3)" stroke-opacity="0.850194" stroke-linecap="round" stroke-linejoin="round"/>
    <path d="M 313.3697509765625 332.83721923828125 C 312.025146484375 435.2820739746094 312.4687805175781 437.69580078125 303.2229309082031 463.06103515625 C 184.923583984375 462.4495849609375 212.07687377929688 475.20111083984375 213.00401306152344 406.2000427246094 C 248.4276885986328 378.85357666015625 242.2002716064453 350.2920837402344 242.67929077148438 323.00250244140625 C 327.6423645019531 323.35455322265625 316.28057861328125 320.83380126953125 313.3697509765625 332.83721923828125" stroke-width="0.0" fill="rgb(254, 254, 254)" opacity="1.0" stroke="rgb(104, 11, 95)" stroke-opacity="0.28740826" stroke-linecap="round" stroke-linejoin="round"/>
    <path d="M 107.34919738769531 414.9048767089844 C 108.17393493652344 450.41021728515625 117.41680908203125 480.3151550292969 121.65506744384766 500.3748474121094 C -41.751914978027344 515.6213989257812 -19.60723876953125 487.7334899902344 -11.48647403717041 407.9978942871094 C -16.67948341369629 320.17706298828125 -34.41948699951172 336.08270263671875 60.453311920166016 333.8483581542969 C 61.20362854003906 343.40765380859375 51.1651611328125 392.2220764160156 107.34919738769531 414.9048767089844" stroke-width="0.0" fill="rgb(255, 255, 255)" opacity="0.9906246" stroke="rgb(155, 69, 25)" stroke-opacity="0.117437534" stroke-linecap="round" stroke-linejoin="round"/>
    <path d="M 266.4145812988281 78.2595443725586 C 324.136962890625 303.2089538574219 334.46295166015625 142.1978759765625 59.85878372192383 300.8541564941406 C 61.49933624267578 313.6997985839844 59.87622833251953 280.57720947265625 58.9689826965332 79.19823455810547 C 94.19730377197266 -16.241458892822266 150.8746337890625 -11.024301528930664 274.29571533203125 25.71872329711914 C 223.1322784423828 68.18584442138672 230.7440948486328 53.61129379272461 266.4145812988281 78.2595443725586" stroke-width="0.0" fill="rgb(98, 103, 110)" opacity="0.9761833" stroke="rgb(129, 20, 123)" stroke-opacity="0.006743026" stroke-linecap="round" stroke-linejoin="round"/>
    <path d="M 60.041568756103516 114.35601806640625 C 57.15825653076172 218.36058044433594 76.87146759033203 151.23995971679688 1.1177635192871094 186.51025390625 C -28.381717681884766 144.0060577392578 -12.17998218536377 129.47242736816406 -10.163087844848633 69.15638732910156 C -5.318149089813232 68.98673248291016 3.445441961288452 69.02262115478516 57.24744415283203 69.0323715209961 C 70.91585540771484 69.65946197509766 57.137332916259766 62.461334228515625 60.041568756103516 114.35601806640625" stroke-width="0.0" fill="rgb(255, 255, 255)" opacity="0.9808371" stroke="rgb(42, 211, 126)" stroke-opacity="0.46622697" stroke-linecap="round" stroke-linejoin="round"/>
    <path d="M 313.53021240234375 50.99739456176758 C 314.65924072265625 118.04437255859375 324.96832275390625 134.85069274902344 308.52764892578125 187.62710571289062 C 205.9164276123047 164.45907592773438 241.56541442871094 159.51547241210938 237.0160369873047 57.19199752807617 C 183.90447998046875 -16.060367584228516 121.4306640625 8.06131362915039 240.15628051757812 -15.37241268157959 C 337.1484375 -2.2377076148986816 317.8184814453125 18.66880226135254 313.53021240234375 50.99739456176758" stroke-width="0.0" fill="rgb(255, 255, 255)" opacity="0.9087004" stroke="rgb(112, 116, 245)" stroke-opacity="0.079277314" stroke-linecap="round" stroke-linejoin="round"/>
    <path d="M 305.8000183105469 439.3330383300781 C 322.2501220703125 493.97381591796875 318.9445495605469 530.3142700195312 267.438720703125 527.733642578125 C 143.2766571044922 519.2960205078125 168.1693878173828 542.8819580078125 184.84613037109375 484.7771301269531 C 202.4669647216797 420.5611877441406 185.18719482421875 416.5135498046875 213.0343780517578 407.42474365234375 C 274.786376953125 443.4109802246094 261.90606689453125 451.29229736328125 305.8000183105469 439.3330383300781" stroke-width="0.0" fill="rgb(255, 255, 255)" opacity="0.98524284" stroke="rgb(244, 142, 165)" stroke-opacity="0.32646012" stroke-linecap="round" stroke-linejoin="round"/>
    <path d="M 155.0 378.0 C 154.3301239013672 380.5 152.5 382.33013916015625 150.0 383.0 C 147.5 382.33013916015625 145.6698760986328 380.5 145.0 378.0 C 145.6698760986328 375.5 147.5 373.66986083984375 150.0 373.0 C 152.5 373.66986083984375 154.3301239013672 375.5 155.0 378.0" stroke-width="0.0" fill="rgb(97, 102, 109)" opacity="1.0" stroke="rgb(163, 34, 215)" stroke-opacity="0.55432975" stroke-linecap="round" stroke-linejoin="round"/>
    <path d="M 32.0 276.0 C 31.330127716064453 278.5 29.5 280.33013916015625 27.0 281.0 C 24.5 280.33013916015625 22.669872283935547 278.5 22.0 276.0 C 22.669872283935547 273.5 24.5 271.66986083984375 27.0 271.0 C 29.5 271.66986083984375 31.330127716064453 273.5 32.0 276.0" stroke-width="0.0" fill="rgb(255, 255, 255)" opacity="1.0" stroke="rgb(146, 80, 77)" stroke-opacity="0.2700185" stroke-linecap="round" stroke-linejoin="round"/>
    <path d="M 280.0 270.0 C 279.33013916015625 272.5 277.5 274.33013916015625 275.0 275.0 C 272.5 274.33013916015625 270.66986083984375 272.5 270.0 270.0 C 270.66986083984375 267.5 272.5 265.66986083984375 275.0 265.0 C 277.5 265.66986083984375 279.33013916015625 267.5 280.0 270.0" stroke-width="0.0" fill="rgb(255, 255, 255)" opacity="1.0" stroke="rgb(234, 20, 179)" stroke-opacity="0.214715" stroke-linecap="round" stroke-linejoin="round"/>
    <path d="M 48.0 30.0 C 47.33012771606445 32.5 45.5 34.33012771606445 43.0 35.0 C 40.5 34.33012771606445 38.66987228393555 32.5 38.0 30.0 C 38.66987228393555 27.5 40.5 25.669872283935547 43.0 25.0 C 45.5 25.669872283935547 47.33012771606445 27.5 48.0 30.0" stroke-width="0.0" fill="rgb(255, 255, 255)" opacity="1.0" stroke="rgb(107, 169, 95)" stroke-opacity="0.46992376" stroke-linecap="round" stroke-linejoin="round"/>
    <path d="M 66.0 507.0 C 65.33012390136719 509.5 63.5 511.33013916015625 61.0 512.0 C 58.5 511.33013916015625 56.66987228393555 509.5 56.0 507.0 C 56.66987228393555 504.5 58.5 502.66986083984375 61.0 502.0 C 63.5 502.66986083984375 65.33012390136719 504.5 66.0 507.0" stroke-width="0.0" fill="rgb(255, 255, 255)" opacity="1.0" stroke="rgb(75, 73, 191)" stroke-opacity="0.6154567" stroke-linecap="round" stroke-linejoin="round"/>
    <path d="M 39.0 197.0 C 38.33012771606445 199.5 36.5 201.3301239013672 34.0 202.0 C 31.5 201.3301239013672 29.669872283935547 199.5 29.0 197.0 C 29.669872283935547 194.5 31.5 192.6698760986328 34.0 192.0 C 36.5 192.6698760986328 38.33012771606445 194.5 39.0 197.0" stroke-width="0.0" fill="rgb(97, 102, 109)" opacity="1.0" stroke="rgb(189, 215, 3)" stroke-opacity="0.6506371" stroke-linecap="round" stroke-linejoin="round"/>
    <path d="M 156.0 493.0 C 155.3301239013672 495.5 153.5 497.33013916015625 151.0 498.0 C 148.5 497.33013916015625 146.6698760986328 495.5 146.0 493.0 C 146.6698760986328 490.5 148.5 488.66986083984375 151.0 488.0 C 153.5 488.66986083984375 155.3301239013672 490.5 156.0 493.0" stroke-width="0.0" fill="rgb(255, 255, 255)" opacity="1.0" stroke="rgb(189, 116, 186)" stroke-opacity="0.79366064" stroke-linecap="round" stroke-linejoin="round"/>
    <path d="M 197.0 73.0 C 196.3301239013672 75.5 194.5 77.33012390136719 192.0 78.0 C 189.5 77.33012390136719 187.6698760986328 75.5 187.0 73.0 C 187.6698760986328 70.5 189.5 68.66987609863281 192.0 68.0 C 194.5 68.66987609863281 196.3301239013672 70.5 197.0 73.0" stroke-width="0.0" fill="rgb(35, 31, 32)" opacity="1.0" stroke="rgb(184, 168, 49)" stroke-opacity="0.45237002" stroke-linecap="round" stroke-linejoin="round"/>
  </g>
</svg>
