<?xml version="1.0" ?>
<svg xmlns="http://www.w3.org/2000/svg" version="1.1" width="303" height="512">
  <defs/>
  <g>
    <path d="M 215.9036407470703 295.4667053222656 C 197.82550048828125 294.941162109375 195.17510986328125 299.28448486328125 92.8449935913086 298.2807312011719 C 92.47706604003906 281.2551574707031 88.5136947631836 278.57476806640625 89.78092193603516 196.82423400878906 C 108.3238754272461 184.98004150390625 109.78311920166016 175.72930908203125 208.8789520263672 173.22470092773438 C 209.19483947753906 187.99920654296875 212.45753479003906 191.3888397216797 215.9036407470703 295.4667053222656" stroke-width="0.0" fill="rgb(81, 86, 94)" opacity="0.12100545" stroke="rgb(194, 187, 3)" stroke-opacity="0.850194" stroke-linecap="round" stroke-linejoin="round"/>
    <path d="M 264.0 389.0 C 263.33013916015625 391.5 261.5 393.33013916015625 259.0 394.0 C 256.5 393.33013916015625 254.6698760986328 391.5 254.0 389.0 C 254.6698760986328 386.5 256.5 384.66986083984375 259.0 384.0 C 261.5 384.66986083984375 263.33013916015625 386.5 264.0 389.0" stroke-width="0.0" fill="rgb(255, 255, 255)" opacity="1.0" stroke="rgb(104, 11, 95)" stroke-opacity="0.28740826" stroke-linecap="round" stroke-linejoin="round"/>
    <path d="M 48.0 389.0 C 47.33012771606445 391.5 45.5 393.33013916015625 43.0 394.0 C 40.5 393.33013916015625 38.66987228393555 391.5 38.0 389.0 C 38.66987228393555 386.5 40.5 384.66986083984375 43.0 384.0 C 45.5 384.66986083984375 47.33012771606445 386.5 48.0 389.0" stroke-width="0.0" fill="rgb(255, 255, 255)" opacity="1.0" stroke="rgb(155, 69, 25)" stroke-opacity="0.117437534" stroke-linecap="round" stroke-linejoin="round"/>
  </g>
</svg>
