<?xml version="1.0" ?>
<svg xmlns="http://www.w3.org/2000/svg" version="1.1" width="303" height="512">
  <defs/>
  <g>
    <path d="M 246.00283813476562 318.9380187988281 C 198.3100128173828 313.7871398925781 195.498779296875 318.46502685546875 57.747371673583984 315.72344970703125 C 72.4970474243164 279.59503173828125 70.45964050292969 278.342041015625 74.73223114013672 184.2033233642578 C 113.18377685546875 178.39480590820312 101.3099136352539 154.00355529785156 233.2751007080078 153.3007354736328 C 236.5275115966797 185.69667053222656 243.93194580078125 185.23678588867188 246.00283813476562 318.9380187988281" stroke-width="0.0" fill="rgb(42, 49, 59)" opacity="0.44405705" stroke="rgb(194, 187, 3)" stroke-opacity="0.850194" stroke-linecap="round" stroke-linejoin="round"/>
    <path d="M 313.37347412109375 331.82025146484375 C 312.025146484375 435.2820739746094 312.4687805175781 437.69580078125 303.2208557128906 463.0715026855469 C 184.9151153564453 462.4595947265625 212.10423278808594 475.2108154296875 212.99232482910156 406.1664123535156 C 248.70401000976562 378.1106262207031 242.45191955566406 348.91656494140625 242.77725219726562 323.12213134765625 C 327.92266845703125 323.1610412597656 316.3743896484375 320.8312072753906 313.37347412109375 331.82025146484375" stroke-width="0.0" fill="rgb(255, 255, 255)" opacity="0.99953675" stroke="rgb(104, 11, 95)" stroke-opacity="0.28740826" stroke-linecap="round" stroke-linejoin="round"/>
    <path d="M 107.5571517944336 414.5931396484375 C 109.01750183105469 450.4391174316406 115.6937026977539 481.57415771484375 125.03909301757812 504.65924072265625 C -45.34452819824219 522.3525390625 -20.92774200439453 494.10504150390625 -11.547730445861816 409.59722900390625 C -17.05590057373047 319.6392517089844 -36.124080657958984 335.1046142578125 60.454341888427734 334.43115234375 C 60.669219970703125 341.5912170410156 51.22110366821289 393.45928955078125 107.5571517944336 414.5931396484375" stroke-width="0.0" fill="rgb(255, 255, 255)" opacity="1.0" stroke="rgb(155, 69, 25)" stroke-opacity="0.117437534" stroke-linecap="round" stroke-linejoin="round"/>
    <path d="M 267.0880126953125 73.99691772460938 C 327.15045166015625 298.039306640625 336.4229431152344 142.88241577148438 59.38505172729492 311.107177734375 C 58.679813385009766 314.5197448730469 60.6436653137207 280.4917297363281 59.23572540283203 80.26397705078125 C 92.0146484375 -17.235673904418945 151.208984375 -11.184051513671875 266.9822082519531 26.888431549072266 C 223.1317596435547 68.18565368652344 230.74374389648438 53.61186218261719 267.0880126953125 73.99691772460938" stroke-width="0.0" fill="rgb(98, 103, 110)" opacity="0.9838737" stroke="rgb(129, 20, 123)" stroke-opacity="0.006743026" stroke-linecap="round" stroke-linejoin="round"/>
    <path d="M 59.6607780456543 120.65078735351562 C 57.334320068359375 223.8055419921875 75.67196655273438 148.0291290283203 0.4662208557128906 192.19882202148438 C -31.796001434326172 146.8819580078125 -12.23119068145752 129.583984375 -10.187324523925781 69.22969055175781 C -5.796544551849365 69.00225830078125 2.8573157787323 69.02510833740234 59.210304260253906 68.71969604492188 C 69.91560363769531 68.34953308105469 57.53278350830078 61.549560546875 59.6607780456543 120.65078735351562" stroke-width="0.0" fill="rgb(255, 255, 255)" opacity="0.99255335" stroke="rgb(42, 211, 126)" stroke-opacity="0.46622697" stroke-linecap="round" stroke-linejoin="round"/>
    <path d="M 313.533203125 50.979801177978516 C 314.656494140625 118.04457092285156 324.9625549316406 134.84877014160156 306.6762390136719 189.7331085205078 C 214.17820739746094 157.7105712890625 241.89337158203125 157.34774780273438 238.04115295410156 50.23219299316406 C 184.5692596435547 -23.411575317382812 115.03264617919922 16.213539123535156 229.64547729492188 -13.260229110717773 C 337.23492431640625 -2.3561806678771973 317.8680725097656 18.56786346435547 313.533203125 50.979801177978516" stroke-width="0.0" fill="rgb(255, 255, 255)" opacity="0.9255002" stroke="rgb(112, 116, 245)" stroke-opacity="0.079277314" stroke-linecap="round" stroke-linejoin="round"/>
    <path d="M 305.79937744140625 439.267822265625 C 322.2501220703125 493.97381591796875 318.9445495605469 530.3142700195312 265.5168151855469 527.28662109375 C 136.02032470703125 512.3271484375 170.128173828125 541.803955078125 184.9355010986328 484.6762390136719 C 205.98155212402344 401.095703125 181.77418518066406 420.036865234375 211.74191284179688 407.6756591796875 C 276.539794921875 441.2724914550781 261.9225158691406 450.9761047363281 305.79937744140625 439.267822265625" stroke-width="0.0" fill="rgb(255, 255, 255)" opacity="0.99857384" stroke="rgb(244, 142, 165)" stroke-opacity="0.32646012" stroke-linecap="round" stroke-linejoin="round"/>
    <path d="M 225.7537078857422 396.8240051269531 C 171.57664489746094 429.99462890625 212.93882751464844 411.7565002441406 174.72671508789062 512.9702758789062 C 125.8081283569336 509.51666259765625 90.08341217041016 391.0040588378906 39.60905838012695 323.8841247558594 C 72.98698425292969 308.82318115234375 86.51390075683594 319.7724914550781 238.4618682861328 315.7671203613281 C 240.18824768066406 308.9888610839844 254.3180694580078 357.0921325683594 225.7537078857422 396.8240051269531" stroke-width="0.0" fill="rgb(0, 0, 0)" opacity="0.22807328" stroke="rgb(163, 34, 215)" stroke-opacity="0.55432975" stroke-linecap="round" stroke-linejoin="round"/>
    <path d="M 59.946746826171875 275.9228515625 C 58.67690658569336 358.6330871582031 65.3767318725586 359.5757141113281 38.88639450073242 349.444580078125 C -21.89055633544922 337.1898498535156 -12.345142364501953 323.1434326171875 -12.787310600280762 272.5708312988281 C -19.46795082092285 214.87953186035156 -35.343040466308594 196.70791625976562 48.78509521484375 201.67852783203125 C 63.70668411254883 206.5279998779297 58.92689514160156 214.513671875 59.946746826171875 275.9228515625" stroke-width="0.0" fill="rgb(255, 255, 255)" opacity="0.98946553" stroke="rgb(146, 80, 77)" stroke-opacity="0.2700185" stroke-linecap="round" stroke-linejoin="round"/>
    <path d="M 313.86651611328125 275.0858459472656 C 318.07574462890625 324.203857421875 329.28326416015625 332.67926025390625 243.9471435546875 338.2783508300781 C 242.33055114746094 341.7376708984375 242.91683959960938 336.4881591796875 242.98345947265625 233.01449584960938 C 242.85525512695312 205.14846801757812 240.06248474121094 232.03587341308594 290.9041442871094 214.28158569335938 C 322.7677001953125 186.33872985839844 308.5821228027344 196.93788146972656 313.86651611328125 275.0858459472656" stroke-width="0.0" fill="rgb(255, 255, 255)" opacity="0.9860767" stroke="rgb(234, 20, 179)" stroke-opacity="0.214715" stroke-linecap="round" stroke-linejoin="round"/>
    <path d="M 109.6816177368164 10.344268798828125 C 60.851898193359375 38.34994125366211 65.97757720947266 80.97808074951172 53.23986053466797 87.96660614013672 C -9.33971118927002 80.98876953125 -10.631061553955078 79.595703125 -12.46138858795166 26.780426025390625 C -10.421398162841797 -19.907154083251953 -5.0913214683532715 -11.893834114074707 102.1039810180664 -12.054789543151855 C 155.1318817138672 7.54792594909668 139.63624572753906 -5.0250244140625 109.6816177368164 10.344268798828125" stroke-width="0.0" fill="rgb(255, 255, 255)" opacity="0.9932899" stroke="rgb(107, 169, 95)" stroke-opacity="0.46992376" stroke-linecap="round" stroke-linejoin="round"/>
    <path d="M 131.26588439941406 516.0782470703125 C 79.52540588378906 524.3207397460938 71.78254699707031 520.365234375 66.61415100097656 519.3602905273438 C 47.00121307373047 519.6038818359375 37.883094787597656 531.176025390625 -7.974289417266846 508.7049255371094 C 5.995737075805664 452.9826965332031 30.717025756835938 477.3302917480469 62.44480514526367 465.6474304199219 C 88.97966003417969 488.2504577636719 109.08861541748047 471.7096252441406 131.26588439941406 516.0782470703125" stroke-width="0.0" fill="rgb(255, 255, 255)" opacity="0.9842304" stroke="rgb(75, 73, 191)" stroke-opacity="0.6154567" stroke-linecap="round" stroke-linejoin="round"/>
    <path d="M 71.24047088623047 206.73773193359375 C 70.44308471679688 217.88735961914062 64.47382354736328 222.19525146484375 28.42006492614746 220.42486572265625 C 12.766106605529785 214.48471069335938 -2.6880626678466797 208.7974395751953 1.4516762495040894 193.9150390625 C 2.7772555351257324 184.0835723876953 23.541860580444336 173.64581298828125 48.968910217285156 175.06201171875 C 69.80670166015625 176.67755126953125 70.34535217285156 177.8839569091797 71.24047088623047 206.73773193359375" stroke-width="0.0" fill="rgb(97, 102, 109)" opacity="0.99889773" stroke="rgb(189, 215, 3)" stroke-opacity="0.6506371" stroke-linecap="round" stroke-linejoin="round"/>
    <path d="M 168.46701049804688 506.899658203125 C 175.6694793701172 519.599609375 174.041015625 501.6531677246094 177.7196502685547 514.1971435546875 C 161.82235717773438 525.8793334960938 121.91143798828125 526.7529907226562 131.59915161132812 511.4708557128906 C 144.46728515625 489.9020080566406 143.86326599121094 467.633544921875 153.11460876464844 442.2153625488281 C 155.97938537597656 463.5611267089844 156.96388244628906 481.399658203125 168.46701049804688 506.899658203125" stroke-width="0.0" fill="rgb(255, 255, 255)" opacity="0.9817929" stroke="rgb(189, 116, 186)" stroke-opacity="0.79366064" stroke-linecap="round" stroke-linejoin="round"/>
    <path d="M 196.64918518066406 57.61037826538086 C 215.26673889160156 65.05136108398438 206.8098907470703 86.11183166503906 193.47813415527344 85.58563995361328 C 186.5601043701172 86.21267700195312 179.5414581298828 79.54145050048828 179.54869079589844 72.776123046875 C 178.0059814453125 59.335166931152344 195.76356506347656 53.46357727050781 198.43418884277344 60.31532669067383 C 179.08409118652344 67.38533782958984 210.63497924804688 78.30034637451172 196.64918518066406 57.61037826538086" stroke-width="0.0" fill="rgb(33, 29, 29)" opacity="0.980041" stroke="rgb(184, 168, 49)" stroke-opacity="0.45237002" stroke-linecap="round" stroke-linejoin="round"/>
    <path d="M 116.0 73.0 C 115.33012390136719 75.5 113.5 77.33012390136719 111.0 78.0 C 108.5 77.33012390136719 106.66987609863281 75.5 106.0 73.0 C 106.66987609863281 70.5 108.5 68.66987609863281 111.0 68.0 C 113.5 68.66987609863281 115.33012390136719 70.5 116.0 73.0" stroke-width="0.0" fill="rgb(35, 31, 32)" opacity="1.0" stroke="rgb(67, 93, 22)" stroke-opacity="0.009411509" stroke-linecap="round" stroke-linejoin="round"/>
    <path d="M 187.0 387.0 C 186.3301239013672 389.5 184.5 391.33013916015625 182.0 392.0 C 179.5 391.33013916015625 177.6698760986328 389.5 177.0 387.0 C 177.6698760986328 384.5 179.5 382.66986083984375 182.0 382.0 C 184.5 382.66986083984375 186.3301239013672 384.5 187.0 387.0" stroke-width="0.0" fill="rgb(172, 176, 181)" opacity="1.0" stroke="rgb(175, 217, 107)" stroke-opacity="0.53359807" stroke-linecap="round" stroke-linejoin="round"/>
    <path d="M 141.0 101.0 C 140.3301239013672 103.5 138.5 105.33012390136719 136.0 106.0 C 133.5 105.33012390136719 131.6698760986328 103.5 131.0 101.0 C 131.6698760986328 98.5 133.5 96.66987609863281 136.0 96.0 C 138.5 96.66987609863281 140.3301239013672 98.5 141.0 101.0" stroke-width="0.0" fill="rgb(172, 176, 181)" opacity="1.0" stroke="rgb(145, 171, 76)" stroke-opacity="0.80575836" stroke-linecap="round" stroke-linejoin="round"/>
    <path d="M 156.0 90.0 C 155.3301239013672 92.5 153.5 94.33012390136719 151.0 95.0 C 148.5 94.33012390136719 146.6698760986328 92.5 146.0 90.0 C 146.6698760986328 87.5 148.5 85.66987609863281 151.0 85.0 C 153.5 85.66987609863281 155.3301239013672 87.5 156.0 90.0" stroke-width="0.0" fill="rgb(35, 31, 32)" opacity="1.0" stroke="rgb(161, 200, 95)" stroke-opacity="0.7044038" stroke-linecap="round" stroke-linejoin="round"/>
    <path d="M 245.0 115.0 C 244.3301239013672 117.5 242.5 119.33012390136719 240.0 120.0 C 237.5 119.33012390136719 235.6698760986328 117.5 235.0 115.0 C 235.6698760986328 112.5 237.5 110.66987609863281 240.0 110.0 C 242.5 110.66987609863281 244.3301239013672 112.5 245.0 115.0" stroke-width="0.0" fill="rgb(97, 102, 109)" opacity="1.0" stroke="rgb(89, 14, 87)" stroke-opacity="0.8492156" stroke-linecap="round" stroke-linejoin="round"/>
    <path d="M 113.0 101.0 C 112.33012390136719 103.5 110.5 105.33012390136719 108.0 106.0 C 105.5 105.33012390136719 103.66987609863281 103.5 103.0 101.0 C 103.66987609863281 98.5 105.5 96.66987609863281 108.0 96.0 C 110.5 96.66987609863281 112.33012390136719 98.5 113.0 101.0" stroke-width="0.0" fill="rgb(28, 23, 23)" opacity="1.0" stroke="rgb(62, 165, 226)" stroke-opacity="0.04560315" stroke-linecap="round" stroke-linejoin="round"/>
  </g>
</svg>
