<?xml version="1.0" ?>
<svg xmlns="http://www.w3.org/2000/svg" version="1.1" width="303" height="512">
  <defs/>
  <g>
    <path d="M 230.59005737304688 313.756591796875 C 198.1032257080078 309.29266357421875 195.439208984375 314.2611083984375 72.6081771850586 310.13653564453125 C 78.95130920410156 281.4937744140625 74.37188720703125 278.7763977050781 78.70370483398438 191.51351928710938 C 113.33424377441406 181.6923828125 104.80936431884766 160.39976501464844 221.9475860595703 159.486572265625 C 222.1904754638672 186.64773559570312 226.16578674316406 188.1412811279297 230.59005737304688 313.756591796875" stroke-width="0.0" fill="rgb(5, 13, 24)" opacity="0.52888393" stroke="rgb(194, 187, 3)" stroke-opacity="0.850194" stroke-linecap="round" stroke-linejoin="round"/>
    <path d="M 313.29345703125 343.69744873046875 C 312.0269470214844 435.2820739746094 312.4790954589844 437.6993408203125 303.4993591308594 463.1073913574219 C 187.36094665527344 461.4493103027344 215.99525451660156 474.4212951660156 212.82815551757812 406.2611083984375 C 247.04507446289062 379.35882568359375 242.51419067382812 354.45220947265625 242.61585998535156 322.945068359375 C 322.8221740722656 323.9782409667969 314.53594970703125 317.7205505371094 313.29345703125 343.69744873046875" stroke-width="0.0" fill="rgb(255, 255, 255)" opacity="0.97222763" stroke="rgb(104, 11, 95)" stroke-opacity="0.28740826" stroke-linecap="round" stroke-linejoin="round"/>
    <path d="M 97.21778106689453 410.2099304199219 C 111.25482940673828 448.2602233886719 122.83841705322266 473.5950012207031 100.28585815429688 491.19122314453125 C -35.67677307128906 500.7135009765625 -17.353445053100586 476.1573486328125 -11.22602653503418 417.6719665527344 C -13.303592681884766 319.4786376953125 -19.51006507873535 336.00994873046875 60.354713439941406 333.94451904296875 C 61.43621826171875 347.2182922363281 52.669830322265625 383.8822326660156 97.21778106689453 410.2099304199219" stroke-width="0.0" fill="rgb(255, 255, 255)" opacity="0.9148351" stroke="rgb(155, 69, 25)" stroke-opacity="0.117437534" stroke-linecap="round" stroke-linejoin="round"/>
    <path d="M 137.0 167.0 C 136.3301239013672 169.5 134.5 171.3301239013672 132.0 172.0 C 129.5 171.3301239013672 127.66987609863281 169.5 127.0 167.0 C 127.66987609863281 164.5 129.5 162.6698760986328 132.0 162.0 C 134.5 162.6698760986328 136.3301239013672 164.5 137.0 167.0" stroke-width="0.0" fill="rgb(97, 102, 109)" opacity="1.0" stroke="rgb(129, 20, 123)" stroke-opacity="0.006743026" stroke-linecap="round" stroke-linejoin="round"/>
    <path d="M 40.0 78.0 C 39.33012771606445 80.5 37.5 82.33012390136719 35.0 83.0 C 32.5 82.33012390136719 30.669872283935547 80.5 30.0 78.0 C 30.669872283935547 75.5 32.5 73.66987609863281 35.0 73.0 C 37.5 73.66987609863281 39.33012771606445 75.5 40.0 78.0" stroke-width="0.0" fill="rgb(255, 255, 255)" opacity="1.0" stroke="rgb(42, 211, 126)" stroke-opacity="0.46622697" stroke-linecap="round" stroke-linejoin="round"/>
    <path d="M 272.0 78.0 C 271.33013916015625 80.5 269.5 82.33012390136719 267.0 83.0 C 264.5 82.33012390136719 262.66986083984375 80.5 262.0 78.0 C 262.66986083984375 75.5 264.5 73.66987609863281 267.0 73.0 C 269.5 73.66987609863281 271.33013916015625 75.5 272.0 78.0" stroke-width="0.0" fill="rgb(255, 255, 255)" opacity="1.0" stroke="rgb(112, 116, 245)" stroke-opacity="0.079277314" stroke-linecap="round" stroke-linejoin="round"/>
    <path d="M 243.0 481.0 C 242.3301239013672 483.5 240.5 485.33013916015625 238.0 486.0 C 235.5 485.33013916015625 233.6698760986328 483.5 233.0 481.0 C 233.6698760986328 478.5 235.5 476.66986083984375 238.0 476.0 C 240.5 476.66986083984375 242.3301239013672 478.5 243.0 481.0" stroke-width="0.0" fill="rgb(255, 255, 255)" opacity="1.0" stroke="rgb(244, 142, 165)" stroke-opacity="0.32646012" stroke-linecap="round" stroke-linejoin="round"/>
  </g>
</svg>
