<?xml version="1.0" ?>
<svg xmlns="http://www.w3.org/2000/svg" version="1.1" width="512" height="512">
  <defs/>
  <g>
    <path d="M 3.975733995437622 0.37940850853919983 L 512.0017700195312 0.31694647669792175 L 512.0 512.0 L 4.147892475128174 512.0 L 3.975733995437622 0.37940850853919983" stroke-width="0.0" fill="rgb(245, 233, 207)" opacity="0.98530173" stroke="rgb(0, 0, 0)" stroke-opacity="0.0" stroke-linecap="round" stroke-linejoin="round"/>
    <path d="M 401.4717102050781 77.26180267333984 L 207.42141723632812 77.38944244384766 C 204.572265625 85.15422058105469 224.83238220214844 93.07435607910156 221.32432556152344 95.18201446533203 C 194.3705596923828 95.5013427734375 163.35037231445312 92.98472595214844 130.5342254638672 95.94194793701172 C 134.12400817871094 108.8473892211914 122.66275787353516 103.47982788085938 116.82139587402344 103.734619140625 L -3.935821533203125 103.6294937133789 L -4.301863193511963 281.9545593261719 C 13.541097640991211 284.38665771484375 30.65555763244629 278.5613708496094 47.1899299621582 279.3657531738281 C 102.18260955810547 273.6099548339844 156.8011932373047 253.39927673339844 202.3084716796875 260.59442138671875 C 199.92266845703125 259.7843933105469 173.67088317871094 252.22445678710938 184.30938720703125 267.8440246582031 C 225.18467712402344 278.0960998535156 256.3121337890625 261.44805908203125 286.93646240234375 257.2240905761719 C 288.8327331542969 234.9739532470703 281.7538146972656 221.79574584960938 305.7847595214844 200.5289306640625 C 310.94134521484375 199.09617614746094 331.27044677734375 202.71783447265625 349.4755554199219 202.90965270996094 C 351.06353759765625 187.50167846679688 345.36181640625 173.9307403564453 358.1961975097656 178.35903930664062 C 361.8127136230469 164.41995239257812 353.5467529296875 152.05711364746094 368.84332275390625 156.64280700683594 C 372.1754455566406 135.4950408935547 364.5260925292969 108.65522003173828 377.5026550292969 116.66383361816406 C 382.2529602050781 101.64680480957031 389.6158142089844 94.79412078857422 401.16363525390625 93.55786895751953 C 402.17742919921875 83.7949447631836 401.2513732910156 85.83374786376953 401.4717102050781 77.26180267333984" stroke-width="2.0" fill="rgb(38, 132, 190)" opacity="1.0027832" stroke="rgb(0, 0, 0)" stroke-opacity="0.0" stroke-linecap="round" stroke-linejoin="round"/>
    <path d="M -1.0083123445510864 -2.6455349922180176 L -0.762191891670227 46.226436614990234 L 23.415328979492188 42.4472770690918 C 38.326744079589844 69.03626251220703 60.1336784362793 46.10427474975586 80.62911987304688 51.35951614379883 C 122.36334991455078 60.25442123413086 163.73196411132812 67.11090850830078 203.69296264648438 77.83927917480469 C 307.0469055175781 77.89683532714844 409.15948486328125 77.6615982055664 514.2041015625 77.94869995117188 L 514.1919555664062 -2.642702579498291 L -1.0083123445510864 -2.6455349922180176" stroke-width="2.0" fill="rgb(249, 233, 206)" opacity="0.62948436" stroke="rgb(0, 0, 0)" stroke-opacity="0.0" stroke-linecap="round" stroke-linejoin="round"/>
    <path d="M 220.74270629882812 268.81597900390625 C 198.87892150878906 256.80865478515625 179.04507446289062 246.57199096679688 150.3966064453125 255.5224151611328 C 97.92308044433594 264.6945495605469 48.852394104003906 275.6131286621094 -3.5784618854522705 280.4256896972656 L -4.29272985458374 515.4380493164062 L 13.26271915435791 512.7354125976562 C 37.12489700317383 499.6347961425781 57.68115997314453 489.0721435546875 80.89781188964844 476.8221130371094 C 78.9000015258789 461.74755859375 88.83988189697266 447.4779052734375 108.33013153076172 432.7130126953125 C 99.12638092041016 422.5540771484375 77.48359680175781 423.24639892578125 93.25894165039062 410.6613464355469 C 79.84817504882812 405.8668518066406 60.68121337890625 411.09039306640625 62.01725387573242 397.0213928222656 C 56.227142333984375 397.2406311035156 53.219913482666016 396.5140075683594 51.69131088256836 397.02301025390625 C 59.09785842895508 387.2069091796875 57.1470947265625 369.3486022949219 74.99346160888672 362.75262451171875 C 76.0113296508789 358.4485778808594 83.85297393798828 369.6841125488281 84.31581115722656 378.8421325683594 C 101.10760498046875 374.79864501953125 93.85581970214844 397.6285095214844 114.77909088134766 393.4673156738281 C 117.02886962890625 363.0615539550781 108.98782348632812 359.20538330078125 125.68598937988281 326.08941650390625 C 139.29344177246094 321.98785400390625 143.94163513183594 335.857177734375 145.64292907714844 348.6278381347656 C 148.5142364501953 357.2703857421875 138.8922119140625 380.848388671875 153.25721740722656 376.1103210449219 C 167.85992431640625 366.2025451660156 160.4833984375 346.37548828125 159.1651153564453 333.5989990234375 C 174.493408203125 314.41973876953125 203.11412048339844 297.7789001464844 206.0207061767578 276.82208251953125 C 212.03887939453125 273.52008056640625 218.33468627929688 276.1979675292969 220.74270629882812 268.81597900390625" stroke-width="2.0" fill="rgb(40, 107, 169)" opacity="1.0062873" stroke="rgb(0, 0, 0)" stroke-opacity="0.0" stroke-linecap="round" stroke-linejoin="round"/>
    <path d="M 511.43896484375 269.26080322265625 C 449.6443176269531 280.4305725097656 438.73651123046875 320.9933166503906 419.6602783203125 334.1697998046875 C 400.4605712890625 367.3045349121094 378.48553466796875 373.8011779785156 369.08599853515625 405.8421936035156 C 363.0842590332031 448.16290283203125 342.2705383300781 478.1325378417969 322.5789794921875 516.5780639648438 L 517.2738037109375 516.43212890625 L 511.43896484375 269.26080322265625" stroke-width="2.0" fill="rgb(163, 64, 48)" opacity="0.6669561" stroke="rgb(0, 0, 0)" stroke-opacity="0.0" stroke-linecap="round" stroke-linejoin="round"/>
    <path d="M 516.732177734375 356.69586181640625 C 479.2814636230469 358.10693359375 461.47564697265625 392.47662353515625 455.1320495605469 418.1409606933594 C 420.6031188964844 419.91424560546875 387.5836486816406 438.48089599609375 376.106201171875 478.3757019042969 C 372.21649169921875 487.8414001464844 368.55975341796875 500.490478515625 365.2120361328125 516.3464965820312 L 516.4052734375 516.3858032226562 L 516.732177734375 356.69586181640625" stroke-width="2.0" fill="rgb(35, 70, 96)" opacity="0.99124086" stroke="rgb(0, 0, 0)" stroke-opacity="0.0" stroke-linecap="round" stroke-linejoin="round"/>
    <path d="M 428.586181640625 320.56024169921875 C 401.29925537109375 334.31463623046875 371.54669189453125 343.61383056640625 357.95098876953125 353.5455322265625 C 345.6400451660156 379.57147216796875 359.48358154296875 411.30584716796875 331.5045471191406 431.1636657714844 C 295.5055236816406 453.0902099609375 263.3201904296875 476.8919372558594 223.63211059570312 515.9322509765625 L 321.9674987792969 514.7116088867188 C 381.38818359375 449.2318420410156 391.8192138671875 388.1087646484375 428.586181640625 320.56024169921875" stroke-width="2.0" fill="rgb(38, 71, 96)" opacity="1.0030589" stroke="rgb(0, 0, 0)" stroke-opacity="0.0" stroke-linecap="round" stroke-linejoin="round"/>
    <path d="M -3.5042905807495117 42.961021423339844 L -3.564718008041382 109.30001068115234 L 135.66729736328125 109.5376205444336 C 134.0926055908203 102.52085876464844 135.490234375 100.85679626464844 141.79043579101562 100.67210388183594 L 226.7884521484375 100.27397918701172 C 224.114990234375 86.2401351928711 209.2657928466797 75.82405853271484 197.96595764160156 81.19449615478516 C 140.9848175048828 69.64470672607422 92.03282928466797 41.25977325439453 35.27216339111328 56.54650115966797 C 22.492595672607422 37.98044967651367 22.754104614257812 42.632225036621094 -3.5042905807495117 42.961021423339844" stroke-width="2.0" fill="rgb(48, 112, 168)" opacity="1.0303187" stroke="rgb(0, 0, 0)" stroke-opacity="0.0" stroke-linecap="round" stroke-linejoin="round"/>
    <path d="M 272.9197082519531 457.97479248046875 C 262.7638854980469 453.5267028808594 261.0966796875 447.515625 255.71133422851562 442.91119384765625 C 246.02818298339844 441.4248352050781 239.30123901367188 443.69952392578125 234.27040100097656 444.4193115234375 C 224.12667846679688 442.7481384277344 213.0167999267578 437.658203125 201.10006713867188 438.59893798828125 C 154.18019104003906 460.4841003417969 104.92831420898438 485.7008056640625 54.03316116333008 513.3388061523438 L 199.9462127685547 514.4478149414062 C 223.95774841308594 493.9462585449219 247.26980590820312 475.7718811035156 272.9197082519531 457.97479248046875" stroke-width="2.0" fill="rgb(246, 196, 159)" opacity="0.98206025" stroke="rgb(0, 0, 0)" stroke-opacity="0.0" stroke-linecap="round" stroke-linejoin="round"/>
    <path d="M 147.01524353027344 388.9640197753906 L 146.8993682861328 399.3957214355469 C 165.4174041748047 404.5008544921875 182.4366912841797 408.5322265625 203.8200225830078 413.8600158691406 C 201.54193115234375 386.4248962402344 229.5234375 352.4306945800781 255.8380584716797 365.488525390625 C 285.65216064453125 371.850830078125 292.3916015625 404.49603271484375 292.8337707519531 430.7986755371094 C 313.401123046875 413.3664245605469 341.5890197753906 410.50079345703125 335.557861328125 382.0759582519531 C 320.2968444824219 346.86016845703125 289.201416015625 337.6639709472656 261.72247314453125 355.126220703125 C 258.1938781738281 348.78564453125 262.5229187011719 341.9057922363281 259.31158447265625 336.4348449707031 C 240.72996520996094 334.5581359863281 228.49440002441406 324.0274353027344 210.8009796142578 336.41094970703125 C 208.4781494140625 344.0553894042969 212.218017578125 355.0408935546875 207.98316955566406 360.8567810058594 C 187.40774536132812 370.2463684082031 168.65269470214844 378.49041748046875 147.01524353027344 388.9640197753906" stroke-width="2.0" fill="rgb(122, 187, 205)" opacity="0.99647516" stroke="rgb(0, 0, 0)" stroke-opacity="0.0" stroke-linecap="round" stroke-linejoin="round"/>
    <path d="M 406.7228698730469 77.72161102294922 C 404.5394592285156 78.47589874267578 406.980712890625 84.48343658447266 404.29833984375 93.16533660888672 C 420.3600769042969 94.75263214111328 426.8059387207031 112.3258285522461 434.7654724121094 121.87601470947266 L 435.8594970703125 157.87806701660156 C 455.3999328613281 157.9453125 437.8184509277344 181.2467041015625 454.8748779296875 183.89248657226562 L 456.60821533203125 200.1513214111328 C 465.37957763671875 198.0264892578125 468.1615905761719 193.7030487060547 473.6366882324219 191.1642303466797 L 474.1039123535156 136.6071319580078 C 488.1842956542969 126.63249206542969 500.46978759765625 120.15377044677734 514.5025634765625 113.57963562011719 L 515.9721069335938 77.73188018798828 L 406.7228698730469 77.72161102294922" stroke-width="2.0" fill="rgb(43, 135, 189)" opacity="1.0199261" stroke="rgb(0, 0, 0)" stroke-opacity="0.0" stroke-linecap="round" stroke-linejoin="round"/>
    <path d="M 230.63958740234375 364.6105041503906 C 202.5308074951172 377.34381103515625 200.43438720703125 412.6376953125 201.59437561035156 437.6056213378906 C 219.8885955810547 441.51312255859375 232.43960571289062 452.1808166503906 243.9056396484375 443.1717529296875 C 245.2577362060547 426.4126281738281 237.37933349609375 411.333984375 248.62667846679688 398.9832458496094 C 253.7930145263672 396.0270690917969 258.7381591796875 403.3049011230469 259.123046875 406.9661865234375 L 258.939697265625 453.10015869140625 C 278.79718017578125 464.0705871582031 285.5292053222656 438.1231689453125 293.5009765625 430.88909912109375 C 296.9624938964844 394.9630432128906 270.24395751953125 351.13873291015625 230.63958740234375 364.6105041503906" stroke-width="2.0" fill="rgb(248, 235, 208)" opacity="0.68404657" stroke="rgb(0, 0, 0)" stroke-opacity="0.0" stroke-linecap="round" stroke-linejoin="round"/>
    <path d="M 513.4317626953125 112.6238021850586 C 499.1220703125 121.13743591308594 484.0805358886719 127.02354431152344 473.6268615722656 134.60479736328125 C 472.7353820800781 155.21435546875 473.07037353515625 175.0449676513672 472.4610900878906 193.2547607421875 C 452.8187255859375 197.16233825683594 458.2148132324219 210.999267578125 460.6766052246094 223.7802276611328 C 478.4455871582031 222.63711547851562 496.4957580566406 236.55084228515625 516.1909790039062 216.7323455810547 L 513.4317626953125 112.6238021850586" stroke-width="2.0" fill="rgb(247, 234, 207)" opacity="0.69750184" stroke="rgb(0, 0, 0)" stroke-opacity="0.0" stroke-linecap="round" stroke-linejoin="round"/>
    <path d="M 291.52423095703125 288.8869934082031 C 297.3468017578125 300.82647705078125 321.6353454589844 303.7618713378906 331.4488220214844 304.36907958984375 C 352.7761535644531 306.0661315917969 370.44036865234375 305.35943603515625 391.3059387207031 295.89093017578125 C 385.39471435546875 253.04383850097656 332.86602783203125 235.3290252685547 304.01458740234375 272.96856689453125 L 291.52423095703125 288.8869934082031" stroke-width="2.0" fill="rgb(39, 125, 183)" opacity="0.9983981" stroke="rgb(0, 0, 0)" stroke-opacity="0.0" stroke-linecap="round" stroke-linejoin="round"/>
    <path d="M 74.72071838378906 359.1517333984375 C 58.44072341918945 364.9673767089844 58.919315338134766 384.2549133300781 51.0040168762207 395.7904052734375 C 54.80642318725586 400.6783447265625 66.10700225830078 397.1753234863281 57.54692459106445 405.9253845214844 C 68.19586944580078 415.9726867675781 80.29910278320312 408.1891174316406 90.48870086669922 412.8756103515625 C 68.49407196044922 429.0093994140625 97.332275390625 424.1629638671875 107.68512725830078 433.0448303222656 C 86.22513580322266 443.50848388671875 73.6369857788086 457.0347595214844 80.90242004394531 476.1155090332031 L 114.36322021484375 459.2185363769531 L 114.89649963378906 391.8211669921875 C 93.87956237792969 397.63970947265625 108.33106994628906 371.5497741699219 87.90730285644531 376.2660827636719 C 85.38328552246094 369.5445251464844 85.07826232910156 359.817138671875 74.72071838378906 359.1517333984375" stroke-width="2.0" fill="rgb(39, 66, 89)" opacity="1.0008495" stroke="rgb(0, 0, 0)" stroke-opacity="0.0" stroke-linecap="round" stroke-linejoin="round"/>
    <path d="M 102.89418029785156 55.69212341308594 C 111.9486083984375 72.65874481201172 116.12416076660156 89.30693817138672 134.59703063964844 98.6479263305664 L 225.8911590576172 98.51288604736328 C 221.9009552001953 90.22486114501953 212.94540405273438 83.40872955322266 208.2581329345703 78.14676666259766 L 102.89418029785156 55.69212341308594" stroke-width="2.0" fill="rgb(160, 114, 119)" opacity="0.9985341" stroke="rgb(0, 0, 0)" stroke-opacity="0.0" stroke-linecap="round" stroke-linejoin="round"/>
    <path d="M 387.24859619140625 172.10861206054688 C 369.9205627441406 184.25576782226562 379.9244079589844 214.95050048828125 376.3424072265625 239.6046600341797 L 421.802490234375 243.75863647460938 C 419.3272399902344 220.40049743652344 428.73175048828125 189.8887481689453 405.7320251464844 169.80433654785156 C 400.50177001953125 169.62330627441406 395.29290771484375 167.5732421875 387.24859619140625 172.10861206054688" stroke-width="2.0" fill="rgb(226, 109, 77)" opacity="0.6146685" stroke="rgb(0, 0, 0)" stroke-opacity="0.0" stroke-linecap="round" stroke-linejoin="round"/>
    <path d="M 218.48199462890625 288.08349609375 L 203.78787231445312 283.5614929199219 C 190.6105194091797 301.27685546875 173.6504364013672 314.7012634277344 156.5067901611328 330.4732971191406 L 156.33151245117188 375.2050476074219 C 174.4267578125 362.4963073730469 206.3571319580078 361.36273193359375 198.6416778564453 342.9421691894531 C 195.44415283203125 337.40338134765625 191.60670471191406 337.47540283203125 195.58798217773438 336.57257080078125 C 200.20208740234375 321.70928955078125 220.67437744140625 307.55657958984375 218.48199462890625 288.08349609375" stroke-width="2.0" fill="rgb(212, 124, 97)" opacity="0.9497504" stroke="rgb(0, 0, 0)" stroke-opacity="0.0" stroke-linecap="round" stroke-linejoin="round"/>
    <path d="M 286.5450744628906 255.48126220703125 C 263.2060546875 255.709228515625 235.93858337402344 269.0327453613281 208.15692138671875 271.79754638671875 C 195.00457763671875 292.09228515625 214.20211791992188 282.0841064453125 217.15615844726562 293.0589904785156 C 212.0639190673828 312.02606201171875 190.2230224609375 325.3811950683594 191.14768981933594 341.61529541015625 C 203.9684600830078 345.1661682128906 198.5517578125 337.3917541503906 201.38768005371094 331.8961181640625 L 224.55357360839844 321.7447814941406 C 227.4623565673828 309.67822265625 222.2462158203125 298.1138610839844 234.26026916503906 287.1064758300781 C 250.959716796875 281.5829772949219 268.7830810546875 278.3163757324219 287.5190734863281 273.1446533203125 L 286.5450744628906 255.48126220703125" stroke-width="2.0" fill="rgb(244, 193, 157)" opacity="0.8988115" stroke="rgb(0, 0, 0)" stroke-opacity="0.0" stroke-linecap="round" stroke-linejoin="round"/>
    <path d="M 238.65794372558594 283.1309814453125 C 220.92190551757812 290.2357177734375 225.600830078125 308.6716613769531 223.65354919433594 326.2087097167969 C 233.16978454589844 336.0260925292969 247.18099975585938 332.6082763671875 262.0528564453125 339.4627380371094 C 275.8438415527344 329.97003173828125 267.6167907714844 311.66668701171875 269.7886047363281 299.7425842285156 C 263.78314208984375 288.41253662109375 249.81222534179688 278.24884033203125 238.65794372558594 283.1309814453125" stroke-width="2.0" fill="rgb(246, 234, 207)" opacity="0.68510914" stroke="rgb(0, 0, 0)" stroke-opacity="0.0" stroke-linecap="round" stroke-linejoin="round"/>
    <path d="M 401.31109619140625 169.3115997314453 C 380.0325012207031 180.41429138183594 388.5299987792969 205.5130157470703 386.1942138671875 228.1184539794922 L 421.9219055175781 231.38270568847656 C 419.3894958496094 209.35560607910156 429.8136901855469 173.38827514648438 401.31109619140625 169.3115997314453" stroke-width="2.0" fill="rgb(63, 134, 176)" opacity="1.0604819" stroke="rgb(0, 0, 0)" stroke-opacity="0.0" stroke-linecap="round" stroke-linejoin="round"/>
    <path d="M 307.9060363769531 267.1786804199219 C 287.23681640625 268.5753479003906 268.566650390625 277.28265380859375 247.1742401123047 281.7209777832031 C 274.9886779785156 289.7359924316406 268.21466064453125 313.8444519042969 269.5643615722656 333.6314697265625 C 275.719482421875 331.4494934082031 281.3535461425781 328.69610595703125 286.34942626953125 327.2911071777344 C 290.390380859375 310.73345947265625 280.9507751464844 287.5605163574219 297.1432189941406 294.3973388671875 C 297.29901123046875 282.76885986328125 303.3033142089844 276.6332702636719 307.9060363769531 267.1786804199219" stroke-width="2.0" fill="rgb(122, 186, 204)" opacity="0.9767112" stroke="rgb(0, 0, 0)" stroke-opacity="0.0" stroke-linecap="round" stroke-linejoin="round"/>
    <path d="M 384.91949462890625 274.4093017578125 C 391.3595886230469 284.36199951171875 389.3980712890625 295.3689880371094 399.82647705078125 296.09747314453125 L 397.9762268066406 320.1498107910156 C 423.1774597167969 320.4288024902344 430.1286315917969 298.766357421875 437.5691833496094 280.9103698730469 L 384.91949462890625 274.4093017578125" stroke-width="2.0" fill="rgb(244, 193, 156)" opacity="0.9280592" stroke="rgb(0, 0, 0)" stroke-opacity="0.0" stroke-linecap="round" stroke-linejoin="round"/>
    <path d="M 450.12066650390625 179.65614318847656 L 450.3833923339844 244.8363800048828 C 469.0220642089844 253.31495666503906 477.99951171875 240.69439697265625 496.2759704589844 225.24981689453125 L 458.57440185546875 222.57838439941406 L 458.892822265625 182.91123962402344 C 458.0955810546875 179.75848388671875 454.5276184082031 180.36253356933594 450.12066650390625 179.65614318847656" stroke-width="2.0" fill="rgb(122, 186, 204)" opacity="0.9788673" stroke="rgb(0, 0, 0)" stroke-opacity="0.0" stroke-linecap="round" stroke-linejoin="round"/>
    <path d="M 513.6420288085938 200.45033264160156 C 492.6819152832031 198.03021240234375 477.0653991699219 193.97084045410156 459.8890686035156 211.94869995117188 C 451.1184997558594 232.2193603515625 480.5697021484375 219.7366180419922 493.5768737792969 227.5015106201172 C 504.91912841796875 217.96287536621094 517.843017578125 211.6105194091797 513.6420288085938 200.45033264160156" stroke-width="2.0" fill="rgb(244, 178, 137)" opacity="0.6666997" stroke="rgb(0, 0, 0)" stroke-opacity="0.0" stroke-linecap="round" stroke-linejoin="round"/>
    <path d="M 401.4757995605469 104.08800506591797 C 382.0399475097656 116.88603210449219 393.20953369140625 138.4357452392578 390.4967041015625 156.65969848632812 L 410.95220947265625 157.80252075195312 C 404.91680908203125 137.7919158935547 420.91943359375 108.13809204101562 401.4757995605469 104.08800506591797" stroke-width="2.0" fill="rgb(130, 146, 167)" opacity="0.95300573" stroke="rgb(0, 0, 0)" stroke-opacity="0.0" stroke-linecap="round" stroke-linejoin="round"/>
    <path d="M 246.492919921875 396.64068603515625 C 232.9912872314453 410.79388427734375 240.7613067626953 428.67608642578125 237.98646545410156 444.5842590332031 C 243.3463134765625 441.3932189941406 249.1623992919922 445.05108642578125 256.9288024902344 445.9028625488281 C 256.2334899902344 430.188720703125 269.4605407714844 394.1762390136719 246.492919921875 396.64068603515625" stroke-width="2.0" fill="rgb(145, 152, 166)" opacity="1.0266124" stroke="rgb(0, 0, 0)" stroke-opacity="0.0" stroke-linecap="round" stroke-linejoin="round"/>
    <path d="M 136.95361328125 324.70819091796875 C 128.411865234375 347.779541015625 134.4796142578125 370.3431091308594 131.82142639160156 395.373046875 C 134.78880310058594 397.1353454589844 141.50352478027344 398.5627746582031 148.95095825195312 399.90142822265625 C 145.7125701904297 371.829833984375 157.22430419921875 350.3966369628906 136.95361328125 324.70819091796875" stroke-width="2.0" fill="rgb(236, 148, 117)" opacity="0.88696396" stroke="rgb(0, 0, 0)" stroke-opacity="0.0" stroke-linecap="round" stroke-linejoin="round"/>
    <path d="M 246.83468627929688 400.7870178222656 C 243.5818634033203 410.2231140136719 246.2367706298828 426.3191223144531 245.02719116210938 442.2025146484375 L 259.7007751464844 446.12689208984375 C 259.7110290527344 430.7261962890625 260.0975036621094 414.3656311035156 258.5531005859375 403.7663269042969 C 254.60617065429688 396.836669921875 253.4662628173828 396.7455139160156 246.83468627929688 400.7870178222656" stroke-width="2.0" fill="rgb(35, 129, 185)" opacity="0.96775395" stroke="rgb(0, 0, 0)" stroke-opacity="0.0" stroke-linecap="round" stroke-linejoin="round"/>
    <path d="M 400.2959899902344 297.265869140625 C 391.1180114746094 300.3721008300781 382.2498474121094 304.11065673828125 373.55078125 307.1385803222656 L 373.4911193847656 333.9709167480469 L 401.3155517578125 322.1393737792969 L 400.2959899902344 297.265869140625" stroke-width="2.0" fill="rgb(119, 185, 202)" opacity="0.9510453" stroke="rgb(0, 0, 0)" stroke-opacity="0.0" stroke-linecap="round" stroke-linejoin="round"/>
    <path d="M 451.3483581542969 276.9985046386719 C 429.2733459472656 305.48486328125 411.1529846191406 357.1291809082031 417.6427917480469 402.56298828125 L 490.1131286621094 313.5456237792969 L 451.3483581542969 276.9985046386719" stroke-width="2.0" fill="rgb(223, 147, 103)" opacity="0.9299803" stroke="rgb(0, 0, 0)" stroke-opacity="0.0" stroke-linecap="round" stroke-linejoin="round"/>
    <path d="M 390.7563171386719 190.2997283935547 C 388.5928955078125 193.88645935058594 400.4842834472656 189.3576202392578 406.01214599609375 185.4596405029297 C 404.5251159667969 199.07505798339844 412.1563415527344 191.46820068359375 417.20330810546875 192.88345336914062 C 421.50042724609375 171.21067810058594 391.1864318847656 162.48756408691406 390.7563171386719 190.2997283935547" stroke-width="2.0" fill="rgb(35, 134, 193)" opacity="0.84135413" stroke="rgb(0, 0, 0)" stroke-opacity="0.0" stroke-linecap="round" stroke-linejoin="round"/>
    <path d="M 406.073974609375 105.1728286743164 C 394.50823974609375 116.07380676269531 401.7143859863281 138.50982666015625 398.8955383300781 156.52197265625 L 411.629150390625 156.68873596191406 C 409.92633056640625 139.28424072265625 414.83502197265625 118.7896957397461 406.073974609375 105.1728286743164" stroke-width="2.0" fill="rgb(31, 130, 187)" opacity="0.8740939" stroke="rgb(0, 0, 0)" stroke-opacity="0.0" stroke-linecap="round" stroke-linejoin="round"/>
    <path d="M 92.0531997680664 75.7136001586914 C 100.79875946044922 88.00212097167969 96.71906280517578 117.32974243164062 119.611083984375 107.55913543701172 C 112.57203674316406 94.71090698242188 114.72285461425781 68.1008529663086 92.0531997680664 75.7136001586914" stroke-width="2.0" fill="rgb(150, 114, 126)" opacity="1.0187327" stroke="rgb(0, 0, 0)" stroke-opacity="0.0" stroke-linecap="round" stroke-linejoin="round"/>
    <path d="M 89.41362762451172 52.9807243347168 C 80.66951751708984 50.972808837890625 74.17704772949219 51.58085632324219 66.70618438720703 51.40651321411133 C 64.55889129638672 61.79804992675781 57.38882827758789 71.12225341796875 54.07802200317383 80.22431945800781 C 70.47492218017578 83.51934814453125 79.55140686035156 68.27685546875 89.41362762451172 52.9807243347168" stroke-width="2.0" fill="rgb(157, 114, 122)" opacity="0.9594379" stroke="rgb(0, 0, 0)" stroke-opacity="0.0" stroke-linecap="round" stroke-linejoin="round"/>
    <path d="M 292.900146484375 225.36891174316406 L 292.05816650390625 233.17088317871094 C 310.89398193359375 233.94589233398438 329.4362487792969 236.90025329589844 349.8492736816406 237.73599243164062 L 348.3500061035156 227.4409637451172 C 329.18170166015625 229.4137420654297 308.0256652832031 221.8023223876953 292.900146484375 225.36891174316406" stroke-width="2.0" fill="rgb(243, 198, 162)" opacity="0.9505656" stroke="rgb(0, 0, 0)" stroke-opacity="0.0" stroke-linecap="round" stroke-linejoin="round"/>
    <path d="M 406.89013671875 94.32106018066406 C 428.2560729980469 103.81034088134766 417.6463623046875 119.87966918945312 431.485107421875 117.084716796875 L 431.4698181152344 159.35011291503906 L 439.8741149902344 159.4798126220703 L 439.6912536621094 117.6011962890625 C 428.7604675292969 118.07789611816406 431.6873474121094 92.21270751953125 406.89013671875 94.32106018066406" stroke-width="2.0" fill="rgb(124, 187, 207)" opacity="0.9428339" stroke="rgb(0, 0, 0)" stroke-opacity="0.0" stroke-linecap="round" stroke-linejoin="round"/>
    <path d="M 379.2056579589844 241.1173858642578 C 392.0764465332031 241.9863739013672 405.8763122558594 243.89637756347656 421.66064453125 244.65643310546875 L 421.8475036621094 230.0913848876953 L 386.5858459472656 227.2080841064453 L 379.2056579589844 241.1173858642578" stroke-width="2.0" fill="rgb(250, 215, 179)" opacity="0.68967956" stroke="rgb(0, 0, 0)" stroke-opacity="0.0" stroke-linecap="round" stroke-linejoin="round"/>
    <path d="M 404.03582763671875 104.50601959228516 C 396.1405334472656 101.56927490234375 391.5189514160156 107.21141815185547 389.81610107421875 115.27053833007812 C 389.4876708984375 127.36761474609375 389.86041259765625 144.5035400390625 389.389892578125 156.3565673828125 L 397.41131591796875 157.4534912109375 C 400.83807373046875 137.466064453125 392.69427490234375 118.8643798828125 404.03582763671875 104.50601959228516" stroke-width="2.0" fill="rgb(236, 157, 125)" opacity="1.0000079" stroke="rgb(0, 0, 0)" stroke-opacity="0.0" stroke-linecap="round" stroke-linejoin="round"/>
    <path d="M 382.6219787597656 193.1498565673828 C 386.80670166015625 199.83428955078125 395.9900207519531 193.51084899902344 400.96624755859375 198.8167724609375 C 396.82427978515625 204.1569061279297 395.7835693359375 212.68466186523438 396.578125 216.4876708984375 C 402.3573913574219 215.5888214111328 408.2208251953125 217.73553466796875 413.2664794921875 215.02696228027344 C 405.7611999511719 209.42311096191406 413.5814208984375 205.57521057128906 405.40374755859375 199.75332641601562 C 408.8876953125 193.38912963867188 427.0559997558594 204.36550903320312 420.0806579589844 193.42872619628906 C 401.30816650390625 199.59767150878906 403.6182556152344 178.650634765625 401.1843566894531 193.64028930664062 L 382.6219787597656 193.1498565673828" stroke-width="2.0" fill="rgb(233, 144, 115)" opacity="0.8524924" stroke="rgb(0, 0, 0)" stroke-opacity="0.0" stroke-linecap="round" stroke-linejoin="round"/>
    <path d="M 64.44552612304688 236.51890563964844 C 75.39647674560547 245.26637268066406 100.15763854980469 238.23776245117188 114.66822814941406 229.70957946777344 C 106.69847869873047 228.0865020751953 97.07904052734375 233.0070037841797 88.06867218017578 233.59251403808594 C 83.27012634277344 225.86978149414062 82.22303771972656 218.27015686035156 80.23218536376953 213.1718292236328 C 73.30626678466797 230.1030731201172 81.47419738769531 236.46902465820312 64.44552612304688 236.51890563964844" stroke-width="2.0" fill="rgb(224, 230, 218)" opacity="1.0494455" stroke="rgb(0, 0, 0)" stroke-opacity="0.0" stroke-linecap="round" stroke-linejoin="round"/>
    <path d="M 249.70870971679688 395.9308776855469 C 242.6762237548828 393.86541748046875 237.8468475341797 400.12200927734375 236.67138671875 407.8124694824219 L 236.59007263183594 449.5921325683594 C 252.92471313476562 439.5658874511719 235.32745361328125 408.8697814941406 249.70870971679688 395.9308776855469" stroke-width="2.0" fill="rgb(235, 159, 126)" opacity="1.0073711" stroke="rgb(0, 0, 0)" stroke-opacity="0.0" stroke-linecap="round" stroke-linejoin="round"/>
    <path d="M 311.5347900390625 318.9500427246094 C 312.574951171875 327.38275146484375 304.0038757324219 348.64312744140625 322.42626953125 343.1805725097656 C 321.5871276855469 332.3017272949219 326.2386474609375 309.0214538574219 311.5347900390625 318.9500427246094" stroke-width="2.0" fill="rgb(46, 126, 178)" opacity="0.99481034" stroke="rgb(0, 0, 0)" stroke-opacity="0.0" stroke-linecap="round" stroke-linejoin="round"/>
    <path d="M 49.050296783447266 392.3236083984375 C 52.56607437133789 410.8634033203125 65.75077819824219 389.9426574707031 74.51266479492188 399.8548583984375 C 80.32516479492188 388.6634216308594 54.50724411010742 382.3281555175781 49.050296783447266 392.3236083984375" stroke-width="2.0" fill="rgb(172, 114, 116)" opacity="0.7378283" stroke="rgb(0, 0, 0)" stroke-opacity="0.0" stroke-linecap="round" stroke-linejoin="round"/>
    <path d="M 178.23680114746094 229.9236602783203 C 199.92520141601562 232.85215759277344 223.51419067382812 228.6138153076172 242.7881622314453 225.542724609375 C 221.98348999023438 226.7454376220703 200.85887145996094 223.84286499023438 178.23680114746094 229.9236602783203" stroke-width="2.0" fill="rgb(33, 116, 178)" opacity="1.0014309" stroke="rgb(0, 0, 0)" stroke-opacity="0.0" stroke-linecap="round" stroke-linejoin="round"/>
    <path d="M 355.07073974609375 318.36224365234375 C 348.85888671875 316.1819763183594 344.7637634277344 358.1288757324219 360.847900390625 338.1124572753906 C 359.27215576171875 331.2182922363281 363.97576904296875 319.7703552246094 355.07073974609375 318.36224365234375" stroke-width="2.0" fill="rgb(132, 188, 201)" opacity="0.9984965" stroke="rgb(0, 0, 0)" stroke-opacity="0.0" stroke-linecap="round" stroke-linejoin="round"/>
    <path d="M 400.35955810546875 322.8247375488281 C 408.3184509277344 317.8999328613281 420.41986083984375 315.61273193359375 425.0276184082031 309.00830078125 C 415.71368408203125 306.5041198730469 408.3275146484375 308.6402893066406 400.9784851074219 304.4479675292969 L 400.35955810546875 322.8247375488281" stroke-width="2.0" fill="rgb(190, 212, 208)" opacity="0.9990548" stroke="rgb(0, 0, 0)" stroke-opacity="0.0" stroke-linecap="round" stroke-linejoin="round"/>
    <path d="M 440.2613525390625 158.93560791015625 C 444.657958984375 167.84786987304688 435.054931640625 185.78964233398438 450.2432861328125 180.68356323242188 C 447.0107727050781 170.86709594726562 456.04595947265625 153.86097717285156 440.2613525390625 158.93560791015625" stroke-width="2.0" fill="rgb(123, 186, 206)" opacity="0.96119666" stroke="rgb(0, 0, 0)" stroke-opacity="0.0" stroke-linecap="round" stroke-linejoin="round"/>
    <path d="M 70.19121551513672 362.0351867675781 C 58.5830078125 364.1067199707031 47.815711975097656 386.19110107421875 65.53717041015625 382.84576416015625 C 69.69204711914062 374.6556396484375 67.24382019042969 368.9595031738281 70.19121551513672 362.0351867675781" stroke-width="2.0" fill="rgb(153, 108, 112)" opacity="0.69696695" stroke="rgb(0, 0, 0)" stroke-opacity="0.0" stroke-linecap="round" stroke-linejoin="round"/>
    <path d="M 401.23553466796875 78.9753646850586 C 404.6867370605469 87.18000030517578 392.97454833984375 76.9803466796875 396.878662109375 87.58184051513672 C 404.97381591796875 83.3319091796875 405.6827697753906 105.47622680664062 406.1613464355469 87.42138671875 C 419.2298889160156 85.39430236816406 405.9504699707031 81.45396423339844 401.23553466796875 78.9753646850586" stroke-width="2.0" fill="rgb(240, 240, 221)" opacity="0.8830001" stroke="rgb(0, 0, 0)" stroke-opacity="0.0" stroke-linecap="round" stroke-linejoin="round"/>
    <path d="M 243.1219482421875 300.8712463378906 C 244.136474609375 306.1399841308594 238.7622528076172 318.8571472167969 249.81703186035156 315.1272888183594 C 248.2005157470703 308.8468017578125 253.14869689941406 298.0411071777344 243.1219482421875 300.8712463378906" stroke-width="2.0" fill="rgb(143, 191, 201)" opacity="1.0179071" stroke="rgb(0, 0, 0)" stroke-opacity="0.0" stroke-linecap="round" stroke-linejoin="round"/>
    <path d="M 514.3890380859375 245.0561065673828 C 506.5097351074219 253.9407196044922 500.17919921875 262.37738037109375 496.83184814453125 259.9593505859375 C 486.78167724609375 269.8824768066406 462.0887451171875 248.52523803710938 445.9173583984375 296.73419189453125 L 512.0204467773438 295.3619079589844 C 514.7435913085938 261.462890625 518.456787109375 267.42852783203125 514.3890380859375 245.0561065673828" stroke-width="2.0" fill="rgb(182, 156, 88)" opacity="1.0043061" stroke="rgb(0, 0, 0)" stroke-opacity="0.0" stroke-linecap="round" stroke-linejoin="round"/>
  </g>
</svg>
