<?xml version="1.0" ?>
<svg xmlns="http://www.w3.org/2000/svg" version="1.1" width="512" height="352">
  <defs/>
  <g>
    <path d="M 134.1151885986328 198.94236755371094 C 132.98875427246094 251.08555603027344 139.94158935546875 248.84771728515625 108.07388305664062 248.3849639892578 C 82.29450988769531 233.6754913330078 80.8495864868164 228.396240234375 57.60547637939453 218.36756896972656 C 55.11488342285156 187.89193725585938 60.24301528930664 185.19117736816406 94.86336517333984 177.11294555664062 C 133.01515197753906 175.94149780273438 137.66273498535156 180.63926696777344 134.1151885986328 198.94236755371094" stroke-width="0.0" fill="rgb(213, 180, 147)" opacity="0.5758103" stroke="rgb(152, 59, 232)" stroke-opacity="0.008471028" stroke-linecap="round" stroke-linejoin="round"/>
    <path d="M 200.0 205.0 C 199.3301239013672 207.5 197.5 209.3301239013672 195.0 210.0 C 192.5 209.3301239013672 190.6698760986328 207.5 190.0 205.0 C 190.6698760986328 202.5 192.5 200.6698760986328 195.0 200.0 C 197.5 200.6698760986328 199.3301239013672 202.5 200.0 205.0" stroke-width="0.0" fill="rgb(101, 132, 110)" opacity="1.0" stroke="rgb(96, 55, 23)" stroke-opacity="0.49800745" stroke-linecap="round" stroke-linejoin="round"/>
    <path d="M 283.0 217.0 C 282.33013916015625 219.5 280.5 221.3301239013672 278.0 222.0 C 275.5 221.3301239013672 273.66986083984375 219.5 273.0 217.0 C 273.66986083984375 214.5 275.5 212.6698760986328 278.0 212.0 C 280.5 212.6698760986328 282.33013916015625 214.5 283.0 217.0" stroke-width="0.0" fill="rgb(108, 145, 150)" opacity="1.0" stroke="rgb(71, 91, 210)" stroke-opacity="0.8430703" stroke-linecap="round" stroke-linejoin="round"/>
  </g>
</svg>
