<?xml version="1.0" ?>
<svg xmlns="http://www.w3.org/2000/svg" version="1.1" width="512" height="352">
  <defs/>
  <g>
    <path d="M 143.9140625 229.72181701660156 C 136.13385009765625 264.8600769042969 155.24522399902344 248.650146484375 98.51480102539062 269.5896911621094 C 62.763427734375 248.9875946044922 67.08853912353516 243.1271514892578 58.032508850097656 228.54298400878906 C 55.81203842163086 191.3540802001953 52.67609405517578 185.6367645263672 96.63265228271484 176.72642517089844 C 161.16514587402344 178.52627563476562 150.99534606933594 165.87078857421875 143.9140625 229.72181701660156" stroke-width="0.0" fill="rgb(211, 186, 155)" opacity="0.9758089" stroke="rgb(152, 59, 232)" stroke-opacity="0.008471028" stroke-linecap="round" stroke-linejoin="round"/>
    <path d="M 243.20228576660156 167.29632568359375 C 233.0882568359375 216.4873046875 220.64373779296875 218.7213134765625 193.77593994140625 263.0810241699219 C 185.38824462890625 221.80194091796875 183.2477264404297 244.12881469726562 175.087158203125 193.26234436035156 C 202.84756469726562 150.99539184570312 143.43399047851562 202.54965209960938 189.0338134765625 143.4787139892578 C 233.6938934326172 128.4546356201172 288.6323547363281 175.30148315429688 243.20228576660156 167.29632568359375" stroke-width="0.0" fill="rgb(3, 40, 8)" opacity="0.51540816" stroke="rgb(96, 55, 23)" stroke-opacity="0.49800745" stroke-linecap="round" stroke-linejoin="round"/>
    <path d="M 319.52105712890625 223.39894104003906 C 336.6518249511719 254.81544494628906 332.6048889160156 241.58924865722656 265.8199768066406 226.74899291992188 C 273.9490051269531 267.4045104980469 246.4205322265625 299.374267578125 257.60174560546875 218.3676300048828 C 223.07737731933594 60.90251541137695 233.40357971191406 91.56277465820312 262.4453430175781 195.6687774658203 C 291.6259460449219 199.5694580078125 319.2054138183594 188.7076416015625 319.52105712890625 223.39894104003906" stroke-width="0.0" fill="rgb(38, 53, 30)" opacity="0.9030491" stroke="rgb(71, 91, 210)" stroke-opacity="0.8430703" stroke-linecap="round" stroke-linejoin="round"/>
    <path d="M 358.1742858886719 47.241676330566406 C 334.0653076171875 43.506019592285156 343.6350402832031 83.16334533691406 328.704833984375 68.4046401977539 C 297.05499267578125 86.54539489746094 299.6067810058594 87.03041076660156 306.7559509277344 73.85041046142578 C 314.8617248535156 34.377830505371094 317.1642761230469 17.605670928955078 331.3974304199219 38.14336013793945 C 336.3736572265625 62.6921272277832 318.614501953125 34.44647216796875 358.1742858886719 47.241676330566406" stroke-width="0.0" fill="rgb(175, 89, 57)" opacity="1.0" stroke="rgb(49, 21, 64)" stroke-opacity="0.7991378" stroke-linecap="round" stroke-linejoin="round"/>
    <path d="M 278.4997863769531 200.0088653564453 C 291.3131408691406 233.34254455566406 319.5409240722656 238.7741241455078 273.6351623535156 227.36514282226562 C 267.1294860839844 240.67715454101562 253.99526977539062 212.25579833984375 262.4538879394531 204.98887634277344 C 288.3572998046875 195.4219512939453 275.04071044921875 168.86341857910156 307.1686706542969 189.28379821777344 C 336.76300048828125 257.86083984375 305.5422058105469 247.38856506347656 278.4997863769531 200.0088653564453" stroke-width="0.0" fill="rgb(101, 133, 134)" opacity="0.96909124" stroke="rgb(98, 139, 102)" stroke-opacity="0.89339685" stroke-linecap="round" stroke-linejoin="round"/>
    <path d="M 334.1858825683594 59.73217010498047 C 315.3114929199219 81.28254699707031 275.4563293457031 109.3095474243164 302.8140869140625 105.5747299194336 C 230.34933471679688 134.40011596679688 285.00213623046875 124.45603942871094 258.3747253417969 76.70893859863281 C 284.20220947265625 23.60250473022461 302.2723083496094 73.58366394042969 300.5167236328125 34.786808013916016 C 310.4212646484375 30.704734802246094 311.96844482421875 60.83256149291992 334.1858825683594 59.73217010498047" stroke-width="0.0" fill="rgb(164, 83, 51)" opacity="0.89342093" stroke="rgb(68, 114, 199)" stroke-opacity="0.605329" stroke-linecap="round" stroke-linejoin="round"/>
    <path d="M 319.6306457519531 277.2309875488281 C 300.0320739746094 290.28204345703125 251.43032836914062 277.0818786621094 256.8643493652344 285.3874816894531 C 145.26536560058594 283.15380859375 284.63092041015625 280.2809753417969 149.69036865234375 274.2772216796875 C 203.88552856445312 260.8974609375 257.4723205566406 296.9272766113281 254.15206909179688 247.817626953125 C 258.6121826171875 311.6318359375 275.5592956542969 251.41641235351562 319.6306457519531 277.2309875488281" stroke-width="0.0" fill="rgb(0, 53, 71)" opacity="0.32721037" stroke="rgb(167, 187, 76)" stroke-opacity="0.868" stroke-linecap="round" stroke-linejoin="round"/>
    <path d="M 466.0157165527344 181.6561737060547 C 509.0755615234375 257.90411376953125 431.4068908691406 297.2188720703125 381.22735595703125 284.4718933105469 C 380.57342529296875 288.1184387207031 368.2464904785156 276.8439636230469 372.9936218261719 274.6053466796875 C 375.2505798339844 205.7356719970703 368.474609375 226.65264892578125 438.9859924316406 202.56126403808594 C 455.6817626953125 239.12799072265625 464.0862731933594 304.3793640136719 466.0157165527344 181.6561737060547" stroke-width="0.0" fill="rgb(76, 67, 74)" opacity="0.27968588" stroke="rgb(5, 253, 15)" stroke-opacity="0.9279504" stroke-linecap="round" stroke-linejoin="round"/>
    <path d="M 147.81039428710938 131.5104522705078 C 127.24945831298828 112.78621673583984 106.19010925292969 169.00143432617188 125.66303253173828 127.36282348632812 C 83.98115539550781 162.99571228027344 104.73289489746094 153.49522399902344 103.27067565917969 171.95489501953125 C 79.51193237304688 139.5738983154297 118.08439636230469 112.66197967529297 126.6587142944336 123.37417602539062 C 114.21163177490234 115.41242218017578 160.0553436279297 128.57086181640625 147.81039428710938 131.5104522705078" stroke-width="0.0" fill="rgb(116, 20, 1)" opacity="0.6069749" stroke="rgb(41, 168, 154)" stroke-opacity="0.09973988" stroke-linecap="round" stroke-linejoin="round"/>
    <path d="M 241.537353515625 106.03887176513672 C 242.95230102539062 111.7619857788086 237.7824249267578 100.72962188720703 250.8715057373047 153.75143432617188 C 237.10174560546875 143.568115234375 239.17819213867188 125.6763687133789 236.6830596923828 111.44615173339844 C 234.15171813964844 98.92109680175781 243.91387939453125 66.04570770263672 271.0101623535156 64.23323822021484 C 255.71450805664062 73.55951690673828 244.07591247558594 79.48365020751953 241.537353515625 106.03887176513672" stroke-width="0.0" fill="rgb(41, 54, 30)" opacity="0.98795164" stroke="rgb(85, 221, 187)" stroke-opacity="0.39412436" stroke-linecap="round" stroke-linejoin="round"/>
    <path d="M 123.29267883300781 239.87545776367188 C 131.1917266845703 315.4412536621094 -6.473357677459717 270.47589111328125 113.87796783447266 268.5430908203125 C 127.78536224365234 243.46949768066406 119.121826171875 261.3797912597656 101.08682250976562 249.70932006835938 C 113.50843811035156 248.1319122314453 127.4887466430664 245.2972412109375 117.28961944580078 233.53298950195312 C 98.79834747314453 255.78570556640625 105.46595764160156 197.70167541503906 123.29267883300781 239.87545776367188" stroke-width="0.0" fill="rgb(84, 9, 0)" opacity="0.39034978" stroke="rgb(234, 8, 0)" stroke-opacity="0.80803746" stroke-linecap="round" stroke-linejoin="round"/>
    <path d="M 261.3030090332031 167.35353088378906 C 249.81033325195312 162.3967742919922 246.83041381835938 178.92930603027344 249.50454711914062 180.31163024902344 C 231.8638153076172 183.89149475097656 241.37350463867188 205.89356994628906 237.06809997558594 162.1282501220703 C 223.88868713378906 161.81979370117188 255.8380584716797 156.7003631591797 251.4495849609375 155.1417694091797 C 264.66522216796875 140.4344024658203 258.1353454589844 152.6025390625 261.3030090332031 167.35353088378906" stroke-width="0.0" fill="rgb(108, 134, 114)" opacity="1.0" stroke="rgb(5, 61, 36)" stroke-opacity="0.5226483" stroke-linecap="round" stroke-linejoin="round"/>
    <path d="M 453.4585266113281 246.72445678710938 C 454.1586608886719 208.70489501953125 439.77581787109375 194.2050323486328 440.66241455078125 199.09312438964844 C 422.779052734375 206.27133178710938 412.11737060546875 193.17323303222656 415.04876708984375 199.3269805908203 C 445.5560302734375 195.4983367919922 438.99072265625 180.59056091308594 393.918701171875 171.68492126464844 C 433.2778015136719 171.78488159179688 458.39093017578125 202.0905303955078 453.4585266113281 246.72445678710938" stroke-width="0.0" fill="rgb(52, 46, 49)" opacity="0.599471" stroke="rgb(101, 186, 217)" stroke-opacity="0.2249338" stroke-linecap="round" stroke-linejoin="round"/>
    <path d="M 377.8251647949219 271.9515686035156 C 367.6461181640625 273.2564697265625 373.2216796875 277.7296447753906 358.1001281738281 280.410888671875 C 326.39447021484375 276.509521484375 319.21942138671875 269.123046875 332.2245788574219 259.77215576171875 C 338.42913818359375 254.27674865722656 351.79693603515625 270.21533203125 348.17742919921875 219.5518798828125 C 352.0922546386719 234.21804809570312 372.4644470214844 243.56582641601562 377.8251647949219 271.9515686035156" stroke-width="0.0" fill="rgb(59, 54, 57)" opacity="0.5793845" stroke="rgb(95, 133, 179)" stroke-opacity="0.9018501" stroke-linecap="round" stroke-linejoin="round"/>
    <path d="M 390.3573913574219 230.28106689453125 C 389.6881408691406 259.1323547363281 413.20062255859375 253.06539916992188 448.3536682128906 280.57220458984375 C 354.3135986328125 290.27301025390625 379.3328552246094 295.65301513671875 354.235107421875 219.32232666015625 C 335.8291931152344 144.4747314453125 342.4004211425781 134.3437957763672 428.4023742675781 183.68287658691406 C 441.3433532714844 216.69578552246094 393.1195373535156 206.8538055419922 390.3573913574219 230.28106689453125" stroke-width="0.0" fill="rgb(83, 59, 77)" opacity="0.19726925" stroke="rgb(29, 36, 128)" stroke-opacity="0.5769518" stroke-linecap="round" stroke-linejoin="round"/>
    <path d="M 406.0073547363281 176.10140991210938 C 404.6446838378906 180.9107208251953 400.599609375 192.8439178466797 381.76611328125 192.54110717773438 C 393.92205810546875 193.41651916503906 397.5493469238281 180.4459228515625 396.5802307128906 179.6181182861328 C 396.7056884765625 181.75619506835938 400.1002197265625 161.72190856933594 381.62139892578125 170.47389221191406 C 407.5634765625 169.76339721679688 405.5498352050781 175.02479553222656 406.0073547363281 176.10140991210938" stroke-width="0.0" fill="rgb(74, 72, 72)" opacity="0.60200095" stroke="rgb(144, 212, 195)" stroke-opacity="0.28150797" stroke-linecap="round" stroke-linejoin="round"/>
    <path d="M 391.98980712890625 232.3123779296875 C 401.6229553222656 230.6696014404297 387.2533874511719 237.8420867919922 377.9359436035156 227.61085510253906 C 380.1559143066406 225.74197387695312 363.5097961425781 252.2213592529297 393.57470703125 273.8545227050781 C 355.6327819824219 253.16651916503906 375.8090515136719 205.82958984375 409.69793701171875 212.47816467285156 C 384.66986083984375 214.28097534179688 374.3395080566406 224.24072265625 391.98980712890625 232.3123779296875" stroke-width="0.0" fill="rgb(81, 81, 79)" opacity="0.849016" stroke="rgb(90, 45, 12)" stroke-opacity="0.966945" stroke-linecap="round" stroke-linejoin="round"/>
    <path d="M 242.85134887695312 150.67831420898438 C 237.28689575195312 151.92926025390625 234.45120239257812 154.53201293945312 230.4229278564453 160.7813720703125 C 232.33091735839844 160.02330017089844 232.31918334960938 152.40884399414062 228.6442413330078 145.80279541015625 C 223.0416259765625 138.87445068359375 224.86573791503906 142.0302276611328 241.7385711669922 148.08514404296875 C 241.89736938476562 140.47991943359375 239.72366333007812 143.11785888671875 242.85134887695312 150.67831420898438" stroke-width="0.0" fill="rgb(243, 255, 255)" opacity="0.72425634" stroke="rgb(71, 205, 140)" stroke-opacity="0.44604528" stroke-linecap="round" stroke-linejoin="round"/>
    <path d="M 224.76690673828125 141.77622985839844 C 234.1295166015625 152.6533203125 226.0323028564453 140.40110778808594 206.73582458496094 136.08242797851562 C 202.8167266845703 149.47109985351562 205.48361206054688 136.39500427246094 202.96690368652344 133.26268005371094 C 214.51097106933594 135.0426788330078 211.39727783203125 136.0094451904297 213.73165893554688 135.5402069091797 C 209.27578735351562 136.2489776611328 213.12583923339844 133.71180725097656 224.76690673828125 141.77622985839844" stroke-width="0.0" fill="rgb(34, 50, 24)" opacity="0.90121406" stroke="rgb(188, 50, 179)" stroke-opacity="0.9567198" stroke-linecap="round" stroke-linejoin="round"/>
    <path d="M 65.25804138183594 217.61778259277344 C 57.83139419555664 220.0795440673828 51.3292350769043 225.31088256835938 43.798789978027344 216.78285217285156 C 47.30618667602539 205.41749572753906 33.69325637817383 231.94192504882812 39.90865707397461 258.2642822265625 C 38.70547103881836 221.72337341308594 45.43519592285156 199.170166015625 66.73867797851562 186.1182861328125 C 45.34438705444336 207.0203857421875 40.89840316772461 214.2098388671875 65.25804138183594 217.61778259277344" stroke-width="0.0" fill="rgb(144, 98, 89)" opacity="0.9943624" stroke="rgb(95, 96, 152)" stroke-opacity="0.19404416" stroke-linecap="round" stroke-linejoin="round"/>
    <path d="M 382.0677795410156 117.80204010009766 C 388.6180419921875 125.20093536376953 396.3065185546875 118.4167709350586 359.6758117675781 115.58208465576172 C 341.109375 117.51898956298828 387.2889099121094 107.7735595703125 344.99884033203125 113.8237075805664 C 378.8782043457031 102.52262115478516 344.8016052246094 120.78145599365234 382.28240966796875 96.56999206542969 C 353.5869140625 122.40104675292969 362.65362548828125 99.43074798583984 382.0677795410156 117.80204010009766" stroke-width="0.0" fill="rgb(37, 27, 34)" opacity="0.5362118" stroke="rgb(164, 80, 29)" stroke-opacity="0.27169463" stroke-linecap="round" stroke-linejoin="round"/>
    <path d="M 89.34355163574219 202.93783569335938 C 90.09768676757812 203.89463806152344 81.21511840820312 206.60813903808594 77.7685775756836 207.1426239013672 C 61.93640899658203 210.74075317382812 56.784584045410156 203.75621032714844 54.084346771240234 197.84262084960938 C 66.79002380371094 176.2189483642578 105.80933380126953 174.98855590820312 66.8617935180664 187.35194396972656 C 51.533119201660156 193.02659606933594 84.14328002929688 206.19882202148438 89.34355163574219 202.93783569335938" stroke-width="0.0" fill="rgb(100, 4, 10)" opacity="0.39752844" stroke="rgb(185, 86, 217)" stroke-opacity="0.012220794" stroke-linecap="round" stroke-linejoin="round"/>
    <path d="M 370.8079528808594 262.3458251953125 C 367.6436462402344 271.499267578125 355.8980712890625 263.92724609375 350.060302734375 276.7017517089844 C 339.0192565917969 278.2723388671875 356.4934997558594 261.8457946777344 343.1349182128906 274.58935546875 C 338.26751708984375 264.083251953125 361.2677307128906 259.8909912109375 364.4344787597656 262.2350769042969 C 366.3138122558594 255.21324157714844 371.7135009765625 255.5459747314453 370.8079528808594 262.3458251953125" stroke-width="0.0" fill="rgb(187, 187, 187)" opacity="0.886049" stroke="rgb(40, 216, 194)" stroke-opacity="0.5864512" stroke-linecap="round" stroke-linejoin="round"/>
    <path d="M 106.1133041381836 140.7001495361328 C 95.64644622802734 180.93740844726562 142.2344512939453 231.4847869873047 166.651123046875 140.57606506347656 C 82.03314971923828 124.82909393310547 107.39974975585938 161.60581970214844 109.37813568115234 178.5354461669922 C 85.76439666748047 149.4256134033203 101.5749740600586 137.23789978027344 109.4734115600586 130.4747314453125 C 120.77183532714844 125.07740020751953 116.11585235595703 125.13341522216797 106.1133041381836 140.7001495361328" stroke-width="0.0" fill="rgb(212, 189, 157)" opacity="0.93317467" stroke="rgb(244, 28, 21)" stroke-opacity="0.32996857" stroke-linecap="round" stroke-linejoin="round"/>
    <path d="M 350.0395812988281 126.8016357421875 C 349.50347900390625 130.7613525390625 348.08544921875 135.5666961669922 343.5049743652344 132.9530029296875 C 343.8202819824219 139.3723907470703 343.47247314453125 121.6642074584961 348.5066223144531 122.42057800292969 C 342.7388000488281 123.27043151855469 346.7150573730469 130.04039001464844 348.2050476074219 130.53627014160156 C 345.0739440917969 118.42630767822266 347.9577941894531 124.09134674072266 350.0395812988281 126.8016357421875" stroke-width="0.0" fill="rgb(22, 20, 19)" opacity="0.8979538" stroke="rgb(77, 237, 152)" stroke-opacity="0.2735447" stroke-linecap="round" stroke-linejoin="round"/>
    <path d="M 271.99102783203125 58.60200119018555 C 264.90533447265625 58.06935501098633 275.8184814453125 70.47257995605469 262.7054443359375 67.55117797851562 C 272.0358581542969 60.38131332397461 260.7977600097656 65.88003540039062 249.39418029785156 64.98977661132812 C 277.2980651855469 51.224037170410156 263.3682861328125 63.44483947753906 257.4830627441406 48.69940948486328 C 266.0009765625 58.324249267578125 288.74591064453125 46.98209762573242 271.99102783203125 58.60200119018555" stroke-width="0.0" fill="rgb(37, 51, 27)" opacity="0.9616579" stroke="rgb(52, 25, 135)" stroke-opacity="0.28656027" stroke-linecap="round" stroke-linejoin="round"/>
    <path d="M 327.3809509277344 131.20103454589844 C 334.2259826660156 137.9659881591797 304.309326171875 137.9936981201172 350.6092224121094 166.5426025390625 C 316.4585876464844 152.68429565429688 323.02703857421875 136.0319366455078 320.8176574707031 134.0924835205078 C 322.2922668457031 127.88614654541016 326.2668762207031 130.3300018310547 334.70123291015625 124.97794342041016 C 357.152587890625 101.46759033203125 346.9853210449219 118.82101440429688 327.3809509277344 131.20103454589844" stroke-width="0.0" fill="rgb(41, 35, 38)" opacity="0.6614142" stroke="rgb(141, 156, 2)" stroke-opacity="0.96343255" stroke-linecap="round" stroke-linejoin="round"/>
    <path d="M 278.6517028808594 54.24641799926758 C 281.2837829589844 72.0217514038086 305.54937744140625 74.95246887207031 310.110107421875 84.91891479492188 C 271.7373352050781 57.52925109863281 265.7357177734375 63.704925537109375 275.52252197265625 52.79585266113281 C 275.79669189453125 53.40913391113281 277.37371826171875 58.512935638427734 262.49114990234375 55.37609100341797 C 267.3845520019531 56.58902359008789 268.17962646484375 54.30961990356445 278.6517028808594 54.24641799926758" stroke-width="0.0" fill="rgb(39, 55, 32)" opacity="0.9842746" stroke="rgb(115, 99, 93)" stroke-opacity="0.44094145" stroke-linecap="round" stroke-linejoin="round"/>
    <path d="M 322.7942810058594 231.01795959472656 C 328.0223083496094 243.17713928222656 327.83026123046875 237.51593017578125 327.7483215332031 243.07009887695312 C 316.16253662109375 235.40042114257812 316.22314453125 221.38951110839844 288.6194152832031 204.26910400390625 C 329.737548828125 205.0187530517578 309.3282165527344 225.77755737304688 325.4891357421875 232.08251953125 C 320.280029296875 225.17027282714844 325.88311767578125 232.59912109375 322.7942810058594 231.01795959472656" stroke-width="0.0" fill="rgb(109, 146, 152)" opacity="0.9067953" stroke="rgb(46, 179, 110)" stroke-opacity="0.51773804" stroke-linecap="round" stroke-linejoin="round"/>
    <path d="M 375.45013427734375 262.4856872558594 C 379.6429443359375 261.4377136230469 374.3968811035156 272.60443115234375 362.8102722167969 277.4964904785156 C 346.5830993652344 281.8736267089844 350.6949768066406 272.7631530761719 357.6786193847656 268.868408203125 C 366.4421081542969 244.20858764648438 372.78668212890625 284.6736145019531 373.3995056152344 234.35565185546875 C 374.48236083984375 247.088134765625 372.9727783203125 255.07562255859375 375.45013427734375 262.4856872558594" stroke-width="0.0" fill="rgb(161, 162, 160)" opacity="0.76617324" stroke="rgb(189, 106, 169)" stroke-opacity="0.14594768" stroke-linecap="round" stroke-linejoin="round"/>
    <path d="M 373.8362121582031 256.1208190917969 C 372.9398498535156 263.07000732421875 376.82672119140625 262.3634338378906 364.06268310546875 273.6788635253906 C 345.1197204589844 284.2574462890625 353.0946044921875 268.41455078125 358.3125305175781 257.2930603027344 C 383.83599853515625 255.63352966308594 351.5419616699219 254.77911376953125 363.2199401855469 249.39622497558594 C 379.678955078125 249.82192993164062 371.0337219238281 251.1249237060547 373.8362121582031 256.1208190917969" stroke-width="0.0" fill="rgb(178, 178, 178)" opacity="0.9809357" stroke="rgb(185, 229, 188)" stroke-opacity="0.13085178" stroke-linecap="round" stroke-linejoin="round"/>
    <path d="M 363.0 133.0 C 362.33013916015625 135.5 360.5 137.3301239013672 358.0 138.0 C 355.5 137.3301239013672 353.66986083984375 135.5 353.0 133.0 C 353.66986083984375 130.5 355.5 128.6698760986328 358.0 128.0 C 360.5 128.6698760986328 362.33013916015625 130.5 363.0 133.0" stroke-width="0.0" fill="rgb(148, 148, 147)" opacity="1.0" stroke="rgb(176, 57, 35)" stroke-opacity="0.82202125" stroke-linecap="round" stroke-linejoin="round"/>
    <path d="M 457.0 174.0 C 456.33013916015625 176.5 454.5 178.3301239013672 452.0 179.0 C 449.5 178.3301239013672 447.66986083984375 176.5 447.0 174.0 C 447.66986083984375 171.5 449.5 169.6698760986328 452.0 169.0 C 454.5 169.6698760986328 456.33013916015625 171.5 457.0 174.0" stroke-width="0.0" fill="rgb(112, 111, 111)" opacity="1.0" stroke="rgb(142, 194, 16)" stroke-opacity="0.91583794" stroke-linecap="round" stroke-linejoin="round"/>
    <path d="M 421.0 188.0 C 420.33013916015625 190.5 418.5 192.3301239013672 416.0 193.0 C 413.5 192.3301239013672 411.66986083984375 190.5 411.0 188.0 C 411.66986083984375 185.5 413.5 183.6698760986328 416.0 183.0 C 418.5 183.6698760986328 420.33013916015625 185.5 421.0 188.0" stroke-width="0.0" fill="rgb(112, 111, 111)" opacity="1.0" stroke="rgb(74, 64, 141)" stroke-opacity="0.70899653" stroke-linecap="round" stroke-linejoin="round"/>
    <path d="M 130.0 305.0 C 129.3301239013672 307.5 127.5 309.33013916015625 125.0 310.0 C 122.5 309.33013916015625 120.66987609863281 307.5 120.0 305.0 C 120.66987609863281 302.5 122.5 300.66986083984375 125.0 300.0 C 127.5 300.66986083984375 129.3301239013672 302.5 130.0 305.0" stroke-width="0.0" fill="rgb(164, 99, 80)" opacity="1.0" stroke="rgb(125, 88, 91)" stroke-opacity="0.3944759" stroke-linecap="round" stroke-linejoin="round"/>
    <path d="M 115.0 309.0 C 114.33012390136719 311.5 112.5 313.33013916015625 110.0 314.0 C 107.5 313.33013916015625 105.66987609863281 311.5 105.0 309.0 C 105.66987609863281 306.5 107.5 304.66986083984375 110.0 304.0 C 112.5 304.66986083984375 114.33012390136719 306.5 115.0 309.0" stroke-width="0.0" fill="rgb(86, 60, 64)" opacity="1.0" stroke="rgb(3, 78, 14)" stroke-opacity="0.9326141" stroke-linecap="round" stroke-linejoin="round"/>
    <path d="M 91.0 193.0 C 90.33012390136719 195.5 88.5 197.3301239013672 86.0 198.0 C 83.5 197.3301239013672 81.66987609863281 195.5 81.0 193.0 C 81.66987609863281 190.5 83.5 188.6698760986328 86.0 188.0 C 88.5 188.6698760986328 90.33012390136719 190.5 91.0 193.0" stroke-width="0.0" fill="rgb(164, 99, 80)" opacity="1.0" stroke="rgb(193, 0, 53)" stroke-opacity="0.5027652" stroke-linecap="round" stroke-linejoin="round"/>
    <path d="M 452.0 157.0 C 451.33013916015625 159.5 449.5 161.3301239013672 447.0 162.0 C 444.5 161.3301239013672 442.66986083984375 159.5 442.0 157.0 C 442.66986083984375 154.5 444.5 152.6698760986328 447.0 152.0 C 449.5 152.6698760986328 451.33013916015625 154.5 452.0 157.0" stroke-width="0.0" fill="rgb(112, 111, 111)" opacity="1.0" stroke="rgb(0, 103, 231)" stroke-opacity="0.2983339" stroke-linecap="round" stroke-linejoin="round"/>
    <path d="M 91.0 287.0 C 90.33012390136719 289.5 88.5 291.33013916015625 86.0 292.0 C 83.5 291.33013916015625 81.66987609863281 289.5 81.0 287.0 C 81.66987609863281 284.5 83.5 282.66986083984375 86.0 282.0 C 88.5 282.66986083984375 90.33012390136719 284.5 91.0 287.0" stroke-width="0.0" fill="rgb(95, 69, 70)" opacity="1.0" stroke="rgb(235, 15, 129)" stroke-opacity="0.23419334" stroke-linecap="round" stroke-linejoin="round"/>
    <path d="M 145.0 235.0 C 144.3301239013672 237.5 142.5 239.3301239013672 140.0 240.0 C 137.5 239.3301239013672 135.6698760986328 237.5 135.0 235.0 C 135.6698760986328 232.5 137.5 230.6698760986328 140.0 230.0 C 142.5 230.6698760986328 144.3301239013672 232.5 145.0 235.0" stroke-width="0.0" fill="rgb(165, 101, 81)" opacity="1.0" stroke="rgb(96, 101, 11)" stroke-opacity="0.05746356" stroke-linecap="round" stroke-linejoin="round"/>
    <path d="M 148.0 306.0 C 147.3301239013672 308.5 145.5 310.33013916015625 143.0 311.0 C 140.5 310.33013916015625 138.6698760986328 308.5 138.0 306.0 C 138.6698760986328 303.5 140.5 301.66986083984375 143.0 301.0 C 145.5 301.66986083984375 147.3301239013672 303.5 148.0 306.0" stroke-width="0.0" fill="rgb(164, 99, 80)" opacity="1.0" stroke="rgb(133, 138, 235)" stroke-opacity="0.5114673" stroke-linecap="round" stroke-linejoin="round"/>
    <path d="M 214.0 138.0 C 213.3301239013672 140.5 211.5 142.3301239013672 209.0 143.0 C 206.5 142.3301239013672 204.6698760986328 140.5 204.0 138.0 C 204.6698760986328 135.5 206.5 133.6698760986328 209.0 133.0 C 211.5 133.6698760986328 213.3301239013672 135.5 214.0 138.0" stroke-width="0.0" fill="rgb(131, 156, 138)" opacity="1.0" stroke="rgb(208, 87, 250)" stroke-opacity="0.05088872" stroke-linecap="round" stroke-linejoin="round"/>
    <path d="M 447.0 267.0 C 446.33013916015625 269.5 444.5 271.33013916015625 442.0 272.0 C 439.5 271.33013916015625 437.66986083984375 269.5 437.0 267.0 C 437.66986083984375 264.5 439.5 262.66986083984375 442.0 262.0 C 444.5 262.66986083984375 446.33013916015625 264.5 447.0 267.0" stroke-width="0.0" fill="rgb(91, 93, 91)" opacity="1.0" stroke="rgb(191, 54, 56)" stroke-opacity="0.1238836" stroke-linecap="round" stroke-linejoin="round"/>
    <path d="M 466.0 188.0 C 465.33013916015625 190.5 463.5 192.3301239013672 461.0 193.0 C 458.5 192.3301239013672 456.66986083984375 190.5 456.0 188.0 C 456.66986083984375 185.5 458.5 183.6698760986328 461.0 183.0 C 463.5 183.6698760986328 465.33013916015625 185.5 466.0 188.0" stroke-width="0.0" fill="rgb(112, 111, 111)" opacity="1.0" stroke="rgb(72, 15, 89)" stroke-opacity="0.5494902" stroke-linecap="round" stroke-linejoin="round"/>
    <path d="M 324.0 238.0 C 323.33013916015625 240.5 321.5 242.3301239013672 319.0 243.0 C 316.5 242.3301239013672 314.66986083984375 240.5 314.0 238.0 C 314.66986083984375 235.5 316.5 233.6698760986328 319.0 233.0 C 321.5 233.6698760986328 323.33013916015625 235.5 324.0 238.0" stroke-width="0.0" fill="rgb(91, 121, 123)" opacity="1.0" stroke="rgb(253, 93, 92)" stroke-opacity="0.52762306" stroke-linecap="round" stroke-linejoin="round"/>
    <path d="M 342.0 138.0 C 341.33013916015625 140.5 339.5 142.3301239013672 337.0 143.0 C 334.5 142.3301239013672 332.66986083984375 140.5 332.0 138.0 C 332.66986083984375 135.5 334.5 133.6698760986328 337.0 133.0 C 339.5 133.6698760986328 341.33013916015625 135.5 342.0 138.0" stroke-width="0.0" fill="rgb(129, 129, 128)" opacity="1.0" stroke="rgb(242, 90, 209)" stroke-opacity="0.8731099" stroke-linecap="round" stroke-linejoin="round"/>
    <path d="M 110.0 298.0 C 109.33012390136719 300.5 107.5 302.33013916015625 105.0 303.0 C 102.5 302.33013916015625 100.66987609863281 300.5 100.0 298.0 C 100.66987609863281 295.5 102.5 293.66986083984375 105.0 293.0 C 107.5 293.66986083984375 109.33012390136719 295.5 110.0 298.0" stroke-width="0.0" fill="rgb(75, 53, 61)" opacity="1.0" stroke="rgb(91, 106, 204)" stroke-opacity="0.018729024" stroke-linecap="round" stroke-linejoin="round"/>
    <path d="M 321.0 232.0 C 320.33013916015625 234.5 318.5 236.3301239013672 316.0 237.0 C 313.5 236.3301239013672 311.66986083984375 234.5 311.0 232.0 C 311.66986083984375 229.5 313.5 227.6698760986328 316.0 227.0 C 318.5 227.6698760986328 320.33013916015625 229.5 321.0 232.0" stroke-width="0.0" fill="rgb(49, 63, 43)" opacity="1.0" stroke="rgb(226, 138, 74)" stroke-opacity="0.8173759" stroke-linecap="round" stroke-linejoin="round"/>
    <path d="M 127.0 246.0 C 126.33012390136719 248.5 124.5 250.3301239013672 122.0 251.0 C 119.5 250.3301239013672 117.66987609863281 248.5 117.0 246.0 C 117.66987609863281 243.5 119.5 241.6698760986328 122.0 241.0 C 124.5 241.6698760986328 126.33012390136719 243.5 127.0 246.0" stroke-width="0.0" fill="rgb(77, 53, 61)" opacity="1.0" stroke="rgb(87, 107, 46)" stroke-opacity="0.9176304" stroke-linecap="round" stroke-linejoin="round"/>
    <path d="M 385.0 243.0 C 384.33013916015625 245.5 382.5 247.3301239013672 380.0 248.0 C 377.5 247.3301239013672 375.66986083984375 245.5 375.0 243.0 C 375.66986083984375 240.5 377.5 238.6698760986328 380.0 238.0 C 382.5 238.6698760986328 384.33013916015625 240.5 385.0 243.0" stroke-width="0.0" fill="rgb(96, 95, 94)" opacity="1.0" stroke="rgb(156, 94, 238)" stroke-opacity="0.75876254" stroke-linecap="round" stroke-linejoin="round"/>
    <path d="M 84.0 281.0 C 83.33012390136719 283.5 81.5 285.33013916015625 79.0 286.0 C 76.5 285.33013916015625 74.66987609863281 283.5 74.0 281.0 C 74.66987609863281 278.5 76.5 276.66986083984375 79.0 276.0 C 81.5 276.66986083984375 83.33012390136719 278.5 84.0 281.0" stroke-width="0.0" fill="rgb(77, 53, 61)" opacity="1.0" stroke="rgb(196, 241, 9)" stroke-opacity="0.088345565" stroke-linecap="round" stroke-linejoin="round"/>
    <path d="M 303.0 228.0 C 302.33013916015625 230.5 300.5 232.3301239013672 298.0 233.0 C 295.5 232.3301239013672 293.66986083984375 230.5 293.0 228.0 C 293.66986083984375 225.5 295.5 223.6698760986328 298.0 223.0 C 300.5 223.6698760986328 302.33013916015625 225.5 303.0 228.0" stroke-width="0.0" fill="rgb(92, 122, 125)" opacity="1.0" stroke="rgb(122, 98, 122)" stroke-opacity="0.65260464" stroke-linecap="round" stroke-linejoin="round"/>
    <path d="M 415.0 275.0 C 414.33013916015625 277.5 412.5 279.33013916015625 410.0 280.0 C 407.5 279.33013916015625 405.66986083984375 277.5 405.0 275.0 C 405.66986083984375 272.5 407.5 270.66986083984375 410.0 270.0 C 412.5 270.66986083984375 414.33013916015625 272.5 415.0 275.0" stroke-width="0.0" fill="rgb(79, 79, 78)" opacity="1.0" stroke="rgb(160, 16, 230)" stroke-opacity="0.1925685" stroke-linecap="round" stroke-linejoin="round"/>
    <path d="M 148.0 301.0 C 147.3301239013672 303.5 145.5 305.33013916015625 143.0 306.0 C 140.5 305.33013916015625 138.6698760986328 303.5 138.0 301.0 C 138.6698760986328 298.5 140.5 296.66986083984375 143.0 296.0 C 145.5 296.66986083984375 147.3301239013672 298.5 148.0 301.0" stroke-width="0.0" fill="rgb(92, 58, 61)" opacity="1.0" stroke="rgb(79, 204, 172)" stroke-opacity="0.20284739" stroke-linecap="round" stroke-linejoin="round"/>
    <path d="M 304.0 52.0 C 303.33013916015625 54.5 301.5 56.33012771606445 299.0 57.0 C 296.5 56.33012771606445 294.66986083984375 54.5 294.0 52.0 C 294.66986083984375 49.5 296.5 47.66987228393555 299.0 47.0 C 301.5 47.66987228393555 303.33013916015625 49.5 304.0 52.0" stroke-width="0.0" fill="rgb(59, 57, 33)" opacity="1.0" stroke="rgb(105, 94, 28)" stroke-opacity="0.9363191" stroke-linecap="round" stroke-linejoin="round"/>
    <path d="M 47.0 222.0 C 46.33012771606445 224.5 44.5 226.3301239013672 42.0 227.0 C 39.5 226.3301239013672 37.66987228393555 224.5 37.0 222.0 C 37.66987228393555 219.5 39.5 217.6698760986328 42.0 217.0 C 44.5 217.6698760986328 46.33012771606445 219.5 47.0 222.0" stroke-width="0.0" fill="rgb(113, 89, 88)" opacity="1.0" stroke="rgb(77, 77, 249)" stroke-opacity="0.63462234" stroke-linecap="round" stroke-linejoin="round"/>
    <path d="M 274.0 73.0 C 273.33013916015625 75.5 271.5 77.33012390136719 269.0 78.0 C 266.5 77.33012390136719 264.66986083984375 75.5 264.0 73.0 C 264.66986083984375 70.5 266.5 68.66987609863281 269.0 68.0 C 271.5 68.66987609863281 273.33013916015625 70.5 274.0 73.0" stroke-width="0.0" fill="rgb(35, 53, 31)" opacity="1.0" stroke="rgb(145, 72, 239)" stroke-opacity="0.41867852" stroke-linecap="round" stroke-linejoin="round"/>
    <path d="M 110.0 304.0 C 109.33012390136719 306.5 107.5 308.33013916015625 105.0 309.0 C 102.5 308.33013916015625 100.66987609863281 306.5 100.0 304.0 C 100.66987609863281 301.5 102.5 299.66986083984375 105.0 299.0 C 107.5 299.66986083984375 109.33012390136719 301.5 110.0 304.0" stroke-width="0.0" fill="rgb(164, 99, 80)" opacity="1.0" stroke="rgb(53, 233, 181)" stroke-opacity="0.3196088" stroke-linecap="round" stroke-linejoin="round"/>
    <path d="M 270.0 72.0 C 269.33013916015625 74.5 267.5 76.33012390136719 265.0 77.0 C 262.5 76.33012390136719 260.66986083984375 74.5 260.0 72.0 C 260.66986083984375 69.5 262.5 67.66987609863281 265.0 67.0 C 267.5 67.66987609863281 269.33013916015625 69.5 270.0 72.0" stroke-width="0.0" fill="rgb(46, 59, 37)" opacity="1.0" stroke="rgb(23, 212, 91)" stroke-opacity="0.71484005" stroke-linecap="round" stroke-linejoin="round"/>
    <path d="M 421.0 275.0 C 420.33013916015625 277.5 418.5 279.33013916015625 416.0 280.0 C 413.5 279.33013916015625 411.66986083984375 277.5 411.0 275.0 C 411.66986083984375 272.5 413.5 270.66986083984375 416.0 270.0 C 418.5 270.66986083984375 420.33013916015625 272.5 421.0 275.0" stroke-width="0.0" fill="rgb(82, 82, 81)" opacity="1.0" stroke="rgb(197, 235, 145)" stroke-opacity="0.55274117" stroke-linecap="round" stroke-linejoin="round"/>
    <path d="M 205.0 141.0 C 204.3301239013672 143.5 202.5 145.3301239013672 200.0 146.0 C 197.5 145.3301239013672 195.6698760986328 143.5 195.0 141.0 C 195.6698760986328 138.5 197.5 136.6698760986328 200.0 136.0 C 202.5 136.6698760986328 204.3301239013672 138.5 205.0 141.0" stroke-width="0.0" fill="rgb(169, 183, 176)" opacity="1.0" stroke="rgb(83, 39, 203)" stroke-opacity="0.5532043" stroke-linecap="round" stroke-linejoin="round"/>
    <path d="M 98.0 196.0 C 97.33012390136719 198.5 95.5 200.3301239013672 93.0 201.0 C 90.5 200.3301239013672 88.66987609863281 198.5 88.0 196.0 C 88.66987609863281 193.5 90.5 191.6698760986328 93.0 191.0 C 95.5 191.6698760986328 97.33012390136719 193.5 98.0 196.0" stroke-width="0.0" fill="rgb(173, 115, 93)" opacity="1.0" stroke="rgb(130, 48, 19)" stroke-opacity="0.42808887" stroke-linecap="round" stroke-linejoin="round"/>
    <path d="M 231.0 183.0 C 230.3301239013672 185.5 228.5 187.3301239013672 226.0 188.0 C 223.5 187.3301239013672 221.6698760986328 185.5 221.0 183.0 C 221.6698760986328 180.5 223.5 178.6698760986328 226.0 178.0 C 228.5 178.6698760986328 230.3301239013672 180.5 231.0 183.0" stroke-width="0.0" fill="rgb(39, 51, 27)" opacity="1.0" stroke="rgb(117, 202, 80)" stroke-opacity="0.12986518" stroke-linecap="round" stroke-linejoin="round"/>
  </g>
</svg>
