<?xml version="1.0" ?>
<svg xmlns="http://www.w3.org/2000/svg" version="1.1" width="508" height="512">
  <defs/>
  <g>
    <path d="M -0.731489360332489 -0.7268428802490234 L 508.00018310546875 -0.7258163094520569 L 508.0 512.0 L -0.7525599598884583 512.0 L -0.731489360332489 -0.7268428802490234" stroke-width="0.0" fill="rgb(197, 198, 194)" opacity="2.0728085" stroke="rgb(0, 0, 0)" stroke-opacity="0.0" stroke-linecap="round" stroke-linejoin="round"/>
    <path d="M 5.873608589172363 8.008142471313477 L 6.012418270111084 158.0263214111328 L 5.995198726654053 164.54762268066406 L 96.97484588623047 163.48779296875 C 98.3899154663086 154.1907196044922 92.73323822021484 145.34698486328125 102.69226837158203 145.84251403808594 C 107.26714324951172 134.2288055419922 95.67121124267578 120.81026458740234 110.05799865722656 120.76097869873047 C 112.70552825927734 103.14271545410156 108.10836029052734 87.47237396240234 114.3587875366211 70.35816955566406 L 122.43309020996094 62.859622955322266 C 121.85096740722656 60.27735137939453 123.03766632080078 47.85053634643555 121.36744689941406 60.65597915649414 L 128.76271057128906 66.18470764160156 L 126.91634368896484 81.24485778808594 L 127.95086669921875 136.6138153076172 C 139.193603515625 132.13706970214844 129.39669799804688 137.57069396972656 130.12289428710938 146.15296936035156 C 156.17015075683594 143.37889099121094 150.18846130371094 154.84519958496094 151.76751708984375 162.60670471191406 L 262.6963806152344 162.64773559570312 L 267.8643798828125 153.89581298828125 C 270.8107604980469 144.66323852539062 275.258544921875 134.76739501953125 271.0186767578125 132.66888427734375 L 274.2828674316406 141.77078247070312 C 285.6275329589844 146.646240234375 275.6841125488281 161.23451232910156 281.6701965332031 190.4141845703125 L 315.2307434082031 165.53428649902344 C 326.3929138183594 170.06703186035156 333.7969665527344 164.48992919921875 353.4157409667969 164.37771606445312 L 351.3791198730469 135.7961883544922 C 355.532958984375 121.03486633300781 351.88330078125 114.79134368896484 353.880615234375 122.22161102294922 C 355.10540771484375 114.18798065185547 353.47796630859375 120.69618225097656 351.90240478515625 145.4762725830078 C 349.1059265136719 151.4490203857422 355.6084289550781 161.0159912109375 355.2643737792969 179.45558166503906 L 374.4934387207031 193.7618408203125 L 501.96990966796875 169.60939025878906 L 502.0619201660156 8.013105392456055 L 5.873608589172363 8.008142471313477" stroke-width="2.0" fill="rgb(174, 187, 186)" opacity="1.3816655" stroke="rgb(0, 0, 0)" stroke-opacity="0.0" stroke-linecap="round" stroke-linejoin="round"/>
    <path d="M 6.547417640686035 426.2796936035156 L 5.110239028930664 504.99395751953125 L 428.5692138671875 504.9936828613281 L 428.73016357421875 499.97821044921875 L 486.8584289550781 500.0082702636719 L 487.32568359375 505.00146484375 L 502.8948974609375 504.999267578125 L 501.293701171875 432.75701904296875 L 499.08544921875 429.04632568359375 L 217.62521362304688 428.7087097167969 L 223.51089477539062 415.88519287109375 L 85.41046142578125 418.767333984375 L 93.49195098876953 436.5602111816406 L 52.67578125 436.496337890625 C 51.067195892333984 424.89013671875 55.129638671875 420.17034912109375 48.81454086303711 430.57135009765625 C 43.51768112182617 416.5693054199219 43.12947463989258 424.9153747558594 39.45866775512695 433.20172119140625 L 9.76533317565918 437.64215087890625 L 6.547417640686035 426.2796936035156" stroke-width="2.0" fill="rgb(108, 147, 160)" opacity="0.9501771" stroke="rgb(0, 0, 0)" stroke-opacity="0.0" stroke-linecap="round" stroke-linejoin="round"/>
    <path d="M 258.39569091796875 260.8281555175781 L 206.25938415527344 271.9104919433594 C 193.96505737304688 240.6351318359375 183.46189880371094 248.35198974609375 169.4748992919922 250.07286071777344 L 169.35107421875 255.81915283203125 L 170.04425048828125 287.5213317871094 L 169.03018188476562 303.8883361816406 C 157.92861938476562 286.5278625488281 147.6226806640625 294.8418884277344 133.75564575195312 292.67266845703125 L 132.77606201171875 302.90667724609375 L 119.25947570800781 303.2835998535156 L 110.82169342041016 286.5362243652344 C 92.0865478515625 270.4134216308594 78.48434448242188 270.6171875 56.36732482910156 282.6717529296875 L 82.2161865234375 312.9659423828125 L 35.676204681396484 333.6512451171875 C 35.22572708129883 310.2204284667969 35.68442916870117 306.6346130371094 31.357728958129883 306.51739501953125 L 4.821230411529541 308.50640869140625 L 9.54575252532959 391.9952392578125 L 9.372913360595703 389.1089172363281 L 14.506433486938477 386.29791259765625 C 11.669022560119629 388.1042175292969 8.841779708862305 390.6596374511719 9.092166900634766 383.8648376464844 C 6.264580726623535 375.39141845703125 19.579736709594727 366.6408386230469 5.318308353424072 344.80084228515625 C 13.045561790466309 340.54840087890625 34.18053436279297 336.8117980957031 20.259056091308594 352.77374267578125 L 44.76493835449219 335.5992736816406 L 42.02790069580078 399.61187744140625 L 241.88504028320312 402.16571044921875 L 241.2549285888672 324.9413146972656 C 247.10031127929688 314.5172119140625 258.85577392578125 321.3812561035156 270.0284118652344 320.5394287109375 L 267.4528503417969 281.83709716796875 C 252.41110229492188 285.622802734375 262.054931640625 266.68304443359375 258.39569091796875 260.8281555175781" stroke-width="2.0" fill="rgb(101, 147, 167)" opacity="0.8911432" stroke="rgb(0, 0, 0)" stroke-opacity="0.0" stroke-linecap="round" stroke-linejoin="round"/>
    <path d="M 109.36893463134766 163.429443359375 L -1.4820072650909424 163.46722412109375 L -1.1880133152008057 310.1611328125 C 16.936904907226562 307.62139892578125 30.55733299255371 307.81756591796875 38.28899383544922 310.33624267578125 L 54.65102005004883 317.7244567871094 L 56.00919723510742 293.5209045410156 C 66.6618881225586 279.5123291015625 74.83922576904297 276.18011474609375 89.61004638671875 275.3681335449219 L 112.65192413330078 282.6806640625 L 109.36893463134766 163.429443359375" stroke-width="2.0" fill="rgb(248, 201, 171)" opacity="0.81238425" stroke="rgb(0, 0, 0)" stroke-opacity="0.0" stroke-linecap="round" stroke-linejoin="round"/>
    <path d="M 123.91859436035156 48.59233856201172 L 127.85572814941406 75.33595275878906 L 127.26799011230469 135.33819580078125 L 116.50479888916016 137.28176879882812 L 115.08238220214844 137.47323608398438 L 127.56199645996094 135.3370361328125 L 127.68189239501953 252.11050415039062 L 145.17820739746094 251.4977264404297 L 124.50013732910156 291.62261962890625 L 123.90835571289062 292.9233093261719 L 132.36126708984375 276.25469970703125 C 140.37554931640625 275.807373046875 157.20689392089844 272.4546813964844 162.12301635742188 282.9400939941406 L 165.77549743652344 285.3374328613281 L 135.60736083984375 265.69012451171875 L 153.6894073486328 246.04530334472656 L 154.24429321289062 150.40342712402344 L 148.5048828125 150.77084350585938 L 148.68092346191406 122.1566390991211 L 140.10377502441406 122.18624114990234 L 140.45379638671875 81.88502502441406 C 138.0897979736328 65.79006958007812 128.25534057617188 66.54181671142578 123.91859436035156 48.59233856201172" stroke-width="2.0" fill="rgb(41, 49, 71)" opacity="0.95065314" stroke="rgb(0, 0, 0)" stroke-opacity="0.0" stroke-linecap="round" stroke-linejoin="round"/>
    <path d="M 153.51124572753906 164.21109008789062 L 153.53500366210938 251.56260681152344 L 276.30072021484375 252.21795654296875 L 261.4744873046875 164.52027893066406 L 153.51124572753906 164.21109008789062" stroke-width="2.0" fill="rgb(232, 191, 167)" opacity="0.9595755" stroke="rgb(0, 0, 0)" stroke-opacity="0.0" stroke-linecap="round" stroke-linejoin="round"/>
    <path d="M 209.50048828125 251.85760498046875 L 218.1420135498047 282.01873779296875 L 187.6829376220703 276.455078125 L 210.99749755859375 399.6282958984375 L 241.71775817871094 399.61883544921875 L 244.92221069335938 326.6597900390625 L 268.7875061035156 325.80706787109375 L 251.33609008789062 292.7459411621094 L 252.0216827392578 280.5113525390625 L 259.9384460449219 251.7751007080078 L 209.50048828125 251.85760498046875" stroke-width="2.0" fill="rgb(78, 129, 157)" opacity="0.80238247" stroke="rgb(0, 0, 0)" stroke-opacity="0.0" stroke-linecap="round" stroke-linejoin="round"/>
    <path d="M 467.7257995605469 333.4722900390625 L 455.3853759765625 293.2902526855469 L 393.72967529296875 293.2256164550781 L 387.4671630859375 411.6407165527344 L 425.5517272949219 411.671142578125 L 425.908935546875 387.5718688964844 C 431.7725830078125 384.7035827636719 427.7336120605469 377.5242614746094 435.366455078125 376.7762145996094 C 435.394287109375 383.5101013183594 444.6395568847656 389.8147277832031 441.8968811035156 393.2307434082031 L 441.6007995605469 406.5216979980469 L 475.41412353515625 411.65045166015625 C 481.36956787109375 396.7147216796875 463.7998962402344 386.2855529785156 477.3802185058594 386.4737854003906 L 475.071044921875 411.41925048828125 L 502.6285705566406 411.33135986328125 L 502.6070251464844 395.83856201171875 L 502.6777038574219 330.20751953125 L 467.7257995605469 333.4722900390625" stroke-width="2.0" fill="rgb(76, 104, 125)" opacity="1.0082129" stroke="rgb(0, 0, 0)" stroke-opacity="0.0" stroke-linecap="round" stroke-linejoin="round"/>
    <path d="M 395.1033630371094 163.35951232910156 L 395.3426513671875 200.99449157714844 L 396.2207336425781 213.78273010253906 L 439.7777404785156 212.16522216796875 C 446.3046875 220.5166473388672 451.053466796875 210.63861083984375 454.1451416015625 211.331298828125 L 457.39019775390625 249.82666015625 L 457.1672668457031 262.01080322265625 L 494.6212463378906 261.99224853515625 L 508.0003967285156 270.3392028808594 L 512.0781860351562 183.54588317871094 L 508.0617370605469 163.35418701171875 L 395.1033630371094 163.35951232910156" stroke-width="2.0" fill="rgb(208, 197, 187)" opacity="1.4927355" stroke="rgb(0, 0, 0)" stroke-opacity="0.0" stroke-linecap="round" stroke-linejoin="round"/>
    <path d="M 269.44866943359375 324.3045654296875 L 241.4873504638672 324.52069091796875 L 240.73826599121094 386.5997314453125 L 240.9202880859375 400.5940246582031 L 5.507235050201416 400.75262451171875 L 5.530965328216553 411.8846130371094 C 12.690895080566406 409.64208984375 20.608352661132812 415.4983825683594 20.240882873535156 423.4762878417969 L 41.26255798339844 423.4481201171875 L 43.39784240722656 416.1396179199219 C 53.20711135864258 404.4525146484375 64.28785705566406 415.3209533691406 63.4231071472168 423.8407287597656 C 75.45386505126953 422.1014709472656 89.58306121826172 425.8105163574219 87.75566101074219 419.8586730957031 L 235.30966186523438 420.6565246582031 L 235.9041748046875 412.8431091308594 L 248.90756225585938 412.5865783691406 L 248.7993621826172 351.3387145996094 L 269.68310546875 351.1106262207031 L 269.44866943359375 324.3045654296875" stroke-width="2.0" fill="rgb(48, 48, 67)" opacity="1.0133471" stroke="rgb(0, 0, 0)" stroke-opacity="0.0" stroke-linecap="round" stroke-linejoin="round"/>
    <path d="M 143.6797332763672 306.4861755371094 L 144.38795471191406 358.2784423828125 L 132.66366577148438 358.5669250488281 L 132.49745178222656 400.7231750488281 L 141.86813354492188 400.7114562988281 L 142.00592041015625 373.370361328125 C 127.42782592773438 381.604736328125 141.5845947265625 368.9962463378906 143.01629638671875 367.5122985839844 L 153.06028747558594 375.6327209472656 L 144.75782775878906 374.06573486328125 L 144.755126953125 401.1719970703125 L 167.58201599121094 401.0998840332031 L 171.07052612304688 365.23980712890625 L 172.42295837402344 401.3022155761719 L 197.18150329589844 401.13494873046875 L 197.4225311279297 307.1160583496094 L 143.6797332763672 306.4861755371094" stroke-width="2.0" fill="rgb(321, 284, 250)" opacity="0.56791395" stroke="rgb(0, 0, 0)" stroke-opacity="0.0" stroke-linecap="round" stroke-linejoin="round"/>
    <path d="M 236.29507446289062 425.2344055175781 L 233.57867431640625 430.81005859375 L 502.4154357910156 430.8307800292969 L 502.437744140625 419.51959228515625 L 239.89402770996094 419.615966796875 L 236.29507446289062 425.2344055175781" stroke-width="2.0" fill="rgb(34, 33, 53)" opacity="0.9826614" stroke="rgb(0, 0, 0)" stroke-opacity="0.0" stroke-linecap="round" stroke-linejoin="round"/>
    <path d="M 458.2670593261719 209.81797790527344 L 446.7850036621094 216.39126586914062 C 442.83447265625 217.35806274414062 440.14715576171875 203.7791748046875 435.0980224609375 216.1996307373047 L 373.65826416015625 178.51925659179688 L 378.53924560546875 250.67137145996094 C 385.0249328613281 254.9624786376953 387.0998840332031 263.99072265625 388.8697204589844 268.5730895996094 L 366.5790100097656 268.55926513671875 L 365.2605285644531 293.5265808105469 L 401.2572937011719 294.1584777832031 L 401.2200012207031 262.5805969238281 L 457.5574951171875 262.44329833984375 L 458.2670593261719 209.81797790527344" stroke-width="2.0" fill="rgb(155, 156, 159)" opacity="1.5239948" stroke="rgb(0, 0, 0)" stroke-opacity="0.0" stroke-linecap="round" stroke-linejoin="round"/>
    <path d="M 374.25048828125 292.4958801269531 L 373.808349609375 369.05462646484375 L 426.4825134277344 368.8445739746094 L 427.1408996582031 293.3433532714844 L 374.25048828125 292.4958801269531" stroke-width="2.0" fill="rgb(223, 191, 171)" opacity="0.9646218" stroke="rgb(0, 0, 0)" stroke-opacity="0.0" stroke-linecap="round" stroke-linejoin="round"/>
    <path d="M 425.5852355957031 330.6211242675781 L 425.6241760253906 335.2529296875 L 425.958984375 412.4477844238281 C 436.2062072753906 417.6800842285156 431.22430419921875 402.1314697265625 433.1776428222656 394.924560546875 L 432.1135559082031 389.32928466796875 L 435.0044250488281 377.98077392578125 L 440.0854187011719 390.5534362792969 C 436.1415710449219 394.96923828125 438.9251708984375 403.2569580078125 437.9024658203125 413.1210632324219 L 465.3965148925781 413.244873046875 L 465.507080078125 330.1072998046875 L 425.5852355957031 330.6211242675781" stroke-width="2.0" fill="rgb(310, 287, 255)" opacity="0.6486312" stroke="rgb(0, 0, 0)" stroke-opacity="0.0" stroke-linecap="round" stroke-linejoin="round"/>
  </g>
</svg>
