<?xml version="1.0" ?>
<svg xmlns="http://www.w3.org/2000/svg" version="1.1" width="512" height="384">
  <defs/>
  <g>
    <path d="M 239.8673858642578 204.3231658935547 C 260.66644287109375 211.218017578125 193.47781372070312 286.7583923339844 247.50733947753906 281.724853515625 C 141.12376403808594 268.2054443359375 127.78765869140625 262.5599670410156 115.31438446044922 304.1038818359375 C 48.5276985168457 87.35400390625 59.874778747558594 66.28642272949219 222.11016845703125 41.717308044433594 C 218.85057067871094 169.345947265625 226.30812072753906 200.097412109375 239.8673858642578 204.3231658935547" stroke-width="0.0" fill="rgb(217, 127, 56)" opacity="0.6935602" stroke="rgb(160, 176, 221)" stroke-opacity="0.2800755" stroke-linecap="round" stroke-linejoin="round"/>
    <path d="M 313.8382568359375 206.5574951171875 C 372.77972412109375 256.05145263671875 298.6590576171875 253.07386779785156 257.0138244628906 233.01388549804688 C 155.05685424804688 171.05230712890625 207.04934692382812 64.83506774902344 211.8927001953125 64.42694854736328 C 183.35595703125 119.17388153076172 246.0975799560547 -53.18040466308594 388.4266662597656 32.925472259521484 C 466.54046630859375 118.78018188476562 429.12860107421875 157.68145751953125 313.8382568359375 206.5574951171875" stroke-width="0.0" fill="rgb(255, 255, 234)" opacity="0.880896" stroke="rgb(170, 7, 48)" stroke-opacity="0.7213941" stroke-linecap="round" stroke-linejoin="round"/>
    <path d="M 421.5124206542969 261.4802551269531 C 541.3689575195312 492.1722717285156 484.6495361328125 431.034912109375 -26.0649356842041 373.5796203613281 C 69.59416198730469 208.28729248046875 104.36241149902344 257.60943603515625 133.87376403808594 300.094970703125 C 363.714599609375 130.8274383544922 277.3291931152344 398.08172607421875 278.5548095703125 311.40386962890625 C 219.52438354492188 315.03729248046875 397.2217102050781 391.0602722167969 421.5124206542969 261.4802551269531" stroke-width="0.0" fill="rgb(0, 0, 0)" opacity="0.98865956" stroke="rgb(24, 211, 135)" stroke-opacity="0.23530583" stroke-linecap="round" stroke-linejoin="round"/>
    <path d="M 362.6922607421875 218.91392517089844 C 361.5599670410156 338.3143615722656 369.18072509765625 186.84078979492188 365.9593200683594 344.1987609863281 C 322.4373474121094 370.6769104003906 323.0030822753906 376.1097412109375 330.34033203125 261.8202209472656 C 329.21441650390625 160.354248046875 334.4517822265625 249.13381958007812 334.68218994140625 172.92640686035156 C 359.5976257324219 135.51585388183594 382.8517150878906 234.14706420898438 362.6922607421875 218.91392517089844" stroke-width="0.0" fill="rgb(0, 0, 0)" opacity="0.9956842" stroke="rgb(213, 118, 50)" stroke-opacity="0.55632883" stroke-linecap="round" stroke-linejoin="round"/>
    <path d="M 523.3237915039062 340.5377197265625 C 524.1822509765625 387.67974853515625 525.1502075195312 392.86724853515625 477.9748229980469 396.4555969238281 C 387.0070495605469 404.1416931152344 354.9385986328125 457.9848327636719 388.25518798828125 293.1440734863281 C 413.6493225097656 254.2813262939453 464.107421875 269.9736633300781 461.4057312011719 328.1496887207031 C 521.124755859375 329.9144592285156 525.3643798828125 323.9483337402344 523.3237915039062 340.5377197265625" stroke-width="0.0" fill="rgb(0, 0, 0)" opacity="0.99157566" stroke="rgb(63, 71, 213)" stroke-opacity="0.5215637" stroke-linecap="round" stroke-linejoin="round"/>
    <path d="M 428.9051208496094 153.9607391357422 C 420.2633056640625 189.0783233642578 399.239501953125 217.51475524902344 363.4532775878906 235.32630920410156 C 357.0688171386719 208.75978088378906 387.2414245605469 236.2937774658203 358.34906005859375 186.22872924804688 C 359.1553649902344 122.99929809570312 330.43402099609375 125.64643096923828 390.8585510253906 119.40170288085938 C 426.2046203613281 83.42221069335938 438.0032958984375 101.19265747070312 428.9051208496094 153.9607391357422" stroke-width="0.0" fill="rgb(253, 244, 217)" opacity="0.98521876" stroke="rgb(108, 30, 215)" stroke-opacity="0.1829604" stroke-linecap="round" stroke-linejoin="round"/>
    <path d="M 185.4146270751953 288.35430908203125 C 184.27880859375 340.436279296875 190.05929565429688 326.1651916503906 173.29391479492188 328.7386474609375 C 155.3472900390625 326.1315002441406 161.5692596435547 339.41888427734375 160.13626098632812 293.9986572265625 C 163.73741149902344 281.0113525390625 132.98890686035156 306.650634765625 153.58360290527344 265.7463073730469 C 176.1468963623047 235.1619415283203 184.71804809570312 285.78961181640625 185.4146270751953 288.35430908203125" stroke-width="0.0" fill="rgb(220, 129, 57)" opacity="1.0" stroke="rgb(17, 202, 106)" stroke-opacity="0.031726554" stroke-linecap="round" stroke-linejoin="round"/>
    <path d="M 275.0921630859375 272.0468444824219 C 285.9736328125 311.8623046875 275.7993469238281 297.6653137207031 260.5974426269531 301.03863525390625 C 249.87957763671875 281.2372131347656 267.5376892089844 293.14617919921875 262.03717041015625 266.4354248046875 C 251.6857147216797 246.93728637695312 214.00518798828125 237.96595764160156 259.56256103515625 242.48458862304688 C 313.9212646484375 255.9799346923828 283.189697265625 256.6729431152344 275.0921630859375 272.0468444824219" stroke-width="0.0" fill="rgb(216, 127, 56)" opacity="1.0" stroke="rgb(39, 92, 36)" stroke-opacity="0.5979083" stroke-linecap="round" stroke-linejoin="round"/>
    <path d="M 221.7720489501953 291.1600341796875 C 212.31085205078125 302.6142272949219 230.38768005371094 300.2645568847656 203.0013885498047 300.58624267578125 C 194.541259765625 300.0450744628906 201.77601623535156 303.6194152832031 198.46978759765625 284.836669921875 C 220.19415283203125 254.1260223388672 145.65121459960938 266.7942199707031 241.26190185546875 243.5785369873047 C 213.42271423339844 262.0247802734375 208.21774291992188 272.42926025390625 221.7720489501953 291.1600341796875" stroke-width="0.0" fill="rgb(220, 129, 57)" opacity="1.0" stroke="rgb(230, 120, 190)" stroke-opacity="0.28595436" stroke-linecap="round" stroke-linejoin="round"/>
    <path d="M 248.74539184570312 326.97235107421875 C 247.94595336914062 329.1586608886719 253.82237243652344 328.18743896484375 229.7455291748047 328.4587097167969 C 229.1913604736328 327.6551208496094 229.4448699951172 333.5687561035156 229.3782501220703 314.59002685546875 C 229.28660583496094 310.634033203125 232.3535614013672 306.266357421875 239.27853393554688 302.71441650390625 C 251.4094696044922 310.5061340332031 248.0095977783203 312.2870788574219 248.74539184570312 326.97235107421875" stroke-width="0.0" fill="rgb(227, 133, 59)" opacity="0.977549" stroke="rgb(153, 15, 146)" stroke-opacity="0.13265742" stroke-linecap="round" stroke-linejoin="round"/>
    <path d="M 149.9066162109375 253.8627166748047 C 138.07913208007812 266.214111328125 157.17491149902344 281.4187316894531 140.5001983642578 306.1069641113281 C 119.23680114746094 311.7391662597656 142.6583709716797 259.1634826660156 129.35421752929688 254.0968780517578 C 142.14096069335938 247.96609497070312 128.79837036132812 264.9512023925781 139.8073272705078 223.41607666015625 C 150.57350158691406 265.0765380859375 137.87550354003906 248.29916381835938 149.9066162109375 253.8627166748047" stroke-width="0.0" fill="rgb(0, 0, 0)" opacity="0.96649915" stroke="rgb(136, 43, 226)" stroke-opacity="0.67617595" stroke-linecap="round" stroke-linejoin="round"/>
    <path d="M 74.75054168701172 269.540771484375 C 64.1065673828125 284.30108642578125 72.78158569335938 291.5177001953125 64.02372741699219 289.8850402832031 C 48.14518356323242 290.1051940917969 50.34174346923828 292.449462890625 54.84603500366211 275.67913818359375 C 41.254634857177734 277.7852783203125 38.25952911376953 249.8394775390625 96.27738189697266 260.1268005371094 C 89.87938690185547 261.742919921875 100.05873107910156 253.61328125 74.75054168701172 269.540771484375" stroke-width="0.0" fill="rgb(223, 131, 58)" opacity="0.98517627" stroke="rgb(62, 5, 199)" stroke-opacity="0.15880196" stroke-linecap="round" stroke-linejoin="round"/>
    <path d="M 51.63941192626953 258.2835388183594 C 50.82763671875 289.58721923828125 54.00397872924805 277.1597595214844 52.742061614990234 291.9363098144531 C 37.39729690551758 288.324462890625 32.03950881958008 273.2734069824219 39.34553146362305 276.1005859375 C 37.92310333251953 249.54226684570312 41.85438537597656 241.43228149414062 45.675628662109375 221.84877014160156 C 51.22398376464844 268.9548645019531 60.3587646484375 251.41807556152344 51.63941192626953 258.2835388183594" stroke-width="0.0" fill="rgb(0, 0, 0)" opacity="0.94189537" stroke="rgb(92, 1, 13)" stroke-opacity="0.13030717" stroke-linecap="round" stroke-linejoin="round"/>
    <path d="M 352.82659912109375 152.05960083007812 C 343.080810546875 166.19728088378906 355.7218322753906 152.33847045898438 342.70166015625 178.98533630371094 C 346.4671630859375 144.83639526367188 341.3814697265625 164.11102294921875 340.6708068847656 150.36732482910156 C 348.91351318359375 141.32217407226562 338.6540222167969 148.9153594970703 346.5128173828125 130.36343383789062 C 354.60546875 151.09451293945312 343.1522216796875 137.3394317626953 352.82659912109375 152.05960083007812" stroke-width="0.0" fill="rgb(0, 0, 0)" opacity="0.98256546" stroke="rgb(155, 203, 115)" stroke-opacity="0.5143361" stroke-linecap="round" stroke-linejoin="round"/>
    <path d="M 27.710430145263672 327.9163513183594 C 26.56175994873047 328.3962707519531 30.966917037963867 328.6518859863281 24.61503028869629 328.4317321777344 C -2.7370102405548096 328.5630187988281 -9.274645805358887 328.01470947265625 -5.038177013397217 330.1838073730469 C 16.560684204101562 314.86419677734375 20.968063354492188 297.48150634765625 31.14420509338379 289.10858154296875 C 26.257156372070312 298.1475830078125 28.09707260131836 280.8990173339844 27.710430145263672 327.9163513183594" stroke-width="0.0" fill="rgb(225, 132, 59)" opacity="0.98079604" stroke="rgb(218, 162, 162)" stroke-opacity="0.9966265" stroke-linecap="round" stroke-linejoin="round"/>
    <path d="M 300.4267272949219 87.71489715576172 C 306.0559387207031 90.59368133544922 288.53759765625 91.23503112792969 299.5303039550781 94.7246322631836 C 284.0185546875 98.2265625 293.5993957519531 97.03697204589844 289.4917907714844 88.9198989868164 C 297.1907958984375 85.92981719970703 291.6688537597656 94.87474822998047 295.4274597167969 81.788330078125 C 300.9222412109375 73.368896484375 298.0652770996094 93.02932739257812 300.4267272949219 87.71489715576172" stroke-width="0.0" fill="rgb(6, 6, 6)" opacity="0.9719226" stroke="rgb(206, 34, 230)" stroke-opacity="0.60581714" stroke-linecap="round" stroke-linejoin="round"/>
    <path d="M 326.8740234375 341.064453125 C 326.92138671875 313.1527404785156 326.6567077636719 314.30181884765625 327.9126281738281 298.22564697265625 C 325.42755126953125 293.5834045410156 326.4776611328125 300.6919250488281 325.98504638671875 319.5179748535156 C 326.05816650390625 325.4888000488281 326.05792236328125 319.7738342285156 326.2067565917969 324.0460205078125 C 326.1665344238281 318.5942077636719 325.5110168457031 321.8052978515625 326.8740234375 341.064453125" stroke-width="0.0" fill="rgb(87, 51, 23)" opacity="0.92175657" stroke="rgb(33, 199, 53)" stroke-opacity="0.006884336" stroke-linecap="round" stroke-linejoin="round"/>
    <path d="M 333.8565673828125 204.1322021484375 C 330.5461730957031 206.53271484375 322.7868957519531 200.72097778320312 324.3858337402344 212.95274353027344 C 321.867431640625 231.30532836914062 302.6739807128906 226.37770080566406 302.512451171875 207.0143585205078 C 305.6192932128906 196.1495819091797 254.4586181640625 153.83648681640625 332.3341369628906 129.7638702392578 C 335.4786376953125 199.44651794433594 334.70947265625 217.8708038330078 333.8565673828125 204.1322021484375" stroke-width="0.0" fill="rgb(253, 243, 216)" opacity="0.86308646" stroke="rgb(226, 170, 60)" stroke-opacity="0.55239767" stroke-linecap="round" stroke-linejoin="round"/>
    <path d="M 335.92193603515625 333.340087890625 C 324.27392578125 348.0241394042969 319.69598388671875 346.97760009765625 317.09356689453125 346.4011535644531 C 292.97808837890625 348.11639404296875 274.76715087890625 354.5276794433594 280.2786865234375 319.2858581542969 C 298.2012939453125 272.8651428222656 290.9409484863281 323.14703369140625 293.02685546875 328.3768005371094 C 336.2669677734375 328.67822265625 334.41192626953125 327.3170166015625 335.92193603515625 333.340087890625" stroke-width="0.0" fill="rgb(0, 0, 0)" opacity="0.99139094" stroke="rgb(112, 105, 99)" stroke-opacity="0.30726618" stroke-linecap="round" stroke-linejoin="round"/>
    <path d="M 331.9942626953125 328.8929748535156 C 337.6292724609375 330.8072204589844 336.1485900878906 327.27325439453125 317.9916687011719 330.7594299316406 C 309.9178161621094 331.637939453125 313.47735595703125 330.771484375 279.9997253417969 329.6344299316406 C 314.8047790527344 330.4884033203125 316.4234313964844 330.5293273925781 310.38604736328125 331.33587646484375 C 302.393798828125 332.21240234375 306.1729431152344 331.7581481933594 331.9942626953125 328.8929748535156" stroke-width="0.0" fill="rgb(5, 2, 1)" opacity="0.6867263" stroke="rgb(168, 252, 4)" stroke-opacity="0.9442983" stroke-linecap="round" stroke-linejoin="round"/>
    <path d="M 219.85812377929688 153.5228729248047 C 213.3358612060547 154.1227264404297 221.19192504882812 164.53152465820312 215.3179168701172 162.51904296875 C 207.49037170410156 149.90428161621094 212.3028106689453 158.9895477294922 205.87631225585938 155.3121795654297 C 214.37173461914062 151.987548828125 207.15101623535156 156.7659454345703 215.4340362548828 147.55322265625 C 220.575439453125 153.99928283691406 211.1695556640625 150.7747039794922 219.85812377929688 153.5228729248047" stroke-width="0.0" fill="rgb(5, 5, 5)" opacity="0.9859337" stroke="rgb(160, 39, 139)" stroke-opacity="0.35170117" stroke-linecap="round" stroke-linejoin="round"/>
    <path d="M 324.19891357421875 280.45965576171875 C 328.1034240722656 280.912353515625 325.2147216796875 273.0672607421875 327.1753845214844 319.48504638671875 C 333.74334716796875 281.45928955078125 329.45330810546875 280.28253173828125 331.9224853515625 273.54815673828125 C 320.2208557128906 282.202392578125 323.2098388671875 285.29931640625 322.7142639160156 268.2917785644531 C 345.0625915527344 266.3979797363281 325.0422668457031 277.53692626953125 324.19891357421875 280.45965576171875" stroke-width="0.0" fill="rgb(1, 0, 0)" opacity="0.9931651" stroke="rgb(12, 199, 126)" stroke-opacity="0.6586784" stroke-linecap="round" stroke-linejoin="round"/>
    <path d="M 322.35882568359375 203.98622131347656 C 324.0216369628906 228.1250457763672 317.24481201171875 217.221435546875 339.9259948730469 220.99876403808594 C 315.6952819824219 218.2881622314453 340.773681640625 223.9100341796875 337.1521911621094 210.51470947265625 C 321.3083190917969 201.80661010742188 322.0110168457031 210.84396362304688 329.1988220214844 211.13186645507812 C 324.0416259765625 210.8146514892578 324.8240661621094 208.51527404785156 322.35882568359375 203.98622131347656" stroke-width="0.0" fill="rgb(0, 0, 0)" opacity="0.9861383" stroke="rgb(223, 101, 170)" stroke-opacity="0.050836474" stroke-linecap="round" stroke-linejoin="round"/>
    <path d="M 212.36741638183594 328.5682373046875 C 216.2555389404297 328.5669860839844 193.31080627441406 328.2151794433594 198.7373504638672 328.41748046875 C 199.13095092773438 330.50616455078125 199.94973754882812 326.02032470703125 198.67379760742188 329.9942932128906 C 199.35946655273438 319.8565979003906 195.82748413085938 316.1631774902344 205.66635131835938 310.9654235839844 C 214.4786376953125 316.71429443359375 211.873779296875 317.5834045410156 212.36741638183594 328.5682373046875" stroke-width="0.0" fill="rgb(225, 132, 58)" opacity="0.9911244" stroke="rgb(200, 130, 162)" stroke-opacity="0.61788726" stroke-linecap="round" stroke-linejoin="round"/>
    <path d="M 337.2578430175781 97.45297241210938 C 342.892822265625 97.00154113769531 341.816162109375 100.39289093017578 328.0499572753906 100.23040771484375 C 328.2857360839844 98.19608306884766 335.0867919921875 99.41559600830078 331.95965576171875 95.91954040527344 C 333.3662109375 99.82018280029297 332.27667236328125 99.0859146118164 332.9503173828125 87.74341583251953 C 335.6497497558594 91.15737915039062 338.28558349609375 92.22425079345703 337.2578430175781 97.45297241210938" stroke-width="0.0" fill="rgb(7, 8, 7)" opacity="0.99862874" stroke="rgb(173, 211, 45)" stroke-opacity="0.33334884" stroke-linecap="round" stroke-linejoin="round"/>
    <path d="M 375.772216796875 210.4744110107422 C 374.028564453125 209.77642822265625 371.0771179199219 207.73013305664062 375.94940185546875 207.6832733154297 C 351.8481750488281 208.1269989013672 359.5305480957031 207.38734436035156 358.46734619140625 207.9528350830078 C 358.55108642578125 175.9923553466797 357.6280517578125 183.8260040283203 360.9068908691406 187.05178833007812 C 370.2366638183594 190.7265625 370.1933898925781 195.8301544189453 375.772216796875 210.4744110107422" stroke-width="0.0" fill="rgb(251, 243, 216)" opacity="0.9919556" stroke="rgb(172, 181, 86)" stroke-opacity="0.64102525" stroke-linecap="round" stroke-linejoin="round"/>
    <path d="M 209.7439727783203 310.1360778808594 C 192.2581329345703 315.2244567871094 200.3360595703125 324.32470703125 200.83291625976562 319.38690185546875 C 199.61911010742188 322.07855224609375 201.8462677001953 321.42755126953125 204.56552124023438 319.5641784667969 C 200.72946166992188 324.20892333984375 193.41494750976562 318.6526794433594 204.626708984375 311.9701843261719 C 212.79159545898438 308.63836669921875 212.1616668701172 308.9573669433594 209.7439727783203 310.1360778808594" stroke-width="0.0" fill="rgb(143, 89, 36)" opacity="0.76936823" stroke="rgb(67, 121, 213)" stroke-opacity="0.9766061" stroke-linecap="round" stroke-linejoin="round"/>
    <path d="M 157.1917266845703 125.04646301269531 C 139.55340576171875 131.38211059570312 162.05104064941406 130.65231323242188 137.0357208251953 132.87672424316406 C 140.1522979736328 131.9947052001953 142.2738800048828 130.6823272705078 136.69403076171875 132.81671142578125 C 143.87998962402344 127.98114013671875 141.05340576171875 135.6998291015625 141.64614868164062 120.88410949707031 C 160.8318634033203 119.43989562988281 145.7881622314453 123.74848937988281 157.1917266845703 125.04646301269531" stroke-width="0.0" fill="rgb(24, 14, 6)" opacity="0.9923177" stroke="rgb(114, 190, 46)" stroke-opacity="0.8506965" stroke-linecap="round" stroke-linejoin="round"/>
    <path d="M 334.4898376464844 208.0259552001953 C 325.6352844238281 207.77920532226562 316.20465087890625 208.7516326904297 312.3157653808594 206.30755615234375 C 322.8990478515625 208.02403259277344 321.72430419921875 207.82305908203125 314.6960144042969 206.6317138671875 C 319.90325927734375 202.79949951171875 324.28765869140625 203.43405151367188 333.01513671875 197.54891967773438 C 332.8115539550781 191.61856079101562 333.95684814453125 194.98202514648438 334.4898376464844 208.0259552001953" stroke-width="0.0" fill="rgb(253, 245, 219)" opacity="0.94692254" stroke="rgb(98, 60, 214)" stroke-opacity="0.74514234" stroke-linecap="round" stroke-linejoin="round"/>
    <path d="M 279.3923034667969 328.3266296386719 C 281.4408874511719 329.1024475097656 263.8130187988281 328.0777587890625 266.6434631347656 328.681884765625 C 267.27655029296875 328.95892333984375 266.7008361816406 328.9665832519531 265.79144287109375 328.2486267089844 C 265.7035217285156 309.2697448730469 265.4216613769531 317.3920593261719 269.22540283203125 319.94085693359375 C 272.4878234863281 323.8319396972656 279.9247741699219 324.809326171875 279.3923034667969 328.3266296386719" stroke-width="0.0" fill="rgb(250, 148, 66)" opacity="0.8851" stroke="rgb(47, 229, 205)" stroke-opacity="0.3406124" stroke-linecap="round" stroke-linejoin="round"/>
    <path d="M 89.72441101074219 270.2288513183594 C 90.30525207519531 261.03082275390625 92.25878143310547 258.71575927734375 93.1513671875 273.1869201660156 C 93.29498291015625 261.2981262207031 94.27275848388672 255.84478759765625 95.6184310913086 270.0177917480469 C 90.90748596191406 268.6850891113281 94.88574981689453 267.9208068847656 92.97181701660156 250.462158203125 C 88.47115325927734 257.23980712890625 98.17511749267578 268.6795959472656 89.72441101074219 270.2288513183594" stroke-width="0.0" fill="rgb(0, 0, 0)" opacity="0.9212281" stroke="rgb(59, 136, 173)" stroke-opacity="0.37623486" stroke-linecap="round" stroke-linejoin="round"/>
  </g>
</svg>
