<?xml version="1.0" ?>
<svg xmlns="http://www.w3.org/2000/svg" version="1.1" width="512" height="384">
  <defs/>
  <g>
    <path d="M 239.19175720214844 204.04629516601562 C 259.346435546875 209.9656524658203 192.3782196044922 286.11480712890625 247.349365234375 281.63677978515625 C 141.10537719726562 268.01763916015625 127.77271270751953 262.4101257324219 115.0629653930664 304.1962585449219 C 48.39693069458008 87.49354553222656 59.86141586303711 66.29766845703125 222.10499572753906 41.73235321044922 C 218.79759216308594 169.33497619628906 226.30661010742188 200.097412109375 239.19175720214844 204.04629516601562" stroke-width="0.0" fill="rgb(219, 128, 56)" opacity="0.6938651" stroke="rgb(160, 176, 221)" stroke-opacity="0.2800755" stroke-linecap="round" stroke-linejoin="round"/>
    <path d="M 312.562744140625 208.2328338623047 C 368.0274963378906 257.62542724609375 299.0829772949219 251.9117889404297 256.4412536621094 232.84669494628906 C 155.49972534179688 170.5481414794922 207.6515655517578 65.68852233886719 209.27999877929688 69.2425537109375 C 184.29278564453125 119.13638305664062 244.04190063476562 -53.44247817993164 389.1872863769531 33.19147872924805 C 466.62548828125 121.46297454833984 429.3893737792969 156.93650817871094 312.562744140625 208.2328338623047" stroke-width="0.0" fill="rgb(255, 255, 234)" opacity="0.88044" stroke="rgb(170, 7, 48)" stroke-opacity="0.7213941" stroke-linecap="round" stroke-linejoin="round"/>
    <path d="M 421.6006774902344 261.6555480957031 C 541.1525268554688 492.73297119140625 484.62744140625 431.04833984375 -23.686767578125 375.66876220703125 C 64.19912719726562 206.5261993408203 103.39458465576172 259.17303466796875 135.0908966064453 297.6626892089844 C 359.20928955078125 136.2646026611328 281.2021484375 410.06915283203125 278.3184509277344 311.5089416503906 C 214.2539520263672 320.6864013671875 393.11383056640625 391.752197265625 421.6006774902344 261.6555480957031" stroke-width="0.0" fill="rgb(0, 0, 0)" opacity="0.98229486" stroke="rgb(24, 211, 135)" stroke-opacity="0.23530583" stroke-linecap="round" stroke-linejoin="round"/>
    <path d="M 362.7007141113281 219.06045532226562 C 361.6145935058594 338.0321350097656 369.0435791015625 187.02386474609375 365.9861755371094 344.1691589355469 C 323.5173645019531 370.4732666015625 319.7417297363281 374.5017395019531 330.6741027832031 243.1798553466797 C 325.757080078125 166.21621704101562 336.98486328125 249.8816680908203 334.3556823730469 173.78746032714844 C 358.1659240722656 134.20562744140625 384.1670837402344 233.08425903320312 362.7007141113281 219.06045532226562" stroke-width="0.0" fill="rgb(1, 0, 0)" opacity="0.98903996" stroke="rgb(213, 118, 50)" stroke-opacity="0.55632883" stroke-linecap="round" stroke-linejoin="round"/>
    <path d="M 523.31591796875 339.33380126953125 C 524.1822509765625 387.67974853515625 525.1502075195312 392.86724853515625 477.7405700683594 396.4555969238281 C 384.66741943359375 403.9561767578125 354.3233337402344 458.3063049316406 388.5430908203125 292.3312072753906 C 417.656982421875 252.20115661621094 464.5450744628906 274.5113830566406 461.3454895019531 328.1786193847656 C 521.8097534179688 329.8345947265625 525.3187255859375 324.3008728027344 523.31591796875 339.33380126953125" stroke-width="0.0" fill="rgb(0, 0, 0)" opacity="0.99132085" stroke="rgb(63, 71, 213)" stroke-opacity="0.5215637" stroke-linecap="round" stroke-linejoin="round"/>
    <path d="M 428.6755676269531 155.2449188232422 C 419.70562744140625 189.3872528076172 399.5199279785156 217.1441650390625 363.5794372558594 235.3009033203125 C 356.5652770996094 211.1448211669922 387.69598388671875 231.04493713378906 358.2652893066406 194.4995574951172 C 360.8638000488281 122.37275695800781 331.61627197265625 125.97289276123047 388.41680908203125 120.3378677368164 C 426.89990234375 86.9159927368164 438.1126403808594 102.65896606445312 428.6755676269531 155.2449188232422" stroke-width="0.0" fill="rgb(253, 244, 217)" opacity="0.9833617" stroke="rgb(108, 30, 215)" stroke-opacity="0.1829604" stroke-linecap="round" stroke-linejoin="round"/>
    <path d="M 185.37460327148438 299.1249694824219 C 184.13656616210938 338.28753662109375 190.2981719970703 326.3719787597656 171.1663360595703 328.7671813964844 C 156.00733947753906 326.2274475097656 161.3506622314453 339.1775207519531 160.22581481933594 294.54071044921875 C 163.3031768798828 280.1560974121094 134.45986938476562 307.0354919433594 152.7202606201172 267.14569091796875 C 179.78819274902344 241.14645385742188 185.81727600097656 283.1435546875 185.37460327148438 299.1249694824219" stroke-width="0.0" fill="rgb(220, 129, 57)" opacity="1.0" stroke="rgb(17, 202, 106)" stroke-opacity="0.031726554" stroke-linecap="round" stroke-linejoin="round"/>
    <path d="M 275.1464538574219 270.9924011230469 C 285.3356628417969 311.91876220703125 277.0326843261719 297.54559326171875 260.5839538574219 301.0553283691406 C 249.37295532226562 281.2037353515625 268.67523193359375 292.3954162597656 261.2214660644531 264.6886291503906 C 249.72232055664062 248.01332092285156 221.27337646484375 238.98922729492188 250.02696228027344 241.9325714111328 C 301.9720764160156 261.3333740234375 292.68963623046875 252.1593017578125 275.1464538574219 270.9924011230469" stroke-width="0.0" fill="rgb(215, 127, 56)" opacity="1.0" stroke="rgb(39, 92, 36)" stroke-opacity="0.5979083" stroke-linecap="round" stroke-linejoin="round"/>
    <path d="M 221.8375244140625 291.1122741699219 C 212.2492218017578 302.6763000488281 230.16397094726562 300.3041076660156 203.93951416015625 300.643798828125 C 194.47059631347656 300.08966064453125 201.978271484375 303.8559265136719 198.4163055419922 284.6421813964844 C 220.3658905029297 253.60382080078125 144.63539123535156 266.0871887207031 239.84344482421875 244.9171600341797 C 211.4967803955078 262.2005615234375 209.37283325195312 274.9098205566406 221.8375244140625 291.1122741699219" stroke-width="0.0" fill="rgb(220, 129, 57)" opacity="1.0" stroke="rgb(230, 120, 190)" stroke-opacity="0.28595436" stroke-linecap="round" stroke-linejoin="round"/>
    <path d="M 248.6180877685547 325.5862121582031 C 248.2089385986328 329.6403503417969 253.40237426757812 328.0646057128906 231.5398406982422 328.5317077636719 C 228.67428588867188 327.6844177246094 229.49725341796875 332.68096923828125 229.4019012451172 314.9437255859375 C 229.31564331054688 310.469970703125 232.21214294433594 306.150634765625 239.31851196289062 302.8116455078125 C 250.59080505371094 310.1441345214844 248.4117889404297 310.9778137207031 248.6180877685547 325.5862121582031" stroke-width="0.0" fill="rgb(227, 133, 59)" opacity="0.9778336" stroke="rgb(153, 15, 146)" stroke-opacity="0.13265742" stroke-linecap="round" stroke-linejoin="round"/>
    <path d="M 149.80552673339844 253.9217071533203 C 138.81298828125 267.162841796875 154.5186767578125 275.2772521972656 143.391357421875 302.03558349609375 C 118.28165435791016 299.73779296875 142.80064392089844 266.2945556640625 129.90399169921875 253.8690185546875 C 141.74623107910156 248.61402893066406 128.9022216796875 264.18463134765625 139.95184326171875 223.39984130859375 C 150.3107147216797 263.5384521484375 138.2678680419922 248.7523193359375 149.80552673339844 253.9217071533203" stroke-width="0.0" fill="rgb(0, 0, 0)" opacity="0.96227026" stroke="rgb(136, 43, 226)" stroke-opacity="0.67617595" stroke-linecap="round" stroke-linejoin="round"/>
    <path d="M 72.84636688232422 271.6844177246094 C 63.88029479980469 291.1451416015625 73.22431182861328 290.2414245605469 62.501365661621094 290.1969299316406 C 51.14431381225586 289.7231140136719 49.31398391723633 293.3869934082031 54.77593231201172 276.1225891113281 C 41.5718994140625 277.2649841308594 35.734962463378906 248.07801818847656 102.19790649414062 261.1141357421875 C 92.69581604003906 262.9206237792969 95.70465850830078 253.617431640625 72.84636688232422 271.6844177246094" stroke-width="0.0" fill="rgb(222, 130, 58)" opacity="0.99443126" stroke="rgb(62, 5, 199)" stroke-opacity="0.15880196" stroke-linecap="round" stroke-linejoin="round"/>
    <path d="M 51.7261962890625 258.10467529296875 C 50.5423583984375 282.01080322265625 54.11848449707031 281.4704895019531 52.723541259765625 291.91314697265625 C 38.31525802612305 286.7704162597656 31.361345291137695 273.9864501953125 39.43330001831055 275.88616943359375 C 37.72056198120117 249.67239379882812 42.250282287597656 240.1871337890625 45.647125244140625 221.93270874023438 C 51.18362808227539 268.3470764160156 60.16811752319336 251.5259552001953 51.7261962890625 258.10467529296875" stroke-width="0.0" fill="rgb(0, 0, 0)" opacity="0.9401484" stroke="rgb(92, 1, 13)" stroke-opacity="0.13030717" stroke-linecap="round" stroke-linejoin="round"/>
    <path d="M 352.8231201171875 152.24510192871094 C 343.27197265625 164.741943359375 355.75128173828125 155.14273071289062 342.64837646484375 177.2584991455078 C 346.94635009765625 145.95498657226562 340.9532470703125 163.5887451171875 340.71392822265625 149.94972229003906 C 348.9084167480469 141.76901245117188 338.799560546875 148.57077026367188 346.5992736816406 130.30096435546875 C 354.71856689453125 151.3854522705078 342.9341735839844 137.04876708984375 352.8231201171875 152.24510192871094" stroke-width="0.0" fill="rgb(0, 0, 0)" opacity="0.9830377" stroke="rgb(155, 203, 115)" stroke-opacity="0.5143361" stroke-linecap="round" stroke-linejoin="round"/>
    <path d="M 27.642335891723633 328.4525146484375 C 26.54969024658203 328.5418395996094 31.235416412353516 328.6500549316406 24.314632415771484 328.39794921875 C -2.2932381629943848 328.82763671875 -8.974940299987793 327.5667419433594 -4.1607136726379395 331.29693603515625 C 16.078968048095703 313.9362487792969 20.280607223510742 299.4190979003906 30.053205490112305 288.7038879394531 C 26.281322479248047 294.94305419921875 28.14916229248047 291.26116943359375 27.642335891723633 328.4525146484375" stroke-width="0.0" fill="rgb(230, 135, 60)" opacity="0.9595573" stroke="rgb(218, 162, 162)" stroke-opacity="0.9966265" stroke-linecap="round" stroke-linejoin="round"/>
  </g>
</svg>
