<?xml version="1.0" ?>
<svg xmlns="http://www.w3.org/2000/svg" version="1.1" width="508" height="512">
  <defs/>
  <g>
    <path d="M -0.7282398343086243 -0.7193917036056519 L 508.00018310546875 -0.7266025543212891 L 508.0 512.0 L -0.7514002919197083 512.0 L -0.7282398343086243 -0.7193917036056519" stroke-width="0.0" fill="rgb(245, 239, 230)" opacity="1.7369511" stroke="rgb(0, 0, 0)" stroke-opacity="0.0" stroke-linecap="round" stroke-linejoin="round"/>
    <path d="M 5.43539571762085 7.902534484863281 L 5.494632244110107 157.1476287841797 L 9.028706550598145 164.8104248046875 L 95.34718322753906 163.6819305419922 C 97.3850326538086 154.86610412597656 93.59866333007812 146.10401916503906 104.11576843261719 145.55494689941406 C 108.1181411743164 133.85531616210938 95.48668670654297 120.2168197631836 110.29045867919922 121.65226745605469 C 112.40176391601562 103.25552368164062 109.69571685791016 87.78069305419922 114.2929916381836 70.82682037353516 L 124.31710052490234 62.79385757446289 C 124.76115417480469 60.2287712097168 124.57498168945312 47.15162658691406 124.68616485595703 54.44608688354492 L 124.32171630859375 64.14739990234375 L 138.0583953857422 74.7251205444336 L 139.5773162841797 120.64280700683594 C 153.83323669433594 121.76655578613281 146.14305114746094 135.1350555419922 137.71665954589844 153.65277099609375 C 143.53330993652344 157.0236053466797 143.1571807861328 161.9010467529297 143.88229370117188 167.99603271484375 L 263.85272216796875 165.26806640625 L 269.3296203613281 157.20620727539062 C 269.02685546875 144.30941772460938 269.17987060546875 132.40248107910156 279.2916259765625 124.9473876953125 L 286.40313720703125 135.26304626464844 C 290.62493896484375 143.72238159179688 285.5057067871094 152.6623992919922 295.6960754394531 161.5325469970703 L 313.89178466796875 161.73814392089844 C 317.2726745605469 153.9822998046875 323.35296630859375 145.726318359375 332.6948547363281 137.853271484375 L 354.4869689941406 126.98284149169922 C 358.0451354980469 119.81790161132812 354.5882873535156 113.91194152832031 356.20794677734375 117.30242156982422 C 356.98590087890625 115.88428497314453 355.2317810058594 122.53546905517578 356.2771911621094 128.5496826171875 C 370.8114318847656 131.00343322753906 382.8046875 138.85276794433594 388.5360107421875 149.9838409423828 L 396.27783203125 160.49627685546875 L 502.4788513183594 160.4598846435547 L 502.5361328125 7.923886775970459 L 5.43539571762085 7.902534484863281" stroke-width="2.0" fill="rgb(146, 176, 178)" opacity="1.028473" stroke="rgb(0, 0, 0)" stroke-opacity="0.0" stroke-linecap="round" stroke-linejoin="round"/>
    <path d="M 5.69003963470459 423.7178039550781 L 5.222799301147461 505.042236328125 L 427.9377136230469 505.02734375 L 436.1728820800781 501.3609619140625 L 485.69281005859375 500.41094970703125 L 487.52642822265625 505.0794372558594 L 502.851806640625 505.050048828125 L 502.26116943359375 431.053466796875 L 498.23992919921875 425.29266357421875 L 232.37954711914062 425.53558349609375 L 232.7228240966797 418.5864562988281 L 87.99394226074219 418.599365234375 L 85.0914077758789 423.9825744628906 L 62.95182418823242 426.3875427246094 C 58.62999725341797 420.9853820800781 58.40778350830078 414.4961242675781 51.68520736694336 419.1191101074219 C 44.50617218017578 411.7144470214844 42.57091522216797 422.92901611328125 36.23196029663086 422.3525695800781 L 8.047938346862793 420.1075744628906 L 5.69003963470459 423.7178039550781" stroke-width="2.0" fill="rgb(109, 147, 160)" opacity="1.0010705" stroke="rgb(0, 0, 0)" stroke-opacity="0.0" stroke-linecap="round" stroke-linejoin="round"/>
    <path d="M 259.6028747558594 253.20657348632812 L 198.9993133544922 253.31234741210938 C 189.85848999023438 247.627197265625 180.7509002685547 251.4150848388672 170.89715576171875 250.40968322753906 L 169.3190460205078 256.2168884277344 L 169.27406311035156 287.3089904785156 L 169.16268920898438 294.4014587402344 C 156.5862579345703 290.93438720703125 145.77134704589844 293.44732666015625 134.64364624023438 292.000732421875 L 130.73291015625 302.6764221191406 L 118.57444763183594 302.97271728515625 L 104.3047866821289 280.6638488769531 C 90.38699340820312 274.9955749511719 77.78956604003906 273.49505615234375 68.37371063232422 283.7500915527344 L 63.815372467041016 318.15789794921875 L 35.650062561035156 318.614013671875 C 37.17335891723633 309.82501220703125 32.81630325317383 307.9414367675781 30.07013702392578 309.96246337890625 L 11.125460624694824 311.1558837890625 L 4.390254497528076 397.7069091796875 L 21.2786808013916 398.3333740234375 L 20.13199234008789 382.0190734863281 C 19.017810821533203 386.7250671386719 15.381149291992188 384.420166015625 13.729251861572266 381.2345886230469 C 15.816317558288574 376.9443359375 11.319818496704102 365.35968017578125 13.293196678161621 358.3927001953125 C 11.14985179901123 356.27734375 20.007259368896484 349.677001953125 23.559310913085938 353.5050354003906 L 44.00373077392578 354.75445556640625 L 44.20073318481445 400.91558837890625 L 241.21942138671875 400.04791259765625 L 241.3086700439453 327.1022033691406 C 247.50994873046875 317.9213562011719 258.92596435546875 325.2459716796875 274.4623107910156 320.15252685546875 L 268.153076171875 281.7487487792969 C 252.98976135253906 282.95166015625 262.64337158203125 265.7503967285156 259.6028747558594 253.20657348632812" stroke-width="2.0" fill="rgb(152, 181, 190)" opacity="0.97310936" stroke="rgb(0, 0, 0)" stroke-opacity="0.0" stroke-linecap="round" stroke-linejoin="round"/>
    <path d="M 98.53278350830078 163.45822143554688 L 5.521111965179443 163.64425659179688 L 5.534202575683594 308.9151916503906 C 17.494300842285156 307.2205810546875 29.939849853515625 315.12774658203125 36.85247039794922 303.3902587890625 L 54.31125259399414 303.2048645019531 L 58.58897399902344 291.0570373535156 C 65.98148345947266 279.96624755859375 75.46508026123047 275.8536376953125 85.63253021240234 276.10125732421875 L 98.33468627929688 277.8138427734375 L 98.53278350830078 163.45822143554688" stroke-width="2.0" fill="rgb(232, 202, 183)" opacity="1.2184697" stroke="rgb(0, 0, 0)" stroke-opacity="0.0" stroke-linecap="round" stroke-linejoin="round"/>
    <path d="M 125.72664642333984 57.08317947387695 L 112.95319366455078 73.76568603515625 L 110.52379608154297 120.35372924804688 L 102.97374725341797 123.04578399658203 L 104.70286560058594 144.84742736816406 L 99.73805236816406 146.5437774658203 L 111.50775909423828 271.98284912109375 L 119.03456115722656 281.15167236328125 L 125.41445922851562 296.82696533203125 L 131.06617736816406 298.89996337890625 L 134.15182495117188 289.91937255859375 C 143.00953674316406 288.65411376953125 154.27285766601562 283.81878662109375 164.9862060546875 289.7261962890625 L 161.81886291503906 290.3434143066406 L 160.32684326171875 251.71771240234375 L 154.22328186035156 250.4816131591797 L 155.0741424560547 150.72824096679688 L 148.66358947753906 146.2201690673828 L 148.8400115966797 122.4572982788086 L 139.29112243652344 120.00440216064453 L 139.24537658691406 74.2741470336914 C 137.03929138183594 67.93058013916016 124.06749725341797 64.4183349609375 125.72664642333984 57.08317947387695" stroke-width="2.0" fill="rgb(-38, 0, 6)" opacity="0.15588191" stroke="rgb(0, 0, 0)" stroke-opacity="0.0" stroke-linecap="round" stroke-linejoin="round"/>
    <path d="M 153.73007202148438 163.47259521484375 L 152.60394287109375 251.4189453125 L 264.6307678222656 252.47457885742188 L 264.8845520019531 163.46449279785156 L 153.73007202148438 163.47259521484375" stroke-width="2.0" fill="rgb(230, 196, 175)" opacity="1.0818485" stroke="rgb(0, 0, 0)" stroke-opacity="0.0" stroke-linecap="round" stroke-linejoin="round"/>
    <path d="M 211.33218383789062 251.8581085205078 L 211.66490173339844 304.6880187988281 L 197.8514404296875 305.5644836425781 L 197.7918701171875 402.08917236328125 L 241.4735565185547 401.97955322265625 L 244.50144958496094 324.6647033691406 L 269.678955078125 324.6572265625 L 267.3634338378906 283.8281555175781 L 258.5610656738281 281.3905029296875 L 258.75225830078125 251.803955078125 L 211.33218383789062 251.8581085205078" stroke-width="2.0" fill="rgb(86, 145, 173)" opacity="0.83813846" stroke="rgb(0, 0, 0)" stroke-opacity="0.0" stroke-linecap="round" stroke-linejoin="round"/>
    <path d="M 461.9439392089844 296.66778564453125 L 460.37994384765625 328.67791748046875 L 429.2087707519531 328.6981201171875 L 427.21099853515625 409.0190124511719 L 429.7621765136719 408.9784240722656 L 428.7177734375 388.94512939453125 C 433.9142761230469 385.9359436035156 429.6703796386719 378.9082946777344 436.414306640625 378.8424377441406 C 436.0140380859375 383.4341735839844 445.5255432128906 389.9558410644531 438.7388000488281 392.18072509765625 L 438.2852783203125 411.78179931640625 L 475.68743896484375 411.1432189941406 C 479.8777770996094 400.0342712402344 467.1816101074219 387.52557373046875 477.81109619140625 379.3057556152344 L 481.2325439453125 411.13079833984375 L 498.7752990722656 411.650390625 L 500.0622863769531 397.03167724609375 L 498.3725891113281 296.6605529785156 L 461.9439392089844 296.66778564453125" stroke-width="2.0" fill="rgb(134, 179, 197)" opacity="1.0960922" stroke="rgb(0, 0, 0)" stroke-opacity="0.0" stroke-linecap="round" stroke-linejoin="round"/>
    <path d="M 395.4122619628906 162.47564697265625 L 393.38189697265625 201.08485412597656 L 394.7326354980469 212.93231201171875 L 440.0838623046875 214.5229949951172 C 446.30322265625 219.1481475830078 451.3612365722656 210.2462921142578 455.2974548339844 211.60963439941406 L 454.70751953125 250.00828552246094 L 459.3880310058594 263.6910400390625 L 493.49871826171875 265.10552978515625 L 502.4010009765625 269.0867004394531 L 502.490966796875 185.30453491210938 L 502.3370361328125 162.4191436767578 L 395.4122619628906 162.47564697265625" stroke-width="2.0" fill="rgb(229, 188, 164)" opacity="0.97564006" stroke="rgb(0, 0, 0)" stroke-opacity="0.0" stroke-linecap="round" stroke-linejoin="round"/>
    <path d="M 269.5624084472656 324.44091796875 L 242.07855224609375 324.69488525390625 L 241.09310913085938 387.14215087890625 L 241.65234375 400.6226501464844 L 5.48680305480957 400.7332458496094 L 5.474565505981445 411.819091796875 C 13.050002098083496 410.91143798828125 19.440231323242188 415.279052734375 19.9891357421875 423.1513977050781 L 39.83550262451172 423.0837707519531 L 45.812557220458984 413.48822021484375 C 55.189693450927734 407.1873474121094 63.707157135009766 415.15362548828125 63.190982818603516 424.179931640625 C 73.29342651367188 421.4977111816406 84.00424194335938 428.216796875 88.5909423828125 419.7866516113281 L 235.51925659179688 420.6015930175781 L 235.7855682373047 413.552978515625 L 249.33058166503906 412.4715881347656 L 249.28106689453125 351.1786193847656 L 269.8016052246094 350.5754089355469 L 269.5624084472656 324.44091796875" stroke-width="2.0" fill="rgb(48, 49, 66)" opacity="1.0157214" stroke="rgb(0, 0, 0)" stroke-opacity="0.0" stroke-linecap="round" stroke-linejoin="round"/>
    <path d="M 144.24142456054688 306.58978271484375 L 144.49632263183594 358.4765930175781 L 133.4316864013672 358.8486022949219 L 132.67877197265625 400.7514343261719 L 141.27944946289062 400.73394775390625 L 142.64613342285156 373.7046813964844 C 128.1312713623047 381.2677307128906 140.1893310546875 367.1656799316406 143.32176208496094 367.6353454589844 L 152.2183837890625 374.24798583984375 L 144.30035400390625 374.0062561035156 L 145.2289581298828 400.8300476074219 L 167.8417205810547 400.88873291015625 L 169.59210205078125 388.5194091796875 L 172.82359313964844 401.29656982421875 L 196.77645874023438 401.2557067871094 L 196.8227996826172 307.5411071777344 L 144.24142456054688 306.58978271484375" stroke-width="2.0" fill="rgb(285, 260, 234)" opacity="0.5988959" stroke="rgb(0, 0, 0)" stroke-opacity="0.0" stroke-linecap="round" stroke-linejoin="round"/>
    <path d="M 236.38487243652344 425.2457275390625 L 233.8653564453125 430.86474609375 L 502.5450744628906 430.8269348144531 L 502.515380859375 419.4051818847656 L 239.03868103027344 419.4588623046875 L 236.38487243652344 425.2457275390625" stroke-width="2.0" fill="rgb(39, 38, 58)" opacity="0.9969902" stroke="rgb(0, 0, 0)" stroke-opacity="0.0" stroke-linecap="round" stroke-linejoin="round"/>
    <path d="M 457.3373718261719 211.0120391845703 L 446.74151611328125 215.78135681152344 C 443.8545227050781 218.53945922851562 438.93121337890625 206.417724609375 436.8304748535156 213.71282958984375 L 377.2332763671875 213.16851806640625 L 377.3629455566406 250.32196044921875 C 383.8465576171875 256.6277770996094 388.1864929199219 263.7231750488281 387.4976501464844 266.88763427734375 L 365.4898376464844 264.6454162597656 L 365.46038818359375 299.87481689453125 L 401.4636535644531 292.45660400390625 L 401.646240234375 263.9626159667969 L 457.4274597167969 263.72784423828125 L 457.3373718261719 211.0120391845703" stroke-width="2.0" fill="rgb(45, 50, 70)" opacity="0.9947366" stroke="rgb(0, 0, 0)" stroke-opacity="0.0" stroke-linecap="round" stroke-linejoin="round"/>
    <path d="M 367.03314208984375 292.413330078125 L 360.48297119140625 369.7491149902344 L 425.828125 370.1612548828125 L 429.3327331542969 293.2682189941406 L 367.03314208984375 292.413330078125" stroke-width="2.0" fill="rgb(217, 192, 173)" opacity="0.7721169" stroke="rgb(0, 0, 0)" stroke-opacity="0.0" stroke-linecap="round" stroke-linejoin="round"/>
    <path d="M 426.5468444824219 330.474609375 L 425.7219543457031 335.1821594238281 L 425.475830078125 410.9197082519531 C 435.08624267578125 415.2002258300781 430.3406677246094 400.9963684082031 432.8482666015625 395.71142578125 L 429.28564453125 389.3760070800781 L 435.03900146484375 379.7008361816406 L 439.67340087890625 389.3631286621094 C 434.69427490234375 396.3345642089844 437.04412841796875 403.6917419433594 437.8400573730469 412.3060302734375 L 464.72650146484375 412.2387390136719 L 464.7870178222656 330.3805236816406 L 426.5468444824219 330.474609375" stroke-width="2.0" fill="rgb(253, 243, 224)" opacity="0.9432129" stroke="rgb(0, 0, 0)" stroke-opacity="0.0" stroke-linecap="round" stroke-linejoin="round"/>
    <path d="M 400.8830261230469 263.0604248046875 L 400.7041015625 289.0030212402344 L 495.2619323730469 291.1038818359375 L 493.6612854003906 262.4435119628906 L 400.8830261230469 263.0604248046875" stroke-width="2.0" fill="rgb(148, 155, 160)" opacity="1.0536636" stroke="rgb(0, 0, 0)" stroke-opacity="0.0" stroke-linecap="round" stroke-linejoin="round"/>
    <path d="M 466.4891357421875 332.027099609375 L 465.4398193359375 412.34521484375 L 478.6853942871094 412.7040710449219 L 478.541259765625 379.23712158203125 L 478.6542053222656 411.6603698730469 L 496.4866027832031 411.6304931640625 L 496.7817077636719 331.68365478515625 L 466.4891357421875 332.027099609375" stroke-width="2.0" fill="rgb(92, 151, 179)" opacity="0.86779964" stroke="rgb(0, 0, 0)" stroke-opacity="0.0" stroke-linecap="round" stroke-linejoin="round"/>
    <path d="M 365.3977355957031 126.6204833984375 C 354.4793701171875 117.13645935058594 342.78497314453125 128.47654724121094 332.49554443359375 138.26734924316406 C 315.2702331542969 150.13706970214844 314.8059997558594 162.68399047851562 315.3700866699219 178.267333984375 L 374.74603271484375 178.62655639648438 L 373.2462158203125 150.49993896484375 L 365.3977355957031 126.6204833984375" stroke-width="2.0" fill="rgb(129, 174, 189)" opacity="1.1291115" stroke="rgb(0, 0, 0)" stroke-opacity="0.0" stroke-linecap="round" stroke-linejoin="round"/>
    <path d="M 367.2476806640625 325.38824462890625 L 361.9313659667969 370.2212829589844 L 425.798828125 364.82330322265625 L 425.3904113769531 326.5273742675781 L 367.2476806640625 325.38824462890625" stroke-width="2.0" fill="rgb(232, 193, 171)" opacity="1.2256235" stroke="rgb(0, 0, 0)" stroke-opacity="0.0" stroke-linecap="round" stroke-linejoin="round"/>
    <path d="M 127.50552368164062 166.2697296142578 L 127.58740997314453 251.7419891357422 L 153.53616333007812 251.7343292236328 L 153.5417022705078 166.3785858154297 L 127.50552368164062 166.2697296142578" stroke-width="2.0" fill="rgb(53, 55, 72)" opacity="1.0234029" stroke="rgb(0, 0, 0)" stroke-opacity="0.0" stroke-linecap="round" stroke-linejoin="round"/>
    <path d="M 270.3640441894531 45.6542854309082 C 248.9772186279297 58.14712142944336 253.49485778808594 84.47479248046875 273.3011474609375 91.89149475097656 C 286.6374816894531 97.01235961914062 303.7247619628906 89.2447738647461 307.4053649902344 73.31073760986328 C 308.4200439453125 64.08586120605469 307.3856506347656 55.67642593383789 295.8235778808594 47.07559585571289 C 288.01531982421875 42.04745864868164 279.21978759765625 42.20811462402344 270.3640441894531 45.6542854309082" stroke-width="2.0" fill="rgb(252, 245, 227)" opacity="1.0023063" stroke="rgb(0, 0, 0)" stroke-opacity="0.0" stroke-linecap="round" stroke-linejoin="round"/>
    <path d="M 278.5596923828125 125.58934020996094 C 265.4065246582031 137.8282012939453 269.52642822265625 149.94818115234375 266.4752197265625 162.96560668945312 L 267.37884521484375 165.12501525878906 L 270.30401611328125 210.21119689941406 L 268.1427307128906 207.1407012939453 C 272.28216552734375 205.8362274169922 279.2137145996094 208.0161590576172 278.10369873046875 211.5870819091797 L 285.59259033203125 211.62953186035156 C 288.9389343261719 217.22409057617188 292.121337890625 217.08189392089844 294.9030456542969 211.30332946777344 L 294.4251708984375 162.302490234375 L 288.9242858886719 161.6125030517578 C 288.6137390136719 148.9861602783203 294.2237854003906 136.99057006835938 278.5596923828125 125.58934020996094" stroke-width="2.0" fill="rgb(168, 177, 166)" opacity="0.5999286" stroke="rgb(0, 0, 0)" stroke-opacity="0.0" stroke-linecap="round" stroke-linejoin="round"/>
    <path d="M 169.2013702392578 252.6457977294922 L 170.6634063720703 306.2067565917969 L 210.9064483642578 307.0824279785156 L 208.05418395996094 274.371826171875 L 194.84957885742188 252.413330078125 L 169.2013702392578 252.6457977294922" stroke-width="2.0" fill="rgb(80, 113, 138)" opacity="1.0339782" stroke="rgb(0, 0, 0)" stroke-opacity="0.0" stroke-linecap="round" stroke-linejoin="round"/>
    <path d="M 324.7430114746094 306.3968811035156 L 309.3170471191406 370.4232482910156 L 373.72906494140625 369.6543273925781 L 373.7226257324219 306.21563720703125 L 324.7430114746094 306.3968811035156" stroke-width="2.0" fill="rgb(-121, -41, 15)" opacity="0.52528673" stroke="rgb(0, 0, 0)" stroke-opacity="0.0" stroke-linecap="round" stroke-linejoin="round"/>
    <path d="M 401.85577392578125 262.5298156738281 L 401.6351623535156 294.85150146484375 L 458.36065673828125 293.8623046875 L 459.0968322753906 262.472900390625 L 401.85577392578125 262.5298156738281" stroke-width="2.0" fill="rgb(249, 240, 223)" opacity="0.79315984" stroke="rgb(0, 0, 0)" stroke-opacity="0.0" stroke-linecap="round" stroke-linejoin="round"/>
    <path d="M 379.27728271484375 369.19183349609375 L 379.5084228515625 410.7998352050781 C 386.1238098144531 411.4335021972656 390.88421630859375 410.95758056640625 391.00323486328125 404.07318115234375 L 395.63531494140625 411.3099670410156 L 413.9892883300781 411.70001220703125 L 415.53900146484375 391.8498229980469 L 409.443603515625 391.0484924316406 L 415.7329406738281 383.8584899902344 L 421.5823974609375 391.1517333984375 C 410.46881103515625 391.7763977050781 418.8855285644531 401.23675537109375 413.72088623046875 411.55126953125 L 425.4560546875 411.54791259765625 L 425.63800048828125 369.1068115234375 L 379.27728271484375 369.19183349609375" stroke-width="2.0" fill="rgb(80, 77, 90)" opacity="1.1238784" stroke="rgb(0, 0, 0)" stroke-opacity="0.0" stroke-linecap="round" stroke-linejoin="round"/>
    <path d="M 357.87603759765625 130.10447692871094 C 367.24652099609375 135.5655975341797 370.3701477050781 144.32569885253906 373.57659912109375 155.1380615234375 L 374.7198791503906 212.1031494140625 L 377.18719482421875 215.33294677734375 L 394.8048095703125 213.35653686523438 L 394.6394958496094 159.9300537109375 C 387.38336181640625 143.79266357421875 373.4228820800781 129.5332489013672 357.87603759765625 130.10447692871094" stroke-width="2.0" fill="rgb(51, 54, 72)" opacity="1.0200016" stroke="rgb(0, 0, 0)" stroke-opacity="0.0" stroke-linecap="round" stroke-linejoin="round"/>
    <path d="M 461.9737548828125 297.1741638183594 L 460.1495361328125 330.9044494628906 L 498.7163391113281 330.76458740234375 L 500.1249694824219 291.37579345703125 L 461.9737548828125 297.1741638183594" stroke-width="2.0" fill="rgb(217, 220, 211)" opacity="1.2191125" stroke="rgb(0, 0, 0)" stroke-opacity="0.0" stroke-linecap="round" stroke-linejoin="round"/>
    <path d="M 55.818477630615234 299.24737548828125 L 55.9725456237793 300.0015563964844 L 118.99530792236328 306.8788146972656 C 117.46868133544922 289.2194519042969 102.23369598388672 275.835693359375 90.92689514160156 276.58880615234375 C 78.1404037475586 273.05316162109375 58.71369934082031 282.0696716308594 55.818477630615234 299.24737548828125" stroke-width="2.0" fill="rgb(78, 137, 167)" opacity="0.73874915" stroke="rgb(0, 0, 0)" stroke-opacity="0.0" stroke-linecap="round" stroke-linejoin="round"/>
    <path d="M 169.2188262939453 251.81527709960938 L 170.6233367919922 306.41876220703125 L 191.170166015625 306.5457458496094 L 192.05612182617188 252.63229370117188 L 169.2188262939453 251.81527709960938" stroke-width="2.0" fill="rgb(104, 171, 198)" opacity="0.88993853" stroke="rgb(0, 0, 0)" stroke-opacity="0.0" stroke-linecap="round" stroke-linejoin="round"/>
    <path d="M 353.986572265625 90.2551040649414 L 434.2480163574219 90.32562255859375 L 413.3949890136719 81.0388412475586 C 403.6113586425781 84.77775573730469 412.048828125 74.78423309326172 405.8346252441406 68.89305114746094 C 393.4439392089844 53.961151123046875 372.2472839355469 66.51972961425781 374.93292236328125 82.01787567138672 C 366.4088134765625 79.60897064208984 361.0195617675781 81.63309478759766 353.986572265625 90.2551040649414" stroke-width="2.0" fill="rgb(249, 241, 222)" opacity="1.0115451" stroke="rgb(0, 0, 0)" stroke-opacity="0.0" stroke-linecap="round" stroke-linejoin="round"/>
    <path d="M 269.55975341796875 324.2740173339844 L 240.8058319091797 324.3010559082031 L 240.41937255859375 410.76800537109375 L 249.1824951171875 411.9287414550781 L 249.19798278808594 351.5972900390625 L 269.9339904785156 351.57763671875 L 269.55975341796875 324.2740173339844" stroke-width="2.0" fill="rgb(52, 52, 74)" opacity="0.76000017" stroke="rgb(0, 0, 0)" stroke-opacity="0.0" stroke-linecap="round" stroke-linejoin="round"/>
    <path d="M 458.51873779296875 262.5306396484375 L 458.5603942871094 290.41900634765625 L 458.2012023925781 295.54351806640625 L 496.6451416015625 295.7074279785156 L 496.6150207519531 262.43951416015625 L 458.51873779296875 262.5306396484375" stroke-width="2.0" fill="rgb(44, 47, 66)" opacity="1.0013891" stroke="rgb(0, 0, 0)" stroke-opacity="0.0" stroke-linecap="round" stroke-linejoin="round"/>
    <path d="M 427.2479248046875 293.290283203125 L 427.31658935546875 330.4249572753906 L 459.41650390625 330.419677734375 L 459.42510986328125 293.5439758300781 L 427.2479248046875 293.290283203125" stroke-width="2.0" fill="rgb(48, 52, 71)" opacity="1.0060309" stroke="rgb(0, 0, 0)" stroke-opacity="0.0" stroke-linecap="round" stroke-linejoin="round"/>
    <path d="M 127.49519348144531 63.600833892822266 L 127.37140655517578 147.63259887695312 L 148.6560821533203 146.9687957763672 L 148.41798400878906 122.37344360351562 L 139.8980712890625 121.40521240234375 L 140.57974243164062 82.30657196044922 C 137.6830596923828 74.73418426513672 139.07766723632812 67.1063232421875 127.49519348144531 63.600833892822266" stroke-width="2.0" fill="rgb(47, 51, 72)" opacity="1.0045962" stroke="rgb(0, 0, 0)" stroke-opacity="0.0" stroke-linecap="round" stroke-linejoin="round"/>
    <path d="M 336.4375305175781 258.4953308105469 L 334.1052551269531 269.41302490234375 L 388.7873229980469 269.6201477050781 C 388.7554016113281 257.7280578613281 379.178955078125 245.6024627685547 362.33331298828125 242.60696411132812 L 347.72760009765625 246.47499084472656 L 336.4375305175781 258.4953308105469" stroke-width="2.0" fill="rgb(87, 156, 182)" opacity="0.92863595" stroke="rgb(0, 0, 0)" stroke-opacity="0.0" stroke-linecap="round" stroke-linejoin="round"/>
    <path d="M 9.40196418762207 258.3872375488281 L 76.18378448486328 258.34490966796875 C 70.28871154785156 249.07861328125 64.48779296875 249.6210174560547 59.243404388427734 249.46690368652344 C 64.13468170166016 234.83729553222656 46.65782165527344 226.03810119628906 36.29183578491211 233.8939971923828 C 29.86905860900879 238.64312744140625 28.545700073242188 243.8511199951172 28.71461296081543 247.74868774414062 L 9.40196418762207 258.3872375488281" stroke-width="2.0" fill="rgb(253, 243, 223)" opacity="0.99673" stroke="rgb(0, 0, 0)" stroke-opacity="0.0" stroke-linecap="round" stroke-linejoin="round"/>
    <path d="M 270.1296081542969 302.1136169433594 L 270.2427062988281 351.3565979003906 L 289.9981384277344 351.36468505859375 L 291.375244140625 302.20635986328125 L 270.1296081542969 302.1136169433594" stroke-width="2.0" fill="rgb(243, 238, 225)" opacity="1.1903455" stroke="rgb(0, 0, 0)" stroke-opacity="0.0" stroke-linecap="round" stroke-linejoin="round"/>
    <path d="M 391.1773681640625 152.54042053222656 L 394.0743713378906 163.54763793945312 L 502.55352783203125 163.51853942871094 L 502.2869567871094 152.7858428955078 L 391.1773681640625 152.54042053222656" stroke-width="2.0" fill="rgb(158, 184, 183)" opacity="0.9712806" stroke="rgb(0, 0, 0)" stroke-opacity="0.0" stroke-linecap="round" stroke-linejoin="round"/>
    <path d="M 280.3022155761719 126.46763610839844 L 280.08502197265625 214.65516662597656 L 284.26409912109375 210.0408477783203 C 290.9950866699219 216.54603576660156 290.8734130859375 217.77882385253906 294.5205078125 211.99874877929688 L 294.343017578125 160.61212158203125 L 290.0390930175781 161.801513671875 L 287.4745788574219 134.39932250976562 L 280.3022155761719 126.46763610839844" stroke-width="2.0" fill="rgb(67, 67, 82)" opacity="1.0955603" stroke="rgb(0, 0, 0)" stroke-opacity="0.0" stroke-linecap="round" stroke-linejoin="round"/>
    <path d="M 34.88986587524414 308.4625244140625 L 5.498455047607422 308.7066345214844 L 5.396844387054443 341.7750549316406 L 34.98799514770508 341.5973815917969 L 34.88986587524414 308.4625244140625" stroke-width="2.0" fill="rgb(94, 151, 175)" opacity="0.99543506" stroke="rgb(0, 0, 0)" stroke-opacity="0.0" stroke-linecap="round" stroke-linejoin="round"/>
    <path d="M 290.4564514160156 297.9524841308594 L 290.3993835449219 350.0312194824219 L 309.4007568359375 353.8322448730469 L 309.2864990234375 298.22900390625 L 290.4564514160156 297.9524841308594" stroke-width="2.0" fill="rgb(71, 72, 88)" opacity="1.0712136" stroke="rgb(0, 0, 0)" stroke-opacity="0.0" stroke-linecap="round" stroke-linejoin="round"/>
    <path d="M 5.4567999839782715 154.74266052246094 L 5.507586479187012 163.59478759765625 L 97.5323486328125 163.57847595214844 L 97.4858169555664 152.1893310546875 L 5.4567999839782715 154.74266052246094" stroke-width="2.0" fill="rgb(153, 181, 181)" opacity="1.0543122" stroke="rgb(0, 0, 0)" stroke-opacity="0.0" stroke-linecap="round" stroke-linejoin="round"/>
    <path d="M 284.0927734375 231.20126342773438 C 274.7253112792969 236.2788848876953 282.7413330078125 246.61703491210938 279.60784912109375 254.18646240234375 L 290.3985900878906 255.5414276123047 L 291.8591613769531 294.86065673828125 L 310.8912353515625 294.974853515625 L 310.8351135253906 281.6372985839844 L 299.7430419921875 281.708251953125 L 299.5992431640625 249.58245849609375 C 289.6909484863281 249.6788787841797 289.1036071777344 234.90835571289062 284.0927734375 231.20126342773438" stroke-width="2.0" fill="rgb(37, 36, 59)" opacity="0.9879736" stroke="rgb(0, 0, 0)" stroke-opacity="0.0" stroke-linecap="round" stroke-linejoin="round"/>
    <path d="M 295.5462341308594 164.32809448242188 L 294.0994567871094 208.03761291503906 C 300.9989013671875 217.17288208007812 306.10870361328125 209.21463012695312 315.4015808105469 212.40452575683594 L 315.0892639160156 164.2519073486328 L 295.5462341308594 164.32809448242188" stroke-width="2.0" fill="rgb(211, 136, 102)" opacity="0.6177328" stroke="rgb(0, 0, 0)" stroke-opacity="0.0" stroke-linecap="round" stroke-linejoin="round"/>
    <path d="M 351.2889099121094 177.77294921875 L 351.30487060546875 216.891845703125 L 359.4873046875 209.03778076171875 L 364.91644287109375 216.50193786621094 L 370.6861572265625 209.36294555664062 L 375.5473327636719 213.12623596191406 L 374.865478515625 177.274658203125 L 351.2889099121094 177.77294921875" stroke-width="2.0" fill="rgb(102, 149, 161)" opacity="0.7567937" stroke="rgb(0, 0, 0)" stroke-opacity="0.0" stroke-linecap="round" stroke-linejoin="round"/>
    <path d="M 317.093017578125 431.89642333984375 L 317.66314697265625 440.4325256347656 L 404.1705627441406 440.2709655761719 C 406.5978088378906 429.49993896484375 401.9599304199219 432.173095703125 396.6383056640625 431.91571044921875 L 317.093017578125 431.89642333984375" stroke-width="2.0" fill="rgb(244, 237, 221)" opacity="1.015637" stroke="rgb(0, 0, 0)" stroke-opacity="0.0" stroke-linecap="round" stroke-linejoin="round"/>
    <path d="M 192.7052001953125 250.41148376464844 L 192.210693359375 306.7906799316406 L 210.25718688964844 306.2563781738281 L 207.02987670898438 273.8714294433594 L 192.7052001953125 250.41148376464844" stroke-width="2.0" fill="rgb(38, 35, 56)" opacity="0.87717724" stroke="rgb(0, 0, 0)" stroke-opacity="0.0" stroke-linecap="round" stroke-linejoin="round"/>
    <path d="M 86.26045227050781 276.82666015625 C 73.30821990966797 274.30230712890625 55.98001480102539 289.0640869140625 54.408512115478516 303.4120788574219 L 89.43678283691406 302.51416015625 L 86.26045227050781 276.82666015625" stroke-width="2.0" fill="rgb(113, 173, 190)" opacity="0.96386194" stroke="rgb(0, 0, 0)" stroke-opacity="0.0" stroke-linecap="round" stroke-linejoin="round"/>
    <path d="M 35.341529846191406 383.1602783203125 C 47.3276481628418 377.7777099609375 42.01350021362305 391.90777587890625 42.89666748046875 399.85858154296875 C 55.58259201049805 401.9637451171875 46.54995346069336 388.23626708984375 51.94406509399414 379.9140319824219 L 68.91281127929688 393.465576171875 L 84.356689453125 371.8110656738281 L 42.951934814453125 370.8391418457031 L 35.341529846191406 383.1602783203125" stroke-width="2.0" fill="rgb(74, 42, 36)" opacity="0.55405945" stroke="rgb(0, 0, 0)" stroke-opacity="0.0" stroke-linecap="round" stroke-linejoin="round"/>
    <path d="M 126.19815063476562 480.73858642578125 L 130.48605346679688 488.5784912109375 L 187.47567749023438 488.7544250488281 C 192.43055725097656 489.0002136230469 198.66270446777344 481.2899169921875 190.6145782470703 480.9022216796875 L 126.19815063476562 480.73858642578125" stroke-width="2.0" fill="rgb(234, 231, 215)" opacity="1.0505209" stroke="rgb(0, 0, 0)" stroke-opacity="0.0" stroke-linecap="round" stroke-linejoin="round"/>
    <path d="M 218.52951049804688 431.3038635253906 L 218.58811950683594 440.5958251953125 L 264.80792236328125 440.5798034667969 L 282.2877502441406 444.741943359375 C 284.4920654296875 437.5622863769531 278.9058532714844 430.838623046875 274.3316345214844 431.9036560058594 L 218.52951049804688 431.3038635253906" stroke-width="2.0" fill="rgb(240, 236, 217)" opacity="1.0047276" stroke="rgb(0, 0, 0)" stroke-opacity="0.0" stroke-linecap="round" stroke-linejoin="round"/>
    <path d="M 87.3026351928711 276.4189758300781 L 89.88481140136719 303.2725524902344 L 117.4052963256836 303.422119140625 C 116.31011199951172 287.9938659667969 99.74405670166016 275.3025207519531 87.3026351928711 276.4189758300781" stroke-width="2.0" fill="rgb(38, 32, 52)" opacity="0.9024071" stroke="rgb(0, 0, 0)" stroke-opacity="0.0" stroke-linecap="round" stroke-linejoin="round"/>
    <path d="M 33.540740966796875 382.41131591796875 L 76.77632141113281 382.6300354003906 L 84.63229370117188 370.8858947753906 L 43.59343719482422 371.3764343261719 L 33.540740966796875 382.41131591796875" stroke-width="2.0" fill="rgb(114, 171, 184)" opacity="1.2919616" stroke="rgb(0, 0, 0)" stroke-opacity="0.0" stroke-linecap="round" stroke-linejoin="round"/>
    <path d="M 386.9124755859375 380.5140380859375 C 378.73846435546875 387.4268493652344 382.1617431640625 400.5951843261719 381.348876953125 411.7721862792969 C 387.6973571777344 409.11175537109375 392.5569152832031 417.54412841796875 404.96185302734375 408.4530029296875 C 401.20489501953125 398.93450927734375 400.1943664550781 390.740234375 393.27447509765625 380.79443359375 L 386.9124755859375 380.5140380859375" stroke-width="2.0" fill="rgb(120, 150, 163)" opacity="1.2985128" stroke="rgb(0, 0, 0)" stroke-opacity="0.0" stroke-linecap="round" stroke-linejoin="round"/>
    <path d="M 400.8723449707031 457.81182861328125 L 406.174560546875 463.2657470703125 L 444.2166442871094 463.3221435546875 L 461.0290222167969 459.0081481933594 L 460.46282958984375 458.5147399902344 L 415.2642517089844 457.06097412109375 L 400.8723449707031 457.81182861328125" stroke-width="2.0" fill="rgb(198, 208, 202)" opacity="1.0945368" stroke="rgb(0, 0, 0)" stroke-opacity="0.0" stroke-linecap="round" stroke-linejoin="round"/>
    <path d="M 366.3256530761719 379.3747253417969 C 350.070556640625 382.2922668457031 358.269775390625 397.8766784667969 355.4670104980469 411.512451171875 L 372.89990234375 412.4892883300781 L 372.64752197265625 384.8662414550781 L 366.3256530761719 379.3747253417969" stroke-width="2.0" fill="rgb(49, 48, 66)" opacity="0.9978746" stroke="rgb(0, 0, 0)" stroke-opacity="0.0" stroke-linecap="round" stroke-linejoin="round"/>
    <path d="M 340.0362548828125 379.631103515625 C 327.8539733886719 383.6530456542969 333.7557067871094 398.6027526855469 332.2383117675781 412.3047790527344 L 349.87481689453125 412.220947265625 C 347.6473388671875 398.6505432128906 352.2779846191406 386.8738708496094 344.7817687988281 380.89276123046875 L 340.0362548828125 379.631103515625" stroke-width="2.0" fill="rgb(46, 46, 63)" opacity="0.99270487" stroke="rgb(0, 0, 0)" stroke-opacity="0.0" stroke-linecap="round" stroke-linejoin="round"/>
    <path d="M 6.637410640716553 367.3916320800781 L 4.3596296310424805 400.7564697265625 L 22.91816520690918 400.7196044921875 L 22.451642990112305 374.7893371582031 L 6.637410640716553 367.3916320800781" stroke-width="2.0" fill="rgb(252, 213, 186)" opacity="0.9652581" stroke="rgb(0, 0, 0)" stroke-opacity="0.0" stroke-linecap="round" stroke-linejoin="round"/>
    <path d="M 290.5228271484375 240.18045043945312 L 289.4169006347656 281.5918273925781 L 303.2342224121094 282.5173645019531 L 303.3038330078125 259.7498474121094 C 293.6961669921875 261.2672119140625 302.3765563964844 252.1448974609375 297.0628356933594 245.1260986328125 L 290.5228271484375 240.18045043945312" stroke-width="2.0" fill="rgb(41, 43, 64)" opacity="0.95950407" stroke="rgb(0, 0, 0)" stroke-opacity="0.0" stroke-linecap="round" stroke-linejoin="round"/>
    <path d="M 104.34613037109375 127.83614349365234 L 104.16929626464844 146.65101623535156 L 127.26802062988281 146.41087341308594 L 127.2431869506836 127.75362396240234 L 104.34613037109375 127.83614349365234" stroke-width="2.0" fill="rgb(243, 204, 180)" opacity="1.0202826" stroke="rgb(0, 0, 0)" stroke-opacity="0.0" stroke-linecap="round" stroke-linejoin="round"/>
    <path d="M 314.16937255859375 379.9765930175781 C 300.6997985839844 389.6936950683594 317.6927795410156 397.5439453125 299.3327941894531 411.2076721191406 L 317.9436340332031 413.3682861328125 L 314.34613037109375 402.0086364746094 C 322.8059997558594 405.44744873046875 310.4023742675781 413.23406982421875 326.041259765625 411.2551574707031 C 323.8237609863281 398.4273681640625 328.7602844238281 386.49127197265625 319.947265625 380.26275634765625 L 314.16937255859375 379.9765930175781" stroke-width="2.0" fill="rgb(49, 47, 63)" opacity="0.9822844" stroke="rgb(0, 0, 0)" stroke-opacity="0.0" stroke-linecap="round" stroke-linejoin="round"/>
    <path d="M 133.2591094970703 292.92913818359375 L 133.1238250732422 306.8689270019531 L 161.6225128173828 306.4951171875 L 161.64671325683594 292.2591857910156 L 133.2591094970703 292.92913818359375" stroke-width="2.0" fill="rgb(106, 167, 190)" opacity="0.9125802" stroke="rgb(0, 0, 0)" stroke-opacity="0.0" stroke-linecap="round" stroke-linejoin="round"/>
    <path d="M 497.5482482910156 330.539306640625 L 497.74078369140625 411.6341857910156 L 502.48797607421875 411.6100158691406 L 502.5485534667969 330.654052734375 L 497.5482482910156 330.539306640625" stroke-width="2.0" fill="rgb(43, 46, 66)" opacity="1.0358837" stroke="rgb(0, 0, 0)" stroke-opacity="0.0" stroke-linecap="round" stroke-linejoin="round"/>
    <path d="M 267.9935607910156 287.4920959472656 L 267.7996826171875 294.33062744140625 L 288.81475830078125 294.49151611328125 L 288.8778381347656 286.55810546875 L 267.9935607910156 287.4920959472656" stroke-width="2.0" fill="rgb(212, 211, 204)" opacity="1.513641" stroke="rgb(0, 0, 0)" stroke-opacity="0.0" stroke-linecap="round" stroke-linejoin="round"/>
    <path d="M 428.77587890625 500.085205078125 L 428.80316162109375 504.8589172363281 L 486.88336181640625 505.005615234375 L 486.6799621582031 500.1570129394531 L 428.77587890625 500.085205078125" stroke-width="2.0" fill="rgb(237, 229, 207)" opacity="0.98584944" stroke="rgb(0, 0, 0)" stroke-opacity="0.0" stroke-linecap="round" stroke-linejoin="round"/>
    <path d="M 83.39295959472656 454.5279846191406 L 27.050535202026367 454.4327697753906 L 25.166484832763672 459.4356994628906 L 82.97464752197266 459.5320739746094 L 83.39295959472656 454.5279846191406" stroke-width="2.0" fill="rgb(52, 75, 102)" opacity="1.0216875" stroke="rgb(0, 0, 0)" stroke-opacity="0.0" stroke-linecap="round" stroke-linejoin="round"/>
    <path d="M 126.27303314208984 63.52421569824219 L 117.49665069580078 66.3961181640625 L 111.46037292480469 82.05597686767578 L 111.49771118164062 89.00881958007812 L 127.35092163085938 89.03022766113281 L 126.27303314208984 63.52421569824219" stroke-width="2.0" fill="rgb(263, 252, 227)" opacity="0.85518503" stroke="rgb(0, 0, 0)" stroke-opacity="0.0" stroke-linecap="round" stroke-linejoin="round"/>
    <path d="M 278.4707946777344 457.5293273925781 L 220.3917999267578 458.8280944824219 L 220.23951721191406 462.6196594238281 L 278.4328308105469 462.40869140625 L 278.4707946777344 457.5293273925781" stroke-width="2.0" fill="rgb(223, 227, 219)" opacity="1.0489522" stroke="rgb(0, 0, 0)" stroke-opacity="0.0" stroke-linecap="round" stroke-linejoin="round"/>
    <path d="M 116.568115234375 423.6434631347656 L 116.5121078491211 430.3997497558594 L 163.6724853515625 430.3433837890625 L 162.38009643554688 423.53851318359375 L 116.568115234375 423.6434631347656" stroke-width="2.0" fill="rgb(236, 237, 220)" opacity="1.0156468" stroke="rgb(0, 0, 0)" stroke-opacity="0.0" stroke-linecap="round" stroke-linejoin="round"/>
    <path d="M 291.90167236328125 288.9075012207031 L 291.10308837890625 299.11383056640625 L 311.2169494628906 298.5321044921875 L 311.6787109375 286.77337646484375 L 291.90167236328125 288.9075012207031" stroke-width="2.0" fill="rgb(38, 98, 132)" opacity="0.72903395" stroke="rgb(0, 0, 0)" stroke-opacity="0.0" stroke-linecap="round" stroke-linejoin="round"/>
    <path d="M 413.13720703125 379.7662048339844 C 397.4489440917969 383.8521423339844 402.0176696777344 401.0010070800781 401.88641357421875 410.6609802246094 L 415.9389343261719 410.56610107421875 C 413.86688232421875 403.461181640625 418.0510559082031 395.4791259765625 409.05230712890625 392.66680908203125 L 413.13720703125 379.7662048339844" stroke-width="2.0" fill="rgb(61, 64, 83)" opacity="0.84406525" stroke="rgb(0, 0, 0)" stroke-opacity="0.0" stroke-linecap="round" stroke-linejoin="round"/>
    <path d="M 288.38604736328125 161.2375030517578 L 297.22943115234375 163.7902069091797 L 316.281494140625 163.78627014160156 L 318.8835144042969 153.8199920654297 L 288.65771484375 151.53384399414062 L 288.38604736328125 161.2375030517578" stroke-width="2.0" fill="rgb(161, 186, 184)" opacity="0.9659603" stroke="rgb(0, 0, 0)" stroke-opacity="0.0" stroke-linecap="round" stroke-linejoin="round"/>
    <path d="M 196.6053466796875 251.4867706298828 L 207.44166564941406 272.8287048339844 L 210.08566284179688 288.0838317871094 L 211.30905151367188 251.7904510498047 L 196.6053466796875 251.4867706298828" stroke-width="2.0" fill="rgb(199, 223, 225)" opacity="1.0015821" stroke="rgb(0, 0, 0)" stroke-opacity="0.0" stroke-linecap="round" stroke-linejoin="round"/>
    <path d="M 20.66374397277832 358.6363525390625 L 23.935171127319336 373.705078125 C 16.211645126342773 372.6261901855469 16.67861557006836 376.57147216796875 23.175500869750977 374.0373840332031 L 24.76008415222168 411.2158508300781 L 26.66754150390625 374.5249328613281 L 36.24296569824219 376.7568664550781 L 25.54039764404297 370.3080749511719 C 26.826322555541992 364.36822509765625 30.1353816986084 352.1202087402344 20.66374397277832 358.6363525390625" stroke-width="2.0" fill="rgb(30, 37, 49)" opacity="0.8914083" stroke="rgb(0, 0, 0)" stroke-opacity="0.0" stroke-linecap="round" stroke-linejoin="round"/>
    <path d="M 416.48687744140625 230.8795928955078 C 409.5564270019531 236.74884033203125 413.30645751953125 246.52182006835938 413.53045654296875 253.76126098632812 C 423.1329040527344 255.45262145996094 418.5097351074219 241.0966339111328 420.13922119140625 234.49732971191406 L 416.48687744140625 230.8795928955078" stroke-width="2.0" fill="rgb(57, 61, 81)" opacity="0.9973507" stroke="rgb(0, 0, 0)" stroke-opacity="0.0" stroke-linecap="round" stroke-linejoin="round"/>
    <path d="M 330.54364013671875 231.52841186523438 L 330.16650390625 255.26370239257812 C 342.1366271972656 261.1112976074219 336.37603759765625 245.8103790283203 337.5975341796875 232.60983276367188 L 330.54364013671875 231.52841186523438" stroke-width="2.0" fill="rgb(45, 49, 68)" opacity="1.0139532" stroke="rgb(0, 0, 0)" stroke-opacity="0.0" stroke-linecap="round" stroke-linejoin="round"/>
    <path d="M 116.23015594482422 382.4197082519531 L 116.47779083251953 401.41583251953125 L 125.36593627929688 401.6830749511719 L 125.66410827636719 382.502685546875 L 116.23015594482422 382.4197082519531" stroke-width="2.0" fill="rgb(41, 46, 67)" opacity="1.0812242" stroke="rgb(0, 0, 0)" stroke-opacity="0.0" stroke-linecap="round" stroke-linejoin="round"/>
    <path d="M 393.1129455566406 231.7371063232422 C 386.5102844238281 238.70223999023438 390.70599365234375 245.33908081054688 389.504638671875 251.73046875 C 398.60870361328125 258.06597900390625 395.9491271972656 240.573486328125 396.97113037109375 235.28627014160156 L 393.1129455566406 231.7371063232422" stroke-width="2.0" fill="rgb(63, 69, 91)" opacity="1.0030428" stroke="rgb(0, 0, 0)" stroke-opacity="0.0" stroke-linecap="round" stroke-linejoin="round"/>
    <path d="M 307.5347595214844 231.44432067871094 L 306.9912414550781 255.58460998535156 L 314.6676025390625 255.75540161132812 L 314.2664489746094 232.5467071533203 L 307.5347595214844 231.44432067871094" stroke-width="2.0" fill="rgb(43, 46, 65)" opacity="1.0057316" stroke="rgb(0, 0, 0)" stroke-opacity="0.0" stroke-linecap="round" stroke-linejoin="round"/>
    <path d="M 62.170387268066406 423.4631652832031 L 62.34014129638672 431.5550231933594 L 91.04733276367188 431.5968322753906 L 88.24562072753906 423.222900390625 L 62.170387268066406 423.4631652832031" stroke-width="2.0" fill="rgb(211, 216, 200)" opacity="0.8248952" stroke="rgb(0, 0, 0)" stroke-opacity="0.0" stroke-linecap="round" stroke-linejoin="round"/>
    <path d="M 143.35231018066406 370.0564270019531 L 135.3397979736328 376.0911560058594 L 141.7341766357422 372.72564697265625 L 143.06475830078125 409.513671875 L 144.70579528808594 373.0528564453125 L 153.14874267578125 375.72998046875 L 143.35231018066406 370.0564270019531" stroke-width="2.0" fill="rgb(39, 42, 51)" opacity="0.97514075" stroke="rgb(0, 0, 0)" stroke-opacity="0.0" stroke-linecap="round" stroke-linejoin="round"/>
    <path d="M 441.8473205566406 231.88526916503906 L 436.34674072265625 234.69789123535156 C 437.580322265625 240.55848693847656 431.75872802734375 258.195068359375 443.6989440917969 250.66976928710938 L 441.8473205566406 231.88526916503906" stroke-width="2.0" fill="rgb(66, 81, 104)" opacity="1.0088824" stroke="rgb(0, 0, 0)" stroke-opacity="0.0" stroke-linecap="round" stroke-linejoin="round"/>
    <path d="M 434.4198303222656 379.8974304199219 C 433.5458068847656 385.0992736816406 435.43170166015625 388.1134338378906 429.3503112792969 390.064453125 L 434.4885559082031 389.4281921386719 L 433.4670715332031 412.1228942871094 L 437.3470153808594 413.6858825683594 C 439.1500244140625 404.7424011230469 434.6177978515625 392.9573059082031 440.48016357421875 389.68743896484375 C 433.5486145019531 387.5419921875 439.3053283691406 379.08587646484375 434.4198303222656 379.8974304199219" stroke-width="2.0" fill="rgb(115, 134, 138)" opacity="1.020793" stroke="rgb(0, 0, 0)" stroke-opacity="0.0" stroke-linecap="round" stroke-linejoin="round"/>
    <path d="M 273.208251953125 389.0105895996094 L 273.19842529296875 412.42132568359375 L 280.3741760253906 412.4193420410156 L 280.16015625 389.1450500488281 L 273.208251953125 389.0105895996094" stroke-width="2.0" fill="rgb(44, 46, 67)" opacity="1.0084331" stroke="rgb(0, 0, 0)" stroke-opacity="0.0" stroke-linecap="round" stroke-linejoin="round"/>
    <path d="M 288.4879455566406 388.8141174316406 L 288.479248046875 412.4189147949219 L 295.7398986816406 412.3932189941406 L 295.3744201660156 388.8017272949219 L 288.4879455566406 388.8141174316406" stroke-width="2.0" fill="rgb(44, 43, 60)" opacity="1.0068802" stroke="rgb(0, 0, 0)" stroke-opacity="0.0" stroke-linecap="round" stroke-linejoin="round"/>
    <path d="M 415.2514953613281 378.5117492675781 L 406.81024169921875 388.9810485839844 L 414.1428527832031 392.4506530761719 L 413.3605651855469 416.3914489746094 C 424.2539367675781 410.3274230957031 409.3621520996094 391.80914306640625 421.4962158203125 392.13140869140625 L 415.2514953613281 378.5117492675781" stroke-width="2.0" fill="rgb(45, 84, 112)" opacity="0.63116324" stroke="rgb(0, 0, 0)" stroke-opacity="0.0" stroke-linecap="round" stroke-linejoin="round"/>
    <path d="M 42.20523452758789 382.65814208984375 L 42.938663482666016 402.7497863769531 C 54.296688079833984 405.4447326660156 49.211246490478516 391.48486328125 50.68597412109375 382.3270568847656 L 42.20523452758789 382.65814208984375" stroke-width="2.0" fill="rgb(39, 39, 57)" opacity="0.9513822" stroke="rgb(0, 0, 0)" stroke-opacity="0.0" stroke-linecap="round" stroke-linejoin="round"/>
    <path d="M 290.6333923339844 239.2827911376953 C 282.3531799316406 240.697998046875 275.67095947265625 246.87884521484375 279.7430114746094 255.3629608154297 L 290.2566223144531 255.4161834716797 L 290.6333923339844 239.2827911376953" stroke-width="2.0" fill="rgb(111, 208, 228)" opacity="0.8465083" stroke="rgb(0, 0, 0)" stroke-opacity="0.0" stroke-linecap="round" stroke-linejoin="round"/>
    <path d="M 170.58982849121094 371.6195068359375 C 169.03492736816406 379.3636169433594 159.22679138183594 382.2498474121094 169.12257385253906 375.9658203125 L 169.8124237060547 409.56903076171875 L 172.09542846679688 380.4988098144531 L 172.44149780273438 374.17095947265625 L 170.58982849121094 371.6195068359375" stroke-width="2.0" fill="rgb(15, 16, 35)" opacity="0.8737384" stroke="rgb(0, 0, 0)" stroke-opacity="0.0" stroke-linecap="round" stroke-linejoin="round"/>
    <path d="M 68.83246612548828 371.3280334472656 L 59.90062713623047 370.87847900390625 L 48.81378173828125 382.25799560546875 L 59.31919479370117 381.5147705078125 L 68.83246612548828 371.3280334472656" stroke-width="2.0" fill="rgb(71, 177, 201)" opacity="0.902904" stroke="rgb(0, 0, 0)" stroke-opacity="0.0" stroke-linecap="round" stroke-linejoin="round"/>
    <path d="M 78.41373443603516 382.3687744140625 L 69.8183822631836 382.6050720214844 L 70.29389953613281 399.71319580078125 L 77.57498168945312 400.3426818847656 L 78.41373443603516 382.3687744140625" stroke-width="2.0" fill="rgb(19, 12, 26)" opacity="0.91306317" stroke="rgb(0, 0, 0)" stroke-opacity="0.0" stroke-linecap="round" stroke-linejoin="round"/>
    <path d="M 174.2473907470703 433.64727783203125 L 175.77810668945312 441.4642639160156 L 197.9307098388672 441.4827575683594 L 196.53231811523438 432.1422424316406 L 174.2473907470703 433.64727783203125" stroke-width="2.0" fill="rgb(223, 228, 214)" opacity="0.9571622" stroke="rgb(0, 0, 0)" stroke-opacity="0.0" stroke-linecap="round" stroke-linejoin="round"/>
    <path d="M 477.59210205078125 377.2257385253906 L 477.6953430175781 392.0227355957031 C 472.8782958984375 389.7049865722656 472.7173156738281 389.8394775390625 476.5310974121094 391.4188537597656 L 479.1343688964844 420.3553161621094 L 479.96722412109375 391.8504333496094 L 480.01953125 384.5354919433594 L 477.59210205078125 377.2257385253906" stroke-width="2.0" fill="rgb(43, 58, 81)" opacity="1.1234725" stroke="rgb(0, 0, 0)" stroke-opacity="0.0" stroke-linecap="round" stroke-linejoin="round"/>
    <path d="M 109.79484558105469 89.64823150634766 L 109.96067810058594 98.57325744628906 L 127.40630340576172 98.17587280273438 L 127.38621520996094 89.5315933227539 L 109.79484558105469 89.64823150634766" stroke-width="2.0" fill="rgb(124, 183, 196)" opacity="1.1416587" stroke="rgb(0, 0, 0)" stroke-opacity="0.0" stroke-linecap="round" stroke-linejoin="round"/>
    <path d="M 257.44329833984375 389.29150390625 L 257.3647766113281 411.3576965332031 L 265.28460693359375 413.593505859375 L 265.3660583496094 389.402587890625 L 257.44329833984375 389.29150390625" stroke-width="2.0" fill="rgb(57, 59, 78)" opacity="1.0101333" stroke="rgb(0, 0, 0)" stroke-opacity="0.0" stroke-linecap="round" stroke-linejoin="round"/>
    <path d="M 280.1953430175781 124.56759643554688 C 270.0315246582031 129.46438598632812 268.4387512207031 137.48001098632812 268.9308166503906 142.6360321044922 L 280.3597106933594 142.7728729248047 L 280.1953430175781 124.56759643554688" stroke-width="2.0" fill="rgb(140, 181, 190)" opacity="1.2857494" stroke="rgb(0, 0, 0)" stroke-opacity="0.0" stroke-linecap="round" stroke-linejoin="round"/>
    <path d="M 450.41058349609375 348.9225158691406 L 450.5218811035156 365.3567810058594 L 456.6553039550781 365.1181640625 C 455.3790283203125 356.5033874511719 459.3755798339844 343.5348205566406 450.41058349609375 348.9225158691406" stroke-width="2.0" fill="rgb(50, 53, 67)" opacity="1.0557158" stroke="rgb(0, 0, 0)" stroke-opacity="0.0" stroke-linecap="round" stroke-linejoin="round"/>
    <path d="M 432.8083801269531 348.54107666015625 L 432.5389404296875 364.59027099609375 C 442.3810119628906 369.3746337890625 436.9312438964844 357.00665283203125 438.8359069824219 348.50823974609375 L 432.8083801269531 348.54107666015625" stroke-width="2.0" fill="rgb(51, 54, 74)" opacity="1.067443" stroke="rgb(0, 0, 0)" stroke-opacity="0.0" stroke-linecap="round" stroke-linejoin="round"/>
    <path d="M 5.294622898101807 412.2056884765625 L 5.331389427185059 427.0230712890625 L 20.61159324645996 426.4911193847656 C 20.926738739013672 413.98248291015625 11.605277061462402 409.16357421875 5.294622898101807 412.2056884765625" stroke-width="2.0" fill="rgb(212, 204, 188)" opacity="0.68053" stroke="rgb(0, 0, 0)" stroke-opacity="0.0" stroke-linecap="round" stroke-linejoin="round"/>
    <path d="M 89.22624969482422 168.15316772460938 L 126.38741302490234 171.9788818359375 L 126.49162292480469 165.989013671875 L 89.22624969482422 168.15316772460938" stroke-width="2.0" fill="rgb(145, 180, 188)" opacity="1.3598418" stroke="rgb(0, 0, 0)" stroke-opacity="0.0" stroke-linecap="round" stroke-linejoin="round"/>
    <path d="M 433.3683776855469 391.4259948730469 L 433.1644287109375 413.43951416015625 L 436.6669921875 413.269775390625 L 436.8370361328125 391.7292175292969 L 433.3683776855469 391.4259948730469" stroke-width="2.0" fill="rgb(24, 8, 27)" opacity="0.76226693" stroke="rgb(0, 0, 0)" stroke-opacity="0.0" stroke-linecap="round" stroke-linejoin="round"/>
    <path d="M 66.96974182128906 498.26348876953125 L 43.19032287597656 498.22509765625 L 41.790443420410156 504.13092041015625 L 66.82213592529297 504.33929443359375 L 66.96974182128906 498.26348876953125" stroke-width="2.0" fill="rgb(47, 65, 89)" opacity="0.98291343" stroke="rgb(0, 0, 0)" stroke-opacity="0.0" stroke-linecap="round" stroke-linejoin="round"/>
    <path d="M 382.3208923339844 306.0795593261719 L 382.3363037109375 322.673095703125 L 388.0935363769531 322.5635070800781 C 386.17913818359375 314.4498596191406 391.1208190917969 301.29498291015625 382.3208923339844 306.0795593261719" stroke-width="2.0" fill="rgb(43, 46, 66)" opacity="1.0442454" stroke="rgb(0, 0, 0)" stroke-opacity="0.0" stroke-linecap="round" stroke-linejoin="round"/>
    <path d="M 6.8037848472595215 404.9599304199219 C 11.070886611938477 400.6771545410156 15.181966781616211 403.69061279296875 18.00322151184082 407.30645751953125 L 37.02909851074219 403.2615051269531 L 6.8037848472595215 404.9599304199219" stroke-width="2.0" fill="rgb(35, 36, 57)" opacity="0.9988069" stroke="rgb(0, 0, 0)" stroke-opacity="0.0" stroke-linecap="round" stroke-linejoin="round"/>
    <path d="M 413.5632629394531 304.7757873535156 C 414.23260498046875 312.4884033203125 410.07476806640625 326.7248840332031 419.4031677246094 321.85009765625 L 419.16644287109375 304.83795166015625 L 413.5632629394531 304.7757873535156" stroke-width="2.0" fill="rgb(49, 51, 69)" opacity="1.0166638" stroke="rgb(0, 0, 0)" stroke-opacity="0.0" stroke-linecap="round" stroke-linejoin="round"/>
    <path d="M 161.81231689453125 293.2452392578125 L 162.76040649414062 306.142822265625 C 171.70248413085938 308.9047546386719 168.1852569580078 298.62762451171875 169.1747283935547 293.19232177734375 L 161.81231689453125 293.2452392578125" stroke-width="2.0" fill="rgb(185, 204, 202)" opacity="0.84793603" stroke="rgb(0, 0, 0)" stroke-opacity="0.0" stroke-linecap="round" stroke-linejoin="round"/>
    <path d="M 337.2236633300781 187.3133087158203 L 336.1100158691406 201.98484802246094 C 344.27447509765625 211.03773498535156 344.8880920410156 182.44398498535156 337.2236633300781 187.3133087158203" stroke-width="2.0" fill="rgb(59, 60, 68)" opacity="1.026201" stroke="rgb(0, 0, 0)" stroke-opacity="0.0" stroke-linecap="round" stroke-linejoin="round"/>
    <path d="M 272.9544982910156 362.6432800292969 C 274.9662780761719 370.4139099121094 269.23193359375 379.941162109375 279.8900146484375 375.51324462890625 C 277.83978271484375 367.2010498046875 283.8477783203125 358.30828857421875 272.9544982910156 362.6432800292969" stroke-width="2.0" fill="rgb(49, 53, 72)" opacity="1.0263711" stroke="rgb(0, 0, 0)" stroke-opacity="0.0" stroke-linecap="round" stroke-linejoin="round"/>
    <path d="M 216.75205993652344 322.21490478515625 C 217.42381286621094 327.62811279296875 213.44168090820312 339.77362060546875 222.59266662597656 335.85357666015625 C 221.46194458007812 330.414306640625 226.0187225341797 318.4864807128906 216.75205993652344 322.21490478515625" stroke-width="2.0" fill="rgb(41, 52, 74)" opacity="1.03438" stroke="rgb(0, 0, 0)" stroke-opacity="0.0" stroke-linecap="round" stroke-linejoin="round"/>
    <path d="M 233.29714965820312 267.3258972167969 C 234.08074951171875 272.37188720703125 229.4158935546875 283.2559509277344 237.71437072753906 281.3670654296875 C 238.0093994140625 276.1264953613281 240.3170623779297 263.91912841796875 233.29714965820312 267.3258972167969" stroke-width="2.0" fill="rgb(38, 48, 78)" opacity="1.0594496" stroke="rgb(0, 0, 0)" stroke-opacity="0.0" stroke-linecap="round" stroke-linejoin="round"/>
    <path d="M 360.4029541015625 186.48695373535156 L 359.502685546875 202.11375427246094 C 369.2015686035156 207.9064178466797 364.6889343261719 194.9371337890625 365.9371032714844 187.68829345703125 L 360.4029541015625 186.48695373535156" stroke-width="2.0" fill="rgb(36, 37, 50)" opacity="0.9979288" stroke="rgb(0, 0, 0)" stroke-opacity="0.0" stroke-linecap="round" stroke-linejoin="round"/>
    <path d="M 487.45098876953125 348.8135986328125 C 488.9659118652344 355.117919921875 484.20050048828125 368.37347412109375 492.6555480957031 364.7936096191406 L 492.5723571777344 348.87762451171875 L 487.45098876953125 348.8135986328125" stroke-width="2.0" fill="rgb(34, 42, 68)" opacity="1.0351831" stroke="rgb(0, 0, 0)" stroke-opacity="0.0" stroke-linecap="round" stroke-linejoin="round"/>
    <path d="M 482.0531921386719 312.0256042480469 C 483.8275451660156 318.4238586425781 477.1687316894531 327.72259521484375 488.60003662109375 323.5556335449219 C 487.0424499511719 317.5235900878906 492.30767822265625 307.7032470703125 482.0531921386719 312.0256042480469" stroke-width="2.0" fill="rgb(46, 48, 64)" opacity="1.0526413" stroke="rgb(0, 0, 0)" stroke-opacity="0.0" stroke-linecap="round" stroke-linejoin="round"/>
    <path d="M 216.66810607910156 352.679443359375 C 217.61203002929688 357.7278137207031 213.29559326171875 369.7995300292969 222.51673889160156 365.34149169921875 C 221.5175323486328 359.67095947265625 225.6604461669922 348.4212646484375 216.66810607910156 352.679443359375" stroke-width="2.0" fill="rgb(39, 48, 70)" opacity="1.0352819" stroke="rgb(0, 0, 0)" stroke-opacity="0.0" stroke-linecap="round" stroke-linejoin="round"/>
    <path d="M 321.7223205566406 187.3831024169922 L 321.38909912109375 202.50680541992188 C 330.8138427734375 206.86544799804688 326.2132263183594 195.51626586914062 327.3850402832031 187.44866943359375 L 321.7223205566406 187.3831024169922" stroke-width="2.0" fill="rgb(52, 54, 67)" opacity="1.0210629" stroke="rgb(0, 0, 0)" stroke-opacity="0.0" stroke-linecap="round" stroke-linejoin="round"/>
    <path d="M 120.3840103149414 315.68505859375 C 120.18087768554688 321.65692138671875 116.17784118652344 335.3396301269531 125.67961120605469 330.3911437988281 C 124.21752166748047 324.1614990234375 128.9852294921875 313.86431884765625 120.3840103149414 315.68505859375" stroke-width="2.0" fill="rgb(39, 48, 73)" opacity="1.0220369" stroke="rgb(0, 0, 0)" stroke-opacity="0.0" stroke-linecap="round" stroke-linejoin="round"/>
    <path d="M 221.3841552734375 379.20135498046875 L 218.44320678710938 389.3816833496094 L 220.04222106933594 405.3863525390625 L 221.3841552734375 379.20135498046875" stroke-width="2.0" fill="rgb(43, 70, 101)" opacity="0.8982469" stroke="rgb(0, 0, 0)" stroke-opacity="0.0" stroke-linecap="round" stroke-linejoin="round"/>
    <path d="M 133.9640350341797 266.4966125488281 C 136.01109313964844 273.17938232421875 130.9003448486328 286.0876159667969 139.21986389160156 281.8997497558594 L 138.96034240722656 266.1031494140625 L 133.9640350341797 266.4966125488281" stroke-width="2.0" fill="rgb(50, 54, 69)" opacity="1.0437151" stroke="rgb(0, 0, 0)" stroke-opacity="0.0" stroke-linecap="round" stroke-linejoin="round"/>
    <path d="M 177.2426300048828 267.21826171875 C 178.26719665527344 272.9540710449219 173.08331298828125 285.2308349609375 182.6271209716797 281.7913818359375 C 181.28504943847656 275.40179443359375 185.9883270263672 263.5155334472656 177.2426300048828 267.21826171875" stroke-width="2.0" fill="rgb(35, 44, 64)" opacity="1.0276854" stroke="rgb(0, 0, 0)" stroke-opacity="0.0" stroke-linecap="round" stroke-linejoin="round"/>
    <path d="M 359.4060363769531 231.3053436279297 C 352.9964599609375 233.3911590576172 356.1803283691406 238.4815673828125 354.9861145019531 243.43772888183594 C 364.4072265625 247.95950317382812 364.2413635253906 234.95664978027344 359.4060363769531 231.3053436279297" stroke-width="2.0" fill="rgb(68, 70, 83)" opacity="1.0946348" stroke="rgb(0, 0, 0)" stroke-opacity="0.0" stroke-linecap="round" stroke-linejoin="round"/>
    <path d="M 58.63603973388672 316.15631103515625 L 58.56974411010742 329.7860412597656 C 66.35183715820312 334.4726257324219 62.06041717529297 321.2899475097656 63.58449935913086 316.16180419921875 L 58.63603973388672 316.15631103515625" stroke-width="2.0" fill="rgb(42, 46, 66)" opacity="1.0583808" stroke="rgb(0, 0, 0)" stroke-opacity="0.0" stroke-linecap="round" stroke-linejoin="round"/>
    <path d="M 72.60848236083984 316.201171875 L 72.35986328125 329.6466369628906 C 81.02030181884766 334.2538146972656 76.5003662109375 321.38385009765625 77.66776275634766 316.0735168457031 L 72.60848236083984 316.201171875" stroke-width="2.0" fill="rgb(46, 48, 60)" opacity="1.0455157" stroke="rgb(0, 0, 0)" stroke-opacity="0.0" stroke-linecap="round" stroke-linejoin="round"/>
    <path d="M 43.908878326416016 316.84722900390625 C 45.561302185058594 322.49627685546875 40.67474365234375 334.232177734375 49.35945510864258 329.9227600097656 C 48.30326843261719 324.0667724609375 52.062137603759766 311.5266418457031 43.908878326416016 316.84722900390625" stroke-width="2.0" fill="rgb(35, 36, 53)" opacity="1.0054044" stroke="rgb(0, 0, 0)" stroke-opacity="0.0" stroke-linecap="round" stroke-linejoin="round"/>
    <path d="M 167.5807342529297 321.5574951171875 L 167.4546356201172 335.3226318359375 C 175.67648315429688 339.9561767578125 171.59707641601562 329.1590270996094 172.73828125 321.5280456542969 L 167.5807342529297 321.5574951171875" stroke-width="2.0" fill="rgb(40, 48, 68)" opacity="1.0714301" stroke="rgb(0, 0, 0)" stroke-opacity="0.0" stroke-linecap="round" stroke-linejoin="round"/>
    <path d="M 413.5653076171875 335.48956298828125 L 413.2459411621094 349.41131591796875 C 422.101318359375 353.97991943359375 417.79388427734375 342.724365234375 418.6405944824219 335.6207275390625 L 413.5653076171875 335.48956298828125" stroke-width="2.0" fill="rgb(48, 49, 67)" opacity="1.0386145" stroke="rgb(0, 0, 0)" stroke-opacity="0.0" stroke-linecap="round" stroke-linejoin="round"/>
    <path d="M 426.52850341796875 275.53619384765625 L 426.47589111328125 289.1886901855469 C 436.4329528808594 292.5278015136719 430.1310729980469 282.2608642578125 432.4993591308594 275.72265625 L 426.52850341796875 275.53619384765625" stroke-width="2.0" fill="rgb(41, 44, 62)" opacity="1.032781" stroke="rgb(0, 0, 0)" stroke-opacity="0.0" stroke-linecap="round" stroke-linejoin="round"/>
  </g>
</svg>
