<?xml version="1.0" ?>
<svg xmlns="http://www.w3.org/2000/svg" version="1.1" width="512" height="406">
  <defs/>
  <g>
    <path d="M -10.0 -10.0 C -9.0 -10.0 512.0 0.0 513.0 0.0 C 514.0 0.0 512.0 406.0 513.0 406.0 C 513.0 407.0 0.0 406.0 0.0 407.0 C 0.0 406.0 0.0 407.0 -10.0 -10.0 L -10.0 -10.0" stroke-width="2.0" fill="rgb(246, 250, 243)" opacity="0.3570401"/>
    <path d="M 494.67828369140625 163.12220764160156 C 484.44219970703125 164.89439392089844 484.7886657714844 187.20606994628906 513.9895629882812 177.6616668701172 C 503.364501953125 181.40101623535156 517.145751953125 174.49139404296875 508.3995361328125 182.26416015625 C 500.648681640625 185.08502197265625 498.3291320800781 179.39588928222656 495.0249328613281 179.5250701904297 C 517.0216674804688 182.363525390625 518.5906372070312 172.2312469482422 499.3783874511719 163.13803100585938 L 494.67828369140625 163.12220764160156" stroke-width="2.0" fill="rgb(249, 148, 0)" opacity="0.7490354"/>
    <path d="M 343.5255126953125 35.291961669921875 C 345.1112060546875 33.91093826293945 344.2588806152344 34.58238220214844 343.69781494140625 35.17485046386719 C 344.3282165527344 34.562870025634766 343.14044189453125 35.66926956176758 344.6916809082031 34.24848556518555 C 344.12890625 34.75861358642578 344.3443908691406 34.561214447021484 344.0589599609375 34.77843475341797 C 344.3121032714844 34.681365966796875 343.5459289550781 35.21977615356445 344.6108703613281 34.2935905456543 L 343.5255126953125 35.291961669921875" stroke-width="2.0" fill="rgb(248, 105, 54)" opacity="0.21762103"/>
    <path d="M 186.52284240722656 204.0858154296875 C 131.56558227539062 262.498779296875 183.1140899658203 297.6016845703125 218.3381805419922 314.77459716796875 C 143.0440216064453 326.2345275878906 124.75235748291016 340.3481140136719 116.18680572509766 311.2200927734375 C 115.74126434326172 185.24766540527344 119.22003936767578 186.3489532470703 103.65908813476562 165.23971557617188 C 84.79000091552734 191.1971435546875 198.39328002929688 160.47560119628906 256.3061218261719 202.48793029785156 L 186.52284240722656 204.0858154296875" stroke-width="2.0" fill="rgb(203, 86, 0)" opacity="0.8925016"/>
    <path d="M 7.463357448577881 193.2891845703125 C 15.750772476196289 190.5420684814453 12.571209907531738 193.2955780029297 17.222185134887695 195.0960693359375 C 12.857361793518066 191.99510192871094 13.033058166503906 193.67205810546875 13.3272705078125 192.3160400390625 C -3.831850051879883 193.57740783691406 -2.296792984008789 192.42901611328125 12.59049129486084 192.61038208007812 C 9.172250747680664 190.5579376220703 7.306653022766113 192.6709747314453 6.027044296264648 197.22509765625 L 7.463357448577881 193.2891845703125" stroke-width="2.0" fill="rgb(177, 60, 200)" opacity="0.118529625"/>
    <path d="M 307.8047180175781 35.09239959716797 C 307.6275939941406 34.77545928955078 307.49237060546875 34.411712646484375 308.16558837890625 36.15024185180664 C 308.1992492675781 36.26161575317383 308.29412841796875 36.714481353759766 310.2117614746094 42.24999237060547 C 308.5879211425781 37.71427536010742 308.7712707519531 37.94445037841797 308.1972961425781 36.36330032348633 C 307.4902038574219 34.251007080078125 307.92889404296875 35.38221740722656 308.80908203125 38.246368408203125 L 307.8047180175781 35.09239959716797" stroke-width="2.0" fill="rgb(195, 114, 204)" opacity="0.14492494"/>
    <path d="M 334.9493408203125 193.697021484375 C 298.5165100097656 231.73440551757812 297.3430480957031 220.32467651367188 283.07281494140625 194.88893127441406 C 218.595703125 208.00570678710938 227.64561462402344 206.76638793945312 140.58444213867188 199.0805206298828 C 122.6310043334961 185.93386840820312 89.82186889648438 158.68479919433594 53.16484451293945 24.402774810791016 C 375.9024658203125 113.65909576416016 167.27801513671875 29.036651611328125 317.9544677734375 51.10868835449219 L 334.9493408203125 193.697021484375" stroke-width="2.0" fill="rgb(0, 39, 101)" opacity="0.51191664"/>
    <path d="M 22.96725845336914 202.8899688720703 C 23.85097885131836 211.84384155273438 22.663650512695312 208.0500946044922 20.490835189819336 212.29296875 C 11.565982818603516 217.47308349609375 7.78108024597168 209.40499877929688 3.0902390480041504 203.44776916503906 C -3.893986225128174 191.29556274414062 -5.3213372230529785 182.36520385742188 -0.28837037086486816 196.61326599121094 C -0.5594673752784729 184.5389862060547 14.070197105407715 184.902099609375 15.846006393432617 194.088134765625 L 22.96725845336914 202.8899688720703" stroke-width="2.0" fill="rgb(0, 154, 219)" opacity="0.84949994"/>
    <path d="M 29.279008865356445 239.36546325683594 C 27.10340118408203 237.52552795410156 27.693790435791016 237.80882263183594 27.172090530395508 237.53839111328125 C 31.90866470336914 240.86819458007812 29.30356216430664 239.03016662597656 25.845806121826172 236.37818908691406 C 28.585304260253906 238.58636474609375 27.840198516845703 237.91676330566406 27.08948516845703 237.39744567871094 C 27.695356369018555 237.77098083496094 27.849578857421875 238.02857971191406 26.946731567382812 237.3033447265625 L 29.279008865356445 239.36546325683594" stroke-width="2.0" fill="rgb(90, 197, 93)" opacity="0.27328005"/>
    <path d="M 395.2501525878906 390.14678955078125 C 396.0476379394531 387.7193908691406 393.8207702636719 387.4795227050781 395.1234436035156 388.109130859375 C 396.4220275878906 390.1128845214844 394.5169677734375 387.376220703125 393.9898681640625 387.3985595703125 C 395.4666748046875 388.8904113769531 396.2518005371094 389.43511962890625 396.4701232910156 390.5727233886719 C 394.2691345214844 388.90228271484375 396.7047424316406 388.1905822753906 394.36773681640625 387.3420104980469 L 395.2501525878906 390.14678955078125" stroke-width="2.0" fill="rgb(65, 110, 40)" opacity="0.0"/>
    <path d="M 414.12451171875 69.00203704833984 C 413.0070495605469 71.72772979736328 413.09423828125 71.6889877319336 414.04412841796875 69.15580749511719 C 412.4134826660156 73.76866149902344 411.9580993652344 73.76690673828125 412.3575134277344 75.40754699707031 C 411.8489990234375 74.01451110839844 412.7689514160156 72.91544342041016 412.205810546875 74.1612777709961 C 413.59442138671875 70.22309112548828 413.6395263671875 70.1730728149414 413.0141906738281 71.927001953125 L 414.12451171875 69.00203704833984" stroke-width="2.0" fill="rgb(95, 255, 111)" opacity="0.16680014"/>
    <path d="M 21.321977615356445 156.44488525390625 C 21.337278366088867 156.9834747314453 20.244544982910156 157.97488403320312 21.056129455566406 156.27081298828125 C 21.574079513549805 156.493408203125 21.21786117553711 156.97276306152344 21.04160499572754 157.0485382080078 C 21.305150985717773 156.79832458496094 21.00218963623047 157.27316284179688 20.76470375061035 157.17205810546875 C 20.80315399169922 156.60800170898438 20.62091636657715 157.29527282714844 21.123945236206055 156.2429962158203 L 21.321977615356445 156.44488525390625" stroke-width="2.0" fill="rgb(162, 166, 255)" opacity="0.06569637"/>
    <path d="M 461.1098327636719 234.30372619628906 C 455.3689880371094 295.85638427734375 448.33355712890625 291.23370361328125 338.5856018066406 289.17694091796875 C 283.6817932128906 290.0731201171875 307.7427673339844 274.65985107421875 316.16192626953125 277.22833251953125 C 301.8676452636719 279.8548278808594 280.7109680175781 233.06039428710938 253.91526794433594 105.7822494506836 C 438.35552978515625 140.84239196777344 449.52410888671875 154.09507751464844 454.2768249511719 180.73947143554688 L 461.1098327636719 234.30372619628906" stroke-width="2.0" fill="rgb(242, 212, 51)" opacity="1.0"/>
    <path d="M 433.1033935546875 134.31204223632812 C 441.5780029296875 148.48712158203125 443.8016357421875 153.1448516845703 444.1389465332031 161.44259643554688 C 318.47442626953125 143.83319091796875 371.7880554199219 144.81332397460938 316.1432189941406 150.51492309570312 C 341.0206298828125 74.98753356933594 335.1213073730469 64.64031982421875 340.1504821777344 58.40408706665039 C 407.6786804199219 85.13460540771484 424.6627502441406 124.15435791015625 424.11956787109375 118.9638671875 L 433.1033935546875 134.31204223632812" stroke-width="2.0" fill="rgb(98, 58, 19)" opacity="1.0"/>
    <path d="M 403.01800537109375 357.1389465332031 C 358.9485778808594 397.439453125 310.5440368652344 403.156494140625 300.3296813964844 404.43408203125 C 239.4671173095703 411.7846374511719 213.92288208007812 392.20098876953125 214.63473510742188 383.7542419433594 C 214.73269653320312 292.12255859375 233.15869140625 347.5806579589844 259.3373718261719 299.5737609863281 C 286.31396484375 282.19854736328125 251.72323608398438 288.4418029785156 381.4974670410156 289.7333679199219 L 403.01800537109375 357.1389465332031" stroke-width="2.0" fill="rgb(231, 183, 21)" opacity="0.9247977"/>
    <path d="M 219.60435485839844 318.9956359863281 C 232.40504455566406 353.6814270019531 216.33026123046875 340.9693298339844 210.60638427734375 355.4281311035156 C 199.9856414794922 396.4402770996094 159.7074737548828 376.2501220703125 117.87611389160156 316.51715087890625 C 59.46742630004883 204.27517700195312 117.96990203857422 144.73963928222656 136.53543090820312 305.5283203125 C 251.0650177001953 304.5194396972656 198.25347900390625 296.2923889160156 203.08792114257812 286.0293273925781 L 219.60435485839844 318.9956359863281" stroke-width="2.0" fill="rgb(232, 187, 34)" opacity="0.98116976"/>
    <path d="M 80.61914825439453 341.10882568359375 C 81.04821014404297 342.1061706542969 80.37968444824219 342.95733642578125 79.4921646118164 342.5426330566406 C 78.68041229248047 343.0384826660156 77.80094909667969 342.4225769042969 77.65713500976562 341.5353088378906 C 77.29764556884766 340.8537292480469 77.87088775634766 339.8909912109375 78.78218078613281 339.68682861328125 C 79.40702056884766 339.22344970703125 80.42897033691406 339.6856384277344 80.64715576171875 340.6181945800781 L 80.61914825439453 341.10882568359375" stroke-width="2.0" fill="rgb(199, 217, 132)" opacity="0.0"/>
    <path d="M 201.44662475585938 19.11151885986328 C 202.78431701660156 19.466737747192383 202.49266052246094 20.024404525756836 202.5232391357422 18.34273338317871 C 202.85739135742188 19.519474029541016 202.45620727539062 18.96665382385254 203.2132568359375 18.433963775634766 C 201.85508728027344 19.849925994873047 202.41445922851562 19.374645233154297 203.3514404296875 20.43701934814453 C 202.0348663330078 18.897218704223633 202.62960815429688 19.171476364135742 201.63150024414062 20.137344360351562 L 201.44662475585938 19.11151885986328" stroke-width="2.0" fill="rgb(92, 29, 148)" opacity="0.0"/>
    <path d="M 492.8722229003906 286.660888671875 C 497.5171813964844 301.4615783691406 481.2809753417969 299.25677490234375 484.5193176269531 299.1222229003906 C 472.9894714355469 298.9842529296875 469.6669616699219 293.7371826171875 473.83447265625 296.50177001953125 C 468.2784729003906 293.4242858886719 468.6617736816406 280.36016845703125 482.346435546875 282.118408203125 C 465.25531005859375 284.924072265625 491.3874206542969 279.5212097167969 492.462890625 287.1639709472656 L 492.8722229003906 286.660888671875" stroke-width="2.0" fill="rgb(0, 154, 219)" opacity="0.8506496"/>
    <path d="M 36.82650375366211 172.0417022705078 C 36.991233825683594 172.21998596191406 36.29757308959961 171.47756958007812 35.370513916015625 169.42486572265625 C 36.84575653076172 172.53713989257812 37.54061508178711 172.70968627929688 36.912559509277344 172.1899871826172 C 36.91265106201172 172.02540588378906 36.69272994995117 172.07315063476562 35.468936920166016 169.56381225585938 C 34.66054153442383 168.06600952148438 36.517112731933594 172.00091552734375 37.35923767089844 172.61997985839844 L 36.82650375366211 172.0417022705078" stroke-width="2.0" fill="rgb(114, 171, 255)" opacity="0.24393275"/>
    <path d="M 389.5591735839844 306.22625732421875 C 307.0353088378906 382.68017578125 291.0943908691406 351.8498229980469 235.51666259765625 355.67816162109375 C 188.1751708984375 366.88385009765625 219.1101531982422 392.60284423828125 192.07489013671875 385.703369140625 C 198.95164489746094 306.8013000488281 203.19822692871094 326.92010498046875 159.70571899414062 270.5264892578125 C 219.85552978515625 255.13514709472656 263.7808837890625 247.55796813964844 309.28265380859375 239.3668975830078 L 389.5591735839844 306.22625732421875" stroke-width="2.0" fill="rgb(246, 221, 55)" opacity="0.41224313"/>
    <path d="M 301.016845703125 119.41633605957031 C 118.3604507446289 93.17561340332031 141.22048950195312 105.5601577758789 119.94727325439453 130.13697814941406 C 80.77886199951172 191.07872009277344 94.67019653320312 250.39434814453125 90.92598724365234 234.7784881591797 C 93.24324035644531 227.48348999023438 88.1788558959961 253.1300048828125 103.60769653320312 287.5610046386719 C 121.05075073242188 324.733642578125 123.6707763671875 324.3802185058594 92.81965637207031 233.63392639160156 L 301.016845703125 119.41633605957031" stroke-width="2.0" fill="rgb(227, 184, 38)" opacity="0.9913905"/>
    <path d="M 428.30615234375 279.263671875 C 427.0229797363281 265.9596862792969 422.7076110839844 255.61241149902344 403.6367492675781 228.92742919921875 C 417.26910400390625 239.03973388671875 361.0948486328125 247.96360778808594 379.6548156738281 209.1674346923828 C 321.3413391113281 173.83377075195312 300.3807067871094 230.61846923828125 303.92340087890625 193.16339111328125 C 388.02056884765625 150.8421630859375 382.69500732421875 242.9131317138672 402.4224853515625 185.2814178466797 L 428.30615234375 279.263671875" stroke-width="2.0" fill="rgb(123, 34, 25)" opacity="0.7631949"/>
    <path d="M 431.5637512207031 27.933429718017578 C 432.1324157714844 27.026700973510742 431.2861633300781 27.924949645996094 431.4523010253906 29.1829833984375 C 431.0846862792969 28.88707733154297 432.81304931640625 26.309663772583008 429.3428039550781 29.080238342285156 C 431.0930480957031 27.816038131713867 431.3647155761719 27.67914581298828 431.6014404296875 27.927339553833008 C 432.92236328125 25.575592041015625 431.2030334472656 28.116981506347656 431.41815185546875 29.038408279418945 L 431.5637512207031 27.933429718017578" stroke-width="2.0" fill="rgb(140, 57, 255)" opacity="0.08590737"/>
    <path d="M 401.12799072265625 67.61937713623047 C 410.5442810058594 78.39069366455078 397.43994140625 88.35763549804688 389.7478332519531 80.04835510253906 C 392.8659973144531 82.73147583007812 381.0650634765625 68.69805145263672 385.9492492675781 75.46895599365234 C 380.8050842285156 65.27444458007812 383.33795166015625 75.98214721679688 383.2049560546875 67.1927261352539 C 384.09600830078125 62.297813415527344 390.264892578125 57.665321350097656 396.9447021484375 62.914825439453125 L 401.12799072265625 67.61937713623047" stroke-width="2.0" fill="rgb(249, 148, 0)" opacity="0.7480964"/>
    <path d="M 445.7911376953125 154.7677001953125 C 456.98516845703125 183.01092529296875 460.1294250488281 201.2433319091797 460.4944763183594 236.45042419433594 C 371.7996520996094 195.77639770507812 336.7127685546875 160.50466918945312 411.2571105957031 155.4206085205078 C 340.9210510253906 93.17230987548828 110.8911361694336 194.12757873535156 308.8743591308594 49.95441818237305 C 396.05584716796875 65.6619873046875 432.7668151855469 129.92202758789062 439.995849609375 143.3868865966797 L 445.7911376953125 154.7677001953125" stroke-width="2.0" fill="rgb(235, 192, 39)" opacity="0.98375547"/>
    <path d="M 313.1056213378906 285.2186279296875 C 251.6230010986328 327.9534606933594 252.46897888183594 323.58111572265625 255.34117126464844 326.9210205078125 C 173.22962951660156 334.0585021972656 162.0353240966797 337.4186706542969 116.61903381347656 259.7385559082031 C 117.34827423095703 97.39431762695312 128.62802124023438 334.105712890625 182.50450134277344 193.59506225585938 C 379.9398498535156 238.54092407226562 -58.347816467285156 106.126220703125 273.14825439453125 44.20844268798828 L 313.1056213378906 285.2186279296875" stroke-width="2.0" fill="rgb(236, 202, 42)" opacity="0.9349729"/>
    <path d="M 249.24783325195312 390.2650451660156 C 287.7947692871094 410.50762939453125 303.1163024902344 413.1083068847656 280.402099609375 405.9313659667969 C 215.42132568359375 406.984375 170.7982635498047 378.1521911621094 144.9691925048828 353.05792236328125 C 128.4849090576172 336.5917053222656 106.43376922607422 308.63201904296875 96.26464080810547 267.84808349609375 C 181.61294555664062 300.040771484375 141.350830078125 335.4248352050781 217.48196411132812 347.50262451171875 L 249.24783325195312 390.2650451660156" stroke-width="2.0" fill="rgb(232, 186, 37)" opacity="1.0"/>
    <path d="M 448.3424377441406 160.9458465576172 C 475.8925476074219 230.99978637695312 457.6414794921875 309.69989013671875 399.36907958984375 360.3773498535156 C 342.0636291503906 360.9251403808594 482.32080078125 291.0965270996094 264.580078125 302.3046569824219 C 260.4483642578125 132.59893798828125 307.8361511230469 319.9631042480469 304.6258239746094 164.7669219970703 C 310.8754577636719 162.5398406982422 275.67755126953125 321.7342529296875 365.1072998046875 307.3514099121094 L 448.3424377441406 160.9458465576172" stroke-width="2.0" fill="rgb(220, 180, 39)" opacity="0.9917241"/>
    <path d="M 84.9647445678711 129.65235900878906 C 80.48008728027344 135.9923858642578 81.81727600097656 132.89157104492188 83.31580352783203 131.3968048095703 C 78.8505859375 144.91030883789062 63.87620544433594 140.55873107910156 66.46797943115234 128.1381378173828 C 69.60455322265625 124.69922637939453 67.01668548583984 122.23648834228516 72.70244598388672 118.6639404296875 C 86.52153778076172 116.01774597167969 84.72509765625 130.31617736816406 83.45377349853516 134.59255981445312 L 84.9647445678711 129.65235900878906" stroke-width="2.0" fill="rgb(101, 178, 0)" opacity="0.7478128"/>
  </g>
</svg>
