<?xml version="1.0" ?>
<svg xmlns="http://www.w3.org/2000/svg" version="1.1" width="512" height="380">
  <defs/>
  <g>
    <path d="M 0.0 0.0 L 512.0 0.0 L 512.0 380.0 L 0.0 380.0 L 0.0 0.0" stroke-width="0.0" fill="rgb(255, 255, 255)" opacity="1.0" stroke="rgb(0, 0, 0)" stroke-opacity="0.0" stroke-linecap="round" stroke-linejoin="round"/>
    <path d="M 0.0 1.0 L 0.0 379.0 L 511.0 379.0 L 511.0 1.0 L 0.0 1.0" stroke-width="2.0" fill="rgb(255, 255, 255)" opacity="1.0" stroke="rgb(0, 0, 0)" stroke-opacity="0.0" stroke-linecap="round" stroke-linejoin="round"/>
    <path d="M 0.0 167.0 L 0.0 379.0 L 511.0 379.0 L 511.0 311.0 C 489.3333435058594 316.40240478515625 467.6666564941406 322.0989990234375 446.0 315.0 C 378.0 336.4327087402344 310.0 339.42572021484375 242.0 318.0 C 224.0 317.56341552734375 206.0 319.34100341796875 188.0 316.0 C 141.0826873779297 287.1764221191406 98.03048706054688 243.5709991455078 56.0 202.0 C 35.62464904785156 192.56414794921875 20.099924087524414 177.68687438964844 0.0 167.0" stroke-width="2.0" fill="rgb(80, 80, 87)" opacity="1.0" stroke="rgb(0, 0, 0)" stroke-opacity="0.0" stroke-linecap="round" stroke-linejoin="round"/>
    <path d="M 234.0 52.0 L 227.0 53.0 C 189.0 80.25386047363281 151.0 103.14167785644531 113.0 126.0 C 118.55751037597656 138.0 107.13685607910156 150.0 108.0 162.0 C 101.4209213256836 169.6666717529297 99.78691864013672 177.3333282470703 100.0 185.0 C 95.34776306152344 196.34408569335938 76.24301147460938 208.00411987304688 76.0 218.0 C 88.8641586303711 233.86001586914062 111.57530975341797 248.09356689453125 124.0 262.0 C 139.75949096679688 257.6113586425781 131.40032958984375 276.492431640625 146.0 282.0 C 196.16265869140625 263.3992614746094 242.30862426757812 197.5098876953125 249.0 149.0 C 244.21450805664062 140.1581268310547 245.95767211914062 132.47898864746094 235.0 126.0 C 241.2938690185547 115.87579345703125 255.27403259277344 108.10674285888672 254.0 94.0 C 247.33331298828125 91.08610534667969 237.95750427246094 87.48567199707031 245.0 79.0 C 250.6802978515625 76.24500274658203 258.98175048828125 81.74701690673828 263.0 74.0 C 255.02137756347656 71.64118194580078 248.68753051757812 67.81336975097656 240.0 71.0 C 235.4912872314453 62.99409866333008 249.20916748046875 58.26359176635742 234.0 52.0" stroke-width="2.0" fill="rgb(193, 197, 196)" opacity="1.0" stroke="rgb(0, 0, 0)" stroke-opacity="0.0" stroke-linecap="round" stroke-linejoin="round"/>
    <path d="M 0.0 165.0 L 0.0 296.0 C 8.428807258605957 297.9903259277344 4.716763973236084 298.669921875 9.0 294.0 C 15.693323135375977 297.44732666015625 10.369152069091797 308.1727294921875 21.0 302.0 C 24.25330924987793 304.1687927246094 35.40313720703125 305.5526123046875 31.0 312.0 C 35.6993293762207 312.6921081542969 34.849849700927734 311.4281005859375 40.0 312.0 C 42.04389572143555 316.9503479003906 48.08876419067383 325.7508239746094 54.0 318.0 C 52.12510681152344 312.68023681640625 52.23192596435547 294.5237121582031 59.0 304.0 C 66.40068054199219 295.5643310546875 82.28355407714844 312.95050048828125 93.0 314.0 C 119.66666412353516 341.7449951171875 146.3333282470703 330.07440185546875 173.0 344.0 L 198.0 344.0 C 185.5649871826172 334.7401123046875 163.74392700195312 333.8942565917969 153.0 322.0 L 177.0 324.0 C 190.3365020751953 338.07440185546875 213.94760131835938 328.4992370605469 232.0 335.0 C 226.51438903808594 329.8042907714844 230.7615203857422 326.4408264160156 236.0 328.0 C 262.6666564941406 344.6800537109375 289.3333435058594 341.93310546875 316.0 344.0 C 319.85498046875 337.93939208984375 310.4666442871094 339.419189453125 307.0 334.0 C 273.6666564941406 329.216552734375 240.3333282470703 314.2113037109375 207.0 319.0 C 181.3333282470703 319.76409912109375 155.6666717529297 292.33642578125 130.0 272.0 C 96.22929382324219 245.75038146972656 70.34442138671875 206.1245880126953 36.0 191.0 C 26.27111053466797 182.58685302734375 12.379267692565918 172.796630859375 0.0 165.0" stroke-width="2.0" fill="rgb(30, 36, 47)" opacity="1.0" stroke="rgb(0, 0, 0)" stroke-opacity="0.0" stroke-linecap="round" stroke-linejoin="round"/>
    <path d="M 511.0 194.0 C 501.0296325683594 194.50350952148438 490.59814453125 207.05426025390625 482.0 214.0 C 430.9997863769531 246.0771484375 377.3336181640625 280.65533447265625 328.0 306.0 C 380.0450744628906 317.30096435546875 438.70538330078125 310.7120361328125 495.0 312.0 L 511.0 307.0 L 511.0 194.0" stroke-width="2.0" fill="rgb(56, 65, 79)" opacity="1.0" stroke="rgb(0, 0, 0)" stroke-opacity="0.0" stroke-linecap="round" stroke-linejoin="round"/>
    <path d="M 0.0 360.0 L 0.0 379.0 L 511.0 379.0 L 511.0 360.0 L 0.0 360.0" stroke-width="2.0" fill="rgb(85, 113, 130)" opacity="1.0" stroke="rgb(0, 0, 0)" stroke-opacity="0.0" stroke-linecap="round" stroke-linejoin="round"/>
    <path d="M 0.0 137.0 C 17.33333396911621 127.40840148925781 34.66666793823242 133.381103515625 52.0 122.0 C 64.33333587646484 126.6024169921875 76.66666412353516 135.34202575683594 89.0 142.0 C 108.66666412353516 119.95331573486328 128.3333282470703 116.29232788085938 148.0 103.0 L 198.0 70.0 C 186.7993621826172 75.35076904296875 188.87879943847656 74.36762237548828 181.0 72.0 C 167.57489013671875 72.26332092285156 151.79205322265625 77.19872283935547 140.0 66.0 L 0.0 66.0 L 0.0 137.0" stroke-width="2.0" fill="rgb(114, 137, 149)" opacity="1.0" stroke="rgb(0, 0, 0)" stroke-opacity="0.0" stroke-linecap="round" stroke-linejoin="round"/>
    <path d="M 383.0 272.0 C 361.426513671875 257.8011169433594 336.48614501953125 245.4093017578125 318.0 220.0 L 311.0 218.0 C 281.2247314453125 228.94967651367188 254.37643432617188 252.59339904785156 225.0 262.0 C 199.9891815185547 291.32867431640625 169.68118286132812 265.54705810546875 148.0 284.0 C 154.3333282470703 293.61029052734375 160.6666717529297 289.881103515625 167.0 289.0 C 193.0 297.7074890136719 219.0 280.4136657714844 245.0 268.0 C 255.6719512939453 269.0167541503906 246.64767456054688 282.59375 241.0 287.0 C 257.3333435058594 278.7169494628906 273.6666564941406 284.6924743652344 290.0 277.0 C 307.0 285.6107482910156 324.0 282.30023193359375 341.0 272.0 C 355.0 273.06591796875 369.0 289.2593078613281 383.0 272.0" stroke-width="2.0" fill="rgb(194, 192, 185)" opacity="1.0" stroke="rgb(0, 0, 0)" stroke-opacity="0.0" stroke-linecap="round" stroke-linejoin="round"/>
    <path d="M 383.0 272.0 C 360.653076171875 257.9791259765625 336.8233642578125 245.1246795654297 316.0 219.0 C 291.8305969238281 221.84237670898438 275.578125 259.4612731933594 253.0 270.0 C 250.31178283691406 276.63232421875 241.1274871826172 289.0850524902344 254.0 281.0 C 275.0 280.90826416015625 296.0 274.1561279296875 317.0 283.0 C 336.0 265.8594665527344 355.0 276.9114685058594 374.0 280.0 L 383.0 272.0" stroke-width="2.0" fill="rgb(187, 185, 177)" opacity="1.0" stroke="rgb(0, 0, 0)" stroke-opacity="0.0" stroke-linecap="round" stroke-linejoin="round"/>
    <path d="M 511.0 187.0 C 506.23651123046875 173.19625854492188 485.3130187988281 165.02256774902344 474.0 153.0 L 449.0 162.0 C 441.0731201171875 152.4683837890625 432.3783264160156 156.84555053710938 426.0 167.0 C 420.0 170.50918579101562 414.0 165.37940979003906 408.0 164.0 L 392.0 175.0 L 433.0 215.0 C 446.2200927734375 205.48858642578125 450.60638427734375 184.0498504638672 467.0 183.0 C 473.2823181152344 190.41293334960938 482.3186340332031 204.95361328125 484.0 190.0 C 491.1209716796875 195.5620880126953 502.7232360839844 199.66644287109375 511.0 187.0" stroke-width="2.0" fill="rgb(194, 194, 189)" opacity="1.0" stroke="rgb(0, 0, 0)" stroke-opacity="0.0" stroke-linecap="round" stroke-linejoin="round"/>
    <path d="M 88.0 144.0 C 75.66666412353516 136.41366577148438 63.33333206176758 127.47996520996094 51.0 124.0 C 38.66666793823242 128.42791748046875 26.33333396911621 137.42132568359375 14.0 133.0 C -0.1710306704044342 135.8046112060547 -1.8069665431976318 144.31082153320312 0.0 156.0 C 7.379287242889404 146.2762451171875 18.145681381225586 147.14955139160156 22.0 161.0 L 15.0 173.0 C 23.66666603088379 178.2998046875 32.33333206176758 187.9040069580078 41.0 190.0 C 58.084999084472656 174.38282775878906 74.43414306640625 160.38389587402344 88.0 144.0" stroke-width="2.0" fill="rgb(217, 214, 205)" opacity="1.0" stroke="rgb(0, 0, 0)" stroke-opacity="0.0" stroke-linecap="round" stroke-linejoin="round"/>
    <path d="M 368.0 282.0 C 350.3333435058594 272.0484924316406 332.6666564941406 272.9910888671875 315.0 285.0 L 290.0 279.0 C 264.66583251953125 297.4438781738281 236.66775512695312 304.7885437011719 213.0 312.0 L 333.0 312.0 C 332.55364990234375 308.960205078125 322.2530517578125 307.33392333984375 330.0 302.0 L 368.0 282.0" stroke-width="2.0" fill="rgb(97, 112, 128)" opacity="1.0" stroke="rgb(0, 0, 0)" stroke-opacity="0.0" stroke-linecap="round" stroke-linejoin="round"/>
    <path d="M 249.0 159.0 C 238.71507263183594 173.74948120117188 262.4336242675781 178.1829071044922 256.0 188.0 C 250.1384735107422 184.81005859375 248.95252990722656 171.202880859375 242.0 176.0 C 241.40577697753906 193.6666717529297 241.6423797607422 211.3333282470703 238.0 229.0 C 259.0011901855469 251.5646209716797 282.66510009765625 229.02784729003906 302.0 220.0 C 277.365966796875 204.29844665527344 274.394287109375 171.1722869873047 249.0 159.0" stroke-width="2.0" fill="rgb(107, 123, 136)" opacity="1.0" stroke="rgb(0, 0, 0)" stroke-opacity="0.0" stroke-linecap="round" stroke-linejoin="round"/>
    <path d="M 239.0 191.0 C 218.96426391601562 215.8563232421875 203.55072021484375 251.6995086669922 172.0 267.0 C 162.1798553466797 278.80517578125 187.09591674804688 273.970947265625 193.0 276.0 C 208.6666717529297 276.5975646972656 224.3333282470703 257.97119140625 240.0 255.0 C 246.6666717529297 248.56736755371094 253.3333282470703 249.42013549804688 260.0 242.0 C 252.24183654785156 238.736572265625 242.1248779296875 236.86471557617188 236.0 228.0 C 236.0108642578125 216.0 243.95828247070312 204.0 239.0 191.0" stroke-width="2.0" fill="rgb(133, 145, 153)" opacity="1.0" stroke="rgb(0, 0, 0)" stroke-opacity="0.0" stroke-linecap="round" stroke-linejoin="round"/>
    <path d="M 190.0 88.0 C 173.2158660888672 101.06329345703125 148.72561645507812 123.59105682373047 153.0 142.0 C 141.7621612548828 162.0 120.78422546386719 182.0 120.0 202.0 C 151.87728881835938 177.40487670898438 171.42552185058594 143.10887145996094 200.0 118.0 C 202.49180603027344 108.33333587646484 194.7339630126953 98.66666412353516 190.0 88.0" stroke-width="2.0" fill="rgb(131, 145, 153)" opacity="1.0" stroke="rgb(0, 0, 0)" stroke-opacity="0.0" stroke-linecap="round" stroke-linejoin="round"/>
    <path d="M 111.0 126.0 C 99.13554382324219 127.15918731689453 92.78279113769531 143.38938903808594 84.0 151.0 C 79.83909606933594 158.3333282470703 87.485107421875 165.6666717529297 82.0 173.0 C 77.54560852050781 168.6666717529297 81.98100280761719 164.3333282470703 78.0 160.0 C 54.31947708129883 167.0597381591797 71.27978515625 184.2200927734375 69.0 197.0 C 64.8254165649414 190.15805053710938 58.94344711303711 184.43699645996094 59.0 177.0 L 43.0 191.0 C 52.1169319152832 196.705810546875 62.6056022644043 203.8978271484375 73.0 214.0 C 85.09493255615234 204.20980834960938 102.69571685791016 186.0905303955078 100.0 173.0 C 111.96429443359375 160.6666717529297 104.89488220214844 148.3333282470703 116.0 136.0 C 116.74878692626953 133.0 114.8731689453125 130.0 111.0 126.0" stroke-width="2.0" fill="rgb(130, 144, 153)" opacity="1.0" stroke="rgb(0, 0, 0)" stroke-opacity="0.0" stroke-linecap="round" stroke-linejoin="round"/>
    <path d="M 240.0 62.0 C 228.4611358642578 79.71381378173828 257.7861633300781 67.2125473022461 265.0 75.0 C 255.4283905029297 81.10437774658203 237.61940002441406 73.49232482910156 242.0 91.0 C 246.4073486328125 93.3599624633789 256.6257019042969 89.2650375366211 255.0 98.0 C 251.40284729003906 107.33333587646484 239.92552185058594 116.66666412353516 235.0 126.0 C 246.2744903564453 138.77410888671875 257.63238525390625 139.49571228027344 270.0 140.0 L 271.0 108.0 C 276.4794921875 100.61344146728516 285.8931579589844 96.31865692138672 293.0 91.0 C 277.5860900878906 74.32383728027344 258.0592956542969 62.664817810058594 240.0 62.0" stroke-width="2.0" fill="rgb(195, 191, 181)" opacity="1.0" stroke="rgb(0, 0, 0)" stroke-opacity="0.0" stroke-linecap="round" stroke-linejoin="round"/>
    <path d="M 204.0 166.0 C 177.60716247558594 175.803466796875 147.5254669189453 201.75836181640625 129.0 230.0 C 135.4518585205078 233.24057006835938 136.5569610595703 245.119140625 146.0 243.0 C 170.0543670654297 220.50198364257812 195.0968780517578 190.83309936523438 204.0 166.0" stroke-width="2.0" fill="rgb(134, 147, 155)" opacity="1.0" stroke="rgb(0, 0, 0)" stroke-opacity="0.0" stroke-linecap="round" stroke-linejoin="round"/>
    <path d="M 511.0 309.0 C 488.6666564941406 316.1268615722656 466.3333435058594 322.5450134277344 444.0 315.0 C 416.3333435058594 327.5631103515625 388.6666564941406 333.5950622558594 361.0 333.0 L 428.0 334.0 C 440.6666564941406 324.27685546875 453.3333435058594 320.7618713378906 466.0 329.0 C 458.6666564941406 332.6035461425781 451.3333435058594 338.7330322265625 444.0 345.0 C 460.3333435058594 337.5832214355469 476.6666564941406 344.1180419921875 493.0 334.0 C 499.0 333.4997253417969 505.0 339.7862854003906 511.0 338.0 L 511.0 309.0" stroke-width="2.0" fill="rgb(31, 36, 45)" opacity="1.0" stroke="rgb(0, 0, 0)" stroke-opacity="0.0" stroke-linecap="round" stroke-linejoin="round"/>
    <path d="M 0.0 54.0 L 0.0 65.0 L 138.0 64.0 C 120.66475677490234 54.01327896118164 99.00143432617188 58.64628601074219 80.0 47.0 C 69.33333587646484 51.0743408203125 58.66666793823242 44.183109283447266 48.0 45.0 C 38.0 58.195167541503906 28.0 41.04483413696289 18.0 53.0 L 0.0 54.0" stroke-width="2.0" fill="rgb(198, 198, 191)" opacity="1.0" stroke="rgb(0, 0, 0)" stroke-opacity="0.0" stroke-linecap="round" stroke-linejoin="round"/>
    <path d="M 478.0 176.0 C 468.29010009765625 173.89089965820312 473.616943359375 189.02456665039062 463.0 184.0 C 450.5354309082031 193.03094482421875 420.8797607421875 223.17465209960938 444.0 229.0 L 442.0 235.0 C 456.6809387207031 228.18910217285156 479.08050537109375 214.88790893554688 497.0 199.0 C 493.0491638183594 191.6666717529297 484.517333984375 184.3333282470703 478.0 176.0" stroke-width="2.0" fill="rgb(102, 119, 132)" opacity="1.0" stroke="rgb(0, 0, 0)" stroke-opacity="0.0" stroke-linecap="round" stroke-linejoin="round"/>
    <path d="M 239.0 139.0 C 205.35142517089844 152.45245361328125 202.57579040527344 193.06509399414062 179.0 219.0 C 197.3333282470703 214.2510986328125 215.6666717529297 192.76443481445312 234.0 179.0 C 234.00210571289062 170.43838500976562 231.47727966308594 185.0499267578125 227.0 179.0 C 234.18011474609375 167.593505859375 255.0373992919922 152.9564971923828 239.0 139.0" stroke-width="2.0" fill="rgb(130, 143, 151)" opacity="1.0" stroke="rgb(0, 0, 0)" stroke-opacity="0.0" stroke-linecap="round" stroke-linejoin="round"/>
    <path d="M 0.0 298.0 L 0.0 327.0 C 22.33333396911621 341.4149169921875 44.66666793823242 340.9906921386719 67.0 351.0 L 81.0 351.0 C 64.66666412353516 344.2146911621094 48.33333206176758 329.0442199707031 32.0 329.0 C 28.43736457824707 322.09100341796875 46.33261489868164 327.2939758300781 46.0 322.0 C 31.0 314.28125 16.0 306.71826171875 0.0 298.0" stroke-width="2.0" fill="rgb(29, 35, 45)" opacity="1.0" stroke="rgb(0, 0, 0)" stroke-opacity="0.0" stroke-linecap="round" stroke-linejoin="round"/>
    <path d="M 53.0 124.0 C 39.81053924560547 129.78443908691406 24.261470794677734 131.1982879638672 14.0 146.0 C 20.637182235717773 155.0 25.541275024414062 164.0 16.0 173.0 C 30.79782485961914 194.6995391845703 40.87092590332031 163.6339111328125 52.0 156.0 C 40.99320983886719 147.63002014160156 65.71247100830078 133.267578125 53.0 124.0" stroke-width="2.0" fill="rgb(246, 244, 234)" opacity="1.0" stroke="rgb(0, 0, 0)" stroke-opacity="0.0" stroke-linecap="round" stroke-linejoin="round"/>
    <path d="M 511.0 196.0 C 493.18231201171875 195.8269805908203 481.51507568359375 217.17193603515625 480.0 231.0 C 468.0613708496094 240.6666717529297 472.9008483886719 250.3333282470703 472.0 260.0 C 484.4386291503906 252.4117431640625 499.1891784667969 243.7023162841797 510.0 230.0 L 511.0 196.0" stroke-width="2.0" fill="rgb(28, 36, 48)" opacity="1.0" stroke="rgb(0, 0, 0)" stroke-opacity="0.0" stroke-linecap="round" stroke-linejoin="round"/>
    <path d="M 88.0 144.0 C 78.33333587646484 140.12388610839844 68.66666412353516 128.89608764648438 59.0 128.0 C 58.63125991821289 137.49313354492188 44.933780670166016 147.9583282470703 53.0 156.0 C 44.308719635009766 162.9415740966797 37.60882568359375 176.01414489746094 30.0 183.0 C 46.99185562133789 202.01133728027344 60.83134460449219 163.02801513671875 78.0 157.0 L 88.0 144.0" stroke-width="2.0" fill="rgb(194, 190, 181)" opacity="1.0" stroke="rgb(0, 0, 0)" stroke-opacity="0.0" stroke-linecap="round" stroke-linejoin="round"/>
    <path d="M 248.0 140.0 C 247.11630249023438 157.53329467773438 274.80609130859375 169.66012573242188 280.0 189.0 C 285.5078125 194.6593017578125 287.6230163574219 198.29385375976562 294.0 202.0 C 300.6423034667969 196.08932495117188 297.6661682128906 191.7929229736328 292.0 183.0 C 294.44940185546875 164.27276611328125 269.8333435058594 134.08619689941406 248.0 140.0" stroke-width="2.0" fill="rgb(102, 118, 130)" opacity="1.0" stroke="rgb(0, 0, 0)" stroke-opacity="0.0" stroke-linecap="round" stroke-linejoin="round"/>
    <path d="M 244.0 175.0 C 235.74159240722656 181.7745819091797 242.9466552734375 192.5874481201172 243.0 201.0 C 239.73060607910156 213.0830841064453 231.03907775878906 230.94003295898438 250.0 237.0 C 254.94493103027344 241.5578155517578 277.5913391113281 239.26748657226562 267.0 231.0 C 263.814697265625 212.9984130859375 259.92156982421875 192.33544921875 244.0 175.0" stroke-width="2.0" fill="rgb(102, 119, 132)" opacity="1.0" stroke="rgb(0, 0, 0)" stroke-opacity="0.0" stroke-linecap="round" stroke-linejoin="round"/>
    <path d="M 511.0 243.0 C 501.0267639160156 245.8697509765625 489.51513671875 253.46121215820312 492.0 264.0 C 479.4005432128906 278.2039794921875 460.6785583496094 287.2292175292969 448.0 297.0 C 460.6666564941406 295.447509765625 473.3333435058594 286.40179443359375 486.0 290.0 C 489.404296875 292.8263854980469 483.2173156738281 292.5906066894531 485.0 295.0 L 511.0 279.0 L 511.0 243.0" stroke-width="2.0" fill="rgb(27, 35, 47)" opacity="1.0" stroke="rgb(0, 0, 0)" stroke-opacity="0.0" stroke-linecap="round" stroke-linejoin="round"/>
    <path d="M 183.0 141.0 C 165.5572052001953 163.34861755371094 130.0006866455078 189.98861694335938 128.0 214.0 C 154.10995483398438 200.83819580078125 178.4241485595703 168.39744567871094 189.0 146.0 L 183.0 141.0" stroke-width="2.0" fill="rgb(130, 143, 150)" opacity="1.0" stroke="rgb(0, 0, 0)" stroke-opacity="0.0" stroke-linecap="round" stroke-linejoin="round"/>
    <path d="M 355.0 21.0 C 337.3333435058594 6.541866779327393 319.6666564941406 24.171432495117188 302.0 11.0 C 292.3333435058594 11.653610229492188 282.6666564941406 17.787120819091797 273.0 19.0 C 264.0 17.261043548583984 255.0 16.98515510559082 246.0 17.0 C 237.91969299316406 21.727651596069336 224.7758331298828 17.264694213867188 220.0 23.0 C 264.3333435058594 23.397716522216797 308.6666564941406 21.97165298461914 353.0 24.0 L 355.0 21.0" stroke-width="2.0" fill="rgb(200, 201, 194)" opacity="1.0" stroke="rgb(0, 0, 0)" stroke-opacity="0.0" stroke-linecap="round" stroke-linejoin="round"/>
    <path d="M 466.0 323.0 C 447.6450500488281 304.4692687988281 425.0160827636719 323.6548156738281 405.0 329.0 C 390.0 331.55560302734375 375.0 329.15386962890625 360.0 333.0 C 383.0 336.4949035644531 406.0 332.87286376953125 429.0 334.0 C 441.0 322.7012939453125 453.0 323.70806884765625 465.0 327.0 L 466.0 323.0" stroke-width="2.0" fill="rgb(40, 40, 47)" opacity="1.0" stroke="rgb(0, 0, 0)" stroke-opacity="0.0" stroke-linecap="round" stroke-linejoin="round"/>
    <path d="M 0.0 328.0 L 0.0 353.0 L 67.0 352.0 C 41.00325012207031 340.73590087890625 23.664228439331055 343.7447814941406 0.0 328.0" stroke-width="2.0" fill="rgb(143, 101, 91)" opacity="1.0" stroke="rgb(0, 0, 0)" stroke-opacity="0.0" stroke-linecap="round" stroke-linejoin="round"/>
    <path d="M 338.0 140.0 C 331.5107116699219 155.6666717529297 354.24322509765625 171.3333282470703 359.0 187.0 C 369.1080322265625 171.7090301513672 359.1004638671875 152.07461547851562 338.0 140.0" stroke-width="2.0" fill="rgb(102, 118, 130)" opacity="1.0" stroke="rgb(0, 0, 0)" stroke-opacity="0.0" stroke-linecap="round" stroke-linejoin="round"/>
    <path d="M 408.0 164.0 C 402.9830322265625 168.18983459472656 395.3560485839844 170.71102905273438 392.0 176.0 L 410.0 193.0 C 409.45147705078125 182.405029296875 429.4482421875 166.062255859375 408.0 164.0" stroke-width="2.0" fill="rgb(213, 217, 213)" opacity="1.0" stroke="rgb(0, 0, 0)" stroke-opacity="0.0" stroke-linecap="round" stroke-linejoin="round"/>
    <path d="M 503.0 21.0 C 483.314208984375 16.070449829101562 456.6815185546875 15.867698669433594 437.0 22.0 C 459.0 25.319141387939453 481.0 25.319141387939453 503.0 21.0" stroke-width="2.0" fill="rgb(167, 171, 173)" opacity="1.0" stroke="rgb(0, 0, 0)" stroke-opacity="0.0" stroke-linecap="round" stroke-linejoin="round"/>
    <path d="M 303.0 238.0 C 284.6672058105469 245.5345001220703 301.1646423339844 271.24822998046875 314.0 257.0 C 319.7265930175781 250.27735900878906 313.8126525878906 235.87013244628906 303.0 238.0" stroke-width="2.0" fill="rgb(131, 141, 149)" opacity="1.0" stroke="rgb(0, 0, 0)" stroke-opacity="0.0" stroke-linecap="round" stroke-linejoin="round"/>
    <path d="M 475.0 155.0 C 465.6666564941406 152.55288696289062 456.3333435058594 162.24502563476562 447.0 162.0 C 432.6451721191406 184.480712890625 468.7705993652344 173.84251403808594 475.0 155.0" stroke-width="2.0" fill="rgb(243, 241, 231)" opacity="1.0" stroke="rgb(0, 0, 0)" stroke-opacity="0.0" stroke-linecap="round" stroke-linejoin="round"/>
    <path d="M 318.0 151.0 C 310.1934509277344 160.1448211669922 319.1323547363281 169.4564208984375 329.0 176.0 C 337.4129638671875 190.6666717529297 348.06903076171875 205.3333282470703 351.0 220.0 C 347.80133056640625 204.67962646484375 351.91314697265625 197.99029541015625 337.0 186.0 C 330.5615539550781 174.3333282470703 323.95599365234375 162.6666717529297 318.0 151.0" stroke-width="2.0" fill="rgb(172, 179, 179)" opacity="1.0" stroke="rgb(0, 0, 0)" stroke-opacity="0.0" stroke-linecap="round" stroke-linejoin="round"/>
    <path d="M 0.0 290.0 L 1.0 298.0 L 51.0 323.0 C 51.05982971191406 321.3333435058594 51.5042724609375 319.6666564941406 49.0 318.0 C 33.0 310.1444091796875 17.0 299.4072265625 0.0 290.0" stroke-width="2.0" fill="rgb(121, 92, 88)" opacity="1.0" stroke="rgb(0, 0, 0)" stroke-opacity="0.0" stroke-linecap="round" stroke-linejoin="round"/>
    <path d="M 11.0 149.0 C -5.609872817993164 155.52359008789062 0.733910083770752 167.0812225341797 14.0 172.0 C 25.093036651611328 164.75689697265625 20.55501365661621 153.0046844482422 11.0 149.0" stroke-width="2.0" fill="rgb(124, 137, 146)" opacity="1.0" stroke="rgb(0, 0, 0)" stroke-opacity="0.0" stroke-linecap="round" stroke-linejoin="round"/>
    <path d="M 438.0 21.0 L 502.0 23.0 L 501.0 19.0 C 480.3333435058594 18.543548583984375 459.6666564941406 16.438661575317383 438.0 21.0" stroke-width="2.0" fill="rgb(180, 181, 182)" opacity="1.0" stroke="rgb(0, 0, 0)" stroke-opacity="0.0" stroke-linecap="round" stroke-linejoin="round"/>
    <path d="M 282.0 154.0 C 296.04180908203125 168.6690216064453 288.083251953125 185.99685668945312 304.0 199.0 L 304.0 177.0 L 282.0 154.0" stroke-width="2.0" fill="rgb(184, 185, 180)" opacity="1.0" stroke="rgb(0, 0, 0)" stroke-opacity="0.0" stroke-linecap="round" stroke-linejoin="round"/>
    <path d="M 148.0 140.0 C 136.42454528808594 153.11285400390625 115.18162536621094 167.6157684326172 117.0 182.0 C 125.69248962402344 169.56582641601562 147.11647033691406 155.4465789794922 148.0 140.0" stroke-width="2.0" fill="rgb(129, 139, 145)" opacity="1.0" stroke="rgb(0, 0, 0)" stroke-opacity="0.0" stroke-linecap="round" stroke-linejoin="round"/>
    <path d="M 223.0 134.0 C 211.0928497314453 140.15573120117188 194.73867797851562 154.46961975097656 191.0 167.0 C 205.85520935058594 161.57998657226562 215.89291381835938 149.27720642089844 223.0 134.0" stroke-width="2.0" fill="rgb(126, 137, 145)" opacity="1.0" stroke="rgb(0, 0, 0)" stroke-opacity="0.0" stroke-linecap="round" stroke-linejoin="round"/>
    <path d="M 133.0 237.0 C 126.80130767822266 243.26454162597656 103.36094665527344 252.93838500976562 119.0 260.0 C 128.28070068359375 259.1715087890625 140.98626708984375 248.85838317871094 133.0 237.0" stroke-width="2.0" fill="rgb(132, 144, 152)" opacity="1.0" stroke="rgb(0, 0, 0)" stroke-opacity="0.0" stroke-linecap="round" stroke-linejoin="round"/>
    <path d="M 64.0 49.0 C 57.655784606933594 43.19386672973633 48.30349349975586 42.541839599609375 45.0 50.0 C 39.11286163330078 49.882442474365234 18.460716247558594 60.11903381347656 34.0 61.0 C 41.0 54.106876373291016 48.0 52.94392776489258 55.0 57.0 L 64.0 49.0" stroke-width="2.0" fill="rgb(240, 237, 228)" opacity="1.0" stroke="rgb(0, 0, 0)" stroke-opacity="0.0" stroke-linecap="round" stroke-linejoin="round"/>
    <path d="M 23.0 134.0 C 15.666666984558105 129.163818359375 8.333333015441895 136.49317932128906 1.0 138.0 L 0.0 156.0 C 8.734569549560547 150.75062561035156 14.369597434997559 143.4134521484375 23.0 134.0" stroke-width="2.0" fill="rgb(192, 189, 181)" opacity="1.0" stroke="rgb(0, 0, 0)" stroke-opacity="0.0" stroke-linecap="round" stroke-linejoin="round"/>
    <path d="M 370.0 345.0 C 355.0 327.82708740234375 340.0 338.1043395996094 325.0 335.0 C 309.78515625 343.99267578125 329.0538330078125 338.4460754394531 335.0 338.0 C 346.3333435058594 339.5223693847656 357.6666564941406 344.6818542480469 370.0 345.0" stroke-width="2.0" fill="rgb(45, 40, 45)" opacity="1.0" stroke="rgb(0, 0, 0)" stroke-opacity="0.0" stroke-linecap="round" stroke-linejoin="round"/>
    <path d="M 511.0 280.0 C 501.1946716308594 287.10650634765625 486.14385986328125 294.2250061035156 481.0 303.0 C 492.1006774902344 298.7030944824219 515.9553833007812 297.32342529296875 511.0 280.0" stroke-width="2.0" fill="rgb(75, 86, 99)" opacity="1.0" stroke="rgb(0, 0, 0)" stroke-opacity="0.0" stroke-linecap="round" stroke-linejoin="round"/>
    <path d="M 181.0 237.0 C 169.05332946777344 235.97174072265625 149.01197814941406 245.89076232910156 151.0 261.0 C 161.0 252.53033447265625 171.0 242.33816528320312 181.0 237.0" stroke-width="2.0" fill="rgb(129, 139, 145)" opacity="1.0" stroke="rgb(0, 0, 0)" stroke-opacity="0.0" stroke-linecap="round" stroke-linejoin="round"/>
    <path d="M 229.0 194.0 C 217.25022888183594 199.5088653564453 200.0726776123047 211.22665405273438 193.0 225.0 C 205.55642700195312 215.24009704589844 221.08021545410156 207.80648803710938 229.0 194.0" stroke-width="2.0" fill="rgb(117, 133, 145)" opacity="1.0" stroke="rgb(0, 0, 0)" stroke-opacity="0.0" stroke-linecap="round" stroke-linejoin="round"/>
    <path d="M 182.0 250.0 C 171.8434295654297 243.8848114013672 162.34930419921875 261.0498046875 161.0 269.0 C 167.1159210205078 265.7444152832031 180.84214782714844 257.2908935546875 182.0 250.0" stroke-width="2.0" fill="rgb(129, 139, 146)" opacity="1.0" stroke="rgb(0, 0, 0)" stroke-opacity="0.0" stroke-linecap="round" stroke-linejoin="round"/>
    <path d="M 147.0 256.0 C 138.6666717529297 258.42535400390625 130.3333282470703 262.1448974609375 122.0 262.0 C 130.236572265625 278.3128356933594 143.3525390625 268.064208984375 147.0 256.0" stroke-width="2.0" fill="rgb(118, 134, 145)" opacity="1.0" stroke="rgb(0, 0, 0)" stroke-opacity="0.0" stroke-linecap="round" stroke-linejoin="round"/>
    <path d="M 244.0 171.0 C 255.25375366210938 186.3354949951172 262.7844543457031 204.3304443359375 266.0 218.0 C 270.3398132324219 202.3333282470703 258.8677062988281 186.6666717529297 244.0 171.0" stroke-width="2.0" fill="rgb(195, 204, 207)" opacity="1.0" stroke="rgb(0, 0, 0)" stroke-opacity="0.0" stroke-linecap="round" stroke-linejoin="round"/>
    <path d="M 228.0 329.0 C 235.67404174804688 338.252197265625 247.66114807128906 345.3474426269531 257.0 340.0 C 245.67575073242188 334.3836975097656 238.6598663330078 326.5421447753906 228.0 329.0" stroke-width="2.0" fill="rgb(128, 95, 88)" opacity="1.0" stroke="rgb(0, 0, 0)" stroke-opacity="0.0" stroke-linecap="round" stroke-linejoin="round"/>
    <path d="M 363.0 163.0 C 364.96746826171875 173.3333282470703 361.5033874511719 183.6666717529297 360.0 194.0 L 379.0 220.0 C 379.141845703125 206.3333282470703 353.5048522949219 192.6666717529297 366.0 179.0 L 363.0 163.0" stroke-width="2.0" fill="rgb(150, 162, 169)" opacity="1.0" stroke="rgb(0, 0, 0)" stroke-opacity="0.0" stroke-linecap="round" stroke-linejoin="round"/>
    <path d="M 426.0 167.0 C 417.5452880859375 165.3326416015625 403.0476989746094 205.07894897460938 419.0 188.0 L 426.0 167.0" stroke-width="2.0" fill="rgb(198, 194, 185)" opacity="1.0" stroke="rgb(0, 0, 0)" stroke-opacity="0.0" stroke-linecap="round" stroke-linejoin="round"/>
    <path d="M 318.0 151.0 C 306.74639892578125 163.5955047607422 330.3819274902344 175.3924102783203 336.0 184.0 C 328.2259826660156 173.0 324.5545654296875 162.0 318.0 151.0" stroke-width="2.0" fill="rgb(180, 185, 182)" opacity="1.0" stroke="rgb(0, 0, 0)" stroke-opacity="0.0" stroke-linecap="round" stroke-linejoin="round"/>
    <path d="M 143.0 116.0 C 129.85403442382812 122.89952850341797 128.26914978027344 135.1667022705078 125.0 145.0 C 135.2332763671875 137.65878295898438 142.16441345214844 126.00590515136719 143.0 116.0" stroke-width="2.0" fill="rgb(124, 140, 144)" opacity="1.0" stroke="rgb(0, 0, 0)" stroke-opacity="0.0" stroke-linecap="round" stroke-linejoin="round"/>
    <path d="M 309.0 15.0 C 299.3333435058594 4.064949035644531 289.6666564941406 18.70509910583496 280.0 16.0 L 274.0 19.0 C 285.6666564941406 20.35535430908203 297.3333435058594 18.726280212402344 309.0 15.0" stroke-width="2.0" fill="rgb(228, 229, 222)" opacity="1.0" stroke="rgb(0, 0, 0)" stroke-opacity="0.0" stroke-linecap="round" stroke-linejoin="round"/>
    <path d="M 411.0 164.0 C 404.2385559082031 165.3718719482422 382.87017822265625 175.59678649902344 400.0 183.0 C 401.4952392578125 178.6026153564453 408.229736328125 164.267333984375 413.0 169.0 C 415.6666564941406 166.1666717529297 412.3333435058594 166.3333282470703 411.0 164.0" stroke-width="2.0" fill="rgb(228, 231, 226)" opacity="1.0" stroke="rgb(0, 0, 0)" stroke-opacity="0.0" stroke-linecap="round" stroke-linejoin="round"/>
    <path d="M 63.0 40.0 C 54.72776412963867 38.903865814208984 36.475372314453125 36.19259262084961 40.0 49.0 C 46.98120880126953 46.4728889465332 54.7962760925293 40.13587951660156 63.0 46.0 L 63.0 40.0" stroke-width="2.0" fill="rgb(113, 137, 149)" opacity="1.0" stroke="rgb(0, 0, 0)" stroke-opacity="0.0" stroke-linecap="round" stroke-linejoin="round"/>
    <path d="M 454.0 185.0 C 443.42071533203125 184.594482421875 438.7674560546875 198.0673370361328 436.0 206.0 C 443.1098327636719 204.4899139404297 447.9361877441406 192.2606658935547 454.0 185.0" stroke-width="2.0" fill="rgb(118, 127, 134)" opacity="1.0" stroke="rgb(0, 0, 0)" stroke-opacity="0.0" stroke-linecap="round" stroke-linejoin="round"/>
    <path d="M 265.0 248.0 C 257.5743103027344 249.6858367919922 245.125732421875 260.0094299316406 241.0 266.0 C 248.73228454589844 262.06121826171875 260.4345397949219 259.26959228515625 265.0 248.0" stroke-width="2.0" fill="rgb(200, 197, 190)" opacity="1.0" stroke="rgb(0, 0, 0)" stroke-opacity="0.0" stroke-linecap="round" stroke-linejoin="round"/>
    <path d="M 195.0 284.0 C 186.32699584960938 285.9930114746094 175.00845336914062 284.1676940917969 168.0 290.0 C 177.0 290.4257507324219 186.0 292.7010803222656 195.0 284.0" stroke-width="2.0" fill="rgb(143, 150, 154)" opacity="1.0" stroke="rgb(0, 0, 0)" stroke-opacity="0.0" stroke-linecap="round" stroke-linejoin="round"/>
    <path d="M 413.0 167.0 C 407.1393127441406 169.5216522216797 397.3672790527344 180.1957550048828 403.0 186.0 C 407.3983459472656 180.0 411.437744140625 174.0 413.0 167.0" stroke-width="2.0" fill="rgb(138, 148, 152)" opacity="1.0" stroke="rgb(0, 0, 0)" stroke-opacity="0.0" stroke-linecap="round" stroke-linejoin="round"/>
    <path d="M 314.0 193.0 C 309.9305419921875 198.16542053222656 312.4178161621094 208.10621643066406 318.0 210.0 C 316.7778625488281 204.83457946777344 322.5146484375 194.89378356933594 314.0 193.0" stroke-width="2.0" fill="rgb(171, 177, 176)" opacity="1.0" stroke="rgb(0, 0, 0)" stroke-opacity="0.0" stroke-linecap="round" stroke-linejoin="round"/>
    <path d="M 428.0 169.0 C 427.33392333984375 173.8749542236328 424.2744140625 184.90711975097656 430.0 185.0 C 436.6593322753906 179.9830322265625 433.6903076171875 172.35604858398438 428.0 169.0" stroke-width="2.0" fill="rgb(137, 144, 146)" opacity="1.0" stroke="rgb(0, 0, 0)" stroke-opacity="0.0" stroke-linecap="round" stroke-linejoin="round"/>
    <path d="M 130.0 235.0 C 123.94518280029297 240.92575073242188 111.20561218261719 244.2989501953125 110.0 252.0 C 116.34452819824219 251.30039978027344 125.31836700439453 242.50894165039062 130.0 235.0" stroke-width="2.0" fill="rgb(216, 220, 220)" opacity="1.0" stroke="rgb(0, 0, 0)" stroke-opacity="0.0" stroke-linecap="round" stroke-linejoin="round"/>
    <path d="M 62.0 172.0 C 58.90643310546875 180.3333282470703 66.61003112792969 188.6666717529297 69.0 197.0 C 71.07518005371094 189.0 63.61696243286133 181.0 62.0 172.0" stroke-width="2.0" fill="rgb(157, 166, 171)" opacity="1.0" stroke="rgb(0, 0, 0)" stroke-opacity="0.0" stroke-linecap="round" stroke-linejoin="round"/>
    <path d="M 162.0 204.0 C 155.56134033203125 199.06748962402344 146.46812438964844 218.25050354003906 157.0 212.0 C 158.88992309570312 209.6666717529297 163.02674865722656 207.3333282470703 162.0 204.0" stroke-width="2.0" fill="rgb(221, 225, 224)" opacity="1.0" stroke="rgb(0, 0, 0)" stroke-opacity="0.0" stroke-linecap="round" stroke-linejoin="round"/>
    <path d="M 200.0 232.0 C 194.13160705566406 236.0144805908203 181.85023498535156 253.3966064453125 196.0 240.0 L 200.0 232.0" stroke-width="2.0" fill="rgb(141, 148, 150)" opacity="1.0" stroke="rgb(0, 0, 0)" stroke-opacity="0.0" stroke-linecap="round" stroke-linejoin="round"/>
    <path d="M 123.0 151.0 C 119.578369140625 152.79312133789062 109.60067749023438 163.28842163085938 117.0 162.0 L 123.0 151.0" stroke-width="2.0" fill="rgb(140, 143, 143)" opacity="1.0" stroke="rgb(0, 0, 0)" stroke-opacity="0.0" stroke-linecap="round" stroke-linejoin="round"/>
    <path d="M 275.0 19.0 C 278.6199645996094 19.575607299804688 286.6017150878906 20.8946533203125 287.0 16.0 C 283.0 15.58700180053711 279.0 16.271690368652344 275.0 19.0" stroke-width="2.0" fill="rgb(223, 224, 218)" opacity="1.0" stroke="rgb(0, 0, 0)" stroke-opacity="0.0" stroke-linecap="round" stroke-linejoin="round"/>
  </g>
</svg>
