<?xml version="1.0" ?>
<svg xmlns="http://www.w3.org/2000/svg" version="1.1" width="512" height="512">
  <defs/>
  <g>
    <path d="M -0.42466768622398376 -0.48359736800193787 L 512.0003051757812 -0.7193809151649475 L 512.0 512.2330932617188 L -0.8326092958450317 512.3004760742188 L -0.42466768622398376 -0.48359736800193787" stroke-width="0.0" fill="rgb(256, 257, 257)" opacity="1.015756" stroke="rgb(0, 0, 0)" stroke-opacity="0.0" stroke-linecap="round" stroke-linejoin="round"/>
    <path d="M 0.5099886059761047 0.5092797875404358 L 0.5090043544769287 511.7976989746094 L 511.6437072753906 511.7966613769531 L 511.6435546875 0.5084951519966125 L 0.5099886059761047 0.5092797875404358" stroke-width="2.0" fill="rgb(247, 247, 247)" opacity="0.9802831" stroke="rgb(0, 0, 0)" stroke-opacity="0.0" stroke-linecap="round" stroke-linejoin="round"/>
    <path d="M 180.36746215820312 151.5868682861328 C 114.9516830444336 208.83908081054688 114.17642974853516 278.5343933105469 157.60365295410156 339.49456787109375 C 167.13131713867188 348.19757080078125 175.93873596191406 357.2011413574219 185.51698303222656 363.03680419921875 C 179.11965942382812 370.307373046875 166.515380859375 366.38909912109375 156.2877960205078 372.3511962890625 C 151.32872009277344 384.4654541015625 171.2916259765625 382.4776306152344 177.62928771972656 385.84600830078125 C 229.63926696777344 393.1246337890625 281.8583984375 393.34820556640625 333.30072021484375 386.02972412109375 C 339.6065368652344 382.2471008300781 359.6841125488281 384.61395263671875 354.51483154296875 372.6940612792969 C 344.6686706542969 367.36260986328125 335.0211181640625 367.81597900390625 326.289306640625 364.3949279785156 C 332.7922668457031 357.5983581542969 346.2110595703125 348.961669921875 355.0790100097656 338.95703125 C 397.21551513671875 280.0783386230469 395.95587158203125 214.86976623535156 340.07965087890625 158.30755615234375 C 287.51812744140625 119.78150939941406 234.3208465576172 118.26559448242188 180.36746215820312 151.5868682861328" stroke-width="2.0" fill="rgb(258, 198, 65)" opacity="1.0421607" stroke="rgb(0, 0, 0)" stroke-opacity="0.0" stroke-linecap="round" stroke-linejoin="round"/>
    <path d="M 153.0708770751953 373.5045471191406 C 154.30731201171875 383.4397888183594 166.7613067626953 381.7948913574219 172.1979522705078 385.2370300292969 C 230.0762939453125 393.135986328125 289.34619140625 394.2289123535156 347.33258056640625 383.57012939453125 C 351.8389587402344 381.3121032714844 363.12908935546875 378.76434326171875 354.72271728515625 371.4790954589844 C 328.3910217285156 361.54144287109375 304.23651123046875 363.4228515625 279.61468505859375 360.5643615722656 C 241.45846557617188 360.0249328613281 203.90762329101562 359.9685363769531 166.88055419921875 367.9385986328125 L 153.0708770751953 373.5045471191406" stroke-width="2.0" fill="rgb(65, 140, 235)" opacity="1.0118576" stroke="rgb(0, 0, 0)" stroke-opacity="0.0" stroke-linecap="round" stroke-linejoin="round"/>
    <path d="M 201.91912841796875 213.56324768066406 C 179.39700317382812 216.09625244140625 168.11903381347656 243.6309051513672 181.71885681152344 261.59130859375 C 206.61245727539062 296.1134948730469 251.06455993652344 258.2404479980469 233.5238494873047 230.06185913085938 C 226.74221801757812 216.1376495361328 213.75860595703125 211.4326934814453 201.91912841796875 213.56324768066406" stroke-width="2.0" fill="rgb(94, 85, 63)" opacity="1.1235182" stroke="rgb(0, 0, 0)" stroke-opacity="0.0" stroke-linecap="round" stroke-linejoin="round"/>
    <path d="M 302.1005554199219 213.4373779296875 C 276.5700378417969 215.611328125 264.8641662597656 246.8799591064453 284.5104675292969 266.0162048339844 C 301.9340515136719 283.11651611328125 330.68719482421875 273.8080139160156 335.47796630859375 249.29261779785156 C 340.3919677734375 231.00906372070312 321.0301818847656 208.83689880371094 302.1005554199219 213.4373779296875" stroke-width="2.0" fill="rgb(94, 85, 63)" opacity="1.113197" stroke="rgb(0, 0, 0)" stroke-opacity="0.0" stroke-linecap="round" stroke-linejoin="round"/>
    <path d="M 324.223388671875 268.7274475097656 C 314.5152893066406 274.7923278808594 304.7916564941406 273.0166320800781 299.4517822265625 274.7907409667969 L 299.4468994140625 363.2480773925781 C 307.6667175292969 364.5162353515625 315.4165344238281 367.5086669921875 324.2614440917969 363.7532653808594 L 324.223388671875 268.7274475097656" stroke-width="2.0" fill="rgb(63, 139, 234)" opacity="0.99660444" stroke="rgb(0, 0, 0)" stroke-opacity="0.0" stroke-linecap="round" stroke-linejoin="round"/>
    <path d="M 188.2530059814453 268.8394470214844 L 188.31057739257812 364.16058349609375 C 195.71832275390625 366.3668212890625 206.1611785888672 367.8133239746094 212.3148651123047 361.0291748046875 L 212.64524841308594 274.1302185058594 C 203.83297729492188 275.1559753417969 196.787841796875 273.95556640625 188.2530059814453 268.8394470214844" stroke-width="2.0" fill="rgb(62, 139, 237)" opacity="1.0022794" stroke="rgb(0, 0, 0)" stroke-opacity="0.0" stroke-linecap="round" stroke-linejoin="round"/>
    <path d="M 313.01568603515625 220.02137756347656 C 294.3779602050781 205.9788818359375 262.75 238.77955627441406 289.829345703125 250.1852569580078 C 304.44818115234375 254.76979064941406 328.0912780761719 234.89303588867188 313.01568603515625 220.02137756347656" stroke-width="2.0" fill="rgb(238, 239, 239)" opacity="1.0127443" stroke="rgb(0, 0, 0)" stroke-opacity="0.0" stroke-linecap="round" stroke-linejoin="round"/>
    <path d="M 214.25535583496094 220.180419921875 C 195.5698699951172 205.78225708007812 163.94505310058594 239.02239990234375 191.09474182128906 250.08834838867188 C 205.29025268554688 255.07025146484375 229.36346435546875 234.62527465820312 214.25535583496094 220.180419921875" stroke-width="2.0" fill="rgb(239, 239, 239)" opacity="1.0128075" stroke="rgb(0, 0, 0)" stroke-opacity="0.0" stroke-linecap="round" stroke-linejoin="round"/>
    <path d="M 294.603271484375 175.58912658691406 C 292.28729248046875 201.41024780273438 329.89935302734375 223.39645385742188 350.33489990234375 211.342041015625 C 352.27313232421875 198.02975463867188 337.5732421875 201.10003662109375 330.99365234375 201.0271453857422 C 319.9587707519531 199.16104125976562 306.66741943359375 186.2062225341797 305.5744934082031 174.0504913330078 L 294.603271484375 175.58912658691406" stroke-width="2.0" fill="rgb(216, 153, 2)" opacity="0.996676" stroke="rgb(0, 0, 0)" stroke-opacity="0.0" stroke-linecap="round" stroke-linejoin="round"/>
    <path d="M 216.15843200683594 174.5432586669922 C 201.5895233154297 169.78041076660156 204.5640411376953 192.73109436035156 190.2408905029297 197.2052764892578 C 181.1736602783203 205.5404052734375 162.3277587890625 194.39732360839844 160.7841033935547 210.2204132080078 C 174.31124877929688 219.69277954101562 187.161376953125 212.2505340576172 200.15963745117188 207.4021759033203 C 210.6551971435547 198.45504760742188 220.12362670898438 186.5757598876953 216.15843200683594 174.5432586669922" stroke-width="2.0" fill="rgb(216, 153, 2)" opacity="0.99617815" stroke="rgb(0, 0, 0)" stroke-opacity="0.0" stroke-linecap="round" stroke-linejoin="round"/>
    <path d="M 229.95339965820312 323.1854248046875 C 230.94688415527344 335.5978088378906 241.889404296875 329.8551025390625 248.23556518554688 326.046630859375 C 257.5218200683594 323.8100891113281 266.2921447753906 326.3993225097656 277.08892822265625 331.7737731933594 C 290.4068603515625 322.14874267578125 271.53839111328125 313.2353210449219 263.8046875 313.24017333984375 C 253.52056884765625 312.5047912597656 239.67193603515625 310.6006774902344 229.95339965820312 323.1854248046875" stroke-width="2.0" fill="rgb(83, 78, 67)" opacity="1.0004246" stroke="rgb(0, 0, 0)" stroke-opacity="0.0" stroke-linecap="round" stroke-linejoin="round"/>
    <path d="M 223.63021850585938 251.99192810058594 C 208.90646362304688 245.66664123535156 205.9688720703125 270.5068359375 222.57064819335938 261.40374755859375 C 225.79689025878906 258.3120422363281 226.40383911132812 254.96728515625 223.63021850585938 251.99192810058594" stroke-width="2.0" fill="rgb(232, 232, 231)" opacity="1.042978" stroke="rgb(0, 0, 0)" stroke-opacity="0.0" stroke-linecap="round" stroke-linejoin="round"/>
    <path d="M 323.1720886230469 251.57159423828125 C 305.3315124511719 246.48716735839844 306.7022399902344 272.7791442871094 323.8544921875 259.64556884765625 L 323.1720886230469 251.57159423828125" stroke-width="2.0" fill="rgb(234, 235, 233)" opacity="1.0304037" stroke="rgb(0, 0, 0)" stroke-opacity="0.0" stroke-linecap="round" stroke-linejoin="round"/>
  </g>
</svg>
