<?xml version="1.0" ?>
<svg xmlns="http://www.w3.org/2000/svg" version="1.1" width="512" height="512">
  <defs/>
  <g>
    <path d="M 484.0646667480469 140.01980590820312 C 292.6414489746094 170.12783813476562 211.4098358154297 204.4219970703125 191.9363250732422 211.75572204589844 C 42.13021469116211 270.82806396484375 194.46484375 194.52984619140625 68.10984802246094 429.5481872558594 C -36.1025505065918 318.9438171386719 -23.986663818359375 125.37842559814453 127.83646392822266 34.09534454345703 C 263.939208984375 -42.0952262878418 421.7120361328125 16.086824417114258 484.0646667480469 140.01980590820312" stroke-width="0.0" fill="rgb(0, 143, 251)" opacity="0.84244156" stroke="rgb(213, 253, 105)" stroke-opacity="0.46103457" stroke-linecap="round" stroke-linejoin="round"/>
    <path d="M 480.7529602050781 130.49288940429688 C 569.1170043945312 311.581298828125 450.470947265625 449.2604675292969 371.70220947265625 483.9244079589844 C 287.88226318359375 529.0919189453125 156.58641052246094 525.8500366210938 66.89026641845703 428.50933837890625 C 71.0165023803711 176.3963165283203 120.95238494873047 267.4075927734375 274.5338134765625 303.9635314941406 C 383.3662414550781 367.0413513183594 137.67916870117188 211.04983520507812 480.7529602050781 130.49288940429688" stroke-width="0.0" fill="rgb(35, 156, 247)" opacity="0.9859001" stroke="rgb(114, 186, 231)" stroke-opacity="0.11080943" stroke-linecap="round" stroke-linejoin="round"/>
    <path d="M 361.3562927246094 345.8311462402344 C 347.2752685546875 357.6196594238281 356.5783996582031 368.61859130859375 339.9053039550781 373.5838928222656 C 238.30697631835938 297.9002990722656 192.9329833984375 299.3013916015625 198.172119140625 209.2937774658203 C 230.38006591796875 197.0474090576172 239.71739196777344 193.32748413085938 368.5938415527344 143.71621704101562 C 420.8960876464844 119.14273834228516 385.9276123046875 195.68800354003906 361.3562927246094 345.8311462402344" stroke-width="0.0" fill="rgb(253, 253, 253)" opacity="1.0" stroke="rgb(236, 144, 214)" stroke-opacity="0.0154203875" stroke-linecap="round" stroke-linejoin="round"/>
    <path d="M 265.17059326171875 322.54425048828125 C 256.65301513671875 330.6242370605469 246.8607635498047 340.57061767578125 229.48109436035156 356.9306335449219 C 216.7506103515625 362.2793884277344 212.79920959472656 355.819580078125 214.41281127929688 352.152587890625 C 214.1453399658203 308.9710998535156 214.3213348388672 304.0070495605469 224.39178466796875 292.6395568847656 C 246.74285888671875 308.9914245605469 251.91700744628906 313.0182800292969 265.17059326171875 322.54425048828125" stroke-width="0.0" fill="rgb(184, 182, 181)" opacity="0.9876439" stroke="rgb(169, 122, 201)" stroke-opacity="0.4497735" stroke-linecap="round" stroke-linejoin="round"/>
    <path d="M 226.11569213867188 305.5284118652344 C 216.24398803710938 343.8665771484375 228.3686065673828 365.733154296875 214.48617553710938 356.7460632324219 C 206.95785522460938 333.0837097167969 204.866943359375 325.51116943359375 195.005615234375 293.143310546875 C 188.96534729003906 267.6016845703125 165.47068786621094 263.025146484375 309.0768737792969 215.883544921875 C 250.10678100585938 279.4622497558594 222.1042022705078 284.8260192871094 226.11569213867188 305.5284118652344" stroke-width="0.0" fill="rgb(235, 233, 232)" opacity="0.953911" stroke="rgb(55, 116, 70)" stroke-opacity="0.0068398914" stroke-linecap="round" stroke-linejoin="round"/>
    <path d="M 369.29351806640625 274.024169921875 C 366.9833068847656 294.8916320800781 361.4868469238281 303.6169738769531 358.0660705566406 311.81756591796875 C 343.0166931152344 302.2220153808594 341.6959533691406 299.99609375 323.79827880859375 288.5760803222656 C 297.96484375 248.7570037841797 338.7169189453125 251.21717834472656 369.94873046875 250.08799743652344 C 374.44769287109375 258.5791931152344 372.51141357421875 262.0586853027344 369.29351806640625 274.024169921875" stroke-width="0.0" fill="rgb(255, 255, 255)" opacity="0.92626107" stroke="rgb(183, 98, 233)" stroke-opacity="0.8650466" stroke-linecap="round" stroke-linejoin="round"/>
    <path d="M 387.2489318847656 236.02777099609375 C 364.771484375 332.189208984375 358.9004211425781 390.0905456542969 349.1393737792969 373.836181640625 C 372.9754943847656 262.97540283203125 374.8802795410156 252.76612854003906 376.7320251464844 244.97235107421875 C 379.3166198730469 232.16775512695312 380.6391296386719 226.97293090820312 397.3141784667969 147.1438751220703 C 410.2412109375 151.51144409179688 396.4187316894531 182.17822265625 387.2489318847656 236.02777099609375" stroke-width="0.0" fill="rgb(26, 111, 179)" opacity="1.0" stroke="rgb(178, 30, 226)" stroke-opacity="0.9233862" stroke-linecap="round" stroke-linejoin="round"/>
    <path d="M 189.55523681640625 437.47601318359375 C 188.88536071777344 439.97601318359375 187.05523681640625 441.80615234375 184.55523681640625 442.47601318359375 C 182.05523681640625 441.80615234375 180.22511291503906 439.97601318359375 179.55523681640625 437.47601318359375 C 180.22511291503906 434.97601318359375 182.05523681640625 433.1458740234375 184.55523681640625 432.47601318359375 C 187.05523681640625 433.1458740234375 188.88536071777344 434.97601318359375 189.55523681640625 437.47601318359375" stroke-width="0.0" fill="rgb(39, 161, 252)" opacity="1.0" stroke="rgb(4, 17, 30)" stroke-opacity="0.15531006" stroke-linecap="round" stroke-linejoin="round"/>
  </g>
</svg>
